<?xml version="1.0" encoding="utf-8"?>

<!--
	ScaleBook
	Copyright (c) Leland Jansen 2015. All rights reserved.
-->

<!DOCTYPE svg PUBLIC "-//W3C//DTD SVG 1.1//EN" "http://www.w3.org/Graphics/SVG/1.1/DTD/svg11.dtd">
<svg version="1.1" id="Layer_1" xmlns="http://www.w3.org/2000/svg" xmlns:xlink="http://www.w3.org/1999/xlink" x="0px" y="0px"
	 viewBox="0 0 552.9 87.8" enable-background="new 0 0 552.9 87.8" xml:space="preserve">
<rect x="8.4" y="9.7" width="0.8" height="67"/>
<g>
	<path d="M7.4,10.4c-1.9,1.1-3.6,5.8-3.6,9.4c0,2.3,1.4,9.9,1.4,12.3c0,5-1.5,8.6-4.6,11.1c3,2.4,4.6,6.1,4.6,11.1
		c0,2.3-1.4,9.9-1.4,12.3c0,3.8,1.7,8.4,3.6,9.5v0.7c-3.5-2.3-5.8-8.2-5.8-13.1c0-2.1,1.7-9.4,1.7-11.5c0-3.8-1-6.6-2.9-8.2
		C0.1,43.6,0,43.4,0,43.2c0-0.2,0.1-0.4,0.5-0.7c1.9-1.7,2.9-4.2,2.9-7.6c0-2.1-1.7-10-1.7-12.2c0-5.2,2.1-10.4,5.8-13.1V10.4z"/>
</g>
<rect x="547.8" y="9.7" width="0.8" height="67"/>
<rect x="550.4" y="9.7" width="2.5" height="67"/>
<rect x="8.5" y="29.3" width="544.4" height="0.5"/>
<rect x="8.5" y="24.4" width="544.4" height="0.5"/>
<rect x="8.5" y="19.4" width="544.4" height="0.5"/>
<rect x="8.5" y="14.4" width="544.4" height="0.5"/>
<rect x="8.5" y="9.5" width="544.4" height="0.5"/>
<g>
	<path d="M20.3,29.4c-4.2,0-8.1-3.1-8.1-6.9c0-3.2,2.3-6.7,6.8-10.5c-0.3-1.2-0.4-2.4-0.4-3.6c0-3.5,1.2-6.8,3.2-8.5
		c1.8,2.5,2.7,4.9,2.7,7.1c0,2.9-1.3,5.6-4.3,8.1l0.9,4.2c0.5,0,0.8-0.1,0.8-0.1c2.6,0,4.8,2,4.8,4.7c0,1.9-1.4,3.7-3.6,4.8
		c0-0.1,0.9,3.8,0.9,4.3c0,2.5-2.3,4.2-4.9,4.2c-2,0-3.6-1.3-3.6-3.4c0-1.4,1-2.6,2.4-2.6c1.3,0,2.3,1.3,2.3,2.5
		c0,1.4-1.2,2.3-2.7,2.5c0.6,0.3,1.2,0.5,1.9,0.5c2.1,0,4.1-1.6,4.1-3.6c0-0.2,0-0.4-0.1-0.6l-0.8-3.7
		C21.9,29.3,21.2,29.4,20.3,29.4z M18.1,24.2c0,1,0.5,1.9,1.6,2.5c-1.8-0.3-3-1.4-3-3.1c0-2,1.7-3.7,3.8-4.1l-0.8-4
		C16,18.3,14,21,14,23.6c0,2.9,2.8,5.3,6,5.3c0.9,0,1.7-0.2,2.4-0.5L21,21.6C19.4,21.8,18.1,22.8,18.1,24.2z M22.1,2.8
		c-1.6,0-2.9,3.7-2.9,7c0,0.7,0,1.3,0.2,1.9c2.7-2.4,4-4.5,4-6.5c0-0.9-0.3-1.7-1-2.4C22.4,2.9,22.3,2.8,22.1,2.8z M24.9,24.7
		c0-1.6-1.2-3.3-2.9-3.3c-0.1,0-0.2,0-0.5,0l1.4,6.6C24.2,27.2,24.9,26,24.9,24.7z"/>
</g>
<g>
	<path d="M29.5,11.3h0.6L30,17.6c0.4-0.7,1-1,1.8-1c1.2,0,2.2,0.8,2.2,1.9c0,0.8-0.5,1.8-1.7,2.7l-2.8,2.1V11.3z M30.1,18.2
		C30,19,30,19.6,30,20.2c0,1,0,1.6,0.1,2c1-0.7,2.4-2.6,2.4-3.7c0-0.6-0.5-1.1-1.1-1.1C30.8,17.4,30.4,17.7,30.1,18.2z"/>
</g>
<g>
	<path d="M35.1,3.9h0.6l-0.1,6.2c0.4-0.7,1-1,1.8-1c1.2,0,2.2,0.8,2.2,1.9c0,0.8-0.5,1.8-1.7,2.7l-2.8,2.1V3.9z M35.7,10.8
		c-0.1,0.8-0.1,1.4-0.1,1.9c0,1,0,1.6,0.1,2c1-0.7,2.4-2.6,2.4-3.7c0-0.6-0.5-1.1-1.1-1.1C36.4,10,36,10.2,35.7,10.8z"/>
</g>
<g>
	<path d="M40.7,13.8h0.6l-0.1,6.2c0.4-0.7,1-1,1.8-1c1.2,0,2.2,0.8,2.2,1.9c0,0.8-0.5,1.8-1.7,2.7l-2.8,2.1V13.8z M41.3,20.7
		c-0.1,0.8-0.1,1.4-0.1,1.9c0,1,0,1.6,0.1,2c1-0.7,2.4-2.6,2.4-3.7c0-0.6-0.5-1.1-1.1-1.1C42,19.9,41.6,20.2,41.3,20.7z"/>
</g>
<g>
	<path d="M46.3,6.4h0.6l-0.1,6.2c0.4-0.7,1-1,1.8-1c1.2,0,2.2,0.8,2.2,1.9c0,0.8-0.5,1.8-1.7,2.7l-2.8,2.1V6.4z M46.9,13.3
		c-0.1,0.8-0.1,1.4-0.1,1.9c0,1,0,1.6,0.1,2c1-0.7,2.4-2.6,2.4-3.7c0-0.6-0.5-1.1-1.1-1.1C47.6,12.4,47.2,12.7,46.9,13.3z"/>
</g>
<g>
	<path d="M51.9,16.3h0.6l-0.1,6.2c0.4-0.7,1-1,1.8-1c1.2,0,2.2,0.8,2.2,1.9c0,0.8-0.5,1.8-1.7,2.7l-2.8,2.1V16.3z M52.4,23.2
		c-0.1,0.8-0.1,1.4-0.1,1.9c0,1,0,1.6,0.1,2c1-0.7,2.4-2.6,2.4-3.7c0-0.6-0.5-1.1-1.1-1.1C53.2,22.4,52.7,22.6,52.4,23.2z"/>
</g>
<g>
	<path d="M57.4,8.8h0.6l-0.1,6.2c0.4-0.7,1-1,1.8-1c1.2,0,2.2,0.8,2.2,1.9c0,0.8-0.5,1.8-1.7,2.7l-2.8,2.1V8.8z M58,15.7
		c-0.1,0.8-0.1,1.4-0.1,1.9c0,1,0,1.6,0.1,2c1-0.7,2.4-2.6,2.4-3.7c0-0.6-0.5-1.1-1.1-1.1C58.7,14.9,58.3,15.2,58,15.7z"/>
</g>
<g>
	<path d="M63,18.8h0.6L63.5,25c0.4-0.7,1-1,1.8-1c1.2,0,2.2,0.8,2.2,1.9c0,0.8-0.5,1.8-1.7,2.7L63,30.7V18.8z M63.6,25.7
		c-0.1,0.8-0.1,1.4-0.1,1.9c0,1,0,1.6,0.1,2c1-0.7,2.4-2.6,2.4-3.7c0-0.6-0.5-1.1-1.1-1.1C64.3,24.8,63.9,25.1,63.6,25.7z"/>
</g>
<g>
	<path d="M240.3,31.4v-4l-3,1.1V17.8h0.5v4l3-1.1v10.7H240.3z M237.8,26.7l2.5-0.9v-3.3l-2.5,0.9V26.7z"/>
</g>
<polygon fill-rule="evenodd" clip-rule="evenodd" points="203.6,20.9 248.9,15.9 248.9,13.4 203.6,18.4 "/>
<polygon fill-rule="evenodd" clip-rule="evenodd" points="203.6,17.2 248.9,12.2 248.9,9.7 203.6,14.7 "/>
<polygon fill-rule="evenodd" clip-rule="evenodd" points="197.1,46.9 242.4,42 242.4,39.5 197.1,44.4 "/>
<polygon fill-rule="evenodd" clip-rule="evenodd" points="197.1,50.6 242.4,45.7 242.4,43.2 197.1,48.2 "/>
<g>
	<path d="M270.5,31.4v-4l-3,1.1V17.8h0.5v4l3-1.1v10.7H270.5z M268,26.7l2.5-0.9v-3.3l-2.5,0.9V26.7z"/>
</g>
<rect x="263.9" y="4.8" fill-rule="evenodd" clip-rule="evenodd" width="45.4" height="2.5"/>
<rect x="263.9" y="1" fill-rule="evenodd" clip-rule="evenodd" width="45.4" height="2.5"/>
<polygon fill-rule="evenodd" clip-rule="evenodd" points="257.4,37 302.8,35.8 302.8,33.3 257.4,34.5 "/>
<polygon fill-rule="evenodd" clip-rule="evenodd" points="257.4,40.7 302.8,39.5 302.8,37 257.4,38.2 "/>
<polygon fill-rule="evenodd" clip-rule="evenodd" points="317.9,39.5 363.1,44.4 363.1,42 317.9,37 "/>
<polygon fill-rule="evenodd" clip-rule="evenodd" points="317.9,43.2 363.1,48.2 363.1,45.7 317.9,40.7 "/>
<polygon fill-rule="evenodd" clip-rule="evenodd" points="324.4,11 369.6,15.9 369.6,13.4 324.4,8.5 "/>
<polygon fill-rule="evenodd" clip-rule="evenodd" points="324.4,7.2 369.6,12.2 369.6,9.7 324.4,4.8 "/>
<rect x="8.5" y="76.4" width="544.4" height="0.5"/>
<rect x="8.5" y="71.5" width="544.4" height="0.5"/>
<rect x="8.5" y="66.5" width="544.4" height="0.5"/>
<rect x="8.5" y="61.6" width="544.4" height="0.5"/>
<rect x="8.5" y="56.6" width="544.4" height="0.5"/>
<g>
	<path d="M15.7,71c2.9-2.6,4.7-6.1,4.7-9.2c0-2.5-1.4-4.4-3.7-4.4c-1.6,0-3.4,1.3-3.4,2.7c0,0.2,0,0.3,0.1,0.3
		c-0.1,0,0.6-0.6,1.4-0.6c0.9,0,1.5,0.8,1.5,1.7c0,1.2-0.9,2.2-2.1,2.2c-1.2,0-2.1-1.3-2.1-2.8c0-2.3,2.3-4.1,4.8-4.1
		c4.7,0,5.9,3.2,5.9,5.8c0,1.6-0.4,2.9-2,5.3c-1.9,3.1-6.4,5.3-8.1,5.3c-0.4,0-0.6-0.2-0.6-0.5C13.8,72.3,14.9,71.7,15.7,71z
		 M25.7,58.3c0.6,0,1,0.4,1,1c0,0.6-0.4,1-1,1s-1-0.4-1-1C24.7,58.8,25.1,58.3,25.7,58.3z M25.7,63.3c0.6,0,1,0.4,1,1
		c0,0.6-0.4,1-1,1s-1-0.4-1-1C24.7,63.7,25.1,63.3,25.7,63.3z"/>
</g>
<g>
	<path d="M29.5,63.4h0.6L30,69.7c0.4-0.7,1-1,1.8-1c1.2,0,2.2,0.8,2.2,1.9c0,0.8-0.5,1.8-1.7,2.7l-2.8,2.1V63.4z M30.1,70.3
		C30,71.1,30,71.7,30,72.3c0,1,0,1.6,0.1,2c1-0.7,2.4-2.6,2.4-3.7c0-0.6-0.5-1.1-1.1-1.1C30.8,69.5,30.4,69.8,30.1,70.3z"/>
</g>
<g>
	<path d="M35.1,56h0.6l-0.1,6.2c0.4-0.7,1-1,1.8-1c1.2,0,2.2,0.8,2.2,1.9c0,0.8-0.5,1.8-1.7,2.7l-2.8,2.1V56z M35.7,62.9
		c-0.1,0.8-0.1,1.4-0.1,1.9c0,1,0,1.6,0.1,2c1-0.7,2.4-2.6,2.4-3.7c0-0.6-0.5-1.1-1.1-1.1C36.4,62,36,62.3,35.7,62.9z"/>
</g>
<g>
	<path d="M40.7,65.9h0.6l-0.1,6.2c0.4-0.7,1-1,1.8-1c1.2,0,2.2,0.8,2.2,1.9c0,0.8-0.5,1.8-1.7,2.7l-2.8,2.1V65.9z M41.3,72.8
		c-0.1,0.8-0.1,1.4-0.1,1.9c0,1,0,1.6,0.1,2c1-0.7,2.4-2.6,2.4-3.7c0-0.6-0.5-1.1-1.1-1.1C42,72,41.6,72.2,41.3,72.8z"/>
</g>
<g>
	<path d="M46.3,58.4h0.6l-0.1,6.2c0.4-0.7,1-1,1.8-1c1.2,0,2.2,0.8,2.2,1.9c0,0.8-0.5,1.8-1.7,2.7l-2.8,2.1V58.4z M46.9,65.4
		c-0.1,0.8-0.1,1.4-0.1,1.9c0,1,0,1.6,0.1,2c1-0.7,2.4-2.6,2.4-3.7c0-0.6-0.5-1.1-1.1-1.1C47.6,64.5,47.2,64.8,46.9,65.4z"/>
</g>
<g>
	<path d="M51.9,68.4h0.6l-0.1,6.2c0.4-0.7,1-1,1.8-1c1.2,0,2.2,0.8,2.2,1.9c0,0.8-0.5,1.8-1.7,2.7l-2.8,2.1V68.4z M52.4,75.3
		c-0.1,0.8-0.1,1.4-0.1,1.9c0,1,0,1.6,0.1,2c1-0.7,2.4-2.6,2.4-3.7c0-0.6-0.5-1.1-1.1-1.1C53.2,74.4,52.7,74.7,52.4,75.3z"/>
</g>
<g>
	<path d="M57.4,60.9h0.6l-0.1,6.2c0.4-0.7,1-1,1.8-1c1.2,0,2.2,0.8,2.2,1.9c0,0.8-0.5,1.8-1.7,2.7l-2.8,2.1V60.9z M58,67.8
		c-0.1,0.8-0.1,1.4-0.1,1.9c0,1,0,1.6,0.1,2c1-0.7,2.4-2.6,2.4-3.7c0-0.6-0.5-1.1-1.1-1.1C58.7,67,58.3,67.3,58,67.8z"/>
</g>
<g>
	<path d="M63,70.8h0.6l-0.1,6.2c0.4-0.7,1-1,1.8-1c1.2,0,2.2,0.8,2.2,1.9c0,0.8-0.5,1.8-1.7,2.7L63,82.8V70.8z M63.6,77.8
		c-0.1,0.8-0.1,1.4-0.1,1.9c0,1,0,1.6,0.1,2C64.6,81,66,79,66,78c0-0.6-0.5-1.1-1.1-1.1C64.3,76.9,63.9,77.2,63.6,77.8z"/>
</g>
<g>
	<path d="M134.6,66.1v-4l-3,1.1V52.5h0.5v4l3-1.1v10.7H134.6z M132,61.4l2.5-0.9v-3.3l-2.5,0.9V61.4z"/>
</g>
<polygon fill-rule="evenodd" clip-rule="evenodd" points="82.7,58.1 128,53.1 128,50.6 82.7,55.6 "/>
<polygon fill-rule="evenodd" clip-rule="evenodd" points="82.7,54.4 128,49.4 128,46.9 82.7,51.9 "/>
<polygon fill-rule="evenodd" clip-rule="evenodd" points="76.2,84.1 121.5,79.2 121.5,76.7 76.2,81.6 "/>
<polygon fill-rule="evenodd" clip-rule="evenodd" points="76.2,87.8 121.5,82.9 121.5,80.4 76.2,85.4 "/>
<g>
	<path d="M164.8,66.1v-4l-3,1.1V52.5h0.5v4l3-1.1v10.7H164.8z M162.3,61.4l2.5-0.9v-3.3l-2.5,0.9V61.4z"/>
</g>
<polygon fill-rule="evenodd" clip-rule="evenodd" points="136.7,77.9 181.9,73 181.9,70.5 136.7,75.4 "/>
<polygon fill-rule="evenodd" clip-rule="evenodd" points="136.7,81.6 181.9,76.7 181.9,74.2 136.7,79.2 "/>
<polygon fill-rule="evenodd" clip-rule="evenodd" points="143.2,49.4 188.4,44.4 188.4,42 143.2,46.9 "/>
<polygon fill-rule="evenodd" clip-rule="evenodd" points="143.2,45.7 188.4,40.7 188.4,38.2 143.2,43.2 "/>
<polygon fill-rule="evenodd" clip-rule="evenodd" points="384.8,42 430.1,46.9 430.1,44.4 384.8,39.5 "/>
<polygon fill-rule="evenodd" clip-rule="evenodd" points="384.8,38.2 430.1,43.2 430.1,40.7 384.8,35.8 "/>
<polygon fill-rule="evenodd" clip-rule="evenodd" points="378.3,68 423.6,73 423.6,70.5 378.3,65.5 "/>
<polygon fill-rule="evenodd" clip-rule="evenodd" points="378.3,71.7 423.6,76.7 423.6,74.2 378.3,69.2 "/>
<polygon fill-rule="evenodd" clip-rule="evenodd" points="445.3,51.9 490.6,56.8 490.6,54.4 445.3,49.4 "/>
<polygon fill-rule="evenodd" clip-rule="evenodd" points="445.3,48.2 490.6,53.1 490.6,50.6 445.3,45.7 "/>
<polygon fill-rule="evenodd" clip-rule="evenodd" points="438.8,77.9 484,82.9 484,80.4 438.8,75.4 "/>
<polygon fill-rule="evenodd" clip-rule="evenodd" points="438.8,81.6 484,86.6 484,84.1 438.8,79.2 "/>
<rect x="203.4" y="14.8" width="0.5" height="16.4"/>
<g>
	<path d="M197,32.9c0-1.8,2.5-3.5,4.5-3.5c1.3,0,2.3,0.7,2.3,1.7c0,1.7-2.5,3.5-4.6,3.5C197.9,34.6,197,34,197,32.9z"/>
</g>
<rect x="218.4" y="13.3" width="0.5" height="15.5"/>
<g>
	<path d="M212,30.4c0-1.8,2.5-3.5,4.5-3.5c1.3,0,2.3,0.7,2.3,1.7c0,1.7-2.5,3.5-4.6,3.5C213,32.1,212,31.5,212,30.4z"/>
</g>
<rect x="233.5" y="11.6" width="0.5" height="14.7"/>
<g>
	<path d="M227,27.9c0-1.8,2.5-3.5,4.5-3.5c1.3,0,2.3,0.7,2.3,1.7c0,1.7-2.5,3.5-4.6,3.5C228,29.7,227,29,227,27.9z"/>
</g>
<rect x="248.7" y="9.9" width="0.5" height="14"/>
<g>
	<path d="M242.2,25.5c0-1.8,2.5-3.5,4.5-3.5c1.3,0,2.3,0.7,2.3,1.7c0,1.7-2.5,3.5-4.6,3.5C243.2,27.2,242.2,26.5,242.2,25.5z"/>
</g>
<rect x="195.1" y="34.1" width="10.5" height="0.8"/>
<rect x="196.9" y="37.8" width="0.5" height="12.7"/>
<g>
	<path d="M197,37.9c0-1.8,2.5-3.5,4.5-3.5c1.3,0,2.3,0.7,2.3,1.7c0,1.7-2.5,3.5-4.6,3.5C197.9,39.6,197,38.9,197,37.9z"/>
</g>
<rect x="210.1" y="34.1" width="10.5" height="0.8"/>
<rect x="211.9" y="35.3" width="0.5" height="13.6"/>
<g>
	<path d="M212,35.4c0-1.8,2.5-3.5,4.5-3.5c1.3,0,2.3,0.7,2.3,1.7c0,1.7-2.5,3.5-4.6,3.5C213,37.1,212,36.5,212,35.4z"/>
</g>
<rect x="227" y="32.8" width="0.5" height="14.4"/>
<g>
	<path d="M227,32.9c0-1.8,2.5-3.5,4.5-3.5c1.3,0,2.3,0.7,2.3,1.7c0,1.7-2.5,3.5-4.6,3.5C228,34.6,227,34,227,32.9z"/>
</g>
<rect x="242.1" y="30.3" width="0.5" height="15.2"/>
<g>
	<path d="M242.2,30.4c0-1.8,2.5-3.5,4.5-3.5c1.3,0,2.3,0.7,2.3,1.7c0,1.7-2.5,3.5-4.6,3.5C243.2,32.1,242.2,31.5,242.2,30.4z"/>
</g>
<rect x="263.7" y="1.2" width="0.5" height="20.2"/>
<g>
	<path d="M257.3,23c0-1.8,2.5-3.5,4.5-3.5c1.3,0,2.3,0.7,2.3,1.7c0,1.7-2.5,3.5-4.6,3.5C258.2,24.7,257.3,24.1,257.3,23z"/>
</g>
<rect x="278.9" y="1.2" width="0.5" height="17.7"/>
<g>
	<path d="M272.5,20.5c0-1.8,2.5-3.5,4.5-3.5c1.3,0,2.3,0.7,2.3,1.7c0,1.7-2.5,3.5-4.6,3.5C273.4,22.2,272.5,21.6,272.5,20.5z"/>
</g>
<rect x="293.9" y="1.2" width="0.5" height="15.2"/>
<g>
	<path d="M287.5,18c0-1.8,2.5-3.5,4.5-3.5c1.3,0,2.3,0.7,2.3,1.7c0,1.7-2.5,3.5-4.6,3.5C288.5,19.7,287.5,19.1,287.5,18z"/>
</g>
<rect x="309.1" y="1.2" width="0.5" height="17.7"/>
<g>
	<path d="M302.7,20.5c0-1.8,2.5-3.5,4.5-3.5c1.3,0,2.3,0.7,2.3,1.7c0,1.7-2.5,3.5-4.6,3.5C303.6,22.2,302.7,21.6,302.7,20.5z"/>
</g>
<rect x="257.2" y="27.9" width="0.5" height="12.7"/>
<g>
	<path d="M257.3,27.9c0-1.8,2.5-3.5,4.5-3.5c1.3,0,2.3,0.7,2.3,1.7c0,1.7-2.5,3.5-4.6,3.5C258.2,29.7,257.3,29,257.3,27.9z"/>
</g>
<rect x="272.4" y="25.4" width="0.5" height="14.9"/>
<g>
	<path d="M272.5,25.5c0-1.8,2.5-3.5,4.5-3.5c1.3,0,2.3,0.7,2.3,1.7c0,1.7-2.5,3.5-4.6,3.5C273.4,27.2,272.5,26.5,272.5,25.5z"/>
</g>
<rect x="287.4" y="22.9" width="0.5" height="16.9"/>
<g>
	<path d="M287.5,23c0-1.8,2.5-3.5,4.5-3.5c1.3,0,2.3,0.7,2.3,1.7c0,1.7-2.5,3.5-4.6,3.5C288.5,24.7,287.5,24.1,287.5,23z"/>
</g>
<rect x="302.6" y="25.4" width="0.5" height="14"/>
<g>
	<path d="M302.7,25.5c0-1.8,2.5-3.5,4.5-3.5c1.3,0,2.3,0.7,2.3,1.7c0,1.7-2.5,3.5-4.6,3.5C303.6,27.2,302.7,26.5,302.7,25.5z"/>
</g>
<rect x="317.6" y="27.9" width="0.5" height="15.2"/>
<g>
	<path d="M317.7,27.9c0-1.8,2.5-3.5,4.5-3.5c1.3,0,2.3,0.7,2.3,1.7c0,1.7-2.5,3.5-4.6,3.5C318.7,29.7,317.7,29,317.7,27.9z"/>
</g>
<rect x="332.8" y="30.3" width="0.5" height="14.3"/>
<g>
	<path d="M332.9,30.4c0-1.8,2.5-3.5,4.5-3.5c1.3,0,2.3,0.7,2.3,1.7c0,1.7-2.5,3.5-4.6,3.5C333.9,32.1,332.9,31.5,332.9,30.4z"/>
</g>
<rect x="347.9" y="32.8" width="0.5" height="13.5"/>
<g>
	<path d="M347.9,32.9c0-1.8,2.5-3.5,4.5-3.5c1.3,0,2.3,0.7,2.3,1.7c0,1.7-2.5,3.5-4.6,3.5C348.9,34.6,347.9,34,347.9,32.9z"/>
</g>
<rect x="361.1" y="34.1" width="10.5" height="0.8"/>
<rect x="362.9" y="35.3" width="0.5" height="12.7"/>
<g>
	<path d="M363,35.4c0-1.8,2.5-3.5,4.5-3.5c1.3,0,2.3,0.7,2.3,1.7c0,1.7-2.5,3.5-4.6,3.5C364,37.1,363,36.5,363,35.4z"/>
</g>
<rect x="324.1" y="4.9" width="0.5" height="16.4"/>
<g>
	<path d="M317.7,23c0-1.8,2.5-3.5,4.5-3.5c1.3,0,2.3,0.7,2.3,1.7c0,1.7-2.5,3.5-4.6,3.5C318.7,24.7,317.7,24.1,317.7,23z"/>
</g>
<rect x="339.3" y="6.5" width="0.5" height="17.4"/>
<g>
	<path d="M332.9,25.5c0-1.8,2.5-3.5,4.5-3.5c1.3,0,2.3,0.7,2.3,1.7c0,1.7-2.5,3.5-4.6,3.5C333.9,27.2,332.9,26.5,332.9,25.5z"/>
</g>
<rect x="354.4" y="8.2" width="0.5" height="18.1"/>
<g>
	<path d="M347.9,27.9c0-1.8,2.5-3.5,4.5-3.5c1.3,0,2.3,0.7,2.3,1.7c0,1.7-2.5,3.5-4.6,3.5C348.9,29.7,347.9,29,347.9,27.9z"/>
</g>
<rect x="369.4" y="9.9" width="0.5" height="18.9"/>
<g>
	<path d="M363,30.4c0-1.8,2.5-3.5,4.5-3.5c1.3,0,2.3,0.7,2.3,1.7c0,1.7-2.5,3.5-4.6,3.5C364,32.1,363,31.5,363,30.4z"/>
</g>
<rect x="82.5" y="52" width="0.5" height="16.4"/>
<g>
	<path d="M76,70.1c0-1.8,2.5-3.5,4.5-3.5c1.3,0,2.3,0.7,2.3,1.7c0,1.7-2.5,3.5-4.6,3.5C77,71.8,76,71.2,76,70.1z"/>
</g>
<rect x="97.5" y="50.5" width="0.5" height="15.5"/>
<g>
	<path d="M91.1,67.6c0-1.8,2.5-3.5,4.5-3.5c1.3,0,2.3,0.7,2.3,1.7c0,1.7-2.5,3.5-4.6,3.5C92.1,69.3,91.1,68.7,91.1,67.6z"/>
</g>
<rect x="112.7" y="48.8" width="0.5" height="14.7"/>
<g>
	<path d="M106.3,65.1c0-1.8,2.5-3.5,4.5-3.5c1.3,0,2.3,0.7,2.3,1.7c0,1.7-2.5,3.5-4.6,3.5C107.2,66.9,106.3,66.2,106.3,65.1z"/>
</g>
<rect x="127.7" y="47.1" width="0.5" height="14"/>
<g>
	<path d="M121.3,62.7c0-1.8,2.5-3.5,4.5-3.5c1.3,0,2.3,0.7,2.3,1.7c0,1.7-2.5,3.5-4.6,3.5C122.3,64.4,121.3,63.7,121.3,62.7z"/>
</g>
<rect x="76" y="75" width="0.5" height="12.7"/>
<g>
	<path d="M76,75.1c0-1.8,2.5-3.5,4.5-3.5c1.3,0,2.3,0.7,2.3,1.7c0,1.7-2.5,3.5-4.6,3.5C77,76.8,76,76.1,76,75.1z"/>
</g>
<rect x="91" y="72.5" width="0.5" height="13.6"/>
<g>
	<path d="M91.1,72.6c0-1.8,2.5-3.5,4.5-3.5c1.3,0,2.3,0.7,2.3,1.7c0,1.7-2.5,3.5-4.6,3.5C92.1,74.3,91.1,73.7,91.1,72.6z"/>
</g>
<rect x="106.2" y="70" width="0.5" height="14.4"/>
<g>
	<path d="M106.3,70.1c0-1.8,2.5-3.5,4.5-3.5c1.3,0,2.3,0.7,2.3,1.7c0,1.7-2.5,3.5-4.6,3.5C107.2,71.8,106.3,71.2,106.3,70.1z"/>
</g>
<rect x="121.2" y="67.5" width="0.5" height="15.2"/>
<g>
	<path d="M121.3,67.6c0-1.8,2.5-3.5,4.5-3.5c1.3,0,2.3,0.7,2.3,1.7c0,1.7-2.5,3.5-4.6,3.5C122.3,69.3,121.3,68.7,121.3,67.6z"/>
</g>
<rect x="136.4" y="65.1" width="0.5" height="16.4"/>
<g>
	<path d="M136.5,65.1c0-1.8,2.5-3.5,4.5-3.5c1.3,0,2.3,0.7,2.3,1.7c0,1.7-2.5,3.5-4.6,3.5C137.5,66.9,136.5,66.2,136.5,65.1z"/>
</g>
<rect x="151.5" y="62.6" width="0.5" height="17.4"/>
<g>
	<path d="M151.5,62.7c0-1.8,2.5-3.5,4.5-3.5c1.3,0,2.3,0.7,2.3,1.7c0,1.7-2.5,3.5-4.6,3.5C152.5,64.4,151.5,63.7,151.5,62.7z"/>
</g>
<rect x="166.7" y="60.1" width="0.5" height="18.1"/>
<g>
	<path d="M166.7,60.2c0-1.8,2.5-3.5,4.5-3.5c1.3,0,2.3,0.7,2.3,1.7c0,1.7-2.5,3.5-4.6,3.5C167.7,61.9,166.7,61.3,166.7,60.2z"/>
</g>
<rect x="181.7" y="57.6" width="0.5" height="18.9"/>
<g>
	<path d="M181.8,57.7c0-1.8,2.5-3.5,4.5-3.5c1.3,0,2.3,0.7,2.3,1.7c0,1.7-2.5,3.5-4.6,3.5C182.7,59.4,181.8,58.8,181.8,57.7z"/>
</g>
<rect x="142.9" y="43.4" width="0.5" height="15.2"/>
<g>
	<path d="M136.5,60.2c0-1.8,2.5-3.5,4.5-3.5c1.3,0,2.3,0.7,2.3,1.7c0,1.7-2.5,3.5-4.6,3.5C137.5,61.9,136.5,61.3,136.5,60.2z"/>
</g>
<rect x="158" y="41.8" width="0.5" height="14.3"/>
<g>
	<path d="M151.5,57.7c0-1.8,2.5-3.5,4.5-3.5c1.3,0,2.3,0.7,2.3,1.7c0,1.7-2.5,3.5-4.6,3.5C152.5,59.4,151.5,58.8,151.5,57.7z"/>
</g>
<rect x="173.2" y="40.1" width="0.5" height="13.5"/>
<g>
	<path d="M166.7,55.2c0-1.8,2.5-3.5,4.5-3.5c1.3,0,2.3,0.7,2.3,1.7c0,1.7-2.5,3.5-4.6,3.5C167.7,56.9,166.7,56.3,166.7,55.2z"/>
</g>
<rect x="179.9" y="51.5" width="10.5" height="0.8"/>
<rect x="188.2" y="38.4" width="0.5" height="12.7"/>
<g>
	<path d="M181.8,52.7c0-1.8,2.5-3.5,4.5-3.5c1.3,0,2.3,0.7,2.3,1.7c0,1.7-2.5,3.5-4.6,3.5C182.7,54.5,181.8,53.8,181.8,52.7z"/>
</g>
<rect x="376.3" y="51.5" width="10.5" height="0.8"/>
<rect x="384.6" y="35.9" width="0.5" height="12.7"/>
<g>
	<path d="M378.2,50.3c0-1.8,2.5-3.5,4.5-3.5c1.3,0,2.3,0.7,2.3,1.7c0,1.7-2.5,3.5-4.6,3.5C379.1,52,378.2,51.3,378.2,50.3z"/>
</g>
<rect x="391.3" y="51.5" width="10.5" height="0.8"/>
<rect x="399.6" y="37.5" width="0.5" height="13.6"/>
<g>
	<path d="M393.2,52.7c0-1.8,2.5-3.5,4.5-3.5c1.3,0,2.3,0.7,2.3,1.7c0,1.7-2.5,3.5-4.6,3.5C394.2,54.5,393.2,53.8,393.2,52.7z"/>
</g>
<rect x="414.8" y="39.2" width="0.5" height="14.4"/>
<g>
	<path d="M408.4,55.2c0-1.8,2.5-3.5,4.5-3.5c1.3,0,2.3,0.7,2.3,1.7c0,1.7-2.5,3.5-4.6,3.5C409.4,56.9,408.4,56.3,408.4,55.2z"/>
</g>
<rect x="429.9" y="40.9" width="0.5" height="15.2"/>
<g>
	<path d="M423.4,57.7c0-1.8,2.5-3.5,4.5-3.5c1.3,0,2.3,0.7,2.3,1.7c0,1.7-2.5,3.5-4.6,3.5C424.4,59.4,423.4,58.8,423.4,57.7z"/>
</g>
<rect x="378.1" y="55.1" width="0.5" height="16.4"/>
<g>
	<path d="M378.2,55.2c0-1.8,2.5-3.5,4.5-3.5c1.3,0,2.3,0.7,2.3,1.7c0,1.7-2.5,3.5-4.6,3.5C379.1,56.9,378.2,56.3,378.2,55.2z"/>
</g>
<rect x="393.1" y="57.6" width="0.5" height="15.5"/>
<g>
	<path d="M393.2,57.7c0-1.8,2.5-3.5,4.5-3.5c1.3,0,2.3,0.7,2.3,1.7c0,1.7-2.5,3.5-4.6,3.5C394.2,59.4,393.2,58.8,393.2,57.7z"/>
</g>
<rect x="408.3" y="60.1" width="0.5" height="14.7"/>
<g>
	<path d="M408.4,60.2c0-1.8,2.5-3.5,4.5-3.5c1.3,0,2.3,0.7,2.3,1.7c0,1.7-2.5,3.5-4.6,3.5C409.4,61.9,408.4,61.3,408.4,60.2z"/>
</g>
<rect x="423.4" y="62.6" width="0.5" height="14"/>
<g>
	<path d="M423.4,62.7c0-1.8,2.5-3.5,4.5-3.5c1.3,0,2.3,0.7,2.3,1.7c0,1.7-2.5,3.5-4.6,3.5C424.4,64.4,423.4,63.7,423.4,62.7z"/>
</g>
<rect x="445.1" y="45.8" width="0.5" height="12.7"/>
<g>
	<path d="M438.6,60.2c0-1.8,2.5-3.5,4.5-3.5c1.3,0,2.3,0.7,2.3,1.7c0,1.7-2.5,3.5-4.6,3.5C439.6,61.9,438.6,61.3,438.6,60.2z"/>
</g>
<rect x="460.1" y="47.4" width="0.5" height="13.6"/>
<g>
	<path d="M453.7,62.7c0-1.8,2.5-3.5,4.5-3.5c1.3,0,2.3,0.7,2.3,1.7c0,1.7-2.5,3.5-4.6,3.5C454.6,64.4,453.7,63.7,453.7,62.7z"/>
</g>
<rect x="475.3" y="49.1" width="0.5" height="14.4"/>
<g>
	<path d="M468.9,65.1c0-1.8,2.5-3.5,4.5-3.5c1.3,0,2.3,0.7,2.3,1.7c0,1.7-2.5,3.5-4.6,3.5C469.8,66.9,468.9,66.2,468.9,65.1z"/>
</g>
<rect x="490.3" y="50.8" width="0.5" height="15.2"/>
<g>
	<path d="M483.9,67.6c0-1.8,2.5-3.5,4.5-3.5c1.3,0,2.3,0.7,2.3,1.7c0,1.7-2.5,3.5-4.6,3.5C484.9,69.3,483.9,68.7,483.9,67.6z"/>
</g>
<rect x="505.5" y="51.9" width="0.5" height="16.6"/>
<g>
	<path d="M503.2,66.5c1.6,0,2.7,0.7,2.7,2c0,1.9-2.3,3.4-4.5,3.4c-1.3,0-2.4-0.7-2.4-1.8C498.9,68.3,501.2,66.5,503.2,66.5z
		 M499.4,70.4c0,0.6,0.4,0.9,1.1,0.9c1.4,0,4.9-2.1,4.9-3.3c0-0.6-0.4-0.9-1.1-0.9C503.1,67.1,499.4,69.2,499.4,70.4z"/>
</g>
<rect x="438.5" y="65.1" width="0.5" height="16.4"/>
<g>
	<path d="M438.6,65.1c0-1.8,2.5-3.5,4.5-3.5c1.3,0,2.3,0.7,2.3,1.7c0,1.7-2.5,3.5-4.6,3.5C439.6,66.9,438.6,66.2,438.6,65.1z"/>
</g>
<rect x="453.6" y="67.5" width="0.5" height="15.5"/>
<g>
	<path d="M453.7,67.6c0-1.8,2.5-3.5,4.5-3.5c1.3,0,2.3,0.7,2.3,1.7c0,1.7-2.5,3.5-4.6,3.5C454.6,69.3,453.7,68.7,453.7,67.6z"/>
</g>
<rect x="468.8" y="70" width="0.5" height="14.7"/>
<g>
	<path d="M468.9,70.1c0-1.8,2.5-3.5,4.5-3.5c1.3,0,2.3,0.7,2.3,1.7c0,1.7-2.5,3.5-4.6,3.5C469.8,71.8,468.9,71.2,468.9,70.1z"/>
</g>
<rect x="483.8" y="72.5" width="0.5" height="14"/>
<g>
	<path d="M483.9,72.6c0-1.8,2.5-3.5,4.5-3.5c1.3,0,2.3,0.7,2.3,1.7c0,1.7-2.5,3.5-4.6,3.5C484.9,74.3,483.9,73.7,483.9,72.6z"/>
</g>
<rect x="498.9" y="75" width="0.5" height="12.9"/>
<g>
	<path d="M503.2,71.5c1.6,0,2.7,0.7,2.7,2c0,1.9-2.3,3.4-4.5,3.4c-1.3,0-2.4-0.7-2.4-1.8C498.9,73.3,501.2,71.5,503.2,71.5z
		 M499.4,75.4c0,0.6,0.4,0.9,1.1,0.9c1.4,0,4.9-2.1,4.9-3.3c0-0.6-0.4-0.9-1.1-0.9C503.1,72.1,499.4,74.1,499.4,75.4z"/>
</g>
</svg>
