<?xml version="1.0" encoding="utf-8"?>

<!--
	ScaleBook
	Copyright (c) Leland Jansen 2015. All rights reserved.
-->

<!DOCTYPE svg PUBLIC "-//W3C//DTD SVG 1.1//EN" "http://www.w3.org/Graphics/SVG/1.1/DTD/svg11.dtd">
<svg version="1.1" id="Layer_1" xmlns="http://www.w3.org/2000/svg" xmlns:xlink="http://www.w3.org/1999/xlink" x="0px" y="0px"
	 viewBox="0 0 552.9 87.8" enable-background="new 0 0 552.9 87.8" xml:space="preserve">
<rect x="8.4" y="9.7" width="0.8" height="67"/>
<g>
	<path d="M7.4,10.4c-1.9,1.1-3.6,5.8-3.6,9.4c0,2.3,1.4,9.9,1.4,12.3c0,5-1.5,8.6-4.6,11.1c3,2.4,4.6,6.1,4.6,11.1
		c0,2.3-1.4,9.9-1.4,12.3c0,3.8,1.7,8.4,3.6,9.5v0.7c-3.5-2.3-5.8-8.2-5.8-13.1c0-2.1,1.7-9.4,1.7-11.5c0-3.8-1-6.6-2.9-8.2
		C0.1,43.6,0,43.4,0,43.2c0-0.2,0.1-0.4,0.5-0.7c1.9-1.7,2.9-4.2,2.9-7.6c0-2.1-1.7-10-1.7-12.2c0-5.2,2.1-10.4,5.8-13.1V10.4z"/>
</g>
<rect x="547.8" y="9.7" width="0.8" height="67"/>
<rect x="550.4" y="9.7" width="2.5" height="67"/>
<rect x="8.5" y="29.3" width="544.4" height="0.5"/>
<rect x="8.5" y="24.4" width="544.4" height="0.5"/>
<rect x="8.5" y="19.4" width="544.4" height="0.5"/>
<rect x="8.5" y="14.4" width="544.4" height="0.5"/>
<rect x="8.5" y="9.5" width="544.4" height="0.5"/>
<g>
	<path d="M20.3,29.4c-4.2,0-8.1-3.1-8.1-6.9c0-3.2,2.3-6.7,6.8-10.5c-0.3-1.2-0.4-2.4-0.4-3.6c0-3.5,1.2-6.8,3.2-8.5
		c1.8,2.5,2.7,4.9,2.7,7.1c0,2.9-1.3,5.6-4.3,8.1l0.9,4.2c0.5,0,0.8-0.1,0.8-0.1c2.6,0,4.8,2,4.8,4.7c0,1.9-1.4,3.7-3.6,4.8
		c0-0.1,0.9,3.8,0.9,4.3c0,2.5-2.3,4.2-4.9,4.2c-2,0-3.6-1.3-3.6-3.4c0-1.4,1-2.6,2.4-2.6c1.3,0,2.3,1.3,2.3,2.5
		c0,1.4-1.2,2.3-2.7,2.5c0.6,0.3,1.2,0.5,1.9,0.5c2.1,0,4.1-1.6,4.1-3.6c0-0.2,0-0.4-0.1-0.6l-0.8-3.7
		C21.9,29.3,21.2,29.4,20.3,29.4z M18.1,24.2c0,1,0.5,1.9,1.6,2.5c-1.8-0.3-3-1.4-3-3.1c0-2,1.7-3.7,3.8-4.1l-0.8-4
		C16,18.3,14,21,14,23.6c0,2.9,2.8,5.3,6,5.3c0.9,0,1.7-0.2,2.4-0.5L21,21.6C19.4,21.8,18.1,22.8,18.1,24.2z M22.1,2.8
		c-1.6,0-2.9,3.7-2.9,7c0,0.7,0,1.3,0.2,1.9c2.7-2.4,4-4.5,4-6.5c0-0.9-0.3-1.7-1-2.4C22.4,2.9,22.3,2.8,22.1,2.8z M24.9,24.7
		c0-1.6-1.2-3.3-2.9-3.3c-0.1,0-0.2,0-0.5,0l1.4,6.6C24.2,27.2,24.9,26,24.9,24.7z"/>
</g>
<g>
	<path d="M33.5,2.9v2.8l1-0.3v1.8l-1,0.3V11l1-0.3v1.8l-1,0.3v3.1H33v-3l-1.9,0.6v3h-0.5v-2.8l-1,0.3v-1.8l1-0.3V8.4l-1,0.3V7l1-0.3
		V3.5h0.5v3L33,5.9v-3H33.5z M33,7.7l-1.9,0.6v3.4l1.9-0.6V7.7z"/>
</g>
<g>
	<path d="M39.7,10.3v2.8l1-0.3v1.8l-1,0.3v3.4l1-0.3v1.8l-1,0.3v3.1h-0.5v-3L37.3,21v3h-0.5v-2.8l-1,0.3v-1.8l1-0.3v-3.4l-1,0.3
		v-1.8l1-0.3V11h0.5v3l1.9-0.6v-3H39.7z M39.2,15.1l-1.9,0.6v3.4l1.9-0.6V15.1z"/>
</g>
<g>
	<path d="M45.9,0.4v2.8l1-0.3v1.8l-1,0.3v3.4l1-0.3V10l-1,0.3v3.1h-0.5v-3l-1.9,0.6v3H43v-2.8l-1,0.3V9.7l1-0.3V6l-1,0.3V4.5l1-0.3
		V1h0.5v3l1.9-0.6v-3H45.9z M45.4,5.2l-1.9,0.6v3.4l1.9-0.6V5.2z"/>
</g>
<g>
	<path d="M52.1,7.9v2.8l1-0.3v1.8l-1,0.3v3.4l1-0.3v1.8l-1,0.3v3.1h-0.5v-3l-1.9,0.6v3h-0.5v-2.8l-1,0.3v-1.8l1-0.3v-3.4l-1,0.3
		v-1.8l1-0.3V8.5h0.5v3l1.9-0.6v-3H52.1z M51.6,12.6l-1.9,0.6v3.4l1.9-0.6V12.6z"/>
</g>
<g>
	<path d="M58.3,15.3v2.8l1-0.3v1.8l-1,0.3v3.4l1-0.3v1.8l-1,0.3v3.1h-0.5v-3l-1.9,0.6v3h-0.5v-2.8l-1,0.3v-1.8l1-0.3v-3.4l-1,0.3
		v-1.8l1-0.3v-3.1h0.5v3l1.9-0.6v-3H58.3z M57.8,20.1l-1.9,0.6v3.4l1.9-0.6V20.1z"/>
</g>
<g>
	<path d="M64.5,5.4v2.8l1-0.3v1.8l-1,0.3v3.4l1-0.3v1.8l-1,0.3v3.1H64v-3L62.1,16v3h-0.5v-2.8l-1,0.3v-1.8l1-0.3v-3.4l-1,0.3V9.5
		l1-0.3V6h0.5v3L64,8.3v-3H64.5z M64,10.2l-1.9,0.6v3.4l1.9-0.6V10.2z"/>
</g>
<g>
	<path d="M70.7,12.8v2.8l1-0.3v1.8l-1,0.3v3.4l1-0.3v1.8l-1,0.3v3.1h-0.5v-3l-1.9,0.6v3h-0.5v-2.8l-1,0.3v-1.8l1-0.3v-3.4l-1,0.3
		v-1.8l1-0.3v-3.1h0.5v3l1.9-0.6v-3H70.7z M70.2,17.6l-1.9,0.6v3.4l1.9-0.6V17.6z"/>
</g>
<g>
	<path d="M242.1,27.1c0-0.8-0.4-1.5-1.1-2.2c-0.7,0.7-1.1,1.4-1.1,2.2h-1.4v-1.4c0.8,0,1.5-0.3,2.2-1c-0.7-0.7-1.4-1.1-2.2-1.1v-1.4
		h1.4c0,0.8,0.4,1.5,1.1,2.2c0.7-0.7,1.1-1.4,1.1-2.2h1.4v1.4c-0.8,0-1.5,0.4-2.2,1.1c0.7,0.7,1.4,1,2,1h0.2v1.4H242.1z"/>
</g>
<polygon fill-rule="evenodd" clip-rule="evenodd" points="206.7,20.9 251.7,15.9 251.7,13.4 206.7,18.4 "/>
<polygon fill-rule="evenodd" clip-rule="evenodd" points="206.7,17.2 251.7,12.2 251.7,9.7 206.7,14.7 "/>
<polygon fill-rule="evenodd" clip-rule="evenodd" points="200.2,46.9 245.2,42 245.2,39.5 200.2,44.4 "/>
<polygon fill-rule="evenodd" clip-rule="evenodd" points="200.2,50.6 245.2,45.7 245.2,43.2 200.2,48.2 "/>
<g>
	<path d="M272,27.1c0-0.8-0.4-1.5-1.1-2.2c-0.7,0.7-1.1,1.4-1.1,2.2h-1.4v-1.4c0.8,0,1.5-0.3,2.2-1c-0.7-0.7-1.4-1.1-2.2-1.1v-1.4
		h1.4c0,0.8,0.4,1.5,1.1,2.2c0.7-0.7,1.1-1.4,1.1-2.2h1.4v1.4c-0.8,0-1.5,0.4-2.2,1.1c0.7,0.7,1.4,1,2,1h0.2v1.4H272z"/>
</g>
<rect x="266.6" y="4.8" fill-rule="evenodd" clip-rule="evenodd" width="45" height="2.5"/>
<rect x="266.6" y="1" fill-rule="evenodd" clip-rule="evenodd" width="45" height="2.5"/>
<polygon fill-rule="evenodd" clip-rule="evenodd" points="260,37 305,35.8 305,33.3 260,34.5 "/>
<polygon fill-rule="evenodd" clip-rule="evenodd" points="260,40.7 305,39.5 305,37 260,38.2 "/>
<polygon fill-rule="evenodd" clip-rule="evenodd" points="320,39.5 364.8,44.4 364.8,42 320,37 "/>
<polygon fill-rule="evenodd" clip-rule="evenodd" points="320,43.2 364.8,48.2 364.8,45.7 320,40.7 "/>
<polygon fill-rule="evenodd" clip-rule="evenodd" points="326.6,11 371.4,15.9 371.4,13.4 326.6,8.5 "/>
<polygon fill-rule="evenodd" clip-rule="evenodd" points="326.6,7.2 371.4,12.2 371.4,9.7 326.6,4.8 "/>
<rect x="8.5" y="76.4" width="544.4" height="0.5"/>
<rect x="8.5" y="71.5" width="544.4" height="0.5"/>
<rect x="8.5" y="66.5" width="544.4" height="0.5"/>
<rect x="8.5" y="61.6" width="544.4" height="0.5"/>
<rect x="8.5" y="56.6" width="544.4" height="0.5"/>
<g>
	<path d="M15.7,71c2.9-2.6,4.7-6.1,4.7-9.2c0-2.5-1.4-4.4-3.7-4.4c-1.6,0-3.4,1.3-3.4,2.7c0,0.2,0,0.3,0.1,0.3
		c-0.1,0,0.6-0.6,1.4-0.6c0.9,0,1.5,0.8,1.5,1.7c0,1.2-0.9,2.2-2.1,2.2c-1.2,0-2.1-1.3-2.1-2.8c0-2.3,2.3-4.1,4.8-4.1
		c4.7,0,5.9,3.2,5.9,5.8c0,1.6-0.4,2.9-2,5.3c-1.9,3.1-6.4,5.3-8.1,5.3c-0.4,0-0.6-0.2-0.6-0.5C13.8,72.3,14.9,71.7,15.7,71z
		 M25.7,58.3c0.6,0,1,0.4,1,1c0,0.6-0.4,1-1,1s-1-0.4-1-1C24.7,58.8,25.1,58.3,25.7,58.3z M25.7,63.3c0.6,0,1,0.4,1,1
		c0,0.6-0.4,1-1,1s-1-0.4-1-1C24.7,63.7,25.1,63.3,25.7,63.3z"/>
</g>
<g>
	<path d="M33.5,55v2.8l1-0.3v1.8l-1,0.3V63l1-0.3v1.8l-1,0.3V68H33v-3l-1.9,0.6v3h-0.5v-2.8l-1,0.3v-1.8l1-0.3v-3.4l-1,0.3v-1.8
		l1-0.3v-3.1h0.5v3L33,58v-3H33.5z M33,59.8l-1.9,0.6v3.4l1.9-0.6V59.8z"/>
</g>
<g>
	<path d="M39.7,62.4v2.8l1-0.3v1.8l-1,0.3v3.4l1-0.3V72l-1,0.3v3.1h-0.5v-3l-1.9,0.6v3h-0.5v-2.8l-1,0.3v-1.8l1-0.3V68l-1,0.3v-1.8
		l1-0.3v-3.1h0.5v3l1.9-0.6v-3H39.7z M39.2,67.2l-1.9,0.6v3.4l1.9-0.6V67.2z"/>
</g>
<g>
	<path d="M45.9,52.5v2.8l1-0.3v1.8l-1,0.3v3.4l1-0.3V62l-1,0.3v3.1h-0.5v-3l-1.9,0.6v3H43v-2.8l-1,0.3v-1.8l1-0.3V58l-1,0.3v-1.8
		l1-0.3v-3.1h0.5v3l1.9-0.6v-3H45.9z M45.4,57.3l-1.9,0.6v3.4l1.9-0.6V57.3z"/>
</g>
<g>
	<path d="M52.1,59.9v2.8l1-0.3v1.8l-1,0.3V68l1-0.3v1.8l-1,0.3v3.1h-0.5v-3l-1.9,0.6v3h-0.5v-2.8l-1,0.3v-1.8l1-0.3v-3.4l-1,0.3V64
		l1-0.3v-3.1h0.5v3l1.9-0.6v-3H52.1z M51.6,64.7l-1.9,0.6v3.4l1.9-0.6V64.7z"/>
</g>
<g>
	<path d="M58.3,67.4v2.8l1-0.3v1.8l-1,0.3v3.4l1-0.3v1.8l-1,0.3v3.1h-0.5v-3L55.9,78v3h-0.5v-2.8l-1,0.3v-1.8l1-0.3v-3.4l-1,0.3
		v-1.8l1-0.3V68h0.5v3l1.9-0.6v-3H58.3z M57.8,72.2l-1.9,0.6v3.4l1.9-0.6V72.2z"/>
</g>
<g>
	<path d="M64.5,57.5v2.8l1-0.3v1.8l-1,0.3v3.4l1-0.3V67l-1,0.3v3.1H64v-3l-1.9,0.6v3h-0.5v-2.8l-1,0.3v-1.8l1-0.3V63l-1,0.3v-1.8
		l1-0.3v-3.1h0.5v3l1.9-0.6v-3H64.5z M64,62.2l-1.9,0.6v3.4l1.9-0.6V62.2z"/>
</g>
<g>
	<path d="M70.7,64.9v2.8l1-0.3v1.8l-1,0.3V73l1-0.3v1.8l-1,0.3v3.1h-0.5v-3l-1.9,0.6v3h-0.5v-2.8l-1,0.3v-1.8l1-0.3v-3.4l-1,0.3V69
		l1-0.3v-3.1h0.5v3l1.9-0.6v-3H70.7z M70.2,69.7l-1.9,0.6v3.4l1.9-0.6V69.7z"/>
</g>
<g>
	<path d="M137.3,61.8c0-0.8-0.4-1.5-1.1-2.2c-0.7,0.7-1.1,1.4-1.1,2.2h-1.4v-1.4c0.8,0,1.5-0.3,2.2-1c-0.7-0.7-1.4-1.1-2.2-1.1v-1.4
		h1.4c0,0.8,0.4,1.5,1.1,2.2c0.7-0.7,1.1-1.4,1.1-2.2h1.4v1.4c-0.8,0-1.5,0.4-2.2,1.1c0.7,0.7,1.4,1,2,1h0.2v1.4H137.3z"/>
</g>
<polygon fill-rule="evenodd" clip-rule="evenodd" points="87.1,58.1 132,53.1 132,50.6 87.1,55.6 "/>
<polygon fill-rule="evenodd" clip-rule="evenodd" points="87.1,54.4 132,49.4 132,46.9 87.1,51.9 "/>
<polygon fill-rule="evenodd" clip-rule="evenodd" points="80.5,84.1 125.5,79.2 125.5,76.7 80.5,81.6 "/>
<polygon fill-rule="evenodd" clip-rule="evenodd" points="80.5,87.8 125.5,82.9 125.5,80.4 80.5,85.4 "/>
<g>
	<path d="M167.2,61.8c0-0.8-0.4-1.5-1.1-2.2c-0.7,0.7-1.1,1.4-1.1,2.2h-1.4v-1.4c0.8,0,1.5-0.3,2.2-1c-0.7-0.7-1.4-1.1-2.2-1.1v-1.4
		h1.4c0,0.8,0.4,1.5,1.1,2.2c0.7-0.7,1.1-1.4,1.1-2.2h1.4v1.4c-0.8,0-1.5,0.4-2.2,1.1c0.7,0.7,1.4,1,2,1h0.2v1.4H167.2z"/>
</g>
<polygon fill-rule="evenodd" clip-rule="evenodd" points="140.4,77.9 185.3,73 185.3,70.5 140.4,75.4 "/>
<polygon fill-rule="evenodd" clip-rule="evenodd" points="140.4,81.6 185.3,76.7 185.3,74.2 140.4,79.2 "/>
<polygon fill-rule="evenodd" clip-rule="evenodd" points="146.9,49.4 191.8,44.4 191.8,42 146.9,46.9 "/>
<polygon fill-rule="evenodd" clip-rule="evenodd" points="146.9,45.7 191.8,40.7 191.8,38.2 146.9,43.2 "/>
<polygon fill-rule="evenodd" clip-rule="evenodd" points="386.4,42 431.2,46.9 431.2,44.4 386.4,39.5 "/>
<polygon fill-rule="evenodd" clip-rule="evenodd" points="386.4,38.2 431.2,43.2 431.2,40.7 386.4,35.8 "/>
<polygon fill-rule="evenodd" clip-rule="evenodd" points="379.9,68 424.7,73 424.7,70.5 379.9,65.5 "/>
<polygon fill-rule="evenodd" clip-rule="evenodd" points="379.9,71.7 424.7,76.7 424.7,74.2 379.9,69.2 "/>
<polygon fill-rule="evenodd" clip-rule="evenodd" points="446.2,51.9 491.2,56.8 491.2,54.4 446.2,49.4 "/>
<polygon fill-rule="evenodd" clip-rule="evenodd" points="446.2,48.2 491.2,53.1 491.2,50.6 446.2,45.7 "/>
<polygon fill-rule="evenodd" clip-rule="evenodd" points="439.7,77.9 484.7,82.9 484.7,80.4 439.7,75.4 "/>
<polygon fill-rule="evenodd" clip-rule="evenodd" points="439.7,81.6 484.7,86.6 484.7,84.1 439.7,79.2 "/>
<rect x="206.5" y="14.8" width="0.5" height="16.4"/>
<g>
	<path d="M200.1,32.9c0-1.8,2.5-3.5,4.5-3.5c1.3,0,2.3,0.7,2.3,1.7c0,1.7-2.5,3.5-4.6,3.5C201,34.6,200.1,34,200.1,32.9z"/>
</g>
<rect x="221.5" y="13.3" width="0.5" height="15.5"/>
<g>
	<path d="M215.1,30.4c0-1.8,2.5-3.5,4.5-3.5c1.3,0,2.3,0.7,2.3,1.7c0,1.7-2.5,3.5-4.6,3.5C216.1,32.1,215.1,31.5,215.1,30.4z"/>
</g>
<rect x="236.4" y="11.6" width="0.5" height="14.7"/>
<g>
	<path d="M230,27.9c0-1.8,2.5-3.5,4.5-3.5c1.3,0,2.3,0.7,2.3,1.7c0,1.7-2.5,3.5-4.6,3.5C230.9,29.7,230,29,230,27.9z"/>
</g>
<rect x="251.4" y="9.9" width="0.5" height="14"/>
<g>
	<path d="M245,25.5c0-1.8,2.5-3.5,4.5-3.5c1.3,0,2.3,0.7,2.3,1.7c0,1.7-2.5,3.5-4.6,3.5C246,27.2,245,26.5,245,25.5z"/>
</g>
<rect x="198.2" y="34.1" width="10.5" height="0.8"/>
<rect x="200" y="37.8" width="0.5" height="12.7"/>
<g>
	<path d="M200.1,37.9c0-1.8,2.5-3.5,4.5-3.5c1.3,0,2.3,0.7,2.3,1.7c0,1.7-2.5,3.5-4.6,3.5C201,39.6,200.1,38.9,200.1,37.9z"/>
</g>
<rect x="213.2" y="34.1" width="10.5" height="0.8"/>
<rect x="215" y="35.3" width="0.5" height="13.6"/>
<g>
	<path d="M215.1,35.4c0-1.8,2.5-3.5,4.5-3.5c1.3,0,2.3,0.7,2.3,1.7c0,1.7-2.5,3.5-4.6,3.5C216.1,37.1,215.1,36.5,215.1,35.4z"/>
</g>
<rect x="229.9" y="32.8" width="0.5" height="14.4"/>
<g>
	<path d="M230,32.9c0-1.8,2.5-3.5,4.5-3.5c1.3,0,2.3,0.7,2.3,1.7c0,1.7-2.5,3.5-4.6,3.5C230.9,34.6,230,34,230,32.9z"/>
</g>
<rect x="244.9" y="30.3" width="0.5" height="15.2"/>
<g>
	<path d="M245,30.4c0-1.8,2.5-3.5,4.5-3.5c1.3,0,2.3,0.7,2.3,1.7c0,1.7-2.5,3.5-4.6,3.5C246,32.1,245,31.5,245,30.4z"/>
</g>
<rect x="266.3" y="1.2" width="0.5" height="20.2"/>
<g>
	<path d="M259.9,23c0-1.8,2.5-3.5,4.5-3.5c1.3,0,2.3,0.7,2.3,1.7c0,1.7-2.5,3.5-4.6,3.5C260.9,24.7,259.9,24.1,259.9,23z"/>
</g>
<rect x="281.4" y="1.2" width="0.5" height="17.7"/>
<g>
	<path d="M274.9,20.5c0-1.8,2.5-3.5,4.5-3.5c1.3,0,2.3,0.7,2.3,1.7c0,1.7-2.5,3.5-4.6,3.5C275.9,22.2,274.9,21.6,274.9,20.5z"/>
</g>
<rect x="296.4" y="1.2" width="0.5" height="15.2"/>
<g>
	<path d="M290,18c0-1.8,2.5-3.5,4.5-3.5c1.3,0,2.3,0.7,2.3,1.7c0,1.7-2.5,3.5-4.6,3.5C290.9,19.7,290,19.1,290,18z"/>
</g>
<rect x="311.3" y="1.2" width="0.5" height="17.7"/>
<g>
	<path d="M304.8,20.5c0-1.8,2.5-3.5,4.5-3.5c1.3,0,2.3,0.7,2.3,1.7c0,1.7-2.5,3.5-4.6,3.5C305.8,22.2,304.8,21.6,304.8,20.5z"/>
</g>
<rect x="259.8" y="27.9" width="0.5" height="12.7"/>
<g>
	<path d="M259.9,27.9c0-1.8,2.5-3.5,4.5-3.5c1.3,0,2.3,0.7,2.3,1.7c0,1.7-2.5,3.5-4.6,3.5C260.9,29.7,259.9,29,259.9,27.9z"/>
</g>
<rect x="274.9" y="25.4" width="0.5" height="14.9"/>
<g>
	<path d="M274.9,25.5c0-1.8,2.5-3.5,4.5-3.5c1.3,0,2.3,0.7,2.3,1.7c0,1.7-2.5,3.5-4.6,3.5C275.9,27.2,274.9,26.5,274.9,25.5z"/>
</g>
<rect x="289.9" y="22.9" width="0.5" height="16.9"/>
<g>
	<path d="M290,23c0-1.8,2.5-3.5,4.5-3.5c1.3,0,2.3,0.7,2.3,1.7c0,1.7-2.5,3.5-4.6,3.5C290.9,24.7,290,24.1,290,23z"/>
</g>
<rect x="304.8" y="25.4" width="0.5" height="14"/>
<g>
	<path d="M304.8,25.5c0-1.8,2.5-3.5,4.5-3.5c1.3,0,2.3,0.7,2.3,1.7c0,1.7-2.5,3.5-4.6,3.5C305.8,27.2,304.8,26.5,304.8,25.5z"/>
</g>
<rect x="319.8" y="27.9" width="0.5" height="15.2"/>
<g>
	<path d="M319.9,27.9c0-1.8,2.5-3.5,4.5-3.5c1.3,0,2.3,0.7,2.3,1.7c0,1.7-2.5,3.5-4.6,3.5C320.9,29.7,319.9,29,319.9,27.9z"/>
</g>
<rect x="334.7" y="30.3" width="0.5" height="14.3"/>
<g>
	<path d="M334.8,30.4c0-1.8,2.5-3.5,4.5-3.5c1.3,0,2.3,0.7,2.3,1.7c0,1.7-2.5,3.5-4.6,3.5C335.7,32.1,334.8,31.5,334.8,30.4z"/>
</g>
<rect x="349.7" y="32.8" width="0.5" height="13.5"/>
<g>
	<path d="M349.8,32.9c0-1.8,2.5-3.5,4.5-3.5c1.3,0,2.3,0.7,2.3,1.7c0,1.7-2.5,3.5-4.6,3.5C350.8,34.6,349.8,34,349.8,32.9z"/>
</g>
<rect x="362.8" y="34.1" width="10.5" height="0.8"/>
<rect x="364.6" y="35.3" width="0.5" height="12.7"/>
<g>
	<path d="M364.7,35.4c0-1.8,2.5-3.5,4.5-3.5c1.3,0,2.3,0.7,2.3,1.7c0,1.7-2.5,3.5-4.6,3.5C365.7,37.1,364.7,36.5,364.7,35.4z"/>
</g>
<rect x="326.3" y="4.9" width="0.5" height="16.4"/>
<g>
	<path d="M319.9,23c0-1.8,2.5-3.5,4.5-3.5c1.3,0,2.3,0.7,2.3,1.7c0,1.7-2.5,3.5-4.6,3.5C320.9,24.7,319.9,24.1,319.9,23z"/>
</g>
<rect x="341.2" y="6.5" width="0.5" height="17.4"/>
<g>
	<path d="M334.8,25.5c0-1.8,2.5-3.5,4.5-3.5c1.3,0,2.3,0.7,2.3,1.7c0,1.7-2.5,3.5-4.6,3.5C335.7,27.2,334.8,26.5,334.8,25.5z"/>
</g>
<rect x="356.2" y="8.2" width="0.5" height="18.1"/>
<g>
	<path d="M349.8,27.9c0-1.8,2.5-3.5,4.5-3.5c1.3,0,2.3,0.7,2.3,1.7c0,1.7-2.5,3.5-4.6,3.5C350.8,29.7,349.8,29,349.8,27.9z"/>
</g>
<rect x="371.1" y="9.9" width="0.5" height="18.9"/>
<g>
	<path d="M364.7,30.4c0-1.8,2.5-3.5,4.5-3.5c1.3,0,2.3,0.7,2.3,1.7c0,1.7-2.5,3.5-4.6,3.5C365.7,32.1,364.7,31.5,364.7,30.4z"/>
</g>
<rect x="86.8" y="52" width="0.5" height="16.4"/>
<g>
	<path d="M80.4,70.1c0-1.8,2.5-3.5,4.5-3.5c1.3,0,2.3,0.7,2.3,1.7c0,1.7-2.5,3.5-4.6,3.5C81.4,71.8,80.4,71.2,80.4,70.1z"/>
</g>
<rect x="101.9" y="50.5" width="0.5" height="15.5"/>
<g>
	<path d="M95.4,67.6c0-1.8,2.5-3.5,4.5-3.5c1.3,0,2.3,0.7,2.3,1.7c0,1.7-2.5,3.5-4.6,3.5C96.4,69.3,95.4,68.7,95.4,67.6z"/>
</g>
<rect x="116.7" y="48.8" width="0.5" height="14.7"/>
<g>
	<path d="M110.3,65.1c0-1.8,2.5-3.5,4.5-3.5c1.3,0,2.3,0.7,2.3,1.7c0,1.7-2.5,3.5-4.6,3.5C111.3,66.9,110.3,66.2,110.3,65.1z"/>
</g>
<rect x="131.8" y="47.1" width="0.5" height="14"/>
<g>
	<path d="M125.3,62.7c0-1.8,2.5-3.5,4.5-3.5c1.3,0,2.3,0.7,2.3,1.7c0,1.7-2.5,3.5-4.6,3.5C126.3,64.4,125.3,63.7,125.3,62.7z"/>
</g>
<rect x="80.3" y="75" width="0.5" height="12.7"/>
<g>
	<path d="M80.4,75.1c0-1.8,2.5-3.5,4.5-3.5c1.3,0,2.3,0.7,2.3,1.7c0,1.7-2.5,3.5-4.6,3.5C81.4,76.8,80.4,76.1,80.4,75.1z"/>
</g>
<rect x="95.3" y="72.5" width="0.5" height="13.6"/>
<g>
	<path d="M95.4,72.6c0-1.8,2.5-3.5,4.5-3.5c1.3,0,2.3,0.7,2.3,1.7c0,1.7-2.5,3.5-4.6,3.5C96.4,74.3,95.4,73.7,95.4,72.6z"/>
</g>
<rect x="110.2" y="70" width="0.5" height="14.4"/>
<g>
	<path d="M110.3,70.1c0-1.8,2.5-3.5,4.5-3.5c1.3,0,2.3,0.7,2.3,1.7c0,1.7-2.5,3.5-4.6,3.5C111.3,71.8,110.3,71.2,110.3,70.1z"/>
</g>
<rect x="125.3" y="67.5" width="0.5" height="15.2"/>
<g>
	<path d="M125.3,67.6c0-1.8,2.5-3.5,4.5-3.5c1.3,0,2.3,0.7,2.3,1.7c0,1.7-2.5,3.5-4.6,3.5C126.3,69.3,125.3,68.7,125.3,67.6z"/>
</g>
<rect x="140.1" y="65.1" width="0.5" height="16.4"/>
<g>
	<path d="M140.2,65.1c0-1.8,2.5-3.5,4.5-3.5c1.3,0,2.3,0.7,2.3,1.7c0,1.7-2.5,3.5-4.6,3.5C141.2,66.9,140.2,66.2,140.2,65.1z"/>
</g>
<rect x="155.2" y="62.6" width="0.5" height="17.4"/>
<g>
	<path d="M155.3,62.7c0-1.8,2.5-3.5,4.5-3.5c1.3,0,2.3,0.7,2.3,1.7c0,1.7-2.5,3.5-4.6,3.5C156.2,64.4,155.3,63.7,155.3,62.7z"/>
</g>
<rect x="170.1" y="60.1" width="0.5" height="18.1"/>
<g>
	<path d="M170.1,60.2c0-1.8,2.5-3.5,4.5-3.5c1.3,0,2.3,0.7,2.3,1.7c0,1.7-2.5,3.5-4.6,3.5C171.1,61.9,170.1,61.3,170.1,60.2z"/>
</g>
<rect x="185.1" y="57.6" width="0.5" height="18.9"/>
<g>
	<path d="M185.2,57.7c0-1.8,2.5-3.5,4.5-3.5c1.3,0,2.3,0.7,2.3,1.7c0,1.7-2.5,3.5-4.6,3.5C186.1,59.4,185.2,58.8,185.2,57.7z"/>
</g>
<rect x="146.7" y="43.4" width="0.5" height="15.2"/>
<g>
	<path d="M140.2,60.2c0-1.8,2.5-3.5,4.5-3.5c1.3,0,2.3,0.7,2.3,1.7c0,1.7-2.5,3.5-4.6,3.5C141.2,61.9,140.2,61.3,140.2,60.2z"/>
</g>
<rect x="161.7" y="41.8" width="0.5" height="14.3"/>
<g>
	<path d="M155.3,57.7c0-1.8,2.5-3.5,4.5-3.5c1.3,0,2.3,0.7,2.3,1.7c0,1.7-2.5,3.5-4.6,3.5C156.2,59.4,155.3,58.8,155.3,57.7z"/>
</g>
<rect x="176.6" y="40.1" width="0.5" height="13.5"/>
<g>
	<path d="M170.1,55.2c0-1.8,2.5-3.5,4.5-3.5c1.3,0,2.3,0.7,2.3,1.7c0,1.7-2.5,3.5-4.6,3.5C171.1,56.9,170.1,56.3,170.1,55.2z"/>
</g>
<rect x="183.3" y="51.5" width="10.5" height="0.8"/>
<rect x="191.6" y="38.4" width="0.5" height="12.7"/>
<g>
	<path d="M185.2,52.7c0-1.8,2.5-3.5,4.5-3.5c1.3,0,2.3,0.7,2.3,1.7c0,1.7-2.5,3.5-4.6,3.5C186.1,54.5,185.2,53.8,185.2,52.7z"/>
</g>
<rect x="377.9" y="51.5" width="10.5" height="0.8"/>
<rect x="386.2" y="35.9" width="0.5" height="12.7"/>
<g>
	<path d="M379.7,50.3c0-1.8,2.5-3.5,4.5-3.5c1.3,0,2.3,0.7,2.3,1.7c0,1.7-2.5,3.5-4.6,3.5C380.7,52,379.7,51.3,379.7,50.3z"/>
</g>
<rect x="392.7" y="51.5" width="10.5" height="0.8"/>
<rect x="401" y="37.5" width="0.5" height="13.6"/>
<g>
	<path d="M394.6,52.7c0-1.8,2.5-3.5,4.5-3.5c1.3,0,2.3,0.7,2.3,1.7c0,1.7-2.5,3.5-4.6,3.5C395.6,54.5,394.6,53.8,394.6,52.7z"/>
</g>
<rect x="416.1" y="39.2" width="0.5" height="14.4"/>
<g>
	<path d="M409.6,55.2c0-1.8,2.5-3.5,4.5-3.5c1.3,0,2.3,0.7,2.3,1.7c0,1.7-2.5,3.5-4.6,3.5C410.6,56.9,409.6,56.3,409.6,55.2z"/>
</g>
<rect x="431" y="40.9" width="0.5" height="15.2"/>
<g>
	<path d="M424.5,57.7c0-1.8,2.5-3.5,4.5-3.5c1.3,0,2.3,0.7,2.3,1.7c0,1.7-2.5,3.5-4.6,3.5C425.5,59.4,424.5,58.8,424.5,57.7z"/>
</g>
<rect x="379.6" y="55.1" width="0.5" height="16.4"/>
<g>
	<path d="M379.7,55.2c0-1.8,2.5-3.5,4.5-3.5c1.3,0,2.3,0.7,2.3,1.7c0,1.7-2.5,3.5-4.6,3.5C380.7,56.9,379.7,56.3,379.7,55.2z"/>
</g>
<rect x="394.5" y="57.6" width="0.5" height="15.5"/>
<g>
	<path d="M394.6,57.7c0-1.8,2.5-3.5,4.5-3.5c1.3,0,2.3,0.7,2.3,1.7c0,1.7-2.5,3.5-4.6,3.5C395.6,59.4,394.6,58.8,394.6,57.7z"/>
</g>
<rect x="409.6" y="60.1" width="0.5" height="14.7"/>
<g>
	<path d="M409.6,60.2c0-1.8,2.5-3.5,4.5-3.5c1.3,0,2.3,0.7,2.3,1.7c0,1.7-2.5,3.5-4.6,3.5C410.6,61.9,409.6,61.3,409.6,60.2z"/>
</g>
<rect x="424.4" y="62.6" width="0.5" height="14"/>
<g>
	<path d="M424.5,62.7c0-1.8,2.5-3.5,4.5-3.5c1.3,0,2.3,0.7,2.3,1.7c0,1.7-2.5,3.5-4.6,3.5C425.5,64.4,424.5,63.7,424.5,62.7z"/>
</g>
<rect x="446" y="45.8" width="0.5" height="12.7"/>
<g>
	<path d="M439.6,60.2c0-1.8,2.5-3.5,4.5-3.5c1.3,0,2.3,0.7,2.3,1.7c0,1.7-2.5,3.5-4.6,3.5C440.5,61.9,439.6,61.3,439.6,60.2z"/>
</g>
<rect x="461" y="47.4" width="0.5" height="13.6"/>
<g>
	<path d="M454.6,62.7c0-1.8,2.5-3.5,4.5-3.5c1.3,0,2.3,0.7,2.3,1.7c0,1.7-2.5,3.5-4.6,3.5C455.6,64.4,454.6,63.7,454.6,62.7z"/>
</g>
<rect x="475.9" y="49.1" width="0.5" height="14.4"/>
<g>
	<path d="M469.5,65.1c0-1.8,2.5-3.5,4.5-3.5c1.3,0,2.3,0.7,2.3,1.7c0,1.7-2.5,3.5-4.6,3.5C470.4,66.9,469.5,66.2,469.5,65.1z"/>
</g>
<rect x="490.9" y="50.8" width="0.5" height="15.2"/>
<g>
	<path d="M484.5,67.6c0-1.8,2.5-3.5,4.5-3.5c1.3,0,2.3,0.7,2.3,1.7c0,1.7-2.5,3.5-4.6,3.5C485.5,69.3,484.5,68.7,484.5,67.6z"/>
</g>
<rect x="506" y="51.9" width="0.5" height="16.6"/>
<g>
	<path d="M503.7,66.5c1.6,0,2.7,0.7,2.7,2c0,1.9-2.3,3.4-4.5,3.4c-1.3,0-2.4-0.7-2.4-1.8C499.4,68.3,501.6,66.5,503.7,66.5z
		 M499.8,70.4c0,0.6,0.4,0.9,1.1,0.9c1.4,0,4.9-2.1,4.9-3.3c0-0.6-0.4-0.9-1.1-0.9C503.5,67.1,499.8,69.2,499.8,70.4z"/>
</g>
<rect x="439.5" y="65.1" width="0.5" height="16.4"/>
<g>
	<path d="M439.6,65.1c0-1.8,2.5-3.5,4.5-3.5c1.3,0,2.3,0.7,2.3,1.7c0,1.7-2.5,3.5-4.6,3.5C440.5,66.9,439.6,66.2,439.6,65.1z"/>
</g>
<rect x="454.5" y="67.5" width="0.5" height="15.5"/>
<g>
	<path d="M454.6,67.6c0-1.8,2.5-3.5,4.5-3.5c1.3,0,2.3,0.7,2.3,1.7c0,1.7-2.5,3.5-4.6,3.5C455.6,69.3,454.6,68.7,454.6,67.6z"/>
</g>
<rect x="469.4" y="70" width="0.5" height="14.7"/>
<g>
	<path d="M469.5,70.1c0-1.8,2.5-3.5,4.5-3.5c1.3,0,2.3,0.7,2.3,1.7c0,1.7-2.5,3.5-4.6,3.5C470.4,71.8,469.5,71.2,469.5,70.1z"/>
</g>
<rect x="484.4" y="72.5" width="0.5" height="14"/>
<g>
	<path d="M484.5,72.6c0-1.8,2.5-3.5,4.5-3.5c1.3,0,2.3,0.7,2.3,1.7c0,1.7-2.5,3.5-4.6,3.5C485.5,74.3,484.5,73.7,484.5,72.6z"/>
</g>
<rect x="499.3" y="75" width="0.5" height="12.9"/>
<g>
	<path d="M503.7,71.5c1.6,0,2.7,0.7,2.7,2c0,1.9-2.3,3.4-4.5,3.4c-1.3,0-2.4-0.7-2.4-1.8C499.4,73.3,501.6,71.5,503.7,71.5z
		 M499.8,75.4c0,0.6,0.4,0.9,1.1,0.9c1.4,0,4.9-2.1,4.9-3.3c0-0.6-0.4-0.9-1.1-0.9C503.5,72.1,499.8,74.1,499.8,75.4z"/>
</g>
</svg>
