<?xml version="1.0" encoding="utf-8"?>

<!--
	ScaleBook
	Copyright (c) Leland Jansen 2015. All rights reserved.
-->

<!DOCTYPE svg PUBLIC "-//W3C//DTD SVG 1.1//EN" "http://www.w3.org/Graphics/SVG/1.1/DTD/svg11.dtd">
<svg version="1.1" id="Layer_1" xmlns="http://www.w3.org/2000/svg" xmlns:xlink="http://www.w3.org/1999/xlink" x="0px" y="0px"
	 viewBox="0 0 553 93.3" enable-background="new 0 0 553 93.3" xml:space="preserve">
<rect x="8.5" y="12.4" width="0.8" height="71"/>
<g>
	<path d="M7.6,13.1c-2,1.1-3.7,6.1-3.7,10c0,2.4,1.4,10.5,1.4,13c0,5.3-1.6,9.2-4.7,11.8c3.1,2.6,4.7,6.5,4.7,11.7
		c0,2.4-1.4,10.5-1.4,13c0,4,1.8,8.9,3.7,10.1v0.7C4,81,1.7,74.7,1.7,69.5c0-2.3,1.8-9.9,1.8-12.2c0-4-1-7-3-8.7
		C0.1,48.3,0,48.1,0,47.9s0.1-0.4,0.5-0.7c2-1.8,3-4.5,3-8c0-2.3-1.8-10.6-1.8-12.9c0-5.5,2.1-11,5.9-13.8V13.1z"/>
</g>
<rect x="548" y="12.4" width="0.8" height="71"/>
<rect x="550.5" y="12.4" width="2.5" height="71"/>
<rect x="8.6" y="32" width="544.4" height="0.5"/>
<rect x="8.6" y="27" width="544.4" height="0.5"/>
<rect x="8.6" y="22.1" width="544.4" height="0.5"/>
<rect x="8.6" y="17.1" width="544.4" height="0.5"/>
<rect x="8.6" y="12.2" width="544.4" height="0.5"/>
<g>
	<path d="M20.4,32.1c-4.2,0-8.1-3.1-8.1-6.9c0-3.2,2.3-6.7,6.8-10.5c-0.3-1.2-0.4-2.4-0.4-3.6c0-3.5,1.2-6.8,3.2-8.5
		c1.8,2.5,2.7,4.9,2.7,7.1c0,2.9-1.3,5.6-4.3,8.1l0.9,4.2C21.7,22,22,22,22,22c2.6,0,4.8,2,4.8,4.7c0,1.9-1.4,3.7-3.6,4.8
		c0-0.1,0.9,3.8,0.9,4.3c0,2.5-2.3,4.2-4.9,4.2c-2,0-3.6-1.3-3.6-3.4c0-1.4,1-2.6,2.4-2.6c1.3,0,2.3,1.3,2.3,2.5
		c0,1.4-1.2,2.3-2.7,2.5c0.6,0.3,1.2,0.5,1.9,0.5c2.1,0,4.1-1.6,4.1-3.6c0-0.2,0-0.4-0.1-0.6l-0.8-3.7
		C22.1,31.9,21.4,32.1,20.4,32.1z M18.2,26.9c0,1,0.5,1.9,1.6,2.5c-1.8-0.3-3-1.4-3-3.1c0-2,1.7-3.7,3.8-4.1l-0.8-4
		c-3.7,2.8-5.7,5.5-5.7,8.1c0,2.9,2.8,5.3,6,5.3c0.9,0,1.7-0.2,2.4-0.5l-1.4-6.8C19.5,24.5,18.2,25.5,18.2,26.9z M22.3,5.5
		c-1.6,0-2.9,3.7-2.9,7c0,0.7,0,1.3,0.2,1.9c2.7-2.4,4-4.5,4-6.5c0-0.9-0.3-1.7-1-2.4C22.5,5.5,22.4,5.5,22.3,5.5z M25,27.4
		c0-1.6-1.2-3.3-2.9-3.3c-0.1,0-0.2,0-0.5,0l1.4,6.6C24.4,29.9,25,28.7,25,27.4z"/>
</g>
<g>
	<path d="M33.6,5.6v2.8l1-0.3v1.8l-1,0.3v3.4l1-0.3v1.8l-1,0.3v3.1h-0.5v-3l-1.9,0.6v3h-0.5v-2.8l-1,0.3v-1.8l1-0.3v-3.4l-1,0.3V9.7
		l1-0.3V6.2h0.5v3l1.9-0.6v-3H33.6z M33.1,10.4L31.2,11v3.4l1.9-0.6V10.4z"/>
</g>
<g>
	<path d="M39.8,13v2.8l1-0.3v1.8l-1,0.3v3.4l1-0.3v1.8l-1,0.3V26h-0.5v-3l-1.9,0.6v3h-0.5v-2.8l-1,0.3v-1.8l1-0.3v-3.4l-1,0.3v-1.8
		l1-0.3v-3.1h0.5v3l1.9-0.6v-3H39.8z M39.3,17.8l-1.9,0.6v3.4l1.9-0.6V17.8z"/>
</g>
<g>
	<path d="M46,3.1v2.8l1-0.3v1.8l-1,0.3v3.4l1-0.3v1.8L46,13v3.1h-0.5v-3l-1.9,0.6v3h-0.5v-2.8l-1,0.3v-1.8l1-0.3V8.7l-1,0.3V7.2
		l1-0.3V3.7h0.5v3l1.9-0.6v-3H46z M45.5,7.9l-1.9,0.6v3.4l1.9-0.6V7.9z"/>
</g>
<g>
	<path d="M52.2,10.5v2.8l1-0.3v1.8l-1,0.3v3.4l1-0.3v1.8l-1,0.3v3.1h-0.5v-3l-1.9,0.6v3h-0.5v-2.8l-1,0.3v-1.8l1-0.3v-3.4l-1,0.3
		v-1.8l1-0.3v-3.1h0.5v3l1.9-0.6v-3H52.2z M51.7,15.3L49.8,16v3.4l1.9-0.6V15.3z"/>
</g>
<g>
	<path d="M231.9,15.5v2.8l1-0.3v1.8l-1,0.3v3.4l1-0.3V25l-1,0.3v3.1h-0.5v-3l-1.9,0.6v3H229v-2.8l-1,0.3v-1.8l1-0.3v-3.4l-1,0.3
		v-1.8l1-0.3v-3.1h0.5v3l1.9-0.6v-3H231.9z M231.4,20.3l-1.9,0.6v3.4l1.9-0.6V20.3z"/>
</g>
<polygon fill-rule="evenodd" clip-rule="evenodd" points="194.5,18.6 241,13.6 241,11.2 194.5,16.1 "/>
<polygon fill-rule="evenodd" clip-rule="evenodd" points="194.5,14.9 241,9.9 241,7.4 194.5,12.4 "/>
<polygon fill-rule="evenodd" clip-rule="evenodd" points="188,44.6 234.5,39.7 234.5,37.2 188,42.2 "/>
<polygon fill-rule="evenodd" clip-rule="evenodd" points="188,48.4 234.5,43.4 234.5,40.9 188,45.9 "/>
<g>
	<path d="M262.9,15.5v2.8l1-0.3v1.8l-1,0.3v3.4l1-0.3V25l-1,0.3v3.1h-0.5v-3l-1.9,0.6v3H260v-2.8l-1,0.3v-1.8l1-0.3v-3.4l-1,0.3
		v-1.8l1-0.3v-3.1h0.5v3l1.9-0.6v-3H262.9z M262.4,20.3l-1.9,0.6v3.4l1.9-0.6V20.3z"/>
</g>
<rect x="256.5" y="3.7" fill-rule="evenodd" clip-rule="evenodd" width="46.5" height="2.5"/>
<rect x="256.5" fill-rule="evenodd" clip-rule="evenodd" width="46.5" height="2.5"/>
<polygon fill-rule="evenodd" clip-rule="evenodd" points="250,37.2 296.5,36 296.5,33.5 250,34.7 "/>
<polygon fill-rule="evenodd" clip-rule="evenodd" points="250,40.9 296.5,39.7 296.5,37.2 250,38.4 "/>
<polygon fill-rule="evenodd" clip-rule="evenodd" points="312,37.2 358.5,42.2 358.5,39.7 312,34.7 "/>
<polygon fill-rule="evenodd" clip-rule="evenodd" points="312,40.9 358.5,45.9 358.5,43.4 312,38.4 "/>
<polygon fill-rule="evenodd" clip-rule="evenodd" points="318.5,8.7 365,13.6 365,11.2 318.5,6.2 "/>
<polygon fill-rule="evenodd" clip-rule="evenodd" points="318.5,5 365,9.9 365,7.4 318.5,2.5 "/>
<rect x="8.6" y="83.2" width="544.4" height="0.5"/>
<rect x="8.6" y="78.2" width="544.4" height="0.5"/>
<rect x="8.6" y="73.2" width="544.4" height="0.5"/>
<rect x="8.6" y="68.3" width="544.4" height="0.5"/>
<rect x="8.6" y="63.3" width="544.4" height="0.5"/>
<g>
	<path d="M15.9,77.7c2.9-2.6,4.7-6.1,4.7-9.2c0-2.5-1.4-4.4-3.7-4.4c-1.6,0-3.4,1.3-3.4,2.7c0,0.2,0,0.3,0.1,0.3
		c-0.1,0,0.6-0.6,1.4-0.6c0.9,0,1.5,0.8,1.5,1.7c0,1.2-0.9,2.2-2.1,2.2c-1.2,0-2.1-1.3-2.1-2.8c0-2.3,2.3-4.1,4.8-4.1
		c4.7,0,5.9,3.2,5.9,5.8c0,1.6-0.4,2.9-2,5.3c-1.9,3.1-6.4,5.3-8.1,5.3c-0.4,0-0.6-0.2-0.6-0.5C14,79,15.1,78.4,15.9,77.7z M25.8,65
		c0.6,0,1,0.4,1,1c0,0.6-0.4,1-1,1s-1-0.4-1-1C24.8,65.5,25.3,65,25.8,65z M25.8,70c0.6,0,1,0.4,1,1c0,0.6-0.4,1-1,1s-1-0.4-1-1
		C24.8,70.4,25.3,70,25.8,70z"/>
</g>
<g>
	<path d="M33.6,61.7v2.8l1-0.3V66l-1,0.3v3.4l1-0.3v1.8l-1,0.3v3.1h-0.5v-3l-1.9,0.6v3h-0.5v-2.8l-1,0.3V71l1-0.3v-3.4l-1,0.3v-1.8
		l1-0.3v-3.1h0.5v3l1.9-0.6v-3H33.6z M33.1,66.5l-1.9,0.6v3.4l1.9-0.6V66.5z"/>
</g>
<g>
	<path d="M39.8,69.1V72l1-0.3v1.8l-1,0.3v3.4l1-0.3v1.8l-1,0.3v3.1h-0.5v-3l-1.9,0.6v3h-0.5v-2.8l-1,0.3v-1.8l1-0.3v-3.4l-1,0.3
		v-1.8l1-0.3v-3.1h0.5v3l1.9-0.6v-3H39.8z M39.3,73.9l-1.9,0.6V78l1.9-0.6V73.9z"/>
</g>
<g>
	<path d="M46,59.2V62l1-0.3v1.8l-1,0.3v3.4l1-0.3v1.8l-1,0.3v3.1h-0.5v-3l-1.9,0.6v3h-0.5V70l-1,0.3v-1.8l1-0.3v-3.4l-1,0.3v-1.8
		l1-0.3v-3.1h0.5v3l1.9-0.6v-3H46z M45.5,64l-1.9,0.6v3.4l1.9-0.6V64z"/>
</g>
<g>
	<path d="M52.2,66.7v2.8l1-0.3V71l-1,0.3v3.4l1-0.3v1.8l-1,0.3v3.1h-0.5v-3l-1.9,0.6v3h-0.5v-2.8l-1,0.3V76l1-0.3v-3.4l-1,0.3v-1.8
		l1-0.3v-3.1h0.5v3l1.9-0.6v-3H52.2z M51.7,71.4l-1.9,0.6v3.4l1.9-0.6V71.4z"/>
</g>
<g>
	<path d="M121.5,54.2v2.8l1-0.3v1.8l-1,0.3v3.4l1-0.3v1.8l-1,0.3v3.1H121v-3l-1.9,0.6v3h-0.5V65l-1,0.3v-1.8l1-0.3v-3.4l-1,0.3v-1.8
		l1-0.3v-3.1h0.5v3l1.9-0.6v-3H121.5z M121,59l-1.9,0.6v3.4l1.9-0.6V59z"/>
</g>
<polygon fill-rule="evenodd" clip-rule="evenodd" points="68.6,61.1 115.1,56.1 115.1,53.6 68.6,58.6 "/>
<polygon fill-rule="evenodd" clip-rule="evenodd" points="68.6,57.4 115.1,52.4 115.1,49.9 68.6,54.9 "/>
<polygon fill-rule="evenodd" clip-rule="evenodd" points="62.1,89.6 108.6,84.6 108.6,82.2 62.1,87.1 "/>
<polygon fill-rule="evenodd" clip-rule="evenodd" points="62.1,93.3 108.6,88.4 108.6,85.9 62.1,90.8 "/>
<g>
	<path d="M153.1,54.2v2.8l1-0.3v1.8l-1,0.3v3.4l1-0.3v1.8l-1,0.3v3.1h-0.5v-3l-1.9,0.6v3h-0.5V65l-1,0.3v-1.8l1-0.3v-3.4l-1,0.3
		v-1.8l1-0.3v-3.1h0.5v3l1.9-0.6v-3H153.1z M152.6,59l-1.9,0.6v3.4l1.9-0.6V59z"/>
</g>
<polygon fill-rule="evenodd" clip-rule="evenodd" points="124.1,79.7 172.5,74.7 172.5,72.2 124.1,77.2 "/>
<polygon fill-rule="evenodd" clip-rule="evenodd" points="124.1,83.4 172.5,78.4 172.5,76 124.1,80.9 "/>
<polygon fill-rule="evenodd" clip-rule="evenodd" points="130.6,51.2 179,46.2 179,43.7 130.6,48.7 "/>
<polygon fill-rule="evenodd" clip-rule="evenodd" points="130.6,47.4 179,42.5 179,40 130.6,45 "/>
<polygon fill-rule="evenodd" clip-rule="evenodd" points="380.5,43.7 427,48.7 427,46.2 380.5,41.2 "/>
<polygon fill-rule="evenodd" clip-rule="evenodd" points="380.5,40 427,45 427,42.5 380.5,37.5 "/>
<polygon fill-rule="evenodd" clip-rule="evenodd" points="374,69.8 420.5,74.7 420.5,72.2 374,67.3 "/>
<polygon fill-rule="evenodd" clip-rule="evenodd" points="374,73.5 420.5,78.4 420.5,76 374,71 "/>
<polygon fill-rule="evenodd" clip-rule="evenodd" points="442.5,53.6 489,58.6 489,56.1 442.5,51.2 "/>
<polygon fill-rule="evenodd" clip-rule="evenodd" points="442.5,49.9 489,54.9 489,52.4 442.5,47.4 "/>
<polygon fill-rule="evenodd" clip-rule="evenodd" points="436,79.7 482.5,84.6 482.5,82.2 436,77.2 "/>
<polygon fill-rule="evenodd" clip-rule="evenodd" points="436,83.4 482.5,88.4 482.5,85.9 436,80.9 "/>
<rect x="194.2" y="12.6" width="0.5" height="16.4"/>
<g>
	<path d="M187.8,30.6c0-1.8,2.5-3.5,4.5-3.5c1.3,0,2.3,0.7,2.3,1.7c0,1.7-2.5,3.5-4.6,3.5C188.8,32.3,187.8,31.7,187.8,30.6z"/>
</g>
<rect x="209.7" y="11" width="0.5" height="15.5"/>
<g>
	<path d="M203.3,28.1c0-1.8,2.5-3.5,4.5-3.5c1.3,0,2.3,0.7,2.3,1.7c0,1.7-2.5,3.5-4.6,3.5C204.3,29.9,203.3,29.2,203.3,28.1z"/>
</g>
<rect x="225.2" y="9.3" width="0.5" height="14.7"/>
<g>
	<path d="M218.8,25.7c0-1.8,2.5-3.5,4.5-3.5c1.3,0,2.3,0.7,2.3,1.7c0,1.7-2.5,3.5-4.6,3.5C219.8,27.4,218.8,26.7,218.8,25.7z"/>
</g>
<rect x="240.7" y="7.6" width="0.5" height="14"/>
<g>
	<path d="M234.3,23.2c0-1.8,2.5-3.5,4.5-3.5c1.3,0,2.3,0.7,2.3,1.7c0,1.7-2.5,3.5-4.6,3.5C235.3,24.9,234.3,24.3,234.3,23.2z"/>
</g>
<rect x="187.7" y="35.5" width="0.5" height="12.7"/>
<g>
	<path d="M187.8,35.6c0-1.8,2.5-3.5,4.5-3.5c1.3,0,2.3,0.7,2.3,1.7c0,1.7-2.5,3.5-4.6,3.5C188.8,37.3,187.8,36.7,187.8,35.6z"/>
</g>
<rect x="203.2" y="33" width="0.5" height="13.6"/>
<g>
	<path d="M203.3,33.1c0-1.8,2.5-3.5,4.5-3.5c1.3,0,2.3,0.7,2.3,1.7c0,1.7-2.5,3.5-4.6,3.5C204.3,34.8,203.3,34.2,203.3,33.1z"/>
</g>
<rect x="218.7" y="30.5" width="0.5" height="14.4"/>
<g>
	<path d="M218.8,30.6c0-1.8,2.5-3.5,4.5-3.5c1.3,0,2.3,0.7,2.3,1.7c0,1.7-2.5,3.5-4.6,3.5C219.8,32.3,218.8,31.7,218.8,30.6z"/>
</g>
<rect x="234.2" y="28.1" width="0.5" height="15.2"/>
<g>
	<path d="M234.3,28.1c0-1.8,2.5-3.5,4.5-3.5c1.3,0,2.3,0.7,2.3,1.7c0,1.7-2.5,3.5-4.6,3.5C235.3,29.9,234.3,29.2,234.3,28.1z"/>
</g>
<rect x="256.3" y="0.2" width="0.5" height="18.9"/>
<g>
	<path d="M249.8,20.7c0-1.8,2.5-3.5,4.5-3.5c1.3,0,2.3,0.7,2.3,1.7c0,1.7-2.5,3.5-4.6,3.5C250.8,22.4,249.8,21.8,249.8,20.7z"/>
</g>
<rect x="271.8" y="0.2" width="0.5" height="16.4"/>
<g>
	<path d="M265.3,18.2c0-1.8,2.5-3.5,4.5-3.5c1.3,0,2.3,0.7,2.3,1.7c0,1.7-2.5,3.5-4.6,3.5C266.3,19.9,265.3,19.3,265.3,18.2z"/>
</g>
<rect x="287.3" y="0.2" width="0.5" height="14"/>
<g>
	<path d="M280.8,15.7c0-1.8,2.5-3.5,4.5-3.5c1.3,0,2.3,0.7,2.3,1.7c0,1.7-2.5,3.5-4.6,3.5C281.8,17.5,280.8,16.8,280.8,15.7z"/>
</g>
<rect x="302.8" y="0.2" width="0.5" height="16.4"/>
<g>
	<path d="M296.3,18.2c0-1.8,2.5-3.5,4.5-3.5c1.3,0,2.3,0.7,2.3,1.7c0,1.7-2.5,3.5-4.6,3.5C297.3,19.9,296.3,19.3,296.3,18.2z"/>
</g>
<rect x="249.7" y="25.6" width="0.5" height="15.2"/>
<g>
	<path d="M249.8,25.7c0-1.8,2.5-3.5,4.5-3.5c1.3,0,2.3,0.7,2.3,1.7c0,1.7-2.5,3.5-4.6,3.5C250.8,27.4,249.8,26.7,249.8,25.7z"/>
</g>
<rect x="265.2" y="23.1" width="0.5" height="17.4"/>
<g>
	<path d="M265.3,23.2c0-1.8,2.5-3.5,4.5-3.5c1.3,0,2.3,0.7,2.3,1.7c0,1.7-2.5,3.5-4.6,3.5C266.3,24.9,265.3,24.3,265.3,23.2z"/>
</g>
<rect x="280.7" y="20.6" width="0.5" height="19.4"/>
<g>
	<path d="M280.8,20.7c0-1.8,2.5-3.5,4.5-3.5c1.3,0,2.3,0.7,2.3,1.7c0,1.7-2.5,3.5-4.6,3.5C281.8,22.4,280.8,21.8,280.8,20.7z"/>
</g>
<rect x="296.2" y="23.1" width="0.5" height="16.4"/>
<g>
	<path d="M296.3,23.2c0-1.8,2.5-3.5,4.5-3.5c1.3,0,2.3,0.7,2.3,1.7c0,1.7-2.5,3.5-4.6,3.5C297.3,24.9,296.3,24.3,296.3,23.2z"/>
</g>
<rect x="311.7" y="25.6" width="0.5" height="15.2"/>
<g>
	<path d="M311.8,25.7c0-1.8,2.5-3.5,4.5-3.5c1.3,0,2.3,0.7,2.3,1.7c0,1.7-2.5,3.5-4.6,3.5C312.8,27.4,311.8,26.7,311.8,25.7z"/>
</g>
<rect x="327.2" y="28.1" width="0.5" height="14.3"/>
<g>
	<path d="M327.3,28.1c0-1.8,2.5-3.5,4.5-3.5c1.3,0,2.3,0.7,2.3,1.7c0,1.7-2.5,3.5-4.6,3.5C328.3,29.9,327.3,29.2,327.3,28.1z"/>
</g>
<rect x="342.7" y="30.5" width="0.5" height="13.5"/>
<g>
	<path d="M342.8,30.6c0-1.8,2.5-3.5,4.5-3.5c1.3,0,2.3,0.7,2.3,1.7c0,1.7-2.5,3.5-4.6,3.5C343.8,32.3,342.8,31.7,342.8,30.6z"/>
</g>
<rect x="358.2" y="33" width="0.5" height="12.7"/>
<g>
	<path d="M358.3,33.1c0-1.8,2.5-3.5,4.5-3.5c1.3,0,2.3,0.7,2.3,1.7c0,1.7-2.5,3.5-4.6,3.5C359.3,34.8,358.3,34.2,358.3,33.1z"/>
</g>
<rect x="318.3" y="2.6" width="0.5" height="16.4"/>
<g>
	<path d="M311.8,20.7c0-1.8,2.5-3.5,4.5-3.5c1.3,0,2.3,0.7,2.3,1.7c0,1.7-2.5,3.5-4.6,3.5C312.8,22.4,311.8,21.8,311.8,20.7z"/>
</g>
<rect x="333.8" y="4.2" width="0.5" height="17.4"/>
<g>
	<path d="M327.3,23.2c0-1.8,2.5-3.5,4.5-3.5c1.3,0,2.3,0.7,2.3,1.7c0,1.7-2.5,3.5-4.6,3.5C328.3,24.9,327.3,24.3,327.3,23.2z"/>
</g>
<rect x="349.3" y="5.9" width="0.5" height="18.1"/>
<g>
	<path d="M342.8,25.7c0-1.8,2.5-3.5,4.5-3.5c1.3,0,2.3,0.7,2.3,1.7c0,1.7-2.5,3.5-4.6,3.5C343.8,27.4,342.8,26.7,342.8,25.7z"/>
</g>
<rect x="364.8" y="7.6" width="0.5" height="18.9"/>
<g>
	<path d="M358.3,28.1c0-1.8,2.5-3.5,4.5-3.5c1.3,0,2.3,0.7,2.3,1.7c0,1.7-2.5,3.5-4.6,3.5C359.3,29.9,358.3,29.2,358.3,28.1z"/>
</g>
<rect x="68.4" y="55" width="0.5" height="15.2"/>
<g>
	<path d="M61.9,71.8c0-1.8,2.5-3.5,4.5-3.5c1.3,0,2.3,0.7,2.3,1.7c0,1.7-2.5,3.5-4.6,3.5C62.9,73.6,61.9,72.9,61.9,71.8z"/>
</g>
<rect x="83.9" y="53.5" width="0.5" height="14.3"/>
<g>
	<path d="M77.4,69.4c0-1.8,2.5-3.5,4.5-3.5c1.3,0,2.3,0.7,2.3,1.7c0,1.7-2.5,3.5-4.6,3.5C78.4,71.1,77.4,70.5,77.4,69.4z"/>
</g>
<rect x="99.4" y="51.8" width="0.5" height="13.5"/>
<g>
	<path d="M92.9,66.9c0-1.8,2.5-3.5,4.5-3.5c1.3,0,2.3,0.7,2.3,1.7c0,1.7-2.5,3.5-4.6,3.5C93.9,68.6,92.9,68,92.9,66.9z"/>
</g>
<rect x="114.9" y="50.1" width="0.5" height="12.7"/>
<g>
	<path d="M108.4,64.4c0-1.8,2.5-3.5,4.5-3.5c1.3,0,2.3,0.7,2.3,1.7c0,1.7-2.5,3.5-4.6,3.5C109.4,66.1,108.4,65.5,108.4,64.4z"/>
</g>
<rect x="61.9" y="76.7" width="0.5" height="16.4"/>
<g>
	<path d="M61.9,76.8c0-1.8,2.5-3.5,4.5-3.5c1.3,0,2.3,0.7,2.3,1.7c0,1.7-2.5,3.5-4.6,3.5C62.9,78.5,61.9,77.9,61.9,76.8z"/>
</g>
<rect x="77.4" y="74.2" width="0.5" height="17.4"/>
<g>
	<path d="M77.4,74.3c0-1.8,2.5-3.5,4.5-3.5c1.3,0,2.3,0.7,2.3,1.7c0,1.7-2.5,3.5-4.6,3.5C78.4,76.1,77.4,75.4,77.4,74.3z"/>
</g>
<rect x="92.9" y="71.8" width="0.5" height="18.1"/>
<g>
	<path d="M92.9,71.8c0-1.8,2.5-3.5,4.5-3.5c1.3,0,2.3,0.7,2.3,1.7c0,1.7-2.5,3.5-4.6,3.5C93.9,73.6,92.9,72.9,92.9,71.8z"/>
</g>
<rect x="108.4" y="69.3" width="0.5" height="18.9"/>
<g>
	<path d="M108.4,69.4c0-1.8,2.5-3.5,4.5-3.5c1.3,0,2.3,0.7,2.3,1.7c0,1.7-2.5,3.5-4.6,3.5C109.4,71.1,108.4,70.5,108.4,69.4z"/>
</g>
<rect x="123.9" y="66.8" width="0.5" height="16.4"/>
<g>
	<path d="M123.9,66.9c0-1.8,2.5-3.5,4.5-3.5c1.3,0,2.3,0.7,2.3,1.7c0,1.7-2.5,3.5-4.6,3.5C124.9,68.6,123.9,68,123.9,66.9z"/>
</g>
<rect x="139.4" y="64.3" width="0.5" height="17.4"/>
<g>
	<path d="M139.4,64.4c0-1.8,2.5-3.5,4.5-3.5c1.3,0,2.3,0.7,2.3,1.7c0,1.7-2.5,3.5-4.6,3.5C140.4,66.1,139.4,65.5,139.4,64.4z"/>
</g>
<rect x="156.7" y="61.8" width="0.5" height="18.1"/>
<g>
	<path d="M156.8,61.9c0-1.8,2.5-3.5,4.5-3.5c1.3,0,2.3,0.7,2.3,1.7c0,1.7-2.5,3.5-4.6,3.5C157.8,63.7,156.8,63,156.8,61.9z"/>
</g>
<rect x="170.4" y="58.2" width="10.5" height="0.8"/>
<rect x="172.2" y="59.4" width="0.5" height="18.9"/>
<g>
	<path d="M172.3,59.4c0-1.8,2.5-3.5,4.5-3.5c1.3,0,2.3,0.7,2.3,1.7c0,1.7-2.5,3.5-4.6,3.5C173.3,61.2,172.3,60.5,172.3,59.4z"/>
</g>
<rect x="130.4" y="45.1" width="0.5" height="15.2"/>
<g>
	<path d="M123.9,61.9c0-1.8,2.5-3.5,4.5-3.5c1.3,0,2.3,0.7,2.3,1.7c0,1.7-2.5,3.5-4.6,3.5C124.9,63.7,123.9,63,123.9,61.9z"/>
</g>
<rect x="137.6" y="58.2" width="10.5" height="0.8"/>
<rect x="145.9" y="43.6" width="0.5" height="14.3"/>
<g>
	<path d="M139.4,59.4c0-1.8,2.5-3.5,4.5-3.5c1.3,0,2.3,0.7,2.3,1.7c0,1.7-2.5,3.5-4.6,3.5C140.4,61.2,139.4,60.5,139.4,59.4z"/>
</g>
<rect x="154.9" y="58.2" width="10.5" height="0.8"/>
<rect x="163.2" y="41.9" width="0.5" height="13.5"/>
<g>
	<path d="M156.8,57c0-1.8,2.5-3.5,4.5-3.5c1.3,0,2.3,0.7,2.3,1.7c0,1.7-2.5,3.5-4.6,3.5C157.8,58.7,156.8,58.1,156.8,57z"/>
</g>
<rect x="170.4" y="58.2" width="10.5" height="0.8"/>
<rect x="170.4" y="53.2" width="10.5" height="0.8"/>
<rect x="178.7" y="40.1" width="0.5" height="12.7"/>
<g>
	<path d="M172.3,54.5c0-1.8,2.5-3.5,4.5-3.5c1.3,0,2.3,0.7,2.3,1.7c0,1.7-2.5,3.5-4.6,3.5C173.3,56.2,172.3,55.6,172.3,54.5z"/>
</g>
<rect x="372" y="58.2" width="10.5" height="0.8"/>
<rect x="372" y="53.2" width="10.5" height="0.8"/>
<rect x="380.3" y="37.7" width="0.5" height="12.7"/>
<g>
	<path d="M373.8,52c0-1.8,2.5-3.5,4.5-3.5c1.3,0,2.3,0.7,2.3,1.7c0,1.7-2.5,3.5-4.6,3.5C374.8,53.7,373.8,53.1,373.8,52z"/>
</g>
<rect x="387.5" y="58.2" width="10.5" height="0.8"/>
<rect x="387.5" y="53.2" width="10.5" height="0.8"/>
<rect x="395.8" y="39.2" width="0.5" height="13.6"/>
<g>
	<path d="M389.3,54.5c0-1.8,2.5-3.5,4.5-3.5c1.3,0,2.3,0.7,2.3,1.7c0,1.7-2.5,3.5-4.6,3.5C390.3,56.2,389.3,55.6,389.3,54.5z"/>
</g>
<rect x="403" y="58.2" width="10.5" height="0.8"/>
<rect x="411.3" y="40.9" width="0.5" height="14.4"/>
<g>
	<path d="M404.8,57c0-1.8,2.5-3.5,4.5-3.5c1.3,0,2.3,0.7,2.3,1.7c0,1.7-2.5,3.5-4.6,3.5C405.8,58.7,404.8,58.1,404.8,57z"/>
</g>
<rect x="418.5" y="58.2" width="10.5" height="0.8"/>
<rect x="426.8" y="42.6" width="0.5" height="15.2"/>
<g>
	<path d="M420.3,59.4c0-1.8,2.5-3.5,4.5-3.5c1.3,0,2.3,0.7,2.3,1.7c0,1.7-2.5,3.5-4.6,3.5C421.3,61.2,420.3,60.5,420.3,59.4z"/>
</g>
<rect x="372" y="58.2" width="10.5" height="0.8"/>
<rect x="373.8" y="56.9" width="0.5" height="16.4"/>
<g>
	<path d="M373.8,57c0-1.8,2.5-3.5,4.5-3.5c1.3,0,2.3,0.7,2.3,1.7c0,1.7-2.5,3.5-4.6,3.5C374.8,58.7,373.8,58.1,373.8,57z"/>
</g>
<rect x="387.5" y="58.2" width="10.5" height="0.8"/>
<rect x="389.3" y="59.4" width="0.5" height="15.5"/>
<g>
	<path d="M389.3,59.4c0-1.8,2.5-3.5,4.5-3.5c1.3,0,2.3,0.7,2.3,1.7c0,1.7-2.5,3.5-4.6,3.5C390.3,61.2,389.3,60.5,389.3,59.4z"/>
</g>
<rect x="404.8" y="61.8" width="0.5" height="14.7"/>
<g>
	<path d="M404.8,61.9c0-1.8,2.5-3.5,4.5-3.5c1.3,0,2.3,0.7,2.3,1.7c0,1.7-2.5,3.5-4.6,3.5C405.8,63.7,404.8,63,404.8,61.9z"/>
</g>
<rect x="420.3" y="64.3" width="0.5" height="14"/>
<g>
	<path d="M420.3,64.4c0-1.8,2.5-3.5,4.5-3.5c1.3,0,2.3,0.7,2.3,1.7c0,1.7-2.5,3.5-4.6,3.5C421.3,66.1,420.3,65.5,420.3,64.4z"/>
</g>
<rect x="442.3" y="47.6" width="0.5" height="12.7"/>
<g>
	<path d="M435.8,61.9c0-1.8,2.5-3.5,4.5-3.5c1.3,0,2.3,0.7,2.3,1.7c0,1.7-2.5,3.5-4.6,3.5C436.8,63.7,435.8,63,435.8,61.9z"/>
</g>
<rect x="457.8" y="49.1" width="0.5" height="13.6"/>
<g>
	<path d="M451.3,64.4c0-1.8,2.5-3.5,4.5-3.5c1.3,0,2.3,0.7,2.3,1.7c0,1.7-2.5,3.5-4.6,3.5C452.3,66.1,451.3,65.5,451.3,64.4z"/>
</g>
<rect x="473.3" y="50.8" width="0.5" height="14.4"/>
<g>
	<path d="M466.8,66.9c0-1.8,2.5-3.5,4.5-3.5c1.3,0,2.3,0.7,2.3,1.7c0,1.7-2.5,3.5-4.6,3.5C467.8,68.6,466.8,68,466.8,66.9z"/>
</g>
<rect x="488.8" y="52.5" width="0.5" height="15.2"/>
<g>
	<path d="M482.3,69.4c0-1.8,2.5-3.5,4.5-3.5c1.3,0,2.3,0.7,2.3,1.7c0,1.7-2.5,3.5-4.6,3.5C483.3,71.1,482.3,70.5,482.3,69.4z"/>
</g>
<rect x="504.4" y="54.9" width="0.5" height="15.3"/>
<g>
	<path d="M502.1,68.3c1.6,0,2.7,0.7,2.7,2c0,1.9-2.3,3.4-4.5,3.4c-1.3,0-2.4-0.7-2.4-1.8C497.8,70.1,500.1,68.3,502.1,68.3z
		 M498.3,72.1c0,0.6,0.4,0.9,1.1,0.9c1.4,0,4.9-2.1,4.9-3.3c0-0.6-0.4-0.9-1.1-0.9C502,68.9,498.3,70.9,498.3,72.1z"/>
</g>
<rect x="435.8" y="66.8" width="0.5" height="16.4"/>
<g>
	<path d="M435.8,66.9c0-1.8,2.5-3.5,4.5-3.5c1.3,0,2.3,0.7,2.3,1.7c0,1.7-2.5,3.5-4.6,3.5C436.8,68.6,435.8,68,435.8,66.9z"/>
</g>
<rect x="451.3" y="69.3" width="0.5" height="15.5"/>
<g>
	<path d="M451.3,69.4c0-1.8,2.5-3.5,4.5-3.5c1.3,0,2.3,0.7,2.3,1.7c0,1.7-2.5,3.5-4.6,3.5C452.3,71.1,451.3,70.5,451.3,69.4z"/>
</g>
<rect x="466.8" y="71.8" width="0.5" height="14.7"/>
<g>
	<path d="M466.8,71.8c0-1.8,2.5-3.5,4.5-3.5c1.3,0,2.3,0.7,2.3,1.7c0,1.7-2.5,3.5-4.6,3.5C467.8,73.6,466.8,72.9,466.8,71.8z"/>
</g>
<rect x="482.3" y="74.2" width="0.5" height="14"/>
<g>
	<path d="M482.3,74.3c0-1.8,2.5-3.5,4.5-3.5c1.3,0,2.3,0.7,2.3,1.7c0,1.7-2.5,3.5-4.6,3.5C483.3,76.1,482.3,75.4,482.3,74.3z"/>
</g>
<rect x="497.8" y="76.7" width="0.5" height="15.3"/>
<g>
	<path d="M502.1,73.3c1.6,0,2.7,0.7,2.7,2c0,1.9-2.3,3.4-4.5,3.4c-1.3,0-2.4-0.7-2.4-1.8C497.8,75,500.1,73.3,502.1,73.3z
		 M498.3,77.1c0,0.6,0.4,0.9,1.1,0.9c1.4,0,4.9-2.1,4.9-3.3c0-0.6-0.4-0.9-1.1-0.9C502,73.9,498.3,75.9,498.3,77.1z"/>
</g>
</svg>
