<?xml version="1.0" encoding="utf-8"?>

<!--
	ScaleBook
	Copyright (c) Leland Jansen 2015. All rights reserved.
-->

<!DOCTYPE svg PUBLIC "-//W3C//DTD SVG 1.1//EN" "http://www.w3.org/Graphics/SVG/1.1/DTD/svg11.dtd">
<svg version="1.1" id="Layer_1" xmlns="http://www.w3.org/2000/svg" xmlns:xlink="http://www.w3.org/1999/xlink" x="0px" y="0px"
	 viewBox="0 0 553 93" enable-background="new 0 0 553 93" xml:space="preserve">
<rect x="8.5" y="12.2" width="0.8" height="71"/>
<g>
	<path d="M7.6,13c-2,1.1-3.7,6.1-3.7,10c0,2.4,1.4,10.5,1.4,13c0,5.3-1.6,9.2-4.7,11.8c3.1,2.6,4.7,6.5,4.7,11.7
		c0,2.4-1.4,10.5-1.4,13c0,4,1.8,8.9,3.7,10.1v0.7C4,80.8,1.7,74.5,1.7,69.4c0-2.3,1.8-9.9,1.8-12.2c0-4-1-7-3-8.7
		C0.1,48.2,0,48,0,47.7s0.1-0.4,0.5-0.7c2-1.8,3-4.5,3-8c0-2.3-1.8-10.6-1.8-12.9c0-5.5,2.1-11,5.9-13.8V13z"/>
</g>
<rect x="548" y="12.2" width="0.8" height="71"/>
<rect x="550.5" y="12.2" width="2.5" height="71"/>
<rect x="8.6" y="31.9" width="544.4" height="0.5"/>
<rect x="8.6" y="26.9" width="544.4" height="0.5"/>
<rect x="8.6" y="21.9" width="544.4" height="0.5"/>
<rect x="8.6" y="17" width="544.4" height="0.5"/>
<rect x="8.6" y="12" width="544.4" height="0.5"/>
<g>
	<path d="M20.4,31.9c-4.2,0-8.1-3.1-8.1-6.9c0-3.2,2.3-6.7,6.8-10.5c-0.3-1.2-0.4-2.4-0.4-3.6c0-3.5,1.2-6.8,3.2-8.5
		c1.8,2.5,2.7,4.9,2.7,7.1c0,2.9-1.3,5.6-4.3,8.1l0.9,4.2c0.5,0,0.8-0.1,0.8-0.1c2.6,0,4.8,2,4.8,4.7c0,1.9-1.4,3.7-3.6,4.8
		c0-0.1,0.9,3.8,0.9,4.3c0,2.5-2.3,4.2-4.9,4.2c-2,0-3.6-1.3-3.6-3.4c0-1.4,1-2.6,2.4-2.6c1.3,0,2.3,1.3,2.3,2.5
		c0,1.4-1.2,2.3-2.7,2.5c0.6,0.3,1.2,0.5,1.9,0.5c2.1,0,4.1-1.6,4.1-3.6c0-0.2,0-0.4-0.1-0.6l-0.8-3.7
		C22.1,31.8,21.4,31.9,20.4,31.9z M18.2,26.7c0,1,0.5,1.9,1.6,2.5c-1.8-0.3-3-1.4-3-3.1c0-2,1.7-3.7,3.8-4.1l-0.8-4
		c-3.7,2.8-5.7,5.5-5.7,8.1c0,2.9,2.8,5.3,6,5.3c0.9,0,1.7-0.2,2.4-0.5l-1.4-6.8C19.5,24.3,18.2,25.3,18.2,26.7z M22.3,5.4
		c-1.6,0-2.9,3.7-2.9,7c0,0.7,0,1.3,0.2,1.9c2.7-2.4,4-4.5,4-6.5c0-0.9-0.3-1.7-1-2.4C22.5,5.4,22.4,5.4,22.3,5.4z M25,27.2
		c0-1.6-1.2-3.3-2.9-3.3c-0.1,0-0.2,0-0.5,0l1.4,6.6C24.4,29.7,25,28.6,25,27.2z"/>
</g>
<g>
	<path d="M29.7,13.9h0.6l-0.1,6.2c0.4-0.7,1-1,1.8-1c1.2,0,2.2,0.8,2.2,1.9c0,0.8-0.5,1.8-1.7,2.7l-2.8,2.1V13.9z M30.3,20.8
		c-0.1,0.8-0.1,1.4-0.1,1.9c0,1,0,1.6,0.1,2c1-0.7,2.4-2.6,2.4-3.7c0-0.6-0.5-1.1-1.1-1.1C31,19.9,30.6,20.2,30.3,20.8z"/>
</g>
<g>
	<path d="M35.3,6.4h0.6l-0.1,6.2c0.4-0.7,1-1,1.8-1c1.2,0,2.2,0.8,2.2,1.9c0,0.8-0.5,1.8-1.7,2.7l-2.8,2.1V6.4z M35.9,13.3
		c-0.1,0.8-0.1,1.4-0.1,1.9c0,1,0,1.6,0.1,2c1-0.7,2.4-2.6,2.4-3.7c0-0.6-0.5-1.1-1.1-1.1C36.6,12.5,36.1,12.8,35.9,13.3z"/>
</g>
<g>
	<path d="M40.9,16.3h0.6l-0.1,6.2c0.4-0.7,1-1,1.8-1c1.2,0,2.2,0.8,2.2,1.9c0,0.8-0.5,1.8-1.7,2.7l-2.8,2.1V16.3z M41.4,23.2
		c-0.1,0.8-0.1,1.4-0.1,1.9c0,1,0,1.6,0.1,2c1-0.7,2.4-2.6,2.4-3.7c0-0.6-0.5-1.1-1.1-1.1C42.1,22.4,41.7,22.7,41.4,23.2z"/>
</g>
<g>
	<path d="M226,28.9v-4l-3,1.1V15.4h0.5v4l3-1.1v10.7H226z M223.5,24.3l2.5-0.9V20l-2.5,0.9V24.3z"/>
</g>
<polygon fill-rule="evenodd" clip-rule="evenodd" points="187.2,18.4 234.6,13.5 234.6,11 187.2,16 "/>
<polygon fill-rule="evenodd" clip-rule="evenodd" points="187.2,14.7 234.6,9.8 234.6,7.3 187.2,12.2 "/>
<polygon fill-rule="evenodd" clip-rule="evenodd" points="180.7,44.5 228.1,39.5 228.1,37 180.7,42 "/>
<polygon fill-rule="evenodd" clip-rule="evenodd" points="180.7,48.2 228.1,43.2 228.1,40.8 180.7,45.7 "/>
<g>
	<path d="M257.8,28.9v-4l-3,1.1V15.4h0.5v4l3-1.1v10.7H257.8z M255.3,24.3l2.5-0.9V20l-2.5,0.9V24.3z"/>
</g>
<rect x="250.6" y="3.6" fill-rule="evenodd" clip-rule="evenodd" width="47.4" height="2.5"/>
<rect x="250.6" y="-0.2" fill-rule="evenodd" clip-rule="evenodd" width="47.4" height="2.5"/>
<polygon fill-rule="evenodd" clip-rule="evenodd" points="244.1,37 291.5,35.8 291.5,33.3 244.1,34.6 "/>
<polygon fill-rule="evenodd" clip-rule="evenodd" points="244.1,40.8 291.5,39.5 291.5,37 244.1,38.3 "/>
<polygon fill-rule="evenodd" clip-rule="evenodd" points="307.3,37 354.8,42 354.8,39.5 307.3,34.6 "/>
<polygon fill-rule="evenodd" clip-rule="evenodd" points="307.3,40.8 354.8,45.7 354.8,43.2 307.3,38.3 "/>
<polygon fill-rule="evenodd" clip-rule="evenodd" points="313.8,8.5 361.3,13.5 361.3,11 313.8,6 "/>
<polygon fill-rule="evenodd" clip-rule="evenodd" points="313.8,4.8 361.3,9.8 361.3,7.3 313.8,2.3 "/>
<rect x="8.6" y="83" width="544.4" height="0.5"/>
<rect x="8.6" y="78" width="544.4" height="0.5"/>
<rect x="8.6" y="73.1" width="544.4" height="0.5"/>
<rect x="8.6" y="68.1" width="544.4" height="0.5"/>
<rect x="8.6" y="63.2" width="544.4" height="0.5"/>
<g>
	<path d="M15.9,77.6c2.9-2.6,4.7-6.1,4.7-9.2c0-2.5-1.4-4.4-3.7-4.4c-1.6,0-3.4,1.3-3.4,2.7c0,0.2,0,0.3,0.1,0.3
		c-0.1,0,0.6-0.6,1.4-0.6c0.9,0,1.5,0.8,1.5,1.7c0,1.2-0.9,2.2-2.1,2.2c-1.2,0-2.1-1.3-2.1-2.8c0-2.3,2.3-4.1,4.8-4.1
		c4.7,0,5.9,3.2,5.9,5.8c0,1.6-0.4,2.9-2,5.3c-1.9,3.1-6.4,5.3-8.1,5.3c-0.4,0-0.6-0.2-0.6-0.5C14,78.9,15.1,78.3,15.9,77.6z
		 M25.8,64.9c0.6,0,1,0.4,1,1c0,0.6-0.4,1-1,1s-1-0.4-1-1C24.8,65.3,25.3,64.9,25.8,64.9z M25.8,69.8c0.6,0,1,0.4,1,1
		c0,0.6-0.4,1-1,1s-1-0.4-1-1C24.8,70.3,25.3,69.8,25.8,69.8z"/>
</g>
<g>
	<path d="M29.7,70h0.6l-0.1,6.2c0.4-0.7,1-1,1.8-1c1.2,0,2.2,0.8,2.2,1.9c0,0.8-0.5,1.8-1.7,2.7l-2.8,2.1V70z M30.3,76.9
		c-0.1,0.8-0.1,1.4-0.1,1.9c0,1,0,1.6,0.1,2c1-0.7,2.4-2.6,2.4-3.7c0-0.6-0.5-1.1-1.1-1.1C31,76,30.6,76.3,30.3,76.9z"/>
</g>
<g>
	<path d="M35.3,62.5h0.6l-0.1,6.2c0.4-0.7,1-1,1.8-1c1.2,0,2.2,0.8,2.2,1.9c0,0.8-0.5,1.8-1.7,2.7l-2.8,2.1V62.5z M35.9,69.4
		c-0.1,0.8-0.1,1.4-0.1,1.9c0,1,0,1.6,0.1,2c1-0.7,2.4-2.6,2.4-3.7c0-0.6-0.5-1.1-1.1-1.1C36.6,68.6,36.1,68.9,35.9,69.4z"/>
</g>
<g>
	<path d="M40.9,72.4h0.6l-0.1,6.2c0.4-0.7,1-1,1.8-1c1.2,0,2.2,0.8,2.2,1.9c0,0.8-0.5,1.8-1.7,2.7l-2.8,2.1V72.4z M41.4,79.4
		c-0.1,0.8-0.1,1.4-0.1,1.9c0,1,0,1.6,0.1,2c1-0.7,2.4-2.6,2.4-3.7c0-0.6-0.5-1.1-1.1-1.1C42.1,78.5,41.7,78.8,41.4,79.4z"/>
</g>
<g>
	<path d="M115.2,67.7v-4l-3,1.1V54.1h0.5v4l3-1.1v10.7H115.2z M112.7,63l2.5-0.9v-3.3l-2.5,0.9V63z"/>
</g>
<polygon fill-rule="evenodd" clip-rule="evenodd" points="60.5,60.9 108,56 108,53.5 60.5,58.4 "/>
<polygon fill-rule="evenodd" clip-rule="evenodd" points="60.5,57.2 108,52.2 108,49.8 60.5,54.7 "/>
<polygon fill-rule="evenodd" clip-rule="evenodd" points="54,89.4 101.5,84.5 101.5,82 54,87 "/>
<polygon fill-rule="evenodd" clip-rule="evenodd" points="54,93.2 101.5,88.2 101.5,85.7 54,90.7 "/>
<g>
	<path d="M145.7,67.7v-4l-3,1.1V54.1h0.5v4l3-1.1v10.7H145.7z M143.2,63l2.5-0.9v-3.3l-2.5,0.9V63z"/>
</g>
<polygon fill-rule="evenodd" clip-rule="evenodd" points="117.3,79.5 164.9,74.6 164.9,72.1 117.3,77 "/>
<polygon fill-rule="evenodd" clip-rule="evenodd" points="117.3,83.2 164.9,78.3 164.9,75.8 117.3,80.8 "/>
<polygon fill-rule="evenodd" clip-rule="evenodd" points="123.8,51 171.4,46 171.4,43.6 123.8,48.5 "/>
<polygon fill-rule="evenodd" clip-rule="evenodd" points="123.8,47.3 171.4,42.3 171.4,39.8 123.8,44.8 "/>
<polygon fill-rule="evenodd" clip-rule="evenodd" points="377.1,43.6 424.5,48.5 424.5,46 377.1,41.1 "/>
<polygon fill-rule="evenodd" clip-rule="evenodd" points="377.1,39.8 424.5,44.8 424.5,42.3 377.1,37.4 "/>
<polygon fill-rule="evenodd" clip-rule="evenodd" points="370.6,69.6 418,74.6 418,72.1 370.6,67.1 "/>
<polygon fill-rule="evenodd" clip-rule="evenodd" points="370.6,73.3 418,78.3 418,75.8 370.6,70.8 "/>
<polygon fill-rule="evenodd" clip-rule="evenodd" points="440.3,53.5 487.8,58.4 487.8,56 440.3,51 "/>
<polygon fill-rule="evenodd" clip-rule="evenodd" points="440.3,49.8 487.8,54.7 487.8,52.2 440.3,47.3 "/>
<polygon fill-rule="evenodd" clip-rule="evenodd" points="433.8,79.5 481.3,84.5 481.3,82 433.8,77 "/>
<polygon fill-rule="evenodd" clip-rule="evenodd" points="433.8,83.2 481.3,88.2 481.3,85.7 433.8,80.8 "/>
<rect x="187" y="12.4" width="0.5" height="16.4"/>
<g>
	<path d="M180.5,30.5c0-1.8,2.5-3.5,4.5-3.5c1.3,0,2.3,0.7,2.3,1.7c0,1.7-2.5,3.5-4.6,3.5C181.5,32.2,180.5,31.6,180.5,30.5z"/>
</g>
<rect x="202.8" y="10.9" width="0.5" height="15.5"/>
<g>
	<path d="M196.3,28c0-1.8,2.5-3.5,4.5-3.5c1.3,0,2.3,0.7,2.3,1.7c0,1.7-2.5,3.5-4.6,3.5C197.3,29.7,196.3,29.1,196.3,28z"/>
</g>
<rect x="218.6" y="9.1" width="0.5" height="14.7"/>
<g>
	<path d="M212.1,25.5c0-1.8,2.5-3.5,4.5-3.5c1.3,0,2.3,0.7,2.3,1.7c0,1.7-2.5,3.5-4.6,3.5C213.1,27.2,212.1,26.6,212.1,25.5z"/>
</g>
<rect x="234.4" y="7.4" width="0.5" height="14"/>
<g>
	<path d="M228,23c0-1.8,2.5-3.5,4.5-3.5c1.3,0,2.3,0.7,2.3,1.7c0,1.7-2.5,3.5-4.6,3.5C228.9,24.7,228,24.1,228,23z"/>
</g>
<rect x="180.4" y="35.3" width="0.5" height="12.7"/>
<g>
	<path d="M180.5,35.4c0-1.8,2.5-3.5,4.5-3.5c1.3,0,2.3,0.7,2.3,1.7c0,1.7-2.5,3.5-4.6,3.5C181.5,37.1,180.5,36.5,180.5,35.4z"/>
</g>
<rect x="196.3" y="32.9" width="0.5" height="13.6"/>
<g>
	<path d="M196.3,32.9c0-1.8,2.5-3.5,4.5-3.5c1.3,0,2.3,0.7,2.3,1.7c0,1.7-2.5,3.5-4.6,3.5C197.3,34.7,196.3,34,196.3,32.9z"/>
</g>
<rect x="212.1" y="30.4" width="0.5" height="14.4"/>
<g>
	<path d="M212.1,30.5c0-1.8,2.5-3.5,4.5-3.5c1.3,0,2.3,0.7,2.3,1.7c0,1.7-2.5,3.5-4.6,3.5C213.1,32.2,212.1,31.6,212.1,30.5z"/>
</g>
<rect x="227.9" y="27.9" width="0.5" height="15.2"/>
<g>
	<path d="M228,28c0-1.8,2.5-3.5,4.5-3.5c1.3,0,2.3,0.7,2.3,1.7c0,1.7-2.5,3.5-4.6,3.5C228.9,29.7,228,29.1,228,28z"/>
</g>
<rect x="250.4" width="0.5" height="18.9"/>
<g>
	<path d="M243.9,20.5c0-1.8,2.5-3.5,4.5-3.5c1.3,0,2.3,0.7,2.3,1.7c0,1.7-2.5,3.5-4.6,3.5C244.9,22.3,243.9,21.6,243.9,20.5z"/>
</g>
<rect x="266.2" width="0.5" height="16.4"/>
<g>
	<path d="M259.7,18.1c0-1.8,2.5-3.5,4.5-3.5c1.3,0,2.3,0.7,2.3,1.7c0,1.7-2.5,3.5-4.6,3.5C260.7,19.8,259.7,19.1,259.7,18.1z"/>
</g>
<rect x="282" width="0.5" height="14"/>
<g>
	<path d="M275.5,15.6c0-1.8,2.5-3.5,4.5-3.5c1.3,0,2.3,0.7,2.3,1.7c0,1.7-2.5,3.5-4.6,3.5C276.5,17.3,275.5,16.7,275.5,15.6z"/>
</g>
<rect x="297.8" width="0.5" height="16.4"/>
<g>
	<path d="M291.4,18.1c0-1.8,2.5-3.5,4.5-3.5c1.3,0,2.3,0.7,2.3,1.7c0,1.7-2.5,3.5-4.6,3.5C292.3,19.8,291.4,19.1,291.4,18.1z"/>
</g>
<rect x="243.8" y="25.4" width="0.5" height="15.2"/>
<g>
	<path d="M243.9,25.5c0-1.8,2.5-3.5,4.5-3.5c1.3,0,2.3,0.7,2.3,1.7c0,1.7-2.5,3.5-4.6,3.5C244.9,27.2,243.9,26.6,243.9,25.5z"/>
</g>
<rect x="259.7" y="22.9" width="0.5" height="17.4"/>
<g>
	<path d="M259.7,23c0-1.8,2.5-3.5,4.5-3.5c1.3,0,2.3,0.7,2.3,1.7c0,1.7-2.5,3.5-4.6,3.5C260.7,24.7,259.7,24.1,259.7,23z"/>
</g>
<rect x="275.5" y="20.5" width="0.5" height="19.4"/>
<g>
	<path d="M275.5,20.5c0-1.8,2.5-3.5,4.5-3.5c1.3,0,2.3,0.7,2.3,1.7c0,1.7-2.5,3.5-4.6,3.5C276.5,22.3,275.5,21.6,275.5,20.5z"/>
</g>
<rect x="291.3" y="22.9" width="0.5" height="16.4"/>
<g>
	<path d="M291.4,23c0-1.8,2.5-3.5,4.5-3.5c1.3,0,2.3,0.7,2.3,1.7c0,1.7-2.5,3.5-4.6,3.5C292.3,24.7,291.4,24.1,291.4,23z"/>
</g>
<rect x="307.1" y="25.4" width="0.5" height="15.2"/>
<g>
	<path d="M307.2,25.5c0-1.8,2.5-3.5,4.5-3.5c1.3,0,2.3,0.7,2.3,1.7c0,1.7-2.5,3.5-4.6,3.5C308.1,27.2,307.2,26.6,307.2,25.5z"/>
</g>
<rect x="322.9" y="27.9" width="0.5" height="14.3"/>
<g>
	<path d="M323,28c0-1.8,2.5-3.5,4.5-3.5c1.3,0,2.3,0.7,2.3,1.7c0,1.7-2.5,3.5-4.6,3.5C324,29.7,323,29.1,323,28z"/>
</g>
<rect x="338.7" y="30.4" width="0.5" height="13.5"/>
<g>
	<path d="M338.8,30.5c0-1.8,2.5-3.5,4.5-3.5c1.3,0,2.3,0.7,2.3,1.7c0,1.7-2.5,3.5-4.6,3.5C339.8,32.2,338.8,31.6,338.8,30.5z"/>
</g>
<rect x="354.5" y="32.9" width="0.5" height="12.7"/>
<g>
	<path d="M354.6,32.9c0-1.8,2.5-3.5,4.5-3.5c1.3,0,2.3,0.7,2.3,1.7c0,1.7-2.5,3.5-4.6,3.5C355.6,34.7,354.6,34,354.6,32.9z"/>
</g>
<rect x="313.6" y="2.5" width="0.5" height="16.4"/>
<g>
	<path d="M307.2,20.5c0-1.8,2.5-3.5,4.5-3.5c1.3,0,2.3,0.7,2.3,1.7c0,1.7-2.5,3.5-4.6,3.5C308.1,22.3,307.2,21.6,307.2,20.5z"/>
</g>
<rect x="329.4" y="4" width="0.5" height="17.4"/>
<g>
	<path d="M323,23c0-1.8,2.5-3.5,4.5-3.5c1.3,0,2.3,0.7,2.3,1.7c0,1.7-2.5,3.5-4.6,3.5C324,24.7,323,24.1,323,23z"/>
</g>
<rect x="345.2" y="5.7" width="0.5" height="18.1"/>
<g>
	<path d="M338.8,25.5c0-1.8,2.5-3.5,4.5-3.5c1.3,0,2.3,0.7,2.3,1.7c0,1.7-2.5,3.5-4.6,3.5C339.8,27.2,338.8,26.6,338.8,25.5z"/>
</g>
<rect x="361" y="7.4" width="0.5" height="18.9"/>
<g>
	<path d="M354.6,28c0-1.8,2.5-3.5,4.5-3.5c1.3,0,2.3,0.7,2.3,1.7c0,1.7-2.5,3.5-4.6,3.5C355.6,29.7,354.6,29.1,354.6,28z"/>
</g>
<rect x="60.3" y="54.9" width="0.5" height="15.2"/>
<g>
	<path d="M53.9,71.7c0-1.8,2.5-3.5,4.5-3.5c1.3,0,2.3,0.7,2.3,1.7c0,1.7-2.5,3.5-4.6,3.5C54.9,73.4,53.9,72.8,53.9,71.7z"/>
</g>
<rect x="76.1" y="53.3" width="0.5" height="14.3"/>
<g>
	<path d="M69.7,69.2c0-1.8,2.5-3.5,4.5-3.5c1.3,0,2.3,0.7,2.3,1.7c0,1.7-2.5,3.5-4.6,3.5C70.7,70.9,69.7,70.3,69.7,69.2z"/>
</g>
<rect x="91.9" y="51.6" width="0.5" height="13.5"/>
<g>
	<path d="M85.5,66.7c0-1.8,2.5-3.5,4.5-3.5c1.3,0,2.3,0.7,2.3,1.7c0,1.7-2.5,3.5-4.6,3.5C86.5,68.5,85.5,67.8,85.5,66.7z"/>
</g>
<rect x="107.7" y="49.9" width="0.5" height="12.7"/>
<g>
	<path d="M101.3,64.3c0-1.8,2.5-3.5,4.5-3.5c1.3,0,2.3,0.7,2.3,1.7c0,1.7-2.5,3.5-4.6,3.5C102.3,66,101.3,65.3,101.3,64.3z"/>
</g>
<rect x="53.8" y="76.6" width="0.5" height="16.4"/>
<g>
	<path d="M53.9,76.7c0-1.8,2.5-3.5,4.5-3.5c1.3,0,2.3,0.7,2.3,1.7c0,1.7-2.5,3.5-4.6,3.5C54.9,78.4,53.9,77.7,53.9,76.7z"/>
</g>
<rect x="69.6" y="74.1" width="0.5" height="17.4"/>
<g>
	<path d="M69.7,74.2c0-1.8,2.5-3.5,4.5-3.5c1.3,0,2.3,0.7,2.3,1.7c0,1.7-2.5,3.5-4.6,3.5C70.7,75.9,69.7,75.3,69.7,74.2z"/>
</g>
<rect x="85.4" y="71.6" width="0.5" height="18.1"/>
<g>
	<path d="M85.5,71.7c0-1.8,2.5-3.5,4.5-3.5c1.3,0,2.3,0.7,2.3,1.7c0,1.7-2.5,3.5-4.6,3.5C86.5,73.4,85.5,72.8,85.5,71.7z"/>
</g>
<rect x="101.2" y="69.1" width="0.5" height="18.9"/>
<g>
	<path d="M101.3,69.2c0-1.8,2.5-3.5,4.5-3.5c1.3,0,2.3,0.7,2.3,1.7c0,1.7-2.5,3.5-4.6,3.5C102.3,70.9,101.3,70.3,101.3,69.2z"/>
</g>
<rect x="117" y="66.7" width="0.5" height="16.4"/>
<g>
	<path d="M117.1,66.7c0-1.8,2.5-3.5,4.5-3.5c1.3,0,2.3,0.7,2.3,1.7c0,1.7-2.5,3.5-4.6,3.5C118.1,68.5,117.1,67.8,117.1,66.7z"/>
</g>
<rect x="132.9" y="64.2" width="0.5" height="17.4"/>
<g>
	<path d="M132.9,64.3c0-1.8,2.5-3.5,4.5-3.5c1.3,0,2.3,0.7,2.3,1.7c0,1.7-2.5,3.5-4.6,3.5C133.9,66,132.9,65.3,132.9,64.3z"/>
</g>
<rect x="148.8" y="61.7" width="0.5" height="18.1"/>
<g>
	<path d="M148.9,61.8c0-1.8,2.5-3.5,4.5-3.5c1.3,0,2.3,0.7,2.3,1.7c0,1.7-2.5,3.5-4.6,3.5C149.9,63.5,148.9,62.9,148.9,61.8z"/>
</g>
<rect x="162.9" y="58.1" width="10.5" height="0.8"/>
<rect x="164.6" y="59.2" width="0.5" height="18.9"/>
<g>
	<path d="M164.7,59.3c0-1.8,2.5-3.5,4.5-3.5c1.3,0,2.3,0.7,2.3,1.7c0,1.7-2.5,3.5-4.6,3.5C165.7,61,164.7,60.4,164.7,59.3z"/>
</g>
<rect x="123.6" y="45" width="0.5" height="15.2"/>
<g>
	<path d="M117.1,61.8c0-1.8,2.5-3.5,4.5-3.5c1.3,0,2.3,0.7,2.3,1.7c0,1.7-2.5,3.5-4.6,3.5C118.1,63.5,117.1,62.9,117.1,61.8z"/>
</g>
<rect x="131.1" y="58.1" width="10.5" height="0.8"/>
<rect x="139.4" y="43.4" width="0.5" height="14.3"/>
<g>
	<path d="M132.9,59.3c0-1.8,2.5-3.5,4.5-3.5c1.3,0,2.3,0.7,2.3,1.7c0,1.7-2.5,3.5-4.6,3.5C133.9,61,132.9,60.4,132.9,59.3z"/>
</g>
<rect x="147" y="58.1" width="10.5" height="0.8"/>
<rect x="155.3" y="41.7" width="0.5" height="13.5"/>
<g>
	<path d="M148.9,56.8c0-1.8,2.5-3.5,4.5-3.5c1.3,0,2.3,0.7,2.3,1.7c0,1.7-2.5,3.5-4.6,3.5C149.9,58.5,148.9,57.9,148.9,56.8z"/>
</g>
<rect x="162.9" y="58.1" width="10.5" height="0.8"/>
<rect x="162.9" y="53.1" width="10.5" height="0.8"/>
<rect x="171.1" y="40" width="0.5" height="12.7"/>
<g>
	<path d="M164.7,54.3c0-1.8,2.5-3.5,4.5-3.5c1.3,0,2.3,0.7,2.3,1.7c0,1.7-2.5,3.5-4.6,3.5C165.7,56.1,164.7,55.4,164.7,54.3z"/>
</g>
<rect x="368.6" y="58.1" width="10.5" height="0.8"/>
<rect x="368.6" y="53.1" width="10.5" height="0.8"/>
<rect x="376.9" y="37.5" width="0.5" height="12.7"/>
<g>
	<path d="M370.4,51.9c0-1.8,2.5-3.5,4.5-3.5c1.3,0,2.3,0.7,2.3,1.7c0,1.7-2.5,3.5-4.6,3.5C371.4,53.6,370.4,52.9,370.4,51.9z"/>
</g>
<rect x="384.4" y="58.1" width="10.5" height="0.8"/>
<rect x="384.4" y="53.1" width="10.5" height="0.8"/>
<rect x="392.7" y="39.1" width="0.5" height="13.6"/>
<g>
	<path d="M386.2,54.3c0-1.8,2.5-3.5,4.5-3.5c1.3,0,2.3,0.7,2.3,1.7c0,1.7-2.5,3.5-4.6,3.5C387.2,56.1,386.2,55.4,386.2,54.3z"/>
</g>
<rect x="400.2" y="58.1" width="10.5" height="0.8"/>
<rect x="408.5" y="40.8" width="0.5" height="14.4"/>
<g>
	<path d="M402,56.8c0-1.8,2.5-3.5,4.5-3.5c1.3,0,2.3,0.7,2.3,1.7c0,1.7-2.5,3.5-4.6,3.5C403,58.5,402,57.9,402,56.8z"/>
</g>
<rect x="416" y="58.1" width="10.5" height="0.8"/>
<rect x="424.3" y="42.5" width="0.5" height="15.2"/>
<g>
	<path d="M417.9,59.3c0-1.8,2.5-3.5,4.5-3.5c1.3,0,2.3,0.7,2.3,1.7c0,1.7-2.5,3.5-4.6,3.5C418.8,61,417.9,60.4,417.9,59.3z"/>
</g>
<rect x="368.6" y="58.1" width="10.5" height="0.8"/>
<rect x="370.3" y="56.7" width="0.5" height="16.4"/>
<g>
	<path d="M370.4,56.8c0-1.8,2.5-3.5,4.5-3.5c1.3,0,2.3,0.7,2.3,1.7c0,1.7-2.5,3.5-4.6,3.5C371.4,58.5,370.4,57.9,370.4,56.8z"/>
</g>
<rect x="384.4" y="58.1" width="10.5" height="0.8"/>
<rect x="386.2" y="59.2" width="0.5" height="15.5"/>
<g>
	<path d="M386.2,59.3c0-1.8,2.5-3.5,4.5-3.5c1.3,0,2.3,0.7,2.3,1.7c0,1.7-2.5,3.5-4.6,3.5C387.2,61,386.2,60.4,386.2,59.3z"/>
</g>
<rect x="402" y="61.7" width="0.5" height="14.7"/>
<g>
	<path d="M402,61.8c0-1.8,2.5-3.5,4.5-3.5c1.3,0,2.3,0.7,2.3,1.7c0,1.7-2.5,3.5-4.6,3.5C403,63.5,402,62.9,402,61.8z"/>
</g>
<rect x="417.8" y="64.2" width="0.5" height="14"/>
<g>
	<path d="M417.9,64.3c0-1.8,2.5-3.5,4.5-3.5c1.3,0,2.3,0.7,2.3,1.7c0,1.7-2.5,3.5-4.6,3.5C418.8,66,417.9,65.3,417.9,64.3z"/>
</g>
<rect x="440.1" y="47.4" width="0.5" height="12.7"/>
<g>
	<path d="M433.7,61.8c0-1.8,2.5-3.5,4.5-3.5c1.3,0,2.3,0.7,2.3,1.7c0,1.7-2.5,3.5-4.6,3.5C434.6,63.5,433.7,62.9,433.7,61.8z"/>
</g>
<rect x="455.9" y="49" width="0.5" height="13.6"/>
<g>
	<path d="M449.5,64.3c0-1.8,2.5-3.5,4.5-3.5c1.3,0,2.3,0.7,2.3,1.7c0,1.7-2.5,3.5-4.6,3.5C450.4,66,449.5,65.3,449.5,64.3z"/>
</g>
<rect x="471.7" y="50.7" width="0.5" height="14.4"/>
<g>
	<path d="M465.3,66.7c0-1.8,2.5-3.5,4.5-3.5c1.3,0,2.3,0.7,2.3,1.7c0,1.7-2.5,3.5-4.6,3.5C466.3,68.5,465.3,67.8,465.3,66.7z"/>
</g>
<rect x="487.5" y="52.4" width="0.5" height="15.2"/>
<g>
	<path d="M481.1,69.2c0-1.8,2.5-3.5,4.5-3.5c1.3,0,2.3,0.7,2.3,1.7c0,1.7-2.5,3.5-4.6,3.5C482.1,70.9,481.1,70.3,481.1,69.2z"/>
</g>
<rect x="503.5" y="54.7" width="0.5" height="15.3"/>
<g>
	<path d="M501.2,68.1c1.6,0,2.7,0.7,2.7,2c0,1.9-2.3,3.4-4.5,3.4c-1.3,0-2.4-0.7-2.4-1.8C496.9,69.9,499.2,68.1,501.2,68.1z
		 M497.4,72c0,0.6,0.4,0.9,1.1,0.9c1.4,0,4.9-2.1,4.9-3.3c0-0.6-0.4-0.9-1.1-0.9C501,68.7,497.4,70.8,497.4,72z"/>
</g>
<rect x="433.6" y="66.7" width="0.5" height="16.4"/>
<g>
	<path d="M433.7,66.7c0-1.8,2.5-3.5,4.5-3.5c1.3,0,2.3,0.7,2.3,1.7c0,1.7-2.5,3.5-4.6,3.5C434.6,68.5,433.7,67.8,433.7,66.7z"/>
</g>
<rect x="449.4" y="69.1" width="0.5" height="15.5"/>
<g>
	<path d="M449.5,69.2c0-1.8,2.5-3.5,4.5-3.5c1.3,0,2.3,0.7,2.3,1.7c0,1.7-2.5,3.5-4.6,3.5C450.4,70.9,449.5,70.3,449.5,69.2z"/>
</g>
<rect x="465.2" y="71.6" width="0.5" height="14.7"/>
<g>
	<path d="M465.3,71.7c0-1.8,2.5-3.5,4.5-3.5c1.3,0,2.3,0.7,2.3,1.7c0,1.7-2.5,3.5-4.6,3.5C466.3,73.4,465.3,72.8,465.3,71.7z"/>
</g>
<rect x="481" y="74.1" width="0.5" height="14"/>
<g>
	<path d="M481.1,74.2c0-1.8,2.5-3.5,4.5-3.5c1.3,0,2.3,0.7,2.3,1.7c0,1.7-2.5,3.5-4.6,3.5C482.1,75.9,481.1,75.3,481.1,74.2z"/>
</g>
<rect x="496.8" y="76.6" width="0.5" height="15.3"/>
<g>
	<path d="M501.2,73.1c1.6,0,2.7,0.7,2.7,2c0,1.9-2.3,3.4-4.5,3.4c-1.3,0-2.4-0.7-2.4-1.8C496.9,74.9,499.2,73.1,501.2,73.1z
		 M497.4,76.9c0,0.6,0.4,0.9,1.1,0.9c1.4,0,4.9-2.1,4.9-3.3c0-0.6-0.4-0.9-1.1-0.9C501,73.7,497.4,75.7,497.4,76.9z"/>
</g>
</svg>
