<?xml version="1.0" encoding="utf-8"?>

<!--
	ScaleBook
	Copyright (c) Leland Jansen 2015. All rights reserved.
-->

<!DOCTYPE svg PUBLIC "-//W3C//DTD SVG 1.1//EN" "http://www.w3.org/Graphics/SVG/1.1/DTD/svg11.dtd">
<svg version="1.1" id="Layer_1" xmlns="http://www.w3.org/2000/svg" xmlns:xlink="http://www.w3.org/1999/xlink" x="0px" y="0px"
	 viewBox="0 0 553 97" enable-background="new 0 0 553 97" xml:space="preserve">
<rect x="8.5" y="16.1" width="0.8" height="76"/>
<g>
	<path d="M7.6,16.9c-2,1.2-3.7,6.5-3.7,10.7c0,2.6,1.4,11.2,1.4,13.9c0,5.6-1.6,9.8-4.7,12.6c3.1,2.7,4.7,6.9,4.7,12.5
		c0,2.6-1.4,11.2-1.4,13.9c0,4.3,1.8,9.6,3.7,10.8v0.8C4,89.5,1.7,82.7,1.7,77.3c0-2.4,1.8-10.6,1.8-13.1c0-4.3-1-7.4-3-9.3
		C0.1,54.6,0,54.3,0,54.1c0-0.2,0.1-0.5,0.5-0.8c2-1.9,3-4.8,3-8.6c0-2.4-1.8-11.4-1.8-13.8c0-5.8,2.1-11.8,5.9-14.8V16.9z"/>
</g>
<rect x="548" y="16.1" width="0.8" height="76"/>
<rect x="550.5" y="16.1" width="2.5" height="76"/>
<rect x="8.6" y="35.7" width="544.4" height="0.5"/>
<rect x="8.6" y="30.8" width="544.4" height="0.5"/>
<rect x="8.6" y="25.8" width="544.4" height="0.5"/>
<rect x="8.6" y="20.8" width="544.4" height="0.5"/>
<rect x="8.6" y="15.9" width="544.4" height="0.5"/>
<g>
	<path d="M20.4,35.8c-4.2,0-8.1-3.1-8.1-6.9c0-3.2,2.3-6.7,6.8-10.5c-0.3-1.2-0.4-2.4-0.4-3.6c0-3.5,1.2-6.8,3.2-8.5
		c1.8,2.5,2.7,4.9,2.7,7.1c0,2.9-1.3,5.6-4.3,8.1l0.9,4.2c0.5,0,0.8-0.1,0.8-0.1c2.6,0,4.8,2,4.8,4.7c0,1.9-1.4,3.7-3.6,4.8
		c0-0.1,0.9,3.8,0.9,4.3c0,2.5-2.3,4.2-4.9,4.2c-2,0-3.6-1.3-3.6-3.4c0-1.4,1-2.6,2.4-2.6c1.3,0,2.3,1.3,2.3,2.5
		c0,1.4-1.2,2.3-2.7,2.5c0.6,0.3,1.2,0.5,1.9,0.5c2.1,0,4.1-1.6,4.1-3.6c0-0.2,0-0.4-0.1-0.6l-0.8-3.7
		C22.1,35.7,21.4,35.8,20.4,35.8z M18.2,30.6c0,1,0.5,1.9,1.6,2.5c-1.8-0.3-3-1.4-3-3.1c0-2,1.7-3.7,3.8-4.1l-0.8-4
		c-3.7,2.8-5.7,5.5-5.7,8.1c0,2.9,2.8,5.3,6,5.3c0.9,0,1.7-0.2,2.4-0.5L21.2,28C19.5,28.2,18.2,29.2,18.2,30.6z M22.3,9.2
		c-1.6,0-2.9,3.7-2.9,7c0,0.7,0,1.3,0.2,1.9c2.7-2.4,4-4.5,4-6.5c0-0.9-0.3-1.7-1-2.4C22.5,9.3,22.4,9.2,22.3,9.2z M25,31.1
		c0-1.6-1.2-3.3-2.9-3.3c-0.1,0-0.2,0-0.5,0l1.4,6.6C24.4,33.6,25,32.4,25,31.1z"/>
</g>
<g>
	<path d="M29.7,17.7h0.6L30.2,24c0.4-0.7,1-1,1.8-1c1.2,0,2.2,0.8,2.2,1.9c0,0.8-0.5,1.8-1.7,2.7l-2.8,2.1V17.7z M30.3,24.6
		c-0.1,0.8-0.1,1.4-0.1,1.9c0,1,0,1.6,0.1,2c1-0.7,2.4-2.6,2.4-3.7c0-0.6-0.5-1.1-1.1-1.1C31,23.8,30.6,24.1,30.3,24.6z"/>
</g>
<g>
	<path d="M35.3,10.3h0.6l-0.1,6.2c0.4-0.7,1-1,1.8-1c1.2,0,2.2,0.8,2.2,1.9c0,0.8-0.5,1.8-1.7,2.7l-2.8,2.1V10.3z M35.9,17.2
		c-0.1,0.8-0.1,1.4-0.1,1.9c0,1,0,1.6,0.1,2c1-0.7,2.4-2.6,2.4-3.7c0-0.6-0.5-1.1-1.1-1.1C36.6,16.4,36.1,16.6,35.9,17.2z"/>
</g>
<g>
	<path d="M40.9,20.2h0.6l-0.1,6.2c0.4-0.7,1-1,1.8-1c1.2,0,2.2,0.8,2.2,1.9c0,0.8-0.5,1.8-1.7,2.7l-2.8,2.1V20.2z M41.4,27.1
		c-0.1,0.8-0.1,1.4-0.1,1.9c0,1,0,1.6,0.1,2c1-0.7,2.4-2.6,2.4-3.7c0-0.6-0.5-1.1-1.1-1.1C42.1,26.3,41.7,26.6,41.4,27.1z"/>
</g>
<g>
	<path d="M46.4,12.8h0.6L46.9,19c0.4-0.7,1-1,1.8-1C50,18,51,18.9,51,20c0,0.8-0.5,1.8-1.7,2.7l-2.8,2.1V12.8z M47,19.7
		c-0.1,0.8-0.1,1.4-0.1,1.9c0,1,0,1.6,0.1,2c1-0.7,2.4-2.6,2.4-3.7c0-0.6-0.5-1.1-1.1-1.1C47.7,18.8,47.3,19.1,47,19.7z"/>
</g>
<g>
	<path d="M52,22.7h0.6l-0.1,6.2c0.4-0.7,1-1,1.8-1c1.2,0,2.2,0.8,2.2,1.9c0,0.8-0.5,1.8-1.7,2.7L52,34.6V22.7z M52.6,29.6
		c-0.1,0.8-0.1,1.4-0.1,1.9c0,1,0,1.6,0.1,2c1-0.7,2.4-2.6,2.4-3.7c0-0.6-0.5-1.1-1.1-1.1C53.3,28.8,52.9,29,52.6,29.6z"/>
</g>
<g>
	<path d="M57.6,15.2h0.6l-0.1,6.2c0.4-0.7,1-1,1.8-1c1.2,0,2.2,0.8,2.2,1.9c0,0.8-0.5,1.8-1.7,2.7l-2.8,2.1V15.2z M58.2,22.2
		c-0.1,0.8-0.1,1.4-0.1,1.9c0,1,0,1.6,0.1,2c1-0.7,2.4-2.6,2.4-3.7c0-0.6-0.5-1.1-1.1-1.1C58.9,21.3,58.5,21.6,58.2,22.2z"/>
</g>
<g>
	<path d="M237.8,27.8v-4l-3,1.1V14.3h0.5v4l3-1.1v10.7H237.8z M235.3,23.2l2.5-0.9v-3.3l-2.5,0.9V23.2z"/>
</g>
<polygon fill-rule="evenodd" clip-rule="evenodd" points="200.7,17.4 246.4,12.4 246.4,9.9 200.7,14.9 "/>
<polygon fill-rule="evenodd" clip-rule="evenodd" points="200.7,13.6 246.4,8.7 246.4,6.2 200.7,11.2 "/>
<polygon fill-rule="evenodd" clip-rule="evenodd" points="194.2,43.4 239.9,38.4 239.9,36 194.2,40.9 "/>
<polygon fill-rule="evenodd" clip-rule="evenodd" points="194.2,47.1 239.9,42.2 239.9,39.7 194.2,44.6 "/>
<g>
	<path d="M268.2,27.8v-4l-3,1.1V14.3h0.5v4l3-1.1v10.7H268.2z M265.7,23.2l2.5-0.9v-3.3l-2.5,0.9V23.2z"/>
</g>
<rect x="261.6" y="3.7" fill-rule="evenodd" clip-rule="evenodd" width="45.7" height="2.5"/>
<rect x="261.6" fill-rule="evenodd" clip-rule="evenodd" width="45.7" height="2.5"/>
<polygon fill-rule="evenodd" clip-rule="evenodd" points="255.1,38.4 300.8,37.2 300.8,34.7 255.1,36 "/>
<polygon fill-rule="evenodd" clip-rule="evenodd" points="255.1,42.2 300.8,40.9 300.8,38.4 255.1,39.7 "/>
<polygon fill-rule="evenodd" clip-rule="evenodd" points="316,37.2 361.7,42.2 361.7,39.7 316,34.7 "/>
<polygon fill-rule="evenodd" clip-rule="evenodd" points="316,40.9 361.7,45.9 361.7,43.4 316,38.4 "/>
<polygon fill-rule="evenodd" clip-rule="evenodd" points="322.5,11.2 368.2,16.1 368.2,13.6 322.5,8.7 "/>
<polygon fill-rule="evenodd" clip-rule="evenodd" points="322.5,7.4 368.2,12.4 368.2,9.9 322.5,5 "/>
<rect x="8.6" y="91.8" width="544.4" height="0.5"/>
<rect x="8.6" y="86.9" width="544.4" height="0.5"/>
<rect x="8.6" y="81.9" width="544.4" height="0.5"/>
<rect x="8.6" y="77" width="544.4" height="0.5"/>
<rect x="8.6" y="72" width="544.4" height="0.5"/>
<g>
	<path d="M15.9,86.4c2.9-2.6,4.7-6.1,4.7-9.2c0-2.5-1.4-4.4-3.7-4.4c-1.6,0-3.4,1.3-3.4,2.7c0,0.2,0,0.3,0.1,0.3
		c-0.1,0,0.6-0.6,1.4-0.6c0.9,0,1.5,0.8,1.5,1.7c0,1.2-0.9,2.2-2.1,2.2c-1.2,0-2.1-1.3-2.1-2.8c0-2.3,2.3-4.1,4.8-4.1
		c4.7,0,5.9,3.2,5.9,5.8c0,1.6-0.4,2.9-2,5.3c-1.9,3.1-6.4,5.3-8.1,5.3c-0.4,0-0.6-0.2-0.6-0.5C14,87.7,15.1,87.1,15.9,86.4z
		 M25.8,73.7c0.6,0,1,0.4,1,1c0,0.6-0.4,1-1,1s-1-0.4-1-1C24.8,74.2,25.3,73.7,25.8,73.7z M25.8,78.7c0.6,0,1,0.4,1,1
		c0,0.6-0.4,1-1,1s-1-0.4-1-1C24.8,79.1,25.3,78.7,25.8,78.7z"/>
</g>
<g>
	<path d="M29.7,78.8h0.6l-0.1,6.2c0.4-0.7,1-1,1.8-1c1.2,0,2.2,0.8,2.2,1.9c0,0.8-0.5,1.8-1.7,2.7l-2.8,2.1V78.8z M30.3,85.7
		c-0.1,0.8-0.1,1.4-0.1,1.9c0,1,0,1.6,0.1,2c1-0.7,2.4-2.6,2.4-3.7c0-0.6-0.5-1.1-1.1-1.1C31,84.9,30.6,85.2,30.3,85.7z"/>
</g>
<g>
	<path d="M35.3,71.4h0.6l-0.1,6.2c0.4-0.7,1-1,1.8-1c1.2,0,2.2,0.8,2.2,1.9c0,0.8-0.5,1.8-1.7,2.7l-2.8,2.1V71.4z M35.9,78.3
		c-0.1,0.8-0.1,1.4-0.1,1.9c0,1,0,1.6,0.1,2c1-0.7,2.4-2.6,2.4-3.7c0-0.6-0.5-1.1-1.1-1.1C36.6,77.4,36.1,77.7,35.9,78.3z"/>
</g>
<g>
	<path d="M40.9,81.3h0.6l-0.1,6.2c0.4-0.7,1-1,1.8-1c1.2,0,2.2,0.8,2.2,1.9c0,0.8-0.5,1.8-1.7,2.7l-2.8,2.1V81.3z M41.4,88.2
		c-0.1,0.8-0.1,1.4-0.1,1.9c0,1,0,1.6,0.1,2c1-0.7,2.4-2.6,2.4-3.7c0-0.6-0.5-1.1-1.1-1.1C42.1,87.4,41.7,87.6,41.4,88.2z"/>
</g>
<g>
	<path d="M46.4,73.8h0.6l-0.1,6.2c0.4-0.7,1-1,1.8-1c1.2,0,2.2,0.8,2.2,1.9c0,0.8-0.5,1.8-1.7,2.7l-2.8,2.1V73.8z M47,80.7
		c-0.1,0.8-0.1,1.4-0.1,1.9c0,1,0,1.6,0.1,2c1-0.7,2.4-2.6,2.4-3.7c0-0.6-0.5-1.1-1.1-1.1C47.7,79.9,47.3,80.2,47,80.7z"/>
</g>
<g>
	<path d="M52,83.8h0.6L52.5,90c0.4-0.7,1-1,1.8-1c1.2,0,2.2,0.8,2.2,1.9c0,0.8-0.5,1.8-1.7,2.7L52,95.7V83.8z M52.6,90.7
		c-0.1,0.8-0.1,1.4-0.1,1.9c0,1,0,1.6,0.1,2c1-0.7,2.4-2.6,2.4-3.7c0-0.6-0.5-1.1-1.1-1.1C53.3,89.8,52.9,90.1,52.6,90.7z"/>
</g>
<g>
	<path d="M57.6,76.3h0.6l-0.1,6.2c0.4-0.7,1-1,1.8-1c1.2,0,2.2,0.8,2.2,1.9c0,0.8-0.5,1.8-1.7,2.7l-2.8,2.1V76.3z M58.2,83.2
		c-0.1,0.8-0.1,1.4-0.1,1.9c0,1,0,1.6,0.1,2c1-0.7,2.4-2.6,2.4-3.7c0-0.6-0.5-1.1-1.1-1.1C58.9,82.4,58.5,82.7,58.2,83.2z"/>
</g>
<g>
	<path d="M129.2,71.6v-4l-3,1.1V58h0.5v4l3-1.1v10.7H129.2z M126.6,66.9l2.5-0.9v-3.3l-2.5,0.9V66.9z"/>
</g>
<polygon fill-rule="evenodd" clip-rule="evenodd" points="77.3,64.8 123,59.8 123,57.4 77.3,62.3 "/>
<polygon fill-rule="evenodd" clip-rule="evenodd" points="77.3,61.1 123,56.1 123,53.6 77.3,58.6 "/>
<polygon fill-rule="evenodd" clip-rule="evenodd" points="70.8,93.3 116.5,88.4 116.5,85.9 70.8,90.8 "/>
<polygon fill-rule="evenodd" clip-rule="evenodd" points="70.8,97 116.5,92.1 116.5,89.6 70.8,94.6 "/>
<g>
	<path d="M160.3,71.6v-4l-3,1.1V58h0.5v4l3-1.1v10.7H160.3z M157.8,66.9l2.5-0.9v-3.3l-2.5,0.9V66.9z"/>
</g>
<polygon fill-rule="evenodd" clip-rule="evenodd" points="132.5,83.4 178.8,78.4 178.8,76 132.5,80.9 "/>
<polygon fill-rule="evenodd" clip-rule="evenodd" points="132.5,87.1 178.8,82.2 178.8,79.7 132.5,84.6 "/>
<polygon fill-rule="evenodd" clip-rule="evenodd" points="139,54.9 185.3,49.9 185.3,47.4 139,52.4 "/>
<polygon fill-rule="evenodd" clip-rule="evenodd" points="139,51.2 185.3,46.2 185.3,43.7 139,48.7 "/>
<polygon fill-rule="evenodd" clip-rule="evenodd" points="383.4,47.4 429.2,52.4 429.2,49.9 383.4,45 "/>
<polygon fill-rule="evenodd" clip-rule="evenodd" points="383.4,43.7 429.2,48.7 429.2,46.2 383.4,41.2 "/>
<polygon fill-rule="evenodd" clip-rule="evenodd" points="376.9,78.4 422.7,79.7 422.7,77.2 376.9,76 "/>
<polygon fill-rule="evenodd" clip-rule="evenodd" points="376.9,82.2 422.7,83.4 422.7,80.9 376.9,79.7 "/>
<polygon fill-rule="evenodd" clip-rule="evenodd" points="444.5,57.4 490.1,62.3 490.1,59.8 444.5,54.9 "/>
<polygon fill-rule="evenodd" clip-rule="evenodd" points="444.5,53.6 490.1,58.6 490.1,56.1 444.5,51.2 "/>
<polygon fill-rule="evenodd" clip-rule="evenodd" points="438,83.4 483.6,88.4 483.6,85.9 438,80.9 "/>
<polygon fill-rule="evenodd" clip-rule="evenodd" points="438,87.1 483.6,92.1 483.6,89.6 438,84.6 "/>
<rect x="200.4" y="11.3" width="0.5" height="16.4"/>
<g>
	<path d="M194,29.4c0-1.8,2.5-3.5,4.5-3.5c1.3,0,2.3,0.7,2.3,1.7c0,1.7-2.5,3.5-4.6,3.5C195,31.1,194,30.5,194,29.4z"/>
</g>
<rect x="215.6" y="9.8" width="0.5" height="15.5"/>
<g>
	<path d="M209.2,26.9c0-1.8,2.5-3.5,4.5-3.5c1.3,0,2.3,0.7,2.3,1.7c0,1.7-2.5,3.5-4.6,3.5C210.2,28.6,209.2,28,209.2,26.9z"/>
</g>
<rect x="230.8" y="8.1" width="0.5" height="14.7"/>
<g>
	<path d="M224.4,24.4c0-1.8,2.5-3.5,4.5-3.5c1.3,0,2.3,0.7,2.3,1.7c0,1.7-2.5,3.5-4.6,3.5C225.4,26.1,224.4,25.5,224.4,24.4z"/>
</g>
<rect x="246.2" y="6.4" width="0.5" height="14"/>
<g>
	<path d="M239.7,21.9c0-1.8,2.5-3.5,4.5-3.5c1.3,0,2.3,0.7,2.3,1.7c0,1.7-2.5,3.5-4.6,3.5C240.7,23.7,239.7,23,239.7,21.9z"/>
</g>
<rect x="193.9" y="34.3" width="0.5" height="12.7"/>
<g>
	<path d="M194,34.3c0-1.8,2.5-3.5,4.5-3.5c1.3,0,2.3,0.7,2.3,1.7c0,1.7-2.5,3.5-4.6,3.5C195,36.1,194,35.4,194,34.3z"/>
</g>
<rect x="209.1" y="31.8" width="0.5" height="13.6"/>
<g>
	<path d="M209.2,31.9c0-1.8,2.5-3.5,4.5-3.5c1.3,0,2.3,0.7,2.3,1.7c0,1.7-2.5,3.5-4.6,3.5C210.2,33.6,209.2,32.9,209.2,31.9z"/>
</g>
<rect x="224.3" y="29.3" width="0.5" height="14.4"/>
<g>
	<path d="M224.4,29.4c0-1.8,2.5-3.5,4.5-3.5c1.3,0,2.3,0.7,2.3,1.7c0,1.7-2.5,3.5-4.6,3.5C225.4,31.1,224.4,30.5,224.4,29.4z"/>
</g>
<rect x="239.7" y="26.8" width="0.5" height="15.2"/>
<g>
	<path d="M239.7,26.9c0-1.8,2.5-3.5,4.5-3.5c1.3,0,2.3,0.7,2.3,1.7c0,1.7-2.5,3.5-4.6,3.5C240.7,28.6,239.7,28,239.7,26.9z"/>
</g>
<rect x="261.4" y="0.2" width="0.5" height="17.7"/>
<g>
	<path d="M254.9,19.5c0-1.8,2.5-3.5,4.5-3.5c1.3,0,2.3,0.7,2.3,1.7c0,1.7-2.5,3.5-4.6,3.5C255.9,21.2,254.9,20.5,254.9,19.5z"/>
</g>
<rect x="276.6" y="0.2" width="0.5" height="15.2"/>
<g>
	<path d="M270.1,17c0-1.8,2.5-3.5,4.5-3.5c1.3,0,2.3,0.7,2.3,1.7c0,1.7-2.5,3.5-4.6,3.5C271.1,18.7,270.1,18.1,270.1,17z"/>
</g>
<rect x="291.9" y="0.2" width="0.5" height="12.7"/>
<g>
	<path d="M285.5,14.5c0-1.8,2.5-3.5,4.5-3.5c1.3,0,2.3,0.7,2.3,1.7c0,1.7-2.5,3.5-4.6,3.5C286.4,16.2,285.5,15.6,285.5,14.5z"/>
</g>
<rect x="307.1" y="0.2" width="0.5" height="15.2"/>
<g>
	<path d="M300.7,17c0-1.8,2.5-3.5,4.5-3.5c1.3,0,2.3,0.7,2.3,1.7c0,1.7-2.5,3.5-4.6,3.5C301.6,18.7,300.7,18.1,300.7,17z"/>
</g>
<rect x="254.9" y="24.3" width="0.5" height="17.7"/>
<g>
	<path d="M254.9,24.4c0-1.8,2.5-3.5,4.5-3.5c1.3,0,2.3,0.7,2.3,1.7c0,1.7-2.5,3.5-4.6,3.5C255.9,26.1,254.9,25.5,254.9,24.4z"/>
</g>
<rect x="270" y="21.9" width="0.5" height="19.8"/>
<g>
	<path d="M270.1,21.9c0-1.8,2.5-3.5,4.5-3.5c1.3,0,2.3,0.7,2.3,1.7c0,1.7-2.5,3.5-4.6,3.5C271.1,23.7,270.1,23,270.1,21.9z"/>
</g>
<rect x="285.4" y="19.4" width="0.5" height="21.9"/>
<g>
	<path d="M285.5,19.5c0-1.8,2.5-3.5,4.5-3.5c1.3,0,2.3,0.7,2.3,1.7c0,1.7-2.5,3.5-4.6,3.5C286.4,21.2,285.5,20.5,285.5,19.5z"/>
</g>
<rect x="300.6" y="21.9" width="0.5" height="18.9"/>
<g>
	<path d="M300.7,21.9c0-1.8,2.5-3.5,4.5-3.5c1.3,0,2.3,0.7,2.3,1.7c0,1.7-2.5,3.5-4.6,3.5C301.6,23.7,300.7,23,300.7,21.9z"/>
</g>
<rect x="315.8" y="24.3" width="0.5" height="16.4"/>
<g>
	<path d="M315.9,24.4c0-1.8,2.5-3.5,4.5-3.5c1.3,0,2.3,0.7,2.3,1.7c0,1.7-2.5,3.5-4.6,3.5C316.8,26.1,315.9,25.5,315.9,24.4z"/>
</g>
<rect x="331" y="26.8" width="0.5" height="15.5"/>
<g>
	<path d="M331,26.9c0-1.8,2.5-3.5,4.5-3.5c1.3,0,2.3,0.7,2.3,1.7c0,1.7-2.5,3.5-4.6,3.5C332,28.6,331,28,331,26.9z"/>
</g>
<rect x="346.3" y="29.3" width="0.5" height="14.7"/>
<g>
	<path d="M346.4,29.4c0-1.8,2.5-3.5,4.5-3.5c1.3,0,2.3,0.7,2.3,1.7c0,1.7-2.5,3.5-4.6,3.5C347.4,31.1,346.4,30.5,346.4,29.4z"/>
</g>
<rect x="361.5" y="31.8" width="0.5" height="14"/>
<g>
	<path d="M361.6,31.9c0-1.8,2.5-3.5,4.5-3.5c1.3,0,2.3,0.7,2.3,1.7c0,1.7-2.5,3.5-4.6,3.5C362.6,33.6,361.6,32.9,361.6,31.9z"/>
</g>
<rect x="322.3" y="5.1" width="0.5" height="12.7"/>
<g>
	<path d="M315.9,19.5c0-1.8,2.5-3.5,4.5-3.5c1.3,0,2.3,0.7,2.3,1.7c0,1.7-2.5,3.5-4.6,3.5C316.8,21.2,315.9,20.5,315.9,19.5z"/>
</g>
<rect x="337.5" y="6.7" width="0.5" height="13.6"/>
<g>
	<path d="M331,21.9c0-1.8,2.5-3.5,4.5-3.5c1.3,0,2.3,0.7,2.3,1.7c0,1.7-2.5,3.5-4.6,3.5C332,23.7,331,23,331,21.9z"/>
</g>
<rect x="352.8" y="8.4" width="0.5" height="14.4"/>
<g>
	<path d="M346.4,24.4c0-1.8,2.5-3.5,4.5-3.5c1.3,0,2.3,0.7,2.3,1.7c0,1.7-2.5,3.5-4.6,3.5C347.4,26.1,346.4,25.5,346.4,24.4z"/>
</g>
<rect x="368" y="10.1" width="0.5" height="15.2"/>
<g>
	<path d="M361.6,26.9c0-1.8,2.5-3.5,4.5-3.5c1.3,0,2.3,0.7,2.3,1.7c0,1.7-2.5,3.5-4.6,3.5C362.6,28.6,361.6,28,361.6,26.9z"/>
</g>
<rect x="77.1" y="58.7" width="0.5" height="15.2"/>
<g>
	<path d="M70.6,75.6c0-1.8,2.5-3.5,4.5-3.5c1.3,0,2.3,0.7,2.3,1.7c0,1.7-2.5,3.5-4.6,3.5C71.6,77.3,70.6,76.7,70.6,75.6z"/>
</g>
<rect x="92.2" y="57.2" width="0.5" height="14.3"/>
<g>
	<path d="M85.8,73.1c0-1.8,2.5-3.5,4.5-3.5c1.3,0,2.3,0.7,2.3,1.7c0,1.7-2.5,3.5-4.6,3.5C86.8,74.8,85.8,74.2,85.8,73.1z"/>
</g>
<rect x="107.6" y="55.5" width="0.5" height="13.5"/>
<g>
	<path d="M101.2,70.6c0-1.8,2.5-3.5,4.5-3.5c1.3,0,2.3,0.7,2.3,1.7c0,1.7-2.5,3.5-4.6,3.5C102.1,72.3,101.2,71.7,101.2,70.6z"/>
</g>
<rect x="114.5" y="66.9" width="10.5" height="0.8"/>
<rect x="122.8" y="53.8" width="0.5" height="12.7"/>
<g>
	<path d="M116.3,68.1c0-1.8,2.5-3.5,4.5-3.5c1.3,0,2.3,0.7,2.3,1.7c0,1.7-2.5,3.5-4.6,3.5C117.3,69.9,116.3,69.2,116.3,68.1z"/>
</g>
<rect x="70.5" y="80.4" width="0.5" height="16.4"/>
<g>
	<path d="M70.6,80.5c0-1.8,2.5-3.5,4.5-3.5c1.3,0,2.3,0.7,2.3,1.7c0,1.7-2.5,3.5-4.6,3.5C71.6,82.3,70.6,81.6,70.6,80.5z"/>
</g>
<rect x="85.7" y="78" width="0.5" height="17.4"/>
<g>
	<path d="M85.8,78c0-1.8,2.5-3.5,4.5-3.5c1.3,0,2.3,0.7,2.3,1.7c0,1.7-2.5,3.5-4.6,3.5C86.8,79.8,85.8,79.1,85.8,78z"/>
</g>
<rect x="101.1" y="75.5" width="0.5" height="18.1"/>
<g>
	<path d="M101.2,75.6c0-1.8,2.5-3.5,4.5-3.5c1.3,0,2.3,0.7,2.3,1.7c0,1.7-2.5,3.5-4.6,3.5C102.1,77.3,101.2,76.7,101.2,75.6z"/>
</g>
<rect x="116.3" y="73" width="0.5" height="18.9"/>
<g>
	<path d="M116.3,73.1c0-1.8,2.5-3.5,4.5-3.5c1.3,0,2.3,0.7,2.3,1.7c0,1.7-2.5,3.5-4.6,3.5C117.3,74.8,116.3,74.2,116.3,73.1z"/>
</g>
<rect x="132.2" y="70.5" width="0.5" height="16.4"/>
<g>
	<path d="M132.3,70.6c0-1.8,2.5-3.5,4.5-3.5c1.3,0,2.3,0.7,2.3,1.7c0,1.7-2.5,3.5-4.6,3.5C133.3,72.3,132.3,71.7,132.3,70.6z"/>
</g>
<rect x="145.6" y="66.9" width="10.5" height="0.8"/>
<rect x="147.4" y="68" width="0.5" height="17.4"/>
<g>
	<path d="M147.5,68.1c0-1.8,2.5-3.5,4.5-3.5c1.3,0,2.3,0.7,2.3,1.7c0,1.7-2.5,3.5-4.6,3.5C148.5,69.9,147.5,69.2,147.5,68.1z"/>
</g>
<rect x="161.6" y="66.9" width="10.5" height="0.8"/>
<rect x="163.4" y="65.6" width="0.5" height="18.1"/>
<g>
	<path d="M163.5,65.6c0-1.8,2.5-3.5,4.5-3.5c1.3,0,2.3,0.7,2.3,1.7c0,1.7-2.5,3.5-4.6,3.5C164.4,67.4,163.5,66.7,163.5,65.6z"/>
</g>
<rect x="176.8" y="66.9" width="10.5" height="0.8"/>
<rect x="176.8" y="61.9" width="10.5" height="0.8"/>
<rect x="178.6" y="63.1" width="0.5" height="18.9"/>
<g>
	<path d="M178.7,63.2c0-1.8,2.5-3.5,4.5-3.5c1.3,0,2.3,0.7,2.3,1.7c0,1.7-2.5,3.5-4.6,3.5C179.6,64.9,178.7,64.3,178.7,63.2z"/>
</g>
<rect x="130.5" y="66.9" width="10.5" height="0.8"/>
<rect x="138.7" y="48.8" width="0.5" height="15.2"/>
<g>
	<path d="M132.3,65.6c0-1.8,2.5-3.5,4.5-3.5c1.3,0,2.3,0.7,2.3,1.7c0,1.7-2.5,3.5-4.6,3.5C133.3,67.4,132.3,66.7,132.3,65.6z"/>
</g>
<rect x="145.6" y="66.9" width="10.5" height="0.8"/>
<rect x="145.6" y="61.9" width="10.5" height="0.8"/>
<rect x="153.9" y="47.3" width="0.5" height="14.3"/>
<g>
	<path d="M147.5,63.2c0-1.8,2.5-3.5,4.5-3.5c1.3,0,2.3,0.7,2.3,1.7c0,1.7-2.5,3.5-4.6,3.5C148.5,64.9,147.5,64.3,147.5,63.2z"/>
</g>
<rect x="161.6" y="66.9" width="10.5" height="0.8"/>
<rect x="161.6" y="61.9" width="10.5" height="0.8"/>
<rect x="169.9" y="45.6" width="0.5" height="13.5"/>
<g>
	<path d="M163.5,60.7c0-1.8,2.5-3.5,4.5-3.5c1.3,0,2.3,0.7,2.3,1.7c0,1.7-2.5,3.5-4.6,3.5C164.4,62.4,163.5,61.8,163.5,60.7z"/>
</g>
<rect x="176.8" y="66.9" width="10.5" height="0.8"/>
<rect x="176.8" y="61.9" width="10.5" height="0.8"/>
<rect x="176.8" y="57" width="10.5" height="0.8"/>
<rect x="185.1" y="43.9" width="0.5" height="12.7"/>
<g>
	<path d="M178.7,58.2c0-1.8,2.5-3.5,4.5-3.5c1.3,0,2.3,0.7,2.3,1.7c0,1.7-2.5,3.5-4.6,3.5C179.6,59.9,178.7,59.3,178.7,58.2z"/>
</g>
<rect x="374.9" y="66.9" width="10.5" height="0.8"/>
<rect x="374.9" y="61.9" width="10.5" height="0.8"/>
<rect x="374.9" y="57" width="10.5" height="0.8"/>
<rect x="383.2" y="41.4" width="0.5" height="12.7"/>
<g>
	<path d="M376.8,55.7c0-1.8,2.5-3.5,4.5-3.5c1.3,0,2.3,0.7,2.3,1.7c0,1.7-2.5,3.5-4.6,3.5C377.7,57.5,376.8,56.8,376.8,55.7z"/>
</g>
<rect x="390.3" y="66.9" width="10.5" height="0.8"/>
<rect x="390.3" y="61.9" width="10.5" height="0.8"/>
<rect x="390.3" y="57" width="10.5" height="0.8"/>
<rect x="398.6" y="42.9" width="0.5" height="13.6"/>
<g>
	<path d="M392.1,58.2c0-1.8,2.5-3.5,4.5-3.5c1.3,0,2.3,0.7,2.3,1.7c0,1.7-2.5,3.5-4.6,3.5C393.1,59.9,392.1,59.3,392.1,58.2z"/>
</g>
<rect x="405.5" y="66.9" width="10.5" height="0.8"/>
<rect x="405.5" y="61.9" width="10.5" height="0.8"/>
<rect x="413.7" y="44.6" width="0.5" height="14.4"/>
<g>
	<path d="M407.3,60.7c0-1.8,2.5-3.5,4.5-3.5c1.3,0,2.3,0.7,2.3,1.7c0,1.7-2.5,3.5-4.6,3.5C408.3,62.4,407.3,61.8,407.3,60.7z"/>
</g>
<rect x="420.6" y="66.9" width="10.5" height="0.8"/>
<rect x="420.6" y="61.9" width="10.5" height="0.8"/>
<rect x="428.9" y="46.3" width="0.5" height="15.2"/>
<g>
	<path d="M422.5,63.2c0-1.8,2.5-3.5,4.5-3.5c1.3,0,2.3,0.7,2.3,1.7c0,1.7-2.5,3.5-4.6,3.5C423.5,64.9,422.5,64.3,422.5,63.2z"/>
</g>
<rect x="374.9" y="66.9" width="10.5" height="0.8"/>
<rect x="374.9" y="61.9" width="10.5" height="0.8"/>
<rect x="376.7" y="60.6" width="0.5" height="21.4"/>
<g>
	<path d="M376.8,60.7c0-1.8,2.5-3.5,4.5-3.5c1.3,0,2.3,0.7,2.3,1.7c0,1.7-2.5,3.5-4.6,3.5C377.7,62.4,376.8,61.8,376.8,60.7z"/>
</g>
<rect x="390.3" y="66.9" width="10.5" height="0.8"/>
<rect x="390.3" y="61.9" width="10.5" height="0.8"/>
<rect x="392" y="63.1" width="0.5" height="19.2"/>
<g>
	<path d="M392.1,63.2c0-1.8,2.5-3.5,4.5-3.5c1.3,0,2.3,0.7,2.3,1.7c0,1.7-2.5,3.5-4.6,3.5C393.1,64.9,392.1,64.3,392.1,63.2z"/>
</g>
<rect x="405.5" y="66.9" width="10.5" height="0.8"/>
<rect x="407.2" y="65.6" width="0.5" height="17.2"/>
<g>
	<path d="M407.3,65.6c0-1.8,2.5-3.5,4.5-3.5c1.3,0,2.3,0.7,2.3,1.7c0,1.7-2.5,3.5-4.6,3.5C408.3,67.4,407.3,66.7,407.3,65.6z"/>
</g>
<rect x="420.6" y="66.9" width="10.5" height="0.8"/>
<rect x="422.4" y="68" width="0.5" height="15.2"/>
<g>
	<path d="M422.5,68.1c0-1.8,2.5-3.5,4.5-3.5c1.3,0,2.3,0.7,2.3,1.7c0,1.7-2.5,3.5-4.6,3.5C423.5,69.9,422.5,69.2,422.5,68.1z"/>
</g>
<rect x="436" y="66.9" width="10.5" height="0.8"/>
<rect x="444.3" y="51.3" width="0.5" height="12.7"/>
<g>
	<path d="M437.8,65.6c0-1.8,2.5-3.5,4.5-3.5c1.3,0,2.3,0.7,2.3,1.7c0,1.7-2.5,3.5-4.6,3.5C438.8,67.4,437.8,66.7,437.8,65.6z"/>
</g>
<rect x="451.2" y="66.9" width="10.5" height="0.8"/>
<rect x="459.5" y="52.9" width="0.5" height="13.6"/>
<g>
	<path d="M453,68.1c0-1.8,2.5-3.5,4.5-3.5c1.3,0,2.3,0.7,2.3,1.7c0,1.7-2.5,3.5-4.6,3.5C454,69.9,453,69.2,453,68.1z"/>
</g>
<rect x="474.7" y="54.6" width="0.5" height="14.4"/>
<g>
	<path d="M468.2,70.6c0-1.8,2.5-3.5,4.5-3.5c1.3,0,2.3,0.7,2.3,1.7c0,1.7-2.5,3.5-4.6,3.5C469.2,72.3,468.2,71.7,468.2,70.6z"/>
</g>
<rect x="489.9" y="56.3" width="0.5" height="15.2"/>
<g>
	<path d="M483.4,73.1c0-1.8,2.5-3.5,4.5-3.5c1.3,0,2.3,0.7,2.3,1.7c0,1.7-2.5,3.5-4.6,3.5C484.4,74.8,483.4,74.2,483.4,73.1z"/>
</g>
<rect x="505.4" y="61.1" width="0.5" height="12.9"/>
<g>
	<path d="M503,72c1.6,0,2.7,0.7,2.7,2c0,1.9-2.3,3.4-4.5,3.4c-1.3,0-2.4-0.7-2.4-1.8C498.8,73.8,501,72,503,72z M499.2,75.9
		c0,0.6,0.4,0.9,1.1,0.9c1.4,0,4.9-2.1,4.9-3.3c0-0.6-0.4-0.9-1.1-0.9C502.9,72.6,499.2,74.6,499.2,75.9z"/>
</g>
<rect x="437.8" y="70.5" width="0.5" height="16.4"/>
<g>
	<path d="M437.8,70.6c0-1.8,2.5-3.5,4.5-3.5c1.3,0,2.3,0.7,2.3,1.7c0,1.7-2.5,3.5-4.6,3.5C438.8,72.3,437.8,71.7,437.8,70.6z"/>
</g>
<rect x="453" y="73" width="0.5" height="15.5"/>
<g>
	<path d="M453,73.1c0-1.8,2.5-3.5,4.5-3.5c1.3,0,2.3,0.7,2.3,1.7c0,1.7-2.5,3.5-4.6,3.5C454,74.8,453,74.2,453,73.1z"/>
</g>
<rect x="468.2" y="75.5" width="0.5" height="14.7"/>
<g>
	<path d="M468.2,75.6c0-1.8,2.5-3.5,4.5-3.5c1.3,0,2.3,0.7,2.3,1.7c0,1.7-2.5,3.5-4.6,3.5C469.2,77.3,468.2,76.7,468.2,75.6z"/>
</g>
<rect x="483.3" y="78" width="0.5" height="14"/>
<g>
	<path d="M483.4,78c0-1.8,2.5-3.5,4.5-3.5c1.3,0,2.3,0.7,2.3,1.7c0,1.7-2.5,3.5-4.6,3.5C484.4,79.8,483.4,79.1,483.4,78z"/>
</g>
<rect x="498.7" y="80.4" width="0.5" height="16.6"/>
<g>
	<path d="M503,77c1.6,0,2.7,0.7,2.7,2c0,1.9-2.3,3.4-4.5,3.4c-1.3,0-2.4-0.7-2.4-1.8C498.8,78.8,501,77,503,77z M499.2,80.8
		c0,0.6,0.4,0.9,1.1,0.9c1.4,0,4.9-2.1,4.9-3.3c0-0.6-0.4-0.9-1.1-0.9C502.9,77.6,499.2,79.6,499.2,80.8z"/>
</g>
</svg>
