<?xml version="1.0" encoding="utf-8"?>

<!--
	ScaleBook
	Copyright (c) Leland Jansen 2015. All rights reserved.
-->

<!DOCTYPE svg PUBLIC "-//W3C//DTD SVG 1.1//EN" "http://www.w3.org/Graphics/SVG/1.1/DTD/svg11.dtd">
<svg version="1.1" id="Layer_1" xmlns="http://www.w3.org/2000/svg" xmlns:xlink="http://www.w3.org/1999/xlink" x="0px" y="0px"
	 viewBox="0 0 553 97" enable-background="new 0 0 553 97" xml:space="preserve">
<rect x="8.5" y="16.1" width="0.8" height="76"/>
<g>
	<path d="M7.6,16.9c-2,1.2-3.7,6.5-3.7,10.7c0,2.6,1.4,11.2,1.4,13.9c0,5.6-1.6,9.8-4.7,12.6c3.1,2.7,4.7,6.9,4.7,12.5
		c0,2.6-1.4,11.2-1.4,13.9c0,4.3,1.8,9.6,3.7,10.8v0.8C4,89.5,1.7,82.7,1.7,77.3c0-2.4,1.8-10.6,1.8-13.1c0-4.3-1-7.4-3-9.3
		C0.1,54.6,0,54.3,0,54.1c0-0.2,0.1-0.5,0.5-0.8c2-1.9,3-4.8,3-8.6c0-2.4-1.8-11.4-1.8-13.8c0-5.8,2.1-11.8,5.9-14.8V16.9z"/>
</g>
<rect x="548" y="16.1" width="0.8" height="76"/>
<rect x="550.5" y="16.1" width="2.5" height="76"/>
<rect x="8.6" y="35.7" width="544.4" height="0.5"/>
<rect x="8.6" y="30.8" width="544.4" height="0.5"/>
<rect x="8.6" y="25.8" width="544.4" height="0.5"/>
<rect x="8.6" y="20.8" width="544.4" height="0.5"/>
<rect x="8.6" y="15.9" width="544.4" height="0.5"/>
<g>
	<path d="M20.4,35.8c-4.2,0-8.1-3.1-8.1-6.9c0-3.2,2.3-6.7,6.8-10.5c-0.3-1.2-0.4-2.4-0.4-3.6c0-3.5,1.2-6.8,3.2-8.5
		c1.8,2.5,2.7,4.9,2.7,7.1c0,2.9-1.3,5.6-4.3,8.1l0.9,4.2c0.5,0,0.8-0.1,0.8-0.1c2.6,0,4.8,2,4.8,4.7c0,1.9-1.4,3.7-3.6,4.8
		c0-0.1,0.9,3.8,0.9,4.3c0,2.5-2.3,4.2-4.9,4.2c-2,0-3.6-1.3-3.6-3.4c0-1.4,1-2.6,2.4-2.6c1.3,0,2.3,1.3,2.3,2.5
		c0,1.4-1.2,2.3-2.7,2.5c0.6,0.3,1.2,0.5,1.9,0.5c2.1,0,4.1-1.6,4.1-3.6c0-0.2,0-0.4-0.1-0.6l-0.8-3.7
		C22.1,35.7,21.4,35.8,20.4,35.8z M18.2,30.6c0,1,0.5,1.9,1.6,2.5c-1.8-0.3-3-1.4-3-3.1c0-2,1.7-3.7,3.8-4.1l-0.8-4
		c-3.7,2.8-5.7,5.5-5.7,8.1c0,2.9,2.8,5.3,6,5.3c0.9,0,1.7-0.2,2.4-0.5L21.2,28C19.5,28.2,18.2,29.2,18.2,30.6z M22.3,9.2
		c-1.6,0-2.9,3.7-2.9,7c0,0.7,0,1.3,0.2,1.9c2.7-2.4,4-4.5,4-6.5c0-0.9-0.3-1.7-1-2.4C22.5,9.3,22.4,9.2,22.3,9.2z M25,31.1
		c0-1.6-1.2-3.3-2.9-3.3c-0.1,0-0.2,0-0.5,0l1.4,6.6C24.4,33.6,25,32.4,25,31.1z"/>
</g>
<g>
	<path d="M33.6,9.3v2.8l1-0.3v1.8l-1,0.3v3.4l1-0.3v1.8l-1,0.3v3.1h-0.5v-3l-1.9,0.6v3h-0.5v-2.8l-1,0.3v-1.8l1-0.3v-3.4l-1,0.3
		v-1.8l1-0.3V9.9h0.5v3l1.9-0.6v-3H33.6z M33.1,14.1l-1.9,0.6v3.4l1.9-0.6V14.1z"/>
</g>
<g>
	<path d="M220.4,14.3v2.8l1-0.3v1.8l-1,0.3v3.4l1-0.3v1.8l-1,0.3v3.1h-0.5v-3l-1.9,0.6v3h-0.5V25l-1,0.3v-1.8l1-0.3v-3.4l-1,0.3
		v-1.8l1-0.3v-3.1h0.5v3l1.9-0.6v-3H220.4z M219.9,19l-1.9,0.6v3.4l1.9-0.6V19z"/>
</g>
<polygon fill-rule="evenodd" clip-rule="evenodd" points="181.1,17.4 229.5,12.4 229.5,9.9 181.1,14.9 "/>
<polygon fill-rule="evenodd" clip-rule="evenodd" points="181.1,13.6 229.5,8.7 229.5,6.2 181.1,11.2 "/>
<polygon fill-rule="evenodd" clip-rule="evenodd" points="174.6,43.4 223,38.4 223,36 174.6,40.9 "/>
<polygon fill-rule="evenodd" clip-rule="evenodd" points="174.6,47.1 223,42.2 223,39.7 174.6,44.6 "/>
<g>
	<path d="M252.5,14.3v2.8l1-0.3v1.8l-1,0.3v3.4l1-0.3v1.8l-1,0.3v3.1H252v-3l-1.9,0.6v3h-0.5V25l-1,0.3v-1.8l1-0.3v-3.4l-1,0.3v-1.8
		l1-0.3v-3.1h0.5v3l1.9-0.6v-3H252.5z M252,19l-1.9,0.6v3.4l1.9-0.6V19z"/>
</g>
<rect x="245.5" y="3.7" fill-rule="evenodd" clip-rule="evenodd" width="48.4" height="2.5"/>
<rect x="245.5" fill-rule="evenodd" clip-rule="evenodd" width="48.4" height="2.5"/>
<polygon fill-rule="evenodd" clip-rule="evenodd" points="239,38.4 287.3,37.2 287.3,34.7 239,36 "/>
<polygon fill-rule="evenodd" clip-rule="evenodd" points="239,42.2 287.3,40.9 287.3,38.4 239,39.7 "/>
<polygon fill-rule="evenodd" clip-rule="evenodd" points="303.3,37.2 351.5,42.2 351.5,39.7 303.3,34.7 "/>
<polygon fill-rule="evenodd" clip-rule="evenodd" points="303.3,40.9 351.5,45.9 351.5,43.4 303.3,38.4 "/>
<polygon fill-rule="evenodd" clip-rule="evenodd" points="309.8,11.2 358,16.1 358,13.6 309.8,8.7 "/>
<polygon fill-rule="evenodd" clip-rule="evenodd" points="309.8,7.4 358,12.4 358,9.9 309.8,5 "/>
<rect x="8.6" y="91.8" width="544.4" height="0.5"/>
<rect x="8.6" y="86.9" width="544.4" height="0.5"/>
<rect x="8.6" y="81.9" width="544.4" height="0.5"/>
<rect x="8.6" y="77" width="544.4" height="0.5"/>
<rect x="8.6" y="72" width="544.4" height="0.5"/>
<g>
	<path d="M15.9,86.4c2.9-2.6,4.7-6.1,4.7-9.2c0-2.5-1.4-4.4-3.7-4.4c-1.6,0-3.4,1.3-3.4,2.7c0,0.2,0,0.3,0.1,0.3
		c-0.1,0,0.6-0.6,1.4-0.6c0.9,0,1.5,0.8,1.5,1.7c0,1.2-0.9,2.2-2.1,2.2c-1.2,0-2.1-1.3-2.1-2.8c0-2.3,2.3-4.1,4.8-4.1
		c4.7,0,5.9,3.2,5.9,5.8c0,1.6-0.4,2.9-2,5.3c-1.9,3.1-6.4,5.3-8.1,5.3c-0.4,0-0.6-0.2-0.6-0.5C14,87.7,15.1,87.1,15.9,86.4z
		 M25.8,73.7c0.6,0,1,0.4,1,1c0,0.6-0.4,1-1,1s-1-0.4-1-1C24.8,74.2,25.3,73.7,25.8,73.7z M25.8,78.7c0.6,0,1,0.4,1,1
		c0,0.6-0.4,1-1,1s-1-0.4-1-1C24.8,79.1,25.3,78.7,25.8,78.7z"/>
</g>
<g>
	<path d="M33.6,70.4v2.8l1-0.3v1.8l-1,0.3v3.4l1-0.3v1.8l-1,0.3v3.1h-0.5v-3L31.2,81v3h-0.5v-2.8l-1,0.3v-1.8l1-0.3v-3.4l-1,0.3
		v-1.8l1-0.3V71h0.5v3l1.9-0.6v-3H33.6z M33.1,75.2l-1.9,0.6v3.4l1.9-0.6V75.2z"/>
</g>
<g>
	<path d="M105.2,58v2.8l1-0.3v1.8l-1,0.3V66l1-0.3v1.8l-1,0.3V71h-0.5v-3l-1.9,0.6v3h-0.5v-2.8l-1,0.3v-1.8l1-0.3v-3.4l-1,0.3v-1.8
		l1-0.3v-3.1h0.5v3l1.9-0.6v-3H105.2z M104.7,62.8l-1.9,0.6v3.4l1.9-0.6V62.8z"/>
</g>
<polygon fill-rule="evenodd" clip-rule="evenodd" points="50,64.8 98.2,59.8 98.2,57.4 50,62.3 "/>
<polygon fill-rule="evenodd" clip-rule="evenodd" points="50,61.1 98.2,56.1 98.2,53.6 50,58.6 "/>
<polygon fill-rule="evenodd" clip-rule="evenodd" points="43.5,93.3 91.7,88.4 91.7,85.9 43.5,90.8 "/>
<polygon fill-rule="evenodd" clip-rule="evenodd" points="43.5,97 91.7,92.1 91.7,89.6 43.5,94.6 "/>
<g>
	<path d="M138.7,58v2.8l1-0.3v1.8l-1,0.3V66l1-0.3v1.8l-1,0.3V71h-0.5v-3l-1.9,0.6v3h-0.5v-2.8l-1,0.3v-1.8l1-0.3v-3.4l-1,0.3v-1.8
		l1-0.3v-3.1h0.5v3l1.9-0.6v-3H138.7z M138.2,62.8l-1.9,0.6v3.4l1.9-0.6V62.8z"/>
</g>
<polygon fill-rule="evenodd" clip-rule="evenodd" points="109.1,83.4 158.7,78.4 158.7,76 109.1,80.9 "/>
<polygon fill-rule="evenodd" clip-rule="evenodd" points="109.1,87.1 158.7,82.2 158.7,79.7 109.1,84.6 "/>
<polygon fill-rule="evenodd" clip-rule="evenodd" points="115.6,54.9 165.2,49.9 165.2,47.4 115.6,52.4 "/>
<polygon fill-rule="evenodd" clip-rule="evenodd" points="115.6,51.2 165.2,46.2 165.2,43.7 115.6,48.7 "/>
<polygon fill-rule="evenodd" clip-rule="evenodd" points="374.1,47.4 422.3,52.4 422.3,49.9 374.1,45 "/>
<polygon fill-rule="evenodd" clip-rule="evenodd" points="374.1,43.7 422.3,48.7 422.3,46.2 374.1,41.2 "/>
<polygon fill-rule="evenodd" clip-rule="evenodd" points="367.6,78.4 415.8,79.7 415.8,77.2 367.6,76 "/>
<polygon fill-rule="evenodd" clip-rule="evenodd" points="367.6,82.2 415.8,83.4 415.8,80.9 367.6,79.7 "/>
<polygon fill-rule="evenodd" clip-rule="evenodd" points="438.5,57.4 486.7,62.3 486.7,59.8 438.5,54.9 "/>
<polygon fill-rule="evenodd" clip-rule="evenodd" points="438.5,53.6 486.7,58.6 486.7,56.1 438.5,51.2 "/>
<polygon fill-rule="evenodd" clip-rule="evenodd" points="432,83.4 480.2,88.4 480.2,85.9 432,80.9 "/>
<polygon fill-rule="evenodd" clip-rule="evenodd" points="432,87.1 480.2,92.1 480.2,89.6 432,84.6 "/>
<rect x="180.9" y="11.3" width="0.5" height="16.4"/>
<g>
	<path d="M174.5,29.4c0-1.8,2.5-3.5,4.5-3.5c1.3,0,2.3,0.7,2.3,1.7c0,1.7-2.5,3.5-4.6,3.5C175.5,31.1,174.5,30.5,174.5,29.4z"/>
</g>
<rect x="197" y="9.8" width="0.5" height="15.5"/>
<g>
	<path d="M190.6,26.9c0-1.8,2.5-3.5,4.5-3.5c1.3,0,2.3,0.7,2.3,1.7c0,1.7-2.5,3.5-4.6,3.5C191.6,28.6,190.6,28,190.6,26.9z"/>
</g>
<rect x="213.2" y="8.1" width="0.5" height="14.7"/>
<g>
	<path d="M206.7,24.4c0-1.8,2.5-3.5,4.5-3.5c1.3,0,2.3,0.7,2.3,1.7c0,1.7-2.5,3.5-4.6,3.5C207.7,26.1,206.7,25.5,206.7,24.4z"/>
</g>
<rect x="229.3" y="6.4" width="0.5" height="14"/>
<g>
	<path d="M222.8,21.9c0-1.8,2.5-3.5,4.5-3.5c1.3,0,2.3,0.7,2.3,1.7c0,1.7-2.5,3.5-4.6,3.5C223.8,23.7,222.8,23,222.8,21.9z"/>
</g>
<rect x="174.4" y="34.3" width="0.5" height="12.7"/>
<g>
	<path d="M174.5,34.3c0-1.8,2.5-3.5,4.5-3.5c1.3,0,2.3,0.7,2.3,1.7c0,1.7-2.5,3.5-4.6,3.5C175.5,36.1,174.5,35.4,174.5,34.3z"/>
</g>
<rect x="190.5" y="31.8" width="0.5" height="13.6"/>
<g>
	<path d="M190.6,31.9c0-1.8,2.5-3.5,4.5-3.5c1.3,0,2.3,0.7,2.3,1.7c0,1.7-2.5,3.5-4.6,3.5C191.6,33.6,190.6,32.9,190.6,31.9z"/>
</g>
<rect x="206.6" y="29.3" width="0.5" height="14.4"/>
<g>
	<path d="M206.7,29.4c0-1.8,2.5-3.5,4.5-3.5c1.3,0,2.3,0.7,2.3,1.7c0,1.7-2.5,3.5-4.6,3.5C207.7,31.1,206.7,30.5,206.7,29.4z"/>
</g>
<rect x="222.8" y="26.8" width="0.5" height="15.2"/>
<g>
	<path d="M222.8,26.9c0-1.8,2.5-3.5,4.5-3.5c1.3,0,2.3,0.7,2.3,1.7c0,1.7-2.5,3.5-4.6,3.5C223.8,28.6,222.8,28,222.8,26.9z"/>
</g>
<rect x="245.2" y="0.2" width="0.5" height="17.7"/>
<g>
	<path d="M238.8,19.5c0-1.8,2.5-3.5,4.5-3.5c1.3,0,2.3,0.7,2.3,1.7c0,1.7-2.5,3.5-4.6,3.5C239.8,21.2,238.8,20.5,238.8,19.5z"/>
</g>
<rect x="261.4" y="0.2" width="0.5" height="15.2"/>
<g>
	<path d="M254.9,17c0-1.8,2.5-3.5,4.5-3.5c1.3,0,2.3,0.7,2.3,1.7c0,1.7-2.5,3.5-4.6,3.5C255.9,18.7,254.9,18.1,254.9,17z"/>
</g>
<rect x="277.5" y="0.2" width="0.5" height="12.7"/>
<g>
	<path d="M271.1,14.5c0-1.8,2.5-3.5,4.5-3.5c1.3,0,2.3,0.7,2.3,1.7c0,1.7-2.5,3.5-4.6,3.5C272,16.2,271.1,15.6,271.1,14.5z"/>
</g>
<rect x="293.6" y="0.2" width="0.5" height="15.2"/>
<g>
	<path d="M287.2,17c0-1.8,2.5-3.5,4.5-3.5c1.3,0,2.3,0.7,2.3,1.7c0,1.7-2.5,3.5-4.6,3.5C288.1,18.7,287.2,18.1,287.2,17z"/>
</g>
<rect x="238.7" y="24.3" width="0.5" height="17.7"/>
<g>
	<path d="M238.8,24.4c0-1.8,2.5-3.5,4.5-3.5c1.3,0,2.3,0.7,2.3,1.7c0,1.7-2.5,3.5-4.6,3.5C239.8,26.1,238.8,25.5,238.8,24.4z"/>
</g>
<rect x="254.9" y="21.9" width="0.5" height="19.8"/>
<g>
	<path d="M254.9,21.9c0-1.8,2.5-3.5,4.5-3.5c1.3,0,2.3,0.7,2.3,1.7c0,1.7-2.5,3.5-4.6,3.5C255.9,23.7,254.9,23,254.9,21.9z"/>
</g>
<rect x="271" y="19.4" width="0.5" height="21.9"/>
<g>
	<path d="M271.1,19.5c0-1.8,2.5-3.5,4.5-3.5c1.3,0,2.3,0.7,2.3,1.7c0,1.7-2.5,3.5-4.6,3.5C272,21.2,271.1,20.5,271.1,19.5z"/>
</g>
<rect x="287.1" y="21.9" width="0.5" height="18.9"/>
<g>
	<path d="M287.2,21.9c0-1.8,2.5-3.5,4.5-3.5c1.3,0,2.3,0.7,2.3,1.7c0,1.7-2.5,3.5-4.6,3.5C288.1,23.7,287.2,23,287.2,21.9z"/>
</g>
<rect x="303.1" y="24.3" width="0.5" height="16.4"/>
<g>
	<path d="M303.1,24.4c0-1.8,2.5-3.5,4.5-3.5c1.3,0,2.3,0.7,2.3,1.7c0,1.7-2.5,3.5-4.6,3.5C304.1,26.1,303.1,25.5,303.1,24.4z"/>
</g>
<rect x="319.2" y="26.8" width="0.5" height="15.5"/>
<g>
	<path d="M319.3,26.9c0-1.8,2.5-3.5,4.5-3.5c1.3,0,2.3,0.7,2.3,1.7c0,1.7-2.5,3.5-4.6,3.5C320.2,28.6,319.3,28,319.3,26.9z"/>
</g>
<rect x="335.3" y="29.3" width="0.5" height="14.7"/>
<g>
	<path d="M335.4,29.4c0-1.8,2.5-3.5,4.5-3.5c1.3,0,2.3,0.7,2.3,1.7c0,1.7-2.5,3.5-4.6,3.5C336.4,31.1,335.4,30.5,335.4,29.4z"/>
</g>
<rect x="351.3" y="31.8" width="0.5" height="14"/>
<g>
	<path d="M351.4,31.9c0-1.8,2.5-3.5,4.5-3.5c1.3,0,2.3,0.7,2.3,1.7c0,1.7-2.5,3.5-4.6,3.5C352.3,33.6,351.4,32.9,351.4,31.9z"/>
</g>
<rect x="309.6" y="5.1" width="0.5" height="12.7"/>
<g>
	<path d="M303.1,19.5c0-1.8,2.5-3.5,4.5-3.5c1.3,0,2.3,0.7,2.3,1.7c0,1.7-2.5,3.5-4.6,3.5C304.1,21.2,303.1,20.5,303.1,19.5z"/>
</g>
<rect x="325.7" y="6.7" width="0.5" height="13.6"/>
<g>
	<path d="M319.3,21.9c0-1.8,2.5-3.5,4.5-3.5c1.3,0,2.3,0.7,2.3,1.7c0,1.7-2.5,3.5-4.6,3.5C320.2,23.7,319.3,23,319.3,21.9z"/>
</g>
<rect x="341.8" y="8.4" width="0.5" height="14.4"/>
<g>
	<path d="M335.4,24.4c0-1.8,2.5-3.5,4.5-3.5c1.3,0,2.3,0.7,2.3,1.7c0,1.7-2.5,3.5-4.6,3.5C336.4,26.1,335.4,25.5,335.4,24.4z"/>
</g>
<rect x="357.8" y="10.1" width="0.5" height="15.2"/>
<g>
	<path d="M351.4,26.9c0-1.8,2.5-3.5,4.5-3.5c1.3,0,2.3,0.7,2.3,1.7c0,1.7-2.5,3.5-4.6,3.5C352.3,28.6,351.4,28,351.4,26.9z"/>
</g>
<rect x="49.8" y="58.7" width="0.5" height="15.2"/>
<g>
	<path d="M43.3,75.6c0-1.8,2.5-3.5,4.5-3.5c1.3,0,2.3,0.7,2.3,1.7c0,1.7-2.5,3.5-4.6,3.5C44.3,77.3,43.3,76.7,43.3,75.6z"/>
</g>
<rect x="65.9" y="57.2" width="0.5" height="14.3"/>
<g>
	<path d="M59.5,73.1c0-1.8,2.5-3.5,4.5-3.5c1.3,0,2.3,0.7,2.3,1.7c0,1.7-2.5,3.5-4.6,3.5C60.4,74.8,59.5,74.2,59.5,73.1z"/>
</g>
<rect x="81.9" y="55.5" width="0.5" height="13.5"/>
<g>
	<path d="M75.4,70.6c0-1.8,2.5-3.5,4.5-3.5c1.3,0,2.3,0.7,2.3,1.7c0,1.7-2.5,3.5-4.6,3.5C76.4,72.3,75.4,71.7,75.4,70.6z"/>
</g>
<rect x="89.7" y="66.9" width="10.5" height="0.8"/>
<rect x="98" y="53.8" width="0.5" height="12.7"/>
<g>
	<path d="M91.5,68.1c0-1.8,2.5-3.5,4.5-3.5c1.3,0,2.3,0.7,2.3,1.7c0,1.7-2.5,3.5-4.6,3.5C92.5,69.9,91.5,69.2,91.5,68.1z"/>
</g>
<rect x="43.3" y="80.4" width="0.5" height="16.4"/>
<g>
	<path d="M43.3,80.5c0-1.8,2.5-3.5,4.5-3.5c1.3,0,2.3,0.7,2.3,1.7c0,1.7-2.5,3.5-4.6,3.5C44.3,82.3,43.3,81.6,43.3,80.5z"/>
</g>
<rect x="59.4" y="78" width="0.5" height="17.4"/>
<g>
	<path d="M59.5,78c0-1.8,2.5-3.5,4.5-3.5c1.3,0,2.3,0.7,2.3,1.7c0,1.7-2.5,3.5-4.6,3.5C60.4,79.8,59.5,79.1,59.5,78z"/>
</g>
<rect x="75.3" y="75.5" width="0.5" height="18.1"/>
<g>
	<path d="M75.4,75.6c0-1.8,2.5-3.5,4.5-3.5c1.3,0,2.3,0.7,2.3,1.7c0,1.7-2.5,3.5-4.6,3.5C76.4,77.3,75.4,76.7,75.4,75.6z"/>
</g>
<rect x="91.5" y="73" width="0.5" height="18.9"/>
<g>
	<path d="M91.5,73.1c0-1.8,2.5-3.5,4.5-3.5c1.3,0,2.3,0.7,2.3,1.7c0,1.7-2.5,3.5-4.6,3.5C92.5,74.8,91.5,74.2,91.5,73.1z"/>
</g>
<rect x="108.8" y="70.5" width="0.5" height="16.4"/>
<g>
	<path d="M108.9,70.6c0-1.8,2.5-3.5,4.5-3.5c1.3,0,2.3,0.7,2.3,1.7c0,1.7-2.5,3.5-4.6,3.5C109.9,72.3,108.9,71.7,108.9,70.6z"/>
</g>
<rect x="123.2" y="66.9" width="10.5" height="0.8"/>
<rect x="125" y="68" width="0.5" height="17.4"/>
<g>
	<path d="M125,68.1c0-1.8,2.5-3.5,4.5-3.5c1.3,0,2.3,0.7,2.3,1.7c0,1.7-2.5,3.5-4.6,3.5C126,69.9,125,69.2,125,68.1z"/>
</g>
<rect x="140.5" y="66.9" width="10.5" height="0.8"/>
<rect x="142.3" y="65.6" width="0.5" height="18.1"/>
<g>
	<path d="M142.4,65.6c0-1.8,2.5-3.5,4.5-3.5c1.3,0,2.3,0.7,2.3,1.7c0,1.7-2.5,3.5-4.6,3.5C143.4,67.4,142.4,66.7,142.4,65.6z"/>
</g>
<rect x="156.7" y="66.9" width="10.5" height="0.8"/>
<rect x="156.7" y="61.9" width="10.5" height="0.8"/>
<rect x="158.4" y="63.1" width="0.5" height="18.9"/>
<g>
	<path d="M158.5,63.2c0-1.8,2.5-3.5,4.5-3.5c1.3,0,2.3,0.7,2.3,1.7c0,1.7-2.5,3.5-4.6,3.5C159.5,64.9,158.5,64.3,158.5,63.2z"/>
</g>
<rect x="107" y="66.9" width="10.5" height="0.8"/>
<rect x="115.3" y="48.8" width="0.5" height="15.2"/>
<g>
	<path d="M108.9,65.6c0-1.8,2.5-3.5,4.5-3.5c1.3,0,2.3,0.7,2.3,1.7c0,1.7-2.5,3.5-4.6,3.5C109.9,67.4,108.9,66.7,108.9,65.6z"/>
</g>
<rect x="123.2" y="66.9" width="10.5" height="0.8"/>
<rect x="123.2" y="61.9" width="10.5" height="0.8"/>
<rect x="131.5" y="47.3" width="0.5" height="14.3"/>
<g>
	<path d="M125,63.2c0-1.8,2.5-3.5,4.5-3.5c1.3,0,2.3,0.7,2.3,1.7c0,1.7-2.5,3.5-4.6,3.5C126,64.9,125,64.3,125,63.2z"/>
</g>
<rect x="140.5" y="66.9" width="10.5" height="0.8"/>
<rect x="140.5" y="61.9" width="10.5" height="0.8"/>
<rect x="148.8" y="45.6" width="0.5" height="13.5"/>
<g>
	<path d="M142.4,60.7c0-1.8,2.5-3.5,4.5-3.5c1.3,0,2.3,0.7,2.3,1.7c0,1.7-2.5,3.5-4.6,3.5C143.4,62.4,142.4,61.8,142.4,60.7z"/>
</g>
<rect x="156.7" y="66.9" width="10.5" height="0.8"/>
<rect x="156.7" y="61.9" width="10.5" height="0.8"/>
<rect x="156.7" y="57" width="10.5" height="0.8"/>
<rect x="164.9" y="43.9" width="0.5" height="12.7"/>
<g>
	<path d="M158.5,58.2c0-1.8,2.5-3.5,4.5-3.5c1.3,0,2.3,0.7,2.3,1.7c0,1.7-2.5,3.5-4.6,3.5C159.5,59.9,158.5,59.3,158.5,58.2z"/>
</g>
<rect x="365.6" y="66.9" width="10.5" height="0.8"/>
<rect x="365.6" y="61.9" width="10.5" height="0.8"/>
<rect x="365.6" y="57" width="10.5" height="0.8"/>
<rect x="373.9" y="41.4" width="0.5" height="12.7"/>
<g>
	<path d="M367.5,55.7c0-1.8,2.5-3.5,4.5-3.5c1.3,0,2.3,0.7,2.3,1.7c0,1.7-2.5,3.5-4.6,3.5C368.4,57.5,367.5,56.8,367.5,55.7z"/>
</g>
<rect x="381.7" y="66.9" width="10.5" height="0.8"/>
<rect x="381.7" y="61.9" width="10.5" height="0.8"/>
<rect x="381.7" y="57" width="10.5" height="0.8"/>
<rect x="390" y="42.9" width="0.5" height="13.6"/>
<g>
	<path d="M383.6,58.2c0-1.8,2.5-3.5,4.5-3.5c1.3,0,2.3,0.7,2.3,1.7c0,1.7-2.5,3.5-4.6,3.5C384.6,59.9,383.6,59.3,383.6,58.2z"/>
</g>
<rect x="397.9" y="66.9" width="10.5" height="0.8"/>
<rect x="397.9" y="61.9" width="10.5" height="0.8"/>
<rect x="406.2" y="44.6" width="0.5" height="14.4"/>
<g>
	<path d="M399.7,60.7c0-1.8,2.5-3.5,4.5-3.5c1.3,0,2.3,0.7,2.3,1.7c0,1.7-2.5,3.5-4.6,3.5C400.7,62.4,399.7,61.8,399.7,60.7z"/>
</g>
<rect x="413.8" y="66.9" width="10.5" height="0.8"/>
<rect x="413.8" y="61.9" width="10.5" height="0.8"/>
<rect x="422.1" y="46.3" width="0.5" height="15.2"/>
<g>
	<path d="M415.7,63.2c0-1.8,2.5-3.5,4.5-3.5c1.3,0,2.3,0.7,2.3,1.7c0,1.7-2.5,3.5-4.6,3.5C416.7,64.9,415.7,64.3,415.7,63.2z"/>
</g>
<rect x="365.6" y="66.9" width="10.5" height="0.8"/>
<rect x="365.6" y="61.9" width="10.5" height="0.8"/>
<rect x="367.4" y="60.6" width="0.5" height="21.4"/>
<g>
	<path d="M367.5,60.7c0-1.8,2.5-3.5,4.5-3.5c1.3,0,2.3,0.7,2.3,1.7c0,1.7-2.5,3.5-4.6,3.5C368.4,62.4,367.5,61.8,367.5,60.7z"/>
</g>
<rect x="381.7" y="66.9" width="10.5" height="0.8"/>
<rect x="381.7" y="61.9" width="10.5" height="0.8"/>
<rect x="383.5" y="63.1" width="0.5" height="19.2"/>
<g>
	<path d="M383.6,63.2c0-1.8,2.5-3.5,4.5-3.5c1.3,0,2.3,0.7,2.3,1.7c0,1.7-2.5,3.5-4.6,3.5C384.6,64.9,383.6,64.3,383.6,63.2z"/>
</g>
<rect x="397.9" y="66.9" width="10.5" height="0.8"/>
<rect x="399.6" y="65.6" width="0.5" height="17.2"/>
<g>
	<path d="M399.7,65.6c0-1.8,2.5-3.5,4.5-3.5c1.3,0,2.3,0.7,2.3,1.7c0,1.7-2.5,3.5-4.6,3.5C400.7,67.4,399.7,66.7,399.7,65.6z"/>
</g>
<rect x="413.8" y="66.9" width="10.5" height="0.8"/>
<rect x="415.6" y="68" width="0.5" height="15.2"/>
<g>
	<path d="M415.7,68.1c0-1.8,2.5-3.5,4.5-3.5c1.3,0,2.3,0.7,2.3,1.7c0,1.7-2.5,3.5-4.6,3.5C416.7,69.9,415.7,69.2,415.7,68.1z"/>
</g>
<rect x="429.9" y="66.9" width="10.5" height="0.8"/>
<rect x="438.2" y="51.3" width="0.5" height="12.7"/>
<g>
	<path d="M431.8,65.6c0-1.8,2.5-3.5,4.5-3.5c1.3,0,2.3,0.7,2.3,1.7c0,1.7-2.5,3.5-4.6,3.5C432.8,67.4,431.8,66.7,431.8,65.6z"/>
</g>
<rect x="446.1" y="66.9" width="10.5" height="0.8"/>
<rect x="454.4" y="52.9" width="0.5" height="13.6"/>
<g>
	<path d="M447.9,68.1c0-1.8,2.5-3.5,4.5-3.5c1.3,0,2.3,0.7,2.3,1.7c0,1.7-2.5,3.5-4.6,3.5C448.9,69.9,447.9,69.2,447.9,68.1z"/>
</g>
<rect x="470.5" y="54.6" width="0.5" height="14.4"/>
<g>
	<path d="M464,70.6c0-1.8,2.5-3.5,4.5-3.5c1.3,0,2.3,0.7,2.3,1.7c0,1.7-2.5,3.5-4.6,3.5C465,72.3,464,71.7,464,70.6z"/>
</g>
<rect x="486.4" y="56.3" width="0.5" height="15.2"/>
<g>
	<path d="M480,73.1c0-1.8,2.5-3.5,4.5-3.5c1.3,0,2.3,0.7,2.3,1.7c0,1.7-2.5,3.5-4.6,3.5C481,74.8,480,74.2,480,73.1z"/>
</g>
<rect x="502.7" y="61.1" width="0.5" height="12.9"/>
<g>
	<path d="M500.4,72c1.6,0,2.7,0.7,2.7,2c0,1.9-2.3,3.4-4.5,3.4c-1.3,0-2.4-0.7-2.4-1.8C496.1,73.8,498.4,72,500.4,72z M496.6,75.9
		c0,0.6,0.4,0.9,1.1,0.9c1.4,0,4.9-2.1,4.9-3.3c0-0.6-0.4-0.9-1.1-0.9C500.3,72.6,496.6,74.6,496.6,75.9z"/>
</g>
<rect x="431.7" y="70.5" width="0.5" height="16.4"/>
<g>
	<path d="M431.8,70.6c0-1.8,2.5-3.5,4.5-3.5c1.3,0,2.3,0.7,2.3,1.7c0,1.7-2.5,3.5-4.6,3.5C432.8,72.3,431.8,71.7,431.8,70.6z"/>
</g>
<rect x="447.8" y="73" width="0.5" height="15.5"/>
<g>
	<path d="M447.9,73.1c0-1.8,2.5-3.5,4.5-3.5c1.3,0,2.3,0.7,2.3,1.7c0,1.7-2.5,3.5-4.6,3.5C448.9,74.8,447.9,74.2,447.9,73.1z"/>
</g>
<rect x="464" y="75.5" width="0.5" height="14.7"/>
<g>
	<path d="M464,75.6c0-1.8,2.5-3.5,4.5-3.5c1.3,0,2.3,0.7,2.3,1.7c0,1.7-2.5,3.5-4.6,3.5C465,77.3,464,76.7,464,75.6z"/>
</g>
<rect x="479.9" y="78" width="0.5" height="14"/>
<g>
	<path d="M480,78c0-1.8,2.5-3.5,4.5-3.5c1.3,0,2.3,0.7,2.3,1.7c0,1.7-2.5,3.5-4.6,3.5C481,79.8,480,79.1,480,78z"/>
</g>
<rect x="496.1" y="80.4" width="0.5" height="16.6"/>
<g>
	<path d="M500.4,77c1.6,0,2.7,0.7,2.7,2c0,1.9-2.3,3.4-4.5,3.4c-1.3,0-2.4-0.7-2.4-1.8C496.1,78.8,498.4,77,500.4,77z M496.6,80.8
		c0,0.6,0.4,0.9,1.1,0.9c1.4,0,4.9-2.1,4.9-3.3c0-0.6-0.4-0.9-1.1-0.9C500.3,77.6,496.6,79.6,496.6,80.8z"/>
</g>
</svg>
