<?xml version="1.0" encoding="utf-8"?>

<!--
	ScaleBook
	Copyright (c) Leland Jansen 2015. All rights reserved.
-->

<!DOCTYPE svg PUBLIC "-//W3C//DTD SVG 1.1//EN" "http://www.w3.org/Graphics/SVG/1.1/DTD/svg11.dtd">
<svg version="1.1" id="Layer_1" xmlns="http://www.w3.org/2000/svg" xmlns:xlink="http://www.w3.org/1999/xlink" x="0px" y="0px"
	 viewBox="0 0 552.9 94.4" enable-background="new 0 0 552.9 94.4" xml:space="preserve">
<rect x="8.4" y="20" width="0.8" height="67"/>
<g>
	<path d="M7.4,20.6c-1.9,1.1-3.6,5.8-3.6,9.4c0,2.3,1.4,9.9,1.4,12.3c0,5-1.5,8.6-4.6,11.1c3,2.4,4.6,6.1,4.6,11.1
		c0,2.3-1.4,9.9-1.4,12.3c0,3.8,1.7,8.4,3.6,9.5v0.7c-3.5-2.3-5.8-8.2-5.8-13.1c0-2.1,1.7-9.4,1.7-11.5c0-3.8-1-6.6-2.9-8.2
		C0.1,53.8,0,53.6,0,53.4c0-0.2,0.1-0.4,0.5-0.7c1.9-1.7,2.9-4.2,2.9-7.6c0-2.1-1.7-10-1.7-12.2c0-5.2,2.1-10.4,5.8-13.1V20.6z"/>
</g>
<rect x="547.8" y="20" width="0.8" height="67"/>
<rect x="550.4" y="20" width="2.5" height="67"/>
<rect x="8.5" y="39.6" width="544.4" height="0.5"/>
<rect x="8.5" y="34.6" width="544.4" height="0.5"/>
<rect x="8.5" y="29.6" width="544.4" height="0.5"/>
<rect x="8.5" y="24.7" width="544.4" height="0.5"/>
<rect x="8.5" y="19.7" width="544.4" height="0.5"/>
<g>
	<path d="M20.3,39.6c-4.2,0-8.1-3.1-8.1-6.9c0-3.2,2.3-6.7,6.8-10.5c-0.3-1.2-0.4-2.4-0.4-3.6c0-3.5,1.2-6.8,3.2-8.5
		c1.8,2.5,2.7,4.9,2.7,7.1c0,2.9-1.3,5.6-4.3,8.1l0.9,4.2c0.5,0,0.8-0.1,0.8-0.1c2.6,0,4.8,2,4.8,4.7c0,1.9-1.4,3.7-3.6,4.8
		c0-0.1,0.9,3.8,0.9,4.3c0,2.5-2.3,4.2-4.9,4.2c-2,0-3.6-1.3-3.6-3.4c0-1.4,1-2.6,2.4-2.6c1.3,0,2.3,1.3,2.3,2.5
		c0,1.4-1.2,2.3-2.7,2.5c0.6,0.3,1.2,0.5,1.9,0.5c2.1,0,4.1-1.6,4.1-3.6c0-0.2,0-0.4-0.1-0.6l-0.8-3.7
		C21.9,39.5,21.2,39.6,20.3,39.6z M18.1,34.4c0,1,0.5,1.9,1.6,2.5c-1.8-0.3-3-1.4-3-3.1c0-2,1.7-3.7,3.8-4.1l-0.8-4
		C16,28.5,14,31.2,14,33.9c0,2.9,2.8,5.3,6,5.3c0.9,0,1.7-0.2,2.4-0.5L21,31.8C19.4,32,18.1,33.1,18.1,34.4z M22.1,13.1
		c-1.6,0-2.9,3.7-2.9,7c0,0.7,0,1.3,0.2,1.9c2.7-2.4,4-4.5,4-6.5c0-0.9-0.3-1.7-1-2.4C22.4,13.1,22.3,13.1,22.1,13.1z M24.9,35
		c0-1.6-1.2-3.3-2.9-3.3c-0.1,0-0.2,0-0.5,0l1.4,6.6C24.2,37.4,24.9,36.3,24.9,35z"/>
</g>
<g>
	<path d="M29.5,21.6h0.6L30,27.8c0.4-0.7,1-1,1.8-1c1.2,0,2.2,0.8,2.2,1.9c0,0.8-0.5,1.8-1.7,2.7l-2.8,2.1V21.6z M30.1,28.5
		C30,29.2,30,29.9,30,30.4c0,1,0,1.6,0.1,2c1-0.7,2.4-2.6,2.4-3.7c0-0.6-0.5-1.1-1.1-1.1C30.8,27.6,30.4,27.9,30.1,28.5z"/>
</g>
<g>
	<path d="M35.1,14.1h0.6l-0.1,6.2c0.4-0.7,1-1,1.8-1c1.2,0,2.2,0.8,2.2,1.9c0,0.8-0.5,1.8-1.7,2.7l-2.8,2.1V14.1z M35.7,21
		c-0.1,0.8-0.1,1.4-0.1,1.9c0,1,0,1.6,0.1,2c1-0.7,2.4-2.6,2.4-3.7c0-0.6-0.5-1.1-1.1-1.1C36.4,20.2,36,20.5,35.7,21z"/>
</g>
<g>
	<path d="M40.7,24h0.6l-0.1,6.2c0.4-0.7,1-1,1.8-1c1.2,0,2.2,0.8,2.2,1.9c0,0.8-0.5,1.8-1.7,2.7L40.7,36V24z M41.3,31
		c-0.1,0.8-0.1,1.4-0.1,1.9c0,1,0,1.6,0.1,2c1-0.7,2.4-2.6,2.4-3.7c0-0.6-0.5-1.1-1.1-1.1C42,30.1,41.6,30.4,41.3,31z"/>
</g>
<g>
	<path d="M46.3,16.6h0.6l-0.1,6.2c0.4-0.7,1-1,1.8-1c1.2,0,2.2,0.8,2.2,1.9c0,0.8-0.5,1.8-1.7,2.7l-2.8,2.1V16.6z M46.9,23.5
		c-0.1,0.8-0.1,1.4-0.1,1.9c0,1,0,1.6,0.1,2c1-0.7,2.4-2.6,2.4-3.7c0-0.6-0.5-1.1-1.1-1.1C47.6,22.7,47.2,23,46.9,23.5z"/>
</g>
<g>
	<path d="M51.9,26.5h0.6l-0.1,6.2c0.4-0.7,1-1,1.8-1c1.2,0,2.2,0.8,2.2,1.9c0,0.8-0.5,1.8-1.7,2.7l-2.8,2.1V26.5z M52.4,33.4
		c-0.1,0.8-0.1,1.4-0.1,1.9c0,1,0,1.6,0.1,2c1-0.7,2.4-2.6,2.4-3.7c0-0.6-0.5-1.1-1.1-1.1C53.2,32.6,52.7,32.9,52.4,33.4z"/>
</g>
<polygon fill-rule="evenodd" clip-rule="evenodd" points="71.6,26.2 115.7,21.2 115.7,18.7 71.6,23.7 "/>
<polygon fill-rule="evenodd" clip-rule="evenodd" points="71.6,22.4 115.7,17.5 115.7,15 71.6,20 "/>
<polygon fill-rule="evenodd" clip-rule="evenodd" points="123.9,46 168,41 168,38.6 123.9,43.5 "/>
<polygon fill-rule="evenodd" clip-rule="evenodd" points="123.9,49.7 168,44.8 168,42.3 123.9,47.2 "/>
<polygon fill-rule="evenodd" clip-rule="evenodd" points="194.3,36.1 238.5,31.1 238.5,28.6 194.3,33.6 "/>
<polygon fill-rule="evenodd" clip-rule="evenodd" points="194.3,39.8 238.5,34.8 238.5,32.4 194.3,37.3 "/>
<polygon fill-rule="evenodd" clip-rule="evenodd" points="253.2,27.4 297.4,26.2 297.4,23.7 253.2,24.9 "/>
<polygon fill-rule="evenodd" clip-rule="evenodd" points="253.2,31.1 297.4,29.9 297.4,27.4 253.2,28.6 "/>
<polygon fill-rule="evenodd" clip-rule="evenodd" points="312.1,26.2 356.3,31.1 356.3,28.6 312.1,23.7 "/>
<polygon fill-rule="evenodd" clip-rule="evenodd" points="312.1,29.9 356.3,34.8 356.3,32.4 312.1,27.4 "/>
<polygon fill-rule="evenodd" clip-rule="evenodd" points="382.7,36.1 426.7,41 426.7,38.6 382.7,33.6 "/>
<polygon fill-rule="evenodd" clip-rule="evenodd" points="382.7,39.8 426.7,44.8 426.7,42.3 382.7,37.3 "/>
<polygon fill-rule="evenodd" clip-rule="evenodd" points="447.9,16.2 492.1,21.2 492.1,18.7 447.9,13.8 "/>
<polygon fill-rule="evenodd" clip-rule="evenodd" points="447.9,12.5 492.1,17.5 492.1,15 447.9,10 "/>
<rect x="8.5" y="86.7" width="544.4" height="0.5"/>
<rect x="8.5" y="81.7" width="544.4" height="0.5"/>
<rect x="8.5" y="76.8" width="544.4" height="0.5"/>
<rect x="8.5" y="71.8" width="544.4" height="0.5"/>
<rect x="8.5" y="66.9" width="544.4" height="0.5"/>
<g>
	<path d="M15.7,81.3c2.9-2.6,4.7-6.1,4.7-9.2c0-2.5-1.4-4.4-3.7-4.4c-1.6,0-3.4,1.3-3.4,2.7c0,0.2,0,0.3,0.1,0.3
		c-0.1,0,0.6-0.6,1.4-0.6c0.9,0,1.5,0.8,1.5,1.7c0,1.2-0.9,2.2-2.1,2.2c-1.2,0-2.1-1.3-2.1-2.8c0-2.3,2.3-4.1,4.8-4.1
		c4.7,0,5.9,3.2,5.9,5.8c0,1.6-0.4,2.9-2,5.3c-1.9,3.1-6.4,5.3-8.1,5.3c-0.4,0-0.6-0.2-0.6-0.5C13.8,82.5,14.9,82,15.7,81.3z
		 M25.7,68.6c0.6,0,1,0.4,1,1c0,0.6-0.4,1-1,1s-1-0.4-1-1C24.7,69,25.1,68.6,25.7,68.6z M25.7,73.5c0.6,0,1,0.4,1,1c0,0.6-0.4,1-1,1
		s-1-0.4-1-1C24.7,73.9,25.1,73.5,25.7,73.5z"/>
</g>
<g>
	<path d="M29.5,73.7h0.6L30,79.9c0.4-0.7,1-1,1.8-1c1.2,0,2.2,0.8,2.2,1.9c0,0.8-0.5,1.8-1.7,2.7l-2.8,2.1V73.7z M30.1,80.6
		C30,81.3,30,82,30,82.5c0,1,0,1.6,0.1,2c1-0.7,2.4-2.6,2.4-3.7c0-0.6-0.5-1.1-1.1-1.1C30.8,79.7,30.4,80,30.1,80.6z"/>
</g>
<g>
	<path d="M35.1,66.2h0.6l-0.1,6.2c0.4-0.7,1-1,1.8-1c1.2,0,2.2,0.8,2.2,1.9c0,0.8-0.5,1.8-1.7,2.7l-2.8,2.1V66.2z M35.7,73.1
		c-0.1,0.8-0.1,1.4-0.1,1.9c0,1,0,1.6,0.1,2c1-0.7,2.4-2.6,2.4-3.7c0-0.6-0.5-1.1-1.1-1.1C36.4,72.3,36,72.6,35.7,73.1z"/>
</g>
<g>
	<path d="M40.7,76.1h0.6l-0.1,6.2c0.4-0.7,1-1,1.8-1c1.2,0,2.2,0.8,2.2,1.9c0,0.8-0.5,1.8-1.7,2.7l-2.8,2.1V76.1z M41.3,83
		c-0.1,0.8-0.1,1.4-0.1,1.9c0,1,0,1.6,0.1,2c1-0.7,2.4-2.6,2.4-3.7c0-0.6-0.5-1.1-1.1-1.1C42,82.2,41.6,82.5,41.3,83z"/>
</g>
<g>
	<path d="M46.3,68.7h0.6l-0.1,6.2c0.4-0.7,1-1,1.8-1c1.2,0,2.2,0.8,2.2,1.9c0,0.8-0.5,1.8-1.7,2.7l-2.8,2.1V68.7z M46.9,75.6
		c-0.1,0.8-0.1,1.4-0.1,1.9c0,1,0,1.6,0.1,2c1-0.7,2.4-2.6,2.4-3.7c0-0.6-0.5-1.1-1.1-1.1C47.6,74.8,47.2,75,46.9,75.6z"/>
</g>
<g>
	<path d="M51.9,78.6h0.6l-0.1,6.2c0.4-0.7,1-1,1.8-1c1.2,0,2.2,0.8,2.2,1.9c0,0.8-0.5,1.8-1.7,2.7l-2.8,2.1V78.6z M52.4,85.5
		c-0.1,0.8-0.1,1.4-0.1,1.9c0,1,0,1.6,0.1,2c1-0.7,2.4-2.6,2.4-3.7c0-0.6-0.5-1.1-1.1-1.1C53.2,84.7,52.7,85,52.4,85.5z"/>
</g>
<polygon fill-rule="evenodd" clip-rule="evenodd" points="65,88.2 109.2,83.2 109.2,80.7 65,85.7 "/>
<polygon fill-rule="evenodd" clip-rule="evenodd" points="65,91.9 109.2,86.9 109.2,84.4 65,89.4 "/>
<g>
	<path d="M188.2,85.6c-3.2,0-6.1-2.3-6.1-5.1c0-2.4,1.7-5,5.1-7.9c-0.2-0.9-0.3-1.8-0.3-2.7c0-2.6,0.9-5.1,2.4-6.3
		c1.4,1.9,2,3.7,2,5.3c0,2.2-1,4.2-3.2,6.1l0.7,3.1c0.4,0,0.6,0,0.6,0c2,0,3.6,1.5,3.6,3.5c0,1.4-1.1,2.8-2.7,3.6
		c0-0.1,0.6,2.8,0.6,3.3c0,1.9-1.7,3.2-3.7,3.2c-1.5,0-2.7-1-2.7-2.5c0-1.1,0.7-1.9,1.8-1.9c1,0,1.7,1,1.7,1.9c0,1-0.9,1.7-2,1.8
		c0.4,0.2,0.9,0.3,1.4,0.3c1.6,0,3.1-1.2,3.1-2.7c0-0.1,0-0.3,0-0.5l-0.6-2.8C189.4,85.5,188.9,85.6,188.2,85.6z M186.5,81.7
		c0,0.8,0.4,1.4,1.2,1.9c-1.3-0.2-2.2-1.1-2.2-2.3c0-1.5,1.3-2.8,2.9-3.1l-0.6-3c-2.8,2.1-4.3,4.1-4.3,6.1c0,2.2,2.1,4,4.5,4
		c0.7,0,1.3-0.1,1.8-0.4l-1.1-5.1C187.5,79.9,186.5,80.6,186.5,81.7z M189.5,65.6c-1.2,0-2.2,2.8-2.2,5.3c0,0.5,0,1,0.1,1.4
		c2-1.8,3-3.4,3-4.9c0-0.7-0.3-1.3-0.7-1.8C189.7,65.7,189.6,65.6,189.5,65.6z M191.6,82.1c0-1.2-0.9-2.4-2.2-2.4c0,0-0.2,0-0.4,0
		l1.1,5C191.1,83.9,191.6,83,191.6,82.1z"/>
</g>
<polygon fill-rule="evenodd" clip-rule="evenodd" points="123.9,78.2 168,73.3 168,70.8 123.9,75.8 "/>
<polygon fill-rule="evenodd" clip-rule="evenodd" points="123.9,82 168,77 168,74.5 123.9,79.5 "/>
<polygon fill-rule="evenodd" clip-rule="evenodd" points="200.8,68.3 245,63.4 245,60.9 200.8,65.8 "/>
<polygon fill-rule="evenodd" clip-rule="evenodd" points="200.8,64.6 245,59.6 245,57.2 200.8,62.1 "/>
<polygon fill-rule="evenodd" clip-rule="evenodd" points="253.2,89.4 297.4,88.2 297.4,85.7 253.2,86.9 "/>
<polygon fill-rule="evenodd" clip-rule="evenodd" points="253.2,93.1 297.4,91.9 297.4,89.4 253.2,90.6 "/>
<g>
	<path d="M371.2,79c2.2-2,3.6-4.6,3.6-6.9c0-1.9-1.1-3.3-2.8-3.3c-1.2,0-2.5,1-2.5,2.1c0,0.2,0,0.2,0.1,0.2c0,0,0.4-0.5,1-0.5
		c0.7,0,1.2,0.6,1.2,1.3c0,0.9-0.6,1.7-1.6,1.7s-1.5-1-1.5-2.1c0-1.8,1.7-3.1,3.6-3.1c3.5,0,4.4,2.4,4.4,4.4c0,1.2-0.3,2.2-1.5,4
		c-1.4,2.3-4.8,4-6,4c-0.3,0-0.5-0.1-0.5-0.3C369.8,79.9,370.6,79.5,371.2,79z M378.7,69.4c0.4,0,0.7,0.3,0.7,0.7
		c0,0.4-0.3,0.7-0.7,0.7c-0.4,0-0.7-0.3-0.7-0.7C377.9,69.8,378.3,69.4,378.7,69.4z M378.7,73.1c0.4,0,0.7,0.3,0.7,0.7
		s-0.3,0.7-0.7,0.7c-0.4,0-0.7-0.3-0.7-0.7S378.3,73.1,378.7,73.1z"/>
</g>
<polygon fill-rule="evenodd" clip-rule="evenodd" points="318.6,63.4 362.8,68.3 362.8,65.8 318.6,60.9 "/>
<polygon fill-rule="evenodd" clip-rule="evenodd" points="318.6,59.6 362.8,64.6 362.8,62.1 318.6,57.2 "/>
<polygon fill-rule="evenodd" clip-rule="evenodd" points="382.7,73.3 426.7,78.2 426.7,75.8 382.7,70.8 "/>
<polygon fill-rule="evenodd" clip-rule="evenodd" points="382.7,77 426.7,82 426.7,79.5 382.7,74.5 "/>
<polygon fill-rule="evenodd" clip-rule="evenodd" points="441.4,83.2 485.6,88.2 485.6,85.7 441.4,80.7 "/>
<polygon fill-rule="evenodd" clip-rule="evenodd" points="441.4,86.9 485.6,91.9 485.6,89.4 441.4,84.4 "/>
<rect x="71.3" y="20.1" width="0.5" height="21.4"/>
<g>
	<path d="M64.9,43.1c0-1.8,2.5-3.5,4.5-3.5c1.3,0,2.3,0.7,2.3,1.7c0,1.7-2.5,3.5-4.6,3.5C65.9,44.9,64.9,44.2,64.9,43.1z"/>
</g>
<g>
	<path d="M64.9,38.2c0-1.8,2.5-3.5,4.5-3.5c1.3,0,2.3,0.7,2.3,1.7c0,1.7-2.5,3.5-4.6,3.5C65.9,39.9,64.9,39.3,64.9,38.2z"/>
</g>
<rect x="86" y="18.6" width="0.5" height="20.5"/>
<g>
	<path d="M79.6,40.7c0-1.8,2.5-3.5,4.5-3.5c1.3,0,2.3,0.7,2.3,1.7c0,1.7-2.5,3.5-4.6,3.5C80.6,42.4,79.6,41.7,79.6,40.7z"/>
</g>
<g>
	<path d="M79.6,35.7c0-1.8,2.5-3.5,4.5-3.5c1.3,0,2.3,0.7,2.3,1.7c0,1.7-2.5,3.5-4.6,3.5C80.6,37.4,79.6,36.8,79.6,35.7z"/>
</g>
<rect x="100.8" y="16.9" width="0.5" height="19.7"/>
<g>
	<path d="M94.3,38.2c0-1.8,2.5-3.5,4.5-3.5c1.3,0,2.3,0.7,2.3,1.7c0,1.7-2.5,3.5-4.6,3.5C95.3,39.9,94.3,39.3,94.3,38.2z"/>
</g>
<g>
	<path d="M94.3,33.2c0-1.8,2.5-3.5,4.5-3.5c1.3,0,2.3,0.7,2.3,1.7c0,1.7-2.5,3.5-4.6,3.5C95.3,34.9,94.3,34.3,94.3,33.2z"/>
</g>
<rect x="115.5" y="15.2" width="0.5" height="18.9"/>
<g>
	<path d="M109.1,35.7c0-1.8,2.5-3.5,4.5-3.5c1.3,0,2.3,0.7,2.3,1.7c0,1.7-2.5,3.5-4.6,3.5C110,37.4,109.1,36.8,109.1,35.7z"/>
</g>
<g>
	<path d="M109.1,30.7c0-1.8,2.5-3.5,4.5-3.5c1.3,0,2.3,0.7,2.3,1.7c0,1.7-2.5,3.5-4.6,3.5C110,32.5,109.1,31.8,109.1,30.7z"/>
</g>
<rect x="123.7" y="28.2" width="0.5" height="21.4"/>
<g>
	<path d="M123.8,28.3c0-1.8,2.5-3.5,4.5-3.5c1.3,0,2.3,0.7,2.3,1.7c0,1.7-2.5,3.5-4.6,3.5C124.8,30,123.8,29.3,123.8,28.3z"/>
</g>
<g>
	<path d="M123.8,33.2c0-1.8,2.5-3.5,4.5-3.5c1.3,0,2.3,0.7,2.3,1.7c0,1.7-2.5,3.5-4.6,3.5C124.8,34.9,123.8,34.3,123.8,33.2z"/>
</g>
<rect x="138.4" y="25.7" width="0.5" height="22.3"/>
<g>
	<path d="M138.5,25.8c0-1.8,2.5-3.5,4.5-3.5c1.3,0,2.3,0.7,2.3,1.7c0,1.7-2.5,3.5-4.6,3.5C139.5,27.5,138.5,26.9,138.5,25.8z"/>
</g>
<g>
	<path d="M138.5,30.7c0-1.8,2.5-3.5,4.5-3.5c1.3,0,2.3,0.7,2.3,1.7c0,1.7-2.5,3.5-4.6,3.5C139.5,32.5,138.5,31.8,138.5,30.7z"/>
</g>
<rect x="153.2" y="23.2" width="0.5" height="23.1"/>
<g>
	<path d="M153.2,23.3c0-1.8,2.5-3.5,4.5-3.5c1.3,0,2.3,0.7,2.3,1.7c0,1.7-2.5,3.5-4.6,3.5C154.2,25,153.2,24.4,153.2,23.3z"/>
</g>
<g>
	<path d="M153.2,28.3c0-1.8,2.5-3.5,4.5-3.5c1.3,0,2.3,0.7,2.3,1.7c0,1.7-2.5,3.5-4.6,3.5C154.2,30,153.2,29.3,153.2,28.3z"/>
</g>
<rect x="167.7" y="20.7" width="0.5" height="23.9"/>
<g>
	<path d="M167.8,20.8c0-1.8,2.5-3.5,4.5-3.5c1.3,0,2.3,0.7,2.3,1.7c0,1.7-2.5,3.5-4.6,3.5C168.8,22.5,167.8,21.9,167.8,20.8z"/>
</g>
<g>
	<path d="M167.8,25.8c0-1.8,2.5-3.5,4.5-3.5c1.3,0,2.3,0.7,2.3,1.7c0,1.7-2.5,3.5-4.6,3.5C168.8,27.5,167.8,26.9,167.8,25.8z"/>
</g>
<rect x="194.1" y="18.3" width="0.5" height="21.4"/>
<g>
	<path d="M194.2,18.3c0-1.8,2.5-3.5,4.5-3.5c1.3,0,2.3,0.7,2.3,1.7c0,1.7-2.5,3.5-4.6,3.5C195.1,20.1,194.2,19.4,194.2,18.3z"/>
</g>
<g>
	<path d="M194.2,23.3c0-1.8,2.5-3.5,4.5-3.5c1.3,0,2.3,0.7,2.3,1.7c0,1.7-2.5,3.5-4.6,3.5C195.1,25,194.2,24.4,194.2,23.3z"/>
</g>
<rect x="207" y="14.6" width="10.5" height="0.8"/>
<rect x="208.8" y="15.8" width="0.5" height="22.3"/>
<g>
	<path d="M208.9,15.9c0-1.8,2.5-3.5,4.5-3.5c1.3,0,2.3,0.7,2.3,1.7c0,1.7-2.5,3.5-4.6,3.5C209.9,17.6,208.9,16.9,208.9,15.9z"/>
</g>
<g>
	<path d="M208.9,20.8c0-1.8,2.5-3.5,4.5-3.5c1.3,0,2.3,0.7,2.3,1.7c0,1.7-2.5,3.5-4.6,3.5C209.9,22.5,208.9,21.9,208.9,20.8z"/>
</g>
<rect x="221.8" y="14.6" width="10.5" height="0.8"/>
<rect x="223.5" y="13.3" width="0.5" height="23.1"/>
<g>
	<path d="M223.6,13.4c0-1.8,2.5-3.5,4.5-3.5c1.3,0,2.3,0.7,2.3,1.7c0,1.7-2.5,3.5-4.6,3.5C224.6,15.1,223.6,14.5,223.6,13.4z"/>
</g>
<g>
	<path d="M223.6,18.3c0-1.8,2.5-3.5,4.5-3.5c1.3,0,2.3,0.7,2.3,1.7c0,1.7-2.5,3.5-4.6,3.5C224.6,20.1,223.6,19.4,223.6,18.3z"/>
</g>
<rect x="236.5" y="14.6" width="10.5" height="0.8"/>
<rect x="236.5" y="9.7" width="10.5" height="0.8"/>
<rect x="238.3" y="10.8" width="0.5" height="23.9"/>
<g>
	<path d="M238.3,10.9c0-1.8,2.5-3.5,4.5-3.5c1.3,0,2.3,0.7,2.3,1.7c0,1.7-2.5,3.5-4.6,3.5C239.3,12.6,238.3,12,238.3,10.9z"/>
</g>
<g>
	<path d="M238.3,15.9c0-1.8,2.5-3.5,4.5-3.5c1.3,0,2.3,0.7,2.3,1.7c0,1.7-2.5,3.5-4.6,3.5C239.3,17.6,238.3,16.9,238.3,15.9z"/>
</g>
<rect x="251.2" y="14.6" width="10.5" height="0.8"/>
<rect x="251.2" y="9.7" width="10.5" height="0.8"/>
<rect x="253" y="8.3" width="0.5" height="22.6"/>
<g>
	<path d="M253.1,8.4c0-1.8,2.5-3.5,4.5-3.5c1.3,0,2.3,0.7,2.3,1.7c0,1.7-2.5,3.5-4.6,3.5C254,10.1,253.1,9.5,253.1,8.4z"/>
</g>
<g>
	<path d="M253.1,13.4c0-1.8,2.5-3.5,4.5-3.5c1.3,0,2.3,0.7,2.3,1.7c0,1.7-2.5,3.5-4.6,3.5C254,15.1,253.1,14.5,253.1,13.4z"/>
</g>
<rect x="265.9" y="14.6" width="10.5" height="0.8"/>
<rect x="265.9" y="9.7" width="10.5" height="0.8"/>
<rect x="265.9" y="4.7" width="10.5" height="0.8"/>
<rect x="267.7" y="5.9" width="0.5" height="24.8"/>
<g>
	<path d="M267.8,5.9c0-1.8,2.5-3.5,4.5-3.5c1.3,0,2.3,0.7,2.3,1.7c0,1.7-2.5,3.5-4.6,3.5C268.8,7.7,267.8,7,267.8,5.9z"/>
</g>
<g>
	<path d="M267.8,10.9c0-1.8,2.5-3.5,4.5-3.5c1.3,0,2.3,0.7,2.3,1.7c0,1.7-2.5,3.5-4.6,3.5C268.8,12.6,267.8,12,267.8,10.9z"/>
</g>
<rect x="280.7" y="14.6" width="10.5" height="0.8"/>
<rect x="280.7" y="9.7" width="10.5" height="0.8"/>
<rect x="280.7" y="4.7" width="10.5" height="0.8"/>
<rect x="282.4" y="3.4" width="0.5" height="26.8"/>
<g>
	<path d="M282.5,3.5c0-1.8,2.5-3.5,4.5-3.5c1.3,0,2.3,0.7,2.3,1.7c0,1.7-2.5,3.5-4.6,3.5C283.5,5.2,282.5,4.5,282.5,3.5z"/>
</g>
<g>
	<path d="M282.5,8.4c0-1.8,2.5-3.5,4.5-3.5c1.3,0,2.3,0.7,2.3,1.7c0,1.7-2.5,3.5-4.6,3.5C283.5,10.1,282.5,9.5,282.5,8.4z"/>
</g>
<rect x="295.4" y="14.6" width="10.5" height="0.8"/>
<rect x="295.4" y="9.7" width="10.5" height="0.8"/>
<rect x="295.4" y="4.7" width="10.5" height="0.8"/>
<rect x="297.2" y="5.9" width="0.5" height="23.9"/>
<g>
	<path d="M297.3,5.9c0-1.8,2.5-3.5,4.5-3.5c1.3,0,2.3,0.7,2.3,1.7c0,1.7-2.5,3.5-4.6,3.5C298.2,7.7,297.3,7,297.3,5.9z"/>
</g>
<g>
	<path d="M297.3,10.9c0-1.8,2.5-3.5,4.5-3.5c1.3,0,2.3,0.7,2.3,1.7c0,1.7-2.5,3.5-4.6,3.5C298.2,12.6,297.3,12,297.3,10.9z"/>
</g>
<rect x="310.1" y="14.6" width="10.5" height="0.8"/>
<rect x="310.1" y="9.7" width="10.5" height="0.8"/>
<rect x="311.9" y="8.3" width="0.5" height="21.4"/>
<g>
	<path d="M312,8.4c0-1.8,2.5-3.5,4.5-3.5c1.3,0,2.3,0.7,2.3,1.7c0,1.7-2.5,3.5-4.6,3.5C313,10.1,312,9.5,312,8.4z"/>
</g>
<g>
	<path d="M312,13.4c0-1.8,2.5-3.5,4.5-3.5c1.3,0,2.3,0.7,2.3,1.7c0,1.7-2.5,3.5-4.6,3.5C313,15.1,312,14.5,312,13.4z"/>
</g>
<rect x="324.8" y="14.6" width="10.5" height="0.8"/>
<rect x="324.8" y="9.7" width="10.5" height="0.8"/>
<rect x="326.6" y="10.8" width="0.5" height="20.5"/>
<g>
	<path d="M326.7,10.9c0-1.8,2.5-3.5,4.5-3.5c1.3,0,2.3,0.7,2.3,1.7c0,1.7-2.5,3.5-4.6,3.5C327.7,12.6,326.7,12,326.7,10.9z"/>
</g>
<g>
	<path d="M326.7,15.9c0-1.8,2.5-3.5,4.5-3.5c1.3,0,2.3,0.7,2.3,1.7c0,1.7-2.5,3.5-4.6,3.5C327.7,17.6,326.7,16.9,326.7,15.9z"/>
</g>
<rect x="339.6" y="14.6" width="10.5" height="0.8"/>
<rect x="341.4" y="13.3" width="0.5" height="19.7"/>
<g>
	<path d="M341.4,13.4c0-1.8,2.5-3.5,4.5-3.5c1.3,0,2.3,0.7,2.3,1.7c0,1.7-2.5,3.5-4.6,3.5C342.4,15.1,341.4,14.5,341.4,13.4z"/>
</g>
<g>
	<path d="M341.4,18.3c0-1.8,2.5-3.5,4.5-3.5c1.3,0,2.3,0.7,2.3,1.7c0,1.7-2.5,3.5-4.6,3.5C342.4,20.1,341.4,19.4,341.4,18.3z"/>
</g>
<rect x="354.3" y="14.6" width="10.5" height="0.8"/>
<rect x="356.1" y="15.8" width="0.5" height="18.9"/>
<g>
	<path d="M356.2,15.9c0-1.8,2.5-3.5,4.5-3.5c1.3,0,2.3,0.7,2.3,1.7c0,1.7-2.5,3.5-4.6,3.5C357.1,17.6,356.2,16.9,356.2,15.9z"/>
</g>
<g>
	<path d="M356.2,20.8c0-1.8,2.5-3.5,4.5-3.5c1.3,0,2.3,0.7,2.3,1.7c0,1.7-2.5,3.5-4.6,3.5C357.1,22.5,356.2,21.9,356.2,20.8z"/>
</g>
<rect x="382.4" y="18.3" width="0.5" height="21.4"/>
<g>
	<path d="M382.5,18.3c0-1.8,2.5-3.5,4.5-3.5c1.3,0,2.3,0.7,2.3,1.7c0,1.7-2.5,3.5-4.6,3.5C383.5,20.1,382.5,19.4,382.5,18.3z"/>
</g>
<g>
	<path d="M382.5,23.3c0-1.8,2.5-3.5,4.5-3.5c1.3,0,2.3,0.7,2.3,1.7c0,1.7-2.5,3.5-4.6,3.5C383.5,25,382.5,24.4,382.5,23.3z"/>
</g>
<rect x="397.2" y="20.7" width="0.5" height="20.5"/>
<g>
	<path d="M397.2,20.8c0-1.8,2.5-3.5,4.5-3.5c1.3,0,2.3,0.7,2.3,1.7c0,1.7-2.5,3.5-4.6,3.5C398.2,22.5,397.2,21.9,397.2,20.8z"/>
</g>
<g>
	<path d="M397.2,25.8c0-1.8,2.5-3.5,4.5-3.5c1.3,0,2.3,0.7,2.3,1.7c0,1.7-2.5,3.5-4.6,3.5C398.2,27.5,397.2,26.9,397.2,25.8z"/>
</g>
<rect x="411.9" y="23.2" width="0.5" height="19.7"/>
<g>
	<path d="M412,23.3c0-1.8,2.5-3.5,4.5-3.5c1.3,0,2.3,0.7,2.3,1.7c0,1.7-2.5,3.5-4.6,3.5C412.9,25,412,24.4,412,23.3z"/>
</g>
<g>
	<path d="M412,28.3c0-1.8,2.5-3.5,4.5-3.5c1.3,0,2.3,0.7,2.3,1.7c0,1.7-2.5,3.5-4.6,3.5C412.9,30,412,29.3,412,28.3z"/>
</g>
<rect x="426.5" y="25.7" width="0.5" height="18.9"/>
<g>
	<path d="M426.5,25.8c0-1.8,2.5-3.5,4.5-3.5c1.3,0,2.3,0.7,2.3,1.7c0,1.7-2.5,3.5-4.6,3.5C427.5,27.5,426.5,26.9,426.5,25.8z"/>
</g>
<g>
	<path d="M426.5,30.7c0-1.8,2.5-3.5,4.5-3.5c1.3,0,2.3,0.7,2.3,1.7c0,1.7-2.5,3.5-4.6,3.5C427.5,32.5,426.5,31.8,426.5,30.7z"/>
</g>
<rect x="447.7" y="10.2" width="0.5" height="21.4"/>
<g>
	<path d="M441.3,33.2c0-1.8,2.5-3.5,4.5-3.5c1.3,0,2.3,0.7,2.3,1.7c0,1.7-2.5,3.5-4.6,3.5C442.2,34.9,441.3,34.3,441.3,33.2z"/>
</g>
<g>
	<path d="M441.3,28.3c0-1.8,2.5-3.5,4.5-3.5c1.3,0,2.3,0.7,2.3,1.7c0,1.7-2.5,3.5-4.6,3.5C442.2,30,441.3,29.3,441.3,28.3z"/>
</g>
<rect x="462.4" y="11.7" width="0.5" height="22.3"/>
<g>
	<path d="M456,35.7c0-1.8,2.5-3.5,4.5-3.5c1.3,0,2.3,0.7,2.3,1.7c0,1.7-2.5,3.5-4.6,3.5C457,37.4,456,36.8,456,35.7z"/>
</g>
<g>
	<path d="M456,30.7c0-1.8,2.5-3.5,4.5-3.5c1.3,0,2.3,0.7,2.3,1.7c0,1.7-2.5,3.5-4.6,3.5C457,32.5,456,31.8,456,30.7z"/>
</g>
<rect x="477.1" y="13.4" width="0.5" height="23.1"/>
<g>
	<path d="M470.7,38.2c0-1.8,2.5-3.5,4.5-3.5c1.3,0,2.3,0.7,2.3,1.7c0,1.7-2.5,3.5-4.6,3.5C471.7,39.9,470.7,39.3,470.7,38.2z"/>
</g>
<g>
	<path d="M470.7,33.2c0-1.8,2.5-3.5,4.5-3.5c1.3,0,2.3,0.7,2.3,1.7c0,1.7-2.5,3.5-4.6,3.5C471.7,34.9,470.7,34.3,470.7,33.2z"/>
</g>
<rect x="491.9" y="15.2" width="0.5" height="23.9"/>
<g>
	<path d="M485.4,40.7c0-1.8,2.5-3.5,4.5-3.5c1.3,0,2.3,0.7,2.3,1.7c0,1.7-2.5,3.5-4.6,3.5C486.4,42.4,485.4,41.7,485.4,40.7z"/>
</g>
<g>
	<path d="M485.4,35.7c0-1.8,2.5-3.5,4.5-3.5c1.3,0,2.3,0.7,2.3,1.7c0,1.7-2.5,3.5-4.6,3.5C486.4,37.4,485.4,36.8,485.4,35.7z"/>
</g>
<rect x="506.8" y="20" width="0.5" height="21.5"/>
<g>
	<path d="M504.4,39.6c1.6,0,2.7,0.7,2.7,2c0,1.9-2.3,3.4-4.5,3.4c-1.3,0-2.4-0.7-2.4-1.8C500.2,41.4,502.4,39.6,504.4,39.6z
		 M500.6,43.4c0,0.6,0.4,0.9,1.1,0.9c1.4,0,4.9-2.1,4.9-3.3c0-0.6-0.4-0.9-1.1-0.9C504.3,40.2,500.6,42.2,500.6,43.4z"/>
</g>
<g>
	<path d="M504.4,34.6c1.6,0,2.7,0.7,2.7,2c0,1.9-2.3,3.4-4.5,3.4c-1.3,0-2.4-0.7-2.4-1.8C500.2,36.4,502.4,34.6,504.4,34.6z
		 M500.6,38.5c0,0.6,0.4,0.9,1.1,0.9c1.4,0,4.9-2.1,4.9-3.3c0-0.6-0.4-0.9-1.1-0.9C504.3,35.2,500.6,37.2,500.6,38.5z"/>
</g>
<rect x="64.8" y="72.8" width="0.5" height="18.9"/>
<g>
	<path d="M64.9,72.9c0-1.8,2.5-3.5,4.5-3.5c1.3,0,2.3,0.7,2.3,1.7c0,1.7-2.5,3.5-4.6,3.5C65.9,74.6,64.9,74,64.9,72.9z"/>
</g>
<g>
	<path d="M64.9,77.9c0-1.8,2.5-3.5,4.5-3.5c1.3,0,2.3,0.7,2.3,1.7c0,1.7-2.5,3.5-4.6,3.5C65.9,79.6,64.9,78.9,64.9,77.9z"/>
</g>
<rect x="79.5" y="70.3" width="0.5" height="19.8"/>
<g>
	<path d="M79.6,70.4c0-1.8,2.5-3.5,4.5-3.5c1.3,0,2.3,0.7,2.3,1.7c0,1.7-2.5,3.5-4.6,3.5C80.6,72.1,79.6,71.5,79.6,70.4z"/>
</g>
<g>
	<path d="M79.6,75.4c0-1.8,2.5-3.5,4.5-3.5c1.3,0,2.3,0.7,2.3,1.7c0,1.7-2.5,3.5-4.6,3.5C80.6,77.1,79.6,76.5,79.6,75.4z"/>
</g>
<rect x="94.3" y="67.9" width="0.5" height="20.6"/>
<g>
	<path d="M94.3,67.9c0-1.8,2.5-3.5,4.5-3.5c1.3,0,2.3,0.7,2.3,1.7c0,1.7-2.5,3.5-4.6,3.5C95.3,69.7,94.3,69,94.3,67.9z"/>
</g>
<g>
	<path d="M94.3,72.9c0-1.8,2.5-3.5,4.5-3.5c1.3,0,2.3,0.7,2.3,1.7c0,1.7-2.5,3.5-4.6,3.5C95.3,74.6,94.3,74,94.3,72.9z"/>
</g>
<rect x="109" y="65.4" width="0.5" height="21.4"/>
<g>
	<path d="M109.1,65.5c0-1.8,2.5-3.5,4.5-3.5c1.3,0,2.3,0.7,2.3,1.7c0,1.7-2.5,3.5-4.6,3.5C110,67.2,109.1,66.5,109.1,65.5z"/>
</g>
<g>
	<path d="M109.1,70.4c0-1.8,2.5-3.5,4.5-3.5c1.3,0,2.3,0.7,2.3,1.7c0,1.7-2.5,3.5-4.6,3.5C110,72.1,109.1,71.5,109.1,70.4z"/>
</g>
<rect x="121.9" y="61.7" width="10.5" height="0.8"/>
<rect x="123.7" y="62.9" width="0.5" height="18.9"/>
<g>
	<path d="M123.8,63c0-1.8,2.5-3.5,4.5-3.5c1.3,0,2.3,0.7,2.3,1.7c0,1.7-2.5,3.5-4.6,3.5C124.8,64.7,123.8,64.1,123.8,63z"/>
</g>
<g>
	<path d="M123.8,67.9c0-1.8,2.5-3.5,4.5-3.5c1.3,0,2.3,0.7,2.3,1.7c0,1.7-2.5,3.5-4.6,3.5C124.8,69.7,123.8,69,123.8,67.9z"/>
</g>
<rect x="136.7" y="61.7" width="10.5" height="0.8"/>
<rect x="138.4" y="60.4" width="0.5" height="19.8"/>
<g>
	<path d="M138.5,60.5c0-1.8,2.5-3.5,4.5-3.5c1.3,0,2.3,0.7,2.3,1.7c0,1.7-2.5,3.5-4.6,3.5C139.5,62.2,138.5,61.6,138.5,60.5z"/>
</g>
<g>
	<path d="M138.5,65.5c0-1.8,2.5-3.5,4.5-3.5c1.3,0,2.3,0.7,2.3,1.7c0,1.7-2.5,3.5-4.6,3.5C139.5,67.2,138.5,66.5,138.5,65.5z"/>
</g>
<rect x="151.4" y="61.7" width="10.5" height="0.8"/>
<rect x="151.4" y="56.8" width="10.5" height="0.8"/>
<rect x="153.2" y="57.9" width="0.5" height="20.6"/>
<g>
	<path d="M153.2,58c0-1.8,2.5-3.5,4.5-3.5c1.3,0,2.3,0.7,2.3,1.7c0,1.7-2.5,3.5-4.6,3.5C154.2,59.7,153.2,59.1,153.2,58z"/>
</g>
<g>
	<path d="M153.2,63c0-1.8,2.5-3.5,4.5-3.5c1.3,0,2.3,0.7,2.3,1.7c0,1.7-2.5,3.5-4.6,3.5C154.2,64.7,153.2,64.1,153.2,63z"/>
</g>
<rect x="166" y="61.7" width="10.5" height="0.8"/>
<rect x="166" y="56.8" width="10.5" height="0.8"/>
<rect x="167.7" y="55.5" width="0.5" height="21.4"/>
<g>
	<path d="M167.8,55.5c0-1.8,2.5-3.5,4.5-3.5c1.3,0,2.3,0.7,2.3,1.7c0,1.7-2.5,3.5-4.6,3.5C168.8,57.3,167.8,56.6,167.8,55.5z"/>
</g>
<g>
	<path d="M167.8,60.5c0-1.8,2.5-3.5,4.5-3.5c1.3,0,2.3,0.7,2.3,1.7c0,1.7-2.5,3.5-4.6,3.5C168.8,62.2,167.8,61.6,167.8,60.5z"/>
</g>
<rect x="200.6" y="62.3" width="0.5" height="23.9"/>
<g>
	<path d="M194.2,87.8c0-1.8,2.5-3.5,4.5-3.5c1.3,0,2.3,0.7,2.3,1.7c0,1.7-2.5,3.5-4.6,3.5C195.1,89.5,194.2,88.9,194.2,87.8z"/>
</g>
<g>
	<path d="M194.2,82.8c0-1.8,2.5-3.5,4.5-3.5c1.3,0,2.3,0.7,2.3,1.7c0,1.7-2.5,3.5-4.6,3.5C195.1,84.5,194.2,83.9,194.2,82.8z"/>
</g>
<rect x="215.3" y="60.7" width="0.5" height="22.9"/>
<g>
	<path d="M208.9,85.3c0-1.8,2.5-3.5,4.5-3.5c1.3,0,2.3,0.7,2.3,1.7c0,1.7-2.5,3.5-4.6,3.5C209.9,87,208.9,86.4,208.9,85.3z"/>
</g>
<g>
	<path d="M208.9,80.3c0-1.8,2.5-3.5,4.5-3.5c1.3,0,2.3,0.7,2.3,1.7c0,1.7-2.5,3.5-4.6,3.5C209.9,82.1,208.9,81.4,208.9,80.3z"/>
</g>
<rect x="230.1" y="59" width="0.5" height="22.2"/>
<g>
	<path d="M223.6,82.8c0-1.8,2.5-3.5,4.5-3.5c1.3,0,2.3,0.7,2.3,1.7c0,1.7-2.5,3.5-4.6,3.5C224.6,84.5,223.6,83.9,223.6,82.8z"/>
</g>
<g>
	<path d="M223.6,77.9c0-1.8,2.5-3.5,4.5-3.5c1.3,0,2.3,0.7,2.3,1.7c0,1.7-2.5,3.5-4.6,3.5C224.6,79.6,223.6,78.9,223.6,77.9z"/>
</g>
<rect x="244.8" y="57.3" width="0.5" height="21.4"/>
<g>
	<path d="M238.3,80.3c0-1.8,2.5-3.5,4.5-3.5c1.3,0,2.3,0.7,2.3,1.7c0,1.7-2.5,3.5-4.6,3.5C239.3,82.1,238.3,81.4,238.3,80.3z"/>
</g>
<g>
	<path d="M238.3,75.4c0-1.8,2.5-3.5,4.5-3.5c1.3,0,2.3,0.7,2.3,1.7c0,1.7-2.5,3.5-4.6,3.5C239.3,77.1,238.3,76.5,238.3,75.4z"/>
</g>
<rect x="253" y="72.8" width="0.5" height="20.2"/>
<g>
	<path d="M253.1,72.9c0-1.8,2.5-3.5,4.5-3.5c1.3,0,2.3,0.7,2.3,1.7c0,1.7-2.5,3.5-4.6,3.5C254,74.6,253.1,74,253.1,72.9z"/>
</g>
<g>
	<path d="M253.1,77.9c0-1.8,2.5-3.5,4.5-3.5c1.3,0,2.3,0.7,2.3,1.7c0,1.7-2.5,3.5-4.6,3.5C254,79.6,253.1,78.9,253.1,77.9z"/>
</g>
<rect x="267.7" y="70.3" width="0.5" height="22.3"/>
<g>
	<path d="M267.8,70.4c0-1.8,2.5-3.5,4.5-3.5c1.3,0,2.3,0.7,2.3,1.7c0,1.7-2.5,3.5-4.6,3.5C268.8,72.1,267.8,71.5,267.8,70.4z"/>
</g>
<g>
	<path d="M267.8,75.4c0-1.8,2.5-3.5,4.5-3.5c1.3,0,2.3,0.7,2.3,1.7c0,1.7-2.5,3.5-4.6,3.5C268.8,77.1,267.8,76.5,267.8,75.4z"/>
</g>
<rect x="282.4" y="67.9" width="0.5" height="24.3"/>
<g>
	<path d="M282.5,67.9c0-1.8,2.5-3.5,4.5-3.5c1.3,0,2.3,0.7,2.3,1.7c0,1.7-2.5,3.5-4.6,3.5C283.5,69.7,282.5,69,282.5,67.9z"/>
</g>
<g>
	<path d="M282.5,72.9c0-1.8,2.5-3.5,4.5-3.5c1.3,0,2.3,0.7,2.3,1.7c0,1.7-2.5,3.5-4.6,3.5C283.5,74.6,282.5,74,282.5,72.9z"/>
</g>
<rect x="297.2" y="70.3" width="0.5" height="21.4"/>
<g>
	<path d="M297.3,70.4c0-1.8,2.5-3.5,4.5-3.5c1.3,0,2.3,0.7,2.3,1.7c0,1.7-2.5,3.5-4.6,3.5C298.2,72.1,297.3,71.5,297.3,70.4z"/>
</g>
<g>
	<path d="M297.3,75.4c0-1.8,2.5-3.5,4.5-3.5c1.3,0,2.3,0.7,2.3,1.7c0,1.7-2.5,3.5-4.6,3.5C298.2,77.1,297.3,76.5,297.3,75.4z"/>
</g>
<rect x="318.4" y="57.3" width="0.5" height="18.9"/>
<g>
	<path d="M312,77.9c0-1.8,2.5-3.5,4.5-3.5c1.3,0,2.3,0.7,2.3,1.7c0,1.7-2.5,3.5-4.6,3.5C313,79.6,312,78.9,312,77.9z"/>
</g>
<g>
	<path d="M312,72.9c0-1.8,2.5-3.5,4.5-3.5c1.3,0,2.3,0.7,2.3,1.7c0,1.7-2.5,3.5-4.6,3.5C313,74.6,312,74,312,72.9z"/>
</g>
<rect x="333.1" y="58.9" width="0.5" height="19.8"/>
<g>
	<path d="M326.7,80.3c0-1.8,2.5-3.5,4.5-3.5c1.3,0,2.3,0.7,2.3,1.7c0,1.7-2.5,3.5-4.6,3.5C327.7,82.1,326.7,81.4,326.7,80.3z"/>
</g>
<g>
	<path d="M326.7,75.4c0-1.8,2.5-3.5,4.5-3.5c1.3,0,2.3,0.7,2.3,1.7c0,1.7-2.5,3.5-4.6,3.5C327.7,77.1,326.7,76.5,326.7,75.4z"/>
</g>
<rect x="347.9" y="60.6" width="0.5" height="20.6"/>
<g>
	<path d="M341.4,82.8c0-1.8,2.5-3.5,4.5-3.5c1.3,0,2.3,0.7,2.3,1.7c0,1.7-2.5,3.5-4.6,3.5C342.4,84.5,341.4,83.9,341.4,82.8z"/>
</g>
<g>
	<path d="M341.4,77.9c0-1.8,2.5-3.5,4.5-3.5c1.3,0,2.3,0.7,2.3,1.7c0,1.7-2.5,3.5-4.6,3.5C342.4,79.6,341.4,78.9,341.4,77.9z"/>
</g>
<rect x="362.6" y="62.3" width="0.5" height="21.4"/>
<g>
	<path d="M356.2,85.3c0-1.8,2.5-3.5,4.5-3.5c1.3,0,2.3,0.7,2.3,1.7c0,1.7-2.5,3.5-4.6,3.5C357.1,87,356.2,86.4,356.2,85.3z"/>
</g>
<g>
	<path d="M356.2,80.3c0-1.8,2.5-3.5,4.5-3.5c1.3,0,2.3,0.7,2.3,1.7c0,1.7-2.5,3.5-4.6,3.5C357.1,82.1,356.2,81.4,356.2,80.3z"/>
</g>
<rect x="380.7" y="61.7" width="10.5" height="0.8"/>
<rect x="380.7" y="56.8" width="10.5" height="0.8"/>
<rect x="380.7" y="51.8" width="10.5" height="0.8"/>
<rect x="382.4" y="53" width="0.5" height="23.9"/>
<g>
	<path d="M382.5,53.1c0-1.8,2.5-3.5,4.5-3.5c1.3,0,2.3,0.7,2.3,1.7c0,1.7-2.5,3.5-4.6,3.5C383.5,54.8,382.5,54.1,382.5,53.1z"/>
</g>
<g>
	<path d="M382.5,58c0-1.8,2.5-3.5,4.5-3.5c1.3,0,2.3,0.7,2.3,1.7c0,1.7-2.5,3.5-4.6,3.5C383.5,59.7,382.5,59.1,382.5,58z"/>
</g>
<rect x="395.4" y="61.7" width="10.5" height="0.8"/>
<rect x="395.4" y="56.8" width="10.5" height="0.8"/>
<rect x="397.2" y="55.5" width="0.5" height="22.9"/>
<g>
	<path d="M397.2,55.5c0-1.8,2.5-3.5,4.5-3.5c1.3,0,2.3,0.7,2.3,1.7c0,1.7-2.5,3.5-4.6,3.5C398.2,57.3,397.2,56.6,397.2,55.5z"/>
</g>
<g>
	<path d="M397.2,60.5c0-1.8,2.5-3.5,4.5-3.5c1.3,0,2.3,0.7,2.3,1.7c0,1.7-2.5,3.5-4.6,3.5C398.2,62.2,397.2,61.6,397.2,60.5z"/>
</g>
<rect x="410.1" y="61.7" width="10.5" height="0.8"/>
<rect x="410.1" y="56.8" width="10.5" height="0.8"/>
<rect x="411.9" y="57.9" width="0.5" height="22.2"/>
<g>
	<path d="M412,58c0-1.8,2.5-3.5,4.5-3.5c1.3,0,2.3,0.7,2.3,1.7c0,1.7-2.5,3.5-4.6,3.5C412.9,59.7,412,59.1,412,58z"/>
</g>
<g>
	<path d="M412,63c0-1.8,2.5-3.5,4.5-3.5c1.3,0,2.3,0.7,2.3,1.7c0,1.7-2.5,3.5-4.6,3.5C412.9,64.7,412,64.1,412,63z"/>
</g>
<rect x="424.7" y="61.7" width="10.5" height="0.8"/>
<rect x="426.5" y="60.4" width="0.5" height="21.4"/>
<g>
	<path d="M426.5,60.5c0-1.8,2.5-3.5,4.5-3.5c1.3,0,2.3,0.7,2.3,1.7c0,1.7-2.5,3.5-4.6,3.5C427.5,62.2,426.5,61.6,426.5,60.5z"/>
</g>
<g>
	<path d="M426.5,65.5c0-1.8,2.5-3.5,4.5-3.5c1.3,0,2.3,0.7,2.3,1.7c0,1.7-2.5,3.5-4.6,3.5C427.5,67.2,426.5,66.5,426.5,65.5z"/>
</g>
<rect x="439.4" y="61.7" width="10.5" height="0.8"/>
<rect x="441.2" y="62.9" width="0.5" height="23.9"/>
<g>
	<path d="M441.3,63c0-1.8,2.5-3.5,4.5-3.5c1.3,0,2.3,0.7,2.3,1.7c0,1.7-2.5,3.5-4.6,3.5C442.2,64.7,441.3,64.1,441.3,63z"/>
</g>
<g>
	<path d="M441.3,67.9c0-1.8,2.5-3.5,4.5-3.5c1.3,0,2.3,0.7,2.3,1.7c0,1.7-2.5,3.5-4.6,3.5C442.2,69.7,441.3,69,441.3,67.9z"/>
</g>
<rect x="455.9" y="65.4" width="0.5" height="22.9"/>
<g>
	<path d="M456,65.5c0-1.8,2.5-3.5,4.5-3.5c1.3,0,2.3,0.7,2.3,1.7c0,1.7-2.5,3.5-4.6,3.5C457,67.2,456,66.5,456,65.5z"/>
</g>
<g>
	<path d="M456,70.4c0-1.8,2.5-3.5,4.5-3.5c1.3,0,2.3,0.7,2.3,1.7c0,1.7-2.5,3.5-4.6,3.5C457,72.1,456,71.5,456,70.4z"/>
</g>
<rect x="470.6" y="67.9" width="0.5" height="22.2"/>
<g>
	<path d="M470.7,67.9c0-1.8,2.5-3.5,4.5-3.5c1.3,0,2.3,0.7,2.3,1.7c0,1.7-2.5,3.5-4.6,3.5C471.7,69.7,470.7,69,470.7,67.9z"/>
</g>
<g>
	<path d="M470.7,72.9c0-1.8,2.5-3.5,4.5-3.5c1.3,0,2.3,0.7,2.3,1.7c0,1.7-2.5,3.5-4.6,3.5C471.7,74.6,470.7,74,470.7,72.9z"/>
</g>
<rect x="485.4" y="70.3" width="0.5" height="21.4"/>
<g>
	<path d="M485.4,70.4c0-1.8,2.5-3.5,4.5-3.5c1.3,0,2.3,0.7,2.3,1.7c0,1.7-2.5,3.5-4.6,3.5C486.4,72.1,485.4,71.5,485.4,70.4z"/>
</g>
<g>
	<path d="M485.4,75.4c0-1.8,2.5-3.5,4.5-3.5c1.3,0,2.3,0.7,2.3,1.7c0,1.7-2.5,3.5-4.6,3.5C486.4,77.1,485.4,76.5,485.4,75.4z"/>
</g>
<rect x="500.1" y="72.8" width="0.5" height="21.5"/>
<g>
	<path d="M504.4,69.3c1.6,0,2.7,0.7,2.7,2c0,1.9-2.3,3.4-4.5,3.4c-1.3,0-2.4-0.7-2.4-1.8C500.2,71.1,502.4,69.3,504.4,69.3z
		 M500.6,73.2c0,0.6,0.4,0.9,1.1,0.9c1.4,0,4.9-2.1,4.9-3.3c0-0.6-0.4-0.9-1.1-0.9C504.3,69.9,500.6,72,500.6,73.2z"/>
</g>
<g>
	<path d="M504.4,74.3c1.6,0,2.7,0.7,2.7,2c0,1.9-2.3,3.4-4.5,3.4c-1.3,0-2.4-0.7-2.4-1.8C500.2,76.1,502.4,74.3,504.4,74.3z
		 M500.6,78.2c0,0.6,0.4,0.9,1.1,0.9c1.4,0,4.9-2.1,4.9-3.3c0-0.6-0.4-0.9-1.1-0.9C504.3,74.9,500.6,76.9,500.6,78.2z"/>
</g>
</svg>
