<?xml version="1.0" encoding="utf-8"?>

<!--
	ScaleBook
	Copyright (c) Leland Jansen 2015. All rights reserved.
-->

<!DOCTYPE svg PUBLIC "-//W3C//DTD SVG 1.1//EN" "http://www.w3.org/Graphics/SVG/1.1/DTD/svg11.dtd">
<svg version="1.1" id="Layer_1" xmlns="http://www.w3.org/2000/svg" xmlns:xlink="http://www.w3.org/1999/xlink" x="0px" y="0px"
	 viewBox="0 0 552.9 99.4" enable-background="new 0 0 552.9 99.4" xml:space="preserve">
<rect x="8.4" y="22.4" width="0.8" height="67"/>
<g>
	<path d="M7.4,23.1c-1.9,1.1-3.6,5.8-3.6,9.4c0,2.3,1.4,9.9,1.4,12.3c0,5-1.5,8.6-4.6,11.1c3,2.4,4.6,6.1,4.6,11.1
		c0,2.3-1.4,9.9-1.4,12.3c0,3.8,1.7,8.4,3.6,9.5v0.7c-3.5-2.3-5.8-8.2-5.8-13.1c0-2.1,1.7-9.4,1.7-11.5c0-3.8-1-6.6-2.9-8.2
		C0.1,56.3,0,56.1,0,55.9c0-0.2,0.1-0.4,0.5-0.7c1.9-1.7,2.9-4.2,2.9-7.6c0-2.1-1.7-10-1.7-12.2c0-5.2,2.1-10.4,5.8-13.1V23.1z"/>
</g>
<rect x="547.8" y="22.4" width="0.8" height="67"/>
<rect x="550.4" y="22.4" width="2.5" height="67"/>
<rect x="8.5" y="42" width="544.4" height="0.5"/>
<rect x="8.5" y="37.1" width="544.4" height="0.5"/>
<rect x="8.5" y="32.1" width="544.4" height="0.5"/>
<rect x="8.5" y="27.2" width="544.4" height="0.5"/>
<rect x="8.5" y="22.2" width="544.4" height="0.5"/>
<g>
	<path d="M20.3,42.1c-4.2,0-8.1-3.1-8.1-6.9c0-3.2,2.3-6.7,6.8-10.5c-0.3-1.2-0.4-2.4-0.4-3.6c0-3.5,1.2-6.8,3.2-8.5
		c1.8,2.5,2.7,4.9,2.7,7.1c0,2.9-1.3,5.6-4.3,8.1l0.9,4.2c0.5,0,0.8-0.1,0.8-0.1c2.6,0,4.8,2,4.8,4.7c0,1.9-1.4,3.7-3.6,4.8
		c0-0.1,0.9,3.8,0.9,4.3c0,2.5-2.3,4.2-4.9,4.2c-2,0-3.6-1.3-3.6-3.4c0-1.4,1-2.6,2.4-2.6c1.3,0,2.3,1.3,2.3,2.5
		c0,1.4-1.2,2.3-2.7,2.5c0.6,0.3,1.2,0.5,1.9,0.5c2.1,0,4.1-1.6,4.1-3.6c0-0.2,0-0.4-0.1-0.6l-0.8-3.7C21.9,42,21.2,42.1,20.3,42.1z
		 M18.1,36.9c0,1,0.5,1.9,1.6,2.5c-1.8-0.3-3-1.4-3-3.1c0-2,1.7-3.7,3.8-4.1l-0.8-4C16,31,14,33.7,14,36.3c0,2.9,2.8,5.3,6,5.3
		c0.9,0,1.7-0.2,2.4-0.5L21,34.3C19.4,34.5,18.1,35.5,18.1,36.9z M22.1,15.6c-1.6,0-2.9,3.7-2.9,7c0,0.7,0,1.3,0.2,1.9
		c2.7-2.4,4-4.5,4-6.5c0-0.9-0.3-1.7-1-2.4C22.4,15.6,22.3,15.6,22.1,15.6z M24.9,37.4c0-1.6-1.2-3.3-2.9-3.3c-0.1,0-0.2,0-0.5,0
		l1.4,6.6C24.2,39.9,24.9,38.7,24.9,37.4z"/>
</g>
<g>
	<path d="M29.5,24h0.6L30,30.3c0.4-0.7,1-1,1.8-1c1.2,0,2.2,0.8,2.2,1.9c0,0.8-0.5,1.8-1.7,2.7L29.5,36V24z M30.1,31
		C30,31.7,30,32.4,30,32.9c0,1,0,1.6,0.1,2c1-0.7,2.4-2.6,2.4-3.7c0-0.6-0.5-1.1-1.1-1.1C30.8,30.1,30.4,30.4,30.1,31z"/>
</g>
<g>
	<path d="M35.1,16.6h0.6l-0.1,6.2c0.4-0.7,1-1,1.8-1c1.2,0,2.2,0.8,2.2,1.9c0,0.8-0.5,1.8-1.7,2.7l-2.8,2.1V16.6z M35.7,23.5
		c-0.1,0.8-0.1,1.4-0.1,1.9c0,1,0,1.6,0.1,2c1-0.7,2.4-2.6,2.4-3.7c0-0.6-0.5-1.1-1.1-1.1C36.4,22.7,36,23,35.7,23.5z"/>
</g>
<g>
	<path d="M40.7,26.5h0.6l-0.1,6.2c0.4-0.7,1-1,1.8-1c1.2,0,2.2,0.8,2.2,1.9c0,0.8-0.5,1.8-1.7,2.7l-2.8,2.1V26.5z M41.3,33.4
		c-0.1,0.8-0.1,1.4-0.1,1.9c0,1,0,1.6,0.1,2c1-0.7,2.4-2.6,2.4-3.7c0-0.6-0.5-1.1-1.1-1.1C42,32.6,41.6,32.9,41.3,33.4z"/>
</g>
<polygon fill-rule="evenodd" clip-rule="evenodd" points="60.4,23.7 105.3,18.7 105.3,16.2 60.4,21.2 "/>
<polygon fill-rule="evenodd" clip-rule="evenodd" points="60.4,20 105.3,15 105.3,12.5 60.4,17.5 "/>
<polygon fill-rule="evenodd" clip-rule="evenodd" points="127,43.5 171.8,38.6 171.8,36.1 127,41 "/>
<polygon fill-rule="evenodd" clip-rule="evenodd" points="127,47.2 171.8,42.3 171.8,39.8 127,44.8 "/>
<polygon fill-rule="evenodd" clip-rule="evenodd" points="186.9,33.6 231.8,28.6 231.8,26.2 186.9,31.1 "/>
<polygon fill-rule="evenodd" clip-rule="evenodd" points="186.9,37.3 231.8,32.4 231.8,29.9 186.9,34.8 "/>
<polygon fill-rule="evenodd" clip-rule="evenodd" points="246.7,29.9 291.7,28.6 291.7,26.2 246.7,27.4 "/>
<polygon fill-rule="evenodd" clip-rule="evenodd" points="246.7,33.6 291.7,32.4 291.7,29.9 246.7,31.1 "/>
<polygon fill-rule="evenodd" clip-rule="evenodd" points="306.7,28.6 351.5,33.6 351.5,31.1 306.7,26.2 "/>
<polygon fill-rule="evenodd" clip-rule="evenodd" points="306.7,32.4 351.5,37.3 351.5,34.8 306.7,29.9 "/>
<polygon fill-rule="evenodd" clip-rule="evenodd" points="366.5,38.6 411.5,43.5 411.5,41 366.5,36.1 "/>
<polygon fill-rule="evenodd" clip-rule="evenodd" points="366.5,42.3 411.5,47.2 411.5,44.8 366.5,39.8 "/>
<polygon fill-rule="evenodd" clip-rule="evenodd" points="446.2,18.7 491,23.7 491,21.2 446.2,16.2 "/>
<polygon fill-rule="evenodd" clip-rule="evenodd" points="446.2,15 491,20 491,17.5 446.2,12.5 "/>
<rect x="8.5" y="89.2" width="544.4" height="0.5"/>
<rect x="8.5" y="84.2" width="544.4" height="0.5"/>
<rect x="8.5" y="79.3" width="544.4" height="0.5"/>
<rect x="8.5" y="74.3" width="544.4" height="0.5"/>
<rect x="8.5" y="69.3" width="544.4" height="0.5"/>
<g>
	<path d="M15.7,83.7c2.9-2.6,4.7-6.1,4.7-9.2c0-2.5-1.4-4.4-3.7-4.4c-1.6,0-3.4,1.3-3.4,2.7c0,0.2,0,0.3,0.1,0.3
		c-0.1,0,0.6-0.6,1.4-0.6c0.9,0,1.5,0.8,1.5,1.7c0,1.2-0.9,2.2-2.1,2.2c-1.2,0-2.1-1.3-2.1-2.8c0-2.3,2.3-4.1,4.8-4.1
		c4.7,0,5.9,3.2,5.9,5.8c0,1.6-0.4,2.9-2,5.3c-1.9,3.1-6.4,5.3-8.1,5.3c-0.4,0-0.6-0.2-0.6-0.5C13.8,85,14.9,84.4,15.7,83.7z
		 M25.7,71.1c0.6,0,1,0.4,1,1c0,0.6-0.4,1-1,1s-1-0.4-1-1C24.7,71.5,25.1,71.1,25.7,71.1z M25.7,76c0.6,0,1,0.4,1,1c0,0.6-0.4,1-1,1
		s-1-0.4-1-1C24.7,76.4,25.1,76,25.7,76z"/>
</g>
<g>
	<path d="M29.5,76.1h0.6L30,82.4c0.4-0.7,1-1,1.8-1c1.2,0,2.2,0.8,2.2,1.9c0,0.8-0.5,1.8-1.7,2.7l-2.8,2.1V76.1z M30.1,83
		C30,83.8,30,84.4,30,85c0,1,0,1.6,0.1,2c1-0.7,2.4-2.6,2.4-3.7c0-0.6-0.5-1.1-1.1-1.1C30.8,82.2,30.4,82.5,30.1,83z"/>
</g>
<g>
	<path d="M35.1,68.7h0.6l-0.1,6.2c0.4-0.7,1-1,1.8-1c1.2,0,2.2,0.8,2.2,1.9c0,0.8-0.5,1.8-1.7,2.7l-2.8,2.1V68.7z M35.7,75.6
		c-0.1,0.8-0.1,1.4-0.1,1.9c0,1,0,1.6,0.1,2c1-0.7,2.4-2.6,2.4-3.7c0-0.6-0.5-1.1-1.1-1.1C36.4,74.8,36,75,35.7,75.6z"/>
</g>
<g>
	<path d="M40.7,78.6h0.6l-0.1,6.2c0.4-0.7,1-1,1.8-1c1.2,0,2.2,0.8,2.2,1.9c0,0.8-0.5,1.8-1.7,2.7l-2.8,2.1V78.6z M41.3,85.5
		c-0.1,0.8-0.1,1.4-0.1,1.9c0,1,0,1.6,0.1,2c1-0.7,2.4-2.6,2.4-3.7c0-0.6-0.5-1.1-1.1-1.1C42,84.7,41.6,85,41.3,85.5z"/>
</g>
<g>
	<path d="M119,88c-3.2,0-6.1-2.3-6.1-5.1c0-2.4,1.7-5,5.1-7.9c-0.2-0.9-0.3-1.8-0.3-2.7c0-2.6,0.9-5.1,2.4-6.3c1.4,1.9,2,3.7,2,5.3
		c0,2.2-1,4.2-3.2,6.1l0.7,3.1c0.4,0,0.6,0,0.6,0c2,0,3.6,1.5,3.6,3.5c0,1.4-1.1,2.8-2.7,3.6c0-0.1,0.6,2.8,0.6,3.3
		c0,1.9-1.7,3.2-3.7,3.2c-1.5,0-2.7-1-2.7-2.5c0-1.1,0.7-1.9,1.8-1.9c1,0,1.7,1,1.7,1.9c0,1-0.9,1.7-2,1.8c0.4,0.2,0.9,0.3,1.4,0.3
		c1.6,0,3.1-1.2,3.1-2.7c0-0.1,0-0.3,0-0.5l-0.6-2.8C120.2,87.9,119.7,88,119,88z M117.4,84.1c0,0.8,0.4,1.4,1.2,1.9
		c-1.3-0.2-2.2-1.1-2.2-2.3c0-1.5,1.3-2.8,2.9-3.1l-0.6-3c-2.8,2.1-4.3,4.1-4.3,6.1c0,2.2,2.1,4,4.5,4c0.7,0,1.3-0.1,1.8-0.4
		l-1.1-5.1C118.3,82.3,117.4,83.1,117.4,84.1z M120.4,68.1c-1.2,0-2.2,2.8-2.2,5.3c0,0.5,0,1,0.1,1.4c2-1.8,3-3.4,3-4.9
		c0-0.7-0.3-1.3-0.7-1.8C120.6,68.1,120.5,68.1,120.4,68.1z M122.5,84.5c0-1.2-0.9-2.4-2.2-2.4c0,0-0.2,0-0.4,0l1.1,5
		C122,86.4,122.5,85.5,122.5,84.5z"/>
</g>
<polygon fill-rule="evenodd" clip-rule="evenodd" points="53.9,90.6 98.8,85.7 98.8,83.2 53.9,88.2 "/>
<polygon fill-rule="evenodd" clip-rule="evenodd" points="53.9,94.4 98.8,89.4 98.8,86.9 53.9,91.9 "/>
<polygon fill-rule="evenodd" clip-rule="evenodd" points="133.6,80.7 178.4,75.8 178.4,73.3 133.6,78.2 "/>
<polygon fill-rule="evenodd" clip-rule="evenodd" points="133.6,77 178.4,72 178.4,69.6 133.6,74.5 "/>
<polygon fill-rule="evenodd" clip-rule="evenodd" points="193.4,70.8 238.3,65.8 238.3,63.4 193.4,68.3 "/>
<polygon fill-rule="evenodd" clip-rule="evenodd" points="193.4,67.1 238.3,62.1 238.3,59.6 193.4,64.6 "/>
<polygon fill-rule="evenodd" clip-rule="evenodd" points="246.7,91.9 291.7,90.6 291.7,88.2 246.7,89.4 "/>
<polygon fill-rule="evenodd" clip-rule="evenodd" points="246.7,95.6 291.7,94.4 291.7,91.9 246.7,93.1 "/>
<polygon fill-rule="evenodd" clip-rule="evenodd" points="306.7,90.6 351.5,95.6 351.5,93.1 306.7,88.2 "/>
<polygon fill-rule="evenodd" clip-rule="evenodd" points="306.7,94.4 351.5,99.3 351.5,96.8 306.7,91.9 "/>
<g>
	<path d="M428.3,81.4c2.2-2,3.6-4.6,3.6-6.9c0-1.9-1.1-3.3-2.8-3.3c-1.2,0-2.5,1-2.5,2.1c0,0.2,0,0.2,0.1,0.2c0,0,0.4-0.5,1-0.5
		c0.7,0,1.2,0.6,1.2,1.3c0,0.9-0.6,1.7-1.6,1.7s-1.5-1-1.5-2.1c0-1.8,1.7-3.1,3.6-3.1c3.5,0,4.4,2.4,4.4,4.4c0,1.2-0.3,2.2-1.5,4
		c-1.4,2.3-4.8,4-6,4c-0.3,0-0.5-0.1-0.5-0.3C426.8,82.4,427.7,82,428.3,81.4z M435.7,71.9c0.4,0,0.7,0.3,0.7,0.7
		c0,0.4-0.3,0.7-0.7,0.7c-0.4,0-0.7-0.3-0.7-0.7C435,72.2,435.3,71.9,435.7,71.9z M435.7,75.6c0.4,0,0.7,0.3,0.7,0.7
		s-0.3,0.7-0.7,0.7c-0.4,0-0.7-0.3-0.7-0.7S435.3,75.6,435.7,75.6z"/>
</g>
<polygon fill-rule="evenodd" clip-rule="evenodd" points="373.1,70.8 418,75.8 418,73.3 373.1,68.3 "/>
<polygon fill-rule="evenodd" clip-rule="evenodd" points="373.1,67.1 418,72 418,69.6 373.1,64.6 "/>
<polygon fill-rule="evenodd" clip-rule="evenodd" points="439.7,80.7 484.5,85.7 484.5,83.2 439.7,78.2 "/>
<polygon fill-rule="evenodd" clip-rule="evenodd" points="439.7,84.4 484.5,89.4 484.5,86.9 439.7,82 "/>
<rect x="60.2" y="17.6" width="0.5" height="23.9"/>
<g>
	<path d="M53.7,43.1c0-1.8,2.5-3.5,4.5-3.5c1.3,0,2.3,0.7,2.3,1.7c0,1.7-2.5,3.5-4.6,3.5C54.7,44.9,53.7,44.2,53.7,43.1z"/>
</g>
<g>
	<path d="M53.7,38.2c0-1.8,2.5-3.5,4.5-3.5c1.3,0,2.3,0.7,2.3,1.7c0,1.7-2.5,3.5-4.6,3.5C54.7,39.9,53.7,39.3,53.7,38.2z"/>
</g>
<rect x="75.2" y="16.1" width="0.5" height="22.9"/>
<g>
	<path d="M68.8,40.7c0-1.8,2.5-3.5,4.5-3.5c1.3,0,2.3,0.7,2.3,1.7c0,1.7-2.5,3.5-4.6,3.5C69.7,42.4,68.8,41.7,68.8,40.7z"/>
</g>
<g>
	<path d="M68.8,35.7c0-1.8,2.5-3.5,4.5-3.5c1.3,0,2.3,0.7,2.3,1.7c0,1.7-2.5,3.5-4.6,3.5C69.7,37.4,68.8,36.8,68.8,35.7z"/>
</g>
<rect x="90.1" y="14.4" width="0.5" height="22.2"/>
<g>
	<path d="M83.6,38.2c0-1.8,2.5-3.5,4.5-3.5c1.3,0,2.3,0.7,2.3,1.7c0,1.7-2.5,3.5-4.6,3.5C84.6,39.9,83.6,39.3,83.6,38.2z"/>
</g>
<g>
	<path d="M83.6,33.2c0-1.8,2.5-3.5,4.5-3.5c1.3,0,2.3,0.7,2.3,1.7c0,1.7-2.5,3.5-4.6,3.5C84.6,34.9,83.6,34.3,83.6,33.2z"/>
</g>
<rect x="105.1" y="12.7" width="0.5" height="21.4"/>
<g>
	<path d="M98.7,35.7c0-1.8,2.5-3.5,4.5-3.5c1.3,0,2.3,0.7,2.3,1.7c0,1.7-2.5,3.5-4.6,3.5C99.7,37.4,98.7,36.8,98.7,35.7z"/>
</g>
<g>
	<path d="M98.7,30.7c0-1.8,2.5-3.5,4.5-3.5c1.3,0,2.3,0.7,2.3,1.7c0,1.7-2.5,3.5-4.6,3.5C99.7,32.5,98.7,31.8,98.7,30.7z"/>
</g>
<rect x="126.8" y="28.2" width="0.5" height="18.9"/>
<g>
	<path d="M126.9,28.3c0-1.8,2.5-3.5,4.5-3.5c1.3,0,2.3,0.7,2.3,1.7c0,1.7-2.5,3.5-4.6,3.5C127.9,30,126.9,29.3,126.9,28.3z"/>
</g>
<g>
	<path d="M126.9,33.2c0-1.8,2.5-3.5,4.5-3.5c1.3,0,2.3,0.7,2.3,1.7c0,1.7-2.5,3.5-4.6,3.5C127.9,34.9,126.9,34.3,126.9,33.2z"/>
</g>
<rect x="141.7" y="25.7" width="0.5" height="19.8"/>
<g>
	<path d="M141.8,25.8c0-1.8,2.5-3.5,4.5-3.5c1.3,0,2.3,0.7,2.3,1.7c0,1.7-2.5,3.5-4.6,3.5C142.7,27.5,141.8,26.9,141.8,25.8z"/>
</g>
<g>
	<path d="M141.8,30.7c0-1.8,2.5-3.5,4.5-3.5c1.3,0,2.3,0.7,2.3,1.7c0,1.7-2.5,3.5-4.6,3.5C142.7,32.5,141.8,31.8,141.8,30.7z"/>
</g>
<rect x="156.7" y="23.2" width="0.5" height="20.6"/>
<g>
	<path d="M156.8,23.3c0-1.8,2.5-3.5,4.5-3.5c1.3,0,2.3,0.7,2.3,1.7c0,1.7-2.5,3.5-4.6,3.5C157.8,25,156.8,24.4,156.8,23.3z"/>
</g>
<g>
	<path d="M156.8,28.3c0-1.8,2.5-3.5,4.5-3.5c1.3,0,2.3,0.7,2.3,1.7c0,1.7-2.5,3.5-4.6,3.5C157.8,30,156.8,29.3,156.8,28.3z"/>
</g>
<rect x="171.6" y="20.7" width="0.5" height="21.4"/>
<g>
	<path d="M171.7,20.8c0-1.8,2.5-3.5,4.5-3.5c1.3,0,2.3,0.7,2.3,1.7c0,1.7-2.5,3.5-4.6,3.5C172.7,22.5,171.7,21.9,171.7,20.8z"/>
</g>
<g>
	<path d="M171.7,25.8c0-1.8,2.5-3.5,4.5-3.5c1.3,0,2.3,0.7,2.3,1.7c0,1.7-2.5,3.5-4.6,3.5C172.7,27.5,171.7,26.9,171.7,25.8z"/>
</g>
<rect x="184.9" y="17.1" width="10.5" height="0.8"/>
<rect x="186.6" y="18.3" width="0.5" height="18.9"/>
<g>
	<path d="M186.7,18.3c0-1.8,2.5-3.5,4.5-3.5c1.3,0,2.3,0.7,2.3,1.7c0,1.7-2.5,3.5-4.6,3.5C187.7,20.1,186.7,19.4,186.7,18.3z"/>
</g>
<g>
	<path d="M186.7,23.3c0-1.8,2.5-3.5,4.5-3.5c1.3,0,2.3,0.7,2.3,1.7c0,1.7-2.5,3.5-4.6,3.5C187.7,25,186.7,24.4,186.7,23.3z"/>
</g>
<rect x="199.9" y="17.1" width="10.5" height="0.8"/>
<rect x="201.7" y="15.8" width="0.5" height="19.8"/>
<g>
	<path d="M201.8,15.9c0-1.8,2.5-3.5,4.5-3.5c1.3,0,2.3,0.7,2.3,1.7c0,1.7-2.5,3.5-4.6,3.5C202.7,17.6,201.8,16.9,201.8,15.9z"/>
</g>
<g>
	<path d="M201.8,20.8c0-1.8,2.5-3.5,4.5-3.5c1.3,0,2.3,0.7,2.3,1.7c0,1.7-2.5,3.5-4.6,3.5C202.7,22.5,201.8,21.9,201.8,20.8z"/>
</g>
<rect x="214.8" y="17.1" width="10.5" height="0.8"/>
<rect x="214.8" y="12.1" width="10.5" height="0.8"/>
<rect x="216.6" y="13.3" width="0.5" height="20.6"/>
<g>
	<path d="M216.6,13.4c0-1.8,2.5-3.5,4.5-3.5c1.3,0,2.3,0.7,2.3,1.7c0,1.7-2.5,3.5-4.6,3.5C217.6,15.1,216.6,14.5,216.6,13.4z"/>
</g>
<g>
	<path d="M216.6,18.3c0-1.8,2.5-3.5,4.5-3.5c1.3,0,2.3,0.7,2.3,1.7c0,1.7-2.5,3.5-4.6,3.5C217.6,20.1,216.6,19.4,216.6,18.3z"/>
</g>
<rect x="229.8" y="17.1" width="10.5" height="0.8"/>
<rect x="229.8" y="12.1" width="10.5" height="0.8"/>
<rect x="231.6" y="10.8" width="0.5" height="21.4"/>
<g>
	<path d="M231.7,10.9c0-1.8,2.5-3.5,4.5-3.5c1.3,0,2.3,0.7,2.3,1.7c0,1.7-2.5,3.5-4.6,3.5C232.7,12.6,231.7,12,231.7,10.9z"/>
</g>
<g>
	<path d="M231.7,15.9c0-1.8,2.5-3.5,4.5-3.5c1.3,0,2.3,0.7,2.3,1.7c0,1.7-2.5,3.5-4.6,3.5C232.7,17.6,231.7,16.9,231.7,15.9z"/>
</g>
<rect x="244.7" y="17.1" width="10.5" height="0.8"/>
<rect x="244.7" y="12.1" width="10.5" height="0.8"/>
<rect x="244.7" y="7.2" width="10.5" height="0.8"/>
<rect x="246.5" y="8.3" width="0.5" height="25.1"/>
<g>
	<path d="M246.6,8.4c0-1.8,2.5-3.5,4.5-3.5c1.3,0,2.3,0.7,2.3,1.7c0,1.7-2.5,3.5-4.6,3.5C247.5,10.1,246.6,9.5,246.6,8.4z"/>
</g>
<g>
	<path d="M246.6,13.4c0-1.8,2.5-3.5,4.5-3.5c1.3,0,2.3,0.7,2.3,1.7c0,1.7-2.5,3.5-4.6,3.5C247.5,15.1,246.6,14.5,246.6,13.4z"/>
</g>
<rect x="259.7" y="17.1" width="10.5" height="0.8"/>
<rect x="259.7" y="12.1" width="10.5" height="0.8"/>
<rect x="259.7" y="7.2" width="10.5" height="0.8"/>
<rect x="261.5" y="5.9" width="0.5" height="27.3"/>
<g>
	<path d="M261.6,5.9c0-1.8,2.5-3.5,4.5-3.5c1.3,0,2.3,0.7,2.3,1.7c0,1.7-2.5,3.5-4.6,3.5C262.6,7.7,261.6,7,261.6,5.9z"/>
</g>
<g>
	<path d="M261.6,10.9c0-1.8,2.5-3.5,4.5-3.5c1.3,0,2.3,0.7,2.3,1.7c0,1.7-2.5,3.5-4.6,3.5C262.6,12.6,261.6,12,261.6,10.9z"/>
</g>
<rect x="274.8" y="17.1" width="10.5" height="0.8"/>
<rect x="274.8" y="12.1" width="10.5" height="0.8"/>
<rect x="274.8" y="7.2" width="10.5" height="0.8"/>
<rect x="274.8" y="2.2" width="10.5" height="0.8"/>
<rect x="276.6" y="3.4" width="0.5" height="29.3"/>
<g>
	<path d="M276.6,3.5c0-1.8,2.5-3.5,4.5-3.5c1.3,0,2.3,0.7,2.3,1.7c0,1.7-2.5,3.5-4.6,3.5C277.6,5.2,276.6,4.5,276.6,3.5z"/>
</g>
<g>
	<path d="M276.6,8.4c0-1.8,2.5-3.5,4.5-3.5c1.3,0,2.3,0.7,2.3,1.7c0,1.7-2.5,3.5-4.6,3.5C277.6,10.1,276.6,9.5,276.6,8.4z"/>
</g>
<rect x="289.7" y="17.1" width="10.5" height="0.8"/>
<rect x="289.7" y="12.1" width="10.5" height="0.8"/>
<rect x="289.7" y="7.2" width="10.5" height="0.8"/>
<rect x="291.4" y="5.9" width="0.5" height="26.4"/>
<g>
	<path d="M291.5,5.9c0-1.8,2.5-3.5,4.5-3.5c1.3,0,2.3,0.7,2.3,1.7c0,1.7-2.5,3.5-4.6,3.5C292.5,7.7,291.5,7,291.5,5.9z"/>
</g>
<g>
	<path d="M291.5,10.9c0-1.8,2.5-3.5,4.5-3.5c1.3,0,2.3,0.7,2.3,1.7c0,1.7-2.5,3.5-4.6,3.5C292.5,12.6,291.5,12,291.5,10.9z"/>
</g>
<rect x="304.7" y="17.1" width="10.5" height="0.8"/>
<rect x="304.7" y="12.1" width="10.5" height="0.8"/>
<rect x="304.7" y="7.2" width="10.5" height="0.8"/>
<rect x="306.5" y="8.3" width="0.5" height="23.9"/>
<g>
	<path d="M306.6,8.4c0-1.8,2.5-3.5,4.5-3.5c1.3,0,2.3,0.7,2.3,1.7c0,1.7-2.5,3.5-4.6,3.5C307.5,10.1,306.6,9.5,306.6,8.4z"/>
</g>
<g>
	<path d="M306.6,13.4c0-1.8,2.5-3.5,4.5-3.5c1.3,0,2.3,0.7,2.3,1.7c0,1.7-2.5,3.5-4.6,3.5C307.5,15.1,306.6,14.5,306.6,13.4z"/>
</g>
<rect x="319.6" y="17.1" width="10.5" height="0.8"/>
<rect x="319.6" y="12.1" width="10.5" height="0.8"/>
<rect x="321.4" y="10.8" width="0.5" height="22.9"/>
<g>
	<path d="M321.4,10.9c0-1.8,2.5-3.5,4.5-3.5c1.3,0,2.3,0.7,2.3,1.7c0,1.7-2.5,3.5-4.6,3.5C322.4,12.6,321.4,12,321.4,10.9z"/>
</g>
<g>
	<path d="M321.4,15.9c0-1.8,2.5-3.5,4.5-3.5c1.3,0,2.3,0.7,2.3,1.7c0,1.7-2.5,3.5-4.6,3.5C322.4,17.6,321.4,16.9,321.4,15.9z"/>
</g>
<rect x="334.6" y="17.1" width="10.5" height="0.8"/>
<rect x="334.6" y="12.1" width="10.5" height="0.8"/>
<rect x="336.4" y="13.3" width="0.5" height="22.2"/>
<g>
	<path d="M336.5,13.4c0-1.8,2.5-3.5,4.5-3.5c1.3,0,2.3,0.7,2.3,1.7c0,1.7-2.5,3.5-4.6,3.5C337.4,15.1,336.5,14.5,336.5,13.4z"/>
</g>
<g>
	<path d="M336.5,18.3c0-1.8,2.5-3.5,4.5-3.5c1.3,0,2.3,0.7,2.3,1.7c0,1.7-2.5,3.5-4.6,3.5C337.4,20.1,336.5,19.4,336.5,18.3z"/>
</g>
<rect x="349.5" y="17.1" width="10.5" height="0.8"/>
<rect x="351.3" y="15.8" width="0.5" height="21.4"/>
<g>
	<path d="M351.4,15.9c0-1.8,2.5-3.5,4.5-3.5c1.3,0,2.3,0.7,2.3,1.7c0,1.7-2.5,3.5-4.6,3.5C352.3,17.6,351.4,16.9,351.4,15.9z"/>
</g>
<g>
	<path d="M351.4,20.8c0-1.8,2.5-3.5,4.5-3.5c1.3,0,2.3,0.7,2.3,1.7c0,1.7-2.5,3.5-4.6,3.5C352.3,22.5,351.4,21.9,351.4,20.8z"/>
</g>
<rect x="364.5" y="17.1" width="10.5" height="0.8"/>
<rect x="366.3" y="18.3" width="0.5" height="23.9"/>
<g>
	<path d="M366.4,18.3c0-1.8,2.5-3.5,4.5-3.5c1.3,0,2.3,0.7,2.3,1.7c0,1.7-2.5,3.5-4.6,3.5C367.4,20.1,366.4,19.4,366.4,18.3z"/>
</g>
<g>
	<path d="M366.4,23.3c0-1.8,2.5-3.5,4.5-3.5c1.3,0,2.3,0.7,2.3,1.7c0,1.7-2.5,3.5-4.6,3.5C367.4,25,366.4,24.4,366.4,23.3z"/>
</g>
<rect x="381.3" y="20.7" width="0.5" height="22.9"/>
<g>
	<path d="M381.4,20.8c0-1.8,2.5-3.5,4.5-3.5c1.3,0,2.3,0.7,2.3,1.7c0,1.7-2.5,3.5-4.6,3.5C382.4,22.5,381.4,21.9,381.4,20.8z"/>
</g>
<g>
	<path d="M381.4,25.8c0-1.8,2.5-3.5,4.5-3.5c1.3,0,2.3,0.7,2.3,1.7c0,1.7-2.5,3.5-4.6,3.5C382.4,27.5,381.4,26.9,381.4,25.8z"/>
</g>
<rect x="396.2" y="23.2" width="0.5" height="22.2"/>
<g>
	<path d="M396.3,23.3c0-1.8,2.5-3.5,4.5-3.5c1.3,0,2.3,0.7,2.3,1.7c0,1.7-2.5,3.5-4.6,3.5C397.3,25,396.3,24.4,396.3,23.3z"/>
</g>
<g>
	<path d="M396.3,28.3c0-1.8,2.5-3.5,4.5-3.5c1.3,0,2.3,0.7,2.3,1.7c0,1.7-2.5,3.5-4.6,3.5C397.3,30,396.3,29.3,396.3,28.3z"/>
</g>
<rect x="411.3" y="25.7" width="0.5" height="21.4"/>
<g>
	<path d="M411.3,25.8c0-1.8,2.5-3.5,4.5-3.5c1.3,0,2.3,0.7,2.3,1.7c0,1.7-2.5,3.5-4.6,3.5C412.3,27.5,411.3,26.9,411.3,25.8z"/>
</g>
<g>
	<path d="M411.3,30.7c0-1.8,2.5-3.5,4.5-3.5c1.3,0,2.3,0.7,2.3,1.7c0,1.7-2.5,3.5-4.6,3.5C412.3,32.5,411.3,31.8,411.3,30.7z"/>
</g>
<rect x="446" y="12.7" width="0.5" height="18.9"/>
<g>
	<path d="M439.6,33.2c0-1.8,2.5-3.5,4.5-3.5c1.3,0,2.3,0.7,2.3,1.7c0,1.7-2.5,3.5-4.6,3.5C440.5,34.9,439.6,34.3,439.6,33.2z"/>
</g>
<g>
	<path d="M439.6,28.3c0-1.8,2.5-3.5,4.5-3.5c1.3,0,2.3,0.7,2.3,1.7c0,1.7-2.5,3.5-4.6,3.5C440.5,30,439.6,29.3,439.6,28.3z"/>
</g>
<rect x="460.9" y="14.2" width="0.5" height="19.8"/>
<g>
	<path d="M454.4,35.7c0-1.8,2.5-3.5,4.5-3.5c1.3,0,2.3,0.7,2.3,1.7c0,1.7-2.5,3.5-4.6,3.5C455.4,37.4,454.4,36.8,454.4,35.7z"/>
</g>
<g>
	<path d="M454.4,30.7c0-1.8,2.5-3.5,4.5-3.5c1.3,0,2.3,0.7,2.3,1.7c0,1.7-2.5,3.5-4.6,3.5C455.4,32.5,454.4,31.8,454.4,30.7z"/>
</g>
<rect x="475.9" y="15.9" width="0.5" height="20.6"/>
<g>
	<path d="M469.5,38.2c0-1.8,2.5-3.5,4.5-3.5c1.3,0,2.3,0.7,2.3,1.7c0,1.7-2.5,3.5-4.6,3.5C470.4,39.9,469.5,39.3,469.5,38.2z"/>
</g>
<g>
	<path d="M469.5,33.2c0-1.8,2.5-3.5,4.5-3.5c1.3,0,2.3,0.7,2.3,1.7c0,1.7-2.5,3.5-4.6,3.5C470.4,34.9,469.5,34.3,469.5,33.2z"/>
</g>
<rect x="490.8" y="17.6" width="0.5" height="21.4"/>
<g>
	<path d="M484.4,40.7c0-1.8,2.5-3.5,4.5-3.5c1.3,0,2.3,0.7,2.3,1.7c0,1.7-2.5,3.5-4.6,3.5C485.3,42.4,484.4,41.7,484.4,40.7z"/>
</g>
<g>
	<path d="M484.4,35.7c0-1.8,2.5-3.5,4.5-3.5c1.3,0,2.3,0.7,2.3,1.7c0,1.7-2.5,3.5-4.6,3.5C485.3,37.4,484.4,36.8,484.4,35.7z"/>
</g>
<rect x="506" y="20" width="0.5" height="21.5"/>
<g>
	<path d="M503.7,39.6c1.6,0,2.7,0.7,2.7,2c0,1.9-2.3,3.4-4.5,3.4c-1.3,0-2.4-0.7-2.4-1.8C499.4,41.4,501.6,39.6,503.7,39.6z
		 M499.8,43.4c0,0.6,0.4,0.9,1.1,0.9c1.4,0,4.9-2.1,4.9-3.3c0-0.6-0.4-0.9-1.1-0.9C503.5,40.2,499.8,42.2,499.8,43.4z"/>
</g>
<g>
	<path d="M503.7,34.6c1.6,0,2.7,0.7,2.7,2c0,1.9-2.3,3.4-4.5,3.4c-1.3,0-2.4-0.7-2.4-1.8C499.4,36.4,501.6,34.6,503.7,34.6z
		 M499.8,38.5c0,0.6,0.4,0.9,1.1,0.9c1.4,0,4.9-2.1,4.9-3.3c0-0.6-0.4-0.9-1.1-0.9C503.5,35.2,499.8,37.2,499.8,38.5z"/>
</g>
<rect x="53.6" y="72.8" width="0.5" height="21.4"/>
<g>
	<path d="M53.7,72.9c0-1.8,2.5-3.5,4.5-3.5c1.3,0,2.3,0.7,2.3,1.7c0,1.7-2.5,3.5-4.6,3.5C54.7,74.6,53.7,74,53.7,72.9z"/>
</g>
<g>
	<path d="M53.7,77.9c0-1.8,2.5-3.5,4.5-3.5c1.3,0,2.3,0.7,2.3,1.7c0,1.7-2.5,3.5-4.6,3.5C54.7,79.6,53.7,78.9,53.7,77.9z"/>
</g>
<rect x="68.7" y="70.3" width="0.5" height="22.3"/>
<g>
	<path d="M68.8,70.4c0-1.8,2.5-3.5,4.5-3.5c1.3,0,2.3,0.7,2.3,1.7c0,1.7-2.5,3.5-4.6,3.5C69.7,72.1,68.8,71.5,68.8,70.4z"/>
</g>
<g>
	<path d="M68.8,75.4c0-1.8,2.5-3.5,4.5-3.5c1.3,0,2.3,0.7,2.3,1.7c0,1.7-2.5,3.5-4.6,3.5C69.7,77.1,68.8,76.5,68.8,75.4z"/>
</g>
<rect x="83.6" y="67.9" width="0.5" height="23.1"/>
<g>
	<path d="M83.6,67.9c0-1.8,2.5-3.5,4.5-3.5c1.3,0,2.3,0.7,2.3,1.7c0,1.7-2.5,3.5-4.6,3.5C84.6,69.7,83.6,69,83.6,67.9z"/>
</g>
<g>
	<path d="M83.6,72.9c0-1.8,2.5-3.5,4.5-3.5c1.3,0,2.3,0.7,2.3,1.7c0,1.7-2.5,3.5-4.6,3.5C84.6,74.6,83.6,74,83.6,72.9z"/>
</g>
<rect x="96.8" y="64.2" width="10.5" height="0.8"/>
<rect x="98.6" y="65.4" width="0.5" height="23.9"/>
<g>
	<path d="M98.7,65.5c0-1.8,2.5-3.5,4.5-3.5c1.3,0,2.3,0.7,2.3,1.7c0,1.7-2.5,3.5-4.6,3.5C99.7,67.2,98.7,66.5,98.7,65.5z"/>
</g>
<g>
	<path d="M98.7,70.4c0-1.8,2.5-3.5,4.5-3.5c1.3,0,2.3,0.7,2.3,1.7c0,1.7-2.5,3.5-4.6,3.5C99.7,72.1,98.7,71.5,98.7,70.4z"/>
</g>
<rect x="125" y="94" width="10.5" height="0.8"/>
<rect x="133.3" y="74.7" width="0.5" height="21.4"/>
<g>
	<path d="M126.9,97.7c0-1.8,2.5-3.5,4.5-3.5c1.3,0,2.3,0.7,2.3,1.7c0,1.7-2.5,3.5-4.6,3.5C127.9,99.4,126.9,98.8,126.9,97.7z"/>
</g>
<g>
	<path d="M126.9,92.7c0-1.8,2.5-3.5,4.5-3.5c1.3,0,2.3,0.7,2.3,1.7c0,1.7-2.5,3.5-4.6,3.5C127.9,94.5,126.9,93.8,126.9,92.7z"/>
</g>
<rect x="139.9" y="94" width="10.5" height="0.8"/>
<rect x="148.2" y="73.1" width="0.5" height="20.5"/>
<g>
	<path d="M141.8,95.2c0-1.8,2.5-3.5,4.5-3.5c1.3,0,2.3,0.7,2.3,1.7c0,1.7-2.5,3.5-4.6,3.5C142.7,96.9,141.8,96.3,141.8,95.2z"/>
</g>
<g>
	<path d="M141.8,90.3c0-1.8,2.5-3.5,4.5-3.5c1.3,0,2.3,0.7,2.3,1.7c0,1.7-2.5,3.5-4.6,3.5C142.7,92,141.8,91.3,141.8,90.3z"/>
</g>
<rect x="163.2" y="71.4" width="0.5" height="19.7"/>
<g>
	<path d="M156.8,92.7c0-1.8,2.5-3.5,4.5-3.5c1.3,0,2.3,0.7,2.3,1.7c0,1.7-2.5,3.5-4.6,3.5C157.8,94.5,156.8,93.8,156.8,92.7z"/>
</g>
<g>
	<path d="M156.8,87.8c0-1.8,2.5-3.5,4.5-3.5c1.3,0,2.3,0.7,2.3,1.7c0,1.7-2.5,3.5-4.6,3.5C157.8,89.5,156.8,88.9,156.8,87.8z"/>
</g>
<rect x="178.1" y="69.7" width="0.5" height="18.9"/>
<g>
	<path d="M171.7,90.3c0-1.8,2.5-3.5,4.5-3.5c1.3,0,2.3,0.7,2.3,1.7c0,1.7-2.5,3.5-4.6,3.5C172.7,92,171.7,91.3,171.7,90.3z"/>
</g>
<g>
	<path d="M171.7,85.3c0-1.8,2.5-3.5,4.5-3.5c1.3,0,2.3,0.7,2.3,1.7c0,1.7-2.5,3.5-4.6,3.5C172.7,87,171.7,86.4,171.7,85.3z"/>
</g>
<rect x="193.2" y="64.8" width="0.5" height="21.4"/>
<g>
	<path d="M186.7,87.8c0-1.8,2.5-3.5,4.5-3.5c1.3,0,2.3,0.7,2.3,1.7c0,1.7-2.5,3.5-4.6,3.5C187.7,89.5,186.7,88.9,186.7,87.8z"/>
</g>
<g>
	<path d="M186.7,82.8c0-1.8,2.5-3.5,4.5-3.5c1.3,0,2.3,0.7,2.3,1.7c0,1.7-2.5,3.5-4.6,3.5C187.7,84.5,186.7,83.9,186.7,82.8z"/>
</g>
<rect x="208.2" y="63.2" width="0.5" height="20.5"/>
<g>
	<path d="M201.8,85.3c0-1.8,2.5-3.5,4.5-3.5c1.3,0,2.3,0.7,2.3,1.7c0,1.7-2.5,3.5-4.6,3.5C202.7,87,201.8,86.4,201.8,85.3z"/>
</g>
<g>
	<path d="M201.8,80.3c0-1.8,2.5-3.5,4.5-3.5c1.3,0,2.3,0.7,2.3,1.7c0,1.7-2.5,3.5-4.6,3.5C202.7,82.1,201.8,81.4,201.8,80.3z"/>
</g>
<rect x="223.1" y="61.5" width="0.5" height="19.7"/>
<g>
	<path d="M216.6,82.8c0-1.8,2.5-3.5,4.5-3.5c1.3,0,2.3,0.7,2.3,1.7c0,1.7-2.5,3.5-4.6,3.5C217.6,84.5,216.6,83.9,216.6,82.8z"/>
</g>
<g>
	<path d="M216.6,77.9c0-1.8,2.5-3.5,4.5-3.5c1.3,0,2.3,0.7,2.3,1.7c0,1.7-2.5,3.5-4.6,3.5C217.6,79.6,216.6,78.9,216.6,77.9z"/>
</g>
<rect x="238.1" y="59.8" width="0.5" height="18.9"/>
<g>
	<path d="M231.7,80.3c0-1.8,2.5-3.5,4.5-3.5c1.3,0,2.3,0.7,2.3,1.7c0,1.7-2.5,3.5-4.6,3.5C232.7,82.1,231.7,81.4,231.7,80.3z"/>
</g>
<g>
	<path d="M231.7,75.4c0-1.8,2.5-3.5,4.5-3.5c1.3,0,2.3,0.7,2.3,1.7c0,1.7-2.5,3.5-4.6,3.5C232.7,77.1,231.7,76.5,231.7,75.4z"/>
</g>
<rect x="246.5" y="72.8" width="0.5" height="22.6"/>
<g>
	<path d="M246.6,72.9c0-1.8,2.5-3.5,4.5-3.5c1.3,0,2.3,0.7,2.3,1.7c0,1.7-2.5,3.5-4.6,3.5C247.5,74.6,246.6,74,246.6,72.9z"/>
</g>
<g>
	<path d="M246.6,77.9c0-1.8,2.5-3.5,4.5-3.5c1.3,0,2.3,0.7,2.3,1.7c0,1.7-2.5,3.5-4.6,3.5C247.5,79.6,246.6,78.9,246.6,77.9z"/>
</g>
<rect x="261.5" y="70.3" width="0.5" height="24.8"/>
<g>
	<path d="M261.6,70.4c0-1.8,2.5-3.5,4.5-3.5c1.3,0,2.3,0.7,2.3,1.7c0,1.7-2.5,3.5-4.6,3.5C262.6,72.1,261.6,71.5,261.6,70.4z"/>
</g>
<g>
	<path d="M261.6,75.4c0-1.8,2.5-3.5,4.5-3.5c1.3,0,2.3,0.7,2.3,1.7c0,1.7-2.5,3.5-4.6,3.5C262.6,77.1,261.6,76.5,261.6,75.4z"/>
</g>
<rect x="276.6" y="67.9" width="0.5" height="26.8"/>
<g>
	<path d="M276.6,67.9c0-1.8,2.5-3.5,4.5-3.5c1.3,0,2.3,0.7,2.3,1.7c0,1.7-2.5,3.5-4.6,3.5C277.6,69.7,276.6,69,276.6,67.9z"/>
</g>
<g>
	<path d="M276.6,72.9c0-1.8,2.5-3.5,4.5-3.5c1.3,0,2.3,0.7,2.3,1.7c0,1.7-2.5,3.5-4.6,3.5C277.6,74.6,276.6,74,276.6,72.9z"/>
</g>
<rect x="291.4" y="70.3" width="0.5" height="23.9"/>
<g>
	<path d="M291.5,70.4c0-1.8,2.5-3.5,4.5-3.5c1.3,0,2.3,0.7,2.3,1.7c0,1.7-2.5,3.5-4.6,3.5C292.5,72.1,291.5,71.5,291.5,70.4z"/>
</g>
<g>
	<path d="M291.5,75.4c0-1.8,2.5-3.5,4.5-3.5c1.3,0,2.3,0.7,2.3,1.7c0,1.7-2.5,3.5-4.6,3.5C292.5,77.1,291.5,76.5,291.5,75.4z"/>
</g>
<rect x="306.5" y="72.8" width="0.5" height="21.4"/>
<g>
	<path d="M306.6,72.9c0-1.8,2.5-3.5,4.5-3.5c1.3,0,2.3,0.7,2.3,1.7c0,1.7-2.5,3.5-4.6,3.5C307.5,74.6,306.6,74,306.6,72.9z"/>
</g>
<g>
	<path d="M306.6,77.9c0-1.8,2.5-3.5,4.5-3.5c1.3,0,2.3,0.7,2.3,1.7c0,1.7-2.5,3.5-4.6,3.5C307.5,79.6,306.6,78.9,306.6,77.9z"/>
</g>
<rect x="321.4" y="75.3" width="0.5" height="20.5"/>
<g>
	<path d="M321.4,75.4c0-1.8,2.5-3.5,4.5-3.5c1.3,0,2.3,0.7,2.3,1.7c0,1.7-2.5,3.5-4.6,3.5C322.4,77.1,321.4,76.5,321.4,75.4z"/>
</g>
<g>
	<path d="M321.4,80.3c0-1.8,2.5-3.5,4.5-3.5c1.3,0,2.3,0.7,2.3,1.7c0,1.7-2.5,3.5-4.6,3.5C322.4,82.1,321.4,81.4,321.4,80.3z"/>
</g>
<rect x="336.4" y="77.8" width="0.5" height="19.7"/>
<g>
	<path d="M336.5,77.9c0-1.8,2.5-3.5,4.5-3.5c1.3,0,2.3,0.7,2.3,1.7c0,1.7-2.5,3.5-4.6,3.5C337.4,79.6,336.5,78.9,336.5,77.9z"/>
</g>
<g>
	<path d="M336.5,82.8c0-1.8,2.5-3.5,4.5-3.5c1.3,0,2.3,0.7,2.3,1.7c0,1.7-2.5,3.5-4.6,3.5C337.4,84.5,336.5,83.9,336.5,82.8z"/>
</g>
<rect x="351.3" y="80.3" width="0.5" height="18.9"/>
<g>
	<path d="M351.4,80.3c0-1.8,2.5-3.5,4.5-3.5c1.3,0,2.3,0.7,2.3,1.7c0,1.7-2.5,3.5-4.6,3.5C352.3,82.1,351.4,81.4,351.4,80.3z"/>
</g>
<g>
	<path d="M351.4,85.3c0-1.8,2.5-3.5,4.5-3.5c1.3,0,2.3,0.7,2.3,1.7c0,1.7-2.5,3.5-4.6,3.5C352.3,87,351.4,86.4,351.4,85.3z"/>
</g>
<rect x="372.8" y="64.8" width="0.5" height="21.4"/>
<g>
	<path d="M366.4,87.8c0-1.8,2.5-3.5,4.5-3.5c1.3,0,2.3,0.7,2.3,1.7c0,1.7-2.5,3.5-4.6,3.5C367.4,89.5,366.4,88.9,366.4,87.8z"/>
</g>
<g>
	<path d="M366.4,82.8c0-1.8,2.5-3.5,4.5-3.5c1.3,0,2.3,0.7,2.3,1.7c0,1.7-2.5,3.5-4.6,3.5C367.4,84.5,366.4,83.9,366.4,82.8z"/>
</g>
<rect x="387.9" y="66.3" width="0.5" height="22.3"/>
<g>
	<path d="M381.4,90.3c0-1.8,2.5-3.5,4.5-3.5c1.3,0,2.3,0.7,2.3,1.7c0,1.7-2.5,3.5-4.6,3.5C382.4,92,381.4,91.3,381.4,90.3z"/>
</g>
<g>
	<path d="M381.4,85.3c0-1.8,2.5-3.5,4.5-3.5c1.3,0,2.3,0.7,2.3,1.7c0,1.7-2.5,3.5-4.6,3.5C382.4,87,381.4,86.4,381.4,85.3z"/>
</g>
<rect x="402.7" y="68" width="0.5" height="23.1"/>
<g>
	<path d="M396.3,92.7c0-1.8,2.5-3.5,4.5-3.5c1.3,0,2.3,0.7,2.3,1.7c0,1.7-2.5,3.5-4.6,3.5C397.3,94.5,396.3,93.8,396.3,92.7z"/>
</g>
<g>
	<path d="M396.3,87.8c0-1.8,2.5-3.5,4.5-3.5c1.3,0,2.3,0.7,2.3,1.7c0,1.7-2.5,3.5-4.6,3.5C397.3,89.5,396.3,88.9,396.3,87.8z"/>
</g>
<rect x="409.5" y="94" width="10.5" height="0.8"/>
<rect x="417.8" y="69.7" width="0.5" height="23.9"/>
<g>
	<path d="M411.3,95.2c0-1.8,2.5-3.5,4.5-3.5c1.3,0,2.3,0.7,2.3,1.7c0,1.7-2.5,3.5-4.6,3.5C412.3,96.9,411.3,96.3,411.3,95.2z"/>
</g>
<g>
	<path d="M411.3,90.3c0-1.8,2.5-3.5,4.5-3.5c1.3,0,2.3,0.7,2.3,1.7c0,1.7-2.5,3.5-4.6,3.5C412.3,92,411.3,91.3,411.3,90.3z"/>
</g>
<rect x="437.7" y="64.2" width="10.5" height="0.8"/>
<rect x="439.5" y="62.9" width="0.5" height="21.4"/>
<g>
	<path d="M439.6,63c0-1.8,2.5-3.5,4.5-3.5c1.3,0,2.3,0.7,2.3,1.7c0,1.7-2.5,3.5-4.6,3.5C440.5,64.7,439.6,64.1,439.6,63z"/>
</g>
<g>
	<path d="M439.6,67.9c0-1.8,2.5-3.5,4.5-3.5c1.3,0,2.3,0.7,2.3,1.7c0,1.7-2.5,3.5-4.6,3.5C440.5,69.7,439.6,69,439.6,67.9z"/>
</g>
<rect x="452.6" y="64.2" width="10.5" height="0.8"/>
<rect x="454.4" y="65.4" width="0.5" height="20.5"/>
<g>
	<path d="M454.4,65.5c0-1.8,2.5-3.5,4.5-3.5c1.3,0,2.3,0.7,2.3,1.7c0,1.7-2.5,3.5-4.6,3.5C455.4,67.2,454.4,66.5,454.4,65.5z"/>
</g>
<g>
	<path d="M454.4,70.4c0-1.8,2.5-3.5,4.5-3.5c1.3,0,2.3,0.7,2.3,1.7c0,1.7-2.5,3.5-4.6,3.5C455.4,72.1,454.4,71.5,454.4,70.4z"/>
</g>
<rect x="469.4" y="67.9" width="0.5" height="19.7"/>
<g>
	<path d="M469.5,67.9c0-1.8,2.5-3.5,4.5-3.5c1.3,0,2.3,0.7,2.3,1.7c0,1.7-2.5,3.5-4.6,3.5C470.4,69.7,469.5,69,469.5,67.9z"/>
</g>
<g>
	<path d="M469.5,72.9c0-1.8,2.5-3.5,4.5-3.5c1.3,0,2.3,0.7,2.3,1.7c0,1.7-2.5,3.5-4.6,3.5C470.4,74.6,469.5,74,469.5,72.9z"/>
</g>
<rect x="484.3" y="70.3" width="0.5" height="18.9"/>
<g>
	<path d="M484.4,70.4c0-1.8,2.5-3.5,4.5-3.5c1.3,0,2.3,0.7,2.3,1.7c0,1.7-2.5,3.5-4.6,3.5C485.3,72.1,484.4,71.5,484.4,70.4z"/>
</g>
<g>
	<path d="M484.4,75.4c0-1.8,2.5-3.5,4.5-3.5c1.3,0,2.3,0.7,2.3,1.7c0,1.7-2.5,3.5-4.6,3.5C485.3,77.1,484.4,76.5,484.4,75.4z"/>
</g>
<rect x="499.3" y="72.8" width="0.5" height="21.5"/>
<g>
	<path d="M503.7,69.3c1.6,0,2.7,0.7,2.7,2c0,1.9-2.3,3.4-4.5,3.4c-1.3,0-2.4-0.7-2.4-1.8C499.4,71.1,501.6,69.3,503.7,69.3z
		 M499.8,73.2c0,0.6,0.4,0.9,1.1,0.9c1.4,0,4.9-2.1,4.9-3.3c0-0.6-0.4-0.9-1.1-0.9C503.5,69.9,499.8,72,499.8,73.2z"/>
</g>
<g>
	<path d="M503.7,74.3c1.6,0,2.7,0.7,2.7,2c0,1.9-2.3,3.4-4.5,3.4c-1.3,0-2.4-0.7-2.4-1.8C499.4,76.1,501.6,74.3,503.7,74.3z
		 M499.8,78.2c0,0.6,0.4,0.9,1.1,0.9c1.4,0,4.9-2.1,4.9-3.3c0-0.6-0.4-0.9-1.1-0.9C503.5,74.9,499.8,76.9,499.8,78.2z"/>
</g>
</svg>
