<?xml version="1.0" encoding="utf-8"?>

<!--
	ScaleBook
	Copyright (c) Leland Jansen 2015. All rights reserved.
-->

<!DOCTYPE svg PUBLIC "-//W3C//DTD SVG 1.1//EN" "http://www.w3.org/Graphics/SVG/1.1/DTD/svg11.dtd">
<svg version="1.1" id="Layer_1" xmlns="http://www.w3.org/2000/svg" xmlns:xlink="http://www.w3.org/1999/xlink" x="0px" y="0px"
	 viewBox="0 0 552.9 99.4" enable-background="new 0 0 552.9 99.4" xml:space="preserve">
<rect x="8.4" y="22.4" width="0.8" height="67"/>
<g>
	<path d="M7.4,23.1c-1.9,1.1-3.6,5.8-3.6,9.4c0,2.3,1.4,9.9,1.4,12.3c0,5-1.5,8.6-4.6,11.1c3,2.4,4.6,6.1,4.6,11.1
		c0,2.3-1.4,9.9-1.4,12.3c0,3.8,1.7,8.4,3.6,9.5v0.7c-3.5-2.3-5.8-8.2-5.8-13.1c0-2.1,1.7-9.4,1.7-11.5c0-3.8-1-6.6-2.9-8.2
		C0.1,56.3,0,56.1,0,55.9c0-0.2,0.1-0.4,0.5-0.7c1.9-1.7,2.9-4.2,2.9-7.6c0-2.1-1.7-10-1.7-12.2c0-5.2,2.1-10.4,5.8-13.1V23.1z"/>
</g>
<rect x="547.8" y="22.4" width="0.8" height="67"/>
<rect x="550.4" y="22.4" width="2.5" height="67"/>
<rect x="8.5" y="42" width="544.4" height="0.5"/>
<rect x="8.5" y="37.1" width="544.4" height="0.5"/>
<rect x="8.5" y="32.1" width="544.4" height="0.5"/>
<rect x="8.5" y="27.2" width="544.4" height="0.5"/>
<rect x="8.5" y="22.2" width="544.4" height="0.5"/>
<g>
	<path d="M20.3,42.1c-4.2,0-8.1-3.1-8.1-6.9c0-3.2,2.3-6.7,6.8-10.5c-0.3-1.2-0.4-2.4-0.4-3.6c0-3.5,1.2-6.8,3.2-8.5
		c1.8,2.5,2.7,4.9,2.7,7.1c0,2.9-1.3,5.6-4.3,8.1l0.9,4.2c0.5,0,0.8-0.1,0.8-0.1c2.6,0,4.8,2,4.8,4.7c0,1.9-1.4,3.7-3.6,4.8
		c0-0.1,0.9,3.8,0.9,4.3c0,2.5-2.3,4.2-4.9,4.2c-2,0-3.6-1.3-3.6-3.4c0-1.4,1-2.6,2.4-2.6c1.3,0,2.3,1.3,2.3,2.5
		c0,1.4-1.2,2.3-2.7,2.5c0.6,0.3,1.2,0.5,1.9,0.5c2.1,0,4.1-1.6,4.1-3.6c0-0.2,0-0.4-0.1-0.6l-0.8-3.7C21.9,42,21.2,42.1,20.3,42.1z
		 M18.1,36.9c0,1,0.5,1.9,1.6,2.5c-1.8-0.3-3-1.4-3-3.1c0-2,1.7-3.7,3.8-4.1l-0.8-4C16,31,14,33.7,14,36.3c0,2.9,2.8,5.3,6,5.3
		c0.9,0,1.7-0.2,2.4-0.5L21,34.3C19.4,34.5,18.1,35.5,18.1,36.9z M22.1,15.6c-1.6,0-2.9,3.7-2.9,7c0,0.7,0,1.3,0.2,1.9
		c2.7-2.4,4-4.5,4-6.5c0-0.9-0.3-1.7-1-2.4C22.4,15.6,22.3,15.6,22.1,15.6z M24.9,37.4c0-1.6-1.2-3.3-2.9-3.3c-0.1,0-0.2,0-0.5,0
		l1.4,6.6C24.2,39.9,24.9,38.7,24.9,37.4z"/>
</g>
<g>
	<path d="M33.5,15.6v2.8l1-0.3v1.8l-1,0.3v3.4l1-0.3v1.8l-1,0.3v3.1H33v-3l-1.9,0.6v3h-0.5v-2.8l-1,0.3v-1.8l1-0.3v-3.4l-1,0.3v-1.8
		l1-0.3v-3.1h0.5v3l1.9-0.6v-3H33.5z M33,20.4L31.1,21v3.4l1.9-0.6V20.4z"/>
</g>
<g>
	<path d="M39.7,23.1v2.8l1-0.3v1.8l-1,0.3v3.4l1-0.3v1.8l-1,0.3V36h-0.5v-3l-1.9,0.6v3h-0.5v-2.8l-1,0.3v-1.8l1-0.3v-3.4l-1,0.3
		v-1.8l1-0.3v-3.1h0.5v3l1.9-0.6v-3H39.7z M39.2,27.8l-1.9,0.6v3.4l1.9-0.6V27.8z"/>
</g>
<g>
	<path d="M45.9,13.1V16l1-0.3v1.8l-1,0.3v3.4l1-0.3v1.8l-1,0.3v3.1h-0.5v-3l-1.9,0.6v3H43v-2.8l-1,0.3v-1.8l1-0.3v-3.4l-1,0.3v-1.8
		l1-0.3v-3.1h0.5v3l1.9-0.6v-3H45.9z M45.4,17.9l-1.9,0.6V22l1.9-0.6V17.9z"/>
</g>
<g>
	<path d="M52.1,20.6v2.8l1-0.3v1.8l-1,0.3v3.4l1-0.3v1.8l-1,0.3v3.1h-0.5v-3l-1.9,0.6v3h-0.5v-2.8l-1,0.3v-1.8l1-0.3v-3.4l-1,0.3
		v-1.8l1-0.3v-3.1h0.5v3l1.9-0.6v-3H52.1z M51.6,25.4L49.7,26v3.4l1.9-0.6V25.4z"/>
</g>
<polygon fill-rule="evenodd" clip-rule="evenodd" points="68.5,23.7 112.5,18.7 112.5,16.2 68.5,21.2 "/>
<polygon fill-rule="evenodd" clip-rule="evenodd" points="68.5,20 112.5,15 112.5,12.5 68.5,17.5 "/>
<polygon fill-rule="evenodd" clip-rule="evenodd" points="134.2,43.5 178.4,38.6 178.4,36.1 134.2,41 "/>
<polygon fill-rule="evenodd" clip-rule="evenodd" points="134.2,47.2 178.4,42.3 178.4,39.8 134.2,44.8 "/>
<polygon fill-rule="evenodd" clip-rule="evenodd" points="193.1,33.6 237.1,28.6 237.1,26.2 193.1,31.1 "/>
<polygon fill-rule="evenodd" clip-rule="evenodd" points="193.1,37.3 237.1,32.4 237.1,29.9 193.1,34.8 "/>
<polygon fill-rule="evenodd" clip-rule="evenodd" points="251.8,29.9 295.9,28.6 295.9,26.2 251.8,27.4 "/>
<polygon fill-rule="evenodd" clip-rule="evenodd" points="251.8,33.6 295.9,32.4 295.9,29.9 251.8,31.1 "/>
<polygon fill-rule="evenodd" clip-rule="evenodd" points="310.6,28.6 354.6,33.6 354.6,31.1 310.6,26.2 "/>
<polygon fill-rule="evenodd" clip-rule="evenodd" points="310.6,32.4 354.6,37.3 354.6,34.8 310.6,29.9 "/>
<polygon fill-rule="evenodd" clip-rule="evenodd" points="369.3,38.6 413.4,43.5 413.4,41 369.3,36.1 "/>
<polygon fill-rule="evenodd" clip-rule="evenodd" points="369.3,42.3 413.4,47.2 413.4,44.8 369.3,39.8 "/>
<polygon fill-rule="evenodd" clip-rule="evenodd" points="448.1,18.7 492.3,23.7 492.3,21.2 448.1,16.2 "/>
<polygon fill-rule="evenodd" clip-rule="evenodd" points="448.1,15 492.3,20 492.3,17.5 448.1,12.5 "/>
<rect x="8.5" y="89.2" width="544.4" height="0.5"/>
<rect x="8.5" y="84.2" width="544.4" height="0.5"/>
<rect x="8.5" y="79.3" width="544.4" height="0.5"/>
<rect x="8.5" y="74.3" width="544.4" height="0.5"/>
<rect x="8.5" y="69.3" width="544.4" height="0.5"/>
<g>
	<path d="M15.7,83.7c2.9-2.6,4.7-6.1,4.7-9.2c0-2.5-1.4-4.4-3.7-4.4c-1.6,0-3.4,1.3-3.4,2.7c0,0.2,0,0.3,0.1,0.3
		c-0.1,0,0.6-0.6,1.4-0.6c0.9,0,1.5,0.8,1.5,1.7c0,1.2-0.9,2.2-2.1,2.2c-1.2,0-2.1-1.3-2.1-2.8c0-2.3,2.3-4.1,4.8-4.1
		c4.7,0,5.9,3.2,5.9,5.8c0,1.6-0.4,2.9-2,5.3c-1.9,3.1-6.4,5.3-8.1,5.3c-0.4,0-0.6-0.2-0.6-0.5C13.8,85,14.9,84.4,15.7,83.7z
		 M25.7,71.1c0.6,0,1,0.4,1,1c0,0.6-0.4,1-1,1s-1-0.4-1-1C24.7,71.5,25.1,71.1,25.7,71.1z M25.7,76c0.6,0,1,0.4,1,1c0,0.6-0.4,1-1,1
		s-1-0.4-1-1C24.7,76.4,25.1,76,25.7,76z"/>
</g>
<g>
	<path d="M33.5,67.7v2.8l1-0.3V72l-1,0.3v3.4l1-0.3v1.8l-1,0.3v3.1H33v-3l-1.9,0.6v3h-0.5v-2.8l-1,0.3V77l1-0.3v-3.4l-1,0.3v-1.8
		l1-0.3v-3.1h0.5v3l1.9-0.6v-3H33.5z M33,72.5l-1.9,0.6v3.4l1.9-0.6V72.5z"/>
</g>
<g>
	<path d="M39.7,75.1V78l1-0.3v1.8l-1,0.3v3.4l1-0.3v1.8l-1,0.3v3.1h-0.5v-3l-1.9,0.6v3h-0.5v-2.8l-1,0.3v-1.8l1-0.3v-3.4l-1,0.3
		v-1.8l1-0.3v-3.1h0.5v3l1.9-0.6v-3H39.7z M39.2,79.9l-1.9,0.6V84l1.9-0.6V79.9z"/>
</g>
<g>
	<path d="M45.9,65.2v2.8l1-0.3v1.8l-1,0.3v3.4l1-0.3v1.8l-1,0.3v3.1h-0.5v-3l-1.9,0.6v3H43V76l-1,0.3v-1.8l1-0.3v-3.4l-1,0.3v-1.8
		l1-0.3v-3.1h0.5v3l1.9-0.6v-3H45.9z M45.4,70l-1.9,0.6v3.4l1.9-0.6V70z"/>
</g>
<g>
	<path d="M52.1,72.7v2.8l1-0.3V77l-1,0.3v3.4l1-0.3v1.8l-1,0.3v3.1h-0.5v-3l-1.9,0.6v3h-0.5v-2.8l-1,0.3V82l1-0.3v-3.4l-1,0.3v-1.8
		l1-0.3v-3.1h0.5v3l1.9-0.6v-3H52.1z M51.6,77.4l-1.9,0.6v3.4l1.9-0.6V77.4z"/>
</g>
<g>
	<path d="M126.2,88c-3.2,0-6.1-2.3-6.1-5.1c0-2.4,1.7-5,5.1-7.9c-0.2-0.9-0.3-1.8-0.3-2.7c0-2.6,0.9-5.1,2.4-6.3
		c1.4,1.9,2,3.7,2,5.3c0,2.2-1,4.2-3.2,6.1l0.7,3.1c0.4,0,0.6,0,0.6,0c2,0,3.6,1.5,3.6,3.5c0,1.4-1.1,2.8-2.7,3.6
		c0-0.1,0.6,2.8,0.6,3.3c0,1.9-1.7,3.2-3.7,3.2c-1.5,0-2.7-1-2.7-2.5c0-1.1,0.7-1.9,1.8-1.9c1,0,1.7,1,1.7,1.9c0,1-0.9,1.7-2,1.8
		c0.4,0.2,0.9,0.3,1.4,0.3c1.6,0,3.1-1.2,3.1-2.7c0-0.1,0-0.3,0-0.5l-0.6-2.8C127.4,87.9,126.9,88,126.2,88z M124.5,84.1
		c0,0.8,0.4,1.4,1.2,1.9c-1.3-0.2-2.2-1.1-2.2-2.3c0-1.5,1.3-2.8,2.9-3.1l-0.6-3c-2.8,2.1-4.3,4.1-4.3,6.1c0,2.2,2.1,4,4.5,4
		c0.7,0,1.3-0.1,1.8-0.4l-1.1-5.1C125.5,82.3,124.5,83.1,124.5,84.1z M127.5,68.1c-1.2,0-2.2,2.8-2.2,5.3c0,0.5,0,1,0.1,1.4
		c2-1.8,3-3.4,3-4.9c0-0.7-0.3-1.3-0.7-1.8C127.7,68.1,127.6,68.1,127.5,68.1z M129.6,84.5c0-1.2-0.9-2.4-2.2-2.4c0,0-0.2,0-0.4,0
		l1.1,5C129.1,86.4,129.6,85.5,129.6,84.5z"/>
</g>
<polygon fill-rule="evenodd" clip-rule="evenodd" points="61.9,90.6 106,85.7 106,83.2 61.9,88.2 "/>
<polygon fill-rule="evenodd" clip-rule="evenodd" points="61.9,94.4 106,89.4 106,86.9 61.9,91.9 "/>
<polygon fill-rule="evenodd" clip-rule="evenodd" points="140.7,80.7 184.9,75.8 184.9,73.3 140.7,78.2 "/>
<polygon fill-rule="evenodd" clip-rule="evenodd" points="140.7,77 184.9,72 184.9,69.6 140.7,74.5 "/>
<polygon fill-rule="evenodd" clip-rule="evenodd" points="199.6,70.8 243.6,65.8 243.6,63.4 199.6,68.3 "/>
<polygon fill-rule="evenodd" clip-rule="evenodd" points="199.6,67.1 243.6,62.1 243.6,59.6 199.6,64.6 "/>
<polygon fill-rule="evenodd" clip-rule="evenodd" points="251.8,91.9 295.9,90.6 295.9,88.2 251.8,89.4 "/>
<polygon fill-rule="evenodd" clip-rule="evenodd" points="251.8,95.6 295.9,94.4 295.9,91.9 251.8,93.1 "/>
<polygon fill-rule="evenodd" clip-rule="evenodd" points="310.6,90.6 354.6,95.6 354.6,93.1 310.6,88.2 "/>
<polygon fill-rule="evenodd" clip-rule="evenodd" points="310.6,94.4 354.6,99.3 354.6,96.8 310.6,91.9 "/>
<g>
	<path d="M430.1,81.4c2.2-2,3.6-4.6,3.6-6.9c0-1.9-1.1-3.3-2.8-3.3c-1.2,0-2.5,1-2.5,2.1c0,0.2,0,0.2,0.1,0.2c0,0,0.4-0.5,1-0.5
		c0.7,0,1.2,0.6,1.2,1.3c0,0.9-0.6,1.7-1.6,1.7s-1.5-1-1.5-2.1c0-1.8,1.7-3.1,3.6-3.1c3.5,0,4.4,2.4,4.4,4.4c0,1.2-0.3,2.2-1.5,4
		c-1.4,2.3-4.8,4-6,4c-0.3,0-0.5-0.1-0.5-0.3C428.7,82.4,429.5,82,430.1,81.4z M437.6,71.9c0.4,0,0.7,0.3,0.7,0.7
		c0,0.4-0.3,0.7-0.7,0.7c-0.4,0-0.7-0.3-0.7-0.7C436.8,72.2,437.2,71.9,437.6,71.9z M437.6,75.6c0.4,0,0.7,0.3,0.7,0.7
		s-0.3,0.7-0.7,0.7c-0.4,0-0.7-0.3-0.7-0.7S437.2,75.6,437.6,75.6z"/>
</g>
<polygon fill-rule="evenodd" clip-rule="evenodd" points="375.8,70.8 419.9,75.8 419.9,73.3 375.8,68.3 "/>
<polygon fill-rule="evenodd" clip-rule="evenodd" points="375.8,67.1 419.9,72 419.9,69.6 375.8,64.6 "/>
<polygon fill-rule="evenodd" clip-rule="evenodd" points="441.6,80.7 485.8,85.7 485.8,83.2 441.6,78.2 "/>
<polygon fill-rule="evenodd" clip-rule="evenodd" points="441.6,84.4 485.8,89.4 485.8,86.9 441.6,82 "/>
<rect x="68.2" y="17.6" width="0.5" height="23.9"/>
<g>
	<path d="M61.8,43.1c0-1.8,2.5-3.5,4.5-3.5c1.3,0,2.3,0.7,2.3,1.7c0,1.7-2.5,3.5-4.6,3.5C62.8,44.9,61.8,44.2,61.8,43.1z"/>
</g>
<g>
	<path d="M61.8,38.2c0-1.8,2.5-3.5,4.5-3.5c1.3,0,2.3,0.7,2.3,1.7c0,1.7-2.5,3.5-4.6,3.5C62.8,39.9,61.8,39.3,61.8,38.2z"/>
</g>
<rect x="82.9" y="16.1" width="0.5" height="22.9"/>
<g>
	<path d="M76.5,40.7c0-1.8,2.5-3.5,4.5-3.5c1.3,0,2.3,0.7,2.3,1.7c0,1.7-2.5,3.5-4.6,3.5C77.5,42.4,76.5,41.7,76.5,40.7z"/>
</g>
<g>
	<path d="M76.5,35.7c0-1.8,2.5-3.5,4.5-3.5c1.3,0,2.3,0.7,2.3,1.7c0,1.7-2.5,3.5-4.6,3.5C77.5,37.4,76.5,36.8,76.5,35.7z"/>
</g>
<rect x="97.7" y="14.4" width="0.5" height="22.2"/>
<g>
	<path d="M91.2,38.2c0-1.8,2.5-3.5,4.5-3.5c1.3,0,2.3,0.7,2.3,1.7c0,1.7-2.5,3.5-4.6,3.5C92.2,39.9,91.2,39.3,91.2,38.2z"/>
</g>
<g>
	<path d="M91.2,33.2c0-1.8,2.5-3.5,4.5-3.5c1.3,0,2.3,0.7,2.3,1.7c0,1.7-2.5,3.5-4.6,3.5C92.2,34.9,91.2,34.3,91.2,33.2z"/>
</g>
<rect x="112.2" y="12.7" width="0.5" height="21.4"/>
<g>
	<path d="M105.8,35.7c0-1.8,2.5-3.5,4.5-3.5c1.3,0,2.3,0.7,2.3,1.7c0,1.7-2.5,3.5-4.6,3.5C106.8,37.4,105.8,36.8,105.8,35.7z"/>
</g>
<g>
	<path d="M105.8,30.7c0-1.8,2.5-3.5,4.5-3.5c1.3,0,2.3,0.7,2.3,1.7c0,1.7-2.5,3.5-4.6,3.5C106.8,32.5,105.8,31.8,105.8,30.7z"/>
</g>
<rect x="133.9" y="28.2" width="0.5" height="18.9"/>
<g>
	<path d="M134,28.3c0-1.8,2.5-3.5,4.5-3.5c1.3,0,2.3,0.7,2.3,1.7c0,1.7-2.5,3.5-4.6,3.5C135,30,134,29.3,134,28.3z"/>
</g>
<g>
	<path d="M134,33.2c0-1.8,2.5-3.5,4.5-3.5c1.3,0,2.3,0.7,2.3,1.7c0,1.7-2.5,3.5-4.6,3.5C135,34.9,134,34.3,134,33.2z"/>
</g>
<rect x="148.7" y="25.7" width="0.5" height="19.8"/>
<g>
	<path d="M148.7,25.8c0-1.8,2.5-3.5,4.5-3.5c1.3,0,2.3,0.7,2.3,1.7c0,1.7-2.5,3.5-4.6,3.5C149.7,27.5,148.7,26.9,148.7,25.8z"/>
</g>
<g>
	<path d="M148.7,30.7c0-1.8,2.5-3.5,4.5-3.5c1.3,0,2.3,0.7,2.3,1.7c0,1.7-2.5,3.5-4.6,3.5C149.7,32.5,148.7,31.8,148.7,30.7z"/>
</g>
<rect x="163.4" y="23.2" width="0.5" height="20.6"/>
<g>
	<path d="M163.5,23.3c0-1.8,2.5-3.5,4.5-3.5c1.3,0,2.3,0.7,2.3,1.7c0,1.7-2.5,3.5-4.6,3.5C164.4,25,163.5,24.4,163.5,23.3z"/>
</g>
<g>
	<path d="M163.5,28.3c0-1.8,2.5-3.5,4.5-3.5c1.3,0,2.3,0.7,2.3,1.7c0,1.7-2.5,3.5-4.6,3.5C164.4,30,163.5,29.3,163.5,28.3z"/>
</g>
<rect x="178.1" y="20.7" width="0.5" height="21.4"/>
<g>
	<path d="M178.2,20.8c0-1.8,2.5-3.5,4.5-3.5c1.3,0,2.3,0.7,2.3,1.7c0,1.7-2.5,3.5-4.6,3.5C179.2,22.5,178.2,21.9,178.2,20.8z"/>
</g>
<g>
	<path d="M178.2,25.8c0-1.8,2.5-3.5,4.5-3.5c1.3,0,2.3,0.7,2.3,1.7c0,1.7-2.5,3.5-4.6,3.5C179.2,27.5,178.2,26.9,178.2,25.8z"/>
</g>
<rect x="191.1" y="17.1" width="10.5" height="0.8"/>
<rect x="192.9" y="18.3" width="0.5" height="18.9"/>
<g>
	<path d="M192.9,18.3c0-1.8,2.5-3.5,4.5-3.5c1.3,0,2.3,0.7,2.3,1.7c0,1.7-2.5,3.5-4.6,3.5C193.9,20.1,192.9,19.4,192.9,18.3z"/>
</g>
<g>
	<path d="M192.9,23.3c0-1.8,2.5-3.5,4.5-3.5c1.3,0,2.3,0.7,2.3,1.7c0,1.7-2.5,3.5-4.6,3.5C193.9,25,192.9,24.4,192.9,23.3z"/>
</g>
<rect x="205.6" y="17.1" width="10.5" height="0.8"/>
<rect x="207.4" y="15.8" width="0.5" height="19.8"/>
<g>
	<path d="M207.5,15.9c0-1.8,2.5-3.5,4.5-3.5c1.3,0,2.3,0.7,2.3,1.7c0,1.7-2.5,3.5-4.6,3.5C208.5,17.6,207.5,16.9,207.5,15.9z"/>
</g>
<g>
	<path d="M207.5,20.8c0-1.8,2.5-3.5,4.5-3.5c1.3,0,2.3,0.7,2.3,1.7c0,1.7-2.5,3.5-4.6,3.5C208.5,22.5,207.5,21.9,207.5,20.8z"/>
</g>
<rect x="220.4" y="17.1" width="10.5" height="0.8"/>
<rect x="220.4" y="12.1" width="10.5" height="0.8"/>
<rect x="222.1" y="13.3" width="0.5" height="20.6"/>
<g>
	<path d="M222.2,13.4c0-1.8,2.5-3.5,4.5-3.5c1.3,0,2.3,0.7,2.3,1.7c0,1.7-2.5,3.5-4.6,3.5C223.2,15.1,222.2,14.5,222.2,13.4z"/>
</g>
<g>
	<path d="M222.2,18.3c0-1.8,2.5-3.5,4.5-3.5c1.3,0,2.3,0.7,2.3,1.7c0,1.7-2.5,3.5-4.6,3.5C223.2,20.1,222.2,19.4,222.2,18.3z"/>
</g>
<rect x="235.1" y="17.1" width="10.5" height="0.8"/>
<rect x="235.1" y="12.1" width="10.5" height="0.8"/>
<rect x="236.9" y="10.8" width="0.5" height="21.4"/>
<g>
	<path d="M237,10.9c0-1.8,2.5-3.5,4.5-3.5c1.3,0,2.3,0.7,2.3,1.7c0,1.7-2.5,3.5-4.6,3.5C237.9,12.6,237,12,237,10.9z"/>
</g>
<g>
	<path d="M237,15.9c0-1.8,2.5-3.5,4.5-3.5c1.3,0,2.3,0.7,2.3,1.7c0,1.7-2.5,3.5-4.6,3.5C237.9,17.6,237,16.9,237,15.9z"/>
</g>
<rect x="249.8" y="17.1" width="10.5" height="0.8"/>
<rect x="249.8" y="12.1" width="10.5" height="0.8"/>
<rect x="249.8" y="7.2" width="10.5" height="0.8"/>
<rect x="251.6" y="8.3" width="0.5" height="25.1"/>
<g>
	<path d="M251.7,8.4c0-1.8,2.5-3.5,4.5-3.5c1.3,0,2.3,0.7,2.3,1.7c0,1.7-2.5,3.5-4.6,3.5C252.7,10.1,251.7,9.5,251.7,8.4z"/>
</g>
<g>
	<path d="M251.7,13.4c0-1.8,2.5-3.5,4.5-3.5c1.3,0,2.3,0.7,2.3,1.7c0,1.7-2.5,3.5-4.6,3.5C252.7,15.1,251.7,14.5,251.7,13.4z"/>
</g>
<rect x="264.4" y="17.1" width="10.5" height="0.8"/>
<rect x="264.4" y="12.1" width="10.5" height="0.8"/>
<rect x="264.4" y="7.2" width="10.5" height="0.8"/>
<rect x="266.2" y="5.9" width="0.5" height="27.3"/>
<g>
	<path d="M266.2,5.9c0-1.8,2.5-3.5,4.5-3.5c1.3,0,2.3,0.7,2.3,1.7c0,1.7-2.5,3.5-4.6,3.5C267.2,7.7,266.2,7,266.2,5.9z"/>
</g>
<g>
	<path d="M266.2,10.9c0-1.8,2.5-3.5,4.5-3.5c1.3,0,2.3,0.7,2.3,1.7c0,1.7-2.5,3.5-4.6,3.5C267.2,12.6,266.2,12,266.2,10.9z"/>
</g>
<rect x="279.1" y="17.1" width="10.5" height="0.8"/>
<rect x="279.1" y="12.1" width="10.5" height="0.8"/>
<rect x="279.1" y="7.2" width="10.5" height="0.8"/>
<rect x="279.1" y="2.2" width="10.5" height="0.8"/>
<rect x="280.9" y="3.4" width="0.5" height="29.3"/>
<g>
	<path d="M281,3.5c0-1.8,2.5-3.5,4.5-3.5c1.3,0,2.3,0.7,2.3,1.7c0,1.7-2.5,3.5-4.6,3.5C281.9,5.2,281,4.5,281,3.5z"/>
</g>
<g>
	<path d="M281,8.4c0-1.8,2.5-3.5,4.5-3.5c1.3,0,2.3,0.7,2.3,1.7c0,1.7-2.5,3.5-4.6,3.5C281.9,10.1,281,9.5,281,8.4z"/>
</g>
<rect x="293.8" y="17.1" width="10.5" height="0.8"/>
<rect x="293.8" y="12.1" width="10.5" height="0.8"/>
<rect x="293.8" y="7.2" width="10.5" height="0.8"/>
<rect x="295.6" y="5.9" width="0.5" height="26.4"/>
<g>
	<path d="M295.7,5.9c0-1.8,2.5-3.5,4.5-3.5c1.3,0,2.3,0.7,2.3,1.7c0,1.7-2.5,3.5-4.6,3.5C296.7,7.7,295.7,7,295.7,5.9z"/>
</g>
<g>
	<path d="M295.7,10.9c0-1.8,2.5-3.5,4.5-3.5c1.3,0,2.3,0.7,2.3,1.7c0,1.7-2.5,3.5-4.6,3.5C296.7,12.6,295.7,12,295.7,10.9z"/>
</g>
<rect x="308.6" y="17.1" width="10.5" height="0.8"/>
<rect x="308.6" y="12.1" width="10.5" height="0.8"/>
<rect x="308.6" y="7.2" width="10.5" height="0.8"/>
<rect x="310.4" y="8.3" width="0.5" height="23.9"/>
<g>
	<path d="M310.4,8.4c0-1.8,2.5-3.5,4.5-3.5c1.3,0,2.3,0.7,2.3,1.7c0,1.7-2.5,3.5-4.6,3.5C311.4,10.1,310.4,9.5,310.4,8.4z"/>
</g>
<g>
	<path d="M310.4,13.4c0-1.8,2.5-3.5,4.5-3.5c1.3,0,2.3,0.7,2.3,1.7c0,1.7-2.5,3.5-4.6,3.5C311.4,15.1,310.4,14.5,310.4,13.4z"/>
</g>
<rect x="323.3" y="17.1" width="10.5" height="0.8"/>
<rect x="323.3" y="12.1" width="10.5" height="0.8"/>
<rect x="325.1" y="10.8" width="0.5" height="22.9"/>
<g>
	<path d="M325.2,10.9c0-1.8,2.5-3.5,4.5-3.5c1.3,0,2.3,0.7,2.3,1.7c0,1.7-2.5,3.5-4.6,3.5C326.1,12.6,325.2,12,325.2,10.9z"/>
</g>
<g>
	<path d="M325.2,15.9c0-1.8,2.5-3.5,4.5-3.5c1.3,0,2.3,0.7,2.3,1.7c0,1.7-2.5,3.5-4.6,3.5C326.1,17.6,325.2,16.9,325.2,15.9z"/>
</g>
<rect x="337.9" y="17.1" width="10.5" height="0.8"/>
<rect x="337.9" y="12.1" width="10.5" height="0.8"/>
<rect x="339.6" y="13.3" width="0.5" height="22.2"/>
<g>
	<path d="M339.7,13.4c0-1.8,2.5-3.5,4.5-3.5c1.3,0,2.3,0.7,2.3,1.7c0,1.7-2.5,3.5-4.6,3.5C340.7,15.1,339.7,14.5,339.7,13.4z"/>
</g>
<g>
	<path d="M339.7,18.3c0-1.8,2.5-3.5,4.5-3.5c1.3,0,2.3,0.7,2.3,1.7c0,1.7-2.5,3.5-4.6,3.5C340.7,20.1,339.7,19.4,339.7,18.3z"/>
</g>
<rect x="352.6" y="17.1" width="10.5" height="0.8"/>
<rect x="354.4" y="15.8" width="0.5" height="21.4"/>
<g>
	<path d="M354.5,15.9c0-1.8,2.5-3.5,4.5-3.5c1.3,0,2.3,0.7,2.3,1.7c0,1.7-2.5,3.5-4.6,3.5C355.4,17.6,354.5,16.9,354.5,15.9z"/>
</g>
<g>
	<path d="M354.5,20.8c0-1.8,2.5-3.5,4.5-3.5c1.3,0,2.3,0.7,2.3,1.7c0,1.7-2.5,3.5-4.6,3.5C355.4,22.5,354.5,21.9,354.5,20.8z"/>
</g>
<rect x="367.3" y="17.1" width="10.5" height="0.8"/>
<rect x="369.1" y="18.3" width="0.5" height="23.9"/>
<g>
	<path d="M369.2,18.3c0-1.8,2.5-3.5,4.5-3.5c1.3,0,2.3,0.7,2.3,1.7c0,1.7-2.5,3.5-4.6,3.5C370.2,20.1,369.2,19.4,369.2,18.3z"/>
</g>
<g>
	<path d="M369.2,23.3c0-1.8,2.5-3.5,4.5-3.5c1.3,0,2.3,0.7,2.3,1.7c0,1.7-2.5,3.5-4.6,3.5C370.2,25,369.2,24.4,369.2,23.3z"/>
</g>
<rect x="383.8" y="20.7" width="0.5" height="22.9"/>
<g>
	<path d="M383.9,20.8c0-1.8,2.5-3.5,4.5-3.5c1.3,0,2.3,0.7,2.3,1.7c0,1.7-2.5,3.5-4.6,3.5C384.9,22.5,383.9,21.9,383.9,20.8z"/>
</g>
<g>
	<path d="M383.9,25.8c0-1.8,2.5-3.5,4.5-3.5c1.3,0,2.3,0.7,2.3,1.7c0,1.7-2.5,3.5-4.6,3.5C384.9,27.5,383.9,26.9,383.9,25.8z"/>
</g>
<rect x="398.6" y="23.2" width="0.5" height="22.2"/>
<g>
	<path d="M398.6,23.3c0-1.8,2.5-3.5,4.5-3.5c1.3,0,2.3,0.7,2.3,1.7c0,1.7-2.5,3.5-4.6,3.5C399.6,25,398.6,24.4,398.6,23.3z"/>
</g>
<g>
	<path d="M398.6,28.3c0-1.8,2.5-3.5,4.5-3.5c1.3,0,2.3,0.7,2.3,1.7c0,1.7-2.5,3.5-4.6,3.5C399.6,30,398.6,29.3,398.6,28.3z"/>
</g>
<rect x="413.1" y="25.7" width="0.5" height="21.4"/>
<g>
	<path d="M413.2,25.8c0-1.8,2.5-3.5,4.5-3.5c1.3,0,2.3,0.7,2.3,1.7c0,1.7-2.5,3.5-4.6,3.5C414.2,27.5,413.2,26.9,413.2,25.8z"/>
</g>
<g>
	<path d="M413.2,30.7c0-1.8,2.5-3.5,4.5-3.5c1.3,0,2.3,0.7,2.3,1.7c0,1.7-2.5,3.5-4.6,3.5C414.2,32.5,413.2,31.8,413.2,30.7z"/>
</g>
<rect x="447.9" y="12.7" width="0.5" height="18.9"/>
<g>
	<path d="M441.4,33.2c0-1.8,2.5-3.5,4.5-3.5c1.3,0,2.3,0.7,2.3,1.7c0,1.7-2.5,3.5-4.6,3.5C442.4,34.9,441.4,34.3,441.4,33.2z"/>
</g>
<g>
	<path d="M441.4,28.3c0-1.8,2.5-3.5,4.5-3.5c1.3,0,2.3,0.7,2.3,1.7c0,1.7-2.5,3.5-4.6,3.5C442.4,30,441.4,29.3,441.4,28.3z"/>
</g>
<rect x="462.6" y="14.2" width="0.5" height="19.8"/>
<g>
	<path d="M456.1,35.7c0-1.8,2.5-3.5,4.5-3.5c1.3,0,2.3,0.7,2.3,1.7c0,1.7-2.5,3.5-4.6,3.5C457.1,37.4,456.1,36.8,456.1,35.7z"/>
</g>
<g>
	<path d="M456.1,30.7c0-1.8,2.5-3.5,4.5-3.5c1.3,0,2.3,0.7,2.3,1.7c0,1.7-2.5,3.5-4.6,3.5C457.1,32.5,456.1,31.8,456.1,30.7z"/>
</g>
<rect x="477.3" y="15.9" width="0.5" height="20.6"/>
<g>
	<path d="M470.9,38.2c0-1.8,2.5-3.5,4.5-3.5c1.3,0,2.3,0.7,2.3,1.7c0,1.7-2.5,3.5-4.6,3.5C471.8,39.9,470.9,39.3,470.9,38.2z"/>
</g>
<g>
	<path d="M470.9,33.2c0-1.8,2.5-3.5,4.5-3.5c1.3,0,2.3,0.7,2.3,1.7c0,1.7-2.5,3.5-4.6,3.5C471.8,34.9,470.9,34.3,470.9,33.2z"/>
</g>
<rect x="492" y="17.6" width="0.5" height="21.4"/>
<g>
	<path d="M485.6,40.7c0-1.8,2.5-3.5,4.5-3.5c1.3,0,2.3,0.7,2.3,1.7c0,1.7-2.5,3.5-4.6,3.5C486.6,42.4,485.6,41.7,485.6,40.7z"/>
</g>
<g>
	<path d="M485.6,35.7c0-1.8,2.5-3.5,4.5-3.5c1.3,0,2.3,0.7,2.3,1.7c0,1.7-2.5,3.5-4.6,3.5C486.6,37.4,485.6,36.8,485.6,35.7z"/>
</g>
<rect x="506.9" y="20" width="0.5" height="21.5"/>
<g>
	<path d="M504.6,39.6c1.6,0,2.7,0.7,2.7,2c0,1.9-2.3,3.4-4.5,3.4c-1.3,0-2.4-0.7-2.4-1.8C500.3,41.4,502.6,39.6,504.6,39.6z
		 M500.8,43.4c0,0.6,0.4,0.9,1.1,0.9c1.4,0,4.9-2.1,4.9-3.3c0-0.6-0.4-0.9-1.1-0.9C504.4,40.2,500.8,42.2,500.8,43.4z"/>
</g>
<g>
	<path d="M504.6,34.6c1.6,0,2.7,0.7,2.7,2c0,1.9-2.3,3.4-4.5,3.4c-1.3,0-2.4-0.7-2.4-1.8C500.3,36.4,502.6,34.6,504.6,34.6z
		 M500.8,38.5c0,0.6,0.4,0.9,1.1,0.9c1.4,0,4.9-2.1,4.9-3.3c0-0.6-0.4-0.9-1.1-0.9C504.4,35.2,500.8,37.2,500.8,38.5z"/>
</g>
<rect x="61.7" y="72.8" width="0.5" height="21.4"/>
<g>
	<path d="M61.8,72.9c0-1.8,2.5-3.5,4.5-3.5c1.3,0,2.3,0.7,2.3,1.7c0,1.7-2.5,3.5-4.6,3.5C62.8,74.6,61.8,74,61.8,72.9z"/>
</g>
<g>
	<path d="M61.8,77.9c0-1.8,2.5-3.5,4.5-3.5c1.3,0,2.3,0.7,2.3,1.7c0,1.7-2.5,3.5-4.6,3.5C62.8,79.6,61.8,78.9,61.8,77.9z"/>
</g>
<rect x="76.4" y="70.3" width="0.5" height="22.3"/>
<g>
	<path d="M76.5,70.4c0-1.8,2.5-3.5,4.5-3.5c1.3,0,2.3,0.7,2.3,1.7c0,1.7-2.5,3.5-4.6,3.5C77.5,72.1,76.5,71.5,76.5,70.4z"/>
</g>
<g>
	<path d="M76.5,75.4c0-1.8,2.5-3.5,4.5-3.5c1.3,0,2.3,0.7,2.3,1.7c0,1.7-2.5,3.5-4.6,3.5C77.5,77.1,76.5,76.5,76.5,75.4z"/>
</g>
<rect x="91.2" y="67.9" width="0.5" height="23.1"/>
<g>
	<path d="M91.2,67.9c0-1.8,2.5-3.5,4.5-3.5c1.3,0,2.3,0.7,2.3,1.7c0,1.7-2.5,3.5-4.6,3.5C92.2,69.7,91.2,69,91.2,67.9z"/>
</g>
<g>
	<path d="M91.2,72.9c0-1.8,2.5-3.5,4.5-3.5c1.3,0,2.3,0.7,2.3,1.7c0,1.7-2.5,3.5-4.6,3.5C92.2,74.6,91.2,74,91.2,72.9z"/>
</g>
<rect x="103.9" y="64.2" width="10.5" height="0.8"/>
<rect x="105.7" y="65.4" width="0.5" height="23.9"/>
<g>
	<path d="M105.8,65.5c0-1.8,2.5-3.5,4.5-3.5c1.3,0,2.3,0.7,2.3,1.7c0,1.7-2.5,3.5-4.6,3.5C106.8,67.2,105.8,66.5,105.8,65.5z"/>
</g>
<g>
	<path d="M105.8,70.4c0-1.8,2.5-3.5,4.5-3.5c1.3,0,2.3,0.7,2.3,1.7c0,1.7-2.5,3.5-4.6,3.5C106.8,72.1,105.8,71.5,105.8,70.4z"/>
</g>
<rect x="132.2" y="94" width="10.5" height="0.8"/>
<rect x="140.5" y="74.7" width="0.5" height="21.4"/>
<g>
	<path d="M134,97.7c0-1.8,2.5-3.5,4.5-3.5c1.3,0,2.3,0.7,2.3,1.7c0,1.7-2.5,3.5-4.6,3.5C135,99.4,134,98.8,134,97.7z"/>
</g>
<g>
	<path d="M134,92.7c0-1.8,2.5-3.5,4.5-3.5c1.3,0,2.3,0.7,2.3,1.7c0,1.7-2.5,3.5-4.6,3.5C135,94.5,134,93.8,134,92.7z"/>
</g>
<rect x="146.9" y="94" width="10.5" height="0.8"/>
<rect x="155.2" y="73.1" width="0.5" height="20.5"/>
<g>
	<path d="M148.7,95.2c0-1.8,2.5-3.5,4.5-3.5c1.3,0,2.3,0.7,2.3,1.7c0,1.7-2.5,3.5-4.6,3.5C149.7,96.9,148.7,96.3,148.7,95.2z"/>
</g>
<g>
	<path d="M148.7,90.3c0-1.8,2.5-3.5,4.5-3.5c1.3,0,2.3,0.7,2.3,1.7c0,1.7-2.5,3.5-4.6,3.5C149.7,92,148.7,91.3,148.7,90.3z"/>
</g>
<rect x="169.9" y="71.4" width="0.5" height="19.7"/>
<g>
	<path d="M163.5,92.7c0-1.8,2.5-3.5,4.5-3.5c1.3,0,2.3,0.7,2.3,1.7c0,1.7-2.5,3.5-4.6,3.5C164.4,94.5,163.5,93.8,163.5,92.7z"/>
</g>
<g>
	<path d="M163.5,87.8c0-1.8,2.5-3.5,4.5-3.5c1.3,0,2.3,0.7,2.3,1.7c0,1.7-2.5,3.5-4.6,3.5C164.4,89.5,163.5,88.9,163.5,87.8z"/>
</g>
<rect x="184.6" y="69.7" width="0.5" height="18.9"/>
<g>
	<path d="M178.2,90.3c0-1.8,2.5-3.5,4.5-3.5c1.3,0,2.3,0.7,2.3,1.7c0,1.7-2.5,3.5-4.6,3.5C179.2,92,178.2,91.3,178.2,90.3z"/>
</g>
<g>
	<path d="M178.2,85.3c0-1.8,2.5-3.5,4.5-3.5c1.3,0,2.3,0.7,2.3,1.7c0,1.7-2.5,3.5-4.6,3.5C179.2,87,178.2,86.4,178.2,85.3z"/>
</g>
<rect x="199.4" y="64.8" width="0.5" height="21.4"/>
<g>
	<path d="M192.9,87.8c0-1.8,2.5-3.5,4.5-3.5c1.3,0,2.3,0.7,2.3,1.7c0,1.7-2.5,3.5-4.6,3.5C193.9,89.5,192.9,88.9,192.9,87.8z"/>
</g>
<g>
	<path d="M192.9,82.8c0-1.8,2.5-3.5,4.5-3.5c1.3,0,2.3,0.7,2.3,1.7c0,1.7-2.5,3.5-4.6,3.5C193.9,84.5,192.9,83.9,192.9,82.8z"/>
</g>
<rect x="213.9" y="63.2" width="0.5" height="20.5"/>
<g>
	<path d="M207.5,85.3c0-1.8,2.5-3.5,4.5-3.5c1.3,0,2.3,0.7,2.3,1.7c0,1.7-2.5,3.5-4.6,3.5C208.5,87,207.5,86.4,207.5,85.3z"/>
</g>
<g>
	<path d="M207.5,80.3c0-1.8,2.5-3.5,4.5-3.5c1.3,0,2.3,0.7,2.3,1.7c0,1.7-2.5,3.5-4.6,3.5C208.5,82.1,207.5,81.4,207.5,80.3z"/>
</g>
<rect x="228.7" y="61.5" width="0.5" height="19.7"/>
<g>
	<path d="M222.2,82.8c0-1.8,2.5-3.5,4.5-3.5c1.3,0,2.3,0.7,2.3,1.7c0,1.7-2.5,3.5-4.6,3.5C223.2,84.5,222.2,83.9,222.2,82.8z"/>
</g>
<g>
	<path d="M222.2,77.9c0-1.8,2.5-3.5,4.5-3.5c1.3,0,2.3,0.7,2.3,1.7c0,1.7-2.5,3.5-4.6,3.5C223.2,79.6,222.2,78.9,222.2,77.9z"/>
</g>
<rect x="243.4" y="59.8" width="0.5" height="18.9"/>
<g>
	<path d="M237,80.3c0-1.8,2.5-3.5,4.5-3.5c1.3,0,2.3,0.7,2.3,1.7c0,1.7-2.5,3.5-4.6,3.5C237.9,82.1,237,81.4,237,80.3z"/>
</g>
<g>
	<path d="M237,75.4c0-1.8,2.5-3.5,4.5-3.5c1.3,0,2.3,0.7,2.3,1.7c0,1.7-2.5,3.5-4.6,3.5C237.9,77.1,237,76.5,237,75.4z"/>
</g>
<rect x="251.6" y="72.8" width="0.5" height="22.6"/>
<g>
	<path d="M251.7,72.9c0-1.8,2.5-3.5,4.5-3.5c1.3,0,2.3,0.7,2.3,1.7c0,1.7-2.5,3.5-4.6,3.5C252.7,74.6,251.7,74,251.7,72.9z"/>
</g>
<g>
	<path d="M251.7,77.9c0-1.8,2.5-3.5,4.5-3.5c1.3,0,2.3,0.7,2.3,1.7c0,1.7-2.5,3.5-4.6,3.5C252.7,79.6,251.7,78.9,251.7,77.9z"/>
</g>
<rect x="266.2" y="70.3" width="0.5" height="24.8"/>
<g>
	<path d="M266.2,70.4c0-1.8,2.5-3.5,4.5-3.5c1.3,0,2.3,0.7,2.3,1.7c0,1.7-2.5,3.5-4.6,3.5C267.2,72.1,266.2,71.5,266.2,70.4z"/>
</g>
<g>
	<path d="M266.2,75.4c0-1.8,2.5-3.5,4.5-3.5c1.3,0,2.3,0.7,2.3,1.7c0,1.7-2.5,3.5-4.6,3.5C267.2,77.1,266.2,76.5,266.2,75.4z"/>
</g>
<rect x="280.9" y="67.9" width="0.5" height="26.8"/>
<g>
	<path d="M281,67.9c0-1.8,2.5-3.5,4.5-3.5c1.3,0,2.3,0.7,2.3,1.7c0,1.7-2.5,3.5-4.6,3.5C281.9,69.7,281,69,281,67.9z"/>
</g>
<g>
	<path d="M281,72.9c0-1.8,2.5-3.5,4.5-3.5c1.3,0,2.3,0.7,2.3,1.7c0,1.7-2.5,3.5-4.6,3.5C281.9,74.6,281,74,281,72.9z"/>
</g>
<rect x="295.6" y="70.3" width="0.5" height="23.9"/>
<g>
	<path d="M295.7,70.4c0-1.8,2.5-3.5,4.5-3.5c1.3,0,2.3,0.7,2.3,1.7c0,1.7-2.5,3.5-4.6,3.5C296.7,72.1,295.7,71.5,295.7,70.4z"/>
</g>
<g>
	<path d="M295.7,75.4c0-1.8,2.5-3.5,4.5-3.5c1.3,0,2.3,0.7,2.3,1.7c0,1.7-2.5,3.5-4.6,3.5C296.7,77.1,295.7,76.5,295.7,75.4z"/>
</g>
<rect x="310.4" y="72.8" width="0.5" height="21.4"/>
<g>
	<path d="M310.4,72.9c0-1.8,2.5-3.5,4.5-3.5c1.3,0,2.3,0.7,2.3,1.7c0,1.7-2.5,3.5-4.6,3.5C311.4,74.6,310.4,74,310.4,72.9z"/>
</g>
<g>
	<path d="M310.4,77.9c0-1.8,2.5-3.5,4.5-3.5c1.3,0,2.3,0.7,2.3,1.7c0,1.7-2.5,3.5-4.6,3.5C311.4,79.6,310.4,78.9,310.4,77.9z"/>
</g>
<rect x="325.1" y="75.3" width="0.5" height="20.5"/>
<g>
	<path d="M325.2,75.4c0-1.8,2.5-3.5,4.5-3.5c1.3,0,2.3,0.7,2.3,1.7c0,1.7-2.5,3.5-4.6,3.5C326.1,77.1,325.2,76.5,325.2,75.4z"/>
</g>
<g>
	<path d="M325.2,80.3c0-1.8,2.5-3.5,4.5-3.5c1.3,0,2.3,0.7,2.3,1.7c0,1.7-2.5,3.5-4.6,3.5C326.1,82.1,325.2,81.4,325.2,80.3z"/>
</g>
<rect x="339.6" y="77.8" width="0.5" height="19.7"/>
<g>
	<path d="M339.7,77.9c0-1.8,2.5-3.5,4.5-3.5c1.3,0,2.3,0.7,2.3,1.7c0,1.7-2.5,3.5-4.6,3.5C340.7,79.6,339.7,78.9,339.7,77.9z"/>
</g>
<g>
	<path d="M339.7,82.8c0-1.8,2.5-3.5,4.5-3.5c1.3,0,2.3,0.7,2.3,1.7c0,1.7-2.5,3.5-4.6,3.5C340.7,84.5,339.7,83.9,339.7,82.8z"/>
</g>
<rect x="354.4" y="80.3" width="0.5" height="18.9"/>
<g>
	<path d="M354.5,80.3c0-1.8,2.5-3.5,4.5-3.5c1.3,0,2.3,0.7,2.3,1.7c0,1.7-2.5,3.5-4.6,3.5C355.4,82.1,354.5,81.4,354.5,80.3z"/>
</g>
<g>
	<path d="M354.5,85.3c0-1.8,2.5-3.5,4.5-3.5c1.3,0,2.3,0.7,2.3,1.7c0,1.7-2.5,3.5-4.6,3.5C355.4,87,354.5,86.4,354.5,85.3z"/>
</g>
<rect x="375.6" y="64.8" width="0.5" height="21.4"/>
<g>
	<path d="M369.2,87.8c0-1.8,2.5-3.5,4.5-3.5c1.3,0,2.3,0.7,2.3,1.7c0,1.7-2.5,3.5-4.6,3.5C370.2,89.5,369.2,88.9,369.2,87.8z"/>
</g>
<g>
	<path d="M369.2,82.8c0-1.8,2.5-3.5,4.5-3.5c1.3,0,2.3,0.7,2.3,1.7c0,1.7-2.5,3.5-4.6,3.5C370.2,84.5,369.2,83.9,369.2,82.8z"/>
</g>
<rect x="390.3" y="66.3" width="0.5" height="22.3"/>
<g>
	<path d="M383.9,90.3c0-1.8,2.5-3.5,4.5-3.5c1.3,0,2.3,0.7,2.3,1.7c0,1.7-2.5,3.5-4.6,3.5C384.9,92,383.9,91.3,383.9,90.3z"/>
</g>
<g>
	<path d="M383.9,85.3c0-1.8,2.5-3.5,4.5-3.5c1.3,0,2.3,0.7,2.3,1.7c0,1.7-2.5,3.5-4.6,3.5C384.9,87,383.9,86.4,383.9,85.3z"/>
</g>
<rect x="405.1" y="68" width="0.5" height="23.1"/>
<g>
	<path d="M398.6,92.7c0-1.8,2.5-3.5,4.5-3.5c1.3,0,2.3,0.7,2.3,1.7c0,1.7-2.5,3.5-4.6,3.5C399.6,94.5,398.6,93.8,398.6,92.7z"/>
</g>
<g>
	<path d="M398.6,87.8c0-1.8,2.5-3.5,4.5-3.5c1.3,0,2.3,0.7,2.3,1.7c0,1.7-2.5,3.5-4.6,3.5C399.6,89.5,398.6,88.9,398.6,87.8z"/>
</g>
<rect x="411.3" y="94" width="10.5" height="0.8"/>
<rect x="419.6" y="69.7" width="0.5" height="23.9"/>
<g>
	<path d="M413.2,95.2c0-1.8,2.5-3.5,4.5-3.5c1.3,0,2.3,0.7,2.3,1.7c0,1.7-2.5,3.5-4.6,3.5C414.2,96.9,413.2,96.3,413.2,95.2z"/>
</g>
<g>
	<path d="M413.2,90.3c0-1.8,2.5-3.5,4.5-3.5c1.3,0,2.3,0.7,2.3,1.7c0,1.7-2.5,3.5-4.6,3.5C414.2,92,413.2,91.3,413.2,90.3z"/>
</g>
<rect x="439.6" y="64.2" width="10.5" height="0.8"/>
<rect x="441.3" y="62.9" width="0.5" height="21.4"/>
<g>
	<path d="M441.4,63c0-1.8,2.5-3.5,4.5-3.5c1.3,0,2.3,0.7,2.3,1.7c0,1.7-2.5,3.5-4.6,3.5C442.4,64.7,441.4,64.1,441.4,63z"/>
</g>
<g>
	<path d="M441.4,67.9c0-1.8,2.5-3.5,4.5-3.5c1.3,0,2.3,0.7,2.3,1.7c0,1.7-2.5,3.5-4.6,3.5C442.4,69.7,441.4,69,441.4,67.9z"/>
</g>
<rect x="454.3" y="64.2" width="10.5" height="0.8"/>
<rect x="456.1" y="65.4" width="0.5" height="20.5"/>
<g>
	<path d="M456.1,65.5c0-1.8,2.5-3.5,4.5-3.5c1.3,0,2.3,0.7,2.3,1.7c0,1.7-2.5,3.5-4.6,3.5C457.1,67.2,456.1,66.5,456.1,65.5z"/>
</g>
<g>
	<path d="M456.1,70.4c0-1.8,2.5-3.5,4.5-3.5c1.3,0,2.3,0.7,2.3,1.7c0,1.7-2.5,3.5-4.6,3.5C457.1,72.1,456.1,71.5,456.1,70.4z"/>
</g>
<rect x="470.8" y="67.9" width="0.5" height="19.7"/>
<g>
	<path d="M470.9,67.9c0-1.8,2.5-3.5,4.5-3.5c1.3,0,2.3,0.7,2.3,1.7c0,1.7-2.5,3.5-4.6,3.5C471.8,69.7,470.9,69,470.9,67.9z"/>
</g>
<g>
	<path d="M470.9,72.9c0-1.8,2.5-3.5,4.5-3.5c1.3,0,2.3,0.7,2.3,1.7c0,1.7-2.5,3.5-4.6,3.5C471.8,74.6,470.9,74,470.9,72.9z"/>
</g>
<rect x="485.5" y="70.3" width="0.5" height="18.9"/>
<g>
	<path d="M485.6,70.4c0-1.8,2.5-3.5,4.5-3.5c1.3,0,2.3,0.7,2.3,1.7c0,1.7-2.5,3.5-4.6,3.5C486.6,72.1,485.6,71.5,485.6,70.4z"/>
</g>
<g>
	<path d="M485.6,75.4c0-1.8,2.5-3.5,4.5-3.5c1.3,0,2.3,0.7,2.3,1.7c0,1.7-2.5,3.5-4.6,3.5C486.6,77.1,485.6,76.5,485.6,75.4z"/>
</g>
<rect x="500.2" y="72.8" width="0.5" height="21.5"/>
<g>
	<path d="M504.6,69.3c1.6,0,2.7,0.7,2.7,2c0,1.9-2.3,3.4-4.5,3.4c-1.3,0-2.4-0.7-2.4-1.8C500.3,71.1,502.6,69.3,504.6,69.3z
		 M500.8,73.2c0,0.6,0.4,0.9,1.1,0.9c1.4,0,4.9-2.1,4.9-3.3c0-0.6-0.4-0.9-1.1-0.9C504.4,69.9,500.8,72,500.8,73.2z"/>
</g>
<g>
	<path d="M504.6,74.3c1.6,0,2.7,0.7,2.7,2c0,1.9-2.3,3.4-4.5,3.4c-1.3,0-2.4-0.7-2.4-1.8C500.3,76.1,502.6,74.3,504.6,74.3z
		 M500.8,78.2c0,0.6,0.4,0.9,1.1,0.9c1.4,0,4.9-2.1,4.9-3.3c0-0.6-0.4-0.9-1.1-0.9C504.4,74.9,500.8,76.9,500.8,78.2z"/>
</g>
</svg>
