<?xml version="1.0" encoding="utf-8"?>

<!--
	ScaleBook
	Copyright (c) Leland Jansen 2015. All rights reserved.
-->

<!DOCTYPE svg PUBLIC "-//W3C//DTD SVG 1.1//EN" "http://www.w3.org/Graphics/SVG/1.1/DTD/svg11.dtd">
<svg version="1.1" id="Layer_1" xmlns="http://www.w3.org/2000/svg" xmlns:xlink="http://www.w3.org/1999/xlink" x="0px" y="0px"
	 viewBox="0 0 552.9 86.6" enable-background="new 0 0 552.9 86.6" xml:space="preserve">
<rect x="8.4" y="9.7" width="0.8" height="67"/>
<g>
	<path d="M7.4,10.4c-1.9,1.1-3.6,5.8-3.6,9.4c0,2.3,1.4,9.9,1.4,12.3c0,5-1.5,8.6-4.6,11.1c3,2.4,4.6,6.1,4.6,11.1
		c0,2.3-1.4,9.9-1.4,12.3c0,3.8,1.7,8.4,3.6,9.5v0.7c-3.5-2.3-5.8-8.2-5.8-13.1c0-2.1,1.7-9.4,1.7-11.5c0-3.8-1-6.6-2.9-8.2
		C0.1,43.6,0,43.4,0,43.2c0-0.2,0.1-0.4,0.5-0.7c1.9-1.7,2.9-4.2,2.9-7.6c0-2.1-1.7-10-1.7-12.2c0-5.2,2.1-10.4,5.8-13.1V10.4z"/>
</g>
<rect x="547.8" y="9.7" width="0.8" height="67"/>
<rect x="550.4" y="9.7" width="2.5" height="67"/>
<rect x="8.5" y="29.3" width="544.4" height="0.5"/>
<rect x="8.5" y="24.4" width="544.4" height="0.5"/>
<rect x="8.5" y="19.4" width="544.4" height="0.5"/>
<rect x="8.5" y="14.4" width="544.4" height="0.5"/>
<rect x="8.5" y="9.5" width="544.4" height="0.5"/>
<g>
	<path d="M20.3,29.4c-4.2,0-8.1-3.1-8.1-6.9c0-3.2,2.3-6.7,6.8-10.5c-0.3-1.2-0.4-2.4-0.4-3.6c0-3.5,1.2-6.8,3.2-8.5
		c1.8,2.5,2.7,4.9,2.7,7.1c0,2.9-1.3,5.6-4.3,8.1l0.9,4.2c0.5,0,0.8-0.1,0.8-0.1c2.6,0,4.8,2,4.8,4.7c0,1.9-1.4,3.7-3.6,4.8
		c0-0.1,0.9,3.8,0.9,4.3c0,2.5-2.3,4.2-4.9,4.2c-2,0-3.6-1.3-3.6-3.4c0-1.4,1-2.6,2.4-2.6c1.3,0,2.3,1.3,2.3,2.5
		c0,1.4-1.2,2.3-2.7,2.5c0.6,0.3,1.2,0.5,1.9,0.5c2.1,0,4.1-1.6,4.1-3.6c0-0.2,0-0.4-0.1-0.6l-0.8-3.7
		C21.9,29.3,21.2,29.4,20.3,29.4z M18.1,24.2c0,1,0.5,1.9,1.6,2.5c-1.8-0.3-3-1.4-3-3.1c0-2,1.7-3.7,3.8-4.1l-0.8-4
		C16,18.3,14,21,14,23.6c0,2.9,2.8,5.3,6,5.3c0.9,0,1.7-0.2,2.4-0.5L21,21.6C19.4,21.8,18.1,22.8,18.1,24.2z M22.1,2.8
		c-1.6,0-2.9,3.7-2.9,7c0,0.7,0,1.3,0.2,1.9c2.7-2.4,4-4.5,4-6.5c0-0.9-0.3-1.7-1-2.4C22.4,2.9,22.3,2.8,22.1,2.8z M24.9,24.7
		c0-1.6-1.2-3.3-2.9-3.3c-0.1,0-0.2,0-0.5,0l1.4,6.6C24.2,27.2,24.9,26,24.9,24.7z"/>
</g>
<g>
	<path d="M33.5,2.9v2.8l1-0.3v1.8l-1,0.3V11l1-0.3v1.8l-1,0.3v3.1H33v-3l-1.9,0.6v3h-0.5v-2.8l-1,0.3v-1.8l1-0.3V8.4l-1,0.3V7l1-0.3
		V3.5h0.5v3L33,5.9v-3H33.5z M33,7.7l-1.9,0.6v3.4l1.9-0.6V7.7z"/>
</g>
<g>
	<path d="M39.7,10.3v2.8l1-0.3v1.8l-1,0.3v3.4l1-0.3v1.8l-1,0.3v3.1h-0.5v-3L37.3,21v3h-0.5v-2.8l-1,0.3v-1.8l1-0.3v-3.4l-1,0.3
		v-1.8l1-0.3V11h0.5v3l1.9-0.6v-3H39.7z M39.2,15.1l-1.9,0.6v3.4l1.9-0.6V15.1z"/>
</g>
<g>
	<path d="M45.9,0.4v2.8l1-0.3v1.8l-1,0.3v3.4l1-0.3V10l-1,0.3v3.1h-0.5v-3l-1.9,0.6v3H43v-2.8l-1,0.3V9.7l1-0.3V6l-1,0.3V4.5l1-0.3
		V1h0.5v3l1.9-0.6v-3H45.9z M45.4,5.2l-1.9,0.6v3.4l1.9-0.6V5.2z"/>
</g>
<g>
	<path d="M52.1,7.9v2.8l1-0.3v1.8l-1,0.3v3.4l1-0.3v1.8l-1,0.3v3.1h-0.5v-3l-1.9,0.6v3h-0.5v-2.8l-1,0.3v-1.8l1-0.3v-3.4l-1,0.3
		v-1.8l1-0.3V8.5h0.5v3l1.9-0.6v-3H52.1z M51.6,12.6l-1.9,0.6v3.4l1.9-0.6V12.6z"/>
</g>
<g>
	<path d="M58.3,15.3v2.8l1-0.3v1.8l-1,0.3v3.4l1-0.3v1.8l-1,0.3v3.1h-0.5v-3l-1.9,0.6v3h-0.5v-2.8l-1,0.3v-1.8l1-0.3v-3.4l-1,0.3
		v-1.8l1-0.3v-3.1h0.5v3l1.9-0.6v-3H58.3z M57.8,20.1l-1.9,0.6v3.4l1.9-0.6V20.1z"/>
</g>
<g>
	<path d="M64.5,5.4v2.8l1-0.3v1.8l-1,0.3v3.4l1-0.3v1.8l-1,0.3v3.1H64v-3L62.1,16v3h-0.5v-2.8l-1,0.3v-1.8l1-0.3v-3.4l-1,0.3V9.5
		l1-0.3V6h0.5v3L64,8.3v-3H64.5z M64,10.2l-1.9,0.6v3.4l1.9-0.6V10.2z"/>
</g>
<polygon fill-rule="evenodd" clip-rule="evenodd" points="80.9,25.8 126.3,20.9 126.3,18.4 80.9,23.4 "/>
<polygon fill-rule="evenodd" clip-rule="evenodd" points="80.9,22.1 126.3,17.2 126.3,14.7 80.9,19.6 "/>
<polygon fill-rule="evenodd" clip-rule="evenodd" points="141.5,15.9 187,11 187,8.5 141.5,13.4 "/>
<polygon fill-rule="evenodd" clip-rule="evenodd" points="141.5,12.2 187,7.2 187,4.8 141.5,9.7 "/>
<polygon fill-rule="evenodd" clip-rule="evenodd" points="195.7,35.8 241.1,30.8 241.1,28.3 195.7,33.3 "/>
<polygon fill-rule="evenodd" clip-rule="evenodd" points="195.7,39.5 241.1,34.5 241.1,32 195.7,37 "/>
<polygon fill-rule="evenodd" clip-rule="evenodd" points="256.3,27.1 301.7,25.8 301.7,23.4 256.3,24.6 "/>
<polygon fill-rule="evenodd" clip-rule="evenodd" points="256.3,30.8 301.7,29.6 301.7,27.1 256.3,28.3 "/>
<polygon fill-rule="evenodd" clip-rule="evenodd" points="316.9,30.8 362.5,35.8 362.5,33.3 316.9,28.3 "/>
<polygon fill-rule="evenodd" clip-rule="evenodd" points="316.9,34.5 362.5,39.5 362.5,37 316.9,32 "/>
<polygon fill-rule="evenodd" clip-rule="evenodd" points="384.2,11 429.6,15.9 429.6,13.4 384.2,8.5 "/>
<polygon fill-rule="evenodd" clip-rule="evenodd" points="384.2,7.2 429.6,12.2 429.6,9.7 384.2,4.8 "/>
<polygon fill-rule="evenodd" clip-rule="evenodd" points="444.8,20.9 490.2,25.8 490.2,23.4 444.8,18.4 "/>
<polygon fill-rule="evenodd" clip-rule="evenodd" points="444.8,17.2 490.2,22.1 490.2,19.6 444.8,14.7 "/>
<rect x="8.5" y="76.4" width="544.4" height="0.5"/>
<rect x="8.5" y="71.5" width="544.4" height="0.5"/>
<rect x="8.5" y="66.5" width="544.4" height="0.5"/>
<rect x="8.5" y="61.6" width="544.4" height="0.5"/>
<rect x="8.5" y="56.6" width="544.4" height="0.5"/>
<g>
	<path d="M15.7,71c2.9-2.6,4.7-6.1,4.7-9.2c0-2.5-1.4-4.4-3.7-4.4c-1.6,0-3.4,1.3-3.4,2.7c0,0.2,0,0.3,0.1,0.3
		c-0.1,0,0.6-0.6,1.4-0.6c0.9,0,1.5,0.8,1.5,1.7c0,1.2-0.9,2.2-2.1,2.2c-1.2,0-2.1-1.3-2.1-2.8c0-2.3,2.3-4.1,4.8-4.1
		c4.7,0,5.9,3.2,5.9,5.8c0,1.6-0.4,2.9-2,5.3c-1.9,3.1-6.4,5.3-8.1,5.3c-0.4,0-0.6-0.2-0.6-0.5C13.8,72.3,14.9,71.7,15.7,71z
		 M25.7,58.3c0.6,0,1,0.4,1,1c0,0.6-0.4,1-1,1s-1-0.4-1-1C24.7,58.8,25.1,58.3,25.7,58.3z M25.7,63.3c0.6,0,1,0.4,1,1
		c0,0.6-0.4,1-1,1s-1-0.4-1-1C24.7,63.7,25.1,63.3,25.7,63.3z"/>
</g>
<g>
	<path d="M33.5,55v2.8l1-0.3v1.8l-1,0.3V63l1-0.3v1.8l-1,0.3V68H33v-3l-1.9,0.6v3h-0.5v-2.8l-1,0.3v-1.8l1-0.3v-3.4l-1,0.3v-1.8
		l1-0.3v-3.1h0.5v3L33,58v-3H33.5z M33,59.8l-1.9,0.6v3.4l1.9-0.6V59.8z"/>
</g>
<g>
	<path d="M39.7,62.4v2.8l1-0.3v1.8l-1,0.3v3.4l1-0.3V72l-1,0.3v3.1h-0.5v-3l-1.9,0.6v3h-0.5v-2.8l-1,0.3v-1.8l1-0.3V68l-1,0.3v-1.8
		l1-0.3v-3.1h0.5v3l1.9-0.6v-3H39.7z M39.2,67.2l-1.9,0.6v3.4l1.9-0.6V67.2z"/>
</g>
<g>
	<path d="M45.9,52.5v2.8l1-0.3v1.8l-1,0.3v3.4l1-0.3V62l-1,0.3v3.1h-0.5v-3l-1.9,0.6v3H43v-2.8l-1,0.3v-1.8l1-0.3V58l-1,0.3v-1.8
		l1-0.3v-3.1h0.5v3l1.9-0.6v-3H45.9z M45.4,57.3l-1.9,0.6v3.4l1.9-0.6V57.3z"/>
</g>
<g>
	<path d="M52.1,59.9v2.8l1-0.3v1.8l-1,0.3V68l1-0.3v1.8l-1,0.3v3.1h-0.5v-3l-1.9,0.6v3h-0.5v-2.8l-1,0.3v-1.8l1-0.3v-3.4l-1,0.3V64
		l1-0.3v-3.1h0.5v3l1.9-0.6v-3H52.1z M51.6,64.7l-1.9,0.6v3.4l1.9-0.6V64.7z"/>
</g>
<g>
	<path d="M58.3,67.4v2.8l1-0.3v1.8l-1,0.3v3.4l1-0.3v1.8l-1,0.3v3.1h-0.5v-3L55.9,78v3h-0.5v-2.8l-1,0.3v-1.8l1-0.3v-3.4l-1,0.3
		v-1.8l1-0.3V68h0.5v3l1.9-0.6v-3H58.3z M57.8,72.2l-1.9,0.6v3.4l1.9-0.6V72.2z"/>
</g>
<g>
	<path d="M64.5,57.5v2.8l1-0.3v1.8l-1,0.3v3.4l1-0.3V67l-1,0.3v3.1H64v-3l-1.9,0.6v3h-0.5v-2.8l-1,0.3v-1.8l1-0.3V63l-1,0.3v-1.8
		l1-0.3v-3.1h0.5v3l1.9-0.6v-3H64.5z M64,62.2l-1.9,0.6v3.4l1.9-0.6V62.2z"/>
</g>
<polygon fill-rule="evenodd" clip-rule="evenodd" points="80.9,63 126.3,58.1 126.3,55.6 80.9,60.6 "/>
<polygon fill-rule="evenodd" clip-rule="evenodd" points="80.9,59.3 126.3,54.4 126.3,51.9 80.9,56.8 "/>
<polygon fill-rule="evenodd" clip-rule="evenodd" points="135,82.9 180.5,77.9 180.5,75.4 135,80.4 "/>
<polygon fill-rule="evenodd" clip-rule="evenodd" points="135,86.6 180.5,81.6 180.5,79.2 135,84.1 "/>
<polygon fill-rule="evenodd" clip-rule="evenodd" points="195.7,73 241.1,68 241.1,65.5 195.7,70.5 "/>
<polygon fill-rule="evenodd" clip-rule="evenodd" points="195.7,76.7 241.1,71.7 241.1,69.2 195.7,74.2 "/>
<polygon fill-rule="evenodd" clip-rule="evenodd" points="256.3,64.3 301.7,63 301.7,60.6 256.3,61.8 "/>
<polygon fill-rule="evenodd" clip-rule="evenodd" points="256.3,68 301.7,66.8 301.7,64.3 256.3,65.5 "/>
<polygon fill-rule="evenodd" clip-rule="evenodd" points="316.9,63 362.5,68 362.5,65.5 316.9,60.6 "/>
<polygon fill-rule="evenodd" clip-rule="evenodd" points="316.9,66.8 362.5,71.7 362.5,69.2 316.9,64.3 "/>
<polygon fill-rule="evenodd" clip-rule="evenodd" points="377.7,73 423.1,77.9 423.1,75.4 377.7,70.5 "/>
<polygon fill-rule="evenodd" clip-rule="evenodd" points="377.7,76.7 423.1,81.6 423.1,79.2 377.7,74.2 "/>
<polygon fill-rule="evenodd" clip-rule="evenodd" points="444.8,53.1 490.2,58.1 490.2,55.6 444.8,50.6 "/>
<polygon fill-rule="evenodd" clip-rule="evenodd" points="444.8,49.4 490.2,54.4 490.2,51.9 444.8,46.9 "/>
<rect x="72.3" y="34.1" width="10.5" height="0.8"/>
<rect x="72.3" y="39.1" width="10.5" height="0.8"/>
<rect x="72.3" y="44.1" width="10.5" height="0.8"/>
<rect x="80.6" y="19.8" width="0.5" height="23.9"/>
<g>
	<path d="M74.2,45.3c0-1.8,2.5-3.5,4.5-3.5c1.3,0,2.3,0.7,2.3,1.7c0,1.7-2.5,3.5-4.6,3.5C75.2,47,74.2,46.4,74.2,45.3z"/>
</g>
<g>
	<path d="M74.2,40.3c0-1.8,2.5-3.5,4.5-3.5c1.3,0,2.3,0.7,2.3,1.7c0,1.7-2.5,3.5-4.6,3.5C75.2,42.1,74.2,41.4,74.2,40.3z"/>
</g>
<rect x="87.5" y="34.1" width="10.5" height="0.8"/>
<rect x="87.5" y="39.1" width="10.5" height="0.8"/>
<rect x="95.8" y="18.2" width="0.5" height="22.9"/>
<g>
	<path d="M89.4,42.8c0-1.8,2.5-3.5,4.5-3.5c1.3,0,2.3,0.7,2.3,1.7c0,1.7-2.5,3.5-4.6,3.5C90.4,44.5,89.4,43.9,89.4,42.8z"/>
</g>
<g>
	<path d="M89.4,37.9c0-1.8,2.5-3.5,4.5-3.5c1.3,0,2.3,0.7,2.3,1.7c0,1.7-2.5,3.5-4.6,3.5C90.4,39.6,89.4,38.9,89.4,37.9z"/>
</g>
<rect x="102.7" y="34.1" width="10.5" height="0.8"/>
<rect x="102.7" y="39.1" width="10.5" height="0.8"/>
<rect x="111" y="16.5" width="0.5" height="22.2"/>
<g>
	<path d="M104.6,40.3c0-1.8,2.5-3.5,4.5-3.5c1.3,0,2.3,0.7,2.3,1.7c0,1.7-2.5,3.5-4.6,3.5C105.5,42.1,104.6,41.4,104.6,40.3z"/>
</g>
<g>
	<path d="M104.6,35.4c0-1.8,2.5-3.5,4.5-3.5c1.3,0,2.3,0.7,2.3,1.7c0,1.7-2.5,3.5-4.6,3.5C105.5,37.1,104.6,36.5,104.6,35.4z"/>
</g>
<rect x="117.7" y="34.1" width="10.5" height="0.8"/>
<rect x="126" y="14.8" width="0.5" height="21.4"/>
<g>
	<path d="M119.6,37.9c0-1.8,2.5-3.5,4.5-3.5c1.3,0,2.3,0.7,2.3,1.7c0,1.7-2.5,3.5-4.6,3.5C120.6,39.6,119.6,38.9,119.6,37.9z"/>
</g>
<g>
	<path d="M119.6,32.9c0-1.8,2.5-3.5,4.5-3.5c1.3,0,2.3,0.7,2.3,1.7c0,1.7-2.5,3.5-4.6,3.5C120.6,34.6,119.6,34,119.6,32.9z"/>
</g>
<rect x="132.9" y="34.1" width="10.5" height="0.8"/>
<rect x="141.2" y="9.9" width="0.5" height="23.9"/>
<g>
	<path d="M134.8,35.4c0-1.8,2.5-3.5,4.5-3.5c1.3,0,2.3,0.7,2.3,1.7c0,1.7-2.5,3.5-4.6,3.5C135.8,37.1,134.8,36.5,134.8,35.4z"/>
</g>
<g>
	<path d="M134.8,30.4c0-1.8,2.5-3.5,4.5-3.5c1.3,0,2.3,0.7,2.3,1.7c0,1.7-2.5,3.5-4.6,3.5C135.8,32.1,134.8,31.5,134.8,30.4z"/>
</g>
<rect x="156.4" y="8.3" width="0.5" height="22.9"/>
<g>
	<path d="M150,32.9c0-1.8,2.5-3.5,4.5-3.5c1.3,0,2.3,0.7,2.3,1.7c0,1.7-2.5,3.5-4.6,3.5C151,34.6,150,34,150,32.9z"/>
</g>
<g>
	<path d="M150,27.9c0-1.8,2.5-3.5,4.5-3.5c1.3,0,2.3,0.7,2.3,1.7c0,1.7-2.5,3.5-4.6,3.5C151,29.7,150,29,150,27.9z"/>
</g>
<rect x="171.6" y="6.6" width="0.5" height="22.2"/>
<g>
	<path d="M165.2,30.4c0-1.8,2.5-3.5,4.5-3.5c1.3,0,2.3,0.7,2.3,1.7c0,1.7-2.5,3.5-4.6,3.5C166.2,32.1,165.2,31.5,165.2,30.4z"/>
</g>
<g>
	<path d="M165.2,25.5c0-1.8,2.5-3.5,4.5-3.5c1.3,0,2.3,0.7,2.3,1.7c0,1.7-2.5,3.5-4.6,3.5C166.2,27.2,165.2,26.5,165.2,25.5z"/>
</g>
<rect x="186.8" y="4.9" width="0.5" height="21.4"/>
<g>
	<path d="M180.4,27.9c0-1.8,2.5-3.5,4.5-3.5c1.3,0,2.3,0.7,2.3,1.7c0,1.7-2.5,3.5-4.6,3.5C181.3,29.7,180.4,29,180.4,27.9z"/>
</g>
<g>
	<path d="M180.4,23c0-1.8,2.5-3.5,4.5-3.5c1.3,0,2.3,0.7,2.3,1.7c0,1.7-2.5,3.5-4.6,3.5C181.3,24.7,180.4,24.1,180.4,23z"/>
</g>
<rect x="195.5" y="20.4" width="0.5" height="18.9"/>
<g>
	<path d="M195.6,20.5c0-1.8,2.5-3.5,4.5-3.5c1.3,0,2.3,0.7,2.3,1.7c0,1.7-2.5,3.5-4.6,3.5C196.5,22.2,195.6,21.6,195.6,20.5z"/>
</g>
<g>
	<path d="M195.6,25.5c0-1.8,2.5-3.5,4.5-3.5c1.3,0,2.3,0.7,2.3,1.7c0,1.7-2.5,3.5-4.6,3.5C196.5,27.2,195.6,26.5,195.6,25.5z"/>
</g>
<rect x="210.5" y="17.9" width="0.5" height="19.8"/>
<g>
	<path d="M210.6,18c0-1.8,2.5-3.5,4.5-3.5c1.3,0,2.3,0.7,2.3,1.7c0,1.7-2.5,3.5-4.6,3.5C211.6,19.7,210.6,19.1,210.6,18z"/>
</g>
<g>
	<path d="M210.6,23c0-1.8,2.5-3.5,4.5-3.5c1.3,0,2.3,0.7,2.3,1.7c0,1.7-2.5,3.5-4.6,3.5C211.6,24.7,210.6,24.1,210.6,23z"/>
</g>
<rect x="225.7" y="15.5" width="0.5" height="20.6"/>
<g>
	<path d="M225.8,15.5c0-1.8,2.5-3.5,4.5-3.5c1.3,0,2.3,0.7,2.3,1.7c0,1.7-2.5,3.5-4.6,3.5C226.8,17.3,225.8,16.6,225.8,15.5z"/>
</g>
<g>
	<path d="M225.8,20.5c0-1.8,2.5-3.5,4.5-3.5c1.3,0,2.3,0.7,2.3,1.7c0,1.7-2.5,3.5-4.6,3.5C226.8,22.2,225.8,21.6,225.8,20.5z"/>
</g>
<rect x="240.9" y="13" width="0.5" height="21.4"/>
<g>
	<path d="M241,13c0-1.8,2.5-3.5,4.5-3.5c1.3,0,2.3,0.7,2.3,1.7c0,1.7-2.5,3.5-4.6,3.5C242,14.8,241,14.1,241,13z"/>
</g>
<g>
	<path d="M241,18c0-1.8,2.5-3.5,4.5-3.5c1.3,0,2.3,0.7,2.3,1.7c0,1.7-2.5,3.5-4.6,3.5C242,19.7,241,19.1,241,18z"/>
</g>
<rect x="256.1" y="10.5" width="0.5" height="20.2"/>
<g>
	<path d="M256.2,10.6c0-1.8,2.5-3.5,4.5-3.5c1.3,0,2.3,0.7,2.3,1.7c0,1.7-2.5,3.5-4.6,3.5C257.1,12.3,256.2,11.7,256.2,10.6z"/>
</g>
<g>
	<path d="M256.2,15.5c0-1.8,2.5-3.5,4.5-3.5c1.3,0,2.3,0.7,2.3,1.7c0,1.7-2.5,3.5-4.6,3.5C257.1,17.3,256.2,16.6,256.2,15.5z"/>
</g>
<rect x="271.3" y="8" width="0.5" height="22.3"/>
<g>
	<path d="M271.4,8.1c0-1.8,2.5-3.5,4.5-3.5c1.3,0,2.3,0.7,2.3,1.7c0,1.7-2.5,3.5-4.6,3.5C272.3,9.8,271.4,9.2,271.4,8.1z"/>
</g>
<g>
	<path d="M271.4,13c0-1.8,2.5-3.5,4.5-3.5c1.3,0,2.3,0.7,2.3,1.7c0,1.7-2.5,3.5-4.6,3.5C272.3,14.8,271.4,14.1,271.4,13z"/>
</g>
<rect x="284.7" y="4.4" width="10.5" height="0.8"/>
<rect x="286.5" y="5.5" width="0.5" height="24.3"/>
<g>
	<path d="M286.6,5.6c0-1.8,2.5-3.5,4.5-3.5c1.3,0,2.3,0.7,2.3,1.7c0,1.7-2.5,3.5-4.6,3.5C287.5,7.3,286.6,6.7,286.6,5.6z"/>
</g>
<g>
	<path d="M286.6,10.6c0-1.8,2.5-3.5,4.5-3.5c1.3,0,2.3,0.7,2.3,1.7c0,1.7-2.5,3.5-4.6,3.5C287.5,12.3,286.6,11.7,286.6,10.6z"/>
</g>
<rect x="301.5" y="8" width="0.5" height="21.4"/>
<g>
	<path d="M301.6,8.1c0-1.8,2.5-3.5,4.5-3.5c1.3,0,2.3,0.7,2.3,1.7c0,1.7-2.5,3.5-4.6,3.5C302.6,9.8,301.6,9.2,301.6,8.1z"/>
</g>
<g>
	<path d="M301.6,13c0-1.8,2.5-3.5,4.5-3.5c1.3,0,2.3,0.7,2.3,1.7c0,1.7-2.5,3.5-4.6,3.5C302.6,14.8,301.6,14.1,301.6,13z"/>
</g>
<rect x="316.7" y="10.5" width="0.5" height="23.9"/>
<g>
	<path d="M316.8,10.6c0-1.8,2.5-3.5,4.5-3.5c1.3,0,2.3,0.7,2.3,1.7c0,1.7-2.5,3.5-4.6,3.5C317.8,12.3,316.8,11.7,316.8,10.6z"/>
</g>
<g>
	<path d="M316.8,15.5c0-1.8,2.5-3.5,4.5-3.5c1.3,0,2.3,0.7,2.3,1.7c0,1.7-2.5,3.5-4.6,3.5C317.8,17.3,316.8,16.6,316.8,15.5z"/>
</g>
<rect x="331.9" y="13" width="0.5" height="22.9"/>
<g>
	<path d="M332,13c0-1.8,2.5-3.5,4.5-3.5c1.3,0,2.3,0.7,2.3,1.7c0,1.7-2.5,3.5-4.6,3.5C332.9,14.8,332,14.1,332,13z"/>
</g>
<g>
	<path d="M332,18c0-1.8,2.5-3.5,4.5-3.5c1.3,0,2.3,0.7,2.3,1.7c0,1.7-2.5,3.5-4.6,3.5C332.9,19.7,332,19.1,332,18z"/>
</g>
<rect x="347.1" y="15.5" width="0.5" height="22.2"/>
<g>
	<path d="M347.2,15.5c0-1.8,2.5-3.5,4.5-3.5c1.3,0,2.3,0.7,2.3,1.7c0,1.7-2.5,3.5-4.6,3.5C348.1,17.3,347.2,16.6,347.2,15.5z"/>
</g>
<g>
	<path d="M347.2,20.5c0-1.8,2.5-3.5,4.5-3.5c1.3,0,2.3,0.7,2.3,1.7c0,1.7-2.5,3.5-4.6,3.5C348.1,22.2,347.2,21.6,347.2,20.5z"/>
</g>
<rect x="362.3" y="17.9" width="0.5" height="21.4"/>
<g>
	<path d="M362.4,18c0-1.8,2.5-3.5,4.5-3.5c1.3,0,2.3,0.7,2.3,1.7c0,1.7-2.5,3.5-4.6,3.5C363.3,19.7,362.4,19.1,362.4,18z"/>
</g>
<g>
	<path d="M362.4,23c0-1.8,2.5-3.5,4.5-3.5c1.3,0,2.3,0.7,2.3,1.7c0,1.7-2.5,3.5-4.6,3.5C363.3,24.7,362.4,24.1,362.4,23z"/>
</g>
<rect x="384" y="4.9" width="0.5" height="18.9"/>
<g>
	<path d="M377.6,25.5c0-1.8,2.5-3.5,4.5-3.5c1.3,0,2.3,0.7,2.3,1.7c0,1.7-2.5,3.5-4.6,3.5C378.5,27.2,377.6,26.5,377.6,25.5z"/>
</g>
<g>
	<path d="M377.6,20.5c0-1.8,2.5-3.5,4.5-3.5c1.3,0,2.3,0.7,2.3,1.7c0,1.7-2.5,3.5-4.6,3.5C378.5,22.2,377.6,21.6,377.6,20.5z"/>
</g>
<rect x="399" y="6.5" width="0.5" height="19.8"/>
<g>
	<path d="M392.6,27.9c0-1.8,2.5-3.5,4.5-3.5c1.3,0,2.3,0.7,2.3,1.7c0,1.7-2.5,3.5-4.6,3.5C393.6,29.7,392.6,29,392.6,27.9z"/>
</g>
<g>
	<path d="M392.6,23c0-1.8,2.5-3.5,4.5-3.5c1.3,0,2.3,0.7,2.3,1.7c0,1.7-2.5,3.5-4.6,3.5C393.6,24.7,392.6,24.1,392.6,23z"/>
</g>
<rect x="414.2" y="8.2" width="0.5" height="20.6"/>
<g>
	<path d="M407.8,30.4c0-1.8,2.5-3.5,4.5-3.5c1.3,0,2.3,0.7,2.3,1.7c0,1.7-2.5,3.5-4.6,3.5C408.8,32.1,407.8,31.5,407.8,30.4z"/>
</g>
<g>
	<path d="M407.8,25.5c0-1.8,2.5-3.5,4.5-3.5c1.3,0,2.3,0.7,2.3,1.7c0,1.7-2.5,3.5-4.6,3.5C408.8,27.2,407.8,26.5,407.8,25.5z"/>
</g>
<rect x="429.4" y="9.9" width="0.5" height="21.4"/>
<g>
	<path d="M423,32.9c0-1.8,2.5-3.5,4.5-3.5c1.3,0,2.3,0.7,2.3,1.7c0,1.7-2.5,3.5-4.6,3.5C423.9,34.6,423,34,423,32.9z"/>
</g>
<g>
	<path d="M423,27.9c0-1.8,2.5-3.5,4.5-3.5c1.3,0,2.3,0.7,2.3,1.7c0,1.7-2.5,3.5-4.6,3.5C423.9,29.7,423,29,423,27.9z"/>
</g>
<rect x="436.3" y="34.1" width="10.5" height="0.8"/>
<rect x="444.6" y="14.8" width="0.5" height="18.9"/>
<g>
	<path d="M438.2,35.4c0-1.8,2.5-3.5,4.5-3.5c1.3,0,2.3,0.7,2.3,1.7c0,1.7-2.5,3.5-4.6,3.5C439.1,37.1,438.2,36.5,438.2,35.4z"/>
</g>
<g>
	<path d="M438.2,30.4c0-1.8,2.5-3.5,4.5-3.5c1.3,0,2.3,0.7,2.3,1.7c0,1.7-2.5,3.5-4.6,3.5C439.1,32.1,438.2,31.5,438.2,30.4z"/>
</g>
<rect x="451.5" y="34.1" width="10.5" height="0.8"/>
<rect x="459.8" y="16.4" width="0.5" height="19.8"/>
<g>
	<path d="M453.4,37.9c0-1.8,2.5-3.5,4.5-3.5c1.3,0,2.3,0.7,2.3,1.7c0,1.7-2.5,3.5-4.6,3.5C454.3,39.6,453.4,38.9,453.4,37.9z"/>
</g>
<g>
	<path d="M453.4,32.9c0-1.8,2.5-3.5,4.5-3.5c1.3,0,2.3,0.7,2.3,1.7c0,1.7-2.5,3.5-4.6,3.5C454.3,34.6,453.4,34,453.4,32.9z"/>
</g>
<rect x="466.7" y="34.1" width="10.5" height="0.8"/>
<rect x="466.7" y="39.1" width="10.5" height="0.8"/>
<rect x="475" y="18.1" width="0.5" height="20.6"/>
<g>
	<path d="M468.5,40.3c0-1.8,2.5-3.5,4.5-3.5c1.3,0,2.3,0.7,2.3,1.7c0,1.7-2.5,3.5-4.6,3.5C469.5,42.1,468.5,41.4,468.5,40.3z"/>
</g>
<g>
	<path d="M468.5,35.4c0-1.8,2.5-3.5,4.5-3.5c1.3,0,2.3,0.7,2.3,1.7c0,1.7-2.5,3.5-4.6,3.5C469.5,37.1,468.5,36.5,468.5,35.4z"/>
</g>
<rect x="481.7" y="34.1" width="10.5" height="0.8"/>
<rect x="481.7" y="39.1" width="10.5" height="0.8"/>
<rect x="490" y="19.8" width="0.5" height="21.4"/>
<g>
	<path d="M483.6,42.8c0-1.8,2.5-3.5,4.5-3.5c1.3,0,2.3,0.7,2.3,1.7c0,1.7-2.5,3.5-4.6,3.5C484.6,44.5,483.6,43.9,483.6,42.8z"/>
</g>
<g>
	<path d="M483.6,37.9c0-1.8,2.5-3.5,4.5-3.5c1.3,0,2.3,0.7,2.3,1.7c0,1.7-2.5,3.5-4.6,3.5C484.6,39.6,483.6,38.9,483.6,37.9z"/>
</g>
<rect x="496.9" y="34.1" width="10.7" height="0.8"/>
<rect x="496.9" y="39.1" width="10.7" height="0.8"/>
<rect x="496.9" y="44.1" width="10.7" height="0.8"/>
<rect x="505.4" y="19.6" width="0.5" height="24"/>
<g>
	<path d="M503,41.7c1.6,0,2.7,0.7,2.7,2c0,1.9-2.3,3.4-4.5,3.4c-1.3,0-2.4-0.7-2.4-1.8C498.8,43.5,501,41.7,503,41.7z M499.2,45.6
		c0,0.6,0.4,0.9,1.1,0.9c1.4,0,4.9-2.1,4.9-3.3c0-0.6-0.4-0.9-1.1-0.9C502.9,42.3,499.2,44.4,499.2,45.6z"/>
</g>
<g>
	<path d="M503,36.8c1.6,0,2.7,0.7,2.7,2c0,1.9-2.3,3.4-4.5,3.4c-1.3,0-2.4-0.7-2.4-1.8C498.8,38.6,501,36.8,503,36.8z M499.2,40.6
		c0,0.6,0.4,0.9,1.1,0.9c1.4,0,4.9-2.1,4.9-3.3c0-0.6-0.4-0.9-1.1-0.9C502.9,37.4,499.2,39.4,499.2,40.6z"/>
</g>
<rect x="80.6" y="57" width="0.5" height="21.4"/>
<g>
	<path d="M74.2,80c0-1.8,2.5-3.5,4.5-3.5c1.3,0,2.3,0.7,2.3,1.7c0,1.7-2.5,3.5-4.6,3.5C75.2,81.7,74.2,81.1,74.2,80z"/>
</g>
<g>
	<path d="M74.2,75.1c0-1.8,2.5-3.5,4.5-3.5c1.3,0,2.3,0.7,2.3,1.7c0,1.7-2.5,3.5-4.6,3.5C75.2,76.8,74.2,76.1,74.2,75.1z"/>
</g>
<rect x="95.8" y="55.4" width="0.5" height="20.5"/>
<g>
	<path d="M89.4,77.5c0-1.8,2.5-3.5,4.5-3.5c1.3,0,2.3,0.7,2.3,1.7c0,1.7-2.5,3.5-4.6,3.5C90.4,79.3,89.4,78.6,89.4,77.5z"/>
</g>
<g>
	<path d="M89.4,72.6c0-1.8,2.5-3.5,4.5-3.5c1.3,0,2.3,0.7,2.3,1.7c0,1.7-2.5,3.5-4.6,3.5C90.4,74.3,89.4,73.7,89.4,72.6z"/>
</g>
<rect x="111" y="53.7" width="0.5" height="19.7"/>
<g>
	<path d="M104.6,75.1c0-1.8,2.5-3.5,4.5-3.5c1.3,0,2.3,0.7,2.3,1.7c0,1.7-2.5,3.5-4.6,3.5C105.5,76.8,104.6,76.1,104.6,75.1z"/>
</g>
<g>
	<path d="M104.6,70.1c0-1.8,2.5-3.5,4.5-3.5c1.3,0,2.3,0.7,2.3,1.7c0,1.7-2.5,3.5-4.6,3.5C105.5,71.8,104.6,71.2,104.6,70.1z"/>
</g>
<rect x="126" y="52" width="0.5" height="18.9"/>
<g>
	<path d="M119.6,72.6c0-1.8,2.5-3.5,4.5-3.5c1.3,0,2.3,0.7,2.3,1.7c0,1.7-2.5,3.5-4.6,3.5C120.6,74.3,119.6,73.7,119.6,72.6z"/>
</g>
<g>
	<path d="M119.6,67.6c0-1.8,2.5-3.5,4.5-3.5c1.3,0,2.3,0.7,2.3,1.7c0,1.7-2.5,3.5-4.6,3.5C120.6,69.3,119.6,68.7,119.6,67.6z"/>
</g>
<rect x="134.7" y="65.1" width="0.5" height="21.4"/>
<g>
	<path d="M134.8,65.1c0-1.8,2.5-3.5,4.5-3.5c1.3,0,2.3,0.7,2.3,1.7c0,1.7-2.5,3.5-4.6,3.5C135.8,66.9,134.8,66.2,134.8,65.1z"/>
</g>
<g>
	<path d="M134.8,70.1c0-1.8,2.5-3.5,4.5-3.5c1.3,0,2.3,0.7,2.3,1.7c0,1.7-2.5,3.5-4.6,3.5C135.8,71.8,134.8,71.2,134.8,70.1z"/>
</g>
<rect x="149.9" y="62.6" width="0.5" height="22.3"/>
<g>
	<path d="M150,62.7c0-1.8,2.5-3.5,4.5-3.5c1.3,0,2.3,0.7,2.3,1.7c0,1.7-2.5,3.5-4.6,3.5C151,64.4,150,63.7,150,62.7z"/>
</g>
<g>
	<path d="M150,67.6c0-1.8,2.5-3.5,4.5-3.5c1.3,0,2.3,0.7,2.3,1.7c0,1.7-2.5,3.5-4.6,3.5C151,69.3,150,68.7,150,67.6z"/>
</g>
<rect x="165.1" y="60.1" width="0.5" height="23.1"/>
<g>
	<path d="M165.2,60.2c0-1.8,2.5-3.5,4.5-3.5c1.3,0,2.3,0.7,2.3,1.7c0,1.7-2.5,3.5-4.6,3.5C166.2,61.9,165.2,61.3,165.2,60.2z"/>
</g>
<g>
	<path d="M165.2,65.1c0-1.8,2.5-3.5,4.5-3.5c1.3,0,2.3,0.7,2.3,1.7c0,1.7-2.5,3.5-4.6,3.5C166.2,66.9,165.2,66.2,165.2,65.1z"/>
</g>
<rect x="180.3" y="57.6" width="0.5" height="23.9"/>
<g>
	<path d="M180.4,57.7c0-1.8,2.5-3.5,4.5-3.5c1.3,0,2.3,0.7,2.3,1.7c0,1.7-2.5,3.5-4.6,3.5C181.3,59.4,180.4,58.8,180.4,57.7z"/>
</g>
<g>
	<path d="M180.4,62.7c0-1.8,2.5-3.5,4.5-3.5c1.3,0,2.3,0.7,2.3,1.7c0,1.7-2.5,3.5-4.6,3.5C181.3,64.4,180.4,63.7,180.4,62.7z"/>
</g>
<rect x="195.5" y="55.1" width="0.5" height="21.4"/>
<g>
	<path d="M195.6,55.2c0-1.8,2.5-3.5,4.5-3.5c1.3,0,2.3,0.7,2.3,1.7c0,1.7-2.5,3.5-4.6,3.5C196.5,56.9,195.6,56.3,195.6,55.2z"/>
</g>
<g>
	<path d="M195.6,60.2c0-1.8,2.5-3.5,4.5-3.5c1.3,0,2.3,0.7,2.3,1.7c0,1.7-2.5,3.5-4.6,3.5C196.5,61.9,195.6,61.3,195.6,60.2z"/>
</g>
<rect x="208.7" y="51.5" width="10.5" height="0.8"/>
<rect x="210.5" y="52.7" width="0.5" height="22.3"/>
<g>
	<path d="M210.6,52.7c0-1.8,2.5-3.5,4.5-3.5c1.3,0,2.3,0.7,2.3,1.7c0,1.7-2.5,3.5-4.6,3.5C211.6,54.5,210.6,53.8,210.6,52.7z"/>
</g>
<g>
	<path d="M210.6,57.7c0-1.8,2.5-3.5,4.5-3.5c1.3,0,2.3,0.7,2.3,1.7c0,1.7-2.5,3.5-4.6,3.5C211.6,59.4,210.6,58.8,210.6,57.7z"/>
</g>
<rect x="223.9" y="51.5" width="10.5" height="0.8"/>
<rect x="225.7" y="50.2" width="0.5" height="23.1"/>
<g>
	<path d="M225.8,50.3c0-1.8,2.5-3.5,4.5-3.5c1.3,0,2.3,0.7,2.3,1.7c0,1.7-2.5,3.5-4.6,3.5C226.8,52,225.8,51.3,225.8,50.3z"/>
</g>
<g>
	<path d="M225.8,55.2c0-1.8,2.5-3.5,4.5-3.5c1.3,0,2.3,0.7,2.3,1.7c0,1.7-2.5,3.5-4.6,3.5C226.8,56.9,225.8,56.3,225.8,55.2z"/>
</g>
<rect x="239.1" y="51.5" width="10.5" height="0.8"/>
<rect x="239.1" y="46.5" width="10.5" height="0.8"/>
<rect x="240.9" y="47.7" width="0.5" height="23.9"/>
<g>
	<path d="M241,47.8c0-1.8,2.5-3.5,4.5-3.5c1.3,0,2.3,0.7,2.3,1.7c0,1.7-2.5,3.5-4.6,3.5C242,49.5,241,48.9,241,47.8z"/>
</g>
<g>
	<path d="M241,52.7c0-1.8,2.5-3.5,4.5-3.5c1.3,0,2.3,0.7,2.3,1.7c0,1.7-2.5,3.5-4.6,3.5C242,54.5,241,53.8,241,52.7z"/>
</g>
<rect x="254.3" y="51.5" width="10.5" height="0.8"/>
<rect x="254.3" y="46.5" width="10.5" height="0.8"/>
<rect x="256.1" y="45.2" width="0.5" height="22.6"/>
<g>
	<path d="M256.2,45.3c0-1.8,2.5-3.5,4.5-3.5c1.3,0,2.3,0.7,2.3,1.7c0,1.7-2.5,3.5-4.6,3.5C257.1,47,256.2,46.4,256.2,45.3z"/>
</g>
<g>
	<path d="M256.2,50.3c0-1.8,2.5-3.5,4.5-3.5c1.3,0,2.3,0.7,2.3,1.7c0,1.7-2.5,3.5-4.6,3.5C257.1,52,256.2,51.3,256.2,50.3z"/>
</g>
<rect x="269.5" y="51.5" width="10.5" height="0.8"/>
<rect x="269.5" y="46.5" width="10.5" height="0.8"/>
<rect x="269.5" y="41.6" width="10.5" height="0.8"/>
<rect x="271.3" y="42.7" width="0.5" height="24.8"/>
<g>
	<path d="M271.4,42.8c0-1.8,2.5-3.5,4.5-3.5c1.3,0,2.3,0.7,2.3,1.7c0,1.7-2.5,3.5-4.6,3.5C272.3,44.5,271.4,43.9,271.4,42.8z"/>
</g>
<g>
	<path d="M271.4,47.8c0-1.8,2.5-3.5,4.5-3.5c1.3,0,2.3,0.7,2.3,1.7c0,1.7-2.5,3.5-4.6,3.5C272.3,49.5,271.4,48.9,271.4,47.8z"/>
</g>
<rect x="284.7" y="51.5" width="10.5" height="0.8"/>
<rect x="284.7" y="46.5" width="10.5" height="0.8"/>
<rect x="284.7" y="41.6" width="10.5" height="0.8"/>
<rect x="286.5" y="40.3" width="0.5" height="26.8"/>
<g>
	<path d="M286.6,40.3c0-1.8,2.5-3.5,4.5-3.5c1.3,0,2.3,0.7,2.3,1.7c0,1.7-2.5,3.5-4.6,3.5C287.5,42.1,286.6,41.4,286.6,40.3z"/>
</g>
<g>
	<path d="M286.6,45.3c0-1.8,2.5-3.5,4.5-3.5c1.3,0,2.3,0.7,2.3,1.7c0,1.7-2.5,3.5-4.6,3.5C287.5,47,286.6,46.4,286.6,45.3z"/>
</g>
<rect x="299.7" y="51.5" width="10.5" height="0.8"/>
<rect x="299.7" y="46.5" width="10.5" height="0.8"/>
<rect x="299.7" y="41.6" width="10.5" height="0.8"/>
<rect x="301.5" y="42.7" width="0.5" height="23.9"/>
<g>
	<path d="M301.6,42.8c0-1.8,2.5-3.5,4.5-3.5c1.3,0,2.3,0.7,2.3,1.7c0,1.7-2.5,3.5-4.6,3.5C302.6,44.5,301.6,43.9,301.6,42.8z"/>
</g>
<g>
	<path d="M301.6,47.8c0-1.8,2.5-3.5,4.5-3.5c1.3,0,2.3,0.7,2.3,1.7c0,1.7-2.5,3.5-4.6,3.5C302.6,49.5,301.6,48.9,301.6,47.8z"/>
</g>
<rect x="314.9" y="51.5" width="10.5" height="0.8"/>
<rect x="314.9" y="46.5" width="10.5" height="0.8"/>
<rect x="316.7" y="45.2" width="0.5" height="21.4"/>
<g>
	<path d="M316.8,45.3c0-1.8,2.5-3.5,4.5-3.5c1.3,0,2.3,0.7,2.3,1.7c0,1.7-2.5,3.5-4.6,3.5C317.8,47,316.8,46.4,316.8,45.3z"/>
</g>
<g>
	<path d="M316.8,50.3c0-1.8,2.5-3.5,4.5-3.5c1.3,0,2.3,0.7,2.3,1.7c0,1.7-2.5,3.5-4.6,3.5C317.8,52,316.8,51.3,316.8,50.3z"/>
</g>
<rect x="330.1" y="51.5" width="10.5" height="0.8"/>
<rect x="330.1" y="46.5" width="10.5" height="0.8"/>
<rect x="331.9" y="47.7" width="0.5" height="20.5"/>
<g>
	<path d="M332,47.8c0-1.8,2.5-3.5,4.5-3.5c1.3,0,2.3,0.7,2.3,1.7c0,1.7-2.5,3.5-4.6,3.5C332.9,49.5,332,48.9,332,47.8z"/>
</g>
<g>
	<path d="M332,52.7c0-1.8,2.5-3.5,4.5-3.5c1.3,0,2.3,0.7,2.3,1.7c0,1.7-2.5,3.5-4.6,3.5C332.9,54.5,332,53.8,332,52.7z"/>
</g>
<rect x="345.3" y="51.5" width="10.5" height="0.8"/>
<rect x="347.1" y="50.2" width="0.5" height="19.7"/>
<g>
	<path d="M347.2,50.3c0-1.8,2.5-3.5,4.5-3.5c1.3,0,2.3,0.7,2.3,1.7c0,1.7-2.5,3.5-4.6,3.5C348.1,52,347.2,51.3,347.2,50.3z"/>
</g>
<g>
	<path d="M347.2,55.2c0-1.8,2.5-3.5,4.5-3.5c1.3,0,2.3,0.7,2.3,1.7c0,1.7-2.5,3.5-4.6,3.5C348.1,56.9,347.2,56.3,347.2,55.2z"/>
</g>
<rect x="360.5" y="51.5" width="10.5" height="0.8"/>
<rect x="362.3" y="52.7" width="0.5" height="18.9"/>
<g>
	<path d="M362.4,52.7c0-1.8,2.5-3.5,4.5-3.5c1.3,0,2.3,0.7,2.3,1.7c0,1.7-2.5,3.5-4.6,3.5C363.3,54.5,362.4,53.8,362.4,52.7z"/>
</g>
<g>
	<path d="M362.4,57.7c0-1.8,2.5-3.5,4.5-3.5c1.3,0,2.3,0.7,2.3,1.7c0,1.7-2.5,3.5-4.6,3.5C363.3,59.4,362.4,58.8,362.4,57.7z"/>
</g>
<rect x="377.5" y="55.1" width="0.5" height="21.4"/>
<g>
	<path d="M377.6,55.2c0-1.8,2.5-3.5,4.5-3.5c1.3,0,2.3,0.7,2.3,1.7c0,1.7-2.5,3.5-4.6,3.5C378.5,56.9,377.6,56.3,377.6,55.2z"/>
</g>
<g>
	<path d="M377.6,60.2c0-1.8,2.5-3.5,4.5-3.5c1.3,0,2.3,0.7,2.3,1.7c0,1.7-2.5,3.5-4.6,3.5C378.5,61.9,377.6,61.3,377.6,60.2z"/>
</g>
<rect x="392.5" y="57.6" width="0.5" height="20.5"/>
<g>
	<path d="M392.6,57.7c0-1.8,2.5-3.5,4.5-3.5c1.3,0,2.3,0.7,2.3,1.7c0,1.7-2.5,3.5-4.6,3.5C393.6,59.4,392.6,58.8,392.6,57.7z"/>
</g>
<g>
	<path d="M392.6,62.7c0-1.8,2.5-3.5,4.5-3.5c1.3,0,2.3,0.7,2.3,1.7c0,1.7-2.5,3.5-4.6,3.5C393.6,64.4,392.6,63.7,392.6,62.7z"/>
</g>
<rect x="407.7" y="60.1" width="0.5" height="19.7"/>
<g>
	<path d="M407.8,60.2c0-1.8,2.5-3.5,4.5-3.5c1.3,0,2.3,0.7,2.3,1.7c0,1.7-2.5,3.5-4.6,3.5C408.8,61.9,407.8,61.3,407.8,60.2z"/>
</g>
<g>
	<path d="M407.8,65.1c0-1.8,2.5-3.5,4.5-3.5c1.3,0,2.3,0.7,2.3,1.7c0,1.7-2.5,3.5-4.6,3.5C408.8,66.9,407.8,66.2,407.8,65.1z"/>
</g>
<rect x="422.9" y="62.6" width="0.5" height="18.9"/>
<g>
	<path d="M423,62.7c0-1.8,2.5-3.5,4.5-3.5c1.3,0,2.3,0.7,2.3,1.7c0,1.7-2.5,3.5-4.6,3.5C423.9,64.4,423,63.7,423,62.7z"/>
</g>
<g>
	<path d="M423,67.6c0-1.8,2.5-3.5,4.5-3.5c1.3,0,2.3,0.7,2.3,1.7c0,1.7-2.5,3.5-4.6,3.5C423.9,69.3,423,68.7,423,67.6z"/>
</g>
<rect x="444.6" y="47.1" width="0.5" height="21.4"/>
<g>
	<path d="M438.2,70.1c0-1.8,2.5-3.5,4.5-3.5c1.3,0,2.3,0.7,2.3,1.7c0,1.7-2.5,3.5-4.6,3.5C439.1,71.8,438.2,71.2,438.2,70.1z"/>
</g>
<g>
	<path d="M438.2,65.1c0-1.8,2.5-3.5,4.5-3.5c1.3,0,2.3,0.7,2.3,1.7c0,1.7-2.5,3.5-4.6,3.5C439.1,66.9,438.2,66.2,438.2,65.1z"/>
</g>
<rect x="459.8" y="48.6" width="0.5" height="22.3"/>
<g>
	<path d="M453.4,72.6c0-1.8,2.5-3.5,4.5-3.5c1.3,0,2.3,0.7,2.3,1.7c0,1.7-2.5,3.5-4.6,3.5C454.3,74.3,453.4,73.7,453.4,72.6z"/>
</g>
<g>
	<path d="M453.4,67.6c0-1.8,2.5-3.5,4.5-3.5c1.3,0,2.3,0.7,2.3,1.7c0,1.7-2.5,3.5-4.6,3.5C454.3,69.3,453.4,68.7,453.4,67.6z"/>
</g>
<rect x="475" y="50.3" width="0.5" height="23.1"/>
<g>
	<path d="M468.5,75.1c0-1.8,2.5-3.5,4.5-3.5c1.3,0,2.3,0.7,2.3,1.7c0,1.7-2.5,3.5-4.6,3.5C469.5,76.8,468.5,76.1,468.5,75.1z"/>
</g>
<g>
	<path d="M468.5,70.1c0-1.8,2.5-3.5,4.5-3.5c1.3,0,2.3,0.7,2.3,1.7c0,1.7-2.5,3.5-4.6,3.5C469.5,71.8,468.5,71.2,468.5,70.1z"/>
</g>
<rect x="490" y="52" width="0.5" height="23.9"/>
<g>
	<path d="M483.6,77.5c0-1.8,2.5-3.5,4.5-3.5c1.3,0,2.3,0.7,2.3,1.7c0,1.7-2.5,3.5-4.6,3.5C484.6,79.3,483.6,78.6,483.6,77.5z"/>
</g>
<g>
	<path d="M483.6,72.6c0-1.8,2.5-3.5,4.5-3.5c1.3,0,2.3,0.7,2.3,1.7c0,1.7-2.5,3.5-4.6,3.5C484.6,74.3,483.6,73.7,483.6,72.6z"/>
</g>
<rect x="505.4" y="56.8" width="0.5" height="21.5"/>
<g>
	<path d="M503,76.5c1.6,0,2.7,0.7,2.7,2c0,1.9-2.3,3.4-4.5,3.4c-1.3,0-2.4-0.7-2.4-1.8C498.8,78.2,501,76.5,503,76.5z M499.2,80.3
		c0,0.6,0.4,0.9,1.1,0.9c1.4,0,4.9-2.1,4.9-3.3c0-0.6-0.4-0.9-1.1-0.9C502.9,77.1,499.2,79.1,499.2,80.3z"/>
</g>
<g>
	<path d="M503,71.5c1.6,0,2.7,0.7,2.7,2c0,1.9-2.3,3.4-4.5,3.4c-1.3,0-2.4-0.7-2.4-1.8C498.8,73.3,501,71.5,503,71.5z M499.2,75.4
		c0,0.6,0.4,0.9,1.1,0.9c1.4,0,4.9-2.1,4.9-3.3c0-0.6-0.4-0.9-1.1-0.9C502.9,72.1,499.2,74.1,499.2,75.4z"/>
</g>
</svg>
