<?xml version="1.0" encoding="utf-8"?>

<!--
	ScaleBook
	Copyright (c) Leland Jansen 2015. All rights reserved.
-->

<!DOCTYPE svg PUBLIC "-//W3C//DTD SVG 1.1//EN" "http://www.w3.org/Graphics/SVG/1.1/DTD/svg11.dtd">
<svg version="1.1" id="Layer_1" xmlns="http://www.w3.org/2000/svg" xmlns:xlink="http://www.w3.org/1999/xlink" x="0px" y="0px"
	 viewBox="0 0 552.9 89.2" enable-background="new 0 0 552.9 89.2" xml:space="preserve">
<rect x="8.4" y="9.7" width="0.8" height="67"/>
<g>
	<path d="M7.4,10.4c-1.9,1.1-3.6,5.8-3.6,9.4c0,2.3,1.4,9.9,1.4,12.3c0,5-1.5,8.6-4.6,11.1c3,2.4,4.6,6.1,4.6,11.1
		c0,2.3-1.4,9.9-1.4,12.3c0,3.8,1.7,8.4,3.6,9.5v0.7c-3.5-2.3-5.8-8.2-5.8-13.1c0-2.1,1.7-9.4,1.7-11.5c0-3.8-1-6.6-2.9-8.2
		C0.1,43.6,0,43.4,0,43.2c0-0.2,0.1-0.4,0.5-0.7c1.9-1.7,2.9-4.2,2.9-7.6c0-2.1-1.7-10-1.7-12.2c0-5.2,2.1-10.4,5.8-13.1V10.4z"/>
</g>
<rect x="547.8" y="9.7" width="0.8" height="67"/>
<rect x="550.4" y="9.7" width="2.5" height="67"/>
<rect x="8.5" y="29.3" width="544.4" height="0.5"/>
<rect x="8.5" y="24.4" width="544.4" height="0.5"/>
<rect x="8.5" y="19.4" width="544.4" height="0.5"/>
<rect x="8.5" y="14.4" width="544.4" height="0.5"/>
<rect x="8.5" y="9.5" width="544.4" height="0.5"/>
<g>
	<path d="M20.3,29.4c-4.2,0-8.1-3.1-8.1-6.9c0-3.2,2.3-6.7,6.8-10.5c-0.3-1.2-0.4-2.4-0.4-3.6c0-3.5,1.2-6.8,3.2-8.5
		c1.8,2.5,2.7,4.9,2.7,7.1c0,2.9-1.3,5.6-4.3,8.1l0.9,4.2c0.5,0,0.8-0.1,0.8-0.1c2.6,0,4.8,2,4.8,4.7c0,1.9-1.4,3.7-3.6,4.8
		c0-0.1,0.9,3.8,0.9,4.3c0,2.5-2.3,4.2-4.9,4.2c-2,0-3.6-1.3-3.6-3.4c0-1.4,1-2.6,2.4-2.6c1.3,0,2.3,1.3,2.3,2.5
		c0,1.4-1.2,2.3-2.7,2.5c0.6,0.3,1.2,0.5,1.9,0.5c2.1,0,4.1-1.6,4.1-3.6c0-0.2,0-0.4-0.1-0.6l-0.8-3.7
		C21.9,29.3,21.2,29.4,20.3,29.4z M18.1,24.2c0,1,0.5,1.9,1.6,2.5c-1.8-0.3-3-1.4-3-3.1c0-2,1.7-3.7,3.8-4.1l-0.8-4
		C16,18.3,14,21,14,23.6c0,2.9,2.8,5.3,6,5.3c0.9,0,1.7-0.2,2.4-0.5L21,21.6C19.4,21.8,18.1,22.8,18.1,24.2z M22.1,2.8
		c-1.6,0-2.9,3.7-2.9,7c0,0.7,0,1.3,0.2,1.9c2.7-2.4,4-4.5,4-6.5c0-0.9-0.3-1.7-1-2.4C22.4,2.9,22.3,2.8,22.1,2.8z M24.9,24.7
		c0-1.6-1.2-3.3-2.9-3.3c-0.1,0-0.2,0-0.5,0l1.4,6.6C24.2,27.2,24.9,26,24.9,24.7z"/>
</g>
<g>
	<path d="M33.5,2.9v2.8l1-0.3v1.8l-1,0.3V11l1-0.3v1.8l-1,0.3v3.1H33v-3l-1.9,0.6v3h-0.5v-2.8l-1,0.3v-1.8l1-0.3V8.4l-1,0.3V7l1-0.3
		V3.5h0.5v3L33,5.9v-3H33.5z M33,7.7l-1.9,0.6v3.4l1.9-0.6V7.7z"/>
</g>
<polygon fill-rule="evenodd" clip-rule="evenodd" points="49.8,25.8 96,20.9 96,18.4 49.8,23.4 "/>
<polygon fill-rule="evenodd" clip-rule="evenodd" points="49.8,22.1 96,17.2 96,14.7 49.8,19.6 "/>
<polygon fill-rule="evenodd" clip-rule="evenodd" points="111.4,15.9 157.6,11 157.6,8.5 111.4,13.4 "/>
<polygon fill-rule="evenodd" clip-rule="evenodd" points="111.4,12.2 157.6,7.2 157.6,4.8 111.4,9.7 "/>
<polygon fill-rule="evenodd" clip-rule="evenodd" points="177.4,35.8 223.6,30.8 223.6,28.3 177.4,33.3 "/>
<polygon fill-rule="evenodd" clip-rule="evenodd" points="177.4,39.5 223.6,34.5 223.6,32 177.4,37 "/>
<polygon fill-rule="evenodd" clip-rule="evenodd" points="239.1,27.1 285.3,25.8 285.3,23.4 239.1,24.6 "/>
<polygon fill-rule="evenodd" clip-rule="evenodd" points="239.1,30.8 285.3,29.6 285.3,27.1 239.1,28.3 "/>
<polygon fill-rule="evenodd" clip-rule="evenodd" points="300.7,25.8 346.9,30.8 346.9,28.3 300.7,23.4 "/>
<polygon fill-rule="evenodd" clip-rule="evenodd" points="300.7,29.6 346.9,34.5 346.9,32 300.7,27.1 "/>
<polygon fill-rule="evenodd" clip-rule="evenodd" points="381.6,6 427.8,11 427.8,8.5 381.6,3.5 "/>
<polygon fill-rule="evenodd" clip-rule="evenodd" points="381.6,2.3 427.8,7.2 427.8,4.8 381.6,-0.2 "/>
<polygon fill-rule="evenodd" clip-rule="evenodd" points="443.1,15.9 489.3,20.9 489.3,18.4 443.1,13.4 "/>
<polygon fill-rule="evenodd" clip-rule="evenodd" points="443.1,12.2 489.3,17.2 489.3,14.7 443.1,9.7 "/>
<rect x="8.5" y="76.4" width="544.4" height="0.5"/>
<rect x="8.5" y="71.5" width="544.4" height="0.5"/>
<rect x="8.5" y="66.5" width="544.4" height="0.5"/>
<rect x="8.5" y="61.6" width="544.4" height="0.5"/>
<rect x="8.5" y="56.6" width="544.4" height="0.5"/>
<g>
	<path d="M15.7,71c2.9-2.6,4.7-6.1,4.7-9.2c0-2.5-1.4-4.4-3.7-4.4c-1.6,0-3.4,1.3-3.4,2.7c0,0.2,0,0.3,0.1,0.3
		c-0.1,0,0.6-0.6,1.4-0.6c0.9,0,1.5,0.8,1.5,1.7c0,1.2-0.9,2.2-2.1,2.2c-1.2,0-2.1-1.3-2.1-2.8c0-2.3,2.3-4.1,4.8-4.1
		c4.7,0,5.9,3.2,5.9,5.8c0,1.6-0.4,2.9-2,5.3c-1.9,3.1-6.4,5.3-8.1,5.3c-0.4,0-0.6-0.2-0.6-0.5C13.8,72.3,14.9,71.7,15.7,71z
		 M25.7,58.3c0.6,0,1,0.4,1,1c0,0.6-0.4,1-1,1s-1-0.4-1-1C24.7,58.8,25.1,58.3,25.7,58.3z M25.7,63.3c0.6,0,1,0.4,1,1
		c0,0.6-0.4,1-1,1s-1-0.4-1-1C24.7,63.7,25.1,63.3,25.7,63.3z"/>
</g>
<g>
	<path d="M33.5,55v2.8l1-0.3v1.8l-1,0.3V63l1-0.3v1.8l-1,0.3V68H33v-3l-1.9,0.6v3h-0.5v-2.8l-1,0.3v-1.8l1-0.3v-3.4l-1,0.3v-1.8
		l1-0.3v-3.1h0.5v3L33,58v-3H33.5z M33,59.8l-1.9,0.6v3.4l1.9-0.6V59.8z"/>
</g>
<polygon fill-rule="evenodd" clip-rule="evenodd" points="49.8,58.1 96,53.1 96,50.6 49.8,55.6 "/>
<polygon fill-rule="evenodd" clip-rule="evenodd" points="49.8,54.4 96,49.4 96,46.9 49.8,51.9 "/>
<g>
	<path d="M169.4,75.3c-3.2,0-6.1-2.3-6.1-5.1c0-2.4,1.7-5,5.1-7.9c-0.2-0.9-0.3-1.8-0.3-2.7c0-2.6,0.9-5.1,2.4-6.3
		c1.4,1.9,2,3.7,2,5.3c0,2.2-1,4.2-3.2,6.1l0.7,3.1c0.4,0,0.6,0,0.6,0c2,0,3.6,1.5,3.6,3.5c0,1.4-1.1,2.8-2.7,3.6
		c0-0.1,0.6,2.8,0.6,3.3c0,1.9-1.7,3.2-3.7,3.2c-1.5,0-2.7-1-2.7-2.5c0-1.1,0.7-1.9,1.8-1.9c1,0,1.7,1,1.7,1.9c0,1-0.9,1.7-2,1.8
		c0.4,0.2,0.9,0.3,1.4,0.3c1.6,0,3.1-1.2,3.1-2.7c0-0.1,0-0.3,0-0.5l-0.6-2.8C170.6,75.2,170.1,75.3,169.4,75.3z M167.8,71.4
		c0,0.8,0.4,1.4,1.2,1.9c-1.3-0.2-2.2-1.1-2.2-2.3c0-1.5,1.3-2.8,2.9-3.1l-0.6-3c-2.8,2.1-4.3,4.1-4.3,6.1c0,2.2,2.1,4,4.5,4
		c0.7,0,1.3-0.1,1.8-0.4l-1.1-5.1C168.7,69.6,167.8,70.4,167.8,71.4z M170.8,55.4c-1.2,0-2.2,2.8-2.2,5.3c0,0.5,0,1,0.1,1.4
		c2-1.8,3-3.4,3-4.9c0-0.7-0.3-1.3-0.7-1.8C171,55.4,170.9,55.4,170.8,55.4z M172.9,71.8c0-1.2-0.9-2.4-2.2-2.4c0,0-0.2,0-0.4,0
		l1.1,5C172.3,73.7,172.9,72.8,172.9,71.8z"/>
</g>
<polygon fill-rule="evenodd" clip-rule="evenodd" points="104.9,77.9 151.1,73 151.1,70.5 104.9,75.4 "/>
<polygon fill-rule="evenodd" clip-rule="evenodd" points="104.9,81.6 151.1,76.7 151.1,74.2 104.9,79.2 "/>
<polygon fill-rule="evenodd" clip-rule="evenodd" points="183.9,68 230.1,63 230.1,60.6 183.9,65.5 "/>
<polygon fill-rule="evenodd" clip-rule="evenodd" points="183.9,64.3 230.1,59.3 230.1,56.8 183.9,61.8 "/>
<rect x="245.6" y="54.4" fill-rule="evenodd" clip-rule="evenodd" width="46.2" height="2.5"/>
<rect x="245.6" y="50.6" fill-rule="evenodd" clip-rule="evenodd" width="46.2" height="2.5"/>
<g>
	<path d="M363.6,68.7c2.2-2,3.6-4.6,3.6-6.9c0-1.9-1.1-3.3-2.8-3.3c-1.2,0-2.5,1-2.5,2.1c0,0.2,0,0.2,0.1,0.2c0,0,0.4-0.5,1-0.5
		c0.7,0,1.2,0.6,1.2,1.3c0,0.9-0.6,1.7-1.6,1.7s-1.5-1-1.5-2.1c0-1.8,1.7-3.1,3.6-3.1c3.5,0,4.4,2.4,4.4,4.4c0,1.2-0.3,2.2-1.5,4
		c-1.4,2.3-4.8,4-6,4c-0.3,0-0.5-0.1-0.5-0.3C362.2,69.7,363,69.2,363.6,68.7z M371.1,59.2c0.4,0,0.7,0.3,0.7,0.7
		c0,0.4-0.3,0.7-0.7,0.7c-0.4,0-0.7-0.3-0.7-0.7C370.3,59.5,370.7,59.2,371.1,59.2z M371.1,62.9c0.4,0,0.7,0.3,0.7,0.7
		s-0.3,0.7-0.7,0.7c-0.4,0-0.7-0.3-0.7-0.7S370.7,62.9,371.1,62.9z"/>
</g>
<polygon fill-rule="evenodd" clip-rule="evenodd" points="307.2,63 353.4,68 353.4,65.5 307.2,60.6 "/>
<polygon fill-rule="evenodd" clip-rule="evenodd" points="307.2,59.3 353.4,64.3 353.4,61.8 307.2,56.8 "/>
<polygon fill-rule="evenodd" clip-rule="evenodd" points="375.1,73 421.3,77.9 421.3,75.4 375.1,70.5 "/>
<polygon fill-rule="evenodd" clip-rule="evenodd" points="375.1,76.7 421.3,81.6 421.3,79.2 375.1,74.2 "/>
<polygon fill-rule="evenodd" clip-rule="evenodd" points="443.1,53.1 489.3,58.1 489.3,55.6 443.1,50.6 "/>
<polygon fill-rule="evenodd" clip-rule="evenodd" points="443.1,49.4 489.3,54.4 489.3,51.9 443.1,46.9 "/>
<rect x="41.3" y="34.1" width="10.5" height="0.8"/>
<rect x="41.3" y="39.1" width="10.5" height="0.8"/>
<rect x="49.6" y="19.8" width="0.5" height="21.4"/>
<g>
	<path d="M43.2,42.8c0-1.8,2.5-3.5,4.5-3.5c1.3,0,2.3,0.7,2.3,1.7c0,1.7-2.5,3.5-4.6,3.5C44.2,44.5,43.2,43.9,43.2,42.8z"/>
</g>
<g>
	<path d="M43.2,37.9c0-1.8,2.5-3.5,4.5-3.5c1.3,0,2.3,0.7,2.3,1.7c0,1.7-2.5,3.5-4.6,3.5C44.2,39.6,43.2,38.9,43.2,37.9z"/>
</g>
<rect x="56.7" y="34.1" width="10.5" height="0.8"/>
<rect x="56.7" y="39.1" width="10.5" height="0.8"/>
<rect x="65" y="18.2" width="0.5" height="20.5"/>
<g>
	<path d="M58.5,40.3c0-1.8,2.5-3.5,4.5-3.5c1.3,0,2.3,0.7,2.3,1.7c0,1.7-2.5,3.5-4.6,3.5C59.5,42.1,58.5,41.4,58.5,40.3z"/>
</g>
<g>
	<path d="M58.5,35.4c0-1.8,2.5-3.5,4.5-3.5c1.3,0,2.3,0.7,2.3,1.7c0,1.7-2.5,3.5-4.6,3.5C59.5,37.1,58.5,36.5,58.5,35.4z"/>
</g>
<rect x="72.2" y="34.1" width="10.5" height="0.8"/>
<rect x="80.5" y="16.5" width="0.5" height="19.7"/>
<g>
	<path d="M74,37.9c0-1.8,2.5-3.5,4.5-3.5c1.3,0,2.3,0.7,2.3,1.7c0,1.7-2.5,3.5-4.6,3.5C75,39.6,74,38.9,74,37.9z"/>
</g>
<g>
	<path d="M74,32.9c0-1.8,2.5-3.5,4.5-3.5c1.3,0,2.3,0.7,2.3,1.7c0,1.7-2.5,3.5-4.6,3.5C75,34.6,74,34,74,32.9z"/>
</g>
<rect x="87.5" y="34.1" width="10.5" height="0.8"/>
<rect x="95.8" y="14.8" width="0.5" height="18.9"/>
<g>
	<path d="M89.4,35.4c0-1.8,2.5-3.5,4.5-3.5c1.3,0,2.3,0.7,2.3,1.7c0,1.7-2.5,3.5-4.6,3.5C90.4,37.1,89.4,36.5,89.4,35.4z"/>
</g>
<g>
	<path d="M89.4,30.4c0-1.8,2.5-3.5,4.5-3.5c1.3,0,2.3,0.7,2.3,1.7c0,1.7-2.5,3.5-4.6,3.5C90.4,32.1,89.4,31.5,89.4,30.4z"/>
</g>
<rect x="111.2" y="9.9" width="0.5" height="21.4"/>
<g>
	<path d="M104.7,32.9c0-1.8,2.5-3.5,4.5-3.5c1.3,0,2.3,0.7,2.3,1.7c0,1.7-2.5,3.5-4.6,3.5C105.7,34.6,104.7,34,104.7,32.9z"/>
</g>
<g>
	<path d="M104.7,27.9c0-1.8,2.5-3.5,4.5-3.5c1.3,0,2.3,0.7,2.3,1.7c0,1.7-2.5,3.5-4.6,3.5C105.7,29.7,104.7,29,104.7,27.9z"/>
</g>
<rect x="126.7" y="8.3" width="0.5" height="20.5"/>
<g>
	<path d="M120.2,30.4c0-1.8,2.5-3.5,4.5-3.5c1.3,0,2.3,0.7,2.3,1.7c0,1.7-2.5,3.5-4.6,3.5C121.2,32.1,120.2,31.5,120.2,30.4z"/>
</g>
<g>
	<path d="M120.2,25.5c0-1.8,2.5-3.5,4.5-3.5c1.3,0,2.3,0.7,2.3,1.7c0,1.7-2.5,3.5-4.6,3.5C121.2,27.2,120.2,26.5,120.2,25.5z"/>
</g>
<rect x="142" y="6.6" width="0.5" height="19.7"/>
<g>
	<path d="M135.6,27.9c0-1.8,2.5-3.5,4.5-3.5c1.3,0,2.3,0.7,2.3,1.7c0,1.7-2.5,3.5-4.6,3.5C136.5,29.7,135.6,29,135.6,27.9z"/>
</g>
<g>
	<path d="M135.6,23c0-1.8,2.5-3.5,4.5-3.5c1.3,0,2.3,0.7,2.3,1.7c0,1.7-2.5,3.5-4.6,3.5C136.5,24.7,135.6,24.1,135.6,23z"/>
</g>
<rect x="157.4" y="4.9" width="0.5" height="18.9"/>
<g>
	<path d="M150.9,25.5c0-1.8,2.5-3.5,4.5-3.5c1.3,0,2.3,0.7,2.3,1.7c0,1.7-2.5,3.5-4.6,3.5C151.9,27.2,150.9,26.5,150.9,25.5z"/>
</g>
<g>
	<path d="M150.9,20.5c0-1.8,2.5-3.5,4.5-3.5c1.3,0,2.3,0.7,2.3,1.7c0,1.7-2.5,3.5-4.6,3.5C151.9,22.2,150.9,21.6,150.9,20.5z"/>
</g>
<rect x="177.2" y="17.9" width="0.5" height="21.4"/>
<g>
	<path d="M177.3,18c0-1.8,2.5-3.5,4.5-3.5c1.3,0,2.3,0.7,2.3,1.7c0,1.7-2.5,3.5-4.6,3.5C178.2,19.7,177.3,19.1,177.3,18z"/>
</g>
<g>
	<path d="M177.3,23c0-1.8,2.5-3.5,4.5-3.5c1.3,0,2.3,0.7,2.3,1.7c0,1.7-2.5,3.5-4.6,3.5C178.2,24.7,177.3,24.1,177.3,23z"/>
</g>
<rect x="192.7" y="15.5" width="0.5" height="22.3"/>
<g>
	<path d="M192.8,15.5c0-1.8,2.5-3.5,4.5-3.5c1.3,0,2.3,0.7,2.3,1.7c0,1.7-2.5,3.5-4.6,3.5C193.7,17.3,192.8,16.6,192.8,15.5z"/>
</g>
<g>
	<path d="M192.8,20.5c0-1.8,2.5-3.5,4.5-3.5c1.3,0,2.3,0.7,2.3,1.7c0,1.7-2.5,3.5-4.6,3.5C193.7,22.2,192.8,21.6,192.8,20.5z"/>
</g>
<rect x="208" y="13" width="0.5" height="23.1"/>
<g>
	<path d="M208.1,13c0-1.8,2.5-3.5,4.5-3.5c1.3,0,2.3,0.7,2.3,1.7c0,1.7-2.5,3.5-4.6,3.5C209.1,14.8,208.1,14.1,208.1,13z"/>
</g>
<g>
	<path d="M208.1,18c0-1.8,2.5-3.5,4.5-3.5c1.3,0,2.3,0.7,2.3,1.7c0,1.7-2.5,3.5-4.6,3.5C209.1,19.7,208.1,19.1,208.1,18z"/>
</g>
<rect x="223.4" y="10.5" width="0.5" height="23.9"/>
<g>
	<path d="M223.5,10.6c0-1.8,2.5-3.5,4.5-3.5c1.3,0,2.3,0.7,2.3,1.7c0,1.7-2.5,3.5-4.6,3.5C224.4,12.3,223.5,11.7,223.5,10.6z"/>
</g>
<g>
	<path d="M223.5,15.5c0-1.8,2.5-3.5,4.5-3.5c1.3,0,2.3,0.7,2.3,1.7c0,1.7-2.5,3.5-4.6,3.5C224.4,17.3,223.5,16.6,223.5,15.5z"/>
</g>
<rect x="238.9" y="8" width="0.5" height="22.6"/>
<g>
	<path d="M239,8.1c0-1.8,2.5-3.5,4.5-3.5c1.3,0,2.3,0.7,2.3,1.7c0,1.7-2.5,3.5-4.6,3.5C239.9,9.8,239,9.2,239,8.1z"/>
</g>
<g>
	<path d="M239,13c0-1.8,2.5-3.5,4.5-3.5c1.3,0,2.3,0.7,2.3,1.7c0,1.7-2.5,3.5-4.6,3.5C239.9,14.8,239,14.1,239,13z"/>
</g>
<rect x="252.5" y="4.4" width="10.5" height="0.8"/>
<rect x="254.2" y="5.5" width="0.5" height="24.8"/>
<g>
	<path d="M254.3,5.6c0-1.8,2.5-3.5,4.5-3.5c1.3,0,2.3,0.7,2.3,1.7c0,1.7-2.5,3.5-4.6,3.5C255.3,7.3,254.3,6.7,254.3,5.6z"/>
</g>
<g>
	<path d="M254.3,10.6c0-1.8,2.5-3.5,4.5-3.5c1.3,0,2.3,0.7,2.3,1.7c0,1.7-2.5,3.5-4.6,3.5C255.3,12.3,254.3,11.7,254.3,10.6z"/>
</g>
<rect x="267.8" y="4.4" width="10.5" height="0.8"/>
<rect x="269.6" y="3.1" width="0.5" height="26.8"/>
<g>
	<path d="M269.7,3.1c0-1.8,2.5-3.5,4.5-3.5c1.3,0,2.3,0.7,2.3,1.7c0,1.7-2.5,3.5-4.6,3.5C270.6,4.9,269.7,4.2,269.7,3.1z"/>
</g>
<g>
	<path d="M269.7,8.1c0-1.8,2.5-3.5,4.5-3.5c1.3,0,2.3,0.7,2.3,1.7c0,1.7-2.5,3.5-4.6,3.5C270.6,9.8,269.7,9.2,269.7,8.1z"/>
</g>
<rect x="283.3" y="4.4" width="10.5" height="0.8"/>
<rect x="285.1" y="5.5" width="0.5" height="23.9"/>
<g>
	<path d="M285.2,5.6c0-1.8,2.5-3.5,4.5-3.5c1.3,0,2.3,0.7,2.3,1.7c0,1.7-2.5,3.5-4.6,3.5C286.1,7.3,285.2,6.7,285.2,5.6z"/>
</g>
<g>
	<path d="M285.2,10.6c0-1.8,2.5-3.5,4.5-3.5c1.3,0,2.3,0.7,2.3,1.7c0,1.7-2.5,3.5-4.6,3.5C286.1,12.3,285.2,11.7,285.2,10.6z"/>
</g>
<rect x="300.4" y="8" width="0.5" height="21.4"/>
<g>
	<path d="M300.5,8.1c0-1.8,2.5-3.5,4.5-3.5c1.3,0,2.3,0.7,2.3,1.7c0,1.7-2.5,3.5-4.6,3.5C301.5,9.8,300.5,9.2,300.5,8.1z"/>
</g>
<g>
	<path d="M300.5,13c0-1.8,2.5-3.5,4.5-3.5c1.3,0,2.3,0.7,2.3,1.7c0,1.7-2.5,3.5-4.6,3.5C301.5,14.8,300.5,14.1,300.5,13z"/>
</g>
<rect x="315.8" y="10.5" width="0.5" height="20.5"/>
<g>
	<path d="M315.9,10.6c0-1.8,2.5-3.5,4.5-3.5c1.3,0,2.3,0.7,2.3,1.7c0,1.7-2.5,3.5-4.6,3.5C316.8,12.3,315.9,11.7,315.9,10.6z"/>
</g>
<g>
	<path d="M315.9,15.5c0-1.8,2.5-3.5,4.5-3.5c1.3,0,2.3,0.7,2.3,1.7c0,1.7-2.5,3.5-4.6,3.5C316.8,17.3,315.9,16.6,315.9,15.5z"/>
</g>
<rect x="331.3" y="13" width="0.5" height="19.7"/>
<g>
	<path d="M331.4,13c0-1.8,2.5-3.5,4.5-3.5c1.3,0,2.3,0.7,2.3,1.7c0,1.7-2.5,3.5-4.6,3.5C332.3,14.8,331.4,14.1,331.4,13z"/>
</g>
<g>
	<path d="M331.4,18c0-1.8,2.5-3.5,4.5-3.5c1.3,0,2.3,0.7,2.3,1.7c0,1.7-2.5,3.5-4.6,3.5C332.3,19.7,331.4,19.1,331.4,18z"/>
</g>
<rect x="346.6" y="15.5" width="0.5" height="18.9"/>
<g>
	<path d="M346.7,15.5c0-1.8,2.5-3.5,4.5-3.5c1.3,0,2.3,0.7,2.3,1.7c0,1.7-2.5,3.5-4.6,3.5C347.7,17.3,346.7,16.6,346.7,15.5z"/>
</g>
<g>
	<path d="M346.7,20.5c0-1.8,2.5-3.5,4.5-3.5c1.3,0,2.3,0.7,2.3,1.7c0,1.7-2.5,3.5-4.6,3.5C347.7,22.2,346.7,21.6,346.7,20.5z"/>
</g>
<rect x="381.3" y="0" width="0.5" height="21.4"/>
<g>
	<path d="M374.9,23c0-1.8,2.5-3.5,4.5-3.5c1.3,0,2.3,0.7,2.3,1.7c0,1.7-2.5,3.5-4.6,3.5C375.9,24.7,374.9,24.1,374.9,23z"/>
</g>
<g>
	<path d="M374.9,18c0-1.8,2.5-3.5,4.5-3.5c1.3,0,2.3,0.7,2.3,1.7c0,1.7-2.5,3.5-4.6,3.5C375.9,19.7,374.9,19.1,374.9,18z"/>
</g>
<rect x="396.7" y="1.5" width="0.5" height="22.3"/>
<g>
	<path d="M390.3,25.5c0-1.8,2.5-3.5,4.5-3.5c1.3,0,2.3,0.7,2.3,1.7c0,1.7-2.5,3.5-4.6,3.5C391.2,27.2,390.3,26.5,390.3,25.5z"/>
</g>
<g>
	<path d="M390.3,20.5c0-1.8,2.5-3.5,4.5-3.5c1.3,0,2.3,0.7,2.3,1.7c0,1.7-2.5,3.5-4.6,3.5C391.2,22.2,390.3,21.6,390.3,20.5z"/>
</g>
<rect x="412.2" y="3.2" width="0.5" height="23.1"/>
<g>
	<path d="M405.8,27.9c0-1.8,2.5-3.5,4.5-3.5c1.3,0,2.3,0.7,2.3,1.7c0,1.7-2.5,3.5-4.6,3.5C406.7,29.7,405.8,29,405.8,27.9z"/>
</g>
<g>
	<path d="M405.8,23c0-1.8,2.5-3.5,4.5-3.5c1.3,0,2.3,0.7,2.3,1.7c0,1.7-2.5,3.5-4.6,3.5C406.7,24.7,405.8,24.1,405.8,23z"/>
</g>
<rect x="427.5" y="4.9" width="0.5" height="23.9"/>
<g>
	<path d="M421.1,30.4c0-1.8,2.5-3.5,4.5-3.5c1.3,0,2.3,0.7,2.3,1.7c0,1.7-2.5,3.5-4.6,3.5C422.1,32.1,421.1,31.5,421.1,30.4z"/>
</g>
<g>
	<path d="M421.1,25.5c0-1.8,2.5-3.5,4.5-3.5c1.3,0,2.3,0.7,2.3,1.7c0,1.7-2.5,3.5-4.6,3.5C422.1,27.2,421.1,26.5,421.1,25.5z"/>
</g>
<rect x="442.9" y="9.9" width="0.5" height="21.4"/>
<g>
	<path d="M436.5,32.9c0-1.8,2.5-3.5,4.5-3.5c1.3,0,2.3,0.7,2.3,1.7c0,1.7-2.5,3.5-4.6,3.5C437.4,34.6,436.5,34,436.5,32.9z"/>
</g>
<g>
	<path d="M436.5,27.9c0-1.8,2.5-3.5,4.5-3.5c1.3,0,2.3,0.7,2.3,1.7c0,1.7-2.5,3.5-4.6,3.5C437.4,29.7,436.5,29,436.5,27.9z"/>
</g>
<rect x="450.1" y="34.1" width="10.5" height="0.8"/>
<rect x="458.4" y="11.4" width="0.5" height="22.3"/>
<g>
	<path d="M452,35.4c0-1.8,2.5-3.5,4.5-3.5c1.3,0,2.3,0.7,2.3,1.7c0,1.7-2.5,3.5-4.6,3.5C452.9,37.1,452,36.5,452,35.4z"/>
</g>
<g>
	<path d="M452,30.4c0-1.8,2.5-3.5,4.5-3.5c1.3,0,2.3,0.7,2.3,1.7c0,1.7-2.5,3.5-4.6,3.5C452.9,32.1,452,31.5,452,30.4z"/>
</g>
<rect x="465.4" y="34.1" width="10.5" height="0.8"/>
<rect x="473.7" y="13.1" width="0.5" height="23.1"/>
<g>
	<path d="M467.3,37.9c0-1.8,2.5-3.5,4.5-3.5c1.3,0,2.3,0.7,2.3,1.7c0,1.7-2.5,3.5-4.6,3.5C468.3,39.6,467.3,38.9,467.3,37.9z"/>
</g>
<g>
	<path d="M467.3,32.9c0-1.8,2.5-3.5,4.5-3.5c1.3,0,2.3,0.7,2.3,1.7c0,1.7-2.5,3.5-4.6,3.5C468.3,34.6,467.3,34,467.3,32.9z"/>
</g>
<rect x="480.8" y="34.1" width="10.5" height="0.8"/>
<rect x="480.8" y="39.1" width="10.5" height="0.8"/>
<rect x="489.1" y="14.8" width="0.5" height="23.9"/>
<g>
	<path d="M482.7,40.3c0-1.8,2.5-3.5,4.5-3.5c1.3,0,2.3,0.7,2.3,1.7c0,1.7-2.5,3.5-4.6,3.5C483.6,42.1,482.7,41.4,482.7,40.3z"/>
</g>
<g>
	<path d="M482.7,35.4c0-1.8,2.5-3.5,4.5-3.5c1.3,0,2.3,0.7,2.3,1.7c0,1.7-2.5,3.5-4.6,3.5C483.6,37.1,482.7,36.5,482.7,35.4z"/>
</g>
<rect x="496.3" y="34.1" width="10.7" height="0.8"/>
<rect x="496.3" y="39.1" width="10.7" height="0.8"/>
<rect x="504.7" y="19.6" width="0.5" height="21.5"/>
<g>
	<path d="M502.4,39.3c1.6,0,2.7,0.7,2.7,2c0,1.9-2.3,3.4-4.5,3.4c-1.3,0-2.4-0.7-2.4-1.8C498.2,41,500.4,39.3,502.4,39.3z
		 M498.6,43.1c0,0.6,0.4,0.9,1.1,0.9c1.4,0,4.9-2.1,4.9-3.3c0-0.6-0.4-0.9-1.1-0.9C502.3,39.9,498.6,41.9,498.6,43.1z"/>
</g>
<g>
	<path d="M502.4,34.3c1.6,0,2.7,0.7,2.7,2c0,1.9-2.3,3.4-4.5,3.4c-1.3,0-2.4-0.7-2.4-1.8C498.2,36.1,500.4,34.3,502.4,34.3z
		 M498.6,38.1c0,0.6,0.4,0.9,1.1,0.9c1.4,0,4.9-2.1,4.9-3.3c0-0.6-0.4-0.9-1.1-0.9C502.3,34.9,498.6,36.9,498.6,38.1z"/>
</g>
<rect x="49.6" y="52" width="0.5" height="23.9"/>
<g>
	<path d="M43.2,77.5c0-1.8,2.5-3.5,4.5-3.5c1.3,0,2.3,0.7,2.3,1.7c0,1.7-2.5,3.5-4.6,3.5C44.2,79.3,43.2,78.6,43.2,77.5z"/>
</g>
<g>
	<path d="M43.2,72.6c0-1.8,2.5-3.5,4.5-3.5c1.3,0,2.3,0.7,2.3,1.7c0,1.7-2.5,3.5-4.6,3.5C44.2,74.3,43.2,73.7,43.2,72.6z"/>
</g>
<rect x="65" y="50.5" width="0.5" height="22.9"/>
<g>
	<path d="M58.5,75.1c0-1.8,2.5-3.5,4.5-3.5c1.3,0,2.3,0.7,2.3,1.7c0,1.7-2.5,3.5-4.6,3.5C59.5,76.8,58.5,76.1,58.5,75.1z"/>
</g>
<g>
	<path d="M58.5,70.1c0-1.8,2.5-3.5,4.5-3.5c1.3,0,2.3,0.7,2.3,1.7c0,1.7-2.5,3.5-4.6,3.5C59.5,71.8,58.5,71.2,58.5,70.1z"/>
</g>
<rect x="80.5" y="48.8" width="0.5" height="22.2"/>
<g>
	<path d="M74,72.6c0-1.8,2.5-3.5,4.5-3.5c1.3,0,2.3,0.7,2.3,1.7c0,1.7-2.5,3.5-4.6,3.5C75,74.3,74,73.7,74,72.6z"/>
</g>
<g>
	<path d="M74,67.6c0-1.8,2.5-3.5,4.5-3.5c1.3,0,2.3,0.7,2.3,1.7c0,1.7-2.5,3.5-4.6,3.5C75,69.3,74,68.7,74,67.6z"/>
</g>
<rect x="95.8" y="47.1" width="0.5" height="21.4"/>
<g>
	<path d="M89.4,70.1c0-1.8,2.5-3.5,4.5-3.5c1.3,0,2.3,0.7,2.3,1.7c0,1.7-2.5,3.5-4.6,3.5C90.4,71.8,89.4,71.2,89.4,70.1z"/>
</g>
<g>
	<path d="M89.4,65.1c0-1.8,2.5-3.5,4.5-3.5c1.3,0,2.3,0.7,2.3,1.7c0,1.7-2.5,3.5-4.6,3.5C90.4,66.9,89.4,66.2,89.4,65.1z"/>
</g>
<rect x="104.6" y="62.6" width="0.5" height="18.9"/>
<g>
	<path d="M104.7,62.7c0-1.8,2.5-3.5,4.5-3.5c1.3,0,2.3,0.7,2.3,1.7c0,1.7-2.5,3.5-4.6,3.5C105.7,64.4,104.7,63.7,104.7,62.7z"/>
</g>
<g>
	<path d="M104.7,67.6c0-1.8,2.5-3.5,4.5-3.5c1.3,0,2.3,0.7,2.3,1.7c0,1.7-2.5,3.5-4.6,3.5C105.7,69.3,104.7,68.7,104.7,67.6z"/>
</g>
<rect x="120.1" y="60.1" width="0.5" height="19.8"/>
<g>
	<path d="M120.2,60.2c0-1.8,2.5-3.5,4.5-3.5c1.3,0,2.3,0.7,2.3,1.7c0,1.7-2.5,3.5-4.6,3.5C121.2,61.9,120.2,61.3,120.2,60.2z"/>
</g>
<g>
	<path d="M120.2,65.1c0-1.8,2.5-3.5,4.5-3.5c1.3,0,2.3,0.7,2.3,1.7c0,1.7-2.5,3.5-4.6,3.5C121.2,66.9,120.2,66.2,120.2,65.1z"/>
</g>
<rect x="135.5" y="57.6" width="0.5" height="20.6"/>
<g>
	<path d="M135.6,57.7c0-1.8,2.5-3.5,4.5-3.5c1.3,0,2.3,0.7,2.3,1.7c0,1.7-2.5,3.5-4.6,3.5C136.5,59.4,135.6,58.8,135.6,57.7z"/>
</g>
<g>
	<path d="M135.6,62.7c0-1.8,2.5-3.5,4.5-3.5c1.3,0,2.3,0.7,2.3,1.7c0,1.7-2.5,3.5-4.6,3.5C136.5,64.4,135.6,63.7,135.6,62.7z"/>
</g>
<rect x="150.8" y="55.1" width="0.5" height="21.4"/>
<g>
	<path d="M150.9,55.2c0-1.8,2.5-3.5,4.5-3.5c1.3,0,2.3,0.7,2.3,1.7c0,1.7-2.5,3.5-4.6,3.5C151.9,56.9,150.9,56.3,150.9,55.2z"/>
</g>
<g>
	<path d="M150.9,60.2c0-1.8,2.5-3.5,4.5-3.5c1.3,0,2.3,0.7,2.3,1.7c0,1.7-2.5,3.5-4.6,3.5C151.9,61.9,150.9,61.3,150.9,60.2z"/>
</g>
<rect x="175.4" y="81.3" width="10.5" height="0.8"/>
<rect x="175.4" y="86.2" width="10.5" height="0.8"/>
<rect x="183.7" y="62" width="0.5" height="23.9"/>
<g>
	<path d="M177.3,87.5c0-1.8,2.5-3.5,4.5-3.5c1.3,0,2.3,0.7,2.3,1.7c0,1.7-2.5,3.5-4.6,3.5C178.2,89.2,177.3,88.5,177.3,87.5z"/>
</g>
<g>
	<path d="M177.3,82.5c0-1.8,2.5-3.5,4.5-3.5c1.3,0,2.3,0.7,2.3,1.7c0,1.7-2.5,3.5-4.6,3.5C178.2,84.2,177.3,83.6,177.3,82.5z"/>
</g>
<rect x="190.9" y="81.3" width="10.5" height="0.8"/>
<rect x="199.2" y="60.4" width="0.5" height="22.9"/>
<g>
	<path d="M192.8,85c0-1.8,2.5-3.5,4.5-3.5c1.3,0,2.3,0.7,2.3,1.7c0,1.7-2.5,3.5-4.6,3.5C193.7,86.7,192.8,86.1,192.8,85z"/>
</g>
<g>
	<path d="M192.8,80c0-1.8,2.5-3.5,4.5-3.5c1.3,0,2.3,0.7,2.3,1.7c0,1.7-2.5,3.5-4.6,3.5C193.7,81.7,192.8,81.1,192.8,80z"/>
</g>
<rect x="206.3" y="81.3" width="10.5" height="0.8"/>
<rect x="214.6" y="58.7" width="0.5" height="22.2"/>
<g>
	<path d="M208.1,82.5c0-1.8,2.5-3.5,4.5-3.5c1.3,0,2.3,0.7,2.3,1.7c0,1.7-2.5,3.5-4.6,3.5C209.1,84.2,208.1,83.6,208.1,82.5z"/>
</g>
<g>
	<path d="M208.1,77.5c0-1.8,2.5-3.5,4.5-3.5c1.3,0,2.3,0.7,2.3,1.7c0,1.7-2.5,3.5-4.6,3.5C209.1,79.3,208.1,78.6,208.1,77.5z"/>
</g>
<rect x="229.9" y="57" width="0.5" height="21.4"/>
<g>
	<path d="M223.5,80c0-1.8,2.5-3.5,4.5-3.5c1.3,0,2.3,0.7,2.3,1.7c0,1.7-2.5,3.5-4.6,3.5C224.4,81.7,223.5,81.1,223.5,80z"/>
</g>
<g>
	<path d="M223.5,75.1c0-1.8,2.5-3.5,4.5-3.5c1.3,0,2.3,0.7,2.3,1.7c0,1.7-2.5,3.5-4.6,3.5C224.4,76.8,223.5,76.1,223.5,75.1z"/>
</g>
<rect x="245.4" y="50.8" width="0.5" height="25.1"/>
<g>
	<path d="M239,77.5c0-1.8,2.5-3.5,4.5-3.5c1.3,0,2.3,0.7,2.3,1.7c0,1.7-2.5,3.5-4.6,3.5C239.9,79.3,239,78.6,239,77.5z"/>
</g>
<g>
	<path d="M239,72.6c0-1.8,2.5-3.5,4.5-3.5c1.3,0,2.3,0.7,2.3,1.7c0,1.7-2.5,3.5-4.6,3.5C239.9,74.3,239,73.7,239,72.6z"/>
</g>
<rect x="260.7" y="50.8" width="0.5" height="22.6"/>
<g>
	<path d="M254.3,75.1c0-1.8,2.5-3.5,4.5-3.5c1.3,0,2.3,0.7,2.3,1.7c0,1.7-2.5,3.5-4.6,3.5C255.3,76.8,254.3,76.1,254.3,75.1z"/>
</g>
<g>
	<path d="M254.3,70.1c0-1.8,2.5-3.5,4.5-3.5c1.3,0,2.3,0.7,2.3,1.7c0,1.7-2.5,3.5-4.6,3.5C255.3,71.8,254.3,71.2,254.3,70.1z"/>
</g>
<rect x="276.1" y="50.8" width="0.5" height="20.2"/>
<g>
	<path d="M269.7,72.6c0-1.8,2.5-3.5,4.5-3.5c1.3,0,2.3,0.7,2.3,1.7c0,1.7-2.5,3.5-4.6,3.5C270.6,74.3,269.7,73.7,269.7,72.6z"/>
</g>
<g>
	<path d="M269.7,67.6c0-1.8,2.5-3.5,4.5-3.5c1.3,0,2.3,0.7,2.3,1.7c0,1.7-2.5,3.5-4.6,3.5C270.6,69.3,269.7,68.7,269.7,67.6z"/>
</g>
<rect x="291.6" y="50.8" width="0.5" height="22.6"/>
<g>
	<path d="M285.2,75.1c0-1.8,2.5-3.5,4.5-3.5c1.3,0,2.3,0.7,2.3,1.7c0,1.7-2.5,3.5-4.6,3.5C286.1,76.8,285.2,76.1,285.2,75.1z"/>
</g>
<g>
	<path d="M285.2,70.1c0-1.8,2.5-3.5,4.5-3.5c1.3,0,2.3,0.7,2.3,1.7c0,1.7-2.5,3.5-4.6,3.5C286.1,71.8,285.2,71.2,285.2,70.1z"/>
</g>
<rect x="306.9" y="57" width="0.5" height="18.9"/>
<g>
	<path d="M300.5,77.5c0-1.8,2.5-3.5,4.5-3.5c1.3,0,2.3,0.7,2.3,1.7c0,1.7-2.5,3.5-4.6,3.5C301.5,79.3,300.5,78.6,300.5,77.5z"/>
</g>
<g>
	<path d="M300.5,72.6c0-1.8,2.5-3.5,4.5-3.5c1.3,0,2.3,0.7,2.3,1.7c0,1.7-2.5,3.5-4.6,3.5C301.5,74.3,300.5,73.7,300.5,72.6z"/>
</g>
<rect x="322.3" y="58.5" width="0.5" height="19.8"/>
<g>
	<path d="M315.9,80c0-1.8,2.5-3.5,4.5-3.5c1.3,0,2.3,0.7,2.3,1.7c0,1.7-2.5,3.5-4.6,3.5C316.8,81.7,315.9,81.1,315.9,80z"/>
</g>
<g>
	<path d="M315.9,75.1c0-1.8,2.5-3.5,4.5-3.5c1.3,0,2.3,0.7,2.3,1.7c0,1.7-2.5,3.5-4.6,3.5C316.8,76.8,315.9,76.1,315.9,75.1z"/>
</g>
<rect x="329.5" y="81.3" width="10.5" height="0.8"/>
<rect x="337.8" y="60.2" width="0.5" height="20.6"/>
<g>
	<path d="M331.4,82.5c0-1.8,2.5-3.5,4.5-3.5c1.3,0,2.3,0.7,2.3,1.7c0,1.7-2.5,3.5-4.6,3.5C332.3,84.2,331.4,83.6,331.4,82.5z"/>
</g>
<g>
	<path d="M331.4,77.5c0-1.8,2.5-3.5,4.5-3.5c1.3,0,2.3,0.7,2.3,1.7c0,1.7-2.5,3.5-4.6,3.5C332.3,79.3,331.4,78.6,331.4,77.5z"/>
</g>
<rect x="344.8" y="81.3" width="10.5" height="0.8"/>
<rect x="353.1" y="62" width="0.5" height="21.4"/>
<g>
	<path d="M346.7,85c0-1.8,2.5-3.5,4.5-3.5c1.3,0,2.3,0.7,2.3,1.7c0,1.7-2.5,3.5-4.6,3.5C347.7,86.7,346.7,86.1,346.7,85z"/>
</g>
<g>
	<path d="M346.7,80c0-1.8,2.5-3.5,4.5-3.5c1.3,0,2.3,0.7,2.3,1.7c0,1.7-2.5,3.5-4.6,3.5C347.7,81.7,346.7,81.1,346.7,80z"/>
</g>
<rect x="373.1" y="51.5" width="10.5" height="0.8"/>
<rect x="374.8" y="52.7" width="0.5" height="23.9"/>
<g>
	<path d="M374.9,52.7c0-1.8,2.5-3.5,4.5-3.5c1.3,0,2.3,0.7,2.3,1.7c0,1.7-2.5,3.5-4.6,3.5C375.9,54.5,374.9,53.8,374.9,52.7z"/>
</g>
<g>
	<path d="M374.9,57.7c0-1.8,2.5-3.5,4.5-3.5c1.3,0,2.3,0.7,2.3,1.7c0,1.7-2.5,3.5-4.6,3.5C375.9,59.4,374.9,58.8,374.9,57.7z"/>
</g>
<rect x="390.2" y="55.1" width="0.5" height="22.9"/>
<g>
	<path d="M390.3,55.2c0-1.8,2.5-3.5,4.5-3.5c1.3,0,2.3,0.7,2.3,1.7c0,1.7-2.5,3.5-4.6,3.5C391.2,56.9,390.3,56.3,390.3,55.2z"/>
</g>
<g>
	<path d="M390.3,60.2c0-1.8,2.5-3.5,4.5-3.5c1.3,0,2.3,0.7,2.3,1.7c0,1.7-2.5,3.5-4.6,3.5C391.2,61.9,390.3,61.3,390.3,60.2z"/>
</g>
<rect x="405.7" y="57.6" width="0.5" height="22.2"/>
<g>
	<path d="M405.8,57.7c0-1.8,2.5-3.5,4.5-3.5c1.3,0,2.3,0.7,2.3,1.7c0,1.7-2.5,3.5-4.6,3.5C406.7,59.4,405.8,58.8,405.8,57.7z"/>
</g>
<g>
	<path d="M405.8,62.7c0-1.8,2.5-3.5,4.5-3.5c1.3,0,2.3,0.7,2.3,1.7c0,1.7-2.5,3.5-4.6,3.5C406.7,64.4,405.8,63.7,405.8,62.7z"/>
</g>
<rect x="421" y="60.1" width="0.5" height="21.4"/>
<g>
	<path d="M421.1,60.2c0-1.8,2.5-3.5,4.5-3.5c1.3,0,2.3,0.7,2.3,1.7c0,1.7-2.5,3.5-4.6,3.5C422.1,61.9,421.1,61.3,421.1,60.2z"/>
</g>
<g>
	<path d="M421.1,65.1c0-1.8,2.5-3.5,4.5-3.5c1.3,0,2.3,0.7,2.3,1.7c0,1.7-2.5,3.5-4.6,3.5C422.1,66.9,421.1,66.2,421.1,65.1z"/>
</g>
<rect x="442.9" y="47.1" width="0.5" height="18.9"/>
<g>
	<path d="M436.5,67.6c0-1.8,2.5-3.5,4.5-3.5c1.3,0,2.3,0.7,2.3,1.7c0,1.7-2.5,3.5-4.6,3.5C437.4,69.3,436.5,68.7,436.5,67.6z"/>
</g>
<g>
	<path d="M436.5,62.7c0-1.8,2.5-3.5,4.5-3.5c1.3,0,2.3,0.7,2.3,1.7c0,1.7-2.5,3.5-4.6,3.5C437.4,64.4,436.5,63.7,436.5,62.7z"/>
</g>
<rect x="458.4" y="48.6" width="0.5" height="19.8"/>
<g>
	<path d="M452,70.1c0-1.8,2.5-3.5,4.5-3.5c1.3,0,2.3,0.7,2.3,1.7c0,1.7-2.5,3.5-4.6,3.5C452.9,71.8,452,71.2,452,70.1z"/>
</g>
<g>
	<path d="M452,65.1c0-1.8,2.5-3.5,4.5-3.5c1.3,0,2.3,0.7,2.3,1.7c0,1.7-2.5,3.5-4.6,3.5C452.9,66.9,452,66.2,452,65.1z"/>
</g>
<rect x="473.7" y="50.3" width="0.5" height="20.6"/>
<g>
	<path d="M467.3,72.6c0-1.8,2.5-3.5,4.5-3.5c1.3,0,2.3,0.7,2.3,1.7c0,1.7-2.5,3.5-4.6,3.5C468.3,74.3,467.3,73.7,467.3,72.6z"/>
</g>
<g>
	<path d="M467.3,67.6c0-1.8,2.5-3.5,4.5-3.5c1.3,0,2.3,0.7,2.3,1.7c0,1.7-2.5,3.5-4.6,3.5C468.3,69.3,467.3,68.7,467.3,67.6z"/>
</g>
<rect x="489.1" y="52" width="0.5" height="21.4"/>
<g>
	<path d="M482.7,75.1c0-1.8,2.5-3.5,4.5-3.5c1.3,0,2.3,0.7,2.3,1.7c0,1.7-2.5,3.5-4.6,3.5C483.6,76.8,482.7,76.1,482.7,75.1z"/>
</g>
<g>
	<path d="M482.7,70.1c0-1.8,2.5-3.5,4.5-3.5c1.3,0,2.3,0.7,2.3,1.7c0,1.7-2.5,3.5-4.6,3.5C483.6,71.8,482.7,71.2,482.7,70.1z"/>
</g>
<rect x="504.7" y="54.4" width="0.5" height="21.5"/>
<g>
	<path d="M502.4,74c1.6,0,2.7,0.7,2.7,2c0,1.9-2.3,3.4-4.5,3.4c-1.3,0-2.4-0.7-2.4-1.8C498.2,75.8,500.4,74,502.4,74z M498.6,77.8
		c0,0.6,0.4,0.9,1.1,0.9c1.4,0,4.9-2.1,4.9-3.3c0-0.6-0.4-0.9-1.1-0.9C502.3,74.6,498.6,76.6,498.6,77.8z"/>
</g>
<g>
	<path d="M502.4,69c1.6,0,2.7,0.7,2.7,2c0,1.9-2.3,3.4-4.5,3.4c-1.3,0-2.4-0.7-2.4-1.8C498.2,70.8,500.4,69,502.4,69z M498.6,72.9
		c0,0.6,0.4,0.9,1.1,0.9c1.4,0,4.9-2.1,4.9-3.3c0-0.6-0.4-0.9-1.1-0.9C502.3,69.6,498.6,71.6,498.6,72.9z"/>
</g>
</svg>
