<?xml version="1.0" encoding="utf-8"?>

<!--
	ScaleBook
	Copyright (c) Leland Jansen 2015. All rights reserved.
-->

<!DOCTYPE svg PUBLIC "-//W3C//DTD SVG 1.1//EN" "http://www.w3.org/Graphics/SVG/1.1/DTD/svg11.dtd">
<svg version="1.1" id="Layer_1" xmlns="http://www.w3.org/2000/svg" xmlns:xlink="http://www.w3.org/1999/xlink" x="0px" y="0px"
	 viewBox="0 0 553 110.4" enable-background="new 0 0 553 110.4" xml:space="preserve">
<rect x="8.5" y="24.8" width="0.8" height="68"/>
<g>
	<path d="M7.6,25.5c-2,1.1-3.7,5.9-3.7,9.6c0,2.3,1.4,10.1,1.4,12.5c0,5-1.6,8.8-4.7,11.3c3.1,2.5,4.7,6.2,4.7,11.2
		c0,2.3-1.4,10.1-1.4,12.5c0,3.9,1.8,8.6,3.7,9.7v0.7C4,90.6,1.7,84.5,1.7,79.6c0-2.2,1.8-9.5,1.8-11.7c0-3.9-1-6.7-3-8.4
		C0.1,59.3,0,59.1,0,58.9s0.1-0.4,0.5-0.7c2-1.7,3-4.3,3-7.7c0-2.2-1.8-10.2-1.8-12.4c0-5.2,2.1-10.5,5.9-13.3V25.5z"/>
</g>
<rect x="259.3" y="24.8" width="0.8" height="68"/>
<rect x="262" y="24.8" width="0.8" height="68"/>
<rect x="402.3" y="24.8" width="0.8" height="68"/>
<rect x="404.9" y="24.8" width="0.8" height="68"/>
<rect x="548" y="24.8" width="0.8" height="68"/>
<rect x="550.5" y="24.8" width="2.5" height="68"/>
<rect x="8.6" y="44.4" width="544.4" height="0.5"/>
<rect x="8.6" y="39.5" width="544.4" height="0.5"/>
<rect x="8.6" y="34.5" width="544.4" height="0.5"/>
<rect x="8.6" y="29.6" width="544.4" height="0.5"/>
<rect x="8.6" y="24.6" width="544.4" height="0.5"/>
<g>
	<path d="M20.4,44.5c-4.2,0-8.1-3.1-8.1-6.9c0-3.2,2.3-6.7,6.8-10.5c-0.3-1.2-0.4-2.4-0.4-3.6c0-3.5,1.2-6.8,3.2-8.5
		c1.8,2.5,2.7,4.9,2.7,7.1c0,2.9-1.3,5.6-4.3,8.1l0.9,4.2c0.5,0,0.8-0.1,0.8-0.1c2.6,0,4.8,2,4.8,4.7c0,1.9-1.4,3.7-3.6,4.8
		c0-0.1,0.9,3.8,0.9,4.3c0,2.5-2.3,4.2-4.9,4.2c-2,0-3.6-1.3-3.6-3.4c0-1.4,1-2.6,2.4-2.6c1.3,0,2.3,1.3,2.3,2.5
		c0,1.4-1.2,2.3-2.7,2.5c0.6,0.3,1.2,0.5,1.9,0.5c2.1,0,4.1-1.6,4.1-3.6c0-0.2,0-0.4-0.1-0.6l-0.8-3.7
		C22.1,44.4,21.4,44.5,20.4,44.5z M18.2,39.3c0,1,0.5,1.9,1.6,2.5c-1.8-0.3-3-1.4-3-3.1c0-2,1.7-3.7,3.8-4.1l-0.8-4
		c-3.7,2.8-5.7,5.5-5.7,8.1c0,2.9,2.8,5.3,6,5.3c0.9,0,1.7-0.2,2.4-0.5l-1.4-6.8C19.5,36.9,18.2,37.9,18.2,39.3z M22.3,18
		c-1.6,0-2.9,3.7-2.9,7c0,0.7,0,1.3,0.2,1.9c2.7-2.4,4-4.5,4-6.5c0-0.9-0.3-1.7-1-2.4C22.5,18,22.4,18,22.3,18z M25,39.8
		c0-1.6-1.2-3.3-2.9-3.3c-0.1,0-0.2,0-0.5,0l1.4,6.6C24.4,42.3,25,41.1,25,39.8z"/>
</g>
<g>
	<path d="M33.6,18v2.8l1-0.3v1.8l-1,0.3v3.4l1-0.3v1.8l-1,0.3V31h-0.5v-3l-1.9,0.6v3h-0.5v-2.8l-1,0.3v-1.8l1-0.3v-3.4l-1,0.3v-1.8
		l1-0.3v-3.1h0.5v3l1.9-0.6v-3H33.6z M33.1,22.8l-1.9,0.6v3.4l1.9-0.6V22.8z"/>
</g>
<g>
	<path d="M39.8,25.4v2.8l1-0.3v1.8l-1,0.3v3.4l1-0.3V35l-1,0.3v3.1h-0.5v-3l-1.9,0.6v3h-0.5v-2.8l-1,0.3v-1.8l1-0.3V31l-1,0.3v-1.8
		l1-0.3v-3.1h0.5v3l1.9-0.6v-3H39.8z M39.3,30.2l-1.9,0.6v3.4l1.9-0.6V30.2z"/>
</g>
<g>
	<path d="M46,15.5v2.8l1-0.3v1.8l-1,0.3v3.4l1-0.3v1.8l-1,0.3v3.1h-0.5v-3l-1.9,0.6v3h-0.5v-2.8l-1,0.3v-1.8l1-0.3v-3.4l-1,0.3v-1.8
		l1-0.3v-3.1h0.5v3l1.9-0.6v-3H46z M45.5,20.3l-1.9,0.6v3.4l1.9-0.6V20.3z"/>
</g>
<g>
	<path d="M52.2,23v2.8l1-0.3v1.8l-1,0.3V31l1-0.3v1.8l-1,0.3V36h-0.5v-3l-1.9,0.6v3h-0.5v-2.8l-1,0.3v-1.8l1-0.3v-3.4l-1,0.3v-1.8
		l1-0.3v-3.1h0.5v3l1.9-0.6v-3H52.2z M51.7,27.7l-1.9,0.6v3.4l1.9-0.6V27.7z"/>
</g>
<g>
	<path d="M58.4,30.4v2.8l1-0.3v1.8l-1,0.3v3.4l1-0.3V40l-1,0.3v3.1h-0.5v-3L56,41.1v3h-0.5v-2.8l-1,0.3v-1.8l1-0.3V36l-1,0.3v-1.8
		l1-0.3V31H56v3l1.9-0.6v-3H58.4z M57.9,35.2L56,35.8v3.4l1.9-0.6V35.2z"/>
</g>
<g>
	<path d="M64.6,20.5v2.8l1-0.3v1.8l-1,0.3v3.4l1-0.3V30l-1,0.3v3.1h-0.5v-3l-1.9,0.6v3h-0.5v-2.8l-1,0.3v-1.8l1-0.3V26l-1,0.3v-1.8
		l1-0.3v-3.1h0.5v3l1.9-0.6v-3H64.6z M64.1,25.3l-1.9,0.6v3.4l1.9-0.6V25.3z"/>
</g>
<polygon fill-rule="evenodd" clip-rule="evenodd" points="81,26.1 107.8,21.1 107.8,18.6 81,23.6 "/>
<polygon fill-rule="evenodd" clip-rule="evenodd" points="81,22.4 107.8,17.4 107.8,14.9 81,19.9 "/>
<polygon fill-rule="evenodd" clip-rule="evenodd" points="127.7,36.3 161.1,35.7 161.1,33.2 127.7,33.8 "/>
<polygon fill-rule="evenodd" clip-rule="evenodd" points="127.7,40 161.1,39.4 161.1,36.9 127.7,37.5 "/>
<polygon fill-rule="evenodd" clip-rule="evenodd" points="187.5,47.2 217.6,52.1 217.6,49.6 187.5,44.7 "/>
<polygon fill-rule="evenodd" clip-rule="evenodd" points="187.5,50.9 217.6,55.8 217.6,53.4 187.5,48.4 "/>
<polygon fill-rule="evenodd" clip-rule="evenodd" points="270.3,52.1 300.4,47.2 300.4,44.7 270.3,49.6 "/>
<polygon fill-rule="evenodd" clip-rule="evenodd" points="270.3,55.8 300.4,50.9 300.4,48.4 270.3,53.4 "/>
<g>
	<path d="M312.5,7.7c0-0.2,0.6-1.9,0.6-2.4c0-0.1,0-0.2-0.1-0.2c-0.1,0-0.3,0.2-0.6,0.4l-0.2-0.2c0.6-0.4,0.9-0.7,1.1-0.7
		c0.3,0,0.4,0.2,0.4,0.5c0,0.5-0.7,2.1-0.7,2.6c0,0.1,0.1,0.2,0.2,0.2c0.7,0,1.7-1.6,1.7-2.2V5.5c-0.1-0.1-0.4-0.3-0.4-0.6
		c0-0.2,0.1-0.3,0.4-0.3c0.3,0,0.5,0.3,0.5,0.8c0,1-1.2,2.8-2.1,2.8C312.7,8.3,312.5,8.1,312.5,7.7z M317.4,8c0,0,0.1-0.3,0.2-0.8
		c-0.6,0.7-1,1-1.4,1c-0.5,0-0.8-0.3-0.8-0.9c0-1.2,1-2.6,2.1-2.6c0.2,0,0.4,0.1,0.7,0.2l0.1-0.2l0.4,0c-0.5,2-0.7,3-0.7,3.1v0v0
		c0,0,0.3-0.2,0.7-0.5l0.1,0.2c-0.5,0.5-0.8,0.7-1,0.7C317.4,8.2,317.4,8.1,317.4,8z M315.9,7.3c0,0.3,0.1,0.4,0.2,0.4
		c0.5,0,1.5-0.9,1.6-1.3l0.3-1.1c-0.2-0.2-0.4-0.3-0.6-0.3C316.7,5,315.9,6.5,315.9,7.3z"/>
</g>
<g>
	<path d="M311.9,5.9c0,0.8-0.5,1.4-1.6,1.9c0.5,0.7,0.8,1.3,0.8,1.8c0,1.3-1,1.9-2.9,1.9c-1.4,0-2.6-0.8-2.6-2c0-0.9,0.7-1.5,2-2
		c-0.4-0.6-0.7-1.1-0.7-1.6c0-1.1,1.1-1.9,2.5-1.9C310.7,4,311.9,4.9,311.9,5.9z M306.6,9.7c0,0.8,0.9,1.4,1.7,1.4
		c0.8,0,1.4-0.3,1.4-0.9c0-0.7-0.2-0.9-1.7-2.4C307.1,8.4,306.6,9,306.6,9.7z M308.5,5.3c0,0.7,0.2,0.9,1.5,2.2c0.7-0.4,1-1,1-1.7
		c0-0.7-0.7-1.4-1.4-1.4C309.1,4.5,308.5,4.8,308.5,5.3z"/>
</g>
<rect x="345.7" y="4.7" width="0.8" height="7.8"/>
<path d="M344.2,5.4h-2.9V4.6h2.9V5.4z M338.8,5.4h-2.9V4.6h2.9V5.4z M333.4,5.4h-2.9V4.6h2.9V5.4z M327.9,5.4H325V4.6h2.9V5.4z
	 M322.5,5.4h-2.9V4.6h2.9V5.4z"/>
<polygon fill-rule="evenodd" clip-rule="evenodd" points="308.7,47.2 334,42.2 334,39.7 308.7,44.7 "/>
<polygon fill-rule="evenodd" clip-rule="evenodd" points="308.7,50.9 334,45.9 334,43.4 308.7,48.4 "/>
<polygon fill-rule="evenodd" clip-rule="evenodd" points="343.9,42.2 372.1,47.2 372.1,44.7 343.9,39.7 "/>
<polygon fill-rule="evenodd" clip-rule="evenodd" points="343.9,45.9 372.1,50.9 372.1,48.4 343.9,43.4 "/>
<polygon fill-rule="evenodd" clip-rule="evenodd" points="413.2,47.2 441.6,42.2 441.6,39.7 413.2,44.7 "/>
<polygon fill-rule="evenodd" clip-rule="evenodd" points="413.2,50.9 441.6,45.9 441.6,43.4 413.2,48.4 "/>
<g>
	<path d="M455.2,3.6c0-0.2,0.6-1.9,0.6-2.4c0-0.1,0-0.2-0.1-0.2c-0.1,0-0.3,0.2-0.6,0.4l-0.2-0.2c0.6-0.4,0.9-0.7,1.1-0.7
		c0.3,0,0.4,0.2,0.4,0.5c0,0.5-0.7,2.1-0.7,2.6c0,0.1,0.1,0.2,0.2,0.2c0.7,0,1.7-1.6,1.7-2.2V1.4c-0.1-0.1-0.4-0.3-0.4-0.6
		c0-0.2,0.1-0.3,0.4-0.3c0.3,0,0.5,0.3,0.5,0.8c0,1-1.2,2.8-2.1,2.8C455.5,4.2,455.2,4,455.2,3.6z M460.1,4c0,0,0.1-0.3,0.2-0.8
		c-0.6,0.7-1,1-1.4,1c-0.5,0-0.8-0.3-0.8-0.9c0-1.2,1-2.6,2.1-2.6c0.2,0,0.4,0.1,0.7,0.2l0.1-0.2l0.4,0c-0.5,2-0.7,3-0.7,3.1v0v0
		c0,0,0.3-0.2,0.7-0.5l0.1,0.2c-0.5,0.5-0.8,0.7-1,0.7C460.2,4.2,460.1,4.1,460.1,4z M458.7,3.3c0,0.3,0.1,0.4,0.2,0.4
		c0.5,0,1.5-0.9,1.6-1.3l0.3-1.1c-0.2-0.2-0.4-0.3-0.6-0.3C459.4,1,458.7,2.4,458.7,3.3z"/>
</g>
<g>
	<path d="M454.7,1.9c0,0.8-0.5,1.4-1.6,1.9c0.5,0.7,0.8,1.3,0.8,1.8c0,1.3-1,1.9-2.9,1.9c-1.4,0-2.6-0.8-2.6-2c0-0.9,0.7-1.5,2-2
		c-0.4-0.6-0.7-1.1-0.7-1.6c0-1.1,1.1-1.9,2.5-1.9C453.5,0,454.7,0.9,454.7,1.9z M449.4,5.7c0,0.8,0.9,1.4,1.7,1.4
		c0.8,0,1.4-0.3,1.4-0.9c0-0.7-0.2-0.9-1.7-2.4C449.8,4.3,449.4,5,449.4,5.7z M451.3,1.3c0,0.7,0.2,0.9,1.5,2.2c0.7-0.4,1-1,1-1.7
		c0-0.7-0.7-1.4-1.4-1.4C451.9,0.4,451.3,0.8,451.3,1.3z"/>
</g>
<rect x="491.4" y="0.7" width="0.8" height="7.8"/>
<path d="M491.8,1.3h-2.3V0.6h2.3V1.3z M487,1.3H484V0.6h2.9V1.3z M481.6,1.3h-2.9V0.6h2.9V1.3z M476.1,1.3h-2.9V0.6h2.9V1.3z
	 M470.7,1.3h-2.9V0.6h2.9V1.3z M465.3,1.3h-2.9V0.6h2.9V1.3z"/>
<polygon fill-rule="evenodd" clip-rule="evenodd" points="451.5,41.3 479.7,40.6 479.7,38.2 451.5,38.8 "/>
<polygon fill-rule="evenodd" clip-rule="evenodd" points="451.5,45 479.7,44.4 479.7,41.9 451.5,42.5 "/>
<polygon fill-rule="evenodd" clip-rule="evenodd" points="489.6,36 519.7,41 519.7,38.5 489.6,33.5 "/>
<polygon fill-rule="evenodd" clip-rule="evenodd" points="489.6,39.7 519.7,44.7 519.7,42.2 489.6,37.2 "/>
<rect x="8.6" y="92.6" width="544.4" height="0.5"/>
<rect x="8.6" y="87.7" width="544.4" height="0.5"/>
<rect x="8.6" y="82.7" width="544.4" height="0.5"/>
<rect x="8.6" y="77.8" width="544.4" height="0.5"/>
<rect x="8.6" y="72.8" width="544.4" height="0.5"/>
<g>
	<path d="M15.9,87.2c2.9-2.6,4.7-6.1,4.7-9.2c0-2.5-1.4-4.4-3.7-4.4c-1.6,0-3.4,1.3-3.4,2.7c0,0.2,0,0.3,0.1,0.3
		c-0.1,0,0.6-0.6,1.4-0.6c0.9,0,1.5,0.8,1.5,1.7c0,1.2-0.9,2.2-2.1,2.2c-1.2,0-2.1-1.3-2.1-2.8c0-2.3,2.3-4.1,4.8-4.1
		c4.7,0,5.9,3.2,5.9,5.8c0,1.6-0.4,2.9-2,5.3c-1.9,3.1-6.4,5.3-8.1,5.3c-0.4,0-0.6-0.2-0.6-0.5C14,88.5,15.1,87.9,15.9,87.2z
		 M25.8,74.5c0.6,0,1,0.4,1,1s-0.4,1-1,1s-1-0.4-1-1S25.3,74.5,25.8,74.5z M25.8,79.5c0.6,0,1,0.4,1,1c0,0.6-0.4,1-1,1s-1-0.4-1-1
		C24.8,79.9,25.3,79.5,25.8,79.5z"/>
</g>
<g>
	<path d="M33.6,71.2V74l1-0.3v1.8l-1,0.3v3.4l1-0.3v1.8l-1,0.3v3.1h-0.5v-3l-1.9,0.6v3h-0.5V82l-1,0.3v-1.8l1-0.3v-3.4l-1,0.3v-1.8
		l1-0.3v-3.1h0.5v3l1.9-0.6v-3H33.6z M33.1,76l-1.9,0.6V80l1.9-0.6V76z"/>
</g>
<g>
	<path d="M39.8,78.6v2.8l1-0.3v1.8l-1,0.3v3.4l1-0.3v1.8l-1,0.3v3.1h-0.5v-3l-1.9,0.6v3h-0.5v-2.8l-1,0.3v-1.8l1-0.3v-3.4l-1,0.3
		v-1.8l1-0.3v-3.1h0.5v3l1.9-0.6v-3H39.8z M39.3,83.4L37.4,84v3.4l1.9-0.6V83.4z"/>
</g>
<g>
	<path d="M46,68.7v2.8l1-0.3V73l-1,0.3v3.4l1-0.3v1.8l-1,0.3v3.1h-0.5v-3l-1.9,0.6v3h-0.5v-2.8l-1,0.3V78l1-0.3v-3.4l-1,0.3v-1.8
		l1-0.3v-3.1h0.5v3l1.9-0.6v-3H46z M45.5,73.5l-1.9,0.6v3.4l1.9-0.6V73.5z"/>
</g>
<g>
	<path d="M52.2,76.1V79l1-0.3v1.8l-1,0.3v3.4l1-0.3v1.8l-1,0.3v3.1h-0.5v-3l-1.9,0.6v3h-0.5v-2.8l-1,0.3v-1.8l1-0.3v-3.4l-1,0.3
		v-1.8l1-0.3v-3.1h0.5v3l1.9-0.6v-3H52.2z M51.7,80.9l-1.9,0.6V85l1.9-0.6V80.9z"/>
</g>
<g>
	<path d="M58.4,83.6v2.8l1-0.3v1.8l-1,0.3v3.4l1-0.3v1.8l-1,0.3v3.1h-0.5v-3L56,94.2v3h-0.5v-2.8l-1,0.3v-1.8l1-0.3v-3.4l-1,0.3
		v-1.8l1-0.3v-3.1H56v3l1.9-0.6v-3H58.4z M57.9,88.4L56,89v3.4l1.9-0.6V88.4z"/>
</g>
<g>
	<path d="M64.6,73.7v2.8l1-0.3V78l-1,0.3v3.4l1-0.3v1.8l-1,0.3v3.1h-0.5v-3l-1.9,0.6v3h-0.5v-2.8l-1,0.3V83l1-0.3v-3.4l-1,0.3v-1.8
		l1-0.3v-3.1h0.5v3l1.9-0.6v-3H64.6z M64.1,78.4l-1.9,0.6v3.4l1.9-0.6V78.4z"/>
</g>
<g>
	<path d="M121.5,91.5c-3.2,0-6.1-2.3-6.1-5.1c0-2.4,1.7-5,5.1-7.9c-0.2-0.9-0.3-1.8-0.3-2.7c0-2.6,0.9-5.1,2.4-6.3
		c1.4,1.9,2,3.7,2,5.3c0,2.2-1,4.2-3.2,6.1l0.7,3.1c0.4,0,0.6,0,0.6,0c2,0,3.6,1.5,3.6,3.5c0,1.4-1.1,2.8-2.7,3.6
		c0-0.1,0.6,2.8,0.6,3.3c0,1.9-1.7,3.2-3.7,3.2c-1.5,0-2.7-1-2.7-2.5c0-1.1,0.7-1.9,1.8-1.9c1,0,1.7,1,1.7,1.9c0,1-0.9,1.7-2,1.8
		c0.4,0.2,0.9,0.3,1.4,0.3c1.6,0,3.1-1.2,3.1-2.7c0-0.1,0-0.3,0-0.5l-0.6-2.8C122.7,91.4,122.2,91.5,121.5,91.5z M119.9,87.6
		c0,0.8,0.4,1.4,1.2,1.9c-1.3-0.2-2.2-1.1-2.2-2.3c0-1.5,1.3-2.8,2.9-3.1l-0.6-3c-2.8,2.1-4.3,4.1-4.3,6.1c0,2.2,2.1,4,4.5,4
		c0.7,0,1.3-0.1,1.8-0.4l-1.1-5.1C120.8,85.8,119.9,86.6,119.9,87.6z M122.9,71.6c-1.2,0-2.2,2.8-2.2,5.3c0,0.5,0,1,0.1,1.4
		c2-1.8,3-3.4,3-4.8c0-0.7-0.3-1.3-0.7-1.8C123.1,71.6,123,71.6,122.9,71.6z M125,88c0-1.2-0.9-2.4-2.2-2.4c0,0-0.2,0-0.4,0l1.1,5
		C124.4,89.9,125,89,125,88z"/>
</g>
<polygon fill-rule="evenodd" clip-rule="evenodd" points="74.5,94.1 101.3,89.2 101.3,86.7 74.5,91.6 "/>
<polygon fill-rule="evenodd" clip-rule="evenodd" points="74.5,97.8 101.3,92.9 101.3,90.4 74.5,95.4 "/>
<g>
	<path d="M176,84.9c2.2-2,3.6-4.6,3.6-6.9c0-1.9-1.1-3.3-2.8-3.3c-1.2,0-2.5,1-2.5,2.1c0,0.2,0,0.2,0.1,0.2c0,0,0.4-0.5,1-0.5
		c0.7,0,1.2,0.6,1.2,1.3c0,0.9-0.6,1.7-1.6,1.7c-0.9,0-1.5-1-1.5-2.1c0-1.8,1.7-3.1,3.6-3.1c3.5,0,4.4,2.4,4.4,4.4
		c0,1.2-0.3,2.2-1.5,4c-1.4,2.3-4.8,4-6,4c-0.3,0-0.5-0.1-0.5-0.3C174.6,85.9,175.5,85.4,176,84.9z M183.5,75.4
		c0.4,0,0.7,0.3,0.7,0.7c0,0.4-0.3,0.7-0.7,0.7s-0.7-0.3-0.7-0.7C182.8,75.7,183.1,75.4,183.5,75.4z M183.5,79.1
		c0.4,0,0.7,0.3,0.7,0.7c0,0.4-0.3,0.7-0.7,0.7s-0.7-0.3-0.7-0.7C182.8,79.4,183.1,79.1,183.5,79.1z"/>
</g>
<rect x="134.2" y="66.8" fill-rule="evenodd" clip-rule="evenodd" width="33.5" height="2.5"/>
<rect x="134.2" y="63.1" fill-rule="evenodd" clip-rule="evenodd" width="33.5" height="2.5"/>
<polygon fill-rule="evenodd" clip-rule="evenodd" points="187.5,84.2 217.6,89.2 217.6,86.7 187.5,81.7 "/>
<polygon fill-rule="evenodd" clip-rule="evenodd" points="187.5,87.9 217.6,92.9 217.6,90.4 187.5,85.4 "/>
<g>
	<path d="M251.4,91.5c-3.2,0-6.1-2.3-6.1-5.1c0-2.4,1.7-5,5.1-7.9c-0.2-0.9-0.3-1.8-0.3-2.7c0-2.6,0.9-5.1,2.4-6.3
		c1.4,1.9,2,3.7,2,5.3c0,2.2-1,4.2-3.2,6.1L252,84c0.4,0,0.6,0,0.6,0c2,0,3.6,1.5,3.6,3.5c0,1.4-1.1,2.8-2.7,3.6
		c0-0.1,0.6,2.8,0.6,3.3c0,1.9-1.7,3.2-3.7,3.2c-1.5,0-2.7-1-2.7-2.5c0-1.1,0.7-1.9,1.8-1.9c1,0,1.7,1,1.7,1.9c0,1-0.9,1.7-2,1.8
		c0.4,0.2,0.9,0.3,1.4,0.3c1.6,0,3.1-1.2,3.1-2.7c0-0.1,0-0.3,0-0.5l-0.6-2.8C252.6,91.4,252.1,91.5,251.4,91.5z M249.8,87.6
		c0,0.8,0.4,1.4,1.2,1.9c-1.3-0.2-2.2-1.1-2.2-2.3c0-1.5,1.3-2.8,2.9-3.1l-0.6-3c-2.8,2.1-4.3,4.1-4.3,6.1c0,2.2,2.1,4,4.5,4
		c0.7,0,1.3-0.1,1.8-0.4l-1.1-5.1C250.7,85.8,249.8,86.6,249.8,87.6z M252.8,71.6c-1.2,0-2.2,2.8-2.2,5.3c0,0.5,0,1,0.1,1.4
		c2-1.8,3-3.4,3-4.8c0-0.7-0.3-1.3-0.7-1.8C253,71.6,252.9,71.6,252.8,71.6z M254.9,88c0-1.2-0.9-2.4-2.2-2.4c0,0-0.2,0-0.4,0l1.1,5
		C254.3,89.9,254.9,89,254.9,88z"/>
</g>
<polygon fill-rule="evenodd" clip-rule="evenodd" points="276.8,84.2 306.9,79.2 306.9,76.8 276.8,81.7 "/>
<polygon fill-rule="evenodd" clip-rule="evenodd" points="276.8,80.5 306.9,75.5 306.9,73 276.8,78 "/>
<polygon fill-rule="evenodd" clip-rule="evenodd" points="308.7,95.4 334,90.4 334,87.9 308.7,92.9 "/>
<polygon fill-rule="evenodd" clip-rule="evenodd" points="308.7,99.1 334,94.1 334,91.6 308.7,96.6 "/>
<polygon fill-rule="evenodd" clip-rule="evenodd" points="350.4,74.3 378.6,79.2 378.6,76.8 350.4,71.8 "/>
<polygon fill-rule="evenodd" clip-rule="evenodd" points="350.4,70.6 378.6,75.5 378.6,73 350.4,68.1 "/>
<polygon fill-rule="evenodd" clip-rule="evenodd" points="419.7,79.2 448.1,74.3 448.1,71.8 419.7,76.8 "/>
<polygon fill-rule="evenodd" clip-rule="evenodd" points="419.7,75.5 448.1,70.6 448.1,68.1 419.7,73 "/>
<polygon fill-rule="evenodd" clip-rule="evenodd" points="451.5,89.5 479.7,88.9 479.7,86.4 451.5,87 "/>
<polygon fill-rule="evenodd" clip-rule="evenodd" points="451.5,93.2 479.7,92.6 479.7,90.1 451.5,90.7 "/>
<polygon fill-rule="evenodd" clip-rule="evenodd" points="496.1,69.3 526.2,74.3 526.2,71.8 496.1,66.8 "/>
<polygon fill-rule="evenodd" clip-rule="evenodd" points="496.1,65.6 526.2,70.6 526.2,68.1 496.1,63.1 "/>
<rect x="80.8" y="20" width="0.5" height="26.4"/>
<g>
	<path d="M74.3,48c0-1.8,2.5-3.5,4.5-3.5c1.3,0,2.3,0.7,2.3,1.7c0,1.7-2.5,3.5-4.6,3.5C75.3,49.7,74.3,49.1,74.3,48z"/>
</g>
<rect x="89.1" y="18.6" width="0.5" height="22.8"/>
<g>
	<path d="M82.7,43c0-1.8,2.5-3.5,4.5-3.5c1.3,0,2.3,0.7,2.3,1.7c0,1.7-2.5,3.5-4.6,3.5C83.7,44.8,82.7,44.1,82.7,43z"/>
</g>
<rect x="97.7" y="16.9" width="0.5" height="19.5"/>
<g>
	<path d="M91.2,38.1c0-1.8,2.5-3.5,4.5-3.5c1.3,0,2.3,0.7,2.3,1.7c0,1.7-2.5,3.5-4.6,3.5C92.2,39.8,91.2,39.2,91.2,38.1z"/>
</g>
<rect x="107.6" y="15.1" width="0.5" height="14"/>
<g>
	<path d="M101.2,30.6c0-1.8,2.5-3.5,4.5-3.5c1.3,0,2.3,0.7,2.3,1.7c0,1.7-2.5,3.5-4.6,3.5C102.1,32.4,101.2,31.7,101.2,30.6z"/>
</g>
<rect x="127.4" y="25.6" width="0.5" height="14.3"/>
<g>
	<path d="M127.5,25.7c0-1.8,2.5-3.5,4.5-3.5c1.3,0,2.3,0.7,2.3,1.7c0,1.7-2.5,3.5-4.6,3.5C128.5,27.4,127.5,26.8,127.5,25.7z"/>
</g>
<rect x="135.6" y="19.5" width="10.5" height="0.8"/>
<rect x="137.4" y="20.6" width="0.5" height="19.1"/>
<g>
	<path d="M137.4,20.7c0-1.8,2.5-3.5,4.5-3.5c1.3,0,2.3,0.7,2.3,1.7c0,1.7-2.5,3.5-4.6,3.5C138.4,22.5,137.4,21.8,137.4,20.7z"/>
</g>
<rect x="147.4" y="19.5" width="10.5" height="0.8"/>
<rect x="147.4" y="14.5" width="10.5" height="0.8"/>
<rect x="149.1" y="13.2" width="0.5" height="26.4"/>
<g>
	<path d="M149.2,13.3c0-1.8,2.5-3.5,4.5-3.5c1.3,0,2.3,0.7,2.3,1.7c0,1.7-2.5,3.5-4.6,3.5C150.2,15,149.2,14.4,149.2,13.3z"/>
</g>
<rect x="159.1" y="19.5" width="10.5" height="0.8"/>
<rect x="160.9" y="20.6" width="0.5" height="18.6"/>
<g>
	<path d="M161,20.7c0-1.8,2.5-3.5,4.5-3.5c1.3,0,2.3,0.7,2.3,1.7c0,1.7-2.5,3.5-4.6,3.5C162,22.5,161,21.8,161,20.7z"/>
</g>
<rect x="187.3" y="25.6" width="0.5" height="25.1"/>
<g>
	<path d="M187.3,25.7c0-1.8,2.5-3.5,4.5-3.5c1.3,0,2.3,0.7,2.3,1.7c0,1.7-2.5,3.5-4.6,3.5C188.3,27.4,187.3,26.8,187.3,25.7z"/>
</g>
<rect x="199" y="30.6" width="0.5" height="22"/>
<g>
	<path d="M199.1,30.6c0-1.8,2.5-3.5,4.5-3.5c1.3,0,2.3,0.7,2.3,1.7c0,1.7-2.5,3.5-4.6,3.5C200.1,32.4,199.1,31.7,199.1,30.6z"/>
</g>
<rect x="209" y="38" width="0.5" height="16.3"/>
<g>
	<path d="M209,38.1c0-1.8,2.5-3.5,4.5-3.5c1.3,0,2.3,0.7,2.3,1.7c0,1.7-2.5,3.5-4.6,3.5C210,39.8,209,39.2,209,38.1z"/>
</g>
<rect x="217.3" y="43" width="0.5" height="12.7"/>
<g>
	<path d="M217.4,43c0-1.8,2.5-3.5,4.5-3.5c1.3,0,2.3,0.7,2.3,1.7c0,1.7-2.5,3.5-4.6,3.5C218.4,44.8,217.4,44.1,217.4,43z"/>
</g>
<rect x="232.4" y="29.8" width="0.5" height="16.6"/>
<g>
	<path d="M230.1,44.5c1.6,0,2.7,0.7,2.7,2c0,1.9-2.3,3.4-4.5,3.4c-1.3,0-2.4-0.7-2.4-1.8C225.8,46.2,228,44.5,230.1,44.5z
		 M226.2,48.3c0,0.6,0.4,0.9,1.1,0.9c1.4,0,4.9-2.1,4.9-3.3c0-0.6-0.4-0.9-1.1-0.9C229.9,45.1,226.2,47.1,226.2,48.3z"/>
</g>
<rect x="270" y="43" width="0.5" height="12.7"/>
<g>
	<path d="M270.1,43c0-1.8,2.5-3.5,4.5-3.5c1.3,0,2.3,0.7,2.3,1.7c0,1.7-2.5,3.5-4.6,3.5C271.1,44.8,270.1,44.1,270.1,43z"/>
</g>
<rect x="281.8" y="38" width="0.5" height="15.8"/>
<g>
	<path d="M281.9,38.1c0-1.8,2.5-3.5,4.5-3.5c1.3,0,2.3,0.7,2.3,1.7c0,1.7-2.5,3.5-4.6,3.5C282.9,39.8,281.9,39.2,281.9,38.1z"/>
</g>
<rect x="291.7" y="30.6" width="0.5" height="21.5"/>
<g>
	<path d="M291.8,30.6c0-1.8,2.5-3.5,4.5-3.5c1.3,0,2.3,0.7,2.3,1.7c0,1.7-2.5,3.5-4.6,3.5C292.8,32.4,291.8,31.7,291.8,30.6z"/>
</g>
<rect x="300.1" y="25.6" width="0.5" height="25.1"/>
<g>
	<path d="M300.2,25.7c0-1.8,2.5-3.5,4.5-3.5c1.3,0,2.3,0.7,2.3,1.7c0,1.7-2.5,3.5-4.6,3.5C301.2,27.4,300.2,26.8,300.2,25.7z"/>
</g>
<rect x="308.5" y="38" width="0.5" height="12.7"/>
<g>
	<path d="M308.6,38.1c0-1.8,2.5-3.5,4.5-3.5c1.3,0,2.3,0.7,2.3,1.7c0,1.7-2.5,3.5-4.6,3.5C309.5,39.8,308.6,39.2,308.6,38.1z"/>
</g>
<rect x="317" y="30.6" width="0.5" height="18.6"/>
<g>
	<path d="M317.1,30.6c0-1.8,2.5-3.5,4.5-3.5c1.3,0,2.3,0.7,2.3,1.7c0,1.7-2.5,3.5-4.6,3.5C318.1,32.4,317.1,31.7,317.1,30.6z"/>
</g>
<rect x="325.4" y="25.6" width="0.5" height="21.9"/>
<g>
	<path d="M325.5,25.7c0-1.8,2.5-3.5,4.5-3.5c1.3,0,2.3,0.7,2.3,1.7c0,1.7-2.5,3.5-4.6,3.5C326.4,27.4,325.5,26.8,325.5,25.7z"/>
</g>
<rect x="333.8" y="30.6" width="0.5" height="15.2"/>
<g>
	<path d="M333.8,30.6c0-1.8,2.5-3.5,4.5-3.5c1.3,0,2.3,0.7,2.3,1.7c0,1.7-2.5,3.5-4.6,3.5C334.8,32.4,333.8,31.7,333.8,30.6z"/>
</g>
<rect x="341.9" y="19.5" width="10.5" height="0.8"/>
<rect x="343.7" y="20.6" width="0.5" height="25.1"/>
<g>
	<path d="M343.8,20.7c0-1.8,2.5-3.5,4.5-3.5c1.3,0,2.3,0.7,2.3,1.7c0,1.7-2.5,3.5-4.6,3.5C344.7,22.5,343.8,21.8,343.8,20.7z"/>
</g>
<rect x="353.6" y="25.6" width="0.5" height="21.9"/>
<g>
	<path d="M353.7,25.7c0-1.8,2.5-3.5,4.5-3.5c1.3,0,2.3,0.7,2.3,1.7c0,1.7-2.5,3.5-4.6,3.5C354.6,27.4,353.7,26.8,353.7,25.7z"/>
</g>
<rect x="362" y="30.6" width="0.5" height="18.3"/>
<g>
	<path d="M362,30.6c0-1.8,2.5-3.5,4.5-3.5c1.3,0,2.3,0.7,2.3,1.7c0,1.7-2.5,3.5-4.6,3.5C363,32.4,362,31.7,362,30.6z"/>
</g>
<rect x="371.9" y="38" width="0.5" height="12.7"/>
<g>
	<path d="M372,38.1c0-1.8,2.5-3.5,4.5-3.5c1.3,0,2.3,0.7,2.3,1.7c0,1.7-2.5,3.5-4.6,3.5C372.9,39.8,372,39.2,372,38.1z"/>
</g>
<rect x="390.3" y="24.8" width="0.5" height="16.6"/>
<g>
	<path d="M388,39.5c1.6,0,2.7,0.7,2.7,2c0,1.9-2.3,3.4-4.5,3.4c-1.3,0-2.4-0.7-2.4-1.8C383.7,41.3,386,39.5,388,39.5z M384.2,43.3
		c0,0.6,0.4,0.9,1.1,0.9c1.4,0,4.9-2.1,4.9-3.3c0-0.6-0.4-0.9-1.1-0.9C387.9,40.1,384.2,42.1,384.2,43.3z"/>
</g>
<rect x="413" y="38" width="0.5" height="12.7"/>
<g>
	<path d="M413,38.1c0-1.8,2.5-3.5,4.5-3.5c1.3,0,2.3,0.7,2.3,1.7c0,1.7-2.5,3.5-4.6,3.5C414,39.8,413,39.2,413,38.1z"/>
</g>
<rect x="422.9" y="30.6" width="0.5" height="18.4"/>
<g>
	<path d="M423,30.6c0-1.8,2.5-3.5,4.5-3.5c1.3,0,2.3,0.7,2.3,1.7c0,1.7-2.5,3.5-4.6,3.5C423.9,32.4,423,31.7,423,30.6z"/>
</g>
<rect x="431.4" y="25.6" width="0.5" height="22"/>
<g>
	<path d="M431.5,25.7c0-1.8,2.5-3.5,4.5-3.5c1.3,0,2.3,0.7,2.3,1.7c0,1.7-2.5,3.5-4.6,3.5C432.5,27.4,431.5,26.8,431.5,25.7z"/>
</g>
<rect x="439.6" y="19.5" width="10.5" height="0.8"/>
<rect x="441.3" y="20.6" width="0.5" height="25.1"/>
<g>
	<path d="M441.4,20.7c0-1.8,2.5-3.5,4.5-3.5c1.3,0,2.3,0.7,2.3,1.7c0,1.7-2.5,3.5-4.6,3.5C442.4,22.5,441.4,21.8,441.4,20.7z"/>
</g>
<rect x="451.3" y="30.6" width="0.5" height="14.3"/>
<g>
	<path d="M451.3,30.6c0-1.8,2.5-3.5,4.5-3.5c1.3,0,2.3,0.7,2.3,1.7c0,1.7-2.5,3.5-4.6,3.5C452.3,32.4,451.3,31.7,451.3,30.6z"/>
</g>
<rect x="459.6" y="25.6" width="0.5" height="19.1"/>
<g>
	<path d="M459.7,25.7c0-1.8,2.5-3.5,4.5-3.5c1.3,0,2.3,0.7,2.3,1.7c0,1.7-2.5,3.5-4.6,3.5C460.7,27.4,459.7,26.8,459.7,25.7z"/>
</g>
<rect x="467.8" y="19.5" width="10.5" height="0.8"/>
<rect x="469.6" y="20.6" width="0.5" height="23.9"/>
<g>
	<path d="M469.6,20.7c0-1.8,2.5-3.5,4.5-3.5c1.3,0,2.3,0.7,2.3,1.7c0,1.7-2.5,3.5-4.6,3.5C470.6,22.5,469.6,21.8,469.6,20.7z"/>
</g>
<rect x="479.5" y="25.6" width="0.5" height="18.6"/>
<g>
	<path d="M479.5,25.7c0-1.8,2.5-3.5,4.5-3.5c1.3,0,2.3,0.7,2.3,1.7c0,1.7-2.5,3.5-4.6,3.5C480.5,27.4,479.5,26.8,479.5,25.7z"/>
</g>
<rect x="487.6" y="19.5" width="10.5" height="0.8"/>
<rect x="487.6" y="14.5" width="10.5" height="0.8"/>
<rect x="489.4" y="13.2" width="0.5" height="26.4"/>
<g>
	<path d="M489.5,13.3c0-1.8,2.5-3.5,4.5-3.5c1.3,0,2.3,0.7,2.3,1.7c0,1.7-2.5,3.5-4.6,3.5C490.4,15,489.5,14.4,489.5,13.3z"/>
</g>
<rect x="499.4" y="19.5" width="10.5" height="0.8"/>
<rect x="501.2" y="20.6" width="0.5" height="20.8"/>
<g>
	<path d="M501.3,20.7c0-1.8,2.5-3.5,4.5-3.5c1.3,0,2.3,0.7,2.3,1.7c0,1.7-2.5,3.5-4.6,3.5C502.2,22.5,501.3,21.8,501.3,20.7z"/>
</g>
<rect x="511.1" y="25.6" width="0.5" height="17.5"/>
<g>
	<path d="M511.2,25.7c0-1.8,2.5-3.5,4.5-3.5c1.3,0,2.3,0.7,2.3,1.7c0,1.7-2.5,3.5-4.6,3.5C512.1,27.4,511.2,26.8,511.2,25.7z"/>
</g>
<rect x="519.5" y="30.6" width="0.5" height="14"/>
<g>
	<path d="M519.5,30.6c0-1.8,2.5-3.5,4.5-3.5c1.3,0,2.3,0.7,2.3,1.7c0,1.7-2.5,3.5-4.6,3.5C520.5,32.4,519.5,31.7,519.5,30.6z"/>
</g>
<rect x="536.1" y="19.9" width="0.5" height="16.6"/>
<g>
	<path d="M533.7,34.5c1.6,0,2.7,0.7,2.7,2c0,1.9-2.3,3.4-4.5,3.4c-1.3,0-2.4-0.7-2.4-1.8C529.5,36.3,531.7,34.5,533.7,34.5z
		 M529.9,38.4c0,0.6,0.4,0.9,1.1,0.9c1.4,0,4.9-2.1,4.9-3.3c0-0.6-0.4-0.9-1.1-0.9C533.6,35.1,529.9,37.2,529.9,38.4z"/>
</g>
<rect x="74.3" y="83.7" width="0.5" height="14"/>
<g>
	<path d="M74.3,83.8c0-1.8,2.5-3.5,4.5-3.5c1.3,0,2.3,0.7,2.3,1.7c0,1.7-2.5,3.5-4.6,3.5C75.3,85.5,74.3,84.9,74.3,83.8z"/>
</g>
<rect x="82.6" y="78.8" width="0.5" height="17.5"/>
<g>
	<path d="M82.7,78.9c0-1.8,2.5-3.5,4.5-3.5c1.3,0,2.3,0.7,2.3,1.7c0,1.7-2.5,3.5-4.6,3.5C83.7,80.6,82.7,79.9,82.7,78.9z"/>
</g>
<rect x="91.2" y="73.8" width="0.5" height="20.8"/>
<g>
	<path d="M91.2,73.9c0-1.8,2.5-3.5,4.5-3.5c1.3,0,2.3,0.7,2.3,1.7c0,1.7-2.5,3.5-4.6,3.5C92.2,75.6,91.2,75,91.2,73.9z"/>
</g>
<rect x="99.3" y="67.7" width="10.5" height="0.8"/>
<rect x="101.1" y="66.4" width="0.5" height="26.4"/>
<g>
	<path d="M101.2,66.5c0-1.8,2.5-3.5,4.5-3.5c1.3,0,2.3,0.7,2.3,1.7c0,1.7-2.5,3.5-4.6,3.5C102.1,68.2,101.2,67.5,101.2,66.5z"/>
</g>
<rect x="133.9" y="63.3" width="0.5" height="26.4"/>
<g>
	<path d="M127.5,91.3c0-1.8,2.5-3.5,4.5-3.5c1.3,0,2.3,0.7,2.3,1.7c0,1.7-2.5,3.5-4.6,3.5C128.5,93,127.5,92.3,127.5,91.3z"/>
</g>
<rect x="143.9" y="63.3" width="0.5" height="21.4"/>
<g>
	<path d="M137.4,86.3c0-1.8,2.5-3.5,4.5-3.5c1.3,0,2.3,0.7,2.3,1.7c0,1.7-2.5,3.5-4.6,3.5C138.4,88,137.4,87.4,137.4,86.3z"/>
</g>
<rect x="155.6" y="63.3" width="0.5" height="14"/>
<g>
	<path d="M149.2,78.9c0-1.8,2.5-3.5,4.5-3.5c1.3,0,2.3,0.7,2.3,1.7c0,1.7-2.5,3.5-4.6,3.5C150.2,80.6,149.2,79.9,149.2,78.9z"/>
</g>
<rect x="167.4" y="63.3" width="0.5" height="21.4"/>
<g>
	<path d="M161,86.3c0-1.8,2.5-3.5,4.5-3.5c1.3,0,2.3,0.7,2.3,1.7c0,1.7-2.5,3.5-4.6,3.5C162,88,161,87.4,161,86.3z"/>
</g>
<rect x="185.5" y="67.7" width="10.5" height="0.8"/>
<rect x="185.5" y="62.7" width="10.5" height="0.8"/>
<rect x="187.3" y="61.4" width="0.5" height="26.4"/>
<g>
	<path d="M187.3,61.5c0-1.8,2.5-3.5,4.5-3.5c1.3,0,2.3,0.7,2.3,1.7c0,1.7-2.5,3.5-4.6,3.5C188.3,63.2,187.3,62.6,187.3,61.5z"/>
</g>
<rect x="197.3" y="67.7" width="10.5" height="0.8"/>
<rect x="199" y="66.4" width="0.5" height="23.3"/>
<g>
	<path d="M199.1,66.5c0-1.8,2.5-3.5,4.5-3.5c1.3,0,2.3,0.7,2.3,1.7c0,1.7-2.5,3.5-4.6,3.5C200.1,68.2,199.1,67.5,199.1,66.5z"/>
</g>
<rect x="209" y="73.8" width="0.5" height="17.5"/>
<g>
	<path d="M209,73.9c0-1.8,2.5-3.5,4.5-3.5c1.3,0,2.3,0.7,2.3,1.7c0,1.7-2.5,3.5-4.6,3.5C210,75.6,209,75,209,73.9z"/>
</g>
<rect x="217.3" y="78.8" width="0.5" height="14"/>
<g>
	<path d="M217.4,78.9c0-1.8,2.5-3.5,4.5-3.5c1.3,0,2.3,0.7,2.3,1.7c0,1.7-2.5,3.5-4.6,3.5C218.4,80.6,217.4,79.9,217.4,78.9z"/>
</g>
<rect x="225.7" y="83.7" width="0.5" height="16.6"/>
<g>
	<path d="M230.1,80.3c1.6,0,2.7,0.7,2.7,2c0,1.9-2.3,3.4-4.5,3.4c-1.3,0-2.4-0.7-2.4-1.8C225.8,82,228,80.3,230.1,80.3z M226.2,84.1
		c0,0.6,0.4,0.9,1.1,0.9c1.4,0,4.9-2.1,4.9-3.3c0-0.6-0.4-0.9-1.1-0.9C229.9,80.9,226.2,82.9,226.2,84.1z"/>
</g>
<rect x="268.3" y="97.5" width="10.5" height="0.8"/>
<rect x="268.3" y="102.4" width="10.5" height="0.8"/>
<rect x="268.3" y="107.4" width="10.5" height="0.8"/>
<rect x="276.6" y="78.2" width="0.5" height="28.8"/>
<g>
	<path d="M270.1,108.6c0-1.8,2.5-3.5,4.5-3.5c1.3,0,2.3,0.7,2.3,1.7c0,1.7-2.5,3.5-4.6,3.5C271.1,110.3,270.1,109.7,270.1,108.6z"/>
</g>
<rect x="280" y="97.5" width="10.5" height="0.8"/>
<rect x="280" y="102.4" width="10.5" height="0.8"/>
<rect x="288.3" y="76.3" width="0.5" height="25.7"/>
<g>
	<path d="M281.9,103.7c0-1.8,2.5-3.5,4.5-3.5c1.3,0,2.3,0.7,2.3,1.7c0,1.7-2.5,3.5-4.6,3.5C282.9,105.4,281.9,104.7,281.9,103.7z"/>
</g>
<rect x="298.3" y="74.6" width="0.5" height="20"/>
<g>
	<path d="M291.8,96.2c0-1.8,2.5-3.5,4.5-3.5c1.3,0,2.3,0.7,2.3,1.7c0,1.7-2.5,3.5-4.6,3.5C292.8,97.9,291.8,97.3,291.8,96.2z"/>
</g>
<rect x="306.6" y="73.2" width="0.5" height="16.4"/>
<g>
	<path d="M300.2,91.3c0-1.8,2.5-3.5,4.5-3.5c1.3,0,2.3,0.7,2.3,1.7c0,1.7-2.5,3.5-4.6,3.5C301.2,93,300.2,92.3,300.2,91.3z"/>
</g>
<rect x="308.5" y="86.2" width="0.5" height="12.7"/>
<g>
	<path d="M308.6,86.3c0-1.8,2.5-3.5,4.5-3.5c1.3,0,2.3,0.7,2.3,1.7c0,1.7-2.5,3.5-4.6,3.5C309.5,88,308.6,87.4,308.6,86.3z"/>
</g>
<rect x="317" y="78.8" width="0.5" height="18.6"/>
<g>
	<path d="M317.1,78.9c0-1.8,2.5-3.5,4.5-3.5c1.3,0,2.3,0.7,2.3,1.7c0,1.7-2.5,3.5-4.6,3.5C318.1,80.6,317.1,79.9,317.1,78.9z"/>
</g>
<rect x="325.4" y="73.8" width="0.5" height="21.9"/>
<g>
	<path d="M325.5,73.9c0-1.8,2.5-3.5,4.5-3.5c1.3,0,2.3,0.7,2.3,1.7c0,1.7-2.5,3.5-4.6,3.5C326.4,75.6,325.5,75,325.5,73.9z"/>
</g>
<rect x="333.8" y="78.8" width="0.5" height="15.2"/>
<g>
	<path d="M333.8,78.9c0-1.8,2.5-3.5,4.5-3.5c1.3,0,2.3,0.7,2.3,1.7c0,1.7-2.5,3.5-4.6,3.5C334.8,80.6,333.8,79.9,333.8,78.9z"/>
</g>
<rect x="350.2" y="68.2" width="0.5" height="16.4"/>
<g>
	<path d="M343.8,86.3c0-1.8,2.5-3.5,4.5-3.5c1.3,0,2.3,0.7,2.3,1.7c0,1.7-2.5,3.5-4.6,3.5C344.7,88,343.8,87.4,343.8,86.3z"/>
</g>
<rect x="360.1" y="69.9" width="0.5" height="19.7"/>
<g>
	<path d="M353.7,91.3c0-1.8,2.5-3.5,4.5-3.5c1.3,0,2.3,0.7,2.3,1.7c0,1.7-2.5,3.5-4.6,3.5C354.6,93,353.7,92.3,353.7,91.3z"/>
</g>
<rect x="368.5" y="71.3" width="0.5" height="23.3"/>
<g>
	<path d="M362,96.2c0-1.8,2.5-3.5,4.5-3.5c1.3,0,2.3,0.7,2.3,1.7c0,1.7-2.5,3.5-4.6,3.5C363,97.9,362,97.3,362,96.2z"/>
</g>
<rect x="370.1" y="97.5" width="10.5" height="0.8"/>
<rect x="370.1" y="102.4" width="10.5" height="0.8"/>
<rect x="378.4" y="73.2" width="0.5" height="28.8"/>
<g>
	<path d="M372,103.7c0-1.8,2.5-3.5,4.5-3.5c1.3,0,2.3,0.7,2.3,1.7c0,1.7-2.5,3.5-4.6,3.5C372.9,105.4,372,104.7,372,103.7z"/>
</g>
<rect x="381.9" y="97.5" width="10.7" height="0.8"/>
<rect x="381.9" y="102.4" width="10.7" height="0.8"/>
<rect x="381.9" y="107.4" width="10.7" height="0.8"/>
<rect x="390.3" y="83" width="0.5" height="24"/>
<g>
	<path d="M388,105.1c1.6,0,2.7,0.7,2.7,2c0,1.9-2.3,3.4-4.5,3.4c-1.3,0-2.4-0.7-2.4-1.8C383.7,106.9,386,105.1,388,105.1z
		 M384.2,108.9c0,0.6,0.4,0.9,1.1,0.9c1.4,0,4.9-2.1,4.9-3.3c0-0.6-0.4-0.9-1.1-0.9C387.9,105.7,384.2,107.7,384.2,108.9z"/>
</g>
<rect x="411.2" y="97.5" width="10.5" height="0.8"/>
<rect x="411.2" y="102.4" width="10.5" height="0.8"/>
<rect x="419.5" y="73.2" width="0.5" height="28.8"/>
<g>
	<path d="M413,103.7c0-1.8,2.5-3.5,4.5-3.5c1.3,0,2.3,0.7,2.3,1.7c0,1.7-2.5,3.5-4.6,3.5C414,105.4,413,104.7,413,103.7z"/>
</g>
<rect x="429.4" y="71.5" width="0.5" height="23.1"/>
<g>
	<path d="M423,96.2c0-1.8,2.5-3.5,4.5-3.5c1.3,0,2.3,0.7,2.3,1.7c0,1.7-2.5,3.5-4.6,3.5C423.9,97.9,423,97.3,423,96.2z"/>
</g>
<rect x="437.9" y="70.1" width="0.5" height="19.5"/>
<g>
	<path d="M431.5,91.3c0-1.8,2.5-3.5,4.5-3.5c1.3,0,2.3,0.7,2.3,1.7c0,1.7-2.5,3.5-4.6,3.5C432.5,93,431.5,92.3,431.5,91.3z"/>
</g>
<rect x="447.8" y="68.2" width="0.5" height="16.4"/>
<g>
	<path d="M441.4,86.3c0-1.8,2.5-3.5,4.5-3.5c1.3,0,2.3,0.7,2.3,1.7c0,1.7-2.5,3.5-4.6,3.5C442.4,88,441.4,87.4,441.4,86.3z"/>
</g>
<rect x="451.3" y="78.8" width="0.5" height="14.3"/>
<g>
	<path d="M451.3,78.9c0-1.8,2.5-3.5,4.5-3.5c1.3,0,2.3,0.7,2.3,1.7c0,1.7-2.5,3.5-4.6,3.5C452.3,80.6,451.3,79.9,451.3,78.9z"/>
</g>
<rect x="459.6" y="73.8" width="0.5" height="19.1"/>
<g>
	<path d="M459.7,73.9c0-1.8,2.5-3.5,4.5-3.5c1.3,0,2.3,0.7,2.3,1.7c0,1.7-2.5,3.5-4.6,3.5C460.7,75.6,459.7,75,459.7,73.9z"/>
</g>
<rect x="467.8" y="67.7" width="10.5" height="0.8"/>
<rect x="469.6" y="68.9" width="0.5" height="23.9"/>
<g>
	<path d="M469.6,68.9c0-1.8,2.5-3.5,4.5-3.5c1.3,0,2.3,0.7,2.3,1.7c0,1.7-2.5,3.5-4.6,3.5C470.6,70.7,469.6,70,469.6,68.9z"/>
</g>
<rect x="479.5" y="73.8" width="0.5" height="18.6"/>
<g>
	<path d="M479.5,73.9c0-1.8,2.5-3.5,4.5-3.5c1.3,0,2.3,0.7,2.3,1.7c0,1.7-2.5,3.5-4.6,3.5C480.5,75.6,479.5,75,479.5,73.9z"/>
</g>
<rect x="495.9" y="63.3" width="0.5" height="14"/>
<g>
	<path d="M489.5,78.9c0-1.8,2.5-3.5,4.5-3.5c1.3,0,2.3,0.7,2.3,1.7c0,1.7-2.5,3.5-4.6,3.5C490.4,80.6,489.5,79.9,489.5,78.9z"/>
</g>
<rect x="507.7" y="65.1" width="0.5" height="19.5"/>
<g>
	<path d="M501.3,86.3c0-1.8,2.5-3.5,4.5-3.5c1.3,0,2.3,0.7,2.3,1.7c0,1.7-2.5,3.5-4.6,3.5C502.2,88,501.3,87.4,501.3,86.3z"/>
</g>
<rect x="517.6" y="66.8" width="0.5" height="22.8"/>
<g>
	<path d="M511.2,91.3c0-1.8,2.5-3.5,4.5-3.5c1.3,0,2.3,0.7,2.3,1.7c0,1.7-2.5,3.5-4.6,3.5C512.1,93,511.2,92.3,511.2,91.3z"/>
</g>
<rect x="526" y="68.2" width="0.5" height="26.4"/>
<g>
	<path d="M519.5,96.2c0-1.8,2.5-3.5,4.5-3.5c1.3,0,2.3,0.7,2.3,1.7c0,1.7-2.5,3.5-4.6,3.5C520.5,97.9,519.5,97.3,519.5,96.2z"/>
</g>
<rect x="527.6" y="97.5" width="10.7" height="0.8"/>
<rect x="527.6" y="102.4" width="10.7" height="0.8"/>
<rect x="536.1" y="83" width="0.5" height="19.1"/>
<g>
	<path d="M533.7,100.1c1.6,0,2.7,0.7,2.7,2c0,1.9-2.3,3.4-4.5,3.4c-1.3,0-2.4-0.7-2.4-1.8C529.5,101.9,531.7,100.1,533.7,100.1z
		 M529.9,104c0,0.6,0.4,0.9,1.1,0.9c1.4,0,4.9-2.1,4.9-3.3c0-0.6-0.4-0.9-1.1-0.9C533.6,100.7,529.9,102.7,529.9,104z"/>
</g>
</svg>
