<?xml version="1.0" encoding="utf-8"?>

<!--
	ScaleBook
	Copyright (c) Leland Jansen 2015. All rights reserved.
-->

<!DOCTYPE svg PUBLIC "-//W3C//DTD SVG 1.1//EN" "http://www.w3.org/Graphics/SVG/1.1/DTD/svg11.dtd">
<svg version="1.1" id="Layer_1" xmlns="http://www.w3.org/2000/svg" xmlns:xlink="http://www.w3.org/1999/xlink" x="0px" y="0px"
	 viewBox="0 0 553 111.7" enable-background="new 0 0 553 111.7" xml:space="preserve">
<rect x="8.5" y="27.3" width="0.8" height="69.3"/>
<g>
	<path d="M7.6,28c-2,1.1-3.7,6-3.7,9.8c0,2.4,1.4,10.3,1.4,12.7c0,5.1-1.6,8.9-4.7,11.5c3.1,2.5,4.7,6.3,4.7,11.4
		c0,2.4-1.4,10.3-1.4,12.7c0,3.9,1.8,8.7,3.7,9.8v0.7C4,94.2,1.7,88.1,1.7,83.1c0-2.2,1.8-9.7,1.8-11.9c0-3.9-1-6.8-3-8.5
		C0.1,62.4,0,62.2,0,62c0-0.2,0.1-0.4,0.5-0.7c2-1.7,3-4.4,3-7.8c0-2.2-1.8-10.4-1.8-12.6c0-5.3,2.1-10.7,5.9-13.5V28z"/>
</g>
<rect x="238.9" y="27.3" width="0.8" height="69.3"/>
<rect x="241.5" y="27.3" width="0.8" height="69.3"/>
<rect x="393.1" y="27.3" width="0.8" height="69.3"/>
<rect x="395.8" y="27.3" width="0.8" height="69.3"/>
<rect x="548" y="27.3" width="0.8" height="69.3"/>
<rect x="550.5" y="27.3" width="2.5" height="69.3"/>
<rect x="8.6" y="46.9" width="544.4" height="0.5"/>
<rect x="8.6" y="42" width="544.4" height="0.5"/>
<rect x="8.6" y="37" width="544.4" height="0.5"/>
<rect x="8.6" y="32" width="544.4" height="0.5"/>
<rect x="8.6" y="27.1" width="544.4" height="0.5"/>
<g>
	<path d="M20.4,47c-4.2,0-8.1-3.1-8.1-6.9c0-3.2,2.3-6.7,6.8-10.5c-0.3-1.2-0.4-2.4-0.4-3.6c0-3.5,1.2-6.8,3.2-8.5
		c1.8,2.5,2.7,4.9,2.7,7.1c0,2.9-1.3,5.6-4.3,8.1l0.9,4.2c0.5,0,0.8-0.1,0.8-0.1c2.6,0,4.8,2,4.8,4.7c0,1.9-1.4,3.7-3.6,4.8
		c0-0.1,0.9,3.8,0.9,4.3c0,2.5-2.3,4.2-4.9,4.2c-2,0-3.6-1.3-3.6-3.4c0-1.4,1-2.6,2.4-2.6c1.3,0,2.3,1.3,2.3,2.5
		c0,1.4-1.2,2.3-2.7,2.5c0.6,0.3,1.2,0.5,1.9,0.5c2.1,0,4.1-1.6,4.1-3.6c0-0.2,0-0.4-0.1-0.6l-0.8-3.7C22.1,46.9,21.4,47,20.4,47z
		 M18.2,41.8c0,1,0.5,1.9,1.6,2.5c-1.8-0.3-3-1.4-3-3.1c0-2,1.7-3.7,3.8-4.1l-0.8-4c-3.7,2.8-5.7,5.5-5.7,8.1c0,2.9,2.8,5.3,6,5.3
		c0.9,0,1.7-0.2,2.4-0.5l-1.4-6.8C19.5,39.4,18.2,40.4,18.2,41.8z M22.3,20.4c-1.6,0-2.9,3.7-2.9,7c0,0.7,0,1.3,0.2,1.9
		c2.7-2.4,4-4.5,4-6.5c0-0.9-0.3-1.7-1-2.4C22.5,20.5,22.4,20.4,22.3,20.4z M25,42.3c0-1.6-1.2-3.3-2.9-3.3c-0.1,0-0.2,0-0.5,0
		l1.4,6.6C24.4,44.8,25,43.6,25,42.3z"/>
</g>
<g>
	<path d="M33.6,20.5v2.8l1-0.3v1.8l-1,0.3v3.4l1-0.3V30l-1,0.3v3.1h-0.5v-3l-1.9,0.6v3h-0.5v-2.8l-1,0.3v-1.8l1-0.3V26l-1,0.3v-1.8
		l1-0.3v-3.1h0.5v3l1.9-0.6v-3H33.6z M33.1,25.3l-1.9,0.6v3.4l1.9-0.6V25.3z"/>
</g>
<polygon fill-rule="evenodd" clip-rule="evenodd" points="50,27.3 78.1,22.4 78.1,19.9 50,24.8 "/>
<polygon fill-rule="evenodd" clip-rule="evenodd" points="50,23.6 78.1,18.6 78.1,16.2 50,21.1 "/>
<polygon fill-rule="evenodd" clip-rule="evenodd" points="97.9,38.5 131.4,33.5 131.4,31 97.9,36 "/>
<polygon fill-rule="evenodd" clip-rule="evenodd" points="97.9,42.2 131.4,37.2 131.4,34.8 97.9,39.7 "/>
<polygon fill-rule="evenodd" clip-rule="evenodd" points="157.7,48.4 188.4,53.4 188.4,50.9 157.7,45.9 "/>
<polygon fill-rule="evenodd" clip-rule="evenodd" points="157.7,52.1 188.4,57.1 188.4,54.6 157.7,49.6 "/>
<polygon fill-rule="evenodd" clip-rule="evenodd" points="249.8,53.4 280.7,48.4 280.7,45.9 249.8,50.9 "/>
<polygon fill-rule="evenodd" clip-rule="evenodd" points="249.8,57.1 280.7,52.1 280.7,49.6 249.8,54.6 "/>
<g>
	<path d="M293.4,7.7c0-0.2,0.6-1.9,0.6-2.4c0-0.1,0-0.2-0.1-0.2c-0.1,0-0.3,0.2-0.6,0.4l-0.2-0.2c0.6-0.4,0.9-0.7,1.1-0.7
		c0.3,0,0.4,0.2,0.4,0.5c0,0.5-0.7,2.1-0.7,2.6c0,0.1,0.1,0.2,0.2,0.2c0.7,0,1.7-1.6,1.7-2.2V5.5c-0.1-0.1-0.4-0.3-0.4-0.6
		c0-0.2,0.1-0.3,0.4-0.3c0.3,0,0.5,0.3,0.5,0.8c0,1-1.2,2.8-2.1,2.8C293.6,8.3,293.4,8.1,293.4,7.7z M298.3,8c0,0,0.1-0.3,0.2-0.8
		c-0.6,0.7-1,1-1.4,1c-0.5,0-0.8-0.3-0.8-0.9c0-1.2,1-2.6,2.1-2.6c0.2,0,0.4,0.1,0.7,0.2l0.1-0.2l0.4,0c-0.5,2-0.7,3-0.7,3.1v0v0
		c0,0,0.3-0.2,0.7-0.5l0.1,0.2c-0.5,0.5-0.8,0.7-1,0.7C298.4,8.2,298.3,8.1,298.3,8z M296.8,7.3c0,0.3,0.1,0.4,0.2,0.4
		c0.5,0,1.5-0.9,1.6-1.3l0.3-1.1c-0.2-0.2-0.4-0.3-0.6-0.3C297.6,5,296.8,6.5,296.8,7.3z"/>
</g>
<g>
	<path d="M292.9,5.9c0,0.8-0.5,1.4-1.6,1.9c0.5,0.7,0.8,1.3,0.8,1.8c0,1.3-1,1.9-2.9,1.9c-1.4,0-2.6-0.8-2.6-2c0-0.9,0.7-1.5,2-2
		c-0.4-0.6-0.7-1.1-0.7-1.6c0-1.1,1.1-1.9,2.5-1.9C291.6,4,292.9,4.9,292.9,5.9z M287.5,9.7c0,0.8,0.9,1.4,1.7,1.4
		c0.8,0,1.4-0.3,1.4-0.9c0-0.7-0.2-0.9-1.7-2.4C288,8.4,287.5,9,287.5,9.7z M289.5,5.3c0,0.7,0.2,0.9,1.5,2.2c0.7-0.4,1-1,1-1.7
		c0-0.7-0.7-1.4-1.4-1.4C290,4.5,289.5,4.8,289.5,5.3z"/>
</g>
<rect x="328.6" y="4.7" width="0.8" height="7.8"/>
<path d="M329,5.4h-1.4V4.6h1.4V5.4z M325.2,5.4h-2.9V4.6h2.9V5.4z M319.7,5.4h-2.9V4.6h2.9V5.4z M314.3,5.4h-2.9V4.6h2.9V5.4z
	 M308.9,5.4h-2.9V4.6h2.9V5.4z M303.5,5.4h-2.9V4.6h2.9V5.4z"/>
<polygon fill-rule="evenodd" clip-rule="evenodd" points="289.7,48.4 316.9,43.4 316.9,41 289.7,45.9 "/>
<polygon fill-rule="evenodd" clip-rule="evenodd" points="289.7,52.1 316.9,47.2 316.9,44.7 289.7,49.6 "/>
<polygon fill-rule="evenodd" clip-rule="evenodd" points="326.9,43.4 355.7,48.4 355.7,45.9 326.9,41 "/>
<polygon fill-rule="evenodd" clip-rule="evenodd" points="326.9,47.2 355.7,52.1 355.7,49.6 326.9,44.7 "/>
<polygon fill-rule="evenodd" clip-rule="evenodd" points="404.1,48.4 432.9,43.4 432.9,41 404.1,45.9 "/>
<polygon fill-rule="evenodd" clip-rule="evenodd" points="404.1,52.1 432.9,47.2 432.9,44.7 404.1,49.6 "/>
<g>
	<path d="M446.6,3.6c0-0.2,0.6-1.9,0.6-2.4c0-0.1,0-0.2-0.1-0.2c-0.1,0-0.3,0.2-0.6,0.4l-0.2-0.2c0.6-0.4,0.9-0.7,1.1-0.7
		c0.3,0,0.4,0.2,0.4,0.5c0,0.5-0.7,2.1-0.7,2.6c0,0.1,0.1,0.2,0.2,0.2c0.7,0,1.7-1.6,1.7-2.2V1.4c-0.1-0.1-0.4-0.3-0.4-0.6
		c0-0.2,0.1-0.3,0.4-0.3c0.3,0,0.5,0.3,0.5,0.8c0,1-1.2,2.8-2.1,2.8C446.8,4.2,446.6,4,446.6,3.6z M451.5,4c0,0,0.1-0.3,0.2-0.8
		c-0.6,0.7-1,1-1.4,1c-0.5,0-0.8-0.3-0.8-0.9c0-1.2,1-2.6,2.1-2.6c0.2,0,0.4,0.1,0.7,0.2l0.1-0.2l0.4,0c-0.5,2-0.7,3-0.7,3.1v0v0
		c0,0,0.3-0.2,0.7-0.5l0.1,0.2c-0.5,0.5-0.8,0.7-1,0.7C451.5,4.2,451.5,4.1,451.5,4z M450,3.3c0,0.3,0.1,0.4,0.2,0.4
		c0.5,0,1.5-0.9,1.6-1.3l0.3-1.1c-0.2-0.2-0.4-0.3-0.6-0.3C450.8,1,450,2.4,450,3.3z"/>
</g>
<g>
	<path d="M446,1.9c0,0.8-0.5,1.4-1.6,1.9c0.5,0.7,0.8,1.3,0.8,1.8c0,1.3-1,1.9-2.9,1.9c-1.4,0-2.6-0.8-2.6-2c0-0.9,0.7-1.5,2-2
		c-0.4-0.6-0.7-1.1-0.7-1.6c0-1.1,1.1-1.9,2.5-1.9C444.8,0,446,0.9,446,1.9z M440.7,5.7c0,0.8,0.9,1.4,1.7,1.4
		c0.8,0,1.4-0.3,1.4-0.9c0-0.7-0.2-0.9-1.7-2.4C441.1,4.3,440.7,5,440.7,5.7z M442.6,1.3c0,0.7,0.2,0.9,1.5,2.2c0.7-0.4,1-1,1-1.7
		c0-0.7-0.7-1.4-1.4-1.4C443.2,0.4,442.6,0.8,442.6,1.3z"/>
</g>
<rect x="483.5" y="0.7" width="0.8" height="7.8"/>
<path d="M483.7,1.3h-2.9V0.6h2.9V1.3z M478.3,1.3h-2.9V0.6h2.9V1.3z M472.9,1.3h-2.9V0.6h2.9V1.3z M467.5,1.3h-2.9V0.6h2.9V1.3z
	 M462,1.3h-2.9V0.6h2.9V1.3z M456.6,1.3h-2.9V0.6h2.9V1.3z"/>
<polygon fill-rule="evenodd" clip-rule="evenodd" points="442.8,43.4 471.8,38.5 471.8,36 442.8,41 "/>
<polygon fill-rule="evenodd" clip-rule="evenodd" points="442.8,47.2 471.8,42.2 471.8,39.7 442.8,44.7 "/>
<polygon fill-rule="evenodd" clip-rule="evenodd" points="481.7,38.5 512.4,43.4 512.4,41 481.7,36 "/>
<polygon fill-rule="evenodd" clip-rule="evenodd" points="481.7,42.2 512.4,47.2 512.4,44.7 481.7,39.7 "/>
<rect x="8.6" y="96.4" width="544.4" height="0.5"/>
<rect x="8.6" y="91.4" width="544.4" height="0.5"/>
<rect x="8.6" y="86.4" width="544.4" height="0.5"/>
<rect x="8.6" y="81.5" width="544.4" height="0.5"/>
<rect x="8.6" y="76.5" width="544.4" height="0.5"/>
<g>
	<path d="M15.9,90.9c2.9-2.6,4.7-6.1,4.7-9.2c0-2.5-1.4-4.4-3.7-4.4c-1.6,0-3.4,1.3-3.4,2.7c0,0.2,0,0.3,0.1,0.3
		c-0.1,0,0.6-0.6,1.4-0.6c0.9,0,1.5,0.8,1.5,1.7c0,1.2-0.9,2.2-2.1,2.2c-1.2,0-2.1-1.3-2.1-2.8c0-2.3,2.3-4.1,4.8-4.1
		c4.7,0,5.9,3.2,5.9,5.8c0,1.6-0.4,2.9-2,5.3c-1.9,3.1-6.4,5.3-8.1,5.3c-0.4,0-0.6-0.2-0.6-0.5C14,92.2,15.1,91.6,15.9,90.9z
		 M25.8,78.2c0.6,0,1,0.4,1,1s-0.4,1-1,1s-1-0.4-1-1S25.3,78.2,25.8,78.2z M25.8,83.2c0.6,0,1,0.4,1,1s-0.4,1-1,1s-1-0.4-1-1
		S25.3,83.2,25.8,83.2z"/>
</g>
<g>
	<path d="M33.6,74.9v2.8l1-0.3v1.8l-1,0.3V83l1-0.3v1.8l-1,0.3v3.1h-0.5v-3l-1.9,0.6v3h-0.5v-2.8l-1,0.3v-1.8l1-0.3v-3.4l-1,0.3V79
		l1-0.3v-3.1h0.5v3l1.9-0.6v-3H33.6z M33.1,79.7l-1.9,0.6v3.4l1.9-0.6V79.7z"/>
</g>
<g>
	<path d="M91.7,95.2c-3.2,0-6.1-2.3-6.1-5.1c0-2.4,1.7-5,5.1-7.9c-0.2-0.9-0.3-1.8-0.3-2.7c0-2.6,0.9-5.1,2.4-6.3
		c1.4,1.9,2,3.7,2,5.3c0,2.2-1,4.2-3.2,6.1l0.7,3.1c0.4,0,0.6,0,0.6,0c2,0,3.6,1.5,3.6,3.5c0,1.4-1.1,2.8-2.7,3.6
		c0-0.1,0.6,2.8,0.6,3.3c0,1.9-1.7,3.2-3.7,3.2c-1.5,0-2.7-1-2.7-2.5c0-1.1,0.7-1.9,1.8-1.9c1,0,1.7,1,1.7,1.9c0,1-0.9,1.7-2,1.8
		c0.4,0.2,0.9,0.3,1.4,0.3c1.6,0,3.1-1.2,3.1-2.7c0-0.1,0-0.3,0-0.5l-0.6-2.8C93,95.1,92.4,95.2,91.7,95.2z M90.1,91.3
		c0,0.8,0.4,1.4,1.2,1.9c-1.3-0.2-2.2-1.1-2.2-2.3c0-1.5,1.3-2.8,2.9-3.1l-0.6-3c-2.8,2.1-4.3,4.1-4.3,6.1c0,2.2,2.1,4,4.5,4
		c0.7,0,1.3-0.1,1.8-0.4l-1.1-5.1C91,89.5,90.1,90.3,90.1,91.3z M93.1,75.3c-1.2,0-2.2,2.8-2.2,5.3c0,0.5,0,1,0.1,1.4
		c2-1.8,3-3.4,3-4.8c0-0.7-0.3-1.3-0.7-1.8C93.3,75.3,93.2,75.3,93.1,75.3z M95.2,91.7c0-1.2-0.9-2.4-2.2-2.4c0,0-0.2,0-0.4,0l1.1,5
		C94.7,93.6,95.2,92.7,95.2,91.7z"/>
</g>
<polygon fill-rule="evenodd" clip-rule="evenodd" points="43.5,97.8 71.5,92.9 71.5,90.4 43.5,95.4 "/>
<polygon fill-rule="evenodd" clip-rule="evenodd" points="43.5,101.6 71.5,96.6 71.5,94.1 43.5,99.1 "/>
<g>
	<path d="M146.3,88.6c2.2-2,3.6-4.6,3.6-6.9c0-1.9-1.1-3.3-2.8-3.3c-1.2,0-2.5,1-2.5,2.1c0,0.2,0,0.2,0.1,0.2c0,0,0.4-0.5,1-0.5
		c0.7,0,1.2,0.6,1.2,1.3c0,0.9-0.6,1.7-1.6,1.7c-0.9,0-1.5-1-1.5-2.1c0-1.8,1.7-3.1,3.6-3.1c3.5,0,4.4,2.4,4.4,4.4
		c0,1.2-0.3,2.2-1.5,4c-1.4,2.3-4.8,4-6,4c-0.3,0-0.5-0.1-0.5-0.3C144.9,89.6,145.7,89.2,146.3,88.6z M153.7,79.1
		c0.4,0,0.7,0.3,0.7,0.7c0,0.4-0.3,0.7-0.7,0.7s-0.7-0.3-0.7-0.7C153,79.4,153.3,79.1,153.7,79.1z M153.7,82.8
		c0.4,0,0.7,0.3,0.7,0.7s-0.3,0.7-0.7,0.7S153,84,153,83.6S153.3,82.8,153.7,82.8z"/>
</g>
<polygon fill-rule="evenodd" clip-rule="evenodd" points="97.9,101.6 131.4,99.1 131.4,96.6 97.9,99.1 "/>
<polygon fill-rule="evenodd" clip-rule="evenodd" points="97.9,105.3 131.4,102.8 131.4,100.3 97.9,102.8 "/>
<polygon fill-rule="evenodd" clip-rule="evenodd" points="157.7,87.9 188.4,92.9 188.4,90.4 157.7,85.4 "/>
<polygon fill-rule="evenodd" clip-rule="evenodd" points="157.7,91.6 188.4,96.6 188.4,94.1 157.7,89.2 "/>
<g>
	<path d="M230.9,95.2c-3.2,0-6.1-2.3-6.1-5.1c0-2.4,1.7-5,5.1-7.9c-0.2-0.9-0.3-1.8-0.3-2.7c0-2.6,0.9-5.1,2.4-6.3
		c1.4,1.9,2,3.7,2,5.3c0,2.2-1,4.2-3.2,6.1l0.7,3.1c0.4,0,0.6,0,0.6,0c2,0,3.6,1.5,3.6,3.5c0,1.4-1.1,2.8-2.7,3.6
		c0-0.1,0.6,2.8,0.6,3.3c0,1.9-1.7,3.2-3.7,3.2c-1.5,0-2.7-1-2.7-2.5c0-1.1,0.7-1.9,1.8-1.9c1,0,1.7,1,1.7,1.9c0,1-0.9,1.7-2,1.8
		c0.4,0.2,0.9,0.3,1.4,0.3c1.6,0,3.1-1.2,3.1-2.7c0-0.1,0-0.3,0-0.5l-0.6-2.8C232.2,95.1,231.6,95.2,230.9,95.2z M229.3,91.3
		c0,0.8,0.4,1.4,1.2,1.9c-1.3-0.2-2.2-1.1-2.2-2.3c0-1.5,1.3-2.8,2.9-3.1l-0.6-3c-2.8,2.1-4.3,4.1-4.3,6.1c0,2.2,2.1,4,4.5,4
		c0.7,0,1.3-0.1,1.8-0.4l-1.1-5.1C230.2,89.5,229.3,90.3,229.3,91.3z M232.3,75.3c-1.2,0-2.2,2.8-2.2,5.3c0,0.5,0,1,0.1,1.4
		c2-1.8,3-3.4,3-4.8c0-0.7-0.3-1.3-0.7-1.8C232.5,75.3,232.4,75.3,232.3,75.3z M234.4,91.7c0-1.2-0.9-2.4-2.2-2.4c0,0-0.2,0-0.4,0
		l1.1,5C233.9,93.6,234.4,92.7,234.4,91.7z"/>
</g>
<polygon fill-rule="evenodd" clip-rule="evenodd" points="256.3,87.9 287.2,83 287.2,80.5 256.3,85.4 "/>
<polygon fill-rule="evenodd" clip-rule="evenodd" points="256.3,84.2 287.2,79.2 287.2,76.8 256.3,81.7 "/>
<polygon fill-rule="evenodd" clip-rule="evenodd" points="289.7,97.8 316.9,92.9 316.9,90.4 289.7,95.4 "/>
<polygon fill-rule="evenodd" clip-rule="evenodd" points="289.7,101.6 316.9,96.6 316.9,94.1 289.7,99.1 "/>
<polygon fill-rule="evenodd" clip-rule="evenodd" points="333.4,78 362.2,83 362.2,80.5 333.4,75.5 "/>
<polygon fill-rule="evenodd" clip-rule="evenodd" points="333.4,74.3 362.2,79.2 362.2,76.8 333.4,71.8 "/>
<polygon fill-rule="evenodd" clip-rule="evenodd" points="410.6,83 439.4,78 439.4,75.5 410.6,80.5 "/>
<polygon fill-rule="evenodd" clip-rule="evenodd" points="410.6,79.2 439.4,74.3 439.4,71.8 410.6,76.8 "/>
<polygon fill-rule="evenodd" clip-rule="evenodd" points="442.8,92.9 471.8,87.9 471.8,85.4 442.8,90.4 "/>
<polygon fill-rule="evenodd" clip-rule="evenodd" points="442.8,96.6 471.8,91.6 471.8,89.2 442.8,94.1 "/>
<polygon fill-rule="evenodd" clip-rule="evenodd" points="488.2,71.8 518.9,76.8 518.9,74.3 488.2,69.3 "/>
<polygon fill-rule="evenodd" clip-rule="evenodd" points="488.2,68.1 518.9,73 518.9,70.6 488.2,65.6 "/>
<rect x="49.8" y="21.3" width="0.5" height="25.1"/>
<g>
	<path d="M43.3,48c0-1.8,2.5-3.5,4.5-3.5c1.3,0,2.3,0.7,2.3,1.7c0,1.7-2.5,3.5-4.6,3.5C44.3,49.7,43.3,49.1,43.3,48z"/>
</g>
<rect x="58.8" y="19.7" width="0.5" height="21.7"/>
<g>
	<path d="M52.3,43c0-1.8,2.5-3.5,4.5-3.5c1.3,0,2.3,0.7,2.3,1.7c0,1.7-2.5,3.5-4.6,3.5C53.3,44.8,52.3,44.1,52.3,43z"/>
</g>
<rect x="67.9" y="18.2" width="0.5" height="18.3"/>
<g>
	<path d="M61.5,38.1c0-1.8,2.5-3.5,4.5-3.5c1.3,0,2.3,0.7,2.3,1.7c0,1.7-2.5,3.5-4.6,3.5C62.4,39.8,61.5,39.2,61.5,38.1z"/>
</g>
<rect x="77.8" y="16.3" width="0.5" height="12.7"/>
<g>
	<path d="M71.4,30.6c0-1.8,2.5-3.5,4.5-3.5c1.3,0,2.3,0.7,2.3,1.7c0,1.7-2.5,3.5-4.6,3.5C72.4,32.4,71.4,31.7,71.4,30.6z"/>
</g>
<rect x="97.7" y="25.6" width="0.5" height="16.4"/>
<g>
	<path d="M97.7,25.7c0-1.8,2.5-3.5,4.5-3.5c1.3,0,2.3,0.7,2.3,1.7c0,1.7-2.5,3.5-4.6,3.5C98.7,27.4,97.7,26.8,97.7,25.7z"/>
</g>
<rect x="105.8" y="22" width="10.5" height="0.8"/>
<rect x="107.6" y="20.6" width="0.5" height="20"/>
<g>
	<path d="M107.7,20.7c0-1.8,2.5-3.5,4.5-3.5c1.3,0,2.3,0.7,2.3,1.7c0,1.7-2.5,3.5-4.6,3.5C108.6,22.5,107.7,21.8,107.7,20.7z"/>
</g>
<rect x="117.6" y="22" width="10.5" height="0.8"/>
<rect x="117.6" y="17" width="10.5" height="0.8"/>
<rect x="117.6" y="12" width="10.5" height="0.8"/>
<rect x="119.4" y="13.2" width="0.5" height="25.7"/>
<g>
	<path d="M119.4,13.3c0-1.8,2.5-3.5,4.5-3.5c1.3,0,2.3,0.7,2.3,1.7c0,1.7-2.5,3.5-4.6,3.5C120.4,15,119.4,14.4,119.4,13.3z"/>
</g>
<rect x="129.4" y="22" width="10.5" height="0.8"/>
<rect x="131.2" y="20.6" width="0.5" height="16.4"/>
<g>
	<path d="M131.2,20.7c0-1.8,2.5-3.5,4.5-3.5c1.3,0,2.3,0.7,2.3,1.7c0,1.7-2.5,3.5-4.6,3.5C132.2,22.5,131.2,21.8,131.2,20.7z"/>
</g>
<rect x="157.5" y="25.6" width="0.5" height="26.4"/>
<g>
	<path d="M157.6,25.7c0-1.8,2.5-3.5,4.5-3.5c1.3,0,2.3,0.7,2.3,1.7c0,1.7-2.5,3.5-4.6,3.5C158.6,27.4,157.6,26.8,157.6,25.7z"/>
</g>
<rect x="169.3" y="30.6" width="0.5" height="23.3"/>
<g>
	<path d="M169.4,30.6c0-1.8,2.5-3.5,4.5-3.5c1.3,0,2.3,0.7,2.3,1.7c0,1.7-2.5,3.5-4.6,3.5C170.3,32.4,169.4,31.7,169.4,30.6z"/>
</g>
<rect x="179.2" y="38" width="0.5" height="17.4"/>
<g>
	<path d="M179.3,38.1c0-1.8,2.5-3.5,4.5-3.5c1.3,0,2.3,0.7,2.3,1.7c0,1.7-2.5,3.5-4.6,3.5C180.3,39.8,179.3,39.2,179.3,38.1z"/>
</g>
<rect x="188.2" y="43" width="0.5" height="14"/>
<g>
	<path d="M188.3,43c0-1.8,2.5-3.5,4.5-3.5c1.3,0,2.3,0.7,2.3,1.7c0,1.7-2.5,3.5-4.6,3.5C189.2,44.8,188.3,44.1,188.3,43z"/>
</g>
<rect x="204" y="29.8" width="0.5" height="16.6"/>
<g>
	<path d="M201.7,44.5c1.6,0,2.7,0.7,2.7,2c0,1.9-2.3,3.4-4.5,3.4c-1.3,0-2.4-0.7-2.4-1.8C197.4,46.2,199.7,44.5,201.7,44.5z
		 M197.9,48.3c0,0.6,0.4,0.9,1.1,0.9c1.4,0,4.9-2.1,4.9-3.3c0-0.6-0.4-0.9-1.1-0.9C201.5,45.1,197.9,47.1,197.9,48.3z"/>
</g>
<rect x="249.6" y="43" width="0.5" height="14"/>
<g>
	<path d="M249.7,43c0-1.8,2.5-3.5,4.5-3.5c1.3,0,2.3,0.7,2.3,1.7c0,1.7-2.5,3.5-4.6,3.5C250.6,44.8,249.7,44.1,249.7,43z"/>
</g>
<rect x="261.4" y="38" width="0.5" height="17.1"/>
<g>
	<path d="M261.4,38.1c0-1.8,2.5-3.5,4.5-3.5c1.3,0,2.3,0.7,2.3,1.7c0,1.7-2.5,3.5-4.6,3.5C262.4,39.8,261.4,39.2,261.4,38.1z"/>
</g>
<rect x="271.3" y="30.6" width="0.5" height="22.9"/>
<g>
	<path d="M271.4,30.6c0-1.8,2.5-3.5,4.5-3.5c1.3,0,2.3,0.7,2.3,1.7c0,1.7-2.5,3.5-4.6,3.5C272.3,32.4,271.4,31.7,271.4,30.6z"/>
</g>
<rect x="280.4" y="25.6" width="0.5" height="26.4"/>
<g>
	<path d="M280.5,25.7c0-1.8,2.5-3.5,4.5-3.5c1.3,0,2.3,0.7,2.3,1.7c0,1.7-2.5,3.5-4.6,3.5C281.5,27.4,280.5,26.8,280.5,25.7z"/>
</g>
<rect x="289.4" y="38" width="0.5" height="14"/>
<g>
	<path d="M289.5,38.1c0-1.8,2.5-3.5,4.5-3.5c1.3,0,2.3,0.7,2.3,1.7c0,1.7-2.5,3.5-4.6,3.5C290.5,39.8,289.5,39.2,289.5,38.1z"/>
</g>
<rect x="298.6" y="30.6" width="0.5" height="19.8"/>
<g>
	<path d="M298.6,30.6c0-1.8,2.5-3.5,4.5-3.5c1.3,0,2.3,0.7,2.3,1.7c0,1.7-2.5,3.5-4.6,3.5C299.6,32.4,298.6,31.7,298.6,30.6z"/>
</g>
<rect x="307.6" y="25.6" width="0.5" height="23.1"/>
<g>
	<path d="M307.6,25.7c0-1.8,2.5-3.5,4.5-3.5c1.3,0,2.3,0.7,2.3,1.7c0,1.7-2.5,3.5-4.6,3.5C308.6,27.4,307.6,26.8,307.6,25.7z"/>
</g>
<rect x="316.7" y="30.6" width="0.5" height="16.4"/>
<g>
	<path d="M316.8,30.6c0-1.8,2.5-3.5,4.5-3.5c1.3,0,2.3,0.7,2.3,1.7c0,1.7-2.5,3.5-4.6,3.5C317.8,32.4,316.8,31.7,316.8,30.6z"/>
</g>
<rect x="324.8" y="22" width="10.5" height="0.8"/>
<rect x="326.6" y="20.6" width="0.5" height="26.4"/>
<g>
	<path d="M326.7,20.7c0-1.8,2.5-3.5,4.5-3.5c1.3,0,2.3,0.7,2.3,1.7c0,1.7-2.5,3.5-4.6,3.5C327.7,22.5,326.7,21.8,326.7,20.7z"/>
</g>
<rect x="336.5" y="25.6" width="0.5" height="23.1"/>
<g>
	<path d="M336.6,25.7c0-1.8,2.5-3.5,4.5-3.5c1.3,0,2.3,0.7,2.3,1.7c0,1.7-2.5,3.5-4.6,3.5C337.6,27.4,336.6,26.8,336.6,25.7z"/>
</g>
<rect x="345.5" y="30.6" width="0.5" height="19.5"/>
<g>
	<path d="M345.6,30.6c0-1.8,2.5-3.5,4.5-3.5c1.3,0,2.3,0.7,2.3,1.7c0,1.7-2.5,3.5-4.6,3.5C346.6,32.4,345.6,31.7,345.6,30.6z"/>
</g>
<rect x="355.5" y="38" width="0.5" height="14"/>
<g>
	<path d="M355.5,38.1c0-1.8,2.5-3.5,4.5-3.5c1.3,0,2.3,0.7,2.3,1.7c0,1.7-2.5,3.5-4.6,3.5C356.5,39.8,355.5,39.2,355.5,38.1z"/>
</g>
<rect x="373.9" y="24.8" width="0.5" height="16.6"/>
<g>
	<path d="M371.6,39.5c1.6,0,2.7,0.7,2.7,2c0,1.9-2.3,3.4-4.5,3.4c-1.3,0-2.4-0.7-2.4-1.8C367.3,41.3,369.6,39.5,371.6,39.5z
		 M367.8,43.3c0,0.6,0.4,0.9,1.1,0.9c1.4,0,4.9-2.1,4.9-3.3c0-0.6-0.4-0.9-1.1-0.9C371.4,40.1,367.8,42.1,367.8,43.3z"/>
</g>
<rect x="403.8" y="38" width="0.5" height="14"/>
<g>
	<path d="M403.9,38.1c0-1.8,2.5-3.5,4.5-3.5c1.3,0,2.3,0.7,2.3,1.7c0,1.7-2.5,3.5-4.6,3.5C404.9,39.8,403.9,39.2,403.9,38.1z"/>
</g>
<rect x="413.7" y="30.6" width="0.5" height="19.7"/>
<g>
	<path d="M413.8,30.6c0-1.8,2.5-3.5,4.5-3.5c1.3,0,2.3,0.7,2.3,1.7c0,1.7-2.5,3.5-4.6,3.5C414.8,32.4,413.8,31.7,413.8,30.6z"/>
</g>
<rect x="422.7" y="25.6" width="0.5" height="23.3"/>
<g>
	<path d="M422.8,25.7c0-1.8,2.5-3.5,4.5-3.5c1.3,0,2.3,0.7,2.3,1.7c0,1.7-2.5,3.5-4.6,3.5C423.8,27.4,422.8,26.8,422.8,25.7z"/>
</g>
<rect x="430.9" y="22" width="10.5" height="0.8"/>
<rect x="432.7" y="20.6" width="0.5" height="26.4"/>
<g>
	<path d="M432.7,20.7c0-1.8,2.5-3.5,4.5-3.5c1.3,0,2.3,0.7,2.3,1.7c0,1.7-2.5,3.5-4.6,3.5C433.7,22.5,432.7,21.8,432.7,20.7z"/>
</g>
<rect x="442.6" y="30.6" width="0.5" height="16.4"/>
<g>
	<path d="M442.7,30.6c0-1.8,2.5-3.5,4.5-3.5c1.3,0,2.3,0.7,2.3,1.7c0,1.7-2.5,3.5-4.6,3.5C443.6,32.4,442.7,31.7,442.7,30.6z"/>
</g>
<rect x="451.7" y="25.6" width="0.5" height="19.8"/>
<g>
	<path d="M451.8,25.7c0-1.8,2.5-3.5,4.5-3.5c1.3,0,2.3,0.7,2.3,1.7c0,1.7-2.5,3.5-4.6,3.5C452.8,27.4,451.8,26.8,451.8,25.7z"/>
</g>
<rect x="459.9" y="22" width="10.5" height="0.8"/>
<rect x="461.6" y="20.6" width="0.5" height="23.1"/>
<g>
	<path d="M461.7,20.7c0-1.8,2.5-3.5,4.5-3.5c1.3,0,2.3,0.7,2.3,1.7c0,1.7-2.5,3.5-4.6,3.5C462.7,22.5,461.7,21.8,461.7,20.7z"/>
</g>
<rect x="471.6" y="25.6" width="0.5" height="16.4"/>
<g>
	<path d="M471.6,25.7c0-1.8,2.5-3.5,4.5-3.5c1.3,0,2.3,0.7,2.3,1.7c0,1.7-2.5,3.5-4.6,3.5C472.6,27.4,471.6,26.8,471.6,25.7z"/>
</g>
<rect x="479.7" y="22" width="10.5" height="0.8"/>
<rect x="479.7" y="17" width="10.5" height="0.8"/>
<rect x="479.7" y="12" width="10.5" height="0.8"/>
<rect x="481.5" y="13.2" width="0.5" height="28.8"/>
<g>
	<path d="M481.6,13.3c0-1.8,2.5-3.5,4.5-3.5c1.3,0,2.3,0.7,2.3,1.7c0,1.7-2.5,3.5-4.6,3.5C482.5,15,481.6,14.4,481.6,13.3z"/>
</g>
<rect x="491.5" y="22" width="10.5" height="0.8"/>
<rect x="493.3" y="20.6" width="0.5" height="23.3"/>
<g>
	<path d="M493.3,20.7c0-1.8,2.5-3.5,4.5-3.5c1.3,0,2.3,0.7,2.3,1.7c0,1.7-2.5,3.5-4.6,3.5C494.3,22.5,493.3,21.8,493.3,20.7z"/>
</g>
<rect x="503.2" y="25.6" width="0.5" height="19.8"/>
<g>
	<path d="M503.3,25.7c0-1.8,2.5-3.5,4.5-3.5c1.3,0,2.3,0.7,2.3,1.7c0,1.7-2.5,3.5-4.6,3.5C504.2,27.4,503.3,26.8,503.3,25.7z"/>
</g>
<rect x="512.2" y="30.6" width="0.5" height="16.4"/>
<g>
	<path d="M512.3,30.6c0-1.8,2.5-3.5,4.5-3.5c1.3,0,2.3,0.7,2.3,1.7c0,1.7-2.5,3.5-4.6,3.5C513.2,32.4,512.3,31.7,512.3,30.6z"/>
</g>
<rect x="522.1" y="38" width="0.5" height="16.6"/>
<g>
	<path d="M526.4,34.5c1.6,0,2.7,0.7,2.7,2c0,1.9-2.3,3.4-4.5,3.4c-1.3,0-2.4-0.7-2.4-1.8C522.2,36.3,524.4,34.5,526.4,34.5z
		 M522.6,38.4c0,0.6,0.4,0.9,1.1,0.9c1.4,0,4.9-2.1,4.9-3.3c0-0.6-0.4-0.9-1.1-0.9C526.3,35.1,522.6,37.2,522.6,38.4z"/>
</g>
<rect x="43.3" y="85" width="0.5" height="16.4"/>
<g>
	<path d="M43.3,85.1c0-1.8,2.5-3.5,4.5-3.5c1.3,0,2.3,0.7,2.3,1.7c0,1.7-2.5,3.5-4.6,3.5C44.3,86.8,43.3,86.1,43.3,85.1z"/>
</g>
<rect x="52.2" y="80" width="0.5" height="19.8"/>
<g>
	<path d="M52.3,80.1c0-1.8,2.5-3.5,4.5-3.5c1.3,0,2.3,0.7,2.3,1.7c0,1.7-2.5,3.5-4.6,3.5C53.3,81.8,52.3,81.2,52.3,80.1z"/>
</g>
<rect x="61.4" y="75.1" width="0.5" height="23.3"/>
<g>
	<path d="M61.5,75.1c0-1.8,2.5-3.5,4.5-3.5c1.3,0,2.3,0.7,2.3,1.7c0,1.7-2.5,3.5-4.6,3.5C62.4,76.9,61.5,76.2,61.5,75.1z"/>
</g>
<rect x="69.5" y="71.4" width="10.5" height="0.8"/>
<rect x="69.5" y="66.5" width="10.5" height="0.8"/>
<rect x="71.3" y="67.6" width="0.5" height="28.8"/>
<g>
	<path d="M71.4,67.7c0-1.8,2.5-3.5,4.5-3.5c1.3,0,2.3,0.7,2.3,1.7c0,1.7-2.5,3.5-4.6,3.5C72.4,69.4,71.4,68.8,71.4,67.7z"/>
</g>
<rect x="97.7" y="92.4" width="0.5" height="12.7"/>
<g>
	<path d="M97.7,92.5c0-1.8,2.5-3.5,4.5-3.5c1.3,0,2.3,0.7,2.3,1.7c0,1.7-2.5,3.5-4.6,3.5C98.7,94.2,97.7,93.6,97.7,92.5z"/>
</g>
<rect x="107.6" y="87.5" width="0.5" height="17.1"/>
<g>
	<path d="M107.7,87.5c0-1.8,2.5-3.5,4.5-3.5c1.3,0,2.3,0.7,2.3,1.7c0,1.7-2.5,3.5-4.6,3.5C108.6,89.3,107.7,88.6,107.7,87.5z"/>
</g>
<rect x="119.4" y="80" width="0.5" height="23.6"/>
<g>
	<path d="M119.4,80.1c0-1.8,2.5-3.5,4.5-3.5c1.3,0,2.3,0.7,2.3,1.7c0,1.7-2.5,3.5-4.6,3.5C120.4,81.8,119.4,81.2,119.4,80.1z"/>
</g>
<rect x="131.2" y="87.5" width="0.5" height="15.2"/>
<g>
	<path d="M131.2,87.5c0-1.8,2.5-3.5,4.5-3.5c1.3,0,2.3,0.7,2.3,1.7c0,1.7-2.5,3.5-4.6,3.5C132.2,89.3,131.2,88.6,131.2,87.5z"/>
</g>
<rect x="155.7" y="71.4" width="10.5" height="0.8"/>
<rect x="155.7" y="66.5" width="10.5" height="0.8"/>
<rect x="155.7" y="61.5" width="10.5" height="0.8"/>
<rect x="157.5" y="62.7" width="0.5" height="28.8"/>
<g>
	<path d="M157.6,62.7c0-1.8,2.5-3.5,4.5-3.5c1.3,0,2.3,0.7,2.3,1.7c0,1.7-2.5,3.5-4.6,3.5C158.6,64.5,157.6,63.8,157.6,62.7z"/>
</g>
<rect x="167.5" y="71.4" width="10.5" height="0.8"/>
<rect x="167.5" y="66.5" width="10.5" height="0.8"/>
<rect x="169.3" y="67.6" width="0.5" height="25.7"/>
<g>
	<path d="M169.4,67.7c0-1.8,2.5-3.5,4.5-3.5c1.3,0,2.3,0.7,2.3,1.7c0,1.7-2.5,3.5-4.6,3.5C170.3,69.4,169.4,68.8,169.4,67.7z"/>
</g>
<rect x="179.2" y="75.1" width="0.5" height="19.8"/>
<g>
	<path d="M179.3,75.1c0-1.8,2.5-3.5,4.5-3.5c1.3,0,2.3,0.7,2.3,1.7c0,1.7-2.5,3.5-4.6,3.5C180.3,76.9,179.3,76.2,179.3,75.1z"/>
</g>
<rect x="188.2" y="80" width="0.5" height="16.4"/>
<g>
	<path d="M188.3,80.1c0-1.8,2.5-3.5,4.5-3.5c1.3,0,2.3,0.7,2.3,1.7c0,1.7-2.5,3.5-4.6,3.5C189.2,81.8,188.3,81.2,188.3,80.1z"/>
</g>
<rect x="197.3" y="85" width="0.5" height="16.6"/>
<g>
	<path d="M201.7,81.5c1.6,0,2.7,0.7,2.7,2c0,1.9-2.3,3.4-4.5,3.4c-1.3,0-2.4-0.7-2.4-1.8C197.4,83.3,199.7,81.5,201.7,81.5z
		 M197.9,85.4c0,0.6,0.4,0.9,1.1,0.9c1.4,0,4.9-2.1,4.9-3.3c0-0.6-0.4-0.9-1.1-0.9C201.5,82.1,197.9,84.1,197.9,85.4z"/>
</g>
<rect x="247.8" y="101.2" width="10.5" height="0.8"/>
<rect x="247.8" y="106.1" width="10.5" height="0.8"/>
<rect x="256.1" y="81.9" width="0.5" height="26.4"/>
<g>
	<path d="M249.7,109.9c0-1.8,2.5-3.5,4.5-3.5c1.3,0,2.3,0.7,2.3,1.7c0,1.7-2.5,3.5-4.6,3.5C250.6,111.6,249.7,110.9,249.7,109.9z"/>
</g>
<rect x="259.6" y="101.2" width="10.5" height="0.8"/>
<rect x="267.9" y="80" width="0.5" height="23.3"/>
<g>
	<path d="M261.4,104.9c0-1.8,2.5-3.5,4.5-3.5c1.3,0,2.3,0.7,2.3,1.7c0,1.7-2.5,3.5-4.6,3.5C262.4,106.6,261.4,106,261.4,104.9z"/>
</g>
<rect x="277.8" y="78.5" width="0.5" height="17.4"/>
<g>
	<path d="M271.4,97.5c0-1.8,2.5-3.5,4.5-3.5c1.3,0,2.3,0.7,2.3,1.7c0,1.7-2.5,3.5-4.6,3.5C272.3,99.2,271.4,98.5,271.4,97.5z"/>
</g>
<rect x="286.9" y="76.9" width="0.5" height="14"/>
<g>
	<path d="M280.5,92.5c0-1.8,2.5-3.5,4.5-3.5c1.3,0,2.3,0.7,2.3,1.7c0,1.7-2.5,3.5-4.6,3.5C281.5,94.2,280.5,93.6,280.5,92.5z"/>
</g>
<rect x="289.4" y="87.5" width="0.5" height="14"/>
<g>
	<path d="M289.5,87.5c0-1.8,2.5-3.5,4.5-3.5c1.3,0,2.3,0.7,2.3,1.7c0,1.7-2.5,3.5-4.6,3.5C290.5,89.3,289.5,88.6,289.5,87.5z"/>
</g>
<rect x="298.6" y="80" width="0.5" height="19.8"/>
<g>
	<path d="M298.6,80.1c0-1.8,2.5-3.5,4.5-3.5c1.3,0,2.3,0.7,2.3,1.7c0,1.7-2.5,3.5-4.6,3.5C299.6,81.8,298.6,81.2,298.6,80.1z"/>
</g>
<rect x="307.6" y="75.1" width="0.5" height="23.1"/>
<g>
	<path d="M307.6,75.1c0-1.8,2.5-3.5,4.5-3.5c1.3,0,2.3,0.7,2.3,1.7c0,1.7-2.5,3.5-4.6,3.5C308.6,76.9,307.6,76.2,307.6,75.1z"/>
</g>
<rect x="316.7" y="80" width="0.5" height="16.4"/>
<g>
	<path d="M316.8,80.1c0-1.8,2.5-3.5,4.5-3.5c1.3,0,2.3,0.7,2.3,1.7c0,1.7-2.5,3.5-4.6,3.5C317.8,81.8,316.8,81.2,316.8,80.1z"/>
</g>
<rect x="333.1" y="72" width="0.5" height="14"/>
<g>
	<path d="M326.7,87.5c0-1.8,2.5-3.5,4.5-3.5c1.3,0,2.3,0.7,2.3,1.7c0,1.7-2.5,3.5-4.6,3.5C327.7,89.3,326.7,88.6,326.7,87.5z"/>
</g>
<rect x="343.1" y="73.7" width="0.5" height="17.2"/>
<g>
	<path d="M336.6,92.5c0-1.8,2.5-3.5,4.5-3.5c1.3,0,2.3,0.7,2.3,1.7c0,1.7-2.5,3.5-4.6,3.5C337.6,94.2,336.6,93.6,336.6,92.5z"/>
</g>
<rect x="352" y="75.1" width="0.5" height="20.8"/>
<g>
	<path d="M345.6,97.5c0-1.8,2.5-3.5,4.5-3.5c1.3,0,2.3,0.7,2.3,1.7c0,1.7-2.5,3.5-4.6,3.5C346.6,99.2,345.6,98.5,345.6,97.5z"/>
</g>
<rect x="353.7" y="101.2" width="10.5" height="0.8"/>
<rect x="362" y="76.9" width="0.5" height="26.4"/>
<g>
	<path d="M355.5,104.9c0-1.8,2.5-3.5,4.5-3.5c1.3,0,2.3,0.7,2.3,1.7c0,1.7-2.5,3.5-4.6,3.5C356.5,106.6,355.5,106,355.5,104.9z"/>
</g>
<rect x="365.5" y="101.2" width="10.7" height="0.8"/>
<rect x="365.5" y="106.1" width="10.7" height="0.8"/>
<rect x="373.9" y="86.7" width="0.5" height="21.5"/>
<g>
	<path d="M371.6,106.3c1.6,0,2.7,0.7,2.7,2c0,1.9-2.3,3.4-4.5,3.4c-1.3,0-2.4-0.7-2.4-1.8C367.3,108.1,369.6,106.3,371.6,106.3z
		 M367.8,110.2c0,0.6,0.4,0.9,1.1,0.9c1.4,0,4.9-2.1,4.9-3.3c0-0.6-0.4-0.9-1.1-0.9C371.4,106.9,367.8,108.9,367.8,110.2z"/>
</g>
<rect x="402" y="101.2" width="10.5" height="0.8"/>
<rect x="410.3" y="76.9" width="0.5" height="26.4"/>
<g>
	<path d="M403.9,104.9c0-1.8,2.5-3.5,4.5-3.5c1.3,0,2.3,0.7,2.3,1.7c0,1.7-2.5,3.5-4.6,3.5C404.9,106.6,403.9,106,403.9,104.9z"/>
</g>
<rect x="420.3" y="75.2" width="0.5" height="20.6"/>
<g>
	<path d="M413.8,97.5c0-1.8,2.5-3.5,4.5-3.5c1.3,0,2.3,0.7,2.3,1.7c0,1.7-2.5,3.5-4.6,3.5C414.8,99.2,413.8,98.5,413.8,97.5z"/>
</g>
<rect x="429.2" y="73.8" width="0.5" height="17.1"/>
<g>
	<path d="M422.8,92.5c0-1.8,2.5-3.5,4.5-3.5c1.3,0,2.3,0.7,2.3,1.7c0,1.7-2.5,3.5-4.6,3.5C423.8,94.2,422.8,93.6,422.8,92.5z"/>
</g>
<rect x="439.2" y="72" width="0.5" height="14"/>
<g>
	<path d="M432.7,87.5c0-1.8,2.5-3.5,4.5-3.5c1.3,0,2.3,0.7,2.3,1.7c0,1.7-2.5,3.5-4.6,3.5C433.7,89.3,432.7,88.6,432.7,87.5z"/>
</g>
<rect x="442.6" y="80" width="0.5" height="16.4"/>
<g>
	<path d="M442.7,80.1c0-1.8,2.5-3.5,4.5-3.5c1.3,0,2.3,0.7,2.3,1.7c0,1.7-2.5,3.5-4.6,3.5C443.6,81.8,442.7,81.2,442.7,80.1z"/>
</g>
<rect x="451.7" y="75.1" width="0.5" height="19.8"/>
<g>
	<path d="M451.8,75.1c0-1.8,2.5-3.5,4.5-3.5c1.3,0,2.3,0.7,2.3,1.7c0,1.7-2.5,3.5-4.6,3.5C452.8,76.9,451.8,76.2,451.8,75.1z"/>
</g>
<rect x="459.9" y="71.4" width="10.5" height="0.8"/>
<rect x="461.6" y="70.1" width="0.5" height="23.1"/>
<g>
	<path d="M461.7,70.2c0-1.8,2.5-3.5,4.5-3.5c1.3,0,2.3,0.7,2.3,1.7c0,1.7-2.5,3.5-4.6,3.5C462.7,71.9,461.7,71.3,461.7,70.2z"/>
</g>
<rect x="471.6" y="75.1" width="0.5" height="16.4"/>
<g>
	<path d="M471.6,75.1c0-1.8,2.5-3.5,4.5-3.5c1.3,0,2.3,0.7,2.3,1.7c0,1.7-2.5,3.5-4.6,3.5C472.6,76.9,471.6,76.2,471.6,75.1z"/>
</g>
<rect x="488" y="65.8" width="0.5" height="12.7"/>
<g>
	<path d="M481.6,80.1c0-1.8,2.5-3.5,4.5-3.5c1.3,0,2.3,0.7,2.3,1.7c0,1.7-2.5,3.5-4.6,3.5C482.5,81.8,481.6,81.2,481.6,80.1z"/>
</g>
<rect x="499.8" y="67.6" width="0.5" height="18.3"/>
<g>
	<path d="M493.3,87.5c0-1.8,2.5-3.5,4.5-3.5c1.3,0,2.3,0.7,2.3,1.7c0,1.7-2.5,3.5-4.6,3.5C494.3,89.3,493.3,88.6,493.3,87.5z"/>
</g>
<rect x="509.7" y="69.2" width="0.5" height="21.7"/>
<g>
	<path d="M503.3,92.5c0-1.8,2.5-3.5,4.5-3.5c1.3,0,2.3,0.7,2.3,1.7c0,1.7-2.5,3.5-4.6,3.5C504.2,94.2,503.3,93.6,503.3,92.5z"/>
</g>
<rect x="518.7" y="70.7" width="0.5" height="25.1"/>
<g>
	<path d="M512.3,97.5c0-1.8,2.5-3.5,4.5-3.5c1.3,0,2.3,0.7,2.3,1.7c0,1.7-2.5,3.5-4.6,3.5C513.2,99.2,512.3,98.5,512.3,97.5z"/>
</g>
<rect x="520.3" y="101.2" width="10.7" height="0.8"/>
<rect x="528.8" y="86.7" width="0.5" height="16.6"/>
<g>
	<path d="M526.4,101.3c1.6,0,2.7,0.7,2.7,2c0,1.9-2.3,3.4-4.5,3.4c-1.3,0-2.4-0.7-2.4-1.8C522.2,103.1,524.4,101.3,526.4,101.3z
		 M522.6,105.2c0,0.6,0.4,0.9,1.1,0.9c1.4,0,4.9-2.1,4.9-3.3c0-0.6-0.4-0.9-1.1-0.9C526.3,101.9,522.6,104,522.6,105.2z"/>
</g>
</svg>
