<?xml version="1.0" encoding="utf-8"?>

<!--
	ScaleBook
	Copyright (c) Leland Jansen 2015. All rights reserved.
-->

<!DOCTYPE svg PUBLIC "-//W3C//DTD SVG 1.1//EN" "http://www.w3.org/Graphics/SVG/1.1/DTD/svg11.dtd">
<svg version="1.1" id="Layer_1" xmlns="http://www.w3.org/2000/svg" xmlns:xlink="http://www.w3.org/1999/xlink" x="0px" y="0px"
	 viewBox="0 0 553 91.6" enable-background="new 0 0 553 91.6" xml:space="preserve">
<rect x="8.5" y="12.5" width="0.8" height="68"/>
<g>
	<path d="M7.6,13.2c-2,1.1-3.7,5.9-3.7,9.6c0,2.3,1.4,10.1,1.4,12.5c0,5-1.6,8.8-4.7,11.3c3.1,2.5,4.7,6.2,4.7,11.2
		c0,2.3-1.4,10.1-1.4,12.5c0,3.9,1.8,8.6,3.7,9.7v0.7C4,78.3,1.7,72.2,1.7,67.3c0-2.2,1.8-9.5,1.8-11.7c0-3.9-1-6.7-3-8.4
		C0.1,46.9,0,46.7,0,46.5s0.1-0.4,0.5-0.7c2-1.7,3-4.3,3-7.7C3.4,36,1.7,28,1.7,25.8c0-5.2,2.1-10.5,5.9-13.3V13.2z"/>
</g>
<rect x="198" y="12.5" width="0.8" height="68"/>
<rect x="200.6" y="12.5" width="0.8" height="68"/>
<rect x="372" y="12.5" width="0.8" height="68"/>
<rect x="374.7" y="12.5" width="0.8" height="68"/>
<rect x="548" y="12.5" width="0.8" height="68"/>
<rect x="550.5" y="12.5" width="2.5" height="68"/>
<rect x="8.6" y="32.1" width="544.4" height="0.5"/>
<rect x="8.6" y="27.2" width="544.4" height="0.5"/>
<rect x="8.6" y="22.2" width="544.4" height="0.5"/>
<rect x="8.6" y="17.2" width="544.4" height="0.5"/>
<rect x="8.6" y="12.3" width="544.4" height="0.5"/>
<g>
	<path d="M20.4,32.2c-4.2,0-8.1-3.1-8.1-6.9c0-3.2,2.3-6.7,6.8-10.5c-0.3-1.2-0.4-2.4-0.4-3.6c0-3.5,1.2-6.8,3.2-8.5
		c1.8,2.5,2.7,4.9,2.7,7.1c0,2.9-1.3,5.6-4.3,8.1l0.9,4.2c0.5,0,0.8-0.1,0.8-0.1c2.6,0,4.8,2,4.8,4.7c0,1.9-1.4,3.7-3.6,4.8
		c0-0.1,0.9,3.8,0.9,4.3c0,2.5-2.3,4.2-4.9,4.2c-2,0-3.6-1.3-3.6-3.4c0-1.4,1-2.6,2.4-2.6c1.3,0,2.3,1.3,2.3,2.5
		c0,1.4-1.2,2.3-2.7,2.5c0.6,0.3,1.2,0.5,1.9,0.5c2.1,0,4.1-1.6,4.1-3.6c0-0.2,0-0.4-0.1-0.6l-0.8-3.7
		C22.1,32.1,21.4,32.2,20.4,32.2z M18.2,27c0,1,0.5,1.9,1.6,2.5c-1.8-0.3-3-1.4-3-3.1c0-2,1.7-3.7,3.8-4.1l-0.8-4
		c-3.7,2.8-5.7,5.5-5.7,8.1c0,2.9,2.8,5.3,6,5.3c0.9,0,1.7-0.2,2.4-0.5l-1.4-6.8C19.5,24.6,18.2,25.6,18.2,27z M22.3,5.6
		c-1.6,0-2.9,3.7-2.9,7c0,0.7,0,1.3,0.2,1.9c2.7-2.4,4-4.5,4-6.5c0-0.9-0.3-1.7-1-2.4C22.5,5.7,22.4,5.6,22.3,5.6z M25,27.5
		c0-1.6-1.2-3.3-2.9-3.3c-0.1,0-0.2,0-0.5,0l1.4,6.6C24.4,30,25,28.8,25,27.5z"/>
</g>
<g>
	<path d="M29.7,14.1h0.6l-0.1,6.2c0.4-0.7,1-1,1.8-1c1.2,0,2.2,0.8,2.2,1.9c0,0.8-0.5,1.8-1.7,2.7l-2.8,2.1V14.1z M30.3,21
		c-0.1,0.8-0.1,1.4-0.1,1.9c0,1,0,1.6,0.1,2c1-0.7,2.4-2.6,2.4-3.7c0-0.6-0.5-1.1-1.1-1.1C31,20.2,30.6,20.5,30.3,21z"/>
</g>
<g>
	<path d="M35.3,6.7h0.6l-0.1,6.2c0.4-0.7,1-1,1.8-1c1.2,0,2.2,0.8,2.2,1.9c0,0.8-0.5,1.8-1.7,2.7l-2.8,2.1V6.7z M35.9,13.6
		c-0.1,0.8-0.1,1.4-0.1,1.9c0,1,0,1.6,0.1,2c1-0.7,2.4-2.6,2.4-3.7c0-0.6-0.5-1.1-1.1-1.1C36.6,12.8,36.1,13,35.9,13.6z"/>
</g>
<g>
	<path d="M40.9,16.6h0.6l-0.1,6.2c0.4-0.7,1-1,1.8-1c1.2,0,2.2,0.8,2.2,1.9c0,0.8-0.5,1.8-1.7,2.7l-2.8,2.1V16.6z M41.4,23.5
		c-0.1,0.8-0.1,1.4-0.1,1.9c0,1,0,1.6,0.1,2c1-0.7,2.4-2.6,2.4-3.7c0-0.6-0.5-1.1-1.1-1.1C42.1,22.7,41.7,23,41.4,23.5z"/>
</g>
<g>
	<path d="M46.4,9.2h0.6l-0.1,6.2c0.4-0.7,1-1,1.8-1c1.2,0,2.2,0.8,2.2,1.9c0,0.8-0.5,1.8-1.7,2.7l-2.8,2.1V9.2z M47,16.1
		c-0.1,0.8-0.1,1.4-0.1,1.9c0,1,0,1.6,0.1,2c1-0.7,2.4-2.6,2.4-3.7c0-0.6-0.5-1.1-1.1-1.1C47.7,15.2,47.3,15.5,47,16.1z"/>
</g>
<polygon fill-rule="evenodd" clip-rule="evenodd" points="66.1,23.7 99,18.7 99,16.2 66.1,21.2 "/>
<polygon fill-rule="evenodd" clip-rule="evenodd" points="66.1,20 99,15 99,12.5 66.1,17.5 "/>
<polygon fill-rule="evenodd" clip-rule="evenodd" points="100.4,37.3 133.4,34.8 133.4,32.4 100.4,34.8 "/>
<polygon fill-rule="evenodd" clip-rule="evenodd" points="100.4,41 133.4,38.6 133.4,36.1 100.4,38.6 "/>
<polygon fill-rule="evenodd" clip-rule="evenodd" points="149.7,13.8 178.8,18.7 178.8,16.2 149.7,11.3 "/>
<polygon fill-rule="evenodd" clip-rule="evenodd" points="149.7,10 178.8,15 178.8,12.5 149.7,7.6 "/>
<polygon fill-rule="evenodd" clip-rule="evenodd" points="215.2,18.7 244.5,13.8 244.5,11.3 215.2,16.2 "/>
<polygon fill-rule="evenodd" clip-rule="evenodd" points="215.2,15 244.5,10 244.5,7.6 215.2,12.5 "/>
<polygon fill-rule="evenodd" clip-rule="evenodd" points="263.9,33.6 293.2,28.6 293.2,26.2 263.9,31.1 "/>
<polygon fill-rule="evenodd" clip-rule="evenodd" points="263.9,37.3 293.2,32.4 293.2,29.9 263.9,34.8 "/>
<polygon fill-rule="evenodd" clip-rule="evenodd" points="325.6,12.5 352.9,17.5 352.9,15 325.6,10 "/>
<polygon fill-rule="evenodd" clip-rule="evenodd" points="325.6,8.8 352.9,13.8 352.9,11.3 325.6,6.3 "/>
<polygon fill-rule="evenodd" clip-rule="evenodd" points="389.3,17.5 416.8,12.5 416.8,10 389.3,15 "/>
<polygon fill-rule="evenodd" clip-rule="evenodd" points="389.3,13.8 416.8,8.8 416.8,6.3 389.3,11.3 "/>
<polygon fill-rule="evenodd" clip-rule="evenodd" points="436.1,24 469.2,23.4 469.2,20.9 436.1,21.5 "/>
<polygon fill-rule="evenodd" clip-rule="evenodd" points="436.1,27.7 469.2,27.1 469.2,24.6 436.1,25.2 "/>
<polygon fill-rule="evenodd" clip-rule="evenodd" points="495.1,34.8 524.2,39.8 524.2,37.3 495.1,32.4 "/>
<polygon fill-rule="evenodd" clip-rule="evenodd" points="495.1,38.6 524.2,43.5 524.2,41 495.1,36.1 "/>
<rect x="8.6" y="80.3" width="544.4" height="0.5"/>
<rect x="8.6" y="75.4" width="544.4" height="0.5"/>
<rect x="8.6" y="70.4" width="544.4" height="0.5"/>
<rect x="8.6" y="65.5" width="544.4" height="0.5"/>
<rect x="8.6" y="60.5" width="544.4" height="0.5"/>
<g>
	<path d="M15.9,74.9c2.9-2.6,4.7-6.1,4.7-9.2c0-2.5-1.4-4.4-3.7-4.4c-1.6,0-3.4,1.3-3.4,2.7c0,0.2,0,0.3,0.1,0.3
		c-0.1,0,0.6-0.6,1.4-0.6c0.9,0,1.5,0.8,1.5,1.7c0,1.2-0.9,2.2-2.1,2.2c-1.2,0-2.1-1.3-2.1-2.8c0-2.3,2.3-4.1,4.8-4.1
		c4.7,0,5.9,3.2,5.9,5.8c0,1.6-0.4,2.9-2,5.3c-1.9,3.1-6.4,5.3-8.1,5.3c-0.4,0-0.6-0.2-0.6-0.5C14,76.2,15.1,75.6,15.9,74.9z
		 M25.8,62.2c0.6,0,1,0.4,1,1s-0.4,1-1,1s-1-0.4-1-1S25.3,62.2,25.8,62.2z M25.8,67.2c0.6,0,1,0.4,1,1s-0.4,1-1,1s-1-0.4-1-1
		S25.3,67.2,25.8,67.2z"/>
</g>
<g>
	<path d="M29.7,67.3h0.6l-0.1,6.2c0.4-0.7,1-1,1.8-1c1.2,0,2.2,0.8,2.2,1.9c0,0.8-0.5,1.8-1.7,2.7l-2.8,2.1V67.3z M30.3,74.2
		c-0.1,0.8-0.1,1.4-0.1,1.9c0,1,0,1.6,0.1,2c1-0.7,2.4-2.6,2.4-3.7c0-0.6-0.5-1.1-1.1-1.1C31,73.4,30.6,73.6,30.3,74.2z"/>
</g>
<g>
	<path d="M35.3,59.9h0.6l-0.1,6.2c0.4-0.7,1-1,1.8-1c1.2,0,2.2,0.8,2.2,1.9c0,0.8-0.5,1.8-1.7,2.7l-2.8,2.1V59.9z M35.9,66.8
		c-0.1,0.8-0.1,1.4-0.1,1.9c0,1,0,1.6,0.1,2c1-0.7,2.4-2.6,2.4-3.7c0-0.6-0.5-1.1-1.1-1.1C36.6,65.9,36.1,66.2,35.9,66.8z"/>
</g>
<g>
	<path d="M40.9,69.8h0.6L41.4,76c0.4-0.7,1-1,1.8-1c1.2,0,2.2,0.8,2.2,1.9c0,0.8-0.5,1.8-1.7,2.7l-2.8,2.1V69.8z M41.4,76.7
		c-0.1,0.8-0.1,1.4-0.1,1.9c0,1,0,1.6,0.1,2c1-0.7,2.4-2.6,2.4-3.7c0-0.6-0.5-1.1-1.1-1.1C42.1,75.8,41.7,76.1,41.4,76.7z"/>
</g>
<g>
	<path d="M46.4,62.3h0.6l-0.1,6.2c0.4-0.7,1-1,1.8-1c1.2,0,2.2,0.8,2.2,1.9c0,0.8-0.5,1.8-1.7,2.7l-2.8,2.1V62.3z M47,69.2
		c-0.1,0.8-0.1,1.4-0.1,1.9c0,1,0,1.6,0.1,2c1-0.7,2.4-2.6,2.4-3.7c0-0.6-0.5-1.1-1.1-1.1C47.7,68.4,47.3,68.7,47,69.2z"/>
</g>
<polygon fill-rule="evenodd" clip-rule="evenodd" points="66.1,62 99,57 99,54.5 66.1,59.5 "/>
<polygon fill-rule="evenodd" clip-rule="evenodd" points="66.1,58.2 99,53.3 99,50.8 66.1,55.8 "/>
<polygon fill-rule="evenodd" clip-rule="evenodd" points="100.4,72.2 133.4,71.6 133.4,69.1 100.4,69.7 "/>
<polygon fill-rule="evenodd" clip-rule="evenodd" points="100.4,75.9 133.4,75.3 133.4,72.8 100.4,73.4 "/>
<polygon fill-rule="evenodd" clip-rule="evenodd" points="143.2,83 172.3,88 172.3,85.5 143.2,80.6 "/>
<polygon fill-rule="evenodd" clip-rule="evenodd" points="143.2,86.8 172.3,91.7 172.3,89.2 143.2,84.3 "/>
<g>
	<path d="M255.9,79.2c-3.2,0-6.1-2.3-6.1-5.1c0-2.4,1.7-5,5.1-7.9c-0.2-0.9-0.3-1.8-0.3-2.7c0-2.6,0.9-5.1,2.4-6.3
		c1.4,1.9,2,3.7,2,5.3c0,2.2-1,4.2-3.2,6.1l0.7,3.1c0.4,0,0.6,0,0.6,0c2,0,3.6,1.5,3.6,3.5c0,1.4-1.1,2.8-2.7,3.6
		c0-0.1,0.6,2.8,0.6,3.3c0,1.9-1.7,3.2-3.7,3.2c-1.5,0-2.7-1-2.7-2.5c0-1.1,0.7-1.9,1.8-1.9c1,0,1.7,1,1.7,1.9c0,1-0.9,1.7-2,1.8
		c0.4,0.2,0.9,0.3,1.4,0.3c1.6,0,3.1-1.2,3.1-2.7c0-0.1,0-0.3,0-0.5l-0.6-2.8C257.1,79.1,256.6,79.2,255.9,79.2z M254.2,75.3
		c0,0.8,0.4,1.4,1.2,1.9c-1.3-0.2-2.2-1.1-2.2-2.3c0-1.5,1.3-2.8,2.9-3.1l-0.6-3c-2.8,2.1-4.3,4.1-4.3,6.1c0,2.2,2.1,4,4.5,4
		c0.7,0,1.3-0.1,1.8-0.4l-1.1-5.1C255.2,73.5,254.2,74.3,254.2,75.3z M257.3,59.3c-1.2,0-2.2,2.8-2.2,5.3c0,0.5,0,1,0.1,1.4
		c2-1.8,3-3.4,3-4.8c0-0.7-0.3-1.3-0.7-1.8C257.5,59.3,257.4,59.3,257.3,59.3z M259.4,75.7c0-1.2-0.9-2.4-2.2-2.4c0,0-0.2,0-0.4,0
		l1.1,5C258.8,77.5,259.4,76.7,259.4,75.7z"/>
</g>
<polygon fill-rule="evenodd" clip-rule="evenodd" points="208.7,88 238,83 238,80.6 208.7,85.5 "/>
<polygon fill-rule="evenodd" clip-rule="evenodd" points="208.7,91.7 238,86.8 238,84.3 208.7,89.2 "/>
<g>
	<path d="M307.6,72.6c2.2-2,3.6-4.6,3.6-6.9c0-1.9-1.1-3.3-2.8-3.3c-1.2,0-2.5,1-2.5,2.1c0,0.2,0,0.2,0.1,0.2c0,0,0.4-0.5,1-0.5
		c0.7,0,1.2,0.6,1.2,1.3c0,0.9-0.6,1.7-1.6,1.7s-1.5-1-1.5-2.1c0-1.8,1.7-3.1,3.6-3.1c3.5,0,4.4,2.4,4.4,4.4c0,1.2-0.3,2.2-1.5,4
		c-1.4,2.3-4.8,4-6,4c-0.3,0-0.5-0.1-0.5-0.3C306.2,73.6,307.1,73.1,307.6,72.6z M315.1,63.1c0.4,0,0.7,0.3,0.7,0.7
		c0,0.4-0.3,0.7-0.7,0.7c-0.4,0-0.7-0.3-0.7-0.7C314.4,63.4,314.7,63.1,315.1,63.1z M315.1,66.8c0.4,0,0.7,0.3,0.7,0.7
		s-0.3,0.7-0.7,0.7c-0.4,0-0.7-0.3-0.7-0.7S314.7,66.8,315.1,66.8z"/>
</g>
<rect x="270.4" y="59.5" fill-rule="evenodd" clip-rule="evenodd" width="29.3" height="2.5"/>
<rect x="270.4" y="55.8" fill-rule="evenodd" clip-rule="evenodd" width="29.3" height="2.5"/>
<polygon fill-rule="evenodd" clip-rule="evenodd" points="319.1,78.1 346.4,83 346.4,80.6 319.1,75.6 "/>
<polygon fill-rule="evenodd" clip-rule="evenodd" points="319.1,81.8 346.4,86.8 346.4,84.3 319.1,79.3 "/>
<g>
	<path d="M430,79.2c-3.2,0-6.1-2.3-6.1-5.1c0-2.4,1.7-5,5.1-7.9c-0.2-0.9-0.3-1.8-0.3-2.7c0-2.6,0.9-5.1,2.4-6.3
		c1.4,1.9,2,3.7,2,5.3c0,2.2-1,4.2-3.2,6.1l0.7,3.1c0.4,0,0.6,0,0.6,0c2,0,3.6,1.5,3.6,3.5c0,1.4-1.1,2.8-2.7,3.6
		c0-0.1,0.6,2.8,0.6,3.3c0,1.9-1.7,3.2-3.7,3.2c-1.5,0-2.7-1-2.7-2.5c0-1.1,0.7-1.9,1.8-1.9c1,0,1.7,1,1.7,1.9c0,1-0.9,1.7-2,1.8
		c0.4,0.2,0.9,0.3,1.4,0.3c1.6,0,3.1-1.2,3.1-2.7c0-0.1,0-0.3,0-0.5l-0.6-2.8C431.2,79.1,430.7,79.2,430,79.2z M428.3,75.3
		c0,0.8,0.4,1.4,1.2,1.9c-1.3-0.2-2.2-1.1-2.2-2.3c0-1.5,1.3-2.8,2.9-3.1l-0.6-3c-2.8,2.1-4.3,4.1-4.3,6.1c0,2.2,2.1,4,4.5,4
		c0.7,0,1.3-0.1,1.8-0.4l-1.1-5.1C429.3,73.5,428.3,74.3,428.3,75.3z M431.4,59.3c-1.2,0-2.2,2.8-2.2,5.3c0,0.5,0,1,0.1,1.4
		c2-1.8,3-3.4,3-4.8c0-0.7-0.3-1.3-0.7-1.8C431.6,59.3,431.5,59.3,431.4,59.3z M433.4,75.7c0-1.2-0.9-2.4-2.2-2.4c0,0-0.2,0-0.4,0
		l1.1,5C432.9,77.5,433.4,76.7,433.4,75.7z"/>
</g>
<polygon fill-rule="evenodd" clip-rule="evenodd" points="382.8,83 410.3,78.1 410.3,75.6 382.8,80.6 "/>
<polygon fill-rule="evenodd" clip-rule="evenodd" points="382.8,86.8 410.3,81.8 410.3,79.3 382.8,84.3 "/>
<g>
	<path d="M483.6,72.6c2.2-2,3.6-4.6,3.6-6.9c0-1.9-1.1-3.3-2.8-3.3c-1.2,0-2.5,1-2.5,2.1c0,0.2,0,0.2,0.1,0.2c0,0,0.4-0.5,1-0.5
		c0.7,0,1.2,0.6,1.2,1.3c0,0.9-0.6,1.7-1.6,1.7s-1.5-1-1.5-2.1c0-1.8,1.7-3.1,3.6-3.1c3.5,0,4.4,2.4,4.4,4.4c0,1.2-0.3,2.2-1.5,4
		c-1.4,2.3-4.8,4-6,4c-0.3,0-0.5-0.1-0.5-0.3C482.2,73.6,483,73.1,483.6,72.6z M491.1,63.1c0.4,0,0.7,0.3,0.7,0.7
		c0,0.4-0.3,0.7-0.7,0.7c-0.4,0-0.7-0.3-0.7-0.7C490.3,63.4,490.6,63.1,491.1,63.1z M491.1,66.8c0.4,0,0.7,0.3,0.7,0.7
		s-0.3,0.7-0.7,0.7c-0.4,0-0.7-0.3-0.7-0.7S490.6,66.8,491.1,66.8z"/>
</g>
<rect x="442.7" y="55.8" fill-rule="evenodd" clip-rule="evenodd" width="33" height="2.5"/>
<rect x="442.7" y="52" fill-rule="evenodd" clip-rule="evenodd" width="33" height="2.5"/>
<polygon fill-rule="evenodd" clip-rule="evenodd" points="495.1,71.9 524.2,76.8 524.2,74.4 495.1,69.4 "/>
<polygon fill-rule="evenodd" clip-rule="evenodd" points="495.1,75.6 524.2,80.6 524.2,78.1 495.1,73.1 "/>
<rect x="57.6" y="36.9" width="10.5" height="0.8"/>
<rect x="57.6" y="41.9" width="10.5" height="0.8"/>
<rect x="57.6" y="46.9" width="10.5" height="0.8"/>
<rect x="65.9" y="17.6" width="0.5" height="28.8"/>
<g>
	<path d="M59.5,48.1c0-1.8,2.5-3.5,4.5-3.5c1.3,0,2.3,0.7,2.3,1.7c0,1.7-2.5,3.5-4.6,3.5C60.4,49.8,59.5,49.2,59.5,48.1z"/>
</g>
<rect x="69.2" y="36.9" width="10.5" height="0.8"/>
<rect x="69.2" y="41.9" width="10.5" height="0.8"/>
<rect x="77.5" y="15.9" width="0.5" height="25.6"/>
<g>
	<path d="M71.1,43.1c0-1.8,2.5-3.5,4.5-3.5c1.3,0,2.3,0.7,2.3,1.7c0,1.7-2.5,3.5-4.6,3.5C72.1,44.9,71.1,44.2,71.1,43.1z"/>
</g>
<rect x="80.7" y="36.9" width="10.5" height="0.8"/>
<rect x="89" y="14.2" width="0.5" height="22.3"/>
<g>
	<path d="M82.6,38.2c0-1.8,2.5-3.5,4.5-3.5c1.3,0,2.3,0.7,2.3,1.7c0,1.7-2.5,3.5-4.6,3.5C83.5,39.9,82.6,39.3,82.6,38.2z"/>
</g>
<rect x="98.8" y="12.7" width="0.5" height="16.4"/>
<g>
	<path d="M92.3,30.7c0-1.8,2.5-3.5,4.5-3.5c1.3,0,2.3,0.7,2.3,1.7c0,1.7-2.5,3.5-4.6,3.5C93.3,32.5,92.3,31.8,92.3,30.7z"/>
</g>
<rect x="100.1" y="25.7" width="0.5" height="15.2"/>
<g>
	<path d="M100.2,25.8c0-1.8,2.5-3.5,4.5-3.5c1.3,0,2.3,0.7,2.3,1.7c0,1.7-2.5,3.5-4.6,3.5C101.2,27.5,100.2,26.9,100.2,25.8z"/>
</g>
<rect x="109.9" y="20.7" width="0.5" height="19.5"/>
<g>
	<path d="M110,20.8c0-1.8,2.5-3.5,4.5-3.5c1.3,0,2.3,0.7,2.3,1.7c0,1.7-2.5,3.5-4.6,3.5C111,22.5,110,21.9,110,20.8z"/>
</g>
<rect x="121.5" y="13.3" width="0.5" height="26"/>
<g>
	<path d="M121.6,13.4c0-1.8,2.5-3.5,4.5-3.5c1.3,0,2.3,0.7,2.3,1.7c0,1.7-2.5,3.5-4.6,3.5C122.6,15.1,121.6,14.5,121.6,13.4z"/>
</g>
<rect x="133.2" y="20.7" width="0.5" height="17.7"/>
<g>
	<path d="M133.2,20.8c0-1.8,2.5-3.5,4.5-3.5c1.3,0,2.3,0.7,2.3,1.7c0,1.7-2.5,3.5-4.6,3.5C134.2,22.5,133.2,21.9,133.2,20.8z"/>
</g>
<rect x="149.4" y="7.7" width="0.5" height="16.4"/>
<g>
	<path d="M143,25.8c0-1.8,2.5-3.5,4.5-3.5c1.3,0,2.3,0.7,2.3,1.7c0,1.7-2.5,3.5-4.6,3.5C144,27.5,143,26.9,143,25.8z"/>
</g>
<rect x="157.4" y="9" width="0.5" height="20.2"/>
<g>
	<path d="M150.9,30.7c0-1.8,2.5-3.5,4.5-3.5c1.3,0,2.3,0.7,2.3,1.7c0,1.7-2.5,3.5-4.6,3.5C151.9,32.5,150.9,31.8,150.9,30.7z"/>
</g>
<rect x="158.8" y="36.9" width="10.5" height="0.8"/>
<rect x="167.1" y="10.7" width="0.5" height="25.9"/>
<g>
	<path d="M160.7,38.2c0-1.8,2.5-3.5,4.5-3.5c1.3,0,2.3,0.7,2.3,1.7c0,1.7-2.5,3.5-4.6,3.5C161.7,39.9,160.7,39.3,160.7,38.2z"/>
</g>
<rect x="170.3" y="36.9" width="10.5" height="0.8"/>
<rect x="170.3" y="41.9" width="10.5" height="0.8"/>
<rect x="178.6" y="12.7" width="0.5" height="28.8"/>
<g>
	<path d="M172.2,43.1c0-1.8,2.5-3.5,4.5-3.5c1.3,0,2.3,0.7,2.3,1.7c0,1.7-2.5,3.5-4.6,3.5C173.1,44.9,172.2,44.2,172.2,43.1z"/>
</g>
<rect x="181.9" y="36.9" width="10.7" height="0.8"/>
<rect x="181.9" y="41.9" width="10.7" height="0.8"/>
<rect x="181.9" y="46.9" width="10.7" height="0.8"/>
<rect x="190.4" y="22.4" width="0.5" height="24"/>
<g>
	<path d="M188,44.5c1.6,0,2.7,0.7,2.7,2c0,1.9-2.3,3.4-4.5,3.4c-1.3,0-2.4-0.7-2.4-1.8C183.8,46.3,186,44.5,188,44.5z M184.2,48.4
		c0,0.6,0.4,0.9,1.1,0.9c1.4,0,4.9-2.1,4.9-3.3c0-0.6-0.4-0.9-1.1-0.9C187.9,45.1,184.2,47.2,184.2,48.4z"/>
</g>
<rect x="206.7" y="36.9" width="10.5" height="0.8"/>
<rect x="206.7" y="41.9" width="10.5" height="0.8"/>
<rect x="215" y="12.7" width="0.5" height="28.8"/>
<g>
	<path d="M208.6,43.1c0-1.8,2.5-3.5,4.5-3.5c1.3,0,2.3,0.7,2.3,1.7c0,1.7-2.5,3.5-4.6,3.5C209.6,44.9,208.6,44.2,208.6,43.1z"/>
</g>
<rect x="218.3" y="36.9" width="10.5" height="0.8"/>
<rect x="226.6" y="10.8" width="0.5" height="25.7"/>
<g>
	<path d="M220.2,38.2c0-1.8,2.5-3.5,4.5-3.5c1.3,0,2.3,0.7,2.3,1.7c0,1.7-2.5,3.5-4.6,3.5C221.2,39.9,220.2,39.3,220.2,38.2z"/>
</g>
<rect x="236.4" y="9.1" width="0.5" height="20"/>
<g>
	<path d="M230,30.7c0-1.8,2.5-3.5,4.5-3.5c1.3,0,2.3,0.7,2.3,1.7c0,1.7-2.5,3.5-4.6,3.5C230.9,32.5,230,31.8,230,30.7z"/>
</g>
<rect x="244.3" y="7.7" width="0.5" height="16.4"/>
<g>
	<path d="M237.9,25.8c0-1.8,2.5-3.5,4.5-3.5c1.3,0,2.3,0.7,2.3,1.7c0,1.7-2.5,3.5-4.6,3.5C238.9,27.5,237.9,26.9,237.9,25.8z"/>
</g>
<rect x="263.7" y="20.7" width="0.5" height="16.4"/>
<g>
	<path d="M263.8,20.8c0-1.8,2.5-3.5,4.5-3.5c1.3,0,2.3,0.7,2.3,1.7c0,1.7-2.5,3.5-4.6,3.5C264.7,22.5,263.8,21.9,263.8,20.8z"/>
</g>
<rect x="273.5" y="13.3" width="0.5" height="22.3"/>
<g>
	<path d="M273.5,13.4c0-1.8,2.5-3.5,4.5-3.5c1.3,0,2.3,0.7,2.3,1.7c0,1.7-2.5,3.5-4.6,3.5C274.5,15.1,273.5,14.5,273.5,13.4z"/>
</g>
<rect x="281.4" y="7.2" width="10.5" height="0.8"/>
<rect x="283.2" y="8.3" width="0.5" height="25.6"/>
<g>
	<path d="M283.3,8.4c0-1.8,2.5-3.5,4.5-3.5c1.3,0,2.3,0.7,2.3,1.7c0,1.7-2.5,3.5-4.6,3.5C284.3,10.1,283.3,9.5,283.3,8.4z"/>
</g>
<rect x="293" y="13.3" width="0.5" height="18.9"/>
<g>
	<path d="M293.1,13.4c0-1.8,2.5-3.5,4.5-3.5c1.3,0,2.3,0.7,2.3,1.7c0,1.7-2.5,3.5-4.6,3.5C294,15.1,293.1,14.5,293.1,13.4z"/>
</g>
<rect x="325.4" y="6.5" width="0.5" height="12.7"/>
<g>
	<path d="M319,20.8c0-1.8,2.5-3.5,4.5-3.5c1.3,0,2.3,0.7,2.3,1.7c0,1.7-2.5,3.5-4.6,3.5C319.9,22.5,319,21.9,319,20.8z"/>
</g>
<rect x="335" y="8.2" width="0.5" height="16"/>
<g>
	<path d="M328.6,25.8c0-1.8,2.5-3.5,4.5-3.5c1.3,0,2.3,0.7,2.3,1.7c0,1.7-2.5,3.5-4.6,3.5C329.5,27.5,328.6,26.9,328.6,25.8z"/>
</g>
<rect x="343.1" y="9.6" width="0.5" height="19.5"/>
<g>
	<path d="M336.6,30.7c0-1.8,2.5-3.5,4.5-3.5c1.3,0,2.3,0.7,2.3,1.7c0,1.7-2.5,3.5-4.6,3.5C337.6,32.5,336.6,31.8,336.6,30.7z"/>
</g>
<rect x="344.4" y="36.9" width="10.5" height="0.8"/>
<rect x="352.7" y="11.4" width="0.5" height="25.1"/>
<g>
	<path d="M346.2,38.2c0-1.8,2.5-3.5,4.5-3.5c1.3,0,2.3,0.7,2.3,1.7c0,1.7-2.5,3.5-4.6,3.5C347.2,39.9,346.2,39.3,346.2,38.2z"/>
</g>
<rect x="356" y="36.9" width="10.7" height="0.8"/>
<rect x="356" y="41.9" width="10.7" height="0.8"/>
<rect x="364.5" y="22.4" width="0.5" height="19.1"/>
<g>
	<path d="M362.1,39.6c1.6,0,2.7,0.7,2.7,2c0,1.9-2.3,3.4-4.5,3.4c-1.3,0-2.4-0.7-2.4-1.8C357.9,41.4,360.1,39.6,362.1,39.6z
		 M358.3,43.4c0,0.6,0.4,0.9,1.1,0.9c1.4,0,4.9-2.1,4.9-3.3c0-0.6-0.4-0.9-1.1-0.9C362,40.2,358.3,42.2,358.3,43.4z"/>
</g>
<rect x="380.8" y="36.9" width="10.5" height="0.8"/>
<rect x="389.1" y="11.4" width="0.5" height="25.1"/>
<g>
	<path d="M382.7,38.2c0-1.8,2.5-3.5,4.5-3.5c1.3,0,2.3,0.7,2.3,1.7c0,1.7-2.5,3.5-4.6,3.5C383.6,39.9,382.7,39.3,382.7,38.2z"/>
</g>
<rect x="398.9" y="9.7" width="0.5" height="19.4"/>
<g>
	<path d="M392.4,30.7c0-1.8,2.5-3.5,4.5-3.5c1.3,0,2.3,0.7,2.3,1.7c0,1.7-2.5,3.5-4.6,3.5C393.4,32.5,392.4,31.8,392.4,30.7z"/>
</g>
<rect x="406.8" y="8.3" width="0.5" height="15.8"/>
<g>
	<path d="M400.3,25.8c0-1.8,2.5-3.5,4.5-3.5c1.3,0,2.3,0.7,2.3,1.7c0,1.7-2.5,3.5-4.6,3.5C401.3,27.5,400.3,26.9,400.3,25.8z"/>
</g>
<rect x="416.5" y="6.5" width="0.5" height="12.7"/>
<g>
	<path d="M410.1,20.8c0-1.8,2.5-3.5,4.5-3.5c1.3,0,2.3,0.7,2.3,1.7c0,1.7-2.5,3.5-4.6,3.5C411.1,22.5,410.1,21.9,410.1,20.8z"/>
</g>
<rect x="435.9" y="13.3" width="0.5" height="14.3"/>
<g>
	<path d="M436,13.4c0-1.8,2.5-3.5,4.5-3.5c1.3,0,2.3,0.7,2.3,1.7c0,1.7-2.5,3.5-4.6,3.5C437,15.1,436,14.5,436,13.4z"/>
</g>
<rect x="443.9" y="7.2" width="10.5" height="0.8"/>
<rect x="445.7" y="8.3" width="0.5" height="19.1"/>
<g>
	<path d="M445.8,8.4c0-1.8,2.5-3.5,4.5-3.5c1.3,0,2.3,0.7,2.3,1.7c0,1.7-2.5,3.5-4.6,3.5C446.7,10.1,445.8,9.5,445.8,8.4z"/>
</g>
<rect x="455.5" y="7.2" width="10.5" height="0.8"/>
<rect x="455.5" y="2.2" width="10.5" height="0.8"/>
<rect x="457.3" y="3.4" width="0.5" height="23.9"/>
<g>
	<path d="M457.4,3.5c0-1.8,2.5-3.5,4.5-3.5c1.3,0,2.3,0.7,2.3,1.7c0,1.7-2.5,3.5-4.6,3.5C458.4,5.2,457.4,4.5,457.4,3.5z"/>
</g>
<rect x="467.1" y="7.2" width="10.5" height="0.8"/>
<rect x="468.9" y="8.3" width="0.5" height="18.6"/>
<g>
	<path d="M469,8.4c0-1.8,2.5-3.5,4.5-3.5c1.3,0,2.3,0.7,2.3,1.7c0,1.7-2.5,3.5-4.6,3.5C470,10.1,469,9.5,469,8.4z"/>
</g>
<rect x="494.8" y="13.3" width="0.5" height="25.1"/>
<g>
	<path d="M494.9,13.4c0-1.8,2.5-3.5,4.5-3.5c1.3,0,2.3,0.7,2.3,1.7c0,1.7-2.5,3.5-4.6,3.5C495.9,15.1,494.9,14.5,494.9,13.4z"/>
</g>
<rect x="506.3" y="20.7" width="0.5" height="19.5"/>
<g>
	<path d="M506.4,20.8c0-1.8,2.5-3.5,4.5-3.5c1.3,0,2.3,0.7,2.3,1.7c0,1.7-2.5,3.5-4.6,3.5C507.3,22.5,506.4,21.9,506.4,20.8z"/>
</g>
<rect x="516.1" y="25.7" width="0.5" height="16.3"/>
<g>
	<path d="M516.1,25.8c0-1.8,2.5-3.5,4.5-3.5c1.3,0,2.3,0.7,2.3,1.7c0,1.7-2.5,3.5-4.6,3.5C517.1,27.5,516.1,26.9,516.1,25.8z"/>
</g>
<rect x="524" y="30.7" width="0.5" height="12.7"/>
<g>
	<path d="M524,30.7c0-1.8,2.5-3.5,4.5-3.5c1.3,0,2.3,0.7,2.3,1.7c0,1.7-2.5,3.5-4.6,3.5C525,32.5,524,31.8,524,30.7z"/>
</g>
<rect x="531.9" y="36.9" width="10.7" height="0.8"/>
<rect x="540.4" y="20" width="0.5" height="16.6"/>
<g>
	<path d="M538.1,34.6c1.6,0,2.7,0.7,2.7,2c0,1.9-2.3,3.4-4.5,3.4c-1.3,0-2.4-0.7-2.4-1.8C533.8,36.4,536,34.6,538.1,34.6z
		 M534.3,38.5c0,0.6,0.4,0.9,1.1,0.9c1.4,0,4.9-2.1,4.9-3.3c0-0.6-0.4-0.9-1.1-0.9C537.9,35.2,534.3,37.2,534.3,38.5z"/>
</g>
<rect x="65.9" y="55.9" width="0.5" height="26.4"/>
<g>
	<path d="M59.5,83.9c0-1.8,2.5-3.5,4.5-3.5c1.3,0,2.3,0.7,2.3,1.7c0,1.7-2.5,3.5-4.6,3.5C60.4,85.6,59.5,85,59.5,83.9z"/>
</g>
<rect x="77.5" y="54.2" width="0.5" height="23.1"/>
<g>
	<path d="M71.1,78.9c0-1.8,2.5-3.5,4.5-3.5c1.3,0,2.3,0.7,2.3,1.7c0,1.7-2.5,3.5-4.6,3.5C72.1,80.7,71.1,80,71.1,78.9z"/>
</g>
<rect x="89" y="52.5" width="0.5" height="19.8"/>
<g>
	<path d="M82.6,74c0-1.8,2.5-3.5,4.5-3.5c1.3,0,2.3,0.7,2.3,1.7c0,1.7-2.5,3.5-4.6,3.5C83.5,75.7,82.6,75.1,82.6,74z"/>
</g>
<rect x="98.8" y="51" width="0.5" height="14"/>
<g>
	<path d="M92.3,66.5c0-1.8,2.5-3.5,4.5-3.5c1.3,0,2.3,0.7,2.3,1.7c0,1.7-2.5,3.5-4.6,3.5C93.3,68.3,92.3,67.6,92.3,66.5z"/>
</g>
<rect x="100.1" y="61.5" width="0.5" height="14.3"/>
<g>
	<path d="M100.2,61.6c0-1.8,2.5-3.5,4.5-3.5c1.3,0,2.3,0.7,2.3,1.7c0,1.7-2.5,3.5-4.6,3.5C101.2,63.3,100.2,62.7,100.2,61.6z"/>
</g>
<rect x="108.1" y="55.4" width="10.5" height="0.8"/>
<rect x="109.9" y="56.5" width="0.5" height="19.1"/>
<g>
	<path d="M110,56.6c0-1.8,2.5-3.5,4.5-3.5c1.3,0,2.3,0.7,2.3,1.7c0,1.7-2.5,3.5-4.6,3.5C111,58.3,110,57.7,110,56.6z"/>
</g>
<rect x="119.8" y="55.4" width="10.5" height="0.8"/>
<rect x="119.8" y="50.4" width="10.5" height="0.8"/>
<rect x="121.5" y="49.1" width="0.5" height="26.4"/>
<g>
	<path d="M121.6,49.2c0-1.8,2.5-3.5,4.5-3.5c1.3,0,2.3,0.7,2.3,1.7c0,1.7-2.5,3.5-4.6,3.5C122.6,50.9,121.6,50.3,121.6,49.2z"/>
</g>
<rect x="131.4" y="55.4" width="10.5" height="0.8"/>
<rect x="133.2" y="56.5" width="0.5" height="18.6"/>
<g>
	<path d="M133.2,56.6c0-1.8,2.5-3.5,4.5-3.5c1.3,0,2.3,0.7,2.3,1.7c0,1.7-2.5,3.5-4.6,3.5C134.2,58.3,133.2,57.7,133.2,56.6z"/>
</g>
<rect x="142.9" y="61.5" width="0.5" height="25.1"/>
<g>
	<path d="M143,61.6c0-1.8,2.5-3.5,4.5-3.5c1.3,0,2.3,0.7,2.3,1.7c0,1.7-2.5,3.5-4.6,3.5C144,63.3,143,62.7,143,61.6z"/>
</g>
<rect x="150.8" y="66.5" width="0.5" height="21.4"/>
<g>
	<path d="M150.9,66.5c0-1.8,2.5-3.5,4.5-3.5c1.3,0,2.3,0.7,2.3,1.7c0,1.7-2.5,3.5-4.6,3.5C151.9,68.3,150.9,67.6,150.9,66.5z"/>
</g>
<rect x="160.6" y="73.9" width="0.5" height="15.7"/>
<g>
	<path d="M160.7,74c0-1.8,2.5-3.5,4.5-3.5c1.3,0,2.3,0.7,2.3,1.7c0,1.7-2.5,3.5-4.6,3.5C161.7,75.7,160.7,75.1,160.7,74z"/>
</g>
<rect x="172.1" y="78.9" width="0.5" height="12.7"/>
<g>
	<path d="M172.2,78.9c0-1.8,2.5-3.5,4.5-3.5c1.3,0,2.3,0.7,2.3,1.7c0,1.7-2.5,3.5-4.6,3.5C173.1,80.7,172.2,80,172.2,78.9z"/>
</g>
<rect x="190.4" y="65.7" width="0.5" height="16.6"/>
<g>
	<path d="M188,80.3c1.6,0,2.7,0.7,2.7,2c0,1.9-2.3,3.4-4.5,3.4c-1.3,0-2.4-0.7-2.4-1.8C183.8,82.1,186,80.3,188,80.3z M184.2,84.2
		c0,0.6,0.4,0.9,1.1,0.9c1.4,0,4.9-2.1,4.9-3.3c0-0.6-0.4-0.9-1.1-0.9C187.9,80.9,184.2,83,184.2,84.2z"/>
</g>
<rect x="208.5" y="78.9" width="0.5" height="12.7"/>
<g>
	<path d="M208.6,78.9c0-1.8,2.5-3.5,4.5-3.5c1.3,0,2.3,0.7,2.3,1.7c0,1.7-2.5,3.5-4.6,3.5C209.6,80.7,208.6,80,208.6,78.9z"/>
</g>
<rect x="220.1" y="73.9" width="0.5" height="15.8"/>
<g>
	<path d="M220.2,74c0-1.8,2.5-3.5,4.5-3.5c1.3,0,2.3,0.7,2.3,1.7c0,1.7-2.5,3.5-4.6,3.5C221.2,75.7,220.2,75.1,220.2,74z"/>
</g>
<rect x="229.9" y="66.5" width="0.5" height="21.5"/>
<g>
	<path d="M230,66.5c0-1.8,2.5-3.5,4.5-3.5c1.3,0,2.3,0.7,2.3,1.7c0,1.7-2.5,3.5-4.6,3.5C230.9,68.3,230,67.6,230,66.5z"/>
</g>
<rect x="237.8" y="61.5" width="0.5" height="25.1"/>
<g>
	<path d="M237.9,61.6c0-1.8,2.5-3.5,4.5-3.5c1.3,0,2.3,0.7,2.3,1.7c0,1.7-2.5,3.5-4.6,3.5C238.9,63.3,237.9,62.7,237.9,61.6z"/>
</g>
<rect x="261.9" y="85.1" width="10.5" height="0.8"/>
<rect x="270.2" y="55.9" width="0.5" height="28.8"/>
<g>
	<path d="M263.8,86.4c0-1.8,2.5-3.5,4.5-3.5c1.3,0,2.3,0.7,2.3,1.7c0,1.7-2.5,3.5-4.6,3.5C264.7,88.1,263.8,87.5,263.8,86.4z"/>
</g>
<rect x="280" y="55.9" width="0.5" height="21.4"/>
<g>
	<path d="M273.5,78.9c0-1.8,2.5-3.5,4.5-3.5c1.3,0,2.3,0.7,2.3,1.7c0,1.7-2.5,3.5-4.6,3.5C274.5,80.7,273.5,80,273.5,78.9z"/>
</g>
<rect x="289.7" y="55.9" width="0.5" height="16.4"/>
<g>
	<path d="M283.3,74c0-1.8,2.5-3.5,4.5-3.5c1.3,0,2.3,0.7,2.3,1.7c0,1.7-2.5,3.5-4.6,3.5C284.3,75.7,283.3,75.1,283.3,74z"/>
</g>
<rect x="299.5" y="55.9" width="0.5" height="21.4"/>
<g>
	<path d="M293.1,78.9c0-1.8,2.5-3.5,4.5-3.5c1.3,0,2.3,0.7,2.3,1.7c0,1.7-2.5,3.5-4.6,3.5C294,80.7,293.1,80,293.1,78.9z"/>
</g>
<rect x="317.1" y="55.4" width="10.5" height="0.8"/>
<rect x="318.9" y="56.5" width="0.5" height="25.1"/>
<g>
	<path d="M319,56.6c0-1.8,2.5-3.5,4.5-3.5c1.3,0,2.3,0.7,2.3,1.7c0,1.7-2.5,3.5-4.6,3.5C319.9,58.3,319,57.7,319,56.6z"/>
</g>
<rect x="328.5" y="61.5" width="0.5" height="21.9"/>
<g>
	<path d="M328.6,61.6c0-1.8,2.5-3.5,4.5-3.5c1.3,0,2.3,0.7,2.3,1.7c0,1.7-2.5,3.5-4.6,3.5C329.5,63.3,328.6,62.7,328.6,61.6z"/>
</g>
<rect x="336.5" y="66.5" width="0.5" height="18.3"/>
<g>
	<path d="M336.6,66.5c0-1.8,2.5-3.5,4.5-3.5c1.3,0,2.3,0.7,2.3,1.7c0,1.7-2.5,3.5-4.6,3.5C337.6,68.3,336.6,67.6,336.6,66.5z"/>
</g>
<rect x="346.2" y="73.9" width="0.5" height="12.7"/>
<g>
	<path d="M346.2,74c0-1.8,2.5-3.5,4.5-3.5c1.3,0,2.3,0.7,2.3,1.7c0,1.7-2.5,3.5-4.6,3.5C347.2,75.7,346.2,75.1,346.2,74z"/>
</g>
<rect x="364.5" y="60.7" width="0.5" height="16.6"/>
<g>
	<path d="M362.1,75.4c1.6,0,2.7,0.7,2.7,2c0,1.9-2.3,3.4-4.5,3.4c-1.3,0-2.4-0.7-2.4-1.8C357.9,77.2,360.1,75.4,362.1,75.4z
		 M358.3,79.2c0,0.6,0.4,0.9,1.1,0.9c1.4,0,4.9-2.1,4.9-3.3c0-0.6-0.4-0.9-1.1-0.9C362,76,358.3,78,358.3,79.2z"/>
</g>
<rect x="382.6" y="73.9" width="0.5" height="12.7"/>
<g>
	<path d="M382.7,74c0-1.8,2.5-3.5,4.5-3.5c1.3,0,2.3,0.7,2.3,1.7c0,1.7-2.5,3.5-4.6,3.5C383.6,75.7,382.7,75.1,382.7,74z"/>
</g>
<rect x="392.4" y="66.5" width="0.5" height="18.4"/>
<g>
	<path d="M392.4,66.5c0-1.8,2.5-3.5,4.5-3.5c1.3,0,2.3,0.7,2.3,1.7c0,1.7-2.5,3.5-4.6,3.5C393.4,68.3,392.4,67.6,392.4,66.5z"/>
</g>
<rect x="400.3" y="61.5" width="0.5" height="22"/>
<g>
	<path d="M400.3,61.6c0-1.8,2.5-3.5,4.5-3.5c1.3,0,2.3,0.7,2.3,1.7c0,1.7-2.5,3.5-4.6,3.5C401.3,63.3,400.3,62.7,400.3,61.6z"/>
</g>
<rect x="408.2" y="55.4" width="10.5" height="0.8"/>
<rect x="410" y="56.5" width="0.5" height="25.1"/>
<g>
	<path d="M410.1,56.6c0-1.8,2.5-3.5,4.5-3.5c1.3,0,2.3,0.7,2.3,1.7c0,1.7-2.5,3.5-4.6,3.5C411.1,58.3,410.1,57.7,410.1,56.6z"/>
</g>
<rect x="442.4" y="52.2" width="0.5" height="25.1"/>
<g>
	<path d="M436,78.9c0-1.8,2.5-3.5,4.5-3.5c1.3,0,2.3,0.7,2.3,1.7c0,1.7-2.5,3.5-4.6,3.5C437,80.7,436,80,436,78.9z"/>
</g>
<rect x="452.2" y="52.2" width="0.5" height="20.2"/>
<g>
	<path d="M445.8,74c0-1.8,2.5-3.5,4.5-3.5c1.3,0,2.3,0.7,2.3,1.7c0,1.7-2.5,3.5-4.6,3.5C446.7,75.7,445.8,75.1,445.8,74z"/>
</g>
<rect x="463.8" y="52.2" width="0.5" height="15.2"/>
<g>
	<path d="M457.4,69c0-1.8,2.5-3.5,4.5-3.5c1.3,0,2.3,0.7,2.3,1.7c0,1.7-2.5,3.5-4.6,3.5C458.4,70.7,457.4,70.1,457.4,69z"/>
</g>
<rect x="475.4" y="52.2" width="0.5" height="20.2"/>
<g>
	<path d="M469,74c0-1.8,2.5-3.5,4.5-3.5c1.3,0,2.3,0.7,2.3,1.7c0,1.7-2.5,3.5-4.6,3.5C470,75.7,469,75.1,469,74z"/>
</g>
<rect x="493" y="55.4" width="10.5" height="0.8"/>
<rect x="493" y="50.4" width="10.5" height="0.8"/>
<rect x="494.8" y="49.1" width="0.5" height="26.4"/>
<g>
	<path d="M494.9,49.2c0-1.8,2.5-3.5,4.5-3.5c1.3,0,2.3,0.7,2.3,1.7c0,1.7-2.5,3.5-4.6,3.5C495.9,50.9,494.9,50.3,494.9,49.2z"/>
</g>
<rect x="504.5" y="55.4" width="10.5" height="0.8"/>
<rect x="506.3" y="56.5" width="0.5" height="20.8"/>
<g>
	<path d="M506.4,56.6c0-1.8,2.5-3.5,4.5-3.5c1.3,0,2.3,0.7,2.3,1.7c0,1.7-2.5,3.5-4.6,3.5C507.3,58.3,506.4,57.7,506.4,56.6z"/>
</g>
<rect x="516.1" y="61.5" width="0.5" height="17.5"/>
<g>
	<path d="M516.1,61.6c0-1.8,2.5-3.5,4.5-3.5c1.3,0,2.3,0.7,2.3,1.7c0,1.7-2.5,3.5-4.6,3.5C517.1,63.3,516.1,62.7,516.1,61.6z"/>
</g>
<rect x="524" y="66.5" width="0.5" height="14"/>
<g>
	<path d="M524,66.5c0-1.8,2.5-3.5,4.5-3.5c1.3,0,2.3,0.7,2.3,1.7c0,1.7-2.5,3.5-4.6,3.5C525,68.3,524,67.6,524,66.5z"/>
</g>
<rect x="540.4" y="55.8" width="0.5" height="16.6"/>
<g>
	<path d="M538.1,70.4c1.6,0,2.7,0.7,2.7,2c0,1.9-2.3,3.4-4.5,3.4c-1.3,0-2.4-0.7-2.4-1.8C533.8,72.2,536,70.4,538.1,70.4z
		 M534.3,74.3c0,0.6,0.4,0.9,1.1,0.9c1.4,0,4.9-2.1,4.9-3.3c0-0.6-0.4-0.9-1.1-0.9C537.9,71,534.3,73,534.3,74.3z"/>
</g>
</svg>
