<?xml version="1.0" encoding="utf-8"?>

<!--
	ScaleBook
	Copyright (c) Leland Jansen 2015. All rights reserved.
-->

<!DOCTYPE svg PUBLIC "-//W3C//DTD SVG 1.1//EN" "http://www.w3.org/Graphics/SVG/1.1/DTD/svg11.dtd">
<svg version="1.1" id="Layer_1" xmlns="http://www.w3.org/2000/svg" xmlns:xlink="http://www.w3.org/1999/xlink" x="0px" y="0px"
	 viewBox="0 0 552.9 90.6" enable-background="new 0 0 552.9 90.6" xml:space="preserve">
<rect x="8.4" y="11.2" width="0.8" height="67"/>
<g>
	<path d="M7.4,11.8c-1.9,1.1-3.6,5.8-3.6,9.4c0,2.3,1.4,9.9,1.4,12.3c0,5-1.5,8.6-4.6,11.1c3,2.4,4.6,6.1,4.6,11.1
		c0,2.3-1.4,9.9-1.4,12.3c0,3.8,1.7,8.4,3.6,9.5v0.7c-3.5-2.3-5.8-8.2-5.8-13.1c0-2.1,1.7-9.4,1.7-11.5c0-3.8-1-6.6-2.9-8.2
		C0.1,45,0,44.8,0,44.6c0-0.2,0.1-0.4,0.5-0.7c1.9-1.7,2.9-4.2,2.9-7.6c0-2.1-1.7-10-1.7-12.2c0-5.2,2.1-10.4,5.8-13.1V11.8z"/>
</g>
<rect x="547.8" y="11.2" width="0.8" height="67"/>
<rect x="550.4" y="11.2" width="2.5" height="67"/>
<rect x="8.5" y="30.8" width="544.4" height="0.5"/>
<rect x="8.5" y="25.8" width="544.4" height="0.5"/>
<rect x="8.5" y="20.8" width="544.4" height="0.5"/>
<rect x="8.5" y="15.9" width="544.4" height="0.5"/>
<rect x="8.5" y="10.9" width="544.4" height="0.5"/>
<g>
	<path d="M20.3,30.8c-4.2,0-8.1-3.1-8.1-6.9c0-3.2,2.3-6.7,6.8-10.5c-0.3-1.2-0.4-2.4-0.4-3.6c0-3.5,1.2-6.8,3.2-8.5
		c1.8,2.5,2.7,4.9,2.7,7.1c0,2.9-1.3,5.6-4.3,8.1l0.9,4.2c0.5,0,0.8-0.1,0.8-0.1c2.6,0,4.8,2,4.8,4.7c0,1.9-1.4,3.7-3.6,4.8
		c0-0.1,0.9,3.8,0.9,4.3c0,2.5-2.3,4.2-4.9,4.2c-2,0-3.6-1.3-3.6-3.4c0-1.4,1-2.6,2.4-2.6c1.3,0,2.3,1.3,2.3,2.5
		c0,1.4-1.2,2.3-2.7,2.5c0.6,0.3,1.2,0.5,1.9,0.5c2.1,0,4.1-1.6,4.1-3.6c0-0.2,0-0.4-0.1-0.6l-0.8-3.7
		C21.9,30.7,21.2,30.8,20.3,30.8z M18.1,25.6c0,1,0.5,1.9,1.6,2.5c-1.8-0.3-3-1.4-3-3.1c0-2,1.7-3.7,3.8-4.1l-0.8-4
		C16,19.7,14,22.4,14,25.1c0,2.9,2.8,5.3,6,5.3c0.9,0,1.7-0.2,2.4-0.5L21,23C19.4,23.2,18.1,24.3,18.1,25.6z M22.1,4.3
		c-1.6,0-2.9,3.7-2.9,7c0,0.7,0,1.3,0.2,1.9c2.7-2.4,4-4.5,4-6.5c0-0.9-0.3-1.7-1-2.4C22.4,4.3,22.3,4.3,22.1,4.3z M24.9,26.2
		c0-1.6-1.2-3.3-2.9-3.3c-0.1,0-0.2,0-0.5,0l1.4,6.6C24.2,28.6,24.9,27.5,24.9,26.2z"/>
</g>
<g>
	<path d="M29.5,12.8h0.6L30,19c0.4-0.7,1-1,1.8-1c1.2,0,2.2,0.8,2.2,1.9c0,0.8-0.5,1.8-1.7,2.7l-2.8,2.1V12.8z M30.1,19.7
		C30,20.4,30,21.1,30,21.6c0,1,0,1.6,0.1,2c1-0.7,2.4-2.6,2.4-3.7c0-0.6-0.5-1.1-1.1-1.1C30.8,18.8,30.4,19.1,30.1,19.7z"/>
</g>
<g>
	<path d="M35.1,5.3h0.6l-0.1,6.2c0.4-0.7,1-1,1.8-1c1.2,0,2.2,0.8,2.2,1.9c0,0.8-0.5,1.8-1.7,2.7l-2.8,2.1V5.3z M35.7,12.2
		c-0.1,0.8-0.1,1.4-0.1,1.9c0,1,0,1.6,0.1,2c1-0.7,2.4-2.6,2.4-3.7c0-0.6-0.5-1.1-1.1-1.1C36.4,11.4,36,11.7,35.7,12.2z"/>
</g>
<g>
	<path d="M40.7,15.2h0.6l-0.1,6.2c0.4-0.7,1-1,1.8-1c1.2,0,2.2,0.8,2.2,1.9c0,0.8-0.5,1.8-1.7,2.7l-2.8,2.1V15.2z M41.3,22.2
		c-0.1,0.8-0.1,1.4-0.1,1.9c0,1,0,1.6,0.1,2c1-0.7,2.4-2.6,2.4-3.7c0-0.6-0.5-1.1-1.1-1.1C42,21.3,41.6,21.6,41.3,22.2z"/>
</g>
<g>
	<path d="M46.3,7.8h0.6l-0.1,6.2c0.4-0.7,1-1,1.8-1c1.2,0,2.2,0.8,2.2,1.9c0,0.8-0.5,1.8-1.7,2.7l-2.8,2.1V7.8z M46.9,14.7
		c-0.1,0.8-0.1,1.4-0.1,1.9c0,1,0,1.6,0.1,2c1-0.7,2.4-2.6,2.4-3.7c0-0.6-0.5-1.1-1.1-1.1C47.6,13.9,47.2,14.2,46.9,14.7z"/>
</g>
<g>
	<path d="M51.9,17.7h0.6L52.4,24c0.4-0.7,1-1,1.8-1c1.2,0,2.2,0.8,2.2,1.9c0,0.8-0.5,1.8-1.7,2.7l-2.8,2.1V17.7z M52.4,24.6
		c-0.1,0.8-0.1,1.4-0.1,1.9c0,1,0,1.6,0.1,2c1-0.7,2.4-2.6,2.4-3.7c0-0.6-0.5-1.1-1.1-1.1C53.2,23.8,52.7,24.1,52.4,24.6z"/>
</g>
<g>
	<path d="M57.4,10.3h0.6l-0.1,6.2c0.4-0.7,1-1,1.8-1c1.2,0,2.2,0.8,2.2,1.9c0,0.8-0.5,1.8-1.7,2.7l-2.8,2.1V10.3z M58,17.2
		c-0.1,0.8-0.1,1.4-0.1,1.9c0,1,0,1.6,0.1,2c1-0.7,2.4-2.6,2.4-3.7c0-0.6-0.5-1.1-1.1-1.1C58.7,16.4,58.3,16.6,58,17.2z"/>
</g>
<g>
	<path d="M63,20.2h0.6l-0.1,6.2c0.4-0.7,1-1,1.8-1c1.2,0,2.2,0.8,2.2,1.9c0,0.8-0.5,1.8-1.7,2.7L63,32.2V20.2z M63.6,27.1
		c-0.1,0.8-0.1,1.4-0.1,1.9c0,1,0,1.6,0.1,2c1-0.7,2.4-2.6,2.4-3.7c0-0.6-0.5-1.1-1.1-1.1C64.3,26.3,63.9,26.6,63.6,27.1z"/>
</g>
<rect x="8.5" y="77.9" width="544.4" height="0.5"/>
<rect x="8.5" y="72.9" width="544.4" height="0.5"/>
<rect x="8.5" y="68" width="544.4" height="0.5"/>
<rect x="8.5" y="63" width="544.4" height="0.5"/>
<rect x="8.5" y="58.1" width="544.4" height="0.5"/>
<g>
	<path d="M15.7,72.5c2.9-2.6,4.7-6.1,4.7-9.2c0-2.5-1.4-4.4-3.7-4.4c-1.6,0-3.4,1.3-3.4,2.7c0,0.2,0,0.3,0.1,0.3
		c-0.1,0,0.6-0.6,1.4-0.6c0.9,0,1.5,0.8,1.5,1.7c0,1.2-0.9,2.2-2.1,2.2c-1.2,0-2.1-1.3-2.1-2.8c0-2.3,2.3-4.1,4.8-4.1
		c4.7,0,5.9,3.2,5.9,5.8c0,1.6-0.4,2.9-2,5.3c-1.9,3.1-6.4,5.3-8.1,5.3c-0.4,0-0.6-0.2-0.6-0.5C13.8,73.7,14.9,73.2,15.7,72.5z
		 M25.7,59.8c0.6,0,1,0.4,1,1c0,0.6-0.4,1-1,1s-1-0.4-1-1C24.7,60.2,25.1,59.8,25.7,59.8z M25.7,64.7c0.6,0,1,0.4,1,1
		c0,0.6-0.4,1-1,1s-1-0.4-1-1C24.7,65.1,25.1,64.7,25.7,64.7z"/>
</g>
<g>
	<path d="M29.5,64.9h0.6L30,71.1c0.4-0.7,1-1,1.8-1c1.2,0,2.2,0.8,2.2,1.9c0,0.8-0.5,1.8-1.7,2.7l-2.8,2.1V64.9z M30.1,71.8
		C30,72.5,30,73.2,30,73.7c0,1,0,1.6,0.1,2c1-0.7,2.4-2.6,2.4-3.7c0-0.6-0.5-1.1-1.1-1.1C30.8,70.9,30.4,71.2,30.1,71.8z"/>
</g>
<g>
	<path d="M35.1,57.4h0.6l-0.1,6.2c0.4-0.7,1-1,1.8-1c1.2,0,2.2,0.8,2.2,1.9c0,0.8-0.5,1.8-1.7,2.7l-2.8,2.1V57.4z M35.7,64.3
		c-0.1,0.8-0.1,1.4-0.1,1.9c0,1,0,1.6,0.1,2c1-0.7,2.4-2.6,2.4-3.7c0-0.6-0.5-1.1-1.1-1.1C36.4,63.5,36,63.8,35.7,64.3z"/>
</g>
<g>
	<path d="M40.7,67.3h0.6l-0.1,6.2c0.4-0.7,1-1,1.8-1c1.2,0,2.2,0.8,2.2,1.9c0,0.8-0.5,1.8-1.7,2.7l-2.8,2.1V67.3z M41.3,74.2
		c-0.1,0.8-0.1,1.4-0.1,1.9c0,1,0,1.6,0.1,2c1-0.7,2.4-2.6,2.4-3.7c0-0.6-0.5-1.1-1.1-1.1C42,73.4,41.6,73.7,41.3,74.2z"/>
</g>
<g>
	<path d="M46.3,59.9h0.6l-0.1,6.2c0.4-0.7,1-1,1.8-1c1.2,0,2.2,0.8,2.2,1.9c0,0.8-0.5,1.8-1.7,2.7l-2.8,2.1V59.9z M46.9,66.8
		c-0.1,0.8-0.1,1.4-0.1,1.9c0,1,0,1.6,0.1,2c1-0.7,2.4-2.6,2.4-3.7c0-0.6-0.5-1.1-1.1-1.1C47.6,66,47.2,66.2,46.9,66.8z"/>
</g>
<g>
	<path d="M51.9,69.8h0.6l-0.1,6.2c0.4-0.7,1-1,1.8-1c1.2,0,2.2,0.8,2.2,1.9c0,0.8-0.5,1.8-1.7,2.7l-2.8,2.1V69.8z M52.4,76.7
		c-0.1,0.8-0.1,1.4-0.1,1.9c0,1,0,1.6,0.1,2c1-0.7,2.4-2.6,2.4-3.7c0-0.6-0.5-1.1-1.1-1.1C53.2,75.9,52.7,76.2,52.4,76.7z"/>
</g>
<g>
	<path d="M57.4,62.4h0.6l-0.1,6.2c0.4-0.7,1-1,1.8-1c1.2,0,2.2,0.8,2.2,1.9c0,0.8-0.5,1.8-1.7,2.7l-2.8,2.1V62.4z M58,69.3
		c-0.1,0.8-0.1,1.4-0.1,1.9c0,1,0,1.6,0.1,2c1-0.7,2.4-2.6,2.4-3.7c0-0.6-0.5-1.1-1.1-1.1C58.7,68.4,58.3,68.7,58,69.3z"/>
</g>
<g>
	<path d="M63,72.3h0.6l-0.1,6.2c0.4-0.7,1-1,1.8-1c1.2,0,2.2,0.8,2.2,1.9c0,0.8-0.5,1.8-1.7,2.7L63,84.2V72.3z M63.6,79.2
		c-0.1,0.8-0.1,1.4-0.1,1.9c0,1,0,1.6,0.1,2c1-0.7,2.4-2.6,2.4-3.7c0-0.6-0.5-1.1-1.1-1.1C64.3,78.4,63.9,78.6,63.6,79.2z"/>
</g>
<g>
	<path d="M251.1,76.8c-3.2,0-6.1-2.3-6.1-5.1c0-2.4,1.7-5,5.1-7.9c-0.2-0.9-0.3-1.8-0.3-2.7c0-2.6,0.9-5.1,2.4-6.3
		c1.4,1.9,2,3.7,2,5.3c0,2.2-1,4.2-3.2,6.1l0.7,3.1c0.4,0,0.6,0,0.6,0c2,0,3.6,1.5,3.6,3.5c0,1.4-1.1,2.8-2.7,3.6
		c0-0.1,0.6,2.8,0.6,3.3c0,1.9-1.7,3.2-3.7,3.2c-1.5,0-2.7-1-2.7-2.5c0-1.1,0.7-1.9,1.8-1.9c1,0,1.7,1,1.7,1.9c0,1-0.9,1.7-2,1.8
		c0.4,0.2,0.9,0.3,1.4,0.3c1.6,0,3.1-1.2,3.1-2.7c0-0.1,0-0.3,0-0.5l-0.6-2.8C252.3,76.7,251.8,76.8,251.1,76.8z M249.4,72.9
		c0,0.8,0.4,1.4,1.2,1.9c-1.3-0.2-2.2-1.1-2.2-2.3c0-1.5,1.3-2.8,2.9-3.1l-0.6-3c-2.8,2.1-4.3,4.1-4.3,6.1c0,2.2,2.1,4,4.5,4
		c0.7,0,1.3-0.1,1.8-0.4l-1.1-5.1C250.4,71.1,249.4,71.8,249.4,72.9z M252.5,56.8c-1.2,0-2.2,2.8-2.2,5.3c0,0.5,0,1,0.1,1.4
		c2-1.8,3-3.4,3-4.9c0-0.7-0.3-1.3-0.7-1.8C252.7,56.9,252.6,56.8,252.5,56.8z M254.5,73.3c0-1.2-0.9-2.4-2.2-2.4c0,0-0.2,0-0.4,0
		l1.1,5C254,75.1,254.5,74.2,254.5,73.3z"/>
</g>
<g>
	<path d="M308.6,70.2c2.2-2,3.6-4.6,3.6-6.9c0-1.9-1.1-3.3-2.8-3.3c-1.2,0-2.5,1-2.5,2.1c0,0.2,0,0.2,0.1,0.2c0,0,0.4-0.5,1-0.5
		c0.7,0,1.2,0.6,1.2,1.3c0,0.9-0.6,1.7-1.6,1.7s-1.5-1-1.5-2.1c0-1.8,1.7-3.1,3.6-3.1c3.5,0,4.4,2.4,4.4,4.4c0,1.2-0.3,2.2-1.5,4
		c-1.4,2.3-4.8,4-6,4c-0.3,0-0.5-0.1-0.5-0.3C307.2,71.1,308,70.7,308.6,70.2z M316,60.6c0.4,0,0.7,0.3,0.7,0.7
		c0,0.4-0.3,0.7-0.7,0.7c-0.4,0-0.7-0.3-0.7-0.7C315.3,61,315.6,60.6,316,60.6z M316,64.3c0.4,0,0.7,0.3,0.7,0.7s-0.3,0.7-0.7,0.7
		c-0.4,0-0.7-0.3-0.7-0.7S315.6,64.3,316,64.3z"/>
</g>
<rect x="74.2" y="35.6" width="10.5" height="0.8"/>
<rect x="74.2" y="40.5" width="10.5" height="0.8"/>
<rect x="82.5" y="6.2" width="0.5" height="33.9"/>
<g>
	<path d="M76,41.8c0-1.8,2.5-3.5,4.5-3.5c1.3,0,2.3,0.7,2.3,1.7c0,1.7-2.5,3.5-4.6,3.5C77,43.5,76,42.9,76,41.8z"/>
</g>
<g>
	<path d="M76,36.8c0-1.8,2.5-3.5,4.5-3.5c1.3,0,2.3,0.7,2.3,1.7c0,1.7-2.5,3.5-4.6,3.5C77,38.5,76,37.9,76,36.8z"/>
</g>
<g>
	<path d="M76,31.9c0-1.8,2.5-3.5,4.5-3.5c1.3,0,2.3,0.7,2.3,1.7c0,1.7-2.5,3.5-4.6,3.5C77,33.6,76,32.9,76,31.9z"/>
</g>
<g>
	<path d="M76,24.4c0-1.8,2.5-3.5,4.5-3.5c1.3,0,2.3,0.7,2.3,1.7c0,1.7-2.5,3.5-4.6,3.5C77,26.1,76,25.5,76,24.4z"/>
</g>
<rect x="135.1" y="35.6" width="10.5" height="0.8"/>
<rect x="143.4" y="2.5" width="0.5" height="32.7"/>
<g>
	<path d="M137,36.8c0-1.8,2.5-3.5,4.5-3.5c1.3,0,2.3,0.7,2.3,1.7c0,1.7-2.5,3.5-4.6,3.5C137.9,38.5,137,37.9,137,36.8z"/>
</g>
<g>
	<path d="M137,31.9c0-1.8,2.5-3.5,4.5-3.5c1.3,0,2.3,0.7,2.3,1.7c0,1.7-2.5,3.5-4.6,3.5C137.9,33.6,137,32.9,137,31.9z"/>
</g>
<g>
	<path d="M137,24.4c0-1.8,2.5-3.5,4.5-3.5c1.3,0,2.3,0.7,2.3,1.7c0,1.7-2.5,3.5-4.6,3.5C137.9,26.1,137,25.5,137,24.4z"/>
</g>
<g>
	<path d="M137,19.5c0-1.8,2.5-3.5,4.5-3.5c1.3,0,2.3,0.7,2.3,1.7c0,1.7-2.5,3.5-4.6,3.5C137.9,21.2,137,20.5,137,19.5z"/>
</g>
<rect x="204.5" width="0.5" height="30.2"/>
<g>
	<path d="M198,31.9c0-1.8,2.5-3.5,4.5-3.5c1.3,0,2.3,0.7,2.3,1.7c0,1.7-2.5,3.5-4.6,3.5C199,33.6,198,32.9,198,31.9z"/>
</g>
<g>
	<path d="M198,24.4c0-1.8,2.5-3.5,4.5-3.5c1.3,0,2.3,0.7,2.3,1.7c0,1.7-2.5,3.5-4.6,3.5C199,26.1,198,25.5,198,24.4z"/>
</g>
<g>
	<path d="M198,19.5c0-1.8,2.5-3.5,4.5-3.5c1.3,0,2.3,0.7,2.3,1.7c0,1.7-2.5,3.5-4.6,3.5C199,21.2,198,20.5,198,19.5z"/>
</g>
<g>
	<path d="M198,14.5c0-1.8,2.5-3.5,4.5-3.5c1.3,0,2.3,0.7,2.3,1.7c0,1.7-2.5,3.5-4.6,3.5C199,16.2,198,15.6,198,14.5z"/>
</g>
<rect x="257.1" y="5.8" width="10.5" height="0.8"/>
<rect x="258.9" y="7" width="0.5" height="32.7"/>
<g>
	<path d="M259,7.1c0-1.8,2.5-3.5,4.5-3.5c1.3,0,2.3,0.7,2.3,1.7c0,1.7-2.5,3.5-4.6,3.5C259.9,8.8,259,8.1,259,7.1z"/>
</g>
<g>
	<path d="M259,14.5c0-1.8,2.5-3.5,4.5-3.5c1.3,0,2.3,0.7,2.3,1.7c0,1.7-2.5,3.5-4.6,3.5C259.9,16.2,259,15.6,259,14.5z"/>
</g>
<g>
	<path d="M259,19.5c0-1.8,2.5-3.5,4.5-3.5c1.3,0,2.3,0.7,2.3,1.7c0,1.7-2.5,3.5-4.6,3.5C259.9,21.2,259,20.5,259,19.5z"/>
</g>
<g>
	<path d="M259,24.4c0-1.8,2.5-3.5,4.5-3.5c1.3,0,2.3,0.7,2.3,1.7c0,1.7-2.5,3.5-4.6,3.5C259.9,26.1,259,25.5,259,24.4z"/>
</g>
<rect x="326.3" width="0.5" height="30.2"/>
<g>
	<path d="M319.9,31.9c0-1.8,2.5-3.5,4.5-3.5c1.3,0,2.3,0.7,2.3,1.7c0,1.7-2.5,3.5-4.6,3.5C320.9,33.6,319.9,32.9,319.9,31.9z"/>
</g>
<g>
	<path d="M319.9,24.4c0-1.8,2.5-3.5,4.5-3.5c1.3,0,2.3,0.7,2.3,1.7c0,1.7-2.5,3.5-4.6,3.5C320.9,26.1,319.9,25.5,319.9,24.4z"/>
</g>
<g>
	<path d="M319.9,19.5c0-1.8,2.5-3.5,4.5-3.5c1.3,0,2.3,0.7,2.3,1.7c0,1.7-2.5,3.5-4.6,3.5C320.9,21.2,319.9,20.5,319.9,19.5z"/>
</g>
<g>
	<path d="M319.9,14.5c0-1.8,2.5-3.5,4.5-3.5c1.3,0,2.3,0.7,2.3,1.7c0,1.7-2.5,3.5-4.6,3.5C320.9,16.2,319.9,15.6,319.9,14.5z"/>
</g>
<rect x="378.9" y="35.6" width="10.5" height="0.8"/>
<rect x="387.2" y="2.5" width="0.5" height="32.7"/>
<g>
	<path d="M380.8,36.8c0-1.8,2.5-3.5,4.5-3.5c1.3,0,2.3,0.7,2.3,1.7c0,1.7-2.5,3.5-4.6,3.5C381.8,38.5,380.8,37.9,380.8,36.8z"/>
</g>
<g>
	<path d="M380.8,31.9c0-1.8,2.5-3.5,4.5-3.5c1.3,0,2.3,0.7,2.3,1.7c0,1.7-2.5,3.5-4.6,3.5C381.8,33.6,380.8,32.9,380.8,31.9z"/>
</g>
<g>
	<path d="M380.8,24.4c0-1.8,2.5-3.5,4.5-3.5c1.3,0,2.3,0.7,2.3,1.7c0,1.7-2.5,3.5-4.6,3.5C381.8,26.1,380.8,25.5,380.8,24.4z"/>
</g>
<g>
	<path d="M380.8,19.5c0-1.8,2.5-3.5,4.5-3.5c1.3,0,2.3,0.7,2.3,1.7c0,1.7-2.5,3.5-4.6,3.5C381.8,21.2,380.8,20.5,380.8,19.5z"/>
</g>
<rect x="440" y="35.6" width="10.7" height="0.8"/>
<rect x="440" y="40.5" width="10.7" height="0.8"/>
<rect x="448.5" y="6.2" width="0.5" height="33.9"/>
<g>
	<path d="M446.1,38.2c1.6,0,2.7,0.7,2.7,2c0,1.9-2.3,3.4-4.5,3.4c-1.3,0-2.4-0.7-2.4-1.8C441.9,40,444.1,38.2,446.1,38.2z
		 M442.3,42.1c0,0.6,0.4,0.9,1.1,0.9c1.4,0,4.9-2.1,4.9-3.3c0-0.6-0.4-0.9-1.1-0.9C446,38.8,442.3,40.8,442.3,42.1z"/>
</g>
<g>
	<path d="M446.1,33.3c1.6,0,2.7,0.7,2.7,2c0,1.9-2.3,3.4-4.5,3.4c-1.3,0-2.4-0.7-2.4-1.8C441.9,35,444.1,33.3,446.1,33.3z
		 M442.3,37.1c0,0.6,0.4,0.9,1.1,0.9c1.4,0,4.9-2.1,4.9-3.3c0-0.6-0.4-0.9-1.1-0.9C446,33.9,442.3,35.9,442.3,37.1z"/>
</g>
<g>
	<path d="M446.1,28.3c1.6,0,2.7,0.7,2.7,2c0,1.9-2.3,3.4-4.5,3.4c-1.3,0-2.4-0.7-2.4-1.8C441.9,30.1,444.1,28.3,446.1,28.3z
		 M442.3,32.2c0,0.6,0.4,0.9,1.1,0.9c1.4,0,4.9-2.1,4.9-3.3c0-0.6-0.4-0.9-1.1-0.9C446,28.9,442.3,30.9,442.3,32.2z"/>
</g>
<g>
	<path d="M446.1,20.9c1.6,0,2.7,0.7,2.7,2c0,1.9-2.3,3.4-4.5,3.4c-1.3,0-2.4-0.7-2.4-1.8C441.9,22.6,444.1,20.9,446.1,20.9z
		 M442.3,24.7c0,0.6,0.4,0.9,1.1,0.9c1.4,0,4.9-2.1,4.9-3.3c0-0.6-0.4-0.9-1.1-0.9C446,21.5,442.3,23.5,442.3,24.7z"/>
</g>
<rect x="76" y="59.1" width="0.5" height="30.2"/>
<g>
	<path d="M76,59.1c0-1.8,2.5-3.5,4.5-3.5c1.3,0,2.3,0.7,2.3,1.7c0,1.7-2.5,3.5-4.6,3.5C77,60.9,76,60.2,76,59.1z"/>
</g>
<g>
	<path d="M76,66.6c0-1.8,2.5-3.5,4.5-3.5c1.3,0,2.3,0.7,2.3,1.7c0,1.7-2.5,3.5-4.6,3.5C77,68.3,76,67.7,76,66.6z"/>
</g>
<g>
	<path d="M76,71.5c0-1.8,2.5-3.5,4.5-3.5c1.3,0,2.3,0.7,2.3,1.7c0,1.7-2.5,3.5-4.6,3.5C77,73.3,76,72.6,76,71.5z"/>
</g>
<g>
	<path d="M76,76.5c0-1.8,2.5-3.5,4.5-3.5c1.3,0,2.3,0.7,2.3,1.7c0,1.7-2.5,3.5-4.6,3.5C77,78.2,76,77.6,76,76.5z"/>
</g>
<rect x="135.1" y="52.9" width="10.5" height="0.8"/>
<rect x="136.9" y="54.1" width="0.5" height="32.7"/>
<g>
	<path d="M137,54.2c0-1.8,2.5-3.5,4.5-3.5c1.3,0,2.3,0.7,2.3,1.7c0,1.7-2.5,3.5-4.6,3.5C137.9,55.9,137,55.3,137,54.2z"/>
</g>
<g>
	<path d="M137,59.1c0-1.8,2.5-3.5,4.5-3.5c1.3,0,2.3,0.7,2.3,1.7c0,1.7-2.5,3.5-4.6,3.5C137.9,60.9,137,60.2,137,59.1z"/>
</g>
<g>
	<path d="M137,66.6c0-1.8,2.5-3.5,4.5-3.5c1.3,0,2.3,0.7,2.3,1.7c0,1.7-2.5,3.5-4.6,3.5C137.9,68.3,137,67.7,137,66.6z"/>
</g>
<g>
	<path d="M137,71.5c0-1.8,2.5-3.5,4.5-3.5c1.3,0,2.3,0.7,2.3,1.7c0,1.7-2.5,3.5-4.6,3.5C137.9,73.3,137,72.6,137,71.5z"/>
</g>
<rect x="196.2" y="52.9" width="10.5" height="0.8"/>
<rect x="196.2" y="48" width="10.5" height="0.8"/>
<rect x="198" y="49.1" width="0.5" height="33.9"/>
<g>
	<path d="M198,49.2c0-1.8,2.5-3.5,4.5-3.5c1.3,0,2.3,0.7,2.3,1.7c0,1.7-2.5,3.5-4.6,3.5C199,50.9,198,50.3,198,49.2z"/>
</g>
<g>
	<path d="M198,54.2c0-1.8,2.5-3.5,4.5-3.5c1.3,0,2.3,0.7,2.3,1.7c0,1.7-2.5,3.5-4.6,3.5C199,55.9,198,55.3,198,54.2z"/>
</g>
<g>
	<path d="M198,59.1c0-1.8,2.5-3.5,4.5-3.5c1.3,0,2.3,0.7,2.3,1.7c0,1.7-2.5,3.5-4.6,3.5C199,60.9,198,60.2,198,59.1z"/>
</g>
<g>
	<path d="M198,66.6c0-1.8,2.5-3.5,4.5-3.5c1.3,0,2.3,0.7,2.3,1.7c0,1.7-2.5,3.5-4.6,3.5C199,68.3,198,67.7,198,66.6z"/>
</g>
<rect x="257.1" y="82.7" width="10.5" height="0.8"/>
<rect x="257.1" y="87.7" width="10.5" height="0.8"/>
<rect x="265.4" y="53.3" width="0.5" height="33.9"/>
<g>
	<path d="M259,88.9c0-1.8,2.5-3.5,4.5-3.5c1.3,0,2.3,0.7,2.3,1.7c0,1.7-2.5,3.5-4.6,3.5C259.9,90.6,259,90,259,88.9z"/>
</g>
<g>
	<path d="M259,83.9c0-1.8,2.5-3.5,4.5-3.5c1.3,0,2.3,0.7,2.3,1.7c0,1.7-2.5,3.5-4.6,3.5C259.9,85.7,259,85,259,83.9z"/>
</g>
<g>
	<path d="M259,79c0-1.8,2.5-3.5,4.5-3.5c1.3,0,2.3,0.7,2.3,1.7c0,1.7-2.5,3.5-4.6,3.5C259.9,80.7,259,80.1,259,79z"/>
</g>
<g>
	<path d="M259,71.5c0-1.8,2.5-3.5,4.5-3.5c1.3,0,2.3,0.7,2.3,1.7c0,1.7-2.5,3.5-4.6,3.5C259.9,73.3,259,72.6,259,71.5z"/>
</g>
<rect x="318" y="52.9" width="10.5" height="0.8"/>
<rect x="318" y="48" width="10.5" height="0.8"/>
<rect x="319.8" y="49.1" width="0.5" height="33.9"/>
<g>
	<path d="M319.9,49.2c0-1.8,2.5-3.5,4.5-3.5c1.3,0,2.3,0.7,2.3,1.7c0,1.7-2.5,3.5-4.6,3.5C320.9,50.9,319.9,50.3,319.9,49.2z"/>
</g>
<g>
	<path d="M319.9,54.2c0-1.8,2.5-3.5,4.5-3.5c1.3,0,2.3,0.7,2.3,1.7c0,1.7-2.5,3.5-4.6,3.5C320.9,55.9,319.9,55.3,319.9,54.2z"/>
</g>
<g>
	<path d="M319.9,59.1c0-1.8,2.5-3.5,4.5-3.5c1.3,0,2.3,0.7,2.3,1.7c0,1.7-2.5,3.5-4.6,3.5C320.9,60.9,319.9,60.2,319.9,59.1z"/>
</g>
<g>
	<path d="M319.9,66.6c0-1.8,2.5-3.5,4.5-3.5c1.3,0,2.3,0.7,2.3,1.7c0,1.7-2.5,3.5-4.6,3.5C320.9,68.3,319.9,67.7,319.9,66.6z"/>
</g>
<rect x="378.9" y="52.9" width="10.5" height="0.8"/>
<rect x="380.7" y="54.1" width="0.5" height="32.7"/>
<g>
	<path d="M380.8,54.2c0-1.8,2.5-3.5,4.5-3.5c1.3,0,2.3,0.7,2.3,1.7c0,1.7-2.5,3.5-4.6,3.5C381.8,55.9,380.8,55.3,380.8,54.2z"/>
</g>
<g>
	<path d="M380.8,59.1c0-1.8,2.5-3.5,4.5-3.5c1.3,0,2.3,0.7,2.3,1.7c0,1.7-2.5,3.5-4.6,3.5C381.8,60.9,380.8,60.2,380.8,59.1z"/>
</g>
<g>
	<path d="M380.8,66.6c0-1.8,2.5-3.5,4.5-3.5c1.3,0,2.3,0.7,2.3,1.7c0,1.7-2.5,3.5-4.6,3.5C381.8,68.3,380.8,67.7,380.8,66.6z"/>
</g>
<g>
	<path d="M380.8,71.5c0-1.8,2.5-3.5,4.5-3.5c1.3,0,2.3,0.7,2.3,1.7c0,1.7-2.5,3.5-4.6,3.5C381.8,73.3,380.8,72.6,380.8,71.5z"/>
</g>
<rect x="441.8" y="59.1" width="0.5" height="30.2"/>
<g>
	<path d="M446.1,55.6c1.6,0,2.7,0.7,2.7,2c0,1.9-2.3,3.4-4.5,3.4c-1.3,0-2.4-0.7-2.4-1.8C441.9,57.4,444.1,55.6,446.1,55.6z
		 M442.3,59.4c0,0.6,0.4,0.9,1.1,0.9c1.4,0,4.9-2.1,4.9-3.3c0-0.6-0.4-0.9-1.1-0.9C446,56.2,442.3,58.2,442.3,59.4z"/>
</g>
<g>
	<path d="M446.1,63c1.6,0,2.7,0.7,2.7,2c0,1.9-2.3,3.4-4.5,3.4c-1.3,0-2.4-0.7-2.4-1.8C441.9,64.8,444.1,63,446.1,63z M442.3,66.9
		c0,0.6,0.4,0.9,1.1,0.9c1.4,0,4.9-2.1,4.9-3.3c0-0.6-0.4-0.9-1.1-0.9C446,63.6,442.3,65.6,442.3,66.9z"/>
</g>
<g>
	<path d="M446.1,68c1.6,0,2.7,0.7,2.7,2c0,1.9-2.3,3.4-4.5,3.4c-1.3,0-2.4-0.7-2.4-1.8C441.9,69.8,444.1,68,446.1,68z M442.3,71.8
		c0,0.6,0.4,0.9,1.1,0.9c1.4,0,4.9-2.1,4.9-3.3c0-0.6-0.4-0.9-1.1-0.9C446,68.6,442.3,70.6,442.3,71.8z"/>
</g>
<g>
	<path d="M446.1,72.9c1.6,0,2.7,0.7,2.7,2c0,1.9-2.3,3.4-4.5,3.4c-1.3,0-2.4-0.7-2.4-1.8C441.9,74.7,444.1,72.9,446.1,72.9z
		 M442.3,76.8c0,0.6,0.4,0.9,1.1,0.9c1.4,0,4.9-2.1,4.9-3.3c0-0.6-0.4-0.9-1.1-0.9C446,73.5,442.3,75.6,442.3,76.8z"/>
</g>
</svg>
