<?xml version="1.0" encoding="utf-8"?>

<!--
	ScaleBook
	Copyright (c) Leland Jansen 2015. All rights reserved.
-->

<!DOCTYPE svg PUBLIC "-//W3C//DTD SVG 1.1//EN" "http://www.w3.org/Graphics/SVG/1.1/DTD/svg11.dtd">
<svg version="1.1" id="Layer_1" xmlns="http://www.w3.org/2000/svg" xmlns:xlink="http://www.w3.org/1999/xlink" x="0px" y="0px"
	 viewBox="0 0 553 98.5" enable-background="new 0 0 553 98.5" xml:space="preserve">
<rect x="8.5" y="15" width="0.8" height="71"/>
<g>
	<path d="M7.6,15.7c-2,1.1-3.7,6.1-3.7,10c0,2.4,1.4,10.5,1.4,13c0,5.3-1.6,9.2-4.7,11.8C3.7,53,5.3,57,5.3,62.2
		c0,2.4-1.4,10.5-1.4,13c0,4,1.8,8.9,3.7,10.1V86C4,83.6,1.7,77.3,1.7,72.1c0-2.3,1.8-9.9,1.8-12.2c0-4-1-7-3-8.7
		C0.1,50.9,0,50.7,0,50.5s0.1-0.4,0.5-0.7c2-1.8,3-4.5,3-8c0-2.3-1.8-10.6-1.8-12.9c0-5.5,2.1-11,5.9-13.8V15.7z"/>
</g>
<rect x="548" y="15" width="0.8" height="71"/>
<rect x="550.5" y="15" width="2.5" height="71"/>
<rect x="8.6" y="34.6" width="544.4" height="0.5"/>
<rect x="8.6" y="29.6" width="544.4" height="0.5"/>
<rect x="8.6" y="24.7" width="544.4" height="0.5"/>
<rect x="8.6" y="19.7" width="544.4" height="0.5"/>
<rect x="8.6" y="14.8" width="544.4" height="0.5"/>
<g>
	<path d="M20.4,34.7c-4.2,0-8.1-3.1-8.1-6.9c0-3.2,2.3-6.7,6.8-10.5c-0.3-1.2-0.4-2.4-0.4-3.6c0-3.5,1.2-6.8,3.2-8.5
		c1.8,2.5,2.7,4.9,2.7,7.1c0,2.9-1.3,5.6-4.3,8.1l0.9,4.2c0.5,0,0.8-0.1,0.8-0.1c2.6,0,4.8,2,4.8,4.7c0,1.9-1.4,3.7-3.6,4.8
		c0-0.1,0.9,3.8,0.9,4.3c0,2.5-2.3,4.2-4.9,4.2c-2,0-3.6-1.3-3.6-3.4c0-1.4,1-2.6,2.4-2.6c1.3,0,2.3,1.3,2.3,2.5
		c0,1.4-1.2,2.3-2.7,2.5c0.6,0.3,1.2,0.5,1.9,0.5c2.1,0,4.1-1.6,4.1-3.6c0-0.2,0-0.4-0.1-0.6l-0.8-3.7
		C22.1,34.5,21.4,34.7,20.4,34.7z M18.2,29.5c0,1,0.5,1.9,1.6,2.5c-1.8-0.3-3-1.4-3-3.1c0-2,1.7-3.7,3.8-4.1l-0.8-4
		c-3.7,2.8-5.7,5.5-5.7,8.1c0,2.9,2.8,5.3,6,5.3c0.9,0,1.7-0.2,2.4-0.5l-1.4-6.8C19.5,27.1,18.2,28.1,18.2,29.5z M22.3,8.1
		c-1.6,0-2.9,3.7-2.9,7c0,0.7,0,1.3,0.2,1.9c2.7-2.4,4-4.5,4-6.5c0-0.9-0.3-1.7-1-2.4C22.5,8.1,22.4,8.1,22.3,8.1z M25,30
		c0-1.6-1.2-3.3-2.9-3.3c-0.1,0-0.2,0-0.5,0l1.4,6.6C24.4,32.5,25,31.3,25,30z"/>
</g>
<g>
	<path d="M29.7,16.6h0.6l-0.1,6.2c0.4-0.7,1-1,1.8-1c1.2,0,2.2,0.8,2.2,1.9c0,0.8-0.5,1.8-1.7,2.7l-2.8,2.1V16.6z M30.3,23.5
		c-0.1,0.8-0.1,1.4-0.1,1.9c0,1,0,1.6,0.1,2c1-0.7,2.4-2.6,2.4-3.7c0-0.6-0.5-1.1-1.1-1.1C31,22.7,30.6,23,30.3,23.5z"/>
</g>
<rect x="8.6" y="85.8" width="544.4" height="0.5"/>
<rect x="8.6" y="80.8" width="544.4" height="0.5"/>
<rect x="8.6" y="75.8" width="544.4" height="0.5"/>
<rect x="8.6" y="70.9" width="544.4" height="0.5"/>
<rect x="8.6" y="65.9" width="544.4" height="0.5"/>
<g>
	<path d="M15.9,80.3c2.9-2.6,4.7-6.1,4.7-9.2c0-2.5-1.4-4.4-3.7-4.4c-1.6,0-3.4,1.3-3.4,2.7c0,0.2,0,0.3,0.1,0.3
		c-0.1,0,0.6-0.6,1.4-0.6c0.9,0,1.5,0.8,1.5,1.7c0,1.2-0.9,2.2-2.1,2.2c-1.2,0-2.1-1.3-2.1-2.8c0-2.3,2.3-4.1,4.8-4.1
		c4.7,0,5.9,3.2,5.9,5.8c0,1.6-0.4,2.9-2,5.3c-1.9,3.1-6.4,5.3-8.1,5.3c-0.4,0-0.6-0.2-0.6-0.5C14,81.6,15.1,81,15.9,80.3z
		 M25.8,67.6c0.6,0,1,0.4,1,1c0,0.6-0.4,1-1,1s-1-0.4-1-1C24.8,68.1,25.3,67.6,25.8,67.6z M25.8,72.6c0.6,0,1,0.4,1,1
		c0,0.6-0.4,1-1,1s-1-0.4-1-1C24.8,73,25.3,72.6,25.8,72.6z"/>
</g>
<g>
	<path d="M29.7,72.7h0.6L30.2,79c0.4-0.7,1-1,1.8-1c1.2,0,2.2,0.8,2.2,1.9c0,0.8-0.5,1.8-1.7,2.7l-2.8,2.1V72.7z M30.3,79.6
		c-0.1,0.8-0.1,1.4-0.1,1.9c0,1,0,1.6,0.1,2c1-0.7,2.4-2.6,2.4-3.7c0-0.6-0.5-1.1-1.1-1.1C31,78.8,30.6,79.1,30.3,79.6z"/>
</g>
<g>
	<path d="M165.5,84.6c-3.2,0-6.1-2.3-6.1-5.1c0-2.4,1.7-5,5.1-7.9c-0.2-0.9-0.3-1.8-0.3-2.7c0-2.6,0.9-5.1,2.4-6.3
		c1.4,1.9,2,3.7,2,5.3c0,2.2-1,4.2-3.2,6.1l0.7,3.1c0.4,0,0.6,0,0.6,0c2,0,3.6,1.5,3.6,3.5c0,1.4-1.1,2.8-2.7,3.6
		c0-0.1,0.6,2.8,0.6,3.3c0,1.9-1.7,3.2-3.7,3.2c-1.5,0-2.7-1-2.7-2.5c0-1.1,0.7-1.9,1.8-1.9c1,0,1.7,1,1.7,1.9c0,1-0.9,1.7-2,1.8
		c0.4,0.2,0.9,0.3,1.4,0.3c1.6,0,3.1-1.2,3.1-2.7c0-0.1,0-0.3,0-0.5l-0.6-2.8C166.7,84.5,166.2,84.6,165.5,84.6z M163.9,80.7
		c0,0.8,0.4,1.4,1.2,1.9c-1.3-0.2-2.2-1.1-2.2-2.3c0-1.5,1.3-2.8,2.9-3.1l-0.6-3c-2.8,2.1-4.3,4.1-4.3,6.1c0,2.2,2.1,4,4.5,4
		c0.7,0,1.3-0.1,1.8-0.4l-1.1-5.1C164.8,78.9,163.9,79.7,163.9,80.7z M166.9,64.7c-1.2,0-2.2,2.8-2.2,5.3c0,0.5,0,1,0.1,1.4
		c2-1.8,3-3.4,3-4.9c0-0.7-0.3-1.3-0.7-1.8C167.1,64.7,167,64.7,166.9,64.7z M169,81.1c0-1.2-0.9-2.4-2.2-2.4c0,0-0.2,0-0.4,0l1.1,5
		C168.5,83,169,82.1,169,81.1z"/>
</g>
<g>
	<path d="M358,78c2.2-2,3.6-4.6,3.6-6.9c0-1.9-1.1-3.3-2.8-3.3c-1.2,0-2.5,1-2.5,2.1c0,0.2,0,0.2,0.1,0.2c0,0,0.4-0.5,1-0.5
		c0.7,0,1.2,0.6,1.2,1.3c0,0.9-0.6,1.7-1.6,1.7s-1.5-1-1.5-2.1c0-1.8,1.7-3.1,3.6-3.1c3.5,0,4.4,2.4,4.4,4.4c0,1.2-0.3,2.2-1.5,4
		c-1.4,2.3-4.8,4-6,4c-0.3,0-0.5-0.1-0.5-0.3C356.6,79,357.5,78.6,358,78z M365.5,68.5c0.4,0,0.7,0.3,0.7,0.7c0,0.4-0.3,0.7-0.7,0.7
		c-0.4,0-0.7-0.3-0.7-0.7C364.8,68.8,365.1,68.5,365.5,68.5z M365.5,72.2c0.4,0,0.7,0.3,0.7,0.7s-0.3,0.7-0.7,0.7
		c-0.4,0-0.7-0.3-0.7-0.7S365.1,72.2,365.5,72.2z"/>
</g>
<rect x="49.1" y="5.1" width="0.5" height="31.5"/>
<g>
	<path d="M42.7,38.2c0-1.8,2.5-3.5,4.5-3.5c1.3,0,2.3,0.7,2.3,1.7c0,1.7-2.5,3.5-4.6,3.5C43.7,39.9,42.7,39.3,42.7,38.2z"/>
</g>
<g>
	<path d="M42.7,33.2c0-1.8,2.5-3.5,4.5-3.5c1.3,0,2.3,0.7,2.3,1.7c0,1.7-2.5,3.5-4.6,3.5C43.7,34.9,42.7,34.3,42.7,33.2z"/>
</g>
<g>
	<path d="M42.7,28.3c0-1.8,2.5-3.5,4.5-3.5c1.3,0,2.3,0.7,2.3,1.7c0,1.7-2.5,3.5-4.6,3.5C43.7,30,42.7,29.3,42.7,28.3z"/>
</g>
<g>
	<path d="M42.7,20.8c0-1.8,2.5-3.5,4.5-3.5c1.3,0,2.3,0.7,2.3,1.7c0,1.7-2.5,3.5-4.6,3.5C43.7,22.5,42.7,21.9,42.7,20.8z"/>
</g>
<rect x="107.9" y="15.8" width="0.5" height="30.2"/>
<g>
	<path d="M108,15.9c0-1.8,2.5-3.5,4.5-3.5c1.3,0,2.3,0.7,2.3,1.7c0,1.7-2.5,3.5-4.6,3.5C109,17.6,108,16.9,108,15.9z"/>
</g>
<g>
	<path d="M108,20.8c0-1.8,2.5-3.5,4.5-3.5c1.3,0,2.3,0.7,2.3,1.7c0,1.7-2.5,3.5-4.6,3.5C109,22.5,108,21.9,108,20.8z"/>
</g>
<g>
	<path d="M108,28.3c0-1.8,2.5-3.5,4.5-3.5c1.3,0,2.3,0.7,2.3,1.7c0,1.7-2.5,3.5-4.6,3.5C109,30,108,29.3,108,28.3z"/>
</g>
<g>
	<path d="M108,33.2c0-1.8,2.5-3.5,4.5-3.5c1.3,0,2.3,0.7,2.3,1.7c0,1.7-2.5,3.5-4.6,3.5C109,34.9,108,34.3,108,33.2z"/>
</g>
<rect x="171.5" y="9.7" width="10.5" height="0.8"/>
<rect x="173.3" y="10.8" width="0.5" height="32.7"/>
<g>
	<path d="M173.4,10.9c0-1.8,2.5-3.5,4.5-3.5c1.3,0,2.3,0.7,2.3,1.7c0,1.7-2.5,3.5-4.6,3.5C174.4,12.6,173.4,12,173.4,10.9z"/>
</g>
<g>
	<path d="M173.4,15.9c0-1.8,2.5-3.5,4.5-3.5c1.3,0,2.3,0.7,2.3,1.7c0,1.7-2.5,3.5-4.6,3.5C174.4,17.6,173.4,16.9,173.4,15.9z"/>
</g>
<g>
	<path d="M173.4,20.8c0-1.8,2.5-3.5,4.5-3.5c1.3,0,2.3,0.7,2.3,1.7c0,1.7-2.5,3.5-4.6,3.5C174.4,22.5,173.4,21.9,173.4,20.8z"/>
</g>
<g>
	<path d="M173.4,28.3c0-1.8,2.5-3.5,4.5-3.5c1.3,0,2.3,0.7,2.3,1.7c0,1.7-2.5,3.5-4.6,3.5C174.4,30,173.4,29.3,173.4,28.3z"/>
</g>
<rect x="236.8" y="9.7" width="10.5" height="0.8"/>
<rect x="236.8" y="4.7" width="10.5" height="0.8"/>
<rect x="238.6" y="3.4" width="0.5" height="33.9"/>
<g>
	<path d="M238.7,3.5c0-1.8,2.5-3.5,4.5-3.5c1.3,0,2.3,0.7,2.3,1.7c0,1.7-2.5,3.5-4.6,3.5C239.6,5.2,238.7,4.5,238.7,3.5z"/>
</g>
<g>
	<path d="M238.7,10.9c0-1.8,2.5-3.5,4.5-3.5c1.3,0,2.3,0.7,2.3,1.7c0,1.7-2.5,3.5-4.6,3.5C239.6,12.6,238.7,12,238.7,10.9z"/>
</g>
<g>
	<path d="M238.7,15.9c0-1.8,2.5-3.5,4.5-3.5c1.3,0,2.3,0.7,2.3,1.7c0,1.7-2.5,3.5-4.6,3.5C239.6,17.6,238.7,16.9,238.7,15.9z"/>
</g>
<g>
	<path d="M238.7,20.8c0-1.8,2.5-3.5,4.5-3.5c1.3,0,2.3,0.7,2.3,1.7c0,1.7-2.5,3.5-4.6,3.5C239.6,22.5,238.7,21.9,238.7,20.8z"/>
</g>
<rect x="302.1" y="9.7" width="10.5" height="0.8"/>
<rect x="303.8" y="10.8" width="0.5" height="32.7"/>
<g>
	<path d="M303.9,10.9c0-1.8,2.5-3.5,4.5-3.5c1.3,0,2.3,0.7,2.3,1.7c0,1.7-2.5,3.5-4.6,3.5C304.9,12.6,303.9,12,303.9,10.9z"/>
</g>
<g>
	<path d="M303.9,15.9c0-1.8,2.5-3.5,4.5-3.5c1.3,0,2.3,0.7,2.3,1.7c0,1.7-2.5,3.5-4.6,3.5C304.9,17.6,303.9,16.9,303.9,15.9z"/>
</g>
<g>
	<path d="M303.9,20.8c0-1.8,2.5-3.5,4.5-3.5c1.3,0,2.3,0.7,2.3,1.7c0,1.7-2.5,3.5-4.6,3.5C304.9,22.5,303.9,21.9,303.9,20.8z"/>
</g>
<g>
	<path d="M303.9,28.3c0-1.8,2.5-3.5,4.5-3.5c1.3,0,2.3,0.7,2.3,1.7c0,1.7-2.5,3.5-4.6,3.5C304.9,30,303.9,29.3,303.9,28.3z"/>
</g>
<rect x="369.3" y="15.8" width="0.5" height="30.2"/>
<g>
	<path d="M369.3,15.9c0-1.8,2.5-3.5,4.5-3.5c1.3,0,2.3,0.7,2.3,1.7c0,1.7-2.5,3.5-4.6,3.5C370.3,17.6,369.3,16.9,369.3,15.9z"/>
</g>
<g>
	<path d="M369.3,20.8c0-1.8,2.5-3.5,4.5-3.5c1.3,0,2.3,0.7,2.3,1.7c0,1.7-2.5,3.5-4.6,3.5C370.3,22.5,369.3,21.9,369.3,20.8z"/>
</g>
<g>
	<path d="M369.3,28.3c0-1.8,2.5-3.5,4.5-3.5c1.3,0,2.3,0.7,2.3,1.7c0,1.7-2.5,3.5-4.6,3.5C370.3,30,369.3,29.3,369.3,28.3z"/>
</g>
<g>
	<path d="M369.3,33.2c0-1.8,2.5-3.5,4.5-3.5c1.3,0,2.3,0.7,2.3,1.7c0,1.7-2.5,3.5-4.6,3.5C370.3,34.9,369.3,34.3,369.3,33.2z"/>
</g>
<rect x="441.2" y="5.1" width="0.5" height="31.5"/>
<g>
	<path d="M438.9,34.6c1.6,0,2.7,0.7,2.7,2c0,1.9-2.3,3.4-4.5,3.4c-1.3,0-2.4-0.7-2.4-1.8C434.6,36.4,436.8,34.6,438.9,34.6z
		 M435.1,38.5c0,0.6,0.4,0.9,1.1,0.9c1.4,0,4.9-2.1,4.9-3.3c0-0.6-0.4-0.9-1.1-0.9C438.7,35.2,435.1,37.2,435.1,38.5z"/>
</g>
<g>
	<path d="M438.9,29.7c1.6,0,2.7,0.7,2.7,2c0,1.9-2.3,3.4-4.5,3.4c-1.3,0-2.4-0.7-2.4-1.8C434.6,31.4,436.8,29.7,438.9,29.7z
		 M435.1,33.5c0,0.6,0.4,0.9,1.1,0.9c1.4,0,4.9-2.1,4.9-3.3c0-0.6-0.4-0.9-1.1-0.9C438.7,30.3,435.1,32.3,435.1,33.5z"/>
</g>
<g>
	<path d="M438.9,24.7c1.6,0,2.7,0.7,2.7,2c0,1.9-2.3,3.4-4.5,3.4c-1.3,0-2.4-0.7-2.4-1.8C434.6,26.5,436.8,24.7,438.9,24.7z
		 M435.1,28.5c0,0.6,0.4,0.9,1.1,0.9c1.4,0,4.9-2.1,4.9-3.3c0-0.6-0.4-0.9-1.1-0.9C438.7,25.3,435.1,27.3,435.1,28.5z"/>
</g>
<g>
	<path d="M438.9,17.3c1.6,0,2.7,0.7,2.7,2c0,1.9-2.3,3.4-4.5,3.4c-1.3,0-2.4-0.7-2.4-1.8C434.6,19,436.8,17.3,438.9,17.3z
		 M435.1,21.1c0,0.6,0.4,0.9,1.1,0.9c1.4,0,4.9-2.1,4.9-3.3c0-0.6-0.4-0.9-1.1-0.9C438.7,17.9,435.1,19.9,435.1,21.1z"/>
</g>
<rect x="40.9" y="60.8" width="10.5" height="0.8"/>
<rect x="42.6" y="59.5" width="0.5" height="33.9"/>
<g>
	<path d="M42.7,59.6c0-1.8,2.5-3.5,4.5-3.5c1.3,0,2.3,0.7,2.3,1.7c0,1.7-2.5,3.5-4.6,3.5C43.7,61.3,42.7,60.7,42.7,59.6z"/>
</g>
<g>
	<path d="M42.7,67c0-1.8,2.5-3.5,4.5-3.5c1.3,0,2.3,0.7,2.3,1.7c0,1.7-2.5,3.5-4.6,3.5C43.7,68.7,42.7,68.1,42.7,67z"/>
</g>
<g>
	<path d="M42.7,72c0-1.8,2.5-3.5,4.5-3.5c1.3,0,2.3,0.7,2.3,1.7c0,1.7-2.5,3.5-4.6,3.5C43.7,73.7,42.7,73.1,42.7,72z"/>
</g>
<g>
	<path d="M42.7,76.9c0-1.8,2.5-3.5,4.5-3.5c1.3,0,2.3,0.7,2.3,1.7c0,1.7-2.5,3.5-4.6,3.5C43.7,78.7,42.7,78,42.7,76.9z"/>
</g>
<rect x="106.1" y="60.8" width="10.5" height="0.8"/>
<rect x="106.1" y="55.8" width="10.5" height="0.8"/>
<rect x="107.9" y="54.5" width="0.5" height="33.9"/>
<g>
	<path d="M108,54.6c0-1.8,2.5-3.5,4.5-3.5c1.3,0,2.3,0.7,2.3,1.7c0,1.7-2.5,3.5-4.6,3.5C109,56.3,108,55.7,108,54.6z"/>
</g>
<g>
	<path d="M108,59.6c0-1.8,2.5-3.5,4.5-3.5c1.3,0,2.3,0.7,2.3,1.7c0,1.7-2.5,3.5-4.6,3.5C109,61.3,108,60.7,108,59.6z"/>
</g>
<g>
	<path d="M108,67c0-1.8,2.5-3.5,4.5-3.5c1.3,0,2.3,0.7,2.3,1.7c0,1.7-2.5,3.5-4.6,3.5C109,68.7,108,68.1,108,67z"/>
</g>
<g>
	<path d="M108,72c0-1.8,2.5-3.5,4.5-3.5c1.3,0,2.3,0.7,2.3,1.7c0,1.7-2.5,3.5-4.6,3.5C109,73.7,108,73.1,108,72z"/>
</g>
<rect x="171.5" y="90.6" width="10.5" height="0.8"/>
<rect x="171.5" y="95.5" width="10.5" height="0.8"/>
<rect x="179.8" y="61.2" width="0.5" height="33.9"/>
<g>
	<path d="M173.4,96.8c0-1.8,2.5-3.5,4.5-3.5c1.3,0,2.3,0.7,2.3,1.7c0,1.7-2.5,3.5-4.6,3.5C174.4,98.5,173.4,97.9,173.4,96.8z"/>
</g>
<g>
	<path d="M173.4,89.3c0-1.8,2.5-3.5,4.5-3.5c1.3,0,2.3,0.7,2.3,1.7c0,1.7-2.5,3.5-4.6,3.5C174.4,91.1,173.4,90.4,173.4,89.3z"/>
</g>
<g>
	<path d="M173.4,84.4c0-1.8,2.5-3.5,4.5-3.5c1.3,0,2.3,0.7,2.3,1.7c0,1.7-2.5,3.5-4.6,3.5C174.4,86.1,173.4,85.5,173.4,84.4z"/>
</g>
<g>
	<path d="M173.4,79.4c0-1.8,2.5-3.5,4.5-3.5c1.3,0,2.3,0.7,2.3,1.7c0,1.7-2.5,3.5-4.6,3.5C174.4,81.1,173.4,80.5,173.4,79.4z"/>
</g>
<rect x="245.1" y="56.2" width="0.5" height="31.5"/>
<g>
	<path d="M238.7,89.3c0-1.8,2.5-3.5,4.5-3.5c1.3,0,2.3,0.7,2.3,1.7c0,1.7-2.5,3.5-4.6,3.5C239.6,91.1,238.7,90.4,238.7,89.3z"/>
</g>
<g>
	<path d="M238.7,84.4c0-1.8,2.5-3.5,4.5-3.5c1.3,0,2.3,0.7,2.3,1.7c0,1.7-2.5,3.5-4.6,3.5C239.6,86.1,238.7,85.5,238.7,84.4z"/>
</g>
<g>
	<path d="M238.7,79.4c0-1.8,2.5-3.5,4.5-3.5c1.3,0,2.3,0.7,2.3,1.7c0,1.7-2.5,3.5-4.6,3.5C239.6,81.1,238.7,80.5,238.7,79.4z"/>
</g>
<g>
	<path d="M238.7,72c0-1.8,2.5-3.5,4.5-3.5c1.3,0,2.3,0.7,2.3,1.7c0,1.7-2.5,3.5-4.6,3.5C239.6,73.7,238.7,73.1,238.7,72z"/>
</g>
<rect x="302.1" y="90.6" width="10.5" height="0.8"/>
<rect x="302.1" y="95.5" width="10.5" height="0.8"/>
<rect x="310.4" y="61.2" width="0.5" height="33.9"/>
<g>
	<path d="M303.9,96.8c0-1.8,2.5-3.5,4.5-3.5c1.3,0,2.3,0.7,2.3,1.7c0,1.7-2.5,3.5-4.6,3.5C304.9,98.5,303.9,97.9,303.9,96.8z"/>
</g>
<g>
	<path d="M303.9,89.3c0-1.8,2.5-3.5,4.5-3.5c1.3,0,2.3,0.7,2.3,1.7c0,1.7-2.5,3.5-4.6,3.5C304.9,91.1,303.9,90.4,303.9,89.3z"/>
</g>
<g>
	<path d="M303.9,84.4c0-1.8,2.5-3.5,4.5-3.5c1.3,0,2.3,0.7,2.3,1.7c0,1.7-2.5,3.5-4.6,3.5C304.9,86.1,303.9,85.5,303.9,84.4z"/>
</g>
<g>
	<path d="M303.9,79.4c0-1.8,2.5-3.5,4.5-3.5c1.3,0,2.3,0.7,2.3,1.7c0,1.7-2.5,3.5-4.6,3.5C304.9,81.1,303.9,80.5,303.9,79.4z"/>
</g>
<rect x="367.5" y="60.8" width="10.5" height="0.8"/>
<rect x="367.5" y="55.8" width="10.5" height="0.8"/>
<rect x="369.3" y="54.5" width="0.5" height="33.9"/>
<g>
	<path d="M369.3,54.6c0-1.8,2.5-3.5,4.5-3.5c1.3,0,2.3,0.7,2.3,1.7c0,1.7-2.5,3.5-4.6,3.5C370.3,56.3,369.3,55.7,369.3,54.6z"/>
</g>
<g>
	<path d="M369.3,59.6c0-1.8,2.5-3.5,4.5-3.5c1.3,0,2.3,0.7,2.3,1.7c0,1.7-2.5,3.5-4.6,3.5C370.3,61.3,369.3,60.7,369.3,59.6z"/>
</g>
<g>
	<path d="M369.3,67c0-1.8,2.5-3.5,4.5-3.5c1.3,0,2.3,0.7,2.3,1.7c0,1.7-2.5,3.5-4.6,3.5C370.3,68.7,369.3,68.1,369.3,67z"/>
</g>
<g>
	<path d="M369.3,72c0-1.8,2.5-3.5,4.5-3.5c1.3,0,2.3,0.7,2.3,1.7c0,1.7-2.5,3.5-4.6,3.5C370.3,73.7,369.3,73.1,369.3,72z"/>
</g>
<rect x="432.7" y="60.8" width="10.7" height="0.8"/>
<rect x="434.5" y="59.5" width="0.5" height="33.9"/>
<g>
	<path d="M438.9,56c1.6,0,2.7,0.7,2.7,2c0,1.9-2.3,3.4-4.5,3.4c-1.3,0-2.4-0.7-2.4-1.8C434.6,57.8,436.8,56,438.9,56z M435.1,59.9
		c0,0.6,0.4,0.9,1.1,0.9c1.4,0,4.9-2.1,4.9-3.3c0-0.6-0.4-0.9-1.1-0.9C438.7,56.6,435.1,58.6,435.1,59.9z"/>
</g>
<g>
	<path d="M438.9,63.5c1.6,0,2.7,0.7,2.7,2c0,1.9-2.3,3.4-4.5,3.4c-1.3,0-2.4-0.7-2.4-1.8C434.6,65.2,436.8,63.5,438.9,63.5z
		 M435.1,67.3c0,0.6,0.4,0.9,1.1,0.9c1.4,0,4.9-2.1,4.9-3.3c0-0.6-0.4-0.9-1.1-0.9C438.7,64,435.1,66.1,435.1,67.3z"/>
</g>
<g>
	<path d="M438.9,68.4c1.6,0,2.7,0.7,2.7,2c0,1.9-2.3,3.4-4.5,3.4c-1.3,0-2.4-0.7-2.4-1.8C434.6,70.2,436.8,68.4,438.9,68.4z
		 M435.1,72.3c0,0.6,0.4,0.9,1.1,0.9c1.4,0,4.9-2.1,4.9-3.3c0-0.6-0.4-0.9-1.1-0.9C438.7,69,435.1,71,435.1,72.3z"/>
</g>
<g>
	<path d="M438.9,73.4c1.6,0,2.7,0.7,2.7,2c0,1.9-2.3,3.4-4.5,3.4c-1.3,0-2.4-0.7-2.4-1.8C434.6,75.2,436.8,73.4,438.9,73.4z
		 M435.1,77.2c0,0.6,0.4,0.9,1.1,0.9c1.4,0,4.9-2.1,4.9-3.3c0-0.6-0.4-0.9-1.1-0.9C438.7,74,435.1,76,435.1,77.2z"/>
</g>
</svg>
