<?xml version="1.0" encoding="utf-8"?>

<!--
	ScaleBook
	Copyright (c) Leland Jansen 2015. All rights reserved.
-->

<!DOCTYPE svg PUBLIC "-//W3C//DTD SVG 1.1//EN" "http://www.w3.org/Graphics/SVG/1.1/DTD/svg11.dtd">
<svg version="1.1" id="Layer_1" xmlns="http://www.w3.org/2000/svg" xmlns:xlink="http://www.w3.org/1999/xlink" x="0px" y="0px"
	 viewBox="0 0 553 93.3" enable-background="new 0 0 553 93.3" xml:space="preserve">
<rect x="8.5" y="12.4" width="0.8" height="71"/>
<g>
	<path d="M7.6,13.1c-2,1.1-3.7,6.1-3.7,10c0,2.4,1.4,10.5,1.4,13c0,5.3-1.6,9.2-4.7,11.8c3.1,2.6,4.7,6.5,4.7,11.7
		c0,2.4-1.4,10.5-1.4,13c0,4,1.8,8.9,3.7,10.1v0.7C4,81,1.7,74.7,1.7,69.5c0-2.3,1.8-9.9,1.8-12.2c0-4-1-7-3-8.7
		C0.1,48.3,0,48.1,0,47.9c0-0.2,0.1-0.4,0.5-0.7c2-1.8,3-4.5,3-8c0-2.3-1.8-10.7-1.8-12.9c0-5.5,2.1-11,5.9-13.8V13.1z"/>
</g>
<rect x="548" y="12.4" width="0.8" height="71"/>
<rect x="550.5" y="12.4" width="2.5" height="71"/>
<rect x="8.6" y="32" width="544.4" height="0.5"/>
<rect x="8.6" y="27" width="544.4" height="0.5"/>
<rect x="8.6" y="22.1" width="544.4" height="0.5"/>
<rect x="8.6" y="17.1" width="544.4" height="0.5"/>
<rect x="8.6" y="12.2" width="544.4" height="0.5"/>
<g>
	<path d="M20.4,32.1c-4.2,0-8.1-3.1-8.1-6.9c0-3.2,2.3-6.7,6.8-10.5c-0.3-1.2-0.4-2.4-0.4-3.6c0-3.5,1.2-6.8,3.2-8.5
		c1.8,2.5,2.7,4.9,2.7,7.1c0,2.9-1.3,5.6-4.3,8.1l0.9,4.2C21.7,22,22,22,22,22c2.6,0,4.8,2,4.8,4.7c0,1.9-1.4,3.7-3.6,4.8
		c0-0.1,0.9,3.8,0.9,4.3c0,2.5-2.3,4.2-4.9,4.2c-2,0-3.6-1.3-3.6-3.4c0-1.4,1-2.6,2.4-2.6c1.3,0,2.3,1.3,2.3,2.5
		c0,1.4-1.2,2.3-2.7,2.5c0.6,0.3,1.2,0.5,1.9,0.5c2.1,0,4.1-1.6,4.1-3.6c0-0.2,0-0.4-0.1-0.6l-0.8-3.7
		C22.1,31.9,21.4,32.1,20.4,32.1z M18.2,26.9c0,1,0.5,1.9,1.6,2.5c-1.8-0.3-3-1.4-3-3.1c0-2,1.7-3.7,3.8-4.1l-0.8-4
		c-3.7,2.8-5.7,5.5-5.7,8.1c0,2.9,2.8,5.3,6,5.3c0.9,0,1.7-0.2,2.4-0.5l-1.4-6.8C19.5,24.5,18.2,25.5,18.2,26.9z M22.3,5.5
		c-1.6,0-2.9,3.7-2.9,7c0,0.7,0,1.3,0.2,1.9c2.7-2.4,4-4.5,4-6.5c0-0.9-0.3-1.7-1-2.4C22.5,5.5,22.4,5.5,22.3,5.5z M25,27.4
		c0-1.6-1.2-3.3-2.9-3.3c-0.1,0-0.2,0-0.5,0l1.4,6.6C24.4,29.9,25,28.7,25,27.4z"/>
</g>
<g>
	<path d="M33.6,5.6v2.8l1-0.3v1.8l-1,0.3v3.4l1-0.3v1.8l-1,0.3v3.1h-0.5v-3l-1.9,0.6v3h-0.5v-2.8l-1,0.3v-1.8l1-0.3v-3.4l-1,0.3V9.7
		l1-0.3V6.2h0.5v3l1.9-0.6v-3H33.6z M33.1,10.4L31.2,11v3.4l1.9-0.6V10.4z"/>
</g>
<g>
	<path d="M39.8,13v2.8l1-0.3v1.8l-1,0.3v3.4l1-0.3v1.8l-1,0.3V26h-0.5v-3l-1.9,0.6v3h-0.5v-2.8l-1,0.3v-1.8l1-0.3v-3.4l-1,0.3v-1.8
		l1-0.3v-3.1h0.5v3l1.9-0.6v-3H39.8z M39.3,17.8l-1.9,0.6v3.4l1.9-0.6V17.8z"/>
</g>
<g>
	<path d="M46,3.1v2.8l1-0.3v1.8l-1,0.3v3.4l1-0.3v1.8L46,13v3.1h-0.5v-3l-1.9,0.6v3h-0.5v-2.8l-1,0.3v-1.8l1-0.3V8.7l-1,0.3V7.2
		l1-0.3V3.7h0.5v3l1.9-0.6v-3H46z M45.5,7.9l-1.9,0.6v3.4l1.9-0.6V7.9z"/>
</g>
<g>
	<path d="M52.2,10.5v2.8l1-0.3v1.8l-1,0.3v3.4l1-0.3v1.8l-1,0.3v3.1h-0.5v-3l-1.9,0.6v3h-0.5v-2.8l-1,0.3v-1.8l1-0.3v-3.4l-1,0.3
		v-1.8l1-0.3v-3.1h0.5v3l1.9-0.6v-3H52.2z M51.7,15.3L49.8,16v3.4l1.9-0.6V15.3z"/>
</g>
<g>
	<path d="M58.4,18v2.8l1-0.3v1.8l-1,0.3v3.4l1-0.3v1.8l-1,0.3V31h-0.5v-3L56,28.6v3h-0.5v-2.8l-1,0.3v-1.8l1-0.3v-3.4l-1,0.3v-1.8
		l1-0.3v-3.1H56v3l1.9-0.6v-3H58.4z M57.9,22.8L56,23.4v3.4l1.9-0.6V22.8z"/>
</g>
<g>
	<path d="M64.6,8.1v2.8l1-0.3v1.8l-1,0.3v3.4l1-0.3v1.8l-1,0.3V21h-0.5v-3l-1.9,0.6v3h-0.5v-2.8l-1,0.3v-1.8l1-0.3v-3.4l-1,0.3v-1.8
		l1-0.3V8.7h0.5v3l1.9-0.6v-3H64.6z M64.1,12.8l-1.9,0.6v3.4l1.9-0.6V12.8z"/>
</g>
<g>
	<path d="M70.8,15.5v2.8l1-0.3v1.8l-1,0.3v3.4l1-0.3V25l-1,0.3v3.1h-0.5v-3l-1.9,0.6v3h-0.5v-2.8l-1,0.3v-1.8l1-0.3v-3.4l-1,0.3
		v-1.8l1-0.3v-3.1h0.5v3l1.9-0.6v-3H70.8z M70.3,20.3l-1.9,0.6v3.4l1.9-0.6V20.3z"/>
</g>
<polygon fill-rule="evenodd" clip-rule="evenodd" points="205.9,18.6 250.4,13.6 250.4,11.2 205.9,16.1 "/>
<polygon fill-rule="evenodd" clip-rule="evenodd" points="205.9,14.9 250.4,9.9 250.4,7.4 205.9,12.4 "/>
<polygon fill-rule="evenodd" clip-rule="evenodd" points="199.4,44.6 243.9,39.7 243.9,37.2 199.4,42.2 "/>
<polygon fill-rule="evenodd" clip-rule="evenodd" points="199.4,48.4 243.9,43.4 243.9,40.9 199.4,45.9 "/>
<rect x="265.2" y="3.7" fill-rule="evenodd" clip-rule="evenodd" width="44.5" height="2.5"/>
<rect x="265.2" fill-rule="evenodd" clip-rule="evenodd" width="44.5" height="2.5"/>
<polygon fill-rule="evenodd" clip-rule="evenodd" points="258.7,37.2 303.1,36 303.1,33.5 258.7,34.7 "/>
<polygon fill-rule="evenodd" clip-rule="evenodd" points="258.7,40.9 303.1,39.7 303.1,37.2 258.7,38.4 "/>
<polygon fill-rule="evenodd" clip-rule="evenodd" points="318,37.2 362.5,42.2 362.5,39.7 318,34.7 "/>
<polygon fill-rule="evenodd" clip-rule="evenodd" points="318,40.9 362.5,45.9 362.5,43.4 318,38.4 "/>
<polygon fill-rule="evenodd" clip-rule="evenodd" points="324.5,8.7 369,13.6 369,11.2 324.5,6.2 "/>
<polygon fill-rule="evenodd" clip-rule="evenodd" points="324.5,5 369,9.9 369,7.4 324.5,2.5 "/>
<rect x="8.6" y="83.2" width="544.4" height="0.5"/>
<rect x="8.6" y="78.2" width="544.4" height="0.5"/>
<rect x="8.6" y="73.2" width="544.4" height="0.5"/>
<rect x="8.6" y="68.3" width="544.4" height="0.5"/>
<rect x="8.6" y="63.3" width="544.4" height="0.5"/>
<g>
	<path d="M15.9,77.7c2.9-2.6,4.7-6.1,4.7-9.2c0-2.5-1.4-4.4-3.7-4.4c-1.6,0-3.4,1.3-3.4,2.7c0,0.2,0,0.3,0.1,0.3
		c-0.1,0,0.6-0.6,1.4-0.6c0.9,0,1.5,0.8,1.5,1.7c0,1.2-0.9,2.2-2.1,2.2c-1.2,0-2.1-1.3-2.1-2.8c0-2.3,2.3-4.1,4.8-4.1
		c4.7,0,5.9,3.2,5.9,5.8c0,1.6-0.4,2.9-2,5.3c-1.9,3.1-6.4,5.3-8.1,5.3c-0.4,0-0.6-0.2-0.6-0.5C14,79,15.1,78.4,15.9,77.7z M25.8,65
		c0.6,0,1,0.4,1,1s-0.4,1-1,1s-1-0.4-1-1S25.3,65,25.8,65z M25.8,70c0.6,0,1,0.4,1,1s-0.4,1-1,1s-1-0.4-1-1S25.3,70,25.8,70z"/>
</g>
<g>
	<path d="M33.6,61.7v2.8l1-0.3V66l-1,0.3v3.4l1-0.3v1.8l-1,0.3v3.1h-0.5v-3l-1.9,0.6v3h-0.5v-2.8l-1,0.3V71l1-0.3v-3.4l-1,0.3v-1.8
		l1-0.3v-3.1h0.5v3l1.9-0.6v-3H33.6z M33.1,66.5l-1.9,0.6v3.4l1.9-0.6V66.5z"/>
</g>
<g>
	<path d="M39.8,69.1V72l1-0.3v1.8l-1,0.3v3.4l1-0.3v1.8l-1,0.3v3.1h-0.5v-3l-1.9,0.6v3h-0.5v-2.8l-1,0.3v-1.8l1-0.3v-3.4l-1,0.3
		v-1.8l1-0.3v-3.1h0.5v3l1.9-0.6v-3H39.8z M39.3,73.9l-1.9,0.6V78l1.9-0.6V73.9z"/>
</g>
<g>
	<path d="M46,59.2V62l1-0.3v1.8l-1,0.3v3.4l1-0.3v1.8l-1,0.3v3.1h-0.5v-3l-1.9,0.6v3h-0.5V70l-1,0.3v-1.8l1-0.3v-3.4l-1,0.3v-1.8
		l1-0.3v-3.1h0.5v3l1.9-0.6v-3H46z M45.5,64l-1.9,0.6v3.4l1.9-0.6V64z"/>
</g>
<g>
	<path d="M52.2,66.7v2.8l1-0.3V71l-1,0.3v3.4l1-0.3v1.8l-1,0.3v3.1h-0.5v-3l-1.9,0.6v3h-0.5v-2.8l-1,0.3V76l1-0.3v-3.4l-1,0.3v-1.8
		l1-0.3v-3.1h0.5v3l1.9-0.6v-3H52.2z M51.7,71.4l-1.9,0.6v3.4l1.9-0.6V71.4z"/>
</g>
<g>
	<path d="M58.4,74.1v2.8l1-0.3v1.8l-1,0.3v3.4l1-0.3v1.8l-1,0.3v3.1h-0.5v-3L56,84.7v3h-0.5v-2.8l-1,0.3v-1.8l1-0.3v-3.4l-1,0.3
		v-1.8l1-0.3v-3.1H56v3l1.9-0.6v-3H58.4z M57.9,78.9L56,79.5v3.4l1.9-0.6V78.9z"/>
</g>
<g>
	<path d="M64.6,64.2V67l1-0.3v1.8l-1,0.3v3.4l1-0.3v1.8l-1,0.3v3.1h-0.5v-3l-1.9,0.6v3h-0.5V75l-1,0.3v-1.8l1-0.3v-3.4l-1,0.3v-1.8
		l1-0.3v-3.1h0.5v3l1.9-0.6v-3H64.6z M64.1,69l-1.9,0.6V73l1.9-0.6V69z"/>
</g>
<g>
	<path d="M70.8,71.6v2.8l1-0.3v1.8l-1,0.3v3.4l1-0.3v1.8l-1,0.3v3.1h-0.5v-3l-1.9,0.6v3h-0.5v-2.8l-1,0.3v-1.8l1-0.3v-3.4l-1,0.3
		v-1.8l1-0.3v-3.1h0.5v3l1.9-0.6v-3H70.8z M70.3,76.4L68.4,77v3.4l1.9-0.6V76.4z"/>
</g>
<polygon fill-rule="evenodd" clip-rule="evenodd" points="87.2,61.1 131.7,56.1 131.7,53.6 87.2,58.6 "/>
<polygon fill-rule="evenodd" clip-rule="evenodd" points="87.2,57.4 131.7,52.4 131.7,49.9 87.2,54.9 "/>
<polygon fill-rule="evenodd" clip-rule="evenodd" points="80.7,89.6 125.2,84.6 125.2,82.2 80.7,87.1 "/>
<polygon fill-rule="evenodd" clip-rule="evenodd" points="80.7,93.3 125.2,88.4 125.2,85.9 80.7,90.8 "/>
<polygon fill-rule="evenodd" clip-rule="evenodd" points="140.1,79.7 184.6,74.7 184.6,72.2 140.1,77.2 "/>
<polygon fill-rule="evenodd" clip-rule="evenodd" points="140.1,83.4 184.6,78.4 184.6,76 140.1,80.9 "/>
<polygon fill-rule="evenodd" clip-rule="evenodd" points="146.6,51.2 191.1,46.2 191.1,43.7 146.6,48.7 "/>
<polygon fill-rule="evenodd" clip-rule="evenodd" points="146.6,47.4 191.1,42.5 191.1,40 146.6,45 "/>
<polygon fill-rule="evenodd" clip-rule="evenodd" points="383.9,43.7 428.4,48.7 428.4,46.2 383.9,41.2 "/>
<polygon fill-rule="evenodd" clip-rule="evenodd" points="383.9,40 428.4,45 428.4,42.5 383.9,37.5 "/>
<polygon fill-rule="evenodd" clip-rule="evenodd" points="377.4,69.8 421.9,74.7 421.9,72.2 377.4,67.3 "/>
<polygon fill-rule="evenodd" clip-rule="evenodd" points="377.4,73.5 421.9,78.4 421.9,76 377.4,71 "/>
<polygon fill-rule="evenodd" clip-rule="evenodd" points="443.3,53.6 487.8,58.6 487.8,56.1 443.3,51.2 "/>
<polygon fill-rule="evenodd" clip-rule="evenodd" points="443.3,49.9 487.8,54.9 487.8,52.4 443.3,47.4 "/>
<polygon fill-rule="evenodd" clip-rule="evenodd" points="436.8,79.7 481.3,84.6 481.3,82.2 436.8,77.2 "/>
<polygon fill-rule="evenodd" clip-rule="evenodd" points="436.8,83.4 481.3,88.4 481.3,85.9 436.8,80.9 "/>
<rect x="205.7" y="12.6" width="0.5" height="16.4"/>
<g>
	<path d="M199.3,30.6c0-1.8,2.5-3.5,4.5-3.5c1.3,0,2.3,0.7,2.3,1.7c0,1.7-2.5,3.5-4.6,3.5C200.3,32.3,199.3,31.7,199.3,30.6z"/>
</g>
<rect x="220.4" y="11" width="0.5" height="15.5"/>
<g>
	<path d="M214,28.1c0-1.8,2.5-3.5,4.5-3.5c1.3,0,2.3,0.7,2.3,1.7c0,1.7-2.5,3.5-4.6,3.5C215,29.9,214,29.2,214,28.1z"/>
</g>
<rect x="235.3" y="9.3" width="0.5" height="14.7"/>
<g>
	<path d="M228.9,25.7c0-1.8,2.5-3.5,4.5-3.5c1.3,0,2.3,0.7,2.3,1.7c0,1.7-2.5,3.5-4.6,3.5C229.9,27.4,228.9,26.7,228.9,25.7z"/>
</g>
<rect x="250.2" y="7.6" width="0.5" height="14"/>
<g>
	<path d="M243.8,23.2c0-1.8,2.5-3.5,4.5-3.5c1.3,0,2.3,0.7,2.3,1.7c0,1.7-2.5,3.5-4.6,3.5C244.7,24.9,243.8,24.3,243.8,23.2z"/>
</g>
<rect x="199.2" y="35.5" width="0.5" height="12.7"/>
<g>
	<path d="M199.3,35.6c0-1.8,2.5-3.5,4.5-3.5c1.3,0,2.3,0.7,2.3,1.7c0,1.7-2.5,3.5-4.6,3.5C200.3,37.3,199.3,36.7,199.3,35.6z"/>
</g>
<rect x="213.9" y="33" width="0.5" height="13.6"/>
<g>
	<path d="M214,33.1c0-1.8,2.5-3.5,4.5-3.5c1.3,0,2.3,0.7,2.3,1.7c0,1.7-2.5,3.5-4.6,3.5C215,34.8,214,34.2,214,33.1z"/>
</g>
<rect x="228.8" y="30.5" width="0.5" height="14.4"/>
<g>
	<path d="M228.9,30.6c0-1.8,2.5-3.5,4.5-3.5c1.3,0,2.3,0.7,2.3,1.7c0,1.7-2.5,3.5-4.6,3.5C229.9,32.3,228.9,31.7,228.9,30.6z"/>
</g>
<rect x="243.7" y="28.1" width="0.5" height="15.2"/>
<g>
	<path d="M243.8,28.1c0-1.8,2.5-3.5,4.5-3.5c1.3,0,2.3,0.7,2.3,1.7c0,1.7-2.5,3.5-4.6,3.5C244.7,29.9,243.8,29.2,243.8,28.1z"/>
</g>
<rect x="264.9" y="0.2" width="0.5" height="18.9"/>
<g>
	<path d="M258.5,20.7c0-1.8,2.5-3.5,4.5-3.5c1.3,0,2.3,0.7,2.3,1.7c0,1.7-2.5,3.5-4.6,3.5C259.5,22.4,258.5,21.8,258.5,20.7z"/>
</g>
<rect x="279.8" y="0.2" width="0.5" height="16.4"/>
<g>
	<path d="M273.4,18.2c0-1.8,2.5-3.5,4.5-3.5c1.3,0,2.3,0.7,2.3,1.7c0,1.7-2.5,3.5-4.6,3.5C274.4,19.9,273.4,19.3,273.4,18.2z"/>
</g>
<rect x="294.7" y="0.2" width="0.5" height="14"/>
<g>
	<path d="M288.3,15.7c0-1.8,2.5-3.5,4.5-3.5c1.3,0,2.3,0.7,2.3,1.7c0,1.7-2.5,3.5-4.6,3.5C289.2,17.5,288.3,16.8,288.3,15.7z"/>
</g>
<rect x="309.4" y="0.2" width="0.5" height="16.4"/>
<g>
	<path d="M303,18.2c0-1.8,2.5-3.5,4.5-3.5c1.3,0,2.3,0.7,2.3,1.7c0,1.7-2.5,3.5-4.6,3.5C304,19.9,303,19.3,303,18.2z"/>
</g>
<rect x="258.4" y="25.6" width="0.5" height="15.2"/>
<g>
	<path d="M258.5,25.7c0-1.8,2.5-3.5,4.5-3.5c1.3,0,2.3,0.7,2.3,1.7c0,1.7-2.5,3.5-4.6,3.5C259.5,27.4,258.5,26.7,258.5,25.7z"/>
</g>
<rect x="273.3" y="23.1" width="0.5" height="17.4"/>
<g>
	<path d="M273.4,23.2c0-1.8,2.5-3.5,4.5-3.5c1.3,0,2.3,0.7,2.3,1.7c0,1.7-2.5,3.5-4.6,3.5C274.4,24.9,273.4,24.3,273.4,23.2z"/>
</g>
<rect x="288.2" y="20.6" width="0.5" height="19.4"/>
<g>
	<path d="M288.3,20.7c0-1.8,2.5-3.5,4.5-3.5c1.3,0,2.3,0.7,2.3,1.7c0,1.7-2.5,3.5-4.6,3.5C289.2,22.4,288.3,21.8,288.3,20.7z"/>
</g>
<rect x="302.9" y="23.1" width="0.5" height="16.4"/>
<g>
	<path d="M303,23.2c0-1.8,2.5-3.5,4.5-3.5c1.3,0,2.3,0.7,2.3,1.7c0,1.7-2.5,3.5-4.6,3.5C304,24.9,303,24.3,303,23.2z"/>
</g>
<rect x="317.8" y="25.6" width="0.5" height="15.2"/>
<g>
	<path d="M317.9,25.7c0-1.8,2.5-3.5,4.5-3.5c1.3,0,2.3,0.7,2.3,1.7c0,1.7-2.5,3.5-4.6,3.5C318.8,27.4,317.9,26.7,317.9,25.7z"/>
</g>
<rect x="332.7" y="28.1" width="0.5" height="14.3"/>
<g>
	<path d="M332.8,28.1c0-1.8,2.5-3.5,4.5-3.5c1.3,0,2.3,0.7,2.3,1.7c0,1.7-2.5,3.5-4.6,3.5C333.7,29.9,332.8,29.2,332.8,28.1z"/>
</g>
<rect x="347.6" y="30.5" width="0.5" height="13.5"/>
<g>
	<path d="M347.6,30.6c0-1.8,2.5-3.5,4.5-3.5c1.3,0,2.3,0.7,2.3,1.7c0,1.7-2.5,3.5-4.6,3.5C348.6,32.3,347.6,31.7,347.6,30.6z"/>
</g>
<rect x="362.3" y="33" width="0.5" height="12.7"/>
<g>
	<path d="M362.4,33.1c0-1.8,2.5-3.5,4.5-3.5c1.3,0,2.3,0.7,2.3,1.7c0,1.7-2.5,3.5-4.6,3.5C363.3,34.8,362.4,34.2,362.4,33.1z"/>
</g>
<rect x="324.3" y="2.6" width="0.5" height="16.4"/>
<g>
	<path d="M317.9,20.7c0-1.8,2.5-3.5,4.5-3.5c1.3,0,2.3,0.7,2.3,1.7c0,1.7-2.5,3.5-4.6,3.5C318.8,22.4,317.9,21.8,317.9,20.7z"/>
</g>
<rect x="339.2" y="4.2" width="0.5" height="17.4"/>
<g>
	<path d="M332.8,23.2c0-1.8,2.5-3.5,4.5-3.5c1.3,0,2.3,0.7,2.3,1.7c0,1.7-2.5,3.5-4.6,3.5C333.7,24.9,332.8,24.3,332.8,23.2z"/>
</g>
<rect x="354.1" y="5.9" width="0.5" height="18.1"/>
<g>
	<path d="M347.6,25.7c0-1.8,2.5-3.5,4.5-3.5c1.3,0,2.3,0.7,2.3,1.7c0,1.7-2.5,3.5-4.6,3.5C348.6,27.4,347.6,26.7,347.6,25.7z"/>
</g>
<rect x="368.8" y="7.6" width="0.5" height="18.9"/>
<g>
	<path d="M362.4,28.1c0-1.8,2.5-3.5,4.5-3.5c1.3,0,2.3,0.7,2.3,1.7c0,1.7-2.5,3.5-4.6,3.5C363.3,29.9,362.4,29.2,362.4,28.1z"/>
</g>
<rect x="87" y="55" width="0.5" height="15.2"/>
<g>
	<path d="M80.5,71.8c0-1.8,2.5-3.5,4.5-3.5c1.3,0,2.3,0.7,2.3,1.7c0,1.7-2.5,3.5-4.6,3.5C81.5,73.6,80.5,72.9,80.5,71.8z"/>
</g>
<rect x="101.9" y="53.5" width="0.5" height="14.3"/>
<g>
	<path d="M95.4,69.4c0-1.8,2.5-3.5,4.5-3.5c1.3,0,2.3,0.7,2.3,1.7c0,1.7-2.5,3.5-4.6,3.5C96.4,71.1,95.4,70.5,95.4,69.4z"/>
</g>
<rect x="116.6" y="51.8" width="0.5" height="13.5"/>
<g>
	<path d="M110.1,66.9c0-1.8,2.5-3.5,4.5-3.5c1.3,0,2.3,0.7,2.3,1.7c0,1.7-2.5,3.5-4.6,3.5C111.1,68.6,110.1,68,110.1,66.9z"/>
</g>
<rect x="131.5" y="50.1" width="0.5" height="12.7"/>
<g>
	<path d="M125,64.4c0-1.8,2.5-3.5,4.5-3.5c1.3,0,2.3,0.7,2.3,1.7c0,1.7-2.5,3.5-4.6,3.5C126,66.1,125,65.5,125,64.4z"/>
</g>
<rect x="80.5" y="76.7" width="0.5" height="16.4"/>
<g>
	<path d="M80.5,76.8c0-1.8,2.5-3.5,4.5-3.5c1.3,0,2.3,0.7,2.3,1.7c0,1.7-2.5,3.5-4.6,3.5C81.5,78.5,80.5,77.9,80.5,76.8z"/>
</g>
<rect x="95.3" y="74.2" width="0.5" height="17.4"/>
<g>
	<path d="M95.4,74.3c0-1.8,2.5-3.5,4.5-3.5c1.3,0,2.3,0.7,2.3,1.7c0,1.7-2.5,3.5-4.6,3.5C96.4,76.1,95.4,75.4,95.4,74.3z"/>
</g>
<rect x="110.1" y="71.8" width="0.5" height="18.1"/>
<g>
	<path d="M110.1,71.8c0-1.8,2.5-3.5,4.5-3.5c1.3,0,2.3,0.7,2.3,1.7c0,1.7-2.5,3.5-4.6,3.5C111.1,73.6,110.1,72.9,110.1,71.8z"/>
</g>
<rect x="125" y="69.3" width="0.5" height="18.9"/>
<g>
	<path d="M125,69.4c0-1.8,2.5-3.5,4.5-3.5c1.3,0,2.3,0.7,2.3,1.7c0,1.7-2.5,3.5-4.6,3.5C126,71.1,125,70.5,125,69.4z"/>
</g>
<rect x="139.8" y="66.8" width="0.5" height="16.4"/>
<g>
	<path d="M139.9,66.9c0-1.8,2.5-3.5,4.5-3.5c1.3,0,2.3,0.7,2.3,1.7c0,1.7-2.5,3.5-4.6,3.5C140.9,68.6,139.9,68,139.9,66.9z"/>
</g>
<rect x="154.6" y="64.3" width="0.5" height="17.4"/>
<g>
	<path d="M154.6,64.4c0-1.8,2.5-3.5,4.5-3.5c1.3,0,2.3,0.7,2.3,1.7c0,1.7-2.5,3.5-4.6,3.5C155.6,66.1,154.6,65.5,154.6,64.4z"/>
</g>
<rect x="169.4" y="61.8" width="0.5" height="18.1"/>
<g>
	<path d="M169.5,61.9c0-1.8,2.5-3.5,4.5-3.5c1.3,0,2.3,0.7,2.3,1.7c0,1.7-2.5,3.5-4.6,3.5C170.5,63.7,169.5,63,169.5,61.9z"/>
</g>
<rect x="182.5" y="58.2" width="10.5" height="0.8"/>
<rect x="184.3" y="59.4" width="0.5" height="18.9"/>
<g>
	<path d="M184.4,59.4c0-1.8,2.5-3.5,4.5-3.5c1.3,0,2.3,0.7,2.3,1.7c0,1.7-2.5,3.5-4.6,3.5C185.4,61.2,184.4,60.5,184.4,59.4z"/>
</g>
<rect x="146.3" y="45.1" width="0.5" height="15.2"/>
<g>
	<path d="M139.9,61.9c0-1.8,2.5-3.5,4.5-3.5c1.3,0,2.3,0.7,2.3,1.7c0,1.7-2.5,3.5-4.6,3.5C140.9,63.7,139.9,63,139.9,61.9z"/>
</g>
<rect x="152.8" y="58.2" width="10.5" height="0.8"/>
<rect x="161.1" y="43.6" width="0.5" height="14.3"/>
<g>
	<path d="M154.6,59.4c0-1.8,2.5-3.5,4.5-3.5c1.3,0,2.3,0.7,2.3,1.7c0,1.7-2.5,3.5-4.6,3.5C155.6,61.2,154.6,60.5,154.6,59.4z"/>
</g>
<rect x="167.7" y="58.2" width="10.5" height="0.8"/>
<rect x="176" y="41.9" width="0.5" height="13.5"/>
<g>
	<path d="M169.5,57c0-1.8,2.5-3.5,4.5-3.5c1.3,0,2.3,0.7,2.3,1.7c0,1.7-2.5,3.5-4.6,3.5C170.5,58.7,169.5,58.1,169.5,57z"/>
</g>
<rect x="182.5" y="58.2" width="10.5" height="0.8"/>
<rect x="182.5" y="53.2" width="10.5" height="0.8"/>
<rect x="190.8" y="40.1" width="0.5" height="12.7"/>
<g>
	<path d="M184.4,54.5c0-1.8,2.5-3.5,4.5-3.5c1.3,0,2.3,0.7,2.3,1.7c0,1.7-2.5,3.5-4.6,3.5C185.4,56.2,184.4,55.6,184.4,54.5z"/>
</g>
<rect x="375.4" y="58.2" width="10.5" height="0.8"/>
<rect x="375.4" y="53.2" width="10.5" height="0.8"/>
<rect x="383.7" y="37.7" width="0.5" height="12.7"/>
<g>
	<path d="M377.2,52c0-1.8,2.5-3.5,4.5-3.5c1.3,0,2.3,0.7,2.3,1.7c0,1.7-2.5,3.5-4.6,3.5C378.2,53.7,377.2,53.1,377.2,52z"/>
</g>
<rect x="390.3" y="58.2" width="10.5" height="0.8"/>
<rect x="390.3" y="53.2" width="10.5" height="0.8"/>
<rect x="398.6" y="39.2" width="0.5" height="13.6"/>
<g>
	<path d="M392.1,54.5c0-1.8,2.5-3.5,4.5-3.5c1.3,0,2.3,0.7,2.3,1.7c0,1.7-2.5,3.5-4.6,3.5C393.1,56.2,392.1,55.6,392.1,54.5z"/>
</g>
<rect x="405" y="58.2" width="10.5" height="0.8"/>
<rect x="413.3" y="40.9" width="0.5" height="14.4"/>
<g>
	<path d="M406.8,57c0-1.8,2.5-3.5,4.5-3.5c1.3,0,2.3,0.7,2.3,1.7c0,1.7-2.5,3.5-4.6,3.5C407.8,58.7,406.8,58.1,406.8,57z"/>
</g>
<rect x="419.9" y="58.2" width="10.5" height="0.8"/>
<rect x="428.2" y="42.6" width="0.5" height="15.2"/>
<g>
	<path d="M421.7,59.4c0-1.8,2.5-3.5,4.5-3.5c1.3,0,2.3,0.7,2.3,1.7c0,1.7-2.5,3.5-4.6,3.5C422.7,61.2,421.7,60.5,421.7,59.4z"/>
</g>
<rect x="375.4" y="58.2" width="10.5" height="0.8"/>
<rect x="377.2" y="56.9" width="0.5" height="16.4"/>
<g>
	<path d="M377.2,57c0-1.8,2.5-3.5,4.5-3.5c1.3,0,2.3,0.7,2.3,1.7c0,1.7-2.5,3.5-4.6,3.5C378.2,58.7,377.2,58.1,377.2,57z"/>
</g>
<rect x="390.3" y="58.2" width="10.5" height="0.8"/>
<rect x="392" y="59.4" width="0.5" height="15.5"/>
<g>
	<path d="M392.1,59.4c0-1.8,2.5-3.5,4.5-3.5c1.3,0,2.3,0.7,2.3,1.7c0,1.7-2.5,3.5-4.6,3.5C393.1,61.2,392.1,60.5,392.1,59.4z"/>
</g>
<rect x="406.8" y="61.8" width="0.5" height="14.7"/>
<g>
	<path d="M406.8,61.9c0-1.8,2.5-3.5,4.5-3.5c1.3,0,2.3,0.7,2.3,1.7c0,1.7-2.5,3.5-4.6,3.5C407.8,63.7,406.8,63,406.8,61.9z"/>
</g>
<rect x="421.7" y="64.3" width="0.5" height="14"/>
<g>
	<path d="M421.7,64.4c0-1.8,2.5-3.5,4.5-3.5c1.3,0,2.3,0.7,2.3,1.7c0,1.7-2.5,3.5-4.6,3.5C422.7,66.1,421.7,65.5,421.7,64.4z"/>
</g>
<rect x="443" y="47.6" width="0.5" height="12.7"/>
<g>
	<path d="M436.6,61.9c0-1.8,2.5-3.5,4.5-3.5c1.3,0,2.3,0.7,2.3,1.7c0,1.7-2.5,3.5-4.6,3.5C437.6,63.7,436.6,63,436.6,61.9z"/>
</g>
<rect x="457.8" y="49.1" width="0.5" height="13.6"/>
<g>
	<path d="M451.3,64.4c0-1.8,2.5-3.5,4.5-3.5c1.3,0,2.3,0.7,2.3,1.7c0,1.7-2.5,3.5-4.6,3.5C452.3,66.1,451.3,65.5,451.3,64.4z"/>
</g>
<rect x="472.7" y="50.8" width="0.5" height="14.4"/>
<g>
	<path d="M466.2,66.9c0-1.8,2.5-3.5,4.5-3.5c1.3,0,2.3,0.7,2.3,1.7c0,1.7-2.5,3.5-4.6,3.5C467.2,68.6,466.2,68,466.2,66.9z"/>
</g>
<rect x="487.5" y="52.5" width="0.5" height="15.2"/>
<g>
	<path d="M481.1,69.4c0-1.8,2.5-3.5,4.5-3.5c1.3,0,2.3,0.7,2.3,1.7c0,1.7-2.5,3.5-4.6,3.5C482.1,71.1,481.1,70.5,481.1,69.4z"/>
</g>
<rect x="502.4" y="54.9" width="0.5" height="15.3"/>
<g>
	<path d="M500.1,68.3c1.6,0,2.7,0.7,2.7,2c0,1.9-2.3,3.4-4.5,3.4c-1.3,0-2.4-0.7-2.4-1.8C495.8,70.1,498.1,68.3,500.1,68.3z
		 M496.3,72.1c0,0.6,0.4,0.9,1.1,0.9c1.4,0,4.9-2.1,4.9-3.3c0-0.6-0.4-0.9-1.1-0.9C500,68.9,496.3,70.9,496.3,72.1z"/>
</g>
<rect x="436.5" y="66.8" width="0.5" height="16.4"/>
<g>
	<path d="M436.6,66.9c0-1.8,2.5-3.5,4.5-3.5c1.3,0,2.3,0.7,2.3,1.7c0,1.7-2.5,3.5-4.6,3.5C437.6,68.6,436.6,68,436.6,66.9z"/>
</g>
<rect x="451.3" y="69.3" width="0.5" height="15.5"/>
<g>
	<path d="M451.3,69.4c0-1.8,2.5-3.5,4.5-3.5c1.3,0,2.3,0.7,2.3,1.7c0,1.7-2.5,3.5-4.6,3.5C452.3,71.1,451.3,70.5,451.3,69.4z"/>
</g>
<rect x="466.1" y="71.8" width="0.5" height="14.7"/>
<g>
	<path d="M466.2,71.8c0-1.8,2.5-3.5,4.5-3.5c1.3,0,2.3,0.7,2.3,1.7c0,1.7-2.5,3.5-4.6,3.5C467.2,73.6,466.2,72.9,466.2,71.8z"/>
</g>
<rect x="481" y="74.2" width="0.5" height="14"/>
<g>
	<path d="M481.1,74.3c0-1.8,2.5-3.5,4.5-3.5c1.3,0,2.3,0.7,2.3,1.7c0,1.7-2.5,3.5-4.6,3.5C482.1,76.1,481.1,75.4,481.1,74.3z"/>
</g>
<rect x="495.7" y="76.7" width="0.5" height="15.3"/>
<g>
	<path d="M500.1,73.3c1.6,0,2.7,0.7,2.7,2c0,1.9-2.3,3.4-4.5,3.4c-1.3,0-2.4-0.7-2.4-1.8C495.8,75,498.1,73.3,500.1,73.3z
		 M496.3,77.1c0,0.6,0.4,0.9,1.1,0.9c1.4,0,4.9-2.1,4.9-3.3c0-0.6-0.4-0.9-1.1-0.9C500,73.9,496.3,75.9,496.3,77.1z"/>
</g>
</svg>
