<?xml version="1.0" encoding="utf-8"?>

<!--
	ScaleBook
	Copyright (c) Leland Jansen 2015. All rights reserved.
-->

<!DOCTYPE svg PUBLIC "-//W3C//DTD SVG 1.1//EN" "http://www.w3.org/Graphics/SVG/1.1/DTD/svg11.dtd">
<svg version="1.1" id="Layer_1" xmlns="http://www.w3.org/2000/svg" xmlns:xlink="http://www.w3.org/1999/xlink" x="0px" y="0px"
	 viewBox="0 0 552.9 85.4" enable-background="new 0 0 552.9 85.4" xml:space="preserve">
<rect x="8.4" y="9.7" width="0.8" height="67"/>
<g>
	<path d="M7.4,10.4c-1.9,1.1-3.6,5.8-3.6,9.4c0,2.3,1.4,9.9,1.4,12.3c0,5-1.5,8.6-4.6,11.1c3,2.4,4.6,6.1,4.6,11
		c0,2.3-1.4,9.9-1.4,12.3c0,3.8,1.7,8.4,3.6,9.5v0.7c-3.5-2.3-5.8-8.2-5.8-13.1c0-2.1,1.7-9.4,1.7-11.5c0-3.8-1-6.6-2.9-8.2
		C0.1,43.6,0,43.4,0,43.2s0.1-0.4,0.5-0.7c1.9-1.7,2.9-4.2,2.9-7.6c0-2.1-1.7-10-1.7-12.2c0-5.2,2.1-10.4,5.8-13.1V10.4z"/>
</g>
<rect x="547.8" y="9.7" width="0.8" height="67"/>
<rect x="550.4" y="9.7" width="2.5" height="67"/>
<rect x="8.5" y="29.3" width="544.4" height="0.5"/>
<rect x="8.5" y="24.4" width="544.4" height="0.5"/>
<rect x="8.5" y="19.4" width="544.4" height="0.5"/>
<rect x="8.5" y="14.4" width="544.4" height="0.5"/>
<rect x="8.5" y="9.5" width="544.4" height="0.5"/>
<g>
	<path d="M20.3,29.4c-4.2,0-8.1-3.1-8.1-6.9c0-3.2,2.3-6.7,6.8-10.5c-0.3-1.2-0.4-2.4-0.4-3.6c0-3.5,1.2-6.8,3.2-8.5
		c1.8,2.5,2.7,4.9,2.7,7.1c0,2.9-1.3,5.6-4.3,8.1l0.9,4.2c0.5,0,0.8-0.1,0.8-0.1c2.6,0,4.8,2,4.8,4.7c0,1.9-1.4,3.7-3.6,4.8
		c0-0.1,0.9,3.8,0.9,4.3c0,2.5-2.3,4.2-4.9,4.2c-2,0-3.6-1.3-3.6-3.4c0-1.4,1-2.6,2.4-2.6c1.3,0,2.3,1.3,2.3,2.5
		c0,1.4-1.2,2.3-2.7,2.5c0.6,0.3,1.2,0.5,1.9,0.5c2.1,0,4.1-1.6,4.1-3.6c0-0.2,0-0.4-0.1-0.6l-0.8-3.7
		C21.9,29.3,21.2,29.4,20.3,29.4z M18.1,24.2c0,1,0.5,1.9,1.6,2.5c-1.8-0.3-3-1.4-3-3.1c0-2,1.7-3.7,3.8-4.1l-0.8-4
		C16,18.3,14,21,14,23.6c0,2.9,2.8,5.3,6,5.3c0.9,0,1.7-0.2,2.4-0.5L21,21.6C19.4,21.8,18.1,22.8,18.1,24.2z M22.1,2.8
		c-1.6,0-2.9,3.7-2.9,7c0,0.7,0,1.3,0.2,1.9c2.7-2.4,4-4.5,4-6.5c0-0.9-0.3-1.7-1-2.4C22.4,2.9,22.3,2.8,22.1,2.8z M24.9,24.7
		c0-1.6-1.2-3.3-2.9-3.3c-0.1,0-0.2,0-0.5,0l1.4,6.6C24.2,27.2,24.9,26,24.9,24.7z"/>
</g>
<g>
	<path d="M29.5,11.3h0.6L30,17.6c0.4-0.7,1-1,1.8-1c1.2,0,2.2,0.8,2.2,1.9c0,0.8-0.5,1.8-1.7,2.7l-2.8,2.1V11.3z M30.1,18.2
		C30,19,30,19.6,30,20.2c0,1,0,1.6,0.1,2c1-0.7,2.4-2.6,2.4-3.7c0-0.6-0.5-1.1-1.1-1.1C30.8,17.4,30.4,17.7,30.1,18.2z"/>
</g>
<g>
	<path d="M35.1,3.9h0.6l-0.1,6.2c0.4-0.7,1-1,1.8-1c1.2,0,2.2,0.8,2.2,1.9c0,0.8-0.5,1.8-1.7,2.7l-2.8,2.1V3.9z M35.7,10.8
		c-0.1,0.8-0.1,1.4-0.1,1.9c0,1,0,1.6,0.1,2c1-0.7,2.4-2.6,2.4-3.7c0-0.6-0.5-1.1-1.1-1.1C36.4,10,36,10.2,35.7,10.8z"/>
</g>
<polygon fill-rule="evenodd" clip-rule="evenodd" points="54.8,19.6 96.2,14.7 96.2,12.2 54.8,17.2 "/>
<polygon fill-rule="evenodd" clip-rule="evenodd" points="117,11 158.4,6 158.4,3.5 117,8.5 "/>
<polygon fill-rule="evenodd" clip-rule="evenodd" points="179.1,8.5 220.5,3.5 220.5,1 179.1,6 "/>
<polygon fill-rule="evenodd" clip-rule="evenodd" points="234.8,35.8 276.2,30.8 276.2,28.3 234.8,33.3 "/>
<polygon fill-rule="evenodd" clip-rule="evenodd" points="296.9,30.8 338.3,35.8 338.3,33.3 296.9,28.3 "/>
<polygon fill-rule="evenodd" clip-rule="evenodd" points="365.5,3.5 407,8.5 407,6 365.5,1 "/>
<polygon fill-rule="evenodd" clip-rule="evenodd" points="427.6,6 469.2,11 469.2,8.5 427.6,3.5 "/>
<polygon fill-rule="evenodd" clip-rule="evenodd" points="489.8,14.7 531.2,19.6 531.2,17.2 489.8,12.2 "/>
<rect x="8.5" y="76.4" width="544.4" height="0.5"/>
<rect x="8.5" y="71.5" width="544.4" height="0.5"/>
<rect x="8.5" y="66.5" width="544.4" height="0.5"/>
<rect x="8.5" y="61.6" width="544.4" height="0.5"/>
<rect x="8.5" y="56.6" width="544.4" height="0.5"/>
<g>
	<path d="M15.7,71c2.9-2.6,4.7-6.1,4.7-9.2c0-2.5-1.4-4.4-3.7-4.4c-1.6,0-3.4,1.3-3.4,2.7c0,0.2,0,0.3,0.1,0.3
		c-0.1,0,0.6-0.6,1.4-0.6c0.9,0,1.5,0.8,1.5,1.7c0,1.2-0.9,2.2-2.1,2.2c-1.2,0-2.1-1.3-2.1-2.8c0-2.3,2.3-4.1,4.8-4.1
		c4.7,0,5.9,3.2,5.9,5.8c0,1.6-0.4,2.9-2,5.3c-1.9,3.1-6.4,5.3-8.1,5.3c-0.4,0-0.6-0.2-0.6-0.5C13.8,72.3,14.9,71.7,15.7,71z
		 M25.7,58.3c0.6,0,1,0.4,1,1s-0.4,1-1,1s-1-0.4-1-1S25.1,58.3,25.7,58.3z M25.7,63.3c0.6,0,1,0.4,1,1s-0.4,1-1,1s-1-0.4-1-1
		S25.1,63.3,25.7,63.3z"/>
</g>
<g>
	<path d="M29.5,63.4h0.6L30,69.7c0.4-0.7,1-1,1.8-1c1.2,0,2.2,0.8,2.2,1.9c0,0.8-0.5,1.8-1.7,2.7l-2.8,2.1V63.4z M30.1,70.3
		C30,71.1,30,71.7,30,72.3c0,1,0,1.6,0.1,2c1-0.7,2.4-2.6,2.4-3.7c0-0.6-0.5-1.1-1.1-1.1C30.8,69.5,30.4,69.8,30.1,70.3z"/>
</g>
<g>
	<path d="M35.1,56h0.6l-0.1,6.2c0.4-0.7,1-1,1.8-1c1.2,0,2.2,0.8,2.2,1.9c0,0.8-0.5,1.8-1.7,2.7l-2.8,2.1V56z M35.7,62.9
		c-0.1,0.8-0.1,1.4-0.1,1.9c0,1,0,1.6,0.1,2c1-0.7,2.4-2.6,2.4-3.7c0-0.6-0.5-1.1-1.1-1.1C36.4,62,36,62.3,35.7,62.9z"/>
</g>
<polygon fill-rule="evenodd" clip-rule="evenodd" points="48.3,85.4 89.7,80.4 89.7,77.9 48.3,82.9 "/>
<polygon fill-rule="evenodd" clip-rule="evenodd" points="110.5,82.9 151.8,77.9 151.8,75.4 110.5,80.4 "/>
<polygon fill-rule="evenodd" clip-rule="evenodd" points="172.6,77.9 214,73 214,70.5 172.6,75.4 "/>
<polygon fill-rule="evenodd" clip-rule="evenodd" points="234.8,69.2 276.2,66.8 276.2,64.3 234.8,66.8 "/>
<polygon fill-rule="evenodd" clip-rule="evenodd" points="296.9,66.8 338.3,69.2 338.3,66.8 296.9,64.3 "/>
<polygon fill-rule="evenodd" clip-rule="evenodd" points="358.9,73 400.5,77.9 400.5,75.4 358.9,70.5 "/>
<polygon fill-rule="evenodd" clip-rule="evenodd" points="421.1,77.9 462.7,82.9 462.7,80.4 421.1,75.4 "/>
<polygon fill-rule="evenodd" clip-rule="evenodd" points="483.3,80.4 524.7,85.4 524.7,82.9 483.3,77.9 "/>
<rect x="46.3" y="34.1" width="10.5" height="0.8"/>
<rect x="54.6" y="17.3" width="0.5" height="18.9"/>
<g>
	<path d="M48.1,37.9c0-1.8,2.5-3.5,4.5-3.5c1.3,0,2.3,0.7,2.3,1.7c0,1.7-2.5,3.5-4.6,3.5C49.1,39.6,48.1,38.9,48.1,37.9z"/>
</g>
<rect x="75.3" y="14.8" width="0.5" height="16.4"/>
<g>
	<path d="M68.9,32.9c0-1.8,2.5-3.5,4.5-3.5c1.3,0,2.3,0.7,2.3,1.7c0,1.7-2.5,3.5-4.6,3.5C69.9,34.6,68.9,34,68.9,32.9z"/>
</g>
<rect x="96" y="12.4" width="0.5" height="14"/>
<g>
	<path d="M89.5,27.9c0-1.8,2.5-3.5,4.5-3.5c1.3,0,2.3,0.7,2.3,1.7c0,1.7-2.5,3.5-4.6,3.5C90.5,29.7,89.5,29,89.5,27.9z"/>
</g>
<rect x="116.7" y="8.6" width="0.5" height="22.6"/>
<g>
	<path d="M110.3,32.9c0-1.8,2.5-3.5,4.5-3.5c1.3,0,2.3,0.7,2.3,1.7c0,1.7-2.5,3.5-4.6,3.5C111.3,34.6,110.3,34,110.3,32.9z"/>
</g>
<rect x="137.5" y="6.2" width="0.5" height="20.2"/>
<g>
	<path d="M131.1,27.9c0-1.8,2.5-3.5,4.5-3.5c1.3,0,2.3,0.7,2.3,1.7c0,1.7-2.5,3.5-4.6,3.5C132,29.7,131.1,29,131.1,27.9z"/>
</g>
<rect x="158.1" y="3.7" width="0.5" height="15.2"/>
<g>
	<path d="M151.7,20.5c0-1.8,2.5-3.5,4.5-3.5c1.3,0,2.3,0.7,2.3,1.7c0,1.7-2.5,3.5-4.6,3.5C152.7,22.2,151.7,21.6,151.7,20.5z"/>
</g>
<rect x="178.9" y="6.2" width="0.5" height="20.2"/>
<g>
	<path d="M172.5,27.9c0-1.8,2.5-3.5,4.5-3.5c1.3,0,2.3,0.7,2.3,1.7c0,1.7-2.5,3.5-4.6,3.5C173.4,29.7,172.5,29,172.5,27.9z"/>
</g>
<rect x="199.5" y="3.8" width="0.5" height="15"/>
<g>
	<path d="M193.1,20.5c0-1.8,2.5-3.5,4.5-3.5c1.3,0,2.3,0.7,2.3,1.7c0,1.7-2.5,3.5-4.6,3.5C194.1,22.2,193.1,21.6,193.1,20.5z"/>
</g>
<rect x="220.3" y="1.2" width="0.5" height="12.7"/>
<g>
	<path d="M213.9,15.5c0-1.8,2.5-3.5,4.5-3.5c1.3,0,2.3,0.7,2.3,1.7c0,1.7-2.5,3.5-4.6,3.5C214.8,17.3,213.9,16.6,213.9,15.5z"/>
</g>
<rect x="234.5" y="20.4" width="0.5" height="15.2"/>
<g>
	<path d="M234.6,20.5c0-1.8,2.5-3.5,4.5-3.5c1.3,0,2.3,0.7,2.3,1.7c0,1.7-2.5,3.5-4.6,3.5C235.6,22.2,234.6,21.6,234.6,20.5z"/>
</g>
<rect x="255.2" y="15.5" width="0.5" height="17.8"/>
<g>
	<path d="M255.2,15.5c0-1.8,2.5-3.5,4.5-3.5c1.3,0,2.3,0.7,2.3,1.7c0,1.7-2.5,3.5-4.6,3.5C256.2,17.3,255.2,16.6,255.2,15.5z"/>
</g>
<rect x="275.9" y="10.5" width="0.5" height="20.2"/>
<g>
	<path d="M276,10.6c0-1.8,2.5-3.5,4.5-3.5c1.3,0,2.3,0.7,2.3,1.7c0,1.7-2.5,3.5-4.6,3.5C277,12.3,276,11.7,276,10.6z"/>
</g>
<rect x="296.7" y="10.5" width="0.5" height="20.2"/>
<g>
	<path d="M296.8,10.6c0-1.8,2.5-3.5,4.5-3.5c1.3,0,2.3,0.7,2.3,1.7c0,1.7-2.5,3.5-4.6,3.5C297.8,12.3,296.8,11.7,296.8,10.6z"/>
</g>
<rect x="317.3" y="15.5" width="0.5" height="17.5"/>
<g>
	<path d="M317.4,15.5c0-1.8,2.5-3.5,4.5-3.5c1.3,0,2.3,0.7,2.3,1.7c0,1.7-2.5,3.5-4.6,3.5C318.4,17.3,317.4,16.6,317.4,15.5z"/>
</g>
<rect x="338.1" y="20.4" width="0.5" height="15.2"/>
<g>
	<path d="M338.2,20.5c0-1.8,2.5-3.5,4.5-3.5c1.3,0,2.3,0.7,2.3,1.7c0,1.7-2.5,3.5-4.6,3.5C339.1,22.2,338.2,21.6,338.2,20.5z"/>
</g>
<rect x="365.2" y="1.2" width="0.5" height="12.7"/>
<g>
	<path d="M358.8,15.5c0-1.8,2.5-3.5,4.5-3.5c1.3,0,2.3,0.7,2.3,1.7c0,1.7-2.5,3.5-4.6,3.5C359.8,17.3,358.8,16.6,358.8,15.5z"/>
</g>
<rect x="386" y="3.7" width="0.5" height="15.2"/>
<g>
	<path d="M379.6,20.5c0-1.8,2.5-3.5,4.5-3.5c1.3,0,2.3,0.7,2.3,1.7c0,1.7-2.5,3.5-4.6,3.5C380.5,22.2,379.6,21.6,379.6,20.5z"/>
</g>
<rect x="406.8" y="6.2" width="0.5" height="20.2"/>
<g>
	<path d="M400.3,27.9c0-1.8,2.5-3.5,4.5-3.5c1.3,0,2.3,0.7,2.3,1.7c0,1.7-2.5,3.5-4.6,3.5C401.3,29.7,400.3,29,400.3,27.9z"/>
</g>
<rect x="427.4" y="3.7" width="0.5" height="15.2"/>
<g>
	<path d="M421,20.5c0-1.8,2.5-3.5,4.5-3.5c1.3,0,2.3,0.7,2.3,1.7c0,1.7-2.5,3.5-4.6,3.5C421.9,22.2,421,21.6,421,20.5z"/>
</g>
<rect x="448.2" y="6.2" width="0.5" height="20.2"/>
<g>
	<path d="M441.7,27.9c0-1.8,2.5-3.5,4.5-3.5c1.3,0,2.3,0.7,2.3,1.7c0,1.7-2.5,3.5-4.6,3.5C442.7,29.7,441.7,29,441.7,27.9z"/>
</g>
<rect x="468.9" y="8.6" width="0.5" height="22.6"/>
<g>
	<path d="M462.5,32.9c0-1.8,2.5-3.5,4.5-3.5c1.3,0,2.3,0.7,2.3,1.7c0,1.7-2.5,3.5-4.6,3.5C463.5,34.6,462.5,34,462.5,32.9z"/>
</g>
<rect x="489.5" y="12.4" width="0.5" height="14"/>
<g>
	<path d="M483.1,27.9c0-1.8,2.5-3.5,4.5-3.5c1.3,0,2.3,0.7,2.3,1.7c0,1.7-2.5,3.5-4.6,3.5C484.1,29.7,483.1,29,483.1,27.9z"/>
</g>
<rect x="510.3" y="14.8" width="0.5" height="16.4"/>
<g>
	<path d="M503.9,32.9c0-1.8,2.5-3.5,4.5-3.5c1.3,0,2.3,0.7,2.3,1.7c0,1.7-2.5,3.5-4.6,3.5C504.9,34.6,503.9,34,503.9,32.9z"/>
</g>
<rect x="522.6" y="34.1" width="10.5" height="0.8"/>
<rect x="530.9" y="17.3" width="0.5" height="18.9"/>
<g>
	<path d="M524.5,37.9c0-1.8,2.5-3.5,4.5-3.5c1.3,0,2.3,0.7,2.3,1.7c0,1.7-2.5,3.5-4.6,3.5C525.5,39.6,524.5,38.9,524.5,37.9z"/>
</g>
<rect x="48.1" y="72.5" width="0.5" height="12.7"/>
<g>
	<path d="M48.1,72.6c0-1.8,2.5-3.5,4.5-3.5c1.3,0,2.3,0.7,2.3,1.7c0,1.7-2.5,3.5-4.6,3.5C49.1,74.3,48.1,73.7,48.1,72.6z"/>
</g>
<rect x="68.8" y="67.5" width="0.5" height="15.2"/>
<g>
	<path d="M68.9,67.6c0-1.8,2.5-3.5,4.5-3.5c1.3,0,2.3,0.7,2.3,1.7c0,1.7-2.5,3.5-4.6,3.5C69.9,69.3,68.9,68.7,68.9,67.6z"/>
</g>
<rect x="89.5" y="62.6" width="0.5" height="17.7"/>
<g>
	<path d="M89.5,62.7c0-1.8,2.5-3.5,4.5-3.5c1.3,0,2.3,0.7,2.3,1.7c0,1.7-2.5,3.5-4.6,3.5C90.5,64.4,89.5,63.7,89.5,62.7z"/>
</g>
<rect x="110.2" y="67.5" width="0.5" height="15.2"/>
<g>
	<path d="M110.3,67.6c0-1.8,2.5-3.5,4.5-3.5c1.3,0,2.3,0.7,2.3,1.7c0,1.7-2.5,3.5-4.6,3.5C111.3,69.3,110.3,68.7,110.3,67.6z"/>
</g>
<rect x="131" y="62.6" width="0.5" height="17.7"/>
<g>
	<path d="M131.1,62.7c0-1.8,2.5-3.5,4.5-3.5c1.3,0,2.3,0.7,2.3,1.7c0,1.7-2.5,3.5-4.6,3.5C132,64.4,131.1,63.7,131.1,62.7z"/>
</g>
<rect x="151.6" y="55.1" width="0.5" height="22.6"/>
<g>
	<path d="M151.7,55.2c0-1.8,2.5-3.5,4.5-3.5c1.3,0,2.3,0.7,2.3,1.7c0,1.7-2.5,3.5-4.6,3.5C152.7,56.9,151.7,56.3,151.7,55.2z"/>
</g>
<rect x="172.4" y="62.6" width="0.5" height="15.2"/>
<g>
	<path d="M172.5,62.7c0-1.8,2.5-3.5,4.5-3.5c1.3,0,2.3,0.7,2.3,1.7c0,1.7-2.5,3.5-4.6,3.5C173.4,64.4,172.5,63.7,172.5,62.7z"/>
</g>
<rect x="193" y="55.1" width="0.5" height="20.3"/>
<g>
	<path d="M193.1,55.2c0-1.8,2.5-3.5,4.5-3.5c1.3,0,2.3,0.7,2.3,1.7c0,1.7-2.5,3.5-4.6,3.5C194.1,56.9,193.1,56.3,193.1,55.2z"/>
</g>
<rect x="212" y="51.5" width="10.5" height="0.8"/>
<rect x="213.8" y="50.2" width="0.5" height="22.6"/>
<g>
	<path d="M213.9,50.3c0-1.8,2.5-3.5,4.5-3.5c1.3,0,2.3,0.7,2.3,1.7c0,1.7-2.5,3.5-4.6,3.5C214.8,52,213.9,51.3,213.9,50.3z"/>
</g>
<rect x="234.5" y="55.1" width="0.5" height="14"/>
<g>
	<path d="M234.6,55.2c0-1.8,2.5-3.5,4.5-3.5c1.3,0,2.3,0.7,2.3,1.7c0,1.7-2.5,3.5-4.6,3.5C235.6,56.9,234.6,56.3,234.6,55.2z"/>
</g>
<rect x="253.4" y="51.5" width="10.5" height="0.8"/>
<rect x="255.2" y="50.2" width="0.5" height="17.8"/>
<g>
	<path d="M255.2,50.3c0-1.8,2.5-3.5,4.5-3.5c1.3,0,2.3,0.7,2.3,1.7c0,1.7-2.5,3.5-4.6,3.5C256.2,52,255.2,51.3,255.2,50.3z"/>
</g>
<rect x="274.2" y="51.5" width="10.5" height="0.8"/>
<rect x="274.2" y="46.5" width="10.5" height="0.8"/>
<rect x="275.9" y="45.2" width="0.5" height="21.4"/>
<g>
	<path d="M276,45.3c0-1.8,2.5-3.5,4.5-3.5c1.3,0,2.3,0.7,2.3,1.7c0,1.7-2.5,3.5-4.6,3.5C277,47,276,46.4,276,45.3z"/>
</g>
<rect x="294.9" y="51.5" width="10.5" height="0.8"/>
<rect x="294.9" y="46.5" width="10.5" height="0.8"/>
<rect x="296.7" y="45.2" width="0.5" height="21.4"/>
<g>
	<path d="M296.8,45.3c0-1.8,2.5-3.5,4.5-3.5c1.3,0,2.3,0.7,2.3,1.7c0,1.7-2.5,3.5-4.6,3.5C297.8,47,296.8,46.4,296.8,45.3z"/>
</g>
<rect x="315.5" y="51.5" width="10.5" height="0.8"/>
<rect x="317.3" y="50.2" width="0.5" height="17.5"/>
<g>
	<path d="M317.4,50.3c0-1.8,2.5-3.5,4.5-3.5c1.3,0,2.3,0.7,2.3,1.7c0,1.7-2.5,3.5-4.6,3.5C318.4,52,317.4,51.3,317.4,50.3z"/>
</g>
<rect x="338.1" y="55.1" width="0.5" height="14"/>
<g>
	<path d="M338.2,55.2c0-1.8,2.5-3.5,4.5-3.5c1.3,0,2.3,0.7,2.3,1.7c0,1.7-2.5,3.5-4.6,3.5C339.1,56.9,338.2,56.3,338.2,55.2z"/>
</g>
<rect x="356.9" y="51.5" width="10.5" height="0.8"/>
<rect x="358.7" y="50.2" width="0.5" height="22.6"/>
<g>
	<path d="M358.8,50.3c0-1.8,2.5-3.5,4.5-3.5c1.3,0,2.3,0.7,2.3,1.7c0,1.7-2.5,3.5-4.6,3.5C359.8,52,358.8,51.3,358.8,50.3z"/>
</g>
<rect x="379.5" y="55.1" width="0.5" height="20.2"/>
<g>
	<path d="M379.6,55.2c0-1.8,2.5-3.5,4.5-3.5c1.3,0,2.3,0.7,2.3,1.7c0,1.7-2.5,3.5-4.6,3.5C380.5,56.9,379.6,56.3,379.6,55.2z"/>
</g>
<rect x="400.3" y="62.6" width="0.5" height="15.2"/>
<g>
	<path d="M400.3,62.7c0-1.8,2.5-3.5,4.5-3.5c1.3,0,2.3,0.7,2.3,1.7c0,1.7-2.5,3.5-4.6,3.5C401.3,64.4,400.3,63.7,400.3,62.7z"/>
</g>
<rect x="420.9" y="55.1" width="0.5" height="22.6"/>
<g>
	<path d="M421,55.2c0-1.8,2.5-3.5,4.5-3.5c1.3,0,2.3,0.7,2.3,1.7c0,1.7-2.5,3.5-4.6,3.5C421.9,56.9,421,56.3,421,55.2z"/>
</g>
<rect x="441.6" y="62.6" width="0.5" height="17.7"/>
<g>
	<path d="M441.7,62.7c0-1.8,2.5-3.5,4.5-3.5c1.3,0,2.3,0.7,2.3,1.7c0,1.7-2.5,3.5-4.6,3.5C442.7,64.4,441.7,63.7,441.7,62.7z"/>
</g>
<rect x="462.4" y="67.5" width="0.5" height="15.2"/>
<g>
	<path d="M462.5,67.6c0-1.8,2.5-3.5,4.5-3.5c1.3,0,2.3,0.7,2.3,1.7c0,1.7-2.5,3.5-4.6,3.5C463.5,69.3,462.5,68.7,462.5,67.6z"/>
</g>
<rect x="483" y="62.6" width="0.5" height="17.7"/>
<g>
	<path d="M483.1,62.7c0-1.8,2.5-3.5,4.5-3.5c1.3,0,2.3,0.7,2.3,1.7c0,1.7-2.5,3.5-4.6,3.5C484.1,64.4,483.1,63.7,483.1,62.7z"/>
</g>
<rect x="503.8" y="67.5" width="0.5" height="15.2"/>
<g>
	<path d="M503.9,67.6c0-1.8,2.5-3.5,4.5-3.5c1.3,0,2.3,0.7,2.3,1.7c0,1.7-2.5,3.5-4.6,3.5C504.9,69.3,503.9,68.7,503.9,67.6z"/>
</g>
<rect x="524.4" y="72.5" width="0.5" height="12.7"/>
<g>
	<path d="M524.5,72.6c0-1.8,2.5-3.5,4.5-3.5c1.3,0,2.3,0.7,2.3,1.7c0,1.7-2.5,3.5-4.6,3.5C525.5,74.3,524.5,73.7,524.5,72.6z"/>
</g>
</svg>
