<?xml version="1.0" encoding="utf-8"?>

<!--
	ScaleBook
	Copyright (c) Leland Jansen 2015. All rights reserved.
-->

<!DOCTYPE svg PUBLIC "-//W3C//DTD SVG 1.1//EN" "http://www.w3.org/Graphics/SVG/1.1/DTD/svg11.dtd">
<svg version="1.1" id="Layer_1" xmlns="http://www.w3.org/2000/svg" xmlns:xlink="http://www.w3.org/1999/xlink" x="0px" y="0px"
	 viewBox="0 0 552.9 85.4" enable-background="new 0 0 552.9 85.4" xml:space="preserve">
<rect x="8.4" y="9.7" width="0.8" height="67"/>
<g>
	<path d="M7.4,10.4c-1.9,1.1-3.6,5.8-3.6,9.4c0,2.3,1.4,9.9,1.4,12.3c0,5-1.5,8.6-4.6,11.1c3,2.4,4.6,6.1,4.6,11
		c0,2.3-1.4,9.9-1.4,12.3c0,3.8,1.7,8.4,3.6,9.5v0.7c-3.5-2.3-5.8-8.2-5.8-13.1c0-2.1,1.7-9.4,1.7-11.5c0-3.8-1-6.6-2.9-8.2
		C0.1,43.6,0,43.4,0,43.2s0.1-0.4,0.5-0.7c1.9-1.7,2.9-4.2,2.9-7.6c0-2.1-1.7-10-1.7-12.2c0-5.2,2.1-10.4,5.8-13.1V10.4z"/>
</g>
<rect x="547.8" y="9.7" width="0.8" height="67"/>
<rect x="550.4" y="9.7" width="2.5" height="67"/>
<rect x="8.5" y="29.3" width="544.4" height="0.5"/>
<rect x="8.5" y="24.4" width="544.4" height="0.5"/>
<rect x="8.5" y="19.4" width="544.4" height="0.5"/>
<rect x="8.5" y="14.4" width="544.4" height="0.5"/>
<rect x="8.5" y="9.5" width="544.4" height="0.5"/>
<g>
	<path d="M20.3,29.4c-4.2,0-8.1-3.1-8.1-6.9c0-3.2,2.3-6.7,6.8-10.5c-0.3-1.2-0.4-2.4-0.4-3.6c0-3.5,1.2-6.8,3.2-8.5
		c1.8,2.5,2.7,4.9,2.7,7.1c0,2.9-1.3,5.6-4.3,8.1l0.9,4.2c0.5,0,0.8-0.1,0.8-0.1c2.6,0,4.8,2,4.8,4.7c0,1.9-1.4,3.7-3.6,4.8
		c0-0.1,0.9,3.8,0.9,4.3c0,2.5-2.3,4.2-4.9,4.2c-2,0-3.6-1.3-3.6-3.4c0-1.4,1-2.6,2.4-2.6c1.3,0,2.3,1.3,2.3,2.5
		c0,1.4-1.2,2.3-2.7,2.5c0.6,0.3,1.2,0.5,1.9,0.5c2.1,0,4.1-1.6,4.1-3.6c0-0.2,0-0.4-0.1-0.6l-0.8-3.7
		C21.9,29.3,21.2,29.4,20.3,29.4z M18.1,24.2c0,1,0.5,1.9,1.6,2.5c-1.8-0.3-3-1.4-3-3.1c0-2,1.7-3.7,3.8-4.1l-0.8-4
		C16,18.3,14,21,14,23.6c0,2.9,2.8,5.3,6,5.3c0.9,0,1.7-0.2,2.4-0.5L21,21.6C19.4,21.8,18.1,22.8,18.1,24.2z M22.1,2.8
		c-1.6,0-2.9,3.7-2.9,7c0,0.7,0,1.3,0.2,1.9c2.7-2.4,4-4.5,4-6.5c0-0.9-0.3-1.7-1-2.4C22.4,2.9,22.3,2.8,22.1,2.8z M24.9,24.7
		c0-1.6-1.2-3.3-2.9-3.3c-0.1,0-0.2,0-0.5,0l1.4,6.6C24.2,27.2,24.9,26,24.9,24.7z"/>
</g>
<g>
	<path d="M33.5,2.9v2.8l1-0.3v1.8l-1,0.3V11l1-0.3v1.8l-1,0.3v3.1H33v-3l-1.9,0.6v3h-0.5v-2.8l-1,0.3v-1.8l1-0.3V8.4l-1,0.3V7l1-0.3
		V3.5h0.5v3L33,5.9v-3H33.5z M33,7.7l-1.9,0.6v3.4l1.9-0.6V7.7z"/>
</g>
<g>
	<path d="M39.7,10.3v2.8l1-0.3v1.8l-1,0.3v3.4l1-0.3v1.8l-1,0.3v3.1h-0.5v-3L37.3,21v3h-0.5v-2.8l-1,0.3v-1.8l1-0.3v-3.4l-1,0.3
		v-1.8l1-0.3V11h0.5v3l1.9-0.6v-3H39.7z M39.2,15.1l-1.9,0.6v3.4l1.9-0.6V15.1z"/>
</g>
<g>
	<path d="M45.9,0.4v2.8l1-0.3v1.8l-1,0.3v3.4l1-0.3V10l-1,0.3v3.1h-0.5v-3l-1.9,0.6v3H43v-2.8l-1,0.3V9.7l1-0.3V6l-1,0.3V4.5l1-0.3
		V1h0.5v3l1.9-0.6v-3H45.9z M45.4,5.2l-1.9,0.6v3.4l1.9-0.6V5.2z"/>
</g>
<g>
	<path d="M52.1,7.9v2.8l1-0.3v1.8l-1,0.3v3.4l1-0.3v1.8l-1,0.3v3.1h-0.5v-3l-1.9,0.6v3h-0.5v-2.8l-1,0.3v-1.8l1-0.3v-3.4l-1,0.3
		v-1.8l1-0.3V8.5h0.5v3l1.9-0.6v-3H52.1z M51.6,12.6l-1.9,0.6v3.4l1.9-0.6V12.6z"/>
</g>
<g>
	<path d="M58.3,15.3v2.8l1-0.3v1.8l-1,0.3v3.4l1-0.3v1.8l-1,0.3v3.1h-0.5v-3l-1.9,0.6v3h-0.5v-2.8l-1,0.3v-1.8l1-0.3v-3.4l-1,0.3
		v-1.8l1-0.3v-3.1h0.5v3l1.9-0.6v-3H58.3z M57.8,20.1l-1.9,0.6v3.4l1.9-0.6V20.1z"/>
</g>
<polygon fill-rule="evenodd" clip-rule="evenodd" points="74.7,19.6 114.5,14.7 114.5,12.2 74.7,17.2 "/>
<polygon fill-rule="evenodd" clip-rule="evenodd" points="134.3,11 174,6 174,3.5 134.3,8.5 "/>
<polygon fill-rule="evenodd" clip-rule="evenodd" points="194,8.5 233.7,3.5 233.7,1 194,6 "/>
<polygon fill-rule="evenodd" clip-rule="evenodd" points="247.2,35.8 286.9,30.8 286.9,28.3 247.2,33.3 "/>
<polygon fill-rule="evenodd" clip-rule="evenodd" points="306.9,30.8 346.5,35.8 346.5,33.3 306.9,28.3 "/>
<polygon fill-rule="evenodd" clip-rule="evenodd" points="372.9,3.5 412.7,8.5 412.7,6 372.9,1 "/>
<polygon fill-rule="evenodd" clip-rule="evenodd" points="432.6,6 472.4,11 472.4,8.5 432.6,3.5 "/>
<polygon fill-rule="evenodd" clip-rule="evenodd" points="492.3,14.7 532.1,19.6 532.1,17.2 492.3,12.2 "/>
<rect x="8.5" y="76.4" width="544.4" height="0.5"/>
<rect x="8.5" y="71.5" width="544.4" height="0.5"/>
<rect x="8.5" y="66.5" width="544.4" height="0.5"/>
<rect x="8.5" y="61.6" width="544.4" height="0.5"/>
<rect x="8.5" y="56.6" width="544.4" height="0.5"/>
<g>
	<path d="M15.7,71c2.9-2.6,4.7-6.1,4.7-9.2c0-2.5-1.4-4.4-3.7-4.4c-1.6,0-3.4,1.3-3.4,2.7c0,0.2,0,0.3,0.1,0.3
		c-0.1,0,0.6-0.6,1.4-0.6c0.9,0,1.5,0.8,1.5,1.7c0,1.2-0.9,2.2-2.1,2.2c-1.2,0-2.1-1.3-2.1-2.8c0-2.3,2.3-4.1,4.8-4.1
		c4.7,0,5.9,3.2,5.9,5.8c0,1.6-0.4,2.9-2,5.3c-1.9,3.1-6.4,5.3-8.1,5.3c-0.4,0-0.6-0.2-0.6-0.5C13.8,72.3,14.9,71.7,15.7,71z
		 M25.7,58.3c0.6,0,1,0.4,1,1s-0.4,1-1,1s-1-0.4-1-1S25.1,58.3,25.7,58.3z M25.7,63.3c0.6,0,1,0.4,1,1s-0.4,1-1,1s-1-0.4-1-1
		S25.1,63.3,25.7,63.3z"/>
</g>
<g>
	<path d="M33.5,55v2.8l1-0.3v1.8l-1,0.3V63l1-0.3v1.8l-1,0.3V68H33v-3l-1.9,0.6v3h-0.5v-2.8l-1,0.3v-1.8l1-0.3v-3.4l-1,0.3v-1.8
		l1-0.3v-3.1h0.5v3L33,58v-3H33.5z M33,59.8l-1.9,0.6v3.4l1.9-0.6V59.8z"/>
</g>
<g>
	<path d="M39.7,62.4v2.8l1-0.3v1.8l-1,0.3v3.4l1-0.3V72l-1,0.3v3.1h-0.5v-3l-1.9,0.6v3h-0.5v-2.8l-1,0.3v-1.8l1-0.3V68l-1,0.3v-1.8
		l1-0.3v-3.1h0.5v3l1.9-0.6v-3H39.7z M39.2,67.2l-1.9,0.6v3.4l1.9-0.6V67.2z"/>
</g>
<g>
	<path d="M45.9,52.5v2.8l1-0.3v1.8l-1,0.3v3.4l1-0.3V62l-1,0.3v3.1h-0.5v-3l-1.9,0.6v3H43v-2.8l-1,0.3v-1.8l1-0.3V58l-1,0.3v-1.8
		l1-0.3v-3.1h0.5v3l1.9-0.6v-3H45.9z M45.4,57.3l-1.9,0.6v3.4l1.9-0.6V57.3z"/>
</g>
<g>
	<path d="M52.1,59.9v2.8l1-0.3v1.8l-1,0.3V68l1-0.3v1.8l-1,0.3v3.1h-0.5v-3l-1.9,0.6v3h-0.5v-2.8l-1,0.3v-1.8l1-0.3v-3.4l-1,0.3V64
		l1-0.3v-3.1h0.5v3l1.9-0.6v-3H52.1z M51.6,64.7l-1.9,0.6v3.4l1.9-0.6V64.7z"/>
</g>
<g>
	<path d="M58.3,67.4v2.8l1-0.3v1.8l-1,0.3v3.4l1-0.3v1.8l-1,0.3v3.1h-0.5v-3L55.9,78v3h-0.5v-2.8l-1,0.3v-1.8l1-0.3v-3.4l-1,0.3
		v-1.8l1-0.3V68h0.5v3l1.9-0.6v-3H58.3z M57.8,72.2l-1.9,0.6v3.4l1.9-0.6V72.2z"/>
</g>
<polygon fill-rule="evenodd" clip-rule="evenodd" points="68.1,85.4 108,80.4 108,77.9 68.1,82.9 "/>
<polygon fill-rule="evenodd" clip-rule="evenodd" points="127.8,82.9 167.5,77.9 167.5,75.4 127.8,80.4 "/>
<polygon fill-rule="evenodd" clip-rule="evenodd" points="187.5,77.9 227.2,73 227.2,70.5 187.5,75.4 "/>
<polygon fill-rule="evenodd" clip-rule="evenodd" points="247.2,69.2 286.9,66.8 286.9,64.3 247.2,66.8 "/>
<polygon fill-rule="evenodd" clip-rule="evenodd" points="306.9,66.8 346.5,69.2 346.5,66.8 306.9,64.3 "/>
<polygon fill-rule="evenodd" clip-rule="evenodd" points="366.4,73 406.2,77.9 406.2,75.4 366.4,70.5 "/>
<polygon fill-rule="evenodd" clip-rule="evenodd" points="426.1,77.9 465.9,82.9 465.9,80.4 426.1,75.4 "/>
<polygon fill-rule="evenodd" clip-rule="evenodd" points="485.8,80.4 525.6,85.4 525.6,82.9 485.8,77.9 "/>
<rect x="66.1" y="34.1" width="10.5" height="0.8"/>
<rect x="74.4" y="17.3" width="0.5" height="18.9"/>
<g>
	<path d="M68,37.9c0-1.8,2.5-3.5,4.5-3.5c1.3,0,2.3,0.7,2.3,1.7c0,1.7-2.5,3.5-4.6,3.5C69,39.6,68,38.9,68,37.9z"/>
</g>
<rect x="94.3" y="15" width="0.5" height="16.3"/>
<g>
	<path d="M87.8,32.9c0-1.8,2.5-3.5,4.5-3.5c1.3,0,2.3,0.7,2.3,1.7c0,1.7-2.5,3.5-4.6,3.5C88.8,34.6,87.8,34,87.8,32.9z"/>
</g>
<rect x="114.3" y="12.4" width="0.5" height="14"/>
<g>
	<path d="M107.8,27.9c0-1.8,2.5-3.5,4.5-3.5c1.3,0,2.3,0.7,2.3,1.7c0,1.7-2.5,3.5-4.6,3.5C108.8,29.7,107.8,29,107.8,27.9z"/>
</g>
<rect x="134.1" y="8.6" width="0.5" height="22.6"/>
<g>
	<path d="M127.7,32.9c0-1.8,2.5-3.5,4.5-3.5c1.3,0,2.3,0.7,2.3,1.7c0,1.7-2.5,3.5-4.6,3.5C128.6,34.6,127.7,34,127.7,32.9z"/>
</g>
<rect x="153.9" y="6.2" width="0.5" height="20.2"/>
<g>
	<path d="M147.5,27.9c0-1.8,2.5-3.5,4.5-3.5c1.3,0,2.3,0.7,2.3,1.7c0,1.7-2.5,3.5-4.6,3.5C148.5,29.7,147.5,29,147.5,27.9z"/>
</g>
<rect x="173.8" y="3.7" width="0.5" height="15.2"/>
<g>
	<path d="M167.4,20.5c0-1.8,2.5-3.5,4.5-3.5c1.3,0,2.3,0.7,2.3,1.7c0,1.7-2.5,3.5-4.6,3.5C168.3,22.2,167.4,21.6,167.4,20.5z"/>
</g>
<rect x="193.8" y="6.2" width="0.5" height="20.2"/>
<g>
	<path d="M187.3,27.9c0-1.8,2.5-3.5,4.5-3.5c1.3,0,2.3,0.7,2.3,1.7c0,1.7-2.5,3.5-4.6,3.5C188.3,29.7,187.3,29,187.3,27.9z"/>
</g>
<rect x="213.6" y="3.7" width="0.5" height="15.2"/>
<g>
	<path d="M207.2,20.5c0-1.8,2.5-3.5,4.5-3.5c1.3,0,2.3,0.7,2.3,1.7c0,1.7-2.5,3.5-4.6,3.5C208.2,22.2,207.2,21.6,207.2,20.5z"/>
</g>
<rect x="233.5" y="1.2" width="0.5" height="12.7"/>
<g>
	<path d="M227,15.5c0-1.8,2.5-3.5,4.5-3.5c1.3,0,2.3,0.7,2.3,1.7c0,1.7-2.5,3.5-4.6,3.5C228,17.3,227,16.6,227,15.5z"/>
</g>
<rect x="247" y="20.4" width="0.5" height="15.2"/>
<g>
	<path d="M247,20.5c0-1.8,2.5-3.5,4.5-3.5c1.3,0,2.3,0.7,2.3,1.7c0,1.7-2.5,3.5-4.6,3.5C248,22.2,247,21.6,247,20.5z"/>
</g>
<rect x="266.8" y="15.5" width="0.5" height="17.7"/>
<g>
	<path d="M266.9,15.5c0-1.8,2.5-3.5,4.5-3.5c1.3,0,2.3,0.7,2.3,1.7c0,1.7-2.5,3.5-4.6,3.5C267.8,17.3,266.9,16.6,266.9,15.5z"/>
</g>
<rect x="286.6" y="10.5" width="0.5" height="20.2"/>
<g>
	<path d="M286.7,10.6c0-1.8,2.5-3.5,4.5-3.5c1.3,0,2.3,0.7,2.3,1.7c0,1.7-2.5,3.5-4.6,3.5C287.7,12.3,286.7,11.7,286.7,10.6z"/>
</g>
<rect x="306.6" y="10.5" width="0.5" height="20.2"/>
<g>
	<path d="M306.7,10.6c0-1.8,2.5-3.5,4.5-3.5c1.3,0,2.3,0.7,2.3,1.7c0,1.7-2.5,3.5-4.6,3.5C307.7,12.3,306.7,11.7,306.7,10.6z"/>
</g>
<rect x="326.5" y="15.5" width="0.5" height="17.7"/>
<g>
	<path d="M326.6,15.5c0-1.8,2.5-3.5,4.5-3.5c1.3,0,2.3,0.7,2.3,1.7c0,1.7-2.5,3.5-4.6,3.5C327.5,17.3,326.6,16.6,326.6,15.5z"/>
</g>
<rect x="346.3" y="20.4" width="0.5" height="15.2"/>
<g>
	<path d="M346.4,20.5c0-1.8,2.5-3.5,4.5-3.5c1.3,0,2.3,0.7,2.3,1.7c0,1.7-2.5,3.5-4.6,3.5C347.4,22.2,346.4,21.6,346.4,20.5z"/>
</g>
<rect x="372.7" y="1.2" width="0.5" height="12.7"/>
<g>
	<path d="M366.2,15.5c0-1.8,2.5-3.5,4.5-3.5c1.3,0,2.3,0.7,2.3,1.7c0,1.7-2.5,3.5-4.6,3.5C367.2,17.3,366.2,16.6,366.2,15.5z"/>
</g>
<rect x="392.7" y="3.7" width="0.5" height="15.2"/>
<g>
	<path d="M386.2,20.5c0-1.8,2.5-3.5,4.5-3.5c1.3,0,2.3,0.7,2.3,1.7c0,1.7-2.5,3.5-4.6,3.5C387.2,22.2,386.2,21.6,386.2,20.5z"/>
</g>
<rect x="412.5" y="6.2" width="0.5" height="20.2"/>
<g>
	<path d="M406.1,27.9c0-1.8,2.5-3.5,4.5-3.5c1.3,0,2.3,0.7,2.3,1.7c0,1.7-2.5,3.5-4.6,3.5C407,29.7,406.1,29,406.1,27.9z"/>
</g>
<rect x="432.3" y="3.7" width="0.5" height="15.2"/>
<g>
	<path d="M425.9,20.5c0-1.8,2.5-3.5,4.5-3.5c1.3,0,2.3,0.7,2.3,1.7c0,1.7-2.5,3.5-4.6,3.5C426.9,22.2,425.9,21.6,425.9,20.5z"/>
</g>
<rect x="452.3" y="6.2" width="0.5" height="20.2"/>
<g>
	<path d="M445.9,27.9c0-1.8,2.5-3.5,4.5-3.5c1.3,0,2.3,0.7,2.3,1.7c0,1.7-2.5,3.5-4.6,3.5C446.9,29.7,445.9,29,445.9,27.9z"/>
</g>
<rect x="472.2" y="8.6" width="0.5" height="22.6"/>
<g>
	<path d="M465.8,32.9c0-1.8,2.5-3.5,4.5-3.5c1.3,0,2.3,0.7,2.3,1.7c0,1.7-2.5,3.5-4.6,3.5C466.7,34.6,465.8,34,465.8,32.9z"/>
</g>
<rect x="492" y="12.4" width="0.5" height="14"/>
<g>
	<path d="M485.6,27.9c0-1.8,2.5-3.5,4.5-3.5c1.3,0,2.3,0.7,2.3,1.7c0,1.7-2.5,3.5-4.6,3.5C486.6,29.7,485.6,29,485.6,27.9z"/>
</g>
<rect x="511.9" y="14.7" width="0.5" height="16.6"/>
<g>
	<path d="M505.4,32.9c0-1.8,2.5-3.5,4.5-3.5c1.3,0,2.3,0.7,2.3,1.7c0,1.7-2.5,3.5-4.6,3.5C506.4,34.6,505.4,34,505.4,32.9z"/>
</g>
<rect x="523.6" y="34.1" width="10.5" height="0.8"/>
<rect x="531.9" y="17.3" width="0.5" height="18.9"/>
<g>
	<path d="M525.4,37.9c0-1.8,2.5-3.5,4.5-3.5c1.3,0,2.3,0.7,2.3,1.7c0,1.7-2.5,3.5-4.6,3.5C526.4,39.6,525.4,38.9,525.4,37.9z"/>
</g>
<rect x="67.9" y="72.5" width="0.5" height="12.7"/>
<g>
	<path d="M68,72.6c0-1.8,2.5-3.5,4.5-3.5c1.3,0,2.3,0.7,2.3,1.7c0,1.7-2.5,3.5-4.6,3.5C69,74.3,68,73.7,68,72.6z"/>
</g>
<rect x="87.8" y="67.5" width="0.5" height="15.3"/>
<g>
	<path d="M87.8,67.6c0-1.8,2.5-3.5,4.5-3.5c1.3,0,2.3,0.7,2.3,1.7c0,1.7-2.5,3.5-4.6,3.5C88.8,69.3,87.8,68.7,87.8,67.6z"/>
</g>
<rect x="107.7" y="62.6" width="0.5" height="17.7"/>
<g>
	<path d="M107.8,62.7c0-1.8,2.5-3.5,4.5-3.5c1.3,0,2.3,0.7,2.3,1.7c0,1.7-2.5,3.5-4.6,3.5C108.8,64.4,107.8,63.7,107.8,62.7z"/>
</g>
<rect x="127.6" y="67.5" width="0.5" height="15.2"/>
<g>
	<path d="M127.7,67.6c0-1.8,2.5-3.5,4.5-3.5c1.3,0,2.3,0.7,2.3,1.7c0,1.7-2.5,3.5-4.6,3.5C128.6,69.3,127.7,68.7,127.7,67.6z"/>
</g>
<rect x="147.4" y="62.6" width="0.5" height="17.7"/>
<g>
	<path d="M147.5,62.7c0-1.8,2.5-3.5,4.5-3.5c1.3,0,2.3,0.7,2.3,1.7c0,1.7-2.5,3.5-4.6,3.5C148.5,64.4,147.5,63.7,147.5,62.7z"/>
</g>
<rect x="167.3" y="55.1" width="0.5" height="22.6"/>
<g>
	<path d="M167.4,55.2c0-1.8,2.5-3.5,4.5-3.5c1.3,0,2.3,0.7,2.3,1.7c0,1.7-2.5,3.5-4.6,3.5C168.3,56.9,167.4,56.3,167.4,55.2z"/>
</g>
<rect x="187.3" y="62.6" width="0.5" height="15.2"/>
<g>
	<path d="M187.3,62.7c0-1.8,2.5-3.5,4.5-3.5c1.3,0,2.3,0.7,2.3,1.7c0,1.7-2.5,3.5-4.6,3.5C188.3,64.4,187.3,63.7,187.3,62.7z"/>
</g>
<rect x="207.1" y="55.1" width="0.5" height="20.2"/>
<g>
	<path d="M207.2,55.2c0-1.8,2.5-3.5,4.5-3.5c1.3,0,2.3,0.7,2.3,1.7c0,1.7-2.5,3.5-4.6,3.5C208.2,56.9,207.2,56.3,207.2,55.2z"/>
</g>
<rect x="225.2" y="51.5" width="10.5" height="0.8"/>
<rect x="227" y="50.2" width="0.5" height="22.6"/>
<g>
	<path d="M227,50.3c0-1.8,2.5-3.5,4.5-3.5c1.3,0,2.3,0.7,2.3,1.7c0,1.7-2.5,3.5-4.6,3.5C228,52,227,51.3,227,50.3z"/>
</g>
<rect x="247" y="55.1" width="0.5" height="14"/>
<g>
	<path d="M247,55.2c0-1.8,2.5-3.5,4.5-3.5c1.3,0,2.3,0.7,2.3,1.7c0,1.7-2.5,3.5-4.6,3.5C248,56.9,247,56.3,247,55.2z"/>
</g>
<rect x="265" y="51.5" width="10.5" height="0.8"/>
<rect x="266.8" y="50.2" width="0.5" height="17.7"/>
<g>
	<path d="M266.9,50.3c0-1.8,2.5-3.5,4.5-3.5c1.3,0,2.3,0.7,2.3,1.7c0,1.7-2.5,3.5-4.6,3.5C267.8,52,266.9,51.3,266.9,50.3z"/>
</g>
<rect x="284.9" y="51.5" width="10.5" height="0.8"/>
<rect x="284.9" y="46.5" width="10.5" height="0.8"/>
<rect x="286.6" y="45.2" width="0.5" height="21.4"/>
<g>
	<path d="M286.7,45.3c0-1.8,2.5-3.5,4.5-3.5c1.3,0,2.3,0.7,2.3,1.7c0,1.7-2.5,3.5-4.6,3.5C287.7,47,286.7,46.4,286.7,45.3z"/>
</g>
<rect x="304.8" y="51.5" width="10.5" height="0.8"/>
<rect x="304.8" y="46.5" width="10.5" height="0.8"/>
<rect x="306.6" y="45.2" width="0.5" height="21.4"/>
<g>
	<path d="M306.7,45.3c0-1.8,2.5-3.5,4.5-3.5c1.3,0,2.3,0.7,2.3,1.7c0,1.7-2.5,3.5-4.6,3.5C307.7,47,306.7,46.4,306.7,45.3z"/>
</g>
<rect x="324.7" y="51.5" width="10.5" height="0.8"/>
<rect x="326.5" y="50.2" width="0.5" height="17.7"/>
<g>
	<path d="M326.6,50.3c0-1.8,2.5-3.5,4.5-3.5c1.3,0,2.3,0.7,2.3,1.7c0,1.7-2.5,3.5-4.6,3.5C327.5,52,326.6,51.3,326.6,50.3z"/>
</g>
<rect x="346.3" y="55.1" width="0.5" height="14"/>
<g>
	<path d="M346.4,55.2c0-1.8,2.5-3.5,4.5-3.5c1.3,0,2.3,0.7,2.3,1.7c0,1.7-2.5,3.5-4.6,3.5C347.4,56.9,346.4,56.3,346.4,55.2z"/>
</g>
<rect x="364.4" y="51.5" width="10.5" height="0.8"/>
<rect x="366.2" y="50.2" width="0.5" height="22.6"/>
<g>
	<path d="M366.2,50.3c0-1.8,2.5-3.5,4.5-3.5c1.3,0,2.3,0.7,2.3,1.7c0,1.7-2.5,3.5-4.6,3.5C367.2,52,366.2,51.3,366.2,50.3z"/>
</g>
<rect x="386.2" y="55.1" width="0.5" height="20.2"/>
<g>
	<path d="M386.2,55.2c0-1.8,2.5-3.5,4.5-3.5c1.3,0,2.3,0.7,2.3,1.7c0,1.7-2.5,3.5-4.6,3.5C387.2,56.9,386.2,56.3,386.2,55.2z"/>
</g>
<rect x="406" y="62.6" width="0.5" height="15.2"/>
<g>
	<path d="M406.1,62.7c0-1.8,2.5-3.5,4.5-3.5c1.3,0,2.3,0.7,2.3,1.7c0,1.7-2.5,3.5-4.6,3.5C407,64.4,406.1,63.7,406.1,62.7z"/>
</g>
<rect x="425.8" y="55.1" width="0.5" height="22.6"/>
<g>
	<path d="M425.9,55.2c0-1.8,2.5-3.5,4.5-3.5c1.3,0,2.3,0.7,2.3,1.7c0,1.7-2.5,3.5-4.6,3.5C426.9,56.9,425.9,56.3,425.9,55.2z"/>
</g>
<rect x="445.8" y="62.6" width="0.5" height="17.7"/>
<g>
	<path d="M445.9,62.7c0-1.8,2.5-3.5,4.5-3.5c1.3,0,2.3,0.7,2.3,1.7c0,1.7-2.5,3.5-4.6,3.5C446.9,64.4,445.9,63.7,445.9,62.7z"/>
</g>
<rect x="465.7" y="67.5" width="0.5" height="15.2"/>
<g>
	<path d="M465.8,67.6c0-1.8,2.5-3.5,4.5-3.5c1.3,0,2.3,0.7,2.3,1.7c0,1.7-2.5,3.5-4.6,3.5C466.7,69.3,465.8,68.7,465.8,67.6z"/>
</g>
<rect x="485.5" y="62.6" width="0.5" height="17.7"/>
<g>
	<path d="M485.6,62.7c0-1.8,2.5-3.5,4.5-3.5c1.3,0,2.3,0.7,2.3,1.7c0,1.7-2.5,3.5-4.6,3.5C486.6,64.4,485.6,63.7,485.6,62.7z"/>
</g>
<rect x="505.4" y="67.5" width="0.5" height="15"/>
<g>
	<path d="M505.4,67.6c0-1.8,2.5-3.5,4.5-3.5c1.3,0,2.3,0.7,2.3,1.7c0,1.7-2.5,3.5-4.6,3.5C506.4,69.3,505.4,68.7,505.4,67.6z"/>
</g>
<rect x="525.4" y="72.5" width="0.5" height="12.7"/>
<g>
	<path d="M525.4,72.6c0-1.8,2.5-3.5,4.5-3.5c1.3,0,2.3,0.7,2.3,1.7c0,1.7-2.5,3.5-4.6,3.5C526.4,74.3,525.4,73.7,525.4,72.6z"/>
</g>
</svg>
