<?xml version="1.0" encoding="utf-8"?>

<!--
	ScaleBook
	Copyright (c) Leland Jansen 2015. All rights reserved.
-->

<!DOCTYPE svg PUBLIC "-//W3C//DTD SVG 1.1//EN" "http://www.w3.org/Graphics/SVG/1.1/DTD/svg11.dtd">
<svg version="1.1" id="Layer_1" xmlns="http://www.w3.org/2000/svg" xmlns:xlink="http://www.w3.org/1999/xlink" x="0px" y="0px"
	 viewBox="0 0 552.9 82.9" enable-background="new 0 0 552.9 82.9" xml:space="preserve">
<rect x="8.4" y="9.7" width="0.8" height="67"/>
<g>
	<path d="M7.4,10.4c-1.9,1.1-3.6,5.8-3.6,9.4c0,2.3,1.4,9.9,1.4,12.3c0,5-1.5,8.6-4.6,11.1c3,2.4,4.6,6.1,4.6,11
		c0,2.3-1.4,9.9-1.4,12.3c0,3.8,1.7,8.4,3.6,9.5v0.7c-3.5-2.3-5.8-8.2-5.8-13.1c0-2.1,1.7-9.4,1.7-11.5c0-3.8-1-6.6-2.9-8.2
		C0.1,43.6,0,43.4,0,43.2s0.1-0.4,0.5-0.7c1.9-1.7,2.9-4.2,2.9-7.6c0-2.1-1.7-10-1.7-12.2c0-5.2,2.1-10.4,5.8-13.1V10.4z"/>
</g>
<rect x="547.8" y="9.7" width="0.8" height="67"/>
<rect x="550.4" y="9.7" width="2.5" height="67"/>
<rect x="8.5" y="29.3" width="544.4" height="0.5"/>
<rect x="8.5" y="24.4" width="544.4" height="0.5"/>
<rect x="8.5" y="19.4" width="544.4" height="0.5"/>
<rect x="8.5" y="14.4" width="544.4" height="0.5"/>
<rect x="8.5" y="9.5" width="544.4" height="0.5"/>
<g>
	<path d="M20.3,29.4c-4.2,0-8.1-3.1-8.1-6.9c0-3.2,2.3-6.7,6.8-10.5c-0.3-1.2-0.4-2.4-0.4-3.6c0-3.5,1.2-6.8,3.2-8.5
		c1.8,2.5,2.7,4.9,2.7,7.1c0,2.9-1.3,5.6-4.3,8.1l0.9,4.2c0.5,0,0.8-0.1,0.8-0.1c2.6,0,4.8,2,4.8,4.7c0,1.9-1.4,3.7-3.6,4.8
		c0-0.1,0.9,3.8,0.9,4.3c0,2.5-2.3,4.2-4.9,4.2c-2,0-3.6-1.3-3.6-3.4c0-1.4,1-2.6,2.4-2.6c1.3,0,2.3,1.3,2.3,2.5
		c0,1.4-1.2,2.3-2.7,2.5c0.6,0.3,1.2,0.5,1.9,0.5c2.1,0,4.1-1.6,4.1-3.6c0-0.2,0-0.4-0.1-0.6l-0.8-3.7
		C21.9,29.3,21.2,29.4,20.3,29.4z M18.1,24.2c0,1,0.5,1.9,1.6,2.5c-1.8-0.3-3-1.4-3-3.1c0-2,1.7-3.7,3.8-4.1l-0.8-4
		C16,18.3,14,21,14,23.6c0,2.9,2.8,5.3,6,5.3c0.9,0,1.7-0.2,2.4-0.5L21,21.6C19.4,21.8,18.1,22.8,18.1,24.2z M22.1,2.8
		c-1.6,0-2.9,3.7-2.9,7c0,0.7,0,1.3,0.2,1.9c2.7-2.4,4-4.5,4-6.5c0-0.9-0.3-1.7-1-2.4C22.4,2.9,22.3,2.8,22.1,2.8z M24.9,24.7
		c0-1.6-1.2-3.3-2.9-3.3c-0.1,0-0.2,0-0.5,0l1.4,6.6C24.2,27.2,24.9,26,24.9,24.7z"/>
</g>
<g>
	<path d="M33.5,2.9v2.8l1-0.3v1.8l-1,0.3V11l1-0.3v1.8l-1,0.3v3.1H33v-3l-1.9,0.6v3h-0.5v-2.8l-1,0.3v-1.8l1-0.3V8.4l-1,0.3V7l1-0.3
		V3.5h0.5v3L33,5.9v-3H33.5z M33,7.7l-1.9,0.6v3.4l1.9-0.6V7.7z"/>
</g>
<g>
	<path d="M39.7,10.3v2.8l1-0.3v1.8l-1,0.3v3.4l1-0.3v1.8l-1,0.3v3.1h-0.5v-3L37.3,21v3h-0.5v-2.8l-1,0.3v-1.8l1-0.3v-3.4l-1,0.3
		v-1.8l1-0.3V11h0.5v3l1.9-0.6v-3H39.7z M39.2,15.1l-1.9,0.6v3.4l1.9-0.6V15.1z"/>
</g>
<g>
	<path d="M45.9,0.4v2.8l1-0.3v1.8l-1,0.3v3.4l1-0.3V10l-1,0.3v3.1h-0.5v-3l-1.9,0.6v3H43v-2.8l-1,0.3V9.7l1-0.3V6l-1,0.3V4.5l1-0.3
		V1h0.5v3l1.9-0.6v-3H45.9z M45.4,5.2l-1.9,0.6v3.4l1.9-0.6V5.2z"/>
</g>
<g>
	<path d="M52.1,7.9v2.8l1-0.3v1.8l-1,0.3v3.4l1-0.3v1.8l-1,0.3v3.1h-0.5v-3l-1.9,0.6v3h-0.5v-2.8l-1,0.3v-1.8l1-0.3v-3.4l-1,0.3
		v-1.8l1-0.3V8.5h0.5v3l1.9-0.6v-3H52.1z M51.6,12.6l-1.9,0.6v3.4l1.9-0.6V12.6z"/>
</g>
<g>
	<path d="M58.3,15.3v2.8l1-0.3v1.8l-1,0.3v3.4l1-0.3v1.8l-1,0.3v3.1h-0.5v-3l-1.9,0.6v3h-0.5v-2.8l-1,0.3v-1.8l1-0.3v-3.4l-1,0.3
		v-1.8l1-0.3v-3.1h0.5v3l1.9-0.6v-3H58.3z M57.8,20.1l-1.9,0.6v3.4l1.9-0.6V20.1z"/>
</g>
<g>
	<path d="M64.5,5.4v2.8l1-0.3v1.8l-1,0.3v3.4l1-0.3v1.8l-1,0.3v3.1H64v-3L62.1,16v3h-0.5v-2.8l-1,0.3v-1.8l1-0.3v-3.4l-1,0.3V9.5
		l1-0.3V6h0.5v3L64,8.3v-3H64.5z M64,10.2l-1.9,0.6v3.4l1.9-0.6V10.2z"/>
</g>
<g>
	<path d="M70.7,12.8v2.8l1-0.3v1.8l-1,0.3v3.4l1-0.3v1.8l-1,0.3v3.1h-0.5v-3l-1.9,0.6v3h-0.5v-2.8l-1,0.3v-1.8l1-0.3v-3.4l-1,0.3
		v-1.8l1-0.3v-3.1h0.5v3l1.9-0.6v-3H70.7z M70.2,17.6l-1.9,0.6v3.4l1.9-0.6V17.6z"/>
</g>
<polygon fill-rule="evenodd" clip-rule="evenodd" points="87.1,15.9 125.8,11 125.8,8.5 87.1,13.4 "/>
<polygon fill-rule="evenodd" clip-rule="evenodd" points="145.2,11 183.9,6 183.9,3.5 145.2,8.5 "/>
<polygon fill-rule="evenodd" clip-rule="evenodd" points="196.8,38.2 235.6,33.3 235.6,30.8 196.8,35.8 "/>
<polygon fill-rule="evenodd" clip-rule="evenodd" points="254.9,32 293.7,27.1 293.7,24.6 254.9,29.6 "/>
<polygon fill-rule="evenodd" clip-rule="evenodd" points="313.1,27.1 351.7,32 351.7,29.6 313.1,24.6 "/>
<polygon fill-rule="evenodd" clip-rule="evenodd" points="371,33.3 409.8,38.2 409.8,35.8 371,30.8 "/>
<polygon fill-rule="evenodd" clip-rule="evenodd" points="435.7,6 474.4,11 474.4,8.5 435.7,3.5 "/>
<polygon fill-rule="evenodd" clip-rule="evenodd" points="493.8,11 532.6,15.9 532.6,13.4 493.8,8.5 "/>
<rect x="8.5" y="76.4" width="544.4" height="0.5"/>
<rect x="8.5" y="71.5" width="544.4" height="0.5"/>
<rect x="8.5" y="66.5" width="544.4" height="0.5"/>
<rect x="8.5" y="61.6" width="544.4" height="0.5"/>
<rect x="8.5" y="56.6" width="544.4" height="0.5"/>
<g>
	<path d="M15.7,71c2.9-2.6,4.7-6.1,4.7-9.2c0-2.5-1.4-4.4-3.7-4.4c-1.6,0-3.4,1.3-3.4,2.7c0,0.2,0,0.3,0.1,0.3
		c-0.1,0,0.6-0.6,1.4-0.6c0.9,0,1.5,0.8,1.5,1.7c0,1.2-0.9,2.2-2.1,2.2c-1.2,0-2.1-1.3-2.1-2.8c0-2.3,2.3-4.1,4.8-4.1
		c4.7,0,5.9,3.2,5.9,5.8c0,1.6-0.4,2.9-2,5.3c-1.9,3.1-6.4,5.3-8.1,5.3c-0.4,0-0.6-0.2-0.6-0.5C13.8,72.3,14.9,71.7,15.7,71z
		 M25.7,58.3c0.6,0,1,0.4,1,1s-0.4,1-1,1s-1-0.4-1-1S25.1,58.3,25.7,58.3z M25.7,63.3c0.6,0,1,0.4,1,1s-0.4,1-1,1s-1-0.4-1-1
		S25.1,63.3,25.7,63.3z"/>
</g>
<g>
	<path d="M33.5,55v2.8l1-0.3v1.8l-1,0.3V63l1-0.3v1.8l-1,0.3V68H33v-3l-1.9,0.6v3h-0.5v-2.8l-1,0.3v-1.8l1-0.3v-3.4l-1,0.3v-1.8
		l1-0.3v-3.1h0.5v3L33,58v-3H33.5z M33,59.8l-1.9,0.6v3.4l1.9-0.6V59.8z"/>
</g>
<g>
	<path d="M39.7,62.4v2.8l1-0.3v1.8l-1,0.3v3.4l1-0.3V72l-1,0.3v3.1h-0.5v-3l-1.9,0.6v3h-0.5v-2.8l-1,0.3v-1.8l1-0.3V68l-1,0.3v-1.8
		l1-0.3v-3.1h0.5v3l1.9-0.6v-3H39.7z M39.2,67.2l-1.9,0.6v3.4l1.9-0.6V67.2z"/>
</g>
<g>
	<path d="M45.9,52.5v2.8l1-0.3v1.8l-1,0.3v3.4l1-0.3V62l-1,0.3v3.1h-0.5v-3l-1.9,0.6v3H43v-2.8l-1,0.3v-1.8l1-0.3V58l-1,0.3v-1.8
		l1-0.3v-3.1h0.5v3l1.9-0.6v-3H45.9z M45.4,57.3l-1.9,0.6v3.4l1.9-0.6V57.3z"/>
</g>
<g>
	<path d="M52.1,59.9v2.8l1-0.3v1.8l-1,0.3V68l1-0.3v1.8l-1,0.3v3.1h-0.5v-3l-1.9,0.6v3h-0.5v-2.8l-1,0.3v-1.8l1-0.3v-3.4l-1,0.3V64
		l1-0.3v-3.1h0.5v3l1.9-0.6v-3H52.1z M51.6,64.7l-1.9,0.6v3.4l1.9-0.6V64.7z"/>
</g>
<g>
	<path d="M58.3,67.4v2.8l1-0.3v1.8l-1,0.3v3.4l1-0.3v1.8l-1,0.3v3.1h-0.5v-3L55.9,78v3h-0.5v-2.8l-1,0.3v-1.8l1-0.3v-3.4l-1,0.3
		v-1.8l1-0.3V68h0.5v3l1.9-0.6v-3H58.3z M57.8,72.2l-1.9,0.6v3.4l1.9-0.6V72.2z"/>
</g>
<g>
	<path d="M64.5,57.5v2.8l1-0.3v1.8l-1,0.3v3.4l1-0.3V67l-1,0.3v3.1H64v-3l-1.9,0.6v3h-0.5v-2.8l-1,0.3v-1.8l1-0.3V63l-1,0.3v-1.8
		l1-0.3v-3.1h0.5v3l1.9-0.6v-3H64.5z M64,62.2l-1.9,0.6v3.4l1.9-0.6V62.2z"/>
</g>
<g>
	<path d="M70.7,64.9v2.8l1-0.3v1.8l-1,0.3V73l1-0.3v1.8l-1,0.3v3.1h-0.5v-3l-1.9,0.6v3h-0.5v-2.8l-1,0.3v-1.8l1-0.3v-3.4l-1,0.3V69
		l1-0.3v-3.1h0.5v3l1.9-0.6v-3H70.7z M70.2,69.7l-1.9,0.6v3.4l1.9-0.6V69.7z"/>
</g>
<polygon fill-rule="evenodd" clip-rule="evenodd" points="80.5,82.9 119.3,77.9 119.3,75.4 80.5,80.4 "/>
<polygon fill-rule="evenodd" clip-rule="evenodd" points="138.7,79.2 177.4,74.2 177.4,71.7 138.7,76.7 "/>
<polygon fill-rule="evenodd" clip-rule="evenodd" points="196.8,74.2 235.6,69.2 235.6,66.8 196.8,71.7 "/>
<polygon fill-rule="evenodd" clip-rule="evenodd" points="254.9,69.2 293.7,66.8 293.7,64.3 254.9,66.8 "/>
<polygon fill-rule="evenodd" clip-rule="evenodd" points="313.1,66.8 351.7,69.2 351.7,66.8 313.1,64.3 "/>
<polygon fill-rule="evenodd" clip-rule="evenodd" points="371,69.2 409.8,74.2 409.8,71.7 371,66.8 "/>
<polygon fill-rule="evenodd" clip-rule="evenodd" points="429.2,74.2 467.9,79.2 467.9,76.7 429.2,71.7 "/>
<polygon fill-rule="evenodd" clip-rule="evenodd" points="487.3,77.9 526.1,82.9 526.1,80.4 487.3,75.4 "/>
<rect x="78.5" y="34.1" width="10.5" height="0.8"/>
<rect x="86.8" y="13.6" width="0.5" height="20.2"/>
<g>
	<path d="M80.4,35.4c0-1.8,2.5-3.5,4.5-3.5c1.3,0,2.3,0.7,2.3,1.7c0,1.7-2.5,3.5-4.6,3.5C81.4,37.1,80.4,36.5,80.4,35.4z"/>
</g>
<rect x="106.2" y="11.1" width="0.5" height="17.7"/>
<g>
	<path d="M99.8,30.4c0-1.8,2.5-3.5,4.5-3.5c1.3,0,2.3,0.7,2.3,1.7c0,1.7-2.5,3.5-4.6,3.5C100.7,32.1,99.8,31.5,99.8,30.4z"/>
</g>
<rect x="125.6" y="8.6" width="0.5" height="15.2"/>
<g>
	<path d="M119.1,25.4c0-1.8,2.5-3.5,4.5-3.5c1.3,0,2.3,0.7,2.3,1.7c0,1.7-2.5,3.5-4.6,3.5C120.1,27.2,119.1,26.5,119.1,25.4z"/>
</g>
<rect x="145" y="8.6" width="0.5" height="20.2"/>
<g>
	<path d="M138.5,30.4c0-1.8,2.5-3.5,4.5-3.5c1.3,0,2.3,0.7,2.3,1.7c0,1.7-2.5,3.5-4.6,3.5C139.5,32.1,138.5,31.5,138.5,30.4z"/>
</g>
<rect x="164.3" y="6.2" width="0.5" height="17.7"/>
<g>
	<path d="M157.9,25.4c0-1.8,2.5-3.5,4.5-3.5c1.3,0,2.3,0.7,2.3,1.7c0,1.7-2.5,3.5-4.6,3.5C158.9,27.2,157.9,26.5,157.9,25.4z"/>
</g>
<rect x="183.7" y="3.7" width="0.5" height="12.7"/>
<g>
	<path d="M177.3,18c0-1.8,2.5-3.5,4.5-3.5c1.3,0,2.3,0.7,2.3,1.7c0,1.7-2.5,3.5-4.6,3.5C178.2,19.7,177.3,19.1,177.3,18z"/>
</g>
<rect x="196.6" y="25.4" width="0.5" height="12.7"/>
<g>
	<path d="M196.6,25.4c0-1.8,2.5-3.5,4.5-3.5c1.3,0,2.3,0.7,2.3,1.7c0,1.7-2.5,3.5-4.6,3.5C197.6,27.2,196.6,26.5,196.6,25.4z"/>
</g>
<rect x="215.9" y="17.9" width="0.5" height="17.7"/>
<g>
	<path d="M216,18c0-1.8,2.5-3.5,4.5-3.5c1.3,0,2.3,0.7,2.3,1.7c0,1.7-2.5,3.5-4.6,3.5C217,19.7,216,19.1,216,18z"/>
</g>
<rect x="235.3" y="13" width="0.5" height="20.2"/>
<g>
	<path d="M235.4,13c0-1.8,2.5-3.5,4.5-3.5c1.3,0,2.3,0.7,2.3,1.7c0,1.7-2.5,3.5-4.6,3.5C236.4,14.8,235.4,14.1,235.4,13z"/>
</g>
<rect x="254.7" y="17.9" width="0.5" height="14"/>
<g>
	<path d="M254.8,18c0-1.8,2.5-3.5,4.5-3.5c1.3,0,2.3,0.7,2.3,1.7c0,1.7-2.5,3.5-4.6,3.5C255.8,19.7,254.8,19.1,254.8,18z"/>
</g>
<rect x="274.1" y="13" width="0.5" height="16.4"/>
<g>
	<path d="M274.2,13c0-1.8,2.5-3.5,4.5-3.5c1.3,0,2.3,0.7,2.3,1.7c0,1.7-2.5,3.5-4.6,3.5C275.1,14.8,274.2,14.1,274.2,13z"/>
</g>
<rect x="293.5" y="8" width="0.5" height="18.9"/>
<g>
	<path d="M293.5,8.1c0-1.8,2.5-3.5,4.5-3.5c1.3,0,2.3,0.7,2.3,1.7c0,1.7-2.5,3.5-4.6,3.5C294.5,9.8,293.5,9.2,293.5,8.1z"/>
</g>
<rect x="312.8" y="8" width="0.5" height="18.9"/>
<g>
	<path d="M312.9,8.1c0-1.8,2.5-3.5,4.5-3.5c1.3,0,2.3,0.7,2.3,1.7c0,1.7-2.5,3.5-4.6,3.5C313.9,9.8,312.9,9.2,312.9,8.1z"/>
</g>
<rect x="332.1" y="13" width="0.5" height="16.3"/>
<g>
	<path d="M332.1,13c0-1.8,2.5-3.5,4.5-3.5c1.3,0,2.3,0.7,2.3,1.7c0,1.7-2.5,3.5-4.6,3.5C333.1,14.8,332.1,14.1,332.1,13z"/>
</g>
<rect x="351.4" y="17.9" width="0.5" height="14"/>
<g>
	<path d="M351.5,18c0-1.8,2.5-3.5,4.5-3.5c1.3,0,2.3,0.7,2.3,1.7c0,1.7-2.5,3.5-4.6,3.5C352.5,19.7,351.5,19.1,351.5,18z"/>
</g>
<rect x="370.8" y="13" width="0.5" height="20.2"/>
<g>
	<path d="M370.9,13c0-1.8,2.5-3.5,4.5-3.5c1.3,0,2.3,0.7,2.3,1.7c0,1.7-2.5,3.5-4.6,3.5C371.9,14.8,370.9,14.1,370.9,13z"/>
</g>
<rect x="390.2" y="17.9" width="0.5" height="17.7"/>
<g>
	<path d="M390.3,18c0-1.8,2.5-3.5,4.5-3.5c1.3,0,2.3,0.7,2.3,1.7c0,1.7-2.5,3.5-4.6,3.5C391.2,19.7,390.3,19.1,390.3,18z"/>
</g>
<rect x="409.6" y="25.4" width="0.5" height="12.7"/>
<g>
	<path d="M409.6,25.4c0-1.8,2.5-3.5,4.5-3.5c1.3,0,2.3,0.7,2.3,1.7c0,1.7-2.5,3.5-4.6,3.5C410.6,27.2,409.6,26.5,409.6,25.4z"/>
</g>
<rect x="435.4" y="3.7" width="0.5" height="12.7"/>
<g>
	<path d="M429,18c0-1.8,2.5-3.5,4.5-3.5c1.3,0,2.3,0.7,2.3,1.7c0,1.7-2.5,3.5-4.6,3.5C430,19.7,429,19.1,429,18z"/>
</g>
<rect x="454.8" y="6.2" width="0.5" height="17.7"/>
<g>
	<path d="M448.4,25.4c0-1.8,2.5-3.5,4.5-3.5c1.3,0,2.3,0.7,2.3,1.7c0,1.7-2.5,3.5-4.6,3.5C449.4,27.2,448.4,26.5,448.4,25.4z"/>
</g>
<rect x="474.2" y="8.6" width="0.5" height="20.2"/>
<g>
	<path d="M467.8,30.4c0-1.8,2.5-3.5,4.5-3.5c1.3,0,2.3,0.7,2.3,1.7c0,1.7-2.5,3.5-4.6,3.5C468.7,32.1,467.8,31.5,467.8,30.4z"/>
</g>
<rect x="493.6" y="8.6" width="0.5" height="15.2"/>
<g>
	<path d="M487.1,25.4c0-1.8,2.5-3.5,4.5-3.5c1.3,0,2.3,0.7,2.3,1.7c0,1.7-2.5,3.5-4.6,3.5C488.1,27.2,487.1,26.5,487.1,25.4z"/>
</g>
<rect x="513" y="11.1" width="0.5" height="17.7"/>
<g>
	<path d="M506.5,30.4c0-1.8,2.5-3.5,4.5-3.5c1.3,0,2.3,0.7,2.3,1.7c0,1.7-2.5,3.5-4.6,3.5C507.5,32.1,506.5,31.5,506.5,30.4z"/>
</g>
<rect x="524" y="34.1" width="10.5" height="0.8"/>
<rect x="532.3" y="13.6" width="0.5" height="20.2"/>
<g>
	<path d="M525.9,35.4c0-1.8,2.5-3.5,4.5-3.5c1.3,0,2.3,0.7,2.3,1.7c0,1.7-2.5,3.5-4.6,3.5C526.9,37.1,525.9,36.5,525.9,35.4z"/>
</g>
<rect x="80.3" y="70" width="0.5" height="12.7"/>
<g>
	<path d="M80.4,70.1c0-1.8,2.5-3.5,4.5-3.5c1.3,0,2.3,0.7,2.3,1.7c0,1.7-2.5,3.5-4.6,3.5C81.4,71.8,80.4,71.2,80.4,70.1z"/>
</g>
<rect x="99.7" y="65.1" width="0.5" height="15.2"/>
<g>
	<path d="M99.8,65.1c0-1.8,2.5-3.5,4.5-3.5c1.3,0,2.3,0.7,2.3,1.7c0,1.7-2.5,3.5-4.6,3.5C100.7,66.9,99.8,66.2,99.8,65.1z"/>
</g>
<rect x="119.1" y="60.1" width="0.5" height="17.7"/>
<g>
	<path d="M119.1,60.2c0-1.8,2.5-3.5,4.5-3.5c1.3,0,2.3,0.7,2.3,1.7c0,1.7-2.5,3.5-4.6,3.5C120.1,61.9,119.1,61.3,119.1,60.2z"/>
</g>
<rect x="138.4" y="65.1" width="0.5" height="14"/>
<g>
	<path d="M138.5,65.1c0-1.8,2.5-3.5,4.5-3.5c1.3,0,2.3,0.7,2.3,1.7c0,1.7-2.5,3.5-4.6,3.5C139.5,66.9,138.5,66.2,138.5,65.1z"/>
</g>
<rect x="157.8" y="60.1" width="0.5" height="16.4"/>
<g>
	<path d="M157.9,60.2c0-1.8,2.5-3.5,4.5-3.5c1.3,0,2.3,0.7,2.3,1.7c0,1.7-2.5,3.5-4.6,3.5C158.9,61.9,157.9,61.3,157.9,60.2z"/>
</g>
<rect x="175.4" y="51.5" width="10.5" height="0.8"/>
<rect x="177.2" y="52.7" width="0.5" height="21.4"/>
<g>
	<path d="M177.3,52.7c0-1.8,2.5-3.5,4.5-3.5c1.3,0,2.3,0.7,2.3,1.7c0,1.7-2.5,3.5-4.6,3.5C178.2,54.5,177.3,53.8,177.3,52.7z"/>
</g>
<rect x="196.6" y="60.1" width="0.5" height="14"/>
<g>
	<path d="M196.6,60.2c0-1.8,2.5-3.5,4.5-3.5c1.3,0,2.3,0.7,2.3,1.7c0,1.7-2.5,3.5-4.6,3.5C197.6,61.9,196.6,61.3,196.6,60.2z"/>
</g>
<rect x="214.2" y="51.5" width="10.5" height="0.8"/>
<rect x="215.9" y="52.7" width="0.5" height="18.9"/>
<g>
	<path d="M216,52.7c0-1.8,2.5-3.5,4.5-3.5c1.3,0,2.3,0.7,2.3,1.7c0,1.7-2.5,3.5-4.6,3.5C217,54.5,216,53.8,216,52.7z"/>
</g>
<rect x="233.5" y="51.5" width="10.5" height="0.8"/>
<rect x="233.5" y="46.5" width="10.5" height="0.8"/>
<rect x="235.3" y="47.7" width="0.5" height="21.4"/>
<g>
	<path d="M235.4,47.8c0-1.8,2.5-3.5,4.5-3.5c1.3,0,2.3,0.7,2.3,1.7c0,1.7-2.5,3.5-4.6,3.5C236.4,49.5,235.4,48.9,235.4,47.8z"/>
</g>
<rect x="252.9" y="51.5" width="10.5" height="0.8"/>
<rect x="254.7" y="52.7" width="0.5" height="16.4"/>
<g>
	<path d="M254.8,52.7c0-1.8,2.5-3.5,4.5-3.5c1.3,0,2.3,0.7,2.3,1.7c0,1.7-2.5,3.5-4.6,3.5C255.8,54.5,254.8,53.8,254.8,52.7z"/>
</g>
<rect x="272.3" y="51.5" width="10.5" height="0.8"/>
<rect x="272.3" y="46.5" width="10.5" height="0.8"/>
<rect x="274.1" y="47.7" width="0.5" height="20.2"/>
<g>
	<path d="M274.2,47.8c0-1.8,2.5-3.5,4.5-3.5c1.3,0,2.3,0.7,2.3,1.7c0,1.7-2.5,3.5-4.6,3.5C275.1,49.5,274.2,48.9,274.2,47.8z"/>
</g>
<rect x="291.7" y="51.5" width="10.5" height="0.8"/>
<rect x="291.7" y="46.5" width="10.5" height="0.8"/>
<rect x="291.7" y="41.6" width="10.5" height="0.8"/>
<rect x="293.5" y="42.7" width="0.5" height="23.9"/>
<g>
	<path d="M293.5,42.8c0-1.8,2.5-3.5,4.5-3.5c1.3,0,2.3,0.7,2.3,1.7c0,1.7-2.5,3.5-4.6,3.5C294.5,44.5,293.5,43.9,293.5,42.8z"/>
</g>
<rect x="311" y="51.5" width="10.5" height="0.8"/>
<rect x="311" y="46.5" width="10.5" height="0.8"/>
<rect x="311" y="41.6" width="10.5" height="0.8"/>
<rect x="312.8" y="42.7" width="0.5" height="23.9"/>
<g>
	<path d="M312.9,42.8c0-1.8,2.5-3.5,4.5-3.5c1.3,0,2.3,0.7,2.3,1.7c0,1.7-2.5,3.5-4.6,3.5C313.9,44.5,312.9,43.9,312.9,42.8z"/>
</g>
<rect x="330.3" y="51.5" width="10.5" height="0.8"/>
<rect x="330.3" y="46.5" width="10.5" height="0.8"/>
<rect x="332.1" y="47.7" width="0.5" height="20"/>
<g>
	<path d="M332.1,47.8c0-1.8,2.5-3.5,4.5-3.5c1.3,0,2.3,0.7,2.3,1.7c0,1.7-2.5,3.5-4.6,3.5C333.1,49.5,332.1,48.9,332.1,47.8z"/>
</g>
<rect x="349.6" y="51.5" width="10.5" height="0.8"/>
<rect x="351.4" y="52.7" width="0.5" height="16.4"/>
<g>
	<path d="M351.5,52.7c0-1.8,2.5-3.5,4.5-3.5c1.3,0,2.3,0.7,2.3,1.7c0,1.7-2.5,3.5-4.6,3.5C352.5,54.5,351.5,53.8,351.5,52.7z"/>
</g>
<rect x="369" y="51.5" width="10.5" height="0.8"/>
<rect x="369" y="46.5" width="10.5" height="0.8"/>
<rect x="370.8" y="47.7" width="0.5" height="21.4"/>
<g>
	<path d="M370.9,47.8c0-1.8,2.5-3.5,4.5-3.5c1.3,0,2.3,0.7,2.3,1.7c0,1.7-2.5,3.5-4.6,3.5C371.9,49.5,370.9,48.9,370.9,47.8z"/>
</g>
<rect x="388.4" y="51.5" width="10.5" height="0.8"/>
<rect x="390.2" y="52.7" width="0.5" height="18.9"/>
<g>
	<path d="M390.3,52.7c0-1.8,2.5-3.5,4.5-3.5c1.3,0,2.3,0.7,2.3,1.7c0,1.7-2.5,3.5-4.6,3.5C391.2,54.5,390.3,53.8,390.3,52.7z"/>
</g>
<rect x="409.6" y="60.1" width="0.5" height="14"/>
<g>
	<path d="M409.6,60.2c0-1.8,2.5-3.5,4.5-3.5c1.3,0,2.3,0.7,2.3,1.7c0,1.7-2.5,3.5-4.6,3.5C410.6,61.9,409.6,61.3,409.6,60.2z"/>
</g>
<rect x="427.2" y="51.5" width="10.5" height="0.8"/>
<rect x="428.9" y="52.7" width="0.5" height="21.4"/>
<g>
	<path d="M429,52.7c0-1.8,2.5-3.5,4.5-3.5c1.3,0,2.3,0.7,2.3,1.7c0,1.7-2.5,3.5-4.6,3.5C430,54.5,429,53.8,429,52.7z"/>
</g>
<rect x="448.3" y="60.1" width="0.5" height="16.4"/>
<g>
	<path d="M448.4,60.2c0-1.8,2.5-3.5,4.5-3.5c1.3,0,2.3,0.7,2.3,1.7c0,1.7-2.5,3.5-4.6,3.5C449.4,61.9,448.4,61.3,448.4,60.2z"/>
</g>
<rect x="467.7" y="65.1" width="0.5" height="14"/>
<g>
	<path d="M467.8,65.1c0-1.8,2.5-3.5,4.5-3.5c1.3,0,2.3,0.7,2.3,1.7c0,1.7-2.5,3.5-4.6,3.5C468.7,66.9,467.8,66.2,467.8,65.1z"/>
</g>
<rect x="487.1" y="60.1" width="0.5" height="17.7"/>
<g>
	<path d="M487.1,60.2c0-1.8,2.5-3.5,4.5-3.5c1.3,0,2.3,0.7,2.3,1.7c0,1.7-2.5,3.5-4.6,3.5C488.1,61.9,487.1,61.3,487.1,60.2z"/>
</g>
<rect x="506.4" y="65.1" width="0.5" height="15.2"/>
<g>
	<path d="M506.5,65.1c0-1.8,2.5-3.5,4.5-3.5c1.3,0,2.3,0.7,2.3,1.7c0,1.7-2.5,3.5-4.6,3.5C507.5,66.9,506.5,66.2,506.5,65.1z"/>
</g>
<rect x="525.8" y="70" width="0.5" height="12.7"/>
<g>
	<path d="M525.9,70.1c0-1.8,2.5-3.5,4.5-3.5c1.3,0,2.3,0.7,2.3,1.7c0,1.7-2.5,3.5-4.6,3.5C526.9,71.8,525.9,71.2,525.9,70.1z"/>
</g>
</svg>
