<?xml version="1.0" encoding="utf-8"?>

<!--
	ScaleBook
	Copyright (c) Leland Jansen 2015. All rights reserved.
-->

<!DOCTYPE svg PUBLIC "-//W3C//DTD SVG 1.1//EN" "http://www.w3.org/Graphics/SVG/1.1/DTD/svg11.dtd">
<svg version="1.1" id="Layer_1" xmlns="http://www.w3.org/2000/svg" xmlns:xlink="http://www.w3.org/1999/xlink" x="0px" y="0px"
	 viewBox="0 0 552.9 87" enable-background="new 0 0 552.9 87" xml:space="preserve">
<rect x="8.4" y="10" width="0.8" height="67"/>
<g>
	<path d="M7.4,10.7c-1.9,1.1-3.6,5.8-3.6,9.4c0,2.3,1.4,9.9,1.4,12.3c0,5-1.5,8.6-4.6,11.1c3,2.4,4.6,6.1,4.6,11
		c0,2.3-1.4,9.9-1.4,12.3c0,3.8,1.7,8.4,3.6,9.5V77c-3.5-2.3-5.8-8.2-5.8-13.1c0-2.1,1.7-9.4,1.7-11.5c0-3.8-1-6.6-2.9-8.2
		C0.1,43.9,0,43.7,0,43.5s0.1-0.4,0.5-0.7c1.9-1.7,2.9-4.2,2.9-7.6c0-2.1-1.7-10-1.7-12.2c0-5.2,2.1-10.4,5.8-13.1V10.7z"/>
</g>
<rect x="547.8" y="10" width="0.8" height="67"/>
<rect x="550.4" y="10" width="2.5" height="67"/>
<rect x="8.5" y="29.6" width="544.4" height="0.5"/>
<rect x="8.5" y="24.7" width="544.4" height="0.5"/>
<rect x="8.5" y="19.7" width="544.4" height="0.5"/>
<rect x="8.5" y="14.8" width="544.4" height="0.5"/>
<rect x="8.5" y="9.8" width="544.4" height="0.5"/>
<g>
	<path d="M20.3,29.7c-4.2,0-8.1-3.1-8.1-6.9c0-3.2,2.3-6.7,6.8-10.5c-0.3-1.2-0.4-2.4-0.4-3.6c0-3.5,1.2-6.8,3.2-8.5
		c1.8,2.5,2.7,4.9,2.7,7.1c0,2.9-1.3,5.6-4.3,8.1l0.9,4.2c0.5,0,0.8-0.1,0.8-0.1c2.6,0,4.8,2,4.8,4.7c0,1.9-1.4,3.7-3.6,4.8
		c0-0.1,0.9,3.8,0.9,4.3c0,2.5-2.3,4.2-4.9,4.2c-2,0-3.6-1.3-3.6-3.4c0-1.4,1-2.6,2.4-2.6c1.3,0,2.3,1.3,2.3,2.5
		c0,1.4-1.2,2.3-2.7,2.5c0.6,0.3,1.2,0.5,1.9,0.5c2.1,0,4.1-1.6,4.1-3.6c0-0.2,0-0.4-0.1-0.6l-0.8-3.7
		C21.9,29.6,21.2,29.7,20.3,29.7z M18.1,24.5c0,1,0.5,1.9,1.6,2.5c-1.8-0.3-3-1.4-3-3.1c0-2,1.7-3.7,3.8-4.1l-0.8-4
		C16,18.6,14,21.3,14,23.9c0,2.9,2.8,5.3,6,5.3c0.9,0,1.7-0.2,2.4-0.5L21,21.9C19.4,22.1,18.1,23.1,18.1,24.5z M22.1,3.2
		c-1.6,0-2.9,3.7-2.9,7c0,0.7,0,1.3,0.2,1.9c2.7-2.4,4-4.5,4-6.5c0-0.9-0.3-1.7-1-2.4C22.4,3.2,22.3,3.2,22.1,3.2z M24.9,25
		c0-1.6-1.2-3.3-2.9-3.3c-0.1,0-0.2,0-0.5,0l1.4,6.6C24.2,27.5,24.9,26.3,24.9,25z"/>
</g>
<g>
	<path d="M29.5,11.6h0.6L30,17.9c0.4-0.7,1-1,1.8-1c1.2,0,2.2,0.8,2.2,1.9c0,0.8-0.5,1.8-1.7,2.7l-2.8,2.1V11.6z M30.1,18.6
		C30,19.3,30,20,30,20.5c0,1,0,1.6,0.1,2c1-0.7,2.4-2.6,2.4-3.7c0-0.6-0.5-1.1-1.1-1.1C30.8,17.7,30.4,18,30.1,18.6z"/>
</g>
<g>
	<path d="M35.1,4.2h0.6l-0.1,6.2c0.4-0.7,1-1,1.8-1c1.2,0,2.2,0.8,2.2,1.9c0,0.8-0.5,1.8-1.7,2.7l-2.8,2.1V4.2z M35.7,11.1
		c-0.1,0.8-0.1,1.4-0.1,1.9c0,1,0,1.6,0.1,2c1-0.7,2.4-2.6,2.4-3.7c0-0.6-0.5-1.1-1.1-1.1C36.4,10.3,36,10.6,35.7,11.1z"/>
</g>
<g>
	<path d="M40.7,14.1h0.6l-0.1,6.2c0.4-0.7,1-1,1.8-1c1.2,0,2.2,0.8,2.2,1.9c0,0.8-0.5,1.8-1.7,2.7l-2.8,2.1V14.1z M41.3,21
		c-0.1,0.8-0.1,1.4-0.1,1.9c0,1,0,1.6,0.1,2c1-0.7,2.4-2.6,2.4-3.7c0-0.6-0.5-1.1-1.1-1.1C42,20.2,41.6,20.5,41.3,21z"/>
</g>
<polygon fill-rule="evenodd" clip-rule="evenodd" points="60.4,11.3 99.9,6.3 99.9,3.8 60.4,8.8 "/>
<polygon fill-rule="evenodd" clip-rule="evenodd" points="113.2,38.6 152.8,33.6 152.8,31.1 113.2,36.1 "/>
<polygon fill-rule="evenodd" clip-rule="evenodd" points="181,36.1 220.5,31.1 220.5,28.6 181,33.6 "/>
<polygon fill-rule="evenodd" clip-rule="evenodd" points="240.4,27.4 279.9,22.4 279.9,20 240.4,24.9 "/>
<polygon fill-rule="evenodd" clip-rule="evenodd" points="299.7,22.4 339.3,27.4 339.3,24.9 299.7,20 "/>
<polygon fill-rule="evenodd" clip-rule="evenodd" points="358.9,31.1 398.5,36.1 398.5,33.6 358.9,28.6 "/>
<polygon fill-rule="evenodd" clip-rule="evenodd" points="426.7,33.6 466.4,38.6 466.4,36.1 426.7,31.1 "/>
<polygon fill-rule="evenodd" clip-rule="evenodd" points="492.6,6.3 532.1,11.3 532.1,8.8 492.6,3.8 "/>
<rect x="8.5" y="76.8" width="544.4" height="0.5"/>
<rect x="8.5" y="71.8" width="544.4" height="0.5"/>
<rect x="8.5" y="66.8" width="544.4" height="0.5"/>
<rect x="8.5" y="61.9" width="544.4" height="0.5"/>
<rect x="8.5" y="56.9" width="544.4" height="0.5"/>
<g>
	<path d="M15.7,71.3c2.9-2.6,4.7-6.1,4.7-9.2c0-2.5-1.4-4.4-3.7-4.4c-1.6,0-3.4,1.3-3.4,2.7c0,0.2,0,0.3,0.1,0.3
		c-0.1,0,0.6-0.6,1.4-0.6c0.9,0,1.5,0.8,1.5,1.7c0,1.2-0.9,2.2-2.1,2.2c-1.2,0-2.1-1.3-2.1-2.8c0-2.3,2.3-4.1,4.8-4.1
		c4.7,0,5.9,3.2,5.9,5.8c0,1.6-0.4,2.9-2,5.3c-1.9,3.1-6.4,5.3-8.1,5.3c-0.4,0-0.6-0.2-0.6-0.5C13.8,72.6,14.9,72,15.7,71.3z
		 M25.7,58.7c0.6,0,1,0.4,1,1s-0.4,1-1,1s-1-0.4-1-1S25.1,58.7,25.7,58.7z M25.7,63.6c0.6,0,1,0.4,1,1s-0.4,1-1,1s-1-0.4-1-1
		S25.1,63.6,25.7,63.6z"/>
</g>
<g>
	<path d="M29.5,63.7h0.6L30,70c0.4-0.7,1-1,1.8-1c1.2,0,2.2,0.8,2.2,1.9c0,0.8-0.5,1.8-1.7,2.7l-2.8,2.1V63.7z M30.1,70.6
		C30,71.4,30,72,30,72.6c0,1,0,1.6,0.1,2c1-0.7,2.4-2.6,2.4-3.7c0-0.6-0.5-1.1-1.1-1.1C30.8,69.8,30.4,70.1,30.1,70.6z"/>
</g>
<g>
	<path d="M35.1,56.3h0.6l-0.1,6.2c0.4-0.7,1-1,1.8-1c1.2,0,2.2,0.8,2.2,1.9c0,0.8-0.5,1.8-1.7,2.7l-2.8,2.1V56.3z M35.7,63.2
		c-0.1,0.8-0.1,1.4-0.1,1.9c0,1,0,1.6,0.1,2c1-0.7,2.4-2.6,2.4-3.7c0-0.6-0.5-1.1-1.1-1.1C36.4,62.4,36,62.6,35.7,63.2z"/>
</g>
<g>
	<path d="M40.7,66.2h0.6l-0.1,6.2c0.4-0.7,1-1,1.8-1c1.2,0,2.2,0.8,2.2,1.9c0,0.8-0.5,1.8-1.7,2.7l-2.8,2.1V66.2z M41.3,73.1
		c-0.1,0.8-0.1,1.4-0.1,1.9c0,1,0,1.6,0.1,2c1-0.7,2.4-2.6,2.4-3.7c0-0.6-0.5-1.1-1.1-1.1C42,72.3,41.6,72.6,41.3,73.1z"/>
</g>
<polygon fill-rule="evenodd" clip-rule="evenodd" points="53.9,79.5 93.4,74.5 93.4,72 53.9,77 "/>
<g>
	<path d="M173,75.6c-3.2,0-6.1-2.3-6.1-5.1c0-2.4,1.7-5,5.1-7.9c-0.2-0.9-0.3-1.8-0.3-2.7c0-2.6,0.9-5.1,2.4-6.3
		c1.4,1.9,2,3.7,2,5.3c0,2.2-1,4.2-3.2,6.1l0.7,3.1c0.4,0,0.6,0,0.6,0c2,0,3.6,1.5,3.6,3.5c0,1.4-1.1,2.8-2.7,3.6
		c0-0.1,0.6,2.8,0.6,3.3c0,1.9-1.7,3.2-3.7,3.2c-1.5,0-2.7-1-2.7-2.5c0-1.1,0.7-1.9,1.8-1.9c1,0,1.7,1,1.7,1.9c0,1-0.9,1.7-2,1.8
		c0.4,0.2,0.9,0.3,1.4,0.3c1.6,0,3.1-1.2,3.1-2.7c0-0.1,0-0.3,0-0.5l-0.6-2.8C174.2,75.5,173.7,75.6,173,75.6z M171.3,71.7
		c0,0.8,0.4,1.4,1.2,1.9c-1.3-0.2-2.2-1.1-2.2-2.3c0-1.5,1.3-2.8,2.9-3.1l-0.6-3c-2.8,2.1-4.3,4.1-4.3,6.1c0,2.2,2.1,4,4.5,4
		c0.7,0,1.3-0.1,1.8-0.4l-1.1-5.1C172.3,69.9,171.3,70.7,171.3,71.7z M174.4,55.7c-1.2,0-2.2,2.8-2.2,5.3c0,0.5,0,1,0.1,1.4
		c2-1.8,3-3.4,3-4.8c0-0.7-0.3-1.3-0.7-1.8C174.5,55.7,174.5,55.7,174.4,55.7z M176.4,72.1c0-1.2-0.9-2.4-2.2-2.4c0,0-0.2,0-0.4,0
		l1.1,5C175.9,74,176.4,73.1,176.4,72.1z"/>
</g>
<polygon fill-rule="evenodd" clip-rule="evenodd" points="113.2,74.5 152.8,69.6 152.8,67.1 113.2,72 "/>
<polygon fill-rule="evenodd" clip-rule="evenodd" points="187.5,63.4 227,58.4 227,55.9 187.5,60.9 "/>
<polygon fill-rule="evenodd" clip-rule="evenodd" points="246.9,58.4 286.4,53.4 286.4,51 246.9,55.9 "/>
<polygon fill-rule="evenodd" clip-rule="evenodd" points="306.2,53.4 345.8,58.4 345.8,55.9 306.2,51 "/>
<g>
	<path d="M415.2,69c2.2-2,3.6-4.6,3.6-6.9c0-1.9-1.1-3.3-2.8-3.3c-1.2,0-2.5,1-2.5,2.1c0,0.2,0,0.2,0.1,0.2c0,0,0.4-0.5,1-0.5
		c0.7,0,1.2,0.6,1.2,1.3c0,0.9-0.6,1.7-1.6,1.7s-1.5-1-1.5-2.1c0-1.8,1.7-3.1,3.6-3.1c3.5,0,4.4,2.4,4.4,4.4c0,1.2-0.3,2.2-1.5,4
		c-1.4,2.3-4.8,4-6,4c-0.3,0-0.5-0.1-0.5-0.3C413.8,70,414.7,69.6,415.2,69z M422.7,59.5c0.4,0,0.7,0.3,0.7,0.7
		c0,0.4-0.3,0.7-0.7,0.7c-0.4,0-0.7-0.3-0.7-0.7C422,59.8,422.3,59.5,422.7,59.5z M422.7,63.2c0.4,0,0.7,0.3,0.7,0.7
		s-0.3,0.7-0.7,0.7c-0.4,0-0.7-0.3-0.7-0.7S422.3,63.2,422.7,63.2z"/>
</g>
<polygon fill-rule="evenodd" clip-rule="evenodd" points="365.5,58.4 405,63.4 405,60.9 365.5,55.9 "/>
<polygon fill-rule="evenodd" clip-rule="evenodd" points="426.7,69.6 466.4,74.5 466.4,72 426.7,67.1 "/>
<polygon fill-rule="evenodd" clip-rule="evenodd" points="486.1,74.5 525.6,79.5 525.6,77 486.1,72 "/>
<rect x="60.2" y="9" width="0.5" height="20.2"/>
<g>
	<path d="M53.7,30.7c0-1.8,2.5-3.5,4.5-3.5c1.3,0,2.3,0.7,2.3,1.7c0,1.7-2.5,3.5-4.6,3.5C54.7,32.5,53.7,31.8,53.7,30.7z"/>
</g>
<rect x="80" y="6.5" width="0.5" height="17.7"/>
<g>
	<path d="M73.6,25.8c0-1.8,2.5-3.5,4.5-3.5c1.3,0,2.3,0.7,2.3,1.7c0,1.7-2.5,3.5-4.6,3.5C74.5,27.5,73.6,26.9,73.6,25.8z"/>
</g>
<rect x="99.7" y="4" width="0.5" height="15.2"/>
<g>
	<path d="M93.3,20.8c0-1.8,2.5-3.5,4.5-3.5c1.3,0,2.3,0.7,2.3,1.7c0,1.7-2.5,3.5-4.6,3.5C94.2,22.5,93.3,21.9,93.3,20.8z"/>
</g>
<rect x="113" y="25.7" width="0.5" height="12.7"/>
<g>
	<path d="M113.1,25.8c0-1.8,2.5-3.5,4.5-3.5c1.3,0,2.3,0.7,2.3,1.7c0,1.7-2.5,3.5-4.6,3.5C114.1,27.5,113.1,26.9,113.1,25.8z"/>
</g>
<rect x="132.7" y="20.7" width="0.5" height="15.3"/>
<g>
	<path d="M132.8,20.8c0-1.8,2.5-3.5,4.5-3.5c1.3,0,2.3,0.7,2.3,1.7c0,1.7-2.5,3.5-4.6,3.5C133.8,22.5,132.8,21.9,132.8,20.8z"/>
</g>
<rect x="152.5" y="13.3" width="0.5" height="20.2"/>
<g>
	<path d="M152.6,13.4c0-1.8,2.5-3.5,4.5-3.5c1.3,0,2.3,0.7,2.3,1.7c0,1.7-2.5,3.5-4.6,3.5C153.6,15.1,152.6,14.5,152.6,13.4z"/>
</g>
<rect x="180.8" y="20.7" width="0.5" height="15.2"/>
<g>
	<path d="M180.8,20.8c0-1.8,2.5-3.5,4.5-3.5c1.3,0,2.3,0.7,2.3,1.7c0,1.7-2.5,3.5-4.6,3.5C181.8,22.5,180.8,21.9,180.8,20.8z"/>
</g>
<rect x="200.6" y="13.3" width="0.5" height="20.2"/>
<g>
	<path d="M200.7,13.4c0-1.8,2.5-3.5,4.5-3.5c1.3,0,2.3,0.7,2.3,1.7c0,1.7-2.5,3.5-4.6,3.5C201.7,15.1,200.7,14.5,200.7,13.4z"/>
</g>
<rect x="220.3" y="8.3" width="0.5" height="22.6"/>
<g>
	<path d="M220.4,8.4c0-1.8,2.5-3.5,4.5-3.5c1.3,0,2.3,0.7,2.3,1.7c0,1.7-2.5,3.5-4.6,3.5C221.3,10.1,220.4,9.5,220.4,8.4z"/>
</g>
<rect x="240.1" y="13.3" width="0.5" height="14"/>
<g>
	<path d="M240.2,13.4c0-1.8,2.5-3.5,4.5-3.5c1.3,0,2.3,0.7,2.3,1.7c0,1.7-2.5,3.5-4.6,3.5C241.2,15.1,240.2,14.5,240.2,13.4z"/>
</g>
<rect x="259.8" y="8.3" width="0.5" height="16.6"/>
<g>
	<path d="M259.9,8.4c0-1.8,2.5-3.5,4.5-3.5c1.3,0,2.3,0.7,2.3,1.7c0,1.7-2.5,3.5-4.6,3.5C260.9,10.1,259.9,9.5,259.9,8.4z"/>
</g>
<rect x="277.9" y="4.7" width="10.5" height="0.8"/>
<rect x="279.7" y="3.4" width="0.5" height="18.9"/>
<g>
	<path d="M279.7,3.5c0-1.8,2.5-3.5,4.5-3.5c1.3,0,2.3,0.7,2.3,1.7c0,1.7-2.5,3.5-4.6,3.5C280.7,5.2,279.7,4.5,279.7,3.5z"/>
</g>
<rect x="297.7" y="4.7" width="10.5" height="0.8"/>
<rect x="299.5" y="3.4" width="0.5" height="18.9"/>
<g>
	<path d="M299.6,3.5c0-1.8,2.5-3.5,4.5-3.5c1.3,0,2.3,0.7,2.3,1.7c0,1.7-2.5,3.5-4.6,3.5C300.5,5.2,299.6,4.5,299.6,3.5z"/>
</g>
<rect x="319.2" y="8.3" width="0.5" height="16.3"/>
<g>
	<path d="M319.3,8.4c0-1.8,2.5-3.5,4.5-3.5c1.3,0,2.3,0.7,2.3,1.7c0,1.7-2.5,3.5-4.6,3.5C320.2,10.1,319.3,9.5,319.3,8.4z"/>
</g>
<rect x="339" y="13.3" width="0.5" height="14"/>
<g>
	<path d="M339.1,13.4c0-1.8,2.5-3.5,4.5-3.5c1.3,0,2.3,0.7,2.3,1.7c0,1.7-2.5,3.5-4.6,3.5C340.1,15.1,339.1,14.5,339.1,13.4z"/>
</g>
<rect x="358.7" y="8.3" width="0.5" height="22.6"/>
<g>
	<path d="M358.8,8.4c0-1.8,2.5-3.5,4.5-3.5c1.3,0,2.3,0.7,2.3,1.7c0,1.7-2.5,3.5-4.6,3.5C359.8,10.1,358.8,9.5,358.8,8.4z"/>
</g>
<rect x="378.6" y="13.3" width="0.5" height="20.2"/>
<g>
	<path d="M378.6,13.4c0-1.8,2.5-3.5,4.5-3.5c1.3,0,2.3,0.7,2.3,1.7c0,1.7-2.5,3.5-4.6,3.5C379.6,15.1,378.6,14.5,378.6,13.4z"/>
</g>
<rect x="398.2" y="20.7" width="0.5" height="15.2"/>
<g>
	<path d="M398.3,20.8c0-1.8,2.5-3.5,4.5-3.5c1.3,0,2.3,0.7,2.3,1.7c0,1.7-2.5,3.5-4.6,3.5C399.3,22.5,398.3,21.9,398.3,20.8z"/>
</g>
<rect x="426.5" y="13.3" width="0.5" height="20.2"/>
<g>
	<path d="M426.5,13.4c0-1.8,2.5-3.5,4.5-3.5c1.3,0,2.3,0.7,2.3,1.7c0,1.7-2.5,3.5-4.6,3.5C427.5,15.1,426.5,14.5,426.5,13.4z"/>
</g>
<rect x="446.3" y="20.7" width="0.5" height="15.2"/>
<g>
	<path d="M446.4,20.8c0-1.8,2.5-3.5,4.5-3.5c1.3,0,2.3,0.7,2.3,1.7c0,1.7-2.5,3.5-4.6,3.5C447.3,22.5,446.4,21.9,446.4,20.8z"/>
</g>
<rect x="466.1" y="25.7" width="0.5" height="12.7"/>
<g>
	<path d="M466.2,25.8c0-1.8,2.5-3.5,4.5-3.5c1.3,0,2.3,0.7,2.3,1.7c0,1.7-2.5,3.5-4.6,3.5C467.2,27.5,466.2,26.9,466.2,25.8z"/>
</g>
<rect x="492.3" y="4" width="0.5" height="15.2"/>
<g>
	<path d="M485.9,20.8c0-1.8,2.5-3.5,4.5-3.5c1.3,0,2.3,0.7,2.3,1.7c0,1.7-2.5,3.5-4.6,3.5C486.9,22.5,485.9,21.9,485.9,20.8z"/>
</g>
<rect x="512.2" y="6.5" width="0.5" height="17.7"/>
<g>
	<path d="M505.7,25.8c0-1.8,2.5-3.5,4.5-3.5c1.3,0,2.3,0.7,2.3,1.7c0,1.7-2.5,3.5-4.6,3.5C506.7,27.5,505.7,26.9,505.7,25.8z"/>
</g>
<rect x="531.9" y="9" width="0.5" height="20.2"/>
<g>
	<path d="M525.4,30.7c0-1.8,2.5-3.5,4.5-3.5c1.3,0,2.3,0.7,2.3,1.7c0,1.7-2.5,3.5-4.6,3.5C526.4,32.5,525.4,31.8,525.4,30.7z"/>
</g>
<rect x="53.6" y="65.4" width="0.5" height="14"/>
<g>
	<path d="M53.7,65.5c0-1.8,2.5-3.5,4.5-3.5c1.3,0,2.3,0.7,2.3,1.7c0,1.7-2.5,3.5-4.6,3.5C54.7,67.2,53.7,66.5,53.7,65.5z"/>
</g>
<rect x="73.5" y="60.4" width="0.5" height="16.4"/>
<g>
	<path d="M73.6,60.5c0-1.8,2.5-3.5,4.5-3.5c1.3,0,2.3,0.7,2.3,1.7c0,1.7-2.5,3.5-4.6,3.5C74.5,62.2,73.6,61.6,73.6,60.5z"/>
</g>
<rect x="93.2" y="55.5" width="0.5" height="18.9"/>
<g>
	<path d="M93.3,55.5c0-1.8,2.5-3.5,4.5-3.5c1.3,0,2.3,0.7,2.3,1.7c0,1.7-2.5,3.5-4.6,3.5C94.2,57.3,93.3,56.6,93.3,55.5z"/>
</g>
<rect x="113" y="60.4" width="0.5" height="14"/>
<g>
	<path d="M113.1,60.5c0-1.8,2.5-3.5,4.5-3.5c1.3,0,2.3,0.7,2.3,1.7c0,1.7-2.5,3.5-4.6,3.5C114.1,62.2,113.1,61.6,113.1,60.5z"/>
</g>
<rect x="132.7" y="55.5" width="0.5" height="16.6"/>
<g>
	<path d="M132.8,55.5c0-1.8,2.5-3.5,4.5-3.5c1.3,0,2.3,0.7,2.3,1.7c0,1.7-2.5,3.5-4.6,3.5C133.8,57.3,132.8,56.6,132.8,55.5z"/>
</g>
<rect x="150.8" y="51.8" width="10.5" height="0.8"/>
<rect x="150.8" y="46.9" width="10.5" height="0.8"/>
<rect x="152.5" y="48" width="0.5" height="21.4"/>
<g>
	<path d="M152.6,48.1c0-1.8,2.5-3.5,4.5-3.5c1.3,0,2.3,0.7,2.3,1.7c0,1.7-2.5,3.5-4.6,3.5C153.6,49.8,152.6,49.2,152.6,48.1z"/>
</g>
<rect x="179" y="81.6" width="10.5" height="0.8"/>
<rect x="187.3" y="61" width="0.5" height="22.6"/>
<g>
	<path d="M180.8,85.3c0-1.8,2.5-3.5,4.5-3.5c1.3,0,2.3,0.7,2.3,1.7c0,1.7-2.5,3.5-4.6,3.5C181.8,87,180.8,86.4,180.8,85.3z"/>
</g>
<rect x="207.1" y="58.6" width="0.5" height="17.7"/>
<g>
	<path d="M200.7,77.9c0-1.8,2.5-3.5,4.5-3.5c1.3,0,2.3,0.7,2.3,1.7c0,1.7-2.5,3.5-4.6,3.5C201.7,79.6,200.7,78.9,200.7,77.9z"/>
</g>
<rect x="226.8" y="56.1" width="0.5" height="15.2"/>
<g>
	<path d="M220.4,72.9c0-1.8,2.5-3.5,4.5-3.5c1.3,0,2.3,0.7,2.3,1.7c0,1.7-2.5,3.5-4.6,3.5C221.3,74.6,220.4,74,220.4,72.9z"/>
</g>
<rect x="246.6" y="56.1" width="0.5" height="20.2"/>
<g>
	<path d="M240.2,77.9c0-1.8,2.5-3.5,4.5-3.5c1.3,0,2.3,0.7,2.3,1.7c0,1.7-2.5,3.5-4.6,3.5C241.2,79.6,240.2,78.9,240.2,77.9z"/>
</g>
<rect x="266.3" y="53.8" width="0.5" height="17.5"/>
<g>
	<path d="M259.9,72.9c0-1.8,2.5-3.5,4.5-3.5c1.3,0,2.3,0.7,2.3,1.7c0,1.7-2.5,3.5-4.6,3.5C260.9,74.6,259.9,74,259.9,72.9z"/>
</g>
<rect x="286.2" y="51.1" width="0.5" height="15.2"/>
<g>
	<path d="M279.7,67.9c0-1.8,2.5-3.5,4.5-3.5c1.3,0,2.3,0.7,2.3,1.7c0,1.7-2.5,3.5-4.6,3.5C280.7,69.7,279.7,69,279.7,67.9z"/>
</g>
<rect x="306" y="51.1" width="0.5" height="15.2"/>
<g>
	<path d="M299.6,67.9c0-1.8,2.5-3.5,4.5-3.5c1.3,0,2.3,0.7,2.3,1.7c0,1.7-2.5,3.5-4.6,3.5C300.5,69.7,299.6,69,299.6,67.9z"/>
</g>
<rect x="325.7" y="53.4" width="0.5" height="17.8"/>
<g>
	<path d="M319.3,72.9c0-1.8,2.5-3.5,4.5-3.5c1.3,0,2.3,0.7,2.3,1.7c0,1.7-2.5,3.5-4.6,3.5C320.2,74.6,319.3,74,319.3,72.9z"/>
</g>
<rect x="345.5" y="56.1" width="0.5" height="20.2"/>
<g>
	<path d="M339.1,77.9c0-1.8,2.5-3.5,4.5-3.5c1.3,0,2.3,0.7,2.3,1.7c0,1.7-2.5,3.5-4.6,3.5C340.1,79.6,339.1,78.9,339.1,77.9z"/>
</g>
<rect x="365.2" y="56.1" width="0.5" height="15.2"/>
<g>
	<path d="M358.8,72.9c0-1.8,2.5-3.5,4.5-3.5c1.3,0,2.3,0.7,2.3,1.7c0,1.7-2.5,3.5-4.6,3.5C359.8,74.6,358.8,74,358.8,72.9z"/>
</g>
<rect x="385.1" y="58.6" width="0.5" height="17.7"/>
<g>
	<path d="M378.6,77.9c0-1.8,2.5-3.5,4.5-3.5c1.3,0,2.3,0.7,2.3,1.7c0,1.7-2.5,3.5-4.6,3.5C379.6,79.6,378.6,78.9,378.6,77.9z"/>
</g>
<rect x="396.5" y="81.6" width="10.5" height="0.8"/>
<rect x="404.8" y="61" width="0.5" height="22.6"/>
<g>
	<path d="M398.3,85.3c0-1.8,2.5-3.5,4.5-3.5c1.3,0,2.3,0.7,2.3,1.7c0,1.7-2.5,3.5-4.6,3.5C399.3,87,398.3,86.4,398.3,85.3z"/>
</g>
<rect x="424.7" y="51.8" width="10.5" height="0.8"/>
<rect x="424.7" y="46.9" width="10.5" height="0.8"/>
<rect x="426.5" y="48" width="0.5" height="21.4"/>
<g>
	<path d="M426.5,48.1c0-1.8,2.5-3.5,4.5-3.5c1.3,0,2.3,0.7,2.3,1.7c0,1.7-2.5,3.5-4.6,3.5C427.5,49.8,426.5,49.2,426.5,48.1z"/>
</g>
<rect x="446.3" y="55.5" width="0.5" height="16.4"/>
<g>
	<path d="M446.4,55.5c0-1.8,2.5-3.5,4.5-3.5c1.3,0,2.3,0.7,2.3,1.7c0,1.7-2.5,3.5-4.6,3.5C447.3,57.3,446.4,56.6,446.4,55.5z"/>
</g>
<rect x="466.1" y="60.4" width="0.5" height="14"/>
<g>
	<path d="M466.2,60.5c0-1.8,2.5-3.5,4.5-3.5c1.3,0,2.3,0.7,2.3,1.7c0,1.7-2.5,3.5-4.6,3.5C467.2,62.2,466.2,61.6,466.2,60.5z"/>
</g>
<rect x="485.8" y="55.5" width="0.5" height="18.9"/>
<g>
	<path d="M485.9,55.5c0-1.8,2.5-3.5,4.5-3.5c1.3,0,2.3,0.7,2.3,1.7c0,1.7-2.5,3.5-4.6,3.5C486.9,57.3,485.9,56.6,485.9,55.5z"/>
</g>
<rect x="505.7" y="60.4" width="0.5" height="16.4"/>
<g>
	<path d="M505.7,60.5c0-1.8,2.5-3.5,4.5-3.5c1.3,0,2.3,0.7,2.3,1.7c0,1.7-2.5,3.5-4.6,3.5C506.7,62.2,505.7,61.6,505.7,60.5z"/>
</g>
<rect x="525.4" y="65.4" width="0.5" height="14"/>
<g>
	<path d="M525.4,65.5c0-1.8,2.5-3.5,4.5-3.5c1.3,0,2.3,0.7,2.3,1.7c0,1.7-2.5,3.5-4.6,3.5C526.4,67.2,525.4,66.5,525.4,65.5z"/>
</g>
</svg>
