<?xml version="1.0" encoding="utf-8"?>

<!--
	ScaleBook
	Copyright (c) Leland Jansen 2015. All rights reserved.
-->

<!DOCTYPE svg PUBLIC "-//W3C//DTD SVG 1.1//EN" "http://www.w3.org/Graphics/SVG/1.1/DTD/svg11.dtd">
<svg version="1.1" id="Layer_1" xmlns="http://www.w3.org/2000/svg" xmlns:xlink="http://www.w3.org/1999/xlink" x="0px" y="0px"
	 viewBox="0 0 552.9 87" enable-background="new 0 0 552.9 87" xml:space="preserve">
<rect x="8.4" y="12.5" width="0.8" height="67"/>
<g>
	<path d="M7.4,13.2c-1.9,1.1-3.6,5.8-3.6,9.4c0,2.3,1.4,9.9,1.4,12.3c0,5-1.5,8.6-4.6,11.1c3,2.4,4.6,6.1,4.6,11
		c0,2.3-1.4,9.9-1.4,12.3c0,3.8,1.7,8.4,3.6,9.5v0.7c-3.5-2.3-5.8-8.2-5.8-13.1c0-2.1,1.7-9.4,1.7-11.5c0-3.8-1-6.6-2.9-8.2
		C0.1,46.4,0,46.2,0,46s0.1-0.4,0.5-0.7c1.9-1.7,2.9-4.2,2.9-7.6c0-2.1-1.7-10-1.7-12.2c0-5.2,2.1-10.4,5.8-13.1V13.2z"/>
</g>
<rect x="547.8" y="12.5" width="0.8" height="67"/>
<rect x="550.4" y="12.5" width="2.5" height="67"/>
<rect x="8.5" y="32.1" width="544.4" height="0.5"/>
<rect x="8.5" y="27.2" width="544.4" height="0.5"/>
<rect x="8.5" y="22.2" width="544.4" height="0.5"/>
<rect x="8.5" y="17.2" width="544.4" height="0.5"/>
<rect x="8.5" y="12.3" width="544.4" height="0.5"/>
<g>
	<path d="M20.3,32.2c-4.2,0-8.1-3.1-8.1-6.9c0-3.2,2.3-6.7,6.8-10.5c-0.3-1.2-0.4-2.4-0.4-3.6c0-3.5,1.2-6.8,3.2-8.5
		c1.8,2.5,2.7,4.9,2.7,7.1c0,2.9-1.3,5.6-4.3,8.1l0.9,4.2c0.5,0,0.8-0.1,0.8-0.1c2.6,0,4.8,2,4.8,4.7c0,1.9-1.4,3.7-3.6,4.8
		c0-0.1,0.9,3.8,0.9,4.3c0,2.5-2.3,4.2-4.9,4.2c-2,0-3.6-1.3-3.6-3.4c0-1.4,1-2.6,2.4-2.6c1.3,0,2.3,1.3,2.3,2.5
		c0,1.4-1.2,2.3-2.7,2.5c0.6,0.3,1.2,0.5,1.9,0.5c2.1,0,4.1-1.6,4.1-3.6c0-0.2,0-0.4-0.1-0.6l-0.8-3.7
		C21.9,32.1,21.2,32.2,20.3,32.2z M18.1,27c0,1,0.5,1.9,1.6,2.5c-1.8-0.3-3-1.4-3-3.1c0-2,1.7-3.7,3.8-4.1l-0.8-4
		C16,21.1,14,23.8,14,26.4c0,2.9,2.8,5.3,6,5.3c0.9,0,1.7-0.2,2.4-0.5L21,24.4C19.4,24.6,18.1,25.6,18.1,27z M22.1,5.6
		c-1.6,0-2.9,3.7-2.9,7c0,0.7,0,1.3,0.2,1.9c2.7-2.4,4-4.5,4-6.5c0-0.9-0.3-1.7-1-2.4C22.4,5.7,22.3,5.6,22.1,5.6z M24.9,27.5
		c0-1.6-1.2-3.3-2.9-3.3c-0.1,0-0.2,0-0.5,0l1.4,6.6C24.2,30,24.9,28.8,24.9,27.5z"/>
</g>
<g>
	<path d="M29.5,14.1h0.6L30,20.4c0.4-0.7,1-1,1.8-1c1.2,0,2.2,0.8,2.2,1.9c0,0.8-0.5,1.8-1.7,2.7l-2.8,2.1V14.1z M30.1,21
		C30,21.8,30,22.4,30,23c0,1,0,1.6,0.1,2c1-0.7,2.4-2.6,2.4-3.7c0-0.6-0.5-1.1-1.1-1.1C30.8,20.2,30.4,20.5,30.1,21z"/>
</g>
<polygon fill-rule="evenodd" clip-rule="evenodd" points="49.2,13.8 89.8,8.8 89.8,6.3 49.2,11.3 "/>
<polygon fill-rule="evenodd" clip-rule="evenodd" points="103.6,38.6 144.1,33.6 144.1,31.1 103.6,36.1 "/>
<polygon fill-rule="evenodd" clip-rule="evenodd" points="172.3,34.8 212.9,29.9 212.9,27.4 172.3,32.4 "/>
<polygon fill-rule="evenodd" clip-rule="evenodd" points="233.2,28.6 273.8,23.7 273.8,21.2 233.2,26.2 "/>
<polygon fill-rule="evenodd" clip-rule="evenodd" points="294.2,23.7 334.6,28.6 334.6,26.2 294.2,21.2 "/>
<polygon fill-rule="evenodd" clip-rule="evenodd" points="354.9,29.9 395.5,34.8 395.5,32.4 354.9,27.4 "/>
<polygon fill-rule="evenodd" clip-rule="evenodd" points="423.7,33.6 464.4,38.6 464.4,36.1 423.7,31.1 "/>
<polygon fill-rule="evenodd" clip-rule="evenodd" points="491,8.8 531.6,13.8 531.6,11.3 491,6.3 "/>
<rect x="8.5" y="79.3" width="544.4" height="0.5"/>
<rect x="8.5" y="74.3" width="544.4" height="0.5"/>
<rect x="8.5" y="69.3" width="544.4" height="0.5"/>
<rect x="8.5" y="64.4" width="544.4" height="0.5"/>
<rect x="8.5" y="59.4" width="544.4" height="0.5"/>
<g>
	<path d="M15.7,73.8c2.9-2.6,4.7-6.1,4.7-9.2c0-2.5-1.4-4.4-3.7-4.4c-1.6,0-3.4,1.3-3.4,2.7c0,0.2,0,0.3,0.1,0.3
		c-0.1,0,0.6-0.6,1.4-0.6c0.9,0,1.5,0.8,1.5,1.7c0,1.2-0.9,2.2-2.1,2.2c-1.2,0-2.1-1.3-2.1-2.8c0-2.3,2.3-4.1,4.8-4.1
		c4.7,0,5.9,3.2,5.9,5.8c0,1.6-0.4,2.9-2,5.3C19.1,73.8,14.6,76,13,76c-0.4,0-0.6-0.2-0.6-0.5C13.8,75.1,14.9,74.5,15.7,73.8z
		 M25.7,61.1c0.6,0,1,0.4,1,1s-0.4,1-1,1s-1-0.4-1-1S25.1,61.1,25.7,61.1z M25.7,66.1c0.6,0,1,0.4,1,1c0,0.6-0.4,1-1,1s-1-0.4-1-1
		C24.7,66.5,25.1,66.1,25.7,66.1z"/>
</g>
<g>
	<path d="M29.5,66.2h0.6L30,72.5c0.4-0.7,1-1,1.8-1c1.2,0,2.2,0.8,2.2,1.9c0,0.8-0.5,1.8-1.7,2.7l-2.8,2.1V66.2z M30.1,73.1
		C30,73.9,30,74.5,30,75.1c0,1,0,1.6,0.1,2c1-0.7,2.4-2.6,2.4-3.7c0-0.6-0.5-1.1-1.1-1.1C30.8,72.3,30.4,72.6,30.1,73.1z"/>
</g>
<polygon fill-rule="evenodd" clip-rule="evenodd" points="42.7,80.7 83.3,75.8 83.3,73.3 42.7,78.2 "/>
<g>
	<path d="M164.3,78.1c-3.2,0-6.1-2.3-6.1-5.1c0-2.4,1.7-5,5.1-7.9c-0.2-0.9-0.3-1.8-0.3-2.7c0-2.6,0.9-5.1,2.4-6.3
		c1.4,1.9,2,3.7,2,5.3c0,2.2-1,4.2-3.2,6.1l0.7,3.1c0.4,0,0.6,0,0.6,0c2,0,3.6,1.5,3.6,3.5c0,1.4-1.1,2.8-2.7,3.6
		c0-0.1,0.6,2.8,0.6,3.3c0,1.9-1.7,3.2-3.7,3.2c-1.5,0-2.7-1-2.7-2.5c0-1.1,0.7-1.9,1.8-1.9c1,0,1.7,1,1.7,1.9c0,1-0.9,1.7-2,1.8
		c0.4,0.2,0.9,0.3,1.4,0.3c1.6,0,3.1-1.2,3.1-2.7c0-0.1,0-0.3,0-0.5l-0.6-2.8C165.5,78,165,78.1,164.3,78.1z M162.6,74.2
		c0,0.8,0.4,1.4,1.2,1.9c-1.3-0.2-2.2-1.1-2.2-2.3c0-1.5,1.3-2.8,2.9-3.1l-0.6-3c-2.8,2.1-4.3,4.1-4.3,6.1c0,2.2,2.1,4,4.5,4
		c0.7,0,1.3-0.1,1.8-0.4l-1.1-5.1C163.6,72.4,162.6,73.2,162.6,74.2z M165.7,58.2c-1.2,0-2.2,2.8-2.2,5.3c0,0.5,0,1,0.1,1.4
		c2-1.8,3-3.4,3-4.8c0-0.7-0.3-1.3-0.7-1.8C165.9,58.2,165.8,58.2,165.7,58.2z M167.7,74.6c0-1.2-0.9-2.4-2.2-2.4c0,0-0.2,0-0.4,0
		l1.1,5C167.2,76.5,167.7,75.6,167.7,74.6z"/>
</g>
<polygon fill-rule="evenodd" clip-rule="evenodd" points="103.6,75.8 144.1,70.8 144.1,68.3 103.6,73.3 "/>
<polygon fill-rule="evenodd" clip-rule="evenodd" points="178.8,64.6 219.4,59.6 219.4,57.2 178.8,62.1 "/>
<polygon fill-rule="evenodd" clip-rule="evenodd" points="239.7,60.9 280.4,55.9 280.4,53.4 239.7,58.4 "/>
<polygon fill-rule="evenodd" clip-rule="evenodd" points="300.7,55.9 341.1,60.9 341.1,58.4 300.7,53.4 "/>
<g>
	<path d="M412.3,71.5c2.2-2,3.6-4.6,3.6-6.9c0-1.9-1.1-3.3-2.8-3.3c-1.2,0-2.5,1-2.5,2.1c0,0.2,0,0.2,0.1,0.2c0,0,0.4-0.5,1-0.5
		c0.7,0,1.2,0.6,1.2,1.3c0,0.9-0.6,1.7-1.6,1.7s-1.5-1-1.5-2.1c0-1.8,1.7-3.1,3.6-3.1c3.5,0,4.4,2.4,4.4,4.4c0,1.2-0.3,2.2-1.5,4
		c-1.4,2.3-4.8,4-6,4c-0.3,0-0.5-0.1-0.5-0.3C410.9,72.5,411.7,72,412.3,71.5z M419.8,62c0.4,0,0.7,0.3,0.7,0.7
		c0,0.4-0.3,0.7-0.7,0.7c-0.4,0-0.7-0.3-0.7-0.7C419,62.3,419.3,62,419.8,62z M419.8,65.7c0.4,0,0.7,0.3,0.7,0.7
		c0,0.4-0.3,0.7-0.7,0.7c-0.4,0-0.7-0.3-0.7-0.7C419,66,419.3,65.7,419.8,65.7z"/>
</g>
<polygon fill-rule="evenodd" clip-rule="evenodd" points="361.4,59.6 402,64.6 402,62.1 361.4,57.2 "/>
<polygon fill-rule="evenodd" clip-rule="evenodd" points="423.7,70.8 464.4,75.8 464.4,73.3 423.7,68.3 "/>
<polygon fill-rule="evenodd" clip-rule="evenodd" points="484.5,75.8 525.1,80.7 525.1,78.2 484.5,73.3 "/>
<rect x="49" y="11.4" width="0.5" height="17.7"/>
<g>
	<path d="M42.6,30.7c0-1.8,2.5-3.5,4.5-3.5c1.3,0,2.3,0.7,2.3,1.7c0,1.7-2.5,3.5-4.6,3.5C43.5,32.5,42.6,31.8,42.6,30.7z"/>
</g>
<rect x="69.3" y="9" width="0.5" height="15.2"/>
<g>
	<path d="M62.9,25.8c0-1.8,2.5-3.5,4.5-3.5c1.3,0,2.3,0.7,2.3,1.7c0,1.7-2.5,3.5-4.6,3.5C63.8,27.5,62.9,26.9,62.9,25.8z"/>
</g>
<rect x="89.6" y="6.5" width="0.5" height="12.7"/>
<g>
	<path d="M83.2,20.8c0-1.8,2.5-3.5,4.5-3.5c1.3,0,2.3,0.7,2.3,1.7c0,1.7-2.5,3.5-4.6,3.5C84.1,22.5,83.2,21.9,83.2,20.8z"/>
</g>
<rect x="103.4" y="25.7" width="0.5" height="12.7"/>
<g>
	<path d="M103.5,25.8c0-1.8,2.5-3.5,4.5-3.5c1.3,0,2.3,0.7,2.3,1.7c0,1.7-2.5,3.5-4.6,3.5C104.5,27.5,103.5,26.9,103.5,25.8z"/>
</g>
<rect x="123.6" y="20.7" width="0.5" height="15.3"/>
<g>
	<path d="M123.6,20.8c0-1.8,2.5-3.5,4.5-3.5c1.3,0,2.3,0.7,2.3,1.7c0,1.7-2.5,3.5-4.6,3.5C124.6,22.5,123.6,21.9,123.6,20.8z"/>
</g>
<rect x="143.9" y="13.3" width="0.5" height="20.2"/>
<g>
	<path d="M143.9,13.4c0-1.8,2.5-3.5,4.5-3.5c1.3,0,2.3,0.7,2.3,1.7c0,1.7-2.5,3.5-4.6,3.5C144.9,15.1,143.9,14.5,143.9,13.4z"/>
</g>
<rect x="172.1" y="20.7" width="0.5" height="14"/>
<g>
	<path d="M172.2,20.8c0-1.8,2.5-3.5,4.5-3.5c1.3,0,2.3,0.7,2.3,1.7c0,1.7-2.5,3.5-4.6,3.5C173.1,22.5,172.2,21.9,172.2,20.8z"/>
</g>
<rect x="192.4" y="13.3" width="0.5" height="18.9"/>
<g>
	<path d="M192.5,13.4c0-1.8,2.5-3.5,4.5-3.5c1.3,0,2.3,0.7,2.3,1.7c0,1.7-2.5,3.5-4.6,3.5C193.4,15.1,192.5,14.5,192.5,13.4z"/>
</g>
<rect x="210.9" y="7.2" width="10.5" height="0.8"/>
<rect x="212.7" y="8.3" width="0.5" height="21.4"/>
<g>
	<path d="M212.8,8.4c0-1.8,2.5-3.5,4.5-3.5c1.3,0,2.3,0.7,2.3,1.7c0,1.7-2.5,3.5-4.6,3.5C213.7,10.1,212.8,9.5,212.8,8.4z"/>
</g>
<rect x="233" y="13.3" width="0.5" height="15.2"/>
<g>
	<path d="M233.1,13.4c0-1.8,2.5-3.5,4.5-3.5c1.3,0,2.3,0.7,2.3,1.7c0,1.7-2.5,3.5-4.6,3.5C234,15.1,233.1,14.5,233.1,13.4z"/>
</g>
<rect x="251.5" y="7.2" width="10.5" height="0.8"/>
<rect x="253.3" y="8.3" width="0.5" height="17.7"/>
<g>
	<path d="M253.4,8.4c0-1.8,2.5-3.5,4.5-3.5c1.3,0,2.3,0.7,2.3,1.7c0,1.7-2.5,3.5-4.6,3.5C254.4,10.1,253.4,9.5,253.4,8.4z"/>
</g>
<rect x="271.8" y="7.2" width="10.5" height="0.8"/>
<rect x="271.8" y="2.2" width="10.5" height="0.8"/>
<rect x="273.6" y="3.4" width="0.5" height="20.2"/>
<g>
	<path d="M273.7,3.5c0-1.8,2.5-3.5,4.5-3.5c1.3,0,2.3,0.7,2.3,1.7c0,1.7-2.5,3.5-4.6,3.5C274.7,5.2,273.7,4.5,273.7,3.5z"/>
</g>
<rect x="292.1" y="7.2" width="10.5" height="0.8"/>
<rect x="292.1" y="2.2" width="10.5" height="0.8"/>
<rect x="293.9" y="3.4" width="0.5" height="20.2"/>
<g>
	<path d="M294,3.5c0-1.8,2.5-3.5,4.5-3.5c1.3,0,2.3,0.7,2.3,1.7c0,1.7-2.5,3.5-4.6,3.5C295,5.2,294,4.5,294,3.5z"/>
</g>
<rect x="312.3" y="7.2" width="10.5" height="0.8"/>
<rect x="314.1" y="8.3" width="0.5" height="17.5"/>
<g>
	<path d="M314.1,8.4c0-1.8,2.5-3.5,4.5-3.5c1.3,0,2.3,0.7,2.3,1.7c0,1.7-2.5,3.5-4.6,3.5C315.1,10.1,314.1,9.5,314.1,8.4z"/>
</g>
<rect x="334.4" y="13.3" width="0.5" height="15.2"/>
<g>
	<path d="M334.5,13.4c0-1.8,2.5-3.5,4.5-3.5c1.3,0,2.3,0.7,2.3,1.7c0,1.7-2.5,3.5-4.6,3.5C335.4,15.1,334.5,14.5,334.5,13.4z"/>
</g>
<rect x="352.9" y="7.2" width="10.5" height="0.8"/>
<rect x="354.7" y="8.3" width="0.5" height="21.4"/>
<g>
	<path d="M354.8,8.4c0-1.8,2.5-3.5,4.5-3.5c1.3,0,2.3,0.7,2.3,1.7c0,1.7-2.5,3.5-4.6,3.5C355.7,10.1,354.8,9.5,354.8,8.4z"/>
</g>
<rect x="375" y="13.3" width="0.5" height="18.9"/>
<g>
	<path d="M375.1,13.4c0-1.8,2.5-3.5,4.5-3.5c1.3,0,2.3,0.7,2.3,1.7c0,1.7-2.5,3.5-4.6,3.5C376,15.1,375.1,14.5,375.1,13.4z"/>
</g>
<rect x="395.3" y="20.7" width="0.5" height="14"/>
<g>
	<path d="M395.4,20.8c0-1.8,2.5-3.5,4.5-3.5c1.3,0,2.3,0.7,2.3,1.7c0,1.7-2.5,3.5-4.6,3.5C396.3,22.5,395.4,21.9,395.4,20.8z"/>
</g>
<rect x="423.5" y="13.3" width="0.5" height="20.2"/>
<g>
	<path d="M423.6,13.4c0-1.8,2.5-3.5,4.5-3.5c1.3,0,2.3,0.7,2.3,1.7c0,1.7-2.5,3.5-4.6,3.5C424.6,15.1,423.6,14.5,423.6,13.4z"/>
</g>
<rect x="443.8" y="20.7" width="0.5" height="15.2"/>
<g>
	<path d="M443.9,20.8c0-1.8,2.5-3.5,4.5-3.5c1.3,0,2.3,0.7,2.3,1.7c0,1.7-2.5,3.5-4.6,3.5C444.9,22.5,443.9,21.9,443.9,20.8z"/>
</g>
<rect x="464.1" y="25.7" width="0.5" height="12.7"/>
<g>
	<path d="M464.2,25.8c0-1.8,2.5-3.5,4.5-3.5c1.3,0,2.3,0.7,2.3,1.7c0,1.7-2.5,3.5-4.6,3.5C465.2,27.5,464.2,26.9,464.2,25.8z"/>
</g>
<rect x="490.8" y="6.5" width="0.5" height="12.7"/>
<g>
	<path d="M484.4,20.8c0-1.8,2.5-3.5,4.5-3.5c1.3,0,2.3,0.7,2.3,1.7c0,1.7-2.5,3.5-4.6,3.5C485.3,22.5,484.4,21.9,484.4,20.8z"/>
</g>
<rect x="511.1" y="9" width="0.5" height="15.2"/>
<g>
	<path d="M504.7,25.8c0-1.8,2.5-3.5,4.5-3.5c1.3,0,2.3,0.7,2.3,1.7c0,1.7-2.5,3.5-4.6,3.5C505.6,27.5,504.7,26.9,504.7,25.8z"/>
</g>
<rect x="531.4" y="11.4" width="0.5" height="17.7"/>
<g>
	<path d="M525,30.7c0-1.8,2.5-3.5,4.5-3.5c1.3,0,2.3,0.7,2.3,1.7c0,1.7-2.5,3.5-4.6,3.5C525.9,32.5,525,31.8,525,30.7z"/>
</g>
<rect x="42.5" y="65.4" width="0.5" height="15.2"/>
<g>
	<path d="M42.6,65.5c0-1.8,2.5-3.5,4.5-3.5c1.3,0,2.3,0.7,2.3,1.7c0,1.7-2.5,3.5-4.6,3.5C43.5,67.2,42.6,66.5,42.6,65.5z"/>
</g>
<rect x="62.8" y="60.4" width="0.5" height="17.7"/>
<g>
	<path d="M62.9,60.5c0-1.8,2.5-3.5,4.5-3.5c1.3,0,2.3,0.7,2.3,1.7c0,1.7-2.5,3.5-4.6,3.5C63.8,62.2,62.9,61.6,62.9,60.5z"/>
</g>
<rect x="81.3" y="54.3" width="10.5" height="0.8"/>
<rect x="83.1" y="55.5" width="0.5" height="20.2"/>
<g>
	<path d="M83.2,55.5c0-1.8,2.5-3.5,4.5-3.5c1.3,0,2.3,0.7,2.3,1.7c0,1.7-2.5,3.5-4.6,3.5C84.1,57.3,83.2,56.6,83.2,55.5z"/>
</g>
<rect x="103.4" y="60.4" width="0.5" height="15.2"/>
<g>
	<path d="M103.5,60.5c0-1.8,2.5-3.5,4.5-3.5c1.3,0,2.3,0.7,2.3,1.7c0,1.7-2.5,3.5-4.6,3.5C104.5,62.2,103.5,61.6,103.5,60.5z"/>
</g>
<rect x="121.8" y="54.3" width="10.5" height="0.8"/>
<rect x="123.6" y="55.5" width="0.5" height="17.8"/>
<g>
	<path d="M123.6,55.5c0-1.8,2.5-3.5,4.5-3.5c1.3,0,2.3,0.7,2.3,1.7c0,1.7-2.5,3.5-4.6,3.5C124.6,57.3,123.6,56.6,123.6,55.5z"/>
</g>
<rect x="142.1" y="54.3" width="10.5" height="0.8"/>
<rect x="142.1" y="49.3" width="10.5" height="0.8"/>
<rect x="143.9" y="48" width="0.5" height="22.6"/>
<g>
	<path d="M143.9,48.1c0-1.8,2.5-3.5,4.5-3.5c1.3,0,2.3,0.7,2.3,1.7c0,1.7-2.5,3.5-4.6,3.5C144.9,49.8,143.9,49.2,143.9,48.1z"/>
</g>
<rect x="170.3" y="84.1" width="10.5" height="0.8"/>
<rect x="178.6" y="62.3" width="0.5" height="21.4"/>
<g>
	<path d="M172.2,85.3c0-1.8,2.5-3.5,4.5-3.5c1.3,0,2.3,0.7,2.3,1.7c0,1.7-2.5,3.5-4.6,3.5C173.1,87,172.2,86.4,172.2,85.3z"/>
</g>
<rect x="198.9" y="59.8" width="0.5" height="16.4"/>
<g>
	<path d="M192.5,77.9c0-1.8,2.5-3.5,4.5-3.5c1.3,0,2.3,0.7,2.3,1.7c0,1.7-2.5,3.5-4.6,3.5C193.4,79.6,192.5,78.9,192.5,77.9z"/>
</g>
<rect x="219.2" y="57.3" width="0.5" height="14"/>
<g>
	<path d="M212.8,72.9c0-1.8,2.5-3.5,4.5-3.5c1.3,0,2.3,0.7,2.3,1.7c0,1.7-2.5,3.5-4.6,3.5C213.7,74.6,212.8,74,212.8,72.9z"/>
</g>
<rect x="239.5" y="58.6" width="0.5" height="17.7"/>
<g>
	<path d="M233.1,77.9c0-1.8,2.5-3.5,4.5-3.5c1.3,0,2.3,0.7,2.3,1.7c0,1.7-2.5,3.5-4.6,3.5C234,79.6,233.1,78.9,233.1,77.9z"/>
</g>
<rect x="259.8" y="56.1" width="0.5" height="15.2"/>
<g>
	<path d="M253.4,72.9c0-1.8,2.5-3.5,4.5-3.5c1.3,0,2.3,0.7,2.3,1.7c0,1.7-2.5,3.5-4.6,3.5C254.4,74.6,253.4,74,253.4,72.9z"/>
</g>
<rect x="280.1" y="53.6" width="0.5" height="12.7"/>
<g>
	<path d="M273.7,67.9c0-1.8,2.5-3.5,4.5-3.5c1.3,0,2.3,0.7,2.3,1.7c0,1.7-2.5,3.5-4.6,3.5C274.7,69.7,273.7,69,273.7,67.9z"/>
</g>
<rect x="300.4" y="53.6" width="0.5" height="12.7"/>
<g>
	<path d="M294,67.9c0-1.8,2.5-3.5,4.5-3.5c1.3,0,2.3,0.7,2.3,1.7c0,1.7-2.5,3.5-4.6,3.5C295,69.7,294,69,294,67.9z"/>
</g>
<rect x="320.6" y="55.9" width="0.5" height="15.3"/>
<g>
	<path d="M314.1,72.9c0-1.8,2.5-3.5,4.5-3.5c1.3,0,2.3,0.7,2.3,1.7c0,1.7-2.5,3.5-4.6,3.5C315.1,74.6,314.1,74,314.1,72.9z"/>
</g>
<rect x="340.9" y="58.6" width="0.5" height="17.7"/>
<g>
	<path d="M334.5,77.9c0-1.8,2.5-3.5,4.5-3.5c1.3,0,2.3,0.7,2.3,1.7c0,1.7-2.5,3.5-4.6,3.5C335.4,79.6,334.5,78.9,334.5,77.9z"/>
</g>
<rect x="361.2" y="57.3" width="0.5" height="14"/>
<g>
	<path d="M354.8,72.9c0-1.8,2.5-3.5,4.5-3.5c1.3,0,2.3,0.7,2.3,1.7c0,1.7-2.5,3.5-4.6,3.5C355.7,74.6,354.8,74,354.8,72.9z"/>
</g>
<rect x="381.5" y="59.8" width="0.5" height="16.4"/>
<g>
	<path d="M375.1,77.9c0-1.8,2.5-3.5,4.5-3.5c1.3,0,2.3,0.7,2.3,1.7c0,1.7-2.5,3.5-4.6,3.5C376,79.6,375.1,78.9,375.1,77.9z"/>
</g>
<rect x="393.5" y="84.1" width="10.5" height="0.8"/>
<rect x="401.8" y="62.3" width="0.5" height="21.4"/>
<g>
	<path d="M395.4,85.3c0-1.8,2.5-3.5,4.5-3.5c1.3,0,2.3,0.7,2.3,1.7c0,1.7-2.5,3.5-4.6,3.5C396.3,87,395.4,86.4,395.4,85.3z"/>
</g>
<rect x="421.7" y="54.3" width="10.5" height="0.8"/>
<rect x="421.7" y="49.3" width="10.5" height="0.8"/>
<rect x="423.5" y="48" width="0.5" height="22.6"/>
<g>
	<path d="M423.6,48.1c0-1.8,2.5-3.5,4.5-3.5c1.3,0,2.3,0.7,2.3,1.7c0,1.7-2.5,3.5-4.6,3.5C424.6,49.8,423.6,49.2,423.6,48.1z"/>
</g>
<rect x="442" y="54.3" width="10.5" height="0.8"/>
<rect x="443.8" y="55.5" width="0.5" height="17.7"/>
<g>
	<path d="M443.9,55.5c0-1.8,2.5-3.5,4.5-3.5c1.3,0,2.3,0.7,2.3,1.7c0,1.7-2.5,3.5-4.6,3.5C444.9,57.3,443.9,56.6,443.9,55.5z"/>
</g>
<rect x="464.1" y="60.4" width="0.5" height="15.2"/>
<g>
	<path d="M464.2,60.5c0-1.8,2.5-3.5,4.5-3.5c1.3,0,2.3,0.7,2.3,1.7c0,1.7-2.5,3.5-4.6,3.5C465.2,62.2,464.2,61.6,464.2,60.5z"/>
</g>
<rect x="482.5" y="54.3" width="10.5" height="0.8"/>
<rect x="484.3" y="55.5" width="0.5" height="20.2"/>
<g>
	<path d="M484.4,55.5c0-1.8,2.5-3.5,4.5-3.5c1.3,0,2.3,0.7,2.3,1.7c0,1.7-2.5,3.5-4.6,3.5C485.3,57.3,484.4,56.6,484.4,55.5z"/>
</g>
<rect x="504.6" y="60.4" width="0.5" height="17.7"/>
<g>
	<path d="M504.7,60.5c0-1.8,2.5-3.5,4.5-3.5c1.3,0,2.3,0.7,2.3,1.7c0,1.7-2.5,3.5-4.6,3.5C505.6,62.2,504.7,61.6,504.7,60.5z"/>
</g>
<rect x="524.9" y="65.4" width="0.5" height="15.2"/>
<g>
	<path d="M525,65.5c0-1.8,2.5-3.5,4.5-3.5c1.3,0,2.3,0.7,2.3,1.7c0,1.7-2.5,3.5-4.6,3.5C525.9,67.2,525,66.5,525,65.5z"/>
</g>
</svg>
