<?xml version="1.0" encoding="utf-8"?>
<!-- Generator: Adobe Illustrator 19.1.0, SVG Export Plug-In . SVG Version: 6.00 Build 0)  -->
<!DOCTYPE svg PUBLIC "-//W3C//DTD SVG 1.1//EN" "http://www.w3.org/Graphics/SVG/1.1/DTD/svg11.dtd">
<svg version="1.1" id="Keyboard" xmlns="http://www.w3.org/2000/svg" xmlns:xlink="http://www.w3.org/1999/xlink" x="0px" y="0px"
	 viewBox="0 0 290.3 104.4" enable-background="new 0 0 290.3 104.4" xml:space="preserve">
<rect id="_x32_4" x="0.6" y="0.6" fill="#FFFFFF" stroke="#000000" stroke-width="1.125" stroke-linecap="square" stroke-miterlimit="3.25" width="20.7" height="103.3"/>
<rect id="_x32_6" x="21.2" y="0.6" fill="#FFFFFF" stroke="#000000" stroke-width="1.125" stroke-linecap="square" stroke-miterlimit="3.25" width="20.7" height="103.3"/>
<rect id="_x32_8" x="41.9" y="0.6" fill="#FFFFFF" stroke="#000000" stroke-width="1.125" stroke-linecap="square" stroke-miterlimit="3.25" width="20.7" height="103.3"/>
<rect id="_x32_9" x="62.5" y="0.6" fill="#FFFFFF" stroke="#000000" stroke-width="1.125" stroke-linecap="square" stroke-miterlimit="3.25" width="20.7" height="103.3"/>
<rect id="_x33_1" x="83.2" y="0.6" fill="#FFFFFF" stroke="#000000" stroke-width="1.125" stroke-linecap="square" stroke-miterlimit="3.25" width="20.7" height="103.3"/>
<rect id="_x33_3" x="103.8" y="0.6" fill="#FFFFFF" stroke="#000000" stroke-width="1.125" stroke-linecap="square" stroke-miterlimit="3.25" width="20.7" height="103.3"/>
<rect id="_x33_5" x="124.5" y="0.6" fill="#FFFFFF" stroke="#000000" stroke-width="1.125" stroke-linecap="square" stroke-miterlimit="3.25" width="20.7" height="103.3"/>
<rect id="_x33_6" x="145.2" y="0.6" fill="#FFFFFF" stroke="#000000" stroke-width="1.125" stroke-linecap="square" stroke-miterlimit="3.25" width="20.7" height="103.3"/>
<rect id="_x33_8" x="165.8" y="0.6" fill="#FFFFFF" stroke="#000000" stroke-width="1.125" stroke-linecap="square" stroke-miterlimit="3.25" width="20.7" height="103.3"/>
<rect id="_x34_0" x="186.5" y="0.6" fill="#FFFFFF" stroke="#000000" stroke-width="1.125" stroke-linecap="square" stroke-miterlimit="3.25" width="20.7" height="103.3"/>
<rect id="_x34_1" x="207.1" y="0.6" fill="#FFFFFF" stroke="#000000" stroke-width="1.125" stroke-linecap="square" stroke-miterlimit="3.25" width="20.7" height="103.3"/>
<rect id="_x34_3" x="227.8" y="0.6" fill="#FFFFFF" stroke="#000000" stroke-width="1.125" stroke-linecap="square" stroke-miterlimit="3.25" width="20.7" height="103.3"/>
<rect id="_x34_5" x="248.4" y="0.6" fill="#FFFFFF" stroke="#000000" stroke-width="1.125" stroke-linecap="square" stroke-miterlimit="3.25" width="20.7" height="103.3"/>
<rect id="_x34_7" x="269.1" y="0.6" fill="#FFFFFF" stroke="#000000" stroke-width="1.125" stroke-linecap="square" stroke-miterlimit="3.25" width="20.7" height="103.3"/>
<rect id="_x32_5" x="16.1" y="0.6" stroke="#000000" stroke-width="1.125" stroke-linecap="square" stroke-miterlimit="3.25" width="10.3" height="62"/>
<rect id="_x32_7" x="36.7" y="0.6" stroke="#000000" stroke-width="1.125" stroke-linecap="square" stroke-miterlimit="3.25" width="10.3" height="62"/>
<rect id="_x33_0" x="78" y="0.6" stroke="#000000" stroke-width="1.125" stroke-linecap="square" stroke-miterlimit="3.25" width="10.3" height="62"/>
<rect id="_x33_2" x="98.7" y="0.6" stroke="#000000" stroke-width="1.125" stroke-linecap="square" stroke-miterlimit="3.25" width="10.3" height="62"/>
<rect id="_x33_4" x="119.3" y="0.6" stroke="#000000" stroke-width="1.125" stroke-linecap="square" stroke-miterlimit="3.25" width="10.3" height="62"/>
<rect id="_x33_7" x="160.7" y="0.6" stroke="#000000" stroke-width="1.125" stroke-linecap="square" stroke-miterlimit="3.25" width="10.3" height="62"/>
<rect id="_x33_9" x="181.3" y="0.6" stroke="#000000" stroke-width="1.125" stroke-linecap="square" stroke-miterlimit="3.25" width="10.3" height="62"/>
<rect id="_x34_2" x="222.6" y="0.6" stroke="#000000" stroke-width="1.125" stroke-linecap="square" stroke-miterlimit="3.25" width="10.3" height="62"/>
<rect id="_x34_4" x="243.3" y="0.6" stroke="#000000" stroke-width="1.125" stroke-linecap="square" stroke-miterlimit="3.25" width="10.3" height="62"/>
<rect id="_x34_6" x="263.9" y="0.6" stroke="#000000" stroke-width="1.125" stroke-linecap="square" stroke-miterlimit="3.25" width="10.3" height="62"/>
<g>
	<path d="M14,97.1c-0.4,0.2-1.2,0.4-2.1,0.4c-2.3,0-4-1.4-4-4.1c0-2.5,1.7-4.2,4.2-4.2c1,0,1.6,0.2,1.9,0.4l-0.3,0.9
		c-0.4-0.2-1-0.3-1.6-0.3c-1.9,0-3.2,1.2-3.2,3.3c0,2,1.1,3.2,3.1,3.2c0.6,0,1.3-0.1,1.7-0.3L14,97.1z"/>
</g>
<g>
	<path fill="#FFFFFF" d="M21.7,52.1c-0.2,0.1-0.6,0.2-1.1,0.2c-1.1,0-2-0.7-2-2c0-1.3,0.9-2.1,2.1-2.1c0.5,0,0.8,0.1,1,0.2l-0.1,0.4
		c-0.2-0.1-0.5-0.2-0.8-0.2c-0.9,0-1.6,0.6-1.6,1.7c0,1,0.6,1.6,1.6,1.6c0.3,0,0.6-0.1,0.9-0.2L21.7,52.1z"/>
	<path fill="#FFFFFF" d="M23.5,47.6v1l0.4-0.1v0.7l-0.4,0.1v1.2l0.4-0.1V51l-0.4,0.1v1.1h-0.2v-1l-0.7,0.2v1.1h-0.2v-1l-0.4,0.1
		v-0.7l0.4-0.1v-1.2l-0.4,0.1V49l0.4-0.1v-1.1h0.2v1.1l0.7-0.2v-1.1H23.5z M23.3,49.3l-0.7,0.2v1.2l0.7-0.2V49.3z"/>
	<path fill="#FFFFFF" d="M18.7,55.4c0.3,0,0.7-0.1,1.1-0.1c0.8,0,1.3,0.2,1.6,0.5c0.4,0.3,0.6,0.8,0.6,1.5c0,0.7-0.2,1.2-0.6,1.6
		c-0.4,0.4-1,0.6-1.8,0.6c-0.4,0-0.7,0-0.9,0V55.4z M19.2,59c0.1,0,0.3,0,0.5,0c1.1,0,1.7-0.6,1.7-1.7c0-1-0.5-1.6-1.6-1.6
		c-0.3,0-0.5,0-0.6,0.1V59z"/>
	<path fill="#FFFFFF" d="M22.4,55.2h0.2l-0.1,2.1c0.2-0.2,0.4-0.4,0.7-0.4c0.4,0,0.8,0.3,0.8,0.8c0,0.6-0.8,1.2-1.7,1.8V55.2z
		 M22.6,58v0.3c0,0.4,0,0.6,0,0.8c0.4-0.3,0.9-1,0.9-1.4c0-0.2-0.2-0.4-0.4-0.4C22.7,57.2,22.6,57.7,22.6,58z"/>
</g>
<g>
	<path fill="#FFFFFF" d="M39.3,48.2c0.3,0,0.7-0.1,1.1-0.1c0.8,0,1.3,0.2,1.6,0.5c0.4,0.3,0.6,0.8,0.6,1.5c0,0.7-0.2,1.2-0.6,1.6
		c-0.4,0.4-1,0.6-1.8,0.6c-0.4,0-0.7,0-0.9,0V48.2z M39.8,51.8c0.1,0,0.3,0,0.5,0c1.1,0,1.7-0.6,1.7-1.7c0-1-0.5-1.6-1.6-1.6
		c-0.3,0-0.5,0-0.6,0.1V51.8z"/>
	<path fill="#FFFFFF" d="M44.4,47.6v1l0.4-0.1v0.7l-0.4,0.1v1.2l0.4-0.1V51l-0.4,0.1v1.1h-0.2v-1l-0.7,0.2v1.1h-0.2v-1L43,51.6v-0.7
		l0.4-0.1v-1.2L43,49.7V49l0.4-0.1v-1.1h0.2v1.1l0.7-0.2v-1.1H44.4z M44.3,49.3l-0.7,0.2v1.2l0.7-0.2V49.3z"/>
	<path fill="#FFFFFF" d="M41.9,57.5h-1.6V59h1.8v0.4h-2.3v-4H42v0.4h-1.7v1.3h1.6V57.5z"/>
	<path fill="#FFFFFF" d="M42.5,55.2h0.2l-0.1,2.1c0.2-0.2,0.4-0.4,0.7-0.4c0.4,0,0.8,0.3,0.8,0.8c0,0.6-0.8,1.2-1.7,1.8V55.2z
		 M42.7,58v0.3c0,0.4,0,0.6,0,0.8c0.4-0.3,0.9-1,0.9-1.4c0-0.2-0.2-0.4-0.4-0.4C42.8,57.2,42.7,57.7,42.7,58z"/>
</g>
<g>
	<path fill="#FFFFFF" d="M81.1,48.2h2.2v0.4h-1.7v1.3h1.5v0.4h-1.5v1.8h-0.5V48.2z"/>
	<path fill="#FFFFFF" d="M85.2,47.6v1l0.4-0.1v0.7l-0.4,0.1v1.2l0.4-0.1V51l-0.4,0.1v1.1H85v-1l-0.7,0.2v1.1h-0.2v-1l-0.4,0.1v-0.7
		l0.4-0.1v-1.2l-0.4,0.1V49l0.4-0.1v-1.1h0.2v1.1l0.7-0.2v-1.1H85.2z M85,49.3l-0.7,0.2v1.2l0.7-0.2V49.3z"/>
	<path fill="#FFFFFF" d="M83.8,59.2c-0.2,0.1-0.7,0.2-1.2,0.2c-0.6,0-1.1-0.2-1.5-0.5c-0.3-0.3-0.6-0.9-0.6-1.5
		c0-1.2,0.8-2.1,2.2-2.1c0.5,0,0.8,0.1,1,0.2l-0.1,0.4c-0.2-0.1-0.5-0.2-0.9-0.2c-1,0-1.6,0.6-1.6,1.6c0,1,0.6,1.6,1.6,1.6
		c0.3,0,0.6,0,0.7-0.1v-1.2h-0.8v-0.4h1.3V59.2z"/>
	<path fill="#FFFFFF" d="M84.3,55.2h0.2l-0.1,2.1c0.2-0.2,0.4-0.4,0.7-0.4c0.4,0,0.8,0.3,0.8,0.8c0,0.6-0.8,1.2-1.7,1.8V55.2z
		 M84.5,58v0.3c0,0.4,0,0.6,0,0.8c0.4-0.3,0.9-1,0.9-1.4c0-0.2-0.2-0.4-0.4-0.4C84.6,57.2,84.5,57.7,84.5,58z"/>
</g>
<g>
	<path fill="#FFFFFF" d="M104.4,52c-0.2,0.1-0.7,0.2-1.2,0.2c-0.6,0-1.1-0.2-1.5-0.5c-0.3-0.3-0.6-0.9-0.6-1.5
		c0-1.2,0.8-2.1,2.2-2.1c0.5,0,0.8,0.1,1,0.2l-0.1,0.4c-0.2-0.1-0.5-0.2-0.9-0.2c-1,0-1.6,0.6-1.6,1.6c0,1,0.6,1.6,1.6,1.6
		c0.3,0,0.6,0,0.7-0.1v-1.2H103v-0.4h1.3V52z"/>
	<path fill="#FFFFFF" d="M106.3,47.6v1l0.4-0.1v0.7l-0.4,0.1v1.2l0.4-0.1V51l-0.4,0.1v1.1h-0.2v-1l-0.7,0.2v1.1h-0.2v-1l-0.4,0.1
		v-0.7l0.4-0.1v-1.2l-0.4,0.1V49l0.4-0.1v-1.1h0.2v1.1l0.7-0.2v-1.1H106.3z M106.2,49.3l-0.7,0.2v1.2l0.7-0.2V49.3z"/>
	<path fill="#FFFFFF" d="M102.1,58.1l-0.4,1.3h-0.5l1.4-4h0.6l1.4,4H104l-0.4-1.3H102.1z M103.4,57.7l-0.4-1.2
		c-0.1-0.3-0.1-0.5-0.2-0.7h0c-0.1,0.2-0.1,0.5-0.2,0.7l-0.4,1.2H103.4z"/>
	<path fill="#FFFFFF" d="M104.9,55.2h0.2l-0.1,2.1c0.2-0.2,0.4-0.4,0.7-0.4c0.4,0,0.8,0.3,0.8,0.8c0,0.6-0.8,1.2-1.7,1.8V55.2z
		 M105,58v0.3c0,0.4,0,0.6,0,0.8c0.4-0.3,0.9-1,0.9-1.4c0-0.2-0.2-0.4-0.4-0.4C105.1,57.2,105,57.7,105,58z"/>
</g>
<g>
	<path fill="#FFFFFF" d="M122.7,50.9l-0.4,1.3h-0.5l1.4-4h0.6l1.4,4h-0.6l-0.4-1.3H122.7z M124,50.5l-0.4-1.2
		c-0.1-0.3-0.1-0.5-0.2-0.7h0c-0.1,0.2-0.1,0.5-0.2,0.7l-0.4,1.2H124z"/>
	<path fill="#FFFFFF" d="M126.9,47.6v1l0.4-0.1v0.7l-0.4,0.1v1.2l0.4-0.1V51l-0.4,0.1v1.1h-0.2v-1l-0.7,0.2v1.1h-0.2v-1l-0.4,0.1
		v-0.7l0.4-0.1v-1.2l-0.4,0.1V49l0.4-0.1v-1.1h0.2v1.1l0.7-0.2v-1.1H126.9z M126.7,49.3l-0.7,0.2v1.2l0.7-0.2V49.3z"/>
	<path fill="#FFFFFF" d="M122.3,55.4c0.2,0,0.6-0.1,1-0.1c0.5,0,0.9,0.1,1.1,0.3c0.2,0.2,0.3,0.4,0.3,0.7c0,0.4-0.3,0.7-0.7,0.9v0
		c0.4,0.1,0.8,0.4,0.8,1c0,0.3-0.1,0.6-0.3,0.8c-0.3,0.3-0.7,0.4-1.4,0.4c-0.4,0-0.6,0-0.8,0V55.4z M122.8,57.1h0.5
		c0.6,0,0.9-0.3,0.9-0.7c0-0.5-0.4-0.7-0.9-0.7c-0.2,0-0.4,0-0.5,0V57.1z M122.8,59c0.1,0,0.3,0,0.4,0c0.5,0,1-0.2,1-0.8
		c0-0.6-0.5-0.8-1-0.8h-0.4V59z"/>
	<path fill="#FFFFFF" d="M125.3,55.2h0.2l-0.1,2.1c0.2-0.2,0.4-0.4,0.7-0.4c0.4,0,0.8,0.3,0.8,0.8c0,0.6-0.8,1.2-1.7,1.8V55.2z
		 M125.5,58v0.3c0,0.4,0,0.6,0,0.8c0.4-0.3,0.9-1,0.9-1.4c0-0.2-0.2-0.4-0.4-0.4C125.6,57.2,125.5,57.7,125.5,58z"/>
</g>
<g>
	<path d="M28.5,89.4c0.6-0.1,1.4-0.2,2.2-0.2c1.5,0,2.6,0.3,3.3,1c0.7,0.7,1.1,1.6,1.1,2.9c0,1.3-0.4,2.4-1.2,3.1
		c-0.8,0.8-2,1.2-3.6,1.2c-0.7,0-1.4,0-1.9-0.1V89.4z M29.5,96.5c0.3,0,0.6,0.1,1.1,0.1c2.2,0,3.4-1.2,3.4-3.4
		c0-1.9-1.1-3.1-3.3-3.1c-0.5,0-0.9,0-1.2,0.1V96.5z"/>
</g>
<g>
	<path d="M54.3,93.5h-3.1v2.9h3.5v0.9h-4.5v-8.1h4.4v0.9h-3.3v2.6h3.1V93.5z"/>
</g>
<g>
	<path d="M71.6,89.3H76v0.9h-3.3v2.7h3.1v0.9h-3.1v3.7h-1V89.3z"/>
</g>
<g>
	<path d="M96.7,97c-0.5,0.2-1.4,0.4-2.5,0.4c-1.2,0-2.2-0.3-3-1.1c-0.7-0.7-1.1-1.8-1.1-3c0-2.4,1.7-4.2,4.4-4.2
		c0.9,0,1.7,0.2,2,0.4l-0.3,0.9c-0.4-0.2-1-0.3-1.8-0.3c-2,0-3.2,1.2-3.2,3.2c0,2.1,1.2,3.3,3.1,3.3c0.7,0,1.2-0.1,1.4-0.2v-2.4H94
		v-0.8h2.7V97z"/>
</g>
<g>
	<path d="M112.7,94.8l-0.8,2.5h-1.1l2.7-8.1h1.3l2.8,8.1h-1.1l-0.9-2.5H112.7z M115.4,94l-0.8-2.3c-0.2-0.5-0.3-1-0.4-1.5h0
		c-0.1,0.5-0.3,1-0.4,1.5l-0.8,2.3H115.4z"/>
</g>
<g>
	<path d="M132.5,89.4c0.5-0.1,1.2-0.2,1.9-0.2c1,0,1.7,0.2,2.2,0.6c0.4,0.3,0.7,0.8,0.7,1.4c0,0.8-0.5,1.5-1.4,1.8v0
		c0.8,0.2,1.7,0.8,1.7,2c0,0.7-0.3,1.2-0.7,1.6c-0.6,0.5-1.5,0.8-2.8,0.8c-0.7,0-1.3,0-1.6-0.1V89.4z M133.5,92.7h0.9
		c1.1,0,1.8-0.6,1.8-1.4c0-0.9-0.7-1.3-1.8-1.3c-0.5,0-0.8,0-0.9,0.1V92.7z M133.5,96.5c0.2,0,0.5,0,0.9,0c1.1,0,2.1-0.4,2.1-1.6
		c0-1.1-0.9-1.6-2.1-1.6h-0.9V96.5z"/>
</g>
</svg>
