<?xml version="1.0" encoding="utf-8"?>
<!--
	ScaleBook
	Copyright (c) Leland Jansen 2015. All rights reserved.
-->
<!DOCTYPE svg PUBLIC "-//W3C//DTD SVG 1.1//EN" "http://www.w3.org/Graphics/SVG/1.1/DTD/svg11.dtd"><svg version="1.1" id="Layer_1" xmlns="http://www.w3.org/2000/svg" xmlns:xlink="http://www.w3.org/1999/xlink" x="0px" y="0px" viewBox="0 0 955.6 162.2" enable-background="new 0 0 955.6 162.2" xml:space="preserve"><g><path fill="#3969B3" d="M5,135.9c8.8,5.4,21.6,9.9,35.1,9.9c20,0,31.7-10.6,31.7-25.9c0-14.2-8.1-22.3-28.6-30.2C18.5,81,3.2,68.2,3.2,46.8c0-23.6,19.6-41.2,49.1-41.2c15.5,0,26.8,3.6,33.5,7.4l-5.4,16c-5-2.7-15.1-7.2-28.8-7.2C30.8,21.8,23,34.2,23,44.6c0,14.2,9.2,21.2,30.2,29.3c25.7,9.9,38.7,22.3,38.7,44.6c0,23.4-17.3,43.7-53.1,43.7c-14.6,0-30.6-4.3-38.7-9.7L5,135.9z"/><path fill="#3969B3" d="M196.9,155.7c-5.2,2.7-16.7,6.3-31.3,6.3c-32.9,0-54.2-22.3-54.2-55.6c0-33.5,23-57.8,58.5-57.8c11.7,0,22.1,2.9,27.5,5.6l-4.5,15.3c-4.7-2.7-12.2-5.2-23-5.2c-25,0-38.5,18.5-38.5,41.2c0,25.2,16.2,40.7,37.8,40.7c11.2,0,18.7-2.9,24.3-5.4L196.9,155.7z"/><path fill="#3969B3" d="M280.3,159.8l-1.6-13.7h-0.7c-6.1,8.5-17.8,16.2-33.3,16.2c-22.1,0-33.3-15.5-33.3-31.3c0-26.3,23.4-40.7,65.5-40.5v-2.2c0-9-2.5-25.2-24.8-25.2c-10.1,0-20.7,3.1-28.4,8.1l-4.5-13.1c9-5.9,22.1-9.7,35.8-9.7c33.3,0,41.4,22.7,41.4,44.6v40.7c0,9.5,0.4,18.7,1.8,26.1H280.3z M277.4,104.2c-21.6-0.4-46.1,3.4-46.1,24.5c0,12.8,8.5,18.9,18.7,18.9c14.2,0,23.2-9,26.3-18.2c0.7-2,1.1-4.3,1.1-6.3V104.2z"/><path fill="#3969B3" d="M328.5,0h19.8v159.8h-19.8V0z"/><path fill="#3969B3" d="M392.6,108.9c0.5,26.8,17.5,37.8,37.4,37.8c14.2,0,22.7-2.5,30.2-5.6l3.4,14.2c-7,3.1-18.9,6.8-36.2,6.8c-33.5,0-53.6-22.1-53.6-54.9c0-32.9,19.4-58.7,51.1-58.7c35.6,0,45,31.3,45,51.3c0,4.1-0.5,7.2-0.7,9.2H392.6z M450.7,94.7c0.2-12.6-5.2-32.2-27.5-32.2c-20,0-28.8,18.5-30.4,32.2H450.7z"/><path fill="#808080" d="M495,10.1c8.5-1.8,22-3.2,35.8-3.2c19.6,0,32.2,3.4,41.6,11c7.9,5.9,12.6,14.9,12.6,26.8c0,14.6-9.7,27.5-25.7,33.3v0.5c14.4,3.6,31.3,15.5,31.3,38c0,13-5.2,23-12.8,30.4c-10.6,9.7-27.7,14.2-52.4,14.2c-13.5,0-23.9-0.9-30.4-1.8V10.1z M514.6,72.2h17.8c20.7,0,32.9-10.8,32.9-25.4c0-17.8-13.5-24.8-33.3-24.8c-9,0-14.2,0.7-17.3,1.4V72.2z M514.6,144.9c3.8,0.7,9.5,0.9,16.4,0.9c20.2,0,38.9-7.4,38.9-29.5c0-20.7-17.8-29.3-39.2-29.3h-16.2V144.9z"/><path fill="#808080" d="M715.7,104.4c0,40.3-27.9,57.8-54.2,57.8c-29.5,0-52.2-21.6-52.2-56c0-36.5,23.9-57.8,54-57.8C694.6,48.4,715.7,71.1,715.7,104.4z M629.3,105.5c0,23.9,13.7,41.9,33.1,41.9c18.9,0,33.1-17.8,33.1-42.3c0-18.5-9.2-41.9-32.6-41.9S629.3,84.8,629.3,105.5z"/><path fill="#808080" d="M839.2,104.4c0,40.3-27.9,57.8-54.2,57.8c-29.5,0-52.2-21.6-52.2-56c0-36.5,23.9-57.8,54-57.8C818.1,48.4,839.2,71.1,839.2,104.4z M752.8,105.5c0,23.9,13.7,41.9,33.1,41.9c18.9,0,33.1-17.8,33.1-42.3c0-18.5-9.2-41.9-32.6-41.9C763,63.2,752.8,84.8,752.8,105.5z"/><path fill="#808080" d="M883.8,100.8h0.5c2.7-3.8,6.5-8.6,9.7-12.4l32-37.6h23.9l-42.1,44.8l47.9,64.1h-24.1l-37.6-52.2l-10.1,11.3v41h-19.6V0h19.6V100.8z"/></g></svg>
