<?xml version="1.0" encoding="utf-8"?>

<!--
	ScaleBook
	Copyright (c) Leland Jansen 2015. All rights reserved.
-->

<!DOCTYPE svg PUBLIC "-//W3C//DTD SVG 1.1//EN" "http://www.w3.org/Graphics/SVG/1.1/DTD/svg11.dtd">
<svg version="1.1" id="Layer_1" xmlns="http://www.w3.org/2000/svg" xmlns:xlink="http://www.w3.org/1999/xlink" x="0px" y="0px"
	 viewBox="0 0 552.9 86.9" enable-background="new 0 0 552.9 86.9" xml:space="preserve">
<rect x="8.4" y="10" width="0.8" height="67"/>
<g>
	<path d="M7.4,10.7c-1.9,1.1-3.6,5.8-3.6,9.4c0,2.3,1.4,9.9,1.4,12.3c0,5-1.5,8.6-4.6,11.1c3,2.4,4.6,6.1,4.6,11.1
		c0,2.3-1.4,9.9-1.4,12.3c0,3.8,1.7,8.4,3.6,9.5V77c-3.5-2.3-5.8-8.2-5.8-13.1c0-2.1,1.7-9.4,1.7-11.5c0-3.8-1-6.6-2.9-8.2
		C0.1,43.9,0,43.7,0,43.5c0-0.2,0.1-0.4,0.5-0.7c1.9-1.7,2.9-4.2,2.9-7.6c0-2.1-1.7-10-1.7-12.2c0-5.2,2.1-10.4,5.8-13.1V10.7z"/>
</g>
<rect x="547.8" y="10" width="0.8" height="67"/>
<rect x="550.4" y="10" width="2.5" height="67"/>
<rect x="8.5" y="29.6" width="544.4" height="0.5"/>
<rect x="8.5" y="24.7" width="544.4" height="0.5"/>
<rect x="8.5" y="19.7" width="544.4" height="0.5"/>
<rect x="8.5" y="14.8" width="544.4" height="0.5"/>
<rect x="8.5" y="9.8" width="544.4" height="0.5"/>
<g>
	<path d="M20.3,29.7c-4.2,0-8.1-3.1-8.1-6.9c0-3.2,2.3-6.7,6.8-10.5c-0.3-1.2-0.4-2.4-0.4-3.6c0-3.5,1.2-6.8,3.2-8.5
		c1.8,2.5,2.7,4.9,2.7,7.1c0,2.9-1.3,5.6-4.3,8.1l0.9,4.2c0.5,0,0.8-0.1,0.8-0.1c2.6,0,4.8,2,4.8,4.7c0,1.9-1.4,3.7-3.6,4.8
		c0-0.1,0.9,3.8,0.9,4.3c0,2.5-2.3,4.2-4.9,4.2c-2,0-3.6-1.3-3.6-3.4c0-1.4,1-2.6,2.4-2.6c1.3,0,2.3,1.3,2.3,2.5
		c0,1.4-1.2,2.3-2.7,2.5c0.6,0.3,1.2,0.5,1.9,0.5c2.1,0,4.1-1.6,4.1-3.6c0-0.2,0-0.4-0.1-0.6l-0.8-3.7
		C21.9,29.6,21.2,29.7,20.3,29.7z M18.1,24.5c0,1,0.5,1.9,1.6,2.5c-1.8-0.3-3-1.4-3-3.1c0-2,1.7-3.7,3.8-4.1l-0.8-4
		C16,18.6,14,21.3,14,23.9c0,2.9,2.8,5.3,6,5.3c0.9,0,1.7-0.2,2.4-0.5L21,21.9C19.4,22.1,18.1,23.1,18.1,24.5z M22.1,3.2
		c-1.6,0-2.9,3.7-2.9,7c0,0.7,0,1.3,0.2,1.9c2.7-2.4,4-4.5,4-6.5c0-0.9-0.3-1.7-1-2.4C22.4,3.2,22.3,3.2,22.1,3.2z M24.9,25
		c0-1.6-1.2-3.3-2.9-3.3c-0.1,0-0.2,0-0.5,0l1.4,6.6C24.2,27.5,24.9,26.3,24.9,25z"/>
</g>
<polygon fill-rule="evenodd" clip-rule="evenodd" points="43.6,21.2 97.3,16.2 97.3,13.8 43.6,18.7 "/>
<polygon fill-rule="evenodd" clip-rule="evenodd" points="43.6,17.5 97.3,12.5 97.3,10 43.6,15 "/>
<polygon fill-rule="evenodd" clip-rule="evenodd" points="115.1,11.3 168.7,6.3 168.7,3.8 115.1,8.8 "/>
<polygon fill-rule="evenodd" clip-rule="evenodd" points="115.1,7.6 168.7,2.6 168.7,0.1 115.1,5.1 "/>
<polygon fill-rule="evenodd" clip-rule="evenodd" points="196,26.2 249.7,21.2 249.7,18.7 196,23.7 "/>
<polygon fill-rule="evenodd" clip-rule="evenodd" points="196,29.9 249.7,24.9 249.7,22.4 196,27.4 "/>
<polygon fill-rule="evenodd" clip-rule="evenodd" points="267.6,16.2 321.3,21.2 321.3,18.7 267.6,13.8 "/>
<polygon fill-rule="evenodd" clip-rule="evenodd" points="267.6,20 321.3,24.9 321.3,22.4 267.6,17.5 "/>
<polygon fill-rule="evenodd" clip-rule="evenodd" points="347.6,31.1 401.3,36.1 401.3,33.6 347.6,28.6 "/>
<polygon fill-rule="evenodd" clip-rule="evenodd" points="347.6,34.8 401.3,39.8 401.3,37.3 347.6,32.4 "/>
<polygon fill-rule="evenodd" clip-rule="evenodd" points="425.6,16.2 479.2,21.2 479.2,18.7 425.6,13.8 "/>
<polygon fill-rule="evenodd" clip-rule="evenodd" points="425.6,12.5 479.2,17.5 479.2,15 425.6,10 "/>
<rect x="8.5" y="76.8" width="544.4" height="0.5"/>
<rect x="8.5" y="71.8" width="544.4" height="0.5"/>
<rect x="8.5" y="66.8" width="544.4" height="0.5"/>
<rect x="8.5" y="61.9" width="544.4" height="0.5"/>
<rect x="8.5" y="56.9" width="544.4" height="0.5"/>
<g>
	<path d="M15.7,71.3c2.9-2.6,4.7-6.1,4.7-9.2c0-2.5-1.4-4.4-3.7-4.4c-1.6,0-3.4,1.3-3.4,2.7c0,0.2,0,0.3,0.1,0.3
		c-0.1,0,0.6-0.6,1.4-0.6c0.9,0,1.5,0.8,1.5,1.7c0,1.2-0.9,2.2-2.1,2.2c-1.2,0-2.1-1.3-2.1-2.8c0-2.3,2.3-4.1,4.8-4.1
		c4.7,0,5.9,3.2,5.9,5.8c0,1.6-0.4,2.9-2,5.3c-1.9,3.1-6.4,5.3-8.1,5.3c-0.4,0-0.6-0.2-0.6-0.5C13.8,72.6,14.9,72,15.7,71.3z
		 M25.7,58.7c0.6,0,1,0.4,1,1c0,0.6-0.4,1-1,1s-1-0.4-1-1C24.7,59.1,25.1,58.7,25.7,58.7z M25.7,63.6c0.6,0,1,0.4,1,1
		c0,0.6-0.4,1-1,1s-1-0.4-1-1C24.7,64,25.1,63.6,25.7,63.6z"/>
</g>
<polygon fill-rule="evenodd" clip-rule="evenodd" points="43.6,58.4 97.3,53.4 97.3,51 43.6,55.9 "/>
<polygon fill-rule="evenodd" clip-rule="evenodd" points="43.6,54.7 97.3,49.7 97.3,47.2 43.6,52.2 "/>
<g>
	<path d="M183.7,75.6c-3.2,0-6.1-2.3-6.1-5.1c0-2.4,1.7-5,5.1-7.9c-0.2-0.9-0.3-1.8-0.3-2.7c0-2.6,0.9-5.1,2.4-6.3
		c1.4,1.9,2,3.7,2,5.3c0,2.2-1,4.2-3.2,6.1l0.7,3.1c0.4,0,0.6,0,0.6,0c2,0,3.6,1.5,3.6,3.5c0,1.4-1.1,2.8-2.7,3.6
		c0-0.1,0.6,2.8,0.6,3.3c0,1.9-1.7,3.2-3.7,3.2c-1.5,0-2.7-1-2.7-2.5c0-1.1,0.7-1.9,1.8-1.9c1,0,1.7,1,1.7,1.9c0,1-0.9,1.7-2,1.8
		c0.4,0.2,0.9,0.3,1.4,0.3c1.6,0,3.1-1.2,3.1-2.7c0-0.1,0-0.3,0-0.5l-0.6-2.8C184.9,75.5,184.4,75.6,183.7,75.6z M182,71.7
		c0,0.8,0.4,1.4,1.2,1.9c-1.3-0.2-2.2-1.1-2.2-2.3c0-1.5,1.3-2.8,2.9-3.1l-0.6-3c-2.8,2.1-4.3,4.1-4.3,6.1c0,2.2,2.1,4,4.5,4
		c0.7,0,1.3-0.1,1.8-0.4l-1.1-5.1C183,69.9,182,70.7,182,71.7z M185,55.7c-1.2,0-2.2,2.8-2.2,5.3c0,0.5,0,1,0.1,1.4
		c2-1.8,3-3.4,3-4.9c0-0.7-0.3-1.3-0.7-1.8C185.2,55.7,185.2,55.7,185,55.7z M187.1,72.1c0-1.2-0.9-2.4-2.2-2.4c0,0-0.2,0-0.4,0
		l1.1,5C186.6,74,187.1,73.1,187.1,72.1z"/>
</g>
<polygon fill-rule="evenodd" clip-rule="evenodd" points="108.6,73.3 162.2,68.3 162.2,65.8 108.6,70.8 "/>
<polygon fill-rule="evenodd" clip-rule="evenodd" points="108.6,77 162.2,72 162.2,69.6 108.6,74.5 "/>
<polygon fill-rule="evenodd" clip-rule="evenodd" points="202.5,63.4 256.2,58.4 256.2,55.9 202.5,60.9 "/>
<polygon fill-rule="evenodd" clip-rule="evenodd" points="202.5,59.6 256.2,54.7 256.2,52.2 202.5,57.2 "/>
<g>
	<path d="M336.2,69c2.2-2,3.6-4.6,3.6-6.9c0-1.9-1.1-3.3-2.8-3.3c-1.2,0-2.5,1-2.5,2.1c0,0.2,0,0.2,0.1,0.2c0,0,0.4-0.5,1-0.5
		c0.7,0,1.2,0.6,1.2,1.3c0,0.9-0.6,1.7-1.6,1.7s-1.5-1-1.5-2.1c0-1.8,1.7-3.1,3.6-3.1c3.5,0,4.4,2.4,4.4,4.4c0,1.2-0.3,2.2-1.5,4
		c-1.4,2.3-4.8,4-6,4c-0.3,0-0.5-0.1-0.5-0.3C334.7,70,335.6,69.6,336.2,69z M343.6,59.5c0.4,0,0.7,0.3,0.7,0.7
		c0,0.4-0.3,0.7-0.7,0.7c-0.4,0-0.7-0.3-0.7-0.7C342.9,59.8,343.2,59.5,343.6,59.5z M343.6,63.2c0.4,0,0.7,0.3,0.7,0.7
		s-0.3,0.7-0.7,0.7c-0.4,0-0.7-0.3-0.7-0.7S343.2,63.2,343.6,63.2z"/>
</g>
<polygon fill-rule="evenodd" clip-rule="evenodd" points="274.2,58.4 327.8,63.4 327.8,60.9 274.2,55.9 "/>
<polygon fill-rule="evenodd" clip-rule="evenodd" points="274.2,54.7 327.8,59.6 327.8,57.2 274.2,52.2 "/>
<polygon fill-rule="evenodd" clip-rule="evenodd" points="347.6,63.4 401.3,68.3 401.3,65.8 347.6,60.9 "/>
<polygon fill-rule="evenodd" clip-rule="evenodd" points="347.6,67.1 401.3,72 401.3,69.6 347.6,64.6 "/>
<polygon fill-rule="evenodd" clip-rule="evenodd" points="419.1,78.2 472.7,83.2 472.7,80.7 419.1,75.8 "/>
<polygon fill-rule="evenodd" clip-rule="evenodd" points="419.1,82 472.7,86.9 472.7,84.4 419.1,79.5 "/>
<rect x="35.1" y="34.5" width="10.5" height="0.8"/>
<rect x="43.4" y="15.2" width="0.5" height="21.4"/>
<g>
	<path d="M37,38.2c0-1.8,2.5-3.5,4.5-3.5c1.3,0,2.3,0.7,2.3,1.7c0,1.7-2.5,3.5-4.6,3.5C38,39.9,37,39.3,37,38.2z"/>
</g>
<rect x="52.9" y="34.5" width="10.5" height="0.8"/>
<rect x="61.2" y="13.6" width="0.5" height="20.5"/>
<g>
	<path d="M54.8,35.7c0-1.8,2.5-3.5,4.5-3.5c1.3,0,2.3,0.7,2.3,1.7c0,1.7-2.5,3.5-4.6,3.5C55.8,37.4,54.8,36.8,54.8,35.7z"/>
</g>
<g>
	<path d="M51.1,28v2.8l1-0.3v1.8l-1,0.3v3.4l1-0.3v1.8l-1,0.3V41h-0.5v-3l-1.9,0.6v3h-0.5v-2.8l-1,0.3v-1.8l1-0.3v-3.4l-1,0.3v-1.8
		l1-0.3v-3.1h0.5v3l1.9-0.6v-3H51.1z M50.6,32.8l-1.9,0.6v3.4l1.9-0.6V32.8z"/>
</g>
<rect x="79.2" y="11.9" width="0.5" height="19.7"/>
<g>
	<path d="M72.8,33.2c0-1.8,2.5-3.5,4.5-3.5c1.3,0,2.3,0.7,2.3,1.7c0,1.7-2.5,3.5-4.6,3.5C73.8,34.9,72.8,34.3,72.8,33.2z"/>
</g>
<g>
	<path d="M70.4,25.5v2.8l1-0.3v1.8l-1,0.3v3.4l1-0.3v1.8l-1,0.3v3.1h-0.5v-3L68,36.2v3h-0.5v-2.8l-1,0.3v-1.8l1-0.3v-3.4l-1,0.3
		v-1.8l1-0.3v-3.1H68v3l1.9-0.6v-3H70.4z M69.9,30.3L68,31v3.4l1.9-0.6V30.3z"/>
</g>
<rect x="97.1" y="10.2" width="0.5" height="16.4"/>
<g>
	<path d="M90.6,28.3c0-1.8,2.5-3.5,4.5-3.5c1.3,0,2.3,0.7,2.3,1.7c0,1.7-2.5,3.5-4.6,3.5C91.6,30,90.6,29.3,90.6,28.3z"/>
</g>
<rect x="114.9" y="5.2" width="0.5" height="18.9"/>
<g>
	<path d="M108.4,25.8c0-1.8,2.5-3.5,4.5-3.5c1.3,0,2.3,0.7,2.3,1.7c0,1.7-2.5,3.5-4.6,3.5C109.4,27.5,108.4,26.9,108.4,25.8z"/>
</g>
<rect x="132.9" y="3.7" width="0.5" height="18"/>
<g>
	<path d="M126.4,23.3c0-1.8,2.5-3.5,4.5-3.5c1.3,0,2.3,0.7,2.3,1.7c0,1.7-2.5,3.5-4.6,3.5C127.4,25,126.4,24.4,126.4,23.3z"/>
</g>
<rect x="150.7" y="2" width="0.5" height="17.2"/>
<g>
	<path d="M144.3,20.8c0-1.8,2.5-3.5,4.5-3.5c1.3,0,2.3,0.7,2.3,1.7c0,1.7-2.5,3.5-4.6,3.5C145.2,22.5,144.3,21.9,144.3,20.8z"/>
</g>
<rect x="168.5" y="0.3" width="0.5" height="16.4"/>
<g>
	<path d="M162.1,18.3c0-1.8,2.5-3.5,4.5-3.5c1.3,0,2.3,0.7,2.3,1.7c0,1.7-2.5,3.5-4.6,3.5C163.1,20.1,162.1,19.4,162.1,18.3z"/>
</g>
<g>
	<path d="M159.7,10.7v2.8l1-0.3V15l-1,0.3v3.4l1-0.3v1.8l-1,0.3v3.1h-0.5v-3l-1.9,0.6v3h-0.5v-2.8l-1,0.3V20l1-0.3v-3.4l-1,0.3v-1.8
		l1-0.3v-3.1h0.5v3l1.9-0.6v-3H159.7z M159.2,15.4l-1.9,0.6v3.4l1.9-0.6V15.4z"/>
</g>
<rect x="195.8" y="15.8" width="0.5" height="14"/>
<g>
	<path d="M195.9,15.9c0-1.8,2.5-3.5,4.5-3.5c1.3,0,2.3,0.7,2.3,1.7c0,1.7-2.5,3.5-4.6,3.5C196.8,17.6,195.9,16.9,195.9,15.9z"/>
</g>
<g>
	<path d="M193.4,8.2V11l1-0.3v1.8l-1,0.3v3.4l1-0.3v1.8l-1,0.3v3.1h-0.5v-3l-1.9,0.6v3h-0.5V19l-1,0.3v-1.8l1-0.3v-3.4l-1,0.3v-1.8
		l1-0.3V8.8h0.5v3l1.9-0.6v-3H193.4z M192.9,13l-1.9,0.6V17l1.9-0.6V13z"/>
</g>
<rect x="213.8" y="10.8" width="0.5" height="17.4"/>
<g>
	<path d="M213.9,10.9c0-1.8,2.5-3.5,4.5-3.5c1.3,0,2.3,0.7,2.3,1.7c0,1.7-2.5,3.5-4.6,3.5C214.8,12.6,213.9,12,213.9,10.9z"/>
</g>
<rect x="231.6" y="8.3" width="0.5" height="18.1"/>
<g>
	<path d="M231.7,8.4c0-1.8,2.5-3.5,4.5-3.5c1.3,0,2.3,0.7,2.3,1.7c0,1.7-2.5,3.5-4.6,3.5C232.7,10.1,231.7,9.5,231.7,8.4z"/>
</g>
<rect x="247.6" y="4.7" width="10.5" height="0.8"/>
<rect x="249.4" y="5.9" width="0.5" height="18.9"/>
<g>
	<path d="M249.5,5.9c0-1.8,2.5-3.5,4.5-3.5c1.3,0,2.3,0.7,2.3,1.7c0,1.7-2.5,3.5-4.6,3.5C250.5,7.7,249.5,7,249.5,5.9z"/>
</g>
<rect x="265.6" y="4.7" width="10.5" height="0.8"/>
<rect x="267.4" y="3.4" width="0.5" height="16.4"/>
<g>
	<path d="M267.5,3.5c0-1.8,2.5-3.5,4.5-3.5c1.3,0,2.3,0.7,2.3,1.7c0,1.7-2.5,3.5-4.6,3.5C268.5,5.2,267.5,4.5,267.5,3.5z"/>
</g>
<rect x="283.5" y="4.7" width="10.5" height="0.8"/>
<rect x="285.2" y="5.9" width="0.5" height="15.5"/>
<g>
	<path d="M285.3,5.9c0-1.8,2.5-3.5,4.5-3.5c1.3,0,2.3,0.7,2.3,1.7c0,1.7-2.5,3.5-4.6,3.5C286.3,7.7,285.3,7,285.3,5.9z"/>
</g>
<rect x="303.1" y="8.3" width="0.5" height="14.7"/>
<g>
	<path d="M303.1,8.4c0-1.8,2.5-3.5,4.5-3.5c1.3,0,2.3,0.7,2.3,1.7c0,1.7-2.5,3.5-4.6,3.5C304.1,10.1,303.1,9.5,303.1,8.4z"/>
</g>
<rect x="321" y="10.8" width="0.5" height="14"/>
<g>
	<path d="M321.1,10.9c0-1.8,2.5-3.5,4.5-3.5c1.3,0,2.3,0.7,2.3,1.7c0,1.7-2.5,3.5-4.6,3.5C322.1,12.6,321.1,12,321.1,10.9z"/>
</g>
<rect x="347.4" y="15.8" width="0.5" height="18.9"/>
<g>
	<path d="M347.5,15.9c0-1.8,2.5-3.5,4.5-3.5c1.3,0,2.3,0.7,2.3,1.7c0,1.7-2.5,3.5-4.6,3.5C348.4,17.6,347.5,16.9,347.5,15.9z"/>
</g>
<rect x="365.2" y="18.3" width="0.5" height="18"/>
<g>
	<path d="M365.3,18.3c0-1.8,2.5-3.5,4.5-3.5c1.3,0,2.3,0.7,2.3,1.7c0,1.7-2.5,3.5-4.6,3.5C366.3,20.1,365.3,19.4,365.3,18.3z"/>
</g>
<rect x="383.1" y="20.7" width="0.5" height="17.2"/>
<g>
	<path d="M383.1,20.8c0-1.8,2.5-3.5,4.5-3.5c1.3,0,2.3,0.7,2.3,1.7c0,1.7-2.5,3.5-4.6,3.5C384.1,22.5,383.1,21.9,383.1,20.8z"/>
</g>
<rect x="401" y="23.2" width="0.5" height="16.4"/>
<g>
	<path d="M401.1,23.3c0-1.8,2.5-3.5,4.5-3.5c1.3,0,2.3,0.7,2.3,1.7c0,1.7-2.5,3.5-4.6,3.5C402.1,25,401.1,24.4,401.1,23.3z"/>
</g>
<rect x="425.4" y="10.2" width="0.5" height="14"/>
<g>
	<path d="M418.9,25.8c0-1.8,2.5-3.5,4.5-3.5c1.3,0,2.3,0.7,2.3,1.7c0,1.7-2.5,3.5-4.6,3.5C419.9,27.5,418.9,26.9,418.9,25.8z"/>
</g>
<rect x="443.4" y="11.7" width="0.5" height="14.9"/>
<g>
	<path d="M436.9,28.3c0-1.8,2.5-3.5,4.5-3.5c1.3,0,2.3,0.7,2.3,1.7c0,1.7-2.5,3.5-4.6,3.5C437.9,30,436.9,29.3,436.9,28.3z"/>
</g>
<rect x="461.2" y="13.4" width="0.5" height="18.1"/>
<g>
	<path d="M454.7,33.2c0-1.8,2.5-3.5,4.5-3.5c1.3,0,2.3,0.7,2.3,1.7c0,1.7-2.5,3.5-4.6,3.5C455.7,34.9,454.7,34.3,454.7,33.2z"/>
</g>
<rect x="470.7" y="34.5" width="10.5" height="0.8"/>
<rect x="479" y="15.2" width="0.5" height="18.9"/>
<g>
	<path d="M472.6,35.7c0-1.8,2.5-3.5,4.5-3.5c1.3,0,2.3,0.7,2.3,1.7c0,1.7-2.5,3.5-4.6,3.5C473.5,37.4,472.6,36.8,472.6,35.7z"/>
</g>
<rect x="488.7" y="34.5" width="10.7" height="0.8"/>
<rect x="497.1" y="20" width="0.5" height="16.6"/>
<g>
	<path d="M494.8,34.6c1.6,0,2.7,0.7,2.7,2c0,1.9-2.3,3.4-4.5,3.4c-1.3,0-2.4-0.7-2.4-1.8C490.6,36.4,492.8,34.6,494.8,34.6z
		 M491,38.5c0,0.6,0.4,0.9,1.1,0.9c1.4,0,4.9-2.1,4.9-3.3c0-0.6-0.4-0.9-1.1-0.9C494.7,35.2,491,37.2,491,38.5z"/>
</g>
<rect x="43.4" y="52.4" width="0.5" height="18.9"/>
<g>
	<path d="M37,72.9c0-1.8,2.5-3.5,4.5-3.5c1.3,0,2.3,0.7,2.3,1.7c0,1.7-2.5,3.5-4.6,3.5C38,74.6,37,74,37,72.9z"/>
</g>
<rect x="61.2" y="50.8" width="0.5" height="18"/>
<g>
	<path d="M54.8,70.4c0-1.8,2.5-3.5,4.5-3.5c1.3,0,2.3,0.7,2.3,1.7c0,1.7-2.5,3.5-4.6,3.5C55.8,72.1,54.8,71.5,54.8,70.4z"/>
</g>
<g>
	<path d="M52.4,62.7v2.8l1-0.3V67l-1,0.3v3.4l1-0.3v1.8l-1,0.3v3.1h-0.5v-3L50,73.4v3h-0.5v-2.8l-1,0.3v-1.8l1-0.3v-3.4l-1,0.3v-1.8
		l1-0.3v-3.1H50v3l1.9-0.6v-3H52.4z M51.9,67.5L50,68.2v3.4l1.9-0.6V67.5z"/>
</g>
<rect x="79.2" y="49.1" width="0.5" height="17.2"/>
<g>
	<path d="M72.8,67.9c0-1.8,2.5-3.5,4.5-3.5c1.3,0,2.3,0.7,2.3,1.7c0,1.7-2.5,3.5-4.6,3.5C73.8,69.7,72.8,69,72.8,67.9z"/>
</g>
<g>
	<path d="M70.4,60.3v2.8l1-0.3v1.8l-1,0.3v3.4l1-0.3v1.8l-1,0.3v3.1h-0.5v-3L68,70.9v3h-0.5V71l-1,0.3v-1.8l1-0.3v-3.4l-1,0.3v-1.8
		l1-0.3v-3.1H68v3l1.9-0.6v-3H70.4z M69.9,65L68,65.7v3.4l1.9-0.6V65z"/>
</g>
<rect x="97.1" y="47.4" width="0.5" height="14"/>
<g>
	<path d="M90.6,63c0-1.8,2.5-3.5,4.5-3.5c1.3,0,2.3,0.7,2.3,1.7c0,1.7-2.5,3.5-4.6,3.5C91.6,64.7,90.6,64.1,90.6,63z"/>
</g>
<rect x="108.4" y="60.4" width="0.5" height="16.4"/>
<g>
	<path d="M108.4,60.5c0-1.8,2.5-3.5,4.5-3.5c1.3,0,2.3,0.7,2.3,1.7c0,1.7-2.5,3.5-4.6,3.5C109.4,62.2,108.4,61.6,108.4,60.5z"/>
</g>
<rect x="126.3" y="57.9" width="0.5" height="17.4"/>
<g>
	<path d="M126.4,58c0-1.8,2.5-3.5,4.5-3.5c1.3,0,2.3,0.7,2.3,1.7c0,1.7-2.5,3.5-4.6,3.5C127.4,59.7,126.4,59.1,126.4,58z"/>
</g>
<rect x="144.2" y="55.5" width="0.5" height="18.1"/>
<g>
	<path d="M144.3,55.5c0-1.8,2.5-3.5,4.5-3.5c1.3,0,2.3,0.7,2.3,1.7c0,1.7-2.5,3.5-4.6,3.5C145.2,57.3,144.3,56.6,144.3,55.5z"/>
</g>
<rect x="160.2" y="51.8" width="10.5" height="0.8"/>
<rect x="162" y="53" width="0.5" height="18.9"/>
<g>
	<path d="M162.1,53.1c0-1.8,2.5-3.5,4.5-3.5c1.3,0,2.3,0.7,2.3,1.7c0,1.7-2.5,3.5-4.6,3.5C163.1,54.8,162.1,54.1,162.1,53.1z"/>
</g>
<g>
	<path d="M158.4,45.4v2.8l1-0.3v1.8l-1,0.3v3.4l1-0.3v1.8l-1,0.3v3.1h-0.5v-3L156,56v3h-0.5v-2.8l-1,0.3v-1.8l1-0.3v-3.4l-1,0.3
		v-1.8l1-0.3V46h0.5v3l1.9-0.6v-3H158.4z M157.9,50.2l-1.9,0.6v3.4l1.9-0.6V50.2z"/>
</g>
<rect x="202.3" y="57.3" width="0.5" height="21.4"/>
<g>
	<path d="M195.9,80.3c0-1.8,2.5-3.5,4.5-3.5c1.3,0,2.3,0.7,2.3,1.7c0,1.7-2.5,3.5-4.6,3.5C196.8,82.1,195.9,81.4,195.9,80.3z"/>
</g>
<g>
	<path d="M193.4,72.7v2.8l1-0.3V77l-1,0.3v3.4l1-0.3v1.8l-1,0.3v3.1h-0.5v-3l-1.9,0.6v3h-0.5v-2.8l-1,0.3V82l1-0.3v-3.4l-1,0.3v-1.8
		l1-0.3v-3.1h0.5v3l1.9-0.6v-3H193.4z M192.9,77.4l-1.9,0.6v3.4l1.9-0.6V77.4z"/>
</g>
<rect x="220.3" y="55.8" width="0.5" height="18"/>
<g>
	<path d="M213.9,75.4c0-1.8,2.5-3.5,4.5-3.5c1.3,0,2.3,0.7,2.3,1.7c0,1.7-2.5,3.5-4.6,3.5C214.8,77.1,213.9,76.5,213.9,75.4z"/>
</g>
<rect x="238.1" y="54.1" width="0.5" height="17.2"/>
<g>
	<path d="M231.7,72.9c0-1.8,2.5-3.5,4.5-3.5c1.3,0,2.3,0.7,2.3,1.7c0,1.7-2.5,3.5-4.6,3.5C232.7,74.6,231.7,74,231.7,72.9z"/>
</g>
<rect x="255.9" y="52.4" width="0.5" height="16.4"/>
<g>
	<path d="M249.5,70.4c0-1.8,2.5-3.5,4.5-3.5c1.3,0,2.3,0.7,2.3,1.7c0,1.7-2.5,3.5-4.6,3.5C250.5,72.1,249.5,71.5,249.5,70.4z"/>
</g>
<rect x="273.9" y="52.4" width="0.5" height="14"/>
<g>
	<path d="M267.5,67.9c0-1.8,2.5-3.5,4.5-3.5c1.3,0,2.3,0.7,2.3,1.7c0,1.7-2.5,3.5-4.6,3.5C268.5,69.7,267.5,69,267.5,67.9z"/>
</g>
<rect x="291.7" y="53.9" width="0.5" height="14.9"/>
<g>
	<path d="M285.3,70.4c0-1.8,2.5-3.5,4.5-3.5c1.3,0,2.3,0.7,2.3,1.7c0,1.7-2.5,3.5-4.6,3.5C286.3,72.1,285.3,71.5,285.3,70.4z"/>
</g>
<rect x="309.6" y="55.6" width="0.5" height="15.7"/>
<g>
	<path d="M303.1,72.9c0-1.8,2.5-3.5,4.5-3.5c1.3,0,2.3,0.7,2.3,1.7c0,1.7-2.5,3.5-4.6,3.5C304.1,74.6,303.1,74,303.1,72.9z"/>
</g>
<rect x="327.6" y="57.3" width="0.5" height="16.4"/>
<g>
	<path d="M321.1,75.4c0-1.8,2.5-3.5,4.5-3.5c1.3,0,2.3,0.7,2.3,1.7c0,1.7-2.5,3.5-4.6,3.5C322.1,77.1,321.1,76.5,321.1,75.4z"/>
</g>
<rect x="345.6" y="51.8" width="10.5" height="0.8"/>
<rect x="347.4" y="50.5" width="0.5" height="16.4"/>
<g>
	<path d="M347.5,50.6c0-1.8,2.5-3.5,4.5-3.5c1.3,0,2.3,0.7,2.3,1.7c0,1.7-2.5,3.5-4.6,3.5C348.4,52.3,347.5,51.7,347.5,50.6z"/>
</g>
<rect x="363.4" y="51.8" width="10.5" height="0.8"/>
<rect x="365.2" y="53" width="0.5" height="15.5"/>
<g>
	<path d="M365.3,53.1c0-1.8,2.5-3.5,4.5-3.5c1.3,0,2.3,0.7,2.3,1.7c0,1.7-2.5,3.5-4.6,3.5C366.3,54.8,365.3,54.1,365.3,53.1z"/>
</g>
<rect x="383.1" y="55.5" width="0.5" height="14.7"/>
<g>
	<path d="M383.1,55.5c0-1.8,2.5-3.5,4.5-3.5c1.3,0,2.3,0.7,2.3,1.7c0,1.7-2.5,3.5-4.6,3.5C384.1,57.3,383.1,56.6,383.1,55.5z"/>
</g>
<rect x="401" y="57.9" width="0.5" height="14"/>
<g>
	<path d="M401.1,58c0-1.8,2.5-3.5,4.5-3.5c1.3,0,2.3,0.7,2.3,1.7c0,1.7-2.5,3.5-4.6,3.5C402.1,59.7,401.1,59.1,401.1,58z"/>
</g>
<rect x="418.9" y="60.4" width="0.5" height="21.4"/>
<g>
	<path d="M418.9,60.5c0-1.8,2.5-3.5,4.5-3.5c1.3,0,2.3,0.7,2.3,1.7c0,1.7-2.5,3.5-4.6,3.5C419.9,62.2,418.9,61.6,418.9,60.5z"/>
</g>
<rect x="436.8" y="62.9" width="0.5" height="20.5"/>
<g>
	<path d="M436.9,63c0-1.8,2.5-3.5,4.5-3.5c1.3,0,2.3,0.7,2.3,1.7c0,1.7-2.5,3.5-4.6,3.5C437.9,64.7,436.9,64.1,436.9,63z"/>
</g>
<rect x="454.7" y="67.9" width="0.5" height="17.2"/>
<g>
	<path d="M454.7,67.9c0-1.8,2.5-3.5,4.5-3.5c1.3,0,2.3,0.7,2.3,1.7c0,1.7-2.5,3.5-4.6,3.5C455.7,69.7,454.7,69,454.7,67.9z"/>
</g>
<rect x="472.5" y="70.3" width="0.5" height="16.4"/>
<g>
	<path d="M472.6,70.4c0-1.8,2.5-3.5,4.5-3.5c1.3,0,2.3,0.7,2.3,1.7c0,1.7-2.5,3.5-4.6,3.5C473.5,72.1,472.6,71.5,472.6,70.4z"/>
</g>
<rect x="497.1" y="54.7" width="0.5" height="16.6"/>
<g>
	<path d="M494.8,69.3c1.6,0,2.7,0.7,2.7,2c0,1.9-2.3,3.4-4.5,3.4c-1.3,0-2.4-0.7-2.4-1.8C490.6,71.1,492.8,69.3,494.8,69.3z
		 M491,73.2c0,0.6,0.4,0.9,1.1,0.9c1.4,0,4.9-2.1,4.9-3.3c0-0.6-0.4-0.9-1.1-0.9C494.7,69.9,491,72,491,73.2z"/>
</g>
</svg>
