<?xml version="1.0" encoding="utf-8"?>

<!--
	ScaleBook
	Copyright (c) Leland Jansen 2015. All rights reserved.
-->

<!DOCTYPE svg PUBLIC "-//W3C//DTD SVG 1.1//EN" "http://www.w3.org/Graphics/SVG/1.1/DTD/svg11.dtd">
<svg version="1.1" id="Layer_1" xmlns="http://www.w3.org/2000/svg" xmlns:xlink="http://www.w3.org/1999/xlink" x="0px" y="0px"
	 viewBox="0 0 552.9 92.6" enable-background="new 0 0 552.9 92.6" xml:space="preserve">
<rect x="8.4" y="15.8" width="0.8" height="67"/>
<g>
	<path d="M7.4,16.4c-1.9,1.1-3.6,5.8-3.6,9.4c0,2.3,1.4,9.9,1.4,12.3c0,5-1.5,8.6-4.6,11.1c3,2.4,4.6,6.1,4.6,11.1
		c0,2.3-1.4,9.9-1.4,12.3c0,3.8,1.7,8.4,3.6,9.5v0.7c-3.5-2.3-5.8-8.2-5.8-13.1c0-2.1,1.7-9.4,1.7-11.5c0-3.8-1-6.6-2.9-8.2
		C0.1,49.6,0,49.4,0,49.2c0-0.2,0.1-0.4,0.5-0.7c1.9-1.7,2.9-4.2,2.9-7.6c0-2.1-1.7-10-1.7-12.2c0-5.2,2.1-10.4,5.8-13.1V16.4z"/>
</g>
<rect x="547.8" y="15.8" width="0.8" height="67"/>
<rect x="550.4" y="15.8" width="2.5" height="67"/>
<rect x="8.5" y="35.4" width="544.4" height="0.5"/>
<rect x="8.5" y="30.4" width="544.4" height="0.5"/>
<rect x="8.5" y="25.4" width="544.4" height="0.5"/>
<rect x="8.5" y="20.5" width="544.4" height="0.5"/>
<rect x="8.5" y="15.5" width="544.4" height="0.5"/>
<g>
	<path d="M20.3,35.4c-4.2,0-8.1-3.1-8.1-6.9c0-3.2,2.3-6.7,6.8-10.5c-0.3-1.2-0.4-2.4-0.4-3.6c0-3.5,1.2-6.8,3.2-8.5
		c1.8,2.5,2.7,4.9,2.7,7.1c0,2.9-1.3,5.6-4.3,8.1l0.9,4.2c0.5,0,0.8-0.1,0.8-0.1c2.6,0,4.8,2,4.8,4.7c0,1.9-1.4,3.7-3.6,4.8
		c0-0.1,0.9,3.8,0.9,4.3c0,2.5-2.3,4.2-4.9,4.2c-2,0-3.6-1.3-3.6-3.4c0-1.4,1-2.6,2.4-2.6c1.3,0,2.3,1.3,2.3,2.5
		c0,1.4-1.2,2.3-2.7,2.5c0.6,0.3,1.2,0.5,1.9,0.5c2.1,0,4.1-1.6,4.1-3.6c0-0.2,0-0.4-0.1-0.6L22.6,35C21.9,35.3,21.2,35.4,20.3,35.4
		z M18.1,30.2c0,1,0.5,1.9,1.6,2.5c-1.8-0.3-3-1.4-3-3.1c0-2,1.7-3.7,3.8-4.1l-0.8-4C16,24.3,14,27,14,29.7c0,2.9,2.8,5.3,6,5.3
		c0.9,0,1.7-0.2,2.4-0.5L21,27.6C19.4,27.8,18.1,28.8,18.1,30.2z M22.1,8.9c-1.6,0-2.9,3.7-2.9,7c0,0.7,0,1.3,0.2,1.9
		c2.7-2.4,4-4.5,4-6.5c0-0.9-0.3-1.7-1-2.4C22.4,8.9,22.3,8.9,22.1,8.9z M24.9,30.8c0-1.6-1.2-3.3-2.9-3.3c-0.1,0-0.2,0-0.5,0
		l1.4,6.6C24.2,33.2,24.9,32.1,24.9,30.8z"/>
</g>
<polygon fill-rule="evenodd" clip-rule="evenodd" points="44.9,31.9 99.3,26.9 99.3,24.4 44.9,29.4 "/>
<polygon fill-rule="evenodd" clip-rule="evenodd" points="44.9,28.2 99.3,23.2 99.3,20.7 44.9,25.7 "/>
<polygon fill-rule="evenodd" clip-rule="evenodd" points="117.4,17 171.8,12 171.8,9.6 117.4,14.5 "/>
<polygon fill-rule="evenodd" clip-rule="evenodd" points="117.4,13.3 171.8,8.3 171.8,5.8 117.4,10.8 "/>
<polygon fill-rule="evenodd" clip-rule="evenodd" points="191.7,31.9 245.9,26.9 245.9,24.4 191.7,29.4 "/>
<polygon fill-rule="evenodd" clip-rule="evenodd" points="191.7,35.6 245.9,30.6 245.9,28.2 191.7,33.1 "/>
<polygon fill-rule="evenodd" clip-rule="evenodd" points="264.1,26.9 318.5,31.9 318.5,29.4 264.1,24.4 "/>
<polygon fill-rule="evenodd" clip-rule="evenodd" points="264.1,30.6 318.5,35.6 318.5,33.1 264.1,28.2 "/>
<polygon fill-rule="evenodd" clip-rule="evenodd" points="344.8,36.8 399.3,41.8 399.3,39.3 344.8,34.4 "/>
<polygon fill-rule="evenodd" clip-rule="evenodd" points="344.8,40.6 399.3,45.5 399.3,43 344.8,38.1 "/>
<polygon fill-rule="evenodd" clip-rule="evenodd" points="423.9,22 478.3,26.9 478.3,24.4 423.9,19.5 "/>
<polygon fill-rule="evenodd" clip-rule="evenodd" points="423.9,18.2 478.3,23.2 478.3,20.7 423.9,15.8 "/>
<rect x="8.5" y="82.5" width="544.4" height="0.5"/>
<rect x="8.5" y="77.5" width="544.4" height="0.5"/>
<rect x="8.5" y="72.6" width="544.4" height="0.5"/>
<rect x="8.5" y="67.6" width="544.4" height="0.5"/>
<rect x="8.5" y="62.6" width="544.4" height="0.5"/>
<g>
	<path d="M15.7,77.1c2.9-2.6,4.7-6.1,4.7-9.2c0-2.5-1.4-4.4-3.7-4.4c-1.6,0-3.4,1.3-3.4,2.7c0,0.2,0,0.3,0.1,0.3
		c-0.1,0,0.6-0.6,1.4-0.6c0.9,0,1.5,0.8,1.5,1.7c0,1.2-0.9,2.2-2.1,2.2c-1.2,0-2.1-1.3-2.1-2.8c0-2.3,2.3-4.1,4.8-4.1
		c4.7,0,5.9,3.2,5.9,5.8c0,1.6-0.4,2.9-2,5.3c-1.9,3.1-6.4,5.3-8.1,5.3c-0.4,0-0.6-0.2-0.6-0.5C13.8,78.3,14.9,77.8,15.7,77.1z
		 M25.7,64.4c0.6,0,1,0.4,1,1c0,0.6-0.4,1-1,1s-1-0.4-1-1C24.7,64.8,25.1,64.4,25.7,64.4z M25.7,69.3c0.6,0,1,0.4,1,1
		c0,0.6-0.4,1-1,1s-1-0.4-1-1C24.7,69.7,25.1,69.3,25.7,69.3z"/>
</g>
<polygon fill-rule="evenodd" clip-rule="evenodd" points="44.9,64.1 99.3,59.2 99.3,56.7 44.9,61.6 "/>
<polygon fill-rule="evenodd" clip-rule="evenodd" points="44.9,60.4 99.3,55.4 99.3,53 44.9,57.9 "/>
<g>
	<path d="M185.5,81.4c-3.2,0-6.1-2.3-6.1-5.1c0-2.4,1.7-5,5.1-7.9c-0.2-0.9-0.3-1.8-0.3-2.7c0-2.6,0.9-5.1,2.4-6.3
		c1.4,1.9,2,3.7,2,5.3c0,2.2-1,4.2-3.2,6.1l0.7,3.1c0.4,0,0.6,0,0.6,0c2,0,3.6,1.5,3.6,3.5c0,1.4-1.1,2.8-2.7,3.6
		c0-0.1,0.6,2.8,0.6,3.3c0,1.9-1.7,3.2-3.7,3.2c-1.5,0-2.7-1-2.7-2.5c0-1.1,0.7-1.9,1.8-1.9c1,0,1.7,1,1.7,1.9c0,1-0.9,1.7-2,1.8
		c0.4,0.2,0.9,0.3,1.4,0.3c1.6,0,3.1-1.2,3.1-2.7c0-0.1,0-0.3,0-0.5l-0.6-2.8C186.7,81.3,186.2,81.4,185.5,81.4z M183.9,77.4
		c0,0.8,0.4,1.4,1.2,1.9c-1.3-0.2-2.2-1.1-2.2-2.3c0-1.5,1.3-2.8,2.9-3.1l-0.6-3c-2.8,2.1-4.3,4.1-4.3,6.1c0,2.2,2.1,4,4.5,4
		c0.7,0,1.3-0.1,1.8-0.4l-1.1-5.1C184.8,75.7,183.9,76.4,183.9,77.4z M186.9,61.4c-1.2,0-2.2,2.8-2.2,5.3c0,0.5,0,1,0.1,1.4
		c2-1.8,3-3.4,3-4.9c0-0.7-0.3-1.3-0.7-1.8C187.1,61.4,187,61.4,186.9,61.4z M189,77.8c0-1.2-0.9-2.4-2.2-2.4c0,0-0.2,0-0.4,0l1.1,5
		C188.5,79.7,189,78.8,189,77.8z"/>
</g>
<polygon fill-rule="evenodd" clip-rule="evenodd" points="110.9,79 165.3,74 165.3,71.6 110.9,76.5 "/>
<polygon fill-rule="evenodd" clip-rule="evenodd" points="110.9,82.7 165.3,77.8 165.3,75.3 110.9,80.2 "/>
<polygon fill-rule="evenodd" clip-rule="evenodd" points="198.2,69.1 252.5,64.1 252.5,61.6 198.2,66.6 "/>
<polygon fill-rule="evenodd" clip-rule="evenodd" points="198.2,65.4 252.5,60.4 252.5,57.9 198.2,62.9 "/>
<g>
	<path d="M333.4,74.8c2.2-2,3.6-4.6,3.6-6.9c0-1.9-1.1-3.3-2.8-3.3c-1.2,0-2.5,1-2.5,2.1c0,0.2,0,0.2,0.1,0.2c0,0,0.4-0.5,1-0.5
		c0.7,0,1.2,0.6,1.2,1.3c0,0.9-0.6,1.7-1.6,1.7s-1.5-1-1.5-2.1c0-1.8,1.7-3.1,3.6-3.1c3.5,0,4.4,2.4,4.4,4.4c0,1.2-0.3,2.2-1.5,4
		c-1.4,2.3-4.8,4-6,4c-0.3,0-0.5-0.1-0.5-0.3C332,75.7,332.8,75.3,333.4,74.8z M340.9,65.2c0.4,0,0.7,0.3,0.7,0.7
		c0,0.4-0.3,0.7-0.7,0.7c-0.4,0-0.7-0.3-0.7-0.7C340.1,65.6,340.4,65.2,340.9,65.2z M340.9,68.9c0.4,0,0.7,0.3,0.7,0.7
		s-0.3,0.7-0.7,0.7c-0.4,0-0.7-0.3-0.7-0.7S340.4,68.9,340.9,68.9z"/>
</g>
<polygon fill-rule="evenodd" clip-rule="evenodd" points="270.6,64.1 325,69.1 325,66.6 270.6,61.6 "/>
<polygon fill-rule="evenodd" clip-rule="evenodd" points="270.6,60.4 325,65.4 325,62.9 270.6,57.9 "/>
<polygon fill-rule="evenodd" clip-rule="evenodd" points="344.8,69.1 399.3,74 399.3,71.6 344.8,66.6 "/>
<polygon fill-rule="evenodd" clip-rule="evenodd" points="344.8,72.8 399.3,77.8 399.3,75.3 344.8,70.3 "/>
<polygon fill-rule="evenodd" clip-rule="evenodd" points="417.4,84 471.8,88.9 471.8,86.4 417.4,81.5 "/>
<polygon fill-rule="evenodd" clip-rule="evenodd" points="417.4,87.7 471.8,92.6 471.8,90.2 417.4,85.2 "/>
<rect x="36.4" y="40.2" width="10.5" height="0.8"/>
<rect x="44.7" y="25.8" width="0.5" height="16.4"/>
<g>
	<path d="M38.2,43.9c0-1.8,2.5-3.5,4.5-3.5c1.3,0,2.3,0.7,2.3,1.7c0,1.7-2.5,3.5-4.6,3.5C39.2,45.6,38.2,45,38.2,43.9z"/>
</g>
<g>
	<path d="M31.1,34.7h0.6L31.6,41c0.4-0.7,1-1,1.8-1c1.2,0,2.2,0.8,2.2,1.9c0,0.8-0.5,1.8-1.7,2.7l-2.8,2.1V34.7z M31.7,41.6
		c-0.1,0.8-0.1,1.4-0.1,1.9c0,1,0,1.6,0.1,2c1-0.7,2.4-2.6,2.4-3.7c0-0.6-0.5-1.1-1.1-1.1C32.4,40.8,32,41.1,31.7,41.6z"/>
</g>
<rect x="54.5" y="40.2" width="10.5" height="0.8"/>
<rect x="62.8" y="24.3" width="0.5" height="15.5"/>
<g>
	<path d="M56.4,41.4c0-1.8,2.5-3.5,4.5-3.5c1.3,0,2.3,0.7,2.3,1.7c0,1.7-2.5,3.5-4.6,3.5C57.3,43.1,56.4,42.5,56.4,41.4z"/>
</g>
<rect x="80.9" y="22.6" width="0.5" height="14.7"/>
<g>
	<path d="M74.5,38.9c0-1.8,2.5-3.5,4.5-3.5c1.3,0,2.3,0.7,2.3,1.7c0,1.7-2.5,3.5-4.6,3.5C75.5,40.7,74.5,40,74.5,38.9z"/>
</g>
<rect x="99.1" y="20.9" width="0.5" height="14"/>
<g>
	<path d="M92.6,36.4c0-1.8,2.5-3.5,4.5-3.5c1.3,0,2.3,0.7,2.3,1.7c0,1.7-2.5,3.5-4.6,3.5C93.6,38.2,92.6,37.5,92.6,36.4z"/>
</g>
<rect x="117.2" y="10.9" width="0.5" height="18.9"/>
<g>
	<path d="M110.8,31.5c0-1.8,2.5-3.5,4.5-3.5c1.3,0,2.3,0.7,2.3,1.7c0,1.7-2.5,3.5-4.6,3.5C111.7,33.2,110.8,32.6,110.8,31.5z"/>
</g>
<g>
	<path d="M104.9,22.3h0.6l-0.1,6.2c0.4-0.7,1-1,1.8-1c1.2,0,2.2,0.8,2.2,1.9c0,0.8-0.5,1.8-1.7,2.7l-2.8,2.1V22.3z M105.5,29.2
		c-0.1,0.8-0.1,1.4-0.1,1.9c0,1,0,1.6,0.1,2c1-0.7,2.4-2.6,2.4-3.7c0-0.6-0.5-1.1-1.1-1.1C106.2,28.4,105.8,28.7,105.5,29.2z"/>
</g>
<rect x="135.3" y="9.4" width="0.5" height="18"/>
<g>
	<path d="M128.9,29c0-1.8,2.5-3.5,4.5-3.5c1.3,0,2.3,0.7,2.3,1.7c0,1.7-2.5,3.5-4.6,3.5C129.9,30.7,128.9,30.1,128.9,29z"/>
</g>
<g>
	<path d="M123,19.8h0.6l-0.1,6.2c0.4-0.7,1-1,1.8-1c1.2,0,2.2,0.8,2.2,1.9c0,0.8-0.5,1.8-1.7,2.7l-2.8,2.1V19.8z M123.6,26.7
		c-0.1,0.8-0.1,1.4-0.1,1.9c0,1,0,1.6,0.1,2c1-0.7,2.4-2.6,2.4-3.7c0-0.6-0.5-1.1-1.1-1.1C124.3,25.9,123.9,26.2,123.6,26.7z"/>
</g>
<rect x="153.5" y="7.7" width="0.5" height="17.2"/>
<g>
	<path d="M147,26.5c0-1.8,2.5-3.5,4.5-3.5c1.3,0,2.3,0.7,2.3,1.7c0,1.7-2.5,3.5-4.6,3.5C148,28.3,147,27.6,147,26.5z"/>
</g>
<g>
	<path d="M141.2,17.4h0.6l-0.1,6.2c0.4-0.7,1-1,1.8-1c1.2,0,2.2,0.8,2.2,1.9c0,0.8-0.5,1.8-1.7,2.7l-2.8,2.1V17.4z M141.7,24.3
		c-0.1,0.8-0.1,1.4-0.1,1.9c0,1,0,1.6,0.1,2c1-0.7,2.4-2.6,2.4-3.7c0-0.6-0.5-1.1-1.1-1.1C142.4,23.4,142,23.7,141.7,24.3z"/>
</g>
<rect x="171.6" y="6" width="0.5" height="16.4"/>
<g>
	<path d="M165.2,24c0-1.8,2.5-3.5,4.5-3.5c1.3,0,2.3,0.7,2.3,1.7c0,1.7-2.5,3.5-4.6,3.5C166.2,25.8,165.2,25.1,165.2,24z"/>
</g>
<rect x="191.5" y="21.5" width="0.5" height="14"/>
<g>
	<path d="M191.5,21.6c0-1.8,2.5-3.5,4.5-3.5c1.3,0,2.3,0.7,2.3,1.7c0,1.7-2.5,3.5-4.6,3.5C192.5,23.3,191.5,22.7,191.5,21.6z"/>
</g>
<rect x="209.6" y="19" width="0.5" height="14.9"/>
<g>
	<path d="M209.7,19.1c0-1.8,2.5-3.5,4.5-3.5c1.3,0,2.3,0.7,2.3,1.7c0,1.7-2.5,3.5-4.6,3.5C210.6,20.8,209.7,20.2,209.7,19.1z"/>
</g>
<rect x="227.6" y="14" width="0.5" height="18.1"/>
<g>
	<path d="M227.7,14.1c0-1.8,2.5-3.5,4.5-3.5c1.3,0,2.3,0.7,2.3,1.7c0,1.7-2.5,3.5-4.6,3.5C228.6,15.9,227.7,15.2,227.7,14.1z"/>
</g>
<g>
	<path d="M221.8,5h0.6l-0.1,6.2c0.4-0.7,1-1,1.8-1c1.2,0,2.2,0.8,2.2,1.9c0,0.8-0.5,1.8-1.7,2.7l-2.8,2.1V5z M222.3,11.9
		c-0.1,0.8-0.1,1.4-0.1,1.9c0,1,0,1.6,0.1,2c1-0.7,2.4-2.6,2.4-3.7c0-0.6-0.5-1.1-1.1-1.1C223.1,11,222.6,11.3,222.3,11.9z"/>
</g>
<rect x="243.9" y="10.4" width="10.5" height="0.8"/>
<rect x="245.7" y="11.6" width="0.5" height="18.9"/>
<g>
	<path d="M245.8,11.6c0-1.8,2.5-3.5,4.5-3.5c1.3,0,2.3,0.7,2.3,1.7c0,1.7-2.5,3.5-4.6,3.5C246.8,13.4,245.8,12.7,245.8,11.6z"/>
</g>
<g>
	<path d="M238.7,2.5h0.6l-0.1,6.2c0.4-0.7,1-1,1.8-1c1.2,0,2.2,0.8,2.2,1.9c0,0.8-0.5,1.8-1.7,2.7l-2.8,2.1V2.5z M239.2,9.4
		c-0.1,0.8-0.1,1.4-0.1,1.9c0,1,0,1.6,0.1,2c1-0.7,2.4-2.6,2.4-3.7c0-0.6-0.5-1.1-1.1-1.1C239.9,8.5,239.5,8.8,239.2,9.4z"/>
</g>
<rect x="262.1" y="10.4" width="10.5" height="0.8"/>
<rect x="263.8" y="9.1" width="0.5" height="21.4"/>
<g>
	<path d="M263.9,9.2c0-1.8,2.5-3.5,4.5-3.5c1.3,0,2.3,0.7,2.3,1.7c0,1.7-2.5,3.5-4.6,3.5C264.9,10.9,263.9,10.3,263.9,9.2z"/>
</g>
<g>
	<path d="M256.8,0h0.6l-0.1,6.2c0.4-0.7,1-1,1.8-1c1.2,0,2.2,0.8,2.2,1.9c0,0.8-0.5,1.8-1.7,2.7l-2.8,2.1V0z M257.4,6.9
		c-0.1,0.8-0.1,1.4-0.1,1.9c0,1,0,1.6,0.1,2c1-0.7,2.4-2.6,2.4-3.7c0-0.6-0.5-1.1-1.1-1.1C258.1,6.1,257.7,6.3,257.4,6.9z"/>
</g>
<rect x="280.2" y="10.4" width="10.5" height="0.8"/>
<rect x="282" y="11.6" width="0.5" height="20.5"/>
<g>
	<path d="M282.1,11.6c0-1.8,2.5-3.5,4.5-3.5c1.3,0,2.3,0.7,2.3,1.7c0,1.7-2.5,3.5-4.6,3.5C283,13.4,282.1,12.7,282.1,11.6z"/>
</g>
<rect x="300.1" y="14" width="0.5" height="19.7"/>
<g>
	<path d="M300.2,14.1c0-1.8,2.5-3.5,4.5-3.5c1.3,0,2.3,0.7,2.3,1.7c0,1.7-2.5,3.5-4.6,3.5C301.2,15.9,300.2,15.2,300.2,14.1z"/>
</g>
<rect x="318.3" y="19" width="0.5" height="16.4"/>
<g>
	<path d="M318.3,19.1c0-1.8,2.5-3.5,4.5-3.5c1.3,0,2.3,0.7,2.3,1.7c0,1.7-2.5,3.5-4.6,3.5C319.3,20.8,318.3,20.2,318.3,19.1z"/>
</g>
<rect x="344.6" y="21.5" width="0.5" height="18.9"/>
<g>
	<path d="M344.7,21.6c0-1.8,2.5-3.5,4.5-3.5c1.3,0,2.3,0.7,2.3,1.7c0,1.7-2.5,3.5-4.6,3.5C345.7,23.3,344.7,22.7,344.7,21.6z"/>
</g>
<rect x="362.7" y="24" width="0.5" height="18"/>
<g>
	<path d="M362.8,24c0-1.8,2.5-3.5,4.5-3.5c1.3,0,2.3,0.7,2.3,1.7c0,1.7-2.5,3.5-4.6,3.5C363.8,25.8,362.8,25.1,362.8,24z"/>
</g>
<rect x="380.9" y="26.4" width="0.5" height="17.2"/>
<g>
	<path d="M381,26.5c0-1.8,2.5-3.5,4.5-3.5c1.3,0,2.3,0.7,2.3,1.7c0,1.7-2.5,3.5-4.6,3.5C381.9,28.3,381,27.6,381,26.5z"/>
</g>
<rect x="399" y="28.9" width="0.5" height="16.4"/>
<g>
	<path d="M399.1,29c0-1.8,2.5-3.5,4.5-3.5c1.3,0,2.3,0.7,2.3,1.7c0,1.7-2.5,3.5-4.6,3.5C400.1,30.7,399.1,30.1,399.1,29z"/>
</g>
<rect x="423.7" y="15.9" width="0.5" height="14"/>
<g>
	<path d="M417.2,31.5c0-1.8,2.5-3.5,4.5-3.5c1.3,0,2.3,0.7,2.3,1.7c0,1.7-2.5,3.5-4.6,3.5C418.2,33.2,417.2,32.6,417.2,31.5z"/>
</g>
<rect x="441.8" y="17.5" width="0.5" height="17.4"/>
<g>
	<path d="M435.4,36.4c0-1.8,2.5-3.5,4.5-3.5c1.3,0,2.3,0.7,2.3,1.7c0,1.7-2.5,3.5-4.6,3.5C436.3,38.2,435.4,37.5,435.4,36.4z"/>
</g>
<rect x="459.9" y="19.2" width="0.5" height="18.1"/>
<g>
	<path d="M453.5,38.9c0-1.8,2.5-3.5,4.5-3.5c1.3,0,2.3,0.7,2.3,1.7c0,1.7-2.5,3.5-4.6,3.5C454.5,40.7,453.5,40,453.5,38.9z"/>
</g>
<rect x="469.8" y="40.2" width="10.5" height="0.8"/>
<rect x="478.1" y="20.9" width="0.5" height="18.9"/>
<g>
	<path d="M471.6,41.4c0-1.8,2.5-3.5,4.5-3.5c1.3,0,2.3,0.7,2.3,1.7c0,1.7-2.5,3.5-4.6,3.5C472.6,43.1,471.6,42.5,471.6,41.4z"/>
</g>
<rect x="487.9" y="40.2" width="10.7" height="0.8"/>
<rect x="496.4" y="25.7" width="0.5" height="16.6"/>
<g>
	<path d="M494,40.3c1.6,0,2.7,0.7,2.7,2c0,1.9-2.3,3.4-4.5,3.4c-1.3,0-2.4-0.7-2.4-1.8C489.8,42.1,492,40.3,494,40.3z M490.2,44.2
		c0,0.6,0.4,0.9,1.1,0.9c1.4,0,4.9-2.1,4.9-3.3c0-0.6-0.4-0.9-1.1-0.9C493.9,40.9,490.2,43,490.2,44.2z"/>
</g>
<rect x="44.7" y="58.1" width="0.5" height="18.9"/>
<g>
	<path d="M38.2,78.6c0-1.8,2.5-3.5,4.5-3.5c1.3,0,2.3,0.7,2.3,1.7c0,1.7-2.5,3.5-4.6,3.5C39.2,80.3,38.2,79.7,38.2,78.6z"/>
</g>
<g>
	<path d="M32.3,69.4H33l-0.1,6.2c0.4-0.7,1-1,1.8-1c1.2,0,2.2,0.8,2.2,1.9c0,0.8-0.5,1.8-1.7,2.7l-2.8,2.1V69.4z M32.9,76.3
		c-0.1,0.8-0.1,1.4-0.1,1.9c0,1,0,1.6,0.1,2c1-0.7,2.4-2.6,2.4-3.7c0-0.6-0.5-1.1-1.1-1.1C33.6,75.5,33.2,75.8,32.9,76.3z"/>
</g>
<rect x="62.8" y="56.5" width="0.5" height="18"/>
<g>
	<path d="M56.4,76.1c0-1.8,2.5-3.5,4.5-3.5c1.3,0,2.3,0.7,2.3,1.7c0,1.7-2.5,3.5-4.6,3.5C57.3,77.9,56.4,77.2,56.4,76.1z"/>
</g>
<rect x="80.9" y="54.8" width="0.5" height="17.2"/>
<g>
	<path d="M74.5,73.6c0-1.8,2.5-3.5,4.5-3.5c1.3,0,2.3,0.7,2.3,1.7c0,1.7-2.5,3.5-4.6,3.5C75.5,75.4,74.5,74.7,74.5,73.6z"/>
</g>
<rect x="99.1" y="53.1" width="0.5" height="16.4"/>
<g>
	<path d="M92.6,71.2c0-1.8,2.5-3.5,4.5-3.5c1.3,0,2.3,0.7,2.3,1.7c0,1.7-2.5,3.5-4.6,3.5C93.6,72.9,92.6,72.3,92.6,71.2z"/>
</g>
<rect x="110.7" y="66.1" width="0.5" height="16.4"/>
<g>
	<path d="M110.8,66.2c0-1.8,2.5-3.5,4.5-3.5c1.3,0,2.3,0.7,2.3,1.7c0,1.7-2.5,3.5-4.6,3.5C111.7,67.9,110.8,67.3,110.8,66.2z"/>
</g>
<g>
	<path d="M104.9,57h0.6l-0.1,6.2c0.4-0.7,1-1,1.8-1c1.2,0,2.2,0.8,2.2,1.9c0,0.8-0.5,1.8-1.7,2.7l-2.8,2.1V57z M105.5,63.9
		c-0.1,0.8-0.1,1.4-0.1,1.9c0,1,0,1.6,0.1,2c1-0.7,2.4-2.6,2.4-3.7c0-0.6-0.5-1.1-1.1-1.1C106.2,63.1,105.8,63.4,105.5,63.9z"/>
</g>
<rect x="128.8" y="63.6" width="0.5" height="17.4"/>
<g>
	<path d="M128.9,63.7c0-1.8,2.5-3.5,4.5-3.5c1.3,0,2.3,0.7,2.3,1.7c0,1.7-2.5,3.5-4.6,3.5C129.9,65.5,128.9,64.8,128.9,63.7z"/>
</g>
<g>
	<path d="M123,54.6h0.6l-0.1,6.2c0.4-0.7,1-1,1.8-1c1.2,0,2.2,0.8,2.2,1.9c0,0.8-0.5,1.8-1.7,2.7l-2.8,2.1V54.6z M123.6,61.5
		c-0.1,0.8-0.1,1.4-0.1,1.9c0,1,0,1.6,0.1,2c1-0.7,2.4-2.6,2.4-3.7c0-0.6-0.5-1.1-1.1-1.1C124.3,60.6,123.9,60.9,123.6,61.5z"/>
</g>
<rect x="147" y="61.2" width="0.5" height="18.1"/>
<g>
	<path d="M147,61.2c0-1.8,2.5-3.5,4.5-3.5c1.3,0,2.3,0.7,2.3,1.7c0,1.7-2.5,3.5-4.6,3.5C148,63,147,62.3,147,61.2z"/>
</g>
<g>
	<path d="M141.2,52.1h0.6l-0.1,6.2c0.4-0.7,1-1,1.8-1c1.2,0,2.2,0.8,2.2,1.9c0,0.8-0.5,1.8-1.7,2.7l-2.8,2.1V52.1z M141.7,59
		c-0.1,0.8-0.1,1.4-0.1,1.9c0,1,0,1.6,0.1,2c1-0.7,2.4-2.6,2.4-3.7c0-0.6-0.5-1.1-1.1-1.1C142.4,58.2,142,58.4,141.7,59z"/>
</g>
<rect x="163.3" y="57.5" width="10.5" height="0.8"/>
<rect x="165.1" y="58.7" width="0.5" height="18.9"/>
<g>
	<path d="M165.2,58.8c0-1.8,2.5-3.5,4.5-3.5c1.3,0,2.3,0.7,2.3,1.7c0,1.7-2.5,3.5-4.6,3.5C166.2,60.5,165.2,59.9,165.2,58.8z"/>
</g>
<rect x="198" y="63" width="0.5" height="21.4"/>
<g>
	<path d="M191.5,86c0-1.8,2.5-3.5,4.5-3.5c1.3,0,2.3,0.7,2.3,1.7c0,1.7-2.5,3.5-4.6,3.5C192.5,87.8,191.5,87.1,191.5,86z"/>
</g>
<rect x="216.1" y="61.5" width="0.5" height="20.5"/>
<g>
	<path d="M209.7,83.6c0-1.8,2.5-3.5,4.5-3.5c1.3,0,2.3,0.7,2.3,1.7c0,1.7-2.5,3.5-4.6,3.5C210.6,85.3,209.7,84.7,209.7,83.6z"/>
</g>
<rect x="234.1" y="59.8" width="0.5" height="17.2"/>
<g>
	<path d="M227.7,78.6c0-1.8,2.5-3.5,4.5-3.5c1.3,0,2.3,0.7,2.3,1.7c0,1.7-2.5,3.5-4.6,3.5C228.6,80.3,227.7,79.7,227.7,78.6z"/>
</g>
<g>
	<path d="M221.8,69.4h0.6l-0.1,6.2c0.4-0.7,1-1,1.8-1c1.2,0,2.2,0.8,2.2,1.9c0,0.8-0.5,1.8-1.7,2.7l-2.8,2.1V69.4z M222.3,76.3
		c-0.1,0.8-0.1,1.4-0.1,1.9c0,1,0,1.6,0.1,2c1-0.7,2.4-2.6,2.4-3.7c0-0.6-0.5-1.1-1.1-1.1C223.1,75.5,222.6,75.8,222.3,76.3z"/>
</g>
<rect x="252.2" y="58.1" width="0.5" height="16.4"/>
<g>
	<path d="M245.8,76.1c0-1.8,2.5-3.5,4.5-3.5c1.3,0,2.3,0.7,2.3,1.7c0,1.7-2.5,3.5-4.6,3.5C246.8,77.9,245.8,77.2,245.8,76.1z"/>
</g>
<g>
	<path d="M239.9,67h0.6l-0.1,6.2c0.4-0.7,1-1,1.8-1c1.2,0,2.2,0.8,2.2,1.9c0,0.8-0.5,1.8-1.7,2.7l-2.8,2.1V67z M240.5,73.9
		c-0.1,0.8-0.1,1.4-0.1,1.9c0,1,0,1.6,0.1,2c1-0.7,2.4-2.6,2.4-3.7c0-0.6-0.5-1.1-1.1-1.1C241.2,73,240.8,73.3,240.5,73.9z"/>
</g>
<rect x="270.4" y="58.1" width="0.5" height="14"/>
<g>
	<path d="M263.9,73.6c0-1.8,2.5-3.5,4.5-3.5c1.3,0,2.3,0.7,2.3,1.7c0,1.7-2.5,3.5-4.6,3.5C264.9,75.4,263.9,74.7,263.9,73.6z"/>
</g>
<g>
	<path d="M258,64.5h0.6l-0.1,6.2c0.4-0.7,1-1,1.8-1c1.2,0,2.2,0.8,2.2,1.9c0,0.8-0.5,1.8-1.7,2.7l-2.8,2.1V64.5z M258.6,71.4
		c-0.1,0.8-0.1,1.4-0.1,1.9c0,1,0,1.6,0.1,2c1-0.7,2.4-2.6,2.4-3.7c0-0.6-0.5-1.1-1.1-1.1C259.3,70.6,258.9,70.8,258.6,71.4z"/>
</g>
<rect x="288.5" y="59.6" width="0.5" height="14.9"/>
<g>
	<path d="M282.1,76.1c0-1.8,2.5-3.5,4.5-3.5c1.3,0,2.3,0.7,2.3,1.7c0,1.7-2.5,3.5-4.6,3.5C283,77.9,282.1,77.2,282.1,76.1z"/>
</g>
<rect x="306.6" y="61.3" width="0.5" height="15.7"/>
<g>
	<path d="M300.2,78.6c0-1.8,2.5-3.5,4.5-3.5c1.3,0,2.3,0.7,2.3,1.7c0,1.7-2.5,3.5-4.6,3.5C301.2,80.3,300.2,79.7,300.2,78.6z"/>
</g>
<rect x="324.8" y="63" width="0.5" height="18.9"/>
<g>
	<path d="M318.3,83.6c0-1.8,2.5-3.5,4.5-3.5c1.3,0,2.3,0.7,2.3,1.7c0,1.7-2.5,3.5-4.6,3.5C319.3,85.3,318.3,84.7,318.3,83.6z"/>
</g>
<rect x="342.8" y="57.5" width="10.5" height="0.8"/>
<rect x="344.6" y="56.2" width="0.5" height="16.4"/>
<g>
	<path d="M344.7,56.3c0-1.8,2.5-3.5,4.5-3.5c1.3,0,2.3,0.7,2.3,1.7c0,1.7-2.5,3.5-4.6,3.5C345.7,58,344.7,57.4,344.7,56.3z"/>
</g>
<rect x="361" y="57.5" width="10.5" height="0.8"/>
<rect x="362.7" y="58.7" width="0.5" height="15.5"/>
<g>
	<path d="M362.8,58.8c0-1.8,2.5-3.5,4.5-3.5c1.3,0,2.3,0.7,2.3,1.7c0,1.7-2.5,3.5-4.6,3.5C363.8,60.5,362.8,59.9,362.8,58.8z"/>
</g>
<rect x="380.9" y="61.2" width="0.5" height="14.7"/>
<g>
	<path d="M381,61.2c0-1.8,2.5-3.5,4.5-3.5c1.3,0,2.3,0.7,2.3,1.7c0,1.7-2.5,3.5-4.6,3.5C381.9,63,381,62.3,381,61.2z"/>
</g>
<rect x="399" y="63.6" width="0.5" height="14"/>
<g>
	<path d="M399.1,63.7c0-1.8,2.5-3.5,4.5-3.5c1.3,0,2.3,0.7,2.3,1.7c0,1.7-2.5,3.5-4.6,3.5C400.1,65.5,399.1,64.8,399.1,63.7z"/>
</g>
<rect x="417.2" y="66.1" width="0.5" height="21.4"/>
<g>
	<path d="M417.2,66.2c0-1.8,2.5-3.5,4.5-3.5c1.3,0,2.3,0.7,2.3,1.7c0,1.7-2.5,3.5-4.6,3.5C418.2,67.9,417.2,67.3,417.2,66.2z"/>
</g>
<rect x="435.3" y="71.1" width="0.5" height="18"/>
<g>
	<path d="M435.4,71.2c0-1.8,2.5-3.5,4.5-3.5c1.3,0,2.3,0.7,2.3,1.7c0,1.7-2.5,3.5-4.6,3.5C436.3,72.9,435.4,72.3,435.4,71.2z"/>
</g>
<rect x="453.4" y="73.6" width="0.5" height="17.2"/>
<g>
	<path d="M453.5,73.6c0-1.8,2.5-3.5,4.5-3.5c1.3,0,2.3,0.7,2.3,1.7c0,1.7-2.5,3.5-4.6,3.5C454.5,75.4,453.5,74.7,453.5,73.6z"/>
</g>
<rect x="471.6" y="76.1" width="0.5" height="16.4"/>
<g>
	<path d="M471.6,76.1c0-1.8,2.5-3.5,4.5-3.5c1.3,0,2.3,0.7,2.3,1.7c0,1.7-2.5,3.5-4.6,3.5C472.6,77.9,471.6,77.2,471.6,76.1z"/>
</g>
<rect x="496.4" y="60.4" width="0.5" height="16.6"/>
<g>
	<path d="M494,75.1c1.6,0,2.7,0.7,2.7,2c0,1.9-2.3,3.4-4.5,3.4c-1.3,0-2.4-0.7-2.4-1.8C489.8,76.8,492,75.1,494,75.1z M490.2,78.9
		c0,0.6,0.4,0.9,1.1,0.9c1.4,0,4.9-2.1,4.9-3.3c0-0.6-0.4-0.9-1.1-0.9C493.9,75.7,490.2,77.7,490.2,78.9z"/>
</g>
</svg>
