<?xml version="1.0" encoding="utf-8"?>

<!--
	ScaleBook
	Copyright (c) Leland Jansen 2015. All rights reserved.
-->

<!DOCTYPE svg PUBLIC "-//W3C//DTD SVG 1.1//EN" "http://www.w3.org/Graphics/SVG/1.1/DTD/svg11.dtd">
<svg version="1.1" id="Layer_1" xmlns="http://www.w3.org/2000/svg" xmlns:xlink="http://www.w3.org/1999/xlink" x="0px" y="0px"
	 viewBox="0 0 552.9 92.6" enable-background="new 0 0 552.9 92.6" xml:space="preserve">
<rect x="8.4" y="15.8" width="0.8" height="67"/>
<g>
	<path d="M7.4,16.4c-1.9,1.1-3.6,5.8-3.6,9.4c0,2.3,1.4,9.9,1.4,12.3c0,5-1.5,8.6-4.6,11.1c3,2.4,4.6,6.1,4.6,11.1
		c0,2.3-1.4,9.9-1.4,12.3c0,3.8,1.7,8.4,3.6,9.5v0.7c-3.5-2.3-5.8-8.2-5.8-13.1c0-2.1,1.7-9.4,1.7-11.5c0-3.8-1-6.6-2.9-8.2
		C0.1,49.6,0,49.4,0,49.2c0-0.2,0.1-0.4,0.5-0.7c1.9-1.7,2.9-4.2,2.9-7.6c0-2.1-1.7-10-1.7-12.2c0-5.2,2.1-10.4,5.8-13.1V16.4z"/>
</g>
<rect x="547.8" y="15.8" width="0.8" height="67"/>
<rect x="550.4" y="15.8" width="2.5" height="67"/>
<rect x="8.5" y="35.4" width="544.4" height="0.5"/>
<rect x="8.5" y="30.4" width="544.4" height="0.5"/>
<rect x="8.5" y="25.4" width="544.4" height="0.5"/>
<rect x="8.5" y="20.5" width="544.4" height="0.5"/>
<rect x="8.5" y="15.5" width="544.4" height="0.5"/>
<g>
	<path d="M20.3,35.4c-4.2,0-8.1-3.1-8.1-6.9c0-3.2,2.3-6.7,6.8-10.5c-0.3-1.2-0.4-2.4-0.4-3.6c0-3.5,1.2-6.8,3.2-8.5
		c1.8,2.5,2.7,4.9,2.7,7.1c0,2.9-1.3,5.6-4.3,8.1l0.9,4.2c0.5,0,0.8-0.1,0.8-0.1c2.6,0,4.8,2,4.8,4.7c0,1.9-1.4,3.7-3.6,4.8
		c0-0.1,0.9,3.8,0.9,4.3c0,2.5-2.3,4.2-4.9,4.2c-2,0-3.6-1.3-3.6-3.4c0-1.4,1-2.6,2.4-2.6c1.3,0,2.3,1.3,2.3,2.5
		c0,1.4-1.2,2.3-2.7,2.5c0.6,0.3,1.2,0.5,1.9,0.5c2.1,0,4.1-1.6,4.1-3.6c0-0.2,0-0.4-0.1-0.6L22.6,35C21.9,35.3,21.2,35.4,20.3,35.4
		z M18.1,30.2c0,1,0.5,1.9,1.6,2.5c-1.8-0.3-3-1.4-3-3.1c0-2,1.7-3.7,3.8-4.1l-0.8-4C16,24.3,14,27,14,29.7c0,2.9,2.8,5.3,6,5.3
		c0.9,0,1.7-0.2,2.4-0.5L21,27.6C19.4,27.8,18.1,28.8,18.1,30.2z M22.1,8.9c-1.6,0-2.9,3.7-2.9,7c0,0.7,0,1.3,0.2,1.9
		c2.7-2.4,4-4.5,4-6.5c0-0.9-0.3-1.7-1-2.4C22.4,8.9,22.3,8.9,22.1,8.9z M24.9,30.8c0-1.6-1.2-3.3-2.9-3.3c-0.1,0-0.2,0-0.5,0
		l1.4,6.6C24.2,33.2,24.9,32.1,24.9,30.8z"/>
</g>
<polygon fill-rule="evenodd" clip-rule="evenodd" points="43.6,26.9 98.2,22 98.2,19.5 43.6,24.4 "/>
<polygon fill-rule="evenodd" clip-rule="evenodd" points="43.6,23.2 98.2,18.2 98.2,15.8 43.6,20.7 "/>
<polygon fill-rule="evenodd" clip-rule="evenodd" points="109.8,41.8 164.4,36.8 164.4,34.4 109.8,39.3 "/>
<polygon fill-rule="evenodd" clip-rule="evenodd" points="109.8,45.5 164.4,40.6 164.4,38.1 109.8,43 "/>
<polygon fill-rule="evenodd" clip-rule="evenodd" points="190.8,31.9 245.3,26.9 245.3,24.4 190.8,29.4 "/>
<polygon fill-rule="evenodd" clip-rule="evenodd" points="190.8,35.6 245.3,30.6 245.3,28.2 190.8,33.1 "/>
<polygon fill-rule="evenodd" clip-rule="evenodd" points="263.5,22 318,26.9 318,24.4 263.5,19.5 "/>
<polygon fill-rule="evenodd" clip-rule="evenodd" points="263.5,25.7 318,30.6 318,28.2 263.5,23.2 "/>
<polygon fill-rule="evenodd" clip-rule="evenodd" points="344.4,31.9 398.8,36.8 398.8,34.4 344.4,29.4 "/>
<polygon fill-rule="evenodd" clip-rule="evenodd" points="344.4,35.6 398.8,40.6 398.8,38.1 344.4,33.1 "/>
<polygon fill-rule="evenodd" clip-rule="evenodd" points="423.6,17 478,22 478,19.5 423.6,14.5 "/>
<polygon fill-rule="evenodd" clip-rule="evenodd" points="423.6,13.3 478,18.2 478,15.8 423.6,10.8 "/>
<rect x="8.5" y="82.5" width="544.4" height="0.5"/>
<rect x="8.5" y="77.5" width="544.4" height="0.5"/>
<rect x="8.5" y="72.6" width="544.4" height="0.5"/>
<rect x="8.5" y="67.6" width="544.4" height="0.5"/>
<rect x="8.5" y="62.6" width="544.4" height="0.5"/>
<g>
	<path d="M15.7,77.1c2.9-2.6,4.7-6.1,4.7-9.2c0-2.5-1.4-4.4-3.7-4.4c-1.6,0-3.4,1.3-3.4,2.7c0,0.2,0,0.3,0.1,0.3
		c-0.1,0,0.6-0.6,1.4-0.6c0.9,0,1.5,0.8,1.5,1.7c0,1.2-0.9,2.2-2.1,2.2c-1.2,0-2.1-1.3-2.1-2.8c0-2.3,2.3-4.1,4.8-4.1
		c4.7,0,5.9,3.2,5.9,5.8c0,1.6-0.4,2.9-2,5.3c-1.9,3.1-6.4,5.3-8.1,5.3c-0.4,0-0.6-0.2-0.6-0.5C13.8,78.3,14.9,77.8,15.7,77.1z
		 M25.7,64.4c0.6,0,1,0.4,1,1c0,0.6-0.4,1-1,1s-1-0.4-1-1C24.7,64.8,25.1,64.4,25.7,64.4z M25.7,69.3c0.6,0,1,0.4,1,1
		c0,0.6-0.4,1-1,1s-1-0.4-1-1C24.7,69.7,25.1,69.3,25.7,69.3z"/>
</g>
<polygon fill-rule="evenodd" clip-rule="evenodd" points="37.1,88.9 91.7,84 91.7,81.5 37.1,86.4 "/>
<polygon fill-rule="evenodd" clip-rule="evenodd" points="37.1,92.6 91.7,87.7 91.7,85.2 37.1,90.2 "/>
<g>
	<path d="M184.6,81.4c-3.2,0-6.1-2.3-6.1-5.1c0-2.4,1.7-5,5.1-7.9c-0.2-0.9-0.3-1.8-0.3-2.7c0-2.6,0.9-5.1,2.4-6.3
		c1.4,1.9,2,3.7,2,5.3c0,2.2-1,4.2-3.2,6.1l0.7,3.1c0.4,0,0.6,0,0.6,0c2,0,3.6,1.5,3.6,3.5c0,1.4-1.1,2.8-2.7,3.6
		c0-0.1,0.6,2.8,0.6,3.3c0,1.9-1.7,3.2-3.7,3.2c-1.5,0-2.7-1-2.7-2.5c0-1.1,0.7-1.9,1.8-1.9c1,0,1.7,1,1.7,1.9c0,1-0.9,1.7-2,1.8
		c0.4,0.2,0.9,0.3,1.4,0.3c1.6,0,3.1-1.2,3.1-2.7c0-0.1,0-0.3,0-0.5l-0.6-2.8C185.8,81.3,185.3,81.4,184.6,81.4z M182.9,77.4
		c0,0.8,0.4,1.4,1.2,1.9c-1.3-0.2-2.2-1.1-2.2-2.3c0-1.5,1.3-2.8,2.9-3.1l-0.6-3c-2.8,2.1-4.3,4.1-4.3,6.1c0,2.2,2.1,4,4.5,4
		c0.7,0,1.3-0.1,1.8-0.4l-1.1-5.1C183.9,75.7,182.9,76.4,182.9,77.4z M186,61.4c-1.2,0-2.2,2.8-2.2,5.3c0,0.5,0,1,0.1,1.4
		c2-1.8,3-3.4,3-4.9c0-0.7-0.3-1.3-0.7-1.8C186.2,61.4,186.1,61.4,186,61.4z M188,77.8c0-1.2-0.9-2.4-2.2-2.4c0,0-0.2,0-0.4,0l1.1,5
		C187.5,79.7,188,78.8,188,77.8z"/>
</g>
<polygon fill-rule="evenodd" clip-rule="evenodd" points="109.8,74 164.4,69.1 164.4,66.6 109.8,71.6 "/>
<polygon fill-rule="evenodd" clip-rule="evenodd" points="109.8,77.8 164.4,72.8 164.4,70.3 109.8,75.3 "/>
<polygon fill-rule="evenodd" clip-rule="evenodd" points="197.3,69.1 251.8,64.1 251.8,61.6 197.3,66.6 "/>
<polygon fill-rule="evenodd" clip-rule="evenodd" points="197.3,65.4 251.8,60.4 251.8,57.9 197.3,62.9 "/>
<g>
	<path d="M332.9,74.8c2.2-2,3.6-4.6,3.6-6.9c0-1.9-1.1-3.3-2.8-3.3c-1.2,0-2.5,1-2.5,2.1c0,0.2,0,0.2,0.1,0.2c0,0,0.4-0.5,1-0.5
		c0.7,0,1.2,0.6,1.2,1.3c0,0.9-0.6,1.7-1.6,1.7s-1.5-1-1.5-2.1c0-1.8,1.7-3.1,3.6-3.1c3.5,0,4.4,2.4,4.4,4.4c0,1.2-0.3,2.2-1.5,4
		c-1.4,2.3-4.8,4-6,4c-0.3,0-0.5-0.1-0.5-0.3C331.5,75.7,332.3,75.3,332.9,74.8z M340.4,65.2c0.4,0,0.7,0.3,0.7,0.7
		c0,0.4-0.3,0.7-0.7,0.7c-0.4,0-0.7-0.3-0.7-0.7C339.6,65.6,340,65.2,340.4,65.2z M340.4,68.9c0.4,0,0.7,0.3,0.7,0.7
		s-0.3,0.7-0.7,0.7c-0.4,0-0.7-0.3-0.7-0.7S340,68.9,340.4,68.9z"/>
</g>
<polygon fill-rule="evenodd" clip-rule="evenodd" points="270,59.2 324.5,64.1 324.5,61.6 270,56.7 "/>
<polygon fill-rule="evenodd" clip-rule="evenodd" points="270,55.4 324.5,60.4 324.5,57.9 270,53 "/>
<polygon fill-rule="evenodd" clip-rule="evenodd" points="344.4,69.1 398.8,74 398.8,71.6 344.4,66.6 "/>
<polygon fill-rule="evenodd" clip-rule="evenodd" points="344.4,72.8 398.8,77.8 398.8,75.3 344.4,70.3 "/>
<polygon fill-rule="evenodd" clip-rule="evenodd" points="417.1,79 471.5,84 471.5,81.5 417.1,76.5 "/>
<polygon fill-rule="evenodd" clip-rule="evenodd" points="417.1,82.7 471.5,87.7 471.5,85.2 417.1,80.2 "/>
<rect x="35.1" y="40.2" width="10.5" height="0.8"/>
<rect x="43.4" y="20.9" width="0.5" height="18.9"/>
<g>
	<path d="M37,41.4c0-1.8,2.5-3.5,4.5-3.5c1.3,0,2.3,0.7,2.3,1.7c0,1.7-2.5,3.5-4.6,3.5C38,43.1,37,42.5,37,41.4z"/>
</g>
<rect x="61.6" y="19.3" width="0.5" height="18"/>
<g>
	<path d="M55.1,38.9c0-1.8,2.5-3.5,4.5-3.5c1.3,0,2.3,0.7,2.3,1.7c0,1.7-2.5,3.5-4.6,3.5C56.1,40.7,55.1,40,55.1,38.9z"/>
</g>
<rect x="79.8" y="17.6" width="0.5" height="17.2"/>
<g>
	<path d="M73.4,36.4c0-1.8,2.5-3.5,4.5-3.5c1.3,0,2.3,0.7,2.3,1.7c0,1.7-2.5,3.5-4.6,3.5C74.4,38.2,73.4,37.5,73.4,36.4z"/>
</g>
<rect x="98" y="15.9" width="0.5" height="14"/>
<g>
	<path d="M91.5,31.5c0-1.8,2.5-3.5,4.5-3.5c1.3,0,2.3,0.7,2.3,1.7c0,1.7-2.5,3.5-4.6,3.5C92.5,33.2,91.5,32.6,91.5,31.5z"/>
</g>
<g>
	<path d="M85.7,22.3h0.6l-0.1,6.2c0.4-0.7,1-1,1.8-1c1.2,0,2.2,0.8,2.2,1.9c0,0.8-0.5,1.8-1.7,2.7l-2.8,2.1V22.3z M86.2,29.2
		c-0.1,0.8-0.1,1.4-0.1,1.9c0,1,0,1.6,0.1,2c1-0.7,2.4-2.6,2.4-3.7c0-0.6-0.5-1.1-1.1-1.1C86.9,28.4,86.5,28.7,86.2,29.2z"/>
</g>
<rect x="109.6" y="28.9" width="0.5" height="16.4"/>
<g>
	<path d="M109.7,29c0-1.8,2.5-3.5,4.5-3.5c1.3,0,2.3,0.7,2.3,1.7c0,1.7-2.5,3.5-4.6,3.5C110.7,30.7,109.7,30.1,109.7,29z"/>
</g>
<g>
	<path d="M103.8,19.8h0.6l-0.1,6.2c0.4-0.7,1-1,1.8-1c1.2,0,2.2,0.8,2.2,1.9c0,0.8-0.5,1.8-1.7,2.7l-2.8,2.1V19.8z M104.4,26.7
		c-0.1,0.8-0.1,1.4-0.1,1.9c0,1,0,1.6,0.1,2c1-0.7,2.4-2.6,2.4-3.7c0-0.6-0.5-1.1-1.1-1.1C105.1,25.9,104.7,26.2,104.4,26.7z"/>
</g>
<rect x="127.7" y="26.4" width="0.5" height="17.4"/>
<g>
	<path d="M127.8,26.5c0-1.8,2.5-3.5,4.5-3.5c1.3,0,2.3,0.7,2.3,1.7c0,1.7-2.5,3.5-4.6,3.5C128.8,28.3,127.8,27.6,127.8,26.5z"/>
</g>
<g>
	<path d="M121.9,17.4h0.6l-0.1,6.2c0.4-0.7,1-1,1.8-1c1.2,0,2.2,0.8,2.2,1.9c0,0.8-0.5,1.8-1.7,2.7l-2.8,2.1V17.4z M122.5,24.3
		c-0.1,0.8-0.1,1.4-0.1,1.9c0,1,0,1.6,0.1,2c1-0.7,2.4-2.6,2.4-3.7c0-0.6-0.5-1.1-1.1-1.1C123.2,23.4,122.8,23.7,122.5,24.3z"/>
</g>
<rect x="146" y="24" width="0.5" height="18.1"/>
<g>
	<path d="M146.1,24c0-1.8,2.5-3.5,4.5-3.5c1.3,0,2.3,0.7,2.3,1.7c0,1.7-2.5,3.5-4.6,3.5C147.1,25.8,146.1,25.1,146.1,24z"/>
</g>
<rect x="164.2" y="21.5" width="0.5" height="18.9"/>
<g>
	<path d="M164.2,21.6c0-1.8,2.5-3.5,4.5-3.5c1.3,0,2.3,0.7,2.3,1.7c0,1.7-2.5,3.5-4.6,3.5C165.2,23.3,164.2,22.7,164.2,21.6z"/>
</g>
<rect x="190.5" y="19" width="0.5" height="16.4"/>
<g>
	<path d="M190.6,19.1c0-1.8,2.5-3.5,4.5-3.5c1.3,0,2.3,0.7,2.3,1.7c0,1.7-2.5,3.5-4.6,3.5C191.6,20.8,190.6,20.2,190.6,19.1z"/>
</g>
<rect x="208.7" y="14" width="0.5" height="19.8"/>
<g>
	<path d="M208.7,14.1c0-1.8,2.5-3.5,4.5-3.5c1.3,0,2.3,0.7,2.3,1.7c0,1.7-2.5,3.5-4.6,3.5C209.7,15.9,208.7,15.2,208.7,14.1z"/>
</g>
<g>
	<path d="M202.8,5h0.6l-0.1,6.2c0.4-0.7,1-1,1.8-1c1.2,0,2.2,0.8,2.2,1.9c0,0.8-0.5,1.8-1.7,2.7l-2.8,2.1V5z M203.4,11.9
		c-0.1,0.8-0.1,1.4-0.1,1.9c0,1,0,1.6,0.1,2c1-0.7,2.4-2.6,2.4-3.7c0-0.6-0.5-1.1-1.1-1.1C204.1,11,203.7,11.3,203.4,11.9z"/>
</g>
<rect x="225" y="10.4" width="10.5" height="0.8"/>
<rect x="226.8" y="11.6" width="0.5" height="20.6"/>
<g>
	<path d="M226.9,11.6c0-1.8,2.5-3.5,4.5-3.5c1.3,0,2.3,0.7,2.3,1.7c0,1.7-2.5,3.5-4.6,3.5C227.8,13.4,226.9,12.7,226.9,11.6z"/>
</g>
<g>
	<path d="M219.7,2.5h0.6l-0.1,6.2c0.4-0.7,1-1,1.8-1c1.2,0,2.2,0.8,2.2,1.9c0,0.8-0.5,1.8-1.7,2.7l-2.8,2.1V2.5z M220.3,9.4
		c-0.1,0.8-0.1,1.4-0.1,1.9c0,1,0,1.6,0.1,2c1-0.7,2.4-2.6,2.4-3.7c0-0.6-0.5-1.1-1.1-1.1C221,8.6,220.6,8.8,220.3,9.4z"/>
</g>
<rect x="243.3" y="10.4" width="10.5" height="0.8"/>
<rect x="245.1" y="9.1" width="0.5" height="21.4"/>
<g>
	<path d="M245.2,9.2c0-1.8,2.5-3.5,4.5-3.5c1.3,0,2.3,0.7,2.3,1.7c0,1.7-2.5,3.5-4.6,3.5C246.1,10.9,245.2,10.3,245.2,9.2z"/>
</g>
<g>
	<path d="M238,0h0.6l-0.1,6.2c0.4-0.7,1-1,1.8-1c1.2,0,2.2,0.8,2.2,1.9c0,0.8-0.5,1.8-1.7,2.7l-2.8,2.1V0z M238.6,6.9
		c-0.1,0.8-0.1,1.4-0.1,1.9c0,1,0,1.6,0.1,2c1-0.7,2.4-2.6,2.4-3.7c0-0.6-0.5-1.1-1.1-1.1C239.3,6.1,238.9,6.3,238.6,6.9z"/>
</g>
<rect x="261.4" y="10.4" width="10.5" height="0.8"/>
<rect x="261.4" y="5.4" width="10.5" height="0.8"/>
<rect x="263.2" y="6.6" width="0.5" height="18.9"/>
<g>
	<path d="M263.3,6.7c0-1.8,2.5-3.5,4.5-3.5c1.3,0,2.3,0.7,2.3,1.7c0,1.7-2.5,3.5-4.6,3.5C264.3,8.4,263.3,7.8,263.3,6.7z"/>
</g>
<rect x="279.6" y="10.4" width="10.5" height="0.8"/>
<rect x="281.4" y="9.1" width="0.5" height="18"/>
<g>
	<path d="M281.4,9.2c0-1.8,2.5-3.5,4.5-3.5c1.3,0,2.3,0.7,2.3,1.7c0,1.7-2.5,3.5-4.6,3.5C282.4,10.9,281.4,10.3,281.4,9.2z"/>
</g>
<rect x="297.7" y="10.4" width="10.5" height="0.8"/>
<rect x="299.5" y="11.6" width="0.5" height="17.2"/>
<g>
	<path d="M299.6,11.6c0-1.8,2.5-3.5,4.5-3.5c1.3,0,2.3,0.7,2.3,1.7c0,1.7-2.5,3.5-4.6,3.5C300.5,13.4,299.6,12.7,299.6,11.6z"/>
</g>
<rect x="317.8" y="14" width="0.5" height="16.4"/>
<g>
	<path d="M317.9,14.1c0-1.8,2.5-3.5,4.5-3.5c1.3,0,2.3,0.7,2.3,1.7c0,1.7-2.5,3.5-4.6,3.5C318.8,15.9,317.9,15.2,317.9,14.1z"/>
</g>
<rect x="344.1" y="19" width="0.5" height="16.4"/>
<g>
	<path d="M344.2,19.1c0-1.8,2.5-3.5,4.5-3.5c1.3,0,2.3,0.7,2.3,1.7c0,1.7-2.5,3.5-4.6,3.5C345.2,20.8,344.2,20.2,344.2,19.1z"/>
</g>
<rect x="362.3" y="21.5" width="0.5" height="15.5"/>
<g>
	<path d="M362.4,21.6c0-1.8,2.5-3.5,4.5-3.5c1.3,0,2.3,0.7,2.3,1.7c0,1.7-2.5,3.5-4.6,3.5C363.3,23.3,362.4,22.7,362.4,21.6z"/>
</g>
<rect x="380.4" y="24" width="0.5" height="14.7"/>
<g>
	<path d="M380.5,24c0-1.8,2.5-3.5,4.5-3.5c1.3,0,2.3,0.7,2.3,1.7c0,1.7-2.5,3.5-4.6,3.5C381.5,25.8,380.5,25.1,380.5,24z"/>
</g>
<rect x="398.6" y="26.4" width="0.5" height="14"/>
<g>
	<path d="M398.6,26.5c0-1.8,2.5-3.5,4.5-3.5c1.3,0,2.3,0.7,2.3,1.7c0,1.7-2.5,3.5-4.6,3.5C399.6,28.3,398.6,27.6,398.6,26.5z"/>
</g>
<rect x="423.4" y="10.9" width="0.5" height="16.4"/>
<g>
	<path d="M416.9,29c0-1.8,2.5-3.5,4.5-3.5c1.3,0,2.3,0.7,2.3,1.7c0,1.7-2.5,3.5-4.6,3.5C417.9,30.7,416.9,30.1,416.9,29z"/>
</g>
<rect x="441.5" y="12.5" width="0.5" height="17.4"/>
<g>
	<path d="M435.1,31.5c0-1.8,2.5-3.5,4.5-3.5c1.3,0,2.3,0.7,2.3,1.7c0,1.7-2.5,3.5-4.6,3.5C436,33.2,435.1,32.6,435.1,31.5z"/>
</g>
<rect x="459.6" y="14.2" width="0.5" height="20.6"/>
<g>
	<path d="M453.2,36.4c0-1.8,2.5-3.5,4.5-3.5c1.3,0,2.3,0.7,2.3,1.7c0,1.7-2.5,3.5-4.6,3.5C454.2,38.2,453.2,37.5,453.2,36.4z"/>
</g>
<rect x="477.8" y="15.9" width="0.5" height="21.4"/>
<g>
	<path d="M471.3,38.9c0-1.8,2.5-3.5,4.5-3.5c1.3,0,2.3,0.7,2.3,1.7c0,1.7-2.5,3.5-4.6,3.5C472.3,40.7,471.3,40,471.3,38.9z"/>
</g>
<rect x="487.8" y="40.2" width="10.7" height="0.8"/>
<rect x="496.2" y="23.2" width="0.5" height="16.6"/>
<g>
	<path d="M493.9,37.9c1.6,0,2.7,0.7,2.7,2c0,1.9-2.3,3.4-4.5,3.4c-1.3,0-2.4-0.7-2.4-1.8C489.6,39.6,491.9,37.9,493.9,37.9z
		 M490.1,41.7c0,0.6,0.4,0.9,1.1,0.9c1.4,0,4.9-2.1,4.9-3.3c0-0.6-0.4-0.9-1.1-0.9C493.8,38.5,490.1,40.5,490.1,41.7z"/>
</g>
<rect x="36.9" y="76.1" width="0.5" height="16.4"/>
<g>
	<path d="M37,76.1c0-1.8,2.5-3.5,4.5-3.5c1.3,0,2.3,0.7,2.3,1.7c0,1.7-2.5,3.5-4.6,3.5C38,77.9,37,77.2,37,76.1z"/>
</g>
<rect x="55" y="73.6" width="0.5" height="17.4"/>
<g>
	<path d="M55.1,73.6c0-1.8,2.5-3.5,4.5-3.5c1.3,0,2.3,0.7,2.3,1.7c0,1.7-2.5,3.5-4.6,3.5C56.1,75.4,55.1,74.7,55.1,73.6z"/>
</g>
<rect x="73.3" y="71.1" width="0.5" height="18.1"/>
<g>
	<path d="M73.4,71.2c0-1.8,2.5-3.5,4.5-3.5c1.3,0,2.3,0.7,2.3,1.7c0,1.7-2.5,3.5-4.6,3.5C74.4,72.9,73.4,72.3,73.4,71.2z"/>
</g>
<rect x="91.5" y="66.1" width="0.5" height="21.4"/>
<g>
	<path d="M91.5,66.2c0-1.8,2.5-3.5,4.5-3.5c1.3,0,2.3,0.7,2.3,1.7c0,1.7-2.5,3.5-4.6,3.5C92.5,67.9,91.5,67.3,91.5,66.2z"/>
</g>
<g>
	<path d="M85.7,57h0.6l-0.1,6.2c0.4-0.7,1-1,1.8-1c1.2,0,2.2,0.8,2.2,1.9c0,0.8-0.5,1.8-1.7,2.7L85.7,69V57z M86.2,63.9
		c-0.1,0.8-0.1,1.4-0.1,1.9c0,1,0,1.6,0.1,2c1-0.7,2.4-2.6,2.4-3.7c0-0.6-0.5-1.1-1.1-1.1C86.9,63.1,86.5,63.4,86.2,63.9z"/>
</g>
<rect x="109.6" y="63.6" width="0.5" height="14"/>
<g>
	<path d="M109.7,63.7c0-1.8,2.5-3.5,4.5-3.5c1.3,0,2.3,0.7,2.3,1.7c0,1.7-2.5,3.5-4.6,3.5C110.7,65.5,109.7,64.8,109.7,63.7z"/>
</g>
<g>
	<path d="M103.8,54.6h0.6l-0.1,6.2c0.4-0.7,1-1,1.8-1c1.2,0,2.2,0.8,2.2,1.9c0,0.8-0.5,1.8-1.7,2.7l-2.8,2.1V54.6z M104.4,61.5
		c-0.1,0.8-0.1,1.4-0.1,1.9c0,1,0,1.6,0.1,2c1-0.7,2.4-2.6,2.4-3.7c0-0.6-0.5-1.1-1.1-1.1C105.1,60.6,104.7,60.9,104.4,61.5z"/>
</g>
<rect x="127.7" y="61.2" width="0.5" height="14.9"/>
<g>
	<path d="M127.8,61.2c0-1.8,2.5-3.5,4.5-3.5c1.3,0,2.3,0.7,2.3,1.7c0,1.7-2.5,3.5-4.6,3.5C128.8,63,127.8,62.3,127.8,61.2z"/>
</g>
<g>
	<path d="M121.9,52.1h0.6l-0.1,6.2c0.4-0.7,1-1,1.8-1c1.2,0,2.2,0.8,2.2,1.9c0,0.8-0.5,1.8-1.7,2.7l-2.8,2.1V52.1z M122.5,59
		c-0.1,0.8-0.1,1.4-0.1,1.9c0,1,0,1.6,0.1,2c1-0.7,2.4-2.6,2.4-3.7c0-0.6-0.5-1.1-1.1-1.1C123.2,58.2,122.8,58.4,122.5,59z"/>
</g>
<rect x="144.3" y="57.5" width="10.5" height="0.8"/>
<rect x="146" y="58.7" width="0.5" height="15.7"/>
<g>
	<path d="M146.1,58.8c0-1.8,2.5-3.5,4.5-3.5c1.3,0,2.3,0.7,2.3,1.7c0,1.7-2.5,3.5-4.6,3.5C147.1,60.5,146.1,59.9,146.1,58.8z"/>
</g>
<rect x="162.4" y="57.5" width="10.5" height="0.8"/>
<rect x="164.2" y="56.2" width="0.5" height="16.4"/>
<g>
	<path d="M164.2,56.3c0-1.8,2.5-3.5,4.5-3.5c1.3,0,2.3,0.7,2.3,1.7c0,1.7-2.5,3.5-4.6,3.5C165.2,58,164.2,57.4,164.2,56.3z"/>
</g>
<rect x="197" y="63" width="0.5" height="18.9"/>
<g>
	<path d="M190.6,83.6c0-1.8,2.5-3.5,4.5-3.5c1.3,0,2.3,0.7,2.3,1.7c0,1.7-2.5,3.5-4.6,3.5C191.6,85.3,190.6,84.7,190.6,83.6z"/>
</g>
<rect x="215.2" y="61.5" width="0.5" height="15.5"/>
<g>
	<path d="M208.7,78.6c0-1.8,2.5-3.5,4.5-3.5c1.3,0,2.3,0.7,2.3,1.7c0,1.7-2.5,3.5-4.6,3.5C209.7,80.3,208.7,79.7,208.7,78.6z"/>
</g>
<g>
	<path d="M202.8,69.4h0.6l-0.1,6.2c0.4-0.7,1-1,1.8-1c1.2,0,2.2,0.8,2.2,1.9c0,0.8-0.5,1.8-1.7,2.7l-2.8,2.1V69.4z M203.4,76.3
		c-0.1,0.8-0.1,1.4-0.1,1.9c0,1,0,1.6,0.1,2c1-0.7,2.4-2.6,2.4-3.7c0-0.6-0.5-1.1-1.1-1.1C204.1,75.5,203.7,75.8,203.4,76.3z"/>
</g>
<rect x="233.3" y="59.8" width="0.5" height="14.7"/>
<g>
	<path d="M226.9,76.1c0-1.8,2.5-3.5,4.5-3.5c1.3,0,2.3,0.7,2.3,1.7c0,1.7-2.5,3.5-4.6,3.5C227.8,77.9,226.9,77.2,226.9,76.1z"/>
</g>
<g>
	<path d="M221,67h0.6l-0.1,6.2c0.4-0.7,1-1,1.8-1c1.2,0,2.2,0.8,2.2,1.9c0,0.8-0.5,1.8-1.7,2.7l-2.8,2.1V67z M221.6,73.9
		c-0.1,0.8-0.1,1.4-0.1,1.9c0,1,0,1.6,0.1,2c1-0.7,2.4-2.6,2.4-3.7c0-0.6-0.5-1.1-1.1-1.1C222.3,73,221.9,73.3,221.6,73.9z"/>
</g>
<rect x="251.6" y="58.1" width="0.5" height="14"/>
<g>
	<path d="M245.2,73.6c0-1.8,2.5-3.5,4.5-3.5c1.3,0,2.3,0.7,2.3,1.7c0,1.7-2.5,3.5-4.6,3.5C246.1,75.4,245.2,74.7,245.2,73.6z"/>
</g>
<g>
	<path d="M239.3,64.5h0.6l-0.1,6.2c0.4-0.7,1-1,1.8-1c1.2,0,2.2,0.8,2.2,1.9c0,0.8-0.5,1.8-1.7,2.7l-2.8,2.1V64.5z M239.9,71.4
		c-0.1,0.8-0.1,1.4-0.1,1.9c0,1,0,1.6,0.1,2c1-0.7,2.4-2.6,2.4-3.7c0-0.6-0.5-1.1-1.1-1.1C240.6,70.6,240.2,70.8,239.9,71.4z"/>
</g>
<rect x="269.7" y="53.1" width="0.5" height="16.4"/>
<g>
	<path d="M263.3,71.2c0-1.8,2.5-3.5,4.5-3.5c1.3,0,2.3,0.7,2.3,1.7c0,1.7-2.5,3.5-4.6,3.5C264.3,72.9,263.3,72.3,263.3,71.2z"/>
</g>
<rect x="287.9" y="54.7" width="0.5" height="17.4"/>
<g>
	<path d="M281.4,73.6c0-1.8,2.5-3.5,4.5-3.5c1.3,0,2.3,0.7,2.3,1.7c0,1.7-2.5,3.5-4.6,3.5C282.4,75.4,281.4,74.7,281.4,73.6z"/>
</g>
<rect x="306" y="56.4" width="0.5" height="18.1"/>
<g>
	<path d="M299.6,76.1c0-1.8,2.5-3.5,4.5-3.5c1.3,0,2.3,0.7,2.3,1.7c0,1.7-2.5,3.5-4.6,3.5C300.5,77.9,299.6,77.2,299.6,76.1z"/>
</g>
<rect x="324.3" y="58.1" width="0.5" height="18.9"/>
<g>
	<path d="M317.9,78.6c0-1.8,2.5-3.5,4.5-3.5c1.3,0,2.3,0.7,2.3,1.7c0,1.7-2.5,3.5-4.6,3.5C318.8,80.3,317.9,79.7,317.9,78.6z"/>
</g>
<rect x="342.4" y="57.5" width="10.5" height="0.8"/>
<rect x="342.4" y="52.6" width="10.5" height="0.8"/>
<rect x="344.1" y="53.7" width="0.5" height="18.9"/>
<g>
	<path d="M344.2,53.8c0-1.8,2.5-3.5,4.5-3.5c1.3,0,2.3,0.7,2.3,1.7c0,1.7-2.5,3.5-4.6,3.5C345.2,55.5,344.2,54.9,344.2,53.8z"/>
</g>
<rect x="360.5" y="57.5" width="10.5" height="0.8"/>
<rect x="362.3" y="56.2" width="0.5" height="18"/>
<g>
	<path d="M362.4,56.3c0-1.8,2.5-3.5,4.5-3.5c1.3,0,2.3,0.7,2.3,1.7c0,1.7-2.5,3.5-4.6,3.5C363.3,58,362.4,57.4,362.4,56.3z"/>
</g>
<rect x="378.6" y="57.5" width="10.5" height="0.8"/>
<rect x="380.4" y="58.7" width="0.5" height="17.2"/>
<g>
	<path d="M380.5,58.8c0-1.8,2.5-3.5,4.5-3.5c1.3,0,2.3,0.7,2.3,1.7c0,1.7-2.5,3.5-4.6,3.5C381.5,60.5,380.5,59.9,380.5,58.8z"/>
</g>
<rect x="398.6" y="61.2" width="0.5" height="16.4"/>
<g>
	<path d="M398.6,61.2c0-1.8,2.5-3.5,4.5-3.5c1.3,0,2.3,0.7,2.3,1.7c0,1.7-2.5,3.5-4.6,3.5C399.6,63,398.6,62.3,398.6,61.2z"/>
</g>
<rect x="416.8" y="63.6" width="0.5" height="18.9"/>
<g>
	<path d="M416.9,63.7c0-1.8,2.5-3.5,4.5-3.5c1.3,0,2.3,0.7,2.3,1.7c0,1.7-2.5,3.5-4.6,3.5C417.9,65.5,416.9,64.8,416.9,63.7z"/>
</g>
<rect x="435" y="66.1" width="0.5" height="18"/>
<g>
	<path d="M435.1,66.2c0-1.8,2.5-3.5,4.5-3.5c1.3,0,2.3,0.7,2.3,1.7c0,1.7-2.5,3.5-4.6,3.5C436,67.9,435.1,67.3,435.1,66.2z"/>
</g>
<rect x="453.1" y="71.1" width="0.5" height="14.7"/>
<g>
	<path d="M453.2,71.2c0-1.8,2.5-3.5,4.5-3.5c1.3,0,2.3,0.7,2.3,1.7c0,1.7-2.5,3.5-4.6,3.5C454.2,72.9,453.2,72.3,453.2,71.2z"/>
</g>
<rect x="471.3" y="73.6" width="0.5" height="14"/>
<g>
	<path d="M471.3,73.6c0-1.8,2.5-3.5,4.5-3.5c1.3,0,2.3,0.7,2.3,1.7c0,1.7-2.5,3.5-4.6,3.5C472.3,75.4,471.3,74.7,471.3,73.6z"/>
</g>
<rect x="496.2" y="57.9" width="0.5" height="16.6"/>
<g>
	<path d="M493.9,72.6c1.6,0,2.7,0.7,2.7,2c0,1.9-2.3,3.4-4.5,3.4c-1.3,0-2.4-0.7-2.4-1.8C489.6,74.4,491.9,72.6,493.9,72.6z
		 M490.1,76.4c0,0.6,0.4,0.9,1.1,0.9c1.4,0,4.9-2.1,4.9-3.3c0-0.6-0.4-0.9-1.1-0.9C493.8,73.2,490.1,75.2,490.1,76.4z"/>
</g>
</svg>
