<?xml version="1.0" encoding="utf-8"?>

<!--
	ScaleBook
	Copyright (c) Leland Jansen 2015. All rights reserved.
-->

<!DOCTYPE svg PUBLIC "-//W3C//DTD SVG 1.1//EN" "http://www.w3.org/Graphics/SVG/1.1/DTD/svg11.dtd">
<svg version="1.1" id="Layer_1" xmlns="http://www.w3.org/2000/svg" xmlns:xlink="http://www.w3.org/1999/xlink" x="0px" y="0px"
	 viewBox="0 0 552.9 97.6" enable-background="new 0 0 552.9 97.6" xml:space="preserve">
<rect x="8.4" y="20.7" width="0.8" height="67"/>
<g>
	<path d="M7.4,21.4c-1.9,1.1-3.6,5.8-3.6,9.4c0,2.3,1.4,9.9,1.4,12.3c0,5-1.5,8.6-4.6,11.1c3,2.4,4.6,6.1,4.6,11.1
		c0,2.3-1.4,9.9-1.4,12.3c0,3.8,1.7,8.4,3.6,9.5v0.7c-3.5-2.3-5.8-8.2-5.8-13.1c0-2.1,1.7-9.4,1.7-11.5c0-3.8-1-6.6-2.9-8.2
		C0.1,54.6,0,54.4,0,54.2c0-0.2,0.1-0.4,0.5-0.7c1.9-1.7,2.9-4.2,2.9-7.6c0-2.1-1.7-10-1.7-12.2c0-5.2,2.1-10.4,5.8-13.1V21.4z"/>
</g>
<rect x="547.8" y="20.7" width="0.8" height="67"/>
<rect x="550.4" y="20.7" width="2.5" height="67"/>
<rect x="8.5" y="40.3" width="544.4" height="0.5"/>
<rect x="8.5" y="35.4" width="544.4" height="0.5"/>
<rect x="8.5" y="30.4" width="544.4" height="0.5"/>
<rect x="8.5" y="25.4" width="544.4" height="0.5"/>
<rect x="8.5" y="20.5" width="544.4" height="0.5"/>
<g>
	<path d="M20.3,40.4c-4.2,0-8.1-3.1-8.1-6.9c0-3.2,2.3-6.7,6.8-10.5c-0.3-1.2-0.4-2.4-0.4-3.6c0-3.5,1.2-6.8,3.2-8.5
		c1.8,2.5,2.7,4.9,2.7,7.1c0,2.9-1.3,5.6-4.3,8.1l0.9,4.2c0.5,0,0.8-0.1,0.8-0.1c2.6,0,4.8,2,4.8,4.7c0,1.9-1.4,3.7-3.6,4.8
		c0-0.1,0.9,3.8,0.9,4.3c0,2.5-2.3,4.2-4.9,4.2c-2,0-3.6-1.3-3.6-3.4c0-1.4,1-2.6,2.4-2.6c1.3,0,2.3,1.3,2.3,2.5
		c0,1.4-1.2,2.3-2.7,2.5c0.6,0.3,1.2,0.5,1.9,0.5c2.1,0,4.1-1.6,4.1-3.6c0-0.2,0-0.4-0.1-0.6l-0.8-3.7
		C21.9,40.3,21.2,40.4,20.3,40.4z M18.1,35.2c0,1,0.5,1.9,1.6,2.5c-1.8-0.3-3-1.4-3-3.1c0-2,1.7-3.7,3.8-4.1l-0.8-4
		C16,29.3,14,32,14,34.6c0,2.9,2.8,5.3,6,5.3c0.9,0,1.7-0.2,2.4-0.5L21,32.6C19.4,32.8,18.1,33.8,18.1,35.2z M22.1,13.8
		c-1.6,0-2.9,3.7-2.9,7c0,0.7,0,1.3,0.2,1.9c2.7-2.4,4-4.5,4-6.5c0-0.9-0.3-1.7-1-2.4C22.4,13.9,22.3,13.8,22.1,13.8z M24.9,35.7
		c0-1.6-1.2-3.3-2.9-3.3c-0.1,0-0.2,0-0.5,0l1.4,6.6C24.2,38.2,24.9,37,24.9,35.7z"/>
</g>
<polygon fill-rule="evenodd" clip-rule="evenodd" points="43.6,31.9 98.2,26.9 98.2,24.4 43.6,29.4 "/>
<polygon fill-rule="evenodd" clip-rule="evenodd" points="43.6,28.2 98.2,23.2 98.2,20.7 43.6,25.7 "/>
<polygon fill-rule="evenodd" clip-rule="evenodd" points="109.8,46.8 164.4,41.8 164.4,39.3 109.8,44.3 "/>
<polygon fill-rule="evenodd" clip-rule="evenodd" points="109.8,50.5 164.4,45.5 164.4,43 109.8,48 "/>
<polygon fill-rule="evenodd" clip-rule="evenodd" points="190.8,31.9 245.3,26.9 245.3,24.4 190.8,29.4 "/>
<polygon fill-rule="evenodd" clip-rule="evenodd" points="190.8,35.6 245.3,30.6 245.3,28.2 190.8,33.1 "/>
<polygon fill-rule="evenodd" clip-rule="evenodd" points="263.5,26.9 318,31.9 318,29.4 263.5,24.4 "/>
<polygon fill-rule="evenodd" clip-rule="evenodd" points="263.5,30.6 318,35.6 318,33.1 263.5,28.2 "/>
<polygon fill-rule="evenodd" clip-rule="evenodd" points="344.4,36.8 398.8,41.8 398.8,39.3 344.4,34.4 "/>
<polygon fill-rule="evenodd" clip-rule="evenodd" points="344.4,40.6 398.8,45.5 398.8,43 344.4,38.1 "/>
<polygon fill-rule="evenodd" clip-rule="evenodd" points="423.6,22 478,26.9 478,24.4 423.6,19.5 "/>
<polygon fill-rule="evenodd" clip-rule="evenodd" points="423.6,18.2 478,23.2 478,20.7 423.6,15.8 "/>
<rect x="8.5" y="87.4" width="544.4" height="0.5"/>
<rect x="8.5" y="82.5" width="544.4" height="0.5"/>
<rect x="8.5" y="77.5" width="544.4" height="0.5"/>
<rect x="8.5" y="72.6" width="544.4" height="0.5"/>
<rect x="8.5" y="67.6" width="544.4" height="0.5"/>
<g>
	<path d="M15.7,82c2.9-2.6,4.7-6.1,4.7-9.2c0-2.5-1.4-4.4-3.7-4.4c-1.6,0-3.4,1.3-3.4,2.7c0,0.2,0,0.3,0.1,0.3
		c-0.1,0,0.6-0.6,1.4-0.6c0.9,0,1.5,0.8,1.5,1.7c0,1.2-0.9,2.2-2.1,2.2c-1.2,0-2.1-1.3-2.1-2.8c0-2.3,2.3-4.1,4.8-4.1
		c4.7,0,5.9,3.2,5.9,5.8c0,1.6-0.4,2.9-2,5.3c-1.9,3.1-6.4,5.3-8.1,5.3c-0.4,0-0.6-0.2-0.6-0.5C13.8,83.3,14.9,82.7,15.7,82z
		 M25.7,69.3c0.6,0,1,0.4,1,1c0,0.6-0.4,1-1,1s-1-0.4-1-1C24.7,69.8,25.1,69.3,25.7,69.3z M25.7,74.3c0.6,0,1,0.4,1,1
		c0,0.6-0.4,1-1,1s-1-0.4-1-1C24.7,74.7,25.1,74.3,25.7,74.3z"/>
</g>
<polygon fill-rule="evenodd" clip-rule="evenodd" points="37.1,88.9 91.7,84 91.7,81.5 37.1,86.4 "/>
<polygon fill-rule="evenodd" clip-rule="evenodd" points="37.1,92.6 91.7,87.7 91.7,85.2 37.1,90.2 "/>
<g>
	<path d="M184.6,86.3c-3.2,0-6.1-2.3-6.1-5.1c0-2.4,1.7-5,5.1-7.9c-0.2-0.9-0.3-1.8-0.3-2.7c0-2.6,0.9-5.1,2.4-6.3
		c1.4,1.9,2,3.7,2,5.3c0,2.2-1,4.2-3.2,6.1l0.7,3.1c0.4,0,0.6,0,0.6,0c2,0,3.6,1.5,3.6,3.5c0,1.4-1.1,2.8-2.7,3.6
		c0-0.1,0.6,2.8,0.6,3.3c0,1.9-1.7,3.2-3.7,3.2c-1.5,0-2.7-1-2.7-2.5c0-1.1,0.7-1.9,1.8-1.9c1,0,1.7,1,1.7,1.9c0,1-0.9,1.7-2,1.8
		c0.4,0.2,0.9,0.3,1.4,0.3c1.6,0,3.1-1.2,3.1-2.7c0-0.1,0-0.3,0-0.5l-0.6-2.8C185.8,86.2,185.3,86.3,184.6,86.3z M182.9,82.4
		c0,0.8,0.4,1.4,1.2,1.9c-1.3-0.2-2.2-1.1-2.2-2.3c0-1.5,1.3-2.8,2.9-3.1l-0.6-3c-2.8,2.1-4.3,4.1-4.3,6.1c0,2.2,2.1,4,4.5,4
		c0.7,0,1.3-0.1,1.8-0.4l-1.1-5.1C183.9,80.6,182.9,81.4,182.9,82.4z M186,66.4c-1.2,0-2.2,2.8-2.2,5.3c0,0.5,0,1,0.1,1.4
		c2-1.8,3-3.4,3-4.9c0-0.7-0.3-1.3-0.7-1.8C186.2,66.4,186.1,66.4,186,66.4z M188,82.8c0-1.2-0.9-2.4-2.2-2.4c0,0-0.2,0-0.4,0l1.1,5
		C187.5,84.6,188,83.8,188,82.8z"/>
</g>
<polygon fill-rule="evenodd" clip-rule="evenodd" points="109.8,79 164.4,74 164.4,71.6 109.8,76.5 "/>
<polygon fill-rule="evenodd" clip-rule="evenodd" points="109.8,82.7 164.4,77.8 164.4,75.3 109.8,80.2 "/>
<polygon fill-rule="evenodd" clip-rule="evenodd" points="197.3,72.8 251.8,67.8 251.8,65.4 197.3,70.3 "/>
<polygon fill-rule="evenodd" clip-rule="evenodd" points="197.3,69.1 251.8,64.1 251.8,61.6 197.3,66.6 "/>
<g>
	<path d="M332.9,79.7c2.2-2,3.6-4.6,3.6-6.9c0-1.9-1.1-3.3-2.8-3.3c-1.2,0-2.5,1-2.5,2.1c0,0.2,0,0.2,0.1,0.2c0,0,0.4-0.5,1-0.5
		c0.7,0,1.2,0.6,1.2,1.3c0,0.9-0.6,1.7-1.6,1.7s-1.5-1-1.5-2.1c0-1.8,1.7-3.1,3.6-3.1c3.5,0,4.4,2.4,4.4,4.4c0,1.2-0.3,2.2-1.5,4
		c-1.4,2.3-4.8,4-6,4c-0.3,0-0.5-0.1-0.5-0.3C331.5,80.7,332.3,80.2,332.9,79.7z M340.4,70.2c0.4,0,0.7,0.3,0.7,0.7
		c0,0.4-0.3,0.7-0.7,0.7c-0.4,0-0.7-0.3-0.7-0.7C339.6,70.5,340,70.2,340.4,70.2z M340.4,73.9c0.4,0,0.7,0.3,0.7,0.7
		s-0.3,0.7-0.7,0.7c-0.4,0-0.7-0.3-0.7-0.7S340,73.9,340.4,73.9z"/>
</g>
<polygon fill-rule="evenodd" clip-rule="evenodd" points="263.5,88.9 318,93.9 318,91.4 263.5,86.4 "/>
<polygon fill-rule="evenodd" clip-rule="evenodd" points="263.5,92.6 318,97.6 318,95.1 263.5,90.2 "/>
<polygon fill-rule="evenodd" clip-rule="evenodd" points="344.4,74 398.8,79 398.8,76.5 344.4,71.6 "/>
<polygon fill-rule="evenodd" clip-rule="evenodd" points="344.4,77.8 398.8,82.7 398.8,80.2 344.4,75.3 "/>
<polygon fill-rule="evenodd" clip-rule="evenodd" points="417.1,84 471.5,88.9 471.5,86.4 417.1,81.5 "/>
<polygon fill-rule="evenodd" clip-rule="evenodd" points="417.1,87.7 471.5,92.6 471.5,90.2 417.1,85.2 "/>
<rect x="43.4" y="25.8" width="0.5" height="16.4"/>
<g>
	<path d="M37,43.9c0-1.8,2.5-3.5,4.5-3.5c1.3,0,2.3,0.7,2.3,1.7c0,1.7-2.5,3.5-4.6,3.5C38,45.6,37,45,37,43.9z"/>
</g>
<g>
	<path d="M31.1,34.7h0.6L31.6,41c0.4-0.7,1-1,1.8-1c1.2,0,2.2,0.8,2.2,1.9c0,0.8-0.5,1.8-1.7,2.7l-2.8,2.1V34.7z M31.7,41.6
		c-0.1,0.8-0.1,1.4-0.1,1.9c0,1,0,1.6,0.1,2c1-0.7,2.4-2.6,2.4-3.7c0-0.6-0.5-1.1-1.1-1.1C32.4,40.8,32,41.1,31.7,41.6z"/>
</g>
<rect x="61.6" y="24.3" width="0.5" height="15.5"/>
<g>
	<path d="M55.1,41.4c0-1.8,2.5-3.5,4.5-3.5c1.3,0,2.3,0.7,2.3,1.7c0,1.7-2.5,3.5-4.6,3.5C56.1,43.1,55.1,42.5,55.1,41.4z"/>
</g>
<g>
	<path d="M49.2,32.2h0.6l-0.1,6.2c0.4-0.7,1-1,1.8-1c1.2,0,2.2,0.8,2.2,1.9c0,0.8-0.5,1.8-1.7,2.7l-2.8,2.1V32.2z M49.8,39.1
		c-0.1,0.8-0.1,1.4-0.1,1.9c0,1,0,1.6,0.1,2c1-0.7,2.4-2.6,2.4-3.7c0-0.6-0.5-1.1-1.1-1.1C50.5,38.3,50.1,38.6,49.8,39.1z"/>
</g>
<rect x="79.8" y="22.6" width="0.5" height="14.7"/>
<g>
	<path d="M73.4,38.9c0-1.8,2.5-3.5,4.5-3.5c1.3,0,2.3,0.7,2.3,1.7c0,1.7-2.5,3.5-4.6,3.5C74.4,40.7,73.4,40,73.4,38.9z"/>
</g>
<rect x="98" y="20.9" width="0.5" height="14"/>
<g>
	<path d="M91.5,36.4c0-1.8,2.5-3.5,4.5-3.5c1.3,0,2.3,0.7,2.3,1.7c0,1.7-2.5,3.5-4.6,3.5C92.5,38.2,91.5,37.5,91.5,36.4z"/>
</g>
<rect x="109.6" y="33.9" width="0.5" height="16.4"/>
<g>
	<path d="M109.7,34c0-1.8,2.5-3.5,4.5-3.5c1.3,0,2.3,0.7,2.3,1.7c0,1.7-2.5,3.5-4.6,3.5C110.7,35.7,109.7,35.1,109.7,34z"/>
</g>
<rect x="127.7" y="31.4" width="0.5" height="17.4"/>
<g>
	<path d="M127.8,31.5c0-1.8,2.5-3.5,4.5-3.5c1.3,0,2.3,0.7,2.3,1.7c0,1.7-2.5,3.5-4.6,3.5C128.8,33.2,127.8,32.6,127.8,31.5z"/>
</g>
<rect x="146" y="26.4" width="0.5" height="20.6"/>
<g>
	<path d="M146.1,26.5c0-1.8,2.5-3.5,4.5-3.5c1.3,0,2.3,0.7,2.3,1.7c0,1.7-2.5,3.5-4.6,3.5C147.1,28.3,146.1,27.6,146.1,26.5z"/>
</g>
<g>
	<path d="M140.2,17.4h0.6l-0.1,6.2c0.4-0.7,1-1,1.8-1c1.2,0,2.2,0.8,2.2,1.9c0,0.8-0.5,1.8-1.7,2.7l-2.8,2.1V17.4z M140.8,24.3
		c-0.1,0.8-0.1,1.4-0.1,1.9c0,1,0,1.6,0.1,2c1-0.7,2.4-2.6,2.4-3.7c0-0.6-0.5-1.1-1.1-1.1C141.5,23.4,141.1,23.7,140.8,24.3z"/>
</g>
<rect x="164.2" y="24" width="0.5" height="21.4"/>
<g>
	<path d="M164.2,24c0-1.8,2.5-3.5,4.5-3.5c1.3,0,2.3,0.7,2.3,1.7c0,1.7-2.5,3.5-4.6,3.5C165.2,25.8,164.2,25.1,164.2,24z"/>
</g>
<g>
	<path d="M158.4,14.9h0.6l-0.1,6.2c0.4-0.7,1-1,1.8-1c1.2,0,2.2,0.8,2.2,1.9c0,0.8-0.5,1.8-1.7,2.7l-2.8,2.1V14.9z M158.9,21.8
		c-0.1,0.8-0.1,1.4-0.1,1.9c0,1,0,1.6,0.1,2c1-0.7,2.4-2.6,2.4-3.7c0-0.6-0.5-1.1-1.1-1.1C159.6,21,159.2,21.2,158.9,21.8z"/>
</g>
<rect x="190.5" y="21.5" width="0.5" height="14"/>
<g>
	<path d="M190.6,21.6c0-1.8,2.5-3.5,4.5-3.5c1.3,0,2.3,0.7,2.3,1.7c0,1.7-2.5,3.5-4.6,3.5C191.6,23.3,190.6,22.7,190.6,21.6z"/>
</g>
<rect x="208.7" y="19" width="0.5" height="14.9"/>
<g>
	<path d="M208.7,19.1c0-1.8,2.5-3.5,4.5-3.5c1.3,0,2.3,0.7,2.3,1.7c0,1.7-2.5,3.5-4.6,3.5C209.7,20.8,208.7,20.2,208.7,19.1z"/>
</g>
<rect x="225" y="15.4" width="10.5" height="0.8"/>
<rect x="226.8" y="16.5" width="0.5" height="15.7"/>
<g>
	<path d="M226.9,16.6c0-1.8,2.5-3.5,4.5-3.5c1.3,0,2.3,0.7,2.3,1.7c0,1.7-2.5,3.5-4.6,3.5C227.8,18.3,226.9,17.7,226.9,16.6z"/>
</g>
<rect x="243.3" y="15.4" width="10.5" height="0.8"/>
<rect x="243.3" y="10.4" width="10.5" height="0.8"/>
<rect x="245.1" y="11.6" width="0.5" height="18.9"/>
<g>
	<path d="M245.2,11.6c0-1.8,2.5-3.5,4.5-3.5c1.3,0,2.3,0.7,2.3,1.7c0,1.7-2.5,3.5-4.6,3.5C246.1,13.4,245.2,12.7,245.2,11.6z"/>
</g>
<g>
	<path d="M238,2.5h0.6l-0.1,6.2c0.4-0.7,1-1,1.8-1c1.2,0,2.2,0.8,2.2,1.9c0,0.8-0.5,1.8-1.7,2.7l-2.8,2.1V2.5z M238.6,9.4
		c-0.1,0.8-0.1,1.4-0.1,1.9c0,1,0,1.6,0.1,2c1-0.7,2.4-2.6,2.4-3.7c0-0.6-0.5-1.1-1.1-1.1C239.3,8.5,238.9,8.8,238.6,9.4z"/>
</g>
<rect x="261.4" y="15.4" width="10.5" height="0.8"/>
<rect x="261.4" y="10.4" width="10.5" height="0.8"/>
<rect x="263.2" y="9.1" width="0.5" height="21.4"/>
<g>
	<path d="M263.3,9.2c0-1.8,2.5-3.5,4.5-3.5c1.3,0,2.3,0.7,2.3,1.7c0,1.7-2.5,3.5-4.6,3.5C264.3,10.9,263.3,10.3,263.3,9.2z"/>
</g>
<g>
	<path d="M256.2,0h0.6l-0.1,6.2c0.4-0.7,1-1,1.8-1c1.2,0,2.2,0.8,2.2,1.9c0,0.8-0.5,1.8-1.7,2.7l-2.8,2.1V0z M256.7,6.9
		c-0.1,0.8-0.1,1.4-0.1,1.9c0,1,0,1.6,0.1,2c1-0.7,2.4-2.6,2.4-3.7c0-0.6-0.5-1.1-1.1-1.1C257.5,6.1,257,6.3,256.7,6.9z"/>
</g>
<rect x="279.6" y="15.4" width="10.5" height="0.8"/>
<rect x="279.6" y="10.4" width="10.5" height="0.8"/>
<rect x="281.4" y="11.6" width="0.5" height="20.5"/>
<g>
	<path d="M281.4,11.6c0-1.8,2.5-3.5,4.5-3.5c1.3,0,2.3,0.7,2.3,1.7c0,1.7-2.5,3.5-4.6,3.5C282.4,13.4,281.4,12.7,281.4,11.6z"/>
</g>
<rect x="297.7" y="15.4" width="10.5" height="0.8"/>
<rect x="299.5" y="16.5" width="0.5" height="17.2"/>
<g>
	<path d="M299.6,16.6c0-1.8,2.5-3.5,4.5-3.5c1.3,0,2.3,0.7,2.3,1.7c0,1.7-2.5,3.5-4.6,3.5C300.5,18.3,299.6,17.7,299.6,16.6z"/>
</g>
<rect x="317.8" y="19" width="0.5" height="16.4"/>
<g>
	<path d="M317.9,19.1c0-1.8,2.5-3.5,4.5-3.5c1.3,0,2.3,0.7,2.3,1.7c0,1.7-2.5,3.5-4.6,3.5C318.8,20.8,317.9,20.2,317.9,19.1z"/>
</g>
<rect x="344.1" y="21.5" width="0.5" height="18.9"/>
<g>
	<path d="M344.2,21.6c0-1.8,2.5-3.5,4.5-3.5c1.3,0,2.3,0.7,2.3,1.7c0,1.7-2.5,3.5-4.6,3.5C345.2,23.3,344.2,22.7,344.2,21.6z"/>
</g>
<rect x="362.3" y="24" width="0.5" height="18"/>
<g>
	<path d="M362.4,24c0-1.8,2.5-3.5,4.5-3.5c1.3,0,2.3,0.7,2.3,1.7c0,1.7-2.5,3.5-4.6,3.5C363.3,25.8,362.4,25.1,362.4,24z"/>
</g>
<rect x="380.4" y="26.4" width="0.5" height="17.2"/>
<g>
	<path d="M380.5,26.5c0-1.8,2.5-3.5,4.5-3.5c1.3,0,2.3,0.7,2.3,1.7c0,1.7-2.5,3.5-4.6,3.5C381.5,28.3,380.5,27.6,380.5,26.5z"/>
</g>
<rect x="398.6" y="31.4" width="0.5" height="14"/>
<g>
	<path d="M398.6,31.5c0-1.8,2.5-3.5,4.5-3.5c1.3,0,2.3,0.7,2.3,1.7c0,1.7-2.5,3.5-4.6,3.5C399.6,33.2,398.6,32.6,398.6,31.5z"/>
</g>
<rect x="423.4" y="15.9" width="0.5" height="16.4"/>
<g>
	<path d="M416.9,34c0-1.8,2.5-3.5,4.5-3.5c1.3,0,2.3,0.7,2.3,1.7c0,1.7-2.5,3.5-4.6,3.5C417.9,35.7,416.9,35.1,416.9,34z"/>
</g>
<rect x="441.5" y="17.5" width="0.5" height="17.4"/>
<g>
	<path d="M435.1,36.4c0-1.8,2.5-3.5,4.5-3.5c1.3,0,2.3,0.7,2.3,1.7c0,1.7-2.5,3.5-4.6,3.5C436,38.2,435.1,37.5,435.1,36.4z"/>
</g>
<rect x="459.6" y="19.2" width="0.5" height="18.1"/>
<g>
	<path d="M453.2,38.9c0-1.8,2.5-3.5,4.5-3.5c1.3,0,2.3,0.7,2.3,1.7c0,1.7-2.5,3.5-4.6,3.5C454.2,40.7,453.2,40,453.2,38.9z"/>
</g>
<rect x="477.8" y="20.9" width="0.5" height="18.9"/>
<g>
	<path d="M471.3,41.4c0-1.8,2.5-3.5,4.5-3.5c1.3,0,2.3,0.7,2.3,1.7c0,1.7-2.5,3.5-4.6,3.5C472.3,43.1,471.3,42.5,471.3,41.4z"/>
</g>
<rect x="496.2" y="25.7" width="0.5" height="16.6"/>
<g>
	<path d="M493.9,40.3c1.6,0,2.7,0.7,2.7,2c0,1.9-2.3,3.4-4.5,3.4c-1.3,0-2.4-0.7-2.4-1.8C489.6,42.1,491.9,40.3,493.9,40.3z
		 M490.1,44.2c0,0.6,0.4,0.9,1.1,0.9c1.4,0,4.9-2.1,4.9-3.3c0-0.6-0.4-0.9-1.1-0.9C493.8,40.9,490.1,43,490.1,44.2z"/>
</g>
<rect x="36.9" y="78.5" width="0.5" height="14"/>
<g>
	<path d="M37,78.6c0-1.8,2.5-3.5,4.5-3.5c1.3,0,2.3,0.7,2.3,1.7c0,1.7-2.5,3.5-4.6,3.5C38,80.3,37,79.7,37,78.6z"/>
</g>
<g>
	<path d="M31.1,69.4h0.6l-0.1,6.2c0.4-0.7,1-1,1.8-1c1.2,0,2.2,0.8,2.2,1.9c0,0.8-0.5,1.8-1.7,2.7l-2.8,2.1V69.4z M31.7,76.3
		c-0.1,0.8-0.1,1.4-0.1,1.9c0,1,0,1.6,0.1,2c1-0.7,2.4-2.6,2.4-3.7c0-0.6-0.5-1.1-1.1-1.1C32.4,75.5,32,75.8,31.7,76.3z"/>
</g>
<rect x="55" y="76.1" width="0.5" height="14.9"/>
<g>
	<path d="M55.1,76.1c0-1.8,2.5-3.5,4.5-3.5c1.3,0,2.3,0.7,2.3,1.7c0,1.7-2.5,3.5-4.6,3.5C56.1,77.9,55.1,77.2,55.1,76.1z"/>
</g>
<g>
	<path d="M49.2,67h0.6l-0.1,6.2c0.4-0.7,1-1,1.8-1c1.2,0,2.2,0.8,2.2,1.9c0,0.8-0.5,1.8-1.7,2.7l-2.8,2.1V67z M49.8,73.9
		c-0.1,0.8-0.1,1.4-0.1,1.9c0,1,0,1.6,0.1,2c1-0.7,2.4-2.6,2.4-3.7c0-0.6-0.5-1.1-1.1-1.1C50.5,73,50.1,73.3,49.8,73.9z"/>
</g>
<rect x="73.3" y="73.6" width="0.5" height="15.7"/>
<g>
	<path d="M73.4,73.6c0-1.8,2.5-3.5,4.5-3.5c1.3,0,2.3,0.7,2.3,1.7c0,1.7-2.5,3.5-4.6,3.5C74.4,75.4,73.4,74.7,73.4,73.6z"/>
</g>
<rect x="91.5" y="71.1" width="0.5" height="16.4"/>
<g>
	<path d="M91.5,71.2c0-1.8,2.5-3.5,4.5-3.5c1.3,0,2.3,0.7,2.3,1.7c0,1.7-2.5,3.5-4.6,3.5C92.5,72.9,91.5,72.3,91.5,71.2z"/>
</g>
<rect x="109.6" y="68.6" width="0.5" height="14"/>
<g>
	<path d="M109.7,68.7c0-1.8,2.5-3.5,4.5-3.5c1.3,0,2.3,0.7,2.3,1.7c0,1.7-2.5,3.5-4.6,3.5C110.7,70.4,109.7,69.8,109.7,68.7z"/>
</g>
<rect x="127.7" y="66.1" width="0.5" height="14.9"/>
<g>
	<path d="M127.8,66.2c0-1.8,2.5-3.5,4.5-3.5c1.3,0,2.3,0.7,2.3,1.7c0,1.7-2.5,3.5-4.6,3.5C128.8,67.9,127.8,67.3,127.8,66.2z"/>
</g>
<rect x="144.3" y="62.5" width="10.5" height="0.8"/>
<rect x="146" y="61.2" width="0.5" height="18.1"/>
<g>
	<path d="M146.1,61.2c0-1.8,2.5-3.5,4.5-3.5c1.3,0,2.3,0.7,2.3,1.7c0,1.7-2.5,3.5-4.6,3.5C147.1,63,146.1,62.3,146.1,61.2z"/>
</g>
<g>
	<path d="M139,52.1h0.6l-0.1,6.2c0.4-0.7,1-1,1.8-1c1.2,0,2.2,0.8,2.2,1.9c0,0.8-0.5,1.8-1.7,2.7L139,64V52.1z M139.6,59
		c-0.1,0.8-0.1,1.4-0.1,1.9c0,1,0,1.6,0.1,2c1-0.7,2.4-2.6,2.4-3.7c0-0.6-0.5-1.1-1.1-1.1C140.3,58.2,139.9,58.4,139.6,59z"/>
</g>
<rect x="162.4" y="62.5" width="10.5" height="0.8"/>
<rect x="162.4" y="57.5" width="10.5" height="0.8"/>
<rect x="164.2" y="58.7" width="0.5" height="18.9"/>
<g>
	<path d="M164.2,58.8c0-1.8,2.5-3.5,4.5-3.5c1.3,0,2.3,0.7,2.3,1.7c0,1.7-2.5,3.5-4.6,3.5C165.2,60.5,164.2,59.9,164.2,58.8z"/>
</g>
<g>
	<path d="M157.1,49.6h0.6l-0.1,6.2c0.4-0.7,1-1,1.8-1c1.2,0,2.2,0.8,2.2,1.9c0,0.8-0.5,1.8-1.7,2.7l-2.8,2.1V49.6z M157.7,56.5
		c-0.1,0.8-0.1,1.4-0.1,1.9c0,1,0,1.6,0.1,2c1-0.7,2.4-2.6,2.4-3.7c0-0.6-0.5-1.1-1.1-1.1C158.4,55.7,158,56,157.7,56.5z"/>
</g>
<rect x="197" y="66.8" width="0.5" height="17.7"/>
<g>
	<path d="M190.6,86c0-1.8,2.5-3.5,4.5-3.5c1.3,0,2.3,0.7,2.3,1.7c0,1.7-2.5,3.5-4.6,3.5C191.6,87.8,190.6,87.1,190.6,86z"/>
</g>
<rect x="215.2" y="65.2" width="0.5" height="16.7"/>
<g>
	<path d="M208.7,83.6c0-1.8,2.5-3.5,4.5-3.5c1.3,0,2.3,0.7,2.3,1.7c0,1.7-2.5,3.5-4.6,3.5C209.7,85.3,208.7,84.7,208.7,83.6z"/>
</g>
<rect x="233.3" y="63.5" width="0.5" height="16"/>
<g>
	<path d="M226.9,81.1c0-1.8,2.5-3.5,4.5-3.5c1.3,0,2.3,0.7,2.3,1.7c0,1.7-2.5,3.5-4.6,3.5C227.8,82.8,226.9,82.2,226.9,81.1z"/>
</g>
<rect x="251.6" y="61.8" width="0.5" height="12.7"/>
<g>
	<path d="M245.2,76.1c0-1.8,2.5-3.5,4.5-3.5c1.3,0,2.3,0.7,2.3,1.7c0,1.7-2.5,3.5-4.6,3.5C246.1,77.9,245.2,77.2,245.2,76.1z"/>
</g>
<g>
	<path d="M239.3,67h0.6l-0.1,6.2c0.4-0.7,1-1,1.8-1c1.2,0,2.2,0.8,2.2,1.9c0,0.8-0.5,1.8-1.7,2.7l-2.8,2.1V67z M239.9,73.9
		c-0.1,0.8-0.1,1.4-0.1,1.9c0,1,0,1.6,0.1,2c1-0.7,2.4-2.6,2.4-3.7c0-0.6-0.5-1.1-1.1-1.1C240.6,73,240.2,73.3,239.9,73.9z"/>
</g>
<rect x="263.2" y="73.6" width="0.5" height="18.9"/>
<g>
	<path d="M263.3,73.6c0-1.8,2.5-3.5,4.5-3.5c1.3,0,2.3,0.7,2.3,1.7c0,1.7-2.5,3.5-4.6,3.5C264.3,75.4,263.3,74.7,263.3,73.6z"/>
</g>
<g>
	<path d="M257.4,64.5h0.6l-0.1,6.2c0.4-0.7,1-1,1.8-1c1.2,0,2.2,0.8,2.2,1.9c0,0.8-0.5,1.8-1.7,2.7l-2.8,2.1V64.5z M258,71.4
		c-0.1,0.8-0.1,1.4-0.1,1.9c0,1,0,1.6,0.1,2c1-0.7,2.4-2.6,2.4-3.7c0-0.6-0.5-1.1-1.1-1.1C258.7,70.6,258.3,70.8,258,71.4z"/>
</g>
<rect x="281.4" y="76.1" width="0.5" height="18"/>
<g>
	<path d="M281.4,76.1c0-1.8,2.5-3.5,4.5-3.5c1.3,0,2.3,0.7,2.3,1.7c0,1.7-2.5,3.5-4.6,3.5C282.4,77.9,281.4,77.2,281.4,76.1z"/>
</g>
<rect x="299.5" y="81" width="0.5" height="14.7"/>
<g>
	<path d="M299.6,81.1c0-1.8,2.5-3.5,4.5-3.5c1.3,0,2.3,0.7,2.3,1.7c0,1.7-2.5,3.5-4.6,3.5C300.5,82.8,299.6,82.2,299.6,81.1z"/>
</g>
<rect x="317.8" y="83.5" width="0.5" height="14"/>
<g>
	<path d="M317.9,83.6c0-1.8,2.5-3.5,4.5-3.5c1.3,0,2.3,0.7,2.3,1.7c0,1.7-2.5,3.5-4.6,3.5C318.8,85.3,317.9,84.7,317.9,83.6z"/>
</g>
<rect x="342.4" y="62.5" width="10.5" height="0.8"/>
<rect x="342.4" y="57.5" width="10.5" height="0.8"/>
<rect x="344.1" y="56.2" width="0.5" height="21.4"/>
<g>
	<path d="M344.2,56.3c0-1.8,2.5-3.5,4.5-3.5c1.3,0,2.3,0.7,2.3,1.7c0,1.7-2.5,3.5-4.6,3.5C345.2,58,344.2,57.4,344.2,56.3z"/>
</g>
<rect x="360.5" y="62.5" width="10.5" height="0.8"/>
<rect x="360.5" y="57.5" width="10.5" height="0.8"/>
<rect x="362.3" y="58.7" width="0.5" height="20.5"/>
<g>
	<path d="M362.4,58.8c0-1.8,2.5-3.5,4.5-3.5c1.3,0,2.3,0.7,2.3,1.7c0,1.7-2.5,3.5-4.6,3.5C363.3,60.5,362.4,59.9,362.4,58.8z"/>
</g>
<g>
	<path d="M355.2,49.6h0.6l-0.1,6.2c0.4-0.7,1-1,1.8-1c1.2,0,2.2,0.8,2.2,1.9c0,0.8-0.5,1.8-1.7,2.7l-2.8,2.1V49.6z M355.8,56.5
		c-0.1,0.8-0.1,1.4-0.1,1.9c0,1,0,1.6,0.1,2c1-0.7,2.4-2.6,2.4-3.7c0-0.6-0.5-1.1-1.1-1.1C356.5,55.7,356.1,56,355.8,56.5z"/>
</g>
<rect x="378.6" y="62.5" width="10.5" height="0.8"/>
<rect x="380.4" y="61.2" width="0.5" height="19.7"/>
<g>
	<path d="M380.5,61.2c0-1.8,2.5-3.5,4.5-3.5c1.3,0,2.3,0.7,2.3,1.7c0,1.7-2.5,3.5-4.6,3.5C381.5,63,380.5,62.3,380.5,61.2z"/>
</g>
<rect x="398.6" y="66.1" width="0.5" height="16.4"/>
<g>
	<path d="M398.6,66.2c0-1.8,2.5-3.5,4.5-3.5c1.3,0,2.3,0.7,2.3,1.7c0,1.7-2.5,3.5-4.6,3.5C399.6,67.9,398.6,67.3,398.6,66.2z"/>
</g>
<rect x="416.8" y="68.6" width="0.5" height="18.9"/>
<g>
	<path d="M416.9,68.7c0-1.8,2.5-3.5,4.5-3.5c1.3,0,2.3,0.7,2.3,1.7c0,1.7-2.5,3.5-4.6,3.5C417.9,70.4,416.9,69.8,416.9,68.7z"/>
</g>
<rect x="435" y="71.1" width="0.5" height="18"/>
<g>
	<path d="M435.1,71.2c0-1.8,2.5-3.5,4.5-3.5c1.3,0,2.3,0.7,2.3,1.7c0,1.7-2.5,3.5-4.6,3.5C436,72.9,435.1,72.3,435.1,71.2z"/>
</g>
<rect x="453.1" y="73.6" width="0.5" height="17.2"/>
<g>
	<path d="M453.2,73.6c0-1.8,2.5-3.5,4.5-3.5c1.3,0,2.3,0.7,2.3,1.7c0,1.7-2.5,3.5-4.6,3.5C454.2,75.4,453.2,74.7,453.2,73.6z"/>
</g>
<rect x="471.3" y="76.1" width="0.5" height="16.4"/>
<g>
	<path d="M471.3,76.1c0-1.8,2.5-3.5,4.5-3.5c1.3,0,2.3,0.7,2.3,1.7c0,1.7-2.5,3.5-4.6,3.5C472.3,77.9,471.3,77.2,471.3,76.1z"/>
</g>
<rect x="489.5" y="78.5" width="0.5" height="16.6"/>
<g>
	<path d="M493.9,75.1c1.6,0,2.7,0.7,2.7,2c0,1.9-2.3,3.4-4.5,3.4c-1.3,0-2.4-0.7-2.4-1.8C489.6,76.8,491.9,75.1,493.9,75.1z
		 M490.1,78.9c0,0.6,0.4,0.9,1.1,0.9c1.4,0,4.9-2.1,4.9-3.3c0-0.6-0.4-0.9-1.1-0.9C493.8,75.7,490.1,77.7,490.1,78.9z"/>
</g>
</svg>
