<?xml version="1.0" encoding="utf-8"?>

<!--
	ScaleBook
	Copyright (c) Leland Jansen 2015. All rights reserved.
-->

<!DOCTYPE svg PUBLIC "-//W3C//DTD SVG 1.1//EN" "http://www.w3.org/Graphics/SVG/1.1/DTD/svg11.dtd">
<svg version="1.1" id="Layer_1" xmlns="http://www.w3.org/2000/svg" xmlns:xlink="http://www.w3.org/1999/xlink" x="0px" y="0px"
	 viewBox="0 0 552.9 94.4" enable-background="new 0 0 552.9 94.4" xml:space="preserve">
<rect x="8.4" y="17.5" width="0.8" height="67"/>
<g>
	<path d="M7.4,18.1c-1.9,1.1-3.6,5.8-3.6,9.4c0,2.3,1.4,9.9,1.4,12.3c0,5-1.5,8.6-4.6,11.1c3,2.4,4.6,6.1,4.6,11.1
		c0,2.3-1.4,9.9-1.4,12.3c0,3.8,1.7,8.4,3.6,9.5v0.7c-3.5-2.3-5.8-8.2-5.8-13.1c0-2.1,1.7-9.4,1.7-11.5c0-3.8-1-6.6-2.9-8.2
		C0.1,51.4,0,51.2,0,51c0-0.2,0.1-0.4,0.5-0.7c1.9-1.7,2.9-4.2,2.9-7.6c0-2.1-1.7-10-1.7-12.2c0-5.2,2.1-10.4,5.8-13.1V18.1z"/>
</g>
<rect x="547.8" y="17.5" width="0.8" height="67"/>
<rect x="550.4" y="17.5" width="2.5" height="67"/>
<rect x="8.5" y="37.1" width="544.4" height="0.5"/>
<rect x="8.5" y="32.1" width="544.4" height="0.5"/>
<rect x="8.5" y="27.2" width="544.4" height="0.5"/>
<rect x="8.5" y="22.2" width="544.4" height="0.5"/>
<rect x="8.5" y="17.2" width="544.4" height="0.5"/>
<g>
	<path d="M20.3,37.2c-4.2,0-8.1-3.1-8.1-6.9c0-3.2,2.3-6.7,6.8-10.5c-0.3-1.2-0.4-2.4-0.4-3.6c0-3.5,1.2-6.8,3.2-8.5
		c1.8,2.5,2.7,4.9,2.7,7.1c0,2.9-1.3,5.6-4.3,8.1l0.9,4.2c0.5,0,0.8-0.1,0.8-0.1c2.6,0,4.8,2,4.8,4.7c0,1.9-1.4,3.7-3.6,4.8
		c0-0.1,0.9,3.8,0.9,4.3c0,2.5-2.3,4.2-4.9,4.2c-2,0-3.6-1.3-3.6-3.4c0-1.4,1-2.6,2.4-2.6c1.3,0,2.3,1.3,2.3,2.5
		c0,1.4-1.2,2.3-2.7,2.5c0.6,0.3,1.2,0.5,1.9,0.5c2.1,0,4.1-1.6,4.1-3.6c0-0.2,0-0.4-0.1-0.6l-0.8-3.7C21.9,37,21.2,37.2,20.3,37.2z
		 M18.1,31.9c0,1,0.5,1.9,1.6,2.5c-1.8-0.3-3-1.4-3-3.1c0-2,1.7-3.7,3.8-4.1l-0.8-4C16,26,14,28.8,14,31.4c0,2.9,2.8,5.3,6,5.3
		c0.9,0,1.7-0.2,2.4-0.5L21,29.3C19.4,29.6,18.1,30.6,18.1,31.9z M22.1,10.6c-1.6,0-2.9,3.7-2.9,7c0,0.7,0,1.3,0.2,1.9
		c2.7-2.4,4-4.5,4-6.5c0-0.9-0.3-1.7-1-2.4C22.4,10.6,22.3,10.6,22.1,10.6z M24.9,32.5c0-1.6-1.2-3.3-2.9-3.3c-0.1,0-0.2,0-0.5,0
		l1.4,6.6C24.2,34.9,24.9,33.8,24.9,32.5z"/>
</g>
<polygon fill-rule="evenodd" clip-rule="evenodd" points="43.6,23.7 98.2,18.7 98.2,16.2 43.6,21.2 "/>
<polygon fill-rule="evenodd" clip-rule="evenodd" points="43.6,20 98.2,15 98.2,12.5 43.6,17.5 "/>
<polygon fill-rule="evenodd" clip-rule="evenodd" points="118.1,38.6 172.6,33.6 172.6,31.1 118.1,36.1 "/>
<polygon fill-rule="evenodd" clip-rule="evenodd" points="118.1,42.3 172.6,37.3 172.6,34.8 118.1,39.8 "/>
<polygon fill-rule="evenodd" clip-rule="evenodd" points="190.8,24.9 245.3,23.7 245.3,21.2 190.8,22.4 "/>
<polygon fill-rule="evenodd" clip-rule="evenodd" points="190.8,28.6 245.3,27.4 245.3,24.9 190.8,26.2 "/>
<polygon fill-rule="evenodd" clip-rule="evenodd" points="263.5,23.7 318,24.9 318,22.4 263.5,21.2 "/>
<polygon fill-rule="evenodd" clip-rule="evenodd" points="263.5,27.4 318,28.6 318,26.2 263.5,24.9 "/>
<polygon fill-rule="evenodd" clip-rule="evenodd" points="336.2,28.6 390.7,33.6 390.7,31.1 336.2,26.2 "/>
<polygon fill-rule="evenodd" clip-rule="evenodd" points="336.2,32.4 390.7,37.3 390.7,34.8 336.2,29.9 "/>
<polygon fill-rule="evenodd" clip-rule="evenodd" points="423.6,13.8 478,18.7 478,16.2 423.6,11.3 "/>
<polygon fill-rule="evenodd" clip-rule="evenodd" points="423.6,10 478,15 478,12.5 423.6,7.6 "/>
<rect x="8.5" y="84.2" width="544.4" height="0.5"/>
<rect x="8.5" y="79.3" width="544.4" height="0.5"/>
<rect x="8.5" y="74.3" width="544.4" height="0.5"/>
<rect x="8.5" y="69.3" width="544.4" height="0.5"/>
<rect x="8.5" y="64.4" width="544.4" height="0.5"/>
<g>
	<path d="M15.7,78.8c2.9-2.6,4.7-6.1,4.7-9.2c0-2.5-1.4-4.4-3.7-4.4c-1.6,0-3.4,1.3-3.4,2.7c0,0.2,0,0.3,0.1,0.3
		c-0.1,0,0.6-0.6,1.4-0.6c0.9,0,1.5,0.8,1.5,1.7c0,1.2-0.9,2.2-2.1,2.2c-1.2,0-2.1-1.3-2.1-2.8c0-2.3,2.3-4.1,4.8-4.1
		c4.7,0,5.9,3.2,5.9,5.8c0,1.6-0.4,2.9-2,5.3C19.1,78.7,14.6,81,13,81c-0.4,0-0.6-0.2-0.6-0.5C13.8,80.1,14.9,79.5,15.7,78.8z
		 M25.7,66.1c0.6,0,1,0.4,1,1c0,0.6-0.4,1-1,1s-1-0.4-1-1C24.7,66.5,25.1,66.1,25.7,66.1z M25.7,71c0.6,0,1,0.4,1,1c0,0.6-0.4,1-1,1
		s-1-0.4-1-1C24.7,71.5,25.1,71,25.7,71z"/>
</g>
<g>
	<path d="M110,83.1c-3.2,0-6.1-2.3-6.1-5.1c0-2.4,1.7-5,5.1-7.9c-0.2-0.9-0.3-1.8-0.3-2.7c0-2.6,0.9-5.1,2.4-6.3
		c1.4,1.9,2,3.7,2,5.3c0,2.2-1,4.2-3.2,6.1l0.7,3.1c0.4,0,0.6,0,0.6,0c2,0,3.6,1.5,3.6,3.5c0,1.4-1.1,2.8-2.7,3.6
		c0-0.1,0.6,2.8,0.6,3.3c0,1.9-1.7,3.2-3.7,3.2c-1.5,0-2.7-1-2.7-2.5c0-1.1,0.7-1.9,1.8-1.9c1,0,1.7,1,1.7,1.9c0,1-0.9,1.7-2,1.8
		c0.4,0.2,0.9,0.3,1.4,0.3c1.6,0,3.1-1.2,3.1-2.7c0-0.1,0-0.3,0-0.5l-0.6-2.8C111.3,83,110.7,83.1,110,83.1z M108.4,79.2
		c0,0.8,0.4,1.4,1.2,1.9c-1.3-0.2-2.2-1.1-2.2-2.3c0-1.5,1.3-2.8,2.9-3.1l-0.6-3c-2.8,2.1-4.3,4.1-4.3,6.1c0,2.2,2.1,4,4.5,4
		c0.7,0,1.3-0.1,1.8-0.4l-1.1-5.1C109.3,77.4,108.4,78.1,108.4,79.2z M111.4,63.2c-1.2,0-2.2,2.8-2.2,5.3c0,0.5,0,1,0.1,1.4
		c2-1.8,3-3.4,3-4.9c0-0.7-0.3-1.3-0.7-1.8C111.6,63.2,111.5,63.2,111.4,63.2z M113.5,79.6c0-1.2-0.9-2.4-2.2-2.4c0,0-0.2,0-0.4,0
		l1.1,5C113,81.4,113.5,80.6,113.5,79.6z"/>
</g>
<polygon fill-rule="evenodd" clip-rule="evenodd" points="37.1,85.7 91.7,80.7 91.7,78.2 37.1,83.2 "/>
<polygon fill-rule="evenodd" clip-rule="evenodd" points="37.1,89.4 91.7,84.4 91.7,82 37.1,86.9 "/>
<polygon fill-rule="evenodd" clip-rule="evenodd" points="124.6,75.8 179.1,70.8 179.1,68.3 124.6,73.3 "/>
<polygon fill-rule="evenodd" clip-rule="evenodd" points="124.6,72 179.1,67.1 179.1,64.6 124.6,69.6 "/>
<polygon fill-rule="evenodd" clip-rule="evenodd" points="190.8,90.6 245.3,85.7 245.3,83.2 190.8,88.2 "/>
<polygon fill-rule="evenodd" clip-rule="evenodd" points="190.8,94.4 245.3,89.4 245.3,86.9 190.8,91.9 "/>
<polygon fill-rule="evenodd" clip-rule="evenodd" points="263.5,80.7 318,85.7 318,83.2 263.5,78.2 "/>
<polygon fill-rule="evenodd" clip-rule="evenodd" points="263.5,84.4 318,89.4 318,86.9 263.5,82 "/>
<g>
	<path d="M405.6,76.5c2.2-2,3.6-4.6,3.6-6.9c0-1.9-1.1-3.3-2.8-3.3c-1.2,0-2.5,1-2.5,2.1c0,0.2,0,0.2,0.1,0.2c0,0,0.4-0.5,1-0.5
		c0.7,0,1.2,0.6,1.2,1.3c0,0.9-0.6,1.7-1.6,1.7s-1.5-1-1.5-2.1c0-1.8,1.7-3.1,3.6-3.1c3.5,0,4.4,2.4,4.4,4.4c0,1.2-0.3,2.2-1.5,4
		c-1.4,2.3-4.8,4-6,4c-0.3,0-0.5-0.1-0.5-0.3C404.2,77.4,405,77,405.6,76.5z M413.1,67c0.4,0,0.7,0.3,0.7,0.7c0,0.4-0.3,0.7-0.7,0.7
		c-0.4,0-0.7-0.3-0.7-0.7C412.3,67.3,412.7,67,413.1,67z M413.1,70.7c0.4,0,0.7,0.3,0.7,0.7s-0.3,0.7-0.7,0.7
		c-0.4,0-0.7-0.3-0.7-0.7S412.7,70.7,413.1,70.7z"/>
</g>
<polygon fill-rule="evenodd" clip-rule="evenodd" points="342.7,65.8 397.2,70.8 397.2,68.3 342.7,63.4 "/>
<polygon fill-rule="evenodd" clip-rule="evenodd" points="342.7,62.1 397.2,67.1 397.2,64.6 342.7,59.6 "/>
<polygon fill-rule="evenodd" clip-rule="evenodd" points="417.1,75.8 471.5,80.7 471.5,78.2 417.1,73.3 "/>
<polygon fill-rule="evenodd" clip-rule="evenodd" points="417.1,79.5 471.5,84.4 471.5,82 417.1,77 "/>
<rect x="43.4" y="17.6" width="0.5" height="18.9"/>
<g>
	<path d="M37,38.2c0-1.8,2.5-3.5,4.5-3.5c1.3,0,2.3,0.7,2.3,1.7c0,1.7-2.5,3.5-4.6,3.5C38,39.9,37,39.3,37,38.2z"/>
</g>
<rect x="61.6" y="16.1" width="0.5" height="15.5"/>
<g>
	<path d="M55.1,33.2c0-1.8,2.5-3.5,4.5-3.5c1.3,0,2.3,0.7,2.3,1.7c0,1.7-2.5,3.5-4.6,3.5C56.1,34.9,55.1,34.3,55.1,33.2z"/>
</g>
<g>
	<path d="M49.2,24h0.6l-0.1,6.2c0.4-0.7,1-1,1.8-1c1.2,0,2.2,0.8,2.2,1.9c0,0.8-0.5,1.8-1.7,2.7L49.2,36V24z M49.8,31
		c-0.1,0.8-0.1,1.4-0.1,1.9c0,1,0,1.6,0.1,2c1-0.7,2.4-2.6,2.4-3.7c0-0.6-0.5-1.1-1.1-1.1C50.5,30.1,50.1,30.4,49.8,31z"/>
</g>
<rect x="79.8" y="14.4" width="0.5" height="14.7"/>
<g>
	<path d="M73.4,30.7c0-1.8,2.5-3.5,4.5-3.5c1.3,0,2.3,0.7,2.3,1.7c0,1.7-2.5,3.5-4.6,3.5C74.4,32.5,73.4,31.8,73.4,30.7z"/>
</g>
<g>
	<path d="M67.5,21.6h0.6L68,27.8c0.4-0.7,1-1,1.8-1c1.2,0,2.2,0.8,2.2,1.9c0,0.8-0.5,1.8-1.7,2.7l-2.8,2.1V21.6z M68.1,28.5
		C68,29.2,68,29.9,68,30.4c0,1,0,1.6,0.1,2c1-0.7,2.4-2.6,2.4-3.7c0-0.6-0.5-1.1-1.1-1.1C68.8,27.6,68.4,27.9,68.1,28.5z"/>
</g>
<rect x="98" y="12.7" width="0.5" height="14"/>
<g>
	<path d="M91.5,28.3c0-1.8,2.5-3.5,4.5-3.5c1.3,0,2.3,0.7,2.3,1.7c0,1.7-2.5,3.5-4.6,3.5C92.5,30,91.5,29.3,91.5,28.3z"/>
</g>
<g>
	<path d="M85.7,19.1h0.6l-0.1,6.2c0.4-0.7,1-1,1.8-1c1.2,0,2.2,0.8,2.2,1.9c0,0.8-0.5,1.8-1.7,2.7L85.7,31V19.1z M86.2,26
		c-0.1,0.8-0.1,1.4-0.1,1.9c0,1,0,1.6,0.1,2c1-0.7,2.4-2.6,2.4-3.7c0-0.6-0.5-1.1-1.1-1.1C86.9,25.2,86.5,25.4,86.2,26z"/>
</g>
<rect x="117.8" y="25.7" width="0.5" height="16.4"/>
<g>
	<path d="M117.9,25.8c0-1.8,2.5-3.5,4.5-3.5c1.3,0,2.3,0.7,2.3,1.7c0,1.7-2.5,3.5-4.6,3.5C118.9,27.5,117.9,26.9,117.9,25.8z"/>
</g>
<rect x="136" y="23.2" width="0.5" height="17.4"/>
<g>
	<path d="M136,23.3c0-1.8,2.5-3.5,4.5-3.5c1.3,0,2.3,0.7,2.3,1.7c0,1.7-2.5,3.5-4.6,3.5C137,25,136,24.4,136,23.3z"/>
</g>
<rect x="154.1" y="20.7" width="0.5" height="18.1"/>
<g>
	<path d="M154.2,20.8c0-1.8,2.5-3.5,4.5-3.5c1.3,0,2.3,0.7,2.3,1.7c0,1.7-2.5,3.5-4.6,3.5C155.1,22.5,154.2,21.9,154.2,20.8z"/>
</g>
<rect x="172.4" y="15.8" width="0.5" height="21.4"/>
<g>
	<path d="M172.5,15.9c0-1.8,2.5-3.5,4.5-3.5c1.3,0,2.3,0.7,2.3,1.7c0,1.7-2.5,3.5-4.6,3.5C173.4,17.6,172.5,16.9,172.5,15.9z"/>
</g>
<g>
	<path d="M166.6,6.7h0.6l-0.1,6.2c0.4-0.7,1-1,1.8-1c1.2,0,2.2,0.8,2.2,1.9c0,0.8-0.5,1.8-1.7,2.7l-2.8,2.1V6.7z M167.2,13.6
		c-0.1,0.8-0.1,1.4-0.1,1.9c0,1,0,1.6,0.1,2c1-0.7,2.4-2.6,2.4-3.7c0-0.6-0.5-1.1-1.1-1.1C167.9,12.8,167.4,13,167.2,13.6z"/>
</g>
<rect x="188.7" y="12.1" width="10.5" height="0.8"/>
<rect x="190.5" y="13.3" width="0.5" height="15.2"/>
<g>
	<path d="M190.6,13.4c0-1.8,2.5-3.5,4.5-3.5c1.3,0,2.3,0.7,2.3,1.7c0,1.7-2.5,3.5-4.6,3.5C191.6,15.1,190.6,14.5,190.6,13.4z"/>
</g>
<g>
	<path d="M183.5,4.2h0.6l-0.1,6.2c0.4-0.7,1-1,1.8-1c1.2,0,2.2,0.8,2.2,1.9c0,0.8-0.5,1.8-1.7,2.7l-2.8,2.1V4.2z M184,11.1
		c-0.1,0.8-0.1,1.4-0.1,1.9c0,1,0,1.6,0.1,2c1-0.7,2.4-2.6,2.4-3.7c0-0.6-0.5-1.1-1.1-1.1C184.8,10.3,184.3,10.6,184,11.1z"/>
</g>
<rect x="206.9" y="12.1" width="10.5" height="0.8"/>
<rect x="208.7" y="10.8" width="0.5" height="17.4"/>
<g>
	<path d="M208.7,10.9c0-1.8,2.5-3.5,4.5-3.5c1.3,0,2.3,0.7,2.3,1.7c0,1.7-2.5,3.5-4.6,3.5C209.7,12.6,208.7,12,208.7,10.9z"/>
</g>
<g>
	<path d="M201.6,1.7h0.6L202.1,8c0.4-0.7,1-1,1.8-1c1.2,0,2.2,0.8,2.2,1.9c0,0.8-0.5,1.8-1.7,2.7l-2.8,2.1V1.7z M202.2,8.6
		c-0.1,0.8-0.1,1.4-0.1,1.9c0,1,0,1.6,0.1,2c1-0.7,2.4-2.6,2.4-3.7c0-0.6-0.5-1.1-1.1-1.1C202.9,7.8,202.5,8.1,202.2,8.6z"/>
</g>
<rect x="225" y="12.1" width="10.5" height="0.8"/>
<rect x="225" y="7.2" width="10.5" height="0.8"/>
<rect x="226.8" y="8.3" width="0.5" height="19.4"/>
<g>
	<path d="M226.9,8.4c0-1.8,2.5-3.5,4.5-3.5c1.3,0,2.3,0.7,2.3,1.7c0,1.7-2.5,3.5-4.6,3.5C227.8,10.1,226.9,9.5,226.9,8.4z"/>
</g>
<rect x="243.3" y="12.1" width="10.5" height="0.8"/>
<rect x="243.3" y="7.2" width="10.5" height="0.8"/>
<rect x="245.1" y="5.9" width="0.5" height="21.4"/>
<g>
	<path d="M245.2,5.9c0-1.8,2.5-3.5,4.5-3.5c1.3,0,2.3,0.7,2.3,1.7c0,1.7-2.5,3.5-4.6,3.5C246.1,7.7,245.2,7,245.2,5.9z"/>
</g>
<rect x="261.4" y="12.1" width="10.5" height="0.8"/>
<rect x="261.4" y="7.2" width="10.5" height="0.8"/>
<rect x="261.4" y="2.2" width="10.5" height="0.8"/>
<rect x="263.2" y="3.4" width="0.5" height="23.9"/>
<g>
	<path d="M263.3,3.5c0-1.8,2.5-3.5,4.5-3.5c1.3,0,2.3,0.7,2.3,1.7c0,1.7-2.5,3.5-4.6,3.5C264.3,5.2,263.3,4.5,263.3,3.5z"/>
</g>
<rect x="279.6" y="12.1" width="10.5" height="0.8"/>
<rect x="279.6" y="7.2" width="10.5" height="0.8"/>
<rect x="281.4" y="5.9" width="0.5" height="21.7"/>
<g>
	<path d="M281.4,5.9c0-1.8,2.5-3.5,4.5-3.5c1.3,0,2.3,0.7,2.3,1.7c0,1.7-2.5,3.5-4.6,3.5C282.4,7.7,281.4,7,281.4,5.9z"/>
</g>
<rect x="297.7" y="12.1" width="10.5" height="0.8"/>
<rect x="297.7" y="7.2" width="10.5" height="0.8"/>
<rect x="299.5" y="8.3" width="0.5" height="19.7"/>
<g>
	<path d="M299.6,8.4c0-1.8,2.5-3.5,4.5-3.5c1.3,0,2.3,0.7,2.3,1.7c0,1.7-2.5,3.5-4.6,3.5C300.5,10.1,299.6,9.5,299.6,8.4z"/>
</g>
<rect x="316" y="12.1" width="10.5" height="0.8"/>
<rect x="317.8" y="10.8" width="0.5" height="17.7"/>
<g>
	<path d="M317.9,10.9c0-1.8,2.5-3.5,4.5-3.5c1.3,0,2.3,0.7,2.3,1.7c0,1.7-2.5,3.5-4.6,3.5C318.8,12.6,317.9,12,317.9,10.9z"/>
</g>
<rect x="334.1" y="12.1" width="10.5" height="0.8"/>
<rect x="335.9" y="13.3" width="0.5" height="18.9"/>
<g>
	<path d="M336,13.4c0-1.8,2.5-3.5,4.5-3.5c1.3,0,2.3,0.7,2.3,1.7c0,1.7-2.5,3.5-4.6,3.5C337,15.1,336,14.5,336,13.4z"/>
</g>
<rect x="354.1" y="15.8" width="0.5" height="18"/>
<g>
	<path d="M354.1,15.9c0-1.8,2.5-3.5,4.5-3.5c1.3,0,2.3,0.7,2.3,1.7c0,1.7-2.5,3.5-4.6,3.5C355.1,17.6,354.1,16.9,354.1,15.9z"/>
</g>
<rect x="372.2" y="20.7" width="0.5" height="14.7"/>
<g>
	<path d="M372.3,20.8c0-1.8,2.5-3.5,4.5-3.5c1.3,0,2.3,0.7,2.3,1.7c0,1.7-2.5,3.5-4.6,3.5C373.3,22.5,372.3,21.9,372.3,20.8z"/>
</g>
<rect x="390.5" y="23.2" width="0.5" height="14"/>
<g>
	<path d="M390.6,23.3c0-1.8,2.5-3.5,4.5-3.5c1.3,0,2.3,0.7,2.3,1.7c0,1.7-2.5,3.5-4.6,3.5C391.5,25,390.6,24.4,390.6,23.3z"/>
</g>
<rect x="423.4" y="7.7" width="0.5" height="16.4"/>
<g>
	<path d="M416.9,25.8c0-1.8,2.5-3.5,4.5-3.5c1.3,0,2.3,0.7,2.3,1.7c0,1.7-2.5,3.5-4.6,3.5C417.9,27.5,416.9,26.9,416.9,25.8z"/>
</g>
<rect x="441.5" y="9.3" width="0.5" height="17.4"/>
<g>
	<path d="M435.1,28.3c0-1.8,2.5-3.5,4.5-3.5c1.3,0,2.3,0.7,2.3,1.7c0,1.7-2.5,3.5-4.6,3.5C436,30,435.1,29.3,435.1,28.3z"/>
</g>
<rect x="459.6" y="11" width="0.5" height="18.1"/>
<g>
	<path d="M453.2,30.7c0-1.8,2.5-3.5,4.5-3.5c1.3,0,2.3,0.7,2.3,1.7c0,1.7-2.5,3.5-4.6,3.5C454.2,32.5,453.2,31.8,453.2,30.7z"/>
</g>
<rect x="477.8" y="12.7" width="0.5" height="18.9"/>
<g>
	<path d="M471.3,33.2c0-1.8,2.5-3.5,4.5-3.5c1.3,0,2.3,0.7,2.3,1.7c0,1.7-2.5,3.5-4.6,3.5C472.3,34.9,471.3,34.3,471.3,33.2z"/>
</g>
<rect x="496.2" y="20" width="0.5" height="16.6"/>
<g>
	<path d="M493.9,34.6c1.6,0,2.7,0.7,2.7,2c0,1.9-2.3,3.4-4.5,3.4c-1.3,0-2.4-0.7-2.4-1.8C489.6,36.4,491.9,34.6,493.9,34.6z
		 M490.1,38.5c0,0.6,0.4,0.9,1.1,0.9c1.4,0,4.9-2.1,4.9-3.3c0-0.6-0.4-0.9-1.1-0.9C493.8,35.2,490.1,37.2,490.1,38.5z"/>
</g>
<rect x="36.9" y="72.8" width="0.5" height="16.4"/>
<g>
	<path d="M37,72.9c0-1.8,2.5-3.5,4.5-3.5c1.3,0,2.3,0.7,2.3,1.7c0,1.7-2.5,3.5-4.6,3.5C38,74.6,37,74,37,72.9z"/>
</g>
<rect x="55" y="67.9" width="0.5" height="19.8"/>
<g>
	<path d="M55.1,67.9c0-1.8,2.5-3.5,4.5-3.5c1.3,0,2.3,0.7,2.3,1.7c0,1.7-2.5,3.5-4.6,3.5C56.1,69.7,55.1,69,55.1,67.9z"/>
</g>
<g>
	<path d="M49.2,58.8h0.6L49.7,65c0.4-0.7,1-1,1.8-1c1.2,0,2.2,0.8,2.2,1.9c0,0.8-0.5,1.8-1.7,2.7l-2.8,2.1V58.8z M49.8,65.7
		c-0.1,0.8-0.1,1.4-0.1,1.9c0,1,0,1.6,0.1,2c1-0.7,2.4-2.6,2.4-3.7c0-0.6-0.5-1.1-1.1-1.1C50.5,64.8,50.1,65.1,49.8,65.7z"/>
</g>
<rect x="73.3" y="65.4" width="0.5" height="20.6"/>
<g>
	<path d="M73.4,65.5c0-1.8,2.5-3.5,4.5-3.5c1.3,0,2.3,0.7,2.3,1.7c0,1.7-2.5,3.5-4.6,3.5C74.4,67.2,73.4,66.5,73.4,65.5z"/>
</g>
<g>
	<path d="M67.5,56.3h0.6L68,62.5c0.4-0.7,1-1,1.8-1c1.2,0,2.2,0.8,2.2,1.9c0,0.8-0.5,1.8-1.7,2.7l-2.8,2.1V56.3z M68.1,63.2
		C68,63.9,68,64.6,68,65.1c0,1,0,1.6,0.1,2c1-0.7,2.4-2.6,2.4-3.7c0-0.6-0.5-1.1-1.1-1.1C68.8,62.4,68.4,62.6,68.1,63.2z"/>
</g>
<rect x="91.5" y="62.9" width="0.5" height="21.4"/>
<g>
	<path d="M91.5,63c0-1.8,2.5-3.5,4.5-3.5c1.3,0,2.3,0.7,2.3,1.7c0,1.7-2.5,3.5-4.6,3.5C92.5,64.7,91.5,64.1,91.5,63z"/>
</g>
<g>
	<path d="M85.7,53.8h0.6l-0.1,6.2c0.4-0.7,1-1,1.8-1c1.2,0,2.2,0.8,2.2,1.9c0,0.8-0.5,1.8-1.7,2.7l-2.8,2.1V53.8z M86.2,60.7
		c-0.1,0.8-0.1,1.4-0.1,1.9c0,1,0,1.6,0.1,2c1-0.7,2.4-2.6,2.4-3.7c0-0.6-0.5-1.1-1.1-1.1C86.9,59.9,86.5,60.2,86.2,60.7z"/>
</g>
<rect x="116" y="89" width="10.5" height="0.8"/>
<rect x="124.3" y="69.7" width="0.5" height="18.9"/>
<g>
	<path d="M117.9,90.3c0-1.8,2.5-3.5,4.5-3.5c1.3,0,2.3,0.7,2.3,1.7c0,1.7-2.5,3.5-4.6,3.5C118.9,92,117.9,91.3,117.9,90.3z"/>
</g>
<rect x="142.5" y="68.2" width="0.5" height="18"/>
<g>
	<path d="M136,87.8c0-1.8,2.5-3.5,4.5-3.5c1.3,0,2.3,0.7,2.3,1.7c0,1.7-2.5,3.5-4.6,3.5C137,89.5,136,88.9,136,87.8z"/>
</g>
<rect x="160.6" y="66.5" width="0.5" height="17.2"/>
<g>
	<path d="M154.2,85.3c0-1.8,2.5-3.5,4.5-3.5c1.3,0,2.3,0.7,2.3,1.7c0,1.7-2.5,3.5-4.6,3.5C155.1,87,154.2,86.4,154.2,85.3z"/>
</g>
<rect x="178.9" y="64.8" width="0.5" height="14"/>
<g>
	<path d="M172.5,80.3c0-1.8,2.5-3.5,4.5-3.5c1.3,0,2.3,0.7,2.3,1.7c0,1.7-2.5,3.5-4.6,3.5C173.4,82.1,172.5,81.4,172.5,80.3z"/>
</g>
<g>
	<path d="M166.6,71.2h0.6l-0.1,6.2c0.4-0.7,1-1,1.8-1c1.2,0,2.2,0.8,2.2,1.9c0,0.8-0.5,1.8-1.7,2.7l-2.8,2.1V71.2z M167.2,78.1
		c-0.1,0.8-0.1,1.4-0.1,1.9c0,1,0,1.6,0.1,2c1-0.7,2.4-2.6,2.4-3.7c0-0.6-0.5-1.1-1.1-1.1C167.9,77.2,167.4,77.5,167.2,78.1z"/>
</g>
<rect x="190.5" y="77.8" width="0.5" height="16.4"/>
<g>
	<path d="M190.6,77.9c0-1.8,2.5-3.5,4.5-3.5c1.3,0,2.3,0.7,2.3,1.7c0,1.7-2.5,3.5-4.6,3.5C191.6,79.6,190.6,78.9,190.6,77.9z"/>
</g>
<g>
	<path d="M184.7,68.7h0.6l-0.1,6.2c0.4-0.7,1-1,1.8-1c1.2,0,2.2,0.8,2.2,1.9c0,0.8-0.5,1.8-1.7,2.7l-2.8,2.1V68.7z M185.3,75.6
		c-0.1,0.8-0.1,1.4-0.1,1.9c0,1,0,1.6,0.1,2c1-0.7,2.4-2.6,2.4-3.7c0-0.6-0.5-1.1-1.1-1.1C186,74.8,185.6,75,185.3,75.6z"/>
</g>
<rect x="208.7" y="75.3" width="0.5" height="17.4"/>
<g>
	<path d="M208.7,75.4c0-1.8,2.5-3.5,4.5-3.5c1.3,0,2.3,0.7,2.3,1.7c0,1.7-2.5,3.5-4.6,3.5C209.7,77.1,208.7,76.5,208.7,75.4z"/>
</g>
<g>
	<path d="M202.8,66.2h0.6l-0.1,6.2c0.4-0.7,1-1,1.8-1c1.2,0,2.2,0.8,2.2,1.9c0,0.8-0.5,1.8-1.7,2.7l-2.8,2.1V66.2z M203.4,73.1
		c-0.1,0.8-0.1,1.4-0.1,1.9c0,1,0,1.6,0.1,2c1-0.7,2.4-2.6,2.4-3.7c0-0.6-0.5-1.1-1.1-1.1C204.1,72.3,203.7,72.6,203.4,73.1z"/>
</g>
<rect x="226.8" y="72.8" width="0.5" height="18.1"/>
<g>
	<path d="M226.9,72.9c0-1.8,2.5-3.5,4.5-3.5c1.3,0,2.3,0.7,2.3,1.7c0,1.7-2.5,3.5-4.6,3.5C227.8,74.6,226.9,74,226.9,72.9z"/>
</g>
<rect x="245.1" y="70.3" width="0.5" height="18.9"/>
<g>
	<path d="M245.2,70.4c0-1.8,2.5-3.5,4.5-3.5c1.3,0,2.3,0.7,2.3,1.7c0,1.7-2.5,3.5-4.6,3.5C246.1,72.1,245.2,71.5,245.2,70.4z"/>
</g>
<rect x="263.2" y="67.9" width="0.5" height="16.4"/>
<g>
	<path d="M263.3,67.9c0-1.8,2.5-3.5,4.5-3.5c1.3,0,2.3,0.7,2.3,1.7c0,1.7-2.5,3.5-4.6,3.5C264.3,69.7,263.3,69,263.3,67.9z"/>
</g>
<rect x="281.4" y="70.3" width="0.5" height="15.5"/>
<g>
	<path d="M281.4,70.4c0-1.8,2.5-3.5,4.5-3.5c1.3,0,2.3,0.7,2.3,1.7c0,1.7-2.5,3.5-4.6,3.5C282.4,72.1,281.4,71.5,281.4,70.4z"/>
</g>
<rect x="299.5" y="72.8" width="0.5" height="14.7"/>
<g>
	<path d="M299.6,72.9c0-1.8,2.5-3.5,4.5-3.5c1.3,0,2.3,0.7,2.3,1.7c0,1.7-2.5,3.5-4.6,3.5C300.5,74.6,299.6,74,299.6,72.9z"/>
</g>
<rect x="317.8" y="75.3" width="0.5" height="14"/>
<g>
	<path d="M317.9,75.4c0-1.8,2.5-3.5,4.5-3.5c1.3,0,2.3,0.7,2.3,1.7c0,1.7-2.5,3.5-4.6,3.5C318.8,77.1,317.9,76.5,317.9,75.4z"/>
</g>
<rect x="342.4" y="59.8" width="0.5" height="16.4"/>
<g>
	<path d="M336,77.9c0-1.8,2.5-3.5,4.5-3.5c1.3,0,2.3,0.7,2.3,1.7c0,1.7-2.5,3.5-4.6,3.5C337,79.6,336,78.9,336,77.9z"/>
</g>
<rect x="360.6" y="61.3" width="0.5" height="17.4"/>
<g>
	<path d="M354.1,80.3c0-1.8,2.5-3.5,4.5-3.5c1.3,0,2.3,0.7,2.3,1.7c0,1.7-2.5,3.5-4.6,3.5C355.1,82.1,354.1,81.4,354.1,80.3z"/>
</g>
<rect x="378.7" y="63.1" width="0.5" height="20.6"/>
<g>
	<path d="M372.3,85.3c0-1.8,2.5-3.5,4.5-3.5c1.3,0,2.3,0.7,2.3,1.7c0,1.7-2.5,3.5-4.6,3.5C373.3,87,372.3,86.4,372.3,85.3z"/>
</g>
<rect x="397" y="64.8" width="0.5" height="21.4"/>
<g>
	<path d="M390.6,87.8c0-1.8,2.5-3.5,4.5-3.5c1.3,0,2.3,0.7,2.3,1.7c0,1.7-2.5,3.5-4.6,3.5C391.5,89.5,390.6,88.9,390.6,87.8z"/>
</g>
<rect x="415.1" y="59.3" width="10.5" height="0.8"/>
<rect x="416.8" y="60.4" width="0.5" height="18.9"/>
<g>
	<path d="M416.9,60.5c0-1.8,2.5-3.5,4.5-3.5c1.3,0,2.3,0.7,2.3,1.7c0,1.7-2.5,3.5-4.6,3.5C417.9,62.2,416.9,61.6,416.9,60.5z"/>
</g>
<rect x="435" y="62.9" width="0.5" height="18"/>
<g>
	<path d="M435.1,63c0-1.8,2.5-3.5,4.5-3.5c1.3,0,2.3,0.7,2.3,1.7c0,1.7-2.5,3.5-4.6,3.5C436,64.7,435.1,64.1,435.1,63z"/>
</g>
<rect x="453.1" y="65.4" width="0.5" height="17.2"/>
<g>
	<path d="M453.2,65.5c0-1.8,2.5-3.5,4.5-3.5c1.3,0,2.3,0.7,2.3,1.7c0,1.7-2.5,3.5-4.6,3.5C454.2,67.2,453.2,66.5,453.2,65.5z"/>
</g>
<rect x="471.3" y="67.9" width="0.5" height="16.4"/>
<g>
	<path d="M471.3,67.9c0-1.8,2.5-3.5,4.5-3.5c1.3,0,2.3,0.7,2.3,1.7c0,1.7-2.5,3.5-4.6,3.5C472.3,69.7,471.3,69,471.3,67.9z"/>
</g>
<rect x="489.5" y="72.8" width="0.5" height="16.6"/>
<g>
	<path d="M493.9,69.3c1.6,0,2.7,0.7,2.7,2c0,1.9-2.3,3.4-4.5,3.4c-1.3,0-2.4-0.7-2.4-1.8C489.6,71.1,491.9,69.3,493.9,69.3z
		 M490.1,73.2c0,0.6,0.4,0.9,1.1,0.9c1.4,0,4.9-2.1,4.9-3.3c0-0.6-0.4-0.9-1.1-0.9C493.8,69.9,490.1,72,490.1,73.2z"/>
</g>
</svg>
