<?xml version="1.0" encoding="utf-8"?>

<!--
	ScaleBook
	Copyright (c) Leland Jansen 2015. All rights reserved.
-->

<!DOCTYPE svg PUBLIC "-//W3C//DTD SVG 1.1//EN" "http://www.w3.org/Graphics/SVG/1.1/DTD/svg11.dtd">
<svg version="1.1" id="Layer_1" xmlns="http://www.w3.org/2000/svg" xmlns:xlink="http://www.w3.org/1999/xlink" x="0px" y="0px"
	 viewBox="0 0 552.9 98.7" enable-background="new 0 0 552.9 98.7" xml:space="preserve">
<rect x="8.4" y="17.5" width="0.8" height="67"/>
<g>
	<path d="M7.4,18.1c-1.9,1.1-3.6,5.8-3.6,9.4c0,2.3,1.4,9.9,1.4,12.3c0,5-1.5,8.6-4.6,11.1c3,2.4,4.6,6.1,4.6,11.1
		c0,2.3-1.4,9.9-1.4,12.3c0,3.8,1.7,8.4,3.6,9.5v0.7c-3.5-2.3-5.8-8.2-5.8-13.1c0-2.1,1.7-9.4,1.7-11.5c0-3.8-1-6.6-2.9-8.2
		C0.1,51.4,0,51.2,0,51c0-0.2,0.1-0.4,0.5-0.7c1.9-1.7,2.9-4.2,2.9-7.6c0-2.1-1.7-10-1.7-12.2c0-5.2,2.1-10.4,5.8-13.1V18.1z"/>
</g>
<rect x="547.8" y="17.5" width="0.8" height="67"/>
<rect x="550.4" y="17.5" width="2.5" height="67"/>
<rect x="8.5" y="37.1" width="544.4" height="0.5"/>
<rect x="8.5" y="32.1" width="544.4" height="0.5"/>
<rect x="8.5" y="27.2" width="544.4" height="0.5"/>
<rect x="8.5" y="22.2" width="544.4" height="0.5"/>
<rect x="8.5" y="17.2" width="544.4" height="0.5"/>
<g>
	<path d="M20.3,37.2c-4.2,0-8.1-3.1-8.1-6.9c0-3.2,2.3-6.7,6.8-10.5c-0.3-1.2-0.4-2.4-0.4-3.6c0-3.5,1.2-6.8,3.2-8.5
		c1.8,2.5,2.7,4.9,2.7,7.1c0,2.9-1.3,5.6-4.3,8.1l0.9,4.2c0.5,0,0.8-0.1,0.8-0.1c2.6,0,4.8,2,4.8,4.7c0,1.9-1.4,3.7-3.6,4.8
		c0-0.1,0.9,3.8,0.9,4.3c0,2.5-2.3,4.2-4.9,4.2c-2,0-3.6-1.3-3.6-3.4c0-1.4,1-2.6,2.4-2.6c1.3,0,2.3,1.3,2.3,2.5
		c0,1.4-1.2,2.3-2.7,2.5c0.6,0.3,1.2,0.5,1.9,0.5c2.1,0,4.1-1.6,4.1-3.6c0-0.2,0-0.4-0.1-0.6l-0.8-3.7C21.9,37,21.2,37.2,20.3,37.2z
		 M18.1,31.9c0,1,0.5,1.9,1.6,2.5c-1.8-0.3-3-1.4-3-3.1c0-2,1.7-3.7,3.8-4.1l-0.8-4C16,26,14,28.8,14,31.4c0,2.9,2.8,5.3,6,5.3
		c0.9,0,1.7-0.2,2.4-0.5L21,29.3C19.4,29.6,18.1,30.6,18.1,31.9z M22.1,10.6c-1.6,0-2.9,3.7-2.9,7c0,0.7,0,1.3,0.2,1.9
		c2.7-2.4,4-4.5,4-6.5c0-0.9-0.3-1.7-1-2.4C22.4,10.6,22.3,10.6,22.1,10.6z M24.9,32.5c0-1.6-1.2-3.3-2.9-3.3c-0.1,0-0.2,0-0.5,0
		l1.4,6.6C24.2,34.9,24.9,33.8,24.9,32.5z"/>
</g>
<polygon fill-rule="evenodd" clip-rule="evenodd" points="43.6,23.7 97.7,18.7 97.7,16.2 43.6,21.2 "/>
<polygon fill-rule="evenodd" clip-rule="evenodd" points="43.6,20 97.7,15 97.7,12.5 43.6,17.5 "/>
<polygon fill-rule="evenodd" clip-rule="evenodd" points="123.2,38.6 177.3,33.6 177.3,31.1 123.2,36.1 "/>
<polygon fill-rule="evenodd" clip-rule="evenodd" points="123.2,42.3 177.3,37.3 177.3,34.8 123.2,39.8 "/>
<polygon fill-rule="evenodd" clip-rule="evenodd" points="195.3,28.6 249.4,23.7 249.4,21.2 195.3,26.2 "/>
<polygon fill-rule="evenodd" clip-rule="evenodd" points="195.3,32.4 249.4,27.4 249.4,24.9 195.3,29.9 "/>
<polygon fill-rule="evenodd" clip-rule="evenodd" points="267.3,23.7 321.4,24.9 321.4,22.4 267.3,21.2 "/>
<polygon fill-rule="evenodd" clip-rule="evenodd" points="267.3,27.4 321.4,28.6 321.4,26.2 267.3,24.9 "/>
<polygon fill-rule="evenodd" clip-rule="evenodd" points="339.4,28.6 393.5,33.6 393.5,31.1 339.4,26.2 "/>
<polygon fill-rule="evenodd" clip-rule="evenodd" points="339.4,32.4 393.5,37.3 393.5,34.8 339.4,29.9 "/>
<polygon fill-rule="evenodd" clip-rule="evenodd" points="424.5,18.7 478.6,23.7 478.6,21.2 424.5,16.2 "/>
<polygon fill-rule="evenodd" clip-rule="evenodd" points="424.5,15 478.6,20 478.6,17.5 424.5,12.5 "/>
<rect x="8.5" y="84.2" width="544.4" height="0.5"/>
<rect x="8.5" y="79.3" width="544.4" height="0.5"/>
<rect x="8.5" y="74.3" width="544.4" height="0.5"/>
<rect x="8.5" y="69.3" width="544.4" height="0.5"/>
<rect x="8.5" y="64.4" width="544.4" height="0.5"/>
<g>
	<path d="M15.7,78.8c2.9-2.6,4.7-6.1,4.7-9.2c0-2.5-1.4-4.4-3.7-4.4c-1.6,0-3.4,1.3-3.4,2.7c0,0.2,0,0.3,0.1,0.3
		c-0.1,0,0.6-0.6,1.4-0.6c0.9,0,1.5,0.8,1.5,1.7c0,1.2-0.9,2.2-2.1,2.2c-1.2,0-2.1-1.3-2.1-2.8c0-2.3,2.3-4.1,4.8-4.1
		c4.7,0,5.9,3.2,5.9,5.8c0,1.6-0.4,2.9-2,5.3C19.1,78.7,14.6,81,13,81c-0.4,0-0.6-0.2-0.6-0.5C13.8,80.1,14.9,79.5,15.7,78.8z
		 M25.7,66.1c0.6,0,1,0.4,1,1c0,0.6-0.4,1-1,1s-1-0.4-1-1C24.7,66.5,25.1,66.1,25.7,66.1z M25.7,71c0.6,0,1,0.4,1,1c0,0.6-0.4,1-1,1
		s-1-0.4-1-1C24.7,71.5,25.1,71,25.7,71z"/>
</g>
<g>
	<path d="M109.6,83.1c-3.2,0-6.1-2.3-6.1-5.1c0-2.4,1.7-5,5.1-7.9c-0.2-0.9-0.3-1.8-0.3-2.7c0-2.6,0.9-5.1,2.4-6.3
		c1.4,1.9,2,3.7,2,5.3c0,2.2-1,4.2-3.2,6.1l0.7,3.1c0.4,0,0.6,0,0.6,0c2,0,3.6,1.5,3.6,3.5c0,1.4-1.1,2.8-2.7,3.6
		c0-0.1,0.6,2.8,0.6,3.3c0,1.9-1.7,3.2-3.7,3.2c-1.5,0-2.7-1-2.7-2.5c0-1.1,0.7-1.9,1.8-1.9c1,0,1.7,1,1.7,1.9c0,1-0.9,1.7-2,1.8
		c0.4,0.2,0.9,0.3,1.4,0.3c1.6,0,3.1-1.2,3.1-2.7c0-0.1,0-0.3,0-0.5l-0.6-2.8C110.8,83,110.3,83.1,109.6,83.1z M107.9,79.2
		c0,0.8,0.4,1.4,1.2,1.9c-1.3-0.2-2.2-1.1-2.2-2.3c0-1.5,1.3-2.8,2.9-3.1l-0.6-3c-2.8,2.1-4.3,4.1-4.3,6.1c0,2.2,2.1,4,4.5,4
		c0.7,0,1.3-0.1,1.8-0.4l-1.1-5.1C108.9,77.4,107.9,78.1,107.9,79.2z M111,63.2c-1.2,0-2.2,2.8-2.2,5.3c0,0.5,0,1,0.1,1.4
		c2-1.8,3-3.4,3-4.9c0-0.7-0.3-1.3-0.7-1.8C111.1,63.2,111.1,63.2,111,63.2z M113,79.6c0-1.2-0.9-2.4-2.2-2.4c0,0-0.2,0-0.4,0l1.1,5
		C112.5,81.4,113,80.6,113,79.6z"/>
</g>
<polygon fill-rule="evenodd" clip-rule="evenodd" points="37.1,85.7 91.2,80.7 91.2,78.2 37.1,83.2 "/>
<polygon fill-rule="evenodd" clip-rule="evenodd" points="37.1,89.4 91.2,84.4 91.2,82 37.1,86.9 "/>
<polygon fill-rule="evenodd" clip-rule="evenodd" points="129.7,75.8 183.8,70.8 183.8,68.3 129.7,73.3 "/>
<polygon fill-rule="evenodd" clip-rule="evenodd" points="129.7,72 183.8,67.1 183.8,64.6 129.7,69.6 "/>
<polygon fill-rule="evenodd" clip-rule="evenodd" points="195.3,90.6 249.4,85.7 249.4,83.2 195.3,88.2 "/>
<polygon fill-rule="evenodd" clip-rule="evenodd" points="195.3,94.4 249.4,89.4 249.4,86.9 195.3,91.9 "/>
<polygon fill-rule="evenodd" clip-rule="evenodd" points="267.3,82 321.4,86.9 321.4,84.4 267.3,79.5 "/>
<polygon fill-rule="evenodd" clip-rule="evenodd" points="267.3,85.7 321.4,90.6 321.4,88.2 267.3,83.2 "/>
<g>
	<path d="M408.4,76.5c2.2-2,3.6-4.6,3.6-6.9c0-1.9-1.1-3.3-2.8-3.3c-1.2,0-2.5,1-2.5,2.1c0,0.2,0,0.2,0.1,0.2c0,0,0.4-0.5,1-0.5
		c0.7,0,1.2,0.6,1.2,1.3c0,0.9-0.6,1.7-1.6,1.7s-1.5-1-1.5-2.1c0-1.8,1.7-3.1,3.6-3.1c3.5,0,4.4,2.4,4.4,4.4c0,1.2-0.3,2.2-1.5,4
		c-1.4,2.3-4.8,4-6,4c-0.3,0-0.5-0.1-0.5-0.3C407,77.4,407.8,77,408.4,76.5z M415.9,67c0.4,0,0.7,0.3,0.7,0.7c0,0.4-0.3,0.7-0.7,0.7
		c-0.4,0-0.7-0.3-0.7-0.7C415.1,67.3,415.5,67,415.9,67z M415.9,70.7c0.4,0,0.7,0.3,0.7,0.7s-0.3,0.7-0.7,0.7
		c-0.4,0-0.7-0.3-0.7-0.7S415.5,70.7,415.9,70.7z"/>
</g>
<polygon fill-rule="evenodd" clip-rule="evenodd" points="345.9,70.8 400,75.8 400,73.3 345.9,68.3 "/>
<polygon fill-rule="evenodd" clip-rule="evenodd" points="345.9,67.1 400,72 400,69.6 345.9,64.6 "/>
<polygon fill-rule="evenodd" clip-rule="evenodd" points="418,75.8 472.1,80.7 472.1,78.2 418,73.3 "/>
<polygon fill-rule="evenodd" clip-rule="evenodd" points="418,79.5 472.1,84.4 472.1,82 418,77 "/>
<rect x="43.4" y="17.6" width="0.5" height="18.9"/>
<g>
	<path d="M37,38.2c0-1.8,2.5-3.5,4.5-3.5c1.3,0,2.3,0.7,2.3,1.7c0,1.7-2.5,3.5-4.6,3.5C38,39.9,37,39.3,37,38.2z"/>
</g>
<rect x="61.4" y="16.1" width="0.5" height="18"/>
<g>
	<path d="M55,35.7c0-1.8,2.5-3.5,4.5-3.5c1.3,0,2.3,0.7,2.3,1.7c0,1.7-2.5,3.5-4.6,3.5C55.9,37.4,55,36.8,55,35.7z"/>
</g>
<g>
	<path d="M52.5,28v2.8l1-0.3v1.8l-1,0.3v3.4l1-0.3v1.8l-1,0.3V41H52v-3l-1.9,0.6v3h-0.5v-2.8l-1,0.3v-1.8l1-0.3v-3.4l-1,0.3v-1.8
		l1-0.3v-3.1h0.5v3L52,31v-3H52.5z M52,32.8l-1.9,0.6v3.4l1.9-0.6V32.8z"/>
</g>
<rect x="79.5" y="14.4" width="0.5" height="17.2"/>
<g>
	<path d="M73.1,33.2c0-1.8,2.5-3.5,4.5-3.5c1.3,0,2.3,0.7,2.3,1.7c0,1.7-2.5,3.5-4.6,3.5C74.1,34.9,73.1,34.3,73.1,33.2z"/>
</g>
<g>
	<path d="M70.7,25.5v2.8l1-0.3v1.8l-1,0.3v3.4l1-0.3v1.8l-1,0.3v3.1h-0.5v-3l-1.9,0.6v3h-0.5v-2.8l-1,0.3v-1.8l1-0.3v-3.4l-1,0.3
		v-1.8l1-0.3v-3.1h0.5v3l1.9-0.6v-3H70.7z M70.2,30.3L68.3,31v3.4l1.9-0.6V30.3z"/>
</g>
<rect x="97.5" y="12.7" width="0.5" height="16.4"/>
<g>
	<path d="M91.1,30.7c0-1.8,2.5-3.5,4.5-3.5c1.3,0,2.3,0.7,2.3,1.7c0,1.7-2.5,3.5-4.6,3.5C92.1,32.5,91.1,31.8,91.1,30.7z"/>
</g>
<g>
	<path d="M88.7,23.1v2.8l1-0.3v1.8l-1,0.3v3.4l1-0.3v1.8l-1,0.3V36h-0.5v-3l-1.9,0.6v3h-0.5v-2.8l-1,0.3v-1.8l1-0.3v-3.4l-1,0.3
		v-1.8l1-0.3v-3.1h0.5v3l1.9-0.6v-3H88.7z M88.2,27.8l-1.9,0.6v3.4l1.9-0.6V27.8z"/>
</g>
<rect x="122.9" y="28.2" width="0.5" height="14"/>
<g>
	<path d="M123,28.3c0-1.8,2.5-3.5,4.5-3.5c1.3,0,2.3,0.7,2.3,1.7c0,1.7-2.5,3.5-4.6,3.5C124,30,123,29.3,123,28.3z"/>
</g>
<g>
	<path d="M120.6,20.6v2.8l1-0.3v1.8l-1,0.3v3.4l1-0.3v1.8l-1,0.3v3.1h-0.5v-3l-1.9,0.6v3h-0.5v-2.8l-1,0.3v-1.8l1-0.3v-3.4l-1,0.3
		v-1.8l1-0.3v-3.1h0.5v3l1.9-0.6v-3H120.6z M120.1,25.4l-1.9,0.6v3.4l1.9-0.6V25.4z"/>
</g>
<rect x="140.9" y="23.2" width="0.5" height="17.4"/>
<g>
	<path d="M141,23.3c0-1.8,2.5-3.5,4.5-3.5c1.3,0,2.3,0.7,2.3,1.7c0,1.7-2.5,3.5-4.6,3.5C142,25,141,24.4,141,23.3z"/>
</g>
<rect x="158.9" y="20.7" width="0.5" height="18.1"/>
<g>
	<path d="M159,20.8c0-1.8,2.5-3.5,4.5-3.5c1.3,0,2.3,0.7,2.3,1.7c0,1.7-2.5,3.5-4.6,3.5C160,22.5,159,21.9,159,20.8z"/>
</g>
<rect x="177" y="18.3" width="0.5" height="18.9"/>
<g>
	<path d="M177.1,18.3c0-1.8,2.5-3.5,4.5-3.5c1.3,0,2.3,0.7,2.3,1.7c0,1.7-2.5,3.5-4.6,3.5C178.1,20.1,177.1,19.4,177.1,18.3z"/>
</g>
<g>
	<path d="M174.7,10.7v2.8l1-0.3V15l-1,0.3v3.4l1-0.3v1.8l-1,0.3v3.1h-0.5v-3l-1.9,0.6v3h-0.5v-2.8l-1,0.3V20l1-0.3v-3.4l-1,0.3v-1.8
		l1-0.3v-3.1h0.5v3l1.9-0.6v-3H174.7z M174.2,15.4l-1.9,0.6v3.4l1.9-0.6V15.4z"/>
</g>
<rect x="195" y="15.8" width="0.5" height="16.4"/>
<g>
	<path d="M195.1,15.9c0-1.8,2.5-3.5,4.5-3.5c1.3,0,2.3,0.7,2.3,1.7c0,1.7-2.5,3.5-4.6,3.5C196.1,17.6,195.1,16.9,195.1,15.9z"/>
</g>
<g>
	<path d="M192.7,8.2V11l1-0.3v1.8l-1,0.3v3.4l1-0.3v1.8l-1,0.3v3.1h-0.5v-3l-1.9,0.6v3h-0.5V19l-1,0.3v-1.8l1-0.3v-3.4l-1,0.3v-1.8
		l1-0.3V8.8h0.5v3l1.9-0.6v-3H192.7z M192.2,13l-1.9,0.6V17l1.9-0.6V13z"/>
</g>
<rect x="211.2" y="12.1" width="10.5" height="0.8"/>
<rect x="213" y="13.3" width="0.5" height="17.4"/>
<g>
	<path d="M213.1,13.4c0-1.8,2.5-3.5,4.5-3.5c1.3,0,2.3,0.7,2.3,1.7c0,1.7-2.5,3.5-4.6,3.5C214.1,15.1,213.1,14.5,213.1,13.4z"/>
</g>
<g>
	<path d="M209.4,5.7v2.8l1-0.3V10l-1,0.3v3.4l1-0.3v1.8l-1,0.3v3.1h-0.5v-3l-1.9,0.6v3h-0.5v-2.8l-1,0.3V15l1-0.3v-3.4l-1,0.3V9.8
		l1-0.3V6.3h0.5v3l1.9-0.6v-3H209.4z M208.9,10.5l-1.9,0.6v3.4l1.9-0.6V10.5z"/>
</g>
<rect x="229.4" y="12.1" width="10.5" height="0.8"/>
<rect x="229.4" y="7.2" width="10.5" height="0.8"/>
<rect x="231.1" y="8.3" width="0.5" height="20.6"/>
<g>
	<path d="M231.2,8.4c0-1.8,2.5-3.5,4.5-3.5c1.3,0,2.3,0.7,2.3,1.7c0,1.7-2.5,3.5-4.6,3.5C232.2,10.1,231.2,9.5,231.2,8.4z"/>
</g>
<rect x="247.3" y="12.1" width="10.5" height="0.8"/>
<rect x="247.3" y="7.2" width="10.5" height="0.8"/>
<rect x="249.1" y="5.9" width="0.5" height="21.4"/>
<g>
	<path d="M249.2,5.9c0-1.8,2.5-3.5,4.5-3.5c1.3,0,2.3,0.7,2.3,1.7c0,1.7-2.5,3.5-4.6,3.5C250.2,7.7,249.2,7,249.2,5.9z"/>
</g>
<rect x="265.3" y="12.1" width="10.5" height="0.8"/>
<rect x="265.3" y="7.2" width="10.5" height="0.8"/>
<rect x="265.3" y="2.2" width="10.5" height="0.8"/>
<rect x="267.1" y="3.4" width="0.5" height="23.9"/>
<g>
	<path d="M267.2,3.5c0-1.8,2.5-3.5,4.5-3.5c1.3,0,2.3,0.7,2.3,1.7c0,1.7-2.5,3.5-4.6,3.5C268.2,5.2,267.2,4.5,267.2,3.5z"/>
</g>
<rect x="283.5" y="12.1" width="10.5" height="0.8"/>
<rect x="283.5" y="7.2" width="10.5" height="0.8"/>
<rect x="285.2" y="5.9" width="0.5" height="21.7"/>
<g>
	<path d="M285.3,5.9c0-1.8,2.5-3.5,4.5-3.5c1.3,0,2.3,0.7,2.3,1.7c0,1.7-2.5,3.5-4.6,3.5C286.3,7.7,285.3,7,285.3,5.9z"/>
</g>
<rect x="301.4" y="12.1" width="10.5" height="0.8"/>
<rect x="301.4" y="7.2" width="10.5" height="0.8"/>
<rect x="303.2" y="8.3" width="0.5" height="19.7"/>
<g>
	<path d="M303.3,8.4c0-1.8,2.5-3.5,4.5-3.5c1.3,0,2.3,0.7,2.3,1.7c0,1.7-2.5,3.5-4.6,3.5C304.3,10.1,303.3,9.5,303.3,8.4z"/>
</g>
<rect x="319.4" y="12.1" width="10.5" height="0.8"/>
<rect x="321.2" y="13.3" width="0.5" height="15.2"/>
<g>
	<path d="M321.3,13.4c0-1.8,2.5-3.5,4.5-3.5c1.3,0,2.3,0.7,2.3,1.7c0,1.7-2.5,3.5-4.6,3.5C322.3,15.1,321.3,14.5,321.3,13.4z"/>
</g>
<rect x="339.2" y="15.8" width="0.5" height="16.4"/>
<g>
	<path d="M339.3,15.9c0-1.8,2.5-3.5,4.5-3.5c1.3,0,2.3,0.7,2.3,1.7c0,1.7-2.5,3.5-4.6,3.5C340.2,17.6,339.3,16.9,339.3,15.9z"/>
</g>
<rect x="357.3" y="18.3" width="0.5" height="15.5"/>
<g>
	<path d="M357.4,18.3c0-1.8,2.5-3.5,4.5-3.5c1.3,0,2.3,0.7,2.3,1.7c0,1.7-2.5,3.5-4.6,3.5C358.4,20.1,357.4,19.4,357.4,18.3z"/>
</g>
<rect x="375.3" y="20.7" width="0.5" height="14.7"/>
<g>
	<path d="M375.4,20.8c0-1.8,2.5-3.5,4.5-3.5c1.3,0,2.3,0.7,2.3,1.7c0,1.7-2.5,3.5-4.6,3.5C376.4,22.5,375.4,21.9,375.4,20.8z"/>
</g>
<rect x="393.3" y="23.2" width="0.5" height="14"/>
<g>
	<path d="M393.4,23.3c0-1.8,2.5-3.5,4.5-3.5c1.3,0,2.3,0.7,2.3,1.7c0,1.7-2.5,3.5-4.6,3.5C394.3,25,393.4,24.4,393.4,23.3z"/>
</g>
<rect x="424.3" y="12.7" width="0.5" height="14"/>
<g>
	<path d="M417.9,28.3c0-1.8,2.5-3.5,4.5-3.5c1.3,0,2.3,0.7,2.3,1.7c0,1.7-2.5,3.5-4.6,3.5C418.8,30,417.9,29.3,417.9,28.3z"/>
</g>
<rect x="442.4" y="14.2" width="0.5" height="14.9"/>
<g>
	<path d="M436,30.7c0-1.8,2.5-3.5,4.5-3.5c1.3,0,2.3,0.7,2.3,1.7c0,1.7-2.5,3.5-4.6,3.5C437,32.5,436,31.8,436,30.7z"/>
</g>
<rect x="460.4" y="15.9" width="0.5" height="15.7"/>
<g>
	<path d="M454,33.2c0-1.8,2.5-3.5,4.5-3.5c1.3,0,2.3,0.7,2.3,1.7c0,1.7-2.5,3.5-4.6,3.5C454.9,34.9,454,34.3,454,33.2z"/>
</g>
<rect x="478.4" y="17.6" width="0.5" height="16.4"/>
<g>
	<path d="M472,35.7c0-1.8,2.5-3.5,4.5-3.5c1.3,0,2.3,0.7,2.3,1.7c0,1.7-2.5,3.5-4.6,3.5C472.9,37.4,472,36.8,472,35.7z"/>
</g>
<rect x="496.7" y="20" width="0.5" height="16.6"/>
<g>
	<path d="M494.4,34.6c1.6,0,2.7,0.7,2.7,2c0,1.9-2.3,3.4-4.5,3.4c-1.3,0-2.4-0.7-2.4-1.8C490.1,36.4,492.3,34.6,494.4,34.6z
		 M490.5,38.5c0,0.6,0.4,0.9,1.1,0.9c1.4,0,4.9-2.1,4.9-3.3c0-0.6-0.4-0.9-1.1-0.9C494.2,35.2,490.5,37.2,490.5,38.5z"/>
</g>
<rect x="36.9" y="72.8" width="0.5" height="16.4"/>
<g>
	<path d="M37,72.9c0-1.8,2.5-3.5,4.5-3.5c1.3,0,2.3,0.7,2.3,1.7c0,1.7-2.5,3.5-4.6,3.5C38,74.6,37,74,37,72.9z"/>
</g>
<rect x="54.9" y="70.3" width="0.5" height="17.4"/>
<g>
	<path d="M55,70.4c0-1.8,2.5-3.5,4.5-3.5c1.3,0,2.3,0.7,2.3,1.7c0,1.7-2.5,3.5-4.6,3.5C55.9,72.1,55,71.5,55,70.4z"/>
</g>
<g>
	<path d="M52.5,62.7v2.8l1-0.3V67l-1,0.3v3.4l1-0.3v1.8l-1,0.3v3.1H52v-3l-1.9,0.6v3h-0.5v-2.8l-1,0.3v-1.8l1-0.3v-3.4l-1,0.3v-1.8
		l1-0.3v-3.1h0.5v3l1.9-0.6v-3H52.5z M52,67.5l-1.9,0.6v3.4L52,71V67.5z"/>
</g>
<rect x="73" y="67.9" width="0.5" height="18.1"/>
<g>
	<path d="M73.1,67.9c0-1.8,2.5-3.5,4.5-3.5c1.3,0,2.3,0.7,2.3,1.7c0,1.7-2.5,3.5-4.6,3.5C74.1,69.7,73.1,69,73.1,67.9z"/>
</g>
<g>
	<path d="M70.7,60.3v2.8l1-0.3v1.8l-1,0.3v3.4l1-0.3v1.8l-1,0.3v3.1h-0.5v-3l-1.9,0.6v3h-0.5V71l-1,0.3v-1.8l1-0.3v-3.4l-1,0.3v-1.8
		l1-0.3v-3.1h0.5v3l1.9-0.6v-3H70.7z M70.2,65l-1.9,0.6v3.4l1.9-0.6V65z"/>
</g>
<rect x="91" y="65.4" width="0.5" height="18.9"/>
<g>
	<path d="M91.1,65.5c0-1.8,2.5-3.5,4.5-3.5c1.3,0,2.3,0.7,2.3,1.7c0,1.7-2.5,3.5-4.6,3.5C92.1,67.2,91.1,66.5,91.1,65.5z"/>
</g>
<g>
	<path d="M88.7,57.8v2.8l1-0.3v1.8l-1,0.3v3.4l1-0.3v1.8l-1,0.3v3.1h-0.5v-3l-1.9,0.6v3h-0.5v-2.8l-1,0.3v-1.8l1-0.3v-3.4l-1,0.3
		v-1.8l1-0.3v-3.1h0.5v3l1.9-0.6v-3H88.7z M88.2,62.6l-1.9,0.6v3.4l1.9-0.6V62.6z"/>
</g>
<rect x="121.2" y="89" width="10.5" height="0.8"/>
<rect x="129.4" y="69.7" width="0.5" height="21.4"/>
<g>
	<path d="M123,92.7c0-1.8,2.5-3.5,4.5-3.5c1.3,0,2.3,0.7,2.3,1.7c0,1.7-2.5,3.5-4.6,3.5C124,94.5,123,93.8,123,92.7z"/>
</g>
<g>
	<path d="M119.3,85.1v2.8l1-0.3v1.8l-1,0.3v3.4l1-0.3v1.8l-1,0.3v3.1h-0.5v-3l-1.9,0.6v3h-0.5v-2.8l-1,0.3v-1.8l1-0.3v-3.4l-1,0.3
		v-1.8l1-0.3v-3.1h0.5v3l1.9-0.6v-3H119.3z M118.9,89.8l-1.9,0.6v3.4l1.9-0.6V89.8z"/>
</g>
<rect x="147.4" y="68.2" width="0.5" height="18"/>
<g>
	<path d="M141,87.8c0-1.8,2.5-3.5,4.5-3.5c1.3,0,2.3,0.7,2.3,1.7c0,1.7-2.5,3.5-4.6,3.5C142,89.5,141,88.9,141,87.8z"/>
</g>
<rect x="165.4" y="66.5" width="0.5" height="17.2"/>
<g>
	<path d="M159,85.3c0-1.8,2.5-3.5,4.5-3.5c1.3,0,2.3,0.7,2.3,1.7c0,1.7-2.5,3.5-4.6,3.5C160,87,159,86.4,159,85.3z"/>
</g>
<rect x="183.5" y="64.8" width="0.5" height="16.4"/>
<g>
	<path d="M177.1,82.8c0-1.8,2.5-3.5,4.5-3.5c1.3,0,2.3,0.7,2.3,1.7c0,1.7-2.5,3.5-4.6,3.5C178.1,84.5,177.1,83.9,177.1,82.8z"/>
</g>
<g>
	<path d="M174.7,75.1V78l1-0.3v1.8l-1,0.3v3.4l1-0.3v1.8l-1,0.3v3.1h-0.5v-3l-1.9,0.6v3h-0.5v-2.8l-1,0.3v-1.8l1-0.3v-3.4l-1,0.3
		v-1.8l1-0.3v-3.1h0.5v3l1.9-0.6v-3H174.7z M174.2,79.9l-1.9,0.6V84l1.9-0.6V79.9z"/>
</g>
<rect x="195" y="80.3" width="0.5" height="14"/>
<g>
	<path d="M195.1,80.3c0-1.8,2.5-3.5,4.5-3.5c1.3,0,2.3,0.7,2.3,1.7c0,1.7-2.5,3.5-4.6,3.5C196.1,82.1,195.1,81.4,195.1,80.3z"/>
</g>
<g>
	<path d="M192.7,72.7v2.8l1-0.3V77l-1,0.3v3.4l1-0.3v1.8l-1,0.3v3.1h-0.5v-3l-1.9,0.6v3h-0.5v-2.8l-1,0.3V82l1-0.3v-3.4l-1,0.3v-1.8
		l1-0.3v-3.1h0.5v3l1.9-0.6v-3H192.7z M192.2,77.4l-1.9,0.6v3.4l1.9-0.6V77.4z"/>
</g>
<rect x="213" y="77.8" width="0.5" height="14.9"/>
<g>
	<path d="M213.1,77.9c0-1.8,2.5-3.5,4.5-3.5c1.3,0,2.3,0.7,2.3,1.7c0,1.7-2.5,3.5-4.6,3.5C214.1,79.6,213.1,78.9,213.1,77.9z"/>
</g>
<g>
	<path d="M210.7,70.2V73l1-0.3v1.8l-1,0.3v3.4l1-0.3v1.8l-1,0.3v3.1h-0.5v-3l-1.9,0.6v3h-0.5V81l-1,0.3v-1.8l1-0.3v-3.4l-1,0.3v-1.8
		l1-0.3v-3.1h0.5v3l1.9-0.6v-3H210.7z M210.2,75l-1.9,0.6V79l1.9-0.6V75z"/>
</g>
<rect x="231.1" y="72.8" width="0.5" height="18.1"/>
<g>
	<path d="M231.2,72.9c0-1.8,2.5-3.5,4.5-3.5c1.3,0,2.3,0.7,2.3,1.7c0,1.7-2.5,3.5-4.6,3.5C232.2,74.6,231.2,74,231.2,72.9z"/>
</g>
<rect x="249.1" y="70.3" width="0.5" height="18.9"/>
<g>
	<path d="M249.2,70.4c0-1.8,2.5-3.5,4.5-3.5c1.3,0,2.3,0.7,2.3,1.7c0,1.7-2.5,3.5-4.6,3.5C250.2,72.1,249.2,71.5,249.2,70.4z"/>
</g>
<rect x="267.1" y="67.9" width="0.5" height="17.7"/>
<g>
	<path d="M267.2,67.9c0-1.8,2.5-3.5,4.5-3.5c1.3,0,2.3,0.7,2.3,1.7c0,1.7-2.5,3.5-4.6,3.5C268.2,69.7,267.2,69,267.2,67.9z"/>
</g>
<rect x="285.2" y="70.3" width="0.5" height="16.7"/>
<g>
	<path d="M285.3,70.4c0-1.8,2.5-3.5,4.5-3.5c1.3,0,2.3,0.7,2.3,1.7c0,1.7-2.5,3.5-4.6,3.5C286.3,72.1,285.3,71.5,285.3,70.4z"/>
</g>
<rect x="303.2" y="72.8" width="0.5" height="16"/>
<g>
	<path d="M303.3,72.9c0-1.8,2.5-3.5,4.5-3.5c1.3,0,2.3,0.7,2.3,1.7c0,1.7-2.5,3.5-4.6,3.5C304.3,74.6,303.3,74,303.3,72.9z"/>
</g>
<rect x="321.2" y="77.8" width="0.5" height="12.7"/>
<g>
	<path d="M321.3,77.9c0-1.8,2.5-3.5,4.5-3.5c1.3,0,2.3,0.7,2.3,1.7c0,1.7-2.5,3.5-4.6,3.5C322.3,79.6,321.3,78.9,321.3,77.9z"/>
</g>
<rect x="345.7" y="64.8" width="0.5" height="14"/>
<g>
	<path d="M339.3,80.3c0-1.8,2.5-3.5,4.5-3.5c1.3,0,2.3,0.7,2.3,1.7c0,1.7-2.5,3.5-4.6,3.5C340.2,82.1,339.3,81.4,339.3,80.3z"/>
</g>
<rect x="363.8" y="66.3" width="0.5" height="14.9"/>
<g>
	<path d="M357.4,82.8c0-1.8,2.5-3.5,4.5-3.5c1.3,0,2.3,0.7,2.3,1.7c0,1.7-2.5,3.5-4.6,3.5C358.4,84.5,357.4,83.9,357.4,82.8z"/>
</g>
<rect x="381.8" y="68" width="0.5" height="15.7"/>
<g>
	<path d="M375.4,85.3c0-1.8,2.5-3.5,4.5-3.5c1.3,0,2.3,0.7,2.3,1.7c0,1.7-2.5,3.5-4.6,3.5C376.4,87,375.4,86.4,375.4,85.3z"/>
</g>
<rect x="399.8" y="69.7" width="0.5" height="16.4"/>
<g>
	<path d="M393.4,87.8c0-1.8,2.5-3.5,4.5-3.5c1.3,0,2.3,0.7,2.3,1.7c0,1.7-2.5,3.5-4.6,3.5C394.3,89.5,393.4,88.9,393.4,87.8z"/>
</g>
<rect x="417.8" y="62.9" width="0.5" height="16.4"/>
<g>
	<path d="M417.9,63c0-1.8,2.5-3.5,4.5-3.5c1.3,0,2.3,0.7,2.3,1.7c0,1.7-2.5,3.5-4.6,3.5C418.8,64.7,417.9,64.1,417.9,63z"/>
</g>
<rect x="435.9" y="65.4" width="0.5" height="15.5"/>
<g>
	<path d="M436,65.5c0-1.8,2.5-3.5,4.5-3.5c1.3,0,2.3,0.7,2.3,1.7c0,1.7-2.5,3.5-4.6,3.5C437,67.2,436,66.5,436,65.5z"/>
</g>
<rect x="453.9" y="67.9" width="0.5" height="14.7"/>
<g>
	<path d="M454,67.9c0-1.8,2.5-3.5,4.5-3.5c1.3,0,2.3,0.7,2.3,1.7c0,1.7-2.5,3.5-4.6,3.5C454.9,69.7,454,69,454,67.9z"/>
</g>
<rect x="471.9" y="70.3" width="0.5" height="14"/>
<g>
	<path d="M472,70.4c0-1.8,2.5-3.5,4.5-3.5c1.3,0,2.3,0.7,2.3,1.7c0,1.7-2.5,3.5-4.6,3.5C472.9,72.1,472,71.5,472,70.4z"/>
</g>
<rect x="490" y="72.8" width="0.5" height="16.6"/>
<g>
	<path d="M494.4,69.3c1.6,0,2.7,0.7,2.7,2c0,1.9-2.3,3.4-4.5,3.4c-1.3,0-2.4-0.7-2.4-1.8C490.1,71.1,492.3,69.3,494.4,69.3z
		 M490.5,73.2c0,0.6,0.4,0.9,1.1,0.9c1.4,0,4.9-2.1,4.9-3.3c0-0.6-0.4-0.9-1.1-0.9C494.2,69.9,490.5,72,490.5,73.2z"/>
</g>
</svg>
