<?xml version="1.0" encoding="utf-8"?>

<!--
	ScaleBook
	Copyright (c) Leland Jansen 2015. All rights reserved.
-->

<!DOCTYPE svg PUBLIC "-//W3C//DTD SVG 1.1//EN" "http://www.w3.org/Graphics/SVG/1.1/DTD/svg11.dtd">
<svg version="1.1" id="Layer_1" xmlns="http://www.w3.org/2000/svg" xmlns:xlink="http://www.w3.org/1999/xlink" x="0px" y="0px"
	 viewBox="0 0 552.9 86.6" enable-background="new 0 0 552.9 86.6" xml:space="preserve">
<rect x="8.4" y="9.7" width="0.8" height="67"/>
<g>
	<path d="M7.4,10.4c-1.9,1.1-3.6,5.8-3.6,9.4c0,2.3,1.4,9.9,1.4,12.3c0,5-1.5,8.6-4.6,11.1c3,2.4,4.6,6.1,4.6,11.1
		c0,2.3-1.4,9.9-1.4,12.3c0,3.8,1.7,8.4,3.6,9.5v0.7c-3.5-2.3-5.8-8.2-5.8-13.1c0-2.1,1.7-9.4,1.7-11.5c0-3.8-1-6.6-2.9-8.2
		C0.1,43.6,0,43.4,0,43.2c0-0.2,0.1-0.4,0.5-0.7c1.9-1.7,2.9-4.2,2.9-7.6c0-2.1-1.7-10-1.7-12.2c0-5.2,2.1-10.4,5.8-13.1V10.4z"/>
</g>
<rect x="547.8" y="9.7" width="0.8" height="67"/>
<rect x="550.4" y="9.7" width="2.5" height="67"/>
<rect x="8.5" y="29.3" width="544.4" height="0.5"/>
<rect x="8.5" y="24.4" width="544.4" height="0.5"/>
<rect x="8.5" y="19.4" width="544.4" height="0.5"/>
<rect x="8.5" y="14.4" width="544.4" height="0.5"/>
<rect x="8.5" y="9.5" width="544.4" height="0.5"/>
<g>
	<path d="M20.3,29.4c-4.2,0-8.1-3.1-8.1-6.9c0-3.2,2.3-6.7,6.8-10.5c-0.3-1.2-0.4-2.4-0.4-3.6c0-3.5,1.2-6.8,3.2-8.5
		c1.8,2.5,2.7,4.9,2.7,7.1c0,2.9-1.3,5.6-4.3,8.1l0.9,4.2c0.5,0,0.8-0.1,0.8-0.1c2.6,0,4.8,2,4.8,4.7c0,1.9-1.4,3.7-3.6,4.8
		c0-0.1,0.9,3.8,0.9,4.3c0,2.5-2.3,4.2-4.9,4.2c-2,0-3.6-1.3-3.6-3.4c0-1.4,1-2.6,2.4-2.6c1.3,0,2.3,1.3,2.3,2.5
		c0,1.4-1.2,2.3-2.7,2.5c0.6,0.3,1.2,0.5,1.9,0.5c2.1,0,4.1-1.6,4.1-3.6c0-0.2,0-0.4-0.1-0.6l-0.8-3.7
		C21.9,29.3,21.2,29.4,20.3,29.4z M18.1,24.2c0,1,0.5,1.9,1.6,2.5c-1.8-0.3-3-1.4-3-3.1c0-2,1.7-3.7,3.8-4.1l-0.8-4
		C16,18.3,14,21,14,23.6c0,2.9,2.8,5.3,6,5.3c0.9,0,1.7-0.2,2.4-0.5L21,21.6C19.4,21.8,18.1,22.8,18.1,24.2z M22.1,2.8
		c-1.6,0-2.9,3.7-2.9,7c0,0.7,0,1.3,0.2,1.9c2.7-2.4,4-4.5,4-6.5c0-0.9-0.3-1.7-1-2.4C22.4,2.9,22.3,2.8,22.1,2.8z M24.9,24.7
		c0-1.6-1.2-3.3-2.9-3.3c-0.1,0-0.2,0-0.5,0l1.4,6.6C24.2,27.2,24.9,26,24.9,24.7z"/>
</g>
<g>
	<path d="M33.5,2.9v2.8l1-0.3v1.8l-1,0.3V11l1-0.3v1.8l-1,0.3v3.1H33v-3l-1.9,0.6v3h-0.5v-2.8l-1,0.3v-1.8l1-0.3V8.4l-1,0.3V7l1-0.3
		V3.5h0.5v3L33,5.9v-3H33.5z M33,7.7l-1.9,0.6v3.4l1.9-0.6V7.7z"/>
</g>
<g>
	<path d="M39.7,10.3v2.8l1-0.3v1.8l-1,0.3v3.4l1-0.3v1.8l-1,0.3v3.1h-0.5v-3L37.3,21v3h-0.5v-2.8l-1,0.3v-1.8l1-0.3v-3.4l-1,0.3
		v-1.8l1-0.3V11h0.5v3l1.9-0.6v-3H39.7z M39.2,15.1l-1.9,0.6v3.4l1.9-0.6V15.1z"/>
</g>
<g>
	<path d="M45.9,0.4v2.8l1-0.3v1.8l-1,0.3v3.4l1-0.3V10l-1,0.3v3.1h-0.5v-3l-1.9,0.6v3H43v-2.8l-1,0.3V9.7l1-0.3V6l-1,0.3V4.5l1-0.3
		V1h0.5v3l1.9-0.6v-3H45.9z M45.4,5.2l-1.9,0.6v3.4l1.9-0.6V5.2z"/>
</g>
<polygon fill-rule="evenodd" clip-rule="evenodd" points="62.2,25.8 107.4,20.9 107.4,18.4 62.2,23.4 "/>
<polygon fill-rule="evenodd" clip-rule="evenodd" points="62.2,22.1 107.4,17.2 107.4,14.7 62.2,19.6 "/>
<polygon fill-rule="evenodd" clip-rule="evenodd" points="122.4,15.9 167.5,11 167.5,8.5 122.4,13.4 "/>
<polygon fill-rule="evenodd" clip-rule="evenodd" points="122.4,12.2 167.5,7.2 167.5,4.8 122.4,9.7 "/>
<polygon fill-rule="evenodd" clip-rule="evenodd" points="187.3,30.8 232.5,25.8 232.5,23.4 187.3,28.3 "/>
<polygon fill-rule="evenodd" clip-rule="evenodd" points="187.3,34.5 232.5,29.6 232.5,27.1 187.3,32 "/>
<polygon fill-rule="evenodd" clip-rule="evenodd" points="247.5,22.1 292.6,20.9 292.6,18.4 247.5,19.6 "/>
<polygon fill-rule="evenodd" clip-rule="evenodd" points="247.5,25.8 292.6,24.6 292.6,22.1 247.5,23.4 "/>
<polygon fill-rule="evenodd" clip-rule="evenodd" points="307.6,25.8 352.7,30.8 352.7,28.3 307.6,23.4 "/>
<polygon fill-rule="evenodd" clip-rule="evenodd" points="307.6,29.6 352.7,34.5 352.7,32 307.6,27.1 "/>
<polygon fill-rule="evenodd" clip-rule="evenodd" points="385.6,11 430.7,15.9 430.7,13.4 385.6,8.5 "/>
<polygon fill-rule="evenodd" clip-rule="evenodd" points="385.6,7.2 430.7,12.2 430.7,9.7 385.6,4.8 "/>
<polygon fill-rule="evenodd" clip-rule="evenodd" points="445.8,20.9 490.9,25.8 490.9,23.4 445.8,18.4 "/>
<polygon fill-rule="evenodd" clip-rule="evenodd" points="445.8,17.2 490.9,22.1 490.9,19.6 445.8,14.7 "/>
<rect x="8.5" y="76.4" width="544.4" height="0.5"/>
<rect x="8.5" y="71.5" width="544.4" height="0.5"/>
<rect x="8.5" y="66.5" width="544.4" height="0.5"/>
<rect x="8.5" y="61.6" width="544.4" height="0.5"/>
<rect x="8.5" y="56.6" width="544.4" height="0.5"/>
<g>
	<path d="M15.7,71c2.9-2.6,4.7-6.1,4.7-9.2c0-2.5-1.4-4.4-3.7-4.4c-1.6,0-3.4,1.3-3.4,2.7c0,0.2,0,0.3,0.1,0.3
		c-0.1,0,0.6-0.6,1.4-0.6c0.9,0,1.5,0.8,1.5,1.7c0,1.2-0.9,2.2-2.1,2.2c-1.2,0-2.1-1.3-2.1-2.8c0-2.3,2.3-4.1,4.8-4.1
		c4.7,0,5.9,3.2,5.9,5.8c0,1.6-0.4,2.9-2,5.3c-1.9,3.1-6.4,5.3-8.1,5.3c-0.4,0-0.6-0.2-0.6-0.5C13.8,72.3,14.9,71.7,15.7,71z
		 M25.7,58.3c0.6,0,1,0.4,1,1c0,0.6-0.4,1-1,1s-1-0.4-1-1C24.7,58.8,25.1,58.3,25.7,58.3z M25.7,63.3c0.6,0,1,0.4,1,1
		c0,0.6-0.4,1-1,1s-1-0.4-1-1C24.7,63.7,25.1,63.3,25.7,63.3z"/>
</g>
<g>
	<path d="M33.5,55v2.8l1-0.3v1.8l-1,0.3V63l1-0.3v1.8l-1,0.3V68H33v-3l-1.9,0.6v3h-0.5v-2.8l-1,0.3v-1.8l1-0.3v-3.4l-1,0.3v-1.8
		l1-0.3v-3.1h0.5v3L33,58v-3H33.5z M33,59.8l-1.9,0.6v3.4l1.9-0.6V59.8z"/>
</g>
<g>
	<path d="M39.7,62.4v2.8l1-0.3v1.8l-1,0.3v3.4l1-0.3V72l-1,0.3v3.1h-0.5v-3l-1.9,0.6v3h-0.5v-2.8l-1,0.3v-1.8l1-0.3V68l-1,0.3v-1.8
		l1-0.3v-3.1h0.5v3l1.9-0.6v-3H39.7z M39.2,67.2l-1.9,0.6v3.4l1.9-0.6V67.2z"/>
</g>
<g>
	<path d="M45.9,52.5v2.8l1-0.3v1.8l-1,0.3v3.4l1-0.3V62l-1,0.3v3.1h-0.5v-3l-1.9,0.6v3H43v-2.8l-1,0.3v-1.8l1-0.3v-3.4l-1,0.3v-1.8
		l1-0.3v-3.1h0.5v3l1.9-0.6v-3H45.9z M45.4,57.3l-1.9,0.6v3.4l1.9-0.6V57.3z"/>
</g>
<polygon fill-rule="evenodd" clip-rule="evenodd" points="55.7,82.9 100.8,77.9 100.8,75.4 55.7,80.4 "/>
<polygon fill-rule="evenodd" clip-rule="evenodd" points="55.7,86.6 100.8,81.6 100.8,79.2 55.7,84.1 "/>
<g>
	<path d="M181.2,75.3c-3.2,0-6.1-2.3-6.1-5.1c0-2.4,1.7-5,5.1-7.9c-0.2-0.9-0.3-1.8-0.3-2.7c0-2.6,0.9-5.1,2.4-6.3
		c1.4,1.9,2,3.7,2,5.3c0,2.2-1,4.2-3.2,6.1l0.7,3.1c0.4,0,0.6,0,0.6,0c2,0,3.6,1.5,3.6,3.5c0,1.4-1.1,2.8-2.7,3.6
		c0-0.1,0.6,2.8,0.6,3.3c0,1.9-1.7,3.2-3.7,3.2c-1.5,0-2.7-1-2.7-2.5c0-1.1,0.7-1.9,1.8-1.9c1,0,1.7,1,1.7,1.9c0,1-0.9,1.7-2,1.8
		c0.4,0.2,0.9,0.3,1.4,0.3c1.6,0,3.1-1.2,3.1-2.7c0-0.1,0-0.3,0-0.5l-0.6-2.8C182.4,75.2,181.9,75.3,181.2,75.3z M179.5,71.4
		c0,0.8,0.4,1.4,1.2,1.9c-1.3-0.2-2.2-1.1-2.2-2.3c0-1.5,1.3-2.8,2.9-3.1l-0.6-3c-2.8,2.1-4.3,4.1-4.3,6.1c0,2.2,2.1,4,4.5,4
		c0.7,0,1.3-0.1,1.8-0.4l-1.1-5.1C180.5,69.6,179.5,70.4,179.5,71.4z M182.6,55.4c-1.2,0-2.2,2.8-2.2,5.3c0,0.5,0,1,0.1,1.4
		c2-1.8,3-3.4,3-4.9c0-0.7-0.3-1.3-0.7-1.8C182.8,55.4,182.7,55.4,182.6,55.4z M184.6,71.8c0-1.2-0.9-2.4-2.2-2.4c0,0-0.2,0-0.4,0
		l1.1,5C184.1,73.7,184.6,72.8,184.6,71.8z"/>
</g>
<polygon fill-rule="evenodd" clip-rule="evenodd" points="115.9,73 161,68 161,65.5 115.9,70.5 "/>
<polygon fill-rule="evenodd" clip-rule="evenodd" points="115.9,76.7 161,71.7 161,69.2 115.9,74.2 "/>
<polygon fill-rule="evenodd" clip-rule="evenodd" points="193.9,68 239,63 239,60.6 193.9,65.5 "/>
<polygon fill-rule="evenodd" clip-rule="evenodd" points="193.9,64.3 239,59.3 239,56.8 193.9,61.8 "/>
<polygon fill-rule="evenodd" clip-rule="evenodd" points="247.5,81.6 292.6,80.4 292.6,77.9 247.5,79.2 "/>
<polygon fill-rule="evenodd" clip-rule="evenodd" points="247.5,85.4 292.6,84.1 292.6,81.6 247.5,82.9 "/>
<g>
	<path d="M367.6,68.7c2.2-2,3.6-4.6,3.6-6.9c0-1.9-1.1-3.3-2.8-3.3c-1.2,0-2.5,1-2.5,2.1c0,0.2,0,0.2,0.1,0.2c0,0,0.4-0.5,1-0.5
		c0.7,0,1.2,0.6,1.2,1.3c0,0.9-0.6,1.7-1.6,1.7s-1.5-1-1.5-2.1c0-1.8,1.7-3.1,3.6-3.1c3.5,0,4.4,2.4,4.4,4.4c0,1.2-0.3,2.2-1.5,4
		c-1.4,2.3-4.8,4-6,4c-0.3,0-0.5-0.1-0.5-0.3C366.2,69.7,367.1,69.2,367.6,68.7z M375.1,59.2c0.4,0,0.7,0.3,0.7,0.7
		c0,0.4-0.3,0.7-0.7,0.7c-0.4,0-0.7-0.3-0.7-0.7C374.4,59.5,374.7,59.2,375.1,59.2z M375.1,62.9c0.4,0,0.7,0.3,0.7,0.7
		s-0.3,0.7-0.7,0.7c-0.4,0-0.7-0.3-0.7-0.7S374.7,62.9,375.1,62.9z"/>
</g>
<polygon fill-rule="evenodd" clip-rule="evenodd" points="314.1,58.1 359.3,63 359.3,60.6 314.1,55.6 "/>
<polygon fill-rule="evenodd" clip-rule="evenodd" points="314.1,54.4 359.3,59.3 359.3,56.8 314.1,51.9 "/>
<polygon fill-rule="evenodd" clip-rule="evenodd" points="379.1,63 424.2,68 424.2,65.5 379.1,60.6 "/>
<polygon fill-rule="evenodd" clip-rule="evenodd" points="379.1,66.8 424.2,71.7 424.2,69.2 379.1,64.3 "/>
<polygon fill-rule="evenodd" clip-rule="evenodd" points="439.2,73 484.4,77.9 484.4,75.4 439.2,70.5 "/>
<polygon fill-rule="evenodd" clip-rule="evenodd" points="439.2,76.7 484.4,81.6 484.4,79.2 439.2,74.2 "/>
<rect x="53.7" y="34.1" width="10.5" height="0.8"/>
<rect x="53.7" y="39.1" width="10.5" height="0.8"/>
<rect x="62" y="19.8" width="0.5" height="18.9"/>
<g>
	<path d="M55.6,40.3c0-1.8,2.5-3.5,4.5-3.5c1.3,0,2.3,0.7,2.3,1.7c0,1.7-2.5,3.5-4.6,3.5C56.6,42.1,55.6,41.4,55.6,40.3z"/>
</g>
<rect x="68.8" y="34.1" width="10.5" height="0.8"/>
<rect x="77.1" y="18.2" width="0.5" height="18"/>
<g>
	<path d="M70.6,37.9c0-1.8,2.5-3.5,4.5-3.5c1.3,0,2.3,0.7,2.3,1.7c0,1.7-2.5,3.5-4.6,3.5C71.6,39.6,70.6,38.9,70.6,37.9z"/>
</g>
<rect x="83.8" y="34.1" width="10.5" height="0.8"/>
<rect x="92.1" y="16.5" width="0.5" height="17.2"/>
<g>
	<path d="M85.7,35.4c0-1.8,2.5-3.5,4.5-3.5c1.3,0,2.3,0.7,2.3,1.7c0,1.7-2.5,3.5-4.6,3.5C86.6,37.1,85.7,36.5,85.7,35.4z"/>
</g>
<rect x="107.1" y="14.8" width="0.5" height="16.4"/>
<g>
	<path d="M100.7,32.9c0-1.8,2.5-3.5,4.5-3.5c1.3,0,2.3,0.7,2.3,1.7c0,1.7-2.5,3.5-4.6,3.5C101.7,34.6,100.7,34,100.7,32.9z"/>
</g>
<rect x="122.2" y="9.9" width="0.5" height="18.9"/>
<g>
	<path d="M115.7,30.4c0-1.8,2.5-3.5,4.5-3.5c1.3,0,2.3,0.7,2.3,1.7c0,1.7-2.5,3.5-4.6,3.5C116.7,32.1,115.7,31.5,115.7,30.4z"/>
</g>
<rect x="137.2" y="8.3" width="0.5" height="18"/>
<g>
	<path d="M130.8,27.9c0-1.8,2.5-3.5,4.5-3.5c1.3,0,2.3,0.7,2.3,1.7c0,1.7-2.5,3.5-4.6,3.5C131.7,29.7,130.8,29,130.8,27.9z"/>
</g>
<rect x="152.2" y="6.6" width="0.5" height="17.2"/>
<g>
	<path d="M145.8,25.5c0-1.8,2.5-3.5,4.5-3.5c1.3,0,2.3,0.7,2.3,1.7c0,1.7-2.5,3.5-4.6,3.5C146.8,27.2,145.8,26.5,145.8,25.5z"/>
</g>
<rect x="167.3" y="4.9" width="0.5" height="16.4"/>
<g>
	<path d="M160.8,23c0-1.8,2.5-3.5,4.5-3.5c1.3,0,2.3,0.7,2.3,1.7c0,1.7-2.5,3.5-4.6,3.5C161.8,24.7,160.8,24.1,160.8,23z"/>
</g>
<rect x="187.1" y="20.4" width="0.5" height="14"/>
<g>
	<path d="M187.2,20.5c0-1.8,2.5-3.5,4.5-3.5c1.3,0,2.3,0.7,2.3,1.7c0,1.7-2.5,3.5-4.6,3.5C188.2,22.2,187.2,21.6,187.2,20.5z"/>
</g>
<rect x="202.2" y="17.9" width="0.5" height="14.9"/>
<g>
	<path d="M202.2,18c0-1.8,2.5-3.5,4.5-3.5c1.3,0,2.3,0.7,2.3,1.7c0,1.7-2.5,3.5-4.6,3.5C203.2,19.7,202.2,19.1,202.2,18z"/>
</g>
<rect x="217.2" y="15.5" width="0.5" height="15.7"/>
<g>
	<path d="M217.3,15.5c0-1.8,2.5-3.5,4.5-3.5c1.3,0,2.3,0.7,2.3,1.7c0,1.7-2.5,3.5-4.6,3.5C218.2,17.3,217.3,16.6,217.3,15.5z"/>
</g>
<rect x="232.2" y="13" width="0.5" height="16.4"/>
<g>
	<path d="M232.3,13c0-1.8,2.5-3.5,4.5-3.5c1.3,0,2.3,0.7,2.3,1.7c0,1.7-2.5,3.5-4.6,3.5C233.3,14.8,232.3,14.1,232.3,13z"/>
</g>
<rect x="247.3" y="10.5" width="0.5" height="15.2"/>
<g>
	<path d="M247.3,10.6c0-1.8,2.5-3.5,4.5-3.5c1.3,0,2.3,0.7,2.3,1.7c0,1.7-2.5,3.5-4.6,3.5C248.3,12.3,247.3,11.7,247.3,10.6z"/>
</g>
<rect x="262.3" y="8" width="0.5" height="17.4"/>
<g>
	<path d="M262.4,8.1c0-1.8,2.5-3.5,4.5-3.5c1.3,0,2.3,0.7,2.3,1.7c0,1.7-2.5,3.5-4.6,3.5C263.3,9.8,262.4,9.2,262.4,8.1z"/>
</g>
<rect x="275.6" y="4.4" width="10.5" height="0.8"/>
<rect x="277.3" y="5.5" width="0.5" height="19.4"/>
<g>
	<path d="M277.4,5.6c0-1.8,2.5-3.5,4.5-3.5c1.3,0,2.3,0.7,2.3,1.7c0,1.7-2.5,3.5-4.6,3.5C278.4,7.3,277.4,6.7,277.4,5.6z"/>
</g>
<rect x="292.4" y="8" width="0.5" height="16.4"/>
<g>
	<path d="M292.4,8.1c0-1.8,2.5-3.5,4.5-3.5c1.3,0,2.3,0.7,2.3,1.7c0,1.7-2.5,3.5-4.6,3.5C293.4,9.8,292.4,9.2,292.4,8.1z"/>
</g>
<rect x="307.4" y="10.5" width="0.5" height="18.9"/>
<g>
	<path d="M307.5,10.6c0-1.8,2.5-3.5,4.5-3.5c1.3,0,2.3,0.7,2.3,1.7c0,1.7-2.5,3.5-4.6,3.5C308.5,12.3,307.5,11.7,307.5,10.6z"/>
</g>
<rect x="322.4" y="13" width="0.5" height="18"/>
<g>
	<path d="M322.5,13c0-1.8,2.5-3.5,4.5-3.5c1.3,0,2.3,0.7,2.3,1.7c0,1.7-2.5,3.5-4.6,3.5C323.5,14.8,322.5,14.1,322.5,13z"/>
</g>
<rect x="337.5" y="15.5" width="0.5" height="17.2"/>
<g>
	<path d="M337.6,15.5c0-1.8,2.5-3.5,4.5-3.5c1.3,0,2.3,0.7,2.3,1.7c0,1.7-2.5,3.5-4.6,3.5C338.5,17.3,337.6,16.6,337.6,15.5z"/>
</g>
<rect x="352.5" y="17.9" width="0.5" height="16.4"/>
<g>
	<path d="M352.6,18c0-1.8,2.5-3.5,4.5-3.5c1.3,0,2.3,0.7,2.3,1.7c0,1.7-2.5,3.5-4.6,3.5C353.6,19.7,352.6,19.1,352.6,18z"/>
</g>
<rect x="385.4" y="4.9" width="0.5" height="14"/>
<g>
	<path d="M378.9,20.5c0-1.8,2.5-3.5,4.5-3.5c1.3,0,2.3,0.7,2.3,1.7c0,1.7-2.5,3.5-4.6,3.5C379.9,22.2,378.9,21.6,378.9,20.5z"/>
</g>
<rect x="400.4" y="6.5" width="0.5" height="14.9"/>
<g>
	<path d="M394,23c0-1.8,2.5-3.5,4.5-3.5c1.3,0,2.3,0.7,2.3,1.7c0,1.7-2.5,3.5-4.6,3.5C395,24.7,394,24.1,394,23z"/>
</g>
<rect x="415.5" y="8.2" width="0.5" height="15.7"/>
<g>
	<path d="M409,25.5c0-1.8,2.5-3.5,4.5-3.5c1.3,0,2.3,0.7,2.3,1.7c0,1.7-2.5,3.5-4.6,3.5C410,27.2,409,26.5,409,25.5z"/>
</g>
<rect x="430.5" y="9.9" width="0.5" height="16.4"/>
<g>
	<path d="M424.1,27.9c0-1.8,2.5-3.5,4.5-3.5c1.3,0,2.3,0.7,2.3,1.7c0,1.7-2.5,3.5-4.6,3.5C425,29.7,424.1,29,424.1,27.9z"/>
</g>
<rect x="445.5" y="14.8" width="0.5" height="14"/>
<g>
	<path d="M439.1,30.4c0-1.8,2.5-3.5,4.5-3.5c1.3,0,2.3,0.7,2.3,1.7c0,1.7-2.5,3.5-4.6,3.5C440.1,32.1,439.1,31.5,439.1,30.4z"/>
</g>
<rect x="460.6" y="16.4" width="0.5" height="14.9"/>
<g>
	<path d="M454.1,32.9c0-1.8,2.5-3.5,4.5-3.5c1.3,0,2.3,0.7,2.3,1.7c0,1.7-2.5,3.5-4.6,3.5C455.1,34.6,454.1,34,454.1,32.9z"/>
</g>
<rect x="467.3" y="34.1" width="10.5" height="0.8"/>
<rect x="475.6" y="18.1" width="0.5" height="15.7"/>
<g>
	<path d="M469.2,35.4c0-1.8,2.5-3.5,4.5-3.5c1.3,0,2.3,0.7,2.3,1.7c0,1.7-2.5,3.5-4.6,3.5C470.1,37.1,469.2,36.5,469.2,35.4z"/>
</g>
<rect x="482.3" y="34.1" width="10.5" height="0.8"/>
<rect x="490.6" y="19.8" width="0.5" height="16.4"/>
<g>
	<path d="M484.2,37.9c0-1.8,2.5-3.5,4.5-3.5c1.3,0,2.3,0.7,2.3,1.7c0,1.7-2.5,3.5-4.6,3.5C485.2,39.6,484.2,38.9,484.2,37.9z"/>
</g>
<rect x="497.4" y="34.1" width="10.7" height="0.8"/>
<rect x="497.4" y="39.1" width="10.7" height="0.8"/>
<rect x="505.8" y="19.6" width="0.5" height="19.1"/>
<g>
	<path d="M503.5,36.8c1.6,0,2.7,0.7,2.7,2c0,1.9-2.3,3.4-4.5,3.4c-1.3,0-2.4-0.7-2.4-1.8C499.2,38.6,501.5,36.8,503.5,36.8z
		 M499.7,40.6c0,0.6,0.4,0.9,1.1,0.9c1.4,0,4.9-2.1,4.9-3.3c0-0.6-0.4-0.9-1.1-0.9C503.4,37.4,499.7,39.4,499.7,40.6z"/>
</g>
<rect x="55.5" y="70" width="0.5" height="16.4"/>
<g>
	<path d="M55.6,70.1c0-1.8,2.5-3.5,4.5-3.5c1.3,0,2.3,0.7,2.3,1.7c0,1.7-2.5,3.5-4.6,3.5C56.6,71.8,55.6,71.2,55.6,70.1z"/>
</g>
<rect x="70.5" y="67.5" width="0.5" height="17.4"/>
<g>
	<path d="M70.6,67.6c0-1.8,2.5-3.5,4.5-3.5c1.3,0,2.3,0.7,2.3,1.7c0,1.7-2.5,3.5-4.6,3.5C71.6,69.3,70.6,68.7,70.6,67.6z"/>
</g>
<rect x="85.6" y="65.1" width="0.5" height="18.1"/>
<g>
	<path d="M85.7,65.1c0-1.8,2.5-3.5,4.5-3.5c1.3,0,2.3,0.7,2.3,1.7c0,1.7-2.5,3.5-4.6,3.5C86.6,66.9,85.7,66.2,85.7,65.1z"/>
</g>
<rect x="100.6" y="62.6" width="0.5" height="18.9"/>
<g>
	<path d="M100.7,62.7c0-1.8,2.5-3.5,4.5-3.5c1.3,0,2.3,0.7,2.3,1.7c0,1.7-2.5,3.5-4.6,3.5C101.7,64.4,100.7,63.7,100.7,62.7z"/>
</g>
<rect x="115.7" y="60.1" width="0.5" height="16.4"/>
<g>
	<path d="M115.7,60.2c0-1.8,2.5-3.5,4.5-3.5c1.3,0,2.3,0.7,2.3,1.7c0,1.7-2.5,3.5-4.6,3.5C116.7,61.9,115.7,61.3,115.7,60.2z"/>
</g>
<rect x="130.7" y="57.6" width="0.5" height="17.4"/>
<g>
	<path d="M130.8,57.7c0-1.8,2.5-3.5,4.5-3.5c1.3,0,2.3,0.7,2.3,1.7c0,1.7-2.5,3.5-4.6,3.5C131.7,59.4,130.8,58.8,130.8,57.7z"/>
</g>
<rect x="145.7" y="55.1" width="0.5" height="18.1"/>
<g>
	<path d="M145.8,55.2c0-1.8,2.5-3.5,4.5-3.5c1.3,0,2.3,0.7,2.3,1.7c0,1.7-2.5,3.5-4.6,3.5C146.8,56.9,145.8,56.3,145.8,55.2z"/>
</g>
<rect x="159" y="51.5" width="10.5" height="0.8"/>
<rect x="160.8" y="52.7" width="0.5" height="18.9"/>
<g>
	<path d="M160.8,52.7c0-1.8,2.5-3.5,4.5-3.5c1.3,0,2.3,0.7,2.3,1.7c0,1.7-2.5,3.5-4.6,3.5C161.8,54.5,160.8,53.8,160.8,52.7z"/>
</g>
<rect x="193.6" y="62" width="0.5" height="16.4"/>
<g>
	<path d="M187.2,80c0-1.8,2.5-3.5,4.5-3.5c1.3,0,2.3,0.7,2.3,1.7c0,1.7-2.5,3.5-4.6,3.5C188.2,81.7,187.2,81.1,187.2,80z"/>
</g>
<rect x="208.7" y="60.4" width="0.5" height="15.5"/>
<g>
	<path d="M202.2,77.5c0-1.8,2.5-3.5,4.5-3.5c1.3,0,2.3,0.7,2.3,1.7c0,1.7-2.5,3.5-4.6,3.5C203.2,79.3,202.2,78.6,202.2,77.5z"/>
</g>
<rect x="223.7" y="58.7" width="0.5" height="14.7"/>
<g>
	<path d="M217.3,75.1c0-1.8,2.5-3.5,4.5-3.5c1.3,0,2.3,0.7,2.3,1.7c0,1.7-2.5,3.5-4.6,3.5C218.2,76.8,217.3,76.1,217.3,75.1z"/>
</g>
<rect x="238.7" y="57" width="0.5" height="14"/>
<g>
	<path d="M232.3,72.6c0-1.8,2.5-3.5,4.5-3.5c1.3,0,2.3,0.7,2.3,1.7c0,1.7-2.5,3.5-4.6,3.5C233.3,74.3,232.3,73.7,232.3,72.6z"/>
</g>
<rect x="247.3" y="70" width="0.5" height="15.2"/>
<g>
	<path d="M247.3,70.1c0-1.8,2.5-3.5,4.5-3.5c1.3,0,2.3,0.7,2.3,1.7c0,1.7-2.5,3.5-4.6,3.5C248.3,71.8,247.3,71.2,247.3,70.1z"/>
</g>
<rect x="262.3" y="67.5" width="0.5" height="17.4"/>
<g>
	<path d="M262.4,67.6c0-1.8,2.5-3.5,4.5-3.5c1.3,0,2.3,0.7,2.3,1.7c0,1.7-2.5,3.5-4.6,3.5C263.3,69.3,262.4,68.7,262.4,67.6z"/>
</g>
<rect x="277.3" y="65.1" width="0.5" height="19.4"/>
<g>
	<path d="M277.4,65.1c0-1.8,2.5-3.5,4.5-3.5c1.3,0,2.3,0.7,2.3,1.7c0,1.7-2.5,3.5-4.6,3.5C278.4,66.9,277.4,66.2,277.4,65.1z"/>
</g>
<rect x="292.4" y="67.5" width="0.5" height="16.4"/>
<g>
	<path d="M292.4,67.6c0-1.8,2.5-3.5,4.5-3.5c1.3,0,2.3,0.7,2.3,1.7c0,1.7-2.5,3.5-4.6,3.5C293.4,69.3,292.4,68.7,292.4,67.6z"/>
</g>
<rect x="313.9" y="52" width="0.5" height="16.4"/>
<g>
	<path d="M307.5,70.1c0-1.8,2.5-3.5,4.5-3.5c1.3,0,2.3,0.7,2.3,1.7c0,1.7-2.5,3.5-4.6,3.5C308.5,71.8,307.5,71.2,307.5,70.1z"/>
</g>
<rect x="329" y="53.6" width="0.5" height="17.4"/>
<g>
	<path d="M322.5,72.6c0-1.8,2.5-3.5,4.5-3.5c1.3,0,2.3,0.7,2.3,1.7c0,1.7-2.5,3.5-4.6,3.5C323.5,74.3,322.5,73.7,322.5,72.6z"/>
</g>
<rect x="344" y="55.3" width="0.5" height="18.1"/>
<g>
	<path d="M337.6,75.1c0-1.8,2.5-3.5,4.5-3.5c1.3,0,2.3,0.7,2.3,1.7c0,1.7-2.5,3.5-4.6,3.5C338.5,76.8,337.6,76.1,337.6,75.1z"/>
</g>
<rect x="359" y="57" width="0.5" height="18.9"/>
<g>
	<path d="M352.6,77.5c0-1.8,2.5-3.5,4.5-3.5c1.3,0,2.3,0.7,2.3,1.7c0,1.7-2.5,3.5-4.6,3.5C353.6,79.3,352.6,78.6,352.6,77.5z"/>
</g>
<rect x="377.1" y="51.5" width="10.5" height="0.8"/>
<rect x="378.9" y="50.2" width="0.5" height="16.4"/>
<g>
	<path d="M378.9,50.3c0-1.8,2.5-3.5,4.5-3.5c1.3,0,2.3,0.7,2.3,1.7c0,1.7-2.5,3.5-4.6,3.5C379.9,52,378.9,51.3,378.9,50.3z"/>
</g>
<rect x="392.1" y="51.5" width="10.5" height="0.8"/>
<rect x="393.9" y="52.7" width="0.5" height="15.5"/>
<g>
	<path d="M394,52.7c0-1.8,2.5-3.5,4.5-3.5c1.3,0,2.3,0.7,2.3,1.7c0,1.7-2.5,3.5-4.6,3.5C395,54.5,394,53.8,394,52.7z"/>
</g>
<rect x="408.9" y="55.1" width="0.5" height="14.7"/>
<g>
	<path d="M409,55.2c0-1.8,2.5-3.5,4.5-3.5c1.3,0,2.3,0.7,2.3,1.7c0,1.7-2.5,3.5-4.6,3.5C410,56.9,409,56.3,409,55.2z"/>
</g>
<rect x="424" y="57.6" width="0.5" height="14"/>
<g>
	<path d="M424.1,57.7c0-1.8,2.5-3.5,4.5-3.5c1.3,0,2.3,0.7,2.3,1.7c0,1.7-2.5,3.5-4.6,3.5C425,59.4,424.1,58.8,424.1,57.7z"/>
</g>
<rect x="439" y="60.1" width="0.5" height="16.4"/>
<g>
	<path d="M439.1,60.2c0-1.8,2.5-3.5,4.5-3.5c1.3,0,2.3,0.7,2.3,1.7c0,1.7-2.5,3.5-4.6,3.5C440.1,61.9,439.1,61.3,439.1,60.2z"/>
</g>
<rect x="454.1" y="62.6" width="0.5" height="15.5"/>
<g>
	<path d="M454.1,62.7c0-1.8,2.5-3.5,4.5-3.5c1.3,0,2.3,0.7,2.3,1.7c0,1.7-2.5,3.5-4.6,3.5C455.1,64.4,454.1,63.7,454.1,62.7z"/>
</g>
<rect x="469.1" y="65.1" width="0.5" height="14.7"/>
<g>
	<path d="M469.2,65.1c0-1.8,2.5-3.5,4.5-3.5c1.3,0,2.3,0.7,2.3,1.7c0,1.7-2.5,3.5-4.6,3.5C470.1,66.9,469.2,66.2,469.2,65.1z"/>
</g>
<rect x="484.1" y="67.5" width="0.5" height="14"/>
<g>
	<path d="M484.2,67.6c0-1.8,2.5-3.5,4.5-3.5c1.3,0,2.3,0.7,2.3,1.7c0,1.7-2.5,3.5-4.6,3.5C485.2,69.3,484.2,68.7,484.2,67.6z"/>
</g>
<rect x="505.8" y="51.9" width="0.5" height="16.6"/>
<g>
	<path d="M503.5,66.5c1.6,0,2.7,0.7,2.7,2c0,1.9-2.3,3.4-4.5,3.4c-1.3,0-2.4-0.7-2.4-1.8C499.2,68.3,501.5,66.5,503.5,66.5z
		 M499.7,70.4c0,0.6,0.4,0.9,1.1,0.9c1.4,0,4.9-2.1,4.9-3.3c0-0.6-0.4-0.9-1.1-0.9C503.4,67.1,499.7,69.2,499.7,70.4z"/>
</g>
</svg>
