<?xml version="1.0" encoding="utf-8"?>

<!--
	ScaleBook
	Copyright (c) Leland Jansen 2015. All rights reserved.
-->

<!DOCTYPE svg PUBLIC "-//W3C//DTD SVG 1.1//EN" "http://www.w3.org/Graphics/SVG/1.1/DTD/svg11.dtd">
<svg version="1.1" id="Layer_1" xmlns="http://www.w3.org/2000/svg" xmlns:xlink="http://www.w3.org/1999/xlink" x="0px" y="0px"
	 viewBox="0 0 552.9 91.9" enable-background="new 0 0 552.9 91.9" xml:space="preserve">
<rect x="8.4" y="15" width="0.8" height="67"/>
<g>
	<path d="M7.4,15.7c-1.9,1.1-3.6,5.8-3.6,9.4c0,2.3,1.4,9.9,1.4,12.3c0,5-1.5,8.6-4.6,11.1c3,2.4,4.6,6.1,4.6,11.1
		c0,2.3-1.4,9.9-1.4,12.3c0,3.8,1.7,8.4,3.6,9.5V82c-3.5-2.3-5.8-8.2-5.8-13.1c0-2.1,1.7-9.4,1.7-11.5c0-3.8-1-6.6-2.9-8.2
		C0.1,48.9,0,48.7,0,48.5c0-0.2,0.1-0.4,0.5-0.7c1.9-1.7,2.9-4.2,2.9-7.6c0-2.1-1.7-10-1.7-12.2c0-5.2,2.1-10.4,5.8-13.1V15.7z"/>
</g>
<rect x="547.8" y="15" width="0.8" height="67"/>
<rect x="550.4" y="15" width="2.5" height="67"/>
<rect x="8.5" y="34.6" width="544.4" height="0.5"/>
<rect x="8.5" y="29.6" width="544.4" height="0.5"/>
<rect x="8.5" y="24.7" width="544.4" height="0.5"/>
<rect x="8.5" y="19.7" width="544.4" height="0.5"/>
<rect x="8.5" y="14.8" width="544.4" height="0.5"/>
<g>
	<path d="M20.3,34.7c-4.2,0-8.1-3.1-8.1-6.9c0-3.2,2.3-6.7,6.8-10.5c-0.3-1.2-0.4-2.4-0.4-3.6c0-3.5,1.2-6.8,3.2-8.5
		c1.8,2.5,2.7,4.9,2.7,7.1c0,2.9-1.3,5.6-4.3,8.1l0.9,4.2c0.5,0,0.8-0.1,0.8-0.1c2.6,0,4.8,2,4.8,4.7c0,1.9-1.4,3.7-3.6,4.8
		c0-0.1,0.9,3.8,0.9,4.3c0,2.5-2.3,4.2-4.9,4.2c-2,0-3.6-1.3-3.6-3.4c0-1.4,1-2.6,2.4-2.6c1.3,0,2.3,1.3,2.3,2.5
		c0,1.4-1.2,2.3-2.7,2.5c0.6,0.3,1.2,0.5,1.9,0.5c2.1,0,4.1-1.6,4.1-3.6c0-0.2,0-0.4-0.1-0.6l-0.8-3.7
		C21.9,34.5,21.2,34.7,20.3,34.7z M18.1,29.5c0,1,0.5,1.9,1.6,2.5c-1.8-0.3-3-1.4-3-3.1c0-2,1.7-3.7,3.8-4.1l-0.8-4
		C16,23.6,14,26.3,14,28.9c0,2.9,2.8,5.3,6,5.3c0.9,0,1.7-0.2,2.4-0.5L21,26.9C19.4,27.1,18.1,28.1,18.1,29.5z M22.1,8.1
		c-1.6,0-2.9,3.7-2.9,7c0,0.7,0,1.3,0.2,1.9c2.7-2.4,4-4.5,4-6.5c0-0.9-0.3-1.7-1-2.4C22.4,8.1,22.3,8.1,22.1,8.1z M24.9,30
		c0-1.6-1.2-3.3-2.9-3.3c-0.1,0-0.2,0-0.5,0l1.4,6.6C24.2,32.5,24.9,31.3,24.9,30z"/>
</g>
<g>
	<path d="M29.5,16.6h0.6L30,22.9c0.4-0.7,1-1,1.8-1c1.2,0,2.2,0.8,2.2,1.9c0,0.8-0.5,1.8-1.7,2.7l-2.8,2.1V16.6z M30.1,23.5
		C30,24.3,30,24.9,30,25.5c0,1,0,1.6,0.1,2c1-0.7,2.4-2.6,2.4-3.7c0-0.6-0.5-1.1-1.1-1.1C30.8,22.7,30.4,23,30.1,23.5z"/>
</g>
<g>
	<path d="M35.1,9.2h0.6l-0.1,6.2c0.4-0.7,1-1,1.8-1c1.2,0,2.2,0.8,2.2,1.9c0,0.8-0.5,1.8-1.7,2.7l-2.8,2.1V9.2z M35.7,16.1
		c-0.1,0.8-0.1,1.4-0.1,1.9c0,1,0,1.6,0.1,2c1-0.7,2.4-2.6,2.4-3.7c0-0.6-0.5-1.1-1.1-1.1C36.4,15.2,36,15.5,35.7,16.1z"/>
</g>
<g>
	<path d="M40.7,19.1h0.6l-0.1,6.2c0.4-0.7,1-1,1.8-1c1.2,0,2.2,0.8,2.2,1.9c0,0.8-0.5,1.8-1.7,2.7L40.7,31V19.1z M41.3,26
		c-0.1,0.8-0.1,1.4-0.1,1.9c0,1,0,1.6,0.1,2c1-0.7,2.4-2.6,2.4-3.7c0-0.6-0.5-1.1-1.1-1.1C42,25.2,41.6,25.4,41.3,26z"/>
</g>
<g>
	<path d="M46.3,11.6h0.6l-0.1,6.2c0.4-0.7,1-1,1.8-1c1.2,0,2.2,0.8,2.2,1.9c0,0.8-0.5,1.8-1.7,2.7l-2.8,2.1V11.6z M46.9,18.6
		c-0.1,0.8-0.1,1.4-0.1,1.9c0,1,0,1.6,0.1,2c1-0.7,2.4-2.6,2.4-3.7c0-0.6-0.5-1.1-1.1-1.1C47.6,17.7,47.2,18,46.9,18.6z"/>
</g>
<g>
	<path d="M51.9,21.6h0.6l-0.1,6.2c0.4-0.7,1-1,1.8-1c1.2,0,2.2,0.8,2.2,1.9c0,0.8-0.5,1.8-1.7,2.7l-2.8,2.1V21.6z M52.4,28.5
		c-0.1,0.8-0.1,1.4-0.1,1.9c0,1,0,1.6,0.1,2c1-0.7,2.4-2.6,2.4-3.7c0-0.6-0.5-1.1-1.1-1.1C53.2,27.6,52.7,27.9,52.4,28.5z"/>
</g>
<polygon fill-rule="evenodd" clip-rule="evenodd" points="71.6,26.2 115.7,21.2 115.7,18.7 71.6,23.7 "/>
<polygon fill-rule="evenodd" clip-rule="evenodd" points="71.6,22.4 115.7,17.5 115.7,15 71.6,20 "/>
<polygon fill-rule="evenodd" clip-rule="evenodd" points="135.6,41 179.8,36.1 179.8,33.6 135.6,38.6 "/>
<polygon fill-rule="evenodd" clip-rule="evenodd" points="135.6,44.8 179.8,39.8 179.8,37.3 135.6,42.3 "/>
<polygon fill-rule="evenodd" clip-rule="evenodd" points="194.3,31.1 238.5,26.2 238.5,23.7 194.3,28.6 "/>
<polygon fill-rule="evenodd" clip-rule="evenodd" points="194.3,34.8 238.5,29.9 238.5,27.4 194.3,32.4 "/>
<polygon fill-rule="evenodd" clip-rule="evenodd" points="253.2,22.4 297.4,21.2 297.4,18.7 253.2,20 "/>
<polygon fill-rule="evenodd" clip-rule="evenodd" points="253.2,26.2 297.4,24.9 297.4,22.4 253.2,23.7 "/>
<polygon fill-rule="evenodd" clip-rule="evenodd" points="312.1,21.2 356.3,26.2 356.3,23.7 312.1,18.7 "/>
<polygon fill-rule="evenodd" clip-rule="evenodd" points="312.1,24.9 356.3,29.9 356.3,27.4 312.1,22.4 "/>
<polygon fill-rule="evenodd" clip-rule="evenodd" points="371,31.1 415.1,36.1 415.1,33.6 371,28.6 "/>
<polygon fill-rule="evenodd" clip-rule="evenodd" points="371,34.8 415.1,39.8 415.1,37.3 371,32.4 "/>
<polygon fill-rule="evenodd" clip-rule="evenodd" points="447.9,16.2 492.1,21.2 492.1,18.7 447.9,13.8 "/>
<polygon fill-rule="evenodd" clip-rule="evenodd" points="447.9,12.5 492.1,17.5 492.1,15 447.9,10 "/>
<rect x="8.5" y="81.7" width="544.4" height="0.5"/>
<rect x="8.5" y="76.8" width="544.4" height="0.5"/>
<rect x="8.5" y="71.8" width="544.4" height="0.5"/>
<rect x="8.5" y="66.9" width="544.4" height="0.5"/>
<rect x="8.5" y="61.9" width="544.4" height="0.5"/>
<g>
	<path d="M15.7,76.3c2.9-2.6,4.7-6.1,4.7-9.2c0-2.5-1.4-4.4-3.7-4.4c-1.6,0-3.4,1.3-3.4,2.7c0,0.2,0,0.3,0.1,0.3
		c-0.1,0,0.6-0.6,1.4-0.6c0.9,0,1.5,0.8,1.5,1.7c0,1.2-0.9,2.2-2.1,2.2c-1.2,0-2.1-1.3-2.1-2.8c0-2.3,2.3-4.1,4.8-4.1
		c4.7,0,5.9,3.2,5.9,5.8c0,1.6-0.4,2.9-2,5.3c-1.9,3.1-6.4,5.3-8.1,5.3c-0.4,0-0.6-0.2-0.6-0.5C13.8,77.6,14.9,77,15.7,76.3z
		 M25.7,63.6c0.6,0,1,0.4,1,1c0,0.6-0.4,1-1,1s-1-0.4-1-1C24.7,64,25.1,63.6,25.7,63.6z M25.7,68.6c0.6,0,1,0.4,1,1c0,0.6-0.4,1-1,1
		s-1-0.4-1-1C24.7,69,25.1,68.6,25.7,68.6z"/>
</g>
<g>
	<path d="M29.5,68.7h0.6L30,74.9c0.4-0.7,1-1,1.8-1c1.2,0,2.2,0.8,2.2,1.9c0,0.8-0.5,1.8-1.7,2.7l-2.8,2.1V68.7z M30.1,75.6
		C30,76.3,30,77,30,77.5c0,1,0,1.6,0.1,2c1-0.7,2.4-2.6,2.4-3.7c0-0.6-0.5-1.1-1.1-1.1C30.8,74.8,30.4,75,30.1,75.6z"/>
</g>
<g>
	<path d="M35.1,61.3h0.6l-0.1,6.2c0.4-0.7,1-1,1.8-1c1.2,0,2.2,0.8,2.2,1.9c0,0.8-0.5,1.8-1.7,2.7l-2.8,2.1V61.3z M35.7,68.2
		c-0.1,0.8-0.1,1.4-0.1,1.9c0,1,0,1.6,0.1,2c1-0.7,2.4-2.6,2.4-3.7c0-0.6-0.5-1.1-1.1-1.1C36.4,67.3,36,67.6,35.7,68.2z"/>
</g>
<g>
	<path d="M40.7,71.2h0.6l-0.1,6.2c0.4-0.7,1-1,1.8-1c1.2,0,2.2,0.8,2.2,1.9c0,0.8-0.5,1.8-1.7,2.7l-2.8,2.1V71.2z M41.3,78.1
		c-0.1,0.8-0.1,1.4-0.1,1.9c0,1,0,1.6,0.1,2c1-0.7,2.4-2.6,2.4-3.7c0-0.6-0.5-1.1-1.1-1.1C42,77.2,41.6,77.5,41.3,78.1z"/>
</g>
<g>
	<path d="M46.3,63.7h0.6L46.8,70c0.4-0.7,1-1,1.8-1c1.2,0,2.2,0.8,2.2,1.9c0,0.8-0.5,1.8-1.7,2.7l-2.8,2.1V63.7z M46.9,70.6
		c-0.1,0.8-0.1,1.4-0.1,1.9c0,1,0,1.6,0.1,2c1-0.7,2.4-2.6,2.4-3.7c0-0.6-0.5-1.1-1.1-1.1C47.6,69.8,47.2,70.1,46.9,70.6z"/>
</g>
<g>
	<path d="M51.9,73.7h0.6l-0.1,6.2c0.4-0.7,1-1,1.8-1c1.2,0,2.2,0.8,2.2,1.9c0,0.8-0.5,1.8-1.7,2.7l-2.8,2.1V73.7z M52.4,80.6
		c-0.1,0.8-0.1,1.4-0.1,1.9c0,1,0,1.6,0.1,2c1-0.7,2.4-2.6,2.4-3.7c0-0.6-0.5-1.1-1.1-1.1C53.2,79.7,52.7,80,52.4,80.6z"/>
</g>
<g>
	<path d="M127.6,80.6c-3.2,0-6.1-2.3-6.1-5.1c0-2.4,1.7-5,5.1-7.9c-0.2-0.9-0.3-1.8-0.3-2.7c0-2.6,0.9-5.1,2.4-6.3
		c1.4,1.9,2,3.7,2,5.3c0,2.2-1,4.2-3.2,6.1l0.7,3.1c0.4,0,0.6,0,0.6,0c2,0,3.6,1.5,3.6,3.5c0,1.4-1.1,2.8-2.7,3.6
		c0-0.1,0.6,2.8,0.6,3.3c0,1.9-1.7,3.2-3.7,3.2c-1.5,0-2.7-1-2.7-2.5c0-1.1,0.7-1.9,1.8-1.9c1,0,1.7,1,1.7,1.9c0,1-0.9,1.7-2,1.8
		c0.4,0.2,0.9,0.3,1.4,0.3c1.6,0,3.1-1.2,3.1-2.7c0-0.1,0-0.3,0-0.5l-0.6-2.8C128.8,80.5,128.2,80.6,127.6,80.6z M125.9,76.7
		c0,0.8,0.4,1.4,1.2,1.9c-1.3-0.2-2.2-1.1-2.2-2.3c0-1.5,1.3-2.8,2.9-3.1l-0.6-3c-2.8,2.1-4.3,4.1-4.3,6.1c0,2.2,2.1,4,4.5,4
		c0.7,0,1.3-0.1,1.8-0.4l-1.1-5.1C126.9,74.9,125.9,75.7,125.9,76.7z M128.9,60.7c-1.2,0-2.2,2.8-2.2,5.3c0,0.5,0,1,0.1,1.4
		c2-1.8,3-3.4,3-4.9c0-0.7-0.3-1.3-0.7-1.8C129.1,60.7,129,60.7,128.9,60.7z M131,77.1c0-1.2-0.9-2.4-2.2-2.4c0,0-0.2,0-0.4,0l1.1,5
		C130.5,78.9,131,78.1,131,77.1z"/>
</g>
<polygon fill-rule="evenodd" clip-rule="evenodd" points="65,78.2 109.2,73.3 109.2,70.8 65,75.8 "/>
<polygon fill-rule="evenodd" clip-rule="evenodd" points="65,82 109.2,77 109.2,74.5 65,79.5 "/>
<polygon fill-rule="evenodd" clip-rule="evenodd" points="142.1,73.3 186.3,68.3 186.3,65.8 142.1,70.8 "/>
<polygon fill-rule="evenodd" clip-rule="evenodd" points="142.1,69.6 186.3,64.6 186.3,62.1 142.1,67.1 "/>
<polygon fill-rule="evenodd" clip-rule="evenodd" points="200.8,63.4 245,58.4 245,55.9 200.8,60.9 "/>
<polygon fill-rule="evenodd" clip-rule="evenodd" points="200.8,59.6 245,54.7 245,52.2 200.8,57.2 "/>
<polygon fill-rule="evenodd" clip-rule="evenodd" points="253.2,79.5 297.4,78.2 297.4,75.8 253.2,77 "/>
<polygon fill-rule="evenodd" clip-rule="evenodd" points="253.2,83.2 297.4,82 297.4,79.5 253.2,80.7 "/>
<polygon fill-rule="evenodd" clip-rule="evenodd" points="312.1,83.2 356.3,88.2 356.3,85.7 312.1,80.7 "/>
<polygon fill-rule="evenodd" clip-rule="evenodd" points="312.1,86.9 356.3,91.9 356.3,89.4 312.1,84.4 "/>
<g>
	<path d="M430,74c2.2-2,3.6-4.6,3.6-6.9c0-1.9-1.1-3.3-2.8-3.3c-1.2,0-2.5,1-2.5,2.1c0,0.2,0,0.2,0.1,0.2c0,0,0.4-0.5,1-0.5
		c0.7,0,1.2,0.6,1.2,1.3c0,0.9-0.6,1.7-1.6,1.7s-1.5-1-1.5-2.1c0-1.8,1.7-3.1,3.6-3.1c3.5,0,4.4,2.4,4.4,4.4c0,1.2-0.3,2.2-1.5,4
		c-1.4,2.3-4.8,4-6,4c-0.3,0-0.5-0.1-0.5-0.3C428.5,75,429.4,74.5,430,74z M437.4,64.5c0.4,0,0.7,0.3,0.7,0.7c0,0.4-0.3,0.7-0.7,0.7
		c-0.4,0-0.7-0.3-0.7-0.7C436.7,64.8,437,64.5,437.4,64.5z M437.4,68.2c0.4,0,0.7,0.3,0.7,0.7s-0.3,0.7-0.7,0.7
		c-0.4,0-0.7-0.3-0.7-0.7S437,68.2,437.4,68.2z"/>
</g>
<polygon fill-rule="evenodd" clip-rule="evenodd" points="377.6,68.3 421.6,73.3 421.6,70.8 377.6,65.8 "/>
<polygon fill-rule="evenodd" clip-rule="evenodd" points="377.6,64.6 421.6,69.6 421.6,67.1 377.6,62.1 "/>
<polygon fill-rule="evenodd" clip-rule="evenodd" points="441.4,73.3 485.6,78.2 485.6,75.8 441.4,70.8 "/>
<polygon fill-rule="evenodd" clip-rule="evenodd" points="441.4,77 485.6,82 485.6,79.5 441.4,74.5 "/>
<rect x="71.3" y="20.1" width="0.5" height="16.4"/>
<g>
	<path d="M64.9,38.2c0-1.8,2.5-3.5,4.5-3.5c1.3,0,2.3,0.7,2.3,1.7c0,1.7-2.5,3.5-4.6,3.5C65.9,39.9,64.9,39.3,64.9,38.2z"/>
</g>
<rect x="86" y="18.6" width="0.5" height="15.5"/>
<g>
	<path d="M79.6,35.7c0-1.8,2.5-3.5,4.5-3.5c1.3,0,2.3,0.7,2.3,1.7c0,1.7-2.5,3.5-4.6,3.5C80.6,37.4,79.6,36.8,79.6,35.7z"/>
</g>
<rect x="100.8" y="16.9" width="0.5" height="14.7"/>
<g>
	<path d="M94.3,33.2c0-1.8,2.5-3.5,4.5-3.5c1.3,0,2.3,0.7,2.3,1.7c0,1.7-2.5,3.5-4.6,3.5C95.3,34.9,94.3,34.3,94.3,33.2z"/>
</g>
<rect x="115.5" y="15.2" width="0.5" height="14"/>
<g>
	<path d="M109.1,30.7c0-1.8,2.5-3.5,4.5-3.5c1.3,0,2.3,0.7,2.3,1.7c0,1.7-2.5,3.5-4.6,3.5C110,32.5,109.1,31.8,109.1,30.7z"/>
</g>
<rect x="135.3" y="28.2" width="0.5" height="16.4"/>
<g>
	<path d="M135.4,28.3c0-1.8,2.5-3.5,4.5-3.5c1.3,0,2.3,0.7,2.3,1.7c0,1.7-2.5,3.5-4.6,3.5C136.4,30,135.4,29.3,135.4,28.3z"/>
</g>
<rect x="150.1" y="25.7" width="0.5" height="17.4"/>
<g>
	<path d="M150.1,25.8c0-1.8,2.5-3.5,4.5-3.5c1.3,0,2.3,0.7,2.3,1.7c0,1.7-2.5,3.5-4.6,3.5C151.1,27.5,150.1,26.9,150.1,25.8z"/>
</g>
<rect x="164.8" y="23.2" width="0.5" height="18.1"/>
<g>
	<path d="M164.9,23.3c0-1.8,2.5-3.5,4.5-3.5c1.3,0,2.3,0.7,2.3,1.7c0,1.7-2.5,3.5-4.6,3.5C165.8,25,164.9,24.4,164.9,23.3z"/>
</g>
<rect x="179.5" y="20.7" width="0.5" height="18.9"/>
<g>
	<path d="M179.6,20.8c0-1.8,2.5-3.5,4.5-3.5c1.3,0,2.3,0.7,2.3,1.7c0,1.7-2.5,3.5-4.6,3.5C180.6,22.5,179.6,21.9,179.6,20.8z"/>
</g>
<rect x="194.1" y="18.3" width="0.5" height="16.4"/>
<g>
	<path d="M194.2,18.3c0-1.8,2.5-3.5,4.5-3.5c1.3,0,2.3,0.7,2.3,1.7c0,1.7-2.5,3.5-4.6,3.5C195.1,20.1,194.2,19.4,194.2,18.3z"/>
</g>
<rect x="208.8" y="15.8" width="0.5" height="17.4"/>
<g>
	<path d="M208.9,15.9c0-1.8,2.5-3.5,4.5-3.5c1.3,0,2.3,0.7,2.3,1.7c0,1.7-2.5,3.5-4.6,3.5C209.9,17.6,208.9,16.9,208.9,15.9z"/>
</g>
<rect x="223.5" y="13.3" width="0.5" height="18.1"/>
<g>
	<path d="M223.6,13.4c0-1.8,2.5-3.5,4.5-3.5c1.3,0,2.3,0.7,2.3,1.7c0,1.7-2.5,3.5-4.6,3.5C224.6,15.1,223.6,14.5,223.6,13.4z"/>
</g>
<rect x="236.5" y="9.7" width="10.5" height="0.8"/>
<rect x="238.3" y="10.8" width="0.5" height="18.9"/>
<g>
	<path d="M238.3,10.9c0-1.8,2.5-3.5,4.5-3.5c1.3,0,2.3,0.7,2.3,1.7c0,1.7-2.5,3.5-4.6,3.5C239.3,12.6,238.3,12,238.3,10.9z"/>
</g>
<rect x="251.2" y="9.7" width="10.5" height="0.8"/>
<rect x="253" y="8.3" width="0.5" height="17.7"/>
<g>
	<path d="M253.1,8.4c0-1.8,2.5-3.5,4.5-3.5c1.3,0,2.3,0.7,2.3,1.7c0,1.7-2.5,3.5-4.6,3.5C254,10.1,253.1,9.5,253.1,8.4z"/>
</g>
<rect x="265.9" y="9.7" width="10.5" height="0.8"/>
<rect x="265.9" y="4.7" width="10.5" height="0.8"/>
<rect x="267.7" y="5.9" width="0.5" height="19.8"/>
<g>
	<path d="M267.8,5.9c0-1.8,2.5-3.5,4.5-3.5c1.3,0,2.3,0.7,2.3,1.7c0,1.7-2.5,3.5-4.6,3.5C268.8,7.7,267.8,7,267.8,5.9z"/>
</g>
<rect x="280.7" y="9.7" width="10.5" height="0.8"/>
<rect x="280.7" y="4.7" width="10.5" height="0.8"/>
<rect x="282.4" y="3.4" width="0.5" height="21.9"/>
<g>
	<path d="M282.5,3.5c0-1.8,2.5-3.5,4.5-3.5c1.3,0,2.3,0.7,2.3,1.7c0,1.7-2.5,3.5-4.6,3.5C283.5,5.2,282.5,4.5,282.5,3.5z"/>
</g>
<rect x="295.4" y="9.7" width="10.5" height="0.8"/>
<rect x="295.4" y="4.7" width="10.5" height="0.8"/>
<rect x="297.2" y="5.9" width="0.5" height="18.9"/>
<g>
	<path d="M297.3,5.9c0-1.8,2.5-3.5,4.5-3.5c1.3,0,2.3,0.7,2.3,1.7c0,1.7-2.5,3.5-4.6,3.5C298.2,7.7,297.3,7,297.3,5.9z"/>
</g>
<rect x="310.1" y="9.7" width="10.5" height="0.8"/>
<rect x="311.9" y="8.3" width="0.5" height="16.4"/>
<g>
	<path d="M312,8.4c0-1.8,2.5-3.5,4.5-3.5c1.3,0,2.3,0.7,2.3,1.7c0,1.7-2.5,3.5-4.6,3.5C313,10.1,312,9.5,312,8.4z"/>
</g>
<rect x="324.8" y="9.7" width="10.5" height="0.8"/>
<rect x="326.6" y="10.8" width="0.5" height="15.5"/>
<g>
	<path d="M326.7,10.9c0-1.8,2.5-3.5,4.5-3.5c1.3,0,2.3,0.7,2.3,1.7c0,1.7-2.5,3.5-4.6,3.5C327.7,12.6,326.7,12,326.7,10.9z"/>
</g>
<rect x="341.4" y="13.3" width="0.5" height="14.7"/>
<g>
	<path d="M341.4,13.4c0-1.8,2.5-3.5,4.5-3.5c1.3,0,2.3,0.7,2.3,1.7c0,1.7-2.5,3.5-4.6,3.5C342.4,15.1,341.4,14.5,341.4,13.4z"/>
</g>
<rect x="356.1" y="15.8" width="0.5" height="14"/>
<g>
	<path d="M356.2,15.9c0-1.8,2.5-3.5,4.5-3.5c1.3,0,2.3,0.7,2.3,1.7c0,1.7-2.5,3.5-4.6,3.5C357.1,17.6,356.2,16.9,356.2,15.9z"/>
</g>
<rect x="370.8" y="18.3" width="0.5" height="16.4"/>
<g>
	<path d="M370.9,18.3c0-1.8,2.5-3.5,4.5-3.5c1.3,0,2.3,0.7,2.3,1.7c0,1.7-2.5,3.5-4.6,3.5C371.9,20.1,370.9,19.4,370.9,18.3z"/>
</g>
<rect x="385.5" y="20.7" width="0.5" height="15.5"/>
<g>
	<path d="M385.6,20.8c0-1.8,2.5-3.5,4.5-3.5c1.3,0,2.3,0.7,2.3,1.7c0,1.7-2.5,3.5-4.6,3.5C386.6,22.5,385.6,21.9,385.6,20.8z"/>
</g>
<rect x="400.1" y="23.2" width="0.5" height="14.7"/>
<g>
	<path d="M400.2,23.3c0-1.8,2.5-3.5,4.5-3.5c1.3,0,2.3,0.7,2.3,1.7c0,1.7-2.5,3.5-4.6,3.5C401.2,25,400.2,24.4,400.2,23.3z"/>
</g>
<rect x="414.8" y="25.7" width="0.5" height="14"/>
<g>
	<path d="M414.9,25.8c0-1.8,2.5-3.5,4.5-3.5c1.3,0,2.3,0.7,2.3,1.7c0,1.7-2.5,3.5-4.6,3.5C415.9,27.5,414.9,26.9,414.9,25.8z"/>
</g>
<rect x="447.7" y="10.2" width="0.5" height="16.4"/>
<g>
	<path d="M441.3,28.3c0-1.8,2.5-3.5,4.5-3.5c1.3,0,2.3,0.7,2.3,1.7c0,1.7-2.5,3.5-4.6,3.5C442.2,30,441.3,29.3,441.3,28.3z"/>
</g>
<rect x="462.4" y="11.7" width="0.5" height="17.4"/>
<g>
	<path d="M456,30.7c0-1.8,2.5-3.5,4.5-3.5c1.3,0,2.3,0.7,2.3,1.7c0,1.7-2.5,3.5-4.6,3.5C457,32.5,456,31.8,456,30.7z"/>
</g>
<rect x="477.1" y="13.4" width="0.5" height="18.1"/>
<g>
	<path d="M470.7,33.2c0-1.8,2.5-3.5,4.5-3.5c1.3,0,2.3,0.7,2.3,1.7c0,1.7-2.5,3.5-4.6,3.5C471.7,34.9,470.7,34.3,470.7,33.2z"/>
</g>
<rect x="491.9" y="15.2" width="0.5" height="18.9"/>
<g>
	<path d="M485.4,35.7c0-1.8,2.5-3.5,4.5-3.5c1.3,0,2.3,0.7,2.3,1.7c0,1.7-2.5,3.5-4.6,3.5C486.4,37.4,485.4,36.8,485.4,35.7z"/>
</g>
<rect x="506.8" y="20" width="0.5" height="16.6"/>
<g>
	<path d="M504.4,34.6c1.6,0,2.7,0.7,2.7,2c0,1.9-2.3,3.4-4.5,3.4c-1.3,0-2.4-0.7-2.4-1.8C500.2,36.4,502.4,34.6,504.4,34.6z
		 M500.6,38.5c0,0.6,0.4,0.9,1.1,0.9c1.4,0,4.9-2.1,4.9-3.3c0-0.6-0.4-0.9-1.1-0.9C504.3,35.2,500.6,37.2,500.6,38.5z"/>
</g>
<rect x="64.8" y="67.9" width="0.5" height="14"/>
<g>
	<path d="M64.9,67.9c0-1.8,2.5-3.5,4.5-3.5c1.3,0,2.3,0.7,2.3,1.7c0,1.7-2.5,3.5-4.6,3.5C65.9,69.7,64.9,69,64.9,67.9z"/>
</g>
<rect x="79.5" y="65.4" width="0.5" height="14.9"/>
<g>
	<path d="M79.6,65.5c0-1.8,2.5-3.5,4.5-3.5c1.3,0,2.3,0.7,2.3,1.7c0,1.7-2.5,3.5-4.6,3.5C80.6,67.2,79.6,66.5,79.6,65.5z"/>
</g>
<rect x="94.3" y="62.9" width="0.5" height="15.7"/>
<g>
	<path d="M94.3,63c0-1.8,2.5-3.5,4.5-3.5c1.3,0,2.3,0.7,2.3,1.7c0,1.7-2.5,3.5-4.6,3.5C95.3,64.7,94.3,64.1,94.3,63z"/>
</g>
<rect x="109" y="60.4" width="0.5" height="16.4"/>
<g>
	<path d="M109.1,60.5c0-1.8,2.5-3.5,4.5-3.5c1.3,0,2.3,0.7,2.3,1.7c0,1.7-2.5,3.5-4.6,3.5C110,62.2,109.1,61.6,109.1,60.5z"/>
</g>
<rect x="133.6" y="86.5" width="10.5" height="0.8"/>
<rect x="141.9" y="67.2" width="0.5" height="18.9"/>
<g>
	<path d="M135.4,87.8c0-1.8,2.5-3.5,4.5-3.5c1.3,0,2.3,0.7,2.3,1.7c0,1.7-2.5,3.5-4.6,3.5C136.4,89.5,135.4,88.9,135.4,87.8z"/>
</g>
<rect x="156.6" y="65.7" width="0.5" height="18"/>
<g>
	<path d="M150.1,85.3c0-1.8,2.5-3.5,4.5-3.5c1.3,0,2.3,0.7,2.3,1.7c0,1.7-2.5,3.5-4.6,3.5C151.1,87,150.1,86.4,150.1,85.3z"/>
</g>
<rect x="171.3" y="64" width="0.5" height="17.2"/>
<g>
	<path d="M164.9,82.8c0-1.8,2.5-3.5,4.5-3.5c1.3,0,2.3,0.7,2.3,1.7c0,1.7-2.5,3.5-4.6,3.5C165.8,84.5,164.9,83.9,164.9,82.8z"/>
</g>
<rect x="186" y="62.3" width="0.5" height="16.4"/>
<g>
	<path d="M179.6,80.3c0-1.8,2.5-3.5,4.5-3.5c1.3,0,2.3,0.7,2.3,1.7c0,1.7-2.5,3.5-4.6,3.5C180.6,82.1,179.6,81.4,179.6,80.3z"/>
</g>
<rect x="200.6" y="57.3" width="0.5" height="18.9"/>
<g>
	<path d="M194.2,77.9c0-1.8,2.5-3.5,4.5-3.5c1.3,0,2.3,0.7,2.3,1.7c0,1.7-2.5,3.5-4.6,3.5C195.1,79.6,194.2,78.9,194.2,77.9z"/>
</g>
<rect x="215.3" y="55.8" width="0.5" height="18"/>
<g>
	<path d="M208.9,75.4c0-1.8,2.5-3.5,4.5-3.5c1.3,0,2.3,0.7,2.3,1.7c0,1.7-2.5,3.5-4.6,3.5C209.9,77.1,208.9,76.5,208.9,75.4z"/>
</g>
<rect x="230.1" y="54.1" width="0.5" height="17.2"/>
<g>
	<path d="M223.6,72.9c0-1.8,2.5-3.5,4.5-3.5c1.3,0,2.3,0.7,2.3,1.7c0,1.7-2.5,3.5-4.6,3.5C224.6,74.6,223.6,74,223.6,72.9z"/>
</g>
<rect x="244.8" y="52.4" width="0.5" height="16.4"/>
<g>
	<path d="M238.3,70.4c0-1.8,2.5-3.5,4.5-3.5c1.3,0,2.3,0.7,2.3,1.7c0,1.7-2.5,3.5-4.6,3.5C239.3,72.1,238.3,71.5,238.3,70.4z"/>
</g>
<rect x="253" y="67.9" width="0.5" height="15.2"/>
<g>
	<path d="M253.1,67.9c0-1.8,2.5-3.5,4.5-3.5c1.3,0,2.3,0.7,2.3,1.7c0,1.7-2.5,3.5-4.6,3.5C254,69.7,253.1,69,253.1,67.9z"/>
</g>
<rect x="267.7" y="65.4" width="0.5" height="17.4"/>
<g>
	<path d="M267.8,65.5c0-1.8,2.5-3.5,4.5-3.5c1.3,0,2.3,0.7,2.3,1.7c0,1.7-2.5,3.5-4.6,3.5C268.8,67.2,267.8,66.5,267.8,65.5z"/>
</g>
<rect x="282.4" y="62.9" width="0.5" height="19.4"/>
<g>
	<path d="M282.5,63c0-1.8,2.5-3.5,4.5-3.5c1.3,0,2.3,0.7,2.3,1.7c0,1.7-2.5,3.5-4.6,3.5C283.5,64.7,282.5,64.1,282.5,63z"/>
</g>
<rect x="297.2" y="65.4" width="0.5" height="16.4"/>
<g>
	<path d="M297.3,65.5c0-1.8,2.5-3.5,4.5-3.5c1.3,0,2.3,0.7,2.3,1.7c0,1.7-2.5,3.5-4.6,3.5C298.2,67.2,297.3,66.5,297.3,65.5z"/>
</g>
<rect x="311.9" y="67.9" width="0.5" height="18.9"/>
<g>
	<path d="M312,67.9c0-1.8,2.5-3.5,4.5-3.5c1.3,0,2.3,0.7,2.3,1.7c0,1.7-2.5,3.5-4.6,3.5C313,69.7,312,69,312,67.9z"/>
</g>
<rect x="326.6" y="70.3" width="0.5" height="18"/>
<g>
	<path d="M326.7,70.4c0-1.8,2.5-3.5,4.5-3.5c1.3,0,2.3,0.7,2.3,1.7c0,1.7-2.5,3.5-4.6,3.5C327.7,72.1,326.7,71.5,326.7,70.4z"/>
</g>
<rect x="341.4" y="72.8" width="0.5" height="17.2"/>
<g>
	<path d="M341.4,72.9c0-1.8,2.5-3.5,4.5-3.5c1.3,0,2.3,0.7,2.3,1.7c0,1.7-2.5,3.5-4.6,3.5C342.4,74.6,341.4,74,341.4,72.9z"/>
</g>
<rect x="356.1" y="75.3" width="0.5" height="16.4"/>
<g>
	<path d="M356.2,75.4c0-1.8,2.5-3.5,4.5-3.5c1.3,0,2.3,0.7,2.3,1.7c0,1.7-2.5,3.5-4.6,3.5C357.1,77.1,356.2,76.5,356.2,75.4z"/>
</g>
<rect x="377.3" y="62.3" width="0.5" height="14"/>
<g>
	<path d="M370.9,77.9c0-1.8,2.5-3.5,4.5-3.5c1.3,0,2.3,0.7,2.3,1.7c0,1.7-2.5,3.5-4.6,3.5C371.9,79.6,370.9,78.9,370.9,77.9z"/>
</g>
<rect x="392" y="63.8" width="0.5" height="14.9"/>
<g>
	<path d="M385.6,80.3c0-1.8,2.5-3.5,4.5-3.5c1.3,0,2.3,0.7,2.3,1.7c0,1.7-2.5,3.5-4.6,3.5C386.6,82.1,385.6,81.4,385.6,80.3z"/>
</g>
<rect x="406.6" y="65.5" width="0.5" height="15.7"/>
<g>
	<path d="M400.2,82.8c0-1.8,2.5-3.5,4.5-3.5c1.3,0,2.3,0.7,2.3,1.7c0,1.7-2.5,3.5-4.6,3.5C401.2,84.5,400.2,83.9,400.2,82.8z"/>
</g>
<rect x="421.3" y="67.2" width="0.5" height="16.4"/>
<g>
	<path d="M414.9,85.3c0-1.8,2.5-3.5,4.5-3.5c1.3,0,2.3,0.7,2.3,1.7c0,1.7-2.5,3.5-4.6,3.5C415.9,87,414.9,86.4,414.9,85.3z"/>
</g>
<rect x="439.4" y="56.8" width="10.5" height="0.8"/>
<rect x="441.2" y="57.9" width="0.5" height="18.9"/>
<g>
	<path d="M441.3,58c0-1.8,2.5-3.5,4.5-3.5c1.3,0,2.3,0.7,2.3,1.7c0,1.7-2.5,3.5-4.6,3.5C442.2,59.7,441.3,59.1,441.3,58z"/>
</g>
<rect x="455.9" y="60.4" width="0.5" height="18"/>
<g>
	<path d="M456,60.5c0-1.8,2.5-3.5,4.5-3.5c1.3,0,2.3,0.7,2.3,1.7c0,1.7-2.5,3.5-4.6,3.5C457,62.2,456,61.6,456,60.5z"/>
</g>
<rect x="470.6" y="62.9" width="0.5" height="17.2"/>
<g>
	<path d="M470.7,63c0-1.8,2.5-3.5,4.5-3.5c1.3,0,2.3,0.7,2.3,1.7c0,1.7-2.5,3.5-4.6,3.5C471.7,64.7,470.7,64.1,470.7,63z"/>
</g>
<rect x="485.4" y="65.4" width="0.5" height="16.4"/>
<g>
	<path d="M485.4,65.5c0-1.8,2.5-3.5,4.5-3.5c1.3,0,2.3,0.7,2.3,1.7c0,1.7-2.5,3.5-4.6,3.5C486.4,67.2,485.4,66.5,485.4,65.5z"/>
</g>
<rect x="500.1" y="67.9" width="0.5" height="16.6"/>
<g>
	<path d="M504.4,64.4c1.6,0,2.7,0.7,2.7,2c0,1.9-2.3,3.4-4.5,3.4c-1.3,0-2.4-0.7-2.4-1.8C500.2,66.2,502.4,64.4,504.4,64.4z
		 M500.6,68.2c0,0.6,0.4,0.9,1.1,0.9c1.4,0,4.9-2.1,4.9-3.3c0-0.6-0.4-0.9-1.1-0.9C504.3,65,500.6,67,500.6,68.2z"/>
</g>
</svg>
