<?xml version="1.0" encoding="utf-8"?>

<!--
	ScaleBook
	Copyright (c) Leland Jansen 2015. All rights reserved.
-->

<!DOCTYPE svg PUBLIC "-//W3C//DTD SVG 1.1//EN" "http://www.w3.org/Graphics/SVG/1.1/DTD/svg11.dtd">
<svg version="1.1" id="Layer_1" xmlns="http://www.w3.org/2000/svg" xmlns:xlink="http://www.w3.org/1999/xlink" x="0px" y="0px"
	 viewBox="0 0 552.9 99.5" enable-background="new 0 0 552.9 99.5" xml:space="preserve">
<rect x="8.4" y="17.5" width="0.8" height="67"/>
<g>
	<path d="M7.4,18.1c-1.9,1.1-3.6,5.8-3.6,9.4c0,2.3,1.4,9.9,1.4,12.3c0,5-1.5,8.6-4.6,11.1c3,2.4,4.6,6.1,4.6,11.1
		c0,2.3-1.4,9.9-1.4,12.3c0,3.8,1.7,8.4,3.6,9.5v0.7c-3.5-2.3-5.8-8.2-5.8-13.1c0-2.1,1.7-9.4,1.7-11.5c0-3.8-1-6.6-2.9-8.2
		C0.1,51.4,0,51.2,0,51c0-0.2,0.1-0.4,0.5-0.7c1.9-1.7,2.9-4.2,2.9-7.6c0-2.1-1.7-10-1.7-12.2c0-5.2,2.1-10.4,5.8-13.1V18.1z"/>
</g>
<rect x="547.8" y="17.5" width="0.8" height="67"/>
<rect x="550.4" y="17.5" width="2.5" height="67"/>
<rect x="8.5" y="37.1" width="544.4" height="0.5"/>
<rect x="8.5" y="32.1" width="544.4" height="0.5"/>
<rect x="8.5" y="27.2" width="544.4" height="0.5"/>
<rect x="8.5" y="22.2" width="544.4" height="0.5"/>
<rect x="8.5" y="17.2" width="544.4" height="0.5"/>
<g>
	<path d="M20.3,37.2c-4.2,0-8.1-3.1-8.1-6.9c0-3.2,2.3-6.7,6.8-10.5c-0.3-1.2-0.4-2.4-0.4-3.6c0-3.5,1.2-6.8,3.2-8.5
		c1.8,2.5,2.7,4.9,2.7,7.1c0,2.9-1.3,5.6-4.3,8.1l0.9,4.2c0.5,0,0.8-0.1,0.8-0.1c2.6,0,4.8,2,4.8,4.7c0,1.9-1.4,3.7-3.6,4.8
		c0-0.1,0.9,3.8,0.9,4.3c0,2.5-2.3,4.2-4.9,4.2c-2,0-3.6-1.3-3.6-3.4c0-1.4,1-2.6,2.4-2.6c1.3,0,2.3,1.3,2.3,2.5
		c0,1.4-1.2,2.3-2.7,2.5c0.6,0.3,1.2,0.5,1.9,0.5c2.1,0,4.1-1.6,4.1-3.6c0-0.2,0-0.4-0.1-0.6l-0.8-3.7C21.9,37,21.2,37.2,20.3,37.2z
		 M18.1,31.9c0,1,0.5,1.9,1.6,2.5c-1.8-0.3-3-1.4-3-3.1c0-2,1.7-3.7,3.8-4.1l-0.8-4C16,26,14,28.7,14,31.4c0,2.9,2.8,5.3,6,5.3
		c0.9,0,1.7-0.2,2.4-0.5L21,29.3C19.4,29.6,18.1,30.6,18.1,31.9z M22.1,10.6c-1.6,0-2.9,3.7-2.9,7c0,0.7,0,1.3,0.2,1.9
		c2.7-2.4,4-4.5,4-6.5c0-0.9-0.3-1.7-1-2.4C22.4,10.6,22.3,10.6,22.1,10.6z M24.9,32.5c0-1.6-1.2-3.3-2.9-3.3c-0.1,0-0.2,0-0.5,0
		l1.4,6.6C24.2,34.9,24.9,33.8,24.9,32.5z"/>
</g>
<g>
	<path d="M33.5,10.7v2.8l1-0.3V15l-1,0.3v3.4l1-0.3v1.8l-1,0.3v3.1H33v-3l-1.9,0.6v3h-0.5v-2.8l-1,0.3V20l1-0.3v-3.4l-1,0.3v-1.8
		l1-0.3v-3.1h0.5v3l1.9-0.6v-3H33.5z M33,15.4l-1.9,0.6v3.4l1.9-0.6V15.4z"/>
</g>
<g>
	<path d="M39.7,18.1v2.8l1-0.3v1.8l-1,0.3v3.4l1-0.3v1.8l-1,0.3v3.1h-0.5v-3l-1.9,0.6v3h-0.5v-2.8l-1,0.3v-1.8l1-0.3v-3.4l-1,0.3
		v-1.8l1-0.3v-3.1h0.5v3l1.9-0.6v-3H39.7z M39.2,22.9l-1.9,0.6v3.4l1.9-0.6V22.9z"/>
</g>
<g>
	<path d="M45.9,8.2V11l1-0.3v1.8l-1,0.3v3.4l1-0.3v1.8l-1,0.3v3.1h-0.5v-3l-1.9,0.6v3H43V19l-1,0.3v-1.8l1-0.3v-3.4l-1,0.3v-1.8
		l1-0.3V8.8h0.5v3l1.9-0.6v-3H45.9z M45.4,13l-1.9,0.6V17l1.9-0.6V13z"/>
</g>
<g>
	<path d="M52.1,15.6v2.8l1-0.3v1.8l-1,0.3v3.4l1-0.3v1.8l-1,0.3v3.1h-0.5v-3l-1.9,0.6v3h-0.5v-2.8l-1,0.3v-1.8l1-0.3v-3.4l-1,0.3
		v-1.8l1-0.3v-3.1h0.5v3l1.9-0.6v-3H52.1z M51.6,20.4L49.7,21v3.4l1.9-0.6V20.4z"/>
</g>
<polygon fill-rule="evenodd" clip-rule="evenodd" points="68.5,23.7 115.1,18.7 115.1,16.2 68.5,21.2 "/>
<polygon fill-rule="evenodd" clip-rule="evenodd" points="68.5,20 115.1,15 115.1,12.5 68.5,17.5 "/>
<polygon fill-rule="evenodd" clip-rule="evenodd" points="124.3,38.6 170.9,33.6 170.9,31.1 124.3,36.1 "/>
<polygon fill-rule="evenodd" clip-rule="evenodd" points="124.3,42.3 170.9,37.3 170.9,34.8 124.3,39.8 "/>
<polygon fill-rule="evenodd" clip-rule="evenodd" points="186.4,28.6 233.1,23.7 233.1,21.2 186.4,26.2 "/>
<polygon fill-rule="evenodd" clip-rule="evenodd" points="186.4,32.4 233.1,27.4 233.1,24.9 186.4,29.9 "/>
<polygon fill-rule="evenodd" clip-rule="evenodd" points="248.7,24.9 295.4,23.7 295.4,21.2 248.7,22.4 "/>
<polygon fill-rule="evenodd" clip-rule="evenodd" points="248.7,28.6 295.4,27.4 295.4,24.9 248.7,26.2 "/>
<polygon fill-rule="evenodd" clip-rule="evenodd" points="310.9,23.7 357.7,28.6 357.7,26.2 310.9,21.2 "/>
<polygon fill-rule="evenodd" clip-rule="evenodd" points="310.9,27.4 357.7,32.4 357.7,29.9 310.9,24.9 "/>
<polygon fill-rule="evenodd" clip-rule="evenodd" points="373.2,33.6 419.9,38.6 419.9,36.1 373.2,31.1 "/>
<polygon fill-rule="evenodd" clip-rule="evenodd" points="373.2,37.3 419.9,42.3 419.9,39.8 373.2,34.8 "/>
<polygon fill-rule="evenodd" clip-rule="evenodd" points="442,18.7 488.7,23.7 488.7,21.2 442,16.2 "/>
<polygon fill-rule="evenodd" clip-rule="evenodd" points="442,15 488.7,20 488.7,17.5 442,12.5 "/>
<rect x="8.5" y="84.2" width="544.4" height="0.5"/>
<rect x="8.5" y="79.2" width="544.4" height="0.5"/>
<rect x="8.5" y="74.3" width="544.4" height="0.5"/>
<rect x="8.5" y="69.3" width="544.4" height="0.5"/>
<rect x="8.5" y="64.4" width="544.4" height="0.5"/>
<g>
	<path d="M20.3,84.3c-4.2,0-8.1-3.1-8.1-6.9c0-3.2,2.3-6.7,6.8-10.5c-0.3-1.2-0.4-2.4-0.4-3.6c0-3.5,1.2-6.8,3.2-8.5
		c1.8,2.5,2.7,4.9,2.7,7.1c0,2.9-1.3,5.6-4.3,8.1l0.9,4.2c0.5,0,0.8-0.1,0.8-0.1c2.6,0,4.8,2,4.8,4.7c0,1.9-1.4,3.7-3.6,4.8
		c0-0.1,0.9,3.8,0.9,4.3c0,2.5-2.3,4.2-4.9,4.2c-2,0-3.6-1.3-3.6-3.4c0-1.4,1-2.6,2.4-2.6c1.3,0,2.3,1.3,2.3,2.5
		c0,1.4-1.2,2.3-2.7,2.5c0.6,0.3,1.2,0.5,1.9,0.5c2.1,0,4.1-1.6,4.1-3.6c0-0.2,0-0.4-0.1-0.6l-0.8-3.7
		C21.9,84.1,21.2,84.3,20.3,84.3z M18.1,79.1c0,1,0.5,1.9,1.6,2.5c-1.8-0.3-3-1.4-3-3.1c0-2,1.7-3.7,3.8-4.1l-0.8-4
		C16,73.2,14,75.9,14,78.5c0,2.9,2.8,5.3,6,5.3c0.9,0,1.7-0.2,2.4-0.5L21,76.5C19.4,76.7,18.1,77.7,18.1,79.1z M22.1,57.7
		c-1.6,0-2.9,3.7-2.9,7c0,0.7,0,1.3,0.2,1.9c2.7-2.4,4-4.5,4-6.5c0-0.9-0.3-1.7-1-2.4C22.4,57.7,22.3,57.7,22.1,57.7z M24.9,79.6
		c0-1.6-1.2-3.3-2.9-3.3c-0.1,0-0.2,0-0.5,0l1.4,6.6C24.2,82.1,24.9,80.9,24.9,79.6z"/>
</g>
<g>
	<path d="M33.5,57.8v2.8l1-0.3v1.8l-1,0.3v3.4l1-0.3v1.8l-1,0.3v3.1H33v-3l-1.9,0.6v3h-0.5v-2.8l-1,0.3v-1.8l1-0.3v-3.4l-1,0.3v-1.8
		l1-0.3v-3.1h0.5v3l1.9-0.6v-3H33.5z M33,62.6l-1.9,0.6v3.4L33,66V62.6z"/>
</g>
<g>
	<path d="M39.7,65.2v2.8l1-0.3v1.8l-1,0.3v3.4l1-0.3v1.8l-1,0.3v3.1h-0.5v-3l-1.9,0.6v3h-0.5V76l-1,0.3v-1.8l1-0.3v-3.4l-1,0.3v-1.8
		l1-0.3v-3.1h0.5v3l1.9-0.6v-3H39.7z M39.2,70l-1.9,0.6v3.4l1.9-0.6V70z"/>
</g>
<g>
	<path d="M45.9,55.3v2.8l1-0.3v1.8l-1,0.3v3.4l1-0.3v1.8l-1,0.3v3.1h-0.5v-3L43.5,66v3H43v-2.8l-1,0.3v-1.8l1-0.3v-3.4l-1,0.3v-1.8
		l1-0.3v-3.1h0.5v3l1.9-0.6v-3H45.9z M45.4,60.1l-1.9,0.6v3.4l1.9-0.6V60.1z"/>
</g>
<g>
	<path d="M52.1,62.7v2.8l1-0.3V67l-1,0.3v3.4l1-0.3v1.8l-1,0.3v3.1h-0.5v-3l-1.9,0.6v3h-0.5v-2.8l-1,0.3v-1.8l1-0.3v-3.4l-1,0.3
		v-1.8l1-0.3v-3.1h0.5v3l1.9-0.6v-3H52.1z M51.6,67.5l-1.9,0.6v3.4l1.9-0.6V67.5z"/>
</g>
<polygon fill-rule="evenodd" clip-rule="evenodd" points="68.5,80.7 115.1,79.5 115.1,77 68.5,78.2 "/>
<polygon fill-rule="evenodd" clip-rule="evenodd" points="68.5,77 115.1,75.8 115.1,73.3 68.5,74.5 "/>
<polygon fill-rule="evenodd" clip-rule="evenodd" points="130.8,75.8 177.4,70.8 177.4,68.3 130.8,73.3 "/>
<polygon fill-rule="evenodd" clip-rule="evenodd" points="130.8,72 177.4,67.1 177.4,64.6 130.8,69.6 "/>
<polygon fill-rule="evenodd" clip-rule="evenodd" points="186.4,90.6 233.1,85.7 233.1,83.2 186.4,88.2 "/>
<polygon fill-rule="evenodd" clip-rule="evenodd" points="186.4,94.4 233.1,89.4 233.1,86.9 186.4,91.9 "/>
<polygon fill-rule="evenodd" clip-rule="evenodd" points="248.7,82 295.4,80.7 295.4,78.2 248.7,79.5 "/>
<polygon fill-rule="evenodd" clip-rule="evenodd" points="248.7,85.7 295.4,84.4 295.4,82 248.7,83.2 "/>
<polygon fill-rule="evenodd" clip-rule="evenodd" points="310.9,80.7 357.7,85.7 357.7,83.2 310.9,78.2 "/>
<polygon fill-rule="evenodd" clip-rule="evenodd" points="310.9,84.4 357.7,89.4 357.7,86.9 310.9,82 "/>
<polygon fill-rule="evenodd" clip-rule="evenodd" points="379.7,65.8 426.4,70.8 426.4,68.3 379.7,63.4 "/>
<polygon fill-rule="evenodd" clip-rule="evenodd" points="379.7,62.1 426.4,67.1 426.4,64.6 379.7,59.6 "/>
<polygon fill-rule="evenodd" clip-rule="evenodd" points="442,75.8 488.7,80.7 488.7,78.2 442,73.3 "/>
<polygon fill-rule="evenodd" clip-rule="evenodd" points="442,72 488.7,77 488.7,74.5 442,69.6 "/>
<rect x="68.2" y="17.6" width="0.5" height="18.9"/>
<g>
	<path d="M61.8,38.2c0-1.8,2.5-3.5,4.5-3.5c1.3,0,2.3,0.7,2.3,1.7c0,1.7-2.5,3.5-4.6,3.5C62.8,39.9,61.8,39.3,61.8,38.2z"/>
</g>
<rect x="83.7" y="16.1" width="0.5" height="18"/>
<g>
	<path d="M77.3,35.7c0-1.8,2.5-3.5,4.5-3.5c1.3,0,2.3,0.7,2.3,1.7c0,1.7-2.5,3.5-4.6,3.5C78.3,37.4,77.3,36.8,77.3,35.7z"/>
</g>
<rect x="99.4" y="14.4" width="0.5" height="17.2"/>
<g>
	<path d="M92.9,33.2c0-1.8,2.5-3.5,4.5-3.5c1.3,0,2.3,0.7,2.3,1.7c0,1.7-2.5,3.5-4.6,3.5C93.9,34.9,92.9,34.3,92.9,33.2z"/>
</g>
<rect x="114.9" y="12.7" width="0.5" height="16.4"/>
<g>
	<path d="M108.4,30.7c0-1.8,2.5-3.5,4.5-3.5c1.3,0,2.3,0.7,2.3,1.7c0,1.7-2.5,3.5-4.6,3.5C109.4,32.5,108.4,31.8,108.4,30.7z"/>
</g>
<rect x="124" y="28.2" width="0.5" height="14"/>
<g>
	<path d="M124.1,28.3c0-1.8,2.5-3.5,4.5-3.5c1.3,0,2.3,0.7,2.3,1.7c0,1.7-2.5,3.5-4.6,3.5C125.1,30,124.1,29.3,124.1,28.3z"/>
</g>
<rect x="139.5" y="25.7" width="0.5" height="14.9"/>
<g>
	<path d="M139.6,25.8c0-1.8,2.5-3.5,4.5-3.5c1.3,0,2.3,0.7,2.3,1.7c0,1.7-2.5,3.5-4.6,3.5C140.6,27.5,139.6,26.9,139.6,25.8z"/>
</g>
<rect x="155" y="23.2" width="0.5" height="15.7"/>
<g>
	<path d="M155.1,23.3c0-1.8,2.5-3.5,4.5-3.5c1.3,0,2.3,0.7,2.3,1.7c0,1.7-2.5,3.5-4.6,3.5C156.1,25,155.1,24.4,155.1,23.3z"/>
</g>
<rect x="170.7" y="20.7" width="0.5" height="16.4"/>
<g>
	<path d="M170.8,20.8c0-1.8,2.5-3.5,4.5-3.5c1.3,0,2.3,0.7,2.3,1.7c0,1.7-2.5,3.5-4.6,3.5C171.7,22.5,170.8,21.9,170.8,20.8z"/>
</g>
<rect x="186.2" y="18.3" width="0.5" height="14"/>
<g>
	<path d="M186.3,18.3c0-1.8,2.5-3.5,4.5-3.5c1.3,0,2.3,0.7,2.3,1.7c0,1.7-2.5,3.5-4.6,3.5C187.2,20.1,186.3,19.4,186.3,18.3z"/>
</g>
<rect x="201.8" y="15.8" width="0.5" height="14.9"/>
<g>
	<path d="M201.9,15.9c0-1.8,2.5-3.5,4.5-3.5c1.3,0,2.3,0.7,2.3,1.7c0,1.7-2.5,3.5-4.6,3.5C202.9,17.6,201.9,16.9,201.9,15.9z"/>
</g>
<rect x="215.6" y="12.1" width="10.5" height="0.8"/>
<rect x="217.3" y="13.3" width="0.5" height="15.7"/>
<g>
	<path d="M217.4,13.4c0-1.8,2.5-3.5,4.5-3.5c1.3,0,2.3,0.7,2.3,1.7c0,1.7-2.5,3.5-4.6,3.5C218.4,15.1,217.4,14.5,217.4,13.4z"/>
</g>
<rect x="231.1" y="12.1" width="10.5" height="0.8"/>
<rect x="232.8" y="10.8" width="0.5" height="16.4"/>
<g>
	<path d="M232.9,10.9c0-1.8,2.5-3.5,4.5-3.5c1.3,0,2.3,0.7,2.3,1.7c0,1.7-2.5,3.5-4.6,3.5C233.9,12.6,232.9,12,232.9,10.9z"/>
</g>
<rect x="246.7" y="12.1" width="10.5" height="0.8"/>
<rect x="246.7" y="7.2" width="10.5" height="0.8"/>
<rect x="248.5" y="8.3" width="0.5" height="20.2"/>
<g>
	<path d="M248.6,8.4c0-1.8,2.5-3.5,4.5-3.5c1.3,0,2.3,0.7,2.3,1.7c0,1.7-2.5,3.5-4.6,3.5C249.6,10.1,248.6,9.5,248.6,8.4z"/>
</g>
<rect x="262.2" y="12.1" width="10.5" height="0.8"/>
<rect x="262.2" y="7.2" width="10.5" height="0.8"/>
<rect x="264" y="5.9" width="0.5" height="22.3"/>
<g>
	<path d="M264.1,5.9c0-1.8,2.5-3.5,4.5-3.5c1.3,0,2.3,0.7,2.3,1.7c0,1.7-2.5,3.5-4.6,3.5C265.1,7.7,264.1,7,264.1,5.9z"/>
</g>
<rect x="277.9" y="12.1" width="10.5" height="0.8"/>
<rect x="277.9" y="7.2" width="10.5" height="0.8"/>
<rect x="277.9" y="2.2" width="10.5" height="0.8"/>
<rect x="279.7" y="3.4" width="0.5" height="24.3"/>
<g>
	<path d="M279.7,3.5c0-1.8,2.5-3.5,4.5-3.5c1.3,0,2.3,0.7,2.3,1.7c0,1.7-2.5,3.5-4.6,3.5C280.7,5.2,279.7,4.5,279.7,3.5z"/>
</g>
<rect x="293.4" y="12.1" width="10.5" height="0.8"/>
<rect x="293.4" y="7.2" width="10.5" height="0.8"/>
<rect x="295.2" y="5.9" width="0.5" height="21.4"/>
<g>
	<path d="M295.2,5.9c0-1.8,2.5-3.5,4.5-3.5c1.3,0,2.3,0.7,2.3,1.7c0,1.7-2.5,3.5-4.6,3.5C296.2,7.7,295.2,7,295.2,5.9z"/>
</g>
<rect x="308.9" y="12.1" width="10.5" height="0.8"/>
<rect x="308.9" y="7.2" width="10.5" height="0.8"/>
<rect x="310.7" y="8.3" width="0.5" height="18.9"/>
<g>
	<path d="M310.7,8.4c0-1.8,2.5-3.5,4.5-3.5c1.3,0,2.3,0.7,2.3,1.7c0,1.7-2.5,3.5-4.6,3.5C311.7,10.1,310.7,9.5,310.7,8.4z"/>
</g>
<rect x="324.5" y="12.1" width="10.5" height="0.8"/>
<rect x="326.3" y="10.8" width="0.5" height="18"/>
<g>
	<path d="M326.4,10.9c0-1.8,2.5-3.5,4.5-3.5c1.3,0,2.3,0.7,2.3,1.7c0,1.7-2.5,3.5-4.6,3.5C327.4,12.6,326.4,12,326.4,10.9z"/>
</g>
<rect x="340" y="12.1" width="10.5" height="0.8"/>
<rect x="341.8" y="13.3" width="0.5" height="17.2"/>
<g>
	<path d="M341.9,13.4c0-1.8,2.5-3.5,4.5-3.5c1.3,0,2.3,0.7,2.3,1.7c0,1.7-2.5,3.5-4.6,3.5C342.9,15.1,341.9,14.5,341.9,13.4z"/>
</g>
<rect x="357.5" y="15.8" width="0.5" height="16.4"/>
<g>
	<path d="M357.6,15.9c0-1.8,2.5-3.5,4.5-3.5c1.3,0,2.3,0.7,2.3,1.7c0,1.7-2.5,3.5-4.6,3.5C358.5,17.6,357.6,16.9,357.6,15.9z"/>
</g>
<rect x="373" y="18.3" width="0.5" height="18.9"/>
<g>
	<path d="M373.1,18.3c0-1.8,2.5-3.5,4.5-3.5c1.3,0,2.3,0.7,2.3,1.7c0,1.7-2.5,3.5-4.6,3.5C374,20.1,373.1,19.4,373.1,18.3z"/>
</g>
<rect x="388.5" y="20.7" width="0.5" height="18"/>
<g>
	<path d="M388.6,20.8c0-1.8,2.5-3.5,4.5-3.5c1.3,0,2.3,0.7,2.3,1.7c0,1.7-2.5,3.5-4.6,3.5C389.5,22.5,388.6,21.9,388.6,20.8z"/>
</g>
<rect x="404.1" y="23.2" width="0.5" height="17.2"/>
<g>
	<path d="M404.2,23.3c0-1.8,2.5-3.5,4.5-3.5c1.3,0,2.3,0.7,2.3,1.7c0,1.7-2.5,3.5-4.6,3.5C405.2,25,404.2,24.4,404.2,23.3z"/>
</g>
<rect x="419.6" y="25.7" width="0.5" height="16.4"/>
<g>
	<path d="M419.7,25.8c0-1.8,2.5-3.5,4.5-3.5c1.3,0,2.3,0.7,2.3,1.7c0,1.7-2.5,3.5-4.6,3.5C420.7,27.5,419.7,26.9,419.7,25.8z"/>
</g>
<rect x="441.8" y="12.7" width="0.5" height="14"/>
<g>
	<path d="M435.4,28.3c0-1.8,2.5-3.5,4.5-3.5c1.3,0,2.3,0.7,2.3,1.7c0,1.7-2.5,3.5-4.6,3.5C436.3,30,435.4,29.3,435.4,28.3z"/>
</g>
<rect x="457.3" y="14.2" width="0.5" height="14.9"/>
<g>
	<path d="M450.9,30.7c0-1.8,2.5-3.5,4.5-3.5c1.3,0,2.3,0.7,2.3,1.7c0,1.7-2.5,3.5-4.6,3.5C451.8,32.5,450.9,31.8,450.9,30.7z"/>
</g>
<rect x="473" y="15.9" width="0.5" height="15.7"/>
<g>
	<path d="M466.5,33.2c0-1.8,2.5-3.5,4.5-3.5c1.3,0,2.3,0.7,2.3,1.7c0,1.7-2.5,3.5-4.6,3.5C467.5,34.9,466.5,34.3,466.5,33.2z"/>
</g>
<rect x="488.5" y="17.6" width="0.5" height="16.4"/>
<g>
	<path d="M482,35.7c0-1.8,2.5-3.5,4.5-3.5c1.3,0,2.3,0.7,2.3,1.7c0,1.7-2.5,3.5-4.6,3.5C483,37.4,482,36.8,482,35.7z"/>
</g>
<rect x="504.1" y="20" width="0.5" height="16.6"/>
<g>
	<path d="M501.8,34.6c1.6,0,2.7,0.7,2.7,2c0,1.9-2.3,3.4-4.5,3.4c-1.3,0-2.4-0.7-2.4-1.8C497.5,36.4,499.8,34.6,501.8,34.6z
		 M498,38.5c0,0.6,0.4,0.9,1.1,0.9c1.4,0,4.9-2.1,4.9-3.3c0-0.6-0.4-0.9-1.1-0.9C501.7,35.2,498,37.2,498,38.5z"/>
</g>
<rect x="59.9" y="89" width="10.5" height="0.8"/>
<rect x="59.9" y="94" width="10.5" height="0.8"/>
<rect x="68.2" y="74.7" width="0.5" height="21.4"/>
<g>
	<path d="M61.8,97.7c0-1.8,2.5-3.5,4.5-3.5c1.3,0,2.3,0.7,2.3,1.7c0,1.7-2.5,3.5-4.6,3.5C62.8,99.4,61.8,98.8,61.8,97.7z"/>
</g>
<rect x="75.4" y="89" width="10.5" height="0.8"/>
<rect x="75.4" y="94" width="10.5" height="0.8"/>
<rect x="83.7" y="74.4" width="0.5" height="19.2"/>
<g>
	<path d="M77.3,95.2c0-1.8,2.5-3.5,4.5-3.5c1.3,0,2.3,0.7,2.3,1.7c0,1.7-2.5,3.5-4.6,3.5C78.3,96.9,77.3,96.3,77.3,95.2z"/>
</g>
<rect x="91.1" y="89" width="10.5" height="0.8"/>
<rect x="99.4" y="73.9" width="0.5" height="17.2"/>
<g>
	<path d="M92.9,92.7c0-1.8,2.5-3.5,4.5-3.5c1.3,0,2.3,0.7,2.3,1.7c0,1.7-2.5,3.5-4.6,3.5C93.9,94.5,92.9,93.8,92.9,92.7z"/>
</g>
<rect x="106.6" y="89" width="10.5" height="0.8"/>
<rect x="114.9" y="73.4" width="0.5" height="15.2"/>
<g>
	<path d="M108.4,90.3c0-1.8,2.5-3.5,4.5-3.5c1.3,0,2.3,0.7,2.3,1.7c0,1.7-2.5,3.5-4.6,3.5C109.4,92,108.4,91.3,108.4,90.3z"/>
</g>
<rect x="130.5" y="69.7" width="0.5" height="16.4"/>
<g>
	<path d="M124.1,87.8c0-1.8,2.5-3.5,4.5-3.5c1.3,0,2.3,0.7,2.3,1.7c0,1.7-2.5,3.5-4.6,3.5C125.1,89.5,124.1,88.9,124.1,87.8z"/>
</g>
<rect x="146" y="68.2" width="0.5" height="15.5"/>
<g>
	<path d="M139.6,85.3c0-1.8,2.5-3.5,4.5-3.5c1.3,0,2.3,0.7,2.3,1.7c0,1.7-2.5,3.5-4.6,3.5C140.6,87,139.6,86.4,139.6,85.3z"/>
</g>
<rect x="161.5" y="66.5" width="0.5" height="14.7"/>
<g>
	<path d="M155.1,82.8c0-1.8,2.5-3.5,4.5-3.5c1.3,0,2.3,0.7,2.3,1.7c0,1.7-2.5,3.5-4.6,3.5C156.1,84.5,155.1,83.9,155.1,82.8z"/>
</g>
<rect x="177.2" y="64.8" width="0.5" height="14"/>
<g>
	<path d="M170.8,80.3c0-1.8,2.5-3.5,4.5-3.5c1.3,0,2.3,0.7,2.3,1.7c0,1.7-2.5,3.5-4.6,3.5C171.7,82.1,170.8,81.4,170.8,80.3z"/>
</g>
<rect x="186.2" y="77.8" width="0.5" height="16.4"/>
<g>
	<path d="M186.3,77.9c0-1.8,2.5-3.5,4.5-3.5c1.3,0,2.3,0.7,2.3,1.7c0,1.7-2.5,3.5-4.6,3.5C187.2,79.6,186.3,78.9,186.3,77.9z"/>
</g>
<rect x="201.8" y="75.3" width="0.5" height="17.4"/>
<g>
	<path d="M201.9,75.4c0-1.8,2.5-3.5,4.5-3.5c1.3,0,2.3,0.7,2.3,1.7c0,1.7-2.5,3.5-4.6,3.5C202.9,77.1,201.9,76.5,201.9,75.4z"/>
</g>
<rect x="217.3" y="72.8" width="0.5" height="18.1"/>
<g>
	<path d="M217.4,72.9c0-1.8,2.5-3.5,4.5-3.5c1.3,0,2.3,0.7,2.3,1.7c0,1.7-2.5,3.5-4.6,3.5C218.4,74.6,217.4,74,217.4,72.9z"/>
</g>
<rect x="232.8" y="70.3" width="0.5" height="18.9"/>
<g>
	<path d="M232.9,70.4c0-1.8,2.5-3.5,4.5-3.5c1.3,0,2.3,0.7,2.3,1.7c0,1.7-2.5,3.5-4.6,3.5C233.9,72.1,232.9,71.5,232.9,70.4z"/>
</g>
<rect x="248.5" y="67.9" width="0.5" height="17.7"/>
<g>
	<path d="M248.6,67.9c0-1.8,2.5-3.5,4.5-3.5c1.3,0,2.3,0.7,2.3,1.7c0,1.7-2.5,3.5-4.6,3.5C249.6,69.7,248.6,69,248.6,67.9z"/>
</g>
<rect x="264" y="65.4" width="0.5" height="19.8"/>
<g>
	<path d="M264.1,65.5c0-1.8,2.5-3.5,4.5-3.5c1.3,0,2.3,0.7,2.3,1.7c0,1.7-2.5,3.5-4.6,3.5C265.1,67.2,264.1,66.5,264.1,65.5z"/>
</g>
<rect x="279.7" y="62.9" width="0.5" height="21.9"/>
<g>
	<path d="M279.7,63c0-1.8,2.5-3.5,4.5-3.5c1.3,0,2.3,0.7,2.3,1.7c0,1.7-2.5,3.5-4.6,3.5C280.7,64.7,279.7,64.1,279.7,63z"/>
</g>
<rect x="295.2" y="65.4" width="0.5" height="18.9"/>
<g>
	<path d="M295.2,65.5c0-1.8,2.5-3.5,4.5-3.5c1.3,0,2.3,0.7,2.3,1.7c0,1.7-2.5,3.5-4.6,3.5C296.2,67.2,295.2,66.5,295.2,65.5z"/>
</g>
<rect x="310.7" y="67.9" width="0.5" height="16.4"/>
<g>
	<path d="M310.7,67.9c0-1.8,2.5-3.5,4.5-3.5c1.3,0,2.3,0.7,2.3,1.7c0,1.7-2.5,3.5-4.6,3.5C311.7,69.7,310.7,69,310.7,67.9z"/>
</g>
<rect x="326.3" y="70.3" width="0.5" height="15.5"/>
<g>
	<path d="M326.4,70.4c0-1.8,2.5-3.5,4.5-3.5c1.3,0,2.3,0.7,2.3,1.7c0,1.7-2.5,3.5-4.6,3.5C327.4,72.1,326.4,71.5,326.4,70.4z"/>
</g>
<rect x="341.8" y="72.8" width="0.5" height="14.7"/>
<g>
	<path d="M341.9,72.9c0-1.8,2.5-3.5,4.5-3.5c1.3,0,2.3,0.7,2.3,1.7c0,1.7-2.5,3.5-4.6,3.5C342.9,74.6,341.9,74,341.9,72.9z"/>
</g>
<rect x="357.5" y="75.3" width="0.5" height="14"/>
<g>
	<path d="M357.6,75.4c0-1.8,2.5-3.5,4.5-3.5c1.3,0,2.3,0.7,2.3,1.7c0,1.7-2.5,3.5-4.6,3.5C358.5,77.1,357.6,76.5,357.6,75.4z"/>
</g>
<rect x="379.5" y="59.8" width="0.5" height="16.4"/>
<g>
	<path d="M373.1,77.9c0-1.8,2.5-3.5,4.5-3.5c1.3,0,2.3,0.7,2.3,1.7c0,1.7-2.5,3.5-4.6,3.5C374,79.6,373.1,78.9,373.1,77.9z"/>
</g>
<rect x="395" y="61.3" width="0.5" height="17.4"/>
<g>
	<path d="M388.6,80.3c0-1.8,2.5-3.5,4.5-3.5c1.3,0,2.3,0.7,2.3,1.7c0,1.7-2.5,3.5-4.6,3.5C389.5,82.1,388.6,81.4,388.6,80.3z"/>
</g>
<rect x="410.6" y="63.1" width="0.5" height="18.1"/>
<g>
	<path d="M404.2,82.8c0-1.8,2.5-3.5,4.5-3.5c1.3,0,2.3,0.7,2.3,1.7c0,1.7-2.5,3.5-4.6,3.5C405.2,84.5,404.2,83.9,404.2,82.8z"/>
</g>
<rect x="426.1" y="64.8" width="0.5" height="18.9"/>
<g>
	<path d="M419.7,85.3c0-1.8,2.5-3.5,4.5-3.5c1.3,0,2.3,0.7,2.3,1.7c0,1.7-2.5,3.5-4.6,3.5C420.7,87,419.7,86.4,419.7,85.3z"/>
</g>
<rect x="441.8" y="69.7" width="0.5" height="16.4"/>
<g>
	<path d="M435.4,87.8c0-1.8,2.5-3.5,4.5-3.5c1.3,0,2.3,0.7,2.3,1.7c0,1.7-2.5,3.5-4.6,3.5C436.3,89.5,435.4,88.9,435.4,87.8z"/>
</g>
<rect x="449" y="89" width="10.5" height="0.8"/>
<rect x="457.3" y="71.3" width="0.5" height="17.4"/>
<g>
	<path d="M450.9,90.3c0-1.8,2.5-3.5,4.5-3.5c1.3,0,2.3,0.7,2.3,1.7c0,1.7-2.5,3.5-4.6,3.5C451.8,92,450.9,91.3,450.9,90.3z"/>
</g>
<rect x="464.7" y="89" width="10.5" height="0.8"/>
<rect x="473" y="73" width="0.5" height="18.1"/>
<g>
	<path d="M466.5,92.7c0-1.8,2.5-3.5,4.5-3.5c1.3,0,2.3,0.7,2.3,1.7c0,1.7-2.5,3.5-4.6,3.5C467.5,94.5,466.5,93.8,466.5,92.7z"/>
</g>
<rect x="480.2" y="89" width="10.5" height="0.8"/>
<rect x="480.2" y="94" width="10.5" height="0.8"/>
<rect x="488.5" y="74.7" width="0.5" height="18.9"/>
<g>
	<path d="M482,95.2c0-1.8,2.5-3.5,4.5-3.5c1.3,0,2.3,0.7,2.3,1.7c0,1.7-2.5,3.5-4.6,3.5C483,96.9,482,96.3,482,95.2z"/>
</g>
<rect x="495.7" y="89" width="10.7" height="0.8"/>
<rect x="495.7" y="94" width="10.7" height="0.8"/>
<rect x="504.1" y="74.5" width="0.5" height="21.5"/>
<g>
	<path d="M501.8,94.1c1.6,0,2.7,0.7,2.7,2c0,1.9-2.3,3.4-4.5,3.4c-1.3,0-2.4-0.7-2.4-1.8C497.5,95.9,499.8,94.1,501.8,94.1z M498,98
		c0,0.6,0.4,0.9,1.1,0.9c1.4,0,4.9-2.1,4.9-3.3c0-0.6-0.4-0.9-1.1-0.9C501.7,94.7,498,96.8,498,98z"/>
</g>
</svg>
