<?xml version="1.0" encoding="utf-8"?>

<!--
	ScaleBook
	Copyright (c) Leland Jansen 2015. All rights reserved.
-->

<!DOCTYPE svg PUBLIC "-//W3C//DTD SVG 1.1//EN" "http://www.w3.org/Graphics/SVG/1.1/DTD/svg11.dtd">
<svg version="1.1" id="Layer_1" xmlns="http://www.w3.org/2000/svg" xmlns:xlink="http://www.w3.org/1999/xlink" x="0px" y="0px"
	 viewBox="0 0 552.9 86.6" enable-background="new 0 0 552.9 86.6" xml:space="preserve">
<rect x="8.4" y="9.7" width="0.8" height="67"/>
<g>
	<path d="M7.4,10.4c-1.9,1.1-3.6,5.8-3.6,9.4c0,2.3,1.4,9.9,1.4,12.3c0,5-1.5,8.6-4.6,11.1c3,2.4,4.6,6.1,4.6,11.1
		c0,2.3-1.4,9.9-1.4,12.3c0,3.8,1.7,8.4,3.6,9.5v0.7c-3.5-2.3-5.8-8.2-5.8-13.1c0-2.1,1.7-9.4,1.7-11.5c0-3.8-1-6.6-2.9-8.2
		C0.1,43.6,0,43.4,0,43.2c0-0.2,0.1-0.4,0.5-0.7c1.9-1.7,2.9-4.2,2.9-7.6c0-2.1-1.7-10-1.7-12.2c0-5.2,2.1-10.4,5.8-13.1V10.4z"/>
</g>
<rect x="547.8" y="9.7" width="0.8" height="67"/>
<rect x="550.4" y="9.7" width="2.5" height="67"/>
<rect x="8.5" y="29.3" width="544.4" height="0.5"/>
<rect x="8.5" y="24.4" width="544.4" height="0.5"/>
<rect x="8.5" y="19.4" width="544.4" height="0.5"/>
<rect x="8.5" y="14.4" width="544.4" height="0.5"/>
<rect x="8.5" y="9.5" width="544.4" height="0.5"/>
<g>
	<path d="M20.3,29.4c-4.2,0-8.1-3.1-8.1-6.9c0-3.2,2.3-6.7,6.8-10.5c-0.3-1.2-0.4-2.4-0.4-3.6c0-3.5,1.2-6.8,3.2-8.5
		c1.8,2.5,2.7,4.9,2.7,7.1c0,2.9-1.3,5.6-4.3,8.1l0.9,4.2c0.5,0,0.8-0.1,0.8-0.1c2.6,0,4.8,2,4.8,4.7c0,1.9-1.4,3.7-3.6,4.8
		c0-0.1,0.9,3.8,0.9,4.3c0,2.5-2.3,4.2-4.9,4.2c-2,0-3.6-1.3-3.6-3.4c0-1.4,1-2.6,2.4-2.6c1.3,0,2.3,1.3,2.3,2.5
		c0,1.4-1.2,2.3-2.7,2.5c0.6,0.3,1.2,0.5,1.9,0.5c2.1,0,4.1-1.6,4.1-3.6c0-0.2,0-0.4-0.1-0.6l-0.8-3.7
		C21.9,29.3,21.2,29.4,20.3,29.4z M18.1,24.2c0,1,0.5,1.9,1.6,2.5c-1.8-0.3-3-1.4-3-3.1c0-2,1.7-3.7,3.8-4.1l-0.8-4
		C16,18.3,14,21,14,23.6c0,2.9,2.8,5.3,6,5.3c0.9,0,1.7-0.2,2.4-0.5L21,21.6C19.4,21.8,18.1,22.8,18.1,24.2z M22.1,2.8
		c-1.6,0-2.9,3.7-2.9,7c0,0.7,0,1.3,0.2,1.9c2.7-2.4,4-4.5,4-6.5c0-0.9-0.3-1.7-1-2.4C22.4,2.9,22.3,2.8,22.1,2.8z M24.9,24.7
		c0-1.6-1.2-3.3-2.9-3.3c-0.1,0-0.2,0-0.5,0l1.4,6.6C24.2,27.2,24.9,26,24.9,24.7z"/>
</g>
<g>
	<path d="M33.5,2.9v2.8l1-0.3v1.8l-1,0.3V11l1-0.3v1.8l-1,0.3v3.1H33v-3l-1.9,0.6v3h-0.5v-2.8l-1,0.3v-1.8l1-0.3V8.4l-1,0.3V7l1-0.3
		V3.5h0.5v3L33,5.9v-3H33.5z M33,7.7l-1.9,0.6v3.4l1.9-0.6V7.7z"/>
</g>
<polygon fill-rule="evenodd" clip-rule="evenodd" points="49.8,25.8 96.2,24.6 96.2,22.1 49.8,23.4 "/>
<polygon fill-rule="evenodd" clip-rule="evenodd" points="49.8,22.1 96.2,20.9 96.2,18.4 49.8,19.6 "/>
<polygon fill-rule="evenodd" clip-rule="evenodd" points="111.7,20.9 158,15.9 158,13.4 111.7,18.4 "/>
<polygon fill-rule="evenodd" clip-rule="evenodd" points="111.7,17.2 158,12.2 158,9.7 111.7,14.7 "/>
<polygon fill-rule="evenodd" clip-rule="evenodd" points="177.9,35.8 224.2,30.8 224.2,28.3 177.9,33.3 "/>
<polygon fill-rule="evenodd" clip-rule="evenodd" points="177.9,39.5 224.2,34.5 224.2,32 177.9,37 "/>
<polygon fill-rule="evenodd" clip-rule="evenodd" points="239.7,27.1 286.1,25.8 286.1,23.4 239.7,24.6 "/>
<polygon fill-rule="evenodd" clip-rule="evenodd" points="239.7,30.8 286.1,29.6 286.1,27.1 239.7,28.3 "/>
<polygon fill-rule="evenodd" clip-rule="evenodd" points="301.6,25.8 347.9,30.8 347.9,28.3 301.6,23.4 "/>
<polygon fill-rule="evenodd" clip-rule="evenodd" points="301.6,29.6 347.9,34.5 347.9,32 301.6,27.1 "/>
<polygon fill-rule="evenodd" clip-rule="evenodd" points="380.8,11 427.3,15.9 427.3,13.4 380.8,8.5 "/>
<polygon fill-rule="evenodd" clip-rule="evenodd" points="380.8,7.2 427.3,12.2 427.3,9.7 380.8,4.8 "/>
<polygon fill-rule="evenodd" clip-rule="evenodd" points="442.7,20.9 489.2,25.8 489.2,23.4 442.7,18.4 "/>
<polygon fill-rule="evenodd" clip-rule="evenodd" points="442.7,17.2 489.2,22.1 489.2,19.6 442.7,14.7 "/>
<rect x="8.5" y="76.4" width="544.4" height="0.5"/>
<rect x="8.5" y="71.5" width="544.4" height="0.5"/>
<rect x="8.5" y="66.5" width="544.4" height="0.5"/>
<rect x="8.5" y="61.6" width="544.4" height="0.5"/>
<rect x="8.5" y="56.6" width="544.4" height="0.5"/>
<g>
	<path d="M15.7,71c2.9-2.6,4.7-6.1,4.7-9.2c0-2.5-1.4-4.4-3.7-4.4c-1.6,0-3.4,1.3-3.4,2.7c0,0.2,0,0.3,0.1,0.3
		c-0.1,0,0.6-0.6,1.4-0.6c0.9,0,1.5,0.8,1.5,1.7c0,1.2-0.9,2.2-2.1,2.2c-1.2,0-2.1-1.3-2.1-2.8c0-2.3,2.3-4.1,4.8-4.1
		c4.7,0,5.9,3.2,5.9,5.8c0,1.6-0.4,2.9-2,5.3c-1.9,3.1-6.4,5.3-8.1,5.3c-0.4,0-0.6-0.2-0.6-0.5C13.8,72.3,14.9,71.7,15.7,71z
		 M25.7,58.3c0.6,0,1,0.4,1,1c0,0.6-0.4,1-1,1s-1-0.4-1-1C24.7,58.8,25.1,58.3,25.7,58.3z M25.7,63.3c0.6,0,1,0.4,1,1
		c0,0.6-0.4,1-1,1s-1-0.4-1-1C24.7,63.7,25.1,63.3,25.7,63.3z"/>
</g>
<g>
	<path d="M33.5,55v2.8l1-0.3v1.8l-1,0.3V63l1-0.3v1.8l-1,0.3V68H33v-3l-1.9,0.6v3h-0.5v-2.8l-1,0.3v-1.8l1-0.3v-3.4l-1,0.3v-1.8
		l1-0.3v-3.1h0.5v3L33,58v-3H33.5z M33,59.8l-1.9,0.6v3.4l1.9-0.6V59.8z"/>
</g>
<polygon fill-rule="evenodd" clip-rule="evenodd" points="49.8,58.1 96.2,53.1 96.2,50.6 49.8,55.6 "/>
<polygon fill-rule="evenodd" clip-rule="evenodd" points="49.8,54.4 96.2,49.4 96.2,46.9 49.8,51.9 "/>
<g>
	<path d="M169.9,75.3c-3.2,0-6.1-2.3-6.1-5.1c0-2.4,1.7-5,5.1-7.9c-0.2-0.9-0.3-1.8-0.3-2.7c0-2.6,0.9-5.1,2.4-6.3
		c1.4,1.9,2,3.7,2,5.3c0,2.2-1,4.2-3.2,6.1l0.7,3.1c0.4,0,0.6,0,0.6,0c2,0,3.6,1.5,3.6,3.5c0,1.4-1.1,2.8-2.7,3.6
		c0-0.1,0.6,2.8,0.6,3.3c0,1.9-1.7,3.2-3.7,3.2c-1.5,0-2.7-1-2.7-2.5c0-1.1,0.7-1.9,1.8-1.9c1,0,1.7,1,1.7,1.9c0,1-0.9,1.7-2,1.8
		c0.4,0.2,0.9,0.3,1.4,0.3c1.6,0,3.1-1.2,3.1-2.7c0-0.1,0-0.3,0-0.5l-0.6-2.8C171.1,75.2,170.6,75.3,169.9,75.3z M168.2,71.4
		c0,0.8,0.4,1.4,1.2,1.9c-1.3-0.2-2.2-1.1-2.2-2.3c0-1.5,1.3-2.8,2.9-3.1l-0.6-3c-2.8,2.1-4.3,4.1-4.3,6.1c0,2.2,2.1,4,4.5,4
		c0.7,0,1.3-0.1,1.8-0.4l-1.1-5.1C169.2,69.6,168.2,70.4,168.2,71.4z M171.3,55.4c-1.2,0-2.2,2.8-2.2,5.3c0,0.5,0,1,0.1,1.4
		c2-1.8,3-3.4,3-4.9c0-0.7-0.3-1.3-0.7-1.8C171.4,55.4,171.4,55.4,171.3,55.4z M173.3,71.8c0-1.2-0.9-2.4-2.2-2.4c0,0-0.2,0-0.4,0
		l1.1,5C172.8,73.7,173.3,72.8,173.3,71.8z"/>
</g>
<polygon fill-rule="evenodd" clip-rule="evenodd" points="105.2,73 151.5,68 151.5,65.5 105.2,70.5 "/>
<polygon fill-rule="evenodd" clip-rule="evenodd" points="105.2,76.7 151.5,71.7 151.5,69.2 105.2,74.2 "/>
<polygon fill-rule="evenodd" clip-rule="evenodd" points="184.4,68 230.8,63 230.8,60.6 184.4,65.5 "/>
<polygon fill-rule="evenodd" clip-rule="evenodd" points="184.4,64.3 230.8,59.3 230.8,56.8 184.4,61.8 "/>
<rect x="246.3" y="54.4" fill-rule="evenodd" clip-rule="evenodd" width="46.3" height="2.5"/>
<rect x="246.3" y="50.6" fill-rule="evenodd" clip-rule="evenodd" width="46.3" height="2.5"/>
<g>
	<path d="M362.8,68.7c2.2-2,3.6-4.6,3.6-6.9c0-1.9-1.1-3.3-2.8-3.3c-1.2,0-2.5,1-2.5,2.1c0,0.2,0,0.2,0.1,0.2c0,0,0.4-0.5,1-0.5
		c0.7,0,1.2,0.6,1.2,1.3c0,0.9-0.6,1.7-1.6,1.7s-1.5-1-1.5-2.1c0-1.8,1.7-3.1,3.6-3.1c3.5,0,4.4,2.4,4.4,4.4c0,1.2-0.3,2.2-1.5,4
		c-1.4,2.3-4.8,4-6,4c-0.3,0-0.5-0.1-0.5-0.3C361.4,69.7,362.3,69.2,362.8,68.7z M370.3,59.2c0.4,0,0.7,0.3,0.7,0.7
		c0,0.4-0.3,0.7-0.7,0.7c-0.4,0-0.7-0.3-0.7-0.7C369.6,59.5,369.9,59.2,370.3,59.2z M370.3,62.9c0.4,0,0.7,0.3,0.7,0.7
		s-0.3,0.7-0.7,0.7c-0.4,0-0.7-0.3-0.7-0.7S369.9,62.9,370.3,62.9z"/>
</g>
<polygon fill-rule="evenodd" clip-rule="evenodd" points="308.1,63 354.5,68 354.5,65.5 308.1,60.6 "/>
<polygon fill-rule="evenodd" clip-rule="evenodd" points="308.1,59.3 354.5,64.3 354.5,61.8 308.1,56.8 "/>
<polygon fill-rule="evenodd" clip-rule="evenodd" points="374.3,68 420.8,73 420.8,70.5 374.3,65.5 "/>
<polygon fill-rule="evenodd" clip-rule="evenodd" points="374.3,71.7 420.8,76.7 420.8,74.2 374.3,69.2 "/>
<polygon fill-rule="evenodd" clip-rule="evenodd" points="436.1,77.9 482.7,82.9 482.7,80.4 436.1,75.4 "/>
<polygon fill-rule="evenodd" clip-rule="evenodd" points="436.1,81.6 482.7,86.6 482.7,84.1 436.1,79.2 "/>
<rect x="41.3" y="34.1" width="10.5" height="0.8"/>
<rect x="41.3" y="39.1" width="10.5" height="0.8"/>
<rect x="49.6" y="19.8" width="0.5" height="21.4"/>
<g>
	<path d="M43.2,42.8c0-1.8,2.5-3.5,4.5-3.5c1.3,0,2.3,0.7,2.3,1.7c0,1.7-2.5,3.5-4.6,3.5C44.2,44.5,43.2,43.9,43.2,42.8z"/>
</g>
<rect x="56.8" y="34.1" width="10.5" height="0.8"/>
<rect x="56.8" y="39.1" width="10.5" height="0.8"/>
<rect x="65.1" y="19.5" width="0.5" height="19.2"/>
<g>
	<path d="M58.7,40.3c0-1.8,2.5-3.5,4.5-3.5c1.3,0,2.3,0.7,2.3,1.7c0,1.7-2.5,3.5-4.6,3.5C59.7,42.1,58.7,41.4,58.7,40.3z"/>
</g>
<rect x="72.2" y="34.1" width="10.5" height="0.8"/>
<rect x="80.5" y="19" width="0.5" height="17.2"/>
<g>
	<path d="M74,37.9c0-1.8,2.5-3.5,4.5-3.5c1.3,0,2.3,0.7,2.3,1.7c0,1.7-2.5,3.5-4.6,3.5C75,39.6,74,38.9,74,37.9z"/>
</g>
<rect x="87.7" y="34.1" width="10.5" height="0.8"/>
<rect x="96" y="18.6" width="0.5" height="15.2"/>
<g>
	<path d="M89.5,35.4c0-1.8,2.5-3.5,4.5-3.5c1.3,0,2.3,0.7,2.3,1.7c0,1.7-2.5,3.5-4.6,3.5C90.5,37.1,89.5,36.5,89.5,35.4z"/>
</g>
<rect x="111.5" y="14.8" width="0.5" height="16.4"/>
<g>
	<path d="M105,32.9c0-1.8,2.5-3.5,4.5-3.5c1.3,0,2.3,0.7,2.3,1.7c0,1.7-2.5,3.5-4.6,3.5C106,34.6,105,34,105,32.9z"/>
</g>
<rect x="127" y="13.3" width="0.5" height="15.5"/>
<g>
	<path d="M120.5,30.4c0-1.8,2.5-3.5,4.5-3.5c1.3,0,2.3,0.7,2.3,1.7c0,1.7-2.5,3.5-4.6,3.5C121.5,32.1,120.5,31.5,120.5,30.4z"/>
</g>
<rect x="142.3" y="11.6" width="0.5" height="14.7"/>
<g>
	<path d="M135.9,27.9c0-1.8,2.5-3.5,4.5-3.5c1.3,0,2.3,0.7,2.3,1.7c0,1.7-2.5,3.5-4.6,3.5C136.9,29.7,135.9,29,135.9,27.9z"/>
</g>
<rect x="157.8" y="9.9" width="0.5" height="14"/>
<g>
	<path d="M151.4,25.5c0-1.8,2.5-3.5,4.5-3.5c1.3,0,2.3,0.7,2.3,1.7c0,1.7-2.5,3.5-4.6,3.5C152.4,27.2,151.4,26.5,151.4,25.5z"/>
</g>
<rect x="177.7" y="22.9" width="0.5" height="16.4"/>
<g>
	<path d="M177.7,23c0-1.8,2.5-3.5,4.5-3.5c1.3,0,2.3,0.7,2.3,1.7c0,1.7-2.5,3.5-4.6,3.5C178.7,24.7,177.7,24.1,177.7,23z"/>
</g>
<rect x="193.2" y="20.4" width="0.5" height="17.4"/>
<g>
	<path d="M193.2,20.5c0-1.8,2.5-3.5,4.5-3.5c1.3,0,2.3,0.7,2.3,1.7c0,1.7-2.5,3.5-4.6,3.5C194.2,22.2,193.2,21.6,193.2,20.5z"/>
</g>
<rect x="208.7" y="17.9" width="0.5" height="18.1"/>
<g>
	<path d="M208.7,18c0-1.8,2.5-3.5,4.5-3.5c1.3,0,2.3,0.7,2.3,1.7c0,1.7-2.5,3.5-4.6,3.5C209.7,19.7,208.7,19.1,208.7,18z"/>
</g>
<rect x="224" y="15.5" width="0.5" height="18.9"/>
<g>
	<path d="M224.1,15.5c0-1.8,2.5-3.5,4.5-3.5c1.3,0,2.3,0.7,2.3,1.7c0,1.7-2.5,3.5-4.6,3.5C225.1,17.3,224.1,16.6,224.1,15.5z"/>
</g>
<rect x="239.5" y="13" width="0.5" height="17.7"/>
<g>
	<path d="M239.6,13c0-1.8,2.5-3.5,4.5-3.5c1.3,0,2.3,0.7,2.3,1.7c0,1.7-2.5,3.5-4.6,3.5C240.6,14.8,239.6,14.1,239.6,13z"/>
</g>
<rect x="255" y="10.5" width="0.5" height="19.8"/>
<g>
	<path d="M255.1,10.6c0-1.8,2.5-3.5,4.5-3.5c1.3,0,2.3,0.7,2.3,1.7c0,1.7-2.5,3.5-4.6,3.5C256.1,12.3,255.1,11.7,255.1,10.6z"/>
</g>
<rect x="270.5" y="8" width="0.5" height="21.9"/>
<g>
	<path d="M270.6,8.1c0-1.8,2.5-3.5,4.5-3.5c1.3,0,2.3,0.7,2.3,1.7c0,1.7-2.5,3.5-4.6,3.5C271.6,9.8,270.6,9.2,270.6,8.1z"/>
</g>
<rect x="285.9" y="10.5" width="0.5" height="18.9"/>
<g>
	<path d="M285.9,10.6c0-1.8,2.5-3.5,4.5-3.5c1.3,0,2.3,0.7,2.3,1.7c0,1.7-2.5,3.5-4.6,3.5C286.9,12.3,285.9,11.7,285.9,10.6z"/>
</g>
<rect x="301.4" y="13" width="0.5" height="16.4"/>
<g>
	<path d="M301.4,13c0-1.8,2.5-3.5,4.5-3.5c1.3,0,2.3,0.7,2.3,1.7c0,1.7-2.5,3.5-4.6,3.5C302.4,14.8,301.4,14.1,301.4,13z"/>
</g>
<rect x="316.9" y="15.5" width="0.5" height="15.5"/>
<g>
	<path d="M316.9,15.5c0-1.8,2.5-3.5,4.5-3.5c1.3,0,2.3,0.7,2.3,1.7c0,1.7-2.5,3.5-4.6,3.5C317.9,17.3,316.9,16.6,316.9,15.5z"/>
</g>
<rect x="332.4" y="17.9" width="0.5" height="14.7"/>
<g>
	<path d="M332.4,18c0-1.8,2.5-3.5,4.5-3.5c1.3,0,2.3,0.7,2.3,1.7c0,1.7-2.5,3.5-4.6,3.5C333.4,19.7,332.4,19.1,332.4,18z"/>
</g>
<rect x="347.7" y="20.4" width="0.5" height="14"/>
<g>
	<path d="M347.8,20.5c0-1.8,2.5-3.5,4.5-3.5c1.3,0,2.3,0.7,2.3,1.7c0,1.7-2.5,3.5-4.6,3.5C348.8,22.2,347.8,21.6,347.8,20.5z"/>
</g>
<rect x="380.6" y="4.9" width="0.5" height="16.4"/>
<g>
	<path d="M374.1,23c0-1.8,2.5-3.5,4.5-3.5c1.3,0,2.3,0.7,2.3,1.7c0,1.7-2.5,3.5-4.6,3.5C375.1,24.7,374.1,24.1,374.1,23z"/>
</g>
<rect x="396.1" y="6.5" width="0.5" height="17.4"/>
<g>
	<path d="M389.6,25.5c0-1.8,2.5-3.5,4.5-3.5c1.3,0,2.3,0.7,2.3,1.7c0,1.7-2.5,3.5-4.6,3.5C390.6,27.2,389.6,26.5,389.6,25.5z"/>
</g>
<rect x="411.6" y="8.2" width="0.5" height="18.1"/>
<g>
	<path d="M405.1,27.9c0-1.8,2.5-3.5,4.5-3.5c1.3,0,2.3,0.7,2.3,1.7c0,1.7-2.5,3.5-4.6,3.5C406.1,29.7,405.1,29,405.1,27.9z"/>
</g>
<rect x="427.1" y="9.9" width="0.5" height="18.9"/>
<g>
	<path d="M420.6,30.4c0-1.8,2.5-3.5,4.5-3.5c1.3,0,2.3,0.7,2.3,1.7c0,1.7-2.5,3.5-4.6,3.5C421.6,32.1,420.6,31.5,420.6,30.4z"/>
</g>
<rect x="442.4" y="14.8" width="0.5" height="16.4"/>
<g>
	<path d="M436,32.9c0-1.8,2.5-3.5,4.5-3.5c1.3,0,2.3,0.7,2.3,1.7c0,1.7-2.5,3.5-4.6,3.5C437,34.6,436,34,436,32.9z"/>
</g>
<rect x="449.6" y="34.1" width="10.5" height="0.8"/>
<rect x="457.9" y="16.4" width="0.5" height="17.4"/>
<g>
	<path d="M451.5,35.4c0-1.8,2.5-3.5,4.5-3.5c1.3,0,2.3,0.7,2.3,1.7c0,1.7-2.5,3.5-4.6,3.5C452.5,37.1,451.5,36.5,451.5,35.4z"/>
</g>
<rect x="465.1" y="34.1" width="10.5" height="0.8"/>
<rect x="473.4" y="18.1" width="0.5" height="18.1"/>
<g>
	<path d="M467,37.9c0-1.8,2.5-3.5,4.5-3.5c1.3,0,2.3,0.7,2.3,1.7c0,1.7-2.5,3.5-4.6,3.5C468,39.6,467,38.9,467,37.9z"/>
</g>
<rect x="480.6" y="34.1" width="10.5" height="0.8"/>
<rect x="480.6" y="39.1" width="10.5" height="0.8"/>
<rect x="488.9" y="19.8" width="0.5" height="18.9"/>
<g>
	<path d="M482.5,40.3c0-1.8,2.5-3.5,4.5-3.5c1.3,0,2.3,0.7,2.3,1.7c0,1.7-2.5,3.5-4.6,3.5C483.5,42.1,482.5,41.4,482.5,40.3z"/>
</g>
<rect x="496" y="34.1" width="10.7" height="0.8"/>
<rect x="496" y="39.1" width="10.7" height="0.8"/>
<rect x="504.4" y="19.6" width="0.5" height="21.5"/>
<g>
	<path d="M502.1,39.3c1.6,0,2.7,0.7,2.7,2c0,1.9-2.3,3.4-4.5,3.4c-1.3,0-2.4-0.7-2.4-1.8C497.8,41,500.1,39.3,502.1,39.3z
		 M498.3,43.1c0,0.6,0.4,0.9,1.1,0.9c1.4,0,4.9-2.1,4.9-3.3c0-0.6-0.4-0.9-1.1-0.9C502,39.9,498.3,41.9,498.3,43.1z"/>
</g>
<rect x="49.6" y="52" width="0.5" height="18.9"/>
<g>
	<path d="M43.2,72.6c0-1.8,2.5-3.5,4.5-3.5c1.3,0,2.3,0.7,2.3,1.7c0,1.7-2.5,3.5-4.6,3.5C44.2,74.3,43.2,73.7,43.2,72.6z"/>
</g>
<rect x="65.1" y="50.5" width="0.5" height="18"/>
<g>
	<path d="M58.7,70.1c0-1.8,2.5-3.5,4.5-3.5c1.3,0,2.3,0.7,2.3,1.7c0,1.7-2.5,3.5-4.6,3.5C59.7,71.8,58.7,71.2,58.7,70.1z"/>
</g>
<rect x="80.5" y="48.8" width="0.5" height="17.2"/>
<g>
	<path d="M74,67.6c0-1.8,2.5-3.5,4.5-3.5c1.3,0,2.3,0.7,2.3,1.7c0,1.7-2.5,3.5-4.6,3.5C75,69.3,74,68.7,74,67.6z"/>
</g>
<rect x="96" y="47.1" width="0.5" height="16.4"/>
<g>
	<path d="M89.5,65.1c0-1.8,2.5-3.5,4.5-3.5c1.3,0,2.3,0.7,2.3,1.7c0,1.7-2.5,3.5-4.6,3.5C90.5,66.9,89.5,66.2,89.5,65.1z"/>
</g>
<rect x="105" y="62.6" width="0.5" height="14"/>
<g>
	<path d="M105,62.7c0-1.8,2.5-3.5,4.5-3.5c1.3,0,2.3,0.7,2.3,1.7c0,1.7-2.5,3.5-4.6,3.5C106,64.4,105,63.7,105,62.7z"/>
</g>
<rect x="120.5" y="60.1" width="0.5" height="14.9"/>
<g>
	<path d="M120.5,60.2c0-1.8,2.5-3.5,4.5-3.5c1.3,0,2.3,0.7,2.3,1.7c0,1.7-2.5,3.5-4.6,3.5C121.5,61.9,120.5,61.3,120.5,60.2z"/>
</g>
<rect x="135.8" y="57.6" width="0.5" height="15.7"/>
<g>
	<path d="M135.9,57.7c0-1.8,2.5-3.5,4.5-3.5c1.3,0,2.3,0.7,2.3,1.7c0,1.7-2.5,3.5-4.6,3.5C136.9,59.4,135.9,58.8,135.9,57.7z"/>
</g>
<rect x="151.3" y="55.1" width="0.5" height="16.4"/>
<g>
	<path d="M151.4,55.2c0-1.8,2.5-3.5,4.5-3.5c1.3,0,2.3,0.7,2.3,1.7c0,1.7-2.5,3.5-4.6,3.5C152.4,56.9,151.4,56.3,151.4,55.2z"/>
</g>
<rect x="175.9" y="81.3" width="10.5" height="0.8"/>
<rect x="184.2" y="62" width="0.5" height="18.9"/>
<g>
	<path d="M177.7,82.5c0-1.8,2.5-3.5,4.5-3.5c1.3,0,2.3,0.7,2.3,1.7c0,1.7-2.5,3.5-4.6,3.5C178.7,84.2,177.7,83.6,177.7,82.5z"/>
</g>
<rect x="199.7" y="60.4" width="0.5" height="18"/>
<g>
	<path d="M193.2,80c0-1.8,2.5-3.5,4.5-3.5c1.3,0,2.3,0.7,2.3,1.7c0,1.7-2.5,3.5-4.6,3.5C194.2,81.7,193.2,81.1,193.2,80z"/>
</g>
<rect x="215.2" y="58.7" width="0.5" height="17.2"/>
<g>
	<path d="M208.7,77.5c0-1.8,2.5-3.5,4.5-3.5c1.3,0,2.3,0.7,2.3,1.7c0,1.7-2.5,3.5-4.6,3.5C209.7,79.3,208.7,78.6,208.7,77.5z"/>
</g>
<rect x="230.5" y="57" width="0.5" height="16.4"/>
<g>
	<path d="M224.1,75.1c0-1.8,2.5-3.5,4.5-3.5c1.3,0,2.3,0.7,2.3,1.7c0,1.7-2.5,3.5-4.6,3.5C225.1,76.8,224.1,76.1,224.1,75.1z"/>
</g>
<rect x="246" y="50.8" width="0.5" height="20.2"/>
<g>
	<path d="M239.6,72.6c0-1.8,2.5-3.5,4.5-3.5c1.3,0,2.3,0.7,2.3,1.7c0,1.7-2.5,3.5-4.6,3.5C240.6,74.3,239.6,73.7,239.6,72.6z"/>
</g>
<rect x="261.5" y="50.8" width="0.5" height="17.7"/>
<g>
	<path d="M255.1,70.1c0-1.8,2.5-3.5,4.5-3.5c1.3,0,2.3,0.7,2.3,1.7c0,1.7-2.5,3.5-4.6,3.5C256.1,71.8,255.1,71.2,255.1,70.1z"/>
</g>
<rect x="277" y="50.8" width="0.5" height="15.2"/>
<g>
	<path d="M270.6,67.6c0-1.8,2.5-3.5,4.5-3.5c1.3,0,2.3,0.7,2.3,1.7c0,1.7-2.5,3.5-4.6,3.5C271.6,69.3,270.6,68.7,270.6,67.6z"/>
</g>
<rect x="292.4" y="50.8" width="0.5" height="17.7"/>
<g>
	<path d="M285.9,70.1c0-1.8,2.5-3.5,4.5-3.5c1.3,0,2.3,0.7,2.3,1.7c0,1.7-2.5,3.5-4.6,3.5C286.9,71.8,285.9,71.2,285.9,70.1z"/>
</g>
<rect x="307.9" y="57" width="0.5" height="14"/>
<g>
	<path d="M301.4,72.6c0-1.8,2.5-3.5,4.5-3.5c1.3,0,2.3,0.7,2.3,1.7c0,1.7-2.5,3.5-4.6,3.5C302.4,74.3,301.4,73.7,301.4,72.6z"/>
</g>
<rect x="323.4" y="58.5" width="0.5" height="14.9"/>
<g>
	<path d="M316.9,75.1c0-1.8,2.5-3.5,4.5-3.5c1.3,0,2.3,0.7,2.3,1.7c0,1.7-2.5,3.5-4.6,3.5C317.9,76.8,316.9,76.1,316.9,75.1z"/>
</g>
<rect x="338.9" y="60.2" width="0.5" height="15.7"/>
<g>
	<path d="M332.4,77.5c0-1.8,2.5-3.5,4.5-3.5c1.3,0,2.3,0.7,2.3,1.7c0,1.7-2.5,3.5-4.6,3.5C333.4,79.3,332.4,78.6,332.4,77.5z"/>
</g>
<rect x="354.2" y="62" width="0.5" height="16.4"/>
<g>
	<path d="M347.8,80c0-1.8,2.5-3.5,4.5-3.5c1.3,0,2.3,0.7,2.3,1.7c0,1.7-2.5,3.5-4.6,3.5C348.8,81.7,347.8,81.1,347.8,80z"/>
</g>
<rect x="372.3" y="51.5" width="10.5" height="0.8"/>
<rect x="374.1" y="52.7" width="0.5" height="18.9"/>
<g>
	<path d="M374.1,52.7c0-1.8,2.5-3.5,4.5-3.5c1.3,0,2.3,0.7,2.3,1.7c0,1.7-2.5,3.5-4.6,3.5C375.1,54.5,374.1,53.8,374.1,52.7z"/>
</g>
<rect x="389.6" y="55.1" width="0.5" height="18"/>
<g>
	<path d="M389.6,55.2c0-1.8,2.5-3.5,4.5-3.5c1.3,0,2.3,0.7,2.3,1.7c0,1.7-2.5,3.5-4.6,3.5C390.6,56.9,389.6,56.3,389.6,55.2z"/>
</g>
<rect x="405.1" y="57.6" width="0.5" height="17.2"/>
<g>
	<path d="M405.1,57.7c0-1.8,2.5-3.5,4.5-3.5c1.3,0,2.3,0.7,2.3,1.7c0,1.7-2.5,3.5-4.6,3.5C406.1,59.4,405.1,58.8,405.1,57.7z"/>
</g>
<rect x="420.6" y="60.1" width="0.5" height="16.4"/>
<g>
	<path d="M420.6,60.2c0-1.8,2.5-3.5,4.5-3.5c1.3,0,2.3,0.7,2.3,1.7c0,1.7-2.5,3.5-4.6,3.5C421.6,61.9,420.6,61.3,420.6,60.2z"/>
</g>
<rect x="435.9" y="62.6" width="0.5" height="18.9"/>
<g>
	<path d="M436,62.7c0-1.8,2.5-3.5,4.5-3.5c1.3,0,2.3,0.7,2.3,1.7c0,1.7-2.5,3.5-4.6,3.5C437,64.4,436,63.7,436,62.7z"/>
</g>
<rect x="451.4" y="65.1" width="0.5" height="18"/>
<g>
	<path d="M451.5,65.1c0-1.8,2.5-3.5,4.5-3.5c1.3,0,2.3,0.7,2.3,1.7c0,1.7-2.5,3.5-4.6,3.5C452.5,66.9,451.5,66.2,451.5,65.1z"/>
</g>
<rect x="466.9" y="67.5" width="0.5" height="17.2"/>
<g>
	<path d="M467,67.6c0-1.8,2.5-3.5,4.5-3.5c1.3,0,2.3,0.7,2.3,1.7c0,1.7-2.5,3.5-4.6,3.5C468,69.3,467,68.7,467,67.6z"/>
</g>
<rect x="482.4" y="70" width="0.5" height="16.4"/>
<g>
	<path d="M482.5,70.1c0-1.8,2.5-3.5,4.5-3.5c1.3,0,2.3,0.7,2.3,1.7c0,1.7-2.5,3.5-4.6,3.5C483.5,71.8,482.5,71.2,482.5,70.1z"/>
</g>
<rect x="504.4" y="54.4" width="0.5" height="16.6"/>
<g>
	<path d="M502.1,69c1.6,0,2.7,0.7,2.7,2c0,1.9-2.3,3.4-4.5,3.4c-1.3,0-2.4-0.7-2.4-1.8C497.8,70.8,500.1,69,502.1,69z M498.3,72.9
		c0,0.6,0.4,0.9,1.1,0.9c1.4,0,4.9-2.1,4.9-3.3c0-0.6-0.4-0.9-1.1-0.9C502,69.6,498.3,71.6,498.3,72.9z"/>
</g>
</svg>
