<?xml version="1.0" encoding="utf-8"?>

<!--
	ScaleBook
	Copyright (c) Leland Jansen 2015. All rights reserved.
-->

<!DOCTYPE svg PUBLIC "-//W3C//DTD SVG 1.1//EN" "http://www.w3.org/Graphics/SVG/1.1/DTD/svg11.dtd">
<svg version="1.1" id="Layer_1" xmlns="http://www.w3.org/2000/svg" xmlns:xlink="http://www.w3.org/1999/xlink" x="0px" y="0px"
	 viewBox="0 0 552.9 86.7" enable-background="new 0 0 552.9 86.7" xml:space="preserve">
<rect x="8.4" y="9.7" width="0.8" height="67"/>
<g>
	<path d="M7.4,10.4c-1.9,1.1-3.6,5.8-3.6,9.4c0,2.3,1.4,9.9,1.4,12.3c0,5-1.5,8.6-4.6,11.1c3,2.4,4.6,6.1,4.6,11.1
		c0,2.3-1.4,9.9-1.4,12.3c0,3.8,1.7,8.4,3.6,9.5v0.7c-3.5-2.3-5.8-8.2-5.8-13.1c0-2.1,1.7-9.4,1.7-11.5c0-3.8-1-6.6-2.9-8.2
		C0.1,43.6,0,43.4,0,43.2c0-0.2,0.1-0.4,0.5-0.7c1.9-1.7,2.9-4.2,2.9-7.6c0-2.1-1.7-10-1.7-12.2c0-5.2,2.1-10.4,5.8-13.1V10.4z"/>
</g>
<rect x="547.8" y="9.7" width="0.8" height="67"/>
<rect x="550.4" y="9.7" width="2.5" height="67"/>
<rect x="8.5" y="29.3" width="544.4" height="0.5"/>
<rect x="8.5" y="24.4" width="544.4" height="0.5"/>
<rect x="8.5" y="19.4" width="544.4" height="0.5"/>
<rect x="8.5" y="14.4" width="544.4" height="0.5"/>
<rect x="8.5" y="9.5" width="544.4" height="0.5"/>
<g>
	<path d="M20.3,29.4c-4.2,0-8.1-3.1-8.1-6.9c0-3.2,2.3-6.7,6.8-10.5c-0.3-1.2-0.4-2.4-0.4-3.6c0-3.5,1.2-6.8,3.2-8.5
		c1.8,2.5,2.7,4.9,2.7,7.1c0,2.9-1.3,5.6-4.3,8.1l0.9,4.2c0.5,0,0.8-0.1,0.8-0.1c2.6,0,4.8,2,4.8,4.7c0,1.9-1.4,3.7-3.6,4.8
		c0-0.1,0.9,3.8,0.9,4.3c0,2.5-2.3,4.2-4.9,4.2c-2,0-3.6-1.3-3.6-3.4c0-1.4,1-2.6,2.4-2.6c1.3,0,2.3,1.3,2.3,2.5
		c0,1.4-1.2,2.3-2.7,2.5c0.6,0.3,1.2,0.5,1.9,0.5c2.1,0,4.1-1.6,4.1-3.6c0-0.2,0-0.4-0.1-0.6l-0.8-3.7
		C21.9,29.3,21.2,29.4,20.3,29.4z M18.1,24.2c0,1,0.5,1.9,1.6,2.5c-1.8-0.3-3-1.4-3-3.1c0-2,1.7-3.7,3.8-4.1l-0.8-4
		C16,18.3,14,21,14,23.6c0,2.9,2.8,5.3,6,5.3c0.9,0,1.7-0.2,2.4-0.5L21,21.6C19.4,21.8,18.1,22.8,18.1,24.2z M22.1,2.8
		c-1.6,0-2.9,3.7-2.9,7c0,0.7,0,1.3,0.2,1.9c2.7-2.4,4-4.5,4-6.5c0-0.9-0.3-1.7-1-2.4C22.4,2.9,22.3,2.8,22.1,2.8z M24.9,24.7
		c0-1.6-1.2-3.3-2.9-3.3c-0.1,0-0.2,0-0.5,0l1.4,6.6C24.2,27.2,24.9,26,24.9,24.7z"/>
</g>
<g>
	<path d="M33.5,2.9v2.8l1-0.3v1.8l-1,0.3V11l1-0.3v1.8l-1,0.3v3.1H33v-3l-1.9,0.6v3h-0.5v-2.8l-1,0.3v-1.8l1-0.3V8.4l-1,0.3V7l1-0.3
		V3.5h0.5v3L33,5.9v-3H33.5z M33,7.7l-1.9,0.6v3.4l1.9-0.6V7.7z"/>
</g>
<g>
	<path d="M39.7,10.3v2.8l1-0.3v1.8l-1,0.3v3.4l1-0.3v1.8l-1,0.3v3.1h-0.5v-3L37.3,21v3h-0.5v-2.8l-1,0.3v-1.8l1-0.3v-3.4l-1,0.3
		v-1.8l1-0.3V11h0.5v3l1.9-0.6v-3H39.7z M39.2,15.1l-1.9,0.6v3.4l1.9-0.6V15.1z"/>
</g>
<g>
	<path d="M45.9,0.4v2.8l1-0.3v1.8l-1,0.3v3.4l1-0.3V10l-1,0.3v3.1h-0.5v-3l-1.9,0.6v3H43v-2.8l-1,0.3V9.7l1-0.3V6l-1,0.3V4.5l1-0.3
		V1h0.5v3l1.9-0.6v-3H45.9z M45.4,5.2l-1.9,0.6v3.4l1.9-0.6V5.2z"/>
</g>
<g>
	<path d="M52.1,7.9v2.8l1-0.3v1.8l-1,0.3v3.4l1-0.3v1.8l-1,0.3v3.1h-0.5v-3l-1.9,0.6v3h-0.5v-2.8l-1,0.3v-1.8l1-0.3v-3.4l-1,0.3
		v-1.8l1-0.3V8.5h0.5v3l1.9-0.6v-3H52.1z M51.6,12.6l-1.9,0.6v3.4l1.9-0.6V12.6z"/>
</g>
<g>
	<path d="M58.3,15.3v2.8l1-0.3v1.8l-1,0.3v3.4l1-0.3v1.8l-1,0.3v3.1h-0.5v-3l-1.9,0.6v3h-0.5v-2.8l-1,0.3v-1.8l1-0.3v-3.4l-1,0.3
		v-1.8l1-0.3v-3.1h0.5v3l1.9-0.6v-3H58.3z M57.8,20.1l-1.9,0.6v3.4l1.9-0.6V20.1z"/>
</g>
<g>
	<path d="M64.5,5.4v2.8l1-0.3v1.8l-1,0.3v3.4l1-0.3v1.8l-1,0.3v3.1H64v-3L62.1,16v3h-0.5v-2.8l-1,0.3v-1.8l1-0.3v-3.4l-1,0.3V9.5
		l1-0.3V6h0.5v3L64,8.3v-3H64.5z M64,10.2l-1.9,0.6v3.4l1.9-0.6V10.2z"/>
</g>
<g>
	<path d="M70.7,12.8v2.8l1-0.3v1.8l-1,0.3v3.4l1-0.3v1.8l-1,0.3v3.1h-0.5v-3l-1.9,0.6v3h-0.5v-2.8l-1,0.3v-1.8l1-0.3v-3.4l-1,0.3
		v-1.8l1-0.3v-3.1h0.5v3l1.9-0.6v-3H70.7z M70.2,17.6l-1.9,0.6v3.4l1.9-0.6V17.6z"/>
</g>
<polygon fill-rule="evenodd" clip-rule="evenodd" points="87.1,25.8 129.5,20.9 129.5,18.4 87.1,23.4 "/>
<polygon fill-rule="evenodd" clip-rule="evenodd" points="87.1,22.1 129.5,17.2 129.5,14.7 87.1,19.6 "/>
<polygon fill-rule="evenodd" clip-rule="evenodd" points="143.8,15.9 186.3,11 186.3,8.5 143.8,13.4 "/>
<polygon fill-rule="evenodd" clip-rule="evenodd" points="143.8,12.2 186.3,7.2 186.3,4.8 143.8,9.7 "/>
<polygon fill-rule="evenodd" clip-rule="evenodd" points="206.1,30.8 248.7,25.8 248.7,23.4 206.1,28.3 "/>
<polygon fill-rule="evenodd" clip-rule="evenodd" points="206.1,34.5 248.7,29.6 248.7,27.1 206.1,32 "/>
<polygon fill-rule="evenodd" clip-rule="evenodd" points="262.8,22.1 305.5,20.9 305.5,18.4 262.8,19.6 "/>
<polygon fill-rule="evenodd" clip-rule="evenodd" points="262.8,25.8 305.5,24.6 305.5,22.1 262.8,23.4 "/>
<polygon fill-rule="evenodd" clip-rule="evenodd" points="319.6,25.8 362.2,30.8 362.2,28.3 319.6,23.4 "/>
<polygon fill-rule="evenodd" clip-rule="evenodd" points="319.6,29.6 362.2,34.5 362.2,32 319.6,27.1 "/>
<polygon fill-rule="evenodd" clip-rule="evenodd" points="395.1,11 437.5,15.9 437.5,13.4 395.1,8.5 "/>
<polygon fill-rule="evenodd" clip-rule="evenodd" points="395.1,7.2 437.5,12.2 437.5,9.7 395.1,4.8 "/>
<polygon fill-rule="evenodd" clip-rule="evenodd" points="451.8,20.9 494.3,25.8 494.3,23.4 451.8,18.4 "/>
<polygon fill-rule="evenodd" clip-rule="evenodd" points="451.8,17.2 494.3,22.1 494.3,19.6 451.8,14.7 "/>
<rect x="8.5" y="76.4" width="544.4" height="0.5"/>
<rect x="8.5" y="71.5" width="544.4" height="0.5"/>
<rect x="8.5" y="66.5" width="544.4" height="0.5"/>
<rect x="8.5" y="61.6" width="544.4" height="0.5"/>
<rect x="8.5" y="56.6" width="544.4" height="0.5"/>
<g>
	<path d="M15.7,71c2.9-2.6,4.7-6.1,4.7-9.2c0-2.5-1.4-4.4-3.7-4.4c-1.6,0-3.4,1.3-3.4,2.7c0,0.2,0,0.3,0.1,0.3
		c-0.1,0,0.6-0.6,1.4-0.6c0.9,0,1.5,0.8,1.5,1.7c0,1.2-0.9,2.2-2.1,2.2c-1.2,0-2.1-1.3-2.1-2.8c0-2.3,2.3-4.1,4.8-4.1
		c4.7,0,5.9,3.2,5.9,5.8c0,1.6-0.4,2.9-2,5.3c-1.9,3.1-6.4,5.3-8.1,5.3c-0.4,0-0.6-0.2-0.6-0.5C13.8,72.3,14.9,71.7,15.7,71z
		 M25.7,58.3c0.6,0,1,0.4,1,1c0,0.6-0.4,1-1,1s-1-0.4-1-1C24.7,58.8,25.1,58.3,25.7,58.3z M25.7,63.3c0.6,0,1,0.4,1,1
		c0,0.6-0.4,1-1,1s-1-0.4-1-1C24.7,63.7,25.1,63.3,25.7,63.3z"/>
</g>
<g>
	<path d="M33.5,55v2.8l1-0.3v1.8l-1,0.3V63l1-0.3v1.8l-1,0.3V68H33v-3l-1.9,0.6v3h-0.5v-2.8l-1,0.3v-1.8l1-0.3v-3.4l-1,0.3v-1.8
		l1-0.3v-3.1h0.5v3L33,58v-3H33.5z M33,59.8l-1.9,0.6v3.4l1.9-0.6V59.8z"/>
</g>
<g>
	<path d="M39.7,62.4v2.8l1-0.3v1.8l-1,0.3v3.4l1-0.3V72l-1,0.3v3.1h-0.5v-3l-1.9,0.6v3h-0.5v-2.8l-1,0.3v-1.8l1-0.3V68l-1,0.3v-1.8
		l1-0.3v-3.1h0.5v3l1.9-0.6v-3H39.7z M39.2,67.2l-1.9,0.6v3.4l1.9-0.6V67.2z"/>
</g>
<g>
	<path d="M45.9,52.5v2.8l1-0.3v1.8l-1,0.3v3.4l1-0.3V62l-1,0.3v3.1h-0.5v-3l-1.9,0.6v3H43v-2.8l-1,0.3v-1.8l1-0.3V58l-1,0.3v-1.8
		l1-0.3v-3.1h0.5v3l1.9-0.6v-3H45.9z M45.4,57.3l-1.9,0.6v3.4l1.9-0.6V57.3z"/>
</g>
<g>
	<path d="M52.1,59.9v2.8l1-0.3v1.8l-1,0.3V68l1-0.3v1.8l-1,0.3v3.1h-0.5v-3l-1.9,0.6v3h-0.5v-2.8l-1,0.3v-1.8l1-0.3v-3.4l-1,0.3V64
		l1-0.3v-3.1h0.5v3l1.9-0.6v-3H52.1z M51.6,64.7l-1.9,0.6v3.4l1.9-0.6V64.7z"/>
</g>
<g>
	<path d="M58.3,67.4v2.8l1-0.3v1.8l-1,0.3v3.4l1-0.3v1.8l-1,0.3v3.1h-0.5v-3L55.9,78v3h-0.5v-2.8l-1,0.3v-1.8l1-0.3v-3.4l-1,0.3
		v-1.8l1-0.3V68h0.5v3l1.9-0.6v-3H58.3z M57.8,72.2l-1.9,0.6v3.4l1.9-0.6V72.2z"/>
</g>
<g>
	<path d="M64.5,57.5v2.8l1-0.3v1.8l-1,0.3v3.4l1-0.3V67l-1,0.3v3.1H64v-3l-1.9,0.6v3h-0.5v-2.8l-1,0.3v-1.8l1-0.3V63l-1,0.3v-1.8
		l1-0.3v-3.1h0.5v3l1.9-0.6v-3H64.5z M64,62.2l-1.9,0.6v3.4l1.9-0.6V62.2z"/>
</g>
<g>
	<path d="M70.7,64.9v2.8l1-0.3v1.8l-1,0.3V73l1-0.3v1.8l-1,0.3v3.1h-0.5v-3l-1.9,0.6v3h-0.5v-2.8l-1,0.3v-1.8l1-0.3v-3.4l-1,0.3V69
		l1-0.3v-3.1h0.5v3l1.9-0.6v-3H70.7z M70.2,69.7l-1.9,0.6v3.4l1.9-0.6V69.7z"/>
</g>
<polygon fill-rule="evenodd" clip-rule="evenodd" points="87.1,63 129.5,58.1 129.5,55.6 87.1,60.6 "/>
<polygon fill-rule="evenodd" clip-rule="evenodd" points="87.1,59.3 129.5,54.4 129.5,51.9 87.1,56.8 "/>
<g>
	<path d="M198.1,75.3c-3.2,0-6.1-2.3-6.1-5.1c0-2.4,1.7-5,5.1-7.9c-0.2-0.9-0.3-1.8-0.3-2.7c0-2.6,0.9-5.1,2.4-6.3
		c1.4,1.9,2,3.7,2,5.3c0,2.2-1,4.2-3.2,6.1l0.7,3.1c0.4,0,0.6,0,0.6,0c2,0,3.6,1.5,3.6,3.5c0,1.4-1.1,2.8-2.7,3.6
		c0-0.1,0.6,2.8,0.6,3.3c0,1.9-1.7,3.2-3.7,3.2c-1.5,0-2.7-1-2.7-2.5c0-1.1,0.7-1.9,1.8-1.9c1,0,1.7,1,1.7,1.9c0,1-0.9,1.7-2,1.8
		c0.4,0.2,0.9,0.3,1.4,0.3c1.6,0,3.1-1.2,3.1-2.7c0-0.1,0-0.3,0-0.5l-0.6-2.8C199.3,75.2,198.8,75.3,198.1,75.3z M196.4,71.4
		c0,0.8,0.4,1.4,1.2,1.9c-1.3-0.2-2.2-1.1-2.2-2.3c0-1.5,1.3-2.8,2.9-3.1l-0.6-3c-2.8,2.1-4.3,4.1-4.3,6.1c0,2.2,2.1,4,4.5,4
		c0.7,0,1.3-0.1,1.8-0.4l-1.1-5.1C197.4,69.6,196.4,70.4,196.4,71.4z M199.5,55.4c-1.2,0-2.2,2.8-2.2,5.3c0,0.5,0,1,0.1,1.4
		c2-1.8,3-3.4,3-4.9c0-0.7-0.3-1.3-0.7-1.8C199.7,55.4,199.6,55.4,199.5,55.4z M201.5,71.8c0-1.2-0.9-2.4-2.2-2.4c0,0-0.2,0-0.4,0
		l1.1,5C201,73.7,201.5,72.8,201.5,71.8z"/>
</g>
<polygon fill-rule="evenodd" clip-rule="evenodd" points="137.3,77.9 179.8,73 179.8,70.5 137.3,75.4 "/>
<polygon fill-rule="evenodd" clip-rule="evenodd" points="137.3,81.6 179.8,76.7 179.8,74.2 137.3,79.2 "/>
<polygon fill-rule="evenodd" clip-rule="evenodd" points="212.6,73 255.2,68 255.2,65.5 212.6,70.5 "/>
<polygon fill-rule="evenodd" clip-rule="evenodd" points="212.6,69.2 255.2,64.3 255.2,61.8 212.6,66.8 "/>
<rect x="269.4" y="55.6" fill-rule="evenodd" clip-rule="evenodd" width="42.6" height="2.5"/>
<rect x="269.4" y="51.9" fill-rule="evenodd" clip-rule="evenodd" width="42.6" height="2.5"/>
<g>
	<path d="M379,68.7c2.2-2,3.6-4.6,3.6-6.9c0-1.9-1.1-3.3-2.8-3.3c-1.2,0-2.5,1-2.5,2.1c0,0.2,0,0.2,0.1,0.2c0,0,0.4-0.5,1-0.5
		c0.7,0,1.2,0.6,1.2,1.3c0,0.9-0.6,1.7-1.6,1.7s-1.5-1-1.5-2.1c0-1.8,1.7-3.1,3.6-3.1c3.5,0,4.4,2.4,4.4,4.4c0,1.2-0.3,2.2-1.5,4
		c-1.4,2.3-4.8,4-6,4c-0.3,0-0.5-0.1-0.5-0.3C377.5,69.7,378.4,69.2,379,68.7z M386.4,59.2c0.4,0,0.7,0.3,0.7,0.7
		c0,0.4-0.3,0.7-0.7,0.7c-0.4,0-0.7-0.3-0.7-0.7C385.7,59.5,386,59.2,386.4,59.2z M386.4,62.9c0.4,0,0.7,0.3,0.7,0.7
		s-0.3,0.7-0.7,0.7c-0.4,0-0.7-0.3-0.7-0.7S386,62.9,386.4,62.9z"/>
</g>
<polygon fill-rule="evenodd" clip-rule="evenodd" points="326.1,63 368.7,68 368.7,65.5 326.1,60.6 "/>
<polygon fill-rule="evenodd" clip-rule="evenodd" points="326.1,59.3 368.7,64.3 368.7,61.8 326.1,56.8 "/>
<polygon fill-rule="evenodd" clip-rule="evenodd" points="388.6,68 431,73 431,70.5 388.6,65.5 "/>
<polygon fill-rule="evenodd" clip-rule="evenodd" points="388.6,71.7 431,76.7 431,74.2 388.6,69.2 "/>
<polygon fill-rule="evenodd" clip-rule="evenodd" points="451.8,53.1 494.3,58.1 494.3,55.6 451.8,50.6 "/>
<polygon fill-rule="evenodd" clip-rule="evenodd" points="451.8,49.4 494.3,54.4 494.3,51.9 451.8,46.9 "/>
<rect x="78.5" y="34.1" width="10.5" height="0.8"/>
<rect x="78.5" y="39.1" width="10.5" height="0.8"/>
<rect x="86.8" y="19.8" width="0.5" height="18.9"/>
<g>
	<path d="M80.4,40.3c0-1.8,2.5-3.5,4.5-3.5c1.3,0,2.3,0.7,2.3,1.7c0,1.7-2.5,3.5-4.6,3.5C81.4,42.1,80.4,41.4,80.4,40.3z"/>
</g>
<rect x="92.6" y="34.1" width="10.5" height="0.8"/>
<rect x="100.9" y="18.2" width="0.5" height="18"/>
<g>
	<path d="M94.5,37.9c0-1.8,2.5-3.5,4.5-3.5c1.3,0,2.3,0.7,2.3,1.7c0,1.7-2.5,3.5-4.6,3.5C95.5,39.6,94.5,38.9,94.5,37.9z"/>
</g>
<rect x="106.9" y="34.1" width="10.5" height="0.8"/>
<rect x="115.2" y="16.5" width="0.5" height="17.2"/>
<g>
	<path d="M108.8,35.4c0-1.8,2.5-3.5,4.5-3.5c1.3,0,2.3,0.7,2.3,1.7c0,1.7-2.5,3.5-4.6,3.5C109.7,37.1,108.8,36.5,108.8,35.4z"/>
</g>
<rect x="129.3" y="14.8" width="0.5" height="16.4"/>
<g>
	<path d="M122.9,32.9c0-1.8,2.5-3.5,4.5-3.5c1.3,0,2.3,0.7,2.3,1.7c0,1.7-2.5,3.5-4.6,3.5C123.8,34.6,122.9,34,122.9,32.9z"/>
</g>
<rect x="143.6" y="9.9" width="0.5" height="18.9"/>
<g>
	<path d="M137.1,30.4c0-1.8,2.5-3.5,4.5-3.5c1.3,0,2.3,0.7,2.3,1.7c0,1.7-2.5,3.5-4.6,3.5C138.1,32.1,137.1,31.5,137.1,30.4z"/>
</g>
<rect x="157.7" y="8.3" width="0.5" height="18"/>
<g>
	<path d="M151.2,27.9c0-1.8,2.5-3.5,4.5-3.5c1.3,0,2.3,0.7,2.3,1.7c0,1.7-2.5,3.5-4.6,3.5C152.2,29.7,151.2,29,151.2,27.9z"/>
</g>
<rect x="171.9" y="6.6" width="0.5" height="17.2"/>
<g>
	<path d="M165.5,25.5c0-1.8,2.5-3.5,4.5-3.5c1.3,0,2.3,0.7,2.3,1.7c0,1.7-2.5,3.5-4.6,3.5C166.5,27.2,165.5,26.5,165.5,25.5z"/>
</g>
<rect x="186" y="4.9" width="0.5" height="16.4"/>
<g>
	<path d="M179.6,23c0-1.8,2.5-3.5,4.5-3.5c1.3,0,2.3,0.7,2.3,1.7c0,1.7-2.5,3.5-4.6,3.5C180.6,24.7,179.6,24.1,179.6,23z"/>
</g>
<rect x="205.9" y="20.4" width="0.5" height="14"/>
<g>
	<path d="M205.9,20.5c0-1.8,2.5-3.5,4.5-3.5c1.3,0,2.3,0.7,2.3,1.7c0,1.7-2.5,3.5-4.6,3.5C206.9,22.2,205.9,21.6,205.9,20.5z"/>
</g>
<rect x="220.1" y="17.9" width="0.5" height="14.9"/>
<g>
	<path d="M220.2,18c0-1.8,2.5-3.5,4.5-3.5c1.3,0,2.3,0.7,2.3,1.7c0,1.7-2.5,3.5-4.6,3.5C221.2,19.7,220.2,19.1,220.2,18z"/>
</g>
<rect x="234.2" y="15.5" width="0.5" height="15.7"/>
<g>
	<path d="M234.3,15.5c0-1.8,2.5-3.5,4.5-3.5c1.3,0,2.3,0.7,2.3,1.7c0,1.7-2.5,3.5-4.6,3.5C235.3,17.3,234.3,16.6,234.3,15.5z"/>
</g>
<rect x="248.5" y="13" width="0.5" height="16.4"/>
<g>
	<path d="M248.6,13c0-1.8,2.5-3.5,4.5-3.5c1.3,0,2.3,0.7,2.3,1.7c0,1.7-2.5,3.5-4.6,3.5C249.6,14.8,248.6,14.1,248.6,13z"/>
</g>
<rect x="262.6" y="10.5" width="0.5" height="15.2"/>
<g>
	<path d="M262.7,10.6c0-1.8,2.5-3.5,4.5-3.5c1.3,0,2.3,0.7,2.3,1.7c0,1.7-2.5,3.5-4.6,3.5C263.7,12.3,262.7,11.7,262.7,10.6z"/>
</g>
<rect x="276.9" y="8" width="0.5" height="17.4"/>
<g>
	<path d="M276.9,8.1c0-1.8,2.5-3.5,4.5-3.5c1.3,0,2.3,0.7,2.3,1.7c0,1.7-2.5,3.5-4.6,3.5C277.9,9.8,276.9,9.2,276.9,8.1z"/>
</g>
<rect x="289.2" y="4.4" width="10.5" height="0.8"/>
<rect x="291" y="5.5" width="0.5" height="19.4"/>
<g>
	<path d="M291.1,5.6c0-1.8,2.5-3.5,4.5-3.5c1.3,0,2.3,0.7,2.3,1.7c0,1.7-2.5,3.5-4.6,3.5C292,7.3,291.1,6.7,291.1,5.6z"/>
</g>
<rect x="305.2" y="8" width="0.5" height="16.4"/>
<g>
	<path d="M305.3,8.1c0-1.8,2.5-3.5,4.5-3.5c1.3,0,2.3,0.7,2.3,1.7c0,1.7-2.5,3.5-4.6,3.5C306.3,9.8,305.3,9.2,305.3,8.1z"/>
</g>
<rect x="319.3" y="10.5" width="0.5" height="18.9"/>
<g>
	<path d="M319.4,10.6c0-1.8,2.5-3.5,4.5-3.5c1.3,0,2.3,0.7,2.3,1.7c0,1.7-2.5,3.5-4.6,3.5C320.4,12.3,319.4,11.7,319.4,10.6z"/>
</g>
<rect x="333.6" y="13" width="0.5" height="18"/>
<g>
	<path d="M333.7,13c0-1.8,2.5-3.5,4.5-3.5c1.3,0,2.3,0.7,2.3,1.7c0,1.7-2.5,3.5-4.6,3.5C334.7,14.8,333.7,14.1,333.7,13z"/>
</g>
<rect x="347.7" y="15.5" width="0.5" height="17.2"/>
<g>
	<path d="M347.8,15.5c0-1.8,2.5-3.5,4.5-3.5c1.3,0,2.3,0.7,2.3,1.7c0,1.7-2.5,3.5-4.6,3.5C348.8,17.3,347.8,16.6,347.8,15.5z"/>
</g>
<rect x="362" y="17.9" width="0.5" height="16.4"/>
<g>
	<path d="M362,18c0-1.8,2.5-3.5,4.5-3.5c1.3,0,2.3,0.7,2.3,1.7c0,1.7-2.5,3.5-4.6,3.5C363,19.7,362,19.1,362,18z"/>
</g>
<rect x="394.8" y="4.9" width="0.5" height="14"/>
<g>
	<path d="M388.4,20.5c0-1.8,2.5-3.5,4.5-3.5c1.3,0,2.3,0.7,2.3,1.7c0,1.7-2.5,3.5-4.6,3.5C389.4,22.2,388.4,21.6,388.4,20.5z"/>
</g>
<rect x="408.9" y="6.5" width="0.5" height="14.9"/>
<g>
	<path d="M402.5,23c0-1.8,2.5-3.5,4.5-3.5c1.3,0,2.3,0.7,2.3,1.7c0,1.7-2.5,3.5-4.6,3.5C403.5,24.7,402.5,24.1,402.5,23z"/>
</g>
<rect x="423.2" y="8.2" width="0.5" height="15.7"/>
<g>
	<path d="M416.8,25.5c0-1.8,2.5-3.5,4.5-3.5c1.3,0,2.3,0.7,2.3,1.7c0,1.7-2.5,3.5-4.6,3.5C417.7,27.2,416.8,26.5,416.8,25.5z"/>
</g>
<rect x="437.3" y="9.9" width="0.5" height="16.4"/>
<g>
	<path d="M430.9,27.9c0-1.8,2.5-3.5,4.5-3.5c1.3,0,2.3,0.7,2.3,1.7c0,1.7-2.5,3.5-4.6,3.5C431.8,29.7,430.9,29,430.9,27.9z"/>
</g>
<rect x="451.6" y="14.8" width="0.5" height="14"/>
<g>
	<path d="M445.1,30.4c0-1.8,2.5-3.5,4.5-3.5c1.3,0,2.3,0.7,2.3,1.7c0,1.7-2.5,3.5-4.6,3.5C446.1,32.1,445.1,31.5,445.1,30.4z"/>
</g>
<rect x="465.7" y="16.4" width="0.5" height="14.9"/>
<g>
	<path d="M459.2,32.9c0-1.8,2.5-3.5,4.5-3.5c1.3,0,2.3,0.7,2.3,1.7c0,1.7-2.5,3.5-4.6,3.5C460.2,34.6,459.2,34,459.2,32.9z"/>
</g>
<rect x="471.6" y="34.1" width="10.5" height="0.8"/>
<rect x="479.9" y="18.1" width="0.5" height="15.7"/>
<g>
	<path d="M473.5,35.4c0-1.8,2.5-3.5,4.5-3.5c1.3,0,2.3,0.7,2.3,1.7c0,1.7-2.5,3.5-4.6,3.5C474.5,37.1,473.5,36.5,473.5,35.4z"/>
</g>
<rect x="485.8" y="34.1" width="10.5" height="0.8"/>
<rect x="494" y="19.8" width="0.5" height="16.4"/>
<g>
	<path d="M487.6,37.9c0-1.8,2.5-3.5,4.5-3.5c1.3,0,2.3,0.7,2.3,1.7c0,1.7-2.5,3.5-4.6,3.5C488.6,39.6,487.6,38.9,487.6,37.9z"/>
</g>
<rect x="500" y="34.1" width="10.7" height="0.8"/>
<rect x="500" y="39.1" width="10.7" height="0.8"/>
<rect x="508.5" y="19.6" width="0.5" height="19.1"/>
<g>
	<path d="M506.1,36.8c1.6,0,2.7,0.7,2.7,2c0,1.9-2.3,3.4-4.5,3.4c-1.3,0-2.4-0.7-2.4-1.8C501.9,38.6,504.1,36.8,506.1,36.8z
		 M502.3,40.6c0,0.6,0.4,0.9,1.1,0.9c1.4,0,4.9-2.1,4.9-3.3c0-0.6-0.4-0.9-1.1-0.9C506,37.4,502.3,39.4,502.3,40.6z"/>
</g>
<rect x="86.8" y="57" width="0.5" height="16.4"/>
<g>
	<path d="M80.4,75.1c0-1.8,2.5-3.5,4.5-3.5c1.3,0,2.3,0.7,2.3,1.7c0,1.7-2.5,3.5-4.6,3.5C81.4,76.8,80.4,76.1,80.4,75.1z"/>
</g>
<rect x="100.9" y="55.4" width="0.5" height="15.5"/>
<g>
	<path d="M94.5,72.6c0-1.8,2.5-3.5,4.5-3.5c1.3,0,2.3,0.7,2.3,1.7c0,1.7-2.5,3.5-4.6,3.5C95.5,74.3,94.5,73.7,94.5,72.6z"/>
</g>
<rect x="115.2" y="53.7" width="0.5" height="14.7"/>
<g>
	<path d="M108.8,70.1c0-1.8,2.5-3.5,4.5-3.5c1.3,0,2.3,0.7,2.3,1.7c0,1.7-2.5,3.5-4.6,3.5C109.7,71.8,108.8,71.2,108.8,70.1z"/>
</g>
<rect x="129.3" y="52" width="0.5" height="14"/>
<g>
	<path d="M122.9,67.6c0-1.8,2.5-3.5,4.5-3.5c1.3,0,2.3,0.7,2.3,1.7c0,1.7-2.5,3.5-4.6,3.5C123.8,69.3,122.9,68.7,122.9,67.6z"/>
</g>
<rect x="137" y="65.1" width="0.5" height="16.4"/>
<g>
	<path d="M137.1,65.1c0-1.8,2.5-3.5,4.5-3.5c1.3,0,2.3,0.7,2.3,1.7c0,1.7-2.5,3.5-4.6,3.5C138.1,66.9,137.1,66.2,137.1,65.1z"/>
</g>
<rect x="151.2" y="62.6" width="0.5" height="17.4"/>
<g>
	<path d="M151.2,62.7c0-1.8,2.5-3.5,4.5-3.5c1.3,0,2.3,0.7,2.3,1.7c0,1.7-2.5,3.5-4.6,3.5C152.2,64.4,151.2,63.7,151.2,62.7z"/>
</g>
<rect x="165.4" y="60.1" width="0.5" height="18.1"/>
<g>
	<path d="M165.5,60.2c0-1.8,2.5-3.5,4.5-3.5c1.3,0,2.3,0.7,2.3,1.7c0,1.7-2.5,3.5-4.6,3.5C166.5,61.9,165.5,61.3,165.5,60.2z"/>
</g>
<rect x="179.5" y="57.6" width="0.5" height="18.9"/>
<g>
	<path d="M179.6,57.7c0-1.8,2.5-3.5,4.5-3.5c1.3,0,2.3,0.7,2.3,1.7c0,1.7-2.5,3.5-4.6,3.5C180.6,59.4,179.6,58.8,179.6,57.7z"/>
</g>
<rect x="204.1" y="81.3" width="10.5" height="0.8"/>
<rect x="212.4" y="66.9" width="0.5" height="16.4"/>
<g>
	<path d="M205.9,85c0-1.8,2.5-3.5,4.5-3.5c1.3,0,2.3,0.7,2.3,1.7c0,1.7-2.5,3.5-4.6,3.5C206.9,86.7,205.9,86.1,205.9,85z"/>
</g>
<rect x="218.4" y="81.3" width="10.5" height="0.8"/>
<rect x="226.6" y="65.4" width="0.5" height="15.5"/>
<g>
	<path d="M220.2,82.5c0-1.8,2.5-3.5,4.5-3.5c1.3,0,2.3,0.7,2.3,1.7c0,1.7-2.5,3.5-4.6,3.5C221.2,84.2,220.2,83.6,220.2,82.5z"/>
</g>
<rect x="240.8" y="63.7" width="0.5" height="14.7"/>
<g>
	<path d="M234.3,80c0-1.8,2.5-3.5,4.5-3.5c1.3,0,2.3,0.7,2.3,1.7c0,1.7-2.5,3.5-4.6,3.5C235.3,81.7,234.3,81.1,234.3,80z"/>
</g>
<rect x="255" y="62" width="0.5" height="14"/>
<g>
	<path d="M248.6,77.5c0-1.8,2.5-3.5,4.5-3.5c1.3,0,2.3,0.7,2.3,1.7c0,1.7-2.5,3.5-4.6,3.5C249.6,79.3,248.6,78.6,248.6,77.5z"/>
</g>
<rect x="269.1" y="52" width="0.5" height="21.4"/>
<g>
	<path d="M262.7,75.1c0-1.8,2.5-3.5,4.5-3.5c1.3,0,2.3,0.7,2.3,1.7c0,1.7-2.5,3.5-4.6,3.5C263.7,76.8,262.7,76.1,262.7,75.1z"/>
</g>
<rect x="283.4" y="52" width="0.5" height="18.9"/>
<g>
	<path d="M276.9,72.6c0-1.8,2.5-3.5,4.5-3.5c1.3,0,2.3,0.7,2.3,1.7c0,1.7-2.5,3.5-4.6,3.5C277.9,74.3,276.9,73.7,276.9,72.6z"/>
</g>
<rect x="297.5" y="52" width="0.5" height="16.4"/>
<g>
	<path d="M291.1,70.1c0-1.8,2.5-3.5,4.5-3.5c1.3,0,2.3,0.7,2.3,1.7c0,1.7-2.5,3.5-4.6,3.5C292,71.8,291.1,71.2,291.1,70.1z"/>
</g>
<rect x="311.7" y="52" width="0.5" height="18.9"/>
<g>
	<path d="M305.3,72.6c0-1.8,2.5-3.5,4.5-3.5c1.3,0,2.3,0.7,2.3,1.7c0,1.7-2.5,3.5-4.6,3.5C306.3,74.3,305.3,73.7,305.3,72.6z"/>
</g>
<rect x="325.9" y="57" width="0.5" height="16.4"/>
<g>
	<path d="M319.4,75.1c0-1.8,2.5-3.5,4.5-3.5c1.3,0,2.3,0.7,2.3,1.7c0,1.7-2.5,3.5-4.6,3.5C320.4,76.8,319.4,76.1,319.4,75.1z"/>
</g>
<rect x="340.1" y="58.5" width="0.5" height="17.4"/>
<g>
	<path d="M333.7,77.5c0-1.8,2.5-3.5,4.5-3.5c1.3,0,2.3,0.7,2.3,1.7c0,1.7-2.5,3.5-4.6,3.5C334.7,79.3,333.7,78.6,333.7,77.5z"/>
</g>
<rect x="354.2" y="60.2" width="0.5" height="18.1"/>
<g>
	<path d="M347.8,80c0-1.8,2.5-3.5,4.5-3.5c1.3,0,2.3,0.7,2.3,1.7c0,1.7-2.5,3.5-4.6,3.5C348.8,81.7,347.8,81.1,347.8,80z"/>
</g>
<rect x="360.2" y="81.3" width="10.5" height="0.8"/>
<rect x="368.5" y="62" width="0.5" height="18.9"/>
<g>
	<path d="M362,82.5c0-1.8,2.5-3.5,4.5-3.5c1.3,0,2.3,0.7,2.3,1.7c0,1.7-2.5,3.5-4.6,3.5C363,84.2,362,83.6,362,82.5z"/>
</g>
<rect x="388.3" y="55.1" width="0.5" height="16.4"/>
<g>
	<path d="M388.4,55.2c0-1.8,2.5-3.5,4.5-3.5c1.3,0,2.3,0.7,2.3,1.7c0,1.7-2.5,3.5-4.6,3.5C389.4,56.9,388.4,56.3,388.4,55.2z"/>
</g>
<rect x="402.4" y="57.6" width="0.5" height="15.5"/>
<g>
	<path d="M402.5,57.7c0-1.8,2.5-3.5,4.5-3.5c1.3,0,2.3,0.7,2.3,1.7c0,1.7-2.5,3.5-4.6,3.5C403.5,59.4,402.5,58.8,402.5,57.7z"/>
</g>
<rect x="416.7" y="60.1" width="0.5" height="14.7"/>
<g>
	<path d="M416.8,60.2c0-1.8,2.5-3.5,4.5-3.5c1.3,0,2.3,0.7,2.3,1.7c0,1.7-2.5,3.5-4.6,3.5C417.7,61.9,416.8,61.3,416.8,60.2z"/>
</g>
<rect x="430.8" y="62.6" width="0.5" height="14"/>
<g>
	<path d="M430.9,62.7c0-1.8,2.5-3.5,4.5-3.5c1.3,0,2.3,0.7,2.3,1.7c0,1.7-2.5,3.5-4.6,3.5C431.8,64.4,430.9,63.7,430.9,62.7z"/>
</g>
<rect x="451.6" y="47.1" width="0.5" height="16.4"/>
<g>
	<path d="M445.1,65.1c0-1.8,2.5-3.5,4.5-3.5c1.3,0,2.3,0.7,2.3,1.7c0,1.7-2.5,3.5-4.6,3.5C446.1,66.9,445.1,66.2,445.1,65.1z"/>
</g>
<rect x="465.7" y="48.6" width="0.5" height="17.4"/>
<g>
	<path d="M459.2,67.6c0-1.8,2.5-3.5,4.5-3.5c1.3,0,2.3,0.7,2.3,1.7c0,1.7-2.5,3.5-4.6,3.5C460.2,69.3,459.2,68.7,459.2,67.6z"/>
</g>
<rect x="479.9" y="50.3" width="0.5" height="18.1"/>
<g>
	<path d="M473.5,70.1c0-1.8,2.5-3.5,4.5-3.5c1.3,0,2.3,0.7,2.3,1.7c0,1.7-2.5,3.5-4.6,3.5C474.5,71.8,473.5,71.2,473.5,70.1z"/>
</g>
<rect x="494" y="52" width="0.5" height="18.9"/>
<g>
	<path d="M487.6,72.6c0-1.8,2.5-3.5,4.5-3.5c1.3,0,2.3,0.7,2.3,1.7c0,1.7-2.5,3.5-4.6,3.5C488.6,74.3,487.6,73.7,487.6,72.6z"/>
</g>
<rect x="508.5" y="56.8" width="0.5" height="16.6"/>
<g>
	<path d="M506.1,71.5c1.6,0,2.7,0.7,2.7,2c0,1.9-2.3,3.4-4.5,3.4c-1.3,0-2.4-0.7-2.4-1.8C501.9,73.3,504.1,71.5,506.1,71.5z
		 M502.3,75.4c0,0.6,0.4,0.9,1.1,0.9c1.4,0,4.9-2.1,4.9-3.3c0-0.6-0.4-0.9-1.1-0.9C506,72.1,502.3,74.1,502.3,75.4z"/>
</g>
</svg>
