<?xml version="1.0" encoding="utf-8"?>

<!--
	ScaleBook
	Copyright (c) Leland Jansen 2015. All rights reserved.
-->

<!DOCTYPE svg PUBLIC "-//W3C//DTD SVG 1.1//EN" "http://www.w3.org/Graphics/SVG/1.1/DTD/svg11.dtd">
<svg version="1.1" id="Layer_1" xmlns="http://www.w3.org/2000/svg" xmlns:xlink="http://www.w3.org/1999/xlink" x="0px" y="0px"
	 viewBox="0 0 552.9 86.8" enable-background="new 0 0 552.9 86.8" xml:space="preserve">
<rect x="8.4" y="9.9" width="0.8" height="67"/>
<g>
	<path d="M7.4,10.6c-1.9,1.1-3.6,5.8-3.6,9.4c0,2.3,1.4,9.9,1.4,12.3c0,5-1.5,8.6-4.6,11.1c3,2.4,4.6,6.1,4.6,11.1
		c0,2.3-1.4,9.9-1.4,12.3c0,3.8,1.7,8.4,3.6,9.5v0.7c-3.5-2.3-5.8-8.2-5.8-13.1c0-2.1,1.7-9.4,1.7-11.5c0-3.8-1-6.6-2.9-8.2
		C0.1,43.8,0,43.6,0,43.4c0-0.2,0.1-0.4,0.5-0.7c1.9-1.7,2.9-4.2,2.9-7.6c0-2.1-1.7-10-1.7-12.2c0-5.2,2.1-10.4,5.8-13.1V10.6z"/>
</g>
<rect x="547.8" y="9.9" width="0.8" height="67"/>
<rect x="550.4" y="9.9" width="2.5" height="67"/>
<rect x="8.5" y="29.5" width="544.4" height="0.5"/>
<rect x="8.5" y="24.6" width="544.4" height="0.5"/>
<rect x="8.5" y="19.6" width="544.4" height="0.5"/>
<rect x="8.5" y="14.6" width="544.4" height="0.5"/>
<rect x="8.5" y="9.7" width="544.4" height="0.5"/>
<g>
	<path d="M20.3,29.6c-4.2,0-8.1-3.1-8.1-6.9c0-3.2,2.3-6.7,6.8-10.5c-0.3-1.2-0.4-2.4-0.4-3.6c0-3.5,1.2-6.8,3.2-8.5
		c1.8,2.5,2.7,4.9,2.7,7.1c0,2.9-1.3,5.6-4.3,8.1l0.9,4.2c0.5,0,0.8-0.1,0.8-0.1c2.6,0,4.8,2,4.8,4.7c0,1.9-1.4,3.7-3.6,4.8
		c0-0.1,0.9,3.8,0.9,4.3c0,2.5-2.3,4.2-4.9,4.2c-2,0-3.6-1.3-3.6-3.4c0-1.4,1-2.6,2.4-2.6c1.3,0,2.3,1.3,2.3,2.5
		c0,1.4-1.2,2.3-2.7,2.5c0.6,0.3,1.2,0.5,1.9,0.5c2.1,0,4.1-1.6,4.1-3.6c0-0.2,0-0.4-0.1-0.6l-0.8-3.7
		C21.9,29.5,21.2,29.6,20.3,29.6z M18.1,24.4c0,1,0.5,1.9,1.6,2.5c-1.8-0.3-3-1.4-3-3.1c0-2,1.7-3.7,3.8-4.1l-0.8-4
		C16,18.5,14,21.2,14,23.8c0,2.9,2.8,5.3,6,5.3c0.9,0,1.7-0.2,2.4-0.5L21,21.8C19.4,22,18.1,23,18.1,24.4z M22.1,3
		c-1.6,0-2.9,3.7-2.9,7c0,0.7,0,1.3,0.2,1.9c2.7-2.4,4-4.5,4-6.5c0-0.9-0.3-1.7-1-2.4C22.4,3.1,22.3,3,22.1,3z M24.9,24.9
		c0-1.6-1.2-3.3-2.9-3.3c-0.1,0-0.2,0-0.5,0l1.4,6.6C24.2,27.4,24.9,26.2,24.9,24.9z"/>
</g>
<g>
	<path d="M29.5,11.5h0.6L30,17.8c0.4-0.7,1-1,1.8-1c1.2,0,2.2,0.8,2.2,1.9c0,0.8-0.5,1.8-1.7,2.7l-2.8,2.1V11.5z M30.1,18.4
		C30,19.2,30,19.8,30,20.4c0,1,0,1.6,0.1,2c1-0.7,2.4-2.6,2.4-3.7c0-0.6-0.5-1.1-1.1-1.1C30.8,17.6,30.4,17.9,30.1,18.4z"/>
</g>
<g>
	<path d="M35.1,4.1h0.6l-0.1,6.2c0.4-0.7,1-1,1.8-1c1.2,0,2.2,0.8,2.2,1.9c0,0.8-0.5,1.8-1.7,2.7L35.1,16V4.1z M35.7,11
		c-0.1,0.8-0.1,1.4-0.1,1.9c0,1,0,1.6,0.1,2c1-0.7,2.4-2.6,2.4-3.7c0-0.6-0.5-1.1-1.1-1.1C36.4,10.2,36,10.4,35.7,11z"/>
</g>
<g>
	<path d="M40.7,14h0.6l-0.1,6.2c0.4-0.7,1-1,1.8-1c1.2,0,2.2,0.8,2.2,1.9c0,0.8-0.5,1.8-1.7,2.7L40.7,26V14z M41.3,20.9
		c-0.1,0.8-0.1,1.4-0.1,1.9c0,1,0,1.6,0.1,2c1-0.7,2.4-2.6,2.4-3.7c0-0.6-0.5-1.1-1.1-1.1C42,20.1,41.6,20.4,41.3,20.9z"/>
</g>
<g>
	<path d="M46.3,6.6h0.6l-0.1,6.2c0.4-0.7,1-1,1.8-1c1.2,0,2.2,0.8,2.2,1.9c0,0.8-0.5,1.8-1.7,2.7l-2.8,2.1V6.6z M46.9,13.5
		c-0.1,0.8-0.1,1.4-0.1,1.9c0,1,0,1.6,0.1,2c1-0.7,2.4-2.6,2.4-3.7c0-0.6-0.5-1.1-1.1-1.1C47.6,12.6,47.2,12.9,46.9,13.5z"/>
</g>
<g>
	<path d="M51.9,16.5h0.6l-0.1,6.2c0.4-0.7,1-1,1.8-1c1.2,0,2.2,0.8,2.2,1.9c0,0.8-0.5,1.8-1.7,2.7l-2.8,2.1V16.5z M52.4,23.4
		c-0.1,0.8-0.1,1.4-0.1,1.9c0,1,0,1.6,0.1,2c1-0.7,2.4-2.6,2.4-3.7c0-0.6-0.5-1.1-1.1-1.1C53.2,22.6,52.7,22.8,52.4,23.4z"/>
</g>
<polygon fill-rule="evenodd" clip-rule="evenodd" points="71.6,26 115.7,21.1 115.7,18.6 71.6,23.6 "/>
<polygon fill-rule="evenodd" clip-rule="evenodd" points="71.6,22.3 115.7,17.4 115.7,14.9 71.6,19.8 "/>
<polygon fill-rule="evenodd" clip-rule="evenodd" points="130.5,16.1 174.5,11.2 174.5,8.7 130.5,13.6 "/>
<polygon fill-rule="evenodd" clip-rule="evenodd" points="130.5,12.4 174.5,7.4 174.5,5 130.5,9.9 "/>
<polygon fill-rule="evenodd" clip-rule="evenodd" points="194.3,31 238.5,26 238.5,23.6 194.3,28.5 "/>
<polygon fill-rule="evenodd" clip-rule="evenodd" points="194.3,34.7 238.5,29.8 238.5,27.3 194.3,32.2 "/>
<polygon fill-rule="evenodd" clip-rule="evenodd" points="253.2,22.3 297.4,21.1 297.4,18.6 253.2,19.8 "/>
<polygon fill-rule="evenodd" clip-rule="evenodd" points="253.2,26 297.4,24.8 297.4,22.3 253.2,23.6 "/>
<polygon fill-rule="evenodd" clip-rule="evenodd" points="312.1,21.1 356.3,26 356.3,23.6 312.1,18.6 "/>
<polygon fill-rule="evenodd" clip-rule="evenodd" points="312.1,24.8 356.3,29.8 356.3,27.3 312.1,22.3 "/>
<polygon fill-rule="evenodd" clip-rule="evenodd" points="389.2,6.2 433.2,11.2 433.2,8.7 389.2,3.7 "/>
<polygon fill-rule="evenodd" clip-rule="evenodd" points="389.2,2.5 433.2,7.4 433.2,5 389.2,0 "/>
<polygon fill-rule="evenodd" clip-rule="evenodd" points="447.9,16.1 492.1,21.1 492.1,18.6 447.9,13.6 "/>
<polygon fill-rule="evenodd" clip-rule="evenodd" points="447.9,12.4 492.1,17.4 492.1,14.9 447.9,9.9 "/>
<rect x="8.5" y="76.7" width="544.4" height="0.5"/>
<rect x="8.5" y="71.7" width="544.4" height="0.5"/>
<rect x="8.5" y="66.7" width="544.4" height="0.5"/>
<rect x="8.5" y="61.8" width="544.4" height="0.5"/>
<rect x="8.5" y="56.8" width="544.4" height="0.5"/>
<g>
	<path d="M15.7,71.2c2.9-2.6,4.7-6.1,4.7-9.2c0-2.5-1.4-4.4-3.7-4.4c-1.6,0-3.4,1.3-3.4,2.7c0,0.2,0,0.3,0.1,0.3
		c-0.1,0,0.6-0.6,1.4-0.6c0.9,0,1.5,0.8,1.5,1.7c0,1.2-0.9,2.2-2.1,2.2c-1.2,0-2.1-1.3-2.1-2.8c0-2.3,2.3-4.1,4.8-4.1
		c4.7,0,5.9,3.2,5.9,5.8c0,1.6-0.4,2.9-2,5.3c-1.9,3.1-6.4,5.3-8.1,5.3c-0.4,0-0.6-0.2-0.6-0.5C13.8,72.5,14.9,71.9,15.7,71.2z
		 M25.7,58.5c0.6,0,1,0.4,1,1c0,0.6-0.4,1-1,1s-1-0.4-1-1C24.7,59,25.1,58.5,25.7,58.5z M25.7,63.5c0.6,0,1,0.4,1,1c0,0.6-0.4,1-1,1
		s-1-0.4-1-1C24.7,63.9,25.1,63.5,25.7,63.5z"/>
</g>
<g>
	<path d="M29.5,63.6h0.6L30,69.9c0.4-0.7,1-1,1.8-1c1.2,0,2.2,0.8,2.2,1.9c0,0.8-0.5,1.8-1.7,2.7l-2.8,2.1V63.6z M30.1,70.5
		C30,71.3,30,71.9,30,72.5c0,1,0,1.6,0.1,2c1-0.7,2.4-2.6,2.4-3.7c0-0.6-0.5-1.1-1.1-1.1C30.8,69.7,30.4,70,30.1,70.5z"/>
</g>
<g>
	<path d="M35.1,56.2h0.6l-0.1,6.2c0.4-0.7,1-1,1.8-1c1.2,0,2.2,0.8,2.2,1.9c0,0.8-0.5,1.8-1.7,2.7l-2.8,2.1V56.2z M35.7,63.1
		c-0.1,0.8-0.1,1.4-0.1,1.9c0,1,0,1.6,0.1,2c1-0.7,2.4-2.6,2.4-3.7c0-0.6-0.5-1.1-1.1-1.1C36.4,62.2,36,62.5,35.7,63.1z"/>
</g>
<g>
	<path d="M40.7,66.1h0.6l-0.1,6.2c0.4-0.7,1-1,1.8-1c1.2,0,2.2,0.8,2.2,1.9c0,0.8-0.5,1.8-1.7,2.7L40.7,78V66.1z M41.3,73
		c-0.1,0.8-0.1,1.4-0.1,1.9c0,1,0,1.6,0.1,2c1-0.7,2.4-2.6,2.4-3.7c0-0.6-0.5-1.1-1.1-1.1C42,72.2,41.6,72.4,41.3,73z"/>
</g>
<g>
	<path d="M46.3,58.7h0.6l-0.1,6.2c0.4-0.7,1-1,1.8-1c1.2,0,2.2,0.8,2.2,1.9c0,0.8-0.5,1.8-1.7,2.7l-2.8,2.1V58.7z M46.9,65.6
		c-0.1,0.8-0.1,1.4-0.1,1.9c0,1,0,1.6,0.1,2c1-0.7,2.4-2.6,2.4-3.7c0-0.6-0.5-1.1-1.1-1.1C47.6,64.7,47.2,65,46.9,65.6z"/>
</g>
<g>
	<path d="M51.9,68.6h0.6l-0.1,6.2c0.4-0.7,1-1,1.8-1c1.2,0,2.2,0.8,2.2,1.9c0,0.8-0.5,1.8-1.7,2.7l-2.8,2.1V68.6z M52.4,75.5
		c-0.1,0.8-0.1,1.4-0.1,1.9c0,1,0,1.6,0.1,2c1-0.7,2.4-2.6,2.4-3.7c0-0.6-0.5-1.1-1.1-1.1C53.2,74.6,52.7,74.9,52.4,75.5z"/>
</g>
<polygon fill-rule="evenodd" clip-rule="evenodd" points="71.6,58.3 115.7,53.3 115.7,50.8 71.6,55.8 "/>
<polygon fill-rule="evenodd" clip-rule="evenodd" points="71.6,54.6 115.7,49.6 115.7,47.1 71.6,52.1 "/>
<g>
	<path d="M186.3,75.5c-3.2,0-6.1-2.3-6.1-5.1c0-2.4,1.7-5,5.1-7.9c-0.2-0.9-0.3-1.8-0.3-2.7c0-2.6,0.9-5.1,2.4-6.3
		c1.4,1.9,2,3.7,2,5.3c0,2.2-1,4.2-3.2,6.1l0.7,3.1c0.4,0,0.6,0,0.6,0c2,0,3.6,1.5,3.6,3.5c0,1.4-1.1,2.8-2.7,3.6
		c0-0.1,0.6,2.8,0.6,3.3c0,1.9-1.7,3.2-3.7,3.2c-1.5,0-2.7-1-2.7-2.5c0-1.1,0.7-1.9,1.8-1.9c1,0,1.7,1,1.7,1.9c0,1-0.9,1.7-2,1.8
		c0.4,0.2,0.9,0.3,1.4,0.3c1.6,0,3.1-1.2,3.1-2.7c0-0.1,0-0.3,0-0.5l-0.6-2.8C187.5,75.4,187,75.5,186.3,75.5z M184.7,71.6
		c0,0.8,0.4,1.4,1.2,1.9c-1.3-0.2-2.2-1.1-2.2-2.3c0-1.5,1.3-2.8,2.9-3.1l-0.6-3c-2.8,2.1-4.3,4.1-4.3,6.1c0,2.2,2.1,4,4.5,4
		c0.7,0,1.3-0.1,1.8-0.4l-1.1-5.1C185.6,69.8,184.7,70.6,184.7,71.6z M187.7,55.6c-1.2,0-2.2,2.8-2.2,5.3c0,0.5,0,1,0.1,1.4
		c2-1.8,3-3.4,3-4.9c0-0.7-0.3-1.3-0.7-1.8C187.9,55.6,187.8,55.6,187.7,55.6z M189.8,72c0-1.2-0.9-2.4-2.2-2.4c0,0-0.2,0-0.4,0
		l1.1,5C189.2,73.9,189.8,73,189.8,72z"/>
</g>
<polygon fill-rule="evenodd" clip-rule="evenodd" points="123.9,73.2 168,68.2 168,65.7 123.9,70.7 "/>
<polygon fill-rule="evenodd" clip-rule="evenodd" points="123.9,76.9 168,71.9 168,69.4 123.9,74.4 "/>
<polygon fill-rule="evenodd" clip-rule="evenodd" points="200.8,68.2 245,63.2 245,60.8 200.8,65.7 "/>
<polygon fill-rule="evenodd" clip-rule="evenodd" points="200.8,64.5 245,59.5 245,57 200.8,62 "/>
<rect x="259.7" y="54.6" fill-rule="evenodd" clip-rule="evenodd" width="44.2" height="2.5"/>
<rect x="259.7" y="50.8" fill-rule="evenodd" clip-rule="evenodd" width="44.2" height="2.5"/>
<g>
	<path d="M371.2,68.9c2.2-2,3.6-4.6,3.6-6.9c0-1.9-1.1-3.3-2.8-3.3c-1.2,0-2.5,1-2.5,2.1c0,0.2,0,0.2,0.1,0.2c0,0,0.4-0.5,1-0.5
		c0.7,0,1.2,0.6,1.2,1.3c0,0.9-0.6,1.7-1.6,1.7s-1.5-1-1.5-2.1c0-1.8,1.7-3.1,3.6-3.1c3.5,0,4.4,2.4,4.4,4.4c0,1.2-0.3,2.2-1.5,4
		c-1.4,2.3-4.8,4-6,4c-0.3,0-0.5-0.1-0.5-0.3C369.8,69.9,370.6,69.4,371.2,68.9z M378.7,59.4c0.4,0,0.7,0.3,0.7,0.7
		c0,0.4-0.3,0.7-0.7,0.7c-0.4,0-0.7-0.3-0.7-0.7C377.9,59.7,378.3,59.4,378.7,59.4z M378.7,63.1c0.4,0,0.7,0.3,0.7,0.7
		s-0.3,0.7-0.7,0.7c-0.4,0-0.7-0.3-0.7-0.7S378.3,63.1,378.7,63.1z"/>
</g>
<polygon fill-rule="evenodd" clip-rule="evenodd" points="318.6,63.2 362.8,68.2 362.8,65.7 318.6,60.8 "/>
<polygon fill-rule="evenodd" clip-rule="evenodd" points="318.6,59.5 362.8,64.5 362.8,62 318.6,57 "/>
<polygon fill-rule="evenodd" clip-rule="evenodd" points="382.7,68.2 426.7,73.2 426.7,70.7 382.7,65.7 "/>
<polygon fill-rule="evenodd" clip-rule="evenodd" points="382.7,71.9 426.7,76.9 426.7,74.4 382.7,69.4 "/>
<polygon fill-rule="evenodd" clip-rule="evenodd" points="441.4,78.1 485.6,83.1 485.6,80.6 441.4,75.6 "/>
<polygon fill-rule="evenodd" clip-rule="evenodd" points="441.4,81.8 485.6,86.8 485.6,84.3 441.4,79.4 "/>
<rect x="63" y="34.3" width="10.5" height="0.8"/>
<rect x="71.3" y="20" width="0.5" height="16.4"/>
<g>
	<path d="M64.9,38.1c0-1.8,2.5-3.5,4.5-3.5c1.3,0,2.3,0.7,2.3,1.7c0,1.7-2.5,3.5-4.6,3.5C65.9,39.8,64.9,39.1,64.9,38.1z"/>
</g>
<rect x="77.8" y="34.3" width="10.5" height="0.8"/>
<rect x="86" y="18.4" width="0.5" height="15.5"/>
<g>
	<path d="M79.6,35.6c0-1.8,2.5-3.5,4.5-3.5c1.3,0,2.3,0.7,2.3,1.7c0,1.7-2.5,3.5-4.6,3.5C80.6,37.3,79.6,36.7,79.6,35.6z"/>
</g>
<rect x="100.8" y="16.7" width="0.5" height="14.7"/>
<g>
	<path d="M94.3,33.1c0-1.8,2.5-3.5,4.5-3.5c1.3,0,2.3,0.7,2.3,1.7c0,1.7-2.5,3.5-4.6,3.5C95.3,34.8,94.3,34.2,94.3,33.1z"/>
</g>
<rect x="115.5" y="15" width="0.5" height="14"/>
<g>
	<path d="M109.1,30.6c0-1.8,2.5-3.5,4.5-3.5c1.3,0,2.3,0.7,2.3,1.7c0,1.7-2.5,3.5-4.6,3.5C110,32.3,109.1,31.7,109.1,30.6z"/>
</g>
<rect x="130.2" y="10.1" width="0.5" height="16.4"/>
<g>
	<path d="M123.8,28.1c0-1.8,2.5-3.5,4.5-3.5c1.3,0,2.3,0.7,2.3,1.7c0,1.7-2.5,3.5-4.6,3.5C124.8,29.9,123.8,29.2,123.8,28.1z"/>
</g>
<rect x="145" y="8.5" width="0.5" height="15.5"/>
<g>
	<path d="M138.5,25.7c0-1.8,2.5-3.5,4.5-3.5c1.3,0,2.3,0.7,2.3,1.7c0,1.7-2.5,3.5-4.6,3.5C139.5,27.4,138.5,26.7,138.5,25.7z"/>
</g>
<rect x="159.7" y="6.8" width="0.5" height="14.7"/>
<g>
	<path d="M153.2,23.2c0-1.8,2.5-3.5,4.5-3.5c1.3,0,2.3,0.7,2.3,1.7c0,1.7-2.5,3.5-4.6,3.5C154.2,24.9,153.2,24.3,153.2,23.2z"/>
</g>
<rect x="174.2" y="5.1" width="0.5" height="14"/>
<g>
	<path d="M167.8,20.7c0-1.8,2.5-3.5,4.5-3.5c1.3,0,2.3,0.7,2.3,1.7c0,1.7-2.5,3.5-4.6,3.5C168.8,22.4,167.8,21.8,167.8,20.7z"/>
</g>
<rect x="194.1" y="18.1" width="0.5" height="16.4"/>
<g>
	<path d="M194.2,18.2c0-1.8,2.5-3.5,4.5-3.5c1.3,0,2.3,0.7,2.3,1.7c0,1.7-2.5,3.5-4.6,3.5C195.1,19.9,194.2,19.3,194.2,18.2z"/>
</g>
<rect x="208.8" y="15.7" width="0.5" height="17.4"/>
<g>
	<path d="M208.9,15.7c0-1.8,2.5-3.5,4.5-3.5c1.3,0,2.3,0.7,2.3,1.7c0,1.7-2.5,3.5-4.6,3.5C209.9,17.5,208.9,16.8,208.9,15.7z"/>
</g>
<rect x="223.5" y="13.2" width="0.5" height="18.1"/>
<g>
	<path d="M223.6,13.3c0-1.8,2.5-3.5,4.5-3.5c1.3,0,2.3,0.7,2.3,1.7c0,1.7-2.5,3.5-4.6,3.5C224.6,15,223.6,14.3,223.6,13.3z"/>
</g>
<rect x="238.3" y="10.7" width="0.5" height="18.9"/>
<g>
	<path d="M238.3,10.8c0-1.8,2.5-3.5,4.5-3.5c1.3,0,2.3,0.7,2.3,1.7c0,1.7-2.5,3.5-4.6,3.5C239.3,12.5,238.3,11.9,238.3,10.8z"/>
</g>
<rect x="253" y="8.2" width="0.5" height="17.7"/>
<g>
	<path d="M253.1,8.3c0-1.8,2.5-3.5,4.5-3.5c1.3,0,2.3,0.7,2.3,1.7c0,1.7-2.5,3.5-4.6,3.5C254,10,253.1,9.4,253.1,8.3z"/>
</g>
<rect x="265.9" y="4.6" width="10.5" height="0.8"/>
<rect x="267.7" y="5.7" width="0.5" height="19.8"/>
<g>
	<path d="M267.8,5.8c0-1.8,2.5-3.5,4.5-3.5c1.3,0,2.3,0.7,2.3,1.7c0,1.7-2.5,3.5-4.6,3.5C268.8,7.5,267.8,6.9,267.8,5.8z"/>
</g>
<rect x="280.7" y="4.6" width="10.5" height="0.8"/>
<rect x="282.4" y="3.3" width="0.5" height="21.9"/>
<g>
	<path d="M282.5,3.3c0-1.8,2.5-3.5,4.5-3.5c1.3,0,2.3,0.7,2.3,1.7c0,1.7-2.5,3.5-4.6,3.5C283.5,5.1,282.5,4.4,282.5,3.3z"/>
</g>
<rect x="295.4" y="4.6" width="10.5" height="0.8"/>
<rect x="297.2" y="5.7" width="0.5" height="18.9"/>
<g>
	<path d="M297.3,5.8c0-1.8,2.5-3.5,4.5-3.5c1.3,0,2.3,0.7,2.3,1.7c0,1.7-2.5,3.5-4.6,3.5C298.2,7.5,297.3,6.9,297.3,5.8z"/>
</g>
<rect x="311.9" y="8.2" width="0.5" height="16.4"/>
<g>
	<path d="M312,8.3c0-1.8,2.5-3.5,4.5-3.5c1.3,0,2.3,0.7,2.3,1.7c0,1.7-2.5,3.5-4.6,3.5C313,10,312,9.4,312,8.3z"/>
</g>
<rect x="326.6" y="10.7" width="0.5" height="15.5"/>
<g>
	<path d="M326.7,10.8c0-1.8,2.5-3.5,4.5-3.5c1.3,0,2.3,0.7,2.3,1.7c0,1.7-2.5,3.5-4.6,3.5C327.7,12.5,326.7,11.9,326.7,10.8z"/>
</g>
<rect x="341.4" y="13.2" width="0.5" height="14.7"/>
<g>
	<path d="M341.4,13.3c0-1.8,2.5-3.5,4.5-3.5c1.3,0,2.3,0.7,2.3,1.7c0,1.7-2.5,3.5-4.6,3.5C342.4,15,341.4,14.3,341.4,13.3z"/>
</g>
<rect x="356.1" y="15.7" width="0.5" height="14"/>
<g>
	<path d="M356.2,15.7c0-1.8,2.5-3.5,4.5-3.5c1.3,0,2.3,0.7,2.3,1.7c0,1.7-2.5,3.5-4.6,3.5C357.1,17.5,356.2,16.8,356.2,15.7z"/>
</g>
<rect x="388.9" y="0.2" width="0.5" height="16.4"/>
<g>
	<path d="M382.5,18.2c0-1.8,2.5-3.5,4.5-3.5c1.3,0,2.3,0.7,2.3,1.7c0,1.7-2.5,3.5-4.6,3.5C383.5,19.9,382.5,19.3,382.5,18.2z"/>
</g>
<rect x="403.7" y="1.7" width="0.5" height="17.4"/>
<g>
	<path d="M397.2,20.7c0-1.8,2.5-3.5,4.5-3.5c1.3,0,2.3,0.7,2.3,1.7c0,1.7-2.5,3.5-4.6,3.5C398.2,22.4,397.2,21.8,397.2,20.7z"/>
</g>
<rect x="418.4" y="3.4" width="0.5" height="18.1"/>
<g>
	<path d="M412,23.2c0-1.8,2.5-3.5,4.5-3.5c1.3,0,2.3,0.7,2.3,1.7c0,1.7-2.5,3.5-4.6,3.5C412.9,24.9,412,24.3,412,23.2z"/>
</g>
<rect x="433" y="5.1" width="0.5" height="18.9"/>
<g>
	<path d="M426.5,25.7c0-1.8,2.5-3.5,4.5-3.5c1.3,0,2.3,0.7,2.3,1.7c0,1.7-2.5,3.5-4.6,3.5C427.5,27.4,426.5,26.7,426.5,25.7z"/>
</g>
<rect x="447.7" y="10.1" width="0.5" height="16.4"/>
<g>
	<path d="M441.3,28.1c0-1.8,2.5-3.5,4.5-3.5c1.3,0,2.3,0.7,2.3,1.7c0,1.7-2.5,3.5-4.6,3.5C442.2,29.9,441.3,29.2,441.3,28.1z"/>
</g>
<rect x="462.4" y="11.6" width="0.5" height="17.4"/>
<g>
	<path d="M456,30.6c0-1.8,2.5-3.5,4.5-3.5c1.3,0,2.3,0.7,2.3,1.7c0,1.7-2.5,3.5-4.6,3.5C457,32.3,456,31.7,456,30.6z"/>
</g>
<rect x="477.1" y="13.3" width="0.5" height="18.1"/>
<g>
	<path d="M470.7,33.1c0-1.8,2.5-3.5,4.5-3.5c1.3,0,2.3,0.7,2.3,1.7c0,1.7-2.5,3.5-4.6,3.5C471.7,34.8,470.7,34.2,470.7,33.1z"/>
</g>
<rect x="483.6" y="34.3" width="10.5" height="0.8"/>
<rect x="491.9" y="15" width="0.5" height="18.9"/>
<g>
	<path d="M485.4,35.6c0-1.8,2.5-3.5,4.5-3.5c1.3,0,2.3,0.7,2.3,1.7c0,1.7-2.5,3.5-4.6,3.5C486.4,37.3,485.4,36.7,485.4,35.6z"/>
</g>
<rect x="498.3" y="34.3" width="10.7" height="0.8"/>
<rect x="506.8" y="19.8" width="0.5" height="16.6"/>
<g>
	<path d="M504.4,34.5c1.6,0,2.7,0.7,2.7,2c0,1.9-2.3,3.4-4.5,3.4c-1.3,0-2.4-0.7-2.4-1.8C500.2,36.3,502.4,34.5,504.4,34.5z
		 M500.6,38.4c0,0.6,0.4,0.9,1.1,0.9c1.4,0,4.9-2.1,4.9-3.3c0-0.6-0.4-0.9-1.1-0.9C504.3,35.1,500.6,37.1,500.6,38.4z"/>
</g>
<rect x="71.3" y="52.2" width="0.5" height="18.9"/>
<g>
	<path d="M64.9,72.8c0-1.8,2.5-3.5,4.5-3.5c1.3,0,2.3,0.7,2.3,1.7c0,1.7-2.5,3.5-4.6,3.5C65.9,74.5,64.9,73.9,64.9,72.8z"/>
</g>
<rect x="86" y="50.7" width="0.5" height="18"/>
<g>
	<path d="M79.6,70.3c0-1.8,2.5-3.5,4.5-3.5c1.3,0,2.3,0.7,2.3,1.7c0,1.7-2.5,3.5-4.6,3.5C80.6,72,79.6,71.4,79.6,70.3z"/>
</g>
<rect x="100.8" y="49" width="0.5" height="17.2"/>
<g>
	<path d="M94.3,67.8c0-1.8,2.5-3.5,4.5-3.5c1.3,0,2.3,0.7,2.3,1.7c0,1.7-2.5,3.5-4.6,3.5C95.3,69.5,94.3,68.9,94.3,67.8z"/>
</g>
<rect x="115.5" y="47.3" width="0.5" height="16.4"/>
<g>
	<path d="M109.1,65.3c0-1.8,2.5-3.5,4.5-3.5c1.3,0,2.3,0.7,2.3,1.7c0,1.7-2.5,3.5-4.6,3.5C110,67.1,109.1,66.4,109.1,65.3z"/>
</g>
<rect x="123.7" y="62.8" width="0.5" height="14"/>
<g>
	<path d="M123.8,62.9c0-1.8,2.5-3.5,4.5-3.5c1.3,0,2.3,0.7,2.3,1.7c0,1.7-2.5,3.5-4.6,3.5C124.8,64.6,123.8,63.9,123.8,62.9z"/>
</g>
<rect x="138.4" y="60.3" width="0.5" height="14.9"/>
<g>
	<path d="M138.5,60.4c0-1.8,2.5-3.5,4.5-3.5c1.3,0,2.3,0.7,2.3,1.7c0,1.7-2.5,3.5-4.6,3.5C139.5,62.1,138.5,61.5,138.5,60.4z"/>
</g>
<rect x="153.2" y="57.8" width="0.5" height="15.7"/>
<g>
	<path d="M153.2,57.9c0-1.8,2.5-3.5,4.5-3.5c1.3,0,2.3,0.7,2.3,1.7c0,1.7-2.5,3.5-4.6,3.5C154.2,59.6,153.2,59,153.2,57.9z"/>
</g>
<rect x="167.7" y="55.3" width="0.5" height="16.4"/>
<g>
	<path d="M167.8,55.4c0-1.8,2.5-3.5,4.5-3.5c1.3,0,2.3,0.7,2.3,1.7c0,1.7-2.5,3.5-4.6,3.5C168.8,57.1,167.8,56.5,167.8,55.4z"/>
</g>
<rect x="192.3" y="81.5" width="10.5" height="0.8"/>
<rect x="200.6" y="62.2" width="0.5" height="18.9"/>
<g>
	<path d="M194.2,82.7c0-1.8,2.5-3.5,4.5-3.5c1.3,0,2.3,0.7,2.3,1.7c0,1.7-2.5,3.5-4.6,3.5C195.1,84.4,194.2,83.8,194.2,82.7z"/>
</g>
<rect x="215.3" y="60.6" width="0.5" height="18"/>
<g>
	<path d="M208.9,80.2c0-1.8,2.5-3.5,4.5-3.5c1.3,0,2.3,0.7,2.3,1.7c0,1.7-2.5,3.5-4.6,3.5C209.9,81.9,208.9,81.3,208.9,80.2z"/>
</g>
<rect x="230.1" y="58.9" width="0.5" height="17.2"/>
<g>
	<path d="M223.6,77.7c0-1.8,2.5-3.5,4.5-3.5c1.3,0,2.3,0.7,2.3,1.7c0,1.7-2.5,3.5-4.6,3.5C224.6,79.5,223.6,78.8,223.6,77.7z"/>
</g>
<rect x="244.8" y="57.2" width="0.5" height="16.4"/>
<g>
	<path d="M238.3,75.3c0-1.8,2.5-3.5,4.5-3.5c1.3,0,2.3,0.7,2.3,1.7c0,1.7-2.5,3.5-4.6,3.5C239.3,77,238.3,76.3,238.3,75.3z"/>
</g>
<rect x="259.5" y="51" width="0.5" height="20.2"/>
<g>
	<path d="M253.1,72.8c0-1.8,2.5-3.5,4.5-3.5c1.3,0,2.3,0.7,2.3,1.7c0,1.7-2.5,3.5-4.6,3.5C254,74.5,253.1,73.9,253.1,72.8z"/>
</g>
<rect x="274.2" y="51" width="0.5" height="17.7"/>
<g>
	<path d="M267.8,70.3c0-1.8,2.5-3.5,4.5-3.5c1.3,0,2.3,0.7,2.3,1.7c0,1.7-2.5,3.5-4.6,3.5C268.8,72,267.8,71.4,267.8,70.3z"/>
</g>
<rect x="289" y="51" width="0.5" height="15.2"/>
<g>
	<path d="M282.5,67.8c0-1.8,2.5-3.5,4.5-3.5c1.3,0,2.3,0.7,2.3,1.7c0,1.7-2.5,3.5-4.6,3.5C283.5,69.5,282.5,68.9,282.5,67.8z"/>
</g>
<rect x="303.7" y="51" width="0.5" height="17.7"/>
<g>
	<path d="M297.3,70.3c0-1.8,2.5-3.5,4.5-3.5c1.3,0,2.3,0.7,2.3,1.7c0,1.7-2.5,3.5-4.6,3.5C298.2,72,297.3,71.4,297.3,70.3z"/>
</g>
<rect x="318.4" y="57.2" width="0.5" height="14"/>
<g>
	<path d="M312,72.8c0-1.8,2.5-3.5,4.5-3.5c1.3,0,2.3,0.7,2.3,1.7c0,1.7-2.5,3.5-4.6,3.5C313,74.5,312,73.9,312,72.8z"/>
</g>
<rect x="333.1" y="58.7" width="0.5" height="14.9"/>
<g>
	<path d="M326.7,75.3c0-1.8,2.5-3.5,4.5-3.5c1.3,0,2.3,0.7,2.3,1.7c0,1.7-2.5,3.5-4.6,3.5C327.7,77,326.7,76.3,326.7,75.3z"/>
</g>
<rect x="347.9" y="60.5" width="0.5" height="15.7"/>
<g>
	<path d="M341.4,77.7c0-1.8,2.5-3.5,4.5-3.5c1.3,0,2.3,0.7,2.3,1.7c0,1.7-2.5,3.5-4.6,3.5C342.4,79.5,341.4,78.8,341.4,77.7z"/>
</g>
<rect x="362.6" y="62.2" width="0.5" height="16.4"/>
<g>
	<path d="M356.2,80.2c0-1.8,2.5-3.5,4.5-3.5c1.3,0,2.3,0.7,2.3,1.7c0,1.7-2.5,3.5-4.6,3.5C357.1,81.9,356.2,81.3,356.2,80.2z"/>
</g>
<rect x="380.7" y="51.7" width="10.5" height="0.8"/>
<rect x="382.4" y="52.9" width="0.5" height="18.9"/>
<g>
	<path d="M382.5,52.9c0-1.8,2.5-3.5,4.5-3.5c1.3,0,2.3,0.7,2.3,1.7c0,1.7-2.5,3.5-4.6,3.5C383.5,54.7,382.5,54,382.5,52.9z"/>
</g>
<rect x="397.2" y="55.3" width="0.5" height="18"/>
<g>
	<path d="M397.2,55.4c0-1.8,2.5-3.5,4.5-3.5c1.3,0,2.3,0.7,2.3,1.7c0,1.7-2.5,3.5-4.6,3.5C398.2,57.1,397.2,56.5,397.2,55.4z"/>
</g>
<rect x="411.9" y="57.8" width="0.5" height="17.2"/>
<g>
	<path d="M412,57.9c0-1.8,2.5-3.5,4.5-3.5c1.3,0,2.3,0.7,2.3,1.7c0,1.7-2.5,3.5-4.6,3.5C412.9,59.6,412,59,412,57.9z"/>
</g>
<rect x="426.5" y="60.3" width="0.5" height="16.4"/>
<g>
	<path d="M426.5,60.4c0-1.8,2.5-3.5,4.5-3.5c1.3,0,2.3,0.7,2.3,1.7c0,1.7-2.5,3.5-4.6,3.5C427.5,62.1,426.5,61.5,426.5,60.4z"/>
</g>
<rect x="441.2" y="62.8" width="0.5" height="18.9"/>
<g>
	<path d="M441.3,62.9c0-1.8,2.5-3.5,4.5-3.5c1.3,0,2.3,0.7,2.3,1.7c0,1.7-2.5,3.5-4.6,3.5C442.2,64.6,441.3,63.9,441.3,62.9z"/>
</g>
<rect x="455.9" y="65.3" width="0.5" height="18"/>
<g>
	<path d="M456,65.3c0-1.8,2.5-3.5,4.5-3.5c1.3,0,2.3,0.7,2.3,1.7c0,1.7-2.5,3.5-4.6,3.5C457,67.1,456,66.4,456,65.3z"/>
</g>
<rect x="470.6" y="67.7" width="0.5" height="17.2"/>
<g>
	<path d="M470.7,67.8c0-1.8,2.5-3.5,4.5-3.5c1.3,0,2.3,0.7,2.3,1.7c0,1.7-2.5,3.5-4.6,3.5C471.7,69.5,470.7,68.9,470.7,67.8z"/>
</g>
<rect x="485.4" y="70.2" width="0.5" height="16.4"/>
<g>
	<path d="M485.4,70.3c0-1.8,2.5-3.5,4.5-3.5c1.3,0,2.3,0.7,2.3,1.7c0,1.7-2.5,3.5-4.6,3.5C486.4,72,485.4,71.4,485.4,70.3z"/>
</g>
<rect x="506.8" y="54.6" width="0.5" height="16.6"/>
<g>
	<path d="M504.4,69.2c1.6,0,2.7,0.7,2.7,2c0,1.9-2.3,3.4-4.5,3.4c-1.3,0-2.4-0.7-2.4-1.8C500.2,71,502.4,69.2,504.4,69.2z
		 M500.6,73.1c0,0.6,0.4,0.9,1.1,0.9c1.4,0,4.9-2.1,4.9-3.3c0-0.6-0.4-0.9-1.1-0.9C504.3,69.8,500.6,71.8,500.6,73.1z"/>
</g>
</svg>
