<?xml version="1.0" encoding="utf-8"?>

<!--
	ScaleBook
	Copyright (c) Leland Jansen 2015. All rights reserved.
-->

<!DOCTYPE svg PUBLIC "-//W3C//DTD SVG 1.1//EN" "http://www.w3.org/Graphics/SVG/1.1/DTD/svg11.dtd">
<svg version="1.1" id="Layer_1" xmlns="http://www.w3.org/2000/svg" xmlns:xlink="http://www.w3.org/1999/xlink" x="0px" y="0px"
	 viewBox="0 0 552.9 89.4" enable-background="new 0 0 552.9 89.4" xml:space="preserve">
<rect x="8.4" y="15" width="0.8" height="67"/>
<g>
	<path d="M7.4,15.7c-1.9,1.1-3.6,5.8-3.6,9.4c0,2.3,1.4,9.9,1.4,12.3c0,5-1.5,8.6-4.6,11.1c3,2.4,4.6,6.1,4.6,11.1
		c0,2.3-1.4,9.9-1.4,12.3c0,3.8,1.7,8.4,3.6,9.5V82c-3.5-2.3-5.8-8.2-5.8-13.1c0-2.1,1.7-9.4,1.7-11.5c0-3.8-1-6.6-2.9-8.2
		C0.1,48.9,0,48.7,0,48.5c0-0.2,0.1-0.4,0.5-0.7c1.9-1.7,2.9-4.2,2.9-7.6c0-2.1-1.7-10-1.7-12.2c0-5.2,2.1-10.4,5.8-13.1V15.7z"/>
</g>
<rect x="547.8" y="15" width="0.8" height="67"/>
<rect x="550.4" y="15" width="2.5" height="67"/>
<rect x="8.5" y="34.6" width="544.4" height="0.5"/>
<rect x="8.5" y="29.6" width="544.4" height="0.5"/>
<rect x="8.5" y="24.7" width="544.4" height="0.5"/>
<rect x="8.5" y="19.7" width="544.4" height="0.5"/>
<rect x="8.5" y="14.8" width="544.4" height="0.5"/>
<g>
	<path d="M20.3,34.7c-4.2,0-8.1-3.1-8.1-6.9c0-3.2,2.3-6.7,6.8-10.5c-0.3-1.2-0.4-2.4-0.4-3.6c0-3.5,1.2-6.8,3.2-8.5
		c1.8,2.5,2.7,4.9,2.7,7.1c0,2.9-1.3,5.6-4.3,8.1l0.9,4.2c0.5,0,0.8-0.1,0.8-0.1c2.6,0,4.8,2,4.8,4.7c0,1.9-1.4,3.7-3.6,4.8
		c0-0.1,0.9,3.8,0.9,4.3c0,2.5-2.3,4.2-4.9,4.2c-2,0-3.6-1.3-3.6-3.4c0-1.4,1-2.6,2.4-2.6c1.3,0,2.3,1.3,2.3,2.5
		c0,1.4-1.2,2.3-2.7,2.5c0.6,0.3,1.2,0.5,1.9,0.5c2.1,0,4.1-1.6,4.1-3.6c0-0.2,0-0.4-0.1-0.6l-0.8-3.7
		C21.9,34.5,21.2,34.7,20.3,34.7z M18.1,29.5c0,1,0.5,1.9,1.6,2.5c-1.8-0.3-3-1.4-3-3.1c0-2,1.7-3.7,3.8-4.1l-0.8-4
		C16,23.6,14,26.3,14,28.9c0,2.9,2.8,5.3,6,5.3c0.9,0,1.7-0.2,2.4-0.5L21,26.9C19.4,27.1,18.1,28.1,18.1,29.5z M22.1,8.1
		c-1.6,0-2.9,3.7-2.9,7c0,0.7,0,1.3,0.2,1.9c2.7-2.4,4-4.5,4-6.5c0-0.9-0.3-1.7-1-2.4C22.4,8.1,22.3,8.1,22.1,8.1z M24.9,30
		c0-1.6-1.2-3.3-2.9-3.3c-0.1,0-0.2,0-0.5,0l1.4,6.6C24.2,32.5,24.9,31.3,24.9,30z"/>
</g>
<g>
	<path d="M33.5,8.2V11l1-0.3v1.8l-1,0.3v3.4l1-0.3v1.8l-1,0.3v3.1H33v-3l-1.9,0.6v3h-0.5V19l-1,0.3v-1.8l1-0.3v-3.4l-1,0.3v-1.8
		l1-0.3V8.8h0.5v3l1.9-0.6v-3H33.5z M33,13l-1.9,0.6V17l1.9-0.6V13z"/>
</g>
<g>
	<path d="M39.7,15.6v2.8l1-0.3v1.8l-1,0.3v3.4l1-0.3v1.8l-1,0.3v3.1h-0.5v-3l-1.9,0.6v3h-0.5v-2.8l-1,0.3v-1.8l1-0.3v-3.4l-1,0.3
		v-1.8l1-0.3v-3.1h0.5v3l1.9-0.6v-3H39.7z M39.2,20.4L37.3,21v3.4l1.9-0.6V20.4z"/>
</g>
<g>
	<path d="M45.9,5.7v2.8l1-0.3V10l-1,0.3v3.4l1-0.3v1.8l-1,0.3v3.1h-0.5v-3l-1.9,0.6v3H43v-2.8l-1,0.3V15l1-0.3v-3.4l-1,0.3V9.8
		l1-0.3V6.3h0.5v3l1.9-0.6v-3H45.9z M45.4,10.5l-1.9,0.6v3.4l1.9-0.6V10.5z"/>
</g>
<g>
	<path d="M52.1,13.1V16l1-0.3v1.8l-1,0.3v3.4l1-0.3v1.8l-1,0.3v3.1h-0.5v-3l-1.9,0.6v3h-0.5v-2.8l-1,0.3v-1.8l1-0.3v-3.4l-1,0.3
		v-1.8l1-0.3v-3.1h0.5v3l1.9-0.6v-3H52.1z M51.6,17.9l-1.9,0.6V22l1.9-0.6V17.9z"/>
</g>
<g>
	<path d="M58.3,20.6v2.8l1-0.3v1.8l-1,0.3v3.4l1-0.3v1.8l-1,0.3v3.1h-0.5v-3l-1.9,0.6v3h-0.5v-2.8l-1,0.3v-1.8l1-0.3v-3.4l-1,0.3
		v-1.8l1-0.3v-3.1h0.5v3l1.9-0.6v-3H58.3z M57.8,25.4L55.9,26v3.4l1.9-0.6V25.4z"/>
</g>
<g>
	<path d="M64.5,10.7v2.8l1-0.3V15l-1,0.3v3.4l1-0.3v1.8l-1,0.3v3.1H64v-3l-1.9,0.6v3h-0.5v-2.8l-1,0.3V20l1-0.3v-3.4l-1,0.3v-1.8
		l1-0.3v-3.1h0.5v3l1.9-0.6v-3H64.5z M64,15.4l-1.9,0.6v3.4l1.9-0.6V15.4z"/>
</g>
<polygon fill-rule="evenodd" clip-rule="evenodd" points="80.9,26.2 124.1,21.2 124.1,18.7 80.9,23.7 "/>
<polygon fill-rule="evenodd" clip-rule="evenodd" points="80.9,22.4 124.1,17.5 124.1,15 80.9,20 "/>
<polygon fill-rule="evenodd" clip-rule="evenodd" points="131.9,41 175.1,36.1 175.1,33.6 131.9,38.6 "/>
<polygon fill-rule="evenodd" clip-rule="evenodd" points="131.9,44.8 175.1,39.8 175.1,37.3 131.9,42.3 "/>
<polygon fill-rule="evenodd" clip-rule="evenodd" points="201.5,31.1 244.7,26.2 244.7,23.7 201.5,28.6 "/>
<polygon fill-rule="evenodd" clip-rule="evenodd" points="201.5,34.8 244.7,29.9 244.7,27.4 201.5,32.4 "/>
<polygon fill-rule="evenodd" clip-rule="evenodd" points="259,22.4 302.2,21.2 302.2,18.7 259,20 "/>
<polygon fill-rule="evenodd" clip-rule="evenodd" points="259,26.2 302.2,24.9 302.2,22.4 259,23.7 "/>
<polygon fill-rule="evenodd" clip-rule="evenodd" points="316.6,21.2 359.9,26.2 359.9,23.7 316.6,18.7 "/>
<polygon fill-rule="evenodd" clip-rule="evenodd" points="316.6,24.9 359.9,29.9 359.9,27.4 316.6,22.4 "/>
<polygon fill-rule="evenodd" clip-rule="evenodd" points="386.2,31.1 429.3,36.1 429.3,33.6 386.2,28.6 "/>
<polygon fill-rule="evenodd" clip-rule="evenodd" points="386.2,34.8 429.3,39.8 429.3,37.3 386.2,32.4 "/>
<polygon fill-rule="evenodd" clip-rule="evenodd" points="450.3,16.2 493.5,21.2 493.5,18.7 450.3,13.8 "/>
<polygon fill-rule="evenodd" clip-rule="evenodd" points="450.3,12.5 493.5,17.5 493.5,15 450.3,10 "/>
<rect x="8.5" y="81.7" width="544.4" height="0.5"/>
<rect x="8.5" y="76.8" width="544.4" height="0.5"/>
<rect x="8.5" y="71.8" width="544.4" height="0.5"/>
<rect x="8.5" y="66.9" width="544.4" height="0.5"/>
<rect x="8.5" y="61.9" width="544.4" height="0.5"/>
<g>
	<path d="M15.7,76.3c2.9-2.6,4.7-6.1,4.7-9.2c0-2.5-1.4-4.4-3.7-4.4c-1.6,0-3.4,1.3-3.4,2.7c0,0.2,0,0.3,0.1,0.3
		c-0.1,0,0.6-0.6,1.4-0.6c0.9,0,1.5,0.8,1.5,1.7c0,1.2-0.9,2.2-2.1,2.2c-1.2,0-2.1-1.3-2.1-2.8c0-2.3,2.3-4.1,4.8-4.1
		c4.7,0,5.9,3.2,5.9,5.8c0,1.6-0.4,2.9-2,5.3c-1.9,3.1-6.4,5.3-8.1,5.3c-0.4,0-0.6-0.2-0.6-0.5C13.8,77.6,14.9,77,15.7,76.3z
		 M25.7,63.6c0.6,0,1,0.4,1,1c0,0.6-0.4,1-1,1s-1-0.4-1-1C24.7,64,25.1,63.6,25.7,63.6z M25.7,68.6c0.6,0,1,0.4,1,1c0,0.6-0.4,1-1,1
		s-1-0.4-1-1C24.7,69,25.1,68.6,25.7,68.6z"/>
</g>
<g>
	<path d="M33.5,60.3v2.8l1-0.3v1.8l-1,0.3v3.4l1-0.3v1.8l-1,0.3v3.1H33v-3l-1.9,0.6v3h-0.5V71l-1,0.3v-1.8l1-0.3v-3.4l-1,0.3v-1.8
		l1-0.3v-3.1h0.5v3l1.9-0.6v-3H33.5z M33,65l-1.9,0.6v3.4l1.9-0.6V65z"/>
</g>
<g>
	<path d="M39.7,67.7v2.8l1-0.3V72l-1,0.3v3.4l1-0.3v1.8l-1,0.3v3.1h-0.5v-3l-1.9,0.6v3h-0.5v-2.8l-1,0.3V77l1-0.3v-3.4l-1,0.3v-1.8
		l1-0.3v-3.1h0.5v3l1.9-0.6v-3H39.7z M39.2,72.5l-1.9,0.6v3.4l1.9-0.6V72.5z"/>
</g>
<g>
	<path d="M45.9,57.8v2.8l1-0.3v1.8l-1,0.3v3.4l1-0.3v1.8l-1,0.3v3.1h-0.5v-3l-1.9,0.6v3H43v-2.8l-1,0.3v-1.8l1-0.3v-3.4l-1,0.3v-1.8
		l1-0.3v-3.1h0.5v3l1.9-0.6v-3H45.9z M45.4,62.6l-1.9,0.6v3.4l1.9-0.6V62.6z"/>
</g>
<g>
	<path d="M52.1,65.2v2.8l1-0.3v1.8l-1,0.3v3.4l1-0.3v1.8l-1,0.3v3.1h-0.5v-3l-1.9,0.6v3h-0.5V76l-1,0.3v-1.8l1-0.3v-3.4l-1,0.3v-1.8
		l1-0.3v-3.1h0.5v3l1.9-0.6v-3H52.1z M51.6,70l-1.9,0.6v3.4l1.9-0.6V70z"/>
</g>
<g>
	<path d="M58.3,72.7v2.8l1-0.3V77l-1,0.3v3.4l1-0.3v1.8l-1,0.3v3.1h-0.5v-3l-1.9,0.6v3h-0.5v-2.8l-1,0.3V82l1-0.3v-3.4l-1,0.3v-1.8
		l1-0.3v-3.1h0.5v3l1.9-0.6v-3H58.3z M57.8,77.4l-1.9,0.6v3.4l1.9-0.6V77.4z"/>
</g>
<g>
	<path d="M64.5,62.7v2.8l1-0.3V67l-1,0.3v3.4l1-0.3v1.8l-1,0.3v3.1H64v-3l-1.9,0.6v3h-0.5v-2.8l-1,0.3v-1.8l1-0.3v-3.4l-1,0.3v-1.8
		l1-0.3v-3.1h0.5v3l1.9-0.6v-3H64.5z M64,67.5l-1.9,0.6v3.4L64,71V67.5z"/>
</g>
<polygon fill-rule="evenodd" clip-rule="evenodd" points="74.3,83.2 117.6,78.2 117.6,75.8 74.3,80.7 "/>
<polygon fill-rule="evenodd" clip-rule="evenodd" points="74.3,86.9 117.6,82 117.6,79.5 74.3,84.4 "/>
<g>
	<path d="M195.3,80.6c-3.2,0-6.1-2.3-6.1-5.1c0-2.4,1.7-5,5.1-7.9c-0.2-0.9-0.3-1.8-0.3-2.7c0-2.6,0.9-5.1,2.4-6.3
		c1.4,1.9,2,3.7,2,5.3c0,2.2-1,4.2-3.2,6.1l0.7,3.1c0.4,0,0.6,0,0.6,0c2,0,3.6,1.5,3.6,3.5c0,1.4-1.1,2.8-2.7,3.6
		c0-0.1,0.6,2.8,0.6,3.3c0,1.9-1.7,3.2-3.7,3.2c-1.5,0-2.7-1-2.7-2.5c0-1.1,0.7-1.9,1.8-1.9c1,0,1.7,1,1.7,1.9c0,1-0.9,1.7-2,1.8
		c0.4,0.2,0.9,0.3,1.4,0.3c1.6,0,3.1-1.2,3.1-2.7c0-0.1,0-0.3,0-0.5l-0.6-2.8C196.5,80.5,196,80.6,195.3,80.6z M193.6,76.7
		c0,0.8,0.4,1.4,1.2,1.9c-1.3-0.2-2.2-1.1-2.2-2.3c0-1.5,1.3-2.8,2.9-3.1l-0.6-3c-2.8,2.1-4.3,4.1-4.3,6.1c0,2.2,2.1,4,4.5,4
		c0.7,0,1.3-0.1,1.8-0.4l-1.1-5.1C194.6,74.9,193.6,75.7,193.6,76.7z M196.7,60.7c-1.2,0-2.2,2.8-2.2,5.3c0,0.5,0,1,0.1,1.4
		c2-1.8,3-3.4,3-4.9c0-0.7-0.3-1.3-0.7-1.8C196.9,60.7,196.8,60.7,196.7,60.7z M198.7,77.1c0-1.2-0.9-2.4-2.2-2.4c0,0-0.2,0-0.4,0
		l1.1,5C198.2,78.9,198.7,78.1,198.7,77.1z"/>
</g>
<polygon fill-rule="evenodd" clip-rule="evenodd" points="131.9,73.3 175.1,68.3 175.1,65.8 131.9,70.8 "/>
<polygon fill-rule="evenodd" clip-rule="evenodd" points="131.9,77 175.1,72 175.1,69.6 131.9,74.5 "/>
<polygon fill-rule="evenodd" clip-rule="evenodd" points="208,68.3 251.2,63.4 251.2,60.9 208,65.8 "/>
<polygon fill-rule="evenodd" clip-rule="evenodd" points="208,64.6 251.2,59.6 251.2,57.2 208,62.1 "/>
<polygon fill-rule="evenodd" clip-rule="evenodd" points="259,84.4 302.2,83.2 302.2,80.7 259,82 "/>
<polygon fill-rule="evenodd" clip-rule="evenodd" points="259,88.2 302.2,86.9 302.2,84.4 259,85.7 "/>
<g>
	<path d="M374.8,74c2.2-2,3.6-4.6,3.6-6.9c0-1.9-1.1-3.3-2.8-3.3c-1.2,0-2.5,1-2.5,2.1c0,0.2,0,0.2,0.1,0.2c0,0,0.4-0.5,1-0.5
		c0.7,0,1.2,0.6,1.2,1.3c0,0.9-0.6,1.7-1.6,1.7s-1.5-1-1.5-2.1c0-1.8,1.7-3.1,3.6-3.1c3.5,0,4.4,2.4,4.4,4.4c0,1.2-0.3,2.2-1.5,4
		c-1.4,2.3-4.8,4-6,4c-0.3,0-0.5-0.1-0.5-0.3C373.3,75,374.2,74.5,374.8,74z M382.2,64.5c0.4,0,0.7,0.3,0.7,0.7
		c0,0.4-0.3,0.7-0.7,0.7c-0.4,0-0.7-0.3-0.7-0.7C381.5,64.8,381.8,64.5,382.2,64.5z M382.2,68.2c0.4,0,0.7,0.3,0.7,0.7
		s-0.3,0.7-0.7,0.7c-0.4,0-0.7-0.3-0.7-0.7S381.8,68.2,382.2,68.2z"/>
</g>
<polygon fill-rule="evenodd" clip-rule="evenodd" points="323.1,63.4 366.4,68.3 366.4,65.8 323.1,60.9 "/>
<polygon fill-rule="evenodd" clip-rule="evenodd" points="323.1,59.6 366.4,64.6 366.4,62.1 323.1,57.2 "/>
<polygon fill-rule="evenodd" clip-rule="evenodd" points="386.2,68.3 429.3,73.3 429.3,70.8 386.2,65.8 "/>
<polygon fill-rule="evenodd" clip-rule="evenodd" points="386.2,72 429.3,77 429.3,74.5 386.2,69.6 "/>
<polygon fill-rule="evenodd" clip-rule="evenodd" points="443.7,78.2 487,83.2 487,80.7 443.7,75.8 "/>
<polygon fill-rule="evenodd" clip-rule="evenodd" points="443.7,82 487,86.9 487,84.4 443.7,79.5 "/>
<rect x="80.6" y="20.1" width="0.5" height="16.4"/>
<g>
	<path d="M74.2,38.2c0-1.8,2.5-3.5,4.5-3.5c1.3,0,2.3,0.7,2.3,1.7c0,1.7-2.5,3.5-4.6,3.5C75.2,39.9,74.2,39.3,74.2,38.2z"/>
</g>
<rect x="95" y="18.6" width="0.5" height="15.5"/>
<g>
	<path d="M88.6,35.7c0-1.8,2.5-3.5,4.5-3.5c1.3,0,2.3,0.7,2.3,1.7c0,1.7-2.5,3.5-4.6,3.5C89.6,37.4,88.6,36.8,88.6,35.7z"/>
</g>
<rect x="109.5" y="16.9" width="0.5" height="14.7"/>
<g>
	<path d="M103,33.2c0-1.8,2.5-3.5,4.5-3.5c1.3,0,2.3,0.7,2.3,1.7c0,1.7-2.5,3.5-4.6,3.5C104,34.9,103,34.3,103,33.2z"/>
</g>
<rect x="123.9" y="15.2" width="0.5" height="14"/>
<g>
	<path d="M117.4,30.7c0-1.8,2.5-3.5,4.5-3.5c1.3,0,2.3,0.7,2.3,1.7c0,1.7-2.5,3.5-4.6,3.5C118.4,32.5,117.4,31.8,117.4,30.7z"/>
</g>
<rect x="131.6" y="28.2" width="0.5" height="16.4"/>
<g>
	<path d="M131.7,28.3c0-1.8,2.5-3.5,4.5-3.5c1.3,0,2.3,0.7,2.3,1.7c0,1.7-2.5,3.5-4.6,3.5C132.7,30,131.7,29.3,131.7,28.3z"/>
</g>
<rect x="146" y="25.7" width="0.5" height="17.4"/>
<g>
	<path d="M146.1,25.8c0-1.8,2.5-3.5,4.5-3.5c1.3,0,2.3,0.7,2.3,1.7c0,1.7-2.5,3.5-4.6,3.5C147.1,27.5,146.1,26.9,146.1,25.8z"/>
</g>
<rect x="160.5" y="23.2" width="0.5" height="18.1"/>
<g>
	<path d="M160.5,23.3c0-1.8,2.5-3.5,4.5-3.5c1.3,0,2.3,0.7,2.3,1.7c0,1.7-2.5,3.5-4.6,3.5C161.5,25,160.5,24.4,160.5,23.3z"/>
</g>
<rect x="174.9" y="20.7" width="0.5" height="18.9"/>
<g>
	<path d="M174.9,20.8c0-1.8,2.5-3.5,4.5-3.5c1.3,0,2.3,0.7,2.3,1.7c0,1.7-2.5,3.5-4.6,3.5C175.9,22.5,174.9,21.9,174.9,20.8z"/>
</g>
<rect x="201.2" y="18.3" width="0.5" height="16.4"/>
<g>
	<path d="M201.3,18.3c0-1.8,2.5-3.5,4.5-3.5c1.3,0,2.3,0.7,2.3,1.7c0,1.7-2.5,3.5-4.6,3.5C202.3,20.1,201.3,19.4,201.3,18.3z"/>
</g>
<rect x="215.6" y="15.8" width="0.5" height="17.4"/>
<g>
	<path d="M215.7,15.9c0-1.8,2.5-3.5,4.5-3.5c1.3,0,2.3,0.7,2.3,1.7c0,1.7-2.5,3.5-4.6,3.5C216.7,17.6,215.7,16.9,215.7,15.9z"/>
</g>
<rect x="230.1" y="13.3" width="0.5" height="18.1"/>
<g>
	<path d="M230.1,13.4c0-1.8,2.5-3.5,4.5-3.5c1.3,0,2.3,0.7,2.3,1.7c0,1.7-2.5,3.5-4.6,3.5C231.1,15.1,230.1,14.5,230.1,13.4z"/>
</g>
<rect x="242.7" y="9.7" width="10.5" height="0.8"/>
<rect x="244.5" y="10.8" width="0.5" height="18.9"/>
<g>
	<path d="M244.5,10.9c0-1.8,2.5-3.5,4.5-3.5c1.3,0,2.3,0.7,2.3,1.7c0,1.7-2.5,3.5-4.6,3.5C245.5,12.6,244.5,12,244.5,10.9z"/>
</g>
<rect x="256.9" y="9.7" width="10.5" height="0.8"/>
<rect x="258.7" y="8.3" width="0.5" height="17.7"/>
<g>
	<path d="M258.8,8.4c0-1.8,2.5-3.5,4.5-3.5c1.3,0,2.3,0.7,2.3,1.7c0,1.7-2.5,3.5-4.6,3.5C259.8,10.1,258.8,9.5,258.8,8.4z"/>
</g>
<rect x="271.4" y="9.7" width="10.5" height="0.8"/>
<rect x="271.4" y="4.7" width="10.5" height="0.8"/>
<rect x="273.1" y="5.9" width="0.5" height="19.8"/>
<g>
	<path d="M273.2,5.9c0-1.8,2.5-3.5,4.5-3.5c1.3,0,2.3,0.7,2.3,1.7c0,1.7-2.5,3.5-4.6,3.5C274.2,7.7,273.2,7,273.2,5.9z"/>
</g>
<rect x="285.8" y="9.7" width="10.5" height="0.8"/>
<rect x="285.8" y="4.7" width="10.5" height="0.8"/>
<rect x="287.6" y="3.4" width="0.5" height="21.9"/>
<g>
	<path d="M287.6,3.5c0-1.8,2.5-3.5,4.5-3.5c1.3,0,2.3,0.7,2.3,1.7c0,1.7-2.5,3.5-4.6,3.5C288.6,5.2,287.6,4.5,287.6,3.5z"/>
</g>
<rect x="300.2" y="9.7" width="10.5" height="0.8"/>
<rect x="300.2" y="4.7" width="10.5" height="0.8"/>
<rect x="302" y="5.9" width="0.5" height="18.9"/>
<g>
	<path d="M302.1,5.9c0-1.8,2.5-3.5,4.5-3.5c1.3,0,2.3,0.7,2.3,1.7c0,1.7-2.5,3.5-4.6,3.5C303,7.7,302.1,7,302.1,5.9z"/>
</g>
<rect x="314.6" y="9.7" width="10.5" height="0.8"/>
<rect x="316.4" y="8.3" width="0.5" height="16.4"/>
<g>
	<path d="M316.5,8.4c0-1.8,2.5-3.5,4.5-3.5c1.3,0,2.3,0.7,2.3,1.7c0,1.7-2.5,3.5-4.6,3.5C317.4,10.1,316.5,9.5,316.5,8.4z"/>
</g>
<rect x="329" y="9.7" width="10.5" height="0.8"/>
<rect x="330.8" y="10.8" width="0.5" height="15.5"/>
<g>
	<path d="M330.9,10.9c0-1.8,2.5-3.5,4.5-3.5c1.3,0,2.3,0.7,2.3,1.7c0,1.7-2.5,3.5-4.6,3.5C331.9,12.6,330.9,12,330.9,10.9z"/>
</g>
<rect x="345.2" y="13.3" width="0.5" height="14.7"/>
<g>
	<path d="M345.3,13.4c0-1.8,2.5-3.5,4.5-3.5c1.3,0,2.3,0.7,2.3,1.7c0,1.7-2.5,3.5-4.6,3.5C346.3,15.1,345.3,14.5,345.3,13.4z"/>
</g>
<rect x="359.6" y="15.8" width="0.5" height="14"/>
<g>
	<path d="M359.7,15.9c0-1.8,2.5-3.5,4.5-3.5c1.3,0,2.3,0.7,2.3,1.7c0,1.7-2.5,3.5-4.6,3.5C360.7,17.6,359.7,16.9,359.7,15.9z"/>
</g>
<rect x="386" y="18.3" width="0.5" height="16.4"/>
<g>
	<path d="M386.1,18.3c0-1.8,2.5-3.5,4.5-3.5c1.3,0,2.3,0.7,2.3,1.7c0,1.7-2.5,3.5-4.6,3.5C387,20.1,386.1,19.4,386.1,18.3z"/>
</g>
<rect x="400.3" y="20.7" width="0.5" height="15.5"/>
<g>
	<path d="M400.3,20.8c0-1.8,2.5-3.5,4.5-3.5c1.3,0,2.3,0.7,2.3,1.7c0,1.7-2.5,3.5-4.6,3.5C401.3,22.5,400.3,21.9,400.3,20.8z"/>
</g>
<rect x="414.7" y="23.2" width="0.5" height="14.7"/>
<g>
	<path d="M414.8,23.3c0-1.8,2.5-3.5,4.5-3.5c1.3,0,2.3,0.7,2.3,1.7c0,1.7-2.5,3.5-4.6,3.5C415.7,25,414.8,24.4,414.8,23.3z"/>
</g>
<rect x="429.1" y="25.7" width="0.5" height="14"/>
<g>
	<path d="M429.2,25.8c0-1.8,2.5-3.5,4.5-3.5c1.3,0,2.3,0.7,2.3,1.7c0,1.7-2.5,3.5-4.6,3.5C430.1,27.5,429.2,26.9,429.2,25.8z"/>
</g>
<rect x="450" y="10.2" width="0.5" height="16.4"/>
<g>
	<path d="M443.6,28.3c0-1.8,2.5-3.5,4.5-3.5c1.3,0,2.3,0.7,2.3,1.7c0,1.7-2.5,3.5-4.6,3.5C444.6,30,443.6,29.3,443.6,28.3z"/>
</g>
<rect x="464.4" y="11.7" width="0.5" height="17.4"/>
<g>
	<path d="M458,30.7c0-1.8,2.5-3.5,4.5-3.5c1.3,0,2.3,0.7,2.3,1.7c0,1.7-2.5,3.5-4.6,3.5C459,32.5,458,31.8,458,30.7z"/>
</g>
<rect x="478.9" y="13.4" width="0.5" height="18.1"/>
<g>
	<path d="M472.4,33.2c0-1.8,2.5-3.5,4.5-3.5c1.3,0,2.3,0.7,2.3,1.7c0,1.7-2.5,3.5-4.6,3.5C473.4,34.9,472.4,34.3,472.4,33.2z"/>
</g>
<rect x="493.3" y="15.2" width="0.5" height="18.9"/>
<g>
	<path d="M486.8,35.7c0-1.8,2.5-3.5,4.5-3.5c1.3,0,2.3,0.7,2.3,1.7c0,1.7-2.5,3.5-4.6,3.5C487.8,37.4,486.8,36.8,486.8,35.7z"/>
</g>
<rect x="507.7" y="20" width="0.5" height="16.6"/>
<g>
	<path d="M505.4,34.6c1.6,0,2.7,0.7,2.7,2c0,1.9-2.3,3.4-4.5,3.4c-1.3,0-2.4-0.7-2.4-1.8C501.1,36.4,503.3,34.6,505.4,34.6z
		 M501.6,38.5c0,0.6,0.4,0.9,1.1,0.9c1.4,0,4.9-2.1,4.9-3.3c0-0.6-0.4-0.9-1.1-0.9C505.2,35.2,501.6,37.2,501.6,38.5z"/>
</g>
<rect x="74.1" y="72.8" width="0.5" height="14"/>
<g>
	<path d="M74.2,72.9c0-1.8,2.5-3.5,4.5-3.5c1.3,0,2.3,0.7,2.3,1.7c0,1.7-2.5,3.5-4.6,3.5C75.2,74.6,74.2,74,74.2,72.9z"/>
</g>
<rect x="88.5" y="70.3" width="0.5" height="14.9"/>
<g>
	<path d="M88.6,70.4c0-1.8,2.5-3.5,4.5-3.5c1.3,0,2.3,0.7,2.3,1.7c0,1.7-2.5,3.5-4.6,3.5C89.6,72.1,88.6,71.5,88.6,70.4z"/>
</g>
<rect x="102.9" y="67.9" width="0.5" height="15.7"/>
<g>
	<path d="M103,67.9c0-1.8,2.5-3.5,4.5-3.5c1.3,0,2.3,0.7,2.3,1.7c0,1.7-2.5,3.5-4.6,3.5C104,69.7,103,69,103,67.9z"/>
</g>
<rect x="117.4" y="65.4" width="0.5" height="16.4"/>
<g>
	<path d="M117.4,65.5c0-1.8,2.5-3.5,4.5-3.5c1.3,0,2.3,0.7,2.3,1.7c0,1.7-2.5,3.5-4.6,3.5C118.4,67.2,117.4,66.5,117.4,65.5z"/>
</g>
<rect x="131.6" y="62.9" width="0.5" height="14"/>
<g>
	<path d="M131.7,63c0-1.8,2.5-3.5,4.5-3.5c1.3,0,2.3,0.7,2.3,1.7c0,1.7-2.5,3.5-4.6,3.5C132.7,64.7,131.7,64.1,131.7,63z"/>
</g>
<rect x="146" y="60.4" width="0.5" height="14.9"/>
<g>
	<path d="M146.1,60.5c0-1.8,2.5-3.5,4.5-3.5c1.3,0,2.3,0.7,2.3,1.7c0,1.7-2.5,3.5-4.6,3.5C147.1,62.2,146.1,61.6,146.1,60.5z"/>
</g>
<rect x="158.7" y="56.8" width="10.5" height="0.8"/>
<rect x="160.5" y="57.9" width="0.5" height="15.7"/>
<g>
	<path d="M160.5,58c0-1.8,2.5-3.5,4.5-3.5c1.3,0,2.3,0.7,2.3,1.7c0,1.7-2.5,3.5-4.6,3.5C161.5,59.7,160.5,59.1,160.5,58z"/>
</g>
<rect x="173.1" y="56.8" width="10.5" height="0.8"/>
<rect x="174.9" y="55.5" width="0.5" height="16.4"/>
<g>
	<path d="M174.9,55.5c0-1.8,2.5-3.5,4.5-3.5c1.3,0,2.3,0.7,2.3,1.7c0,1.7-2.5,3.5-4.6,3.5C175.9,57.3,174.9,56.6,174.9,55.5z"/>
</g>
<rect x="207.7" y="62.3" width="0.5" height="18.9"/>
<g>
	<path d="M201.3,82.8c0-1.8,2.5-3.5,4.5-3.5c1.3,0,2.3,0.7,2.3,1.7c0,1.7-2.5,3.5-4.6,3.5C202.3,84.5,201.3,83.9,201.3,82.8z"/>
</g>
<rect x="222.1" y="60.7" width="0.5" height="18"/>
<g>
	<path d="M215.7,80.3c0-1.8,2.5-3.5,4.5-3.5c1.3,0,2.3,0.7,2.3,1.7c0,1.7-2.5,3.5-4.6,3.5C216.7,82.1,215.7,81.4,215.7,80.3z"/>
</g>
<rect x="236.6" y="59" width="0.5" height="17.2"/>
<g>
	<path d="M230.1,77.9c0-1.8,2.5-3.5,4.5-3.5c1.3,0,2.3,0.7,2.3,1.7c0,1.7-2.5,3.5-4.6,3.5C231.1,79.6,230.1,78.9,230.1,77.9z"/>
</g>
<rect x="251" y="57.3" width="0.5" height="16.4"/>
<g>
	<path d="M244.5,75.4c0-1.8,2.5-3.5,4.5-3.5c1.3,0,2.3,0.7,2.3,1.7c0,1.7-2.5,3.5-4.6,3.5C245.5,77.1,244.5,76.5,244.5,75.4z"/>
</g>
<rect x="258.7" y="72.8" width="0.5" height="15.2"/>
<g>
	<path d="M258.8,72.9c0-1.8,2.5-3.5,4.5-3.5c1.3,0,2.3,0.7,2.3,1.7c0,1.7-2.5,3.5-4.6,3.5C259.8,74.6,258.8,74,258.8,72.9z"/>
</g>
<rect x="273.1" y="70.3" width="0.5" height="17.4"/>
<g>
	<path d="M273.2,70.4c0-1.8,2.5-3.5,4.5-3.5c1.3,0,2.3,0.7,2.3,1.7c0,1.7-2.5,3.5-4.6,3.5C274.2,72.1,273.2,71.5,273.2,70.4z"/>
</g>
<rect x="287.6" y="67.9" width="0.5" height="19.4"/>
<g>
	<path d="M287.6,67.9c0-1.8,2.5-3.5,4.5-3.5c1.3,0,2.3,0.7,2.3,1.7c0,1.7-2.5,3.5-4.6,3.5C288.6,69.7,287.6,69,287.6,67.9z"/>
</g>
<rect x="302" y="70.3" width="0.5" height="16.4"/>
<g>
	<path d="M302.1,70.4c0-1.8,2.5-3.5,4.5-3.5c1.3,0,2.3,0.7,2.3,1.7c0,1.7-2.5,3.5-4.6,3.5C303,72.1,302.1,71.5,302.1,70.4z"/>
</g>
<rect x="322.9" y="57.3" width="0.5" height="14"/>
<g>
	<path d="M316.5,72.9c0-1.8,2.5-3.5,4.5-3.5c1.3,0,2.3,0.7,2.3,1.7c0,1.7-2.5,3.5-4.6,3.5C317.4,74.6,316.5,74,316.5,72.9z"/>
</g>
<rect x="337.3" y="58.9" width="0.5" height="14.9"/>
<g>
	<path d="M330.9,75.4c0-1.8,2.5-3.5,4.5-3.5c1.3,0,2.3,0.7,2.3,1.7c0,1.7-2.5,3.5-4.6,3.5C331.9,77.1,330.9,76.5,330.9,75.4z"/>
</g>
<rect x="351.7" y="60.6" width="0.5" height="15.7"/>
<g>
	<path d="M345.3,77.9c0-1.8,2.5-3.5,4.5-3.5c1.3,0,2.3,0.7,2.3,1.7c0,1.7-2.5,3.5-4.6,3.5C346.3,79.6,345.3,78.9,345.3,77.9z"/>
</g>
<rect x="366.2" y="62.3" width="0.5" height="16.4"/>
<g>
	<path d="M359.7,80.3c0-1.8,2.5-3.5,4.5-3.5c1.3,0,2.3,0.7,2.3,1.7c0,1.7-2.5,3.5-4.6,3.5C360.7,82.1,359.7,81.4,359.7,80.3z"/>
</g>
<rect x="384.2" y="56.8" width="10.5" height="0.8"/>
<rect x="384.2" y="51.8" width="10.5" height="0.8"/>
<rect x="386" y="53" width="0.5" height="18.9"/>
<g>
	<path d="M386.1,53.1c0-1.8,2.5-3.5,4.5-3.5c1.3,0,2.3,0.7,2.3,1.7c0,1.7-2.5,3.5-4.6,3.5C387,54.8,386.1,54.1,386.1,53.1z"/>
</g>
<rect x="398.5" y="56.8" width="10.5" height="0.8"/>
<rect x="400.3" y="55.5" width="0.5" height="18"/>
<g>
	<path d="M400.3,55.5c0-1.8,2.5-3.5,4.5-3.5c1.3,0,2.3,0.7,2.3,1.7c0,1.7-2.5,3.5-4.6,3.5C401.3,57.3,400.3,56.6,400.3,55.5z"/>
</g>
<rect x="412.9" y="56.8" width="10.5" height="0.8"/>
<rect x="414.7" y="57.9" width="0.5" height="17.2"/>
<g>
	<path d="M414.8,58c0-1.8,2.5-3.5,4.5-3.5c1.3,0,2.3,0.7,2.3,1.7c0,1.7-2.5,3.5-4.6,3.5C415.7,59.7,414.8,59.1,414.8,58z"/>
</g>
<rect x="429.1" y="60.4" width="0.5" height="16.4"/>
<g>
	<path d="M429.2,60.5c0-1.8,2.5-3.5,4.5-3.5c1.3,0,2.3,0.7,2.3,1.7c0,1.7-2.5,3.5-4.6,3.5C430.1,62.2,429.2,61.6,429.2,60.5z"/>
</g>
<rect x="443.5" y="62.9" width="0.5" height="18.9"/>
<g>
	<path d="M443.6,63c0-1.8,2.5-3.5,4.5-3.5c1.3,0,2.3,0.7,2.3,1.7c0,1.7-2.5,3.5-4.6,3.5C444.6,64.7,443.6,64.1,443.6,63z"/>
</g>
<rect x="457.9" y="65.4" width="0.5" height="18"/>
<g>
	<path d="M458,65.5c0-1.8,2.5-3.5,4.5-3.5c1.3,0,2.3,0.7,2.3,1.7c0,1.7-2.5,3.5-4.6,3.5C459,67.2,458,66.5,458,65.5z"/>
</g>
<rect x="472.3" y="67.9" width="0.5" height="17.2"/>
<g>
	<path d="M472.4,67.9c0-1.8,2.5-3.5,4.5-3.5c1.3,0,2.3,0.7,2.3,1.7c0,1.7-2.5,3.5-4.6,3.5C473.4,69.7,472.4,69,472.4,67.9z"/>
</g>
<rect x="486.8" y="70.3" width="0.5" height="16.4"/>
<g>
	<path d="M486.8,70.4c0-1.8,2.5-3.5,4.5-3.5c1.3,0,2.3,0.7,2.3,1.7c0,1.7-2.5,3.5-4.6,3.5C487.8,72.1,486.8,71.5,486.8,70.4z"/>
</g>
<rect x="501" y="72.8" width="0.5" height="16.6"/>
<g>
	<path d="M505.4,69.3c1.6,0,2.7,0.7,2.7,2c0,1.9-2.3,3.4-4.5,3.4c-1.3,0-2.4-0.7-2.4-1.8C501.1,71.1,503.3,69.3,505.4,69.3z
		 M501.6,73.2c0,0.6,0.4,0.9,1.1,0.9c1.4,0,4.9-2.1,4.9-3.3c0-0.6-0.4-0.9-1.1-0.9C505.2,69.9,501.6,72,501.6,73.2z"/>
</g>
</svg>
