<?xml version="1.0" encoding="utf-8"?>

<!--
	ScaleBook
	Copyright (c) Leland Jansen 2015. All rights reserved.
-->

<!DOCTYPE svg PUBLIC "-//W3C//DTD SVG 1.1//EN" "http://www.w3.org/Graphics/SVG/1.1/DTD/svg11.dtd">
<svg version="1.1" id="Layer_1" xmlns="http://www.w3.org/2000/svg" xmlns:xlink="http://www.w3.org/1999/xlink" x="0px" y="0px"
	 viewBox="0 0 552.9 90.6" enable-background="new 0 0 552.9 90.6" xml:space="preserve">
<rect x="8.4" y="17.5" width="0.8" height="67"/>
<g>
	<path d="M7.4,18.1c-1.9,1.1-3.6,5.8-3.6,9.4c0,2.3,1.4,9.9,1.4,12.3c0,5-1.5,8.6-4.6,11.1c3,2.4,4.6,6.1,4.6,11.1
		c0,2.3-1.4,9.9-1.4,12.3c0,3.8,1.7,8.4,3.6,9.5v0.7c-3.5-2.3-5.8-8.2-5.8-13.1c0-2.1,1.7-9.4,1.7-11.5c0-3.8-1-6.6-2.9-8.2
		C0.1,51.4,0,51.2,0,51c0-0.2,0.1-0.4,0.5-0.7c1.9-1.7,2.9-4.2,2.9-7.6c0-2.1-1.7-10-1.7-12.2c0-5.2,2.1-10.4,5.8-13.1V18.1z"/>
</g>
<rect x="547.8" y="17.5" width="0.8" height="67"/>
<rect x="550.4" y="17.5" width="2.5" height="67"/>
<rect x="8.5" y="37.1" width="544.4" height="0.5"/>
<rect x="8.5" y="32.1" width="544.4" height="0.5"/>
<rect x="8.5" y="27.2" width="544.4" height="0.5"/>
<rect x="8.5" y="22.2" width="544.4" height="0.5"/>
<rect x="8.5" y="17.2" width="544.4" height="0.5"/>
<g>
	<path d="M20.3,37.2c-4.2,0-8.1-3.1-8.1-6.9c0-3.2,2.3-6.7,6.8-10.5c-0.3-1.2-0.4-2.4-0.4-3.6c0-3.5,1.2-6.8,3.2-8.5
		c1.8,2.5,2.7,4.9,2.7,7.1c0,2.9-1.3,5.6-4.3,8.1l0.9,4.2c0.5,0,0.8-0.1,0.8-0.1c2.6,0,4.8,2,4.8,4.7c0,1.9-1.4,3.7-3.6,4.8
		c0-0.1,0.9,3.8,0.9,4.3c0,2.5-2.3,4.2-4.9,4.2c-2,0-3.6-1.3-3.6-3.4c0-1.4,1-2.6,2.4-2.6c1.3,0,2.3,1.3,2.3,2.5
		c0,1.4-1.2,2.3-2.7,2.5c0.6,0.3,1.2,0.5,1.9,0.5c2.1,0,4.1-1.6,4.1-3.6c0-0.2,0-0.4-0.1-0.6l-0.8-3.7C21.9,37,21.2,37.2,20.3,37.2z
		 M18.1,31.9c0,1,0.5,1.9,1.6,2.5c-1.8-0.3-3-1.4-3-3.1c0-2,1.7-3.7,3.8-4.1l-0.8-4C16,26,14,28.8,14,31.4c0,2.9,2.8,5.3,6,5.3
		c0.9,0,1.7-0.2,2.4-0.5L21,29.3C19.4,29.6,18.1,30.6,18.1,31.9z M22.1,10.6c-1.6,0-2.9,3.7-2.9,7c0,0.7,0,1.3,0.2,1.9
		c2.7-2.4,4-4.5,4-6.5c0-0.9-0.3-1.7-1-2.4C22.4,10.6,22.3,10.6,22.1,10.6z M24.9,32.5c0-1.6-1.2-3.3-2.9-3.3c-0.1,0-0.2,0-0.5,0
		l1.4,6.6C24.2,34.9,24.9,33.8,24.9,32.5z"/>
</g>
<g>
	<path d="M29.5,19.1h0.6L30,25.3c0.4-0.7,1-1,1.8-1c1.2,0,2.2,0.8,2.2,1.9c0,0.8-0.5,1.8-1.7,2.7L29.5,31V19.1z M30.1,26
		C30,26.7,30,27.4,30,27.9c0,1,0,1.6,0.1,2c1-0.7,2.4-2.6,2.4-3.7c0-0.6-0.5-1.1-1.1-1.1C30.8,25.2,30.4,25.4,30.1,26z"/>
</g>
<g>
	<path d="M35.1,11.6h0.6l-0.1,6.2c0.4-0.7,1-1,1.8-1c1.2,0,2.2,0.8,2.2,1.9c0,0.8-0.5,1.8-1.7,2.7l-2.8,2.1V11.6z M35.7,18.6
		c-0.1,0.8-0.1,1.4-0.1,1.9c0,1,0,1.6,0.1,2c1-0.7,2.4-2.6,2.4-3.7c0-0.6-0.5-1.1-1.1-1.1C36.4,17.7,36,18,35.7,18.6z"/>
</g>
<g>
	<path d="M40.7,21.6h0.6l-0.1,6.2c0.4-0.7,1-1,1.8-1c1.2,0,2.2,0.8,2.2,1.9c0,0.8-0.5,1.8-1.7,2.7l-2.8,2.1V21.6z M41.3,28.5
		c-0.1,0.8-0.1,1.4-0.1,1.9c0,1,0,1.6,0.1,2c1-0.7,2.4-2.6,2.4-3.7c0-0.6-0.5-1.1-1.1-1.1C42,27.6,41.6,27.9,41.3,28.5z"/>
</g>
<g>
	<path d="M46.3,14.1h0.6l-0.1,6.2c0.4-0.7,1-1,1.8-1c1.2,0,2.2,0.8,2.2,1.9c0,0.8-0.5,1.8-1.7,2.7l-2.8,2.1V14.1z M46.9,21
		c-0.1,0.8-0.1,1.4-0.1,1.9c0,1,0,1.6,0.1,2c1-0.7,2.4-2.6,2.4-3.7c0-0.6-0.5-1.1-1.1-1.1C47.6,20.2,47.2,20.5,46.9,21z"/>
</g>
<g>
	<path d="M51.9,24h0.6l-0.1,6.2c0.4-0.7,1-1,1.8-1c1.2,0,2.2,0.8,2.2,1.9c0,0.8-0.5,1.8-1.7,2.7L51.9,36V24z M52.4,31
		c-0.1,0.8-0.1,1.4-0.1,1.9c0,1,0,1.6,0.1,2c1-0.7,2.4-2.6,2.4-3.7c0-0.6-0.5-1.1-1.1-1.1C53.2,30.1,52.7,30.4,52.4,31z"/>
</g>
<g>
	<path d="M57.4,16.6h0.6l-0.1,6.2c0.4-0.7,1-1,1.8-1c1.2,0,2.2,0.8,2.2,1.9c0,0.8-0.5,1.8-1.7,2.7l-2.8,2.1V16.6z M58,23.5
		c-0.1,0.8-0.1,1.4-0.1,1.9c0,1,0,1.6,0.1,2c1-0.7,2.4-2.6,2.4-3.7c0-0.6-0.5-1.1-1.1-1.1C58.7,22.7,58.3,23,58,23.5z"/>
</g>
<polygon fill-rule="evenodd" clip-rule="evenodd" points="77.1,23.7 120.7,18.7 120.7,16.2 77.1,21.2 "/>
<polygon fill-rule="evenodd" clip-rule="evenodd" points="77.1,20 120.7,15 120.7,12.5 77.1,17.5 "/>
<polygon fill-rule="evenodd" clip-rule="evenodd" points="128.8,38.6 172.3,33.6 172.3,31.1 128.8,36.1 "/>
<polygon fill-rule="evenodd" clip-rule="evenodd" points="128.8,42.3 172.3,37.3 172.3,34.8 128.8,39.8 "/>
<polygon fill-rule="evenodd" clip-rule="evenodd" points="198.7,28.6 242.2,23.7 242.2,21.2 198.7,26.2 "/>
<polygon fill-rule="evenodd" clip-rule="evenodd" points="198.7,32.4 242.2,27.4 242.2,24.9 198.7,29.9 "/>
<polygon fill-rule="evenodd" clip-rule="evenodd" points="256.8,24.9 300.4,23.7 300.4,21.2 256.8,22.4 "/>
<polygon fill-rule="evenodd" clip-rule="evenodd" points="256.8,28.6 300.4,27.4 300.4,24.9 256.8,26.2 "/>
<polygon fill-rule="evenodd" clip-rule="evenodd" points="314.8,23.7 358.3,28.6 358.3,26.2 314.8,21.2 "/>
<polygon fill-rule="evenodd" clip-rule="evenodd" points="314.8,27.4 358.3,32.4 358.3,29.9 314.8,24.9 "/>
<polygon fill-rule="evenodd" clip-rule="evenodd" points="384.7,33.6 428.2,38.6 428.2,36.1 384.7,31.1 "/>
<polygon fill-rule="evenodd" clip-rule="evenodd" points="384.7,37.3 428.2,42.3 428.2,39.8 384.7,34.8 "/>
<polygon fill-rule="evenodd" clip-rule="evenodd" points="449.3,18.7 492.9,23.7 492.9,21.2 449.3,16.2 "/>
<polygon fill-rule="evenodd" clip-rule="evenodd" points="449.3,15 492.9,20 492.9,17.5 449.3,12.5 "/>
<rect x="8.5" y="84.2" width="544.4" height="0.5"/>
<rect x="8.5" y="79.3" width="544.4" height="0.5"/>
<rect x="8.5" y="74.3" width="544.4" height="0.5"/>
<rect x="8.5" y="69.3" width="544.4" height="0.5"/>
<rect x="8.5" y="64.4" width="544.4" height="0.5"/>
<g>
	<path d="M15.7,78.8c2.9-2.6,4.7-6.1,4.7-9.2c0-2.5-1.4-4.4-3.7-4.4c-1.6,0-3.4,1.3-3.4,2.7c0,0.2,0,0.3,0.1,0.3
		c-0.1,0,0.6-0.6,1.4-0.6c0.9,0,1.5,0.8,1.5,1.7c0,1.2-0.9,2.2-2.1,2.2c-1.2,0-2.1-1.3-2.1-2.8c0-2.3,2.3-4.1,4.8-4.1
		c4.7,0,5.9,3.2,5.9,5.8c0,1.6-0.4,2.9-2,5.3C19.1,78.7,14.6,81,13,81c-0.4,0-0.6-0.2-0.6-0.5C13.8,80.1,14.9,79.5,15.7,78.8z
		 M25.7,66.1c0.6,0,1,0.4,1,1c0,0.6-0.4,1-1,1s-1-0.4-1-1C24.7,66.5,25.1,66.1,25.7,66.1z M25.7,71c0.6,0,1,0.4,1,1c0,0.6-0.4,1-1,1
		s-1-0.4-1-1C24.7,71.5,25.1,71,25.7,71z"/>
</g>
<g>
	<path d="M29.5,71.2h0.6L30,77.4c0.4-0.7,1-1,1.8-1c1.2,0,2.2,0.8,2.2,1.9c0,0.8-0.5,1.8-1.7,2.7l-2.8,2.1V71.2z M30.1,78.1
		C30,78.8,30,79.5,30,80c0,1,0,1.6,0.1,2c1-0.7,2.4-2.6,2.4-3.7c0-0.6-0.5-1.1-1.1-1.1C30.8,77.2,30.4,77.5,30.1,78.1z"/>
</g>
<g>
	<path d="M35.1,63.7h0.6L35.6,70c0.4-0.7,1-1,1.8-1c1.2,0,2.2,0.8,2.2,1.9c0,0.8-0.5,1.8-1.7,2.7l-2.8,2.1V63.7z M35.7,70.6
		c-0.1,0.8-0.1,1.4-0.1,1.9c0,1,0,1.6,0.1,2c1-0.7,2.4-2.6,2.4-3.7c0-0.6-0.5-1.1-1.1-1.1C36.4,69.8,36,70.1,35.7,70.6z"/>
</g>
<g>
	<path d="M40.7,73.7h0.6l-0.1,6.2c0.4-0.7,1-1,1.8-1c1.2,0,2.2,0.8,2.2,1.9c0,0.8-0.5,1.8-1.7,2.7l-2.8,2.1V73.7z M41.3,80.6
		c-0.1,0.8-0.1,1.4-0.1,1.9c0,1,0,1.6,0.1,2c1-0.7,2.4-2.6,2.4-3.7c0-0.6-0.5-1.1-1.1-1.1C42,79.7,41.6,80,41.3,80.6z"/>
</g>
<g>
	<path d="M46.3,66.2h0.6l-0.1,6.2c0.4-0.7,1-1,1.8-1c1.2,0,2.2,0.8,2.2,1.9c0,0.8-0.5,1.8-1.7,2.7l-2.8,2.1V66.2z M46.9,73.1
		c-0.1,0.8-0.1,1.4-0.1,1.9c0,1,0,1.6,0.1,2c1-0.7,2.4-2.6,2.4-3.7c0-0.6-0.5-1.1-1.1-1.1C47.6,72.3,47.2,72.6,46.9,73.1z"/>
</g>
<g>
	<path d="M51.9,76.1h0.6l-0.1,6.2c0.4-0.7,1-1,1.8-1c1.2,0,2.2,0.8,2.2,1.9c0,0.8-0.5,1.8-1.7,2.7l-2.8,2.1V76.1z M52.4,83
		c-0.1,0.8-0.1,1.4-0.1,1.9c0,1,0,1.6,0.1,2c1-0.7,2.4-2.6,2.4-3.7c0-0.6-0.5-1.1-1.1-1.1C53.2,82.2,52.7,82.5,52.4,83z"/>
</g>
<g>
	<path d="M57.4,68.7h0.6l-0.1,6.2c0.4-0.7,1-1,1.8-1c1.2,0,2.2,0.8,2.2,1.9c0,0.8-0.5,1.8-1.7,2.7l-2.8,2.1V68.7z M58,75.6
		c-0.1,0.8-0.1,1.4-0.1,1.9c0,1,0,1.6,0.1,2c1-0.7,2.4-2.6,2.4-3.7c0-0.6-0.5-1.1-1.1-1.1C58.7,74.8,58.3,75,58,75.6z"/>
</g>
<polygon fill-rule="evenodd" clip-rule="evenodd" points="70.6,85.7 114.2,80.7 114.2,78.2 70.6,83.2 "/>
<polygon fill-rule="evenodd" clip-rule="evenodd" points="70.6,89.4 114.2,84.4 114.2,82 70.6,86.9 "/>
<g>
	<path d="M192.5,83.1c-3.2,0-6.1-2.3-6.1-5.1c0-2.4,1.7-5,5.1-7.9c-0.2-0.9-0.3-1.8-0.3-2.7c0-2.6,0.9-5.1,2.4-6.3
		c1.4,1.9,2,3.7,2,5.3c0,2.2-1,4.2-3.2,6.1l0.7,3.1c0.4,0,0.6,0,0.6,0c2,0,3.6,1.5,3.6,3.5c0,1.4-1.1,2.8-2.7,3.6
		c0-0.1,0.6,2.8,0.6,3.3c0,1.9-1.7,3.2-3.7,3.2c-1.5,0-2.7-1-2.7-2.5c0-1.1,0.7-1.9,1.8-1.9c1,0,1.7,1,1.7,1.9c0,1-0.9,1.7-2,1.8
		c0.4,0.2,0.9,0.3,1.4,0.3c1.6,0,3.1-1.2,3.1-2.7c0-0.1,0-0.3,0-0.5l-0.6-2.8C193.7,83,193.2,83.1,192.5,83.1z M190.9,79.2
		c0,0.8,0.4,1.4,1.2,1.9c-1.3-0.2-2.2-1.1-2.2-2.3c0-1.5,1.3-2.8,2.9-3.1l-0.6-3c-2.8,2.1-4.3,4.1-4.3,6.1c0,2.2,2.1,4,4.5,4
		c0.7,0,1.3-0.1,1.8-0.4l-1.1-5.1C191.8,77.4,190.9,78.1,190.9,79.2z M193.9,63.2c-1.2,0-2.2,2.8-2.2,5.3c0,0.5,0,1,0.1,1.4
		c2-1.8,3-3.4,3-4.9c0-0.7-0.3-1.3-0.7-1.8C194.1,63.2,194,63.2,193.9,63.2z M196,79.6c0-1.2-0.9-2.4-2.2-2.4c0,0-0.2,0-0.4,0l1.1,5
		C195.4,81.4,196,80.6,196,79.6z"/>
</g>
<polygon fill-rule="evenodd" clip-rule="evenodd" points="128.8,75.8 172.3,70.8 172.3,68.3 128.8,73.3 "/>
<polygon fill-rule="evenodd" clip-rule="evenodd" points="128.8,79.5 172.3,74.5 172.3,72 128.8,77 "/>
<polygon fill-rule="evenodd" clip-rule="evenodd" points="205.2,70.8 248.7,65.8 248.7,63.4 205.2,68.3 "/>
<polygon fill-rule="evenodd" clip-rule="evenodd" points="205.2,67.1 248.7,62.1 248.7,59.6 205.2,64.6 "/>
<polygon fill-rule="evenodd" clip-rule="evenodd" points="256.8,86.9 300.4,85.7 300.4,83.2 256.8,84.4 "/>
<polygon fill-rule="evenodd" clip-rule="evenodd" points="256.8,90.6 300.4,89.4 300.4,86.9 256.8,88.2 "/>
<g>
	<path d="M373.2,76.5c2.2-2,3.6-4.6,3.6-6.9c0-1.9-1.1-3.3-2.8-3.3c-1.2,0-2.5,1-2.5,2.1c0,0.2,0,0.2,0.1,0.2c0,0,0.4-0.5,1-0.5
		c0.7,0,1.2,0.6,1.2,1.3c0,0.9-0.6,1.7-1.6,1.7s-1.5-1-1.5-2.1c0-1.8,1.7-3.1,3.6-3.1c3.5,0,4.4,2.4,4.4,4.4c0,1.2-0.3,2.2-1.5,4
		c-1.4,2.3-4.8,4-6,4c-0.3,0-0.5-0.1-0.5-0.3C371.8,77.4,372.6,77,373.2,76.5z M380.7,67c0.4,0,0.7,0.3,0.7,0.7
		c0,0.4-0.3,0.7-0.7,0.7c-0.4,0-0.7-0.3-0.7-0.7C379.9,67.3,380.3,67,380.7,67z M380.7,70.7c0.4,0,0.7,0.3,0.7,0.7s-0.3,0.7-0.7,0.7
		c-0.4,0-0.7-0.3-0.7-0.7S380.3,70.7,380.7,70.7z"/>
</g>
<polygon fill-rule="evenodd" clip-rule="evenodd" points="321.3,60.9 364.8,65.8 364.8,63.4 321.3,58.4 "/>
<polygon fill-rule="evenodd" clip-rule="evenodd" points="321.3,57.2 364.8,62.1 364.8,59.6 321.3,54.7 "/>
<polygon fill-rule="evenodd" clip-rule="evenodd" points="384.7,70.8 428.2,72 428.2,69.6 384.7,68.3 "/>
<polygon fill-rule="evenodd" clip-rule="evenodd" points="384.7,74.5 428.2,75.8 428.2,73.3 384.7,72 "/>
<polygon fill-rule="evenodd" clip-rule="evenodd" points="442.8,75.8 486.4,80.7 486.4,78.2 442.8,73.3 "/>
<polygon fill-rule="evenodd" clip-rule="evenodd" points="442.8,79.5 486.4,84.4 486.4,82 442.8,77 "/>
<rect x="76.9" y="17.6" width="0.5" height="18.9"/>
<g>
	<path d="M70.5,38.2c0-1.8,2.5-3.5,4.5-3.5c1.3,0,2.3,0.7,2.3,1.7c0,1.7-2.5,3.5-4.6,3.5C71.4,39.9,70.5,39.3,70.5,38.2z"/>
</g>
<rect x="91.5" y="16.1" width="0.5" height="18"/>
<g>
	<path d="M85,35.7c0-1.8,2.5-3.5,4.5-3.5c1.3,0,2.3,0.7,2.3,1.7c0,1.7-2.5,3.5-4.6,3.5C86,37.4,85,36.8,85,35.7z"/>
</g>
<rect x="105.9" y="14.4" width="0.5" height="17.2"/>
<g>
	<path d="M99.5,33.2c0-1.8,2.5-3.5,4.5-3.5c1.3,0,2.3,0.7,2.3,1.7c0,1.7-2.5,3.5-4.6,3.5C100.4,34.9,99.5,34.3,99.5,33.2z"/>
</g>
<rect x="120.5" y="12.7" width="0.5" height="16.4"/>
<g>
	<path d="M114,30.7c0-1.8,2.5-3.5,4.5-3.5c1.3,0,2.3,0.7,2.3,1.7c0,1.7-2.5,3.5-4.6,3.5C115,32.5,114,31.8,114,30.7z"/>
</g>
<rect x="128.5" y="28.2" width="0.5" height="14"/>
<g>
	<path d="M128.6,28.3c0-1.8,2.5-3.5,4.5-3.5c1.3,0,2.3,0.7,2.3,1.7c0,1.7-2.5,3.5-4.6,3.5C129.6,30,128.6,29.3,128.6,28.3z"/>
</g>
<rect x="142.9" y="25.7" width="0.5" height="14.9"/>
<g>
	<path d="M143,25.8c0-1.8,2.5-3.5,4.5-3.5c1.3,0,2.3,0.7,2.3,1.7c0,1.7-2.5,3.5-4.6,3.5C144,27.5,143,26.9,143,25.8z"/>
</g>
<rect x="157.5" y="23.2" width="0.5" height="15.7"/>
<g>
	<path d="M157.6,23.3c0-1.8,2.5-3.5,4.5-3.5c1.3,0,2.3,0.7,2.3,1.7c0,1.7-2.5,3.5-4.6,3.5C158.6,25,157.6,24.4,157.6,23.3z"/>
</g>
<rect x="172.1" y="20.7" width="0.5" height="16.4"/>
<g>
	<path d="M172.2,20.8c0-1.8,2.5-3.5,4.5-3.5c1.3,0,2.3,0.7,2.3,1.7c0,1.7-2.5,3.5-4.6,3.5C173.1,22.5,172.2,21.9,172.2,20.8z"/>
</g>
<rect x="198.4" y="18.3" width="0.5" height="14"/>
<g>
	<path d="M198.5,18.3c0-1.8,2.5-3.5,4.5-3.5c1.3,0,2.3,0.7,2.3,1.7c0,1.7-2.5,3.5-4.6,3.5C199.5,20.1,198.5,19.4,198.5,18.3z"/>
</g>
<rect x="213" y="15.8" width="0.5" height="14.9"/>
<g>
	<path d="M213.1,15.9c0-1.8,2.5-3.5,4.5-3.5c1.3,0,2.3,0.7,2.3,1.7c0,1.7-2.5,3.5-4.6,3.5C214.1,17.6,213.1,16.9,213.1,15.9z"/>
</g>
<rect x="225.6" y="12.1" width="10.5" height="0.8"/>
<rect x="227.4" y="13.3" width="0.5" height="15.7"/>
<g>
	<path d="M227.5,13.4c0-1.8,2.5-3.5,4.5-3.5c1.3,0,2.3,0.7,2.3,1.7c0,1.7-2.5,3.5-4.6,3.5C228.5,15.1,227.5,14.5,227.5,13.4z"/>
</g>
<rect x="240.2" y="12.1" width="10.5" height="0.8"/>
<rect x="242" y="10.8" width="0.5" height="16.4"/>
<g>
	<path d="M242.1,10.9c0-1.8,2.5-3.5,4.5-3.5c1.3,0,2.3,0.7,2.3,1.7c0,1.7-2.5,3.5-4.6,3.5C243,12.6,242.1,12,242.1,10.9z"/>
</g>
<rect x="254.8" y="12.1" width="10.5" height="0.8"/>
<rect x="254.8" y="7.2" width="10.5" height="0.8"/>
<rect x="256.6" y="8.3" width="0.5" height="20.2"/>
<g>
	<path d="M256.6,8.4c0-1.8,2.5-3.5,4.5-3.5c1.3,0,2.3,0.7,2.3,1.7c0,1.7-2.5,3.5-4.6,3.5C257.6,10.1,256.6,9.5,256.6,8.4z"/>
</g>
<rect x="269.2" y="12.1" width="10.5" height="0.8"/>
<rect x="269.2" y="7.2" width="10.5" height="0.8"/>
<rect x="271" y="5.9" width="0.5" height="22.3"/>
<g>
	<path d="M271.1,5.9c0-1.8,2.5-3.5,4.5-3.5c1.3,0,2.3,0.7,2.3,1.7c0,1.7-2.5,3.5-4.6,3.5C272,7.7,271.1,7,271.1,5.9z"/>
</g>
<rect x="283.8" y="12.1" width="10.5" height="0.8"/>
<rect x="283.8" y="7.2" width="10.5" height="0.8"/>
<rect x="283.8" y="2.2" width="10.5" height="0.8"/>
<rect x="285.5" y="3.4" width="0.5" height="24.3"/>
<g>
	<path d="M285.6,3.5c0-1.8,2.5-3.5,4.5-3.5c1.3,0,2.3,0.7,2.3,1.7c0,1.7-2.5,3.5-4.6,3.5C286.6,5.2,285.6,4.5,285.6,3.5z"/>
</g>
<rect x="298.3" y="12.1" width="10.5" height="0.8"/>
<rect x="298.3" y="7.2" width="10.5" height="0.8"/>
<rect x="300.1" y="5.9" width="0.5" height="21.4"/>
<g>
	<path d="M300.2,5.9c0-1.8,2.5-3.5,4.5-3.5c1.3,0,2.3,0.7,2.3,1.7c0,1.7-2.5,3.5-4.6,3.5C301.2,7.7,300.2,7,300.2,5.9z"/>
</g>
<rect x="312.8" y="12.1" width="10.5" height="0.8"/>
<rect x="312.8" y="7.2" width="10.5" height="0.8"/>
<rect x="314.5" y="8.3" width="0.5" height="18.9"/>
<g>
	<path d="M314.6,8.4c0-1.8,2.5-3.5,4.5-3.5c1.3,0,2.3,0.7,2.3,1.7c0,1.7-2.5,3.5-4.6,3.5C315.6,10.1,314.6,9.5,314.6,8.4z"/>
</g>
<rect x="327.3" y="12.1" width="10.5" height="0.8"/>
<rect x="329.1" y="10.8" width="0.5" height="18"/>
<g>
	<path d="M329.2,10.9c0-1.8,2.5-3.5,4.5-3.5c1.3,0,2.3,0.7,2.3,1.7c0,1.7-2.5,3.5-4.6,3.5C330.2,12.6,329.2,12,329.2,10.9z"/>
</g>
<rect x="341.9" y="12.1" width="10.5" height="0.8"/>
<rect x="343.7" y="13.3" width="0.5" height="17.2"/>
<g>
	<path d="M343.8,13.4c0-1.8,2.5-3.5,4.5-3.5c1.3,0,2.3,0.7,2.3,1.7c0,1.7-2.5,3.5-4.6,3.5C344.7,15.1,343.8,14.5,343.8,13.4z"/>
</g>
<rect x="358.1" y="15.8" width="0.5" height="16.4"/>
<g>
	<path d="M358.2,15.9c0-1.8,2.5-3.5,4.5-3.5c1.3,0,2.3,0.7,2.3,1.7c0,1.7-2.5,3.5-4.6,3.5C359.1,17.6,358.2,16.9,358.2,15.9z"/>
</g>
<rect x="384.4" y="18.3" width="0.5" height="18.9"/>
<g>
	<path d="M384.5,18.3c0-1.8,2.5-3.5,4.5-3.5c1.3,0,2.3,0.7,2.3,1.7c0,1.7-2.5,3.5-4.6,3.5C385.5,20.1,384.5,19.4,384.5,18.3z"/>
</g>
<rect x="399" y="20.7" width="0.5" height="18"/>
<g>
	<path d="M399.1,20.8c0-1.8,2.5-3.5,4.5-3.5c1.3,0,2.3,0.7,2.3,1.7c0,1.7-2.5,3.5-4.6,3.5C400.1,22.5,399.1,21.9,399.1,20.8z"/>
</g>
<rect x="413.6" y="23.2" width="0.5" height="17.2"/>
<g>
	<path d="M413.7,23.3c0-1.8,2.5-3.5,4.5-3.5c1.3,0,2.3,0.7,2.3,1.7c0,1.7-2.5,3.5-4.6,3.5C414.6,25,413.7,24.4,413.7,23.3z"/>
</g>
<rect x="428" y="25.7" width="0.5" height="16.4"/>
<g>
	<path d="M428.1,25.8c0-1.8,2.5-3.5,4.5-3.5c1.3,0,2.3,0.7,2.3,1.7c0,1.7-2.5,3.5-4.6,3.5C429.1,27.5,428.1,26.9,428.1,25.8z"/>
</g>
<rect x="449.1" y="12.7" width="0.5" height="14"/>
<g>
	<path d="M442.7,28.3c0-1.8,2.5-3.5,4.5-3.5c1.3,0,2.3,0.7,2.3,1.7c0,1.7-2.5,3.5-4.6,3.5C443.6,30,442.7,29.3,442.7,28.3z"/>
</g>
<rect x="463.7" y="14.2" width="0.5" height="14.9"/>
<g>
	<path d="M457.2,30.7c0-1.8,2.5-3.5,4.5-3.5c1.3,0,2.3,0.7,2.3,1.7c0,1.7-2.5,3.5-4.6,3.5C458.2,32.5,457.2,31.8,457.2,30.7z"/>
</g>
<rect x="478.2" y="15.9" width="0.5" height="15.7"/>
<g>
	<path d="M471.8,33.2c0-1.8,2.5-3.5,4.5-3.5c1.3,0,2.3,0.7,2.3,1.7c0,1.7-2.5,3.5-4.6,3.5C472.8,34.9,471.8,34.3,471.8,33.2z"/>
</g>
<rect x="492.6" y="17.6" width="0.5" height="16.4"/>
<g>
	<path d="M486.2,35.7c0-1.8,2.5-3.5,4.5-3.5c1.3,0,2.3,0.7,2.3,1.7c0,1.7-2.5,3.5-4.6,3.5C487.2,37.4,486.2,36.8,486.2,35.7z"/>
</g>
<rect x="507.4" y="20" width="0.5" height="16.6"/>
<g>
	<path d="M505.1,34.6c1.6,0,2.7,0.7,2.7,2c0,1.9-2.3,3.4-4.5,3.4c-1.3,0-2.4-0.7-2.4-1.8C500.8,36.4,503,34.6,505.1,34.6z
		 M501.2,38.5c0,0.6,0.4,0.9,1.1,0.9c1.4,0,4.9-2.1,4.9-3.3c0-0.6-0.4-0.9-1.1-0.9C504.9,35.2,501.2,37.2,501.2,38.5z"/>
</g>
<rect x="70.4" y="72.8" width="0.5" height="16.4"/>
<g>
	<path d="M70.5,72.9c0-1.8,2.5-3.5,4.5-3.5c1.3,0,2.3,0.7,2.3,1.7c0,1.7-2.5,3.5-4.6,3.5C71.4,74.6,70.5,74,70.5,72.9z"/>
</g>
<rect x="85" y="70.3" width="0.5" height="17.4"/>
<g>
	<path d="M85,70.4c0-1.8,2.5-3.5,4.5-3.5c1.3,0,2.3,0.7,2.3,1.7c0,1.7-2.5,3.5-4.6,3.5C86,72.1,85,71.5,85,70.4z"/>
</g>
<rect x="99.4" y="67.9" width="0.5" height="18.1"/>
<g>
	<path d="M99.5,67.9c0-1.8,2.5-3.5,4.5-3.5c1.3,0,2.3,0.7,2.3,1.7c0,1.7-2.5,3.5-4.6,3.5C100.4,69.7,99.5,69,99.5,67.9z"/>
</g>
<rect x="113.9" y="65.4" width="0.5" height="18.9"/>
<g>
	<path d="M114,65.5c0-1.8,2.5-3.5,4.5-3.5c1.3,0,2.3,0.7,2.3,1.7c0,1.7-2.5,3.5-4.6,3.5C115,67.2,114,66.5,114,65.5z"/>
</g>
<rect x="128.5" y="62.9" width="0.5" height="16.4"/>
<g>
	<path d="M128.6,63c0-1.8,2.5-3.5,4.5-3.5c1.3,0,2.3,0.7,2.3,1.7c0,1.7-2.5,3.5-4.6,3.5C129.6,64.7,128.6,64.1,128.6,63z"/>
</g>
<rect x="141.2" y="59.3" width="10.5" height="0.8"/>
<rect x="142.9" y="60.4" width="0.5" height="17.4"/>
<g>
	<path d="M143,60.5c0-1.8,2.5-3.5,4.5-3.5c1.3,0,2.3,0.7,2.3,1.7c0,1.7-2.5,3.5-4.6,3.5C144,62.2,143,61.6,143,60.5z"/>
</g>
<rect x="155.7" y="59.3" width="10.5" height="0.8"/>
<rect x="157.5" y="57.9" width="0.5" height="18.1"/>
<g>
	<path d="M157.6,58c0-1.8,2.5-3.5,4.5-3.5c1.3,0,2.3,0.7,2.3,1.7c0,1.7-2.5,3.5-4.6,3.5C158.6,59.7,157.6,59.1,157.6,58z"/>
</g>
<rect x="170.3" y="59.3" width="10.5" height="0.8"/>
<rect x="170.3" y="54.3" width="10.5" height="0.8"/>
<rect x="172.1" y="55.5" width="0.5" height="18.9"/>
<g>
	<path d="M172.2,55.5c0-1.8,2.5-3.5,4.5-3.5c1.3,0,2.3,0.7,2.3,1.7c0,1.7-2.5,3.5-4.6,3.5C173.1,57.3,172.2,56.6,172.2,55.5z"/>
</g>
<rect x="204.9" y="64.8" width="0.5" height="16.4"/>
<g>
	<path d="M198.5,82.8c0-1.8,2.5-3.5,4.5-3.5c1.3,0,2.3,0.7,2.3,1.7c0,1.7-2.5,3.5-4.6,3.5C199.5,84.5,198.5,83.9,198.5,82.8z"/>
</g>
<rect x="219.5" y="63.2" width="0.5" height="15.5"/>
<g>
	<path d="M213.1,80.3c0-1.8,2.5-3.5,4.5-3.5c1.3,0,2.3,0.7,2.3,1.7c0,1.7-2.5,3.5-4.6,3.5C214.1,82.1,213.1,81.4,213.1,80.3z"/>
</g>
<rect x="233.9" y="61.5" width="0.5" height="14.7"/>
<g>
	<path d="M227.5,77.9c0-1.8,2.5-3.5,4.5-3.5c1.3,0,2.3,0.7,2.3,1.7c0,1.7-2.5,3.5-4.6,3.5C228.5,79.6,227.5,78.9,227.5,77.9z"/>
</g>
<rect x="248.5" y="59.8" width="0.5" height="14"/>
<g>
	<path d="M242.1,75.4c0-1.8,2.5-3.5,4.5-3.5c1.3,0,2.3,0.7,2.3,1.7c0,1.7-2.5,3.5-4.6,3.5C243,77.1,242.1,76.5,242.1,75.4z"/>
</g>
<rect x="256.6" y="72.8" width="0.5" height="17.7"/>
<g>
	<path d="M256.6,72.9c0-1.8,2.5-3.5,4.5-3.5c1.3,0,2.3,0.7,2.3,1.7c0,1.7-2.5,3.5-4.6,3.5C257.6,74.6,256.6,74,256.6,72.9z"/>
</g>
<rect x="271" y="70.3" width="0.5" height="19.8"/>
<g>
	<path d="M271.1,70.4c0-1.8,2.5-3.5,4.5-3.5c1.3,0,2.3,0.7,2.3,1.7c0,1.7-2.5,3.5-4.6,3.5C272,72.1,271.1,71.5,271.1,70.4z"/>
</g>
<rect x="285.5" y="67.9" width="0.5" height="21.9"/>
<g>
	<path d="M285.6,67.9c0-1.8,2.5-3.5,4.5-3.5c1.3,0,2.3,0.7,2.3,1.7c0,1.7-2.5,3.5-4.6,3.5C286.6,69.7,285.6,69,285.6,67.9z"/>
</g>
<rect x="300.1" y="70.3" width="0.5" height="18.9"/>
<g>
	<path d="M300.2,70.4c0-1.8,2.5-3.5,4.5-3.5c1.3,0,2.3,0.7,2.3,1.7c0,1.7-2.5,3.5-4.6,3.5C301.2,72.1,300.2,71.5,300.2,70.4z"/>
</g>
<rect x="321" y="54.8" width="0.5" height="16.4"/>
<g>
	<path d="M314.6,72.9c0-1.8,2.5-3.5,4.5-3.5c1.3,0,2.3,0.7,2.3,1.7c0,1.7-2.5,3.5-4.6,3.5C315.6,74.6,314.6,74,314.6,72.9z"/>
</g>
<rect x="335.6" y="56.4" width="0.5" height="17.4"/>
<g>
	<path d="M329.2,75.4c0-1.8,2.5-3.5,4.5-3.5c1.3,0,2.3,0.7,2.3,1.7c0,1.7-2.5,3.5-4.6,3.5C330.2,77.1,329.2,76.5,329.2,75.4z"/>
</g>
<rect x="350.2" y="58.1" width="0.5" height="18.1"/>
<g>
	<path d="M343.8,77.9c0-1.8,2.5-3.5,4.5-3.5c1.3,0,2.3,0.7,2.3,1.7c0,1.7-2.5,3.5-4.6,3.5C344.7,79.6,343.8,78.9,343.8,77.9z"/>
</g>
<rect x="364.6" y="59.8" width="0.5" height="18.9"/>
<g>
	<path d="M358.2,80.3c0-1.8,2.5-3.5,4.5-3.5c1.3,0,2.3,0.7,2.3,1.7c0,1.7-2.5,3.5-4.6,3.5C359.1,82.1,358.2,81.4,358.2,80.3z"/>
</g>
<rect x="382.7" y="59.3" width="10.5" height="0.8"/>
<rect x="382.7" y="54.3" width="10.5" height="0.8"/>
<rect x="384.4" y="53" width="0.5" height="21.4"/>
<g>
	<path d="M384.5,53.1c0-1.8,2.5-3.5,4.5-3.5c1.3,0,2.3,0.7,2.3,1.7c0,1.7-2.5,3.5-4.6,3.5C385.5,54.8,384.5,54.1,384.5,53.1z"/>
</g>
<rect x="397.2" y="59.3" width="10.5" height="0.8"/>
<rect x="397.2" y="54.3" width="10.5" height="0.8"/>
<rect x="399" y="55.5" width="0.5" height="19.2"/>
<g>
	<path d="M399.1,55.5c0-1.8,2.5-3.5,4.5-3.5c1.3,0,2.3,0.7,2.3,1.7c0,1.7-2.5,3.5-4.6,3.5C400.1,57.3,399.1,56.6,399.1,55.5z"/>
</g>
<rect x="411.8" y="59.3" width="10.5" height="0.8"/>
<rect x="413.6" y="57.9" width="0.5" height="17.2"/>
<g>
	<path d="M413.7,58c0-1.8,2.5-3.5,4.5-3.5c1.3,0,2.3,0.7,2.3,1.7c0,1.7-2.5,3.5-4.6,3.5C414.6,59.7,413.7,59.1,413.7,58z"/>
</g>
<rect x="426.2" y="59.3" width="10.5" height="0.8"/>
<rect x="428" y="60.4" width="0.5" height="15.2"/>
<g>
	<path d="M428.1,60.5c0-1.8,2.5-3.5,4.5-3.5c1.3,0,2.3,0.7,2.3,1.7c0,1.7-2.5,3.5-4.6,3.5C429.1,62.2,428.1,61.6,428.1,60.5z"/>
</g>
<rect x="442.6" y="62.9" width="0.5" height="16.4"/>
<g>
	<path d="M442.7,63c0-1.8,2.5-3.5,4.5-3.5c1.3,0,2.3,0.7,2.3,1.7c0,1.7-2.5,3.5-4.6,3.5C443.6,64.7,442.7,64.1,442.7,63z"/>
</g>
<rect x="457.2" y="65.4" width="0.5" height="15.5"/>
<g>
	<path d="M457.2,65.5c0-1.8,2.5-3.5,4.5-3.5c1.3,0,2.3,0.7,2.3,1.7c0,1.7-2.5,3.5-4.6,3.5C458.2,67.2,457.2,66.5,457.2,65.5z"/>
</g>
<rect x="471.7" y="67.9" width="0.5" height="14.7"/>
<g>
	<path d="M471.8,67.9c0-1.8,2.5-3.5,4.5-3.5c1.3,0,2.3,0.7,2.3,1.7c0,1.7-2.5,3.5-4.6,3.5C472.8,69.7,471.8,69,471.8,67.9z"/>
</g>
<rect x="486.1" y="70.3" width="0.5" height="14"/>
<g>
	<path d="M486.2,70.4c0-1.8,2.5-3.5,4.5-3.5c1.3,0,2.3,0.7,2.3,1.7c0,1.7-2.5,3.5-4.6,3.5C487.2,72.1,486.2,71.5,486.2,70.4z"/>
</g>
<rect x="500.7" y="72.8" width="0.5" height="16.6"/>
<g>
	<path d="M505.1,69.3c1.6,0,2.7,0.7,2.7,2c0,1.9-2.3,3.4-4.5,3.4c-1.3,0-2.4-0.7-2.4-1.8C500.8,71.1,503,69.3,505.1,69.3z
		 M501.2,73.2c0,0.6,0.4,0.9,1.1,0.9c1.4,0,4.9-2.1,4.9-3.3c0-0.6-0.4-0.9-1.1-0.9C504.9,69.9,501.2,72,501.2,73.2z"/>
</g>
</svg>
