<?xml version="1.0" encoding="utf-8"?>

<!--
	ScaleBook
	Copyright (c) Leland Jansen 2015. All rights reserved.
-->

<!DOCTYPE svg PUBLIC "-//W3C//DTD SVG 1.1//EN" "http://www.w3.org/Graphics/SVG/1.1/DTD/svg11.dtd">
<svg version="1.1" id="Layer_1" xmlns="http://www.w3.org/2000/svg" xmlns:xlink="http://www.w3.org/1999/xlink" x="0px" y="0px"
	 viewBox="0 0 552.9 86.6" enable-background="new 0 0 552.9 86.6" xml:space="preserve">
<rect x="8.4" y="9.9" width="0.8" height="67"/>
<g>
	<path d="M7.4,10.6c-1.9,1.1-3.6,5.8-3.6,9.4c0,2.3,1.4,9.9,1.4,12.3c0,5-1.5,8.6-4.6,11.1c3,2.4,4.6,6.1,4.6,11.1
		c0,2.3-1.4,9.9-1.4,12.3c0,3.8,1.7,8.4,3.6,9.5v0.7c-3.5-2.3-5.8-8.2-5.8-13.1c0-2.1,1.7-9.4,1.7-11.5c0-3.8-1-6.6-2.9-8.2
		C0.1,43.8,0,43.6,0,43.4c0-0.2,0.1-0.4,0.5-0.7c1.9-1.7,2.9-4.2,2.9-7.6c0-2.1-1.7-10-1.7-12.2c0-5.2,2.1-10.4,5.8-13.1V10.6z"/>
</g>
<rect x="547.8" y="9.9" width="0.8" height="67"/>
<rect x="550.4" y="9.9" width="2.5" height="67"/>
<rect x="8.5" y="29.5" width="544.4" height="0.5"/>
<rect x="8.5" y="24.6" width="544.4" height="0.5"/>
<rect x="8.5" y="19.6" width="544.4" height="0.5"/>
<rect x="8.5" y="14.6" width="544.4" height="0.5"/>
<rect x="8.5" y="9.7" width="544.4" height="0.5"/>
<g>
	<path d="M20.3,29.6c-4.2,0-8.1-3.1-8.1-6.9c0-3.2,2.3-6.7,6.8-10.5c-0.3-1.2-0.4-2.4-0.4-3.6c0-3.5,1.2-6.8,3.2-8.5
		c1.8,2.5,2.7,4.9,2.7,7.1c0,2.9-1.3,5.6-4.3,8.1l0.9,4.2c0.5,0,0.8-0.1,0.8-0.1c2.6,0,4.8,2,4.8,4.7c0,1.9-1.4,3.7-3.6,4.8
		c0-0.1,0.9,3.8,0.9,4.3c0,2.5-2.3,4.2-4.9,4.2c-2,0-3.6-1.3-3.6-3.4c0-1.4,1-2.6,2.4-2.6c1.3,0,2.3,1.3,2.3,2.5
		c0,1.4-1.2,2.3-2.7,2.5c0.6,0.3,1.2,0.5,1.9,0.5c2.1,0,4.1-1.6,4.1-3.6c0-0.2,0-0.4-0.1-0.6l-0.8-3.7
		C21.9,29.5,21.2,29.6,20.3,29.6z M18.1,24.4c0,1,0.5,1.9,1.6,2.5c-1.8-0.3-3-1.4-3-3.1c0-2,1.7-3.7,3.8-4.1l-0.8-4
		C16,18.5,14,21.2,14,23.8c0,2.9,2.8,5.3,6,5.3c0.9,0,1.7-0.2,2.4-0.5L21,21.8C19.4,22,18.1,23,18.1,24.4z M22.1,3
		c-1.6,0-2.9,3.7-2.9,7c0,0.7,0,1.3,0.2,1.9c2.7-2.4,4-4.5,4-6.5c0-0.9-0.3-1.7-1-2.4C22.4,3.1,22.3,3,22.1,3z M24.9,24.9
		c0-1.6-1.2-3.3-2.9-3.3c-0.1,0-0.2,0-0.5,0l1.4,6.6C24.2,27.4,24.9,26.2,24.9,24.9z"/>
</g>
<g>
	<path d="M33.5,3.1v2.8l1-0.3v1.8l-1,0.3v3.4l1-0.3v1.8l-1,0.3v3.1H33v-3l-1.9,0.6v3h-0.5v-2.8l-1,0.3v-1.8l1-0.3V8.7l-1,0.3V7.2
		l1-0.3V3.7h0.5v3L33,6.1v-3H33.5z M33,7.9l-1.9,0.6v3.4l1.9-0.6V7.9z"/>
</g>
<g>
	<path d="M39.7,10.5v2.8l1-0.3v1.8l-1,0.3v3.4l1-0.3v1.8l-1,0.3v3.1h-0.5v-3l-1.9,0.6v3h-0.5v-2.8l-1,0.3v-1.8l1-0.3v-3.4l-1,0.3
		v-1.8l1-0.3v-3.1h0.5v3l1.9-0.6v-3H39.7z M39.2,15.3L37.3,16v3.4l1.9-0.6V15.3z"/>
</g>
<g>
	<path d="M45.9,0.6v2.8l1-0.3v1.8l-1,0.3v3.4l1-0.3v1.8l-1,0.3v3.1h-0.5v-3l-1.9,0.6v3H43v-2.8l-1,0.3V9.9l1-0.3V6.2l-1,0.3V4.7
		l1-0.3V1.3h0.5v3l1.9-0.6v-3H45.9z M45.4,5.4L43.5,6v3.4l1.9-0.6V5.4z"/>
</g>
<polygon fill-rule="evenodd" clip-rule="evenodd" points="62.2,26 109.5,24.8 109.5,22.3 62.2,23.6 "/>
<polygon fill-rule="evenodd" clip-rule="evenodd" points="62.2,22.3 109.5,21.1 109.5,18.6 62.2,19.8 "/>
<polygon fill-rule="evenodd" clip-rule="evenodd" points="125.3,21.1 172.6,16.1 172.6,13.6 125.3,18.6 "/>
<polygon fill-rule="evenodd" clip-rule="evenodd" points="125.3,17.4 172.6,12.4 172.6,9.9 125.3,14.9 "/>
<polygon fill-rule="evenodd" clip-rule="evenodd" points="188.4,11.2 235.7,6.2 235.7,3.7 188.4,8.7 "/>
<polygon fill-rule="evenodd" clip-rule="evenodd" points="188.4,7.4 235.7,2.5 235.7,0 188.4,5 "/>
<polygon fill-rule="evenodd" clip-rule="evenodd" points="244.9,27.3 292.1,26 292.1,23.6 244.9,24.8 "/>
<polygon fill-rule="evenodd" clip-rule="evenodd" points="244.9,31 292.1,29.8 292.1,27.3 244.9,28.5 "/>
<polygon fill-rule="evenodd" clip-rule="evenodd" points="307.9,31 355.2,36 355.2,33.5 307.9,28.5 "/>
<polygon fill-rule="evenodd" clip-rule="evenodd" points="307.9,34.7 355.2,39.7 355.2,37.2 307.9,32.2 "/>
<polygon fill-rule="evenodd" clip-rule="evenodd" points="377.6,16.1 424.8,21.1 424.8,18.6 377.6,13.6 "/>
<polygon fill-rule="evenodd" clip-rule="evenodd" points="377.6,12.4 424.8,17.4 424.8,14.9 377.6,9.9 "/>
<polygon fill-rule="evenodd" clip-rule="evenodd" points="440.6,24.8 487.9,26 487.9,23.6 440.6,22.3 "/>
<polygon fill-rule="evenodd" clip-rule="evenodd" points="440.6,21.1 487.9,22.3 487.9,19.8 440.6,18.6 "/>
<rect x="8.5" y="76.7" width="544.4" height="0.5"/>
<rect x="8.5" y="71.7" width="544.4" height="0.5"/>
<rect x="8.5" y="66.7" width="544.4" height="0.5"/>
<rect x="8.5" y="61.8" width="544.4" height="0.5"/>
<rect x="8.5" y="56.8" width="544.4" height="0.5"/>
<g>
	<path d="M15.7,71.2c2.9-2.6,4.7-6.1,4.7-9.2c0-2.5-1.4-4.4-3.7-4.4c-1.6,0-3.4,1.3-3.4,2.7c0,0.2,0,0.3,0.1,0.3
		c-0.1,0,0.6-0.6,1.4-0.6c0.9,0,1.5,0.8,1.5,1.7c0,1.2-0.9,2.2-2.1,2.2c-1.2,0-2.1-1.3-2.1-2.8c0-2.3,2.3-4.1,4.8-4.1
		c4.7,0,5.9,3.2,5.9,5.8c0,1.6-0.4,2.9-2,5.3c-1.9,3.1-6.4,5.3-8.1,5.3c-0.4,0-0.6-0.2-0.6-0.5C13.8,72.5,14.9,71.9,15.7,71.2z
		 M25.7,58.5c0.6,0,1,0.4,1,1c0,0.6-0.4,1-1,1s-1-0.4-1-1C24.7,59,25.1,58.5,25.7,58.5z M25.7,63.5c0.6,0,1,0.4,1,1c0,0.6-0.4,1-1,1
		s-1-0.4-1-1C24.7,63.9,25.1,63.5,25.7,63.5z"/>
</g>
<g>
	<path d="M33.5,55.2V58l1-0.3v1.8l-1,0.3v3.4l1-0.3v1.8l-1,0.3v3.1H33v-3l-1.9,0.6v3h-0.5V66l-1,0.3v-1.8l1-0.3v-3.4l-1,0.3v-1.8
		l1-0.3v-3.1h0.5v3l1.9-0.6v-3H33.5z M33,60l-1.9,0.6V64l1.9-0.6V60z"/>
</g>
<g>
	<path d="M39.7,62.6v2.8l1-0.3v1.8l-1,0.3v3.4l1-0.3v1.8l-1,0.3v3.1h-0.5v-3l-1.9,0.6v3h-0.5v-2.8l-1,0.3v-1.8l1-0.3v-3.4l-1,0.3
		v-1.8l1-0.3v-3.1h0.5v3l1.9-0.6v-3H39.7z M39.2,67.4L37.3,68v3.4l1.9-0.6V67.4z"/>
</g>
<g>
	<path d="M45.9,52.7v2.8l1-0.3V57l-1,0.3v3.4l1-0.3v1.8l-1,0.3v3.1h-0.5v-3l-1.9,0.6v3H43v-2.8l-1,0.3V62l1-0.3v-3.4l-1,0.3v-1.8
		l1-0.3v-3.1h0.5v3l1.9-0.6v-3H45.9z M45.4,57.5l-1.9,0.6v3.4l1.9-0.6V57.5z"/>
</g>
<polygon fill-rule="evenodd" clip-rule="evenodd" points="62.2,68.2 109.5,63.2 109.5,60.8 62.2,65.7 "/>
<polygon fill-rule="evenodd" clip-rule="evenodd" points="62.2,64.5 109.5,59.5 109.5,57 62.2,62 "/>
<polygon fill-rule="evenodd" clip-rule="evenodd" points="118.8,83.1 166.1,78.1 166.1,75.6 118.8,80.6 "/>
<polygon fill-rule="evenodd" clip-rule="evenodd" points="118.8,86.8 166.1,81.8 166.1,79.4 118.8,84.3 "/>
<polygon fill-rule="evenodd" clip-rule="evenodd" points="181.9,73.2 229.2,68.2 229.2,65.7 181.9,70.7 "/>
<polygon fill-rule="evenodd" clip-rule="evenodd" points="181.9,76.9 229.2,71.9 229.2,69.4 181.9,74.4 "/>
<polygon fill-rule="evenodd" clip-rule="evenodd" points="244.9,64.5 292.1,63.2 292.1,60.8 244.9,62 "/>
<polygon fill-rule="evenodd" clip-rule="evenodd" points="244.9,68.2 292.1,67 292.1,64.5 244.9,65.7 "/>
<polygon fill-rule="evenodd" clip-rule="evenodd" points="307.9,63.2 355.2,68.2 355.2,65.7 307.9,60.8 "/>
<polygon fill-rule="evenodd" clip-rule="evenodd" points="307.9,67 355.2,71.9 355.2,69.4 307.9,64.5 "/>
<polygon fill-rule="evenodd" clip-rule="evenodd" points="371,73.2 418.3,78.1 418.3,75.6 371,70.7 "/>
<polygon fill-rule="evenodd" clip-rule="evenodd" points="371,76.9 418.3,81.8 418.3,79.4 371,74.4 "/>
<polygon fill-rule="evenodd" clip-rule="evenodd" points="440.6,58.3 487.9,63.2 487.9,60.8 440.6,55.8 "/>
<polygon fill-rule="evenodd" clip-rule="evenodd" points="440.6,54.6 487.9,59.5 487.9,57 440.6,52.1 "/>
<rect x="53.7" y="34.3" width="10.5" height="0.8"/>
<rect x="53.7" y="39.3" width="10.5" height="0.8"/>
<rect x="53.7" y="44.3" width="10.5" height="0.8"/>
<rect x="62" y="20" width="0.5" height="23.9"/>
<g>
	<path d="M55.6,45.5c0-1.8,2.5-3.5,4.5-3.5c1.3,0,2.3,0.7,2.3,1.7c0,1.7-2.5,3.5-4.6,3.5C56.6,47.2,55.6,46.6,55.6,45.5z"/>
</g>
<rect x="69.5" y="34.3" width="10.5" height="0.8"/>
<rect x="69.5" y="39.3" width="10.5" height="0.8"/>
<rect x="77.8" y="19.7" width="0.5" height="21.7"/>
<g>
	<path d="M71.4,43c0-1.8,2.5-3.5,4.5-3.5c1.3,0,2.3,0.7,2.3,1.7c0,1.7-2.5,3.5-4.6,3.5C72.4,44.7,71.4,44.1,71.4,43z"/>
</g>
<rect x="85.2" y="34.3" width="10.5" height="0.8"/>
<rect x="85.2" y="39.3" width="10.5" height="0.8"/>
<rect x="93.5" y="19.2" width="0.5" height="19.7"/>
<g>
	<path d="M87.1,40.5c0-1.8,2.5-3.5,4.5-3.5c1.3,0,2.3,0.7,2.3,1.7c0,1.7-2.5,3.5-4.6,3.5C88,42.3,87.1,41.6,87.1,40.5z"/>
</g>
<rect x="101" y="34.3" width="10.5" height="0.8"/>
<rect x="109.3" y="18.8" width="0.5" height="17.7"/>
<g>
	<path d="M102.9,38.1c0-1.8,2.5-3.5,4.5-3.5c1.3,0,2.3,0.7,2.3,1.7c0,1.7-2.5,3.5-4.6,3.5C103.8,39.8,102.9,39.1,102.9,38.1z"/>
</g>
<rect x="116.8" y="34.3" width="10.5" height="0.8"/>
<rect x="125.1" y="15" width="0.5" height="18.9"/>
<g>
	<path d="M118.7,35.6c0-1.8,2.5-3.5,4.5-3.5c1.3,0,2.3,0.7,2.3,1.7c0,1.7-2.5,3.5-4.6,3.5C119.6,37.3,118.7,36.7,118.7,35.6z"/>
</g>
<rect x="140.8" y="13.5" width="0.5" height="18"/>
<g>
	<path d="M134.3,33.1c0-1.8,2.5-3.5,4.5-3.5c1.3,0,2.3,0.7,2.3,1.7c0,1.7-2.5,3.5-4.6,3.5C135.3,34.8,134.3,34.2,134.3,33.1z"/>
</g>
<rect x="156.6" y="11.8" width="0.5" height="17.2"/>
<g>
	<path d="M150.1,30.6c0-1.8,2.5-3.5,4.5-3.5c1.3,0,2.3,0.7,2.3,1.7c0,1.7-2.5,3.5-4.6,3.5C151.1,32.3,150.1,31.7,150.1,30.6z"/>
</g>
<rect x="172.4" y="10.1" width="0.5" height="16.4"/>
<g>
	<path d="M166,28.1c0-1.8,2.5-3.5,4.5-3.5c1.3,0,2.3,0.7,2.3,1.7c0,1.7-2.5,3.5-4.6,3.5C166.9,29.9,166,29.2,166,28.1z"/>
</g>
<rect x="188.2" y="5.1" width="0.5" height="18.9"/>
<g>
	<path d="M181.8,25.7c0-1.8,2.5-3.5,4.5-3.5c1.3,0,2.3,0.7,2.3,1.7c0,1.7-2.5,3.5-4.6,3.5C182.7,27.4,181.8,26.7,181.8,25.7z"/>
</g>
<rect x="203.9" y="3.6" width="0.5" height="18"/>
<g>
	<path d="M197.4,23.2c0-1.8,2.5-3.5,4.5-3.5c1.3,0,2.3,0.7,2.3,1.7c0,1.7-2.5,3.5-4.6,3.5C198.4,24.9,197.4,24.3,197.4,23.2z"/>
</g>
<rect x="219.7" y="1.9" width="0.5" height="17.2"/>
<g>
	<path d="M213.2,20.7c0-1.8,2.5-3.5,4.5-3.5c1.3,0,2.3,0.7,2.3,1.7c0,1.7-2.5,3.5-4.6,3.5C214.2,22.4,213.2,21.8,213.2,20.7z"/>
</g>
<rect x="235.5" y="0.2" width="0.5" height="16.4"/>
<g>
	<path d="M229,18.2c0-1.8,2.5-3.5,4.5-3.5c1.3,0,2.3,0.7,2.3,1.7c0,1.7-2.5,3.5-4.6,3.5C230,19.9,229,19.3,229,18.2z"/>
</g>
<rect x="244.6" y="15.7" width="0.5" height="15.2"/>
<g>
	<path d="M244.7,15.7c0-1.8,2.5-3.5,4.5-3.5c1.3,0,2.3,0.7,2.3,1.7c0,1.7-2.5,3.5-4.6,3.5C245.7,17.5,244.7,16.8,244.7,15.7z"/>
</g>
<rect x="260.4" y="13.2" width="0.5" height="17.4"/>
<g>
	<path d="M260.5,13.3c0-1.8,2.5-3.5,4.5-3.5c1.3,0,2.3,0.7,2.3,1.7c0,1.7-2.5,3.5-4.6,3.5C261.5,15,260.5,14.3,260.5,13.3z"/>
</g>
<rect x="276.2" y="10.7" width="0.5" height="19.4"/>
<g>
	<path d="M276.3,10.8c0-1.8,2.5-3.5,4.5-3.5c1.3,0,2.3,0.7,2.3,1.7c0,1.7-2.5,3.5-4.6,3.5C277.3,12.5,276.3,11.9,276.3,10.8z"/>
</g>
<rect x="291.9" y="13.2" width="0.5" height="16.4"/>
<g>
	<path d="M292,13.3c0-1.8,2.5-3.5,4.5-3.5c1.3,0,2.3,0.7,2.3,1.7c0,1.7-2.5,3.5-4.6,3.5C293,15,292,14.3,292,13.3z"/>
</g>
<rect x="307.7" y="15.7" width="0.5" height="18.9"/>
<g>
	<path d="M307.8,15.7c0-1.8,2.5-3.5,4.5-3.5c1.3,0,2.3,0.7,2.3,1.7c0,1.7-2.5,3.5-4.6,3.5C308.8,17.5,307.8,16.8,307.8,15.7z"/>
</g>
<rect x="323.5" y="18.1" width="0.5" height="18"/>
<g>
	<path d="M323.6,18.2c0-1.8,2.5-3.5,4.5-3.5c1.3,0,2.3,0.7,2.3,1.7c0,1.7-2.5,3.5-4.6,3.5C324.6,19.9,323.6,19.3,323.6,18.2z"/>
</g>
<rect x="339.2" y="20.6" width="0.5" height="17.2"/>
<g>
	<path d="M339.3,20.7c0-1.8,2.5-3.5,4.5-3.5c1.3,0,2.3,0.7,2.3,1.7c0,1.7-2.5,3.5-4.6,3.5C340.2,22.4,339.3,21.8,339.3,20.7z"/>
</g>
<rect x="355" y="23.1" width="0.5" height="16.4"/>
<g>
	<path d="M355.1,23.2c0-1.8,2.5-3.5,4.5-3.5c1.3,0,2.3,0.7,2.3,1.7c0,1.7-2.5,3.5-4.6,3.5C356,24.9,355.1,24.3,355.1,23.2z"/>
</g>
<rect x="377.3" y="10.1" width="0.5" height="14"/>
<g>
	<path d="M370.9,25.7c0-1.8,2.5-3.5,4.5-3.5c1.3,0,2.3,0.7,2.3,1.7c0,1.7-2.5,3.5-4.6,3.5C371.9,27.4,370.9,26.7,370.9,25.7z"/>
</g>
<rect x="393.1" y="11.6" width="0.5" height="14.9"/>
<g>
	<path d="M386.7,28.1c0-1.8,2.5-3.5,4.5-3.5c1.3,0,2.3,0.7,2.3,1.7c0,1.7-2.5,3.5-4.6,3.5C387.7,29.9,386.7,29.2,386.7,28.1z"/>
</g>
<rect x="408.8" y="13.3" width="0.5" height="15.7"/>
<g>
	<path d="M402.4,30.6c0-1.8,2.5-3.5,4.5-3.5c1.3,0,2.3,0.7,2.3,1.7c0,1.7-2.5,3.5-4.6,3.5C403.3,32.3,402.4,31.7,402.4,30.6z"/>
</g>
<rect x="424.6" y="15" width="0.5" height="16.4"/>
<g>
	<path d="M418.2,33.1c0-1.8,2.5-3.5,4.5-3.5c1.3,0,2.3,0.7,2.3,1.7c0,1.7-2.5,3.5-4.6,3.5C419.1,34.8,418.2,34.2,418.2,33.1z"/>
</g>
<rect x="432.1" y="34.3" width="10.5" height="0.8"/>
<rect x="440.4" y="18.8" width="0.5" height="15.2"/>
<g>
	<path d="M434,35.6c0-1.8,2.5-3.5,4.5-3.5c1.3,0,2.3,0.7,2.3,1.7c0,1.7-2.5,3.5-4.6,3.5C434.9,37.3,434,36.7,434,35.6z"/>
</g>
<rect x="447.8" y="34.3" width="10.5" height="0.8"/>
<rect x="456.1" y="19.1" width="0.5" height="17.4"/>
<g>
	<path d="M449.6,38.1c0-1.8,2.5-3.5,4.5-3.5c1.3,0,2.3,0.7,2.3,1.7c0,1.7-2.5,3.5-4.6,3.5C450.6,39.8,449.6,39.1,449.6,38.1z"/>
</g>
<rect x="463.6" y="34.3" width="10.5" height="0.8"/>
<rect x="463.6" y="39.3" width="10.5" height="0.8"/>
<rect x="471.9" y="19.5" width="0.5" height="19.4"/>
<g>
	<path d="M465.4,40.5c0-1.8,2.5-3.5,4.5-3.5c1.3,0,2.3,0.7,2.3,1.7c0,1.7-2.5,3.5-4.6,3.5C466.4,42.3,465.4,41.6,465.4,40.5z"/>
</g>
<rect x="479.4" y="34.3" width="10.5" height="0.8"/>
<rect x="479.4" y="39.3" width="10.5" height="0.8"/>
<rect x="487.7" y="20" width="0.5" height="21.4"/>
<g>
	<path d="M481.3,43c0-1.8,2.5-3.5,4.5-3.5c1.3,0,2.3,0.7,2.3,1.7c0,1.7-2.5,3.5-4.6,3.5C482.2,44.7,481.3,44.1,481.3,43z"/>
</g>
<rect x="495.1" y="34.3" width="10.7" height="0.8"/>
<rect x="495.1" y="39.3" width="10.7" height="0.8"/>
<rect x="495.1" y="44.3" width="10.7" height="0.8"/>
<rect x="503.5" y="19.8" width="0.5" height="24"/>
<g>
	<path d="M501.2,41.9c1.6,0,2.7,0.7,2.7,2c0,1.9-2.3,3.4-4.5,3.4c-1.3,0-2.4-0.7-2.4-1.8C496.9,43.7,499.2,41.9,501.2,41.9z
		 M497.4,45.8c0,0.6,0.4,0.9,1.1,0.9c1.4,0,4.9-2.1,4.9-3.3c0-0.6-0.4-0.9-1.1-0.9C501,42.5,497.4,44.6,497.4,45.8z"/>
</g>
<rect x="62" y="62.2" width="0.5" height="16.4"/>
<g>
	<path d="M55.6,80.2c0-1.8,2.5-3.5,4.5-3.5c1.3,0,2.3,0.7,2.3,1.7c0,1.7-2.5,3.5-4.6,3.5C56.6,81.9,55.6,81.3,55.6,80.2z"/>
</g>
<rect x="77.8" y="60.6" width="0.5" height="15.5"/>
<g>
	<path d="M71.4,77.7c0-1.8,2.5-3.5,4.5-3.5c1.3,0,2.3,0.7,2.3,1.7c0,1.7-2.5,3.5-4.6,3.5C72.4,79.5,71.4,78.8,71.4,77.7z"/>
</g>
<rect x="93.5" y="58.9" width="0.5" height="14.7"/>
<g>
	<path d="M87.1,75.3c0-1.8,2.5-3.5,4.5-3.5c1.3,0,2.3,0.7,2.3,1.7c0,1.7-2.5,3.5-4.6,3.5C88,77,87.1,76.3,87.1,75.3z"/>
</g>
<rect x="109.3" y="57.2" width="0.5" height="14"/>
<g>
	<path d="M102.9,72.8c0-1.8,2.5-3.5,4.5-3.5c1.3,0,2.3,0.7,2.3,1.7c0,1.7-2.5,3.5-4.6,3.5C103.8,74.5,102.9,73.9,102.9,72.8z"/>
</g>
<rect x="118.6" y="70.2" width="0.5" height="16.4"/>
<g>
	<path d="M118.7,70.3c0-1.8,2.5-3.5,4.5-3.5c1.3,0,2.3,0.7,2.3,1.7c0,1.7-2.5,3.5-4.6,3.5C119.6,72,118.7,71.4,118.7,70.3z"/>
</g>
<rect x="134.3" y="67.7" width="0.5" height="17.4"/>
<g>
	<path d="M134.3,67.8c0-1.8,2.5-3.5,4.5-3.5c1.3,0,2.3,0.7,2.3,1.7c0,1.7-2.5,3.5-4.6,3.5C135.3,69.5,134.3,68.9,134.3,67.8z"/>
</g>
<rect x="150.1" y="65.3" width="0.5" height="18.1"/>
<g>
	<path d="M150.1,65.3c0-1.8,2.5-3.5,4.5-3.5c1.3,0,2.3,0.7,2.3,1.7c0,1.7-2.5,3.5-4.6,3.5C151.1,67.1,150.1,66.4,150.1,65.3z"/>
</g>
<rect x="165.9" y="62.8" width="0.5" height="18.9"/>
<g>
	<path d="M166,62.9c0-1.8,2.5-3.5,4.5-3.5c1.3,0,2.3,0.7,2.3,1.7c0,1.7-2.5,3.5-4.6,3.5C166.9,64.6,166,63.9,166,62.9z"/>
</g>
<rect x="181.7" y="60.3" width="0.5" height="16.4"/>
<g>
	<path d="M181.8,60.4c0-1.8,2.5-3.5,4.5-3.5c1.3,0,2.3,0.7,2.3,1.7c0,1.7-2.5,3.5-4.6,3.5C182.7,62.1,181.8,61.5,181.8,60.4z"/>
</g>
<rect x="197.3" y="57.8" width="0.5" height="17.4"/>
<g>
	<path d="M197.4,57.9c0-1.8,2.5-3.5,4.5-3.5c1.3,0,2.3,0.7,2.3,1.7c0,1.7-2.5,3.5-4.6,3.5C198.4,59.6,197.4,59,197.4,57.9z"/>
</g>
<rect x="213.2" y="55.3" width="0.5" height="18.1"/>
<g>
	<path d="M213.2,55.4c0-1.8,2.5-3.5,4.5-3.5c1.3,0,2.3,0.7,2.3,1.7c0,1.7-2.5,3.5-4.6,3.5C214.2,57.1,213.2,56.5,213.2,55.4z"/>
</g>
<rect x="227.2" y="51.7" width="10.5" height="0.8"/>
<rect x="229" y="52.9" width="0.5" height="18.9"/>
<g>
	<path d="M229,52.9c0-1.8,2.5-3.5,4.5-3.5c1.3,0,2.3,0.7,2.3,1.7c0,1.7-2.5,3.5-4.6,3.5C230,54.7,229,54,229,52.9z"/>
</g>
<rect x="242.8" y="51.7" width="10.5" height="0.8"/>
<rect x="244.6" y="50.4" width="0.5" height="17.7"/>
<g>
	<path d="M244.7,50.5c0-1.8,2.5-3.5,4.5-3.5c1.3,0,2.3,0.7,2.3,1.7c0,1.7-2.5,3.5-4.6,3.5C245.7,52.2,244.7,51.5,244.7,50.5z"/>
</g>
<rect x="258.7" y="51.7" width="10.5" height="0.8"/>
<rect x="258.7" y="46.7" width="10.5" height="0.8"/>
<rect x="260.4" y="47.9" width="0.5" height="19.8"/>
<g>
	<path d="M260.5,48c0-1.8,2.5-3.5,4.5-3.5c1.3,0,2.3,0.7,2.3,1.7c0,1.7-2.5,3.5-4.6,3.5C261.5,49.7,260.5,49.1,260.5,48z"/>
</g>
<rect x="274.5" y="51.7" width="10.5" height="0.8"/>
<rect x="274.5" y="46.7" width="10.5" height="0.8"/>
<rect x="276.2" y="45.4" width="0.5" height="21.9"/>
<g>
	<path d="M276.3,45.5c0-1.8,2.5-3.5,4.5-3.5c1.3,0,2.3,0.7,2.3,1.7c0,1.7-2.5,3.5-4.6,3.5C277.3,47.2,276.3,46.6,276.3,45.5z"/>
</g>
<rect x="290.1" y="51.7" width="10.5" height="0.8"/>
<rect x="290.1" y="46.7" width="10.5" height="0.8"/>
<rect x="291.9" y="47.9" width="0.5" height="18.9"/>
<g>
	<path d="M292,48c0-1.8,2.5-3.5,4.5-3.5c1.3,0,2.3,0.7,2.3,1.7c0,1.7-2.5,3.5-4.6,3.5C293,49.7,292,49.1,292,48z"/>
</g>
<rect x="305.9" y="51.7" width="10.5" height="0.8"/>
<rect x="307.7" y="50.4" width="0.5" height="16.4"/>
<g>
	<path d="M307.8,50.5c0-1.8,2.5-3.5,4.5-3.5c1.3,0,2.3,0.7,2.3,1.7c0,1.7-2.5,3.5-4.6,3.5C308.8,52.2,307.8,51.5,307.8,50.5z"/>
</g>
<rect x="321.7" y="51.7" width="10.5" height="0.8"/>
<rect x="323.5" y="52.9" width="0.5" height="15.5"/>
<g>
	<path d="M323.6,52.9c0-1.8,2.5-3.5,4.5-3.5c1.3,0,2.3,0.7,2.3,1.7c0,1.7-2.5,3.5-4.6,3.5C324.6,54.7,323.6,54,323.6,52.9z"/>
</g>
<rect x="339.2" y="55.3" width="0.5" height="14.7"/>
<g>
	<path d="M339.3,55.4c0-1.8,2.5-3.5,4.5-3.5c1.3,0,2.3,0.7,2.3,1.7c0,1.7-2.5,3.5-4.6,3.5C340.2,57.1,339.3,56.5,339.3,55.4z"/>
</g>
<rect x="355" y="57.8" width="0.5" height="14"/>
<g>
	<path d="M355.1,57.9c0-1.8,2.5-3.5,4.5-3.5c1.3,0,2.3,0.7,2.3,1.7c0,1.7-2.5,3.5-4.6,3.5C356,59.6,355.1,59,355.1,57.9z"/>
</g>
<rect x="370.8" y="60.3" width="0.5" height="16.4"/>
<g>
	<path d="M370.9,60.4c0-1.8,2.5-3.5,4.5-3.5c1.3,0,2.3,0.7,2.3,1.7c0,1.7-2.5,3.5-4.6,3.5C371.9,62.1,370.9,61.5,370.9,60.4z"/>
</g>
<rect x="386.6" y="62.8" width="0.5" height="15.5"/>
<g>
	<path d="M386.7,62.9c0-1.8,2.5-3.5,4.5-3.5c1.3,0,2.3,0.7,2.3,1.7c0,1.7-2.5,3.5-4.6,3.5C387.7,64.6,386.7,63.9,386.7,62.9z"/>
</g>
<rect x="402.3" y="65.3" width="0.5" height="14.7"/>
<g>
	<path d="M402.4,65.3c0-1.8,2.5-3.5,4.5-3.5c1.3,0,2.3,0.7,2.3,1.7c0,1.7-2.5,3.5-4.6,3.5C403.3,67.1,402.4,66.4,402.4,65.3z"/>
</g>
<rect x="418.1" y="67.7" width="0.5" height="14"/>
<g>
	<path d="M418.2,67.8c0-1.8,2.5-3.5,4.5-3.5c1.3,0,2.3,0.7,2.3,1.7c0,1.7-2.5,3.5-4.6,3.5C419.1,69.5,418.2,68.9,418.2,67.8z"/>
</g>
<rect x="440.4" y="52.2" width="0.5" height="16.4"/>
<g>
	<path d="M434,70.3c0-1.8,2.5-3.5,4.5-3.5c1.3,0,2.3,0.7,2.3,1.7c0,1.7-2.5,3.5-4.6,3.5C434.9,72,434,71.4,434,70.3z"/>
</g>
<rect x="456.1" y="53.8" width="0.5" height="17.4"/>
<g>
	<path d="M449.6,72.8c0-1.8,2.5-3.5,4.5-3.5c1.3,0,2.3,0.7,2.3,1.7c0,1.7-2.5,3.5-4.6,3.5C450.6,74.5,449.6,73.9,449.6,72.8z"/>
</g>
<rect x="471.9" y="55.5" width="0.5" height="18.1"/>
<g>
	<path d="M465.4,75.3c0-1.8,2.5-3.5,4.5-3.5c1.3,0,2.3,0.7,2.3,1.7c0,1.7-2.5,3.5-4.6,3.5C466.4,77,465.4,76.3,465.4,75.3z"/>
</g>
<rect x="487.7" y="57.2" width="0.5" height="18.9"/>
<g>
	<path d="M481.3,77.7c0-1.8,2.5-3.5,4.5-3.5c1.3,0,2.3,0.7,2.3,1.7c0,1.7-2.5,3.5-4.6,3.5C482.2,79.5,481.3,78.8,481.3,77.7z"/>
</g>
<rect x="503.5" y="62" width="0.5" height="16.6"/>
<g>
	<path d="M501.2,76.7c1.6,0,2.7,0.7,2.7,2c0,1.9-2.3,3.4-4.5,3.4c-1.3,0-2.4-0.7-2.4-1.8C496.9,78.5,499.2,76.7,501.2,76.7z
		 M497.4,80.5c0,0.6,0.4,0.9,1.1,0.9c1.4,0,4.9-2.1,4.9-3.3c0-0.6-0.4-0.9-1.1-0.9C501,77.3,497.4,79.3,497.4,80.5z"/>
</g>
</svg>
