<?xml version="1.0" encoding="utf-8"?>

<!--
	ScaleBook
	Copyright (c) Leland Jansen 2015. All rights reserved.
-->

<!DOCTYPE svg PUBLIC "-//W3C//DTD SVG 1.1//EN" "http://www.w3.org/Graphics/SVG/1.1/DTD/svg11.dtd">
<svg version="1.1" id="Layer_1" xmlns="http://www.w3.org/2000/svg" xmlns:xlink="http://www.w3.org/1999/xlink" x="0px" y="0px"
	 viewBox="0 0 552.9 81.6" enable-background="new 0 0 552.9 81.6" xml:space="preserve">
<rect x="8.4" y="9.7" width="0.8" height="67"/>
<g>
	<path d="M7.4,10.4c-1.9,1.1-3.6,5.8-3.6,9.4c0,2.3,1.4,9.9,1.4,12.3c0,5-1.5,8.6-4.6,11.1c3,2.4,4.6,6.1,4.6,11.1
		c0,2.3-1.4,9.9-1.4,12.3c0,3.8,1.7,8.4,3.6,9.5v0.7c-3.5-2.3-5.8-8.2-5.8-13.1c0-2.1,1.7-9.4,1.7-11.5c0-3.8-1-6.6-2.9-8.2
		C0.1,43.6,0,43.4,0,43.2c0-0.2,0.1-0.4,0.5-0.7c1.9-1.7,2.9-4.2,2.9-7.6c0-2.1-1.7-10-1.7-12.2c0-5.2,2.1-10.4,5.8-13.1V10.4z"/>
</g>
<rect x="547.8" y="9.7" width="0.8" height="67"/>
<rect x="550.4" y="9.7" width="2.5" height="67"/>
<rect x="8.5" y="29.3" width="544.4" height="0.5"/>
<rect x="8.5" y="24.4" width="544.4" height="0.5"/>
<rect x="8.5" y="19.4" width="544.4" height="0.5"/>
<rect x="8.5" y="14.4" width="544.4" height="0.5"/>
<rect x="8.5" y="9.5" width="544.4" height="0.5"/>
<g>
	<path d="M20.3,29.4c-4.2,0-8.1-3.1-8.1-6.9c0-3.2,2.3-6.7,6.8-10.5c-0.3-1.2-0.4-2.4-0.4-3.6c0-3.5,1.2-6.8,3.2-8.5
		c1.8,2.5,2.7,4.9,2.7,7.1c0,2.9-1.3,5.6-4.3,8.1l0.9,4.2c0.5,0,0.8-0.1,0.8-0.1c2.6,0,4.8,2,4.8,4.7c0,1.9-1.4,3.7-3.6,4.8
		c0-0.1,0.9,3.8,0.9,4.3c0,2.5-2.3,4.2-4.9,4.2c-2,0-3.6-1.3-3.6-3.4c0-1.4,1-2.6,2.4-2.6c1.3,0,2.3,1.3,2.3,2.5
		c0,1.4-1.2,2.3-2.7,2.5c0.6,0.3,1.2,0.5,1.9,0.5c2.1,0,4.1-1.6,4.1-3.6c0-0.2,0-0.4-0.1-0.6l-0.8-3.7
		C21.9,29.3,21.2,29.4,20.3,29.4z M18.1,24.2c0,1,0.5,1.9,1.6,2.5c-1.8-0.3-3-1.4-3-3.1c0-2,1.7-3.7,3.8-4.1l-0.8-4
		C16,18.3,14,21,14,23.6c0,2.9,2.8,5.3,6,5.3c0.9,0,1.7-0.2,2.4-0.5L21,21.6C19.4,21.8,18.1,22.8,18.1,24.2z M22.1,2.8
		c-1.6,0-2.9,3.7-2.9,7c0,0.7,0,1.3,0.2,1.9c2.7-2.4,4-4.5,4-6.5c0-0.9-0.3-1.7-1-2.4C22.4,2.9,22.3,2.8,22.1,2.8z M24.9,24.7
		c0-1.6-1.2-3.3-2.9-3.3c-0.1,0-0.2,0-0.5,0l1.4,6.6C24.2,27.2,24.9,26,24.9,24.7z"/>
</g>
<g>
	<path d="M33.5,2.9v2.8l1-0.3v1.8l-1,0.3V11l1-0.3v1.8l-1,0.3v3.1H33v-3l-1.9,0.6v3h-0.5v-2.8l-1,0.3v-1.8l1-0.3V8.4l-1,0.3V7l1-0.3
		V3.5h0.5v3L33,5.9v-3H33.5z M33,7.7l-1.9,0.6v3.4l1.9-0.6V7.7z"/>
</g>
<g>
	<path d="M39.7,10.3v2.8l1-0.3v1.8l-1,0.3v3.4l1-0.3v1.8l-1,0.3v3.1h-0.5v-3L37.3,21v3h-0.5v-2.8l-1,0.3v-1.8l1-0.3v-3.4l-1,0.3
		v-1.8l1-0.3V11h0.5v3l1.9-0.6v-3H39.7z M39.2,15.1l-1.9,0.6v3.4l1.9-0.6V15.1z"/>
</g>
<g>
	<path d="M45.9,0.4v2.8l1-0.3v1.8l-1,0.3v3.4l1-0.3V10l-1,0.3v3.1h-0.5v-3l-1.9,0.6v3H43v-2.8l-1,0.3V9.7l1-0.3V6l-1,0.3V4.5l1-0.3
		V1h0.5v3l1.9-0.6v-3H45.9z M45.4,5.2l-1.9,0.6v3.4l1.9-0.6V5.2z"/>
</g>
<g>
	<path d="M52.1,7.9v2.8l1-0.3v1.8l-1,0.3v3.4l1-0.3v1.8l-1,0.3v3.1h-0.5v-3l-1.9,0.6v3h-0.5v-2.8l-1,0.3v-1.8l1-0.3v-3.4l-1,0.3
		v-1.8l1-0.3V8.5h0.5v3l1.9-0.6v-3H52.1z M51.6,12.6l-1.9,0.6v3.4l1.9-0.6V12.6z"/>
</g>
<g>
	<path d="M58.3,15.3v2.8l1-0.3v1.8l-1,0.3v3.4l1-0.3v1.8l-1,0.3v3.1h-0.5v-3l-1.9,0.6v3h-0.5v-2.8l-1,0.3v-1.8l1-0.3v-3.4l-1,0.3
		v-1.8l1-0.3v-3.1h0.5v3l1.9-0.6v-3H58.3z M57.8,20.1l-1.9,0.6v3.4l1.9-0.6V20.1z"/>
</g>
<polygon fill-rule="evenodd" clip-rule="evenodd" points="74.7,25.8 120.7,24.6 120.7,22.1 74.7,23.4 "/>
<polygon fill-rule="evenodd" clip-rule="evenodd" points="74.7,22.1 120.7,20.9 120.7,18.4 74.7,19.6 "/>
<polygon fill-rule="evenodd" clip-rule="evenodd" points="136,20.9 182.2,15.9 182.2,13.4 136,18.4 "/>
<polygon fill-rule="evenodd" clip-rule="evenodd" points="136,17.2 182.2,12.2 182.2,9.7 136,14.7 "/>
<polygon fill-rule="evenodd" clip-rule="evenodd" points="191.1,35.8 237.1,30.8 237.1,28.3 191.1,33.3 "/>
<polygon fill-rule="evenodd" clip-rule="evenodd" points="191.1,39.5 237.1,34.5 237.1,32 191.1,37 "/>
<polygon fill-rule="evenodd" clip-rule="evenodd" points="252.5,27.1 298.6,25.8 298.6,23.4 252.5,24.6 "/>
<polygon fill-rule="evenodd" clip-rule="evenodd" points="252.5,30.8 298.6,29.6 298.6,27.1 252.5,28.3 "/>
<polygon fill-rule="evenodd" clip-rule="evenodd" points="314,25.8 360,30.8 360,28.3 314,23.4 "/>
<polygon fill-rule="evenodd" clip-rule="evenodd" points="314,29.6 360,34.5 360,32 314,27.1 "/>
<polygon fill-rule="evenodd" clip-rule="evenodd" points="381.9,11 428.1,15.9 428.1,13.4 381.9,8.5 "/>
<polygon fill-rule="evenodd" clip-rule="evenodd" points="381.9,7.2 428.1,12.2 428.1,9.7 381.9,4.8 "/>
<polygon fill-rule="evenodd" clip-rule="evenodd" points="443.4,20.9 489.5,25.8 489.5,23.4 443.4,18.4 "/>
<polygon fill-rule="evenodd" clip-rule="evenodd" points="443.4,17.2 489.5,22.1 489.5,19.6 443.4,14.7 "/>
<rect x="8.5" y="76.4" width="544.4" height="0.5"/>
<rect x="8.5" y="71.5" width="544.4" height="0.5"/>
<rect x="8.5" y="66.5" width="544.4" height="0.5"/>
<rect x="8.5" y="61.6" width="544.4" height="0.5"/>
<rect x="8.5" y="56.6" width="544.4" height="0.5"/>
<g>
	<path d="M15.7,71c2.9-2.6,4.7-6.1,4.7-9.2c0-2.5-1.4-4.4-3.7-4.4c-1.6,0-3.4,1.3-3.4,2.7c0,0.2,0,0.3,0.1,0.3
		c-0.1,0,0.6-0.6,1.4-0.6c0.9,0,1.5,0.8,1.5,1.7c0,1.2-0.9,2.2-2.1,2.2c-1.2,0-2.1-1.3-2.1-2.8c0-2.3,2.3-4.1,4.8-4.1
		c4.7,0,5.9,3.2,5.9,5.8c0,1.6-0.4,2.9-2,5.3c-1.9,3.1-6.4,5.3-8.1,5.3c-0.4,0-0.6-0.2-0.6-0.5C13.8,72.3,14.9,71.7,15.7,71z
		 M25.7,58.3c0.6,0,1,0.4,1,1c0,0.6-0.4,1-1,1s-1-0.4-1-1C24.7,58.8,25.1,58.3,25.7,58.3z M25.7,63.3c0.6,0,1,0.4,1,1
		c0,0.6-0.4,1-1,1s-1-0.4-1-1C24.7,63.7,25.1,63.3,25.7,63.3z"/>
</g>
<g>
	<path d="M33.5,55v2.8l1-0.3v1.8l-1,0.3V63l1-0.3v1.8l-1,0.3V68H33v-3l-1.9,0.6v3h-0.5v-2.8l-1,0.3v-1.8l1-0.3v-3.4l-1,0.3v-1.8
		l1-0.3v-3.1h0.5v3L33,58v-3H33.5z M33,59.8l-1.9,0.6v3.4l1.9-0.6V59.8z"/>
</g>
<g>
	<path d="M39.7,62.4v2.8l1-0.3v1.8l-1,0.3v3.4l1-0.3V72l-1,0.3v3.1h-0.5v-3l-1.9,0.6v3h-0.5v-2.8l-1,0.3v-1.8l1-0.3V68l-1,0.3v-1.8
		l1-0.3v-3.1h0.5v3l1.9-0.6v-3H39.7z M39.2,67.2l-1.9,0.6v3.4l1.9-0.6V67.2z"/>
</g>
<g>
	<path d="M45.9,52.5v2.8l1-0.3v1.8l-1,0.3v3.4l1-0.3V62l-1,0.3v3.1h-0.5v-3l-1.9,0.6v3H43v-2.8l-1,0.3v-1.8l1-0.3V58l-1,0.3v-1.8
		l1-0.3v-3.1h0.5v3l1.9-0.6v-3H45.9z M45.4,57.3l-1.9,0.6v3.4l1.9-0.6V57.3z"/>
</g>
<g>
	<path d="M52.1,59.9v2.8l1-0.3v1.8l-1,0.3V68l1-0.3v1.8l-1,0.3v3.1h-0.5v-3l-1.9,0.6v3h-0.5v-2.8l-1,0.3v-1.8l1-0.3v-3.4l-1,0.3V64
		l1-0.3v-3.1h0.5v3l1.9-0.6v-3H52.1z M51.6,64.7l-1.9,0.6v3.4l1.9-0.6V64.7z"/>
</g>
<g>
	<path d="M58.3,67.4v2.8l1-0.3v1.8l-1,0.3v3.4l1-0.3v1.8l-1,0.3v3.1h-0.5v-3L55.9,78v3h-0.5v-2.8l-1,0.3v-1.8l1-0.3v-3.4l-1,0.3
		v-1.8l1-0.3V68h0.5v3l1.9-0.6v-3H58.3z M57.8,72.2l-1.9,0.6v3.4l1.9-0.6V72.2z"/>
</g>
<polygon fill-rule="evenodd" clip-rule="evenodd" points="74.7,63 120.7,58.1 120.7,55.6 74.7,60.6 "/>
<polygon fill-rule="evenodd" clip-rule="evenodd" points="74.7,59.3 120.7,54.4 120.7,51.9 74.7,56.8 "/>
<polygon fill-rule="evenodd" clip-rule="evenodd" points="129.5,77.9 175.7,73 175.7,70.5 129.5,75.4 "/>
<polygon fill-rule="evenodd" clip-rule="evenodd" points="129.5,81.6 175.7,76.7 175.7,74.2 129.5,79.2 "/>
<polygon fill-rule="evenodd" clip-rule="evenodd" points="191.1,68 237.1,63 237.1,60.6 191.1,65.5 "/>
<polygon fill-rule="evenodd" clip-rule="evenodd" points="191.1,71.7 237.1,66.8 237.1,64.3 191.1,69.2 "/>
<polygon fill-rule="evenodd" clip-rule="evenodd" points="252.5,64.3 298.6,63 298.6,60.6 252.5,61.8 "/>
<polygon fill-rule="evenodd" clip-rule="evenodd" points="252.5,68 298.6,66.8 298.6,64.3 252.5,65.5 "/>
<polygon fill-rule="evenodd" clip-rule="evenodd" points="314,63 360,68 360,65.5 314,60.6 "/>
<polygon fill-rule="evenodd" clip-rule="evenodd" points="314,66.8 360,71.7 360,69.2 314,64.3 "/>
<polygon fill-rule="evenodd" clip-rule="evenodd" points="375.4,73 421.6,77.9 421.6,75.4 375.4,70.5 "/>
<polygon fill-rule="evenodd" clip-rule="evenodd" points="375.4,76.7 421.6,81.6 421.6,79.2 375.4,74.2 "/>
<polygon fill-rule="evenodd" clip-rule="evenodd" points="443.4,58.1 489.5,63 489.5,60.6 443.4,55.6 "/>
<polygon fill-rule="evenodd" clip-rule="evenodd" points="443.4,54.4 489.5,59.3 489.5,56.8 443.4,51.9 "/>
<rect x="66.1" y="34.1" width="10.5" height="0.8"/>
<rect x="66.1" y="39.1" width="10.5" height="0.8"/>
<rect x="74.4" y="19.8" width="0.5" height="21.4"/>
<g>
	<path d="M68,42.8c0-1.8,2.5-3.5,4.5-3.5c1.3,0,2.3,0.7,2.3,1.7c0,1.7-2.5,3.5-4.6,3.5C69,44.5,68,43.9,68,42.8z"/>
</g>
<rect x="81.5" y="34.1" width="10.5" height="0.8"/>
<rect x="81.5" y="39.1" width="10.5" height="0.8"/>
<rect x="89.8" y="19.5" width="0.5" height="19.2"/>
<g>
	<path d="M83.3,40.3c0-1.8,2.5-3.5,4.5-3.5c1.3,0,2.3,0.7,2.3,1.7c0,1.7-2.5,3.5-4.6,3.5C84.3,42.1,83.3,41.4,83.3,40.3z"/>
</g>
<rect x="96.8" y="34.1" width="10.5" height="0.8"/>
<rect x="105.1" y="19" width="0.5" height="17.2"/>
<g>
	<path d="M98.7,37.9c0-1.8,2.5-3.5,4.5-3.5c1.3,0,2.3,0.7,2.3,1.7c0,1.7-2.5,3.5-4.6,3.5C99.7,39.6,98.7,38.9,98.7,37.9z"/>
</g>
<rect x="112.2" y="34.1" width="10.5" height="0.8"/>
<rect x="120.5" y="18.6" width="0.5" height="15.2"/>
<g>
	<path d="M114,35.4c0-1.8,2.5-3.5,4.5-3.5c1.3,0,2.3,0.7,2.3,1.7c0,1.7-2.5,3.5-4.6,3.5C115,37.1,114,36.5,114,35.4z"/>
</g>
<rect x="135.8" y="14.8" width="0.5" height="16.4"/>
<g>
	<path d="M129.4,32.9c0-1.8,2.5-3.5,4.5-3.5c1.3,0,2.3,0.7,2.3,1.7c0,1.7-2.5,3.5-4.6,3.5C130.3,34.6,129.4,34,129.4,32.9z"/>
</g>
<rect x="151.3" y="13.3" width="0.5" height="15.5"/>
<g>
	<path d="M144.9,30.4c0-1.8,2.5-3.5,4.5-3.5c1.3,0,2.3,0.7,2.3,1.7c0,1.7-2.5,3.5-4.6,3.5C145.8,32.1,144.9,31.5,144.9,30.4z"/>
</g>
<rect x="166.7" y="11.6" width="0.5" height="14.7"/>
<g>
	<path d="M160.2,27.9c0-1.8,2.5-3.5,4.5-3.5c1.3,0,2.3,0.7,2.3,1.7c0,1.7-2.5,3.5-4.6,3.5C161.2,29.7,160.2,29,160.2,27.9z"/>
</g>
<rect x="182" y="9.9" width="0.5" height="14"/>
<g>
	<path d="M175.6,25.5c0-1.8,2.5-3.5,4.5-3.5c1.3,0,2.3,0.7,2.3,1.7c0,1.7-2.5,3.5-4.6,3.5C176.5,27.2,175.6,26.5,175.6,25.5z"/>
</g>
<rect x="190.8" y="22.9" width="0.5" height="16.4"/>
<g>
	<path d="M190.9,23c0-1.8,2.5-3.5,4.5-3.5c1.3,0,2.3,0.7,2.3,1.7c0,1.7-2.5,3.5-4.6,3.5C191.9,24.7,190.9,24.1,190.9,23z"/>
</g>
<rect x="206.2" y="20.4" width="0.5" height="17.4"/>
<g>
	<path d="M206.3,20.5c0-1.8,2.5-3.5,4.5-3.5c1.3,0,2.3,0.7,2.3,1.7c0,1.7-2.5,3.5-4.6,3.5C207.2,22.2,206.3,21.6,206.3,20.5z"/>
</g>
<rect x="221.5" y="17.9" width="0.5" height="18.1"/>
<g>
	<path d="M221.6,18c0-1.8,2.5-3.5,4.5-3.5c1.3,0,2.3,0.7,2.3,1.7c0,1.7-2.5,3.5-4.6,3.5C222.6,19.7,221.6,19.1,221.6,18z"/>
</g>
<rect x="236.9" y="15.5" width="0.5" height="18.9"/>
<g>
	<path d="M237,15.5c0-1.8,2.5-3.5,4.5-3.5c1.3,0,2.3,0.7,2.3,1.7c0,1.7-2.5,3.5-4.6,3.5C237.9,17.3,237,16.6,237,15.5z"/>
</g>
<rect x="252.2" y="13" width="0.5" height="17.7"/>
<g>
	<path d="M252.3,13c0-1.8,2.5-3.5,4.5-3.5c1.3,0,2.3,0.7,2.3,1.7c0,1.7-2.5,3.5-4.6,3.5C253.3,14.8,252.3,14.1,252.3,13z"/>
</g>
<rect x="267.7" y="10.5" width="0.5" height="19.8"/>
<g>
	<path d="M267.8,10.6c0-1.8,2.5-3.5,4.5-3.5c1.3,0,2.3,0.7,2.3,1.7c0,1.7-2.5,3.5-4.6,3.5C268.8,12.3,267.8,11.7,267.8,10.6z"/>
</g>
<rect x="283.1" y="8" width="0.5" height="21.9"/>
<g>
	<path d="M283.1,8.1c0-1.8,2.5-3.5,4.5-3.5c1.3,0,2.3,0.7,2.3,1.7c0,1.7-2.5,3.5-4.6,3.5C284.1,9.8,283.1,9.2,283.1,8.1z"/>
</g>
<rect x="298.4" y="10.5" width="0.5" height="18.9"/>
<g>
	<path d="M298.5,10.6c0-1.8,2.5-3.5,4.5-3.5c1.3,0,2.3,0.7,2.3,1.7c0,1.7-2.5,3.5-4.6,3.5C299.5,12.3,298.5,11.7,298.5,10.6z"/>
</g>
<rect x="313.8" y="13" width="0.5" height="16.4"/>
<g>
	<path d="M313.8,13c0-1.8,2.5-3.5,4.5-3.5c1.3,0,2.3,0.7,2.3,1.7c0,1.7-2.5,3.5-4.6,3.5C314.8,14.8,313.8,14.1,313.8,13z"/>
</g>
<rect x="329.1" y="15.5" width="0.5" height="15.5"/>
<g>
	<path d="M329.2,15.5c0-1.8,2.5-3.5,4.5-3.5c1.3,0,2.3,0.7,2.3,1.7c0,1.7-2.5,3.5-4.6,3.5C330.2,17.3,329.2,16.6,329.2,15.5z"/>
</g>
<rect x="344.5" y="17.9" width="0.5" height="14.7"/>
<g>
	<path d="M344.5,18c0-1.8,2.5-3.5,4.5-3.5c1.3,0,2.3,0.7,2.3,1.7c0,1.7-2.5,3.5-4.6,3.5C345.5,19.7,344.5,19.1,344.5,18z"/>
</g>
<rect x="359.8" y="20.4" width="0.5" height="14"/>
<g>
	<path d="M359.9,20.5c0-1.8,2.5-3.5,4.5-3.5c1.3,0,2.3,0.7,2.3,1.7c0,1.7-2.5,3.5-4.6,3.5C360.9,22.2,359.9,21.6,359.9,20.5z"/>
</g>
<rect x="381.7" y="4.9" width="0.5" height="16.4"/>
<g>
	<path d="M375.2,23c0-1.8,2.5-3.5,4.5-3.5c1.3,0,2.3,0.7,2.3,1.7c0,1.7-2.5,3.5-4.6,3.5C376.2,24.7,375.2,24.1,375.2,23z"/>
</g>
<rect x="397" y="6.5" width="0.5" height="17.4"/>
<g>
	<path d="M390.6,25.5c0-1.8,2.5-3.5,4.5-3.5c1.3,0,2.3,0.7,2.3,1.7c0,1.7-2.5,3.5-4.6,3.5C391.5,27.2,390.6,26.5,390.6,25.5z"/>
</g>
<rect x="412.5" y="8.2" width="0.5" height="18.1"/>
<g>
	<path d="M406.1,27.9c0-1.8,2.5-3.5,4.5-3.5c1.3,0,2.3,0.7,2.3,1.7c0,1.7-2.5,3.5-4.6,3.5C407,29.7,406.1,29,406.1,27.9z"/>
</g>
<rect x="427.9" y="9.9" width="0.5" height="18.9"/>
<g>
	<path d="M421.4,30.4c0-1.8,2.5-3.5,4.5-3.5c1.3,0,2.3,0.7,2.3,1.7c0,1.7-2.5,3.5-4.6,3.5C422.4,32.1,421.4,31.5,421.4,30.4z"/>
</g>
<rect x="443.2" y="14.8" width="0.5" height="16.4"/>
<g>
	<path d="M436.8,32.9c0-1.8,2.5-3.5,4.5-3.5c1.3,0,2.3,0.7,2.3,1.7c0,1.7-2.5,3.5-4.6,3.5C437.7,34.6,436.8,34,436.8,32.9z"/>
</g>
<rect x="450.3" y="34.1" width="10.5" height="0.8"/>
<rect x="458.5" y="16.4" width="0.5" height="17.4"/>
<g>
	<path d="M452.1,35.4c0-1.8,2.5-3.5,4.5-3.5c1.3,0,2.3,0.7,2.3,1.7c0,1.7-2.5,3.5-4.6,3.5C453.1,37.1,452.1,36.5,452.1,35.4z"/>
</g>
<rect x="465.6" y="34.1" width="10.5" height="0.8"/>
<rect x="473.9" y="18.1" width="0.5" height="18.1"/>
<g>
	<path d="M467.5,37.9c0-1.8,2.5-3.5,4.5-3.5c1.3,0,2.3,0.7,2.3,1.7c0,1.7-2.5,3.5-4.6,3.5C468.4,39.6,467.5,38.9,467.5,37.9z"/>
</g>
<rect x="480.9" y="34.1" width="10.5" height="0.8"/>
<rect x="480.9" y="39.1" width="10.5" height="0.8"/>
<rect x="489.2" y="19.8" width="0.5" height="18.9"/>
<g>
	<path d="M482.8,40.3c0-1.8,2.5-3.5,4.5-3.5c1.3,0,2.3,0.7,2.3,1.7c0,1.7-2.5,3.5-4.6,3.5C483.8,42.1,482.8,41.4,482.8,40.3z"/>
</g>
<rect x="496.3" y="34.1" width="10.7" height="0.8"/>
<rect x="496.3" y="39.1" width="10.7" height="0.8"/>
<rect x="504.7" y="19.6" width="0.5" height="21.5"/>
<g>
	<path d="M502.4,39.3c1.6,0,2.7,0.7,2.7,2c0,1.9-2.3,3.4-4.5,3.4c-1.3,0-2.4-0.7-2.4-1.8C498.2,41,500.4,39.3,502.4,39.3z
		 M498.6,43.1c0,0.6,0.4,0.9,1.1,0.9c1.4,0,4.9-2.1,4.9-3.3c0-0.6-0.4-0.9-1.1-0.9C502.3,39.9,498.6,41.9,498.6,43.1z"/>
</g>
<rect x="74.4" y="57" width="0.5" height="18.9"/>
<g>
	<path d="M68,77.5c0-1.8,2.5-3.5,4.5-3.5c1.3,0,2.3,0.7,2.3,1.7c0,1.7-2.5,3.5-4.6,3.5C69,79.3,68,78.6,68,77.5z"/>
</g>
<rect x="89.8" y="55.4" width="0.5" height="18"/>
<g>
	<path d="M83.3,75.1c0-1.8,2.5-3.5,4.5-3.5c1.3,0,2.3,0.7,2.3,1.7c0,1.7-2.5,3.5-4.6,3.5C84.3,76.8,83.3,76.1,83.3,75.1z"/>
</g>
<rect x="105.1" y="53.7" width="0.5" height="17.2"/>
<g>
	<path d="M98.7,72.6c0-1.8,2.5-3.5,4.5-3.5c1.3,0,2.3,0.7,2.3,1.7c0,1.7-2.5,3.5-4.6,3.5C99.7,74.3,98.7,73.7,98.7,72.6z"/>
</g>
<rect x="120.5" y="52" width="0.5" height="16.4"/>
<g>
	<path d="M114,70.1c0-1.8,2.5-3.5,4.5-3.5c1.3,0,2.3,0.7,2.3,1.7c0,1.7-2.5,3.5-4.6,3.5C115,71.8,114,71.2,114,70.1z"/>
</g>
<rect x="129.3" y="67.5" width="0.5" height="14"/>
<g>
	<path d="M129.4,67.6c0-1.8,2.5-3.5,4.5-3.5c1.3,0,2.3,0.7,2.3,1.7c0,1.7-2.5,3.5-4.6,3.5C130.3,69.3,129.4,68.7,129.4,67.6z"/>
</g>
<rect x="144.8" y="65.1" width="0.5" height="14.9"/>
<g>
	<path d="M144.9,65.1c0-1.8,2.5-3.5,4.5-3.5c1.3,0,2.3,0.7,2.3,1.7c0,1.7-2.5,3.5-4.6,3.5C145.8,66.9,144.9,66.2,144.9,65.1z"/>
</g>
<rect x="160.1" y="62.6" width="0.5" height="15.7"/>
<g>
	<path d="M160.2,62.7c0-1.8,2.5-3.5,4.5-3.5c1.3,0,2.3,0.7,2.3,1.7c0,1.7-2.5,3.5-4.6,3.5C161.2,64.4,160.2,63.7,160.2,62.7z"/>
</g>
<rect x="175.5" y="60.1" width="0.5" height="16.4"/>
<g>
	<path d="M175.6,60.2c0-1.8,2.5-3.5,4.5-3.5c1.3,0,2.3,0.7,2.3,1.7c0,1.7-2.5,3.5-4.6,3.5C176.5,61.9,175.6,61.3,175.6,60.2z"/>
</g>
<rect x="190.8" y="57.6" width="0.5" height="14"/>
<g>
	<path d="M190.9,57.7c0-1.8,2.5-3.5,4.5-3.5c1.3,0,2.3,0.7,2.3,1.7c0,1.7-2.5,3.5-4.6,3.5C191.9,59.4,190.9,58.8,190.9,57.7z"/>
</g>
<rect x="206.2" y="55.1" width="0.5" height="14.9"/>
<g>
	<path d="M206.3,55.2c0-1.8,2.5-3.5,4.5-3.5c1.3,0,2.3,0.7,2.3,1.7c0,1.7-2.5,3.5-4.6,3.5C207.2,56.9,206.3,56.3,206.3,55.2z"/>
</g>
<rect x="219.7" y="51.5" width="10.5" height="0.8"/>
<rect x="221.5" y="52.7" width="0.5" height="15.7"/>
<g>
	<path d="M221.6,52.7c0-1.8,2.5-3.5,4.5-3.5c1.3,0,2.3,0.7,2.3,1.7c0,1.7-2.5,3.5-4.6,3.5C222.6,54.5,221.6,53.8,221.6,52.7z"/>
</g>
<rect x="235.1" y="51.5" width="10.5" height="0.8"/>
<rect x="236.9" y="50.2" width="0.5" height="16.4"/>
<g>
	<path d="M237,50.3c0-1.8,2.5-3.5,4.5-3.5c1.3,0,2.3,0.7,2.3,1.7c0,1.7-2.5,3.5-4.6,3.5C237.9,52,237,51.3,237,50.3z"/>
</g>
<rect x="250.4" y="51.5" width="10.5" height="0.8"/>
<rect x="250.4" y="46.5" width="10.5" height="0.8"/>
<rect x="252.2" y="47.7" width="0.5" height="20.2"/>
<g>
	<path d="M252.3,47.8c0-1.8,2.5-3.5,4.5-3.5c1.3,0,2.3,0.7,2.3,1.7c0,1.7-2.5,3.5-4.6,3.5C253.3,49.5,252.3,48.9,252.3,47.8z"/>
</g>
<rect x="265.9" y="51.5" width="10.5" height="0.8"/>
<rect x="265.9" y="46.5" width="10.5" height="0.8"/>
<rect x="267.7" y="45.2" width="0.5" height="22.3"/>
<g>
	<path d="M267.8,45.3c0-1.8,2.5-3.5,4.5-3.5c1.3,0,2.3,0.7,2.3,1.7c0,1.7-2.5,3.5-4.6,3.5C268.8,47,267.8,46.4,267.8,45.3z"/>
</g>
<rect x="281.3" y="51.5" width="10.5" height="0.8"/>
<rect x="281.3" y="46.5" width="10.5" height="0.8"/>
<rect x="281.3" y="41.6" width="10.5" height="0.8"/>
<rect x="283.1" y="42.7" width="0.5" height="24.3"/>
<g>
	<path d="M283.1,42.8c0-1.8,2.5-3.5,4.5-3.5c1.3,0,2.3,0.7,2.3,1.7c0,1.7-2.5,3.5-4.6,3.5C284.1,44.5,283.1,43.9,283.1,42.8z"/>
</g>
<rect x="296.6" y="51.5" width="10.5" height="0.8"/>
<rect x="296.6" y="46.5" width="10.5" height="0.8"/>
<rect x="298.4" y="45.2" width="0.5" height="21.4"/>
<g>
	<path d="M298.5,45.3c0-1.8,2.5-3.5,4.5-3.5c1.3,0,2.3,0.7,2.3,1.7c0,1.7-2.5,3.5-4.6,3.5C299.5,47,298.5,46.4,298.5,45.3z"/>
</g>
<rect x="312" y="51.5" width="10.5" height="0.8"/>
<rect x="312" y="46.5" width="10.5" height="0.8"/>
<rect x="313.8" y="47.7" width="0.5" height="18.9"/>
<g>
	<path d="M313.8,47.8c0-1.8,2.5-3.5,4.5-3.5c1.3,0,2.3,0.7,2.3,1.7c0,1.7-2.5,3.5-4.6,3.5C314.8,49.5,313.8,48.9,313.8,47.8z"/>
</g>
<rect x="327.3" y="51.5" width="10.5" height="0.8"/>
<rect x="329.1" y="50.2" width="0.5" height="18"/>
<g>
	<path d="M329.2,50.3c0-1.8,2.5-3.5,4.5-3.5c1.3,0,2.3,0.7,2.3,1.7c0,1.7-2.5,3.5-4.6,3.5C330.2,52,329.2,51.3,329.2,50.3z"/>
</g>
<rect x="342.7" y="51.5" width="10.5" height="0.8"/>
<rect x="344.5" y="52.7" width="0.5" height="17.2"/>
<g>
	<path d="M344.5,52.7c0-1.8,2.5-3.5,4.5-3.5c1.3,0,2.3,0.7,2.3,1.7c0,1.7-2.5,3.5-4.6,3.5C345.5,54.5,344.5,53.8,344.5,52.7z"/>
</g>
<rect x="359.8" y="55.1" width="0.5" height="16.4"/>
<g>
	<path d="M359.9,55.2c0-1.8,2.5-3.5,4.5-3.5c1.3,0,2.3,0.7,2.3,1.7c0,1.7-2.5,3.5-4.6,3.5C360.9,56.9,359.9,56.3,359.9,55.2z"/>
</g>
<rect x="375.1" y="57.6" width="0.5" height="18.9"/>
<g>
	<path d="M375.2,57.7c0-1.8,2.5-3.5,4.5-3.5c1.3,0,2.3,0.7,2.3,1.7c0,1.7-2.5,3.5-4.6,3.5C376.2,59.4,375.2,58.8,375.2,57.7z"/>
</g>
<rect x="390.5" y="60.1" width="0.5" height="18"/>
<g>
	<path d="M390.6,60.2c0-1.8,2.5-3.5,4.5-3.5c1.3,0,2.3,0.7,2.3,1.7c0,1.7-2.5,3.5-4.6,3.5C391.5,61.9,390.6,61.3,390.6,60.2z"/>
</g>
<rect x="406" y="62.6" width="0.5" height="17.2"/>
<g>
	<path d="M406.1,62.7c0-1.8,2.5-3.5,4.5-3.5c1.3,0,2.3,0.7,2.3,1.7c0,1.7-2.5,3.5-4.6,3.5C407,64.4,406.1,63.7,406.1,62.7z"/>
</g>
<rect x="421.3" y="65.1" width="0.5" height="16.4"/>
<g>
	<path d="M421.4,65.1c0-1.8,2.5-3.5,4.5-3.5c1.3,0,2.3,0.7,2.3,1.7c0,1.7-2.5,3.5-4.6,3.5C422.4,66.9,421.4,66.2,421.4,65.1z"/>
</g>
<rect x="443.2" y="52" width="0.5" height="14"/>
<g>
	<path d="M436.8,67.6c0-1.8,2.5-3.5,4.5-3.5c1.3,0,2.3,0.7,2.3,1.7c0,1.7-2.5,3.5-4.6,3.5C437.7,69.3,436.8,68.7,436.8,67.6z"/>
</g>
<rect x="458.5" y="53.6" width="0.5" height="14.9"/>
<g>
	<path d="M452.1,70.1c0-1.8,2.5-3.5,4.5-3.5c1.3,0,2.3,0.7,2.3,1.7c0,1.7-2.5,3.5-4.6,3.5C453.1,71.8,452.1,71.2,452.1,70.1z"/>
</g>
<rect x="473.9" y="55.3" width="0.5" height="15.7"/>
<g>
	<path d="M467.5,72.6c0-1.8,2.5-3.5,4.5-3.5c1.3,0,2.3,0.7,2.3,1.7c0,1.7-2.5,3.5-4.6,3.5C468.4,74.3,467.5,73.7,467.5,72.6z"/>
</g>
<rect x="489.2" y="57" width="0.5" height="16.4"/>
<g>
	<path d="M482.8,75.1c0-1.8,2.5-3.5,4.5-3.5c1.3,0,2.3,0.7,2.3,1.7c0,1.7-2.5,3.5-4.6,3.5C483.8,76.8,482.8,76.1,482.8,75.1z"/>
</g>
<rect x="504.7" y="59.3" width="0.5" height="16.6"/>
<g>
	<path d="M502.4,74c1.6,0,2.7,0.7,2.7,2c0,1.9-2.3,3.4-4.5,3.4c-1.3,0-2.4-0.7-2.4-1.8C498.2,75.8,500.4,74,502.4,74z M498.6,77.8
		c0,0.6,0.4,0.9,1.1,0.9c1.4,0,4.9-2.1,4.9-3.3c0-0.6-0.4-0.9-1.1-0.9C502.3,74.6,498.6,76.6,498.6,77.8z"/>
</g>
</svg>
