<?xml version="1.0" encoding="utf-8"?>

<!--
	ScaleBook
	Copyright (c) Leland Jansen 2015. All rights reserved.
-->

<!DOCTYPE svg PUBLIC "-//W3C//DTD SVG 1.1//EN" "http://www.w3.org/Graphics/SVG/1.1/DTD/svg11.dtd">
<svg version="1.1" id="Layer_1" xmlns="http://www.w3.org/2000/svg" xmlns:xlink="http://www.w3.org/1999/xlink" x="0px" y="0px"
	 viewBox="0 0 552.9 81.6" enable-background="new 0 0 552.9 81.6" xml:space="preserve">
<rect x="8.4" y="9.7" width="0.8" height="67"/>
<g>
	<path d="M7.4,10.4c-1.9,1.1-3.6,5.8-3.6,9.4c0,2.3,1.4,9.9,1.4,12.3c0,5-1.5,8.6-4.6,11.1c3,2.4,4.6,6.1,4.6,11.1
		c0,2.3-1.4,9.9-1.4,12.3c0,3.8,1.7,8.4,3.6,9.5v0.7c-3.5-2.3-5.8-8.2-5.8-13.1c0-2.1,1.7-9.4,1.7-11.5c0-3.8-1-6.6-2.9-8.2
		C0.1,43.6,0,43.4,0,43.2c0-0.2,0.1-0.4,0.5-0.7c1.9-1.7,2.9-4.2,2.9-7.6c0-2.1-1.7-10-1.7-12.2c0-5.2,2.1-10.4,5.8-13.1V10.4z"/>
</g>
<rect x="547.8" y="9.7" width="0.8" height="67"/>
<rect x="550.4" y="9.7" width="2.5" height="67"/>
<rect x="8.5" y="29.3" width="544.4" height="0.5"/>
<rect x="8.5" y="24.4" width="544.4" height="0.5"/>
<rect x="8.5" y="19.4" width="544.4" height="0.5"/>
<rect x="8.5" y="14.4" width="544.4" height="0.5"/>
<rect x="8.5" y="9.5" width="544.4" height="0.5"/>
<g>
	<path d="M20.3,29.4c-4.2,0-8.1-3.1-8.1-6.9c0-3.2,2.3-6.7,6.8-10.5c-0.3-1.2-0.4-2.4-0.4-3.6c0-3.5,1.2-6.8,3.2-8.5
		c1.8,2.5,2.7,4.9,2.7,7.1c0,2.9-1.3,5.6-4.3,8.1l0.9,4.2c0.5,0,0.8-0.1,0.8-0.1c2.6,0,4.8,2,4.8,4.7c0,1.9-1.4,3.7-3.6,4.8
		c0-0.1,0.9,3.8,0.9,4.3c0,2.5-2.3,4.2-4.9,4.2c-2,0-3.6-1.3-3.6-3.4c0-1.4,1-2.6,2.4-2.6c1.3,0,2.3,1.3,2.3,2.5
		c0,1.4-1.2,2.3-2.7,2.5c0.6,0.3,1.2,0.5,1.9,0.5c2.1,0,4.1-1.6,4.1-3.6c0-0.2,0-0.4-0.1-0.6l-0.8-3.7
		C21.9,29.3,21.2,29.4,20.3,29.4z M18.1,24.2c0,1,0.5,1.9,1.6,2.5c-1.8-0.3-3-1.4-3-3.1c0-2,1.7-3.7,3.8-4.1l-0.8-4
		C16,18.3,14,21,14,23.6c0,2.9,2.8,5.3,6,5.3c0.9,0,1.7-0.2,2.4-0.5L21,21.6C19.4,21.8,18.1,22.8,18.1,24.2z M22.1,2.8
		c-1.6,0-2.9,3.7-2.9,7c0,0.7,0,1.3,0.2,1.9c2.7-2.4,4-4.5,4-6.5c0-0.9-0.3-1.7-1-2.4C22.4,2.9,22.3,2.8,22.1,2.8z M24.9,24.7
		c0-1.6-1.2-3.3-2.9-3.3c-0.1,0-0.2,0-0.5,0l1.4,6.6C24.2,27.2,24.9,26,24.9,24.7z"/>
</g>
<g>
	<path d="M29.5,11.3h0.6L30,17.6c0.4-0.7,1-1,1.8-1c1.2,0,2.2,0.8,2.2,1.9c0,0.8-0.5,1.8-1.7,2.7l-2.8,2.1V11.3z M30.1,18.2
		C30,19,30,19.6,30,20.2c0,1,0,1.6,0.1,2c1-0.7,2.4-2.6,2.4-3.7c0-0.6-0.5-1.1-1.1-1.1C30.8,17.4,30.4,17.7,30.1,18.2z"/>
</g>
<g>
	<path d="M35.1,3.9h0.6l-0.1,6.2c0.4-0.7,1-1,1.8-1c1.2,0,2.2,0.8,2.2,1.9c0,0.8-0.5,1.8-1.7,2.7l-2.8,2.1V3.9z M35.7,10.8
		c-0.1,0.8-0.1,1.4-0.1,1.9c0,1,0,1.6,0.1,2c1-0.7,2.4-2.6,2.4-3.7c0-0.6-0.5-1.1-1.1-1.1C36.4,10,36,10.2,35.7,10.8z"/>
</g>
<polygon fill-rule="evenodd" clip-rule="evenodd" points="54.8,25.8 102.9,24.6 102.9,22.1 54.8,23.4 "/>
<polygon fill-rule="evenodd" clip-rule="evenodd" points="54.8,22.1 102.9,20.9 102.9,18.4 54.8,19.6 "/>
<polygon fill-rule="evenodd" clip-rule="evenodd" points="118.8,20.9 166.9,15.9 166.9,13.4 118.8,18.4 "/>
<polygon fill-rule="evenodd" clip-rule="evenodd" points="118.8,17.2 166.9,12.2 166.9,9.7 118.8,14.7 "/>
<polygon fill-rule="evenodd" clip-rule="evenodd" points="176.3,35.8 224.4,30.8 224.4,28.3 176.3,33.3 "/>
<polygon fill-rule="evenodd" clip-rule="evenodd" points="176.3,39.5 224.4,34.5 224.4,32 176.3,37 "/>
<polygon fill-rule="evenodd" clip-rule="evenodd" points="240.4,27.1 288.4,25.8 288.4,23.4 240.4,24.6 "/>
<polygon fill-rule="evenodd" clip-rule="evenodd" points="240.4,30.8 288.4,29.6 288.4,27.1 240.4,28.3 "/>
<polygon fill-rule="evenodd" clip-rule="evenodd" points="304.4,25.8 352.3,30.8 352.3,28.3 304.4,23.4 "/>
<polygon fill-rule="evenodd" clip-rule="evenodd" points="304.4,29.6 352.3,34.5 352.3,32 304.4,27.1 "/>
<polygon fill-rule="evenodd" clip-rule="evenodd" points="374.9,11 422.8,15.9 422.8,13.4 374.9,8.5 "/>
<polygon fill-rule="evenodd" clip-rule="evenodd" points="374.9,7.2 422.8,12.2 422.8,9.7 374.9,4.8 "/>
<polygon fill-rule="evenodd" clip-rule="evenodd" points="438.9,20.9 486.8,25.8 486.8,23.4 438.9,18.4 "/>
<polygon fill-rule="evenodd" clip-rule="evenodd" points="438.9,17.2 486.8,22.1 486.8,19.6 438.9,14.7 "/>
<rect x="8.5" y="76.4" width="544.4" height="0.5"/>
<rect x="8.5" y="71.5" width="544.4" height="0.5"/>
<rect x="8.5" y="66.5" width="544.4" height="0.5"/>
<rect x="8.5" y="61.6" width="544.4" height="0.5"/>
<rect x="8.5" y="56.6" width="544.4" height="0.5"/>
<g>
	<path d="M15.7,71c2.9-2.6,4.7-6.1,4.7-9.2c0-2.5-1.4-4.4-3.7-4.4c-1.6,0-3.4,1.3-3.4,2.7c0,0.2,0,0.3,0.1,0.3
		c-0.1,0,0.6-0.6,1.4-0.6c0.9,0,1.5,0.8,1.5,1.7c0,1.2-0.9,2.2-2.1,2.2c-1.2,0-2.1-1.3-2.1-2.8c0-2.3,2.3-4.1,4.8-4.1
		c4.7,0,5.9,3.2,5.9,5.8c0,1.6-0.4,2.9-2,5.3c-1.9,3.1-6.4,5.3-8.1,5.3c-0.4,0-0.6-0.2-0.6-0.5C13.8,72.3,14.9,71.7,15.7,71z
		 M25.7,58.3c0.6,0,1,0.4,1,1c0,0.6-0.4,1-1,1s-1-0.4-1-1C24.7,58.8,25.1,58.3,25.7,58.3z M25.7,63.3c0.6,0,1,0.4,1,1
		c0,0.6-0.4,1-1,1s-1-0.4-1-1C24.7,63.7,25.1,63.3,25.7,63.3z"/>
</g>
<g>
	<path d="M29.5,63.4h0.6L30,69.7c0.4-0.7,1-1,1.8-1c1.2,0,2.2,0.8,2.2,1.9c0,0.8-0.5,1.8-1.7,2.7l-2.8,2.1V63.4z M30.1,70.3
		C30,71.1,30,71.7,30,72.3c0,1,0,1.6,0.1,2c1-0.7,2.4-2.6,2.4-3.7c0-0.6-0.5-1.1-1.1-1.1C30.8,69.5,30.4,69.8,30.1,70.3z"/>
</g>
<g>
	<path d="M35.1,56h0.6l-0.1,6.2c0.4-0.7,1-1,1.8-1c1.2,0,2.2,0.8,2.2,1.9c0,0.8-0.5,1.8-1.7,2.7l-2.8,2.1V56z M35.7,62.9
		c-0.1,0.8-0.1,1.4-0.1,1.9c0,1,0,1.6,0.1,2c1-0.7,2.4-2.6,2.4-3.7c0-0.6-0.5-1.1-1.1-1.1C36.4,62,36,62.3,35.7,62.9z"/>
</g>
<polygon fill-rule="evenodd" clip-rule="evenodd" points="54.8,63 102.9,58.1 102.9,55.6 54.8,60.6 "/>
<polygon fill-rule="evenodd" clip-rule="evenodd" points="54.8,59.3 102.9,54.4 102.9,51.9 54.8,56.8 "/>
<polygon fill-rule="evenodd" clip-rule="evenodd" points="112.3,77.9 160.4,73 160.4,70.5 112.3,75.4 "/>
<polygon fill-rule="evenodd" clip-rule="evenodd" points="112.3,81.6 160.4,76.7 160.4,74.2 112.3,79.2 "/>
<polygon fill-rule="evenodd" clip-rule="evenodd" points="176.3,68 224.4,63 224.4,60.6 176.3,65.5 "/>
<polygon fill-rule="evenodd" clip-rule="evenodd" points="176.3,71.7 224.4,66.8 224.4,64.3 176.3,69.2 "/>
<polygon fill-rule="evenodd" clip-rule="evenodd" points="240.4,64.3 288.4,63 288.4,60.6 240.4,61.8 "/>
<polygon fill-rule="evenodd" clip-rule="evenodd" points="240.4,68 288.4,66.8 288.4,64.3 240.4,65.5 "/>
<polygon fill-rule="evenodd" clip-rule="evenodd" points="304.4,63 352.3,68 352.3,65.5 304.4,60.6 "/>
<polygon fill-rule="evenodd" clip-rule="evenodd" points="304.4,66.8 352.3,71.7 352.3,69.2 304.4,64.3 "/>
<polygon fill-rule="evenodd" clip-rule="evenodd" points="368.4,73 416.3,77.9 416.3,75.4 368.4,70.5 "/>
<polygon fill-rule="evenodd" clip-rule="evenodd" points="368.4,76.7 416.3,81.6 416.3,79.2 368.4,74.2 "/>
<polygon fill-rule="evenodd" clip-rule="evenodd" points="438.9,58.1 486.8,63 486.8,60.6 438.9,55.6 "/>
<polygon fill-rule="evenodd" clip-rule="evenodd" points="438.9,54.4 486.8,59.3 486.8,56.8 438.9,51.9 "/>
<rect x="46.3" y="34.1" width="10.5" height="0.8"/>
<rect x="46.3" y="39.1" width="10.5" height="0.8"/>
<rect x="54.6" y="19.8" width="0.5" height="21.4"/>
<g>
	<path d="M48.1,42.8c0-1.8,2.5-3.5,4.5-3.5c1.3,0,2.3,0.7,2.3,1.7c0,1.7-2.5,3.5-4.6,3.5C49.1,44.5,48.1,43.9,48.1,42.8z"/>
</g>
<rect x="62.2" y="34.1" width="10.5" height="0.8"/>
<rect x="62.2" y="39.1" width="10.5" height="0.8"/>
<rect x="70.5" y="19.5" width="0.5" height="19.2"/>
<g>
	<path d="M64.1,40.3c0-1.8,2.5-3.5,4.5-3.5c1.3,0,2.3,0.7,2.3,1.7c0,1.7-2.5,3.5-4.6,3.5C65.1,42.1,64.1,41.4,64.1,40.3z"/>
</g>
<rect x="78.2" y="34.1" width="10.5" height="0.8"/>
<rect x="86.5" y="19" width="0.5" height="17.2"/>
<g>
	<path d="M80.1,37.9c0-1.8,2.5-3.5,4.5-3.5c1.3,0,2.3,0.7,2.3,1.7c0,1.7-2.5,3.5-4.6,3.5C81,39.6,80.1,38.9,80.1,37.9z"/>
</g>
<rect x="94.3" y="34.1" width="10.5" height="0.8"/>
<rect x="102.6" y="18.6" width="0.5" height="15.2"/>
<g>
	<path d="M96.2,35.4c0-1.8,2.5-3.5,4.5-3.5c1.3,0,2.3,0.7,2.3,1.7c0,1.7-2.5,3.5-4.6,3.5C97.2,37.1,96.2,36.5,96.2,35.4z"/>
</g>
<rect x="118.6" y="14.8" width="0.5" height="16.4"/>
<g>
	<path d="M112.2,32.9c0-1.8,2.5-3.5,4.5-3.5c1.3,0,2.3,0.7,2.3,1.7c0,1.7-2.5,3.5-4.6,3.5C113.1,34.6,112.2,34,112.2,32.9z"/>
</g>
<rect x="134.6" y="13.3" width="0.5" height="15.5"/>
<g>
	<path d="M128.1,30.4c0-1.8,2.5-3.5,4.5-3.5c1.3,0,2.3,0.7,2.3,1.7c0,1.7-2.5,3.5-4.6,3.5C129.1,32.1,128.1,31.5,128.1,30.4z"/>
</g>
<rect x="150.5" y="11.6" width="0.5" height="14.7"/>
<g>
	<path d="M144.1,27.9c0-1.8,2.5-3.5,4.5-3.5c1.3,0,2.3,0.7,2.3,1.7c0,1.7-2.5,3.5-4.6,3.5C145.1,29.7,144.1,29,144.1,27.9z"/>
</g>
<rect x="166.7" y="9.9" width="0.5" height="14"/>
<g>
	<path d="M160.2,25.5c0-1.8,2.5-3.5,4.5-3.5c1.3,0,2.3,0.7,2.3,1.7c0,1.7-2.5,3.5-4.6,3.5C161.2,27.2,160.2,26.5,160.2,25.5z"/>
</g>
<rect x="176.1" y="22.9" width="0.5" height="16.4"/>
<g>
	<path d="M176.2,23c0-1.8,2.5-3.5,4.5-3.5c1.3,0,2.3,0.7,2.3,1.7c0,1.7-2.5,3.5-4.6,3.5C177.2,24.7,176.2,24.1,176.2,23z"/>
</g>
<rect x="192.1" y="20.4" width="0.5" height="17.4"/>
<g>
	<path d="M192.2,20.5c0-1.8,2.5-3.5,4.5-3.5c1.3,0,2.3,0.7,2.3,1.7c0,1.7-2.5,3.5-4.6,3.5C193.1,22.2,192.2,21.6,192.2,20.5z"/>
</g>
<rect x="208" y="17.9" width="0.5" height="18.1"/>
<g>
	<path d="M208.1,18c0-1.8,2.5-3.5,4.5-3.5c1.3,0,2.3,0.7,2.3,1.7c0,1.7-2.5,3.5-4.6,3.5C209.1,19.7,208.1,19.1,208.1,18z"/>
</g>
<rect x="224.2" y="15.5" width="0.5" height="18.9"/>
<g>
	<path d="M224.2,15.5c0-1.8,2.5-3.5,4.5-3.5c1.3,0,2.3,0.7,2.3,1.7c0,1.7-2.5,3.5-4.6,3.5C225.2,17.3,224.2,16.6,224.2,15.5z"/>
</g>
<rect x="240.1" y="13" width="0.5" height="17.7"/>
<g>
	<path d="M240.2,13c0-1.8,2.5-3.5,4.5-3.5c1.3,0,2.3,0.7,2.3,1.7c0,1.7-2.5,3.5-4.6,3.5C241.2,14.8,240.2,14.1,240.2,13z"/>
</g>
<rect x="256.1" y="10.5" width="0.5" height="19.8"/>
<g>
	<path d="M256.2,10.6c0-1.8,2.5-3.5,4.5-3.5c1.3,0,2.3,0.7,2.3,1.7c0,1.7-2.5,3.5-4.6,3.5C257.1,12.3,256.2,11.7,256.2,10.6z"/>
</g>
<rect x="272.1" y="8" width="0.5" height="21.9"/>
<g>
	<path d="M272.1,8.1c0-1.8,2.5-3.5,4.5-3.5c1.3,0,2.3,0.7,2.3,1.7c0,1.7-2.5,3.5-4.6,3.5C273.1,9.8,272.1,9.2,272.1,8.1z"/>
</g>
<rect x="288.2" y="10.5" width="0.5" height="18.9"/>
<g>
	<path d="M288.3,10.6c0-1.8,2.5-3.5,4.5-3.5c1.3,0,2.3,0.7,2.3,1.7c0,1.7-2.5,3.5-4.6,3.5C289.2,12.3,288.3,11.7,288.3,10.6z"/>
</g>
<rect x="304.2" y="13" width="0.5" height="16.4"/>
<g>
	<path d="M304.2,13c0-1.8,2.5-3.5,4.5-3.5c1.3,0,2.3,0.7,2.3,1.7c0,1.7-2.5,3.5-4.6,3.5C305.2,14.8,304.2,14.1,304.2,13z"/>
</g>
<rect x="320.1" y="15.5" width="0.5" height="15.5"/>
<g>
	<path d="M320.2,15.5c0-1.8,2.5-3.5,4.5-3.5c1.3,0,2.3,0.7,2.3,1.7c0,1.7-2.5,3.5-4.6,3.5C321.2,17.3,320.2,16.6,320.2,15.5z"/>
</g>
<rect x="336.1" y="17.9" width="0.5" height="14.7"/>
<g>
	<path d="M336.2,18c0-1.8,2.5-3.5,4.5-3.5c1.3,0,2.3,0.7,2.3,1.7c0,1.7-2.5,3.5-4.6,3.5C337.1,19.7,336.2,19.1,336.2,18z"/>
</g>
<rect x="352.1" y="20.4" width="0.5" height="14"/>
<g>
	<path d="M352.1,20.5c0-1.8,2.5-3.5,4.5-3.5c1.3,0,2.3,0.7,2.3,1.7c0,1.7-2.5,3.5-4.6,3.5C353.1,22.2,352.1,21.6,352.1,20.5z"/>
</g>
<rect x="374.7" y="4.9" width="0.5" height="16.4"/>
<g>
	<path d="M368.2,23c0-1.8,2.5-3.5,4.5-3.5c1.3,0,2.3,0.7,2.3,1.7c0,1.7-2.5,3.5-4.6,3.5C369.2,24.7,368.2,24.1,368.2,23z"/>
</g>
<rect x="390.6" y="6.5" width="0.5" height="17.4"/>
<g>
	<path d="M384.2,25.5c0-1.8,2.5-3.5,4.5-3.5c1.3,0,2.3,0.7,2.3,1.7c0,1.7-2.5,3.5-4.6,3.5C385.2,27.2,384.2,26.5,384.2,25.5z"/>
</g>
<rect x="406.6" y="8.2" width="0.5" height="18.1"/>
<g>
	<path d="M400.2,27.9c0-1.8,2.5-3.5,4.5-3.5c1.3,0,2.3,0.7,2.3,1.7c0,1.7-2.5,3.5-4.6,3.5C401.2,29.7,400.2,29,400.2,27.9z"/>
</g>
<rect x="422.6" y="9.9" width="0.5" height="18.9"/>
<g>
	<path d="M416.1,30.4c0-1.8,2.5-3.5,4.5-3.5c1.3,0,2.3,0.7,2.3,1.7c0,1.7-2.5,3.5-4.6,3.5C417.1,32.1,416.1,31.5,416.1,30.4z"/>
</g>
<rect x="438.7" y="14.8" width="0.5" height="16.4"/>
<g>
	<path d="M432.3,32.9c0-1.8,2.5-3.5,4.5-3.5c1.3,0,2.3,0.7,2.3,1.7c0,1.7-2.5,3.5-4.6,3.5C433.2,34.6,432.3,34,432.3,32.9z"/>
</g>
<rect x="446.4" y="34.1" width="10.5" height="0.8"/>
<rect x="454.7" y="16.4" width="0.5" height="17.4"/>
<g>
	<path d="M448.2,35.4c0-1.8,2.5-3.5,4.5-3.5c1.3,0,2.3,0.7,2.3,1.7c0,1.7-2.5,3.5-4.6,3.5C449.2,37.1,448.2,36.5,448.2,35.4z"/>
</g>
<rect x="462.3" y="34.1" width="10.5" height="0.8"/>
<rect x="470.6" y="18.1" width="0.5" height="18.1"/>
<g>
	<path d="M464.2,37.9c0-1.8,2.5-3.5,4.5-3.5c1.3,0,2.3,0.7,2.3,1.7c0,1.7-2.5,3.5-4.6,3.5C465.2,39.6,464.2,38.9,464.2,37.9z"/>
</g>
<rect x="478.3" y="34.1" width="10.5" height="0.8"/>
<rect x="478.3" y="39.1" width="10.5" height="0.8"/>
<rect x="486.6" y="19.8" width="0.5" height="18.9"/>
<g>
	<path d="M480.2,40.3c0-1.8,2.5-3.5,4.5-3.5c1.3,0,2.3,0.7,2.3,1.7c0,1.7-2.5,3.5-4.6,3.5C481.1,42.1,480.2,41.4,480.2,40.3z"/>
</g>
<rect x="494.4" y="34.1" width="10.7" height="0.8"/>
<rect x="494.4" y="39.1" width="10.7" height="0.8"/>
<rect x="502.9" y="19.6" width="0.5" height="21.5"/>
<g>
	<path d="M500.6,39.3c1.6,0,2.7,0.7,2.7,2c0,1.9-2.3,3.4-4.5,3.4c-1.3,0-2.4-0.7-2.4-1.8C496.3,41,498.5,39.3,500.6,39.3z
		 M496.7,43.1c0,0.6,0.4,0.9,1.1,0.9c1.4,0,4.9-2.1,4.9-3.3c0-0.6-0.4-0.9-1.1-0.9C500.4,39.9,496.7,41.9,496.7,43.1z"/>
</g>
<rect x="54.6" y="57" width="0.5" height="18.9"/>
<g>
	<path d="M48.1,77.5c0-1.8,2.5-3.5,4.5-3.5c1.3,0,2.3,0.7,2.3,1.7c0,1.7-2.5,3.5-4.6,3.5C49.1,79.3,48.1,78.6,48.1,77.5z"/>
</g>
<rect x="70.5" y="55.4" width="0.5" height="18"/>
<g>
	<path d="M64.1,75.1c0-1.8,2.5-3.5,4.5-3.5c1.3,0,2.3,0.7,2.3,1.7c0,1.7-2.5,3.5-4.6,3.5C65.1,76.8,64.1,76.1,64.1,75.1z"/>
</g>
<rect x="86.5" y="53.7" width="0.5" height="17.2"/>
<g>
	<path d="M80.1,72.6c0-1.8,2.5-3.5,4.5-3.5c1.3,0,2.3,0.7,2.3,1.7c0,1.7-2.5,3.5-4.6,3.5C81,74.3,80.1,73.7,80.1,72.6z"/>
</g>
<rect x="102.6" y="52" width="0.5" height="16.4"/>
<g>
	<path d="M96.2,70.1c0-1.8,2.5-3.5,4.5-3.5c1.3,0,2.3,0.7,2.3,1.7c0,1.7-2.5,3.5-4.6,3.5C97.2,71.8,96.2,71.2,96.2,70.1z"/>
</g>
<rect x="112.1" y="67.5" width="0.5" height="14"/>
<g>
	<path d="M112.2,67.6c0-1.8,2.5-3.5,4.5-3.5c1.3,0,2.3,0.7,2.3,1.7c0,1.7-2.5,3.5-4.6,3.5C113.1,69.3,112.2,68.7,112.2,67.6z"/>
</g>
<rect x="128.1" y="65.1" width="0.5" height="14.9"/>
<g>
	<path d="M128.1,65.1c0-1.8,2.5-3.5,4.5-3.5c1.3,0,2.3,0.7,2.3,1.7c0,1.7-2.5,3.5-4.6,3.5C129.1,66.9,128.1,66.2,128.1,65.1z"/>
</g>
<rect x="144" y="62.6" width="0.5" height="15.7"/>
<g>
	<path d="M144.1,62.7c0-1.8,2.5-3.5,4.5-3.5c1.3,0,2.3,0.7,2.3,1.7c0,1.7-2.5,3.5-4.6,3.5C145.1,64.4,144.1,63.7,144.1,62.7z"/>
</g>
<rect x="160.1" y="60.1" width="0.5" height="16.4"/>
<g>
	<path d="M160.2,60.2c0-1.8,2.5-3.5,4.5-3.5c1.3,0,2.3,0.7,2.3,1.7c0,1.7-2.5,3.5-4.6,3.5C161.2,61.9,160.2,61.3,160.2,60.2z"/>
</g>
<rect x="176.1" y="57.6" width="0.5" height="14"/>
<g>
	<path d="M176.2,57.7c0-1.8,2.5-3.5,4.5-3.5c1.3,0,2.3,0.7,2.3,1.7c0,1.7-2.5,3.5-4.6,3.5C177.2,59.4,176.2,58.8,176.2,57.7z"/>
</g>
<rect x="192.1" y="55.1" width="0.5" height="14.9"/>
<g>
	<path d="M192.2,55.2c0-1.8,2.5-3.5,4.5-3.5c1.3,0,2.3,0.7,2.3,1.7c0,1.7-2.5,3.5-4.6,3.5C193.1,56.9,192.2,56.3,192.2,55.2z"/>
</g>
<rect x="206.3" y="51.5" width="10.5" height="0.8"/>
<rect x="208" y="52.7" width="0.5" height="15.7"/>
<g>
	<path d="M208.1,52.7c0-1.8,2.5-3.5,4.5-3.5c1.3,0,2.3,0.7,2.3,1.7c0,1.7-2.5,3.5-4.6,3.5C209.1,54.5,208.1,53.8,208.1,52.7z"/>
</g>
<rect x="222.4" y="51.5" width="10.5" height="0.8"/>
<rect x="224.2" y="50.2" width="0.5" height="16.4"/>
<g>
	<path d="M224.2,50.3c0-1.8,2.5-3.5,4.5-3.5c1.3,0,2.3,0.7,2.3,1.7c0,1.7-2.5,3.5-4.6,3.5C225.2,52,224.2,51.3,224.2,50.3z"/>
</g>
<rect x="238.3" y="51.5" width="10.5" height="0.8"/>
<rect x="238.3" y="46.5" width="10.5" height="0.8"/>
<rect x="240.1" y="47.7" width="0.5" height="20.2"/>
<g>
	<path d="M240.2,47.8c0-1.8,2.5-3.5,4.5-3.5c1.3,0,2.3,0.7,2.3,1.7c0,1.7-2.5,3.5-4.6,3.5C241.2,49.5,240.2,48.9,240.2,47.8z"/>
</g>
<rect x="254.3" y="51.5" width="10.5" height="0.8"/>
<rect x="254.3" y="46.5" width="10.5" height="0.8"/>
<rect x="256.1" y="45.2" width="0.5" height="22.3"/>
<g>
	<path d="M256.2,45.3c0-1.8,2.5-3.5,4.5-3.5c1.3,0,2.3,0.7,2.3,1.7c0,1.7-2.5,3.5-4.6,3.5C257.1,47,256.2,46.4,256.2,45.3z"/>
</g>
<rect x="270.3" y="51.5" width="10.5" height="0.8"/>
<rect x="270.3" y="46.5" width="10.5" height="0.8"/>
<rect x="270.3" y="41.6" width="10.5" height="0.8"/>
<rect x="272.1" y="42.7" width="0.5" height="24.3"/>
<g>
	<path d="M272.1,42.8c0-1.8,2.5-3.5,4.5-3.5c1.3,0,2.3,0.7,2.3,1.7c0,1.7-2.5,3.5-4.6,3.5C273.1,44.5,272.1,43.9,272.1,42.8z"/>
</g>
<rect x="286.4" y="51.5" width="10.5" height="0.8"/>
<rect x="286.4" y="46.5" width="10.5" height="0.8"/>
<rect x="288.2" y="45.2" width="0.5" height="21.4"/>
<g>
	<path d="M288.3,45.3c0-1.8,2.5-3.5,4.5-3.5c1.3,0,2.3,0.7,2.3,1.7c0,1.7-2.5,3.5-4.6,3.5C289.2,47,288.3,46.4,288.3,45.3z"/>
</g>
<rect x="302.4" y="51.5" width="10.5" height="0.8"/>
<rect x="302.4" y="46.5" width="10.5" height="0.8"/>
<rect x="304.2" y="47.7" width="0.5" height="18.9"/>
<g>
	<path d="M304.2,47.8c0-1.8,2.5-3.5,4.5-3.5c1.3,0,2.3,0.7,2.3,1.7c0,1.7-2.5,3.5-4.6,3.5C305.2,49.5,304.2,48.9,304.2,47.8z"/>
</g>
<rect x="318.3" y="51.5" width="10.5" height="0.8"/>
<rect x="320.1" y="50.2" width="0.5" height="18"/>
<g>
	<path d="M320.2,50.3c0-1.8,2.5-3.5,4.5-3.5c1.3,0,2.3,0.7,2.3,1.7c0,1.7-2.5,3.5-4.6,3.5C321.2,52,320.2,51.3,320.2,50.3z"/>
</g>
<rect x="334.3" y="51.5" width="10.5" height="0.8"/>
<rect x="336.1" y="52.7" width="0.5" height="17.2"/>
<g>
	<path d="M336.2,52.7c0-1.8,2.5-3.5,4.5-3.5c1.3,0,2.3,0.7,2.3,1.7c0,1.7-2.5,3.5-4.6,3.5C337.1,54.5,336.2,53.8,336.2,52.7z"/>
</g>
<rect x="352.1" y="55.1" width="0.5" height="16.4"/>
<g>
	<path d="M352.1,55.2c0-1.8,2.5-3.5,4.5-3.5c1.3,0,2.3,0.7,2.3,1.7c0,1.7-2.5,3.5-4.6,3.5C353.1,56.9,352.1,56.3,352.1,55.2z"/>
</g>
<rect x="368.2" y="57.6" width="0.5" height="18.9"/>
<g>
	<path d="M368.2,57.7c0-1.8,2.5-3.5,4.5-3.5c1.3,0,2.3,0.7,2.3,1.7c0,1.7-2.5,3.5-4.6,3.5C369.2,59.4,368.2,58.8,368.2,57.7z"/>
</g>
<rect x="384.1" y="60.1" width="0.5" height="18"/>
<g>
	<path d="M384.2,60.2c0-1.8,2.5-3.5,4.5-3.5c1.3,0,2.3,0.7,2.3,1.7c0,1.7-2.5,3.5-4.6,3.5C385.2,61.9,384.2,61.3,384.2,60.2z"/>
</g>
<rect x="400.1" y="62.6" width="0.5" height="17.2"/>
<g>
	<path d="M400.2,62.7c0-1.8,2.5-3.5,4.5-3.5c1.3,0,2.3,0.7,2.3,1.7c0,1.7-2.5,3.5-4.6,3.5C401.2,64.4,400.2,63.7,400.2,62.7z"/>
</g>
<rect x="416.1" y="65.1" width="0.5" height="16.4"/>
<g>
	<path d="M416.1,65.1c0-1.8,2.5-3.5,4.5-3.5c1.3,0,2.3,0.7,2.3,1.7c0,1.7-2.5,3.5-4.6,3.5C417.1,66.9,416.1,66.2,416.1,65.1z"/>
</g>
<rect x="438.7" y="52" width="0.5" height="14"/>
<g>
	<path d="M432.3,67.6c0-1.8,2.5-3.5,4.5-3.5c1.3,0,2.3,0.7,2.3,1.7c0,1.7-2.5,3.5-4.6,3.5C433.2,69.3,432.3,68.7,432.3,67.6z"/>
</g>
<rect x="454.7" y="53.6" width="0.5" height="14.9"/>
<g>
	<path d="M448.2,70.1c0-1.8,2.5-3.5,4.5-3.5c1.3,0,2.3,0.7,2.3,1.7c0,1.7-2.5,3.5-4.6,3.5C449.2,71.8,448.2,71.2,448.2,70.1z"/>
</g>
<rect x="470.6" y="55.3" width="0.5" height="15.7"/>
<g>
	<path d="M464.2,72.6c0-1.8,2.5-3.5,4.5-3.5c1.3,0,2.3,0.7,2.3,1.7c0,1.7-2.5,3.5-4.6,3.5C465.2,74.3,464.2,73.7,464.2,72.6z"/>
</g>
<rect x="486.6" y="57" width="0.5" height="16.4"/>
<g>
	<path d="M480.2,75.1c0-1.8,2.5-3.5,4.5-3.5c1.3,0,2.3,0.7,2.3,1.7c0,1.7-2.5,3.5-4.6,3.5C481.1,76.8,480.2,76.1,480.2,75.1z"/>
</g>
<rect x="502.9" y="59.3" width="0.5" height="16.6"/>
<g>
	<path d="M500.6,74c1.6,0,2.7,0.7,2.7,2c0,1.9-2.3,3.4-4.5,3.4c-1.3,0-2.4-0.7-2.4-1.8C496.3,75.8,498.5,74,500.6,74z M496.7,77.8
		c0,0.6,0.4,0.9,1.1,0.9c1.4,0,4.9-2.1,4.9-3.3c0-0.6-0.4-0.9-1.1-0.9C500.4,74.6,496.7,76.6,496.7,77.8z"/>
</g>
</svg>
