<?xml version="1.0" encoding="utf-8"?>

<!--
	ScaleBook
	Copyright (c) Leland Jansen 2015. All rights reserved.
-->

<!DOCTYPE svg PUBLIC "-//W3C//DTD SVG 1.1//EN" "http://www.w3.org/Graphics/SVG/1.1/DTD/svg11.dtd">
<svg version="1.1" id="Layer_1" xmlns="http://www.w3.org/2000/svg" xmlns:xlink="http://www.w3.org/1999/xlink" x="0px" y="0px"
	 viewBox="0 0 552.9 94.1" enable-background="new 0 0 552.9 94.1" xml:space="preserve">
<rect x="8.4" y="9.7" width="0.8" height="67"/>
<g>
	<path d="M7.4,10.4c-1.9,1.1-3.6,5.8-3.6,9.4c0,2.3,1.4,9.9,1.4,12.3c0,5-1.5,8.6-4.6,11.1c3,2.4,4.6,6.1,4.6,11
		c0,2.3-1.4,9.9-1.4,12.3c0,3.8,1.7,8.4,3.6,9.5v0.7c-3.5-2.3-5.8-8.2-5.8-13.1c0-2.1,1.7-9.4,1.7-11.5c0-3.8-1-6.6-2.9-8.2
		C0.1,43.6,0,43.4,0,43.2s0.1-0.4,0.5-0.7c1.9-1.7,2.9-4.2,2.9-7.6c0-2.1-1.7-10-1.7-12.2c0-5.2,2.1-10.4,5.8-13.1V10.4z"/>
</g>
<rect x="547.8" y="9.7" width="0.8" height="67"/>
<rect x="550.4" y="9.7" width="2.5" height="67"/>
<rect x="8.5" y="29.3" width="544.4" height="0.5"/>
<rect x="8.5" y="24.4" width="544.4" height="0.5"/>
<rect x="8.5" y="19.4" width="544.4" height="0.5"/>
<rect x="8.5" y="14.4" width="544.4" height="0.5"/>
<rect x="8.5" y="9.5" width="544.4" height="0.5"/>
<g>
	<path d="M20.3,29.4c-4.2,0-8.1-3.1-8.1-6.9c0-3.2,2.3-6.7,6.8-10.5c-0.3-1.2-0.4-2.4-0.4-3.6c0-3.5,1.2-6.8,3.2-8.5
		c1.8,2.5,2.7,4.9,2.7,7.1c0,2.9-1.3,5.6-4.3,8.1l0.9,4.2c0.5,0,0.8-0.1,0.8-0.1c2.6,0,4.8,2,4.8,4.7c0,1.9-1.4,3.7-3.6,4.8
		c0-0.1,0.9,3.8,0.9,4.3c0,2.5-2.3,4.2-4.9,4.2c-2,0-3.6-1.3-3.6-3.4c0-1.4,1-2.6,2.4-2.6c1.3,0,2.3,1.3,2.3,2.5
		c0,1.4-1.2,2.3-2.7,2.5c0.6,0.3,1.2,0.5,1.9,0.5c2.1,0,4.1-1.6,4.1-3.6c0-0.2,0-0.4-0.1-0.6l-0.8-3.7
		C21.9,29.3,21.2,29.4,20.3,29.4z M18.1,24.2c0,1,0.5,1.9,1.6,2.5c-1.8-0.3-3-1.4-3-3.1c0-2,1.7-3.7,3.8-4.1l-0.8-4
		C16,18.3,14,21,14,23.6c0,2.9,2.8,5.3,6,5.3c0.9,0,1.7-0.2,2.4-0.5L21,21.6C19.4,21.8,18.1,22.8,18.1,24.2z M22.1,2.8
		c-1.6,0-2.9,3.7-2.9,7c0,0.7,0,1.3,0.2,1.9c2.7-2.4,4-4.5,4-6.5c0-0.9-0.3-1.7-1-2.4C22.4,2.9,22.3,2.8,22.1,2.8z M24.9,24.7
		c0-1.6-1.2-3.3-2.9-3.3c-0.1,0-0.2,0-0.5,0l1.4,6.6C24.2,27.2,24.9,26,24.9,24.7z"/>
</g>
<g>
	<path d="M33.5,2.9v2.8l1-0.3v1.8l-1,0.3V11l1-0.3v1.8l-1,0.3v3.1H33v-3l-1.9,0.6v3h-0.5v-2.8l-1,0.3v-1.8l1-0.3V8.4l-1,0.3V7l1-0.3
		V3.5h0.5v3L33,5.9v-3H33.5z M33,7.7l-1.9,0.6v3.4l1.9-0.6V7.7z"/>
</g>
<g>
	<path d="M39.7,10.3v2.8l1-0.3v1.8l-1,0.3v3.4l1-0.3v1.8l-1,0.3v3.1h-0.5v-3L37.3,21v3h-0.5v-2.8l-1,0.3v-1.8l1-0.3v-3.4l-1,0.3
		v-1.8l1-0.3V11h0.5v3l1.9-0.6v-3H39.7z M39.2,15.1l-1.9,0.6v3.4l1.9-0.6V15.1z"/>
</g>
<g>
	<path d="M45.9,0.4v2.8l1-0.3v1.8l-1,0.3v3.4l1-0.3V10l-1,0.3v3.1h-0.5v-3l-1.9,0.6v3H43v-2.8l-1,0.3V9.7l1-0.3V6l-1,0.3V4.5l1-0.3
		V1h0.5v3l1.9-0.6v-3H45.9z M45.4,5.2l-1.9,0.6v3.4l1.9-0.6V5.2z"/>
</g>
<g>
	<path d="M52.1,7.9v2.8l1-0.3v1.8l-1,0.3v3.4l1-0.3v1.8l-1,0.3v3.1h-0.5v-3l-1.9,0.6v3h-0.5v-2.8l-1,0.3v-1.8l1-0.3v-3.4l-1,0.3
		v-1.8l1-0.3V8.5h0.5v3l1.9-0.6v-3H52.1z M51.6,12.6l-1.9,0.6v3.4l1.9-0.6V12.6z"/>
</g>
<g>
	<path d="M58.3,15.3v2.8l1-0.3v1.8l-1,0.3v3.4l1-0.3v1.8l-1,0.3v3.1h-0.5v-3l-1.9,0.6v3h-0.5v-2.8l-1,0.3v-1.8l1-0.3v-3.4l-1,0.3
		v-1.8l1-0.3v-3.1h0.5v3l1.9-0.6v-3H58.3z M57.8,20.1l-1.9,0.6v3.4l1.9-0.6V20.1z"/>
</g>
<g>
	<path d="M64.5,5.4v2.8l1-0.3v1.8l-1,0.3v3.4l1-0.3v1.8l-1,0.3v3.1H64v-3L62.1,16v3h-0.5v-2.8l-1,0.3v-1.8l1-0.3v-3.4l-1,0.3V9.5
		l1-0.3V6h0.5v3L64,8.3v-3H64.5z M64,10.2l-1.9,0.6v3.4l1.9-0.6V10.2z"/>
</g>
<g>
	<path d="M70.7,12.8v2.8l1-0.3v1.8l-1,0.3v3.4l1-0.3v1.8l-1,0.3v3.1h-0.5v-3l-1.9,0.6v3h-0.5v-2.8l-1,0.3v-1.8l1-0.3v-3.4l-1,0.3
		v-1.8l1-0.3v-3.1h0.5v3l1.9-0.6v-3H70.7z M70.2,17.6l-1.9,0.6v3.4l1.9-0.6V17.6z"/>
</g>
<polygon fill-rule="evenodd" clip-rule="evenodd" points="87.1,25.8 132,20.9 132,18.4 87.1,23.4 "/>
<polygon fill-rule="evenodd" clip-rule="evenodd" points="87.1,22.1 132,17.2 132,14.7 87.1,19.6 "/>
<polygon fill-rule="evenodd" clip-rule="evenodd" points="146.9,15.9 191.8,11 191.8,8.5 146.9,13.4 "/>
<polygon fill-rule="evenodd" clip-rule="evenodd" points="146.9,12.2 191.8,7.2 191.8,4.8 146.9,9.7 "/>
<polygon fill-rule="evenodd" clip-rule="evenodd" points="200.2,30.8 245.2,25.8 245.2,23.4 200.2,28.3 "/>
<polygon fill-rule="evenodd" clip-rule="evenodd" points="200.2,34.5 245.2,29.6 245.2,27.1 200.2,32 "/>
<polygon fill-rule="evenodd" clip-rule="evenodd" points="260,22.1 305,20.9 305,18.4 260,19.6 "/>
<polygon fill-rule="evenodd" clip-rule="evenodd" points="260,25.8 305,24.6 305,22.1 260,23.4 "/>
<polygon fill-rule="evenodd" clip-rule="evenodd" points="320,25.8 364.8,30.8 364.8,28.3 320,23.4 "/>
<polygon fill-rule="evenodd" clip-rule="evenodd" points="320,29.6 364.8,34.5 364.8,32 320,27.1 "/>
<polygon fill-rule="evenodd" clip-rule="evenodd" points="386.4,11 431.2,15.9 431.2,13.4 386.4,8.5 "/>
<polygon fill-rule="evenodd" clip-rule="evenodd" points="386.4,7.2 431.2,12.2 431.2,9.7 386.4,4.8 "/>
<polygon fill-rule="evenodd" clip-rule="evenodd" points="446.2,20.9 491.2,25.8 491.2,23.4 446.2,18.4 "/>
<polygon fill-rule="evenodd" clip-rule="evenodd" points="446.2,17.2 491.2,22.1 491.2,19.6 446.2,14.7 "/>
<rect x="8.5" y="76.4" width="544.4" height="0.5"/>
<rect x="8.5" y="71.5" width="544.4" height="0.5"/>
<rect x="8.5" y="66.5" width="544.4" height="0.5"/>
<rect x="8.5" y="61.6" width="544.4" height="0.5"/>
<rect x="8.5" y="56.6" width="544.4" height="0.5"/>
<g>
	<path d="M15.7,71c2.9-2.6,4.7-6.1,4.7-9.2c0-2.5-1.4-4.4-3.7-4.4c-1.6,0-3.4,1.3-3.4,2.7c0,0.2,0,0.3,0.1,0.3
		c-0.1,0,0.6-0.6,1.4-0.6c0.9,0,1.5,0.8,1.5,1.7c0,1.2-0.9,2.2-2.1,2.2c-1.2,0-2.1-1.3-2.1-2.8c0-2.3,2.3-4.1,4.8-4.1
		c4.7,0,5.9,3.2,5.9,5.8c0,1.6-0.4,2.9-2,5.3c-1.9,3.1-6.4,5.3-8.1,5.3c-0.4,0-0.6-0.2-0.6-0.5C13.8,72.3,14.9,71.7,15.7,71z
		 M25.7,58.3c0.6,0,1,0.4,1,1s-0.4,1-1,1s-1-0.4-1-1S25.1,58.3,25.7,58.3z M25.7,63.3c0.6,0,1,0.4,1,1s-0.4,1-1,1s-1-0.4-1-1
		S25.1,63.3,25.7,63.3z"/>
</g>
<g>
	<path d="M33.5,55v2.8l1-0.3v1.8l-1,0.3V63l1-0.3v1.8l-1,0.3V68H33v-3l-1.9,0.6v3h-0.5v-2.8l-1,0.3v-1.8l1-0.3v-3.4l-1,0.3v-1.8
		l1-0.3v-3.1h0.5v3L33,58v-3H33.5z M33,59.8l-1.9,0.6v3.4l1.9-0.6V59.8z"/>
</g>
<g>
	<path d="M39.7,62.4v2.8l1-0.3v1.8l-1,0.3v3.4l1-0.3V72l-1,0.3v3.1h-0.5v-3l-1.9,0.6v3h-0.5v-2.8l-1,0.3v-1.8l1-0.3V68l-1,0.3v-1.8
		l1-0.3v-3.1h0.5v3l1.9-0.6v-3H39.7z M39.2,67.2l-1.9,0.6v3.4l1.9-0.6V67.2z"/>
</g>
<g>
	<path d="M45.9,52.5v2.8l1-0.3v1.8l-1,0.3v3.4l1-0.3V62l-1,0.3v3.1h-0.5v-3l-1.9,0.6v3H43v-2.8l-1,0.3v-1.8l1-0.3V58l-1,0.3v-1.8
		l1-0.3v-3.1h0.5v3l1.9-0.6v-3H45.9z M45.4,57.3l-1.9,0.6v3.4l1.9-0.6V57.3z"/>
</g>
<g>
	<path d="M52.1,59.9v2.8l1-0.3v1.8l-1,0.3V68l1-0.3v1.8l-1,0.3v3.1h-0.5v-3l-1.9,0.6v3h-0.5v-2.8l-1,0.3v-1.8l1-0.3v-3.4l-1,0.3V64
		l1-0.3v-3.1h0.5v3l1.9-0.6v-3H52.1z M51.6,64.7l-1.9,0.6v3.4l1.9-0.6V64.7z"/>
</g>
<g>
	<path d="M58.3,67.4v2.8l1-0.3v1.8l-1,0.3v3.4l1-0.3v1.8l-1,0.3v3.1h-0.5v-3L55.9,78v3h-0.5v-2.8l-1,0.3v-1.8l1-0.3v-3.4l-1,0.3
		v-1.8l1-0.3V68h0.5v3l1.9-0.6v-3H58.3z M57.8,72.2l-1.9,0.6v3.4l1.9-0.6V72.2z"/>
</g>
<g>
	<path d="M64.5,57.5v2.8l1-0.3v1.8l-1,0.3v3.4l1-0.3V67l-1,0.3v3.1H64v-3l-1.9,0.6v3h-0.5v-2.8l-1,0.3v-1.8l1-0.3V63l-1,0.3v-1.8
		l1-0.3v-3.1h0.5v3l1.9-0.6v-3H64.5z M64,62.2l-1.9,0.6v3.4l1.9-0.6V62.2z"/>
</g>
<g>
	<path d="M70.7,64.9v2.8l1-0.3v1.8l-1,0.3V73l1-0.3v1.8l-1,0.3v3.1h-0.5v-3l-1.9,0.6v3h-0.5v-2.8l-1,0.3v-1.8l1-0.3v-3.4l-1,0.3V69
		l1-0.3v-3.1h0.5v3l1.9-0.6v-3H70.7z M70.2,69.7l-1.9,0.6v3.4l1.9-0.6V69.7z"/>
</g>
<polygon fill-rule="evenodd" clip-rule="evenodd" points="80.5,73 125.5,77.9 125.5,75.4 80.5,70.5 "/>
<polygon fill-rule="evenodd" clip-rule="evenodd" points="80.5,76.7 125.5,81.6 125.5,79.2 80.5,74.2 "/>
<polygon fill-rule="evenodd" clip-rule="evenodd" points="146.9,58.1 191.8,63 191.8,60.6 146.9,55.6 "/>
<polygon fill-rule="evenodd" clip-rule="evenodd" points="146.9,54.4 191.8,59.3 191.8,56.8 146.9,51.9 "/>
<polygon fill-rule="evenodd" clip-rule="evenodd" points="206.7,68 251.7,73 251.7,70.5 206.7,65.5 "/>
<polygon fill-rule="evenodd" clip-rule="evenodd" points="206.7,64.3 251.7,69.2 251.7,66.8 206.7,61.8 "/>
<polygon fill-rule="evenodd" clip-rule="evenodd" points="266.6,71.7 311.5,73 311.5,70.5 266.6,69.2 "/>
<polygon fill-rule="evenodd" clip-rule="evenodd" points="266.6,68 311.5,69.2 311.5,66.8 266.6,65.5 "/>
<polygon fill-rule="evenodd" clip-rule="evenodd" points="326.6,73 371.4,68 371.4,65.5 326.6,70.5 "/>
<polygon fill-rule="evenodd" clip-rule="evenodd" points="326.6,69.2 371.4,64.3 371.4,61.8 326.6,66.8 "/>
<polygon fill-rule="evenodd" clip-rule="evenodd" points="386.4,63 431.2,58.1 431.2,55.6 386.4,60.6 "/>
<polygon fill-rule="evenodd" clip-rule="evenodd" points="386.4,59.3 431.2,54.4 431.2,51.9 386.4,56.8 "/>
<polygon fill-rule="evenodd" clip-rule="evenodd" points="439.7,77.9 484.7,73 484.7,70.5 439.7,75.4 "/>
<polygon fill-rule="evenodd" clip-rule="evenodd" points="439.7,81.6 484.7,76.7 484.7,74.2 439.7,79.2 "/>
<rect x="78.5" y="34.1" width="10.5" height="0.8"/>
<rect x="78.5" y="39.1" width="10.5" height="0.8"/>
<rect x="86.8" y="19.8" width="0.5" height="18.9"/>
<g>
	<path d="M80.4,40.3c0-1.8,2.5-3.5,4.5-3.5c1.3,0,2.3,0.7,2.3,1.7c0,1.7-2.5,3.5-4.6,3.5C81.4,42.1,80.4,41.4,80.4,40.3z"/>
</g>
<rect x="93.6" y="34.1" width="10.5" height="0.8"/>
<rect x="101.9" y="18.2" width="0.5" height="18"/>
<g>
	<path d="M95.4,37.9c0-1.8,2.5-3.5,4.5-3.5c1.3,0,2.3,0.7,2.3,1.7c0,1.7-2.5,3.5-4.6,3.5C96.4,39.6,95.4,38.9,95.4,37.9z"/>
</g>
<rect x="108.4" y="34.1" width="10.5" height="0.8"/>
<rect x="116.7" y="16.5" width="0.5" height="17.2"/>
<g>
	<path d="M110.3,35.4c0-1.8,2.5-3.5,4.5-3.5c1.3,0,2.3,0.7,2.3,1.7c0,1.7-2.5,3.5-4.6,3.5C111.3,37.1,110.3,36.5,110.3,35.4z"/>
</g>
<rect x="131.8" y="14.8" width="0.5" height="16.4"/>
<g>
	<path d="M125.3,32.9c0-1.8,2.5-3.5,4.5-3.5c1.3,0,2.3,0.7,2.3,1.7c0,1.7-2.5,3.5-4.6,3.5C126.3,34.6,125.3,34,125.3,32.9z"/>
</g>
<rect x="146.7" y="9.9" width="0.5" height="18.9"/>
<g>
	<path d="M140.2,30.4c0-1.8,2.5-3.5,4.5-3.5c1.3,0,2.3,0.7,2.3,1.7c0,1.7-2.5,3.5-4.6,3.5C141.2,32.1,140.2,31.5,140.2,30.4z"/>
</g>
<rect x="161.7" y="8.3" width="0.5" height="18"/>
<g>
	<path d="M155.3,27.9c0-1.8,2.5-3.5,4.5-3.5c1.3,0,2.3,0.7,2.3,1.7c0,1.7-2.5,3.5-4.6,3.5C156.2,29.7,155.3,29,155.3,27.9z"/>
</g>
<rect x="176.6" y="6.6" width="0.5" height="17.2"/>
<g>
	<path d="M170.1,25.5c0-1.8,2.5-3.5,4.5-3.5c1.3,0,2.3,0.7,2.3,1.7c0,1.7-2.5,3.5-4.6,3.5C171.1,27.2,170.1,26.5,170.1,25.5z"/>
</g>
<g>
	<path d="M167.2,27.1c0-0.8-0.4-1.5-1.1-2.2c-0.7,0.7-1.1,1.4-1.1,2.2h-1.4v-1.4c0.8,0,1.5-0.3,2.2-1c-0.7-0.7-1.4-1.1-2.2-1.1v-1.4
		h1.4c0,0.8,0.4,1.5,1.1,2.2c0.7-0.7,1.1-1.4,1.1-2.2h1.4v1.4c-0.8,0-1.5,0.4-2.2,1.1c0.7,0.7,1.4,1,2,1h0.2v1.4H167.2z"/>
</g>
<rect x="191.6" y="4.9" width="0.5" height="16.4"/>
<g>
	<path d="M185.2,23c0-1.8,2.5-3.5,4.5-3.5c1.3,0,2.3,0.7,2.3,1.7c0,1.7-2.5,3.5-4.6,3.5C186.1,24.7,185.2,24.1,185.2,23z"/>
</g>
<rect x="200" y="20.4" width="0.5" height="14"/>
<g>
	<path d="M200.1,20.5c0-1.8,2.5-3.5,4.5-3.5c1.3,0,2.3,0.7,2.3,1.7c0,1.7-2.5,3.5-4.6,3.5C201,22.2,200.1,21.6,200.1,20.5z"/>
</g>
<rect x="215" y="17.9" width="0.5" height="14.9"/>
<g>
	<path d="M215.1,18c0-1.8,2.5-3.5,4.5-3.5c1.3,0,2.3,0.7,2.3,1.7c0,1.7-2.5,3.5-4.6,3.5C216.1,19.7,215.1,19.1,215.1,18z"/>
</g>
<rect x="229.9" y="15.5" width="0.5" height="15.7"/>
<g>
	<path d="M230,15.5c0-1.8,2.5-3.5,4.5-3.5c1.3,0,2.3,0.7,2.3,1.7c0,1.7-2.5,3.5-4.6,3.5C230.9,17.3,230,16.6,230,15.5z"/>
</g>
<rect x="244.9" y="13" width="0.5" height="16.4"/>
<g>
	<path d="M245,13c0-1.8,2.5-3.5,4.5-3.5c1.3,0,2.3,0.7,2.3,1.7c0,1.7-2.5,3.5-4.6,3.5C246,14.8,245,14.1,245,13z"/>
</g>
<rect x="259.8" y="10.5" width="0.5" height="15.2"/>
<g>
	<path d="M259.9,10.6c0-1.8,2.5-3.5,4.5-3.5c1.3,0,2.3,0.7,2.3,1.7c0,1.7-2.5,3.5-4.6,3.5C260.9,12.3,259.9,11.7,259.9,10.6z"/>
</g>
<rect x="274.9" y="8" width="0.5" height="17.4"/>
<g>
	<path d="M274.9,8.1c0-1.8,2.5-3.5,4.5-3.5c1.3,0,2.3,0.7,2.3,1.7c0,1.7-2.5,3.5-4.6,3.5C275.9,9.8,274.9,9.2,274.9,8.1z"/>
</g>
<g>
	<path d="M272,9.7c0-0.8-0.4-1.5-1.1-2.2c-0.7,0.7-1.1,1.4-1.1,2.2h-1.4V8.3c0.8,0,1.5-0.3,2.2-1c-0.7-0.7-1.4-1.1-2.2-1.1V4.7h1.4
		c0,0.8,0.4,1.5,1.1,2.2c0.7-0.7,1.1-1.4,1.1-2.2h1.4v1.4c-0.8,0-1.5,0.4-2.2,1.1c0.7,0.7,1.4,1,2,1h0.2v1.4H272z"/>
</g>
<rect x="288.1" y="4.4" width="10.5" height="0.8"/>
<rect x="289.9" y="5.5" width="0.5" height="19.4"/>
<g>
	<path d="M290,5.6c0-1.8,2.5-3.5,4.5-3.5c1.3,0,2.3,0.7,2.3,1.7c0,1.7-2.5,3.5-4.6,3.5C290.9,7.3,290,6.7,290,5.6z"/>
</g>
<rect x="304.8" y="8" width="0.5" height="16.4"/>
<g>
	<path d="M304.8,8.1c0-1.8,2.5-3.5,4.5-3.5c1.3,0,2.3,0.7,2.3,1.7c0,1.7-2.5,3.5-4.6,3.5C305.8,9.8,304.8,9.2,304.8,8.1z"/>
</g>
<rect x="319.8" y="10.5" width="0.5" height="18.9"/>
<g>
	<path d="M319.9,10.6c0-1.8,2.5-3.5,4.5-3.5c1.3,0,2.3,0.7,2.3,1.7c0,1.7-2.5,3.5-4.6,3.5C320.9,12.3,319.9,11.7,319.9,10.6z"/>
</g>
<rect x="334.7" y="13" width="0.5" height="18"/>
<g>
	<path d="M334.8,13c0-1.8,2.5-3.5,4.5-3.5c1.3,0,2.3,0.7,2.3,1.7c0,1.7-2.5,3.5-4.6,3.5C335.7,14.8,334.8,14.1,334.8,13z"/>
</g>
<rect x="349.7" y="15.5" width="0.5" height="17.2"/>
<g>
	<path d="M349.8,15.5c0-1.8,2.5-3.5,4.5-3.5c1.3,0,2.3,0.7,2.3,1.7c0,1.7-2.5,3.5-4.6,3.5C350.8,17.3,349.8,16.6,349.8,15.5z"/>
</g>
<rect x="364.6" y="17.9" width="0.5" height="16.4"/>
<g>
	<path d="M364.7,18c0-1.8,2.5-3.5,4.5-3.5c1.3,0,2.3,0.7,2.3,1.7c0,1.7-2.5,3.5-4.6,3.5C365.7,19.7,364.7,19.1,364.7,18z"/>
</g>
<rect x="386.2" y="4.9" width="0.5" height="14"/>
<g>
	<path d="M379.7,20.5c0-1.8,2.5-3.5,4.5-3.5c1.3,0,2.3,0.7,2.3,1.7c0,1.7-2.5,3.5-4.6,3.5C380.7,22.2,379.7,21.6,379.7,20.5z"/>
</g>
<rect x="401" y="6.5" width="0.5" height="14.9"/>
<g>
	<path d="M394.6,23c0-1.8,2.5-3.5,4.5-3.5c1.3,0,2.3,0.7,2.3,1.7c0,1.7-2.5,3.5-4.6,3.5C395.6,24.7,394.6,24.1,394.6,23z"/>
</g>
<rect x="416.1" y="8.2" width="0.5" height="15.7"/>
<g>
	<path d="M409.6,25.5c0-1.8,2.5-3.5,4.5-3.5c1.3,0,2.3,0.7,2.3,1.7c0,1.7-2.5,3.5-4.6,3.5C410.6,27.2,409.6,26.5,409.6,25.5z"/>
</g>
<rect x="431" y="9.9" width="0.5" height="16.4"/>
<g>
	<path d="M424.5,27.9c0-1.8,2.5-3.5,4.5-3.5c1.3,0,2.3,0.7,2.3,1.7c0,1.7-2.5,3.5-4.6,3.5C425.5,29.7,424.5,29,424.5,27.9z"/>
</g>
<rect x="446" y="14.8" width="0.5" height="14"/>
<g>
	<path d="M439.6,30.4c0-1.8,2.5-3.5,4.5-3.5c1.3,0,2.3,0.7,2.3,1.7c0,1.7-2.5,3.5-4.6,3.5C440.5,32.1,439.6,31.5,439.6,30.4z"/>
</g>
<rect x="461" y="16.4" width="0.5" height="14.9"/>
<g>
	<path d="M454.6,32.9c0-1.8,2.5-3.5,4.5-3.5c1.3,0,2.3,0.7,2.3,1.7c0,1.7-2.5,3.5-4.6,3.5C455.6,34.6,454.6,34,454.6,32.9z"/>
</g>
<rect x="467.6" y="34.1" width="10.5" height="0.8"/>
<rect x="475.9" y="18.1" width="0.5" height="15.7"/>
<g>
	<path d="M469.5,35.4c0-1.8,2.5-3.5,4.5-3.5c1.3,0,2.3,0.7,2.3,1.7c0,1.7-2.5,3.5-4.6,3.5C470.4,37.1,469.5,36.5,469.5,35.4z"/>
</g>
<rect x="482.7" y="34.1" width="10.5" height="0.8"/>
<rect x="490.9" y="19.8" width="0.5" height="16.4"/>
<g>
	<path d="M484.5,37.9c0-1.8,2.5-3.5,4.5-3.5c1.3,0,2.3,0.7,2.3,1.7c0,1.7-2.5,3.5-4.6,3.5C485.5,39.6,484.5,38.9,484.5,37.9z"/>
</g>
<rect x="497.5" y="34.1" width="10.7" height="0.8"/>
<rect x="497.5" y="39.1" width="10.7" height="0.8"/>
<rect x="506" y="19.6" width="0.5" height="19.1"/>
<g>
	<path d="M503.7,36.8c1.6,0,2.7,0.7,2.7,2c0,1.9-2.3,3.4-4.5,3.4c-1.3,0-2.4-0.7-2.4-1.8C499.4,38.6,501.6,36.8,503.7,36.8z
		 M499.8,40.6c0,0.6,0.4,0.9,1.1,0.9c1.4,0,4.9-2.1,4.9-3.3c0-0.6-0.4-0.9-1.1-0.9C503.5,37.4,499.8,39.4,499.8,40.6z"/>
</g>
<rect x="80.3" y="57.6" width="0.5" height="18.9"/>
<g>
	<path d="M80.4,57.7c0-1.8,2.5-3.5,4.5-3.5c1.3,0,2.3,0.7,2.3,1.7c0,1.7-2.5,3.5-4.6,3.5C81.4,59.4,80.4,58.8,80.4,57.7z"/>
</g>
<rect x="95.3" y="60.1" width="0.5" height="18"/>
<g>
	<path d="M95.4,60.2c0-1.8,2.5-3.5,4.5-3.5c1.3,0,2.3,0.7,2.3,1.7c0,1.7-2.5,3.5-4.6,3.5C96.4,61.9,95.4,61.3,95.4,60.2z"/>
</g>
<g>
	<path d="M92.5,61.8c0-0.8-0.4-1.5-1.1-2.2c-0.7,0.7-1.1,1.4-1.1,2.2h-1.4v-1.4c0.8,0,1.5-0.3,2.2-1c-0.7-0.7-1.4-1.1-2.2-1.1v-1.4
		h1.4c0,0.8,0.4,1.5,1.1,2.2c0.7-0.7,1.1-1.4,1.1-2.2h1.4v1.4c-0.8,0-1.5,0.4-2.2,1.1c0.7,0.7,1.4,1,2,1h0.2v1.4H92.5z"/>
</g>
<rect x="110.2" y="62.6" width="0.5" height="17.2"/>
<g>
	<path d="M110.3,62.7c0-1.8,2.5-3.5,4.5-3.5c1.3,0,2.3,0.7,2.3,1.7c0,1.7-2.5,3.5-4.6,3.5C111.3,64.4,110.3,63.7,110.3,62.7z"/>
</g>
<rect x="125.3" y="65.1" width="0.5" height="16.4"/>
<g>
	<path d="M125.3,65.1c0-1.8,2.5-3.5,4.5-3.5c1.3,0,2.3,0.7,2.3,1.7c0,1.7-2.5,3.5-4.6,3.5C126.3,66.9,125.3,66.2,125.3,65.1z"/>
</g>
<rect x="146.7" y="52" width="0.5" height="14"/>
<g>
	<path d="M140.2,67.6c0-1.8,2.5-3.5,4.5-3.5c1.3,0,2.3,0.7,2.3,1.7c0,1.7-2.5,3.5-4.6,3.5C141.2,69.3,140.2,68.7,140.2,67.6z"/>
</g>
<rect x="161.7" y="53.6" width="0.5" height="14.9"/>
<g>
	<path d="M155.3,70.1c0-1.8,2.5-3.5,4.5-3.5c1.3,0,2.3,0.7,2.3,1.7c0,1.7-2.5,3.5-4.6,3.5C156.2,71.8,155.3,71.2,155.3,70.1z"/>
</g>
<rect x="176.6" y="55.3" width="0.5" height="15.7"/>
<g>
	<path d="M170.1,72.6c0-1.8,2.5-3.5,4.5-3.5c1.3,0,2.3,0.7,2.3,1.7c0,1.7-2.5,3.5-4.6,3.5C171.1,74.3,170.1,73.7,170.1,72.6z"/>
</g>
<rect x="191.6" y="57" width="0.5" height="16.4"/>
<g>
	<path d="M185.2,75.1c0-1.8,2.5-3.5,4.5-3.5c1.3,0,2.3,0.7,2.3,1.7c0,1.7-2.5,3.5-4.6,3.5C186.1,76.8,185.2,76.1,185.2,75.1z"/>
</g>
<rect x="206.5" y="62" width="0.5" height="14"/>
<g>
	<path d="M200.1,77.5c0-1.8,2.5-3.5,4.5-3.5c1.3,0,2.3,0.7,2.3,1.7c0,1.7-2.5,3.5-4.6,3.5C201,79.3,200.1,78.6,200.1,77.5z"/>
</g>
<g>
	<path d="M197.1,79.2c0-0.8-0.4-1.5-1.1-2.2c-0.7,0.7-1.1,1.4-1.1,2.2h-1.4v-1.4c0.8,0,1.5-0.3,2.2-1c-0.7-0.7-1.4-1.1-2.2-1.1v-1.4
		h1.4c0,0.8,0.4,1.5,1.1,2.2c0.7-0.7,1.1-1.4,1.1-2.2h1.4v1.4c-0.8,0-1.5,0.4-2.2,1.1c0.7,0.7,1.4,1,2,1h0.2v1.4H197.1z"/>
</g>
<rect x="221.5" y="63.5" width="0.5" height="14.9"/>
<g>
	<path d="M215.1,80c0-1.8,2.5-3.5,4.5-3.5c1.3,0,2.3,0.7,2.3,1.7c0,1.7-2.5,3.5-4.6,3.5C216.1,81.7,215.1,81.1,215.1,80z"/>
</g>
<g>
	<path d="M212.7,72.3v2.8l1-0.3v1.8l-1,0.3v3.4l1-0.3v1.8l-1,0.3v3.1h-0.5v-3l-1.9,0.6v3h-0.5v-2.8l-1,0.3v-1.8l1-0.3v-3.4l-1,0.3
		v-1.8l1-0.3V73h0.5v3l1.9-0.6v-3H212.7z M212.2,77.1l-1.9,0.6v3.4l1.9-0.6V77.1z"/>
</g>
<rect x="228.1" y="81.3" width="10.5" height="0.8"/>
<rect x="236.4" y="65.2" width="0.5" height="15.7"/>
<g>
	<path d="M230,82.5c0-1.8,2.5-3.5,4.5-3.5c1.3,0,2.3,0.7,2.3,1.7c0,1.7-2.5,3.5-4.6,3.5C230.9,84.2,230,83.6,230,82.5z"/>
</g>
<rect x="243.2" y="81.3" width="10.5" height="0.8"/>
<rect x="251.4" y="66.9" width="0.5" height="16.4"/>
<g>
	<path d="M245,85c0-1.8,2.5-3.5,4.5-3.5c1.3,0,2.3,0.7,2.3,1.7c0,1.7-2.5,3.5-4.6,3.5C246,86.7,245,86.1,245,85z"/>
</g>
<rect x="258" y="81.3" width="10.5" height="0.8"/>
<rect x="258" y="86.2" width="10.5" height="0.8"/>
<rect x="266.3" y="65.7" width="0.5" height="20.2"/>
<g>
	<path d="M259.9,87.5c0-1.8,2.5-3.5,4.5-3.5c1.3,0,2.3,0.7,2.3,1.7c0,1.7-2.5,3.5-4.6,3.5C260.9,89.2,259.9,88.5,259.9,87.5z"/>
</g>
<rect x="273.1" y="81.3" width="10.5" height="0.8"/>
<rect x="273.1" y="86.2" width="10.5" height="0.8"/>
<rect x="281.4" y="66" width="0.5" height="22.3"/>
<g>
	<path d="M274.9,89.9c0-1.8,2.5-3.5,4.5-3.5c1.3,0,2.3,0.7,2.3,1.7c0,1.7-2.5,3.5-4.6,3.5C275.9,91.7,274.9,91,274.9,89.9z"/>
</g>
<rect x="288.1" y="81.3" width="10.5" height="0.8"/>
<rect x="288.1" y="86.2" width="10.5" height="0.8"/>
<rect x="288.1" y="91.2" width="10.5" height="0.8"/>
<rect x="296.4" y="66.4" width="0.5" height="24.3"/>
<g>
	<path d="M290,92.4c0-1.8,2.5-3.5,4.5-3.5c1.3,0,2.3,0.7,2.3,1.7c0,1.7-2.5,3.5-4.6,3.5C290.9,94.1,290,93.5,290,92.4z"/>
</g>
<rect x="303" y="81.3" width="10.5" height="0.8"/>
<rect x="303" y="86.2" width="10.5" height="0.8"/>
<rect x="311.3" y="66.9" width="0.5" height="21.4"/>
<g>
	<path d="M304.8,89.9c0-1.8,2.5-3.5,4.5-3.5c1.3,0,2.3,0.7,2.3,1.7c0,1.7-2.5,3.5-4.6,3.5C305.8,91.7,304.8,91,304.8,89.9z"/>
</g>
<rect x="318" y="81.3" width="10.5" height="0.8"/>
<rect x="318" y="86.2" width="10.5" height="0.8"/>
<rect x="326.3" y="66.9" width="0.5" height="18.9"/>
<g>
	<path d="M319.9,87.5c0-1.8,2.5-3.5,4.5-3.5c1.3,0,2.3,0.7,2.3,1.7c0,1.7-2.5,3.5-4.6,3.5C320.9,89.2,319.9,88.5,319.9,87.5z"/>
</g>
<rect x="332.9" y="81.3" width="10.5" height="0.8"/>
<rect x="341.2" y="65.4" width="0.5" height="18"/>
<g>
	<path d="M334.8,85c0-1.8,2.5-3.5,4.5-3.5c1.3,0,2.3,0.7,2.3,1.7c0,1.7-2.5,3.5-4.6,3.5C335.7,86.7,334.8,86.1,334.8,85z"/>
</g>
<rect x="347.9" y="81.3" width="10.5" height="0.8"/>
<rect x="356.2" y="63.7" width="0.5" height="17.2"/>
<g>
	<path d="M349.8,82.5c0-1.8,2.5-3.5,4.5-3.5c1.3,0,2.3,0.7,2.3,1.7c0,1.7-2.5,3.5-4.6,3.5C350.8,84.2,349.8,83.6,349.8,82.5z"/>
</g>
<rect x="371.1" y="62" width="0.5" height="16.4"/>
<g>
	<path d="M364.7,80c0-1.8,2.5-3.5,4.5-3.5c1.3,0,2.3,0.7,2.3,1.7c0,1.7-2.5,3.5-4.6,3.5C365.7,81.7,364.7,81.1,364.7,80z"/>
</g>
<rect x="386.2" y="57" width="0.5" height="18.9"/>
<g>
	<path d="M379.7,77.5c0-1.8,2.5-3.5,4.5-3.5c1.3,0,2.3,0.7,2.3,1.7c0,1.7-2.5,3.5-4.6,3.5C380.7,79.3,379.7,78.6,379.7,77.5z"/>
</g>
<rect x="401" y="55.4" width="0.5" height="18"/>
<g>
	<path d="M394.6,75.1c0-1.8,2.5-3.5,4.5-3.5c1.3,0,2.3,0.7,2.3,1.7c0,1.7-2.5,3.5-4.6,3.5C395.6,76.8,394.6,76.1,394.6,75.1z"/>
</g>
<rect x="416.1" y="53.7" width="0.5" height="17.2"/>
<g>
	<path d="M409.6,72.6c0-1.8,2.5-3.5,4.5-3.5c1.3,0,2.3,0.7,2.3,1.7c0,1.7-2.5,3.5-4.6,3.5C410.6,74.3,409.6,73.7,409.6,72.6z"/>
</g>
<rect x="431" y="52" width="0.5" height="16.4"/>
<g>
	<path d="M424.5,70.1c0-1.8,2.5-3.5,4.5-3.5c1.3,0,2.3,0.7,2.3,1.7c0,1.7-2.5,3.5-4.6,3.5C425.5,71.8,424.5,71.2,424.5,70.1z"/>
</g>
<rect x="439.5" y="67.5" width="0.5" height="14"/>
<g>
	<path d="M439.6,67.6c0-1.8,2.5-3.5,4.5-3.5c1.3,0,2.3,0.7,2.3,1.7c0,1.7-2.5,3.5-4.6,3.5C440.5,69.3,439.6,68.7,439.6,67.6z"/>
</g>
<rect x="454.5" y="65.1" width="0.5" height="14.9"/>
<g>
	<path d="M454.6,65.1c0-1.8,2.5-3.5,4.5-3.5c1.3,0,2.3,0.7,2.3,1.7c0,1.7-2.5,3.5-4.6,3.5C455.6,66.9,454.6,66.2,454.6,65.1z"/>
</g>
<rect x="469.4" y="62.6" width="0.5" height="15.7"/>
<g>
	<path d="M469.5,62.7c0-1.8,2.5-3.5,4.5-3.5c1.3,0,2.3,0.7,2.3,1.7c0,1.7-2.5,3.5-4.6,3.5C470.4,64.4,469.5,63.7,469.5,62.7z"/>
</g>
<rect x="484.4" y="60.1" width="0.5" height="16.4"/>
<g>
	<path d="M484.5,60.2c0-1.8,2.5-3.5,4.5-3.5c1.3,0,2.3,0.7,2.3,1.7c0,1.7-2.5,3.5-4.6,3.5C485.5,61.9,484.5,61.3,484.5,60.2z"/>
</g>
<rect x="499.3" y="57.6" width="0.5" height="16.6"/>
<g>
	<path d="M503.7,54.1c1.6,0,2.7,0.7,2.7,2c0,1.9-2.3,3.4-4.5,3.4c-1.3,0-2.4-0.7-2.4-1.8C499.4,55.9,501.6,54.1,503.7,54.1z
		 M499.8,58c0,0.6,0.4,0.9,1.1,0.9c1.4,0,4.9-2.1,4.9-3.3c0-0.6-0.4-0.9-1.1-0.9C503.5,54.7,499.8,56.8,499.8,58z"/>
</g>
</svg>
