<?xml version="1.0" encoding="utf-8"?>

<!--
	ScaleBook
	Copyright (c) Leland Jansen 2015. All rights reserved.
-->

<!DOCTYPE svg PUBLIC "-//W3C//DTD SVG 1.1//EN" "http://www.w3.org/Graphics/SVG/1.1/DTD/svg11.dtd">
<svg version="1.1" id="Layer_1" xmlns="http://www.w3.org/2000/svg" xmlns:xlink="http://www.w3.org/1999/xlink" x="0px" y="0px"
	 viewBox="0 0 552.9 93.7" enable-background="new 0 0 552.9 93.7" xml:space="preserve">
<rect x="8.4" y="11.8" width="0.8" height="67"/>
<g>
	<path d="M7.4,12.4c-1.9,1.1-3.6,5.8-3.6,9.4c0,2.3,1.4,9.9,1.4,12.3c0,5-1.5,8.6-4.6,11.1c3,2.4,4.6,6.1,4.6,11
		c0,2.3-1.4,9.9-1.4,12.3c0,3.8,1.7,8.4,3.6,9.5v0.7c-3.5-2.3-5.8-8.2-5.8-13.1c0-2.1,1.7-9.4,1.7-11.5c0-3.8-1-6.6-2.9-8.2
		C0.1,45.7,0,45.5,0,45.3s0.1-0.4,0.5-0.7c1.9-1.7,2.9-4.2,2.9-7.6c0-2.1-1.7-10-1.7-12.2c0-5.2,2.1-10.4,5.8-13.1V12.4z"/>
</g>
<rect x="547.8" y="11.8" width="0.8" height="67"/>
<rect x="550.4" y="11.8" width="2.5" height="67"/>
<rect x="8.5" y="31.4" width="544.4" height="0.5"/>
<rect x="8.5" y="26.4" width="544.4" height="0.5"/>
<rect x="8.5" y="21.5" width="544.4" height="0.5"/>
<rect x="8.5" y="16.5" width="544.4" height="0.5"/>
<rect x="8.5" y="11.6" width="544.4" height="0.5"/>
<g>
	<path d="M20.3,31.5c-4.2,0-8.1-3.1-8.1-6.9c0-3.2,2.3-6.7,6.8-10.5c-0.3-1.2-0.4-2.4-0.4-3.6c0-3.5,1.2-6.8,3.2-8.5
		c1.8,2.5,2.7,4.9,2.7,7.1c0,2.9-1.3,5.6-4.3,8.1l0.9,4.2c0.5,0,0.8-0.1,0.8-0.1c2.6,0,4.8,2,4.8,4.7c0,1.9-1.4,3.7-3.6,4.8
		c0-0.1,0.9,3.8,0.9,4.3c0,2.5-2.3,4.2-4.9,4.2c-2,0-3.6-1.3-3.6-3.4c0-1.4,1-2.6,2.4-2.6c1.3,0,2.3,1.3,2.3,2.5
		c0,1.4-1.2,2.3-2.7,2.5c0.6,0.3,1.2,0.5,1.9,0.5c2.1,0,4.1-1.6,4.1-3.6c0-0.2,0-0.4-0.1-0.6L22.6,31C21.9,31.3,21.2,31.5,20.3,31.5
		z M18.1,26.2c0,1,0.5,1.9,1.6,2.5c-1.8-0.3-3-1.4-3-3.1c0-2,1.7-3.7,3.8-4.1l-0.8-4C16,20.3,14,23.1,14,25.7c0,2.9,2.8,5.3,6,5.3
		c0.9,0,1.7-0.2,2.4-0.5L21,23.7C19.4,23.9,18.1,24.9,18.1,26.2z M22.1,4.9c-1.6,0-2.9,3.7-2.9,7c0,0.7,0,1.3,0.2,1.9
		c2.7-2.4,4-4.5,4-6.5c0-0.9-0.3-1.7-1-2.4C22.4,4.9,22.3,4.9,22.1,4.9z M24.9,26.8c0-1.6-1.2-3.3-2.9-3.3c-0.1,0-0.2,0-0.5,0
		l1.4,6.6C24.2,29.2,24.9,28.1,24.9,26.8z"/>
</g>
<g>
	<path d="M33.5,5v2.8l1-0.3v1.8l-1,0.3V13l1-0.3v1.8l-1,0.3V18H33v-3l-1.9,0.6v3h-0.5v-2.8l-1,0.3v-1.8l1-0.3v-3.4l-1,0.3V9l1-0.3
		V5.6h0.5v3L33,7.9V5H33.5z M33,9.7l-1.9,0.6v3.4l1.9-0.6V9.7z"/>
</g>
<g>
	<path d="M39.7,12.4v2.8l1-0.3v1.8l-1,0.3v3.4l1-0.3v1.8l-1,0.3v3.1h-0.5v-3l-1.9,0.6v3h-0.5v-2.8l-1,0.3v-1.8l1-0.3V18l-1,0.3v-1.8
		l1-0.3V13h0.5v3l1.9-0.6v-3H39.7z M39.2,17.2l-1.9,0.6v3.4l1.9-0.6V17.2z"/>
</g>
<polygon fill-rule="evenodd" clip-rule="evenodd" points="56,27.9 103.9,22.9 103.9,20.5 56,25.4 "/>
<polygon fill-rule="evenodd" clip-rule="evenodd" points="56,24.2 103.9,19.2 103.9,16.7 56,21.7 "/>
<polygon fill-rule="evenodd" clip-rule="evenodd" points="119.9,18 167.8,13 167.8,10.5 119.9,15.5 "/>
<polygon fill-rule="evenodd" clip-rule="evenodd" points="119.9,14.3 167.8,9.3 167.8,6.8 119.9,11.8 "/>
<polygon fill-rule="evenodd" clip-rule="evenodd" points="177.3,32.9 225.2,27.9 225.2,25.4 177.3,30.4 "/>
<polygon fill-rule="evenodd" clip-rule="evenodd" points="177.3,36.6 225.2,31.6 225.2,29.1 177.3,34.1 "/>
<polygon fill-rule="evenodd" clip-rule="evenodd" points="241.1,24.2 289,22.9 289,20.5 241.1,21.7 "/>
<polygon fill-rule="evenodd" clip-rule="evenodd" points="241.1,27.9 289,26.7 289,24.2 241.1,25.4 "/>
<polygon fill-rule="evenodd" clip-rule="evenodd" points="305,22.9 352.9,27.9 352.9,25.4 305,20.5 "/>
<polygon fill-rule="evenodd" clip-rule="evenodd" points="305,26.7 352.9,31.6 352.9,29.1 305,24.2 "/>
<polygon fill-rule="evenodd" clip-rule="evenodd" points="375.4,8.1 423.3,13 423.3,10.5 375.4,5.6 "/>
<polygon fill-rule="evenodd" clip-rule="evenodd" points="375.4,4.3 423.3,9.3 423.3,6.8 375.4,1.9 "/>
<polygon fill-rule="evenodd" clip-rule="evenodd" points="439.2,18 487,22.9 487,20.5 439.2,15.5 "/>
<polygon fill-rule="evenodd" clip-rule="evenodd" points="439.2,14.3 487,19.2 487,16.7 439.2,11.8 "/>
<rect x="8.5" y="78.5" width="544.4" height="0.5"/>
<rect x="8.5" y="73.6" width="544.4" height="0.5"/>
<rect x="8.5" y="68.6" width="544.4" height="0.5"/>
<rect x="8.5" y="63.6" width="544.4" height="0.5"/>
<rect x="8.5" y="58.7" width="544.4" height="0.5"/>
<g>
	<path d="M15.7,73.1c2.9-2.6,4.7-6.1,4.7-9.2c0-2.5-1.4-4.4-3.7-4.4c-1.6,0-3.4,1.3-3.4,2.7c0,0.2,0,0.3,0.1,0.3
		c-0.1,0,0.6-0.6,1.4-0.6c0.9,0,1.5,0.8,1.5,1.7c0,1.2-0.9,2.2-2.1,2.2c-1.2,0-2.1-1.3-2.1-2.8c0-2.3,2.3-4.1,4.8-4.1
		c4.7,0,5.9,3.2,5.9,5.8c0,1.6-0.4,2.9-2,5.3c-1.9,3.1-6.4,5.3-8.1,5.3c-0.4,0-0.6-0.2-0.6-0.5C13.8,74.4,14.9,73.8,15.7,73.1z
		 M25.7,60.4c0.6,0,1,0.4,1,1s-0.4,1-1,1s-1-0.4-1-1S25.1,60.4,25.7,60.4z M25.7,65.3c0.6,0,1,0.4,1,1s-0.4,1-1,1s-1-0.4-1-1
		S25.1,65.3,25.7,65.3z"/>
</g>
<g>
	<path d="M33.5,57v2.8l1-0.3v1.8l-1,0.3v3.4l1-0.3v1.8l-1,0.3V70H33v-3l-1.9,0.6v3h-0.5v-2.8l-1,0.3v-1.8l1-0.3v-3.4l-1,0.3v-1.8
		l1-0.3v-3.1h0.5v3L33,60v-3H33.5z M33,61.8l-1.9,0.6v3.4l1.9-0.6V61.8z"/>
</g>
<g>
	<path d="M39.7,64.5v2.8l1-0.3v1.8l-1,0.3v3.4l1-0.3V74l-1,0.3v3.1h-0.5v-3l-1.9,0.6v3h-0.5v-2.8l-1,0.3v-1.8l1-0.3V70l-1,0.3v-1.8
		l1-0.3v-3.1h0.5v3l1.9-0.6v-3H39.7z M39.2,69.3l-1.9,0.6v3.4l1.9-0.6V69.3z"/>
</g>
<polygon fill-rule="evenodd" clip-rule="evenodd" points="49.5,70.1 97.4,75 97.4,72.5 49.5,67.6 "/>
<polygon fill-rule="evenodd" clip-rule="evenodd" points="49.5,73.8 97.4,78.7 97.4,76.3 49.5,71.3 "/>
<polygon fill-rule="evenodd" clip-rule="evenodd" points="119.9,55.2 167.8,60.1 167.8,57.7 119.9,52.7 "/>
<polygon fill-rule="evenodd" clip-rule="evenodd" points="119.9,51.5 167.8,56.4 167.8,53.9 119.9,49 "/>
<polygon fill-rule="evenodd" clip-rule="evenodd" points="183.8,65.1 231.7,70.1 231.7,67.6 183.8,62.6 "/>
<polygon fill-rule="evenodd" clip-rule="evenodd" points="183.8,61.4 231.7,66.3 231.7,63.9 183.8,58.9 "/>
<polygon fill-rule="evenodd" clip-rule="evenodd" points="247.6,73.8 295.5,75 295.5,72.5 247.6,71.3 "/>
<polygon fill-rule="evenodd" clip-rule="evenodd" points="247.6,70.1 295.5,71.3 295.5,68.8 247.6,67.6 "/>
<polygon fill-rule="evenodd" clip-rule="evenodd" points="311.5,75 359.4,70.1 359.4,67.6 311.5,72.5 "/>
<polygon fill-rule="evenodd" clip-rule="evenodd" points="311.5,71.3 359.4,66.3 359.4,63.9 311.5,68.8 "/>
<polygon fill-rule="evenodd" clip-rule="evenodd" points="375.4,65.1 423.3,60.1 423.3,57.7 375.4,62.6 "/>
<polygon fill-rule="evenodd" clip-rule="evenodd" points="375.4,61.4 423.3,56.4 423.3,53.9 375.4,58.9 "/>
<polygon fill-rule="evenodd" clip-rule="evenodd" points="432.7,80 480.5,75 480.5,72.5 432.7,77.5 "/>
<polygon fill-rule="evenodd" clip-rule="evenodd" points="432.7,83.7 480.5,78.7 480.5,76.3 432.7,81.2 "/>
<rect x="47.5" y="36.2" width="10.5" height="0.8"/>
<rect x="55.8" y="21.9" width="0.5" height="16.4"/>
<g>
	<path d="M49.4,39.9c0-1.8,2.5-3.5,4.5-3.5c1.3,0,2.3,0.7,2.3,1.7c0,1.7-2.5,3.5-4.6,3.5C50.4,41.6,49.4,41,49.4,39.9z"/>
</g>
<rect x="63.5" y="36.2" width="10.5" height="0.8"/>
<rect x="71.8" y="20.3" width="0.5" height="15.5"/>
<g>
	<path d="M65.4,37.4c0-1.8,2.5-3.5,4.5-3.5c1.3,0,2.3,0.7,2.3,1.7c0,1.7-2.5,3.5-4.6,3.5C66.3,39.2,65.4,38.5,65.4,37.4z"/>
</g>
<rect x="87.8" y="18.6" width="0.5" height="14.7"/>
<g>
	<path d="M81.3,35c0-1.8,2.5-3.5,4.5-3.5c1.3,0,2.3,0.7,2.3,1.7c0,1.7-2.5,3.5-4.6,3.5C82.3,36.7,81.3,36,81.3,35z"/>
</g>
<rect x="103.7" y="16.9" width="0.5" height="14"/>
<g>
	<path d="M97.3,32.5c0-1.8,2.5-3.5,4.5-3.5c1.3,0,2.3,0.7,2.3,1.7c0,1.7-2.5,3.5-4.6,3.5C98.3,34.2,97.3,33.6,97.3,32.5z"/>
</g>
<rect x="119.7" y="11.9" width="0.5" height="16.4"/>
<g>
	<path d="M113.2,30c0-1.8,2.5-3.5,4.5-3.5c1.3,0,2.3,0.7,2.3,1.7c0,1.7-2.5,3.5-4.6,3.5C114.2,31.7,113.2,31.1,113.2,30z"/>
</g>
<rect x="135.6" y="10.4" width="0.5" height="15.5"/>
<g>
	<path d="M129.2,27.5c0-1.8,2.5-3.5,4.5-3.5c1.3,0,2.3,0.7,2.3,1.7c0,1.7-2.5,3.5-4.6,3.5C130.2,29.2,129.2,28.6,129.2,27.5z"/>
</g>
<rect x="151.6" y="8.7" width="0.5" height="14.7"/>
<g>
	<path d="M145.2,25c0-1.8,2.5-3.5,4.5-3.5c1.3,0,2.3,0.7,2.3,1.7c0,1.7-2.5,3.5-4.6,3.5C146.2,26.8,145.2,26.1,145.2,25z"/>
</g>
<g>
	<path d="M142.8,17.4v2.8l1-0.3v1.8l-1,0.3v3.4l1-0.3v1.8l-1,0.3v3.1h-0.5v-3l-1.9,0.6v3h-0.5v-2.8l-1,0.3v-1.8l1-0.3v-3.4l-1,0.3
		v-1.8l1-0.3V18h0.5v3l1.9-0.6v-3H142.8z M142.3,22.1l-1.9,0.6v3.4l1.9-0.6V22.1z"/>
</g>
<rect x="167.6" y="7" width="0.5" height="14"/>
<g>
	<path d="M161.1,22.6c0-1.8,2.5-3.5,4.5-3.5c1.3,0,2.3,0.7,2.3,1.7c0,1.7-2.5,3.5-4.6,3.5C162.1,24.3,161.1,23.7,161.1,22.6z"/>
</g>
<rect x="177" y="20" width="0.5" height="16.4"/>
<g>
	<path d="M177.1,20.1c0-1.8,2.5-3.5,4.5-3.5c1.3,0,2.3,0.7,2.3,1.7c0,1.7-2.5,3.5-4.6,3.5C178.1,21.8,177.1,21.2,177.1,20.1z"/>
</g>
<rect x="193" y="17.5" width="0.5" height="17.4"/>
<g>
	<path d="M193.1,17.6c0-1.8,2.5-3.5,4.5-3.5c1.3,0,2.3,0.7,2.3,1.7c0,1.7-2.5,3.5-4.6,3.5C194.1,19.3,193.1,18.7,193.1,17.6z"/>
</g>
<rect x="209" y="15" width="0.5" height="18.1"/>
<g>
	<path d="M209,15.1c0-1.8,2.5-3.5,4.5-3.5c1.3,0,2.3,0.7,2.3,1.7c0,1.7-2.5,3.5-4.6,3.5C210,16.8,209,16.2,209,15.1z"/>
</g>
<rect x="224.9" y="12.6" width="0.5" height="18.9"/>
<g>
	<path d="M225,12.6c0-1.8,2.5-3.5,4.5-3.5c1.3,0,2.3,0.7,2.3,1.7c0,1.7-2.5,3.5-4.6,3.5C226,14.4,225,13.7,225,12.6z"/>
</g>
<rect x="240.9" y="10.1" width="0.5" height="17.7"/>
<g>
	<path d="M241,10.2c0-1.8,2.5-3.5,4.5-3.5c1.3,0,2.3,0.7,2.3,1.7c0,1.7-2.5,3.5-4.6,3.5C242,11.9,241,11.2,241,10.2z"/>
</g>
<rect x="255.1" y="6.4" width="10.5" height="0.8"/>
<rect x="256.9" y="7.6" width="0.5" height="19.8"/>
<g>
	<path d="M256.9,7.7c0-1.8,2.5-3.5,4.5-3.5c1.3,0,2.3,0.7,2.3,1.7c0,1.7-2.5,3.5-4.6,3.5C257.9,9.4,256.9,8.8,256.9,7.7z"/>
</g>
<g>
	<path d="M253.3,0v2.8l1-0.3v1.8l-1,0.3v3.4l1-0.3v1.8l-1,0.3V13h-0.5v-3l-1.9,0.6v3h-0.5v-2.8l-1,0.3V9.3l1-0.3V5.6l-1,0.3V4.1
		l1-0.3V0.6h0.5v3l1.9-0.6V0H253.3z M252.8,4.8l-1.9,0.6v3.4l1.9-0.6V4.8z"/>
</g>
<rect x="271.1" y="6.4" width="10.5" height="0.8"/>
<rect x="272.8" y="5.1" width="0.5" height="21.9"/>
<g>
	<path d="M272.9,5.2c0-1.8,2.5-3.5,4.5-3.5c1.3,0,2.3,0.7,2.3,1.7c0,1.7-2.5,3.5-4.6,3.5C273.9,6.9,272.9,6.3,272.9,5.2z"/>
</g>
<rect x="287" y="6.4" width="10.5" height="0.8"/>
<rect x="288.8" y="7.6" width="0.5" height="18.9"/>
<g>
	<path d="M288.9,7.7c0-1.8,2.5-3.5,4.5-3.5c1.3,0,2.3,0.7,2.3,1.7c0,1.7-2.5,3.5-4.6,3.5C289.9,9.4,288.9,8.8,288.9,7.7z"/>
</g>
<rect x="304.8" y="10.1" width="0.5" height="16.4"/>
<g>
	<path d="M304.8,10.2c0-1.8,2.5-3.5,4.5-3.5c1.3,0,2.3,0.7,2.3,1.7c0,1.7-2.5,3.5-4.6,3.5C305.8,11.9,304.8,11.2,304.8,10.2z"/>
</g>
<rect x="320.7" y="12.6" width="0.5" height="15.5"/>
<g>
	<path d="M320.8,12.6c0-1.8,2.5-3.5,4.5-3.5c1.3,0,2.3,0.7,2.3,1.7c0,1.7-2.5,3.5-4.6,3.5C321.8,14.4,320.8,13.7,320.8,12.6z"/>
</g>
<rect x="336.7" y="15" width="0.5" height="14.7"/>
<g>
	<path d="M336.8,15.1c0-1.8,2.5-3.5,4.5-3.5c1.3,0,2.3,0.7,2.3,1.7c0,1.7-2.5,3.5-4.6,3.5C337.8,16.8,336.8,16.2,336.8,15.1z"/>
</g>
<rect x="352.7" y="17.5" width="0.5" height="14"/>
<g>
	<path d="M352.7,17.6c0-1.8,2.5-3.5,4.5-3.5c1.3,0,2.3,0.7,2.3,1.7c0,1.7-2.5,3.5-4.6,3.5C353.7,19.3,352.7,18.7,352.7,17.6z"/>
</g>
<rect x="375.1" y="2" width="0.5" height="16.4"/>
<g>
	<path d="M368.7,20.1c0-1.8,2.5-3.5,4.5-3.5c1.3,0,2.3,0.7,2.3,1.7c0,1.7-2.5,3.5-4.6,3.5C369.7,21.8,368.7,21.2,368.7,20.1z"/>
</g>
<rect x="391.1" y="3.6" width="0.5" height="17.4"/>
<g>
	<path d="M384.7,22.6c0-1.8,2.5-3.5,4.5-3.5c1.3,0,2.3,0.7,2.3,1.7c0,1.7-2.5,3.5-4.6,3.5C385.7,24.3,384.7,23.7,384.7,22.6z"/>
</g>
<rect x="407.1" y="5.3" width="0.5" height="18.1"/>
<g>
	<path d="M400.6,25c0-1.8,2.5-3.5,4.5-3.5c1.3,0,2.3,0.7,2.3,1.7c0,1.7-2.5,3.5-4.6,3.5C401.6,26.8,400.6,26.1,400.6,25z"/>
</g>
<rect x="423" y="7" width="0.5" height="18.9"/>
<g>
	<path d="M416.6,27.5c0-1.8,2.5-3.5,4.5-3.5c1.3,0,2.3,0.7,2.3,1.7c0,1.7-2.5,3.5-4.6,3.5C417.6,29.2,416.6,28.6,416.6,27.5z"/>
</g>
<rect x="439" y="11.9" width="0.5" height="16.4"/>
<g>
	<path d="M432.6,30c0-1.8,2.5-3.5,4.5-3.5c1.3,0,2.3,0.7,2.3,1.7c0,1.7-2.5,3.5-4.6,3.5C433.6,31.7,432.6,31.1,432.6,30z"/>
</g>
<rect x="454.8" y="13.5" width="0.5" height="17.4"/>
<g>
	<path d="M448.4,32.5c0-1.8,2.5-3.5,4.5-3.5c1.3,0,2.3,0.7,2.3,1.7c0,1.7-2.5,3.5-4.6,3.5C449.4,34.2,448.4,33.6,448.4,32.5z"/>
</g>
<rect x="470.8" y="15.2" width="0.5" height="18.1"/>
<g>
	<path d="M464.4,35c0-1.8,2.5-3.5,4.5-3.5c1.3,0,2.3,0.7,2.3,1.7c0,1.7-2.5,3.5-4.6,3.5C465.3,36.7,464.4,36,464.4,35z"/>
</g>
<rect x="478.5" y="36.2" width="10.5" height="0.8"/>
<rect x="486.8" y="16.9" width="0.5" height="18.9"/>
<g>
	<path d="M480.3,37.4c0-1.8,2.5-3.5,4.5-3.5c1.3,0,2.3,0.7,2.3,1.7c0,1.7-2.5,3.5-4.6,3.5C481.3,39.2,480.3,38.5,480.3,37.4z"/>
</g>
<rect x="494.4" y="36.2" width="10.7" height="0.8"/>
<rect x="502.9" y="21.7" width="0.5" height="16.6"/>
<g>
	<path d="M500.6,36.4c1.6,0,2.7,0.7,2.7,2c0,1.9-2.3,3.4-4.5,3.4c-1.3,0-2.4-0.7-2.4-1.8C496.3,38.2,498.5,36.4,500.6,36.4z
		 M496.7,40.2c0,0.6,0.4,0.9,1.1,0.9c1.4,0,4.9-2.1,4.9-3.3c0-0.6-0.4-0.9-1.1-0.9C500.4,37,496.7,39,496.7,40.2z"/>
</g>
<rect x="49.3" y="57.2" width="0.5" height="16.4"/>
<g>
	<path d="M49.4,57.3c0-1.8,2.5-3.5,4.5-3.5c1.3,0,2.3,0.7,2.3,1.7c0,1.7-2.5,3.5-4.6,3.5C50.4,59,49.4,58.4,49.4,57.3z"/>
</g>
<rect x="65.3" y="59.7" width="0.5" height="15.5"/>
<g>
	<path d="M65.4,59.8c0-1.8,2.5-3.5,4.5-3.5c1.3,0,2.3,0.7,2.3,1.7c0,1.7-2.5,3.5-4.6,3.5C66.3,61.5,65.4,60.9,65.4,59.8z"/>
</g>
<g>
	<path d="M62.9,52.1v2.8l1-0.3v1.8l-1,0.3v3.4l1-0.3v1.8l-1,0.3v3.1h-0.5v-3l-1.9,0.6v3H60v-2.8l-1,0.3v-1.8l1-0.3v-3.4L59,58v-1.8
		l1-0.3v-3.1h0.5v3l1.9-0.6v-3H62.9z M62.4,56.9l-1.9,0.6v3.4l1.9-0.6V56.9z"/>
</g>
<rect x="81.2" y="62.2" width="0.5" height="14.7"/>
<g>
	<path d="M81.3,62.2c0-1.8,2.5-3.5,4.5-3.5c1.3,0,2.3,0.7,2.3,1.7c0,1.7-2.5,3.5-4.6,3.5C82.3,64,81.3,63.3,81.3,62.2z"/>
</g>
<rect x="97.2" y="64.6" width="0.5" height="14"/>
<g>
	<path d="M97.3,64.7c0-1.8,2.5-3.5,4.5-3.5c1.3,0,2.3,0.7,2.3,1.7c0,1.7-2.5,3.5-4.6,3.5C98.3,66.4,97.3,65.8,97.3,64.7z"/>
</g>
<rect x="119.7" y="49.1" width="0.5" height="16.4"/>
<g>
	<path d="M113.2,67.2c0-1.8,2.5-3.5,4.5-3.5c1.3,0,2.3,0.7,2.3,1.7c0,1.7-2.5,3.5-4.6,3.5C114.2,68.9,113.2,68.3,113.2,67.2z"/>
</g>
<rect x="135.6" y="50.7" width="0.5" height="17.4"/>
<g>
	<path d="M129.2,69.7c0-1.8,2.5-3.5,4.5-3.5c1.3,0,2.3,0.7,2.3,1.7c0,1.7-2.5,3.5-4.6,3.5C130.2,71.4,129.2,70.8,129.2,69.7z"/>
</g>
<rect x="151.6" y="52.4" width="0.5" height="18.1"/>
<g>
	<path d="M145.2,72.2c0-1.8,2.5-3.5,4.5-3.5c1.3,0,2.3,0.7,2.3,1.7c0,1.7-2.5,3.5-4.6,3.5C146.2,73.9,145.2,73.3,145.2,72.2z"/>
</g>
<rect x="167.6" y="54.1" width="0.5" height="18.9"/>
<g>
	<path d="M161.1,74.6c0-1.8,2.5-3.5,4.5-3.5c1.3,0,2.3,0.7,2.3,1.7c0,1.7-2.5,3.5-4.6,3.5C162.1,76.4,161.1,75.7,161.1,74.6z"/>
</g>
<rect x="183.5" y="59.1" width="0.5" height="16.4"/>
<g>
	<path d="M177.1,77.1c0-1.8,2.5-3.5,4.5-3.5c1.3,0,2.3,0.7,2.3,1.7c0,1.7-2.5,3.5-4.6,3.5C178.1,78.8,177.1,78.2,177.1,77.1z"/>
</g>
<g>
	<path d="M174.7,69.4v2.8l1-0.3v1.8l-1,0.3v3.4l1-0.3V79l-1,0.3v3.1h-0.5v-3l-1.9,0.6v3h-0.5v-2.8l-1,0.3v-1.8l1-0.3V75l-1,0.3v-1.8
		l1-0.3v-3.1h0.5v3l1.9-0.6v-3H174.7z M174.2,74.2l-1.9,0.6v3.4l1.9-0.6V74.2z"/>
</g>
<rect x="199.5" y="60.6" width="0.5" height="17.4"/>
<g>
	<path d="M193.1,79.6c0-1.8,2.5-3.5,4.5-3.5c1.3,0,2.3,0.7,2.3,1.7c0,1.7-2.5,3.5-4.6,3.5C194.1,81.3,193.1,80.7,193.1,79.6z"/>
</g>
<rect x="215.5" y="62.3" width="0.5" height="18.1"/>
<g>
	<path d="M209,82.1c0-1.8,2.5-3.5,4.5-3.5c1.3,0,2.3,0.7,2.3,1.7c0,1.7-2.5,3.5-4.6,3.5C210,83.8,209,83.2,209,82.1z"/>
</g>
<rect x="223.2" y="83.3" width="10.5" height="0.8"/>
<rect x="231.4" y="64" width="0.5" height="18.9"/>
<g>
	<path d="M225,84.6c0-1.8,2.5-3.5,4.5-3.5c1.3,0,2.3,0.7,2.3,1.7c0,1.7-2.5,3.5-4.6,3.5C226,86.3,225,85.7,225,84.6z"/>
</g>
<rect x="239.1" y="83.3" width="10.5" height="0.8"/>
<rect x="247.4" y="67.7" width="0.5" height="17.7"/>
<g>
	<path d="M241,87c0-1.8,2.5-3.5,4.5-3.5c1.3,0,2.3,0.7,2.3,1.7c0,1.7-2.5,3.5-4.6,3.5C242,88.8,241,88.1,241,87z"/>
</g>
<rect x="255.1" y="83.3" width="10.5" height="0.8"/>
<rect x="255.1" y="88.3" width="10.5" height="0.8"/>
<rect x="263.4" y="68.1" width="0.5" height="19.8"/>
<g>
	<path d="M256.9,89.5c0-1.8,2.5-3.5,4.5-3.5c1.3,0,2.3,0.7,2.3,1.7c0,1.7-2.5,3.5-4.6,3.5C257.9,91.2,256.9,90.6,256.9,89.5z"/>
</g>
<rect x="271.1" y="83.3" width="10.5" height="0.8"/>
<rect x="271.1" y="88.3" width="10.5" height="0.8"/>
<rect x="279.3" y="68.5" width="0.5" height="21.9"/>
<g>
	<path d="M272.9,92c0-1.8,2.5-3.5,4.5-3.5c1.3,0,2.3,0.7,2.3,1.7c0,1.7-2.5,3.5-4.6,3.5C273.9,93.7,272.9,93.1,272.9,92z"/>
</g>
<rect x="287" y="83.3" width="10.5" height="0.8"/>
<rect x="287" y="88.3" width="10.5" height="0.8"/>
<rect x="295.3" y="69" width="0.5" height="18.9"/>
<g>
	<path d="M288.9,89.5c0-1.8,2.5-3.5,4.5-3.5c1.3,0,2.3,0.7,2.3,1.7c0,1.7-2.5,3.5-4.6,3.5C289.9,91.2,288.9,90.6,288.9,89.5z"/>
</g>
<rect x="303" y="83.3" width="10.5" height="0.8"/>
<rect x="311.3" y="69" width="0.5" height="16.4"/>
<g>
	<path d="M304.8,87c0-1.8,2.5-3.5,4.5-3.5c1.3,0,2.3,0.7,2.3,1.7c0,1.7-2.5,3.5-4.6,3.5C305.8,88.8,304.8,88.1,304.8,87z"/>
</g>
<rect x="319" y="83.3" width="10.5" height="0.8"/>
<rect x="327.2" y="67.4" width="0.5" height="15.5"/>
<g>
	<path d="M320.8,84.6c0-1.8,2.5-3.5,4.5-3.5c1.3,0,2.3,0.7,2.3,1.7c0,1.7-2.5,3.5-4.6,3.5C321.8,86.3,320.8,85.7,320.8,84.6z"/>
</g>
<rect x="343.2" y="65.7" width="0.5" height="14.7"/>
<g>
	<path d="M336.8,82.1c0-1.8,2.5-3.5,4.5-3.5c1.3,0,2.3,0.7,2.3,1.7c0,1.7-2.5,3.5-4.6,3.5C337.8,83.8,336.8,83.2,336.8,82.1z"/>
</g>
<rect x="359.2" y="64" width="0.5" height="14"/>
<g>
	<path d="M352.7,79.6c0-1.8,2.5-3.5,4.5-3.5c1.3,0,2.3,0.7,2.3,1.7c0,1.7-2.5,3.5-4.6,3.5C353.7,81.3,352.7,80.7,352.7,79.6z"/>
</g>
<rect x="375.1" y="59.1" width="0.5" height="16.4"/>
<g>
	<path d="M368.7,77.1c0-1.8,2.5-3.5,4.5-3.5c1.3,0,2.3,0.7,2.3,1.7c0,1.7-2.5,3.5-4.6,3.5C369.7,78.8,368.7,78.2,368.7,77.1z"/>
</g>
<rect x="391.1" y="57.5" width="0.5" height="15.5"/>
<g>
	<path d="M384.7,74.6c0-1.8,2.5-3.5,4.5-3.5c1.3,0,2.3,0.7,2.3,1.7c0,1.7-2.5,3.5-4.6,3.5C385.7,76.4,384.7,75.7,384.7,74.6z"/>
</g>
<rect x="407.1" y="55.8" width="0.5" height="14.7"/>
<g>
	<path d="M400.6,72.2c0-1.8,2.5-3.5,4.5-3.5c1.3,0,2.3,0.7,2.3,1.7c0,1.7-2.5,3.5-4.6,3.5C401.6,73.9,400.6,73.3,400.6,72.2z"/>
</g>
<rect x="423" y="54.1" width="0.5" height="14"/>
<g>
	<path d="M416.6,69.7c0-1.8,2.5-3.5,4.5-3.5c1.3,0,2.3,0.7,2.3,1.7c0,1.7-2.5,3.5-4.6,3.5C417.6,71.4,416.6,70.8,416.6,69.7z"/>
</g>
<rect x="432.5" y="67.1" width="0.5" height="16.4"/>
<g>
	<path d="M432.6,67.2c0-1.8,2.5-3.5,4.5-3.5c1.3,0,2.3,0.7,2.3,1.7c0,1.7-2.5,3.5-4.6,3.5C433.6,68.9,432.6,68.3,432.6,67.2z"/>
</g>
<rect x="448.3" y="64.6" width="0.5" height="17.4"/>
<g>
	<path d="M448.4,64.7c0-1.8,2.5-3.5,4.5-3.5c1.3,0,2.3,0.7,2.3,1.7c0,1.7-2.5,3.5-4.6,3.5C449.4,66.4,448.4,65.8,448.4,64.7z"/>
</g>
<rect x="464.3" y="62.2" width="0.5" height="18.1"/>
<g>
	<path d="M464.4,62.2c0-1.8,2.5-3.5,4.5-3.5c1.3,0,2.3,0.7,2.3,1.7c0,1.7-2.5,3.5-4.6,3.5C465.3,64,464.4,63.3,464.4,62.2z"/>
</g>
<rect x="480.2" y="59.7" width="0.5" height="18.9"/>
<g>
	<path d="M480.3,59.8c0-1.8,2.5-3.5,4.5-3.5c1.3,0,2.3,0.7,2.3,1.7c0,1.7-2.5,3.5-4.6,3.5C481.3,61.5,480.3,60.9,480.3,59.8z"/>
</g>
<rect x="496.2" y="57.2" width="0.5" height="16.6"/>
<g>
	<path d="M500.6,53.7c1.6,0,2.7,0.7,2.7,2c0,1.9-2.3,3.4-4.5,3.4c-1.3,0-2.4-0.7-2.4-1.8C496.3,55.5,498.5,53.7,500.6,53.7z
		 M496.7,57.6c0,0.6,0.4,0.9,1.1,0.9c1.4,0,4.9-2.1,4.9-3.3c0-0.6-0.4-0.9-1.1-0.9C500.4,54.3,496.7,56.3,496.7,57.6z"/>
</g>
</svg>
