<?xml version="1.0" encoding="utf-8"?>

<!--
	ScaleBook
	Copyright (c) Leland Jansen 2015. All rights reserved.
-->

<!DOCTYPE svg PUBLIC "-//W3C//DTD SVG 1.1//EN" "http://www.w3.org/Graphics/SVG/1.1/DTD/svg11.dtd">
<svg version="1.1" id="Layer_1" xmlns="http://www.w3.org/2000/svg" xmlns:xlink="http://www.w3.org/1999/xlink" x="0px" y="0px"
	 viewBox="0 0 552.9 93.7" enable-background="new 0 0 552.9 93.7" xml:space="preserve">
<rect x="8.4" y="14.2" width="0.8" height="67"/>
<g>
	<path d="M7.4,14.9c-1.9,1.1-3.6,5.8-3.6,9.4c0,2.3,1.4,9.9,1.4,12.3c0,5-1.5,8.6-4.6,11.1c3,2.4,4.6,6.1,4.6,11
		c0,2.3-1.4,9.9-1.4,12.3c0,3.8,1.7,8.4,3.6,9.5v0.7C3.9,78.9,1.7,73,1.7,68.1c0-2.1,1.7-9.4,1.7-11.5c0-3.8-1-6.6-2.9-8.2
		C0.1,48.1,0,47.9,0,47.7s0.1-0.4,0.5-0.7c1.9-1.7,2.9-4.2,2.9-7.6c0-2.1-1.7-10-1.7-12.2c0-5.2,2.1-10.4,5.8-13.1V14.9z"/>
</g>
<rect x="547.8" y="14.2" width="0.8" height="67"/>
<rect x="550.4" y="14.2" width="2.5" height="67"/>
<rect x="8.5" y="33.9" width="544.4" height="0.5"/>
<rect x="8.5" y="28.9" width="544.4" height="0.5"/>
<rect x="8.5" y="23.9" width="544.4" height="0.5"/>
<rect x="8.5" y="19" width="544.4" height="0.5"/>
<rect x="8.5" y="14" width="544.4" height="0.5"/>
<g>
	<path d="M20.3,33.9c-4.2,0-8.1-3.1-8.1-6.9c0-3.2,2.3-6.7,6.8-10.5c-0.3-1.2-0.4-2.4-0.4-3.6c0-3.5,1.2-6.8,3.2-8.5
		c1.8,2.5,2.7,4.9,2.7,7.1c0,2.9-1.3,5.6-4.3,8.1l0.9,4.2c0.5,0,0.8-0.1,0.8-0.1c2.6,0,4.8,2,4.8,4.7c0,1.9-1.4,3.7-3.6,4.8
		c0-0.1,0.9,3.8,0.9,4.3c0,2.5-2.3,4.2-4.9,4.2c-2,0-3.6-1.3-3.6-3.4c0-1.4,1-2.6,2.4-2.6c1.3,0,2.3,1.3,2.3,2.5
		c0,1.4-1.2,2.3-2.7,2.5c0.6,0.3,1.2,0.5,1.9,0.5c2.1,0,4.1-1.6,4.1-3.6c0-0.2,0-0.4-0.1-0.6l-0.8-3.7
		C21.9,33.8,21.2,33.9,20.3,33.9z M18.1,28.7c0,1,0.5,1.9,1.6,2.5c-1.8-0.3-3-1.4-3-3.1c0-2,1.7-3.7,3.8-4.1l-0.8-4
		C16,22.8,14,25.5,14,28.2c0,2.9,2.8,5.3,6,5.3c0.9,0,1.7-0.2,2.4-0.5L21,26.1C19.4,26.3,18.1,27.3,18.1,28.7z M22.1,7.4
		c-1.6,0-2.9,3.7-2.9,7c0,0.7,0,1.3,0.2,1.9c2.7-2.4,4-4.5,4-6.5c0-0.9-0.3-1.7-1-2.4C22.4,7.4,22.3,7.4,22.1,7.4z M24.9,29.2
		c0-1.6-1.2-3.3-2.9-3.3c-0.1,0-0.2,0-0.5,0l1.4,6.6C24.2,31.7,24.9,30.6,24.9,29.2z"/>
</g>
<g>
	<path d="M29.5,15.9h0.6L30,22.1c0.4-0.7,1-1,1.8-1c1.2,0,2.2,0.8,2.2,1.9c0,0.8-0.5,1.8-1.7,2.7l-2.8,2.1V15.9z M30.1,22.8
		C30,23.5,30,24.2,30,24.7c0,1,0,1.6,0.1,2c1-0.7,2.4-2.6,2.4-3.7c0-0.6-0.5-1.1-1.1-1.1C30.8,21.9,30.4,22.2,30.1,22.8z"/>
</g>
<g>
	<path d="M35.1,8.4h0.6l-0.1,6.2c0.4-0.7,1-1,1.8-1c1.2,0,2.2,0.8,2.2,1.9c0,0.8-0.5,1.8-1.7,2.7l-2.8,2.1V8.4z M35.7,15.3
		c-0.1,0.8-0.1,1.4-0.1,1.9c0,1,0,1.6,0.1,2c1-0.7,2.4-2.6,2.4-3.7c0-0.6-0.5-1.1-1.1-1.1C36.4,14.5,36,14.8,35.7,15.3z"/>
</g>
<g>
	<path d="M40.7,18.3h0.6l-0.1,6.2c0.4-0.7,1-1,1.8-1c1.2,0,2.2,0.8,2.2,1.9c0,0.8-0.5,1.8-1.7,2.7l-2.8,2.1V18.3z M41.3,25.2
		c-0.1,0.8-0.1,1.4-0.1,1.9c0,1,0,1.6,0.1,2c1-0.7,2.4-2.6,2.4-3.7c0-0.6-0.5-1.1-1.1-1.1C42,24.4,41.6,24.7,41.3,25.2z"/>
</g>
<polygon fill-rule="evenodd" clip-rule="evenodd" points="60.4,25.4 107.8,20.4 107.8,18 60.4,22.9 "/>
<polygon fill-rule="evenodd" clip-rule="evenodd" points="60.4,21.7 107.8,16.7 107.8,14.2 60.4,19.2 "/>
<polygon fill-rule="evenodd" clip-rule="evenodd" points="123.6,15.5 171.1,10.5 171.1,8 123.6,13 "/>
<polygon fill-rule="evenodd" clip-rule="evenodd" points="123.6,11.8 171.1,6.8 171.1,4.3 123.6,9.3 "/>
<polygon fill-rule="evenodd" clip-rule="evenodd" points="180.4,30.4 228,25.4 228,22.9 180.4,27.9 "/>
<polygon fill-rule="evenodd" clip-rule="evenodd" points="180.4,34.1 228,29.1 228,26.6 180.4,31.6 "/>
<polygon fill-rule="evenodd" clip-rule="evenodd" points="243.8,21.7 291.4,20.4 291.4,18 243.8,19.2 "/>
<polygon fill-rule="evenodd" clip-rule="evenodd" points="243.8,25.4 291.4,24.2 291.4,21.7 243.8,22.9 "/>
<polygon fill-rule="evenodd" clip-rule="evenodd" points="307.2,25.4 354.6,30.4 354.6,27.9 307.2,22.9 "/>
<polygon fill-rule="evenodd" clip-rule="evenodd" points="307.2,29.1 354.6,34.1 354.6,31.6 307.2,26.6 "/>
<polygon fill-rule="evenodd" clip-rule="evenodd" points="370.4,35.3 417.9,40.3 417.9,37.8 370.4,32.8 "/>
<polygon fill-rule="evenodd" clip-rule="evenodd" points="370.4,39 417.9,44 417.9,41.5 370.4,36.6 "/>
<polygon fill-rule="evenodd" clip-rule="evenodd" points="440.2,20.4 487.6,25.4 487.6,22.9 440.2,18 "/>
<polygon fill-rule="evenodd" clip-rule="evenodd" points="440.2,16.7 487.6,21.7 487.6,19.2 440.2,14.2 "/>
<rect x="8.5" y="81" width="544.4" height="0.5"/>
<rect x="8.5" y="76" width="544.4" height="0.5"/>
<rect x="8.5" y="71.1" width="544.4" height="0.5"/>
<rect x="8.5" y="66.1" width="544.4" height="0.5"/>
<rect x="8.5" y="61.1" width="544.4" height="0.5"/>
<g>
	<path d="M15.7,75.5c2.9-2.6,4.7-6.1,4.7-9.2c0-2.5-1.4-4.4-3.7-4.4c-1.6,0-3.4,1.3-3.4,2.7c0,0.2,0,0.3,0.1,0.3
		c-0.1,0,0.6-0.6,1.4-0.6c0.9,0,1.5,0.8,1.5,1.7c0,1.2-0.9,2.2-2.1,2.2c-1.2,0-2.1-1.3-2.1-2.8c0-2.3,2.3-4.1,4.8-4.1
		c4.7,0,5.9,3.2,5.9,5.8c0,1.6-0.4,2.9-2,5.3c-1.9,3.1-6.4,5.3-8.1,5.3c-0.4,0-0.6-0.2-0.6-0.5C13.8,76.8,14.9,76.2,15.7,75.5z
		 M25.7,62.9c0.6,0,1,0.4,1,1s-0.4,1-1,1s-1-0.4-1-1S25.1,62.9,25.7,62.9z M25.7,67.8c0.6,0,1,0.4,1,1s-0.4,1-1,1s-1-0.4-1-1
		S25.1,67.8,25.7,67.8z"/>
</g>
<g>
	<path d="M29.5,67.9h0.6L30,74.2c0.4-0.7,1-1,1.8-1c1.2,0,2.2,0.8,2.2,1.9c0,0.8-0.5,1.8-1.7,2.7l-2.8,2.1V67.9z M30.1,74.8
		C30,75.6,30,76.2,30,76.8c0,1,0,1.6,0.1,2c1-0.7,2.4-2.6,2.4-3.7c0-0.6-0.5-1.1-1.1-1.1C30.8,74,30.4,74.3,30.1,74.8z"/>
</g>
<g>
	<path d="M35.1,60.5h0.6l-0.1,6.2c0.4-0.7,1-1,1.8-1c1.2,0,2.2,0.8,2.2,1.9c0,0.8-0.5,1.8-1.7,2.7l-2.8,2.1V60.5z M35.7,67.4
		c-0.1,0.8-0.1,1.4-0.1,1.9c0,1,0,1.6,0.1,2c1-0.7,2.4-2.6,2.4-3.7c0-0.6-0.5-1.1-1.1-1.1C36.4,66.6,36,66.8,35.7,67.4z"/>
</g>
<g>
	<path d="M40.7,70.4h0.6l-0.1,6.2c0.4-0.7,1-1,1.8-1c1.2,0,2.2,0.8,2.2,1.9c0,0.8-0.5,1.8-1.7,2.7l-2.8,2.1V70.4z M41.3,77.3
		c-0.1,0.8-0.1,1.4-0.1,1.9c0,1,0,1.6,0.1,2c1-0.7,2.4-2.6,2.4-3.7c0-0.6-0.5-1.1-1.1-1.1C42,76.5,41.6,76.8,41.3,77.3z"/>
</g>
<polygon fill-rule="evenodd" clip-rule="evenodd" points="53.9,72.5 101.3,77.5 101.3,75 53.9,70 "/>
<polygon fill-rule="evenodd" clip-rule="evenodd" points="53.9,76.2 101.3,81.2 101.3,78.7 53.9,73.8 "/>
<polygon fill-rule="evenodd" clip-rule="evenodd" points="117.1,82.4 164.6,87.4 164.6,84.9 117.1,80 "/>
<polygon fill-rule="evenodd" clip-rule="evenodd" points="117.1,86.2 164.6,91.1 164.6,88.6 117.1,83.7 "/>
<polygon fill-rule="evenodd" clip-rule="evenodd" points="186.9,67.6 234.5,72.5 234.5,70 186.9,65.1 "/>
<polygon fill-rule="evenodd" clip-rule="evenodd" points="186.9,63.8 234.5,68.8 234.5,66.3 186.9,61.4 "/>
<polygon fill-rule="evenodd" clip-rule="evenodd" points="250.3,76.2 297.9,77.5 297.9,75 250.3,73.8 "/>
<polygon fill-rule="evenodd" clip-rule="evenodd" points="250.3,72.5 297.9,73.8 297.9,71.3 250.3,70 "/>
<polygon fill-rule="evenodd" clip-rule="evenodd" points="313.7,72.5 361.1,67.6 361.1,65.1 313.7,70 "/>
<polygon fill-rule="evenodd" clip-rule="evenodd" points="313.7,68.8 361.1,63.8 361.1,61.4 313.7,66.3 "/>
<polygon fill-rule="evenodd" clip-rule="evenodd" points="376.9,62.6 424.4,57.6 424.4,55.2 376.9,60.1 "/>
<polygon fill-rule="evenodd" clip-rule="evenodd" points="376.9,58.9 424.4,53.9 424.4,51.4 376.9,56.4 "/>
<polygon fill-rule="evenodd" clip-rule="evenodd" points="433.7,77.5 481.1,72.5 481.1,70 433.7,75 "/>
<polygon fill-rule="evenodd" clip-rule="evenodd" points="433.7,81.2 481.1,76.2 481.1,73.8 433.7,78.7 "/>
<rect x="51.9" y="38.7" width="10.5" height="0.8"/>
<rect x="60.2" y="19.4" width="0.5" height="18.9"/>
<g>
	<path d="M53.7,39.9c0-1.8,2.5-3.5,4.5-3.5c1.3,0,2.3,0.7,2.3,1.7c0,1.7-2.5,3.5-4.6,3.5C54.7,41.6,53.7,41,53.7,39.9z"/>
</g>
<rect x="76" y="17.8" width="0.5" height="18"/>
<g>
	<path d="M69.5,37.4c0-1.8,2.5-3.5,4.5-3.5c1.3,0,2.3,0.7,2.3,1.7c0,1.7-2.5,3.5-4.6,3.5C70.5,39.1,69.5,38.5,69.5,37.4z"/>
</g>
<rect x="91.8" y="16.1" width="0.5" height="17.2"/>
<g>
	<path d="M85.3,34.9c0-1.8,2.5-3.5,4.5-3.5c1.3,0,2.3,0.7,2.3,1.7c0,1.7-2.5,3.5-4.6,3.5C86.3,36.7,85.3,36,85.3,34.9z"/>
</g>
<rect x="107.6" y="14.4" width="0.5" height="16.4"/>
<g>
	<path d="M101.2,32.5c0-1.8,2.5-3.5,4.5-3.5c1.3,0,2.3,0.7,2.3,1.7c0,1.7-2.5,3.5-4.6,3.5C102.1,34.2,101.2,33.5,101.2,32.5z"/>
</g>
<rect x="123.4" y="9.4" width="0.5" height="18.9"/>
<g>
	<path d="M117,30c0-1.8,2.5-3.5,4.5-3.5c1.3,0,2.3,0.7,2.3,1.7c0,1.7-2.5,3.5-4.6,3.5C117.9,31.7,117,31.1,117,30z"/>
</g>
<rect x="139.2" y="7.9" width="0.5" height="18"/>
<g>
	<path d="M132.8,27.5c0-1.8,2.5-3.5,4.5-3.5c1.3,0,2.3,0.7,2.3,1.7c0,1.7-2.5,3.5-4.6,3.5C133.8,29.2,132.8,28.6,132.8,27.5z"/>
</g>
<rect x="155" y="6.2" width="0.5" height="17.2"/>
<g>
	<path d="M148.6,25c0-1.8,2.5-3.5,4.5-3.5c1.3,0,2.3,0.7,2.3,1.7c0,1.7-2.5,3.5-4.6,3.5C149.6,26.7,148.6,26.1,148.6,25z"/>
</g>
<g>
	<path d="M146.7,30.9v-4l-3,1.1V17.4h0.5v4l3-1.1v10.7H146.7z M144.1,26.3l2.5-0.9V22l-2.5,0.9V26.3z"/>
</g>
<rect x="170.8" y="4.5" width="0.5" height="16.4"/>
<g>
	<path d="M164.4,22.5c0-1.8,2.5-3.5,4.5-3.5c1.3,0,2.3,0.7,2.3,1.7c0,1.7-2.5,3.5-4.6,3.5C165.4,24.3,164.4,23.6,164.4,22.5z"/>
</g>
<rect x="180.1" y="20" width="0.5" height="14"/>
<g>
	<path d="M180.2,20.1c0-1.8,2.5-3.5,4.5-3.5c1.3,0,2.3,0.7,2.3,1.7c0,1.7-2.5,3.5-4.6,3.5C181.2,21.8,180.2,21.1,180.2,20.1z"/>
</g>
<rect x="196" y="17.5" width="0.5" height="14.9"/>
<g>
	<path d="M196,17.6c0-1.8,2.5-3.5,4.5-3.5c1.3,0,2.3,0.7,2.3,1.7c0,1.7-2.5,3.5-4.6,3.5C197,19.3,196,18.7,196,17.6z"/>
</g>
<rect x="211.8" y="15" width="0.5" height="15.7"/>
<g>
	<path d="M211.8,15.1c0-1.8,2.5-3.5,4.5-3.5c1.3,0,2.3,0.7,2.3,1.7c0,1.7-2.5,3.5-4.6,3.5C212.8,16.8,211.8,16.2,211.8,15.1z"/>
</g>
<rect x="227.7" y="12.5" width="0.5" height="16.4"/>
<g>
	<path d="M227.8,12.6c0-1.8,2.5-3.5,4.5-3.5c1.3,0,2.3,0.7,2.3,1.7c0,1.7-2.5,3.5-4.6,3.5C228.8,14.3,227.8,13.7,227.8,12.6z"/>
</g>
<rect x="241.8" y="8.9" width="10.5" height="0.8"/>
<rect x="243.5" y="10.1" width="0.5" height="15.2"/>
<g>
	<path d="M243.6,10.1c0-1.8,2.5-3.5,4.5-3.5c1.3,0,2.3,0.7,2.3,1.7c0,1.7-2.5,3.5-4.6,3.5C244.6,11.9,243.6,11.2,243.6,10.1z"/>
</g>
<rect x="257.7" y="8.9" width="10.5" height="0.8"/>
<rect x="259.5" y="7.6" width="0.5" height="17.4"/>
<g>
	<path d="M259.6,7.7c0-1.8,2.5-3.5,4.5-3.5c1.3,0,2.3,0.7,2.3,1.7c0,1.7-2.5,3.5-4.6,3.5C260.6,9.4,259.6,8.7,259.6,7.7z"/>
</g>
<g>
	<path d="M256.4,13.6v-4l-3,1.1V0h0.5v4l3-1.1v10.7H256.4z M253.9,8.9l2.5-0.9V4.7l-2.5,0.9V8.9z"/>
</g>
<rect x="273.5" y="8.9" width="10.5" height="0.8"/>
<rect x="273.5" y="3.9" width="10.5" height="0.8"/>
<rect x="275.3" y="5.1" width="0.5" height="19.4"/>
<g>
	<path d="M275.4,5.2c0-1.8,2.5-3.5,4.5-3.5c1.3,0,2.3,0.7,2.3,1.7c0,1.7-2.5,3.5-4.6,3.5C276.4,6.9,275.4,6.3,275.4,5.2z"/>
</g>
<rect x="289.3" y="8.9" width="10.5" height="0.8"/>
<rect x="291.1" y="7.6" width="0.5" height="16.4"/>
<g>
	<path d="M291.2,7.7c0-1.8,2.5-3.5,4.5-3.5c1.3,0,2.3,0.7,2.3,1.7c0,1.7-2.5,3.5-4.6,3.5C292.2,9.4,291.2,8.7,291.2,7.7z"/>
</g>
<rect x="305.2" y="8.9" width="10.5" height="0.8"/>
<rect x="306.9" y="10.1" width="0.5" height="18.9"/>
<g>
	<path d="M307,10.1c0-1.8,2.5-3.5,4.5-3.5c1.3,0,2.3,0.7,2.3,1.7c0,1.7-2.5,3.5-4.6,3.5C308,11.9,307,11.2,307,10.1z"/>
</g>
<rect x="322.8" y="12.5" width="0.5" height="18"/>
<g>
	<path d="M322.8,12.6c0-1.8,2.5-3.5,4.5-3.5c1.3,0,2.3,0.7,2.3,1.7c0,1.7-2.5,3.5-4.6,3.5C323.8,14.3,322.8,13.7,322.8,12.6z"/>
</g>
<rect x="338.6" y="15" width="0.5" height="17.2"/>
<g>
	<path d="M338.6,15.1c0-1.8,2.5-3.5,4.5-3.5c1.3,0,2.3,0.7,2.3,1.7c0,1.7-2.5,3.5-4.6,3.5C339.6,16.8,338.6,16.2,338.6,15.1z"/>
</g>
<rect x="354.4" y="17.5" width="0.5" height="16.4"/>
<g>
	<path d="M354.5,17.6c0-1.8,2.5-3.5,4.5-3.5c1.3,0,2.3,0.7,2.3,1.7c0,1.7-2.5,3.5-4.6,3.5C355.4,19.3,354.5,18.7,354.5,17.6z"/>
</g>
<rect x="370.2" y="20" width="0.5" height="18.9"/>
<g>
	<path d="M370.3,20.1c0-1.8,2.5-3.5,4.5-3.5c1.3,0,2.3,0.7,2.3,1.7c0,1.7-2.5,3.5-4.6,3.5C371.2,21.8,370.3,21.1,370.3,20.1z"/>
</g>
<rect x="386" y="22.5" width="0.5" height="18"/>
<g>
	<path d="M386.1,22.5c0-1.8,2.5-3.5,4.5-3.5c1.3,0,2.3,0.7,2.3,1.7c0,1.7-2.5,3.5-4.6,3.5C387,24.3,386.1,23.6,386.1,22.5z"/>
</g>
<rect x="401.8" y="24.9" width="0.5" height="17.2"/>
<g>
	<path d="M401.9,25c0-1.8,2.5-3.5,4.5-3.5c1.3,0,2.3,0.7,2.3,1.7c0,1.7-2.5,3.5-4.6,3.5C402.9,26.7,401.9,26.1,401.9,25z"/>
</g>
<rect x="417.6" y="27.4" width="0.5" height="16.4"/>
<g>
	<path d="M417.7,27.5c0-1.8,2.5-3.5,4.5-3.5c1.3,0,2.3,0.7,2.3,1.7c0,1.7-2.5,3.5-4.6,3.5C418.7,29.2,417.7,28.6,417.7,27.5z"/>
</g>
<rect x="439.9" y="14.4" width="0.5" height="14"/>
<g>
	<path d="M433.5,30c0-1.8,2.5-3.5,4.5-3.5c1.3,0,2.3,0.7,2.3,1.7c0,1.7-2.5,3.5-4.6,3.5C434.5,31.7,433.5,31.1,433.5,30z"/>
</g>
<rect x="455.8" y="15.9" width="0.5" height="14.9"/>
<g>
	<path d="M449.3,32.5c0-1.8,2.5-3.5,4.5-3.5c1.3,0,2.3,0.7,2.3,1.7c0,1.7-2.5,3.5-4.6,3.5C450.3,34.2,449.3,33.5,449.3,32.5z"/>
</g>
<rect x="471.6" y="17.7" width="0.5" height="15.7"/>
<g>
	<path d="M465.1,34.9c0-1.8,2.5-3.5,4.5-3.5c1.3,0,2.3,0.7,2.3,1.7c0,1.7-2.5,3.5-4.6,3.5C466.1,36.7,465.1,36,465.1,34.9z"/>
</g>
<rect x="487.4" y="19.4" width="0.5" height="16.4"/>
<g>
	<path d="M480.9,37.4c0-1.8,2.5-3.5,4.5-3.5c1.3,0,2.3,0.7,2.3,1.7c0,1.7-2.5,3.5-4.6,3.5C481.9,39.1,480.9,38.5,480.9,37.4z"/>
</g>
<rect x="494.9" y="38.7" width="10.7" height="0.8"/>
<rect x="503.3" y="21.7" width="0.5" height="16.6"/>
<g>
	<path d="M501,36.3c1.6,0,2.7,0.7,2.7,2c0,1.9-2.3,3.4-4.5,3.4c-1.3,0-2.4-0.7-2.4-1.8C496.8,38.1,499,36.3,501,36.3z M497.2,40.2
		c0,0.6,0.4,0.9,1.1,0.9c1.4,0,4.9-2.1,4.9-3.3c0-0.6-0.4-0.9-1.1-0.9C500.9,36.9,497.2,39,497.2,40.2z"/>
</g>
<rect x="51.9" y="56" width="10.5" height="0.8"/>
<rect x="53.6" y="57.2" width="0.5" height="18.9"/>
<g>
	<path d="M53.7,57.3c0-1.8,2.5-3.5,4.5-3.5c1.3,0,2.3,0.7,2.3,1.7c0,1.7-2.5,3.5-4.6,3.5C54.7,59,53.7,58.4,53.7,57.3z"/>
</g>
<rect x="69.5" y="59.7" width="0.5" height="18"/>
<g>
	<path d="M69.5,59.7c0-1.8,2.5-3.5,4.5-3.5c1.3,0,2.3,0.7,2.3,1.7c0,1.7-2.5,3.5-4.6,3.5C70.5,61.5,69.5,60.8,69.5,59.7z"/>
</g>
<g>
	<path d="M67.6,65.7v-4l-3,1.1V52.1h0.5v4l3-1.1v10.7H67.6z M65.1,61l2.5-0.9v-3.3l-2.5,0.9V61z"/>
</g>
<rect x="85.3" y="62.1" width="0.5" height="17.2"/>
<g>
	<path d="M85.3,62.2c0-1.8,2.5-3.5,4.5-3.5c1.3,0,2.3,0.7,2.3,1.7c0,1.7-2.5,3.5-4.6,3.5C86.3,63.9,85.3,63.3,85.3,62.2z"/>
</g>
<rect x="101.1" y="64.6" width="0.5" height="16.4"/>
<g>
	<path d="M101.2,64.7c0-1.8,2.5-3.5,4.5-3.5c1.3,0,2.3,0.7,2.3,1.7c0,1.7-2.5,3.5-4.6,3.5C102.1,66.4,101.2,65.8,101.2,64.7z"/>
</g>
<rect x="116.9" y="67.1" width="0.5" height="18.9"/>
<g>
	<path d="M117,67.2c0-1.8,2.5-3.5,4.5-3.5c1.3,0,2.3,0.7,2.3,1.7c0,1.7-2.5,3.5-4.6,3.5C117.9,68.9,117,68.3,117,67.2z"/>
</g>
<rect x="132.7" y="69.6" width="0.5" height="18"/>
<g>
	<path d="M132.8,69.7c0-1.8,2.5-3.5,4.5-3.5c1.3,0,2.3,0.7,2.3,1.7c0,1.7-2.5,3.5-4.6,3.5C133.8,71.4,132.8,70.8,132.8,69.7z"/>
</g>
<rect x="148.5" y="72.1" width="0.5" height="17.2"/>
<g>
	<path d="M148.6,72.1c0-1.8,2.5-3.5,4.5-3.5c1.3,0,2.3,0.7,2.3,1.7c0,1.7-2.5,3.5-4.6,3.5C149.6,73.9,148.6,73.2,148.6,72.1z"/>
</g>
<rect x="164.3" y="74.5" width="0.5" height="16.4"/>
<g>
	<path d="M164.4,74.6c0-1.8,2.5-3.5,4.5-3.5c1.3,0,2.3,0.7,2.3,1.7c0,1.7-2.5,3.5-4.6,3.5C165.4,76.3,164.4,75.7,164.4,74.6z"/>
</g>
<rect x="186.6" y="61.5" width="0.5" height="14"/>
<g>
	<path d="M180.2,77.1c0-1.8,2.5-3.5,4.5-3.5c1.3,0,2.3,0.7,2.3,1.7c0,1.7-2.5,3.5-4.6,3.5C181.2,78.8,180.2,78.2,180.2,77.1z"/>
</g>
<g>
	<path d="M178.3,83v-4l-3,1.1V69.4h0.5v4l3-1.1V83H178.3z M175.8,78.3l2.5-0.9v-3.3l-2.5,0.9V78.3z"/>
</g>
<rect x="202.5" y="63.1" width="0.5" height="14.9"/>
<g>
	<path d="M196,79.6c0-1.8,2.5-3.5,4.5-3.5c1.3,0,2.3,0.7,2.3,1.7c0,1.7-2.5,3.5-4.6,3.5C197,81.3,196,80.7,196,79.6z"/>
</g>
<g>
	<path d="M190.1,70.4h0.6l-0.1,6.2c0.4-0.7,1-1,1.8-1c1.2,0,2.2,0.8,2.2,1.9c0,0.8-0.5,1.8-1.7,2.7l-2.8,2.1V70.4z M190.7,77.3
		c-0.1,0.8-0.1,1.4-0.1,1.9c0,1,0,1.6,0.1,2c1-0.7,2.4-2.6,2.4-3.7c0-0.6-0.5-1.1-1.1-1.1C191.4,76.5,191,76.8,190.7,77.3z"/>
</g>
<rect x="218.3" y="64.8" width="0.5" height="15.7"/>
<g>
	<path d="M211.8,82.1c0-1.8,2.5-3.5,4.5-3.5c1.3,0,2.3,0.7,2.3,1.7c0,1.7-2.5,3.5-4.6,3.5C212.8,83.8,211.8,83.2,211.8,82.1z"/>
</g>
<rect x="234.2" y="66.5" width="0.5" height="16.4"/>
<g>
	<path d="M227.8,84.5c0-1.8,2.5-3.5,4.5-3.5c1.3,0,2.3,0.7,2.3,1.7c0,1.7-2.5,3.5-4.6,3.5C228.8,86.3,227.8,85.6,227.8,84.5z"/>
</g>
<rect x="241.8" y="85.8" width="10.5" height="0.8"/>
<rect x="250.1" y="70.2" width="0.5" height="15.2"/>
<g>
	<path d="M243.6,87c0-1.8,2.5-3.5,4.5-3.5c1.3,0,2.3,0.7,2.3,1.7c0,1.7-2.5,3.5-4.6,3.5C244.6,88.7,243.6,88.1,243.6,87z"/>
</g>
<rect x="257.7" y="85.8" width="10.5" height="0.8"/>
<rect x="266" y="70.5" width="0.5" height="17.4"/>
<g>
	<path d="M259.6,89.5c0-1.8,2.5-3.5,4.5-3.5c1.3,0,2.3,0.7,2.3,1.7c0,1.7-2.5,3.5-4.6,3.5C260.6,91.2,259.6,90.6,259.6,89.5z"/>
</g>
<rect x="273.5" y="85.8" width="10.5" height="0.8"/>
<rect x="273.5" y="90.7" width="10.5" height="0.8"/>
<rect x="281.8" y="71" width="0.5" height="19.4"/>
<g>
	<path d="M275.4,92c0-1.8,2.5-3.5,4.5-3.5c1.3,0,2.3,0.7,2.3,1.7c0,1.7-2.5,3.5-4.6,3.5C276.4,93.7,275.4,93.1,275.4,92z"/>
</g>
<rect x="289.3" y="85.8" width="10.5" height="0.8"/>
<rect x="297.6" y="71.4" width="0.5" height="16.4"/>
<g>
	<path d="M291.2,89.5c0-1.8,2.5-3.5,4.5-3.5c1.3,0,2.3,0.7,2.3,1.7c0,1.7-2.5,3.5-4.6,3.5C292.2,91.2,291.2,90.6,291.2,89.5z"/>
</g>
<rect x="305.2" y="85.8" width="10.5" height="0.8"/>
<rect x="313.5" y="66.5" width="0.5" height="18.9"/>
<g>
	<path d="M307,87c0-1.8,2.5-3.5,4.5-3.5c1.3,0,2.3,0.7,2.3,1.7c0,1.7-2.5,3.5-4.6,3.5C308,88.7,307,88.1,307,87z"/>
</g>
<rect x="329.3" y="64.9" width="0.5" height="18"/>
<g>
	<path d="M322.8,84.5c0-1.8,2.5-3.5,4.5-3.5c1.3,0,2.3,0.7,2.3,1.7c0,1.7-2.5,3.5-4.6,3.5C323.8,86.3,322.8,85.6,322.8,84.5z"/>
</g>
<rect x="345.1" y="63.2" width="0.5" height="17.2"/>
<g>
	<path d="M338.6,82.1c0-1.8,2.5-3.5,4.5-3.5c1.3,0,2.3,0.7,2.3,1.7c0,1.7-2.5,3.5-4.6,3.5C339.6,83.8,338.6,83.2,338.6,82.1z"/>
</g>
<rect x="360.9" y="61.5" width="0.5" height="16.4"/>
<g>
	<path d="M354.5,79.6c0-1.8,2.5-3.5,4.5-3.5c1.3,0,2.3,0.7,2.3,1.7c0,1.7-2.5,3.5-4.6,3.5C355.4,81.3,354.5,80.7,354.5,79.6z"/>
</g>
<rect x="376.7" y="56.6" width="0.5" height="18.9"/>
<g>
	<path d="M370.3,77.1c0-1.8,2.5-3.5,4.5-3.5c1.3,0,2.3,0.7,2.3,1.7c0,1.7-2.5,3.5-4.6,3.5C371.2,78.8,370.3,78.2,370.3,77.1z"/>
</g>
<rect x="392.5" y="55" width="0.5" height="18"/>
<g>
	<path d="M386.1,74.6c0-1.8,2.5-3.5,4.5-3.5c1.3,0,2.3,0.7,2.3,1.7c0,1.7-2.5,3.5-4.6,3.5C387,76.3,386.1,75.7,386.1,74.6z"/>
</g>
<rect x="408.3" y="53.3" width="0.5" height="17.2"/>
<g>
	<path d="M401.9,72.1c0-1.8,2.5-3.5,4.5-3.5c1.3,0,2.3,0.7,2.3,1.7c0,1.7-2.5,3.5-4.6,3.5C402.9,73.9,401.9,73.2,401.9,72.1z"/>
</g>
<rect x="424.1" y="51.6" width="0.5" height="16.4"/>
<g>
	<path d="M417.7,69.7c0-1.8,2.5-3.5,4.5-3.5c1.3,0,2.3,0.7,2.3,1.7c0,1.7-2.5,3.5-4.6,3.5C418.7,71.4,417.7,70.8,417.7,69.7z"/>
</g>
<rect x="433.4" y="67.1" width="0.5" height="14"/>
<g>
	<path d="M433.5,67.2c0-1.8,2.5-3.5,4.5-3.5c1.3,0,2.3,0.7,2.3,1.7c0,1.7-2.5,3.5-4.6,3.5C434.5,68.9,433.5,68.3,433.5,67.2z"/>
</g>
<rect x="449.2" y="64.6" width="0.5" height="14.9"/>
<g>
	<path d="M449.3,64.7c0-1.8,2.5-3.5,4.5-3.5c1.3,0,2.3,0.7,2.3,1.7c0,1.7-2.5,3.5-4.6,3.5C450.3,66.4,449.3,65.8,449.3,64.7z"/>
</g>
<rect x="465.1" y="62.1" width="0.5" height="15.7"/>
<g>
	<path d="M465.1,62.2c0-1.8,2.5-3.5,4.5-3.5c1.3,0,2.3,0.7,2.3,1.7c0,1.7-2.5,3.5-4.6,3.5C466.1,63.9,465.1,63.3,465.1,62.2z"/>
</g>
<rect x="480.9" y="59.7" width="0.5" height="16.4"/>
<g>
	<path d="M480.9,59.7c0-1.8,2.5-3.5,4.5-3.5c1.3,0,2.3,0.7,2.3,1.7c0,1.7-2.5,3.5-4.6,3.5C481.9,61.5,480.9,60.8,480.9,59.7z"/>
</g>
<rect x="494.9" y="56" width="10.7" height="0.8"/>
<rect x="496.7" y="57.2" width="0.5" height="16.6"/>
<g>
	<path d="M501,53.7c1.6,0,2.7,0.7,2.7,2c0,1.9-2.3,3.4-4.5,3.4c-1.3,0-2.4-0.7-2.4-1.8C496.8,55.5,499,53.7,501,53.7z M497.2,57.6
		c0,0.6,0.4,0.9,1.1,0.9c1.4,0,4.9-2.1,4.9-3.3c0-0.6-0.4-0.9-1.1-0.9C500.9,54.3,497.2,56.3,497.2,57.6z"/>
</g>
</svg>
