<?xml version="1.0" encoding="utf-8"?>

<!--
	ScaleBook
	Copyright (c) Leland Jansen 2015. All rights reserved.
-->

<!DOCTYPE svg PUBLIC "-//W3C//DTD SVG 1.1//EN" "http://www.w3.org/Graphics/SVG/1.1/DTD/svg11.dtd">
<svg version="1.1" id="Layer_1" xmlns="http://www.w3.org/2000/svg" xmlns:xlink="http://www.w3.org/1999/xlink" x="0px" y="0px"
	 viewBox="0 0 552.9 92" enable-background="new 0 0 552.9 92" xml:space="preserve">
<rect x="8.4" y="15" width="0.8" height="67"/>
<g>
	<path d="M7.4,15.7c-1.9,1.1-3.6,5.8-3.6,9.4c0,2.3,1.4,9.9,1.4,12.3c0,5-1.5,8.6-4.6,11.1c3,2.4,4.6,6.1,4.6,11
		c0,2.3-1.4,9.9-1.4,12.3c0,3.8,1.7,8.4,3.6,9.5V82c-3.5-2.3-5.8-8.2-5.8-13.1c0-2.1,1.7-9.4,1.7-11.5c0-3.8-1-6.6-2.9-8.2
		C0.1,48.9,0,48.7,0,48.5s0.1-0.4,0.5-0.7c1.9-1.7,2.9-4.2,2.9-7.6c0-2.1-1.7-10-1.7-12.2c0-5.2,2.1-10.4,5.8-13.1V15.7z"/>
</g>
<rect x="547.8" y="15" width="0.8" height="67"/>
<rect x="550.4" y="15" width="2.5" height="67"/>
<rect x="8.5" y="34.6" width="544.4" height="0.5"/>
<rect x="8.5" y="29.6" width="544.4" height="0.5"/>
<rect x="8.5" y="24.7" width="544.4" height="0.5"/>
<rect x="8.5" y="19.7" width="544.4" height="0.5"/>
<rect x="8.5" y="14.8" width="544.4" height="0.5"/>
<g>
	<path d="M20.3,34.7c-4.2,0-8.1-3.1-8.1-6.9c0-3.2,2.3-6.7,6.8-10.5c-0.3-1.2-0.4-2.4-0.4-3.6c0-3.5,1.2-6.8,3.2-8.5
		c1.8,2.5,2.7,4.9,2.7,7.1c0,2.9-1.3,5.6-4.3,8.1l0.9,4.2c0.5,0,0.8-0.1,0.8-0.1c2.6,0,4.8,2,4.8,4.7c0,1.9-1.4,3.7-3.6,4.8
		c0-0.1,0.9,3.8,0.9,4.3c0,2.5-2.3,4.2-4.9,4.2c-2,0-3.6-1.3-3.6-3.4c0-1.4,1-2.6,2.4-2.6c1.3,0,2.3,1.3,2.3,2.5
		c0,1.4-1.2,2.3-2.7,2.5c0.6,0.3,1.2,0.5,1.9,0.5c2.1,0,4.1-1.6,4.1-3.6c0-0.2,0-0.4-0.1-0.6l-0.8-3.7
		C21.9,34.5,21.2,34.7,20.3,34.7z M18.1,29.5c0,1,0.5,1.9,1.6,2.5c-1.8-0.3-3-1.4-3-3.1c0-2,1.7-3.7,3.8-4.1l-0.8-4
		C16,23.6,14,26.3,14,28.9c0,2.9,2.8,5.3,6,5.3c0.9,0,1.7-0.2,2.4-0.5L21,26.9C19.4,27.1,18.1,28.1,18.1,29.5z M22.1,8.1
		c-1.6,0-2.9,3.7-2.9,7c0,0.7,0,1.3,0.2,1.9c2.7-2.4,4-4.5,4-6.5c0-0.9-0.3-1.7-1-2.4C22.4,8.1,22.3,8.1,22.1,8.1z M24.9,30
		c0-1.6-1.2-3.3-2.9-3.3c-0.1,0-0.2,0-0.5,0l1.4,6.6C24.2,32.5,24.9,31.3,24.9,30z"/>
</g>
<g>
	<path d="M33.5,8.2V11l1-0.3v1.8l-1,0.3v3.4l1-0.3v1.8l-1,0.3v3.1H33v-3l-1.9,0.6v3h-0.5V19l-1,0.3v-1.8l1-0.3v-3.4l-1,0.3v-1.8
		l1-0.3V8.8h0.5v3l1.9-0.6v-3H33.5z M33,13l-1.9,0.6V17l1.9-0.6V13z"/>
</g>
<g>
	<path d="M39.7,15.6v2.8l1-0.3v1.8l-1,0.3v3.4l1-0.3v1.8l-1,0.3v3.1h-0.5v-3l-1.9,0.6v3h-0.5v-2.8l-1,0.3v-1.8l1-0.3v-3.4l-1,0.3
		v-1.8l1-0.3v-3.1h0.5v3l1.9-0.6v-3H39.7z M39.2,20.4L37.3,21v3.4l1.9-0.6V20.4z"/>
</g>
<g>
	<path d="M45.9,5.7v2.8l1-0.3V10l-1,0.3v3.4l1-0.3v1.8l-1,0.3v3.1h-0.5v-3l-1.9,0.6v3H43v-2.8l-1,0.3V15l1-0.3v-3.4l-1,0.3V9.8
		l1-0.3V6.3h0.5v3l1.9-0.6v-3H45.9z M45.4,10.5l-1.9,0.6v3.4l1.9-0.6V10.5z"/>
</g>
<g>
	<path d="M52.1,13.1V16l1-0.3v1.8l-1,0.3v3.4l1-0.3v1.8l-1,0.3v3.1h-0.5v-3l-1.9,0.6v3h-0.5v-2.8l-1,0.3v-1.8l1-0.3v-3.4l-1,0.3
		v-1.8l1-0.3v-3.1h0.5v3l1.9-0.6v-3H52.1z M51.6,17.9l-1.9,0.6V22l1.9-0.6V17.9z"/>
</g>
<g>
	<path d="M58.3,20.6v2.8l1-0.3v1.8l-1,0.3v3.4l1-0.3v1.8l-1,0.3v3.1h-0.5v-3l-1.9,0.6v3h-0.5v-2.8l-1,0.3v-1.8l1-0.3v-3.4l-1,0.3
		v-1.8l1-0.3v-3.1h0.5v3l1.9-0.6v-3H58.3z M57.8,25.4L55.9,26v3.4l1.9-0.6V25.4z"/>
</g>
<g>
	<path d="M64.5,10.7v2.8l1-0.3V15l-1,0.3v3.4l1-0.3v1.8l-1,0.3v3.1H64v-3l-1.9,0.6v3h-0.5v-2.8l-1,0.3V20l1-0.3v-3.4l-1,0.3v-1.8
		l1-0.3v-3.1h0.5v3l1.9-0.6v-3H64.5z M64,15.4l-1.9,0.6v3.4l1.9-0.6V15.4z"/>
</g>
<polygon fill-rule="evenodd" clip-rule="evenodd" points="80.9,26.2 128.4,21.2 128.4,18.7 80.9,23.7 "/>
<polygon fill-rule="evenodd" clip-rule="evenodd" points="80.9,22.4 128.4,17.5 128.4,15 80.9,20 "/>
<polygon fill-rule="evenodd" clip-rule="evenodd" points="136.8,41 181.9,36.1 181.9,33.6 136.8,38.6 "/>
<polygon fill-rule="evenodd" clip-rule="evenodd" points="136.8,44.8 181.9,39.8 181.9,37.3 136.8,42.3 "/>
<polygon fill-rule="evenodd" clip-rule="evenodd" points="196.8,31.1 241.9,26.2 241.9,23.7 196.8,28.6 "/>
<polygon fill-rule="evenodd" clip-rule="evenodd" points="196.8,34.8 241.9,29.9 241.9,27.4 196.8,32.4 "/>
<polygon fill-rule="evenodd" clip-rule="evenodd" points="256.9,22.4 304.4,21.2 304.4,18.7 256.9,20 "/>
<polygon fill-rule="evenodd" clip-rule="evenodd" points="256.9,26.2 304.4,24.9 304.4,22.4 256.9,23.7 "/>
<polygon fill-rule="evenodd" clip-rule="evenodd" points="319.4,21.2 364.4,26.2 364.4,23.7 319.4,18.7 "/>
<polygon fill-rule="evenodd" clip-rule="evenodd" points="319.4,24.9 364.4,29.9 364.4,27.4 319.4,22.4 "/>
<polygon fill-rule="evenodd" clip-rule="evenodd" points="379.4,31.1 424.4,36.1 424.4,33.6 379.4,28.6 "/>
<polygon fill-rule="evenodd" clip-rule="evenodd" points="379.4,34.8 424.4,39.8 424.4,37.3 379.4,32.4 "/>
<polygon fill-rule="evenodd" clip-rule="evenodd" points="445.9,16.2 491,21.2 491,18.7 445.9,13.8 "/>
<polygon fill-rule="evenodd" clip-rule="evenodd" points="445.9,12.5 491,17.5 491,15 445.9,10 "/>
<rect x="8.5" y="81.7" width="544.4" height="0.5"/>
<rect x="8.5" y="76.8" width="544.4" height="0.5"/>
<rect x="8.5" y="71.8" width="544.4" height="0.5"/>
<rect x="8.5" y="66.9" width="544.4" height="0.5"/>
<rect x="8.5" y="61.9" width="544.4" height="0.5"/>
<g>
	<path d="M15.7,76.3c2.9-2.6,4.7-6.1,4.7-9.2c0-2.5-1.4-4.4-3.7-4.4c-1.6,0-3.4,1.3-3.4,2.7c0,0.2,0,0.3,0.1,0.3
		c-0.1,0,0.6-0.6,1.4-0.6c0.9,0,1.5,0.8,1.5,1.7c0,1.2-0.9,2.2-2.1,2.2c-1.2,0-2.1-1.3-2.1-2.8c0-2.3,2.3-4.1,4.8-4.1
		c4.7,0,5.9,3.2,5.9,5.8c0,1.6-0.4,2.9-2,5.3c-1.9,3.1-6.4,5.3-8.1,5.3c-0.4,0-0.6-0.2-0.6-0.5C13.8,77.6,14.9,77,15.7,76.3z
		 M25.7,63.6c0.6,0,1,0.4,1,1s-0.4,1-1,1s-1-0.4-1-1S25.1,63.6,25.7,63.6z M25.7,68.6c0.6,0,1,0.4,1,1s-0.4,1-1,1s-1-0.4-1-1
		S25.1,68.6,25.7,68.6z"/>
</g>
<g>
	<path d="M33.5,60.3v2.8l1-0.3v1.8l-1,0.3v3.4l1-0.3v1.8l-1,0.3v3.1H33v-3l-1.9,0.6v3h-0.5V71l-1,0.3v-1.8l1-0.3v-3.4l-1,0.3v-1.8
		l1-0.3v-3.1h0.5v3l1.9-0.6v-3H33.5z M33,65l-1.9,0.6v3.4l1.9-0.6V65z"/>
</g>
<g>
	<path d="M39.7,67.7v2.8l1-0.3V72l-1,0.3v3.4l1-0.3v1.8l-1,0.3v3.1h-0.5v-3l-1.9,0.6v3h-0.5v-2.8l-1,0.3V77l1-0.3v-3.4l-1,0.3v-1.8
		l1-0.3v-3.1h0.5v3l1.9-0.6v-3H39.7z M39.2,72.5l-1.9,0.6v3.4l1.9-0.6V72.5z"/>
</g>
<g>
	<path d="M45.9,57.8v2.8l1-0.3v1.8l-1,0.3v3.4l1-0.3v1.8l-1,0.3v3.1h-0.5v-3l-1.9,0.6v3H43v-2.8l-1,0.3v-1.8l1-0.3v-3.4l-1,0.3v-1.8
		l1-0.3v-3.1h0.5v3l1.9-0.6v-3H45.9z M45.4,62.6l-1.9,0.6v3.4l1.9-0.6V62.6z"/>
</g>
<g>
	<path d="M52.1,65.2v2.8l1-0.3v1.8l-1,0.3v3.4l1-0.3v1.8l-1,0.3v3.1h-0.5v-3l-1.9,0.6v3h-0.5V76l-1,0.3v-1.8l1-0.3v-3.4l-1,0.3v-1.8
		l1-0.3v-3.1h0.5v3l1.9-0.6v-3H52.1z M51.6,70l-1.9,0.6v3.4l1.9-0.6V70z"/>
</g>
<g>
	<path d="M58.3,72.7v2.8l1-0.3V77l-1,0.3v3.4l1-0.3v1.8l-1,0.3v3.1h-0.5v-3l-1.9,0.6v3h-0.5v-2.8l-1,0.3V82l1-0.3v-3.4l-1,0.3v-1.8
		l1-0.3v-3.1h0.5v3l1.9-0.6v-3H58.3z M57.8,77.4l-1.9,0.6v3.4l1.9-0.6V77.4z"/>
</g>
<g>
	<path d="M64.5,62.7v2.8l1-0.3V67l-1,0.3v3.4l1-0.3v1.8l-1,0.3v3.1H64v-3l-1.9,0.6v3h-0.5v-2.8l-1,0.3v-1.8l1-0.3v-3.4l-1,0.3v-1.8
		l1-0.3v-3.1h0.5v3l1.9-0.6v-3H64.5z M64,67.5l-1.9,0.6v3.4L64,71V67.5z"/>
</g>
<polygon fill-rule="evenodd" clip-rule="evenodd" points="74.3,68.3 121.9,73.3 121.9,70.8 74.3,65.8 "/>
<polygon fill-rule="evenodd" clip-rule="evenodd" points="74.3,72 121.9,77 121.9,74.5 74.3,69.6 "/>
<polygon fill-rule="evenodd" clip-rule="evenodd" points="136.8,78.2 181.9,83.2 181.9,80.7 136.8,75.8 "/>
<polygon fill-rule="evenodd" clip-rule="evenodd" points="136.8,82 181.9,86.9 181.9,84.4 136.8,79.5 "/>
<polygon fill-rule="evenodd" clip-rule="evenodd" points="203.3,63.4 248.4,68.3 248.4,65.8 203.3,60.9 "/>
<polygon fill-rule="evenodd" clip-rule="evenodd" points="203.3,59.6 248.4,64.6 248.4,62.1 203.3,57.2 "/>
<polygon fill-rule="evenodd" clip-rule="evenodd" points="263.5,72 310.9,73.3 310.9,70.8 263.5,69.6 "/>
<polygon fill-rule="evenodd" clip-rule="evenodd" points="263.5,68.3 310.9,69.6 310.9,67.1 263.5,65.8 "/>
<polygon fill-rule="evenodd" clip-rule="evenodd" points="325.9,73.3 370.9,68.3 370.9,65.8 325.9,70.8 "/>
<polygon fill-rule="evenodd" clip-rule="evenodd" points="325.9,69.6 370.9,64.6 370.9,62.1 325.9,67.1 "/>
<polygon fill-rule="evenodd" clip-rule="evenodd" points="379.4,88.2 424.4,83.2 424.4,80.7 379.4,85.7 "/>
<polygon fill-rule="evenodd" clip-rule="evenodd" points="379.4,91.9 424.4,86.9 424.4,84.4 379.4,89.4 "/>
<polygon fill-rule="evenodd" clip-rule="evenodd" points="439.4,78.2 484.5,73.3 484.5,70.8 439.4,75.8 "/>
<polygon fill-rule="evenodd" clip-rule="evenodd" points="439.4,82 484.5,77 484.5,74.5 439.4,79.5 "/>
<rect x="80.6" y="20.1" width="0.5" height="16.4"/>
<g>
	<path d="M74.2,38.2c0-1.8,2.5-3.5,4.5-3.5c1.3,0,2.3,0.7,2.3,1.7c0,1.7-2.5,3.5-4.6,3.5C75.2,39.9,74.2,39.3,74.2,38.2z"/>
</g>
<rect x="98.1" y="18.4" width="0.5" height="15.7"/>
<g>
	<path d="M91.7,35.7c0-1.8,2.5-3.5,4.5-3.5c1.3,0,2.3,0.7,2.3,1.7c0,1.7-2.5,3.5-4.6,3.5C92.7,37.4,91.7,36.8,91.7,35.7z"/>
</g>
<rect x="113.2" y="16.9" width="0.5" height="14.7"/>
<g>
	<path d="M106.7,33.2c0-1.8,2.5-3.5,4.5-3.5c1.3,0,2.3,0.7,2.3,1.7c0,1.7-2.5,3.5-4.6,3.5C107.7,34.9,106.7,34.3,106.7,33.2z"/>
</g>
<rect x="128.2" y="15.2" width="0.5" height="14"/>
<g>
	<path d="M121.8,30.7c0-1.8,2.5-3.5,4.5-3.5c1.3,0,2.3,0.7,2.3,1.7c0,1.7-2.5,3.5-4.6,3.5C122.7,32.5,121.8,31.8,121.8,30.7z"/>
</g>
<rect x="136.6" y="28.2" width="0.5" height="16.4"/>
<g>
	<path d="M136.7,28.3c0-1.8,2.5-3.5,4.5-3.5c1.3,0,2.3,0.7,2.3,1.7c0,1.7-2.5,3.5-4.6,3.5C137.6,30,136.7,29.3,136.7,28.3z"/>
</g>
<rect x="151.6" y="25.7" width="0.5" height="17.4"/>
<g>
	<path d="M151.7,25.8c0-1.8,2.5-3.5,4.5-3.5c1.3,0,2.3,0.7,2.3,1.7c0,1.7-2.5,3.5-4.6,3.5C152.7,27.5,151.7,26.9,151.7,25.8z"/>
</g>
<rect x="166.7" y="23.2" width="0.5" height="18.1"/>
<g>
	<path d="M166.7,23.3c0-1.8,2.5-3.5,4.5-3.5c1.3,0,2.3,0.7,2.3,1.7c0,1.7-2.5,3.5-4.6,3.5C167.7,25,166.7,24.4,166.7,23.3z"/>
</g>
<g>
	<path d="M163.8,24.9c0-0.8-0.4-1.5-1.1-2.2c-0.7,0.7-1.1,1.4-1.1,2.2h-1.4v-1.4c0.8,0,1.5-0.3,2.2-1c-0.7-0.7-1.4-1.1-2.2-1.1v-1.4
		h1.4c0,0.8,0.4,1.5,1.1,2.2c0.7-0.7,1.1-1.4,1.1-2.2h1.4v1.4c-0.8,0-1.5,0.4-2.2,1.1c0.7,0.7,1.4,1,2,1h0.2v1.4H163.8z"/>
</g>
<rect x="181.7" y="20.7" width="0.5" height="18.9"/>
<g>
	<path d="M181.8,20.8c0-1.8,2.5-3.5,4.5-3.5c1.3,0,2.3,0.7,2.3,1.7c0,1.7-2.5,3.5-4.6,3.5C182.7,22.5,181.8,21.9,181.8,20.8z"/>
</g>
<rect x="196.6" y="18.3" width="0.5" height="16.4"/>
<g>
	<path d="M196.6,18.3c0-1.8,2.5-3.5,4.5-3.5c1.3,0,2.3,0.7,2.3,1.7c0,1.7-2.5,3.5-4.6,3.5C197.6,20.1,196.6,19.4,196.6,18.3z"/>
</g>
<rect x="211.6" y="15.8" width="0.5" height="17.4"/>
<g>
	<path d="M211.7,15.9c0-1.8,2.5-3.5,4.5-3.5c1.3,0,2.3,0.7,2.3,1.7c0,1.7-2.5,3.5-4.6,3.5C212.7,17.6,211.7,16.9,211.7,15.9z"/>
</g>
<rect x="226.6" y="13.3" width="0.5" height="18.1"/>
<g>
	<path d="M226.7,13.4c0-1.8,2.5-3.5,4.5-3.5c1.3,0,2.3,0.7,2.3,1.7c0,1.7-2.5,3.5-4.6,3.5C227.7,15.1,226.7,14.5,226.7,13.4z"/>
</g>
<rect x="239.9" y="9.7" width="10.5" height="0.8"/>
<rect x="241.7" y="10.8" width="0.5" height="18.9"/>
<g>
	<path d="M241.8,10.9c0-1.8,2.5-3.5,4.5-3.5c1.3,0,2.3,0.7,2.3,1.7c0,1.7-2.5,3.5-4.6,3.5C242.7,12.6,241.8,12,241.8,10.9z"/>
</g>
<rect x="254.9" y="9.7" width="10.5" height="0.8"/>
<rect x="256.7" y="8.3" width="0.5" height="17.7"/>
<g>
	<path d="M256.8,8.4c0-1.8,2.5-3.5,4.5-3.5c1.3,0,2.3,0.7,2.3,1.7c0,1.7-2.5,3.5-4.6,3.5C257.8,10.1,256.8,9.5,256.8,8.4z"/>
</g>
<rect x="272.5" y="9.7" width="10.5" height="0.8"/>
<rect x="272.5" y="4.7" width="10.5" height="0.8"/>
<rect x="274.2" y="5.9" width="0.5" height="19.8"/>
<g>
	<path d="M274.3,5.9c0-1.8,2.5-3.5,4.5-3.5c1.3,0,2.3,0.7,2.3,1.7c0,1.7-2.5,3.5-4.6,3.5C275.3,7.7,274.3,7,274.3,5.9z"/>
</g>
<g>
	<path d="M270.1,7.6c0-0.8-0.4-1.5-1.1-2.2c-0.7,0.7-1.1,1.4-1.1,2.2h-1.4V6.1c0.8,0,1.5-0.3,2.2-1c-0.7-0.7-1.4-1.1-2.2-1.1V2.6
		h1.4c0,0.8,0.4,1.5,1.1,2.2c0.7-0.7,1.1-1.4,1.1-2.2h1.4V4c-0.8,0-1.5,0.4-2.2,1.1c0.7,0.7,1.4,1,2,1h0.2v1.4H270.1z"/>
</g>
<rect x="287.3" y="9.7" width="10.5" height="0.8"/>
<rect x="287.3" y="4.7" width="10.5" height="0.8"/>
<rect x="289.1" y="3.4" width="0.5" height="21.9"/>
<g>
	<path d="M289.2,3.5c0-1.8,2.5-3.5,4.5-3.5c1.3,0,2.3,0.7,2.3,1.7c0,1.7-2.5,3.5-4.6,3.5C290.2,5.2,289.2,4.5,289.2,3.5z"/>
</g>
<rect x="302.4" y="9.7" width="10.5" height="0.8"/>
<rect x="302.4" y="4.7" width="10.5" height="0.8"/>
<rect x="304.2" y="5.9" width="0.5" height="18.9"/>
<g>
	<path d="M304.2,5.9c0-1.8,2.5-3.5,4.5-3.5c1.3,0,2.3,0.7,2.3,1.7c0,1.7-2.5,3.5-4.6,3.5C305.2,7.7,304.2,7,304.2,5.9z"/>
</g>
<rect x="317.4" y="9.7" width="10.5" height="0.8"/>
<rect x="319.2" y="8.3" width="0.5" height="16.4"/>
<g>
	<path d="M319.3,8.4c0-1.8,2.5-3.5,4.5-3.5c1.3,0,2.3,0.7,2.3,1.7c0,1.7-2.5,3.5-4.6,3.5C320.2,10.1,319.3,9.5,319.3,8.4z"/>
</g>
<rect x="332.4" y="9.7" width="10.5" height="0.8"/>
<rect x="334.2" y="10.8" width="0.5" height="15.5"/>
<g>
	<path d="M334.3,10.9c0-1.8,2.5-3.5,4.5-3.5c1.3,0,2.3,0.7,2.3,1.7c0,1.7-2.5,3.5-4.6,3.5C335.3,12.6,334.3,12,334.3,10.9z"/>
</g>
<rect x="349.3" y="13.3" width="0.5" height="14.7"/>
<g>
	<path d="M349.3,13.4c0-1.8,2.5-3.5,4.5-3.5c1.3,0,2.3,0.7,2.3,1.7c0,1.7-2.5,3.5-4.6,3.5C350.3,15.1,349.3,14.5,349.3,13.4z"/>
</g>
<rect x="364.1" y="15.8" width="0.5" height="14"/>
<g>
	<path d="M364.2,15.9c0-1.8,2.5-3.5,4.5-3.5c1.3,0,2.3,0.7,2.3,1.7c0,1.7-2.5,3.5-4.6,3.5C365.2,17.6,364.2,16.9,364.2,15.9z"/>
</g>
<rect x="379.2" y="18.3" width="0.5" height="16.4"/>
<g>
	<path d="M379.3,18.3c0-1.8,2.5-3.5,4.5-3.5c1.3,0,2.3,0.7,2.3,1.7c0,1.7-2.5,3.5-4.6,3.5C380.2,20.1,379.3,19.4,379.3,18.3z"/>
</g>
<rect x="394.2" y="20.7" width="0.5" height="15.5"/>
<g>
	<path d="M394.3,20.8c0-1.8,2.5-3.5,4.5-3.5c1.3,0,2.3,0.7,2.3,1.7c0,1.7-2.5,3.5-4.6,3.5C395.3,22.5,394.3,21.9,394.3,20.8z"/>
</g>
<rect x="409.3" y="23.2" width="0.5" height="14.7"/>
<g>
	<path d="M409.3,23.3c0-1.8,2.5-3.5,4.5-3.5c1.3,0,2.3,0.7,2.3,1.7c0,1.7-2.5,3.5-4.6,3.5C410.3,25,409.3,24.4,409.3,23.3z"/>
</g>
<rect x="424.1" y="25.7" width="0.5" height="14"/>
<g>
	<path d="M424.2,25.8c0-1.8,2.5-3.5,4.5-3.5c1.3,0,2.3,0.7,2.3,1.7c0,1.7-2.5,3.5-4.6,3.5C425.2,27.5,424.2,26.9,424.2,25.8z"/>
</g>
<rect x="445.7" y="10.2" width="0.5" height="16.4"/>
<g>
	<path d="M439.2,28.3c0-1.8,2.5-3.5,4.5-3.5c1.3,0,2.3,0.7,2.3,1.7c0,1.7-2.5,3.5-4.6,3.5C440.2,30,439.2,29.3,439.2,28.3z"/>
</g>
<rect x="460.7" y="11.7" width="0.5" height="17.4"/>
<g>
	<path d="M454.3,30.7c0-1.8,2.5-3.5,4.5-3.5c1.3,0,2.3,0.7,2.3,1.7c0,1.7-2.5,3.5-4.6,3.5C455.3,32.5,454.3,31.8,454.3,30.7z"/>
</g>
<rect x="475.8" y="13.5" width="0.5" height="18.1"/>
<g>
	<path d="M469.3,33.2c0-1.8,2.5-3.5,4.5-3.5c1.3,0,2.3,0.7,2.3,1.7c0,1.7-2.5,3.5-4.6,3.5C470.3,34.9,469.3,34.3,469.3,33.2z"/>
</g>
<rect x="490.8" y="15.2" width="0.5" height="18.9"/>
<g>
	<path d="M484.4,35.7c0-1.8,2.5-3.5,4.5-3.5c1.3,0,2.3,0.7,2.3,1.7c0,1.7-2.5,3.5-4.6,3.5C485.3,37.4,484.4,36.8,484.4,35.7z"/>
</g>
<rect x="505.8" y="20" width="0.5" height="16.6"/>
<g>
	<path d="M503.5,34.6c1.6,0,2.7,0.7,2.7,2c0,1.9-2.3,3.4-4.5,3.4c-1.3,0-2.4-0.7-2.4-1.8C499.2,36.4,501.5,34.6,503.5,34.6z
		 M499.7,38.5c0,0.6,0.4,0.9,1.1,0.9c1.4,0,4.9-2.1,4.9-3.3c0-0.6-0.4-0.9-1.1-0.9C503.4,35.2,499.7,37.2,499.7,38.5z"/>
</g>
<rect x="72.3" y="56.8" width="10.5" height="0.8"/>
<rect x="74.1" y="55.5" width="0.5" height="16.4"/>
<g>
	<path d="M74.2,55.5c0-1.8,2.5-3.5,4.5-3.5c1.3,0,2.3,0.7,2.3,1.7c0,1.7-2.5,3.5-4.6,3.5C75.2,57.3,74.2,56.6,74.2,55.5z"/>
</g>
<rect x="89.8" y="56.8" width="10.5" height="0.8"/>
<rect x="91.6" y="57.9" width="0.5" height="15.7"/>
<g>
	<path d="M91.7,58c0-1.8,2.5-3.5,4.5-3.5c1.3,0,2.3,0.7,2.3,1.7c0,1.7-2.5,3.5-4.6,3.5C92.7,59.7,91.7,59.1,91.7,58z"/>
</g>
<g>
	<path d="M87.5,59.6c0-0.8-0.4-1.5-1.1-2.2c-0.7,0.7-1.1,1.4-1.1,2.2H84v-1.4c0.8,0,1.5-0.3,2.2-1c-0.7-0.7-1.4-1.1-2.2-1.1v-1.4
		h1.4c0,0.8,0.4,1.5,1.1,2.2c0.7-0.7,1.1-1.4,1.1-2.2H89v1.4c-0.8,0-1.5,0.4-2.2,1.1c0.7,0.7,1.4,1,2,1H89v1.4H87.5z"/>
</g>
<rect x="106.7" y="60.4" width="0.5" height="14.7"/>
<g>
	<path d="M106.7,60.5c0-1.8,2.5-3.5,4.5-3.5c1.3,0,2.3,0.7,2.3,1.7c0,1.7-2.5,3.5-4.6,3.5C107.7,62.2,106.7,61.6,106.7,60.5z"/>
</g>
<rect x="121.7" y="62.9" width="0.5" height="14"/>
<g>
	<path d="M121.8,63c0-1.8,2.5-3.5,4.5-3.5c1.3,0,2.3,0.7,2.3,1.7c0,1.7-2.5,3.5-4.6,3.5C122.7,64.7,121.8,64.1,121.8,63z"/>
</g>
<rect x="136.6" y="65.4" width="0.5" height="16.4"/>
<g>
	<path d="M136.7,65.5c0-1.8,2.5-3.5,4.5-3.5c1.3,0,2.3,0.7,2.3,1.7c0,1.7-2.5,3.5-4.6,3.5C137.6,67.2,136.7,66.5,136.7,65.5z"/>
</g>
<rect x="151.6" y="67.9" width="0.5" height="15.5"/>
<g>
	<path d="M151.7,67.9c0-1.8,2.5-3.5,4.5-3.5c1.3,0,2.3,0.7,2.3,1.7c0,1.7-2.5,3.5-4.6,3.5C152.7,69.7,151.7,69,151.7,67.9z"/>
</g>
<rect x="166.7" y="70.3" width="0.5" height="14.7"/>
<g>
	<path d="M166.7,70.4c0-1.8,2.5-3.5,4.5-3.5c1.3,0,2.3,0.7,2.3,1.7c0,1.7-2.5,3.5-4.6,3.5C167.7,72.1,166.7,71.5,166.7,70.4z"/>
</g>
<rect x="181.7" y="72.8" width="0.5" height="14"/>
<g>
	<path d="M181.8,72.9c0-1.8,2.5-3.5,4.5-3.5c1.3,0,2.3,0.7,2.3,1.7c0,1.7-2.5,3.5-4.6,3.5C182.7,74.6,181.8,74,181.8,72.9z"/>
</g>
<rect x="203.1" y="57.3" width="0.5" height="16.4"/>
<g>
	<path d="M196.6,75.4c0-1.8,2.5-3.5,4.5-3.5c1.3,0,2.3,0.7,2.3,1.7c0,1.7-2.5,3.5-4.6,3.5C197.6,77.1,196.6,76.5,196.6,75.4z"/>
</g>
<g>
	<path d="M193.7,77c0-0.8-0.4-1.5-1.1-2.2c-0.7,0.7-1.1,1.4-1.1,2.2h-1.4v-1.4c0.8,0,1.5-0.3,2.2-1c-0.7-0.7-1.4-1.1-2.2-1.1V72h1.4
		c0,0.8,0.4,1.5,1.1,2.2c0.7-0.7,1.1-1.4,1.1-2.2h1.4v1.4c-0.8,0-1.5,0.4-2.2,1.1c0.7,0.7,1.4,1,2,1h0.2V77H193.7z"/>
</g>
<rect x="218.1" y="58.9" width="0.5" height="17.4"/>
<g>
	<path d="M211.7,77.9c0-1.8,2.5-3.5,4.5-3.5c1.3,0,2.3,0.7,2.3,1.7c0,1.7-2.5,3.5-4.6,3.5C212.7,79.6,211.7,78.9,211.7,77.9z"/>
</g>
<g>
	<path d="M209.8,83.8v-4l-3,1.1V70.2h0.5v4l3-1.1v10.7H209.8z M207.2,79.1l2.5-0.9v-3.3l-2.5,0.9V79.1z"/>
</g>
<rect x="233.2" y="60.6" width="0.5" height="18.1"/>
<g>
	<path d="M226.7,80.3c0-1.8,2.5-3.5,4.5-3.5c1.3,0,2.3,0.7,2.3,1.7c0,1.7-2.5,3.5-4.6,3.5C227.7,82.1,226.7,81.4,226.7,80.3z"/>
</g>
<rect x="248.2" y="62.3" width="0.5" height="18.9"/>
<g>
	<path d="M241.8,82.8c0-1.8,2.5-3.5,4.5-3.5c1.3,0,2.3,0.7,2.3,1.7c0,1.7-2.5,3.5-4.6,3.5C242.7,84.5,241.8,83.9,241.8,82.8z"/>
</g>
<rect x="263.2" y="66" width="0.5" height="17.7"/>
<g>
	<path d="M256.8,85.3c0-1.8,2.5-3.5,4.5-3.5c1.3,0,2.3,0.7,2.3,1.7c0,1.7-2.5,3.5-4.6,3.5C257.8,87,256.8,86.4,256.8,85.3z"/>
</g>
<rect x="272.5" y="86.5" width="10.5" height="0.8"/>
<rect x="280.7" y="66.3" width="0.5" height="19.8"/>
<g>
	<path d="M274.3,87.8c0-1.8,2.5-3.5,4.5-3.5c1.3,0,2.3,0.7,2.3,1.7c0,1.7-2.5,3.5-4.6,3.5C275.3,89.5,274.3,88.9,274.3,87.8z"/>
</g>
<rect x="287.3" y="86.5" width="10.5" height="0.8"/>
<rect x="295.6" y="66.8" width="0.5" height="21.9"/>
<g>
	<path d="M289.2,90.3c0-1.8,2.5-3.5,4.5-3.5c1.3,0,2.3,0.7,2.3,1.7c0,1.7-2.5,3.5-4.6,3.5C290.2,92,289.2,91.3,289.2,90.3z"/>
</g>
<rect x="302.4" y="86.5" width="10.5" height="0.8"/>
<rect x="310.7" y="67.2" width="0.5" height="18.9"/>
<g>
	<path d="M304.2,87.8c0-1.8,2.5-3.5,4.5-3.5c1.3,0,2.3,0.7,2.3,1.7c0,1.7-2.5,3.5-4.6,3.5C305.2,89.5,304.2,88.9,304.2,87.8z"/>
</g>
<rect x="325.7" y="67.2" width="0.5" height="16.4"/>
<g>
	<path d="M319.3,85.3c0-1.8,2.5-3.5,4.5-3.5c1.3,0,2.3,0.7,2.3,1.7c0,1.7-2.5,3.5-4.6,3.5C320.2,87,319.3,86.4,319.3,85.3z"/>
</g>
<rect x="340.7" y="65.7" width="0.5" height="15.5"/>
<g>
	<path d="M334.3,82.8c0-1.8,2.5-3.5,4.5-3.5c1.3,0,2.3,0.7,2.3,1.7c0,1.7-2.5,3.5-4.6,3.5C335.3,84.5,334.3,83.9,334.3,82.8z"/>
</g>
<rect x="355.8" y="64" width="0.5" height="14.7"/>
<g>
	<path d="M349.3,80.3c0-1.8,2.5-3.5,4.5-3.5c1.3,0,2.3,0.7,2.3,1.7c0,1.7-2.5,3.5-4.6,3.5C350.3,82.1,349.3,81.4,349.3,80.3z"/>
</g>
<rect x="370.7" y="62.3" width="0.5" height="14"/>
<g>
	<path d="M364.2,77.9c0-1.8,2.5-3.5,4.5-3.5c1.3,0,2.3,0.7,2.3,1.7c0,1.7-2.5,3.5-4.6,3.5C365.2,79.6,364.2,78.9,364.2,77.9z"/>
</g>
<rect x="379.2" y="75.3" width="0.5" height="16.4"/>
<g>
	<path d="M379.3,75.4c0-1.8,2.5-3.5,4.5-3.5c1.3,0,2.3,0.7,2.3,1.7c0,1.7-2.5,3.5-4.6,3.5C380.2,77.1,379.3,76.5,379.3,75.4z"/>
</g>
<rect x="394.2" y="72.8" width="0.5" height="17.4"/>
<g>
	<path d="M394.3,72.9c0-1.8,2.5-3.5,4.5-3.5c1.3,0,2.3,0.7,2.3,1.7c0,1.7-2.5,3.5-4.6,3.5C395.3,74.6,394.3,74,394.3,72.9z"/>
</g>
<rect x="409.3" y="70.3" width="0.5" height="18.1"/>
<g>
	<path d="M409.3,70.4c0-1.8,2.5-3.5,4.5-3.5c1.3,0,2.3,0.7,2.3,1.7c0,1.7-2.5,3.5-4.6,3.5C410.3,72.1,409.3,71.5,409.3,70.4z"/>
</g>
<rect x="424.1" y="67.9" width="0.5" height="18.9"/>
<g>
	<path d="M424.2,67.9c0-1.8,2.5-3.5,4.5-3.5c1.3,0,2.3,0.7,2.3,1.7c0,1.7-2.5,3.5-4.6,3.5C425.2,69.7,424.2,69,424.2,67.9z"/>
</g>
<rect x="439.2" y="65.4" width="0.5" height="16.4"/>
<g>
	<path d="M439.2,65.5c0-1.8,2.5-3.5,4.5-3.5c1.3,0,2.3,0.7,2.3,1.7c0,1.7-2.5,3.5-4.6,3.5C440.2,67.2,439.2,66.5,439.2,65.5z"/>
</g>
<rect x="454.2" y="62.9" width="0.5" height="17.4"/>
<g>
	<path d="M454.3,63c0-1.8,2.5-3.5,4.5-3.5c1.3,0,2.3,0.7,2.3,1.7c0,1.7-2.5,3.5-4.6,3.5C455.3,64.7,454.3,64.1,454.3,63z"/>
</g>
<rect x="469.2" y="60.4" width="0.5" height="18.1"/>
<g>
	<path d="M469.3,60.5c0-1.8,2.5-3.5,4.5-3.5c1.3,0,2.3,0.7,2.3,1.7c0,1.7-2.5,3.5-4.6,3.5C470.3,62.2,469.3,61.6,469.3,60.5z"/>
</g>
<rect x="482.5" y="56.8" width="10.5" height="0.8"/>
<rect x="484.3" y="57.9" width="0.5" height="18.9"/>
<g>
	<path d="M484.4,58c0-1.8,2.5-3.5,4.5-3.5c1.3,0,2.3,0.7,2.3,1.7c0,1.7-2.5,3.5-4.6,3.5C485.3,59.7,484.4,59.1,484.4,58z"/>
</g>
<rect x="497.4" y="56.8" width="10.7" height="0.8"/>
<rect x="499.2" y="55.5" width="0.5" height="16.6"/>
<g>
	<path d="M503.5,52c1.6,0,2.7,0.7,2.7,2c0,1.9-2.3,3.4-4.5,3.4c-1.3,0-2.4-0.7-2.4-1.8C499.2,53.8,501.5,52,503.5,52z M499.7,55.8
		c0,0.6,0.4,0.9,1.1,0.9c1.4,0,4.9-2.1,4.9-3.3c0-0.6-0.4-0.9-1.1-0.9C503.4,52.6,499.7,54.6,499.7,55.8z"/>
</g>
</svg>
