<?xml version="1.0" encoding="utf-8"?>

<!--
	ScaleBook
	Copyright (c) Leland Jansen 2015. All rights reserved.
-->

<!DOCTYPE svg PUBLIC "-//W3C//DTD SVG 1.1//EN" "http://www.w3.org/Graphics/SVG/1.1/DTD/svg11.dtd">
<svg version="1.1" id="Layer_1" xmlns="http://www.w3.org/2000/svg" xmlns:xlink="http://www.w3.org/1999/xlink" x="0px" y="0px"
	 viewBox="0 0 552.9 93.7" enable-background="new 0 0 552.9 93.7" xml:space="preserve">
<rect x="8.4" y="19.2" width="0.8" height="67"/>
<g>
	<path d="M7.4,19.9c-1.9,1.1-3.6,5.8-3.6,9.4c0,2.3,1.4,9.9,1.4,12.3c0,5-1.5,8.6-4.6,11.1c3,2.4,4.6,6.1,4.6,11
		c0,2.3-1.4,9.9-1.4,12.3c0,3.8,1.7,8.4,3.6,9.5v0.7C3.9,83.9,1.7,78,1.7,73.1c0-2.1,1.7-9.4,1.7-11.5c0-3.8-1-6.6-2.9-8.2
		C0.1,53.1,0,52.9,0,52.7s0.1-0.4,0.5-0.7c1.9-1.7,2.9-4.2,2.9-7.6c0-2.1-1.7-10-1.7-12.2c0-5.2,2.1-10.4,5.8-13.1V19.9z"/>
</g>
<rect x="547.8" y="19.2" width="0.8" height="67"/>
<rect x="550.4" y="19.2" width="2.5" height="67"/>
<rect x="8.5" y="38.8" width="544.4" height="0.5"/>
<rect x="8.5" y="33.9" width="544.4" height="0.5"/>
<rect x="8.5" y="28.9" width="544.4" height="0.5"/>
<rect x="8.5" y="24" width="544.4" height="0.5"/>
<rect x="8.5" y="19" width="544.4" height="0.5"/>
<g>
	<path d="M20.3,38.9c-4.2,0-8.1-3.1-8.1-6.9c0-3.2,2.3-6.7,6.8-10.5c-0.3-1.2-0.4-2.4-0.4-3.6c0-3.5,1.2-6.8,3.2-8.5
		c1.8,2.5,2.7,4.9,2.7,7.1c0,2.9-1.3,5.6-4.3,8.1l0.9,4.2c0.5,0,0.8-0.1,0.8-0.1c2.6,0,4.8,2,4.8,4.7c0,1.9-1.4,3.7-3.6,4.8
		c0-0.1,0.9,3.8,0.9,4.3c0,2.5-2.3,4.2-4.9,4.2c-2,0-3.6-1.3-3.6-3.4c0-1.4,1-2.6,2.4-2.6c1.3,0,2.3,1.3,2.3,2.5
		c0,1.4-1.2,2.3-2.7,2.5c0.6,0.3,1.2,0.5,1.9,0.5c2.1,0,4.1-1.6,4.1-3.6c0-0.2,0-0.4-0.1-0.6l-0.8-3.7
		C21.9,38.8,21.2,38.9,20.3,38.9z M18.1,33.7c0,1,0.5,1.9,1.6,2.5c-1.8-0.3-3-1.4-3-3.1c0-2,1.7-3.7,3.8-4.1l-0.8-4
		C16,27.8,14,30.5,14,33.1c0,2.9,2.8,5.3,6,5.3c0.9,0,1.7-0.2,2.4-0.5L21,31.1C19.4,31.3,18.1,32.3,18.1,33.7z M22.1,12.3
		c-1.6,0-2.9,3.7-2.9,7c0,0.7,0,1.3,0.2,1.9c2.7-2.4,4-4.5,4-6.5c0-0.9-0.3-1.7-1-2.4C22.4,12.4,22.3,12.3,22.1,12.3z M24.9,34.2
		c0-1.6-1.2-3.3-2.9-3.3c-0.1,0-0.2,0-0.5,0l1.4,6.6C24.2,36.7,24.9,35.5,24.9,34.2z"/>
</g>
<g>
	<path d="M33.5,12.4v2.8l1-0.3v1.8l-1,0.3v3.4l1-0.3v1.8l-1,0.3v3.1H33v-3l-1.9,0.6v3h-0.5v-2.8l-1,0.3v-1.8l1-0.3V18l-1,0.3v-1.8
		l1-0.3V13h0.5v3l1.9-0.6v-3H33.5z M33,17.2l-1.9,0.6v3.4l1.9-0.6V17.2z"/>
</g>
<polygon fill-rule="evenodd" clip-rule="evenodd" points="49.8,25.4 99.3,20.5 99.3,18 49.8,22.9 "/>
<polygon fill-rule="evenodd" clip-rule="evenodd" points="49.8,21.7 99.3,16.7 99.3,14.3 49.8,19.2 "/>
<polygon fill-rule="evenodd" clip-rule="evenodd" points="108.9,40.3 157.1,35.3 157.1,32.9 108.9,37.8 "/>
<polygon fill-rule="evenodd" clip-rule="evenodd" points="108.9,44 157.1,39.1 157.1,36.6 108.9,41.5 "/>
<polygon fill-rule="evenodd" clip-rule="evenodd" points="173.2,30.4 221.5,25.4 221.5,22.9 173.2,27.9 "/>
<polygon fill-rule="evenodd" clip-rule="evenodd" points="173.2,34.1 221.5,29.1 221.5,26.7 173.2,31.6 "/>
<polygon fill-rule="evenodd" clip-rule="evenodd" points="237.6,26.7 287.2,25.4 287.2,22.9 237.6,24.2 "/>
<polygon fill-rule="evenodd" clip-rule="evenodd" points="237.6,30.4 287.2,29.1 287.2,26.7 237.6,27.9 "/>
<polygon fill-rule="evenodd" clip-rule="evenodd" points="303.1,25.4 351.4,30.4 351.4,27.9 303.1,22.9 "/>
<polygon fill-rule="evenodd" clip-rule="evenodd" points="303.1,29.1 351.4,34.1 351.4,31.6 303.1,26.7 "/>
<polygon fill-rule="evenodd" clip-rule="evenodd" points="367.5,35.3 415.7,40.3 415.7,37.8 367.5,32.9 "/>
<polygon fill-rule="evenodd" clip-rule="evenodd" points="367.5,39.1 415.7,44 415.7,41.5 367.5,36.6 "/>
<polygon fill-rule="evenodd" clip-rule="evenodd" points="438.3,20.5 486.5,25.4 486.5,22.9 438.3,18 "/>
<polygon fill-rule="evenodd" clip-rule="evenodd" points="438.3,16.7 486.5,21.7 486.5,19.2 438.3,14.3 "/>
<rect x="8.5" y="86" width="544.4" height="0.5"/>
<rect x="8.5" y="81" width="544.4" height="0.5"/>
<rect x="8.5" y="76" width="544.4" height="0.5"/>
<rect x="8.5" y="71.1" width="544.4" height="0.5"/>
<rect x="8.5" y="66.1" width="544.4" height="0.5"/>
<g>
	<path d="M15.7,80.5c2.9-2.6,4.7-6.1,4.7-9.2c0-2.5-1.4-4.4-3.7-4.4c-1.6,0-3.4,1.3-3.4,2.7c0,0.2,0,0.3,0.1,0.3
		c-0.1,0,0.6-0.6,1.4-0.6c0.9,0,1.5,0.8,1.5,1.7c0,1.2-0.9,2.2-2.1,2.2c-1.2,0-2.1-1.3-2.1-2.8c0-2.3,2.3-4.1,4.8-4.1
		c4.7,0,5.9,3.2,5.9,5.8c0,1.6-0.4,2.9-2,5.3c-1.9,3.1-6.4,5.3-8.1,5.3c-0.4,0-0.6-0.2-0.6-0.5C13.8,81.8,14.9,81.2,15.7,80.5z
		 M25.7,67.8c0.6,0,1,0.4,1,1s-0.4,1-1,1s-1-0.4-1-1S25.1,67.8,25.7,67.8z M25.7,72.8c0.6,0,1,0.4,1,1s-0.4,1-1,1s-1-0.4-1-1
		S25.1,72.8,25.7,72.8z"/>
</g>
<g>
	<path d="M33.5,64.5v2.8l1-0.3v1.8l-1,0.3v3.4l1-0.3V74l-1,0.3v3.1H33v-3l-1.9,0.6v3h-0.5v-2.8l-1,0.3v-1.8l1-0.3V70l-1,0.3v-1.8
		l1-0.3v-3.1h0.5v3l1.9-0.6v-3H33.5z M33,69.3l-1.9,0.6v3.4l1.9-0.6V69.3z"/>
</g>
<polygon fill-rule="evenodd" clip-rule="evenodd" points="43.3,72.5 92.8,77.5 92.8,75 43.3,70.1 "/>
<polygon fill-rule="evenodd" clip-rule="evenodd" points="43.3,76.3 92.8,81.2 92.8,78.7 43.3,73.8 "/>
<polygon fill-rule="evenodd" clip-rule="evenodd" points="108.9,82.5 157.1,87.4 157.1,84.9 108.9,80 "/>
<polygon fill-rule="evenodd" clip-rule="evenodd" points="108.9,86.2 157.1,91.2 157.1,88.7 108.9,83.7 "/>
<polygon fill-rule="evenodd" clip-rule="evenodd" points="179.8,67.6 228,72.5 228,70.1 179.8,65.1 "/>
<polygon fill-rule="evenodd" clip-rule="evenodd" points="179.8,63.9 228,68.8 228,66.3 179.8,61.4 "/>
<polygon fill-rule="evenodd" clip-rule="evenodd" points="244.1,76.3 293.7,77.5 293.7,75 244.1,73.8 "/>
<polygon fill-rule="evenodd" clip-rule="evenodd" points="244.1,72.5 293.7,73.8 293.7,71.3 244.1,70.1 "/>
<polygon fill-rule="evenodd" clip-rule="evenodd" points="309.7,72.5 357.9,67.6 357.9,65.1 309.7,70.1 "/>
<polygon fill-rule="evenodd" clip-rule="evenodd" points="309.7,68.8 357.9,63.9 357.9,61.4 309.7,66.3 "/>
<polygon fill-rule="evenodd" clip-rule="evenodd" points="367.5,87.4 415.7,82.5 415.7,80 367.5,84.9 "/>
<polygon fill-rule="evenodd" clip-rule="evenodd" points="367.5,91.2 415.7,86.2 415.7,83.7 367.5,88.7 "/>
<polygon fill-rule="evenodd" clip-rule="evenodd" points="431.8,77.5 480,72.5 480,70.1 431.8,75 "/>
<polygon fill-rule="evenodd" clip-rule="evenodd" points="431.8,81.2 480,76.3 480,73.8 431.8,78.7 "/>
<rect x="49.6" y="19.4" width="0.5" height="18.9"/>
<g>
	<path d="M43.2,39.9c0-1.8,2.5-3.5,4.5-3.5c1.3,0,2.3,0.7,2.3,1.7c0,1.7-2.5,3.5-4.6,3.5C44.2,41.6,43.2,41,43.2,39.9z"/>
</g>
<rect x="67" y="17.7" width="0.5" height="18.1"/>
<g>
	<path d="M60.5,37.4c0-1.8,2.5-3.5,4.5-3.5c1.3,0,2.3,0.7,2.3,1.7c0,1.7-2.5,3.5-4.6,3.5C61.5,39.2,60.5,38.5,60.5,37.4z"/>
</g>
<rect x="83.1" y="16.1" width="0.5" height="17.2"/>
<g>
	<path d="M76.7,35c0-1.8,2.5-3.5,4.5-3.5c1.3,0,2.3,0.7,2.3,1.7c0,1.7-2.5,3.5-4.6,3.5C77.6,36.7,76.7,36.1,76.7,35z"/>
</g>
<rect x="99.1" y="14.4" width="0.5" height="16.4"/>
<g>
	<path d="M92.6,32.5c0-1.8,2.5-3.5,4.5-3.5c1.3,0,2.3,0.7,2.3,1.7c0,1.7-2.5,3.5-4.6,3.5C93.6,34.2,92.6,33.6,92.6,32.5z"/>
</g>
<rect x="108.7" y="29.9" width="0.5" height="14"/>
<g>
	<path d="M108.8,30c0-1.8,2.5-3.5,4.5-3.5c1.3,0,2.3,0.7,2.3,1.7c0,1.7-2.5,3.5-4.6,3.5C109.7,31.7,108.8,31.1,108.8,30z"/>
</g>
<rect x="124.8" y="27.4" width="0.5" height="14.9"/>
<g>
	<path d="M124.9,27.5c0-1.8,2.5-3.5,4.5-3.5c1.3,0,2.3,0.7,2.3,1.7c0,1.7-2.5,3.5-4.6,3.5C125.8,29.2,124.9,28.6,124.9,27.5z"/>
</g>
<rect x="140.9" y="25" width="0.5" height="15.7"/>
<g>
	<path d="M141,25c0-1.8,2.5-3.5,4.5-3.5c1.3,0,2.3,0.7,2.3,1.7c0,1.7-2.5,3.5-4.6,3.5C142,26.8,141,26.1,141,25z"/>
</g>
<g>
	<path d="M138.6,17.4v2.8l1-0.3v1.8l-1,0.3v3.4l1-0.3v1.8l-1,0.3v3.1h-0.5v-3l-1.9,0.6v3h-0.5v-2.8l-1,0.3v-1.8l1-0.3v-3.4l-1,0.3
		v-1.8l1-0.3V18h0.5v3l1.9-0.6v-3H138.6z M138.1,22.1l-1.9,0.6v3.4l1.9-0.6V22.1z"/>
</g>
<rect x="156.9" y="22.5" width="0.5" height="16.4"/>
<g>
	<path d="M157,22.6c0-1.8,2.5-3.5,4.5-3.5c1.3,0,2.3,0.7,2.3,1.7c0,1.7-2.5,3.5-4.6,3.5C157.9,24.3,157,23.7,157,22.6z"/>
</g>
<rect x="173" y="20" width="0.5" height="14"/>
<g>
	<path d="M173.1,20.1c0-1.8,2.5-3.5,4.5-3.5c1.3,0,2.3,0.7,2.3,1.7c0,1.7-2.5,3.5-4.6,3.5C174.1,21.8,173.1,21.2,173.1,20.1z"/>
</g>
<rect x="189.1" y="17.5" width="0.5" height="14.9"/>
<g>
	<path d="M189.2,17.6c0-1.8,2.5-3.5,4.5-3.5c1.3,0,2.3,0.7,2.3,1.7c0,1.7-2.5,3.5-4.6,3.5C190.2,19.3,189.2,18.7,189.2,17.6z"/>
</g>
<rect x="203.5" y="13.9" width="10.5" height="0.8"/>
<rect x="205.3" y="15" width="0.5" height="15.7"/>
<g>
	<path d="M205.3,15.1c0-1.8,2.5-3.5,4.5-3.5c1.3,0,2.3,0.7,2.3,1.7c0,1.7-2.5,3.5-4.6,3.5C206.3,16.8,205.3,16.2,205.3,15.1z"/>
</g>
<rect x="219.4" y="13.9" width="10.5" height="0.8"/>
<rect x="221.2" y="12.6" width="0.5" height="16.4"/>
<g>
	<path d="M221.3,12.6c0-1.8,2.5-3.5,4.5-3.5c1.3,0,2.3,0.7,2.3,1.7c0,1.7-2.5,3.5-4.6,3.5C222.3,14.4,221.3,13.7,221.3,12.6z"/>
</g>
<rect x="235.6" y="13.9" width="10.5" height="0.8"/>
<rect x="235.6" y="8.9" width="10.5" height="0.8"/>
<rect x="237.3" y="10.1" width="0.5" height="20.2"/>
<g>
	<path d="M237.4,10.2c0-1.8,2.5-3.5,4.5-3.5c1.3,0,2.3,0.7,2.3,1.7c0,1.7-2.5,3.5-4.6,3.5C238.4,11.9,237.4,11.2,237.4,10.2z"/>
</g>
<rect x="252.9" y="13.9" width="10.5" height="0.8"/>
<rect x="252.9" y="8.9" width="10.5" height="0.8"/>
<rect x="254.7" y="7.6" width="0.5" height="22.3"/>
<g>
	<path d="M254.8,7.7c0-1.8,2.5-3.5,4.5-3.5c1.3,0,2.3,0.7,2.3,1.7c0,1.7-2.5,3.5-4.6,3.5C255.8,9.4,254.8,8.8,254.8,7.7z"/>
</g>
<g>
	<path d="M251.1,0v2.8l1-0.3v1.8l-1,0.3v3.4l1-0.3v1.8l-1,0.3V13h-0.5v-3l-1.9,0.6v3h-0.5v-2.8l-1,0.3V9.3l1-0.3V5.6l-1,0.3V4.1
		l1-0.3V0.6h0.5v3l1.9-0.6V0H251.1z M250.6,4.8l-1.9,0.6v3.4l1.9-0.6V4.8z"/>
</g>
<rect x="269" y="13.9" width="10.5" height="0.8"/>
<rect x="269" y="8.9" width="10.5" height="0.8"/>
<rect x="269" y="4" width="10.5" height="0.8"/>
<rect x="270.8" y="5.1" width="0.5" height="24.3"/>
<g>
	<path d="M270.9,5.2c0-1.8,2.5-3.5,4.5-3.5c1.3,0,2.3,0.7,2.3,1.7c0,1.7-2.5,3.5-4.6,3.5C271.9,6.9,270.9,6.3,270.9,5.2z"/>
</g>
<rect x="285.2" y="13.9" width="10.5" height="0.8"/>
<rect x="285.2" y="8.9" width="10.5" height="0.8"/>
<rect x="286.9" y="7.6" width="0.5" height="21.4"/>
<g>
	<path d="M287,7.7c0-1.8,2.5-3.5,4.5-3.5c1.3,0,2.3,0.7,2.3,1.7c0,1.7-2.5,3.5-4.6,3.5C288,9.4,287,8.8,287,7.7z"/>
</g>
<rect x="301.1" y="13.9" width="10.5" height="0.8"/>
<rect x="301.1" y="8.9" width="10.5" height="0.8"/>
<rect x="302.9" y="10.1" width="0.5" height="18.9"/>
<g>
	<path d="M303,10.2c0-1.8,2.5-3.5,4.5-3.5c1.3,0,2.3,0.7,2.3,1.7c0,1.7-2.5,3.5-4.6,3.5C304,11.9,303,11.2,303,10.2z"/>
</g>
<rect x="317.2" y="13.9" width="10.5" height="0.8"/>
<rect x="319" y="12.6" width="0.5" height="18"/>
<g>
	<path d="M319.1,12.6c0-1.8,2.5-3.5,4.5-3.5c1.3,0,2.3,0.7,2.3,1.7c0,1.7-2.5,3.5-4.6,3.5C320.1,14.4,319.1,13.7,319.1,12.6z"/>
</g>
<rect x="333.4" y="13.9" width="10.5" height="0.8"/>
<rect x="335.2" y="15" width="0.5" height="17.2"/>
<g>
	<path d="M335.2,15.1c0-1.8,2.5-3.5,4.5-3.5c1.3,0,2.3,0.7,2.3,1.7c0,1.7-2.5,3.5-4.6,3.5C336.2,16.8,335.2,16.2,335.2,15.1z"/>
</g>
<rect x="351.1" y="17.5" width="0.5" height="16.4"/>
<g>
	<path d="M351.2,17.6c0-1.8,2.5-3.5,4.5-3.5c1.3,0,2.3,0.7,2.3,1.7c0,1.7-2.5,3.5-4.6,3.5C352.2,19.3,351.2,18.7,351.2,17.6z"/>
</g>
<rect x="367.2" y="20" width="0.5" height="18.9"/>
<g>
	<path d="M367.3,20.1c0-1.8,2.5-3.5,4.5-3.5c1.3,0,2.3,0.7,2.3,1.7c0,1.7-2.5,3.5-4.6,3.5C368.3,21.8,367.3,21.2,367.3,20.1z"/>
</g>
<rect x="383.4" y="22.5" width="0.5" height="18"/>
<g>
	<path d="M383.4,22.6c0-1.8,2.5-3.5,4.5-3.5c1.3,0,2.3,0.7,2.3,1.7c0,1.7-2.5,3.5-4.6,3.5C384.4,24.3,383.4,23.7,383.4,22.6z"/>
</g>
<rect x="399.5" y="25" width="0.5" height="17.2"/>
<g>
	<path d="M399.6,25c0-1.8,2.5-3.5,4.5-3.5c1.3,0,2.3,0.7,2.3,1.7c0,1.7-2.5,3.5-4.6,3.5C400.5,26.8,399.6,26.1,399.6,25z"/>
</g>
<rect x="415.5" y="27.4" width="0.5" height="16.4"/>
<g>
	<path d="M415.5,27.5c0-1.8,2.5-3.5,4.5-3.5c1.3,0,2.3,0.7,2.3,1.7c0,1.7-2.5,3.5-4.6,3.5C416.5,29.2,415.5,28.6,415.5,27.5z"/>
</g>
<rect x="438.1" y="14.4" width="0.5" height="14"/>
<g>
	<path d="M431.7,30c0-1.8,2.5-3.5,4.5-3.5c1.3,0,2.3,0.7,2.3,1.7c0,1.7-2.5,3.5-4.6,3.5C432.6,31.7,431.7,31.1,431.7,30z"/>
</g>
<rect x="454.2" y="16" width="0.5" height="14.9"/>
<g>
	<path d="M447.8,32.5c0-1.8,2.5-3.5,4.5-3.5c1.3,0,2.3,0.7,2.3,1.7c0,1.7-2.5,3.5-4.6,3.5C448.7,34.2,447.8,33.6,447.8,32.5z"/>
</g>
<rect x="470.3" y="17.7" width="0.5" height="15.7"/>
<g>
	<path d="M463.9,35c0-1.8,2.5-3.5,4.5-3.5c1.3,0,2.3,0.7,2.3,1.7c0,1.7-2.5,3.5-4.6,3.5C464.9,36.7,463.9,36.1,463.9,35z"/>
</g>
<rect x="486.3" y="19.4" width="0.5" height="16.4"/>
<g>
	<path d="M479.9,37.4c0-1.8,2.5-3.5,4.5-3.5c1.3,0,2.3,0.7,2.3,1.7c0,1.7-2.5,3.5-4.6,3.5C480.8,39.2,479.9,38.5,479.9,37.4z"/>
</g>
<rect x="502.6" y="21.7" width="0.5" height="16.6"/>
<g>
	<path d="M500.2,36.4c1.6,0,2.7,0.7,2.7,2c0,1.9-2.3,3.4-4.5,3.4c-1.3,0-2.4-0.7-2.4-1.8C496,38.2,498.2,36.4,500.2,36.4z
		 M496.4,40.2c0,0.6,0.4,0.9,1.1,0.9c1.4,0,4.9-2.1,4.9-3.3c0-0.6-0.4-0.9-1.1-0.9C500.1,37,496.4,39,496.4,40.2z"/>
</g>
<rect x="41.3" y="61" width="10.5" height="0.8"/>
<rect x="41.3" y="56" width="10.5" height="0.8"/>
<rect x="43.1" y="57.2" width="0.5" height="18.9"/>
<g>
	<path d="M43.2,57.3c0-1.8,2.5-3.5,4.5-3.5c1.3,0,2.3,0.7,2.3,1.7c0,1.7-2.5,3.5-4.6,3.5C44.2,59,43.2,58.4,43.2,57.3z"/>
</g>
<rect x="58.7" y="61" width="10.5" height="0.8"/>
<rect x="60.5" y="59.7" width="0.5" height="18.1"/>
<g>
	<path d="M60.5,59.8c0-1.8,2.5-3.5,4.5-3.5c1.3,0,2.3,0.7,2.3,1.7c0,1.7-2.5,3.5-4.6,3.5C61.5,61.5,60.5,60.9,60.5,59.8z"/>
</g>
<g>
	<path d="M56.9,52.1v2.8l1-0.3v1.8l-1,0.3v3.4l1-0.3v1.8l-1,0.3v3.1h-0.5v-3l-1.9,0.6v3H54v-2.8l-1,0.3v-1.8l1-0.3v-3.4l-1,0.3v-1.8
		l1-0.3v-3.1h0.5v3l1.9-0.6v-3H56.9z M56.4,56.9l-1.9,0.6v3.4l1.9-0.6V56.9z"/>
</g>
<rect x="74.8" y="61" width="10.5" height="0.8"/>
<rect x="76.6" y="62.2" width="0.5" height="17.2"/>
<g>
	<path d="M76.7,62.2c0-1.8,2.5-3.5,4.5-3.5c1.3,0,2.3,0.7,2.3,1.7c0,1.7-2.5,3.5-4.6,3.5C77.6,64,76.7,63.3,76.7,62.2z"/>
</g>
<rect x="92.6" y="64.6" width="0.5" height="16.4"/>
<g>
	<path d="M92.6,64.7c0-1.8,2.5-3.5,4.5-3.5c1.3,0,2.3,0.7,2.3,1.7c0,1.7-2.5,3.5-4.6,3.5C93.6,66.4,92.6,65.8,92.6,64.7z"/>
</g>
<rect x="108.7" y="67.1" width="0.5" height="18.9"/>
<g>
	<path d="M108.8,67.2c0-1.8,2.5-3.5,4.5-3.5c1.3,0,2.3,0.7,2.3,1.7c0,1.7-2.5,3.5-4.6,3.5C109.7,68.9,108.8,68.3,108.8,67.2z"/>
</g>
<rect x="124.8" y="69.6" width="0.5" height="18"/>
<g>
	<path d="M124.9,69.7c0-1.8,2.5-3.5,4.5-3.5c1.3,0,2.3,0.7,2.3,1.7c0,1.7-2.5,3.5-4.6,3.5C125.8,71.4,124.9,70.8,124.9,69.7z"/>
</g>
<rect x="140.9" y="72.1" width="0.5" height="17.2"/>
<g>
	<path d="M141,72.2c0-1.8,2.5-3.5,4.5-3.5c1.3,0,2.3,0.7,2.3,1.7c0,1.7-2.5,3.5-4.6,3.5C142,73.9,141,73.3,141,72.2z"/>
</g>
<rect x="156.9" y="74.6" width="0.5" height="16.4"/>
<g>
	<path d="M157,74.6c0-1.8,2.5-3.5,4.5-3.5c1.3,0,2.3,0.7,2.3,1.7c0,1.7-2.5,3.5-4.6,3.5C157.9,76.4,157,75.7,157,74.6z"/>
</g>
<rect x="179.5" y="61.5" width="0.5" height="14"/>
<g>
	<path d="M173.1,77.1c0-1.8,2.5-3.5,4.5-3.5c1.3,0,2.3,0.7,2.3,1.7c0,1.7-2.5,3.5-4.6,3.5C174.1,78.8,173.1,78.2,173.1,77.1z"/>
</g>
<g>
	<path d="M170.7,69.4v2.8l1-0.3v1.8l-1,0.3v3.4l1-0.3V79l-1,0.3v3.1h-0.5v-3l-1.9,0.6v3h-0.5v-2.8l-1,0.3v-1.8l1-0.3V75l-1,0.3v-1.8
		l1-0.3v-3.1h0.5v3l1.9-0.6v-3H170.7z M170.2,74.2l-1.9,0.6v3.4l1.9-0.6V74.2z"/>
</g>
<rect x="195.6" y="63.1" width="0.5" height="14.9"/>
<g>
	<path d="M189.2,79.6c0-1.8,2.5-3.5,4.5-3.5c1.3,0,2.3,0.7,2.3,1.7c0,1.7-2.5,3.5-4.6,3.5C190.2,81.3,189.2,80.7,189.2,79.6z"/>
</g>
<g>
	<path d="M187.3,85.5v-4l-3,1.1V71.9h0.5v4l3-1.1v10.7H187.3z M184.7,80.9l2.5-0.9v-3.3l-2.5,0.9V80.9z"/>
</g>
<rect x="211.8" y="64.8" width="0.5" height="15.7"/>
<g>
	<path d="M205.3,82.1c0-1.8,2.5-3.5,4.5-3.5c1.3,0,2.3,0.7,2.3,1.7c0,1.7-2.5,3.5-4.6,3.5C206.3,83.8,205.3,83.2,205.3,82.1z"/>
</g>
<rect x="227.7" y="66.5" width="0.5" height="16.4"/>
<g>
	<path d="M221.3,84.6c0-1.8,2.5-3.5,4.5-3.5c1.3,0,2.3,0.7,2.3,1.7c0,1.7-2.5,3.5-4.6,3.5C222.3,86.3,221.3,85.7,221.3,84.6z"/>
</g>
<rect x="243.9" y="70.2" width="0.5" height="15.2"/>
<g>
	<path d="M237.4,87c0-1.8,2.5-3.5,4.5-3.5c1.3,0,2.3,0.7,2.3,1.7c0,1.7-2.5,3.5-4.6,3.5C238.4,88.8,237.4,88.1,237.4,87z"/>
</g>
<rect x="261.2" y="70.5" width="0.5" height="17.4"/>
<g>
	<path d="M254.8,89.5c0-1.8,2.5-3.5,4.5-3.5c1.3,0,2.3,0.7,2.3,1.7c0,1.7-2.5,3.5-4.6,3.5C255.8,91.2,254.8,90.6,254.8,89.5z"/>
</g>
<rect x="269" y="90.8" width="10.5" height="0.8"/>
<rect x="277.3" y="71" width="0.5" height="19.4"/>
<g>
	<path d="M270.9,92c0-1.8,2.5-3.5,4.5-3.5c1.3,0,2.3,0.7,2.3,1.7c0,1.7-2.5,3.5-4.6,3.5C271.9,93.7,270.9,93.1,270.9,92z"/>
</g>
<rect x="293.5" y="71.5" width="0.5" height="16.4"/>
<g>
	<path d="M287,89.5c0-1.8,2.5-3.5,4.5-3.5c1.3,0,2.3,0.7,2.3,1.7c0,1.7-2.5,3.5-4.6,3.5C288,91.2,287,90.6,287,89.5z"/>
</g>
<rect x="309.4" y="66.5" width="0.5" height="18.9"/>
<g>
	<path d="M303,87c0-1.8,2.5-3.5,4.5-3.5c1.3,0,2.3,0.7,2.3,1.7c0,1.7-2.5,3.5-4.6,3.5C304,88.8,303,88.1,303,87z"/>
</g>
<rect x="325.5" y="65" width="0.5" height="18"/>
<g>
	<path d="M319.1,84.6c0-1.8,2.5-3.5,4.5-3.5c1.3,0,2.3,0.7,2.3,1.7c0,1.7-2.5,3.5-4.6,3.5C320.1,86.3,319.1,85.7,319.1,84.6z"/>
</g>
<rect x="341.7" y="63.2" width="0.5" height="17.2"/>
<g>
	<path d="M335.2,82.1c0-1.8,2.5-3.5,4.5-3.5c1.3,0,2.3,0.7,2.3,1.7c0,1.7-2.5,3.5-4.6,3.5C336.2,83.8,335.2,83.2,335.2,82.1z"/>
</g>
<rect x="357.6" y="61.5" width="0.5" height="16.4"/>
<g>
	<path d="M351.2,79.6c0-1.8,2.5-3.5,4.5-3.5c1.3,0,2.3,0.7,2.3,1.7c0,1.7-2.5,3.5-4.6,3.5C352.2,81.3,351.2,80.7,351.2,79.6z"/>
</g>
<rect x="367.2" y="77" width="0.5" height="14"/>
<g>
	<path d="M367.3,77.1c0-1.8,2.5-3.5,4.5-3.5c1.3,0,2.3,0.7,2.3,1.7c0,1.7-2.5,3.5-4.6,3.5C368.3,78.8,367.3,78.2,367.3,77.1z"/>
</g>
<rect x="383.4" y="74.6" width="0.5" height="14.9"/>
<g>
	<path d="M383.4,74.6c0-1.8,2.5-3.5,4.5-3.5c1.3,0,2.3,0.7,2.3,1.7c0,1.7-2.5,3.5-4.6,3.5C384.4,76.4,383.4,75.7,383.4,74.6z"/>
</g>
<rect x="399.5" y="72.1" width="0.5" height="15.7"/>
<g>
	<path d="M399.6,72.2c0-1.8,2.5-3.5,4.5-3.5c1.3,0,2.3,0.7,2.3,1.7c0,1.7-2.5,3.5-4.6,3.5C400.5,73.9,399.6,73.3,399.6,72.2z"/>
</g>
<rect x="415.5" y="69.6" width="0.5" height="16.4"/>
<g>
	<path d="M415.5,69.7c0-1.8,2.5-3.5,4.5-3.5c1.3,0,2.3,0.7,2.3,1.7c0,1.7-2.5,3.5-4.6,3.5C416.5,71.4,415.5,70.8,415.5,69.7z"/>
</g>
<rect x="431.6" y="67.1" width="0.5" height="14"/>
<g>
	<path d="M431.7,67.2c0-1.8,2.5-3.5,4.5-3.5c1.3,0,2.3,0.7,2.3,1.7c0,1.7-2.5,3.5-4.6,3.5C432.6,68.9,431.7,68.3,431.7,67.2z"/>
</g>
<rect x="447.7" y="64.6" width="0.5" height="14.9"/>
<g>
	<path d="M447.8,64.7c0-1.8,2.5-3.5,4.5-3.5c1.3,0,2.3,0.7,2.3,1.7c0,1.7-2.5,3.5-4.6,3.5C448.7,66.4,447.8,65.8,447.8,64.7z"/>
</g>
<rect x="462" y="61" width="10.5" height="0.8"/>
<rect x="463.8" y="62.2" width="0.5" height="15.7"/>
<g>
	<path d="M463.9,62.2c0-1.8,2.5-3.5,4.5-3.5c1.3,0,2.3,0.7,2.3,1.7c0,1.7-2.5,3.5-4.6,3.5C464.9,64,463.9,63.3,463.9,62.2z"/>
</g>
<rect x="478" y="61" width="10.5" height="0.8"/>
<rect x="479.8" y="59.7" width="0.5" height="16.4"/>
<g>
	<path d="M479.9,59.8c0-1.8,2.5-3.5,4.5-3.5c1.3,0,2.3,0.7,2.3,1.7c0,1.7-2.5,3.5-4.6,3.5C480.8,61.5,479.9,60.9,479.9,59.8z"/>
</g>
<rect x="494.1" y="61" width="10.7" height="0.8"/>
<rect x="494.1" y="56" width="10.7" height="0.8"/>
<rect x="495.9" y="57.2" width="0.5" height="19.1"/>
<g>
	<path d="M500.2,53.7c1.6,0,2.7,0.7,2.7,2c0,1.9-2.3,3.4-4.5,3.4c-1.3,0-2.4-0.7-2.4-1.8C496,55.5,498.2,53.7,500.2,53.7z
		 M496.4,57.6c0,0.6,0.4,0.9,1.1,0.9c1.4,0,4.9-2.1,4.9-3.3c0-0.6-0.4-0.9-1.1-0.9C500.1,54.3,496.4,56.3,496.4,57.6z"/>
</g>
</svg>
