<?xml version="1.0" encoding="utf-8"?>

<!--
	ScaleBook
	Copyright (c) Leland Jansen 2015. All rights reserved.
-->

<!DOCTYPE svg PUBLIC "-//W3C//DTD SVG 1.1//EN" "http://www.w3.org/Graphics/SVG/1.1/DTD/svg11.dtd">
<svg version="1.1" id="Layer_1" xmlns="http://www.w3.org/2000/svg" xmlns:xlink="http://www.w3.org/1999/xlink" x="0px" y="0px"
	 viewBox="0 0 553 208.6" enable-background="new 0 0 553 208.6" xml:space="preserve">
<rect x="8.4" y="9.7" width="0.8" height="67"/>
<g>
	<path d="M7.4,10.4c-1.9,1.1-3.6,5.8-3.6,9.4c0,2.3,1.4,9.9,1.4,12.3c0,5-1.5,8.6-4.6,11.1c3,2.4,4.6,6.1,4.6,11
		c0,2.3-1.4,9.9-1.4,12.3c0,3.8,1.7,8.4,3.6,9.5v0.7c-3.5-2.3-5.8-8.2-5.8-13.1c0-2.1,1.7-9.4,1.7-11.5c0-3.8-1-6.6-2.9-8.2
		C0.1,43.6,0,43.4,0,43.2s0.1-0.4,0.5-0.7c1.9-1.7,2.9-4.2,2.9-7.6c0-2.1-1.7-10-1.7-12.2c0-5.2,2.1-10.4,5.8-13.1V10.4z"/>
</g>
<rect x="8.4" y="131.9" width="0.8" height="67"/>
<g>
	<path d="M7.4,132.5c-1.9,1.1-3.6,5.8-3.6,9.4c0,2.3,1.4,9.9,1.4,12.3c0,5-1.5,8.6-4.6,11.1c3,2.4,4.6,6.1,4.6,11
		c0,2.3-1.4,9.9-1.4,12.3c0,3.8,1.7,8.4,3.6,9.5v0.7c-3.5-2.3-5.8-8.2-5.8-13.1c0-2.1,1.7-9.4,1.7-11.5c0-3.8-1-6.6-2.9-8.2
		c-0.3-0.3-0.5-0.5-0.5-0.7s0.1-0.4,0.5-0.7c1.9-1.7,2.9-4.2,2.9-7.6c0-2.1-1.7-10-1.7-12.2c0-5.2,2.1-10.4,5.8-13.1V132.5z"/>
</g>
<rect x="299" y="9.7" width="0.8" height="67"/>
<rect x="301.7" y="9.7" width="0.8" height="67"/>
<rect x="549.5" y="9.7" width="0.8" height="67"/>
<rect x="552.2" y="9.7" width="0.8" height="67"/>
<rect x="297.2" y="131.9" width="0.8" height="67"/>
<rect x="299.8" y="131.9" width="0.8" height="67"/>
<rect x="547.8" y="131.9" width="0.8" height="67"/>
<rect x="550.4" y="131.9" width="2.5" height="67"/>
<rect x="8.5" y="29.3" width="544.4" height="0.5"/>
<rect x="8.5" y="24.4" width="544.4" height="0.5"/>
<rect x="8.5" y="19.4" width="544.4" height="0.5"/>
<rect x="8.5" y="14.4" width="544.4" height="0.5"/>
<rect x="8.5" y="9.5" width="544.4" height="0.5"/>
<g>
	<path d="M20.3,29.4c-4.2,0-8.1-3.1-8.1-6.9c0-3.2,2.3-6.7,6.8-10.5c-0.3-1.2-0.4-2.4-0.4-3.6c0-3.5,1.2-6.8,3.2-8.5
		c1.8,2.5,2.7,4.9,2.7,7.1c0,2.9-1.3,5.6-4.3,8.1l0.9,4.2c0.5,0,0.8-0.1,0.8-0.1c2.6,0,4.8,2,4.8,4.7c0,1.9-1.4,3.7-3.6,4.8
		c0-0.1,0.9,3.8,0.9,4.3c0,2.5-2.3,4.2-4.9,4.2c-2,0-3.6-1.3-3.6-3.4c0-1.4,1-2.6,2.4-2.6c1.3,0,2.3,1.3,2.3,2.5
		c0,1.4-1.2,2.3-2.7,2.5c0.6,0.3,1.2,0.5,1.9,0.5c2.1,0,4.1-1.6,4.1-3.6c0-0.2,0-0.4-0.1-0.6l-0.8-3.7
		C21.9,29.3,21.2,29.4,20.3,29.4z M18.1,24.2c0,1,0.5,1.9,1.6,2.5c-1.8-0.3-3-1.4-3-3.1c0-2,1.7-3.7,3.8-4.1l-0.8-4
		C16,18.3,14,21,14,23.6c0,2.9,2.8,5.3,6,5.3c0.9,0,1.7-0.2,2.4-0.5L21,21.6C19.4,21.8,18.1,22.8,18.1,24.2z M22.1,2.8
		c-1.6,0-2.9,3.7-2.9,7c0,0.7,0,1.3,0.2,1.9c2.7-2.4,4-4.5,4-6.5c0-0.9-0.3-1.7-1-2.4C22.4,2.9,22.3,2.8,22.1,2.8z M24.9,24.7
		c0-1.6-1.2-3.3-2.9-3.3c-0.1,0-0.2,0-0.5,0l1.4,6.6C24.2,27.2,24.9,26,24.9,24.7z"/>
</g>
<g>
	<path d="M29.5,11.3h0.6L30,17.6c0.4-0.7,1-1,1.8-1c1.2,0,2.2,0.8,2.2,1.9c0,0.8-0.5,1.8-1.7,2.7l-2.8,2.1V11.3z M30.1,18.2
		C30,19,30,19.6,30,20.2c0,1,0,1.6,0.1,2c1-0.7,2.4-2.6,2.4-3.7c0-0.6-0.5-1.1-1.1-1.1C30.8,17.4,30.4,17.7,30.1,18.2z"/>
</g>
<g>
	<path d="M35.1,3.9h0.6l-0.1,6.2c0.4-0.7,1-1,1.8-1c1.2,0,2.2,0.8,2.2,1.9c0,0.8-0.5,1.8-1.7,2.7l-2.8,2.1V3.9z M35.7,10.8
		c-0.1,0.8-0.1,1.4-0.1,1.9c0,1,0,1.6,0.1,2c1-0.7,2.4-2.6,2.4-3.7c0-0.6-0.5-1.1-1.1-1.1C36.4,10,36,10.2,35.7,10.8z"/>
</g>
<g>
	<path d="M40.7,13.8h0.6l-0.1,6.2c0.4-0.7,1-1,1.8-1c1.2,0,2.2,0.8,2.2,1.9c0,0.8-0.5,1.8-1.7,2.7l-2.8,2.1V13.8z M41.3,20.7
		c-0.1,0.8-0.1,1.4-0.1,1.9c0,1,0,1.6,0.1,2c1-0.7,2.4-2.6,2.4-3.7c0-0.6-0.5-1.1-1.1-1.1C42,19.9,41.6,20.2,41.3,20.7z"/>
</g>
<g>
	<path d="M46.3,6.4h0.6l-0.1,6.2c0.4-0.7,1-1,1.8-1c1.2,0,2.2,0.8,2.2,1.9c0,0.8-0.5,1.8-1.7,2.7l-2.8,2.1V6.4z M46.9,13.3
		c-0.1,0.8-0.1,1.4-0.1,1.9c0,1,0,1.6,0.1,2c1-0.7,2.4-2.6,2.4-3.7c0-0.6-0.5-1.1-1.1-1.1C47.6,12.4,47.2,12.7,46.9,13.3z"/>
</g>
<polygon fill-rule="evenodd" clip-rule="evenodd" points="66,25.8 103.3,20.9 103.3,18.4 66,23.4 "/>
<polygon fill-rule="evenodd" clip-rule="evenodd" points="66,22.1 103.3,17.2 103.3,14.7 66,19.6 "/>
<polygon fill-rule="evenodd" clip-rule="evenodd" points="115.7,11 153.1,6 153.1,3.5 115.7,8.5 "/>
<polygon fill-rule="evenodd" clip-rule="evenodd" points="115.7,7.2 153.1,2.3 153.1,-0.2 115.7,4.8 "/>
<polygon fill-rule="evenodd" clip-rule="evenodd" points="159,30.8 196.3,35.8 196.3,33.3 159,28.3 "/>
<polygon fill-rule="evenodd" clip-rule="evenodd" points="159,34.5 196.3,39.5 196.3,37 159,32 "/>
<polygon fill-rule="evenodd" clip-rule="evenodd" points="215.2,20.9 252.6,25.8 252.6,23.4 215.2,18.4 "/>
<polygon fill-rule="evenodd" clip-rule="evenodd" points="215.2,17.2 252.6,22.1 252.6,19.6 215.2,14.7 "/>
<polygon fill-rule="evenodd" clip-rule="evenodd" points="316.5,25.8 353.8,20.9 353.8,18.4 316.5,23.4 "/>
<polygon fill-rule="evenodd" clip-rule="evenodd" points="316.5,22.1 353.8,17.2 353.8,14.7 316.5,19.6 "/>
<polygon fill-rule="evenodd" clip-rule="evenodd" points="359.7,35.8 397.1,30.8 397.1,28.3 359.7,33.3 "/>
<polygon fill-rule="evenodd" clip-rule="evenodd" points="359.7,39.5 397.1,34.5 397.1,32 359.7,37 "/>
<polygon fill-rule="evenodd" clip-rule="evenodd" points="409.5,25.8 446.8,30.8 446.8,28.3 409.5,23.4 "/>
<polygon fill-rule="evenodd" clip-rule="evenodd" points="409.5,29.6 446.8,34.5 446.8,32 409.5,27.1 "/>
<polygon fill-rule="evenodd" clip-rule="evenodd" points="465.8,15.9 503.1,20.9 503.1,18.4 465.8,13.4 "/>
<polygon fill-rule="evenodd" clip-rule="evenodd" points="465.8,12.2 503.1,17.2 503.1,14.7 465.8,9.7 "/>
<rect x="8.5" y="76.4" width="544.4" height="0.5"/>
<rect x="8.5" y="71.5" width="544.4" height="0.5"/>
<rect x="8.5" y="66.5" width="544.4" height="0.5"/>
<rect x="8.5" y="61.6" width="544.4" height="0.5"/>
<rect x="8.5" y="56.6" width="544.4" height="0.5"/>
<g>
	<path d="M15.7,71c2.9-2.6,4.7-6.1,4.7-9.2c0-2.5-1.4-4.4-3.7-4.4c-1.6,0-3.4,1.3-3.4,2.7c0,0.2,0,0.3,0.1,0.3
		c-0.1,0,0.6-0.6,1.4-0.6c0.9,0,1.5,0.8,1.5,1.7c0,1.2-0.9,2.2-2.1,2.2c-1.2,0-2.1-1.3-2.1-2.8c0-2.3,2.3-4.1,4.8-4.1
		c4.7,0,5.9,3.2,5.9,5.8c0,1.6-0.4,2.9-2,5.3c-1.9,3.1-6.4,5.3-8.1,5.3c-0.4,0-0.6-0.2-0.6-0.5C13.8,72.3,14.9,71.7,15.7,71z
		 M25.7,58.3c0.6,0,1,0.4,1,1s-0.4,1-1,1s-1-0.4-1-1S25.1,58.3,25.7,58.3z M25.7,63.3c0.6,0,1,0.4,1,1s-0.4,1-1,1s-1-0.4-1-1
		S25.1,63.3,25.7,63.3z"/>
</g>
<g>
	<path d="M29.5,63.4h0.6L30,69.7c0.4-0.7,1-1,1.8-1c1.2,0,2.2,0.8,2.2,1.9c0,0.8-0.5,1.8-1.7,2.7l-2.8,2.1V63.4z M30.1,70.3
		C30,71.1,30,71.7,30,72.3c0,1,0,1.6,0.1,2c1-0.7,2.4-2.6,2.4-3.7c0-0.6-0.5-1.1-1.1-1.1C30.8,69.5,30.4,69.8,30.1,70.3z"/>
</g>
<g>
	<path d="M35.1,56h0.6l-0.1,6.2c0.4-0.7,1-1,1.8-1c1.2,0,2.2,0.8,2.2,1.9c0,0.8-0.5,1.8-1.7,2.7l-2.8,2.1V56z M35.7,62.9
		c-0.1,0.8-0.1,1.4-0.1,1.9c0,1,0,1.6,0.1,2c1-0.7,2.4-2.6,2.4-3.7c0-0.6-0.5-1.1-1.1-1.1C36.4,62,36,62.3,35.7,62.9z"/>
</g>
<g>
	<path d="M40.7,65.9h0.6l-0.1,6.2c0.4-0.7,1-1,1.8-1c1.2,0,2.2,0.8,2.2,1.9c0,0.8-0.5,1.8-1.7,2.7l-2.8,2.1V65.9z M41.3,72.8
		c-0.1,0.8-0.1,1.4-0.1,1.9c0,1,0,1.6,0.1,2c1-0.7,2.4-2.6,2.4-3.7c0-0.6-0.5-1.1-1.1-1.1C42,72,41.6,72.2,41.3,72.8z"/>
</g>
<g>
	<path d="M46.3,58.4h0.6l-0.1,6.2c0.4-0.7,1-1,1.8-1c1.2,0,2.2,0.8,2.2,1.9c0,0.8-0.5,1.8-1.7,2.7l-2.8,2.1V58.4z M46.9,65.4
		c-0.1,0.8-0.1,1.4-0.1,1.9c0,1,0,1.6,0.1,2c1-0.7,2.4-2.6,2.4-3.7c0-0.6-0.5-1.1-1.1-1.1C47.6,64.5,47.2,64.8,46.9,65.4z"/>
</g>
<polygon fill-rule="evenodd" clip-rule="evenodd" points="66,63 103.3,58.1 103.3,55.6 66,60.6 "/>
<polygon fill-rule="evenodd" clip-rule="evenodd" points="66,59.3 103.3,54.4 103.3,51.9 66,56.8 "/>
<polygon fill-rule="evenodd" clip-rule="evenodd" points="109.2,77.9 146.6,73 146.6,70.5 109.2,75.4 "/>
<polygon fill-rule="evenodd" clip-rule="evenodd" points="109.2,81.6 146.6,76.7 146.6,74.2 109.2,79.2 "/>
<polygon fill-rule="evenodd" clip-rule="evenodd" points="159,68 196.3,73 196.3,70.5 159,65.5 "/>
<polygon fill-rule="evenodd" clip-rule="evenodd" points="159,71.7 196.3,76.7 196.3,74.2 159,69.2 "/>
<polygon fill-rule="evenodd" clip-rule="evenodd" points="215.2,53.1 252.6,58.1 252.6,55.6 215.2,50.6 "/>
<polygon fill-rule="evenodd" clip-rule="evenodd" points="215.2,49.4 252.6,54.4 252.6,51.9 215.2,46.9 "/>
<polygon fill-rule="evenodd" clip-rule="evenodd" points="316.5,58.1 353.8,53.1 353.8,50.6 316.5,55.6 "/>
<polygon fill-rule="evenodd" clip-rule="evenodd" points="316.5,54.4 353.8,49.4 353.8,46.9 316.5,51.9 "/>
<polygon fill-rule="evenodd" clip-rule="evenodd" points="359.7,73 397.1,68 397.1,65.5 359.7,70.5 "/>
<polygon fill-rule="evenodd" clip-rule="evenodd" points="359.7,76.7 397.1,71.7 397.1,69.2 359.7,74.2 "/>
<polygon fill-rule="evenodd" clip-rule="evenodd" points="409.5,63 446.8,68 446.8,65.5 409.5,60.6 "/>
<polygon fill-rule="evenodd" clip-rule="evenodd" points="409.5,66.8 446.8,71.7 446.8,69.2 409.5,64.3 "/>
<polygon fill-rule="evenodd" clip-rule="evenodd" points="459.2,77.9 496.6,82.9 496.6,80.4 459.2,75.4 "/>
<polygon fill-rule="evenodd" clip-rule="evenodd" points="459.2,81.6 496.6,86.6 496.6,84.1 459.2,79.2 "/>
<rect x="8.5" y="151.5" width="544.4" height="0.5"/>
<rect x="8.5" y="146.5" width="544.4" height="0.5"/>
<rect x="8.5" y="141.6" width="544.4" height="0.5"/>
<rect x="8.5" y="136.6" width="544.4" height="0.5"/>
<rect x="8.5" y="131.6" width="544.4" height="0.5"/>
<g>
	<path d="M20.3,151.5c-4.2,0-8.1-3.1-8.1-6.9c0-3.2,2.3-6.7,6.8-10.5c-0.3-1.2-0.4-2.4-0.4-3.6c0-3.5,1.2-6.8,3.2-8.5
		c1.8,2.5,2.7,4.9,2.7,7.1c0,2.9-1.3,5.6-4.3,8.1l0.9,4.2c0.5,0,0.8-0.1,0.8-0.1c2.6,0,4.8,2,4.8,4.7c0,1.9-1.4,3.7-3.6,4.8
		c0-0.1,0.9,3.8,0.9,4.3c0,2.5-2.3,4.2-4.9,4.2c-2,0-3.6-1.3-3.6-3.4c0-1.4,1-2.6,2.4-2.6c1.3,0,2.3,1.3,2.3,2.5
		c0,1.4-1.2,2.3-2.7,2.5c0.6,0.3,1.2,0.5,1.9,0.5c2.1,0,4.1-1.6,4.1-3.6c0-0.2,0-0.4-0.1-0.6l-0.8-3.7
		C21.9,151.4,21.2,151.5,20.3,151.5z M18.1,146.3c0,1,0.5,1.9,1.6,2.5c-1.8-0.3-3-1.4-3-3.1c0-2,1.7-3.7,3.8-4.1l-0.8-4
		c-3.7,2.8-5.7,5.5-5.7,8.1c0,2.9,2.8,5.3,6,5.3c0.9,0,1.7-0.2,2.4-0.5l-1.4-6.8C19.4,143.9,18.1,145,18.1,146.3z M22.1,125
		c-1.6,0-2.9,3.7-2.9,7c0,0.7,0,1.3,0.2,1.9c2.7-2.4,4-4.5,4-6.5c0-0.9-0.3-1.7-1-2.4C22.4,125,22.3,125,22.1,125z M24.9,146.9
		c0-1.6-1.2-3.3-2.9-3.3c-0.1,0-0.2,0-0.5,0l1.4,6.6C24.2,149.3,24.9,148.2,24.9,146.9z"/>
</g>
<g>
	<path d="M29.5,133.5h0.6l-0.1,6.2c0.4-0.7,1-1,1.8-1c1.2,0,2.2,0.8,2.2,1.9c0,0.8-0.5,1.8-1.7,2.7l-2.8,2.1V133.5z M30.1,140.4
		c-0.1,0.8-0.1,1.4-0.1,1.9c0,1,0,1.6,0.1,2c1-0.7,2.4-2.6,2.4-3.7c0-0.6-0.5-1.1-1.1-1.1C30.8,139.5,30.4,139.8,30.1,140.4z"/>
</g>
<g>
	<path d="M35.1,126h0.6l-0.1,6.2c0.4-0.7,1-1,1.8-1c1.2,0,2.2,0.8,2.2,1.9c0,0.8-0.5,1.8-1.7,2.7l-2.8,2.1V126z M35.7,132.9
		c-0.1,0.8-0.1,1.4-0.1,1.9c0,1,0,1.6,0.1,2c1-0.7,2.4-2.6,2.4-3.7c0-0.6-0.5-1.1-1.1-1.1C36.4,132.1,36,132.4,35.7,132.9z"/>
</g>
<g>
	<path d="M40.7,136h0.6l-0.1,6.2c0.4-0.7,1-1,1.8-1c1.2,0,2.2,0.8,2.2,1.9c0,0.8-0.5,1.8-1.7,2.7l-2.8,2.1V136z M41.3,142.9
		c-0.1,0.8-0.1,1.4-0.1,1.9c0,1,0,1.6,0.1,2c1-0.7,2.4-2.6,2.4-3.7c0-0.6-0.5-1.1-1.1-1.1C42,142,41.6,142.3,41.3,142.9z"/>
</g>
<g>
	<path d="M46.3,128.5h0.6l-0.1,6.2c0.4-0.7,1-1,1.8-1c1.2,0,2.2,0.8,2.2,1.9c0,0.8-0.5,1.8-1.7,2.7l-2.8,2.1V128.5z M46.9,135.4
		c-0.1,0.8-0.1,1.4-0.1,1.9c0,1,0,1.6,0.1,2c1-0.7,2.4-2.6,2.4-3.7c0-0.6-0.5-1.1-1.1-1.1C47.6,134.6,47.2,134.9,46.9,135.4z"/>
</g>
<polygon fill-rule="evenodd" clip-rule="evenodd" points="66,143 98.4,138.1 98.4,135.6 66,140.5 "/>
<polygon fill-rule="evenodd" clip-rule="evenodd" points="66,139.3 98.4,134.3 98.4,131.9 66,136.8 "/>
<polygon fill-rule="evenodd" clip-rule="evenodd" points="118.2,152.9 150.8,148 150.8,145.5 118.2,150.5 "/>
<polygon fill-rule="evenodd" clip-rule="evenodd" points="118.2,156.7 150.8,151.7 150.8,149.2 118.2,154.2 "/>
<polygon fill-rule="evenodd" clip-rule="evenodd" points="161.5,143 194,148 194,145.5 161.5,140.5 "/>
<polygon fill-rule="evenodd" clip-rule="evenodd" points="161.5,146.7 194,151.7 194,149.2 161.5,144.3 "/>
<polygon fill-rule="evenodd" clip-rule="evenodd" points="225,133.1 257.4,138.1 257.4,135.6 225,130.6 "/>
<polygon fill-rule="evenodd" clip-rule="evenodd" points="225,129.4 257.4,134.3 257.4,131.9 225,126.9 "/>
<polygon fill-rule="evenodd" clip-rule="evenodd" points="314.6,138.1 347.2,133.1 347.2,130.6 314.6,135.6 "/>
<polygon fill-rule="evenodd" clip-rule="evenodd" points="314.6,134.3 347.2,129.4 347.2,126.9 314.6,131.9 "/>
<polygon fill-rule="evenodd" clip-rule="evenodd" points="365.1,148 397.5,143 397.5,140.5 365.1,145.5 "/>
<polygon fill-rule="evenodd" clip-rule="evenodd" points="365.1,151.7 397.5,146.7 397.5,144.3 365.1,149.2 "/>
<polygon fill-rule="evenodd" clip-rule="evenodd" points="409.3,143 442.7,148 442.7,145.5 409.3,140.5 "/>
<polygon fill-rule="evenodd" clip-rule="evenodd" points="409.3,146.7 442.7,151.7 442.7,149.2 409.3,144.3 "/>
<polygon fill-rule="evenodd" clip-rule="evenodd" points="475.5,128.1 508.1,133.1 508.1,130.6 475.5,125.7 "/>
<polygon fill-rule="evenodd" clip-rule="evenodd" points="475.5,124.4 508.1,129.4 508.1,126.9 475.5,121.9 "/>
<rect x="8.5" y="198.6" width="544.4" height="0.5"/>
<rect x="8.5" y="193.6" width="544.4" height="0.5"/>
<rect x="8.5" y="188.7" width="544.4" height="0.5"/>
<rect x="8.5" y="183.7" width="544.4" height="0.5"/>
<rect x="8.5" y="178.8" width="544.4" height="0.5"/>
<g>
	<path d="M15.7,193.2c2.9-2.6,4.7-6.1,4.7-9.2c0-2.5-1.4-4.4-3.7-4.4c-1.6,0-3.4,1.3-3.4,2.7c0,0.2,0,0.3,0.1,0.3
		c-0.1,0,0.6-0.6,1.4-0.6c0.9,0,1.5,0.8,1.5,1.7c0,1.2-0.9,2.2-2.1,2.2c-1.2,0-2.1-1.3-2.1-2.8c0-2.3,2.3-4.1,4.8-4.1
		c4.7,0,5.9,3.2,5.9,5.8c0,1.6-0.4,2.9-2,5.3c-1.9,3.1-6.4,5.3-8.1,5.3c-0.4,0-0.6-0.2-0.6-0.5C13.8,194.4,14.9,193.9,15.7,193.2z
		 M25.7,180.5c0.6,0,1,0.4,1,1s-0.4,1-1,1s-1-0.4-1-1S25.1,180.5,25.7,180.5z M25.7,185.4c0.6,0,1,0.4,1,1s-0.4,1-1,1s-1-0.4-1-1
		S25.1,185.4,25.7,185.4z"/>
</g>
<g>
	<path d="M29.5,185.6h0.6l-0.1,6.2c0.4-0.7,1-1,1.8-1c1.2,0,2.2,0.8,2.2,1.9c0,0.8-0.5,1.8-1.7,2.7l-2.8,2.1V185.6z M30.1,192.5
		c-0.1,0.8-0.1,1.4-0.1,1.9c0,1,0,1.6,0.1,2c1-0.7,2.4-2.6,2.4-3.7c0-0.6-0.5-1.1-1.1-1.1C30.8,191.6,30.4,191.9,30.1,192.5z"/>
</g>
<g>
	<path d="M35.1,178.1h0.6l-0.1,6.2c0.4-0.7,1-1,1.8-1c1.2,0,2.2,0.8,2.2,1.9c0,0.8-0.5,1.8-1.7,2.7l-2.8,2.1V178.1z M35.7,185
		c-0.1,0.8-0.1,1.4-0.1,1.9c0,1,0,1.6,0.1,2c1-0.7,2.4-2.6,2.4-3.7c0-0.6-0.5-1.1-1.1-1.1C36.4,184.2,36,184.5,35.7,185z"/>
</g>
<g>
	<path d="M40.7,188h0.6l-0.1,6.2c0.4-0.7,1-1,1.8-1c1.2,0,2.2,0.8,2.2,1.9c0,0.8-0.5,1.8-1.7,2.7l-2.8,2.1V188z M41.3,194.9
		c-0.1,0.8-0.1,1.4-0.1,1.9c0,1,0,1.6,0.1,2c1-0.7,2.4-2.6,2.4-3.7c0-0.6-0.5-1.1-1.1-1.1C42,194.1,41.6,194.4,41.3,194.9z"/>
</g>
<g>
	<path d="M46.3,180.6h0.6l-0.1,6.2c0.4-0.7,1-1,1.8-1c1.2,0,2.2,0.8,2.2,1.9c0,0.8-0.5,1.8-1.7,2.7l-2.8,2.1V180.6z M46.9,187.5
		c-0.1,0.8-0.1,1.4-0.1,1.9c0,1,0,1.6,0.1,2c1-0.7,2.4-2.6,2.4-3.7c0-0.6-0.5-1.1-1.1-1.1C47.6,186.7,47.2,186.9,46.9,187.5z"/>
</g>
<g>
	<path d="M110.2,197.5c-3.2,0-6.1-2.3-6.1-5.1c0-2.4,1.7-5,5.1-7.9c-0.2-0.9-0.3-1.8-0.3-2.7c0-2.6,0.9-5.1,2.4-6.3
		c1.4,1.9,2,3.7,2,5.3c0,2.2-1,4.2-3.2,6.1l0.7,3.1c0.4,0,0.6,0,0.6,0c2,0,3.6,1.5,3.6,3.5c0,1.4-1.1,2.8-2.7,3.6
		c0-0.1,0.6,2.8,0.6,3.3c0,1.9-1.7,3.2-3.7,3.2c-1.5,0-2.7-1-2.7-2.5c0-1.1,0.7-1.9,1.8-1.9c1,0,1.7,1,1.7,1.9c0,1-0.9,1.7-2,1.8
		c0.4,0.2,0.9,0.3,1.4,0.3c1.6,0,3.1-1.2,3.1-2.7c0-0.1,0-0.3,0-0.5l-0.6-2.8C111.4,197.4,110.9,197.5,110.2,197.5z M108.5,193.6
		c0,0.8,0.4,1.4,1.2,1.9c-1.3-0.2-2.2-1.1-2.2-2.3c0-1.5,1.3-2.8,2.9-3.1l-0.6-3c-2.8,2.1-4.3,4.1-4.3,6.1c0,2.2,2.1,4,4.5,4
		c0.7,0,1.3-0.1,1.8-0.4l-1.1-5.1C109.5,191.8,108.5,192.5,108.5,193.6z M111.6,177.5c-1.2,0-2.2,2.8-2.2,5.3c0,0.5,0,1,0.1,1.4
		c2-1.8,3-3.4,3-4.8c0-0.7-0.3-1.3-0.7-1.8C111.8,177.6,111.7,177.5,111.6,177.5z M113.6,194c0-1.2-0.9-2.4-2.2-2.4c0,0-0.2,0-0.4,0
		l1.1,5C113.1,195.8,113.6,194.9,113.6,194z"/>
</g>
<polygon fill-rule="evenodd" clip-rule="evenodd" points="59.5,205 91.9,200.1 91.9,197.6 59.5,202.5 "/>
<polygon fill-rule="evenodd" clip-rule="evenodd" points="59.5,208.7 91.9,203.8 91.9,201.3 59.5,206.3 "/>
<polygon fill-rule="evenodd" clip-rule="evenodd" points="124.7,190.1 157.3,185.2 157.3,182.7 124.7,187.7 "/>
<polygon fill-rule="evenodd" clip-rule="evenodd" points="124.7,186.4 157.3,181.5 157.3,179 124.7,183.9 "/>
<g>
	<path d="M208.9,190.9c2.2-2,3.6-4.6,3.6-6.9c0-1.9-1.1-3.3-2.8-3.3c-1.2,0-2.5,1-2.5,2.1c0,0.2,0,0.2,0.1,0.2c0,0,0.4-0.5,1-0.5
		c0.7,0,1.2,0.6,1.2,1.3c0,0.9-0.6,1.7-1.6,1.7c-0.9,0-1.5-1-1.5-2.1c0-1.8,1.7-3.1,3.6-3.1c3.5,0,4.4,2.4,4.4,4.4
		c0,1.2-0.3,2.2-1.5,4c-1.4,2.3-4.8,4-6,4c-0.3,0-0.5-0.1-0.5-0.3C207.5,191.8,208.3,191.4,208.9,190.9z M216.4,181.3
		c0.4,0,0.7,0.3,0.7,0.7c0,0.4-0.3,0.7-0.7,0.7s-0.7-0.3-0.7-0.7C215.6,181.7,216,181.3,216.4,181.3z M216.4,185
		c0.4,0,0.7,0.3,0.7,0.7s-0.3,0.7-0.7,0.7s-0.7-0.3-0.7-0.7S216,185,216.4,185z"/>
</g>
<polygon fill-rule="evenodd" clip-rule="evenodd" points="168,180.2 200.5,185.2 200.5,182.7 168,177.7 "/>
<polygon fill-rule="evenodd" clip-rule="evenodd" points="168,176.5 200.5,181.5 200.5,179 168,174 "/>
<polygon fill-rule="evenodd" clip-rule="evenodd" points="218.5,195.1 250.9,200.1 250.9,197.6 218.5,192.6 "/>
<polygon fill-rule="evenodd" clip-rule="evenodd" points="218.5,198.8 250.9,203.8 250.9,201.3 218.5,196.3 "/>
<g>
	<path d="M359,197.5c-3.2,0-6.1-2.3-6.1-5.1c0-2.4,1.7-5,5.1-7.9c-0.2-0.9-0.3-1.8-0.3-2.7c0-2.6,0.9-5.1,2.4-6.3
		c1.4,1.9,2,3.7,2,5.3c0,2.2-1,4.2-3.2,6.1l0.7,3.1c0.4,0,0.6,0,0.6,0c2,0,3.6,1.5,3.6,3.5c0,1.4-1.1,2.8-2.7,3.6
		c0-0.1,0.6,2.8,0.6,3.3c0,1.9-1.7,3.2-3.7,3.2c-1.5,0-2.7-1-2.7-2.5c0-1.1,0.7-1.9,1.8-1.9c1,0,1.7,1,1.7,1.9c0,1-0.9,1.7-2,1.8
		c0.4,0.2,0.9,0.3,1.4,0.3c1.6,0,3.1-1.2,3.1-2.7c0-0.1,0-0.3,0-0.5l-0.6-2.8C360.2,197.4,359.7,197.5,359,197.5z M357.3,193.6
		c0,0.8,0.4,1.4,1.2,1.9c-1.3-0.2-2.2-1.1-2.2-2.3c0-1.5,1.3-2.8,2.9-3.1l-0.6-3c-2.8,2.1-4.3,4.1-4.3,6.1c0,2.2,2.1,4,4.5,4
		c0.7,0,1.3-0.1,1.8-0.4l-1.1-5.1C358.3,191.8,357.3,192.5,357.3,193.6z M360.4,177.5c-1.2,0-2.2,2.8-2.2,5.3c0,0.5,0,1,0.1,1.4
		c2-1.8,3-3.4,3-4.8c0-0.7-0.3-1.3-0.7-1.8C360.6,177.6,360.5,177.5,360.4,177.5z M362.4,194c0-1.2-0.9-2.4-2.2-2.4c0,0-0.2,0-0.4,0
		l1.1,5C361.9,195.8,362.4,194.9,362.4,194z"/>
</g>
<polygon fill-rule="evenodd" clip-rule="evenodd" points="308.1,200.1 340.7,195.1 340.7,192.6 308.1,197.6 "/>
<polygon fill-rule="evenodd" clip-rule="evenodd" points="308.1,203.8 340.7,198.8 340.7,196.3 308.1,201.3 "/>
<polygon fill-rule="evenodd" clip-rule="evenodd" points="371.7,185.2 404.1,180.2 404.1,177.7 371.7,182.7 "/>
<polygon fill-rule="evenodd" clip-rule="evenodd" points="371.7,181.5 404.1,176.5 404.1,174 371.7,179 "/>
<g>
	<path d="M457.6,190.9c2.2-2,3.6-4.6,3.6-6.9c0-1.9-1.1-3.3-2.8-3.3c-1.2,0-2.5,1-2.5,2.1c0,0.2,0,0.2,0.1,0.2c0,0,0.4-0.5,1-0.5
		c0.7,0,1.2,0.6,1.2,1.3c0,0.9-0.6,1.7-1.6,1.7s-1.5-1-1.5-2.1c0-1.8,1.7-3.1,3.6-3.1c3.5,0,4.4,2.4,4.4,4.4c0,1.2-0.3,2.2-1.5,4
		c-1.4,2.3-4.8,4-6,4c-0.3,0-0.5-0.1-0.5-0.3C456.1,191.8,457,191.4,457.6,190.9z M465,181.3c0.4,0,0.7,0.3,0.7,0.7
		c0,0.4-0.3,0.7-0.7,0.7c-0.4,0-0.7-0.3-0.7-0.7C464.3,181.7,464.6,181.3,465,181.3z M465,185c0.4,0,0.7,0.3,0.7,0.7
		s-0.3,0.7-0.7,0.7c-0.4,0-0.7-0.3-0.7-0.7S464.6,185,465,185z"/>
</g>
<polygon fill-rule="evenodd" clip-rule="evenodd" points="415.8,175.3 449.2,180.2 449.2,177.7 415.8,172.8 "/>
<polygon fill-rule="evenodd" clip-rule="evenodd" points="415.8,171.5 449.2,176.5 449.2,174 415.8,169.1 "/>
<polygon fill-rule="evenodd" clip-rule="evenodd" points="469,195.1 501.6,200.1 501.6,197.6 469,192.6 "/>
<polygon fill-rule="evenodd" clip-rule="evenodd" points="469,198.8 501.6,203.8 501.6,201.3 469,196.3 "/>
<rect x="57.4" y="34.1" width="10.5" height="0.8"/>
<rect x="57.4" y="39.1" width="10.5" height="0.8"/>
<rect x="57.4" y="44.1" width="10.5" height="0.8"/>
<rect x="65.7" y="19.8" width="0.5" height="26.4"/>
<g>
	<path d="M59.3,47.8c0-1.8,2.5-3.5,4.5-3.5c1.3,0,2.3,0.7,2.3,1.7c0,1.7-2.5,3.5-4.6,3.5C60.3,49.5,59.3,48.9,59.3,47.8z"/>
</g>
<rect x="69.8" y="34.1" width="10.5" height="0.8"/>
<rect x="69.8" y="39.1" width="10.5" height="0.8"/>
<rect x="78.1" y="18.2" width="0.5" height="22.9"/>
<g>
	<path d="M71.7,42.8c0-1.8,2.5-3.5,4.5-3.5c1.3,0,2.3,0.7,2.3,1.7c0,1.7-2.5,3.5-4.6,3.5C72.7,44.5,71.7,43.9,71.7,42.8z"/>
</g>
<rect x="82.4" y="34.1" width="10.5" height="0.8"/>
<rect x="90.7" y="16.5" width="0.5" height="19.7"/>
<g>
	<path d="M84.3,37.9c0-1.8,2.5-3.5,4.5-3.5c1.3,0,2.3,0.7,2.3,1.7c0,1.7-2.5,3.5-4.6,3.5C85.2,39.6,84.3,38.9,84.3,37.9z"/>
</g>
<rect x="103.1" y="14.8" width="0.5" height="16.4"/>
<g>
	<path d="M96.7,32.9c0-1.8,2.5-3.5,4.5-3.5c1.3,0,2.3,0.7,2.3,1.7c0,1.7-2.5,3.5-4.6,3.5C97.6,34.6,96.7,34,96.7,32.9z"/>
</g>
<rect x="115.5" y="4.9" width="0.5" height="23.9"/>
<g>
	<path d="M109.1,30.4c0-1.8,2.5-3.5,4.5-3.5c1.3,0,2.3,0.7,2.3,1.7c0,1.7-2.5,3.5-4.6,3.5C110,32.1,109.1,31.5,109.1,30.4z"/>
</g>
<rect x="127.9" y="3.4" width="0.5" height="20.5"/>
<g>
	<path d="M121.5,25.4c0-1.8,2.5-3.5,4.5-3.5c1.3,0,2.3,0.7,2.3,1.7c0,1.7-2.5,3.5-4.6,3.5C122.4,27.2,121.5,26.5,121.5,25.4z"/>
</g>
<rect x="140.5" y="1.7" width="0.5" height="17.2"/>
<g>
	<path d="M134,20.5c0-1.8,2.5-3.5,4.5-3.5c1.3,0,2.3,0.7,2.3,1.7c0,1.7-2.5,3.5-4.6,3.5C135,22.2,134,21.6,134,20.5z"/>
</g>
<rect x="152.9" y="0" width="0.5" height="14"/>
<g>
	<path d="M146.4,15.5c0-1.8,2.5-3.5,4.5-3.5c1.3,0,2.3,0.7,2.3,1.7c0,1.7-2.5,3.5-4.6,3.5C147.4,17.3,146.4,16.6,146.4,15.5z"/>
</g>
<rect x="158.7" y="13" width="0.5" height="21.4"/>
<g>
	<path d="M158.8,13c0-1.8,2.5-3.5,4.5-3.5c1.3,0,2.3,0.7,2.3,1.7c0,1.7-2.5,3.5-4.6,3.5C159.8,14.8,158.8,14.1,158.8,13z"/>
</g>
<rect x="171.1" y="15.5" width="0.5" height="20.5"/>
<g>
	<path d="M171.2,15.5c0-1.8,2.5-3.5,4.5-3.5c1.3,0,2.3,0.7,2.3,1.7c0,1.7-2.5,3.5-4.6,3.5C172.2,17.3,171.2,16.6,171.2,15.5z"/>
</g>
<rect x="183.7" y="20.4" width="0.5" height="17.2"/>
<g>
	<path d="M183.8,20.5c0-1.8,2.5-3.5,4.5-3.5c1.3,0,2.3,0.7,2.3,1.7c0,1.7-2.5,3.5-4.6,3.5C184.8,22.2,183.8,21.6,183.8,20.5z"/>
</g>
<rect x="196.1" y="25.4" width="0.5" height="14"/>
<g>
	<path d="M196.2,25.4c0-1.8,2.5-3.5,4.5-3.5c1.3,0,2.3,0.7,2.3,1.7c0,1.7-2.5,3.5-4.6,3.5C197.2,27.2,196.2,26.5,196.2,25.4z"/>
</g>
<rect x="215" y="14.8" width="0.5" height="14"/>
<g>
	<path d="M208.6,30.4c0-1.8,2.5-3.5,4.5-3.5c1.3,0,2.3,0.7,2.3,1.7c0,1.7-2.5,3.5-4.6,3.5C209.6,32.1,208.6,31.5,208.6,30.4z"/>
</g>
<rect x="227.4" y="16.4" width="0.5" height="14.9"/>
<g>
	<path d="M221,32.9c0-1.8,2.5-3.5,4.5-3.5c1.3,0,2.3,0.7,2.3,1.7c0,1.7-2.5,3.5-4.6,3.5C222,34.6,221,34,221,32.9z"/>
</g>
<rect x="231.7" y="34.1" width="10.5" height="0.8"/>
<rect x="240" y="18.1" width="0.5" height="18.1"/>
<g>
	<path d="M233.5,37.9c0-1.8,2.5-3.5,4.5-3.5c1.3,0,2.3,0.7,2.3,1.7c0,1.7-2.5,3.5-4.6,3.5C234.5,39.6,233.5,38.9,233.5,37.9z"/>
</g>
<rect x="244.1" y="34.1" width="10.5" height="0.8"/>
<rect x="244.1" y="39.1" width="10.5" height="0.8"/>
<rect x="252.4" y="19.8" width="0.5" height="21.4"/>
<g>
	<path d="M245.9,42.8c0-1.8,2.5-3.5,4.5-3.5c1.3,0,2.3,0.7,2.3,1.7c0,1.7-2.5,3.5-4.6,3.5C246.9,44.5,245.9,43.9,245.9,42.8z"/>
</g>
<rect x="256.5" y="34.1" width="10.7" height="0.8"/>
<rect x="256.5" y="39.1" width="10.7" height="0.8"/>
<rect x="256.5" y="44.1" width="10.7" height="0.8"/>
<rect x="264.9" y="19.6" width="0.5" height="26.5"/>
<g>
	<path d="M262.6,44.2c1.6,0,2.7,0.7,2.7,2c0,1.9-2.3,3.4-4.5,3.4c-1.3,0-2.4-0.7-2.4-1.8C258.3,46,260.6,44.2,262.6,44.2z
		 M258.8,48.1c0,0.6,0.4,0.9,1.1,0.9c1.4,0,4.9-2.1,4.9-3.3c0-0.6-0.4-0.9-1.1-0.9C262.5,44.8,258.8,46.8,258.8,48.1z"/>
</g>
<rect x="307.9" y="34.1" width="10.5" height="0.8"/>
<rect x="307.9" y="39.1" width="10.5" height="0.8"/>
<rect x="316.2" y="19.8" width="0.5" height="21.4"/>
<g>
	<path d="M309.8,42.8c0-1.8,2.5-3.5,4.5-3.5c1.3,0,2.3,0.7,2.3,1.7c0,1.7-2.5,3.5-4.6,3.5C310.8,44.5,309.8,43.9,309.8,42.8z"/>
</g>
<rect x="320.4" y="34.1" width="10.5" height="0.8"/>
<rect x="328.6" y="18.2" width="0.5" height="18"/>
<g>
	<path d="M322.2,37.9c0-1.8,2.5-3.5,4.5-3.5c1.3,0,2.3,0.7,2.3,1.7c0,1.7-2.5,3.5-4.6,3.5C323.2,39.6,322.2,38.9,322.2,37.9z"/>
</g>
<rect x="341.2" y="16.5" width="0.5" height="14.7"/>
<g>
	<path d="M334.8,32.9c0-1.8,2.5-3.5,4.5-3.5c1.3,0,2.3,0.7,2.3,1.7c0,1.7-2.5,3.5-4.6,3.5C335.7,34.6,334.8,34,334.8,32.9z"/>
</g>
<rect x="353.6" y="14.8" width="0.5" height="14"/>
<g>
	<path d="M347.2,30.4c0-1.8,2.5-3.5,4.5-3.5c1.3,0,2.3,0.7,2.3,1.7c0,1.7-2.5,3.5-4.6,3.5C348.1,32.1,347.2,31.5,347.2,30.4z"/>
</g>
<rect x="359.5" y="25.4" width="0.5" height="14"/>
<g>
	<path d="M359.6,25.4c0-1.8,2.5-3.5,4.5-3.5c1.3,0,2.3,0.7,2.3,1.7c0,1.7-2.5,3.5-4.6,3.5C360.5,27.2,359.6,26.5,359.6,25.4z"/>
</g>
<rect x="371.9" y="20.4" width="0.5" height="17.4"/>
<g>
	<path d="M372,20.5c0-1.8,2.5-3.5,4.5-3.5c1.3,0,2.3,0.7,2.3,1.7c0,1.7-2.5,3.5-4.6,3.5C372.9,22.2,372,21.6,372,20.5z"/>
</g>
<rect x="384.4" y="15.5" width="0.5" height="20.6"/>
<g>
	<path d="M384.5,15.5c0-1.8,2.5-3.5,4.5-3.5c1.3,0,2.3,0.7,2.3,1.7c0,1.7-2.5,3.5-4.6,3.5C385.5,17.3,384.5,16.6,384.5,15.5z"/>
</g>
<rect x="396.9" y="13" width="0.5" height="21.4"/>
<g>
	<path d="M396.9,13c0-1.8,2.5-3.5,4.5-3.5c1.3,0,2.3,0.7,2.3,1.7c0,1.7-2.5,3.5-4.6,3.5C397.9,14.8,396.9,14.1,396.9,13z"/>
</g>
<rect x="409.3" y="8" width="0.5" height="21.4"/>
<g>
	<path d="M409.3,8.1c0-1.8,2.5-3.5,4.5-3.5c1.3,0,2.3,0.7,2.3,1.7c0,1.7-2.5,3.5-4.6,3.5C410.3,9.8,409.3,9.2,409.3,8.1z"/>
</g>
<rect x="421.7" y="13" width="0.5" height="18"/>
<g>
	<path d="M421.7,13c0-1.8,2.5-3.5,4.5-3.5c1.3,0,2.3,0.7,2.3,1.7c0,1.7-2.5,3.5-4.6,3.5C422.7,14.8,421.7,14.1,421.7,13z"/>
</g>
<rect x="434.2" y="15.5" width="0.5" height="17.2"/>
<g>
	<path d="M434.3,15.5c0-1.8,2.5-3.5,4.5-3.5c1.3,0,2.3,0.7,2.3,1.7c0,1.7-2.5,3.5-4.6,3.5C435.3,17.3,434.3,16.6,434.3,15.5z"/>
</g>
<rect x="446.6" y="20.4" width="0.5" height="14"/>
<g>
	<path d="M446.7,20.5c0-1.8,2.5-3.5,4.5-3.5c1.3,0,2.3,0.7,2.3,1.7c0,1.7-2.5,3.5-4.6,3.5C447.7,22.2,446.7,21.6,446.7,20.5z"/>
</g>
<rect x="465.5" y="9.9" width="0.5" height="14"/>
<g>
	<path d="M459.1,25.4c0-1.8,2.5-3.5,4.5-3.5c1.3,0,2.3,0.7,2.3,1.7c0,1.7-2.5,3.5-4.6,3.5C460.1,27.2,459.1,26.5,459.1,25.4z"/>
</g>
<rect x="477.9" y="11.4" width="0.5" height="17.4"/>
<g>
	<path d="M471.5,30.4c0-1.8,2.5-3.5,4.5-3.5c1.3,0,2.3,0.7,2.3,1.7c0,1.7-2.5,3.5-4.6,3.5C472.5,32.1,471.5,31.5,471.5,30.4z"/>
</g>
<rect x="490.5" y="13.1" width="0.5" height="18.1"/>
<g>
	<path d="M484,32.9c0-1.8,2.5-3.5,4.5-3.5c1.3,0,2.3,0.7,2.3,1.7c0,1.7-2.5,3.5-4.6,3.5C485,34.6,484,34,484,32.9z"/>
</g>
<rect x="494.6" y="34.1" width="10.5" height="0.8"/>
<rect x="502.9" y="14.8" width="0.5" height="21.4"/>
<g>
	<path d="M496.4,37.9c0-1.8,2.5-3.5,4.5-3.5c1.3,0,2.3,0.7,2.3,1.7c0,1.7-2.5,3.5-4.6,3.5C497.4,39.6,496.4,38.9,496.4,37.9z"/>
</g>
<rect x="507" y="34.1" width="10.7" height="0.8"/>
<rect x="507" y="39.1" width="10.7" height="0.8"/>
<rect x="515.4" y="19.6" width="0.5" height="21.5"/>
<g>
	<path d="M513.1,39.3c1.6,0,2.7,0.7,2.7,2c0,1.9-2.3,3.4-4.5,3.4c-1.3,0-2.4-0.7-2.4-1.8C508.8,41,511.1,39.3,513.1,39.3z
		 M509.3,43.1c0,0.6,0.4,0.9,1.1,0.9c1.4,0,4.9-2.1,4.9-3.3c0-0.6-0.4-0.9-1.1-0.9C513,39.9,509.3,41.9,509.3,43.1z"/>
</g>
<rect x="57.4" y="81.3" width="10.5" height="0.8"/>
<rect x="65.7" y="57" width="0.5" height="23.9"/>
<g>
	<path d="M59.3,82.5c0-1.8,2.5-3.5,4.5-3.5c1.3,0,2.3,0.7,2.3,1.7c0,1.7-2.5,3.5-4.6,3.5C60.3,84.2,59.3,83.6,59.3,82.5z"/>
</g>
<rect x="78.1" y="55.4" width="0.5" height="20.5"/>
<g>
	<path d="M71.7,77.5c0-1.8,2.5-3.5,4.5-3.5c1.3,0,2.3,0.7,2.3,1.7c0,1.7-2.5,3.5-4.6,3.5C72.7,79.3,71.7,78.6,71.7,77.5z"/>
</g>
<rect x="90.7" y="53.7" width="0.5" height="17.2"/>
<g>
	<path d="M84.3,72.6c0-1.8,2.5-3.5,4.5-3.5c1.3,0,2.3,0.7,2.3,1.7c0,1.7-2.5,3.5-4.6,3.5C85.2,74.3,84.3,73.7,84.3,72.6z"/>
</g>
<rect x="103.1" y="52" width="0.5" height="14"/>
<g>
	<path d="M96.7,67.6c0-1.8,2.5-3.5,4.5-3.5c1.3,0,2.3,0.7,2.3,1.7c0,1.7-2.5,3.5-4.6,3.5C97.6,69.3,96.7,68.7,96.7,67.6z"/>
</g>
<rect x="109" y="65.1" width="0.5" height="16.4"/>
<g>
	<path d="M109.1,65.1c0-1.8,2.5-3.5,4.5-3.5c1.3,0,2.3,0.7,2.3,1.7c0,1.7-2.5,3.5-4.6,3.5C110,66.9,109.1,66.2,109.1,65.1z"/>
</g>
<rect x="121.4" y="60.1" width="0.5" height="19.8"/>
<g>
	<path d="M121.5,60.2c0-1.8,2.5-3.5,4.5-3.5c1.3,0,2.3,0.7,2.3,1.7c0,1.7-2.5,3.5-4.6,3.5C122.4,61.9,121.5,61.3,121.5,60.2z"/>
</g>
<rect x="133.9" y="55.1" width="0.5" height="23.1"/>
<g>
	<path d="M134,55.2c0-1.8,2.5-3.5,4.5-3.5c1.3,0,2.3,0.7,2.3,1.7c0,1.7-2.5,3.5-4.6,3.5C135,56.9,134,56.3,134,55.2z"/>
</g>
<rect x="144.6" y="51.5" width="10.5" height="0.8"/>
<rect x="146.3" y="50.2" width="0.5" height="26.4"/>
<g>
	<path d="M146.4,50.3c0-1.8,2.5-3.5,4.5-3.5c1.3,0,2.3,0.7,2.3,1.7c0,1.7-2.5,3.5-4.6,3.5C147.4,52,146.4,51.3,146.4,50.3z"/>
</g>
<rect x="157" y="51.5" width="10.5" height="0.8"/>
<rect x="157" y="46.5" width="10.5" height="0.8"/>
<rect x="158.7" y="47.7" width="0.5" height="23.9"/>
<g>
	<path d="M158.8,47.8c0-1.8,2.5-3.5,4.5-3.5c1.3,0,2.3,0.7,2.3,1.7c0,1.7-2.5,3.5-4.6,3.5C159.8,49.5,158.8,48.9,158.8,47.8z"/>
</g>
<rect x="169.4" y="51.5" width="10.5" height="0.8"/>
<rect x="171.1" y="50.2" width="0.5" height="22.9"/>
<g>
	<path d="M171.2,50.3c0-1.8,2.5-3.5,4.5-3.5c1.3,0,2.3,0.7,2.3,1.7c0,1.7-2.5,3.5-4.6,3.5C172.2,52,171.2,51.3,171.2,50.3z"/>
</g>
<rect x="183.7" y="55.1" width="0.5" height="19.7"/>
<g>
	<path d="M183.8,55.2c0-1.8,2.5-3.5,4.5-3.5c1.3,0,2.3,0.7,2.3,1.7c0,1.7-2.5,3.5-4.6,3.5C184.8,56.9,183.8,56.3,183.8,55.2z"/>
</g>
<rect x="196.1" y="60.1" width="0.5" height="16.4"/>
<g>
	<path d="M196.2,60.2c0-1.8,2.5-3.5,4.5-3.5c1.3,0,2.3,0.7,2.3,1.7c0,1.7-2.5,3.5-4.6,3.5C197.2,61.9,196.2,61.3,196.2,60.2z"/>
</g>
<rect x="215" y="47.1" width="0.5" height="16.4"/>
<g>
	<path d="M208.6,65.1c0-1.8,2.5-3.5,4.5-3.5c1.3,0,2.3,0.7,2.3,1.7c0,1.7-2.5,3.5-4.6,3.5C209.6,66.9,208.6,66.2,208.6,65.1z"/>
</g>
<rect x="227.4" y="48.6" width="0.5" height="17.4"/>
<g>
	<path d="M221,67.6c0-1.8,2.5-3.5,4.5-3.5c1.3,0,2.3,0.7,2.3,1.7c0,1.7-2.5,3.5-4.6,3.5C222,69.3,221,68.7,221,67.6z"/>
</g>
<rect x="240" y="50.3" width="0.5" height="20.6"/>
<g>
	<path d="M233.5,72.6c0-1.8,2.5-3.5,4.5-3.5c1.3,0,2.3,0.7,2.3,1.7c0,1.7-2.5,3.5-4.6,3.5C234.5,74.3,233.5,73.7,233.5,72.6z"/>
</g>
<rect x="252.4" y="52" width="0.5" height="23.9"/>
<g>
	<path d="M245.9,77.5c0-1.8,2.5-3.5,4.5-3.5c1.3,0,2.3,0.7,2.3,1.7c0,1.7-2.5,3.5-4.6,3.5C246.9,79.3,245.9,78.6,245.9,77.5z"/>
</g>
<rect x="256.5" y="81.3" width="10.7" height="0.8"/>
<rect x="264.9" y="64.3" width="0.5" height="16.6"/>
<g>
	<path d="M262.6,78.9c1.6,0,2.7,0.7,2.7,2c0,1.9-2.3,3.4-4.5,3.4c-1.3,0-2.4-0.7-2.4-1.8C258.3,80.7,260.6,78.9,262.6,78.9z
		 M258.8,82.8c0,0.6,0.4,0.9,1.1,0.9c1.4,0,4.9-2.1,4.9-3.3c0-0.6-0.4-0.9-1.1-0.9C262.5,79.5,258.8,81.6,258.8,82.8z"/>
</g>
<rect x="316.2" y="52" width="0.5" height="23.9"/>
<g>
	<path d="M309.8,77.5c0-1.8,2.5-3.5,4.5-3.5c1.3,0,2.3,0.7,2.3,1.7c0,1.7-2.5,3.5-4.6,3.5C310.8,79.3,309.8,78.6,309.8,77.5z"/>
</g>
<rect x="328.6" y="50.5" width="0.5" height="20.5"/>
<g>
	<path d="M322.2,72.6c0-1.8,2.5-3.5,4.5-3.5c1.3,0,2.3,0.7,2.3,1.7c0,1.7-2.5,3.5-4.6,3.5C323.2,74.3,322.2,73.7,322.2,72.6z"/>
</g>
<rect x="341.2" y="48.8" width="0.5" height="17.2"/>
<g>
	<path d="M334.8,67.6c0-1.8,2.5-3.5,4.5-3.5c1.3,0,2.3,0.7,2.3,1.7c0,1.7-2.5,3.5-4.6,3.5C335.7,69.3,334.8,68.7,334.8,67.6z"/>
</g>
<rect x="353.6" y="47.1" width="0.5" height="16.4"/>
<g>
	<path d="M347.2,65.1c0-1.8,2.5-3.5,4.5-3.5c1.3,0,2.3,0.7,2.3,1.7c0,1.7-2.5,3.5-4.6,3.5C348.1,66.9,347.2,66.2,347.2,65.1z"/>
</g>
<rect x="359.5" y="60.1" width="0.5" height="16.4"/>
<g>
	<path d="M359.6,60.2c0-1.8,2.5-3.5,4.5-3.5c1.3,0,2.3,0.7,2.3,1.7c0,1.7-2.5,3.5-4.6,3.5C360.5,61.9,359.6,61.3,359.6,60.2z"/>
</g>
<rect x="371.9" y="55.1" width="0.5" height="19.8"/>
<g>
	<path d="M372,55.2c0-1.8,2.5-3.5,4.5-3.5c1.3,0,2.3,0.7,2.3,1.7c0,1.7-2.5,3.5-4.6,3.5C372.9,56.9,372,56.3,372,55.2z"/>
</g>
<rect x="382.7" y="51.5" width="10.5" height="0.8"/>
<rect x="384.4" y="50.2" width="0.5" height="23.1"/>
<g>
	<path d="M384.5,50.3c0-1.8,2.5-3.5,4.5-3.5c1.3,0,2.3,0.7,2.3,1.7c0,1.7-2.5,3.5-4.6,3.5C385.5,52,384.5,51.3,384.5,50.3z"/>
</g>
<rect x="395.1" y="51.5" width="10.5" height="0.8"/>
<rect x="395.1" y="46.5" width="10.5" height="0.8"/>
<rect x="396.9" y="47.7" width="0.5" height="23.9"/>
<g>
	<path d="M396.9,47.8c0-1.8,2.5-3.5,4.5-3.5c1.3,0,2.3,0.7,2.3,1.7c0,1.7-2.5,3.5-4.6,3.5C397.9,49.5,396.9,48.9,396.9,47.8z"/>
</g>
<rect x="407.5" y="51.5" width="10.5" height="0.8"/>
<rect x="407.5" y="46.5" width="10.5" height="0.8"/>
<rect x="407.5" y="41.6" width="10.5" height="0.8"/>
<rect x="409.3" y="42.7" width="0.5" height="23.9"/>
<g>
	<path d="M409.3,42.8c0-1.8,2.5-3.5,4.5-3.5c1.3,0,2.3,0.7,2.3,1.7c0,1.7-2.5,3.5-4.6,3.5C410.3,44.5,409.3,43.9,409.3,42.8z"/>
</g>
<rect x="419.9" y="51.5" width="10.5" height="0.8"/>
<rect x="419.9" y="46.5" width="10.5" height="0.8"/>
<rect x="421.7" y="47.7" width="0.5" height="20.5"/>
<g>
	<path d="M421.7,47.8c0-1.8,2.5-3.5,4.5-3.5c1.3,0,2.3,0.7,2.3,1.7c0,1.7-2.5,3.5-4.6,3.5C422.7,49.5,421.7,48.9,421.7,47.8z"/>
</g>
<rect x="432.4" y="51.5" width="10.5" height="0.8"/>
<rect x="434.2" y="50.2" width="0.5" height="19.7"/>
<g>
	<path d="M434.3,50.3c0-1.8,2.5-3.5,4.5-3.5c1.3,0,2.3,0.7,2.3,1.7c0,1.7-2.5,3.5-4.6,3.5C435.3,52,434.3,51.3,434.3,50.3z"/>
</g>
<rect x="446.6" y="55.1" width="0.5" height="16.4"/>
<g>
	<path d="M446.7,55.2c0-1.8,2.5-3.5,4.5-3.5c1.3,0,2.3,0.7,2.3,1.7c0,1.7-2.5,3.5-4.6,3.5C447.7,56.9,446.7,56.3,446.7,55.2z"/>
</g>
<rect x="459" y="60.1" width="0.5" height="21.4"/>
<g>
	<path d="M459.1,60.2c0-1.8,2.5-3.5,4.5-3.5c1.3,0,2.3,0.7,2.3,1.7c0,1.7-2.5,3.5-4.6,3.5C460.1,61.9,459.1,61.3,459.1,60.2z"/>
</g>
<rect x="471.4" y="65.1" width="0.5" height="18"/>
<g>
	<path d="M471.5,65.1c0-1.8,2.5-3.5,4.5-3.5c1.3,0,2.3,0.7,2.3,1.7c0,1.7-2.5,3.5-4.6,3.5C472.5,66.9,471.5,66.2,471.5,65.1z"/>
</g>
<rect x="484" y="67.5" width="0.5" height="17.2"/>
<g>
	<path d="M484,67.6c0-1.8,2.5-3.5,4.5-3.5c1.3,0,2.3,0.7,2.3,1.7c0,1.7-2.5,3.5-4.6,3.5C485,69.3,484,68.7,484,67.6z"/>
</g>
<rect x="496.4" y="72.5" width="0.5" height="14"/>
<g>
	<path d="M496.4,72.6c0-1.8,2.5-3.5,4.5-3.5c1.3,0,2.3,0.7,2.3,1.7c0,1.7-2.5,3.5-4.6,3.5C497.4,74.3,496.4,73.7,496.4,72.6z"/>
</g>
<rect x="515.4" y="59.3" width="0.5" height="16.6"/>
<g>
	<path d="M513.1,74c1.6,0,2.7,0.7,2.7,2c0,1.9-2.3,3.4-4.5,3.4c-1.3,0-2.4-0.7-2.4-1.8C508.8,75.8,511.1,74,513.1,74z M509.3,77.8
		c0,0.6,0.4,0.9,1.1,0.9c1.4,0,4.9-2.1,4.9-3.3c0-0.6-0.4-0.9-1.1-0.9C513,74.6,509.3,76.6,509.3,77.8z"/>
</g>
<rect x="57.4" y="156.3" width="10.5" height="0.8"/>
<rect x="65.7" y="137" width="0.5" height="21.4"/>
<g>
	<path d="M59.3,160c0-1.8,2.5-3.5,4.5-3.5c1.3,0,2.3,0.7,2.3,1.7c0,1.7-2.5,3.5-4.6,3.5C60.3,161.7,59.3,161.1,59.3,160z"/>
</g>
<rect x="76.6" y="135.4" width="0.5" height="18"/>
<g>
	<path d="M70.2,155c0-1.8,2.5-3.5,4.5-3.5c1.3,0,2.3,0.7,2.3,1.7c0,1.7-2.5,3.5-4.6,3.5C71.1,156.8,70.2,156.1,70.2,155z"/>
</g>
<rect x="87.4" y="133.7" width="0.5" height="17.2"/>
<g>
	<path d="M81,152.6c0-1.8,2.5-3.5,4.5-3.5c1.3,0,2.3,0.7,2.3,1.7c0,1.7-2.5,3.5-4.6,3.5C82,154.3,81,153.6,81,152.6z"/>
</g>
<rect x="98.1" y="132" width="0.5" height="14"/>
<g>
	<path d="M91.7,147.6c0-1.8,2.5-3.5,4.5-3.5c1.3,0,2.3,0.7,2.3,1.7c0,1.7-2.5,3.5-4.6,3.5C92.7,149.3,91.7,148.7,91.7,147.6z"/>
</g>
<rect x="118" y="142.6" width="0.5" height="14"/>
<g>
	<path d="M118.1,142.6c0-1.8,2.5-3.5,4.5-3.5c1.3,0,2.3,0.7,2.3,1.7c0,1.7-2.5,3.5-4.6,3.5C119,144.4,118.1,143.7,118.1,142.6z"/>
</g>
<rect x="128.8" y="137.6" width="0.5" height="17.4"/>
<g>
	<path d="M128.9,137.7c0-1.8,2.5-3.5,4.5-3.5c1.3,0,2.3,0.7,2.3,1.7c0,1.7-2.5,3.5-4.6,3.5C129.9,139.4,128.9,138.8,128.9,137.7z"/>
</g>
<rect x="139.7" y="135.1" width="0.5" height="18.1"/>
<g>
	<path d="M139.8,135.2c0-1.8,2.5-3.5,4.5-3.5c1.3,0,2.3,0.7,2.3,1.7c0,1.7-2.5,3.5-4.6,3.5C140.7,136.9,139.8,136.3,139.8,135.2z"/>
</g>
<rect x="150.5" y="130.2" width="0.5" height="21.4"/>
<g>
	<path d="M150.6,130.2c0-1.8,2.5-3.5,4.5-3.5c1.3,0,2.3,0.7,2.3,1.7c0,1.7-2.5,3.5-4.6,3.5C151.6,132,150.6,131.3,150.6,130.2z"/>
</g>
<rect x="159.4" y="126.5" width="10.5" height="0.8"/>
<rect x="161.2" y="125.2" width="0.5" height="21.4"/>
<g>
	<path d="M161.3,125.3c0-1.8,2.5-3.5,4.5-3.5c1.3,0,2.3,0.7,2.3,1.7c0,1.7-2.5,3.5-4.6,3.5C162.3,127,161.3,126.4,161.3,125.3z"/>
</g>
<rect x="172.1" y="130.2" width="0.5" height="18"/>
<g>
	<path d="M172.2,130.2c0-1.8,2.5-3.5,4.5-3.5c1.3,0,2.3,0.7,2.3,1.7c0,1.7-2.5,3.5-4.6,3.5C173.1,132,172.2,131.3,172.2,130.2z"/>
</g>
<rect x="182.9" y="135.1" width="0.5" height="14.7"/>
<g>
	<path d="M183,135.2c0-1.8,2.5-3.5,4.5-3.5c1.3,0,2.3,0.7,2.3,1.7c0,1.7-2.5,3.5-4.6,3.5C184,136.9,183,136.3,183,135.2z"/>
</g>
<rect x="193.8" y="137.6" width="0.5" height="14"/>
<g>
	<path d="M193.9,137.7c0-1.8,2.5-3.5,4.5-3.5c1.3,0,2.3,0.7,2.3,1.7c0,1.7-2.5,3.5-4.6,3.5C194.8,139.4,193.9,138.8,193.9,137.7z"/>
</g>
<rect x="224.8" y="127.1" width="0.5" height="14"/>
<g>
	<path d="M218.4,142.6c0-1.8,2.5-3.5,4.5-3.5c1.3,0,2.3,0.7,2.3,1.7c0,1.7-2.5,3.5-4.6,3.5C219.3,144.4,218.4,143.7,218.4,142.6z"/>
</g>
<rect x="235.5" y="128.6" width="0.5" height="17.4"/>
<g>
	<path d="M229,147.6c0-1.8,2.5-3.5,4.5-3.5c1.3,0,2.3,0.7,2.3,1.7c0,1.7-2.5,3.5-4.6,3.5C230,149.3,229,148.7,229,147.6z"/>
</g>
<rect x="246.3" y="130.3" width="0.5" height="20.6"/>
<g>
	<path d="M239.9,152.6c0-1.8,2.5-3.5,4.5-3.5c1.3,0,2.3,0.7,2.3,1.7c0,1.7-2.5,3.5-4.6,3.5C240.9,154.3,239.9,153.6,239.9,152.6z"/>
</g>
<rect x="257.2" y="132" width="0.5" height="21.4"/>
<g>
	<path d="M250.7,155c0-1.8,2.5-3.5,4.5-3.5c1.3,0,2.3,0.7,2.3,1.7c0,1.7-2.5,3.5-4.6,3.5C251.7,156.8,250.7,156.1,250.7,155z"/>
</g>
<rect x="259.7" y="156.3" width="10.7" height="0.8"/>
<rect x="268.2" y="141.8" width="0.5" height="16.6"/>
<g>
	<path d="M265.9,156.4c1.6,0,2.7,0.7,2.7,2c0,1.9-2.3,3.4-4.5,3.4c-1.3,0-2.4-0.7-2.4-1.8C261.6,158.2,263.8,156.4,265.9,156.4z
		 M262.1,160.3c0,0.6,0.4,0.9,1.1,0.9c1.4,0,4.9-2.1,4.9-3.3c0-0.6-0.4-0.9-1.1-0.9C265.7,157,262.1,159.1,262.1,160.3z"/>
</g>
<rect x="314.4" y="132" width="0.5" height="21.4"/>
<g>
	<path d="M307.9,155c0-1.8,2.5-3.5,4.5-3.5c1.3,0,2.3,0.7,2.3,1.7c0,1.7-2.5,3.5-4.6,3.5C308.9,156.8,307.9,156.1,307.9,155z"/>
</g>
<rect x="325.2" y="130.5" width="0.5" height="20.5"/>
<g>
	<path d="M318.8,152.6c0-1.8,2.5-3.5,4.5-3.5c1.3,0,2.3,0.7,2.3,1.7c0,1.7-2.5,3.5-4.6,3.5C319.8,154.3,318.8,153.6,318.8,152.6z"/>
</g>
<rect x="336.1" y="128.8" width="0.5" height="17.2"/>
<g>
	<path d="M329.7,147.6c0-1.8,2.5-3.5,4.5-3.5c1.3,0,2.3,0.7,2.3,1.7c0,1.7-2.5,3.5-4.6,3.5C330.6,149.3,329.7,148.7,329.7,147.6z"/>
</g>
<rect x="346.9" y="127.1" width="0.5" height="14"/>
<g>
	<path d="M340.5,142.6c0-1.8,2.5-3.5,4.5-3.5c1.3,0,2.3,0.7,2.3,1.7c0,1.7-2.5,3.5-4.6,3.5C341.5,144.4,340.5,143.7,340.5,142.6z"/>
</g>
<rect x="364.9" y="137.6" width="0.5" height="14"/>
<g>
	<path d="M365,137.7c0-1.8,2.5-3.5,4.5-3.5c1.3,0,2.3,0.7,2.3,1.7c0,1.7-2.5,3.5-4.6,3.5C366,139.4,365,138.8,365,137.7z"/>
</g>
<rect x="375.6" y="135.1" width="0.5" height="14.9"/>
<g>
	<path d="M375.7,135.2c0-1.8,2.5-3.5,4.5-3.5c1.3,0,2.3,0.7,2.3,1.7c0,1.7-2.5,3.5-4.6,3.5C376.7,136.9,375.7,136.3,375.7,135.2z"/>
</g>
<rect x="386.5" y="130.2" width="0.5" height="18.1"/>
<g>
	<path d="M386.5,130.2c0-1.8,2.5-3.5,4.5-3.5c1.3,0,2.3,0.7,2.3,1.7c0,1.7-2.5,3.5-4.6,3.5C387.5,132,386.5,131.3,386.5,130.2z"/>
</g>
<rect x="395.5" y="126.5" width="10.5" height="0.8"/>
<rect x="397.3" y="125.2" width="0.5" height="21.4"/>
<g>
	<path d="M397.4,125.3c0-1.8,2.5-3.5,4.5-3.5c1.3,0,2.3,0.7,2.3,1.7c0,1.7-2.5,3.5-4.6,3.5C398.4,127,397.4,126.4,397.4,125.3z"/>
</g>
<rect x="407.3" y="126.5" width="10.5" height="0.8"/>
<rect x="407.3" y="121.6" width="10.5" height="0.8"/>
<rect x="409.1" y="120.2" width="0.5" height="26.4"/>
<g>
	<path d="M409.2,120.3c0-1.8,2.5-3.5,4.5-3.5c1.3,0,2.3,0.7,2.3,1.7c0,1.7-2.5,3.5-4.6,3.5C410.1,122,409.2,121.4,409.2,120.3z"/>
</g>
<rect x="419.1" y="126.5" width="10.5" height="0.8"/>
<rect x="420.9" y="125.2" width="0.5" height="23.1"/>
<g>
	<path d="M421,125.3c0-1.8,2.5-3.5,4.5-3.5c1.3,0,2.3,0.7,2.3,1.7c0,1.7-2.5,3.5-4.6,3.5C421.9,127,421,126.4,421,125.3z"/>
</g>
<rect x="431.7" y="130.2" width="0.5" height="19.7"/>
<g>
	<path d="M431.8,130.2c0-1.8,2.5-3.5,4.5-3.5c1.3,0,2.3,0.7,2.3,1.7c0,1.7-2.5,3.5-4.6,3.5C432.8,132,431.8,131.3,431.8,130.2z"/>
</g>
<rect x="442.4" y="135.1" width="0.5" height="16.4"/>
<g>
	<path d="M442.5,135.2c0-1.8,2.5-3.5,4.5-3.5c1.3,0,2.3,0.7,2.3,1.7c0,1.7-2.5,3.5-4.6,3.5C443.5,136.9,442.5,136.3,442.5,135.2z"/>
</g>
<rect x="475.3" y="122.1" width="0.5" height="14"/>
<g>
	<path d="M468.9,137.7c0-1.8,2.5-3.5,4.5-3.5c1.3,0,2.3,0.7,2.3,1.7c0,1.7-2.5,3.5-4.6,3.5C469.8,139.4,468.9,138.8,468.9,137.7z"/>
</g>
<rect x="486.1" y="123.6" width="0.5" height="17.4"/>
<g>
	<path d="M479.7,142.6c0-1.8,2.5-3.5,4.5-3.5c1.3,0,2.3,0.7,2.3,1.7c0,1.7-2.5,3.5-4.6,3.5C480.7,144.4,479.7,143.7,479.7,142.6z"/>
</g>
<rect x="497" y="125.4" width="0.5" height="20.6"/>
<g>
	<path d="M490.6,147.6c0-1.8,2.5-3.5,4.5-3.5c1.3,0,2.3,0.7,2.3,1.7c0,1.7-2.5,3.5-4.6,3.5C491.5,149.3,490.6,148.7,490.6,147.6z"/>
</g>
<rect x="507.8" y="127.1" width="0.5" height="23.9"/>
<g>
	<path d="M501.4,152.6c0-1.8,2.5-3.5,4.5-3.5c1.3,0,2.3,0.7,2.3,1.7c0,1.7-2.5,3.5-4.6,3.5C502.4,154.3,501.4,153.6,501.4,152.6z"/>
</g>
<rect x="518.7" y="136.8" width="0.5" height="16.6"/>
<g>
	<path d="M516.4,151.5c1.6,0,2.7,0.7,2.7,2c0,1.9-2.3,3.4-4.5,3.4c-1.3,0-2.4-0.7-2.4-1.8C512.1,153.3,514.3,151.5,516.4,151.5z
		 M512.6,155.3c0,0.6,0.4,0.9,1.1,0.9c1.4,0,4.9-2.1,4.9-3.3c0-0.6-0.4-0.9-1.1-0.9C516.2,152.1,512.6,154.1,512.6,155.3z"/>
</g>
<rect x="59.2" y="194.6" width="0.5" height="14"/>
<g>
	<path d="M59.3,194.7c0-1.8,2.5-3.5,4.5-3.5c1.3,0,2.3,0.7,2.3,1.7c0,1.7-2.5,3.5-4.6,3.5C60.3,196.4,59.3,195.8,59.3,194.7z"/>
</g>
<rect x="70.1" y="189.7" width="0.5" height="17.4"/>
<g>
	<path d="M70.2,189.8c0-1.8,2.5-3.5,4.5-3.5c1.3,0,2.3,0.7,2.3,1.7c0,1.7-2.5,3.5-4.6,3.5C71.1,191.5,70.2,190.9,70.2,189.8z"/>
</g>
<rect x="80.9" y="187.2" width="0.5" height="18.1"/>
<g>
	<path d="M81,187.3c0-1.8,2.5-3.5,4.5-3.5c1.3,0,2.3,0.7,2.3,1.7c0,1.7-2.5,3.5-4.6,3.5C82,189,81,188.4,81,187.3z"/>
</g>
<rect x="91.6" y="182.2" width="0.5" height="21.4"/>
<g>
	<path d="M91.7,182.3c0-1.8,2.5-3.5,4.5-3.5c1.3,0,2.3,0.7,2.3,1.7c0,1.7-2.5,3.5-4.6,3.5C92.7,184,91.7,183.4,91.7,182.3z"/>
</g>
<rect x="116.2" y="203.4" width="10.5" height="0.8"/>
<rect x="124.5" y="184.1" width="0.5" height="21.4"/>
<g>
	<path d="M118.1,207.1c0-1.8,2.5-3.5,4.5-3.5c1.3,0,2.3,0.7,2.3,1.7c0,1.7-2.5,3.5-4.6,3.5C119,208.8,118.1,208.2,118.1,207.1z"/>
</g>
<rect x="135.3" y="182.6" width="0.5" height="18"/>
<g>
	<path d="M128.9,202.2c0-1.8,2.5-3.5,4.5-3.5c1.3,0,2.3,0.7,2.3,1.7c0,1.7-2.5,3.5-4.6,3.5C129.9,203.9,128.9,203.3,128.9,202.2z"/>
</g>
<rect x="146.2" y="180.8" width="0.5" height="17.2"/>
<g>
	<path d="M139.8,199.7c0-1.8,2.5-3.5,4.5-3.5c1.3,0,2.3,0.7,2.3,1.7c0,1.7-2.5,3.5-4.6,3.5C140.7,201.4,139.8,200.8,139.8,199.7z"/>
</g>
<rect x="157" y="179.1" width="0.5" height="14"/>
<g>
	<path d="M150.6,194.7c0-1.8,2.5-3.5,4.5-3.5c1.3,0,2.3,0.7,2.3,1.7c0,1.7-2.5,3.5-4.6,3.5C151.6,196.4,150.6,195.8,150.6,194.7z"/>
</g>
<rect x="167.7" y="174.2" width="0.5" height="14"/>
<g>
	<path d="M161.3,189.8c0-1.8,2.5-3.5,4.5-3.5c1.3,0,2.3,0.7,2.3,1.7c0,1.7-2.5,3.5-4.6,3.5C162.3,191.5,161.3,190.9,161.3,189.8z"/>
</g>
<rect x="178.6" y="175.7" width="0.5" height="17.4"/>
<g>
	<path d="M172.2,194.7c0-1.8,2.5-3.5,4.5-3.5c1.3,0,2.3,0.7,2.3,1.7c0,1.7-2.5,3.5-4.6,3.5C173.1,196.4,172.2,195.8,172.2,194.7z"/>
</g>
<rect x="189.4" y="177.4" width="0.5" height="20.6"/>
<g>
	<path d="M183,199.7c0-1.8,2.5-3.5,4.5-3.5c1.3,0,2.3,0.7,2.3,1.7c0,1.7-2.5,3.5-4.6,3.5C184,201.4,183,200.8,183,199.7z"/>
</g>
<rect x="200.3" y="179.1" width="0.5" height="21.4"/>
<g>
	<path d="M193.9,202.2c0-1.8,2.5-3.5,4.5-3.5c1.3,0,2.3,0.7,2.3,1.7c0,1.7-2.5,3.5-4.6,3.5C194.8,203.9,193.9,203.3,193.9,202.2z"/>
</g>
<rect x="218.3" y="177.3" width="0.5" height="21.4"/>
<g>
	<path d="M218.4,177.4c0-1.8,2.5-3.5,4.5-3.5c1.3,0,2.3,0.7,2.3,1.7c0,1.7-2.5,3.5-4.6,3.5C219.3,179.1,218.4,178.4,218.4,177.4z"/>
</g>
<rect x="229" y="182.2" width="0.5" height="18"/>
<g>
	<path d="M229,182.3c0-1.8,2.5-3.5,4.5-3.5c1.3,0,2.3,0.7,2.3,1.7c0,1.7-2.5,3.5-4.6,3.5C230,184,229,183.4,229,182.3z"/>
</g>
<rect x="239.8" y="187.2" width="0.5" height="14.7"/>
<g>
	<path d="M239.9,187.3c0-1.8,2.5-3.5,4.5-3.5c1.3,0,2.3,0.7,2.3,1.7c0,1.7-2.5,3.5-4.6,3.5C240.9,189,239.9,188.4,239.9,187.3z"/>
</g>
<rect x="250.7" y="189.7" width="0.5" height="14"/>
<g>
	<path d="M250.7,189.8c0-1.8,2.5-3.5,4.5-3.5c1.3,0,2.3,0.7,2.3,1.7c0,1.7-2.5,3.5-4.6,3.5C251.7,191.5,250.7,190.9,250.7,189.8z"/>
</g>
<rect x="268.2" y="176.5" width="0.5" height="16.6"/>
<g>
	<path d="M265.9,191.2c1.6,0,2.7,0.7,2.7,2c0,1.9-2.3,3.4-4.5,3.4c-1.3,0-2.4-0.7-2.4-1.8C261.6,193,263.8,191.2,265.9,191.2z
		 M262.1,195c0,0.6,0.4,0.9,1.1,0.9c1.4,0,4.9-2.1,4.9-3.3c0-0.6-0.4-0.9-1.1-0.9C265.7,191.8,262.1,193.8,262.1,195z"/>
</g>
<rect x="307.9" y="189.7" width="0.5" height="14"/>
<g>
	<path d="M307.9,189.8c0-1.8,2.5-3.5,4.5-3.5c1.3,0,2.3,0.7,2.3,1.7c0,1.7-2.5,3.5-4.6,3.5C308.9,191.5,307.9,190.9,307.9,189.8z"/>
</g>
<rect x="318.7" y="187.2" width="0.5" height="14.9"/>
<g>
	<path d="M318.8,187.3c0-1.8,2.5-3.5,4.5-3.5c1.3,0,2.3,0.7,2.3,1.7c0,1.7-2.5,3.5-4.6,3.5C319.8,189,318.8,188.4,318.8,187.3z"/>
</g>
<rect x="329.6" y="182.2" width="0.5" height="18.1"/>
<g>
	<path d="M329.7,182.3c0-1.8,2.5-3.5,4.5-3.5c1.3,0,2.3,0.7,2.3,1.7c0,1.7-2.5,3.5-4.6,3.5C330.6,184,329.7,183.4,329.7,182.3z"/>
</g>
<rect x="340.4" y="177.3" width="0.5" height="21.4"/>
<g>
	<path d="M340.5,177.4c0-1.8,2.5-3.5,4.5-3.5c1.3,0,2.3,0.7,2.3,1.7c0,1.7-2.5,3.5-4.6,3.5C341.5,179.1,340.5,178.4,340.5,177.4z"/>
</g>
<rect x="371.4" y="179.1" width="0.5" height="21.4"/>
<g>
	<path d="M365,202.2c0-1.8,2.5-3.5,4.5-3.5c1.3,0,2.3,0.7,2.3,1.7c0,1.7-2.5,3.5-4.6,3.5C366,203.9,365,203.3,365,202.2z"/>
</g>
<rect x="382.1" y="177.6" width="0.5" height="20.5"/>
<g>
	<path d="M375.7,199.7c0-1.8,2.5-3.5,4.5-3.5c1.3,0,2.3,0.7,2.3,1.7c0,1.7-2.5,3.5-4.6,3.5C376.7,201.4,375.7,200.8,375.7,199.7z"/>
</g>
<rect x="393" y="175.9" width="0.5" height="17.2"/>
<g>
	<path d="M386.5,194.7c0-1.8,2.5-3.5,4.5-3.5c1.3,0,2.3,0.7,2.3,1.7c0,1.7-2.5,3.5-4.6,3.5C387.5,196.4,386.5,195.8,386.5,194.7z"/>
</g>
<rect x="403.8" y="174.2" width="0.5" height="14"/>
<g>
	<path d="M397.4,189.8c0-1.8,2.5-3.5,4.5-3.5c1.3,0,2.3,0.7,2.3,1.7c0,1.7-2.5,3.5-4.6,3.5C398.4,191.5,397.4,190.9,397.4,189.8z"/>
</g>
<rect x="415.6" y="169.2" width="0.5" height="14"/>
<g>
	<path d="M409.2,184.8c0-1.8,2.5-3.5,4.5-3.5c1.3,0,2.3,0.7,2.3,1.7c0,1.7-2.5,3.5-4.6,3.5C410.1,186.5,409.2,185.9,409.2,184.8z"/>
</g>
<rect x="427.4" y="170.9" width="0.5" height="17.2"/>
<g>
	<path d="M421,189.8c0-1.8,2.5-3.5,4.5-3.5c1.3,0,2.3,0.7,2.3,1.7c0,1.7-2.5,3.5-4.6,3.5C421.9,191.5,421,190.9,421,189.8z"/>
</g>
<rect x="438.2" y="172.5" width="0.5" height="20.6"/>
<g>
	<path d="M431.8,194.7c0-1.8,2.5-3.5,4.5-3.5c1.3,0,2.3,0.7,2.3,1.7c0,1.7-2.5,3.5-4.6,3.5C432.8,196.4,431.8,195.8,431.8,194.7z"/>
</g>
<rect x="448.9" y="174.2" width="0.5" height="23.9"/>
<g>
	<path d="M442.5,199.7c0-1.8,2.5-3.5,4.5-3.5c1.3,0,2.3,0.7,2.3,1.7c0,1.7-2.5,3.5-4.6,3.5C443.5,201.4,442.5,200.8,442.5,199.7z"/>
</g>
<rect x="467" y="173.6" width="10.5" height="0.8"/>
<rect x="468.8" y="172.3" width="0.5" height="26.4"/>
<g>
	<path d="M468.9,172.4c0-1.8,2.5-3.5,4.5-3.5c1.3,0,2.3,0.7,2.3,1.7c0,1.7-2.5,3.5-4.6,3.5C469.8,174.1,468.9,173.5,468.9,172.4z"/>
</g>
<rect x="479.6" y="177.3" width="0.5" height="22.9"/>
<g>
	<path d="M479.7,177.4c0-1.8,2.5-3.5,4.5-3.5c1.3,0,2.3,0.7,2.3,1.7c0,1.7-2.5,3.5-4.6,3.5C480.7,179.1,479.7,178.4,479.7,177.4z"/>
</g>
<rect x="490.5" y="182.2" width="0.5" height="19.7"/>
<g>
	<path d="M490.6,182.3c0-1.8,2.5-3.5,4.5-3.5c1.3,0,2.3,0.7,2.3,1.7c0,1.7-2.5,3.5-4.6,3.5C491.5,184,490.6,183.4,490.6,182.3z"/>
</g>
<rect x="501.3" y="187.2" width="0.5" height="16.4"/>
<g>
	<path d="M501.4,187.3c0-1.8,2.5-3.5,4.5-3.5c1.3,0,2.3,0.7,2.3,1.7c0,1.7-2.5,3.5-4.6,3.5C502.4,189,501.4,188.4,501.4,187.3z"/>
</g>
<rect x="512" y="189.7" width="0.5" height="16.6"/>
<g>
	<path d="M516.4,186.2c1.6,0,2.7,0.7,2.7,2c0,1.9-2.3,3.4-4.5,3.4c-1.3,0-2.4-0.7-2.4-1.8C512.1,188,514.3,186.2,516.4,186.2z
		 M512.6,190.1c0,0.6,0.4,0.9,1.1,0.9c1.4,0,4.9-2.1,4.9-3.3c0-0.6-0.4-0.9-1.1-0.9C516.2,186.8,512.6,188.8,512.6,190.1z"/>
</g>
</svg>
