<?xml version="1.0" encoding="utf-8"?>

<!--
	ScaleBook
	Copyright (c) Leland Jansen 2015. All rights reserved.
-->

<!DOCTYPE svg PUBLIC "-//W3C//DTD SVG 1.1//EN" "http://www.w3.org/Graphics/SVG/1.1/DTD/svg11.dtd">
<svg version="1.1" id="Layer_1" xmlns="http://www.w3.org/2000/svg" xmlns:xlink="http://www.w3.org/1999/xlink" x="0px" y="0px"
	 viewBox="0 0 553 209" enable-background="new 0 0 553 209" xml:space="preserve">
<rect x="8.4" y="9.9" width="0.8" height="67"/>
<g>
	<path d="M7.4,10.6c-1.9,1.1-3.6,5.8-3.6,9.4c0,2.3,1.4,9.9,1.4,12.3c0,5-1.5,8.6-4.6,11.1c3,2.4,4.6,6.1,4.6,11
		c0,2.3-1.4,9.9-1.4,12.3c0,3.8,1.7,8.4,3.6,9.5v0.7c-3.5-2.3-5.8-8.2-5.8-13.1c0-2.1,1.7-9.4,1.7-11.5c0-3.8-1-6.6-2.9-8.2
		C0.1,43.8,0,43.6,0,43.4s0.1-0.4,0.5-0.7c1.9-1.7,2.9-4.2,2.9-7.6c0-2.1-1.7-10-1.7-12.2c0-5.2,2.1-10.4,5.8-13.1V10.6z"/>
</g>
<rect x="8.4" y="132.1" width="0.8" height="67"/>
<g>
	<path d="M7.4,132.7c-1.9,1.1-3.6,5.8-3.6,9.4c0,2.3,1.4,9.9,1.4,12.3c0,5-1.5,8.6-4.6,11.1c3,2.4,4.6,6.1,4.6,11
		c0,2.3-1.4,9.9-1.4,12.3c0,3.8,1.7,8.4,3.6,9.5v0.7c-3.5-2.3-5.8-8.2-5.8-13.1c0-2.1,1.7-9.4,1.7-11.5c0-3.8-1-6.6-2.9-8.2
		c-0.3-0.3-0.5-0.5-0.5-0.7s0.1-0.4,0.5-0.7c1.9-1.7,2.9-4.2,2.9-7.6c0-2.1-1.7-10-1.7-12.2c0-5.2,2.1-10.4,5.8-13.1V132.7z"/>
</g>
<rect x="297.2" y="9.9" width="0.8" height="67"/>
<rect x="299.8" y="9.9" width="0.8" height="67"/>
<rect x="549.5" y="9.9" width="0.8" height="67"/>
<rect x="552.2" y="9.9" width="0.8" height="67"/>
<rect x="295.5" y="132.1" width="0.8" height="67"/>
<rect x="298.1" y="132.1" width="0.8" height="67"/>
<rect x="547.8" y="132.1" width="0.8" height="67"/>
<rect x="550.4" y="132.1" width="2.5" height="67"/>
<rect x="8.5" y="29.5" width="544.4" height="0.5"/>
<rect x="8.5" y="24.6" width="544.4" height="0.5"/>
<rect x="8.5" y="19.6" width="544.4" height="0.5"/>
<rect x="8.5" y="14.6" width="544.4" height="0.5"/>
<rect x="8.5" y="9.7" width="544.4" height="0.5"/>
<g>
	<path d="M20.3,29.6c-4.2,0-8.1-3.1-8.1-6.9c0-3.2,2.3-6.7,6.8-10.5c-0.3-1.2-0.4-2.4-0.4-3.6c0-3.5,1.2-6.8,3.2-8.5
		c1.8,2.5,2.7,4.9,2.7,7.1c0,2.9-1.3,5.6-4.3,8.1l0.9,4.2c0.5,0,0.8-0.1,0.8-0.1c2.6,0,4.8,2,4.8,4.7c0,1.9-1.4,3.7-3.6,4.8
		c0-0.1,0.9,3.8,0.9,4.3c0,2.5-2.3,4.2-4.9,4.2c-2,0-3.6-1.3-3.6-3.4c0-1.4,1-2.6,2.4-2.6c1.3,0,2.3,1.3,2.3,2.5
		c0,1.4-1.2,2.3-2.7,2.5c0.6,0.3,1.2,0.5,1.9,0.5c2.1,0,4.1-1.6,4.1-3.6c0-0.2,0-0.4-0.1-0.6l-0.8-3.7
		C21.9,29.5,21.2,29.6,20.3,29.6z M18.1,24.4c0,1,0.5,1.9,1.6,2.5c-1.8-0.3-3-1.4-3-3.1c0-2,1.7-3.7,3.8-4.1l-0.8-4
		C16,18.5,14,21.2,14,23.8c0,2.9,2.8,5.3,6,5.3c0.9,0,1.7-0.2,2.4-0.5L21,21.8C19.4,22,18.1,23,18.1,24.4z M22.1,3
		c-1.6,0-2.9,3.7-2.9,7c0,0.7,0,1.3,0.2,1.9c2.7-2.4,4-4.5,4-6.5c0-0.9-0.3-1.7-1-2.4C22.4,3.1,22.3,3,22.1,3z M24.9,24.9
		c0-1.6-1.2-3.3-2.9-3.3c-0.1,0-0.2,0-0.5,0l1.4,6.6C24.2,27.4,24.9,26.2,24.9,24.9z"/>
</g>
<g>
	<path d="M33.5,3.1v2.8l1-0.3v1.8l-1,0.3v3.4l1-0.3v1.8l-1,0.3v3.1H33v-3l-1.9,0.6v3h-0.5v-2.8l-1,0.3v-1.8l1-0.3V8.7l-1,0.3V7.2
		l1-0.3V3.7h0.5v3L33,6.1v-3H33.5z M33,7.9l-1.9,0.6v3.4l1.9-0.6V7.9z"/>
</g>
<g>
	<path d="M39.7,10.5v2.8l1-0.3v1.8l-1,0.3v3.4l1-0.3v1.8l-1,0.3v3.1h-0.5v-3l-1.9,0.6v3h-0.5v-2.8l-1,0.3v-1.8l1-0.3v-3.4l-1,0.3
		v-1.8l1-0.3v-3.1h0.5v3l1.9-0.6v-3H39.7z M39.2,15.3L37.3,16v3.4l1.9-0.6V15.3z"/>
</g>
<g>
	<path d="M45.9,0.6v2.8l1-0.3v1.8l-1,0.3v3.4l1-0.3v1.8l-1,0.3v3.1h-0.5v-3l-1.9,0.6v3H43v-2.8l-1,0.3V9.9l1-0.3V6.2l-1,0.3V4.7
		l1-0.3V1.3h0.5v3l1.9-0.6v-3H45.9z M45.4,5.4L43.5,6v3.4l1.9-0.6V5.4z"/>
</g>
<polygon fill-rule="evenodd" clip-rule="evenodd" points="62.2,26 99.9,21.1 99.9,18.6 62.2,23.6 "/>
<polygon fill-rule="evenodd" clip-rule="evenodd" points="62.2,22.3 99.9,17.4 99.9,14.9 62.2,19.8 "/>
<polygon fill-rule="evenodd" clip-rule="evenodd" points="112.5,11.2 150,6.2 150,3.7 112.5,8.7 "/>
<polygon fill-rule="evenodd" clip-rule="evenodd" points="112.5,7.4 150,2.5 150,0 112.5,5 "/>
<polygon fill-rule="evenodd" clip-rule="evenodd" points="156,31 193.7,36 193.7,33.5 156,28.5 "/>
<polygon fill-rule="evenodd" clip-rule="evenodd" points="156,34.7 193.7,39.7 193.7,37.2 156,32.2 "/>
<polygon fill-rule="evenodd" clip-rule="evenodd" points="212.8,21.1 250.3,26 250.3,23.6 212.8,18.6 "/>
<polygon fill-rule="evenodd" clip-rule="evenodd" points="212.8,17.4 250.3,22.3 250.3,19.8 212.8,14.9 "/>
<polygon fill-rule="evenodd" clip-rule="evenodd" points="314.6,26 352.3,21.1 352.3,18.6 314.6,23.6 "/>
<polygon fill-rule="evenodd" clip-rule="evenodd" points="314.6,22.3 352.3,17.4 352.3,14.9 314.6,19.8 "/>
<polygon fill-rule="evenodd" clip-rule="evenodd" points="358.3,36 395.8,31 395.8,28.5 358.3,33.5 "/>
<polygon fill-rule="evenodd" clip-rule="evenodd" points="358.3,39.7 395.8,34.7 395.8,32.2 358.3,37.2 "/>
<polygon fill-rule="evenodd" clip-rule="evenodd" points="408.4,26 446.1,31 446.1,28.5 408.4,23.6 "/>
<polygon fill-rule="evenodd" clip-rule="evenodd" points="408.4,29.8 446.1,34.7 446.1,32.2 408.4,27.3 "/>
<polygon fill-rule="evenodd" clip-rule="evenodd" points="465.1,16.1 502.6,21.1 502.6,18.6 465.1,13.6 "/>
<polygon fill-rule="evenodd" clip-rule="evenodd" points="465.1,12.4 502.6,17.4 502.6,14.9 465.1,9.9 "/>
<rect x="8.5" y="76.7" width="544.4" height="0.5"/>
<rect x="8.5" y="71.7" width="544.4" height="0.5"/>
<rect x="8.5" y="66.7" width="544.4" height="0.5"/>
<rect x="8.5" y="61.8" width="544.4" height="0.5"/>
<rect x="8.5" y="56.8" width="544.4" height="0.5"/>
<g>
	<path d="M15.7,71.2c2.9-2.6,4.7-6.1,4.7-9.2c0-2.5-1.4-4.4-3.7-4.4c-1.6,0-3.4,1.3-3.4,2.7c0,0.2,0,0.3,0.1,0.3
		c-0.1,0,0.6-0.6,1.4-0.6c0.9,0,1.5,0.8,1.5,1.7c0,1.2-0.9,2.2-2.1,2.2c-1.2,0-2.1-1.3-2.1-2.8c0-2.3,2.3-4.1,4.8-4.1
		c4.7,0,5.9,3.2,5.9,5.8c0,1.6-0.4,2.9-2,5.3c-1.9,3.1-6.4,5.3-8.1,5.3c-0.4,0-0.6-0.2-0.6-0.5C13.8,72.5,14.9,71.9,15.7,71.2z
		 M25.7,58.5c0.6,0,1,0.4,1,1s-0.4,1-1,1s-1-0.4-1-1S25.1,58.5,25.7,58.5z M25.7,63.5c0.6,0,1,0.4,1,1s-0.4,1-1,1s-1-0.4-1-1
		S25.1,63.5,25.7,63.5z"/>
</g>
<g>
	<path d="M33.5,55.2V58l1-0.3v1.8l-1,0.3v3.4l1-0.3v1.8l-1,0.3v3.1H33v-3l-1.9,0.6v3h-0.5V66l-1,0.3v-1.8l1-0.3v-3.4l-1,0.3v-1.8
		l1-0.3v-3.1h0.5v3l1.9-0.6v-3H33.5z M33,60l-1.9,0.6V64l1.9-0.6V60z"/>
</g>
<g>
	<path d="M39.7,62.6v2.8l1-0.3v1.8l-1,0.3v3.4l1-0.3v1.8l-1,0.3v3.1h-0.5v-3l-1.9,0.6v3h-0.5v-2.8l-1,0.3v-1.8l1-0.3v-3.4l-1,0.3
		v-1.8l1-0.3v-3.1h0.5v3l1.9-0.6v-3H39.7z M39.2,67.4L37.3,68v3.4l1.9-0.6V67.4z"/>
</g>
<g>
	<path d="M45.9,52.7v2.8l1-0.3V57l-1,0.3v3.4l1-0.3v1.8l-1,0.3v3.1h-0.5v-3l-1.9,0.6v3H43v-2.8l-1,0.3V62l1-0.3v-3.4l-1,0.3v-1.8
		l1-0.3v-3.1h0.5v3l1.9-0.6v-3H45.9z M45.4,57.5l-1.9,0.6v3.4l1.9-0.6V57.5z"/>
</g>
<polygon fill-rule="evenodd" clip-rule="evenodd" points="62.2,63.2 99.9,58.3 99.9,55.8 62.2,60.8 "/>
<polygon fill-rule="evenodd" clip-rule="evenodd" points="62.2,59.5 99.9,54.6 99.9,52.1 62.2,57 "/>
<polygon fill-rule="evenodd" clip-rule="evenodd" points="106,78.1 143.5,73.2 143.5,70.7 106,75.6 "/>
<polygon fill-rule="evenodd" clip-rule="evenodd" points="106,81.8 143.5,76.9 143.5,74.4 106,79.4 "/>
<polygon fill-rule="evenodd" clip-rule="evenodd" points="156,68.2 193.7,73.2 193.7,70.7 156,65.7 "/>
<polygon fill-rule="evenodd" clip-rule="evenodd" points="156,71.9 193.7,76.9 193.7,74.4 156,69.4 "/>
<polygon fill-rule="evenodd" clip-rule="evenodd" points="212.8,53.3 250.3,58.3 250.3,55.8 212.8,50.8 "/>
<polygon fill-rule="evenodd" clip-rule="evenodd" points="212.8,49.6 250.3,54.6 250.3,52.1 212.8,47.1 "/>
<polygon fill-rule="evenodd" clip-rule="evenodd" points="314.6,58.3 352.3,53.3 352.3,50.8 314.6,55.8 "/>
<polygon fill-rule="evenodd" clip-rule="evenodd" points="314.6,54.6 352.3,49.6 352.3,47.1 314.6,52.1 "/>
<polygon fill-rule="evenodd" clip-rule="evenodd" points="358.3,73.2 395.8,68.2 395.8,65.7 358.3,70.7 "/>
<polygon fill-rule="evenodd" clip-rule="evenodd" points="358.3,76.9 395.8,71.9 395.8,69.4 358.3,74.4 "/>
<polygon fill-rule="evenodd" clip-rule="evenodd" points="408.4,63.2 446.1,68.2 446.1,65.7 408.4,60.8 "/>
<polygon fill-rule="evenodd" clip-rule="evenodd" points="408.4,67 446.1,71.9 446.1,69.4 408.4,64.5 "/>
<polygon fill-rule="evenodd" clip-rule="evenodd" points="458.6,78.1 496.1,83.1 496.1,80.6 458.6,75.6 "/>
<polygon fill-rule="evenodd" clip-rule="evenodd" points="458.6,81.8 496.1,86.8 496.1,84.3 458.6,79.4 "/>
<rect x="8.5" y="151.7" width="544.4" height="0.5"/>
<rect x="8.5" y="146.7" width="544.4" height="0.5"/>
<rect x="8.5" y="141.8" width="544.4" height="0.5"/>
<rect x="8.5" y="136.8" width="544.4" height="0.5"/>
<rect x="8.5" y="131.8" width="544.4" height="0.5"/>
<g>
	<path d="M20.3,151.7c-4.2,0-8.1-3.1-8.1-6.9c0-3.2,2.3-6.7,6.8-10.5c-0.3-1.2-0.4-2.4-0.4-3.6c0-3.5,1.2-6.8,3.2-8.5
		c1.8,2.5,2.7,4.9,2.7,7.1c0,2.9-1.3,5.6-4.3,8.1l0.9,4.2c0.5,0,0.8-0.1,0.8-0.1c2.6,0,4.8,2,4.8,4.7c0,1.9-1.4,3.7-3.6,4.8
		c0-0.1,0.9,3.8,0.9,4.3c0,2.5-2.3,4.2-4.9,4.2c-2,0-3.6-1.3-3.6-3.4c0-1.4,1-2.6,2.4-2.6c1.3,0,2.3,1.3,2.3,2.5
		c0,1.4-1.2,2.3-2.7,2.5c0.6,0.3,1.2,0.5,1.9,0.5c2.1,0,4.1-1.6,4.1-3.6c0-0.2,0-0.4-0.1-0.6l-0.8-3.7
		C21.9,151.6,21.2,151.7,20.3,151.7z M18.1,146.5c0,1,0.5,1.9,1.6,2.5c-1.8-0.3-3-1.4-3-3.1c0-2,1.7-3.7,3.8-4.1l-0.8-4
		c-3.7,2.8-5.7,5.5-5.7,8.1c0,2.9,2.8,5.3,6,5.3c0.9,0,1.7-0.2,2.4-0.5l-1.4-6.8C19.4,144.2,18.1,145.2,18.1,146.5z M22.1,125.2
		c-1.6,0-2.9,3.7-2.9,7c0,0.7,0,1.3,0.2,1.9c2.7-2.4,4-4.5,4-6.5c0-0.9-0.3-1.7-1-2.4C22.4,125.2,22.3,125.2,22.1,125.2z
		 M24.9,147.1c0-1.6-1.2-3.3-2.9-3.3c-0.1,0-0.2,0-0.5,0l1.4,6.6C24.2,149.5,24.9,148.4,24.9,147.1z"/>
</g>
<g>
	<path d="M33.5,125.2v2.8l1-0.3v1.8l-1,0.3v3.4l1-0.3v1.8l-1,0.3v3.1H33v-3l-1.9,0.6v3h-0.5V136l-1,0.3v-1.8l1-0.3v-3.4l-1,0.3v-1.8
		l1-0.3v-3.1h0.5v3l1.9-0.6v-3H33.5z M33,130l-1.9,0.6v3.4l1.9-0.6V130z"/>
</g>
<g>
	<path d="M39.7,132.7v2.8l1-0.3v1.8l-1,0.3v3.4l1-0.3v1.8l-1,0.3v3.1h-0.5v-3l-1.9,0.6v3h-0.5v-2.8l-1,0.3V142l1-0.3v-3.4l-1,0.3
		v-1.8l1-0.3v-3.1h0.5v3l1.9-0.6v-3H39.7z M39.2,137.5l-1.9,0.6v3.4l1.9-0.6V137.5z"/>
</g>
<g>
	<path d="M45.9,122.8v2.8l1-0.3v1.8l-1,0.3v3.4l1-0.3v1.8l-1,0.3v3.1h-0.5v-3l-1.9,0.6v3H43v-2.8l-1,0.3v-1.8l1-0.3v-3.4l-1,0.3
		v-1.8l1-0.3v-3.1h0.5v3l1.9-0.6v-3H45.9z M45.4,127.5l-1.9,0.6v3.4l1.9-0.6V127.5z"/>
</g>
<polygon fill-rule="evenodd" clip-rule="evenodd" points="62.2,143.2 95,138.3 95,135.8 62.2,140.7 "/>
<polygon fill-rule="evenodd" clip-rule="evenodd" points="62.2,139.5 95,134.5 95,132.1 62.2,137 "/>
<polygon fill-rule="evenodd" clip-rule="evenodd" points="114.8,153.1 147.7,148.2 147.7,145.7 114.8,150.7 "/>
<polygon fill-rule="evenodd" clip-rule="evenodd" points="114.8,156.9 147.7,151.9 147.7,149.4 114.8,154.4 "/>
<polygon fill-rule="evenodd" clip-rule="evenodd" points="158.5,143.2 191.4,148.2 191.4,145.7 158.5,140.7 "/>
<polygon fill-rule="evenodd" clip-rule="evenodd" points="158.5,146.9 191.4,151.9 191.4,149.4 158.5,144.5 "/>
<polygon fill-rule="evenodd" clip-rule="evenodd" points="222.4,133.3 255.1,138.3 255.1,135.8 222.4,130.8 "/>
<polygon fill-rule="evenodd" clip-rule="evenodd" points="222.4,129.6 255.1,134.5 255.1,132.1 222.4,127.1 "/>
<polygon fill-rule="evenodd" clip-rule="evenodd" points="312.9,138.3 345.6,133.3 345.6,130.8 312.9,135.8 "/>
<polygon fill-rule="evenodd" clip-rule="evenodd" points="312.9,134.5 345.6,129.6 345.6,127.1 312.9,132.1 "/>
<polygon fill-rule="evenodd" clip-rule="evenodd" points="363.6,148.2 396.5,143.2 396.5,140.7 363.6,145.7 "/>
<polygon fill-rule="evenodd" clip-rule="evenodd" points="363.6,151.9 396.5,146.9 396.5,144.5 363.6,149.4 "/>
<polygon fill-rule="evenodd" clip-rule="evenodd" points="408.2,143.2 441.9,148.2 441.9,145.7 408.2,140.7 "/>
<polygon fill-rule="evenodd" clip-rule="evenodd" points="408.2,146.9 441.9,151.9 441.9,149.4 408.2,144.5 "/>
<polygon fill-rule="evenodd" clip-rule="evenodd" points="474.7,128.3 507.5,133.3 507.5,130.8 474.7,125.9 "/>
<polygon fill-rule="evenodd" clip-rule="evenodd" points="474.7,124.6 507.5,129.6 507.5,127.1 474.7,122.1 "/>
<rect x="8.5" y="198.8" width="544.4" height="0.5"/>
<rect x="8.5" y="193.8" width="544.4" height="0.5"/>
<rect x="8.5" y="188.9" width="544.4" height="0.5"/>
<rect x="8.5" y="183.9" width="544.4" height="0.5"/>
<rect x="8.5" y="179" width="544.4" height="0.5"/>
<g>
	<path d="M15.7,193.4c2.9-2.6,4.7-6.1,4.7-9.2c0-2.5-1.4-4.4-3.7-4.4c-1.6,0-3.4,1.3-3.4,2.7c0,0.2,0,0.3,0.1,0.3
		c-0.1,0,0.6-0.6,1.4-0.6c0.9,0,1.5,0.8,1.5,1.7c0,1.2-0.9,2.2-2.1,2.2c-1.2,0-2.1-1.3-2.1-2.8c0-2.3,2.3-4.1,4.8-4.1
		c4.7,0,5.9,3.2,5.9,5.8c0,1.6-0.4,2.9-2,5.3c-1.9,3.1-6.4,5.3-8.1,5.3c-0.4,0-0.6-0.2-0.6-0.5C13.8,194.6,14.9,194.1,15.7,193.4z
		 M25.7,180.7c0.6,0,1,0.4,1,1s-0.4,1-1,1s-1-0.4-1-1S25.1,180.7,25.7,180.7z M25.7,185.6c0.6,0,1,0.4,1,1s-0.4,1-1,1s-1-0.4-1-1
		S25.1,185.6,25.7,185.6z"/>
</g>
<g>
	<path d="M33.5,177.3v2.8l1-0.3v1.8l-1,0.3v3.4l1-0.3v1.8l-1,0.3v3.1H33v-3l-1.9,0.6v3h-0.5v-2.8l-1,0.3v-1.8l1-0.3v-3.4l-1,0.3
		v-1.8l1-0.3V178h0.5v3l1.9-0.6v-3H33.5z M33,182.1l-1.9,0.6v3.4l1.9-0.6V182.1z"/>
</g>
<g>
	<path d="M39.7,184.8v2.8l1-0.3v1.8l-1,0.3v3.4l1-0.3v1.8l-1,0.3v3.1h-0.5v-3l-1.9,0.6v3h-0.5v-2.8l-1,0.3v-1.8l1-0.3v-3.4l-1,0.3
		v-1.8l1-0.3v-3.1h0.5v3l1.9-0.6v-3H39.7z M39.2,189.5l-1.9,0.6v3.4l1.9-0.6V189.5z"/>
</g>
<g>
	<path d="M45.9,174.8v2.8l1-0.3v1.8l-1,0.3v3.4l1-0.3v1.8l-1,0.3v3.1h-0.5v-3l-1.9,0.6v3H43v-2.8l-1,0.3v-1.8l1-0.3v-3.4l-1,0.3
		v-1.8l1-0.3v-3.1h0.5v3l1.9-0.6v-3H45.9z M45.4,179.6l-1.9,0.6v3.4l1.9-0.6V179.6z"/>
</g>
<g>
	<path d="M106.8,197.7c-3.2,0-6.1-2.3-6.1-5.1c0-2.4,1.7-5,5.1-7.9c-0.2-0.9-0.3-1.8-0.3-2.7c0-2.6,0.9-5.1,2.4-6.3
		c1.4,1.9,2,3.7,2,5.3c0,2.2-1,4.2-3.2,6.1l0.7,3.1c0.4,0,0.6,0,0.6,0c2,0,3.6,1.5,3.6,3.5c0,1.4-1.1,2.8-2.7,3.6
		c0-0.1,0.6,2.8,0.6,3.3c0,1.9-1.7,3.2-3.7,3.2c-1.5,0-2.7-1-2.7-2.5c0-1.1,0.7-1.9,1.8-1.9c1,0,1.7,1,1.7,1.9c0,1-0.9,1.7-2,1.8
		c0.4,0.2,0.9,0.3,1.4,0.3c1.6,0,3.1-1.2,3.1-2.7c0-0.1,0-0.3,0-0.5l-0.6-2.8C108,197.6,107.5,197.7,106.8,197.7z M105.1,193.8
		c0,0.8,0.4,1.4,1.2,1.9c-1.3-0.2-2.2-1.1-2.2-2.3c0-1.5,1.3-2.8,2.9-3.1l-0.6-3c-2.8,2.1-4.3,4.1-4.3,6.1c0,2.2,2.1,4,4.5,4
		c0.7,0,1.3-0.1,1.8-0.4l-1.1-5.1C106.1,192,105.1,192.7,105.1,193.8z M108.2,177.8c-1.2,0-2.2,2.8-2.2,5.3c0,0.5,0,1,0.1,1.4
		c2-1.8,3-3.4,3-4.8c0-0.7-0.3-1.3-0.7-1.8C108.4,177.8,108.3,177.8,108.2,177.8z M110.2,194.2c0-1.2-0.9-2.4-2.2-2.4
		c0,0-0.2,0-0.4,0l1.1,5C109.7,196,110.2,195.1,110.2,194.2z"/>
</g>
<polygon fill-rule="evenodd" clip-rule="evenodd" points="55.7,205.2 88.4,200.3 88.4,197.8 55.7,202.8 "/>
<polygon fill-rule="evenodd" clip-rule="evenodd" points="55.7,209 88.4,204 88.4,201.5 55.7,206.5 "/>
<polygon fill-rule="evenodd" clip-rule="evenodd" points="121.3,190.4 154.2,185.4 154.2,182.9 121.3,187.9 "/>
<polygon fill-rule="evenodd" clip-rule="evenodd" points="121.3,186.6 154.2,181.7 154.2,179.2 121.3,184.2 "/>
<g>
	<path d="M206.3,191.1c2.2-2,3.6-4.6,3.6-6.9c0-1.9-1.1-3.3-2.8-3.3c-1.2,0-2.5,1-2.5,2.1c0,0.2,0,0.2,0.1,0.2c0,0,0.4-0.5,1-0.5
		c0.7,0,1.2,0.6,1.2,1.3c0,0.9-0.6,1.7-1.6,1.7c-0.9,0-1.5-1-1.5-2.1c0-1.8,1.7-3.1,3.6-3.1c3.5,0,4.4,2.4,4.4,4.4
		c0,1.2-0.3,2.2-1.5,4c-1.4,2.3-4.8,4-6,4c-0.3,0-0.5-0.1-0.5-0.3C204.8,192,205.7,191.6,206.3,191.1z M213.7,181.5
		c0.4,0,0.7,0.3,0.7,0.7c0,0.4-0.3,0.7-0.7,0.7s-0.7-0.3-0.7-0.7C213,181.9,213.3,181.5,213.7,181.5z M213.7,185.3
		c0.4,0,0.7,0.3,0.7,0.7s-0.3,0.7-0.7,0.7s-0.7-0.3-0.7-0.7S213.3,185.3,213.7,185.3z"/>
</g>
<polygon fill-rule="evenodd" clip-rule="evenodd" points="165,180.4 197.9,185.4 197.9,182.9 165,178 "/>
<polygon fill-rule="evenodd" clip-rule="evenodd" points="165,176.7 197.9,181.7 197.9,179.2 165,174.2 "/>
<polygon fill-rule="evenodd" clip-rule="evenodd" points="215.9,195.3 248.6,200.3 248.6,197.8 215.9,192.8 "/>
<polygon fill-rule="evenodd" clip-rule="evenodd" points="215.9,199 248.6,204 248.6,201.5 215.9,196.6 "/>
<g>
	<path d="M357.4,197.7c-3.2,0-6.1-2.3-6.1-5.1c0-2.4,1.7-5,5.1-7.9c-0.2-0.9-0.3-1.8-0.3-2.7c0-2.6,0.9-5.1,2.4-6.3
		c1.4,1.9,2,3.7,2,5.3c0,2.2-1,4.2-3.2,6.1l0.7,3.1c0.4,0,0.6,0,0.6,0c2,0,3.6,1.5,3.6,3.5c0,1.4-1.1,2.8-2.7,3.6
		c0-0.1,0.6,2.8,0.6,3.3c0,1.9-1.7,3.2-3.7,3.2c-1.5,0-2.7-1-2.7-2.5c0-1.1,0.7-1.9,1.8-1.9c1,0,1.7,1,1.7,1.9c0,1-0.9,1.7-2,1.8
		c0.4,0.2,0.9,0.3,1.4,0.3c1.6,0,3.1-1.2,3.1-2.7c0-0.1,0-0.3,0-0.5l-0.6-2.8C358.7,197.6,358.1,197.7,357.4,197.7z M355.8,193.8
		c0,0.8,0.4,1.4,1.2,1.9c-1.3-0.2-2.2-1.1-2.2-2.3c0-1.5,1.3-2.8,2.9-3.1l-0.6-3c-2.8,2.1-4.3,4.1-4.3,6.1c0,2.2,2.1,4,4.5,4
		c0.7,0,1.3-0.1,1.8-0.4l-1.1-5.1C356.7,192,355.8,192.7,355.8,193.8z M358.8,177.8c-1.2,0-2.2,2.8-2.2,5.3c0,0.5,0,1,0.1,1.4
		c2-1.8,3-3.4,3-4.8c0-0.7-0.3-1.3-0.7-1.8C359,177.8,358.9,177.8,358.8,177.8z M360.9,194.2c0-1.2-0.9-2.4-2.2-2.4c0,0-0.2,0-0.4,0
		l1.1,5C360.4,196,360.9,195.1,360.9,194.2z"/>
</g>
<polygon fill-rule="evenodd" clip-rule="evenodd" points="306.4,200.3 339.1,195.3 339.1,192.8 306.4,197.8 "/>
<polygon fill-rule="evenodd" clip-rule="evenodd" points="306.4,204 339.1,199 339.1,196.6 306.4,201.5 "/>
<polygon fill-rule="evenodd" clip-rule="evenodd" points="370.1,185.4 403,180.4 403,178 370.1,182.9 "/>
<polygon fill-rule="evenodd" clip-rule="evenodd" points="370.1,181.7 403,176.7 403,174.2 370.1,179.2 "/>
<g>
	<path d="M456.8,191.1c2.2-2,3.6-4.6,3.6-6.9c0-1.9-1.1-3.3-2.8-3.3c-1.2,0-2.5,1-2.5,2.1c0,0.2,0,0.2,0.1,0.2c0,0,0.4-0.5,1-0.5
		c0.7,0,1.2,0.6,1.2,1.3c0,0.9-0.6,1.7-1.6,1.7s-1.5-1-1.5-2.1c0-1.8,1.7-3.1,3.6-3.1c3.5,0,4.4,2.4,4.4,4.4c0,1.2-0.3,2.2-1.5,4
		c-1.4,2.3-4.8,4-6,4c-0.3,0-0.5-0.1-0.5-0.3C455.3,192,456.2,191.6,456.8,191.1z M464.2,181.5c0.4,0,0.7,0.3,0.7,0.7
		c0,0.4-0.3,0.7-0.7,0.7c-0.4,0-0.7-0.3-0.7-0.7C463.5,181.9,463.8,181.5,464.2,181.5z M464.2,185.3c0.4,0,0.7,0.3,0.7,0.7
		s-0.3,0.7-0.7,0.7c-0.4,0-0.7-0.3-0.7-0.7S463.8,185.3,464.2,185.3z"/>
</g>
<polygon fill-rule="evenodd" clip-rule="evenodd" points="414.8,175.5 448.4,180.4 448.4,178 414.8,173 "/>
<polygon fill-rule="evenodd" clip-rule="evenodd" points="414.8,171.7 448.4,176.7 448.4,174.2 414.8,169.3 "/>
<polygon fill-rule="evenodd" clip-rule="evenodd" points="468.2,195.3 500.9,200.3 500.9,197.8 468.2,192.8 "/>
<polygon fill-rule="evenodd" clip-rule="evenodd" points="468.2,199 500.9,204 500.9,201.5 468.2,196.6 "/>
<rect x="53.7" y="34.3" width="10.5" height="0.8"/>
<rect x="53.7" y="39.3" width="10.5" height="0.8"/>
<rect x="53.7" y="44.3" width="10.5" height="0.8"/>
<rect x="62" y="20" width="0.5" height="26.4"/>
<g>
	<path d="M55.6,48c0-1.8,2.5-3.5,4.5-3.5c1.3,0,2.3,0.7,2.3,1.7c0,1.7-2.5,3.5-4.6,3.5C56.6,49.7,55.6,49.1,55.6,48z"/>
</g>
<rect x="66.3" y="34.3" width="10.5" height="0.8"/>
<rect x="66.3" y="39.3" width="10.5" height="0.8"/>
<rect x="74.6" y="18.4" width="0.5" height="22.9"/>
<g>
	<path d="M68.1,43c0-1.8,2.5-3.5,4.5-3.5c1.3,0,2.3,0.7,2.3,1.7c0,1.7-2.5,3.5-4.6,3.5C69.1,44.7,68.1,44.1,68.1,43z"/>
</g>
<rect x="78.8" y="34.3" width="10.5" height="0.8"/>
<rect x="87.1" y="16.7" width="0.5" height="19.7"/>
<g>
	<path d="M80.7,38.1c0-1.8,2.5-3.5,4.5-3.5c1.3,0,2.3,0.7,2.3,1.7c0,1.7-2.5,3.5-4.6,3.5C81.7,39.8,80.7,39.1,80.7,38.1z"/>
</g>
<rect x="99.7" y="15" width="0.5" height="16.4"/>
<g>
	<path d="M93.3,33.1c0-1.8,2.5-3.5,4.5-3.5c1.3,0,2.3,0.7,2.3,1.7c0,1.7-2.5,3.5-4.6,3.5C94.2,34.8,93.3,34.2,93.3,33.1z"/>
</g>
<rect x="112.2" y="5.1" width="0.5" height="23.9"/>
<g>
	<path d="M105.8,30.6c0-1.8,2.5-3.5,4.5-3.5c1.3,0,2.3,0.7,2.3,1.7c0,1.7-2.5,3.5-4.6,3.5C106.8,32.3,105.8,31.7,105.8,30.6z"/>
</g>
<rect x="124.6" y="3.6" width="0.5" height="20.5"/>
<g>
	<path d="M118.2,25.7c0-1.8,2.5-3.5,4.5-3.5c1.3,0,2.3,0.7,2.3,1.7c0,1.7-2.5,3.5-4.6,3.5C119.2,27.4,118.2,26.7,118.2,25.7z"/>
</g>
<rect x="137.2" y="1.9" width="0.5" height="17.2"/>
<g>
	<path d="M130.8,20.7c0-1.8,2.5-3.5,4.5-3.5c1.3,0,2.3,0.7,2.3,1.7c0,1.7-2.5,3.5-4.6,3.5C131.7,22.4,130.8,21.8,130.8,20.7z"/>
</g>
<rect x="149.8" y="0.2" width="0.5" height="14"/>
<g>
	<path d="M143.3,15.7c0-1.8,2.5-3.5,4.5-3.5c1.3,0,2.3,0.7,2.3,1.7c0,1.7-2.5,3.5-4.6,3.5C144.3,17.5,143.3,16.8,143.3,15.7z"/>
</g>
<rect x="155.8" y="13.2" width="0.5" height="21.4"/>
<g>
	<path d="M155.9,13.3c0-1.8,2.5-3.5,4.5-3.5c1.3,0,2.3,0.7,2.3,1.7c0,1.7-2.5,3.5-4.6,3.5C156.9,15,155.9,14.3,155.9,13.3z"/>
</g>
<rect x="168.4" y="15.7" width="0.5" height="20.5"/>
<g>
	<path d="M168.4,15.7c0-1.8,2.5-3.5,4.5-3.5c1.3,0,2.3,0.7,2.3,1.7c0,1.7-2.5,3.5-4.6,3.5C169.4,17.5,168.4,16.8,168.4,15.7z"/>
</g>
<rect x="180.9" y="20.6" width="0.5" height="17.2"/>
<g>
	<path d="M181,20.7c0-1.8,2.5-3.5,4.5-3.5c1.3,0,2.3,0.7,2.3,1.7c0,1.7-2.5,3.5-4.6,3.5C182,22.4,181,21.8,181,20.7z"/>
</g>
<rect x="193.5" y="25.6" width="0.5" height="14"/>
<g>
	<path d="M193.5,25.7c0-1.8,2.5-3.5,4.5-3.5c1.3,0,2.3,0.7,2.3,1.7c0,1.7-2.5,3.5-4.6,3.5C194.5,27.4,193.5,26.7,193.5,25.7z"/>
</g>
<rect x="212.5" y="15" width="0.5" height="14"/>
<g>
	<path d="M206.1,30.6c0-1.8,2.5-3.5,4.5-3.5c1.3,0,2.3,0.7,2.3,1.7c0,1.7-2.5,3.5-4.6,3.5C207.1,32.3,206.1,31.7,206.1,30.6z"/>
</g>
<rect x="224.9" y="16.6" width="0.5" height="14.9"/>
<g>
	<path d="M218.5,33.1c0-1.8,2.5-3.5,4.5-3.5c1.3,0,2.3,0.7,2.3,1.7c0,1.7-2.5,3.5-4.6,3.5C219.5,34.8,218.5,34.2,218.5,33.1z"/>
</g>
<rect x="229.2" y="34.3" width="10.5" height="0.8"/>
<rect x="237.5" y="18.3" width="0.5" height="18.1"/>
<g>
	<path d="M231.1,38.1c0-1.8,2.5-3.5,4.5-3.5c1.3,0,2.3,0.7,2.3,1.7c0,1.7-2.5,3.5-4.6,3.5C232,39.8,231.1,39.1,231.1,38.1z"/>
</g>
<rect x="241.8" y="34.3" width="10.5" height="0.8"/>
<rect x="241.8" y="39.3" width="10.5" height="0.8"/>
<rect x="250.1" y="20" width="0.5" height="21.4"/>
<g>
	<path d="M243.6,43c0-1.8,2.5-3.5,4.5-3.5c1.3,0,2.3,0.7,2.3,1.7c0,1.7-2.5,3.5-4.6,3.5C244.6,44.7,243.6,44.1,243.6,43z"/>
</g>
<rect x="254.3" y="34.3" width="10.7" height="0.8"/>
<rect x="254.3" y="39.3" width="10.7" height="0.8"/>
<rect x="254.3" y="44.3" width="10.7" height="0.8"/>
<rect x="262.8" y="19.8" width="0.5" height="26.5"/>
<g>
	<path d="M260.4,44.4c1.6,0,2.7,0.7,2.7,2c0,1.9-2.3,3.4-4.5,3.4c-1.3,0-2.4-0.7-2.4-1.8C256.2,46.2,258.4,44.4,260.4,44.4z
		 M256.6,48.3c0,0.6,0.4,0.9,1.1,0.9c1.4,0,4.9-2.1,4.9-3.3c0-0.6-0.4-0.9-1.1-0.9C260.3,45,256.6,47,256.6,48.3z"/>
</g>
<rect x="306.1" y="34.3" width="10.5" height="0.8"/>
<rect x="306.1" y="39.3" width="10.5" height="0.8"/>
<rect x="314.4" y="20" width="0.5" height="21.4"/>
<g>
	<path d="M307.9,43c0-1.8,2.5-3.5,4.5-3.5c1.3,0,2.3,0.7,2.3,1.7c0,1.7-2.5,3.5-4.6,3.5C308.9,44.7,307.9,44.1,307.9,43z"/>
</g>
<rect x="318.6" y="34.3" width="10.5" height="0.8"/>
<rect x="326.9" y="18.4" width="0.5" height="18"/>
<g>
	<path d="M320.5,38.1c0-1.8,2.5-3.5,4.5-3.5c1.3,0,2.3,0.7,2.3,1.7c0,1.7-2.5,3.5-4.6,3.5C321.5,39.8,320.5,39.1,320.5,38.1z"/>
</g>
<rect x="339.5" y="16.7" width="0.5" height="14.7"/>
<g>
	<path d="M333.1,33.1c0-1.8,2.5-3.5,4.5-3.5c1.3,0,2.3,0.7,2.3,1.7c0,1.7-2.5,3.5-4.6,3.5C334,34.8,333.1,34.2,333.1,33.1z"/>
</g>
<rect x="352.1" y="15" width="0.5" height="14"/>
<g>
	<path d="M345.6,30.6c0-1.8,2.5-3.5,4.5-3.5c1.3,0,2.3,0.7,2.3,1.7c0,1.7-2.5,3.5-4.6,3.5C346.6,32.3,345.6,31.7,345.6,30.6z"/>
</g>
<rect x="358.1" y="25.6" width="0.5" height="14"/>
<g>
	<path d="M358.2,25.7c0-1.8,2.5-3.5,4.5-3.5c1.3,0,2.3,0.7,2.3,1.7c0,1.7-2.5,3.5-4.6,3.5C359.1,27.4,358.2,26.7,358.2,25.7z"/>
</g>
<rect x="370.5" y="20.6" width="0.5" height="17.4"/>
<g>
	<path d="M370.6,20.7c0-1.8,2.5-3.5,4.5-3.5c1.3,0,2.3,0.7,2.3,1.7c0,1.7-2.5,3.5-4.6,3.5C371.5,22.4,370.6,21.8,370.6,20.7z"/>
</g>
<rect x="383.1" y="15.7" width="0.5" height="20.6"/>
<g>
	<path d="M383.1,15.7c0-1.8,2.5-3.5,4.5-3.5c1.3,0,2.3,0.7,2.3,1.7c0,1.7-2.5,3.5-4.6,3.5C384.1,17.5,383.1,16.8,383.1,15.7z"/>
</g>
<rect x="395.6" y="13.2" width="0.5" height="21.4"/>
<g>
	<path d="M395.7,13.3c0-1.8,2.5-3.5,4.5-3.5c1.3,0,2.3,0.7,2.3,1.7c0,1.7-2.5,3.5-4.6,3.5C396.7,15,395.7,14.3,395.7,13.3z"/>
</g>
<rect x="408.2" y="8.2" width="0.5" height="21.4"/>
<g>
	<path d="M408.2,8.3c0-1.8,2.5-3.5,4.5-3.5c1.3,0,2.3,0.7,2.3,1.7c0,1.7-2.5,3.5-4.6,3.5C409.2,10,408.2,9.4,408.2,8.3z"/>
</g>
<rect x="420.7" y="13.2" width="0.5" height="18"/>
<g>
	<path d="M420.8,13.3c0-1.8,2.5-3.5,4.5-3.5c1.3,0,2.3,0.7,2.3,1.7c0,1.7-2.5,3.5-4.6,3.5C421.8,15,420.8,14.3,420.8,13.3z"/>
</g>
<rect x="433.3" y="15.7" width="0.5" height="17.2"/>
<g>
	<path d="M433.4,15.7c0-1.8,2.5-3.5,4.5-3.5c1.3,0,2.3,0.7,2.3,1.7c0,1.7-2.5,3.5-4.6,3.5C434.3,17.5,433.4,16.8,433.4,15.7z"/>
</g>
<rect x="445.8" y="20.6" width="0.5" height="14"/>
<g>
	<path d="M445.9,20.7c0-1.8,2.5-3.5,4.5-3.5c1.3,0,2.3,0.7,2.3,1.7c0,1.7-2.5,3.5-4.6,3.5C446.9,22.4,445.9,21.8,445.9,20.7z"/>
</g>
<rect x="464.9" y="10.1" width="0.5" height="14"/>
<g>
	<path d="M458.5,25.7c0-1.8,2.5-3.5,4.5-3.5c1.3,0,2.3,0.7,2.3,1.7c0,1.7-2.5,3.5-4.6,3.5C459.4,27.4,458.5,26.7,458.5,25.7z"/>
</g>
<rect x="477.3" y="11.6" width="0.5" height="17.4"/>
<g>
	<path d="M470.9,30.6c0-1.8,2.5-3.5,4.5-3.5c1.3,0,2.3,0.7,2.3,1.7c0,1.7-2.5,3.5-4.6,3.5C471.8,32.3,470.9,31.7,470.9,30.6z"/>
</g>
<rect x="489.9" y="13.3" width="0.5" height="18.1"/>
<g>
	<path d="M483.4,33.1c0-1.8,2.5-3.5,4.5-3.5c1.3,0,2.3,0.7,2.3,1.7c0,1.7-2.5,3.5-4.6,3.5C484.4,34.8,483.4,34.2,483.4,33.1z"/>
</g>
<rect x="494.1" y="34.3" width="10.5" height="0.8"/>
<rect x="502.4" y="15" width="0.5" height="21.4"/>
<g>
	<path d="M496,38.1c0-1.8,2.5-3.5,4.5-3.5c1.3,0,2.3,0.7,2.3,1.7c0,1.7-2.5,3.5-4.6,3.5C497,39.8,496,39.1,496,38.1z"/>
</g>
<rect x="506.7" y="34.3" width="10.7" height="0.8"/>
<rect x="506.7" y="39.3" width="10.7" height="0.8"/>
<rect x="515.1" y="19.8" width="0.5" height="21.5"/>
<g>
	<path d="M512.8,39.5c1.6,0,2.7,0.7,2.7,2c0,1.9-2.3,3.4-4.5,3.4c-1.3,0-2.4-0.7-2.4-1.8C508.5,41.3,510.8,39.5,512.8,39.5z
		 M509,43.3c0,0.6,0.4,0.9,1.1,0.9c1.4,0,4.9-2.1,4.9-3.3c0-0.6-0.4-0.9-1.1-0.9C512.7,40.1,509,42.1,509,43.3z"/>
</g>
<rect x="53.7" y="81.5" width="10.5" height="0.8"/>
<rect x="62" y="57.2" width="0.5" height="23.9"/>
<g>
	<path d="M55.6,82.7c0-1.8,2.5-3.5,4.5-3.5c1.3,0,2.3,0.7,2.3,1.7c0,1.7-2.5,3.5-4.6,3.5C56.6,84.4,55.6,83.8,55.6,82.7z"/>
</g>
<rect x="74.6" y="55.6" width="0.5" height="20.5"/>
<g>
	<path d="M68.1,77.7c0-1.8,2.5-3.5,4.5-3.5c1.3,0,2.3,0.7,2.3,1.7c0,1.7-2.5,3.5-4.6,3.5C69.1,79.5,68.1,78.8,68.1,77.7z"/>
</g>
<rect x="87.1" y="53.9" width="0.5" height="17.2"/>
<g>
	<path d="M80.7,72.8c0-1.8,2.5-3.5,4.5-3.5c1.3,0,2.3,0.7,2.3,1.7c0,1.7-2.5,3.5-4.6,3.5C81.7,74.5,80.7,73.9,80.7,72.8z"/>
</g>
<rect x="99.7" y="52.2" width="0.5" height="14"/>
<g>
	<path d="M93.3,67.8c0-1.8,2.5-3.5,4.5-3.5c1.3,0,2.3,0.7,2.3,1.7c0,1.7-2.5,3.5-4.6,3.5C94.2,69.5,93.3,68.9,93.3,67.8z"/>
</g>
<rect x="105.7" y="65.3" width="0.5" height="16.4"/>
<g>
	<path d="M105.8,65.3c0-1.8,2.5-3.5,4.5-3.5c1.3,0,2.3,0.7,2.3,1.7c0,1.7-2.5,3.5-4.6,3.5C106.8,67.1,105.8,66.4,105.8,65.3z"/>
</g>
<rect x="118.1" y="60.3" width="0.5" height="19.8"/>
<g>
	<path d="M118.2,60.4c0-1.8,2.5-3.5,4.5-3.5c1.3,0,2.3,0.7,2.3,1.7c0,1.7-2.5,3.5-4.6,3.5C119.2,62.1,118.2,61.5,118.2,60.4z"/>
</g>
<rect x="130.7" y="55.3" width="0.5" height="23.1"/>
<g>
	<path d="M130.8,55.4c0-1.8,2.5-3.5,4.5-3.5c1.3,0,2.3,0.7,2.3,1.7c0,1.7-2.5,3.5-4.6,3.5C131.7,57.1,130.8,56.5,130.8,55.4z"/>
</g>
<rect x="141.5" y="51.7" width="10.5" height="0.8"/>
<rect x="143.2" y="50.4" width="0.5" height="26.4"/>
<g>
	<path d="M143.3,50.5c0-1.8,2.5-3.5,4.5-3.5c1.3,0,2.3,0.7,2.3,1.7c0,1.7-2.5,3.5-4.6,3.5C144.3,52.2,143.3,51.5,143.3,50.5z"/>
</g>
<rect x="154" y="51.7" width="10.5" height="0.8"/>
<rect x="154" y="46.7" width="10.5" height="0.8"/>
<rect x="155.8" y="47.9" width="0.5" height="23.9"/>
<g>
	<path d="M155.9,48c0-1.8,2.5-3.5,4.5-3.5c1.3,0,2.3,0.7,2.3,1.7c0,1.7-2.5,3.5-4.6,3.5C156.9,49.7,155.9,49.1,155.9,48z"/>
</g>
<rect x="166.6" y="51.7" width="10.5" height="0.8"/>
<rect x="168.4" y="50.4" width="0.5" height="22.9"/>
<g>
	<path d="M168.4,50.5c0-1.8,2.5-3.5,4.5-3.5c1.3,0,2.3,0.7,2.3,1.7c0,1.7-2.5,3.5-4.6,3.5C169.4,52.2,168.4,51.5,168.4,50.5z"/>
</g>
<rect x="180.9" y="55.3" width="0.5" height="19.7"/>
<g>
	<path d="M181,55.4c0-1.8,2.5-3.5,4.5-3.5c1.3,0,2.3,0.7,2.3,1.7c0,1.7-2.5,3.5-4.6,3.5C182,57.1,181,56.5,181,55.4z"/>
</g>
<rect x="193.5" y="60.3" width="0.5" height="16.4"/>
<g>
	<path d="M193.5,60.4c0-1.8,2.5-3.5,4.5-3.5c1.3,0,2.3,0.7,2.3,1.7c0,1.7-2.5,3.5-4.6,3.5C194.5,62.1,193.5,61.5,193.5,60.4z"/>
</g>
<rect x="212.5" y="47.3" width="0.5" height="16.4"/>
<g>
	<path d="M206.1,65.3c0-1.8,2.5-3.5,4.5-3.5c1.3,0,2.3,0.7,2.3,1.7c0,1.7-2.5,3.5-4.6,3.5C207.1,67.1,206.1,66.4,206.1,65.3z"/>
</g>
<rect x="224.9" y="48.8" width="0.5" height="17.4"/>
<g>
	<path d="M218.5,67.8c0-1.8,2.5-3.5,4.5-3.5c1.3,0,2.3,0.7,2.3,1.7c0,1.7-2.5,3.5-4.6,3.5C219.5,69.5,218.5,68.9,218.5,67.8z"/>
</g>
<rect x="237.5" y="50.5" width="0.5" height="20.6"/>
<g>
	<path d="M231.1,72.8c0-1.8,2.5-3.5,4.5-3.5c1.3,0,2.3,0.7,2.3,1.7c0,1.7-2.5,3.5-4.6,3.5C232,74.5,231.1,73.9,231.1,72.8z"/>
</g>
<rect x="250.1" y="52.2" width="0.5" height="23.9"/>
<g>
	<path d="M243.6,77.7c0-1.8,2.5-3.5,4.5-3.5c1.3,0,2.3,0.7,2.3,1.7c0,1.7-2.5,3.5-4.6,3.5C244.6,79.5,243.6,78.8,243.6,77.7z"/>
</g>
<rect x="254.3" y="81.5" width="10.7" height="0.8"/>
<rect x="262.8" y="64.5" width="0.5" height="16.6"/>
<g>
	<path d="M260.4,79.1c1.6,0,2.7,0.7,2.7,2c0,1.9-2.3,3.4-4.5,3.4c-1.3,0-2.4-0.7-2.4-1.8C256.2,80.9,258.4,79.1,260.4,79.1z
		 M256.6,83c0,0.6,0.4,0.9,1.1,0.9c1.4,0,4.9-2.1,4.9-3.3c0-0.6-0.4-0.9-1.1-0.9C260.3,79.7,256.6,81.8,256.6,83z"/>
</g>
<rect x="314.4" y="52.2" width="0.5" height="23.9"/>
<g>
	<path d="M307.9,77.7c0-1.8,2.5-3.5,4.5-3.5c1.3,0,2.3,0.7,2.3,1.7c0,1.7-2.5,3.5-4.6,3.5C308.9,79.5,307.9,78.8,307.9,77.7z"/>
</g>
<rect x="326.9" y="50.7" width="0.5" height="20.5"/>
<g>
	<path d="M320.5,72.8c0-1.8,2.5-3.5,4.5-3.5c1.3,0,2.3,0.7,2.3,1.7c0,1.7-2.5,3.5-4.6,3.5C321.5,74.5,320.5,73.9,320.5,72.8z"/>
</g>
<rect x="339.5" y="49" width="0.5" height="17.2"/>
<g>
	<path d="M333.1,67.8c0-1.8,2.5-3.5,4.5-3.5c1.3,0,2.3,0.7,2.3,1.7c0,1.7-2.5,3.5-4.6,3.5C334,69.5,333.1,68.9,333.1,67.8z"/>
</g>
<rect x="352.1" y="47.3" width="0.5" height="16.4"/>
<g>
	<path d="M345.6,65.3c0-1.8,2.5-3.5,4.5-3.5c1.3,0,2.3,0.7,2.3,1.7c0,1.7-2.5,3.5-4.6,3.5C346.6,67.1,345.6,66.4,345.6,65.3z"/>
</g>
<rect x="358.1" y="60.3" width="0.5" height="16.4"/>
<g>
	<path d="M358.2,60.4c0-1.8,2.5-3.5,4.5-3.5c1.3,0,2.3,0.7,2.3,1.7c0,1.7-2.5,3.5-4.6,3.5C359.1,62.1,358.2,61.5,358.2,60.4z"/>
</g>
<rect x="370.5" y="55.3" width="0.5" height="19.8"/>
<g>
	<path d="M370.6,55.4c0-1.8,2.5-3.5,4.5-3.5c1.3,0,2.3,0.7,2.3,1.7c0,1.7-2.5,3.5-4.6,3.5C371.5,57.1,370.6,56.5,370.6,55.4z"/>
</g>
<rect x="381.3" y="51.7" width="10.5" height="0.8"/>
<rect x="383.1" y="50.4" width="0.5" height="23.1"/>
<g>
	<path d="M383.1,50.5c0-1.8,2.5-3.5,4.5-3.5c1.3,0,2.3,0.7,2.3,1.7c0,1.7-2.5,3.5-4.6,3.5C384.1,52.2,383.1,51.5,383.1,50.5z"/>
</g>
<rect x="393.8" y="51.7" width="10.5" height="0.8"/>
<rect x="393.8" y="46.7" width="10.5" height="0.8"/>
<rect x="395.6" y="47.9" width="0.5" height="23.9"/>
<g>
	<path d="M395.7,48c0-1.8,2.5-3.5,4.5-3.5c1.3,0,2.3,0.7,2.3,1.7c0,1.7-2.5,3.5-4.6,3.5C396.7,49.7,395.7,49.1,395.7,48z"/>
</g>
<rect x="406.4" y="51.7" width="10.5" height="0.8"/>
<rect x="406.4" y="46.7" width="10.5" height="0.8"/>
<rect x="406.4" y="41.8" width="10.5" height="0.8"/>
<rect x="408.2" y="42.9" width="0.5" height="23.9"/>
<g>
	<path d="M408.2,43c0-1.8,2.5-3.5,4.5-3.5c1.3,0,2.3,0.7,2.3,1.7c0,1.7-2.5,3.5-4.6,3.5C409.2,44.7,408.2,44.1,408.2,43z"/>
</g>
<rect x="418.9" y="51.7" width="10.5" height="0.8"/>
<rect x="418.9" y="46.7" width="10.5" height="0.8"/>
<rect x="420.7" y="47.9" width="0.5" height="20.5"/>
<g>
	<path d="M420.8,48c0-1.8,2.5-3.5,4.5-3.5c1.3,0,2.3,0.7,2.3,1.7c0,1.7-2.5,3.5-4.6,3.5C421.8,49.7,420.8,49.1,420.8,48z"/>
</g>
<rect x="431.5" y="51.7" width="10.5" height="0.8"/>
<rect x="433.3" y="50.4" width="0.5" height="19.7"/>
<g>
	<path d="M433.4,50.5c0-1.8,2.5-3.5,4.5-3.5c1.3,0,2.3,0.7,2.3,1.7c0,1.7-2.5,3.5-4.6,3.5C434.3,52.2,433.4,51.5,433.4,50.5z"/>
</g>
<rect x="445.8" y="55.3" width="0.5" height="16.4"/>
<g>
	<path d="M445.9,55.4c0-1.8,2.5-3.5,4.5-3.5c1.3,0,2.3,0.7,2.3,1.7c0,1.7-2.5,3.5-4.6,3.5C446.9,57.1,445.9,56.5,445.9,55.4z"/>
</g>
<rect x="458.4" y="60.3" width="0.5" height="21.4"/>
<g>
	<path d="M458.5,60.4c0-1.8,2.5-3.5,4.5-3.5c1.3,0,2.3,0.7,2.3,1.7c0,1.7-2.5,3.5-4.6,3.5C459.4,62.1,458.5,61.5,458.5,60.4z"/>
</g>
<rect x="470.8" y="65.3" width="0.5" height="18"/>
<g>
	<path d="M470.9,65.3c0-1.8,2.5-3.5,4.5-3.5c1.3,0,2.3,0.7,2.3,1.7c0,1.7-2.5,3.5-4.6,3.5C471.8,67.1,470.9,66.4,470.9,65.3z"/>
</g>
<rect x="483.3" y="67.7" width="0.5" height="17.2"/>
<g>
	<path d="M483.4,67.8c0-1.8,2.5-3.5,4.5-3.5c1.3,0,2.3,0.7,2.3,1.7c0,1.7-2.5,3.5-4.6,3.5C484.4,69.5,483.4,68.9,483.4,67.8z"/>
</g>
<rect x="495.9" y="72.7" width="0.5" height="14"/>
<g>
	<path d="M496,72.8c0-1.8,2.5-3.5,4.5-3.5c1.3,0,2.3,0.7,2.3,1.7c0,1.7-2.5,3.5-4.6,3.5C497,74.5,496,73.9,496,72.8z"/>
</g>
<rect x="515.1" y="59.5" width="0.5" height="16.6"/>
<g>
	<path d="M512.8,74.2c1.6,0,2.7,0.7,2.7,2c0,1.9-2.3,3.4-4.5,3.4c-1.3,0-2.4-0.7-2.4-1.8C508.5,76,510.8,74.2,512.8,74.2z M509,78
		c0,0.6,0.4,0.9,1.1,0.9c1.4,0,4.9-2.1,4.9-3.3c0-0.6-0.4-0.9-1.1-0.9C512.7,74.8,509,76.8,509,78z"/>
</g>
<rect x="53.7" y="156.5" width="10.5" height="0.8"/>
<rect x="62" y="137.2" width="0.5" height="21.4"/>
<g>
	<path d="M55.6,160.2c0-1.8,2.5-3.5,4.5-3.5c1.3,0,2.3,0.7,2.3,1.7c0,1.7-2.5,3.5-4.6,3.5C56.6,161.9,55.6,161.3,55.6,160.2z"/>
</g>
<rect x="72.9" y="135.6" width="0.5" height="18"/>
<g>
	<path d="M66.4,155.2c0-1.8,2.5-3.5,4.5-3.5c1.3,0,2.3,0.7,2.3,1.7c0,1.7-2.5,3.5-4.6,3.5C67.4,157,66.4,156.3,66.4,155.2z"/>
</g>
<rect x="83.9" y="133.9" width="0.5" height="17.2"/>
<g>
	<path d="M77.4,152.8c0-1.8,2.5-3.5,4.5-3.5c1.3,0,2.3,0.7,2.3,1.7c0,1.7-2.5,3.5-4.6,3.5C78.4,154.5,77.4,153.9,77.4,152.8z"/>
</g>
<rect x="94.7" y="132.2" width="0.5" height="14"/>
<g>
	<path d="M88.3,147.8c0-1.8,2.5-3.5,4.5-3.5c1.3,0,2.3,0.7,2.3,1.7c0,1.7-2.5,3.5-4.6,3.5C89.3,149.5,88.3,148.9,88.3,147.8z"/>
</g>
<rect x="114.6" y="142.8" width="0.5" height="14"/>
<g>
	<path d="M114.6,142.8c0-1.8,2.5-3.5,4.5-3.5c1.3,0,2.3,0.7,2.3,1.7c0,1.7-2.5,3.5-4.6,3.5C115.6,144.6,114.6,143.9,114.6,142.8z"/>
</g>
<rect x="125.6" y="137.8" width="0.5" height="17.4"/>
<g>
	<path d="M125.7,137.9c0-1.8,2.5-3.5,4.5-3.5c1.3,0,2.3,0.7,2.3,1.7c0,1.7-2.5,3.5-4.6,3.5C126.6,139.6,125.7,139,125.7,137.9z"/>
</g>
<rect x="136.4" y="135.3" width="0.5" height="18.1"/>
<g>
	<path d="M136.5,135.4c0-1.8,2.5-3.5,4.5-3.5c1.3,0,2.3,0.7,2.3,1.7c0,1.7-2.5,3.5-4.6,3.5C137.5,137.1,136.5,136.5,136.5,135.4z"/>
</g>
<rect x="147.4" y="130.4" width="0.5" height="21.4"/>
<g>
	<path d="M147.5,130.4c0-1.8,2.5-3.5,4.5-3.5c1.3,0,2.3,0.7,2.3,1.7c0,1.7-2.5,3.5-4.6,3.5C148.5,132.2,147.5,131.5,147.5,130.4z"/>
</g>
<rect x="156.5" y="126.7" width="10.5" height="0.8"/>
<rect x="158.3" y="125.4" width="0.5" height="21.4"/>
<g>
	<path d="M158.4,125.5c0-1.8,2.5-3.5,4.5-3.5c1.3,0,2.3,0.7,2.3,1.7c0,1.7-2.5,3.5-4.6,3.5C159.3,127.2,158.4,126.6,158.4,125.5z"/>
</g>
<rect x="169.3" y="130.4" width="0.5" height="18"/>
<g>
	<path d="M169.4,130.4c0-1.8,2.5-3.5,4.5-3.5c1.3,0,2.3,0.7,2.3,1.7c0,1.7-2.5,3.5-4.6,3.5C170.3,132.2,169.4,131.5,169.4,130.4z"/>
</g>
<rect x="180.1" y="135.3" width="0.5" height="14.7"/>
<g>
	<path d="M180.2,135.4c0-1.8,2.5-3.5,4.5-3.5c1.3,0,2.3,0.7,2.3,1.7c0,1.7-2.5,3.5-4.6,3.5C181.2,137.1,180.2,136.5,180.2,135.4z"/>
</g>
<rect x="191.1" y="137.8" width="0.5" height="14"/>
<g>
	<path d="M191.2,137.9c0-1.8,2.5-3.5,4.5-3.5c1.3,0,2.3,0.7,2.3,1.7c0,1.7-2.5,3.5-4.6,3.5C192.2,139.6,191.2,139,191.2,137.9z"/>
</g>
<rect x="222.1" y="127.3" width="0.5" height="14"/>
<g>
	<path d="M215.7,142.8c0-1.8,2.5-3.5,4.5-3.5c1.3,0,2.3,0.7,2.3,1.7c0,1.7-2.5,3.5-4.6,3.5C216.7,144.6,215.7,143.9,215.7,142.8z"/>
</g>
<rect x="233" y="128.8" width="0.5" height="17.4"/>
<g>
	<path d="M226.6,147.8c0-1.8,2.5-3.5,4.5-3.5c1.3,0,2.3,0.7,2.3,1.7c0,1.7-2.5,3.5-4.6,3.5C227.5,149.5,226.6,148.9,226.6,147.8z"/>
</g>
<rect x="244" y="130.5" width="0.5" height="20.6"/>
<g>
	<path d="M237.6,152.8c0-1.8,2.5-3.5,4.5-3.5c1.3,0,2.3,0.7,2.3,1.7c0,1.7-2.5,3.5-4.6,3.5C238.5,154.5,237.6,153.9,237.6,152.8z"/>
</g>
<rect x="254.9" y="132.2" width="0.5" height="21.4"/>
<g>
	<path d="M248.4,155.2c0-1.8,2.5-3.5,4.5-3.5c1.3,0,2.3,0.7,2.3,1.7c0,1.7-2.5,3.5-4.6,3.5C249.4,157,248.4,156.3,248.4,155.2z"/>
</g>
<rect x="257.6" y="156.5" width="10.7" height="0.8"/>
<rect x="266" y="142" width="0.5" height="16.6"/>
<g>
	<path d="M263.7,156.7c1.6,0,2.7,0.7,2.7,2c0,1.9-2.3,3.4-4.5,3.4c-1.3,0-2.4-0.7-2.4-1.8C259.4,158.4,261.7,156.7,263.7,156.7z
		 M259.9,160.5c0,0.6,0.4,0.9,1.1,0.9c1.4,0,4.9-2.1,4.9-3.3c0-0.6-0.4-0.9-1.1-0.9C263.6,157.2,259.9,159.3,259.9,160.5z"/>
</g>
<rect x="312.7" y="132.2" width="0.5" height="21.4"/>
<g>
	<path d="M306.2,155.2c0-1.8,2.5-3.5,4.5-3.5c1.3,0,2.3,0.7,2.3,1.7c0,1.7-2.5,3.5-4.6,3.5C307.2,157,306.2,156.3,306.2,155.2z"/>
</g>
<rect x="323.5" y="130.7" width="0.5" height="20.5"/>
<g>
	<path d="M317.1,152.8c0-1.8,2.5-3.5,4.5-3.5c1.3,0,2.3,0.7,2.3,1.7c0,1.7-2.5,3.5-4.6,3.5C318.1,154.5,317.1,153.9,317.1,152.8z"/>
</g>
<rect x="334.5" y="129" width="0.5" height="17.2"/>
<g>
	<path d="M328.1,147.8c0-1.8,2.5-3.5,4.5-3.5c1.3,0,2.3,0.7,2.3,1.7c0,1.7-2.5,3.5-4.6,3.5C329.1,149.5,328.1,148.9,328.1,147.8z"/>
</g>
<rect x="345.4" y="127.3" width="0.5" height="14"/>
<g>
	<path d="M339,142.8c0-1.8,2.5-3.5,4.5-3.5c1.3,0,2.3,0.7,2.3,1.7c0,1.7-2.5,3.5-4.6,3.5C339.9,144.6,339,143.9,339,142.8z"/>
</g>
<rect x="363.4" y="137.8" width="0.5" height="14"/>
<g>
	<path d="M363.4,137.9c0-1.8,2.5-3.5,4.5-3.5c1.3,0,2.3,0.7,2.3,1.7c0,1.7-2.5,3.5-4.6,3.5C364.4,139.6,363.4,139,363.4,137.9z"/>
</g>
<rect x="374.4" y="135.3" width="0.5" height="14.9"/>
<g>
	<path d="M374.4,135.4c0-1.8,2.5-3.5,4.5-3.5c1.3,0,2.3,0.7,2.3,1.7c0,1.7-2.5,3.5-4.6,3.5C375.4,137.1,374.4,136.5,374.4,135.4z"/>
</g>
<rect x="385.2" y="130.4" width="0.5" height="18.1"/>
<g>
	<path d="M385.3,130.4c0-1.8,2.5-3.5,4.5-3.5c1.3,0,2.3,0.7,2.3,1.7c0,1.7-2.5,3.5-4.6,3.5C386.3,132.2,385.3,131.5,385.3,130.4z"/>
</g>
<rect x="394.4" y="126.7" width="10.5" height="0.8"/>
<rect x="396.2" y="125.4" width="0.5" height="21.4"/>
<g>
	<path d="M396.3,125.5c0-1.8,2.5-3.5,4.5-3.5c1.3,0,2.3,0.7,2.3,1.7c0,1.7-2.5,3.5-4.6,3.5C397.3,127.2,396.3,126.6,396.3,125.5z"/>
</g>
<rect x="406.2" y="126.7" width="10.5" height="0.8"/>
<rect x="406.2" y="121.8" width="10.5" height="0.8"/>
<rect x="408" y="120.4" width="0.5" height="26.4"/>
<g>
	<path d="M408.1,120.5c0-1.8,2.5-3.5,4.5-3.5c1.3,0,2.3,0.7,2.3,1.7c0,1.7-2.5,3.5-4.6,3.5C409.1,122.2,408.1,121.6,408.1,120.5z"/>
</g>
<rect x="418" y="126.7" width="10.5" height="0.8"/>
<rect x="419.8" y="125.4" width="0.5" height="23.1"/>
<g>
	<path d="M419.9,125.5c0-1.8,2.5-3.5,4.5-3.5c1.3,0,2.3,0.7,2.3,1.7c0,1.7-2.5,3.5-4.6,3.5C420.8,127.2,419.9,126.6,419.9,125.5z"/>
</g>
<rect x="430.6" y="130.4" width="0.5" height="19.7"/>
<g>
	<path d="M430.7,130.4c0-1.8,2.5-3.5,4.5-3.5c1.3,0,2.3,0.7,2.3,1.7c0,1.7-2.5,3.5-4.6,3.5C431.7,132.2,430.7,131.5,430.7,130.4z"/>
</g>
<rect x="441.6" y="135.3" width="0.5" height="16.4"/>
<g>
	<path d="M441.7,135.4c0-1.8,2.5-3.5,4.5-3.5c1.3,0,2.3,0.7,2.3,1.7c0,1.7-2.5,3.5-4.6,3.5C442.7,137.1,441.7,136.5,441.7,135.4z"/>
</g>
<rect x="474.5" y="122.3" width="0.5" height="14"/>
<g>
	<path d="M468.1,137.9c0-1.8,2.5-3.5,4.5-3.5c1.3,0,2.3,0.7,2.3,1.7c0,1.7-2.5,3.5-4.6,3.5C469.1,139.6,468.1,139,468.1,137.9z"/>
</g>
<rect x="485.4" y="123.9" width="0.5" height="17.4"/>
<g>
	<path d="M478.9,142.8c0-1.8,2.5-3.5,4.5-3.5c1.3,0,2.3,0.7,2.3,1.7c0,1.7-2.5,3.5-4.6,3.5C479.9,144.6,478.9,143.9,478.9,142.8z"/>
</g>
<rect x="496.4" y="125.6" width="0.5" height="20.6"/>
<g>
	<path d="M489.9,147.8c0-1.8,2.5-3.5,4.5-3.5c1.3,0,2.3,0.7,2.3,1.7c0,1.7-2.5,3.5-4.6,3.5C490.9,149.5,489.9,148.9,489.9,147.8z"/>
</g>
<rect x="507.2" y="127.3" width="0.5" height="23.9"/>
<g>
	<path d="M500.8,152.8c0-1.8,2.5-3.5,4.5-3.5c1.3,0,2.3,0.7,2.3,1.7c0,1.7-2.5,3.5-4.6,3.5C501.8,154.5,500.8,153.9,500.8,152.8z"/>
</g>
<rect x="518.4" y="137" width="0.5" height="16.6"/>
<g>
	<path d="M516.1,151.7c1.6,0,2.7,0.7,2.7,2c0,1.9-2.3,3.4-4.5,3.4c-1.3,0-2.4-0.7-2.4-1.8C511.8,153.5,514,151.7,516.1,151.7z
		 M512.2,155.5c0,0.6,0.4,0.9,1.1,0.9c1.4,0,4.9-2.1,4.9-3.3c0-0.6-0.4-0.9-1.1-0.9C515.9,152.3,512.2,154.3,512.2,155.5z"/>
</g>
<rect x="55.5" y="194.8" width="0.5" height="14"/>
<g>
	<path d="M55.6,194.9c0-1.8,2.5-3.5,4.5-3.5c1.3,0,2.3,0.7,2.3,1.7c0,1.7-2.5,3.5-4.6,3.5C56.6,196.6,55.6,196,55.6,194.9z"/>
</g>
<rect x="66.4" y="189.9" width="0.5" height="17.4"/>
<g>
	<path d="M66.4,190c0-1.8,2.5-3.5,4.5-3.5c1.3,0,2.3,0.7,2.3,1.7c0,1.7-2.5,3.5-4.6,3.5C67.4,191.7,66.4,191.1,66.4,190z"/>
</g>
<rect x="77.4" y="187.4" width="0.5" height="18.1"/>
<g>
	<path d="M77.4,187.5c0-1.8,2.5-3.5,4.5-3.5c1.3,0,2.3,0.7,2.3,1.7c0,1.7-2.5,3.5-4.6,3.5C78.4,189.2,77.4,188.6,77.4,187.5z"/>
</g>
<rect x="88.2" y="182.4" width="0.5" height="21.4"/>
<g>
	<path d="M88.3,182.5c0-1.8,2.5-3.5,4.5-3.5c1.3,0,2.3,0.7,2.3,1.7c0,1.7-2.5,3.5-4.6,3.5C89.3,184.2,88.3,183.6,88.3,182.5z"/>
</g>
<rect x="112.8" y="203.6" width="10.5" height="0.8"/>
<rect x="121.1" y="184.3" width="0.5" height="21.4"/>
<g>
	<path d="M114.6,207.3c0-1.8,2.5-3.5,4.5-3.5c1.3,0,2.3,0.7,2.3,1.7c0,1.7-2.5,3.5-4.6,3.5C115.6,209,114.6,208.4,114.6,207.3z"/>
</g>
<rect x="132.1" y="182.8" width="0.5" height="18"/>
<g>
	<path d="M125.7,202.4c0-1.8,2.5-3.5,4.5-3.5c1.3,0,2.3,0.7,2.3,1.7c0,1.7-2.5,3.5-4.6,3.5C126.6,204.1,125.7,203.5,125.7,202.4z"/>
</g>
<rect x="142.9" y="181" width="0.5" height="17.2"/>
<g>
	<path d="M136.5,199.9c0-1.8,2.5-3.5,4.5-3.5c1.3,0,2.3,0.7,2.3,1.7c0,1.7-2.5,3.5-4.6,3.5C137.5,201.6,136.5,201,136.5,199.9z"/>
</g>
<rect x="153.9" y="179.3" width="0.5" height="14"/>
<g>
	<path d="M147.5,194.9c0-1.8,2.5-3.5,4.5-3.5c1.3,0,2.3,0.7,2.3,1.7c0,1.7-2.5,3.5-4.6,3.5C148.5,196.6,147.5,196,147.5,194.9z"/>
</g>
<rect x="164.8" y="174.4" width="0.5" height="14"/>
<g>
	<path d="M158.4,190c0-1.8,2.5-3.5,4.5-3.5c1.3,0,2.3,0.7,2.3,1.7c0,1.7-2.5,3.5-4.6,3.5C159.3,191.7,158.4,191.1,158.4,190z"/>
</g>
<rect x="175.8" y="175.9" width="0.5" height="17.4"/>
<g>
	<path d="M169.4,194.9c0-1.8,2.5-3.5,4.5-3.5c1.3,0,2.3,0.7,2.3,1.7c0,1.7-2.5,3.5-4.6,3.5C170.3,196.6,169.4,196,169.4,194.9z"/>
</g>
<rect x="186.6" y="177.6" width="0.5" height="20.6"/>
<g>
	<path d="M180.2,199.9c0-1.8,2.5-3.5,4.5-3.5c1.3,0,2.3,0.7,2.3,1.7c0,1.7-2.5,3.5-4.6,3.5C181.2,201.6,180.2,201,180.2,199.9z"/>
</g>
<rect x="197.7" y="179.3" width="0.5" height="21.4"/>
<g>
	<path d="M191.2,202.4c0-1.8,2.5-3.5,4.5-3.5c1.3,0,2.3,0.7,2.3,1.7c0,1.7-2.5,3.5-4.6,3.5C192.2,204.1,191.2,203.5,191.2,202.4z"/>
</g>
<rect x="215.6" y="177.5" width="0.5" height="21.4"/>
<g>
	<path d="M215.7,177.6c0-1.8,2.5-3.5,4.5-3.5c1.3,0,2.3,0.7,2.3,1.7c0,1.7-2.5,3.5-4.6,3.5C216.7,179.3,215.7,178.7,215.7,177.6z"/>
</g>
<rect x="226.5" y="182.4" width="0.5" height="18"/>
<g>
	<path d="M226.6,182.5c0-1.8,2.5-3.5,4.5-3.5c1.3,0,2.3,0.7,2.3,1.7c0,1.7-2.5,3.5-4.6,3.5C227.5,184.2,226.6,183.6,226.6,182.5z"/>
</g>
<rect x="237.5" y="187.4" width="0.5" height="14.7"/>
<g>
	<path d="M237.6,187.5c0-1.8,2.5-3.5,4.5-3.5c1.3,0,2.3,0.7,2.3,1.7c0,1.7-2.5,3.5-4.6,3.5C238.5,189.2,237.6,188.6,237.6,187.5z"/>
</g>
<rect x="248.3" y="189.9" width="0.5" height="14"/>
<g>
	<path d="M248.4,190c0-1.8,2.5-3.5,4.5-3.5c1.3,0,2.3,0.7,2.3,1.7c0,1.7-2.5,3.5-4.6,3.5C249.4,191.7,248.4,191.1,248.4,190z"/>
</g>
<rect x="266" y="176.7" width="0.5" height="16.6"/>
<g>
	<path d="M263.7,191.4c1.6,0,2.7,0.7,2.7,2c0,1.9-2.3,3.4-4.5,3.4c-1.3,0-2.4-0.7-2.4-1.8C259.4,193.2,261.7,191.4,263.7,191.4z
		 M259.9,195.2c0,0.6,0.4,0.9,1.1,0.9c1.4,0,4.9-2.1,4.9-3.3c0-0.6-0.4-0.9-1.1-0.9C263.6,192,259.9,194,259.9,195.2z"/>
</g>
<rect x="306.2" y="189.9" width="0.5" height="14"/>
<g>
	<path d="M306.2,190c0-1.8,2.5-3.5,4.5-3.5c1.3,0,2.3,0.7,2.3,1.7c0,1.7-2.5,3.5-4.6,3.5C307.2,191.7,306.2,191.1,306.2,190z"/>
</g>
<rect x="317" y="187.4" width="0.5" height="14.9"/>
<g>
	<path d="M317.1,187.5c0-1.8,2.5-3.5,4.5-3.5c1.3,0,2.3,0.7,2.3,1.7c0,1.7-2.5,3.5-4.6,3.5C318.1,189.2,317.1,188.6,317.1,187.5z"/>
</g>
<rect x="328" y="182.4" width="0.5" height="18.1"/>
<g>
	<path d="M328.1,182.5c0-1.8,2.5-3.5,4.5-3.5c1.3,0,2.3,0.7,2.3,1.7c0,1.7-2.5,3.5-4.6,3.5C329.1,184.2,328.1,183.6,328.1,182.5z"/>
</g>
<rect x="338.9" y="177.5" width="0.5" height="21.4"/>
<g>
	<path d="M339,177.6c0-1.8,2.5-3.5,4.5-3.5c1.3,0,2.3,0.7,2.3,1.7c0,1.7-2.5,3.5-4.6,3.5C339.9,179.3,339,178.7,339,177.6z"/>
</g>
<rect x="369.9" y="179.3" width="0.5" height="21.4"/>
<g>
	<path d="M363.4,202.4c0-1.8,2.5-3.5,4.5-3.5c1.3,0,2.3,0.7,2.3,1.7c0,1.7-2.5,3.5-4.6,3.5C364.4,204.1,363.4,203.5,363.4,202.4z"/>
</g>
<rect x="380.9" y="177.8" width="0.5" height="20.5"/>
<g>
	<path d="M374.4,199.9c0-1.8,2.5-3.5,4.5-3.5c1.3,0,2.3,0.7,2.3,1.7c0,1.7-2.5,3.5-4.6,3.5C375.4,201.6,374.4,201,374.4,199.9z"/>
</g>
<rect x="391.7" y="176.1" width="0.5" height="17.2"/>
<g>
	<path d="M385.3,194.9c0-1.8,2.5-3.5,4.5-3.5c1.3,0,2.3,0.7,2.3,1.7c0,1.7-2.5,3.5-4.6,3.5C386.3,196.6,385.3,196,385.3,194.9z"/>
</g>
<rect x="402.7" y="174.4" width="0.5" height="14"/>
<g>
	<path d="M396.3,190c0-1.8,2.5-3.5,4.5-3.5c1.3,0,2.3,0.7,2.3,1.7c0,1.7-2.5,3.5-4.6,3.5C397.3,191.7,396.3,191.1,396.3,190z"/>
</g>
<rect x="414.5" y="169.4" width="0.5" height="14"/>
<g>
	<path d="M408.1,185c0-1.8,2.5-3.5,4.5-3.5c1.3,0,2.3,0.7,2.3,1.7c0,1.7-2.5,3.5-4.6,3.5C409.1,186.7,408.1,186.1,408.1,185z"/>
</g>
<rect x="426.3" y="171.1" width="0.5" height="17.2"/>
<g>
	<path d="M419.9,190c0-1.8,2.5-3.5,4.5-3.5c1.3,0,2.3,0.7,2.3,1.7c0,1.7-2.5,3.5-4.6,3.5C420.8,191.7,419.9,191.1,419.9,190z"/>
</g>
<rect x="437.2" y="172.7" width="0.5" height="20.6"/>
<g>
	<path d="M430.7,194.9c0-1.8,2.5-3.5,4.5-3.5c1.3,0,2.3,0.7,2.3,1.7c0,1.7-2.5,3.5-4.6,3.5C431.7,196.6,430.7,196,430.7,194.9z"/>
</g>
<rect x="448.2" y="174.4" width="0.5" height="23.9"/>
<g>
	<path d="M441.7,199.9c0-1.8,2.5-3.5,4.5-3.5c1.3,0,2.3,0.7,2.3,1.7c0,1.7-2.5,3.5-4.6,3.5C442.7,201.6,441.7,201,441.7,199.9z"/>
</g>
<rect x="466.2" y="173.8" width="10.5" height="0.8"/>
<rect x="468" y="172.5" width="0.5" height="26.4"/>
<g>
	<path d="M468.1,172.6c0-1.8,2.5-3.5,4.5-3.5c1.3,0,2.3,0.7,2.3,1.7c0,1.7-2.5,3.5-4.6,3.5C469.1,174.3,468.1,173.7,468.1,172.6z"/>
</g>
<rect x="478.9" y="177.5" width="0.5" height="22.9"/>
<g>
	<path d="M478.9,177.6c0-1.8,2.5-3.5,4.5-3.5c1.3,0,2.3,0.7,2.3,1.7c0,1.7-2.5,3.5-4.6,3.5C479.9,179.3,478.9,178.7,478.9,177.6z"/>
</g>
<rect x="489.9" y="182.4" width="0.5" height="19.7"/>
<g>
	<path d="M489.9,182.5c0-1.8,2.5-3.5,4.5-3.5c1.3,0,2.3,0.7,2.3,1.7c0,1.7-2.5,3.5-4.6,3.5C490.9,184.2,489.9,183.6,489.9,182.5z"/>
</g>
<rect x="500.7" y="187.4" width="0.5" height="16.4"/>
<g>
	<path d="M500.8,187.5c0-1.8,2.5-3.5,4.5-3.5c1.3,0,2.3,0.7,2.3,1.7c0,1.7-2.5,3.5-4.6,3.5C501.8,189.2,500.8,188.6,500.8,187.5z"/>
</g>
<rect x="511.7" y="189.9" width="0.5" height="16.6"/>
<g>
	<path d="M516.1,186.4c1.6,0,2.7,0.7,2.7,2c0,1.9-2.3,3.4-4.5,3.4c-1.3,0-2.4-0.7-2.4-1.8C511.8,188.2,514,186.4,516.1,186.4z
		 M512.2,190.3c0,0.6,0.4,0.9,1.1,0.9c1.4,0,4.9-2.1,4.9-3.3c0-0.6-0.4-0.9-1.1-0.9C515.9,187,512.2,189,512.2,190.3z"/>
</g>
</svg>
