<?xml version="1.0" encoding="utf-8"?>

<!--
	ScaleBook
	Copyright (c) Leland Jansen 2015. All rights reserved.
-->

<!DOCTYPE svg PUBLIC "-//W3C//DTD SVG 1.1//EN" "http://www.w3.org/Graphics/SVG/1.1/DTD/svg11.dtd">
<svg version="1.1" id="Layer_1" xmlns="http://www.w3.org/2000/svg" xmlns:xlink="http://www.w3.org/1999/xlink" x="0px" y="0px"
	 viewBox="0 0 553 209.8" enable-background="new 0 0 553 209.8" xml:space="preserve">
<rect x="8.4" y="9.7" width="0.8" height="67"/>
<g>
	<path d="M7.4,10.4c-1.9,1.1-3.6,5.8-3.6,9.4c0,2.3,1.4,9.9,1.4,12.3c0,5-1.5,8.6-4.6,11.1c3,2.4,4.6,6.1,4.6,11
		c0,2.3-1.4,9.9-1.4,12.3c0,3.8,1.7,8.4,3.6,9.5v0.7c-3.5-2.3-5.8-8.2-5.8-13.1c0-2.1,1.7-9.4,1.7-11.5c0-3.8-1-6.6-2.9-8.2
		C0.1,43.6,0,43.4,0,43.2s0.1-0.4,0.5-0.7c1.9-1.7,2.9-4.2,2.9-7.6c0-2.1-1.7-10-1.7-12.2c0-5.2,2.1-10.4,5.8-13.1V10.4z"/>
</g>
<rect x="8.4" y="131.7" width="0.8" height="67"/>
<g>
	<path d="M7.4,132.4c-1.9,1.1-3.6,5.8-3.6,9.4c0,2.3,1.4,9.9,1.4,12.3c0,5-1.5,8.6-4.6,11.1c3,2.4,4.6,6.1,4.6,11
		c0,2.3-1.4,9.9-1.4,12.3c0,3.8,1.7,8.4,3.6,9.5v0.7c-3.5-2.3-5.8-8.2-5.8-13.1c0-2.1,1.7-9.4,1.7-11.5c0-3.8-1-6.6-2.9-8.2
		c-0.3-0.3-0.5-0.5-0.5-0.7s0.1-0.4,0.5-0.7c1.9-1.7,2.9-4.2,2.9-7.6c0-2.1-1.7-10-1.7-12.2c0-5.2,2.1-10.4,5.8-13.1V132.4z"/>
</g>
<rect x="289.6" y="9.7" width="0.8" height="67"/>
<rect x="292.2" y="9.7" width="0.8" height="67"/>
<rect x="549.5" y="9.7" width="0.8" height="67"/>
<rect x="552.2" y="9.7" width="0.8" height="67"/>
<rect x="300.1" y="131.7" width="0.8" height="67"/>
<rect x="302.8" y="131.7" width="0.8" height="67"/>
<rect x="547.8" y="131.7" width="0.8" height="67"/>
<rect x="550.4" y="131.7" width="2.5" height="67"/>
<rect x="8.5" y="29.3" width="544.4" height="0.5"/>
<rect x="8.5" y="24.4" width="544.4" height="0.5"/>
<rect x="8.5" y="19.4" width="544.4" height="0.5"/>
<rect x="8.5" y="14.4" width="544.4" height="0.5"/>
<rect x="8.5" y="9.5" width="544.4" height="0.5"/>
<g>
	<path d="M20.3,29.4c-4.2,0-8.1-3.1-8.1-6.9c0-3.2,2.3-6.7,6.8-10.5c-0.3-1.2-0.4-2.4-0.4-3.6c0-3.5,1.2-6.8,3.2-8.5
		c1.8,2.5,2.7,4.9,2.7,7.1c0,2.9-1.3,5.6-4.3,8.1l0.9,4.2c0.5,0,0.8-0.1,0.8-0.1c2.6,0,4.8,2,4.8,4.7c0,1.9-1.4,3.7-3.6,4.8
		c0-0.1,0.9,3.8,0.9,4.3c0,2.5-2.3,4.2-4.9,4.2c-2,0-3.6-1.3-3.6-3.4c0-1.4,1-2.6,2.4-2.6c1.3,0,2.3,1.3,2.3,2.5
		c0,1.4-1.2,2.3-2.7,2.5c0.6,0.3,1.2,0.5,1.9,0.5c2.1,0,4.1-1.6,4.1-3.6c0-0.2,0-0.4-0.1-0.6l-0.8-3.7
		C21.9,29.3,21.2,29.4,20.3,29.4z M18.1,24.2c0,1,0.5,1.9,1.6,2.5c-1.8-0.3-3-1.4-3-3.1c0-2,1.7-3.7,3.8-4.1l-0.8-4
		C16,18.3,14,21,14,23.6c0,2.9,2.8,5.3,6,5.3c0.9,0,1.7-0.2,2.4-0.5L21,21.6C19.4,21.8,18.1,22.8,18.1,24.2z M22.1,2.8
		c-1.6,0-2.9,3.7-2.9,7c0,0.7,0,1.3,0.2,1.9c2.7-2.4,4-4.5,4-6.5c0-0.9-0.3-1.7-1-2.4C22.4,2.9,22.3,2.8,22.1,2.8z M24.9,24.7
		c0-1.6-1.2-3.3-2.9-3.3c-0.1,0-0.2,0-0.5,0l1.4,6.6C24.2,27.2,24.9,26,24.9,24.7z"/>
</g>
<g>
	<path d="M33.5,2.9v2.8l1-0.3v1.8l-1,0.3V11l1-0.3v1.8l-1,0.3v3.1H33v-3l-1.9,0.6v3h-0.5v-2.8l-1,0.3v-1.8l1-0.3V8.4l-1,0.3V7l1-0.3
		V3.5h0.5v3L33,5.9v-3H33.5z M33,7.7l-1.9,0.6v3.4l1.9-0.6V7.7z"/>
</g>
<g>
	<path d="M39.7,10.3v2.8l1-0.3v1.8l-1,0.3v3.4l1-0.3v1.8l-1,0.3v3.1h-0.5v-3L37.3,21v3h-0.5v-2.8l-1,0.3v-1.8l1-0.3v-3.4l-1,0.3
		v-1.8l1-0.3V11h0.5v3l1.9-0.6v-3H39.7z M39.2,15.1l-1.9,0.6v3.4l1.9-0.6V15.1z"/>
</g>
<g>
	<path d="M45.9,0.4v2.8l1-0.3v1.8l-1,0.3v3.4l1-0.3V10l-1,0.3v3.1h-0.5v-3l-1.9,0.6v3H43v-2.8l-1,0.3V9.7l1-0.3V6l-1,0.3V4.5l1-0.3
		V1h0.5v3l1.9-0.6v-3H45.9z M45.4,5.2l-1.9,0.6v3.4l1.9-0.6V5.2z"/>
</g>
<g>
	<path d="M52.1,7.9v2.8l1-0.3v1.8l-1,0.3v3.4l1-0.3v1.8l-1,0.3v3.1h-0.5v-3l-1.9,0.6v3h-0.5v-2.8l-1,0.3v-1.8l1-0.3v-3.4l-1,0.3
		v-1.8l1-0.3V8.5h0.5v3l1.9-0.6v-3H52.1z M51.6,12.6l-1.9,0.6v3.4l1.9-0.6V12.6z"/>
</g>
<g>
	<path d="M58.3,15.3v2.8l1-0.3v1.8l-1,0.3v3.4l1-0.3v1.8l-1,0.3v3.1h-0.5v-3l-1.9,0.6v3h-0.5v-2.8l-1,0.3v-1.8l1-0.3v-3.4l-1,0.3
		v-1.8l1-0.3v-3.1h0.5v3l1.9-0.6v-3H58.3z M57.8,20.1l-1.9,0.6v3.4l1.9-0.6V20.1z"/>
</g>
<polygon fill-rule="evenodd" clip-rule="evenodd" points="74.7,25.8 109.5,20.9 109.5,18.4 74.7,23.4 "/>
<polygon fill-rule="evenodd" clip-rule="evenodd" points="74.7,22.1 109.5,17.2 109.5,14.7 74.7,19.6 "/>
<polygon fill-rule="evenodd" clip-rule="evenodd" points="114.2,37 148.6,32 148.6,29.6 114.2,34.5 "/>
<polygon fill-rule="evenodd" clip-rule="evenodd" points="114.2,40.7 148.6,35.8 148.6,33.3 114.2,38.2 "/>
<polygon fill-rule="evenodd" clip-rule="evenodd" points="160.4,27.1 195.3,32 195.3,29.6 160.4,24.6 "/>
<polygon fill-rule="evenodd" clip-rule="evenodd" points="160.4,30.8 195.3,35.8 195.3,33.3 160.4,28.3 "/>
<polygon fill-rule="evenodd" clip-rule="evenodd" points="212.9,15.9 247.3,20.9 247.3,18.4 212.9,13.4 "/>
<polygon fill-rule="evenodd" clip-rule="evenodd" points="212.9,12.2 247.3,17.2 247.3,14.7 212.9,9.7 "/>
<polygon fill-rule="evenodd" clip-rule="evenodd" points="307,20.9 341.3,15.9 341.3,13.4 307,18.4 "/>
<polygon fill-rule="evenodd" clip-rule="evenodd" points="307,17.2 341.3,12.2 341.3,9.7 307,14.7 "/>
<polygon fill-rule="evenodd" clip-rule="evenodd" points="361.1,32 395.5,27.1 395.5,24.6 361.1,29.6 "/>
<polygon fill-rule="evenodd" clip-rule="evenodd" points="361.1,35.8 395.5,30.8 395.5,28.3 361.1,33.3 "/>
<polygon fill-rule="evenodd" clip-rule="evenodd" points="406.8,25.8 440.6,30.8 440.6,28.3 406.8,23.4 "/>
<polygon fill-rule="evenodd" clip-rule="evenodd" points="406.8,29.6 440.6,34.5 440.6,32 406.8,27.1 "/>
<polygon fill-rule="evenodd" clip-rule="evenodd" points="473.5,11 507.3,15.9 507.3,13.4 473.5,8.5 "/>
<polygon fill-rule="evenodd" clip-rule="evenodd" points="473.5,7.2 507.3,12.2 507.3,9.7 473.5,4.8 "/>
<rect x="8.5" y="76.4" width="544.4" height="0.5"/>
<rect x="8.5" y="71.5" width="544.4" height="0.5"/>
<rect x="8.5" y="66.5" width="544.4" height="0.5"/>
<rect x="8.5" y="61.6" width="544.4" height="0.5"/>
<rect x="8.5" y="56.6" width="544.4" height="0.5"/>
<g>
	<path d="M15.7,71c2.9-2.6,4.7-6.1,4.7-9.2c0-2.5-1.4-4.4-3.7-4.4c-1.6,0-3.4,1.3-3.4,2.7c0,0.2,0,0.3,0.1,0.3
		c-0.1,0,0.6-0.6,1.4-0.6c0.9,0,1.5,0.8,1.5,1.7c0,1.2-0.9,2.2-2.1,2.2c-1.2,0-2.1-1.3-2.1-2.8c0-2.3,2.3-4.1,4.8-4.1
		c4.7,0,5.9,3.2,5.9,5.8c0,1.6-0.4,2.9-2,5.3c-1.9,3.1-6.4,5.3-8.1,5.3c-0.4,0-0.6-0.2-0.6-0.5C13.8,72.3,14.9,71.7,15.7,71z
		 M25.7,58.3c0.6,0,1,0.4,1,1s-0.4,1-1,1s-1-0.4-1-1S25.1,58.3,25.7,58.3z M25.7,63.3c0.6,0,1,0.4,1,1c0,0.6-0.4,1-1,1s-1-0.4-1-1
		C24.7,63.7,25.1,63.3,25.7,63.3z"/>
</g>
<g>
	<path d="M33.5,55v2.8l1-0.3v1.8l-1,0.3V63l1-0.3v1.8l-1,0.3V68H33v-3l-1.9,0.6v3h-0.5v-2.8l-1,0.3v-1.8l1-0.3v-3.4l-1,0.3v-1.8
		l1-0.3v-3.1h0.5v3L33,58v-3H33.5z M33,59.8l-1.9,0.6v3.4l1.9-0.6V59.8z"/>
</g>
<g>
	<path d="M39.7,62.4v2.8l1-0.3v1.8l-1,0.3v3.4l1-0.3V72l-1,0.3v3.1h-0.5v-3l-1.9,0.6v3h-0.5v-2.8l-1,0.3v-1.8l1-0.3V68l-1,0.3v-1.8
		l1-0.3v-3.1h0.5v3l1.9-0.6v-3H39.7z M39.2,67.2l-1.9,0.6v3.4l1.9-0.6V67.2z"/>
</g>
<g>
	<path d="M45.9,52.5v2.8l1-0.3v1.8l-1,0.3v3.4l1-0.3V62l-1,0.3v3.1h-0.5v-3l-1.9,0.6v3H43v-2.8l-1,0.3v-1.8l1-0.3V58l-1,0.3v-1.8
		l1-0.3v-3.1h0.5v3l1.9-0.6v-3H45.9z M45.4,57.3l-1.9,0.6v3.4l1.9-0.6V57.3z"/>
</g>
<g>
	<path d="M52.1,59.9v2.8l1-0.3v1.8l-1,0.3V68l1-0.3v1.8l-1,0.3v3.1h-0.5v-3l-1.9,0.6v3h-0.5v-2.8l-1,0.3v-1.8l1-0.3v-3.4l-1,0.3V64
		l1-0.3v-3.1h0.5v3l1.9-0.6v-3H52.1z M51.6,64.7l-1.9,0.6v3.4l1.9-0.6V64.7z"/>
</g>
<g>
	<path d="M58.3,67.4v2.8l1-0.3v1.8l-1,0.3v3.4l1-0.3v1.8l-1,0.3v3.1h-0.5v-3L55.9,78v3h-0.5v-2.8l-1,0.3v-1.8l1-0.3v-3.4l-1,0.3
		v-1.8l1-0.3V68h0.5v3l1.9-0.6v-3H58.3z M57.8,72.2l-1.9,0.6v3.4l1.9-0.6V72.2z"/>
</g>
<polygon fill-rule="evenodd" clip-rule="evenodd" points="74.7,61.8 109.5,56.8 109.5,54.4 74.7,59.3 "/>
<polygon fill-rule="evenodd" clip-rule="evenodd" points="74.7,58.1 109.5,53.1 109.5,50.6 74.7,55.6 "/>
<polygon fill-rule="evenodd" clip-rule="evenodd" points="114.2,73 148.6,68 148.6,65.5 114.2,70.5 "/>
<polygon fill-rule="evenodd" clip-rule="evenodd" points="114.2,76.7 148.6,71.7 148.6,69.2 114.2,74.2 "/>
<polygon fill-rule="evenodd" clip-rule="evenodd" points="160.4,63 195.3,68 195.3,65.5 160.4,60.6 "/>
<polygon fill-rule="evenodd" clip-rule="evenodd" points="160.4,66.8 195.3,71.7 195.3,69.2 160.4,64.3 "/>
<polygon fill-rule="evenodd" clip-rule="evenodd" points="212.9,53.1 247.3,58.1 247.3,55.6 212.9,50.6 "/>
<polygon fill-rule="evenodd" clip-rule="evenodd" points="212.9,49.4 247.3,54.4 247.3,51.9 212.9,46.9 "/>
<g>
	<path d="M353.1,75.3c-3.2,0-6.1-2.3-6.1-5.1c0-2.4,1.7-5,5.1-7.9c-0.2-0.9-0.3-1.8-0.3-2.7c0-2.6,0.9-5.1,2.4-6.3
		c1.4,1.9,2,3.7,2,5.3c0,2.2-1,4.2-3.2,6.1l0.7,3.1c0.4,0,0.6,0,0.6,0c2,0,3.6,1.5,3.6,3.5c0,1.4-1.1,2.8-2.7,3.6
		c0-0.1,0.6,2.8,0.6,3.3c0,1.9-1.7,3.2-3.7,3.2c-1.5,0-2.7-1-2.7-2.5c0-1.1,0.7-1.9,1.8-1.9c1,0,1.7,1,1.7,1.9c0,1-0.9,1.7-2,1.8
		c0.4,0.2,0.9,0.3,1.4,0.3c1.6,0,3.1-1.2,3.1-2.7c0-0.1,0-0.3,0-0.5l-0.6-2.8C354.3,75.2,353.8,75.3,353.1,75.3z M351.4,71.4
		c0,0.8,0.4,1.4,1.2,1.9c-1.3-0.2-2.2-1.1-2.2-2.3c0-1.5,1.3-2.8,2.9-3.1l-0.6-3c-2.8,2.1-4.3,4.1-4.3,6.1c0,2.2,2.1,4,4.5,4
		c0.7,0,1.3-0.1,1.8-0.4l-1.1-5.1C352.4,69.6,351.4,70.4,351.4,71.4z M354.5,55.4c-1.2,0-2.2,2.8-2.2,5.3c0,0.5,0,1,0.1,1.4
		c2-1.8,3-3.4,3-4.8c0-0.7-0.3-1.3-0.7-1.8C354.7,55.4,354.6,55.4,354.5,55.4z M356.5,71.8c0-1.2-0.9-2.4-2.2-2.4c0,0-0.2,0-0.4,0
		l1.1,5C356,73.7,356.5,72.8,356.5,71.8z"/>
</g>
<polygon fill-rule="evenodd" clip-rule="evenodd" points="307,58.1 341.3,53.1 341.3,50.6 307,55.6 "/>
<polygon fill-rule="evenodd" clip-rule="evenodd" points="307,54.4 341.3,49.4 341.3,46.9 307,51.9 "/>
<polygon fill-rule="evenodd" clip-rule="evenodd" points="367.6,68 402,63 402,60.6 367.6,65.5 "/>
<polygon fill-rule="evenodd" clip-rule="evenodd" points="367.6,64.3 402,59.3 402,56.8 367.6,61.8 "/>
<g>
	<path d="M457.4,68.7c2.2-2,3.6-4.6,3.6-6.9c0-1.9-1.1-3.3-2.8-3.3c-1.2,0-2.5,1-2.5,2.1c0,0.2,0,0.2,0.1,0.2c0,0,0.4-0.5,1-0.5
		c0.7,0,1.2,0.6,1.2,1.3c0,0.9-0.6,1.7-1.6,1.7s-1.5-1-1.5-2.1c0-1.8,1.7-3.1,3.6-3.1c3.5,0,4.4,2.4,4.4,4.4c0,1.2-0.3,2.2-1.5,4
		c-1.4,2.3-4.8,4-6,4c-0.3,0-0.5-0.1-0.5-0.3C456,69.7,456.8,69.2,457.4,68.7z M464.9,59.2c0.4,0,0.7,0.3,0.7,0.7
		c0,0.4-0.3,0.7-0.7,0.7c-0.4,0-0.7-0.3-0.7-0.7C464.1,59.5,464.4,59.2,464.9,59.2z M464.9,62.9c0.4,0,0.7,0.3,0.7,0.7
		c0,0.4-0.3,0.7-0.7,0.7c-0.4,0-0.7-0.3-0.7-0.7C464.1,63.2,464.4,62.9,464.9,62.9z"/>
</g>
<polygon fill-rule="evenodd" clip-rule="evenodd" points="413.4,58.1 447.2,63 447.2,60.6 413.4,55.6 "/>
<polygon fill-rule="evenodd" clip-rule="evenodd" points="413.4,54.4 447.2,59.3 447.2,56.8 413.4,51.9 "/>
<polygon fill-rule="evenodd" clip-rule="evenodd" points="467,74.2 500.8,79.2 500.8,76.7 467,71.7 "/>
<polygon fill-rule="evenodd" clip-rule="evenodd" points="467,77.9 500.8,82.9 500.8,80.4 467,75.4 "/>
<rect x="8.5" y="151.3" width="544.4" height="0.5"/>
<rect x="8.5" y="146.4" width="544.4" height="0.5"/>
<rect x="8.5" y="141.4" width="544.4" height="0.5"/>
<rect x="8.5" y="136.4" width="544.4" height="0.5"/>
<rect x="8.5" y="131.5" width="544.4" height="0.5"/>
<g>
	<path d="M20.3,151.4c-4.2,0-8.1-3.1-8.1-6.9c0-3.2,2.3-6.7,6.8-10.5c-0.3-1.2-0.4-2.4-0.4-3.6c0-3.5,1.2-6.8,3.2-8.5
		c1.8,2.5,2.7,4.9,2.7,7.1c0,2.9-1.3,5.6-4.3,8.1l0.9,4.2c0.5,0,0.8-0.1,0.8-0.1c2.6,0,4.8,2,4.8,4.7c0,1.9-1.4,3.7-3.6,4.8
		c0-0.1,0.9,3.8,0.9,4.3c0,2.5-2.3,4.2-4.9,4.2c-2,0-3.6-1.3-3.6-3.4c0-1.4,1-2.6,2.4-2.6c1.3,0,2.3,1.3,2.3,2.5
		c0,1.4-1.2,2.3-2.7,2.5c0.6,0.3,1.2,0.5,1.9,0.5c2.1,0,4.1-1.6,4.1-3.6c0-0.2,0-0.4-0.1-0.6l-0.8-3.7
		C21.9,151.3,21.2,151.4,20.3,151.4z M18.1,146.2c0,1,0.5,1.9,1.6,2.5c-1.8-0.3-3-1.4-3-3.1c0-2,1.7-3.7,3.8-4.1l-0.8-4
		c-3.7,2.8-5.7,5.5-5.7,8.1c0,2.9,2.8,5.3,6,5.3c0.9,0,1.7-0.2,2.4-0.5l-1.4-6.8C19.4,143.8,18.1,144.8,18.1,146.2z M22.1,124.8
		c-1.6,0-2.9,3.7-2.9,7c0,0.7,0,1.3,0.2,1.9c2.7-2.4,4-4.5,4-6.5c0-0.9-0.3-1.7-1-2.4C22.4,124.8,22.3,124.8,22.1,124.8z
		 M24.9,146.7c0-1.6-1.2-3.3-2.9-3.3c-0.1,0-0.2,0-0.5,0l1.4,6.6C24.2,149.2,24.9,148,24.9,146.7z"/>
</g>
<g>
	<path d="M33.5,124.9v2.8l1-0.3v1.8l-1,0.3v3.4l1-0.3v1.8l-1,0.3v3.1H33v-3l-1.9,0.6v3h-0.5v-2.8l-1,0.3v-1.8l1-0.3v-3.4l-1,0.3V129
		l1-0.3v-3.1h0.5v3l1.9-0.6v-3H33.5z M33,129.7l-1.9,0.6v3.4l1.9-0.6V129.7z"/>
</g>
<g>
	<path d="M39.7,132.3v2.8l1-0.3v1.8l-1,0.3v3.4l1-0.3v1.8l-1,0.3v3.1h-0.5v-3l-1.9,0.6v3h-0.5v-2.8l-1,0.3v-1.8l1-0.3v-3.4l-1,0.3
		v-1.8l1-0.3V133h0.5v3l1.9-0.6v-3H39.7z M39.2,137.1l-1.9,0.6v3.4l1.9-0.6V137.1z"/>
</g>
<g>
	<path d="M45.9,122.4v2.8l1-0.3v1.8l-1,0.3v3.4l1-0.3v1.8l-1,0.3v3.1h-0.5v-3l-1.9,0.6v3H43v-2.8l-1,0.3v-1.8l1-0.3V128l-1,0.3v-1.8
		l1-0.3V123h0.5v3l1.9-0.6v-3H45.9z M45.4,127.2l-1.9,0.6v3.4l1.9-0.6V127.2z"/>
</g>
<g>
	<path d="M52.1,129.8v2.8l1-0.3v1.8l-1,0.3v3.4l1-0.3v1.8l-1,0.3v3.1h-0.5v-3l-1.9,0.6v3h-0.5v-2.8l-1,0.3v-1.8l1-0.3v-3.4l-1,0.3
		v-1.8l1-0.3v-3.1h0.5v3l1.9-0.6v-3H52.1z M51.6,134.6l-1.9,0.6v3.4l1.9-0.6V134.6z"/>
</g>
<g>
	<path d="M58.3,137.3v2.8l1-0.3v1.8l-1,0.3v3.4l1-0.3v1.8l-1,0.3v3.1h-0.5v-3l-1.9,0.6v3h-0.5v-2.8l-1,0.3v-1.8l1-0.3v-3.4l-1,0.3
		v-1.8l1-0.3v-3.1h0.5v3l1.9-0.6v-3H58.3z M57.8,142.1l-1.9,0.6v3.4l1.9-0.6V142.1z"/>
</g>
<polygon fill-rule="evenodd" clip-rule="evenodd" points="74.7,137.9 105.2,132.9 105.2,130.5 74.7,135.4 "/>
<polygon fill-rule="evenodd" clip-rule="evenodd" points="74.7,134.2 105.2,129.2 105.2,126.7 74.7,131.7 "/>
<polygon fill-rule="evenodd" clip-rule="evenodd" points="125,152.8 155.6,147.8 155.6,145.3 125,150.3 "/>
<polygon fill-rule="evenodd" clip-rule="evenodd" points="125,156.5 155.6,151.6 155.6,149.1 125,154 "/>
<polygon fill-rule="evenodd" clip-rule="evenodd" points="167.4,142.9 199.4,147.8 199.4,145.3 167.4,140.4 "/>
<polygon fill-rule="evenodd" clip-rule="evenodd" points="167.4,146.6 199.4,151.6 199.4,149.1 167.4,144.1 "/>
<polygon fill-rule="evenodd" clip-rule="evenodd" points="232.3,131.7 262.8,136.7 262.8,134.2 232.3,129.2 "/>
<polygon fill-rule="evenodd" clip-rule="evenodd" points="232.3,128 262.8,132.9 262.8,130.5 232.3,125.5 "/>
<polygon fill-rule="evenodd" clip-rule="evenodd" points="317.6,136.7 348.1,131.7 348.1,129.2 317.6,134.2 "/>
<polygon fill-rule="evenodd" clip-rule="evenodd" points="317.6,132.9 348.1,128 348.1,125.5 317.6,130.5 "/>
<polygon fill-rule="evenodd" clip-rule="evenodd" points="367.9,147.8 400,142.9 400,140.4 367.9,145.3 "/>
<polygon fill-rule="evenodd" clip-rule="evenodd" points="367.9,151.6 400,146.6 400,144.1 367.9,149.1 "/>
<polygon fill-rule="evenodd" clip-rule="evenodd" points="411.8,137.9 445.6,142.9 445.6,140.4 411.8,135.4 "/>
<polygon fill-rule="evenodd" clip-rule="evenodd" points="411.8,141.6 445.6,146.6 445.6,144.1 411.8,139.1 "/>
<polygon fill-rule="evenodd" clip-rule="evenodd" points="472,154 504,159 504,156.5 472,151.6 "/>
<polygon fill-rule="evenodd" clip-rule="evenodd" points="472,157.8 504,162.7 504,160.2 472,155.3 "/>
<rect x="8.5" y="198.4" width="544.4" height="0.5"/>
<rect x="8.5" y="193.5" width="544.4" height="0.5"/>
<rect x="8.5" y="188.5" width="544.4" height="0.5"/>
<rect x="8.5" y="183.6" width="544.4" height="0.5"/>
<rect x="8.5" y="178.6" width="544.4" height="0.5"/>
<g>
	<path d="M15.7,193c2.9-2.6,4.7-6.1,4.7-9.2c0-2.5-1.4-4.4-3.7-4.4c-1.6,0-3.4,1.3-3.4,2.7c0,0.2,0,0.3,0.1,0.3
		c-0.1,0,0.6-0.6,1.4-0.6c0.9,0,1.5,0.8,1.5,1.7c0,1.2-0.9,2.2-2.1,2.2c-1.2,0-2.1-1.3-2.1-2.8c0-2.3,2.3-4.1,4.8-4.1
		c4.7,0,5.9,3.2,5.9,5.8c0,1.6-0.4,2.9-2,5.3c-1.9,3.1-6.4,5.3-8.1,5.3c-0.4,0-0.6-0.2-0.6-0.5C13.8,194.3,14.9,193.7,15.7,193z
		 M25.7,180.3c0.6,0,1,0.4,1,1s-0.4,1-1,1s-1-0.4-1-1S25.1,180.3,25.7,180.3z M25.7,185.3c0.6,0,1,0.4,1,1s-0.4,1-1,1s-1-0.4-1-1
		S25.1,185.3,25.7,185.3z"/>
</g>
<g>
	<path d="M33.5,177v2.8l1-0.3v1.8l-1,0.3v3.4l1-0.3v1.8l-1,0.3v3.1H33v-3l-1.9,0.6v3h-0.5v-2.8l-1,0.3v-1.8l1-0.3v-3.4l-1,0.3v-1.8
		l1-0.3v-3.1h0.5v3l1.9-0.6v-3H33.5z M33,181.7l-1.9,0.6v3.4l1.9-0.6V181.7z"/>
</g>
<g>
	<path d="M39.7,184.4v2.8l1-0.3v1.8l-1,0.3v3.4l1-0.3v1.8l-1,0.3v3.1h-0.5v-3l-1.9,0.6v3h-0.5v-2.8l-1,0.3v-1.8l1-0.3V190l-1,0.3
		v-1.8l1-0.3V185h0.5v3l1.9-0.6v-3H39.7z M39.2,189.2l-1.9,0.6v3.4l1.9-0.6V189.2z"/>
</g>
<g>
	<path d="M45.9,174.5v2.8l1-0.3v1.8l-1,0.3v3.4l1-0.3v1.8l-1,0.3v3.1h-0.5v-3l-1.9,0.6v3H43v-2.8l-1,0.3v-1.8l1-0.3V180l-1,0.3v-1.8
		l1-0.3v-3.1h0.5v3l1.9-0.6v-3H45.9z M45.4,179.3l-1.9,0.6v3.4l1.9-0.6V179.3z"/>
</g>
<g>
	<path d="M52.1,181.9v2.8l1-0.3v1.8l-1,0.3v3.4l1-0.3v1.8l-1,0.3v3.1h-0.5v-3l-1.9,0.6v3h-0.5v-2.8l-1,0.3v-1.8l1-0.3v-3.4l-1,0.3
		V186l1-0.3v-3.1h0.5v3l1.9-0.6v-3H52.1z M51.6,186.7l-1.9,0.6v3.4l1.9-0.6V186.7z"/>
</g>
<g>
	<path d="M58.3,189.4v2.8l1-0.3v1.8l-1,0.3v3.4l1-0.3v1.8l-1,0.3v3.1h-0.5v-3l-1.9,0.6v3h-0.5v-2.8l-1,0.3v-1.8l1-0.3v-3.4l-1,0.3
		v-1.8l1-0.3V190h0.5v3l1.9-0.6v-3H58.3z M57.8,194.1l-1.9,0.6v3.4l1.9-0.6V194.1z"/>
</g>
<g>
	<path d="M117,197.3c-3.2,0-6.1-2.3-6.1-5.1c0-2.4,1.7-5,5.1-7.9c-0.2-0.9-0.3-1.8-0.3-2.7c0-2.6,0.9-5.1,2.4-6.3
		c1.4,1.9,2,3.7,2,5.3c0,2.2-1,4.2-3.2,6.1l0.7,3.1c0.4,0,0.6,0,0.6,0c2,0,3.6,1.5,3.6,3.5c0,1.4-1.1,2.8-2.7,3.6
		c0-0.1,0.6,2.8,0.6,3.3c0,1.9-1.7,3.2-3.7,3.2c-1.5,0-2.7-1-2.7-2.5c0-1.1,0.7-1.9,1.8-1.9c1,0,1.7,1,1.7,1.9c0,1-0.9,1.7-2,1.8
		c0.4,0.2,0.9,0.3,1.4,0.3c1.6,0,3.1-1.2,3.1-2.7c0-0.1,0-0.3,0-0.5l-0.6-2.8C118.2,197.2,117.7,197.3,117,197.3z M115.4,193.4
		c0,0.8,0.4,1.4,1.2,1.9c-1.3-0.2-2.2-1.1-2.2-2.3c0-1.5,1.3-2.8,2.9-3.1l-0.6-3c-2.8,2.1-4.3,4.1-4.3,6.1c0,2.2,2.1,4,4.5,4
		c0.7,0,1.3-0.1,1.8-0.4l-1.1-5.1C116.3,191.6,115.4,192.4,115.4,193.4z M118.4,177.4c-1.2,0-2.2,2.8-2.2,5.3c0,0.5,0,1,0.1,1.4
		c2-1.8,3-3.4,3-4.8c0-0.7-0.3-1.3-0.7-1.8C118.6,177.4,118.5,177.4,118.4,177.4z M120.5,193.8c0-1.2-0.9-2.4-2.2-2.4
		c0,0-0.2,0-0.4,0l1.1,5C119.9,195.6,120.5,194.8,120.5,193.8z"/>
</g>
<polygon fill-rule="evenodd" clip-rule="evenodd" points="68.1,201.2 98.7,196.2 98.7,193.7 68.1,198.7 "/>
<polygon fill-rule="evenodd" clip-rule="evenodd" points="68.1,204.9 98.7,199.9 98.7,197.4 68.1,202.4 "/>
<polygon fill-rule="evenodd" clip-rule="evenodd" points="131.5,185 162.1,180.1 162.1,177.6 131.5,182.6 "/>
<polygon fill-rule="evenodd" clip-rule="evenodd" points="131.5,181.3 162.1,176.4 162.1,173.9 131.5,178.8 "/>
<g>
	<path d="M214.3,190.7c2.2-2,3.6-4.6,3.6-6.9c0-1.9-1.1-3.3-2.8-3.3c-1.2,0-2.5,1-2.5,2.1c0,0.2,0,0.2,0.1,0.2c0,0,0.4-0.5,1-0.5
		c0.7,0,1.2,0.6,1.2,1.3c0,0.9-0.6,1.7-1.6,1.7c-0.9,0-1.5-1-1.5-2.1c0-1.8,1.7-3.1,3.6-3.1c3.5,0,4.4,2.4,4.4,4.4
		c0,1.2-0.3,2.2-1.5,4c-1.4,2.3-4.8,4-6,4c-0.3,0-0.5-0.1-0.5-0.3C212.9,191.7,213.8,191.2,214.3,190.7z M221.8,181.2
		c0.4,0,0.7,0.3,0.7,0.7c0,0.4-0.3,0.7-0.7,0.7s-0.7-0.3-0.7-0.7C221.1,181.5,221.4,181.2,221.8,181.2z M221.8,184.9
		c0.4,0,0.7,0.3,0.7,0.7s-0.3,0.7-0.7,0.7s-0.7-0.3-0.7-0.7S221.4,184.9,221.8,184.9z"/>
</g>
<polygon fill-rule="evenodd" clip-rule="evenodd" points="173.9,178.8 205.9,183.8 205.9,181.3 173.9,176.4 "/>
<polygon fill-rule="evenodd" clip-rule="evenodd" points="173.9,175.1 205.9,180.1 205.9,177.6 173.9,172.6 "/>
<polygon fill-rule="evenodd" clip-rule="evenodd" points="225.8,195 256.3,199.9 256.3,197.4 225.8,192.5 "/>
<polygon fill-rule="evenodd" clip-rule="evenodd" points="225.8,198.7 256.3,203.6 256.3,201.2 225.8,196.2 "/>
<g>
	<path d="M361.8,197.3c-3.2,0-6.1-2.3-6.1-5.1c0-2.4,1.7-5,5.1-7.9c-0.2-0.9-0.3-1.8-0.3-2.7c0-2.6,0.9-5.1,2.4-6.3
		c1.4,1.9,2,3.7,2,5.3c0,2.2-1,4.2-3.2,6.1l0.7,3.1c0.4,0,0.6,0,0.6,0c2,0,3.6,1.5,3.6,3.5c0,1.4-1.1,2.8-2.7,3.6
		c0-0.1,0.6,2.8,0.6,3.3c0,1.9-1.7,3.2-3.7,3.2c-1.5,0-2.7-1-2.7-2.5c0-1.1,0.7-1.9,1.8-1.9c1,0,1.7,1,1.7,1.9c0,1-0.9,1.7-2,1.8
		c0.4,0.2,0.9,0.3,1.4,0.3c1.6,0,3.1-1.2,3.1-2.7c0-0.1,0-0.3,0-0.5l-0.6-2.8C363,197.2,362.5,197.3,361.8,197.3z M360.1,193.4
		c0,0.8,0.4,1.4,1.2,1.9c-1.3-0.2-2.2-1.1-2.2-2.3c0-1.5,1.3-2.8,2.9-3.1l-0.6-3c-2.8,2.1-4.3,4.1-4.3,6.1c0,2.2,2.1,4,4.5,4
		c0.7,0,1.3-0.1,1.8-0.4l-1.1-5.1C361.1,191.6,360.1,192.4,360.1,193.4z M363.2,177.4c-1.2,0-2.2,2.8-2.2,5.3c0,0.5,0,1,0.1,1.4
		c2-1.8,3-3.4,3-4.8c0-0.7-0.3-1.3-0.7-1.8C363.4,177.4,363.3,177.4,363.2,177.4z M365.2,193.8c0-1.2-0.9-2.4-2.2-2.4
		c0,0-0.2,0-0.4,0l1.1,5C364.7,195.6,365.2,194.8,365.2,193.8z"/>
</g>
<polygon fill-rule="evenodd" clip-rule="evenodd" points="311,199.9 341.6,195 341.6,192.5 311,197.4 "/>
<polygon fill-rule="evenodd" clip-rule="evenodd" points="311,203.6 341.6,198.7 341.6,196.2 311,201.2 "/>
<polygon fill-rule="evenodd" clip-rule="evenodd" points="374.5,183.8 406.5,178.8 406.5,176.4 374.5,181.3 "/>
<polygon fill-rule="evenodd" clip-rule="evenodd" points="374.5,180.1 406.5,175.1 406.5,172.6 374.5,177.6 "/>
<g>
	<path d="M460.5,190.7c2.2-2,3.6-4.6,3.6-6.9c0-1.9-1.1-3.3-2.8-3.3c-1.2,0-2.5,1-2.5,2.1c0,0.2,0,0.2,0.1,0.2c0,0,0.4-0.5,1-0.5
		c0.7,0,1.2,0.6,1.2,1.3c0,0.9-0.6,1.7-1.6,1.7s-1.5-1-1.5-2.1c0-1.8,1.7-3.1,3.6-3.1c3.5,0,4.4,2.4,4.4,4.4c0,1.2-0.3,2.2-1.5,4
		c-1.4,2.3-4.8,4-6,4c-0.3,0-0.5-0.1-0.5-0.3C459.1,191.7,459.9,191.2,460.5,190.7z M468,181.2c0.4,0,0.7,0.3,0.7,0.7
		c0,0.4-0.3,0.7-0.7,0.7c-0.4,0-0.7-0.3-0.7-0.7C467.2,181.5,467.5,181.2,468,181.2z M468,184.9c0.4,0,0.7,0.3,0.7,0.7
		s-0.3,0.7-0.7,0.7c-0.4,0-0.7-0.3-0.7-0.7S467.5,184.9,468,184.9z"/>
</g>
<polygon fill-rule="evenodd" clip-rule="evenodd" points="411.8,201.2 445.6,206.1 445.6,203.6 411.8,198.7 "/>
<polygon fill-rule="evenodd" clip-rule="evenodd" points="411.8,204.9 445.6,209.8 445.6,207.4 411.8,202.4 "/>
<polygon fill-rule="evenodd" clip-rule="evenodd" points="472,190 504,195 504,192.5 472,187.5 "/>
<polygon fill-rule="evenodd" clip-rule="evenodd" points="472,193.7 504,198.7 504,196.2 472,191.2 "/>
<rect x="66.1" y="34.1" width="10.5" height="0.8"/>
<rect x="66.1" y="39.1" width="10.5" height="0.8"/>
<rect x="66.1" y="44.1" width="10.5" height="0.8"/>
<rect x="74.4" y="19.8" width="0.5" height="23.9"/>
<g>
	<path d="M68,45.3c0-1.8,2.5-3.5,4.5-3.5c1.3,0,2.3,0.7,2.3,1.7c0,1.7-2.5,3.5-4.6,3.5C69,47,68,46.4,68,45.3z"/>
</g>
<rect x="77.9" y="34.1" width="10.5" height="0.8"/>
<rect x="77.9" y="39.1" width="10.5" height="0.8"/>
<rect x="86.2" y="18.2" width="0.5" height="20.5"/>
<g>
	<path d="M79.8,40.3c0-1.8,2.5-3.5,4.5-3.5c1.3,0,2.3,0.7,2.3,1.7c0,1.7-2.5,3.5-4.6,3.5C80.7,42.1,79.8,41.4,79.8,40.3z"/>
</g>
<rect x="89.7" y="34.1" width="10.5" height="0.8"/>
<rect x="98" y="16.5" width="0.5" height="17.2"/>
<g>
	<path d="M91.5,35.4c0-1.8,2.5-3.5,4.5-3.5c1.3,0,2.3,0.7,2.3,1.7c0,1.7-2.5,3.5-4.6,3.5C92.5,37.1,91.5,36.5,91.5,35.4z"/>
</g>
<rect x="109.3" y="14.8" width="0.5" height="14"/>
<g>
	<path d="M102.9,30.4c0-1.8,2.5-3.5,4.5-3.5c1.3,0,2.3,0.7,2.3,1.7c0,1.7-2.5,3.5-4.6,3.5C103.8,32.1,102.9,31.5,102.9,30.4z"/>
</g>
<rect x="113.9" y="27.9" width="0.5" height="12.7"/>
<g>
	<path d="M114,27.9c0-1.8,2.5-3.5,4.5-3.5c1.3,0,2.3,0.7,2.3,1.7c0,1.7-2.5,3.5-4.6,3.5C115,29.7,114,29,114,27.9z"/>
</g>
<rect x="125.3" y="22.9" width="0.5" height="16.1"/>
<g>
	<path d="M125.3,23c0-1.8,2.5-3.5,4.5-3.5c1.3,0,2.3,0.7,2.3,1.7c0,1.7-2.5,3.5-4.6,3.5C126.3,24.7,125.3,24.1,125.3,23z"/>
</g>
<rect x="136.6" y="17.9" width="0.5" height="19.4"/>
<g>
	<path d="M136.7,18c0-1.8,2.5-3.5,4.5-3.5c1.3,0,2.3,0.7,2.3,1.7c0,1.7-2.5,3.5-4.6,3.5C137.6,19.7,136.7,19.1,136.7,18z"/>
</g>
<rect x="148.4" y="13" width="0.5" height="22.6"/>
<g>
	<path d="M148.4,13c0-1.8,2.5-3.5,4.5-3.5c1.3,0,2.3,0.7,2.3,1.7c0,1.7-2.5,3.5-4.6,3.5C149.4,14.8,148.4,14.1,148.4,13z"/>
</g>
<rect x="160.1" y="10.5" width="0.5" height="20.2"/>
<g>
	<path d="M160.2,10.6c0-1.8,2.5-3.5,4.5-3.5c1.3,0,2.3,0.7,2.3,1.7c0,1.7-2.5,3.5-4.6,3.5C161.2,12.3,160.2,11.7,160.2,10.6z"/>
</g>
<rect x="171.9" y="13" width="0.5" height="19.2"/>
<g>
	<path d="M172,13c0-1.8,2.5-3.5,4.5-3.5c1.3,0,2.3,0.7,2.3,1.7c0,1.7-2.5,3.5-4.6,3.5C173,14.8,172,14.1,172,13z"/>
</g>
<rect x="183.7" y="17.9" width="0.5" height="16"/>
<g>
	<path d="M183.8,18c0-1.8,2.5-3.5,4.5-3.5c1.3,0,2.3,0.7,2.3,1.7c0,1.7-2.5,3.5-4.6,3.5C184.8,19.7,183.8,19.1,183.8,18z"/>
</g>
<rect x="195" y="22.9" width="0.5" height="12.7"/>
<g>
	<path d="M195.1,23c0-1.8,2.5-3.5,4.5-3.5c1.3,0,2.3,0.7,2.3,1.7c0,1.7-2.5,3.5-4.6,3.5C196.1,24.7,195.1,24.1,195.1,23z"/>
</g>
<rect x="212.7" y="9.9" width="0.5" height="16.4"/>
<g>
	<path d="M206.3,27.9c0-1.8,2.5-3.5,4.5-3.5c1.3,0,2.3,0.7,2.3,1.7c0,1.7-2.5,3.5-4.6,3.5C207.2,29.7,206.3,29,206.3,27.9z"/>
</g>
<rect x="224" y="11.4" width="0.5" height="17.4"/>
<g>
	<path d="M217.6,30.4c0-1.8,2.5-3.5,4.5-3.5c1.3,0,2.3,0.7,2.3,1.7c0,1.7-2.5,3.5-4.6,3.5C218.5,32.1,217.6,31.5,217.6,30.4z"/>
</g>
<rect x="227" y="34.1" width="10.5" height="0.8"/>
<rect x="235.3" y="13.1" width="0.5" height="20.6"/>
<g>
	<path d="M228.9,35.4c0-1.8,2.5-3.5,4.5-3.5c1.3,0,2.3,0.7,2.3,1.7c0,1.7-2.5,3.5-4.6,3.5C229.9,37.1,228.9,36.5,228.9,35.4z"/>
</g>
<rect x="238.8" y="34.1" width="10.5" height="0.8"/>
<rect x="238.8" y="39.1" width="10.5" height="0.8"/>
<rect x="247.1" y="14.8" width="0.5" height="23.9"/>
<g>
	<path d="M240.7,40.3c0-1.8,2.5-3.5,4.5-3.5c1.3,0,2.3,0.7,2.3,1.7c0,1.7-2.5,3.5-4.6,3.5C241.6,42.1,240.7,41.4,240.7,40.3z"/>
</g>
<rect x="250.6" y="34.1" width="10.7" height="0.8"/>
<rect x="250.6" y="39.1" width="10.7" height="0.8"/>
<rect x="250.6" y="44.1" width="10.7" height="0.8"/>
<rect x="259" y="19.6" width="0.5" height="24"/>
<g>
	<path d="M256.7,41.7c1.6,0,2.7,0.7,2.7,2c0,1.9-2.3,3.4-4.5,3.4c-1.3,0-2.4-0.7-2.4-1.8C252.5,43.5,254.7,41.7,256.7,41.7z
		 M252.9,45.6c0,0.6,0.4,0.9,1.1,0.9c1.4,0,4.9-2.1,4.9-3.3c0-0.6-0.4-0.9-1.1-0.9C256.6,42.3,252.9,44.4,252.9,45.6z"/>
</g>
<rect x="298.5" y="34.1" width="10.5" height="0.8"/>
<rect x="298.5" y="39.1" width="10.5" height="0.8"/>
<rect x="306.8" y="14.8" width="0.5" height="23.9"/>
<g>
	<path d="M300.4,40.3c0-1.8,2.5-3.5,4.5-3.5c1.3,0,2.3,0.7,2.3,1.7c0,1.7-2.5,3.5-4.6,3.5C301.3,42.1,300.4,41.4,300.4,40.3z"/>
</g>
<rect x="310.3" y="34.1" width="10.5" height="0.8"/>
<rect x="318.6" y="13.1" width="0.5" height="20.6"/>
<g>
	<path d="M312.1,35.4c0-1.8,2.5-3.5,4.5-3.5c1.3,0,2.3,0.7,2.3,1.7c0,1.7-2.5,3.5-4.6,3.5C313.1,37.1,312.1,36.5,312.1,35.4z"/>
</g>
<rect x="329.9" y="11.6" width="0.5" height="17.2"/>
<g>
	<path d="M323.4,30.4c0-1.8,2.5-3.5,4.5-3.5c1.3,0,2.3,0.7,2.3,1.7c0,1.7-2.5,3.5-4.6,3.5C324.4,32.1,323.4,31.5,323.4,30.4z"/>
</g>
<rect x="341" y="9.9" width="0.5" height="16.4"/>
<g>
	<path d="M334.6,27.9c0-1.8,2.5-3.5,4.5-3.5c1.3,0,2.3,0.7,2.3,1.7c0,1.7-2.5,3.5-4.6,3.5C335.6,29.7,334.6,29,334.6,27.9z"/>
</g>
<rect x="360.9" y="22.9" width="0.5" height="12.7"/>
<g>
	<path d="M361,23c0-1.8,2.5-3.5,4.5-3.5c1.3,0,2.3,0.7,2.3,1.7c0,1.7-2.5,3.5-4.6,3.5C361.9,24.7,361,24.1,361,23z"/>
</g>
<rect x="372.7" y="17.9" width="0.5" height="16.1"/>
<g>
	<path d="M372.7,18c0-1.8,2.5-3.5,4.5-3.5c1.3,0,2.3,0.7,2.3,1.7c0,1.7-2.5,3.5-4.6,3.5C373.7,19.7,372.7,19.1,372.7,18z"/>
</g>
<rect x="384" y="13" width="0.5" height="19.4"/>
<g>
	<path d="M384.1,13c0-1.8,2.5-3.5,4.5-3.5c1.3,0,2.3,0.7,2.3,1.7c0,1.7-2.5,3.5-4.6,3.5C385,14.8,384.1,14.1,384.1,13z"/>
</g>
<rect x="395.3" y="10.5" width="0.5" height="20.2"/>
<g>
	<path d="M395.4,10.6c0-1.8,2.5-3.5,4.5-3.5c1.3,0,2.3,0.7,2.3,1.7c0,1.7-2.5,3.5-4.6,3.5C396.3,12.3,395.4,11.7,395.4,10.6z"/>
</g>
<rect x="404.8" y="4.4" width="10.5" height="0.8"/>
<rect x="406.6" y="5.5" width="0.5" height="23.9"/>
<g>
	<path d="M406.7,5.6c0-1.8,2.5-3.5,4.5-3.5c1.3,0,2.3,0.7,2.3,1.7c0,1.7-2.5,3.5-4.6,3.5C407.7,7.3,406.7,6.7,406.7,5.6z"/>
</g>
<rect x="417.8" y="10.5" width="0.5" height="20.5"/>
<g>
	<path d="M417.9,10.6c0-1.8,2.5-3.5,4.5-3.5c1.3,0,2.3,0.7,2.3,1.7c0,1.7-2.5,3.5-4.6,3.5C418.8,12.3,417.9,11.7,417.9,10.6z"/>
</g>
<rect x="429.1" y="13" width="0.5" height="19.7"/>
<g>
	<path d="M429.2,13c0-1.8,2.5-3.5,4.5-3.5c1.3,0,2.3,0.7,2.3,1.7c0,1.7-2.5,3.5-4.6,3.5C430.1,14.8,429.2,14.1,429.2,13z"/>
</g>
<rect x="440.4" y="17.9" width="0.5" height="16.4"/>
<g>
	<path d="M440.5,18c0-1.8,2.5-3.5,4.5-3.5c1.3,0,2.3,0.7,2.3,1.7c0,1.7-2.5,3.5-4.6,3.5C441.5,19.7,440.5,19.1,440.5,18z"/>
</g>
<rect x="473.3" y="4.9" width="0.5" height="16.4"/>
<g>
	<path d="M466.8,23c0-1.8,2.5-3.5,4.5-3.5c1.3,0,2.3,0.7,2.3,1.7c0,1.7-2.5,3.5-4.6,3.5C467.8,24.7,466.8,24.1,466.8,23z"/>
</g>
<rect x="484.6" y="6.5" width="0.5" height="19.8"/>
<g>
	<path d="M478.2,27.9c0-1.8,2.5-3.5,4.5-3.5c1.3,0,2.3,0.7,2.3,1.7c0,1.7-2.5,3.5-4.6,3.5C479.1,29.7,478.2,29,478.2,27.9z"/>
</g>
<rect x="495.7" y="8.2" width="0.5" height="20.6"/>
<g>
	<path d="M489.3,30.4c0-1.8,2.5-3.5,4.5-3.5c1.3,0,2.3,0.7,2.3,1.7c0,1.7-2.5,3.5-4.6,3.5C490.3,32.1,489.3,31.5,489.3,30.4z"/>
</g>
<rect x="498.8" y="34.1" width="10.5" height="0.8"/>
<rect x="507.1" y="9.9" width="0.5" height="23.9"/>
<g>
	<path d="M500.6,35.4c0-1.8,2.5-3.5,4.5-3.5c1.3,0,2.3,0.7,2.3,1.7c0,1.7-2.5,3.5-4.6,3.5C501.6,37.1,500.6,36.5,500.6,35.4z"/>
</g>
<rect x="510.6" y="34.1" width="10.7" height="0.8"/>
<rect x="510.6" y="39.1" width="10.7" height="0.8"/>
<rect x="519" y="19.6" width="0.5" height="19.1"/>
<g>
	<path d="M516.7,36.8c1.6,0,2.7,0.7,2.7,2c0,1.9-2.3,3.4-4.5,3.4c-1.3,0-2.4-0.7-2.4-1.8C512.4,38.6,514.7,36.8,516.7,36.8z
		 M512.9,40.6c0,0.6,0.4,0.9,1.1,0.9c1.4,0,4.9-2.1,4.9-3.3c0-0.6-0.4-0.9-1.1-0.9C516.5,37.4,512.9,39.4,512.9,40.6z"/>
</g>
<rect x="74.4" y="55.8" width="0.5" height="22.6"/>
<g>
	<path d="M68,80c0-1.8,2.5-3.5,4.5-3.5c1.3,0,2.3,0.7,2.3,1.7c0,1.7-2.5,3.5-4.6,3.5C69,81.7,68,81.1,68,80z"/>
</g>
<rect x="86.2" y="54.2" width="0.5" height="19.2"/>
<g>
	<path d="M79.8,75.1c0-1.8,2.5-3.5,4.5-3.5c1.3,0,2.3,0.7,2.3,1.7c0,1.7-2.5,3.5-4.6,3.5C80.7,76.8,79.8,76.1,79.8,75.1z"/>
</g>
<rect x="98" y="52.5" width="0.5" height="16"/>
<g>
	<path d="M91.5,70.1c0-1.8,2.5-3.5,4.5-3.5c1.3,0,2.3,0.7,2.3,1.7c0,1.7-2.5,3.5-4.6,3.5C92.5,71.8,91.5,71.2,91.5,70.1z"/>
</g>
<rect x="109.3" y="50.8" width="0.5" height="12.7"/>
<g>
	<path d="M102.9,65.1c0-1.8,2.5-3.5,4.5-3.5c1.3,0,2.3,0.7,2.3,1.7c0,1.7-2.5,3.5-4.6,3.5C103.8,66.9,102.9,66.2,102.9,65.1z"/>
</g>
<rect x="113.9" y="62.6" width="0.5" height="14"/>
<g>
	<path d="M114,62.7c0-1.8,2.5-3.5,4.5-3.5c1.3,0,2.3,0.7,2.3,1.7c0,1.7-2.5,3.5-4.6,3.5C115,64.4,114,63.7,114,62.7z"/>
</g>
<rect x="125.3" y="57.6" width="0.5" height="17.4"/>
<g>
	<path d="M125.3,57.7c0-1.8,2.5-3.5,4.5-3.5c1.3,0,2.3,0.7,2.3,1.7c0,1.7-2.5,3.5-4.6,3.5C126.3,59.4,125.3,58.8,125.3,57.7z"/>
</g>
<rect x="134.8" y="51.5" width="10.5" height="0.8"/>
<rect x="136.6" y="52.7" width="0.5" height="20.6"/>
<g>
	<path d="M136.7,52.7c0-1.8,2.5-3.5,4.5-3.5c1.3,0,2.3,0.7,2.3,1.7c0,1.7-2.5,3.5-4.6,3.5C137.6,54.5,136.7,53.8,136.7,52.7z"/>
</g>
<rect x="146.6" y="51.5" width="10.5" height="0.8"/>
<rect x="146.6" y="46.5" width="10.5" height="0.8"/>
<rect x="148.4" y="47.7" width="0.5" height="23.9"/>
<g>
	<path d="M148.4,47.8c0-1.8,2.5-3.5,4.5-3.5c1.3,0,2.3,0.7,2.3,1.7c0,1.7-2.5,3.5-4.6,3.5C149.4,49.5,148.4,48.9,148.4,47.8z"/>
</g>
<rect x="158.4" y="51.5" width="10.5" height="0.8"/>
<rect x="158.4" y="46.5" width="10.5" height="0.8"/>
<rect x="160.1" y="45.2" width="0.5" height="21.4"/>
<g>
	<path d="M160.2,45.3c0-1.8,2.5-3.5,4.5-3.5c1.3,0,2.3,0.7,2.3,1.7c0,1.7-2.5,3.5-4.6,3.5C161.2,47,160.2,46.4,160.2,45.3z"/>
</g>
<rect x="170.1" y="51.5" width="10.5" height="0.8"/>
<rect x="170.1" y="46.5" width="10.5" height="0.8"/>
<rect x="171.9" y="47.7" width="0.5" height="20.5"/>
<g>
	<path d="M172,47.8c0-1.8,2.5-3.5,4.5-3.5c1.3,0,2.3,0.7,2.3,1.7c0,1.7-2.5,3.5-4.6,3.5C173,49.5,172,48.9,172,47.8z"/>
</g>
<rect x="181.9" y="51.5" width="10.5" height="0.8"/>
<rect x="183.7" y="52.7" width="0.5" height="17.2"/>
<g>
	<path d="M183.8,52.7c0-1.8,2.5-3.5,4.5-3.5c1.3,0,2.3,0.7,2.3,1.7c0,1.7-2.5,3.5-4.6,3.5C184.8,54.5,183.8,53.8,183.8,52.7z"/>
</g>
<rect x="195" y="57.6" width="0.5" height="14"/>
<g>
	<path d="M195.1,57.7c0-1.8,2.5-3.5,4.5-3.5c1.3,0,2.3,0.7,2.3,1.7c0,1.7-2.5,3.5-4.6,3.5C196.1,59.4,195.1,58.8,195.1,57.7z"/>
</g>
<rect x="212.7" y="47.1" width="0.5" height="14"/>
<g>
	<path d="M206.3,62.7c0-1.8,2.5-3.5,4.5-3.5c1.3,0,2.3,0.7,2.3,1.7c0,1.7-2.5,3.5-4.6,3.5C207.2,64.4,206.3,63.7,206.3,62.7z"/>
</g>
<rect x="224" y="48.6" width="0.5" height="14.9"/>
<g>
	<path d="M217.6,65.1c0-1.8,2.5-3.5,4.5-3.5c1.3,0,2.3,0.7,2.3,1.7c0,1.7-2.5,3.5-4.6,3.5C218.5,66.9,217.6,66.2,217.6,65.1z"/>
</g>
<rect x="235.3" y="50.3" width="0.5" height="18.1"/>
<g>
	<path d="M228.9,70.1c0-1.8,2.5-3.5,4.5-3.5c1.3,0,2.3,0.7,2.3,1.7c0,1.7-2.5,3.5-4.6,3.5C229.9,71.8,228.9,71.2,228.9,70.1z"/>
</g>
<rect x="247.1" y="52" width="0.5" height="21.4"/>
<g>
	<path d="M240.7,75.1c0-1.8,2.5-3.5,4.5-3.5c1.3,0,2.3,0.7,2.3,1.7c0,1.7-2.5,3.5-4.6,3.5C241.6,76.8,240.7,76.1,240.7,75.1z"/>
</g>
<rect x="259" y="61.8" width="0.5" height="16.6"/>
<g>
	<path d="M256.7,76.5c1.6,0,2.7,0.7,2.7,2c0,1.9-2.3,3.4-4.5,3.4c-1.3,0-2.4-0.7-2.4-1.8C252.5,78.2,254.7,76.5,256.7,76.5z
		 M252.9,80.3c0,0.6,0.4,0.9,1.1,0.9c1.4,0,4.9-2.1,4.9-3.3c0-0.6-0.4-0.9-1.1-0.9C256.6,77.1,252.9,79.1,252.9,80.3z"/>
</g>
<rect x="306.8" y="52" width="0.5" height="21.4"/>
<g>
	<path d="M300.4,75.1c0-1.8,2.5-3.5,4.5-3.5c1.3,0,2.3,0.7,2.3,1.7c0,1.7-2.5,3.5-4.6,3.5C301.3,76.8,300.4,76.1,300.4,75.1z"/>
</g>
<rect x="318.6" y="50.3" width="0.5" height="18.1"/>
<g>
	<path d="M312.1,70.1c0-1.8,2.5-3.5,4.5-3.5c1.3,0,2.3,0.7,2.3,1.7c0,1.7-2.5,3.5-4.6,3.5C313.1,71.8,312.1,71.2,312.1,70.1z"/>
</g>
<rect x="329.9" y="48.8" width="0.5" height="14.7"/>
<g>
	<path d="M323.4,65.1c0-1.8,2.5-3.5,4.5-3.5c1.3,0,2.3,0.7,2.3,1.7c0,1.7-2.5,3.5-4.6,3.5C324.4,66.9,323.4,66.2,323.4,65.1z"/>
</g>
<rect x="341" y="47.1" width="0.5" height="14"/>
<g>
	<path d="M334.6,62.7c0-1.8,2.5-3.5,4.5-3.5c1.3,0,2.3,0.7,2.3,1.7c0,1.7-2.5,3.5-4.6,3.5C335.6,64.4,334.6,63.7,334.6,62.7z"/>
</g>
<rect x="359.1" y="81.3" width="10.5" height="0.8"/>
<rect x="359.1" y="86.2" width="10.5" height="0.8"/>
<rect x="367.4" y="62" width="0.5" height="23.9"/>
<g>
	<path d="M361,87.5c0-1.8,2.5-3.5,4.5-3.5c1.3,0,2.3,0.7,2.3,1.7c0,1.7-2.5,3.5-4.6,3.5C361.9,89.2,361,88.5,361,87.5z"/>
</g>
<rect x="370.9" y="81.3" width="10.5" height="0.8"/>
<rect x="379.2" y="60.4" width="0.5" height="20.5"/>
<g>
	<path d="M372.7,82.5c0-1.8,2.5-3.5,4.5-3.5c1.3,0,2.3,0.7,2.3,1.7c0,1.7-2.5,3.5-4.6,3.5C373.7,84.2,372.7,83.6,372.7,82.5z"/>
</g>
<rect x="390.5" y="58.7" width="0.5" height="17.2"/>
<g>
	<path d="M384.1,77.5c0-1.8,2.5-3.5,4.5-3.5c1.3,0,2.3,0.7,2.3,1.7c0,1.7-2.5,3.5-4.6,3.5C385,79.3,384.1,78.6,384.1,77.5z"/>
</g>
<rect x="401.8" y="57" width="0.5" height="16.4"/>
<g>
	<path d="M395.4,75.1c0-1.8,2.5-3.5,4.5-3.5c1.3,0,2.3,0.7,2.3,1.7c0,1.7-2.5,3.5-4.6,3.5C396.3,76.8,395.4,76.1,395.4,75.1z"/>
</g>
<rect x="413.1" y="52" width="0.5" height="16.4"/>
<g>
	<path d="M406.7,70.1c0-1.8,2.5-3.5,4.5-3.5c1.3,0,2.3,0.7,2.3,1.7c0,1.7-2.5,3.5-4.6,3.5C407.7,71.8,406.7,71.2,406.7,70.1z"/>
</g>
<rect x="424.3" y="53.6" width="0.5" height="19.8"/>
<g>
	<path d="M417.9,75.1c0-1.8,2.5-3.5,4.5-3.5c1.3,0,2.3,0.7,2.3,1.7c0,1.7-2.5,3.5-4.6,3.5C418.8,76.8,417.9,76.1,417.9,75.1z"/>
</g>
<rect x="435.6" y="55.3" width="0.5" height="20.6"/>
<g>
	<path d="M429.2,77.5c0-1.8,2.5-3.5,4.5-3.5c1.3,0,2.3,0.7,2.3,1.7c0,1.7-2.5,3.5-4.6,3.5C430.1,79.3,429.2,78.6,429.2,77.5z"/>
</g>
<rect x="438.6" y="81.3" width="10.5" height="0.8"/>
<rect x="446.9" y="57" width="0.5" height="23.9"/>
<g>
	<path d="M440.5,82.5c0-1.8,2.5-3.5,4.5-3.5c1.3,0,2.3,0.7,2.3,1.7c0,1.7-2.5,3.5-4.6,3.5C441.5,84.2,440.5,83.6,440.5,82.5z"/>
</g>
<rect x="466.8" y="57.6" width="0.5" height="20.2"/>
<g>
	<path d="M466.8,57.7c0-1.8,2.5-3.5,4.5-3.5c1.3,0,2.3,0.7,2.3,1.7c0,1.7-2.5,3.5-4.6,3.5C467.8,59.4,466.8,58.8,466.8,57.7z"/>
</g>
<rect x="478.1" y="62.6" width="0.5" height="16.7"/>
<g>
	<path d="M478.2,62.7c0-1.8,2.5-3.5,4.5-3.5c1.3,0,2.3,0.7,2.3,1.7c0,1.7-2.5,3.5-4.6,3.5C479.1,64.4,478.2,63.7,478.2,62.7z"/>
</g>
<rect x="489.2" y="65.1" width="0.5" height="16"/>
<g>
	<path d="M489.3,65.1c0-1.8,2.5-3.5,4.5-3.5c1.3,0,2.3,0.7,2.3,1.7c0,1.7-2.5,3.5-4.6,3.5C490.3,66.9,489.3,66.2,489.3,65.1z"/>
</g>
<rect x="500.6" y="70" width="0.5" height="12.7"/>
<g>
	<path d="M500.6,70.1c0-1.8,2.5-3.5,4.5-3.5c1.3,0,2.3,0.7,2.3,1.7c0,1.7-2.5,3.5-4.6,3.5C501.6,71.8,500.6,71.2,500.6,70.1z"/>
</g>
<rect x="519" y="56.8" width="0.5" height="16.6"/>
<g>
	<path d="M516.7,71.5c1.6,0,2.7,0.7,2.7,2c0,1.9-2.3,3.4-4.5,3.4c-1.3,0-2.4-0.7-2.4-1.8C512.4,73.3,514.7,71.5,516.7,71.5z
		 M512.9,75.4c0,0.6,0.4,0.9,1.1,0.9c1.4,0,4.9-2.1,4.9-3.3c0-0.6-0.4-0.9-1.1-0.9C516.5,72.1,512.9,74.1,512.9,75.4z"/>
</g>
<rect x="66.1" y="156.1" width="10.5" height="0.8"/>
<rect x="74.4" y="131.9" width="0.5" height="23.9"/>
<g>
	<path d="M68,157.4c0-1.8,2.5-3.5,4.5-3.5c1.3,0,2.3,0.7,2.3,1.7c0,1.7-2.5,3.5-4.6,3.5C69,159.1,68,158.5,68,157.4z"/>
</g>
<rect x="84.6" y="130.3" width="0.5" height="20.5"/>
<g>
	<path d="M78.2,152.4c0-1.8,2.5-3.5,4.5-3.5c1.3,0,2.3,0.7,2.3,1.7c0,1.7-2.5,3.5-4.6,3.5C79.2,154.1,78.2,153.5,78.2,152.4z"/>
</g>
<rect x="94.7" y="128.6" width="0.5" height="19.7"/>
<g>
	<path d="M88.3,149.9c0-1.8,2.5-3.5,4.5-3.5c1.3,0,2.3,0.7,2.3,1.7c0,1.7-2.5,3.5-4.6,3.5C89.3,151.6,88.3,151,88.3,149.9z"/>
</g>
<rect x="105" y="126.9" width="0.5" height="16.4"/>
<g>
	<path d="M98.5,145c0-1.8,2.5-3.5,4.5-3.5c1.3,0,2.3,0.7,2.3,1.7c0,1.7-2.5,3.5-4.6,3.5C99.5,146.7,98.5,146.1,98.5,145z"/>
</g>
<rect x="124.8" y="139.9" width="0.5" height="16.4"/>
<g>
	<path d="M124.9,140c0-1.8,2.5-3.5,4.5-3.5c1.3,0,2.3,0.7,2.3,1.7c0,1.7-2.5,3.5-4.6,3.5C125.8,141.7,124.9,141.1,124.9,140z"/>
</g>
<rect x="135" y="135" width="0.5" height="19.8"/>
<g>
	<path d="M135.1,135c0-1.8,2.5-3.5,4.5-3.5c1.3,0,2.3,0.7,2.3,1.7c0,1.7-2.5,3.5-4.6,3.5C136.1,136.8,135.1,136.1,135.1,135z"/>
</g>
<rect x="145.1" y="132.5" width="0.5" height="20.6"/>
<g>
	<path d="M145.2,132.6c0-1.8,2.5-3.5,4.5-3.5c1.3,0,2.3,0.7,2.3,1.7c0,1.7-2.5,3.5-4.6,3.5C146.2,134.3,145.2,133.7,145.2,132.6z"/>
</g>
<rect x="153.6" y="126.4" width="10.5" height="0.8"/>
<rect x="155.3" y="127.5" width="0.5" height="23.9"/>
<g>
	<path d="M155.4,127.6c0-1.8,2.5-3.5,4.5-3.5c1.3,0,2.3,0.7,2.3,1.7c0,1.7-2.5,3.5-4.6,3.5C156.4,129.3,155.4,128.7,155.4,127.6z"/>
</g>
<rect x="165.3" y="126.4" width="10.5" height="0.8"/>
<rect x="165.3" y="121.4" width="10.5" height="0.8"/>
<rect x="167.1" y="122.6" width="0.5" height="23.9"/>
<g>
	<path d="M167.2,122.6c0-1.8,2.5-3.5,4.5-3.5c1.3,0,2.3,0.7,2.3,1.7c0,1.7-2.5,3.5-4.6,3.5C168.2,124.4,167.2,123.7,167.2,122.6z"/>
</g>
<rect x="177.1" y="126.4" width="10.5" height="0.8"/>
<rect x="178.9" y="127.5" width="0.5" height="20.6"/>
<g>
	<path d="M179,127.6c0-1.8,2.5-3.5,4.5-3.5c1.3,0,2.3,0.7,2.3,1.7c0,1.7-2.5,3.5-4.6,3.5C179.9,129.3,179,128.7,179,127.6z"/>
</g>
<rect x="189.1" y="132.5" width="0.5" height="17.2"/>
<g>
	<path d="M189.2,132.6c0-1.8,2.5-3.5,4.5-3.5c1.3,0,2.3,0.7,2.3,1.7c0,1.7-2.5,3.5-4.6,3.5C190.2,134.3,189.2,133.7,189.2,132.6z"/>
</g>
<rect x="199.2" y="135" width="0.5" height="16.4"/>
<g>
	<path d="M199.3,135c0-1.8,2.5-3.5,4.5-3.5c1.3,0,2.3,0.7,2.3,1.7c0,1.7-2.5,3.5-4.6,3.5C200.3,136.8,199.3,136.1,199.3,135z"/>
</g>
<rect x="232.1" y="125.7" width="0.5" height="12.7"/>
<g>
	<path d="M225.6,140c0-1.8,2.5-3.5,4.5-3.5c1.3,0,2.3,0.7,2.3,1.7c0,1.7-2.5,3.5-4.6,3.5C226.6,141.7,225.6,141.1,225.6,140z"/>
</g>
<rect x="242.3" y="127.2" width="0.5" height="16.1"/>
<g>
	<path d="M235.9,145c0-1.8,2.5-3.5,4.5-3.5c1.3,0,2.3,0.7,2.3,1.7c0,1.7-2.5,3.5-4.6,3.5C236.8,146.7,235.9,146.1,235.9,145z"/>
</g>
<rect x="252.4" y="128.9" width="0.5" height="19.4"/>
<g>
	<path d="M245.9,149.9c0-1.8,2.5-3.5,4.5-3.5c1.3,0,2.3,0.7,2.3,1.7c0,1.7-2.5,3.5-4.6,3.5C246.9,151.6,245.9,151,245.9,149.9z"/>
</g>
<rect x="262.6" y="130.6" width="0.5" height="20.2"/>
<g>
	<path d="M256.2,152.4c0-1.8,2.5-3.5,4.5-3.5c1.3,0,2.3,0.7,2.3,1.7c0,1.7-2.5,3.5-4.6,3.5C257.1,154.1,256.2,153.5,256.2,152.4z"/>
</g>
<rect x="264.5" y="156.1" width="10.7" height="0.8"/>
<rect x="273" y="139.1" width="0.5" height="16.6"/>
<g>
	<path d="M270.7,153.8c1.6,0,2.7,0.7,2.7,2c0,1.9-2.3,3.4-4.5,3.4c-1.3,0-2.4-0.7-2.4-1.8C266.4,155.6,268.6,153.8,270.7,153.8z
		 M266.9,157.7c0,0.6,0.4,0.9,1.1,0.9c1.4,0,4.9-2.1,4.9-3.3c0-0.6-0.4-0.9-1.1-0.9C270.5,154.4,266.9,156.4,266.9,157.7z"/>
</g>
<rect x="317.3" y="130.6" width="0.5" height="20.2"/>
<g>
	<path d="M310.9,152.4c0-1.8,2.5-3.5,4.5-3.5c1.3,0,2.3,0.7,2.3,1.7c0,1.7-2.5,3.5-4.6,3.5C311.9,154.1,310.9,153.5,310.9,152.4z"/>
</g>
<rect x="327.6" y="129.1" width="0.5" height="19.2"/>
<g>
	<path d="M321.1,149.9c0-1.8,2.5-3.5,4.5-3.5c1.3,0,2.3,0.7,2.3,1.7c0,1.7-2.5,3.5-4.6,3.5C322.1,151.6,321.1,151,321.1,149.9z"/>
</g>
<rect x="337.6" y="127.4" width="0.5" height="16"/>
<g>
	<path d="M331.2,145c0-1.8,2.5-3.5,4.5-3.5c1.3,0,2.3,0.7,2.3,1.7c0,1.7-2.5,3.5-4.6,3.5C332.2,146.7,331.2,146.1,331.2,145z"/>
</g>
<rect x="347.9" y="125.7" width="0.5" height="12.7"/>
<g>
	<path d="M341.4,140c0-1.8,2.5-3.5,4.5-3.5c1.3,0,2.3,0.7,2.3,1.7c0,1.7-2.5,3.5-4.6,3.5C342.4,141.7,341.4,141.1,341.4,140z"/>
</g>
<rect x="367.7" y="135" width="0.5" height="16.4"/>
<g>
	<path d="M367.8,135c0-1.8,2.5-3.5,4.5-3.5c1.3,0,2.3,0.7,2.3,1.7c0,1.7-2.5,3.5-4.6,3.5C368.8,136.8,367.8,136.1,367.8,135z"/>
</g>
<rect x="377.9" y="132.5" width="0.5" height="17.4"/>
<g>
	<path d="M378,132.6c0-1.8,2.5-3.5,4.5-3.5c1.3,0,2.3,0.7,2.3,1.7c0,1.7-2.5,3.5-4.6,3.5C379,134.3,378,133.7,378,132.6z"/>
</g>
<rect x="386.2" y="126.4" width="10.5" height="0.8"/>
<rect x="388" y="127.5" width="0.5" height="20.8"/>
<g>
	<path d="M388.1,127.6c0-1.8,2.5-3.5,4.5-3.5c1.3,0,2.3,0.7,2.3,1.7c0,1.7-2.5,3.5-4.6,3.5C389.1,129.3,388.1,128.7,388.1,127.6z"/>
</g>
<rect x="398" y="126.4" width="10.5" height="0.8"/>
<rect x="398" y="121.4" width="10.5" height="0.8"/>
<rect x="399.8" y="122.6" width="0.5" height="23.9"/>
<g>
	<path d="M399.9,122.6c0-1.8,2.5-3.5,4.5-3.5c1.3,0,2.3,0.7,2.3,1.7c0,1.7-2.5,3.5-4.6,3.5C400.8,124.4,399.9,123.7,399.9,122.6z"/>
</g>
<rect x="409.8" y="126.4" width="10.5" height="0.8"/>
<rect x="409.8" y="121.4" width="10.5" height="0.8"/>
<rect x="409.8" y="116.4" width="10.5" height="0.8"/>
<rect x="411.6" y="117.6" width="0.5" height="23.9"/>
<g>
	<path d="M411.7,117.7c0-1.8,2.5-3.5,4.5-3.5c1.3,0,2.3,0.7,2.3,1.7c0,1.7-2.5,3.5-4.6,3.5C412.6,119.4,411.7,118.8,411.7,117.7z"/>
</g>
<rect x="421.6" y="126.4" width="10.5" height="0.8"/>
<rect x="421.6" y="121.4" width="10.5" height="0.8"/>
<rect x="423.4" y="122.6" width="0.5" height="20.6"/>
<g>
	<path d="M423.4,122.6c0-1.8,2.5-3.5,4.5-3.5c1.3,0,2.3,0.7,2.3,1.7c0,1.7-2.5,3.5-4.6,3.5C424.4,124.4,423.4,123.7,423.4,122.6z"/>
</g>
<rect x="433.4" y="126.4" width="10.5" height="0.8"/>
<rect x="435.1" y="127.5" width="0.5" height="17.4"/>
<g>
	<path d="M435.2,127.6c0-1.8,2.5-3.5,4.5-3.5c1.3,0,2.3,0.7,2.3,1.7c0,1.7-2.5,3.5-4.6,3.5C436.2,129.3,435.2,128.7,435.2,127.6z"/>
</g>
<rect x="445.4" y="132.5" width="0.5" height="14"/>
<g>
	<path d="M445.4,132.6c0-1.8,2.5-3.5,4.5-3.5c1.3,0,2.3,0.7,2.3,1.7c0,1.7-2.5,3.5-4.6,3.5C446.4,134.3,445.4,133.7,445.4,132.6z"/>
</g>
<rect x="471.7" y="135" width="0.5" height="22.6"/>
<g>
	<path d="M471.8,135c0-1.8,2.5-3.5,4.5-3.5c1.3,0,2.3,0.7,2.3,1.7c0,1.7-2.5,3.5-4.6,3.5C472.8,136.8,471.8,136.1,471.8,135z"/>
</g>
<rect x="483.5" y="139.9" width="0.5" height="19.4"/>
<g>
	<path d="M483.6,140c0-1.8,2.5-3.5,4.5-3.5c1.3,0,2.3,0.7,2.3,1.7c0,1.7-2.5,3.5-4.6,3.5C484.6,141.7,483.6,141.1,483.6,140z"/>
</g>
<rect x="493.7" y="144.9" width="0.5" height="16"/>
<g>
	<path d="M493.8,145c0-1.8,2.5-3.5,4.5-3.5c1.3,0,2.3,0.7,2.3,1.7c0,1.7-2.5,3.5-4.6,3.5C494.8,146.7,493.8,146.1,493.8,145z"/>
</g>
<rect x="503.8" y="149.8" width="0.5" height="12.7"/>
<g>
	<path d="M503.9,149.9c0-1.8,2.5-3.5,4.5-3.5c1.3,0,2.3,0.7,2.3,1.7c0,1.7-2.5,3.5-4.6,3.5C504.9,151.6,503.9,151,503.9,149.9z"/>
</g>
<rect x="520.7" y="134.2" width="0.5" height="16.6"/>
<g>
	<path d="M518.4,148.9c1.6,0,2.7,0.7,2.7,2c0,1.9-2.3,3.4-4.5,3.4c-1.3,0-2.4-0.7-2.4-1.8C514.1,150.6,516.4,148.9,518.4,148.9z
		 M514.6,152.7c0,0.6,0.4,0.9,1.1,0.9c1.4,0,4.9-2.1,4.9-3.3c0-0.6-0.4-0.9-1.1-0.9C518.2,149.4,514.6,151.5,514.6,152.7z"/>
</g>
<rect x="67.9" y="192" width="0.5" height="12.7"/>
<g>
	<path d="M68,192.1c0-1.8,2.5-3.5,4.5-3.5c1.3,0,2.3,0.7,2.3,1.7c0,1.7-2.5,3.5-4.6,3.5C69,193.8,68,193.2,68,192.1z"/>
</g>
<rect x="78.1" y="187" width="0.5" height="16.1"/>
<g>
	<path d="M78.2,187.1c0-1.8,2.5-3.5,4.5-3.5c1.3,0,2.3,0.7,2.3,1.7c0,1.7-2.5,3.5-4.6,3.5C79.2,188.9,78.2,188.2,78.2,187.1z"/>
</g>
<rect x="88.2" y="184.6" width="0.5" height="16.9"/>
<g>
	<path d="M88.3,184.6c0-1.8,2.5-3.5,4.5-3.5c1.3,0,2.3,0.7,2.3,1.7c0,1.7-2.5,3.5-4.6,3.5C89.3,186.4,88.3,185.7,88.3,184.6z"/>
</g>
<rect x="98.4" y="179.6" width="0.5" height="20.2"/>
<g>
	<path d="M98.5,179.7c0-1.8,2.5-3.5,4.5-3.5c1.3,0,2.3,0.7,2.3,1.7c0,1.7-2.5,3.5-4.6,3.5C99.5,181.4,98.5,180.8,98.5,179.7z"/>
</g>
<rect x="123" y="203.2" width="10.5" height="0.8"/>
<rect x="131.3" y="179" width="0.5" height="23.9"/>
<g>
	<path d="M124.9,204.5c0-1.8,2.5-3.5,4.5-3.5c1.3,0,2.3,0.7,2.3,1.7c0,1.7-2.5,3.5-4.6,3.5C125.8,206.2,124.9,205.6,124.9,204.5z"/>
</g>
<rect x="141.5" y="177.4" width="0.5" height="20.5"/>
<g>
	<path d="M135.1,199.5c0-1.8,2.5-3.5,4.5-3.5c1.3,0,2.3,0.7,2.3,1.7c0,1.7-2.5,3.5-4.6,3.5C136.1,201.3,135.1,200.6,135.1,199.5z"/>
</g>
<rect x="151.6" y="175.7" width="0.5" height="19.7"/>
<g>
	<path d="M145.2,197c0-1.8,2.5-3.5,4.5-3.5c1.3,0,2.3,0.7,2.3,1.7c0,1.7-2.5,3.5-4.6,3.5C146.2,198.8,145.2,198.1,145.2,197z"/>
</g>
<rect x="161.8" y="174" width="0.5" height="16.4"/>
<g>
	<path d="M155.4,192.1c0-1.8,2.5-3.5,4.5-3.5c1.3,0,2.3,0.7,2.3,1.7c0,1.7-2.5,3.5-4.6,3.5C156.4,193.8,155.4,193.2,155.4,192.1z"/>
</g>
<rect x="173.6" y="172.8" width="0.5" height="12.7"/>
<g>
	<path d="M167.2,187.1c0-1.8,2.5-3.5,4.5-3.5c1.3,0,2.3,0.7,2.3,1.7c0,1.7-2.5,3.5-4.6,3.5C168.2,188.9,167.2,188.2,167.2,187.1z"/>
</g>
<rect x="185.4" y="174.5" width="0.5" height="16"/>
<g>
	<path d="M179,192.1c0-1.8,2.5-3.5,4.5-3.5c1.3,0,2.3,0.7,2.3,1.7c0,1.7-2.5,3.5-4.6,3.5C179.9,193.8,179,193.2,179,192.1z"/>
</g>
<rect x="195.6" y="176" width="0.5" height="19.4"/>
<g>
	<path d="M189.2,197c0-1.8,2.5-3.5,4.5-3.5c1.3,0,2.3,0.7,2.3,1.7c0,1.7-2.5,3.5-4.6,3.5C190.2,198.8,189.2,198.1,189.2,197z"/>
</g>
<rect x="205.7" y="177.7" width="0.5" height="20.2"/>
<g>
	<path d="M199.3,199.5c0-1.8,2.5-3.5,4.5-3.5c1.3,0,2.3,0.7,2.3,1.7c0,1.7-2.5,3.5-4.6,3.5C200.3,201.3,199.3,200.6,199.3,199.5z"/>
</g>
<rect x="223.8" y="173.5" width="10.5" height="0.8"/>
<rect x="225.6" y="174.6" width="0.5" height="23.9"/>
<g>
	<path d="M225.6,174.7c0-1.8,2.5-3.5,4.5-3.5c1.3,0,2.3,0.7,2.3,1.7c0,1.7-2.5,3.5-4.6,3.5C226.6,176.5,225.6,175.8,225.6,174.7z"/>
</g>
<rect x="235.8" y="179.6" width="0.5" height="20.5"/>
<g>
	<path d="M235.9,179.7c0-1.8,2.5-3.5,4.5-3.5c1.3,0,2.3,0.7,2.3,1.7c0,1.7-2.5,3.5-4.6,3.5C236.8,181.4,235.9,180.8,235.9,179.7z"/>
</g>
<rect x="245.9" y="184.6" width="0.5" height="17.2"/>
<g>
	<path d="M245.9,184.6c0-1.8,2.5-3.5,4.5-3.5c1.3,0,2.3,0.7,2.3,1.7c0,1.7-2.5,3.5-4.6,3.5C246.9,186.4,245.9,185.7,245.9,184.6z"/>
</g>
<rect x="256.1" y="187" width="0.5" height="16.4"/>
<g>
	<path d="M256.2,187.1c0-1.8,2.5-3.5,4.5-3.5c1.3,0,2.3,0.7,2.3,1.7c0,1.7-2.5,3.5-4.6,3.5C257.1,188.9,256.2,188.2,256.2,187.1z"/>
</g>
<rect x="273" y="173.9" width="0.5" height="16.6"/>
<g>
	<path d="M270.7,188.5c1.6,0,2.7,0.7,2.7,2c0,1.9-2.3,3.4-4.5,3.4c-1.3,0-2.4-0.7-2.4-1.8C266.4,190.3,268.6,188.5,270.7,188.5z
		 M266.9,192.4c0,0.6,0.4,0.9,1.1,0.9c1.4,0,4.9-2.1,4.9-3.3c0-0.6-0.4-0.9-1.1-0.9C270.5,189.1,266.9,191.2,266.9,192.4z"/>
</g>
<rect x="310.8" y="187" width="0.5" height="16.4"/>
<g>
	<path d="M310.9,187.1c0-1.8,2.5-3.5,4.5-3.5c1.3,0,2.3,0.7,2.3,1.7c0,1.7-2.5,3.5-4.6,3.5C311.9,188.9,310.9,188.2,310.9,187.1z"/>
</g>
<rect x="321" y="184.6" width="0.5" height="17.4"/>
<g>
	<path d="M321.1,184.6c0-1.8,2.5-3.5,4.5-3.5c1.3,0,2.3,0.7,2.3,1.7c0,1.7-2.5,3.5-4.6,3.5C322.1,186.4,321.1,185.7,321.1,184.6z"/>
</g>
<rect x="331.1" y="179.6" width="0.5" height="20.6"/>
<g>
	<path d="M331.2,179.7c0-1.8,2.5-3.5,4.5-3.5c1.3,0,2.3,0.7,2.3,1.7c0,1.7-2.5,3.5-4.6,3.5C332.2,181.4,331.2,180.8,331.2,179.7z"/>
</g>
<rect x="339.6" y="173.5" width="10.5" height="0.8"/>
<rect x="341.4" y="174.6" width="0.5" height="23.9"/>
<g>
	<path d="M341.4,174.7c0-1.8,2.5-3.5,4.5-3.5c1.3,0,2.3,0.7,2.3,1.7c0,1.7-2.5,3.5-4.6,3.5C342.4,176.5,341.4,175.8,341.4,174.7z"/>
</g>
<rect x="374.2" y="177.7" width="0.5" height="20.2"/>
<g>
	<path d="M367.8,199.5c0-1.8,2.5-3.5,4.5-3.5c1.3,0,2.3,0.7,2.3,1.7c0,1.7-2.5,3.5-4.6,3.5C368.8,201.3,367.8,200.6,367.8,199.5z"/>
</g>
<rect x="384.4" y="176.2" width="0.5" height="19.2"/>
<g>
	<path d="M378,197c0-1.8,2.5-3.5,4.5-3.5c1.3,0,2.3,0.7,2.3,1.7c0,1.7-2.5,3.5-4.6,3.5C379,198.8,378,198.1,378,197z"/>
</g>
<rect x="394.5" y="174.6" width="0.5" height="15.8"/>
<g>
	<path d="M388.1,192.1c0-1.8,2.5-3.5,4.5-3.5c1.3,0,2.3,0.7,2.3,1.7c0,1.7-2.5,3.5-4.6,3.5C389.1,193.8,388.1,193.2,388.1,192.1z"/>
</g>
<rect x="406.3" y="172.8" width="0.5" height="12.7"/>
<g>
	<path d="M399.9,187.1c0-1.8,2.5-3.5,4.5-3.5c1.3,0,2.3,0.7,2.3,1.7c0,1.7-2.5,3.5-4.6,3.5C400.8,188.9,399.9,188.2,399.9,187.1z"/>
</g>
<rect x="411.6" y="182.1" width="0.5" height="22.6"/>
<g>
	<path d="M411.7,182.2c0-1.8,2.5-3.5,4.5-3.5c1.3,0,2.3,0.7,2.3,1.7c0,1.7-2.5,3.5-4.6,3.5C412.6,183.9,411.7,183.3,411.7,182.2z"/>
</g>
<rect x="423.4" y="187" width="0.5" height="19.4"/>
<g>
	<path d="M423.4,187.1c0-1.8,2.5-3.5,4.5-3.5c1.3,0,2.3,0.7,2.3,1.7c0,1.7-2.5,3.5-4.6,3.5C424.4,188.9,423.4,188.2,423.4,187.1z"/>
</g>
<rect x="435.1" y="192" width="0.5" height="16.1"/>
<g>
	<path d="M435.2,192.1c0-1.8,2.5-3.5,4.5-3.5c1.3,0,2.3,0.7,2.3,1.7c0,1.7-2.5,3.5-4.6,3.5C436.2,193.8,435.2,193.2,435.2,192.1z"/>
</g>
<rect x="445.4" y="197" width="0.5" height="12.7"/>
<g>
	<path d="M445.4,197c0-1.8,2.5-3.5,4.5-3.5c1.3,0,2.3,0.7,2.3,1.7c0,1.7-2.5,3.5-4.6,3.5C446.4,198.8,445.4,198.1,445.4,197z"/>
</g>
<rect x="469.9" y="173.5" width="10.5" height="0.8"/>
<rect x="469.9" y="168.5" width="10.5" height="0.8"/>
<rect x="471.7" y="169.7" width="0.5" height="23.9"/>
<g>
	<path d="M471.8,169.8c0-1.8,2.5-3.5,4.5-3.5c1.3,0,2.3,0.7,2.3,1.7c0,1.7-2.5,3.5-4.6,3.5C472.8,171.5,471.8,170.9,471.8,169.8z"/>
</g>
<rect x="481.7" y="173.5" width="10.5" height="0.8"/>
<rect x="483.5" y="174.6" width="0.5" height="20.6"/>
<g>
	<path d="M483.6,174.7c0-1.8,2.5-3.5,4.5-3.5c1.3,0,2.3,0.7,2.3,1.7c0,1.7-2.5,3.5-4.6,3.5C484.6,176.5,483.6,175.8,483.6,174.7z"/>
</g>
<rect x="493.7" y="179.6" width="0.5" height="17.2"/>
<g>
	<path d="M493.8,179.7c0-1.8,2.5-3.5,4.5-3.5c1.3,0,2.3,0.7,2.3,1.7c0,1.7-2.5,3.5-4.6,3.5C494.8,181.4,493.8,180.8,493.8,179.7z"/>
</g>
<rect x="503.8" y="184.6" width="0.5" height="14"/>
<g>
	<path d="M503.9,184.6c0-1.8,2.5-3.5,4.5-3.5c1.3,0,2.3,0.7,2.3,1.7c0,1.7-2.5,3.5-4.6,3.5C504.9,186.4,503.9,185.7,503.9,184.6z"/>
</g>
<rect x="514" y="187" width="0.5" height="16.6"/>
<g>
	<path d="M518.4,183.6c1.6,0,2.7,0.7,2.7,2c0,1.9-2.3,3.4-4.5,3.4c-1.3,0-2.4-0.7-2.4-1.8C514.1,185.4,516.4,183.6,518.4,183.6z
		 M514.6,187.4c0,0.6,0.4,0.9,1.1,0.9c1.4,0,4.9-2.1,4.9-3.3c0-0.6-0.4-0.9-1.1-0.9C518.2,184.2,514.6,186.2,514.6,187.4z"/>
</g>
</svg>
