<?xml version="1.0" encoding="utf-8"?>

<!--
	ScaleBook
	Copyright (c) Leland Jansen 2015. All rights reserved.
-->

<!DOCTYPE svg PUBLIC "-//W3C//DTD SVG 1.1//EN" "http://www.w3.org/Graphics/SVG/1.1/DTD/svg11.dtd">
<svg version="1.1" id="Layer_1" xmlns="http://www.w3.org/2000/svg" xmlns:xlink="http://www.w3.org/1999/xlink" x="0px" y="0px"
	 viewBox="0 0 553 216.4" enable-background="new 0 0 553 216.4" xml:space="preserve">
<rect x="8.4" y="15" width="0.8" height="67"/>
<g>
	<path d="M7.4,15.7c-1.9,1.1-3.6,5.8-3.6,9.4c0,2.3,1.4,9.9,1.4,12.3c0,5-1.5,8.6-4.6,11.1c3,2.4,4.6,6.1,4.6,11
		c0,2.3-1.4,9.9-1.4,12.3c0,3.8,1.7,8.4,3.6,9.5V82c-3.5-2.3-5.8-8.2-5.8-13.1c0-2.1,1.7-9.4,1.7-11.5c0-3.8-1-6.6-2.9-8.2
		C0.1,48.9,0,48.7,0,48.5s0.1-0.4,0.5-0.7c1.9-1.7,2.9-4.2,2.9-7.6c0-2.1-1.7-10-1.7-12.2c0-5.2,2.1-10.4,5.8-13.1V15.7z"/>
</g>
<rect x="8.4" y="136.8" width="0.8" height="67"/>
<g>
	<path d="M7.4,137.5c-1.9,1.1-3.6,5.8-3.6,9.4c0,2.3,1.4,9.9,1.4,12.3c0,5-1.5,8.6-4.6,11.1c3,2.4,4.6,6.1,4.6,11
		c0,2.3-1.4,9.9-1.4,12.3c0,3.8,1.7,8.4,3.6,9.5v0.7c-3.5-2.3-5.8-8.2-5.8-13.1c0-2.1,1.7-9.4,1.7-11.5c0-3.8-1-6.6-2.9-8.2
		c-0.3-0.3-0.5-0.5-0.5-0.7s0.1-0.4,0.5-0.7c1.9-1.7,2.9-4.2,2.9-7.6c0-2.1-1.7-10-1.7-12.2c0-5.2,2.1-10.4,5.8-13.1V137.5z"/>
</g>
<rect x="303.1" y="15" width="0.8" height="67"/>
<rect x="305.7" y="15" width="0.8" height="67"/>
<rect x="549.5" y="15" width="0.8" height="67"/>
<rect x="552.2" y="15" width="0.8" height="67"/>
<rect x="318.4" y="136.8" width="0.8" height="67"/>
<rect x="321" y="136.8" width="0.8" height="67"/>
<rect x="547.8" y="136.8" width="0.8" height="67"/>
<rect x="550.4" y="136.8" width="2.5" height="67"/>
<rect x="8.5" y="34.6" width="544.4" height="0.5"/>
<rect x="8.5" y="29.6" width="544.4" height="0.5"/>
<rect x="8.5" y="24.7" width="544.4" height="0.5"/>
<rect x="8.5" y="19.7" width="544.4" height="0.5"/>
<rect x="8.5" y="14.8" width="544.4" height="0.5"/>
<g>
	<path d="M20.3,34.7c-4.2,0-8.1-3.1-8.1-6.9c0-3.2,2.3-6.7,6.8-10.5c-0.3-1.2-0.4-2.4-0.4-3.6c0-3.5,1.2-6.8,3.2-8.5
		c1.8,2.5,2.7,4.9,2.7,7.1c0,2.9-1.3,5.6-4.3,8.1l0.9,4.2c0.5,0,0.8-0.1,0.8-0.1c2.6,0,4.8,2,4.8,4.7c0,1.9-1.4,3.7-3.6,4.8
		c0-0.1,0.9,3.8,0.9,4.3c0,2.5-2.3,4.2-4.9,4.2c-2,0-3.6-1.3-3.6-3.4c0-1.4,1-2.6,2.4-2.6c1.3,0,2.3,1.3,2.3,2.5
		c0,1.4-1.2,2.3-2.7,2.5c0.6,0.3,1.2,0.5,1.9,0.5c2.1,0,4.1-1.6,4.1-3.6c0-0.2,0-0.4-0.1-0.6l-0.8-3.7
		C21.9,34.5,21.2,34.7,20.3,34.7z M18.1,29.5c0,1,0.5,1.9,1.6,2.5c-1.8-0.3-3-1.4-3-3.1c0-2,1.7-3.7,3.8-4.1l-0.8-4
		C16,23.6,14,26.3,14,28.9c0,2.9,2.8,5.3,6,5.3c0.9,0,1.7-0.2,2.4-0.5L21,26.9C19.4,27.1,18.1,28.1,18.1,29.5z M22.1,8.1
		c-1.6,0-2.9,3.7-2.9,7c0,0.7,0,1.3,0.2,1.9c2.7-2.4,4-4.5,4-6.5c0-0.9-0.3-1.7-1-2.4C22.4,8.1,22.3,8.1,22.1,8.1z M24.9,30
		c0-1.6-1.2-3.3-2.9-3.3c-0.1,0-0.2,0-0.5,0l1.4,6.6C24.2,32.5,24.9,31.3,24.9,30z"/>
</g>
<g>
	<path d="M29.5,16.6h0.6L30,22.9c0.4-0.7,1-1,1.8-1c1.2,0,2.2,0.8,2.2,1.9c0,0.8-0.5,1.8-1.7,2.7l-2.8,2.1V16.6z M30.1,23.5
		C30,24.3,30,24.9,30,25.5c0,1,0,1.6,0.1,2c1-0.7,2.4-2.6,2.4-3.7c0-0.6-0.5-1.1-1.1-1.1C30.8,22.7,30.4,23,30.1,23.5z"/>
</g>
<g>
	<path d="M35.1,9.2h0.6l-0.1,6.2c0.4-0.7,1-1,1.8-1c1.2,0,2.2,0.8,2.2,1.9c0,0.8-0.5,1.8-1.7,2.7l-2.8,2.1V9.2z M35.7,16.1
		c-0.1,0.8-0.1,1.4-0.1,1.9c0,1,0,1.6,0.1,2c1-0.7,2.4-2.6,2.4-3.7c0-0.6-0.5-1.1-1.1-1.1C36.4,15.2,36,15.5,35.7,16.1z"/>
</g>
<g>
	<path d="M40.7,19.1h0.6l-0.1,6.2c0.4-0.7,1-1,1.8-1c1.2,0,2.2,0.8,2.2,1.9c0,0.8-0.5,1.8-1.7,2.7L40.7,31V19.1z M41.3,26
		c-0.1,0.8-0.1,1.4-0.1,1.9c0,1,0,1.6,0.1,2c1-0.7,2.4-2.6,2.4-3.7c0-0.6-0.5-1.1-1.1-1.1C42,25.2,41.6,25.4,41.3,26z"/>
</g>
<polygon fill-rule="evenodd" clip-rule="evenodd" points="60.4,21.2 91.4,16.2 91.4,13.8 60.4,18.7 "/>
<polygon fill-rule="evenodd" clip-rule="evenodd" points="60.4,17.5 91.4,12.5 91.4,10 60.4,15 "/>
<polygon fill-rule="evenodd" clip-rule="evenodd" points="111.2,36.1 142.4,31.1 142.4,28.6 111.2,33.6 "/>
<polygon fill-rule="evenodd" clip-rule="evenodd" points="111.2,39.8 142.4,34.8 142.4,32.4 111.2,37.3 "/>
<polygon fill-rule="evenodd" clip-rule="evenodd" points="154.2,26.2 186.6,31.1 186.6,28.6 154.2,23.7 "/>
<polygon fill-rule="evenodd" clip-rule="evenodd" points="154.2,29.9 186.6,34.8 186.6,32.4 154.2,27.4 "/>
<polygon fill-rule="evenodd" clip-rule="evenodd" points="217.6,16.2 248.6,21.2 248.6,18.7 217.6,13.8 "/>
<polygon fill-rule="evenodd" clip-rule="evenodd" points="217.6,12.5 248.6,17.5 248.6,15 217.6,10 "/>
<g>
	<path d="M295.1,33.5c-3.2,0-6.1-2.3-6.1-5.1c0-2.4,1.7-5,5.1-7.9c-0.2-0.9-0.3-1.8-0.3-2.7c0-2.6,0.9-5.1,2.4-6.3
		c1.4,1.9,2,3.7,2,5.3c0,2.2-1,4.2-3.2,6.1l0.7,3.1c0.4,0,0.6,0,0.6,0c2,0,3.6,1.5,3.6,3.5c0,1.4-1.1,2.8-2.7,3.6
		c0-0.1,0.6,2.8,0.6,3.3c0,1.9-1.7,3.2-3.7,3.2c-1.5,0-2.7-1-2.7-2.5c0-1.1,0.7-1.9,1.8-1.9c1,0,1.7,1,1.7,1.9c0,1-0.9,1.7-2,1.8
		c0.4,0.2,0.9,0.3,1.4,0.3c1.6,0,3.1-1.2,3.1-2.7c0-0.1,0-0.3,0-0.5l-0.6-2.8C296.3,33.4,295.8,33.5,295.1,33.5z M293.5,29.6
		c0,0.8,0.4,1.4,1.2,1.9c-1.3-0.2-2.2-1.1-2.2-2.3c0-1.5,1.3-2.8,2.9-3.1l-0.6-3c-2.8,2.1-4.3,4.1-4.3,6.1c0,2.2,2.1,4,4.5,4
		c0.7,0,1.3-0.1,1.8-0.4l-1.1-5.1C294.4,27.8,293.5,28.5,293.5,29.6z M296.5,13.6c-1.2,0-2.2,2.8-2.2,5.3c0,0.5,0,1,0.1,1.4
		c2-1.8,3-3.4,3-4.8c0-0.7-0.3-1.3-0.7-1.8C296.7,13.6,296.6,13.6,296.5,13.6z M298.6,30c0-1.2-0.9-2.4-2.2-2.4c0,0-0.2,0-0.4,0
		l1.1,5C298.1,31.8,298.6,31,298.6,30z"/>
</g>
<polygon fill-rule="evenodd" clip-rule="evenodd" points="320.5,21.2 351.5,16.2 351.5,13.8 320.5,18.7 "/>
<polygon fill-rule="evenodd" clip-rule="evenodd" points="320.5,17.5 351.5,12.5 351.5,10 320.5,15 "/>
<polygon fill-rule="evenodd" clip-rule="evenodd" points="369.5,31.1 402,26.2 402,23.7 369.5,28.6 "/>
<polygon fill-rule="evenodd" clip-rule="evenodd" points="369.5,34.8 402,29.9 402,27.4 369.5,32.4 "/>
<polygon fill-rule="evenodd" clip-rule="evenodd" points="413.8,21.2 447.6,26.2 447.6,23.7 413.8,18.7 "/>
<polygon fill-rule="evenodd" clip-rule="evenodd" points="413.8,24.9 447.6,29.9 447.6,27.4 413.8,22.4 "/>
<polygon fill-rule="evenodd" clip-rule="evenodd" points="480.5,11.3 511.6,16.2 511.6,13.8 480.5,8.8 "/>
<polygon fill-rule="evenodd" clip-rule="evenodd" points="480.5,7.6 511.6,12.5 511.6,10 480.5,5.1 "/>
<rect x="8.5" y="81.7" width="544.4" height="0.5"/>
<rect x="8.5" y="76.8" width="544.4" height="0.5"/>
<rect x="8.5" y="71.8" width="544.4" height="0.5"/>
<rect x="8.5" y="66.9" width="544.4" height="0.5"/>
<rect x="8.5" y="61.9" width="544.4" height="0.5"/>
<g>
	<path d="M15.7,76.3c2.9-2.6,4.7-6.1,4.7-9.2c0-2.5-1.4-4.4-3.7-4.4c-1.6,0-3.4,1.3-3.4,2.7c0,0.2,0,0.3,0.1,0.3
		c-0.1,0,0.6-0.6,1.4-0.6c0.9,0,1.5,0.8,1.5,1.7c0,1.2-0.9,2.2-2.1,2.2c-1.2,0-2.1-1.3-2.1-2.8c0-2.3,2.3-4.1,4.8-4.1
		c4.7,0,5.9,3.2,5.9,5.8c0,1.6-0.4,2.9-2,5.3c-1.9,3.1-6.4,5.3-8.1,5.3c-0.4,0-0.6-0.2-0.6-0.5C13.8,77.6,14.9,77,15.7,76.3z
		 M25.7,63.6c0.6,0,1,0.4,1,1s-0.4,1-1,1s-1-0.4-1-1S25.1,63.6,25.7,63.6z M25.7,68.5c0.6,0,1,0.4,1,1c0,0.6-0.4,1-1,1s-1-0.4-1-1
		C24.7,69,25.1,68.5,25.7,68.5z"/>
</g>
<g>
	<path d="M29.5,68.7h0.6L30,74.9c0.4-0.7,1-1,1.8-1c1.2,0,2.2,0.8,2.2,1.9c0,0.8-0.5,1.8-1.7,2.7l-2.8,2.1V68.7z M30.1,75.6
		C30,76.3,30,77,30,77.5c0,1,0,1.6,0.1,2c1-0.7,2.4-2.6,2.4-3.7c0-0.6-0.5-1.1-1.1-1.1C30.8,74.8,30.4,75,30.1,75.6z"/>
</g>
<g>
	<path d="M35.1,61.3h0.6l-0.1,6.2c0.4-0.7,1-1,1.8-1c1.2,0,2.2,0.8,2.2,1.9c0,0.8-0.5,1.8-1.7,2.7l-2.8,2.1V61.3z M35.7,68.2
		c-0.1,0.8-0.1,1.4-0.1,1.9c0,1,0,1.6,0.1,2c1-0.7,2.4-2.6,2.4-3.7c0-0.6-0.5-1.1-1.1-1.1C36.4,67.3,36,67.6,35.7,68.2z"/>
</g>
<g>
	<path d="M40.7,71.2h0.6l-0.1,6.2c0.4-0.7,1-1,1.8-1c1.2,0,2.2,0.8,2.2,1.9c0,0.8-0.5,1.8-1.7,2.7l-2.8,2.1V71.2z M41.3,78.1
		c-0.1,0.8-0.1,1.4-0.1,1.9c0,1,0,1.6,0.1,2c1-0.7,2.4-2.6,2.4-3.7c0-0.6-0.5-1.1-1.1-1.1C42,77.2,41.6,77.5,41.3,78.1z"/>
</g>
<g>
	<path d="M103.2,80.6c-3.2,0-6.1-2.3-6.1-5.1c0-2.4,1.7-5,5.1-7.9c-0.2-0.9-0.3-1.8-0.3-2.7c0-2.6,0.9-5.1,2.4-6.3
		c1.4,1.9,2,3.7,2,5.3c0,2.2-1,4.2-3.2,6.1l0.7,3.1c0.4,0,0.6,0,0.6,0c2,0,3.6,1.5,3.6,3.5c0,1.4-1.1,2.8-2.7,3.6
		c0-0.1,0.6,2.8,0.6,3.3c0,1.9-1.7,3.2-3.7,3.2c-1.5,0-2.7-1-2.7-2.5c0-1.1,0.7-1.9,1.8-1.9c1,0,1.7,1,1.7,1.9c0,1-0.9,1.7-2,1.8
		c0.4,0.2,0.9,0.3,1.4,0.3c1.6,0,3.1-1.2,3.1-2.7c0-0.1,0-0.3,0-0.5l-0.6-2.8C104.4,80.5,103.9,80.6,103.2,80.6z M101.6,76.7
		c0,0.8,0.4,1.4,1.2,1.9c-1.3-0.2-2.2-1.1-2.2-2.3c0-1.5,1.3-2.8,2.9-3.1l-0.6-3c-2.8,2.1-4.3,4.1-4.3,6.1c0,2.2,2.1,4,4.5,4
		c0.7,0,1.3-0.1,1.8-0.4l-1.1-5.1C102.5,74.9,101.6,75.7,101.6,76.7z M104.6,60.7c-1.2,0-2.2,2.8-2.2,5.3c0,0.5,0,1,0.1,1.4
		c2-1.8,3-3.4,3-4.8c0-0.7-0.3-1.3-0.7-1.8C104.8,60.7,104.7,60.7,104.6,60.7z M106.7,77.1c0-1.2-0.9-2.4-2.2-2.4c0,0-0.2,0-0.4,0
		l1.1,5C106.1,78.9,106.7,78.1,106.7,77.1z"/>
</g>
<polygon fill-rule="evenodd" clip-rule="evenodd" points="53.9,88.2 84.9,83.2 84.9,80.7 53.9,85.7 "/>
<polygon fill-rule="evenodd" clip-rule="evenodd" points="53.9,91.9 84.9,86.9 84.9,84.4 53.9,89.4 "/>
<polygon fill-rule="evenodd" clip-rule="evenodd" points="117.7,68.3 148.9,63.4 148.9,60.9 117.7,65.8 "/>
<polygon fill-rule="evenodd" clip-rule="evenodd" points="117.7,64.6 148.9,59.6 148.9,57.2 117.7,62.1 "/>
<g>
	<path d="M201.5,74c2.2-2,3.6-4.6,3.6-6.9c0-1.9-1.1-3.3-2.8-3.3c-1.2,0-2.5,1-2.5,2.1c0,0.2,0,0.2,0.1,0.2c0,0,0.4-0.5,1-0.5
		c0.7,0,1.2,0.6,1.2,1.3c0,0.9-0.6,1.7-1.6,1.7c-0.9,0-1.5-1-1.5-2.1c0-1.8,1.7-3.1,3.6-3.1c3.5,0,4.4,2.4,4.4,4.4
		c0,1.2-0.3,2.2-1.5,4c-1.4,2.3-4.8,4-6,4c-0.3,0-0.5-0.1-0.5-0.3C200,75,200.9,74.5,201.5,74z M208.9,64.5c0.4,0,0.7,0.3,0.7,0.7
		c0,0.4-0.3,0.7-0.7,0.7s-0.7-0.3-0.7-0.7C208.2,64.8,208.5,64.5,208.9,64.5z M208.9,68.2c0.4,0,0.7,0.3,0.7,0.7
		c0,0.4-0.3,0.7-0.7,0.7s-0.7-0.3-0.7-0.7C208.2,68.5,208.5,68.2,208.9,68.2z"/>
</g>
<polygon fill-rule="evenodd" clip-rule="evenodd" points="160.7,63.4 193.1,68.3 193.1,65.8 160.7,60.9 "/>
<polygon fill-rule="evenodd" clip-rule="evenodd" points="160.7,59.6 193.1,64.6 193.1,62.1 160.7,57.2 "/>
<polygon fill-rule="evenodd" clip-rule="evenodd" points="211.1,78.2 242.1,83.2 242.1,80.7 211.1,75.8 "/>
<polygon fill-rule="evenodd" clip-rule="evenodd" points="211.1,82 242.1,86.9 242.1,84.4 211.1,79.5 "/>
<g>
	<path d="M363.3,80.6c-3.2,0-6.1-2.3-6.1-5.1c0-2.4,1.7-5,5.1-7.9c-0.2-0.9-0.3-1.8-0.3-2.7c0-2.6,0.9-5.1,2.4-6.3
		c1.4,1.9,2,3.7,2,5.3c0,2.2-1,4.2-3.2,6.1l0.7,3.1c0.4,0,0.6,0,0.6,0c2,0,3.6,1.5,3.6,3.5c0,1.4-1.1,2.8-2.7,3.6
		c0-0.1,0.6,2.8,0.6,3.3c0,1.9-1.7,3.2-3.7,3.2c-1.5,0-2.7-1-2.7-2.5c0-1.1,0.7-1.9,1.8-1.9c1,0,1.7,1,1.7,1.9c0,1-0.9,1.7-2,1.8
		c0.4,0.2,0.9,0.3,1.4,0.3c1.6,0,3.1-1.2,3.1-2.7c0-0.1,0-0.3,0-0.5l-0.6-2.8C364.5,80.5,364,80.6,363.3,80.6z M361.7,76.7
		c0,0.8,0.4,1.4,1.2,1.9c-1.3-0.2-2.2-1.1-2.2-2.3c0-1.5,1.3-2.8,2.9-3.1l-0.6-3c-2.8,2.1-4.3,4.1-4.3,6.1c0,2.2,2.1,4,4.5,4
		c0.7,0,1.3-0.1,1.8-0.4l-1.1-5.1C362.6,74.9,361.7,75.7,361.7,76.7z M364.7,60.7c-1.2,0-2.2,2.8-2.2,5.3c0,0.5,0,1,0.1,1.4
		c2-1.8,3-3.4,3-4.8c0-0.7-0.3-1.3-0.7-1.8C364.9,60.7,364.8,60.7,364.7,60.7z M366.8,77.1c0-1.2-0.9-2.4-2.2-2.4c0,0-0.2,0-0.4,0
		l1.1,5C366.3,78.9,366.8,78.1,366.8,77.1z"/>
</g>
<polygon fill-rule="evenodd" clip-rule="evenodd" points="314,83.2 345,78.2 345,75.8 314,80.7 "/>
<polygon fill-rule="evenodd" clip-rule="evenodd" points="314,86.9 345,82 345,79.5 314,84.4 "/>
<polygon fill-rule="evenodd" clip-rule="evenodd" points="376,67.1 408.6,62.1 408.6,59.6 376,64.6 "/>
<polygon fill-rule="evenodd" clip-rule="evenodd" points="376,63.4 408.6,58.4 408.6,55.9 376,60.9 "/>
<g>
	<path d="M462.5,74c2.2-2,3.6-4.6,3.6-6.9c0-1.9-1.1-3.3-2.8-3.3c-1.2,0-2.5,1-2.5,2.1c0,0.2,0,0.2,0.1,0.2c0,0,0.4-0.5,1-0.5
		c0.7,0,1.2,0.6,1.2,1.3c0,0.9-0.6,1.7-1.6,1.7s-1.5-1-1.5-2.1c0-1.8,1.7-3.1,3.6-3.1c3.5,0,4.4,2.4,4.4,4.4c0,1.2-0.3,2.2-1.5,4
		c-1.4,2.3-4.8,4-6,4c-0.3,0-0.5-0.1-0.5-0.3C461.1,75,461.9,74.5,462.5,74z M470,64.5c0.4,0,0.7,0.3,0.7,0.7c0,0.4-0.3,0.7-0.7,0.7
		c-0.4,0-0.7-0.3-0.7-0.7C469.2,64.8,469.6,64.5,470,64.5z M470,68.2c0.4,0,0.7,0.3,0.7,0.7c0,0.4-0.3,0.7-0.7,0.7
		c-0.4,0-0.7-0.3-0.7-0.7C469.2,68.5,469.6,68.2,470,68.2z"/>
</g>
<polygon fill-rule="evenodd" clip-rule="evenodd" points="420.3,58.4 454.1,63.4 454.1,60.9 420.3,55.9 "/>
<polygon fill-rule="evenodd" clip-rule="evenodd" points="420.3,54.7 454.1,59.6 454.1,57.2 420.3,52.2 "/>
<polygon fill-rule="evenodd" clip-rule="evenodd" points="474,73.3 505.1,78.2 505.1,75.8 474,70.8 "/>
<polygon fill-rule="evenodd" clip-rule="evenodd" points="474,77 505.1,82 505.1,79.5 474,74.5 "/>
<rect x="8.5" y="156.4" width="544.4" height="0.5"/>
<rect x="8.5" y="151.5" width="544.4" height="0.5"/>
<rect x="8.5" y="146.5" width="544.4" height="0.5"/>
<rect x="8.5" y="141.6" width="544.4" height="0.5"/>
<rect x="8.5" y="136.6" width="544.4" height="0.5"/>
<g>
	<path d="M20.3,156.5c-4.2,0-8.1-3.1-8.1-6.9c0-3.2,2.3-6.7,6.8-10.5c-0.3-1.2-0.4-2.4-0.4-3.6c0-3.5,1.2-6.8,3.2-8.5
		c1.8,2.5,2.7,4.9,2.7,7.1c0,2.9-1.3,5.6-4.3,8.1l0.9,4.2c0.5,0,0.8-0.1,0.8-0.1c2.6,0,4.8,2,4.8,4.7c0,1.9-1.4,3.7-3.6,4.8
		c0-0.1,0.9,3.8,0.9,4.3c0,2.5-2.3,4.2-4.9,4.2c-2,0-3.6-1.3-3.6-3.4c0-1.4,1-2.6,2.4-2.6c1.3,0,2.3,1.3,2.3,2.5
		c0,1.4-1.2,2.3-2.7,2.5c0.6,0.3,1.2,0.5,1.9,0.5c2.1,0,4.1-1.6,4.1-3.6c0-0.2,0-0.4-0.1-0.6l-0.8-3.7
		C21.9,156.4,21.2,156.5,20.3,156.5z M18.1,151.3c0,1,0.5,1.9,1.6,2.5c-1.8-0.3-3-1.4-3-3.1c0-2,1.7-3.7,3.8-4.1l-0.8-4
		c-3.7,2.8-5.7,5.5-5.7,8.1c0,2.9,2.8,5.3,6,5.3c0.9,0,1.7-0.2,2.4-0.5l-1.4-6.8C19.4,148.9,18.1,149.9,18.1,151.3z M22.1,130
		c-1.6,0-2.9,3.7-2.9,7c0,0.7,0,1.3,0.2,1.9c2.7-2.4,4-4.5,4-6.5c0-0.9-0.3-1.7-1-2.4C22.4,130,22.3,130,22.1,130z M24.9,151.8
		c0-1.6-1.2-3.3-2.9-3.3c-0.1,0-0.2,0-0.5,0l1.4,6.6C24.2,154.3,24.9,153.1,24.9,151.8z"/>
</g>
<g>
	<path d="M29.5,138.4h0.6l-0.1,6.2c0.4-0.7,1-1,1.8-1c1.2,0,2.2,0.8,2.2,1.9c0,0.8-0.5,1.8-1.7,2.7l-2.8,2.1V138.4z M30.1,145.3
		c-0.1,0.8-0.1,1.4-0.1,1.9c0,1,0,1.6,0.1,2c1-0.7,2.4-2.6,2.4-3.7c0-0.6-0.5-1.1-1.1-1.1C30.8,144.5,30.4,144.8,30.1,145.3z"/>
</g>
<g>
	<path d="M35.1,131h0.6l-0.1,6.2c0.4-0.7,1-1,1.8-1c1.2,0,2.2,0.8,2.2,1.9c0,0.8-0.5,1.8-1.7,2.7l-2.8,2.1V131z M35.7,137.9
		c-0.1,0.8-0.1,1.4-0.1,1.9c0,1,0,1.6,0.1,2c1-0.7,2.4-2.6,2.4-3.7c0-0.6-0.5-1.1-1.1-1.1C36.4,137.1,36,137.4,35.7,137.9z"/>
</g>
<g>
	<path d="M40.7,140.9h0.6l-0.1,6.2c0.4-0.7,1-1,1.8-1c1.2,0,2.2,0.8,2.2,1.9c0,0.8-0.5,1.8-1.7,2.7l-2.8,2.1V140.9z M41.3,147.8
		c-0.1,0.8-0.1,1.4-0.1,1.9c0,1,0,1.6,0.1,2c1-0.7,2.4-2.6,2.4-3.7c0-0.6-0.5-1.1-1.1-1.1C42,147,41.6,147.3,41.3,147.8z"/>
</g>
<polygon fill-rule="evenodd" clip-rule="evenodd" points="60.4,138.1 94.2,133.1 94.2,130.6 60.4,135.6 "/>
<polygon fill-rule="evenodd" clip-rule="evenodd" points="60.4,134.4 94.2,129.4 94.2,126.9 60.4,131.9 "/>
<polygon fill-rule="evenodd" clip-rule="evenodd" points="120.5,138.1 154.5,133.1 154.5,130.6 120.5,135.6 "/>
<polygon fill-rule="evenodd" clip-rule="evenodd" points="120.5,134.4 154.5,129.4 154.5,126.9 120.5,131.9 "/>
<g>
	<path d="M117.8,119.7c0-0.2,0.6-1.9,0.6-2.4c0-0.1,0-0.2-0.1-0.2c-0.1,0-0.3,0.2-0.6,0.4l-0.2-0.2c0.6-0.4,0.9-0.7,1.1-0.7
		c0.3,0,0.4,0.2,0.4,0.5c0,0.5-0.7,2.1-0.7,2.6c0,0.1,0.1,0.2,0.2,0.2c0.7,0,1.7-1.6,1.7-2.2v-0.2c-0.1-0.1-0.4-0.3-0.4-0.6
		c0-0.2,0.1-0.3,0.4-0.3c0.3,0,0.5,0.3,0.5,0.8c0,1-1.2,2.8-2.1,2.8C118,120.3,117.8,120.1,117.8,119.7z M122.7,120
		c0,0,0.1-0.3,0.2-0.8c-0.6,0.7-1,1-1.4,1c-0.5,0-0.8-0.3-0.8-0.9c0-1.2,1-2.6,2.1-2.6c0.2,0,0.4,0.1,0.7,0.2l0.1-0.2l0.4,0
		c-0.5,2-0.7,3-0.7,3.1v0v0c0,0,0.3-0.2,0.7-0.5l0.1,0.2c-0.5,0.5-0.8,0.7-1,0.7C122.7,120.2,122.7,120.1,122.7,120z M121.2,119.3
		c0,0.3,0.1,0.4,0.2,0.4c0.5,0,1.5-0.9,1.6-1.3l0.3-1.1c-0.2-0.2-0.4-0.3-0.6-0.3C122,117,121.2,118.5,121.2,119.3z"/>
</g>
<g>
	<path d="M117.3,117.9c0,0.8-0.5,1.4-1.6,1.9c0.5,0.7,0.8,1.3,0.8,1.8c0,1.3-1,1.9-2.9,1.9c-1.4,0-2.6-0.8-2.6-2c0-0.9,0.7-1.5,2-2
		c-0.4-0.6-0.7-1.1-0.7-1.6c0-1.1,1.1-1.9,2.5-1.9C116,116,117.3,116.9,117.3,117.9z M111.9,121.7c0,0.8,0.9,1.4,1.7,1.4
		c0.8,0,1.4-0.3,1.4-0.9c0-0.7-0.2-0.9-1.7-2.4C112.4,120.4,111.9,121,111.9,121.7z M113.8,117.3c0,0.7,0.2,0.9,1.5,2.2
		c0.7-0.4,1-1,1-1.7c0-0.7-0.7-1.4-1.4-1.4C114.4,116.5,113.8,116.8,113.8,117.3z"/>
</g>
<rect x="204.6" y="116.7" width="0.8" height="7.8"/>
<path d="M203.8,117.4h-2.9v-0.8h2.9V117.4z M198.4,117.4h-2.9v-0.8h2.9V117.4z M192.9,117.4H190v-0.8h2.9V117.4z M187.5,117.4h-2.9
	v-0.8h2.9V117.4z M182.1,117.4h-2.9v-0.8h2.9V117.4z M176.6,117.4h-2.9v-0.8h2.9V117.4z M171.2,117.4h-2.9v-0.8h2.9V117.4z
	 M165.8,117.4h-2.9v-0.8h2.9V117.4z M160.4,117.4h-2.9v-0.8h2.9V117.4z M154.9,117.4H152v-0.8h2.9V117.4z M149.5,117.4h-2.9v-0.8
	h2.9V117.4z M144.1,117.4h-2.9v-0.8h2.9V117.4z M138.7,117.4h-2.9v-0.8h2.9V117.4z M133.2,117.4h-2.9v-0.8h2.9V117.4z M127.8,117.4
	h-2.9v-0.8h2.9V117.4z"/>
<polygon fill-rule="evenodd" clip-rule="evenodd" points="159.1,157.9 193.1,162.9 193.1,160.4 159.1,155.4 "/>
<polygon fill-rule="evenodd" clip-rule="evenodd" points="159.1,161.6 193.1,166.6 193.1,164.1 159.1,159.2 "/>
<polygon fill-rule="evenodd" clip-rule="evenodd" points="219.4,157.9 253.7,162.9 253.7,160.4 219.4,155.4 "/>
<polygon fill-rule="evenodd" clip-rule="evenodd" points="219.4,161.6 253.7,166.6 253.7,164.1 219.4,159.2 "/>
<polygon fill-rule="evenodd" clip-rule="evenodd" points="329.3,162.9 363.8,157.9 363.8,155.4 329.3,160.4 "/>
<polygon fill-rule="evenodd" clip-rule="evenodd" points="329.3,166.6 363.8,161.6 363.8,159.2 329.3,164.1 "/>
<polygon fill-rule="evenodd" clip-rule="evenodd" points="374.9,162.9 408.9,157.9 408.9,155.4 374.9,160.4 "/>
<polygon fill-rule="evenodd" clip-rule="evenodd" points="374.9,166.6 408.9,161.6 408.9,159.2 374.9,164.1 "/>
<polygon fill-rule="evenodd" clip-rule="evenodd" points="420.2,153 454,157.9 454,155.4 420.2,150.5 "/>
<polygon fill-rule="evenodd" clip-rule="evenodd" points="420.2,156.7 454,161.6 454,159.2 420.2,154.2 "/>
<g>
	<path d="M378.7,119.7c0-0.2,0.6-1.9,0.6-2.4c0-0.1,0-0.2-0.1-0.2c-0.1,0-0.3,0.2-0.6,0.4l-0.2-0.2c0.6-0.4,0.9-0.7,1.1-0.7
		c0.3,0,0.4,0.2,0.4,0.5c0,0.5-0.7,2.1-0.7,2.6c0,0.1,0.1,0.2,0.2,0.2c0.7,0,1.7-1.6,1.7-2.2v-0.2c-0.1-0.1-0.4-0.3-0.4-0.6
		c0-0.2,0.1-0.3,0.4-0.3c0.3,0,0.5,0.3,0.5,0.8c0,1-1.2,2.8-2.1,2.8C378.9,120.3,378.7,120.1,378.7,119.7z M383.6,120
		c0,0,0.1-0.3,0.2-0.8c-0.6,0.7-1,1-1.4,1c-0.5,0-0.8-0.3-0.8-0.9c0-1.2,1-2.6,2.1-2.6c0.2,0,0.4,0.1,0.7,0.2l0.1-0.2l0.4,0
		c-0.5,2-0.7,3-0.7,3.1v0v0c0,0,0.3-0.2,0.7-0.5l0.1,0.2c-0.5,0.5-0.8,0.7-1,0.7C383.6,120.2,383.6,120.1,383.6,120z M382.1,119.3
		c0,0.3,0.1,0.4,0.2,0.4c0.5,0,1.5-0.9,1.6-1.3l0.3-1.1c-0.2-0.2-0.4-0.3-0.6-0.3C382.9,117,382.1,118.5,382.1,119.3z"/>
</g>
<g>
	<path d="M378.1,117.9c0,0.8-0.5,1.4-1.6,1.9c0.5,0.7,0.8,1.3,0.8,1.8c0,1.3-1,1.9-2.9,1.9c-1.4,0-2.6-0.8-2.6-2c0-0.9,0.7-1.5,2-2
		c-0.4-0.6-0.7-1.1-0.7-1.6c0-1.1,1.1-1.9,2.5-1.9C376.9,116,378.1,116.9,378.1,117.9z M372.8,121.7c0,0.8,0.9,1.4,1.7,1.4
		c0.8,0,1.4-0.3,1.4-0.9c0-0.7-0.2-0.9-1.7-2.4C373.2,120.4,372.8,121,372.8,121.7z M374.7,117.3c0,0.7,0.2,0.9,1.5,2.2
		c0.7-0.4,1-1,1-1.7c0-0.7-0.7-1.4-1.4-1.4C375.3,116.5,374.7,116.8,374.7,117.3z"/>
</g>
<rect x="460.1" y="116.7" width="0.8" height="7.8"/>
<path d="M459.2,117.4h-2.9v-0.8h2.9V117.4z M453.8,117.4h-2.9v-0.8h2.9V117.4z M448.4,117.4h-2.9v-0.8h2.9V117.4z M443,117.4H440
	v-0.8h2.9V117.4z M437.5,117.4h-2.9v-0.8h2.9V117.4z M432.1,117.4h-2.9v-0.8h2.9V117.4z M426.7,117.4h-2.9v-0.8h2.9V117.4z
	 M421.3,117.4h-2.9v-0.8h2.9V117.4z M415.8,117.4h-2.9v-0.8h2.9V117.4z M410.4,117.4h-2.9v-0.8h2.9V117.4z M405,117.4H402v-0.8h2.9
	V117.4z M399.6,117.4h-2.9v-0.8h2.9V117.4z M394.1,117.4h-2.9v-0.8h2.9V117.4z M388.7,117.4h-2.9v-0.8h2.9V117.4z"/>
<polygon fill-rule="evenodd" clip-rule="evenodd" points="465.3,153 499.1,157.9 499.1,155.4 465.3,150.5 "/>
<polygon fill-rule="evenodd" clip-rule="evenodd" points="465.3,156.7 499.1,161.6 499.1,159.2 465.3,154.2 "/>
<rect x="8.5" y="203.6" width="544.4" height="0.5"/>
<rect x="8.5" y="198.6" width="544.4" height="0.5"/>
<rect x="8.5" y="193.6" width="544.4" height="0.5"/>
<rect x="8.5" y="188.7" width="544.4" height="0.5"/>
<rect x="8.5" y="183.7" width="544.4" height="0.5"/>
<g>
	<path d="M15.7,198.1c2.9-2.6,4.7-6.1,4.7-9.2c0-2.5-1.4-4.4-3.7-4.4c-1.6,0-3.4,1.3-3.4,2.7c0,0.2,0,0.3,0.1,0.3
		c-0.1,0,0.6-0.6,1.4-0.6c0.9,0,1.5,0.8,1.5,1.7c0,1.2-0.9,2.2-2.1,2.2c-1.2,0-2.1-1.3-2.1-2.8c0-2.3,2.3-4.1,4.8-4.1
		c4.7,0,5.9,3.2,5.9,5.8c0,1.6-0.4,2.9-2,5.3c-1.9,3.1-6.4,5.3-8.1,5.3c-0.4,0-0.6-0.2-0.6-0.5C13.8,199.4,14.9,198.8,15.7,198.1z
		 M25.7,185.4c0.6,0,1,0.4,1,1s-0.4,1-1,1s-1-0.4-1-1S25.1,185.4,25.7,185.4z M25.7,190.4c0.6,0,1,0.4,1,1s-0.4,1-1,1s-1-0.4-1-1
		S25.1,190.4,25.7,190.4z"/>
</g>
<g>
	<path d="M29.5,190.5h0.6l-0.1,6.2c0.4-0.7,1-1,1.8-1c1.2,0,2.2,0.8,2.2,1.9c0,0.8-0.5,1.8-1.7,2.7l-2.8,2.1V190.5z M30.1,197.4
		c-0.1,0.8-0.1,1.4-0.1,1.9c0,1,0,1.6,0.1,2c1-0.7,2.4-2.6,2.4-3.7c0-0.6-0.5-1.1-1.1-1.1C30.8,196.6,30.4,196.9,30.1,197.4z"/>
</g>
<g>
	<path d="M35.1,183.1h0.6l-0.1,6.2c0.4-0.7,1-1,1.8-1c1.2,0,2.2,0.8,2.2,1.9c0,0.8-0.5,1.8-1.7,2.7l-2.8,2.1V183.1z M35.7,190
		c-0.1,0.8-0.1,1.4-0.1,1.9c0,1,0,1.6,0.1,2c1-0.7,2.4-2.6,2.4-3.7c0-0.6-0.5-1.1-1.1-1.1C36.4,189.2,36,189.4,35.7,190z"/>
</g>
<g>
	<path d="M40.7,193h0.6l-0.1,6.2c0.4-0.7,1-1,1.8-1c1.2,0,2.2,0.8,2.2,1.9c0,0.8-0.5,1.8-1.7,2.7l-2.8,2.1V193z M41.3,199.9
		c-0.1,0.8-0.1,1.4-0.1,1.9c0,1,0,1.6,0.1,2c1-0.7,2.4-2.6,2.4-3.7c0-0.6-0.5-1.1-1.1-1.1C42,199.1,41.6,199.4,41.3,199.9z"/>
</g>
<g>
	<path d="M107.9,202.4c-3.2,0-6.1-2.3-6.1-5.1c0-2.4,1.7-5,5.1-7.9c-0.2-0.9-0.3-1.8-0.3-2.7c0-2.6,0.9-5.1,2.4-6.3
		c1.4,1.9,2,3.7,2,5.3c0,2.2-1,4.2-3.2,6.1l0.7,3.1c0.4,0,0.6,0,0.6,0c2,0,3.6,1.5,3.6,3.5c0,1.4-1.1,2.8-2.7,3.6
		c0-0.1,0.6,2.8,0.6,3.3c0,1.9-1.7,3.2-3.7,3.2c-1.5,0-2.7-1-2.7-2.5c0-1.1,0.7-1.9,1.8-1.9c1,0,1.7,1,1.7,1.9c0,1-0.9,1.7-2,1.8
		c0.4,0.2,0.9,0.3,1.4,0.3c1.6,0,3.1-1.2,3.1-2.7c0-0.1,0-0.3,0-0.5l-0.6-2.8C109.1,202.3,108.6,202.4,107.9,202.4z M106.2,198.5
		c0,0.8,0.4,1.4,1.2,1.9c-1.3-0.2-2.2-1.1-2.2-2.3c0-1.5,1.3-2.8,2.9-3.1l-0.6-3c-2.8,2.1-4.3,4.1-4.3,6.1c0,2.2,2.1,4,4.5,4
		c0.7,0,1.3-0.1,1.8-0.4l-1.1-5.1C107.2,196.7,106.2,197.5,106.2,198.5z M109.2,182.5c-1.2,0-2.2,2.8-2.2,5.3c0,0.5,0,1,0.1,1.4
		c2-1.8,3-3.4,3-4.8c0-0.7-0.3-1.3-0.7-1.8C109.4,182.5,109.4,182.5,109.2,182.5z M111.3,198.9c0-1.2-0.9-2.4-2.2-2.4
		c0,0-0.2,0-0.4,0l1.1,5C110.8,200.8,111.3,199.9,111.3,198.9z"/>
</g>
<polygon fill-rule="evenodd" clip-rule="evenodd" points="53.9,200.1 87.7,195.1 87.7,192.6 53.9,197.6 "/>
<polygon fill-rule="evenodd" clip-rule="evenodd" points="53.9,203.8 87.7,198.8 87.7,196.4 53.9,201.3 "/>
<polygon fill-rule="evenodd" clip-rule="evenodd" points="120.5,185.2 154.5,180.2 154.5,177.8 120.5,182.7 "/>
<polygon fill-rule="evenodd" clip-rule="evenodd" points="120.5,181.5 154.5,176.5 154.5,174 120.5,179 "/>
<g>
	<path d="M208,195.8c2.2-2,3.6-4.6,3.6-6.9c0-1.9-1.1-3.3-2.8-3.3c-1.2,0-2.5,1-2.5,2.1c0,0.2,0,0.2,0.1,0.2c0,0,0.4-0.5,1-0.5
		c0.7,0,1.2,0.6,1.2,1.3c0,0.9-0.6,1.7-1.6,1.7c-0.9,0-1.5-1-1.5-2.1c0-1.8,1.7-3.1,3.6-3.1c3.5,0,4.4,2.4,4.4,4.4
		c0,1.2-0.3,2.2-1.5,4c-1.4,2.3-4.8,4-6,4c-0.3,0-0.5-0.1-0.5-0.3C206.5,196.8,207.4,196.4,208,195.8z M215.4,186.3
		c0.4,0,0.7,0.3,0.7,0.7c0,0.4-0.3,0.7-0.7,0.7s-0.7-0.3-0.7-0.7C214.7,186.6,215,186.3,215.4,186.3z M215.4,190
		c0.4,0,0.7,0.3,0.7,0.7s-0.3,0.7-0.7,0.7s-0.7-0.3-0.7-0.7S215,190,215.4,190z"/>
</g>
<polygon fill-rule="evenodd" clip-rule="evenodd" points="159.1,205 193.1,210 193.1,207.5 159.1,202.6 "/>
<polygon fill-rule="evenodd" clip-rule="evenodd" points="159.1,208.8 193.1,213.7 193.1,211.2 159.1,206.3 "/>
<polygon fill-rule="evenodd" clip-rule="evenodd" points="219.4,190.2 253.7,195.1 253.7,192.6 219.4,187.7 "/>
<polygon fill-rule="evenodd" clip-rule="evenodd" points="219.4,193.9 253.7,198.8 253.7,196.4 219.4,191.4 "/>
<g>
	<path d="M310.5,202.4c-3.2,0-6.1-2.3-6.1-5.1c0-2.4,1.7-5,5.1-7.9c-0.2-0.9-0.3-1.8-0.3-2.7c0-2.6,0.9-5.1,2.4-6.3
		c1.4,1.9,2,3.7,2,5.3c0,2.2-1,4.2-3.2,6.1l0.7,3.1c0.4,0,0.6,0,0.6,0c2,0,3.6,1.5,3.6,3.5c0,1.4-1.1,2.8-2.7,3.6
		c0-0.1,0.6,2.8,0.6,3.3c0,1.9-1.7,3.2-3.7,3.2c-1.5,0-2.7-1-2.7-2.5c0-1.1,0.7-1.9,1.8-1.9c1,0,1.7,1,1.7,1.9c0,1-0.9,1.7-2,1.8
		c0.4,0.2,0.9,0.3,1.4,0.3c1.6,0,3.1-1.2,3.1-2.7c0-0.1,0-0.3,0-0.5l-0.6-2.8C311.7,202.3,311.2,202.4,310.5,202.4z M308.8,198.5
		c0,0.8,0.4,1.4,1.2,1.9c-1.3-0.2-2.2-1.1-2.2-2.3c0-1.5,1.3-2.8,2.9-3.1l-0.6-3c-2.8,2.1-4.3,4.1-4.3,6.1c0,2.2,2.1,4,4.5,4
		c0.7,0,1.3-0.1,1.8-0.4l-1.1-5.1C309.8,196.7,308.8,197.5,308.8,198.5z M311.9,182.5c-1.2,0-2.2,2.8-2.2,5.3c0,0.5,0,1,0.1,1.4
		c2-1.8,3-3.4,3-4.8c0-0.7-0.3-1.3-0.7-1.8C312,182.5,312,182.5,311.9,182.5z M313.9,198.9c0-1.2-0.9-2.4-2.2-2.4c0,0-0.2,0-0.4,0
		l1.1,5C313.4,200.8,313.9,199.9,313.9,198.9z"/>
</g>
<polygon fill-rule="evenodd" clip-rule="evenodd" points="335.9,195.1 370.3,190.2 370.3,187.7 335.9,192.6 "/>
<polygon fill-rule="evenodd" clip-rule="evenodd" points="335.9,191.4 370.3,186.4 370.3,184 335.9,188.9 "/>
<polygon fill-rule="evenodd" clip-rule="evenodd" points="374.9,210 408.9,205 408.9,202.6 374.9,207.5 "/>
<polygon fill-rule="evenodd" clip-rule="evenodd" points="374.9,213.7 408.9,208.8 408.9,206.3 374.9,211.2 "/>
<polygon fill-rule="evenodd" clip-rule="evenodd" points="420.2,200.1 454,205 454,202.6 420.2,197.6 "/>
<polygon fill-rule="evenodd" clip-rule="evenodd" points="420.2,203.8 454,208.8 454,206.3 420.2,201.3 "/>
<polygon fill-rule="evenodd" clip-rule="evenodd" points="471.8,185.2 505.6,190.2 505.6,187.7 471.8,182.7 "/>
<polygon fill-rule="evenodd" clip-rule="evenodd" points="471.8,181.5 505.6,186.4 505.6,184 471.8,179 "/>
<rect x="51.9" y="39.4" width="10.5" height="0.8"/>
<rect x="60.2" y="15.2" width="0.5" height="26.4"/>
<g>
	<path d="M53.7,43.1c0-1.8,2.5-3.5,4.5-3.5c1.3,0,2.3,0.7,2.3,1.7c0,1.7-2.5,3.5-4.6,3.5C54.7,44.9,53.7,44.2,53.7,43.1z"/>
</g>
<rect x="70.5" y="13.6" width="0.5" height="22.9"/>
<g>
	<path d="M64.1,38.2c0-1.8,2.5-3.5,4.5-3.5c1.3,0,2.3,0.7,2.3,1.7c0,1.7-2.5,3.5-4.6,3.5C65.1,39.9,64.1,39.3,64.1,38.2z"/>
</g>
<rect x="80.9" y="11.9" width="0.5" height="19.7"/>
<g>
	<path d="M74.5,33.2c0-1.8,2.5-3.5,4.5-3.5c1.3,0,2.3,0.7,2.3,1.7c0,1.7-2.5,3.5-4.6,3.5C75.5,34.9,74.5,34.3,74.5,33.2z"/>
</g>
<rect x="91.2" y="10.2" width="0.5" height="16.4"/>
<g>
	<path d="M84.7,28.3c0-1.8,2.5-3.5,4.5-3.5c1.3,0,2.3,0.7,2.3,1.7c0,1.7-2.5,3.5-4.6,3.5C85.7,30,84.7,29.3,84.7,28.3z"/>
</g>
<rect x="111" y="25.7" width="0.5" height="14"/>
<g>
	<path d="M111.1,25.8c0-1.8,2.5-3.5,4.5-3.5c1.3,0,2.3,0.7,2.3,1.7c0,1.7-2.5,3.5-4.6,3.5C112.1,27.5,111.1,26.9,111.1,25.8z"/>
</g>
<rect x="121.4" y="20.7" width="0.5" height="17.4"/>
<g>
	<path d="M121.5,20.8c0-1.8,2.5-3.5,4.5-3.5c1.3,0,2.3,0.7,2.3,1.7c0,1.7-2.5,3.5-4.6,3.5C122.4,22.5,121.5,21.9,121.5,20.8z"/>
</g>
<rect x="131.8" y="15.8" width="0.5" height="20.6"/>
<g>
	<path d="M131.9,15.9c0-1.8,2.5-3.5,4.5-3.5c1.3,0,2.3,0.7,2.3,1.7c0,1.7-2.5,3.5-4.6,3.5C132.8,17.6,131.9,16.9,131.9,15.9z"/>
</g>
<rect x="140.4" y="9.7" width="10.5" height="0.8"/>
<rect x="142.2" y="10.8" width="0.5" height="23.9"/>
<g>
	<path d="M142.2,10.9c0-1.8,2.5-3.5,4.5-3.5c1.3,0,2.3,0.7,2.3,1.7c0,1.7-2.5,3.5-4.6,3.5C143.2,12.6,142.2,12,142.2,10.9z"/>
</g>
<rect x="152.2" y="9.7" width="10.5" height="0.8"/>
<rect x="153.9" y="8.3" width="0.5" height="21.4"/>
<g>
	<path d="M154,8.4c0-1.8,2.5-3.5,4.5-3.5c1.3,0,2.3,0.7,2.3,1.7c0,1.7-2.5,3.5-4.6,3.5C155,10.1,154,9.5,154,8.4z"/>
</g>
<rect x="163.9" y="9.7" width="10.5" height="0.8"/>
<rect x="165.7" y="10.8" width="0.5" height="20.6"/>
<g>
	<path d="M165.8,10.9c0-1.8,2.5-3.5,4.5-3.5c1.3,0,2.3,0.7,2.3,1.7c0,1.7-2.5,3.5-4.6,3.5C166.8,12.6,165.8,12,165.8,10.9z"/>
</g>
<rect x="176" y="15.8" width="0.5" height="17.2"/>
<g>
	<path d="M176,15.9c0-1.8,2.5-3.5,4.5-3.5c1.3,0,2.3,0.7,2.3,1.7c0,1.7-2.5,3.5-4.6,3.5C177,17.6,176,16.9,176,15.9z"/>
</g>
<rect x="186.3" y="20.7" width="0.5" height="14"/>
<g>
	<path d="M186.4,20.8c0-1.8,2.5-3.5,4.5-3.5c1.3,0,2.3,0.7,2.3,1.7c0,1.7-2.5,3.5-4.6,3.5C187.4,22.5,186.4,21.9,186.4,20.8z"/>
</g>
<rect x="217.3" y="10.2" width="0.5" height="14"/>
<g>
	<path d="M210.9,25.8c0-1.8,2.5-3.5,4.5-3.5c1.3,0,2.3,0.7,2.3,1.7c0,1.7-2.5,3.5-4.6,3.5C211.9,27.5,210.9,26.9,210.9,25.8z"/>
</g>
<rect x="227.7" y="11.7" width="0.5" height="14.9"/>
<g>
	<path d="M221.3,28.3c0-1.8,2.5-3.5,4.5-3.5c1.3,0,2.3,0.7,2.3,1.7c0,1.7-2.5,3.5-4.6,3.5C222.3,30,221.3,29.3,221.3,28.3z"/>
</g>
<rect x="238.1" y="13.5" width="0.5" height="18.1"/>
<g>
	<path d="M231.7,33.2c0-1.8,2.5-3.5,4.5-3.5c1.3,0,2.3,0.7,2.3,1.7c0,1.7-2.5,3.5-4.6,3.5C232.7,34.9,231.7,34.3,231.7,33.2z"/>
</g>
<rect x="248.3" y="15.2" width="0.5" height="21.4"/>
<g>
	<path d="M241.9,38.2c0-1.8,2.5-3.5,4.5-3.5c1.3,0,2.3,0.7,2.3,1.7c0,1.7-2.5,3.5-4.6,3.5C242.9,39.9,241.9,39.3,241.9,38.2z"/>
</g>
<rect x="250.4" y="39.4" width="10.7" height="0.8"/>
<rect x="258.9" y="24.9" width="0.5" height="16.6"/>
<g>
	<path d="M256.6,39.6c1.6,0,2.7,0.7,2.7,2c0,1.9-2.3,3.4-4.5,3.4c-1.3,0-2.4-0.7-2.4-1.8C252.3,41.4,254.5,39.6,256.6,39.6z
		 M252.8,43.4c0,0.6,0.4,0.9,1.1,0.9c1.4,0,4.9-2.1,4.9-3.3c0-0.6-0.4-0.9-1.1-0.9C256.4,40.2,252.8,42.2,252.8,43.4z"/>
</g>
<rect x="320.3" y="15.2" width="0.5" height="21.4"/>
<g>
	<path d="M313.8,38.2c0-1.8,2.5-3.5,4.5-3.5c1.3,0,2.3,0.7,2.3,1.7c0,1.7-2.5,3.5-4.6,3.5C314.8,39.9,313.8,39.3,313.8,38.2z"/>
</g>
<rect x="330.7" y="13.6" width="0.5" height="18"/>
<g>
	<path d="M324.2,33.2c0-1.8,2.5-3.5,4.5-3.5c1.3,0,2.3,0.7,2.3,1.7c0,1.7-2.5,3.5-4.6,3.5C325.2,34.9,324.2,34.3,324.2,33.2z"/>
</g>
<rect x="340.9" y="11.9" width="0.5" height="14.7"/>
<g>
	<path d="M334.5,28.3c0-1.8,2.5-3.5,4.5-3.5c1.3,0,2.3,0.7,2.3,1.7c0,1.7-2.5,3.5-4.6,3.5C335.4,30,334.5,29.3,334.5,28.3z"/>
</g>
<rect x="351.3" y="10.2" width="0.5" height="14"/>
<g>
	<path d="M344.8,25.8c0-1.8,2.5-3.5,4.5-3.5c1.3,0,2.3,0.7,2.3,1.7c0,1.7-2.5,3.5-4.6,3.5C345.8,27.5,344.8,26.9,344.8,25.8z"/>
</g>
<rect x="369.3" y="20.7" width="0.5" height="14"/>
<g>
	<path d="M369.3,20.8c0-1.8,2.5-3.5,4.5-3.5c1.3,0,2.3,0.7,2.3,1.7c0,1.7-2.5,3.5-4.6,3.5C370.3,22.5,369.3,21.9,369.3,20.8z"/>
</g>
<rect x="379.6" y="15.8" width="0.5" height="17.4"/>
<g>
	<path d="M379.7,15.9c0-1.8,2.5-3.5,4.5-3.5c1.3,0,2.3,0.7,2.3,1.7c0,1.7-2.5,3.5-4.6,3.5C380.7,17.6,379.7,16.9,379.7,15.9z"/>
</g>
<rect x="388.2" y="9.7" width="10.5" height="0.8"/>
<rect x="390" y="10.8" width="0.5" height="20.8"/>
<g>
	<path d="M390.1,10.9c0-1.8,2.5-3.5,4.5-3.5c1.3,0,2.3,0.7,2.3,1.7c0,1.7-2.5,3.5-4.6,3.5C391.1,12.6,390.1,12,390.1,10.9z"/>
</g>
<rect x="400" y="9.7" width="10.5" height="0.8"/>
<rect x="401.8" y="8.3" width="0.5" height="21.4"/>
<g>
	<path d="M401.9,8.4c0-1.8,2.5-3.5,4.5-3.5c1.3,0,2.3,0.7,2.3,1.7c0,1.7-2.5,3.5-4.6,3.5C402.9,10.1,401.9,9.5,401.9,8.4z"/>
</g>
<rect x="411.8" y="9.7" width="10.5" height="0.8"/>
<rect x="411.8" y="4.7" width="10.5" height="0.8"/>
<rect x="413.6" y="3.4" width="0.5" height="21.4"/>
<g>
	<path d="M413.7,3.5c0-1.8,2.5-3.5,4.5-3.5c1.3,0,2.3,0.7,2.3,1.7c0,1.7-2.5,3.5-4.6,3.5C414.6,5.2,413.7,4.5,413.7,3.5z"/>
</g>
<rect x="423.6" y="9.7" width="10.5" height="0.8"/>
<rect x="425.4" y="8.3" width="0.5" height="18.1"/>
<g>
	<path d="M425.4,8.4c0-1.8,2.5-3.5,4.5-3.5c1.3,0,2.3,0.7,2.3,1.7c0,1.7-2.5,3.5-4.6,3.5C426.4,10.1,425.4,9.5,425.4,8.4z"/>
</g>
<rect x="435.4" y="9.7" width="10.5" height="0.8"/>
<rect x="437.2" y="10.8" width="0.5" height="17.4"/>
<g>
	<path d="M437.2,10.9c0-1.8,2.5-3.5,4.5-3.5c1.3,0,2.3,0.7,2.3,1.7c0,1.7-2.5,3.5-4.6,3.5C438.2,12.6,437.2,12,437.2,10.9z"/>
</g>
<rect x="447.4" y="15.8" width="0.5" height="14"/>
<g>
	<path d="M447.5,15.9c0-1.8,2.5-3.5,4.5-3.5c1.3,0,2.3,0.7,2.3,1.7c0,1.7-2.5,3.5-4.6,3.5C448.4,17.6,447.5,16.9,447.5,15.9z"/>
</g>
<rect x="480.2" y="5.2" width="0.5" height="14"/>
<g>
	<path d="M473.8,20.8c0-1.8,2.5-3.5,4.5-3.5c1.3,0,2.3,0.7,2.3,1.7c0,1.7-2.5,3.5-4.6,3.5C474.8,22.5,473.8,21.9,473.8,20.8z"/>
</g>
<rect x="490.6" y="6.8" width="0.5" height="17.4"/>
<g>
	<path d="M484.2,25.8c0-1.8,2.5-3.5,4.5-3.5c1.3,0,2.3,0.7,2.3,1.7c0,1.7-2.5,3.5-4.6,3.5C485.2,27.5,484.2,26.9,484.2,25.8z"/>
</g>
<rect x="501" y="8.5" width="0.5" height="18.1"/>
<g>
	<path d="M494.6,28.3c0-1.8,2.5-3.5,4.5-3.5c1.3,0,2.3,0.7,2.3,1.7c0,1.7-2.5,3.5-4.6,3.5C495.6,30,494.6,29.3,494.6,28.3z"/>
</g>
<rect x="511.4" y="10.2" width="0.5" height="21.4"/>
<g>
	<path d="M505,33.2c0-1.8,2.5-3.5,4.5-3.5c1.3,0,2.3,0.7,2.3,1.7c0,1.7-2.5,3.5-4.6,3.5C505.9,34.9,505,34.3,505,33.2z"/>
</g>
<rect x="521.8" y="20" width="0.5" height="16.6"/>
<g>
	<path d="M519.5,34.6c1.6,0,2.7,0.7,2.7,2c0,1.9-2.3,3.4-4.5,3.4c-1.3,0-2.4-0.7-2.4-1.8C515.2,36.4,517.4,34.6,519.5,34.6z
		 M515.7,38.5c0,0.6,0.4,0.9,1.1,0.9c1.4,0,4.9-2.1,4.9-3.3c0-0.6-0.4-0.9-1.1-0.9C519.3,35.2,515.7,37.2,515.7,38.5z"/>
</g>
<rect x="53.6" y="77.8" width="0.5" height="14"/>
<g>
	<path d="M53.7,77.9c0-1.8,2.5-3.5,4.5-3.5c1.3,0,2.3,0.7,2.3,1.7c0,1.7-2.5,3.5-4.6,3.5C54.7,79.6,53.7,78.9,53.7,77.9z"/>
</g>
<rect x="64" y="72.8" width="0.5" height="17.4"/>
<g>
	<path d="M64.1,72.9c0-1.8,2.5-3.5,4.5-3.5c1.3,0,2.3,0.7,2.3,1.7c0,1.7-2.5,3.5-4.6,3.5C65.1,74.6,64.1,74,64.1,72.9z"/>
</g>
<rect x="74.4" y="67.9" width="0.5" height="20.6"/>
<g>
	<path d="M74.5,67.9c0-1.8,2.5-3.5,4.5-3.5c1.3,0,2.3,0.7,2.3,1.7c0,1.7-2.5,3.5-4.6,3.5C75.5,69.7,74.5,69,74.5,67.9z"/>
</g>
<rect x="84.6" y="62.9" width="0.5" height="23.9"/>
<g>
	<path d="M84.7,63c0-1.8,2.5-3.5,4.5-3.5c1.3,0,2.3,0.7,2.3,1.7c0,1.7-2.5,3.5-4.6,3.5C85.7,64.7,84.7,64.1,84.7,63z"/>
</g>
<rect x="109.2" y="86.5" width="10.5" height="0.8"/>
<rect x="117.5" y="62.3" width="0.5" height="26.4"/>
<g>
	<path d="M111.1,90.3c0-1.8,2.5-3.5,4.5-3.5c1.3,0,2.3,0.7,2.3,1.7c0,1.7-2.5,3.5-4.6,3.5C112.1,92,111.1,91.3,111.1,90.3z"/>
</g>
<rect x="127.9" y="60.7" width="0.5" height="22.9"/>
<g>
	<path d="M121.5,85.3c0-1.8,2.5-3.5,4.5-3.5c1.3,0,2.3,0.7,2.3,1.7c0,1.7-2.5,3.5-4.6,3.5C122.4,87,121.5,86.4,121.5,85.3z"/>
</g>
<rect x="138.3" y="59" width="0.5" height="19.7"/>
<g>
	<path d="M131.9,80.3c0-1.8,2.5-3.5,4.5-3.5c1.3,0,2.3,0.7,2.3,1.7c0,1.7-2.5,3.5-4.6,3.5C132.8,82.1,131.9,81.4,131.9,80.3z"/>
</g>
<rect x="148.7" y="57.3" width="0.5" height="16.4"/>
<g>
	<path d="M142.2,75.4c0-1.8,2.5-3.5,4.5-3.5c1.3,0,2.3,0.7,2.3,1.7c0,1.7-2.5,3.5-4.6,3.5C143.2,77.1,142.2,76.5,142.2,75.4z"/>
</g>
<rect x="160.5" y="57.3" width="0.5" height="14"/>
<g>
	<path d="M154,72.9c0-1.8,2.5-3.5,4.5-3.5c1.3,0,2.3,0.7,2.3,1.7c0,1.7-2.5,3.5-4.6,3.5C155,74.6,154,74,154,72.9z"/>
</g>
<rect x="172.2" y="59" width="0.5" height="14.7"/>
<g>
	<path d="M165.8,75.4c0-1.8,2.5-3.5,4.5-3.5c1.3,0,2.3,0.7,2.3,1.7c0,1.7-2.5,3.5-4.6,3.5C166.8,77.1,165.8,76.5,165.8,75.4z"/>
</g>
<rect x="182.5" y="60.6" width="0.5" height="18.1"/>
<g>
	<path d="M176,80.3c0-1.8,2.5-3.5,4.5-3.5c1.3,0,2.3,0.7,2.3,1.7c0,1.7-2.5,3.5-4.6,3.5C177,82.1,176,81.4,176,80.3z"/>
</g>
<rect x="192.9" y="62.3" width="0.5" height="21.4"/>
<g>
	<path d="M186.4,85.3c0-1.8,2.5-3.5,4.5-3.5c1.3,0,2.3,0.7,2.3,1.7c0,1.7-2.5,3.5-4.6,3.5C187.4,87,186.4,86.4,186.4,85.3z"/>
</g>
<rect x="210.8" y="60.4" width="0.5" height="21.4"/>
<g>
	<path d="M210.9,60.5c0-1.8,2.5-3.5,4.5-3.5c1.3,0,2.3,0.7,2.3,1.7c0,1.7-2.5,3.5-4.6,3.5C211.9,62.2,210.9,61.6,210.9,60.5z"/>
</g>
<rect x="221.2" y="62.9" width="0.5" height="20.5"/>
<g>
	<path d="M221.3,63c0-1.8,2.5-3.5,4.5-3.5c1.3,0,2.3,0.7,2.3,1.7c0,1.7-2.5,3.5-4.6,3.5C222.3,64.7,221.3,64.1,221.3,63z"/>
</g>
<rect x="231.6" y="67.9" width="0.5" height="17.2"/>
<g>
	<path d="M231.7,67.9c0-1.8,2.5-3.5,4.5-3.5c1.3,0,2.3,0.7,2.3,1.7c0,1.7-2.5,3.5-4.6,3.5C232.7,69.7,231.7,69,231.7,67.9z"/>
</g>
<rect x="241.8" y="72.8" width="0.5" height="14"/>
<g>
	<path d="M241.9,72.9c0-1.8,2.5-3.5,4.5-3.5c1.3,0,2.3,0.7,2.3,1.7c0,1.7-2.5,3.5-4.6,3.5C242.9,74.6,241.9,74,241.9,72.9z"/>
</g>
<rect x="258.9" y="59.6" width="0.5" height="16.6"/>
<g>
	<path d="M256.6,74.3c1.6,0,2.7,0.7,2.7,2c0,1.9-2.3,3.4-4.5,3.4c-1.3,0-2.4-0.7-2.4-1.8C252.3,76.1,254.5,74.3,256.6,74.3z
		 M252.8,78.2c0,0.6,0.4,0.9,1.1,0.9c1.4,0,4.9-2.1,4.9-3.3c0-0.6-0.4-0.9-1.1-0.9C256.4,74.9,252.8,76.9,252.8,78.2z"/>
</g>
<rect x="313.8" y="72.8" width="0.5" height="14"/>
<g>
	<path d="M313.8,72.9c0-1.8,2.5-3.5,4.5-3.5c1.3,0,2.3,0.7,2.3,1.7c0,1.7-2.5,3.5-4.6,3.5C314.8,74.6,313.8,74,313.8,72.9z"/>
</g>
<rect x="324.1" y="67.9" width="0.5" height="17.4"/>
<g>
	<path d="M324.2,67.9c0-1.8,2.5-3.5,4.5-3.5c1.3,0,2.3,0.7,2.3,1.7c0,1.7-2.5,3.5-4.6,3.5C325.2,69.7,324.2,69,324.2,67.9z"/>
</g>
<rect x="334.4" y="62.9" width="0.5" height="20.6"/>
<g>
	<path d="M334.5,63c0-1.8,2.5-3.5,4.5-3.5c1.3,0,2.3,0.7,2.3,1.7c0,1.7-2.5,3.5-4.6,3.5C335.4,64.7,334.5,64.1,334.5,63z"/>
</g>
<rect x="344.8" y="60.4" width="0.5" height="21.4"/>
<g>
	<path d="M344.8,60.5c0-1.8,2.5-3.5,4.5-3.5c1.3,0,2.3,0.7,2.3,1.7c0,1.7-2.5,3.5-4.6,3.5C345.8,62.2,344.8,61.6,344.8,60.5z"/>
</g>
<rect x="375.8" y="61" width="0.5" height="22.6"/>
<g>
	<path d="M369.3,85.3c0-1.8,2.5-3.5,4.5-3.5c1.3,0,2.3,0.7,2.3,1.7c0,1.7-2.5,3.5-4.6,3.5C370.3,87,369.3,86.4,369.3,85.3z"/>
</g>
<rect x="386.2" y="59.5" width="0.5" height="19.2"/>
<g>
	<path d="M379.7,80.3c0-1.8,2.5-3.5,4.5-3.5c1.3,0,2.3,0.7,2.3,1.7c0,1.7-2.5,3.5-4.6,3.5C380.7,82.1,379.7,81.4,379.7,80.3z"/>
</g>
<rect x="396.5" y="57.9" width="0.5" height="15.8"/>
<g>
	<path d="M390.1,75.4c0-1.8,2.5-3.5,4.5-3.5c1.3,0,2.3,0.7,2.3,1.7c0,1.7-2.5,3.5-4.6,3.5C391.1,77.1,390.1,76.5,390.1,75.4z"/>
</g>
<rect x="408.3" y="56.1" width="0.5" height="15.2"/>
<g>
	<path d="M401.9,72.9c0-1.8,2.5-3.5,4.5-3.5c1.3,0,2.3,0.7,2.3,1.7c0,1.7-2.5,3.5-4.6,3.5C402.9,74.6,401.9,74,401.9,72.9z"/>
</g>
<rect x="420.1" y="52.4" width="0.5" height="14"/>
<g>
	<path d="M413.7,67.9c0-1.8,2.5-3.5,4.5-3.5c1.3,0,2.3,0.7,2.3,1.7c0,1.7-2.5,3.5-4.6,3.5C414.6,69.7,413.7,69,413.7,67.9z"/>
</g>
<rect x="431.9" y="54.1" width="0.5" height="17.2"/>
<g>
	<path d="M425.4,72.9c0-1.8,2.5-3.5,4.5-3.5c1.3,0,2.3,0.7,2.3,1.7c0,1.7-2.5,3.5-4.6,3.5C426.4,74.6,425.4,74,425.4,72.9z"/>
</g>
<rect x="443.7" y="55.8" width="0.5" height="18"/>
<g>
	<path d="M437.2,75.4c0-1.8,2.5-3.5,4.5-3.5c1.3,0,2.3,0.7,2.3,1.7c0,1.7-2.5,3.5-4.6,3.5C438.2,77.1,437.2,76.5,437.2,75.4z"/>
</g>
<rect x="453.9" y="57.3" width="0.5" height="21.4"/>
<g>
	<path d="M447.5,80.3c0-1.8,2.5-3.5,4.5-3.5c1.3,0,2.3,0.7,2.3,1.7c0,1.7-2.5,3.5-4.6,3.5C448.4,82.1,447.5,81.4,447.5,80.3z"/>
</g>
<rect x="472" y="56.8" width="10.5" height="0.8"/>
<rect x="473.7" y="55.5" width="0.5" height="21.4"/>
<g>
	<path d="M473.8,55.5c0-1.8,2.5-3.5,4.5-3.5c1.3,0,2.3,0.7,2.3,1.7c0,1.7-2.5,3.5-4.6,3.5C474.8,57.3,473.8,56.6,473.8,55.5z"/>
</g>
<rect x="484.1" y="60.4" width="0.5" height="18"/>
<g>
	<path d="M484.2,60.5c0-1.8,2.5-3.5,4.5-3.5c1.3,0,2.3,0.7,2.3,1.7c0,1.7-2.5,3.5-4.6,3.5C485.2,62.2,484.2,61.6,484.2,60.5z"/>
</g>
<rect x="494.5" y="62.9" width="0.5" height="17.2"/>
<g>
	<path d="M494.6,63c0-1.8,2.5-3.5,4.5-3.5c1.3,0,2.3,0.7,2.3,1.7c0,1.7-2.5,3.5-4.6,3.5C495.6,64.7,494.6,64.1,494.6,63z"/>
</g>
<rect x="504.9" y="67.9" width="0.5" height="14"/>
<g>
	<path d="M505,67.9c0-1.8,2.5-3.5,4.5-3.5c1.3,0,2.3,0.7,2.3,1.7c0,1.7-2.5,3.5-4.6,3.5C505.9,69.7,505,69,505,67.9z"/>
</g>
<rect x="515.1" y="72.8" width="0.5" height="16.6"/>
<g>
	<path d="M519.5,69.3c1.6,0,2.7,0.7,2.7,2c0,1.9-2.3,3.4-4.5,3.4c-1.3,0-2.4-0.7-2.4-1.8C515.2,71.1,517.4,69.3,519.5,69.3z
		 M515.7,73.2c0,0.6,0.4,0.9,1.1,0.9c1.4,0,4.9-2.1,4.9-3.3c0-0.6-0.4-0.9-1.1-0.9C519.3,69.9,515.7,72,515.7,73.2z"/>
</g>
<rect x="60.2" y="132" width="0.5" height="21.4"/>
<g>
	<path d="M53.7,155c0-1.8,2.5-3.5,4.5-3.5c1.3,0,2.3,0.7,2.3,1.7c0,1.7-2.5,3.5-4.6,3.5C54.7,156.8,53.7,156.1,53.7,155z"/>
</g>
<rect x="71.5" y="130.5" width="0.5" height="18"/>
<g>
	<path d="M65,150.1c0-1.8,2.5-3.5,4.5-3.5c1.3,0,2.3,0.7,2.3,1.7c0,1.7-2.5,3.5-4.6,3.5C66,151.8,65,151.2,65,150.1z"/>
</g>
<rect x="82.8" y="128.8" width="0.5" height="17.2"/>
<g>
	<path d="M76.4,147.6c0-1.8,2.5-3.5,4.5-3.5c1.3,0,2.3,0.7,2.3,1.7c0,1.7-2.5,3.5-4.6,3.5C77.3,149.3,76.4,148.7,76.4,147.6z"/>
</g>
<rect x="94" y="127.1" width="0.5" height="14"/>
<g>
	<path d="M87.5,142.7c0-1.8,2.5-3.5,4.5-3.5c1.3,0,2.3,0.7,2.3,1.7c0,1.7-2.5,3.5-4.6,3.5C88.5,144.4,87.5,143.7,87.5,142.7z"/>
</g>
<rect x="120.3" y="132" width="0.5" height="21.4"/>
<g>
	<path d="M113.9,155c0-1.8,2.5-3.5,4.5-3.5c1.3,0,2.3,0.7,2.3,1.7c0,1.7-2.5,3.5-4.6,3.5C114.8,156.8,113.9,156.1,113.9,155z"/>
</g>
<rect x="131.6" y="130.5" width="0.5" height="18"/>
<g>
	<path d="M125.2,150.1c0-1.8,2.5-3.5,4.5-3.5c1.3,0,2.3,0.7,2.3,1.7c0,1.7-2.5,3.5-4.6,3.5C126.2,151.8,125.2,151.2,125.2,150.1z"/>
</g>
<rect x="142.9" y="128.8" width="0.5" height="17.2"/>
<g>
	<path d="M136.5,147.6c0-1.8,2.5-3.5,4.5-3.5c1.3,0,2.3,0.7,2.3,1.7c0,1.7-2.5,3.5-4.6,3.5C137.5,149.3,136.5,148.7,136.5,147.6z"/>
</g>
<rect x="154.3" y="127.1" width="0.5" height="14"/>
<g>
	<path d="M147.8,142.7c0-1.8,2.5-3.5,4.5-3.5c1.3,0,2.3,0.7,2.3,1.7c0,1.7-2.5,3.5-4.6,3.5C148.8,144.4,147.8,143.7,147.8,142.7z"/>
</g>
<rect x="158.9" y="137.6" width="0.5" height="23.9"/>
<g>
	<path d="M159,137.7c0-1.8,2.5-3.5,4.5-3.5c1.3,0,2.3,0.7,2.3,1.7c0,1.7-2.5,3.5-4.6,3.5C160,139.4,159,138.8,159,137.7z"/>
</g>
<rect x="170.2" y="142.6" width="0.5" height="20.5"/>
<g>
	<path d="M170.3,142.7c0-1.8,2.5-3.5,4.5-3.5c1.3,0,2.3,0.7,2.3,1.7c0,1.7-2.5,3.5-4.6,3.5C171.3,144.4,170.3,143.7,170.3,142.7z"/>
</g>
<rect x="181.5" y="147.5" width="0.5" height="17.2"/>
<g>
	<path d="M181.6,147.6c0-1.8,2.5-3.5,4.5-3.5c1.3,0,2.3,0.7,2.3,1.7c0,1.7-2.5,3.5-4.6,3.5C182.6,149.3,181.6,148.7,181.6,147.6z"/>
</g>
<rect x="192.9" y="150" width="0.5" height="16.4"/>
<g>
	<path d="M192.9,150.1c0-1.8,2.5-3.5,4.5-3.5c1.3,0,2.3,0.7,2.3,1.7c0,1.7-2.5,3.5-4.6,3.5C193.9,151.8,192.9,151.2,192.9,150.1z"/>
</g>
<rect x="219.2" y="137.6" width="0.5" height="23.9"/>
<g>
	<path d="M219.3,137.7c0-1.8,2.5-3.5,4.5-3.5c1.3,0,2.3,0.7,2.3,1.7c0,1.7-2.5,3.5-4.6,3.5C220.3,139.4,219.3,138.8,219.3,137.7z"/>
</g>
<rect x="231" y="142.6" width="0.5" height="20.6"/>
<g>
	<path d="M231.1,142.7c0-1.8,2.5-3.5,4.5-3.5c1.3,0,2.3,0.7,2.3,1.7c0,1.7-2.5,3.5-4.6,3.5C232,144.4,231.1,143.7,231.1,142.7z"/>
</g>
<rect x="242.3" y="147.5" width="0.5" height="17.2"/>
<g>
	<path d="M242.4,147.6c0-1.8,2.5-3.5,4.5-3.5c1.3,0,2.3,0.7,2.3,1.7c0,1.7-2.5,3.5-4.6,3.5C243.4,149.3,242.4,148.7,242.4,147.6z"/>
</g>
<rect x="253.5" y="150" width="0.5" height="16.4"/>
<g>
	<path d="M253.5,150.1c0-1.8,2.5-3.5,4.5-3.5c1.3,0,2.3,0.7,2.3,1.7c0,1.7-2.5,3.5-4.6,3.5C254.5,151.8,253.5,151.2,253.5,150.1z"/>
</g>
<rect x="271.4" y="136.8" width="0.5" height="16.6"/>
<g>
	<path d="M269.1,151.5c1.6,0,2.7,0.7,2.7,2c0,1.9-2.3,3.4-4.5,3.4c-1.3,0-2.4-0.7-2.4-1.8C264.9,153.3,267.1,151.5,269.1,151.5z
		 M265.3,155.3c0,0.6,0.4,0.9,1.1,0.9c1.4,0,4.9-2.1,4.9-3.3c0-0.6-0.4-0.9-1.1-0.9C269,152.1,265.3,154.1,265.3,155.3z"/>
</g>
<rect x="329.1" y="150" width="0.5" height="16.4"/>
<g>
	<path d="M329.2,150.1c0-1.8,2.5-3.5,4.5-3.5c1.3,0,2.3,0.7,2.3,1.7c0,1.7-2.5,3.5-4.6,3.5C330.2,151.8,329.2,151.2,329.2,150.1z"/>
</g>
<rect x="340.9" y="147.5" width="0.5" height="17.4"/>
<g>
	<path d="M341,147.6c0-1.8,2.5-3.5,4.5-3.5c1.3,0,2.3,0.7,2.3,1.7c0,1.7-2.5,3.5-4.6,3.5C341.9,149.3,341,148.7,341,147.6z"/>
</g>
<rect x="352.2" y="142.6" width="0.5" height="20.6"/>
<g>
	<path d="M352.3,142.7c0-1.8,2.5-3.5,4.5-3.5c1.3,0,2.3,0.7,2.3,1.7c0,1.7-2.5,3.5-4.6,3.5C353.3,144.4,352.3,143.7,352.3,142.7z"/>
</g>
<rect x="363.5" y="137.6" width="0.5" height="23.9"/>
<g>
	<path d="M363.6,137.7c0-1.8,2.5-3.5,4.5-3.5c1.3,0,2.3,0.7,2.3,1.7c0,1.7-2.5,3.5-4.6,3.5C364.6,139.4,363.6,138.8,363.6,137.7z"/>
</g>
<rect x="374.7" y="150" width="0.5" height="16.4"/>
<g>
	<path d="M374.8,150.1c0-1.8,2.5-3.5,4.5-3.5c1.3,0,2.3,0.7,2.3,1.7c0,1.7-2.5,3.5-4.6,3.5C375.7,151.8,374.8,151.2,374.8,150.1z"/>
</g>
<rect x="386" y="147.5" width="0.5" height="17.4"/>
<g>
	<path d="M386.1,147.6c0-1.8,2.5-3.5,4.5-3.5c1.3,0,2.3,0.7,2.3,1.7c0,1.7-2.5,3.5-4.6,3.5C387,149.3,386.1,148.7,386.1,147.6z"/>
</g>
<rect x="397.3" y="142.6" width="0.5" height="20.6"/>
<g>
	<path d="M397.4,142.7c0-1.8,2.5-3.5,4.5-3.5c1.3,0,2.3,0.7,2.3,1.7c0,1.7-2.5,3.5-4.6,3.5C398.4,144.4,397.4,143.7,397.4,142.7z"/>
</g>
<rect x="408.6" y="137.6" width="0.5" height="23.9"/>
<g>
	<path d="M408.7,137.7c0-1.8,2.5-3.5,4.5-3.5c1.3,0,2.3,0.7,2.3,1.7c0,1.7-2.5,3.5-4.6,3.5C409.7,139.4,408.7,138.8,408.7,137.7z"/>
</g>
<rect x="418.2" y="131.5" width="10.5" height="0.8"/>
<rect x="419.9" y="132.7" width="0.5" height="23.9"/>
<g>
	<path d="M420,132.7c0-1.8,2.5-3.5,4.5-3.5c1.3,0,2.3,0.7,2.3,1.7c0,1.7-2.5,3.5-4.6,3.5C421,134.5,420,133.8,420,132.7z"/>
</g>
<rect x="431.1" y="137.6" width="0.5" height="20.5"/>
<g>
	<path d="M431.2,137.7c0-1.8,2.5-3.5,4.5-3.5c1.3,0,2.3,0.7,2.3,1.7c0,1.7-2.5,3.5-4.6,3.5C432.2,139.4,431.2,138.8,431.2,137.7z"/>
</g>
<rect x="442.4" y="142.6" width="0.5" height="17.2"/>
<g>
	<path d="M442.5,142.7c0-1.8,2.5-3.5,4.5-3.5c1.3,0,2.3,0.7,2.3,1.7c0,1.7-2.5,3.5-4.6,3.5C443.5,144.4,442.5,143.7,442.5,142.7z"/>
</g>
<rect x="453.7" y="147.5" width="0.5" height="14"/>
<g>
	<path d="M453.8,147.6c0-1.8,2.5-3.5,4.5-3.5c1.3,0,2.3,0.7,2.3,1.7c0,1.7-2.5,3.5-4.6,3.5C454.8,149.3,453.8,148.7,453.8,147.6z"/>
</g>
<rect x="463.3" y="131.5" width="10.5" height="0.8"/>
<rect x="465.1" y="132.7" width="0.5" height="23.9"/>
<g>
	<path d="M465.1,132.7c0-1.8,2.5-3.5,4.5-3.5c1.3,0,2.3,0.7,2.3,1.7c0,1.7-2.5,3.5-4.6,3.5C466.1,134.5,465.1,133.8,465.1,132.7z"/>
</g>
<rect x="476.2" y="137.6" width="0.5" height="20.5"/>
<g>
	<path d="M476.3,137.7c0-1.8,2.5-3.5,4.5-3.5c1.3,0,2.3,0.7,2.3,1.7c0,1.7-2.5,3.5-4.6,3.5C477.3,139.4,476.3,138.8,476.3,137.7z"/>
</g>
<rect x="487.5" y="142.6" width="0.5" height="17.2"/>
<g>
	<path d="M487.6,142.7c0-1.8,2.5-3.5,4.5-3.5c1.3,0,2.3,0.7,2.3,1.7c0,1.7-2.5,3.5-4.6,3.5C488.6,144.4,487.6,143.7,487.6,142.7z"/>
</g>
<rect x="498.9" y="147.5" width="0.5" height="14"/>
<g>
	<path d="M498.9,147.6c0-1.8,2.5-3.5,4.5-3.5c1.3,0,2.3,0.7,2.3,1.7c0,1.7-2.5,3.5-4.6,3.5C499.9,149.3,498.9,148.7,498.9,147.6z"/>
</g>
<rect x="517.3" y="131.9" width="0.5" height="16.6"/>
<g>
	<path d="M515,146.5c1.6,0,2.7,0.7,2.7,2c0,1.9-2.3,3.4-4.5,3.4c-1.3,0-2.4-0.7-2.4-1.8C510.7,148.3,512.9,146.5,515,146.5z
		 M511.2,150.4c0,0.6,0.4,0.9,1.1,0.9c1.4,0,4.9-2.1,4.9-3.3c0-0.6-0.4-0.9-1.1-0.9C514.8,147.1,511.2,149.2,511.2,150.4z"/>
</g>
<rect x="53.6" y="189.7" width="0.5" height="14"/>
<g>
	<path d="M53.7,189.8c0-1.8,2.5-3.5,4.5-3.5c1.3,0,2.3,0.7,2.3,1.7c0,1.7-2.5,3.5-4.6,3.5C54.7,191.5,53.7,190.9,53.7,189.8z"/>
</g>
<rect x="65" y="184.7" width="0.5" height="17.4"/>
<g>
	<path d="M65,184.8c0-1.8,2.5-3.5,4.5-3.5c1.3,0,2.3,0.7,2.3,1.7c0,1.7-2.5,3.5-4.6,3.5C66,186.5,65,185.9,65,184.8z"/>
</g>
<rect x="76.3" y="182.3" width="0.5" height="18.1"/>
<g>
	<path d="M76.4,182.3c0-1.8,2.5-3.5,4.5-3.5c1.3,0,2.3,0.7,2.3,1.7c0,1.7-2.5,3.5-4.6,3.5C77.3,184.1,76.4,183.4,76.4,182.3z"/>
</g>
<rect x="85.7" y="178.6" width="10.5" height="0.8"/>
<rect x="87.4" y="177.3" width="0.5" height="21.4"/>
<g>
	<path d="M87.5,177.4c0-1.8,2.5-3.5,4.5-3.5c1.3,0,2.3,0.7,2.3,1.7c0,1.7-2.5,3.5-4.6,3.5C88.5,179.1,87.5,178.5,87.5,177.4z"/>
</g>
<rect x="120.3" y="179.2" width="0.5" height="21.4"/>
<g>
	<path d="M113.9,202.2c0-1.8,2.5-3.5,4.5-3.5c1.3,0,2.3,0.7,2.3,1.7c0,1.7-2.5,3.5-4.6,3.5C114.8,203.9,113.9,203.3,113.9,202.2z"/>
</g>
<rect x="131.6" y="177.6" width="0.5" height="18"/>
<g>
	<path d="M125.2,197.2c0-1.8,2.5-3.5,4.5-3.5c1.3,0,2.3,0.7,2.3,1.7c0,1.7-2.5,3.5-4.6,3.5C126.2,198.9,125.2,198.3,125.2,197.2z"/>
</g>
<rect x="142.9" y="175.9" width="0.5" height="17.2"/>
<g>
	<path d="M136.5,194.7c0-1.8,2.5-3.5,4.5-3.5c1.3,0,2.3,0.7,2.3,1.7c0,1.7-2.5,3.5-4.6,3.5C137.5,196.5,136.5,195.8,136.5,194.7z"/>
</g>
<rect x="154.3" y="174.2" width="0.5" height="14"/>
<g>
	<path d="M147.8,189.8c0-1.8,2.5-3.5,4.5-3.5c1.3,0,2.3,0.7,2.3,1.7c0,1.7-2.5,3.5-4.6,3.5C148.8,191.5,147.8,190.9,147.8,189.8z"/>
</g>
<rect x="158.9" y="184.7" width="0.5" height="23.9"/>
<g>
	<path d="M159,184.8c0-1.8,2.5-3.5,4.5-3.5c1.3,0,2.3,0.7,2.3,1.7c0,1.7-2.5,3.5-4.6,3.5C160,186.5,159,185.9,159,184.8z"/>
</g>
<rect x="170.2" y="189.7" width="0.5" height="20.5"/>
<g>
	<path d="M170.3,189.8c0-1.8,2.5-3.5,4.5-3.5c1.3,0,2.3,0.7,2.3,1.7c0,1.7-2.5,3.5-4.6,3.5C171.3,191.5,170.3,190.9,170.3,189.8z"/>
</g>
<rect x="181.5" y="194.7" width="0.5" height="17.2"/>
<g>
	<path d="M181.6,194.7c0-1.8,2.5-3.5,4.5-3.5c1.3,0,2.3,0.7,2.3,1.7c0,1.7-2.5,3.5-4.6,3.5C182.6,196.5,181.6,195.8,181.6,194.7z"/>
</g>
<rect x="192.9" y="197.1" width="0.5" height="16.4"/>
<g>
	<path d="M192.9,197.2c0-1.8,2.5-3.5,4.5-3.5c1.3,0,2.3,0.7,2.3,1.7c0,1.7-2.5,3.5-4.6,3.5C193.9,198.9,192.9,198.3,192.9,197.2z"/>
</g>
<rect x="217.4" y="178.6" width="10.5" height="0.8"/>
<rect x="217.4" y="173.7" width="10.5" height="0.8"/>
<rect x="219.2" y="172.3" width="0.5" height="21.4"/>
<g>
	<path d="M219.3,172.4c0-1.8,2.5-3.5,4.5-3.5c1.3,0,2.3,0.7,2.3,1.7c0,1.7-2.5,3.5-4.6,3.5C220.3,174.1,219.3,173.5,219.3,172.4z"/>
</g>
<rect x="229.2" y="178.6" width="10.5" height="0.8"/>
<rect x="231" y="177.3" width="0.5" height="18.1"/>
<g>
	<path d="M231.1,177.4c0-1.8,2.5-3.5,4.5-3.5c1.3,0,2.3,0.7,2.3,1.7c0,1.7-2.5,3.5-4.6,3.5C232,179.1,231.1,178.5,231.1,177.4z"/>
</g>
<rect x="242.3" y="182.3" width="0.5" height="14.7"/>
<g>
	<path d="M242.4,182.3c0-1.8,2.5-3.5,4.5-3.5c1.3,0,2.3,0.7,2.3,1.7c0,1.7-2.5,3.5-4.6,3.5C243.4,184.1,242.4,183.4,242.4,182.3z"/>
</g>
<rect x="253.5" y="184.7" width="0.5" height="14"/>
<g>
	<path d="M253.5,184.8c0-1.8,2.5-3.5,4.5-3.5c1.3,0,2.3,0.7,2.3,1.7c0,1.7-2.5,3.5-4.6,3.5C254.5,186.5,253.5,185.9,253.5,184.8z"/>
</g>
<rect x="264.8" y="189.7" width="0.5" height="16.6"/>
<g>
	<path d="M269.1,186.2c1.6,0,2.7,0.7,2.7,2c0,1.9-2.3,3.4-4.5,3.4c-1.3,0-2.4-0.7-2.4-1.8C264.9,188,267.1,186.2,269.1,186.2z
		 M265.3,190.1c0,0.6,0.4,0.9,1.1,0.9c1.4,0,4.9-2.1,4.9-3.3c0-0.6-0.4-0.9-1.1-0.9C269,186.8,265.3,188.8,265.3,190.1z"/>
</g>
<rect x="327.3" y="208.4" width="10.5" height="0.8"/>
<rect x="327.3" y="213.3" width="10.5" height="0.8"/>
<rect x="335.6" y="189.1" width="0.5" height="23.9"/>
<g>
	<path d="M329.2,214.6c0-1.8,2.5-3.5,4.5-3.5c1.3,0,2.3,0.7,2.3,1.7c0,1.7-2.5,3.5-4.6,3.5C330.2,216.3,329.2,215.7,329.2,214.6z"/>
</g>
<rect x="339.1" y="208.4" width="10.5" height="0.8"/>
<rect x="347.4" y="187.5" width="0.5" height="22.9"/>
<g>
	<path d="M341,212.1c0-1.8,2.5-3.5,4.5-3.5c1.3,0,2.3,0.7,2.3,1.7c0,1.7-2.5,3.5-4.6,3.5C341.9,213.8,341,213.2,341,212.1z"/>
</g>
<rect x="358.7" y="185.8" width="0.5" height="19.7"/>
<g>
	<path d="M352.3,207.1c0-1.8,2.5-3.5,4.5-3.5c1.3,0,2.3,0.7,2.3,1.7c0,1.7-2.5,3.5-4.6,3.5C353.3,208.9,352.3,208.2,352.3,207.1z"/>
</g>
<rect x="370" y="184.1" width="0.5" height="16.4"/>
<g>
	<path d="M363.6,202.2c0-1.8,2.5-3.5,4.5-3.5c1.3,0,2.3,0.7,2.3,1.7c0,1.7-2.5,3.5-4.6,3.5C364.6,203.9,363.6,203.3,363.6,202.2z"/>
</g>
<rect x="374.7" y="197.1" width="0.5" height="16.4"/>
<g>
	<path d="M374.8,197.2c0-1.8,2.5-3.5,4.5-3.5c1.3,0,2.3,0.7,2.3,1.7c0,1.7-2.5,3.5-4.6,3.5C375.7,198.9,374.8,198.3,374.8,197.2z"/>
</g>
<rect x="386" y="194.7" width="0.5" height="17.4"/>
<g>
	<path d="M386.1,194.7c0-1.8,2.5-3.5,4.5-3.5c1.3,0,2.3,0.7,2.3,1.7c0,1.7-2.5,3.5-4.6,3.5C387,196.5,386.1,195.8,386.1,194.7z"/>
</g>
<rect x="397.3" y="189.7" width="0.5" height="20.6"/>
<g>
	<path d="M397.4,189.8c0-1.8,2.5-3.5,4.5-3.5c1.3,0,2.3,0.7,2.3,1.7c0,1.7-2.5,3.5-4.6,3.5C398.4,191.5,397.4,190.9,397.4,189.8z"/>
</g>
<rect x="408.6" y="184.7" width="0.5" height="23.9"/>
<g>
	<path d="M408.7,184.8c0-1.8,2.5-3.5,4.5-3.5c1.3,0,2.3,0.7,2.3,1.7c0,1.7-2.5,3.5-4.6,3.5C409.7,186.5,408.7,185.9,408.7,184.8z"/>
</g>
<rect x="418.2" y="178.6" width="10.5" height="0.8"/>
<rect x="419.9" y="179.8" width="0.5" height="23.9"/>
<g>
	<path d="M420,179.9c0-1.8,2.5-3.5,4.5-3.5c1.3,0,2.3,0.7,2.3,1.7c0,1.7-2.5,3.5-4.6,3.5C421,181.6,420,180.9,420,179.9z"/>
</g>
<rect x="431.1" y="184.7" width="0.5" height="20.5"/>
<g>
	<path d="M431.2,184.8c0-1.8,2.5-3.5,4.5-3.5c1.3,0,2.3,0.7,2.3,1.7c0,1.7-2.5,3.5-4.6,3.5C432.2,186.5,431.2,185.9,431.2,184.8z"/>
</g>
<rect x="442.4" y="189.7" width="0.5" height="17.2"/>
<g>
	<path d="M442.5,189.8c0-1.8,2.5-3.5,4.5-3.5c1.3,0,2.3,0.7,2.3,1.7c0,1.7-2.5,3.5-4.6,3.5C443.5,191.5,442.5,190.9,442.5,189.8z"/>
</g>
<rect x="453.7" y="194.7" width="0.5" height="14"/>
<g>
	<path d="M453.8,194.7c0-1.8,2.5-3.5,4.5-3.5c1.3,0,2.3,0.7,2.3,1.7c0,1.7-2.5,3.5-4.6,3.5C454.8,196.5,453.8,195.8,453.8,194.7z"/>
</g>
<rect x="471.6" y="179.2" width="0.5" height="16.4"/>
<g>
	<path d="M465.1,197.2c0-1.8,2.5-3.5,4.5-3.5c1.3,0,2.3,0.7,2.3,1.7c0,1.7-2.5,3.5-4.6,3.5C466.1,198.9,465.1,198.3,465.1,197.2z"/>
</g>
<rect x="482.7" y="180.7" width="0.5" height="19.8"/>
<g>
	<path d="M476.3,202.2c0-1.8,2.5-3.5,4.5-3.5c1.3,0,2.3,0.7,2.3,1.7c0,1.7-2.5,3.5-4.6,3.5C477.3,203.9,476.3,203.3,476.3,202.2z"/>
</g>
<rect x="494" y="182.4" width="0.5" height="23.1"/>
<g>
	<path d="M487.6,207.1c0-1.8,2.5-3.5,4.5-3.5c1.3,0,2.3,0.7,2.3,1.7c0,1.7-2.5,3.5-4.6,3.5C488.6,208.9,487.6,208.2,487.6,207.1z"/>
</g>
<rect x="497.1" y="208.4" width="10.5" height="0.8"/>
<rect x="505.4" y="184.1" width="0.5" height="26.4"/>
<g>
	<path d="M498.9,212.1c0-1.8,2.5-3.5,4.5-3.5c1.3,0,2.3,0.7,2.3,1.7c0,1.7-2.5,3.5-4.6,3.5C499.9,213.8,498.9,213.2,498.9,212.1z"/>
</g>
<rect x="508.8" y="208.4" width="10.7" height="0.8"/>
<rect x="508.8" y="213.3" width="10.7" height="0.8"/>
<rect x="517.3" y="193.9" width="0.5" height="19.1"/>
<g>
	<path d="M515,211c1.6,0,2.7,0.7,2.7,2c0,1.9-2.3,3.4-4.5,3.4c-1.3,0-2.4-0.7-2.4-1.8C510.7,212.8,512.9,211,515,211z M511.2,214.9
		c0,0.6,0.4,0.9,1.1,0.9c1.4,0,4.9-2.1,4.9-3.3c0-0.6-0.4-0.9-1.1-0.9C514.8,211.6,511.2,213.6,511.2,214.9z"/>
</g>
</svg>
