<?xml version="1.0" encoding="utf-8"?>
<!-- Generator: Adobe Illustrator 19.0.1, SVG Export Plug-In . SVG Version: 6.00 Build 0)  -->
<!DOCTYPE svg PUBLIC "-//W3C//DTD SVG 1.1//EN" "http://www.w3.org/Graphics/SVG/1.1/DTD/svg11.dtd">
<svg version="1.1" id="Layer_1" xmlns="http://www.w3.org/2000/svg" xmlns:xlink="http://www.w3.org/1999/xlink" x="0px" y="0px"
	 viewBox="0 0 552.9 86.8" enable-background="new 0 0 552.9 86.8" xml:space="preserve">
<rect x="8.4" y="9.9" width="0.8" height="67"/>
<g>
	<path d="M7.4,10.6c-1.9,1.1-3.6,5.8-3.6,9.4c0,2.3,1.4,9.9,1.4,12.3c0,5-1.5,8.6-4.6,11.1c3,2.4,4.6,6.1,4.6,11.1
		c0,2.3-1.4,9.9-1.4,12.3c0,3.8,1.7,8.4,3.6,9.5v0.7c-3.5-2.3-5.8-8.2-5.8-13.1c0-2.1,1.7-9.4,1.7-11.5c0-3.8-1-6.6-2.9-8.2
		C0.1,43.8,0,43.6,0,43.4c0-0.2,0.1-0.4,0.5-0.7c1.9-1.7,2.9-4.2,2.9-7.6c0-2.1-1.7-10-1.7-12.2c0-5.2,2.1-10.4,5.8-13.1V10.6z"/>
</g>
<rect x="547.8" y="9.9" width="0.8" height="67"/>
<rect x="550.4" y="9.9" width="2.5" height="67"/>
<rect x="8.5" y="29.5" width="544.4" height="0.5"/>
<rect x="8.5" y="24.6" width="544.4" height="0.5"/>
<rect x="8.5" y="19.6" width="544.4" height="0.5"/>
<rect x="8.5" y="14.6" width="544.4" height="0.5"/>
<rect x="8.5" y="9.7" width="544.4" height="0.5"/>
<g>
	<path d="M20.3,29.6c-4.2,0-8.1-3.1-8.1-6.9c0-3.2,2.3-6.7,6.8-10.5c-0.3-1.2-0.4-2.4-0.4-3.6c0-3.5,1.2-6.8,3.2-8.5
		c1.8,2.5,2.7,4.9,2.7,7.1c0,2.9-1.3,5.6-4.3,8.1l0.9,4.2c0.5,0,0.8-0.1,0.8-0.1c2.6,0,4.8,2,4.8,4.7c0,1.9-1.4,3.7-3.6,4.8
		c0-0.1,0.9,3.8,0.9,4.3c0,2.5-2.3,4.2-4.9,4.2c-2,0-3.6-1.3-3.6-3.4c0-1.4,1-2.6,2.4-2.6c1.3,0,2.3,1.3,2.3,2.5
		c0,1.4-1.2,2.3-2.7,2.5c0.6,0.3,1.2,0.5,1.9,0.5c2.1,0,4.1-1.6,4.1-3.6c0-0.2,0-0.4-0.1-0.6l-0.8-3.7
		C21.9,29.5,21.2,29.6,20.3,29.6z M18.1,24.4c0,1,0.5,1.9,1.6,2.5c-1.8-0.3-3-1.4-3-3.1c0-2,1.7-3.7,3.8-4.1l-0.8-4
		C16,18.5,14,21.2,14,23.8c0,2.9,2.8,5.3,6,5.3c0.9,0,1.7-0.2,2.4-0.5L21,21.8C19.4,22,18.1,23,18.1,24.4z M22.1,3
		c-1.6,0-2.9,3.7-2.9,7c0,0.7,0,1.3,0.2,1.9c2.7-2.4,4-4.5,4-6.5c0-0.9-0.3-1.7-1-2.4C22.4,3.1,22.3,3,22.1,3z M24.9,24.9
		c0-1.6-1.2-3.3-2.9-3.3c-0.1,0-0.2,0-0.5,0l1.4,6.6C24.2,27.4,24.9,26.2,24.9,24.9z"/>
</g>
<g>
	<path d="M29.5,11.5h0.6L30,17.8c0.4-0.7,1-1,1.8-1c1.2,0,2.2,0.8,2.2,1.9c0,0.8-0.5,1.8-1.7,2.7l-2.8,2.1V11.5z M30.1,18.4
		C30,19.2,30,19.8,30,20.4c0,1,0,1.6,0.1,2c1-0.7,2.4-2.6,2.4-3.7c0-0.6-0.5-1.1-1.1-1.1C30.8,17.6,30.4,17.9,30.1,18.4z"/>
</g>
<g>
	<path d="M35.1,4.1h0.6l-0.1,6.2c0.4-0.7,1-1,1.8-1c1.2,0,2.2,0.8,2.2,1.9c0,0.8-0.5,1.8-1.7,2.7L35.1,16V4.1z M35.7,11
		c-0.1,0.8-0.1,1.4-0.1,1.9c0,1,0,1.6,0.1,2c1-0.7,2.4-2.6,2.4-3.7c0-0.6-0.5-1.1-1.1-1.1C36.4,10.2,36,10.4,35.7,11z"/>
</g>
<g>
	<path d="M40.7,14h0.6l-0.1,6.2c0.4-0.7,1-1,1.8-1c1.2,0,2.2,0.8,2.2,1.9c0,0.8-0.5,1.8-1.7,2.7L40.7,26V14z M41.3,20.9
		c-0.1,0.8-0.1,1.4-0.1,1.9c0,1,0,1.6,0.1,2c1-0.7,2.4-2.6,2.4-3.7c0-0.6-0.5-1.1-1.1-1.1C42,20.1,41.6,20.4,41.3,20.9z"/>
</g>
<g>
	<path d="M46.3,6.6h0.6l-0.1,6.2c0.4-0.7,1-1,1.8-1c1.2,0,2.2,0.8,2.2,1.9c0,0.8-0.5,1.8-1.7,2.7l-2.8,2.1V6.6z M46.9,13.5
		c-0.1,0.8-0.1,1.4-0.1,1.9c0,1,0,1.6,0.1,2c1-0.7,2.4-2.6,2.4-3.7c0-0.6-0.5-1.1-1.1-1.1C47.6,12.6,47.2,12.9,46.9,13.5z"/>
</g>
<g>
	<path d="M51.9,16.5h0.6l-0.1,6.2c0.4-0.7,1-1,1.8-1c1.2,0,2.2,0.8,2.2,1.9c0,0.8-0.5,1.8-1.7,2.7l-2.8,2.1V16.5z M52.4,23.4
		c-0.1,0.8-0.1,1.4-0.1,1.9c0,1,0,1.6,0.1,2c1-0.7,2.4-2.6,2.4-3.7c0-0.6-0.5-1.1-1.1-1.1C53.2,22.6,52.7,22.8,52.4,23.4z"/>
</g>
<g>
	<path d="M57.4,9h0.6l-0.1,6.2c0.4-0.7,1-1,1.8-1c1.2,0,2.2,0.8,2.2,1.9c0,0.8-0.5,1.8-1.7,2.7L57.4,21V9z M58,16
		c-0.1,0.8-0.1,1.4-0.1,1.9c0,1,0,1.6,0.1,2c1-0.7,2.4-2.6,2.4-3.7c0-0.6-0.5-1.1-1.1-1.1C58.7,15.1,58.3,15.4,58,16z"/>
</g>
<g>
	<path d="M63,19h0.6l-0.1,6.2c0.4-0.7,1-1,1.8-1c1.2,0,2.2,0.8,2.2,1.9c0,0.8-0.5,1.8-1.7,2.7L63,30.9V19z M63.6,25.9
		c-0.1,0.8-0.1,1.4-0.1,1.9c0,1,0,1.6,0.1,2c1-0.7,2.4-2.6,2.4-3.7c0-0.6-0.5-1.1-1.1-1.1C64.3,25,63.9,25.3,63.6,25.9z"/>
</g>
<polygon fill-rule="evenodd" clip-rule="evenodd" points="82.7,26 142.1,21.1 142.1,18.6 82.7,23.6 "/>
<polygon fill-rule="evenodd" clip-rule="evenodd" points="82.7,22.3 142.1,17.4 142.1,14.9 82.7,19.8 "/>
<polygon fill-rule="evenodd" clip-rule="evenodd" points="161.8,11.2 221.1,6.2 221.1,3.7 161.8,8.7 "/>
<polygon fill-rule="evenodd" clip-rule="evenodd" points="161.8,7.4 221.1,2.5 221.1,0 161.8,5 "/>
<polygon fill-rule="evenodd" clip-rule="evenodd" points="241,27.3 300.4,26 300.4,23.6 241,24.8 "/>
<polygon fill-rule="evenodd" clip-rule="evenodd" points="241,31 300.4,29.8 300.4,27.3 241,28.5 "/>
<polygon fill-rule="evenodd" clip-rule="evenodd" points="326.7,31 385.9,36 385.9,33.5 326.7,28.5 "/>
<polygon fill-rule="evenodd" clip-rule="evenodd" points="326.7,34.7 385.9,39.7 385.9,37.2 326.7,32.2 "/>
<polygon fill-rule="evenodd" clip-rule="evenodd" points="412.3,16.1 471.6,21.1 471.6,18.6 412.3,13.6 "/>
<polygon fill-rule="evenodd" clip-rule="evenodd" points="412.3,12.4 471.6,17.4 471.6,14.9 412.3,9.9 "/>
<rect x="8.5" y="76.7" width="544.4" height="0.5"/>
<rect x="8.5" y="71.7" width="544.4" height="0.5"/>
<rect x="8.5" y="66.7" width="544.4" height="0.5"/>
<rect x="8.5" y="61.8" width="544.4" height="0.5"/>
<rect x="8.5" y="56.8" width="544.4" height="0.5"/>
<g>
	<path d="M15.7,71.2c2.9-2.6,4.7-6.1,4.7-9.2c0-2.5-1.4-4.4-3.7-4.4c-1.6,0-3.4,1.3-3.4,2.7c0,0.2,0,0.3,0.1,0.3
		c-0.1,0,0.6-0.6,1.4-0.6c0.9,0,1.5,0.8,1.5,1.7c0,1.2-0.9,2.2-2.1,2.2c-1.2,0-2.1-1.3-2.1-2.8c0-2.3,2.3-4.1,4.8-4.1
		c4.7,0,5.9,3.2,5.9,5.8c0,1.6-0.4,2.9-2,5.3c-1.9,3.1-6.4,5.3-8.1,5.3c-0.4,0-0.6-0.2-0.6-0.5C13.8,72.5,14.9,71.9,15.7,71.2z
		 M25.7,58.5c0.6,0,1,0.4,1,1c0,0.6-0.4,1-1,1s-1-0.4-1-1C24.7,59,25.1,58.5,25.7,58.5z M25.7,63.5c0.6,0,1,0.4,1,1c0,0.6-0.4,1-1,1
		s-1-0.4-1-1C24.7,63.9,25.1,63.5,25.7,63.5z"/>
</g>
<g>
	<path d="M29.5,63.6h0.6L30,69.9c0.4-0.7,1-1,1.8-1c1.2,0,2.2,0.8,2.2,1.9c0,0.8-0.5,1.8-1.7,2.7l-2.8,2.1V63.6z M30.1,70.5
		C30,71.3,30,71.9,30,72.5c0,1,0,1.6,0.1,2c1-0.7,2.4-2.6,2.4-3.7c0-0.6-0.5-1.1-1.1-1.1C30.8,69.7,30.4,70,30.1,70.5z"/>
</g>
<g>
	<path d="M35.1,56.2h0.6l-0.1,6.2c0.4-0.7,1-1,1.8-1c1.2,0,2.2,0.8,2.2,1.9c0,0.8-0.5,1.8-1.7,2.7l-2.8,2.1V56.2z M35.7,63.1
		c-0.1,0.8-0.1,1.4-0.1,1.9c0,1,0,1.6,0.1,2c1-0.7,2.4-2.6,2.4-3.7c0-0.6-0.5-1.1-1.1-1.1C36.4,62.2,36,62.5,35.7,63.1z"/>
</g>
<g>
	<path d="M40.7,66.1h0.6l-0.1,6.2c0.4-0.7,1-1,1.8-1c1.2,0,2.2,0.8,2.2,1.9c0,0.8-0.5,1.8-1.7,2.7L40.7,78V66.1z M41.3,73
		c-0.1,0.8-0.1,1.4-0.1,1.9c0,1,0,1.6,0.1,2c1-0.7,2.4-2.6,2.4-3.7c0-0.6-0.5-1.1-1.1-1.1C42,72.2,41.6,72.4,41.3,73z"/>
</g>
<g>
	<path d="M46.3,58.7h0.6l-0.1,6.2c0.4-0.7,1-1,1.8-1c1.2,0,2.2,0.8,2.2,1.9c0,0.8-0.5,1.8-1.7,2.7l-2.8,2.1V58.7z M46.9,65.6
		c-0.1,0.8-0.1,1.4-0.1,1.9c0,1,0,1.6,0.1,2c1-0.7,2.4-2.6,2.4-3.7c0-0.6-0.5-1.1-1.1-1.1C47.6,64.7,47.2,65,46.9,65.6z"/>
</g>
<g>
	<path d="M51.9,68.6h0.6l-0.1,6.2c0.4-0.7,1-1,1.8-1c1.2,0,2.2,0.8,2.2,1.9c0,0.8-0.5,1.8-1.7,2.7l-2.8,2.1V68.6z M52.4,75.5
		c-0.1,0.8-0.1,1.4-0.1,1.9c0,1,0,1.6,0.1,2c1-0.7,2.4-2.6,2.4-3.7c0-0.6-0.5-1.1-1.1-1.1C53.2,74.6,52.7,74.9,52.4,75.5z"/>
</g>
<g>
	<path d="M57.4,61.1h0.6l-0.1,6.2c0.4-0.7,1-1,1.8-1c1.2,0,2.2,0.8,2.2,1.9c0,0.8-0.5,1.8-1.7,2.7l-2.8,2.1V61.1z M58,68
		c-0.1,0.8-0.1,1.4-0.1,1.9c0,1,0,1.6,0.1,2c1-0.7,2.4-2.6,2.4-3.7c0-0.6-0.5-1.1-1.1-1.1C58.7,67.2,58.3,67.5,58,68z"/>
</g>
<g>
	<path d="M63,71.1h0.6l-0.1,6.2c0.4-0.7,1-1,1.8-1c1.2,0,2.2,0.8,2.2,1.9c0,0.8-0.5,1.8-1.7,2.7L63,83V71.1z M63.6,78
		c-0.1,0.8-0.1,1.4-0.1,1.9c0,1,0,1.6,0.1,2c1-0.7,2.4-2.6,2.4-3.7c0-0.6-0.5-1.1-1.1-1.1C64.3,77.1,63.9,77.4,63.6,78z"/>
</g>
<polygon fill-rule="evenodd" clip-rule="evenodd" points="82.7,62 142.1,57 142.1,54.6 82.7,59.5 "/>
<polygon fill-rule="evenodd" clip-rule="evenodd" points="82.7,58.3 142.1,53.3 142.1,50.8 82.7,55.8 "/>
<g>
	<path d="M234.8,75.5c-3.2,0-6.1-2.3-6.1-5.1c0-2.4,1.7-5,5.1-7.9c-0.2-0.9-0.3-1.8-0.3-2.7c0-2.6,0.9-5.1,2.4-6.3
		c1.4,1.9,2,3.7,2,5.3c0,2.2-1,4.2-3.2,6.1l0.7,3.1c0.4,0,0.6,0,0.6,0c2,0,3.6,1.5,3.6,3.5c0,1.4-1.1,2.8-2.7,3.6
		c0-0.1,0.6,2.8,0.6,3.3c0,1.9-1.7,3.2-3.7,3.2c-1.5,0-2.7-1-2.7-2.5c0-1.1,0.7-1.9,1.8-1.9c1,0,1.7,1,1.7,1.9c0,1-0.9,1.7-2,1.8
		c0.4,0.2,0.9,0.3,1.4,0.3c1.6,0,3.1-1.2,3.1-2.7c0-0.1,0-0.3,0-0.5l-0.6-2.8C236,75.4,235.5,75.5,234.8,75.5z M233.2,71.6
		c0,0.8,0.4,1.4,1.2,1.9c-1.3-0.2-2.2-1.1-2.2-2.3c0-1.5,1.3-2.8,2.9-3.1l-0.6-3c-2.8,2.1-4.3,4.1-4.3,6.1c0,2.2,2.1,4,4.5,4
		c0.7,0,1.3-0.1,1.8-0.4l-1.1-5.1C234.1,69.8,233.2,70.6,233.2,71.6z M236.2,55.6c-1.2,0-2.2,2.8-2.2,5.3c0,0.5,0,1,0.1,1.4
		c2-1.8,3-3.4,3-4.9c0-0.7-0.3-1.3-0.7-1.8C236.4,55.6,236.3,55.6,236.2,55.6z M238.3,72c0-1.2-0.9-2.4-2.2-2.4c0,0-0.2,0-0.4,0
		l1.1,5C237.8,73.9,238.3,73,238.3,72z"/>
</g>
<polygon fill-rule="evenodd" clip-rule="evenodd" points="155.3,73.2 214.6,68.2 214.6,65.7 155.3,70.7 "/>
<polygon fill-rule="evenodd" clip-rule="evenodd" points="155.3,76.9 214.6,71.9 214.6,69.4 155.3,74.4 "/>
<g>
	<path d="M315.2,68.9c2.2-2,3.6-4.6,3.6-6.9c0-1.9-1.1-3.3-2.8-3.3c-1.2,0-2.5,1-2.5,2.1c0,0.2,0,0.2,0.1,0.2c0,0,0.4-0.5,1-0.5
		c0.7,0,1.2,0.6,1.2,1.3c0,0.9-0.6,1.7-1.6,1.7s-1.5-1-1.5-2.1c0-1.8,1.7-3.1,3.6-3.1c3.5,0,4.4,2.4,4.4,4.4c0,1.2-0.3,2.2-1.5,4
		c-1.4,2.3-4.8,4-6,4c-0.3,0-0.5-0.1-0.5-0.3C313.8,69.9,314.7,69.4,315.2,68.9z M322.7,59.4c0.4,0,0.7,0.3,0.7,0.7
		c0,0.4-0.3,0.7-0.7,0.7c-0.4,0-0.7-0.3-0.7-0.7C322,59.7,322.3,59.4,322.7,59.4z M322.7,63.1c0.4,0,0.7,0.3,0.7,0.7
		s-0.3,0.7-0.7,0.7c-0.4,0-0.7-0.3-0.7-0.7S322.3,63.1,322.7,63.1z"/>
</g>
<rect x="247.5" y="55.8" fill-rule="evenodd" clip-rule="evenodd" width="59.4" height="2.5"/>
<rect x="247.5" y="52.1" fill-rule="evenodd" clip-rule="evenodd" width="59.4" height="2.5"/>
<polygon fill-rule="evenodd" clip-rule="evenodd" points="326.7,63.2 385.9,68.2 385.9,65.7 326.7,60.8 "/>
<polygon fill-rule="evenodd" clip-rule="evenodd" points="326.7,67 385.9,71.9 385.9,69.4 326.7,64.5 "/>
<polygon fill-rule="evenodd" clip-rule="evenodd" points="405.8,78.1 465.1,83.1 465.1,80.6 405.8,75.6 "/>
<polygon fill-rule="evenodd" clip-rule="evenodd" points="405.8,81.8 465.1,86.8 465.1,84.3 405.8,79.4 "/>
<rect x="74.2" y="34.3" width="10.5" height="0.8"/>
<rect x="74.2" y="39.3" width="10.5" height="0.8"/>
<rect x="82.5" y="20" width="0.5" height="18.9"/>
<g>
	<path d="M76,40.5c0-1.8,2.5-3.5,4.5-3.5c1.3,0,2.3,0.7,2.3,1.7c0,1.7-2.5,3.5-4.6,3.5C77,42.3,76,41.6,76,40.5z"/>
</g>
<rect x="94" y="34.3" width="10.5" height="0.8"/>
<rect x="102.3" y="18.4" width="0.5" height="18"/>
<g>
	<path d="M95.9,38.1c0-1.8,2.5-3.5,4.5-3.5c1.3,0,2.3,0.7,2.3,1.7c0,1.7-2.5,3.5-4.6,3.5C96.9,39.8,95.9,39.1,95.9,38.1z"/>
</g>
<rect x="113.7" y="34.3" width="10.5" height="0.8"/>
<rect x="122" y="16.7" width="0.5" height="17.2"/>
<g>
	<path d="M115.6,35.6c0-1.8,2.5-3.5,4.5-3.5c1.3,0,2.3,0.7,2.3,1.7c0,1.7-2.5,3.5-4.6,3.5C116.5,37.3,115.6,36.7,115.6,35.6z"/>
</g>
<rect x="141.9" y="15" width="0.5" height="14"/>
<g>
	<path d="M135.4,30.6c0-1.8,2.5-3.5,4.5-3.5c1.3,0,2.3,0.7,2.3,1.7c0,1.7-2.5,3.5-4.6,3.5C136.4,32.3,135.4,31.7,135.4,30.6z"/>
</g>
<rect x="161.5" y="5.1" width="0.5" height="21.4"/>
<g>
	<path d="M155.1,28.1c0-1.8,2.5-3.5,4.5-3.5c1.3,0,2.3,0.7,2.3,1.7c0,1.7-2.5,3.5-4.6,3.5C156.1,29.9,155.1,29.2,155.1,28.1z"/>
</g>
<rect x="181.4" y="3.6" width="0.5" height="18"/>
<g>
	<path d="M174.9,23.2c0-1.8,2.5-3.5,4.5-3.5c1.3,0,2.3,0.7,2.3,1.7c0,1.7-2.5,3.5-4.6,3.5C175.9,24.9,174.9,24.3,174.9,23.2z"/>
</g>
<rect x="201.1" y="1.9" width="0.5" height="17.2"/>
<g>
	<path d="M194.6,20.7c0-1.8,2.5-3.5,4.5-3.5c1.3,0,2.3,0.7,2.3,1.7c0,1.7-2.5,3.5-4.6,3.5C195.6,22.4,194.6,21.8,194.6,20.7z"/>
</g>
<rect x="220.9" y="0.2" width="0.5" height="16.4"/>
<g>
	<path d="M214.5,18.2c0-1.8,2.5-3.5,4.5-3.5c1.3,0,2.3,0.7,2.3,1.7c0,1.7-2.5,3.5-4.6,3.5C215.4,19.9,214.5,19.3,214.5,18.2z"/>
</g>
<rect x="240.8" y="13.2" width="0.5" height="17.7"/>
<g>
	<path d="M240.8,13.3c0-1.8,2.5-3.5,4.5-3.5c1.3,0,2.3,0.7,2.3,1.7c0,1.7-2.5,3.5-4.6,3.5C241.8,15,240.8,14.3,240.8,13.3z"/>
</g>
<rect x="260.4" y="10.7" width="0.5" height="19.8"/>
<g>
	<path d="M260.5,10.8c0-1.8,2.5-3.5,4.5-3.5c1.3,0,2.3,0.7,2.3,1.7c0,1.7-2.5,3.5-4.6,3.5C261.5,12.5,260.5,11.9,260.5,10.8z"/>
</g>
<rect x="278.5" y="4.6" width="10.5" height="0.8"/>
<rect x="280.3" y="5.7" width="0.5" height="24.3"/>
<g>
	<path d="M280.4,5.8c0-1.8,2.5-3.5,4.5-3.5c1.3,0,2.3,0.7,2.3,1.7c0,1.7-2.5,3.5-4.6,3.5C281.3,7.5,280.4,6.9,280.4,5.8z"/>
</g>
<rect x="300.1" y="10.7" width="0.5" height="18.9"/>
<g>
	<path d="M300.2,10.8c0-1.8,2.5-3.5,4.5-3.5C306,7.3,307,8,307,9c0,1.7-2.5,3.5-4.6,3.5C301.2,12.5,300.2,11.9,300.2,10.8z"/>
</g>
<rect x="326.5" y="13.2" width="0.5" height="21.4"/>
<g>
	<path d="M326.6,13.3c0-1.8,2.5-3.5,4.5-3.5c1.3,0,2.3,0.7,2.3,1.7c0,1.7-2.5,3.5-4.6,3.5C327.5,15,326.6,14.3,326.6,13.3z"/>
</g>
<rect x="346.2" y="18.1" width="0.5" height="18"/>
<g>
	<path d="M346.2,18.2c0-1.8,2.5-3.5,4.5-3.5c1.3,0,2.3,0.7,2.3,1.7c0,1.7-2.5,3.5-4.6,3.5C347.2,19.9,346.2,19.3,346.2,18.2z"/>
</g>
<rect x="366" y="20.6" width="0.5" height="17.2"/>
<g>
	<path d="M366.1,20.7c0-1.8,2.5-3.5,4.5-3.5c1.3,0,2.3,0.7,2.3,1.7c0,1.7-2.5,3.5-4.6,3.5C367.1,22.4,366.1,21.8,366.1,20.7z"/>
</g>
<rect x="385.7" y="23.1" width="0.5" height="16.4"/>
<g>
	<path d="M385.8,23.2c0-1.8,2.5-3.5,4.5-3.5c1.3,0,2.3,0.7,2.3,1.7c0,1.7-2.5,3.5-4.6,3.5C386.7,24.9,385.8,24.3,385.8,23.2z"/>
</g>
<rect x="412" y="10.1" width="0.5" height="16.4"/>
<g>
	<path d="M405.6,28.1c0-1.8,2.5-3.5,4.5-3.5c1.3,0,2.3,0.7,2.3,1.7c0,1.7-2.5,3.5-4.6,3.5C406.6,29.9,405.6,29.2,405.6,28.1z"/>
</g>
<rect x="431.7" y="11.6" width="0.5" height="17.4"/>
<g>
	<path d="M425.3,30.6c0-1.8,2.5-3.5,4.5-3.5c1.3,0,2.3,0.7,2.3,1.7c0,1.7-2.5,3.5-4.6,3.5C426.3,32.3,425.3,31.7,425.3,30.6z"/>
</g>
<rect x="443.3" y="34.3" width="10.5" height="0.8"/>
<rect x="451.6" y="13.3" width="0.5" height="20.6"/>
<g>
	<path d="M445.1,35.6c0-1.8,2.5-3.5,4.5-3.5c1.3,0,2.3,0.7,2.3,1.7c0,1.7-2.5,3.5-4.6,3.5C446.1,37.3,445.1,36.7,445.1,35.6z"/>
</g>
<rect x="463.1" y="34.3" width="10.5" height="0.8"/>
<rect x="471.4" y="15" width="0.5" height="21.4"/>
<g>
	<path d="M465,38.1c0-1.8,2.5-3.5,4.5-3.5c1.3,0,2.3,0.7,2.3,1.7c0,1.7-2.5,3.5-4.6,3.5C466,39.8,465,39.1,465,38.1z"/>
</g>
<rect x="482.8" y="34.3" width="10.7" height="0.8"/>
<rect x="482.8" y="39.3" width="10.7" height="0.8"/>
<rect x="491.3" y="19.8" width="0.5" height="19.1"/>
<g>
	<path d="M488.9,37c1.6,0,2.7,0.7,2.7,2c0,1.9-2.3,3.4-4.5,3.4c-1.3,0-2.4-0.7-2.4-1.8C484.7,38.8,486.9,37,488.9,37z M485.1,40.8
		c0,0.6,0.4,0.9,1.1,0.9c1.4,0,4.9-2.1,4.9-3.3c0-0.6-0.4-0.9-1.1-0.9C488.8,37.6,485.1,39.6,485.1,40.8z"/>
</g>
<rect x="82.5" y="56" width="0.5" height="17.7"/>
<g>
	<path d="M76,75.3c0-1.8,2.5-3.5,4.5-3.5c1.3,0,2.3,0.7,2.3,1.7c0,1.7-2.5,3.5-4.6,3.5C77,77,76,76.3,76,75.3z"/>
</g>
<rect x="102.3" y="54.4" width="0.5" height="16.7"/>
<g>
	<path d="M95.9,72.8c0-1.8,2.5-3.5,4.5-3.5c1.3,0,2.3,0.7,2.3,1.7c0,1.7-2.5,3.5-4.6,3.5C96.9,74.5,95.9,73.9,95.9,72.8z"/>
</g>
<rect x="122" y="52.7" width="0.5" height="16"/>
<g>
	<path d="M115.6,70.3c0-1.8,2.5-3.5,4.5-3.5c1.3,0,2.3,0.7,2.3,1.7c0,1.7-2.5,3.5-4.6,3.5C116.5,72,115.6,71.4,115.6,70.3z"/>
</g>
<rect x="141.9" y="51" width="0.5" height="12.7"/>
<g>
	<path d="M135.4,65.3c0-1.8,2.5-3.5,4.5-3.5c1.3,0,2.3,0.7,2.3,1.7c0,1.7-2.5,3.5-4.6,3.5C136.4,67.1,135.4,66.4,135.4,65.3z"/>
</g>
<rect x="155" y="62.8" width="0.5" height="14"/>
<g>
	<path d="M155.1,62.9c0-1.8,2.5-3.5,4.5-3.5c1.3,0,2.3,0.7,2.3,1.7c0,1.7-2.5,3.5-4.6,3.5C156.1,64.6,155.1,63.9,155.1,62.9z"/>
</g>
<rect x="174.9" y="57.8" width="0.5" height="17.4"/>
<g>
	<path d="M174.9,57.9c0-1.8,2.5-3.5,4.5-3.5c1.3,0,2.3,0.7,2.3,1.7c0,1.7-2.5,3.5-4.6,3.5C175.9,59.6,174.9,59,174.9,57.9z"/>
</g>
<rect x="194.6" y="55.3" width="0.5" height="18.1"/>
<g>
	<path d="M194.6,55.4c0-1.8,2.5-3.5,4.5-3.5c1.3,0,2.3,0.7,2.3,1.7c0,1.7-2.5,3.5-4.6,3.5C195.6,57.1,194.6,56.5,194.6,55.4z"/>
</g>
<rect x="212.6" y="51.7" width="10.5" height="0.8"/>
<rect x="214.4" y="52.9" width="0.5" height="18.9"/>
<g>
	<path d="M214.5,52.9c0-1.8,2.5-3.5,4.5-3.5c1.3,0,2.3,0.7,2.3,1.7c0,1.7-2.5,3.5-4.6,3.5C215.4,54.7,214.5,54,214.5,52.9z"/>
</g>
<rect x="247.3" y="52.2" width="0.5" height="23.9"/>
<g>
	<path d="M240.8,77.7c0-1.8,2.5-3.5,4.5-3.5c1.3,0,2.3,0.7,2.3,1.7c0,1.7-2.5,3.5-4.6,3.5C241.8,79.5,240.8,78.8,240.8,77.7z"/>
</g>
<rect x="266.9" y="52.2" width="0.5" height="21.4"/>
<g>
	<path d="M260.5,75.3c0-1.8,2.5-3.5,4.5-3.5c1.3,0,2.3,0.7,2.3,1.7c0,1.7-2.5,3.5-4.6,3.5C261.5,77,260.5,76.3,260.5,75.3z"/>
</g>
<rect x="286.8" y="52.2" width="0.5" height="16.4"/>
<g>
	<path d="M280.4,70.3c0-1.8,2.5-3.5,4.5-3.5c1.3,0,2.3,0.7,2.3,1.7c0,1.7-2.5,3.5-4.6,3.5C281.3,72,280.4,71.4,280.4,70.3z"/>
</g>
<rect x="306.6" y="52.2" width="0.5" height="21.4"/>
<g>
	<path d="M300.2,75.3c0-1.8,2.5-3.5,4.5-3.5c1.3,0,2.3,0.7,2.3,1.7c0,1.7-2.5,3.5-4.6,3.5C301.2,77,300.2,76.3,300.2,75.3z"/>
</g>
<rect x="324.7" y="51.7" width="10.5" height="0.8"/>
<rect x="324.7" y="46.7" width="10.5" height="0.8"/>
<rect x="326.5" y="47.9" width="0.5" height="18.9"/>
<g>
	<path d="M326.6,48c0-1.8,2.5-3.5,4.5-3.5c1.3,0,2.3,0.7,2.3,1.7c0,1.7-2.5,3.5-4.6,3.5C327.5,49.7,326.6,49.1,326.6,48z"/>
</g>
<rect x="344.4" y="51.7" width="10.5" height="0.8"/>
<rect x="346.2" y="52.9" width="0.5" height="15.5"/>
<g>
	<path d="M346.2,52.9c0-1.8,2.5-3.5,4.5-3.5c1.3,0,2.3,0.7,2.3,1.7c0,1.7-2.5,3.5-4.6,3.5C347.2,54.7,346.2,54,346.2,52.9z"/>
</g>
<rect x="366" y="55.3" width="0.5" height="14.7"/>
<g>
	<path d="M366.1,55.4c0-1.8,2.5-3.5,4.5-3.5c1.3,0,2.3,0.7,2.3,1.7c0,1.7-2.5,3.5-4.6,3.5C367.1,57.1,366.1,56.5,366.1,55.4z"/>
</g>
<rect x="385.7" y="57.8" width="0.5" height="14"/>
<g>
	<path d="M385.8,57.9c0-1.8,2.5-3.5,4.5-3.5c1.3,0,2.3,0.7,2.3,1.7c0,1.7-2.5,3.5-4.6,3.5C386.7,59.6,385.8,59,385.8,57.9z"/>
</g>
<rect x="405.5" y="62.8" width="0.5" height="18.9"/>
<g>
	<path d="M405.6,62.9c0-1.8,2.5-3.5,4.5-3.5c1.3,0,2.3,0.7,2.3,1.7c0,1.7-2.5,3.5-4.6,3.5C406.6,64.6,405.6,63.9,405.6,62.9z"/>
</g>
<rect x="425.2" y="65.3" width="0.5" height="18"/>
<g>
	<path d="M425.3,65.3c0-1.8,2.5-3.5,4.5-3.5c1.3,0,2.3,0.7,2.3,1.7c0,1.7-2.5,3.5-4.6,3.5C426.3,67.1,425.3,66.4,425.3,65.3z"/>
</g>
<rect x="445.1" y="70.2" width="0.5" height="14.7"/>
<g>
	<path d="M445.1,70.3c0-1.8,2.5-3.5,4.5-3.5c1.3,0,2.3,0.7,2.3,1.7c0,1.7-2.5,3.5-4.6,3.5C446.1,72,445.1,71.4,445.1,70.3z"/>
</g>
<rect x="464.9" y="72.7" width="0.5" height="14"/>
<g>
	<path d="M465,72.8c0-1.8,2.5-3.5,4.5-3.5c1.3,0,2.3,0.7,2.3,1.7c0,1.7-2.5,3.5-4.6,3.5C466,74.5,465,73.9,465,72.8z"/>
</g>
<rect x="491.3" y="57" width="0.5" height="16.6"/>
<g>
	<path d="M488.9,71.7c1.6,0,2.7,0.7,2.7,2c0,1.9-2.3,3.4-4.5,3.4c-1.3,0-2.4-0.7-2.4-1.8C484.7,73.5,486.9,71.7,488.9,71.7z
		 M485.1,75.6c0,0.6,0.4,0.9,1.1,0.9c1.4,0,4.9-2.1,4.9-3.3c0-0.6-0.4-0.9-1.1-0.9C488.8,72.3,485.1,74.3,485.1,75.6z"/>
</g>
</svg>
