<?xml version="1.0" encoding="utf-8"?>
<!-- Generator: Adobe Illustrator 19.0.1, SVG Export Plug-In . SVG Version: 6.00 Build 0)  -->
<!DOCTYPE svg PUBLIC "-//W3C//DTD SVG 1.1//EN" "http://www.w3.org/Graphics/SVG/1.1/DTD/svg11.dtd">
<svg version="1.1" id="Layer_1" xmlns="http://www.w3.org/2000/svg" xmlns:xlink="http://www.w3.org/1999/xlink" x="0px" y="0px"
	 viewBox="0 0 552.9 87" enable-background="new 0 0 552.9 87" xml:space="preserve">
<rect x="8.4" y="10" width="0.8" height="67"/>
<g>
	<path d="M7.4,10.7c-1.9,1.1-3.6,5.8-3.6,9.4c0,2.3,1.4,9.9,1.4,12.3c0,5-1.5,8.6-4.6,11.1c3,2.4,4.6,6.1,4.6,11.1
		c0,2.3-1.4,9.9-1.4,12.3c0,3.8,1.7,8.4,3.6,9.5V77c-3.5-2.3-5.8-8.2-5.8-13.1c0-2.1,1.7-9.4,1.7-11.5c0-3.8-1-6.6-2.9-8.2
		C0.1,43.9,0,43.7,0,43.5c0-0.2,0.1-0.4,0.5-0.7c1.9-1.7,2.9-4.2,2.9-7.6c0-2.1-1.7-10-1.7-12.2c0-5.2,2.1-10.4,5.8-13.1V10.7z"/>
</g>
<rect x="547.8" y="10" width="0.8" height="67"/>
<rect x="550.4" y="10" width="2.5" height="67"/>
<rect x="8.5" y="29.6" width="544.4" height="0.5"/>
<rect x="8.5" y="24.7" width="544.4" height="0.5"/>
<rect x="8.5" y="19.7" width="544.4" height="0.5"/>
<rect x="8.5" y="14.8" width="544.4" height="0.5"/>
<rect x="8.5" y="9.8" width="544.4" height="0.5"/>
<g>
	<path d="M20.3,29.7c-4.2,0-8.1-3.1-8.1-6.9c0-3.2,2.3-6.7,6.8-10.5c-0.3-1.2-0.4-2.4-0.4-3.6c0-3.5,1.2-6.8,3.2-8.5
		c1.8,2.5,2.7,4.9,2.7,7.1c0,2.9-1.3,5.6-4.3,8.1l0.9,4.2c0.5,0,0.8-0.1,0.8-0.1c2.6,0,4.8,2,4.8,4.7c0,1.9-1.4,3.7-3.6,4.8
		c0-0.1,0.9,3.8,0.9,4.3c0,2.5-2.3,4.2-4.9,4.2c-2,0-3.6-1.3-3.6-3.4c0-1.4,1-2.6,2.4-2.6c1.3,0,2.3,1.3,2.3,2.5
		c0,1.4-1.2,2.3-2.7,2.5c0.6,0.3,1.2,0.5,1.9,0.5c2.1,0,4.1-1.6,4.1-3.6c0-0.2,0-0.4-0.1-0.6l-0.8-3.7
		C21.9,29.6,21.2,29.7,20.3,29.7z M18.1,24.5c0,1,0.5,1.9,1.6,2.5c-1.8-0.3-3-1.4-3-3.1c0-2,1.7-3.7,3.8-4.1l-0.8-4
		C16,18.6,14,21.3,14,23.9c0,2.9,2.8,5.3,6,5.3c0.9,0,1.7-0.2,2.4-0.5L21,21.9C19.4,22.1,18.1,23.1,18.1,24.5z M22.1,3.2
		c-1.6,0-2.9,3.7-2.9,7c0,0.7,0,1.3,0.2,1.9c2.7-2.4,4-4.5,4-6.5c0-0.9-0.3-1.7-1-2.4C22.4,3.2,22.3,3.2,22.1,3.2z M24.9,25
		c0-1.6-1.2-3.3-2.9-3.3c-0.1,0-0.2,0-0.5,0l1.4,6.6C24.2,27.5,24.9,26.3,24.9,25z"/>
</g>
<g>
	<path d="M29.5,11.6h0.6L30,17.9c0.4-0.7,1-1,1.8-1c1.2,0,2.2,0.8,2.2,1.9c0,0.8-0.5,1.8-1.7,2.7l-2.8,2.1V11.6z M30.1,18.6
		C30,19.3,30,20,30,20.5c0,1,0,1.6,0.1,2c1-0.7,2.4-2.6,2.4-3.7c0-0.6-0.5-1.1-1.1-1.1C30.8,17.7,30.4,18,30.1,18.6z"/>
</g>
<g>
	<path d="M35.1,4.2h0.6l-0.1,6.2c0.4-0.7,1-1,1.8-1c1.2,0,2.2,0.8,2.2,1.9c0,0.8-0.5,1.8-1.7,2.7l-2.8,2.1V4.2z M35.7,11.1
		c-0.1,0.8-0.1,1.4-0.1,1.9c0,1,0,1.6,0.1,2c1-0.7,2.4-2.6,2.4-3.7c0-0.6-0.5-1.1-1.1-1.1C36.4,10.3,36,10.6,35.7,11.1z"/>
</g>
<g>
	<path d="M40.7,14.1h0.6l-0.1,6.2c0.4-0.7,1-1,1.8-1c1.2,0,2.2,0.8,2.2,1.9c0,0.8-0.5,1.8-1.7,2.7l-2.8,2.1V14.1z M41.3,21
		c-0.1,0.8-0.1,1.4-0.1,1.9c0,1,0,1.6,0.1,2c1-0.7,2.4-2.6,2.4-3.7c0-0.6-0.5-1.1-1.1-1.1C42,20.2,41.6,20.5,41.3,21z"/>
</g>
<g>
	<path d="M46.3,6.7h0.6l-0.1,6.2c0.4-0.7,1-1,1.8-1c1.2,0,2.2,0.8,2.2,1.9c0,0.8-0.5,1.8-1.7,2.7l-2.8,2.1V6.7z M46.9,13.6
		c-0.1,0.8-0.1,1.4-0.1,1.9c0,1,0,1.6,0.1,2c1-0.7,2.4-2.6,2.4-3.7c0-0.6-0.5-1.1-1.1-1.1C47.6,12.8,47.2,13,46.9,13.6z"/>
</g>
<g>
	<path d="M51.9,16.6h0.6l-0.1,6.2c0.4-0.7,1-1,1.8-1c1.2,0,2.2,0.8,2.2,1.9c0,0.8-0.5,1.8-1.7,2.7l-2.8,2.1V16.6z M52.4,23.5
		c-0.1,0.8-0.1,1.4-0.1,1.9c0,1,0,1.6,0.1,2c1-0.7,2.4-2.6,2.4-3.7c0-0.6-0.5-1.1-1.1-1.1C53.2,22.7,52.7,23,52.4,23.5z"/>
</g>
<polygon fill-rule="evenodd" clip-rule="evenodd" points="71.6,21.2 132.5,16.2 132.5,13.8 71.6,18.7 "/>
<polygon fill-rule="evenodd" clip-rule="evenodd" points="71.6,17.5 132.5,12.5 132.5,10 71.6,15 "/>
<polygon fill-rule="evenodd" clip-rule="evenodd" points="146.3,36.1 207.2,31.1 207.2,28.6 146.3,33.6 "/>
<polygon fill-rule="evenodd" clip-rule="evenodd" points="146.3,39.8 207.2,34.8 207.2,32.4 146.3,37.3 "/>
<polygon fill-rule="evenodd" clip-rule="evenodd" points="233.5,22.4 294.5,21.2 294.5,18.7 233.5,20 "/>
<polygon fill-rule="evenodd" clip-rule="evenodd" points="233.5,26.2 294.5,24.9 294.5,22.4 233.5,23.7 "/>
<polygon fill-rule="evenodd" clip-rule="evenodd" points="314.8,26.2 375.7,31.1 375.7,28.6 314.8,23.7 "/>
<polygon fill-rule="evenodd" clip-rule="evenodd" points="314.8,29.9 375.7,34.8 375.7,32.4 314.8,27.4 "/>
<polygon fill-rule="evenodd" clip-rule="evenodd" points="408.6,16.2 469.5,21.2 469.5,18.7 408.6,13.8 "/>
<polygon fill-rule="evenodd" clip-rule="evenodd" points="408.6,12.5 469.5,17.5 469.5,15 408.6,10 "/>
<rect x="8.5" y="76.8" width="544.4" height="0.5"/>
<rect x="8.5" y="71.8" width="544.4" height="0.5"/>
<rect x="8.5" y="66.8" width="544.4" height="0.5"/>
<rect x="8.5" y="61.9" width="544.4" height="0.5"/>
<rect x="8.5" y="56.9" width="544.4" height="0.5"/>
<g>
	<path d="M15.7,71.3c2.9-2.6,4.7-6.1,4.7-9.2c0-2.5-1.4-4.4-3.7-4.4c-1.6,0-3.4,1.3-3.4,2.7c0,0.2,0,0.3,0.1,0.3
		c-0.1,0,0.6-0.6,1.4-0.6c0.9,0,1.5,0.8,1.5,1.7c0,1.2-0.9,2.2-2.1,2.2c-1.2,0-2.1-1.3-2.1-2.8c0-2.3,2.3-4.1,4.8-4.1
		c4.7,0,5.9,3.2,5.9,5.8c0,1.6-0.4,2.9-2,5.3c-1.9,3.1-6.4,5.3-8.1,5.3c-0.4,0-0.6-0.2-0.6-0.5C13.8,72.6,14.9,72,15.7,71.3z
		 M25.7,58.7c0.6,0,1,0.4,1,1c0,0.6-0.4,1-1,1s-1-0.4-1-1C24.7,59.1,25.1,58.7,25.7,58.7z M25.7,63.6c0.6,0,1,0.4,1,1
		c0,0.6-0.4,1-1,1s-1-0.4-1-1C24.7,64,25.1,63.6,25.7,63.6z"/>
</g>
<g>
	<path d="M29.5,63.7h0.6L30,70c0.4-0.7,1-1,1.8-1c1.2,0,2.2,0.8,2.2,1.9c0,0.8-0.5,1.8-1.7,2.7l-2.8,2.1V63.7z M30.1,70.6
		C30,71.4,30,72,30,72.6c0,1,0,1.6,0.1,2c1-0.7,2.4-2.6,2.4-3.7c0-0.6-0.5-1.1-1.1-1.1C30.8,69.8,30.4,70.1,30.1,70.6z"/>
</g>
<g>
	<path d="M35.1,56.3h0.6l-0.1,6.2c0.4-0.7,1-1,1.8-1c1.2,0,2.2,0.8,2.2,1.9c0,0.8-0.5,1.8-1.7,2.7l-2.8,2.1V56.3z M35.7,63.2
		c-0.1,0.8-0.1,1.4-0.1,1.9c0,1,0,1.6,0.1,2c1-0.7,2.4-2.6,2.4-3.7c0-0.6-0.5-1.1-1.1-1.1C36.4,62.4,36,62.6,35.7,63.2z"/>
</g>
<g>
	<path d="M40.7,66.2h0.6l-0.1,6.2c0.4-0.7,1-1,1.8-1c1.2,0,2.2,0.8,2.2,1.9c0,0.8-0.5,1.8-1.7,2.7l-2.8,2.1V66.2z M41.3,73.1
		c-0.1,0.8-0.1,1.4-0.1,1.9c0,1,0,1.6,0.1,2c1-0.7,2.4-2.6,2.4-3.7c0-0.6-0.5-1.1-1.1-1.1C42,72.3,41.6,72.6,41.3,73.1z"/>
</g>
<g>
	<path d="M46.3,58.8h0.6L46.8,65c0.4-0.7,1-1,1.8-1c1.2,0,2.2,0.8,2.2,1.9c0,0.8-0.5,1.8-1.7,2.7l-2.8,2.1V58.8z M46.9,65.7
		c-0.1,0.8-0.1,1.4-0.1,1.9c0,1,0,1.6,0.1,2c1-0.7,2.4-2.6,2.4-3.7c0-0.6-0.5-1.1-1.1-1.1C47.6,64.8,47.2,65.1,46.9,65.7z"/>
</g>
<g>
	<path d="M51.9,68.7h0.6l-0.1,6.2c0.4-0.7,1-1,1.8-1c1.2,0,2.2,0.8,2.2,1.9c0,0.8-0.5,1.8-1.7,2.7l-2.8,2.1V68.7z M52.4,75.6
		c-0.1,0.8-0.1,1.4-0.1,1.9c0,1,0,1.6,0.1,2c1-0.7,2.4-2.6,2.4-3.7c0-0.6-0.5-1.1-1.1-1.1C53.2,74.8,52.7,75,52.4,75.6z"/>
</g>
<polygon fill-rule="evenodd" clip-rule="evenodd" points="71.6,58.4 132.5,53.4 132.5,51 71.6,55.9 "/>
<polygon fill-rule="evenodd" clip-rule="evenodd" points="71.6,54.7 132.5,49.7 132.5,47.2 71.6,52.2 "/>
<g>
	<path d="M227.4,75.6c-3.2,0-6.1-2.3-6.1-5.1c0-2.4,1.7-5,5.1-7.9c-0.2-0.9-0.3-1.8-0.3-2.7c0-2.6,0.9-5.1,2.4-6.3
		c1.4,1.9,2,3.7,2,5.3c0,2.2-1,4.2-3.2,6.1l0.7,3.1c0.4,0,0.6,0,0.6,0c2,0,3.6,1.5,3.6,3.5c0,1.4-1.1,2.8-2.7,3.6
		c0-0.1,0.6,2.8,0.6,3.3c0,1.9-1.7,3.2-3.7,3.2c-1.5,0-2.7-1-2.7-2.5c0-1.1,0.7-1.9,1.8-1.9c1,0,1.7,1,1.7,1.9c0,1-0.9,1.7-2,1.8
		c0.4,0.2,0.9,0.3,1.4,0.3c1.6,0,3.1-1.2,3.1-2.7c0-0.1,0-0.3,0-0.5l-0.6-2.8C228.6,75.5,228.1,75.6,227.4,75.6z M225.7,71.7
		c0,0.8,0.4,1.4,1.2,1.9c-1.3-0.2-2.2-1.1-2.2-2.3c0-1.5,1.3-2.8,2.9-3.1l-0.6-3c-2.8,2.1-4.3,4.1-4.3,6.1c0,2.2,2.1,4,4.5,4
		c0.7,0,1.3-0.1,1.8-0.4l-1.1-5.1C226.7,69.9,225.7,70.7,225.7,71.7z M228.8,55.7c-1.2,0-2.2,2.8-2.2,5.3c0,0.5,0,1,0.1,1.4
		c2-1.8,3-3.4,3-4.9c0-0.7-0.3-1.3-0.7-1.8C229,55.7,228.9,55.7,228.8,55.7z M230.8,72.1c0-1.2-0.9-2.4-2.2-2.4c0,0-0.2,0-0.4,0
		l1.1,5C230.3,74,230.8,73.1,230.8,72.1z"/>
</g>
<polygon fill-rule="evenodd" clip-rule="evenodd" points="146.3,73.3 207.2,68.3 207.2,65.8 146.3,70.8 "/>
<polygon fill-rule="evenodd" clip-rule="evenodd" points="146.3,77 207.2,72 207.2,69.6 146.3,74.5 "/>
<rect x="240.1" y="54.7" fill-rule="evenodd" clip-rule="evenodd" width="60.9" height="2.5"/>
<rect x="240.1" y="51" fill-rule="evenodd" clip-rule="evenodd" width="60.9" height="2.5"/>
<g>
	<path d="M392.4,69c2.2-2,3.6-4.6,3.6-6.9c0-1.9-1.1-3.3-2.8-3.3c-1.2,0-2.5,1-2.5,2.1c0,0.2,0,0.2,0.1,0.2c0,0,0.4-0.5,1-0.5
		c0.7,0,1.2,0.6,1.2,1.3c0,0.9-0.6,1.7-1.6,1.7s-1.5-1-1.5-2.1c0-1.8,1.7-3.1,3.6-3.1c3.5,0,4.4,2.4,4.4,4.4c0,1.2-0.3,2.2-1.5,4
		c-1.4,2.3-4.8,4-6,4c-0.3,0-0.5-0.1-0.5-0.3C391,70,391.9,69.6,392.4,69z M399.9,59.5c0.4,0,0.7,0.3,0.7,0.7c0,0.4-0.3,0.7-0.7,0.7
		c-0.4,0-0.7-0.3-0.7-0.7C399.2,59.8,399.5,59.5,399.9,59.5z M399.9,63.2c0.4,0,0.7,0.3,0.7,0.7s-0.3,0.7-0.7,0.7
		c-0.4,0-0.7-0.3-0.7-0.7S399.5,63.2,399.9,63.2z"/>
</g>
<polygon fill-rule="evenodd" clip-rule="evenodd" points="321.3,63.4 382.2,68.3 382.2,65.8 321.3,60.9 "/>
<polygon fill-rule="evenodd" clip-rule="evenodd" points="321.3,59.6 382.2,64.6 382.2,62.1 321.3,57.2 "/>
<polygon fill-rule="evenodd" clip-rule="evenodd" points="402,78.2 463,83.2 463,80.7 402,75.8 "/>
<polygon fill-rule="evenodd" clip-rule="evenodd" points="402,82 463,86.9 463,84.4 402,79.5 "/>
<rect x="63" y="34.5" width="10.5" height="0.8"/>
<rect x="71.3" y="15.2" width="0.5" height="21.4"/>
<g>
	<path d="M64.9,38.2c0-1.8,2.5-3.5,4.5-3.5c1.3,0,2.3,0.7,2.3,1.7c0,1.7-2.5,3.5-4.6,3.5C65.9,39.9,64.9,39.3,64.9,38.2z"/>
</g>
<rect x="83.3" y="34.5" width="10.5" height="0.8"/>
<rect x="91.6" y="13.6" width="0.5" height="20.5"/>
<g>
	<path d="M85.2,35.7c0-1.8,2.5-3.5,4.5-3.5c1.3,0,2.3,0.7,2.3,1.7c0,1.7-2.5,3.5-4.6,3.5C86.2,37.4,85.2,36.8,85.2,35.7z"/>
</g>
<rect x="111.9" y="11.9" width="0.5" height="19.7"/>
<g>
	<path d="M105.5,33.2c0-1.8,2.5-3.5,4.5-3.5c1.3,0,2.3,0.7,2.3,1.7c0,1.7-2.5,3.5-4.6,3.5C106.5,34.9,105.5,34.3,105.5,33.2z"/>
</g>
<rect x="132.2" y="10.2" width="0.5" height="16.4"/>
<g>
	<path d="M125.8,28.3c0-1.8,2.5-3.5,4.5-3.5c1.3,0,2.3,0.7,2.3,1.7c0,1.7-2.5,3.5-4.6,3.5C126.8,30,125.8,29.3,125.8,28.3z"/>
</g>
<rect x="146" y="25.7" width="0.5" height="14"/>
<g>
	<path d="M146.1,25.8c0-1.8,2.5-3.5,4.5-3.5c1.3,0,2.3,0.7,2.3,1.7c0,1.7-2.5,3.5-4.6,3.5C147.1,27.5,146.1,26.9,146.1,25.8z"/>
</g>
<rect x="166.3" y="20.7" width="0.5" height="17.4"/>
<g>
	<path d="M166.4,20.8c0-1.8,2.5-3.5,4.5-3.5c1.3,0,2.3,0.7,2.3,1.7c0,1.7-2.5,3.5-4.6,3.5C167.4,22.5,166.4,21.9,166.4,20.8z"/>
</g>
<rect x="186.6" y="18.3" width="0.5" height="18.1"/>
<g>
	<path d="M186.7,18.3c0-1.8,2.5-3.5,4.5-3.5c1.3,0,2.3,0.7,2.3,1.7c0,1.7-2.5,3.5-4.6,3.5C187.7,20.1,186.7,19.4,186.7,18.3z"/>
</g>
<rect x="207" y="15.8" width="0.5" height="18.9"/>
<g>
	<path d="M207,15.9c0-1.8,2.5-3.5,4.5-3.5c1.3,0,2.3,0.7,2.3,1.7c0,1.7-2.5,3.5-4.6,3.5C208,17.6,207,16.9,207,15.9z"/>
</g>
<rect x="233.3" y="10.8" width="0.5" height="15.2"/>
<g>
	<path d="M233.4,10.9c0-1.8,2.5-3.5,4.5-3.5c1.3,0,2.3,0.7,2.3,1.7c0,1.7-2.5,3.5-4.6,3.5C234.4,12.6,233.4,12,233.4,10.9z"/>
</g>
<rect x="253.6" y="8.3" width="0.5" height="17.4"/>
<g>
	<path d="M253.7,8.4c0-1.8,2.5-3.5,4.5-3.5c1.3,0,2.3,0.7,2.3,1.7c0,1.7-2.5,3.5-4.6,3.5C254.7,10.1,253.7,9.5,253.7,8.4z"/>
</g>
<rect x="272.1" y="4.7" width="10.5" height="0.8"/>
<rect x="273.9" y="3.4" width="0.5" height="21.9"/>
<g>
	<path d="M274,3.5c0-1.8,2.5-3.5,4.5-3.5c1.3,0,2.3,0.7,2.3,1.7c0,1.7-2.5,3.5-4.6,3.5C275,5.2,274,4.5,274,3.5z"/>
</g>
<rect x="294.2" y="8.3" width="0.5" height="16.4"/>
<g>
	<path d="M294.3,8.4c0-1.8,2.5-3.5,4.5-3.5c1.3,0,2.3,0.7,2.3,1.7c0,1.7-2.5,3.5-4.6,3.5C295.3,10.1,294.3,9.5,294.3,8.4z"/>
</g>
<rect x="314.5" y="10.8" width="0.5" height="18.9"/>
<g>
	<path d="M314.6,10.9c0-1.8,2.5-3.5,4.5-3.5c1.3,0,2.3,0.7,2.3,1.7c0,1.7-2.5,3.5-4.6,3.5C315.6,12.6,314.6,12,314.6,10.9z"/>
</g>
<rect x="334.8" y="15.8" width="0.5" height="15.5"/>
<g>
	<path d="M334.9,15.9c0-1.8,2.5-3.5,4.5-3.5c1.3,0,2.3,0.7,2.3,1.7c0,1.7-2.5,3.5-4.6,3.5C335.9,17.6,334.9,16.9,334.9,15.9z"/>
</g>
<rect x="355.2" y="18.3" width="0.5" height="14.7"/>
<g>
	<path d="M355.2,18.3c0-1.8,2.5-3.5,4.5-3.5c1.3,0,2.3,0.7,2.3,1.7c0,1.7-2.5,3.5-4.6,3.5C356.2,20.1,355.2,19.4,355.2,18.3z"/>
</g>
<rect x="375.5" y="20.7" width="0.5" height="14"/>
<g>
	<path d="M375.5,20.8c0-1.8,2.5-3.5,4.5-3.5c1.3,0,2.3,0.7,2.3,1.7c0,1.7-2.5,3.5-4.6,3.5C376.5,22.5,375.5,21.9,375.5,20.8z"/>
</g>
<rect x="408.3" y="10.2" width="0.5" height="14"/>
<g>
	<path d="M401.9,25.8c0-1.8,2.5-3.5,4.5-3.5c1.3,0,2.3,0.7,2.3,1.7c0,1.7-2.5,3.5-4.6,3.5C402.9,27.5,401.9,26.9,401.9,25.8z"/>
</g>
<rect x="428.6" y="11.7" width="0.5" height="14.9"/>
<g>
	<path d="M422.2,28.3c0-1.8,2.5-3.5,4.5-3.5c1.3,0,2.3,0.7,2.3,1.7c0,1.7-2.5,3.5-4.6,3.5C423.2,30,422.2,29.3,422.2,28.3z"/>
</g>
<rect x="448.9" y="13.4" width="0.5" height="18.1"/>
<g>
	<path d="M442.5,33.2c0-1.8,2.5-3.5,4.5-3.5c1.3,0,2.3,0.7,2.3,1.7c0,1.7-2.5,3.5-4.6,3.5C443.5,34.9,442.5,34.3,442.5,33.2z"/>
</g>
<rect x="460.9" y="34.5" width="10.5" height="0.8"/>
<rect x="469.2" y="15.2" width="0.5" height="18.9"/>
<g>
	<path d="M462.8,35.7c0-1.8,2.5-3.5,4.5-3.5c1.3,0,2.3,0.7,2.3,1.7c0,1.7-2.5,3.5-4.6,3.5C463.8,37.4,462.8,36.8,462.8,35.7z"/>
</g>
<rect x="481.3" y="34.5" width="10.7" height="0.8"/>
<rect x="489.7" y="20" width="0.5" height="16.6"/>
<g>
	<path d="M487.4,34.6c1.6,0,2.7,0.7,2.7,2c0,1.9-2.3,3.4-4.5,3.4c-1.3,0-2.4-0.7-2.4-1.8C483.1,36.4,485.4,34.6,487.4,34.6z
		 M483.6,38.5c0,0.6,0.4,0.9,1.1,0.9c1.4,0,4.9-2.1,4.9-3.3c0-0.6-0.4-0.9-1.1-0.9C487.2,35.2,483.6,37.2,483.6,38.5z"/>
</g>
<rect x="71.3" y="52.4" width="0.5" height="18.9"/>
<g>
	<path d="M64.9,72.9c0-1.8,2.5-3.5,4.5-3.5c1.3,0,2.3,0.7,2.3,1.7c0,1.7-2.5,3.5-4.6,3.5C65.9,74.6,64.9,74,64.9,72.9z"/>
</g>
<rect x="91.6" y="50.8" width="0.5" height="18"/>
<g>
	<path d="M85.2,70.4c0-1.8,2.5-3.5,4.5-3.5c1.3,0,2.3,0.7,2.3,1.7c0,1.7-2.5,3.5-4.6,3.5C86.2,72.1,85.2,71.5,85.2,70.4z"/>
</g>
<rect x="111.9" y="49.1" width="0.5" height="17.2"/>
<g>
	<path d="M105.5,67.9c0-1.8,2.5-3.5,4.5-3.5c1.3,0,2.3,0.7,2.3,1.7c0,1.7-2.5,3.5-4.6,3.5C106.5,69.7,105.5,69,105.5,67.9z"/>
</g>
<rect x="132.2" y="47.4" width="0.5" height="14"/>
<g>
	<path d="M125.8,63c0-1.8,2.5-3.5,4.5-3.5c1.3,0,2.3,0.7,2.3,1.7c0,1.7-2.5,3.5-4.6,3.5C126.8,64.7,125.8,64.1,125.8,63z"/>
</g>
<rect x="146" y="60.4" width="0.5" height="16.4"/>
<g>
	<path d="M146.1,60.5c0-1.8,2.5-3.5,4.5-3.5c1.3,0,2.3,0.7,2.3,1.7c0,1.7-2.5,3.5-4.6,3.5C147.1,62.2,146.1,61.6,146.1,60.5z"/>
</g>
<rect x="166.3" y="55.5" width="0.5" height="19.8"/>
<g>
	<path d="M166.4,55.5c0-1.8,2.5-3.5,4.5-3.5c1.3,0,2.3,0.7,2.3,1.7c0,1.7-2.5,3.5-4.6,3.5C167.4,57.3,166.4,56.6,166.4,55.5z"/>
</g>
<rect x="184.9" y="51.8" width="10.5" height="0.8"/>
<rect x="186.6" y="53" width="0.5" height="20.6"/>
<g>
	<path d="M186.7,53.1c0-1.8,2.5-3.5,4.5-3.5c1.3,0,2.3,0.7,2.3,1.7c0,1.7-2.5,3.5-4.6,3.5C187.7,54.8,186.7,54.1,186.7,53.1z"/>
</g>
<rect x="205.2" y="51.8" width="10.5" height="0.8"/>
<rect x="207" y="50.5" width="0.5" height="21.4"/>
<g>
	<path d="M207,50.6c0-1.8,2.5-3.5,4.5-3.5c1.3,0,2.3,0.7,2.3,1.7c0,1.7-2.5,3.5-4.6,3.5C208,52.3,207,51.7,207,50.6z"/>
</g>
<rect x="239.8" y="51.1" width="0.5" height="22.6"/>
<g>
	<path d="M233.4,75.4c0-1.8,2.5-3.5,4.5-3.5c1.3,0,2.3,0.7,2.3,1.7c0,1.7-2.5,3.5-4.6,3.5C234.4,77.1,233.4,76.5,233.4,75.4z"/>
</g>
<rect x="260.1" y="51.1" width="0.5" height="20.2"/>
<g>
	<path d="M253.7,72.9c0-1.8,2.5-3.5,4.5-3.5c1.3,0,2.3,0.7,2.3,1.7c0,1.7-2.5,3.5-4.6,3.5C254.7,74.6,253.7,74,253.7,72.9z"/>
</g>
<rect x="280.4" y="51.1" width="0.5" height="15.2"/>
<g>
	<path d="M274,67.9c0-1.8,2.5-3.5,4.5-3.5c1.3,0,2.3,0.7,2.3,1.7c0,1.7-2.5,3.5-4.6,3.5C275,69.7,274,69,274,67.9z"/>
</g>
<rect x="300.7" y="51.1" width="0.5" height="20.2"/>
<g>
	<path d="M294.3,72.9c0-1.8,2.5-3.5,4.5-3.5c1.3,0,2.3,0.7,2.3,1.7c0,1.7-2.5,3.5-4.6,3.5C295.3,74.6,294.3,74,294.3,72.9z"/>
</g>
<rect x="321" y="57.3" width="0.5" height="16.4"/>
<g>
	<path d="M314.6,75.4c0-1.8,2.5-3.5,4.5-3.5c1.3,0,2.3,0.7,2.3,1.7c0,1.7-2.5,3.5-4.6,3.5C315.6,77.1,314.6,76.5,314.6,75.4z"/>
</g>
<rect x="341.4" y="58.9" width="0.5" height="19.8"/>
<g>
	<path d="M334.9,80.3c0-1.8,2.5-3.5,4.5-3.5c1.3,0,2.3,0.7,2.3,1.7c0,1.7-2.5,3.5-4.6,3.5C335.9,82.1,334.9,81.4,334.9,80.3z"/>
</g>
<rect x="353.4" y="81.6" width="10.5" height="0.8"/>
<rect x="361.7" y="60.6" width="0.5" height="20.6"/>
<g>
	<path d="M355.2,82.8c0-1.8,2.5-3.5,4.5-3.5c1.3,0,2.3,0.7,2.3,1.7c0,1.7-2.5,3.5-4.6,3.5C356.2,84.5,355.2,83.9,355.2,82.8z"/>
</g>
<rect x="373.7" y="81.6" width="10.5" height="0.8"/>
<rect x="382" y="62.3" width="0.5" height="21.4"/>
<g>
	<path d="M375.5,85.3c0-1.8,2.5-3.5,4.5-3.5c1.3,0,2.3,0.7,2.3,1.7c0,1.7-2.5,3.5-4.6,3.5C376.5,87,375.5,86.4,375.5,85.3z"/>
</g>
<rect x="401.8" y="60.4" width="0.5" height="21.4"/>
<g>
	<path d="M401.9,60.5c0-1.8,2.5-3.5,4.5-3.5c1.3,0,2.3,0.7,2.3,1.7c0,1.7-2.5,3.5-4.6,3.5C402.9,62.2,401.9,61.6,401.9,60.5z"/>
</g>
<rect x="422.1" y="62.9" width="0.5" height="20.5"/>
<g>
	<path d="M422.2,63c0-1.8,2.5-3.5,4.5-3.5c1.3,0,2.3,0.7,2.3,1.7c0,1.7-2.5,3.5-4.6,3.5C423.2,64.7,422.2,64.1,422.2,63z"/>
</g>
<rect x="442.4" y="67.9" width="0.5" height="17.2"/>
<g>
	<path d="M442.5,67.9c0-1.8,2.5-3.5,4.5-3.5c1.3,0,2.3,0.7,2.3,1.7c0,1.7-2.5,3.5-4.6,3.5C443.5,69.7,442.5,69,442.5,67.9z"/>
</g>
<rect x="462.7" y="70.3" width="0.5" height="16.4"/>
<g>
	<path d="M462.8,70.4c0-1.8,2.5-3.5,4.5-3.5c1.3,0,2.3,0.7,2.3,1.7c0,1.7-2.5,3.5-4.6,3.5C463.8,72.1,462.8,71.5,462.8,70.4z"/>
</g>
<rect x="489.7" y="54.7" width="0.5" height="16.6"/>
<g>
	<path d="M487.4,69.3c1.6,0,2.7,0.7,2.7,2c0,1.9-2.3,3.4-4.5,3.4c-1.3,0-2.4-0.7-2.4-1.8C483.1,71.1,485.4,69.3,487.4,69.3z
		 M483.6,73.2c0,0.6,0.4,0.9,1.1,0.9c1.4,0,4.9-2.1,4.9-3.3c0-0.6-0.4-0.9-1.1-0.9C487.2,69.9,483.6,72,483.6,73.2z"/>
</g>
</svg>
