<?xml version="1.0" encoding="utf-8"?>
<!-- Generator: Adobe Illustrator 19.0.1, SVG Export Plug-In . SVG Version: 6.00 Build 0)  -->
<!DOCTYPE svg PUBLIC "-//W3C//DTD SVG 1.1//EN" "http://www.w3.org/Graphics/SVG/1.1/DTD/svg11.dtd">
<svg version="1.1" id="Layer_1" xmlns="http://www.w3.org/2000/svg" xmlns:xlink="http://www.w3.org/1999/xlink" x="0px" y="0px"
	 viewBox="0 0 552.9 92" enable-background="new 0 0 552.9 92" xml:space="preserve">
<rect x="8.4" y="15" width="0.8" height="67"/>
<g>
	<path d="M7.4,15.7c-1.9,1.1-3.6,5.8-3.6,9.4c0,2.3,1.4,9.9,1.4,12.3c0,5-1.5,8.6-4.6,11.1c3,2.4,4.6,6.1,4.6,11.1
		c0,2.3-1.4,9.9-1.4,12.3c0,3.8,1.7,8.4,3.6,9.5V82c-3.5-2.3-5.8-8.2-5.8-13.1c0-2.1,1.7-9.4,1.7-11.5c0-3.8-1-6.6-2.9-8.2
		C0.1,48.9,0,48.7,0,48.5c0-0.2,0.1-0.4,0.5-0.7c1.9-1.7,2.9-4.2,2.9-7.6c0-2.1-1.7-10-1.7-12.2c0-5.2,2.1-10.4,5.8-13.1V15.7z"/>
</g>
<rect x="547.8" y="15" width="0.8" height="67"/>
<rect x="550.4" y="15" width="2.5" height="67"/>
<rect x="8.5" y="34.6" width="544.4" height="0.5"/>
<rect x="8.5" y="29.6" width="544.4" height="0.5"/>
<rect x="8.5" y="24.7" width="544.4" height="0.5"/>
<rect x="8.5" y="19.7" width="544.4" height="0.5"/>
<rect x="8.5" y="14.8" width="544.4" height="0.5"/>
<g>
	<path d="M20.3,34.7c-4.2,0-8.1-3.1-8.1-6.9c0-3.2,2.3-6.7,6.8-10.5c-0.3-1.2-0.4-2.4-0.4-3.6c0-3.5,1.2-6.8,3.2-8.5
		c1.8,2.5,2.7,4.9,2.7,7.1c0,2.9-1.3,5.6-4.3,8.1l0.9,4.2c0.5,0,0.8-0.1,0.8-0.1c2.6,0,4.8,2,4.8,4.7c0,1.9-1.4,3.7-3.6,4.8
		c0-0.1,0.9,3.8,0.9,4.3c0,2.5-2.3,4.2-4.9,4.2c-2,0-3.6-1.3-3.6-3.4c0-1.4,1-2.6,2.4-2.6c1.3,0,2.3,1.3,2.3,2.5
		c0,1.4-1.2,2.3-2.7,2.5c0.6,0.3,1.2,0.5,1.9,0.5c2.1,0,4.1-1.6,4.1-3.6c0-0.2,0-0.4-0.1-0.6l-0.8-3.7
		C21.9,34.5,21.2,34.7,20.3,34.7z M18.1,29.5c0,1,0.5,1.9,1.6,2.5c-1.8-0.3-3-1.4-3-3.1c0-2,1.7-3.7,3.8-4.1l-0.8-4
		C16,23.6,14,26.3,14,28.9c0,2.9,2.8,5.3,6,5.3c0.9,0,1.7-0.2,2.4-0.5L21,26.9C19.4,27.1,18.1,28.1,18.1,29.5z M22.1,8.1
		c-1.6,0-2.9,3.7-2.9,7c0,0.7,0,1.3,0.2,1.9c2.7-2.4,4-4.5,4-6.5c0-0.9-0.3-1.7-1-2.4C22.4,8.1,22.3,8.1,22.1,8.1z M24.9,30
		c0-1.6-1.2-3.3-2.9-3.3c-0.1,0-0.2,0-0.5,0l1.4,6.6C24.2,32.5,24.9,31.3,24.9,30z"/>
</g>
<g>
	<path d="M33.5,8.2V11l1-0.3v1.8l-1,0.3v3.4l1-0.3v1.8l-1,0.3v3.1H33v-3l-1.9,0.6v3h-0.5V19l-1,0.3v-1.8l1-0.3v-3.4l-1,0.3v-1.8
		l1-0.3V8.8h0.5v3l1.9-0.6v-3H33.5z M33,13l-1.9,0.6V17l1.9-0.6V13z"/>
</g>
<g>
	<path d="M39.7,15.6v2.8l1-0.3v1.8l-1,0.3v3.4l1-0.3v1.8l-1,0.3v3.1h-0.5v-3l-1.9,0.6v3h-0.5v-2.8l-1,0.3v-1.8l1-0.3v-3.4l-1,0.3
		v-1.8l1-0.3v-3.1h0.5v3l1.9-0.6v-3H39.7z M39.2,20.4L37.3,21v3.4l1.9-0.6V20.4z"/>
</g>
<g>
	<path d="M45.9,5.7v2.8l1-0.3V10l-1,0.3v3.4l1-0.3v1.8l-1,0.3v3.1h-0.5v-3l-1.9,0.6v3H43v-2.8l-1,0.3V15l1-0.3v-3.4l-1,0.3V9.8
		l1-0.3V6.3h0.5v3l1.9-0.6v-3H45.9z M45.4,10.5l-1.9,0.6v3.4l1.9-0.6V10.5z"/>
</g>
<g>
	<path d="M52.1,13.1V16l1-0.3v1.8l-1,0.3v3.4l1-0.3v1.8l-1,0.3v3.1h-0.5v-3l-1.9,0.6v3h-0.5v-2.8l-1,0.3v-1.8l1-0.3v-3.4l-1,0.3
		v-1.8l1-0.3v-3.1h0.5v3l1.9-0.6v-3H52.1z M51.6,17.9l-1.9,0.6V22l1.9-0.6V17.9z"/>
</g>
<g>
	<path d="M58.3,20.6v2.8l1-0.3v1.8l-1,0.3v3.4l1-0.3v1.8l-1,0.3v3.1h-0.5v-3l-1.9,0.6v3h-0.5v-2.8l-1,0.3v-1.8l1-0.3v-3.4l-1,0.3
		v-1.8l1-0.3v-3.1h0.5v3l1.9-0.6v-3H58.3z M57.8,25.4L55.9,26v3.4l1.9-0.6V25.4z"/>
</g>
<g>
	<path d="M64.5,10.7v2.8l1-0.3V15l-1,0.3v3.4l1-0.3v1.8l-1,0.3v3.1H64v-3l-1.9,0.6v3h-0.5v-2.8l-1,0.3V20l1-0.3v-3.4l-1,0.3v-1.8
		l1-0.3v-3.1h0.5v3l1.9-0.6v-3H64.5z M64,15.4l-1.9,0.6v3.4l1.9-0.6V15.4z"/>
</g>
<polygon fill-rule="evenodd" clip-rule="evenodd" points="80.9,21.2 140.7,16.2 140.7,13.8 80.9,18.7 "/>
<polygon fill-rule="evenodd" clip-rule="evenodd" points="80.9,17.5 140.7,12.5 140.7,10 80.9,15 "/>
<polygon fill-rule="evenodd" clip-rule="evenodd" points="160.5,36.1 220.4,31.1 220.4,28.6 160.5,33.6 "/>
<polygon fill-rule="evenodd" clip-rule="evenodd" points="160.5,39.8 220.4,34.8 220.4,32.4 160.5,37.3 "/>
<polygon fill-rule="evenodd" clip-rule="evenodd" points="240.4,22.4 300.2,21.2 300.2,18.7 240.4,20 "/>
<polygon fill-rule="evenodd" clip-rule="evenodd" points="240.4,26.2 300.2,24.9 300.2,22.4 240.4,23.7 "/>
<polygon fill-rule="evenodd" clip-rule="evenodd" points="320.2,26.2 380,31.1 380,28.6 320.2,23.7 "/>
<polygon fill-rule="evenodd" clip-rule="evenodd" points="320.2,29.9 380,34.8 380,32.4 320.2,27.4 "/>
<polygon fill-rule="evenodd" clip-rule="evenodd" points="411,16.2 470.9,21.2 470.9,18.7 411,13.8 "/>
<polygon fill-rule="evenodd" clip-rule="evenodd" points="411,12.5 470.9,17.5 470.9,15 411,10 "/>
<rect x="8.5" y="81.7" width="544.4" height="0.5"/>
<rect x="8.5" y="76.8" width="544.4" height="0.5"/>
<rect x="8.5" y="71.8" width="544.4" height="0.5"/>
<rect x="8.5" y="66.9" width="544.4" height="0.5"/>
<rect x="8.5" y="61.9" width="544.4" height="0.5"/>
<g>
	<path d="M15.7,76.3c2.9-2.6,4.7-6.1,4.7-9.2c0-2.5-1.4-4.4-3.7-4.4c-1.6,0-3.4,1.3-3.4,2.7c0,0.2,0,0.3,0.1,0.3
		c-0.1,0,0.6-0.6,1.4-0.6c0.9,0,1.5,0.8,1.5,1.7c0,1.2-0.9,2.2-2.1,2.2c-1.2,0-2.1-1.3-2.1-2.8c0-2.3,2.3-4.1,4.8-4.1
		c4.7,0,5.9,3.2,5.9,5.8c0,1.6-0.4,2.9-2,5.3c-1.9,3.1-6.4,5.3-8.1,5.3c-0.4,0-0.6-0.2-0.6-0.5C13.8,77.6,14.9,77,15.7,76.3z
		 M25.7,63.6c0.6,0,1,0.4,1,1c0,0.6-0.4,1-1,1s-1-0.4-1-1C24.7,64,25.1,63.6,25.7,63.6z M25.7,68.5c0.6,0,1,0.4,1,1c0,0.6-0.4,1-1,1
		s-1-0.4-1-1C24.7,69,25.1,68.5,25.7,68.5z"/>
</g>
<g>
	<path d="M33.5,60.3v2.8l1-0.3v1.8l-1,0.3v3.4l1-0.3v1.8l-1,0.3v3.1H33v-3l-1.9,0.6v3h-0.5V71l-1,0.3v-1.8l1-0.3v-3.4l-1,0.3v-1.8
		l1-0.3v-3.1h0.5v3l1.9-0.6v-3H33.5z M33,65l-1.9,0.6v3.4l1.9-0.6V65z"/>
</g>
<g>
	<path d="M39.7,67.7v2.8l1-0.3V72l-1,0.3v3.4l1-0.3v1.8l-1,0.3v3.1h-0.5v-3l-1.9,0.6v3h-0.5v-2.8l-1,0.3V77l1-0.3v-3.4l-1,0.3v-1.8
		l1-0.3v-3.1h0.5v3l1.9-0.6v-3H39.7z M39.2,72.5l-1.9,0.6v3.4l1.9-0.6V72.5z"/>
</g>
<g>
	<path d="M45.9,57.8v2.8l1-0.3v1.8l-1,0.3v3.4l1-0.3v1.8l-1,0.3v3.1h-0.5v-3l-1.9,0.6v3H43v-2.8l-1,0.3v-1.8l1-0.3v-3.4l-1,0.3v-1.8
		l1-0.3v-3.1h0.5v3l1.9-0.6v-3H45.9z M45.4,62.6l-1.9,0.6v3.4l1.9-0.6V62.6z"/>
</g>
<g>
	<path d="M52.1,65.2v2.8l1-0.3v1.8l-1,0.3v3.4l1-0.3v1.8l-1,0.3v3.1h-0.5v-3l-1.9,0.6v3h-0.5V76l-1,0.3v-1.8l1-0.3v-3.4l-1,0.3v-1.8
		l1-0.3v-3.1h0.5v3l1.9-0.6v-3H52.1z M51.6,70l-1.9,0.6v3.4l1.9-0.6V70z"/>
</g>
<g>
	<path d="M58.3,72.7v2.8l1-0.3V77l-1,0.3v3.4l1-0.3v1.8l-1,0.3v3.1h-0.5v-3l-1.9,0.6v3h-0.5v-2.8l-1,0.3V82l1-0.3v-3.4l-1,0.3v-1.8
		l1-0.3v-3.1h0.5v3l1.9-0.6v-3H58.3z M57.8,77.4l-1.9,0.6v3.4l1.9-0.6V77.4z"/>
</g>
<g>
	<path d="M64.5,62.7v2.8l1-0.3V67l-1,0.3v3.4l1-0.3v1.8l-1,0.3v3.1H64v-3l-1.9,0.6v3h-0.5v-2.8l-1,0.3v-1.8l1-0.3v-3.4l-1,0.3v-1.8
		l1-0.3v-3.1h0.5v3l1.9-0.6v-3H64.5z M64,67.5l-1.9,0.6v3.4L64,71V67.5z"/>
</g>
<g>
	<path d="M152.5,80.6c-3.2,0-6.1-2.3-6.1-5.1c0-2.4,1.7-5,5.1-7.9c-0.2-0.9-0.3-1.8-0.3-2.7c0-2.6,0.9-5.1,2.4-6.3
		c1.4,1.9,2,3.7,2,5.3c0,2.2-1,4.2-3.2,6.1l0.7,3.1c0.4,0,0.6,0,0.6,0c2,0,3.6,1.5,3.6,3.5c0,1.4-1.1,2.8-2.7,3.6
		c0-0.1,0.6,2.8,0.6,3.3c0,1.9-1.7,3.2-3.7,3.2c-1.5,0-2.7-1-2.7-2.5c0-1.1,0.7-1.9,1.8-1.9c1,0,1.7,1,1.7,1.9c0,1-0.9,1.7-2,1.8
		c0.4,0.2,0.9,0.3,1.4,0.3c1.6,0,3.1-1.2,3.1-2.7c0-0.1,0-0.3,0-0.5l-0.6-2.8C153.7,80.5,153.2,80.6,152.5,80.6z M150.9,76.7
		c0,0.8,0.4,1.4,1.2,1.9c-1.3-0.2-2.2-1.1-2.2-2.3c0-1.5,1.3-2.8,2.9-3.1l-0.6-3c-2.8,2.1-4.3,4.1-4.3,6.1c0,2.2,2.1,4,4.5,4
		c0.7,0,1.3-0.1,1.8-0.4l-1.1-5.1C151.8,74.9,150.9,75.7,150.9,76.7z M153.9,60.7c-1.2,0-2.2,2.8-2.2,5.3c0,0.5,0,1,0.1,1.4
		c2-1.8,3-3.4,3-4.9c0-0.7-0.3-1.3-0.7-1.8C154.1,60.7,154,60.7,153.9,60.7z M156,77.1c0-1.2-0.9-2.4-2.2-2.4c0,0-0.2,0-0.4,0l1.1,5
		C155.4,78.9,156,78.1,156,77.1z"/>
</g>
<polygon fill-rule="evenodd" clip-rule="evenodd" points="74.3,83.2 134.2,78.2 134.2,75.8 74.3,80.7 "/>
<polygon fill-rule="evenodd" clip-rule="evenodd" points="74.3,86.9 134.2,82 134.2,79.5 74.3,84.4 "/>
<polygon fill-rule="evenodd" clip-rule="evenodd" points="167,73.3 226.9,68.3 226.9,65.8 167,70.8 "/>
<polygon fill-rule="evenodd" clip-rule="evenodd" points="167,69.6 226.9,64.6 226.9,62.1 167,67.1 "/>
<polygon fill-rule="evenodd" clip-rule="evenodd" points="240.4,86.9 300.2,85.7 300.2,83.2 240.4,84.4 "/>
<polygon fill-rule="evenodd" clip-rule="evenodd" points="240.4,90.6 300.2,89.4 300.2,86.9 240.4,88.2 "/>
<g>
	<path d="M394.9,74c2.2-2,3.6-4.6,3.6-6.9c0-1.9-1.1-3.3-2.8-3.3c-1.2,0-2.5,1-2.5,2.1c0,0.2,0,0.2,0.1,0.2c0,0,0.4-0.5,1-0.5
		c0.7,0,1.2,0.6,1.2,1.3c0,0.9-0.6,1.7-1.6,1.7s-1.5-1-1.5-2.1c0-1.8,1.7-3.1,3.6-3.1c3.5,0,4.4,2.4,4.4,4.4c0,1.2-0.3,2.2-1.5,4
		c-1.4,2.3-4.8,4-6,4c-0.3,0-0.5-0.1-0.5-0.3C393.5,75,394.3,74.5,394.9,74z M402.4,64.5c0.4,0,0.7,0.3,0.7,0.7
		c0,0.4-0.3,0.7-0.7,0.7c-0.4,0-0.7-0.3-0.7-0.7C401.6,64.8,402,64.5,402.4,64.5z M402.4,68.2c0.4,0,0.7,0.3,0.7,0.7
		s-0.3,0.7-0.7,0.7c-0.4,0-0.7-0.3-0.7-0.7S402,68.2,402.4,68.2z"/>
</g>
<polygon fill-rule="evenodd" clip-rule="evenodd" points="326.7,63.4 386.5,68.3 386.5,65.8 326.7,60.9 "/>
<polygon fill-rule="evenodd" clip-rule="evenodd" points="326.7,59.6 386.5,64.6 386.5,62.1 326.7,57.2 "/>
<polygon fill-rule="evenodd" clip-rule="evenodd" points="404.5,78.2 464.4,83.2 464.4,80.7 404.5,75.8 "/>
<polygon fill-rule="evenodd" clip-rule="evenodd" points="404.5,82 464.4,86.9 464.4,84.4 404.5,79.5 "/>
<rect x="80.6" y="15.2" width="0.5" height="21.4"/>
<g>
	<path d="M74.2,38.2c0-1.8,2.5-3.5,4.5-3.5c1.3,0,2.3,0.7,2.3,1.7c0,1.7-2.5,3.5-4.6,3.5C75.2,39.9,74.2,39.3,74.2,38.2z"/>
</g>
<rect x="100.6" y="13.6" width="0.5" height="20.5"/>
<g>
	<path d="M94.2,35.7c0-1.8,2.5-3.5,4.5-3.5c1.3,0,2.3,0.7,2.3,1.7c0,1.7-2.5,3.5-4.6,3.5C95.2,37.4,94.2,36.8,94.2,35.7z"/>
</g>
<rect x="120.5" y="11.9" width="0.5" height="19.7"/>
<g>
	<path d="M114,33.2c0-1.8,2.5-3.5,4.5-3.5c1.3,0,2.3,0.7,2.3,1.7c0,1.7-2.5,3.5-4.6,3.5C115,34.9,114,34.3,114,33.2z"/>
</g>
<rect x="140.5" y="10.2" width="0.5" height="16.4"/>
<g>
	<path d="M134,28.3c0-1.8,2.5-3.5,4.5-3.5c1.3,0,2.3,0.7,2.3,1.7c0,1.7-2.5,3.5-4.6,3.5C135,30,134,29.3,134,28.3z"/>
</g>
<rect x="160.3" y="25.7" width="0.5" height="14"/>
<g>
	<path d="M160.4,25.8c0-1.8,2.5-3.5,4.5-3.5c1.3,0,2.3,0.7,2.3,1.7c0,1.7-2.5,3.5-4.6,3.5C161.3,27.5,160.4,26.9,160.4,25.8z"/>
</g>
<rect x="180.3" y="20.7" width="0.5" height="17.4"/>
<g>
	<path d="M180.4,20.8c0-1.8,2.5-3.5,4.5-3.5c1.3,0,2.3,0.7,2.3,1.7c0,1.7-2.5,3.5-4.6,3.5C181.3,22.5,180.4,21.9,180.4,20.8z"/>
</g>
<rect x="200.1" y="18.3" width="0.5" height="18.1"/>
<g>
	<path d="M200.2,18.3c0-1.8,2.5-3.5,4.5-3.5c1.3,0,2.3,0.7,2.3,1.7c0,1.7-2.5,3.5-4.6,3.5C201.2,20.1,200.2,19.4,200.2,18.3z"/>
</g>
<rect x="220.1" y="15.8" width="0.5" height="18.9"/>
<g>
	<path d="M220.2,15.9c0-1.8,2.5-3.5,4.5-3.5c1.3,0,2.3,0.7,2.3,1.7c0,1.7-2.5,3.5-4.6,3.5C221.2,17.6,220.2,16.9,220.2,15.9z"/>
</g>
<rect x="238.3" y="9.7" width="10.5" height="0.8"/>
<rect x="240.1" y="10.8" width="0.5" height="15.2"/>
<g>
	<path d="M240.2,10.9c0-1.8,2.5-3.5,4.5-3.5c1.3,0,2.3,0.7,2.3,1.7c0,1.7-2.5,3.5-4.6,3.5C241.2,12.6,240.2,12,240.2,10.9z"/>
</g>
<rect x="258.3" y="9.7" width="10.5" height="0.8"/>
<rect x="260.1" y="8.3" width="0.5" height="17.4"/>
<g>
	<path d="M260.2,8.4c0-1.8,2.5-3.5,4.5-3.5c1.3,0,2.3,0.7,2.3,1.7c0,1.7-2.5,3.5-4.6,3.5C261.2,10.1,260.2,9.5,260.2,8.4z"/>
</g>
<rect x="278.2" y="9.7" width="10.5" height="0.8"/>
<rect x="278.2" y="4.7" width="10.5" height="0.8"/>
<rect x="280" y="3.4" width="0.5" height="21.9"/>
<g>
	<path d="M280,3.5c0-1.8,2.5-3.5,4.5-3.5c1.3,0,2.3,0.7,2.3,1.7c0,1.7-2.5,3.5-4.6,3.5C281,5.2,280,4.5,280,3.5z"/>
</g>
<rect x="298.2" y="9.7" width="10.5" height="0.8"/>
<rect x="300" y="8.3" width="0.5" height="16.4"/>
<g>
	<path d="M300,8.4c0-1.8,2.5-3.5,4.5-3.5c1.3,0,2.3,0.7,2.3,1.7c0,1.7-2.5,3.5-4.6,3.5C301,10.1,300,9.5,300,8.4z"/>
</g>
<rect x="318.2" y="9.7" width="10.5" height="0.8"/>
<rect x="320" y="10.8" width="0.5" height="18.9"/>
<g>
	<path d="M320,10.9c0-1.8,2.5-3.5,4.5-3.5c1.3,0,2.3,0.7,2.3,1.7c0,1.7-2.5,3.5-4.6,3.5C321,12.6,320,12,320,10.9z"/>
</g>
<rect x="339.8" y="15.8" width="0.5" height="15.5"/>
<g>
	<path d="M339.9,15.9c0-1.8,2.5-3.5,4.5-3.5c1.3,0,2.3,0.7,2.3,1.7c0,1.7-2.5,3.5-4.6,3.5C340.9,17.6,339.9,16.9,339.9,15.9z"/>
</g>
<rect x="359.8" y="18.3" width="0.5" height="14.7"/>
<g>
	<path d="M359.9,18.3c0-1.8,2.5-3.5,4.5-3.5c1.3,0,2.3,0.7,2.3,1.7c0,1.7-2.5,3.5-4.6,3.5C360.9,20.1,359.9,19.4,359.9,18.3z"/>
</g>
<rect x="379.8" y="20.7" width="0.5" height="14"/>
<g>
	<path d="M379.9,20.8c0-1.8,2.5-3.5,4.5-3.5c1.3,0,2.3,0.7,2.3,1.7c0,1.7-2.5,3.5-4.6,3.5C380.8,22.5,379.9,21.9,379.9,20.8z"/>
</g>
<rect x="410.8" y="10.2" width="0.5" height="14"/>
<g>
	<path d="M404.4,25.8c0-1.8,2.5-3.5,4.5-3.5c1.3,0,2.3,0.7,2.3,1.7c0,1.7-2.5,3.5-4.6,3.5C405.3,27.5,404.4,26.9,404.4,25.8z"/>
</g>
<rect x="430.6" y="11.7" width="0.5" height="14.9"/>
<g>
	<path d="M424.2,28.3c0-1.8,2.5-3.5,4.5-3.5c1.3,0,2.3,0.7,2.3,1.7c0,1.7-2.5,3.5-4.6,3.5C425.2,30,424.2,29.3,424.2,28.3z"/>
</g>
<rect x="450.6" y="13.4" width="0.5" height="18.1"/>
<g>
	<path d="M444.2,33.2c0-1.8,2.5-3.5,4.5-3.5c1.3,0,2.3,0.7,2.3,1.7c0,1.7-2.5,3.5-4.6,3.5C445.2,34.9,444.2,34.3,444.2,33.2z"/>
</g>
<rect x="470.6" y="15.2" width="0.5" height="18.9"/>
<g>
	<path d="M464.2,35.7c0-1.8,2.5-3.5,4.5-3.5c1.3,0,2.3,0.7,2.3,1.7c0,1.7-2.5,3.5-4.6,3.5C465.2,37.4,464.2,36.8,464.2,35.7z"/>
</g>
<rect x="490.8" y="20" width="0.5" height="16.6"/>
<g>
	<path d="M488.5,34.6c1.6,0,2.7,0.7,2.7,2c0,1.9-2.3,3.4-4.5,3.4c-1.3,0-2.4-0.7-2.4-1.8C484.2,36.4,486.4,34.6,488.5,34.6z
		 M484.7,38.5c0,0.6,0.4,0.9,1.1,0.9c1.4,0,4.9-2.1,4.9-3.3c0-0.6-0.4-0.9-1.1-0.9C488.3,35.2,484.7,37.2,484.7,38.5z"/>
</g>
<rect x="74.1" y="72.8" width="0.5" height="14"/>
<g>
	<path d="M74.2,72.9c0-1.8,2.5-3.5,4.5-3.5c1.3,0,2.3,0.7,2.3,1.7c0,1.7-2.5,3.5-4.6,3.5C75.2,74.6,74.2,74,74.2,72.9z"/>
</g>
<rect x="94.1" y="70.3" width="0.5" height="14.9"/>
<g>
	<path d="M94.2,70.4c0-1.8,2.5-3.5,4.5-3.5c1.3,0,2.3,0.7,2.3,1.7c0,1.7-2.5,3.5-4.6,3.5C95.2,72.1,94.2,71.5,94.2,70.4z"/>
</g>
<rect x="113.9" y="67.9" width="0.5" height="15.7"/>
<g>
	<path d="M114,67.9c0-1.8,2.5-3.5,4.5-3.5c1.3,0,2.3,0.7,2.3,1.7c0,1.7-2.5,3.5-4.6,3.5C115,69.7,114,69,114,67.9z"/>
</g>
<rect x="133.9" y="62.9" width="0.5" height="18.9"/>
<g>
	<path d="M134,63c0-1.8,2.5-3.5,4.5-3.5c1.3,0,2.3,0.7,2.3,1.7c0,1.7-2.5,3.5-4.6,3.5C135,64.7,134,64.1,134,63z"/>
</g>
<rect x="158.5" y="86.5" width="10.5" height="0.8"/>
<rect x="166.8" y="67.2" width="0.5" height="21.4"/>
<g>
	<path d="M160.4,90.3c0-1.8,2.5-3.5,4.5-3.5c1.3,0,2.3,0.7,2.3,1.7c0,1.7-2.5,3.5-4.6,3.5C161.3,92,160.4,91.3,160.4,90.3z"/>
</g>
<rect x="186.8" y="65.7" width="0.5" height="18"/>
<g>
	<path d="M180.4,85.3c0-1.8,2.5-3.5,4.5-3.5c1.3,0,2.3,0.7,2.3,1.7c0,1.7-2.5,3.5-4.6,3.5C181.3,87,180.4,86.4,180.4,85.3z"/>
</g>
<rect x="206.6" y="64" width="0.5" height="17.2"/>
<g>
	<path d="M200.2,82.8c0-1.8,2.5-3.5,4.5-3.5c1.3,0,2.3,0.7,2.3,1.7c0,1.7-2.5,3.5-4.6,3.5C201.2,84.5,200.2,83.9,200.2,82.8z"/>
</g>
<rect x="226.6" y="62.3" width="0.5" height="16.4"/>
<g>
	<path d="M220.2,80.3c0-1.8,2.5-3.5,4.5-3.5c1.3,0,2.3,0.7,2.3,1.7c0,1.7-2.5,3.5-4.6,3.5C221.2,82.1,220.2,81.4,220.2,80.3z"/>
</g>
<rect x="240.1" y="75.3" width="0.5" height="15.2"/>
<g>
	<path d="M240.2,75.4c0-1.8,2.5-3.5,4.5-3.5c1.3,0,2.3,0.7,2.3,1.7c0,1.7-2.5,3.5-4.6,3.5C241.2,77.1,240.2,76.5,240.2,75.4z"/>
</g>
<rect x="260.1" y="72.8" width="0.5" height="17.4"/>
<g>
	<path d="M260.2,72.9c0-1.8,2.5-3.5,4.5-3.5c1.3,0,2.3,0.7,2.3,1.7c0,1.7-2.5,3.5-4.6,3.5C261.2,74.6,260.2,74,260.2,72.9z"/>
</g>
<rect x="280" y="67.9" width="0.5" height="21.9"/>
<g>
	<path d="M280,67.9c0-1.8,2.5-3.5,4.5-3.5c1.3,0,2.3,0.7,2.3,1.7c0,1.7-2.5,3.5-4.6,3.5C281,69.7,280,69,280,67.9z"/>
</g>
<rect x="300" y="72.8" width="0.5" height="16.4"/>
<g>
	<path d="M300,72.9c0-1.8,2.5-3.5,4.5-3.5c1.3,0,2.3,0.7,2.3,1.7c0,1.7-2.5,3.5-4.6,3.5C301,74.6,300,74,300,72.9z"/>
</g>
<rect x="326.5" y="57.3" width="0.5" height="16.4"/>
<g>
	<path d="M320,75.4c0-1.8,2.5-3.5,4.5-3.5c1.3,0,2.3,0.7,2.3,1.7c0,1.7-2.5,3.5-4.6,3.5C321,77.1,320,76.5,320,75.4z"/>
</g>
<rect x="346.3" y="58.9" width="0.5" height="19.8"/>
<g>
	<path d="M339.9,80.3c0-1.8,2.5-3.5,4.5-3.5c1.3,0,2.3,0.7,2.3,1.7c0,1.7-2.5,3.5-4.6,3.5C340.9,82.1,339.9,81.4,339.9,80.3z"/>
</g>
<rect x="366.3" y="60.6" width="0.5" height="20.6"/>
<g>
	<path d="M359.9,82.8c0-1.8,2.5-3.5,4.5-3.5c1.3,0,2.3,0.7,2.3,1.7c0,1.7-2.5,3.5-4.6,3.5C360.9,84.5,359.9,83.9,359.9,82.8z"/>
</g>
<rect x="386.3" y="62.3" width="0.5" height="21.4"/>
<g>
	<path d="M379.9,85.3c0-1.8,2.5-3.5,4.5-3.5c1.3,0,2.3,0.7,2.3,1.7c0,1.7-2.5,3.5-4.6,3.5C380.8,87,379.9,86.4,379.9,85.3z"/>
</g>
<rect x="404.3" y="60.4" width="0.5" height="21.4"/>
<g>
	<path d="M404.4,60.5c0-1.8,2.5-3.5,4.5-3.5c1.3,0,2.3,0.7,2.3,1.7c0,1.7-2.5,3.5-4.6,3.5C405.3,62.2,404.4,61.6,404.4,60.5z"/>
</g>
<rect x="424.1" y="62.9" width="0.5" height="20.5"/>
<g>
	<path d="M424.2,63c0-1.8,2.5-3.5,4.5-3.5c1.3,0,2.3,0.7,2.3,1.7c0,1.7-2.5,3.5-4.6,3.5C425.2,64.7,424.2,64.1,424.2,63z"/>
</g>
<rect x="444.1" y="67.9" width="0.5" height="17.2"/>
<g>
	<path d="M444.2,67.9c0-1.8,2.5-3.5,4.5-3.5c1.3,0,2.3,0.7,2.3,1.7c0,1.7-2.5,3.5-4.6,3.5C445.2,69.7,444.2,69,444.2,67.9z"/>
</g>
<rect x="464.1" y="70.3" width="0.5" height="16.4"/>
<g>
	<path d="M464.2,70.4c0-1.8,2.5-3.5,4.5-3.5c1.3,0,2.3,0.7,2.3,1.7c0,1.7-2.5,3.5-4.6,3.5C465.2,72.1,464.2,71.5,464.2,70.4z"/>
</g>
<rect x="484.1" y="72.8" width="0.5" height="16.6"/>
<g>
	<path d="M488.5,69.3c1.6,0,2.7,0.7,2.7,2c0,1.9-2.3,3.4-4.5,3.4c-1.3,0-2.4-0.7-2.4-1.8C484.2,71.1,486.4,69.3,488.5,69.3z
		 M484.7,73.2c0,0.6,0.4,0.9,1.1,0.9c1.4,0,4.9-2.1,4.9-3.3c0-0.6-0.4-0.9-1.1-0.9C488.3,69.9,484.7,72,484.7,73.2z"/>
</g>
</svg>
