<?xml version="1.0" encoding="utf-8"?>

<!--
	ScaleBook
	Copyright (c) Leland Jansen 2015. All rights reserved.
-->

<!DOCTYPE svg PUBLIC "-//W3C//DTD SVG 1.1//EN" "http://www.w3.org/Graphics/SVG/1.1/DTD/svg11.dtd">
<svg version="1.1" id="Layer_1" xmlns="http://www.w3.org/2000/svg" xmlns:xlink="http://www.w3.org/1999/xlink" x="0px" y="0px"
	 viewBox="0 0 553 89.2" enable-background="new 0 0 553 89.2" xml:space="preserve">
<rect x="8.5" y="9.7" width="0.8" height="70.8"/>
<g>
	<path d="M7.6,10.4c-2,1.1-3.7,6.1-3.7,10c0,2.4,1.4,10.5,1.4,13c0,5.2-1.6,9.1-4.7,11.8c3.1,2.6,4.7,6.4,4.7,11.7
		c0,2.4-1.4,10.5-1.4,13c0,4,1.8,8.9,3.7,10.1v0.7C4,78.1,1.7,71.8,1.7,66.7c0-2.3,1.8-9.9,1.8-12.2c0-4-1-6.9-3-8.7
		C0.1,45.6,0,45.3,0,45.1s0.1-0.4,0.5-0.7c2-1.8,3-4.5,3-8c0-2.3-1.8-10.6-1.8-12.9c0-5.5,2.1-11,5.9-13.8V10.4z"/>
</g>
<rect x="548" y="9.7" width="0.8" height="70.8"/>
<rect x="550.5" y="9.7" width="2.5" height="70.8"/>
<rect x="8.6" y="29.3" width="544.4" height="0.5"/>
<rect x="8.6" y="24.4" width="544.4" height="0.5"/>
<rect x="8.6" y="19.4" width="544.4" height="0.5"/>
<rect x="8.6" y="14.4" width="544.4" height="0.5"/>
<rect x="8.6" y="9.5" width="544.4" height="0.5"/>
<g>
	<path d="M20.4,29.4c-4.2,0-8.1-3.1-8.1-6.9c0-3.2,2.3-6.7,6.8-10.5c-0.3-1.2-0.4-2.4-0.4-3.6c0-3.5,1.2-6.8,3.2-8.5
		c1.8,2.5,2.7,4.9,2.7,7.1c0,2.9-1.3,5.6-4.3,8.1l0.9,4.2c0.5,0,0.8-0.1,0.8-0.1c2.6,0,4.8,2,4.8,4.7c0,1.9-1.4,3.7-3.6,4.8
		c0-0.1,0.9,3.8,0.9,4.3c0,2.5-2.3,4.2-4.9,4.2c-2,0-3.6-1.3-3.6-3.4c0-1.4,1-2.6,2.4-2.6c1.3,0,2.3,1.3,2.3,2.5
		c0,1.4-1.2,2.3-2.7,2.5c0.6,0.3,1.2,0.5,1.9,0.5c2.1,0,4.1-1.6,4.1-3.6c0-0.2,0-0.4-0.1-0.6l-0.8-3.7
		C22.1,29.3,21.4,29.4,20.4,29.4z M18.2,24.2c0,1,0.5,1.9,1.6,2.5c-1.8-0.3-3-1.4-3-3.1c0-2,1.7-3.7,3.8-4.1l-0.8-4
		c-3.7,2.8-5.7,5.5-5.7,8.1c0,2.9,2.8,5.3,6,5.3c0.9,0,1.7-0.2,2.4-0.5l-1.4-6.8C19.5,21.8,18.2,22.8,18.2,24.2z M22.3,2.8
		c-1.6,0-2.9,3.7-2.9,7c0,0.7,0,1.3,0.2,1.9c2.7-2.4,4-4.5,4-6.5c0-0.9-0.3-1.7-1-2.4C22.5,2.9,22.4,2.8,22.3,2.8z M25,24.7
		c0-1.6-1.2-3.3-2.9-3.3c-0.1,0-0.2,0-0.5,0l1.4,6.6C24.4,27.2,25,26,25,24.7z"/>
</g>
<g>
	<path d="M29.7,11.3h0.6l-0.1,6.2c0.4-0.7,1-1,1.8-1c1.2,0,2.2,0.8,2.2,1.9c0,0.8-0.5,1.8-1.7,2.7l-2.8,2.1V11.3z M30.3,18.2
		c-0.1,0.8-0.1,1.4-0.1,1.9c0,1,0,1.6,0.1,2c1-0.7,2.4-2.6,2.4-3.7c0-0.6-0.5-1.1-1.1-1.1C31,17.4,30.6,17.7,30.3,18.2z"/>
</g>
<g>
	<path d="M35.3,3.9h0.6l-0.1,6.2c0.4-0.7,1-1,1.8-1c1.2,0,2.2,0.8,2.2,1.9c0,0.8-0.5,1.8-1.7,2.7l-2.8,2.1V3.9z M35.9,10.8
		c-0.1,0.8-0.1,1.4-0.1,1.9c0,1,0,1.6,0.1,2c1-0.7,2.4-2.6,2.4-3.7c0-0.6-0.5-1.1-1.1-1.1C36.6,10,36.1,10.2,35.9,10.8z"/>
</g>
<rect x="8.6" y="80.3" width="544.4" height="0.5"/>
<rect x="8.6" y="75.4" width="544.4" height="0.5"/>
<rect x="8.6" y="70.4" width="544.4" height="0.5"/>
<rect x="8.6" y="65.4" width="544.4" height="0.5"/>
<rect x="8.6" y="60.5" width="544.4" height="0.5"/>
<g>
	<path d="M15.9,74.9c2.9-2.6,4.7-6.1,4.7-9.2c0-2.5-1.4-4.4-3.7-4.4c-1.6,0-3.4,1.3-3.4,2.7c0,0.2,0,0.3,0.1,0.3
		c-0.1,0,0.6-0.6,1.4-0.6c0.9,0,1.5,0.8,1.5,1.7c0,1.2-0.9,2.2-2.1,2.2c-1.2,0-2.1-1.3-2.1-2.8c0-2.3,2.3-4.1,4.8-4.1
		c4.7,0,5.9,3.2,5.9,5.8c0,1.6-0.4,2.9-2,5.3c-1.9,3.1-6.4,5.3-8.1,5.3c-0.4,0-0.6-0.2-0.6-0.5C14,76.2,15.1,75.6,15.9,74.9z
		 M25.8,62.2c0.6,0,1,0.4,1,1c0,0.6-0.4,1-1,1s-1-0.4-1-1C24.8,62.6,25.3,62.2,25.8,62.2z M25.8,67.1c0.6,0,1,0.4,1,1
		c0,0.6-0.4,1-1,1s-1-0.4-1-1C24.8,67.6,25.3,67.1,25.8,67.1z"/>
</g>
<g>
	<path d="M29.7,67.3h0.6l-0.1,6.2c0.4-0.7,1-1,1.8-1c1.2,0,2.2,0.8,2.2,1.9c0,0.8-0.5,1.8-1.7,2.7l-2.8,2.1V67.3z M30.3,74.2
		c-0.1,0.8-0.1,1.4-0.1,1.9c0,1,0,1.6,0.1,2c1-0.7,2.4-2.6,2.4-3.7c0-0.6-0.5-1.1-1.1-1.1C31,73.4,30.6,73.6,30.3,74.2z"/>
</g>
<g>
	<path d="M35.3,59.8h0.6l-0.1,6.2c0.4-0.7,1-1,1.8-1c1.2,0,2.2,0.8,2.2,1.9c0,0.8-0.5,1.8-1.7,2.7l-2.8,2.1V59.8z M35.9,66.7
		c-0.1,0.8-0.1,1.4-0.1,1.9c0,1,0,1.6,0.1,2c1-0.7,2.4-2.6,2.4-3.7c0-0.6-0.5-1.1-1.1-1.1C36.6,65.9,36.1,66.2,35.9,66.7z"/>
</g>
<rect x="46.4" y="34.1" width="10.5" height="0.8"/>
<rect x="46.4" y="39.1" width="10.5" height="0.8"/>
<rect x="46.4" y="44.1" width="10.5" height="0.8"/>
<rect x="54.7" y="12.2" width="0.5" height="31.5"/>
<g>
	<path d="M48.3,45.3c0-1.8,2.5-3.5,4.5-3.5c1.3,0,2.3,0.7,2.3,1.7c0,1.7-2.5,3.5-4.6,3.5C49.3,47,48.3,46.4,48.3,45.3z"/>
</g>
<g>
	<path d="M48.3,40.3c0-1.8,2.5-3.5,4.5-3.5c1.3,0,2.3,0.7,2.3,1.7c0,1.7-2.5,3.5-4.6,3.5C49.3,42.1,48.3,41.4,48.3,40.3z"/>
</g>
<g>
	<path d="M48.3,35.4c0-1.8,2.5-3.5,4.5-3.5c1.3,0,2.3,0.7,2.3,1.7c0,1.7-2.5,3.5-4.6,3.5C49.3,37.1,48.3,36.5,48.3,35.4z"/>
</g>
<g>
	<path d="M48.3,30.4c0-1.8,2.5-3.5,4.5-3.5c1.3,0,2.3,0.7,2.3,1.7c0,1.7-2.5,3.5-4.6,3.5C49.3,32.1,48.3,31.5,48.3,30.4z"/>
</g>
<rect x="97.7" y="34.1" width="10.5" height="0.8"/>
<rect x="97.7" y="39.1" width="10.5" height="0.8"/>
<rect x="106" y="9.7" width="0.5" height="29"/>
<g>
	<path d="M99.6,40.3c0-1.8,2.5-3.5,4.5-3.5c1.3,0,2.3,0.7,2.3,1.7c0,1.7-2.5,3.5-4.6,3.5C100.6,42.1,99.6,41.4,99.6,40.3z"/>
</g>
<g>
	<path d="M99.6,35.4c0-1.8,2.5-3.5,4.5-3.5c1.3,0,2.3,0.7,2.3,1.7c0,1.7-2.5,3.5-4.6,3.5C100.6,37.1,99.6,36.5,99.6,35.4z"/>
</g>
<g>
	<path d="M99.6,30.4c0-1.8,2.5-3.5,4.5-3.5c1.3,0,2.3,0.7,2.3,1.7c0,1.7-2.5,3.5-4.6,3.5C100.6,32.1,99.6,31.5,99.6,30.4z"/>
</g>
<g>
	<path d="M106,27.9c0-1.8,2.5-3.5,4.5-3.5c1.3,0,2.3,0.7,2.3,1.7c0,1.7-2.5,3.5-4.6,3.5C106.9,29.7,106,29,106,27.9z"/>
</g>
<rect x="148.9" y="34.1" width="10.5" height="0.8"/>
<rect x="157.2" y="4.8" width="0.5" height="29"/>
<g>
	<path d="M150.8,35.4c0-1.8,2.5-3.5,4.5-3.5c1.3,0,2.3,0.7,2.3,1.7c0,1.7-2.5,3.5-4.6,3.5C151.7,37.1,150.8,36.5,150.8,35.4z"/>
</g>
<g>
	<path d="M150.8,30.4c0-1.8,2.5-3.5,4.5-3.5c1.3,0,2.3,0.7,2.3,1.7c0,1.7-2.5,3.5-4.6,3.5C151.7,32.1,150.8,31.5,150.8,30.4z"/>
</g>
<g>
	<path d="M157.1,27.9c0-1.8,2.5-3.5,4.5-3.5c1.3,0,2.3,0.7,2.3,1.7c0,1.7-2.5,3.5-4.6,3.5C158.1,29.7,157.1,29,157.1,27.9z"/>
</g>
<g>
	<path d="M150.8,23c0-1.8,2.5-3.5,4.5-3.5c1.3,0,2.3,0.7,2.3,1.7c0,1.7-2.5,3.5-4.6,3.5C151.7,24.7,150.8,24.1,150.8,23z"/>
</g>
<rect x="208.5" y="1" width="0.5" height="27.7"/>
<g>
	<path d="M202.1,30.4c0-1.8,2.5-3.5,4.5-3.5c1.3,0,2.3,0.7,2.3,1.7c0,1.7-2.5,3.5-4.6,3.5C203,32.1,202.1,31.5,202.1,30.4z"/>
</g>
<g>
	<path d="M208.4,27.9c0-1.8,2.5-3.5,4.5-3.5c1.3,0,2.3,0.7,2.3,1.7c0,1.7-2.5,3.5-4.6,3.5C209.4,29.7,208.4,29,208.4,27.9z"/>
</g>
<g>
	<path d="M202.1,23c0-1.8,2.5-3.5,4.5-3.5c1.3,0,2.3,0.7,2.3,1.7c0,1.7-2.5,3.5-4.6,3.5C203,24.7,202.1,24.1,202.1,23z"/>
</g>
<g>
	<path d="M202.1,18c0-1.8,2.5-3.5,4.5-3.5c1.3,0,2.3,0.7,2.3,1.7c0,1.7-2.5,3.5-4.6,3.5C203,19.7,202.1,19.1,202.1,18z"/>
</g>
<rect x="253.3" y="13" width="0.5" height="27.7"/>
<g>
	<path d="M253.4,13c0-1.8,2.5-3.5,4.5-3.5c1.3,0,2.3,0.7,2.3,1.7c0,1.7-2.5,3.5-4.6,3.5C254.4,14.8,253.4,14.1,253.4,13z"/>
</g>
<g>
	<path d="M253.4,18c0-1.8,2.5-3.5,4.5-3.5c1.3,0,2.3,0.7,2.3,1.7c0,1.7-2.5,3.5-4.6,3.5C254.4,19.7,253.4,19.1,253.4,18z"/>
</g>
<g>
	<path d="M253.4,23c0-1.8,2.5-3.5,4.5-3.5c1.3,0,2.3,0.7,2.3,1.7c0,1.7-2.5,3.5-4.6,3.5C254.4,24.7,253.4,24.1,253.4,23z"/>
</g>
<g>
	<path d="M253.4,27.9c0-1.8,2.5-3.5,4.5-3.5c1.3,0,2.3,0.7,2.3,1.7c0,1.7-2.5,3.5-4.6,3.5C254.4,29.7,253.4,29,253.4,27.9z"/>
</g>
<rect x="311.1" y="1" width="0.5" height="27.7"/>
<g>
	<path d="M304.7,30.4c0-1.8,2.5-3.5,4.5-3.5c1.3,0,2.3,0.7,2.3,1.7c0,1.7-2.5,3.5-4.6,3.5C305.7,32.1,304.7,31.5,304.7,30.4z"/>
</g>
<g>
	<path d="M311,27.9c0-1.8,2.5-3.5,4.5-3.5c1.3,0,2.3,0.7,2.3,1.7c0,1.7-2.5,3.5-4.6,3.5C312,29.7,311,29,311,27.9z"/>
</g>
<g>
	<path d="M304.7,23c0-1.8,2.5-3.5,4.5-3.5c1.3,0,2.3,0.7,2.3,1.7c0,1.7-2.5,3.5-4.6,3.5C305.7,24.7,304.7,24.1,304.7,23z"/>
</g>
<g>
	<path d="M304.7,18c0-1.8,2.5-3.5,4.5-3.5c1.3,0,2.3,0.7,2.3,1.7c0,1.7-2.5,3.5-4.6,3.5C305.7,19.7,304.7,19.1,304.7,18z"/>
</g>
<rect x="354" y="34.1" width="10.5" height="0.8"/>
<rect x="362.3" y="4.8" width="0.5" height="29"/>
<g>
	<path d="M355.8,35.4c0-1.8,2.5-3.5,4.5-3.5c1.3,0,2.3,0.7,2.3,1.7c0,1.7-2.5,3.5-4.6,3.5C356.8,37.1,355.8,36.5,355.8,35.4z"/>
</g>
<g>
	<path d="M355.8,30.4c0-1.8,2.5-3.5,4.5-3.5c1.3,0,2.3,0.7,2.3,1.7c0,1.7-2.5,3.5-4.6,3.5C356.8,32.1,355.8,31.5,355.8,30.4z"/>
</g>
<g>
	<path d="M362.2,27.9c0-1.8,2.5-3.5,4.5-3.5c1.3,0,2.3,0.7,2.3,1.7c0,1.7-2.5,3.5-4.6,3.5C363.2,29.7,362.2,29,362.2,27.9z"/>
</g>
<g>
	<path d="M355.8,23c0-1.8,2.5-3.5,4.5-3.5c1.3,0,2.3,0.7,2.3,1.7c0,1.7-2.5,3.5-4.6,3.5C356.8,24.7,355.8,24.1,355.8,23z"/>
</g>
<rect x="405.3" y="34.1" width="10.5" height="0.8"/>
<rect x="405.3" y="39.1" width="10.5" height="0.8"/>
<rect x="413.6" y="9.7" width="0.5" height="29"/>
<g>
	<path d="M407.2,40.3c0-1.8,2.5-3.5,4.5-3.5c1.3,0,2.3,0.7,2.3,1.7c0,1.7-2.5,3.5-4.6,3.5C408.1,42.1,407.2,41.4,407.2,40.3z"/>
</g>
<g>
	<path d="M407.2,35.4c0-1.8,2.5-3.5,4.5-3.5c1.3,0,2.3,0.7,2.3,1.7c0,1.7-2.5,3.5-4.6,3.5C408.1,37.1,407.2,36.5,407.2,35.4z"/>
</g>
<g>
	<path d="M407.2,30.4c0-1.8,2.5-3.5,4.5-3.5c1.3,0,2.3,0.7,2.3,1.7c0,1.7-2.5,3.5-4.6,3.5C408.1,32.1,407.2,31.5,407.2,30.4z"/>
</g>
<g>
	<path d="M413.5,27.9c0-1.8,2.5-3.5,4.5-3.5c1.3,0,2.3,0.7,2.3,1.7c0,1.7-2.5,3.5-4.6,3.5C414.5,29.7,413.5,29,413.5,27.9z"/>
</g>
<rect x="456.6" y="34.1" width="10.7" height="0.8"/>
<rect x="456.6" y="39.1" width="10.7" height="0.8"/>
<rect x="456.6" y="44.1" width="10.7" height="0.8"/>
<rect x="465.1" y="12.2" width="0.5" height="31.5"/>
<g>
	<path d="M462.7,41.7c1.6,0,2.7,0.7,2.7,2c0,1.9-2.3,3.4-4.5,3.4c-1.3,0-2.4-0.7-2.4-1.8C458.5,43.5,460.7,41.7,462.7,41.7z
		 M458.9,45.6c0,0.6,0.4,0.9,1.1,0.9c1.4,0,4.9-2.1,4.9-3.3c0-0.6-0.4-0.9-1.1-0.9C462.6,42.3,458.9,44.4,458.9,45.6z"/>
</g>
<g>
	<path d="M462.7,36.8c1.6,0,2.7,0.7,2.7,2c0,1.9-2.3,3.4-4.5,3.4c-1.3,0-2.4-0.7-2.4-1.8C458.5,38.6,460.7,36.8,462.7,36.8z
		 M458.9,40.6c0,0.6,0.4,0.9,1.1,0.9c1.4,0,4.9-2.1,4.9-3.3c0-0.6-0.4-0.9-1.1-0.9C462.6,37.4,458.9,39.4,458.9,40.6z"/>
</g>
<g>
	<path d="M462.7,31.8c1.6,0,2.7,0.7,2.7,2c0,1.9-2.3,3.4-4.5,3.4c-1.3,0-2.4-0.7-2.4-1.8C458.5,33.6,460.7,31.8,462.7,31.8z
		 M458.9,35.7c0,0.6,0.4,0.9,1.1,0.9c1.4,0,4.9-2.1,4.9-3.3c0-0.6-0.4-0.9-1.1-0.9C462.6,32.4,458.9,34.4,458.9,35.7z"/>
</g>
<g>
	<path d="M462.7,26.9c1.6,0,2.7,0.7,2.7,2c0,1.9-2.3,3.4-4.5,3.4c-1.3,0-2.4-0.7-2.4-1.8C458.5,28.6,460.7,26.9,462.7,26.9z
		 M458.9,30.7c0,0.6,0.4,0.9,1.1,0.9c1.4,0,4.9-2.1,4.9-3.3c0-0.6-0.4-0.9-1.1-0.9C462.6,27.5,458.9,29.5,458.9,30.7z"/>
</g>
<rect x="54.7" y="52" width="0.5" height="30.2"/>
<g>
	<path d="M48.3,83.9c0-1.8,2.5-3.5,4.5-3.5c1.3,0,2.3,0.7,2.3,1.7c0,1.7-2.5,3.5-4.6,3.5C49.3,85.6,48.3,85,48.3,83.9z"/>
</g>
<g>
	<path d="M48.3,78.9c0-1.8,2.5-3.5,4.5-3.5c1.3,0,2.3,0.7,2.3,1.7c0,1.7-2.5,3.5-4.6,3.5C49.3,80.7,48.3,80,48.3,78.9z"/>
</g>
<g>
	<path d="M48.3,74c0-1.8,2.5-3.5,4.5-3.5c1.3,0,2.3,0.7,2.3,1.7c0,1.7-2.5,3.5-4.6,3.5C49.3,75.7,48.3,75.1,48.3,74z"/>
</g>
<g>
	<path d="M48.3,69c0-1.8,2.5-3.5,4.5-3.5c1.3,0,2.3,0.7,2.3,1.7c0,1.7-2.5,3.5-4.6,3.5C49.3,70.7,48.3,70.1,48.3,69z"/>
</g>
<rect x="106" y="50.8" width="0.5" height="26.5"/>
<g>
	<path d="M99.6,78.9c0-1.8,2.5-3.5,4.5-3.5c1.3,0,2.3,0.7,2.3,1.7c0,1.7-2.5,3.5-4.6,3.5C100.6,80.7,99.6,80,99.6,78.9z"/>
</g>
<g>
	<path d="M99.6,74c0-1.8,2.5-3.5,4.5-3.5c1.3,0,2.3,0.7,2.3,1.7c0,1.7-2.5,3.5-4.6,3.5C100.6,75.7,99.6,75.1,99.6,74z"/>
</g>
<g>
	<path d="M99.6,69c0-1.8,2.5-3.5,4.5-3.5c1.3,0,2.3,0.7,2.3,1.7c0,1.7-2.5,3.5-4.6,3.5C100.6,70.7,99.6,70.1,99.6,69z"/>
</g>
<g>
	<path d="M106,66.5c0-1.8,2.5-3.5,4.5-3.5c1.3,0,2.3,0.7,2.3,1.7c0,1.7-2.5,3.5-4.6,3.5C106.9,68.3,106,67.6,106,66.5z"/>
</g>
<rect x="150.7" y="61.5" width="0.5" height="27.7"/>
<g>
	<path d="M150.8,61.6c0-1.8,2.5-3.5,4.5-3.5c1.3,0,2.3,0.7,2.3,1.7c0,1.7-2.5,3.5-4.6,3.5C151.7,63.3,150.8,62.7,150.8,61.6z"/>
</g>
<g>
	<path d="M150.8,66.5c0-1.8,2.5-3.5,4.5-3.5c1.3,0,2.3,0.7,2.3,1.7c0,1.7-2.5,3.5-4.6,3.5C151.7,68.3,150.8,67.6,150.8,66.5z"/>
</g>
<g>
	<path d="M144.4,69c0-1.8,2.5-3.5,4.5-3.5c1.3,0,2.3,0.7,2.3,1.7c0,1.7-2.5,3.5-4.6,3.5C145.4,70.7,144.4,70.1,144.4,69z"/>
</g>
<g>
	<path d="M150.8,74c0-1.8,2.5-3.5,4.5-3.5c1.3,0,2.3,0.7,2.3,1.7c0,1.7-2.5,3.5-4.6,3.5C151.7,75.7,150.8,75.1,150.8,74z"/>
</g>
<rect x="200.2" y="55.4" width="10.5" height="0.8"/>
<rect x="202" y="56.5" width="0.5" height="29"/>
<g>
	<path d="M202.1,56.6c0-1.8,2.5-3.5,4.5-3.5c1.3,0,2.3,0.7,2.3,1.7c0,1.7-2.5,3.5-4.6,3.5C203,58.3,202.1,57.7,202.1,56.6z"/>
</g>
<g>
	<path d="M202.1,61.6c0-1.8,2.5-3.5,4.5-3.5c1.3,0,2.3,0.7,2.3,1.7c0,1.7-2.5,3.5-4.6,3.5C203,63.3,202.1,62.7,202.1,61.6z"/>
</g>
<g>
	<path d="M202.1,66.5c0-1.8,2.5-3.5,4.5-3.5c1.3,0,2.3,0.7,2.3,1.7c0,1.7-2.5,3.5-4.6,3.5C203,68.3,202.1,67.6,202.1,66.5z"/>
</g>
<g>
	<path d="M195.7,69c0-1.8,2.5-3.5,4.5-3.5c1.3,0,2.3,0.7,2.3,1.7c0,1.7-2.5,3.5-4.6,3.5C196.7,70.7,195.7,70.1,195.7,69z"/>
</g>
<rect x="251.5" y="55.4" width="10.5" height="0.8"/>
<rect x="251.5" y="50.4" width="10.5" height="0.8"/>
<rect x="253.3" y="51.6" width="0.5" height="31.5"/>
<g>
	<path d="M253.4,51.6c0-1.8,2.5-3.5,4.5-3.5c1.3,0,2.3,0.7,2.3,1.7c0,1.7-2.5,3.5-4.6,3.5C254.4,53.4,253.4,52.7,253.4,51.6z"/>
</g>
<g>
	<path d="M253.4,56.6c0-1.8,2.5-3.5,4.5-3.5c1.3,0,2.3,0.7,2.3,1.7c0,1.7-2.5,3.5-4.6,3.5C254.4,58.3,253.4,57.7,253.4,56.6z"/>
</g>
<g>
	<path d="M253.4,61.6c0-1.8,2.5-3.5,4.5-3.5c1.3,0,2.3,0.7,2.3,1.7c0,1.7-2.5,3.5-4.6,3.5C254.4,63.3,253.4,62.7,253.4,61.6z"/>
</g>
<g>
	<path d="M253.4,66.5c0-1.8,2.5-3.5,4.5-3.5c1.3,0,2.3,0.7,2.3,1.7c0,1.7-2.5,3.5-4.6,3.5C254.4,68.3,253.4,67.6,253.4,66.5z"/>
</g>
<rect x="302.8" y="55.4" width="10.5" height="0.8"/>
<rect x="304.6" y="56.5" width="0.5" height="29"/>
<g>
	<path d="M304.7,56.6c0-1.8,2.5-3.5,4.5-3.5c1.3,0,2.3,0.7,2.3,1.7c0,1.7-2.5,3.5-4.6,3.5C305.7,58.3,304.7,57.7,304.7,56.6z"/>
</g>
<g>
	<path d="M304.7,61.6c0-1.8,2.5-3.5,4.5-3.5c1.3,0,2.3,0.7,2.3,1.7c0,1.7-2.5,3.5-4.6,3.5C305.7,63.3,304.7,62.7,304.7,61.6z"/>
</g>
<g>
	<path d="M304.7,66.5c0-1.8,2.5-3.5,4.5-3.5c1.3,0,2.3,0.7,2.3,1.7c0,1.7-2.5,3.5-4.6,3.5C305.7,68.3,304.7,67.6,304.7,66.5z"/>
</g>
<g>
	<path d="M298.3,69c0-1.8,2.5-3.5,4.5-3.5c1.3,0,2.3,0.7,2.3,1.7c0,1.7-2.5,3.5-4.6,3.5C299.3,70.7,298.3,70.1,298.3,69z"/>
</g>
<rect x="355.8" y="61.5" width="0.5" height="27.7"/>
<g>
	<path d="M355.8,61.6c0-1.8,2.5-3.5,4.5-3.5c1.3,0,2.3,0.7,2.3,1.7c0,1.7-2.5,3.5-4.6,3.5C356.8,63.3,355.8,62.7,355.8,61.6z"/>
</g>
<g>
	<path d="M355.8,66.5c0-1.8,2.5-3.5,4.5-3.5c1.3,0,2.3,0.7,2.3,1.7c0,1.7-2.5,3.5-4.6,3.5C356.8,68.3,355.8,67.6,355.8,66.5z"/>
</g>
<g>
	<path d="M349.5,69c0-1.8,2.5-3.5,4.5-3.5c1.3,0,2.3,0.7,2.3,1.7c0,1.7-2.5,3.5-4.6,3.5C350.5,70.7,349.5,70.1,349.5,69z"/>
</g>
<g>
	<path d="M355.8,74c0-1.8,2.5-3.5,4.5-3.5c1.3,0,2.3,0.7,2.3,1.7c0,1.7-2.5,3.5-4.6,3.5C356.8,75.7,355.8,75.1,355.8,74z"/>
</g>
<rect x="413.6" y="50.8" width="0.5" height="26.5"/>
<g>
	<path d="M407.2,78.9c0-1.8,2.5-3.5,4.5-3.5c1.3,0,2.3,0.7,2.3,1.7c0,1.7-2.5,3.5-4.6,3.5C408.1,80.7,407.2,80,407.2,78.9z"/>
</g>
<g>
	<path d="M407.2,74c0-1.8,2.5-3.5,4.5-3.5c1.3,0,2.3,0.7,2.3,1.7c0,1.7-2.5,3.5-4.6,3.5C408.1,75.7,407.2,75.1,407.2,74z"/>
</g>
<g>
	<path d="M407.2,69c0-1.8,2.5-3.5,4.5-3.5c1.3,0,2.3,0.7,2.3,1.7c0,1.7-2.5,3.5-4.6,3.5C408.1,70.7,407.2,70.1,407.2,69z"/>
</g>
<g>
	<path d="M413.5,66.5c0-1.8,2.5-3.5,4.5-3.5c1.3,0,2.3,0.7,2.3,1.7c0,1.7-2.5,3.5-4.6,3.5C414.5,68.3,413.5,67.6,413.5,66.5z"/>
</g>
<rect x="465.1" y="52" width="0.5" height="30.2"/>
<g>
	<path d="M462.7,80.3c1.6,0,2.7,0.7,2.7,2c0,1.9-2.3,3.4-4.5,3.4c-1.3,0-2.4-0.7-2.4-1.8C458.5,82.1,460.7,80.3,462.7,80.3z
		 M458.9,84.2c0,0.6,0.4,0.9,1.1,0.9c1.4,0,4.9-2.1,4.9-3.3c0-0.6-0.4-0.9-1.1-0.9C462.6,80.9,458.9,83,458.9,84.2z"/>
</g>
<g>
	<path d="M462.7,75.4c1.6,0,2.7,0.7,2.7,2c0,1.9-2.3,3.4-4.5,3.4c-1.3,0-2.4-0.7-2.4-1.8C458.5,77.2,460.7,75.4,462.7,75.4z
		 M458.9,79.2c0,0.6,0.4,0.9,1.1,0.9c1.4,0,4.9-2.1,4.9-3.3c0-0.6-0.4-0.9-1.1-0.9C462.6,76,458.9,78,458.9,79.2z"/>
</g>
<g>
	<path d="M462.7,70.4c1.6,0,2.7,0.7,2.7,2c0,1.9-2.3,3.4-4.5,3.4c-1.3,0-2.4-0.7-2.4-1.8C458.5,72.2,460.7,70.4,462.7,70.4z
		 M458.9,74.3c0,0.6,0.4,0.9,1.1,0.9c1.4,0,4.9-2.1,4.9-3.3c0-0.6-0.4-0.9-1.1-0.9C462.6,71,458.9,73,458.9,74.3z"/>
</g>
<g>
	<path d="M462.7,65.5c1.6,0,2.7,0.7,2.7,2c0,1.9-2.3,3.4-4.5,3.4c-1.3,0-2.4-0.7-2.4-1.8C458.5,67.2,460.7,65.5,462.7,65.5z
		 M458.9,69.3c0,0.6,0.4,0.9,1.1,0.9c1.4,0,4.9-2.1,4.9-3.3c0-0.6-0.4-0.9-1.1-0.9C462.6,66.1,458.9,68.1,458.9,69.3z"/>
</g>
</svg>
