<?xml version="1.0" encoding="utf-8"?>

<!--
	ScaleBook
	Copyright (c) Leland Jansen 2015. All rights reserved.
-->

<!DOCTYPE svg PUBLIC "-//W3C//DTD SVG 1.1//EN" "http://www.w3.org/Graphics/SVG/1.1/DTD/svg11.dtd">
<svg version="1.1" id="Layer_1" xmlns="http://www.w3.org/2000/svg" xmlns:xlink="http://www.w3.org/1999/xlink" x="0px" y="0px"
	 viewBox="0 0 553 89.6" enable-background="new 0 0 553 89.6" xml:space="preserve">
<rect x="8.5" y="9.9" width="0.8" height="69.8"/>
<g>
	<path d="M7.6,10.6c-2,1.1-3.7,6-3.7,9.8c0,2.4,1.4,10.3,1.4,12.8c0,5.2-1.6,9-4.7,11.6c3.1,2.5,4.7,6.3,4.7,11.5
		c0,2.4-1.4,10.3-1.4,12.8c0,4,1.8,8.8,3.7,9.9v0.7C4,77.3,1.7,71.1,1.7,66.1c0-2.2,1.8-9.8,1.8-12c0-4-1-6.8-3-8.6
		C0.1,45.2,0,45,0,44.8c0-0.2,0.1-0.4,0.5-0.7c2-1.7,3-4.4,3-7.9c0-2.2-1.8-10.5-1.8-12.7c0-5.4,2.1-10.8,5.9-13.6V10.6z"/>
</g>
<rect x="548" y="9.9" width="0.8" height="69.8"/>
<rect x="550.5" y="9.9" width="2.5" height="69.8"/>
<rect x="8.6" y="29.5" width="544.4" height="0.5"/>
<rect x="8.6" y="24.6" width="544.4" height="0.5"/>
<rect x="8.6" y="19.6" width="544.4" height="0.5"/>
<rect x="8.6" y="14.6" width="544.4" height="0.5"/>
<rect x="8.6" y="9.7" width="544.4" height="0.5"/>
<g>
	<path d="M20.4,29.6c-4.2,0-8.1-3.1-8.1-6.9c0-3.2,2.3-6.7,6.8-10.5c-0.3-1.2-0.4-2.4-0.4-3.6c0-3.5,1.2-6.8,3.2-8.5
		c1.8,2.5,2.7,4.9,2.7,7.1c0,2.9-1.3,5.6-4.3,8.1l0.9,4.2c0.5,0,0.8-0.1,0.8-0.1c2.6,0,4.8,2,4.8,4.7c0,1.9-1.4,3.7-3.6,4.8
		c0-0.1,0.9,3.8,0.9,4.3c0,2.5-2.3,4.2-4.9,4.2c-2,0-3.6-1.3-3.6-3.4c0-1.4,1-2.6,2.4-2.6c1.3,0,2.3,1.3,2.3,2.5
		c0,1.4-1.2,2.3-2.7,2.5c0.6,0.3,1.2,0.5,1.9,0.5c2.1,0,4.1-1.6,4.1-3.6c0-0.2,0-0.4-0.1-0.6l-0.8-3.7
		C22.1,29.5,21.4,29.6,20.4,29.6z M18.2,24.4c0,1,0.5,1.9,1.6,2.5c-1.8-0.3-3-1.4-3-3.1c0-2,1.7-3.7,3.8-4.1l-0.8-4
		c-3.7,2.8-5.7,5.5-5.7,8.1c0,2.9,2.8,5.3,6,5.3c0.9,0,1.7-0.2,2.4-0.5l-1.4-6.8C19.5,22,18.2,23,18.2,24.4z M22.3,3
		c-1.6,0-2.9,3.7-2.9,7c0,0.7,0,1.3,0.2,1.9c2.7-2.4,4-4.5,4-6.5c0-0.9-0.3-1.7-1-2.4C22.5,3.1,22.4,3,22.3,3z M25,24.9
		c0-1.6-1.2-3.3-2.9-3.3c-0.1,0-0.2,0-0.5,0l1.4,6.6C24.4,27.4,25,26.2,25,24.9z"/>
</g>
<g>
	<path d="M33.6,3.1v2.8l1-0.3v1.8l-1,0.3v3.4l1-0.3v1.8l-1,0.3v3.1h-0.5v-3l-1.9,0.6v3h-0.5v-2.8l-1,0.3v-1.8l1-0.3V8.7l-1,0.3V7.2
		l1-0.3V3.7h0.5v3l1.9-0.6v-3H33.6z M33.1,7.9l-1.9,0.6v3.4l1.9-0.6V7.9z"/>
</g>
<g>
	<path d="M39.8,10.5v2.8l1-0.3v1.8l-1,0.3v3.4l1-0.3v1.8l-1,0.3v3.1h-0.5v-3l-1.9,0.6v3h-0.5v-2.8l-1,0.3v-1.8l1-0.3v-3.4l-1,0.3
		v-1.8l1-0.3v-3.1h0.5v3l1.9-0.6v-3H39.8z M39.3,15.3L37.4,16v3.4l1.9-0.6V15.3z"/>
</g>
<g>
	<path d="M46,0.6v2.8l1-0.3v1.8l-1,0.3v3.4l1-0.3v1.8l-1,0.3v3.1h-0.5v-3l-1.9,0.6v3h-0.5v-2.8l-1,0.3V9.9l1-0.3V6.2l-1,0.3V4.7
		l1-0.3V1.3h0.5v3l1.9-0.6v-3H46z M45.5,5.4L43.6,6v3.4l1.9-0.6V5.4z"/>
</g>
<g>
	<path d="M52.2,8.1v2.8l1-0.3v1.8l-1,0.3v3.4l1-0.3v1.8l-1,0.3V21h-0.5v-3l-1.9,0.6v3h-0.5v-2.8l-1,0.3v-1.8l1-0.3v-3.4l-1,0.3v-1.8
		l1-0.3V8.7h0.5v3l1.9-0.6v-3H52.2z M51.7,12.8l-1.9,0.6v3.4l1.9-0.6V12.8z"/>
</g>
<g>
	<path d="M58.4,15.5v2.8l1-0.3v1.8l-1,0.3v3.4l1-0.3V25l-1,0.3v3.1h-0.5v-3L56,26.1v3h-0.5v-2.8l-1,0.3v-1.8l1-0.3v-3.4l-1,0.3v-1.8
		l1-0.3v-3.1H56v3l1.9-0.6v-3H58.4z M57.9,20.3L56,20.9v3.4l1.9-0.6V20.3z"/>
</g>
<g>
	<path d="M64.6,5.6v2.8l1-0.3v1.8l-1,0.3v3.4l1-0.3v1.8l-1,0.3v3.1h-0.5v-3l-1.9,0.6v3h-0.5v-2.8l-1,0.3v-1.8l1-0.3v-3.4l-1,0.3V9.7
		l1-0.3V6.2h0.5v3l1.9-0.6v-3H64.6z M64.1,10.4L62.2,11v3.4l1.9-0.6V10.4z"/>
</g>
<g>
	<path d="M70.8,13v2.8l1-0.3v1.8l-1,0.3v3.4l1-0.3v1.8l-1,0.3V26h-0.5v-3l-1.9,0.6v3h-0.5v-2.8l-1,0.3v-1.8l1-0.3v-3.4l-1,0.3v-1.8
		l1-0.3v-3.1h0.5v3l1.9-0.6v-3H70.8z M70.3,17.8l-1.9,0.6v3.4l1.9-0.6V17.8z"/>
</g>
<rect x="8.6" y="79.4" width="544.4" height="0.5"/>
<rect x="8.6" y="74.5" width="544.4" height="0.5"/>
<rect x="8.6" y="69.5" width="544.4" height="0.5"/>
<rect x="8.6" y="64.6" width="544.4" height="0.5"/>
<rect x="8.6" y="59.6" width="544.4" height="0.5"/>
<g>
	<path d="M15.9,74c2.9-2.6,4.7-6.1,4.7-9.2c0-2.5-1.4-4.4-3.7-4.4c-1.6,0-3.4,1.3-3.4,2.7c0,0.2,0,0.3,0.1,0.3
		c-0.1,0,0.6-0.6,1.4-0.6c0.9,0,1.5,0.8,1.5,1.7c0,1.2-0.9,2.2-2.1,2.2c-1.2,0-2.1-1.3-2.1-2.8c0-2.3,2.3-4.1,4.8-4.1
		c4.7,0,5.9,3.2,5.9,5.8c0,1.6-0.4,2.9-2,5.3c-1.9,3.1-6.4,5.3-8.1,5.3c-0.4,0-0.6-0.2-0.6-0.5C14,75.3,15.1,74.7,15.9,74z
		 M25.8,61.3c0.6,0,1,0.4,1,1c0,0.6-0.4,1-1,1s-1-0.4-1-1C24.8,61.8,25.3,61.3,25.8,61.3z M25.8,66.3c0.6,0,1,0.4,1,1
		c0,0.6-0.4,1-1,1s-1-0.4-1-1C24.8,66.7,25.3,66.3,25.8,66.3z"/>
</g>
<g>
	<path d="M33.6,58v2.8l1-0.3v1.8l-1,0.3V66l1-0.3v1.8l-1,0.3V71h-0.5v-3l-1.9,0.6v3h-0.5v-2.8l-1,0.3v-1.8l1-0.3v-3.4l-1,0.3v-1.8
		l1-0.3v-3.1h0.5v3l1.9-0.6v-3H33.6z M33.1,62.8l-1.9,0.6v3.4l1.9-0.6V62.8z"/>
</g>
<g>
	<path d="M39.8,65.4v2.8l1-0.3v1.8l-1,0.3v3.4l1-0.3V75l-1,0.3v3.1h-0.5v-3l-1.9,0.6v3h-0.5v-2.8l-1,0.3v-1.8l1-0.3V71l-1,0.3v-1.8
		l1-0.3V66h0.5v3l1.9-0.6v-3H39.8z M39.3,70.2l-1.9,0.6v3.4l1.9-0.6V70.2z"/>
</g>
<g>
	<path d="M46,55.5v2.8l1-0.3v1.8l-1,0.3v3.4l1-0.3V65l-1,0.3v3.1h-0.5v-3l-1.9,0.6v3h-0.5v-2.8l-1,0.3v-1.8l1-0.3V61l-1,0.3v-1.8
		l1-0.3v-3.1h0.5v3l1.9-0.6v-3H46z M45.5,60.3l-1.9,0.6v3.4l1.9-0.6V60.3z"/>
</g>
<g>
	<path d="M52.2,62.9v2.8l1-0.3v1.8l-1,0.3V71l1-0.3v1.8l-1,0.3v3.1h-0.5v-3l-1.9,0.6v3h-0.5v-2.8l-1,0.3v-1.8l1-0.3v-3.4l-1,0.3V67
		l1-0.3v-3.1h0.5v3l1.9-0.6v-3H52.2z M51.7,67.7l-1.9,0.6v3.4l1.9-0.6V67.7z"/>
</g>
<g>
	<path d="M58.4,70.4v2.8l1-0.3v1.8l-1,0.3v3.4l1-0.3v1.8l-1,0.3v3.1h-0.5v-3L56,81v3h-0.5v-2.8l-1,0.3v-1.8l1-0.3v-3.4l-1,0.3v-1.8
		l1-0.3V71H56v3l1.9-0.6v-3H58.4z M57.9,75.2L56,75.8v3.4l1.9-0.6V75.2z"/>
</g>
<g>
	<path d="M64.6,60.5v2.8l1-0.3v1.8l-1,0.3v3.4l1-0.3V70l-1,0.3v3.1h-0.5v-3l-1.9,0.6v3h-0.5v-2.8l-1,0.3v-1.8l1-0.3V66l-1,0.3v-1.8
		l1-0.3v-3.1h0.5v3l1.9-0.6v-3H64.6z M64.1,65.2l-1.9,0.6v3.4l1.9-0.6V65.2z"/>
</g>
<g>
	<path d="M70.8,67.9v2.8l1-0.3v1.8l-1,0.3V76l1-0.3v1.8l-1,0.3v3.1h-0.5v-3l-1.9,0.6v3h-0.5v-2.8l-1,0.3v-1.8l1-0.3v-3.4l-1,0.3V72
		l1-0.3v-3.1h0.5v3l1.9-0.6v-3H70.8z M70.3,72.7l-1.9,0.6v3.4l1.9-0.6V72.7z"/>
</g>
<rect x="78.7" y="34.3" width="10.5" height="0.8"/>
<rect x="78.7" y="39.3" width="10.5" height="0.8"/>
<rect x="87" y="9.9" width="0.5" height="31.5"/>
<g>
	<path d="M80.5,43c0-1.8,2.5-3.5,4.5-3.5c1.3,0,2.3,0.7,2.3,1.7c0,1.7-2.5,3.5-4.6,3.5C81.5,44.7,80.5,44.1,80.5,43z"/>
</g>
<g>
	<path d="M80.5,38.1c0-1.8,2.5-3.5,4.5-3.5c1.3,0,2.3,0.7,2.3,1.7c0,1.7-2.5,3.5-4.6,3.5C81.5,39.8,80.5,39.1,80.5,38.1z"/>
</g>
<g>
	<path d="M80.5,33.1c0-1.8,2.5-3.5,4.5-3.5c1.3,0,2.3,0.7,2.3,1.7c0,1.7-2.5,3.5-4.6,3.5C81.5,34.8,80.5,34.2,80.5,33.1z"/>
</g>
<g>
	<path d="M80.5,28.1c0-1.8,2.5-3.5,4.5-3.5c1.3,0,2.3,0.7,2.3,1.7c0,1.7-2.5,3.5-4.6,3.5C81.5,29.9,80.5,29.2,80.5,28.1z"/>
</g>
<rect x="126.6" y="34.3" width="10.5" height="0.8"/>
<rect x="134.9" y="7.4" width="0.5" height="29"/>
<g>
	<path d="M128.4,38.1c0-1.8,2.5-3.5,4.5-3.5c1.3,0,2.3,0.7,2.3,1.7c0,1.7-2.5,3.5-4.6,3.5C129.4,39.8,128.4,39.1,128.4,38.1z"/>
</g>
<g>
	<path d="M128.4,33.1c0-1.8,2.5-3.5,4.5-3.5c1.3,0,2.3,0.7,2.3,1.7c0,1.7-2.5,3.5-4.6,3.5C129.4,34.8,128.4,34.2,128.4,33.1z"/>
</g>
<g>
	<path d="M128.4,28.1c0-1.8,2.5-3.5,4.5-3.5c1.3,0,2.3,0.7,2.3,1.7c0,1.7-2.5,3.5-4.6,3.5C129.4,29.9,128.4,29.2,128.4,28.1z"/>
</g>
<g>
	<path d="M134.8,25.7c0-1.8,2.5-3.5,4.5-3.5c1.3,0,2.3,0.7,2.3,1.7c0,1.7-2.5,3.5-4.6,3.5C135.8,27.4,134.8,26.7,134.8,25.7z"/>
</g>
<rect x="182.9" y="2.5" width="0.5" height="29"/>
<g>
	<path d="M176.5,33.1c0-1.8,2.5-3.5,4.5-3.5c1.3,0,2.3,0.7,2.3,1.7c0,1.7-2.5,3.5-4.6,3.5C177.5,34.8,176.5,34.2,176.5,33.1z"/>
</g>
<g>
	<path d="M176.5,28.1c0-1.8,2.5-3.5,4.5-3.5c1.3,0,2.3,0.7,2.3,1.7c0,1.7-2.5,3.5-4.6,3.5C177.5,29.9,176.5,29.2,176.5,28.1z"/>
</g>
<g>
	<path d="M182.9,25.7c0-1.8,2.5-3.5,4.5-3.5c1.3,0,2.3,0.7,2.3,1.7c0,1.7-2.5,3.5-4.6,3.5C183.8,27.4,182.9,26.7,182.9,25.7z"/>
</g>
<g>
	<path d="M176.5,20.7c0-1.8,2.5-3.5,4.5-3.5c1.3,0,2.3,0.7,2.3,1.7c0,1.7-2.5,3.5-4.6,3.5C177.5,22.4,176.5,21.8,176.5,20.7z"/>
</g>
<rect x="230.8" width="0.5" height="26.5"/>
<g>
	<path d="M224.4,28.1c0-1.8,2.5-3.5,4.5-3.5c1.3,0,2.3,0.7,2.3,1.7c0,1.7-2.5,3.5-4.6,3.5C225.4,29.9,224.4,29.2,224.4,28.1z"/>
</g>
<g>
	<path d="M230.8,25.7c0-1.8,2.5-3.5,4.5-3.5c1.3,0,2.3,0.7,2.3,1.7c0,1.7-2.5,3.5-4.6,3.5C231.7,27.4,230.8,26.7,230.8,25.7z"/>
</g>
<g>
	<path d="M224.4,20.7c0-1.8,2.5-3.5,4.5-3.5c1.3,0,2.3,0.7,2.3,1.7c0,1.7-2.5,3.5-4.6,3.5C225.4,22.4,224.4,21.8,224.4,20.7z"/>
</g>
<g>
	<path d="M224.4,15.7c0-1.8,2.5-3.5,4.5-3.5c1.3,0,2.3,0.7,2.3,1.7c0,1.7-2.5,3.5-4.6,3.5C225.4,17.5,224.4,16.8,224.4,15.7z"/>
</g>
<rect x="272.2" y="10.7" width="0.5" height="29"/>
<g>
	<path d="M272.3,10.8c0-1.8,2.5-3.5,4.5-3.5c1.3,0,2.3,0.7,2.3,1.7c0,1.7-2.5,3.5-4.6,3.5C273.3,12.5,272.3,11.9,272.3,10.8z"/>
</g>
<g>
	<path d="M272.3,15.7c0-1.8,2.5-3.5,4.5-3.5c1.3,0,2.3,0.7,2.3,1.7c0,1.7-2.5,3.5-4.6,3.5C273.3,17.5,272.3,16.8,272.3,15.7z"/>
</g>
<g>
	<path d="M272.3,20.7c0-1.8,2.5-3.5,4.5-3.5c1.3,0,2.3,0.7,2.3,1.7c0,1.7-2.5,3.5-4.6,3.5C273.3,22.4,272.3,21.8,272.3,20.7z"/>
</g>
<g>
	<path d="M272.3,25.7c0-1.8,2.5-3.5,4.5-3.5c1.3,0,2.3,0.7,2.3,1.7c0,1.7-2.5,3.5-4.6,3.5C273.3,27.4,272.3,26.7,272.3,25.7z"/>
</g>
<rect x="326.6" width="0.5" height="26.5"/>
<g>
	<path d="M320.2,28.1c0-1.8,2.5-3.5,4.5-3.5c1.3,0,2.3,0.7,2.3,1.7c0,1.7-2.5,3.5-4.6,3.5C321.2,29.9,320.2,29.2,320.2,28.1z"/>
</g>
<g>
	<path d="M326.5,25.7c0-1.8,2.5-3.5,4.5-3.5c1.3,0,2.3,0.7,2.3,1.7c0,1.7-2.5,3.5-4.6,3.5C327.5,27.4,326.5,26.7,326.5,25.7z"/>
</g>
<g>
	<path d="M320.2,20.7c0-1.8,2.5-3.5,4.5-3.5c1.3,0,2.3,0.7,2.3,1.7c0,1.7-2.5,3.5-4.6,3.5C321.2,22.4,320.2,21.8,320.2,20.7z"/>
</g>
<g>
	<path d="M320.2,15.7c0-1.8,2.5-3.5,4.5-3.5c1.3,0,2.3,0.7,2.3,1.7c0,1.7-2.5,3.5-4.6,3.5C321.2,17.5,320.2,16.8,320.2,15.7z"/>
</g>
<rect x="374.7" y="2.5" width="0.5" height="29"/>
<g>
	<path d="M368.2,33.1c0-1.8,2.5-3.5,4.5-3.5c1.3,0,2.3,0.7,2.3,1.7c0,1.7-2.5,3.5-4.6,3.5C369.2,34.8,368.2,34.2,368.2,33.1z"/>
</g>
<g>
	<path d="M368.2,28.1c0-1.8,2.5-3.5,4.5-3.5c1.3,0,2.3,0.7,2.3,1.7c0,1.7-2.5,3.5-4.6,3.5C369.2,29.9,368.2,29.2,368.2,28.1z"/>
</g>
<g>
	<path d="M374.6,25.7c0-1.8,2.5-3.5,4.5-3.5c1.3,0,2.3,0.7,2.3,1.7c0,1.7-2.5,3.5-4.6,3.5C375.6,27.4,374.6,26.7,374.6,25.7z"/>
</g>
<g>
	<path d="M368.2,20.7c0-1.8,2.5-3.5,4.5-3.5c1.3,0,2.3,0.7,2.3,1.7c0,1.7-2.5,3.5-4.6,3.5C369.2,22.4,368.2,21.8,368.2,20.7z"/>
</g>
<rect x="414.3" y="34.3" width="10.5" height="0.8"/>
<rect x="422.6" y="7.4" width="0.5" height="29"/>
<g>
	<path d="M416.1,38.1c0-1.8,2.5-3.5,4.5-3.5c1.3,0,2.3,0.7,2.3,1.7c0,1.7-2.5,3.5-4.6,3.5C417.1,39.8,416.1,39.1,416.1,38.1z"/>
</g>
<g>
	<path d="M416.1,33.1c0-1.8,2.5-3.5,4.5-3.5c1.3,0,2.3,0.7,2.3,1.7c0,1.7-2.5,3.5-4.6,3.5C417.1,34.8,416.1,34.2,416.1,33.1z"/>
</g>
<g>
	<path d="M416.1,28.1c0-1.8,2.5-3.5,4.5-3.5c1.3,0,2.3,0.7,2.3,1.7c0,1.7-2.5,3.5-4.6,3.5C417.1,29.9,416.1,29.2,416.1,28.1z"/>
</g>
<g>
	<path d="M422.5,25.7c0-1.8,2.5-3.5,4.5-3.5c1.3,0,2.3,0.7,2.3,1.7c0,1.7-2.5,3.5-4.6,3.5C423.5,27.4,422.5,26.7,422.5,25.7z"/>
</g>
<rect x="462.2" y="34.3" width="10.7" height="0.8"/>
<rect x="462.2" y="39.3" width="10.7" height="0.8"/>
<rect x="470.6" y="9.9" width="0.5" height="31.5"/>
<g>
	<path d="M468.3,39.5c1.6,0,2.7,0.7,2.7,2c0,1.9-2.3,3.4-4.5,3.4c-1.3,0-2.4-0.7-2.4-1.8C464,41.2,466.3,39.5,468.3,39.5z
		 M464.5,43.3c0,0.6,0.4,0.9,1.1,0.9c1.4,0,4.9-2.1,4.9-3.3c0-0.6-0.4-0.9-1.1-0.9C468.2,40.1,464.5,42.1,464.5,43.3z"/>
</g>
<g>
	<path d="M468.3,34.5c1.6,0,2.7,0.7,2.7,2c0,1.9-2.3,3.4-4.5,3.4c-1.3,0-2.4-0.7-2.4-1.8C464,36.3,466.3,34.5,468.3,34.5z
		 M464.5,38.4c0,0.6,0.4,0.9,1.1,0.9c1.4,0,4.9-2.1,4.9-3.3c0-0.6-0.4-0.9-1.1-0.9C468.2,35.1,464.5,37.1,464.5,38.4z"/>
</g>
<g>
	<path d="M468.3,29.5c1.6,0,2.7,0.7,2.7,2c0,1.9-2.3,3.4-4.5,3.4c-1.3,0-2.4-0.7-2.4-1.8C464,31.3,466.3,29.5,468.3,29.5z
		 M464.5,33.4c0,0.6,0.4,0.9,1.1,0.9c1.4,0,4.9-2.1,4.9-3.3c0-0.6-0.4-0.9-1.1-0.9C468.2,30.1,464.5,32.2,464.5,33.4z"/>
</g>
<g>
	<path d="M468.3,24.6c1.6,0,2.7,0.7,2.7,2c0,1.9-2.3,3.4-4.5,3.4c-1.3,0-2.4-0.7-2.4-1.8C464,26.4,466.3,24.6,468.3,24.6z
		 M464.5,28.4c0,0.6,0.4,0.9,1.1,0.9c1.4,0,4.9-2.1,4.9-3.3c0-0.6-0.4-0.9-1.1-0.9C468.2,25.2,464.5,27.2,464.5,28.4z"/>
</g>
<rect x="87" y="49.9" width="0.5" height="29"/>
<g>
	<path d="M80.5,80.5c0-1.8,2.5-3.5,4.5-3.5c1.3,0,2.3,0.7,2.3,1.7c0,1.7-2.5,3.5-4.6,3.5C81.5,82.3,80.5,81.6,80.5,80.5z"/>
</g>
<g>
	<path d="M80.5,75.6c0-1.8,2.5-3.5,4.5-3.5c1.3,0,2.3,0.7,2.3,1.7c0,1.7-2.5,3.5-4.6,3.5C81.5,77.3,80.5,76.7,80.5,75.6z"/>
</g>
<g>
	<path d="M80.5,70.6c0-1.8,2.5-3.5,4.5-3.5c1.3,0,2.3,0.7,2.3,1.7c0,1.7-2.5,3.5-4.6,3.5C81.5,72.3,80.5,71.7,80.5,70.6z"/>
</g>
<g>
	<path d="M80.5,65.6c0-1.8,2.5-3.5,4.5-3.5c1.3,0,2.3,0.7,2.3,1.7c0,1.7-2.5,3.5-4.6,3.5C81.5,67.4,80.5,66.7,80.5,65.6z"/>
</g>
<rect x="128.4" y="63.1" width="0.5" height="26.5"/>
<g>
	<path d="M128.4,63.2c0-1.8,2.5-3.5,4.5-3.5c1.3,0,2.3,0.7,2.3,1.7c0,1.7-2.5,3.5-4.6,3.5C129.4,64.9,128.4,64.3,128.4,63.2z"/>
</g>
<g>
	<path d="M122.1,65.6c0-1.8,2.5-3.5,4.5-3.5c1.3,0,2.3,0.7,2.3,1.7c0,1.7-2.5,3.5-4.6,3.5C123.1,67.4,122.1,66.7,122.1,65.6z"/>
</g>
<g>
	<path d="M128.4,70.6c0-1.8,2.5-3.5,4.5-3.5c1.3,0,2.3,0.7,2.3,1.7c0,1.7-2.5,3.5-4.6,3.5C129.4,72.3,128.4,71.7,128.4,70.6z"/>
</g>
<g>
	<path d="M128.4,75.6c0-1.8,2.5-3.5,4.5-3.5c1.3,0,2.3,0.7,2.3,1.7c0,1.7-2.5,3.5-4.6,3.5C129.4,77.3,128.4,76.7,128.4,75.6z"/>
</g>
<rect x="176.4" y="58.1" width="0.5" height="29"/>
<g>
	<path d="M176.5,58.2c0-1.8,2.5-3.5,4.5-3.5c1.3,0,2.3,0.7,2.3,1.7c0,1.7-2.5,3.5-4.6,3.5C177.5,59.9,176.5,59.3,176.5,58.2z"/>
</g>
<g>
	<path d="M176.5,63.2c0-1.8,2.5-3.5,4.5-3.5c1.3,0,2.3,0.7,2.3,1.7c0,1.7-2.5,3.5-4.6,3.5C177.5,64.9,176.5,64.3,176.5,63.2z"/>
</g>
<g>
	<path d="M170.1,65.6c0-1.8,2.5-3.5,4.5-3.5c1.3,0,2.3,0.7,2.3,1.7c0,1.7-2.5,3.5-4.6,3.5C171.1,67.4,170.1,66.7,170.1,65.6z"/>
</g>
<g>
	<path d="M176.5,70.6c0-1.8,2.5-3.5,4.5-3.5c1.3,0,2.3,0.7,2.3,1.7c0,1.7-2.5,3.5-4.6,3.5C177.5,72.3,176.5,71.7,176.5,70.6z"/>
</g>
<rect x="222.5" y="54.5" width="10.5" height="0.8"/>
<rect x="224.3" y="53.2" width="0.5" height="29"/>
<g>
	<path d="M224.4,53.2c0-1.8,2.5-3.5,4.5-3.5c1.3,0,2.3,0.7,2.3,1.7c0,1.7-2.5,3.5-4.6,3.5C225.4,55,224.4,54.3,224.4,53.2z"/>
</g>
<g>
	<path d="M224.4,58.2c0-1.8,2.5-3.5,4.5-3.5c1.3,0,2.3,0.7,2.3,1.7c0,1.7-2.5,3.5-4.6,3.5C225.4,59.9,224.4,59.3,224.4,58.2z"/>
</g>
<g>
	<path d="M224.4,63.2c0-1.8,2.5-3.5,4.5-3.5c1.3,0,2.3,0.7,2.3,1.7c0,1.7-2.5,3.5-4.6,3.5C225.4,64.9,224.4,64.3,224.4,63.2z"/>
</g>
<g>
	<path d="M218,65.6c0-1.8,2.5-3.5,4.5-3.5c1.3,0,2.3,0.7,2.3,1.7c0,1.7-2.5,3.5-4.6,3.5C219,67.4,218,66.7,218,65.6z"/>
</g>
<rect x="270.4" y="54.5" width="10.5" height="0.8"/>
<rect x="270.4" y="49.5" width="10.5" height="0.8"/>
<rect x="272.2" y="48.2" width="0.5" height="31.5"/>
<g>
	<path d="M272.3,48.3c0-1.8,2.5-3.5,4.5-3.5c1.3,0,2.3,0.7,2.3,1.7c0,1.7-2.5,3.5-4.6,3.5C273.3,50,272.3,49.4,272.3,48.3z"/>
</g>
<g>
	<path d="M272.3,53.2c0-1.8,2.5-3.5,4.5-3.5c1.3,0,2.3,0.7,2.3,1.7c0,1.7-2.5,3.5-4.6,3.5C273.3,55,272.3,54.3,272.3,53.2z"/>
</g>
<g>
	<path d="M272.3,58.2c0-1.8,2.5-3.5,4.5-3.5c1.3,0,2.3,0.7,2.3,1.7c0,1.7-2.5,3.5-4.6,3.5C273.3,59.9,272.3,59.3,272.3,58.2z"/>
</g>
<g>
	<path d="M272.3,63.2c0-1.8,2.5-3.5,4.5-3.5c1.3,0,2.3,0.7,2.3,1.7c0,1.7-2.5,3.5-4.6,3.5C273.3,64.9,272.3,64.3,272.3,63.2z"/>
</g>
<rect x="318.3" y="54.5" width="10.5" height="0.8"/>
<rect x="320.1" y="53.2" width="0.5" height="29"/>
<g>
	<path d="M320.2,53.2c0-1.8,2.5-3.5,4.5-3.5c1.3,0,2.3,0.7,2.3,1.7c0,1.7-2.5,3.5-4.6,3.5C321.2,55,320.2,54.3,320.2,53.2z"/>
</g>
<g>
	<path d="M320.2,58.2c0-1.8,2.5-3.5,4.5-3.5c1.3,0,2.3,0.7,2.3,1.7c0,1.7-2.5,3.5-4.6,3.5C321.2,59.9,320.2,59.3,320.2,58.2z"/>
</g>
<g>
	<path d="M320.2,63.2c0-1.8,2.5-3.5,4.5-3.5c1.3,0,2.3,0.7,2.3,1.7c0,1.7-2.5,3.5-4.6,3.5C321.2,64.9,320.2,64.3,320.2,63.2z"/>
</g>
<g>
	<path d="M313.8,65.6c0-1.8,2.5-3.5,4.5-3.5c1.3,0,2.3,0.7,2.3,1.7c0,1.7-2.5,3.5-4.6,3.5C314.8,67.4,313.8,66.7,313.8,65.6z"/>
</g>
<rect x="368.2" y="58.1" width="0.5" height="29"/>
<g>
	<path d="M368.2,58.2c0-1.8,2.5-3.5,4.5-3.5c1.3,0,2.3,0.7,2.3,1.7c0,1.7-2.5,3.5-4.6,3.5C369.2,59.9,368.2,59.3,368.2,58.2z"/>
</g>
<g>
	<path d="M368.2,63.2c0-1.8,2.5-3.5,4.5-3.5c1.3,0,2.3,0.7,2.3,1.7c0,1.7-2.5,3.5-4.6,3.5C369.2,64.9,368.2,64.3,368.2,63.2z"/>
</g>
<g>
	<path d="M361.9,65.6c0-1.8,2.5-3.5,4.5-3.5c1.3,0,2.3,0.7,2.3,1.7c0,1.7-2.5,3.5-4.6,3.5C362.9,67.4,361.9,66.7,361.9,65.6z"/>
</g>
<g>
	<path d="M368.2,70.6c0-1.8,2.5-3.5,4.5-3.5c1.3,0,2.3,0.7,2.3,1.7c0,1.7-2.5,3.5-4.6,3.5C369.2,72.3,368.2,71.7,368.2,70.6z"/>
</g>
<rect x="416.1" y="63.1" width="0.5" height="26.5"/>
<g>
	<path d="M416.1,63.2c0-1.8,2.5-3.5,4.5-3.5c1.3,0,2.3,0.7,2.3,1.7c0,1.7-2.5,3.5-4.6,3.5C417.1,64.9,416.1,64.3,416.1,63.2z"/>
</g>
<g>
	<path d="M409.8,65.6c0-1.8,2.5-3.5,4.5-3.5c1.3,0,2.3,0.7,2.3,1.7c0,1.7-2.5,3.5-4.6,3.5C410.8,67.4,409.8,66.7,409.8,65.6z"/>
</g>
<g>
	<path d="M416.1,70.6c0-1.8,2.5-3.5,4.5-3.5c1.3,0,2.3,0.7,2.3,1.7c0,1.7-2.5,3.5-4.6,3.5C417.1,72.3,416.1,71.7,416.1,70.6z"/>
</g>
<g>
	<path d="M416.1,75.6c0-1.8,2.5-3.5,4.5-3.5c1.3,0,2.3,0.7,2.3,1.7c0,1.7-2.5,3.5-4.6,3.5C417.1,77.3,416.1,76.7,416.1,75.6z"/>
</g>
<rect x="470.6" y="49.9" width="0.5" height="29"/>
<g>
	<path d="M468.3,77c1.6,0,2.7,0.7,2.7,2c0,1.9-2.3,3.4-4.5,3.4c-1.3,0-2.4-0.7-2.4-1.8C464,78.8,466.3,77,468.3,77z M464.5,80.8
		c0,0.6,0.4,0.9,1.1,0.9c1.4,0,4.9-2.1,4.9-3.3c0-0.6-0.4-0.9-1.1-0.9C468.2,77.6,464.5,79.6,464.5,80.8z"/>
</g>
<g>
	<path d="M468.3,72c1.6,0,2.7,0.7,2.7,2c0,1.9-2.3,3.4-4.5,3.4c-1.3,0-2.4-0.7-2.4-1.8C464,73.8,466.3,72,468.3,72z M464.5,75.9
		c0,0.6,0.4,0.9,1.1,0.9c1.4,0,4.9-2.1,4.9-3.3c0-0.6-0.4-0.9-1.1-0.9C468.2,72.6,464.5,74.6,464.5,75.9z"/>
</g>
<g>
	<path d="M468.3,67.1c1.6,0,2.7,0.7,2.7,2c0,1.9-2.3,3.4-4.5,3.4c-1.3,0-2.4-0.7-2.4-1.8C464,68.8,466.3,67.1,468.3,67.1z
		 M464.5,70.9c0,0.6,0.4,0.9,1.1,0.9c1.4,0,4.9-2.1,4.9-3.3c0-0.6-0.4-0.9-1.1-0.9C468.2,67.7,464.5,69.7,464.5,70.9z"/>
</g>
<g>
	<path d="M468.3,62.1c1.6,0,2.7,0.7,2.7,2c0,1.9-2.3,3.4-4.5,3.4c-1.3,0-2.4-0.7-2.4-1.8C464,63.9,466.3,62.1,468.3,62.1z
		 M464.5,65.9c0,0.6,0.4,0.9,1.1,0.9c1.4,0,4.9-2.1,4.9-3.3c0-0.6-0.4-0.9-1.1-0.9C468.2,62.7,464.5,64.7,464.5,65.9z"/>
</g>
</svg>
