<?xml version="1.0" encoding="utf-8"?>

<!--
	ScaleBook
	Copyright (c) Leland Jansen 2015. All rights reserved.
-->

<!DOCTYPE svg PUBLIC "-//W3C//DTD SVG 1.1//EN" "http://www.w3.org/Graphics/SVG/1.1/DTD/svg11.dtd">
<svg version="1.1" id="Layer_1" xmlns="http://www.w3.org/2000/svg" xmlns:xlink="http://www.w3.org/1999/xlink" x="0px" y="0px"
	 viewBox="0 0 553 91.9" enable-background="new 0 0 553 91.9" xml:space="preserve">
<rect x="8.5" y="9.7" width="0.8" height="71"/>
<g>
	<path d="M7.6,10.4c-2,1.1-3.7,6.1-3.7,10c0,2.4,1.4,10.5,1.4,13c0,5.3-1.6,9.2-4.7,11.8c3.1,2.6,4.7,6.5,4.7,11.7
		c0,2.4-1.4,10.5-1.4,13c0,4,1.8,8.9,3.7,10.1v0.7C4,78.3,1.7,72,1.7,66.9c0-2.3,1.8-9.9,1.8-12.2c0-4-1-7-3-8.7
		C0.1,45.6,0,45.4,0,45.2s0.1-0.4,0.5-0.7c2-1.8,3-4.5,3-8c0-2.3-1.8-10.6-1.8-12.9c0-5.5,2.1-11,5.9-13.8V10.4z"/>
</g>
<rect x="548" y="9.7" width="0.8" height="71"/>
<rect x="550.5" y="9.7" width="2.5" height="71"/>
<rect x="8.6" y="29.3" width="544.4" height="0.5"/>
<rect x="8.6" y="24.4" width="544.4" height="0.5"/>
<rect x="8.6" y="19.4" width="544.4" height="0.5"/>
<rect x="8.6" y="14.4" width="544.4" height="0.5"/>
<rect x="8.6" y="9.5" width="544.4" height="0.5"/>
<g>
	<path d="M20.4,29.4c-4.2,0-8.1-3.1-8.1-6.9c0-3.2,2.3-6.7,6.8-10.5c-0.3-1.2-0.4-2.4-0.4-3.6c0-3.5,1.2-6.8,3.2-8.5
		c1.8,2.5,2.7,4.9,2.7,7.1c0,2.9-1.3,5.6-4.3,8.1l0.9,4.2c0.5,0,0.8-0.1,0.8-0.1c2.6,0,4.8,2,4.8,4.7c0,1.9-1.4,3.7-3.6,4.8
		c0-0.1,0.9,3.8,0.9,4.3c0,2.5-2.3,4.2-4.9,4.2c-2,0-3.6-1.3-3.6-3.4c0-1.4,1-2.6,2.4-2.6c1.3,0,2.3,1.3,2.3,2.5
		c0,1.4-1.2,2.3-2.7,2.5c0.6,0.3,1.2,0.5,1.9,0.5c2.1,0,4.1-1.6,4.1-3.6c0-0.2,0-0.4-0.1-0.6l-0.8-3.7
		C22.1,29.3,21.4,29.4,20.4,29.4z M18.2,24.2c0,1,0.5,1.9,1.6,2.5c-1.8-0.3-3-1.4-3-3.1c0-2,1.7-3.7,3.8-4.1l-0.8-4
		c-3.7,2.8-5.7,5.5-5.7,8.1c0,2.9,2.8,5.3,6,5.3c0.9,0,1.7-0.2,2.4-0.5l-1.4-6.8C19.5,21.8,18.2,22.8,18.2,24.2z M22.3,2.8
		c-1.6,0-2.9,3.7-2.9,7c0,0.7,0,1.3,0.2,1.9c2.7-2.4,4-4.5,4-6.5c0-0.9-0.3-1.7-1-2.4C22.5,2.9,22.4,2.8,22.3,2.8z M25,24.7
		c0-1.6-1.2-3.3-2.9-3.3c-0.1,0-0.2,0-0.5,0l1.4,6.6C24.4,27.2,25,26,25,24.7z"/>
</g>
<g>
	<path d="M29.7,11.3h0.6l-0.1,6.2c0.4-0.7,1-1,1.8-1c1.2,0,2.2,0.8,2.2,1.9c0,0.8-0.5,1.8-1.7,2.7l-2.8,2.1V11.3z M30.3,18.2
		c-0.1,0.8-0.1,1.4-0.1,1.9c0,1,0,1.6,0.1,2c1-0.7,2.4-2.6,2.4-3.7c0-0.6-0.5-1.1-1.1-1.1C31,17.4,30.6,17.7,30.3,18.2z"/>
</g>
<g>
	<path d="M35.3,3.9h0.6l-0.1,6.2c0.4-0.7,1-1,1.8-1c1.2,0,2.2,0.8,2.2,1.9c0,0.8-0.5,1.8-1.7,2.7l-2.8,2.1V3.9z M35.9,10.8
		c-0.1,0.8-0.1,1.4-0.1,1.9c0,1,0,1.6,0.1,2c1-0.7,2.4-2.6,2.4-3.7c0-0.6-0.5-1.1-1.1-1.1C36.6,10,36.1,10.2,35.9,10.8z"/>
</g>
<g>
	<path d="M40.9,13.8h0.6l-0.1,6.2c0.4-0.7,1-1,1.8-1c1.2,0,2.2,0.8,2.2,1.9c0,0.8-0.5,1.8-1.7,2.7l-2.8,2.1V13.8z M41.4,20.7
		c-0.1,0.8-0.1,1.4-0.1,1.9c0,1,0,1.6,0.1,2c1-0.7,2.4-2.6,2.4-3.7c0-0.6-0.5-1.1-1.1-1.1C42.1,19.9,41.7,20.2,41.4,20.7z"/>
</g>
<g>
	<path d="M46.4,6.4h0.6l-0.1,6.2c0.4-0.7,1-1,1.8-1c1.2,0,2.2,0.8,2.2,1.9c0,0.8-0.5,1.8-1.7,2.7l-2.8,2.1V6.4z M47,13.3
		c-0.1,0.8-0.1,1.4-0.1,1.9c0,1,0,1.6,0.1,2c1-0.7,2.4-2.6,2.4-3.7c0-0.6-0.5-1.1-1.1-1.1C47.7,12.4,47.3,12.7,47,13.3z"/>
</g>
<g>
	<path d="M52,16.3h0.6l-0.1,6.2c0.4-0.7,1-1,1.8-1c1.2,0,2.2,0.8,2.2,1.9c0,0.8-0.5,1.8-1.7,2.7L52,28.2V16.3z M52.6,23.2
		c-0.1,0.8-0.1,1.4-0.1,1.9c0,1,0,1.6,0.1,2c1-0.7,2.4-2.6,2.4-3.7c0-0.6-0.5-1.1-1.1-1.1C53.3,22.4,52.9,22.6,52.6,23.2z"/>
</g>
<rect x="8.6" y="80.5" width="544.4" height="0.5"/>
<rect x="8.6" y="75.5" width="544.4" height="0.5"/>
<rect x="8.6" y="70.6" width="544.4" height="0.5"/>
<rect x="8.6" y="65.6" width="544.4" height="0.5"/>
<rect x="8.6" y="60.6" width="544.4" height="0.5"/>
<g>
	<path d="M15.9,75.1c2.9-2.6,4.7-6.1,4.7-9.2c0-2.5-1.4-4.4-3.7-4.4c-1.6,0-3.4,1.3-3.4,2.7c0,0.2,0,0.3,0.1,0.3
		c-0.1,0,0.6-0.6,1.4-0.6c0.9,0,1.5,0.8,1.5,1.7c0,1.2-0.9,2.2-2.1,2.2c-1.2,0-2.1-1.3-2.1-2.8c0-2.3,2.3-4.1,4.8-4.1
		c4.7,0,5.9,3.2,5.9,5.8c0,1.6-0.4,2.9-2,5.3c-1.9,3.1-6.4,5.3-8.1,5.3c-0.4,0-0.6-0.2-0.6-0.5C14,76.3,15.1,75.7,15.9,75.1z
		 M25.8,62.4c0.6,0,1,0.4,1,1c0,0.6-0.4,1-1,1s-1-0.4-1-1C24.8,62.8,25.3,62.4,25.8,62.4z M25.8,67.3c0.6,0,1,0.4,1,1
		c0,0.6-0.4,1-1,1s-1-0.4-1-1C24.8,67.7,25.3,67.3,25.8,67.3z"/>
</g>
<g>
	<path d="M29.7,67.4h0.6l-0.1,6.2c0.4-0.7,1-1,1.8-1c1.2,0,2.2,0.8,2.2,1.9c0,0.8-0.5,1.8-1.7,2.7l-2.8,2.1V67.4z M30.3,74.3
		c-0.1,0.8-0.1,1.4-0.1,1.9c0,1,0,1.6,0.1,2c1-0.7,2.4-2.6,2.4-3.7c0-0.6-0.5-1.1-1.1-1.1C31,73.5,30.6,73.8,30.3,74.3z"/>
</g>
<g>
	<path d="M35.3,60h0.6l-0.1,6.2c0.4-0.7,1-1,1.8-1c1.2,0,2.2,0.8,2.2,1.9c0,0.8-0.5,1.8-1.7,2.7l-2.8,2.1V60z M35.9,66.9
		c-0.1,0.8-0.1,1.4-0.1,1.9c0,1,0,1.6,0.1,2c1-0.7,2.4-2.6,2.4-3.7c0-0.6-0.5-1.1-1.1-1.1C36.6,66.1,36.1,66.3,35.9,66.9z"/>
</g>
<g>
	<path d="M40.9,69.9h0.6l-0.1,6.2c0.4-0.7,1-1,1.8-1c1.2,0,2.2,0.8,2.2,1.9c0,0.8-0.5,1.8-1.7,2.7l-2.8,2.1V69.9z M41.4,76.8
		c-0.1,0.8-0.1,1.4-0.1,1.9c0,1,0,1.6,0.1,2c1-0.7,2.4-2.6,2.4-3.7c0-0.6-0.5-1.1-1.1-1.1C42.1,76,41.7,76.3,41.4,76.8z"/>
</g>
<g>
	<path d="M46.4,62.5h0.6l-0.1,6.2c0.4-0.7,1-1,1.8-1c1.2,0,2.2,0.8,2.2,1.9c0,0.8-0.5,1.8-1.7,2.7l-2.8,2.1V62.5z M47,69.4
		c-0.1,0.8-0.1,1.4-0.1,1.9c0,1,0,1.6,0.1,2c1-0.7,2.4-2.6,2.4-3.7c0-0.6-0.5-1.1-1.1-1.1C47.7,68.5,47.3,68.8,47,69.4z"/>
</g>
<g>
	<path d="M52,72.4h0.6l-0.1,6.2c0.4-0.7,1-1,1.8-1c1.2,0,2.2,0.8,2.2,1.9c0,0.8-0.5,1.8-1.7,2.7L52,84.3V72.4z M52.6,79.3
		c-0.1,0.8-0.1,1.4-0.1,1.9c0,1,0,1.6,0.1,2c1-0.7,2.4-2.6,2.4-3.7c0-0.6-0.5-1.1-1.1-1.1C53.3,78.5,52.9,78.7,52.6,79.3z"/>
</g>
<rect x="63.2" y="34.1" width="10.5" height="0.8"/>
<rect x="63.2" y="39.1" width="10.5" height="0.8"/>
<rect x="71.5" y="7.2" width="0.5" height="31.5"/>
<g>
	<path d="M65,40.3c0-1.8,2.5-3.5,4.5-3.5c1.3,0,2.3,0.7,2.3,1.7c0,1.7-2.5,3.5-4.6,3.5C66,42.1,65,41.4,65,40.3z"/>
</g>
<g>
	<path d="M65,35.4c0-1.8,2.5-3.5,4.5-3.5c1.3,0,2.3,0.7,2.3,1.7c0,1.7-2.5,3.5-4.6,3.5C66,37.1,65,36.5,65,35.4z"/>
</g>
<g>
	<path d="M65,30.4c0-1.8,2.5-3.5,4.5-3.5c1.3,0,2.3,0.7,2.3,1.7c0,1.7-2.5,3.5-4.6,3.5C66,32.1,65,31.5,65,30.4z"/>
</g>
<g>
	<path d="M65,25.5c0-1.8,2.5-3.5,4.5-3.5c1.3,0,2.3,0.7,2.3,1.7c0,1.7-2.5,3.5-4.6,3.5C66,27.2,65,26.5,65,25.5z"/>
</g>
<rect x="112.8" y="34.1" width="10.5" height="0.8"/>
<rect x="121.1" y="4.8" width="0.5" height="29"/>
<g>
	<path d="M114.6,35.4c0-1.8,2.5-3.5,4.5-3.5c1.3,0,2.3,0.7,2.3,1.7c0,1.7-2.5,3.5-4.6,3.5C115.6,37.1,114.6,36.5,114.6,35.4z"/>
</g>
<g>
	<path d="M114.6,30.4c0-1.8,2.5-3.5,4.5-3.5c1.3,0,2.3,0.7,2.3,1.7c0,1.7-2.5,3.5-4.6,3.5C115.6,32.1,114.6,31.5,114.6,30.4z"/>
</g>
<g>
	<path d="M114.6,25.5c0-1.8,2.5-3.5,4.5-3.5c1.3,0,2.3,0.7,2.3,1.7c0,1.7-2.5,3.5-4.6,3.5C115.6,27.2,114.6,26.5,114.6,25.5z"/>
</g>
<g>
	<path d="M121,23c0-1.8,2.5-3.5,4.5-3.5c1.3,0,2.3,0.7,2.3,1.7c0,1.7-2.5,3.5-4.6,3.5C122,24.7,121,24.1,121,23z"/>
</g>
<rect x="170.5" y="1" width="0.5" height="27.7"/>
<g>
	<path d="M164.1,30.4c0-1.8,2.5-3.5,4.5-3.5c1.3,0,2.3,0.7,2.3,1.7c0,1.7-2.5,3.5-4.6,3.5C165.1,32.1,164.1,31.5,164.1,30.4z"/>
</g>
<g>
	<path d="M164.1,25.5c0-1.8,2.5-3.5,4.5-3.5c1.3,0,2.3,0.7,2.3,1.7c0,1.7-2.5,3.5-4.6,3.5C165.1,27.2,164.1,26.5,164.1,25.5z"/>
</g>
<g>
	<path d="M170.4,23c0-1.8,2.5-3.5,4.5-3.5c1.3,0,2.3,0.7,2.3,1.7c0,1.7-2.5,3.5-4.6,3.5C171.4,24.7,170.4,24.1,170.4,23z"/>
</g>
<g>
	<path d="M164.1,18c0-1.8,2.5-3.5,4.5-3.5c1.3,0,2.3,0.7,2.3,1.7c0,1.7-2.5,3.5-4.6,3.5C165.1,19.7,164.1,19.1,164.1,18z"/>
</g>
<rect x="213.6" y="13" width="0.5" height="26.5"/>
<g>
	<path d="M213.7,13c0-1.8,2.5-3.5,4.5-3.5c1.3,0,2.3,0.7,2.3,1.7c0,1.7-2.5,3.5-4.6,3.5C214.7,14.8,213.7,14.1,213.7,13z"/>
</g>
<g>
	<path d="M213.7,18c0-1.8,2.5-3.5,4.5-3.5c1.3,0,2.3,0.7,2.3,1.7c0,1.7-2.5,3.5-4.6,3.5C214.7,19.7,213.7,19.1,213.7,18z"/>
</g>
<g>
	<path d="M213.7,23c0-1.8,2.5-3.5,4.5-3.5c1.3,0,2.3,0.7,2.3,1.7c0,1.7-2.5,3.5-4.6,3.5C214.7,24.7,213.7,24.1,213.7,23z"/>
</g>
<g>
	<path d="M207.3,25.5c0-1.8,2.5-3.5,4.5-3.5c1.3,0,2.3,0.7,2.3,1.7c0,1.7-2.5,3.5-4.6,3.5C208.3,27.2,207.3,26.5,207.3,25.5z"/>
</g>
<rect x="263.1" y="8" width="0.5" height="30.2"/>
<g>
	<path d="M263.1,8.1c0-1.8,2.5-3.5,4.5-3.5c1.3,0,2.3,0.7,2.3,1.7c0,1.7-2.5,3.5-4.6,3.5C264.1,9.8,263.1,9.2,263.1,8.1z"/>
</g>
<g>
	<path d="M263.1,13c0-1.8,2.5-3.5,4.5-3.5c1.3,0,2.3,0.7,2.3,1.7c0,1.7-2.5,3.5-4.6,3.5C264.1,14.8,263.1,14.1,263.1,13z"/>
</g>
<g>
	<path d="M263.1,18c0-1.8,2.5-3.5,4.5-3.5c1.3,0,2.3,0.7,2.3,1.7c0,1.7-2.5,3.5-4.6,3.5C264.1,19.7,263.1,19.1,263.1,18z"/>
</g>
<g>
	<path d="M263.1,23c0-1.8,2.5-3.5,4.5-3.5c1.3,0,2.3,0.7,2.3,1.7c0,1.7-2.5,3.5-4.6,3.5C264.1,24.7,263.1,24.1,263.1,23z"/>
</g>
<rect x="312.7" y="13" width="0.5" height="26.5"/>
<g>
	<path d="M312.8,13c0-1.8,2.5-3.5,4.5-3.5c1.3,0,2.3,0.7,2.3,1.7c0,1.7-2.5,3.5-4.6,3.5C313.7,14.8,312.8,14.1,312.8,13z"/>
</g>
<g>
	<path d="M312.8,18c0-1.8,2.5-3.5,4.5-3.5c1.3,0,2.3,0.7,2.3,1.7c0,1.7-2.5,3.5-4.6,3.5C313.7,19.7,312.8,19.1,312.8,18z"/>
</g>
<g>
	<path d="M312.8,23c0-1.8,2.5-3.5,4.5-3.5c1.3,0,2.3,0.7,2.3,1.7c0,1.7-2.5,3.5-4.6,3.5C313.7,24.7,312.8,24.1,312.8,23z"/>
</g>
<g>
	<path d="M306.4,25.5c0-1.8,2.5-3.5,4.5-3.5c1.3,0,2.3,0.7,2.3,1.7c0,1.7-2.5,3.5-4.6,3.5C307.4,27.2,306.4,26.5,306.4,25.5z"/>
</g>
<rect x="368.8" y="1" width="0.5" height="27.7"/>
<g>
	<path d="M362.4,30.4c0-1.8,2.5-3.5,4.5-3.5c1.3,0,2.3,0.7,2.3,1.7c0,1.7-2.5,3.5-4.6,3.5C363.3,32.1,362.4,31.5,362.4,30.4z"/>
</g>
<g>
	<path d="M362.4,25.5c0-1.8,2.5-3.5,4.5-3.5c1.3,0,2.3,0.7,2.3,1.7c0,1.7-2.5,3.5-4.6,3.5C363.3,27.2,362.4,26.5,362.4,25.5z"/>
</g>
<g>
	<path d="M368.7,23c0-1.8,2.5-3.5,4.5-3.5c1.3,0,2.3,0.7,2.3,1.7c0,1.7-2.5,3.5-4.6,3.5C369.7,24.7,368.7,24.1,368.7,23z"/>
</g>
<g>
	<path d="M362.4,18c0-1.8,2.5-3.5,4.5-3.5c1.3,0,2.3,0.7,2.3,1.7c0,1.7-2.5,3.5-4.6,3.5C363.3,19.7,362.4,19.1,362.4,18z"/>
</g>
<rect x="409.9" y="34.1" width="10.5" height="0.8"/>
<rect x="418.2" y="4.8" width="0.5" height="29"/>
<g>
	<path d="M411.8,35.4c0-1.8,2.5-3.5,4.5-3.5c1.3,0,2.3,0.7,2.3,1.7c0,1.7-2.5,3.5-4.6,3.5C412.8,37.1,411.8,36.5,411.8,35.4z"/>
</g>
<g>
	<path d="M411.8,30.4c0-1.8,2.5-3.5,4.5-3.5c1.3,0,2.3,0.7,2.3,1.7c0,1.7-2.5,3.5-4.6,3.5C412.8,32.1,411.8,31.5,411.8,30.4z"/>
</g>
<g>
	<path d="M411.8,25.5c0-1.8,2.5-3.5,4.5-3.5c1.3,0,2.3,0.7,2.3,1.7c0,1.7-2.5,3.5-4.6,3.5C412.8,27.2,411.8,26.5,411.8,25.5z"/>
</g>
<g>
	<path d="M418.2,23c0-1.8,2.5-3.5,4.5-3.5c1.3,0,2.3,0.7,2.3,1.7c0,1.7-2.5,3.5-4.6,3.5C419.1,24.7,418.2,24.1,418.2,23z"/>
</g>
<rect x="459.6" y="34.1" width="10.7" height="0.8"/>
<rect x="459.6" y="39.1" width="10.7" height="0.8"/>
<rect x="468" y="7.2" width="0.5" height="31.5"/>
<g>
	<path d="M465.7,36.8c1.6,0,2.7,0.7,2.7,2c0,1.9-2.3,3.4-4.5,3.4c-1.3,0-2.4-0.7-2.4-1.8C461.4,38.6,463.7,36.8,465.7,36.8z
		 M461.9,40.6c0,0.6,0.4,0.9,1.1,0.9c1.4,0,4.9-2.1,4.9-3.3c0-0.6-0.4-0.9-1.1-0.9C465.5,37.4,461.9,39.4,461.9,40.6z"/>
</g>
<g>
	<path d="M465.7,31.8c1.6,0,2.7,0.7,2.7,2c0,1.9-2.3,3.4-4.5,3.4c-1.3,0-2.4-0.7-2.4-1.8C461.4,33.6,463.7,31.8,465.7,31.8z
		 M461.9,35.7c0,0.6,0.4,0.9,1.1,0.9c1.4,0,4.9-2.1,4.9-3.3c0-0.6-0.4-0.9-1.1-0.9C465.5,32.4,461.9,34.4,461.9,35.7z"/>
</g>
<g>
	<path d="M465.7,26.9c1.6,0,2.7,0.7,2.7,2c0,1.9-2.3,3.4-4.5,3.4c-1.3,0-2.4-0.7-2.4-1.8C461.4,28.6,463.7,26.9,465.7,26.9z
		 M461.9,30.7c0,0.6,0.4,0.9,1.1,0.9c1.4,0,4.9-2.1,4.9-3.3c0-0.6-0.4-0.9-1.1-0.9C465.5,27.5,461.9,29.5,461.9,30.7z"/>
</g>
<g>
	<path d="M465.7,21.9c1.6,0,2.7,0.7,2.7,2c0,1.9-2.3,3.4-4.5,3.4c-1.3,0-2.4-0.7-2.4-1.8C461.4,23.7,463.7,21.9,465.7,21.9z
		 M461.9,25.7c0,0.6,0.4,0.9,1.1,0.9c1.4,0,4.9-2.1,4.9-3.3c0-0.6-0.4-0.9-1.1-0.9C465.5,22.5,461.9,24.5,461.9,25.7z"/>
</g>
<rect x="65" y="64.1" width="0.5" height="27.7"/>
<g>
	<path d="M65,64.2c0-1.8,2.5-3.5,4.5-3.5c1.3,0,2.3,0.7,2.3,1.7c0,1.7-2.5,3.5-4.6,3.5C66,65.9,65,65.3,65,64.2z"/>
</g>
<g>
	<path d="M65,69.2c0-1.8,2.5-3.5,4.5-3.5c1.3,0,2.3,0.7,2.3,1.7c0,1.7-2.5,3.5-4.6,3.5C66,70.9,65,70.3,65,69.2z"/>
</g>
<g>
	<path d="M65,74.1c0-1.8,2.5-3.5,4.5-3.5c1.3,0,2.3,0.7,2.3,1.7c0,1.7-2.5,3.5-4.6,3.5C66,75.8,65,75.2,65,74.1z"/>
</g>
<g>
	<path d="M65,79.1c0-1.8,2.5-3.5,4.5-3.5c1.3,0,2.3,0.7,2.3,1.7c0,1.7-2.5,3.5-4.6,3.5C66,80.8,65,80.2,65,79.1z"/>
</g>
<rect x="114.6" y="61.6" width="0.5" height="27.7"/>
<g>
	<path d="M114.6,61.7c0-1.8,2.5-3.5,4.5-3.5c1.3,0,2.3,0.7,2.3,1.7c0,1.7-2.5,3.5-4.6,3.5C115.6,63.4,114.6,62.8,114.6,61.7z"/>
</g>
<g>
	<path d="M108.3,64.2c0-1.8,2.5-3.5,4.5-3.5c1.3,0,2.3,0.7,2.3,1.7c0,1.7-2.5,3.5-4.6,3.5C109.3,65.9,108.3,65.3,108.3,64.2z"/>
</g>
<g>
	<path d="M114.6,69.2c0-1.8,2.5-3.5,4.5-3.5c1.3,0,2.3,0.7,2.3,1.7c0,1.7-2.5,3.5-4.6,3.5C115.6,70.9,114.6,70.3,114.6,69.2z"/>
</g>
<g>
	<path d="M114.6,74.1c0-1.8,2.5-3.5,4.5-3.5c1.3,0,2.3,0.7,2.3,1.7c0,1.7-2.5,3.5-4.6,3.5C115.6,75.8,114.6,75.2,114.6,74.1z"/>
</g>
<rect x="162.2" y="55.5" width="10.5" height="0.8"/>
<rect x="164" y="56.7" width="0.5" height="29"/>
<g>
	<path d="M164.1,56.8c0-1.8,2.5-3.5,4.5-3.5c1.3,0,2.3,0.7,2.3,1.7c0,1.7-2.5,3.5-4.6,3.5C165.1,58.5,164.1,57.9,164.1,56.8z"/>
</g>
<g>
	<path d="M164.1,61.7c0-1.8,2.5-3.5,4.5-3.5c1.3,0,2.3,0.7,2.3,1.7c0,1.7-2.5,3.5-4.6,3.5C165.1,63.4,164.1,62.8,164.1,61.7z"/>
</g>
<g>
	<path d="M157.7,64.2c0-1.8,2.5-3.5,4.5-3.5c1.3,0,2.3,0.7,2.3,1.7c0,1.7-2.5,3.5-4.6,3.5C158.7,65.9,157.7,65.3,157.7,64.2z"/>
</g>
<g>
	<path d="M164.1,69.2c0-1.8,2.5-3.5,4.5-3.5c1.3,0,2.3,0.7,2.3,1.7c0,1.7-2.5,3.5-4.6,3.5C165.1,70.9,164.1,70.3,164.1,69.2z"/>
</g>
<rect x="211.8" y="55.5" width="10.5" height="0.8"/>
<rect x="211.8" y="50.6" width="10.5" height="0.8"/>
<rect x="213.6" y="51.7" width="0.5" height="29"/>
<g>
	<path d="M213.7,51.8c0-1.8,2.5-3.5,4.5-3.5c1.3,0,2.3,0.7,2.3,1.7c0,1.7-2.5,3.5-4.6,3.5C214.7,53.5,213.7,52.9,213.7,51.8z"/>
</g>
<g>
	<path d="M213.7,56.8c0-1.8,2.5-3.5,4.5-3.5c1.3,0,2.3,0.7,2.3,1.7c0,1.7-2.5,3.5-4.6,3.5C214.7,58.5,213.7,57.9,213.7,56.8z"/>
</g>
<g>
	<path d="M213.7,61.7c0-1.8,2.5-3.5,4.5-3.5c1.3,0,2.3,0.7,2.3,1.7c0,1.7-2.5,3.5-4.6,3.5C214.7,63.4,213.7,62.8,213.7,61.7z"/>
</g>
<g>
	<path d="M207.3,64.2c0-1.8,2.5-3.5,4.5-3.5c1.3,0,2.3,0.7,2.3,1.7c0,1.7-2.5,3.5-4.6,3.5C208.3,65.9,207.3,65.3,207.3,64.2z"/>
</g>
<rect x="261.3" y="55.5" width="10.5" height="0.8"/>
<rect x="261.3" y="50.6" width="10.5" height="0.8"/>
<rect x="261.3" y="45.6" width="10.5" height="0.8"/>
<rect x="263.1" y="46.8" width="0.5" height="31.5"/>
<g>
	<path d="M263.1,46.8c0-1.8,2.5-3.5,4.5-3.5c1.3,0,2.3,0.7,2.3,1.7c0,1.7-2.5,3.5-4.6,3.5C264.1,48.6,263.1,47.9,263.1,46.8z"/>
</g>
<g>
	<path d="M263.1,51.8c0-1.8,2.5-3.5,4.5-3.5c1.3,0,2.3,0.7,2.3,1.7c0,1.7-2.5,3.5-4.6,3.5C264.1,53.5,263.1,52.9,263.1,51.8z"/>
</g>
<g>
	<path d="M263.1,56.8c0-1.8,2.5-3.5,4.5-3.5c1.3,0,2.3,0.7,2.3,1.7c0,1.7-2.5,3.5-4.6,3.5C264.1,58.5,263.1,57.9,263.1,56.8z"/>
</g>
<g>
	<path d="M263.1,61.7c0-1.8,2.5-3.5,4.5-3.5c1.3,0,2.3,0.7,2.3,1.7c0,1.7-2.5,3.5-4.6,3.5C264.1,63.4,263.1,62.8,263.1,61.7z"/>
</g>
<rect x="310.9" y="55.5" width="10.5" height="0.8"/>
<rect x="310.9" y="50.6" width="10.5" height="0.8"/>
<rect x="312.7" y="51.7" width="0.5" height="29"/>
<g>
	<path d="M312.8,51.8c0-1.8,2.5-3.5,4.5-3.5c1.3,0,2.3,0.7,2.3,1.7c0,1.7-2.5,3.5-4.6,3.5C313.7,53.5,312.8,52.9,312.8,51.8z"/>
</g>
<g>
	<path d="M312.8,56.8c0-1.8,2.5-3.5,4.5-3.5c1.3,0,2.3,0.7,2.3,1.7c0,1.7-2.5,3.5-4.6,3.5C313.7,58.5,312.8,57.9,312.8,56.8z"/>
</g>
<g>
	<path d="M312.8,61.7c0-1.8,2.5-3.5,4.5-3.5c1.3,0,2.3,0.7,2.3,1.7c0,1.7-2.5,3.5-4.6,3.5C313.7,63.4,312.8,62.8,312.8,61.7z"/>
</g>
<g>
	<path d="M306.4,64.2c0-1.8,2.5-3.5,4.5-3.5c1.3,0,2.3,0.7,2.3,1.7c0,1.7-2.5,3.5-4.6,3.5C307.4,65.9,306.4,65.3,306.4,64.2z"/>
</g>
<rect x="360.5" y="55.5" width="10.5" height="0.8"/>
<rect x="362.3" y="56.7" width="0.5" height="29"/>
<g>
	<path d="M362.4,56.8c0-1.8,2.5-3.5,4.5-3.5c1.3,0,2.3,0.7,2.3,1.7c0,1.7-2.5,3.5-4.6,3.5C363.3,58.5,362.4,57.9,362.4,56.8z"/>
</g>
<g>
	<path d="M362.4,61.7c0-1.8,2.5-3.5,4.5-3.5c1.3,0,2.3,0.7,2.3,1.7c0,1.7-2.5,3.5-4.6,3.5C363.3,63.4,362.4,62.8,362.4,61.7z"/>
</g>
<g>
	<path d="M356,64.2c0-1.8,2.5-3.5,4.5-3.5c1.3,0,2.3,0.7,2.3,1.7c0,1.7-2.5,3.5-4.6,3.5C357,65.9,356,65.3,356,64.2z"/>
</g>
<g>
	<path d="M362.4,69.2c0-1.8,2.5-3.5,4.5-3.5c1.3,0,2.3,0.7,2.3,1.7c0,1.7-2.5,3.5-4.6,3.5C363.3,70.9,362.4,70.3,362.4,69.2z"/>
</g>
<rect x="411.7" y="61.6" width="0.5" height="27.7"/>
<g>
	<path d="M411.8,61.7c0-1.8,2.5-3.5,4.5-3.5c1.3,0,2.3,0.7,2.3,1.7c0,1.7-2.5,3.5-4.6,3.5C412.8,63.4,411.8,62.8,411.8,61.7z"/>
</g>
<g>
	<path d="M405.5,64.2c0-1.8,2.5-3.5,4.5-3.5c1.3,0,2.3,0.7,2.3,1.7c0,1.7-2.5,3.5-4.6,3.5C406.4,65.9,405.5,65.3,405.5,64.2z"/>
</g>
<g>
	<path d="M411.8,69.2c0-1.8,2.5-3.5,4.5-3.5c1.3,0,2.3,0.7,2.3,1.7c0,1.7-2.5,3.5-4.6,3.5C412.8,70.9,411.8,70.3,411.8,69.2z"/>
</g>
<g>
	<path d="M411.8,74.1c0-1.8,2.5-3.5,4.5-3.5c1.3,0,2.3,0.7,2.3,1.7c0,1.7-2.5,3.5-4.6,3.5C412.8,75.8,411.8,75.2,411.8,74.1z"/>
</g>
<rect x="461.3" y="64.1" width="0.5" height="27.7"/>
<g>
	<path d="M465.7,60.7c1.6,0,2.7,0.7,2.7,2c0,1.9-2.3,3.4-4.5,3.4c-1.3,0-2.4-0.7-2.4-1.8C461.4,62.4,463.7,60.7,465.7,60.7z
		 M461.9,64.5c0,0.6,0.4,0.9,1.1,0.9c1.4,0,4.9-2.1,4.9-3.3c0-0.6-0.4-0.9-1.1-0.9C465.5,61.2,461.9,63.3,461.9,64.5z"/>
</g>
<g>
	<path d="M465.7,65.6c1.6,0,2.7,0.7,2.7,2c0,1.9-2.3,3.4-4.5,3.4c-1.3,0-2.4-0.7-2.4-1.8C461.4,67.4,463.7,65.6,465.7,65.6z
		 M461.9,69.5c0,0.6,0.4,0.9,1.1,0.9c1.4,0,4.9-2.1,4.9-3.3c0-0.6-0.4-0.9-1.1-0.9C465.5,66.2,461.9,68.2,461.9,69.5z"/>
</g>
<g>
	<path d="M465.7,70.6c1.6,0,2.7,0.7,2.7,2c0,1.9-2.3,3.4-4.5,3.4c-1.3,0-2.4-0.7-2.4-1.8C461.4,72.4,463.7,70.6,465.7,70.6z
		 M461.9,74.4c0,0.6,0.4,0.9,1.1,0.9c1.4,0,4.9-2.1,4.9-3.3c0-0.6-0.4-0.9-1.1-0.9C465.5,71.2,461.9,73.2,461.9,74.4z"/>
</g>
<g>
	<path d="M465.7,75.5c1.6,0,2.7,0.7,2.7,2c0,1.9-2.3,3.4-4.5,3.4c-1.3,0-2.4-0.7-2.4-1.8C461.4,77.3,463.7,75.5,465.7,75.5z
		 M461.9,79.4c0,0.6,0.4,0.9,1.1,0.9c1.4,0,4.9-2.1,4.9-3.3c0-0.6-0.4-0.9-1.1-0.9C465.5,76.1,461.9,78.2,461.9,79.4z"/>
</g>
</svg>
