<?xml version="1.0" encoding="utf-8"?>

<!--
	ScaleBook
	Copyright (c) Leland Jansen 2015. All rights reserved.
-->

<!DOCTYPE svg PUBLIC "-//W3C//DTD SVG 1.1//EN" "http://www.w3.org/Graphics/SVG/1.1/DTD/svg11.dtd">
<svg version="1.1" id="Layer_1" xmlns="http://www.w3.org/2000/svg" xmlns:xlink="http://www.w3.org/1999/xlink" x="0px" y="0px"
	 viewBox="0 0 553 91.9" enable-background="new 0 0 553 91.9" xml:space="preserve">
<rect x="8.5" y="9.7" width="0.8" height="71"/>
<g>
	<path d="M7.6,10.4c-2,1.1-3.7,6.1-3.7,10c0,2.4,1.4,10.5,1.4,13c0,5.3-1.6,9.2-4.7,11.8c3.1,2.6,4.7,6.5,4.7,11.7
		c0,2.4-1.4,10.5-1.4,13c0,4,1.8,8.9,3.7,10.1v0.7C4,78.3,1.7,72,1.7,66.9c0-2.3,1.8-9.9,1.8-12.2c0-4-1-7-3-8.7
		C0.1,45.6,0,45.4,0,45.2s0.1-0.4,0.5-0.7c2-1.8,3-4.5,3-8c0-2.3-1.8-10.6-1.8-12.9c0-5.5,2.1-11,5.9-13.8V10.4z"/>
</g>
<rect x="548" y="9.7" width="0.8" height="71"/>
<rect x="550.5" y="9.7" width="2.5" height="71"/>
<rect x="8.6" y="29.3" width="544.4" height="0.5"/>
<rect x="8.6" y="24.4" width="544.4" height="0.5"/>
<rect x="8.6" y="19.4" width="544.4" height="0.5"/>
<rect x="8.6" y="14.4" width="544.4" height="0.5"/>
<rect x="8.6" y="9.5" width="544.4" height="0.5"/>
<g>
	<path d="M20.4,29.4c-4.2,0-8.1-3.1-8.1-6.9c0-3.2,2.3-6.7,6.8-10.5c-0.3-1.2-0.4-2.4-0.4-3.6c0-3.5,1.2-6.8,3.2-8.5
		c1.8,2.5,2.7,4.9,2.7,7.1c0,2.9-1.3,5.6-4.3,8.1l0.9,4.2c0.5,0,0.8-0.1,0.8-0.1c2.6,0,4.8,2,4.8,4.7c0,1.9-1.4,3.7-3.6,4.8
		c0-0.1,0.9,3.8,0.9,4.3c0,2.5-2.3,4.2-4.9,4.2c-2,0-3.6-1.3-3.6-3.4c0-1.4,1-2.6,2.4-2.6c1.3,0,2.3,1.3,2.3,2.5
		c0,1.4-1.2,2.3-2.7,2.5c0.6,0.3,1.2,0.5,1.9,0.5c2.1,0,4.1-1.6,4.1-3.6c0-0.2,0-0.4-0.1-0.6l-0.8-3.7
		C22.1,29.3,21.4,29.4,20.4,29.4z M18.2,24.2c0,1,0.5,1.9,1.6,2.5c-1.8-0.3-3-1.4-3-3.1c0-2,1.7-3.7,3.8-4.1l-0.8-4
		c-3.7,2.8-5.7,5.5-5.7,8.1c0,2.9,2.8,5.3,6,5.3c0.9,0,1.7-0.2,2.4-0.5l-1.4-6.8C19.5,21.8,18.2,22.8,18.2,24.2z M22.3,2.8
		c-1.6,0-2.9,3.7-2.9,7c0,0.7,0,1.3,0.2,1.9c2.7-2.4,4-4.5,4-6.5c0-0.9-0.3-1.7-1-2.4C22.5,2.9,22.4,2.8,22.3,2.8z M25,24.7
		c0-1.6-1.2-3.3-2.9-3.3c-0.1,0-0.2,0-0.5,0l1.4,6.6C24.4,27.2,25,26,25,24.7z"/>
</g>
<g>
	<path d="M33.6,2.9v2.8l1-0.3v1.8l-1,0.3V11l1-0.3v1.8l-1,0.3v3.1h-0.5v-3l-1.9,0.6v3h-0.5v-2.8l-1,0.3v-1.8l1-0.3V8.4l-1,0.3V7
		l1-0.3V3.5h0.5v3l1.9-0.6v-3H33.6z M33.1,7.7l-1.9,0.6v3.4l1.9-0.6V7.7z"/>
</g>
<g>
	<path d="M39.8,10.3v2.8l1-0.3v1.8l-1,0.3v3.4l1-0.3v1.8l-1,0.3v3.1h-0.5v-3L37.4,21v3h-0.5v-2.8l-1,0.3v-1.8l1-0.3v-3.4l-1,0.3
		v-1.8l1-0.3V11h0.5v3l1.9-0.6v-3H39.8z M39.3,15.1l-1.9,0.6v3.4l1.9-0.6V15.1z"/>
</g>
<rect x="8.6" y="80.5" width="544.4" height="0.5"/>
<rect x="8.6" y="75.5" width="544.4" height="0.5"/>
<rect x="8.6" y="70.6" width="544.4" height="0.5"/>
<rect x="8.6" y="65.6" width="544.4" height="0.5"/>
<rect x="8.6" y="60.6" width="544.4" height="0.5"/>
<g>
	<path d="M15.9,75.1c2.9-2.6,4.7-6.1,4.7-9.2c0-2.5-1.4-4.4-3.7-4.4c-1.6,0-3.4,1.3-3.4,2.7c0,0.2,0,0.3,0.1,0.3
		c-0.1,0,0.6-0.6,1.4-0.6c0.9,0,1.5,0.8,1.5,1.7c0,1.2-0.9,2.2-2.1,2.2c-1.2,0-2.1-1.3-2.1-2.8c0-2.3,2.3-4.1,4.8-4.1
		c4.7,0,5.9,3.2,5.9,5.8c0,1.6-0.4,2.9-2,5.3c-1.9,3.1-6.4,5.3-8.1,5.3c-0.4,0-0.6-0.2-0.6-0.5C14,76.3,15.1,75.7,15.9,75.1z
		 M25.8,62.4c0.6,0,1,0.4,1,1c0,0.6-0.4,1-1,1s-1-0.4-1-1C24.8,62.8,25.3,62.4,25.8,62.4z M25.8,67.3c0.6,0,1,0.4,1,1
		c0,0.6-0.4,1-1,1s-1-0.4-1-1C24.8,67.7,25.3,67.3,25.8,67.3z"/>
</g>
<g>
	<path d="M33.6,59v2.8l1-0.3v1.8l-1,0.3v3.4l1-0.3v1.8l-1,0.3V72h-0.5v-3l-1.9,0.6v3h-0.5v-2.8l-1,0.3v-1.8l1-0.3v-3.4l-1,0.3v-1.8
		l1-0.3v-3.1h0.5v3l1.9-0.6v-3H33.6z M33.1,63.8l-1.9,0.6v3.4l1.9-0.6V63.8z"/>
</g>
<g>
	<path d="M39.8,66.4v2.8l1-0.3v1.8l-1,0.3v3.4l1-0.3V76l-1,0.3v3.1h-0.5v-3l-1.9,0.6v3h-0.5v-2.8l-1,0.3v-1.8l1-0.3V72l-1,0.3v-1.8
		l1-0.3v-3.1h0.5v3l1.9-0.6v-3H39.8z M39.3,71.2l-1.9,0.6v3.4l1.9-0.6V71.2z"/>
</g>
<rect x="47.7" y="34.1" width="10.5" height="0.8"/>
<rect x="47.7" y="39.1" width="10.5" height="0.8"/>
<rect x="56" y="7.2" width="0.5" height="31.5"/>
<g>
	<path d="M49.5,40.3c0-1.8,2.5-3.5,4.5-3.5c1.3,0,2.3,0.7,2.3,1.7c0,1.7-2.5,3.5-4.6,3.5C50.5,42.1,49.5,41.4,49.5,40.3z"/>
</g>
<g>
	<path d="M49.5,35.4c0-1.8,2.5-3.5,4.5-3.5c1.3,0,2.3,0.7,2.3,1.7c0,1.7-2.5,3.5-4.6,3.5C50.5,37.1,49.5,36.5,49.5,35.4z"/>
</g>
<g>
	<path d="M49.5,30.4c0-1.8,2.5-3.5,4.5-3.5c1.3,0,2.3,0.7,2.3,1.7c0,1.7-2.5,3.5-4.6,3.5C50.5,32.1,49.5,31.5,49.5,30.4z"/>
</g>
<g>
	<path d="M49.5,25.5c0-1.8,2.5-3.5,4.5-3.5c1.3,0,2.3,0.7,2.3,1.7c0,1.7-2.5,3.5-4.6,3.5C50.5,27.2,49.5,26.5,49.5,25.5z"/>
</g>
<rect x="98.8" y="34.1" width="10.5" height="0.8"/>
<rect x="107.1" y="4.8" width="0.5" height="29"/>
<g>
	<path d="M100.7,35.4c0-1.8,2.5-3.5,4.5-3.5c1.3,0,2.3,0.7,2.3,1.7c0,1.7-2.5,3.5-4.6,3.5C101.7,37.1,100.7,36.5,100.7,35.4z"/>
</g>
<g>
	<path d="M100.7,30.4c0-1.8,2.5-3.5,4.5-3.5c1.3,0,2.3,0.7,2.3,1.7c0,1.7-2.5,3.5-4.6,3.5C101.7,32.1,100.7,31.5,100.7,30.4z"/>
</g>
<g>
	<path d="M100.7,25.5c0-1.8,2.5-3.5,4.5-3.5c1.3,0,2.3,0.7,2.3,1.7c0,1.7-2.5,3.5-4.6,3.5C101.7,27.2,100.7,26.5,100.7,25.5z"/>
</g>
<g>
	<path d="M107,23c0-1.8,2.5-3.5,4.5-3.5c1.3,0,2.3,0.7,2.3,1.7c0,1.7-2.5,3.5-4.6,3.5C108,24.7,107,24.1,107,23z"/>
</g>
<rect x="158.3" y="1" width="0.5" height="27.7"/>
<g>
	<path d="M151.8,30.4c0-1.8,2.5-3.5,4.5-3.5c1.3,0,2.3,0.7,2.3,1.7c0,1.7-2.5,3.5-4.6,3.5C152.8,32.1,151.8,31.5,151.8,30.4z"/>
</g>
<g>
	<path d="M151.8,25.5c0-1.8,2.5-3.5,4.5-3.5c1.3,0,2.3,0.7,2.3,1.7c0,1.7-2.5,3.5-4.6,3.5C152.8,27.2,151.8,26.5,151.8,25.5z"/>
</g>
<g>
	<path d="M158.2,23c0-1.8,2.5-3.5,4.5-3.5c1.3,0,2.3,0.7,2.3,1.7c0,1.7-2.5,3.5-4.6,3.5C159.2,24.7,158.2,24.1,158.2,23z"/>
</g>
<g>
	<path d="M151.8,18c0-1.8,2.5-3.5,4.5-3.5c1.3,0,2.3,0.7,2.3,1.7c0,1.7-2.5,3.5-4.6,3.5C152.8,19.7,151.8,19.1,151.8,18z"/>
</g>
<rect x="202.9" y="13" width="0.5" height="26.5"/>
<g>
	<path d="M203,13c0-1.8,2.5-3.5,4.5-3.5c1.3,0,2.3,0.7,2.3,1.7c0,1.7-2.5,3.5-4.6,3.5C204,14.8,203,14.1,203,13z"/>
</g>
<g>
	<path d="M203,18c0-1.8,2.5-3.5,4.5-3.5c1.3,0,2.3,0.7,2.3,1.7c0,1.7-2.5,3.5-4.6,3.5C204,19.7,203,19.1,203,18z"/>
</g>
<g>
	<path d="M203,23c0-1.8,2.5-3.5,4.5-3.5c1.3,0,2.3,0.7,2.3,1.7c0,1.7-2.5,3.5-4.6,3.5C204,24.7,203,24.1,203,23z"/>
</g>
<g>
	<path d="M196.6,25.5c0-1.8,2.5-3.5,4.5-3.5c1.3,0,2.3,0.7,2.3,1.7c0,1.7-2.5,3.5-4.6,3.5C197.6,27.2,196.6,26.5,196.6,25.5z"/>
</g>
<rect x="254.1" y="8" width="0.5" height="30.2"/>
<g>
	<path d="M254.2,8.1c0-1.8,2.5-3.5,4.5-3.5c1.3,0,2.3,0.7,2.3,1.7c0,1.7-2.5,3.5-4.6,3.5C255.1,9.8,254.2,9.2,254.2,8.1z"/>
</g>
<g>
	<path d="M254.2,13c0-1.8,2.5-3.5,4.5-3.5c1.3,0,2.3,0.7,2.3,1.7c0,1.7-2.5,3.5-4.6,3.5C255.1,14.8,254.2,14.1,254.2,13z"/>
</g>
<g>
	<path d="M254.2,18c0-1.8,2.5-3.5,4.5-3.5c1.3,0,2.3,0.7,2.3,1.7c0,1.7-2.5,3.5-4.6,3.5C255.1,19.7,254.2,19.1,254.2,18z"/>
</g>
<g>
	<path d="M254.2,23c0-1.8,2.5-3.5,4.5-3.5c1.3,0,2.3,0.7,2.3,1.7c0,1.7-2.5,3.5-4.6,3.5C255.1,24.7,254.2,24.1,254.2,23z"/>
</g>
<rect x="305.2" y="13" width="0.5" height="26.5"/>
<g>
	<path d="M305.3,13c0-1.8,2.5-3.5,4.5-3.5c1.3,0,2.3,0.7,2.3,1.7c0,1.7-2.5,3.5-4.6,3.5C306.3,14.8,305.3,14.1,305.3,13z"/>
</g>
<g>
	<path d="M305.3,18c0-1.8,2.5-3.5,4.5-3.5c1.3,0,2.3,0.7,2.3,1.7c0,1.7-2.5,3.5-4.6,3.5C306.3,19.7,305.3,19.1,305.3,18z"/>
</g>
<g>
	<path d="M305.3,23c0-1.8,2.5-3.5,4.5-3.5c1.3,0,2.3,0.7,2.3,1.7c0,1.7-2.5,3.5-4.6,3.5C306.3,24.7,305.3,24.1,305.3,23z"/>
</g>
<g>
	<path d="M299,25.5c0-1.8,2.5-3.5,4.5-3.5c1.3,0,2.3,0.7,2.3,1.7c0,1.7-2.5,3.5-4.6,3.5C299.9,27.2,299,26.5,299,25.5z"/>
</g>
<rect x="362.7" y="1" width="0.5" height="27.7"/>
<g>
	<path d="M356.3,30.4c0-1.8,2.5-3.5,4.5-3.5c1.3,0,2.3,0.7,2.3,1.7c0,1.7-2.5,3.5-4.6,3.5C357.3,32.1,356.3,31.5,356.3,30.4z"/>
</g>
<g>
	<path d="M356.3,25.5c0-1.8,2.5-3.5,4.5-3.5c1.3,0,2.3,0.7,2.3,1.7c0,1.7-2.5,3.5-4.6,3.5C357.3,27.2,356.3,26.5,356.3,25.5z"/>
</g>
<g>
	<path d="M362.7,23c0-1.8,2.5-3.5,4.5-3.5c1.3,0,2.3,0.7,2.3,1.7c0,1.7-2.5,3.5-4.6,3.5C363.6,24.7,362.7,24.1,362.7,23z"/>
</g>
<g>
	<path d="M356.3,18c0-1.8,2.5-3.5,4.5-3.5c1.3,0,2.3,0.7,2.3,1.7c0,1.7-2.5,3.5-4.6,3.5C357.3,19.7,356.3,19.1,356.3,18z"/>
</g>
<rect x="405.6" y="34.1" width="10.5" height="0.8"/>
<rect x="413.9" y="4.8" width="0.5" height="29"/>
<g>
	<path d="M407.5,35.4c0-1.8,2.5-3.5,4.5-3.5c1.3,0,2.3,0.7,2.3,1.7c0,1.7-2.5,3.5-4.6,3.5C408.4,37.1,407.5,36.5,407.5,35.4z"/>
</g>
<g>
	<path d="M407.5,30.4c0-1.8,2.5-3.5,4.5-3.5c1.3,0,2.3,0.7,2.3,1.7c0,1.7-2.5,3.5-4.6,3.5C408.4,32.1,407.5,31.5,407.5,30.4z"/>
</g>
<g>
	<path d="M407.5,25.5c0-1.8,2.5-3.5,4.5-3.5c1.3,0,2.3,0.7,2.3,1.7c0,1.7-2.5,3.5-4.6,3.5C408.4,27.2,407.5,26.5,407.5,25.5z"/>
</g>
<g>
	<path d="M413.8,23c0-1.8,2.5-3.5,4.5-3.5c1.3,0,2.3,0.7,2.3,1.7c0,1.7-2.5,3.5-4.6,3.5C414.8,24.7,413.8,24.1,413.8,23z"/>
</g>
<rect x="456.8" y="34.1" width="10.7" height="0.8"/>
<rect x="456.8" y="39.1" width="10.7" height="0.8"/>
<rect x="465.2" y="7.2" width="0.5" height="31.5"/>
<g>
	<path d="M462.9,36.8c1.6,0,2.7,0.7,2.7,2c0,1.9-2.3,3.4-4.5,3.4c-1.3,0-2.4-0.7-2.4-1.8C458.6,38.6,460.9,36.8,462.9,36.8z
		 M459.1,40.6c0,0.6,0.4,0.9,1.1,0.9c1.4,0,4.9-2.1,4.9-3.3c0-0.6-0.4-0.9-1.1-0.9C462.7,37.4,459.1,39.4,459.1,40.6z"/>
</g>
<g>
	<path d="M462.9,31.8c1.6,0,2.7,0.7,2.7,2c0,1.9-2.3,3.4-4.5,3.4c-1.3,0-2.4-0.7-2.4-1.8C458.6,33.6,460.9,31.8,462.9,31.8z
		 M459.1,35.7c0,0.6,0.4,0.9,1.1,0.9c1.4,0,4.9-2.1,4.9-3.3c0-0.6-0.4-0.9-1.1-0.9C462.7,32.4,459.1,34.4,459.1,35.7z"/>
</g>
<g>
	<path d="M462.9,26.9c1.6,0,2.7,0.7,2.7,2c0,1.9-2.3,3.4-4.5,3.4c-1.3,0-2.4-0.7-2.4-1.8C458.6,28.6,460.9,26.9,462.9,26.9z
		 M459.1,30.7c0,0.6,0.4,0.9,1.1,0.9c1.4,0,4.9-2.1,4.9-3.3c0-0.6-0.4-0.9-1.1-0.9C462.7,27.5,459.1,29.5,459.1,30.7z"/>
</g>
<g>
	<path d="M462.9,21.9c1.6,0,2.7,0.7,2.7,2c0,1.9-2.3,3.4-4.5,3.4c-1.3,0-2.4-0.7-2.4-1.8C458.6,23.7,460.9,21.9,462.9,21.9z
		 M459.1,25.7c0,0.6,0.4,0.9,1.1,0.9c1.4,0,4.9-2.1,4.9-3.3c0-0.6-0.4-0.9-1.1-0.9C462.7,22.5,459.1,24.5,459.1,25.7z"/>
</g>
<rect x="49.5" y="64.1" width="0.5" height="27.7"/>
<g>
	<path d="M49.5,64.2c0-1.8,2.5-3.5,4.5-3.5c1.3,0,2.3,0.7,2.3,1.7c0,1.7-2.5,3.5-4.6,3.5C50.5,65.9,49.5,65.3,49.5,64.2z"/>
</g>
<g>
	<path d="M49.5,69.2c0-1.8,2.5-3.5,4.5-3.5c1.3,0,2.3,0.7,2.3,1.7c0,1.7-2.5,3.5-4.6,3.5C50.5,70.9,49.5,70.3,49.5,69.2z"/>
</g>
<g>
	<path d="M49.5,74.1c0-1.8,2.5-3.5,4.5-3.5c1.3,0,2.3,0.7,2.3,1.7c0,1.7-2.5,3.5-4.6,3.5C50.5,75.8,49.5,75.2,49.5,74.1z"/>
</g>
<g>
	<path d="M49.5,79.1c0-1.8,2.5-3.5,4.5-3.5c1.3,0,2.3,0.7,2.3,1.7c0,1.7-2.5,3.5-4.6,3.5C50.5,80.8,49.5,80.2,49.5,79.1z"/>
</g>
<rect x="100.6" y="61.6" width="0.5" height="27.7"/>
<g>
	<path d="M100.7,61.7c0-1.8,2.5-3.5,4.5-3.5c1.3,0,2.3,0.7,2.3,1.7c0,1.7-2.5,3.5-4.6,3.5C101.7,63.4,100.7,62.8,100.7,61.7z"/>
</g>
<g>
	<path d="M94.3,64.2c0-1.8,2.5-3.5,4.5-3.5c1.3,0,2.3,0.7,2.3,1.7c0,1.7-2.5,3.5-4.6,3.5C95.3,65.9,94.3,65.3,94.3,64.2z"/>
</g>
<g>
	<path d="M100.7,69.2c0-1.8,2.5-3.5,4.5-3.5c1.3,0,2.3,0.7,2.3,1.7c0,1.7-2.5,3.5-4.6,3.5C101.7,70.9,100.7,70.3,100.7,69.2z"/>
</g>
<g>
	<path d="M100.7,74.1c0-1.8,2.5-3.5,4.5-3.5c1.3,0,2.3,0.7,2.3,1.7c0,1.7-2.5,3.5-4.6,3.5C101.7,75.8,100.7,75.2,100.7,74.1z"/>
</g>
<rect x="150" y="55.5" width="10.5" height="0.8"/>
<rect x="151.8" y="56.7" width="0.5" height="29"/>
<g>
	<path d="M151.8,56.8c0-1.8,2.5-3.5,4.5-3.5c1.3,0,2.3,0.7,2.3,1.7c0,1.7-2.5,3.5-4.6,3.5C152.8,58.5,151.8,57.9,151.8,56.8z"/>
</g>
<g>
	<path d="M151.8,61.7c0-1.8,2.5-3.5,4.5-3.5c1.3,0,2.3,0.7,2.3,1.7c0,1.7-2.5,3.5-4.6,3.5C152.8,63.4,151.8,62.8,151.8,61.7z"/>
</g>
<g>
	<path d="M145.5,64.2c0-1.8,2.5-3.5,4.5-3.5c1.3,0,2.3,0.7,2.3,1.7c0,1.7-2.5,3.5-4.6,3.5C146.5,65.9,145.5,65.3,145.5,64.2z"/>
</g>
<g>
	<path d="M151.8,69.2c0-1.8,2.5-3.5,4.5-3.5c1.3,0,2.3,0.7,2.3,1.7c0,1.7-2.5,3.5-4.6,3.5C152.8,70.9,151.8,70.3,151.8,69.2z"/>
</g>
<rect x="201.1" y="55.5" width="10.5" height="0.8"/>
<rect x="201.1" y="50.6" width="10.5" height="0.8"/>
<rect x="202.9" y="51.7" width="0.5" height="29"/>
<g>
	<path d="M203,51.8c0-1.8,2.5-3.5,4.5-3.5c1.3,0,2.3,0.7,2.3,1.7c0,1.7-2.5,3.5-4.6,3.5C204,53.5,203,52.9,203,51.8z"/>
</g>
<g>
	<path d="M203,56.8c0-1.8,2.5-3.5,4.5-3.5c1.3,0,2.3,0.7,2.3,1.7c0,1.7-2.5,3.5-4.6,3.5C204,58.5,203,57.9,203,56.8z"/>
</g>
<g>
	<path d="M203,61.7c0-1.8,2.5-3.5,4.5-3.5c1.3,0,2.3,0.7,2.3,1.7c0,1.7-2.5,3.5-4.6,3.5C204,63.4,203,62.8,203,61.7z"/>
</g>
<g>
	<path d="M196.6,64.2c0-1.8,2.5-3.5,4.5-3.5c1.3,0,2.3,0.7,2.3,1.7c0,1.7-2.5,3.5-4.6,3.5C197.6,65.9,196.6,65.3,196.6,64.2z"/>
</g>
<rect x="252.3" y="55.5" width="10.5" height="0.8"/>
<rect x="252.3" y="50.6" width="10.5" height="0.8"/>
<rect x="252.3" y="45.6" width="10.5" height="0.8"/>
<rect x="254.1" y="46.8" width="0.5" height="31.5"/>
<g>
	<path d="M254.2,46.8c0-1.8,2.5-3.5,4.5-3.5c1.3,0,2.3,0.7,2.3,1.7c0,1.7-2.5,3.5-4.6,3.5C255.1,48.6,254.2,47.9,254.2,46.8z"/>
</g>
<g>
	<path d="M254.2,51.8c0-1.8,2.5-3.5,4.5-3.5c1.3,0,2.3,0.7,2.3,1.7c0,1.7-2.5,3.5-4.6,3.5C255.1,53.5,254.2,52.9,254.2,51.8z"/>
</g>
<g>
	<path d="M254.2,56.8c0-1.8,2.5-3.5,4.5-3.5c1.3,0,2.3,0.7,2.3,1.7c0,1.7-2.5,3.5-4.6,3.5C255.1,58.5,254.2,57.9,254.2,56.8z"/>
</g>
<g>
	<path d="M254.2,61.7c0-1.8,2.5-3.5,4.5-3.5c1.3,0,2.3,0.7,2.3,1.7c0,1.7-2.5,3.5-4.6,3.5C255.1,63.4,254.2,62.8,254.2,61.7z"/>
</g>
<rect x="303.5" y="55.5" width="10.5" height="0.8"/>
<rect x="303.5" y="50.6" width="10.5" height="0.8"/>
<rect x="305.2" y="51.7" width="0.5" height="29"/>
<g>
	<path d="M305.3,51.8c0-1.8,2.5-3.5,4.5-3.5c1.3,0,2.3,0.7,2.3,1.7c0,1.7-2.5,3.5-4.6,3.5C306.3,53.5,305.3,52.9,305.3,51.8z"/>
</g>
<g>
	<path d="M305.3,56.8c0-1.8,2.5-3.5,4.5-3.5c1.3,0,2.3,0.7,2.3,1.7c0,1.7-2.5,3.5-4.6,3.5C306.3,58.5,305.3,57.9,305.3,56.8z"/>
</g>
<g>
	<path d="M305.3,61.7c0-1.8,2.5-3.5,4.5-3.5c1.3,0,2.3,0.7,2.3,1.7c0,1.7-2.5,3.5-4.6,3.5C306.3,63.4,305.3,62.8,305.3,61.7z"/>
</g>
<g>
	<path d="M299,64.2c0-1.8,2.5-3.5,4.5-3.5c1.3,0,2.3,0.7,2.3,1.7c0,1.7-2.5,3.5-4.6,3.5C299.9,65.9,299,65.3,299,64.2z"/>
</g>
<rect x="354.5" y="55.5" width="10.5" height="0.8"/>
<rect x="356.2" y="56.7" width="0.5" height="29"/>
<g>
	<path d="M356.3,56.8c0-1.8,2.5-3.5,4.5-3.5c1.3,0,2.3,0.7,2.3,1.7c0,1.7-2.5,3.5-4.6,3.5C357.3,58.5,356.3,57.9,356.3,56.8z"/>
</g>
<g>
	<path d="M356.3,61.7c0-1.8,2.5-3.5,4.5-3.5c1.3,0,2.3,0.7,2.3,1.7c0,1.7-2.5,3.5-4.6,3.5C357.3,63.4,356.3,62.8,356.3,61.7z"/>
</g>
<g>
	<path d="M350,64.2c0-1.8,2.5-3.5,4.5-3.5c1.3,0,2.3,0.7,2.3,1.7c0,1.7-2.5,3.5-4.6,3.5C350.9,65.9,350,65.3,350,64.2z"/>
</g>
<g>
	<path d="M356.3,69.2c0-1.8,2.5-3.5,4.5-3.5c1.3,0,2.3,0.7,2.3,1.7c0,1.7-2.5,3.5-4.6,3.5C357.3,70.9,356.3,70.3,356.3,69.2z"/>
</g>
<rect x="407.4" y="61.6" width="0.5" height="27.7"/>
<g>
	<path d="M407.5,61.7c0-1.8,2.5-3.5,4.5-3.5c1.3,0,2.3,0.7,2.3,1.7c0,1.7-2.5,3.5-4.6,3.5C408.4,63.4,407.5,62.8,407.5,61.7z"/>
</g>
<g>
	<path d="M401.1,64.2c0-1.8,2.5-3.5,4.5-3.5c1.3,0,2.3,0.7,2.3,1.7c0,1.7-2.5,3.5-4.6,3.5C402.1,65.9,401.1,65.3,401.1,64.2z"/>
</g>
<g>
	<path d="M407.5,69.2c0-1.8,2.5-3.5,4.5-3.5c1.3,0,2.3,0.7,2.3,1.7c0,1.7-2.5,3.5-4.6,3.5C408.4,70.9,407.5,70.3,407.5,69.2z"/>
</g>
<g>
	<path d="M407.5,74.1c0-1.8,2.5-3.5,4.5-3.5c1.3,0,2.3,0.7,2.3,1.7c0,1.7-2.5,3.5-4.6,3.5C408.4,75.8,407.5,75.2,407.5,74.1z"/>
</g>
<rect x="458.5" y="64.1" width="0.5" height="27.7"/>
<g>
	<path d="M462.9,60.7c1.6,0,2.7,0.7,2.7,2c0,1.9-2.3,3.4-4.5,3.4c-1.3,0-2.4-0.7-2.4-1.8C458.6,62.4,460.9,60.7,462.9,60.7z
		 M459.1,64.5c0,0.6,0.4,0.9,1.1,0.9c1.4,0,4.9-2.1,4.9-3.3c0-0.6-0.4-0.9-1.1-0.9C462.7,61.2,459.1,63.3,459.1,64.5z"/>
</g>
<g>
	<path d="M462.9,65.6c1.6,0,2.7,0.7,2.7,2c0,1.9-2.3,3.4-4.5,3.4c-1.3,0-2.4-0.7-2.4-1.8C458.6,67.4,460.9,65.6,462.9,65.6z
		 M459.1,69.5c0,0.6,0.4,0.9,1.1,0.9c1.4,0,4.9-2.1,4.9-3.3c0-0.6-0.4-0.9-1.1-0.9C462.7,66.2,459.1,68.2,459.1,69.5z"/>
</g>
<g>
	<path d="M462.9,70.6c1.6,0,2.7,0.7,2.7,2c0,1.9-2.3,3.4-4.5,3.4c-1.3,0-2.4-0.7-2.4-1.8C458.6,72.4,460.9,70.6,462.9,70.6z
		 M459.1,74.4c0,0.6,0.4,0.9,1.1,0.9c1.4,0,4.9-2.1,4.9-3.3c0-0.6-0.4-0.9-1.1-0.9C462.7,71.2,459.1,73.2,459.1,74.4z"/>
</g>
<g>
	<path d="M462.9,75.5c1.6,0,2.7,0.7,2.7,2c0,1.9-2.3,3.4-4.5,3.4c-1.3,0-2.4-0.7-2.4-1.8C458.6,77.3,460.9,75.5,462.9,75.5z
		 M459.1,79.4c0,0.6,0.4,0.9,1.1,0.9c1.4,0,4.9-2.1,4.9-3.3c0-0.6-0.4-0.9-1.1-0.9C462.7,76.1,459.1,78.2,459.1,79.4z"/>
</g>
</svg>
