<?xml version="1.0" encoding="utf-8"?>

<!--
	ScaleBook
	Copyright (c) Leland Jansen 2015. All rights reserved.
-->

<!DOCTYPE svg PUBLIC "-//W3C//DTD SVG 1.1//EN" "http://www.w3.org/Graphics/SVG/1.1/DTD/svg11.dtd">
<svg version="1.1" id="Layer_1" xmlns="http://www.w3.org/2000/svg" xmlns:xlink="http://www.w3.org/1999/xlink" x="0px" y="0px"
	 viewBox="0 0 552.9 87.3" enable-background="new 0 0 552.9 87.3" xml:space="preserve">
<rect x="8.4" y="10" width="0.8" height="67.3"/>
<g>
	<path d="M7.4,10.7c-1.9,1.1-3.6,5.8-3.6,9.5c0,2.3,1.4,10,1.4,12.3c0,5-1.5,8.7-4.6,11.2c3,2.4,4.6,6.1,4.6,11.1
		c0,2.3-1.4,10-1.4,12.3c0,3.8,1.7,8.5,3.6,9.6v0.7C3.9,75,1.7,69,1.7,64.2c0-2.2,1.7-9.4,1.7-11.6c0-3.8-1-6.6-2.9-8.3
		C0.1,44.1,0,43.9,0,43.7c0-0.2,0.1-0.4,0.5-0.7c1.9-1.7,2.9-4.2,2.9-7.6c0-2.2-1.7-10.1-1.7-12.2C1.7,18,3.7,12.7,7.4,10V10.7z"/>
</g>
<rect x="547.8" y="10" width="0.8" height="67.3"/>
<rect x="550.4" y="10" width="2.5" height="67.3"/>
<rect x="8.5" y="29.6" width="544.4" height="0.5"/>
<rect x="8.5" y="24.7" width="544.4" height="0.5"/>
<rect x="8.5" y="19.7" width="544.4" height="0.5"/>
<rect x="8.5" y="14.8" width="544.4" height="0.5"/>
<rect x="8.5" y="9.8" width="544.4" height="0.5"/>
<g>
	<path d="M20.3,29.7c-4.2,0-8.1-3.1-8.1-6.9c0-3.2,2.3-6.7,6.8-10.5c-0.3-1.2-0.4-2.4-0.4-3.6c0-3.5,1.2-6.8,3.2-8.5
		c1.8,2.5,2.7,4.9,2.7,7.1c0,2.9-1.3,5.6-4.3,8.1l0.9,4.2c0.5,0,0.8-0.1,0.8-0.1c2.6,0,4.8,2,4.8,4.7c0,1.9-1.4,3.7-3.6,4.8
		c0-0.1,0.9,3.8,0.9,4.3c0,2.5-2.3,4.2-4.9,4.2c-2,0-3.6-1.3-3.6-3.4c0-1.4,1-2.6,2.4-2.6c1.3,0,2.3,1.3,2.3,2.5
		c0,1.4-1.2,2.3-2.7,2.5c0.6,0.3,1.2,0.5,1.9,0.5c2.1,0,4.1-1.6,4.1-3.6c0-0.2,0-0.4-0.1-0.6l-0.8-3.7
		C21.9,29.6,21.2,29.7,20.3,29.7z M18.1,24.5c0,1,0.5,1.9,1.6,2.5c-1.8-0.3-3-1.4-3-3.1c0-2,1.7-3.7,3.8-4.1l-0.8-4
		C16,18.6,14,21.3,14,23.9c0,2.9,2.8,5.3,6,5.3c0.9,0,1.7-0.2,2.4-0.5L21,21.9C19.4,22.1,18.1,23.1,18.1,24.5z M22.1,3.2
		c-1.6,0-2.9,3.7-2.9,7c0,0.7,0,1.3,0.2,1.9c2.7-2.4,4-4.5,4-6.5c0-0.9-0.3-1.7-1-2.4C22.4,3.2,22.3,3.2,22.1,3.2z M24.9,25
		c0-1.6-1.2-3.3-2.9-3.3c-0.1,0-0.2,0-0.5,0l1.4,6.6C24.2,27.5,24.9,26.3,24.9,25z"/>
</g>
<g>
	<path d="M33.5,3.2v2.8l1-0.3v1.8l-1,0.3v3.4l1-0.3v1.8l-1,0.3v3.1H33v-3l-1.9,0.6v3h-0.5V14l-1,0.3v-1.8l1-0.3V8.8l-1,0.3V7.3
		l1-0.3V3.9h0.5v3L33,6.2v-3H33.5z M33,8l-1.9,0.6v3.4l1.9-0.6V8z"/>
</g>
<g>
	<path d="M39.7,10.7v2.8l1-0.3V15l-1,0.3v3.4l1-0.3v1.8l-1,0.3v3.1h-0.5v-3l-1.9,0.6v3h-0.5v-2.8l-1,0.3V20l1-0.3v-3.4l-1,0.3v-1.8
		l1-0.3v-3.1h0.5v3l1.9-0.6v-3H39.7z M39.2,15.4l-1.9,0.6v3.4l1.9-0.6V15.4z"/>
</g>
<g>
	<path d="M45.9,0.7v2.8l1-0.3V5l-1,0.3v3.4l1-0.3v1.8l-1,0.3v3.1h-0.5v-3l-1.9,0.6v3H43v-2.8l-1,0.3v-1.8l1-0.3V6.3l-1,0.3V4.8
		l1-0.3V1.4h0.5v3l1.9-0.6v-3H45.9z M45.4,5.5l-1.9,0.6v3.4l1.9-0.6V5.5z"/>
</g>
<g>
	<path d="M52.1,8.2V11l1-0.3v1.8l-1,0.3v3.4l1-0.3v1.8l-1,0.3v3.1h-0.5v-3l-1.9,0.6v3h-0.5V19l-1,0.3v-1.8l1-0.3v-3.4l-1,0.3v-1.8
		l1-0.3V8.8h0.5v3l1.9-0.6v-3H52.1z M51.6,13l-1.9,0.6V17l1.9-0.6V13z"/>
</g>
<g>
	<path d="M58.3,15.6v2.8l1-0.3v1.8l-1,0.3v3.4l1-0.3v1.8l-1,0.3v3.1h-0.5v-3l-1.9,0.6v3h-0.5v-2.8l-1,0.3v-1.8l1-0.3v-3.4l-1,0.3
		v-1.8l1-0.3v-3.1h0.5v3l1.9-0.6v-3H58.3z M57.8,20.4L55.9,21v3.4l1.9-0.6V20.4z"/>
</g>
<g>
	<path d="M64.5,5.7v2.8l1-0.3V10l-1,0.3v3.4l1-0.3v1.8l-1,0.3v3.1H64v-3l-1.9,0.6v3h-0.5v-2.8l-1,0.3V15l1-0.3v-3.4l-1,0.3V9.8
		l1-0.3V6.3h0.5v3L64,8.7v-3H64.5z M64,10.5l-1.9,0.6v3.4l1.9-0.6V10.5z"/>
</g>
<rect x="8.5" y="77.1" width="544.4" height="0.5"/>
<rect x="8.5" y="72.1" width="544.4" height="0.5"/>
<rect x="8.5" y="67.2" width="544.4" height="0.5"/>
<rect x="8.5" y="62.2" width="544.4" height="0.5"/>
<rect x="8.5" y="57.2" width="544.4" height="0.5"/>
<g>
	<path d="M15.7,71.7c2.9-2.6,4.7-6.1,4.7-9.2c0-2.5-1.4-4.4-3.7-4.4c-1.6,0-3.4,1.3-3.4,2.7c0,0.2,0,0.3,0.1,0.3
		c-0.1,0,0.6-0.6,1.4-0.6c0.9,0,1.5,0.8,1.5,1.7c0,1.2-0.9,2.2-2.1,2.2c-1.2,0-2.1-1.3-2.1-2.8c0-2.3,2.3-4.1,4.8-4.1
		c4.7,0,5.9,3.2,5.9,5.8c0,1.6-0.4,2.9-2,5.3c-1.9,3.1-6.4,5.3-8.1,5.3c-0.4,0-0.6-0.2-0.6-0.5C13.8,72.9,14.9,72.4,15.7,71.7z
		 M25.7,59c0.6,0,1,0.4,1,1c0,0.6-0.4,1-1,1s-1-0.4-1-1C24.7,59.4,25.1,59,25.7,59z M25.7,63.9c0.6,0,1,0.4,1,1c0,0.6-0.4,1-1,1
		s-1-0.4-1-1C24.7,64.3,25.1,63.9,25.7,63.9z"/>
</g>
<g>
	<path d="M33.5,55.6v2.8l1-0.3v1.8l-1,0.3v3.4l1-0.3v1.8l-1,0.3v3.1H33v-3l-1.9,0.6v3h-0.5v-2.8l-1,0.3v-1.8l1-0.3v-3.4l-1,0.3v-1.8
		l1-0.3v-3.1h0.5v3l1.9-0.6v-3H33.5z M33,60.4L31.1,61v3.4l1.9-0.6V60.4z"/>
</g>
<g>
	<path d="M39.7,63v2.8l1-0.3v1.8l-1,0.3v3.4l1-0.3v1.8l-1,0.3V76h-0.5v-3l-1.9,0.6v3h-0.5v-2.8l-1,0.3v-1.8l1-0.3v-3.4l-1,0.3v-1.8
		l1-0.3v-3.1h0.5v3l1.9-0.6v-3H39.7z M39.2,67.8l-1.9,0.6v3.4l1.9-0.6V67.8z"/>
</g>
<g>
	<path d="M45.9,53.1V56l1-0.3v1.8l-1,0.3v3.4l1-0.3v1.8l-1,0.3v3.1h-0.5v-3l-1.9,0.6v3H43v-2.8l-1,0.3v-1.8l1-0.3v-3.4l-1,0.3v-1.8
		l1-0.3v-3.1h0.5v3l1.9-0.6v-3H45.9z M45.4,57.9l-1.9,0.6V62l1.9-0.6V57.9z"/>
</g>
<g>
	<path d="M52.1,60.6v2.8l1-0.3v1.8l-1,0.3v3.4l1-0.3v1.8l-1,0.3v3.1h-0.5v-3l-1.9,0.6v3h-0.5v-2.8l-1,0.3v-1.8l1-0.3v-3.4l-1,0.3
		v-1.8l1-0.3v-3.1h0.5v3l1.9-0.6v-3H52.1z M51.6,65.3L49.7,66v3.4l1.9-0.6V65.3z"/>
</g>
<g>
	<path d="M58.3,68v2.8l1-0.3v1.8l-1,0.3v3.4l1-0.3v1.8l-1,0.3V81h-0.5v-3l-1.9,0.6v3h-0.5v-2.8l-1,0.3v-1.8l1-0.3v-3.4l-1,0.3v-1.8
		l1-0.3v-3.1h0.5v3l1.9-0.6v-3H58.3z M57.8,72.8l-1.9,0.6v3.4l1.9-0.6V72.8z"/>
</g>
<g>
	<path d="M64.5,58.1v2.8l1-0.3v1.8l-1,0.3v3.4l1-0.3v1.8l-1,0.3v3.1H64v-3l-1.9,0.6v3h-0.5v-2.8l-1,0.3v-1.8l1-0.3v-3.4l-1,0.3v-1.8
		l1-0.3v-3.1h0.5v3l1.9-0.6v-3H64.5z M64,62.9l-1.9,0.6v3.4l1.9-0.6V62.9z"/>
</g>
<g>
	<path d="M212,76c-3.2,0-6.1-2.3-6.1-5.1c0-2.4,1.7-5,5.1-7.9c-0.2-0.9-0.3-1.8-0.3-2.7c0-2.6,0.9-5.1,2.4-6.3c1.4,1.9,2,3.7,2,5.3
		c0,2.2-1,4.2-3.2,6.1l0.7,3.1c0.4,0,0.6,0,0.6,0c2,0,3.6,1.5,3.6,3.5c0,1.4-1.1,2.8-2.7,3.6c0-0.1,0.6,2.8,0.6,3.3
		c0,1.9-1.7,3.2-3.7,3.2c-1.5,0-2.7-1-2.7-2.5c0-1.1,0.7-1.9,1.8-1.9c1,0,1.7,1,1.7,1.9c0,1-0.9,1.7-2,1.8c0.4,0.2,0.9,0.3,1.4,0.3
		c1.6,0,3.1-1.2,3.1-2.7c0-0.1,0-0.3,0-0.5l-0.6-2.8C213.3,75.8,212.7,76,212,76z M210.4,72c0,0.8,0.4,1.4,1.2,1.9
		c-1.3-0.2-2.2-1.1-2.2-2.3c0-1.5,1.3-2.8,2.9-3.1l-0.6-3c-2.8,2.1-4.3,4.1-4.3,6.1c0,2.2,2.1,4,4.5,4c0.7,0,1.3-0.1,1.8-0.4
		l-1.1-5.1C211.3,70.3,210.4,71,210.4,72z M213.4,56c-1.2,0-2.2,2.8-2.2,5.3c0,0.5,0,1,0.1,1.4c2-1.8,3-3.4,3-4.9
		c0-0.7-0.3-1.3-0.7-1.8C213.6,56,213.5,56,213.4,56z M215.5,72.4c0-1.2-0.9-2.4-2.2-2.4c0,0-0.2,0-0.4,0l1.1,5
		C215,74.3,215.5,73.4,215.5,72.4z"/>
</g>
<g>
	<path d="M349.4,69.4c2.2-2,3.6-4.6,3.6-6.9c0-1.9-1.1-3.3-2.8-3.3c-1.2,0-2.5,1-2.5,2.1c0,0.2,0,0.2,0.1,0.2c0,0,0.4-0.5,1-0.5
		c0.7,0,1.2,0.6,1.2,1.3c0,0.9-0.6,1.7-1.6,1.7s-1.5-1-1.5-2.1c0-1.8,1.7-3.1,3.6-3.1c3.5,0,4.4,2.4,4.4,4.4c0,1.2-0.3,2.2-1.5,4
		c-1.4,2.3-4.8,4-6,4c-0.3,0-0.5-0.1-0.5-0.3C347.9,70.3,348.8,69.9,349.4,69.4z M356.8,59.8c0.4,0,0.7,0.3,0.7,0.7
		c0,0.4-0.3,0.7-0.7,0.7c-0.4,0-0.7-0.3-0.7-0.7C356.1,60.2,356.4,59.8,356.8,59.8z M356.8,63.5c0.4,0,0.7,0.3,0.7,0.7
		s-0.3,0.7-0.7,0.7c-0.4,0-0.7-0.3-0.7-0.7S356.4,63.5,356.8,63.5z"/>
</g>
<rect x="72.3" y="34.5" width="10.5" height="0.8"/>
<rect x="80.6" y="2.6" width="0.5" height="31.5"/>
<g>
	<path d="M74.2,35.7c0-1.8,2.5-3.5,4.5-3.5c1.3,0,2.3,0.7,2.3,1.7c0,1.7-2.5,3.5-4.6,3.5C75.2,37.4,74.2,36.8,74.2,35.7z"/>
</g>
<g>
	<path d="M74.2,30.7c0-1.8,2.5-3.5,4.5-3.5C80,27.3,81,28,81,29c0,1.7-2.5,3.5-4.6,3.5C75.2,32.5,74.2,31.8,74.2,30.7z"/>
</g>
<g>
	<path d="M74.2,25.8c0-1.8,2.5-3.5,4.5-3.5C80,22.3,81,23,81,24c0,1.7-2.5,3.5-4.6,3.5C75.2,27.5,74.2,26.9,74.2,25.8z"/>
</g>
<g>
	<path d="M74.2,20.8c0-1.8,2.5-3.5,4.5-3.5c1.3,0,2.3,0.7,2.3,1.7c0,1.7-2.5,3.5-4.6,3.5C75.2,22.5,74.2,21.9,74.2,20.8z"/>
</g>
<rect x="129.1" y="1.4" width="0.5" height="27.7"/>
<g>
	<path d="M122.7,30.7c0-1.8,2.5-3.5,4.5-3.5c1.3,0,2.3,0.7,2.3,1.7c0,1.7-2.5,3.5-4.6,3.5C123.7,32.5,122.7,31.8,122.7,30.7z"/>
</g>
<g>
	<path d="M122.7,25.8c0-1.8,2.5-3.5,4.5-3.5c1.3,0,2.3,0.7,2.3,1.7c0,1.7-2.5,3.5-4.6,3.5C123.7,27.5,122.7,26.9,122.7,25.8z"/>
</g>
<g>
	<path d="M122.7,20.8c0-1.8,2.5-3.5,4.5-3.5c1.3,0,2.3,0.7,2.3,1.7c0,1.7-2.5,3.5-4.6,3.5C123.7,22.5,122.7,21.9,122.7,20.8z"/>
</g>
<g>
	<path d="M129.1,18.3c0-1.8,2.5-3.5,4.5-3.5c1.3,0,2.3,0.7,2.3,1.7c0,1.7-2.5,3.5-4.6,3.5C130,20.1,129.1,19.4,129.1,18.3z"/>
</g>
<rect x="171.3" y="13.3" width="0.5" height="26.5"/>
<g>
	<path d="M171.4,13.4c0-1.8,2.5-3.5,4.5-3.5c1.3,0,2.3,0.7,2.3,1.7c0,1.7-2.5,3.5-4.6,3.5C172.4,15.1,171.4,14.5,171.4,13.4z"/>
</g>
<g>
	<path d="M171.4,18.3c0-1.8,2.5-3.5,4.5-3.5c1.3,0,2.3,0.7,2.3,1.7c0,1.7-2.5,3.5-4.6,3.5C172.4,20.1,171.4,19.4,171.4,18.3z"/>
</g>
<g>
	<path d="M165,20.8c0-1.8,2.5-3.5,4.5-3.5c1.3,0,2.3,0.7,2.3,1.7c0,1.7-2.5,3.5-4.6,3.5C166,22.5,165,21.9,165,20.8z"/>
</g>
<g>
	<path d="M171.4,25.8c0-1.8,2.5-3.5,4.5-3.5c1.3,0,2.3,0.7,2.3,1.7c0,1.7-2.5,3.5-4.6,3.5C172.4,27.5,171.4,26.9,171.4,25.8z"/>
</g>
<rect x="219.8" y="8.3" width="0.5" height="29"/>
<g>
	<path d="M219.9,8.4c0-1.8,2.5-3.5,4.5-3.5c1.3,0,2.3,0.7,2.3,1.7c0,1.7-2.5,3.5-4.6,3.5C220.9,10.1,219.9,9.5,219.9,8.4z"/>
</g>
<g>
	<path d="M219.9,13.4c0-1.8,2.5-3.5,4.5-3.5c1.3,0,2.3,0.7,2.3,1.7c0,1.7-2.5,3.5-4.6,3.5C220.9,15.1,219.9,14.5,219.9,13.4z"/>
</g>
<g>
	<path d="M219.9,18.3c0-1.8,2.5-3.5,4.5-3.5c1.3,0,2.3,0.7,2.3,1.7c0,1.7-2.5,3.5-4.6,3.5C220.9,20.1,219.9,19.4,219.9,18.3z"/>
</g>
<g>
	<path d="M213.5,20.8c0-1.8,2.5-3.5,4.5-3.5c1.3,0,2.3,0.7,2.3,1.7c0,1.7-2.5,3.5-4.6,3.5C214.5,22.5,213.5,21.9,213.5,20.8z"/>
</g>
<rect x="266.7" y="4.7" width="10.5" height="0.8"/>
<rect x="268.5" y="3.4" width="0.5" height="31.5"/>
<g>
	<path d="M268.6,3.5c0-1.8,2.5-3.5,4.5-3.5c1.3,0,2.3,0.7,2.3,1.7c0,1.7-2.5,3.5-4.6,3.5C269.5,5.2,268.6,4.5,268.6,3.5z"/>
</g>
<g>
	<path d="M268.6,8.4c0-1.8,2.5-3.5,4.5-3.5c1.3,0,2.3,0.7,2.3,1.7c0,1.7-2.5,3.5-4.6,3.5C269.5,10.1,268.6,9.5,268.6,8.4z"/>
</g>
<g>
	<path d="M268.6,13.4c0-1.8,2.5-3.5,4.5-3.5c1.3,0,2.3,0.7,2.3,1.7c0,1.7-2.5,3.5-4.6,3.5C269.5,15.1,268.6,14.5,268.6,13.4z"/>
</g>
<g>
	<path d="M268.6,18.3c0-1.8,2.5-3.5,4.5-3.5c1.3,0,2.3,0.7,2.3,1.7c0,1.7-2.5,3.5-4.6,3.5C269.5,20.1,268.6,19.4,268.6,18.3z"/>
</g>
<rect x="317" y="8.3" width="0.5" height="29"/>
<g>
	<path d="M317.1,8.4c0-1.8,2.5-3.5,4.5-3.5c1.3,0,2.3,0.7,2.3,1.7c0,1.7-2.5,3.5-4.6,3.5C318.1,10.1,317.1,9.5,317.1,8.4z"/>
</g>
<g>
	<path d="M317.1,13.4c0-1.8,2.5-3.5,4.5-3.5c1.3,0,2.3,0.7,2.3,1.7c0,1.7-2.5,3.5-4.6,3.5C318.1,15.1,317.1,14.5,317.1,13.4z"/>
</g>
<g>
	<path d="M317.1,18.3c0-1.8,2.5-3.5,4.5-3.5c1.3,0,2.3,0.7,2.3,1.7c0,1.7-2.5,3.5-4.6,3.5C318.1,20.1,317.1,19.4,317.1,18.3z"/>
</g>
<g>
	<path d="M310.7,20.8c0-1.8,2.5-3.5,4.5-3.5c1.3,0,2.3,0.7,2.3,1.7c0,1.7-2.5,3.5-4.6,3.5C311.7,22.5,310.7,21.9,310.7,20.8z"/>
</g>
<rect x="365.5" y="13.3" width="0.5" height="26.5"/>
<g>
	<path d="M365.6,13.4c0-1.8,2.5-3.5,4.5-3.5c1.3,0,2.3,0.7,2.3,1.7c0,1.7-2.5,3.5-4.6,3.5C366.6,15.1,365.6,14.5,365.6,13.4z"/>
</g>
<g>
	<path d="M365.6,18.3c0-1.8,2.5-3.5,4.5-3.5c1.3,0,2.3,0.7,2.3,1.7c0,1.7-2.5,3.5-4.6,3.5C366.6,20.1,365.6,19.4,365.6,18.3z"/>
</g>
<g>
	<path d="M359.3,20.8c0-1.8,2.5-3.5,4.5-3.5c1.3,0,2.3,0.7,2.3,1.7c0,1.7-2.5,3.5-4.6,3.5C360.2,22.5,359.3,21.9,359.3,20.8z"/>
</g>
<g>
	<path d="M365.6,25.8c0-1.8,2.5-3.5,4.5-3.5c1.3,0,2.3,0.7,2.3,1.7c0,1.7-2.5,3.5-4.6,3.5C366.6,27.5,365.6,26.9,365.6,25.8z"/>
</g>
<rect x="420.7" y="1.4" width="0.5" height="27.7"/>
<g>
	<path d="M414.3,30.7c0-1.8,2.5-3.5,4.5-3.5c1.3,0,2.3,0.7,2.3,1.7c0,1.7-2.5,3.5-4.6,3.5C415.3,32.5,414.3,31.8,414.3,30.7z"/>
</g>
<g>
	<path d="M414.3,25.8c0-1.8,2.5-3.5,4.5-3.5c1.3,0,2.3,0.7,2.3,1.7c0,1.7-2.5,3.5-4.6,3.5C415.3,27.5,414.3,26.9,414.3,25.8z"/>
</g>
<g>
	<path d="M414.3,20.8c0-1.8,2.5-3.5,4.5-3.5c1.3,0,2.3,0.7,2.3,1.7c0,1.7-2.5,3.5-4.6,3.5C415.3,22.5,414.3,21.9,414.3,20.8z"/>
</g>
<g>
	<path d="M420.6,18.3c0-1.8,2.5-3.5,4.5-3.5c1.3,0,2.3,0.7,2.3,1.7c0,1.7-2.5,3.5-4.6,3.5C421.6,20.1,420.6,19.4,420.6,18.3z"/>
</g>
<rect x="460.9" y="34.5" width="10.7" height="0.8"/>
<rect x="469.4" y="2.6" width="0.5" height="31.5"/>
<g>
	<path d="M467.1,32.1c1.6,0,2.7,0.7,2.7,2c0,1.9-2.3,3.4-4.5,3.4c-1.3,0-2.4-0.7-2.4-1.8C462.8,33.9,465.1,32.1,467.1,32.1z
		 M463.3,36c0,0.6,0.4,0.9,1.1,0.9c1.4,0,4.9-2.1,4.9-3.3c0-0.6-0.4-0.9-1.1-0.9C466.9,32.7,463.3,34.8,463.3,36z"/>
</g>
<g>
	<path d="M467.1,27.2c1.6,0,2.7,0.7,2.7,2c0,1.9-2.3,3.4-4.5,3.4c-1.3,0-2.4-0.7-2.4-1.8C462.8,29,465.1,27.2,467.1,27.2z M463.3,31
		c0,0.6,0.4,0.9,1.1,0.9c1.4,0,4.9-2.1,4.9-3.3c0-0.6-0.4-0.9-1.1-0.9C466.9,27.8,463.3,29.8,463.3,31z"/>
</g>
<g>
	<path d="M467.1,22.2c1.6,0,2.7,0.7,2.7,2c0,1.9-2.3,3.4-4.5,3.4c-1.3,0-2.4-0.7-2.4-1.8C462.8,24,465.1,22.2,467.1,22.2z
		 M463.3,26.1c0,0.6,0.4,0.9,1.1,0.9c1.4,0,4.9-2.1,4.9-3.3c0-0.6-0.4-0.9-1.1-0.9C466.9,22.8,463.3,24.8,463.3,26.1z"/>
</g>
<g>
	<path d="M467.1,17.3c1.6,0,2.7,0.7,2.7,2c0,1.9-2.3,3.4-4.5,3.4c-1.3,0-2.4-0.7-2.4-1.8C462.8,19,465.1,17.3,467.1,17.3z
		 M463.3,21.1c0,0.6,0.4,0.9,1.1,0.9c1.4,0,4.9-2.1,4.9-3.3c0-0.6-0.4-0.9-1.1-0.9C466.9,17.9,463.3,19.9,463.3,21.1z"/>
</g>
<rect x="74.1" y="55.8" width="0.5" height="30.2"/>
<g>
	<path d="M74.2,55.8c0-1.8,2.5-3.5,4.5-3.5c1.3,0,2.3,0.7,2.3,1.7c0,1.7-2.5,3.5-4.6,3.5C75.2,57.6,74.2,56.9,74.2,55.8z"/>
</g>
<g>
	<path d="M74.2,60.8c0-1.8,2.5-3.5,4.5-3.5c1.3,0,2.3,0.7,2.3,1.7c0,1.7-2.5,3.5-4.6,3.5C75.2,62.5,74.2,61.9,74.2,60.8z"/>
</g>
<g>
	<path d="M74.2,65.8c0-1.8,2.5-3.5,4.5-3.5C80,62.3,81,63,81,64c0,1.7-2.5,3.5-4.6,3.5C75.2,67.5,74.2,66.9,74.2,65.8z"/>
</g>
<g>
	<path d="M74.2,70.7c0-1.8,2.5-3.5,4.5-3.5c1.3,0,2.3,0.7,2.3,1.7c0,1.7-2.5,3.5-4.6,3.5C75.2,72.5,74.2,71.8,74.2,70.7z"/>
</g>
<rect x="120.8" y="52.1" width="10.5" height="0.8"/>
<rect x="122.6" y="53.3" width="0.5" height="29"/>
<g>
	<path d="M122.7,53.4c0-1.8,2.5-3.5,4.5-3.5c1.3,0,2.3,0.7,2.3,1.7c0,1.7-2.5,3.5-4.6,3.5C123.7,55.1,122.7,54.5,122.7,53.4z"/>
</g>
<g>
	<path d="M116.4,55.8c0-1.8,2.5-3.5,4.5-3.5c1.3,0,2.3,0.7,2.3,1.7c0,1.7-2.5,3.5-4.6,3.5C117.3,57.6,116.4,56.9,116.4,55.8z"/>
</g>
<g>
	<path d="M122.7,60.8c0-1.8,2.5-3.5,4.5-3.5c1.3,0,2.3,0.7,2.3,1.7c0,1.7-2.5,3.5-4.6,3.5C123.7,62.5,122.7,61.9,122.7,60.8z"/>
</g>
<g>
	<path d="M122.7,65.8c0-1.8,2.5-3.5,4.5-3.5c1.3,0,2.3,0.7,2.3,1.7c0,1.7-2.5,3.5-4.6,3.5C123.7,67.5,122.7,66.9,122.7,65.8z"/>
</g>
<rect x="169.5" y="52.1" width="10.5" height="0.8"/>
<rect x="169.5" y="47.2" width="10.5" height="0.8"/>
<rect x="171.3" y="48.3" width="0.5" height="29"/>
<g>
	<path d="M171.4,48.4c0-1.8,2.5-3.5,4.5-3.5c1.3,0,2.3,0.7,2.3,1.7c0,1.7-2.5,3.5-4.6,3.5C172.4,50.1,171.4,49.5,171.4,48.4z"/>
</g>
<g>
	<path d="M171.4,53.4c0-1.8,2.5-3.5,4.5-3.5c1.3,0,2.3,0.7,2.3,1.7c0,1.7-2.5,3.5-4.6,3.5C172.4,55.1,171.4,54.5,171.4,53.4z"/>
</g>
<g>
	<path d="M165,55.8c0-1.8,2.5-3.5,4.5-3.5c1.3,0,2.3,0.7,2.3,1.7c0,1.7-2.5,3.5-4.6,3.5C166,57.6,165,56.9,165,55.8z"/>
</g>
<g>
	<path d="M171.4,60.8c0-1.8,2.5-3.5,4.5-3.5c1.3,0,2.3,0.7,2.3,1.7c0,1.7-2.5,3.5-4.6,3.5C172.4,62.5,171.4,61.9,171.4,60.8z"/>
</g>
<rect x="218" y="81.9" width="10.5" height="0.8"/>
<rect x="224.4" y="81.9" width="10.5" height="0.8"/>
<rect x="226.3" y="55" width="0.5" height="29"/>
<g>
	<path d="M219.9,85.6c0-1.8,2.5-3.5,4.5-3.5c1.3,0,2.3,0.7,2.3,1.7c0,1.7-2.5,3.5-4.6,3.5C220.9,87.3,219.9,86.7,219.9,85.6z"/>
</g>
<g>
	<path d="M226.3,83.1c0-1.8,2.5-3.5,4.5-3.5c1.3,0,2.3,0.7,2.3,1.7c0,1.7-2.5,3.5-4.6,3.5C227.2,84.9,226.3,84.2,226.3,83.1z"/>
</g>
<g>
	<path d="M219.9,78.2c0-1.8,2.5-3.5,4.5-3.5c1.3,0,2.3,0.7,2.3,1.7c0,1.7-2.5,3.5-4.6,3.5C220.9,79.9,219.9,79.3,219.9,78.2z"/>
</g>
<g>
	<path d="M219.9,73.2c0-1.8,2.5-3.5,4.5-3.5c1.3,0,2.3,0.7,2.3,1.7c0,1.7-2.5,3.5-4.6,3.5C220.9,74.9,219.9,74.3,219.9,73.2z"/>
</g>
<rect x="266.7" y="81.9" width="10.5" height="0.8"/>
<rect x="275" y="50" width="0.5" height="31.5"/>
<g>
	<path d="M268.6,83.1c0-1.8,2.5-3.5,4.5-3.5c1.3,0,2.3,0.7,2.3,1.7c0,1.7-2.5,3.5-4.6,3.5C269.5,84.9,268.6,84.2,268.6,83.1z"/>
</g>
<g>
	<path d="M268.6,78.2c0-1.8,2.5-3.5,4.5-3.5c1.3,0,2.3,0.7,2.3,1.7c0,1.7-2.5,3.5-4.6,3.5C269.5,79.9,268.6,79.3,268.6,78.2z"/>
</g>
<g>
	<path d="M268.6,73.2c0-1.8,2.5-3.5,4.5-3.5c1.3,0,2.3,0.7,2.3,1.7c0,1.7-2.5,3.5-4.6,3.5C269.5,74.9,268.6,74.3,268.6,73.2z"/>
</g>
<g>
	<path d="M268.6,68.2c0-1.8,2.5-3.5,4.5-3.5c1.3,0,2.3,0.7,2.3,1.7c0,1.7-2.5,3.5-4.6,3.5C269.5,70,268.6,69.3,268.6,68.2z"/>
</g>
<rect x="315.2" y="81.9" width="10.5" height="0.8"/>
<rect x="321.6" y="81.9" width="10.5" height="0.8"/>
<rect x="323.5" y="55" width="0.5" height="29"/>
<g>
	<path d="M317.1,85.6c0-1.8,2.5-3.5,4.5-3.5c1.3,0,2.3,0.7,2.3,1.7c0,1.7-2.5,3.5-4.6,3.5C318.1,87.3,317.1,86.7,317.1,85.6z"/>
</g>
<g>
	<path d="M323.4,83.1c0-1.8,2.5-3.5,4.5-3.5c1.3,0,2.3,0.7,2.3,1.7c0,1.7-2.5,3.5-4.6,3.5C324.4,84.9,323.4,84.2,323.4,83.1z"/>
</g>
<g>
	<path d="M317.1,78.2c0-1.8,2.5-3.5,4.5-3.5c1.3,0,2.3,0.7,2.3,1.7c0,1.7-2.5,3.5-4.6,3.5C318.1,79.9,317.1,79.3,317.1,78.2z"/>
</g>
<g>
	<path d="M317.1,73.2c0-1.8,2.5-3.5,4.5-3.5c1.3,0,2.3,0.7,2.3,1.7c0,1.7-2.5,3.5-4.6,3.5C318.1,74.9,317.1,74.3,317.1,73.2z"/>
</g>
<rect x="363.8" y="52.1" width="10.5" height="0.8"/>
<rect x="363.8" y="47.2" width="10.5" height="0.8"/>
<rect x="365.5" y="48.3" width="0.5" height="29"/>
<g>
	<path d="M365.6,48.4c0-1.8,2.5-3.5,4.5-3.5c1.3,0,2.3,0.7,2.3,1.7c0,1.7-2.5,3.5-4.6,3.5C366.6,50.1,365.6,49.5,365.6,48.4z"/>
</g>
<g>
	<path d="M365.6,53.4c0-1.8,2.5-3.5,4.5-3.5c1.3,0,2.3,0.7,2.3,1.7c0,1.7-2.5,3.5-4.6,3.5C366.6,55.1,365.6,54.5,365.6,53.4z"/>
</g>
<g>
	<path d="M359.3,55.8c0-1.8,2.5-3.5,4.5-3.5c1.3,0,2.3,0.7,2.3,1.7c0,1.7-2.5,3.5-4.6,3.5C360.2,57.6,359.3,56.9,359.3,55.8z"/>
</g>
<g>
	<path d="M365.6,60.8c0-1.8,2.5-3.5,4.5-3.5c1.3,0,2.3,0.7,2.3,1.7c0,1.7-2.5,3.5-4.6,3.5C366.6,62.5,365.6,61.9,365.6,60.8z"/>
</g>
<rect x="412.4" y="52.1" width="10.5" height="0.8"/>
<rect x="414.2" y="53.3" width="0.5" height="29"/>
<g>
	<path d="M414.3,53.4c0-1.8,2.5-3.5,4.5-3.5c1.3,0,2.3,0.7,2.3,1.7c0,1.7-2.5,3.5-4.6,3.5C415.3,55.1,414.3,54.5,414.3,53.4z"/>
</g>
<g>
	<path d="M407.9,55.8c0-1.8,2.5-3.5,4.5-3.5c1.3,0,2.3,0.7,2.3,1.7c0,1.7-2.5,3.5-4.6,3.5C408.9,57.6,407.9,56.9,407.9,55.8z"/>
</g>
<g>
	<path d="M414.3,60.8c0-1.8,2.5-3.5,4.5-3.5c1.3,0,2.3,0.7,2.3,1.7c0,1.7-2.5,3.5-4.6,3.5C415.3,62.5,414.3,61.9,414.3,60.8z"/>
</g>
<g>
	<path d="M414.3,65.8c0-1.8,2.5-3.5,4.5-3.5c1.3,0,2.3,0.7,2.3,1.7c0,1.7-2.5,3.5-4.6,3.5C415.3,67.5,414.3,66.9,414.3,65.8z"/>
</g>
<rect x="462.7" y="55.8" width="0.5" height="30.2"/>
<g>
	<path d="M467.1,52.3c1.6,0,2.7,0.7,2.7,2c0,1.9-2.3,3.4-4.5,3.4c-1.3,0-2.4-0.7-2.4-1.8C462.8,54.1,465.1,52.3,467.1,52.3z
		 M463.3,56.1c0,0.6,0.4,0.9,1.1,0.9c1.4,0,4.9-2.1,4.9-3.3c0-0.6-0.4-0.9-1.1-0.9C466.9,52.9,463.3,54.9,463.3,56.1z"/>
</g>
<g>
	<path d="M467.1,57.3c1.6,0,2.7,0.7,2.7,2c0,1.9-2.3,3.4-4.5,3.4c-1.3,0-2.4-0.7-2.4-1.8C462.8,59,465.1,57.3,467.1,57.3z
		 M463.3,61.1c0,0.6,0.4,0.9,1.1,0.9c1.4,0,4.9-2.1,4.9-3.3c0-0.6-0.4-0.9-1.1-0.9C466.9,57.8,463.3,59.9,463.3,61.1z"/>
</g>
<g>
	<path d="M467.1,62.2c1.6,0,2.7,0.7,2.7,2c0,1.9-2.3,3.4-4.5,3.4c-1.3,0-2.4-0.7-2.4-1.8C462.8,64,465.1,62.2,467.1,62.2z
		 M463.3,66.1c0,0.6,0.4,0.9,1.1,0.9c1.4,0,4.9-2.1,4.9-3.3c0-0.6-0.4-0.9-1.1-0.9C466.9,62.8,463.3,64.8,463.3,66.1z"/>
</g>
<g>
	<path d="M467.1,67.2c1.6,0,2.7,0.7,2.7,2c0,1.9-2.3,3.4-4.5,3.4c-1.3,0-2.4-0.7-2.4-1.8C462.8,69,465.1,67.2,467.1,67.2z M463.3,71
		c0,0.6,0.4,0.9,1.1,0.9c1.4,0,4.9-2.1,4.9-3.3c0-0.6-0.4-0.9-1.1-0.9C466.9,67.8,463.3,69.8,463.3,71z"/>
</g>
</svg>
