<?xml version="1.0" encoding="utf-8"?>

<!--
	ScaleBook
	Copyright (c) Leland Jansen 2015. All rights reserved.
-->

<!DOCTYPE svg PUBLIC "-//W3C//DTD SVG 1.1//EN" "http://www.w3.org/Graphics/SVG/1.1/DTD/svg11.dtd">
<svg version="1.1" id="Layer_1" xmlns="http://www.w3.org/2000/svg" xmlns:xlink="http://www.w3.org/1999/xlink" x="0px" y="0px"
	 viewBox="0 0 552.9 86.7" enable-background="new 0 0 552.9 86.7" xml:space="preserve">
<rect x="8.4" y="9.7" width="0.8" height="67"/>
<g>
	<path d="M7.4,10.4c-1.9,1.1-3.6,5.8-3.6,9.4c0,2.3,1.4,9.9,1.4,12.3c0,5-1.5,8.6-4.6,11.1c3,2.4,4.6,6.1,4.6,11.1
		c0,2.3-1.4,9.9-1.4,12.3c0,3.8,1.7,8.4,3.6,9.5v0.7c-3.5-2.3-5.8-8.2-5.8-13.1c0-2.1,1.7-9.4,1.7-11.5c0-3.8-1-6.6-2.9-8.2
		C0.1,43.6,0,43.4,0,43.2c0-0.2,0.1-0.4,0.5-0.7c1.9-1.7,2.9-4.2,2.9-7.6c0-2.1-1.7-10-1.7-12.2c0-5.2,2.1-10.4,5.8-13.1V10.4z"/>
</g>
<rect x="547.8" y="9.7" width="0.8" height="67"/>
<rect x="550.4" y="9.7" width="2.5" height="67"/>
<rect x="8.5" y="29.3" width="544.4" height="0.5"/>
<rect x="8.5" y="24.4" width="544.4" height="0.5"/>
<rect x="8.5" y="19.4" width="544.4" height="0.5"/>
<rect x="8.5" y="14.4" width="544.4" height="0.5"/>
<rect x="8.5" y="9.5" width="544.4" height="0.5"/>
<g>
	<path d="M20.3,29.4c-4.2,0-8.1-3.1-8.1-6.9c0-3.2,2.3-6.7,6.8-10.5c-0.3-1.2-0.4-2.4-0.4-3.6c0-3.5,1.2-6.8,3.2-8.5
		c1.8,2.5,2.7,4.9,2.7,7.1c0,2.9-1.3,5.6-4.3,8.1l0.9,4.2c0.5,0,0.8-0.1,0.8-0.1c2.6,0,4.8,2,4.8,4.7c0,1.9-1.4,3.7-3.6,4.8
		c0-0.1,0.9,3.8,0.9,4.3c0,2.5-2.3,4.2-4.9,4.2c-2,0-3.6-1.3-3.6-3.4c0-1.4,1-2.6,2.4-2.6c1.3,0,2.3,1.3,2.3,2.5
		c0,1.4-1.2,2.3-2.7,2.5c0.6,0.3,1.2,0.5,1.9,0.5c2.1,0,4.1-1.6,4.1-3.6c0-0.2,0-0.4-0.1-0.6l-0.8-3.7
		C21.9,29.3,21.2,29.4,20.3,29.4z M18.1,24.2c0,1,0.5,1.9,1.6,2.5c-1.8-0.3-3-1.4-3-3.1c0-2,1.7-3.7,3.8-4.1l-0.8-4
		C16,18.3,14,21,14,23.6c0,2.9,2.8,5.3,6,5.3c0.9,0,1.7-0.2,2.4-0.5L21,21.6C19.4,21.8,18.1,22.8,18.1,24.2z M22.1,2.8
		c-1.6,0-2.9,3.7-2.9,7c0,0.7,0,1.3,0.2,1.9c2.7-2.4,4-4.5,4-6.5c0-0.9-0.3-1.7-1-2.4C22.4,2.9,22.3,2.8,22.1,2.8z M24.9,24.7
		c0-1.6-1.2-3.3-2.9-3.3c-0.1,0-0.2,0-0.5,0l1.4,6.6C24.2,27.2,24.9,26,24.9,24.7z"/>
</g>
<g>
	<path d="M33.5,2.9v2.8l1-0.3v1.8l-1,0.3V11l1-0.3v1.8l-1,0.3v3.1H33v-3l-1.9,0.6v3h-0.5v-2.8l-1,0.3v-1.8l1-0.3V8.4l-1,0.3V7l1-0.3
		V3.5h0.5v3L33,5.9v-3H33.5z M33,7.7l-1.9,0.6v3.4l1.9-0.6V7.7z"/>
</g>
<g>
	<path d="M39.7,10.3v2.8l1-0.3v1.8l-1,0.3v3.4l1-0.3v1.8l-1,0.3v3.1h-0.5v-3L37.3,21v3h-0.5v-2.8l-1,0.3v-1.8l1-0.3v-3.4l-1,0.3
		v-1.8l1-0.3V11h0.5v3l1.9-0.6v-3H39.7z M39.2,15.1l-1.9,0.6v3.4l1.9-0.6V15.1z"/>
</g>
<g>
	<path d="M45.9,0.4v2.8l1-0.3v1.8l-1,0.3v3.4l1-0.3V10l-1,0.3v3.1h-0.5v-3l-1.9,0.6v3H43v-2.8l-1,0.3V9.7l1-0.3V6l-1,0.3V4.5l1-0.3
		V1h0.5v3l1.9-0.6v-3H45.9z M45.4,5.2l-1.9,0.6v3.4l1.9-0.6V5.2z"/>
</g>
<g>
	<path d="M52.1,7.9v2.8l1-0.3v1.8l-1,0.3v3.4l1-0.3v1.8l-1,0.3v3.1h-0.5v-3l-1.9,0.6v3h-0.5v-2.8l-1,0.3v-1.8l1-0.3v-3.4l-1,0.3
		v-1.8l1-0.3V8.5h0.5v3l1.9-0.6v-3H52.1z M51.6,12.6l-1.9,0.6v3.4l1.9-0.6V12.6z"/>
</g>
<polygon fill-rule="evenodd" clip-rule="evenodd" points="68.5,25.8 112.9,20.9 112.9,18.4 68.5,23.4 "/>
<polygon fill-rule="evenodd" clip-rule="evenodd" points="68.5,22.1 112.9,17.2 112.9,14.7 68.5,19.6 "/>
<polygon fill-rule="evenodd" clip-rule="evenodd" points="127.7,15.9 172.2,11 172.2,8.5 127.7,13.4 "/>
<polygon fill-rule="evenodd" clip-rule="evenodd" points="127.7,12.2 172.2,7.2 172.2,4.8 127.7,9.7 "/>
<polygon fill-rule="evenodd" clip-rule="evenodd" points="192,30.8 236.5,25.8 236.5,23.4 192,28.3 "/>
<polygon fill-rule="evenodd" clip-rule="evenodd" points="192,34.5 236.5,29.6 236.5,27.1 192,32 "/>
<polygon fill-rule="evenodd" clip-rule="evenodd" points="251.4,22.1 295.9,20.9 295.9,18.4 251.4,19.6 "/>
<polygon fill-rule="evenodd" clip-rule="evenodd" points="251.4,25.8 295.9,24.6 295.9,22.1 251.4,23.4 "/>
<polygon fill-rule="evenodd" clip-rule="evenodd" points="310.6,25.8 355.1,30.8 355.1,28.3 310.6,23.4 "/>
<polygon fill-rule="evenodd" clip-rule="evenodd" points="310.6,29.6 355.1,34.5 355.1,32 310.6,27.1 "/>
<polygon fill-rule="evenodd" clip-rule="evenodd" points="387.9,11 432.4,15.9 432.4,13.4 387.9,8.5 "/>
<polygon fill-rule="evenodd" clip-rule="evenodd" points="387.9,7.2 432.4,12.2 432.4,9.7 387.9,4.8 "/>
<polygon fill-rule="evenodd" clip-rule="evenodd" points="447.3,20.9 491.6,25.8 491.6,23.4 447.3,18.4 "/>
<polygon fill-rule="evenodd" clip-rule="evenodd" points="447.3,17.2 491.6,22.1 491.6,19.6 447.3,14.7 "/>
<rect x="8.5" y="76.4" width="544.4" height="0.5"/>
<rect x="8.5" y="71.5" width="544.4" height="0.5"/>
<rect x="8.5" y="66.5" width="544.4" height="0.5"/>
<rect x="8.5" y="61.6" width="544.4" height="0.5"/>
<rect x="8.5" y="56.6" width="544.4" height="0.5"/>
<g>
	<path d="M15.7,71c2.9-2.6,4.7-6.1,4.7-9.2c0-2.5-1.4-4.4-3.7-4.4c-1.6,0-3.4,1.3-3.4,2.7c0,0.2,0,0.3,0.1,0.3
		c-0.1,0,0.6-0.6,1.4-0.6c0.9,0,1.5,0.8,1.5,1.7c0,1.2-0.9,2.2-2.1,2.2c-1.2,0-2.1-1.3-2.1-2.8c0-2.3,2.3-4.1,4.8-4.1
		c4.7,0,5.9,3.2,5.9,5.8c0,1.6-0.4,2.9-2,5.3c-1.9,3.1-6.4,5.3-8.1,5.3c-0.4,0-0.6-0.2-0.6-0.5C13.8,72.3,14.9,71.7,15.7,71z
		 M25.7,58.3c0.6,0,1,0.4,1,1c0,0.6-0.4,1-1,1s-1-0.4-1-1C24.7,58.8,25.1,58.3,25.7,58.3z M25.7,63.3c0.6,0,1,0.4,1,1
		c0,0.6-0.4,1-1,1s-1-0.4-1-1C24.7,63.7,25.1,63.3,25.7,63.3z"/>
</g>
<g>
	<path d="M33.5,55v2.8l1-0.3v1.8l-1,0.3V63l1-0.3v1.8l-1,0.3V68H33v-3l-1.9,0.6v3h-0.5v-2.8l-1,0.3v-1.8l1-0.3v-3.4l-1,0.3v-1.8
		l1-0.3v-3.1h0.5v3L33,58v-3H33.5z M33,59.8l-1.9,0.6v3.4l1.9-0.6V59.8z"/>
</g>
<g>
	<path d="M39.7,62.4v2.8l1-0.3v1.8l-1,0.3v3.4l1-0.3V72l-1,0.3v3.1h-0.5v-3l-1.9,0.6v3h-0.5v-2.8l-1,0.3v-1.8l1-0.3V68l-1,0.3v-1.8
		l1-0.3v-3.1h0.5v3l1.9-0.6v-3H39.7z M39.2,67.2l-1.9,0.6v3.4l1.9-0.6V67.2z"/>
</g>
<g>
	<path d="M45.9,52.5v2.8l1-0.3v1.8l-1,0.3v3.4l1-0.3V62l-1,0.3v3.1h-0.5v-3l-1.9,0.6v3H43v-2.8l-1,0.3v-1.8l1-0.3V58l-1,0.3v-1.8
		l1-0.3v-3.1h0.5v3l1.9-0.6v-3H45.9z M45.4,57.3l-1.9,0.6v3.4l1.9-0.6V57.3z"/>
</g>
<g>
	<path d="M52.1,59.9v2.8l1-0.3v1.8l-1,0.3V68l1-0.3v1.8l-1,0.3v3.1h-0.5v-3l-1.9,0.6v3h-0.5v-2.8l-1,0.3v-1.8l1-0.3v-3.4l-1,0.3V64
		l1-0.3v-3.1h0.5v3l1.9-0.6v-3H52.1z M51.6,64.7l-1.9,0.6v3.4l1.9-0.6V64.7z"/>
</g>
<polygon fill-rule="evenodd" clip-rule="evenodd" points="68.5,63 112.9,58.1 112.9,55.6 68.5,60.6 "/>
<polygon fill-rule="evenodd" clip-rule="evenodd" points="68.5,59.3 112.9,54.4 112.9,51.9 68.5,56.8 "/>
<g>
	<path d="M184,75.3c-3.2,0-6.1-2.3-6.1-5.1c0-2.4,1.7-5,5.1-7.9c-0.2-0.9-0.3-1.8-0.3-2.7c0-2.6,0.9-5.1,2.4-6.3
		c1.4,1.9,2,3.7,2,5.3c0,2.2-1,4.2-3.2,6.1l0.7,3.1c0.4,0,0.6,0,0.6,0c2,0,3.6,1.5,3.6,3.5c0,1.4-1.1,2.8-2.7,3.6
		c0-0.1,0.6,2.8,0.6,3.3c0,1.9-1.7,3.2-3.7,3.2c-1.5,0-2.7-1-2.7-2.5c0-1.1,0.7-1.9,1.8-1.9c1,0,1.7,1,1.7,1.9c0,1-0.9,1.7-2,1.8
		c0.4,0.2,0.9,0.3,1.4,0.3c1.6,0,3.1-1.2,3.1-2.7c0-0.1,0-0.3,0-0.5l-0.6-2.8C185.2,75.2,184.7,75.3,184,75.3z M182.3,71.4
		c0,0.8,0.4,1.4,1.2,1.9c-1.3-0.2-2.2-1.1-2.2-2.3c0-1.5,1.3-2.8,2.9-3.1l-0.6-3c-2.8,2.1-4.3,4.1-4.3,6.1c0,2.2,2.1,4,4.5,4
		c0.7,0,1.3-0.1,1.8-0.4l-1.1-5.1C183.3,69.6,182.3,70.4,182.3,71.4z M185.4,55.4c-1.2,0-2.2,2.8-2.2,5.3c0,0.5,0,1,0.1,1.4
		c2-1.8,3-3.4,3-4.9c0-0.7-0.3-1.3-0.7-1.8C185.6,55.4,185.5,55.4,185.4,55.4z M187.4,71.8c0-1.2-0.9-2.4-2.2-2.4c0,0-0.2,0-0.4,0
		l1.1,5C186.9,73.7,187.4,72.8,187.4,71.8z"/>
</g>
<polygon fill-rule="evenodd" clip-rule="evenodd" points="121.2,77.9 165.6,73 165.6,70.5 121.2,75.4 "/>
<polygon fill-rule="evenodd" clip-rule="evenodd" points="121.2,81.6 165.6,76.7 165.6,74.2 121.2,79.2 "/>
<polygon fill-rule="evenodd" clip-rule="evenodd" points="198.5,73 243,68 243,65.5 198.5,70.5 "/>
<polygon fill-rule="evenodd" clip-rule="evenodd" points="198.5,69.2 243,64.3 243,61.8 198.5,66.8 "/>
<rect x="257.9" y="55.6" fill-rule="evenodd" clip-rule="evenodd" width="44.5" height="2.5"/>
<rect x="257.9" y="51.9" fill-rule="evenodd" clip-rule="evenodd" width="44.5" height="2.5"/>
<g>
	<path d="M371.8,68.7c2.2-2,3.6-4.6,3.6-6.9c0-1.9-1.1-3.3-2.8-3.3c-1.2,0-2.5,1-2.5,2.1c0,0.2,0,0.2,0.1,0.2c0,0,0.4-0.5,1-0.5
		c0.7,0,1.2,0.6,1.2,1.3c0,0.9-0.6,1.7-1.6,1.7s-1.5-1-1.5-2.1c0-1.8,1.7-3.1,3.6-3.1c3.5,0,4.4,2.4,4.4,4.4c0,1.2-0.3,2.2-1.5,4
		c-1.4,2.3-4.8,4-6,4c-0.3,0-0.5-0.1-0.5-0.3C370.4,69.7,371.2,69.2,371.8,68.7z M379.3,59.2c0.4,0,0.7,0.3,0.7,0.7
		c0,0.4-0.3,0.7-0.7,0.7c-0.4,0-0.7-0.3-0.7-0.7C378.6,59.5,378.9,59.2,379.3,59.2z M379.3,62.9c0.4,0,0.7,0.3,0.7,0.7
		s-0.3,0.7-0.7,0.7c-0.4,0-0.7-0.3-0.7-0.7S378.9,62.9,379.3,62.9z"/>
</g>
<polygon fill-rule="evenodd" clip-rule="evenodd" points="317.1,63 361.6,68 361.6,65.5 317.1,60.6 "/>
<polygon fill-rule="evenodd" clip-rule="evenodd" points="317.1,59.3 361.6,64.3 361.6,61.8 317.1,56.8 "/>
<polygon fill-rule="evenodd" clip-rule="evenodd" points="381.4,68 425.9,73 425.9,70.5 381.4,65.5 "/>
<polygon fill-rule="evenodd" clip-rule="evenodd" points="381.4,71.7 425.9,76.7 425.9,74.2 381.4,69.2 "/>
<polygon fill-rule="evenodd" clip-rule="evenodd" points="447.3,53.1 491.6,58.1 491.6,55.6 447.3,50.6 "/>
<polygon fill-rule="evenodd" clip-rule="evenodd" points="447.3,49.4 491.6,54.4 491.6,51.9 447.3,46.9 "/>
<rect x="59.9" y="34.1" width="10.5" height="0.8"/>
<rect x="59.9" y="39.1" width="10.5" height="0.8"/>
<rect x="68.2" y="19.8" width="0.5" height="18.9"/>
<g>
	<path d="M61.8,40.3c0-1.8,2.5-3.5,4.5-3.5c1.3,0,2.3,0.7,2.3,1.7c0,1.7-2.5,3.5-4.6,3.5C62.8,42.1,61.8,41.4,61.8,40.3z"/>
</g>
<rect x="74.8" y="34.1" width="10.5" height="0.8"/>
<rect x="83.1" y="18.2" width="0.5" height="18"/>
<g>
	<path d="M76.7,37.9c0-1.8,2.5-3.5,4.5-3.5c1.3,0,2.3,0.7,2.3,1.7c0,1.7-2.5,3.5-4.6,3.5C77.6,39.6,76.7,38.9,76.7,37.9z"/>
</g>
<rect x="89.5" y="34.1" width="10.5" height="0.8"/>
<rect x="97.8" y="16.5" width="0.5" height="17.2"/>
<g>
	<path d="M91.4,35.4c0-1.8,2.5-3.5,4.5-3.5c1.3,0,2.3,0.7,2.3,1.7c0,1.7-2.5,3.5-4.6,3.5C92.4,37.1,91.4,36.5,91.4,35.4z"/>
</g>
<rect x="112.7" y="14.8" width="0.5" height="16.4"/>
<g>
	<path d="M106.3,32.9c0-1.8,2.5-3.5,4.5-3.5c1.3,0,2.3,0.7,2.3,1.7c0,1.7-2.5,3.5-4.6,3.5C107.2,34.6,106.3,34,106.3,32.9z"/>
</g>
<rect x="127.4" y="9.9" width="0.5" height="18.9"/>
<g>
	<path d="M121,30.4c0-1.8,2.5-3.5,4.5-3.5c1.3,0,2.3,0.7,2.3,1.7c0,1.7-2.5,3.5-4.6,3.5C122,32.1,121,31.5,121,30.4z"/>
</g>
<rect x="142.3" y="8.3" width="0.5" height="18"/>
<g>
	<path d="M135.9,27.9c0-1.8,2.5-3.5,4.5-3.5c1.3,0,2.3,0.7,2.3,1.7c0,1.7-2.5,3.5-4.6,3.5C136.9,29.7,135.9,29,135.9,27.9z"/>
</g>
<rect x="157.2" y="6.6" width="0.5" height="17.2"/>
<g>
	<path d="M150.8,25.5c0-1.8,2.5-3.5,4.5-3.5c1.3,0,2.3,0.7,2.3,1.7c0,1.7-2.5,3.5-4.6,3.5C151.7,27.2,150.8,26.5,150.8,25.5z"/>
</g>
<rect x="171.9" y="4.9" width="0.5" height="16.4"/>
<g>
	<path d="M165.5,23c0-1.8,2.5-3.5,4.5-3.5c1.3,0,2.3,0.7,2.3,1.7c0,1.7-2.5,3.5-4.6,3.5C166.5,24.7,165.5,24.1,165.5,23z"/>
</g>
<rect x="191.8" y="20.4" width="0.5" height="14"/>
<g>
	<path d="M191.8,20.5c0-1.8,2.5-3.5,4.5-3.5c1.3,0,2.3,0.7,2.3,1.7c0,1.7-2.5,3.5-4.6,3.5C192.8,22.2,191.8,21.6,191.8,20.5z"/>
</g>
<rect x="206.6" y="17.9" width="0.5" height="14.9"/>
<g>
	<path d="M206.7,18c0-1.8,2.5-3.5,4.5-3.5c1.3,0,2.3,0.7,2.3,1.7c0,1.7-2.5,3.5-4.6,3.5C207.7,19.7,206.7,19.1,206.7,18z"/>
</g>
<rect x="221.5" y="15.5" width="0.5" height="15.7"/>
<g>
	<path d="M221.6,15.5c0-1.8,2.5-3.5,4.5-3.5c1.3,0,2.3,0.7,2.3,1.7c0,1.7-2.5,3.5-4.6,3.5C222.6,17.3,221.6,16.6,221.6,15.5z"/>
</g>
<rect x="236.3" y="13" width="0.5" height="16.4"/>
<g>
	<path d="M236.3,13c0-1.8,2.5-3.5,4.5-3.5c1.3,0,2.3,0.7,2.3,1.7c0,1.7-2.5,3.5-4.6,3.5C237.3,14.8,236.3,14.1,236.3,13z"/>
</g>
<rect x="251.1" y="10.5" width="0.5" height="15.2"/>
<g>
	<path d="M251.2,10.6c0-1.8,2.5-3.5,4.5-3.5c1.3,0,2.3,0.7,2.3,1.7c0,1.7-2.5,3.5-4.6,3.5C252.2,12.3,251.2,11.7,251.2,10.6z"/>
</g>
<rect x="265.9" y="8" width="0.5" height="17.4"/>
<g>
	<path d="M265.9,8.1c0-1.8,2.5-3.5,4.5-3.5c1.3,0,2.3,0.7,2.3,1.7c0,1.7-2.5,3.5-4.6,3.5C266.9,9.8,265.9,9.2,265.9,8.1z"/>
</g>
<rect x="279" y="4.4" width="10.5" height="0.8"/>
<rect x="280.7" y="5.5" width="0.5" height="19.4"/>
<g>
	<path d="M280.8,5.6c0-1.8,2.5-3.5,4.5-3.5c1.3,0,2.3,0.7,2.3,1.7c0,1.7-2.5,3.5-4.6,3.5C281.8,7.3,280.8,6.7,280.8,5.6z"/>
</g>
<rect x="295.6" y="8" width="0.5" height="16.4"/>
<g>
	<path d="M295.7,8.1c0-1.8,2.5-3.5,4.5-3.5c1.3,0,2.3,0.7,2.3,1.7c0,1.7-2.5,3.5-4.6,3.5C296.7,9.8,295.7,9.2,295.7,8.1z"/>
</g>
<rect x="310.4" y="10.5" width="0.5" height="18.9"/>
<g>
	<path d="M310.4,10.6c0-1.8,2.5-3.5,4.5-3.5c1.3,0,2.3,0.7,2.3,1.7c0,1.7-2.5,3.5-4.6,3.5C311.4,12.3,310.4,11.7,310.4,10.6z"/>
</g>
<rect x="325.2" y="13" width="0.5" height="18"/>
<g>
	<path d="M325.3,13c0-1.8,2.5-3.5,4.5-3.5c1.3,0,2.3,0.7,2.3,1.7c0,1.7-2.5,3.5-4.6,3.5C326.3,14.8,325.3,14.1,325.3,13z"/>
</g>
<rect x="340" y="15.5" width="0.5" height="17.2"/>
<g>
	<path d="M340,15.5c0-1.8,2.5-3.5,4.5-3.5c1.3,0,2.3,0.7,2.3,1.7c0,1.7-2.5,3.5-4.6,3.5C341,17.3,340,16.6,340,15.5z"/>
</g>
<rect x="354.8" y="17.9" width="0.5" height="16.4"/>
<g>
	<path d="M354.9,18c0-1.8,2.5-3.5,4.5-3.5c1.3,0,2.3,0.7,2.3,1.7c0,1.7-2.5,3.5-4.6,3.5C355.9,19.7,354.9,19.1,354.9,18z"/>
</g>
<rect x="387.7" y="4.9" width="0.5" height="14"/>
<g>
	<path d="M381.3,20.5c0-1.8,2.5-3.5,4.5-3.5c1.3,0,2.3,0.7,2.3,1.7c0,1.7-2.5,3.5-4.6,3.5C382.2,22.2,381.3,21.6,381.3,20.5z"/>
</g>
<rect x="402.6" y="6.5" width="0.5" height="14.9"/>
<g>
	<path d="M396.2,23c0-1.8,2.5-3.5,4.5-3.5c1.3,0,2.3,0.7,2.3,1.7c0,1.7-2.5,3.5-4.6,3.5C397.1,24.7,396.2,24.1,396.2,23z"/>
</g>
<rect x="417.3" y="8.2" width="0.5" height="15.7"/>
<g>
	<path d="M410.9,25.5c0-1.8,2.5-3.5,4.5-3.5c1.3,0,2.3,0.7,2.3,1.7c0,1.7-2.5,3.5-4.6,3.5C411.9,27.2,410.9,26.5,410.9,25.5z"/>
</g>
<rect x="432.2" y="9.9" width="0.5" height="16.4"/>
<g>
	<path d="M425.8,27.9c0-1.8,2.5-3.5,4.5-3.5c1.3,0,2.3,0.7,2.3,1.7c0,1.7-2.5,3.5-4.6,3.5C426.7,29.7,425.8,29,425.8,27.9z"/>
</g>
<rect x="447.1" y="14.8" width="0.5" height="14"/>
<g>
	<path d="M440.6,30.4c0-1.8,2.5-3.5,4.5-3.5c1.3,0,2.3,0.7,2.3,1.7c0,1.7-2.5,3.5-4.6,3.5C441.6,32.1,440.6,31.5,440.6,30.4z"/>
</g>
<rect x="461.8" y="16.4" width="0.5" height="14.9"/>
<g>
	<path d="M455.4,32.9c0-1.8,2.5-3.5,4.5-3.5c1.3,0,2.3,0.7,2.3,1.7c0,1.7-2.5,3.5-4.6,3.5C456.3,34.6,455.4,34,455.4,32.9z"/>
</g>
<rect x="468.4" y="34.1" width="10.5" height="0.8"/>
<rect x="476.7" y="18.1" width="0.5" height="15.7"/>
<g>
	<path d="M470.2,35.4c0-1.8,2.5-3.5,4.5-3.5c1.3,0,2.3,0.7,2.3,1.7c0,1.7-2.5,3.5-4.6,3.5C471.2,37.1,470.2,36.5,470.2,35.4z"/>
</g>
<rect x="483.1" y="34.1" width="10.5" height="0.8"/>
<rect x="491.4" y="19.8" width="0.5" height="16.4"/>
<g>
	<path d="M485,37.9c0-1.8,2.5-3.5,4.5-3.5c1.3,0,2.3,0.7,2.3,1.7c0,1.7-2.5,3.5-4.6,3.5C485.9,39.6,485,38.9,485,37.9z"/>
</g>
<rect x="498" y="34.1" width="10.7" height="0.8"/>
<rect x="498" y="39.1" width="10.7" height="0.8"/>
<rect x="506.4" y="19.6" width="0.5" height="19.1"/>
<g>
	<path d="M504.1,36.8c1.6,0,2.7,0.7,2.7,2c0,1.9-2.3,3.4-4.5,3.4c-1.3,0-2.4-0.7-2.4-1.8C499.9,38.6,502.1,36.8,504.1,36.8z
		 M500.3,40.6c0,0.6,0.4,0.9,1.1,0.9c1.4,0,4.9-2.1,4.9-3.3c0-0.6-0.4-0.9-1.1-0.9C504,37.4,500.3,39.4,500.3,40.6z"/>
</g>
<rect x="68.2" y="57" width="0.5" height="16.4"/>
<g>
	<path d="M61.8,75.1c0-1.8,2.5-3.5,4.5-3.5c1.3,0,2.3,0.7,2.3,1.7c0,1.7-2.5,3.5-4.6,3.5C62.8,76.8,61.8,76.1,61.8,75.1z"/>
</g>
<rect x="83.1" y="55.4" width="0.5" height="15.5"/>
<g>
	<path d="M76.7,72.6c0-1.8,2.5-3.5,4.5-3.5c1.3,0,2.3,0.7,2.3,1.7c0,1.7-2.5,3.5-4.6,3.5C77.6,74.3,76.7,73.7,76.7,72.6z"/>
</g>
<rect x="97.8" y="53.7" width="0.5" height="14.7"/>
<g>
	<path d="M91.4,70.1c0-1.8,2.5-3.5,4.5-3.5c1.3,0,2.3,0.7,2.3,1.7c0,1.7-2.5,3.5-4.6,3.5C92.4,71.8,91.4,71.2,91.4,70.1z"/>
</g>
<rect x="112.7" y="52" width="0.5" height="14"/>
<g>
	<path d="M106.3,67.6c0-1.8,2.5-3.5,4.5-3.5c1.3,0,2.3,0.7,2.3,1.7c0,1.7-2.5,3.5-4.6,3.5C107.2,69.3,106.3,68.7,106.3,67.6z"/>
</g>
<rect x="120.9" y="65.1" width="0.5" height="16.4"/>
<g>
	<path d="M121,65.1c0-1.8,2.5-3.5,4.5-3.5c1.3,0,2.3,0.7,2.3,1.7c0,1.7-2.5,3.5-4.6,3.5C122,66.9,121,66.2,121,65.1z"/>
</g>
<rect x="135.8" y="62.6" width="0.5" height="17.4"/>
<g>
	<path d="M135.9,62.7c0-1.8,2.5-3.5,4.5-3.5c1.3,0,2.3,0.7,2.3,1.7c0,1.7-2.5,3.5-4.6,3.5C136.9,64.4,135.9,63.7,135.9,62.7z"/>
</g>
<rect x="150.7" y="60.1" width="0.5" height="18.1"/>
<g>
	<path d="M150.8,60.2c0-1.8,2.5-3.5,4.5-3.5c1.3,0,2.3,0.7,2.3,1.7c0,1.7-2.5,3.5-4.6,3.5C151.7,61.9,150.8,61.3,150.8,60.2z"/>
</g>
<rect x="165.4" y="57.6" width="0.5" height="18.9"/>
<g>
	<path d="M165.5,57.7c0-1.8,2.5-3.5,4.5-3.5c1.3,0,2.3,0.7,2.3,1.7c0,1.7-2.5,3.5-4.6,3.5C166.5,59.4,165.5,58.8,165.5,57.7z"/>
</g>
<rect x="190" y="81.3" width="10.5" height="0.8"/>
<rect x="198.3" y="66.9" width="0.5" height="16.4"/>
<g>
	<path d="M191.8,85c0-1.8,2.5-3.5,4.5-3.5c1.3,0,2.3,0.7,2.3,1.7c0,1.7-2.5,3.5-4.6,3.5C192.8,86.7,191.8,86.1,191.8,85z"/>
</g>
<rect x="204.9" y="81.3" width="10.5" height="0.8"/>
<rect x="213.2" y="65.4" width="0.5" height="15.5"/>
<g>
	<path d="M206.7,82.5c0-1.8,2.5-3.5,4.5-3.5c1.3,0,2.3,0.7,2.3,1.7c0,1.7-2.5,3.5-4.6,3.5C207.7,84.2,206.7,83.6,206.7,82.5z"/>
</g>
<rect x="228" y="63.7" width="0.5" height="14.7"/>
<g>
	<path d="M221.6,80c0-1.8,2.5-3.5,4.5-3.5c1.3,0,2.3,0.7,2.3,1.7c0,1.7-2.5,3.5-4.6,3.5C222.6,81.7,221.6,81.1,221.6,80z"/>
</g>
<rect x="242.8" y="62" width="0.5" height="14"/>
<g>
	<path d="M236.3,77.5c0-1.8,2.5-3.5,4.5-3.5c1.3,0,2.3,0.7,2.3,1.7c0,1.7-2.5,3.5-4.6,3.5C237.3,79.3,236.3,78.6,236.3,77.5z"/>
</g>
<rect x="257.6" y="52" width="0.5" height="21.4"/>
<g>
	<path d="M251.2,75.1c0-1.8,2.5-3.5,4.5-3.5c1.3,0,2.3,0.7,2.3,1.7c0,1.7-2.5,3.5-4.6,3.5C252.2,76.8,251.2,76.1,251.2,75.1z"/>
</g>
<rect x="272.4" y="52" width="0.5" height="18.9"/>
<g>
	<path d="M265.9,72.6c0-1.8,2.5-3.5,4.5-3.5c1.3,0,2.3,0.7,2.3,1.7c0,1.7-2.5,3.5-4.6,3.5C266.9,74.3,265.9,73.7,265.9,72.6z"/>
</g>
<rect x="287.3" y="52" width="0.5" height="16.4"/>
<g>
	<path d="M280.8,70.1c0-1.8,2.5-3.5,4.5-3.5c1.3,0,2.3,0.7,2.3,1.7c0,1.7-2.5,3.5-4.6,3.5C281.8,71.8,280.8,71.2,280.8,70.1z"/>
</g>
<rect x="302.1" y="52" width="0.5" height="18.9"/>
<g>
	<path d="M295.7,72.6c0-1.8,2.5-3.5,4.5-3.5c1.3,0,2.3,0.7,2.3,1.7c0,1.7-2.5,3.5-4.6,3.5C296.7,74.3,295.7,73.7,295.7,72.6z"/>
</g>
<rect x="316.9" y="57" width="0.5" height="16.4"/>
<g>
	<path d="M310.4,75.1c0-1.8,2.5-3.5,4.5-3.5c1.3,0,2.3,0.7,2.3,1.7c0,1.7-2.5,3.5-4.6,3.5C311.4,76.8,310.4,76.1,310.4,75.1z"/>
</g>
<rect x="331.7" y="58.5" width="0.5" height="17.4"/>
<g>
	<path d="M325.3,77.5c0-1.8,2.5-3.5,4.5-3.5c1.3,0,2.3,0.7,2.3,1.7c0,1.7-2.5,3.5-4.6,3.5C326.3,79.3,325.3,78.6,325.3,77.5z"/>
</g>
<rect x="346.5" y="60.2" width="0.5" height="18.1"/>
<g>
	<path d="M340,80c0-1.8,2.5-3.5,4.5-3.5c1.3,0,2.3,0.7,2.3,1.7c0,1.7-2.5,3.5-4.6,3.5C341,81.7,340,81.1,340,80z"/>
</g>
<rect x="353.1" y="81.3" width="10.5" height="0.8"/>
<rect x="361.4" y="62" width="0.5" height="18.9"/>
<g>
	<path d="M354.9,82.5c0-1.8,2.5-3.5,4.5-3.5c1.3,0,2.3,0.7,2.3,1.7c0,1.7-2.5,3.5-4.6,3.5C355.9,84.2,354.9,83.6,354.9,82.5z"/>
</g>
<rect x="381.2" y="55.1" width="0.5" height="16.4"/>
<g>
	<path d="M381.3,55.2c0-1.8,2.5-3.5,4.5-3.5c1.3,0,2.3,0.7,2.3,1.7c0,1.7-2.5,3.5-4.6,3.5C382.2,56.9,381.3,56.3,381.3,55.2z"/>
</g>
<rect x="396.1" y="57.6" width="0.5" height="15.5"/>
<g>
	<path d="M396.2,57.7c0-1.8,2.5-3.5,4.5-3.5c1.3,0,2.3,0.7,2.3,1.7c0,1.7-2.5,3.5-4.6,3.5C397.1,59.4,396.2,58.8,396.2,57.7z"/>
</g>
<rect x="410.8" y="60.1" width="0.5" height="14.7"/>
<g>
	<path d="M410.9,60.2c0-1.8,2.5-3.5,4.5-3.5c1.3,0,2.3,0.7,2.3,1.7c0,1.7-2.5,3.5-4.6,3.5C411.9,61.9,410.9,61.3,410.9,60.2z"/>
</g>
<rect x="425.7" y="62.6" width="0.5" height="14"/>
<g>
	<path d="M425.8,62.7c0-1.8,2.5-3.5,4.5-3.5c1.3,0,2.3,0.7,2.3,1.7c0,1.7-2.5,3.5-4.6,3.5C426.7,64.4,425.8,63.7,425.8,62.7z"/>
</g>
<rect x="447.1" y="47.1" width="0.5" height="16.4"/>
<g>
	<path d="M440.6,65.1c0-1.8,2.5-3.5,4.5-3.5c1.3,0,2.3,0.7,2.3,1.7c0,1.7-2.5,3.5-4.6,3.5C441.6,66.9,440.6,66.2,440.6,65.1z"/>
</g>
<rect x="461.8" y="48.6" width="0.5" height="17.4"/>
<g>
	<path d="M455.4,67.6c0-1.8,2.5-3.5,4.5-3.5c1.3,0,2.3,0.7,2.3,1.7c0,1.7-2.5,3.5-4.6,3.5C456.3,69.3,455.4,68.7,455.4,67.6z"/>
</g>
<rect x="476.7" y="50.3" width="0.5" height="18.1"/>
<g>
	<path d="M470.2,70.1c0-1.8,2.5-3.5,4.5-3.5c1.3,0,2.3,0.7,2.3,1.7c0,1.7-2.5,3.5-4.6,3.5C471.2,71.8,470.2,71.2,470.2,70.1z"/>
</g>
<rect x="491.4" y="52" width="0.5" height="18.9"/>
<g>
	<path d="M485,72.6c0-1.8,2.5-3.5,4.5-3.5c1.3,0,2.3,0.7,2.3,1.7c0,1.7-2.5,3.5-4.6,3.5C485.9,74.3,485,73.7,485,72.6z"/>
</g>
<rect x="506.4" y="56.8" width="0.5" height="16.6"/>
<g>
	<path d="M504.1,71.5c1.6,0,2.7,0.7,2.7,2c0,1.9-2.3,3.4-4.5,3.4c-1.3,0-2.4-0.7-2.4-1.8C499.9,73.3,502.1,71.5,504.1,71.5z
		 M500.3,75.4c0,0.6,0.4,0.9,1.1,0.9c1.4,0,4.9-2.1,4.9-3.3c0-0.6-0.4-0.9-1.1-0.9C504,72.1,500.3,74.1,500.3,75.4z"/>
</g>
</svg>
