<?xml version="1.0" encoding="utf-8"?>

<!--
	ScaleBook
	Copyright (c) Leland Jansen 2015. All rights reserved.
-->

<!DOCTYPE svg PUBLIC "-//W3C//DTD SVG 1.1//EN" "http://www.w3.org/Graphics/SVG/1.1/DTD/svg11.dtd">
<svg version="1.1" id="Layer_1" xmlns="http://www.w3.org/2000/svg" xmlns:xlink="http://www.w3.org/1999/xlink" x="0px" y="0px"
	 viewBox="0 0 552.9 89.4" enable-background="new 0 0 552.9 89.4" xml:space="preserve">
<rect x="8.4" y="12.5" width="0.8" height="67"/>
<g>
	<path d="M7.4,13.2c-1.9,1.1-3.6,5.8-3.6,9.4c0,2.3,1.4,9.9,1.4,12.3c0,5-1.5,8.6-4.6,11.1c3,2.4,4.6,6.1,4.6,11.1
		c0,2.3-1.4,9.9-1.4,12.3c0,3.8,1.7,8.4,3.6,9.5v0.7c-3.5-2.3-5.8-8.2-5.8-13.1c0-2.1,1.7-9.4,1.7-11.5c0-3.8-1-6.6-2.9-8.2
		C0.1,46.4,0,46.2,0,46c0-0.2,0.1-0.4,0.5-0.7c1.9-1.7,2.9-4.2,2.9-7.6c0-2.1-1.7-10-1.7-12.2c0-5.2,2.1-10.4,5.8-13.1V13.2z"/>
</g>
<rect x="547.8" y="12.5" width="0.8" height="67"/>
<rect x="550.4" y="12.5" width="2.5" height="67"/>
<rect x="8.5" y="32.1" width="544.4" height="0.5"/>
<rect x="8.5" y="27.2" width="544.4" height="0.5"/>
<rect x="8.5" y="22.2" width="544.4" height="0.5"/>
<rect x="8.5" y="17.2" width="544.4" height="0.5"/>
<rect x="8.5" y="12.3" width="544.4" height="0.5"/>
<g>
	<path d="M20.3,32.2c-4.2,0-8.1-3.1-8.1-6.9c0-3.2,2.3-6.7,6.8-10.5c-0.3-1.2-0.4-2.4-0.4-3.6c0-3.5,1.2-6.8,3.2-8.5
		c1.8,2.5,2.7,4.9,2.7,7.1c0,2.9-1.3,5.6-4.3,8.1l0.9,4.2c0.5,0,0.8-0.1,0.8-0.1c2.6,0,4.8,2,4.8,4.7c0,1.9-1.4,3.7-3.6,4.8
		c0-0.1,0.9,3.8,0.9,4.3c0,2.5-2.3,4.2-4.9,4.2c-2,0-3.6-1.3-3.6-3.4c0-1.4,1-2.6,2.4-2.6c1.3,0,2.3,1.3,2.3,2.5
		c0,1.4-1.2,2.3-2.7,2.5c0.6,0.3,1.2,0.5,1.9,0.5c2.1,0,4.1-1.6,4.1-3.6c0-0.2,0-0.4-0.1-0.6l-0.8-3.7
		C21.9,32.1,21.2,32.2,20.3,32.2z M18.1,27c0,1,0.5,1.9,1.6,2.5c-1.8-0.3-3-1.4-3-3.1c0-2,1.7-3.7,3.8-4.1l-0.8-4
		C16,21.1,14,23.8,14,26.4c0,2.9,2.8,5.3,6,5.3c0.9,0,1.7-0.2,2.4-0.5L21,24.4C19.4,24.6,18.1,25.6,18.1,27z M22.1,5.6
		c-1.6,0-2.9,3.7-2.9,7c0,0.7,0,1.3,0.2,1.9c2.7-2.4,4-4.5,4-6.5c0-0.9-0.3-1.7-1-2.4C22.4,5.7,22.3,5.6,22.1,5.6z M24.9,27.5
		c0-1.6-1.2-3.3-2.9-3.3c-0.1,0-0.2,0-0.5,0l1.4,6.6C24.2,30,24.9,28.8,24.9,27.5z"/>
</g>
<g>
	<path d="M33.5,5.7v2.8l1-0.3V10l-1,0.3v3.4l1-0.3v1.8l-1,0.3v3.1H33v-3l-1.9,0.6v3h-0.5v-2.8l-1,0.3V15l1-0.3v-3.4l-1,0.3V9.8
		l1-0.3V6.3h0.5v3L33,8.7v-3H33.5z M33,10.5l-1.9,0.6v3.4l1.9-0.6V10.5z"/>
</g>
<polygon fill-rule="evenodd" clip-rule="evenodd" points="49.8,23.7 96,18.7 96,16.2 49.8,21.2 "/>
<polygon fill-rule="evenodd" clip-rule="evenodd" points="49.8,20 96,15 96,12.5 49.8,17.5 "/>
<polygon fill-rule="evenodd" clip-rule="evenodd" points="111.4,13.8 157.6,8.8 157.6,6.3 111.4,11.3 "/>
<polygon fill-rule="evenodd" clip-rule="evenodd" points="111.4,10 157.6,5.1 157.6,2.6 111.4,7.6 "/>
<polygon fill-rule="evenodd" clip-rule="evenodd" points="179.3,28.6 225.5,23.7 225.5,21.2 179.3,26.2 "/>
<polygon fill-rule="evenodd" clip-rule="evenodd" points="179.3,32.4 225.5,27.4 225.5,24.9 179.3,29.9 "/>
<polygon fill-rule="evenodd" clip-rule="evenodd" points="241,20 287.2,18.7 287.2,16.2 241,17.5 "/>
<polygon fill-rule="evenodd" clip-rule="evenodd" points="241,23.7 287.2,22.4 287.2,20 241,21.2 "/>
<polygon fill-rule="evenodd" clip-rule="evenodd" points="302.5,23.7 348.7,28.6 348.7,26.2 302.5,21.2 "/>
<polygon fill-rule="evenodd" clip-rule="evenodd" points="302.5,27.4 348.7,32.4 348.7,29.9 302.5,24.9 "/>
<polygon fill-rule="evenodd" clip-rule="evenodd" points="375.1,33.6 421.3,38.6 421.3,36.1 375.1,31.1 "/>
<polygon fill-rule="evenodd" clip-rule="evenodd" points="375.1,37.3 421.3,42.3 421.3,39.8 375.1,34.8 "/>
<polygon fill-rule="evenodd" clip-rule="evenodd" points="443.1,18.7 489.3,23.7 489.3,21.2 443.1,16.2 "/>
<polygon fill-rule="evenodd" clip-rule="evenodd" points="443.1,15 489.3,20 489.3,17.5 443.1,12.5 "/>
<rect x="8.5" y="79.3" width="544.4" height="0.5"/>
<rect x="8.5" y="74.3" width="544.4" height="0.5"/>
<rect x="8.5" y="69.3" width="544.4" height="0.5"/>
<rect x="8.5" y="64.4" width="544.4" height="0.5"/>
<rect x="8.5" y="59.4" width="544.4" height="0.5"/>
<g>
	<path d="M15.7,73.8c2.9-2.6,4.7-6.1,4.7-9.2c0-2.5-1.4-4.4-3.7-4.4c-1.6,0-3.4,1.3-3.4,2.7c0,0.2,0,0.3,0.1,0.3
		c-0.1,0,0.6-0.6,1.4-0.6c0.9,0,1.5,0.8,1.5,1.7c0,1.2-0.9,2.2-2.1,2.2c-1.2,0-2.1-1.3-2.1-2.8c0-2.3,2.3-4.1,4.8-4.1
		c4.7,0,5.9,3.2,5.9,5.8c0,1.6-0.4,2.9-2,5.3C19.1,73.8,14.6,76,13,76c-0.4,0-0.6-0.2-0.6-0.5C13.8,75.1,14.9,74.5,15.7,73.8z
		 M25.7,61.1c0.6,0,1,0.4,1,1c0,0.6-0.4,1-1,1s-1-0.4-1-1C24.7,61.6,25.1,61.1,25.7,61.1z M25.7,66.1c0.6,0,1,0.4,1,1
		c0,0.6-0.4,1-1,1s-1-0.4-1-1C24.7,66.5,25.1,66.1,25.7,66.1z"/>
</g>
<g>
	<path d="M33.5,57.8v2.8l1-0.3v1.8l-1,0.3v3.4l1-0.3v1.8l-1,0.3v3.1H33v-3l-1.9,0.6v3h-0.5v-2.8l-1,0.3v-1.8l1-0.3v-3.4l-1,0.3v-1.8
		l1-0.3v-3.1h0.5v3l1.9-0.6v-3H33.5z M33,62.6l-1.9,0.6v3.4L33,66V62.6z"/>
</g>
<polygon fill-rule="evenodd" clip-rule="evenodd" points="43.3,85.7 89.5,80.7 89.5,78.2 43.3,83.2 "/>
<polygon fill-rule="evenodd" clip-rule="evenodd" points="43.3,89.4 89.5,84.4 89.5,82 43.3,86.9 "/>
<g>
	<path d="M171.3,78.1c-3.2,0-6.1-2.3-6.1-5.1c0-2.4,1.7-5,5.1-7.9c-0.2-0.9-0.3-1.8-0.3-2.7c0-2.6,0.9-5.1,2.4-6.3
		c1.4,1.9,2,3.7,2,5.3c0,2.2-1,4.2-3.2,6.1l0.7,3.1c0.4,0,0.6,0,0.6,0c2,0,3.6,1.5,3.6,3.5c0,1.4-1.1,2.8-2.7,3.6
		c0-0.1,0.6,2.8,0.6,3.3c0,1.9-1.7,3.2-3.7,3.2c-1.5,0-2.7-1-2.7-2.5c0-1.1,0.7-1.9,1.8-1.9c1,0,1.7,1,1.7,1.9c0,1-0.9,1.7-2,1.8
		c0.4,0.2,0.9,0.3,1.4,0.3c1.6,0,3.1-1.2,3.1-2.7c0-0.1,0-0.3,0-0.5l-0.6-2.8C172.5,78,172,78.1,171.3,78.1z M169.6,74.2
		c0,0.8,0.4,1.4,1.2,1.9c-1.3-0.2-2.2-1.1-2.2-2.3c0-1.5,1.3-2.8,2.9-3.1l-0.6-3c-2.8,2.1-4.3,4.1-4.3,6.1c0,2.2,2.1,4,4.5,4
		c0.7,0,1.3-0.1,1.8-0.4l-1.1-5.1C170.6,72.4,169.6,73.2,169.6,74.2z M172.6,58.2c-1.2,0-2.2,2.8-2.2,5.3c0,0.5,0,1,0.1,1.4
		c2-1.8,3-3.4,3-4.9c0-0.7-0.3-1.3-0.7-1.8C172.8,58.2,172.8,58.2,172.6,58.2z M174.7,74.6c0-1.2-0.9-2.4-2.2-2.4c0,0-0.2,0-0.4,0
		l1.1,5C174.2,76.5,174.7,75.6,174.7,74.6z"/>
</g>
<polygon fill-rule="evenodd" clip-rule="evenodd" points="104.9,75.8 151.1,70.8 151.1,68.3 104.9,73.3 "/>
<polygon fill-rule="evenodd" clip-rule="evenodd" points="104.9,79.5 151.1,74.5 151.1,72 104.9,77 "/>
<polygon fill-rule="evenodd" clip-rule="evenodd" points="185.8,70.8 232,65.8 232,63.4 185.8,68.3 "/>
<polygon fill-rule="evenodd" clip-rule="evenodd" points="185.8,67.1 232,62.1 232,59.6 185.8,64.6 "/>
<polygon fill-rule="evenodd" clip-rule="evenodd" points="241,84.4 287.2,83.2 287.2,80.7 241,82 "/>
<polygon fill-rule="evenodd" clip-rule="evenodd" points="241,88.2 287.2,86.9 287.2,84.4 241,85.7 "/>
<g>
	<path d="M363.6,71.5c2.2-2,3.6-4.6,3.6-6.9c0-1.9-1.1-3.3-2.8-3.3c-1.2,0-2.5,1-2.5,2.1c0,0.2,0,0.2,0.1,0.2c0,0,0.4-0.5,1-0.5
		c0.7,0,1.2,0.6,1.2,1.3c0,0.9-0.6,1.7-1.6,1.7s-1.5-1-1.5-2.1c0-1.8,1.7-3.1,3.6-3.1c3.5,0,4.4,2.4,4.4,4.4c0,1.2-0.3,2.2-1.5,4
		c-1.4,2.3-4.8,4-6,4c-0.3,0-0.5-0.1-0.5-0.3C362.2,72.5,363,72,363.6,71.5z M371.1,62c0.4,0,0.7,0.3,0.7,0.7c0,0.4-0.3,0.7-0.7,0.7
		c-0.4,0-0.7-0.3-0.7-0.7C370.3,62.3,370.7,62,371.1,62z M371.1,65.7c0.4,0,0.7,0.3,0.7,0.7s-0.3,0.7-0.7,0.7
		c-0.4,0-0.7-0.3-0.7-0.7S370.7,65.7,371.1,65.7z"/>
</g>
<polygon fill-rule="evenodd" clip-rule="evenodd" points="309,60.9 355.2,65.8 355.2,63.4 309,58.4 "/>
<polygon fill-rule="evenodd" clip-rule="evenodd" points="309,57.2 355.2,62.1 355.2,59.6 309,54.7 "/>
<polygon fill-rule="evenodd" clip-rule="evenodd" points="375.1,65.8 421.3,70.8 421.3,68.3 375.1,63.4 "/>
<polygon fill-rule="evenodd" clip-rule="evenodd" points="375.1,69.6 421.3,74.5 421.3,72 375.1,67.1 "/>
<polygon fill-rule="evenodd" clip-rule="evenodd" points="436.6,75.8 482.8,80.7 482.8,78.2 436.6,73.3 "/>
<polygon fill-rule="evenodd" clip-rule="evenodd" points="436.6,79.5 482.8,84.4 482.8,82 436.6,77 "/>
<rect x="41.3" y="36.9" width="10.5" height="0.8"/>
<rect x="49.6" y="17.6" width="0.5" height="18.9"/>
<g>
	<path d="M43.2,38.2c0-1.8,2.5-3.5,4.5-3.5c1.3,0,2.3,0.7,2.3,1.7c0,1.7-2.5,3.5-4.6,3.5C44.2,39.9,43.2,39.3,43.2,38.2z"/>
</g>
<rect x="65" y="16.1" width="0.5" height="18"/>
<g>
	<path d="M58.5,35.7c0-1.8,2.5-3.5,4.5-3.5c1.3,0,2.3,0.7,2.3,1.7c0,1.7-2.5,3.5-4.6,3.5C59.5,37.4,58.5,36.8,58.5,35.7z"/>
</g>
<rect x="80.5" y="14.4" width="0.5" height="17.2"/>
<g>
	<path d="M74,33.2c0-1.8,2.5-3.5,4.5-3.5c1.3,0,2.3,0.7,2.3,1.7c0,1.7-2.5,3.5-4.6,3.5C75,34.9,74,34.3,74,33.2z"/>
</g>
<rect x="95.8" y="12.7" width="0.5" height="16.4"/>
<g>
	<path d="M89.4,30.7c0-1.8,2.5-3.5,4.5-3.5c1.3,0,2.3,0.7,2.3,1.7c0,1.7-2.5,3.5-4.6,3.5C90.4,32.5,89.4,31.8,89.4,30.7z"/>
</g>
<rect x="111.2" y="7.7" width="0.5" height="18.9"/>
<g>
	<path d="M104.7,28.3c0-1.8,2.5-3.5,4.5-3.5c1.3,0,2.3,0.7,2.3,1.7c0,1.7-2.5,3.5-4.6,3.5C105.7,30,104.7,29.3,104.7,28.3z"/>
</g>
<rect x="126.7" y="6.2" width="0.5" height="18"/>
<g>
	<path d="M120.2,25.8c0-1.8,2.5-3.5,4.5-3.5c1.3,0,2.3,0.7,2.3,1.7c0,1.7-2.5,3.5-4.6,3.5C121.2,27.5,120.2,26.9,120.2,25.8z"/>
</g>
<rect x="142" y="4.5" width="0.5" height="17.2"/>
<g>
	<path d="M135.6,23.3c0-1.8,2.5-3.5,4.5-3.5c1.3,0,2.3,0.7,2.3,1.7c0,1.7-2.5,3.5-4.6,3.5C136.5,25,135.6,24.4,135.6,23.3z"/>
</g>
<rect x="157.4" y="2.8" width="0.5" height="16.4"/>
<g>
	<path d="M150.9,20.8c0-1.8,2.5-3.5,4.5-3.5c1.3,0,2.3,0.7,2.3,1.7c0,1.7-2.5,3.5-4.6,3.5C151.9,22.5,150.9,21.9,150.9,20.8z"/>
</g>
<rect x="179.1" y="18.3" width="0.5" height="14"/>
<g>
	<path d="M179.1,18.3c0-1.8,2.5-3.5,4.5-3.5c1.3,0,2.3,0.7,2.3,1.7c0,1.7-2.5,3.5-4.6,3.5C180.1,20.1,179.1,19.4,179.1,18.3z"/>
</g>
<rect x="194.6" y="15.8" width="0.5" height="14.9"/>
<g>
	<path d="M194.6,15.9c0-1.8,2.5-3.5,4.5-3.5c1.3,0,2.3,0.7,2.3,1.7c0,1.7-2.5,3.5-4.6,3.5C195.6,17.6,194.6,16.9,194.6,15.9z"/>
</g>
<rect x="209.9" y="13.3" width="0.5" height="15.7"/>
<g>
	<path d="M210,13.4c0-1.8,2.5-3.5,4.5-3.5c1.3,0,2.3,0.7,2.3,1.7c0,1.7-2.5,3.5-4.6,3.5C211,15.1,210,14.5,210,13.4z"/>
</g>
<rect x="225.2" y="10.8" width="0.5" height="16.4"/>
<g>
	<path d="M225.3,10.9c0-1.8,2.5-3.5,4.5-3.5c1.3,0,2.3,0.7,2.3,1.7c0,1.7-2.5,3.5-4.6,3.5C226.3,12.6,225.3,12,225.3,10.9z"/>
</g>
<rect x="239" y="7.2" width="10.5" height="0.8"/>
<rect x="240.8" y="8.3" width="0.5" height="15.2"/>
<g>
	<path d="M240.8,8.4c0-1.8,2.5-3.5,4.5-3.5c1.3,0,2.3,0.7,2.3,1.7c0,1.7-2.5,3.5-4.6,3.5C241.8,10.1,240.8,9.5,240.8,8.4z"/>
</g>
<rect x="254.3" y="7.2" width="10.5" height="0.8"/>
<rect x="256.1" y="5.9" width="0.5" height="17.4"/>
<g>
	<path d="M256.2,5.9c0-1.8,2.5-3.5,4.5-3.5c1.3,0,2.3,0.7,2.3,1.7c0,1.7-2.5,3.5-4.6,3.5C257.1,7.7,256.2,7,256.2,5.9z"/>
</g>
<rect x="269.7" y="7.2" width="10.5" height="0.8"/>
<rect x="269.7" y="2.2" width="10.5" height="0.8"/>
<rect x="271.4" y="3.4" width="0.5" height="19.4"/>
<g>
	<path d="M271.5,3.5c0-1.8,2.5-3.5,4.5-3.5c1.3,0,2.3,0.7,2.3,1.7c0,1.7-2.5,3.5-4.6,3.5C272.5,5.2,271.5,4.5,271.5,3.5z"/>
</g>
<rect x="285.2" y="7.2" width="10.5" height="0.8"/>
<rect x="286.9" y="5.9" width="0.5" height="16.4"/>
<g>
	<path d="M287,5.9c0-1.8,2.5-3.5,4.5-3.5c1.3,0,2.3,0.7,2.3,1.7c0,1.7-2.5,3.5-4.6,3.5C288,7.7,287,7,287,5.9z"/>
</g>
<rect x="300.5" y="7.2" width="10.5" height="0.8"/>
<rect x="302.3" y="8.3" width="0.5" height="18.9"/>
<g>
	<path d="M302.4,8.4c0-1.8,2.5-3.5,4.5-3.5c1.3,0,2.3,0.7,2.3,1.7c0,1.7-2.5,3.5-4.6,3.5C303.3,10.1,302.4,9.5,302.4,8.4z"/>
</g>
<rect x="317.6" y="10.8" width="0.5" height="18"/>
<g>
	<path d="M317.7,10.9c0-1.8,2.5-3.5,4.5-3.5c1.3,0,2.3,0.7,2.3,1.7c0,1.7-2.5,3.5-4.6,3.5C318.7,12.6,317.7,12,317.7,10.9z"/>
</g>
<rect x="333.1" y="13.3" width="0.5" height="17.2"/>
<g>
	<path d="M333.2,13.4c0-1.8,2.5-3.5,4.5-3.5c1.3,0,2.3,0.7,2.3,1.7c0,1.7-2.5,3.5-4.6,3.5C334.2,15.1,333.2,14.5,333.2,13.4z"/>
</g>
<rect x="348.5" y="15.8" width="0.5" height="16.4"/>
<g>
	<path d="M348.6,15.9c0-1.8,2.5-3.5,4.5-3.5c1.3,0,2.3,0.7,2.3,1.7c0,1.7-2.5,3.5-4.6,3.5C349.5,17.6,348.6,16.9,348.6,15.9z"/>
</g>
<rect x="374.8" y="18.3" width="0.5" height="18.9"/>
<g>
	<path d="M374.9,18.3c0-1.8,2.5-3.5,4.5-3.5c1.3,0,2.3,0.7,2.3,1.7c0,1.7-2.5,3.5-4.6,3.5C375.9,20.1,374.9,19.4,374.9,18.3z"/>
</g>
<rect x="390.2" y="20.7" width="0.5" height="18"/>
<g>
	<path d="M390.3,20.8c0-1.8,2.5-3.5,4.5-3.5c1.3,0,2.3,0.7,2.3,1.7c0,1.7-2.5,3.5-4.6,3.5C391.2,22.5,390.3,21.9,390.3,20.8z"/>
</g>
<rect x="405.7" y="23.2" width="0.5" height="17.2"/>
<g>
	<path d="M405.8,23.3c0-1.8,2.5-3.5,4.5-3.5c1.3,0,2.3,0.7,2.3,1.7c0,1.7-2.5,3.5-4.6,3.5C406.7,25,405.8,24.4,405.8,23.3z"/>
</g>
<rect x="421" y="25.7" width="0.5" height="16.4"/>
<g>
	<path d="M421.1,25.8c0-1.8,2.5-3.5,4.5-3.5c1.3,0,2.3,0.7,2.3,1.7c0,1.7-2.5,3.5-4.6,3.5C422.1,27.5,421.1,26.9,421.1,25.8z"/>
</g>
<rect x="442.9" y="12.7" width="0.5" height="14"/>
<g>
	<path d="M436.5,28.3c0-1.8,2.5-3.5,4.5-3.5c1.3,0,2.3,0.7,2.3,1.7c0,1.7-2.5,3.5-4.6,3.5C437.4,30,436.5,29.3,436.5,28.3z"/>
</g>
<rect x="458.4" y="14.2" width="0.5" height="14.9"/>
<g>
	<path d="M452,30.7c0-1.8,2.5-3.5,4.5-3.5c1.3,0,2.3,0.7,2.3,1.7c0,1.7-2.5,3.5-4.6,3.5C452.9,32.5,452,31.8,452,30.7z"/>
</g>
<rect x="473.7" y="15.9" width="0.5" height="15.7"/>
<g>
	<path d="M467.3,33.2c0-1.8,2.5-3.5,4.5-3.5c1.3,0,2.3,0.7,2.3,1.7c0,1.7-2.5,3.5-4.6,3.5C468.3,34.9,467.3,34.3,467.3,33.2z"/>
</g>
<rect x="489.1" y="17.6" width="0.5" height="16.4"/>
<g>
	<path d="M482.7,35.7c0-1.8,2.5-3.5,4.5-3.5c1.3,0,2.3,0.7,2.3,1.7c0,1.7-2.5,3.5-4.6,3.5C483.6,37.4,482.7,36.8,482.7,35.7z"/>
</g>
<rect x="496.3" y="36.9" width="10.7" height="0.8"/>
<rect x="504.7" y="20" width="0.5" height="16.6"/>
<g>
	<path d="M502.4,34.6c1.6,0,2.7,0.7,2.7,2c0,1.9-2.3,3.4-4.5,3.4c-1.3,0-2.4-0.7-2.4-1.8C498.2,36.4,500.4,34.6,502.4,34.6z
		 M498.6,38.5c0,0.6,0.4,0.9,1.1,0.9c1.4,0,4.9-2.1,4.9-3.3c0-0.6-0.4-0.9-1.1-0.9C502.3,35.2,498.6,37.2,498.6,38.5z"/>
</g>
<rect x="43.1" y="72.8" width="0.5" height="16.4"/>
<g>
	<path d="M43.2,72.9c0-1.8,2.5-3.5,4.5-3.5c1.3,0,2.3,0.7,2.3,1.7c0,1.7-2.5,3.5-4.6,3.5C44.2,74.6,43.2,74,43.2,72.9z"/>
</g>
<rect x="58.5" y="70.3" width="0.5" height="17.4"/>
<g>
	<path d="M58.5,70.4c0-1.8,2.5-3.5,4.5-3.5c1.3,0,2.3,0.7,2.3,1.7c0,1.7-2.5,3.5-4.6,3.5C59.5,72.1,58.5,71.5,58.5,70.4z"/>
</g>
<rect x="74" y="67.9" width="0.5" height="18.1"/>
<g>
	<path d="M74,67.9c0-1.8,2.5-3.5,4.5-3.5c1.3,0,2.3,0.7,2.3,1.7c0,1.7-2.5,3.5-4.6,3.5C75,69.7,74,69,74,67.9z"/>
</g>
<rect x="89.3" y="65.4" width="0.5" height="18.9"/>
<g>
	<path d="M89.4,65.5c0-1.8,2.5-3.5,4.5-3.5c1.3,0,2.3,0.7,2.3,1.7c0,1.7-2.5,3.5-4.6,3.5C90.4,67.2,89.4,66.5,89.4,65.5z"/>
</g>
<rect x="104.6" y="62.9" width="0.5" height="16.4"/>
<g>
	<path d="M104.7,63c0-1.8,2.5-3.5,4.5-3.5c1.3,0,2.3,0.7,2.3,1.7c0,1.7-2.5,3.5-4.6,3.5C105.7,64.7,104.7,64.1,104.7,63z"/>
</g>
<rect x="120.1" y="60.4" width="0.5" height="17.4"/>
<g>
	<path d="M120.2,60.5c0-1.8,2.5-3.5,4.5-3.5c1.3,0,2.3,0.7,2.3,1.7c0,1.7-2.5,3.5-4.6,3.5C121.2,62.2,120.2,61.6,120.2,60.5z"/>
</g>
<rect x="135.5" y="57.9" width="0.5" height="18.1"/>
<g>
	<path d="M135.6,58c0-1.8,2.5-3.5,4.5-3.5c1.3,0,2.3,0.7,2.3,1.7c0,1.7-2.5,3.5-4.6,3.5C136.5,59.7,135.6,59.1,135.6,58z"/>
</g>
<rect x="149.1" y="54.3" width="10.5" height="0.8"/>
<rect x="150.8" y="55.5" width="0.5" height="18.9"/>
<g>
	<path d="M150.9,55.5c0-1.8,2.5-3.5,4.5-3.5c1.3,0,2.3,0.7,2.3,1.7c0,1.7-2.5,3.5-4.6,3.5C151.9,57.3,150.9,56.6,150.9,55.5z"/>
</g>
<rect x="185.6" y="64.8" width="0.5" height="16.4"/>
<g>
	<path d="M179.1,82.8c0-1.8,2.5-3.5,4.5-3.5c1.3,0,2.3,0.7,2.3,1.7c0,1.7-2.5,3.5-4.6,3.5C180.1,84.5,179.1,83.9,179.1,82.8z"/>
</g>
<rect x="201.1" y="63.2" width="0.5" height="15.5"/>
<g>
	<path d="M194.6,80.3c0-1.8,2.5-3.5,4.5-3.5c1.3,0,2.3,0.7,2.3,1.7c0,1.7-2.5,3.5-4.6,3.5C195.6,82.1,194.6,81.4,194.6,80.3z"/>
</g>
<rect x="216.4" y="61.5" width="0.5" height="14.7"/>
<g>
	<path d="M210,77.9c0-1.8,2.5-3.5,4.5-3.5c1.3,0,2.3,0.7,2.3,1.7c0,1.7-2.5,3.5-4.6,3.5C211,79.6,210,78.9,210,77.9z"/>
</g>
<rect x="231.8" y="59.8" width="0.5" height="14"/>
<g>
	<path d="M225.3,75.4c0-1.8,2.5-3.5,4.5-3.5c1.3,0,2.3,0.7,2.3,1.7c0,1.7-2.5,3.5-4.6,3.5C226.3,77.1,225.3,76.5,225.3,75.4z"/>
</g>
<rect x="240.8" y="72.8" width="0.5" height="15.2"/>
<g>
	<path d="M240.8,72.9c0-1.8,2.5-3.5,4.5-3.5c1.3,0,2.3,0.7,2.3,1.7c0,1.7-2.5,3.5-4.6,3.5C241.8,74.6,240.8,74,240.8,72.9z"/>
</g>
<rect x="256.1" y="70.3" width="0.5" height="17.4"/>
<g>
	<path d="M256.2,70.4c0-1.8,2.5-3.5,4.5-3.5c1.3,0,2.3,0.7,2.3,1.7c0,1.7-2.5,3.5-4.6,3.5C257.1,72.1,256.2,71.5,256.2,70.4z"/>
</g>
<rect x="271.4" y="67.9" width="0.5" height="19.4"/>
<g>
	<path d="M271.5,67.9c0-1.8,2.5-3.5,4.5-3.5c1.3,0,2.3,0.7,2.3,1.7c0,1.7-2.5,3.5-4.6,3.5C272.5,69.7,271.5,69,271.5,67.9z"/>
</g>
<rect x="286.9" y="70.3" width="0.5" height="16.4"/>
<g>
	<path d="M287,70.4c0-1.8,2.5-3.5,4.5-3.5c1.3,0,2.3,0.7,2.3,1.7c0,1.7-2.5,3.5-4.6,3.5C288,72.1,287,71.5,287,70.4z"/>
</g>
<rect x="308.8" y="54.8" width="0.5" height="16.4"/>
<g>
	<path d="M302.4,72.9c0-1.8,2.5-3.5,4.5-3.5c1.3,0,2.3,0.7,2.3,1.7c0,1.7-2.5,3.5-4.6,3.5C303.3,74.6,302.4,74,302.4,72.9z"/>
</g>
<rect x="324.1" y="56.4" width="0.5" height="17.4"/>
<g>
	<path d="M317.7,75.4c0-1.8,2.5-3.5,4.5-3.5c1.3,0,2.3,0.7,2.3,1.7c0,1.7-2.5,3.5-4.6,3.5C318.7,77.1,317.7,76.5,317.7,75.4z"/>
</g>
<rect x="339.6" y="58.1" width="0.5" height="18.1"/>
<g>
	<path d="M333.2,77.9c0-1.8,2.5-3.5,4.5-3.5c1.3,0,2.3,0.7,2.3,1.7c0,1.7-2.5,3.5-4.6,3.5C334.2,79.6,333.2,78.9,333.2,77.9z"/>
</g>
<rect x="355" y="59.8" width="0.5" height="18.9"/>
<g>
	<path d="M348.6,80.3c0-1.8,2.5-3.5,4.5-3.5c1.3,0,2.3,0.7,2.3,1.7c0,1.7-2.5,3.5-4.6,3.5C349.5,82.1,348.6,81.4,348.6,80.3z"/>
</g>
<rect x="373.1" y="54.3" width="10.5" height="0.8"/>
<rect x="374.8" y="53" width="0.5" height="16.4"/>
<g>
	<path d="M374.9,53.1c0-1.8,2.5-3.5,4.5-3.5c1.3,0,2.3,0.7,2.3,1.7c0,1.7-2.5,3.5-4.6,3.5C375.9,54.8,374.9,54.1,374.9,53.1z"/>
</g>
<rect x="388.4" y="54.3" width="10.5" height="0.8"/>
<rect x="390.2" y="55.5" width="0.5" height="15.5"/>
<g>
	<path d="M390.3,55.5c0-1.8,2.5-3.5,4.5-3.5c1.3,0,2.3,0.7,2.3,1.7c0,1.7-2.5,3.5-4.6,3.5C391.2,57.3,390.3,56.6,390.3,55.5z"/>
</g>
<rect x="405.7" y="57.9" width="0.5" height="14.7"/>
<g>
	<path d="M405.8,58c0-1.8,2.5-3.5,4.5-3.5c1.3,0,2.3,0.7,2.3,1.7c0,1.7-2.5,3.5-4.6,3.5C406.7,59.7,405.8,59.1,405.8,58z"/>
</g>
<rect x="421" y="60.4" width="0.5" height="14"/>
<g>
	<path d="M421.1,60.5c0-1.8,2.5-3.5,4.5-3.5c1.3,0,2.3,0.7,2.3,1.7c0,1.7-2.5,3.5-4.6,3.5C422.1,62.2,421.1,61.6,421.1,60.5z"/>
</g>
<rect x="436.4" y="62.9" width="0.5" height="16.4"/>
<g>
	<path d="M436.5,63c0-1.8,2.5-3.5,4.5-3.5c1.3,0,2.3,0.7,2.3,1.7c0,1.7-2.5,3.5-4.6,3.5C437.4,64.7,436.5,64.1,436.5,63z"/>
</g>
<rect x="451.9" y="65.4" width="0.5" height="15.5"/>
<g>
	<path d="M452,65.5c0-1.8,2.5-3.5,4.5-3.5c1.3,0,2.3,0.7,2.3,1.7c0,1.7-2.5,3.5-4.6,3.5C452.9,67.2,452,66.5,452,65.5z"/>
</g>
<rect x="467.2" y="67.9" width="0.5" height="14.7"/>
<g>
	<path d="M467.3,67.9c0-1.8,2.5-3.5,4.5-3.5c1.3,0,2.3,0.7,2.3,1.7c0,1.7-2.5,3.5-4.6,3.5C468.3,69.7,467.3,69,467.3,67.9z"/>
</g>
<rect x="482.6" y="70.3" width="0.5" height="14"/>
<g>
	<path d="M482.7,70.4c0-1.8,2.5-3.5,4.5-3.5c1.3,0,2.3,0.7,2.3,1.7c0,1.7-2.5,3.5-4.6,3.5C483.6,72.1,482.7,71.5,482.7,70.4z"/>
</g>
<rect x="504.7" y="54.7" width="0.5" height="16.6"/>
<g>
	<path d="M502.4,69.3c1.6,0,2.7,0.7,2.7,2c0,1.9-2.3,3.4-4.5,3.4c-1.3,0-2.4-0.7-2.4-1.8C498.2,71.1,500.4,69.3,502.4,69.3z
		 M498.6,73.2c0,0.6,0.4,0.9,1.1,0.9c1.4,0,4.9-2.1,4.9-3.3c0-0.6-0.4-0.9-1.1-0.9C502.3,69.9,498.6,72,498.6,73.2z"/>
</g>
</svg>
