<?xml version="1.0" encoding="utf-8"?>

<!--
	ScaleBook
	Copyright (c) Leland Jansen 2015. All rights reserved.
-->

<!DOCTYPE svg PUBLIC "-//W3C//DTD SVG 1.1//EN" "http://www.w3.org/Graphics/SVG/1.1/DTD/svg11.dtd">
<svg version="1.1" id="Layer_1" xmlns="http://www.w3.org/2000/svg" xmlns:xlink="http://www.w3.org/1999/xlink" x="0px" y="0px"
	 viewBox="0 0 552.9 89.4" enable-background="new 0 0 552.9 89.4" xml:space="preserve">
<rect x="8.4" y="15" width="0.8" height="67"/>
<g>
	<path d="M7.4,15.7c-1.9,1.1-3.6,5.8-3.6,9.4c0,2.3,1.4,9.9,1.4,12.3c0,5-1.5,8.6-4.6,11.1c3,2.4,4.6,6.1,4.6,11.1
		c0,2.3-1.4,9.9-1.4,12.3c0,3.8,1.7,8.4,3.6,9.5V82c-3.5-2.3-5.8-8.2-5.8-13.1c0-2.1,1.7-9.4,1.7-11.5c0-3.8-1-6.6-2.9-8.2
		C0.1,48.9,0,48.7,0,48.5c0-0.2,0.1-0.4,0.5-0.7c1.9-1.7,2.9-4.2,2.9-7.6c0-2.1-1.7-10-1.7-12.2c0-5.2,2.1-10.4,5.8-13.1V15.7z"/>
</g>
<rect x="547.8" y="15" width="0.8" height="67"/>
<rect x="550.4" y="15" width="2.5" height="67"/>
<rect x="8.5" y="34.6" width="544.4" height="0.5"/>
<rect x="8.5" y="29.6" width="544.4" height="0.5"/>
<rect x="8.5" y="24.7" width="544.4" height="0.5"/>
<rect x="8.5" y="19.7" width="544.4" height="0.5"/>
<rect x="8.5" y="14.8" width="544.4" height="0.5"/>
<g>
	<path d="M20.3,34.7c-4.2,0-8.1-3.1-8.1-6.9c0-3.2,2.3-6.7,6.8-10.5c-0.3-1.2-0.4-2.4-0.4-3.6c0-3.5,1.2-6.8,3.2-8.5
		c1.8,2.5,2.7,4.9,2.7,7.1c0,2.9-1.3,5.6-4.3,8.1l0.9,4.2c0.5,0,0.8-0.1,0.8-0.1c2.6,0,4.8,2,4.8,4.7c0,1.9-1.4,3.7-3.6,4.8
		c0-0.1,0.9,3.8,0.9,4.3c0,2.5-2.3,4.2-4.9,4.2c-2,0-3.6-1.3-3.6-3.4c0-1.4,1-2.6,2.4-2.6c1.3,0,2.3,1.3,2.3,2.5
		c0,1.4-1.2,2.3-2.7,2.5c0.6,0.3,1.2,0.5,1.9,0.5c2.1,0,4.1-1.6,4.1-3.6c0-0.2,0-0.4-0.1-0.6l-0.8-3.7
		C21.9,34.5,21.2,34.7,20.3,34.7z M18.1,29.5c0,1,0.5,1.9,1.6,2.5c-1.8-0.3-3-1.4-3-3.1c0-2,1.7-3.7,3.8-4.1l-0.8-4
		C16,23.6,14,26.3,14,28.9c0,2.9,2.8,5.3,6,5.3c0.9,0,1.7-0.2,2.4-0.5L21,26.9C19.4,27.1,18.1,28.1,18.1,29.5z M22.1,8.1
		c-1.6,0-2.9,3.7-2.9,7c0,0.7,0,1.3,0.2,1.9c2.7-2.4,4-4.5,4-6.5c0-0.9-0.3-1.7-1-2.4C22.4,8.1,22.3,8.1,22.1,8.1z M24.9,30
		c0-1.6-1.2-3.3-2.9-3.3c-0.1,0-0.2,0-0.5,0l1.4,6.6C24.2,32.5,24.9,31.3,24.9,30z"/>
</g>
<g>
	<path d="M29.5,16.6h0.6L30,22.9c0.4-0.7,1-1,1.8-1c1.2,0,2.2,0.8,2.2,1.9c0,0.8-0.5,1.8-1.7,2.7l-2.8,2.1V16.6z M30.1,23.5
		C30,24.3,30,24.9,30,25.5c0,1,0,1.6,0.1,2c1-0.7,2.4-2.6,2.4-3.7c0-0.6-0.5-1.1-1.1-1.1C30.8,22.7,30.4,23,30.1,23.5z"/>
</g>
<g>
	<path d="M35.1,9.2h0.6l-0.1,6.2c0.4-0.7,1-1,1.8-1c1.2,0,2.2,0.8,2.2,1.9c0,0.8-0.5,1.8-1.7,2.7l-2.8,2.1V9.2z M35.7,16.1
		c-0.1,0.8-0.1,1.4-0.1,1.9c0,1,0,1.6,0.1,2c1-0.7,2.4-2.6,2.4-3.7c0-0.6-0.5-1.1-1.1-1.1C36.4,15.2,36,15.5,35.7,16.1z"/>
</g>
<g>
	<path d="M40.7,19.1h0.6l-0.1,6.2c0.4-0.7,1-1,1.8-1c1.2,0,2.2,0.8,2.2,1.9c0,0.8-0.5,1.8-1.7,2.7L40.7,31V19.1z M41.3,26
		c-0.1,0.8-0.1,1.4-0.1,1.9c0,1,0,1.6,0.1,2c1-0.7,2.4-2.6,2.4-3.7c0-0.6-0.5-1.1-1.1-1.1C42,25.2,41.6,25.4,41.3,26z"/>
</g>
<g>
	<path d="M46.3,11.6h0.6l-0.1,6.2c0.4-0.7,1-1,1.8-1c1.2,0,2.2,0.8,2.2,1.9c0,0.8-0.5,1.8-1.7,2.7l-2.8,2.1V11.6z M46.9,18.6
		c-0.1,0.8-0.1,1.4-0.1,1.9c0,1,0,1.6,0.1,2c1-0.7,2.4-2.6,2.4-3.7c0-0.6-0.5-1.1-1.1-1.1C47.6,17.7,47.2,18,46.9,18.6z"/>
</g>
<polygon fill-rule="evenodd" clip-rule="evenodd" points="66,26.2 110.5,21.2 110.5,18.7 66,23.7 "/>
<polygon fill-rule="evenodd" clip-rule="evenodd" points="66,22.4 110.5,17.5 110.5,15 66,20 "/>
<polygon fill-rule="evenodd" clip-rule="evenodd" points="118.8,41 163.3,36.1 163.3,33.6 118.8,38.6 "/>
<polygon fill-rule="evenodd" clip-rule="evenodd" points="118.8,44.8 163.3,39.8 163.3,37.3 118.8,42.3 "/>
<polygon fill-rule="evenodd" clip-rule="evenodd" points="191.5,31.1 236.2,26.2 236.2,23.7 191.5,28.6 "/>
<polygon fill-rule="evenodd" clip-rule="evenodd" points="191.5,34.8 236.2,29.9 236.2,27.4 191.5,32.4 "/>
<polygon fill-rule="evenodd" clip-rule="evenodd" points="250.9,22.4 295.5,21.2 295.5,18.7 250.9,20 "/>
<polygon fill-rule="evenodd" clip-rule="evenodd" points="250.9,26.2 295.5,24.9 295.5,22.4 250.9,23.7 "/>
<polygon fill-rule="evenodd" clip-rule="evenodd" points="310.3,21.2 354.9,26.2 354.9,23.7 310.3,18.7 "/>
<polygon fill-rule="evenodd" clip-rule="evenodd" points="310.3,24.9 354.9,29.9 354.9,27.4 310.3,22.4 "/>
<polygon fill-rule="evenodd" clip-rule="evenodd" points="381.3,31.1 425.8,36.1 425.8,33.6 381.3,28.6 "/>
<polygon fill-rule="evenodd" clip-rule="evenodd" points="381.3,34.8 425.8,39.8 425.8,37.3 381.3,32.4 "/>
<polygon fill-rule="evenodd" clip-rule="evenodd" points="447.2,16.2 491.6,21.2 491.6,18.7 447.2,13.8 "/>
<polygon fill-rule="evenodd" clip-rule="evenodd" points="447.2,12.5 491.6,17.5 491.6,15 447.2,10 "/>
<rect x="8.5" y="81.7" width="544.4" height="0.5"/>
<rect x="8.5" y="76.8" width="544.4" height="0.5"/>
<rect x="8.5" y="71.8" width="544.4" height="0.5"/>
<rect x="8.5" y="66.9" width="544.4" height="0.5"/>
<rect x="8.5" y="61.9" width="544.4" height="0.5"/>
<g>
	<path d="M15.7,76.3c2.9-2.6,4.7-6.1,4.7-9.2c0-2.5-1.4-4.4-3.7-4.4c-1.6,0-3.4,1.3-3.4,2.7c0,0.2,0,0.3,0.1,0.3
		c-0.1,0,0.6-0.6,1.4-0.6c0.9,0,1.5,0.8,1.5,1.7c0,1.2-0.9,2.2-2.1,2.2c-1.2,0-2.1-1.3-2.1-2.8c0-2.3,2.3-4.1,4.8-4.1
		c4.7,0,5.9,3.2,5.9,5.8c0,1.6-0.4,2.9-2,5.3c-1.9,3.1-6.4,5.3-8.1,5.3c-0.4,0-0.6-0.2-0.6-0.5C13.8,77.6,14.9,77,15.7,76.3z
		 M25.7,63.6c0.6,0,1,0.4,1,1c0,0.6-0.4,1-1,1s-1-0.4-1-1C24.7,64,25.1,63.6,25.7,63.6z M25.7,68.6c0.6,0,1,0.4,1,1c0,0.6-0.4,1-1,1
		s-1-0.4-1-1C24.7,69,25.1,68.6,25.7,68.6z"/>
</g>
<g>
	<path d="M29.5,68.7h0.6L30,74.9c0.4-0.7,1-1,1.8-1c1.2,0,2.2,0.8,2.2,1.9c0,0.8-0.5,1.8-1.7,2.7l-2.8,2.1V68.7z M30.1,75.6
		C30,76.3,30,77,30,77.5c0,1,0,1.6,0.1,2c1-0.7,2.4-2.6,2.4-3.7c0-0.6-0.5-1.1-1.1-1.1C30.8,74.8,30.4,75,30.1,75.6z"/>
</g>
<g>
	<path d="M35.1,61.3h0.6l-0.1,6.2c0.4-0.7,1-1,1.8-1c1.2,0,2.2,0.8,2.2,1.9c0,0.8-0.5,1.8-1.7,2.7l-2.8,2.1V61.3z M35.7,68.2
		c-0.1,0.8-0.1,1.4-0.1,1.9c0,1,0,1.6,0.1,2c1-0.7,2.4-2.6,2.4-3.7c0-0.6-0.5-1.1-1.1-1.1C36.4,67.3,36,67.6,35.7,68.2z"/>
</g>
<g>
	<path d="M40.7,71.2h0.6l-0.1,6.2c0.4-0.7,1-1,1.8-1c1.2,0,2.2,0.8,2.2,1.9c0,0.8-0.5,1.8-1.7,2.7l-2.8,2.1V71.2z M41.3,78.1
		c-0.1,0.8-0.1,1.4-0.1,1.9c0,1,0,1.6,0.1,2c1-0.7,2.4-2.6,2.4-3.7c0-0.6-0.5-1.1-1.1-1.1C42,77.2,41.6,77.5,41.3,78.1z"/>
</g>
<g>
	<path d="M46.3,63.7h0.6L46.8,70c0.4-0.7,1-1,1.8-1c1.2,0,2.2,0.8,2.2,1.9c0,0.8-0.5,1.8-1.7,2.7l-2.8,2.1V63.7z M46.9,70.6
		c-0.1,0.8-0.1,1.4-0.1,1.9c0,1,0,1.6,0.1,2c1-0.7,2.4-2.6,2.4-3.7c0-0.6-0.5-1.1-1.1-1.1C47.6,69.8,47.2,70.1,46.9,70.6z"/>
</g>
<polygon fill-rule="evenodd" clip-rule="evenodd" points="59.5,83.2 103.9,78.2 103.9,75.8 59.5,80.7 "/>
<polygon fill-rule="evenodd" clip-rule="evenodd" points="59.5,86.9 103.9,82 103.9,79.5 59.5,84.4 "/>
<g>
	<path d="M183.5,80.6c-3.2,0-6.1-2.3-6.1-5.1c0-2.4,1.7-5,5.1-7.9c-0.2-0.9-0.3-1.8-0.3-2.7c0-2.6,0.9-5.1,2.4-6.3
		c1.4,1.9,2,3.7,2,5.3c0,2.2-1,4.2-3.2,6.1l0.7,3.1c0.4,0,0.6,0,0.6,0c2,0,3.6,1.5,3.6,3.5c0,1.4-1.1,2.8-2.7,3.6
		c0-0.1,0.6,2.8,0.6,3.3c0,1.9-1.7,3.2-3.7,3.2c-1.5,0-2.7-1-2.7-2.5c0-1.1,0.7-1.9,1.8-1.9c1,0,1.7,1,1.7,1.9c0,1-0.9,1.7-2,1.8
		c0.4,0.2,0.9,0.3,1.4,0.3c1.6,0,3.1-1.2,3.1-2.7c0-0.1,0-0.3,0-0.5l-0.6-2.8C184.7,80.5,184.2,80.6,183.5,80.6z M181.9,76.7
		c0,0.8,0.4,1.4,1.2,1.9c-1.3-0.2-2.2-1.1-2.2-2.3c0-1.5,1.3-2.8,2.9-3.1l-0.6-3c-2.8,2.1-4.3,4.1-4.3,6.1c0,2.2,2.1,4,4.5,4
		c0.7,0,1.3-0.1,1.8-0.4l-1.1-5.1C182.8,74.9,181.9,75.7,181.9,76.7z M184.9,60.7c-1.2,0-2.2,2.8-2.2,5.3c0,0.5,0,1,0.1,1.4
		c2-1.8,3-3.4,3-4.9c0-0.7-0.3-1.3-0.7-1.8C185.1,60.7,185,60.7,184.9,60.7z M187,77.1c0-1.2-0.9-2.4-2.2-2.4c0,0-0.2,0-0.4,0l1.1,5
		C186.4,78.9,187,78.1,187,77.1z"/>
</g>
<polygon fill-rule="evenodd" clip-rule="evenodd" points="118.8,73.3 163.3,68.3 163.3,65.8 118.8,70.8 "/>
<polygon fill-rule="evenodd" clip-rule="evenodd" points="118.8,77 163.3,72 163.3,69.6 118.8,74.5 "/>
<polygon fill-rule="evenodd" clip-rule="evenodd" points="198,68.3 242.7,63.4 242.7,60.9 198,65.8 "/>
<polygon fill-rule="evenodd" clip-rule="evenodd" points="198,64.6 242.7,59.6 242.7,57.2 198,62.1 "/>
<polygon fill-rule="evenodd" clip-rule="evenodd" points="250.9,84.4 295.5,83.2 295.5,80.7 250.9,82 "/>
<polygon fill-rule="evenodd" clip-rule="evenodd" points="250.9,88.2 295.5,86.9 295.5,84.4 250.9,85.7 "/>
<g>
	<path d="M369.8,74c2.2-2,3.6-4.6,3.6-6.9c0-1.9-1.1-3.3-2.8-3.3c-1.2,0-2.5,1-2.5,2.1c0,0.2,0,0.2,0.1,0.2c0,0,0.4-0.5,1-0.5
		c0.7,0,1.2,0.6,1.2,1.3c0,0.9-0.6,1.7-1.6,1.7s-1.5-1-1.5-2.1c0-1.8,1.7-3.1,3.6-3.1c3.5,0,4.4,2.4,4.4,4.4c0,1.2-0.3,2.2-1.5,4
		c-1.4,2.3-4.8,4-6,4c-0.3,0-0.5-0.1-0.5-0.3C368.4,75,369.2,74.5,369.8,74z M377.3,64.5c0.4,0,0.7,0.3,0.7,0.7
		c0,0.4-0.3,0.7-0.7,0.7c-0.4,0-0.7-0.3-0.7-0.7C376.5,64.8,376.9,64.5,377.3,64.5z M377.3,68.2c0.4,0,0.7,0.3,0.7,0.7
		s-0.3,0.7-0.7,0.7c-0.4,0-0.7-0.3-0.7-0.7S376.9,68.2,377.3,68.2z"/>
</g>
<polygon fill-rule="evenodd" clip-rule="evenodd" points="316.8,63.4 361.4,68.3 361.4,65.8 316.8,60.9 "/>
<polygon fill-rule="evenodd" clip-rule="evenodd" points="316.8,59.6 361.4,64.6 361.4,62.1 316.8,57.2 "/>
<polygon fill-rule="evenodd" clip-rule="evenodd" points="381.3,68.3 425.8,73.3 425.8,70.8 381.3,65.8 "/>
<polygon fill-rule="evenodd" clip-rule="evenodd" points="381.3,72 425.8,77 425.8,74.5 381.3,69.6 "/>
<polygon fill-rule="evenodd" clip-rule="evenodd" points="440.6,78.2 485.1,83.2 485.1,80.7 440.6,75.8 "/>
<polygon fill-rule="evenodd" clip-rule="evenodd" points="440.6,82 485.1,86.9 485.1,84.4 440.6,79.5 "/>
<rect x="65.7" y="20.1" width="0.5" height="16.4"/>
<g>
	<path d="M59.3,38.2c0-1.8,2.5-3.5,4.5-3.5c1.3,0,2.3,0.7,2.3,1.7c0,1.7-2.5,3.5-4.6,3.5C60.3,39.9,59.3,39.3,59.3,38.2z"/>
</g>
<rect x="80.6" y="18.6" width="0.5" height="15.5"/>
<g>
	<path d="M74.2,35.7c0-1.8,2.5-3.5,4.5-3.5c1.3,0,2.3,0.7,2.3,1.7c0,1.7-2.5,3.5-4.6,3.5C75.2,37.4,74.2,36.8,74.2,35.7z"/>
</g>
<rect x="95.5" y="16.9" width="0.5" height="14.7"/>
<g>
	<path d="M89.1,33.2c0-1.8,2.5-3.5,4.5-3.5c1.3,0,2.3,0.7,2.3,1.7c0,1.7-2.5,3.5-4.6,3.5C90,34.9,89.1,34.3,89.1,33.2z"/>
</g>
<rect x="110.2" y="15.2" width="0.5" height="14"/>
<g>
	<path d="M103.8,30.7c0-1.8,2.5-3.5,4.5-3.5c1.3,0,2.3,0.7,2.3,1.7c0,1.7-2.5,3.5-4.6,3.5C104.8,32.5,103.8,31.8,103.8,30.7z"/>
</g>
<rect x="118.6" y="28.2" width="0.5" height="16.4"/>
<g>
	<path d="M118.7,28.3c0-1.8,2.5-3.5,4.5-3.5c1.3,0,2.3,0.7,2.3,1.7c0,1.7-2.5,3.5-4.6,3.5C119.6,30,118.7,29.3,118.7,28.3z"/>
</g>
<rect x="133.5" y="25.7" width="0.5" height="17.4"/>
<g>
	<path d="M133.6,25.8c0-1.8,2.5-3.5,4.5-3.5c1.3,0,2.3,0.7,2.3,1.7c0,1.7-2.5,3.5-4.6,3.5C134.5,27.5,133.6,26.9,133.6,25.8z"/>
</g>
<rect x="148.4" y="23.2" width="0.5" height="18.1"/>
<g>
	<path d="M148.4,23.3c0-1.8,2.5-3.5,4.5-3.5c1.3,0,2.3,0.7,2.3,1.7c0,1.7-2.5,3.5-4.6,3.5C149.4,25,148.4,24.4,148.4,23.3z"/>
</g>
<rect x="163.1" y="20.7" width="0.5" height="18.9"/>
<g>
	<path d="M163.2,20.8c0-1.8,2.5-3.5,4.5-3.5c1.3,0,2.3,0.7,2.3,1.7c0,1.7-2.5,3.5-4.6,3.5C164.1,22.5,163.2,21.9,163.2,20.8z"/>
</g>
<rect x="191.3" y="18.3" width="0.5" height="16.4"/>
<g>
	<path d="M191.4,18.3c0-1.8,2.5-3.5,4.5-3.5c1.3,0,2.3,0.7,2.3,1.7c0,1.7-2.5,3.5-4.6,3.5C192.4,20.1,191.4,19.4,191.4,18.3z"/>
</g>
<rect x="206.2" y="15.8" width="0.5" height="17.4"/>
<g>
	<path d="M206.3,15.9c0-1.8,2.5-3.5,4.5-3.5c1.3,0,2.3,0.7,2.3,1.7c0,1.7-2.5,3.5-4.6,3.5C207.2,17.6,206.3,16.9,206.3,15.9z"/>
</g>
<rect x="221.1" y="13.3" width="0.5" height="18.1"/>
<g>
	<path d="M221.1,13.4c0-1.8,2.5-3.5,4.5-3.5c1.3,0,2.3,0.7,2.3,1.7c0,1.7-2.5,3.5-4.6,3.5C222.1,15.1,221.1,14.5,221.1,13.4z"/>
</g>
<rect x="234.2" y="9.7" width="10.5" height="0.8"/>
<rect x="235.9" y="10.8" width="0.5" height="18.9"/>
<g>
	<path d="M236,10.9c0-1.8,2.5-3.5,4.5-3.5c1.3,0,2.3,0.7,2.3,1.7c0,1.7-2.5,3.5-4.6,3.5C237,12.6,236,12,236,10.9z"/>
</g>
<rect x="248.9" y="9.7" width="10.5" height="0.8"/>
<rect x="250.7" y="8.3" width="0.5" height="17.7"/>
<g>
	<path d="M250.7,8.4c0-1.8,2.5-3.5,4.5-3.5c1.3,0,2.3,0.7,2.3,1.7c0,1.7-2.5,3.5-4.6,3.5C251.7,10.1,250.7,9.5,250.7,8.4z"/>
</g>
<rect x="263.8" y="9.7" width="10.5" height="0.8"/>
<rect x="263.8" y="4.7" width="10.5" height="0.8"/>
<rect x="265.6" y="5.9" width="0.5" height="19.8"/>
<g>
	<path d="M265.6,5.9c0-1.8,2.5-3.5,4.5-3.5c1.3,0,2.3,0.7,2.3,1.7c0,1.7-2.5,3.5-4.6,3.5C266.6,7.7,265.6,7,265.6,5.9z"/>
</g>
<rect x="278.7" y="9.7" width="10.5" height="0.8"/>
<rect x="278.7" y="4.7" width="10.5" height="0.8"/>
<rect x="280.4" y="3.4" width="0.5" height="21.9"/>
<g>
	<path d="M280.5,3.5c0-1.8,2.5-3.5,4.5-3.5c1.3,0,2.3,0.7,2.3,1.7c0,1.7-2.5,3.5-4.6,3.5C281.5,5.2,280.5,4.5,280.5,3.5z"/>
</g>
<rect x="293.5" y="9.7" width="10.5" height="0.8"/>
<rect x="293.5" y="4.7" width="10.5" height="0.8"/>
<rect x="295.3" y="5.9" width="0.5" height="18.9"/>
<g>
	<path d="M295.4,5.9c0-1.8,2.5-3.5,4.5-3.5c1.3,0,2.3,0.7,2.3,1.7c0,1.7-2.5,3.5-4.6,3.5C296.4,7.7,295.4,7,295.4,5.9z"/>
</g>
<rect x="308.3" y="9.7" width="10.5" height="0.8"/>
<rect x="310" y="8.3" width="0.5" height="16.4"/>
<g>
	<path d="M310.1,8.4c0-1.8,2.5-3.5,4.5-3.5c1.3,0,2.3,0.7,2.3,1.7c0,1.7-2.5,3.5-4.6,3.5C311.1,10.1,310.1,9.5,310.1,8.4z"/>
</g>
<rect x="323.1" y="9.7" width="10.5" height="0.8"/>
<rect x="324.9" y="10.8" width="0.5" height="15.5"/>
<g>
	<path d="M325,10.9c0-1.8,2.5-3.5,4.5-3.5c1.3,0,2.3,0.7,2.3,1.7c0,1.7-2.5,3.5-4.6,3.5C326,12.6,325,12,325,10.9z"/>
</g>
<rect x="339.8" y="13.3" width="0.5" height="14.7"/>
<g>
	<path d="M339.9,13.4c0-1.8,2.5-3.5,4.5-3.5c1.3,0,2.3,0.7,2.3,1.7c0,1.7-2.5,3.5-4.6,3.5C340.9,15.1,339.9,14.5,339.9,13.4z"/>
</g>
<rect x="354.7" y="15.8" width="0.5" height="14"/>
<g>
	<path d="M354.8,15.9c0-1.8,2.5-3.5,4.5-3.5c1.3,0,2.3,0.7,2.3,1.7c0,1.7-2.5,3.5-4.6,3.5C355.7,17.6,354.8,16.9,354.8,15.9z"/>
</g>
<rect x="381" y="18.3" width="0.5" height="16.4"/>
<g>
	<path d="M381.1,18.3c0-1.8,2.5-3.5,4.5-3.5c1.3,0,2.3,0.7,2.3,1.7c0,1.7-2.5,3.5-4.6,3.5C382.1,20.1,381.1,19.4,381.1,18.3z"/>
</g>
<rect x="395.8" y="20.7" width="0.5" height="15.5"/>
<g>
	<path d="M395.8,20.8c0-1.8,2.5-3.5,4.5-3.5c1.3,0,2.3,0.7,2.3,1.7c0,1.7-2.5,3.5-4.6,3.5C396.8,22.5,395.8,21.9,395.8,20.8z"/>
</g>
<rect x="410.6" y="23.2" width="0.5" height="14.7"/>
<g>
	<path d="M410.7,23.3c0-1.8,2.5-3.5,4.5-3.5c1.3,0,2.3,0.7,2.3,1.7c0,1.7-2.5,3.5-4.6,3.5C411.7,25,410.7,24.4,410.7,23.3z"/>
</g>
<rect x="425.5" y="25.7" width="0.5" height="14"/>
<g>
	<path d="M425.6,25.8c0-1.8,2.5-3.5,4.5-3.5c1.3,0,2.3,0.7,2.3,1.7c0,1.7-2.5,3.5-4.6,3.5C426.6,27.5,425.6,26.9,425.6,25.8z"/>
</g>
<rect x="446.9" y="10.2" width="0.5" height="16.4"/>
<g>
	<path d="M440.5,28.3c0-1.8,2.5-3.5,4.5-3.5c1.3,0,2.3,0.7,2.3,1.7c0,1.7-2.5,3.5-4.6,3.5C441.5,30,440.5,29.3,440.5,28.3z"/>
</g>
<rect x="461.6" y="11.7" width="0.5" height="17.4"/>
<g>
	<path d="M455.2,30.7c0-1.8,2.5-3.5,4.5-3.5c1.3,0,2.3,0.7,2.3,1.7c0,1.7-2.5,3.5-4.6,3.5C456.2,32.5,455.2,31.8,455.2,30.7z"/>
</g>
<rect x="476.5" y="13.4" width="0.5" height="18.1"/>
<g>
	<path d="M470.1,33.2c0-1.8,2.5-3.5,4.5-3.5c1.3,0,2.3,0.7,2.3,1.7c0,1.7-2.5,3.5-4.6,3.5C471.1,34.9,470.1,34.3,470.1,33.2z"/>
</g>
<rect x="491.4" y="15.2" width="0.5" height="18.9"/>
<g>
	<path d="M485,35.7c0-1.8,2.5-3.5,4.5-3.5c1.3,0,2.3,0.7,2.3,1.7c0,1.7-2.5,3.5-4.6,3.5C485.9,37.4,485,36.8,485,35.7z"/>
</g>
<rect x="506.4" y="20" width="0.5" height="16.6"/>
<g>
	<path d="M504.1,34.6c1.6,0,2.7,0.7,2.7,2c0,1.9-2.3,3.4-4.5,3.4c-1.3,0-2.4-0.7-2.4-1.8C499.9,36.4,502.1,34.6,504.1,34.6z
		 M500.3,38.5c0,0.6,0.4,0.9,1.1,0.9c1.4,0,4.9-2.1,4.9-3.3c0-0.6-0.4-0.9-1.1-0.9C504,35.2,500.3,37.2,500.3,38.5z"/>
</g>
<rect x="59.2" y="72.8" width="0.5" height="14"/>
<g>
	<path d="M59.3,72.9c0-1.8,2.5-3.5,4.5-3.5c1.3,0,2.3,0.7,2.3,1.7c0,1.7-2.5,3.5-4.6,3.5C60.3,74.6,59.3,74,59.3,72.9z"/>
</g>
<rect x="74.1" y="70.3" width="0.5" height="14.9"/>
<g>
	<path d="M74.2,70.4c0-1.8,2.5-3.5,4.5-3.5c1.3,0,2.3,0.7,2.3,1.7c0,1.7-2.5,3.5-4.6,3.5C75.2,72.1,74.2,71.5,74.2,70.4z"/>
</g>
<rect x="89" y="67.9" width="0.5" height="15.7"/>
<g>
	<path d="M89.1,67.9c0-1.8,2.5-3.5,4.5-3.5c1.3,0,2.3,0.7,2.3,1.7c0,1.7-2.5,3.5-4.6,3.5C90,69.7,89.1,69,89.1,67.9z"/>
</g>
<rect x="103.7" y="65.4" width="0.5" height="16.4"/>
<g>
	<path d="M103.8,65.5c0-1.8,2.5-3.5,4.5-3.5c1.3,0,2.3,0.7,2.3,1.7c0,1.7-2.5,3.5-4.6,3.5C104.8,67.2,103.8,66.5,103.8,65.5z"/>
</g>
<rect x="118.6" y="62.9" width="0.5" height="14"/>
<g>
	<path d="M118.7,63c0-1.8,2.5-3.5,4.5-3.5c1.3,0,2.3,0.7,2.3,1.7c0,1.7-2.5,3.5-4.6,3.5C119.6,64.7,118.7,64.1,118.7,63z"/>
</g>
<rect x="133.5" y="60.4" width="0.5" height="14.9"/>
<g>
	<path d="M133.6,60.5c0-1.8,2.5-3.5,4.5-3.5c1.3,0,2.3,0.7,2.3,1.7c0,1.7-2.5,3.5-4.6,3.5C134.5,62.2,133.6,61.6,133.6,60.5z"/>
</g>
<rect x="146.6" y="56.8" width="10.5" height="0.8"/>
<rect x="148.4" y="57.9" width="0.5" height="15.7"/>
<g>
	<path d="M148.4,58c0-1.8,2.5-3.5,4.5-3.5c1.3,0,2.3,0.7,2.3,1.7c0,1.7-2.5,3.5-4.6,3.5C149.4,59.7,148.4,59.1,148.4,58z"/>
</g>
<rect x="161.3" y="56.8" width="10.5" height="0.8"/>
<rect x="163.1" y="55.5" width="0.5" height="16.4"/>
<g>
	<path d="M163.2,55.5c0-1.8,2.5-3.5,4.5-3.5c1.3,0,2.3,0.7,2.3,1.7c0,1.7-2.5,3.5-4.6,3.5C164.1,57.3,163.2,56.6,163.2,55.5z"/>
</g>
<rect x="197.8" y="62.3" width="0.5" height="18.9"/>
<g>
	<path d="M191.4,82.8c0-1.8,2.5-3.5,4.5-3.5c1.3,0,2.3,0.7,2.3,1.7c0,1.7-2.5,3.5-4.6,3.5C192.4,84.5,191.4,83.9,191.4,82.8z"/>
</g>
<rect x="212.7" y="60.7" width="0.5" height="18"/>
<g>
	<path d="M206.3,80.3c0-1.8,2.5-3.5,4.5-3.5c1.3,0,2.3,0.7,2.3,1.7c0,1.7-2.5,3.5-4.6,3.5C207.2,82.1,206.3,81.4,206.3,80.3z"/>
</g>
<rect x="227.6" y="59" width="0.5" height="17.2"/>
<g>
	<path d="M221.1,77.9c0-1.8,2.5-3.5,4.5-3.5c1.3,0,2.3,0.7,2.3,1.7c0,1.7-2.5,3.5-4.6,3.5C222.1,79.6,221.1,78.9,221.1,77.9z"/>
</g>
<rect x="242.5" y="57.3" width="0.5" height="16.4"/>
<g>
	<path d="M236,75.4c0-1.8,2.5-3.5,4.5-3.5c1.3,0,2.3,0.7,2.3,1.7c0,1.7-2.5,3.5-4.6,3.5C237,77.1,236,76.5,236,75.4z"/>
</g>
<rect x="250.7" y="72.8" width="0.5" height="15.2"/>
<g>
	<path d="M250.7,72.9c0-1.8,2.5-3.5,4.5-3.5c1.3,0,2.3,0.7,2.3,1.7c0,1.7-2.5,3.5-4.6,3.5C251.7,74.6,250.7,74,250.7,72.9z"/>
</g>
<rect x="265.6" y="70.3" width="0.5" height="17.4"/>
<g>
	<path d="M265.6,70.4c0-1.8,2.5-3.5,4.5-3.5c1.3,0,2.3,0.7,2.3,1.7c0,1.7-2.5,3.5-4.6,3.5C266.6,72.1,265.6,71.5,265.6,70.4z"/>
</g>
<rect x="280.4" y="67.9" width="0.5" height="19.4"/>
<g>
	<path d="M280.5,67.9c0-1.8,2.5-3.5,4.5-3.5c1.3,0,2.3,0.7,2.3,1.7c0,1.7-2.5,3.5-4.6,3.5C281.5,69.7,280.5,69,280.5,67.9z"/>
</g>
<rect x="295.3" y="70.3" width="0.5" height="16.4"/>
<g>
	<path d="M295.4,70.4c0-1.8,2.5-3.5,4.5-3.5c1.3,0,2.3,0.7,2.3,1.7c0,1.7-2.5,3.5-4.6,3.5C296.4,72.1,295.4,71.5,295.4,70.4z"/>
</g>
<rect x="316.6" y="57.3" width="0.5" height="14"/>
<g>
	<path d="M310.1,72.9c0-1.8,2.5-3.5,4.5-3.5c1.3,0,2.3,0.7,2.3,1.7c0,1.7-2.5,3.5-4.6,3.5C311.1,74.6,310.1,74,310.1,72.9z"/>
</g>
<rect x="331.4" y="58.9" width="0.5" height="14.9"/>
<g>
	<path d="M325,75.4c0-1.8,2.5-3.5,4.5-3.5c1.3,0,2.3,0.7,2.3,1.7c0,1.7-2.5,3.5-4.6,3.5C326,77.1,325,76.5,325,75.4z"/>
</g>
<rect x="346.3" y="60.6" width="0.5" height="15.7"/>
<g>
	<path d="M339.9,77.9c0-1.8,2.5-3.5,4.5-3.5c1.3,0,2.3,0.7,2.3,1.7c0,1.7-2.5,3.5-4.6,3.5C340.9,79.6,339.9,78.9,339.9,77.9z"/>
</g>
<rect x="361.2" y="62.3" width="0.5" height="16.4"/>
<g>
	<path d="M354.8,80.3c0-1.8,2.5-3.5,4.5-3.5c1.3,0,2.3,0.7,2.3,1.7c0,1.7-2.5,3.5-4.6,3.5C355.7,82.1,354.8,81.4,354.8,80.3z"/>
</g>
<rect x="379.3" y="56.8" width="10.5" height="0.8"/>
<rect x="379.3" y="51.8" width="10.5" height="0.8"/>
<rect x="381" y="53" width="0.5" height="18.9"/>
<g>
	<path d="M381.1,53.1c0-1.8,2.5-3.5,4.5-3.5c1.3,0,2.3,0.7,2.3,1.7c0,1.7-2.5,3.5-4.6,3.5C382.1,54.8,381.1,54.1,381.1,53.1z"/>
</g>
<rect x="394" y="56.8" width="10.5" height="0.8"/>
<rect x="395.8" y="55.5" width="0.5" height="18"/>
<g>
	<path d="M395.8,55.5c0-1.8,2.5-3.5,4.5-3.5c1.3,0,2.3,0.7,2.3,1.7c0,1.7-2.5,3.5-4.6,3.5C396.8,57.3,395.8,56.6,395.8,55.5z"/>
</g>
<rect x="408.9" y="56.8" width="10.5" height="0.8"/>
<rect x="410.6" y="57.9" width="0.5" height="17.2"/>
<g>
	<path d="M410.7,58c0-1.8,2.5-3.5,4.5-3.5c1.3,0,2.3,0.7,2.3,1.7c0,1.7-2.5,3.5-4.6,3.5C411.7,59.7,410.7,59.1,410.7,58z"/>
</g>
<rect x="425.5" y="60.4" width="0.5" height="16.4"/>
<g>
	<path d="M425.6,60.5c0-1.8,2.5-3.5,4.5-3.5c1.3,0,2.3,0.7,2.3,1.7c0,1.7-2.5,3.5-4.6,3.5C426.6,62.2,425.6,61.6,425.6,60.5z"/>
</g>
<rect x="440.4" y="62.9" width="0.5" height="18.9"/>
<g>
	<path d="M440.5,63c0-1.8,2.5-3.5,4.5-3.5c1.3,0,2.3,0.7,2.3,1.7c0,1.7-2.5,3.5-4.6,3.5C441.5,64.7,440.5,64.1,440.5,63z"/>
</g>
<rect x="455.1" y="65.4" width="0.5" height="18"/>
<g>
	<path d="M455.2,65.5c0-1.8,2.5-3.5,4.5-3.5c1.3,0,2.3,0.7,2.3,1.7c0,1.7-2.5,3.5-4.6,3.5C456.2,67.2,455.2,66.5,455.2,65.5z"/>
</g>
<rect x="470" y="67.9" width="0.5" height="17.2"/>
<g>
	<path d="M470.1,67.9c0-1.8,2.5-3.5,4.5-3.5c1.3,0,2.3,0.7,2.3,1.7c0,1.7-2.5,3.5-4.6,3.5C471.1,69.7,470.1,69,470.1,67.9z"/>
</g>
<rect x="484.9" y="70.3" width="0.5" height="16.4"/>
<g>
	<path d="M485,70.4c0-1.8,2.5-3.5,4.5-3.5c1.3,0,2.3,0.7,2.3,1.7c0,1.7-2.5,3.5-4.6,3.5C485.9,72.1,485,71.5,485,70.4z"/>
</g>
<rect x="499.8" y="72.8" width="0.5" height="16.6"/>
<g>
	<path d="M504.1,69.3c1.6,0,2.7,0.7,2.7,2c0,1.9-2.3,3.4-4.5,3.4c-1.3,0-2.4-0.7-2.4-1.8C499.9,71.1,502.1,69.3,504.1,69.3z
		 M500.3,73.2c0,0.6,0.4,0.9,1.1,0.9c1.4,0,4.9-2.1,4.9-3.3c0-0.6-0.4-0.9-1.1-0.9C504,69.9,500.3,72,500.3,73.2z"/>
</g>
</svg>
