<?xml version="1.0" encoding="utf-8"?>

<!--
	ScaleBook
	Copyright (c) Leland Jansen 2015. All rights reserved.
-->

<!DOCTYPE svg PUBLIC "-//W3C//DTD SVG 1.1//EN" "http://www.w3.org/Graphics/SVG/1.1/DTD/svg11.dtd">
<svg version="1.1" id="Layer_1" xmlns="http://www.w3.org/2000/svg" xmlns:xlink="http://www.w3.org/1999/xlink" x="0px" y="0px"
	 viewBox="0 0 552.9 86.8" enable-background="new 0 0 552.9 86.8" xml:space="preserve">
<rect x="8.4" y="9.9" width="0.8" height="67"/>
<g>
	<path d="M7.4,10.6c-1.9,1.1-3.6,5.8-3.6,9.4c0,2.3,1.4,9.9,1.4,12.3c0,5-1.5,8.6-4.6,11.1c3,2.4,4.6,6.1,4.6,11.1
		c0,2.3-1.4,9.9-1.4,12.3c0,3.8,1.7,8.4,3.6,9.5v0.7c-3.5-2.3-5.8-8.2-5.8-13.1c0-2.1,1.7-9.4,1.7-11.5c0-3.8-1-6.6-2.9-8.2
		C0.1,43.8,0,43.6,0,43.4c0-0.2,0.1-0.4,0.5-0.7c1.9-1.7,2.9-4.2,2.9-7.6c0-2.1-1.7-10-1.7-12.2c0-5.2,2.1-10.4,5.8-13.1V10.6z"/>
</g>
<rect x="547.8" y="9.9" width="0.8" height="67"/>
<rect x="550.4" y="9.9" width="2.5" height="67"/>
<rect x="8.5" y="29.5" width="544.4" height="0.5"/>
<rect x="8.5" y="24.6" width="544.4" height="0.5"/>
<rect x="8.5" y="19.6" width="544.4" height="0.5"/>
<rect x="8.5" y="14.6" width="544.4" height="0.5"/>
<rect x="8.5" y="9.7" width="544.4" height="0.5"/>
<g>
	<path d="M20.3,29.6c-4.2,0-8.1-3.1-8.1-6.9c0-3.2,2.3-6.7,6.8-10.5c-0.3-1.2-0.4-2.4-0.4-3.6c0-3.5,1.2-6.8,3.2-8.5
		c1.8,2.5,2.7,4.9,2.7,7.1c0,2.9-1.3,5.6-4.3,8.1l0.9,4.2c0.5,0,0.8-0.1,0.8-0.1c2.6,0,4.8,2,4.8,4.7c0,1.9-1.4,3.7-3.6,4.8
		c0-0.1,0.9,3.8,0.9,4.3c0,2.5-2.3,4.2-4.9,4.2c-2,0-3.6-1.3-3.6-3.4c0-1.4,1-2.6,2.4-2.6c1.3,0,2.3,1.3,2.3,2.5
		c0,1.4-1.2,2.3-2.7,2.5c0.6,0.3,1.2,0.5,1.9,0.5c2.1,0,4.1-1.6,4.1-3.6c0-0.2,0-0.4-0.1-0.6l-0.8-3.7
		C21.9,29.5,21.2,29.6,20.3,29.6z M18.1,24.4c0,1,0.5,1.9,1.6,2.5c-1.8-0.3-3-1.4-3-3.1c0-2,1.7-3.7,3.8-4.1l-0.8-4
		C16,18.5,14,21.2,14,23.8c0,2.9,2.8,5.3,6,5.3c0.9,0,1.7-0.2,2.4-0.5L21,21.8C19.4,22,18.1,23,18.1,24.4z M22.1,3
		c-1.6,0-2.9,3.7-2.9,7c0,0.7,0,1.3,0.2,1.9c2.7-2.4,4-4.5,4-6.5c0-0.9-0.3-1.7-1-2.4C22.4,3.1,22.3,3,22.1,3z M24.9,24.9
		c0-1.6-1.2-3.3-2.9-3.3c-0.1,0-0.2,0-0.5,0l1.4,6.6C24.2,27.4,24.9,26.2,24.9,24.9z"/>
</g>
<g>
	<path d="M33.5,3.1v2.8l1-0.3v1.8l-1,0.3v3.4l1-0.3v1.8l-1,0.3v3.1H33v-3l-1.9,0.6v3h-0.5v-2.8l-1,0.3v-1.8l1-0.3V8.7l-1,0.3V7.2
		l1-0.3V3.7h0.5v3L33,6.1v-3H33.5z M33,7.9l-1.9,0.6v3.4l1.9-0.6V7.9z"/>
</g>
<g>
	<path d="M39.7,10.5v2.8l1-0.3v1.8l-1,0.3v3.4l1-0.3v1.8l-1,0.3v3.1h-0.5v-3l-1.9,0.6v3h-0.5v-2.8l-1,0.3v-1.8l1-0.3v-3.4l-1,0.3
		v-1.8l1-0.3v-3.1h0.5v3l1.9-0.6v-3H39.7z M39.2,15.3L37.3,16v3.4l1.9-0.6V15.3z"/>
</g>
<g>
	<path d="M45.9,0.6v2.8l1-0.3v1.8l-1,0.3v3.4l1-0.3v1.8l-1,0.3v3.1h-0.5v-3l-1.9,0.6v3H43v-2.8l-1,0.3V9.9l1-0.3V6.2l-1,0.3V4.7
		l1-0.3V1.3h0.5v3l1.9-0.6v-3H45.9z M45.4,5.4L43.5,6v3.4l1.9-0.6V5.4z"/>
</g>
<g>
	<path d="M52.1,8.1v2.8l1-0.3v1.8l-1,0.3v3.4l1-0.3v1.8l-1,0.3V21h-0.5v-3l-1.9,0.6v3h-0.5v-2.8l-1,0.3v-1.8l1-0.3v-3.4l-1,0.3v-1.8
		l1-0.3V8.7h0.5v3l1.9-0.6v-3H52.1z M51.6,12.8l-1.9,0.6v3.4l1.9-0.6V12.8z"/>
</g>
<g>
	<path d="M58.3,15.5v2.8l1-0.3v1.8l-1,0.3v3.4l1-0.3V25l-1,0.3v3.1h-0.5v-3l-1.9,0.6v3h-0.5v-2.8l-1,0.3v-1.8l1-0.3v-3.4l-1,0.3
		v-1.8l1-0.3v-3.1h0.5v3l1.9-0.6v-3H58.3z M57.8,20.3l-1.9,0.6v3.4l1.9-0.6V20.3z"/>
</g>
<g>
	<path d="M64.5,5.6v2.8l1-0.3v1.8l-1,0.3v3.4l1-0.3v1.8l-1,0.3v3.1H64v-3l-1.9,0.6v3h-0.5v-2.8l-1,0.3v-1.8l1-0.3v-3.4l-1,0.3V9.7
		l1-0.3V6.2h0.5v3L64,8.6v-3H64.5z M64,10.4L62.1,11v3.4l1.9-0.6V10.4z"/>
</g>
<g>
	<path d="M70.7,13v2.8l1-0.3v1.8l-1,0.3v3.4l1-0.3v1.8l-1,0.3V26h-0.5v-3l-1.9,0.6v3h-0.5v-2.8l-1,0.3v-1.8l1-0.3v-3.4l-1,0.3v-1.8
		l1-0.3v-3.1h0.5v3l1.9-0.6v-3H70.7z M70.2,17.8l-1.9,0.6v3.4l1.9-0.6V17.8z"/>
</g>
<polygon fill-rule="evenodd" clip-rule="evenodd" points="87.1,26 132,24.8 132,22.3 87.1,23.6 "/>
<polygon fill-rule="evenodd" clip-rule="evenodd" points="87.1,22.3 132,21.1 132,18.6 87.1,19.8 "/>
<polygon fill-rule="evenodd" clip-rule="evenodd" points="146.9,21.1 191.8,16.1 191.8,13.6 146.9,18.6 "/>
<polygon fill-rule="evenodd" clip-rule="evenodd" points="146.9,17.4 191.8,12.4 191.8,9.9 146.9,14.9 "/>
<polygon fill-rule="evenodd" clip-rule="evenodd" points="206.7,11.2 251.7,6.2 251.7,3.7 206.7,8.7 "/>
<polygon fill-rule="evenodd" clip-rule="evenodd" points="206.7,7.4 251.7,2.5 251.7,0 206.7,5 "/>
<polygon fill-rule="evenodd" clip-rule="evenodd" points="260,27.3 305,26 305,23.6 260,24.8 "/>
<polygon fill-rule="evenodd" clip-rule="evenodd" points="260,31 305,29.8 305,27.3 260,28.5 "/>
<polygon fill-rule="evenodd" clip-rule="evenodd" points="320,31 364.8,36 364.8,33.5 320,28.5 "/>
<polygon fill-rule="evenodd" clip-rule="evenodd" points="320,34.7 364.8,39.7 364.8,37.2 320,32.2 "/>
<polygon fill-rule="evenodd" clip-rule="evenodd" points="386.4,16.1 431.2,21.1 431.2,18.6 386.4,13.6 "/>
<polygon fill-rule="evenodd" clip-rule="evenodd" points="386.4,12.4 431.2,17.4 431.2,14.9 386.4,9.9 "/>
<polygon fill-rule="evenodd" clip-rule="evenodd" points="446.2,24.8 491.2,26 491.2,23.6 446.2,22.3 "/>
<polygon fill-rule="evenodd" clip-rule="evenodd" points="446.2,21.1 491.2,22.3 491.2,19.8 446.2,18.6 "/>
<rect x="8.5" y="76.7" width="544.4" height="0.5"/>
<rect x="8.5" y="71.7" width="544.4" height="0.5"/>
<rect x="8.5" y="66.7" width="544.4" height="0.5"/>
<rect x="8.5" y="61.8" width="544.4" height="0.5"/>
<rect x="8.5" y="56.8" width="544.4" height="0.5"/>
<g>
	<path d="M15.7,71.2c2.9-2.6,4.7-6.1,4.7-9.2c0-2.5-1.4-4.4-3.7-4.4c-1.6,0-3.4,1.3-3.4,2.7c0,0.2,0,0.3,0.1,0.3
		c-0.1,0,0.6-0.6,1.4-0.6c0.9,0,1.5,0.8,1.5,1.7c0,1.2-0.9,2.2-2.1,2.2c-1.2,0-2.1-1.3-2.1-2.8c0-2.3,2.3-4.1,4.8-4.1
		c4.7,0,5.9,3.2,5.9,5.8c0,1.6-0.4,2.9-2,5.3c-1.9,3.1-6.4,5.3-8.1,5.3c-0.4,0-0.6-0.2-0.6-0.5C13.8,72.5,14.9,71.9,15.7,71.2z
		 M25.7,58.5c0.6,0,1,0.4,1,1c0,0.6-0.4,1-1,1s-1-0.4-1-1C24.7,59,25.1,58.5,25.7,58.5z M25.7,63.5c0.6,0,1,0.4,1,1c0,0.6-0.4,1-1,1
		s-1-0.4-1-1C24.7,63.9,25.1,63.5,25.7,63.5z"/>
</g>
<g>
	<path d="M33.5,55.2V58l1-0.3v1.8l-1,0.3v3.4l1-0.3v1.8l-1,0.3v3.1H33v-3l-1.9,0.6v3h-0.5V66l-1,0.3v-1.8l1-0.3v-3.4l-1,0.3v-1.8
		l1-0.3v-3.1h0.5v3l1.9-0.6v-3H33.5z M33,60l-1.9,0.6V64l1.9-0.6V60z"/>
</g>
<g>
	<path d="M39.7,62.6v2.8l1-0.3v1.8l-1,0.3v3.4l1-0.3v1.8l-1,0.3v3.1h-0.5v-3l-1.9,0.6v3h-0.5v-2.8l-1,0.3v-1.8l1-0.3v-3.4l-1,0.3
		v-1.8l1-0.3v-3.1h0.5v3l1.9-0.6v-3H39.7z M39.2,67.4L37.3,68v3.4l1.9-0.6V67.4z"/>
</g>
<g>
	<path d="M45.9,52.7v2.8l1-0.3V57l-1,0.3v3.4l1-0.3v1.8l-1,0.3v3.1h-0.5v-3l-1.9,0.6v3H43v-2.8l-1,0.3V62l1-0.3v-3.4l-1,0.3v-1.8
		l1-0.3v-3.1h0.5v3l1.9-0.6v-3H45.9z M45.4,57.5l-1.9,0.6v3.4l1.9-0.6V57.5z"/>
</g>
<g>
	<path d="M52.1,60.1V63l1-0.3v1.8l-1,0.3v3.4l1-0.3v1.8l-1,0.3v3.1h-0.5v-3l-1.9,0.6v3h-0.5v-2.8l-1,0.3v-1.8l1-0.3v-3.4l-1,0.3
		v-1.8l1-0.3v-3.1h0.5v3l1.9-0.6v-3H52.1z M51.6,64.9l-1.9,0.6V69l1.9-0.6V64.9z"/>
</g>
<g>
	<path d="M58.3,67.6v2.8l1-0.3v1.8l-1,0.3v3.4l1-0.3v1.8l-1,0.3v3.1h-0.5v-3l-1.9,0.6v3h-0.5v-2.8l-1,0.3v-1.8l1-0.3v-3.4l-1,0.3
		v-1.8l1-0.3v-3.1h0.5v3l1.9-0.6v-3H58.3z M57.8,72.4L55.9,73v3.4l1.9-0.6V72.4z"/>
</g>
<g>
	<path d="M64.5,57.7v2.8l1-0.3V62l-1,0.3v3.4l1-0.3v1.8l-1,0.3v3.1H64v-3l-1.9,0.6v3h-0.5v-2.8l-1,0.3V67l1-0.3v-3.4l-1,0.3v-1.8
		l1-0.3v-3.1h0.5v3l1.9-0.6v-3H64.5z M64,62.4l-1.9,0.6v3.4l1.9-0.6V62.4z"/>
</g>
<g>
	<path d="M70.7,65.1v2.8l1-0.3v1.8l-1,0.3v3.4l1-0.3v1.8l-1,0.3v3.1h-0.5v-3l-1.9,0.6v3h-0.5v-2.8l-1,0.3v-1.8l1-0.3v-3.4l-1,0.3
		v-1.8l1-0.3v-3.1h0.5v3l1.9-0.6v-3H70.7z M70.2,69.9l-1.9,0.6v3.4l1.9-0.6V69.9z"/>
</g>
<polygon fill-rule="evenodd" clip-rule="evenodd" points="87.1,68.2 132,63.2 132,60.8 87.1,65.7 "/>
<polygon fill-rule="evenodd" clip-rule="evenodd" points="87.1,64.5 132,59.5 132,57 87.1,62 "/>
<polygon fill-rule="evenodd" clip-rule="evenodd" points="140.4,83.1 185.3,78.1 185.3,75.6 140.4,80.6 "/>
<polygon fill-rule="evenodd" clip-rule="evenodd" points="140.4,86.8 185.3,81.8 185.3,79.4 140.4,84.3 "/>
<polygon fill-rule="evenodd" clip-rule="evenodd" points="200.2,73.2 245.2,68.2 245.2,65.7 200.2,70.7 "/>
<polygon fill-rule="evenodd" clip-rule="evenodd" points="200.2,76.9 245.2,71.9 245.2,69.4 200.2,74.4 "/>
<polygon fill-rule="evenodd" clip-rule="evenodd" points="260,64.5 305,63.2 305,60.8 260,62 "/>
<polygon fill-rule="evenodd" clip-rule="evenodd" points="260,68.2 305,67 305,64.5 260,65.7 "/>
<polygon fill-rule="evenodd" clip-rule="evenodd" points="320,63.2 364.8,68.2 364.8,65.7 320,60.8 "/>
<polygon fill-rule="evenodd" clip-rule="evenodd" points="320,67 364.8,71.9 364.8,69.4 320,64.5 "/>
<polygon fill-rule="evenodd" clip-rule="evenodd" points="379.9,73.2 424.7,78.1 424.7,75.6 379.9,70.7 "/>
<polygon fill-rule="evenodd" clip-rule="evenodd" points="379.9,76.9 424.7,81.8 424.7,79.4 379.9,74.4 "/>
<polygon fill-rule="evenodd" clip-rule="evenodd" points="446.2,58.3 491.2,63.2 491.2,60.8 446.2,55.8 "/>
<polygon fill-rule="evenodd" clip-rule="evenodd" points="446.2,54.6 491.2,59.5 491.2,57 446.2,52.1 "/>
<rect x="78.5" y="34.3" width="10.5" height="0.8"/>
<rect x="78.5" y="39.3" width="10.5" height="0.8"/>
<rect x="78.5" y="44.3" width="10.5" height="0.8"/>
<rect x="86.8" y="20" width="0.5" height="23.9"/>
<g>
	<path d="M80.4,45.5c0-1.8,2.5-3.5,4.5-3.5c1.3,0,2.3,0.7,2.3,1.7c0,1.7-2.5,3.5-4.6,3.5C81.4,47.2,80.4,46.6,80.4,45.5z"/>
</g>
<rect x="93.6" y="34.3" width="10.5" height="0.8"/>
<rect x="93.6" y="39.3" width="10.5" height="0.8"/>
<rect x="101.9" y="19.7" width="0.5" height="21.7"/>
<g>
	<path d="M95.4,43c0-1.8,2.5-3.5,4.5-3.5c1.3,0,2.3,0.7,2.3,1.7c0,1.7-2.5,3.5-4.6,3.5C96.4,44.7,95.4,44.1,95.4,43z"/>
</g>
<rect x="108.4" y="34.3" width="10.5" height="0.8"/>
<rect x="108.4" y="39.3" width="10.5" height="0.8"/>
<rect x="116.7" y="19.2" width="0.5" height="19.7"/>
<g>
	<path d="M110.3,40.5c0-1.8,2.5-3.5,4.5-3.5c1.3,0,2.3,0.7,2.3,1.7c0,1.7-2.5,3.5-4.6,3.5C111.3,42.3,110.3,41.6,110.3,40.5z"/>
</g>
<rect x="123.5" y="34.3" width="10.5" height="0.8"/>
<rect x="131.8" y="18.8" width="0.5" height="17.7"/>
<g>
	<path d="M125.3,38.1c0-1.8,2.5-3.5,4.5-3.5c1.3,0,2.3,0.7,2.3,1.7c0,1.7-2.5,3.5-4.6,3.5C126.3,39.8,125.3,39.1,125.3,38.1z"/>
</g>
<rect x="138.4" y="34.3" width="10.5" height="0.8"/>
<rect x="146.7" y="15" width="0.5" height="18.9"/>
<g>
	<path d="M140.2,35.6c0-1.8,2.5-3.5,4.5-3.5c1.3,0,2.3,0.7,2.3,1.7c0,1.7-2.5,3.5-4.6,3.5C141.2,37.3,140.2,36.7,140.2,35.6z"/>
</g>
<rect x="161.7" y="13.5" width="0.5" height="18"/>
<g>
	<path d="M155.3,33.1c0-1.8,2.5-3.5,4.5-3.5c1.3,0,2.3,0.7,2.3,1.7c0,1.7-2.5,3.5-4.6,3.5C156.2,34.8,155.3,34.2,155.3,33.1z"/>
</g>
<rect x="176.6" y="11.8" width="0.5" height="17.2"/>
<g>
	<path d="M170.1,30.6c0-1.8,2.5-3.5,4.5-3.5c1.3,0,2.3,0.7,2.3,1.7c0,1.7-2.5,3.5-4.6,3.5C171.1,32.3,170.1,31.7,170.1,30.6z"/>
</g>
<rect x="191.6" y="10.1" width="0.5" height="16.4"/>
<g>
	<path d="M185.2,28.1c0-1.8,2.5-3.5,4.5-3.5c1.3,0,2.3,0.7,2.3,1.7c0,1.7-2.5,3.5-4.6,3.5C186.1,29.9,185.2,29.2,185.2,28.1z"/>
</g>
<rect x="206.5" y="5.1" width="0.5" height="18.9"/>
<g>
	<path d="M200.1,25.7c0-1.8,2.5-3.5,4.5-3.5c1.3,0,2.3,0.7,2.3,1.7c0,1.7-2.5,3.5-4.6,3.5C201,27.4,200.1,26.7,200.1,25.7z"/>
</g>
<rect x="221.5" y="3.6" width="0.5" height="18"/>
<g>
	<path d="M215.1,23.2c0-1.8,2.5-3.5,4.5-3.5c1.3,0,2.3,0.7,2.3,1.7c0,1.7-2.5,3.5-4.6,3.5C216.1,24.9,215.1,24.3,215.1,23.2z"/>
</g>
<rect x="236.4" y="1.9" width="0.5" height="17.2"/>
<g>
	<path d="M230,20.7c0-1.8,2.5-3.5,4.5-3.5c1.3,0,2.3,0.7,2.3,1.7c0,1.7-2.5,3.5-4.6,3.5C230.9,22.4,230,21.8,230,20.7z"/>
</g>
<rect x="251.4" y="0.2" width="0.5" height="16.4"/>
<g>
	<path d="M245,18.2c0-1.8,2.5-3.5,4.5-3.5c1.3,0,2.3,0.7,2.3,1.7c0,1.7-2.5,3.5-4.6,3.5C246,19.9,245,19.3,245,18.2z"/>
</g>
<rect x="259.8" y="15.7" width="0.5" height="15.2"/>
<g>
	<path d="M259.9,15.7c0-1.8,2.5-3.5,4.5-3.5c1.3,0,2.3,0.7,2.3,1.7c0,1.7-2.5,3.5-4.6,3.5C260.9,17.5,259.9,16.8,259.9,15.7z"/>
</g>
<rect x="274.9" y="13.2" width="0.5" height="17.4"/>
<g>
	<path d="M274.9,13.3c0-1.8,2.5-3.5,4.5-3.5c1.3,0,2.3,0.7,2.3,1.7c0,1.7-2.5,3.5-4.6,3.5C275.9,15,274.9,14.3,274.9,13.3z"/>
</g>
<rect x="289.9" y="10.7" width="0.5" height="19.4"/>
<g>
	<path d="M290,10.8c0-1.8,2.5-3.5,4.5-3.5c1.3,0,2.3,0.7,2.3,1.7c0,1.7-2.5,3.5-4.6,3.5C290.9,12.5,290,11.9,290,10.8z"/>
</g>
<rect x="304.8" y="13.2" width="0.5" height="16.4"/>
<g>
	<path d="M304.8,13.3c0-1.8,2.5-3.5,4.5-3.5c1.3,0,2.3,0.7,2.3,1.7c0,1.7-2.5,3.5-4.6,3.5C305.8,15,304.8,14.3,304.8,13.3z"/>
</g>
<rect x="319.8" y="15.7" width="0.5" height="18.9"/>
<g>
	<path d="M319.9,15.7c0-1.8,2.5-3.5,4.5-3.5c1.3,0,2.3,0.7,2.3,1.7c0,1.7-2.5,3.5-4.6,3.5C320.9,17.5,319.9,16.8,319.9,15.7z"/>
</g>
<rect x="334.7" y="18.1" width="0.5" height="18"/>
<g>
	<path d="M334.8,18.2c0-1.8,2.5-3.5,4.5-3.5c1.3,0,2.3,0.7,2.3,1.7c0,1.7-2.5,3.5-4.6,3.5C335.7,19.9,334.8,19.3,334.8,18.2z"/>
</g>
<rect x="349.7" y="20.6" width="0.5" height="17.2"/>
<g>
	<path d="M349.8,20.7c0-1.8,2.5-3.5,4.5-3.5c1.3,0,2.3,0.7,2.3,1.7c0,1.7-2.5,3.5-4.6,3.5C350.8,22.4,349.8,21.8,349.8,20.7z"/>
</g>
<rect x="364.6" y="23.1" width="0.5" height="16.4"/>
<g>
	<path d="M364.7,23.2c0-1.8,2.5-3.5,4.5-3.5c1.3,0,2.3,0.7,2.3,1.7c0,1.7-2.5,3.5-4.6,3.5C365.7,24.9,364.7,24.3,364.7,23.2z"/>
</g>
<rect x="386.2" y="10.1" width="0.5" height="14"/>
<g>
	<path d="M379.7,25.7c0-1.8,2.5-3.5,4.5-3.5c1.3,0,2.3,0.7,2.3,1.7c0,1.7-2.5,3.5-4.6,3.5C380.7,27.4,379.7,26.7,379.7,25.7z"/>
</g>
<rect x="401" y="11.6" width="0.5" height="14.9"/>
<g>
	<path d="M394.6,28.1c0-1.8,2.5-3.5,4.5-3.5c1.3,0,2.3,0.7,2.3,1.7c0,1.7-2.5,3.5-4.6,3.5C395.6,29.9,394.6,29.2,394.6,28.1z"/>
</g>
<rect x="416.1" y="13.3" width="0.5" height="15.7"/>
<g>
	<path d="M409.6,30.6c0-1.8,2.5-3.5,4.5-3.5c1.3,0,2.3,0.7,2.3,1.7c0,1.7-2.5,3.5-4.6,3.5C410.6,32.3,409.6,31.7,409.6,30.6z"/>
</g>
<rect x="431" y="15" width="0.5" height="16.4"/>
<g>
	<path d="M424.5,33.1c0-1.8,2.5-3.5,4.5-3.5c1.3,0,2.3,0.7,2.3,1.7c0,1.7-2.5,3.5-4.6,3.5C425.5,34.8,424.5,34.2,424.5,33.1z"/>
</g>
<rect x="437.7" y="34.3" width="10.5" height="0.8"/>
<rect x="446" y="18.8" width="0.5" height="15.2"/>
<g>
	<path d="M439.6,35.6c0-1.8,2.5-3.5,4.5-3.5c1.3,0,2.3,0.7,2.3,1.7c0,1.7-2.5,3.5-4.6,3.5C440.5,37.3,439.6,36.7,439.6,35.6z"/>
</g>
<rect x="452.7" y="34.3" width="10.5" height="0.8"/>
<rect x="461" y="19.1" width="0.5" height="17.4"/>
<g>
	<path d="M454.6,38.1c0-1.8,2.5-3.5,4.5-3.5c1.3,0,2.3,0.7,2.3,1.7c0,1.7-2.5,3.5-4.6,3.5C455.6,39.8,454.6,39.1,454.6,38.1z"/>
</g>
<rect x="467.6" y="34.3" width="10.5" height="0.8"/>
<rect x="467.6" y="39.3" width="10.5" height="0.8"/>
<rect x="475.9" y="19.5" width="0.5" height="19.4"/>
<g>
	<path d="M469.5,40.5c0-1.8,2.5-3.5,4.5-3.5c1.3,0,2.3,0.7,2.3,1.7c0,1.7-2.5,3.5-4.6,3.5C470.4,42.3,469.5,41.6,469.5,40.5z"/>
</g>
<rect x="482.7" y="34.3" width="10.5" height="0.8"/>
<rect x="482.7" y="39.3" width="10.5" height="0.8"/>
<rect x="490.9" y="20" width="0.5" height="21.4"/>
<g>
	<path d="M484.5,43c0-1.8,2.5-3.5,4.5-3.5c1.3,0,2.3,0.7,2.3,1.7c0,1.7-2.5,3.5-4.6,3.5C485.5,44.7,484.5,44.1,484.5,43z"/>
</g>
<rect x="497.5" y="34.3" width="10.7" height="0.8"/>
<rect x="497.5" y="39.3" width="10.7" height="0.8"/>
<rect x="497.5" y="44.3" width="10.7" height="0.8"/>
<rect x="506" y="19.8" width="0.5" height="24"/>
<g>
	<path d="M503.7,41.9c1.6,0,2.7,0.7,2.7,2c0,1.9-2.3,3.4-4.5,3.4c-1.3,0-2.4-0.7-2.4-1.8C499.4,43.7,501.6,41.9,503.7,41.9z
		 M499.8,45.8c0,0.6,0.4,0.9,1.1,0.9c1.4,0,4.9-2.1,4.9-3.3c0-0.6-0.4-0.9-1.1-0.9C503.5,42.5,499.8,44.6,499.8,45.8z"/>
</g>
<rect x="86.8" y="62.2" width="0.5" height="16.4"/>
<g>
	<path d="M80.4,80.2c0-1.8,2.5-3.5,4.5-3.5c1.3,0,2.3,0.7,2.3,1.7c0,1.7-2.5,3.5-4.6,3.5C81.4,81.9,80.4,81.3,80.4,80.2z"/>
</g>
<rect x="101.9" y="60.6" width="0.5" height="15.5"/>
<g>
	<path d="M95.4,77.7c0-1.8,2.5-3.5,4.5-3.5c1.3,0,2.3,0.7,2.3,1.7c0,1.7-2.5,3.5-4.6,3.5C96.4,79.5,95.4,78.8,95.4,77.7z"/>
</g>
<rect x="116.7" y="58.9" width="0.5" height="14.7"/>
<g>
	<path d="M110.3,75.3c0-1.8,2.5-3.5,4.5-3.5c1.3,0,2.3,0.7,2.3,1.7c0,1.7-2.5,3.5-4.6,3.5C111.3,77,110.3,76.3,110.3,75.3z"/>
</g>
<rect x="131.8" y="57.2" width="0.5" height="14"/>
<g>
	<path d="M125.3,72.8c0-1.8,2.5-3.5,4.5-3.5c1.3,0,2.3,0.7,2.3,1.7c0,1.7-2.5,3.5-4.6,3.5C126.3,74.5,125.3,73.9,125.3,72.8z"/>
</g>
<rect x="140.1" y="70.2" width="0.5" height="16.4"/>
<g>
	<path d="M140.2,70.3c0-1.8,2.5-3.5,4.5-3.5c1.3,0,2.3,0.7,2.3,1.7c0,1.7-2.5,3.5-4.6,3.5C141.2,72,140.2,71.4,140.2,70.3z"/>
</g>
<rect x="155.2" y="67.7" width="0.5" height="17.4"/>
<g>
	<path d="M155.3,67.8c0-1.8,2.5-3.5,4.5-3.5c1.3,0,2.3,0.7,2.3,1.7c0,1.7-2.5,3.5-4.6,3.5C156.2,69.5,155.3,68.9,155.3,67.8z"/>
</g>
<rect x="170.1" y="65.3" width="0.5" height="18.1"/>
<g>
	<path d="M170.1,65.3c0-1.8,2.5-3.5,4.5-3.5c1.3,0,2.3,0.7,2.3,1.7c0,1.7-2.5,3.5-4.6,3.5C171.1,67.1,170.1,66.4,170.1,65.3z"/>
</g>
<rect x="185.1" y="62.8" width="0.5" height="18.9"/>
<g>
	<path d="M185.2,62.9c0-1.8,2.5-3.5,4.5-3.5c1.3,0,2.3,0.7,2.3,1.7c0,1.7-2.5,3.5-4.6,3.5C186.1,64.6,185.2,63.9,185.2,62.9z"/>
</g>
<rect x="200" y="60.3" width="0.5" height="16.4"/>
<g>
	<path d="M200.1,60.4c0-1.8,2.5-3.5,4.5-3.5c1.3,0,2.3,0.7,2.3,1.7c0,1.7-2.5,3.5-4.6,3.5C201,62.1,200.1,61.5,200.1,60.4z"/>
</g>
<rect x="215" y="57.8" width="0.5" height="17.4"/>
<g>
	<path d="M215.1,57.9c0-1.8,2.5-3.5,4.5-3.5c1.3,0,2.3,0.7,2.3,1.7c0,1.7-2.5,3.5-4.6,3.5C216.1,59.6,215.1,59,215.1,57.9z"/>
</g>
<rect x="229.9" y="55.3" width="0.5" height="18.1"/>
<g>
	<path d="M230,55.4c0-1.8,2.5-3.5,4.5-3.5c1.3,0,2.3,0.7,2.3,1.7c0,1.7-2.5,3.5-4.6,3.5C230.9,57.1,230,56.5,230,55.4z"/>
</g>
<rect x="243.2" y="51.7" width="10.5" height="0.8"/>
<rect x="244.9" y="52.9" width="0.5" height="18.9"/>
<g>
	<path d="M245,52.9c0-1.8,2.5-3.5,4.5-3.5c1.3,0,2.3,0.7,2.3,1.7c0,1.7-2.5,3.5-4.6,3.5C246,54.7,245,54,245,52.9z"/>
</g>
<rect x="258" y="51.7" width="10.5" height="0.8"/>
<rect x="259.8" y="50.4" width="0.5" height="17.7"/>
<g>
	<path d="M259.9,50.5c0-1.8,2.5-3.5,4.5-3.5c1.3,0,2.3,0.7,2.3,1.7c0,1.7-2.5,3.5-4.6,3.5C260.9,52.2,259.9,51.5,259.9,50.5z"/>
</g>
<rect x="273.1" y="51.7" width="10.5" height="0.8"/>
<rect x="273.1" y="46.7" width="10.5" height="0.8"/>
<rect x="274.9" y="47.9" width="0.5" height="19.8"/>
<g>
	<path d="M274.9,48c0-1.8,2.5-3.5,4.5-3.5c1.3,0,2.3,0.7,2.3,1.7c0,1.7-2.5,3.5-4.6,3.5C275.9,49.7,274.9,49.1,274.9,48z"/>
</g>
<rect x="288.1" y="51.7" width="10.5" height="0.8"/>
<rect x="288.1" y="46.7" width="10.5" height="0.8"/>
<rect x="289.9" y="45.4" width="0.5" height="21.9"/>
<g>
	<path d="M290,45.5c0-1.8,2.5-3.5,4.5-3.5c1.3,0,2.3,0.7,2.3,1.7c0,1.7-2.5,3.5-4.6,3.5C290.9,47.2,290,46.6,290,45.5z"/>
</g>
<rect x="303" y="51.7" width="10.5" height="0.8"/>
<rect x="303" y="46.7" width="10.5" height="0.8"/>
<rect x="304.8" y="47.9" width="0.5" height="18.9"/>
<g>
	<path d="M304.8,48c0-1.8,2.5-3.5,4.5-3.5c1.3,0,2.3,0.7,2.3,1.7c0,1.7-2.5,3.5-4.6,3.5C305.8,49.7,304.8,49.1,304.8,48z"/>
</g>
<rect x="318" y="51.7" width="10.5" height="0.8"/>
<rect x="319.8" y="50.4" width="0.5" height="16.4"/>
<g>
	<path d="M319.9,50.5c0-1.8,2.5-3.5,4.5-3.5c1.3,0,2.3,0.7,2.3,1.7c0,1.7-2.5,3.5-4.6,3.5C320.9,52.2,319.9,51.5,319.9,50.5z"/>
</g>
<rect x="332.9" y="51.7" width="10.5" height="0.8"/>
<rect x="334.7" y="52.9" width="0.5" height="15.5"/>
<g>
	<path d="M334.8,52.9c0-1.8,2.5-3.5,4.5-3.5c1.3,0,2.3,0.7,2.3,1.7c0,1.7-2.5,3.5-4.6,3.5C335.7,54.7,334.8,54,334.8,52.9z"/>
</g>
<rect x="349.7" y="55.3" width="0.5" height="14.7"/>
<g>
	<path d="M349.8,55.4c0-1.8,2.5-3.5,4.5-3.5c1.3,0,2.3,0.7,2.3,1.7c0,1.7-2.5,3.5-4.6,3.5C350.8,57.1,349.8,56.5,349.8,55.4z"/>
</g>
<rect x="364.6" y="57.8" width="0.5" height="14"/>
<g>
	<path d="M364.7,57.9c0-1.8,2.5-3.5,4.5-3.5c1.3,0,2.3,0.7,2.3,1.7c0,1.7-2.5,3.5-4.6,3.5C365.7,59.6,364.7,59,364.7,57.9z"/>
</g>
<rect x="379.6" y="60.3" width="0.5" height="16.4"/>
<g>
	<path d="M379.7,60.4c0-1.8,2.5-3.5,4.5-3.5c1.3,0,2.3,0.7,2.3,1.7c0,1.7-2.5,3.5-4.6,3.5C380.7,62.1,379.7,61.5,379.7,60.4z"/>
</g>
<rect x="394.5" y="62.8" width="0.5" height="15.5"/>
<g>
	<path d="M394.6,62.9c0-1.8,2.5-3.5,4.5-3.5c1.3,0,2.3,0.7,2.3,1.7c0,1.7-2.5,3.5-4.6,3.5C395.6,64.6,394.6,63.9,394.6,62.9z"/>
</g>
<rect x="409.6" y="65.3" width="0.5" height="14.7"/>
<g>
	<path d="M409.6,65.3c0-1.8,2.5-3.5,4.5-3.5c1.3,0,2.3,0.7,2.3,1.7c0,1.7-2.5,3.5-4.6,3.5C410.6,67.1,409.6,66.4,409.6,65.3z"/>
</g>
<rect x="424.4" y="67.7" width="0.5" height="14"/>
<g>
	<path d="M424.5,67.8c0-1.8,2.5-3.5,4.5-3.5c1.3,0,2.3,0.7,2.3,1.7c0,1.7-2.5,3.5-4.6,3.5C425.5,69.5,424.5,68.9,424.5,67.8z"/>
</g>
<rect x="446" y="52.2" width="0.5" height="16.4"/>
<g>
	<path d="M439.6,70.3c0-1.8,2.5-3.5,4.5-3.5c1.3,0,2.3,0.7,2.3,1.7c0,1.7-2.5,3.5-4.6,3.5C440.5,72,439.6,71.4,439.6,70.3z"/>
</g>
<rect x="461" y="53.8" width="0.5" height="17.4"/>
<g>
	<path d="M454.6,72.8c0-1.8,2.5-3.5,4.5-3.5c1.3,0,2.3,0.7,2.3,1.7c0,1.7-2.5,3.5-4.6,3.5C455.6,74.5,454.6,73.9,454.6,72.8z"/>
</g>
<rect x="475.9" y="55.5" width="0.5" height="18.1"/>
<g>
	<path d="M469.5,75.3c0-1.8,2.5-3.5,4.5-3.5c1.3,0,2.3,0.7,2.3,1.7c0,1.7-2.5,3.5-4.6,3.5C470.4,77,469.5,76.3,469.5,75.3z"/>
</g>
<rect x="490.9" y="57.2" width="0.5" height="18.9"/>
<g>
	<path d="M484.5,77.7c0-1.8,2.5-3.5,4.5-3.5c1.3,0,2.3,0.7,2.3,1.7c0,1.7-2.5,3.5-4.6,3.5C485.5,79.5,484.5,78.8,484.5,77.7z"/>
</g>
<rect x="506" y="62" width="0.5" height="16.6"/>
<g>
	<path d="M503.7,76.7c1.6,0,2.7,0.7,2.7,2c0,1.9-2.3,3.4-4.5,3.4c-1.3,0-2.4-0.7-2.4-1.8C499.4,78.5,501.6,76.7,503.7,76.7z
		 M499.8,80.5c0,0.6,0.4,0.9,1.1,0.9c1.4,0,4.9-2.1,4.9-3.3c0-0.6-0.4-0.9-1.1-0.9C503.5,77.3,499.8,79.3,499.8,80.5z"/>
</g>
</svg>
