<?xml version="1.0" encoding="utf-8"?>

<!--
	ScaleBook
	Copyright (c) Leland Jansen 2015. All rights reserved.
-->

<!DOCTYPE svg PUBLIC "-//W3C//DTD SVG 1.1//EN" "http://www.w3.org/Graphics/SVG/1.1/DTD/svg11.dtd">
<svg version="1.1" id="Layer_1" xmlns="http://www.w3.org/2000/svg" xmlns:xlink="http://www.w3.org/1999/xlink" x="0px" y="0px"
	 viewBox="0 0 552.9 81.6" enable-background="new 0 0 552.9 81.6" xml:space="preserve">
<rect x="8.4" y="9.7" width="0.8" height="67"/>
<g>
	<path d="M7.4,10.4c-1.9,1.1-3.6,5.8-3.6,9.4c0,2.3,1.4,9.9,1.4,12.3c0,5-1.5,8.6-4.6,11.1c3,2.4,4.6,6.1,4.6,11.1
		c0,2.3-1.4,9.9-1.4,12.3c0,3.8,1.7,8.4,3.6,9.5v0.7c-3.5-2.3-5.8-8.2-5.8-13.1c0-2.1,1.7-9.4,1.7-11.5c0-3.8-1-6.6-2.9-8.2
		C0.1,43.6,0,43.4,0,43.2c0-0.2,0.1-0.4,0.5-0.7c1.9-1.7,2.9-4.2,2.9-7.6c0-2.1-1.7-10-1.7-12.2c0-5.2,2.1-10.4,5.8-13.1V10.4z"/>
</g>
<rect x="547.8" y="9.7" width="0.8" height="67"/>
<rect x="550.4" y="9.7" width="2.5" height="67"/>
<rect x="8.5" y="29.3" width="544.4" height="0.5"/>
<rect x="8.5" y="24.4" width="544.4" height="0.5"/>
<rect x="8.5" y="19.4" width="544.4" height="0.5"/>
<rect x="8.5" y="14.4" width="544.4" height="0.5"/>
<rect x="8.5" y="9.5" width="544.4" height="0.5"/>
<g>
	<path d="M20.3,29.4c-4.2,0-8.1-3.1-8.1-6.9c0-3.2,2.3-6.7,6.8-10.5c-0.3-1.2-0.4-2.4-0.4-3.6c0-3.5,1.2-6.8,3.2-8.5
		c1.8,2.5,2.7,4.9,2.7,7.1c0,2.9-1.3,5.6-4.3,8.1l0.9,4.2c0.5,0,0.8-0.1,0.8-0.1c2.6,0,4.8,2,4.8,4.7c0,1.9-1.4,3.7-3.6,4.8
		c0-0.1,0.9,3.8,0.9,4.3c0,2.5-2.3,4.2-4.9,4.2c-2,0-3.6-1.3-3.6-3.4c0-1.4,1-2.6,2.4-2.6c1.3,0,2.3,1.3,2.3,2.5
		c0,1.4-1.2,2.3-2.7,2.5c0.6,0.3,1.2,0.5,1.9,0.5c2.1,0,4.1-1.6,4.1-3.6c0-0.2,0-0.4-0.1-0.6l-0.8-3.7
		C21.9,29.3,21.2,29.4,20.3,29.4z M18.1,24.2c0,1,0.5,1.9,1.6,2.5c-1.8-0.3-3-1.4-3-3.1c0-2,1.7-3.7,3.8-4.1l-0.8-4
		C16,18.3,14,21,14,23.6c0,2.9,2.8,5.3,6,5.3c0.9,0,1.7-0.2,2.4-0.5L21,21.6C19.4,21.8,18.1,22.8,18.1,24.2z M22.1,2.8
		c-1.6,0-2.9,3.7-2.9,7c0,0.7,0,1.3,0.2,1.9c2.7-2.4,4-4.5,4-6.5c0-0.9-0.3-1.7-1-2.4C22.4,2.9,22.3,2.8,22.1,2.8z M24.9,24.7
		c0-1.6-1.2-3.3-2.9-3.3c-0.1,0-0.2,0-0.5,0l1.4,6.6C24.2,27.2,24.9,26,24.9,24.7z"/>
</g>
<g>
	<path d="M29.5,11.3h0.6L30,17.6c0.4-0.7,1-1,1.8-1c1.2,0,2.2,0.8,2.2,1.9c0,0.8-0.5,1.8-1.7,2.7l-2.8,2.1V11.3z M30.1,18.2
		C30,19,30,19.6,30,20.2c0,1,0,1.6,0.1,2c1-0.7,2.4-2.6,2.4-3.7c0-0.6-0.5-1.1-1.1-1.1C30.8,17.4,30.4,17.7,30.1,18.2z"/>
</g>
<g>
	<path d="M35.1,3.9h0.6l-0.1,6.2c0.4-0.7,1-1,1.8-1c1.2,0,2.2,0.8,2.2,1.9c0,0.8-0.5,1.8-1.7,2.7l-2.8,2.1V3.9z M35.7,10.8
		c-0.1,0.8-0.1,1.4-0.1,1.9c0,1,0,1.6,0.1,2c1-0.7,2.4-2.6,2.4-3.7c0-0.6-0.5-1.1-1.1-1.1C36.4,10,36,10.2,35.7,10.8z"/>
</g>
<g>
	<path d="M40.7,13.8h0.6l-0.1,6.2c0.4-0.7,1-1,1.8-1c1.2,0,2.2,0.8,2.2,1.9c0,0.8-0.5,1.8-1.7,2.7l-2.8,2.1V13.8z M41.3,20.7
		c-0.1,0.8-0.1,1.4-0.1,1.9c0,1,0,1.6,0.1,2c1-0.7,2.4-2.6,2.4-3.7c0-0.6-0.5-1.1-1.1-1.1C42,19.9,41.6,20.2,41.3,20.7z"/>
</g>
<g>
	<path d="M46.3,6.4h0.6l-0.1,6.2c0.4-0.7,1-1,1.8-1c1.2,0,2.2,0.8,2.2,1.9c0,0.8-0.5,1.8-1.7,2.7l-2.8,2.1V6.4z M46.9,13.3
		c-0.1,0.8-0.1,1.4-0.1,1.9c0,1,0,1.6,0.1,2c1-0.7,2.4-2.6,2.4-3.7c0-0.6-0.5-1.1-1.1-1.1C47.6,12.4,47.2,12.7,46.9,13.3z"/>
</g>
<g>
	<path d="M51.9,16.3h0.6l-0.1,6.2c0.4-0.7,1-1,1.8-1c1.2,0,2.2,0.8,2.2,1.9c0,0.8-0.5,1.8-1.7,2.7l-2.8,2.1V16.3z M52.4,23.2
		c-0.1,0.8-0.1,1.4-0.1,1.9c0,1,0,1.6,0.1,2c1-0.7,2.4-2.6,2.4-3.7c0-0.6-0.5-1.1-1.1-1.1C53.2,22.4,52.7,22.6,52.4,23.2z"/>
</g>
<polygon fill-rule="evenodd" clip-rule="evenodd" points="71.6,25.8 117.9,24.6 117.9,22.1 71.6,23.4 "/>
<polygon fill-rule="evenodd" clip-rule="evenodd" points="71.6,22.1 117.9,20.9 117.9,18.4 71.6,19.6 "/>
<polygon fill-rule="evenodd" clip-rule="evenodd" points="133.4,20.9 179.8,15.9 179.8,13.4 133.4,18.4 "/>
<polygon fill-rule="evenodd" clip-rule="evenodd" points="133.4,17.2 179.8,12.2 179.8,9.7 133.4,14.7 "/>
<polygon fill-rule="evenodd" clip-rule="evenodd" points="188.7,35.8 235.1,30.8 235.1,28.3 188.7,33.3 "/>
<polygon fill-rule="evenodd" clip-rule="evenodd" points="188.7,39.5 235.1,34.5 235.1,32 188.7,37 "/>
<polygon fill-rule="evenodd" clip-rule="evenodd" points="250.6,27.1 296.9,25.8 296.9,23.4 250.6,24.6 "/>
<polygon fill-rule="evenodd" clip-rule="evenodd" points="250.6,30.8 296.9,29.6 296.9,27.1 250.6,28.3 "/>
<polygon fill-rule="evenodd" clip-rule="evenodd" points="312.4,25.8 358.8,30.8 358.8,28.3 312.4,23.4 "/>
<polygon fill-rule="evenodd" clip-rule="evenodd" points="312.4,29.6 358.8,34.5 358.8,32 312.4,27.1 "/>
<polygon fill-rule="evenodd" clip-rule="evenodd" points="380.8,11 427.2,15.9 427.2,13.4 380.8,8.5 "/>
<polygon fill-rule="evenodd" clip-rule="evenodd" points="380.8,7.2 427.2,12.2 427.2,9.7 380.8,4.8 "/>
<polygon fill-rule="evenodd" clip-rule="evenodd" points="442.7,20.9 489.2,25.8 489.2,23.4 442.7,18.4 "/>
<polygon fill-rule="evenodd" clip-rule="evenodd" points="442.7,17.2 489.2,22.1 489.2,19.6 442.7,14.7 "/>
<rect x="8.5" y="76.4" width="544.4" height="0.5"/>
<rect x="8.5" y="71.5" width="544.4" height="0.5"/>
<rect x="8.5" y="66.5" width="544.4" height="0.5"/>
<rect x="8.5" y="61.6" width="544.4" height="0.5"/>
<rect x="8.5" y="56.6" width="544.4" height="0.5"/>
<g>
	<path d="M15.7,71c2.9-2.6,4.7-6.1,4.7-9.2c0-2.5-1.4-4.4-3.7-4.4c-1.6,0-3.4,1.3-3.4,2.7c0,0.2,0,0.3,0.1,0.3
		c-0.1,0,0.6-0.6,1.4-0.6c0.9,0,1.5,0.8,1.5,1.7c0,1.2-0.9,2.2-2.1,2.2c-1.2,0-2.1-1.3-2.1-2.8c0-2.3,2.3-4.1,4.8-4.1
		c4.7,0,5.9,3.2,5.9,5.8c0,1.6-0.4,2.9-2,5.3c-1.9,3.1-6.4,5.3-8.1,5.3c-0.4,0-0.6-0.2-0.6-0.5C13.8,72.3,14.9,71.7,15.7,71z
		 M25.7,58.3c0.6,0,1,0.4,1,1c0,0.6-0.4,1-1,1s-1-0.4-1-1C24.7,58.8,25.1,58.3,25.7,58.3z M25.7,63.3c0.6,0,1,0.4,1,1
		c0,0.6-0.4,1-1,1s-1-0.4-1-1C24.7,63.7,25.1,63.3,25.7,63.3z"/>
</g>
<g>
	<path d="M29.5,63.4h0.6L30,69.7c0.4-0.7,1-1,1.8-1c1.2,0,2.2,0.8,2.2,1.9c0,0.8-0.5,1.8-1.7,2.7l-2.8,2.1V63.4z M30.1,70.3
		C30,71.1,30,71.7,30,72.3c0,1,0,1.6,0.1,2c1-0.7,2.4-2.6,2.4-3.7c0-0.6-0.5-1.1-1.1-1.1C30.8,69.5,30.4,69.8,30.1,70.3z"/>
</g>
<g>
	<path d="M35.1,56h0.6l-0.1,6.2c0.4-0.7,1-1,1.8-1c1.2,0,2.2,0.8,2.2,1.9c0,0.8-0.5,1.8-1.7,2.7l-2.8,2.1V56z M35.7,62.9
		c-0.1,0.8-0.1,1.4-0.1,1.9c0,1,0,1.6,0.1,2c1-0.7,2.4-2.6,2.4-3.7c0-0.6-0.5-1.1-1.1-1.1C36.4,62,36,62.3,35.7,62.9z"/>
</g>
<g>
	<path d="M40.7,65.9h0.6l-0.1,6.2c0.4-0.7,1-1,1.8-1c1.2,0,2.2,0.8,2.2,1.9c0,0.8-0.5,1.8-1.7,2.7l-2.8,2.1V65.9z M41.3,72.8
		c-0.1,0.8-0.1,1.4-0.1,1.9c0,1,0,1.6,0.1,2c1-0.7,2.4-2.6,2.4-3.7c0-0.6-0.5-1.1-1.1-1.1C42,72,41.6,72.2,41.3,72.8z"/>
</g>
<g>
	<path d="M46.3,58.4h0.6l-0.1,6.2c0.4-0.7,1-1,1.8-1c1.2,0,2.2,0.8,2.2,1.9c0,0.8-0.5,1.8-1.7,2.7l-2.8,2.1V58.4z M46.9,65.4
		c-0.1,0.8-0.1,1.4-0.1,1.9c0,1,0,1.6,0.1,2c1-0.7,2.4-2.6,2.4-3.7c0-0.6-0.5-1.1-1.1-1.1C47.6,64.5,47.2,64.8,46.9,65.4z"/>
</g>
<g>
	<path d="M51.9,68.4h0.6l-0.1,6.2c0.4-0.7,1-1,1.8-1c1.2,0,2.2,0.8,2.2,1.9c0,0.8-0.5,1.8-1.7,2.7l-2.8,2.1V68.4z M52.4,75.3
		c-0.1,0.8-0.1,1.4-0.1,1.9c0,1,0,1.6,0.1,2c1-0.7,2.4-2.6,2.4-3.7c0-0.6-0.5-1.1-1.1-1.1C53.2,74.4,52.7,74.7,52.4,75.3z"/>
</g>
<polygon fill-rule="evenodd" clip-rule="evenodd" points="71.6,63 117.9,58.1 117.9,55.6 71.6,60.6 "/>
<polygon fill-rule="evenodd" clip-rule="evenodd" points="71.6,59.3 117.9,54.4 117.9,51.9 71.6,56.8 "/>
<polygon fill-rule="evenodd" clip-rule="evenodd" points="126.9,77.9 173.2,73 173.2,70.5 126.9,75.4 "/>
<polygon fill-rule="evenodd" clip-rule="evenodd" points="126.9,81.6 173.2,76.7 173.2,74.2 126.9,79.2 "/>
<polygon fill-rule="evenodd" clip-rule="evenodd" points="188.7,68 235.1,63 235.1,60.6 188.7,65.5 "/>
<polygon fill-rule="evenodd" clip-rule="evenodd" points="188.7,71.7 235.1,66.8 235.1,64.3 188.7,69.2 "/>
<polygon fill-rule="evenodd" clip-rule="evenodd" points="250.6,64.3 296.9,63 296.9,60.6 250.6,61.8 "/>
<polygon fill-rule="evenodd" clip-rule="evenodd" points="250.6,68 296.9,66.8 296.9,64.3 250.6,65.5 "/>
<polygon fill-rule="evenodd" clip-rule="evenodd" points="312.4,63 358.8,68 358.8,65.5 312.4,60.6 "/>
<polygon fill-rule="evenodd" clip-rule="evenodd" points="312.4,66.8 358.8,71.7 358.8,69.2 312.4,64.3 "/>
<polygon fill-rule="evenodd" clip-rule="evenodd" points="374.3,73 420.6,77.9 420.6,75.4 374.3,70.5 "/>
<polygon fill-rule="evenodd" clip-rule="evenodd" points="374.3,76.7 420.6,81.6 420.6,79.2 374.3,74.2 "/>
<polygon fill-rule="evenodd" clip-rule="evenodd" points="442.7,58.1 489.2,63 489.2,60.6 442.7,55.6 "/>
<polygon fill-rule="evenodd" clip-rule="evenodd" points="442.7,54.4 489.2,59.3 489.2,56.8 442.7,51.9 "/>
<rect x="63" y="34.1" width="10.5" height="0.8"/>
<rect x="63" y="39.1" width="10.5" height="0.8"/>
<rect x="71.3" y="19.8" width="0.5" height="21.4"/>
<g>
	<path d="M64.9,42.8c0-1.8,2.5-3.5,4.5-3.5c1.3,0,2.3,0.7,2.3,1.7c0,1.7-2.5,3.5-4.6,3.5C65.9,44.5,64.9,43.9,64.9,42.8z"/>
</g>
<rect x="78.5" y="34.1" width="10.5" height="0.8"/>
<rect x="78.5" y="39.1" width="10.5" height="0.8"/>
<rect x="86.8" y="19.5" width="0.5" height="19.2"/>
<g>
	<path d="M80.4,40.3c0-1.8,2.5-3.5,4.5-3.5c1.3,0,2.3,0.7,2.3,1.7c0,1.7-2.5,3.5-4.6,3.5C81.4,42.1,80.4,41.4,80.4,40.3z"/>
</g>
<rect x="94" y="34.1" width="10.5" height="0.8"/>
<rect x="102.3" y="19" width="0.5" height="17.2"/>
<g>
	<path d="M95.9,37.9c0-1.8,2.5-3.5,4.5-3.5c1.3,0,2.3,0.7,2.3,1.7c0,1.7-2.5,3.5-4.6,3.5C96.9,39.6,95.9,38.9,95.9,37.9z"/>
</g>
<rect x="109.4" y="34.1" width="10.5" height="0.8"/>
<rect x="117.7" y="18.6" width="0.5" height="15.2"/>
<g>
	<path d="M111.2,35.4c0-1.8,2.5-3.5,4.5-3.5c1.3,0,2.3,0.7,2.3,1.7c0,1.7-2.5,3.5-4.6,3.5C112.2,37.1,111.2,36.5,111.2,35.4z"/>
</g>
<rect x="133.2" y="14.8" width="0.5" height="16.4"/>
<g>
	<path d="M126.7,32.9c0-1.8,2.5-3.5,4.5-3.5c1.3,0,2.3,0.7,2.3,1.7c0,1.7-2.5,3.5-4.6,3.5C127.7,34.6,126.7,34,126.7,32.9z"/>
</g>
<rect x="148.7" y="13.3" width="0.5" height="15.5"/>
<g>
	<path d="M142.2,30.4c0-1.8,2.5-3.5,4.5-3.5c1.3,0,2.3,0.7,2.3,1.7c0,1.7-2.5,3.5-4.6,3.5C143.2,32.1,142.2,31.5,142.2,30.4z"/>
</g>
<rect x="164.2" y="11.6" width="0.5" height="14.7"/>
<g>
	<path d="M157.7,27.9c0-1.8,2.5-3.5,4.5-3.5c1.3,0,2.3,0.7,2.3,1.7c0,1.7-2.5,3.5-4.6,3.5C158.7,29.7,157.7,29,157.7,27.9z"/>
</g>
<rect x="179.5" y="9.9" width="0.5" height="14"/>
<g>
	<path d="M173.1,25.5c0-1.8,2.5-3.5,4.5-3.5c1.3,0,2.3,0.7,2.3,1.7c0,1.7-2.5,3.5-4.6,3.5C174.1,27.2,173.1,26.5,173.1,25.5z"/>
</g>
<rect x="188.5" y="22.9" width="0.5" height="16.4"/>
<g>
	<path d="M188.6,23c0-1.8,2.5-3.5,4.5-3.5c1.3,0,2.3,0.7,2.3,1.7c0,1.7-2.5,3.5-4.6,3.5C189.6,24.7,188.6,24.1,188.6,23z"/>
</g>
<rect x="204" y="20.4" width="0.5" height="17.4"/>
<g>
	<path d="M204.1,20.5c0-1.8,2.5-3.5,4.5-3.5c1.3,0,2.3,0.7,2.3,1.7c0,1.7-2.5,3.5-4.6,3.5C205.1,22.2,204.1,21.6,204.1,20.5z"/>
</g>
<rect x="219.5" y="17.9" width="0.5" height="18.1"/>
<g>
	<path d="M219.6,18c0-1.8,2.5-3.5,4.5-3.5c1.3,0,2.3,0.7,2.3,1.7c0,1.7-2.5,3.5-4.6,3.5C220.6,19.7,219.6,19.1,219.6,18z"/>
</g>
<rect x="234.9" y="15.5" width="0.5" height="18.9"/>
<g>
	<path d="M234.9,15.5c0-1.8,2.5-3.5,4.5-3.5c1.3,0,2.3,0.7,2.3,1.7c0,1.7-2.5,3.5-4.6,3.5C235.9,17.3,234.9,16.6,234.9,15.5z"/>
</g>
<rect x="250.4" y="13" width="0.5" height="17.7"/>
<g>
	<path d="M250.4,13c0-1.8,2.5-3.5,4.5-3.5c1.3,0,2.3,0.7,2.3,1.7c0,1.7-2.5,3.5-4.6,3.5C251.4,14.8,250.4,14.1,250.4,13z"/>
</g>
<rect x="265.9" y="10.5" width="0.5" height="19.8"/>
<g>
	<path d="M265.9,10.6c0-1.8,2.5-3.5,4.5-3.5c1.3,0,2.3,0.7,2.3,1.7c0,1.7-2.5,3.5-4.6,3.5C266.9,12.3,265.9,11.7,265.9,10.6z"/>
</g>
<rect x="281.4" y="8" width="0.5" height="21.9"/>
<g>
	<path d="M281.4,8.1c0-1.8,2.5-3.5,4.5-3.5c1.3,0,2.3,0.7,2.3,1.7c0,1.7-2.5,3.5-4.6,3.5C282.4,9.8,281.4,9.2,281.4,8.1z"/>
</g>
<rect x="296.7" y="10.5" width="0.5" height="18.9"/>
<g>
	<path d="M296.8,10.6c0-1.8,2.5-3.5,4.5-3.5c1.3,0,2.3,0.7,2.3,1.7c0,1.7-2.5,3.5-4.6,3.5C297.8,12.3,296.8,11.7,296.8,10.6z"/>
</g>
<rect x="312.2" y="13" width="0.5" height="16.4"/>
<g>
	<path d="M312.3,13c0-1.8,2.5-3.5,4.5-3.5c1.3,0,2.3,0.7,2.3,1.7c0,1.7-2.5,3.5-4.6,3.5C313.3,14.8,312.3,14.1,312.3,13z"/>
</g>
<rect x="327.7" y="15.5" width="0.5" height="15.5"/>
<g>
	<path d="M327.8,15.5c0-1.8,2.5-3.5,4.5-3.5c1.3,0,2.3,0.7,2.3,1.7c0,1.7-2.5,3.5-4.6,3.5C328.8,17.3,327.8,16.6,327.8,15.5z"/>
</g>
<rect x="343.2" y="17.9" width="0.5" height="14.7"/>
<g>
	<path d="M343.3,18c0-1.8,2.5-3.5,4.5-3.5c1.3,0,2.3,0.7,2.3,1.7c0,1.7-2.5,3.5-4.6,3.5C344.3,19.7,343.3,19.1,343.3,18z"/>
</g>
<rect x="358.6" y="20.4" width="0.5" height="14"/>
<g>
	<path d="M358.6,20.5c0-1.8,2.5-3.5,4.5-3.5c1.3,0,2.3,0.7,2.3,1.7c0,1.7-2.5,3.5-4.6,3.5C359.6,22.2,358.6,21.6,358.6,20.5z"/>
</g>
<rect x="380.6" y="4.9" width="0.5" height="16.4"/>
<g>
	<path d="M374.1,23c0-1.8,2.5-3.5,4.5-3.5c1.3,0,2.3,0.7,2.3,1.7c0,1.7-2.5,3.5-4.6,3.5C375.1,24.7,374.1,24.1,374.1,23z"/>
</g>
<rect x="396.1" y="6.5" width="0.5" height="17.4"/>
<g>
	<path d="M389.6,25.5c0-1.8,2.5-3.5,4.5-3.5c1.3,0,2.3,0.7,2.3,1.7c0,1.7-2.5,3.5-4.6,3.5C390.6,27.2,389.6,26.5,389.6,25.5z"/>
</g>
<rect x="411.6" y="8.2" width="0.5" height="18.1"/>
<g>
	<path d="M405.1,27.9c0-1.8,2.5-3.5,4.5-3.5c1.3,0,2.3,0.7,2.3,1.7c0,1.7-2.5,3.5-4.6,3.5C406.1,29.7,405.1,29,405.1,27.9z"/>
</g>
<rect x="426.9" y="9.9" width="0.5" height="18.9"/>
<g>
	<path d="M420.5,30.4c0-1.8,2.5-3.5,4.5-3.5c1.3,0,2.3,0.7,2.3,1.7c0,1.7-2.5,3.5-4.6,3.5C421.5,32.1,420.5,31.5,420.5,30.4z"/>
</g>
<rect x="442.4" y="14.8" width="0.5" height="16.4"/>
<g>
	<path d="M436,32.9c0-1.8,2.5-3.5,4.5-3.5c1.3,0,2.3,0.7,2.3,1.7c0,1.7-2.5,3.5-4.6,3.5C437,34.6,436,34,436,32.9z"/>
</g>
<rect x="449.6" y="34.1" width="10.5" height="0.8"/>
<rect x="457.9" y="16.4" width="0.5" height="17.4"/>
<g>
	<path d="M451.5,35.4c0-1.8,2.5-3.5,4.5-3.5c1.3,0,2.3,0.7,2.3,1.7c0,1.7-2.5,3.5-4.6,3.5C452.5,37.1,451.5,36.5,451.5,35.4z"/>
</g>
<rect x="465.1" y="34.1" width="10.5" height="0.8"/>
<rect x="473.4" y="18.1" width="0.5" height="18.1"/>
<g>
	<path d="M467,37.9c0-1.8,2.5-3.5,4.5-3.5c1.3,0,2.3,0.7,2.3,1.7c0,1.7-2.5,3.5-4.6,3.5C468,39.6,467,38.9,467,37.9z"/>
</g>
<rect x="480.6" y="34.1" width="10.5" height="0.8"/>
<rect x="480.6" y="39.1" width="10.5" height="0.8"/>
<rect x="488.9" y="19.8" width="0.5" height="18.9"/>
<g>
	<path d="M482.5,40.3c0-1.8,2.5-3.5,4.5-3.5c1.3,0,2.3,0.7,2.3,1.7c0,1.7-2.5,3.5-4.6,3.5C483.5,42.1,482.5,41.4,482.5,40.3z"/>
</g>
<rect x="496" y="34.1" width="10.7" height="0.8"/>
<rect x="496" y="39.1" width="10.7" height="0.8"/>
<rect x="504.4" y="19.6" width="0.5" height="21.5"/>
<g>
	<path d="M502.1,39.3c1.6,0,2.7,0.7,2.7,2c0,1.9-2.3,3.4-4.5,3.4c-1.3,0-2.4-0.7-2.4-1.8C497.8,41,500.1,39.3,502.1,39.3z
		 M498.3,43.1c0,0.6,0.4,0.9,1.1,0.9c1.4,0,4.9-2.1,4.9-3.3c0-0.6-0.4-0.9-1.1-0.9C502,39.9,498.3,41.9,498.3,43.1z"/>
</g>
<rect x="71.3" y="57" width="0.5" height="18.9"/>
<g>
	<path d="M64.9,77.5c0-1.8,2.5-3.5,4.5-3.5c1.3,0,2.3,0.7,2.3,1.7c0,1.7-2.5,3.5-4.6,3.5C65.9,79.3,64.9,78.6,64.9,77.5z"/>
</g>
<rect x="86.8" y="55.4" width="0.5" height="18"/>
<g>
	<path d="M80.4,75.1c0-1.8,2.5-3.5,4.5-3.5c1.3,0,2.3,0.7,2.3,1.7c0,1.7-2.5,3.5-4.6,3.5C81.4,76.8,80.4,76.1,80.4,75.1z"/>
</g>
<rect x="102.3" y="53.7" width="0.5" height="17.2"/>
<g>
	<path d="M95.9,72.6c0-1.8,2.5-3.5,4.5-3.5c1.3,0,2.3,0.7,2.3,1.7c0,1.7-2.5,3.5-4.6,3.5C96.9,74.3,95.9,73.7,95.9,72.6z"/>
</g>
<rect x="117.7" y="52" width="0.5" height="16.4"/>
<g>
	<path d="M111.2,70.1c0-1.8,2.5-3.5,4.5-3.5c1.3,0,2.3,0.7,2.3,1.7c0,1.7-2.5,3.5-4.6,3.5C112.2,71.8,111.2,71.2,111.2,70.1z"/>
</g>
<rect x="126.7" y="67.5" width="0.5" height="14"/>
<g>
	<path d="M126.7,67.6c0-1.8,2.5-3.5,4.5-3.5c1.3,0,2.3,0.7,2.3,1.7c0,1.7-2.5,3.5-4.6,3.5C127.7,69.3,126.7,68.7,126.7,67.6z"/>
</g>
<rect x="142.2" y="65.1" width="0.5" height="14.9"/>
<g>
	<path d="M142.2,65.1c0-1.8,2.5-3.5,4.5-3.5c1.3,0,2.3,0.7,2.3,1.7c0,1.7-2.5,3.5-4.6,3.5C143.2,66.9,142.2,66.2,142.2,65.1z"/>
</g>
<rect x="157.7" y="62.6" width="0.5" height="15.7"/>
<g>
	<path d="M157.7,62.7c0-1.8,2.5-3.5,4.5-3.5c1.3,0,2.3,0.7,2.3,1.7c0,1.7-2.5,3.5-4.6,3.5C158.7,64.4,157.7,63.7,157.7,62.7z"/>
</g>
<rect x="173" y="60.1" width="0.5" height="16.4"/>
<g>
	<path d="M173.1,60.2c0-1.8,2.5-3.5,4.5-3.5c1.3,0,2.3,0.7,2.3,1.7c0,1.7-2.5,3.5-4.6,3.5C174.1,61.9,173.1,61.3,173.1,60.2z"/>
</g>
<rect x="188.5" y="57.6" width="0.5" height="14"/>
<g>
	<path d="M188.6,57.7c0-1.8,2.5-3.5,4.5-3.5c1.3,0,2.3,0.7,2.3,1.7c0,1.7-2.5,3.5-4.6,3.5C189.6,59.4,188.6,58.8,188.6,57.7z"/>
</g>
<rect x="204" y="55.1" width="0.5" height="14.9"/>
<g>
	<path d="M204.1,55.2c0-1.8,2.5-3.5,4.5-3.5c1.3,0,2.3,0.7,2.3,1.7c0,1.7-2.5,3.5-4.6,3.5C205.1,56.9,204.1,56.3,204.1,55.2z"/>
</g>
<rect x="217.7" y="51.5" width="10.5" height="0.8"/>
<rect x="219.5" y="52.7" width="0.5" height="15.7"/>
<g>
	<path d="M219.6,52.7c0-1.8,2.5-3.5,4.5-3.5c1.3,0,2.3,0.7,2.3,1.7c0,1.7-2.5,3.5-4.6,3.5C220.6,54.5,219.6,53.8,219.6,52.7z"/>
</g>
<rect x="233.1" y="51.5" width="10.5" height="0.8"/>
<rect x="234.9" y="50.2" width="0.5" height="16.4"/>
<g>
	<path d="M234.9,50.3c0-1.8,2.5-3.5,4.5-3.5c1.3,0,2.3,0.7,2.3,1.7c0,1.7-2.5,3.5-4.6,3.5C235.9,52,234.9,51.3,234.9,50.3z"/>
</g>
<rect x="248.6" y="51.5" width="10.5" height="0.8"/>
<rect x="248.6" y="46.5" width="10.5" height="0.8"/>
<rect x="250.4" y="47.7" width="0.5" height="20.2"/>
<g>
	<path d="M250.4,47.8c0-1.8,2.5-3.5,4.5-3.5c1.3,0,2.3,0.7,2.3,1.7c0,1.7-2.5,3.5-4.6,3.5C251.4,49.5,250.4,48.9,250.4,47.8z"/>
</g>
<rect x="264.1" y="51.5" width="10.5" height="0.8"/>
<rect x="264.1" y="46.5" width="10.5" height="0.8"/>
<rect x="265.9" y="45.2" width="0.5" height="22.3"/>
<g>
	<path d="M265.9,45.3c0-1.8,2.5-3.5,4.5-3.5c1.3,0,2.3,0.7,2.3,1.7c0,1.7-2.5,3.5-4.6,3.5C266.9,47,265.9,46.4,265.9,45.3z"/>
</g>
<rect x="279.6" y="51.5" width="10.5" height="0.8"/>
<rect x="279.6" y="46.5" width="10.5" height="0.8"/>
<rect x="279.6" y="41.6" width="10.5" height="0.8"/>
<rect x="281.4" y="42.7" width="0.5" height="24.3"/>
<g>
	<path d="M281.4,42.8c0-1.8,2.5-3.5,4.5-3.5c1.3,0,2.3,0.7,2.3,1.7c0,1.7-2.5,3.5-4.6,3.5C282.4,44.5,281.4,43.9,281.4,42.8z"/>
</g>
<rect x="294.9" y="51.5" width="10.5" height="0.8"/>
<rect x="294.9" y="46.5" width="10.5" height="0.8"/>
<rect x="296.7" y="45.2" width="0.5" height="21.4"/>
<g>
	<path d="M296.8,45.3c0-1.8,2.5-3.5,4.5-3.5c1.3,0,2.3,0.7,2.3,1.7c0,1.7-2.5,3.5-4.6,3.5C297.8,47,296.8,46.4,296.8,45.3z"/>
</g>
<rect x="310.4" y="51.5" width="10.5" height="0.8"/>
<rect x="310.4" y="46.5" width="10.5" height="0.8"/>
<rect x="312.2" y="47.7" width="0.5" height="18.9"/>
<g>
	<path d="M312.3,47.8c0-1.8,2.5-3.5,4.5-3.5c1.3,0,2.3,0.7,2.3,1.7c0,1.7-2.5,3.5-4.6,3.5C313.3,49.5,312.3,48.9,312.3,47.8z"/>
</g>
<rect x="325.9" y="51.5" width="10.5" height="0.8"/>
<rect x="327.7" y="50.2" width="0.5" height="18"/>
<g>
	<path d="M327.8,50.3c0-1.8,2.5-3.5,4.5-3.5c1.3,0,2.3,0.7,2.3,1.7c0,1.7-2.5,3.5-4.6,3.5C328.8,52,327.8,51.3,327.8,50.3z"/>
</g>
<rect x="341.4" y="51.5" width="10.5" height="0.8"/>
<rect x="343.2" y="52.7" width="0.5" height="17.2"/>
<g>
	<path d="M343.3,52.7c0-1.8,2.5-3.5,4.5-3.5c1.3,0,2.3,0.7,2.3,1.7c0,1.7-2.5,3.5-4.6,3.5C344.3,54.5,343.3,53.8,343.3,52.7z"/>
</g>
<rect x="358.6" y="55.1" width="0.5" height="16.4"/>
<g>
	<path d="M358.6,55.2c0-1.8,2.5-3.5,4.5-3.5c1.3,0,2.3,0.7,2.3,1.7c0,1.7-2.5,3.5-4.6,3.5C359.6,56.9,358.6,56.3,358.6,55.2z"/>
</g>
<rect x="374.1" y="57.6" width="0.5" height="18.9"/>
<g>
	<path d="M374.1,57.7c0-1.8,2.5-3.5,4.5-3.5c1.3,0,2.3,0.7,2.3,1.7c0,1.7-2.5,3.5-4.6,3.5C375.1,59.4,374.1,58.8,374.1,57.7z"/>
</g>
<rect x="389.6" y="60.1" width="0.5" height="18"/>
<g>
	<path d="M389.6,60.2c0-1.8,2.5-3.5,4.5-3.5c1.3,0,2.3,0.7,2.3,1.7c0,1.7-2.5,3.5-4.6,3.5C390.6,61.9,389.6,61.3,389.6,60.2z"/>
</g>
<rect x="405.1" y="62.6" width="0.5" height="17.2"/>
<g>
	<path d="M405.1,62.7c0-1.8,2.5-3.5,4.5-3.5c1.3,0,2.3,0.7,2.3,1.7c0,1.7-2.5,3.5-4.6,3.5C406.1,64.4,405.1,63.7,405.1,62.7z"/>
</g>
<rect x="420.4" y="65.1" width="0.5" height="16.4"/>
<g>
	<path d="M420.5,65.1c0-1.8,2.5-3.5,4.5-3.5c1.3,0,2.3,0.7,2.3,1.7c0,1.7-2.5,3.5-4.6,3.5C421.5,66.9,420.5,66.2,420.5,65.1z"/>
</g>
<rect x="442.4" y="52" width="0.5" height="14"/>
<g>
	<path d="M436,67.6c0-1.8,2.5-3.5,4.5-3.5c1.3,0,2.3,0.7,2.3,1.7c0,1.7-2.5,3.5-4.6,3.5C437,69.3,436,68.7,436,67.6z"/>
</g>
<rect x="457.9" y="53.6" width="0.5" height="14.9"/>
<g>
	<path d="M451.5,70.1c0-1.8,2.5-3.5,4.5-3.5c1.3,0,2.3,0.7,2.3,1.7c0,1.7-2.5,3.5-4.6,3.5C452.5,71.8,451.5,71.2,451.5,70.1z"/>
</g>
<rect x="473.4" y="55.3" width="0.5" height="15.7"/>
<g>
	<path d="M467,72.6c0-1.8,2.5-3.5,4.5-3.5c1.3,0,2.3,0.7,2.3,1.7c0,1.7-2.5,3.5-4.6,3.5C468,74.3,467,73.7,467,72.6z"/>
</g>
<rect x="488.9" y="57" width="0.5" height="16.4"/>
<g>
	<path d="M482.5,75.1c0-1.8,2.5-3.5,4.5-3.5c1.3,0,2.3,0.7,2.3,1.7c0,1.7-2.5,3.5-4.6,3.5C483.5,76.8,482.5,76.1,482.5,75.1z"/>
</g>
<rect x="504.4" y="59.3" width="0.5" height="16.6"/>
<g>
	<path d="M502.1,74c1.6,0,2.7,0.7,2.7,2c0,1.9-2.3,3.4-4.5,3.4c-1.3,0-2.4-0.7-2.4-1.8C497.8,75.8,500.1,74,502.1,74z M498.3,77.8
		c0,0.6,0.4,0.9,1.1,0.9c1.4,0,4.9-2.1,4.9-3.3c0-0.6-0.4-0.9-1.1-0.9C502,74.6,498.3,76.6,498.3,77.8z"/>
</g>
</svg>
