<?xml version="1.0" encoding="utf-8"?>

<!--
	ScaleBook
	Copyright (c) Leland Jansen 2015. All rights reserved.
-->

<!DOCTYPE svg PUBLIC "-//W3C//DTD SVG 1.1//EN" "http://www.w3.org/Graphics/SVG/1.1/DTD/svg11.dtd">
<svg version="1.1" id="Layer_1" xmlns="http://www.w3.org/2000/svg" xmlns:xlink="http://www.w3.org/1999/xlink" x="0px" y="0px"
	 viewBox="0 0 552.9 81.6" enable-background="new 0 0 552.9 81.6" xml:space="preserve">
<rect x="8.4" y="9.7" width="0.8" height="67"/>
<g>
	<path d="M7.4,10.4c-1.9,1.1-3.6,5.8-3.6,9.4c0,2.3,1.4,9.9,1.4,12.3c0,5-1.5,8.6-4.6,11.1c3,2.4,4.6,6.1,4.6,11.1
		c0,2.3-1.4,9.9-1.4,12.3c0,3.8,1.7,8.4,3.6,9.5v0.7c-3.5-2.3-5.8-8.2-5.8-13.1c0-2.1,1.7-9.4,1.7-11.5c0-3.8-1-6.6-2.9-8.2
		C0.1,43.6,0,43.4,0,43.2c0-0.2,0.1-0.4,0.5-0.7c1.9-1.7,2.9-4.2,2.9-7.6c0-2.1-1.7-10-1.7-12.2c0-5.2,2.1-10.4,5.8-13.1V10.4z"/>
</g>
<rect x="547.8" y="9.7" width="0.8" height="67"/>
<rect x="550.4" y="9.7" width="2.5" height="67"/>
<rect x="8.5" y="29.3" width="544.4" height="0.5"/>
<rect x="8.5" y="24.4" width="544.4" height="0.5"/>
<rect x="8.5" y="19.4" width="544.4" height="0.5"/>
<rect x="8.5" y="14.4" width="544.4" height="0.5"/>
<rect x="8.5" y="9.5" width="544.4" height="0.5"/>
<g>
	<path d="M20.3,29.4c-4.2,0-8.1-3.1-8.1-6.9c0-3.2,2.3-6.7,6.8-10.5c-0.3-1.2-0.4-2.4-0.4-3.6c0-3.5,1.2-6.8,3.2-8.5
		c1.8,2.5,2.7,4.9,2.7,7.1c0,2.9-1.3,5.6-4.3,8.1l0.9,4.2c0.5,0,0.8-0.1,0.8-0.1c2.6,0,4.8,2,4.8,4.7c0,1.9-1.4,3.7-3.6,4.8
		c0-0.1,0.9,3.8,0.9,4.3c0,2.5-2.3,4.2-4.9,4.2c-2,0-3.6-1.3-3.6-3.4c0-1.4,1-2.6,2.4-2.6c1.3,0,2.3,1.3,2.3,2.5
		c0,1.4-1.2,2.3-2.7,2.5c0.6,0.3,1.2,0.5,1.9,0.5c2.1,0,4.1-1.6,4.1-3.6c0-0.2,0-0.4-0.1-0.6l-0.8-3.7
		C21.9,29.3,21.2,29.4,20.3,29.4z M18.1,24.2c0,1,0.5,1.9,1.6,2.5c-1.8-0.3-3-1.4-3-3.1c0-2,1.7-3.7,3.8-4.1l-0.8-4
		C16,18.3,14,21,14,23.6c0,2.9,2.8,5.3,6,5.3c0.9,0,1.7-0.2,2.4-0.5L21,21.6C19.4,21.8,18.1,22.8,18.1,24.2z M22.1,2.8
		c-1.6,0-2.9,3.7-2.9,7c0,0.7,0,1.3,0.2,1.9c2.7-2.4,4-4.5,4-6.5c0-0.9-0.3-1.7-1-2.4C22.4,2.9,22.3,2.8,22.1,2.8z M24.9,24.7
		c0-1.6-1.2-3.3-2.9-3.3c-0.1,0-0.2,0-0.5,0l1.4,6.6C24.2,27.2,24.9,26,24.9,24.7z"/>
</g>
<g>
	<path d="M33.5,2.9v2.8l1-0.3v1.8l-1,0.3V11l1-0.3v1.8l-1,0.3v3.1H33v-3l-1.9,0.6v3h-0.5v-2.8l-1,0.3v-1.8l1-0.3V8.4l-1,0.3V7l1-0.3
		V3.5h0.5v3L33,5.9v-3H33.5z M33,7.7l-1.9,0.6v3.4l1.9-0.6V7.7z"/>
</g>
<g>
	<path d="M39.7,10.3v2.8l1-0.3v1.8l-1,0.3v3.4l1-0.3v1.8l-1,0.3v3.1h-0.5v-3L37.3,21v3h-0.5v-2.8l-1,0.3v-1.8l1-0.3v-3.4l-1,0.3
		v-1.8l1-0.3V11h0.5v3l1.9-0.6v-3H39.7z M39.2,15.1l-1.9,0.6v3.4l1.9-0.6V15.1z"/>
</g>
<polygon fill-rule="evenodd" clip-rule="evenodd" points="56,25.8 103.9,24.6 103.9,22.1 56,23.4 "/>
<polygon fill-rule="evenodd" clip-rule="evenodd" points="56,22.1 103.9,20.9 103.9,18.4 56,19.6 "/>
<polygon fill-rule="evenodd" clip-rule="evenodd" points="119.9,20.9 167.8,15.9 167.8,13.4 119.9,18.4 "/>
<polygon fill-rule="evenodd" clip-rule="evenodd" points="119.9,17.2 167.8,12.2 167.8,9.7 119.9,14.7 "/>
<polygon fill-rule="evenodd" clip-rule="evenodd" points="177.3,35.8 225.2,30.8 225.2,28.3 177.3,33.3 "/>
<polygon fill-rule="evenodd" clip-rule="evenodd" points="177.3,39.5 225.2,34.5 225.2,32 177.3,37 "/>
<polygon fill-rule="evenodd" clip-rule="evenodd" points="241.1,27.1 289,25.8 289,23.4 241.1,24.6 "/>
<polygon fill-rule="evenodd" clip-rule="evenodd" points="241.1,30.8 289,29.6 289,27.1 241.1,28.3 "/>
<polygon fill-rule="evenodd" clip-rule="evenodd" points="305,25.8 352.9,30.8 352.9,28.3 305,23.4 "/>
<polygon fill-rule="evenodd" clip-rule="evenodd" points="305,29.6 352.9,34.5 352.9,32 305,27.1 "/>
<polygon fill-rule="evenodd" clip-rule="evenodd" points="375.4,11 423.3,15.9 423.3,13.4 375.4,8.5 "/>
<polygon fill-rule="evenodd" clip-rule="evenodd" points="375.4,7.2 423.3,12.2 423.3,9.7 375.4,4.8 "/>
<polygon fill-rule="evenodd" clip-rule="evenodd" points="439.2,20.9 487,25.8 487,23.4 439.2,18.4 "/>
<polygon fill-rule="evenodd" clip-rule="evenodd" points="439.2,17.2 487,22.1 487,19.6 439.2,14.7 "/>
<rect x="8.5" y="76.4" width="544.4" height="0.5"/>
<rect x="8.5" y="71.5" width="544.4" height="0.5"/>
<rect x="8.5" y="66.5" width="544.4" height="0.5"/>
<rect x="8.5" y="61.6" width="544.4" height="0.5"/>
<rect x="8.5" y="56.6" width="544.4" height="0.5"/>
<g>
	<path d="M15.7,71c2.9-2.6,4.7-6.1,4.7-9.2c0-2.5-1.4-4.4-3.7-4.4c-1.6,0-3.4,1.3-3.4,2.7c0,0.2,0,0.3,0.1,0.3
		c-0.1,0,0.6-0.6,1.4-0.6c0.9,0,1.5,0.8,1.5,1.7c0,1.2-0.9,2.2-2.1,2.2c-1.2,0-2.1-1.3-2.1-2.8c0-2.3,2.3-4.1,4.8-4.1
		c4.7,0,5.9,3.2,5.9,5.8c0,1.6-0.4,2.9-2,5.3c-1.9,3.1-6.4,5.3-8.1,5.3c-0.4,0-0.6-0.2-0.6-0.5C13.8,72.3,14.9,71.7,15.7,71z
		 M25.7,58.3c0.6,0,1,0.4,1,1c0,0.6-0.4,1-1,1s-1-0.4-1-1C24.7,58.8,25.1,58.3,25.7,58.3z M25.7,63.3c0.6,0,1,0.4,1,1
		c0,0.6-0.4,1-1,1s-1-0.4-1-1C24.7,63.7,25.1,63.3,25.7,63.3z"/>
</g>
<g>
	<path d="M33.5,55v2.8l1-0.3v1.8l-1,0.3V63l1-0.3v1.8l-1,0.3V68H33v-3l-1.9,0.6v3h-0.5v-2.8l-1,0.3v-1.8l1-0.3v-3.4l-1,0.3v-1.8
		l1-0.3v-3.1h0.5v3L33,58v-3H33.5z M33,59.8l-1.9,0.6v3.4l1.9-0.6V59.8z"/>
</g>
<g>
	<path d="M39.7,62.4v2.8l1-0.3v1.8l-1,0.3v3.4l1-0.3V72l-1,0.3v3.1h-0.5v-3l-1.9,0.6v3h-0.5v-2.8l-1,0.3v-1.8l1-0.3V68l-1,0.3v-1.8
		l1-0.3v-3.1h0.5v3l1.9-0.6v-3H39.7z M39.2,67.2l-1.9,0.6v3.4l1.9-0.6V67.2z"/>
</g>
<polygon fill-rule="evenodd" clip-rule="evenodd" points="56,63 103.9,58.1 103.9,55.6 56,60.6 "/>
<polygon fill-rule="evenodd" clip-rule="evenodd" points="56,59.3 103.9,54.4 103.9,51.9 56,56.8 "/>
<polygon fill-rule="evenodd" clip-rule="evenodd" points="113.4,77.9 161.3,73 161.3,70.5 113.4,75.4 "/>
<polygon fill-rule="evenodd" clip-rule="evenodd" points="113.4,81.6 161.3,76.7 161.3,74.2 113.4,79.2 "/>
<polygon fill-rule="evenodd" clip-rule="evenodd" points="177.3,68 225.2,63 225.2,60.6 177.3,65.5 "/>
<polygon fill-rule="evenodd" clip-rule="evenodd" points="177.3,71.7 225.2,66.8 225.2,64.3 177.3,69.2 "/>
<polygon fill-rule="evenodd" clip-rule="evenodd" points="241.1,64.3 289,63 289,60.6 241.1,61.8 "/>
<polygon fill-rule="evenodd" clip-rule="evenodd" points="241.1,68 289,66.8 289,64.3 241.1,65.5 "/>
<polygon fill-rule="evenodd" clip-rule="evenodd" points="305,63 352.9,68 352.9,65.5 305,60.6 "/>
<polygon fill-rule="evenodd" clip-rule="evenodd" points="305,66.8 352.9,71.7 352.9,69.2 305,64.3 "/>
<polygon fill-rule="evenodd" clip-rule="evenodd" points="368.9,73 416.8,77.9 416.8,75.4 368.9,70.5 "/>
<polygon fill-rule="evenodd" clip-rule="evenodd" points="368.9,76.7 416.8,81.6 416.8,79.2 368.9,74.2 "/>
<polygon fill-rule="evenodd" clip-rule="evenodd" points="439.2,58.1 487,63 487,60.6 439.2,55.6 "/>
<polygon fill-rule="evenodd" clip-rule="evenodd" points="439.2,54.4 487,59.3 487,56.8 439.2,51.9 "/>
<rect x="47.5" y="34.1" width="10.5" height="0.8"/>
<rect x="47.5" y="39.1" width="10.5" height="0.8"/>
<rect x="55.8" y="19.8" width="0.5" height="21.4"/>
<g>
	<path d="M49.4,42.8c0-1.8,2.5-3.5,4.5-3.5c1.3,0,2.3,0.7,2.3,1.7c0,1.7-2.5,3.5-4.6,3.5C50.4,44.5,49.4,43.9,49.4,42.8z"/>
</g>
<rect x="63.5" y="34.1" width="10.5" height="0.8"/>
<rect x="63.5" y="39.1" width="10.5" height="0.8"/>
<rect x="71.8" y="19.5" width="0.5" height="19.2"/>
<g>
	<path d="M65.4,40.3c0-1.8,2.5-3.5,4.5-3.5c1.3,0,2.3,0.7,2.3,1.7c0,1.7-2.5,3.5-4.6,3.5C66.3,42.1,65.4,41.4,65.4,40.3z"/>
</g>
<rect x="79.5" y="34.1" width="10.5" height="0.8"/>
<rect x="87.8" y="19" width="0.5" height="17.2"/>
<g>
	<path d="M81.3,37.9c0-1.8,2.5-3.5,4.5-3.5c1.3,0,2.3,0.7,2.3,1.7c0,1.7-2.5,3.5-4.6,3.5C82.3,39.6,81.3,38.9,81.3,37.9z"/>
</g>
<rect x="95.4" y="34.1" width="10.5" height="0.8"/>
<rect x="103.7" y="18.6" width="0.5" height="15.2"/>
<g>
	<path d="M97.3,35.4c0-1.8,2.5-3.5,4.5-3.5c1.3,0,2.3,0.7,2.3,1.7c0,1.7-2.5,3.5-4.6,3.5C98.3,37.1,97.3,36.5,97.3,35.4z"/>
</g>
<rect x="119.7" y="14.8" width="0.5" height="16.4"/>
<g>
	<path d="M113.2,32.9c0-1.8,2.5-3.5,4.5-3.5c1.3,0,2.3,0.7,2.3,1.7c0,1.7-2.5,3.5-4.6,3.5C114.2,34.6,113.2,34,113.2,32.9z"/>
</g>
<rect x="135.6" y="13.3" width="0.5" height="15.5"/>
<g>
	<path d="M129.2,30.4c0-1.8,2.5-3.5,4.5-3.5c1.3,0,2.3,0.7,2.3,1.7c0,1.7-2.5,3.5-4.6,3.5C130.2,32.1,129.2,31.5,129.2,30.4z"/>
</g>
<rect x="151.6" y="11.6" width="0.5" height="14.7"/>
<g>
	<path d="M145.2,27.9c0-1.8,2.5-3.5,4.5-3.5c1.3,0,2.3,0.7,2.3,1.7c0,1.7-2.5,3.5-4.6,3.5C146.2,29.7,145.2,29,145.2,27.9z"/>
</g>
<rect x="167.6" y="9.9" width="0.5" height="14"/>
<g>
	<path d="M161.1,25.5c0-1.8,2.5-3.5,4.5-3.5c1.3,0,2.3,0.7,2.3,1.7c0,1.7-2.5,3.5-4.6,3.5C162.1,27.2,161.1,26.5,161.1,25.5z"/>
</g>
<rect x="177" y="22.9" width="0.5" height="16.4"/>
<g>
	<path d="M177.1,23c0-1.8,2.5-3.5,4.5-3.5c1.3,0,2.3,0.7,2.3,1.7c0,1.7-2.5,3.5-4.6,3.5C178.1,24.7,177.1,24.1,177.1,23z"/>
</g>
<rect x="193" y="20.4" width="0.5" height="17.4"/>
<g>
	<path d="M193.1,20.5c0-1.8,2.5-3.5,4.5-3.5c1.3,0,2.3,0.7,2.3,1.7c0,1.7-2.5,3.5-4.6,3.5C194.1,22.2,193.1,21.6,193.1,20.5z"/>
</g>
<rect x="209" y="17.9" width="0.5" height="18.1"/>
<g>
	<path d="M209,18c0-1.8,2.5-3.5,4.5-3.5c1.3,0,2.3,0.7,2.3,1.7c0,1.7-2.5,3.5-4.6,3.5C210,19.7,209,19.1,209,18z"/>
</g>
<rect x="224.9" y="15.5" width="0.5" height="18.9"/>
<g>
	<path d="M225,15.5c0-1.8,2.5-3.5,4.5-3.5c1.3,0,2.3,0.7,2.3,1.7c0,1.7-2.5,3.5-4.6,3.5C226,17.3,225,16.6,225,15.5z"/>
</g>
<rect x="240.9" y="13" width="0.5" height="17.7"/>
<g>
	<path d="M241,13c0-1.8,2.5-3.5,4.5-3.5c1.3,0,2.3,0.7,2.3,1.7c0,1.7-2.5,3.5-4.6,3.5C242,14.8,241,14.1,241,13z"/>
</g>
<rect x="256.9" y="10.5" width="0.5" height="19.8"/>
<g>
	<path d="M256.9,10.6c0-1.8,2.5-3.5,4.5-3.5c1.3,0,2.3,0.7,2.3,1.7c0,1.7-2.5,3.5-4.6,3.5C257.9,12.3,256.9,11.7,256.9,10.6z"/>
</g>
<rect x="272.8" y="8" width="0.5" height="21.9"/>
<g>
	<path d="M272.9,8.1c0-1.8,2.5-3.5,4.5-3.5c1.3,0,2.3,0.7,2.3,1.7c0,1.7-2.5,3.5-4.6,3.5C273.9,9.8,272.9,9.2,272.9,8.1z"/>
</g>
<rect x="288.8" y="10.5" width="0.5" height="18.9"/>
<g>
	<path d="M288.9,10.6c0-1.8,2.5-3.5,4.5-3.5c1.3,0,2.3,0.7,2.3,1.7c0,1.7-2.5,3.5-4.6,3.5C289.9,12.3,288.9,11.7,288.9,10.6z"/>
</g>
<rect x="304.8" y="13" width="0.5" height="16.4"/>
<g>
	<path d="M304.8,13c0-1.8,2.5-3.5,4.5-3.5c1.3,0,2.3,0.7,2.3,1.7c0,1.7-2.5,3.5-4.6,3.5C305.8,14.8,304.8,14.1,304.8,13z"/>
</g>
<rect x="320.7" y="15.5" width="0.5" height="15.5"/>
<g>
	<path d="M320.8,15.5c0-1.8,2.5-3.5,4.5-3.5c1.3,0,2.3,0.7,2.3,1.7c0,1.7-2.5,3.5-4.6,3.5C321.8,17.3,320.8,16.6,320.8,15.5z"/>
</g>
<rect x="336.7" y="17.9" width="0.5" height="14.7"/>
<g>
	<path d="M336.8,18c0-1.8,2.5-3.5,4.5-3.5c1.3,0,2.3,0.7,2.3,1.7c0,1.7-2.5,3.5-4.6,3.5C337.8,19.7,336.8,19.1,336.8,18z"/>
</g>
<rect x="352.7" y="20.4" width="0.5" height="14"/>
<g>
	<path d="M352.7,20.5c0-1.8,2.5-3.5,4.5-3.5c1.3,0,2.3,0.7,2.3,1.7c0,1.7-2.5,3.5-4.6,3.5C353.7,22.2,352.7,21.6,352.7,20.5z"/>
</g>
<rect x="375.1" y="4.9" width="0.5" height="16.4"/>
<g>
	<path d="M368.7,23c0-1.8,2.5-3.5,4.5-3.5c1.3,0,2.3,0.7,2.3,1.7c0,1.7-2.5,3.5-4.6,3.5C369.7,24.7,368.7,24.1,368.7,23z"/>
</g>
<rect x="391.1" y="6.5" width="0.5" height="17.4"/>
<g>
	<path d="M384.7,25.5c0-1.8,2.5-3.5,4.5-3.5c1.3,0,2.3,0.7,2.3,1.7c0,1.7-2.5,3.5-4.6,3.5C385.7,27.2,384.7,26.5,384.7,25.5z"/>
</g>
<rect x="407.1" y="8.2" width="0.5" height="18.1"/>
<g>
	<path d="M400.6,27.9c0-1.8,2.5-3.5,4.5-3.5c1.3,0,2.3,0.7,2.3,1.7c0,1.7-2.5,3.5-4.6,3.5C401.6,29.7,400.6,29,400.6,27.9z"/>
</g>
<rect x="423" y="9.9" width="0.5" height="18.9"/>
<g>
	<path d="M416.6,30.4c0-1.8,2.5-3.5,4.5-3.5c1.3,0,2.3,0.7,2.3,1.7c0,1.7-2.5,3.5-4.6,3.5C417.6,32.1,416.6,31.5,416.6,30.4z"/>
</g>
<rect x="439" y="14.8" width="0.5" height="16.4"/>
<g>
	<path d="M432.6,32.9c0-1.8,2.5-3.5,4.5-3.5c1.3,0,2.3,0.7,2.3,1.7c0,1.7-2.5,3.5-4.6,3.5C433.6,34.6,432.6,34,432.6,32.9z"/>
</g>
<rect x="446.5" y="34.1" width="10.5" height="0.8"/>
<rect x="454.8" y="16.4" width="0.5" height="17.4"/>
<g>
	<path d="M448.4,35.4c0-1.8,2.5-3.5,4.5-3.5c1.3,0,2.3,0.7,2.3,1.7c0,1.7-2.5,3.5-4.6,3.5C449.4,37.1,448.4,36.5,448.4,35.4z"/>
</g>
<rect x="462.5" y="34.1" width="10.5" height="0.8"/>
<rect x="470.8" y="18.1" width="0.5" height="18.1"/>
<g>
	<path d="M464.4,37.9c0-1.8,2.5-3.5,4.5-3.5c1.3,0,2.3,0.7,2.3,1.7c0,1.7-2.5,3.5-4.6,3.5C465.3,39.6,464.4,38.9,464.4,37.9z"/>
</g>
<rect x="478.5" y="34.1" width="10.5" height="0.8"/>
<rect x="478.5" y="39.1" width="10.5" height="0.8"/>
<rect x="486.8" y="19.8" width="0.5" height="18.9"/>
<g>
	<path d="M480.3,40.3c0-1.8,2.5-3.5,4.5-3.5c1.3,0,2.3,0.7,2.3,1.7c0,1.7-2.5,3.5-4.6,3.5C481.3,42.1,480.3,41.4,480.3,40.3z"/>
</g>
<rect x="494.4" y="34.1" width="10.7" height="0.8"/>
<rect x="494.4" y="39.1" width="10.7" height="0.8"/>
<rect x="502.9" y="19.6" width="0.5" height="21.5"/>
<g>
	<path d="M500.6,39.3c1.6,0,2.7,0.7,2.7,2c0,1.9-2.3,3.4-4.5,3.4c-1.3,0-2.4-0.7-2.4-1.8C496.3,41,498.5,39.3,500.6,39.3z
		 M496.7,43.1c0,0.6,0.4,0.9,1.1,0.9c1.4,0,4.9-2.1,4.9-3.3c0-0.6-0.4-0.9-1.1-0.9C500.4,39.9,496.7,41.9,496.7,43.1z"/>
</g>
<rect x="55.8" y="57" width="0.5" height="18.9"/>
<g>
	<path d="M49.4,77.5c0-1.8,2.5-3.5,4.5-3.5c1.3,0,2.3,0.7,2.3,1.7c0,1.7-2.5,3.5-4.6,3.5C50.4,79.3,49.4,78.6,49.4,77.5z"/>
</g>
<rect x="71.8" y="55.4" width="0.5" height="18"/>
<g>
	<path d="M65.4,75.1c0-1.8,2.5-3.5,4.5-3.5c1.3,0,2.3,0.7,2.3,1.7c0,1.7-2.5,3.5-4.6,3.5C66.3,76.8,65.4,76.1,65.4,75.1z"/>
</g>
<rect x="87.8" y="53.7" width="0.5" height="17.2"/>
<g>
	<path d="M81.3,72.6c0-1.8,2.5-3.5,4.5-3.5c1.3,0,2.3,0.7,2.3,1.7c0,1.7-2.5,3.5-4.6,3.5C82.3,74.3,81.3,73.7,81.3,72.6z"/>
</g>
<rect x="103.7" y="52" width="0.5" height="16.4"/>
<g>
	<path d="M97.3,70.1c0-1.8,2.5-3.5,4.5-3.5c1.3,0,2.3,0.7,2.3,1.7c0,1.7-2.5,3.5-4.6,3.5C98.3,71.8,97.3,71.2,97.3,70.1z"/>
</g>
<rect x="113.2" y="67.5" width="0.5" height="14"/>
<g>
	<path d="M113.2,67.6c0-1.8,2.5-3.5,4.5-3.5c1.3,0,2.3,0.7,2.3,1.7c0,1.7-2.5,3.5-4.6,3.5C114.2,69.3,113.2,68.7,113.2,67.6z"/>
</g>
<rect x="129.1" y="65.1" width="0.5" height="14.9"/>
<g>
	<path d="M129.2,65.1c0-1.8,2.5-3.5,4.5-3.5c1.3,0,2.3,0.7,2.3,1.7c0,1.7-2.5,3.5-4.6,3.5C130.2,66.9,129.2,66.2,129.2,65.1z"/>
</g>
<rect x="145.1" y="62.6" width="0.5" height="15.7"/>
<g>
	<path d="M145.2,62.7c0-1.8,2.5-3.5,4.5-3.5c1.3,0,2.3,0.7,2.3,1.7c0,1.7-2.5,3.5-4.6,3.5C146.2,64.4,145.2,63.7,145.2,62.7z"/>
</g>
<rect x="161.1" y="60.1" width="0.5" height="16.4"/>
<g>
	<path d="M161.1,60.2c0-1.8,2.5-3.5,4.5-3.5c1.3,0,2.3,0.7,2.3,1.7c0,1.7-2.5,3.5-4.6,3.5C162.1,61.9,161.1,61.3,161.1,60.2z"/>
</g>
<rect x="177" y="57.6" width="0.5" height="14"/>
<g>
	<path d="M177.1,57.7c0-1.8,2.5-3.5,4.5-3.5c1.3,0,2.3,0.7,2.3,1.7c0,1.7-2.5,3.5-4.6,3.5C178.1,59.4,177.1,58.8,177.1,57.7z"/>
</g>
<rect x="193" y="55.1" width="0.5" height="14.9"/>
<g>
	<path d="M193.1,55.2c0-1.8,2.5-3.5,4.5-3.5c1.3,0,2.3,0.7,2.3,1.7c0,1.7-2.5,3.5-4.6,3.5C194.1,56.9,193.1,56.3,193.1,55.2z"/>
</g>
<rect x="207.2" y="51.5" width="10.5" height="0.8"/>
<rect x="209" y="52.7" width="0.5" height="15.7"/>
<g>
	<path d="M209,52.7c0-1.8,2.5-3.5,4.5-3.5c1.3,0,2.3,0.7,2.3,1.7c0,1.7-2.5,3.5-4.6,3.5C210,54.5,209,53.8,209,52.7z"/>
</g>
<rect x="223.2" y="51.5" width="10.5" height="0.8"/>
<rect x="224.9" y="50.2" width="0.5" height="16.4"/>
<g>
	<path d="M225,50.3c0-1.8,2.5-3.5,4.5-3.5c1.3,0,2.3,0.7,2.3,1.7c0,1.7-2.5,3.5-4.6,3.5C226,52,225,51.3,225,50.3z"/>
</g>
<rect x="239.1" y="51.5" width="10.5" height="0.8"/>
<rect x="239.1" y="46.5" width="10.5" height="0.8"/>
<rect x="240.9" y="47.7" width="0.5" height="20.2"/>
<g>
	<path d="M241,47.8c0-1.8,2.5-3.5,4.5-3.5c1.3,0,2.3,0.7,2.3,1.7c0,1.7-2.5,3.5-4.6,3.5C242,49.5,241,48.9,241,47.8z"/>
</g>
<rect x="255.1" y="51.5" width="10.5" height="0.8"/>
<rect x="255.1" y="46.5" width="10.5" height="0.8"/>
<rect x="256.9" y="45.2" width="0.5" height="22.3"/>
<g>
	<path d="M256.9,45.3c0-1.8,2.5-3.5,4.5-3.5c1.3,0,2.3,0.7,2.3,1.7c0,1.7-2.5,3.5-4.6,3.5C257.9,47,256.9,46.4,256.9,45.3z"/>
</g>
<rect x="271.1" y="51.5" width="10.5" height="0.8"/>
<rect x="271.1" y="46.5" width="10.5" height="0.8"/>
<rect x="271.1" y="41.6" width="10.5" height="0.8"/>
<rect x="272.8" y="42.7" width="0.5" height="24.3"/>
<g>
	<path d="M272.9,42.8c0-1.8,2.5-3.5,4.5-3.5c1.3,0,2.3,0.7,2.3,1.7c0,1.7-2.5,3.5-4.6,3.5C273.9,44.5,272.9,43.9,272.9,42.8z"/>
</g>
<rect x="287" y="51.5" width="10.5" height="0.8"/>
<rect x="287" y="46.5" width="10.5" height="0.8"/>
<rect x="288.8" y="45.2" width="0.5" height="21.4"/>
<g>
	<path d="M288.9,45.3c0-1.8,2.5-3.5,4.5-3.5c1.3,0,2.3,0.7,2.3,1.7c0,1.7-2.5,3.5-4.6,3.5C289.9,47,288.9,46.4,288.9,45.3z"/>
</g>
<rect x="303" y="51.5" width="10.5" height="0.8"/>
<rect x="303" y="46.5" width="10.5" height="0.8"/>
<rect x="304.8" y="47.7" width="0.5" height="18.9"/>
<g>
	<path d="M304.8,47.8c0-1.8,2.5-3.5,4.5-3.5c1.3,0,2.3,0.7,2.3,1.7c0,1.7-2.5,3.5-4.6,3.5C305.8,49.5,304.8,48.9,304.8,47.8z"/>
</g>
<rect x="319" y="51.5" width="10.5" height="0.8"/>
<rect x="320.7" y="50.2" width="0.5" height="18"/>
<g>
	<path d="M320.8,50.3c0-1.8,2.5-3.5,4.5-3.5c1.3,0,2.3,0.7,2.3,1.7c0,1.7-2.5,3.5-4.6,3.5C321.8,52,320.8,51.3,320.8,50.3z"/>
</g>
<rect x="334.9" y="51.5" width="10.5" height="0.8"/>
<rect x="336.7" y="52.7" width="0.5" height="17.2"/>
<g>
	<path d="M336.8,52.7c0-1.8,2.5-3.5,4.5-3.5c1.3,0,2.3,0.7,2.3,1.7c0,1.7-2.5,3.5-4.6,3.5C337.8,54.5,336.8,53.8,336.8,52.7z"/>
</g>
<rect x="352.7" y="55.1" width="0.5" height="16.4"/>
<g>
	<path d="M352.7,55.2c0-1.8,2.5-3.5,4.5-3.5c1.3,0,2.3,0.7,2.3,1.7c0,1.7-2.5,3.5-4.6,3.5C353.7,56.9,352.7,56.3,352.7,55.2z"/>
</g>
<rect x="368.6" y="57.6" width="0.5" height="18.9"/>
<g>
	<path d="M368.7,57.7c0-1.8,2.5-3.5,4.5-3.5c1.3,0,2.3,0.7,2.3,1.7c0,1.7-2.5,3.5-4.6,3.5C369.7,59.4,368.7,58.8,368.7,57.7z"/>
</g>
<rect x="384.6" y="60.1" width="0.5" height="18"/>
<g>
	<path d="M384.7,60.2c0-1.8,2.5-3.5,4.5-3.5c1.3,0,2.3,0.7,2.3,1.7c0,1.7-2.5,3.5-4.6,3.5C385.7,61.9,384.7,61.3,384.7,60.2z"/>
</g>
<rect x="400.6" y="62.6" width="0.5" height="17.2"/>
<g>
	<path d="M400.6,62.7c0-1.8,2.5-3.5,4.5-3.5c1.3,0,2.3,0.7,2.3,1.7c0,1.7-2.5,3.5-4.6,3.5C401.6,64.4,400.6,63.7,400.6,62.7z"/>
</g>
<rect x="416.5" y="65.1" width="0.5" height="16.4"/>
<g>
	<path d="M416.6,65.1c0-1.8,2.5-3.5,4.5-3.5c1.3,0,2.3,0.7,2.3,1.7c0,1.7-2.5,3.5-4.6,3.5C417.6,66.9,416.6,66.2,416.6,65.1z"/>
</g>
<rect x="439" y="52" width="0.5" height="14"/>
<g>
	<path d="M432.6,67.6c0-1.8,2.5-3.5,4.5-3.5c1.3,0,2.3,0.7,2.3,1.7c0,1.7-2.5,3.5-4.6,3.5C433.6,69.3,432.6,68.7,432.6,67.6z"/>
</g>
<rect x="454.8" y="53.6" width="0.5" height="14.9"/>
<g>
	<path d="M448.4,70.1c0-1.8,2.5-3.5,4.5-3.5c1.3,0,2.3,0.7,2.3,1.7c0,1.7-2.5,3.5-4.6,3.5C449.4,71.8,448.4,71.2,448.4,70.1z"/>
</g>
<rect x="470.8" y="55.3" width="0.5" height="15.7"/>
<g>
	<path d="M464.4,72.6c0-1.8,2.5-3.5,4.5-3.5c1.3,0,2.3,0.7,2.3,1.7c0,1.7-2.5,3.5-4.6,3.5C465.3,74.3,464.4,73.7,464.4,72.6z"/>
</g>
<rect x="486.8" y="57" width="0.5" height="16.4"/>
<g>
	<path d="M480.3,75.1c0-1.8,2.5-3.5,4.5-3.5c1.3,0,2.3,0.7,2.3,1.7c0,1.7-2.5,3.5-4.6,3.5C481.3,76.8,480.3,76.1,480.3,75.1z"/>
</g>
<rect x="502.9" y="59.3" width="0.5" height="16.6"/>
<g>
	<path d="M500.6,74c1.6,0,2.7,0.7,2.7,2c0,1.9-2.3,3.4-4.5,3.4c-1.3,0-2.4-0.7-2.4-1.8C496.3,75.8,498.5,74,500.6,74z M496.7,77.8
		c0,0.6,0.4,0.9,1.1,0.9c1.4,0,4.9-2.1,4.9-3.3c0-0.6-0.4-0.9-1.1-0.9C500.4,74.6,496.7,76.6,496.7,77.8z"/>
</g>
</svg>
