<?xml version="1.0" encoding="utf-8"?>

<!--
	ScaleBook
	Copyright (c) Leland Jansen 2015. All rights reserved.
-->

<!DOCTYPE svg PUBLIC "-//W3C//DTD SVG 1.1//EN" "http://www.w3.org/Graphics/SVG/1.1/DTD/svg11.dtd">
<svg version="1.1" id="Layer_1" xmlns="http://www.w3.org/2000/svg" xmlns:xlink="http://www.w3.org/1999/xlink" x="0px" y="0px"
	 viewBox="0 0 552.9 86.7" enable-background="new 0 0 552.9 86.7" xml:space="preserve">
<rect x="8.4" y="9.7" width="0.8" height="67"/>
<g>
	<path d="M7.4,10.4c-1.9,1.1-3.6,5.8-3.6,9.4c0,2.3,1.4,9.9,1.4,12.3c0,5-1.5,8.6-4.6,11.1c3,2.4,4.6,6.1,4.6,11.1
		c0,2.3-1.4,9.9-1.4,12.3c0,3.8,1.7,8.4,3.6,9.5v0.7c-3.5-2.3-5.8-8.2-5.8-13.1c0-2.1,1.7-9.4,1.7-11.5c0-3.8-1-6.6-2.9-8.2
		C0.1,43.6,0,43.4,0,43.2c0-0.2,0.1-0.4,0.5-0.7c1.9-1.7,2.9-4.2,2.9-7.6c0-2.1-1.7-10-1.7-12.2c0-5.2,2.1-10.4,5.8-13.1V10.4z"/>
</g>
<rect x="547.8" y="9.7" width="0.8" height="67"/>
<rect x="550.4" y="9.7" width="2.5" height="67"/>
<rect x="8.5" y="29.3" width="544.4" height="0.5"/>
<rect x="8.5" y="24.4" width="544.4" height="0.5"/>
<rect x="8.5" y="19.4" width="544.4" height="0.5"/>
<rect x="8.5" y="14.4" width="544.4" height="0.5"/>
<rect x="8.5" y="9.5" width="544.4" height="0.5"/>
<g>
	<path d="M20.3,29.4c-4.2,0-8.1-3.1-8.1-6.9c0-3.2,2.3-6.7,6.8-10.5c-0.3-1.2-0.4-2.4-0.4-3.6c0-3.5,1.2-6.8,3.2-8.5
		c1.8,2.5,2.7,4.9,2.7,7.1c0,2.9-1.3,5.6-4.3,8.1l0.9,4.2c0.5,0,0.8-0.1,0.8-0.1c2.6,0,4.8,2,4.8,4.7c0,1.9-1.4,3.7-3.6,4.8
		c0-0.1,0.9,3.8,0.9,4.3c0,2.5-2.3,4.2-4.9,4.2c-2,0-3.6-1.3-3.6-3.4c0-1.4,1-2.6,2.4-2.6c1.3,0,2.3,1.3,2.3,2.5
		c0,1.4-1.2,2.3-2.7,2.5c0.6,0.3,1.2,0.5,1.9,0.5c2.1,0,4.1-1.6,4.1-3.6c0-0.2,0-0.4-0.1-0.6l-0.8-3.7
		C21.9,29.3,21.2,29.4,20.3,29.4z M18.1,24.2c0,1,0.5,1.9,1.6,2.5c-1.8-0.3-3-1.4-3-3.1c0-2,1.7-3.7,3.8-4.1l-0.8-4
		C16,18.3,14,21,14,23.6c0,2.9,2.8,5.3,6,5.3c0.9,0,1.7-0.2,2.4-0.5L21,21.6C19.4,21.8,18.1,22.8,18.1,24.2z M22.1,2.8
		c-1.6,0-2.9,3.7-2.9,7c0,0.7,0,1.3,0.2,1.9c2.7-2.4,4-4.5,4-6.5c0-0.9-0.3-1.7-1-2.4C22.4,2.9,22.3,2.8,22.1,2.8z M24.9,24.7
		c0-1.6-1.2-3.3-2.9-3.3c-0.1,0-0.2,0-0.5,0l1.4,6.6C24.2,27.2,24.9,26,24.9,24.7z"/>
</g>
<g>
	<path d="M29.5,11.3h0.6L30,17.6c0.4-0.7,1-1,1.8-1c1.2,0,2.2,0.8,2.2,1.9c0,0.8-0.5,1.8-1.7,2.7l-2.8,2.1V11.3z M30.1,18.2
		C30,19,30,19.6,30,20.2c0,1,0,1.6,0.1,2c1-0.7,2.4-2.6,2.4-3.7c0-0.6-0.5-1.1-1.1-1.1C30.8,17.4,30.4,17.7,30.1,18.2z"/>
</g>
<g>
	<path d="M35.1,3.9h0.6l-0.1,6.2c0.4-0.7,1-1,1.8-1c1.2,0,2.2,0.8,2.2,1.9c0,0.8-0.5,1.8-1.7,2.7l-2.8,2.1V3.9z M35.7,10.8
		c-0.1,0.8-0.1,1.4-0.1,1.9c0,1,0,1.6,0.1,2c1-0.7,2.4-2.6,2.4-3.7c0-0.6-0.5-1.1-1.1-1.1C36.4,10,36,10.2,35.7,10.8z"/>
</g>
<g>
	<path d="M40.7,13.8h0.6l-0.1,6.2c0.4-0.7,1-1,1.8-1c1.2,0,2.2,0.8,2.2,1.9c0,0.8-0.5,1.8-1.7,2.7l-2.8,2.1V13.8z M41.3,20.7
		c-0.1,0.8-0.1,1.4-0.1,1.9c0,1,0,1.6,0.1,2c1-0.7,2.4-2.6,2.4-3.7c0-0.6-0.5-1.1-1.1-1.1C42,19.9,41.6,20.2,41.3,20.7z"/>
</g>
<g>
	<path d="M46.3,6.4h0.6l-0.1,6.2c0.4-0.7,1-1,1.8-1c1.2,0,2.2,0.8,2.2,1.9c0,0.8-0.5,1.8-1.7,2.7l-2.8,2.1V6.4z M46.9,13.3
		c-0.1,0.8-0.1,1.4-0.1,1.9c0,1,0,1.6,0.1,2c1-0.7,2.4-2.6,2.4-3.7c0-0.6-0.5-1.1-1.1-1.1C47.6,12.4,47.2,12.7,46.9,13.3z"/>
</g>
<g>
	<path d="M51.9,16.3h0.6l-0.1,6.2c0.4-0.7,1-1,1.8-1c1.2,0,2.2,0.8,2.2,1.9c0,0.8-0.5,1.8-1.7,2.7l-2.8,2.1V16.3z M52.4,23.2
		c-0.1,0.8-0.1,1.4-0.1,1.9c0,1,0,1.6,0.1,2c1-0.7,2.4-2.6,2.4-3.7c0-0.6-0.5-1.1-1.1-1.1C53.2,22.4,52.7,22.6,52.4,23.2z"/>
</g>
<polygon fill-rule="evenodd" clip-rule="evenodd" points="71.6,25.8 115.7,20.9 115.7,18.4 71.6,23.4 "/>
<polygon fill-rule="evenodd" clip-rule="evenodd" points="71.6,22.1 115.7,17.2 115.7,14.7 71.6,19.6 "/>
<polygon fill-rule="evenodd" clip-rule="evenodd" points="130.5,15.9 174.5,11 174.5,8.5 130.5,13.4 "/>
<polygon fill-rule="evenodd" clip-rule="evenodd" points="130.5,12.2 174.5,7.2 174.5,4.8 130.5,9.7 "/>
<polygon fill-rule="evenodd" clip-rule="evenodd" points="194.3,30.8 238.5,25.8 238.5,23.4 194.3,28.3 "/>
<polygon fill-rule="evenodd" clip-rule="evenodd" points="194.3,34.5 238.5,29.6 238.5,27.1 194.3,32 "/>
<polygon fill-rule="evenodd" clip-rule="evenodd" points="253.2,22.1 297.4,20.9 297.4,18.4 253.2,19.6 "/>
<polygon fill-rule="evenodd" clip-rule="evenodd" points="253.2,25.8 297.4,24.6 297.4,22.1 253.2,23.4 "/>
<polygon fill-rule="evenodd" clip-rule="evenodd" points="312.1,25.8 356.3,30.8 356.3,28.3 312.1,23.4 "/>
<polygon fill-rule="evenodd" clip-rule="evenodd" points="312.1,29.6 356.3,34.5 356.3,32 312.1,27.1 "/>
<polygon fill-rule="evenodd" clip-rule="evenodd" points="389.2,11 433.2,15.9 433.2,13.4 389.2,8.5 "/>
<polygon fill-rule="evenodd" clip-rule="evenodd" points="389.2,7.2 433.2,12.2 433.2,9.7 389.2,4.8 "/>
<polygon fill-rule="evenodd" clip-rule="evenodd" points="447.9,20.9 492.1,25.8 492.1,23.4 447.9,18.4 "/>
<polygon fill-rule="evenodd" clip-rule="evenodd" points="447.9,17.2 492.1,22.1 492.1,19.6 447.9,14.7 "/>
<rect x="8.5" y="76.4" width="544.4" height="0.5"/>
<rect x="8.5" y="71.5" width="544.4" height="0.5"/>
<rect x="8.5" y="66.5" width="544.4" height="0.5"/>
<rect x="8.5" y="61.6" width="544.4" height="0.5"/>
<rect x="8.5" y="56.6" width="544.4" height="0.5"/>
<g>
	<path d="M15.7,71c2.9-2.6,4.7-6.1,4.7-9.2c0-2.5-1.4-4.4-3.7-4.4c-1.6,0-3.4,1.3-3.4,2.7c0,0.2,0,0.3,0.1,0.3
		c-0.1,0,0.6-0.6,1.4-0.6c0.9,0,1.5,0.8,1.5,1.7c0,1.2-0.9,2.2-2.1,2.2c-1.2,0-2.1-1.3-2.1-2.8c0-2.3,2.3-4.1,4.8-4.1
		c4.7,0,5.9,3.2,5.9,5.8c0,1.6-0.4,2.9-2,5.3c-1.9,3.1-6.4,5.3-8.1,5.3c-0.4,0-0.6-0.2-0.6-0.5C13.8,72.3,14.9,71.7,15.7,71z
		 M25.7,58.3c0.6,0,1,0.4,1,1c0,0.6-0.4,1-1,1s-1-0.4-1-1C24.7,58.8,25.1,58.3,25.7,58.3z M25.7,63.3c0.6,0,1,0.4,1,1
		c0,0.6-0.4,1-1,1s-1-0.4-1-1C24.7,63.7,25.1,63.3,25.7,63.3z"/>
</g>
<g>
	<path d="M29.5,63.4h0.6L30,69.7c0.4-0.7,1-1,1.8-1c1.2,0,2.2,0.8,2.2,1.9c0,0.8-0.5,1.8-1.7,2.7l-2.8,2.1V63.4z M30.1,70.3
		C30,71.1,30,71.7,30,72.3c0,1,0,1.6,0.1,2c1-0.7,2.4-2.6,2.4-3.7c0-0.6-0.5-1.1-1.1-1.1C30.8,69.5,30.4,69.8,30.1,70.3z"/>
</g>
<g>
	<path d="M35.1,56h0.6l-0.1,6.2c0.4-0.7,1-1,1.8-1c1.2,0,2.2,0.8,2.2,1.9c0,0.8-0.5,1.8-1.7,2.7l-2.8,2.1V56z M35.7,62.9
		c-0.1,0.8-0.1,1.4-0.1,1.9c0,1,0,1.6,0.1,2c1-0.7,2.4-2.6,2.4-3.7c0-0.6-0.5-1.1-1.1-1.1C36.4,62,36,62.3,35.7,62.9z"/>
</g>
<g>
	<path d="M40.7,65.9h0.6l-0.1,6.2c0.4-0.7,1-1,1.8-1c1.2,0,2.2,0.8,2.2,1.9c0,0.8-0.5,1.8-1.7,2.7l-2.8,2.1V65.9z M41.3,72.8
		c-0.1,0.8-0.1,1.4-0.1,1.9c0,1,0,1.6,0.1,2c1-0.7,2.4-2.6,2.4-3.7c0-0.6-0.5-1.1-1.1-1.1C42,72,41.6,72.2,41.3,72.8z"/>
</g>
<g>
	<path d="M46.3,58.4h0.6l-0.1,6.2c0.4-0.7,1-1,1.8-1c1.2,0,2.2,0.8,2.2,1.9c0,0.8-0.5,1.8-1.7,2.7l-2.8,2.1V58.4z M46.9,65.4
		c-0.1,0.8-0.1,1.4-0.1,1.9c0,1,0,1.6,0.1,2c1-0.7,2.4-2.6,2.4-3.7c0-0.6-0.5-1.1-1.1-1.1C47.6,64.5,47.2,64.8,46.9,65.4z"/>
</g>
<g>
	<path d="M51.9,68.4h0.6l-0.1,6.2c0.4-0.7,1-1,1.8-1c1.2,0,2.2,0.8,2.2,1.9c0,0.8-0.5,1.8-1.7,2.7l-2.8,2.1V68.4z M52.4,75.3
		c-0.1,0.8-0.1,1.4-0.1,1.9c0,1,0,1.6,0.1,2c1-0.7,2.4-2.6,2.4-3.7c0-0.6-0.5-1.1-1.1-1.1C53.2,74.4,52.7,74.7,52.4,75.3z"/>
</g>
<polygon fill-rule="evenodd" clip-rule="evenodd" points="71.6,63 115.7,58.1 115.7,55.6 71.6,60.6 "/>
<polygon fill-rule="evenodd" clip-rule="evenodd" points="71.6,59.3 115.7,54.4 115.7,51.9 71.6,56.8 "/>
<g>
	<path d="M186.3,75.3c-3.2,0-6.1-2.3-6.1-5.1c0-2.4,1.7-5,5.1-7.9c-0.2-0.9-0.3-1.8-0.3-2.7c0-2.6,0.9-5.1,2.4-6.3
		c1.4,1.9,2,3.7,2,5.3c0,2.2-1,4.2-3.2,6.1l0.7,3.1c0.4,0,0.6,0,0.6,0c2,0,3.6,1.5,3.6,3.5c0,1.4-1.1,2.8-2.7,3.6
		c0-0.1,0.6,2.8,0.6,3.3c0,1.9-1.7,3.2-3.7,3.2c-1.5,0-2.7-1-2.7-2.5c0-1.1,0.7-1.9,1.8-1.9c1,0,1.7,1,1.7,1.9c0,1-0.9,1.7-2,1.8
		c0.4,0.2,0.9,0.3,1.4,0.3c1.6,0,3.1-1.2,3.1-2.7c0-0.1,0-0.3,0-0.5L188,75C187.5,75.2,187,75.3,186.3,75.3z M184.7,71.4
		c0,0.8,0.4,1.4,1.2,1.9c-1.3-0.2-2.2-1.1-2.2-2.3c0-1.5,1.3-2.8,2.9-3.1l-0.6-3c-2.8,2.1-4.3,4.1-4.3,6.1c0,2.2,2.1,4,4.5,4
		c0.7,0,1.3-0.1,1.8-0.4l-1.1-5.1C185.6,69.6,184.7,70.4,184.7,71.4z M187.7,55.4c-1.2,0-2.2,2.8-2.2,5.3c0,0.5,0,1,0.1,1.4
		c2-1.8,3-3.4,3-4.9c0-0.7-0.3-1.3-0.7-1.8C187.9,55.4,187.8,55.4,187.7,55.4z M189.8,71.8c0-1.2-0.9-2.4-2.2-2.4c0,0-0.2,0-0.4,0
		l1.1,5C189.2,73.7,189.8,72.8,189.8,71.8z"/>
</g>
<polygon fill-rule="evenodd" clip-rule="evenodd" points="123.9,77.9 168,73 168,70.5 123.9,75.4 "/>
<polygon fill-rule="evenodd" clip-rule="evenodd" points="123.9,81.6 168,76.7 168,74.2 123.9,79.2 "/>
<polygon fill-rule="evenodd" clip-rule="evenodd" points="200.8,73 245,68 245,65.5 200.8,70.5 "/>
<polygon fill-rule="evenodd" clip-rule="evenodd" points="200.8,69.2 245,64.3 245,61.8 200.8,66.8 "/>
<rect x="259.7" y="55.6" fill-rule="evenodd" clip-rule="evenodd" width="44.2" height="2.5"/>
<rect x="259.7" y="51.9" fill-rule="evenodd" clip-rule="evenodd" width="44.2" height="2.5"/>
<g>
	<path d="M373.1,68.7c2.2-2,3.6-4.6,3.6-6.9c0-1.9-1.1-3.3-2.8-3.3c-1.2,0-2.5,1-2.5,2.1c0,0.2,0,0.2,0.1,0.2c0,0,0.4-0.5,1-0.5
		c0.7,0,1.2,0.6,1.2,1.3c0,0.9-0.6,1.7-1.6,1.7s-1.5-1-1.5-2.1c0-1.8,1.7-3.1,3.6-3.1c3.5,0,4.4,2.4,4.4,4.4c0,1.2-0.3,2.2-1.5,4
		c-1.4,2.3-4.8,4-6,4c-0.3,0-0.5-0.1-0.5-0.3C371.6,69.7,372.5,69.2,373.1,68.7z M380.5,59.2c0.4,0,0.7,0.3,0.7,0.7
		c0,0.4-0.3,0.7-0.7,0.7c-0.4,0-0.7-0.3-0.7-0.7C379.8,59.5,380.1,59.2,380.5,59.2z M380.5,62.9c0.4,0,0.7,0.3,0.7,0.7
		s-0.3,0.7-0.7,0.7c-0.4,0-0.7-0.3-0.7-0.7S380.1,62.9,380.5,62.9z"/>
</g>
<polygon fill-rule="evenodd" clip-rule="evenodd" points="318.6,63 362.8,68 362.8,65.5 318.6,60.6 "/>
<polygon fill-rule="evenodd" clip-rule="evenodd" points="318.6,59.3 362.8,64.3 362.8,61.8 318.6,56.8 "/>
<polygon fill-rule="evenodd" clip-rule="evenodd" points="382.7,68 426.7,73 426.7,70.5 382.7,65.5 "/>
<polygon fill-rule="evenodd" clip-rule="evenodd" points="382.7,71.7 426.7,76.7 426.7,74.2 382.7,69.2 "/>
<polygon fill-rule="evenodd" clip-rule="evenodd" points="447.9,53.1 492.1,58.1 492.1,55.6 447.9,50.6 "/>
<polygon fill-rule="evenodd" clip-rule="evenodd" points="447.9,49.4 492.1,54.4 492.1,51.9 447.9,46.9 "/>
<rect x="63" y="34.1" width="10.5" height="0.8"/>
<rect x="63" y="39.1" width="10.5" height="0.8"/>
<rect x="71.3" y="19.8" width="0.5" height="18.9"/>
<g>
	<path d="M64.9,40.3c0-1.8,2.5-3.5,4.5-3.5c1.3,0,2.3,0.7,2.3,1.7c0,1.7-2.5,3.5-4.6,3.5C65.9,42.1,64.9,41.4,64.9,40.3z"/>
</g>
<rect x="77.8" y="34.1" width="10.5" height="0.8"/>
<rect x="86" y="18.2" width="0.5" height="18"/>
<g>
	<path d="M79.6,37.9c0-1.8,2.5-3.5,4.5-3.5c1.3,0,2.3,0.7,2.3,1.7c0,1.7-2.5,3.5-4.6,3.5C80.6,39.6,79.6,38.9,79.6,37.9z"/>
</g>
<rect x="92.5" y="34.1" width="10.5" height="0.8"/>
<rect x="100.8" y="16.5" width="0.5" height="17.2"/>
<g>
	<path d="M94.3,35.4c0-1.8,2.5-3.5,4.5-3.5c1.3,0,2.3,0.7,2.3,1.7c0,1.7-2.5,3.5-4.6,3.5C95.3,37.1,94.3,36.5,94.3,35.4z"/>
</g>
<rect x="115.5" y="14.8" width="0.5" height="16.4"/>
<g>
	<path d="M109.1,32.9c0-1.8,2.5-3.5,4.5-3.5c1.3,0,2.3,0.7,2.3,1.7c0,1.7-2.5,3.5-4.6,3.5C110,34.6,109.1,34,109.1,32.9z"/>
</g>
<rect x="130.2" y="9.9" width="0.5" height="18.9"/>
<g>
	<path d="M123.8,30.4c0-1.8,2.5-3.5,4.5-3.5c1.3,0,2.3,0.7,2.3,1.7c0,1.7-2.5,3.5-4.6,3.5C124.8,32.1,123.8,31.5,123.8,30.4z"/>
</g>
<rect x="145" y="8.3" width="0.5" height="18"/>
<g>
	<path d="M138.5,27.9c0-1.8,2.5-3.5,4.5-3.5c1.3,0,2.3,0.7,2.3,1.7c0,1.7-2.5,3.5-4.6,3.5C139.5,29.7,138.5,29,138.5,27.9z"/>
</g>
<rect x="159.7" y="6.6" width="0.5" height="17.2"/>
<g>
	<path d="M153.2,25.5c0-1.8,2.5-3.5,4.5-3.5c1.3,0,2.3,0.7,2.3,1.7c0,1.7-2.5,3.5-4.6,3.5C154.2,27.2,153.2,26.5,153.2,25.5z"/>
</g>
<rect x="174.2" y="4.9" width="0.5" height="16.4"/>
<g>
	<path d="M167.8,23c0-1.8,2.5-3.5,4.5-3.5c1.3,0,2.3,0.7,2.3,1.7c0,1.7-2.5,3.5-4.6,3.5C168.8,24.7,167.8,24.1,167.8,23z"/>
</g>
<rect x="194.1" y="20.4" width="0.5" height="14"/>
<g>
	<path d="M194.2,20.5c0-1.8,2.5-3.5,4.5-3.5c1.3,0,2.3,0.7,2.3,1.7c0,1.7-2.5,3.5-4.6,3.5C195.1,22.2,194.2,21.6,194.2,20.5z"/>
</g>
<rect x="208.8" y="17.9" width="0.5" height="14.9"/>
<g>
	<path d="M208.9,18c0-1.8,2.5-3.5,4.5-3.5c1.3,0,2.3,0.7,2.3,1.7c0,1.7-2.5,3.5-4.6,3.5C209.9,19.7,208.9,19.1,208.9,18z"/>
</g>
<rect x="223.5" y="15.5" width="0.5" height="15.7"/>
<g>
	<path d="M223.6,15.5c0-1.8,2.5-3.5,4.5-3.5c1.3,0,2.3,0.7,2.3,1.7c0,1.7-2.5,3.5-4.6,3.5C224.6,17.3,223.6,16.6,223.6,15.5z"/>
</g>
<rect x="238.3" y="13" width="0.5" height="16.4"/>
<g>
	<path d="M238.3,13c0-1.8,2.5-3.5,4.5-3.5c1.3,0,2.3,0.7,2.3,1.7c0,1.7-2.5,3.5-4.6,3.5C239.3,14.8,238.3,14.1,238.3,13z"/>
</g>
<rect x="253" y="10.5" width="0.5" height="15.2"/>
<g>
	<path d="M253.1,10.6c0-1.8,2.5-3.5,4.5-3.5c1.3,0,2.3,0.7,2.3,1.7c0,1.7-2.5,3.5-4.6,3.5C254,12.3,253.1,11.7,253.1,10.6z"/>
</g>
<rect x="267.7" y="8" width="0.5" height="17.4"/>
<g>
	<path d="M267.8,8.1c0-1.8,2.5-3.5,4.5-3.5c1.3,0,2.3,0.7,2.3,1.7c0,1.7-2.5,3.5-4.6,3.5C268.8,9.8,267.8,9.2,267.8,8.1z"/>
</g>
<rect x="280.7" y="4.4" width="10.5" height="0.8"/>
<rect x="282.4" y="5.5" width="0.5" height="19.4"/>
<g>
	<path d="M282.5,5.6c0-1.8,2.5-3.5,4.5-3.5c1.3,0,2.3,0.7,2.3,1.7c0,1.7-2.5,3.5-4.6,3.5C283.5,7.3,282.5,6.7,282.5,5.6z"/>
</g>
<rect x="297.2" y="8" width="0.5" height="16.4"/>
<g>
	<path d="M297.3,8.1c0-1.8,2.5-3.5,4.5-3.5c1.3,0,2.3,0.7,2.3,1.7c0,1.7-2.5,3.5-4.6,3.5C298.2,9.8,297.3,9.2,297.3,8.1z"/>
</g>
<rect x="311.9" y="10.5" width="0.5" height="18.9"/>
<g>
	<path d="M312,10.6c0-1.8,2.5-3.5,4.5-3.5c1.3,0,2.3,0.7,2.3,1.7c0,1.7-2.5,3.5-4.6,3.5C313,12.3,312,11.7,312,10.6z"/>
</g>
<rect x="326.6" y="13" width="0.5" height="18"/>
<g>
	<path d="M326.7,13c0-1.8,2.5-3.5,4.5-3.5c1.3,0,2.3,0.7,2.3,1.7c0,1.7-2.5,3.5-4.6,3.5C327.7,14.8,326.7,14.1,326.7,13z"/>
</g>
<rect x="341.4" y="15.5" width="0.5" height="17.2"/>
<g>
	<path d="M341.4,15.5c0-1.8,2.5-3.5,4.5-3.5c1.3,0,2.3,0.7,2.3,1.7c0,1.7-2.5,3.5-4.6,3.5C342.4,17.3,341.4,16.6,341.4,15.5z"/>
</g>
<rect x="356.1" y="17.9" width="0.5" height="16.4"/>
<g>
	<path d="M356.2,18c0-1.8,2.5-3.5,4.5-3.5c1.3,0,2.3,0.7,2.3,1.7c0,1.7-2.5,3.5-4.6,3.5C357.1,19.7,356.2,19.1,356.2,18z"/>
</g>
<rect x="388.9" y="4.9" width="0.5" height="14"/>
<g>
	<path d="M382.5,20.5c0-1.8,2.5-3.5,4.5-3.5c1.3,0,2.3,0.7,2.3,1.7c0,1.7-2.5,3.5-4.6,3.5C383.5,22.2,382.5,21.6,382.5,20.5z"/>
</g>
<rect x="403.7" y="6.5" width="0.5" height="14.9"/>
<g>
	<path d="M397.2,23c0-1.8,2.5-3.5,4.5-3.5c1.3,0,2.3,0.7,2.3,1.7c0,1.7-2.5,3.5-4.6,3.5C398.2,24.7,397.2,24.1,397.2,23z"/>
</g>
<rect x="418.4" y="8.2" width="0.5" height="15.7"/>
<g>
	<path d="M412,25.5c0-1.8,2.5-3.5,4.5-3.5c1.3,0,2.3,0.7,2.3,1.7c0,1.7-2.5,3.5-4.6,3.5C412.9,27.2,412,26.5,412,25.5z"/>
</g>
<rect x="433" y="9.9" width="0.5" height="16.4"/>
<g>
	<path d="M426.5,27.9c0-1.8,2.5-3.5,4.5-3.5c1.3,0,2.3,0.7,2.3,1.7c0,1.7-2.5,3.5-4.6,3.5C427.5,29.7,426.5,29,426.5,27.9z"/>
</g>
<rect x="447.7" y="14.8" width="0.5" height="14"/>
<g>
	<path d="M441.3,30.4c0-1.8,2.5-3.5,4.5-3.5c1.3,0,2.3,0.7,2.3,1.7c0,1.7-2.5,3.5-4.6,3.5C442.2,32.1,441.3,31.5,441.3,30.4z"/>
</g>
<rect x="462.4" y="16.4" width="0.5" height="14.9"/>
<g>
	<path d="M456,32.9c0-1.8,2.5-3.5,4.5-3.5c1.3,0,2.3,0.7,2.3,1.7c0,1.7-2.5,3.5-4.6,3.5C457,34.6,456,34,456,32.9z"/>
</g>
<rect x="468.9" y="34.1" width="10.5" height="0.8"/>
<rect x="477.1" y="18.1" width="0.5" height="15.7"/>
<g>
	<path d="M470.7,35.4c0-1.8,2.5-3.5,4.5-3.5c1.3,0,2.3,0.7,2.3,1.7c0,1.7-2.5,3.5-4.6,3.5C471.7,37.1,470.7,36.5,470.7,35.4z"/>
</g>
<rect x="483.6" y="34.1" width="10.5" height="0.8"/>
<rect x="491.9" y="19.8" width="0.5" height="16.4"/>
<g>
	<path d="M485.4,37.9c0-1.8,2.5-3.5,4.5-3.5c1.3,0,2.3,0.7,2.3,1.7c0,1.7-2.5,3.5-4.6,3.5C486.4,39.6,485.4,38.9,485.4,37.9z"/>
</g>
<rect x="498.3" y="34.1" width="10.7" height="0.8"/>
<rect x="498.3" y="39.1" width="10.7" height="0.8"/>
<rect x="506.8" y="19.6" width="0.5" height="19.1"/>
<g>
	<path d="M504.4,36.8c1.6,0,2.7,0.7,2.7,2c0,1.9-2.3,3.4-4.5,3.4c-1.3,0-2.4-0.7-2.4-1.8C500.2,38.6,502.4,36.8,504.4,36.8z
		 M500.6,40.6c0,0.6,0.4,0.9,1.1,0.9c1.4,0,4.9-2.1,4.9-3.3c0-0.6-0.4-0.9-1.1-0.9C504.3,37.4,500.6,39.4,500.6,40.6z"/>
</g>
<rect x="71.3" y="57" width="0.5" height="16.4"/>
<g>
	<path d="M64.9,75.1c0-1.8,2.5-3.5,4.5-3.5c1.3,0,2.3,0.7,2.3,1.7c0,1.7-2.5,3.5-4.6,3.5C65.9,76.8,64.9,76.1,64.9,75.1z"/>
</g>
<rect x="86" y="55.4" width="0.5" height="15.5"/>
<g>
	<path d="M79.6,72.6c0-1.8,2.5-3.5,4.5-3.5c1.3,0,2.3,0.7,2.3,1.7c0,1.7-2.5,3.5-4.6,3.5C80.6,74.3,79.6,73.7,79.6,72.6z"/>
</g>
<rect x="100.8" y="53.7" width="0.5" height="14.7"/>
<g>
	<path d="M94.3,70.1c0-1.8,2.5-3.5,4.5-3.5c1.3,0,2.3,0.7,2.3,1.7c0,1.7-2.5,3.5-4.6,3.5C95.3,71.8,94.3,71.2,94.3,70.1z"/>
</g>
<rect x="115.5" y="52" width="0.5" height="14"/>
<g>
	<path d="M109.1,67.6c0-1.8,2.5-3.5,4.5-3.5c1.3,0,2.3,0.7,2.3,1.7c0,1.7-2.5,3.5-4.6,3.5C110,69.3,109.1,68.7,109.1,67.6z"/>
</g>
<rect x="123.7" y="65.1" width="0.5" height="16.4"/>
<g>
	<path d="M123.8,65.1c0-1.8,2.5-3.5,4.5-3.5c1.3,0,2.3,0.7,2.3,1.7c0,1.7-2.5,3.5-4.6,3.5C124.8,66.9,123.8,66.2,123.8,65.1z"/>
</g>
<rect x="138.4" y="62.6" width="0.5" height="17.4"/>
<g>
	<path d="M138.5,62.7c0-1.8,2.5-3.5,4.5-3.5c1.3,0,2.3,0.7,2.3,1.7c0,1.7-2.5,3.5-4.6,3.5C139.5,64.4,138.5,63.7,138.5,62.7z"/>
</g>
<rect x="153.2" y="60.1" width="0.5" height="18.1"/>
<g>
	<path d="M153.2,60.2c0-1.8,2.5-3.5,4.5-3.5c1.3,0,2.3,0.7,2.3,1.7c0,1.7-2.5,3.5-4.6,3.5C154.2,61.9,153.2,61.3,153.2,60.2z"/>
</g>
<rect x="167.7" y="57.6" width="0.5" height="18.9"/>
<g>
	<path d="M167.8,57.7c0-1.8,2.5-3.5,4.5-3.5c1.3,0,2.3,0.7,2.3,1.7c0,1.7-2.5,3.5-4.6,3.5C168.8,59.4,167.8,58.8,167.8,57.7z"/>
</g>
<rect x="192.3" y="81.3" width="10.5" height="0.8"/>
<rect x="200.6" y="66.9" width="0.5" height="16.4"/>
<g>
	<path d="M194.2,85c0-1.8,2.5-3.5,4.5-3.5c1.3,0,2.3,0.7,2.3,1.7c0,1.7-2.5,3.5-4.6,3.5C195.1,86.7,194.2,86.1,194.2,85z"/>
</g>
<rect x="207" y="81.3" width="10.5" height="0.8"/>
<rect x="215.3" y="65.4" width="0.5" height="15.5"/>
<g>
	<path d="M208.9,82.5c0-1.8,2.5-3.5,4.5-3.5c1.3,0,2.3,0.7,2.3,1.7c0,1.7-2.5,3.5-4.6,3.5C209.9,84.2,208.9,83.6,208.9,82.5z"/>
</g>
<rect x="230.1" y="63.7" width="0.5" height="14.7"/>
<g>
	<path d="M223.6,80c0-1.8,2.5-3.5,4.5-3.5c1.3,0,2.3,0.7,2.3,1.7c0,1.7-2.5,3.5-4.6,3.5C224.6,81.7,223.6,81.1,223.6,80z"/>
</g>
<rect x="244.8" y="62" width="0.5" height="14"/>
<g>
	<path d="M238.3,77.5c0-1.8,2.5-3.5,4.5-3.5c1.3,0,2.3,0.7,2.3,1.7c0,1.7-2.5,3.5-4.6,3.5C239.3,79.3,238.3,78.6,238.3,77.5z"/>
</g>
<rect x="259.5" y="52" width="0.5" height="21.4"/>
<g>
	<path d="M253.1,75.1c0-1.8,2.5-3.5,4.5-3.5c1.3,0,2.3,0.7,2.3,1.7c0,1.7-2.5,3.5-4.6,3.5C254,76.8,253.1,76.1,253.1,75.1z"/>
</g>
<rect x="274.2" y="52" width="0.5" height="18.9"/>
<g>
	<path d="M267.8,72.6c0-1.8,2.5-3.5,4.5-3.5c1.3,0,2.3,0.7,2.3,1.7c0,1.7-2.5,3.5-4.6,3.5C268.8,74.3,267.8,73.7,267.8,72.6z"/>
</g>
<rect x="289" y="52" width="0.5" height="16.4"/>
<g>
	<path d="M282.5,70.1c0-1.8,2.5-3.5,4.5-3.5c1.3,0,2.3,0.7,2.3,1.7c0,1.7-2.5,3.5-4.6,3.5C283.5,71.8,282.5,71.2,282.5,70.1z"/>
</g>
<rect x="303.7" y="52" width="0.5" height="18.9"/>
<g>
	<path d="M297.3,72.6c0-1.8,2.5-3.5,4.5-3.5c1.3,0,2.3,0.7,2.3,1.7c0,1.7-2.5,3.5-4.6,3.5C298.2,74.3,297.3,73.7,297.3,72.6z"/>
</g>
<rect x="318.4" y="57" width="0.5" height="16.4"/>
<g>
	<path d="M312,75.1c0-1.8,2.5-3.5,4.5-3.5c1.3,0,2.3,0.7,2.3,1.7c0,1.7-2.5,3.5-4.6,3.5C313,76.8,312,76.1,312,75.1z"/>
</g>
<rect x="333.1" y="58.5" width="0.5" height="17.4"/>
<g>
	<path d="M326.7,77.5c0-1.8,2.5-3.5,4.5-3.5c1.3,0,2.3,0.7,2.3,1.7c0,1.7-2.5,3.5-4.6,3.5C327.7,79.3,326.7,78.6,326.7,77.5z"/>
</g>
<rect x="347.9" y="60.2" width="0.5" height="18.1"/>
<g>
	<path d="M341.4,80c0-1.8,2.5-3.5,4.5-3.5c1.3,0,2.3,0.7,2.3,1.7c0,1.7-2.5,3.5-4.6,3.5C342.4,81.7,341.4,81.1,341.4,80z"/>
</g>
<rect x="354.3" y="81.3" width="10.5" height="0.8"/>
<rect x="362.6" y="62" width="0.5" height="18.9"/>
<g>
	<path d="M356.2,82.5c0-1.8,2.5-3.5,4.5-3.5c1.3,0,2.3,0.7,2.3,1.7c0,1.7-2.5,3.5-4.6,3.5C357.1,84.2,356.2,83.6,356.2,82.5z"/>
</g>
<rect x="382.4" y="55.1" width="0.5" height="16.4"/>
<g>
	<path d="M382.5,55.2c0-1.8,2.5-3.5,4.5-3.5c1.3,0,2.3,0.7,2.3,1.7c0,1.7-2.5,3.5-4.6,3.5C383.5,56.9,382.5,56.3,382.5,55.2z"/>
</g>
<rect x="397.2" y="57.6" width="0.5" height="15.5"/>
<g>
	<path d="M397.2,57.7c0-1.8,2.5-3.5,4.5-3.5c1.3,0,2.3,0.7,2.3,1.7c0,1.7-2.5,3.5-4.6,3.5C398.2,59.4,397.2,58.8,397.2,57.7z"/>
</g>
<rect x="411.9" y="60.1" width="0.5" height="14.7"/>
<g>
	<path d="M412,60.2c0-1.8,2.5-3.5,4.5-3.5c1.3,0,2.3,0.7,2.3,1.7c0,1.7-2.5,3.5-4.6,3.5C412.9,61.9,412,61.3,412,60.2z"/>
</g>
<rect x="426.5" y="62.6" width="0.5" height="14"/>
<g>
	<path d="M426.5,62.7c0-1.8,2.5-3.5,4.5-3.5c1.3,0,2.3,0.7,2.3,1.7c0,1.7-2.5,3.5-4.6,3.5C427.5,64.4,426.5,63.7,426.5,62.7z"/>
</g>
<rect x="447.7" y="47.1" width="0.5" height="16.4"/>
<g>
	<path d="M441.3,65.1c0-1.8,2.5-3.5,4.5-3.5c1.3,0,2.3,0.7,2.3,1.7c0,1.7-2.5,3.5-4.6,3.5C442.2,66.9,441.3,66.2,441.3,65.1z"/>
</g>
<rect x="462.4" y="48.6" width="0.5" height="17.4"/>
<g>
	<path d="M456,67.6c0-1.8,2.5-3.5,4.5-3.5c1.3,0,2.3,0.7,2.3,1.7c0,1.7-2.5,3.5-4.6,3.5C457,69.3,456,68.7,456,67.6z"/>
</g>
<rect x="477.1" y="50.3" width="0.5" height="18.1"/>
<g>
	<path d="M470.7,70.1c0-1.8,2.5-3.5,4.5-3.5c1.3,0,2.3,0.7,2.3,1.7c0,1.7-2.5,3.5-4.6,3.5C471.7,71.8,470.7,71.2,470.7,70.1z"/>
</g>
<rect x="491.9" y="52" width="0.5" height="18.9"/>
<g>
	<path d="M485.4,72.6c0-1.8,2.5-3.5,4.5-3.5c1.3,0,2.3,0.7,2.3,1.7c0,1.7-2.5,3.5-4.6,3.5C486.4,74.3,485.4,73.7,485.4,72.6z"/>
</g>
<rect x="506.8" y="56.8" width="0.5" height="16.6"/>
<g>
	<path d="M504.4,71.5c1.6,0,2.7,0.7,2.7,2c0,1.9-2.3,3.4-4.5,3.4c-1.3,0-2.4-0.7-2.4-1.8C500.2,73.3,502.4,71.5,504.4,71.5z
		 M500.6,75.4c0,0.6,0.4,0.9,1.1,0.9c1.4,0,4.9-2.1,4.9-3.3c0-0.6-0.4-0.9-1.1-0.9C504.3,72.1,500.6,74.1,500.6,75.4z"/>
</g>
</svg>
