<?xml version="1.0" encoding="utf-8"?>

<!--
	ScaleBook
	Copyright (c) Leland Jansen 2015. All rights reserved.
-->

<!DOCTYPE svg PUBLIC "-//W3C//DTD SVG 1.1//EN" "http://www.w3.org/Graphics/SVG/1.1/DTD/svg11.dtd">
<svg version="1.1" id="Layer_1" xmlns="http://www.w3.org/2000/svg" xmlns:xlink="http://www.w3.org/1999/xlink" x="0px" y="0px"
	 viewBox="0 0 552.9 86.7" enable-background="new 0 0 552.9 86.7" xml:space="preserve">
<rect x="8.4" y="9.7" width="0.8" height="67"/>
<g>
	<path d="M7.4,10.4c-1.9,1.1-3.6,5.8-3.6,9.4c0,2.3,1.4,9.9,1.4,12.3c0,5-1.5,8.6-4.6,11.1c3,2.4,4.6,6.1,4.6,11.1
		c0,2.3-1.4,9.9-1.4,12.3c0,3.8,1.7,8.4,3.6,9.5v0.7c-3.5-2.3-5.8-8.2-5.8-13.1c0-2.1,1.7-9.4,1.7-11.5c0-3.8-1-6.6-2.9-8.2
		C0.1,43.6,0,43.4,0,43.2c0-0.2,0.1-0.4,0.5-0.7c1.9-1.7,2.9-4.2,2.9-7.6c0-2.1-1.7-10-1.7-12.2c0-5.2,2.1-10.4,5.8-13.1V10.4z"/>
</g>
<rect x="547.8" y="9.7" width="0.8" height="67"/>
<rect x="550.4" y="9.7" width="2.5" height="67"/>
<rect x="8.5" y="29.3" width="544.4" height="0.5"/>
<rect x="8.5" y="24.4" width="544.4" height="0.5"/>
<rect x="8.5" y="19.4" width="544.4" height="0.5"/>
<rect x="8.5" y="14.4" width="544.4" height="0.5"/>
<rect x="8.5" y="9.5" width="544.4" height="0.5"/>
<g>
	<path d="M20.3,29.4c-4.2,0-8.1-3.1-8.1-6.9c0-3.2,2.3-6.7,6.8-10.5c-0.3-1.2-0.4-2.4-0.4-3.6c0-3.5,1.2-6.8,3.2-8.5
		c1.8,2.5,2.7,4.9,2.7,7.1c0,2.9-1.3,5.6-4.3,8.1l0.9,4.2c0.5,0,0.8-0.1,0.8-0.1c2.6,0,4.8,2,4.8,4.7c0,1.9-1.4,3.7-3.6,4.8
		c0-0.1,0.9,3.8,0.9,4.3c0,2.5-2.3,4.2-4.9,4.2c-2,0-3.6-1.3-3.6-3.4c0-1.4,1-2.6,2.4-2.6c1.3,0,2.3,1.3,2.3,2.5
		c0,1.4-1.2,2.3-2.7,2.5c0.6,0.3,1.2,0.5,1.9,0.5c2.1,0,4.1-1.6,4.1-3.6c0-0.2,0-0.4-0.1-0.6l-0.8-3.7
		C21.9,29.3,21.2,29.4,20.3,29.4z M18.1,24.2c0,1,0.5,1.9,1.6,2.5c-1.8-0.3-3-1.4-3-3.1c0-2,1.7-3.7,3.8-4.1l-0.8-4
		C16,18.3,14,21,14,23.6c0,2.9,2.8,5.3,6,5.3c0.9,0,1.7-0.2,2.4-0.5L21,21.6C19.4,21.8,18.1,22.8,18.1,24.2z M22.1,2.8
		c-1.6,0-2.9,3.7-2.9,7c0,0.7,0,1.3,0.2,1.9c2.7-2.4,4-4.5,4-6.5c0-0.9-0.3-1.7-1-2.4C22.4,2.9,22.3,2.8,22.1,2.8z M24.9,24.7
		c0-1.6-1.2-3.3-2.9-3.3c-0.1,0-0.2,0-0.5,0l1.4,6.6C24.2,27.2,24.9,26,24.9,24.7z"/>
</g>
<g>
	<path d="M33.5,2.9v2.8l1-0.3v1.8l-1,0.3V11l1-0.3v1.8l-1,0.3v3.1H33v-3l-1.9,0.6v3h-0.5v-2.8l-1,0.3v-1.8l1-0.3V8.4l-1,0.3V7l1-0.3
		V3.5h0.5v3L33,5.9v-3H33.5z M33,7.7l-1.9,0.6v3.4l1.9-0.6V7.7z"/>
</g>
<g>
	<path d="M39.7,10.3v2.8l1-0.3v1.8l-1,0.3v3.4l1-0.3v1.8l-1,0.3v3.1h-0.5v-3L37.3,21v3h-0.5v-2.8l-1,0.3v-1.8l1-0.3v-3.4l-1,0.3
		v-1.8l1-0.3V11h0.5v3l1.9-0.6v-3H39.7z M39.2,15.1l-1.9,0.6v3.4l1.9-0.6V15.1z"/>
</g>
<polygon fill-rule="evenodd" clip-rule="evenodd" points="56,25.8 101.8,20.9 101.8,18.4 56,23.4 "/>
<polygon fill-rule="evenodd" clip-rule="evenodd" points="56,22.1 101.8,17.2 101.8,14.7 56,19.6 "/>
<polygon fill-rule="evenodd" clip-rule="evenodd" points="117,15.9 162.9,11 162.9,8.5 117,13.4 "/>
<polygon fill-rule="evenodd" clip-rule="evenodd" points="117,12.2 162.9,7.2 162.9,4.8 117,9.7 "/>
<polygon fill-rule="evenodd" clip-rule="evenodd" points="182.7,30.8 228.4,25.8 228.4,23.4 182.7,28.3 "/>
<polygon fill-rule="evenodd" clip-rule="evenodd" points="182.7,34.5 228.4,29.6 228.4,27.1 182.7,32 "/>
<polygon fill-rule="evenodd" clip-rule="evenodd" points="243.6,22.1 289.3,20.9 289.3,18.4 243.6,19.6 "/>
<polygon fill-rule="evenodd" clip-rule="evenodd" points="243.6,25.8 289.3,24.6 289.3,22.1 243.6,23.4 "/>
<polygon fill-rule="evenodd" clip-rule="evenodd" points="304.7,25.8 350.4,30.8 350.4,28.3 304.7,23.4 "/>
<polygon fill-rule="evenodd" clip-rule="evenodd" points="304.7,29.6 350.4,34.5 350.4,32 304.7,27.1 "/>
<polygon fill-rule="evenodd" clip-rule="evenodd" points="383.3,11 429,15.9 429,13.4 383.3,8.5 "/>
<polygon fill-rule="evenodd" clip-rule="evenodd" points="383.3,7.2 429,12.2 429,9.7 383.3,4.8 "/>
<polygon fill-rule="evenodd" clip-rule="evenodd" points="444.2,20.9 489.9,25.8 489.9,23.4 444.2,18.4 "/>
<polygon fill-rule="evenodd" clip-rule="evenodd" points="444.2,17.2 489.9,22.1 489.9,19.6 444.2,14.7 "/>
<rect x="8.5" y="76.4" width="544.4" height="0.5"/>
<rect x="8.5" y="71.5" width="544.4" height="0.5"/>
<rect x="8.5" y="66.5" width="544.4" height="0.5"/>
<rect x="8.5" y="61.6" width="544.4" height="0.5"/>
<rect x="8.5" y="56.6" width="544.4" height="0.5"/>
<g>
	<path d="M15.7,71c2.9-2.6,4.7-6.1,4.7-9.2c0-2.5-1.4-4.4-3.7-4.4c-1.6,0-3.4,1.3-3.4,2.7c0,0.2,0,0.3,0.1,0.3
		c-0.1,0,0.6-0.6,1.4-0.6c0.9,0,1.5,0.8,1.5,1.7c0,1.2-0.9,2.2-2.1,2.2c-1.2,0-2.1-1.3-2.1-2.8c0-2.3,2.3-4.1,4.8-4.1
		c4.7,0,5.9,3.2,5.9,5.8c0,1.6-0.4,2.9-2,5.3c-1.9,3.1-6.4,5.3-8.1,5.3c-0.4,0-0.6-0.2-0.6-0.5C13.8,72.3,14.9,71.7,15.7,71z
		 M25.7,58.3c0.6,0,1,0.4,1,1c0,0.6-0.4,1-1,1s-1-0.4-1-1C24.7,58.8,25.1,58.3,25.7,58.3z M25.7,63.3c0.6,0,1,0.4,1,1
		c0,0.6-0.4,1-1,1s-1-0.4-1-1C24.7,63.7,25.1,63.3,25.7,63.3z"/>
</g>
<g>
	<path d="M33.5,55v2.8l1-0.3v1.8l-1,0.3V63l1-0.3v1.8l-1,0.3V68H33v-3l-1.9,0.6v3h-0.5v-2.8l-1,0.3v-1.8l1-0.3v-3.4l-1,0.3v-1.8
		l1-0.3v-3.1h0.5v3L33,58v-3H33.5z M33,59.8l-1.9,0.6v3.4l1.9-0.6V59.8z"/>
</g>
<g>
	<path d="M39.7,62.4v2.8l1-0.3v1.8l-1,0.3v3.4l1-0.3V72l-1,0.3v3.1h-0.5v-3l-1.9,0.6v3h-0.5v-2.8l-1,0.3v-1.8l1-0.3V68l-1,0.3v-1.8
		l1-0.3v-3.1h0.5v3l1.9-0.6v-3H39.7z M39.2,67.2l-1.9,0.6v3.4l1.9-0.6V67.2z"/>
</g>
<polygon fill-rule="evenodd" clip-rule="evenodd" points="56,63 101.8,58.1 101.8,55.6 56,60.6 "/>
<polygon fill-rule="evenodd" clip-rule="evenodd" points="56,59.3 101.8,54.4 101.8,51.9 56,56.8 "/>
<g>
	<path d="M174.7,75.3c-3.2,0-6.1-2.3-6.1-5.1c0-2.4,1.7-5,5.1-7.9c-0.2-0.9-0.3-1.8-0.3-2.7c0-2.6,0.9-5.1,2.4-6.3
		c1.4,1.9,2,3.7,2,5.3c0,2.2-1,4.2-3.2,6.1l0.7,3.1c0.4,0,0.6,0,0.6,0c2,0,3.6,1.5,3.6,3.5c0,1.4-1.1,2.8-2.7,3.6
		c0-0.1,0.6,2.8,0.6,3.3c0,1.9-1.7,3.2-3.7,3.2c-1.5,0-2.7-1-2.7-2.5c0-1.1,0.7-1.9,1.8-1.9c1,0,1.7,1,1.7,1.9c0,1-0.9,1.7-2,1.8
		c0.4,0.2,0.9,0.3,1.4,0.3c1.6,0,3.1-1.2,3.1-2.7c0-0.1,0-0.3,0-0.5l-0.6-2.8C175.9,75.2,175.4,75.3,174.7,75.3z M173,71.4
		c0,0.8,0.4,1.4,1.2,1.9c-1.3-0.2-2.2-1.1-2.2-2.3c0-1.5,1.3-2.8,2.9-3.1l-0.6-3C171.5,67,170,69,170,71c0,2.2,2.1,4,4.5,4
		c0.7,0,1.3-0.1,1.8-0.4l-1.1-5.1C174,69.6,173,70.4,173,71.4z M176.1,55.4c-1.2,0-2.2,2.8-2.2,5.3c0,0.5,0,1,0.1,1.4
		c2-1.8,3-3.4,3-4.9c0-0.7-0.3-1.3-0.7-1.8C176.3,55.4,176.2,55.4,176.1,55.4z M178.1,71.8c0-1.2-0.9-2.4-2.2-2.4c0,0-0.2,0-0.4,0
		l1.1,5C177.6,73.7,178.1,72.8,178.1,71.8z"/>
</g>
<polygon fill-rule="evenodd" clip-rule="evenodd" points="110.5,77.9 156.3,73 156.3,70.5 110.5,75.4 "/>
<polygon fill-rule="evenodd" clip-rule="evenodd" points="110.5,81.6 156.3,76.7 156.3,74.2 110.5,79.2 "/>
<polygon fill-rule="evenodd" clip-rule="evenodd" points="189.2,73 234.9,68 234.9,65.5 189.2,70.5 "/>
<polygon fill-rule="evenodd" clip-rule="evenodd" points="189.2,69.2 234.9,64.3 234.9,61.8 189.2,66.8 "/>
<rect x="250.1" y="55.6" fill-rule="evenodd" clip-rule="evenodd" width="45.7" height="2.5"/>
<rect x="250.1" y="51.9" fill-rule="evenodd" clip-rule="evenodd" width="45.7" height="2.5"/>
<g>
	<path d="M367.2,68.7c2.2-2,3.6-4.6,3.6-6.9c0-1.9-1.1-3.3-2.8-3.3c-1.2,0-2.5,1-2.5,2.1c0,0.2,0,0.2,0.1,0.2c0,0,0.4-0.5,1-0.5
		c0.7,0,1.2,0.6,1.2,1.3c0,0.9-0.6,1.7-1.6,1.7s-1.5-1-1.5-2.1c0-1.8,1.7-3.1,3.6-3.1c3.5,0,4.4,2.4,4.4,4.4c0,1.2-0.3,2.2-1.5,4
		c-1.4,2.3-4.8,4-6,4c-0.3,0-0.5-0.1-0.5-0.3C365.7,69.7,366.6,69.2,367.2,68.7z M374.6,59.2c0.4,0,0.7,0.3,0.7,0.7
		c0,0.4-0.3,0.7-0.7,0.7c-0.4,0-0.7-0.3-0.7-0.7C373.9,59.5,374.2,59.2,374.6,59.2z M374.6,62.9c0.4,0,0.7,0.3,0.7,0.7
		s-0.3,0.7-0.7,0.7c-0.4,0-0.7-0.3-0.7-0.7S374.2,62.9,374.6,62.9z"/>
</g>
<polygon fill-rule="evenodd" clip-rule="evenodd" points="311.2,63 356.9,68 356.9,65.5 311.2,60.6 "/>
<polygon fill-rule="evenodd" clip-rule="evenodd" points="311.2,59.3 356.9,64.3 356.9,61.8 311.2,56.8 "/>
<polygon fill-rule="evenodd" clip-rule="evenodd" points="376.8,68 422.5,73 422.5,70.5 376.8,65.5 "/>
<polygon fill-rule="evenodd" clip-rule="evenodd" points="376.8,71.7 422.5,76.7 422.5,74.2 376.8,69.2 "/>
<polygon fill-rule="evenodd" clip-rule="evenodd" points="444.2,53.1 489.9,58.1 489.9,55.6 444.2,50.6 "/>
<polygon fill-rule="evenodd" clip-rule="evenodd" points="444.2,49.4 489.9,54.4 489.9,51.9 444.2,46.9 "/>
<rect x="47.5" y="34.1" width="10.5" height="0.8"/>
<rect x="47.5" y="39.1" width="10.5" height="0.8"/>
<rect x="55.8" y="19.8" width="0.5" height="18.9"/>
<g>
	<path d="M49.4,40.3c0-1.8,2.5-3.5,4.5-3.5c1.3,0,2.3,0.7,2.3,1.7c0,1.7-2.5,3.5-4.6,3.5C50.4,42.1,49.4,41.4,49.4,40.3z"/>
</g>
<rect x="62.7" y="34.1" width="10.5" height="0.8"/>
<rect x="71" y="18.2" width="0.5" height="18"/>
<g>
	<path d="M64.6,37.9c0-1.8,2.5-3.5,4.5-3.5c1.3,0,2.3,0.7,2.3,1.7c0,1.7-2.5,3.5-4.6,3.5C65.5,39.6,64.6,38.9,64.6,37.9z"/>
</g>
<rect x="78.1" y="34.1" width="10.5" height="0.8"/>
<rect x="86.4" y="16.5" width="0.5" height="17.2"/>
<g>
	<path d="M79.9,35.4c0-1.8,2.5-3.5,4.5-3.5c1.3,0,2.3,0.7,2.3,1.7c0,1.7-2.5,3.5-4.6,3.5C80.9,37.1,79.9,36.5,79.9,35.4z"/>
</g>
<rect x="101.5" y="14.8" width="0.5" height="16.4"/>
<g>
	<path d="M95.1,32.9c0-1.8,2.5-3.5,4.5-3.5c1.3,0,2.3,0.7,2.3,1.7c0,1.7-2.5,3.5-4.6,3.5C96.1,34.6,95.1,34,95.1,32.9z"/>
</g>
<rect x="116.7" y="9.9" width="0.5" height="18.9"/>
<g>
	<path d="M110.3,30.4c0-1.8,2.5-3.5,4.5-3.5c1.3,0,2.3,0.7,2.3,1.7c0,1.7-2.5,3.5-4.6,3.5C111.3,32.1,110.3,31.5,110.3,30.4z"/>
</g>
<rect x="132.1" y="8.3" width="0.5" height="18"/>
<g>
	<path d="M125.7,27.9c0-1.8,2.5-3.5,4.5-3.5c1.3,0,2.3,0.7,2.3,1.7c0,1.7-2.5,3.5-4.6,3.5C126.6,29.7,125.7,29,125.7,27.9z"/>
</g>
<rect x="147.3" y="6.6" width="0.5" height="17.2"/>
<g>
	<path d="M140.8,25.5c0-1.8,2.5-3.5,4.5-3.5c1.3,0,2.3,0.7,2.3,1.7c0,1.7-2.5,3.5-4.6,3.5C141.8,27.2,140.8,26.5,140.8,25.5z"/>
</g>
<rect x="162.6" y="4.9" width="0.5" height="16.4"/>
<g>
	<path d="M156.2,23c0-1.8,2.5-3.5,4.5-3.5c1.3,0,2.3,0.7,2.3,1.7c0,1.7-2.5,3.5-4.6,3.5C157.2,24.7,156.2,24.1,156.2,23z"/>
</g>
<rect x="182.5" y="20.4" width="0.5" height="14"/>
<g>
	<path d="M182.5,20.5c0-1.8,2.5-3.5,4.5-3.5c1.3,0,2.3,0.7,2.3,1.7c0,1.7-2.5,3.5-4.6,3.5C183.5,22.2,182.5,21.6,182.5,20.5z"/>
</g>
<rect x="197.7" y="17.9" width="0.5" height="14.9"/>
<g>
	<path d="M197.7,18c0-1.8,2.5-3.5,4.5-3.5c1.3,0,2.3,0.7,2.3,1.7c0,1.7-2.5,3.5-4.6,3.5C198.7,19.7,197.7,19.1,197.7,18z"/>
</g>
<rect x="212.8" y="15.5" width="0.5" height="15.7"/>
<g>
	<path d="M212.9,15.5c0-1.8,2.5-3.5,4.5-3.5c1.3,0,2.3,0.7,2.3,1.7c0,1.7-2.5,3.5-4.6,3.5C213.9,17.3,212.9,16.6,212.9,15.5z"/>
</g>
<rect x="228.2" y="13" width="0.5" height="16.4"/>
<g>
	<path d="M228.3,13c0-1.8,2.5-3.5,4.5-3.5c1.3,0,2.3,0.7,2.3,1.7c0,1.7-2.5,3.5-4.6,3.5C229.2,14.8,228.3,14.1,228.3,13z"/>
</g>
<rect x="243.4" y="10.5" width="0.5" height="15.2"/>
<g>
	<path d="M243.5,10.6c0-1.8,2.5-3.5,4.5-3.5c1.3,0,2.3,0.7,2.3,1.7c0,1.7-2.5,3.5-4.6,3.5C244.4,12.3,243.5,11.7,243.5,10.6z"/>
</g>
<rect x="258.6" y="8" width="0.5" height="17.4"/>
<g>
	<path d="M258.7,8.1c0-1.8,2.5-3.5,4.5-3.5c1.3,0,2.3,0.7,2.3,1.7c0,1.7-2.5,3.5-4.6,3.5C259.6,9.8,258.7,9.2,258.7,8.1z"/>
</g>
<rect x="272.1" y="4.4" width="10.5" height="0.8"/>
<rect x="273.9" y="5.5" width="0.5" height="19.4"/>
<g>
	<path d="M274,5.6c0-1.8,2.5-3.5,4.5-3.5c1.3,0,2.3,0.7,2.3,1.7c0,1.7-2.5,3.5-4.6,3.5C275,7.3,274,6.7,274,5.6z"/>
</g>
<rect x="289.1" y="8" width="0.5" height="16.4"/>
<g>
	<path d="M289.2,8.1c0-1.8,2.5-3.5,4.5-3.5c1.3,0,2.3,0.7,2.3,1.7c0,1.7-2.5,3.5-4.6,3.5C290.2,9.8,289.2,9.2,289.2,8.1z"/>
</g>
<rect x="304.5" y="10.5" width="0.5" height="18.9"/>
<g>
	<path d="M304.5,10.6c0-1.8,2.5-3.5,4.5-3.5c1.3,0,2.3,0.7,2.3,1.7c0,1.7-2.5,3.5-4.6,3.5C305.5,12.3,304.5,11.7,304.5,10.6z"/>
</g>
<rect x="319.7" y="13" width="0.5" height="18"/>
<g>
	<path d="M319.7,13c0-1.8,2.5-3.5,4.5-3.5c1.3,0,2.3,0.7,2.3,1.7c0,1.7-2.5,3.5-4.6,3.5C320.7,14.8,319.7,14.1,319.7,13z"/>
</g>
<rect x="334.8" y="15.5" width="0.5" height="17.2"/>
<g>
	<path d="M334.9,15.5c0-1.8,2.5-3.5,4.5-3.5c1.3,0,2.3,0.7,2.3,1.7c0,1.7-2.5,3.5-4.6,3.5C335.9,17.3,334.9,16.6,334.9,15.5z"/>
</g>
<rect x="350.2" y="17.9" width="0.5" height="16.4"/>
<g>
	<path d="M350.3,18c0-1.8,2.5-3.5,4.5-3.5c1.3,0,2.3,0.7,2.3,1.7c0,1.7-2.5,3.5-4.6,3.5C351.2,19.7,350.3,19.1,350.3,18z"/>
</g>
<rect x="383.1" y="4.9" width="0.5" height="14"/>
<g>
	<path d="M376.6,20.5c0-1.8,2.5-3.5,4.5-3.5c1.3,0,2.3,0.7,2.3,1.7c0,1.7-2.5,3.5-4.6,3.5C377.6,22.2,376.6,21.6,376.6,20.5z"/>
</g>
<rect x="398.2" y="6.5" width="0.5" height="14.9"/>
<g>
	<path d="M391.8,23c0-1.8,2.5-3.5,4.5-3.5c1.3,0,2.3,0.7,2.3,1.7c0,1.7-2.5,3.5-4.6,3.5C392.8,24.7,391.8,24.1,391.8,23z"/>
</g>
<rect x="413.4" y="8.2" width="0.5" height="15.7"/>
<g>
	<path d="M407,25.5c0-1.8,2.5-3.5,4.5-3.5c1.3,0,2.3,0.7,2.3,1.7c0,1.7-2.5,3.5-4.6,3.5C408,27.2,407,26.5,407,25.5z"/>
</g>
<rect x="428.8" y="9.9" width="0.5" height="16.4"/>
<g>
	<path d="M422.4,27.9c0-1.8,2.5-3.5,4.5-3.5c1.3,0,2.3,0.7,2.3,1.7c0,1.7-2.5,3.5-4.6,3.5C423.3,29.7,422.4,29,422.4,27.9z"/>
</g>
<rect x="444" y="14.8" width="0.5" height="14"/>
<g>
	<path d="M437.5,30.4c0-1.8,2.5-3.5,4.5-3.5c1.3,0,2.3,0.7,2.3,1.7c0,1.7-2.5,3.5-4.6,3.5C438.5,32.1,437.5,31.5,437.5,30.4z"/>
</g>
<rect x="459.2" y="16.4" width="0.5" height="14.9"/>
<g>
	<path d="M452.7,32.9c0-1.8,2.5-3.5,4.5-3.5c1.3,0,2.3,0.7,2.3,1.7c0,1.7-2.5,3.5-4.6,3.5C453.7,34.6,452.7,34,452.7,32.9z"/>
</g>
<rect x="466.2" y="34.1" width="10.5" height="0.8"/>
<rect x="474.5" y="18.1" width="0.5" height="15.7"/>
<g>
	<path d="M468.1,35.4c0-1.8,2.5-3.5,4.5-3.5c1.3,0,2.3,0.7,2.3,1.7c0,1.7-2.5,3.5-4.6,3.5C469.1,37.1,468.1,36.5,468.1,35.4z"/>
</g>
<rect x="481.4" y="34.1" width="10.5" height="0.8"/>
<rect x="489.7" y="19.8" width="0.5" height="16.4"/>
<g>
	<path d="M483.3,37.9c0-1.8,2.5-3.5,4.5-3.5c1.3,0,2.3,0.7,2.3,1.7c0,1.7-2.5,3.5-4.6,3.5C484.2,39.6,483.3,38.9,483.3,37.9z"/>
</g>
<rect x="496.8" y="34.1" width="10.7" height="0.8"/>
<rect x="496.8" y="39.1" width="10.7" height="0.8"/>
<rect x="505.2" y="19.6" width="0.5" height="19.1"/>
<g>
	<path d="M502.9,36.8c1.6,0,2.7,0.7,2.7,2c0,1.9-2.3,3.4-4.5,3.4c-1.3,0-2.4-0.7-2.4-1.8C498.6,38.6,500.9,36.8,502.9,36.8z
		 M499.1,40.6c0,0.6,0.4,0.9,1.1,0.9c1.4,0,4.9-2.1,4.9-3.3c0-0.6-0.4-0.9-1.1-0.9C502.7,37.4,499.1,39.4,499.1,40.6z"/>
</g>
<rect x="55.8" y="57" width="0.5" height="16.4"/>
<g>
	<path d="M49.4,75.1c0-1.8,2.5-3.5,4.5-3.5c1.3,0,2.3,0.7,2.3,1.7c0,1.7-2.5,3.5-4.6,3.5C50.4,76.8,49.4,76.1,49.4,75.1z"/>
</g>
<rect x="71" y="55.4" width="0.5" height="15.5"/>
<g>
	<path d="M64.6,72.6c0-1.8,2.5-3.5,4.5-3.5c1.3,0,2.3,0.7,2.3,1.7c0,1.7-2.5,3.5-4.6,3.5C65.5,74.3,64.6,73.7,64.6,72.6z"/>
</g>
<rect x="86.4" y="53.7" width="0.5" height="14.7"/>
<g>
	<path d="M79.9,70.1c0-1.8,2.5-3.5,4.5-3.5c1.3,0,2.3,0.7,2.3,1.7c0,1.7-2.5,3.5-4.6,3.5C80.9,71.8,79.9,71.2,79.9,70.1z"/>
</g>
<rect x="101.5" y="52" width="0.5" height="14"/>
<g>
	<path d="M95.1,67.6c0-1.8,2.5-3.5,4.5-3.5c1.3,0,2.3,0.7,2.3,1.7c0,1.7-2.5,3.5-4.6,3.5C96.1,69.3,95.1,68.7,95.1,67.6z"/>
</g>
<rect x="110.2" y="65.1" width="0.5" height="16.4"/>
<g>
	<path d="M110.3,65.1c0-1.8,2.5-3.5,4.5-3.5c1.3,0,2.3,0.7,2.3,1.7c0,1.7-2.5,3.5-4.6,3.5C111.3,66.9,110.3,66.2,110.3,65.1z"/>
</g>
<rect x="125.6" y="62.6" width="0.5" height="17.4"/>
<g>
	<path d="M125.7,62.7c0-1.8,2.5-3.5,4.5-3.5c1.3,0,2.3,0.7,2.3,1.7c0,1.7-2.5,3.5-4.6,3.5C126.6,64.4,125.7,63.7,125.7,62.7z"/>
</g>
<rect x="140.8" y="60.1" width="0.5" height="18.1"/>
<g>
	<path d="M140.8,60.2c0-1.8,2.5-3.5,4.5-3.5c1.3,0,2.3,0.7,2.3,1.7c0,1.7-2.5,3.5-4.6,3.5C141.8,61.9,140.8,61.3,140.8,60.2z"/>
</g>
<rect x="156.1" y="57.6" width="0.5" height="18.9"/>
<g>
	<path d="M156.2,57.7c0-1.8,2.5-3.5,4.5-3.5c1.3,0,2.3,0.7,2.3,1.7c0,1.7-2.5,3.5-4.6,3.5C157.2,59.4,156.2,58.8,156.2,57.7z"/>
</g>
<rect x="180.7" y="81.3" width="10.5" height="0.8"/>
<rect x="189" y="66.9" width="0.5" height="16.4"/>
<g>
	<path d="M182.5,85c0-1.8,2.5-3.5,4.5-3.5c1.3,0,2.3,0.7,2.3,1.7c0,1.7-2.5,3.5-4.6,3.5C183.5,86.7,182.5,86.1,182.5,85z"/>
</g>
<rect x="195.9" y="81.3" width="10.5" height="0.8"/>
<rect x="204.2" y="65.4" width="0.5" height="15.5"/>
<g>
	<path d="M197.7,82.5c0-1.8,2.5-3.5,4.5-3.5c1.3,0,2.3,0.7,2.3,1.7c0,1.7-2.5,3.5-4.6,3.5C198.7,84.2,197.7,83.6,197.7,82.5z"/>
</g>
<rect x="219.4" y="63.7" width="0.5" height="14.7"/>
<g>
	<path d="M212.9,80c0-1.8,2.5-3.5,4.5-3.5c1.3,0,2.3,0.7,2.3,1.7c0,1.7-2.5,3.5-4.6,3.5C213.9,81.7,212.9,81.1,212.9,80z"/>
</g>
<rect x="234.7" y="62" width="0.5" height="14"/>
<g>
	<path d="M228.3,77.5c0-1.8,2.5-3.5,4.5-3.5c1.3,0,2.3,0.7,2.3,1.7c0,1.7-2.5,3.5-4.6,3.5C229.2,79.3,228.3,78.6,228.3,77.5z"/>
</g>
<rect x="249.9" y="52" width="0.5" height="21.4"/>
<g>
	<path d="M243.5,75.1c0-1.8,2.5-3.5,4.5-3.5c1.3,0,2.3,0.7,2.3,1.7c0,1.7-2.5,3.5-4.6,3.5C244.4,76.8,243.5,76.1,243.5,75.1z"/>
</g>
<rect x="265.1" y="52" width="0.5" height="18.9"/>
<g>
	<path d="M258.7,72.6c0-1.8,2.5-3.5,4.5-3.5c1.3,0,2.3,0.7,2.3,1.7c0,1.7-2.5,3.5-4.6,3.5C259.6,74.3,258.7,73.7,258.7,72.6z"/>
</g>
<rect x="280.4" y="52" width="0.5" height="16.4"/>
<g>
	<path d="M274,70.1c0-1.8,2.5-3.5,4.5-3.5c1.3,0,2.3,0.7,2.3,1.7c0,1.7-2.5,3.5-4.6,3.5C275,71.8,274,71.2,274,70.1z"/>
</g>
<rect x="295.6" y="52" width="0.5" height="18.9"/>
<g>
	<path d="M289.2,72.6c0-1.8,2.5-3.5,4.5-3.5c1.3,0,2.3,0.7,2.3,1.7c0,1.7-2.5,3.5-4.6,3.5C290.2,74.3,289.2,73.7,289.2,72.6z"/>
</g>
<rect x="311" y="57" width="0.5" height="16.4"/>
<g>
	<path d="M304.5,75.1c0-1.8,2.5-3.5,4.5-3.5c1.3,0,2.3,0.7,2.3,1.7c0,1.7-2.5,3.5-4.6,3.5C305.5,76.8,304.5,76.1,304.5,75.1z"/>
</g>
<rect x="326.2" y="58.5" width="0.5" height="17.4"/>
<g>
	<path d="M319.7,77.5c0-1.8,2.5-3.5,4.5-3.5c1.3,0,2.3,0.7,2.3,1.7c0,1.7-2.5,3.5-4.6,3.5C320.7,79.3,319.7,78.6,319.7,77.5z"/>
</g>
<rect x="341.4" y="60.2" width="0.5" height="18.1"/>
<g>
	<path d="M334.9,80c0-1.8,2.5-3.5,4.5-3.5c1.3,0,2.3,0.7,2.3,1.7c0,1.7-2.5,3.5-4.6,3.5C335.9,81.7,334.9,81.1,334.9,80z"/>
</g>
<rect x="348.4" y="81.3" width="10.5" height="0.8"/>
<rect x="356.7" y="62" width="0.5" height="18.9"/>
<g>
	<path d="M350.3,82.5c0-1.8,2.5-3.5,4.5-3.5c1.3,0,2.3,0.7,2.3,1.7c0,1.7-2.5,3.5-4.6,3.5C351.2,84.2,350.3,83.6,350.3,82.5z"/>
</g>
<rect x="376.5" y="55.1" width="0.5" height="16.4"/>
<g>
	<path d="M376.6,55.2c0-1.8,2.5-3.5,4.5-3.5c1.3,0,2.3,0.7,2.3,1.7c0,1.7-2.5,3.5-4.6,3.5C377.6,56.9,376.6,56.3,376.6,55.2z"/>
</g>
<rect x="391.7" y="57.6" width="0.5" height="15.5"/>
<g>
	<path d="M391.8,57.7c0-1.8,2.5-3.5,4.5-3.5c1.3,0,2.3,0.7,2.3,1.7c0,1.7-2.5,3.5-4.6,3.5C392.8,59.4,391.8,58.8,391.8,57.7z"/>
</g>
<rect x="406.9" y="60.1" width="0.5" height="14.7"/>
<g>
	<path d="M407,60.2c0-1.8,2.5-3.5,4.5-3.5c1.3,0,2.3,0.7,2.3,1.7c0,1.7-2.5,3.5-4.6,3.5C408,61.9,407,61.3,407,60.2z"/>
</g>
<rect x="422.3" y="62.6" width="0.5" height="14"/>
<g>
	<path d="M422.4,62.7c0-1.8,2.5-3.5,4.5-3.5c1.3,0,2.3,0.7,2.3,1.7c0,1.7-2.5,3.5-4.6,3.5C423.3,64.4,422.4,63.7,422.4,62.7z"/>
</g>
<rect x="444" y="47.1" width="0.5" height="16.4"/>
<g>
	<path d="M437.5,65.1c0-1.8,2.5-3.5,4.5-3.5c1.3,0,2.3,0.7,2.3,1.7c0,1.7-2.5,3.5-4.6,3.5C438.5,66.9,437.5,66.2,437.5,65.1z"/>
</g>
<rect x="459.2" y="48.6" width="0.5" height="17.4"/>
<g>
	<path d="M452.7,67.6c0-1.8,2.5-3.5,4.5-3.5c1.3,0,2.3,0.7,2.3,1.7c0,1.7-2.5,3.5-4.6,3.5C453.7,69.3,452.7,68.7,452.7,67.6z"/>
</g>
<rect x="474.5" y="50.3" width="0.5" height="18.1"/>
<g>
	<path d="M468.1,70.1c0-1.8,2.5-3.5,4.5-3.5c1.3,0,2.3,0.7,2.3,1.7c0,1.7-2.5,3.5-4.6,3.5C469.1,71.8,468.1,71.2,468.1,70.1z"/>
</g>
<rect x="489.7" y="52" width="0.5" height="18.9"/>
<g>
	<path d="M483.3,72.6c0-1.8,2.5-3.5,4.5-3.5c1.3,0,2.3,0.7,2.3,1.7c0,1.7-2.5,3.5-4.6,3.5C484.2,74.3,483.3,73.7,483.3,72.6z"/>
</g>
<rect x="505.2" y="56.8" width="0.5" height="16.6"/>
<g>
	<path d="M502.9,71.5c1.6,0,2.7,0.7,2.7,2c0,1.9-2.3,3.4-4.5,3.4c-1.3,0-2.4-0.7-2.4-1.8C498.6,73.3,500.9,71.5,502.9,71.5z
		 M499.1,75.4c0,0.6,0.4,0.9,1.1,0.9c1.4,0,4.9-2.1,4.9-3.3c0-0.6-0.4-0.9-1.1-0.9C502.7,72.1,499.1,74.1,499.1,75.4z"/>
</g>
</svg>
