<?xml version="1.0" encoding="utf-8"?>

<!--
	ScaleBook
	Copyright (c) Leland Jansen 2015. All rights reserved.
-->

<!DOCTYPE svg PUBLIC "-//W3C//DTD SVG 1.1//EN" "http://www.w3.org/Graphics/SVG/1.1/DTD/svg11.dtd">
<svg version="1.1" id="Layer_1" xmlns="http://www.w3.org/2000/svg" xmlns:xlink="http://www.w3.org/1999/xlink" x="0px" y="0px"
	 viewBox="0 0 552.9 86.9" enable-background="new 0 0 552.9 86.9" xml:space="preserve">
<rect x="8.4" y="10" width="0.8" height="67"/>
<g>
	<path d="M7.4,10.7c-1.9,1.1-3.6,5.8-3.6,9.4c0,2.3,1.4,9.9,1.4,12.3c0,5-1.5,8.6-4.6,11.1c3,2.4,4.6,6.1,4.6,11.1
		c0,2.3-1.4,9.9-1.4,12.3c0,3.8,1.7,8.4,3.6,9.5V77c-3.5-2.3-5.8-8.2-5.8-13.1c0-2.1,1.7-9.4,1.7-11.5c0-3.8-1-6.6-2.9-8.2
		C0.1,43.9,0,43.7,0,43.5c0-0.2,0.1-0.4,0.5-0.7c1.9-1.7,2.9-4.2,2.9-7.6c0-2.1-1.7-10-1.7-12.2c0-5.2,2.1-10.4,5.8-13.1V10.7z"/>
</g>
<rect x="547.8" y="10" width="0.8" height="67"/>
<rect x="550.4" y="10" width="2.5" height="67"/>
<rect x="8.5" y="29.6" width="544.4" height="0.5"/>
<rect x="8.5" y="24.7" width="544.4" height="0.5"/>
<rect x="8.5" y="19.7" width="544.4" height="0.5"/>
<rect x="8.5" y="14.8" width="544.4" height="0.5"/>
<rect x="8.5" y="9.8" width="544.4" height="0.5"/>
<g>
	<path d="M20.3,29.7c-4.2,0-8.1-3.1-8.1-6.9c0-3.2,2.3-6.7,6.8-10.5c-0.3-1.2-0.4-2.4-0.4-3.6c0-3.5,1.2-6.8,3.2-8.5
		c1.8,2.5,2.7,4.9,2.7,7.1c0,2.9-1.3,5.6-4.3,8.1l0.9,4.2c0.5,0,0.8-0.1,0.8-0.1c2.6,0,4.8,2,4.8,4.7c0,1.9-1.4,3.7-3.6,4.8
		c0-0.1,0.9,3.8,0.9,4.3c0,2.5-2.3,4.2-4.9,4.2c-2,0-3.6-1.3-3.6-3.4c0-1.4,1-2.6,2.4-2.6c1.3,0,2.3,1.3,2.3,2.5
		c0,1.4-1.2,2.3-2.7,2.5c0.6,0.3,1.2,0.5,1.9,0.5c2.1,0,4.1-1.6,4.1-3.6c0-0.2,0-0.4-0.1-0.6l-0.8-3.7
		C21.9,29.6,21.2,29.7,20.3,29.7z M18.1,24.5c0,1,0.5,1.9,1.6,2.5c-1.8-0.3-3-1.4-3-3.1c0-2,1.7-3.7,3.8-4.1l-0.8-4
		C16,18.6,14,21.3,14,23.9c0,2.9,2.8,5.3,6,5.3c0.9,0,1.7-0.2,2.4-0.5L21,21.9C19.4,22.1,18.1,23.1,18.1,24.5z M22.1,3.2
		c-1.6,0-2.9,3.7-2.9,7c0,0.7,0,1.3,0.2,1.9c2.7-2.4,4-4.5,4-6.5c0-0.9-0.3-1.7-1-2.4C22.4,3.2,22.3,3.2,22.1,3.2z M24.9,25
		c0-1.6-1.2-3.3-2.9-3.3c-0.1,0-0.2,0-0.5,0l1.4,6.6C24.2,27.5,24.9,26.3,24.9,25z"/>
</g>
<g>
	<path d="M33.5,3.2v2.8l1-0.3v1.8l-1,0.3v3.4l1-0.3v1.8l-1,0.3v3.1H33v-3l-1.9,0.6v3h-0.5V14l-1,0.3v-1.8l1-0.3V8.8l-1,0.3V7.3
		l1-0.3V3.9h0.5v3L33,6.2v-3H33.5z M33,8l-1.9,0.6v3.4l1.9-0.6V8z"/>
</g>
<g>
	<path d="M39.7,10.7v2.8l1-0.3V15l-1,0.3v3.4l1-0.3v1.8l-1,0.3v3.1h-0.5v-3l-1.9,0.6v3h-0.5v-2.8l-1,0.3V20l1-0.3v-3.4l-1,0.3v-1.8
		l1-0.3v-3.1h0.5v3l1.9-0.6v-3H39.7z M39.2,15.4l-1.9,0.6v3.4l1.9-0.6V15.4z"/>
</g>
<g>
	<path d="M45.9,0.7v2.8l1-0.3V5l-1,0.3v3.4l1-0.3v1.8l-1,0.3v3.1h-0.5v-3l-1.9,0.6v3H43v-2.8l-1,0.3v-1.8l1-0.3V6.3l-1,0.3V4.8
		l1-0.3V1.4h0.5v3l1.9-0.6v-3H45.9z M45.4,5.5l-1.9,0.6v3.4l1.9-0.6V5.5z"/>
</g>
<g>
	<path d="M52.1,8.2V11l1-0.3v1.8l-1,0.3v3.4l1-0.3v1.8l-1,0.3v3.1h-0.5v-3l-1.9,0.6v3h-0.5V19l-1,0.3v-1.8l1-0.3v-3.4l-1,0.3v-1.8
		l1-0.3V8.8h0.5v3l1.9-0.6v-3H52.1z M51.6,13l-1.9,0.6V17l1.9-0.6V13z"/>
</g>
<polygon fill-rule="evenodd" clip-rule="evenodd" points="68.5,26.2 112.9,21.2 112.9,18.7 68.5,23.7 "/>
<polygon fill-rule="evenodd" clip-rule="evenodd" points="68.5,22.4 112.9,17.5 112.9,15 68.5,20 "/>
<polygon fill-rule="evenodd" clip-rule="evenodd" points="127.7,16.2 172.2,11.3 172.2,8.8 127.7,13.8 "/>
<polygon fill-rule="evenodd" clip-rule="evenodd" points="127.7,12.5 172.2,7.6 172.2,5.1 127.7,10 "/>
<polygon fill-rule="evenodd" clip-rule="evenodd" points="192,31.1 236.5,26.2 236.5,23.7 192,28.6 "/>
<polygon fill-rule="evenodd" clip-rule="evenodd" points="192,34.8 236.5,29.9 236.5,27.4 192,32.4 "/>
<polygon fill-rule="evenodd" clip-rule="evenodd" points="251.4,22.4 295.9,21.2 295.9,18.7 251.4,20 "/>
<polygon fill-rule="evenodd" clip-rule="evenodd" points="251.4,26.2 295.9,24.9 295.9,22.4 251.4,23.7 "/>
<polygon fill-rule="evenodd" clip-rule="evenodd" points="310.6,21.2 355.1,26.2 355.1,23.7 310.6,18.7 "/>
<polygon fill-rule="evenodd" clip-rule="evenodd" points="310.6,24.9 355.1,29.9 355.1,27.4 310.6,22.4 "/>
<polygon fill-rule="evenodd" clip-rule="evenodd" points="387.9,6.3 432.4,11.3 432.4,8.8 387.9,3.8 "/>
<polygon fill-rule="evenodd" clip-rule="evenodd" points="387.9,2.6 432.4,7.6 432.4,5.1 387.9,0.1 "/>
<polygon fill-rule="evenodd" clip-rule="evenodd" points="447.3,16.2 491.6,21.2 491.6,18.7 447.3,13.8 "/>
<polygon fill-rule="evenodd" clip-rule="evenodd" points="447.3,12.5 491.6,17.5 491.6,15 447.3,10 "/>
<rect x="8.5" y="76.8" width="544.4" height="0.5"/>
<rect x="8.5" y="71.8" width="544.4" height="0.5"/>
<rect x="8.5" y="66.8" width="544.4" height="0.5"/>
<rect x="8.5" y="61.9" width="544.4" height="0.5"/>
<rect x="8.5" y="56.9" width="544.4" height="0.5"/>
<g>
	<path d="M15.7,71.3c2.9-2.6,4.7-6.1,4.7-9.2c0-2.5-1.4-4.4-3.7-4.4c-1.6,0-3.4,1.3-3.4,2.7c0,0.2,0,0.3,0.1,0.3
		c-0.1,0,0.6-0.6,1.4-0.6c0.9,0,1.5,0.8,1.5,1.7c0,1.2-0.9,2.2-2.1,2.2c-1.2,0-2.1-1.3-2.1-2.8c0-2.3,2.3-4.1,4.8-4.1
		c4.7,0,5.9,3.2,5.9,5.8c0,1.6-0.4,2.9-2,5.3c-1.9,3.1-6.4,5.3-8.1,5.3c-0.4,0-0.6-0.2-0.6-0.5C13.8,72.6,14.9,72,15.7,71.3z
		 M25.7,58.7c0.6,0,1,0.4,1,1c0,0.6-0.4,1-1,1s-1-0.4-1-1C24.7,59.1,25.1,58.7,25.7,58.7z M25.7,63.6c0.6,0,1,0.4,1,1
		c0,0.6-0.4,1-1,1s-1-0.4-1-1C24.7,64,25.1,63.6,25.7,63.6z"/>
</g>
<g>
	<path d="M33.5,55.3v2.8l1-0.3v1.8l-1,0.3v3.4l1-0.3v1.8l-1,0.3v3.1H33v-3L31.1,66v3h-0.5v-2.8l-1,0.3v-1.8l1-0.3v-3.4l-1,0.3v-1.8
		l1-0.3v-3.1h0.5v3l1.9-0.6v-3H33.5z M33,60.1l-1.9,0.6v3.4l1.9-0.6V60.1z"/>
</g>
<g>
	<path d="M39.7,62.7v2.8l1-0.3V67l-1,0.3v3.4l1-0.3v1.8l-1,0.3v3.1h-0.5v-3l-1.9,0.6v3h-0.5v-2.8l-1,0.3v-1.8l1-0.3v-3.4l-1,0.3
		v-1.8l1-0.3v-3.1h0.5v3l1.9-0.6v-3H39.7z M39.2,67.5l-1.9,0.6v3.4l1.9-0.6V67.5z"/>
</g>
<g>
	<path d="M45.9,52.8v2.8l1-0.3v1.8l-1,0.3v3.4l1-0.3v1.8l-1,0.3v3.1h-0.5v-3l-1.9,0.6v3H43v-2.8l-1,0.3v-1.8l1-0.3v-3.4l-1,0.3v-1.8
		l1-0.3v-3.1h0.5v3l1.9-0.6v-3H45.9z M45.4,57.6l-1.9,0.6v3.4l1.9-0.6V57.6z"/>
</g>
<g>
	<path d="M52.1,60.3v2.8l1-0.3v1.8l-1,0.3v3.4l1-0.3v1.8l-1,0.3v3.1h-0.5v-3l-1.9,0.6v3h-0.5V71l-1,0.3v-1.8l1-0.3v-3.4l-1,0.3v-1.8
		l1-0.3v-3.1h0.5v3l1.9-0.6v-3H52.1z M51.6,65l-1.9,0.6v3.4l1.9-0.6V65z"/>
</g>
<polygon fill-rule="evenodd" clip-rule="evenodd" points="68.5,58.4 112.9,53.4 112.9,51 68.5,55.9 "/>
<polygon fill-rule="evenodd" clip-rule="evenodd" points="68.5,54.7 112.9,49.7 112.9,47.2 68.5,52.2 "/>
<g>
	<path d="M184,75.6c-3.2,0-6.1-2.3-6.1-5.1c0-2.4,1.7-5,5.1-7.9c-0.2-0.9-0.3-1.8-0.3-2.7c0-2.6,0.9-5.1,2.4-6.3
		c1.4,1.9,2,3.7,2,5.3c0,2.2-1,4.2-3.2,6.1l0.7,3.1c0.4,0,0.6,0,0.6,0c2,0,3.6,1.5,3.6,3.5c0,1.4-1.1,2.8-2.7,3.6
		c0-0.1,0.6,2.8,0.6,3.3c0,1.9-1.7,3.2-3.7,3.2c-1.5,0-2.7-1-2.7-2.5c0-1.1,0.7-1.9,1.8-1.9c1,0,1.7,1,1.7,1.9c0,1-0.9,1.7-2,1.8
		c0.4,0.2,0.9,0.3,1.4,0.3c1.6,0,3.1-1.2,3.1-2.7c0-0.1,0-0.3,0-0.5l-0.6-2.8C185.2,75.5,184.7,75.6,184,75.6z M182.3,71.7
		c0,0.8,0.4,1.4,1.2,1.9c-1.3-0.2-2.2-1.1-2.2-2.3c0-1.5,1.3-2.8,2.9-3.1l-0.6-3c-2.8,2.1-4.3,4.1-4.3,6.1c0,2.2,2.1,4,4.5,4
		c0.7,0,1.3-0.1,1.8-0.4l-1.1-5.1C183.3,69.9,182.3,70.7,182.3,71.7z M185.4,55.7c-1.2,0-2.2,2.8-2.2,5.3c0,0.5,0,1,0.1,1.4
		c2-1.8,3-3.4,3-4.9c0-0.7-0.3-1.3-0.7-1.8C185.6,55.7,185.5,55.7,185.4,55.7z M187.4,72.1c0-1.2-0.9-2.4-2.2-2.4c0,0-0.2,0-0.4,0
		l1.1,5C186.9,74,187.4,73.1,187.4,72.1z"/>
</g>
<polygon fill-rule="evenodd" clip-rule="evenodd" points="121.2,73.3 165.6,68.3 165.6,65.8 121.2,70.8 "/>
<polygon fill-rule="evenodd" clip-rule="evenodd" points="121.2,77 165.6,72 165.6,69.6 121.2,74.5 "/>
<polygon fill-rule="evenodd" clip-rule="evenodd" points="198.5,68.3 243,63.4 243,60.9 198.5,65.8 "/>
<polygon fill-rule="evenodd" clip-rule="evenodd" points="198.5,64.6 243,59.6 243,57.2 198.5,62.1 "/>
<rect x="257.9" y="54.7" fill-rule="evenodd" clip-rule="evenodd" width="44.5" height="2.5"/>
<rect x="257.9" y="51" fill-rule="evenodd" clip-rule="evenodd" width="44.5" height="2.5"/>
<g>
	<path d="M370,69c2.2-2,3.6-4.6,3.6-6.9c0-1.9-1.1-3.3-2.8-3.3c-1.2,0-2.5,1-2.5,2.1c0,0.2,0,0.2,0.1,0.2c0,0,0.4-0.5,1-0.5
		c0.7,0,1.2,0.6,1.2,1.3c0,0.9-0.6,1.7-1.6,1.7s-1.5-1-1.5-2.1c0-1.8,1.7-3.1,3.6-3.1c3.5,0,4.4,2.4,4.4,4.4c0,1.2-0.3,2.2-1.5,4
		c-1.4,2.3-4.8,4-6,4c-0.3,0-0.5-0.1-0.5-0.3C368.5,70,369.4,69.6,370,69z M377.4,59.5c0.4,0,0.7,0.3,0.7,0.7c0,0.4-0.3,0.7-0.7,0.7
		c-0.4,0-0.7-0.3-0.7-0.7C376.7,59.8,377,59.5,377.4,59.5z M377.4,63.2c0.4,0,0.7,0.3,0.7,0.7s-0.3,0.7-0.7,0.7
		c-0.4,0-0.7-0.3-0.7-0.7S377,63.2,377.4,63.2z"/>
</g>
<polygon fill-rule="evenodd" clip-rule="evenodd" points="317.1,63.4 361.6,68.3 361.6,65.8 317.1,60.9 "/>
<polygon fill-rule="evenodd" clip-rule="evenodd" points="317.1,59.6 361.6,64.6 361.6,62.1 317.1,57.2 "/>
<polygon fill-rule="evenodd" clip-rule="evenodd" points="381.4,68.3 425.9,73.3 425.9,70.8 381.4,65.8 "/>
<polygon fill-rule="evenodd" clip-rule="evenodd" points="381.4,72 425.9,77 425.9,74.5 381.4,69.6 "/>
<polygon fill-rule="evenodd" clip-rule="evenodd" points="440.8,78.2 485.1,83.2 485.1,80.7 440.8,75.8 "/>
<polygon fill-rule="evenodd" clip-rule="evenodd" points="440.8,82 485.1,86.9 485.1,84.4 440.8,79.5 "/>
<rect x="59.9" y="34.5" width="10.5" height="0.8"/>
<rect x="68.2" y="20.1" width="0.5" height="16.4"/>
<g>
	<path d="M61.8,38.2c0-1.8,2.5-3.5,4.5-3.5c1.3,0,2.3,0.7,2.3,1.7c0,1.7-2.5,3.5-4.6,3.5C62.8,39.9,61.8,39.3,61.8,38.2z"/>
</g>
<rect x="74.8" y="34.5" width="10.5" height="0.8"/>
<rect x="83.1" y="18.6" width="0.5" height="15.5"/>
<g>
	<path d="M76.7,35.7c0-1.8,2.5-3.5,4.5-3.5c1.3,0,2.3,0.7,2.3,1.7c0,1.7-2.5,3.5-4.6,3.5C77.6,37.4,76.7,36.8,76.7,35.7z"/>
</g>
<rect x="97.8" y="16.9" width="0.5" height="14.7"/>
<g>
	<path d="M91.4,33.2c0-1.8,2.5-3.5,4.5-3.5c1.3,0,2.3,0.7,2.3,1.7c0,1.7-2.5,3.5-4.6,3.5C92.4,34.9,91.4,34.3,91.4,33.2z"/>
</g>
<rect x="112.7" y="15.2" width="0.5" height="14"/>
<g>
	<path d="M106.3,30.7c0-1.8,2.5-3.5,4.5-3.5c1.3,0,2.3,0.7,2.3,1.7c0,1.7-2.5,3.5-4.6,3.5C107.2,32.5,106.3,31.8,106.3,30.7z"/>
</g>
<rect x="127.4" y="10.2" width="0.5" height="16.4"/>
<g>
	<path d="M121,28.3c0-1.8,2.5-3.5,4.5-3.5c1.3,0,2.3,0.7,2.3,1.7c0,1.7-2.5,3.5-4.6,3.5C122,30,121,29.3,121,28.3z"/>
</g>
<rect x="142.3" y="8.6" width="0.5" height="15.5"/>
<g>
	<path d="M135.9,25.8c0-1.8,2.5-3.5,4.5-3.5c1.3,0,2.3,0.7,2.3,1.7c0,1.7-2.5,3.5-4.6,3.5C136.9,27.5,135.9,26.9,135.9,25.8z"/>
</g>
<rect x="157.2" y="6.9" width="0.5" height="14.7"/>
<g>
	<path d="M150.8,23.3c0-1.8,2.5-3.5,4.5-3.5c1.3,0,2.3,0.7,2.3,1.7c0,1.7-2.5,3.5-4.6,3.5C151.7,25,150.8,24.4,150.8,23.3z"/>
</g>
<rect x="171.9" y="5.2" width="0.5" height="14"/>
<g>
	<path d="M165.5,20.8c0-1.8,2.5-3.5,4.5-3.5c1.3,0,2.3,0.7,2.3,1.7c0,1.7-2.5,3.5-4.6,3.5C166.5,22.5,165.5,21.9,165.5,20.8z"/>
</g>
<rect x="191.8" y="18.3" width="0.5" height="16.4"/>
<g>
	<path d="M191.8,18.3c0-1.8,2.5-3.5,4.5-3.5c1.3,0,2.3,0.7,2.3,1.7c0,1.7-2.5,3.5-4.6,3.5C192.8,20.1,191.8,19.4,191.8,18.3z"/>
</g>
<rect x="206.6" y="15.8" width="0.5" height="17.4"/>
<g>
	<path d="M206.7,15.9c0-1.8,2.5-3.5,4.5-3.5c1.3,0,2.3,0.7,2.3,1.7c0,1.7-2.5,3.5-4.6,3.5C207.7,17.6,206.7,16.9,206.7,15.9z"/>
</g>
<rect x="221.5" y="13.3" width="0.5" height="18.1"/>
<g>
	<path d="M221.6,13.4c0-1.8,2.5-3.5,4.5-3.5c1.3,0,2.3,0.7,2.3,1.7c0,1.7-2.5,3.5-4.6,3.5C222.6,15.1,221.6,14.5,221.6,13.4z"/>
</g>
<rect x="236.3" y="10.8" width="0.5" height="18.9"/>
<g>
	<path d="M236.3,10.9c0-1.8,2.5-3.5,4.5-3.5c1.3,0,2.3,0.7,2.3,1.7c0,1.7-2.5,3.5-4.6,3.5C237.3,12.6,236.3,12,236.3,10.9z"/>
</g>
<rect x="251.1" y="8.3" width="0.5" height="17.7"/>
<g>
	<path d="M251.2,8.4c0-1.8,2.5-3.5,4.5-3.5c1.3,0,2.3,0.7,2.3,1.7c0,1.7-2.5,3.5-4.6,3.5C252.2,10.1,251.2,9.5,251.2,8.4z"/>
</g>
<rect x="264.1" y="4.7" width="10.5" height="0.8"/>
<rect x="265.9" y="5.9" width="0.5" height="19.8"/>
<g>
	<path d="M265.9,5.9c0-1.8,2.5-3.5,4.5-3.5c1.3,0,2.3,0.7,2.3,1.7c0,1.7-2.5,3.5-4.6,3.5C266.9,7.7,265.9,7,265.9,5.9z"/>
</g>
<rect x="279" y="4.7" width="10.5" height="0.8"/>
<rect x="280.7" y="3.4" width="0.5" height="21.9"/>
<g>
	<path d="M280.8,3.5c0-1.8,2.5-3.5,4.5-3.5c1.3,0,2.3,0.7,2.3,1.7c0,1.7-2.5,3.5-4.6,3.5C281.8,5.2,280.8,4.5,280.8,3.5z"/>
</g>
<rect x="293.8" y="4.7" width="10.5" height="0.8"/>
<rect x="295.6" y="5.9" width="0.5" height="18.9"/>
<g>
	<path d="M295.7,5.9c0-1.8,2.5-3.5,4.5-3.5c1.3,0,2.3,0.7,2.3,1.7c0,1.7-2.5,3.5-4.6,3.5C296.7,7.7,295.7,7,295.7,5.9z"/>
</g>
<rect x="310.4" y="8.3" width="0.5" height="16.4"/>
<g>
	<path d="M310.4,8.4c0-1.8,2.5-3.5,4.5-3.5c1.3,0,2.3,0.7,2.3,1.7c0,1.7-2.5,3.5-4.6,3.5C311.4,10.1,310.4,9.5,310.4,8.4z"/>
</g>
<rect x="325.2" y="10.8" width="0.5" height="15.5"/>
<g>
	<path d="M325.3,10.9c0-1.8,2.5-3.5,4.5-3.5c1.3,0,2.3,0.7,2.3,1.7c0,1.7-2.5,3.5-4.6,3.5C326.3,12.6,325.3,12,325.3,10.9z"/>
</g>
<rect x="340" y="13.3" width="0.5" height="14.7"/>
<g>
	<path d="M340,13.4c0-1.8,2.5-3.5,4.5-3.5c1.3,0,2.3,0.7,2.3,1.7c0,1.7-2.5,3.5-4.6,3.5C341,15.1,340,14.5,340,13.4z"/>
</g>
<rect x="354.8" y="15.8" width="0.5" height="14"/>
<g>
	<path d="M354.9,15.9c0-1.8,2.5-3.5,4.5-3.5c1.3,0,2.3,0.7,2.3,1.7c0,1.7-2.5,3.5-4.6,3.5C355.9,17.6,354.9,16.9,354.9,15.9z"/>
</g>
<rect x="387.7" y="0.3" width="0.5" height="16.4"/>
<g>
	<path d="M381.3,18.3c0-1.8,2.5-3.5,4.5-3.5c1.3,0,2.3,0.7,2.3,1.7c0,1.7-2.5,3.5-4.6,3.5C382.2,20.1,381.3,19.4,381.3,18.3z"/>
</g>
<rect x="402.6" y="1.8" width="0.5" height="17.4"/>
<g>
	<path d="M396.2,20.8c0-1.8,2.5-3.5,4.5-3.5c1.3,0,2.3,0.7,2.3,1.7c0,1.7-2.5,3.5-4.6,3.5C397.1,22.5,396.2,21.9,396.2,20.8z"/>
</g>
<rect x="417.3" y="3.5" width="0.5" height="18.1"/>
<g>
	<path d="M410.9,23.3c0-1.8,2.5-3.5,4.5-3.5c1.3,0,2.3,0.7,2.3,1.7c0,1.7-2.5,3.5-4.6,3.5C411.9,25,410.9,24.4,410.9,23.3z"/>
</g>
<rect x="432.2" y="5.2" width="0.5" height="18.9"/>
<g>
	<path d="M425.8,25.8c0-1.8,2.5-3.5,4.5-3.5c1.3,0,2.3,0.7,2.3,1.7c0,1.7-2.5,3.5-4.6,3.5C426.7,27.5,425.8,26.9,425.8,25.8z"/>
</g>
<rect x="447.1" y="10.2" width="0.5" height="16.4"/>
<g>
	<path d="M440.6,28.3c0-1.8,2.5-3.5,4.5-3.5c1.3,0,2.3,0.7,2.3,1.7c0,1.7-2.5,3.5-4.6,3.5C441.6,30,440.6,29.3,440.6,28.3z"/>
</g>
<rect x="461.8" y="11.7" width="0.5" height="17.4"/>
<g>
	<path d="M455.4,30.7c0-1.8,2.5-3.5,4.5-3.5c1.3,0,2.3,0.7,2.3,1.7c0,1.7-2.5,3.5-4.6,3.5C456.3,32.5,455.4,31.8,455.4,30.7z"/>
</g>
<rect x="476.7" y="13.4" width="0.5" height="18.1"/>
<g>
	<path d="M470.2,33.2c0-1.8,2.5-3.5,4.5-3.5c1.3,0,2.3,0.7,2.3,1.7c0,1.7-2.5,3.5-4.6,3.5C471.2,34.9,470.2,34.3,470.2,33.2z"/>
</g>
<rect x="483.1" y="34.5" width="10.5" height="0.8"/>
<rect x="491.4" y="15.2" width="0.5" height="18.9"/>
<g>
	<path d="M485,35.7c0-1.8,2.5-3.5,4.5-3.5c1.3,0,2.3,0.7,2.3,1.7c0,1.7-2.5,3.5-4.6,3.5C485.9,37.4,485,36.8,485,35.7z"/>
</g>
<rect x="498" y="34.5" width="10.7" height="0.8"/>
<rect x="506.4" y="20" width="0.5" height="16.6"/>
<g>
	<path d="M504.1,34.6c1.6,0,2.7,0.7,2.7,2c0,1.9-2.3,3.4-4.5,3.4c-1.3,0-2.4-0.7-2.4-1.8C499.9,36.4,502.1,34.6,504.1,34.6z
		 M500.3,38.5c0,0.6,0.4,0.9,1.1,0.9c1.4,0,4.9-2.1,4.9-3.3c0-0.6-0.4-0.9-1.1-0.9C504,35.2,500.3,37.2,500.3,38.5z"/>
</g>
<rect x="68.2" y="52.4" width="0.5" height="18.9"/>
<g>
	<path d="M61.8,72.9c0-1.8,2.5-3.5,4.5-3.5c1.3,0,2.3,0.7,2.3,1.7c0,1.7-2.5,3.5-4.6,3.5C62.8,74.6,61.8,74,61.8,72.9z"/>
</g>
<rect x="83.1" y="50.8" width="0.5" height="18"/>
<g>
	<path d="M76.7,70.4c0-1.8,2.5-3.5,4.5-3.5c1.3,0,2.3,0.7,2.3,1.7c0,1.7-2.5,3.5-4.6,3.5C77.6,72.1,76.7,71.5,76.7,70.4z"/>
</g>
<rect x="97.8" y="49.1" width="0.5" height="17.2"/>
<g>
	<path d="M91.4,67.9c0-1.8,2.5-3.5,4.5-3.5c1.3,0,2.3,0.7,2.3,1.7c0,1.7-2.5,3.5-4.6,3.5C92.4,69.7,91.4,69,91.4,67.9z"/>
</g>
<rect x="112.7" y="47.4" width="0.5" height="16.4"/>
<g>
	<path d="M106.3,65.5c0-1.8,2.5-3.5,4.5-3.5c1.3,0,2.3,0.7,2.3,1.7c0,1.7-2.5,3.5-4.6,3.5C107.2,67.2,106.3,66.5,106.3,65.5z"/>
</g>
<rect x="120.9" y="62.9" width="0.5" height="14"/>
<g>
	<path d="M121,63c0-1.8,2.5-3.5,4.5-3.5c1.3,0,2.3,0.7,2.3,1.7c0,1.7-2.5,3.5-4.6,3.5C122,64.7,121,64.1,121,63z"/>
</g>
<rect x="135.8" y="60.4" width="0.5" height="14.9"/>
<g>
	<path d="M135.9,60.5c0-1.8,2.5-3.5,4.5-3.5c1.3,0,2.3,0.7,2.3,1.7c0,1.7-2.5,3.5-4.6,3.5C136.9,62.2,135.9,61.6,135.9,60.5z"/>
</g>
<rect x="150.7" y="57.9" width="0.5" height="15.7"/>
<g>
	<path d="M150.8,58c0-1.8,2.5-3.5,4.5-3.5c1.3,0,2.3,0.7,2.3,1.7c0,1.7-2.5,3.5-4.6,3.5C151.7,59.7,150.8,59.1,150.8,58z"/>
</g>
<rect x="165.4" y="55.5" width="0.5" height="16.4"/>
<g>
	<path d="M165.5,55.5c0-1.8,2.5-3.5,4.5-3.5c1.3,0,2.3,0.7,2.3,1.7c0,1.7-2.5,3.5-4.6,3.5C166.5,57.3,165.5,56.6,165.5,55.5z"/>
</g>
<rect x="190" y="81.6" width="10.5" height="0.8"/>
<rect x="198.3" y="62.3" width="0.5" height="18.9"/>
<g>
	<path d="M191.8,82.8c0-1.8,2.5-3.5,4.5-3.5c1.3,0,2.3,0.7,2.3,1.7c0,1.7-2.5,3.5-4.6,3.5C192.8,84.5,191.8,83.9,191.8,82.8z"/>
</g>
<rect x="213.2" y="60.7" width="0.5" height="18"/>
<g>
	<path d="M206.7,80.3c0-1.8,2.5-3.5,4.5-3.5c1.3,0,2.3,0.7,2.3,1.7c0,1.7-2.5,3.5-4.6,3.5C207.7,82.1,206.7,81.4,206.7,80.3z"/>
</g>
<rect x="228" y="59" width="0.5" height="17.2"/>
<g>
	<path d="M221.6,77.9c0-1.8,2.5-3.5,4.5-3.5c1.3,0,2.3,0.7,2.3,1.7c0,1.7-2.5,3.5-4.6,3.5C222.6,79.6,221.6,78.9,221.6,77.9z"/>
</g>
<rect x="242.8" y="57.3" width="0.5" height="16.4"/>
<g>
	<path d="M236.3,75.4c0-1.8,2.5-3.5,4.5-3.5c1.3,0,2.3,0.7,2.3,1.7c0,1.7-2.5,3.5-4.6,3.5C237.3,77.1,236.3,76.5,236.3,75.4z"/>
</g>
<rect x="257.6" y="51.1" width="0.5" height="20.2"/>
<g>
	<path d="M251.2,72.9c0-1.8,2.5-3.5,4.5-3.5c1.3,0,2.3,0.7,2.3,1.7c0,1.7-2.5,3.5-4.6,3.5C252.2,74.6,251.2,74,251.2,72.9z"/>
</g>
<rect x="272.4" y="51.1" width="0.5" height="17.7"/>
<g>
	<path d="M265.9,70.4c0-1.8,2.5-3.5,4.5-3.5c1.3,0,2.3,0.7,2.3,1.7c0,1.7-2.5,3.5-4.6,3.5C266.9,72.1,265.9,71.5,265.9,70.4z"/>
</g>
<rect x="287.3" y="51.1" width="0.5" height="15.2"/>
<g>
	<path d="M280.8,67.9c0-1.8,2.5-3.5,4.5-3.5c1.3,0,2.3,0.7,2.3,1.7c0,1.7-2.5,3.5-4.6,3.5C281.8,69.7,280.8,69,280.8,67.9z"/>
</g>
<rect x="302.1" y="51.1" width="0.5" height="17.7"/>
<g>
	<path d="M295.7,70.4c0-1.8,2.5-3.5,4.5-3.5c1.3,0,2.3,0.7,2.3,1.7c0,1.7-2.5,3.5-4.6,3.5C296.7,72.1,295.7,71.5,295.7,70.4z"/>
</g>
<rect x="316.9" y="57.3" width="0.5" height="14"/>
<g>
	<path d="M310.4,72.9c0-1.8,2.5-3.5,4.5-3.5c1.3,0,2.3,0.7,2.3,1.7c0,1.7-2.5,3.5-4.6,3.5C311.4,74.6,310.4,74,310.4,72.9z"/>
</g>
<rect x="331.7" y="58.9" width="0.5" height="14.9"/>
<g>
	<path d="M325.3,75.4c0-1.8,2.5-3.5,4.5-3.5c1.3,0,2.3,0.7,2.3,1.7c0,1.7-2.5,3.5-4.6,3.5C326.3,77.1,325.3,76.5,325.3,75.4z"/>
</g>
<rect x="346.5" y="60.6" width="0.5" height="15.7"/>
<g>
	<path d="M340,77.9c0-1.8,2.5-3.5,4.5-3.5c1.3,0,2.3,0.7,2.3,1.7c0,1.7-2.5,3.5-4.6,3.5C341,79.6,340,78.9,340,77.9z"/>
</g>
<rect x="361.4" y="62.3" width="0.5" height="16.4"/>
<g>
	<path d="M354.9,80.3c0-1.8,2.5-3.5,4.5-3.5c1.3,0,2.3,0.7,2.3,1.7c0,1.7-2.5,3.5-4.6,3.5C355.9,82.1,354.9,81.4,354.9,80.3z"/>
</g>
<rect x="379.4" y="51.8" width="10.5" height="0.8"/>
<rect x="381.2" y="53" width="0.5" height="18.9"/>
<g>
	<path d="M381.3,53.1c0-1.8,2.5-3.5,4.5-3.5c1.3,0,2.3,0.7,2.3,1.7c0,1.7-2.5,3.5-4.6,3.5C382.2,54.8,381.3,54.1,381.3,53.1z"/>
</g>
<rect x="396.1" y="55.5" width="0.5" height="18"/>
<g>
	<path d="M396.2,55.5c0-1.8,2.5-3.5,4.5-3.5c1.3,0,2.3,0.7,2.3,1.7c0,1.7-2.5,3.5-4.6,3.5C397.1,57.3,396.2,56.6,396.2,55.5z"/>
</g>
<rect x="410.8" y="57.9" width="0.5" height="17.2"/>
<g>
	<path d="M410.9,58c0-1.8,2.5-3.5,4.5-3.5c1.3,0,2.3,0.7,2.3,1.7c0,1.7-2.5,3.5-4.6,3.5C411.9,59.7,410.9,59.1,410.9,58z"/>
</g>
<rect x="425.7" y="60.4" width="0.5" height="16.4"/>
<g>
	<path d="M425.8,60.5c0-1.8,2.5-3.5,4.5-3.5c1.3,0,2.3,0.7,2.3,1.7c0,1.7-2.5,3.5-4.6,3.5C426.7,62.2,425.8,61.6,425.8,60.5z"/>
</g>
<rect x="440.6" y="62.9" width="0.5" height="18.9"/>
<g>
	<path d="M440.6,63c0-1.8,2.5-3.5,4.5-3.5c1.3,0,2.3,0.7,2.3,1.7c0,1.7-2.5,3.5-4.6,3.5C441.6,64.7,440.6,64.1,440.6,63z"/>
</g>
<rect x="455.3" y="65.4" width="0.5" height="18"/>
<g>
	<path d="M455.4,65.5c0-1.8,2.5-3.5,4.5-3.5c1.3,0,2.3,0.7,2.3,1.7c0,1.7-2.5,3.5-4.6,3.5C456.3,67.2,455.4,66.5,455.4,65.5z"/>
</g>
<rect x="470.2" y="67.9" width="0.5" height="17.2"/>
<g>
	<path d="M470.2,67.9c0-1.8,2.5-3.5,4.5-3.5c1.3,0,2.3,0.7,2.3,1.7c0,1.7-2.5,3.5-4.6,3.5C471.2,69.7,470.2,69,470.2,67.9z"/>
</g>
<rect x="484.9" y="70.3" width="0.5" height="16.4"/>
<g>
	<path d="M485,70.4c0-1.8,2.5-3.5,4.5-3.5c1.3,0,2.3,0.7,2.3,1.7c0,1.7-2.5,3.5-4.6,3.5C485.9,72.1,485,71.5,485,70.4z"/>
</g>
<rect x="506.4" y="54.7" width="0.5" height="16.6"/>
<g>
	<path d="M504.1,69.3c1.6,0,2.7,0.7,2.7,2c0,1.9-2.3,3.4-4.5,3.4c-1.3,0-2.4-0.7-2.4-1.8C499.9,71.1,502.1,69.3,504.1,69.3z
		 M500.3,73.2c0,0.6,0.4,0.9,1.1,0.9c1.4,0,4.9-2.1,4.9-3.3c0-0.6-0.4-0.9-1.1-0.9C504,69.9,500.3,72,500.3,73.2z"/>
</g>
</svg>
