<?xml version="1.0" encoding="utf-8"?>

<!--
	ScaleBook
	Copyright (c) Leland Jansen 2015. All rights reserved.
-->

<!DOCTYPE svg PUBLIC "-//W3C//DTD SVG 1.1//EN" "http://www.w3.org/Graphics/SVG/1.1/DTD/svg11.dtd">
<svg version="1.1" id="Layer_1" xmlns="http://www.w3.org/2000/svg" xmlns:xlink="http://www.w3.org/1999/xlink" x="0px" y="0px"
	 viewBox="0 0 552.9 86.8" enable-background="new 0 0 552.9 86.8" xml:space="preserve">
<rect x="8.4" y="9.9" width="0.8" height="67"/>
<g>
	<path d="M7.4,10.6c-1.9,1.1-3.6,5.8-3.6,9.4c0,2.3,1.4,9.9,1.4,12.3c0,5-1.5,8.6-4.6,11.1c3,2.4,4.6,6.1,4.6,11.1
		c0,2.3-1.4,9.9-1.4,12.3c0,3.8,1.7,8.4,3.6,9.5v0.7c-3.5-2.3-5.8-8.2-5.8-13.1c0-2.1,1.7-9.4,1.7-11.5c0-3.8-1-6.6-2.9-8.2
		C0.1,43.8,0,43.6,0,43.4c0-0.2,0.1-0.4,0.5-0.7c1.9-1.7,2.9-4.2,2.9-7.6c0-2.1-1.7-10-1.7-12.2c0-5.2,2.1-10.4,5.8-13.1V10.6z"/>
</g>
<rect x="547.8" y="9.9" width="0.8" height="67"/>
<rect x="550.4" y="9.9" width="2.5" height="67"/>
<rect x="8.5" y="29.5" width="544.4" height="0.5"/>
<rect x="8.5" y="24.6" width="544.4" height="0.5"/>
<rect x="8.5" y="19.6" width="544.4" height="0.5"/>
<rect x="8.5" y="14.6" width="544.4" height="0.5"/>
<rect x="8.5" y="9.7" width="544.4" height="0.5"/>
<g>
	<path d="M20.3,29.6c-4.2,0-8.1-3.1-8.1-6.9c0-3.2,2.3-6.7,6.8-10.5c-0.3-1.2-0.4-2.4-0.4-3.6c0-3.5,1.2-6.8,3.2-8.5
		c1.8,2.5,2.7,4.9,2.7,7.1c0,2.9-1.3,5.6-4.3,8.1l0.9,4.2c0.5,0,0.8-0.1,0.8-0.1c2.6,0,4.8,2,4.8,4.7c0,1.9-1.4,3.7-3.6,4.8
		c0-0.1,0.9,3.8,0.9,4.3c0,2.5-2.3,4.2-4.9,4.2c-2,0-3.6-1.3-3.6-3.4c0-1.4,1-2.6,2.4-2.6c1.3,0,2.3,1.3,2.3,2.5
		c0,1.4-1.2,2.3-2.7,2.5c0.6,0.3,1.2,0.5,1.9,0.5c2.1,0,4.1-1.6,4.1-3.6c0-0.2,0-0.4-0.1-0.6l-0.8-3.7
		C21.9,29.5,21.2,29.6,20.3,29.6z M18.1,24.4c0,1,0.5,1.9,1.6,2.5c-1.8-0.3-3-1.4-3-3.1c0-2,1.7-3.7,3.8-4.1l-0.8-4
		C16,18.5,14,21.2,14,23.8c0,2.9,2.8,5.3,6,5.3c0.9,0,1.7-0.2,2.4-0.5L21,21.8C19.4,22,18.1,23,18.1,24.4z M22.1,3
		c-1.6,0-2.9,3.7-2.9,7c0,0.7,0,1.3,0.2,1.9c2.7-2.4,4-4.5,4-6.5c0-0.9-0.3-1.7-1-2.4C22.4,3.1,22.3,3,22.1,3z M24.9,24.9
		c0-1.6-1.2-3.3-2.9-3.3c-0.1,0-0.2,0-0.5,0l1.4,6.6C24.2,27.4,24.9,26.2,24.9,24.9z"/>
</g>
<g>
	<path d="M29.5,11.5h0.6L30,17.8c0.4-0.7,1-1,1.8-1c1.2,0,2.2,0.8,2.2,1.9c0,0.8-0.5,1.8-1.7,2.7l-2.8,2.1V11.5z M30.1,18.4
		C30,19.2,30,19.8,30,20.4c0,1,0,1.6,0.1,2c1-0.7,2.4-2.6,2.4-3.7c0-0.6-0.5-1.1-1.1-1.1C30.8,17.6,30.4,17.9,30.1,18.4z"/>
</g>
<g>
	<path d="M35.1,4.1h0.6l-0.1,6.2c0.4-0.7,1-1,1.8-1c1.2,0,2.2,0.8,2.2,1.9c0,0.8-0.5,1.8-1.7,2.7L35.1,16V4.1z M35.7,11
		c-0.1,0.8-0.1,1.4-0.1,1.9c0,1,0,1.6,0.1,2c1-0.7,2.4-2.6,2.4-3.7c0-0.6-0.5-1.1-1.1-1.1C36.4,10.2,36,10.4,35.7,11z"/>
</g>
<polygon fill-rule="evenodd" clip-rule="evenodd" points="54.8,26 102.9,24.8 102.9,22.3 54.8,23.6 "/>
<polygon fill-rule="evenodd" clip-rule="evenodd" points="54.8,22.3 102.9,21.1 102.9,18.6 54.8,19.8 "/>
<polygon fill-rule="evenodd" clip-rule="evenodd" points="118.8,21.1 166.9,16.1 166.9,13.6 118.8,18.6 "/>
<polygon fill-rule="evenodd" clip-rule="evenodd" points="118.8,17.4 166.9,12.4 166.9,9.9 118.8,14.9 "/>
<polygon fill-rule="evenodd" clip-rule="evenodd" points="182.9,11.2 230.9,6.2 230.9,3.7 182.9,8.7 "/>
<polygon fill-rule="evenodd" clip-rule="evenodd" points="182.9,7.4 230.9,2.5 230.9,0 182.9,5 "/>
<polygon fill-rule="evenodd" clip-rule="evenodd" points="240.4,27.3 288.4,26 288.4,23.6 240.4,24.8 "/>
<polygon fill-rule="evenodd" clip-rule="evenodd" points="240.4,31 288.4,29.8 288.4,27.3 240.4,28.5 "/>
<polygon fill-rule="evenodd" clip-rule="evenodd" points="304.4,31 352.3,36 352.3,33.5 304.4,28.5 "/>
<polygon fill-rule="evenodd" clip-rule="evenodd" points="304.4,34.7 352.3,39.7 352.3,37.2 304.4,32.2 "/>
<polygon fill-rule="evenodd" clip-rule="evenodd" points="374.9,16.1 422.8,21.1 422.8,18.6 374.9,13.6 "/>
<polygon fill-rule="evenodd" clip-rule="evenodd" points="374.9,12.4 422.8,17.4 422.8,14.9 374.9,9.9 "/>
<polygon fill-rule="evenodd" clip-rule="evenodd" points="438.9,24.8 486.8,26 486.8,23.6 438.9,22.3 "/>
<polygon fill-rule="evenodd" clip-rule="evenodd" points="438.9,21.1 486.8,22.3 486.8,19.8 438.9,18.6 "/>
<rect x="8.5" y="76.7" width="544.4" height="0.5"/>
<rect x="8.5" y="71.7" width="544.4" height="0.5"/>
<rect x="8.5" y="66.7" width="544.4" height="0.5"/>
<rect x="8.5" y="61.8" width="544.4" height="0.5"/>
<rect x="8.5" y="56.8" width="544.4" height="0.5"/>
<g>
	<path d="M15.7,71.2c2.9-2.6,4.7-6.1,4.7-9.2c0-2.5-1.4-4.4-3.7-4.4c-1.6,0-3.4,1.3-3.4,2.7c0,0.2,0,0.3,0.1,0.3
		c-0.1,0,0.6-0.6,1.4-0.6c0.9,0,1.5,0.8,1.5,1.7c0,1.2-0.9,2.2-2.1,2.2c-1.2,0-2.1-1.3-2.1-2.8c0-2.3,2.3-4.1,4.8-4.1
		c4.7,0,5.9,3.2,5.9,5.8c0,1.6-0.4,2.9-2,5.3c-1.9,3.1-6.4,5.3-8.1,5.3c-0.4,0-0.6-0.2-0.6-0.5C13.8,72.5,14.9,71.9,15.7,71.2z
		 M25.7,58.5c0.6,0,1,0.4,1,1c0,0.6-0.4,1-1,1s-1-0.4-1-1C24.7,59,25.1,58.5,25.7,58.5z M25.7,63.5c0.6,0,1,0.4,1,1c0,0.6-0.4,1-1,1
		s-1-0.4-1-1C24.7,63.9,25.1,63.5,25.7,63.5z"/>
</g>
<g>
	<path d="M29.5,63.6h0.6L30,69.9c0.4-0.7,1-1,1.8-1c1.2,0,2.2,0.8,2.2,1.9c0,0.8-0.5,1.8-1.7,2.7l-2.8,2.1V63.6z M30.1,70.5
		C30,71.3,30,71.9,30,72.5c0,1,0,1.6,0.1,2c1-0.7,2.4-2.6,2.4-3.7c0-0.6-0.5-1.1-1.1-1.1C30.8,69.7,30.4,70,30.1,70.5z"/>
</g>
<g>
	<path d="M35.1,56.2h0.6l-0.1,6.2c0.4-0.7,1-1,1.8-1c1.2,0,2.2,0.8,2.2,1.9c0,0.8-0.5,1.8-1.7,2.7l-2.8,2.1V56.2z M35.7,63.1
		c-0.1,0.8-0.1,1.4-0.1,1.9c0,1,0,1.6,0.1,2c1-0.7,2.4-2.6,2.4-3.7c0-0.6-0.5-1.1-1.1-1.1C36.4,62.2,36,62.5,35.7,63.1z"/>
</g>
<polygon fill-rule="evenodd" clip-rule="evenodd" points="54.8,68.2 102.9,63.2 102.9,60.8 54.8,65.7 "/>
<polygon fill-rule="evenodd" clip-rule="evenodd" points="54.8,64.5 102.9,59.5 102.9,57 54.8,62 "/>
<polygon fill-rule="evenodd" clip-rule="evenodd" points="112.3,83.1 160.4,78.1 160.4,75.6 112.3,80.6 "/>
<polygon fill-rule="evenodd" clip-rule="evenodd" points="112.3,86.8 160.4,81.8 160.4,79.4 112.3,84.3 "/>
<polygon fill-rule="evenodd" clip-rule="evenodd" points="176.3,73.2 224.4,68.2 224.4,65.7 176.3,70.7 "/>
<polygon fill-rule="evenodd" clip-rule="evenodd" points="176.3,76.9 224.4,71.9 224.4,69.4 176.3,74.4 "/>
<polygon fill-rule="evenodd" clip-rule="evenodd" points="240.4,64.5 288.4,63.2 288.4,60.8 240.4,62 "/>
<polygon fill-rule="evenodd" clip-rule="evenodd" points="240.4,68.2 288.4,67 288.4,64.5 240.4,65.7 "/>
<polygon fill-rule="evenodd" clip-rule="evenodd" points="304.4,63.2 352.3,68.2 352.3,65.7 304.4,60.8 "/>
<polygon fill-rule="evenodd" clip-rule="evenodd" points="304.4,67 352.3,71.9 352.3,69.4 304.4,64.5 "/>
<polygon fill-rule="evenodd" clip-rule="evenodd" points="368.4,73.2 416.3,78.1 416.3,75.6 368.4,70.7 "/>
<polygon fill-rule="evenodd" clip-rule="evenodd" points="368.4,76.9 416.3,81.8 416.3,79.4 368.4,74.4 "/>
<polygon fill-rule="evenodd" clip-rule="evenodd" points="438.9,58.3 486.8,63.2 486.8,60.8 438.9,55.8 "/>
<polygon fill-rule="evenodd" clip-rule="evenodd" points="438.9,54.6 486.8,59.5 486.8,57 438.9,52.1 "/>
<rect x="46.3" y="34.3" width="10.5" height="0.8"/>
<rect x="46.3" y="39.3" width="10.5" height="0.8"/>
<rect x="46.3" y="44.3" width="10.5" height="0.8"/>
<rect x="54.6" y="20" width="0.5" height="23.9"/>
<g>
	<path d="M48.1,45.5c0-1.8,2.5-3.5,4.5-3.5c1.3,0,2.3,0.7,2.3,1.7c0,1.7-2.5,3.5-4.6,3.5C49.1,47.2,48.1,46.6,48.1,45.5z"/>
</g>
<rect x="62.2" y="34.3" width="10.5" height="0.8"/>
<rect x="62.2" y="39.3" width="10.5" height="0.8"/>
<rect x="70.5" y="19.7" width="0.5" height="21.7"/>
<g>
	<path d="M64.1,43c0-1.8,2.5-3.5,4.5-3.5c1.3,0,2.3,0.7,2.3,1.7c0,1.7-2.5,3.5-4.6,3.5C65.1,44.7,64.1,44.1,64.1,43z"/>
</g>
<rect x="78.2" y="34.3" width="10.5" height="0.8"/>
<rect x="78.2" y="39.3" width="10.5" height="0.8"/>
<rect x="86.5" y="19.2" width="0.5" height="19.7"/>
<g>
	<path d="M80.1,40.5c0-1.8,2.5-3.5,4.5-3.5c1.3,0,2.3,0.7,2.3,1.7c0,1.7-2.5,3.5-4.6,3.5C81,42.3,80.1,41.6,80.1,40.5z"/>
</g>
<rect x="94.3" y="34.3" width="10.5" height="0.8"/>
<rect x="102.6" y="18.8" width="0.5" height="17.7"/>
<g>
	<path d="M96.2,38.1c0-1.8,2.5-3.5,4.5-3.5c1.3,0,2.3,0.7,2.3,1.7c0,1.7-2.5,3.5-4.6,3.5C97.2,39.8,96.2,39.1,96.2,38.1z"/>
</g>
<rect x="110.3" y="34.3" width="10.5" height="0.8"/>
<rect x="118.6" y="15" width="0.5" height="18.9"/>
<g>
	<path d="M112.2,35.6c0-1.8,2.5-3.5,4.5-3.5c1.3,0,2.3,0.7,2.3,1.7c0,1.7-2.5,3.5-4.6,3.5C113.1,37.3,112.2,36.7,112.2,35.6z"/>
</g>
<rect x="134.6" y="13.5" width="0.5" height="18"/>
<g>
	<path d="M128.1,33.1c0-1.8,2.5-3.5,4.5-3.5c1.3,0,2.3,0.7,2.3,1.7c0,1.7-2.5,3.5-4.6,3.5C129.1,34.8,128.1,34.2,128.1,33.1z"/>
</g>
<rect x="150.5" y="11.8" width="0.5" height="17.2"/>
<g>
	<path d="M144.1,30.6c0-1.8,2.5-3.5,4.5-3.5c1.3,0,2.3,0.7,2.3,1.7c0,1.7-2.5,3.5-4.6,3.5C145.1,32.3,144.1,31.7,144.1,30.6z"/>
</g>
<rect x="166.7" y="10.1" width="0.5" height="16.4"/>
<g>
	<path d="M160.2,28.1c0-1.8,2.5-3.5,4.5-3.5c1.3,0,2.3,0.7,2.3,1.7c0,1.7-2.5,3.5-4.6,3.5C161.2,29.9,160.2,29.2,160.2,28.1z"/>
</g>
<rect x="182.6" y="5.1" width="0.5" height="18.9"/>
<g>
	<path d="M176.2,25.7c0-1.8,2.5-3.5,4.5-3.5c1.3,0,2.3,0.7,2.3,1.7c0,1.7-2.5,3.5-4.6,3.5C177.2,27.4,176.2,26.7,176.2,25.7z"/>
</g>
<rect x="198.6" y="3.6" width="0.5" height="18"/>
<g>
	<path d="M192.2,23.2c0-1.8,2.5-3.5,4.5-3.5c1.3,0,2.3,0.7,2.3,1.7c0,1.7-2.5,3.5-4.6,3.5C193.1,24.9,192.2,24.3,192.2,23.2z"/>
</g>
<rect x="214.6" y="1.9" width="0.5" height="17.2"/>
<g>
	<path d="M208.1,20.7c0-1.8,2.5-3.5,4.5-3.5c1.3,0,2.3,0.7,2.3,1.7c0,1.7-2.5,3.5-4.6,3.5C209.1,22.4,208.1,21.8,208.1,20.7z"/>
</g>
<rect x="230.7" y="0.2" width="0.5" height="16.4"/>
<g>
	<path d="M224.2,18.2c0-1.8,2.5-3.5,4.5-3.5c1.3,0,2.3,0.7,2.3,1.7c0,1.7-2.5,3.5-4.6,3.5C225.2,19.9,224.2,19.3,224.2,18.2z"/>
</g>
<rect x="240.1" y="15.7" width="0.5" height="15.2"/>
<g>
	<path d="M240.2,15.7c0-1.8,2.5-3.5,4.5-3.5c1.3,0,2.3,0.7,2.3,1.7c0,1.7-2.5,3.5-4.6,3.5C241.2,17.5,240.2,16.8,240.2,15.7z"/>
</g>
<rect x="256.1" y="13.2" width="0.5" height="17.4"/>
<g>
	<path d="M256.2,13.3c0-1.8,2.5-3.5,4.5-3.5c1.3,0,2.3,0.7,2.3,1.7c0,1.7-2.5,3.5-4.6,3.5C257.1,15,256.2,14.3,256.2,13.3z"/>
</g>
<rect x="272.1" y="10.7" width="0.5" height="19.4"/>
<g>
	<path d="M272.1,10.8c0-1.8,2.5-3.5,4.5-3.5c1.3,0,2.3,0.7,2.3,1.7c0,1.7-2.5,3.5-4.6,3.5C273.1,12.5,272.1,11.9,272.1,10.8z"/>
</g>
<rect x="288.2" y="13.2" width="0.5" height="16.4"/>
<g>
	<path d="M288.3,13.3c0-1.8,2.5-3.5,4.5-3.5c1.3,0,2.3,0.7,2.3,1.7c0,1.7-2.5,3.5-4.6,3.5C289.2,15,288.3,14.3,288.3,13.3z"/>
</g>
<rect x="304.2" y="15.7" width="0.5" height="18.9"/>
<g>
	<path d="M304.2,15.7c0-1.8,2.5-3.5,4.5-3.5c1.3,0,2.3,0.7,2.3,1.7c0,1.7-2.5,3.5-4.6,3.5C305.2,17.5,304.2,16.8,304.2,15.7z"/>
</g>
<rect x="320.1" y="18.1" width="0.5" height="18"/>
<g>
	<path d="M320.2,18.2c0-1.8,2.5-3.5,4.5-3.5c1.3,0,2.3,0.7,2.3,1.7c0,1.7-2.5,3.5-4.6,3.5C321.2,19.9,320.2,19.3,320.2,18.2z"/>
</g>
<rect x="336.1" y="20.6" width="0.5" height="17.2"/>
<g>
	<path d="M336.2,20.7c0-1.8,2.5-3.5,4.5-3.5c1.3,0,2.3,0.7,2.3,1.7c0,1.7-2.5,3.5-4.6,3.5C337.1,22.4,336.2,21.8,336.2,20.7z"/>
</g>
<rect x="352.1" y="23.1" width="0.5" height="16.4"/>
<g>
	<path d="M352.1,23.2c0-1.8,2.5-3.5,4.5-3.5c1.3,0,2.3,0.7,2.3,1.7c0,1.7-2.5,3.5-4.6,3.5C353.1,24.9,352.1,24.3,352.1,23.2z"/>
</g>
<rect x="374.7" y="10.1" width="0.5" height="14"/>
<g>
	<path d="M368.2,25.7c0-1.8,2.5-3.5,4.5-3.5c1.3,0,2.3,0.7,2.3,1.7c0,1.7-2.5,3.5-4.6,3.5C369.2,27.4,368.2,26.7,368.2,25.7z"/>
</g>
<rect x="390.6" y="11.6" width="0.5" height="14.9"/>
<g>
	<path d="M384.2,28.1c0-1.8,2.5-3.5,4.5-3.5c1.3,0,2.3,0.7,2.3,1.7c0,1.7-2.5,3.5-4.6,3.5C385.2,29.9,384.2,29.2,384.2,28.1z"/>
</g>
<rect x="406.6" y="13.3" width="0.5" height="15.7"/>
<g>
	<path d="M400.2,30.6c0-1.8,2.5-3.5,4.5-3.5c1.3,0,2.3,0.7,2.3,1.7c0,1.7-2.5,3.5-4.6,3.5C401.2,32.3,400.2,31.7,400.2,30.6z"/>
</g>
<rect x="422.6" y="15" width="0.5" height="16.4"/>
<g>
	<path d="M416.1,33.1c0-1.8,2.5-3.5,4.5-3.5c1.3,0,2.3,0.7,2.3,1.7c0,1.7-2.5,3.5-4.6,3.5C417.1,34.8,416.1,34.2,416.1,33.1z"/>
</g>
<rect x="430.4" y="34.3" width="10.5" height="0.8"/>
<rect x="438.7" y="18.8" width="0.5" height="15.2"/>
<g>
	<path d="M432.3,35.6c0-1.8,2.5-3.5,4.5-3.5c1.3,0,2.3,0.7,2.3,1.7c0,1.7-2.5,3.5-4.6,3.5C433.2,37.3,432.3,36.7,432.3,35.6z"/>
</g>
<rect x="446.4" y="34.3" width="10.5" height="0.8"/>
<rect x="454.7" y="19.1" width="0.5" height="17.4"/>
<g>
	<path d="M448.2,38.1c0-1.8,2.5-3.5,4.5-3.5c1.3,0,2.3,0.7,2.3,1.7c0,1.7-2.5,3.5-4.6,3.5C449.2,39.8,448.2,39.1,448.2,38.1z"/>
</g>
<rect x="462.3" y="34.3" width="10.5" height="0.8"/>
<rect x="462.3" y="39.3" width="10.5" height="0.8"/>
<rect x="470.6" y="19.5" width="0.5" height="19.4"/>
<g>
	<path d="M464.2,40.5c0-1.8,2.5-3.5,4.5-3.5c1.3,0,2.3,0.7,2.3,1.7c0,1.7-2.5,3.5-4.6,3.5C465.2,42.3,464.2,41.6,464.2,40.5z"/>
</g>
<rect x="478.3" y="34.3" width="10.5" height="0.8"/>
<rect x="478.3" y="39.3" width="10.5" height="0.8"/>
<rect x="486.6" y="20" width="0.5" height="21.4"/>
<g>
	<path d="M480.2,43c0-1.8,2.5-3.5,4.5-3.5c1.3,0,2.3,0.7,2.3,1.7c0,1.7-2.5,3.5-4.6,3.5C481.1,44.7,480.2,44.1,480.2,43z"/>
</g>
<rect x="494.4" y="34.3" width="10.7" height="0.8"/>
<rect x="494.4" y="39.3" width="10.7" height="0.8"/>
<rect x="494.4" y="44.3" width="10.7" height="0.8"/>
<rect x="502.9" y="19.8" width="0.5" height="24"/>
<g>
	<path d="M500.6,41.9c1.6,0,2.7,0.7,2.7,2c0,1.9-2.3,3.4-4.5,3.4c-1.3,0-2.4-0.7-2.4-1.8C496.3,43.7,498.5,41.9,500.6,41.9z
		 M496.7,45.8c0,0.6,0.4,0.9,1.1,0.9c1.4,0,4.9-2.1,4.9-3.3c0-0.6-0.4-0.9-1.1-0.9C500.4,42.5,496.7,44.6,496.7,45.8z"/>
</g>
<rect x="54.6" y="62.2" width="0.5" height="16.4"/>
<g>
	<path d="M48.1,80.2c0-1.8,2.5-3.5,4.5-3.5c1.3,0,2.3,0.7,2.3,1.7c0,1.7-2.5,3.5-4.6,3.5C49.1,81.9,48.1,81.3,48.1,80.2z"/>
</g>
<rect x="70.5" y="60.6" width="0.5" height="15.5"/>
<g>
	<path d="M64.1,77.7c0-1.8,2.5-3.5,4.5-3.5c1.3,0,2.3,0.7,2.3,1.7c0,1.7-2.5,3.5-4.6,3.5C65.1,79.5,64.1,78.8,64.1,77.7z"/>
</g>
<rect x="86.5" y="58.9" width="0.5" height="14.7"/>
<g>
	<path d="M80.1,75.3c0-1.8,2.5-3.5,4.5-3.5c1.3,0,2.3,0.7,2.3,1.7c0,1.7-2.5,3.5-4.6,3.5C81,77,80.1,76.3,80.1,75.3z"/>
</g>
<rect x="102.6" y="57.2" width="0.5" height="14"/>
<g>
	<path d="M96.2,72.8c0-1.8,2.5-3.5,4.5-3.5c1.3,0,2.3,0.7,2.3,1.7c0,1.7-2.5,3.5-4.6,3.5C97.2,74.5,96.2,73.9,96.2,72.8z"/>
</g>
<rect x="112.1" y="70.2" width="0.5" height="16.4"/>
<g>
	<path d="M112.2,70.3c0-1.8,2.5-3.5,4.5-3.5c1.3,0,2.3,0.7,2.3,1.7c0,1.7-2.5,3.5-4.6,3.5C113.1,72,112.2,71.4,112.2,70.3z"/>
</g>
<rect x="128.1" y="67.7" width="0.5" height="17.4"/>
<g>
	<path d="M128.1,67.8c0-1.8,2.5-3.5,4.5-3.5c1.3,0,2.3,0.7,2.3,1.7c0,1.7-2.5,3.5-4.6,3.5C129.1,69.5,128.1,68.9,128.1,67.8z"/>
</g>
<rect x="144" y="65.3" width="0.5" height="18.1"/>
<g>
	<path d="M144.1,65.3c0-1.8,2.5-3.5,4.5-3.5c1.3,0,2.3,0.7,2.3,1.7c0,1.7-2.5,3.5-4.6,3.5C145.1,67.1,144.1,66.4,144.1,65.3z"/>
</g>
<rect x="160.1" y="62.8" width="0.5" height="18.9"/>
<g>
	<path d="M160.2,62.9c0-1.8,2.5-3.5,4.5-3.5c1.3,0,2.3,0.7,2.3,1.7c0,1.7-2.5,3.5-4.6,3.5C161.2,64.6,160.2,63.9,160.2,62.9z"/>
</g>
<rect x="176.1" y="60.3" width="0.5" height="16.4"/>
<g>
	<path d="M176.2,60.4c0-1.8,2.5-3.5,4.5-3.5c1.3,0,2.3,0.7,2.3,1.7c0,1.7-2.5,3.5-4.6,3.5C177.2,62.1,176.2,61.5,176.2,60.4z"/>
</g>
<rect x="192.1" y="57.8" width="0.5" height="17.4"/>
<g>
	<path d="M192.2,57.9c0-1.8,2.5-3.5,4.5-3.5c1.3,0,2.3,0.7,2.3,1.7c0,1.7-2.5,3.5-4.6,3.5C193.1,59.6,192.2,59,192.2,57.9z"/>
</g>
<rect x="208" y="55.3" width="0.5" height="18.1"/>
<g>
	<path d="M208.1,55.4c0-1.8,2.5-3.5,4.5-3.5c1.3,0,2.3,0.7,2.3,1.7c0,1.7-2.5,3.5-4.6,3.5C209.1,57.1,208.1,56.5,208.1,55.4z"/>
</g>
<rect x="222.4" y="51.7" width="10.5" height="0.8"/>
<rect x="224.2" y="52.9" width="0.5" height="18.9"/>
<g>
	<path d="M224.2,52.9c0-1.8,2.5-3.5,4.5-3.5c1.3,0,2.3,0.7,2.3,1.7c0,1.7-2.5,3.5-4.6,3.5C225.2,54.7,224.2,54,224.2,52.9z"/>
</g>
<rect x="238.3" y="51.7" width="10.5" height="0.8"/>
<rect x="240.1" y="50.4" width="0.5" height="17.7"/>
<g>
	<path d="M240.2,50.5c0-1.8,2.5-3.5,4.5-3.5c1.3,0,2.3,0.7,2.3,1.7c0,1.7-2.5,3.5-4.6,3.5C241.2,52.2,240.2,51.5,240.2,50.5z"/>
</g>
<rect x="254.3" y="51.7" width="10.5" height="0.8"/>
<rect x="254.3" y="46.7" width="10.5" height="0.8"/>
<rect x="256.1" y="47.9" width="0.5" height="19.8"/>
<g>
	<path d="M256.2,48c0-1.8,2.5-3.5,4.5-3.5c1.3,0,2.3,0.7,2.3,1.7c0,1.7-2.5,3.5-4.6,3.5C257.1,49.7,256.2,49.1,256.2,48z"/>
</g>
<rect x="270.3" y="51.7" width="10.5" height="0.8"/>
<rect x="270.3" y="46.7" width="10.5" height="0.8"/>
<rect x="272.1" y="45.4" width="0.5" height="21.9"/>
<g>
	<path d="M272.1,45.5c0-1.8,2.5-3.5,4.5-3.5c1.3,0,2.3,0.7,2.3,1.7c0,1.7-2.5,3.5-4.6,3.5C273.1,47.2,272.1,46.6,272.1,45.5z"/>
</g>
<rect x="286.4" y="51.7" width="10.5" height="0.8"/>
<rect x="286.4" y="46.7" width="10.5" height="0.8"/>
<rect x="288.2" y="47.9" width="0.5" height="18.9"/>
<g>
	<path d="M288.3,48c0-1.8,2.5-3.5,4.5-3.5c1.3,0,2.3,0.7,2.3,1.7c0,1.7-2.5,3.5-4.6,3.5C289.2,49.7,288.3,49.1,288.3,48z"/>
</g>
<rect x="302.4" y="51.7" width="10.5" height="0.8"/>
<rect x="304.2" y="50.4" width="0.5" height="16.4"/>
<g>
	<path d="M304.2,50.5c0-1.8,2.5-3.5,4.5-3.5c1.3,0,2.3,0.7,2.3,1.7c0,1.7-2.5,3.5-4.6,3.5C305.2,52.2,304.2,51.5,304.2,50.5z"/>
</g>
<rect x="318.3" y="51.7" width="10.5" height="0.8"/>
<rect x="320.1" y="52.9" width="0.5" height="15.5"/>
<g>
	<path d="M320.2,52.9c0-1.8,2.5-3.5,4.5-3.5c1.3,0,2.3,0.7,2.3,1.7c0,1.7-2.5,3.5-4.6,3.5C321.2,54.7,320.2,54,320.2,52.9z"/>
</g>
<rect x="336.1" y="55.3" width="0.5" height="14.7"/>
<g>
	<path d="M336.2,55.4c0-1.8,2.5-3.5,4.5-3.5c1.3,0,2.3,0.7,2.3,1.7c0,1.7-2.5,3.5-4.6,3.5C337.1,57.1,336.2,56.5,336.2,55.4z"/>
</g>
<rect x="352.1" y="57.8" width="0.5" height="14"/>
<g>
	<path d="M352.1,57.9c0-1.8,2.5-3.5,4.5-3.5c1.3,0,2.3,0.7,2.3,1.7c0,1.7-2.5,3.5-4.6,3.5C353.1,59.6,352.1,59,352.1,57.9z"/>
</g>
<rect x="368.2" y="60.3" width="0.5" height="16.4"/>
<g>
	<path d="M368.2,60.4c0-1.8,2.5-3.5,4.5-3.5c1.3,0,2.3,0.7,2.3,1.7c0,1.7-2.5,3.5-4.6,3.5C369.2,62.1,368.2,61.5,368.2,60.4z"/>
</g>
<rect x="384.1" y="62.8" width="0.5" height="15.5"/>
<g>
	<path d="M384.2,62.9c0-1.8,2.5-3.5,4.5-3.5c1.3,0,2.3,0.7,2.3,1.7c0,1.7-2.5,3.5-4.6,3.5C385.2,64.6,384.2,63.9,384.2,62.9z"/>
</g>
<rect x="400.1" y="65.3" width="0.5" height="14.7"/>
<g>
	<path d="M400.2,65.3c0-1.8,2.5-3.5,4.5-3.5c1.3,0,2.3,0.7,2.3,1.7c0,1.7-2.5,3.5-4.6,3.5C401.2,67.1,400.2,66.4,400.2,65.3z"/>
</g>
<rect x="416.1" y="67.7" width="0.5" height="14"/>
<g>
	<path d="M416.1,67.8c0-1.8,2.5-3.5,4.5-3.5c1.3,0,2.3,0.7,2.3,1.7c0,1.7-2.5,3.5-4.6,3.5C417.1,69.5,416.1,68.9,416.1,67.8z"/>
</g>
<rect x="438.7" y="52.2" width="0.5" height="16.4"/>
<g>
	<path d="M432.3,70.3c0-1.8,2.5-3.5,4.5-3.5c1.3,0,2.3,0.7,2.3,1.7c0,1.7-2.5,3.5-4.6,3.5C433.2,72,432.3,71.4,432.3,70.3z"/>
</g>
<rect x="454.7" y="53.8" width="0.5" height="17.4"/>
<g>
	<path d="M448.2,72.8c0-1.8,2.5-3.5,4.5-3.5c1.3,0,2.3,0.7,2.3,1.7c0,1.7-2.5,3.5-4.6,3.5C449.2,74.5,448.2,73.9,448.2,72.8z"/>
</g>
<rect x="470.6" y="55.5" width="0.5" height="18.1"/>
<g>
	<path d="M464.2,75.3c0-1.8,2.5-3.5,4.5-3.5c1.3,0,2.3,0.7,2.3,1.7c0,1.7-2.5,3.5-4.6,3.5C465.2,77,464.2,76.3,464.2,75.3z"/>
</g>
<rect x="486.6" y="57.2" width="0.5" height="18.9"/>
<g>
	<path d="M480.2,77.7c0-1.8,2.5-3.5,4.5-3.5c1.3,0,2.3,0.7,2.3,1.7c0,1.7-2.5,3.5-4.6,3.5C481.1,79.5,480.2,78.8,480.2,77.7z"/>
</g>
<rect x="502.9" y="62" width="0.5" height="16.6"/>
<g>
	<path d="M500.6,76.7c1.6,0,2.7,0.7,2.7,2c0,1.9-2.3,3.4-4.5,3.4c-1.3,0-2.4-0.7-2.4-1.8C496.3,78.5,498.5,76.7,500.6,76.7z
		 M496.7,80.5c0,0.6,0.4,0.9,1.1,0.9c1.4,0,4.9-2.1,4.9-3.3c0-0.6-0.4-0.9-1.1-0.9C500.4,77.3,496.7,79.3,496.7,80.5z"/>
</g>
</svg>
