<?xml version="1.0" encoding="utf-8"?>

<!--
	ScaleBook
	Copyright (c) Leland Jansen 2015. All rights reserved.
-->

<!DOCTYPE svg PUBLIC "-//W3C//DTD SVG 1.1//EN" "http://www.w3.org/Graphics/SVG/1.1/DTD/svg11.dtd">
<svg version="1.1" id="Layer_1" xmlns="http://www.w3.org/2000/svg" xmlns:xlink="http://www.w3.org/1999/xlink" x="0px" y="0px"
	 viewBox="0 0 552.9 89.4" enable-background="new 0 0 552.9 89.4" xml:space="preserve">
<rect x="8.4" y="12.5" width="0.8" height="67"/>
<g>
	<path d="M7.4,13.2c-1.9,1.1-3.6,5.8-3.6,9.4c0,2.3,1.4,9.9,1.4,12.3c0,5-1.5,8.6-4.6,11.1c3,2.4,4.6,6.1,4.6,11.1
		c0,2.3-1.4,9.9-1.4,12.3c0,3.8,1.7,8.4,3.6,9.5v0.7c-3.5-2.3-5.8-8.2-5.8-13.1c0-2.1,1.7-9.4,1.7-11.5c0-3.8-1-6.6-2.9-8.2
		C0.1,46.4,0,46.2,0,46c0-0.2,0.1-0.4,0.5-0.7c1.9-1.7,2.9-4.2,2.9-7.6c0-2.1-1.7-10-1.7-12.2c0-5.2,2.1-10.4,5.8-13.1V13.2z"/>
</g>
<rect x="547.8" y="12.5" width="0.8" height="67"/>
<rect x="550.4" y="12.5" width="2.5" height="67"/>
<rect x="8.5" y="32.1" width="544.4" height="0.5"/>
<rect x="8.5" y="27.2" width="544.4" height="0.5"/>
<rect x="8.5" y="22.2" width="544.4" height="0.5"/>
<rect x="8.5" y="17.2" width="544.4" height="0.5"/>
<rect x="8.5" y="12.3" width="544.4" height="0.5"/>
<g>
	<path d="M20.3,32.2c-4.2,0-8.1-3.1-8.1-6.9c0-3.2,2.3-6.7,6.8-10.5c-0.3-1.2-0.4-2.4-0.4-3.6c0-3.5,1.2-6.8,3.2-8.5
		c1.8,2.5,2.7,4.9,2.7,7.1c0,2.9-1.3,5.6-4.3,8.1l0.9,4.2c0.5,0,0.8-0.1,0.8-0.1c2.6,0,4.8,2,4.8,4.7c0,1.9-1.4,3.7-3.6,4.8
		c0-0.1,0.9,3.8,0.9,4.3c0,2.5-2.3,4.2-4.9,4.2c-2,0-3.6-1.3-3.6-3.4c0-1.4,1-2.6,2.4-2.6c1.3,0,2.3,1.3,2.3,2.5
		c0,1.4-1.2,2.3-2.7,2.5c0.6,0.3,1.2,0.5,1.9,0.5c2.1,0,4.1-1.6,4.1-3.6c0-0.2,0-0.4-0.1-0.6l-0.8-3.7
		C21.9,32.1,21.2,32.2,20.3,32.2z M18.1,27c0,1,0.5,1.9,1.6,2.5c-1.8-0.3-3-1.4-3-3.1c0-2,1.7-3.7,3.8-4.1l-0.8-4
		C16,21.1,14,23.8,14,26.4c0,2.9,2.8,5.3,6,5.3c0.9,0,1.7-0.2,2.4-0.5L21,24.4C19.4,24.6,18.1,25.6,18.1,27z M22.1,5.6
		c-1.6,0-2.9,3.7-2.9,7c0,0.7,0,1.3,0.2,1.9c2.7-2.4,4-4.5,4-6.5c0-0.9-0.3-1.7-1-2.4C22.4,5.7,22.3,5.6,22.1,5.6z M24.9,27.5
		c0-1.6-1.2-3.3-2.9-3.3c-0.1,0-0.2,0-0.5,0l1.4,6.6C24.2,30,24.9,28.8,24.9,27.5z"/>
</g>
<g>
	<path d="M33.5,5.7v2.8l1-0.3V10l-1,0.3v3.4l1-0.3v1.8l-1,0.3v3.1H33v-3l-1.9,0.6v3h-0.5v-2.8l-1,0.3V15l1-0.3v-3.4l-1,0.3V9.8
		l1-0.3V6.3h0.5v3L33,8.7v-3H33.5z M33,10.5l-1.9,0.6v3.4l1.9-0.6V10.5z"/>
</g>
<g>
	<path d="M39.7,13.1V16l1-0.3v1.8l-1,0.3v3.4l1-0.3v1.8l-1,0.3v3.1h-0.5v-3l-1.9,0.6v3h-0.5v-2.8l-1,0.3v-1.8l1-0.3v-3.4l-1,0.3
		v-1.8l1-0.3v-3.1h0.5v3l1.9-0.6v-3H39.7z M39.2,17.9l-1.9,0.6V22l1.9-0.6V17.9z"/>
</g>
<g>
	<path d="M45.9,3.2v2.8l1-0.3v1.8l-1,0.3v3.4l1-0.3v1.8l-1,0.3v3.1h-0.5v-3l-1.9,0.6v3H43V14l-1,0.3v-1.8l1-0.3V8.8l-1,0.3V7.3L43,7
		V3.9h0.5v3l1.9-0.6v-3H45.9z M45.4,8l-1.9,0.6v3.4l1.9-0.6V8z"/>
</g>
<g>
	<path d="M52.1,10.7v2.8l1-0.3V15l-1,0.3v3.4l1-0.3v1.8l-1,0.3v3.1h-0.5v-3l-1.9,0.6v3h-0.5v-2.8l-1,0.3V20l1-0.3v-3.4l-1,0.3v-1.8
		l1-0.3v-3.1h0.5v3l1.9-0.6v-3H52.1z M51.6,15.4l-1.9,0.6v3.4l1.9-0.6V15.4z"/>
</g>
<g>
	<path d="M58.3,18.1v2.8l1-0.3v1.8l-1,0.3v3.4l1-0.3v1.8l-1,0.3v3.1h-0.5v-3l-1.9,0.6v3h-0.5v-2.8l-1,0.3v-1.8l1-0.3v-3.4l-1,0.3
		v-1.8l1-0.3v-3.1h0.5v3l1.9-0.6v-3H58.3z M57.8,22.9l-1.9,0.6v3.4l1.9-0.6V22.9z"/>
</g>
<polygon fill-rule="evenodd" clip-rule="evenodd" points="74.7,23.7 118.2,18.7 118.2,16.2 74.7,21.2 "/>
<polygon fill-rule="evenodd" clip-rule="evenodd" points="74.7,20 118.2,15 118.2,12.5 74.7,17.5 "/>
<polygon fill-rule="evenodd" clip-rule="evenodd" points="132.8,13.8 176.5,8.8 176.5,6.3 132.8,11.3 "/>
<polygon fill-rule="evenodd" clip-rule="evenodd" points="132.8,10 176.5,5.1 176.5,2.6 132.8,7.6 "/>
<polygon fill-rule="evenodd" clip-rule="evenodd" points="198.2,28.6 241.8,23.7 241.8,21.2 198.2,26.2 "/>
<polygon fill-rule="evenodd" clip-rule="evenodd" points="198.2,32.4 241.8,27.4 241.8,24.9 198.2,29.9 "/>
<polygon fill-rule="evenodd" clip-rule="evenodd" points="256.3,20 300,18.7 300,16.2 256.3,17.5 "/>
<polygon fill-rule="evenodd" clip-rule="evenodd" points="256.3,23.7 300,22.4 300,20 256.3,21.2 "/>
<polygon fill-rule="evenodd" clip-rule="evenodd" points="314.5,23.7 358.2,28.6 358.2,26.2 314.5,21.2 "/>
<polygon fill-rule="evenodd" clip-rule="evenodd" points="314.5,27.4 358.2,32.4 358.2,29.9 314.5,24.9 "/>
<polygon fill-rule="evenodd" clip-rule="evenodd" points="384.5,33.6 428.1,38.6 428.1,36.1 384.5,31.1 "/>
<polygon fill-rule="evenodd" clip-rule="evenodd" points="384.5,37.3 428.1,42.3 428.1,39.8 384.5,34.8 "/>
<polygon fill-rule="evenodd" clip-rule="evenodd" points="449.2,18.7 492.9,23.7 492.9,21.2 449.2,16.2 "/>
<polygon fill-rule="evenodd" clip-rule="evenodd" points="449.2,15 492.9,20 492.9,17.5 449.2,12.5 "/>
<rect x="8.5" y="79.3" width="544.4" height="0.5"/>
<rect x="8.5" y="74.3" width="544.4" height="0.5"/>
<rect x="8.5" y="69.3" width="544.4" height="0.5"/>
<rect x="8.5" y="64.4" width="544.4" height="0.5"/>
<rect x="8.5" y="59.4" width="544.4" height="0.5"/>
<g>
	<path d="M15.7,73.8c2.9-2.6,4.7-6.1,4.7-9.2c0-2.5-1.4-4.4-3.7-4.4c-1.6,0-3.4,1.3-3.4,2.7c0,0.2,0,0.3,0.1,0.3
		c-0.1,0,0.6-0.6,1.4-0.6c0.9,0,1.5,0.8,1.5,1.7c0,1.2-0.9,2.2-2.1,2.2c-1.2,0-2.1-1.3-2.1-2.8c0-2.3,2.3-4.1,4.8-4.1
		c4.7,0,5.9,3.2,5.9,5.8c0,1.6-0.4,2.9-2,5.3C19.1,73.8,14.6,76,13,76c-0.4,0-0.6-0.2-0.6-0.5C13.8,75.1,14.9,74.5,15.7,73.8z
		 M25.7,61.1c0.6,0,1,0.4,1,1c0,0.6-0.4,1-1,1s-1-0.4-1-1C24.7,61.6,25.1,61.1,25.7,61.1z M25.7,66.1c0.6,0,1,0.4,1,1
		c0,0.6-0.4,1-1,1s-1-0.4-1-1C24.7,66.5,25.1,66.1,25.7,66.1z"/>
</g>
<g>
	<path d="M33.5,57.8v2.8l1-0.3v1.8l-1,0.3v3.4l1-0.3v1.8l-1,0.3v3.1H33v-3l-1.9,0.6v3h-0.5v-2.8l-1,0.3v-1.8l1-0.3v-3.4l-1,0.3v-1.8
		l1-0.3v-3.1h0.5v3l1.9-0.6v-3H33.5z M33,62.6l-1.9,0.6v3.4L33,66V62.6z"/>
</g>
<g>
	<path d="M39.7,65.2v2.8l1-0.3v1.8l-1,0.3v3.4l1-0.3v1.8l-1,0.3v3.1h-0.5v-3l-1.9,0.6v3h-0.5V76l-1,0.3v-1.8l1-0.3v-3.4l-1,0.3v-1.8
		l1-0.3v-3.1h0.5v3l1.9-0.6v-3H39.7z M39.2,70l-1.9,0.6v3.4l1.9-0.6V70z"/>
</g>
<g>
	<path d="M45.9,55.3v2.8l1-0.3v1.8l-1,0.3v3.4l1-0.3v1.8l-1,0.3v3.1h-0.5v-3L43.5,66v3H43v-2.8l-1,0.3v-1.8l1-0.3v-3.4l-1,0.3v-1.8
		l1-0.3v-3.1h0.5v3l1.9-0.6v-3H45.9z M45.4,60.1l-1.9,0.6v3.4l1.9-0.6V60.1z"/>
</g>
<g>
	<path d="M52.1,62.7v2.8l1-0.3V67l-1,0.3v3.4l1-0.3v1.8l-1,0.3v3.1h-0.5v-3l-1.9,0.6v3h-0.5v-2.8l-1,0.3v-1.8l1-0.3v-3.4l-1,0.3
		v-1.8l1-0.3v-3.1h0.5v3l1.9-0.6v-3H52.1z M51.6,67.5l-1.9,0.6v3.4l1.9-0.6V67.5z"/>
</g>
<g>
	<path d="M58.3,70.2V73l1-0.3v1.8l-1,0.3v3.4l1-0.3v1.8l-1,0.3v3.1h-0.5v-3l-1.9,0.6v3h-0.5V81l-1,0.3v-1.8l1-0.3v-3.4l-1,0.3v-1.8
		l1-0.3v-3.1h0.5v3l1.9-0.6v-3H58.3z M57.8,75l-1.9,0.6V79l1.9-0.6V75z"/>
</g>
<polygon fill-rule="evenodd" clip-rule="evenodd" points="68.1,85.7 111.7,80.7 111.7,78.2 68.1,83.2 "/>
<polygon fill-rule="evenodd" clip-rule="evenodd" points="68.1,89.4 111.7,84.4 111.7,82 68.1,86.9 "/>
<g>
	<path d="M190.2,78.1c-3.2,0-6.1-2.3-6.1-5.1c0-2.4,1.7-5,5.1-7.9c-0.2-0.9-0.3-1.8-0.3-2.7c0-2.6,0.9-5.1,2.4-6.3
		c1.4,1.9,2,3.7,2,5.3c0,2.2-1,4.2-3.2,6.1l0.7,3.1c0.4,0,0.6,0,0.6,0c2,0,3.6,1.5,3.6,3.5c0,1.4-1.1,2.8-2.7,3.6
		c0-0.1,0.6,2.8,0.6,3.3c0,1.9-1.7,3.2-3.7,3.2c-1.5,0-2.7-1-2.7-2.5c0-1.1,0.7-1.9,1.8-1.9c1,0,1.7,1,1.7,1.9c0,1-0.9,1.7-2,1.8
		c0.4,0.2,0.9,0.3,1.4,0.3c1.6,0,3.1-1.2,3.1-2.7c0-0.1,0-0.3,0-0.5l-0.6-2.8C191.4,78,190.9,78.1,190.2,78.1z M188.5,74.2
		c0,0.8,0.4,1.4,1.2,1.9c-1.3-0.2-2.2-1.1-2.2-2.3c0-1.5,1.3-2.8,2.9-3.1l-0.6-3c-2.8,2.1-4.3,4.1-4.3,6.1c0,2.2,2.1,4,4.5,4
		c0.7,0,1.3-0.1,1.8-0.4l-1.1-5.1C189.5,72.4,188.5,73.2,188.5,74.2z M191.6,58.2c-1.2,0-2.2,2.8-2.2,5.3c0,0.5,0,1,0.1,1.4
		c2-1.8,3-3.4,3-4.9c0-0.7-0.3-1.3-0.7-1.8C191.8,58.2,191.7,58.2,191.6,58.2z M193.6,74.6c0-1.2-0.9-2.4-2.2-2.4c0,0-0.2,0-0.4,0
		l1.1,5C193.1,76.5,193.6,75.6,193.6,74.6z"/>
</g>
<polygon fill-rule="evenodd" clip-rule="evenodd" points="126.3,75.8 170,70.8 170,68.3 126.3,73.3 "/>
<polygon fill-rule="evenodd" clip-rule="evenodd" points="126.3,79.5 170,74.5 170,72 126.3,77 "/>
<polygon fill-rule="evenodd" clip-rule="evenodd" points="204.7,70.8 248.3,65.8 248.3,63.4 204.7,68.3 "/>
<polygon fill-rule="evenodd" clip-rule="evenodd" points="204.7,67.1 248.3,62.1 248.3,59.6 204.7,64.6 "/>
<polygon fill-rule="evenodd" clip-rule="evenodd" points="256.3,84.4 300,83.2 300,80.7 256.3,82 "/>
<polygon fill-rule="evenodd" clip-rule="evenodd" points="256.3,88.2 300,86.9 300,84.4 256.3,85.7 "/>
<g>
	<path d="M373.1,71.5c2.2-2,3.6-4.6,3.6-6.9c0-1.9-1.1-3.3-2.8-3.3c-1.2,0-2.5,1-2.5,2.1c0,0.2,0,0.2,0.1,0.2c0,0,0.4-0.5,1-0.5
		c0.7,0,1.2,0.6,1.2,1.3c0,0.9-0.6,1.7-1.6,1.7s-1.5-1-1.5-2.1c0-1.8,1.7-3.1,3.6-3.1c3.5,0,4.4,2.4,4.4,4.4c0,1.2-0.3,2.2-1.5,4
		c-1.4,2.3-4.8,4-6,4c-0.3,0-0.5-0.1-0.5-0.3C371.6,72.5,372.5,72,373.1,71.5z M380.5,62c0.4,0,0.7,0.3,0.7,0.7
		c0,0.4-0.3,0.7-0.7,0.7c-0.4,0-0.7-0.3-0.7-0.7C379.8,62.3,380.1,62,380.5,62z M380.5,65.7c0.4,0,0.7,0.3,0.7,0.7s-0.3,0.7-0.7,0.7
		c-0.4,0-0.7-0.3-0.7-0.7S380.1,65.7,380.5,65.7z"/>
</g>
<polygon fill-rule="evenodd" clip-rule="evenodd" points="321,60.9 364.7,65.8 364.7,63.4 321,58.4 "/>
<polygon fill-rule="evenodd" clip-rule="evenodd" points="321,57.2 364.7,62.1 364.7,59.6 321,54.7 "/>
<polygon fill-rule="evenodd" clip-rule="evenodd" points="384.5,65.8 428.1,70.8 428.1,68.3 384.5,63.4 "/>
<polygon fill-rule="evenodd" clip-rule="evenodd" points="384.5,69.6 428.1,74.5 428.1,72 384.5,67.1 "/>
<polygon fill-rule="evenodd" clip-rule="evenodd" points="442.7,75.8 486.4,80.7 486.4,78.2 442.7,73.3 "/>
<polygon fill-rule="evenodd" clip-rule="evenodd" points="442.7,79.5 486.4,84.4 486.4,82 442.7,77 "/>
<rect x="66.1" y="36.9" width="10.5" height="0.8"/>
<rect x="74.4" y="17.6" width="0.5" height="18.9"/>
<g>
	<path d="M68,38.2c0-1.8,2.5-3.5,4.5-3.5c1.3,0,2.3,0.7,2.3,1.7c0,1.7-2.5,3.5-4.6,3.5C69,39.9,68,39.3,68,38.2z"/>
</g>
<rect x="89" y="16.1" width="0.5" height="18"/>
<g>
	<path d="M82.6,35.7c0-1.8,2.5-3.5,4.5-3.5c1.3,0,2.3,0.7,2.3,1.7c0,1.7-2.5,3.5-4.6,3.5C83.5,37.4,82.6,36.8,82.6,35.7z"/>
</g>
<rect x="103.6" y="14.4" width="0.5" height="17.2"/>
<g>
	<path d="M97.1,33.2c0-1.8,2.5-3.5,4.5-3.5c1.3,0,2.3,0.7,2.3,1.7c0,1.7-2.5,3.5-4.6,3.5C98.1,34.9,97.1,34.3,97.1,33.2z"/>
</g>
<rect x="118" y="12.7" width="0.5" height="16.4"/>
<g>
	<path d="M111.5,30.7c0-1.8,2.5-3.5,4.5-3.5c1.3,0,2.3,0.7,2.3,1.7c0,1.7-2.5,3.5-4.6,3.5C112.5,32.5,111.5,31.8,111.5,30.7z"/>
</g>
<rect x="132.5" y="7.7" width="0.5" height="18.9"/>
<g>
	<path d="M126.1,28.3c0-1.8,2.5-3.5,4.5-3.5c1.3,0,2.3,0.7,2.3,1.7c0,1.7-2.5,3.5-4.6,3.5C127.1,30,126.1,29.3,126.1,28.3z"/>
</g>
<rect x="147.1" y="6.2" width="0.5" height="18"/>
<g>
	<path d="M140.7,25.8c0-1.8,2.5-3.5,4.5-3.5c1.3,0,2.3,0.7,2.3,1.7c0,1.7-2.5,3.5-4.6,3.5C141.7,27.5,140.7,26.9,140.7,25.8z"/>
</g>
<rect x="161.7" y="4.5" width="0.5" height="17.2"/>
<g>
	<path d="M155.3,23.3c0-1.8,2.5-3.5,4.5-3.5c1.3,0,2.3,0.7,2.3,1.7c0,1.7-2.5,3.5-4.6,3.5C156.2,25,155.3,24.4,155.3,23.3z"/>
</g>
<rect x="176.3" y="2.8" width="0.5" height="16.4"/>
<g>
	<path d="M169.8,20.8c0-1.8,2.5-3.5,4.5-3.5c1.3,0,2.3,0.7,2.3,1.7c0,1.7-2.5,3.5-4.6,3.5C170.8,22.5,169.8,21.9,169.8,20.8z"/>
</g>
<rect x="198" y="18.3" width="0.5" height="14"/>
<g>
	<path d="M198,18.3c0-1.8,2.5-3.5,4.5-3.5c1.3,0,2.3,0.7,2.3,1.7c0,1.7-2.5,3.5-4.6,3.5C199,20.1,198,19.4,198,18.3z"/>
</g>
<rect x="212.5" y="15.8" width="0.5" height="14.9"/>
<g>
	<path d="M212.6,15.9c0-1.8,2.5-3.5,4.5-3.5c1.3,0,2.3,0.7,2.3,1.7c0,1.7-2.5,3.5-4.6,3.5C213.6,17.6,212.6,16.9,212.6,15.9z"/>
</g>
<rect x="227" y="13.3" width="0.5" height="15.7"/>
<g>
	<path d="M227,13.4c0-1.8,2.5-3.5,4.5-3.5c1.3,0,2.3,0.7,2.3,1.7c0,1.7-2.5,3.5-4.6,3.5C228,15.1,227,14.5,227,13.4z"/>
</g>
<rect x="241.5" y="10.8" width="0.5" height="16.4"/>
<g>
	<path d="M241.6,10.9c0-1.8,2.5-3.5,4.5-3.5c1.3,0,2.3,0.7,2.3,1.7c0,1.7-2.5,3.5-4.6,3.5C242.6,12.6,241.6,12,241.6,10.9z"/>
</g>
<rect x="254.3" y="7.2" width="10.5" height="0.8"/>
<rect x="256.1" y="8.3" width="0.5" height="15.2"/>
<g>
	<path d="M256.2,8.4c0-1.8,2.5-3.5,4.5-3.5c1.3,0,2.3,0.7,2.3,1.7c0,1.7-2.5,3.5-4.6,3.5C257.1,10.1,256.2,9.5,256.2,8.4z"/>
</g>
<rect x="268.9" y="7.2" width="10.5" height="0.8"/>
<rect x="270.7" y="5.9" width="0.5" height="17.4"/>
<g>
	<path d="M270.7,5.9c0-1.8,2.5-3.5,4.5-3.5c1.3,0,2.3,0.7,2.3,1.7c0,1.7-2.5,3.5-4.6,3.5C271.7,7.7,270.7,7,270.7,5.9z"/>
</g>
<rect x="283.5" y="7.2" width="10.5" height="0.8"/>
<rect x="283.5" y="2.2" width="10.5" height="0.8"/>
<rect x="285.2" y="3.4" width="0.5" height="19.4"/>
<g>
	<path d="M285.3,3.5c0-1.8,2.5-3.5,4.5-3.5c1.3,0,2.3,0.7,2.3,1.7c0,1.7-2.5,3.5-4.6,3.5C286.3,5.2,285.3,4.5,285.3,3.5z"/>
</g>
<rect x="298" y="7.2" width="10.5" height="0.8"/>
<rect x="299.8" y="5.9" width="0.5" height="16.4"/>
<g>
	<path d="M299.9,5.9c0-1.8,2.5-3.5,4.5-3.5c1.3,0,2.3,0.7,2.3,1.7c0,1.7-2.5,3.5-4.6,3.5C300.9,7.7,299.9,7,299.9,5.9z"/>
</g>
<rect x="312.4" y="7.2" width="10.5" height="0.8"/>
<rect x="314.2" y="8.3" width="0.5" height="18.9"/>
<g>
	<path d="M314.3,8.4c0-1.8,2.5-3.5,4.5-3.5c1.3,0,2.3,0.7,2.3,1.7c0,1.7-2.5,3.5-4.6,3.5C315.3,10.1,314.3,9.5,314.3,8.4z"/>
</g>
<rect x="328.8" y="10.8" width="0.5" height="18"/>
<g>
	<path d="M328.9,10.9c0-1.8,2.5-3.5,4.5-3.5c1.3,0,2.3,0.7,2.3,1.7c0,1.7-2.5,3.5-4.6,3.5C329.8,12.6,328.9,12,328.9,10.9z"/>
</g>
<rect x="343.4" y="13.3" width="0.5" height="17.2"/>
<g>
	<path d="M343.4,13.4c0-1.8,2.5-3.5,4.5-3.5c1.3,0,2.3,0.7,2.3,1.7c0,1.7-2.5,3.5-4.6,3.5C344.4,15.1,343.4,14.5,343.4,13.4z"/>
</g>
<rect x="357.9" y="15.8" width="0.5" height="16.4"/>
<g>
	<path d="M358,15.9c0-1.8,2.5-3.5,4.5-3.5c1.3,0,2.3,0.7,2.3,1.7c0,1.7-2.5,3.5-4.6,3.5C359,17.6,358,16.9,358,15.9z"/>
</g>
<rect x="384.3" y="18.3" width="0.5" height="18.9"/>
<g>
	<path d="M384.4,18.3c0-1.8,2.5-3.5,4.5-3.5c1.3,0,2.3,0.7,2.3,1.7c0,1.7-2.5,3.5-4.6,3.5C385.3,20.1,384.4,19.4,384.4,18.3z"/>
</g>
<rect x="398.9" y="20.7" width="0.5" height="18"/>
<g>
	<path d="M398.9,20.8c0-1.8,2.5-3.5,4.5-3.5c1.3,0,2.3,0.7,2.3,1.7c0,1.7-2.5,3.5-4.6,3.5C399.9,22.5,398.9,21.9,398.9,20.8z"/>
</g>
<rect x="413.4" y="23.2" width="0.5" height="17.2"/>
<g>
	<path d="M413.5,23.3c0-1.8,2.5-3.5,4.5-3.5c1.3,0,2.3,0.7,2.3,1.7c0,1.7-2.5,3.5-4.6,3.5C414.5,25,413.5,24.4,413.5,23.3z"/>
</g>
<rect x="427.9" y="25.7" width="0.5" height="16.4"/>
<g>
	<path d="M427.9,25.8c0-1.8,2.5-3.5,4.5-3.5c1.3,0,2.3,0.7,2.3,1.7c0,1.7-2.5,3.5-4.6,3.5C428.9,27.5,427.9,26.9,427.9,25.8z"/>
</g>
<rect x="448.9" y="12.7" width="0.5" height="14"/>
<g>
	<path d="M442.5,28.3c0-1.8,2.5-3.5,4.5-3.5c1.3,0,2.3,0.7,2.3,1.7c0,1.7-2.5,3.5-4.6,3.5C443.5,30,442.5,29.3,442.5,28.3z"/>
</g>
<rect x="463.5" y="14.2" width="0.5" height="14.9"/>
<g>
	<path d="M457.1,30.7c0-1.8,2.5-3.5,4.5-3.5c1.3,0,2.3,0.7,2.3,1.7c0,1.7-2.5,3.5-4.6,3.5C458,32.5,457.1,31.8,457.1,30.7z"/>
</g>
<rect x="478.1" y="15.9" width="0.5" height="15.7"/>
<g>
	<path d="M471.6,33.2c0-1.8,2.5-3.5,4.5-3.5c1.3,0,2.3,0.7,2.3,1.7c0,1.7-2.5,3.5-4.6,3.5C472.6,34.9,471.6,34.3,471.6,33.2z"/>
</g>
<rect x="492.6" y="17.6" width="0.5" height="16.4"/>
<g>
	<path d="M486.2,35.7c0-1.8,2.5-3.5,4.5-3.5c1.3,0,2.3,0.7,2.3,1.7c0,1.7-2.5,3.5-4.6,3.5C487.2,37.4,486.2,36.8,486.2,35.7z"/>
</g>
<rect x="498.8" y="36.9" width="10.7" height="0.8"/>
<rect x="507.2" y="20" width="0.5" height="16.6"/>
<g>
	<path d="M504.9,34.6c1.6,0,2.7,0.7,2.7,2c0,1.9-2.3,3.4-4.5,3.4c-1.3,0-2.4-0.7-2.4-1.8C500.6,36.4,502.9,34.6,504.9,34.6z
		 M501.1,38.5c0,0.6,0.4,0.9,1.1,0.9c1.4,0,4.9-2.1,4.9-3.3c0-0.6-0.4-0.9-1.1-0.9C504.8,35.2,501.1,37.2,501.1,38.5z"/>
</g>
<rect x="67.9" y="72.8" width="0.5" height="16.4"/>
<g>
	<path d="M68,72.9c0-1.8,2.5-3.5,4.5-3.5c1.3,0,2.3,0.7,2.3,1.7c0,1.7-2.5,3.5-4.6,3.5C69,74.6,68,74,68,72.9z"/>
</g>
<rect x="82.5" y="70.3" width="0.5" height="17.4"/>
<g>
	<path d="M82.6,70.4c0-1.8,2.5-3.5,4.5-3.5c1.3,0,2.3,0.7,2.3,1.7c0,1.7-2.5,3.5-4.6,3.5C83.5,72.1,82.6,71.5,82.6,70.4z"/>
</g>
<rect x="97.1" y="67.9" width="0.5" height="18.1"/>
<g>
	<path d="M97.1,67.9c0-1.8,2.5-3.5,4.5-3.5c1.3,0,2.3,0.7,2.3,1.7c0,1.7-2.5,3.5-4.6,3.5C98.1,69.7,97.1,69,97.1,67.9z"/>
</g>
<rect x="111.5" y="65.4" width="0.5" height="18.9"/>
<g>
	<path d="M111.5,65.5c0-1.8,2.5-3.5,4.5-3.5c1.3,0,2.3,0.7,2.3,1.7c0,1.7-2.5,3.5-4.6,3.5C112.5,67.2,111.5,66.5,111.5,65.5z"/>
</g>
<rect x="126" y="62.9" width="0.5" height="16.4"/>
<g>
	<path d="M126.1,63c0-1.8,2.5-3.5,4.5-3.5c1.3,0,2.3,0.7,2.3,1.7c0,1.7-2.5,3.5-4.6,3.5C127.1,64.7,126.1,64.1,126.1,63z"/>
</g>
<rect x="140.6" y="60.4" width="0.5" height="17.4"/>
<g>
	<path d="M140.7,60.5c0-1.8,2.5-3.5,4.5-3.5c1.3,0,2.3,0.7,2.3,1.7c0,1.7-2.5,3.5-4.6,3.5C141.7,62.2,140.7,61.6,140.7,60.5z"/>
</g>
<rect x="155.2" y="57.9" width="0.5" height="18.1"/>
<g>
	<path d="M155.3,58c0-1.8,2.5-3.5,4.5-3.5c1.3,0,2.3,0.7,2.3,1.7c0,1.7-2.5,3.5-4.6,3.5C156.2,59.7,155.3,59.1,155.3,58z"/>
</g>
<rect x="168" y="54.3" width="10.5" height="0.8"/>
<rect x="169.8" y="55.5" width="0.5" height="18.9"/>
<g>
	<path d="M169.8,55.5c0-1.8,2.5-3.5,4.5-3.5c1.3,0,2.3,0.7,2.3,1.7c0,1.7-2.5,3.5-4.6,3.5C170.8,57.3,169.8,56.6,169.8,55.5z"/>
</g>
<rect x="204.5" y="64.8" width="0.5" height="16.4"/>
<g>
	<path d="M198,82.8c0-1.8,2.5-3.5,4.5-3.5c1.3,0,2.3,0.7,2.3,1.7c0,1.7-2.5,3.5-4.6,3.5C199,84.5,198,83.9,198,82.8z"/>
</g>
<rect x="219" y="63.2" width="0.5" height="15.5"/>
<g>
	<path d="M212.6,80.3c0-1.8,2.5-3.5,4.5-3.5c1.3,0,2.3,0.7,2.3,1.7c0,1.7-2.5,3.5-4.6,3.5C213.6,82.1,212.6,81.4,212.6,80.3z"/>
</g>
<rect x="233.5" y="61.5" width="0.5" height="14.7"/>
<g>
	<path d="M227,77.9c0-1.8,2.5-3.5,4.5-3.5c1.3,0,2.3,0.7,2.3,1.7c0,1.7-2.5,3.5-4.6,3.5C228,79.6,227,78.9,227,77.9z"/>
</g>
<rect x="248" y="59.8" width="0.5" height="14"/>
<g>
	<path d="M241.6,75.4c0-1.8,2.5-3.5,4.5-3.5c1.3,0,2.3,0.7,2.3,1.7c0,1.7-2.5,3.5-4.6,3.5C242.6,77.1,241.6,76.5,241.6,75.4z"/>
</g>
<rect x="256.1" y="72.8" width="0.5" height="15.2"/>
<g>
	<path d="M256.2,72.9c0-1.8,2.5-3.5,4.5-3.5c1.3,0,2.3,0.7,2.3,1.7c0,1.7-2.5,3.5-4.6,3.5C257.1,74.6,256.2,74,256.2,72.9z"/>
</g>
<rect x="270.7" y="70.3" width="0.5" height="17.4"/>
<g>
	<path d="M270.7,70.4c0-1.8,2.5-3.5,4.5-3.5c1.3,0,2.3,0.7,2.3,1.7c0,1.7-2.5,3.5-4.6,3.5C271.7,72.1,270.7,71.5,270.7,70.4z"/>
</g>
<rect x="285.2" y="67.9" width="0.5" height="19.4"/>
<g>
	<path d="M285.3,67.9c0-1.8,2.5-3.5,4.5-3.5c1.3,0,2.3,0.7,2.3,1.7c0,1.7-2.5,3.5-4.6,3.5C286.3,69.7,285.3,69,285.3,67.9z"/>
</g>
<rect x="299.8" y="70.3" width="0.5" height="16.4"/>
<g>
	<path d="M299.9,70.4c0-1.8,2.5-3.5,4.5-3.5c1.3,0,2.3,0.7,2.3,1.7c0,1.7-2.5,3.5-4.6,3.5C300.9,72.1,299.9,71.5,299.9,70.4z"/>
</g>
<rect x="320.7" y="54.8" width="0.5" height="16.4"/>
<g>
	<path d="M314.3,72.9c0-1.8,2.5-3.5,4.5-3.5c1.3,0,2.3,0.7,2.3,1.7c0,1.7-2.5,3.5-4.6,3.5C315.3,74.6,314.3,74,314.3,72.9z"/>
</g>
<rect x="335.3" y="56.4" width="0.5" height="17.4"/>
<g>
	<path d="M328.9,75.4c0-1.8,2.5-3.5,4.5-3.5c1.3,0,2.3,0.7,2.3,1.7c0,1.7-2.5,3.5-4.6,3.5C329.8,77.1,328.9,76.5,328.9,75.4z"/>
</g>
<rect x="349.9" y="58.1" width="0.5" height="18.1"/>
<g>
	<path d="M343.4,77.9c0-1.8,2.5-3.5,4.5-3.5c1.3,0,2.3,0.7,2.3,1.7c0,1.7-2.5,3.5-4.6,3.5C344.4,79.6,343.4,78.9,343.4,77.9z"/>
</g>
<rect x="364.5" y="59.8" width="0.5" height="18.9"/>
<g>
	<path d="M358,80.3c0-1.8,2.5-3.5,4.5-3.5c1.3,0,2.3,0.7,2.3,1.7c0,1.7-2.5,3.5-4.6,3.5C359,82.1,358,81.4,358,80.3z"/>
</g>
<rect x="382.5" y="54.3" width="10.5" height="0.8"/>
<rect x="384.3" y="53" width="0.5" height="16.4"/>
<g>
	<path d="M384.4,53.1c0-1.8,2.5-3.5,4.5-3.5c1.3,0,2.3,0.7,2.3,1.7c0,1.7-2.5,3.5-4.6,3.5C385.3,54.8,384.4,54.1,384.4,53.1z"/>
</g>
<rect x="397.1" y="54.3" width="10.5" height="0.8"/>
<rect x="398.9" y="55.5" width="0.5" height="15.5"/>
<g>
	<path d="M398.9,55.5c0-1.8,2.5-3.5,4.5-3.5c1.3,0,2.3,0.7,2.3,1.7c0,1.7-2.5,3.5-4.6,3.5C399.9,57.3,398.9,56.6,398.9,55.5z"/>
</g>
<rect x="413.4" y="57.9" width="0.5" height="14.7"/>
<g>
	<path d="M413.5,58c0-1.8,2.5-3.5,4.5-3.5c1.3,0,2.3,0.7,2.3,1.7c0,1.7-2.5,3.5-4.6,3.5C414.5,59.7,413.5,59.1,413.5,58z"/>
</g>
<rect x="427.9" y="60.4" width="0.5" height="14"/>
<g>
	<path d="M427.9,60.5c0-1.8,2.5-3.5,4.5-3.5c1.3,0,2.3,0.7,2.3,1.7c0,1.7-2.5,3.5-4.6,3.5C428.9,62.2,427.9,61.6,427.9,60.5z"/>
</g>
<rect x="442.4" y="62.9" width="0.5" height="16.4"/>
<g>
	<path d="M442.5,63c0-1.8,2.5-3.5,4.5-3.5c1.3,0,2.3,0.7,2.3,1.7c0,1.7-2.5,3.5-4.6,3.5C443.5,64.7,442.5,64.1,442.5,63z"/>
</g>
<rect x="457" y="65.4" width="0.5" height="15.5"/>
<g>
	<path d="M457.1,65.5c0-1.8,2.5-3.5,4.5-3.5c1.3,0,2.3,0.7,2.3,1.7c0,1.7-2.5,3.5-4.6,3.5C458,67.2,457.1,66.5,457.1,65.5z"/>
</g>
<rect x="471.6" y="67.9" width="0.5" height="14.7"/>
<g>
	<path d="M471.6,67.9c0-1.8,2.5-3.5,4.5-3.5c1.3,0,2.3,0.7,2.3,1.7c0,1.7-2.5,3.5-4.6,3.5C472.6,69.7,471.6,69,471.6,67.9z"/>
</g>
<rect x="486.1" y="70.3" width="0.5" height="14"/>
<g>
	<path d="M486.2,70.4c0-1.8,2.5-3.5,4.5-3.5c1.3,0,2.3,0.7,2.3,1.7c0,1.7-2.5,3.5-4.6,3.5C487.2,72.1,486.2,71.5,486.2,70.4z"/>
</g>
<rect x="507.2" y="54.7" width="0.5" height="16.6"/>
<g>
	<path d="M504.9,69.3c1.6,0,2.7,0.7,2.7,2c0,1.9-2.3,3.4-4.5,3.4c-1.3,0-2.4-0.7-2.4-1.8C500.6,71.1,502.9,69.3,504.9,69.3z
		 M501.1,73.2c0,0.6,0.4,0.9,1.1,0.9c1.4,0,4.9-2.1,4.9-3.3c0-0.6-0.4-0.9-1.1-0.9C504.8,69.9,501.1,72,501.1,73.2z"/>
</g>
</svg>
