<?xml version="1.0" encoding="utf-8"?>

<!--
	ScaleBook
	Copyright (c) Leland Jansen 2015. All rights reserved.
-->

<!DOCTYPE svg PUBLIC "-//W3C//DTD SVG 1.1//EN" "http://www.w3.org/Graphics/SVG/1.1/DTD/svg11.dtd">
<svg version="1.1" id="Layer_1" xmlns="http://www.w3.org/2000/svg" xmlns:xlink="http://www.w3.org/1999/xlink" x="0px" y="0px"
	 viewBox="0 0 552.9 89.4" enable-background="new 0 0 552.9 89.4" xml:space="preserve">
<rect x="8.4" y="12.5" width="0.8" height="67"/>
<g>
	<path d="M7.4,13.2c-1.9,1.1-3.6,5.8-3.6,9.4c0,2.3,1.4,9.9,1.4,12.3c0,5-1.5,8.6-4.6,11.1c3,2.4,4.6,6.1,4.6,11.1
		c0,2.3-1.4,9.9-1.4,12.3c0,3.8,1.7,8.4,3.6,9.5v0.7c-3.5-2.3-5.8-8.2-5.8-13.1c0-2.1,1.7-9.4,1.7-11.5c0-3.8-1-6.6-2.9-8.2
		C0.1,46.4,0,46.2,0,46c0-0.2,0.1-0.4,0.5-0.7c1.9-1.7,2.9-4.2,2.9-7.6c0-2.1-1.7-10-1.7-12.2c0-5.2,2.1-10.4,5.8-13.1V13.2z"/>
</g>
<rect x="547.8" y="12.5" width="0.8" height="67"/>
<rect x="550.4" y="12.5" width="2.5" height="67"/>
<rect x="8.5" y="32.1" width="544.4" height="0.5"/>
<rect x="8.5" y="27.2" width="544.4" height="0.5"/>
<rect x="8.5" y="22.2" width="544.4" height="0.5"/>
<rect x="8.5" y="17.2" width="544.4" height="0.5"/>
<rect x="8.5" y="12.3" width="544.4" height="0.5"/>
<g>
	<path d="M20.3,32.2c-4.2,0-8.1-3.1-8.1-6.9c0-3.2,2.3-6.7,6.8-10.5c-0.3-1.2-0.4-2.4-0.4-3.6c0-3.5,1.2-6.8,3.2-8.5
		c1.8,2.5,2.7,4.9,2.7,7.1c0,2.9-1.3,5.6-4.3,8.1l0.9,4.2c0.5,0,0.8-0.1,0.8-0.1c2.6,0,4.8,2,4.8,4.7c0,1.9-1.4,3.7-3.6,4.8
		c0-0.1,0.9,3.8,0.9,4.3c0,2.5-2.3,4.2-4.9,4.2c-2,0-3.6-1.3-3.6-3.4c0-1.4,1-2.6,2.4-2.6c1.3,0,2.3,1.3,2.3,2.5
		c0,1.4-1.2,2.3-2.7,2.5c0.6,0.3,1.2,0.5,1.9,0.5c2.1,0,4.1-1.6,4.1-3.6c0-0.2,0-0.4-0.1-0.6l-0.8-3.7
		C21.9,32.1,21.2,32.2,20.3,32.2z M18.1,27c0,1,0.5,1.9,1.6,2.5c-1.8-0.3-3-1.4-3-3.1c0-2,1.7-3.7,3.8-4.1l-0.8-4
		C16,21.1,14,23.8,14,26.4c0,2.9,2.8,5.3,6,5.3c0.9,0,1.7-0.2,2.4-0.5L21,24.4C19.4,24.6,18.1,25.6,18.1,27z M22.1,5.6
		c-1.6,0-2.9,3.7-2.9,7c0,0.7,0,1.3,0.2,1.9c2.7-2.4,4-4.5,4-6.5c0-0.9-0.3-1.7-1-2.4C22.4,5.7,22.3,5.6,22.1,5.6z M24.9,27.5
		c0-1.6-1.2-3.3-2.9-3.3c-0.1,0-0.2,0-0.5,0l1.4,6.6C24.2,30,24.9,28.8,24.9,27.5z"/>
</g>
<g>
	<path d="M29.5,14.1h0.6L30,20.4c0.4-0.7,1-1,1.8-1c1.2,0,2.2,0.8,2.2,1.9c0,0.8-0.5,1.8-1.7,2.7l-2.8,2.1V14.1z M30.1,21
		C30,21.8,30,22.4,30,23c0,1,0,1.6,0.1,2c1-0.7,2.4-2.6,2.4-3.7c0-0.6-0.5-1.1-1.1-1.1C30.8,20.2,30.4,20.5,30.1,21z"/>
</g>
<g>
	<path d="M35.1,6.7h0.6l-0.1,6.2c0.4-0.7,1-1,1.8-1c1.2,0,2.2,0.8,2.2,1.9c0,0.8-0.5,1.8-1.7,2.7l-2.8,2.1V6.7z M35.7,13.6
		c-0.1,0.8-0.1,1.4-0.1,1.9c0,1,0,1.6,0.1,2c1-0.7,2.4-2.6,2.4-3.7c0-0.6-0.5-1.1-1.1-1.1C36.4,12.8,36,13,35.7,13.6z"/>
</g>
<polygon fill-rule="evenodd" clip-rule="evenodd" points="54.8,23.7 100.5,18.7 100.5,16.2 54.8,21.2 "/>
<polygon fill-rule="evenodd" clip-rule="evenodd" points="54.8,20 100.5,15 100.5,12.5 54.8,17.5 "/>
<polygon fill-rule="evenodd" clip-rule="evenodd" points="115.7,13.8 161.5,8.8 161.5,6.3 115.7,11.3 "/>
<polygon fill-rule="evenodd" clip-rule="evenodd" points="115.7,10 161.5,5.1 161.5,2.6 115.7,7.6 "/>
<polygon fill-rule="evenodd" clip-rule="evenodd" points="183.2,28.6 228.7,23.7 228.7,21.2 183.2,26.2 "/>
<polygon fill-rule="evenodd" clip-rule="evenodd" points="183.2,32.4 228.7,27.4 228.7,24.9 183.2,29.9 "/>
<polygon fill-rule="evenodd" clip-rule="evenodd" points="244.1,20 289.7,18.7 289.7,16.2 244.1,17.5 "/>
<polygon fill-rule="evenodd" clip-rule="evenodd" points="244.1,23.7 289.7,22.4 289.7,20 244.1,21.2 "/>
<polygon fill-rule="evenodd" clip-rule="evenodd" points="304.8,23.7 350.6,28.6 350.6,26.2 304.8,21.2 "/>
<polygon fill-rule="evenodd" clip-rule="evenodd" points="304.8,27.4 350.6,32.4 350.6,29.9 304.8,24.9 "/>
<polygon fill-rule="evenodd" clip-rule="evenodd" points="376.9,33.6 422.7,38.6 422.7,36.1 376.9,31.1 "/>
<polygon fill-rule="evenodd" clip-rule="evenodd" points="376.9,37.3 422.7,42.3 422.7,39.8 376.9,34.8 "/>
<polygon fill-rule="evenodd" clip-rule="evenodd" points="444.4,18.7 490.1,23.7 490.1,21.2 444.4,16.2 "/>
<polygon fill-rule="evenodd" clip-rule="evenodd" points="444.4,15 490.1,20 490.1,17.5 444.4,12.5 "/>
<rect x="8.5" y="79.3" width="544.4" height="0.5"/>
<rect x="8.5" y="74.3" width="544.4" height="0.5"/>
<rect x="8.5" y="69.3" width="544.4" height="0.5"/>
<rect x="8.5" y="64.4" width="544.4" height="0.5"/>
<rect x="8.5" y="59.4" width="544.4" height="0.5"/>
<g>
	<path d="M15.7,73.8c2.9-2.6,4.7-6.1,4.7-9.2c0-2.5-1.4-4.4-3.7-4.4c-1.6,0-3.4,1.3-3.4,2.7c0,0.2,0,0.3,0.1,0.3
		c-0.1,0,0.6-0.6,1.4-0.6c0.9,0,1.5,0.8,1.5,1.7c0,1.2-0.9,2.2-2.1,2.2c-1.2,0-2.1-1.3-2.1-2.8c0-2.3,2.3-4.1,4.8-4.1
		c4.7,0,5.9,3.2,5.9,5.8c0,1.6-0.4,2.9-2,5.3C19.1,73.8,14.6,76,13,76c-0.4,0-0.6-0.2-0.6-0.5C13.8,75.1,14.9,74.5,15.7,73.8z
		 M25.7,61.1c0.6,0,1,0.4,1,1c0,0.6-0.4,1-1,1s-1-0.4-1-1C24.7,61.6,25.1,61.1,25.7,61.1z M25.7,66.1c0.6,0,1,0.4,1,1
		c0,0.6-0.4,1-1,1s-1-0.4-1-1C24.7,66.5,25.1,66.1,25.7,66.1z"/>
</g>
<g>
	<path d="M29.5,66.2h0.6L30,72.5c0.4-0.7,1-1,1.8-1c1.2,0,2.2,0.8,2.2,1.9c0,0.8-0.5,1.8-1.7,2.7l-2.8,2.1V66.2z M30.1,73.1
		C30,73.9,30,74.5,30,75.1c0,1,0,1.6,0.1,2c1-0.7,2.4-2.6,2.4-3.7c0-0.6-0.5-1.1-1.1-1.1C30.8,72.3,30.4,72.6,30.1,73.1z"/>
</g>
<g>
	<path d="M35.1,58.8h0.6L35.6,65c0.4-0.7,1-1,1.8-1c1.2,0,2.2,0.8,2.2,1.9c0,0.8-0.5,1.8-1.7,2.7l-2.8,2.1V58.8z M35.7,65.7
		c-0.1,0.8-0.1,1.4-0.1,1.9c0,1,0,1.6,0.1,2c1-0.7,2.4-2.6,2.4-3.7c0-0.6-0.5-1.1-1.1-1.1C36.4,64.8,36,65.1,35.7,65.7z"/>
</g>
<polygon fill-rule="evenodd" clip-rule="evenodd" points="48.3,85.7 94,80.7 94,78.2 48.3,83.2 "/>
<polygon fill-rule="evenodd" clip-rule="evenodd" points="48.3,89.4 94,84.4 94,82 48.3,86.9 "/>
<g>
	<path d="M175.1,78.1c-3.2,0-6.1-2.3-6.1-5.1c0-2.4,1.7-5,5.1-7.9c-0.2-0.9-0.3-1.8-0.3-2.7c0-2.6,0.9-5.1,2.4-6.3
		c1.4,1.9,2,3.7,2,5.3c0,2.2-1,4.2-3.2,6.1l0.7,3.1c0.4,0,0.6,0,0.6,0c2,0,3.6,1.5,3.6,3.5c0,1.4-1.1,2.8-2.7,3.6
		c0-0.1,0.6,2.8,0.6,3.3c0,1.9-1.7,3.2-3.7,3.2c-1.5,0-2.7-1-2.7-2.5c0-1.1,0.7-1.9,1.8-1.9c1,0,1.7,1,1.7,1.9c0,1-0.9,1.7-2,1.8
		c0.4,0.2,0.9,0.3,1.4,0.3c1.6,0,3.1-1.2,3.1-2.7c0-0.1,0-0.3,0-0.5l-0.6-2.8C176.4,78,175.8,78.1,175.1,78.1z M173.5,74.2
		c0,0.8,0.4,1.4,1.2,1.9c-1.3-0.2-2.2-1.1-2.2-2.3c0-1.5,1.3-2.8,2.9-3.1l-0.6-3c-2.8,2.1-4.3,4.1-4.3,6.1c0,2.2,2.1,4,4.5,4
		c0.7,0,1.3-0.1,1.8-0.4l-1.1-5.1C174.4,72.4,173.5,73.2,173.5,74.2z M176.5,58.2c-1.2,0-2.2,2.8-2.2,5.3c0,0.5,0,1,0.1,1.4
		c2-1.8,3-3.4,3-4.9c0-0.7-0.3-1.3-0.7-1.8C176.7,58.2,176.6,58.2,176.5,58.2z M178.6,74.6c0-1.2-0.9-2.4-2.2-2.4c0,0-0.2,0-0.4,0
		l1.1,5C178.1,76.5,178.6,75.6,178.6,74.6z"/>
</g>
<polygon fill-rule="evenodd" clip-rule="evenodd" points="109.2,75.8 154.9,70.8 154.9,68.3 109.2,73.3 "/>
<polygon fill-rule="evenodd" clip-rule="evenodd" points="109.2,79.5 154.9,74.5 154.9,72 109.2,77 "/>
<polygon fill-rule="evenodd" clip-rule="evenodd" points="189.7,70.8 235.2,65.8 235.2,63.4 189.7,68.3 "/>
<polygon fill-rule="evenodd" clip-rule="evenodd" points="189.7,67.1 235.2,62.1 235.2,59.6 189.7,64.6 "/>
<polygon fill-rule="evenodd" clip-rule="evenodd" points="244.1,84.4 289.7,83.2 289.7,80.7 244.1,82 "/>
<polygon fill-rule="evenodd" clip-rule="evenodd" points="244.1,88.2 289.7,86.9 289.7,84.4 244.1,85.7 "/>
<g>
	<path d="M365.5,71.5c2.2-2,3.6-4.6,3.6-6.9c0-1.9-1.1-3.3-2.8-3.3c-1.2,0-2.5,1-2.5,2.1c0,0.2,0,0.2,0.1,0.2c0,0,0.4-0.5,1-0.5
		c0.7,0,1.2,0.6,1.2,1.3c0,0.9-0.6,1.7-1.6,1.7s-1.5-1-1.5-2.1c0-1.8,1.7-3.1,3.6-3.1c3.5,0,4.4,2.4,4.4,4.4c0,1.2-0.3,2.2-1.5,4
		c-1.4,2.3-4.8,4-6,4c-0.3,0-0.5-0.1-0.5-0.3C364,72.5,364.9,72,365.5,71.5z M372.9,62c0.4,0,0.7,0.3,0.7,0.7c0,0.4-0.3,0.7-0.7,0.7
		c-0.4,0-0.7-0.3-0.7-0.7C372.2,62.3,372.5,62,372.9,62z M372.9,65.7c0.4,0,0.7,0.3,0.7,0.7s-0.3,0.7-0.7,0.7
		c-0.4,0-0.7-0.3-0.7-0.7S372.5,65.7,372.9,65.7z"/>
</g>
<polygon fill-rule="evenodd" clip-rule="evenodd" points="311.4,60.9 357.1,65.8 357.1,63.4 311.4,58.4 "/>
<polygon fill-rule="evenodd" clip-rule="evenodd" points="311.4,57.2 357.1,62.1 357.1,59.6 311.4,54.7 "/>
<polygon fill-rule="evenodd" clip-rule="evenodd" points="376.9,65.8 422.7,70.8 422.7,68.3 376.9,63.4 "/>
<polygon fill-rule="evenodd" clip-rule="evenodd" points="376.9,69.6 422.7,74.5 422.7,72 376.9,67.1 "/>
<polygon fill-rule="evenodd" clip-rule="evenodd" points="437.9,75.8 483.6,80.7 483.6,78.2 437.9,73.3 "/>
<polygon fill-rule="evenodd" clip-rule="evenodd" points="437.9,79.5 483.6,84.4 483.6,82 437.9,77 "/>
<rect x="46.3" y="36.9" width="10.5" height="0.8"/>
<rect x="54.6" y="17.6" width="0.5" height="18.9"/>
<g>
	<path d="M48.1,38.2c0-1.8,2.5-3.5,4.5-3.5c1.3,0,2.3,0.7,2.3,1.7c0,1.7-2.5,3.5-4.6,3.5C49.1,39.9,48.1,39.3,48.1,38.2z"/>
</g>
<rect x="69.8" y="16.1" width="0.5" height="18"/>
<g>
	<path d="M63.3,35.7c0-1.8,2.5-3.5,4.5-3.5c1.3,0,2.3,0.7,2.3,1.7c0,1.7-2.5,3.5-4.6,3.5C64.3,37.4,63.3,36.8,63.3,35.7z"/>
</g>
<rect x="85" y="14.4" width="0.5" height="17.2"/>
<g>
	<path d="M78.5,33.2c0-1.8,2.5-3.5,4.5-3.5c1.3,0,2.3,0.7,2.3,1.7c0,1.7-2.5,3.5-4.6,3.5C79.5,34.9,78.5,34.3,78.5,33.2z"/>
</g>
<rect x="100.3" y="12.7" width="0.5" height="16.4"/>
<g>
	<path d="M93.9,30.7c0-1.8,2.5-3.5,4.5-3.5c1.3,0,2.3,0.7,2.3,1.7c0,1.7-2.5,3.5-4.6,3.5C94.8,32.5,93.9,31.8,93.9,30.7z"/>
</g>
<rect x="115.5" y="7.7" width="0.5" height="18.9"/>
<g>
	<path d="M109.1,28.3c0-1.8,2.5-3.5,4.5-3.5c1.3,0,2.3,0.7,2.3,1.7c0,1.7-2.5,3.5-4.6,3.5C110,30,109.1,29.3,109.1,28.3z"/>
</g>
<rect x="130.7" y="6.2" width="0.5" height="18"/>
<g>
	<path d="M124.3,25.8c0-1.8,2.5-3.5,4.5-3.5c1.3,0,2.3,0.7,2.3,1.7c0,1.7-2.5,3.5-4.6,3.5C125.2,27.5,124.3,26.9,124.3,25.8z"/>
</g>
<rect x="145.9" y="4.5" width="0.5" height="17.2"/>
<g>
	<path d="M139.4,23.3c0-1.8,2.5-3.5,4.5-3.5c1.3,0,2.3,0.7,2.3,1.7c0,1.7-2.5,3.5-4.6,3.5C140.4,25,139.4,24.4,139.4,23.3z"/>
</g>
<rect x="161.2" y="2.8" width="0.5" height="16.4"/>
<g>
	<path d="M154.8,20.8c0-1.8,2.5-3.5,4.5-3.5c1.3,0,2.3,0.7,2.3,1.7c0,1.7-2.5,3.5-4.6,3.5C155.8,22.5,154.8,21.9,154.8,20.8z"/>
</g>
<rect x="182.9" y="18.3" width="0.5" height="14"/>
<g>
	<path d="M183,18.3c0-1.8,2.5-3.5,4.5-3.5c1.3,0,2.3,0.7,2.3,1.7c0,1.7-2.5,3.5-4.6,3.5C184,20.1,183,19.4,183,18.3z"/>
</g>
<rect x="198.1" y="15.8" width="0.5" height="14.9"/>
<g>
	<path d="M198.2,15.9c0-1.8,2.5-3.5,4.5-3.5c1.3,0,2.3,0.7,2.3,1.7c0,1.7-2.5,3.5-4.6,3.5C199.2,17.6,198.2,16.9,198.2,15.9z"/>
</g>
<rect x="213.3" y="13.3" width="0.5" height="15.7"/>
<g>
	<path d="M213.4,13.4c0-1.8,2.5-3.5,4.5-3.5c1.3,0,2.3,0.7,2.3,1.7c0,1.7-2.5,3.5-4.6,3.5C214.4,15.1,213.4,14.5,213.4,13.4z"/>
</g>
<rect x="228.5" y="10.8" width="0.5" height="16.4"/>
<g>
	<path d="M228.6,10.9c0-1.8,2.5-3.5,4.5-3.5c1.3,0,2.3,0.7,2.3,1.7c0,1.7-2.5,3.5-4.6,3.5C229.6,12.6,228.6,12,228.6,10.9z"/>
</g>
<rect x="242.1" y="7.2" width="10.5" height="0.8"/>
<rect x="243.9" y="8.3" width="0.5" height="15.2"/>
<g>
	<path d="M243.9,8.4c0-1.8,2.5-3.5,4.5-3.5c1.3,0,2.3,0.7,2.3,1.7c0,1.7-2.5,3.5-4.6,3.5C244.9,10.1,243.9,9.5,243.9,8.4z"/>
</g>
<rect x="257.3" y="7.2" width="10.5" height="0.8"/>
<rect x="259" y="5.9" width="0.5" height="17.4"/>
<g>
	<path d="M259.1,5.9c0-1.8,2.5-3.5,4.5-3.5c1.3,0,2.3,0.7,2.3,1.7c0,1.7-2.5,3.5-4.6,3.5C260.1,7.7,259.1,7,259.1,5.9z"/>
</g>
<rect x="272.5" y="7.2" width="10.5" height="0.8"/>
<rect x="272.5" y="2.2" width="10.5" height="0.8"/>
<rect x="274.2" y="3.4" width="0.5" height="19.4"/>
<g>
	<path d="M274.3,3.5c0-1.8,2.5-3.5,4.5-3.5c1.3,0,2.3,0.7,2.3,1.7c0,1.7-2.5,3.5-4.6,3.5C275.3,5.2,274.3,4.5,274.3,3.5z"/>
</g>
<rect x="287.6" y="7.2" width="10.5" height="0.8"/>
<rect x="289.4" y="5.9" width="0.5" height="16.4"/>
<g>
	<path d="M289.5,5.9c0-1.8,2.5-3.5,4.5-3.5c1.3,0,2.3,0.7,2.3,1.7c0,1.7-2.5,3.5-4.6,3.5C290.5,7.7,289.5,7,289.5,5.9z"/>
</g>
<rect x="302.8" y="7.2" width="10.5" height="0.8"/>
<rect x="304.6" y="8.3" width="0.5" height="18.9"/>
<g>
	<path d="M304.7,8.4c0-1.8,2.5-3.5,4.5-3.5c1.3,0,2.3,0.7,2.3,1.7c0,1.7-2.5,3.5-4.6,3.5C305.7,10.1,304.7,9.5,304.7,8.4z"/>
</g>
<rect x="320" y="10.8" width="0.5" height="18"/>
<g>
	<path d="M320,10.9c0-1.8,2.5-3.5,4.5-3.5c1.3,0,2.3,0.7,2.3,1.7c0,1.7-2.5,3.5-4.6,3.5C321,12.6,320,12,320,10.9z"/>
</g>
<rect x="335.2" y="13.3" width="0.5" height="17.2"/>
<g>
	<path d="M335.2,13.4c0-1.8,2.5-3.5,4.5-3.5c1.3,0,2.3,0.7,2.3,1.7c0,1.7-2.5,3.5-4.6,3.5C336.2,15.1,335.2,14.5,335.2,13.4z"/>
</g>
<rect x="350.3" y="15.8" width="0.5" height="16.4"/>
<g>
	<path d="M350.4,15.9c0-1.8,2.5-3.5,4.5-3.5c1.3,0,2.3,0.7,2.3,1.7c0,1.7-2.5,3.5-4.6,3.5C351.4,17.6,350.4,16.9,350.4,15.9z"/>
</g>
<rect x="376.7" y="18.3" width="0.5" height="18.9"/>
<g>
	<path d="M376.8,18.3c0-1.8,2.5-3.5,4.5-3.5c1.3,0,2.3,0.7,2.3,1.7c0,1.7-2.5,3.5-4.6,3.5C377.7,20.1,376.8,19.4,376.8,18.3z"/>
</g>
<rect x="391.9" y="20.7" width="0.5" height="18"/>
<g>
	<path d="M392,20.8c0-1.8,2.5-3.5,4.5-3.5c1.3,0,2.3,0.7,2.3,1.7c0,1.7-2.5,3.5-4.6,3.5C392.9,22.5,392,21.9,392,20.8z"/>
</g>
<rect x="407.2" y="23.2" width="0.5" height="17.2"/>
<g>
	<path d="M407.3,23.3c0-1.8,2.5-3.5,4.5-3.5c1.3,0,2.3,0.7,2.3,1.7c0,1.7-2.5,3.5-4.6,3.5C408.3,25,407.3,24.4,407.3,23.3z"/>
</g>
<rect x="422.4" y="25.7" width="0.5" height="16.4"/>
<g>
	<path d="M422.5,25.8c0-1.8,2.5-3.5,4.5-3.5c1.3,0,2.3,0.7,2.3,1.7c0,1.7-2.5,3.5-4.6,3.5C423.5,27.5,422.5,26.9,422.5,25.8z"/>
</g>
<rect x="444.1" y="12.7" width="0.5" height="14"/>
<g>
	<path d="M437.7,28.3c0-1.8,2.5-3.5,4.5-3.5c1.3,0,2.3,0.7,2.3,1.7c0,1.7-2.5,3.5-4.6,3.5C438.7,30,437.7,29.3,437.7,28.3z"/>
</g>
<rect x="459.3" y="14.2" width="0.5" height="14.9"/>
<g>
	<path d="M452.9,30.7c0-1.8,2.5-3.5,4.5-3.5c1.3,0,2.3,0.7,2.3,1.7c0,1.7-2.5,3.5-4.6,3.5C453.9,32.5,452.9,31.8,452.9,30.7z"/>
</g>
<rect x="474.7" y="15.9" width="0.5" height="15.7"/>
<g>
	<path d="M468.2,33.2c0-1.8,2.5-3.5,4.5-3.5c1.3,0,2.3,0.7,2.3,1.7c0,1.7-2.5,3.5-4.6,3.5C469.2,34.9,468.2,34.3,468.2,33.2z"/>
</g>
<rect x="489.9" y="17.6" width="0.5" height="16.4"/>
<g>
	<path d="M483.4,35.7c0-1.8,2.5-3.5,4.5-3.5c1.3,0,2.3,0.7,2.3,1.7c0,1.7-2.5,3.5-4.6,3.5C484.4,37.4,483.4,36.8,483.4,35.7z"/>
</g>
<rect x="496.8" y="36.9" width="10.7" height="0.8"/>
<rect x="505.2" y="20" width="0.5" height="16.6"/>
<g>
	<path d="M502.9,34.6c1.6,0,2.7,0.7,2.7,2c0,1.9-2.3,3.4-4.5,3.4c-1.3,0-2.4-0.7-2.4-1.8C498.6,36.4,500.9,34.6,502.9,34.6z
		 M499.1,38.5c0,0.6,0.4,0.9,1.1,0.9c1.4,0,4.9-2.1,4.9-3.3c0-0.6-0.4-0.9-1.1-0.9C502.7,35.2,499.1,37.2,499.1,38.5z"/>
</g>
<rect x="48.1" y="72.8" width="0.5" height="16.4"/>
<g>
	<path d="M48.1,72.9c0-1.8,2.5-3.5,4.5-3.5c1.3,0,2.3,0.7,2.3,1.7c0,1.7-2.5,3.5-4.6,3.5C49.1,74.6,48.1,74,48.1,72.9z"/>
</g>
<rect x="63.3" y="70.3" width="0.5" height="17.4"/>
<g>
	<path d="M63.3,70.4c0-1.8,2.5-3.5,4.5-3.5c1.3,0,2.3,0.7,2.3,1.7c0,1.7-2.5,3.5-4.6,3.5C64.3,72.1,63.3,71.5,63.3,70.4z"/>
</g>
<rect x="78.4" y="67.9" width="0.5" height="18.1"/>
<g>
	<path d="M78.5,67.9c0-1.8,2.5-3.5,4.5-3.5c1.3,0,2.3,0.7,2.3,1.7c0,1.7-2.5,3.5-4.6,3.5C79.5,69.7,78.5,69,78.5,67.9z"/>
</g>
<rect x="93.8" y="65.4" width="0.5" height="18.9"/>
<g>
	<path d="M93.9,65.5c0-1.8,2.5-3.5,4.5-3.5c1.3,0,2.3,0.7,2.3,1.7c0,1.7-2.5,3.5-4.6,3.5C94.8,67.2,93.9,66.5,93.9,65.5z"/>
</g>
<rect x="109" y="62.9" width="0.5" height="16.4"/>
<g>
	<path d="M109.1,63c0-1.8,2.5-3.5,4.5-3.5c1.3,0,2.3,0.7,2.3,1.7c0,1.7-2.5,3.5-4.6,3.5C110,64.7,109.1,64.1,109.1,63z"/>
</g>
<rect x="124.2" y="60.4" width="0.5" height="17.4"/>
<g>
	<path d="M124.3,60.5c0-1.8,2.5-3.5,4.5-3.5c1.3,0,2.3,0.7,2.3,1.7c0,1.7-2.5,3.5-4.6,3.5C125.2,62.2,124.3,61.6,124.3,60.5z"/>
</g>
<rect x="139.4" y="57.9" width="0.5" height="18.1"/>
<g>
	<path d="M139.4,58c0-1.8,2.5-3.5,4.5-3.5c1.3,0,2.3,0.7,2.3,1.7c0,1.7-2.5,3.5-4.6,3.5C140.4,59.7,139.4,59.1,139.4,58z"/>
</g>
<rect x="152.9" y="54.3" width="10.5" height="0.8"/>
<rect x="154.7" y="55.5" width="0.5" height="18.9"/>
<g>
	<path d="M154.8,55.5c0-1.8,2.5-3.5,4.5-3.5c1.3,0,2.3,0.7,2.3,1.7c0,1.7-2.5,3.5-4.6,3.5C155.8,57.3,154.8,56.6,154.8,55.5z"/>
</g>
<rect x="189.4" y="64.8" width="0.5" height="16.4"/>
<g>
	<path d="M183,82.8c0-1.8,2.5-3.5,4.5-3.5c1.3,0,2.3,0.7,2.3,1.7c0,1.7-2.5,3.5-4.6,3.5C184,84.5,183,83.9,183,82.8z"/>
</g>
<rect x="204.6" y="63.2" width="0.5" height="15.5"/>
<g>
	<path d="M198.2,80.3c0-1.8,2.5-3.5,4.5-3.5c1.3,0,2.3,0.7,2.3,1.7c0,1.7-2.5,3.5-4.6,3.5C199.2,82.1,198.2,81.4,198.2,80.3z"/>
</g>
<rect x="219.8" y="61.5" width="0.5" height="14.7"/>
<g>
	<path d="M213.4,77.9c0-1.8,2.5-3.5,4.5-3.5c1.3,0,2.3,0.7,2.3,1.7c0,1.7-2.5,3.5-4.6,3.5C214.4,79.6,213.4,78.9,213.4,77.9z"/>
</g>
<rect x="235" y="59.8" width="0.5" height="14"/>
<g>
	<path d="M228.6,75.4c0-1.8,2.5-3.5,4.5-3.5c1.3,0,2.3,0.7,2.3,1.7c0,1.7-2.5,3.5-4.6,3.5C229.6,77.1,228.6,76.5,228.6,75.4z"/>
</g>
<rect x="243.9" y="72.8" width="0.5" height="15.2"/>
<g>
	<path d="M243.9,72.9c0-1.8,2.5-3.5,4.5-3.5c1.3,0,2.3,0.7,2.3,1.7c0,1.7-2.5,3.5-4.6,3.5C244.9,74.6,243.9,74,243.9,72.9z"/>
</g>
<rect x="259" y="70.3" width="0.5" height="17.4"/>
<g>
	<path d="M259.1,70.4c0-1.8,2.5-3.5,4.5-3.5c1.3,0,2.3,0.7,2.3,1.7c0,1.7-2.5,3.5-4.6,3.5C260.1,72.1,259.1,71.5,259.1,70.4z"/>
</g>
<rect x="274.2" y="67.9" width="0.5" height="19.4"/>
<g>
	<path d="M274.3,67.9c0-1.8,2.5-3.5,4.5-3.5c1.3,0,2.3,0.7,2.3,1.7c0,1.7-2.5,3.5-4.6,3.5C275.3,69.7,274.3,69,274.3,67.9z"/>
</g>
<rect x="289.4" y="70.3" width="0.5" height="16.4"/>
<g>
	<path d="M289.5,70.4c0-1.8,2.5-3.5,4.5-3.5c1.3,0,2.3,0.7,2.3,1.7c0,1.7-2.5,3.5-4.6,3.5C290.5,72.1,289.5,71.5,289.5,70.4z"/>
</g>
<rect x="311.1" y="54.8" width="0.5" height="16.4"/>
<g>
	<path d="M304.7,72.9c0-1.8,2.5-3.5,4.5-3.5c1.3,0,2.3,0.7,2.3,1.7c0,1.7-2.5,3.5-4.6,3.5C305.7,74.6,304.7,74,304.7,72.9z"/>
</g>
<rect x="326.5" y="56.4" width="0.5" height="17.4"/>
<g>
	<path d="M320,75.4c0-1.8,2.5-3.5,4.5-3.5c1.3,0,2.3,0.7,2.3,1.7c0,1.7-2.5,3.5-4.6,3.5C321,77.1,320,76.5,320,75.4z"/>
</g>
<rect x="341.7" y="58.1" width="0.5" height="18.1"/>
<g>
	<path d="M335.2,77.9c0-1.8,2.5-3.5,4.5-3.5c1.3,0,2.3,0.7,2.3,1.7c0,1.7-2.5,3.5-4.6,3.5C336.2,79.6,335.2,78.9,335.2,77.9z"/>
</g>
<rect x="356.9" y="59.8" width="0.5" height="18.9"/>
<g>
	<path d="M350.4,80.3c0-1.8,2.5-3.5,4.5-3.5c1.3,0,2.3,0.7,2.3,1.7c0,1.7-2.5,3.5-4.6,3.5C351.4,82.1,350.4,81.4,350.4,80.3z"/>
</g>
<rect x="374.9" y="54.3" width="10.5" height="0.8"/>
<rect x="376.7" y="53" width="0.5" height="16.4"/>
<g>
	<path d="M376.8,53.1c0-1.8,2.5-3.5,4.5-3.5c1.3,0,2.3,0.7,2.3,1.7c0,1.7-2.5,3.5-4.6,3.5C377.7,54.8,376.8,54.1,376.8,53.1z"/>
</g>
<rect x="390.1" y="54.3" width="10.5" height="0.8"/>
<rect x="391.9" y="55.5" width="0.5" height="15.5"/>
<g>
	<path d="M392,55.5c0-1.8,2.5-3.5,4.5-3.5c1.3,0,2.3,0.7,2.3,1.7c0,1.7-2.5,3.5-4.6,3.5C392.9,57.3,392,56.6,392,55.5z"/>
</g>
<rect x="407.2" y="57.9" width="0.5" height="14.7"/>
<g>
	<path d="M407.3,58c0-1.8,2.5-3.5,4.5-3.5c1.3,0,2.3,0.7,2.3,1.7c0,1.7-2.5,3.5-4.6,3.5C408.3,59.7,407.3,59.1,407.3,58z"/>
</g>
<rect x="422.4" y="60.4" width="0.5" height="14"/>
<g>
	<path d="M422.5,60.5c0-1.8,2.5-3.5,4.5-3.5c1.3,0,2.3,0.7,2.3,1.7c0,1.7-2.5,3.5-4.6,3.5C423.5,62.2,422.5,61.6,422.5,60.5z"/>
</g>
<rect x="437.6" y="62.9" width="0.5" height="16.4"/>
<g>
	<path d="M437.7,63c0-1.8,2.5-3.5,4.5-3.5c1.3,0,2.3,0.7,2.3,1.7c0,1.7-2.5,3.5-4.6,3.5C438.7,64.7,437.7,64.1,437.7,63z"/>
</g>
<rect x="452.8" y="65.4" width="0.5" height="15.5"/>
<g>
	<path d="M452.9,65.5c0-1.8,2.5-3.5,4.5-3.5c1.3,0,2.3,0.7,2.3,1.7c0,1.7-2.5,3.5-4.6,3.5C453.9,67.2,452.9,66.5,452.9,65.5z"/>
</g>
<rect x="468.2" y="67.9" width="0.5" height="14.7"/>
<g>
	<path d="M468.2,67.9c0-1.8,2.5-3.5,4.5-3.5c1.3,0,2.3,0.7,2.3,1.7c0,1.7-2.5,3.5-4.6,3.5C469.2,69.7,468.2,69,468.2,67.9z"/>
</g>
<rect x="483.3" y="70.3" width="0.5" height="14"/>
<g>
	<path d="M483.4,70.4c0-1.8,2.5-3.5,4.5-3.5c1.3,0,2.3,0.7,2.3,1.7c0,1.7-2.5,3.5-4.6,3.5C484.4,72.1,483.4,71.5,483.4,70.4z"/>
</g>
<rect x="505.2" y="54.7" width="0.5" height="16.6"/>
<g>
	<path d="M502.9,69.3c1.6,0,2.7,0.7,2.7,2c0,1.9-2.3,3.4-4.5,3.4c-1.3,0-2.4-0.7-2.4-1.8C498.6,71.1,500.9,69.3,502.9,69.3z
		 M499.1,73.2c0,0.6,0.4,0.9,1.1,0.9c1.4,0,4.9-2.1,4.9-3.3c0-0.6-0.4-0.9-1.1-0.9C502.7,69.9,499.1,72,499.1,73.2z"/>
</g>
</svg>
