<?xml version="1.0" encoding="utf-8"?>

<!--
	ScaleBook
	Copyright (c) Leland Jansen 2015. All rights reserved.
-->

<!DOCTYPE svg PUBLIC "-//W3C//DTD SVG 1.1//EN" "http://www.w3.org/Graphics/SVG/1.1/DTD/svg11.dtd">
<svg version="1.1" id="Layer_1" xmlns="http://www.w3.org/2000/svg" xmlns:xlink="http://www.w3.org/1999/xlink" x="0px" y="0px"
	 viewBox="0 0 552.9 89.4" enable-background="new 0 0 552.9 89.4" xml:space="preserve">
<rect x="8.4" y="15" width="0.8" height="67"/>
<g>
	<path d="M7.4,15.7c-1.9,1.1-3.6,5.8-3.6,9.4c0,2.3,1.4,9.9,1.4,12.3c0,5-1.5,8.6-4.6,11.1c3,2.4,4.6,6.1,4.6,11.1
		c0,2.3-1.4,9.9-1.4,12.3c0,3.8,1.7,8.4,3.6,9.5V82c-3.5-2.3-5.8-8.2-5.8-13.1c0-2.1,1.7-9.4,1.7-11.5c0-3.8-1-6.6-2.9-8.2
		C0.1,48.9,0,48.7,0,48.5c0-0.2,0.1-0.4,0.5-0.7c1.9-1.7,2.9-4.2,2.9-7.6c0-2.1-1.7-10-1.7-12.2c0-5.2,2.1-10.4,5.8-13.1V15.7z"/>
</g>
<rect x="547.8" y="15" width="0.8" height="67"/>
<rect x="550.4" y="15" width="2.5" height="67"/>
<rect x="8.5" y="34.6" width="544.4" height="0.5"/>
<rect x="8.5" y="29.6" width="544.4" height="0.5"/>
<rect x="8.5" y="24.7" width="544.4" height="0.5"/>
<rect x="8.5" y="19.7" width="544.4" height="0.5"/>
<rect x="8.5" y="14.8" width="544.4" height="0.5"/>
<g>
	<path d="M20.3,34.7c-4.2,0-8.1-3.1-8.1-6.9c0-3.2,2.3-6.7,6.8-10.5c-0.3-1.2-0.4-2.4-0.4-3.6c0-3.5,1.2-6.8,3.2-8.5
		c1.8,2.5,2.7,4.9,2.7,7.1c0,2.9-1.3,5.6-4.3,8.1l0.9,4.2c0.5,0,0.8-0.1,0.8-0.1c2.6,0,4.8,2,4.8,4.7c0,1.9-1.4,3.7-3.6,4.8
		c0-0.1,0.9,3.8,0.9,4.3c0,2.5-2.3,4.2-4.9,4.2c-2,0-3.6-1.3-3.6-3.4c0-1.4,1-2.6,2.4-2.6c1.3,0,2.3,1.3,2.3,2.5
		c0,1.4-1.2,2.3-2.7,2.5c0.6,0.3,1.2,0.5,1.9,0.5c2.1,0,4.1-1.6,4.1-3.6c0-0.2,0-0.4-0.1-0.6l-0.8-3.7
		C21.9,34.5,21.2,34.7,20.3,34.7z M18.1,29.5c0,1,0.5,1.9,1.6,2.5c-1.8-0.3-3-1.4-3-3.1c0-2,1.7-3.7,3.8-4.1l-0.8-4
		C16,23.6,14,26.3,14,28.9c0,2.9,2.8,5.3,6,5.3c0.9,0,1.7-0.2,2.4-0.5L21,26.9C19.4,27.1,18.1,28.1,18.1,29.5z M22.1,8.1
		c-1.6,0-2.9,3.7-2.9,7c0,0.7,0,1.3,0.2,1.9c2.7-2.4,4-4.5,4-6.5c0-0.9-0.3-1.7-1-2.4C22.4,8.1,22.3,8.1,22.1,8.1z M24.9,30
		c0-1.6-1.2-3.3-2.9-3.3c-0.1,0-0.2,0-0.5,0l1.4,6.6C24.2,32.5,24.9,31.3,24.9,30z"/>
</g>
<g>
	<path d="M29.5,16.6h0.6L30,22.9c0.4-0.7,1-1,1.8-1c1.2,0,2.2,0.8,2.2,1.9c0,0.8-0.5,1.8-1.7,2.7l-2.8,2.1V16.6z M30.1,23.5
		C30,24.3,30,24.9,30,25.5c0,1,0,1.6,0.1,2c1-0.7,2.4-2.6,2.4-3.7c0-0.6-0.5-1.1-1.1-1.1C30.8,22.7,30.4,23,30.1,23.5z"/>
</g>
<g>
	<path d="M35.1,9.2h0.6l-0.1,6.2c0.4-0.7,1-1,1.8-1c1.2,0,2.2,0.8,2.2,1.9c0,0.8-0.5,1.8-1.7,2.7l-2.8,2.1V9.2z M35.7,16.1
		c-0.1,0.8-0.1,1.4-0.1,1.9c0,1,0,1.6,0.1,2c1-0.7,2.4-2.6,2.4-3.7c0-0.6-0.5-1.1-1.1-1.1C36.4,15.2,36,15.5,35.7,16.1z"/>
</g>
<g>
	<path d="M40.7,19.1h0.6l-0.1,6.2c0.4-0.7,1-1,1.8-1c1.2,0,2.2,0.8,2.2,1.9c0,0.8-0.5,1.8-1.7,2.7L40.7,31V19.1z M41.3,26
		c-0.1,0.8-0.1,1.4-0.1,1.9c0,1,0,1.6,0.1,2c1-0.7,2.4-2.6,2.4-3.7c0-0.6-0.5-1.1-1.1-1.1C42,25.2,41.6,25.4,41.3,26z"/>
</g>
<g>
	<path d="M46.3,11.6h0.6l-0.1,6.2c0.4-0.7,1-1,1.8-1c1.2,0,2.2,0.8,2.2,1.9c0,0.8-0.5,1.8-1.7,2.7l-2.8,2.1V11.6z M46.9,18.6
		c-0.1,0.8-0.1,1.4-0.1,1.9c0,1,0,1.6,0.1,2c1-0.7,2.4-2.6,2.4-3.7c0-0.6-0.5-1.1-1.1-1.1C47.6,17.7,47.2,18,46.9,18.6z"/>
</g>
<g>
	<path d="M51.9,21.6h0.6l-0.1,6.2c0.4-0.7,1-1,1.8-1c1.2,0,2.2,0.8,2.2,1.9c0,0.8-0.5,1.8-1.7,2.7l-2.8,2.1V21.6z M52.4,28.5
		c-0.1,0.8-0.1,1.4-0.1,1.9c0,1,0,1.6,0.1,2c1-0.7,2.4-2.6,2.4-3.7c0-0.6-0.5-1.1-1.1-1.1C53.2,27.6,52.7,27.9,52.4,28.5z"/>
</g>
<g>
	<path d="M57.4,14.1h0.6l-0.1,6.2c0.4-0.7,1-1,1.8-1c1.2,0,2.2,0.8,2.2,1.9c0,0.8-0.5,1.8-1.7,2.7l-2.8,2.1V14.1z M58,21
		c-0.1,0.8-0.1,1.4-0.1,1.9c0,1,0,1.6,0.1,2c1-0.7,2.4-2.6,2.4-3.7c0-0.6-0.5-1.1-1.1-1.1C58.7,20.2,58.3,20.5,58,21z"/>
</g>
<g>
	<path d="M63,24h0.6l-0.1,6.2c0.4-0.7,1-1,1.8-1c1.2,0,2.2,0.8,2.2,1.9c0,0.8-0.5,1.8-1.7,2.7L63,36V24z M63.6,31
		c-0.1,0.8-0.1,1.4-0.1,1.9c0,1,0,1.6,0.1,2c1-0.7,2.4-2.6,2.4-3.7c0-0.6-0.5-1.1-1.1-1.1C64.3,30.1,63.9,30.4,63.6,31z"/>
</g>
<polygon fill-rule="evenodd" clip-rule="evenodd" points="82.7,26.2 125.7,21.2 125.7,18.7 82.7,23.7 "/>
<polygon fill-rule="evenodd" clip-rule="evenodd" points="82.7,22.4 125.7,17.5 125.7,15 82.7,20 "/>
<polygon fill-rule="evenodd" clip-rule="evenodd" points="133.6,41 176.5,36.1 176.5,33.6 133.6,38.6 "/>
<polygon fill-rule="evenodd" clip-rule="evenodd" points="133.6,44.8 176.5,39.8 176.5,37.3 133.6,42.3 "/>
<polygon fill-rule="evenodd" clip-rule="evenodd" points="202.8,31.1 245.8,26.2 245.8,23.7 202.8,28.6 "/>
<polygon fill-rule="evenodd" clip-rule="evenodd" points="202.8,34.8 245.8,29.9 245.8,27.4 202.8,32.4 "/>
<polygon fill-rule="evenodd" clip-rule="evenodd" points="260.2,22.4 303.1,21.2 303.1,18.7 260.2,20 "/>
<polygon fill-rule="evenodd" clip-rule="evenodd" points="260.2,26.2 303.1,24.9 303.1,22.4 260.2,23.7 "/>
<polygon fill-rule="evenodd" clip-rule="evenodd" points="317.6,21.2 360.5,26.2 360.5,23.7 317.6,18.7 "/>
<polygon fill-rule="evenodd" clip-rule="evenodd" points="317.6,24.9 360.5,29.9 360.5,27.4 317.6,22.4 "/>
<polygon fill-rule="evenodd" clip-rule="evenodd" points="386.9,31.1 429.8,36.1 429.8,33.6 386.9,28.6 "/>
<polygon fill-rule="evenodd" clip-rule="evenodd" points="386.9,34.8 429.8,39.8 429.8,37.3 386.9,32.4 "/>
<polygon fill-rule="evenodd" clip-rule="evenodd" points="450.7,16.2 493.7,21.2 493.7,18.7 450.7,13.8 "/>
<polygon fill-rule="evenodd" clip-rule="evenodd" points="450.7,12.5 493.7,17.5 493.7,15 450.7,10 "/>
<rect x="8.5" y="81.7" width="544.4" height="0.5"/>
<rect x="8.5" y="76.8" width="544.4" height="0.5"/>
<rect x="8.5" y="71.8" width="544.4" height="0.5"/>
<rect x="8.5" y="66.9" width="544.4" height="0.5"/>
<rect x="8.5" y="61.9" width="544.4" height="0.5"/>
<g>
	<path d="M15.7,76.3c2.9-2.6,4.7-6.1,4.7-9.2c0-2.5-1.4-4.4-3.7-4.4c-1.6,0-3.4,1.3-3.4,2.7c0,0.2,0,0.3,0.1,0.3
		c-0.1,0,0.6-0.6,1.4-0.6c0.9,0,1.5,0.8,1.5,1.7c0,1.2-0.9,2.2-2.1,2.2c-1.2,0-2.1-1.3-2.1-2.8c0-2.3,2.3-4.1,4.8-4.1
		c4.7,0,5.9,3.2,5.9,5.8c0,1.6-0.4,2.9-2,5.3c-1.9,3.1-6.4,5.3-8.1,5.3c-0.4,0-0.6-0.2-0.6-0.5C13.8,77.6,14.9,77,15.7,76.3z
		 M25.7,63.6c0.6,0,1,0.4,1,1c0,0.6-0.4,1-1,1s-1-0.4-1-1C24.7,64,25.1,63.6,25.7,63.6z M25.7,68.6c0.6,0,1,0.4,1,1c0,0.6-0.4,1-1,1
		s-1-0.4-1-1C24.7,69,25.1,68.6,25.7,68.6z"/>
</g>
<g>
	<path d="M29.5,68.7h0.6L30,74.9c0.4-0.7,1-1,1.8-1c1.2,0,2.2,0.8,2.2,1.9c0,0.8-0.5,1.8-1.7,2.7l-2.8,2.1V68.7z M30.1,75.6
		C30,76.3,30,77,30,77.5c0,1,0,1.6,0.1,2c1-0.7,2.4-2.6,2.4-3.7c0-0.6-0.5-1.1-1.1-1.1C30.8,74.8,30.4,75,30.1,75.6z"/>
</g>
<g>
	<path d="M35.1,61.3h0.6l-0.1,6.2c0.4-0.7,1-1,1.8-1c1.2,0,2.2,0.8,2.2,1.9c0,0.8-0.5,1.8-1.7,2.7l-2.8,2.1V61.3z M35.7,68.2
		c-0.1,0.8-0.1,1.4-0.1,1.9c0,1,0,1.6,0.1,2c1-0.7,2.4-2.6,2.4-3.7c0-0.6-0.5-1.1-1.1-1.1C36.4,67.3,36,67.6,35.7,68.2z"/>
</g>
<g>
	<path d="M40.7,71.2h0.6l-0.1,6.2c0.4-0.7,1-1,1.8-1c1.2,0,2.2,0.8,2.2,1.9c0,0.8-0.5,1.8-1.7,2.7l-2.8,2.1V71.2z M41.3,78.1
		c-0.1,0.8-0.1,1.4-0.1,1.9c0,1,0,1.6,0.1,2c1-0.7,2.4-2.6,2.4-3.7c0-0.6-0.5-1.1-1.1-1.1C42,77.2,41.6,77.5,41.3,78.1z"/>
</g>
<g>
	<path d="M46.3,63.7h0.6L46.8,70c0.4-0.7,1-1,1.8-1c1.2,0,2.2,0.8,2.2,1.9c0,0.8-0.5,1.8-1.7,2.7l-2.8,2.1V63.7z M46.9,70.6
		c-0.1,0.8-0.1,1.4-0.1,1.9c0,1,0,1.6,0.1,2c1-0.7,2.4-2.6,2.4-3.7c0-0.6-0.5-1.1-1.1-1.1C47.6,69.8,47.2,70.1,46.9,70.6z"/>
</g>
<g>
	<path d="M51.9,73.7h0.6l-0.1,6.2c0.4-0.7,1-1,1.8-1c1.2,0,2.2,0.8,2.2,1.9c0,0.8-0.5,1.8-1.7,2.7l-2.8,2.1V73.7z M52.4,80.6
		c-0.1,0.8-0.1,1.4-0.1,1.9c0,1,0,1.6,0.1,2c1-0.7,2.4-2.6,2.4-3.7c0-0.6-0.5-1.1-1.1-1.1C53.2,79.7,52.7,80,52.4,80.6z"/>
</g>
<g>
	<path d="M57.4,66.2h0.6l-0.1,6.2c0.4-0.7,1-1,1.8-1c1.2,0,2.2,0.8,2.2,1.9c0,0.8-0.5,1.8-1.7,2.7l-2.8,2.1V66.2z M58,73.1
		c-0.1,0.8-0.1,1.4-0.1,1.9c0,1,0,1.6,0.1,2c1-0.7,2.4-2.6,2.4-3.7c0-0.6-0.5-1.1-1.1-1.1C58.7,72.3,58.3,72.6,58,73.1z"/>
</g>
<g>
	<path d="M63,76.1h0.6l-0.1,6.2c0.4-0.7,1-1,1.8-1c1.2,0,2.2,0.8,2.2,1.9c0,0.8-0.5,1.8-1.7,2.7L63,88.1V76.1z M63.6,83
		c-0.1,0.8-0.1,1.4-0.1,1.9c0,1,0,1.6,0.1,2c1-0.7,2.4-2.6,2.4-3.7c0-0.6-0.5-1.1-1.1-1.1C64.3,82.2,63.9,82.5,63.6,83z"/>
</g>
<polygon fill-rule="evenodd" clip-rule="evenodd" points="76.2,83.2 119.1,78.2 119.1,75.8 76.2,80.7 "/>
<polygon fill-rule="evenodd" clip-rule="evenodd" points="76.2,86.9 119.1,82 119.1,79.5 76.2,84.4 "/>
<g>
	<path d="M196.7,80.6c-3.2,0-6.1-2.3-6.1-5.1c0-2.4,1.7-5,5.1-7.9c-0.2-0.9-0.3-1.8-0.3-2.7c0-2.6,0.9-5.1,2.4-6.3
		c1.4,1.9,2,3.7,2,5.3c0,2.2-1,4.2-3.2,6.1l0.7,3.1c0.4,0,0.6,0,0.6,0c2,0,3.6,1.5,3.6,3.5c0,1.4-1.1,2.8-2.7,3.6
		c0-0.1,0.6,2.8,0.6,3.3c0,1.9-1.7,3.2-3.7,3.2c-1.5,0-2.7-1-2.7-2.5c0-1.1,0.7-1.9,1.8-1.9c1,0,1.7,1,1.7,1.9c0,1-0.9,1.7-2,1.8
		c0.4,0.2,0.9,0.3,1.4,0.3c1.6,0,3.1-1.2,3.1-2.7c0-0.1,0-0.3,0-0.5l-0.6-2.8C197.9,80.5,197.4,80.6,196.7,80.6z M195,76.7
		c0,0.8,0.4,1.4,1.2,1.9c-1.3-0.2-2.2-1.1-2.2-2.3c0-1.5,1.3-2.8,2.9-3.1l-0.6-3c-2.8,2.1-4.3,4.1-4.3,6.1c0,2.2,2.1,4,4.5,4
		c0.7,0,1.3-0.1,1.8-0.4l-1.1-5.1C196,74.9,195,75.7,195,76.7z M198.1,60.7c-1.2,0-2.2,2.8-2.2,5.3c0,0.5,0,1,0.1,1.4
		c2-1.8,3-3.4,3-4.9c0-0.7-0.3-1.3-0.7-1.8C198.3,60.7,198.2,60.7,198.1,60.7z M200.1,77.1c0-1.2-0.9-2.4-2.2-2.4c0,0-0.2,0-0.4,0
		l1.1,5C199.6,78.9,200.1,78.1,200.1,77.1z"/>
</g>
<polygon fill-rule="evenodd" clip-rule="evenodd" points="133.6,73.3 176.5,68.3 176.5,65.8 133.6,70.8 "/>
<polygon fill-rule="evenodd" clip-rule="evenodd" points="133.6,77 176.5,72 176.5,69.6 133.6,74.5 "/>
<polygon fill-rule="evenodd" clip-rule="evenodd" points="209.4,68.3 252.3,63.4 252.3,60.9 209.4,65.8 "/>
<polygon fill-rule="evenodd" clip-rule="evenodd" points="209.4,64.6 252.3,59.6 252.3,57.2 209.4,62.1 "/>
<polygon fill-rule="evenodd" clip-rule="evenodd" points="260.2,84.4 303.1,83.2 303.1,80.7 260.2,82 "/>
<polygon fill-rule="evenodd" clip-rule="evenodd" points="260.2,88.2 303.1,86.9 303.1,84.4 260.2,85.7 "/>
<g>
	<path d="M375.4,74c2.2-2,3.6-4.6,3.6-6.9c0-1.9-1.1-3.3-2.8-3.3c-1.2,0-2.5,1-2.5,2.1c0,0.2,0,0.2,0.1,0.2c0,0,0.4-0.5,1-0.5
		c0.7,0,1.2,0.6,1.2,1.3c0,0.9-0.6,1.7-1.6,1.7s-1.5-1-1.5-2.1c0-1.8,1.7-3.1,3.6-3.1c3.5,0,4.4,2.4,4.4,4.4c0,1.2-0.3,2.2-1.5,4
		c-1.4,2.3-4.8,4-6,4c-0.3,0-0.5-0.1-0.5-0.3C374,75,374.8,74.5,375.4,74z M382.9,64.5c0.4,0,0.7,0.3,0.7,0.7c0,0.4-0.3,0.7-0.7,0.7
		c-0.4,0-0.7-0.3-0.7-0.7C382.1,64.8,382.4,64.5,382.9,64.5z M382.9,68.2c0.4,0,0.7,0.3,0.7,0.7s-0.3,0.7-0.7,0.7
		c-0.4,0-0.7-0.3-0.7-0.7S382.4,68.2,382.9,68.2z"/>
</g>
<polygon fill-rule="evenodd" clip-rule="evenodd" points="324.1,63.4 367,68.3 367,65.8 324.1,60.9 "/>
<polygon fill-rule="evenodd" clip-rule="evenodd" points="324.1,59.6 367,64.6 367,62.1 324.1,57.2 "/>
<polygon fill-rule="evenodd" clip-rule="evenodd" points="386.9,68.3 429.8,73.3 429.8,70.8 386.9,65.8 "/>
<polygon fill-rule="evenodd" clip-rule="evenodd" points="386.9,72 429.8,77 429.8,74.5 386.9,69.6 "/>
<polygon fill-rule="evenodd" clip-rule="evenodd" points="444.2,78.2 487.1,83.2 487.1,80.7 444.2,75.8 "/>
<polygon fill-rule="evenodd" clip-rule="evenodd" points="444.2,82 487.1,86.9 487.1,84.4 444.2,79.5 "/>
<rect x="82.5" y="20.1" width="0.5" height="16.4"/>
<g>
	<path d="M76,38.2c0-1.8,2.5-3.5,4.5-3.5c1.3,0,2.3,0.7,2.3,1.7c0,1.7-2.5,3.5-4.6,3.5C77,39.9,76,39.3,76,38.2z"/>
</g>
<rect x="96.7" y="18.6" width="0.5" height="15.5"/>
<g>
	<path d="M90.3,35.7c0-1.8,2.5-3.5,4.5-3.5c1.3,0,2.3,0.7,2.3,1.7c0,1.7-2.5,3.5-4.6,3.5C91.3,37.4,90.3,36.8,90.3,35.7z"/>
</g>
<rect x="111.2" y="16.9" width="0.5" height="14.7"/>
<g>
	<path d="M104.7,33.2c0-1.8,2.5-3.5,4.5-3.5c1.3,0,2.3,0.7,2.3,1.7c0,1.7-2.5,3.5-4.6,3.5C105.7,34.9,104.7,34.3,104.7,33.2z"/>
</g>
<rect x="125.4" y="15.2" width="0.5" height="14"/>
<g>
	<path d="M119,30.7c0-1.8,2.5-3.5,4.5-3.5c1.3,0,2.3,0.7,2.3,1.7c0,1.7-2.5,3.5-4.6,3.5C120,32.5,119,31.8,119,30.7z"/>
</g>
<rect x="133.3" y="28.2" width="0.5" height="16.4"/>
<g>
	<path d="M133.4,28.3c0-1.8,2.5-3.5,4.5-3.5c1.3,0,2.3,0.7,2.3,1.7c0,1.7-2.5,3.5-4.6,3.5C134.4,30,133.4,29.3,133.4,28.3z"/>
</g>
<rect x="147.6" y="25.7" width="0.5" height="17.4"/>
<g>
	<path d="M147.7,25.8c0-1.8,2.5-3.5,4.5-3.5c1.3,0,2.3,0.7,2.3,1.7c0,1.7-2.5,3.5-4.6,3.5C148.6,27.5,147.7,26.9,147.7,25.8z"/>
</g>
<rect x="162" y="23.2" width="0.5" height="18.1"/>
<g>
	<path d="M162.1,23.3c0-1.8,2.5-3.5,4.5-3.5c1.3,0,2.3,0.7,2.3,1.7c0,1.7-2.5,3.5-4.6,3.5C163.1,25,162.1,24.4,162.1,23.3z"/>
</g>
<rect x="176.3" y="20.7" width="0.5" height="18.9"/>
<g>
	<path d="M176.3,20.8c0-1.8,2.5-3.5,4.5-3.5c1.3,0,2.3,0.7,2.3,1.7c0,1.7-2.5,3.5-4.6,3.5C177.3,22.5,176.3,21.9,176.3,20.8z"/>
</g>
<rect x="202.6" y="18.3" width="0.5" height="16.4"/>
<g>
	<path d="M202.7,18.3c0-1.8,2.5-3.5,4.5-3.5c1.3,0,2.3,0.7,2.3,1.7c0,1.7-2.5,3.5-4.6,3.5C203.7,20.1,202.7,19.4,202.7,18.3z"/>
</g>
<rect x="217" y="15.8" width="0.5" height="17.4"/>
<g>
	<path d="M217.1,15.9c0-1.8,2.5-3.5,4.5-3.5c1.3,0,2.3,0.7,2.3,1.7c0,1.7-2.5,3.5-4.6,3.5C218.1,17.6,217.1,16.9,217.1,15.9z"/>
</g>
<rect x="231.3" y="13.3" width="0.5" height="18.1"/>
<g>
	<path d="M231.4,13.4c0-1.8,2.5-3.5,4.5-3.5c1.3,0,2.3,0.7,2.3,1.7c0,1.7-2.5,3.5-4.6,3.5C232.3,15.1,231.4,14.5,231.4,13.4z"/>
</g>
<rect x="243.8" y="9.7" width="10.5" height="0.8"/>
<rect x="245.6" y="10.8" width="0.5" height="18.9"/>
<g>
	<path d="M245.6,10.9c0-1.8,2.5-3.5,4.5-3.5c1.3,0,2.3,0.7,2.3,1.7c0,1.7-2.5,3.5-4.6,3.5C246.6,12.6,245.6,12,245.6,10.9z"/>
</g>
<rect x="258.2" y="9.7" width="10.5" height="0.8"/>
<rect x="260" y="8.3" width="0.5" height="17.7"/>
<g>
	<path d="M260,8.4c0-1.8,2.5-3.5,4.5-3.5c1.3,0,2.3,0.7,2.3,1.7c0,1.7-2.5,3.5-4.6,3.5C261,10.1,260,9.5,260,8.4z"/>
</g>
<rect x="272.5" y="9.7" width="10.5" height="0.8"/>
<rect x="272.5" y="4.7" width="10.5" height="0.8"/>
<rect x="274.2" y="5.9" width="0.5" height="19.8"/>
<g>
	<path d="M274.3,5.9c0-1.8,2.5-3.5,4.5-3.5c1.3,0,2.3,0.7,2.3,1.7c0,1.7-2.5,3.5-4.6,3.5C275.3,7.7,274.3,7,274.3,5.9z"/>
</g>
<rect x="286.9" y="9.7" width="10.5" height="0.8"/>
<rect x="286.9" y="4.7" width="10.5" height="0.8"/>
<rect x="288.6" y="3.4" width="0.5" height="21.9"/>
<g>
	<path d="M288.7,3.5c0-1.8,2.5-3.5,4.5-3.5c1.3,0,2.3,0.7,2.3,1.7c0,1.7-2.5,3.5-4.6,3.5C289.7,5.2,288.7,4.5,288.7,3.5z"/>
</g>
<rect x="301.1" y="9.7" width="10.5" height="0.8"/>
<rect x="301.1" y="4.7" width="10.5" height="0.8"/>
<rect x="302.9" y="5.9" width="0.5" height="18.9"/>
<g>
	<path d="M303,5.9c0-1.8,2.5-3.5,4.5-3.5c1.3,0,2.3,0.7,2.3,1.7c0,1.7-2.5,3.5-4.6,3.5C304,7.7,303,7,303,5.9z"/>
</g>
<rect x="315.5" y="9.7" width="10.5" height="0.8"/>
<rect x="317.3" y="8.3" width="0.5" height="16.4"/>
<g>
	<path d="M317.4,8.4c0-1.8,2.5-3.5,4.5-3.5c1.3,0,2.3,0.7,2.3,1.7c0,1.7-2.5,3.5-4.6,3.5C318.4,10.1,317.4,9.5,317.4,8.4z"/>
</g>
<rect x="329.8" y="9.7" width="10.5" height="0.8"/>
<rect x="331.6" y="10.8" width="0.5" height="15.5"/>
<g>
	<path d="M331.7,10.9c0-1.8,2.5-3.5,4.5-3.5c1.3,0,2.3,0.7,2.3,1.7c0,1.7-2.5,3.5-4.6,3.5C332.6,12.6,331.7,12,331.7,10.9z"/>
</g>
<rect x="346" y="13.3" width="0.5" height="14.7"/>
<g>
	<path d="M346.1,13.4c0-1.8,2.5-3.5,4.5-3.5c1.3,0,2.3,0.7,2.3,1.7c0,1.7-2.5,3.5-4.6,3.5C347.1,15.1,346.1,14.5,346.1,13.4z"/>
</g>
<rect x="360.3" y="15.8" width="0.5" height="14"/>
<g>
	<path d="M360.3,15.9c0-1.8,2.5-3.5,4.5-3.5c1.3,0,2.3,0.7,2.3,1.7c0,1.7-2.5,3.5-4.6,3.5C361.3,17.6,360.3,16.9,360.3,15.9z"/>
</g>
<rect x="386.6" y="18.3" width="0.5" height="16.4"/>
<g>
	<path d="M386.7,18.3c0-1.8,2.5-3.5,4.5-3.5c1.3,0,2.3,0.7,2.3,1.7c0,1.7-2.5,3.5-4.6,3.5C387.7,20.1,386.7,19.4,386.7,18.3z"/>
</g>
<rect x="401" y="20.7" width="0.5" height="15.5"/>
<g>
	<path d="M401.1,20.8c0-1.8,2.5-3.5,4.5-3.5c1.3,0,2.3,0.7,2.3,1.7c0,1.7-2.5,3.5-4.6,3.5C402.1,22.5,401.1,21.9,401.1,20.8z"/>
</g>
<rect x="415.3" y="23.2" width="0.5" height="14.7"/>
<g>
	<path d="M415.4,23.3c0-1.8,2.5-3.5,4.5-3.5c1.3,0,2.3,0.7,2.3,1.7c0,1.7-2.5,3.5-4.6,3.5C416.3,25,415.4,24.4,415.4,23.3z"/>
</g>
<rect x="429.6" y="25.7" width="0.5" height="14"/>
<g>
	<path d="M429.6,25.8c0-1.8,2.5-3.5,4.5-3.5c1.3,0,2.3,0.7,2.3,1.7c0,1.7-2.5,3.5-4.6,3.5C430.6,27.5,429.6,26.9,429.6,25.8z"/>
</g>
<rect x="450.5" y="10.2" width="0.5" height="16.4"/>
<g>
	<path d="M444.1,28.3c0-1.8,2.5-3.5,4.5-3.5c1.3,0,2.3,0.7,2.3,1.7c0,1.7-2.5,3.5-4.6,3.5C445,30,444.1,29.3,444.1,28.3z"/>
</g>
<rect x="464.7" y="11.7" width="0.5" height="17.4"/>
<g>
	<path d="M458.3,30.7c0-1.8,2.5-3.5,4.5-3.5c1.3,0,2.3,0.7,2.3,1.7c0,1.7-2.5,3.5-4.6,3.5C459.3,32.5,458.3,31.8,458.3,30.7z"/>
</g>
<rect x="479.2" y="13.4" width="0.5" height="18.1"/>
<g>
	<path d="M472.7,33.2c0-1.8,2.5-3.5,4.5-3.5c1.3,0,2.3,0.7,2.3,1.7c0,1.7-2.5,3.5-4.6,3.5C473.7,34.9,472.7,34.3,472.7,33.2z"/>
</g>
<rect x="493.4" y="15.2" width="0.5" height="18.9"/>
<g>
	<path d="M487,35.7c0-1.8,2.5-3.5,4.5-3.5c1.3,0,2.3,0.7,2.3,1.7c0,1.7-2.5,3.5-4.6,3.5C488,37.4,487,36.8,487,35.7z"/>
</g>
<rect x="508" y="20" width="0.5" height="16.6"/>
<g>
	<path d="M505.7,34.6c1.6,0,2.7,0.7,2.7,2c0,1.9-2.3,3.4-4.5,3.4c-1.3,0-2.4-0.7-2.4-1.8C501.4,36.4,503.6,34.6,505.7,34.6z
		 M501.9,38.5c0,0.6,0.4,0.9,1.1,0.9c1.4,0,4.9-2.1,4.9-3.3c0-0.6-0.4-0.9-1.1-0.9C505.5,35.2,501.9,37.2,501.9,38.5z"/>
</g>
<rect x="76" y="72.8" width="0.5" height="14"/>
<g>
	<path d="M76,72.9c0-1.8,2.5-3.5,4.5-3.5c1.3,0,2.3,0.7,2.3,1.7c0,1.7-2.5,3.5-4.6,3.5C77,74.6,76,74,76,72.9z"/>
</g>
<rect x="90.2" y="70.3" width="0.5" height="14.9"/>
<g>
	<path d="M90.3,70.4c0-1.8,2.5-3.5,4.5-3.5c1.3,0,2.3,0.7,2.3,1.7c0,1.7-2.5,3.5-4.6,3.5C91.3,72.1,90.3,71.5,90.3,70.4z"/>
</g>
<rect x="104.6" y="67.9" width="0.5" height="15.7"/>
<g>
	<path d="M104.7,67.9c0-1.8,2.5-3.5,4.5-3.5c1.3,0,2.3,0.7,2.3,1.7c0,1.7-2.5,3.5-4.6,3.5C105.7,69.7,104.7,69,104.7,67.9z"/>
</g>
<rect x="118.9" y="65.4" width="0.5" height="16.4"/>
<g>
	<path d="M119,65.5c0-1.8,2.5-3.5,4.5-3.5c1.3,0,2.3,0.7,2.3,1.7c0,1.7-2.5,3.5-4.6,3.5C120,67.2,119,66.5,119,65.5z"/>
</g>
<rect x="133.3" y="62.9" width="0.5" height="14"/>
<g>
	<path d="M133.4,63c0-1.8,2.5-3.5,4.5-3.5c1.3,0,2.3,0.7,2.3,1.7c0,1.7-2.5,3.5-4.6,3.5C134.4,64.7,133.4,64.1,133.4,63z"/>
</g>
<rect x="147.6" y="60.4" width="0.5" height="14.9"/>
<g>
	<path d="M147.7,60.5c0-1.8,2.5-3.5,4.5-3.5c1.3,0,2.3,0.7,2.3,1.7c0,1.7-2.5,3.5-4.6,3.5C148.6,62.2,147.7,61.6,147.7,60.5z"/>
</g>
<rect x="160.2" y="56.8" width="10.5" height="0.8"/>
<rect x="162" y="57.9" width="0.5" height="15.7"/>
<g>
	<path d="M162.1,58c0-1.8,2.5-3.5,4.5-3.5c1.3,0,2.3,0.7,2.3,1.7c0,1.7-2.5,3.5-4.6,3.5C163.1,59.7,162.1,59.1,162.1,58z"/>
</g>
<rect x="174.5" y="56.8" width="10.5" height="0.8"/>
<rect x="176.3" y="55.5" width="0.5" height="16.4"/>
<g>
	<path d="M176.3,55.5c0-1.8,2.5-3.5,4.5-3.5c1.3,0,2.3,0.7,2.3,1.7c0,1.7-2.5,3.5-4.6,3.5C177.3,57.3,176.3,56.6,176.3,55.5z"/>
</g>
<rect x="209.1" y="62.3" width="0.5" height="18.9"/>
<g>
	<path d="M202.7,82.8c0-1.8,2.5-3.5,4.5-3.5c1.3,0,2.3,0.7,2.3,1.7c0,1.7-2.5,3.5-4.6,3.5C203.7,84.5,202.7,83.9,202.7,82.8z"/>
</g>
<rect x="223.5" y="60.7" width="0.5" height="18"/>
<g>
	<path d="M217.1,80.3c0-1.8,2.5-3.5,4.5-3.5c1.3,0,2.3,0.7,2.3,1.7c0,1.7-2.5,3.5-4.6,3.5C218.1,82.1,217.1,81.4,217.1,80.3z"/>
</g>
<rect x="237.8" y="59" width="0.5" height="17.2"/>
<g>
	<path d="M231.4,77.9c0-1.8,2.5-3.5,4.5-3.5c1.3,0,2.3,0.7,2.3,1.7c0,1.7-2.5,3.5-4.6,3.5C232.3,79.6,231.4,78.9,231.4,77.9z"/>
</g>
<rect x="252.1" y="57.3" width="0.5" height="16.4"/>
<g>
	<path d="M245.6,75.4c0-1.8,2.5-3.5,4.5-3.5c1.3,0,2.3,0.7,2.3,1.7c0,1.7-2.5,3.5-4.6,3.5C246.6,77.1,245.6,76.5,245.6,75.4z"/>
</g>
<rect x="260" y="72.8" width="0.5" height="15.2"/>
<g>
	<path d="M260,72.9c0-1.8,2.5-3.5,4.5-3.5c1.3,0,2.3,0.7,2.3,1.7c0,1.7-2.5,3.5-4.6,3.5C261,74.6,260,74,260,72.9z"/>
</g>
<rect x="274.2" y="70.3" width="0.5" height="17.4"/>
<g>
	<path d="M274.3,70.4c0-1.8,2.5-3.5,4.5-3.5c1.3,0,2.3,0.7,2.3,1.7c0,1.7-2.5,3.5-4.6,3.5C275.3,72.1,274.3,71.5,274.3,70.4z"/>
</g>
<rect x="288.6" y="67.9" width="0.5" height="19.4"/>
<g>
	<path d="M288.7,67.9c0-1.8,2.5-3.5,4.5-3.5c1.3,0,2.3,0.7,2.3,1.7c0,1.7-2.5,3.5-4.6,3.5C289.7,69.7,288.7,69,288.7,67.9z"/>
</g>
<rect x="302.9" y="70.3" width="0.5" height="16.4"/>
<g>
	<path d="M303,70.4c0-1.8,2.5-3.5,4.5-3.5c1.3,0,2.3,0.7,2.3,1.7c0,1.7-2.5,3.5-4.6,3.5C304,72.1,303,71.5,303,70.4z"/>
</g>
<rect x="323.8" y="57.3" width="0.5" height="14"/>
<g>
	<path d="M317.4,72.9c0-1.8,2.5-3.5,4.5-3.5c1.3,0,2.3,0.7,2.3,1.7c0,1.7-2.5,3.5-4.6,3.5C318.4,74.6,317.4,74,317.4,72.9z"/>
</g>
<rect x="338.1" y="58.9" width="0.5" height="14.9"/>
<g>
	<path d="M331.7,75.4c0-1.8,2.5-3.5,4.5-3.5c1.3,0,2.3,0.7,2.3,1.7c0,1.7-2.5,3.5-4.6,3.5C332.6,77.1,331.7,76.5,331.7,75.4z"/>
</g>
<rect x="352.5" y="60.6" width="0.5" height="15.7"/>
<g>
	<path d="M346.1,77.9c0-1.8,2.5-3.5,4.5-3.5c1.3,0,2.3,0.7,2.3,1.7c0,1.7-2.5,3.5-4.6,3.5C347.1,79.6,346.1,78.9,346.1,77.9z"/>
</g>
<rect x="366.8" y="62.3" width="0.5" height="16.4"/>
<g>
	<path d="M360.3,80.3c0-1.8,2.5-3.5,4.5-3.5c1.3,0,2.3,0.7,2.3,1.7c0,1.7-2.5,3.5-4.6,3.5C361.3,82.1,360.3,81.4,360.3,80.3z"/>
</g>
<rect x="384.8" y="56.8" width="10.5" height="0.8"/>
<rect x="384.8" y="51.8" width="10.5" height="0.8"/>
<rect x="386.6" y="53" width="0.5" height="18.9"/>
<g>
	<path d="M386.7,53.1c0-1.8,2.5-3.5,4.5-3.5c1.3,0,2.3,0.7,2.3,1.7c0,1.7-2.5,3.5-4.6,3.5C387.7,54.8,386.7,54.1,386.7,53.1z"/>
</g>
<rect x="399.3" y="56.8" width="10.5" height="0.8"/>
<rect x="401" y="55.5" width="0.5" height="18"/>
<g>
	<path d="M401.1,55.5c0-1.8,2.5-3.5,4.5-3.5c1.3,0,2.3,0.7,2.3,1.7c0,1.7-2.5,3.5-4.6,3.5C402.1,57.3,401.1,56.6,401.1,55.5z"/>
</g>
<rect x="413.5" y="56.8" width="10.5" height="0.8"/>
<rect x="415.3" y="57.9" width="0.5" height="17.2"/>
<g>
	<path d="M415.4,58c0-1.8,2.5-3.5,4.5-3.5c1.3,0,2.3,0.7,2.3,1.7c0,1.7-2.5,3.5-4.6,3.5C416.3,59.7,415.4,59.1,415.4,58z"/>
</g>
<rect x="429.6" y="60.4" width="0.5" height="16.4"/>
<g>
	<path d="M429.6,60.5c0-1.8,2.5-3.5,4.5-3.5c1.3,0,2.3,0.7,2.3,1.7c0,1.7-2.5,3.5-4.6,3.5C430.6,62.2,429.6,61.6,429.6,60.5z"/>
</g>
<rect x="444" y="62.9" width="0.5" height="18.9"/>
<g>
	<path d="M444.1,63c0-1.8,2.5-3.5,4.5-3.5c1.3,0,2.3,0.7,2.3,1.7c0,1.7-2.5,3.5-4.6,3.5C445,64.7,444.1,64.1,444.1,63z"/>
</g>
<rect x="458.2" y="65.4" width="0.5" height="18"/>
<g>
	<path d="M458.3,65.5c0-1.8,2.5-3.5,4.5-3.5c1.3,0,2.3,0.7,2.3,1.7c0,1.7-2.5,3.5-4.6,3.5C459.3,67.2,458.3,66.5,458.3,65.5z"/>
</g>
<rect x="472.7" y="67.9" width="0.5" height="17.2"/>
<g>
	<path d="M472.7,67.9c0-1.8,2.5-3.5,4.5-3.5c1.3,0,2.3,0.7,2.3,1.7c0,1.7-2.5,3.5-4.6,3.5C473.7,69.7,472.7,69,472.7,67.9z"/>
</g>
<rect x="486.9" y="70.3" width="0.5" height="16.4"/>
<g>
	<path d="M487,70.4c0-1.8,2.5-3.5,4.5-3.5c1.3,0,2.3,0.7,2.3,1.7c0,1.7-2.5,3.5-4.6,3.5C488,72.1,487,71.5,487,70.4z"/>
</g>
<rect x="501.3" y="72.8" width="0.5" height="16.6"/>
<g>
	<path d="M505.7,69.3c1.6,0,2.7,0.7,2.7,2c0,1.9-2.3,3.4-4.5,3.4c-1.3,0-2.4-0.7-2.4-1.8C501.4,71.1,503.6,69.3,505.7,69.3z
		 M501.9,73.2c0,0.6,0.4,0.9,1.1,0.9c1.4,0,4.9-2.1,4.9-3.3c0-0.6-0.4-0.9-1.1-0.9C505.5,69.9,501.9,72,501.9,73.2z"/>
</g>
</svg>
