<?xml version="1.0" encoding="utf-8"?>

<!--
	ScaleBook
	Copyright (c) Leland Jansen 2015. All rights reserved.
-->

<!DOCTYPE svg PUBLIC "-//W3C//DTD SVG 1.1//EN" "http://www.w3.org/Graphics/SVG/1.1/DTD/svg11.dtd">
<svg version="1.1" id="Layer_1" xmlns="http://www.w3.org/2000/svg" xmlns:xlink="http://www.w3.org/1999/xlink" x="0px" y="0px"
	 viewBox="0 0 552.9 89.4" enable-background="new 0 0 552.9 89.4" xml:space="preserve">
<rect x="8.4" y="15" width="0.8" height="67"/>
<g>
	<path d="M7.4,15.7c-1.9,1.1-3.6,5.8-3.6,9.4c0,2.3,1.4,9.9,1.4,12.3c0,5-1.5,8.6-4.6,11.1c3,2.4,4.6,6.1,4.6,11.1
		c0,2.3-1.4,9.9-1.4,12.3c0,3.8,1.7,8.4,3.6,9.5V82c-3.5-2.3-5.8-8.2-5.8-13.1c0-2.1,1.7-9.4,1.7-11.5c0-3.8-1-6.6-2.9-8.2
		C0.1,48.9,0,48.7,0,48.5c0-0.2,0.1-0.4,0.5-0.7c1.9-1.7,2.9-4.2,2.9-7.6c0-2.1-1.7-10-1.7-12.2c0-5.2,2.1-10.4,5.8-13.1V15.7z"/>
</g>
<rect x="547.8" y="15" width="0.8" height="67"/>
<rect x="550.4" y="15" width="2.5" height="67"/>
<rect x="8.5" y="34.6" width="544.4" height="0.5"/>
<rect x="8.5" y="29.6" width="544.4" height="0.5"/>
<rect x="8.5" y="24.7" width="544.4" height="0.5"/>
<rect x="8.5" y="19.7" width="544.4" height="0.5"/>
<rect x="8.5" y="14.8" width="544.4" height="0.5"/>
<g>
	<path d="M20.3,34.7c-4.2,0-8.1-3.1-8.1-6.9c0-3.2,2.3-6.7,6.8-10.5c-0.3-1.2-0.4-2.4-0.4-3.6c0-3.5,1.2-6.8,3.2-8.5
		c1.8,2.5,2.7,4.9,2.7,7.1c0,2.9-1.3,5.6-4.3,8.1l0.9,4.2c0.5,0,0.8-0.1,0.8-0.1c2.6,0,4.8,2,4.8,4.7c0,1.9-1.4,3.7-3.6,4.8
		c0-0.1,0.9,3.8,0.9,4.3c0,2.5-2.3,4.2-4.9,4.2c-2,0-3.6-1.3-3.6-3.4c0-1.4,1-2.6,2.4-2.6c1.3,0,2.3,1.3,2.3,2.5
		c0,1.4-1.2,2.3-2.7,2.5c0.6,0.3,1.2,0.5,1.9,0.5c2.1,0,4.1-1.6,4.1-3.6c0-0.2,0-0.4-0.1-0.6l-0.8-3.7
		C21.9,34.5,21.2,34.7,20.3,34.7z M18.1,29.5c0,1,0.5,1.9,1.6,2.5c-1.8-0.3-3-1.4-3-3.1c0-2,1.7-3.7,3.8-4.1l-0.8-4
		C16,23.6,14,26.3,14,28.9c0,2.9,2.8,5.3,6,5.3c0.9,0,1.7-0.2,2.4-0.5L21,26.9C19.4,27.1,18.1,28.1,18.1,29.5z M22.1,8.1
		c-1.6,0-2.9,3.7-2.9,7c0,0.7,0,1.3,0.2,1.9c2.7-2.4,4-4.5,4-6.5c0-0.9-0.3-1.7-1-2.4C22.4,8.1,22.3,8.1,22.1,8.1z M24.9,30
		c0-1.6-1.2-3.3-2.9-3.3c-0.1,0-0.2,0-0.5,0l1.4,6.6C24.2,32.5,24.9,31.3,24.9,30z"/>
</g>
<polygon fill-rule="evenodd" clip-rule="evenodd" points="43.6,26.2 90.6,21.2 90.6,18.7 43.6,23.7 "/>
<polygon fill-rule="evenodd" clip-rule="evenodd" points="43.6,22.4 90.6,17.5 90.6,15 43.6,20 "/>
<polygon fill-rule="evenodd" clip-rule="evenodd" points="99.8,41 146.9,36.1 146.9,33.6 99.8,38.6 "/>
<polygon fill-rule="evenodd" clip-rule="evenodd" points="99.8,44.8 146.9,39.8 146.9,37.3 99.8,42.3 "/>
<polygon fill-rule="evenodd" clip-rule="evenodd" points="173.2,31.1 220.2,26.2 220.2,23.7 173.2,28.6 "/>
<polygon fill-rule="evenodd" clip-rule="evenodd" points="173.2,34.8 220.2,29.9 220.2,27.4 173.2,32.4 "/>
<polygon fill-rule="evenodd" clip-rule="evenodd" points="235.9,22.4 283,21.2 283,18.7 235.9,20 "/>
<polygon fill-rule="evenodd" clip-rule="evenodd" points="235.9,26.2 283,24.9 283,22.4 235.9,23.7 "/>
<polygon fill-rule="evenodd" clip-rule="evenodd" points="298.6,21.2 345.6,26.2 345.6,23.7 298.6,18.7 "/>
<polygon fill-rule="evenodd" clip-rule="evenodd" points="298.6,24.9 345.6,29.9 345.6,27.4 298.6,22.4 "/>
<polygon fill-rule="evenodd" clip-rule="evenodd" points="372,31.1 419.1,36.1 419.1,33.6 372,28.6 "/>
<polygon fill-rule="evenodd" clip-rule="evenodd" points="372,34.8 419.1,39.8 419.1,37.3 372,32.4 "/>
<polygon fill-rule="evenodd" clip-rule="evenodd" points="441.3,16.2 488.2,21.2 488.2,18.7 441.3,13.8 "/>
<polygon fill-rule="evenodd" clip-rule="evenodd" points="441.3,12.5 488.2,17.5 488.2,15 441.3,10 "/>
<rect x="8.5" y="81.7" width="544.4" height="0.5"/>
<rect x="8.5" y="76.8" width="544.4" height="0.5"/>
<rect x="8.5" y="71.8" width="544.4" height="0.5"/>
<rect x="8.5" y="66.9" width="544.4" height="0.5"/>
<rect x="8.5" y="61.9" width="544.4" height="0.5"/>
<g>
	<path d="M15.7,76.3c2.9-2.6,4.7-6.1,4.7-9.2c0-2.5-1.4-4.4-3.7-4.4c-1.6,0-3.4,1.3-3.4,2.7c0,0.2,0,0.3,0.1,0.3
		c-0.1,0,0.6-0.6,1.4-0.6c0.9,0,1.5,0.8,1.5,1.7c0,1.2-0.9,2.2-2.1,2.2c-1.2,0-2.1-1.3-2.1-2.8c0-2.3,2.3-4.1,4.8-4.1
		c4.7,0,5.9,3.2,5.9,5.8c0,1.6-0.4,2.9-2,5.3c-1.9,3.1-6.4,5.3-8.1,5.3c-0.4,0-0.6-0.2-0.6-0.5C13.8,77.6,14.9,77,15.7,76.3z
		 M25.7,63.6c0.6,0,1,0.4,1,1c0,0.6-0.4,1-1,1s-1-0.4-1-1C24.7,64,25.1,63.6,25.7,63.6z M25.7,68.6c0.6,0,1,0.4,1,1c0,0.6-0.4,1-1,1
		s-1-0.4-1-1C24.7,69,25.1,68.6,25.7,68.6z"/>
</g>
<polygon fill-rule="evenodd" clip-rule="evenodd" points="37.1,83.2 84.1,78.2 84.1,75.8 37.1,80.7 "/>
<polygon fill-rule="evenodd" clip-rule="evenodd" points="37.1,86.9 84.1,82 84.1,79.5 37.1,84.4 "/>
<g>
	<path d="M167.1,80.6c-3.2,0-6.1-2.3-6.1-5.1c0-2.4,1.7-5,5.1-7.9c-0.2-0.9-0.3-1.8-0.3-2.7c0-2.6,0.9-5.1,2.4-6.3
		c1.4,1.9,2,3.7,2,5.3c0,2.2-1,4.2-3.2,6.1l0.7,3.1c0.4,0,0.6,0,0.6,0c2,0,3.6,1.5,3.6,3.5c0,1.4-1.1,2.8-2.7,3.6
		c0-0.1,0.6,2.8,0.6,3.3c0,1.9-1.7,3.2-3.7,3.2c-1.5,0-2.7-1-2.7-2.5c0-1.1,0.7-1.9,1.8-1.9c1,0,1.7,1,1.7,1.9c0,1-0.9,1.7-2,1.8
		c0.4,0.2,0.9,0.3,1.4,0.3c1.6,0,3.1-1.2,3.1-2.7c0-0.1,0-0.3,0-0.5l-0.6-2.8C168.3,80.5,167.8,80.6,167.1,80.6z M165.4,76.7
		c0,0.8,0.4,1.4,1.2,1.9c-1.3-0.2-2.2-1.1-2.2-2.3c0-1.5,1.3-2.8,2.9-3.1l-0.6-3c-2.8,2.1-4.3,4.1-4.3,6.1c0,2.2,2.1,4,4.5,4
		c0.7,0,1.3-0.1,1.8-0.4l-1.1-5.1C166.4,74.9,165.4,75.7,165.4,76.7z M168.5,60.7c-1.2,0-2.2,2.8-2.2,5.3c0,0.5,0,1,0.1,1.4
		c2-1.8,3-3.4,3-4.9c0-0.7-0.3-1.3-0.7-1.8C168.7,60.7,168.6,60.7,168.5,60.7z M170.5,77.1c0-1.2-0.9-2.4-2.2-2.4c0,0-0.2,0-0.4,0
		l1.1,5C170,78.9,170.5,78.1,170.5,77.1z"/>
</g>
<polygon fill-rule="evenodd" clip-rule="evenodd" points="99.8,73.3 146.9,68.3 146.9,65.8 99.8,70.8 "/>
<polygon fill-rule="evenodd" clip-rule="evenodd" points="99.8,77 146.9,72 146.9,69.6 99.8,74.5 "/>
<polygon fill-rule="evenodd" clip-rule="evenodd" points="179.8,68.3 226.7,63.4 226.7,60.9 179.8,65.8 "/>
<polygon fill-rule="evenodd" clip-rule="evenodd" points="179.8,64.6 226.7,59.6 226.7,57.2 179.8,62.1 "/>
<polygon fill-rule="evenodd" clip-rule="evenodd" points="235.9,84.4 283,83.2 283,80.7 235.9,82 "/>
<polygon fill-rule="evenodd" clip-rule="evenodd" points="235.9,88.2 283,86.9 283,84.4 235.9,85.7 "/>
<g>
	<path d="M360.5,74c2.2-2,3.6-4.6,3.6-6.9c0-1.9-1.1-3.3-2.8-3.3c-1.2,0-2.5,1-2.5,2.1c0,0.2,0,0.2,0.1,0.2c0,0,0.4-0.5,1-0.5
		c0.7,0,1.2,0.6,1.2,1.3c0,0.9-0.6,1.7-1.6,1.7s-1.5-1-1.5-2.1c0-1.8,1.7-3.1,3.6-3.1c3.5,0,4.4,2.4,4.4,4.4c0,1.2-0.3,2.2-1.5,4
		c-1.4,2.3-4.8,4-6,4c-0.3,0-0.5-0.1-0.5-0.3C359.1,75,359.9,74.5,360.5,74z M368,64.5c0.4,0,0.7,0.3,0.7,0.7c0,0.4-0.3,0.7-0.7,0.7
		c-0.4,0-0.7-0.3-0.7-0.7C367.2,64.8,367.6,64.5,368,64.5z M368,68.2c0.4,0,0.7,0.3,0.7,0.7s-0.3,0.7-0.7,0.7
		c-0.4,0-0.7-0.3-0.7-0.7S367.6,68.2,368,68.2z"/>
</g>
<polygon fill-rule="evenodd" clip-rule="evenodd" points="305.2,63.4 352.1,68.3 352.1,65.8 305.2,60.9 "/>
<polygon fill-rule="evenodd" clip-rule="evenodd" points="305.2,59.6 352.1,64.6 352.1,62.1 305.2,57.2 "/>
<polygon fill-rule="evenodd" clip-rule="evenodd" points="372,68.3 419.1,73.3 419.1,70.8 372,65.8 "/>
<polygon fill-rule="evenodd" clip-rule="evenodd" points="372,72 419.1,77 419.1,74.5 372,69.6 "/>
<polygon fill-rule="evenodd" clip-rule="evenodd" points="434.8,78.2 481.7,83.2 481.7,80.7 434.8,75.8 "/>
<polygon fill-rule="evenodd" clip-rule="evenodd" points="434.8,82 481.7,86.9 481.7,84.4 434.8,79.5 "/>
<rect x="43.4" y="20.1" width="0.5" height="16.4"/>
<g>
	<path d="M37,38.2c0-1.8,2.5-3.5,4.5-3.5c1.3,0,2.3,0.7,2.3,1.7c0,1.7-2.5,3.5-4.6,3.5C38,39.9,37,39.3,37,38.2z"/>
</g>
<rect x="59.1" y="18.6" width="0.5" height="15.5"/>
<g>
	<path d="M52.6,35.7c0-1.8,2.5-3.5,4.5-3.5c1.3,0,2.3,0.7,2.3,1.7c0,1.7-2.5,3.5-4.6,3.5C53.6,37.4,52.6,36.8,52.6,35.7z"/>
</g>
<rect x="74.7" y="16.9" width="0.5" height="14.7"/>
<g>
	<path d="M68.3,33.2c0-1.8,2.5-3.5,4.5-3.5c1.3,0,2.3,0.7,2.3,1.7c0,1.7-2.5,3.5-4.6,3.5C69.3,34.9,68.3,34.3,68.3,33.2z"/>
</g>
<rect x="90.4" y="15.2" width="0.5" height="14"/>
<g>
	<path d="M84,30.7c0-1.8,2.5-3.5,4.5-3.5c1.3,0,2.3,0.7,2.3,1.7c0,1.7-2.5,3.5-4.6,3.5C84.9,32.5,84,31.8,84,30.7z"/>
</g>
<rect x="99.5" y="28.2" width="0.5" height="16.4"/>
<g>
	<path d="M99.6,28.3c0-1.8,2.5-3.5,4.5-3.5c1.3,0,2.3,0.7,2.3,1.7c0,1.7-2.5,3.5-4.6,3.5C100.6,30,99.6,29.3,99.6,28.3z"/>
</g>
<rect x="115.3" y="25.7" width="0.5" height="17.4"/>
<g>
	<path d="M115.4,25.8c0-1.8,2.5-3.5,4.5-3.5c1.3,0,2.3,0.7,2.3,1.7c0,1.7-2.5,3.5-4.6,3.5C116.4,27.5,115.4,26.9,115.4,25.8z"/>
</g>
<rect x="131" y="23.2" width="0.5" height="18.1"/>
<g>
	<path d="M131.1,23.3c0-1.8,2.5-3.5,4.5-3.5c1.3,0,2.3,0.7,2.3,1.7c0,1.7-2.5,3.5-4.6,3.5C132,25,131.1,24.4,131.1,23.3z"/>
</g>
<rect x="146.7" y="20.7" width="0.5" height="18.9"/>
<g>
	<path d="M146.7,20.8c0-1.8,2.5-3.5,4.5-3.5c1.3,0,2.3,0.7,2.3,1.7c0,1.7-2.5,3.5-4.6,3.5C147.7,22.5,146.7,21.9,146.7,20.8z"/>
</g>
<rect x="173" y="18.3" width="0.5" height="16.4"/>
<g>
	<path d="M173.1,18.3c0-1.8,2.5-3.5,4.5-3.5c1.3,0,2.3,0.7,2.3,1.7c0,1.7-2.5,3.5-4.6,3.5C174.1,20.1,173.1,19.4,173.1,18.3z"/>
</g>
<rect x="188.7" y="15.8" width="0.5" height="17.4"/>
<g>
	<path d="M188.7,15.9c0-1.8,2.5-3.5,4.5-3.5c1.3,0,2.3,0.7,2.3,1.7c0,1.7-2.5,3.5-4.6,3.5C189.7,17.6,188.7,16.9,188.7,15.9z"/>
</g>
<rect x="204.3" y="13.3" width="0.5" height="18.1"/>
<g>
	<path d="M204.4,13.4c0-1.8,2.5-3.5,4.5-3.5c1.3,0,2.3,0.7,2.3,1.7c0,1.7-2.5,3.5-4.6,3.5C205.4,15.1,204.4,14.5,204.4,13.4z"/>
</g>
<rect x="218.2" y="9.7" width="10.5" height="0.8"/>
<rect x="220" y="10.8" width="0.5" height="18.9"/>
<g>
	<path d="M220.1,10.9c0-1.8,2.5-3.5,4.5-3.5c1.3,0,2.3,0.7,2.3,1.7c0,1.7-2.5,3.5-4.6,3.5C221,12.6,220.1,12,220.1,10.9z"/>
</g>
<rect x="233.9" y="9.7" width="10.5" height="0.8"/>
<rect x="235.6" y="8.3" width="0.5" height="17.7"/>
<g>
	<path d="M235.7,8.4c0-1.8,2.5-3.5,4.5-3.5c1.3,0,2.3,0.7,2.3,1.7c0,1.7-2.5,3.5-4.6,3.5C236.7,10.1,235.7,9.5,235.7,8.4z"/>
</g>
<rect x="249.5" y="9.7" width="10.5" height="0.8"/>
<rect x="249.5" y="4.7" width="10.5" height="0.8"/>
<rect x="251.3" y="5.9" width="0.5" height="19.8"/>
<g>
	<path d="M251.4,5.9c0-1.8,2.5-3.5,4.5-3.5c1.3,0,2.3,0.7,2.3,1.7c0,1.7-2.5,3.5-4.6,3.5C252.3,7.7,251.4,7,251.4,5.9z"/>
</g>
<rect x="265.3" y="9.7" width="10.5" height="0.8"/>
<rect x="265.3" y="4.7" width="10.5" height="0.8"/>
<rect x="267.1" y="3.4" width="0.5" height="21.9"/>
<g>
	<path d="M267.2,3.5c0-1.8,2.5-3.5,4.5-3.5c1.3,0,2.3,0.7,2.3,1.7c0,1.7-2.5,3.5-4.6,3.5C268.2,5.2,267.2,4.5,267.2,3.5z"/>
</g>
<rect x="281" y="9.7" width="10.5" height="0.8"/>
<rect x="281" y="4.7" width="10.5" height="0.8"/>
<rect x="282.8" y="5.9" width="0.5" height="18.9"/>
<g>
	<path d="M282.8,5.9c0-1.8,2.5-3.5,4.5-3.5c1.3,0,2.3,0.7,2.3,1.7c0,1.7-2.5,3.5-4.6,3.5C283.8,7.7,282.8,7,282.8,5.9z"/>
</g>
<rect x="296.6" y="9.7" width="10.5" height="0.8"/>
<rect x="298.4" y="8.3" width="0.5" height="16.4"/>
<g>
	<path d="M298.5,8.4c0-1.8,2.5-3.5,4.5-3.5c1.3,0,2.3,0.7,2.3,1.7c0,1.7-2.5,3.5-4.6,3.5C299.5,10.1,298.5,9.5,298.5,8.4z"/>
</g>
<rect x="312.3" y="9.7" width="10.5" height="0.8"/>
<rect x="314.1" y="10.8" width="0.5" height="15.5"/>
<g>
	<path d="M314.1,10.9c0-1.8,2.5-3.5,4.5-3.5c1.3,0,2.3,0.7,2.3,1.7c0,1.7-2.5,3.5-4.6,3.5C315.1,12.6,314.1,12,314.1,10.9z"/>
</g>
<rect x="329.7" y="13.3" width="0.5" height="14.7"/>
<g>
	<path d="M329.8,13.4c0-1.8,2.5-3.5,4.5-3.5c1.3,0,2.3,0.7,2.3,1.7c0,1.7-2.5,3.5-4.6,3.5C330.8,15.1,329.8,14.5,329.8,13.4z"/>
</g>
<rect x="345.4" y="15.8" width="0.5" height="14"/>
<g>
	<path d="M345.5,15.9c0-1.8,2.5-3.5,4.5-3.5c1.3,0,2.3,0.7,2.3,1.7c0,1.7-2.5,3.5-4.6,3.5C346.4,17.6,345.5,16.9,345.5,15.9z"/>
</g>
<rect x="371.7" y="18.3" width="0.5" height="16.4"/>
<g>
	<path d="M371.8,18.3c0-1.8,2.5-3.5,4.5-3.5c1.3,0,2.3,0.7,2.3,1.7c0,1.7-2.5,3.5-4.6,3.5C372.8,20.1,371.8,19.4,371.8,18.3z"/>
</g>
<rect x="387.4" y="20.7" width="0.5" height="15.5"/>
<g>
	<path d="M387.5,20.8c0-1.8,2.5-3.5,4.5-3.5c1.3,0,2.3,0.7,2.3,1.7c0,1.7-2.5,3.5-4.6,3.5C388.4,22.5,387.5,21.9,387.5,20.8z"/>
</g>
<rect x="403.1" y="23.2" width="0.5" height="14.7"/>
<g>
	<path d="M403.1,23.3c0-1.8,2.5-3.5,4.5-3.5c1.3,0,2.3,0.7,2.3,1.7c0,1.7-2.5,3.5-4.6,3.5C404.1,25,403.1,24.4,403.1,23.3z"/>
</g>
<rect x="418.9" y="25.7" width="0.5" height="14"/>
<g>
	<path d="M418.9,25.8c0-1.8,2.5-3.5,4.5-3.5c1.3,0,2.3,0.7,2.3,1.7c0,1.7-2.5,3.5-4.6,3.5C419.9,27.5,418.9,26.9,418.9,25.8z"/>
</g>
<rect x="441" y="10.2" width="0.5" height="16.4"/>
<g>
	<path d="M434.6,28.3c0-1.8,2.5-3.5,4.5-3.5c1.3,0,2.3,0.7,2.3,1.7c0,1.7-2.5,3.5-4.6,3.5C435.6,30,434.6,29.3,434.6,28.3z"/>
</g>
<rect x="456.7" y="11.7" width="0.5" height="17.4"/>
<g>
	<path d="M450.3,30.7c0-1.8,2.5-3.5,4.5-3.5c1.3,0,2.3,0.7,2.3,1.7c0,1.7-2.5,3.5-4.6,3.5C451.2,32.5,450.3,31.8,450.3,30.7z"/>
</g>
<rect x="472.3" y="13.4" width="0.5" height="18.1"/>
<g>
	<path d="M465.9,33.2c0-1.8,2.5-3.5,4.5-3.5c1.3,0,2.3,0.7,2.3,1.7c0,1.7-2.5,3.5-4.6,3.5C466.9,34.9,465.9,34.3,465.9,33.2z"/>
</g>
<rect x="488" y="15.2" width="0.5" height="18.9"/>
<g>
	<path d="M481.6,35.7c0-1.8,2.5-3.5,4.5-3.5c1.3,0,2.3,0.7,2.3,1.7c0,1.7-2.5,3.5-4.6,3.5C482.5,37.4,481.6,36.8,481.6,35.7z"/>
</g>
<rect x="503.8" y="20" width="0.5" height="16.6"/>
<g>
	<path d="M501.5,34.6c1.6,0,2.7,0.7,2.7,2c0,1.9-2.3,3.4-4.5,3.4c-1.3,0-2.4-0.7-2.4-1.8C497.2,36.4,499.5,34.6,501.5,34.6z
		 M497.7,38.5c0,0.6,0.4,0.9,1.1,0.9c1.4,0,4.9-2.1,4.9-3.3c0-0.6-0.4-0.9-1.1-0.9C501.3,35.2,497.7,37.2,497.7,38.5z"/>
</g>
<rect x="36.9" y="72.8" width="0.5" height="14"/>
<g>
	<path d="M37,72.9c0-1.8,2.5-3.5,4.5-3.5c1.3,0,2.3,0.7,2.3,1.7c0,1.7-2.5,3.5-4.6,3.5C38,74.6,37,74,37,72.9z"/>
</g>
<rect x="52.6" y="70.3" width="0.5" height="14.9"/>
<g>
	<path d="M52.6,70.4c0-1.8,2.5-3.5,4.5-3.5c1.3,0,2.3,0.7,2.3,1.7c0,1.7-2.5,3.5-4.6,3.5C53.6,72.1,52.6,71.5,52.6,70.4z"/>
</g>
<rect x="68.2" y="67.9" width="0.5" height="15.7"/>
<g>
	<path d="M68.3,67.9c0-1.8,2.5-3.5,4.5-3.5c1.3,0,2.3,0.7,2.3,1.7c0,1.7-2.5,3.5-4.6,3.5C69.3,69.7,68.3,69,68.3,67.9z"/>
</g>
<rect x="83.9" y="65.4" width="0.5" height="16.4"/>
<g>
	<path d="M84,65.5c0-1.8,2.5-3.5,4.5-3.5c1.3,0,2.3,0.7,2.3,1.7c0,1.7-2.5,3.5-4.6,3.5C84.9,67.2,84,66.5,84,65.5z"/>
</g>
<rect x="99.5" y="62.9" width="0.5" height="14"/>
<g>
	<path d="M99.6,63c0-1.8,2.5-3.5,4.5-3.5c1.3,0,2.3,0.7,2.3,1.7c0,1.7-2.5,3.5-4.6,3.5C100.6,64.7,99.6,64.1,99.6,63z"/>
</g>
<rect x="115.3" y="60.4" width="0.5" height="14.9"/>
<g>
	<path d="M115.4,60.5c0-1.8,2.5-3.5,4.5-3.5c1.3,0,2.3,0.7,2.3,1.7c0,1.7-2.5,3.5-4.6,3.5C116.4,62.2,115.4,61.6,115.4,60.5z"/>
</g>
<rect x="129.2" y="56.8" width="10.5" height="0.8"/>
<rect x="131" y="57.9" width="0.5" height="15.7"/>
<g>
	<path d="M131.1,58c0-1.8,2.5-3.5,4.5-3.5c1.3,0,2.3,0.7,2.3,1.7c0,1.7-2.5,3.5-4.6,3.5C132,59.7,131.1,59.1,131.1,58z"/>
</g>
<rect x="144.9" y="56.8" width="10.5" height="0.8"/>
<rect x="146.7" y="55.5" width="0.5" height="16.4"/>
<g>
	<path d="M146.7,55.5c0-1.8,2.5-3.5,4.5-3.5c1.3,0,2.3,0.7,2.3,1.7c0,1.7-2.5,3.5-4.6,3.5C147.7,57.3,146.7,56.6,146.7,55.5z"/>
</g>
<rect x="179.5" y="62.3" width="0.5" height="18.9"/>
<g>
	<path d="M173.1,82.8c0-1.8,2.5-3.5,4.5-3.5c1.3,0,2.3,0.7,2.3,1.7c0,1.7-2.5,3.5-4.6,3.5C174.1,84.5,173.1,83.9,173.1,82.8z"/>
</g>
<rect x="195.2" y="60.7" width="0.5" height="18"/>
<g>
	<path d="M188.7,80.3c0-1.8,2.5-3.5,4.5-3.5c1.3,0,2.3,0.7,2.3,1.7c0,1.7-2.5,3.5-4.6,3.5C189.7,82.1,188.7,81.4,188.7,80.3z"/>
</g>
<rect x="210.8" y="59" width="0.5" height="17.2"/>
<g>
	<path d="M204.4,77.9c0-1.8,2.5-3.5,4.5-3.5c1.3,0,2.3,0.7,2.3,1.7c0,1.7-2.5,3.5-4.6,3.5C205.4,79.6,204.4,78.9,204.4,77.9z"/>
</g>
<rect x="226.5" y="57.3" width="0.5" height="16.4"/>
<g>
	<path d="M220.1,75.4c0-1.8,2.5-3.5,4.5-3.5c1.3,0,2.3,0.7,2.3,1.7c0,1.7-2.5,3.5-4.6,3.5C221,77.1,220.1,76.5,220.1,75.4z"/>
</g>
<rect x="235.6" y="72.8" width="0.5" height="15.2"/>
<g>
	<path d="M235.7,72.9c0-1.8,2.5-3.5,4.5-3.5c1.3,0,2.3,0.7,2.3,1.7c0,1.7-2.5,3.5-4.6,3.5C236.7,74.6,235.7,74,235.7,72.9z"/>
</g>
<rect x="251.3" y="70.3" width="0.5" height="17.4"/>
<g>
	<path d="M251.4,70.4c0-1.8,2.5-3.5,4.5-3.5c1.3,0,2.3,0.7,2.3,1.7c0,1.7-2.5,3.5-4.6,3.5C252.3,72.1,251.4,71.5,251.4,70.4z"/>
</g>
<rect x="267.1" y="67.9" width="0.5" height="19.4"/>
<g>
	<path d="M267.2,67.9c0-1.8,2.5-3.5,4.5-3.5c1.3,0,2.3,0.7,2.3,1.7c0,1.7-2.5,3.5-4.6,3.5C268.2,69.7,267.2,69,267.2,67.9z"/>
</g>
<rect x="282.8" y="70.3" width="0.5" height="16.4"/>
<g>
	<path d="M282.8,70.4c0-1.8,2.5-3.5,4.5-3.5c1.3,0,2.3,0.7,2.3,1.7c0,1.7-2.5,3.5-4.6,3.5C283.8,72.1,282.8,71.5,282.8,70.4z"/>
</g>
<rect x="304.9" y="57.3" width="0.5" height="14"/>
<g>
	<path d="M298.5,72.9c0-1.8,2.5-3.5,4.5-3.5c1.3,0,2.3,0.7,2.3,1.7c0,1.7-2.5,3.5-4.6,3.5C299.5,74.6,298.5,74,298.5,72.9z"/>
</g>
<rect x="320.6" y="58.9" width="0.5" height="14.9"/>
<g>
	<path d="M314.1,75.4c0-1.8,2.5-3.5,4.5-3.5c1.3,0,2.3,0.7,2.3,1.7c0,1.7-2.5,3.5-4.6,3.5C315.1,77.1,314.1,76.5,314.1,75.4z"/>
</g>
<rect x="336.2" y="60.6" width="0.5" height="15.7"/>
<g>
	<path d="M329.8,77.9c0-1.8,2.5-3.5,4.5-3.5c1.3,0,2.3,0.7,2.3,1.7c0,1.7-2.5,3.5-4.6,3.5C330.8,79.6,329.8,78.9,329.8,77.9z"/>
</g>
<rect x="351.9" y="62.3" width="0.5" height="16.4"/>
<g>
	<path d="M345.5,80.3c0-1.8,2.5-3.5,4.5-3.5c1.3,0,2.3,0.7,2.3,1.7c0,1.7-2.5,3.5-4.6,3.5C346.4,82.1,345.5,81.4,345.5,80.3z"/>
</g>
<rect x="370" y="56.8" width="10.5" height="0.8"/>
<rect x="370" y="51.8" width="10.5" height="0.8"/>
<rect x="371.7" y="53" width="0.5" height="18.9"/>
<g>
	<path d="M371.8,53.1c0-1.8,2.5-3.5,4.5-3.5c1.3,0,2.3,0.7,2.3,1.7c0,1.7-2.5,3.5-4.6,3.5C372.8,54.8,371.8,54.1,371.8,53.1z"/>
</g>
<rect x="385.6" y="56.8" width="10.5" height="0.8"/>
<rect x="387.4" y="55.5" width="0.5" height="18"/>
<g>
	<path d="M387.5,55.5c0-1.8,2.5-3.5,4.5-3.5c1.3,0,2.3,0.7,2.3,1.7c0,1.7-2.5,3.5-4.6,3.5C388.4,57.3,387.5,56.6,387.5,55.5z"/>
</g>
<rect x="401.3" y="56.8" width="10.5" height="0.8"/>
<rect x="403.1" y="57.9" width="0.5" height="17.2"/>
<g>
	<path d="M403.1,58c0-1.8,2.5-3.5,4.5-3.5c1.3,0,2.3,0.7,2.3,1.7c0,1.7-2.5,3.5-4.6,3.5C404.1,59.7,403.1,59.1,403.1,58z"/>
</g>
<rect x="418.9" y="60.4" width="0.5" height="16.4"/>
<g>
	<path d="M418.9,60.5c0-1.8,2.5-3.5,4.5-3.5c1.3,0,2.3,0.7,2.3,1.7c0,1.7-2.5,3.5-4.6,3.5C419.9,62.2,418.9,61.6,418.9,60.5z"/>
</g>
<rect x="434.5" y="62.9" width="0.5" height="18.9"/>
<g>
	<path d="M434.6,63c0-1.8,2.5-3.5,4.5-3.5c1.3,0,2.3,0.7,2.3,1.7c0,1.7-2.5,3.5-4.6,3.5C435.6,64.7,434.6,64.1,434.6,63z"/>
</g>
<rect x="450.2" y="65.4" width="0.5" height="18"/>
<g>
	<path d="M450.3,65.5c0-1.8,2.5-3.5,4.5-3.5c1.3,0,2.3,0.7,2.3,1.7c0,1.7-2.5,3.5-4.6,3.5C451.2,67.2,450.3,66.5,450.3,65.5z"/>
</g>
<rect x="465.8" y="67.9" width="0.5" height="17.2"/>
<g>
	<path d="M465.9,67.9c0-1.8,2.5-3.5,4.5-3.5c1.3,0,2.3,0.7,2.3,1.7c0,1.7-2.5,3.5-4.6,3.5C466.9,69.7,465.9,69,465.9,67.9z"/>
</g>
<rect x="481.5" y="70.3" width="0.5" height="16.4"/>
<g>
	<path d="M481.6,70.4c0-1.8,2.5-3.5,4.5-3.5c1.3,0,2.3,0.7,2.3,1.7c0,1.7-2.5,3.5-4.6,3.5C482.5,72.1,481.6,71.5,481.6,70.4z"/>
</g>
<rect x="497.1" y="72.8" width="0.5" height="16.6"/>
<g>
	<path d="M501.5,69.3c1.6,0,2.7,0.7,2.7,2c0,1.9-2.3,3.4-4.5,3.4c-1.3,0-2.4-0.7-2.4-1.8C497.2,71.1,499.5,69.3,501.5,69.3z
		 M497.7,73.2c0,0.6,0.4,0.9,1.1,0.9c1.4,0,4.9-2.1,4.9-3.3c0-0.6-0.4-0.9-1.1-0.9C501.3,69.9,497.7,72,497.7,73.2z"/>
</g>
</svg>
