<?xml version="1.0" encoding="utf-8"?>

<!--
	ScaleBook
	Copyright (c) Leland Jansen 2015. All rights reserved.
-->

<!DOCTYPE svg PUBLIC "-//W3C//DTD SVG 1.1//EN" "http://www.w3.org/Graphics/SVG/1.1/DTD/svg11.dtd">
<svg version="1.1" id="Layer_1" xmlns="http://www.w3.org/2000/svg" xmlns:xlink="http://www.w3.org/1999/xlink" x="0px" y="0px"
	 viewBox="0 0 552.9 90.6" enable-background="new 0 0 552.9 90.6" xml:space="preserve">
<rect x="8.4" y="17.5" width="0.8" height="67"/>
<g>
	<path d="M7.4,18.1c-1.9,1.1-3.6,5.8-3.6,9.4c0,2.3,1.4,9.9,1.4,12.3c0,5-1.5,8.6-4.6,11.1c3,2.4,4.6,6.1,4.6,11.1
		c0,2.3-1.4,9.9-1.4,12.3c0,3.8,1.7,8.4,3.6,9.5v0.7c-3.5-2.3-5.8-8.2-5.8-13.1c0-2.1,1.7-9.4,1.7-11.5c0-3.8-1-6.6-2.9-8.2
		C0.1,51.4,0,51.2,0,51c0-0.2,0.1-0.4,0.5-0.7c1.9-1.7,2.9-4.2,2.9-7.6c0-2.1-1.7-10-1.7-12.2c0-5.2,2.1-10.4,5.8-13.1V18.1z"/>
</g>
<rect x="547.8" y="17.5" width="0.8" height="67"/>
<rect x="550.4" y="17.5" width="2.5" height="67"/>
<rect x="8.5" y="37.1" width="544.4" height="0.5"/>
<rect x="8.5" y="32.1" width="544.4" height="0.5"/>
<rect x="8.5" y="27.2" width="544.4" height="0.5"/>
<rect x="8.5" y="22.2" width="544.4" height="0.5"/>
<rect x="8.5" y="17.2" width="544.4" height="0.5"/>
<g>
	<path d="M20.3,37.2c-4.2,0-8.1-3.1-8.1-6.9c0-3.2,2.3-6.7,6.8-10.5c-0.3-1.2-0.4-2.4-0.4-3.6c0-3.5,1.2-6.8,3.2-8.5
		c1.8,2.5,2.7,4.9,2.7,7.1c0,2.9-1.3,5.6-4.3,8.1l0.9,4.2c0.5,0,0.8-0.1,0.8-0.1c2.6,0,4.8,2,4.8,4.7c0,1.9-1.4,3.7-3.6,4.8
		c0-0.1,0.9,3.8,0.9,4.3c0,2.5-2.3,4.2-4.9,4.2c-2,0-3.6-1.3-3.6-3.4c0-1.4,1-2.6,2.4-2.6c1.3,0,2.3,1.3,2.3,2.5
		c0,1.4-1.2,2.3-2.7,2.5c0.6,0.3,1.2,0.5,1.9,0.5c2.1,0,4.1-1.6,4.1-3.6c0-0.2,0-0.4-0.1-0.6l-0.8-3.7C21.9,37,21.2,37.2,20.3,37.2z
		 M18.1,31.9c0,1,0.5,1.9,1.6,2.5c-1.8-0.3-3-1.4-3-3.1c0-2,1.7-3.7,3.8-4.1l-0.8-4C16,26,14,28.8,14,31.4c0,2.9,2.8,5.3,6,5.3
		c0.9,0,1.7-0.2,2.4-0.5L21,29.3C19.4,29.6,18.1,30.6,18.1,31.9z M22.1,10.6c-1.6,0-2.9,3.7-2.9,7c0,0.7,0,1.3,0.2,1.9
		c2.7-2.4,4-4.5,4-6.5c0-0.9-0.3-1.7-1-2.4C22.4,10.6,22.3,10.6,22.1,10.6z M24.9,32.5c0-1.6-1.2-3.3-2.9-3.3c-0.1,0-0.2,0-0.5,0
		l1.4,6.6C24.2,34.9,24.9,33.8,24.9,32.5z"/>
</g>
<g>
	<path d="M29.5,19.1h0.6L30,25.3c0.4-0.7,1-1,1.8-1c1.2,0,2.2,0.8,2.2,1.9c0,0.8-0.5,1.8-1.7,2.7L29.5,31V19.1z M30.1,26
		C30,26.7,30,27.4,30,27.9c0,1,0,1.6,0.1,2c1-0.7,2.4-2.6,2.4-3.7c0-0.6-0.5-1.1-1.1-1.1C30.8,25.2,30.4,25.4,30.1,26z"/>
</g>
<g>
	<path d="M35.1,11.6h0.6l-0.1,6.2c0.4-0.7,1-1,1.8-1c1.2,0,2.2,0.8,2.2,1.9c0,0.8-0.5,1.8-1.7,2.7l-2.8,2.1V11.6z M35.7,18.6
		c-0.1,0.8-0.1,1.4-0.1,1.9c0,1,0,1.6,0.1,2c1-0.7,2.4-2.6,2.4-3.7c0-0.6-0.5-1.1-1.1-1.1C36.4,17.7,36,18,35.7,18.6z"/>
</g>
<g>
	<path d="M40.7,21.6h0.6l-0.1,6.2c0.4-0.7,1-1,1.8-1c1.2,0,2.2,0.8,2.2,1.9c0,0.8-0.5,1.8-1.7,2.7l-2.8,2.1V21.6z M41.3,28.5
		c-0.1,0.8-0.1,1.4-0.1,1.9c0,1,0,1.6,0.1,2c1-0.7,2.4-2.6,2.4-3.7c0-0.6-0.5-1.1-1.1-1.1C42,27.6,41.6,27.9,41.3,28.5z"/>
</g>
<g>
	<path d="M46.3,14.1h0.6l-0.1,6.2c0.4-0.7,1-1,1.8-1c1.2,0,2.2,0.8,2.2,1.9c0,0.8-0.5,1.8-1.7,2.7l-2.8,2.1V14.1z M46.9,21
		c-0.1,0.8-0.1,1.4-0.1,1.9c0,1,0,1.6,0.1,2c1-0.7,2.4-2.6,2.4-3.7c0-0.6-0.5-1.1-1.1-1.1C47.6,20.2,47.2,20.5,46.9,21z"/>
</g>
<g>
	<path d="M51.9,24h0.6l-0.1,6.2c0.4-0.7,1-1,1.8-1c1.2,0,2.2,0.8,2.2,1.9c0,0.8-0.5,1.8-1.7,2.7L51.9,36V24z M52.4,31
		c-0.1,0.8-0.1,1.4-0.1,1.9c0,1,0,1.6,0.1,2c1-0.7,2.4-2.6,2.4-3.7c0-0.6-0.5-1.1-1.1-1.1C53.2,30.1,52.7,30.4,52.4,31z"/>
</g>
<polygon fill-rule="evenodd" clip-rule="evenodd" points="71.6,23.7 115.7,18.7 115.7,16.2 71.6,21.2 "/>
<polygon fill-rule="evenodd" clip-rule="evenodd" points="71.6,20 115.7,15 115.7,12.5 71.6,17.5 "/>
<polygon fill-rule="evenodd" clip-rule="evenodd" points="123.9,38.6 168,33.6 168,31.1 123.9,36.1 "/>
<polygon fill-rule="evenodd" clip-rule="evenodd" points="123.9,42.3 168,37.3 168,34.8 123.9,39.8 "/>
<polygon fill-rule="evenodd" clip-rule="evenodd" points="194.3,28.6 238.5,23.7 238.5,21.2 194.3,26.2 "/>
<polygon fill-rule="evenodd" clip-rule="evenodd" points="194.3,32.4 238.5,27.4 238.5,24.9 194.3,29.9 "/>
<polygon fill-rule="evenodd" clip-rule="evenodd" points="253.2,24.9 297.4,23.7 297.4,21.2 253.2,22.4 "/>
<polygon fill-rule="evenodd" clip-rule="evenodd" points="253.2,28.6 297.4,27.4 297.4,24.9 253.2,26.2 "/>
<polygon fill-rule="evenodd" clip-rule="evenodd" points="312.1,23.7 356.3,28.6 356.3,26.2 312.1,21.2 "/>
<polygon fill-rule="evenodd" clip-rule="evenodd" points="312.1,27.4 356.3,32.4 356.3,29.9 312.1,24.9 "/>
<polygon fill-rule="evenodd" clip-rule="evenodd" points="382.7,33.6 426.7,38.6 426.7,36.1 382.7,31.1 "/>
<polygon fill-rule="evenodd" clip-rule="evenodd" points="382.7,37.3 426.7,42.3 426.7,39.8 382.7,34.8 "/>
<polygon fill-rule="evenodd" clip-rule="evenodd" points="447.9,18.7 492.1,23.7 492.1,21.2 447.9,16.2 "/>
<polygon fill-rule="evenodd" clip-rule="evenodd" points="447.9,15 492.1,20 492.1,17.5 447.9,12.5 "/>
<rect x="8.5" y="84.2" width="544.4" height="0.5"/>
<rect x="8.5" y="79.3" width="544.4" height="0.5"/>
<rect x="8.5" y="74.3" width="544.4" height="0.5"/>
<rect x="8.5" y="69.3" width="544.4" height="0.5"/>
<rect x="8.5" y="64.4" width="544.4" height="0.5"/>
<g>
	<path d="M15.7,78.8c2.9-2.6,4.7-6.1,4.7-9.2c0-2.5-1.4-4.4-3.7-4.4c-1.6,0-3.4,1.3-3.4,2.7c0,0.2,0,0.3,0.1,0.3
		c-0.1,0,0.6-0.6,1.4-0.6c0.9,0,1.5,0.8,1.5,1.7c0,1.2-0.9,2.2-2.1,2.2c-1.2,0-2.1-1.3-2.1-2.8c0-2.3,2.3-4.1,4.8-4.1
		c4.7,0,5.9,3.2,5.9,5.8c0,1.6-0.4,2.9-2,5.3C19.1,78.7,14.6,81,13,81c-0.4,0-0.6-0.2-0.6-0.5C13.8,80.1,14.9,79.5,15.7,78.8z
		 M25.7,66.1c0.6,0,1,0.4,1,1c0,0.6-0.4,1-1,1s-1-0.4-1-1C24.7,66.5,25.1,66.1,25.7,66.1z M25.7,71c0.6,0,1,0.4,1,1c0,0.6-0.4,1-1,1
		s-1-0.4-1-1C24.7,71.5,25.1,71,25.7,71z"/>
</g>
<g>
	<path d="M29.5,71.2h0.6L30,77.4c0.4-0.7,1-1,1.8-1c1.2,0,2.2,0.8,2.2,1.9c0,0.8-0.5,1.8-1.7,2.7l-2.8,2.1V71.2z M30.1,78.1
		C30,78.8,30,79.5,30,80c0,1,0,1.6,0.1,2c1-0.7,2.4-2.6,2.4-3.7c0-0.6-0.5-1.1-1.1-1.1C30.8,77.2,30.4,77.5,30.1,78.1z"/>
</g>
<g>
	<path d="M35.1,63.7h0.6L35.6,70c0.4-0.7,1-1,1.8-1c1.2,0,2.2,0.8,2.2,1.9c0,0.8-0.5,1.8-1.7,2.7l-2.8,2.1V63.7z M35.7,70.6
		c-0.1,0.8-0.1,1.4-0.1,1.9c0,1,0,1.6,0.1,2c1-0.7,2.4-2.6,2.4-3.7c0-0.6-0.5-1.1-1.1-1.1C36.4,69.8,36,70.1,35.7,70.6z"/>
</g>
<g>
	<path d="M40.7,73.7h0.6l-0.1,6.2c0.4-0.7,1-1,1.8-1c1.2,0,2.2,0.8,2.2,1.9c0,0.8-0.5,1.8-1.7,2.7l-2.8,2.1V73.7z M41.3,80.6
		c-0.1,0.8-0.1,1.4-0.1,1.9c0,1,0,1.6,0.1,2c1-0.7,2.4-2.6,2.4-3.7c0-0.6-0.5-1.1-1.1-1.1C42,79.7,41.6,80,41.3,80.6z"/>
</g>
<g>
	<path d="M46.3,66.2h0.6l-0.1,6.2c0.4-0.7,1-1,1.8-1c1.2,0,2.2,0.8,2.2,1.9c0,0.8-0.5,1.8-1.7,2.7l-2.8,2.1V66.2z M46.9,73.1
		c-0.1,0.8-0.1,1.4-0.1,1.9c0,1,0,1.6,0.1,2c1-0.7,2.4-2.6,2.4-3.7c0-0.6-0.5-1.1-1.1-1.1C47.6,72.3,47.2,72.6,46.9,73.1z"/>
</g>
<g>
	<path d="M51.9,76.1h0.6l-0.1,6.2c0.4-0.7,1-1,1.8-1c1.2,0,2.2,0.8,2.2,1.9c0,0.8-0.5,1.8-1.7,2.7l-2.8,2.1V76.1z M52.4,83
		c-0.1,0.8-0.1,1.4-0.1,1.9c0,1,0,1.6,0.1,2c1-0.7,2.4-2.6,2.4-3.7c0-0.6-0.5-1.1-1.1-1.1C53.2,82.2,52.7,82.5,52.4,83z"/>
</g>
<polygon fill-rule="evenodd" clip-rule="evenodd" points="65,85.7 109.2,80.7 109.2,78.2 65,83.2 "/>
<polygon fill-rule="evenodd" clip-rule="evenodd" points="65,89.4 109.2,84.4 109.2,82 65,86.9 "/>
<g>
	<path d="M188.2,83.1c-3.2,0-6.1-2.3-6.1-5.1c0-2.4,1.7-5,5.1-7.9c-0.2-0.9-0.3-1.8-0.3-2.7c0-2.6,0.9-5.1,2.4-6.3
		c1.4,1.9,2,3.7,2,5.3c0,2.2-1,4.2-3.2,6.1l0.7,3.1c0.4,0,0.6,0,0.6,0c2,0,3.6,1.5,3.6,3.5c0,1.4-1.1,2.8-2.7,3.6
		c0-0.1,0.6,2.8,0.6,3.3c0,1.9-1.7,3.2-3.7,3.2c-1.5,0-2.7-1-2.7-2.5c0-1.1,0.7-1.9,1.8-1.9c1,0,1.7,1,1.7,1.9c0,1-0.9,1.7-2,1.8
		c0.4,0.2,0.9,0.3,1.4,0.3c1.6,0,3.1-1.2,3.1-2.7c0-0.1,0-0.3,0-0.5l-0.6-2.8C189.4,83,188.9,83.1,188.2,83.1z M186.5,79.2
		c0,0.8,0.4,1.4,1.2,1.9c-1.3-0.2-2.2-1.1-2.2-2.3c0-1.5,1.3-2.8,2.9-3.1l-0.6-3c-2.8,2.1-4.3,4.1-4.3,6.1c0,2.2,2.1,4,4.5,4
		c0.7,0,1.3-0.1,1.8-0.4l-1.1-5.1C187.5,77.4,186.5,78.1,186.5,79.2z M189.5,63.2c-1.2,0-2.2,2.8-2.2,5.3c0,0.5,0,1,0.1,1.4
		c2-1.8,3-3.4,3-4.9c0-0.7-0.3-1.3-0.7-1.8C189.7,63.2,189.6,63.2,189.5,63.2z M191.6,79.6c0-1.2-0.9-2.4-2.2-2.4c0,0-0.2,0-0.4,0
		l1.1,5C191.1,81.4,191.6,80.6,191.6,79.6z"/>
</g>
<polygon fill-rule="evenodd" clip-rule="evenodd" points="123.9,75.8 168,70.8 168,68.3 123.9,73.3 "/>
<polygon fill-rule="evenodd" clip-rule="evenodd" points="123.9,79.5 168,74.5 168,72 123.9,77 "/>
<polygon fill-rule="evenodd" clip-rule="evenodd" points="200.8,70.8 245,65.8 245,63.4 200.8,68.3 "/>
<polygon fill-rule="evenodd" clip-rule="evenodd" points="200.8,67.1 245,62.1 245,59.6 200.8,64.6 "/>
<polygon fill-rule="evenodd" clip-rule="evenodd" points="253.2,86.9 297.4,85.7 297.4,83.2 253.2,84.4 "/>
<polygon fill-rule="evenodd" clip-rule="evenodd" points="253.2,90.6 297.4,89.4 297.4,86.9 253.2,88.2 "/>
<g>
	<path d="M371.2,76.5c2.2-2,3.6-4.6,3.6-6.9c0-1.9-1.1-3.3-2.8-3.3c-1.2,0-2.5,1-2.5,2.1c0,0.2,0,0.2,0.1,0.2c0,0,0.4-0.5,1-0.5
		c0.7,0,1.2,0.6,1.2,1.3c0,0.9-0.6,1.7-1.6,1.7s-1.5-1-1.5-2.1c0-1.8,1.7-3.1,3.6-3.1c3.5,0,4.4,2.4,4.4,4.4c0,1.2-0.3,2.2-1.5,4
		c-1.4,2.3-4.8,4-6,4c-0.3,0-0.5-0.1-0.5-0.3C369.8,77.4,370.6,77,371.2,76.5z M378.7,67c0.4,0,0.7,0.3,0.7,0.7
		c0,0.4-0.3,0.7-0.7,0.7c-0.4,0-0.7-0.3-0.7-0.7C377.9,67.3,378.3,67,378.7,67z M378.7,70.7c0.4,0,0.7,0.3,0.7,0.7s-0.3,0.7-0.7,0.7
		c-0.4,0-0.7-0.3-0.7-0.7S378.3,70.7,378.7,70.7z"/>
</g>
<polygon fill-rule="evenodd" clip-rule="evenodd" points="318.6,60.9 362.8,65.8 362.8,63.4 318.6,58.4 "/>
<polygon fill-rule="evenodd" clip-rule="evenodd" points="318.6,57.2 362.8,62.1 362.8,59.6 318.6,54.7 "/>
<polygon fill-rule="evenodd" clip-rule="evenodd" points="382.7,70.8 426.7,72 426.7,69.6 382.7,68.3 "/>
<polygon fill-rule="evenodd" clip-rule="evenodd" points="382.7,74.5 426.7,75.8 426.7,73.3 382.7,72 "/>
<polygon fill-rule="evenodd" clip-rule="evenodd" points="441.4,75.8 485.6,80.7 485.6,78.2 441.4,73.3 "/>
<polygon fill-rule="evenodd" clip-rule="evenodd" points="441.4,79.5 485.6,84.4 485.6,82 441.4,77 "/>
<rect x="71.3" y="17.6" width="0.5" height="18.9"/>
<g>
	<path d="M64.9,38.2c0-1.8,2.5-3.5,4.5-3.5c1.3,0,2.3,0.7,2.3,1.7c0,1.7-2.5,3.5-4.6,3.5C65.9,39.9,64.9,39.3,64.9,38.2z"/>
</g>
<rect x="86" y="16.1" width="0.5" height="18"/>
<g>
	<path d="M79.6,35.7c0-1.8,2.5-3.5,4.5-3.5c1.3,0,2.3,0.7,2.3,1.7c0,1.7-2.5,3.5-4.6,3.5C80.6,37.4,79.6,36.8,79.6,35.7z"/>
</g>
<rect x="100.8" y="14.4" width="0.5" height="17.2"/>
<g>
	<path d="M94.3,33.2c0-1.8,2.5-3.5,4.5-3.5c1.3,0,2.3,0.7,2.3,1.7c0,1.7-2.5,3.5-4.6,3.5C95.3,34.9,94.3,34.3,94.3,33.2z"/>
</g>
<rect x="115.5" y="12.7" width="0.5" height="16.4"/>
<g>
	<path d="M109.1,30.7c0-1.8,2.5-3.5,4.5-3.5c1.3,0,2.3,0.7,2.3,1.7c0,1.7-2.5,3.5-4.6,3.5C110,32.5,109.1,31.8,109.1,30.7z"/>
</g>
<rect x="123.7" y="28.2" width="0.5" height="14"/>
<g>
	<path d="M123.8,28.3c0-1.8,2.5-3.5,4.5-3.5c1.3,0,2.3,0.7,2.3,1.7c0,1.7-2.5,3.5-4.6,3.5C124.8,30,123.8,29.3,123.8,28.3z"/>
</g>
<rect x="138.4" y="25.7" width="0.5" height="14.9"/>
<g>
	<path d="M138.5,25.8c0-1.8,2.5-3.5,4.5-3.5c1.3,0,2.3,0.7,2.3,1.7c0,1.7-2.5,3.5-4.6,3.5C139.5,27.5,138.5,26.9,138.5,25.8z"/>
</g>
<rect x="153.2" y="23.2" width="0.5" height="15.7"/>
<g>
	<path d="M153.2,23.3c0-1.8,2.5-3.5,4.5-3.5c1.3,0,2.3,0.7,2.3,1.7c0,1.7-2.5,3.5-4.6,3.5C154.2,25,153.2,24.4,153.2,23.3z"/>
</g>
<rect x="167.7" y="20.7" width="0.5" height="16.4"/>
<g>
	<path d="M167.8,20.8c0-1.8,2.5-3.5,4.5-3.5c1.3,0,2.3,0.7,2.3,1.7c0,1.7-2.5,3.5-4.6,3.5C168.8,22.5,167.8,21.9,167.8,20.8z"/>
</g>
<rect x="194.1" y="18.3" width="0.5" height="14"/>
<g>
	<path d="M194.2,18.3c0-1.8,2.5-3.5,4.5-3.5c1.3,0,2.3,0.7,2.3,1.7c0,1.7-2.5,3.5-4.6,3.5C195.1,20.1,194.2,19.4,194.2,18.3z"/>
</g>
<rect x="208.8" y="15.8" width="0.5" height="14.9"/>
<g>
	<path d="M208.9,15.9c0-1.8,2.5-3.5,4.5-3.5c1.3,0,2.3,0.7,2.3,1.7c0,1.7-2.5,3.5-4.6,3.5C209.9,17.6,208.9,16.9,208.9,15.9z"/>
</g>
<rect x="221.8" y="12.1" width="10.5" height="0.8"/>
<rect x="223.5" y="13.3" width="0.5" height="15.7"/>
<g>
	<path d="M223.6,13.4c0-1.8,2.5-3.5,4.5-3.5c1.3,0,2.3,0.7,2.3,1.7c0,1.7-2.5,3.5-4.6,3.5C224.6,15.1,223.6,14.5,223.6,13.4z"/>
</g>
<rect x="236.5" y="12.1" width="10.5" height="0.8"/>
<rect x="238.3" y="10.8" width="0.5" height="16.4"/>
<g>
	<path d="M238.3,10.9c0-1.8,2.5-3.5,4.5-3.5c1.3,0,2.3,0.7,2.3,1.7c0,1.7-2.5,3.5-4.6,3.5C239.3,12.6,238.3,12,238.3,10.9z"/>
</g>
<rect x="251.2" y="12.1" width="10.5" height="0.8"/>
<rect x="251.2" y="7.2" width="10.5" height="0.8"/>
<rect x="253" y="8.3" width="0.5" height="20.2"/>
<g>
	<path d="M253.1,8.4c0-1.8,2.5-3.5,4.5-3.5c1.3,0,2.3,0.7,2.3,1.7c0,1.7-2.5,3.5-4.6,3.5C254,10.1,253.1,9.5,253.1,8.4z"/>
</g>
<rect x="265.9" y="12.1" width="10.5" height="0.8"/>
<rect x="265.9" y="7.2" width="10.5" height="0.8"/>
<rect x="267.7" y="5.9" width="0.5" height="22.3"/>
<g>
	<path d="M267.8,5.9c0-1.8,2.5-3.5,4.5-3.5c1.3,0,2.3,0.7,2.3,1.7c0,1.7-2.5,3.5-4.6,3.5C268.8,7.7,267.8,7,267.8,5.9z"/>
</g>
<rect x="280.7" y="12.1" width="10.5" height="0.8"/>
<rect x="280.7" y="7.2" width="10.5" height="0.8"/>
<rect x="280.7" y="2.2" width="10.5" height="0.8"/>
<rect x="282.4" y="3.4" width="0.5" height="24.3"/>
<g>
	<path d="M282.5,3.5c0-1.8,2.5-3.5,4.5-3.5c1.3,0,2.3,0.7,2.3,1.7c0,1.7-2.5,3.5-4.6,3.5C283.5,5.2,282.5,4.5,282.5,3.5z"/>
</g>
<rect x="295.4" y="12.1" width="10.5" height="0.8"/>
<rect x="295.4" y="7.2" width="10.5" height="0.8"/>
<rect x="297.2" y="5.9" width="0.5" height="21.4"/>
<g>
	<path d="M297.3,5.9c0-1.8,2.5-3.5,4.5-3.5c1.3,0,2.3,0.7,2.3,1.7c0,1.7-2.5,3.5-4.6,3.5C298.2,7.7,297.3,7,297.3,5.9z"/>
</g>
<rect x="310.1" y="12.1" width="10.5" height="0.8"/>
<rect x="310.1" y="7.2" width="10.5" height="0.8"/>
<rect x="311.9" y="8.3" width="0.5" height="18.9"/>
<g>
	<path d="M312,8.4c0-1.8,2.5-3.5,4.5-3.5c1.3,0,2.3,0.7,2.3,1.7c0,1.7-2.5,3.5-4.6,3.5C313,10.1,312,9.5,312,8.4z"/>
</g>
<rect x="324.8" y="12.1" width="10.5" height="0.8"/>
<rect x="326.6" y="10.8" width="0.5" height="18"/>
<g>
	<path d="M326.7,10.9c0-1.8,2.5-3.5,4.5-3.5c1.3,0,2.3,0.7,2.3,1.7c0,1.7-2.5,3.5-4.6,3.5C327.7,12.6,326.7,12,326.7,10.9z"/>
</g>
<rect x="339.6" y="12.1" width="10.5" height="0.8"/>
<rect x="341.4" y="13.3" width="0.5" height="17.2"/>
<g>
	<path d="M341.4,13.4c0-1.8,2.5-3.5,4.5-3.5c1.3,0,2.3,0.7,2.3,1.7c0,1.7-2.5,3.5-4.6,3.5C342.4,15.1,341.4,14.5,341.4,13.4z"/>
</g>
<rect x="356.1" y="15.8" width="0.5" height="16.4"/>
<g>
	<path d="M356.2,15.9c0-1.8,2.5-3.5,4.5-3.5c1.3,0,2.3,0.7,2.3,1.7c0,1.7-2.5,3.5-4.6,3.5C357.1,17.6,356.2,16.9,356.2,15.9z"/>
</g>
<rect x="382.4" y="18.3" width="0.5" height="18.9"/>
<g>
	<path d="M382.5,18.3c0-1.8,2.5-3.5,4.5-3.5c1.3,0,2.3,0.7,2.3,1.7c0,1.7-2.5,3.5-4.6,3.5C383.5,20.1,382.5,19.4,382.5,18.3z"/>
</g>
<rect x="397.2" y="20.7" width="0.5" height="18"/>
<g>
	<path d="M397.2,20.8c0-1.8,2.5-3.5,4.5-3.5c1.3,0,2.3,0.7,2.3,1.7c0,1.7-2.5,3.5-4.6,3.5C398.2,22.5,397.2,21.9,397.2,20.8z"/>
</g>
<rect x="411.9" y="23.2" width="0.5" height="17.2"/>
<g>
	<path d="M412,23.3c0-1.8,2.5-3.5,4.5-3.5c1.3,0,2.3,0.7,2.3,1.7c0,1.7-2.5,3.5-4.6,3.5C412.9,25,412,24.4,412,23.3z"/>
</g>
<rect x="426.5" y="25.7" width="0.5" height="16.4"/>
<g>
	<path d="M426.5,25.8c0-1.8,2.5-3.5,4.5-3.5c1.3,0,2.3,0.7,2.3,1.7c0,1.7-2.5,3.5-4.6,3.5C427.5,27.5,426.5,26.9,426.5,25.8z"/>
</g>
<rect x="447.7" y="12.7" width="0.5" height="14"/>
<g>
	<path d="M441.3,28.3c0-1.8,2.5-3.5,4.5-3.5c1.3,0,2.3,0.7,2.3,1.7c0,1.7-2.5,3.5-4.6,3.5C442.2,30,441.3,29.3,441.3,28.3z"/>
</g>
<rect x="462.4" y="14.2" width="0.5" height="14.9"/>
<g>
	<path d="M456,30.7c0-1.8,2.5-3.5,4.5-3.5c1.3,0,2.3,0.7,2.3,1.7c0,1.7-2.5,3.5-4.6,3.5C457,32.5,456,31.8,456,30.7z"/>
</g>
<rect x="477.1" y="15.9" width="0.5" height="15.7"/>
<g>
	<path d="M470.7,33.2c0-1.8,2.5-3.5,4.5-3.5c1.3,0,2.3,0.7,2.3,1.7c0,1.7-2.5,3.5-4.6,3.5C471.7,34.9,470.7,34.3,470.7,33.2z"/>
</g>
<rect x="491.9" y="17.6" width="0.5" height="16.4"/>
<g>
	<path d="M485.4,35.7c0-1.8,2.5-3.5,4.5-3.5c1.3,0,2.3,0.7,2.3,1.7c0,1.7-2.5,3.5-4.6,3.5C486.4,37.4,485.4,36.8,485.4,35.7z"/>
</g>
<rect x="506.8" y="20" width="0.5" height="16.6"/>
<g>
	<path d="M504.4,34.6c1.6,0,2.7,0.7,2.7,2c0,1.9-2.3,3.4-4.5,3.4c-1.3,0-2.4-0.7-2.4-1.8C500.2,36.4,502.4,34.6,504.4,34.6z
		 M500.6,38.5c0,0.6,0.4,0.9,1.1,0.9c1.4,0,4.9-2.1,4.9-3.3c0-0.6-0.4-0.9-1.1-0.9C504.3,35.2,500.6,37.2,500.6,38.5z"/>
</g>
<rect x="64.8" y="72.8" width="0.5" height="16.4"/>
<g>
	<path d="M64.9,72.9c0-1.8,2.5-3.5,4.5-3.5c1.3,0,2.3,0.7,2.3,1.7c0,1.7-2.5,3.5-4.6,3.5C65.9,74.6,64.9,74,64.9,72.9z"/>
</g>
<rect x="79.5" y="70.3" width="0.5" height="17.4"/>
<g>
	<path d="M79.6,70.4c0-1.8,2.5-3.5,4.5-3.5c1.3,0,2.3,0.7,2.3,1.7c0,1.7-2.5,3.5-4.6,3.5C80.6,72.1,79.6,71.5,79.6,70.4z"/>
</g>
<rect x="94.3" y="67.9" width="0.5" height="18.1"/>
<g>
	<path d="M94.3,67.9c0-1.8,2.5-3.5,4.5-3.5c1.3,0,2.3,0.7,2.3,1.7c0,1.7-2.5,3.5-4.6,3.5C95.3,69.7,94.3,69,94.3,67.9z"/>
</g>
<rect x="109" y="65.4" width="0.5" height="18.9"/>
<g>
	<path d="M109.1,65.5c0-1.8,2.5-3.5,4.5-3.5c1.3,0,2.3,0.7,2.3,1.7c0,1.7-2.5,3.5-4.6,3.5C110,67.2,109.1,66.5,109.1,65.5z"/>
</g>
<rect x="123.7" y="62.9" width="0.5" height="16.4"/>
<g>
	<path d="M123.8,63c0-1.8,2.5-3.5,4.5-3.5c1.3,0,2.3,0.7,2.3,1.7c0,1.7-2.5,3.5-4.6,3.5C124.8,64.7,123.8,64.1,123.8,63z"/>
</g>
<rect x="136.7" y="59.3" width="10.5" height="0.8"/>
<rect x="138.4" y="60.4" width="0.5" height="17.4"/>
<g>
	<path d="M138.5,60.5c0-1.8,2.5-3.5,4.5-3.5c1.3,0,2.3,0.7,2.3,1.7c0,1.7-2.5,3.5-4.6,3.5C139.5,62.2,138.5,61.6,138.5,60.5z"/>
</g>
<rect x="151.4" y="59.3" width="10.5" height="0.8"/>
<rect x="153.2" y="57.9" width="0.5" height="18.1"/>
<g>
	<path d="M153.2,58c0-1.8,2.5-3.5,4.5-3.5c1.3,0,2.3,0.7,2.3,1.7c0,1.7-2.5,3.5-4.6,3.5C154.2,59.7,153.2,59.1,153.2,58z"/>
</g>
<rect x="166" y="59.3" width="10.5" height="0.8"/>
<rect x="166" y="54.3" width="10.5" height="0.8"/>
<rect x="167.7" y="55.5" width="0.5" height="18.9"/>
<g>
	<path d="M167.8,55.5c0-1.8,2.5-3.5,4.5-3.5c1.3,0,2.3,0.7,2.3,1.7c0,1.7-2.5,3.5-4.6,3.5C168.8,57.3,167.8,56.6,167.8,55.5z"/>
</g>
<rect x="200.6" y="64.8" width="0.5" height="16.4"/>
<g>
	<path d="M194.2,82.8c0-1.8,2.5-3.5,4.5-3.5c1.3,0,2.3,0.7,2.3,1.7c0,1.7-2.5,3.5-4.6,3.5C195.1,84.5,194.2,83.9,194.2,82.8z"/>
</g>
<rect x="215.3" y="63.2" width="0.5" height="15.5"/>
<g>
	<path d="M208.9,80.3c0-1.8,2.5-3.5,4.5-3.5c1.3,0,2.3,0.7,2.3,1.7c0,1.7-2.5,3.5-4.6,3.5C209.9,82.1,208.9,81.4,208.9,80.3z"/>
</g>
<rect x="230.1" y="61.5" width="0.5" height="14.7"/>
<g>
	<path d="M223.6,77.9c0-1.8,2.5-3.5,4.5-3.5c1.3,0,2.3,0.7,2.3,1.7c0,1.7-2.5,3.5-4.6,3.5C224.6,79.6,223.6,78.9,223.6,77.9z"/>
</g>
<rect x="244.8" y="59.8" width="0.5" height="14"/>
<g>
	<path d="M238.3,75.4c0-1.8,2.5-3.5,4.5-3.5c1.3,0,2.3,0.7,2.3,1.7c0,1.7-2.5,3.5-4.6,3.5C239.3,77.1,238.3,76.5,238.3,75.4z"/>
</g>
<rect x="253" y="72.8" width="0.5" height="17.7"/>
<g>
	<path d="M253.1,72.9c0-1.8,2.5-3.5,4.5-3.5c1.3,0,2.3,0.7,2.3,1.7c0,1.7-2.5,3.5-4.6,3.5C254,74.6,253.1,74,253.1,72.9z"/>
</g>
<rect x="267.7" y="70.3" width="0.5" height="19.8"/>
<g>
	<path d="M267.8,70.4c0-1.8,2.5-3.5,4.5-3.5c1.3,0,2.3,0.7,2.3,1.7c0,1.7-2.5,3.5-4.6,3.5C268.8,72.1,267.8,71.5,267.8,70.4z"/>
</g>
<rect x="282.4" y="67.9" width="0.5" height="21.9"/>
<g>
	<path d="M282.5,67.9c0-1.8,2.5-3.5,4.5-3.5c1.3,0,2.3,0.7,2.3,1.7c0,1.7-2.5,3.5-4.6,3.5C283.5,69.7,282.5,69,282.5,67.9z"/>
</g>
<rect x="297.2" y="70.3" width="0.5" height="18.9"/>
<g>
	<path d="M297.3,70.4c0-1.8,2.5-3.5,4.5-3.5c1.3,0,2.3,0.7,2.3,1.7c0,1.7-2.5,3.5-4.6,3.5C298.2,72.1,297.3,71.5,297.3,70.4z"/>
</g>
<rect x="318.4" y="54.8" width="0.5" height="16.4"/>
<g>
	<path d="M312,72.9c0-1.8,2.5-3.5,4.5-3.5c1.3,0,2.3,0.7,2.3,1.7c0,1.7-2.5,3.5-4.6,3.5C313,74.6,312,74,312,72.9z"/>
</g>
<rect x="333.1" y="56.4" width="0.5" height="17.4"/>
<g>
	<path d="M326.7,75.4c0-1.8,2.5-3.5,4.5-3.5c1.3,0,2.3,0.7,2.3,1.7c0,1.7-2.5,3.5-4.6,3.5C327.7,77.1,326.7,76.5,326.7,75.4z"/>
</g>
<rect x="347.9" y="58.1" width="0.5" height="18.1"/>
<g>
	<path d="M341.4,77.9c0-1.8,2.5-3.5,4.5-3.5c1.3,0,2.3,0.7,2.3,1.7c0,1.7-2.5,3.5-4.6,3.5C342.4,79.6,341.4,78.9,341.4,77.9z"/>
</g>
<rect x="362.6" y="59.8" width="0.5" height="18.9"/>
<g>
	<path d="M356.2,80.3c0-1.8,2.5-3.5,4.5-3.5c1.3,0,2.3,0.7,2.3,1.7c0,1.7-2.5,3.5-4.6,3.5C357.1,82.1,356.2,81.4,356.2,80.3z"/>
</g>
<rect x="380.7" y="59.3" width="10.5" height="0.8"/>
<rect x="380.7" y="54.3" width="10.5" height="0.8"/>
<rect x="382.4" y="53" width="0.5" height="21.4"/>
<g>
	<path d="M382.5,53.1c0-1.8,2.5-3.5,4.5-3.5c1.3,0,2.3,0.7,2.3,1.7c0,1.7-2.5,3.5-4.6,3.5C383.5,54.8,382.5,54.1,382.5,53.1z"/>
</g>
<rect x="395.4" y="59.3" width="10.5" height="0.8"/>
<rect x="395.4" y="54.3" width="10.5" height="0.8"/>
<rect x="397.2" y="55.5" width="0.5" height="19.2"/>
<g>
	<path d="M397.2,55.5c0-1.8,2.5-3.5,4.5-3.5c1.3,0,2.3,0.7,2.3,1.7c0,1.7-2.5,3.5-4.6,3.5C398.2,57.3,397.2,56.6,397.2,55.5z"/>
</g>
<rect x="410.1" y="59.3" width="10.5" height="0.8"/>
<rect x="411.9" y="57.9" width="0.5" height="17.2"/>
<g>
	<path d="M412,58c0-1.8,2.5-3.5,4.5-3.5c1.3,0,2.3,0.7,2.3,1.7c0,1.7-2.5,3.5-4.6,3.5C412.9,59.7,412,59.1,412,58z"/>
</g>
<rect x="424.7" y="59.3" width="10.5" height="0.8"/>
<rect x="426.5" y="60.4" width="0.5" height="15.2"/>
<g>
	<path d="M426.5,60.5c0-1.8,2.5-3.5,4.5-3.5c1.3,0,2.3,0.7,2.3,1.7c0,1.7-2.5,3.5-4.6,3.5C427.5,62.2,426.5,61.6,426.5,60.5z"/>
</g>
<rect x="441.2" y="62.9" width="0.5" height="16.4"/>
<g>
	<path d="M441.3,63c0-1.8,2.5-3.5,4.5-3.5c1.3,0,2.3,0.7,2.3,1.7c0,1.7-2.5,3.5-4.6,3.5C442.2,64.7,441.3,64.1,441.3,63z"/>
</g>
<rect x="455.9" y="65.4" width="0.5" height="15.5"/>
<g>
	<path d="M456,65.5c0-1.8,2.5-3.5,4.5-3.5c1.3,0,2.3,0.7,2.3,1.7c0,1.7-2.5,3.5-4.6,3.5C457,67.2,456,66.5,456,65.5z"/>
</g>
<rect x="470.6" y="67.9" width="0.5" height="14.7"/>
<g>
	<path d="M470.7,67.9c0-1.8,2.5-3.5,4.5-3.5c1.3,0,2.3,0.7,2.3,1.7c0,1.7-2.5,3.5-4.6,3.5C471.7,69.7,470.7,69,470.7,67.9z"/>
</g>
<rect x="485.4" y="70.3" width="0.5" height="14"/>
<g>
	<path d="M485.4,70.4c0-1.8,2.5-3.5,4.5-3.5c1.3,0,2.3,0.7,2.3,1.7c0,1.7-2.5,3.5-4.6,3.5C486.4,72.1,485.4,71.5,485.4,70.4z"/>
</g>
<rect x="500.1" y="72.8" width="0.5" height="16.6"/>
<g>
	<path d="M504.4,69.3c1.6,0,2.7,0.7,2.7,2c0,1.9-2.3,3.4-4.5,3.4c-1.3,0-2.4-0.7-2.4-1.8C500.2,71.1,502.4,69.3,504.4,69.3z
		 M500.6,73.2c0,0.6,0.4,0.9,1.1,0.9c1.4,0,4.9-2.1,4.9-3.3c0-0.6-0.4-0.9-1.1-0.9C504.3,69.9,500.6,72,500.6,73.2z"/>
</g>
</svg>
