<?xml version="1.0" encoding="utf-8"?>

<!--
	ScaleBook
	Copyright (c) Leland Jansen 2015. All rights reserved.
-->

<!DOCTYPE svg PUBLIC "-//W3C//DTD SVG 1.1//EN" "http://www.w3.org/Graphics/SVG/1.1/DTD/svg11.dtd">
<svg version="1.1" id="Layer_1" xmlns="http://www.w3.org/2000/svg" xmlns:xlink="http://www.w3.org/1999/xlink" x="0px" y="0px"
	 viewBox="0 0 552.9 90.6" enable-background="new 0 0 552.9 90.6" xml:space="preserve">
<rect x="8.4" y="17.5" width="0.8" height="67"/>
<g>
	<path d="M7.4,18.1c-1.9,1.1-3.6,5.8-3.6,9.4c0,2.3,1.4,9.9,1.4,12.3c0,5-1.5,8.6-4.6,11.1c3,2.4,4.6,6.1,4.6,11.1
		c0,2.3-1.4,9.9-1.4,12.3c0,3.8,1.7,8.4,3.6,9.5v0.7c-3.5-2.3-5.8-8.2-5.8-13.1c0-2.1,1.7-9.4,1.7-11.5c0-3.8-1-6.6-2.9-8.2
		C0.1,51.4,0,51.2,0,51c0-0.2,0.1-0.4,0.5-0.7c1.9-1.7,2.9-4.2,2.9-7.6c0-2.1-1.7-10-1.7-12.2c0-5.2,2.1-10.4,5.8-13.1V18.1z"/>
</g>
<rect x="547.8" y="17.5" width="0.8" height="67"/>
<rect x="550.4" y="17.5" width="2.5" height="67"/>
<rect x="8.5" y="37.1" width="544.4" height="0.5"/>
<rect x="8.5" y="32.1" width="544.4" height="0.5"/>
<rect x="8.5" y="27.2" width="544.4" height="0.5"/>
<rect x="8.5" y="22.2" width="544.4" height="0.5"/>
<rect x="8.5" y="17.2" width="544.4" height="0.5"/>
<g>
	<path d="M20.3,37.2c-4.2,0-8.1-3.1-8.1-6.9c0-3.2,2.3-6.7,6.8-10.5c-0.3-1.2-0.4-2.4-0.4-3.6c0-3.5,1.2-6.8,3.2-8.5
		c1.8,2.5,2.7,4.9,2.7,7.1c0,2.9-1.3,5.6-4.3,8.1l0.9,4.2c0.5,0,0.8-0.1,0.8-0.1c2.6,0,4.8,2,4.8,4.7c0,1.9-1.4,3.7-3.6,4.8
		c0-0.1,0.9,3.8,0.9,4.3c0,2.5-2.3,4.2-4.9,4.2c-2,0-3.6-1.3-3.6-3.4c0-1.4,1-2.6,2.4-2.6c1.3,0,2.3,1.3,2.3,2.5
		c0,1.4-1.2,2.3-2.7,2.5c0.6,0.3,1.2,0.5,1.9,0.5c2.1,0,4.1-1.6,4.1-3.6c0-0.2,0-0.4-0.1-0.6l-0.8-3.7C21.9,37,21.2,37.2,20.3,37.2z
		 M18.1,31.9c0,1,0.5,1.9,1.6,2.5c-1.8-0.3-3-1.4-3-3.1c0-2,1.7-3.7,3.8-4.1l-0.8-4C16,26,14,28.8,14,31.4c0,2.9,2.8,5.3,6,5.3
		c0.9,0,1.7-0.2,2.4-0.5L21,29.3C19.4,29.6,18.1,30.6,18.1,31.9z M22.1,10.6c-1.6,0-2.9,3.7-2.9,7c0,0.7,0,1.3,0.2,1.9
		c2.7-2.4,4-4.5,4-6.5c0-0.9-0.3-1.7-1-2.4C22.4,10.6,22.3,10.6,22.1,10.6z M24.9,32.5c0-1.6-1.2-3.3-2.9-3.3c-0.1,0-0.2,0-0.5,0
		l1.4,6.6C24.2,34.9,24.9,33.8,24.9,32.5z"/>
</g>
<g>
	<path d="M33.5,10.7v2.8l1-0.3V15l-1,0.3v3.4l1-0.3v1.8l-1,0.3v3.1H33v-3l-1.9,0.6v3h-0.5v-2.8l-1,0.3V20l1-0.3v-3.4l-1,0.3v-1.8
		l1-0.3v-3.1h0.5v3l1.9-0.6v-3H33.5z M33,15.4l-1.9,0.6v3.4l1.9-0.6V15.4z"/>
</g>
<g>
	<path d="M39.7,18.1v2.8l1-0.3v1.8l-1,0.3v3.4l1-0.3v1.8l-1,0.3v3.1h-0.5v-3l-1.9,0.6v3h-0.5v-2.8l-1,0.3v-1.8l1-0.3v-3.4l-1,0.3
		v-1.8l1-0.3v-3.1h0.5v3l1.9-0.6v-3H39.7z M39.2,22.9l-1.9,0.6v3.4l1.9-0.6V22.9z"/>
</g>
<polygon fill-rule="evenodd" clip-rule="evenodd" points="56,23.7 101.8,18.7 101.8,16.2 56,21.2 "/>
<polygon fill-rule="evenodd" clip-rule="evenodd" points="56,20 101.8,15 101.8,12.5 56,17.5 "/>
<polygon fill-rule="evenodd" clip-rule="evenodd" points="110.5,38.6 156.3,33.6 156.3,31.1 110.5,36.1 "/>
<polygon fill-rule="evenodd" clip-rule="evenodd" points="110.5,42.3 156.3,37.3 156.3,34.8 110.5,39.8 "/>
<polygon fill-rule="evenodd" clip-rule="evenodd" points="182.7,28.6 228.4,23.7 228.4,21.2 182.7,26.2 "/>
<polygon fill-rule="evenodd" clip-rule="evenodd" points="182.7,32.4 228.4,27.4 228.4,24.9 182.7,29.9 "/>
<polygon fill-rule="evenodd" clip-rule="evenodd" points="243.6,24.9 289.3,23.7 289.3,21.2 243.6,22.4 "/>
<polygon fill-rule="evenodd" clip-rule="evenodd" points="243.6,28.6 289.3,27.4 289.3,24.9 243.6,26.2 "/>
<polygon fill-rule="evenodd" clip-rule="evenodd" points="304.7,23.7 350.4,28.6 350.4,26.2 304.7,21.2 "/>
<polygon fill-rule="evenodd" clip-rule="evenodd" points="304.7,27.4 350.4,32.4 350.4,29.9 304.7,24.9 "/>
<polygon fill-rule="evenodd" clip-rule="evenodd" points="376.8,33.6 422.5,38.6 422.5,36.1 376.8,31.1 "/>
<polygon fill-rule="evenodd" clip-rule="evenodd" points="376.8,37.3 422.5,42.3 422.5,39.8 376.8,34.8 "/>
<polygon fill-rule="evenodd" clip-rule="evenodd" points="444.2,18.7 489.9,23.7 489.9,21.2 444.2,16.2 "/>
<polygon fill-rule="evenodd" clip-rule="evenodd" points="444.2,15 489.9,20 489.9,17.5 444.2,12.5 "/>
<rect x="8.5" y="84.2" width="544.4" height="0.5"/>
<rect x="8.5" y="79.3" width="544.4" height="0.5"/>
<rect x="8.5" y="74.3" width="544.4" height="0.5"/>
<rect x="8.5" y="69.3" width="544.4" height="0.5"/>
<rect x="8.5" y="64.4" width="544.4" height="0.5"/>
<g>
	<path d="M15.7,78.8c2.9-2.6,4.7-6.1,4.7-9.2c0-2.5-1.4-4.4-3.7-4.4c-1.6,0-3.4,1.3-3.4,2.7c0,0.2,0,0.3,0.1,0.3
		c-0.1,0,0.6-0.6,1.4-0.6c0.9,0,1.5,0.8,1.5,1.7c0,1.2-0.9,2.2-2.1,2.2c-1.2,0-2.1-1.3-2.1-2.8c0-2.3,2.3-4.1,4.8-4.1
		c4.7,0,5.9,3.2,5.9,5.8c0,1.6-0.4,2.9-2,5.3C19.1,78.7,14.6,81,13,81c-0.4,0-0.6-0.2-0.6-0.5C13.8,80.1,14.9,79.5,15.7,78.8z
		 M25.7,66.1c0.6,0,1,0.4,1,1c0,0.6-0.4,1-1,1s-1-0.4-1-1C24.7,66.5,25.1,66.1,25.7,66.1z M25.7,71c0.6,0,1,0.4,1,1c0,0.6-0.4,1-1,1
		s-1-0.4-1-1C24.7,71.5,25.1,71,25.7,71z"/>
</g>
<g>
	<path d="M33.5,62.7v2.8l1-0.3V67l-1,0.3v3.4l1-0.3v1.8l-1,0.3v3.1H33v-3l-1.9,0.6v3h-0.5v-2.8l-1,0.3v-1.8l1-0.3v-3.4l-1,0.3v-1.8
		l1-0.3v-3.1h0.5v3l1.9-0.6v-3H33.5z M33,67.5l-1.9,0.6v3.4L33,71V67.5z"/>
</g>
<g>
	<path d="M39.7,70.2V73l1-0.3v1.8l-1,0.3v3.4l1-0.3v1.8l-1,0.3v3.1h-0.5v-3l-1.9,0.6v3h-0.5V81l-1,0.3v-1.8l1-0.3v-3.4l-1,0.3v-1.8
		l1-0.3v-3.1h0.5v3l1.9-0.6v-3H39.7z M39.2,75l-1.9,0.6V79l1.9-0.6V75z"/>
</g>
<polygon fill-rule="evenodd" clip-rule="evenodd" points="49.5,85.7 95.3,80.7 95.3,78.2 49.5,83.2 "/>
<polygon fill-rule="evenodd" clip-rule="evenodd" points="49.5,89.4 95.3,84.4 95.3,82 49.5,86.9 "/>
<g>
	<path d="M176.5,83.1c-3.2,0-6.1-2.3-6.1-5.1c0-2.4,1.7-5,5.1-7.9c-0.2-0.9-0.3-1.8-0.3-2.7c0-2.6,0.9-5.1,2.4-6.3
		c1.4,1.9,2,3.7,2,5.3c0,2.2-1,4.2-3.2,6.1l0.7,3.1c0.4,0,0.6,0,0.6,0c2,0,3.6,1.5,3.6,3.5c0,1.4-1.1,2.8-2.7,3.6
		c0-0.1,0.6,2.8,0.6,3.3c0,1.9-1.7,3.2-3.7,3.2c-1.5,0-2.7-1-2.7-2.5c0-1.1,0.7-1.9,1.8-1.9c1,0,1.7,1,1.7,1.9c0,1-0.9,1.7-2,1.8
		c0.4,0.2,0.9,0.3,1.4,0.3c1.6,0,3.1-1.2,3.1-2.7c0-0.1,0-0.3,0-0.5l-0.6-2.8C177.8,83,177.2,83.1,176.5,83.1z M174.9,79.2
		c0,0.8,0.4,1.4,1.2,1.9c-1.3-0.2-2.2-1.1-2.2-2.3c0-1.5,1.3-2.8,2.9-3.1l-0.6-3c-2.8,2.1-4.3,4.1-4.3,6.1c0,2.2,2.1,4,4.5,4
		c0.7,0,1.3-0.1,1.8-0.4l-1.1-5.1C175.8,77.4,174.9,78.1,174.9,79.2z M177.9,63.2c-1.2,0-2.2,2.8-2.2,5.3c0,0.5,0,1,0.1,1.4
		c2-1.8,3-3.4,3-4.9c0-0.7-0.3-1.3-0.7-1.8C178.1,63.2,178,63.2,177.9,63.2z M180,79.6c0-1.2-0.9-2.4-2.2-2.4c0,0-0.2,0-0.4,0l1.1,5
		C179.5,81.4,180,80.6,180,79.6z"/>
</g>
<polygon fill-rule="evenodd" clip-rule="evenodd" points="110.5,75.8 156.3,70.8 156.3,68.3 110.5,73.3 "/>
<polygon fill-rule="evenodd" clip-rule="evenodd" points="110.5,79.5 156.3,74.5 156.3,72 110.5,77 "/>
<polygon fill-rule="evenodd" clip-rule="evenodd" points="189.2,70.8 234.9,65.8 234.9,63.4 189.2,68.3 "/>
<polygon fill-rule="evenodd" clip-rule="evenodd" points="189.2,67.1 234.9,62.1 234.9,59.6 189.2,64.6 "/>
<polygon fill-rule="evenodd" clip-rule="evenodd" points="243.6,86.9 289.3,85.7 289.3,83.2 243.6,84.4 "/>
<polygon fill-rule="evenodd" clip-rule="evenodd" points="243.6,90.6 289.3,89.4 289.3,86.9 243.6,88.2 "/>
<g>
	<path d="M365.3,76.5c2.2-2,3.6-4.6,3.6-6.9c0-1.9-1.1-3.3-2.8-3.3c-1.2,0-2.5,1-2.5,2.1c0,0.2,0,0.2,0.1,0.2c0,0,0.4-0.5,1-0.5
		c0.7,0,1.2,0.6,1.2,1.3c0,0.9-0.6,1.7-1.6,1.7s-1.5-1-1.5-2.1c0-1.8,1.7-3.1,3.6-3.1c3.5,0,4.4,2.4,4.4,4.4c0,1.2-0.3,2.2-1.5,4
		c-1.4,2.3-4.8,4-6,4c-0.3,0-0.5-0.1-0.5-0.3C363.9,77.4,364.7,77,365.3,76.5z M372.8,67c0.4,0,0.7,0.3,0.7,0.7
		c0,0.4-0.3,0.7-0.7,0.7c-0.4,0-0.7-0.3-0.7-0.7C372,67.3,372.4,67,372.8,67z M372.8,70.7c0.4,0,0.7,0.3,0.7,0.7s-0.3,0.7-0.7,0.7
		c-0.4,0-0.7-0.3-0.7-0.7S372.4,70.7,372.8,70.7z"/>
</g>
<polygon fill-rule="evenodd" clip-rule="evenodd" points="311.2,60.9 356.9,65.8 356.9,63.4 311.2,58.4 "/>
<polygon fill-rule="evenodd" clip-rule="evenodd" points="311.2,57.2 356.9,62.1 356.9,59.6 311.2,54.7 "/>
<polygon fill-rule="evenodd" clip-rule="evenodd" points="376.8,70.8 422.5,72 422.5,69.6 376.8,68.3 "/>
<polygon fill-rule="evenodd" clip-rule="evenodd" points="376.8,74.5 422.5,75.8 422.5,73.3 376.8,72 "/>
<polygon fill-rule="evenodd" clip-rule="evenodd" points="437.7,75.8 483.4,80.7 483.4,78.2 437.7,73.3 "/>
<polygon fill-rule="evenodd" clip-rule="evenodd" points="437.7,79.5 483.4,84.4 483.4,82 437.7,77 "/>
<rect x="55.8" y="17.6" width="0.5" height="18.9"/>
<g>
	<path d="M49.4,38.2c0-1.8,2.5-3.5,4.5-3.5c1.3,0,2.3,0.7,2.3,1.7c0,1.7-2.5,3.5-4.6,3.5C50.4,39.9,49.4,39.3,49.4,38.2z"/>
</g>
<rect x="71" y="16.1" width="0.5" height="18"/>
<g>
	<path d="M64.6,35.7c0-1.8,2.5-3.5,4.5-3.5c1.3,0,2.3,0.7,2.3,1.7c0,1.7-2.5,3.5-4.6,3.5C65.5,37.4,64.6,36.8,64.6,35.7z"/>
</g>
<rect x="86.4" y="14.4" width="0.5" height="17.2"/>
<g>
	<path d="M79.9,33.2c0-1.8,2.5-3.5,4.5-3.5c1.3,0,2.3,0.7,2.3,1.7c0,1.7-2.5,3.5-4.6,3.5C80.9,34.9,79.9,34.3,79.9,33.2z"/>
</g>
<rect x="101.5" y="12.7" width="0.5" height="16.4"/>
<g>
	<path d="M95.1,30.7c0-1.8,2.5-3.5,4.5-3.5c1.3,0,2.3,0.7,2.3,1.7c0,1.7-2.5,3.5-4.6,3.5C96.1,32.5,95.1,31.8,95.1,30.7z"/>
</g>
<rect x="110.2" y="28.2" width="0.5" height="14"/>
<g>
	<path d="M110.3,28.3c0-1.8,2.5-3.5,4.5-3.5c1.3,0,2.3,0.7,2.3,1.7c0,1.7-2.5,3.5-4.6,3.5C111.3,30,110.3,29.3,110.3,28.3z"/>
</g>
<rect x="125.6" y="25.7" width="0.5" height="14.9"/>
<g>
	<path d="M125.7,25.8c0-1.8,2.5-3.5,4.5-3.5c1.3,0,2.3,0.7,2.3,1.7c0,1.7-2.5,3.5-4.6,3.5C126.6,27.5,125.7,26.9,125.7,25.8z"/>
</g>
<rect x="140.8" y="23.2" width="0.5" height="15.7"/>
<g>
	<path d="M140.8,23.3c0-1.8,2.5-3.5,4.5-3.5c1.3,0,2.3,0.7,2.3,1.7c0,1.7-2.5,3.5-4.6,3.5C141.8,25,140.8,24.4,140.8,23.3z"/>
</g>
<rect x="156.1" y="20.7" width="0.5" height="16.4"/>
<g>
	<path d="M156.2,20.8c0-1.8,2.5-3.5,4.5-3.5c1.3,0,2.3,0.7,2.3,1.7c0,1.7-2.5,3.5-4.6,3.5C157.2,22.5,156.2,21.9,156.2,20.8z"/>
</g>
<rect x="182.5" y="18.3" width="0.5" height="14"/>
<g>
	<path d="M182.5,18.3c0-1.8,2.5-3.5,4.5-3.5c1.3,0,2.3,0.7,2.3,1.7c0,1.7-2.5,3.5-4.6,3.5C183.5,20.1,182.5,19.4,182.5,18.3z"/>
</g>
<rect x="197.7" y="15.8" width="0.5" height="14.9"/>
<g>
	<path d="M197.7,15.9c0-1.8,2.5-3.5,4.5-3.5c1.3,0,2.3,0.7,2.3,1.7c0,1.7-2.5,3.5-4.6,3.5C198.7,17.6,197.7,16.9,197.7,15.9z"/>
</g>
<rect x="211.1" y="12.1" width="10.5" height="0.8"/>
<rect x="212.8" y="13.3" width="0.5" height="15.7"/>
<g>
	<path d="M212.9,13.4c0-1.8,2.5-3.5,4.5-3.5c1.3,0,2.3,0.7,2.3,1.7c0,1.7-2.5,3.5-4.6,3.5C213.9,15.1,212.9,14.5,212.9,13.4z"/>
</g>
<rect x="226.4" y="12.1" width="10.5" height="0.8"/>
<rect x="228.2" y="10.8" width="0.5" height="16.4"/>
<g>
	<path d="M228.3,10.9c0-1.8,2.5-3.5,4.5-3.5c1.3,0,2.3,0.7,2.3,1.7c0,1.7-2.5,3.5-4.6,3.5C229.2,12.6,228.3,12,228.3,10.9z"/>
</g>
<rect x="241.6" y="12.1" width="10.5" height="0.8"/>
<rect x="241.6" y="7.2" width="10.5" height="0.8"/>
<rect x="243.4" y="8.3" width="0.5" height="20.2"/>
<g>
	<path d="M243.5,8.4c0-1.8,2.5-3.5,4.5-3.5c1.3,0,2.3,0.7,2.3,1.7c0,1.7-2.5,3.5-4.6,3.5C244.4,10.1,243.5,9.5,243.5,8.4z"/>
</g>
<rect x="256.8" y="12.1" width="10.5" height="0.8"/>
<rect x="256.8" y="7.2" width="10.5" height="0.8"/>
<rect x="258.6" y="5.9" width="0.5" height="22.3"/>
<g>
	<path d="M258.7,5.9c0-1.8,2.5-3.5,4.5-3.5c1.3,0,2.3,0.7,2.3,1.7c0,1.7-2.5,3.5-4.6,3.5C259.6,7.7,258.7,7,258.7,5.9z"/>
</g>
<rect x="272.1" y="12.1" width="10.5" height="0.8"/>
<rect x="272.1" y="7.2" width="10.5" height="0.8"/>
<rect x="272.1" y="2.2" width="10.5" height="0.8"/>
<rect x="273.9" y="3.4" width="0.5" height="24.3"/>
<g>
	<path d="M274,3.5c0-1.8,2.5-3.5,4.5-3.5c1.3,0,2.3,0.7,2.3,1.7c0,1.7-2.5,3.5-4.6,3.5C275,5.2,274,4.5,274,3.5z"/>
</g>
<rect x="287.3" y="12.1" width="10.5" height="0.8"/>
<rect x="287.3" y="7.2" width="10.5" height="0.8"/>
<rect x="289.1" y="5.9" width="0.5" height="21.4"/>
<g>
	<path d="M289.2,5.9c0-1.8,2.5-3.5,4.5-3.5c1.3,0,2.3,0.7,2.3,1.7c0,1.7-2.5,3.5-4.6,3.5C290.2,7.7,289.2,7,289.2,5.9z"/>
</g>
<rect x="302.7" y="12.1" width="10.5" height="0.8"/>
<rect x="302.7" y="7.2" width="10.5" height="0.8"/>
<rect x="304.5" y="8.3" width="0.5" height="18.9"/>
<g>
	<path d="M304.5,8.4c0-1.8,2.5-3.5,4.5-3.5c1.3,0,2.3,0.7,2.3,1.7c0,1.7-2.5,3.5-4.6,3.5C305.5,10.1,304.5,9.5,304.5,8.4z"/>
</g>
<rect x="317.9" y="12.1" width="10.5" height="0.8"/>
<rect x="319.7" y="10.8" width="0.5" height="18"/>
<g>
	<path d="M319.7,10.9c0-1.8,2.5-3.5,4.5-3.5c1.3,0,2.3,0.7,2.3,1.7c0,1.7-2.5,3.5-4.6,3.5C320.7,12.6,319.7,12,319.7,10.9z"/>
</g>
<rect x="333.1" y="12.1" width="10.5" height="0.8"/>
<rect x="334.8" y="13.3" width="0.5" height="17.2"/>
<g>
	<path d="M334.9,13.4c0-1.8,2.5-3.5,4.5-3.5c1.3,0,2.3,0.7,2.3,1.7c0,1.7-2.5,3.5-4.6,3.5C335.9,15.1,334.9,14.5,334.9,13.4z"/>
</g>
<rect x="350.2" y="15.8" width="0.5" height="16.4"/>
<g>
	<path d="M350.3,15.9c0-1.8,2.5-3.5,4.5-3.5c1.3,0,2.3,0.7,2.3,1.7c0,1.7-2.5,3.5-4.6,3.5C351.2,17.6,350.3,16.9,350.3,15.9z"/>
</g>
<rect x="376.5" y="18.3" width="0.5" height="18.9"/>
<g>
	<path d="M376.6,18.3c0-1.8,2.5-3.5,4.5-3.5c1.3,0,2.3,0.7,2.3,1.7c0,1.7-2.5,3.5-4.6,3.5C377.6,20.1,376.6,19.4,376.6,18.3z"/>
</g>
<rect x="391.7" y="20.7" width="0.5" height="18"/>
<g>
	<path d="M391.8,20.8c0-1.8,2.5-3.5,4.5-3.5c1.3,0,2.3,0.7,2.3,1.7c0,1.7-2.5,3.5-4.6,3.5C392.8,22.5,391.8,21.9,391.8,20.8z"/>
</g>
<rect x="406.9" y="23.2" width="0.5" height="17.2"/>
<g>
	<path d="M407,23.3c0-1.8,2.5-3.5,4.5-3.5c1.3,0,2.3,0.7,2.3,1.7c0,1.7-2.5,3.5-4.6,3.5C408,25,407,24.4,407,23.3z"/>
</g>
<rect x="422.3" y="25.7" width="0.5" height="16.4"/>
<g>
	<path d="M422.4,25.8c0-1.8,2.5-3.5,4.5-3.5c1.3,0,2.3,0.7,2.3,1.7c0,1.7-2.5,3.5-4.6,3.5C423.3,27.5,422.4,26.9,422.4,25.8z"/>
</g>
<rect x="444" y="12.7" width="0.5" height="14"/>
<g>
	<path d="M437.5,28.3c0-1.8,2.5-3.5,4.5-3.5c1.3,0,2.3,0.7,2.3,1.7c0,1.7-2.5,3.5-4.6,3.5C438.5,30,437.5,29.3,437.5,28.3z"/>
</g>
<rect x="459.2" y="14.2" width="0.5" height="14.9"/>
<g>
	<path d="M452.7,30.7c0-1.8,2.5-3.5,4.5-3.5c1.3,0,2.3,0.7,2.3,1.7c0,1.7-2.5,3.5-4.6,3.5C453.7,32.5,452.7,31.8,452.7,30.7z"/>
</g>
<rect x="474.5" y="15.9" width="0.5" height="15.7"/>
<g>
	<path d="M468.1,33.2c0-1.8,2.5-3.5,4.5-3.5c1.3,0,2.3,0.7,2.3,1.7c0,1.7-2.5,3.5-4.6,3.5C469.1,34.9,468.1,34.3,468.1,33.2z"/>
</g>
<rect x="489.7" y="17.6" width="0.5" height="16.4"/>
<g>
	<path d="M483.3,35.7c0-1.8,2.5-3.5,4.5-3.5c1.3,0,2.3,0.7,2.3,1.7c0,1.7-2.5,3.5-4.6,3.5C484.2,37.4,483.3,36.8,483.3,35.7z"/>
</g>
<rect x="505.2" y="20" width="0.5" height="16.6"/>
<g>
	<path d="M502.9,34.6c1.6,0,2.7,0.7,2.7,2c0,1.9-2.3,3.4-4.5,3.4c-1.3,0-2.4-0.7-2.4-1.8C498.6,36.4,500.9,34.6,502.9,34.6z
		 M499.1,38.5c0,0.6,0.4,0.9,1.1,0.9c1.4,0,4.9-2.1,4.9-3.3c0-0.6-0.4-0.9-1.1-0.9C502.7,35.2,499.1,37.2,499.1,38.5z"/>
</g>
<rect x="49.3" y="72.8" width="0.5" height="16.4"/>
<g>
	<path d="M49.4,72.9c0-1.8,2.5-3.5,4.5-3.5c1.3,0,2.3,0.7,2.3,1.7c0,1.7-2.5,3.5-4.6,3.5C50.4,74.6,49.4,74,49.4,72.9z"/>
</g>
<rect x="64.5" y="70.3" width="0.5" height="17.4"/>
<g>
	<path d="M64.6,70.4c0-1.8,2.5-3.5,4.5-3.5c1.3,0,2.3,0.7,2.3,1.7c0,1.7-2.5,3.5-4.6,3.5C65.5,72.1,64.6,71.5,64.6,70.4z"/>
</g>
<rect x="79.8" y="67.9" width="0.5" height="18.1"/>
<g>
	<path d="M79.9,67.9c0-1.8,2.5-3.5,4.5-3.5c1.3,0,2.3,0.7,2.3,1.7c0,1.7-2.5,3.5-4.6,3.5C80.9,69.7,79.9,69,79.9,67.9z"/>
</g>
<rect x="95" y="65.4" width="0.5" height="18.9"/>
<g>
	<path d="M95.1,65.5c0-1.8,2.5-3.5,4.5-3.5c1.3,0,2.3,0.7,2.3,1.7c0,1.7-2.5,3.5-4.6,3.5C96.1,67.2,95.1,66.5,95.1,65.5z"/>
</g>
<rect x="110.2" y="62.9" width="0.5" height="16.4"/>
<g>
	<path d="M110.3,63c0-1.8,2.5-3.5,4.5-3.5c1.3,0,2.3,0.7,2.3,1.7c0,1.7-2.5,3.5-4.6,3.5C111.3,64.7,110.3,64.1,110.3,63z"/>
</g>
<rect x="123.8" y="59.3" width="10.5" height="0.8"/>
<rect x="125.6" y="60.4" width="0.5" height="17.4"/>
<g>
	<path d="M125.7,60.5c0-1.8,2.5-3.5,4.5-3.5c1.3,0,2.3,0.7,2.3,1.7c0,1.7-2.5,3.5-4.6,3.5C126.6,62.2,125.7,61.6,125.7,60.5z"/>
</g>
<rect x="139" y="59.3" width="10.5" height="0.8"/>
<rect x="140.8" y="57.9" width="0.5" height="18.1"/>
<g>
	<path d="M140.8,58c0-1.8,2.5-3.5,4.5-3.5c1.3,0,2.3,0.7,2.3,1.7c0,1.7-2.5,3.5-4.6,3.5C141.8,59.7,140.8,59.1,140.8,58z"/>
</g>
<rect x="154.3" y="59.3" width="10.5" height="0.8"/>
<rect x="154.3" y="54.3" width="10.5" height="0.8"/>
<rect x="156.1" y="55.5" width="0.5" height="18.9"/>
<g>
	<path d="M156.2,55.5c0-1.8,2.5-3.5,4.5-3.5c1.3,0,2.3,0.7,2.3,1.7c0,1.7-2.5,3.5-4.6,3.5C157.2,57.3,156.2,56.6,156.2,55.5z"/>
</g>
<rect x="189" y="64.8" width="0.5" height="16.4"/>
<g>
	<path d="M182.5,82.8c0-1.8,2.5-3.5,4.5-3.5c1.3,0,2.3,0.7,2.3,1.7c0,1.7-2.5,3.5-4.6,3.5C183.5,84.5,182.5,83.9,182.5,82.8z"/>
</g>
<rect x="204.2" y="63.2" width="0.5" height="15.5"/>
<g>
	<path d="M197.7,80.3c0-1.8,2.5-3.5,4.5-3.5c1.3,0,2.3,0.7,2.3,1.7c0,1.7-2.5,3.5-4.6,3.5C198.7,82.1,197.7,81.4,197.7,80.3z"/>
</g>
<rect x="219.4" y="61.5" width="0.5" height="14.7"/>
<g>
	<path d="M212.9,77.9c0-1.8,2.5-3.5,4.5-3.5c1.3,0,2.3,0.7,2.3,1.7c0,1.7-2.5,3.5-4.6,3.5C213.9,79.6,212.9,78.9,212.9,77.9z"/>
</g>
<rect x="234.7" y="59.8" width="0.5" height="14"/>
<g>
	<path d="M228.3,75.4c0-1.8,2.5-3.5,4.5-3.5c1.3,0,2.3,0.7,2.3,1.7c0,1.7-2.5,3.5-4.6,3.5C229.2,77.1,228.3,76.5,228.3,75.4z"/>
</g>
<rect x="243.4" y="72.8" width="0.5" height="17.7"/>
<g>
	<path d="M243.5,72.9c0-1.8,2.5-3.5,4.5-3.5c1.3,0,2.3,0.7,2.3,1.7c0,1.7-2.5,3.5-4.6,3.5C244.4,74.6,243.5,74,243.5,72.9z"/>
</g>
<rect x="258.6" y="70.3" width="0.5" height="19.8"/>
<g>
	<path d="M258.7,70.4c0-1.8,2.5-3.5,4.5-3.5c1.3,0,2.3,0.7,2.3,1.7c0,1.7-2.5,3.5-4.6,3.5C259.6,72.1,258.7,71.5,258.7,70.4z"/>
</g>
<rect x="273.9" y="67.9" width="0.5" height="21.9"/>
<g>
	<path d="M274,67.9c0-1.8,2.5-3.5,4.5-3.5c1.3,0,2.3,0.7,2.3,1.7c0,1.7-2.5,3.5-4.6,3.5C275,69.7,274,69,274,67.9z"/>
</g>
<rect x="289.1" y="70.3" width="0.5" height="18.9"/>
<g>
	<path d="M289.2,70.4c0-1.8,2.5-3.5,4.5-3.5c1.3,0,2.3,0.7,2.3,1.7c0,1.7-2.5,3.5-4.6,3.5C290.2,72.1,289.2,71.5,289.2,70.4z"/>
</g>
<rect x="311" y="54.8" width="0.5" height="16.4"/>
<g>
	<path d="M304.5,72.9c0-1.8,2.5-3.5,4.5-3.5c1.3,0,2.3,0.7,2.3,1.7c0,1.7-2.5,3.5-4.6,3.5C305.5,74.6,304.5,74,304.5,72.9z"/>
</g>
<rect x="326.2" y="56.4" width="0.5" height="17.4"/>
<g>
	<path d="M319.7,75.4c0-1.8,2.5-3.5,4.5-3.5c1.3,0,2.3,0.7,2.3,1.7c0,1.7-2.5,3.5-4.6,3.5C320.7,77.1,319.7,76.5,319.7,75.4z"/>
</g>
<rect x="341.4" y="58.1" width="0.5" height="18.1"/>
<g>
	<path d="M334.9,77.9c0-1.8,2.5-3.5,4.5-3.5c1.3,0,2.3,0.7,2.3,1.7c0,1.7-2.5,3.5-4.6,3.5C335.9,79.6,334.9,78.9,334.9,77.9z"/>
</g>
<rect x="356.7" y="59.8" width="0.5" height="18.9"/>
<g>
	<path d="M350.3,80.3c0-1.8,2.5-3.5,4.5-3.5c1.3,0,2.3,0.7,2.3,1.7c0,1.7-2.5,3.5-4.6,3.5C351.2,82.1,350.3,81.4,350.3,80.3z"/>
</g>
<rect x="374.8" y="59.3" width="10.5" height="0.8"/>
<rect x="374.8" y="54.3" width="10.5" height="0.8"/>
<rect x="376.5" y="53" width="0.5" height="21.4"/>
<g>
	<path d="M376.6,53.1c0-1.8,2.5-3.5,4.5-3.5c1.3,0,2.3,0.7,2.3,1.7c0,1.7-2.5,3.5-4.6,3.5C377.6,54.8,376.6,54.1,376.6,53.1z"/>
</g>
<rect x="390" y="59.3" width="10.5" height="0.8"/>
<rect x="390" y="54.3" width="10.5" height="0.8"/>
<rect x="391.7" y="55.5" width="0.5" height="19.2"/>
<g>
	<path d="M391.8,55.5c0-1.8,2.5-3.5,4.5-3.5c1.3,0,2.3,0.7,2.3,1.7c0,1.7-2.5,3.5-4.6,3.5C392.8,57.3,391.8,56.6,391.8,55.5z"/>
</g>
<rect x="405.1" y="59.3" width="10.5" height="0.8"/>
<rect x="406.9" y="57.9" width="0.5" height="17.2"/>
<g>
	<path d="M407,58c0-1.8,2.5-3.5,4.5-3.5c1.3,0,2.3,0.7,2.3,1.7c0,1.7-2.5,3.5-4.6,3.5C408,59.7,407,59.1,407,58z"/>
</g>
<rect x="420.5" y="59.3" width="10.5" height="0.8"/>
<rect x="422.3" y="60.4" width="0.5" height="15.2"/>
<g>
	<path d="M422.4,60.5c0-1.8,2.5-3.5,4.5-3.5c1.3,0,2.3,0.7,2.3,1.7c0,1.7-2.5,3.5-4.6,3.5C423.3,62.2,422.4,61.6,422.4,60.5z"/>
</g>
<rect x="437.5" y="62.9" width="0.5" height="16.4"/>
<g>
	<path d="M437.5,63c0-1.8,2.5-3.5,4.5-3.5c1.3,0,2.3,0.7,2.3,1.7c0,1.7-2.5,3.5-4.6,3.5C438.5,64.7,437.5,64.1,437.5,63z"/>
</g>
<rect x="452.7" y="65.4" width="0.5" height="15.5"/>
<g>
	<path d="M452.7,65.5c0-1.8,2.5-3.5,4.5-3.5c1.3,0,2.3,0.7,2.3,1.7c0,1.7-2.5,3.5-4.6,3.5C453.7,67.2,452.7,66.5,452.7,65.5z"/>
</g>
<rect x="468" y="67.9" width="0.5" height="14.7"/>
<g>
	<path d="M468.1,67.9c0-1.8,2.5-3.5,4.5-3.5c1.3,0,2.3,0.7,2.3,1.7c0,1.7-2.5,3.5-4.6,3.5C469.1,69.7,468.1,69,468.1,67.9z"/>
</g>
<rect x="483.2" y="70.3" width="0.5" height="14"/>
<g>
	<path d="M483.3,70.4c0-1.8,2.5-3.5,4.5-3.5c1.3,0,2.3,0.7,2.3,1.7c0,1.7-2.5,3.5-4.6,3.5C484.2,72.1,483.3,71.5,483.3,70.4z"/>
</g>
<rect x="498.5" y="72.8" width="0.5" height="16.6"/>
<g>
	<path d="M502.9,69.3c1.6,0,2.7,0.7,2.7,2c0,1.9-2.3,3.4-4.5,3.4c-1.3,0-2.4-0.7-2.4-1.8C498.6,71.1,500.9,69.3,502.9,69.3z
		 M499.1,73.2c0,0.6,0.4,0.9,1.1,0.9c1.4,0,4.9-2.1,4.9-3.3c0-0.6-0.4-0.9-1.1-0.9C502.7,69.9,499.1,72,499.1,73.2z"/>
</g>
</svg>
