<?xml version="1.0" encoding="utf-8"?>

<!--
	ScaleBook
	Copyright (c) Leland Jansen 2015. All rights reserved.
-->

<!DOCTYPE svg PUBLIC "-//W3C//DTD SVG 1.1//EN" "http://www.w3.org/Graphics/SVG/1.1/DTD/svg11.dtd">
<svg version="1.1" id="Layer_1" xmlns="http://www.w3.org/2000/svg" xmlns:xlink="http://www.w3.org/1999/xlink" x="0px" y="0px"
	 viewBox="0 0 552.9 86.8" enable-background="new 0 0 552.9 86.8" xml:space="preserve">
<rect x="8.4" y="9.9" width="0.8" height="67"/>
<g>
	<path d="M7.4,10.6c-1.9,1.1-3.6,5.8-3.6,9.4c0,2.3,1.4,9.9,1.4,12.3c0,5-1.5,8.6-4.6,11.1c3,2.4,4.6,6.1,4.6,11.1
		c0,2.3-1.4,9.9-1.4,12.3c0,3.8,1.7,8.4,3.6,9.5v0.7c-3.5-2.3-5.8-8.2-5.8-13.1c0-2.1,1.7-9.4,1.7-11.5c0-3.8-1-6.6-2.9-8.2
		C0.1,43.8,0,43.6,0,43.4c0-0.2,0.1-0.4,0.5-0.7c1.9-1.7,2.9-4.2,2.9-7.6c0-2.1-1.7-10-1.7-12.2c0-5.2,2.1-10.4,5.8-13.1V10.6z"/>
</g>
<rect x="547.8" y="9.9" width="0.8" height="67"/>
<rect x="550.4" y="9.9" width="2.5" height="67"/>
<rect x="8.5" y="29.5" width="544.4" height="0.5"/>
<rect x="8.5" y="24.6" width="544.4" height="0.5"/>
<rect x="8.5" y="19.6" width="544.4" height="0.5"/>
<rect x="8.5" y="14.6" width="544.4" height="0.5"/>
<rect x="8.5" y="9.7" width="544.4" height="0.5"/>
<g>
	<path d="M20.3,29.6c-4.2,0-8.1-3.1-8.1-6.9c0-3.2,2.3-6.7,6.8-10.5c-0.3-1.2-0.4-2.4-0.4-3.6c0-3.5,1.2-6.8,3.2-8.5
		c1.8,2.5,2.7,4.9,2.7,7.1c0,2.9-1.3,5.6-4.3,8.1l0.9,4.2c0.5,0,0.8-0.1,0.8-0.1c2.6,0,4.8,2,4.8,4.7c0,1.9-1.4,3.7-3.6,4.8
		c0-0.1,0.9,3.8,0.9,4.3c0,2.5-2.3,4.2-4.9,4.2c-2,0-3.6-1.3-3.6-3.4c0-1.4,1-2.6,2.4-2.6c1.3,0,2.3,1.3,2.3,2.5
		c0,1.4-1.2,2.3-2.7,2.5c0.6,0.3,1.2,0.5,1.9,0.5c2.1,0,4.1-1.6,4.1-3.6c0-0.2,0-0.4-0.1-0.6l-0.8-3.7
		C21.9,29.5,21.2,29.6,20.3,29.6z M18.1,24.4c0,1,0.5,1.9,1.6,2.5c-1.8-0.3-3-1.4-3-3.1c0-2,1.7-3.7,3.8-4.1l-0.8-4
		C16,18.5,14,21.2,14,23.8c0,2.9,2.8,5.3,6,5.3c0.9,0,1.7-0.2,2.4-0.5L21,21.8C19.4,22,18.1,23,18.1,24.4z M22.1,3
		c-1.6,0-2.9,3.7-2.9,7c0,0.7,0,1.3,0.2,1.9c2.7-2.4,4-4.5,4-6.5c0-0.9-0.3-1.7-1-2.4C22.4,3.1,22.3,3,22.1,3z M24.9,24.9
		c0-1.6-1.2-3.3-2.9-3.3c-0.1,0-0.2,0-0.5,0l1.4,6.6C24.2,27.4,24.9,26.2,24.9,24.9z"/>
</g>
<g>
	<path d="M33.5,3.1v2.8l1-0.3v1.8l-1,0.3v3.4l1-0.3v1.8l-1,0.3v3.1H33v-3l-1.9,0.6v3h-0.5v-2.8l-1,0.3v-1.8l1-0.3V8.7l-1,0.3V7.2
		l1-0.3V3.7h0.5v3L33,6.1v-3H33.5z M33,7.9l-1.9,0.6v3.4l1.9-0.6V7.9z"/>
</g>
<g>
	<path d="M39.7,10.5v2.8l1-0.3v1.8l-1,0.3v3.4l1-0.3v1.8l-1,0.3v3.1h-0.5v-3l-1.9,0.6v3h-0.5v-2.8l-1,0.3v-1.8l1-0.3v-3.4l-1,0.3
		v-1.8l1-0.3v-3.1h0.5v3l1.9-0.6v-3H39.7z M39.2,15.3L37.3,16v3.4l1.9-0.6V15.3z"/>
</g>
<g>
	<path d="M45.9,0.6v2.8l1-0.3v1.8l-1,0.3v3.4l1-0.3v1.8l-1,0.3v3.1h-0.5v-3l-1.9,0.6v3H43v-2.8l-1,0.3V9.9l1-0.3V6.2l-1,0.3V4.7
		l1-0.3V1.3h0.5v3l1.9-0.6v-3H45.9z M45.4,5.4L43.5,6v3.4l1.9-0.6V5.4z"/>
</g>
<g>
	<path d="M52.1,8.1v2.8l1-0.3v1.8l-1,0.3v3.4l1-0.3v1.8l-1,0.3V21h-0.5v-3l-1.9,0.6v3h-0.5v-2.8l-1,0.3v-1.8l1-0.3v-3.4l-1,0.3v-1.8
		l1-0.3V8.7h0.5v3l1.9-0.6v-3H52.1z M51.6,12.8l-1.9,0.6v3.4l1.9-0.6V12.8z"/>
</g>
<polygon fill-rule="evenodd" clip-rule="evenodd" points="68.5,26 115.1,24.8 115.1,22.3 68.5,23.6 "/>
<polygon fill-rule="evenodd" clip-rule="evenodd" points="68.5,22.3 115.1,21.1 115.1,18.6 68.5,19.8 "/>
<polygon fill-rule="evenodd" clip-rule="evenodd" points="130.8,21.1 177.4,16.1 177.4,13.6 130.8,18.6 "/>
<polygon fill-rule="evenodd" clip-rule="evenodd" points="130.8,17.4 177.4,12.4 177.4,9.9 130.8,14.9 "/>
<polygon fill-rule="evenodd" clip-rule="evenodd" points="192.9,11.2 239.6,6.2 239.6,3.7 192.9,8.7 "/>
<polygon fill-rule="evenodd" clip-rule="evenodd" points="192.9,7.4 239.6,2.5 239.6,0 192.9,5 "/>
<polygon fill-rule="evenodd" clip-rule="evenodd" points="248.7,27.3 295.4,26 295.4,23.6 248.7,24.8 "/>
<polygon fill-rule="evenodd" clip-rule="evenodd" points="248.7,31 295.4,29.8 295.4,27.3 248.7,28.5 "/>
<polygon fill-rule="evenodd" clip-rule="evenodd" points="310.9,31 357.7,36 357.7,33.5 310.9,28.5 "/>
<polygon fill-rule="evenodd" clip-rule="evenodd" points="310.9,34.7 357.7,39.7 357.7,37.2 310.9,32.2 "/>
<polygon fill-rule="evenodd" clip-rule="evenodd" points="379.7,16.1 426.4,21.1 426.4,18.6 379.7,13.6 "/>
<polygon fill-rule="evenodd" clip-rule="evenodd" points="379.7,12.4 426.4,17.4 426.4,14.9 379.7,9.9 "/>
<polygon fill-rule="evenodd" clip-rule="evenodd" points="442,24.8 488.7,26 488.7,23.6 442,22.3 "/>
<polygon fill-rule="evenodd" clip-rule="evenodd" points="442,21.1 488.7,22.3 488.7,19.8 442,18.6 "/>
<rect x="8.5" y="76.7" width="544.4" height="0.5"/>
<rect x="8.5" y="71.7" width="544.4" height="0.5"/>
<rect x="8.5" y="66.7" width="544.4" height="0.5"/>
<rect x="8.5" y="61.8" width="544.4" height="0.5"/>
<rect x="8.5" y="56.8" width="544.4" height="0.5"/>
<g>
	<path d="M15.7,71.2c2.9-2.6,4.7-6.1,4.7-9.2c0-2.5-1.4-4.4-3.7-4.4c-1.6,0-3.4,1.3-3.4,2.7c0,0.2,0,0.3,0.1,0.3
		c-0.1,0,0.6-0.6,1.4-0.6c0.9,0,1.5,0.8,1.5,1.7c0,1.2-0.9,2.2-2.1,2.2c-1.2,0-2.1-1.3-2.1-2.8c0-2.3,2.3-4.1,4.8-4.1
		c4.7,0,5.9,3.2,5.9,5.8c0,1.6-0.4,2.9-2,5.3c-1.9,3.1-6.4,5.3-8.1,5.3c-0.4,0-0.6-0.2-0.6-0.5C13.8,72.5,14.9,71.9,15.7,71.2z
		 M25.7,58.5c0.6,0,1,0.4,1,1c0,0.6-0.4,1-1,1s-1-0.4-1-1C24.7,59,25.1,58.5,25.7,58.5z M25.7,63.5c0.6,0,1,0.4,1,1c0,0.6-0.4,1-1,1
		s-1-0.4-1-1C24.7,63.9,25.1,63.5,25.7,63.5z"/>
</g>
<g>
	<path d="M33.5,55.2V58l1-0.3v1.8l-1,0.3v3.4l1-0.3v1.8l-1,0.3v3.1H33v-3l-1.9,0.6v3h-0.5V66l-1,0.3v-1.8l1-0.3v-3.4l-1,0.3v-1.8
		l1-0.3v-3.1h0.5v3l1.9-0.6v-3H33.5z M33,60l-1.9,0.6V64l1.9-0.6V60z"/>
</g>
<g>
	<path d="M39.7,62.6v2.8l1-0.3v1.8l-1,0.3v3.4l1-0.3v1.8l-1,0.3v3.1h-0.5v-3l-1.9,0.6v3h-0.5v-2.8l-1,0.3v-1.8l1-0.3v-3.4l-1,0.3
		v-1.8l1-0.3v-3.1h0.5v3l1.9-0.6v-3H39.7z M39.2,67.4L37.3,68v3.4l1.9-0.6V67.4z"/>
</g>
<g>
	<path d="M45.9,52.7v2.8l1-0.3V57l-1,0.3v3.4l1-0.3v1.8l-1,0.3v3.1h-0.5v-3l-1.9,0.6v3H43v-2.8l-1,0.3V62l1-0.3v-3.4l-1,0.3v-1.8
		l1-0.3v-3.1h0.5v3l1.9-0.6v-3H45.9z M45.4,57.5l-1.9,0.6v3.4l1.9-0.6V57.5z"/>
</g>
<g>
	<path d="M52.1,60.1V63l1-0.3v1.8l-1,0.3v3.4l1-0.3v1.8l-1,0.3v3.1h-0.5v-3l-1.9,0.6v3h-0.5v-2.8l-1,0.3v-1.8l1-0.3v-3.4l-1,0.3
		v-1.8l1-0.3v-3.1h0.5v3l1.9-0.6v-3H52.1z M51.6,64.9l-1.9,0.6V69l1.9-0.6V64.9z"/>
</g>
<polygon fill-rule="evenodd" clip-rule="evenodd" points="68.5,68.2 115.1,63.2 115.1,60.8 68.5,65.7 "/>
<polygon fill-rule="evenodd" clip-rule="evenodd" points="68.5,64.5 115.1,59.5 115.1,57 68.5,62 "/>
<polygon fill-rule="evenodd" clip-rule="evenodd" points="124.3,83.1 170.9,78.1 170.9,75.6 124.3,80.6 "/>
<polygon fill-rule="evenodd" clip-rule="evenodd" points="124.3,86.8 170.9,81.8 170.9,79.4 124.3,84.3 "/>
<polygon fill-rule="evenodd" clip-rule="evenodd" points="186.4,73.2 233.1,68.2 233.1,65.7 186.4,70.7 "/>
<polygon fill-rule="evenodd" clip-rule="evenodd" points="186.4,76.9 233.1,71.9 233.1,69.4 186.4,74.4 "/>
<polygon fill-rule="evenodd" clip-rule="evenodd" points="248.7,64.5 295.4,63.2 295.4,60.8 248.7,62 "/>
<polygon fill-rule="evenodd" clip-rule="evenodd" points="248.7,68.2 295.4,67 295.4,64.5 248.7,65.7 "/>
<polygon fill-rule="evenodd" clip-rule="evenodd" points="310.9,63.2 357.7,68.2 357.7,65.7 310.9,60.8 "/>
<polygon fill-rule="evenodd" clip-rule="evenodd" points="310.9,67 357.7,71.9 357.7,69.4 310.9,64.5 "/>
<polygon fill-rule="evenodd" clip-rule="evenodd" points="373.2,73.2 419.9,78.1 419.9,75.6 373.2,70.7 "/>
<polygon fill-rule="evenodd" clip-rule="evenodd" points="373.2,76.9 419.9,81.8 419.9,79.4 373.2,74.4 "/>
<polygon fill-rule="evenodd" clip-rule="evenodd" points="442,58.3 488.7,63.2 488.7,60.8 442,55.8 "/>
<polygon fill-rule="evenodd" clip-rule="evenodd" points="442,54.6 488.7,59.5 488.7,57 442,52.1 "/>
<rect x="59.9" y="34.3" width="10.5" height="0.8"/>
<rect x="59.9" y="39.3" width="10.5" height="0.8"/>
<rect x="59.9" y="44.3" width="10.5" height="0.8"/>
<rect x="68.2" y="20" width="0.5" height="23.9"/>
<g>
	<path d="M61.8,45.5c0-1.8,2.5-3.5,4.5-3.5c1.3,0,2.3,0.7,2.3,1.7c0,1.7-2.5,3.5-4.6,3.5C62.8,47.2,61.8,46.6,61.8,45.5z"/>
</g>
<rect x="75.4" y="34.3" width="10.5" height="0.8"/>
<rect x="75.4" y="39.3" width="10.5" height="0.8"/>
<rect x="83.7" y="19.7" width="0.5" height="21.7"/>
<g>
	<path d="M77.3,43c0-1.8,2.5-3.5,4.5-3.5c1.3,0,2.3,0.7,2.3,1.7c0,1.7-2.5,3.5-4.6,3.5C78.3,44.7,77.3,44.1,77.3,43z"/>
</g>
<rect x="91.1" y="34.3" width="10.5" height="0.8"/>
<rect x="91.1" y="39.3" width="10.5" height="0.8"/>
<rect x="99.4" y="19.2" width="0.5" height="19.7"/>
<g>
	<path d="M92.9,40.5c0-1.8,2.5-3.5,4.5-3.5c1.3,0,2.3,0.7,2.3,1.7c0,1.7-2.5,3.5-4.6,3.5C93.9,42.3,92.9,41.6,92.9,40.5z"/>
</g>
<rect x="106.6" y="34.3" width="10.5" height="0.8"/>
<rect x="114.9" y="18.8" width="0.5" height="17.7"/>
<g>
	<path d="M108.4,38.1c0-1.8,2.5-3.5,4.5-3.5c1.3,0,2.3,0.7,2.3,1.7c0,1.7-2.5,3.5-4.6,3.5C109.4,39.8,108.4,39.1,108.4,38.1z"/>
</g>
<rect x="122.2" y="34.3" width="10.5" height="0.8"/>
<rect x="130.5" y="15" width="0.5" height="18.9"/>
<g>
	<path d="M124.1,35.6c0-1.8,2.5-3.5,4.5-3.5c1.3,0,2.3,0.7,2.3,1.7c0,1.7-2.5,3.5-4.6,3.5C125.1,37.3,124.1,36.7,124.1,35.6z"/>
</g>
<rect x="146" y="13.5" width="0.5" height="18"/>
<g>
	<path d="M139.6,33.1c0-1.8,2.5-3.5,4.5-3.5c1.3,0,2.3,0.7,2.3,1.7c0,1.7-2.5,3.5-4.6,3.5C140.6,34.8,139.6,34.2,139.6,33.1z"/>
</g>
<rect x="161.5" y="11.8" width="0.5" height="17.2"/>
<g>
	<path d="M155.1,30.6c0-1.8,2.5-3.5,4.5-3.5c1.3,0,2.3,0.7,2.3,1.7c0,1.7-2.5,3.5-4.6,3.5C156.1,32.3,155.1,31.7,155.1,30.6z"/>
</g>
<rect x="177.2" y="10.1" width="0.5" height="16.4"/>
<g>
	<path d="M170.8,28.1c0-1.8,2.5-3.5,4.5-3.5c1.3,0,2.3,0.7,2.3,1.7c0,1.7-2.5,3.5-4.6,3.5C171.7,29.9,170.8,29.2,170.8,28.1z"/>
</g>
<rect x="192.7" y="5.1" width="0.5" height="18.9"/>
<g>
	<path d="M186.3,25.7c0-1.8,2.5-3.5,4.5-3.5c1.3,0,2.3,0.7,2.3,1.7c0,1.7-2.5,3.5-4.6,3.5C187.2,27.4,186.3,26.7,186.3,25.7z"/>
</g>
<rect x="208.4" y="3.6" width="0.5" height="18"/>
<g>
	<path d="M201.9,23.2c0-1.8,2.5-3.5,4.5-3.5c1.3,0,2.3,0.7,2.3,1.7c0,1.7-2.5,3.5-4.6,3.5C202.9,24.9,201.9,24.3,201.9,23.2z"/>
</g>
<rect x="223.9" y="1.9" width="0.5" height="17.2"/>
<g>
	<path d="M217.4,20.7c0-1.8,2.5-3.5,4.5-3.5c1.3,0,2.3,0.7,2.3,1.7c0,1.7-2.5,3.5-4.6,3.5C218.4,22.4,217.4,21.8,217.4,20.7z"/>
</g>
<rect x="239.4" y="0.2" width="0.5" height="16.4"/>
<g>
	<path d="M232.9,18.2c0-1.8,2.5-3.5,4.5-3.5c1.3,0,2.3,0.7,2.3,1.7c0,1.7-2.5,3.5-4.6,3.5C233.9,19.9,232.9,19.3,232.9,18.2z"/>
</g>
<rect x="248.5" y="15.7" width="0.5" height="15.2"/>
<g>
	<path d="M248.6,15.7c0-1.8,2.5-3.5,4.5-3.5c1.3,0,2.3,0.7,2.3,1.7c0,1.7-2.5,3.5-4.6,3.5C249.6,17.5,248.6,16.8,248.6,15.7z"/>
</g>
<rect x="264" y="13.2" width="0.5" height="17.4"/>
<g>
	<path d="M264.1,13.3c0-1.8,2.5-3.5,4.5-3.5c1.3,0,2.3,0.7,2.3,1.7c0,1.7-2.5,3.5-4.6,3.5C265.1,15,264.1,14.3,264.1,13.3z"/>
</g>
<rect x="279.7" y="10.7" width="0.5" height="19.4"/>
<g>
	<path d="M279.7,10.8c0-1.8,2.5-3.5,4.5-3.5c1.3,0,2.3,0.7,2.3,1.7c0,1.7-2.5,3.5-4.6,3.5C280.7,12.5,279.7,11.9,279.7,10.8z"/>
</g>
<rect x="295.2" y="13.2" width="0.5" height="16.4"/>
<g>
	<path d="M295.2,13.3c0-1.8,2.5-3.5,4.5-3.5c1.3,0,2.3,0.7,2.3,1.7c0,1.7-2.5,3.5-4.6,3.5C296.2,15,295.2,14.3,295.2,13.3z"/>
</g>
<rect x="310.7" y="15.7" width="0.5" height="18.9"/>
<g>
	<path d="M310.7,15.7c0-1.8,2.5-3.5,4.5-3.5c1.3,0,2.3,0.7,2.3,1.7c0,1.7-2.5,3.5-4.6,3.5C311.7,17.5,310.7,16.8,310.7,15.7z"/>
</g>
<rect x="326.3" y="18.1" width="0.5" height="18"/>
<g>
	<path d="M326.4,18.2c0-1.8,2.5-3.5,4.5-3.5c1.3,0,2.3,0.7,2.3,1.7c0,1.7-2.5,3.5-4.6,3.5C327.4,19.9,326.4,19.3,326.4,18.2z"/>
</g>
<rect x="341.8" y="20.6" width="0.5" height="17.2"/>
<g>
	<path d="M341.9,20.7c0-1.8,2.5-3.5,4.5-3.5c1.3,0,2.3,0.7,2.3,1.7c0,1.7-2.5,3.5-4.6,3.5C342.9,22.4,341.9,21.8,341.9,20.7z"/>
</g>
<rect x="357.5" y="23.1" width="0.5" height="16.4"/>
<g>
	<path d="M357.6,23.2c0-1.8,2.5-3.5,4.5-3.5c1.3,0,2.3,0.7,2.3,1.7c0,1.7-2.5,3.5-4.6,3.5C358.5,24.9,357.6,24.3,357.6,23.2z"/>
</g>
<rect x="379.5" y="10.1" width="0.5" height="14"/>
<g>
	<path d="M373.1,25.7c0-1.8,2.5-3.5,4.5-3.5c1.3,0,2.3,0.7,2.3,1.7c0,1.7-2.5,3.5-4.6,3.5C374,27.4,373.1,26.7,373.1,25.7z"/>
</g>
<rect x="395" y="11.6" width="0.5" height="14.9"/>
<g>
	<path d="M388.6,28.1c0-1.8,2.5-3.5,4.5-3.5c1.3,0,2.3,0.7,2.3,1.7c0,1.7-2.5,3.5-4.6,3.5C389.5,29.9,388.6,29.2,388.6,28.1z"/>
</g>
<rect x="410.6" y="13.3" width="0.5" height="15.7"/>
<g>
	<path d="M404.2,30.6c0-1.8,2.5-3.5,4.5-3.5c1.3,0,2.3,0.7,2.3,1.7c0,1.7-2.5,3.5-4.6,3.5C405.2,32.3,404.2,31.7,404.2,30.6z"/>
</g>
<rect x="426.1" y="15" width="0.5" height="16.4"/>
<g>
	<path d="M419.7,33.1c0-1.8,2.5-3.5,4.5-3.5c1.3,0,2.3,0.7,2.3,1.7c0,1.7-2.5,3.5-4.6,3.5C420.7,34.8,419.7,34.2,419.7,33.1z"/>
</g>
<rect x="433.5" y="34.3" width="10.5" height="0.8"/>
<rect x="441.8" y="18.8" width="0.5" height="15.2"/>
<g>
	<path d="M435.4,35.6c0-1.8,2.5-3.5,4.5-3.5c1.3,0,2.3,0.7,2.3,1.7c0,1.7-2.5,3.5-4.6,3.5C436.3,37.3,435.4,36.7,435.4,35.6z"/>
</g>
<rect x="449" y="34.3" width="10.5" height="0.8"/>
<rect x="457.3" y="19.1" width="0.5" height="17.4"/>
<g>
	<path d="M450.9,38.1c0-1.8,2.5-3.5,4.5-3.5c1.3,0,2.3,0.7,2.3,1.7c0,1.7-2.5,3.5-4.6,3.5C451.8,39.8,450.9,39.1,450.9,38.1z"/>
</g>
<rect x="464.7" y="34.3" width="10.5" height="0.8"/>
<rect x="464.7" y="39.3" width="10.5" height="0.8"/>
<rect x="473" y="19.5" width="0.5" height="19.4"/>
<g>
	<path d="M466.5,40.5c0-1.8,2.5-3.5,4.5-3.5c1.3,0,2.3,0.7,2.3,1.7c0,1.7-2.5,3.5-4.6,3.5C467.5,42.3,466.5,41.6,466.5,40.5z"/>
</g>
<rect x="480.2" y="34.3" width="10.5" height="0.8"/>
<rect x="480.2" y="39.3" width="10.5" height="0.8"/>
<rect x="488.5" y="20" width="0.5" height="21.4"/>
<g>
	<path d="M482,43c0-1.8,2.5-3.5,4.5-3.5c1.3,0,2.3,0.7,2.3,1.7c0,1.7-2.5,3.5-4.6,3.5C483,44.7,482,44.1,482,43z"/>
</g>
<rect x="495.7" y="34.3" width="10.7" height="0.8"/>
<rect x="495.7" y="39.3" width="10.7" height="0.8"/>
<rect x="495.7" y="44.3" width="10.7" height="0.8"/>
<rect x="504.1" y="19.8" width="0.5" height="24"/>
<g>
	<path d="M501.8,41.9c1.6,0,2.7,0.7,2.7,2c0,1.9-2.3,3.4-4.5,3.4c-1.3,0-2.4-0.7-2.4-1.8C497.5,43.7,499.8,41.9,501.8,41.9z
		 M498,45.8c0,0.6,0.4,0.9,1.1,0.9c1.4,0,4.9-2.1,4.9-3.3c0-0.6-0.4-0.9-1.1-0.9C501.7,42.5,498,44.6,498,45.8z"/>
</g>
<rect x="68.2" y="62.2" width="0.5" height="16.4"/>
<g>
	<path d="M61.8,80.2c0-1.8,2.5-3.5,4.5-3.5c1.3,0,2.3,0.7,2.3,1.7c0,1.7-2.5,3.5-4.6,3.5C62.8,81.9,61.8,81.3,61.8,80.2z"/>
</g>
<rect x="83.7" y="60.6" width="0.5" height="15.5"/>
<g>
	<path d="M77.3,77.7c0-1.8,2.5-3.5,4.5-3.5c1.3,0,2.3,0.7,2.3,1.7c0,1.7-2.5,3.5-4.6,3.5C78.3,79.5,77.3,78.8,77.3,77.7z"/>
</g>
<rect x="99.4" y="58.9" width="0.5" height="14.7"/>
<g>
	<path d="M92.9,75.3c0-1.8,2.5-3.5,4.5-3.5c1.3,0,2.3,0.7,2.3,1.7c0,1.7-2.5,3.5-4.6,3.5C93.9,77,92.9,76.3,92.9,75.3z"/>
</g>
<rect x="114.9" y="57.2" width="0.5" height="14"/>
<g>
	<path d="M108.4,72.8c0-1.8,2.5-3.5,4.5-3.5c1.3,0,2.3,0.7,2.3,1.7c0,1.7-2.5,3.5-4.6,3.5C109.4,74.5,108.4,73.9,108.4,72.8z"/>
</g>
<rect x="124" y="70.2" width="0.5" height="16.4"/>
<g>
	<path d="M124.1,70.3c0-1.8,2.5-3.5,4.5-3.5c1.3,0,2.3,0.7,2.3,1.7c0,1.7-2.5,3.5-4.6,3.5C125.1,72,124.1,71.4,124.1,70.3z"/>
</g>
<rect x="139.5" y="67.7" width="0.5" height="17.4"/>
<g>
	<path d="M139.6,67.8c0-1.8,2.5-3.5,4.5-3.5c1.3,0,2.3,0.7,2.3,1.7c0,1.7-2.5,3.5-4.6,3.5C140.6,69.5,139.6,68.9,139.6,67.8z"/>
</g>
<rect x="155" y="65.3" width="0.5" height="18.1"/>
<g>
	<path d="M155.1,65.3c0-1.8,2.5-3.5,4.5-3.5c1.3,0,2.3,0.7,2.3,1.7c0,1.7-2.5,3.5-4.6,3.5C156.1,67.1,155.1,66.4,155.1,65.3z"/>
</g>
<rect x="170.7" y="62.8" width="0.5" height="18.9"/>
<g>
	<path d="M170.8,62.9c0-1.8,2.5-3.5,4.5-3.5c1.3,0,2.3,0.7,2.3,1.7c0,1.7-2.5,3.5-4.6,3.5C171.7,64.6,170.8,63.9,170.8,62.9z"/>
</g>
<rect x="186.2" y="60.3" width="0.5" height="16.4"/>
<g>
	<path d="M186.3,60.4c0-1.8,2.5-3.5,4.5-3.5c1.3,0,2.3,0.7,2.3,1.7c0,1.7-2.5,3.5-4.6,3.5C187.2,62.1,186.3,61.5,186.3,60.4z"/>
</g>
<rect x="201.8" y="57.8" width="0.5" height="17.4"/>
<g>
	<path d="M201.9,57.9c0-1.8,2.5-3.5,4.5-3.5c1.3,0,2.3,0.7,2.3,1.7c0,1.7-2.5,3.5-4.6,3.5C202.9,59.6,201.9,59,201.9,57.9z"/>
</g>
<rect x="217.3" y="55.3" width="0.5" height="18.1"/>
<g>
	<path d="M217.4,55.4c0-1.8,2.5-3.5,4.5-3.5c1.3,0,2.3,0.7,2.3,1.7c0,1.7-2.5,3.5-4.6,3.5C218.4,57.1,217.4,56.5,217.4,55.4z"/>
</g>
<rect x="231.1" y="51.7" width="10.5" height="0.8"/>
<rect x="232.8" y="52.9" width="0.5" height="18.9"/>
<g>
	<path d="M232.9,52.9c0-1.8,2.5-3.5,4.5-3.5c1.3,0,2.3,0.7,2.3,1.7c0,1.7-2.5,3.5-4.6,3.5C233.9,54.7,232.9,54,232.9,52.9z"/>
</g>
<rect x="246.7" y="51.7" width="10.5" height="0.8"/>
<rect x="248.5" y="50.4" width="0.5" height="17.7"/>
<g>
	<path d="M248.6,50.5c0-1.8,2.5-3.5,4.5-3.5c1.3,0,2.3,0.7,2.3,1.7c0,1.7-2.5,3.5-4.6,3.5C249.6,52.2,248.6,51.5,248.6,50.5z"/>
</g>
<rect x="262.2" y="51.7" width="10.5" height="0.8"/>
<rect x="262.2" y="46.7" width="10.5" height="0.8"/>
<rect x="264" y="47.9" width="0.5" height="19.8"/>
<g>
	<path d="M264.1,48c0-1.8,2.5-3.5,4.5-3.5c1.3,0,2.3,0.7,2.3,1.7c0,1.7-2.5,3.5-4.6,3.5C265.1,49.7,264.1,49.1,264.1,48z"/>
</g>
<rect x="277.9" y="51.7" width="10.5" height="0.8"/>
<rect x="277.9" y="46.7" width="10.5" height="0.8"/>
<rect x="279.7" y="45.4" width="0.5" height="21.9"/>
<g>
	<path d="M279.7,45.5c0-1.8,2.5-3.5,4.5-3.5c1.3,0,2.3,0.7,2.3,1.7c0,1.7-2.5,3.5-4.6,3.5C280.7,47.2,279.7,46.6,279.7,45.5z"/>
</g>
<rect x="293.4" y="51.7" width="10.5" height="0.8"/>
<rect x="293.4" y="46.7" width="10.5" height="0.8"/>
<rect x="295.2" y="47.9" width="0.5" height="18.9"/>
<g>
	<path d="M295.2,48c0-1.8,2.5-3.5,4.5-3.5c1.3,0,2.3,0.7,2.3,1.7c0,1.7-2.5,3.5-4.6,3.5C296.2,49.7,295.2,49.1,295.2,48z"/>
</g>
<rect x="308.9" y="51.7" width="10.5" height="0.8"/>
<rect x="310.7" y="50.4" width="0.5" height="16.4"/>
<g>
	<path d="M310.7,50.5c0-1.8,2.5-3.5,4.5-3.5c1.3,0,2.3,0.7,2.3,1.7c0,1.7-2.5,3.5-4.6,3.5C311.7,52.2,310.7,51.5,310.7,50.5z"/>
</g>
<rect x="324.5" y="51.7" width="10.5" height="0.8"/>
<rect x="326.3" y="52.9" width="0.5" height="15.5"/>
<g>
	<path d="M326.4,52.9c0-1.8,2.5-3.5,4.5-3.5c1.3,0,2.3,0.7,2.3,1.7c0,1.7-2.5,3.5-4.6,3.5C327.4,54.7,326.4,54,326.4,52.9z"/>
</g>
<rect x="341.8" y="55.3" width="0.5" height="14.7"/>
<g>
	<path d="M341.9,55.4c0-1.8,2.5-3.5,4.5-3.5c1.3,0,2.3,0.7,2.3,1.7c0,1.7-2.5,3.5-4.6,3.5C342.9,57.1,341.9,56.5,341.9,55.4z"/>
</g>
<rect x="357.5" y="57.8" width="0.5" height="14"/>
<g>
	<path d="M357.6,57.9c0-1.8,2.5-3.5,4.5-3.5c1.3,0,2.3,0.7,2.3,1.7c0,1.7-2.5,3.5-4.6,3.5C358.5,59.6,357.6,59,357.6,57.9z"/>
</g>
<rect x="373" y="60.3" width="0.5" height="16.4"/>
<g>
	<path d="M373.1,60.4c0-1.8,2.5-3.5,4.5-3.5c1.3,0,2.3,0.7,2.3,1.7c0,1.7-2.5,3.5-4.6,3.5C374,62.1,373.1,61.5,373.1,60.4z"/>
</g>
<rect x="388.5" y="62.8" width="0.5" height="15.5"/>
<g>
	<path d="M388.6,62.9c0-1.8,2.5-3.5,4.5-3.5c1.3,0,2.3,0.7,2.3,1.7c0,1.7-2.5,3.5-4.6,3.5C389.5,64.6,388.6,63.9,388.6,62.9z"/>
</g>
<rect x="404.1" y="65.3" width="0.5" height="14.7"/>
<g>
	<path d="M404.2,65.3c0-1.8,2.5-3.5,4.5-3.5c1.3,0,2.3,0.7,2.3,1.7c0,1.7-2.5,3.5-4.6,3.5C405.2,67.1,404.2,66.4,404.2,65.3z"/>
</g>
<rect x="419.6" y="67.7" width="0.5" height="14"/>
<g>
	<path d="M419.7,67.8c0-1.8,2.5-3.5,4.5-3.5c1.3,0,2.3,0.7,2.3,1.7c0,1.7-2.5,3.5-4.6,3.5C420.7,69.5,419.7,68.9,419.7,67.8z"/>
</g>
<rect x="441.8" y="52.2" width="0.5" height="16.4"/>
<g>
	<path d="M435.4,70.3c0-1.8,2.5-3.5,4.5-3.5c1.3,0,2.3,0.7,2.3,1.7c0,1.7-2.5,3.5-4.6,3.5C436.3,72,435.4,71.4,435.4,70.3z"/>
</g>
<rect x="457.3" y="53.8" width="0.5" height="17.4"/>
<g>
	<path d="M450.9,72.8c0-1.8,2.5-3.5,4.5-3.5c1.3,0,2.3,0.7,2.3,1.7c0,1.7-2.5,3.5-4.6,3.5C451.8,74.5,450.9,73.9,450.9,72.8z"/>
</g>
<rect x="473" y="55.5" width="0.5" height="18.1"/>
<g>
	<path d="M466.5,75.3c0-1.8,2.5-3.5,4.5-3.5c1.3,0,2.3,0.7,2.3,1.7c0,1.7-2.5,3.5-4.6,3.5C467.5,77,466.5,76.3,466.5,75.3z"/>
</g>
<rect x="488.5" y="57.2" width="0.5" height="18.9"/>
<g>
	<path d="M482,77.7c0-1.8,2.5-3.5,4.5-3.5c1.3,0,2.3,0.7,2.3,1.7c0,1.7-2.5,3.5-4.6,3.5C483,79.5,482,78.8,482,77.7z"/>
</g>
<rect x="504.1" y="62" width="0.5" height="16.6"/>
<g>
	<path d="M501.8,76.7c1.6,0,2.7,0.7,2.7,2c0,1.9-2.3,3.4-4.5,3.4c-1.3,0-2.4-0.7-2.4-1.8C497.5,78.5,499.8,76.7,501.8,76.7z
		 M498,80.5c0,0.6,0.4,0.9,1.1,0.9c1.4,0,4.9-2.1,4.9-3.3c0-0.6-0.4-0.9-1.1-0.9C501.7,77.3,498,79.3,498,80.5z"/>
</g>
</svg>
