<?xml version="1.0" encoding="utf-8"?>

<!--
	ScaleBook
	Copyright (c) Leland Jansen 2015. All rights reserved.
-->

<!DOCTYPE svg PUBLIC "-//W3C//DTD SVG 1.1//EN" "http://www.w3.org/Graphics/SVG/1.1/DTD/svg11.dtd">
<svg version="1.1" id="Layer_1" xmlns="http://www.w3.org/2000/svg" xmlns:xlink="http://www.w3.org/1999/xlink" x="0px" y="0px"
	 viewBox="0 0 552.9 86.8" enable-background="new 0 0 552.9 86.8" xml:space="preserve">
<rect x="8.4" y="9.9" width="0.8" height="67"/>
<g>
	<path d="M7.4,10.6c-1.9,1.1-3.6,5.8-3.6,9.4c0,2.3,1.4,9.9,1.4,12.3c0,5-1.5,8.6-4.6,11.1c3,2.4,4.6,6.1,4.6,11.1
		c0,2.3-1.4,9.9-1.4,12.3c0,3.8,1.7,8.4,3.6,9.5v0.7c-3.5-2.3-5.8-8.2-5.8-13.1c0-2.1,1.7-9.4,1.7-11.5c0-3.8-1-6.6-2.9-8.2
		C0.1,43.8,0,43.6,0,43.4c0-0.2,0.1-0.4,0.5-0.7c1.9-1.7,2.9-4.2,2.9-7.6c0-2.1-1.7-10-1.7-12.2c0-5.2,2.1-10.4,5.8-13.1V10.6z"/>
</g>
<rect x="547.8" y="9.9" width="0.8" height="67"/>
<rect x="550.4" y="9.9" width="2.5" height="67"/>
<rect x="8.5" y="29.5" width="544.4" height="0.5"/>
<rect x="8.5" y="24.6" width="544.4" height="0.5"/>
<rect x="8.5" y="19.6" width="544.4" height="0.5"/>
<rect x="8.5" y="14.6" width="544.4" height="0.5"/>
<rect x="8.5" y="9.7" width="544.4" height="0.5"/>
<g>
	<path d="M20.3,29.6c-4.2,0-8.1-3.1-8.1-6.9c0-3.2,2.3-6.7,6.8-10.5c-0.3-1.2-0.4-2.4-0.4-3.6c0-3.5,1.2-6.8,3.2-8.5
		c1.8,2.5,2.7,4.9,2.7,7.1c0,2.9-1.3,5.6-4.3,8.1l0.9,4.2c0.5,0,0.8-0.1,0.8-0.1c2.6,0,4.8,2,4.8,4.7c0,1.9-1.4,3.7-3.6,4.8
		c0-0.1,0.9,3.8,0.9,4.3c0,2.5-2.3,4.2-4.9,4.2c-2,0-3.6-1.3-3.6-3.4c0-1.4,1-2.6,2.4-2.6c1.3,0,2.3,1.3,2.3,2.5
		c0,1.4-1.2,2.3-2.7,2.5c0.6,0.3,1.2,0.5,1.9,0.5c2.1,0,4.1-1.6,4.1-3.6c0-0.2,0-0.4-0.1-0.6l-0.8-3.7
		C21.9,29.5,21.2,29.6,20.3,29.6z M18.1,24.4c0,1,0.5,1.9,1.6,2.5c-1.8-0.3-3-1.4-3-3.1c0-2,1.7-3.7,3.8-4.1l-0.8-4
		C16,18.5,14,21.2,14,23.8c0,2.9,2.8,5.3,6,5.3c0.9,0,1.7-0.2,2.4-0.5L21,21.8C19.4,22,18.1,23,18.1,24.4z M22.1,3
		c-1.6,0-2.9,3.7-2.9,7c0,0.7,0,1.3,0.2,1.9c2.7-2.4,4-4.5,4-6.5c0-0.9-0.3-1.7-1-2.4C22.4,3.1,22.3,3,22.1,3z M24.9,24.9
		c0-1.6-1.2-3.3-2.9-3.3c-0.1,0-0.2,0-0.5,0l1.4,6.6C24.2,27.4,24.9,26.2,24.9,24.9z"/>
</g>
<g>
	<path d="M29.5,11.5h0.6L30,17.8c0.4-0.7,1-1,1.8-1c1.2,0,2.2,0.8,2.2,1.9c0,0.8-0.5,1.8-1.7,2.7l-2.8,2.1V11.5z M30.1,18.4
		C30,19.2,30,19.8,30,20.4c0,1,0,1.6,0.1,2c1-0.7,2.4-2.6,2.4-3.7c0-0.6-0.5-1.1-1.1-1.1C30.8,17.6,30.4,17.9,30.1,18.4z"/>
</g>
<g>
	<path d="M35.1,4.1h0.6l-0.1,6.2c0.4-0.7,1-1,1.8-1c1.2,0,2.2,0.8,2.2,1.9c0,0.8-0.5,1.8-1.7,2.7L35.1,16V4.1z M35.7,11
		c-0.1,0.8-0.1,1.4-0.1,1.9c0,1,0,1.6,0.1,2c1-0.7,2.4-2.6,2.4-3.7c0-0.6-0.5-1.1-1.1-1.1C36.4,10.2,36,10.4,35.7,11z"/>
</g>
<g>
	<path d="M40.7,14h0.6l-0.1,6.2c0.4-0.7,1-1,1.8-1c1.2,0,2.2,0.8,2.2,1.9c0,0.8-0.5,1.8-1.7,2.7L40.7,26V14z M41.3,20.9
		c-0.1,0.8-0.1,1.4-0.1,1.9c0,1,0,1.6,0.1,2c1-0.7,2.4-2.6,2.4-3.7c0-0.6-0.5-1.1-1.1-1.1C42,20.1,41.6,20.4,41.3,20.9z"/>
</g>
<polygon fill-rule="evenodd" clip-rule="evenodd" points="60.4,26 107.8,24.8 107.8,22.3 60.4,23.6 "/>
<polygon fill-rule="evenodd" clip-rule="evenodd" points="60.4,22.3 107.8,21.1 107.8,18.6 60.4,19.8 "/>
<polygon fill-rule="evenodd" clip-rule="evenodd" points="123.6,21.1 171.2,16.1 171.2,13.6 123.6,18.6 "/>
<polygon fill-rule="evenodd" clip-rule="evenodd" points="123.6,17.4 171.2,12.4 171.2,9.9 123.6,14.9 "/>
<polygon fill-rule="evenodd" clip-rule="evenodd" points="187,11.2 234.5,6.2 234.5,3.7 187,8.7 "/>
<polygon fill-rule="evenodd" clip-rule="evenodd" points="187,7.4 234.5,2.5 234.5,0 187,5 "/>
<polygon fill-rule="evenodd" clip-rule="evenodd" points="243.8,27.3 291.2,26 291.2,23.6 243.8,24.8 "/>
<polygon fill-rule="evenodd" clip-rule="evenodd" points="243.8,31 291.2,29.8 291.2,27.3 243.8,28.5 "/>
<polygon fill-rule="evenodd" clip-rule="evenodd" points="307,31 354.5,36 354.5,33.5 307,28.5 "/>
<polygon fill-rule="evenodd" clip-rule="evenodd" points="307,34.7 354.5,39.7 354.5,37.2 307,32.2 "/>
<polygon fill-rule="evenodd" clip-rule="evenodd" points="376.9,16.1 424.4,21.1 424.4,18.6 376.9,13.6 "/>
<polygon fill-rule="evenodd" clip-rule="evenodd" points="376.9,12.4 424.4,17.4 424.4,14.9 376.9,9.9 "/>
<polygon fill-rule="evenodd" clip-rule="evenodd" points="440.2,24.8 487.6,26 487.6,23.6 440.2,22.3 "/>
<polygon fill-rule="evenodd" clip-rule="evenodd" points="440.2,21.1 487.6,22.3 487.6,19.8 440.2,18.6 "/>
<rect x="8.5" y="76.7" width="544.4" height="0.5"/>
<rect x="8.5" y="71.7" width="544.4" height="0.5"/>
<rect x="8.5" y="66.7" width="544.4" height="0.5"/>
<rect x="8.5" y="61.8" width="544.4" height="0.5"/>
<rect x="8.5" y="56.8" width="544.4" height="0.5"/>
<g>
	<path d="M15.7,71.2c2.9-2.6,4.7-6.1,4.7-9.2c0-2.5-1.4-4.4-3.7-4.4c-1.6,0-3.4,1.3-3.4,2.7c0,0.2,0,0.3,0.1,0.3
		c-0.1,0,0.6-0.6,1.4-0.6c0.9,0,1.5,0.8,1.5,1.7c0,1.2-0.9,2.2-2.1,2.2c-1.2,0-2.1-1.3-2.1-2.8c0-2.3,2.3-4.1,4.8-4.1
		c4.7,0,5.9,3.2,5.9,5.8c0,1.6-0.4,2.9-2,5.3c-1.9,3.1-6.4,5.3-8.1,5.3c-0.4,0-0.6-0.2-0.6-0.5C13.8,72.5,14.9,71.9,15.7,71.2z
		 M25.7,58.5c0.6,0,1,0.4,1,1c0,0.6-0.4,1-1,1s-1-0.4-1-1C24.7,59,25.1,58.5,25.7,58.5z M25.7,63.5c0.6,0,1,0.4,1,1c0,0.6-0.4,1-1,1
		s-1-0.4-1-1C24.7,63.9,25.1,63.5,25.7,63.5z"/>
</g>
<g>
	<path d="M29.5,63.6h0.6L30,69.9c0.4-0.7,1-1,1.8-1c1.2,0,2.2,0.8,2.2,1.9c0,0.8-0.5,1.8-1.7,2.7l-2.8,2.1V63.6z M30.1,70.5
		C30,71.3,30,71.9,30,72.5c0,1,0,1.6,0.1,2c1-0.7,2.4-2.6,2.4-3.7c0-0.6-0.5-1.1-1.1-1.1C30.8,69.7,30.4,70,30.1,70.5z"/>
</g>
<g>
	<path d="M35.1,56.2h0.6l-0.1,6.2c0.4-0.7,1-1,1.8-1c1.2,0,2.2,0.8,2.2,1.9c0,0.8-0.5,1.8-1.7,2.7l-2.8,2.1V56.2z M35.7,63.1
		c-0.1,0.8-0.1,1.4-0.1,1.9c0,1,0,1.6,0.1,2c1-0.7,2.4-2.6,2.4-3.7c0-0.6-0.5-1.1-1.1-1.1C36.4,62.2,36,62.5,35.7,63.1z"/>
</g>
<g>
	<path d="M40.7,66.1h0.6l-0.1,6.2c0.4-0.7,1-1,1.8-1c1.2,0,2.2,0.8,2.2,1.9c0,0.8-0.5,1.8-1.7,2.7L40.7,78V66.1z M41.3,73
		c-0.1,0.8-0.1,1.4-0.1,1.9c0,1,0,1.6,0.1,2c1-0.7,2.4-2.6,2.4-3.7c0-0.6-0.5-1.1-1.1-1.1C42,72.2,41.6,72.4,41.3,73z"/>
</g>
<polygon fill-rule="evenodd" clip-rule="evenodd" points="60.4,68.2 107.8,63.2 107.8,60.8 60.4,65.7 "/>
<polygon fill-rule="evenodd" clip-rule="evenodd" points="60.4,64.5 107.8,59.5 107.8,57 60.4,62 "/>
<polygon fill-rule="evenodd" clip-rule="evenodd" points="117.1,83.1 164.7,78.1 164.7,75.6 117.1,80.6 "/>
<polygon fill-rule="evenodd" clip-rule="evenodd" points="117.1,86.8 164.7,81.8 164.7,79.4 117.1,84.3 "/>
<polygon fill-rule="evenodd" clip-rule="evenodd" points="180.5,73.2 228,68.2 228,65.7 180.5,70.7 "/>
<polygon fill-rule="evenodd" clip-rule="evenodd" points="180.5,76.9 228,71.9 228,69.4 180.5,74.4 "/>
<polygon fill-rule="evenodd" clip-rule="evenodd" points="243.8,64.5 291.2,63.2 291.2,60.8 243.8,62 "/>
<polygon fill-rule="evenodd" clip-rule="evenodd" points="243.8,68.2 291.2,67 291.2,64.5 243.8,65.7 "/>
<polygon fill-rule="evenodd" clip-rule="evenodd" points="307,63.2 354.5,68.2 354.5,65.7 307,60.8 "/>
<polygon fill-rule="evenodd" clip-rule="evenodd" points="307,67 354.5,71.9 354.5,69.4 307,64.5 "/>
<polygon fill-rule="evenodd" clip-rule="evenodd" points="370.4,73.2 417.9,78.1 417.9,75.6 370.4,70.7 "/>
<polygon fill-rule="evenodd" clip-rule="evenodd" points="370.4,76.9 417.9,81.8 417.9,79.4 370.4,74.4 "/>
<polygon fill-rule="evenodd" clip-rule="evenodd" points="440.2,58.3 487.6,63.2 487.6,60.8 440.2,55.8 "/>
<polygon fill-rule="evenodd" clip-rule="evenodd" points="440.2,54.6 487.6,59.5 487.6,57 440.2,52.1 "/>
<rect x="51.9" y="34.3" width="10.5" height="0.8"/>
<rect x="51.9" y="39.3" width="10.5" height="0.8"/>
<rect x="51.9" y="44.3" width="10.5" height="0.8"/>
<rect x="60.2" y="20" width="0.5" height="23.9"/>
<g>
	<path d="M53.7,45.5c0-1.8,2.5-3.5,4.5-3.5c1.3,0,2.3,0.7,2.3,1.7c0,1.7-2.5,3.5-4.6,3.5C54.7,47.2,53.7,46.6,53.7,45.5z"/>
</g>
<rect x="67.7" y="34.3" width="10.5" height="0.8"/>
<rect x="67.7" y="39.3" width="10.5" height="0.8"/>
<rect x="76" y="19.7" width="0.5" height="21.7"/>
<g>
	<path d="M69.5,43c0-1.8,2.5-3.5,4.5-3.5c1.3,0,2.3,0.7,2.3,1.7c0,1.7-2.5,3.5-4.6,3.5C70.5,44.7,69.5,44.1,69.5,43z"/>
</g>
<rect x="83.5" y="34.3" width="10.5" height="0.8"/>
<rect x="83.5" y="39.3" width="10.5" height="0.8"/>
<rect x="91.8" y="19.2" width="0.5" height="19.7"/>
<g>
	<path d="M85.3,40.5c0-1.8,2.5-3.5,4.5-3.5c1.3,0,2.3,0.7,2.3,1.7c0,1.7-2.5,3.5-4.6,3.5C86.3,42.3,85.3,41.6,85.3,40.5z"/>
</g>
<rect x="99.3" y="34.3" width="10.5" height="0.8"/>
<rect x="107.6" y="18.8" width="0.5" height="17.7"/>
<g>
	<path d="M101.2,38.1c0-1.8,2.5-3.5,4.5-3.5c1.3,0,2.3,0.7,2.3,1.7c0,1.7-2.5,3.5-4.6,3.5C102.1,39.8,101.2,39.1,101.2,38.1z"/>
</g>
<rect x="115.1" y="34.3" width="10.5" height="0.8"/>
<rect x="123.4" y="15" width="0.5" height="18.9"/>
<g>
	<path d="M117,35.6c0-1.8,2.5-3.5,4.5-3.5c1.3,0,2.3,0.7,2.3,1.7c0,1.7-2.5,3.5-4.6,3.5C117.9,37.3,117,36.7,117,35.6z"/>
</g>
<rect x="139.2" y="13.5" width="0.5" height="18"/>
<g>
	<path d="M132.8,33.1c0-1.8,2.5-3.5,4.5-3.5c1.3,0,2.3,0.7,2.3,1.7c0,1.7-2.5,3.5-4.6,3.5C133.8,34.8,132.8,34.2,132.8,33.1z"/>
</g>
<rect x="155" y="11.8" width="0.5" height="17.2"/>
<g>
	<path d="M148.6,30.6c0-1.8,2.5-3.5,4.5-3.5c1.3,0,2.3,0.7,2.3,1.7c0,1.7-2.5,3.5-4.6,3.5C149.6,32.3,148.6,31.7,148.6,30.6z"/>
</g>
<rect x="171" y="10.1" width="0.5" height="16.4"/>
<g>
	<path d="M164.6,28.1c0-1.8,2.5-3.5,4.5-3.5c1.3,0,2.3,0.7,2.3,1.7c0,1.7-2.5,3.5-4.6,3.5C165.5,29.9,164.6,29.2,164.6,28.1z"/>
</g>
<rect x="186.8" y="5.1" width="0.5" height="18.9"/>
<g>
	<path d="M180.4,25.7c0-1.8,2.5-3.5,4.5-3.5c1.3,0,2.3,0.7,2.3,1.7c0,1.7-2.5,3.5-4.6,3.5C181.3,27.4,180.4,26.7,180.4,25.7z"/>
</g>
<rect x="202.6" y="3.6" width="0.5" height="18"/>
<g>
	<path d="M196.2,23.2c0-1.8,2.5-3.5,4.5-3.5c1.3,0,2.3,0.7,2.3,1.7c0,1.7-2.5,3.5-4.6,3.5C197.2,24.9,196.2,24.3,196.2,23.2z"/>
</g>
<rect x="218.4" y="1.9" width="0.5" height="17.2"/>
<g>
	<path d="M212,20.7c0-1.8,2.5-3.5,4.5-3.5c1.3,0,2.3,0.7,2.3,1.7c0,1.7-2.5,3.5-4.6,3.5C213,22.4,212,21.8,212,20.7z"/>
</g>
<rect x="234.2" y="0.2" width="0.5" height="16.4"/>
<g>
	<path d="M227.8,18.2c0-1.8,2.5-3.5,4.5-3.5c1.3,0,2.3,0.7,2.3,1.7c0,1.7-2.5,3.5-4.6,3.5C228.8,19.9,227.8,19.3,227.8,18.2z"/>
</g>
<rect x="243.5" y="15.7" width="0.5" height="15.2"/>
<g>
	<path d="M243.6,15.7c0-1.8,2.5-3.5,4.5-3.5c1.3,0,2.3,0.7,2.3,1.7c0,1.7-2.5,3.5-4.6,3.5C244.6,17.5,243.6,16.8,243.6,15.7z"/>
</g>
<rect x="259.4" y="13.2" width="0.5" height="17.4"/>
<g>
	<path d="M259.4,13.3c0-1.8,2.5-3.5,4.5-3.5c1.3,0,2.3,0.7,2.3,1.7c0,1.7-2.5,3.5-4.6,3.5C260.4,15,259.4,14.3,259.4,13.3z"/>
</g>
<rect x="275.2" y="10.7" width="0.5" height="19.4"/>
<g>
	<path d="M275.2,10.8c0-1.8,2.5-3.5,4.5-3.5c1.3,0,2.3,0.7,2.3,1.7c0,1.7-2.5,3.5-4.6,3.5C276.2,12.5,275.2,11.9,275.2,10.8z"/>
</g>
<rect x="291" y="13.2" width="0.5" height="16.4"/>
<g>
	<path d="M291.1,13.3c0-1.8,2.5-3.5,4.5-3.5c1.3,0,2.3,0.7,2.3,1.7c0,1.7-2.5,3.5-4.6,3.5C292,15,291.1,14.3,291.1,13.3z"/>
</g>
<rect x="306.8" y="15.7" width="0.5" height="18.9"/>
<g>
	<path d="M306.9,15.7c0-1.8,2.5-3.5,4.5-3.5c1.3,0,2.3,0.7,2.3,1.7c0,1.7-2.5,3.5-4.6,3.5C307.8,17.5,306.9,16.8,306.9,15.7z"/>
</g>
<rect x="322.6" y="18.1" width="0.5" height="18"/>
<g>
	<path d="M322.7,18.2c0-1.8,2.5-3.5,4.5-3.5c1.3,0,2.3,0.7,2.3,1.7c0,1.7-2.5,3.5-4.6,3.5C323.6,19.9,322.7,19.3,322.7,18.2z"/>
</g>
<rect x="338.4" y="20.6" width="0.5" height="17.2"/>
<g>
	<path d="M338.5,20.7c0-1.8,2.5-3.5,4.5-3.5c1.3,0,2.3,0.7,2.3,1.7c0,1.7-2.5,3.5-4.6,3.5C339.5,22.4,338.5,21.8,338.5,20.7z"/>
</g>
<rect x="354.2" y="23.1" width="0.5" height="16.4"/>
<g>
	<path d="M354.3,23.2c0-1.8,2.5-3.5,4.5-3.5c1.3,0,2.3,0.7,2.3,1.7c0,1.7-2.5,3.5-4.6,3.5C355.3,24.9,354.3,24.3,354.3,23.2z"/>
</g>
<rect x="376.7" y="10.1" width="0.5" height="14"/>
<g>
	<path d="M370.3,25.7c0-1.8,2.5-3.5,4.5-3.5c1.3,0,2.3,0.7,2.3,1.7c0,1.7-2.5,3.5-4.6,3.5C371.2,27.4,370.3,26.7,370.3,25.7z"/>
</g>
<rect x="392.5" y="11.6" width="0.5" height="14.9"/>
<g>
	<path d="M386.1,28.1c0-1.8,2.5-3.5,4.5-3.5c1.3,0,2.3,0.7,2.3,1.7c0,1.7-2.5,3.5-4.6,3.5C387,29.9,386.1,29.2,386.1,28.1z"/>
</g>
<rect x="408.3" y="13.3" width="0.5" height="15.7"/>
<g>
	<path d="M401.9,30.6c0-1.8,2.5-3.5,4.5-3.5c1.3,0,2.3,0.7,2.3,1.7c0,1.7-2.5,3.5-4.6,3.5C402.9,32.3,401.9,31.7,401.9,30.6z"/>
</g>
<rect x="424.1" y="15" width="0.5" height="16.4"/>
<g>
	<path d="M417.7,33.1c0-1.8,2.5-3.5,4.5-3.5c1.3,0,2.3,0.7,2.3,1.7c0,1.7-2.5,3.5-4.6,3.5C418.7,34.8,417.7,34.2,417.7,33.1z"/>
</g>
<rect x="431.7" y="34.3" width="10.5" height="0.8"/>
<rect x="439.9" y="18.8" width="0.5" height="15.2"/>
<g>
	<path d="M433.5,35.6c0-1.8,2.5-3.5,4.5-3.5c1.3,0,2.3,0.7,2.3,1.7c0,1.7-2.5,3.5-4.6,3.5C434.5,37.3,433.5,36.7,433.5,35.6z"/>
</g>
<rect x="447.5" y="34.3" width="10.5" height="0.8"/>
<rect x="455.8" y="19.1" width="0.5" height="17.4"/>
<g>
	<path d="M449.3,38.1c0-1.8,2.5-3.5,4.5-3.5c1.3,0,2.3,0.7,2.3,1.7c0,1.7-2.5,3.5-4.6,3.5C450.3,39.8,449.3,39.1,449.3,38.1z"/>
</g>
<rect x="463.3" y="34.3" width="10.5" height="0.8"/>
<rect x="463.3" y="39.3" width="10.5" height="0.8"/>
<rect x="471.6" y="19.5" width="0.5" height="19.4"/>
<g>
	<path d="M465.1,40.5c0-1.8,2.5-3.5,4.5-3.5c1.3,0,2.3,0.7,2.3,1.7c0,1.7-2.5,3.5-4.6,3.5C466.1,42.3,465.1,41.6,465.1,40.5z"/>
</g>
<rect x="479.1" y="34.3" width="10.5" height="0.8"/>
<rect x="479.1" y="39.3" width="10.5" height="0.8"/>
<rect x="487.4" y="20" width="0.5" height="21.4"/>
<g>
	<path d="M480.9,43c0-1.8,2.5-3.5,4.5-3.5c1.3,0,2.3,0.7,2.3,1.7c0,1.7-2.5,3.5-4.6,3.5C481.9,44.7,480.9,44.1,480.9,43z"/>
</g>
<rect x="494.9" y="34.3" width="10.7" height="0.8"/>
<rect x="494.9" y="39.3" width="10.7" height="0.8"/>
<rect x="494.9" y="44.3" width="10.7" height="0.8"/>
<rect x="503.3" y="19.8" width="0.5" height="24"/>
<g>
	<path d="M501,41.9c1.6,0,2.7,0.7,2.7,2c0,1.9-2.3,3.4-4.5,3.4c-1.3,0-2.4-0.7-2.4-1.8C496.8,43.7,499,41.9,501,41.9z M497.2,45.8
		c0,0.6,0.4,0.9,1.1,0.9c1.4,0,4.9-2.1,4.9-3.3c0-0.6-0.4-0.9-1.1-0.9C500.9,42.5,497.2,44.6,497.2,45.8z"/>
</g>
<rect x="60.2" y="62.2" width="0.5" height="16.4"/>
<g>
	<path d="M53.7,80.2c0-1.8,2.5-3.5,4.5-3.5c1.3,0,2.3,0.7,2.3,1.7c0,1.7-2.5,3.5-4.6,3.5C54.7,81.9,53.7,81.3,53.7,80.2z"/>
</g>
<rect x="76" y="60.6" width="0.5" height="15.5"/>
<g>
	<path d="M69.5,77.7c0-1.8,2.5-3.5,4.5-3.5c1.3,0,2.3,0.7,2.3,1.7c0,1.7-2.5,3.5-4.6,3.5C70.5,79.5,69.5,78.8,69.5,77.7z"/>
</g>
<rect x="91.8" y="58.9" width="0.5" height="14.7"/>
<g>
	<path d="M85.3,75.3c0-1.8,2.5-3.5,4.5-3.5c1.3,0,2.3,0.7,2.3,1.7c0,1.7-2.5,3.5-4.6,3.5C86.3,77,85.3,76.3,85.3,75.3z"/>
</g>
<rect x="107.6" y="57.2" width="0.5" height="14"/>
<g>
	<path d="M101.2,72.8c0-1.8,2.5-3.5,4.5-3.5c1.3,0,2.3,0.7,2.3,1.7c0,1.7-2.5,3.5-4.6,3.5C102.1,74.5,101.2,73.9,101.2,72.8z"/>
</g>
<rect x="116.9" y="70.2" width="0.5" height="16.4"/>
<g>
	<path d="M117,70.3c0-1.8,2.5-3.5,4.5-3.5c1.3,0,2.3,0.7,2.3,1.7c0,1.7-2.5,3.5-4.6,3.5C117.9,72,117,71.4,117,70.3z"/>
</g>
<rect x="132.7" y="67.7" width="0.5" height="17.4"/>
<g>
	<path d="M132.8,67.8c0-1.8,2.5-3.5,4.5-3.5c1.3,0,2.3,0.7,2.3,1.7c0,1.7-2.5,3.5-4.6,3.5C133.8,69.5,132.8,68.9,132.8,67.8z"/>
</g>
<rect x="148.5" y="65.3" width="0.5" height="18.1"/>
<g>
	<path d="M148.6,65.3c0-1.8,2.5-3.5,4.5-3.5c1.3,0,2.3,0.7,2.3,1.7c0,1.7-2.5,3.5-4.6,3.5C149.6,67.1,148.6,66.4,148.6,65.3z"/>
</g>
<rect x="164.5" y="62.8" width="0.5" height="18.9"/>
<g>
	<path d="M164.6,62.9c0-1.8,2.5-3.5,4.5-3.5c1.3,0,2.3,0.7,2.3,1.7c0,1.7-2.5,3.5-4.6,3.5C165.5,64.6,164.6,63.9,164.6,62.9z"/>
</g>
<rect x="180.3" y="60.3" width="0.5" height="16.4"/>
<g>
	<path d="M180.4,60.4c0-1.8,2.5-3.5,4.5-3.5c1.3,0,2.3,0.7,2.3,1.7c0,1.7-2.5,3.5-4.6,3.5C181.3,62.1,180.4,61.5,180.4,60.4z"/>
</g>
<rect x="196.1" y="57.8" width="0.5" height="17.4"/>
<g>
	<path d="M196.2,57.9c0-1.8,2.5-3.5,4.5-3.5c1.3,0,2.3,0.7,2.3,1.7c0,1.7-2.5,3.5-4.6,3.5C197.2,59.6,196.2,59,196.2,57.9z"/>
</g>
<rect x="211.9" y="55.3" width="0.5" height="18.1"/>
<g>
	<path d="M212,55.4c0-1.8,2.5-3.5,4.5-3.5c1.3,0,2.3,0.7,2.3,1.7c0,1.7-2.5,3.5-4.6,3.5C213,57.1,212,56.5,212,55.4z"/>
</g>
<rect x="225.9" y="51.7" width="10.5" height="0.8"/>
<rect x="227.7" y="52.9" width="0.5" height="18.9"/>
<g>
	<path d="M227.8,52.9c0-1.8,2.5-3.5,4.5-3.5c1.3,0,2.3,0.7,2.3,1.7c0,1.7-2.5,3.5-4.6,3.5C228.8,54.7,227.8,54,227.8,52.9z"/>
</g>
<rect x="241.8" y="51.7" width="10.5" height="0.8"/>
<rect x="243.5" y="50.4" width="0.5" height="17.7"/>
<g>
	<path d="M243.6,50.5c0-1.8,2.5-3.5,4.5-3.5c1.3,0,2.3,0.7,2.3,1.7c0,1.7-2.5,3.5-4.6,3.5C244.6,52.2,243.6,51.5,243.6,50.5z"/>
</g>
<rect x="257.6" y="51.7" width="10.5" height="0.8"/>
<rect x="257.6" y="46.7" width="10.5" height="0.8"/>
<rect x="259.4" y="47.9" width="0.5" height="19.8"/>
<g>
	<path d="M259.4,48c0-1.8,2.5-3.5,4.5-3.5c1.3,0,2.3,0.7,2.3,1.7c0,1.7-2.5,3.5-4.6,3.5C260.4,49.7,259.4,49.1,259.4,48z"/>
</g>
<rect x="273.4" y="51.7" width="10.5" height="0.8"/>
<rect x="273.4" y="46.7" width="10.5" height="0.8"/>
<rect x="275.2" y="45.4" width="0.5" height="21.9"/>
<g>
	<path d="M275.2,45.5c0-1.8,2.5-3.5,4.5-3.5c1.3,0,2.3,0.7,2.3,1.7c0,1.7-2.5,3.5-4.6,3.5C276.2,47.2,275.2,46.6,275.2,45.5z"/>
</g>
<rect x="289.2" y="51.7" width="10.5" height="0.8"/>
<rect x="289.2" y="46.7" width="10.5" height="0.8"/>
<rect x="291" y="47.9" width="0.5" height="18.9"/>
<g>
	<path d="M291.1,48c0-1.8,2.5-3.5,4.5-3.5c1.3,0,2.3,0.7,2.3,1.7c0,1.7-2.5,3.5-4.6,3.5C292,49.7,291.1,49.1,291.1,48z"/>
</g>
<rect x="305" y="51.7" width="10.5" height="0.8"/>
<rect x="306.8" y="50.4" width="0.5" height="16.4"/>
<g>
	<path d="M306.9,50.5c0-1.8,2.5-3.5,4.5-3.5c1.3,0,2.3,0.7,2.3,1.7c0,1.7-2.5,3.5-4.6,3.5C307.8,52.2,306.9,51.5,306.9,50.5z"/>
</g>
<rect x="320.8" y="51.7" width="10.5" height="0.8"/>
<rect x="322.6" y="52.9" width="0.5" height="15.5"/>
<g>
	<path d="M322.7,52.9c0-1.8,2.5-3.5,4.5-3.5c1.3,0,2.3,0.7,2.3,1.7c0,1.7-2.5,3.5-4.6,3.5C323.6,54.7,322.7,54,322.7,52.9z"/>
</g>
<rect x="338.4" y="55.3" width="0.5" height="14.7"/>
<g>
	<path d="M338.5,55.4c0-1.8,2.5-3.5,4.5-3.5c1.3,0,2.3,0.7,2.3,1.7c0,1.7-2.5,3.5-4.6,3.5C339.5,57.1,338.5,56.5,338.5,55.4z"/>
</g>
<rect x="354.2" y="57.8" width="0.5" height="14"/>
<g>
	<path d="M354.3,57.9c0-1.8,2.5-3.5,4.5-3.5c1.3,0,2.3,0.7,2.3,1.7c0,1.7-2.5,3.5-4.6,3.5C355.3,59.6,354.3,59,354.3,57.9z"/>
</g>
<rect x="370.2" y="60.3" width="0.5" height="16.4"/>
<g>
	<path d="M370.3,60.4c0-1.8,2.5-3.5,4.5-3.5c1.3,0,2.3,0.7,2.3,1.7c0,1.7-2.5,3.5-4.6,3.5C371.2,62.1,370.3,61.5,370.3,60.4z"/>
</g>
<rect x="386" y="62.8" width="0.5" height="15.5"/>
<g>
	<path d="M386.1,62.9c0-1.8,2.5-3.5,4.5-3.5c1.3,0,2.3,0.7,2.3,1.7c0,1.7-2.5,3.5-4.6,3.5C387,64.6,386.1,63.9,386.1,62.9z"/>
</g>
<rect x="401.8" y="65.3" width="0.5" height="14.7"/>
<g>
	<path d="M401.9,65.3c0-1.8,2.5-3.5,4.5-3.5c1.3,0,2.3,0.7,2.3,1.7c0,1.7-2.5,3.5-4.6,3.5C402.9,67.1,401.9,66.4,401.9,65.3z"/>
</g>
<rect x="417.6" y="67.7" width="0.5" height="14"/>
<g>
	<path d="M417.7,67.8c0-1.8,2.5-3.5,4.5-3.5c1.3,0,2.3,0.7,2.3,1.7c0,1.7-2.5,3.5-4.6,3.5C418.7,69.5,417.7,68.9,417.7,67.8z"/>
</g>
<rect x="439.9" y="52.2" width="0.5" height="16.4"/>
<g>
	<path d="M433.5,70.3c0-1.8,2.5-3.5,4.5-3.5c1.3,0,2.3,0.7,2.3,1.7c0,1.7-2.5,3.5-4.6,3.5C434.5,72,433.5,71.4,433.5,70.3z"/>
</g>
<rect x="455.8" y="53.8" width="0.5" height="17.4"/>
<g>
	<path d="M449.3,72.8c0-1.8,2.5-3.5,4.5-3.5c1.3,0,2.3,0.7,2.3,1.7c0,1.7-2.5,3.5-4.6,3.5C450.3,74.5,449.3,73.9,449.3,72.8z"/>
</g>
<rect x="471.6" y="55.5" width="0.5" height="18.1"/>
<g>
	<path d="M465.1,75.3c0-1.8,2.5-3.5,4.5-3.5c1.3,0,2.3,0.7,2.3,1.7c0,1.7-2.5,3.5-4.6,3.5C466.1,77,465.1,76.3,465.1,75.3z"/>
</g>
<rect x="487.4" y="57.2" width="0.5" height="18.9"/>
<g>
	<path d="M480.9,77.7c0-1.8,2.5-3.5,4.5-3.5c1.3,0,2.3,0.7,2.3,1.7c0,1.7-2.5,3.5-4.6,3.5C481.9,79.5,480.9,78.8,480.9,77.7z"/>
</g>
<rect x="503.3" y="62" width="0.5" height="16.6"/>
<g>
	<path d="M501,76.7c1.6,0,2.7,0.7,2.7,2c0,1.9-2.3,3.4-4.5,3.4c-1.3,0-2.4-0.7-2.4-1.8C496.8,78.5,499,76.7,501,76.7z M497.2,80.5
		c0,0.6,0.4,0.9,1.1,0.9c1.4,0,4.9-2.1,4.9-3.3c0-0.6-0.4-0.9-1.1-0.9C500.9,77.3,497.2,79.3,497.2,80.5z"/>
</g>
</svg>
