<?xml version="1.0" encoding="utf-8"?>

<!--
	ScaleBook
	Copyright (c) Leland Jansen 2015. All rights reserved.
-->

<!DOCTYPE svg PUBLIC "-//W3C//DTD SVG 1.1//EN" "http://www.w3.org/Graphics/SVG/1.1/DTD/svg11.dtd">
<svg version="1.1" id="Layer_1" xmlns="http://www.w3.org/2000/svg" xmlns:xlink="http://www.w3.org/1999/xlink" x="0px" y="0px"
	 viewBox="0 0 552.9 81.6" enable-background="new 0 0 552.9 81.6" xml:space="preserve">
<rect x="8.4" y="9.7" width="0.8" height="67"/>
<g>
	<path d="M7.4,10.4c-1.9,1.1-3.6,5.8-3.6,9.4c0,2.3,1.4,9.9,1.4,12.3c0,5-1.5,8.6-4.6,11.1c3,2.4,4.6,6.1,4.6,11.1
		c0,2.3-1.4,9.9-1.4,12.3c0,3.8,1.7,8.4,3.6,9.5v0.7c-3.5-2.3-5.8-8.2-5.8-13.1c0-2.1,1.7-9.4,1.7-11.5c0-3.8-1-6.6-2.9-8.2
		C0.1,43.6,0,43.4,0,43.2c0-0.2,0.1-0.4,0.5-0.7c1.9-1.7,2.9-4.2,2.9-7.6c0-2.1-1.7-10-1.7-12.2c0-5.2,2.1-10.4,5.8-13.1V10.4z"/>
</g>
<rect x="547.8" y="9.7" width="0.8" height="67"/>
<rect x="550.4" y="9.7" width="2.5" height="67"/>
<rect x="8.5" y="29.3" width="544.4" height="0.5"/>
<rect x="8.5" y="24.4" width="544.4" height="0.5"/>
<rect x="8.5" y="19.4" width="544.4" height="0.5"/>
<rect x="8.5" y="14.4" width="544.4" height="0.5"/>
<rect x="8.5" y="9.5" width="544.4" height="0.5"/>
<g>
	<path d="M20.3,29.4c-4.2,0-8.1-3.1-8.1-6.9c0-3.2,2.3-6.7,6.8-10.5c-0.3-1.2-0.4-2.4-0.4-3.6c0-3.5,1.2-6.8,3.2-8.5
		c1.8,2.5,2.7,4.9,2.7,7.1c0,2.9-1.3,5.6-4.3,8.1l0.9,4.2c0.5,0,0.8-0.1,0.8-0.1c2.6,0,4.8,2,4.8,4.7c0,1.9-1.4,3.7-3.6,4.8
		c0-0.1,0.9,3.8,0.9,4.3c0,2.5-2.3,4.2-4.9,4.2c-2,0-3.6-1.3-3.6-3.4c0-1.4,1-2.6,2.4-2.6c1.3,0,2.3,1.3,2.3,2.5
		c0,1.4-1.2,2.3-2.7,2.5c0.6,0.3,1.2,0.5,1.9,0.5c2.1,0,4.1-1.6,4.1-3.6c0-0.2,0-0.4-0.1-0.6l-0.8-3.7
		C21.9,29.3,21.2,29.4,20.3,29.4z M18.1,24.2c0,1,0.5,1.9,1.6,2.5c-1.8-0.3-3-1.4-3-3.1c0-2,1.7-3.7,3.8-4.1l-0.8-4
		C16,18.3,14,21,14,23.6c0,2.9,2.8,5.3,6,5.3c0.9,0,1.7-0.2,2.4-0.5L21,21.6C19.4,21.8,18.1,22.8,18.1,24.2z M22.1,2.8
		c-1.6,0-2.9,3.7-2.9,7c0,0.7,0,1.3,0.2,1.9c2.7-2.4,4-4.5,4-6.5c0-0.9-0.3-1.7-1-2.4C22.4,2.9,22.3,2.8,22.1,2.8z M24.9,24.7
		c0-1.6-1.2-3.3-2.9-3.3c-0.1,0-0.2,0-0.5,0l1.4,6.6C24.2,27.2,24.9,26,24.9,24.7z"/>
</g>
<g>
	<path d="M33.5,2.9v2.8l1-0.3v1.8l-1,0.3V11l1-0.3v1.8l-1,0.3v3.1H33v-3l-1.9,0.6v3h-0.5v-2.8l-1,0.3v-1.8l1-0.3V8.4l-1,0.3V7l1-0.3
		V3.5h0.5v3L33,5.9v-3H33.5z M33,7.7l-1.9,0.6v3.4l1.9-0.6V7.7z"/>
</g>
<g>
	<path d="M39.7,10.3v2.8l1-0.3v1.8l-1,0.3v3.4l1-0.3v1.8l-1,0.3v3.1h-0.5v-3L37.3,21v3h-0.5v-2.8l-1,0.3v-1.8l1-0.3v-3.4l-1,0.3
		v-1.8l1-0.3V11h0.5v3l1.9-0.6v-3H39.7z M39.2,15.1l-1.9,0.6v3.4l1.9-0.6V15.1z"/>
</g>
<g>
	<path d="M45.9,0.4v2.8l1-0.3v1.8l-1,0.3v3.4l1-0.3V10l-1,0.3v3.1h-0.5v-3l-1.9,0.6v3H43v-2.8l-1,0.3V9.7l1-0.3V6l-1,0.3V4.5l1-0.3
		V1h0.5v3l1.9-0.6v-3H45.9z M45.4,5.2l-1.9,0.6v3.4l1.9-0.6V5.2z"/>
</g>
<g>
	<path d="M52.1,7.9v2.8l1-0.3v1.8l-1,0.3v3.4l1-0.3v1.8l-1,0.3v3.1h-0.5v-3l-1.9,0.6v3h-0.5v-2.8l-1,0.3v-1.8l1-0.3v-3.4l-1,0.3
		v-1.8l1-0.3V8.5h0.5v3l1.9-0.6v-3H52.1z M51.6,12.6l-1.9,0.6v3.4l1.9-0.6V12.6z"/>
</g>
<g>
	<path d="M58.3,15.3v2.8l1-0.3v1.8l-1,0.3v3.4l1-0.3v1.8l-1,0.3v3.1h-0.5v-3l-1.9,0.6v3h-0.5v-2.8l-1,0.3v-1.8l1-0.3v-3.4l-1,0.3
		v-1.8l1-0.3v-3.1h0.5v3l1.9-0.6v-3H58.3z M57.8,20.1l-1.9,0.6v3.4l1.9-0.6V20.1z"/>
</g>
<g>
	<path d="M64.5,5.4v2.8l1-0.3v1.8l-1,0.3v3.4l1-0.3v1.8l-1,0.3v3.1H64v-3L62.1,16v3h-0.5v-2.8l-1,0.3v-1.8l1-0.3v-3.4l-1,0.3V9.5
		l1-0.3V6h0.5v3L64,8.3v-3H64.5z M64,10.2l-1.9,0.6v3.4l1.9-0.6V10.2z"/>
</g>
<polygon fill-rule="evenodd" clip-rule="evenodd" points="80.9,25.8 126.3,24.6 126.3,22.1 80.9,23.4 "/>
<polygon fill-rule="evenodd" clip-rule="evenodd" points="80.9,22.1 126.3,20.9 126.3,18.4 80.9,19.6 "/>
<polygon fill-rule="evenodd" clip-rule="evenodd" points="141.5,20.9 187,15.9 187,13.4 141.5,18.4 "/>
<polygon fill-rule="evenodd" clip-rule="evenodd" points="141.5,17.2 187,12.2 187,9.7 141.5,14.7 "/>
<polygon fill-rule="evenodd" clip-rule="evenodd" points="195.7,35.8 241.1,30.8 241.1,28.3 195.7,33.3 "/>
<polygon fill-rule="evenodd" clip-rule="evenodd" points="195.7,39.5 241.1,34.5 241.1,32 195.7,37 "/>
<polygon fill-rule="evenodd" clip-rule="evenodd" points="256.3,27.1 301.7,25.8 301.7,23.4 256.3,24.6 "/>
<polygon fill-rule="evenodd" clip-rule="evenodd" points="256.3,30.8 301.7,29.6 301.7,27.1 256.3,28.3 "/>
<polygon fill-rule="evenodd" clip-rule="evenodd" points="316.9,25.8 362.5,30.8 362.5,28.3 316.9,23.4 "/>
<polygon fill-rule="evenodd" clip-rule="evenodd" points="316.9,29.6 362.5,34.5 362.5,32 316.9,27.1 "/>
<polygon fill-rule="evenodd" clip-rule="evenodd" points="384.2,11 429.6,15.9 429.6,13.4 384.2,8.5 "/>
<polygon fill-rule="evenodd" clip-rule="evenodd" points="384.2,7.2 429.6,12.2 429.6,9.7 384.2,4.8 "/>
<polygon fill-rule="evenodd" clip-rule="evenodd" points="444.8,20.9 490.2,25.8 490.2,23.4 444.8,18.4 "/>
<polygon fill-rule="evenodd" clip-rule="evenodd" points="444.8,17.2 490.2,22.1 490.2,19.6 444.8,14.7 "/>
<rect x="8.5" y="76.4" width="544.4" height="0.5"/>
<rect x="8.5" y="71.5" width="544.4" height="0.5"/>
<rect x="8.5" y="66.5" width="544.4" height="0.5"/>
<rect x="8.5" y="61.6" width="544.4" height="0.5"/>
<rect x="8.5" y="56.6" width="544.4" height="0.5"/>
<g>
	<path d="M15.7,71c2.9-2.6,4.7-6.1,4.7-9.2c0-2.5-1.4-4.4-3.7-4.4c-1.6,0-3.4,1.3-3.4,2.7c0,0.2,0,0.3,0.1,0.3
		c-0.1,0,0.6-0.6,1.4-0.6c0.9,0,1.5,0.8,1.5,1.7c0,1.2-0.9,2.2-2.1,2.2c-1.2,0-2.1-1.3-2.1-2.8c0-2.3,2.3-4.1,4.8-4.1
		c4.7,0,5.9,3.2,5.9,5.8c0,1.6-0.4,2.9-2,5.3c-1.9,3.1-6.4,5.3-8.1,5.3c-0.4,0-0.6-0.2-0.6-0.5C13.8,72.3,14.9,71.7,15.7,71z
		 M25.7,58.3c0.6,0,1,0.4,1,1c0,0.6-0.4,1-1,1s-1-0.4-1-1C24.7,58.8,25.1,58.3,25.7,58.3z M25.7,63.3c0.6,0,1,0.4,1,1
		c0,0.6-0.4,1-1,1s-1-0.4-1-1C24.7,63.7,25.1,63.3,25.7,63.3z"/>
</g>
<g>
	<path d="M33.5,55v2.8l1-0.3v1.8l-1,0.3V63l1-0.3v1.8l-1,0.3V68H33v-3l-1.9,0.6v3h-0.5v-2.8l-1,0.3v-1.8l1-0.3v-3.4l-1,0.3v-1.8
		l1-0.3v-3.1h0.5v3L33,58v-3H33.5z M33,59.8l-1.9,0.6v3.4l1.9-0.6V59.8z"/>
</g>
<g>
	<path d="M39.7,62.4v2.8l1-0.3v1.8l-1,0.3v3.4l1-0.3V72l-1,0.3v3.1h-0.5v-3l-1.9,0.6v3h-0.5v-2.8l-1,0.3v-1.8l1-0.3V68l-1,0.3v-1.8
		l1-0.3v-3.1h0.5v3l1.9-0.6v-3H39.7z M39.2,67.2l-1.9,0.6v3.4l1.9-0.6V67.2z"/>
</g>
<g>
	<path d="M45.9,52.5v2.8l1-0.3v1.8l-1,0.3v3.4l1-0.3V62l-1,0.3v3.1h-0.5v-3l-1.9,0.6v3H43v-2.8l-1,0.3v-1.8l1-0.3V58l-1,0.3v-1.8
		l1-0.3v-3.1h0.5v3l1.9-0.6v-3H45.9z M45.4,57.3l-1.9,0.6v3.4l1.9-0.6V57.3z"/>
</g>
<g>
	<path d="M52.1,59.9v2.8l1-0.3v1.8l-1,0.3V68l1-0.3v1.8l-1,0.3v3.1h-0.5v-3l-1.9,0.6v3h-0.5v-2.8l-1,0.3v-1.8l1-0.3v-3.4l-1,0.3V64
		l1-0.3v-3.1h0.5v3l1.9-0.6v-3H52.1z M51.6,64.7l-1.9,0.6v3.4l1.9-0.6V64.7z"/>
</g>
<g>
	<path d="M58.3,67.4v2.8l1-0.3v1.8l-1,0.3v3.4l1-0.3v1.8l-1,0.3v3.1h-0.5v-3L55.9,78v3h-0.5v-2.8l-1,0.3v-1.8l1-0.3v-3.4l-1,0.3
		v-1.8l1-0.3V68h0.5v3l1.9-0.6v-3H58.3z M57.8,72.2l-1.9,0.6v3.4l1.9-0.6V72.2z"/>
</g>
<g>
	<path d="M64.5,57.5v2.8l1-0.3v1.8l-1,0.3v3.4l1-0.3V67l-1,0.3v3.1H64v-3l-1.9,0.6v3h-0.5v-2.8l-1,0.3v-1.8l1-0.3V63l-1,0.3v-1.8
		l1-0.3v-3.1h0.5v3l1.9-0.6v-3H64.5z M64,62.2l-1.9,0.6v3.4l1.9-0.6V62.2z"/>
</g>
<polygon fill-rule="evenodd" clip-rule="evenodd" points="80.9,63 126.3,58.1 126.3,55.6 80.9,60.6 "/>
<polygon fill-rule="evenodd" clip-rule="evenodd" points="80.9,59.3 126.3,54.4 126.3,51.9 80.9,56.8 "/>
<polygon fill-rule="evenodd" clip-rule="evenodd" points="135,77.9 180.5,73 180.5,70.5 135,75.4 "/>
<polygon fill-rule="evenodd" clip-rule="evenodd" points="135,81.6 180.5,76.7 180.5,74.2 135,79.2 "/>
<polygon fill-rule="evenodd" clip-rule="evenodd" points="195.7,68 241.1,63 241.1,60.6 195.7,65.5 "/>
<polygon fill-rule="evenodd" clip-rule="evenodd" points="195.7,71.7 241.1,66.8 241.1,64.3 195.7,69.2 "/>
<polygon fill-rule="evenodd" clip-rule="evenodd" points="256.3,64.3 301.7,63 301.7,60.6 256.3,61.8 "/>
<polygon fill-rule="evenodd" clip-rule="evenodd" points="256.3,68 301.7,66.8 301.7,64.3 256.3,65.5 "/>
<polygon fill-rule="evenodd" clip-rule="evenodd" points="316.9,63 362.5,68 362.5,65.5 316.9,60.6 "/>
<polygon fill-rule="evenodd" clip-rule="evenodd" points="316.9,66.8 362.5,71.7 362.5,69.2 316.9,64.3 "/>
<polygon fill-rule="evenodd" clip-rule="evenodd" points="377.7,73 423.1,77.9 423.1,75.4 377.7,70.5 "/>
<polygon fill-rule="evenodd" clip-rule="evenodd" points="377.7,76.7 423.1,81.6 423.1,79.2 377.7,74.2 "/>
<polygon fill-rule="evenodd" clip-rule="evenodd" points="444.8,58.1 490.2,63 490.2,60.6 444.8,55.6 "/>
<polygon fill-rule="evenodd" clip-rule="evenodd" points="444.8,54.4 490.2,59.3 490.2,56.8 444.8,51.9 "/>
<rect x="72.3" y="34.1" width="10.5" height="0.8"/>
<rect x="72.3" y="39.1" width="10.5" height="0.8"/>
<rect x="80.6" y="19.8" width="0.5" height="21.4"/>
<g>
	<path d="M74.2,42.8c0-1.8,2.5-3.5,4.5-3.5c1.3,0,2.3,0.7,2.3,1.7c0,1.7-2.5,3.5-4.6,3.5C75.2,44.5,74.2,43.9,74.2,42.8z"/>
</g>
<rect x="87.5" y="34.1" width="10.5" height="0.8"/>
<rect x="87.5" y="39.1" width="10.5" height="0.8"/>
<rect x="95.8" y="19.5" width="0.5" height="19.2"/>
<g>
	<path d="M89.4,40.3c0-1.8,2.5-3.5,4.5-3.5c1.3,0,2.3,0.7,2.3,1.7c0,1.7-2.5,3.5-4.6,3.5C90.4,42.1,89.4,41.4,89.4,40.3z"/>
</g>
<rect x="102.7" y="34.1" width="10.5" height="0.8"/>
<rect x="111" y="19" width="0.5" height="17.2"/>
<g>
	<path d="M104.6,37.9c0-1.8,2.5-3.5,4.5-3.5c1.3,0,2.3,0.7,2.3,1.7c0,1.7-2.5,3.5-4.6,3.5C105.5,39.6,104.6,38.9,104.6,37.9z"/>
</g>
<rect x="117.7" y="34.1" width="10.5" height="0.8"/>
<rect x="126" y="18.6" width="0.5" height="15.2"/>
<g>
	<path d="M119.6,35.4c0-1.8,2.5-3.5,4.5-3.5c1.3,0,2.3,0.7,2.3,1.7c0,1.7-2.5,3.5-4.6,3.5C120.6,37.1,119.6,36.5,119.6,35.4z"/>
</g>
<rect x="141.2" y="14.8" width="0.5" height="16.4"/>
<g>
	<path d="M134.8,32.9c0-1.8,2.5-3.5,4.5-3.5c1.3,0,2.3,0.7,2.3,1.7c0,1.7-2.5,3.5-4.6,3.5C135.8,34.6,134.8,34,134.8,32.9z"/>
</g>
<rect x="156.4" y="13.3" width="0.5" height="15.5"/>
<g>
	<path d="M150,30.4c0-1.8,2.5-3.5,4.5-3.5c1.3,0,2.3,0.7,2.3,1.7c0,1.7-2.5,3.5-4.6,3.5C151,32.1,150,31.5,150,30.4z"/>
</g>
<rect x="171.6" y="11.6" width="0.5" height="14.7"/>
<g>
	<path d="M165.2,27.9c0-1.8,2.5-3.5,4.5-3.5c1.3,0,2.3,0.7,2.3,1.7c0,1.7-2.5,3.5-4.6,3.5C166.2,29.7,165.2,29,165.2,27.9z"/>
</g>
<rect x="186.8" y="9.9" width="0.5" height="14"/>
<g>
	<path d="M180.4,25.5c0-1.8,2.5-3.5,4.5-3.5c1.3,0,2.3,0.7,2.3,1.7c0,1.7-2.5,3.5-4.6,3.5C181.3,27.2,180.4,26.5,180.4,25.5z"/>
</g>
<rect x="195.5" y="22.9" width="0.5" height="16.4"/>
<g>
	<path d="M195.6,23c0-1.8,2.5-3.5,4.5-3.5c1.3,0,2.3,0.7,2.3,1.7c0,1.7-2.5,3.5-4.6,3.5C196.5,24.7,195.6,24.1,195.6,23z"/>
</g>
<rect x="210.5" y="20.4" width="0.5" height="17.4"/>
<g>
	<path d="M210.6,20.5c0-1.8,2.5-3.5,4.5-3.5c1.3,0,2.3,0.7,2.3,1.7c0,1.7-2.5,3.5-4.6,3.5C211.6,22.2,210.6,21.6,210.6,20.5z"/>
</g>
<rect x="225.7" y="17.9" width="0.5" height="18.1"/>
<g>
	<path d="M225.8,18c0-1.8,2.5-3.5,4.5-3.5c1.3,0,2.3,0.7,2.3,1.7c0,1.7-2.5,3.5-4.6,3.5C226.8,19.7,225.8,19.1,225.8,18z"/>
</g>
<rect x="240.9" y="15.5" width="0.5" height="18.9"/>
<g>
	<path d="M241,15.5c0-1.8,2.5-3.5,4.5-3.5c1.3,0,2.3,0.7,2.3,1.7c0,1.7-2.5,3.5-4.6,3.5C242,17.3,241,16.6,241,15.5z"/>
</g>
<rect x="256.1" y="13" width="0.5" height="17.7"/>
<g>
	<path d="M256.2,13c0-1.8,2.5-3.5,4.5-3.5c1.3,0,2.3,0.7,2.3,1.7c0,1.7-2.5,3.5-4.6,3.5C257.1,14.8,256.2,14.1,256.2,13z"/>
</g>
<rect x="271.3" y="10.5" width="0.5" height="19.8"/>
<g>
	<path d="M271.4,10.6c0-1.8,2.5-3.5,4.5-3.5c1.3,0,2.3,0.7,2.3,1.7c0,1.7-2.5,3.5-4.6,3.5C272.3,12.3,271.4,11.7,271.4,10.6z"/>
</g>
<rect x="286.5" y="8" width="0.5" height="21.9"/>
<g>
	<path d="M286.6,8.1c0-1.8,2.5-3.5,4.5-3.5c1.3,0,2.3,0.7,2.3,1.7c0,1.7-2.5,3.5-4.6,3.5C287.5,9.8,286.6,9.2,286.6,8.1z"/>
</g>
<rect x="301.5" y="10.5" width="0.5" height="18.9"/>
<g>
	<path d="M301.6,10.6c0-1.8,2.5-3.5,4.5-3.5c1.3,0,2.3,0.7,2.3,1.7c0,1.7-2.5,3.5-4.6,3.5C302.6,12.3,301.6,11.7,301.6,10.6z"/>
</g>
<rect x="316.7" y="13" width="0.5" height="16.4"/>
<g>
	<path d="M316.8,13c0-1.8,2.5-3.5,4.5-3.5c1.3,0,2.3,0.7,2.3,1.7c0,1.7-2.5,3.5-4.6,3.5C317.8,14.8,316.8,14.1,316.8,13z"/>
</g>
<rect x="331.9" y="15.5" width="0.5" height="15.5"/>
<g>
	<path d="M332,15.5c0-1.8,2.5-3.5,4.5-3.5c1.3,0,2.3,0.7,2.3,1.7c0,1.7-2.5,3.5-4.6,3.5C332.9,17.3,332,16.6,332,15.5z"/>
</g>
<rect x="347.1" y="17.9" width="0.5" height="14.7"/>
<g>
	<path d="M347.2,18c0-1.8,2.5-3.5,4.5-3.5c1.3,0,2.3,0.7,2.3,1.7c0,1.7-2.5,3.5-4.6,3.5C348.1,19.7,347.2,19.1,347.2,18z"/>
</g>
<rect x="362.3" y="20.4" width="0.5" height="14"/>
<g>
	<path d="M362.4,20.5c0-1.8,2.5-3.5,4.5-3.5c1.3,0,2.3,0.7,2.3,1.7c0,1.7-2.5,3.5-4.6,3.5C363.3,22.2,362.4,21.6,362.4,20.5z"/>
</g>
<rect x="384" y="4.9" width="0.5" height="16.4"/>
<g>
	<path d="M377.6,23c0-1.8,2.5-3.5,4.5-3.5c1.3,0,2.3,0.7,2.3,1.7c0,1.7-2.5,3.5-4.6,3.5C378.5,24.7,377.6,24.1,377.6,23z"/>
</g>
<rect x="399" y="6.5" width="0.5" height="17.4"/>
<g>
	<path d="M392.6,25.5c0-1.8,2.5-3.5,4.5-3.5c1.3,0,2.3,0.7,2.3,1.7c0,1.7-2.5,3.5-4.6,3.5C393.6,27.2,392.6,26.5,392.6,25.5z"/>
</g>
<rect x="414.2" y="8.2" width="0.5" height="18.1"/>
<g>
	<path d="M407.8,27.9c0-1.8,2.5-3.5,4.5-3.5c1.3,0,2.3,0.7,2.3,1.7c0,1.7-2.5,3.5-4.6,3.5C408.8,29.7,407.8,29,407.8,27.9z"/>
</g>
<rect x="429.4" y="9.9" width="0.5" height="18.9"/>
<g>
	<path d="M423,30.4c0-1.8,2.5-3.5,4.5-3.5c1.3,0,2.3,0.7,2.3,1.7c0,1.7-2.5,3.5-4.6,3.5C423.9,32.1,423,31.5,423,30.4z"/>
</g>
<rect x="444.6" y="14.8" width="0.5" height="16.4"/>
<g>
	<path d="M438.2,32.9c0-1.8,2.5-3.5,4.5-3.5c1.3,0,2.3,0.7,2.3,1.7c0,1.7-2.5,3.5-4.6,3.5C439.1,34.6,438.2,34,438.2,32.9z"/>
</g>
<rect x="451.5" y="34.1" width="10.5" height="0.8"/>
<rect x="459.8" y="16.4" width="0.5" height="17.4"/>
<g>
	<path d="M453.4,35.4c0-1.8,2.5-3.5,4.5-3.5c1.3,0,2.3,0.7,2.3,1.7c0,1.7-2.5,3.5-4.6,3.5C454.3,37.1,453.4,36.5,453.4,35.4z"/>
</g>
<rect x="466.7" y="34.1" width="10.5" height="0.8"/>
<rect x="475" y="18.1" width="0.5" height="18.1"/>
<g>
	<path d="M468.5,37.9c0-1.8,2.5-3.5,4.5-3.5c1.3,0,2.3,0.7,2.3,1.7c0,1.7-2.5,3.5-4.6,3.5C469.5,39.6,468.5,38.9,468.5,37.9z"/>
</g>
<rect x="481.7" y="34.1" width="10.5" height="0.8"/>
<rect x="481.7" y="39.1" width="10.5" height="0.8"/>
<rect x="490" y="19.8" width="0.5" height="18.9"/>
<g>
	<path d="M483.6,40.3c0-1.8,2.5-3.5,4.5-3.5c1.3,0,2.3,0.7,2.3,1.7c0,1.7-2.5,3.5-4.6,3.5C484.6,42.1,483.6,41.4,483.6,40.3z"/>
</g>
<rect x="496.9" y="34.1" width="10.7" height="0.8"/>
<rect x="496.9" y="39.1" width="10.7" height="0.8"/>
<rect x="505.4" y="19.6" width="0.5" height="21.5"/>
<g>
	<path d="M503,39.3c1.6,0,2.7,0.7,2.7,2c0,1.9-2.3,3.4-4.5,3.4c-1.3,0-2.4-0.7-2.4-1.8C498.8,41,501,39.3,503,39.3z M499.2,43.1
		c0,0.6,0.4,0.9,1.1,0.9c1.4,0,4.9-2.1,4.9-3.3c0-0.6-0.4-0.9-1.1-0.9C502.9,39.9,499.2,41.9,499.2,43.1z"/>
</g>
<rect x="80.6" y="57" width="0.5" height="18.9"/>
<g>
	<path d="M74.2,77.5c0-1.8,2.5-3.5,4.5-3.5c1.3,0,2.3,0.7,2.3,1.7c0,1.7-2.5,3.5-4.6,3.5C75.2,79.3,74.2,78.6,74.2,77.5z"/>
</g>
<rect x="95.8" y="55.4" width="0.5" height="18"/>
<g>
	<path d="M89.4,75.1c0-1.8,2.5-3.5,4.5-3.5c1.3,0,2.3,0.7,2.3,1.7c0,1.7-2.5,3.5-4.6,3.5C90.4,76.8,89.4,76.1,89.4,75.1z"/>
</g>
<rect x="111" y="53.7" width="0.5" height="17.2"/>
<g>
	<path d="M104.6,72.6c0-1.8,2.5-3.5,4.5-3.5c1.3,0,2.3,0.7,2.3,1.7c0,1.7-2.5,3.5-4.6,3.5C105.5,74.3,104.6,73.7,104.6,72.6z"/>
</g>
<rect x="126" y="52" width="0.5" height="16.4"/>
<g>
	<path d="M119.6,70.1c0-1.8,2.5-3.5,4.5-3.5c1.3,0,2.3,0.7,2.3,1.7c0,1.7-2.5,3.5-4.6,3.5C120.6,71.8,119.6,71.2,119.6,70.1z"/>
</g>
<rect x="134.7" y="67.5" width="0.5" height="14"/>
<g>
	<path d="M134.8,67.6c0-1.8,2.5-3.5,4.5-3.5c1.3,0,2.3,0.7,2.3,1.7c0,1.7-2.5,3.5-4.6,3.5C135.8,69.3,134.8,68.7,134.8,67.6z"/>
</g>
<rect x="149.9" y="65.1" width="0.5" height="14.9"/>
<g>
	<path d="M150,65.1c0-1.8,2.5-3.5,4.5-3.5c1.3,0,2.3,0.7,2.3,1.7c0,1.7-2.5,3.5-4.6,3.5C151,66.9,150,66.2,150,65.1z"/>
</g>
<rect x="165.1" y="62.6" width="0.5" height="15.7"/>
<g>
	<path d="M165.2,62.7c0-1.8,2.5-3.5,4.5-3.5c1.3,0,2.3,0.7,2.3,1.7c0,1.7-2.5,3.5-4.6,3.5C166.2,64.4,165.2,63.7,165.2,62.7z"/>
</g>
<rect x="180.3" y="60.1" width="0.5" height="16.4"/>
<g>
	<path d="M180.4,60.2c0-1.8,2.5-3.5,4.5-3.5c1.3,0,2.3,0.7,2.3,1.7c0,1.7-2.5,3.5-4.6,3.5C181.3,61.9,180.4,61.3,180.4,60.2z"/>
</g>
<rect x="195.5" y="57.6" width="0.5" height="14"/>
<g>
	<path d="M195.6,57.7c0-1.8,2.5-3.5,4.5-3.5c1.3,0,2.3,0.7,2.3,1.7c0,1.7-2.5,3.5-4.6,3.5C196.5,59.4,195.6,58.8,195.6,57.7z"/>
</g>
<rect x="210.5" y="55.1" width="0.5" height="14.9"/>
<g>
	<path d="M210.6,55.2c0-1.8,2.5-3.5,4.5-3.5c1.3,0,2.3,0.7,2.3,1.7c0,1.7-2.5,3.5-4.6,3.5C211.6,56.9,210.6,56.3,210.6,55.2z"/>
</g>
<rect x="223.9" y="51.5" width="10.5" height="0.8"/>
<rect x="225.7" y="52.7" width="0.5" height="15.7"/>
<g>
	<path d="M225.8,52.7c0-1.8,2.5-3.5,4.5-3.5c1.3,0,2.3,0.7,2.3,1.7c0,1.7-2.5,3.5-4.6,3.5C226.8,54.5,225.8,53.8,225.8,52.7z"/>
</g>
<rect x="239.1" y="51.5" width="10.5" height="0.8"/>
<rect x="240.9" y="50.2" width="0.5" height="16.4"/>
<g>
	<path d="M241,50.3c0-1.8,2.5-3.5,4.5-3.5c1.3,0,2.3,0.7,2.3,1.7c0,1.7-2.5,3.5-4.6,3.5C242,52,241,51.3,241,50.3z"/>
</g>
<rect x="254.3" y="51.5" width="10.5" height="0.8"/>
<rect x="254.3" y="46.5" width="10.5" height="0.8"/>
<rect x="256.1" y="47.7" width="0.5" height="20.2"/>
<g>
	<path d="M256.2,47.8c0-1.8,2.5-3.5,4.5-3.5c1.3,0,2.3,0.7,2.3,1.7c0,1.7-2.5,3.5-4.6,3.5C257.1,49.5,256.2,48.9,256.2,47.8z"/>
</g>
<rect x="269.5" y="51.5" width="10.5" height="0.8"/>
<rect x="269.5" y="46.5" width="10.5" height="0.8"/>
<rect x="271.3" y="45.2" width="0.5" height="22.3"/>
<g>
	<path d="M271.4,45.3c0-1.8,2.5-3.5,4.5-3.5c1.3,0,2.3,0.7,2.3,1.7c0,1.7-2.5,3.5-4.6,3.5C272.3,47,271.4,46.4,271.4,45.3z"/>
</g>
<rect x="284.7" y="51.5" width="10.5" height="0.8"/>
<rect x="284.7" y="46.5" width="10.5" height="0.8"/>
<rect x="284.7" y="41.6" width="10.5" height="0.8"/>
<rect x="286.5" y="42.7" width="0.5" height="24.3"/>
<g>
	<path d="M286.6,42.8c0-1.8,2.5-3.5,4.5-3.5c1.3,0,2.3,0.7,2.3,1.7c0,1.7-2.5,3.5-4.6,3.5C287.5,44.5,286.6,43.9,286.6,42.8z"/>
</g>
<rect x="299.7" y="51.5" width="10.5" height="0.8"/>
<rect x="299.7" y="46.5" width="10.5" height="0.8"/>
<rect x="301.5" y="45.2" width="0.5" height="21.4"/>
<g>
	<path d="M301.6,45.3c0-1.8,2.5-3.5,4.5-3.5c1.3,0,2.3,0.7,2.3,1.7c0,1.7-2.5,3.5-4.6,3.5C302.6,47,301.6,46.4,301.6,45.3z"/>
</g>
<rect x="314.9" y="51.5" width="10.5" height="0.8"/>
<rect x="314.9" y="46.5" width="10.5" height="0.8"/>
<rect x="316.7" y="47.7" width="0.5" height="18.9"/>
<g>
	<path d="M316.8,47.8c0-1.8,2.5-3.5,4.5-3.5c1.3,0,2.3,0.7,2.3,1.7c0,1.7-2.5,3.5-4.6,3.5C317.8,49.5,316.8,48.9,316.8,47.8z"/>
</g>
<rect x="330.1" y="51.5" width="10.5" height="0.8"/>
<rect x="331.9" y="50.2" width="0.5" height="18"/>
<g>
	<path d="M332,50.3c0-1.8,2.5-3.5,4.5-3.5c1.3,0,2.3,0.7,2.3,1.7c0,1.7-2.5,3.5-4.6,3.5C332.9,52,332,51.3,332,50.3z"/>
</g>
<rect x="345.3" y="51.5" width="10.5" height="0.8"/>
<rect x="347.1" y="52.7" width="0.5" height="17.2"/>
<g>
	<path d="M347.2,52.7c0-1.8,2.5-3.5,4.5-3.5c1.3,0,2.3,0.7,2.3,1.7c0,1.7-2.5,3.5-4.6,3.5C348.1,54.5,347.2,53.8,347.2,52.7z"/>
</g>
<rect x="362.3" y="55.1" width="0.5" height="16.4"/>
<g>
	<path d="M362.4,55.2c0-1.8,2.5-3.5,4.5-3.5c1.3,0,2.3,0.7,2.3,1.7c0,1.7-2.5,3.5-4.6,3.5C363.3,56.9,362.4,56.3,362.4,55.2z"/>
</g>
<rect x="377.5" y="57.6" width="0.5" height="18.9"/>
<g>
	<path d="M377.6,57.7c0-1.8,2.5-3.5,4.5-3.5c1.3,0,2.3,0.7,2.3,1.7c0,1.7-2.5,3.5-4.6,3.5C378.5,59.4,377.6,58.8,377.6,57.7z"/>
</g>
<rect x="392.5" y="60.1" width="0.5" height="18"/>
<g>
	<path d="M392.6,60.2c0-1.8,2.5-3.5,4.5-3.5c1.3,0,2.3,0.7,2.3,1.7c0,1.7-2.5,3.5-4.6,3.5C393.6,61.9,392.6,61.3,392.6,60.2z"/>
</g>
<rect x="407.7" y="62.6" width="0.5" height="17.2"/>
<g>
	<path d="M407.8,62.7c0-1.8,2.5-3.5,4.5-3.5c1.3,0,2.3,0.7,2.3,1.7c0,1.7-2.5,3.5-4.6,3.5C408.8,64.4,407.8,63.7,407.8,62.7z"/>
</g>
<rect x="422.9" y="65.1" width="0.5" height="16.4"/>
<g>
	<path d="M423,65.1c0-1.8,2.5-3.5,4.5-3.5c1.3,0,2.3,0.7,2.3,1.7c0,1.7-2.5,3.5-4.6,3.5C423.9,66.9,423,66.2,423,65.1z"/>
</g>
<rect x="444.6" y="52" width="0.5" height="14"/>
<g>
	<path d="M438.2,67.6c0-1.8,2.5-3.5,4.5-3.5c1.3,0,2.3,0.7,2.3,1.7c0,1.7-2.5,3.5-4.6,3.5C439.1,69.3,438.2,68.7,438.2,67.6z"/>
</g>
<rect x="459.8" y="53.6" width="0.5" height="14.9"/>
<g>
	<path d="M453.4,70.1c0-1.8,2.5-3.5,4.5-3.5c1.3,0,2.3,0.7,2.3,1.7c0,1.7-2.5,3.5-4.6,3.5C454.3,71.8,453.4,71.2,453.4,70.1z"/>
</g>
<rect x="475" y="55.3" width="0.5" height="15.7"/>
<g>
	<path d="M468.5,72.6c0-1.8,2.5-3.5,4.5-3.5c1.3,0,2.3,0.7,2.3,1.7c0,1.7-2.5,3.5-4.6,3.5C469.5,74.3,468.5,73.7,468.5,72.6z"/>
</g>
<rect x="490" y="57" width="0.5" height="16.4"/>
<g>
	<path d="M483.6,75.1c0-1.8,2.5-3.5,4.5-3.5c1.3,0,2.3,0.7,2.3,1.7c0,1.7-2.5,3.5-4.6,3.5C484.6,76.8,483.6,76.1,483.6,75.1z"/>
</g>
<rect x="505.4" y="59.3" width="0.5" height="16.6"/>
<g>
	<path d="M503,74c1.6,0,2.7,0.7,2.7,2c0,1.9-2.3,3.4-4.5,3.4c-1.3,0-2.4-0.7-2.4-1.8C498.8,75.8,501,74,503,74z M499.2,77.8
		c0,0.6,0.4,0.9,1.1,0.9c1.4,0,4.9-2.1,4.9-3.3c0-0.6-0.4-0.9-1.1-0.9C502.9,74.6,499.2,76.6,499.2,77.8z"/>
</g>
</svg>
