<?xml version="1.0" encoding="utf-8"?>

<!--
	ScaleBook
	Copyright (c) Leland Jansen 2015. All rights reserved.
-->

<!DOCTYPE svg PUBLIC "-//W3C//DTD SVG 1.1//EN" "http://www.w3.org/Graphics/SVG/1.1/DTD/svg11.dtd">
<svg version="1.1" id="Layer_1" xmlns="http://www.w3.org/2000/svg" xmlns:xlink="http://www.w3.org/1999/xlink" x="0px" y="0px"
	 viewBox="0 0 552.9 81.6" enable-background="new 0 0 552.9 81.6" xml:space="preserve">
<rect x="8.4" y="9.7" width="0.8" height="67"/>
<g>
	<path d="M7.4,10.4c-1.9,1.1-3.6,5.8-3.6,9.4c0,2.3,1.4,9.9,1.4,12.3c0,5-1.5,8.6-4.6,11.1c3,2.4,4.6,6.1,4.6,11.1
		c0,2.3-1.4,9.9-1.4,12.3c0,3.8,1.7,8.4,3.6,9.5v0.7c-3.5-2.3-5.8-8.2-5.8-13.1c0-2.1,1.7-9.4,1.7-11.5c0-3.8-1-6.6-2.9-8.2
		C0.1,43.6,0,43.4,0,43.2c0-0.2,0.1-0.4,0.5-0.7c1.9-1.7,2.9-4.2,2.9-7.6c0-2.1-1.7-10-1.7-12.2c0-5.2,2.1-10.4,5.8-13.1V10.4z"/>
</g>
<rect x="547.8" y="9.7" width="0.8" height="67"/>
<rect x="550.4" y="9.7" width="2.5" height="67"/>
<rect x="8.5" y="29.3" width="544.4" height="0.5"/>
<rect x="8.5" y="24.4" width="544.4" height="0.5"/>
<rect x="8.5" y="19.4" width="544.4" height="0.5"/>
<rect x="8.5" y="14.4" width="544.4" height="0.5"/>
<rect x="8.5" y="9.5" width="544.4" height="0.5"/>
<g>
	<path d="M20.3,29.4c-4.2,0-8.1-3.1-8.1-6.9c0-3.2,2.3-6.7,6.8-10.5c-0.3-1.2-0.4-2.4-0.4-3.6c0-3.5,1.2-6.8,3.2-8.5
		c1.8,2.5,2.7,4.9,2.7,7.1c0,2.9-1.3,5.6-4.3,8.1l0.9,4.2c0.5,0,0.8-0.1,0.8-0.1c2.6,0,4.8,2,4.8,4.7c0,1.9-1.4,3.7-3.6,4.8
		c0-0.1,0.9,3.8,0.9,4.3c0,2.5-2.3,4.2-4.9,4.2c-2,0-3.6-1.3-3.6-3.4c0-1.4,1-2.6,2.4-2.6c1.3,0,2.3,1.3,2.3,2.5
		c0,1.4-1.2,2.3-2.7,2.5c0.6,0.3,1.2,0.5,1.9,0.5c2.1,0,4.1-1.6,4.1-3.6c0-0.2,0-0.4-0.1-0.6l-0.8-3.7
		C21.9,29.3,21.2,29.4,20.3,29.4z M18.1,24.2c0,1,0.5,1.9,1.6,2.5c-1.8-0.3-3-1.4-3-3.1c0-2,1.7-3.7,3.8-4.1l-0.8-4
		C16,18.3,14,21,14,23.6c0,2.9,2.8,5.3,6,5.3c0.9,0,1.7-0.2,2.4-0.5L21,21.6C19.4,21.8,18.1,22.8,18.1,24.2z M22.1,2.8
		c-1.6,0-2.9,3.7-2.9,7c0,0.7,0,1.3,0.2,1.9c2.7-2.4,4-4.5,4-6.5c0-0.9-0.3-1.7-1-2.4C22.4,2.9,22.3,2.8,22.1,2.8z M24.9,24.7
		c0-1.6-1.2-3.3-2.9-3.3c-0.1,0-0.2,0-0.5,0l1.4,6.6C24.2,27.2,24.9,26,24.9,24.7z"/>
</g>
<g>
	<path d="M29.5,11.3h0.6L30,17.6c0.4-0.7,1-1,1.8-1c1.2,0,2.2,0.8,2.2,1.9c0,0.8-0.5,1.8-1.7,2.7l-2.8,2.1V11.3z M30.1,18.2
		C30,19,30,19.6,30,20.2c0,1,0,1.6,0.1,2c1-0.7,2.4-2.6,2.4-3.7c0-0.6-0.5-1.1-1.1-1.1C30.8,17.4,30.4,17.7,30.1,18.2z"/>
</g>
<polygon fill-rule="evenodd" clip-rule="evenodd" points="49.2,25.8 97.7,24.6 97.7,22.1 49.2,23.4 "/>
<polygon fill-rule="evenodd" clip-rule="evenodd" points="49.2,22.1 97.7,20.9 97.7,18.4 49.2,19.6 "/>
<polygon fill-rule="evenodd" clip-rule="evenodd" points="114,20.9 162.5,15.9 162.5,13.4 114,18.4 "/>
<polygon fill-rule="evenodd" clip-rule="evenodd" points="114,17.2 162.5,12.2 162.5,9.7 114,14.7 "/>
<polygon fill-rule="evenodd" clip-rule="evenodd" points="172.2,35.8 220.7,30.8 220.7,28.3 172.2,33.3 "/>
<polygon fill-rule="evenodd" clip-rule="evenodd" points="172.2,39.5 220.7,34.5 220.7,32 172.2,37 "/>
<polygon fill-rule="evenodd" clip-rule="evenodd" points="237,27.1 285.5,25.8 285.5,23.4 237,24.6 "/>
<polygon fill-rule="evenodd" clip-rule="evenodd" points="237,30.8 285.5,29.6 285.5,27.1 237,28.3 "/>
<polygon fill-rule="evenodd" clip-rule="evenodd" points="301.6,25.8 350.3,30.8 350.3,28.3 301.6,23.4 "/>
<polygon fill-rule="evenodd" clip-rule="evenodd" points="301.6,29.6 350.3,34.5 350.3,32 301.6,27.1 "/>
<polygon fill-rule="evenodd" clip-rule="evenodd" points="372.9,11 421.4,15.9 421.4,13.4 372.9,8.5 "/>
<polygon fill-rule="evenodd" clip-rule="evenodd" points="372.9,7.2 421.4,12.2 421.4,9.7 372.9,4.8 "/>
<polygon fill-rule="evenodd" clip-rule="evenodd" points="437.5,20.9 486.2,25.8 486.2,23.4 437.5,18.4 "/>
<polygon fill-rule="evenodd" clip-rule="evenodd" points="437.5,17.2 486.2,22.1 486.2,19.6 437.5,14.7 "/>
<rect x="8.5" y="76.4" width="544.4" height="0.5"/>
<rect x="8.5" y="71.5" width="544.4" height="0.5"/>
<rect x="8.5" y="66.5" width="544.4" height="0.5"/>
<rect x="8.5" y="61.6" width="544.4" height="0.5"/>
<rect x="8.5" y="56.6" width="544.4" height="0.5"/>
<g>
	<path d="M15.7,71c2.9-2.6,4.7-6.1,4.7-9.2c0-2.5-1.4-4.4-3.7-4.4c-1.6,0-3.4,1.3-3.4,2.7c0,0.2,0,0.3,0.1,0.3
		c-0.1,0,0.6-0.6,1.4-0.6c0.9,0,1.5,0.8,1.5,1.7c0,1.2-0.9,2.2-2.1,2.2c-1.2,0-2.1-1.3-2.1-2.8c0-2.3,2.3-4.1,4.8-4.1
		c4.7,0,5.9,3.2,5.9,5.8c0,1.6-0.4,2.9-2,5.3c-1.9,3.1-6.4,5.3-8.1,5.3c-0.4,0-0.6-0.2-0.6-0.5C13.8,72.3,14.9,71.7,15.7,71z
		 M25.7,58.3c0.6,0,1,0.4,1,1c0,0.6-0.4,1-1,1s-1-0.4-1-1C24.7,58.8,25.1,58.3,25.7,58.3z M25.7,63.3c0.6,0,1,0.4,1,1
		c0,0.6-0.4,1-1,1s-1-0.4-1-1C24.7,63.7,25.1,63.3,25.7,63.3z"/>
</g>
<g>
	<path d="M29.5,63.4h0.6L30,69.7c0.4-0.7,1-1,1.8-1c1.2,0,2.2,0.8,2.2,1.9c0,0.8-0.5,1.8-1.7,2.7l-2.8,2.1V63.4z M30.1,70.3
		C30,71.1,30,71.7,30,72.3c0,1,0,1.6,0.1,2c1-0.7,2.4-2.6,2.4-3.7c0-0.6-0.5-1.1-1.1-1.1C30.8,69.5,30.4,69.8,30.1,70.3z"/>
</g>
<polygon fill-rule="evenodd" clip-rule="evenodd" points="49.2,63 97.7,58.1 97.7,55.6 49.2,60.6 "/>
<polygon fill-rule="evenodd" clip-rule="evenodd" points="49.2,59.3 97.7,54.4 97.7,51.9 49.2,56.8 "/>
<polygon fill-rule="evenodd" clip-rule="evenodd" points="107.5,77.9 156,73 156,70.5 107.5,75.4 "/>
<polygon fill-rule="evenodd" clip-rule="evenodd" points="107.5,81.6 156,76.7 156,74.2 107.5,79.2 "/>
<polygon fill-rule="evenodd" clip-rule="evenodd" points="172.2,68 220.7,63 220.7,60.6 172.2,65.5 "/>
<polygon fill-rule="evenodd" clip-rule="evenodd" points="172.2,71.7 220.7,66.8 220.7,64.3 172.2,69.2 "/>
<polygon fill-rule="evenodd" clip-rule="evenodd" points="237,64.3 285.5,63 285.5,60.6 237,61.8 "/>
<polygon fill-rule="evenodd" clip-rule="evenodd" points="237,68 285.5,66.8 285.5,64.3 237,65.5 "/>
<polygon fill-rule="evenodd" clip-rule="evenodd" points="301.6,63 350.3,68 350.3,65.5 301.6,60.6 "/>
<polygon fill-rule="evenodd" clip-rule="evenodd" points="301.6,66.8 350.3,71.7 350.3,69.2 301.6,64.3 "/>
<polygon fill-rule="evenodd" clip-rule="evenodd" points="366.4,73 414.9,77.9 414.9,75.4 366.4,70.5 "/>
<polygon fill-rule="evenodd" clip-rule="evenodd" points="366.4,76.7 414.9,81.6 414.9,79.2 366.4,74.2 "/>
<polygon fill-rule="evenodd" clip-rule="evenodd" points="437.5,58.1 486.2,63 486.2,60.6 437.5,55.6 "/>
<polygon fill-rule="evenodd" clip-rule="evenodd" points="437.5,54.4 486.2,59.3 486.2,56.8 437.5,51.9 "/>
<rect x="40.7" y="34.1" width="10.5" height="0.8"/>
<rect x="40.7" y="39.1" width="10.5" height="0.8"/>
<rect x="49" y="19.8" width="0.5" height="21.4"/>
<g>
	<path d="M42.6,42.8c0-1.8,2.5-3.5,4.5-3.5c1.3,0,2.3,0.7,2.3,1.7c0,1.7-2.5,3.5-4.6,3.5C43.5,44.5,42.6,43.9,42.6,42.8z"/>
</g>
<rect x="56.8" y="34.1" width="10.5" height="0.8"/>
<rect x="56.8" y="39.1" width="10.5" height="0.8"/>
<rect x="65.1" y="19.5" width="0.5" height="19.2"/>
<g>
	<path d="M58.7,40.3c0-1.8,2.5-3.5,4.5-3.5c1.3,0,2.3,0.7,2.3,1.7c0,1.7-2.5,3.5-4.6,3.5C59.7,42.1,58.7,41.4,58.7,40.3z"/>
</g>
<rect x="73.1" y="34.1" width="10.5" height="0.8"/>
<rect x="81.4" y="19" width="0.5" height="17.2"/>
<g>
	<path d="M75,37.9c0-1.8,2.5-3.5,4.5-3.5c1.3,0,2.3,0.7,2.3,1.7c0,1.7-2.5,3.5-4.6,3.5C75.9,39.6,75,38.9,75,37.9z"/>
</g>
<rect x="89.2" y="34.1" width="10.5" height="0.8"/>
<rect x="97.5" y="18.6" width="0.5" height="15.2"/>
<g>
	<path d="M91.1,35.4c0-1.8,2.5-3.5,4.5-3.5c1.3,0,2.3,0.7,2.3,1.7c0,1.7-2.5,3.5-4.6,3.5C92.1,37.1,91.1,36.5,91.1,35.4z"/>
</g>
<rect x="113.8" y="14.8" width="0.5" height="16.4"/>
<g>
	<path d="M107.4,32.9c0-1.8,2.5-3.5,4.5-3.5c1.3,0,2.3,0.7,2.3,1.7c0,1.7-2.5,3.5-4.6,3.5C108.3,34.6,107.4,34,107.4,32.9z"/>
</g>
<rect x="129.9" y="13.3" width="0.5" height="15.5"/>
<g>
	<path d="M123.5,30.4c0-1.8,2.5-3.5,4.5-3.5c1.3,0,2.3,0.7,2.3,1.7c0,1.7-2.5,3.5-4.6,3.5C124.5,32.1,123.5,31.5,123.5,30.4z"/>
</g>
<rect x="146" y="11.6" width="0.5" height="14.7"/>
<g>
	<path d="M139.6,27.9c0-1.8,2.5-3.5,4.5-3.5c1.3,0,2.3,0.7,2.3,1.7c0,1.7-2.5,3.5-4.6,3.5C140.6,29.7,139.6,29,139.6,27.9z"/>
</g>
<rect x="162.3" y="9.9" width="0.5" height="14"/>
<g>
	<path d="M155.9,25.5c0-1.8,2.5-3.5,4.5-3.5c1.3,0,2.3,0.7,2.3,1.7c0,1.7-2.5,3.5-4.6,3.5C156.9,27.2,155.9,26.5,155.9,25.5z"/>
</g>
<rect x="171.9" y="22.9" width="0.5" height="16.4"/>
<g>
	<path d="M172,23c0-1.8,2.5-3.5,4.5-3.5c1.3,0,2.3,0.7,2.3,1.7c0,1.7-2.5,3.5-4.6,3.5C173,24.7,172,24.1,172,23z"/>
</g>
<rect x="188.2" y="20.4" width="0.5" height="17.4"/>
<g>
	<path d="M188.3,20.5c0-1.8,2.5-3.5,4.5-3.5c1.3,0,2.3,0.7,2.3,1.7c0,1.7-2.5,3.5-4.6,3.5C189.2,22.2,188.3,21.6,188.3,20.5z"/>
</g>
<rect x="204.3" y="17.9" width="0.5" height="18.1"/>
<g>
	<path d="M204.4,18c0-1.8,2.5-3.5,4.5-3.5c1.3,0,2.3,0.7,2.3,1.7c0,1.7-2.5,3.5-4.6,3.5C205.4,19.7,204.4,19.1,204.4,18z"/>
</g>
<rect x="220.4" y="15.5" width="0.5" height="18.9"/>
<g>
	<path d="M220.5,15.5c0-1.8,2.5-3.5,4.5-3.5c1.3,0,2.3,0.7,2.3,1.7c0,1.7-2.5,3.5-4.6,3.5C221.5,17.3,220.5,16.6,220.5,15.5z"/>
</g>
<rect x="236.7" y="13" width="0.5" height="17.7"/>
<g>
	<path d="M236.8,13c0-1.8,2.5-3.5,4.5-3.5c1.3,0,2.3,0.7,2.3,1.7c0,1.7-2.5,3.5-4.6,3.5C237.8,14.8,236.8,14.1,236.8,13z"/>
</g>
<rect x="252.8" y="10.5" width="0.5" height="19.8"/>
<g>
	<path d="M252.9,10.6c0-1.8,2.5-3.5,4.5-3.5c1.3,0,2.3,0.7,2.3,1.7c0,1.7-2.5,3.5-4.6,3.5C253.9,12.3,252.9,11.7,252.9,10.6z"/>
</g>
<rect x="269.1" y="8" width="0.5" height="21.9"/>
<g>
	<path d="M269.2,8.1c0-1.8,2.5-3.5,4.5-3.5c1.3,0,2.3,0.7,2.3,1.7c0,1.7-2.5,3.5-4.6,3.5C270.2,9.8,269.2,9.2,269.2,8.1z"/>
</g>
<rect x="285.2" y="10.5" width="0.5" height="18.9"/>
<g>
	<path d="M285.3,10.6c0-1.8,2.5-3.5,4.5-3.5c1.3,0,2.3,0.7,2.3,1.7c0,1.7-2.5,3.5-4.6,3.5C286.3,12.3,285.3,11.7,285.3,10.6z"/>
</g>
<rect x="301.4" y="13" width="0.5" height="16.4"/>
<g>
	<path d="M301.4,13c0-1.8,2.5-3.5,4.5-3.5c1.3,0,2.3,0.7,2.3,1.7c0,1.7-2.5,3.5-4.6,3.5C302.4,14.8,301.4,14.1,301.4,13z"/>
</g>
<rect x="317.6" y="15.5" width="0.5" height="15.5"/>
<g>
	<path d="M317.7,15.5c0-1.8,2.5-3.5,4.5-3.5c1.3,0,2.3,0.7,2.3,1.7c0,1.7-2.5,3.5-4.6,3.5C318.7,17.3,317.7,16.6,317.7,15.5z"/>
</g>
<rect x="333.8" y="17.9" width="0.5" height="14.7"/>
<g>
	<path d="M333.8,18c0-1.8,2.5-3.5,4.5-3.5c1.3,0,2.3,0.7,2.3,1.7c0,1.7-2.5,3.5-4.6,3.5C334.8,19.7,333.8,19.1,333.8,18z"/>
</g>
<rect x="350" y="20.4" width="0.5" height="14"/>
<g>
	<path d="M350.1,20.5c0-1.8,2.5-3.5,4.5-3.5c1.3,0,2.3,0.7,2.3,1.7c0,1.7-2.5,3.5-4.6,3.5C351.1,22.2,350.1,21.6,350.1,20.5z"/>
</g>
<rect x="372.7" y="4.9" width="0.5" height="16.4"/>
<g>
	<path d="M366.2,23c0-1.8,2.5-3.5,4.5-3.5c1.3,0,2.3,0.7,2.3,1.7c0,1.7-2.5,3.5-4.6,3.5C367.2,24.7,366.2,24.1,366.2,23z"/>
</g>
<rect x="388.8" y="6.5" width="0.5" height="17.4"/>
<g>
	<path d="M382.4,25.5c0-1.8,2.5-3.5,4.5-3.5c1.3,0,2.3,0.7,2.3,1.7c0,1.7-2.5,3.5-4.6,3.5C383.3,27.2,382.4,26.5,382.4,25.5z"/>
</g>
<rect x="405.1" y="8.2" width="0.5" height="18.1"/>
<g>
	<path d="M398.6,27.9c0-1.8,2.5-3.5,4.5-3.5c1.3,0,2.3,0.7,2.3,1.7c0,1.7-2.5,3.5-4.6,3.5C399.6,29.7,398.6,29,398.6,27.9z"/>
</g>
<rect x="421.2" y="9.9" width="0.5" height="18.9"/>
<g>
	<path d="M414.8,30.4c0-1.8,2.5-3.5,4.5-3.5c1.3,0,2.3,0.7,2.3,1.7c0,1.7-2.5,3.5-4.6,3.5C415.7,32.1,414.8,31.5,414.8,30.4z"/>
</g>
<rect x="437.3" y="14.8" width="0.5" height="16.4"/>
<g>
	<path d="M430.9,32.9c0-1.8,2.5-3.5,4.5-3.5c1.3,0,2.3,0.7,2.3,1.7c0,1.7-2.5,3.5-4.6,3.5C431.8,34.6,430.9,34,430.9,32.9z"/>
</g>
<rect x="445.3" y="34.1" width="10.5" height="0.8"/>
<rect x="453.6" y="16.4" width="0.5" height="17.4"/>
<g>
	<path d="M447.2,35.4c0-1.8,2.5-3.5,4.5-3.5c1.3,0,2.3,0.7,2.3,1.7c0,1.7-2.5,3.5-4.6,3.5C448.1,37.1,447.2,36.5,447.2,35.4z"/>
</g>
<rect x="461.4" y="34.1" width="10.5" height="0.8"/>
<rect x="469.7" y="18.1" width="0.5" height="18.1"/>
<g>
	<path d="M463.3,37.9c0-1.8,2.5-3.5,4.5-3.5c1.3,0,2.3,0.7,2.3,1.7c0,1.7-2.5,3.5-4.6,3.5C464.2,39.6,463.3,38.9,463.3,37.9z"/>
</g>
<rect x="477.7" y="34.1" width="10.5" height="0.8"/>
<rect x="477.7" y="39.1" width="10.5" height="0.8"/>
<rect x="486" y="19.8" width="0.5" height="18.9"/>
<g>
	<path d="M479.6,40.3c0-1.8,2.5-3.5,4.5-3.5c1.3,0,2.3,0.7,2.3,1.7c0,1.7-2.5,3.5-4.6,3.5C480.5,42.1,479.6,41.4,479.6,40.3z"/>
</g>
<rect x="493.8" y="34.1" width="10.7" height="0.8"/>
<rect x="493.8" y="39.1" width="10.7" height="0.8"/>
<rect x="502.3" y="19.6" width="0.5" height="21.5"/>
<g>
	<path d="M499.9,39.3c1.6,0,2.7,0.7,2.7,2c0,1.9-2.3,3.4-4.5,3.4c-1.3,0-2.4-0.7-2.4-1.8C495.7,41,497.9,39.3,499.9,39.3z
		 M496.1,43.1c0,0.6,0.4,0.9,1.1,0.9c1.4,0,4.9-2.1,4.9-3.3c0-0.6-0.4-0.9-1.1-0.9C499.8,39.9,496.1,41.9,496.1,43.1z"/>
</g>
<rect x="49" y="57" width="0.5" height="18.9"/>
<g>
	<path d="M42.6,77.5c0-1.8,2.5-3.5,4.5-3.5c1.3,0,2.3,0.7,2.3,1.7c0,1.7-2.5,3.5-4.6,3.5C43.5,79.3,42.6,78.6,42.6,77.5z"/>
</g>
<rect x="65.1" y="55.4" width="0.5" height="18"/>
<g>
	<path d="M58.7,75.1c0-1.8,2.5-3.5,4.5-3.5c1.3,0,2.3,0.7,2.3,1.7c0,1.7-2.5,3.5-4.6,3.5C59.7,76.8,58.7,76.1,58.7,75.1z"/>
</g>
<rect x="81.4" y="53.7" width="0.5" height="17.2"/>
<g>
	<path d="M75,72.6c0-1.8,2.5-3.5,4.5-3.5c1.3,0,2.3,0.7,2.3,1.7c0,1.7-2.5,3.5-4.6,3.5C75.9,74.3,75,73.7,75,72.6z"/>
</g>
<rect x="97.5" y="52" width="0.5" height="16.4"/>
<g>
	<path d="M91.1,70.1c0-1.8,2.5-3.5,4.5-3.5c1.3,0,2.3,0.7,2.3,1.7c0,1.7-2.5,3.5-4.6,3.5C92.1,71.8,91.1,71.2,91.1,70.1z"/>
</g>
<rect x="107.3" y="67.5" width="0.5" height="14"/>
<g>
	<path d="M107.4,67.6c0-1.8,2.5-3.5,4.5-3.5c1.3,0,2.3,0.7,2.3,1.7c0,1.7-2.5,3.5-4.6,3.5C108.3,69.3,107.4,68.7,107.4,67.6z"/>
</g>
<rect x="123.4" y="65.1" width="0.5" height="14.9"/>
<g>
	<path d="M123.5,65.1c0-1.8,2.5-3.5,4.5-3.5c1.3,0,2.3,0.7,2.3,1.7c0,1.7-2.5,3.5-4.6,3.5C124.5,66.9,123.5,66.2,123.5,65.1z"/>
</g>
<rect x="139.5" y="62.6" width="0.5" height="15.7"/>
<g>
	<path d="M139.6,62.7c0-1.8,2.5-3.5,4.5-3.5c1.3,0,2.3,0.7,2.3,1.7c0,1.7-2.5,3.5-4.6,3.5C140.6,64.4,139.6,63.7,139.6,62.7z"/>
</g>
<rect x="155.8" y="60.1" width="0.5" height="16.4"/>
<g>
	<path d="M155.9,60.2c0-1.8,2.5-3.5,4.5-3.5c1.3,0,2.3,0.7,2.3,1.7c0,1.7-2.5,3.5-4.6,3.5C156.9,61.9,155.9,61.3,155.9,60.2z"/>
</g>
<rect x="171.9" y="57.6" width="0.5" height="14"/>
<g>
	<path d="M172,57.7c0-1.8,2.5-3.5,4.5-3.5c1.3,0,2.3,0.7,2.3,1.7c0,1.7-2.5,3.5-4.6,3.5C173,59.4,172,58.8,172,57.7z"/>
</g>
<rect x="188.2" y="55.1" width="0.5" height="14.9"/>
<g>
	<path d="M188.3,55.2c0-1.8,2.5-3.5,4.5-3.5c1.3,0,2.3,0.7,2.3,1.7c0,1.7-2.5,3.5-4.6,3.5C189.2,56.9,188.3,56.3,188.3,55.2z"/>
</g>
<rect x="202.5" y="51.5" width="10.5" height="0.8"/>
<rect x="204.3" y="52.7" width="0.5" height="15.7"/>
<g>
	<path d="M204.4,52.7c0-1.8,2.5-3.5,4.5-3.5c1.3,0,2.3,0.7,2.3,1.7c0,1.7-2.5,3.5-4.6,3.5C205.4,54.5,204.4,53.8,204.4,52.7z"/>
</g>
<rect x="218.7" y="51.5" width="10.5" height="0.8"/>
<rect x="220.4" y="50.2" width="0.5" height="16.4"/>
<g>
	<path d="M220.5,50.3c0-1.8,2.5-3.5,4.5-3.5c1.3,0,2.3,0.7,2.3,1.7c0,1.7-2.5,3.5-4.6,3.5C221.5,52,220.5,51.3,220.5,50.3z"/>
</g>
<rect x="234.9" y="51.5" width="10.5" height="0.8"/>
<rect x="234.9" y="46.5" width="10.5" height="0.8"/>
<rect x="236.7" y="47.7" width="0.5" height="20.2"/>
<g>
	<path d="M236.8,47.8c0-1.8,2.5-3.5,4.5-3.5c1.3,0,2.3,0.7,2.3,1.7c0,1.7-2.5,3.5-4.6,3.5C237.8,49.5,236.8,48.9,236.8,47.8z"/>
</g>
<rect x="251.1" y="51.5" width="10.5" height="0.8"/>
<rect x="251.1" y="46.5" width="10.5" height="0.8"/>
<rect x="252.8" y="45.2" width="0.5" height="22.3"/>
<g>
	<path d="M252.9,45.3c0-1.8,2.5-3.5,4.5-3.5c1.3,0,2.3,0.7,2.3,1.7c0,1.7-2.5,3.5-4.6,3.5C253.9,47,252.9,46.4,252.9,45.3z"/>
</g>
<rect x="267.3" y="51.5" width="10.5" height="0.8"/>
<rect x="267.3" y="46.5" width="10.5" height="0.8"/>
<rect x="267.3" y="41.6" width="10.5" height="0.8"/>
<rect x="269.1" y="42.7" width="0.5" height="24.3"/>
<g>
	<path d="M269.2,42.8c0-1.8,2.5-3.5,4.5-3.5c1.3,0,2.3,0.7,2.3,1.7c0,1.7-2.5,3.5-4.6,3.5C270.2,44.5,269.2,43.9,269.2,42.8z"/>
</g>
<rect x="283.5" y="51.5" width="10.5" height="0.8"/>
<rect x="283.5" y="46.5" width="10.5" height="0.8"/>
<rect x="285.2" y="45.2" width="0.5" height="21.4"/>
<g>
	<path d="M285.3,45.3c0-1.8,2.5-3.5,4.5-3.5c1.3,0,2.3,0.7,2.3,1.7c0,1.7-2.5,3.5-4.6,3.5C286.3,47,285.3,46.4,285.3,45.3z"/>
</g>
<rect x="299.6" y="51.5" width="10.5" height="0.8"/>
<rect x="299.6" y="46.5" width="10.5" height="0.8"/>
<rect x="301.4" y="47.7" width="0.5" height="18.9"/>
<g>
	<path d="M301.4,47.8c0-1.8,2.5-3.5,4.5-3.5c1.3,0,2.3,0.7,2.3,1.7c0,1.7-2.5,3.5-4.6,3.5C302.4,49.5,301.4,48.9,301.4,47.8z"/>
</g>
<rect x="315.9" y="51.5" width="10.5" height="0.8"/>
<rect x="317.6" y="50.2" width="0.5" height="18"/>
<g>
	<path d="M317.7,50.3c0-1.8,2.5-3.5,4.5-3.5c1.3,0,2.3,0.7,2.3,1.7c0,1.7-2.5,3.5-4.6,3.5C318.7,52,317.7,51.3,317.7,50.3z"/>
</g>
<rect x="332" y="51.5" width="10.5" height="0.8"/>
<rect x="333.8" y="52.7" width="0.5" height="17.2"/>
<g>
	<path d="M333.8,52.7c0-1.8,2.5-3.5,4.5-3.5c1.3,0,2.3,0.7,2.3,1.7c0,1.7-2.5,3.5-4.6,3.5C334.8,54.5,333.8,53.8,333.8,52.7z"/>
</g>
<rect x="350" y="55.1" width="0.5" height="16.4"/>
<g>
	<path d="M350.1,55.2c0-1.8,2.5-3.5,4.5-3.5c1.3,0,2.3,0.7,2.3,1.7c0,1.7-2.5,3.5-4.6,3.5C351.1,56.9,350.1,56.3,350.1,55.2z"/>
</g>
<rect x="366.2" y="57.6" width="0.5" height="18.9"/>
<g>
	<path d="M366.2,57.7c0-1.8,2.5-3.5,4.5-3.5c1.3,0,2.3,0.7,2.3,1.7c0,1.7-2.5,3.5-4.6,3.5C367.2,59.4,366.2,58.8,366.2,57.7z"/>
</g>
<rect x="382.3" y="60.1" width="0.5" height="18"/>
<g>
	<path d="M382.4,60.2c0-1.8,2.5-3.5,4.5-3.5c1.3,0,2.3,0.7,2.3,1.7c0,1.7-2.5,3.5-4.6,3.5C383.3,61.9,382.4,61.3,382.4,60.2z"/>
</g>
<rect x="398.6" y="62.6" width="0.5" height="17.2"/>
<g>
	<path d="M398.6,62.7c0-1.8,2.5-3.5,4.5-3.5c1.3,0,2.3,0.7,2.3,1.7c0,1.7-2.5,3.5-4.6,3.5C399.6,64.4,398.6,63.7,398.6,62.7z"/>
</g>
<rect x="414.7" y="65.1" width="0.5" height="16.4"/>
<g>
	<path d="M414.8,65.1c0-1.8,2.5-3.5,4.5-3.5c1.3,0,2.3,0.7,2.3,1.7c0,1.7-2.5,3.5-4.6,3.5C415.7,66.9,414.8,66.2,414.8,65.1z"/>
</g>
<rect x="437.3" y="52" width="0.5" height="14"/>
<g>
	<path d="M430.9,67.6c0-1.8,2.5-3.5,4.5-3.5c1.3,0,2.3,0.7,2.3,1.7c0,1.7-2.5,3.5-4.6,3.5C431.8,69.3,430.9,68.7,430.9,67.6z"/>
</g>
<rect x="453.6" y="53.6" width="0.5" height="14.9"/>
<g>
	<path d="M447.2,70.1c0-1.8,2.5-3.5,4.5-3.5c1.3,0,2.3,0.7,2.3,1.7c0,1.7-2.5,3.5-4.6,3.5C448.1,71.8,447.2,71.2,447.2,70.1z"/>
</g>
<rect x="469.7" y="55.3" width="0.5" height="15.7"/>
<g>
	<path d="M463.3,72.6c0-1.8,2.5-3.5,4.5-3.5c1.3,0,2.3,0.7,2.3,1.7c0,1.7-2.5,3.5-4.6,3.5C464.2,74.3,463.3,73.7,463.3,72.6z"/>
</g>
<rect x="486" y="57" width="0.5" height="16.4"/>
<g>
	<path d="M479.6,75.1c0-1.8,2.5-3.5,4.5-3.5c1.3,0,2.3,0.7,2.3,1.7c0,1.7-2.5,3.5-4.6,3.5C480.5,76.8,479.6,76.1,479.6,75.1z"/>
</g>
<rect x="502.3" y="59.3" width="0.5" height="16.6"/>
<g>
	<path d="M499.9,74c1.6,0,2.7,0.7,2.7,2c0,1.9-2.3,3.4-4.5,3.4c-1.3,0-2.4-0.7-2.4-1.8C495.7,75.8,497.9,74,499.9,74z M496.1,77.8
		c0,0.6,0.4,0.9,1.1,0.9c1.4,0,4.9-2.1,4.9-3.3c0-0.6-0.4-0.9-1.1-0.9C499.8,74.6,496.1,76.6,496.1,77.8z"/>
</g>
</svg>
