<?xml version="1.0" encoding="utf-8"?>
<!-- Generator: Adobe Illustrator 19.0.1, SVG Export Plug-In . SVG Version: 6.00 Build 0)  -->
<!DOCTYPE svg PUBLIC "-//W3C//DTD SVG 1.1//EN" "http://www.w3.org/Graphics/SVG/1.1/DTD/svg11.dtd">
<svg version="1.1" id="Layer_1" xmlns="http://www.w3.org/2000/svg" xmlns:xlink="http://www.w3.org/1999/xlink" x="0px" y="0px"
	 viewBox="0 0 552.9 86.8" enable-background="new 0 0 552.9 86.8" xml:space="preserve">
<rect x="8.4" y="9.9" width="0.8" height="67"/>
<g>
	<path d="M7.4,10.6c-1.9,1.1-3.6,5.8-3.6,9.4c0,2.3,1.4,9.9,1.4,12.3c0,5-1.5,8.6-4.6,11.1c3,2.4,4.6,6.1,4.6,11.1
		c0,2.3-1.4,9.9-1.4,12.3c0,3.8,1.7,8.4,3.6,9.5v0.7c-3.5-2.3-5.8-8.2-5.8-13.1c0-2.1,1.7-9.4,1.7-11.5c0-3.8-1-6.6-2.9-8.2
		C0.1,43.8,0,43.6,0,43.4c0-0.2,0.1-0.4,0.5-0.7c1.9-1.7,2.9-4.2,2.9-7.6c0-2.1-1.7-10-1.7-12.2c0-5.2,2.1-10.4,5.8-13.1V10.6z"/>
</g>
<rect x="547.8" y="9.9" width="0.8" height="67"/>
<rect x="550.4" y="9.9" width="2.5" height="67"/>
<rect x="8.5" y="29.5" width="544.4" height="0.5"/>
<rect x="8.5" y="24.6" width="544.4" height="0.5"/>
<rect x="8.5" y="19.6" width="544.4" height="0.5"/>
<rect x="8.5" y="14.6" width="544.4" height="0.5"/>
<rect x="8.5" y="9.7" width="544.4" height="0.5"/>
<g>
	<path d="M20.3,29.6c-4.2,0-8.1-3.1-8.1-6.9c0-3.2,2.3-6.7,6.8-10.5c-0.3-1.2-0.4-2.4-0.4-3.6c0-3.5,1.2-6.8,3.2-8.5
		c1.8,2.5,2.7,4.9,2.7,7.1c0,2.9-1.3,5.6-4.3,8.1l0.9,4.2c0.5,0,0.8-0.1,0.8-0.1c2.6,0,4.8,2,4.8,4.7c0,1.9-1.4,3.7-3.6,4.8
		c0-0.1,0.9,3.8,0.9,4.3c0,2.5-2.3,4.2-4.9,4.2c-2,0-3.6-1.3-3.6-3.4c0-1.4,1-2.6,2.4-2.6c1.3,0,2.3,1.3,2.3,2.5
		c0,1.4-1.2,2.3-2.7,2.5c0.6,0.3,1.2,0.5,1.9,0.5c2.1,0,4.1-1.6,4.1-3.6c0-0.2,0-0.4-0.1-0.6l-0.8-3.7
		C21.9,29.5,21.2,29.6,20.3,29.6z M18.1,24.4c0,1,0.5,1.9,1.6,2.5c-1.8-0.3-3-1.4-3-3.1c0-2,1.7-3.7,3.8-4.1l-0.8-4
		C16,18.5,14,21.2,14,23.8c0,2.9,2.8,5.3,6,5.3c0.9,0,1.7-0.2,2.4-0.5L21,21.8C19.4,22,18.1,23,18.1,24.4z M22.1,3
		c-1.6,0-2.9,3.7-2.9,7c0,0.7,0,1.3,0.2,1.9c2.7-2.4,4-4.5,4-6.5c0-0.9-0.3-1.7-1-2.4C22.4,3.1,22.3,3,22.1,3z M24.9,24.9
		c0-1.6-1.2-3.3-2.9-3.3c-0.1,0-0.2,0-0.5,0l1.4,6.6C24.2,27.4,24.9,26.2,24.9,24.9z"/>
</g>
<g>
	<path d="M29.5,11.5h0.6L30,17.8c0.4-0.7,1-1,1.8-1c1.2,0,2.2,0.8,2.2,1.9c0,0.8-0.5,1.8-1.7,2.7l-2.8,2.1V11.5z M30.1,18.4
		C30,19.2,30,19.8,30,20.4c0,1,0,1.6,0.1,2c1-0.7,2.4-2.6,2.4-3.7c0-0.6-0.5-1.1-1.1-1.1C30.8,17.6,30.4,17.9,30.1,18.4z"/>
</g>
<g>
	<path d="M35.1,4.1h0.6l-0.1,6.2c0.4-0.7,1-1,1.8-1c1.2,0,2.2,0.8,2.2,1.9c0,0.8-0.5,1.8-1.7,2.7L35.1,16V4.1z M35.7,11
		c-0.1,0.8-0.1,1.4-0.1,1.9c0,1,0,1.6,0.1,2c1-0.7,2.4-2.6,2.4-3.7c0-0.6-0.5-1.1-1.1-1.1C36.4,10.2,36,10.4,35.7,11z"/>
</g>
<g>
	<path d="M40.7,14h0.6l-0.1,6.2c0.4-0.7,1-1,1.8-1c1.2,0,2.2,0.8,2.2,1.9c0,0.8-0.5,1.8-1.7,2.7L40.7,26V14z M41.3,20.9
		c-0.1,0.8-0.1,1.4-0.1,1.9c0,1,0,1.6,0.1,2c1-0.7,2.4-2.6,2.4-3.7c0-0.6-0.5-1.1-1.1-1.1C42,20.1,41.6,20.4,41.3,20.9z"/>
</g>
<g>
	<path d="M46.3,6.6h0.6l-0.1,6.2c0.4-0.7,1-1,1.8-1c1.2,0,2.2,0.8,2.2,1.9c0,0.8-0.5,1.8-1.7,2.7l-2.8,2.1V6.6z M46.9,13.5
		c-0.1,0.8-0.1,1.4-0.1,1.9c0,1,0,1.6,0.1,2c1-0.7,2.4-2.6,2.4-3.7c0-0.6-0.5-1.1-1.1-1.1C47.6,12.6,47.2,12.9,46.9,13.5z"/>
</g>
<polygon fill-rule="evenodd" clip-rule="evenodd" points="66,26 127.7,21.1 127.7,18.6 66,23.6 "/>
<polygon fill-rule="evenodd" clip-rule="evenodd" points="66,22.3 127.7,17.4 127.7,14.9 66,19.8 "/>
<polygon fill-rule="evenodd" clip-rule="evenodd" points="148.3,11.2 210,6.2 210,3.7 148.3,8.7 "/>
<polygon fill-rule="evenodd" clip-rule="evenodd" points="148.3,7.4 210,2.5 210,0 148.3,5 "/>
<polygon fill-rule="evenodd" clip-rule="evenodd" points="229.8,27.3 291.5,26 291.5,23.6 229.8,24.8 "/>
<polygon fill-rule="evenodd" clip-rule="evenodd" points="229.8,31 291.5,29.8 291.5,27.3 229.8,28.5 "/>
<polygon fill-rule="evenodd" clip-rule="evenodd" points="317.9,31 379.6,36 379.6,33.5 317.9,28.5 "/>
<polygon fill-rule="evenodd" clip-rule="evenodd" points="317.9,34.7 379.6,39.7 379.6,37.2 317.9,32.2 "/>
<polygon fill-rule="evenodd" clip-rule="evenodd" points="406.7,16.1 468.4,21.1 468.4,18.6 406.7,13.6 "/>
<polygon fill-rule="evenodd" clip-rule="evenodd" points="406.7,12.4 468.4,17.4 468.4,14.9 406.7,9.9 "/>
<rect x="8.5" y="76.7" width="544.4" height="0.5"/>
<rect x="8.5" y="71.7" width="544.4" height="0.5"/>
<rect x="8.5" y="66.7" width="544.4" height="0.5"/>
<rect x="8.5" y="61.8" width="544.4" height="0.5"/>
<rect x="8.5" y="56.8" width="544.4" height="0.5"/>
<g>
	<path d="M15.7,71.2c2.9-2.6,4.7-6.1,4.7-9.2c0-2.5-1.4-4.4-3.7-4.4c-1.6,0-3.4,1.3-3.4,2.7c0,0.2,0,0.3,0.1,0.3
		c-0.1,0,0.6-0.6,1.4-0.6c0.9,0,1.5,0.8,1.5,1.7c0,1.2-0.9,2.2-2.1,2.2c-1.2,0-2.1-1.3-2.1-2.8c0-2.3,2.3-4.1,4.8-4.1
		c4.7,0,5.9,3.2,5.9,5.8c0,1.6-0.4,2.9-2,5.3c-1.9,3.1-6.4,5.3-8.1,5.3c-0.4,0-0.6-0.2-0.6-0.5C13.8,72.5,14.9,71.9,15.7,71.2z
		 M25.7,58.5c0.6,0,1,0.4,1,1c0,0.6-0.4,1-1,1s-1-0.4-1-1C24.7,59,25.1,58.5,25.7,58.5z M25.7,63.5c0.6,0,1,0.4,1,1c0,0.6-0.4,1-1,1
		s-1-0.4-1-1C24.7,63.9,25.1,63.5,25.7,63.5z"/>
</g>
<g>
	<path d="M29.5,63.6h0.6L30,69.9c0.4-0.7,1-1,1.8-1c1.2,0,2.2,0.8,2.2,1.9c0,0.8-0.5,1.8-1.7,2.7l-2.8,2.1V63.6z M30.1,70.5
		C30,71.3,30,71.9,30,72.5c0,1,0,1.6,0.1,2c1-0.7,2.4-2.6,2.4-3.7c0-0.6-0.5-1.1-1.1-1.1C30.8,69.7,30.4,70,30.1,70.5z"/>
</g>
<g>
	<path d="M35.1,56.2h0.6l-0.1,6.2c0.4-0.7,1-1,1.8-1c1.2,0,2.2,0.8,2.2,1.9c0,0.8-0.5,1.8-1.7,2.7l-2.8,2.1V56.2z M35.7,63.1
		c-0.1,0.8-0.1,1.4-0.1,1.9c0,1,0,1.6,0.1,2c1-0.7,2.4-2.6,2.4-3.7c0-0.6-0.5-1.1-1.1-1.1C36.4,62.2,36,62.5,35.7,63.1z"/>
</g>
<g>
	<path d="M40.7,66.1h0.6l-0.1,6.2c0.4-0.7,1-1,1.8-1c1.2,0,2.2,0.8,2.2,1.9c0,0.8-0.5,1.8-1.7,2.7L40.7,78V66.1z M41.3,73
		c-0.1,0.8-0.1,1.4-0.1,1.9c0,1,0,1.6,0.1,2c1-0.7,2.4-2.6,2.4-3.7c0-0.6-0.5-1.1-1.1-1.1C42,72.2,41.6,72.4,41.3,73z"/>
</g>
<g>
	<path d="M46.3,58.7h0.6l-0.1,6.2c0.4-0.7,1-1,1.8-1c1.2,0,2.2,0.8,2.2,1.9c0,0.8-0.5,1.8-1.7,2.7l-2.8,2.1V58.7z M46.9,65.6
		c-0.1,0.8-0.1,1.4-0.1,1.9c0,1,0,1.6,0.1,2c1-0.7,2.4-2.6,2.4-3.7c0-0.6-0.5-1.1-1.1-1.1C47.6,64.7,47.2,65,46.9,65.6z"/>
</g>
<polygon fill-rule="evenodd" clip-rule="evenodd" points="66,62 127.7,57 127.7,54.6 66,59.5 "/>
<polygon fill-rule="evenodd" clip-rule="evenodd" points="66,58.3 127.7,53.3 127.7,50.8 66,55.8 "/>
<g>
	<path d="M223.7,75.5c-3.2,0-6.1-2.3-6.1-5.1c0-2.4,1.7-5,5.1-7.9c-0.2-0.9-0.3-1.8-0.3-2.7c0-2.6,0.9-5.1,2.4-6.3
		c1.4,1.9,2,3.7,2,5.3c0,2.2-1,4.2-3.2,6.1l0.7,3.1c0.4,0,0.6,0,0.6,0c2,0,3.6,1.5,3.6,3.5c0,1.4-1.1,2.8-2.7,3.6
		c0-0.1,0.6,2.8,0.6,3.3c0,1.9-1.7,3.2-3.7,3.2c-1.5,0-2.7-1-2.7-2.5c0-1.1,0.7-1.9,1.8-1.9c1,0,1.7,1,1.7,1.9c0,1-0.9,1.7-2,1.8
		c0.4,0.2,0.9,0.3,1.4,0.3c1.6,0,3.1-1.2,3.1-2.7c0-0.1,0-0.3,0-0.5l-0.6-2.8C224.9,75.4,224.4,75.5,223.7,75.5z M222,71.6
		c0,0.8,0.4,1.4,1.2,1.9c-1.3-0.2-2.2-1.1-2.2-2.3c0-1.5,1.3-2.8,2.9-3.1l-0.6-3c-2.8,2.1-4.3,4.1-4.3,6.1c0,2.2,2.1,4,4.5,4
		c0.7,0,1.3-0.1,1.8-0.4l-1.1-5.1C223,69.8,222,70.6,222,71.6z M225,55.6c-1.2,0-2.2,2.8-2.2,5.3c0,0.5,0,1,0.1,1.4
		c2-1.8,3-3.4,3-4.9c0-0.7-0.3-1.3-0.7-1.8C225.2,55.6,225.1,55.6,225,55.6z M227.1,72c0-1.2-0.9-2.4-2.2-2.4c0,0-0.2,0-0.4,0l1.1,5
		C226.6,73.9,227.1,73,227.1,72z"/>
</g>
<polygon fill-rule="evenodd" clip-rule="evenodd" points="141.8,73.2 203.5,68.2 203.5,65.7 141.8,70.7 "/>
<polygon fill-rule="evenodd" clip-rule="evenodd" points="141.8,76.9 203.5,71.9 203.5,69.4 141.8,74.4 "/>
<g>
	<path d="M306.4,68.9c2.2-2,3.6-4.6,3.6-6.9c0-1.9-1.1-3.3-2.8-3.3c-1.2,0-2.5,1-2.5,2.1c0,0.2,0,0.2,0.1,0.2c0,0,0.4-0.5,1-0.5
		c0.7,0,1.2,0.6,1.2,1.3c0,0.9-0.6,1.7-1.6,1.7s-1.5-1-1.5-2.1c0-1.8,1.7-3.1,3.6-3.1c3.5,0,4.4,2.4,4.4,4.4c0,1.2-0.3,2.2-1.5,4
		c-1.4,2.3-4.8,4-6,4c-0.3,0-0.5-0.1-0.5-0.3C305,69.9,305.8,69.4,306.4,68.9z M313.9,59.4c0.4,0,0.7,0.3,0.7,0.7
		c0,0.4-0.3,0.7-0.7,0.7c-0.4,0-0.7-0.3-0.7-0.7C313.1,59.7,313.5,59.4,313.9,59.4z M313.9,63.1c0.4,0,0.7,0.3,0.7,0.7
		s-0.3,0.7-0.7,0.7c-0.4,0-0.7-0.3-0.7-0.7S313.5,63.1,313.9,63.1z"/>
</g>
<rect x="236.3" y="55.8" fill-rule="evenodd" clip-rule="evenodd" width="61.7" height="2.5"/>
<rect x="236.3" y="52.1" fill-rule="evenodd" clip-rule="evenodd" width="61.7" height="2.5"/>
<polygon fill-rule="evenodd" clip-rule="evenodd" points="317.9,63.2 379.6,68.2 379.6,65.7 317.9,60.8 "/>
<polygon fill-rule="evenodd" clip-rule="evenodd" points="317.9,67 379.6,71.9 379.6,69.4 317.9,64.5 "/>
<polygon fill-rule="evenodd" clip-rule="evenodd" points="400.2,78.1 461.9,83.1 461.9,80.6 400.2,75.6 "/>
<polygon fill-rule="evenodd" clip-rule="evenodd" points="400.2,81.8 461.9,86.8 461.9,84.3 400.2,79.4 "/>
<rect x="57.4" y="34.3" width="10.5" height="0.8"/>
<rect x="57.4" y="39.3" width="10.5" height="0.8"/>
<rect x="65.7" y="20" width="0.5" height="18.9"/>
<g>
	<path d="M59.3,40.5c0-1.8,2.5-3.5,4.5-3.5c1.3,0,2.3,0.7,2.3,1.7c0,1.7-2.5,3.5-4.6,3.5C60.3,42.3,59.3,41.6,59.3,40.5z"/>
</g>
<rect x="78.1" y="34.3" width="10.5" height="0.8"/>
<rect x="86.4" y="18.4" width="0.5" height="18"/>
<g>
	<path d="M79.9,38.1c0-1.8,2.5-3.5,4.5-3.5c1.3,0,2.3,0.7,2.3,1.7c0,1.7-2.5,3.5-4.6,3.5C80.9,39.8,79.9,39.1,79.9,38.1z"/>
</g>
<rect x="98.5" y="34.3" width="10.5" height="0.8"/>
<rect x="106.8" y="16.7" width="0.5" height="17.2"/>
<g>
	<path d="M100.4,35.6c0-1.8,2.5-3.5,4.5-3.5c1.3,0,2.3,0.7,2.3,1.7c0,1.7-2.5,3.5-4.6,3.5C101.4,37.3,100.4,36.7,100.4,35.6z"/>
</g>
<rect x="127.4" y="15" width="0.5" height="14"/>
<g>
	<path d="M121,30.6c0-1.8,2.5-3.5,4.5-3.5c1.3,0,2.3,0.7,2.3,1.7c0,1.7-2.5,3.5-4.6,3.5C122,32.3,121,31.7,121,30.6z"/>
</g>
<rect x="148.1" y="5.1" width="0.5" height="21.4"/>
<g>
	<path d="M141.6,28.1c0-1.8,2.5-3.5,4.5-3.5c1.3,0,2.3,0.7,2.3,1.7c0,1.7-2.5,3.5-4.6,3.5C142.6,29.9,141.6,29.2,141.6,28.1z"/>
</g>
<rect x="168.5" y="3.6" width="0.5" height="18"/>
<g>
	<path d="M162.1,23.2c0-1.8,2.5-3.5,4.5-3.5c1.3,0,2.3,0.7,2.3,1.7c0,1.7-2.5,3.5-4.6,3.5C163.1,24.9,162.1,24.3,162.1,23.2z"/>
</g>
<rect x="189.1" y="1.9" width="0.5" height="17.2"/>
<g>
	<path d="M182.7,20.7c0-1.8,2.5-3.5,4.5-3.5c1.3,0,2.3,0.7,2.3,1.7c0,1.7-2.5,3.5-4.6,3.5C183.7,22.4,182.7,21.8,182.7,20.7z"/>
</g>
<rect x="209.7" y="0.2" width="0.5" height="16.4"/>
<g>
	<path d="M203.3,18.2c0-1.8,2.5-3.5,4.5-3.5c1.3,0,2.3,0.7,2.3,1.7c0,1.7-2.5,3.5-4.6,3.5C204.3,19.9,203.3,19.3,203.3,18.2z"/>
</g>
<rect x="229.6" y="13.2" width="0.5" height="17.7"/>
<g>
	<path d="M229.7,13.3c0-1.8,2.5-3.5,4.5-3.5c1.3,0,2.3,0.7,2.3,1.7c0,1.7-2.5,3.5-4.6,3.5C230.6,15,229.7,14.3,229.7,13.3z"/>
</g>
<rect x="250.2" y="10.7" width="0.5" height="19.8"/>
<g>
	<path d="M250.3,10.8c0-1.8,2.5-3.5,4.5-3.5c1.3,0,2.3,0.7,2.3,1.7c0,1.7-2.5,3.5-4.6,3.5C251.3,12.5,250.3,11.9,250.3,10.8z"/>
</g>
<rect x="268.9" y="4.6" width="10.5" height="0.8"/>
<rect x="270.7" y="5.7" width="0.5" height="24.3"/>
<g>
	<path d="M270.7,5.8c0-1.8,2.5-3.5,4.5-3.5c1.3,0,2.3,0.7,2.3,1.7c0,1.7-2.5,3.5-4.6,3.5C271.7,7.5,270.7,6.9,270.7,5.8z"/>
</g>
<rect x="291.3" y="10.7" width="0.5" height="18.9"/>
<g>
	<path d="M291.4,10.8c0-1.8,2.5-3.5,4.5-3.5c1.3,0,2.3,0.7,2.3,1.7c0,1.7-2.5,3.5-4.6,3.5C292.3,12.5,291.4,11.9,291.4,10.8z"/>
</g>
<rect x="317.6" y="13.2" width="0.5" height="21.4"/>
<g>
	<path d="M317.7,13.3c0-1.8,2.5-3.5,4.5-3.5c1.3,0,2.3,0.7,2.3,1.7c0,1.7-2.5,3.5-4.6,3.5C318.7,15,317.7,14.3,317.7,13.3z"/>
</g>
<rect x="338.3" y="18.1" width="0.5" height="18"/>
<g>
	<path d="M338.3,18.2c0-1.8,2.5-3.5,4.5-3.5c1.3,0,2.3,0.7,2.3,1.7c0,1.7-2.5,3.5-4.6,3.5C339.3,19.9,338.3,19.3,338.3,18.2z"/>
</g>
<rect x="358.7" y="20.6" width="0.5" height="17.2"/>
<g>
	<path d="M358.8,20.7c0-1.8,2.5-3.5,4.5-3.5c1.3,0,2.3,0.7,2.3,1.7c0,1.7-2.5,3.5-4.6,3.5C359.8,22.4,358.8,21.8,358.8,20.7z"/>
</g>
<rect x="379.3" y="23.1" width="0.5" height="16.4"/>
<g>
	<path d="M379.4,23.2c0-1.8,2.5-3.5,4.5-3.5c1.3,0,2.3,0.7,2.3,1.7c0,1.7-2.5,3.5-4.6,3.5C380.4,24.9,379.4,24.3,379.4,23.2z"/>
</g>
<rect x="406.5" y="10.1" width="0.5" height="16.4"/>
<g>
	<path d="M400,28.1c0-1.8,2.5-3.5,4.5-3.5c1.3,0,2.3,0.7,2.3,1.7c0,1.7-2.5,3.5-4.6,3.5C401,29.9,400,29.2,400,28.1z"/>
</g>
<rect x="426.9" y="11.6" width="0.5" height="17.4"/>
<g>
	<path d="M420.5,30.6c0-1.8,2.5-3.5,4.5-3.5c1.3,0,2.3,0.7,2.3,1.7c0,1.7-2.5,3.5-4.6,3.5C421.5,32.3,420.5,31.7,420.5,30.6z"/>
</g>
<rect x="439.2" y="34.3" width="10.5" height="0.8"/>
<rect x="447.5" y="13.3" width="0.5" height="20.6"/>
<g>
	<path d="M441.1,35.6c0-1.8,2.5-3.5,4.5-3.5c1.3,0,2.3,0.7,2.3,1.7c0,1.7-2.5,3.5-4.6,3.5C442.1,37.3,441.1,36.7,441.1,35.6z"/>
</g>
<rect x="459.9" y="34.3" width="10.5" height="0.8"/>
<rect x="468.2" y="15" width="0.5" height="21.4"/>
<g>
	<path d="M461.7,38.1c0-1.8,2.5-3.5,4.5-3.5c1.3,0,2.3,0.7,2.3,1.7c0,1.7-2.5,3.5-4.6,3.5C462.7,39.8,461.7,39.1,461.7,38.1z"/>
</g>
<rect x="480.3" y="34.3" width="10.7" height="0.8"/>
<rect x="480.3" y="39.3" width="10.7" height="0.8"/>
<rect x="488.8" y="19.8" width="0.5" height="19.1"/>
<g>
	<path d="M486.5,37c1.6,0,2.7,0.7,2.7,2c0,1.9-2.3,3.4-4.5,3.4c-1.3,0-2.4-0.7-2.4-1.8C482.2,38.8,484.4,37,486.5,37z M482.6,40.8
		c0,0.6,0.4,0.9,1.1,0.9c1.4,0,4.9-2.1,4.9-3.3c0-0.6-0.4-0.9-1.1-0.9C486.3,37.6,482.6,39.6,482.6,40.8z"/>
</g>
<rect x="65.7" y="56" width="0.5" height="17.7"/>
<g>
	<path d="M59.3,75.3c0-1.8,2.5-3.5,4.5-3.5c1.3,0,2.3,0.7,2.3,1.7c0,1.7-2.5,3.5-4.6,3.5C60.3,77,59.3,76.3,59.3,75.3z"/>
</g>
<rect x="86.4" y="54.4" width="0.5" height="16.7"/>
<g>
	<path d="M79.9,72.8c0-1.8,2.5-3.5,4.5-3.5c1.3,0,2.3,0.7,2.3,1.7c0,1.7-2.5,3.5-4.6,3.5C80.9,74.5,79.9,73.9,79.9,72.8z"/>
</g>
<rect x="106.8" y="52.7" width="0.5" height="16"/>
<g>
	<path d="M100.4,70.3c0-1.8,2.5-3.5,4.5-3.5c1.3,0,2.3,0.7,2.3,1.7c0,1.7-2.5,3.5-4.6,3.5C101.4,72,100.4,71.4,100.4,70.3z"/>
</g>
<rect x="127.4" y="51" width="0.5" height="12.7"/>
<g>
	<path d="M121,65.3c0-1.8,2.5-3.5,4.5-3.5c1.3,0,2.3,0.7,2.3,1.7c0,1.7-2.5,3.5-4.6,3.5C122,67.1,121,66.4,121,65.3z"/>
</g>
<rect x="141.5" y="62.8" width="0.5" height="14"/>
<g>
	<path d="M141.6,62.9c0-1.8,2.5-3.5,4.5-3.5c1.3,0,2.3,0.7,2.3,1.7c0,1.7-2.5,3.5-4.6,3.5C142.6,64.6,141.6,63.9,141.6,62.9z"/>
</g>
<rect x="162" y="57.8" width="0.5" height="17.4"/>
<g>
	<path d="M162.1,57.9c0-1.8,2.5-3.5,4.5-3.5c1.3,0,2.3,0.7,2.3,1.7c0,1.7-2.5,3.5-4.6,3.5C163.1,59.6,162.1,59,162.1,57.9z"/>
</g>
<rect x="182.6" y="55.3" width="0.5" height="18.1"/>
<g>
	<path d="M182.7,55.4c0-1.8,2.5-3.5,4.5-3.5c1.3,0,2.3,0.7,2.3,1.7c0,1.7-2.5,3.5-4.6,3.5C183.7,57.1,182.7,56.5,182.7,55.4z"/>
</g>
<rect x="201.5" y="51.7" width="10.5" height="0.8"/>
<rect x="203.2" y="52.9" width="0.5" height="18.9"/>
<g>
	<path d="M203.3,52.9c0-1.8,2.5-3.5,4.5-3.5c1.3,0,2.3,0.7,2.3,1.7c0,1.7-2.5,3.5-4.6,3.5C204.3,54.7,203.3,54,203.3,52.9z"/>
</g>
<rect x="236.1" y="52.2" width="0.5" height="23.9"/>
<g>
	<path d="M229.7,77.7c0-1.8,2.5-3.5,4.5-3.5c1.3,0,2.3,0.7,2.3,1.7c0,1.7-2.5,3.5-4.6,3.5C230.6,79.5,229.7,78.8,229.7,77.7z"/>
</g>
<rect x="256.7" y="52.2" width="0.5" height="21.4"/>
<g>
	<path d="M250.3,75.3c0-1.8,2.5-3.5,4.5-3.5c1.3,0,2.3,0.7,2.3,1.7c0,1.7-2.5,3.5-4.6,3.5C251.3,77,250.3,76.3,250.3,75.3z"/>
</g>
<rect x="277.2" y="52.2" width="0.5" height="16.4"/>
<g>
	<path d="M270.7,70.3c0-1.8,2.5-3.5,4.5-3.5c1.3,0,2.3,0.7,2.3,1.7c0,1.7-2.5,3.5-4.6,3.5C271.7,72,270.7,71.4,270.7,70.3z"/>
</g>
<rect x="297.8" y="52.2" width="0.5" height="21.4"/>
<g>
	<path d="M291.4,75.3c0-1.8,2.5-3.5,4.5-3.5c1.3,0,2.3,0.7,2.3,1.7c0,1.7-2.5,3.5-4.6,3.5C292.3,77,291.4,76.3,291.4,75.3z"/>
</g>
<rect x="315.9" y="51.7" width="10.5" height="0.8"/>
<rect x="315.9" y="46.7" width="10.5" height="0.8"/>
<rect x="317.6" y="47.9" width="0.5" height="18.9"/>
<g>
	<path d="M317.7,48c0-1.8,2.5-3.5,4.5-3.5c1.3,0,2.3,0.7,2.3,1.7c0,1.7-2.5,3.5-4.6,3.5C318.7,49.7,317.7,49.1,317.7,48z"/>
</g>
<rect x="336.5" y="51.7" width="10.5" height="0.8"/>
<rect x="338.3" y="52.9" width="0.5" height="15.5"/>
<g>
	<path d="M338.3,52.9c0-1.8,2.5-3.5,4.5-3.5c1.3,0,2.3,0.7,2.3,1.7c0,1.7-2.5,3.5-4.6,3.5C339.3,54.7,338.3,54,338.3,52.9z"/>
</g>
<rect x="358.7" y="55.3" width="0.5" height="14.7"/>
<g>
	<path d="M358.8,55.4c0-1.8,2.5-3.5,4.5-3.5c1.3,0,2.3,0.7,2.3,1.7c0,1.7-2.5,3.5-4.6,3.5C359.8,57.1,358.8,56.5,358.8,55.4z"/>
</g>
<rect x="379.3" y="57.8" width="0.5" height="14"/>
<g>
	<path d="M379.4,57.9c0-1.8,2.5-3.5,4.5-3.5c1.3,0,2.3,0.7,2.3,1.7c0,1.7-2.5,3.5-4.6,3.5C380.4,59.6,379.4,59,379.4,57.9z"/>
</g>
<rect x="400" y="62.8" width="0.5" height="18.9"/>
<g>
	<path d="M400,62.9c0-1.8,2.5-3.5,4.5-3.5c1.3,0,2.3,0.7,2.3,1.7c0,1.7-2.5,3.5-4.6,3.5C401,64.6,400,63.9,400,62.9z"/>
</g>
<rect x="420.4" y="65.3" width="0.5" height="18"/>
<g>
	<path d="M420.5,65.3c0-1.8,2.5-3.5,4.5-3.5c1.3,0,2.3,0.7,2.3,1.7c0,1.7-2.5,3.5-4.6,3.5C421.5,67.1,420.5,66.4,420.5,65.3z"/>
</g>
<rect x="441" y="70.2" width="0.5" height="14.7"/>
<g>
	<path d="M441.1,70.3c0-1.8,2.5-3.5,4.5-3.5c1.3,0,2.3,0.7,2.3,1.7c0,1.7-2.5,3.5-4.6,3.5C442.1,72,441.1,71.4,441.1,70.3z"/>
</g>
<rect x="461.6" y="72.7" width="0.5" height="14"/>
<g>
	<path d="M461.7,72.8c0-1.8,2.5-3.5,4.5-3.5c1.3,0,2.3,0.7,2.3,1.7c0,1.7-2.5,3.5-4.6,3.5C462.7,74.5,461.7,73.9,461.7,72.8z"/>
</g>
<rect x="488.8" y="57" width="0.5" height="16.6"/>
<g>
	<path d="M486.5,71.7c1.6,0,2.7,0.7,2.7,2c0,1.9-2.3,3.4-4.5,3.4c-1.3,0-2.4-0.7-2.4-1.8C482.2,73.5,484.4,71.7,486.5,71.7z
		 M482.6,75.6c0,0.6,0.4,0.9,1.1,0.9c1.4,0,4.9-2.1,4.9-3.3c0-0.6-0.4-0.9-1.1-0.9C486.3,72.3,482.6,74.3,482.6,75.6z"/>
</g>
</svg>
