<?xml version="1.0" encoding="utf-8"?>
<!-- Generator: Adobe Illustrator 19.0.1, SVG Export Plug-In . SVG Version: 6.00 Build 0)  -->
<!DOCTYPE svg PUBLIC "-//W3C//DTD SVG 1.1//EN" "http://www.w3.org/Graphics/SVG/1.1/DTD/svg11.dtd">
<svg version="1.1" id="Layer_1" xmlns="http://www.w3.org/2000/svg" xmlns:xlink="http://www.w3.org/1999/xlink" x="0px" y="0px"
	 viewBox="0 0 552.9 87" enable-background="new 0 0 552.9 87" xml:space="preserve">
<rect x="8.4" y="10" width="0.8" height="67"/>
<g>
	<path d="M7.4,10.7c-1.9,1.1-3.6,5.8-3.6,9.4c0,2.3,1.4,9.9,1.4,12.3c0,5-1.5,8.6-4.6,11.1c3,2.4,4.6,6.1,4.6,11.1
		c0,2.3-1.4,9.9-1.4,12.3c0,3.8,1.7,8.4,3.6,9.5V77c-3.5-2.3-5.8-8.2-5.8-13.1c0-2.1,1.7-9.4,1.7-11.5c0-3.8-1-6.6-2.9-8.2
		C0.1,43.9,0,43.7,0,43.5c0-0.2,0.1-0.4,0.5-0.7c1.9-1.7,2.9-4.2,2.9-7.6c0-2.1-1.7-10-1.7-12.2c0-5.2,2.1-10.4,5.8-13.1V10.7z"/>
</g>
<rect x="547.8" y="10" width="0.8" height="67"/>
<rect x="550.4" y="10" width="2.5" height="67"/>
<rect x="8.5" y="29.6" width="544.4" height="0.5"/>
<rect x="8.5" y="24.7" width="544.4" height="0.5"/>
<rect x="8.5" y="19.7" width="544.4" height="0.5"/>
<rect x="8.5" y="14.8" width="544.4" height="0.5"/>
<rect x="8.5" y="9.8" width="544.4" height="0.5"/>
<g>
	<path d="M20.3,29.7c-4.2,0-8.1-3.1-8.1-6.9c0-3.2,2.3-6.7,6.8-10.5c-0.3-1.2-0.4-2.4-0.4-3.6c0-3.5,1.2-6.8,3.2-8.5
		c1.8,2.5,2.7,4.9,2.7,7.1c0,2.9-1.3,5.6-4.3,8.1l0.9,4.2c0.5,0,0.8-0.1,0.8-0.1c2.6,0,4.8,2,4.8,4.7c0,1.9-1.4,3.7-3.6,4.8
		c0-0.1,0.9,3.8,0.9,4.3c0,2.5-2.3,4.2-4.9,4.2c-2,0-3.6-1.3-3.6-3.4c0-1.4,1-2.6,2.4-2.6c1.3,0,2.3,1.3,2.3,2.5
		c0,1.4-1.2,2.3-2.7,2.5c0.6,0.3,1.2,0.5,1.9,0.5c2.1,0,4.1-1.6,4.1-3.6c0-0.2,0-0.4-0.1-0.6l-0.8-3.7
		C21.9,29.6,21.2,29.7,20.3,29.7z M18.1,24.5c0,1,0.5,1.9,1.6,2.5c-1.8-0.3-3-1.4-3-3.1c0-2,1.7-3.7,3.8-4.1l-0.8-4
		C16,18.6,14,21.3,14,23.9c0,2.9,2.8,5.3,6,5.3c0.9,0,1.7-0.2,2.4-0.5L21,21.9C19.4,22.1,18.1,23.1,18.1,24.5z M22.1,3.2
		c-1.6,0-2.9,3.7-2.9,7c0,0.7,0,1.3,0.2,1.9c2.7-2.4,4-4.5,4-6.5c0-0.9-0.3-1.7-1-2.4C22.4,3.2,22.3,3.2,22.1,3.2z M24.9,25
		c0-1.6-1.2-3.3-2.9-3.3c-0.1,0-0.2,0-0.5,0l1.4,6.6C24.2,27.5,24.9,26.3,24.9,25z"/>
</g>
<g>
	<path d="M29.5,11.6h0.6L30,17.9c0.4-0.7,1-1,1.8-1c1.2,0,2.2,0.8,2.2,1.9c0,0.8-0.5,1.8-1.7,2.7l-2.8,2.1V11.6z M30.1,18.6
		C30,19.3,30,20,30,20.5c0,1,0,1.6,0.1,2c1-0.7,2.4-2.6,2.4-3.7c0-0.6-0.5-1.1-1.1-1.1C30.8,17.7,30.4,18,30.1,18.6z"/>
</g>
<g>
	<path d="M35.1,4.2h0.6l-0.1,6.2c0.4-0.7,1-1,1.8-1c1.2,0,2.2,0.8,2.2,1.9c0,0.8-0.5,1.8-1.7,2.7l-2.8,2.1V4.2z M35.7,11.1
		c-0.1,0.8-0.1,1.4-0.1,1.9c0,1,0,1.6,0.1,2c1-0.7,2.4-2.6,2.4-3.7c0-0.6-0.5-1.1-1.1-1.1C36.4,10.3,36,10.6,35.7,11.1z"/>
</g>
<polygon fill-rule="evenodd" clip-rule="evenodd" points="54.8,21.2 118.1,16.2 118.1,13.8 54.8,18.7 "/>
<polygon fill-rule="evenodd" clip-rule="evenodd" points="54.8,17.5 118.1,12.5 118.1,10 54.8,15 "/>
<polygon fill-rule="evenodd" clip-rule="evenodd" points="132.6,36.1 196,31.1 196,28.6 132.6,33.6 "/>
<polygon fill-rule="evenodd" clip-rule="evenodd" points="132.6,39.8 196,34.8 196,32.4 132.6,37.3 "/>
<polygon fill-rule="evenodd" clip-rule="evenodd" points="222.4,22.4 285.6,21.2 285.6,18.7 222.4,20 "/>
<polygon fill-rule="evenodd" clip-rule="evenodd" points="222.4,26.2 285.6,24.9 285.6,22.4 222.4,23.7 "/>
<polygon fill-rule="evenodd" clip-rule="evenodd" points="306.7,26.2 370,31.1 370,28.6 306.7,23.7 "/>
<polygon fill-rule="evenodd" clip-rule="evenodd" points="306.7,29.9 370,34.8 370,32.4 306.7,27.4 "/>
<polygon fill-rule="evenodd" clip-rule="evenodd" points="402.8,16.2 466.2,21.2 466.2,18.7 402.8,13.8 "/>
<polygon fill-rule="evenodd" clip-rule="evenodd" points="402.8,12.5 466.2,17.5 466.2,15 402.8,10 "/>
<rect x="8.5" y="76.8" width="544.4" height="0.5"/>
<rect x="8.5" y="71.8" width="544.4" height="0.5"/>
<rect x="8.5" y="66.8" width="544.4" height="0.5"/>
<rect x="8.5" y="61.9" width="544.4" height="0.5"/>
<rect x="8.5" y="56.9" width="544.4" height="0.5"/>
<g>
	<path d="M15.7,71.3c2.9-2.6,4.7-6.1,4.7-9.2c0-2.5-1.4-4.4-3.7-4.4c-1.6,0-3.4,1.3-3.4,2.7c0,0.2,0,0.3,0.1,0.3
		c-0.1,0,0.6-0.6,1.4-0.6c0.9,0,1.5,0.8,1.5,1.7c0,1.2-0.9,2.2-2.1,2.2c-1.2,0-2.1-1.3-2.1-2.8c0-2.3,2.3-4.1,4.8-4.1
		c4.7,0,5.9,3.2,5.9,5.8c0,1.6-0.4,2.9-2,5.3c-1.9,3.1-6.4,5.3-8.1,5.3c-0.4,0-0.6-0.2-0.6-0.5C13.8,72.6,14.9,72,15.7,71.3z
		 M25.7,58.7c0.6,0,1,0.4,1,1c0,0.6-0.4,1-1,1s-1-0.4-1-1C24.7,59.1,25.1,58.7,25.7,58.7z M25.7,63.6c0.6,0,1,0.4,1,1
		c0,0.6-0.4,1-1,1s-1-0.4-1-1C24.7,64,25.1,63.6,25.7,63.6z"/>
</g>
<g>
	<path d="M29.5,63.7h0.6L30,70c0.4-0.7,1-1,1.8-1c1.2,0,2.2,0.8,2.2,1.9c0,0.8-0.5,1.8-1.7,2.7l-2.8,2.1V63.7z M30.1,70.6
		C30,71.4,30,72,30,72.6c0,1,0,1.6,0.1,2c1-0.7,2.4-2.6,2.4-3.7c0-0.6-0.5-1.1-1.1-1.1C30.8,69.8,30.4,70.1,30.1,70.6z"/>
</g>
<g>
	<path d="M35.1,56.3h0.6l-0.1,6.2c0.4-0.7,1-1,1.8-1c1.2,0,2.2,0.8,2.2,1.9c0,0.8-0.5,1.8-1.7,2.7l-2.8,2.1V56.3z M35.7,63.2
		c-0.1,0.8-0.1,1.4-0.1,1.9c0,1,0,1.6,0.1,2c1-0.7,2.4-2.6,2.4-3.7c0-0.6-0.5-1.1-1.1-1.1C36.4,62.4,36,62.6,35.7,63.2z"/>
</g>
<polygon fill-rule="evenodd" clip-rule="evenodd" points="54.8,58.4 118.1,53.4 118.1,51 54.8,55.9 "/>
<polygon fill-rule="evenodd" clip-rule="evenodd" points="54.8,54.7 118.1,49.7 118.1,47.2 54.8,52.2 "/>
<g>
	<path d="M216.2,75.6c-3.2,0-6.1-2.3-6.1-5.1c0-2.4,1.7-5,5.1-7.9c-0.2-0.9-0.3-1.8-0.3-2.7c0-2.6,0.9-5.1,2.4-6.3
		c1.4,1.9,2,3.7,2,5.3c0,2.2-1,4.2-3.2,6.1l0.7,3.1c0.4,0,0.6,0,0.6,0c2,0,3.6,1.5,3.6,3.5c0,1.4-1.1,2.8-2.7,3.6
		c0-0.1,0.6,2.8,0.6,3.3c0,1.9-1.7,3.2-3.7,3.2c-1.5,0-2.7-1-2.7-2.5c0-1.1,0.7-1.9,1.8-1.9c1,0,1.7,1,1.7,1.9c0,1-0.9,1.7-2,1.8
		c0.4,0.2,0.9,0.3,1.4,0.3c1.6,0,3.1-1.2,3.1-2.7c0-0.1,0-0.3,0-0.5l-0.6-2.8C217.4,75.5,216.9,75.6,216.2,75.6z M214.6,71.7
		c0,0.8,0.4,1.4,1.2,1.9c-1.3-0.2-2.2-1.1-2.2-2.3c0-1.5,1.3-2.8,2.9-3.1l-0.6-3c-2.8,2.1-4.3,4.1-4.3,6.1c0,2.2,2.1,4,4.5,4
		c0.7,0,1.3-0.1,1.8-0.4l-1.1-5.1C215.5,69.9,214.6,70.7,214.6,71.7z M217.6,55.7c-1.2,0-2.2,2.8-2.2,5.3c0,0.5,0,1,0.1,1.4
		c2-1.8,3-3.4,3-4.9c0-0.7-0.3-1.3-0.7-1.8C217.8,55.7,217.7,55.7,217.6,55.7z M219.7,72.1c0-1.2-0.9-2.4-2.2-2.4c0,0-0.2,0-0.4,0
		l1.1,5C219.2,74,219.7,73.1,219.7,72.1z"/>
</g>
<polygon fill-rule="evenodd" clip-rule="evenodd" points="132.6,73.3 196,68.3 196,65.8 132.6,70.8 "/>
<polygon fill-rule="evenodd" clip-rule="evenodd" points="132.6,77 196,72 196,69.6 132.6,74.5 "/>
<rect x="228.9" y="54.7" fill-rule="evenodd" clip-rule="evenodd" width="63.2" height="2.5"/>
<rect x="228.9" y="51" fill-rule="evenodd" clip-rule="evenodd" width="63.2" height="2.5"/>
<g>
	<path d="M386.7,69c2.2-2,3.6-4.6,3.6-6.9c0-1.9-1.1-3.3-2.8-3.3c-1.2,0-2.5,1-2.5,2.1c0,0.2,0,0.2,0.1,0.2c0,0,0.4-0.5,1-0.5
		c0.7,0,1.2,0.6,1.2,1.3c0,0.9-0.6,1.7-1.6,1.7s-1.5-1-1.5-2.1c0-1.8,1.7-3.1,3.6-3.1c3.5,0,4.4,2.4,4.4,4.4c0,1.2-0.3,2.2-1.5,4
		c-1.4,2.3-4.8,4-6,4c-0.3,0-0.5-0.1-0.5-0.3C385.3,70,386.1,69.6,386.7,69z M394.2,59.5c0.4,0,0.7,0.3,0.7,0.7
		c0,0.4-0.3,0.7-0.7,0.7c-0.4,0-0.7-0.3-0.7-0.7C393.4,59.8,393.8,59.5,394.2,59.5z M394.2,63.2c0.4,0,0.7,0.3,0.7,0.7
		s-0.3,0.7-0.7,0.7c-0.4,0-0.7-0.3-0.7-0.7S393.8,63.2,394.2,63.2z"/>
</g>
<polygon fill-rule="evenodd" clip-rule="evenodd" points="313.2,63.4 376.5,68.3 376.5,65.8 313.2,60.9 "/>
<polygon fill-rule="evenodd" clip-rule="evenodd" points="313.2,59.6 376.5,64.6 376.5,62.1 313.2,57.2 "/>
<polygon fill-rule="evenodd" clip-rule="evenodd" points="396.3,78.2 459.7,83.2 459.7,80.7 396.3,75.8 "/>
<polygon fill-rule="evenodd" clip-rule="evenodd" points="396.3,82 459.7,86.9 459.7,84.4 396.3,79.5 "/>
<rect x="46.3" y="34.5" width="10.5" height="0.8"/>
<rect x="54.6" y="15.2" width="0.5" height="21.4"/>
<g>
	<path d="M48.1,38.2c0-1.8,2.5-3.5,4.5-3.5c1.3,0,2.3,0.7,2.3,1.7c0,1.7-2.5,3.5-4.6,3.5C49.1,39.9,48.1,39.3,48.1,38.2z"/>
</g>
<rect x="67.4" y="34.5" width="10.5" height="0.8"/>
<rect x="75.7" y="13.6" width="0.5" height="20.5"/>
<g>
	<path d="M69.2,35.7c0-1.8,2.5-3.5,4.5-3.5c1.3,0,2.3,0.7,2.3,1.7c0,1.7-2.5,3.5-4.6,3.5C70.2,37.4,69.2,36.8,69.2,35.7z"/>
</g>
<rect x="96.7" y="11.9" width="0.5" height="19.7"/>
<g>
	<path d="M90.3,33.2c0-1.8,2.5-3.5,4.5-3.5c1.3,0,2.3,0.7,2.3,1.7c0,1.7-2.5,3.5-4.6,3.5C91.3,34.9,90.3,34.3,90.3,33.2z"/>
</g>
<rect x="117.8" y="10.2" width="0.5" height="16.4"/>
<g>
	<path d="M111.4,28.3c0-1.8,2.5-3.5,4.5-3.5c1.3,0,2.3,0.7,2.3,1.7c0,1.7-2.5,3.5-4.6,3.5C112.4,30,111.4,29.3,111.4,28.3z"/>
</g>
<rect x="132.4" y="25.7" width="0.5" height="14"/>
<g>
	<path d="M132.5,25.8c0-1.8,2.5-3.5,4.5-3.5c1.3,0,2.3,0.7,2.3,1.7c0,1.7-2.5,3.5-4.6,3.5C133.4,27.5,132.5,26.9,132.5,25.8z"/>
</g>
<rect x="153.6" y="20.7" width="0.5" height="17.4"/>
<g>
	<path d="M153.7,20.8c0-1.8,2.5-3.5,4.5-3.5c1.3,0,2.3,0.7,2.3,1.7c0,1.7-2.5,3.5-4.6,3.5C154.7,22.5,153.7,21.9,153.7,20.8z"/>
</g>
<rect x="174.7" y="18.3" width="0.5" height="18.1"/>
<g>
	<path d="M174.8,18.3c0-1.8,2.5-3.5,4.5-3.5c1.3,0,2.3,0.7,2.3,1.7c0,1.7-2.5,3.5-4.6,3.5C175.8,20.1,174.8,19.4,174.8,18.3z"/>
</g>
<rect x="195.8" y="15.8" width="0.5" height="18.9"/>
<g>
	<path d="M195.9,15.9c0-1.8,2.5-3.5,4.5-3.5c1.3,0,2.3,0.7,2.3,1.7c0,1.7-2.5,3.5-4.6,3.5C196.8,17.6,195.9,16.9,195.9,15.9z"/>
</g>
<rect x="222.1" y="10.8" width="0.5" height="15.2"/>
<g>
	<path d="M222.2,10.9c0-1.8,2.5-3.5,4.5-3.5c1.3,0,2.3,0.7,2.3,1.7c0,1.7-2.5,3.5-4.6,3.5C223.2,12.6,222.2,12,222.2,10.9z"/>
</g>
<rect x="243.2" y="8.3" width="0.5" height="17.4"/>
<g>
	<path d="M243.3,8.4c0-1.8,2.5-3.5,4.5-3.5c1.3,0,2.3,0.7,2.3,1.7c0,1.7-2.5,3.5-4.6,3.5C244.3,10.1,243.3,9.5,243.3,8.4z"/>
</g>
<rect x="262.5" y="4.7" width="10.5" height="0.8"/>
<rect x="264.3" y="3.4" width="0.5" height="21.9"/>
<g>
	<path d="M264.4,3.5c0-1.8,2.5-3.5,4.5-3.5c1.3,0,2.3,0.7,2.3,1.7c0,1.7-2.5,3.5-4.6,3.5C265.4,5.2,264.4,4.5,264.4,3.5z"/>
</g>
<rect x="285.4" y="8.3" width="0.5" height="16.4"/>
<g>
	<path d="M285.5,8.4c0-1.8,2.5-3.5,4.5-3.5c1.3,0,2.3,0.7,2.3,1.7c0,1.7-2.5,3.5-4.6,3.5C286.4,10.1,285.5,9.5,285.5,8.4z"/>
</g>
<rect x="306.5" y="10.8" width="0.5" height="18.9"/>
<g>
	<path d="M306.6,10.9c0-1.8,2.5-3.5,4.5-3.5c1.3,0,2.3,0.7,2.3,1.7c0,1.7-2.5,3.5-4.6,3.5C307.5,12.6,306.6,12,306.6,10.9z"/>
</g>
<rect x="327.6" y="15.8" width="0.5" height="15.5"/>
<g>
	<path d="M327.6,15.9c0-1.8,2.5-3.5,4.5-3.5c1.3,0,2.3,0.7,2.3,1.7c0,1.7-2.5,3.5-4.6,3.5C328.6,17.6,327.6,16.9,327.6,15.9z"/>
</g>
<rect x="348.6" y="18.3" width="0.5" height="14.7"/>
<g>
	<path d="M348.7,18.3c0-1.8,2.5-3.5,4.5-3.5c1.3,0,2.3,0.7,2.3,1.7c0,1.7-2.5,3.5-4.6,3.5C349.7,20.1,348.7,19.4,348.7,18.3z"/>
</g>
<rect x="369.7" y="20.7" width="0.5" height="14"/>
<g>
	<path d="M369.8,20.8c0-1.8,2.5-3.5,4.5-3.5c1.3,0,2.3,0.7,2.3,1.7c0,1.7-2.5,3.5-4.6,3.5C370.8,22.5,369.8,21.9,369.8,20.8z"/>
</g>
<rect x="402.6" y="10.2" width="0.5" height="14"/>
<g>
	<path d="M396.2,25.8c0-1.8,2.5-3.5,4.5-3.5c1.3,0,2.3,0.7,2.3,1.7c0,1.7-2.5,3.5-4.6,3.5C397.1,27.5,396.2,26.9,396.2,25.8z"/>
</g>
<rect x="423.8" y="11.7" width="0.5" height="14.9"/>
<g>
	<path d="M417.4,28.3c0-1.8,2.5-3.5,4.5-3.5c1.3,0,2.3,0.7,2.3,1.7c0,1.7-2.5,3.5-4.6,3.5C418.4,30,417.4,29.3,417.4,28.3z"/>
</g>
<rect x="444.9" y="13.4" width="0.5" height="18.1"/>
<g>
	<path d="M438.5,33.2c0-1.8,2.5-3.5,4.5-3.5c1.3,0,2.3,0.7,2.3,1.7c0,1.7-2.5,3.5-4.6,3.5C439.4,34.9,438.5,34.3,438.5,33.2z"/>
</g>
<rect x="457.7" y="34.5" width="10.5" height="0.8"/>
<rect x="466" y="15.2" width="0.5" height="18.9"/>
<g>
	<path d="M459.6,35.7c0-1.8,2.5-3.5,4.5-3.5c1.3,0,2.3,0.7,2.3,1.7c0,1.7-2.5,3.5-4.6,3.5C460.5,37.4,459.6,36.8,459.6,35.7z"/>
</g>
<rect x="478.8" y="34.5" width="10.7" height="0.8"/>
<rect x="487.2" y="20" width="0.5" height="16.6"/>
<g>
	<path d="M484.9,34.6c1.6,0,2.7,0.7,2.7,2c0,1.9-2.3,3.4-4.5,3.4c-1.3,0-2.4-0.7-2.4-1.8C480.6,36.4,482.9,34.6,484.9,34.6z
		 M481.1,38.5c0,0.6,0.4,0.9,1.1,0.9c1.4,0,4.9-2.1,4.9-3.3c0-0.6-0.4-0.9-1.1-0.9C484.8,35.2,481.1,37.2,481.1,38.5z"/>
</g>
<rect x="54.6" y="52.4" width="0.5" height="18.9"/>
<g>
	<path d="M48.1,72.9c0-1.8,2.5-3.5,4.5-3.5c1.3,0,2.3,0.7,2.3,1.7c0,1.7-2.5,3.5-4.6,3.5C49.1,74.6,48.1,74,48.1,72.9z"/>
</g>
<rect x="75.7" y="50.8" width="0.5" height="18"/>
<g>
	<path d="M69.2,70.4c0-1.8,2.5-3.5,4.5-3.5c1.3,0,2.3,0.7,2.3,1.7c0,1.7-2.5,3.5-4.6,3.5C70.2,72.1,69.2,71.5,69.2,70.4z"/>
</g>
<rect x="96.7" y="49.1" width="0.5" height="17.2"/>
<g>
	<path d="M90.3,67.9c0-1.8,2.5-3.5,4.5-3.5c1.3,0,2.3,0.7,2.3,1.7c0,1.7-2.5,3.5-4.6,3.5C91.3,69.7,90.3,69,90.3,67.9z"/>
</g>
<rect x="117.8" y="47.4" width="0.5" height="14"/>
<g>
	<path d="M111.4,63c0-1.8,2.5-3.5,4.5-3.5c1.3,0,2.3,0.7,2.3,1.7c0,1.7-2.5,3.5-4.6,3.5C112.4,64.7,111.4,64.1,111.4,63z"/>
</g>
<rect x="132.4" y="60.4" width="0.5" height="16.4"/>
<g>
	<path d="M132.5,60.5c0-1.8,2.5-3.5,4.5-3.5c1.3,0,2.3,0.7,2.3,1.7c0,1.7-2.5,3.5-4.6,3.5C133.4,62.2,132.5,61.6,132.5,60.5z"/>
</g>
<rect x="153.6" y="55.5" width="0.5" height="19.8"/>
<g>
	<path d="M153.7,55.5c0-1.8,2.5-3.5,4.5-3.5c1.3,0,2.3,0.7,2.3,1.7c0,1.7-2.5,3.5-4.6,3.5C154.7,57.3,153.7,56.6,153.7,55.5z"/>
</g>
<rect x="172.9" y="51.8" width="10.5" height="0.8"/>
<rect x="174.7" y="53" width="0.5" height="20.6"/>
<g>
	<path d="M174.8,53.1c0-1.8,2.5-3.5,4.5-3.5c1.3,0,2.3,0.7,2.3,1.7c0,1.7-2.5,3.5-4.6,3.5C175.8,54.8,174.8,54.1,174.8,53.1z"/>
</g>
<rect x="194" y="51.8" width="10.5" height="0.8"/>
<rect x="195.8" y="50.5" width="0.5" height="21.4"/>
<g>
	<path d="M195.9,50.6c0-1.8,2.5-3.5,4.5-3.5c1.3,0,2.3,0.7,2.3,1.7c0,1.7-2.5,3.5-4.6,3.5C196.8,52.3,195.9,51.7,195.9,50.6z"/>
</g>
<rect x="228.7" y="51.1" width="0.5" height="22.6"/>
<g>
	<path d="M222.2,75.4c0-1.8,2.5-3.5,4.5-3.5c1.3,0,2.3,0.7,2.3,1.7c0,1.7-2.5,3.5-4.6,3.5C223.2,77.1,222.2,76.5,222.2,75.4z"/>
</g>
<rect x="249.7" y="51.1" width="0.5" height="20.2"/>
<g>
	<path d="M243.3,72.9c0-1.8,2.5-3.5,4.5-3.5c1.3,0,2.3,0.7,2.3,1.7c0,1.7-2.5,3.5-4.6,3.5C244.3,74.6,243.3,74,243.3,72.9z"/>
</g>
<rect x="270.8" y="51.1" width="0.5" height="15.2"/>
<g>
	<path d="M264.4,67.9c0-1.8,2.5-3.5,4.5-3.5c1.3,0,2.3,0.7,2.3,1.7c0,1.7-2.5,3.5-4.6,3.5C265.4,69.7,264.4,69,264.4,67.9z"/>
</g>
<rect x="291.9" y="51.1" width="0.5" height="20.2"/>
<g>
	<path d="M285.5,72.9c0-1.8,2.5-3.5,4.5-3.5c1.3,0,2.3,0.7,2.3,1.7c0,1.7-2.5,3.5-4.6,3.5C286.4,74.6,285.5,74,285.5,72.9z"/>
</g>
<rect x="313" y="57.3" width="0.5" height="16.4"/>
<g>
	<path d="M306.6,75.4c0-1.8,2.5-3.5,4.5-3.5c1.3,0,2.3,0.7,2.3,1.7c0,1.7-2.5,3.5-4.6,3.5C307.5,77.1,306.6,76.5,306.6,75.4z"/>
</g>
<rect x="334.1" y="58.9" width="0.5" height="19.8"/>
<g>
	<path d="M327.6,80.3c0-1.8,2.5-3.5,4.5-3.5c1.3,0,2.3,0.7,2.3,1.7c0,1.7-2.5,3.5-4.6,3.5C328.6,82.1,327.6,81.4,327.6,80.3z"/>
</g>
<rect x="346.9" y="81.6" width="10.5" height="0.8"/>
<rect x="355.2" y="60.6" width="0.5" height="20.6"/>
<g>
	<path d="M348.7,82.8c0-1.8,2.5-3.5,4.5-3.5c1.3,0,2.3,0.7,2.3,1.7c0,1.7-2.5,3.5-4.6,3.5C349.7,84.5,348.7,83.9,348.7,82.8z"/>
</g>
<rect x="367.9" y="81.6" width="10.5" height="0.8"/>
<rect x="376.2" y="62.3" width="0.5" height="21.4"/>
<g>
	<path d="M369.8,85.3c0-1.8,2.5-3.5,4.5-3.5c1.3,0,2.3,0.7,2.3,1.7c0,1.7-2.5,3.5-4.6,3.5C370.8,87,369.8,86.4,369.8,85.3z"/>
</g>
<rect x="396.1" y="60.4" width="0.5" height="21.4"/>
<g>
	<path d="M396.2,60.5c0-1.8,2.5-3.5,4.5-3.5c1.3,0,2.3,0.7,2.3,1.7c0,1.7-2.5,3.5-4.6,3.5C397.1,62.2,396.2,61.6,396.2,60.5z"/>
</g>
<rect x="417.3" y="62.9" width="0.5" height="20.5"/>
<g>
	<path d="M417.4,63c0-1.8,2.5-3.5,4.5-3.5c1.3,0,2.3,0.7,2.3,1.7c0,1.7-2.5,3.5-4.6,3.5C418.4,64.7,417.4,64.1,417.4,63z"/>
</g>
<rect x="438.4" y="67.9" width="0.5" height="17.2"/>
<g>
	<path d="M438.5,67.9c0-1.8,2.5-3.5,4.5-3.5c1.3,0,2.3,0.7,2.3,1.7c0,1.7-2.5,3.5-4.6,3.5C439.4,69.7,438.5,69,438.5,67.9z"/>
</g>
<rect x="459.5" y="70.3" width="0.5" height="16.4"/>
<g>
	<path d="M459.6,70.4c0-1.8,2.5-3.5,4.5-3.5c1.3,0,2.3,0.7,2.3,1.7c0,1.7-2.5,3.5-4.6,3.5C460.5,72.1,459.6,71.5,459.6,70.4z"/>
</g>
<rect x="487.2" y="54.7" width="0.5" height="16.6"/>
<g>
	<path d="M484.9,69.3c1.6,0,2.7,0.7,2.7,2c0,1.9-2.3,3.4-4.5,3.4c-1.3,0-2.4-0.7-2.4-1.8C480.6,71.1,482.9,69.3,484.9,69.3z
		 M481.1,73.2c0,0.6,0.4,0.9,1.1,0.9c1.4,0,4.9-2.1,4.9-3.3c0-0.6-0.4-0.9-1.1-0.9C484.8,69.9,481.1,72,481.1,73.2z"/>
</g>
</svg>
