<?xml version="1.0" encoding="utf-8"?>
<!-- Generator: Adobe Illustrator 19.0.1, SVG Export Plug-In . SVG Version: 6.00 Build 0)  -->
<!DOCTYPE svg PUBLIC "-//W3C//DTD SVG 1.1//EN" "http://www.w3.org/Graphics/SVG/1.1/DTD/svg11.dtd">
<svg version="1.1" id="Layer_1" xmlns="http://www.w3.org/2000/svg" xmlns:xlink="http://www.w3.org/1999/xlink" x="0px" y="0px"
	 viewBox="0 0 552.9 87" enable-background="new 0 0 552.9 87" xml:space="preserve">
<rect x="8.4" y="10" width="0.8" height="67"/>
<g>
	<path d="M7.4,10.7c-1.9,1.1-3.6,5.8-3.6,9.4c0,2.3,1.4,9.9,1.4,12.3c0,5-1.5,8.6-4.6,11.1c3,2.4,4.6,6.1,4.6,11.1
		c0,2.3-1.4,9.9-1.4,12.3c0,3.8,1.7,8.4,3.6,9.5V77c-3.5-2.3-5.8-8.2-5.8-13.1c0-2.1,1.7-9.4,1.7-11.5c0-3.8-1-6.6-2.9-8.2
		C0.1,43.9,0,43.7,0,43.5c0-0.2,0.1-0.4,0.5-0.7c1.9-1.7,2.9-4.2,2.9-7.6c0-2.1-1.7-10-1.7-12.2c0-5.2,2.1-10.4,5.8-13.1V10.7z"/>
</g>
<rect x="547.8" y="10" width="0.8" height="67"/>
<rect x="550.4" y="10" width="2.5" height="67"/>
<rect x="8.5" y="29.6" width="544.4" height="0.5"/>
<rect x="8.5" y="24.7" width="544.4" height="0.5"/>
<rect x="8.5" y="19.7" width="544.4" height="0.5"/>
<rect x="8.5" y="14.8" width="544.4" height="0.5"/>
<rect x="8.5" y="9.8" width="544.4" height="0.5"/>
<g>
	<path d="M20.3,29.7c-4.2,0-8.1-3.1-8.1-6.9c0-3.2,2.3-6.7,6.8-10.5c-0.3-1.2-0.4-2.4-0.4-3.6c0-3.5,1.2-6.8,3.2-8.5
		c1.8,2.5,2.7,4.9,2.7,7.1c0,2.9-1.3,5.6-4.3,8.1l0.9,4.2c0.5,0,0.8-0.1,0.8-0.1c2.6,0,4.8,2,4.8,4.7c0,1.9-1.4,3.7-3.6,4.8
		c0-0.1,0.9,3.8,0.9,4.3c0,2.5-2.3,4.2-4.9,4.2c-2,0-3.6-1.3-3.6-3.4c0-1.4,1-2.6,2.4-2.6c1.3,0,2.3,1.3,2.3,2.5
		c0,1.4-1.2,2.3-2.7,2.5c0.6,0.3,1.2,0.5,1.9,0.5c2.1,0,4.1-1.6,4.1-3.6c0-0.2,0-0.4-0.1-0.6l-0.8-3.7
		C21.9,29.6,21.2,29.7,20.3,29.7z M18.1,24.5c0,1,0.5,1.9,1.6,2.5c-1.8-0.3-3-1.4-3-3.1c0-2,1.7-3.7,3.8-4.1l-0.8-4
		C16,18.6,14,21.3,14,23.9c0,2.9,2.8,5.3,6,5.3c0.9,0,1.7-0.2,2.4-0.5L21,21.9C19.4,22.1,18.1,23.1,18.1,24.5z M22.1,3.2
		c-1.6,0-2.9,3.7-2.9,7c0,0.7,0,1.3,0.2,1.9c2.7-2.4,4-4.5,4-6.5c0-0.9-0.3-1.7-1-2.4C22.4,3.2,22.3,3.2,22.1,3.2z M24.9,25
		c0-1.6-1.2-3.3-2.9-3.3c-0.1,0-0.2,0-0.5,0l1.4,6.6C24.2,27.5,24.9,26.3,24.9,25z"/>
</g>
<g>
	<path d="M33.5,3.2v2.8l1-0.3v1.8l-1,0.3v3.4l1-0.3v1.8l-1,0.3v3.1H33v-3l-1.9,0.6v3h-0.5V14l-1,0.3v-1.8l1-0.3V8.8l-1,0.3V7.3
		l1-0.3V3.9h0.5v3L33,6.2v-3H33.5z M33,8l-1.9,0.6v3.4l1.9-0.6V8z"/>
</g>
<g>
	<path d="M39.7,10.7v2.8l1-0.3V15l-1,0.3v3.4l1-0.3v1.8l-1,0.3v3.1h-0.5v-3l-1.9,0.6v3h-0.5v-2.8l-1,0.3V20l1-0.3v-3.4l-1,0.3v-1.8
		l1-0.3v-3.1h0.5v3l1.9-0.6v-3H39.7z M39.2,15.4l-1.9,0.6v3.4l1.9-0.6V15.4z"/>
</g>
<g>
	<path d="M45.9,0.7v2.8l1-0.3V5l-1,0.3v3.4l1-0.3v1.8l-1,0.3v3.1h-0.5v-3l-1.9,0.6v3H43v-2.8l-1,0.3v-1.8l1-0.3V6.3l-1,0.3V4.8
		l1-0.3V1.4h0.5v3l1.9-0.6v-3H45.9z M45.4,5.5l-1.9,0.6v3.4l1.9-0.6V5.5z"/>
</g>
<g>
	<path d="M52.1,8.2V11l1-0.3v1.8l-1,0.3v3.4l1-0.3v1.8l-1,0.3v3.1h-0.5v-3l-1.9,0.6v3h-0.5V19l-1,0.3v-1.8l1-0.3v-3.4l-1,0.3v-1.8
		l1-0.3V8.8h0.5v3l1.9-0.6v-3H52.1z M51.6,13l-1.9,0.6V17l1.9-0.6V13z"/>
</g>
<g>
	<path d="M58.3,15.6v2.8l1-0.3v1.8l-1,0.3v3.4l1-0.3v1.8l-1,0.3v3.1h-0.5v-3l-1.9,0.6v3h-0.5v-2.8l-1,0.3v-1.8l1-0.3v-3.4l-1,0.3
		v-1.8l1-0.3v-3.1h0.5v3l1.9-0.6v-3H58.3z M57.8,20.4L55.9,21v3.4l1.9-0.6V20.4z"/>
</g>
<polygon fill-rule="evenodd" clip-rule="evenodd" points="74.7,21.2 135.1,16.2 135.1,13.8 74.7,18.7 "/>
<polygon fill-rule="evenodd" clip-rule="evenodd" points="74.7,17.5 135.1,12.5 135.1,10 74.7,15 "/>
<polygon fill-rule="evenodd" clip-rule="evenodd" points="148.7,36.1 209.2,31.1 209.2,28.6 148.7,33.6 "/>
<polygon fill-rule="evenodd" clip-rule="evenodd" points="148.7,39.8 209.2,34.8 209.2,32.4 148.7,37.3 "/>
<polygon fill-rule="evenodd" clip-rule="evenodd" points="235.6,22.4 296,21.2 296,18.7 235.6,20 "/>
<polygon fill-rule="evenodd" clip-rule="evenodd" points="235.6,26.2 296,24.9 296,22.4 235.6,23.7 "/>
<polygon fill-rule="evenodd" clip-rule="evenodd" points="316.2,26.2 376.6,31.1 376.6,28.6 316.2,23.7 "/>
<polygon fill-rule="evenodd" clip-rule="evenodd" points="316.2,29.9 376.6,34.8 376.6,32.4 316.2,27.4 "/>
<polygon fill-rule="evenodd" clip-rule="evenodd" points="409.5,16.2 469.9,21.2 469.9,18.7 409.5,13.8 "/>
<polygon fill-rule="evenodd" clip-rule="evenodd" points="409.5,12.5 469.9,17.5 469.9,15 409.5,10 "/>
<rect x="8.5" y="76.8" width="544.4" height="0.5"/>
<rect x="8.5" y="71.8" width="544.4" height="0.5"/>
<rect x="8.5" y="66.8" width="544.4" height="0.5"/>
<rect x="8.5" y="61.9" width="544.4" height="0.5"/>
<rect x="8.5" y="56.9" width="544.4" height="0.5"/>
<g>
	<path d="M15.7,71.3c2.9-2.6,4.7-6.1,4.7-9.2c0-2.5-1.4-4.4-3.7-4.4c-1.6,0-3.4,1.3-3.4,2.7c0,0.2,0,0.3,0.1,0.3
		c-0.1,0,0.6-0.6,1.4-0.6c0.9,0,1.5,0.8,1.5,1.7c0,1.2-0.9,2.2-2.1,2.2c-1.2,0-2.1-1.3-2.1-2.8c0-2.3,2.3-4.1,4.8-4.1
		c4.7,0,5.9,3.2,5.9,5.8c0,1.6-0.4,2.9-2,5.3c-1.9,3.1-6.4,5.3-8.1,5.3c-0.4,0-0.6-0.2-0.6-0.5C13.8,72.6,14.9,72,15.7,71.3z
		 M25.7,58.7c0.6,0,1,0.4,1,1c0,0.6-0.4,1-1,1s-1-0.4-1-1C24.7,59.1,25.1,58.7,25.7,58.7z M25.7,63.6c0.6,0,1,0.4,1,1
		c0,0.6-0.4,1-1,1s-1-0.4-1-1C24.7,64,25.1,63.6,25.7,63.6z"/>
</g>
<g>
	<path d="M33.5,55.3v2.8l1-0.3v1.8l-1,0.3v3.4l1-0.3v1.8l-1,0.3v3.1H33v-3L31.1,66v3h-0.5v-2.8l-1,0.3v-1.8l1-0.3v-3.4l-1,0.3v-1.8
		l1-0.3v-3.1h0.5v3l1.9-0.6v-3H33.5z M33,60.1l-1.9,0.6v3.4l1.9-0.6V60.1z"/>
</g>
<g>
	<path d="M39.7,62.7v2.8l1-0.3V67l-1,0.3v3.4l1-0.3v1.8l-1,0.3v3.1h-0.5v-3l-1.9,0.6v3h-0.5v-2.8l-1,0.3v-1.8l1-0.3v-3.4l-1,0.3
		v-1.8l1-0.3v-3.1h0.5v3l1.9-0.6v-3H39.7z M39.2,67.5l-1.9,0.6v3.4l1.9-0.6V67.5z"/>
</g>
<g>
	<path d="M45.9,52.8v2.8l1-0.3v1.8l-1,0.3v3.4l1-0.3v1.8l-1,0.3v3.1h-0.5v-3l-1.9,0.6v3H43v-2.8l-1,0.3v-1.8l1-0.3v-3.4l-1,0.3v-1.8
		l1-0.3v-3.1h0.5v3l1.9-0.6v-3H45.9z M45.4,57.6l-1.9,0.6v3.4l1.9-0.6V57.6z"/>
</g>
<g>
	<path d="M52.1,60.3v2.8l1-0.3v1.8l-1,0.3v3.4l1-0.3v1.8l-1,0.3v3.1h-0.5v-3l-1.9,0.6v3h-0.5V71l-1,0.3v-1.8l1-0.3v-3.4l-1,0.3v-1.8
		l1-0.3v-3.1h0.5v3l1.9-0.6v-3H52.1z M51.6,65l-1.9,0.6v3.4l1.9-0.6V65z"/>
</g>
<g>
	<path d="M58.3,67.7v2.8l1-0.3V72l-1,0.3v3.4l1-0.3v1.8l-1,0.3v3.1h-0.5v-3l-1.9,0.6v3h-0.5v-2.8l-1,0.3V77l1-0.3v-3.4l-1,0.3v-1.8
		l1-0.3v-3.1h0.5v3l1.9-0.6v-3H58.3z M57.8,72.5l-1.9,0.6v3.4l1.9-0.6V72.5z"/>
</g>
<polygon fill-rule="evenodd" clip-rule="evenodd" points="74.7,58.4 135.1,53.4 135.1,51 74.7,55.9 "/>
<polygon fill-rule="evenodd" clip-rule="evenodd" points="74.7,54.7 135.1,49.7 135.1,47.2 74.7,52.2 "/>
<g>
	<path d="M229.4,75.6c-3.2,0-6.1-2.3-6.1-5.1c0-2.4,1.7-5,5.1-7.9c-0.2-0.9-0.3-1.8-0.3-2.7c0-2.6,0.9-5.1,2.4-6.3
		c1.4,1.9,2,3.7,2,5.3c0,2.2-1,4.2-3.2,6.1l0.7,3.1c0.4,0,0.6,0,0.6,0c2,0,3.6,1.5,3.6,3.5c0,1.4-1.1,2.8-2.7,3.6
		c0-0.1,0.6,2.8,0.6,3.3c0,1.9-1.7,3.2-3.7,3.2c-1.5,0-2.7-1-2.7-2.5c0-1.1,0.7-1.9,1.8-1.9c1,0,1.7,1,1.7,1.9c0,1-0.9,1.7-2,1.8
		c0.4,0.2,0.9,0.3,1.4,0.3c1.6,0,3.1-1.2,3.1-2.7c0-0.1,0-0.3,0-0.5l-0.6-2.8C230.6,75.5,230.1,75.6,229.4,75.6z M227.7,71.7
		c0,0.8,0.4,1.4,1.2,1.9c-1.3-0.2-2.2-1.1-2.2-2.3c0-1.5,1.3-2.8,2.9-3.1l-0.6-3c-2.8,2.1-4.3,4.1-4.3,6.1c0,2.2,2.1,4,4.5,4
		c0.7,0,1.3-0.1,1.8-0.4l-1.1-5.1C228.7,69.9,227.7,70.7,227.7,71.7z M230.8,55.7c-1.2,0-2.2,2.8-2.2,5.3c0,0.5,0,1,0.1,1.4
		c2-1.8,3-3.4,3-4.9c0-0.7-0.3-1.3-0.7-1.8C231,55.7,230.9,55.7,230.8,55.7z M232.8,72.1c0-1.2-0.9-2.4-2.2-2.4c0,0-0.2,0-0.4,0
		l1.1,5C232.3,74,232.8,73.1,232.8,72.1z"/>
</g>
<polygon fill-rule="evenodd" clip-rule="evenodd" points="148.7,73.3 209.2,68.3 209.2,65.8 148.7,70.8 "/>
<polygon fill-rule="evenodd" clip-rule="evenodd" points="148.7,77 209.2,72 209.2,69.6 148.7,74.5 "/>
<rect x="242.1" y="54.7" fill-rule="evenodd" clip-rule="evenodd" width="60.5" height="2.5"/>
<rect x="242.1" y="51" fill-rule="evenodd" clip-rule="evenodd" width="60.5" height="2.5"/>
<g>
	<path d="M393.4,69c2.2-2,3.6-4.6,3.6-6.9c0-1.9-1.1-3.3-2.8-3.3c-1.2,0-2.5,1-2.5,2.1c0,0.2,0,0.2,0.1,0.2c0,0,0.4-0.5,1-0.5
		c0.7,0,1.2,0.6,1.2,1.3c0,0.9-0.6,1.7-1.6,1.7s-1.5-1-1.5-2.1c0-1.8,1.7-3.1,3.6-3.1c3.5,0,4.4,2.4,4.4,4.4c0,1.2-0.3,2.2-1.5,4
		c-1.4,2.3-4.8,4-6,4c-0.3,0-0.5-0.1-0.5-0.3C391.9,70,392.8,69.6,393.4,69z M400.8,59.5c0.4,0,0.7,0.3,0.7,0.7
		c0,0.4-0.3,0.7-0.7,0.7c-0.4,0-0.7-0.3-0.7-0.7C400.1,59.8,400.4,59.5,400.8,59.5z M400.8,63.2c0.4,0,0.7,0.3,0.7,0.7
		s-0.3,0.7-0.7,0.7c-0.4,0-0.7-0.3-0.7-0.7S400.4,63.2,400.8,63.2z"/>
</g>
<polygon fill-rule="evenodd" clip-rule="evenodd" points="322.7,63.4 383.1,68.3 383.1,65.8 322.7,60.9 "/>
<polygon fill-rule="evenodd" clip-rule="evenodd" points="322.7,59.6 383.1,64.6 383.1,62.1 322.7,57.2 "/>
<polygon fill-rule="evenodd" clip-rule="evenodd" points="403,78.2 463.4,83.2 463.4,80.7 403,75.8 "/>
<polygon fill-rule="evenodd" clip-rule="evenodd" points="403,82 463.4,86.9 463.4,84.4 403,79.5 "/>
<rect x="66.1" y="34.5" width="10.5" height="0.8"/>
<rect x="74.4" y="15.2" width="0.5" height="21.4"/>
<g>
	<path d="M68,38.2c0-1.8,2.5-3.5,4.5-3.5c1.3,0,2.3,0.7,2.3,1.7c0,1.7-2.5,3.5-4.6,3.5C69,39.9,68,39.3,68,38.2z"/>
</g>
<rect x="86.3" y="34.5" width="10.5" height="0.8"/>
<rect x="94.6" y="13.6" width="0.5" height="20.5"/>
<g>
	<path d="M88.1,35.7c0-1.8,2.5-3.5,4.5-3.5c1.3,0,2.3,0.7,2.3,1.7c0,1.7-2.5,3.5-4.6,3.5C89.1,37.4,88.1,36.8,88.1,35.7z"/>
</g>
<rect x="114.7" y="11.9" width="0.5" height="19.7"/>
<g>
	<path d="M108.3,33.2c0-1.8,2.5-3.5,4.5-3.5c1.3,0,2.3,0.7,2.3,1.7c0,1.7-2.5,3.5-4.6,3.5C109.3,34.9,108.3,34.3,108.3,33.2z"/>
</g>
<rect x="134.9" y="10.2" width="0.5" height="16.4"/>
<g>
	<path d="M128.4,28.3c0-1.8,2.5-3.5,4.5-3.5c1.3,0,2.3,0.7,2.3,1.7c0,1.7-2.5,3.5-4.6,3.5C129.4,30,128.4,29.3,128.4,28.3z"/>
</g>
<rect x="148.5" y="25.7" width="0.5" height="14"/>
<g>
	<path d="M148.6,25.8c0-1.8,2.5-3.5,4.5-3.5c1.3,0,2.3,0.7,2.3,1.7c0,1.7-2.5,3.5-4.6,3.5C149.6,27.5,148.6,26.9,148.6,25.8z"/>
</g>
<rect x="168.7" y="20.7" width="0.5" height="17.4"/>
<g>
	<path d="M168.7,20.8c0-1.8,2.5-3.5,4.5-3.5c1.3,0,2.3,0.7,2.3,1.7c0,1.7-2.5,3.5-4.6,3.5C169.7,22.5,168.7,21.9,168.7,20.8z"/>
</g>
<rect x="188.8" y="18.3" width="0.5" height="18.1"/>
<g>
	<path d="M188.9,18.3c0-1.8,2.5-3.5,4.5-3.5c1.3,0,2.3,0.7,2.3,1.7c0,1.7-2.5,3.5-4.6,3.5C189.9,20.1,188.9,19.4,188.9,18.3z"/>
</g>
<rect x="209" y="15.8" width="0.5" height="18.9"/>
<g>
	<path d="M209,15.9c0-1.8,2.5-3.5,4.5-3.5c1.3,0,2.3,0.7,2.3,1.7c0,1.7-2.5,3.5-4.6,3.5C210,17.6,209,16.9,209,15.9z"/>
</g>
<rect x="235.3" y="10.8" width="0.5" height="15.2"/>
<g>
	<path d="M235.4,10.9c0-1.8,2.5-3.5,4.5-3.5c1.3,0,2.3,0.7,2.3,1.7c0,1.7-2.5,3.5-4.6,3.5C236.4,12.6,235.4,12,235.4,10.9z"/>
</g>
<rect x="255.5" y="8.3" width="0.5" height="17.4"/>
<g>
	<path d="M255.6,8.4c0-1.8,2.5-3.5,4.5-3.5c1.3,0,2.3,0.7,2.3,1.7c0,1.7-2.5,3.5-4.6,3.5C256.5,10.1,255.6,9.5,255.6,8.4z"/>
</g>
<rect x="273.8" y="4.7" width="10.5" height="0.8"/>
<rect x="275.6" y="3.4" width="0.5" height="21.9"/>
<g>
	<path d="M275.7,3.5c0-1.8,2.5-3.5,4.5-3.5c1.3,0,2.3,0.7,2.3,1.7c0,1.7-2.5,3.5-4.6,3.5C276.7,5.2,275.7,4.5,275.7,3.5z"/>
</g>
<rect x="295.8" y="8.3" width="0.5" height="16.4"/>
<g>
	<path d="M295.9,8.4c0-1.8,2.5-3.5,4.5-3.5c1.3,0,2.3,0.7,2.3,1.7c0,1.7-2.5,3.5-4.6,3.5C296.8,10.1,295.9,9.5,295.9,8.4z"/>
</g>
<rect x="315.9" y="10.8" width="0.5" height="18.9"/>
<g>
	<path d="M316,10.9c0-1.8,2.5-3.5,4.5-3.5c1.3,0,2.3,0.7,2.3,1.7c0,1.7-2.5,3.5-4.6,3.5C317,12.6,316,12,316,10.9z"/>
</g>
<rect x="336.1" y="15.8" width="0.5" height="15.5"/>
<g>
	<path d="M336.2,15.9c0-1.8,2.5-3.5,4.5-3.5c1.3,0,2.3,0.7,2.3,1.7c0,1.7-2.5,3.5-4.6,3.5C337.1,17.6,336.2,16.9,336.2,15.9z"/>
</g>
<rect x="356.2" y="18.3" width="0.5" height="14.7"/>
<g>
	<path d="M356.3,18.3c0-1.8,2.5-3.5,4.5-3.5c1.3,0,2.3,0.7,2.3,1.7c0,1.7-2.5,3.5-4.6,3.5C357.3,20.1,356.3,19.4,356.3,18.3z"/>
</g>
<rect x="376.4" y="20.7" width="0.5" height="14"/>
<g>
	<path d="M376.5,20.8c0-1.8,2.5-3.5,4.5-3.5c1.3,0,2.3,0.7,2.3,1.7c0,1.7-2.5,3.5-4.6,3.5C377.4,22.5,376.5,21.9,376.5,20.8z"/>
</g>
<rect x="409.3" y="10.2" width="0.5" height="14"/>
<g>
	<path d="M402.8,25.8c0-1.8,2.5-3.5,4.5-3.5c1.3,0,2.3,0.7,2.3,1.7c0,1.7-2.5,3.5-4.6,3.5C403.8,27.5,402.8,26.9,402.8,25.8z"/>
</g>
<rect x="429.4" y="11.7" width="0.5" height="14.9"/>
<g>
	<path d="M423,28.3c0-1.8,2.5-3.5,4.5-3.5c1.3,0,2.3,0.7,2.3,1.7c0,1.7-2.5,3.5-4.6,3.5C423.9,30,423,29.3,423,28.3z"/>
</g>
<rect x="449.6" y="13.4" width="0.5" height="18.1"/>
<g>
	<path d="M443.1,33.2c0-1.8,2.5-3.5,4.5-3.5c1.3,0,2.3,0.7,2.3,1.7c0,1.7-2.5,3.5-4.6,3.5C444.1,34.9,443.1,34.3,443.1,33.2z"/>
</g>
<rect x="461.4" y="34.5" width="10.5" height="0.8"/>
<rect x="469.7" y="15.2" width="0.5" height="18.9"/>
<g>
	<path d="M463.3,35.7c0-1.8,2.5-3.5,4.5-3.5c1.3,0,2.3,0.7,2.3,1.7c0,1.7-2.5,3.5-4.6,3.5C464.2,37.4,463.3,36.8,463.3,35.7z"/>
</g>
<rect x="481.7" y="34.5" width="10.7" height="0.8"/>
<rect x="490.2" y="20" width="0.5" height="16.6"/>
<g>
	<path d="M487.8,34.6c1.6,0,2.7,0.7,2.7,2c0,1.9-2.3,3.4-4.5,3.4c-1.3,0-2.4-0.7-2.4-1.8C483.6,36.4,485.8,34.6,487.8,34.6z
		 M484,38.5c0,0.6,0.4,0.9,1.1,0.9c1.4,0,4.9-2.1,4.9-3.3c0-0.6-0.4-0.9-1.1-0.9C487.7,35.2,484,37.2,484,38.5z"/>
</g>
<rect x="74.4" y="52.4" width="0.5" height="18.9"/>
<g>
	<path d="M68,72.9c0-1.8,2.5-3.5,4.5-3.5c1.3,0,2.3,0.7,2.3,1.7c0,1.7-2.5,3.5-4.6,3.5C69,74.6,68,74,68,72.9z"/>
</g>
<rect x="94.6" y="50.8" width="0.5" height="18"/>
<g>
	<path d="M88.1,70.4c0-1.8,2.5-3.5,4.5-3.5c1.3,0,2.3,0.7,2.3,1.7c0,1.7-2.5,3.5-4.6,3.5C89.1,72.1,88.1,71.5,88.1,70.4z"/>
</g>
<rect x="114.7" y="49.1" width="0.5" height="17.2"/>
<g>
	<path d="M108.3,67.9c0-1.8,2.5-3.5,4.5-3.5c1.3,0,2.3,0.7,2.3,1.7c0,1.7-2.5,3.5-4.6,3.5C109.3,69.7,108.3,69,108.3,67.9z"/>
</g>
<rect x="134.9" y="47.4" width="0.5" height="14"/>
<g>
	<path d="M128.4,63c0-1.8,2.5-3.5,4.5-3.5c1.3,0,2.3,0.7,2.3,1.7c0,1.7-2.5,3.5-4.6,3.5C129.4,64.7,128.4,64.1,128.4,63z"/>
</g>
<rect x="148.5" y="60.4" width="0.5" height="16.4"/>
<g>
	<path d="M148.6,60.5c0-1.8,2.5-3.5,4.5-3.5c1.3,0,2.3,0.7,2.3,1.7c0,1.7-2.5,3.5-4.6,3.5C149.6,62.2,148.6,61.6,148.6,60.5z"/>
</g>
<rect x="168.7" y="55.5" width="0.5" height="19.8"/>
<g>
	<path d="M168.7,55.5c0-1.8,2.5-3.5,4.5-3.5c1.3,0,2.3,0.7,2.3,1.7c0,1.7-2.5,3.5-4.6,3.5C169.7,57.3,168.7,56.6,168.7,55.5z"/>
</g>
<rect x="187" y="51.8" width="10.5" height="0.8"/>
<rect x="188.8" y="53" width="0.5" height="20.6"/>
<g>
	<path d="M188.9,53.1c0-1.8,2.5-3.5,4.5-3.5c1.3,0,2.3,0.7,2.3,1.7c0,1.7-2.5,3.5-4.6,3.5C189.9,54.8,188.9,54.1,188.9,53.1z"/>
</g>
<rect x="207.2" y="51.8" width="10.5" height="0.8"/>
<rect x="209" y="50.5" width="0.5" height="21.4"/>
<g>
	<path d="M209,50.6c0-1.8,2.5-3.5,4.5-3.5c1.3,0,2.3,0.7,2.3,1.7c0,1.7-2.5,3.5-4.6,3.5C210,52.3,209,51.7,209,50.6z"/>
</g>
<rect x="241.8" y="51.1" width="0.5" height="22.6"/>
<g>
	<path d="M235.4,75.4c0-1.8,2.5-3.5,4.5-3.5c1.3,0,2.3,0.7,2.3,1.7c0,1.7-2.5,3.5-4.6,3.5C236.4,77.1,235.4,76.5,235.4,75.4z"/>
</g>
<rect x="262" y="51.1" width="0.5" height="20.2"/>
<g>
	<path d="M255.6,72.9c0-1.8,2.5-3.5,4.5-3.5c1.3,0,2.3,0.7,2.3,1.7c0,1.7-2.5,3.5-4.6,3.5C256.5,74.6,255.6,74,255.6,72.9z"/>
</g>
<rect x="282.1" y="51.1" width="0.5" height="15.2"/>
<g>
	<path d="M275.7,67.9c0-1.8,2.5-3.5,4.5-3.5c1.3,0,2.3,0.7,2.3,1.7c0,1.7-2.5,3.5-4.6,3.5C276.7,69.7,275.7,69,275.7,67.9z"/>
</g>
<rect x="302.3" y="51.1" width="0.5" height="20.2"/>
<g>
	<path d="M295.9,72.9c0-1.8,2.5-3.5,4.5-3.5c1.3,0,2.3,0.7,2.3,1.7c0,1.7-2.5,3.5-4.6,3.5C296.8,74.6,295.9,74,295.9,72.9z"/>
</g>
<rect x="322.4" y="57.3" width="0.5" height="16.4"/>
<g>
	<path d="M316,75.4c0-1.8,2.5-3.5,4.5-3.5c1.3,0,2.3,0.7,2.3,1.7c0,1.7-2.5,3.5-4.6,3.5C317,77.1,316,76.5,316,75.4z"/>
</g>
<rect x="342.6" y="58.9" width="0.5" height="19.8"/>
<g>
	<path d="M336.2,80.3c0-1.8,2.5-3.5,4.5-3.5c1.3,0,2.3,0.7,2.3,1.7c0,1.7-2.5,3.5-4.6,3.5C337.1,82.1,336.2,81.4,336.2,80.3z"/>
</g>
<rect x="354.5" y="81.6" width="10.5" height="0.8"/>
<rect x="362.7" y="60.6" width="0.5" height="20.6"/>
<g>
	<path d="M356.3,82.8c0-1.8,2.5-3.5,4.5-3.5c1.3,0,2.3,0.7,2.3,1.7c0,1.7-2.5,3.5-4.6,3.5C357.3,84.5,356.3,83.9,356.3,82.8z"/>
</g>
<rect x="374.6" y="81.6" width="10.5" height="0.8"/>
<rect x="382.9" y="62.3" width="0.5" height="21.4"/>
<g>
	<path d="M376.5,85.3c0-1.8,2.5-3.5,4.5-3.5c1.3,0,2.3,0.7,2.3,1.7c0,1.7-2.5,3.5-4.6,3.5C377.4,87,376.5,86.4,376.5,85.3z"/>
</g>
<rect x="402.7" y="60.4" width="0.5" height="21.4"/>
<g>
	<path d="M402.8,60.5c0-1.8,2.5-3.5,4.5-3.5c1.3,0,2.3,0.7,2.3,1.7c0,1.7-2.5,3.5-4.6,3.5C403.8,62.2,402.8,61.6,402.8,60.5z"/>
</g>
<rect x="422.9" y="62.9" width="0.5" height="20.5"/>
<g>
	<path d="M423,63c0-1.8,2.5-3.5,4.5-3.5c1.3,0,2.3,0.7,2.3,1.7c0,1.7-2.5,3.5-4.6,3.5C423.9,64.7,423,64.1,423,63z"/>
</g>
<rect x="443" y="67.9" width="0.5" height="17.2"/>
<g>
	<path d="M443.1,67.9c0-1.8,2.5-3.5,4.5-3.5c1.3,0,2.3,0.7,2.3,1.7c0,1.7-2.5,3.5-4.6,3.5C444.1,69.7,443.1,69,443.1,67.9z"/>
</g>
<rect x="463.2" y="70.3" width="0.5" height="16.4"/>
<g>
	<path d="M463.3,70.4c0-1.8,2.5-3.5,4.5-3.5c1.3,0,2.3,0.7,2.3,1.7c0,1.7-2.5,3.5-4.6,3.5C464.2,72.1,463.3,71.5,463.3,70.4z"/>
</g>
<rect x="490.2" y="54.7" width="0.5" height="16.6"/>
<g>
	<path d="M487.8,69.3c1.6,0,2.7,0.7,2.7,2c0,1.9-2.3,3.4-4.5,3.4c-1.3,0-2.4-0.7-2.4-1.8C483.6,71.1,485.8,69.3,487.8,69.3z
		 M484,73.2c0,0.6,0.4,0.9,1.1,0.9c1.4,0,4.9-2.1,4.9-3.3c0-0.6-0.4-0.9-1.1-0.9C487.7,69.9,484,72,484,73.2z"/>
</g>
</svg>
