<?xml version="1.0" encoding="utf-8"?>
<!-- Generator: Adobe Illustrator 19.0.1, SVG Export Plug-In . SVG Version: 6.00 Build 0)  -->
<!DOCTYPE svg PUBLIC "-//W3C//DTD SVG 1.1//EN" "http://www.w3.org/Graphics/SVG/1.1/DTD/svg11.dtd">
<svg version="1.1" id="Layer_1" xmlns="http://www.w3.org/2000/svg" xmlns:xlink="http://www.w3.org/1999/xlink" x="0px" y="0px"
	 viewBox="0 0 552.9 92" enable-background="new 0 0 552.9 92" xml:space="preserve">
<rect x="8.4" y="12.5" width="0.8" height="67"/>
<g>
	<path d="M7.4,13.2c-1.9,1.1-3.6,5.8-3.6,9.4c0,2.3,1.4,9.9,1.4,12.3c0,5-1.5,8.6-4.6,11.1c3,2.4,4.6,6.1,4.6,11.1
		c0,2.3-1.4,9.9-1.4,12.3c0,3.8,1.7,8.4,3.6,9.5v0.7c-3.5-2.3-5.8-8.2-5.8-13.1c0-2.1,1.7-9.4,1.7-11.5c0-3.8-1-6.6-2.9-8.2
		C0.1,46.4,0,46.2,0,46c0-0.2,0.1-0.4,0.5-0.7c1.9-1.7,2.9-4.2,2.9-7.6c0-2.1-1.7-10-1.7-12.2c0-5.2,2.1-10.4,5.8-13.1V13.2z"/>
</g>
<rect x="547.8" y="12.5" width="0.8" height="67"/>
<rect x="550.4" y="12.5" width="2.5" height="67"/>
<rect x="8.5" y="32.1" width="544.4" height="0.5"/>
<rect x="8.5" y="27.2" width="544.4" height="0.5"/>
<rect x="8.5" y="22.2" width="544.4" height="0.5"/>
<rect x="8.5" y="17.2" width="544.4" height="0.5"/>
<rect x="8.5" y="12.3" width="544.4" height="0.5"/>
<g>
	<path d="M20.3,32.2c-4.2,0-8.1-3.1-8.1-6.9c0-3.2,2.3-6.7,6.8-10.5c-0.3-1.2-0.4-2.4-0.4-3.6c0-3.5,1.2-6.8,3.2-8.5
		c1.8,2.5,2.7,4.9,2.7,7.1c0,2.9-1.3,5.6-4.3,8.1l0.9,4.2c0.5,0,0.8-0.1,0.8-0.1c2.6,0,4.8,2,4.8,4.7c0,1.9-1.4,3.7-3.6,4.8
		c0-0.1,0.9,3.8,0.9,4.3c0,2.5-2.3,4.2-4.9,4.2c-2,0-3.6-1.3-3.6-3.4c0-1.4,1-2.6,2.4-2.6c1.3,0,2.3,1.3,2.3,2.5
		c0,1.4-1.2,2.3-2.7,2.5c0.6,0.3,1.2,0.5,1.9,0.5c2.1,0,4.1-1.6,4.1-3.6c0-0.2,0-0.4-0.1-0.6l-0.8-3.7
		C21.9,32.1,21.2,32.2,20.3,32.2z M18.1,27c0,1,0.5,1.9,1.6,2.5c-1.8-0.3-3-1.4-3-3.1c0-2,1.7-3.7,3.8-4.1l-0.8-4
		C16,21.1,14,23.8,14,26.4c0,2.9,2.8,5.3,6,5.3c0.9,0,1.7-0.2,2.4-0.5L21,24.4C19.4,24.6,18.1,25.6,18.1,27z M22.1,5.6
		c-1.6,0-2.9,3.7-2.9,7c0,0.7,0,1.3,0.2,1.9c2.7-2.4,4-4.5,4-6.5c0-0.9-0.3-1.7-1-2.4C22.4,5.7,22.3,5.6,22.1,5.6z M24.9,27.5
		c0-1.6-1.2-3.3-2.9-3.3c-0.1,0-0.2,0-0.5,0l1.4,6.6C24.2,30,24.9,28.8,24.9,27.5z"/>
</g>
<polygon fill-rule="evenodd" clip-rule="evenodd" points="43.6,23.7 108.6,18.7 108.6,16.2 43.6,21.2 "/>
<polygon fill-rule="evenodd" clip-rule="evenodd" points="43.6,20 108.6,15 108.6,12.5 43.6,17.5 "/>
<polygon fill-rule="evenodd" clip-rule="evenodd" points="128.4,34.8 193.2,29.9 193.2,27.4 128.4,32.4 "/>
<polygon fill-rule="evenodd" clip-rule="evenodd" points="128.4,38.6 193.2,33.6 193.2,31.1 128.4,36.1 "/>
<polygon fill-rule="evenodd" clip-rule="evenodd" points="214.9,24.9 279.7,23.7 279.7,21.2 214.9,22.4 "/>
<polygon fill-rule="evenodd" clip-rule="evenodd" points="214.9,28.6 279.7,27.4 279.7,24.9 214.9,26.2 "/>
<polygon fill-rule="evenodd" clip-rule="evenodd" points="301.4,28.6 366.2,33.6 366.2,31.1 301.4,26.2 "/>
<polygon fill-rule="evenodd" clip-rule="evenodd" points="301.4,32.4 366.2,37.3 366.2,34.8 301.4,29.9 "/>
<polygon fill-rule="evenodd" clip-rule="evenodd" points="399.1,13.8 464,18.7 464,16.2 399.1,11.3 "/>
<polygon fill-rule="evenodd" clip-rule="evenodd" points="399.1,10 464,15 464,12.5 399.1,7.6 "/>
<rect x="8.5" y="79.3" width="544.4" height="0.5"/>
<rect x="8.5" y="74.3" width="544.4" height="0.5"/>
<rect x="8.5" y="69.3" width="544.4" height="0.5"/>
<rect x="8.5" y="64.4" width="544.4" height="0.5"/>
<rect x="8.5" y="59.4" width="544.4" height="0.5"/>
<g>
	<path d="M15.7,73.8c2.9-2.6,4.7-6.1,4.7-9.2c0-2.5-1.4-4.4-3.7-4.4c-1.6,0-3.4,1.3-3.4,2.7c0,0.2,0,0.3,0.1,0.3
		c-0.1,0,0.6-0.6,1.4-0.6c0.9,0,1.5,0.8,1.5,1.7c0,1.2-0.9,2.2-2.1,2.2c-1.2,0-2.1-1.3-2.1-2.8c0-2.3,2.3-4.1,4.8-4.1
		c4.7,0,5.9,3.2,5.9,5.8c0,1.6-0.4,2.9-2,5.3C19.1,73.8,14.6,76,13,76c-0.4,0-0.6-0.2-0.6-0.5C13.8,75.1,14.9,74.5,15.7,73.8z
		 M25.7,61.1c0.6,0,1,0.4,1,1c0,0.6-0.4,1-1,1s-1-0.4-1-1C24.7,61.6,25.1,61.1,25.7,61.1z M25.7,66.1c0.6,0,1,0.4,1,1
		c0,0.6-0.4,1-1,1s-1-0.4-1-1C24.7,66.5,25.1,66.1,25.7,66.1z"/>
</g>
<g>
	<path d="M120.4,78.1c-3.2,0-6.1-2.3-6.1-5.1c0-2.4,1.7-5,5.1-7.9c-0.2-0.9-0.3-1.8-0.3-2.7c0-2.6,0.9-5.1,2.4-6.3
		c1.4,1.9,2,3.7,2,5.3c0,2.2-1,4.2-3.2,6.1l0.7,3.1c0.4,0,0.6,0,0.6,0c2,0,3.6,1.5,3.6,3.5c0,1.4-1.1,2.8-2.7,3.6
		c0-0.1,0.6,2.8,0.6,3.3c0,1.9-1.7,3.2-3.7,3.2c-1.5,0-2.7-1-2.7-2.5c0-1.1,0.7-1.9,1.8-1.9c1,0,1.7,1,1.7,1.9c0,1-0.9,1.7-2,1.8
		c0.4,0.2,0.9,0.3,1.4,0.3c1.6,0,3.1-1.2,3.1-2.7c0-0.1,0-0.3,0-0.5l-0.6-2.8C121.6,78,121.1,78.1,120.4,78.1z M118.8,74.2
		c0,0.8,0.4,1.4,1.2,1.9c-1.3-0.2-2.2-1.1-2.2-2.3c0-1.5,1.3-2.8,2.9-3.1l-0.6-3c-2.8,2.1-4.3,4.1-4.3,6.1c0,2.2,2.1,4,4.5,4
		c0.7,0,1.3-0.1,1.8-0.4l-1.1-5.1C119.7,72.4,118.8,73.2,118.8,74.2z M121.8,58.2c-1.2,0-2.2,2.8-2.2,5.3c0,0.5,0,1,0.1,1.4
		c2-1.8,3-3.4,3-4.9c0-0.7-0.3-1.3-0.7-1.8C122,58.2,121.9,58.2,121.8,58.2z M123.9,74.6c0-1.2-0.9-2.4-2.2-2.4c0,0-0.2,0-0.4,0
		l1.1,5C123.4,76.5,123.9,75.6,123.9,74.6z"/>
</g>
<polygon fill-rule="evenodd" clip-rule="evenodd" points="37.1,85.7 102.1,80.7 102.1,78.2 37.1,83.2 "/>
<polygon fill-rule="evenodd" clip-rule="evenodd" points="37.1,89.4 102.1,84.4 102.1,82 37.1,86.9 "/>
<polygon fill-rule="evenodd" clip-rule="evenodd" points="135,75.8 199.7,70.8 199.7,68.3 135,73.3 "/>
<polygon fill-rule="evenodd" clip-rule="evenodd" points="135,72 199.7,67.1 199.7,64.6 135,69.6 "/>
<rect x="221.5" y="54.7" fill-rule="evenodd" clip-rule="evenodd" width="64.8" height="2.5"/>
<rect x="221.5" y="51" fill-rule="evenodd" clip-rule="evenodd" width="64.8" height="2.5"/>
<g>
	<path d="M383,71.5c2.2-2,3.6-4.6,3.6-6.9c0-1.9-1.1-3.3-2.8-3.3c-1.2,0-2.5,1-2.5,2.1c0,0.2,0,0.2,0.1,0.2c0,0,0.4-0.5,1-0.5
		c0.7,0,1.2,0.6,1.2,1.3c0,0.9-0.6,1.7-1.6,1.7s-1.5-1-1.5-2.1c0-1.8,1.7-3.1,3.6-3.1c3.5,0,4.4,2.4,4.4,4.4c0,1.2-0.3,2.2-1.5,4
		c-1.4,2.3-4.8,4-6,4c-0.3,0-0.5-0.1-0.5-0.3C381.6,72.5,382.4,72,383,71.5z M390.5,62c0.4,0,0.7,0.3,0.7,0.7c0,0.4-0.3,0.7-0.7,0.7
		c-0.4,0-0.7-0.3-0.7-0.7C389.7,62.3,390,62,390.5,62z M390.5,65.7c0.4,0,0.7,0.3,0.7,0.7s-0.3,0.7-0.7,0.7c-0.4,0-0.7-0.3-0.7-0.7
		S390,65.7,390.5,65.7z"/>
</g>
<polygon fill-rule="evenodd" clip-rule="evenodd" points="307.9,65.8 372.7,70.8 372.7,68.3 307.9,63.4 "/>
<polygon fill-rule="evenodd" clip-rule="evenodd" points="307.9,62.1 372.7,67.1 372.7,64.6 307.9,59.6 "/>
<polygon fill-rule="evenodd" clip-rule="evenodd" points="392.6,75.8 457.5,80.7 457.5,78.2 392.6,73.3 "/>
<polygon fill-rule="evenodd" clip-rule="evenodd" points="392.6,79.5 457.5,84.4 457.5,82 392.6,77 "/>
<rect x="35.1" y="36.9" width="10.5" height="0.8"/>
<rect x="43.4" y="17.6" width="0.5" height="18.9"/>
<g>
	<path d="M37,38.2c0-1.8,2.5-3.5,4.5-3.5c1.3,0,2.3,0.7,2.3,1.7c0,1.7-2.5,3.5-4.6,3.5C38,39.9,37,39.3,37,38.2z"/>
</g>
<rect x="65.1" y="16.1" width="0.5" height="18"/>
<g>
	<path d="M58.7,35.7c0-1.8,2.5-3.5,4.5-3.5c1.3,0,2.3,0.7,2.3,1.7c0,1.7-2.5,3.5-4.6,3.5C59.7,37.4,58.7,36.8,58.7,35.7z"/>
</g>
<rect x="86.7" y="14.4" width="0.5" height="17.2"/>
<g>
	<path d="M80.2,33.2c0-1.8,2.5-3.5,4.5-3.5c1.3,0,2.3,0.7,2.3,1.7c0,1.7-2.5,3.5-4.6,3.5C81.2,34.9,80.2,34.3,80.2,33.2z"/>
</g>
<rect x="108.4" y="12.7" width="0.5" height="14"/>
<g>
	<path d="M101.9,28.3c0-1.8,2.5-3.5,4.5-3.5c1.3,0,2.3,0.7,2.3,1.7c0,1.7-2.5,3.5-4.6,3.5C102.9,30,101.9,29.3,101.9,28.3z"/>
</g>
<rect x="128.2" y="25.7" width="0.5" height="12.7"/>
<g>
	<path d="M128.3,25.8c0-1.8,2.5-3.5,4.5-3.5c1.3,0,2.3,0.7,2.3,1.7c0,1.7-2.5,3.5-4.6,3.5C129.3,27.5,128.3,26.9,128.3,25.8z"/>
</g>
<rect x="149.8" y="20.7" width="0.5" height="16.1"/>
<g>
	<path d="M149.8,20.8c0-1.8,2.5-3.5,4.5-3.5c1.3,0,2.3,0.7,2.3,1.7c0,1.7-2.5,3.5-4.6,3.5C150.8,22.5,149.8,21.9,149.8,20.8z"/>
</g>
<rect x="171.5" y="18.3" width="0.5" height="16.9"/>
<g>
	<path d="M171.5,18.3c0-1.8,2.5-3.5,4.5-3.5c1.3,0,2.3,0.7,2.3,1.7c0,1.7-2.5,3.5-4.6,3.5C172.5,20.1,171.5,19.4,171.5,18.3z"/>
</g>
<rect x="193" y="15.8" width="0.5" height="17.7"/>
<g>
	<path d="M193.1,15.9c0-1.8,2.5-3.5,4.5-3.5c1.3,0,2.3,0.7,2.3,1.7c0,1.7-2.5,3.5-4.6,3.5C194.1,17.6,193.1,16.9,193.1,15.9z"/>
</g>
<rect x="214.7" y="10.8" width="0.5" height="17.7"/>
<g>
	<path d="M214.8,10.9c0-1.8,2.5-3.5,4.5-3.5c1.3,0,2.3,0.7,2.3,1.7c0,1.7-2.5,3.5-4.6,3.5C215.8,12.6,214.8,12,214.8,10.9z"/>
</g>
<rect x="234.5" y="7.2" width="10.5" height="0.8"/>
<rect x="236.3" y="8.3" width="0.5" height="19.8"/>
<g>
	<path d="M236.3,8.4c0-1.8,2.5-3.5,4.5-3.5c1.3,0,2.3,0.7,2.3,1.7c0,1.7-2.5,3.5-4.6,3.5C237.3,10.1,236.3,9.5,236.3,8.4z"/>
</g>
<rect x="256.2" y="7.2" width="10.5" height="0.8"/>
<rect x="256.2" y="2.2" width="10.5" height="0.8"/>
<rect x="258" y="3.4" width="0.5" height="24.3"/>
<g>
	<path d="M258,3.5c0-1.8,2.5-3.5,4.5-3.5c1.3,0,2.3,0.7,2.3,1.7c0,1.7-2.5,3.5-4.6,3.5C259,5.2,258,4.5,258,3.5z"/>
</g>
<rect x="277.7" y="7.2" width="10.5" height="0.8"/>
<rect x="279.5" y="8.3" width="0.5" height="18.9"/>
<g>
	<path d="M279.6,8.4c0-1.8,2.5-3.5,4.5-3.5c1.3,0,2.3,0.7,2.3,1.7c0,1.7-2.5,3.5-4.6,3.5C280.6,10.1,279.6,9.5,279.6,8.4z"/>
</g>
<rect x="301.2" y="10.8" width="0.5" height="21.4"/>
<g>
	<path d="M301.3,10.9c0-1.8,2.5-3.5,4.5-3.5c1.3,0,2.3,0.7,2.3,1.7c0,1.7-2.5,3.5-4.6,3.5C302.3,12.6,301.3,12,301.3,10.9z"/>
</g>
<rect x="322.8" y="15.8" width="0.5" height="18"/>
<g>
	<path d="M322.8,15.9c0-1.8,2.5-3.5,4.5-3.5c1.3,0,2.3,0.7,2.3,1.7c0,1.7-2.5,3.5-4.6,3.5C323.8,17.6,322.8,16.9,322.8,15.9z"/>
</g>
<rect x="344.5" y="18.3" width="0.5" height="17.2"/>
<g>
	<path d="M344.5,18.3c0-1.8,2.5-3.5,4.5-3.5c1.3,0,2.3,0.7,2.3,1.7c0,1.7-2.5,3.5-4.6,3.5C345.5,20.1,344.5,19.4,344.5,18.3z"/>
</g>
<rect x="366" y="20.7" width="0.5" height="16.4"/>
<g>
	<path d="M366.1,20.8c0-1.8,2.5-3.5,4.5-3.5c1.3,0,2.3,0.7,2.3,1.7c0,1.7-2.5,3.5-4.6,3.5C367.1,22.5,366.1,21.9,366.1,20.8z"/>
</g>
<rect x="398.9" y="7.7" width="0.5" height="16.4"/>
<g>
	<path d="M392.4,25.8c0-1.8,2.5-3.5,4.5-3.5c1.3,0,2.3,0.7,2.3,1.7c0,1.7-2.5,3.5-4.6,3.5C393.4,27.5,392.4,26.9,392.4,25.8z"/>
</g>
<rect x="420.6" y="9.3" width="0.5" height="17.4"/>
<g>
	<path d="M414.1,28.3c0-1.8,2.5-3.5,4.5-3.5c1.3,0,2.3,0.7,2.3,1.7c0,1.7-2.5,3.5-4.6,3.5C415.1,30,414.1,29.3,414.1,28.3z"/>
</g>
<rect x="442.1" y="11" width="0.5" height="20.6"/>
<g>
	<path d="M435.7,33.2c0-1.8,2.5-3.5,4.5-3.5c1.3,0,2.3,0.7,2.3,1.7c0,1.7-2.5,3.5-4.6,3.5C436.7,34.9,435.7,34.3,435.7,33.2z"/>
</g>
<rect x="463.8" y="12.7" width="0.5" height="21.4"/>
<g>
	<path d="M457.4,35.7c0-1.8,2.5-3.5,4.5-3.5c1.3,0,2.3,0.7,2.3,1.7c0,1.7-2.5,3.5-4.6,3.5C458.4,37.4,457.4,36.8,457.4,35.7z"/>
</g>
<rect x="477.1" y="36.9" width="10.7" height="0.8"/>
<rect x="485.5" y="20" width="0.5" height="16.6"/>
<g>
	<path d="M483.2,34.6c1.6,0,2.7,0.7,2.7,2c0,1.9-2.3,3.4-4.5,3.4c-1.3,0-2.4-0.7-2.4-1.8C478.9,36.4,481.2,34.6,483.2,34.6z
		 M479.4,38.5c0,0.6,0.4,0.9,1.1,0.9c1.4,0,4.9-2.1,4.9-3.3c0-0.6-0.4-0.9-1.1-0.9C483.1,35.2,479.4,37.2,479.4,38.5z"/>
</g>
<rect x="36.9" y="72.8" width="0.5" height="16.4"/>
<g>
	<path d="M37,72.9c0-1.8,2.5-3.5,4.5-3.5c1.3,0,2.3,0.7,2.3,1.7c0,1.7-2.5,3.5-4.6,3.5C38,74.6,37,74,37,72.9z"/>
</g>
<rect x="58.6" y="70.3" width="0.5" height="17.4"/>
<g>
	<path d="M58.7,70.4c0-1.8,2.5-3.5,4.5-3.5c1.3,0,2.3,0.7,2.3,1.7c0,1.7-2.5,3.5-4.6,3.5C59.7,72.1,58.7,71.5,58.7,70.4z"/>
</g>
<rect x="80.2" y="67.9" width="0.5" height="18.1"/>
<g>
	<path d="M80.2,67.9c0-1.8,2.5-3.5,4.5-3.5c1.3,0,2.3,0.7,2.3,1.7c0,1.7-2.5,3.5-4.6,3.5C81.2,69.7,80.2,69,80.2,67.9z"/>
</g>
<rect x="101.9" y="62.9" width="0.5" height="21.4"/>
<g>
	<path d="M101.9,63c0-1.8,2.5-3.5,4.5-3.5c1.3,0,2.3,0.7,2.3,1.7c0,1.7-2.5,3.5-4.6,3.5C102.9,64.7,101.9,64.1,101.9,63z"/>
</g>
<rect x="126.4" y="84.1" width="10.5" height="0.8"/>
<rect x="126.4" y="89" width="10.5" height="0.8"/>
<rect x="134.7" y="69.7" width="0.5" height="18.9"/>
<g>
	<path d="M128.3,90.3c0-1.8,2.5-3.5,4.5-3.5c1.3,0,2.3,0.7,2.3,1.7c0,1.7-2.5,3.5-4.6,3.5C129.3,92,128.3,91.3,128.3,90.3z"/>
</g>
<rect x="148" y="84.1" width="10.5" height="0.8"/>
<rect x="156.3" y="68.2" width="0.5" height="15.5"/>
<g>
	<path d="M149.8,85.3c0-1.8,2.5-3.5,4.5-3.5c1.3,0,2.3,0.7,2.3,1.7c0,1.7-2.5,3.5-4.6,3.5C150.8,87,149.8,86.4,149.8,85.3z"/>
</g>
<rect x="178" y="66.5" width="0.5" height="14.7"/>
<g>
	<path d="M171.5,82.8c0-1.8,2.5-3.5,4.5-3.5c1.3,0,2.3,0.7,2.3,1.7c0,1.7-2.5,3.5-4.6,3.5C172.5,84.5,171.5,83.9,171.5,82.8z"/>
</g>
<rect x="199.5" y="64.8" width="0.5" height="14"/>
<g>
	<path d="M193.1,80.3c0-1.8,2.5-3.5,4.5-3.5c1.3,0,2.3,0.7,2.3,1.7c0,1.7-2.5,3.5-4.6,3.5C194.1,82.1,193.1,81.4,193.1,80.3z"/>
</g>
<rect x="221.2" y="51.1" width="0.5" height="22.6"/>
<g>
	<path d="M214.8,75.4c0-1.8,2.5-3.5,4.5-3.5c1.3,0,2.3,0.7,2.3,1.7c0,1.7-2.5,3.5-4.6,3.5C215.8,77.1,214.8,76.5,214.8,75.4z"/>
</g>
<rect x="242.8" y="51.1" width="0.5" height="20.2"/>
<g>
	<path d="M236.3,72.9c0-1.8,2.5-3.5,4.5-3.5c1.3,0,2.3,0.7,2.3,1.7c0,1.7-2.5,3.5-4.6,3.5C237.3,74.6,236.3,74,236.3,72.9z"/>
</g>
<rect x="264.5" y="51.1" width="0.5" height="15.2"/>
<g>
	<path d="M258,67.9c0-1.8,2.5-3.5,4.5-3.5c1.3,0,2.3,0.7,2.3,1.7c0,1.7-2.5,3.5-4.6,3.5C259,69.7,258,69,258,67.9z"/>
</g>
<rect x="286" y="51.1" width="0.5" height="20.2"/>
<g>
	<path d="M279.6,72.9c0-1.8,2.5-3.5,4.5-3.5c1.3,0,2.3,0.7,2.3,1.7c0,1.7-2.5,3.5-4.6,3.5C280.6,74.6,279.6,74,279.6,72.9z"/>
</g>
<rect x="307.7" y="59.8" width="0.5" height="14"/>
<g>
	<path d="M301.3,75.4c0-1.8,2.5-3.5,4.5-3.5c1.3,0,2.3,0.7,2.3,1.7c0,1.7-2.5,3.5-4.6,3.5C302.3,77.1,301.3,76.5,301.3,75.4z"/>
</g>
<rect x="329.3" y="61.3" width="0.5" height="17.4"/>
<g>
	<path d="M322.8,80.3c0-1.8,2.5-3.5,4.5-3.5c1.3,0,2.3,0.7,2.3,1.7c0,1.7-2.5,3.5-4.6,3.5C323.8,82.1,322.8,81.4,322.8,80.3z"/>
</g>
<rect x="351" y="63.1" width="0.5" height="18.1"/>
<g>
	<path d="M344.5,82.8c0-1.8,2.5-3.5,4.5-3.5c1.3,0,2.3,0.7,2.3,1.7c0,1.7-2.5,3.5-4.6,3.5C345.5,84.5,344.5,83.9,344.5,82.8z"/>
</g>
<rect x="364.2" y="84.1" width="10.5" height="0.8"/>
<rect x="372.5" y="64.8" width="0.5" height="18.9"/>
<g>
	<path d="M366.1,85.3c0-1.8,2.5-3.5,4.5-3.5c1.3,0,2.3,0.7,2.3,1.7c0,1.7-2.5,3.5-4.6,3.5C367.1,87,366.1,86.4,366.1,85.3z"/>
</g>
<rect x="392.4" y="60.4" width="0.5" height="18.9"/>
<g>
	<path d="M392.4,60.5c0-1.8,2.5-3.5,4.5-3.5c1.3,0,2.3,0.7,2.3,1.7c0,1.7-2.5,3.5-4.6,3.5C393.4,62.2,392.4,61.6,392.4,60.5z"/>
</g>
<rect x="414.1" y="62.9" width="0.5" height="18"/>
<g>
	<path d="M414.1,63c0-1.8,2.5-3.5,4.5-3.5c1.3,0,2.3,0.7,2.3,1.7c0,1.7-2.5,3.5-4.6,3.5C415.1,64.7,414.1,64.1,414.1,63z"/>
</g>
<rect x="435.6" y="67.9" width="0.5" height="14.7"/>
<g>
	<path d="M435.7,67.9c0-1.8,2.5-3.5,4.5-3.5c1.3,0,2.3,0.7,2.3,1.7c0,1.7-2.5,3.5-4.6,3.5C436.7,69.7,435.7,69,435.7,67.9z"/>
</g>
<rect x="457.3" y="70.3" width="0.5" height="14"/>
<g>
	<path d="M457.4,70.4c0-1.8,2.5-3.5,4.5-3.5c1.3,0,2.3,0.7,2.3,1.7c0,1.7-2.5,3.5-4.6,3.5C458.4,72.1,457.4,71.5,457.4,70.4z"/>
</g>
<rect x="485.5" y="54.7" width="0.5" height="16.6"/>
<g>
	<path d="M483.2,69.3c1.6,0,2.7,0.7,2.7,2c0,1.9-2.3,3.4-4.5,3.4c-1.3,0-2.4-0.7-2.4-1.8C478.9,71.1,481.2,69.3,483.2,69.3z
		 M479.4,73.2c0,0.6,0.4,0.9,1.1,0.9c1.4,0,4.9-2.1,4.9-3.3c0-0.6-0.4-0.9-1.1-0.9C483.1,69.9,479.4,72,479.4,73.2z"/>
</g>
</svg>
