<?xml version="1.0" encoding="utf-8"?>
<!-- Generator: Adobe Illustrator 19.0.1, SVG Export Plug-In . SVG Version: 6.00 Build 0)  -->
<!DOCTYPE svg PUBLIC "-//W3C//DTD SVG 1.1//EN" "http://www.w3.org/Graphics/SVG/1.1/DTD/svg11.dtd">
<svg version="1.1" id="Layer_1" xmlns="http://www.w3.org/2000/svg" xmlns:xlink="http://www.w3.org/1999/xlink" x="0px" y="0px"
	 viewBox="0 0 552.9 92" enable-background="new 0 0 552.9 92" xml:space="preserve">
<rect x="8.4" y="17.5" width="0.8" height="67"/>
<g>
	<path d="M7.4,18.1c-1.9,1.1-3.6,5.8-3.6,9.4c0,2.3,1.4,9.9,1.4,12.3c0,5-1.5,8.6-4.6,11.1c3,2.4,4.6,6.1,4.6,11.1
		c0,2.3-1.4,9.9-1.4,12.3c0,3.8,1.7,8.4,3.6,9.5v0.7c-3.5-2.3-5.8-8.2-5.8-13.1c0-2.1,1.7-9.4,1.7-11.5c0-3.8-1-6.6-2.9-8.2
		C0.1,51.4,0,51.2,0,51c0-0.2,0.1-0.4,0.5-0.7c1.9-1.7,2.9-4.2,2.9-7.6c0-2.1-1.7-10-1.7-12.2c0-5.2,2.1-10.4,5.8-13.1V18.1z"/>
</g>
<rect x="547.8" y="17.5" width="0.8" height="67"/>
<rect x="550.4" y="17.5" width="2.5" height="67"/>
<rect x="8.5" y="37.1" width="544.4" height="0.5"/>
<rect x="8.5" y="32.1" width="544.4" height="0.5"/>
<rect x="8.5" y="27.2" width="544.4" height="0.5"/>
<rect x="8.5" y="22.2" width="544.4" height="0.5"/>
<rect x="8.5" y="17.2" width="544.4" height="0.5"/>
<g>
	<path d="M20.3,37.2c-4.2,0-8.1-3.1-8.1-6.9c0-3.2,2.3-6.7,6.8-10.5c-0.3-1.2-0.4-2.4-0.4-3.6c0-3.5,1.2-6.8,3.2-8.5
		c1.8,2.5,2.7,4.9,2.7,7.1c0,2.9-1.3,5.6-4.3,8.1l0.9,4.2c0.5,0,0.8-0.1,0.8-0.1c2.6,0,4.8,2,4.8,4.7c0,1.9-1.4,3.7-3.6,4.8
		c0-0.1,0.9,3.8,0.9,4.3c0,2.5-2.3,4.2-4.9,4.2c-2,0-3.6-1.3-3.6-3.4c0-1.4,1-2.6,2.4-2.6c1.3,0,2.3,1.3,2.3,2.5
		c0,1.4-1.2,2.3-2.7,2.5c0.6,0.3,1.2,0.5,1.9,0.5c2.1,0,4.1-1.6,4.1-3.6c0-0.2,0-0.4-0.1-0.6l-0.8-3.7C21.9,37,21.2,37.2,20.3,37.2z
		 M18.1,31.9c0,1,0.5,1.9,1.6,2.5c-1.8-0.3-3-1.4-3-3.1c0-2,1.7-3.7,3.8-4.1l-0.8-4C16,26,14,28.8,14,31.4c0,2.9,2.8,5.3,6,5.3
		c0.9,0,1.7-0.2,2.4-0.5L21,29.3C19.4,29.6,18.1,30.6,18.1,31.9z M22.1,10.6c-1.6,0-2.9,3.7-2.9,7c0,0.7,0,1.3,0.2,1.9
		c2.7-2.4,4-4.5,4-6.5c0-0.9-0.3-1.7-1-2.4C22.4,10.6,22.3,10.6,22.1,10.6z M24.9,32.5c0-1.6-1.2-3.3-2.9-3.3c-0.1,0-0.2,0-0.5,0
		l1.4,6.6C24.2,34.9,24.9,33.8,24.9,32.5z"/>
</g>
<g>
	<path d="M33.5,10.7v2.8l1-0.3V15l-1,0.3v3.4l1-0.3v1.8l-1,0.3v3.1H33v-3l-1.9,0.6v3h-0.5v-2.8l-1,0.3V20l1-0.3v-3.4l-1,0.3v-1.8
		l1-0.3v-3.1h0.5v3l1.9-0.6v-3H33.5z M33,15.4l-1.9,0.6v3.4l1.9-0.6V15.4z"/>
</g>
<g>
	<path d="M39.7,18.1v2.8l1-0.3v1.8l-1,0.3v3.4l1-0.3v1.8l-1,0.3v3.1h-0.5v-3l-1.9,0.6v3h-0.5v-2.8l-1,0.3v-1.8l1-0.3v-3.4l-1,0.3
		v-1.8l1-0.3v-3.1h0.5v3l1.9-0.6v-3H39.7z M39.2,22.9l-1.9,0.6v3.4l1.9-0.6V22.9z"/>
</g>
<g>
	<path d="M45.9,8.2V11l1-0.3v1.8l-1,0.3v3.4l1-0.3v1.8l-1,0.3v3.1h-0.5v-3l-1.9,0.6v3H43V19l-1,0.3v-1.8l1-0.3v-3.4l-1,0.3v-1.8
		l1-0.3V8.8h0.5v3l1.9-0.6v-3H45.9z M45.4,13l-1.9,0.6V17l1.9-0.6V13z"/>
</g>
<g>
	<path d="M52.1,15.6v2.8l1-0.3v1.8l-1,0.3v3.4l1-0.3v1.8l-1,0.3v3.1h-0.5v-3l-1.9,0.6v3h-0.5v-2.8l-1,0.3v-1.8l1-0.3v-3.4l-1,0.3
		v-1.8l1-0.3v-3.1h0.5v3l1.9-0.6v-3H52.1z M51.6,20.4L49.7,21v3.4l1.9-0.6V20.4z"/>
</g>
<polygon fill-rule="evenodd" clip-rule="evenodd" points="68.5,23.7 129.8,18.7 129.8,16.2 68.5,21.2 "/>
<polygon fill-rule="evenodd" clip-rule="evenodd" points="68.5,20 129.8,15 129.8,12.5 68.5,17.5 "/>
<polygon fill-rule="evenodd" clip-rule="evenodd" points="149.7,38.6 211.1,33.6 211.1,31.1 149.7,36.1 "/>
<polygon fill-rule="evenodd" clip-rule="evenodd" points="149.7,42.3 211.1,37.3 211.1,34.8 149.7,39.8 "/>
<polygon fill-rule="evenodd" clip-rule="evenodd" points="231.4,24.9 292.8,23.7 292.8,21.2 231.4,22.4 "/>
<polygon fill-rule="evenodd" clip-rule="evenodd" points="231.4,28.6 292.8,27.4 292.8,24.9 231.4,26.2 "/>
<polygon fill-rule="evenodd" clip-rule="evenodd" points="313.2,28.6 374.6,33.6 374.6,31.1 313.2,26.2 "/>
<polygon fill-rule="evenodd" clip-rule="evenodd" points="313.2,32.4 374.6,37.3 374.6,34.8 313.2,29.9 "/>
<polygon fill-rule="evenodd" clip-rule="evenodd" points="407.5,13.8 468.9,18.7 468.9,16.2 407.5,11.3 "/>
<polygon fill-rule="evenodd" clip-rule="evenodd" points="407.5,10 468.9,15 468.9,12.5 407.5,7.6 "/>
<rect x="8.5" y="84.2" width="544.4" height="0.5"/>
<rect x="8.5" y="79.3" width="544.4" height="0.5"/>
<rect x="8.5" y="74.3" width="544.4" height="0.5"/>
<rect x="8.5" y="69.3" width="544.4" height="0.5"/>
<rect x="8.5" y="64.4" width="544.4" height="0.5"/>
<g>
	<path d="M15.7,78.8c2.9-2.6,4.7-6.1,4.7-9.2c0-2.5-1.4-4.4-3.7-4.4c-1.6,0-3.4,1.3-3.4,2.7c0,0.2,0,0.3,0.1,0.3
		c-0.1,0,0.6-0.6,1.4-0.6c0.9,0,1.5,0.8,1.5,1.7c0,1.2-0.9,2.2-2.1,2.2c-1.2,0-2.1-1.3-2.1-2.8c0-2.3,2.3-4.1,4.8-4.1
		c4.7,0,5.9,3.2,5.9,5.8c0,1.6-0.4,2.9-2,5.3C19.1,78.7,14.6,81,13,81c-0.4,0-0.6-0.2-0.6-0.5C13.8,80.1,14.9,79.5,15.7,78.8z
		 M25.7,66.1c0.6,0,1,0.4,1,1c0,0.6-0.4,1-1,1s-1-0.4-1-1C24.7,66.5,25.1,66.1,25.7,66.1z M25.7,71c0.6,0,1,0.4,1,1c0,0.6-0.4,1-1,1
		s-1-0.4-1-1C24.7,71.5,25.1,71,25.7,71z"/>
</g>
<g>
	<path d="M33.5,62.7v2.8l1-0.3V67l-1,0.3v3.4l1-0.3v1.8l-1,0.3v3.1H33v-3l-1.9,0.6v3h-0.5v-2.8l-1,0.3v-1.8l1-0.3v-3.4l-1,0.3v-1.8
		l1-0.3v-3.1h0.5v3l1.9-0.6v-3H33.5z M33,67.5l-1.9,0.6v3.4L33,71V67.5z"/>
</g>
<g>
	<path d="M39.7,70.2V73l1-0.3v1.8l-1,0.3v3.4l1-0.3v1.8l-1,0.3v3.1h-0.5v-3l-1.9,0.6v3h-0.5V81l-1,0.3v-1.8l1-0.3v-3.4l-1,0.3v-1.8
		l1-0.3v-3.1h0.5v3l1.9-0.6v-3H39.7z M39.2,75l-1.9,0.6V79l1.9-0.6V75z"/>
</g>
<g>
	<path d="M45.9,60.3v2.8l1-0.3v1.8l-1,0.3v3.4l1-0.3v1.8l-1,0.3v3.1h-0.5v-3l-1.9,0.6v3H43V71l-1,0.3v-1.8l1-0.3v-3.4l-1,0.3v-1.8
		l1-0.3v-3.1h0.5v3l1.9-0.6v-3H45.9z M45.4,65l-1.9,0.6v3.4l1.9-0.6V65z"/>
</g>
<g>
	<path d="M52.1,67.7v2.8l1-0.3V72l-1,0.3v3.4l1-0.3v1.8l-1,0.3v3.1h-0.5v-3l-1.9,0.6v3h-0.5v-2.8l-1,0.3V77l1-0.3v-3.4l-1,0.3v-1.8
		l1-0.3v-3.1h0.5v3l1.9-0.6v-3H52.1z M51.6,72.5l-1.9,0.6v3.4l1.9-0.6V72.5z"/>
</g>
<g>
	<path d="M141.7,83.1c-3.2,0-6.1-2.3-6.1-5.1c0-2.4,1.7-5,5.1-7.9c-0.2-0.9-0.3-1.8-0.3-2.7c0-2.6,0.9-5.1,2.4-6.3
		c1.4,1.9,2,3.7,2,5.3c0,2.2-1,4.2-3.2,6.1l0.7,3.1c0.4,0,0.6,0,0.6,0c2,0,3.6,1.5,3.6,3.5c0,1.4-1.1,2.8-2.7,3.6
		c0-0.1,0.6,2.8,0.6,3.3c0,1.9-1.7,3.2-3.7,3.2c-1.5,0-2.7-1-2.7-2.5c0-1.1,0.7-1.9,1.8-1.9c1,0,1.7,1,1.7,1.9c0,1-0.9,1.7-2,1.8
		c0.4,0.2,0.9,0.3,1.4,0.3c1.6,0,3.1-1.2,3.1-2.7c0-0.1,0-0.3,0-0.5l-0.6-2.8C142.9,83,142.4,83.1,141.7,83.1z M140,79.2
		c0,0.8,0.4,1.4,1.2,1.9c-1.3-0.2-2.2-1.1-2.2-2.3c0-1.5,1.3-2.8,2.9-3.1l-0.6-3c-2.8,2.1-4.3,4.1-4.3,6.1c0,2.2,2.1,4,4.5,4
		c0.7,0,1.3-0.1,1.8-0.4l-1.1-5.1C141,77.4,140,78.1,140,79.2z M143,63.2c-1.2,0-2.2,2.8-2.2,5.3c0,0.5,0,1,0.1,1.4
		c2-1.8,3-3.4,3-4.9c0-0.7-0.3-1.3-0.7-1.8C143.2,63.2,143.1,63.2,143,63.2z M145.1,79.6c0-1.2-0.9-2.4-2.2-2.4c0,0-0.2,0-0.4,0
		l1.1,5C144.6,81.4,145.1,80.6,145.1,79.6z"/>
</g>
<polygon fill-rule="evenodd" clip-rule="evenodd" points="61.9,85.7 123.3,80.7 123.3,78.2 61.9,83.2 "/>
<polygon fill-rule="evenodd" clip-rule="evenodd" points="61.9,89.4 123.3,84.4 123.3,82 61.9,86.9 "/>
<polygon fill-rule="evenodd" clip-rule="evenodd" points="156.2,75.8 217.6,70.8 217.6,68.3 156.2,73.3 "/>
<polygon fill-rule="evenodd" clip-rule="evenodd" points="156.2,72 217.6,67.1 217.6,64.6 156.2,69.6 "/>
<polygon fill-rule="evenodd" clip-rule="evenodd" points="231.4,86.9 292.8,85.7 292.8,83.2 231.4,84.4 "/>
<polygon fill-rule="evenodd" clip-rule="evenodd" points="231.4,90.6 292.8,89.4 292.8,86.9 231.4,88.2 "/>
<g>
	<path d="M389.5,76.5c2.2-2,3.6-4.6,3.6-6.9c0-1.9-1.1-3.3-2.8-3.3c-1.2,0-2.5,1-2.5,2.1c0,0.2,0,0.2,0.1,0.2c0,0,0.4-0.5,1-0.5
		c0.7,0,1.2,0.6,1.2,1.3c0,0.9-0.6,1.7-1.6,1.7s-1.5-1-1.5-2.1c0-1.8,1.7-3.1,3.6-3.1c3.5,0,4.4,2.4,4.4,4.4c0,1.2-0.3,2.2-1.5,4
		c-1.4,2.3-4.8,4-6,4c-0.3,0-0.5-0.1-0.5-0.3C388.1,77.4,388.9,77,389.5,76.5z M397,67c0.4,0,0.7,0.3,0.7,0.7c0,0.4-0.3,0.7-0.7,0.7
		c-0.4,0-0.7-0.3-0.7-0.7C396.2,67.3,396.6,67,397,67z M397,70.7c0.4,0,0.7,0.3,0.7,0.7s-0.3,0.7-0.7,0.7c-0.4,0-0.7-0.3-0.7-0.7
		S396.6,70.7,397,70.7z"/>
</g>
<polygon fill-rule="evenodd" clip-rule="evenodd" points="319.7,65.8 381.1,70.8 381.1,68.3 319.7,63.4 "/>
<polygon fill-rule="evenodd" clip-rule="evenodd" points="319.7,62.1 381.1,67.1 381.1,64.6 319.7,59.6 "/>
<polygon fill-rule="evenodd" clip-rule="evenodd" points="401,75.8 462.3,80.7 462.3,78.2 401,73.3 "/>
<polygon fill-rule="evenodd" clip-rule="evenodd" points="401,79.5 462.3,84.4 462.3,82 401,77 "/>
<rect x="68.2" y="17.6" width="0.5" height="18.9"/>
<g>
	<path d="M61.8,38.2c0-1.8,2.5-3.5,4.5-3.5c1.3,0,2.3,0.7,2.3,1.7c0,1.7-2.5,3.5-4.6,3.5C62.8,39.9,61.8,39.3,61.8,38.2z"/>
</g>
<rect x="88.7" y="16.1" width="0.5" height="18"/>
<g>
	<path d="M82.2,35.7c0-1.8,2.5-3.5,4.5-3.5c1.3,0,2.3,0.7,2.3,1.7c0,1.7-2.5,3.5-4.6,3.5C83.2,37.4,82.2,36.8,82.2,35.7z"/>
</g>
<rect x="109.1" y="14.4" width="0.5" height="17.2"/>
<g>
	<path d="M102.7,33.2c0-1.8,2.5-3.5,4.5-3.5c1.3,0,2.3,0.7,2.3,1.7c0,1.7-2.5,3.5-4.6,3.5C103.7,34.9,102.7,34.3,102.7,33.2z"/>
</g>
<rect x="129.6" y="12.7" width="0.5" height="14"/>
<g>
	<path d="M123.2,28.3c0-1.8,2.5-3.5,4.5-3.5c1.3,0,2.3,0.7,2.3,1.7c0,1.7-2.5,3.5-4.6,3.5C124.1,30,123.2,29.3,123.2,28.3z"/>
</g>
<rect x="149.4" y="25.7" width="0.5" height="16.4"/>
<g>
	<path d="M149.5,25.8c0-1.8,2.5-3.5,4.5-3.5c1.3,0,2.3,0.7,2.3,1.7c0,1.7-2.5,3.5-4.6,3.5C150.5,27.5,149.5,26.9,149.5,25.8z"/>
</g>
<rect x="169.9" y="20.7" width="0.5" height="19.8"/>
<g>
	<path d="M170,20.8c0-1.8,2.5-3.5,4.5-3.5c1.3,0,2.3,0.7,2.3,1.7c0,1.7-2.5,3.5-4.6,3.5C171,22.5,170,21.9,170,20.8z"/>
</g>
<rect x="190.4" y="18.3" width="0.5" height="20.6"/>
<g>
	<path d="M190.4,18.3c0-1.8,2.5-3.5,4.5-3.5c1.3,0,2.3,0.7,2.3,1.7c0,1.7-2.5,3.5-4.6,3.5C191.4,20.1,190.4,19.4,190.4,18.3z"/>
</g>
<rect x="210.8" y="15.8" width="0.5" height="21.4"/>
<g>
	<path d="M210.9,15.9c0-1.8,2.5-3.5,4.5-3.5c1.3,0,2.3,0.7,2.3,1.7c0,1.7-2.5,3.5-4.6,3.5C211.9,17.6,210.9,16.9,210.9,15.9z"/>
</g>
<rect x="229.4" y="12.1" width="10.5" height="0.8"/>
<rect x="231.1" y="10.8" width="0.5" height="17.7"/>
<g>
	<path d="M231.2,10.9c0-1.8,2.5-3.5,4.5-3.5c1.3,0,2.3,0.7,2.3,1.7c0,1.7-2.5,3.5-4.6,3.5C232.2,12.6,231.2,12,231.2,10.9z"/>
</g>
<rect x="249.8" y="12.1" width="10.5" height="0.8"/>
<rect x="249.8" y="7.2" width="10.5" height="0.8"/>
<rect x="251.6" y="8.3" width="0.5" height="19.8"/>
<g>
	<path d="M251.7,8.4c0-1.8,2.5-3.5,4.5-3.5c1.3,0,2.3,0.7,2.3,1.7c0,1.7-2.5,3.5-4.6,3.5C252.7,10.1,251.7,9.5,251.7,8.4z"/>
</g>
<rect x="270.3" y="12.1" width="10.5" height="0.8"/>
<rect x="270.3" y="7.2" width="10.5" height="0.8"/>
<rect x="270.3" y="2.2" width="10.5" height="0.8"/>
<rect x="272.1" y="3.4" width="0.5" height="24.3"/>
<g>
	<path d="M272.1,3.5c0-1.8,2.5-3.5,4.5-3.5c1.3,0,2.3,0.7,2.3,1.7c0,1.7-2.5,3.5-4.6,3.5C273.1,5.2,272.1,4.5,272.1,3.5z"/>
</g>
<rect x="290.7" y="12.1" width="10.5" height="0.8"/>
<rect x="290.7" y="7.2" width="10.5" height="0.8"/>
<rect x="292.5" y="8.3" width="0.5" height="18.9"/>
<g>
	<path d="M292.6,8.4c0-1.8,2.5-3.5,4.5-3.5c1.3,0,2.3,0.7,2.3,1.7c0,1.7-2.5,3.5-4.6,3.5C293.6,10.1,292.6,9.5,292.6,8.4z"/>
</g>
<rect x="311.2" y="12.1" width="10.5" height="0.8"/>
<rect x="313" y="10.8" width="0.5" height="21.4"/>
<g>
	<path d="M313.1,10.9c0-1.8,2.5-3.5,4.5-3.5c1.3,0,2.3,0.7,2.3,1.7c0,1.7-2.5,3.5-4.6,3.5C314,12.6,313.1,12,313.1,10.9z"/>
</g>
<rect x="333.4" y="15.8" width="0.5" height="18"/>
<g>
	<path d="M333.5,15.9c0-1.8,2.5-3.5,4.5-3.5c1.3,0,2.3,0.7,2.3,1.7c0,1.7-2.5,3.5-4.6,3.5C334.5,17.6,333.5,16.9,333.5,15.9z"/>
</g>
<rect x="353.9" y="18.3" width="0.5" height="17.2"/>
<g>
	<path d="M354,18.3c0-1.8,2.5-3.5,4.5-3.5c1.3,0,2.3,0.7,2.3,1.7c0,1.7-2.5,3.5-4.6,3.5C355,20.1,354,19.4,354,18.3z"/>
</g>
<rect x="374.4" y="20.7" width="0.5" height="16.4"/>
<g>
	<path d="M374.4,20.8c0-1.8,2.5-3.5,4.5-3.5c1.3,0,2.3,0.7,2.3,1.7c0,1.7-2.5,3.5-4.6,3.5C375.4,22.5,374.4,21.9,374.4,20.8z"/>
</g>
<rect x="407.2" y="7.7" width="0.5" height="16.4"/>
<g>
	<path d="M400.8,25.8c0-1.8,2.5-3.5,4.5-3.5c1.3,0,2.3,0.7,2.3,1.7c0,1.7-2.5,3.5-4.6,3.5C401.8,27.5,400.8,26.9,400.8,25.8z"/>
</g>
<rect x="427.7" y="9.3" width="0.5" height="17.4"/>
<g>
	<path d="M421.3,28.3c0-1.8,2.5-3.5,4.5-3.5c1.3,0,2.3,0.7,2.3,1.7c0,1.7-2.5,3.5-4.6,3.5C422.2,30,421.3,29.3,421.3,28.3z"/>
</g>
<rect x="448.2" y="11" width="0.5" height="20.6"/>
<g>
	<path d="M441.7,33.2c0-1.8,2.5-3.5,4.5-3.5c1.3,0,2.3,0.7,2.3,1.7c0,1.7-2.5,3.5-4.6,3.5C442.7,34.9,441.7,34.3,441.7,33.2z"/>
</g>
<rect x="468.6" y="12.7" width="0.5" height="21.4"/>
<g>
	<path d="M462.2,35.7c0-1.8,2.5-3.5,4.5-3.5c1.3,0,2.3,0.7,2.3,1.7c0,1.7-2.5,3.5-4.6,3.5C463.2,37.4,462.2,36.8,462.2,35.7z"/>
</g>
<rect x="489.2" y="20" width="0.5" height="16.6"/>
<g>
	<path d="M486.9,34.6c1.6,0,2.7,0.7,2.7,2c0,1.9-2.3,3.4-4.5,3.4c-1.3,0-2.4-0.7-2.4-1.8C482.7,36.4,484.9,34.6,486.9,34.6z
		 M483.1,38.5c0,0.6,0.4,0.9,1.1,0.9c1.4,0,4.9-2.1,4.9-3.3c0-0.6-0.4-0.9-1.1-0.9C486.8,35.2,483.1,37.2,483.1,38.5z"/>
</g>
<rect x="61.7" y="72.8" width="0.5" height="16.4"/>
<g>
	<path d="M61.8,72.9c0-1.8,2.5-3.5,4.5-3.5c1.3,0,2.3,0.7,2.3,1.7c0,1.7-2.5,3.5-4.6,3.5C62.8,74.6,61.8,74,61.8,72.9z"/>
</g>
<rect x="82.2" y="70.3" width="0.5" height="17.4"/>
<g>
	<path d="M82.2,70.4c0-1.8,2.5-3.5,4.5-3.5c1.3,0,2.3,0.7,2.3,1.7c0,1.7-2.5,3.5-4.6,3.5C83.2,72.1,82.2,71.5,82.2,70.4z"/>
</g>
<rect x="102.6" y="67.9" width="0.5" height="18.1"/>
<g>
	<path d="M102.7,67.9c0-1.8,2.5-3.5,4.5-3.5c1.3,0,2.3,0.7,2.3,1.7c0,1.7-2.5,3.5-4.6,3.5C103.7,69.7,102.7,69,102.7,67.9z"/>
</g>
<rect x="123.1" y="62.9" width="0.5" height="21.4"/>
<g>
	<path d="M123.2,63c0-1.8,2.5-3.5,4.5-3.5c1.3,0,2.3,0.7,2.3,1.7c0,1.7-2.5,3.5-4.6,3.5C124.1,64.7,123.2,64.1,123.2,63z"/>
</g>
<rect x="147.7" y="89" width="10.5" height="0.8"/>
<rect x="156" y="69.7" width="0.5" height="18.9"/>
<g>
	<path d="M149.5,90.3c0-1.8,2.5-3.5,4.5-3.5c1.3,0,2.3,0.7,2.3,1.7c0,1.7-2.5,3.5-4.6,3.5C150.5,92,149.5,91.3,149.5,90.3z"/>
</g>
<rect x="176.4" y="68.2" width="0.5" height="15.5"/>
<g>
	<path d="M170,85.3c0-1.8,2.5-3.5,4.5-3.5c1.3,0,2.3,0.7,2.3,1.7c0,1.7-2.5,3.5-4.6,3.5C171,87,170,86.4,170,85.3z"/>
</g>
<rect x="196.9" y="66.5" width="0.5" height="14.7"/>
<g>
	<path d="M190.4,82.8c0-1.8,2.5-3.5,4.5-3.5c1.3,0,2.3,0.7,2.3,1.7c0,1.7-2.5,3.5-4.6,3.5C191.4,84.5,190.4,83.9,190.4,82.8z"/>
</g>
<rect x="217.3" y="64.8" width="0.5" height="14"/>
<g>
	<path d="M210.9,80.3c0-1.8,2.5-3.5,4.5-3.5c1.3,0,2.3,0.7,2.3,1.7c0,1.7-2.5,3.5-4.6,3.5C211.9,82.1,210.9,81.4,210.9,80.3z"/>
</g>
<rect x="231.1" y="75.3" width="0.5" height="15.2"/>
<g>
	<path d="M231.2,75.4c0-1.8,2.5-3.5,4.5-3.5c1.3,0,2.3,0.7,2.3,1.7c0,1.7-2.5,3.5-4.6,3.5C232.2,77.1,231.2,76.5,231.2,75.4z"/>
</g>
<rect x="251.6" y="72.8" width="0.5" height="17.4"/>
<g>
	<path d="M251.7,72.9c0-1.8,2.5-3.5,4.5-3.5c1.3,0,2.3,0.7,2.3,1.7c0,1.7-2.5,3.5-4.6,3.5C252.7,74.6,251.7,74,251.7,72.9z"/>
</g>
<rect x="272.1" y="67.9" width="0.5" height="21.9"/>
<g>
	<path d="M272.1,67.9c0-1.8,2.5-3.5,4.5-3.5c1.3,0,2.3,0.7,2.3,1.7c0,1.7-2.5,3.5-4.6,3.5C273.1,69.7,272.1,69,272.1,67.9z"/>
</g>
<rect x="292.5" y="72.8" width="0.5" height="16.4"/>
<g>
	<path d="M292.6,72.9c0-1.8,2.5-3.5,4.5-3.5c1.3,0,2.3,0.7,2.3,1.7c0,1.7-2.5,3.5-4.6,3.5C293.6,74.6,292.6,74,292.6,72.9z"/>
</g>
<rect x="319.5" y="59.8" width="0.5" height="14"/>
<g>
	<path d="M313.1,75.4c0-1.8,2.5-3.5,4.5-3.5c1.3,0,2.3,0.7,2.3,1.7c0,1.7-2.5,3.5-4.6,3.5C314,77.1,313.1,76.5,313.1,75.4z"/>
</g>
<rect x="340" y="61.3" width="0.5" height="17.4"/>
<g>
	<path d="M333.5,80.3c0-1.8,2.5-3.5,4.5-3.5c1.3,0,2.3,0.7,2.3,1.7c0,1.7-2.5,3.5-4.6,3.5C334.5,82.1,333.5,81.4,333.5,80.3z"/>
</g>
<rect x="360.4" y="63.1" width="0.5" height="18.1"/>
<g>
	<path d="M354,82.8c0-1.8,2.5-3.5,4.5-3.5c1.3,0,2.3,0.7,2.3,1.7c0,1.7-2.5,3.5-4.6,3.5C355,84.5,354,83.9,354,82.8z"/>
</g>
<rect x="380.9" y="64.8" width="0.5" height="18.9"/>
<g>
	<path d="M374.4,85.3c0-1.8,2.5-3.5,4.5-3.5c1.3,0,2.3,0.7,2.3,1.7c0,1.7-2.5,3.5-4.6,3.5C375.4,87,374.4,86.4,374.4,85.3z"/>
</g>
<rect x="398.9" y="59.3" width="10.5" height="0.8"/>
<rect x="400.7" y="60.4" width="0.5" height="18.9"/>
<g>
	<path d="M400.8,60.5c0-1.8,2.5-3.5,4.5-3.5c1.3,0,2.3,0.7,2.3,1.7c0,1.7-2.5,3.5-4.6,3.5C401.8,62.2,400.8,61.6,400.8,60.5z"/>
</g>
<rect x="421.2" y="62.9" width="0.5" height="18"/>
<g>
	<path d="M421.3,63c0-1.8,2.5-3.5,4.5-3.5c1.3,0,2.3,0.7,2.3,1.7c0,1.7-2.5,3.5-4.6,3.5C422.2,64.7,421.3,64.1,421.3,63z"/>
</g>
<rect x="441.6" y="67.9" width="0.5" height="14.7"/>
<g>
	<path d="M441.7,67.9c0-1.8,2.5-3.5,4.5-3.5c1.3,0,2.3,0.7,2.3,1.7c0,1.7-2.5,3.5-4.6,3.5C442.7,69.7,441.7,69,441.7,67.9z"/>
</g>
<rect x="462.1" y="70.3" width="0.5" height="14"/>
<g>
	<path d="M462.2,70.4c0-1.8,2.5-3.5,4.5-3.5c1.3,0,2.3,0.7,2.3,1.7c0,1.7-2.5,3.5-4.6,3.5C463.2,72.1,462.2,71.5,462.2,70.4z"/>
</g>
<rect x="482.6" y="72.8" width="0.5" height="16.6"/>
<g>
	<path d="M486.9,69.3c1.6,0,2.7,0.7,2.7,2c0,1.9-2.3,3.4-4.5,3.4c-1.3,0-2.4-0.7-2.4-1.8C482.7,71.1,484.9,69.3,486.9,69.3z
		 M483.1,73.2c0,0.6,0.4,0.9,1.1,0.9c1.4,0,4.9-2.1,4.9-3.3c0-0.6-0.4-0.9-1.1-0.9C486.8,69.9,483.1,72,483.1,73.2z"/>
</g>
</svg>
