<?xml version="1.0" encoding="utf-8"?>
<!-- Generator: Adobe Illustrator 19.0.1, SVG Export Plug-In . SVG Version: 6.00 Build 0)  -->
<!DOCTYPE svg PUBLIC "-//W3C//DTD SVG 1.1//EN" "http://www.w3.org/Graphics/SVG/1.1/DTD/svg11.dtd">
<svg version="1.1" id="Layer_1" xmlns="http://www.w3.org/2000/svg" xmlns:xlink="http://www.w3.org/1999/xlink" x="0px" y="0px"
	 viewBox="0 0 552.9 81.8" enable-background="new 0 0 552.9 81.8" xml:space="preserve">
<rect x="8.4" y="9.9" width="0.8" height="67"/>
<g>
	<path d="M7.4,10.6c-1.9,1.1-3.6,5.8-3.6,9.4c0,2.3,1.4,9.9,1.4,12.3c0,5-1.5,8.6-4.6,11.1c3,2.4,4.6,6.1,4.6,11.1
		c0,2.3-1.4,9.9-1.4,12.3c0,3.8,1.7,8.4,3.6,9.5v0.7c-3.5-2.3-5.8-8.2-5.8-13.1c0-2.1,1.7-9.4,1.7-11.5c0-3.8-1-6.6-2.9-8.2
		C0.1,43.8,0,43.6,0,43.4c0-0.2,0.1-0.4,0.5-0.7c1.9-1.7,2.9-4.2,2.9-7.6c0-2.1-1.7-10-1.7-12.2c0-5.2,2.1-10.4,5.8-13.1V10.6z"/>
</g>
<rect x="547.8" y="9.9" width="0.8" height="67"/>
<rect x="550.4" y="9.9" width="2.5" height="67"/>
<rect x="8.5" y="29.5" width="544.4" height="0.5"/>
<rect x="8.5" y="24.6" width="544.4" height="0.5"/>
<rect x="8.5" y="19.6" width="544.4" height="0.5"/>
<rect x="8.5" y="14.6" width="544.4" height="0.5"/>
<rect x="8.5" y="9.7" width="544.4" height="0.5"/>
<g>
	<path d="M20.3,29.6c-4.2,0-8.1-3.1-8.1-6.9c0-3.2,2.3-6.7,6.8-10.5c-0.3-1.2-0.4-2.4-0.4-3.6c0-3.5,1.2-6.8,3.2-8.5
		c1.8,2.5,2.7,4.9,2.7,7.1c0,2.9-1.3,5.6-4.3,8.1l0.9,4.2c0.5,0,0.8-0.1,0.8-0.1c2.6,0,4.8,2,4.8,4.7c0,1.9-1.4,3.7-3.6,4.8
		c0-0.1,0.9,3.8,0.9,4.3c0,2.5-2.3,4.2-4.9,4.2c-2,0-3.6-1.3-3.6-3.4c0-1.4,1-2.6,2.4-2.6c1.3,0,2.3,1.3,2.3,2.5
		c0,1.4-1.2,2.3-2.7,2.5c0.6,0.3,1.2,0.5,1.9,0.5c2.1,0,4.1-1.6,4.1-3.6c0-0.2,0-0.4-0.1-0.6l-0.8-3.7
		C21.9,29.5,21.2,29.6,20.3,29.6z M18.1,24.4c0,1,0.5,1.9,1.6,2.5c-1.8-0.3-3-1.4-3-3.1c0-2,1.7-3.7,3.8-4.1l-0.8-4
		C16,18.5,14,21.2,14,23.8c0,2.9,2.8,5.3,6,5.3c0.9,0,1.7-0.2,2.4-0.5L21,21.8C19.4,22,18.1,23,18.1,24.4z M22.1,3
		c-1.6,0-2.9,3.7-2.9,7c0,0.7,0,1.3,0.2,1.9c2.7-2.4,4-4.5,4-6.5c0-0.9-0.3-1.7-1-2.4C22.4,3.1,22.3,3,22.1,3z M24.9,24.9
		c0-1.6-1.2-3.3-2.9-3.3c-0.1,0-0.2,0-0.5,0l1.4,6.6C24.2,27.4,24.9,26.2,24.9,24.9z"/>
</g>
<g>
	<path d="M33.5,3.1v2.8l1-0.3v1.8l-1,0.3v3.4l1-0.3v1.8l-1,0.3v3.1H33v-3l-1.9,0.6v3h-0.5v-2.8l-1,0.3v-1.8l1-0.3V8.7l-1,0.3V7.2
		l1-0.3V3.7h0.5v3L33,6.1v-3H33.5z M33,7.9l-1.9,0.6v3.4l1.9-0.6V7.9z"/>
</g>
<polygon fill-rule="evenodd" clip-rule="evenodd" points="49.8,26 115.1,21.1 115.1,18.6 49.8,23.6 "/>
<polygon fill-rule="evenodd" clip-rule="evenodd" points="49.8,22.3 115.1,17.4 115.1,14.9 49.8,19.8 "/>
<polygon fill-rule="evenodd" clip-rule="evenodd" points="137,16.1 202.2,11.2 202.2,8.7 137,13.6 "/>
<polygon fill-rule="evenodd" clip-rule="evenodd" points="137,12.4 202.2,7.4 202.2,5 137,9.9 "/>
<polygon fill-rule="evenodd" clip-rule="evenodd" points="217.4,27.3 282.8,26 282.8,23.6 217.4,24.8 "/>
<polygon fill-rule="evenodd" clip-rule="evenodd" points="217.4,31 282.8,29.8 282.8,27.3 217.4,28.5 "/>
<polygon fill-rule="evenodd" clip-rule="evenodd" points="311,6.2 376.3,11.2 376.3,8.7 311,3.7 "/>
<polygon fill-rule="evenodd" clip-rule="evenodd" points="311,2.5 376.3,7.4 376.3,5 311,0 "/>
<polygon fill-rule="evenodd" clip-rule="evenodd" points="398.2,21.1 463.4,26 463.4,23.6 398.2,18.6 "/>
<polygon fill-rule="evenodd" clip-rule="evenodd" points="398.2,17.4 463.4,22.3 463.4,19.8 398.2,14.9 "/>
<rect x="8.5" y="76.7" width="544.4" height="0.5"/>
<rect x="8.5" y="71.7" width="544.4" height="0.5"/>
<rect x="8.5" y="66.7" width="544.4" height="0.5"/>
<rect x="8.5" y="61.8" width="544.4" height="0.5"/>
<rect x="8.5" y="56.8" width="544.4" height="0.5"/>
<g>
	<path d="M15.7,71.2c2.9-2.6,4.7-6.1,4.7-9.2c0-2.5-1.4-4.4-3.7-4.4c-1.6,0-3.4,1.3-3.4,2.7c0,0.2,0,0.3,0.1,0.3
		c-0.1,0,0.6-0.6,1.4-0.6c0.9,0,1.5,0.8,1.5,1.7c0,1.2-0.9,2.2-2.1,2.2c-1.2,0-2.1-1.3-2.1-2.8c0-2.3,2.3-4.1,4.8-4.1
		c4.7,0,5.9,3.2,5.9,5.8c0,1.6-0.4,2.9-2,5.3c-1.9,3.1-6.4,5.3-8.1,5.3c-0.4,0-0.6-0.2-0.6-0.5C13.8,72.5,14.9,71.9,15.7,71.2z
		 M25.7,58.5c0.6,0,1,0.4,1,1c0,0.6-0.4,1-1,1s-1-0.4-1-1C24.7,59,25.1,58.5,25.7,58.5z M25.7,63.5c0.6,0,1,0.4,1,1c0,0.6-0.4,1-1,1
		s-1-0.4-1-1C24.7,63.9,25.1,63.5,25.7,63.5z"/>
</g>
<g>
	<path d="M33.5,55.2V58l1-0.3v1.8l-1,0.3v3.4l1-0.3v1.8l-1,0.3v3.1H33v-3l-1.9,0.6v3h-0.5V66l-1,0.3v-1.8l1-0.3v-3.4l-1,0.3v-1.8
		l1-0.3v-3.1h0.5v3l1.9-0.6v-3H33.5z M33,60l-1.9,0.6V64l1.9-0.6V60z"/>
</g>
<polygon fill-rule="evenodd" clip-rule="evenodd" points="49.8,63.2 115.1,58.3 115.1,55.8 49.8,60.8 "/>
<polygon fill-rule="evenodd" clip-rule="evenodd" points="49.8,59.5 115.1,54.6 115.1,52.1 49.8,57 "/>
<polygon fill-rule="evenodd" clip-rule="evenodd" points="130.5,78.1 195.7,73.2 195.7,70.7 130.5,75.6 "/>
<polygon fill-rule="evenodd" clip-rule="evenodd" points="130.5,81.8 195.7,76.9 195.7,74.4 130.5,79.4 "/>
<polygon fill-rule="evenodd" clip-rule="evenodd" points="217.4,64.5 282.8,63.2 282.8,60.8 217.4,62 "/>
<polygon fill-rule="evenodd" clip-rule="evenodd" points="217.4,68.2 282.8,67 282.8,64.5 217.4,65.7 "/>
<polygon fill-rule="evenodd" clip-rule="evenodd" points="304.5,68.2 369.8,73.2 369.8,70.7 304.5,65.7 "/>
<polygon fill-rule="evenodd" clip-rule="evenodd" points="304.5,71.9 369.8,76.9 369.8,74.4 304.5,69.4 "/>
<polygon fill-rule="evenodd" clip-rule="evenodd" points="398.2,53.3 463.4,58.3 463.4,55.8 398.2,50.8 "/>
<polygon fill-rule="evenodd" clip-rule="evenodd" points="398.2,49.6 463.4,54.6 463.4,52.1 398.2,47.1 "/>
<rect x="41.3" y="34.3" width="10.5" height="0.8"/>
<rect x="41.3" y="39.3" width="10.5" height="0.8"/>
<rect x="49.6" y="20" width="0.5" height="21.4"/>
<g>
	<path d="M43.2,43c0-1.8,2.5-3.5,4.5-3.5c1.3,0,2.3,0.7,2.3,1.7c0,1.7-2.5,3.5-4.6,3.5C44.2,44.7,43.2,44.1,43.2,43z"/>
</g>
<rect x="63" y="34.3" width="10.5" height="0.8"/>
<rect x="63" y="39.3" width="10.5" height="0.8"/>
<rect x="71.3" y="18.4" width="0.5" height="20.5"/>
<g>
	<path d="M64.9,40.5c0-1.8,2.5-3.5,4.5-3.5c1.3,0,2.3,0.7,2.3,1.7c0,1.7-2.5,3.5-4.6,3.5C65.9,42.3,64.9,41.6,64.9,40.5z"/>
</g>
<rect x="84.9" y="34.3" width="10.5" height="0.8"/>
<rect x="93.2" y="16.7" width="0.5" height="19.7"/>
<g>
	<path d="M86.7,38.1c0-1.8,2.5-3.5,4.5-3.5c1.3,0,2.3,0.7,2.3,1.7c0,1.7-2.5,3.5-4.6,3.5C87.7,39.8,86.7,39.1,86.7,38.1z"/>
</g>
<rect x="114.9" y="15" width="0.5" height="16.4"/>
<g>
	<path d="M108.4,33.1c0-1.8,2.5-3.5,4.5-3.5c1.3,0,2.3,0.7,2.3,1.7c0,1.7-2.5,3.5-4.6,3.5C109.4,34.8,108.4,34.2,108.4,33.1z"/>
</g>
<rect x="136.7" y="10.1" width="0.5" height="18.9"/>
<g>
	<path d="M130.3,30.6c0-1.8,2.5-3.5,4.5-3.5c1.3,0,2.3,0.7,2.3,1.7c0,1.7-2.5,3.5-4.6,3.5C131.3,32.3,130.3,31.7,130.3,30.6z"/>
</g>
<rect x="158.4" y="8.5" width="0.5" height="15.5"/>
<g>
	<path d="M152,25.7c0-1.8,2.5-3.5,4.5-3.5c1.3,0,2.3,0.7,2.3,1.7c0,1.7-2.5,3.5-4.6,3.5C153,27.4,152,26.7,152,25.7z"/>
</g>
<rect x="180.3" y="6.8" width="0.5" height="14.7"/>
<g>
	<path d="M173.9,23.2c0-1.8,2.5-3.5,4.5-3.5c1.3,0,2.3,0.7,2.3,1.7c0,1.7-2.5,3.5-4.6,3.5C174.8,24.9,173.9,24.3,173.9,23.2z"/>
</g>
<rect x="202" y="5.1" width="0.5" height="14"/>
<g>
	<path d="M195.6,20.7c0-1.8,2.5-3.5,4.5-3.5c1.3,0,2.3,0.7,2.3,1.7c0,1.7-2.5,3.5-4.6,3.5C196.5,22.4,195.6,21.8,195.6,20.7z"/>
</g>
<rect x="217.2" y="15.7" width="0.5" height="15.2"/>
<g>
	<path d="M217.3,15.7c0-1.8,2.5-3.5,4.5-3.5c1.3,0,2.3,0.7,2.3,1.7c0,1.7-2.5,3.5-4.6,3.5C218.2,17.5,217.3,16.8,217.3,15.7z"/>
</g>
<rect x="239" y="13.2" width="0.5" height="17.4"/>
<g>
	<path d="M239.1,13.3c0-1.8,2.5-3.5,4.5-3.5c1.3,0,2.3,0.7,2.3,1.7c0,1.7-2.5,3.5-4.6,3.5C240.1,15,239.1,14.3,239.1,13.3z"/>
</g>
<rect x="260.7" y="8.2" width="0.5" height="21.9"/>
<g>
	<path d="M260.8,8.3c0-1.8,2.5-3.5,4.5-3.5c1.3,0,2.3,0.7,2.3,1.7c0,1.7-2.5,3.5-4.6,3.5C261.8,10,260.8,9.4,260.8,8.3z"/>
</g>
<rect x="282.6" y="13.2" width="0.5" height="16.4"/>
<g>
	<path d="M282.7,13.3c0-1.8,2.5-3.5,4.5-3.5c1.3,0,2.3,0.7,2.3,1.7c0,1.7-2.5,3.5-4.6,3.5C283.7,15,282.7,14.3,282.7,13.3z"/>
</g>
<rect x="310.8" y="0.2" width="0.5" height="14"/>
<g>
	<path d="M304.4,15.7c0-1.8,2.5-3.5,4.5-3.5c1.3,0,2.3,0.7,2.3,1.7c0,1.7-2.5,3.5-4.6,3.5C305.4,17.5,304.4,16.8,304.4,15.7z"/>
</g>
<rect x="332.7" y="1.7" width="0.5" height="17.4"/>
<g>
	<path d="M326.2,20.7c0-1.8,2.5-3.5,4.5-3.5c1.3,0,2.3,0.7,2.3,1.7c0,1.7-2.5,3.5-4.6,3.5C327.2,22.4,326.2,21.8,326.2,20.7z"/>
</g>
<rect x="354.4" y="3.4" width="0.5" height="18.1"/>
<g>
	<path d="M347.9,23.2c0-1.8,2.5-3.5,4.5-3.5c1.3,0,2.3,0.7,2.3,1.7c0,1.7-2.5,3.5-4.6,3.5C348.9,24.9,347.9,24.3,347.9,23.2z"/>
</g>
<rect x="376.1" y="5.1" width="0.5" height="18.9"/>
<g>
	<path d="M369.6,25.7c0-1.8,2.5-3.5,4.5-3.5c1.3,0,2.3,0.7,2.3,1.7c0,1.7-2.5,3.5-4.6,3.5C370.6,27.4,369.6,26.7,369.6,25.7z"/>
</g>
<rect x="397.9" y="15" width="0.5" height="14"/>
<g>
	<path d="M391.5,30.6c0-1.8,2.5-3.5,4.5-3.5c1.3,0,2.3,0.7,2.3,1.7c0,1.7-2.5,3.5-4.6,3.5C392.5,32.3,391.5,31.7,391.5,30.6z"/>
</g>
<rect x="419.6" y="16.6" width="0.5" height="14.9"/>
<g>
	<path d="M413.2,33.1c0-1.8,2.5-3.5,4.5-3.5c1.3,0,2.3,0.7,2.3,1.7c0,1.7-2.5,3.5-4.6,3.5C414.2,34.8,413.2,34.2,413.2,33.1z"/>
</g>
<rect x="433.2" y="34.3" width="10.5" height="0.8"/>
<rect x="441.5" y="18.3" width="0.5" height="18.1"/>
<g>
	<path d="M435.1,38.1c0-1.8,2.5-3.5,4.5-3.5c1.3,0,2.3,0.7,2.3,1.7c0,1.7-2.5,3.5-4.6,3.5C436,39.8,435.1,39.1,435.1,38.1z"/>
</g>
<rect x="454.9" y="34.3" width="10.5" height="0.8"/>
<rect x="454.9" y="39.3" width="10.5" height="0.8"/>
<rect x="463.2" y="20" width="0.5" height="18.9"/>
<g>
	<path d="M456.8,40.5c0-1.8,2.5-3.5,4.5-3.5c1.3,0,2.3,0.7,2.3,1.7c0,1.7-2.5,3.5-4.6,3.5C457.7,42.3,456.8,41.6,456.8,40.5z"/>
</g>
<rect x="476.8" y="34.3" width="10.7" height="0.8"/>
<rect x="476.8" y="39.3" width="10.7" height="0.8"/>
<rect x="485.2" y="19.8" width="0.5" height="21.5"/>
<g>
	<path d="M482.9,39.5c1.6,0,2.7,0.7,2.7,2c0,1.9-2.3,3.4-4.5,3.4c-1.3,0-2.4-0.7-2.4-1.8C478.6,41.2,480.9,39.5,482.9,39.5z
		 M479.1,43.3c0,0.6,0.4,0.9,1.1,0.9c1.4,0,4.9-2.1,4.9-3.3c0-0.6-0.4-0.9-1.1-0.9C482.7,40.1,479.1,42.1,479.1,43.3z"/>
</g>
<rect x="49.6" y="57.2" width="0.5" height="18.9"/>
<g>
	<path d="M43.2,77.7c0-1.8,2.5-3.5,4.5-3.5C49,74.3,50,75,50,76c0,1.7-2.5,3.5-4.6,3.5C44.2,79.5,43.2,78.8,43.2,77.7z"/>
</g>
<rect x="71.3" y="55.6" width="0.5" height="18"/>
<g>
	<path d="M64.9,75.3c0-1.8,2.5-3.5,4.5-3.5c1.3,0,2.3,0.7,2.3,1.7c0,1.7-2.5,3.5-4.6,3.5C65.9,77,64.9,76.3,64.9,75.3z"/>
</g>
<rect x="93.2" y="53.9" width="0.5" height="17.2"/>
<g>
	<path d="M86.7,72.8c0-1.8,2.5-3.5,4.5-3.5c1.3,0,2.3,0.7,2.3,1.7c0,1.7-2.5,3.5-4.6,3.5C87.7,74.5,86.7,73.9,86.7,72.8z"/>
</g>
<rect x="114.9" y="52.2" width="0.5" height="14"/>
<g>
	<path d="M108.4,67.8c0-1.8,2.5-3.5,4.5-3.5c1.3,0,2.3,0.7,2.3,1.7c0,1.7-2.5,3.5-4.6,3.5C109.4,69.5,108.4,68.9,108.4,67.8z"/>
</g>
<rect x="130.2" y="65.3" width="0.5" height="16.4"/>
<g>
	<path d="M130.3,65.3c0-1.8,2.5-3.5,4.5-3.5c1.3,0,2.3,0.7,2.3,1.7c0,1.7-2.5,3.5-4.6,3.5C131.3,67.1,130.3,66.4,130.3,65.3z"/>
</g>
<rect x="151.9" y="60.3" width="0.5" height="19.8"/>
<g>
	<path d="M152,60.4c0-1.8,2.5-3.5,4.5-3.5c1.3,0,2.3,0.7,2.3,1.7c0,1.7-2.5,3.5-4.6,3.5C153,62.1,152,61.5,152,60.4z"/>
</g>
<rect x="173.8" y="57.8" width="0.5" height="20.6"/>
<g>
	<path d="M173.9,57.9c0-1.8,2.5-3.5,4.5-3.5c1.3,0,2.3,0.7,2.3,1.7c0,1.7-2.5,3.5-4.6,3.5C174.8,59.6,173.9,59,173.9,57.9z"/>
</g>
<rect x="195.5" y="55.3" width="0.5" height="21.4"/>
<g>
	<path d="M195.6,55.4c0-1.8,2.5-3.5,4.5-3.5c1.3,0,2.3,0.7,2.3,1.7c0,1.7-2.5,3.5-4.6,3.5C196.5,57.1,195.6,56.5,195.6,55.4z"/>
</g>
<rect x="215.4" y="51.7" width="10.5" height="0.8"/>
<rect x="217.2" y="50.4" width="0.5" height="17.7"/>
<g>
	<path d="M217.3,50.5c0-1.8,2.5-3.5,4.5-3.5c1.3,0,2.3,0.7,2.3,1.7c0,1.7-2.5,3.5-4.6,3.5C218.2,52.2,217.3,51.5,217.3,50.5z"/>
</g>
<rect x="237.3" y="51.7" width="10.5" height="0.8"/>
<rect x="237.3" y="46.7" width="10.5" height="0.8"/>
<rect x="239" y="47.9" width="0.5" height="19.8"/>
<g>
	<path d="M239.1,48c0-1.8,2.5-3.5,4.5-3.5c1.3,0,2.3,0.7,2.3,1.7c0,1.7-2.5,3.5-4.6,3.5C240.1,49.7,239.1,49.1,239.1,48z"/>
</g>
<rect x="259" y="51.7" width="10.5" height="0.8"/>
<rect x="259" y="46.7" width="10.5" height="0.8"/>
<rect x="259" y="41.8" width="10.5" height="0.8"/>
<rect x="260.7" y="42.9" width="0.5" height="24.3"/>
<g>
	<path d="M260.8,43c0-1.8,2.5-3.5,4.5-3.5c1.3,0,2.3,0.7,2.3,1.7c0,1.7-2.5,3.5-4.6,3.5C261.8,44.7,260.8,44.1,260.8,43z"/>
</g>
<rect x="280.8" y="51.7" width="10.5" height="0.8"/>
<rect x="280.8" y="46.7" width="10.5" height="0.8"/>
<rect x="282.6" y="47.9" width="0.5" height="18.9"/>
<g>
	<path d="M282.7,48c0-1.8,2.5-3.5,4.5-3.5c1.3,0,2.3,0.7,2.3,1.7c0,1.7-2.5,3.5-4.6,3.5C283.7,49.7,282.7,49.1,282.7,48z"/>
</g>
<rect x="302.5" y="51.7" width="10.5" height="0.8"/>
<rect x="304.3" y="50.4" width="0.5" height="21.4"/>
<g>
	<path d="M304.4,50.5c0-1.8,2.5-3.5,4.5-3.5c1.3,0,2.3,0.7,2.3,1.7c0,1.7-2.5,3.5-4.6,3.5C305.4,52.2,304.4,51.5,304.4,50.5z"/>
</g>
<rect x="326.2" y="55.3" width="0.5" height="18"/>
<g>
	<path d="M326.2,55.4c0-1.8,2.5-3.5,4.5-3.5c1.3,0,2.3,0.7,2.3,1.7c0,1.7-2.5,3.5-4.6,3.5C327.2,57.1,326.2,56.5,326.2,55.4z"/>
</g>
<rect x="347.9" y="57.8" width="0.5" height="17.2"/>
<g>
	<path d="M347.9,57.9c0-1.8,2.5-3.5,4.5-3.5c1.3,0,2.3,0.7,2.3,1.7c0,1.7-2.5,3.5-4.6,3.5C348.9,59.6,347.9,59,347.9,57.9z"/>
</g>
<rect x="369.6" y="60.3" width="0.5" height="16.4"/>
<g>
	<path d="M369.6,60.4c0-1.8,2.5-3.5,4.5-3.5c1.3,0,2.3,0.7,2.3,1.7c0,1.7-2.5,3.5-4.6,3.5C370.6,62.1,369.6,61.5,369.6,60.4z"/>
</g>
<rect x="397.9" y="47.3" width="0.5" height="16.4"/>
<g>
	<path d="M391.5,65.3c0-1.8,2.5-3.5,4.5-3.5c1.3,0,2.3,0.7,2.3,1.7c0,1.7-2.5,3.5-4.6,3.5C392.5,67.1,391.5,66.4,391.5,65.3z"/>
</g>
<rect x="419.6" y="48.8" width="0.5" height="17.4"/>
<g>
	<path d="M413.2,67.8c0-1.8,2.5-3.5,4.5-3.5c1.3,0,2.3,0.7,2.3,1.7c0,1.7-2.5,3.5-4.6,3.5C414.2,69.5,413.2,68.9,413.2,67.8z"/>
</g>
<rect x="441.5" y="50.5" width="0.5" height="20.6"/>
<g>
	<path d="M435.1,72.8c0-1.8,2.5-3.5,4.5-3.5c1.3,0,2.3,0.7,2.3,1.7c0,1.7-2.5,3.5-4.6,3.5C436,74.5,435.1,73.9,435.1,72.8z"/>
</g>
<rect x="463.2" y="52.2" width="0.5" height="21.4"/>
<g>
	<path d="M456.8,75.3c0-1.8,2.5-3.5,4.5-3.5c1.3,0,2.3,0.7,2.3,1.7c0,1.7-2.5,3.5-4.6,3.5C457.7,77,456.8,76.3,456.8,75.3z"/>
</g>
<rect x="485.2" y="59.5" width="0.5" height="16.6"/>
<g>
	<path d="M482.9,74.2c1.6,0,2.7,0.7,2.7,2c0,1.9-2.3,3.4-4.5,3.4c-1.3,0-2.4-0.7-2.4-1.8C478.6,76,480.9,74.2,482.9,74.2z M479.1,78
		c0,0.6,0.4,0.9,1.1,0.9c1.4,0,4.9-2.1,4.9-3.3c0-0.6-0.4-0.9-1.1-0.9C482.7,74.8,479.1,76.8,479.1,78z"/>
</g>
</svg>
