<?xml version="1.0" encoding="utf-8"?>

<!--
	ScaleBook
	Copyright (c) Leland Jansen 2015. All rights reserved.
-->

<!DOCTYPE svg PUBLIC "-//W3C//DTD SVG 1.1//EN" "http://www.w3.org/Graphics/SVG/1.1/DTD/svg11.dtd">
<svg version="1.1" id="Layer_1" xmlns="http://www.w3.org/2000/svg" xmlns:xlink="http://www.w3.org/1999/xlink" x="0px" y="0px"
	 viewBox="0 0 553 211.5" enable-background="new 0 0 553 211.5" xml:space="preserve">
<rect x="8.4" y="9.7" width="0.8" height="67"/>
<g>
	<path d="M7.4,10.4c-1.9,1.1-3.6,5.8-3.6,9.4c0,2.3,1.4,9.9,1.4,12.3c0,5-1.5,8.6-4.6,11.1c3,2.4,4.6,6.1,4.6,11.1
		c0,2.3-1.4,9.9-1.4,12.3c0,3.8,1.7,8.4,3.6,9.5v0.7c-3.5-2.3-5.8-8.2-5.8-13.1c0-2.1,1.7-9.4,1.7-11.5c0-3.8-1-6.6-2.9-8.2
		C0.1,43.6,0,43.4,0,43.2c0-0.2,0.1-0.4,0.5-0.7c1.9-1.7,2.9-4.2,2.9-7.6c0-2.1-1.7-10-1.7-12.2c0-5.2,2.1-10.4,5.8-13.1V10.4z"/>
</g>
<rect x="8.4" y="132" width="0.8" height="67"/>
<g>
	<path d="M7.4,132.7c-1.9,1.1-3.6,5.8-3.6,9.4c0,2.3,1.4,9.9,1.4,12.3c0,5-1.5,8.6-4.6,11.1c3,2.4,4.6,6.1,4.6,11.1
		c0,2.3-1.4,9.9-1.4,12.3c0,3.8,1.7,8.4,3.6,9.5v0.7c-3.5-2.3-5.8-8.2-5.8-13.1c0-2.1,1.7-9.4,1.7-11.5c0-3.8-1-6.6-2.9-8.2
		c-0.3-0.3-0.5-0.5-0.5-0.7c0-0.2,0.1-0.4,0.5-0.7c1.9-1.7,2.9-4.2,2.9-7.6c0-2.1-1.7-10-1.7-12.2c0-5.2,2.1-10.4,5.8-13.1V132.7z"
		/>
</g>
<rect x="306.2" y="9.7" width="0.8" height="67"/>
<rect x="552.2" y="9.7" width="0.8" height="67"/>
<rect x="356.5" y="132" width="0.8" height="67"/>
<rect x="547.8" y="132" width="0.8" height="67"/>
<rect x="550.4" y="132" width="2.5" height="67"/>
<rect x="8.5" y="29.3" width="544.4" height="0.5"/>
<rect x="8.5" y="24.4" width="544.4" height="0.5"/>
<rect x="8.5" y="19.4" width="544.4" height="0.5"/>
<rect x="8.5" y="14.4" width="544.4" height="0.5"/>
<rect x="8.5" y="9.5" width="544.4" height="0.5"/>
<g>
	<path d="M20.3,29.4c-4.2,0-8.1-3.1-8.1-6.9c0-3.2,2.3-6.7,6.8-10.5c-0.3-1.2-0.4-2.4-0.4-3.6c0-3.5,1.2-6.8,3.2-8.5
		c1.8,2.5,2.7,4.9,2.7,7.1c0,2.9-1.3,5.6-4.3,8.1l0.9,4.2c0.5,0,0.8-0.1,0.8-0.1c2.6,0,4.8,2,4.8,4.7c0,1.9-1.4,3.7-3.6,4.8
		c0-0.1,0.9,3.8,0.9,4.3c0,2.5-2.3,4.2-4.9,4.2c-2,0-3.6-1.3-3.6-3.4c0-1.4,1-2.6,2.4-2.6c1.3,0,2.3,1.3,2.3,2.5
		c0,1.4-1.2,2.3-2.7,2.5c0.6,0.3,1.2,0.5,1.9,0.5c2.1,0,4.1-1.6,4.1-3.6c0-0.2,0-0.4-0.1-0.6l-0.8-3.7
		C21.9,29.3,21.2,29.4,20.3,29.4z M18.1,24.2c0,1,0.5,1.9,1.6,2.5c-1.8-0.3-3-1.4-3-3.1c0-2,1.7-3.7,3.8-4.1l-0.8-4
		C16,18.3,14,21,14,23.6c0,2.9,2.8,5.3,6,5.3c0.9,0,1.7-0.2,2.4-0.5L21,21.6C19.4,21.8,18.1,22.8,18.1,24.2z M22.1,2.8
		c-1.6,0-2.9,3.7-2.9,7c0,0.7,0,1.3,0.2,1.9c2.7-2.4,4-4.5,4-6.5c0-0.9-0.3-1.7-1-2.4C22.4,2.9,22.3,2.8,22.1,2.8z M24.9,24.7
		c0-1.6-1.2-3.3-2.9-3.3c-0.1,0-0.2,0-0.5,0l1.4,6.6C24.2,27.2,24.9,26,24.9,24.7z"/>
</g>
<g>
	<path d="M33.5,2.9v2.8l1-0.3v1.8l-1,0.3V11l1-0.3v1.8l-1,0.3v3.1H33v-3l-1.9,0.6v3h-0.5v-2.8l-1,0.3v-1.8l1-0.3V8.4l-1,0.3V7l1-0.3
		V3.5h0.5v3L33,5.9v-3H33.5z M33,7.7l-1.9,0.6v3.4l1.9-0.6V7.7z"/>
</g>
<g>
	<path d="M39.7,10.3v2.8l1-0.3v1.8l-1,0.3v3.4l1-0.3v1.8l-1,0.3v3.1h-0.5v-3L37.3,21v3h-0.5v-2.8l-1,0.3v-1.8l1-0.3v-3.4l-1,0.3
		v-1.8l1-0.3V11h0.5v3l1.9-0.6v-3H39.7z M39.2,15.1l-1.9,0.6v3.4l1.9-0.6V15.1z"/>
</g>
<g>
	<path d="M45.9,0.4v2.8l1-0.3v1.8l-1,0.3v3.4l1-0.3V10l-1,0.3v3.1h-0.5v-3l-1.9,0.6v3H43v-2.8l-1,0.3V9.7l1-0.3V6l-1,0.3V4.5l1-0.3
		V1h0.5v3l1.9-0.6v-3H45.9z M45.4,5.2l-1.9,0.6v3.4l1.9-0.6V5.2z"/>
</g>
<g>
	<path d="M52.1,7.9v2.8l1-0.3v1.8l-1,0.3v3.4l1-0.3v1.8l-1,0.3v3.1h-0.5v-3l-1.9,0.6v3h-0.5v-2.8l-1,0.3v-1.8l1-0.3v-3.4l-1,0.3
		v-1.8l1-0.3V8.5h0.5v3l1.9-0.6v-3H52.1z M51.6,12.6l-1.9,0.6v3.4l1.9-0.6V12.6z"/>
</g>
<g>
	<path d="M58.3,15.3v2.8l1-0.3v1.8l-1,0.3v3.4l1-0.3v1.8l-1,0.3v3.1h-0.5v-3l-1.9,0.6v3h-0.5v-2.8l-1,0.3v-1.8l1-0.3v-3.4l-1,0.3
		v-1.8l1-0.3v-3.1h0.5v3l1.9-0.6v-3H58.3z M57.8,20.1l-1.9,0.6v3.4l1.9-0.6V20.1z"/>
</g>
<g>
	<path d="M64.5,5.4v2.8l1-0.3v1.8l-1,0.3v3.4l1-0.3v1.8l-1,0.3v3.1H64v-3L62.1,16v3h-0.5v-2.8l-1,0.3v-1.8l1-0.3v-3.4l-1,0.3V9.5
		l1-0.3V6h0.5v3L64,8.3v-3H64.5z M64,10.2l-1.9,0.6v3.4l1.9-0.6V10.2z"/>
</g>
<g>
	<path d="M70.7,12.8v2.8l1-0.3v1.8l-1,0.3v3.4l1-0.3v1.8l-1,0.3v3.1h-0.5v-3l-1.9,0.6v3h-0.5v-2.8l-1,0.3v-1.8l1-0.3v-3.4l-1,0.3
		v-1.8l1-0.3v-3.1h0.5v3l1.9-0.6v-3H70.7z M70.2,17.6l-1.9,0.6v3.4l1.9-0.6V17.6z"/>
</g>
<polygon fill-rule="evenodd" clip-rule="evenodd" points="87.1,25.8 129.5,20.9 129.5,18.4 87.1,23.4 "/>
<polygon fill-rule="evenodd" clip-rule="evenodd" points="87.1,22.1 129.5,17.2 129.5,14.7 87.1,19.6 "/>
<polygon fill-rule="evenodd" clip-rule="evenodd" points="143.6,15.9 186.1,11 186.1,8.5 143.6,13.4 "/>
<polygon fill-rule="evenodd" clip-rule="evenodd" points="143.6,12.2 186.1,7.2 186.1,4.8 143.6,9.7 "/>
<polygon fill-rule="evenodd" clip-rule="evenodd" points="193.7,30.8 236.2,25.8 236.2,23.4 193.7,28.3 "/>
<polygon fill-rule="evenodd" clip-rule="evenodd" points="193.7,34.5 236.2,29.6 236.2,27.1 193.7,32 "/>
<polygon fill-rule="evenodd" clip-rule="evenodd" points="250.3,22.1 292.8,20.9 292.8,18.4 250.3,19.6 "/>
<polygon fill-rule="evenodd" clip-rule="evenodd" points="250.3,25.8 292.8,24.6 292.8,22.1 250.3,23.4 "/>
<polygon fill-rule="evenodd" clip-rule="evenodd" points="314.5,25.8 356.9,30.8 356.9,28.3 314.5,23.4 "/>
<polygon fill-rule="evenodd" clip-rule="evenodd" points="314.5,29.6 356.9,34.5 356.9,32 314.5,27.1 "/>
<rect x="371" y="32" fill-rule="evenodd" clip-rule="evenodd" width="42.5" height="2.5"/>
<rect x="371" y="35.8" fill-rule="evenodd" clip-rule="evenodd" width="42.5" height="2.5"/>
<polygon fill-rule="evenodd" clip-rule="evenodd" points="439.9,25.8 482.3,20.9 482.3,18.4 439.9,23.4 "/>
<polygon fill-rule="evenodd" clip-rule="evenodd" points="439.9,29.6 482.3,24.6 482.3,22.1 439.9,27.1 "/>
<polygon fill-rule="evenodd" clip-rule="evenodd" points="496.4,20.9 538.9,25.8 538.9,23.4 496.4,18.4 "/>
<polygon fill-rule="evenodd" clip-rule="evenodd" points="496.4,24.6 538.9,29.6 538.9,27.1 496.4,22.1 "/>
<rect x="8.5" y="76.4" width="544.4" height="0.5"/>
<rect x="8.5" y="71.5" width="544.4" height="0.5"/>
<rect x="8.5" y="66.5" width="544.4" height="0.5"/>
<rect x="8.5" y="61.6" width="544.4" height="0.5"/>
<rect x="8.5" y="56.6" width="544.4" height="0.5"/>
<g>
	<path d="M15.7,71c2.9-2.6,4.7-6.1,4.7-9.2c0-2.5-1.4-4.4-3.7-4.4c-1.6,0-3.4,1.3-3.4,2.7c0,0.2,0,0.3,0.1,0.3
		c-0.1,0,0.6-0.6,1.4-0.6c0.9,0,1.5,0.8,1.5,1.7c0,1.2-0.9,2.2-2.1,2.2c-1.2,0-2.1-1.3-2.1-2.8c0-2.3,2.3-4.1,4.8-4.1
		c4.7,0,5.9,3.2,5.9,5.8c0,1.6-0.4,2.9-2,5.3c-1.9,3.1-6.4,5.3-8.1,5.3c-0.4,0-0.6-0.2-0.6-0.5C13.8,72.3,14.9,71.7,15.7,71z
		 M25.7,58.3c0.6,0,1,0.4,1,1c0,0.6-0.4,1-1,1s-1-0.4-1-1C24.7,58.8,25.1,58.3,25.7,58.3z M25.7,63.3c0.6,0,1,0.4,1,1
		c0,0.6-0.4,1-1,1s-1-0.4-1-1C24.7,63.7,25.1,63.3,25.7,63.3z"/>
</g>
<g>
	<path d="M33.5,55v2.8l1-0.3v1.8l-1,0.3V63l1-0.3v1.8l-1,0.3V68H33v-3l-1.9,0.6v3h-0.5v-2.8l-1,0.3v-1.8l1-0.3v-3.4l-1,0.3v-1.8
		l1-0.3v-3.1h0.5v3L33,58v-3H33.5z M33,59.8l-1.9,0.6v3.4l1.9-0.6V59.8z"/>
</g>
<g>
	<path d="M39.7,62.4v2.8l1-0.3v1.8l-1,0.3v3.4l1-0.3V72l-1,0.3v3.1h-0.5v-3l-1.9,0.6v3h-0.5v-2.8l-1,0.3v-1.8l1-0.3V68l-1,0.3v-1.8
		l1-0.3v-3.1h0.5v3l1.9-0.6v-3H39.7z M39.2,67.2l-1.9,0.6v3.4l1.9-0.6V67.2z"/>
</g>
<g>
	<path d="M45.9,52.5v2.8l1-0.3v1.8l-1,0.3v3.4l1-0.3V62l-1,0.3v3.1h-0.5v-3l-1.9,0.6v3H43v-2.8l-1,0.3v-1.8l1-0.3V58l-1,0.3v-1.8
		l1-0.3v-3.1h0.5v3l1.9-0.6v-3H45.9z M45.4,57.3l-1.9,0.6v3.4l1.9-0.6V57.3z"/>
</g>
<g>
	<path d="M52.1,59.9v2.8l1-0.3v1.8l-1,0.3V68l1-0.3v1.8l-1,0.3v3.1h-0.5v-3l-1.9,0.6v3h-0.5v-2.8l-1,0.3v-1.8l1-0.3v-3.4l-1,0.3V64
		l1-0.3v-3.1h0.5v3l1.9-0.6v-3H52.1z M51.6,64.7l-1.9,0.6v3.4l1.9-0.6V64.7z"/>
</g>
<g>
	<path d="M58.3,67.4v2.8l1-0.3v1.8l-1,0.3v3.4l1-0.3v1.8l-1,0.3v3.1h-0.5v-3L55.9,78v3h-0.5v-2.8l-1,0.3v-1.8l1-0.3v-3.4l-1,0.3
		v-1.8l1-0.3V68h0.5v3l1.9-0.6v-3H58.3z M57.8,72.2l-1.9,0.6v3.4l1.9-0.6V72.2z"/>
</g>
<g>
	<path d="M64.5,57.5v2.8l1-0.3v1.8l-1,0.3v3.4l1-0.3V67l-1,0.3v3.1H64v-3l-1.9,0.6v3h-0.5v-2.8l-1,0.3v-1.8l1-0.3V63l-1,0.3v-1.8
		l1-0.3v-3.1h0.5v3l1.9-0.6v-3H64.5z M64,62.2l-1.9,0.6v3.4l1.9-0.6V62.2z"/>
</g>
<g>
	<path d="M70.7,64.9v2.8l1-0.3v1.8l-1,0.3V73l1-0.3v1.8l-1,0.3v3.1h-0.5v-3l-1.9,0.6v3h-0.5v-2.8l-1,0.3v-1.8l1-0.3v-3.4l-1,0.3V69
		l1-0.3v-3.1h0.5v3l1.9-0.6v-3H70.7z M70.2,69.7l-1.9,0.6v3.4l1.9-0.6V69.7z"/>
</g>
<polygon fill-rule="evenodd" clip-rule="evenodd" points="87.1,63 129.5,58.1 129.5,55.6 87.1,60.6 "/>
<polygon fill-rule="evenodd" clip-rule="evenodd" points="87.1,59.3 129.5,54.4 129.5,51.9 87.1,56.8 "/>
<polygon fill-rule="evenodd" clip-rule="evenodd" points="137.1,77.9 179.6,73 179.6,70.5 137.1,75.4 "/>
<polygon fill-rule="evenodd" clip-rule="evenodd" points="137.1,81.6 179.6,76.7 179.6,74.2 137.1,79.2 "/>
<polygon fill-rule="evenodd" clip-rule="evenodd" points="193.7,73 236.2,77.9 236.2,75.4 193.7,70.5 "/>
<polygon fill-rule="evenodd" clip-rule="evenodd" points="193.7,76.7 236.2,81.6 236.2,79.2 193.7,74.2 "/>
<polygon fill-rule="evenodd" clip-rule="evenodd" points="256.8,56.8 299.3,58.1 299.3,55.6 256.8,54.4 "/>
<polygon fill-rule="evenodd" clip-rule="evenodd" points="256.8,53.1 299.3,54.4 299.3,51.9 256.8,50.6 "/>
<polygon fill-rule="evenodd" clip-rule="evenodd" points="314.5,82.9 356.9,77.9 356.9,75.4 314.5,80.4 "/>
<polygon fill-rule="evenodd" clip-rule="evenodd" points="314.5,86.6 356.9,81.6 356.9,79.2 314.5,84.1 "/>
<g>
	<path d="M433.7,75.3c-3.2,0-6.1-2.3-6.1-5.1c0-2.4,1.7-5,5.1-7.9c-0.2-0.9-0.3-1.8-0.3-2.7c0-2.6,0.9-5.1,2.4-6.3
		c1.4,1.9,2,3.7,2,5.3c0,2.2-1,4.2-3.2,6.1l0.7,3.1c0.4,0,0.6,0,0.6,0c2,0,3.6,1.5,3.6,3.5c0,1.4-1.1,2.8-2.7,3.6
		c0-0.1,0.6,2.8,0.6,3.3c0,1.9-1.7,3.2-3.7,3.2c-1.5,0-2.7-1-2.7-2.5c0-1.1,0.7-1.9,1.8-1.9c1,0,1.7,1,1.7,1.9c0,1-0.9,1.7-2,1.8
		c0.4,0.2,0.9,0.3,1.4,0.3c1.6,0,3.1-1.2,3.1-2.7c0-0.1,0-0.3,0-0.5l-0.6-2.8C434.9,75.2,434.4,75.3,433.7,75.3z M432.1,71.4
		c0,0.8,0.4,1.4,1.2,1.9c-1.3-0.2-2.2-1.1-2.2-2.3c0-1.5,1.3-2.8,2.9-3.1l-0.6-3C430.5,67,429,69,429,71c0,2.2,2.1,4,4.5,4
		c0.7,0,1.3-0.1,1.8-0.4l-1.1-5.1C433,69.6,432.1,70.4,432.1,71.4z M435.1,55.4c-1.2,0-2.2,2.8-2.2,5.3c0,0.5,0,1,0.1,1.4
		c2-1.8,3-3.4,3-4.9c0-0.7-0.3-1.3-0.7-1.8C435.3,55.4,435.2,55.4,435.1,55.4z M437.2,71.8c0-1.2-0.9-2.4-2.2-2.4c0,0-0.2,0-0.4,0
		l1.1,5C436.6,73.7,437.2,72.8,437.2,71.8z"/>
</g>
<polygon fill-rule="evenodd" clip-rule="evenodd" points="371,73 413.5,68 413.5,65.5 371,70.5 "/>
<polygon fill-rule="evenodd" clip-rule="evenodd" points="371,76.7 413.5,71.7 413.5,69.2 371,74.2 "/>
<polygon fill-rule="evenodd" clip-rule="evenodd" points="446.4,68 488.9,63 488.9,60.6 446.4,65.5 "/>
<polygon fill-rule="evenodd" clip-rule="evenodd" points="446.4,64.3 488.9,59.3 488.9,56.8 446.4,61.8 "/>
<polygon fill-rule="evenodd" clip-rule="evenodd" points="503,58.1 545.4,63 545.4,60.6 503,55.6 "/>
<polygon fill-rule="evenodd" clip-rule="evenodd" points="503,54.4 545.4,59.3 545.4,56.8 503,51.9 "/>
<rect x="8.5" y="151.6" width="544.4" height="0.5"/>
<rect x="8.5" y="146.7" width="544.4" height="0.5"/>
<rect x="8.5" y="141.7" width="544.4" height="0.5"/>
<rect x="8.5" y="136.7" width="544.4" height="0.5"/>
<rect x="8.5" y="131.8" width="544.4" height="0.5"/>
<g>
	<path d="M20.3,151.7c-4.2,0-8.1-3.1-8.1-6.9c0-3.2,2.3-6.7,6.8-10.5c-0.3-1.2-0.4-2.4-0.4-3.6c0-3.5,1.2-6.8,3.2-8.5
		c1.8,2.5,2.7,4.9,2.7,7.1c0,2.9-1.3,5.6-4.3,8.1l0.9,4.2c0.5,0,0.8-0.1,0.8-0.1c2.6,0,4.8,2,4.8,4.7c0,1.9-1.4,3.7-3.6,4.8
		c0-0.1,0.9,3.8,0.9,4.3c0,2.5-2.3,4.2-4.9,4.2c-2,0-3.6-1.3-3.6-3.4c0-1.4,1-2.6,2.4-2.6c1.3,0,2.3,1.3,2.3,2.5
		c0,1.4-1.2,2.3-2.7,2.5c0.6,0.3,1.2,0.5,1.9,0.5c2.1,0,4.1-1.6,4.1-3.6c0-0.2,0-0.4-0.1-0.6l-0.8-3.7
		C21.9,151.6,21.2,151.7,20.3,151.7z M18.1,146.5c0,1,0.5,1.9,1.6,2.5c-1.8-0.3-3-1.4-3-3.1c0-2,1.7-3.7,3.8-4.1l-0.8-4
		c-3.7,2.8-5.7,5.5-5.7,8.1c0,2.9,2.8,5.3,6,5.3c0.9,0,1.7-0.2,2.4-0.5l-1.4-6.8C19.4,144.1,18.1,145.1,18.1,146.5z M22.1,125.1
		c-1.6,0-2.9,3.7-2.9,7c0,0.7,0,1.3,0.2,1.9c2.7-2.4,4-4.5,4-6.5c0-0.9-0.3-1.7-1-2.4C22.4,125.2,22.3,125.1,22.1,125.1z M24.9,147
		c0-1.6-1.2-3.3-2.9-3.3c-0.1,0-0.2,0-0.5,0l1.4,6.6C24.2,149.5,24.9,148.3,24.9,147z"/>
</g>
<g>
	<path d="M33.5,125.2v2.8l1-0.3v1.8l-1,0.3v3.4l1-0.3v1.8l-1,0.3v3.1H33v-3l-1.9,0.6v3h-0.5V136l-1,0.3v-1.8l1-0.3v-3.4l-1,0.3v-1.8
		l1-0.3v-3.1h0.5v3l1.9-0.6v-3H33.5z M33,130l-1.9,0.6v3.4l1.9-0.6V130z"/>
</g>
<g>
	<path d="M39.7,132.6v2.8l1-0.3v1.8l-1,0.3v3.4l1-0.3v1.8l-1,0.3v3.1h-0.5v-3l-1.9,0.6v3h-0.5v-2.8l-1,0.3V142l1-0.3v-3.4l-1,0.3
		v-1.8l1-0.3v-3.1h0.5v3l1.9-0.6v-3H39.7z M39.2,137.4l-1.9,0.6v3.4l1.9-0.6V137.4z"/>
</g>
<g>
	<path d="M45.9,122.7v2.8l1-0.3v1.8l-1,0.3v3.4l1-0.3v1.8l-1,0.3v3.1h-0.5v-3l-1.9,0.6v3H43v-2.8l-1,0.3V132l1-0.3v-3.4l-1,0.3v-1.8
		l1-0.3v-3.1h0.5v3l1.9-0.6v-3H45.9z M45.4,127.5l-1.9,0.6v3.4l1.9-0.6V127.5z"/>
</g>
<g>
	<path d="M52.1,130.2v2.8l1-0.3v1.8l-1,0.3v3.4l1-0.3v1.8l-1,0.3v3.1h-0.5v-3l-1.9,0.6v3h-0.5v-2.8l-1,0.3v-1.8l1-0.3v-3.4l-1,0.3
		v-1.8l1-0.3v-3.1h0.5v3l1.9-0.6v-3H52.1z M51.6,134.9l-1.9,0.6v3.4l1.9-0.6V134.9z"/>
</g>
<g>
	<path d="M58.3,137.6v2.8l1-0.3v1.8l-1,0.3v3.4l1-0.3v1.8l-1,0.3v3.1h-0.5v-3l-1.9,0.6v3h-0.5v-2.8l-1,0.3v-1.8l1-0.3v-3.4l-1,0.3
		v-1.8l1-0.3v-3.1h0.5v3l1.9-0.6v-3H58.3z M57.8,142.4l-1.9,0.6v3.4l1.9-0.6V142.4z"/>
</g>
<g>
	<path d="M64.5,127.7v2.8l1-0.3v1.8l-1,0.3v3.4l1-0.3v1.8l-1,0.3v3.1H64v-3l-1.9,0.6v3h-0.5v-2.8l-1,0.3V137l1-0.3v-3.4l-1,0.3v-1.8
		l1-0.3v-3.1h0.5v3l1.9-0.6v-3H64.5z M64,132.5l-1.9,0.6v3.4l1.9-0.6V132.5z"/>
</g>
<g>
	<path d="M70.7,135.1v2.8l1-0.3v1.8l-1,0.3v3.4l1-0.3v1.8l-1,0.3v3.1h-0.5v-3l-1.9,0.6v3h-0.5v-2.8l-1,0.3v-1.8l1-0.3v-3.4l-1,0.3
		v-1.8l1-0.3v-3.1h0.5v3l1.9-0.6v-3H70.7z M70.2,139.9l-1.9,0.6v3.4l1.9-0.6V139.9z"/>
</g>
<polygon fill-rule="evenodd" clip-rule="evenodd" points="80.5,153.1 129.4,158.1 129.4,155.6 80.5,150.6 "/>
<polygon fill-rule="evenodd" clip-rule="evenodd" points="80.5,156.8 129.4,161.8 129.4,159.3 80.5,154.3 "/>
<polygon fill-rule="evenodd" clip-rule="evenodd" points="162.1,153.1 210.9,148.1 210.9,145.7 162.1,150.6 "/>
<polygon fill-rule="evenodd" clip-rule="evenodd" points="162.1,156.8 210.9,151.9 210.9,149.4 162.1,154.3 "/>
<polygon fill-rule="evenodd" clip-rule="evenodd" points="227.2,144.4 276,143.2 276,140.7 227.2,141.9 "/>
<polygon fill-rule="evenodd" clip-rule="evenodd" points="227.2,148.1 276,146.9 276,144.4 227.2,145.7 "/>
<polygon fill-rule="evenodd" clip-rule="evenodd" points="292.3,148.1 341.1,153.1 341.1,150.6 292.3,145.7 "/>
<polygon fill-rule="evenodd" clip-rule="evenodd" points="292.3,151.9 341.1,156.8 341.1,154.3 292.3,149.4 "/>
<polygon fill-rule="evenodd" clip-rule="evenodd" points="372,133.3 420.6,138.2 420.6,135.7 372,130.8 "/>
<polygon fill-rule="evenodd" clip-rule="evenodd" points="372,129.5 420.6,134.5 420.6,132 372,127.1 "/>
<polygon fill-rule="evenodd" clip-rule="evenodd" points="436.9,143.2 485.8,148.1 485.8,145.7 436.9,140.7 "/>
<polygon fill-rule="evenodd" clip-rule="evenodd" points="436.9,139.5 485.8,144.4 485.8,141.9 436.9,137 "/>
<rect x="8.5" y="198.7" width="544.4" height="0.5"/>
<rect x="8.5" y="193.8" width="544.4" height="0.5"/>
<rect x="8.5" y="188.8" width="544.4" height="0.5"/>
<rect x="8.5" y="183.9" width="544.4" height="0.5"/>
<rect x="8.5" y="178.9" width="544.4" height="0.5"/>
<g>
	<path d="M20.3,198.8c-4.2,0-8.1-3.1-8.1-6.9c0-3.2,2.3-6.7,6.8-10.5c-0.3-1.2-0.4-2.4-0.4-3.6c0-3.5,1.2-6.8,3.2-8.5
		c1.8,2.5,2.7,4.9,2.7,7.1c0,2.9-1.3,5.6-4.3,8.1l0.9,4.2c0.5,0,0.8-0.1,0.8-0.1c2.6,0,4.8,2,4.8,4.7c0,1.9-1.4,3.7-3.6,4.8
		c0-0.1,0.9,3.8,0.9,4.3c0,2.5-2.3,4.2-4.9,4.2c-2,0-3.6-1.3-3.6-3.4c0-1.4,1-2.6,2.4-2.6c1.3,0,2.3,1.3,2.3,2.5
		c0,1.4-1.2,2.3-2.7,2.5c0.6,0.3,1.2,0.5,1.9,0.5c2.1,0,4.1-1.6,4.1-3.6c0-0.2,0-0.4-0.1-0.6l-0.8-3.7
		C21.9,198.7,21.2,198.8,20.3,198.8z M18.1,193.6c0,1,0.5,1.9,1.6,2.5c-1.8-0.3-3-1.4-3-3.1c0-2,1.7-3.7,3.8-4.1l-0.8-4
		c-3.7,2.8-5.7,5.5-5.7,8.1c0,2.9,2.8,5.3,6,5.3c0.9,0,1.7-0.2,2.4-0.5L21,191C19.4,191.2,18.1,192.2,18.1,193.6z M22.1,172.3
		c-1.6,0-2.9,3.7-2.9,7c0,0.7,0,1.3,0.2,1.9c2.7-2.4,4-4.5,4-6.5c0-0.9-0.3-1.7-1-2.4C22.4,172.3,22.3,172.3,22.1,172.3z
		 M24.9,194.1c0-1.6-1.2-3.3-2.9-3.3c-0.1,0-0.2,0-0.5,0l1.4,6.6C24.2,196.6,24.9,195.5,24.9,194.1z"/>
</g>
<g>
	<path d="M33.5,172.3v2.8l1-0.3v1.8l-1,0.3v3.4l1-0.3v1.8l-1,0.3v3.1H33v-3l-1.9,0.6v3h-0.5v-2.8l-1,0.3v-1.8l1-0.3v-3.4l-1,0.3
		v-1.8l1-0.3V173h0.5v3l1.9-0.6v-3H33.5z M33,177.1l-1.9,0.6v3.4l1.9-0.6V177.1z"/>
</g>
<g>
	<path d="M39.7,179.8v2.8l1-0.3v1.8l-1,0.3v3.4l1-0.3v1.8l-1,0.3v3.1h-0.5v-3l-1.9,0.6v3h-0.5v-2.8l-1,0.3v-1.8l1-0.3v-3.4l-1,0.3
		v-1.8l1-0.3v-3.1h0.5v3l1.9-0.6v-3H39.7z M39.2,184.5l-1.9,0.6v3.4l1.9-0.6V184.5z"/>
</g>
<g>
	<path d="M45.9,169.8v2.8l1-0.3v1.8l-1,0.3v3.4l1-0.3v1.8l-1,0.3v3.1h-0.5v-3l-1.9,0.6v3H43v-2.8l-1,0.3v-1.8l1-0.3v-3.4l-1,0.3
		v-1.8l1-0.3v-3.1h0.5v3l1.9-0.6v-3H45.9z M45.4,174.6l-1.9,0.6v3.4l1.9-0.6V174.6z"/>
</g>
<g>
	<path d="M52.1,177.3v2.8l1-0.3v1.8l-1,0.3v3.4l1-0.3v1.8l-1,0.3v3.1h-0.5v-3l-1.9,0.6v3h-0.5v-2.8l-1,0.3v-1.8l1-0.3v-3.4l-1,0.3
		v-1.8l1-0.3v-3.1h0.5v3l1.9-0.6v-3H52.1z M51.6,182.1l-1.9,0.6v3.4l1.9-0.6V182.1z"/>
</g>
<g>
	<path d="M58.3,184.7v2.8l1-0.3v1.8l-1,0.3v3.4l1-0.3v1.8l-1,0.3v3.1h-0.5v-3l-1.9,0.6v3h-0.5v-2.8l-1,0.3V194l1-0.3v-3.4l-1,0.3
		v-1.8l1-0.3v-3.1h0.5v3l1.9-0.6v-3H58.3z M57.8,189.5l-1.9,0.6v3.4l1.9-0.6V189.5z"/>
</g>
<g>
	<path d="M64.5,174.8v2.8l1-0.3v1.8l-1,0.3v3.4l1-0.3v1.8l-1,0.3v3.1H64v-3l-1.9,0.6v3h-0.5v-2.8l-1,0.3v-1.8l1-0.3v-3.4l-1,0.3
		v-1.8l1-0.3v-3.1h0.5v3l1.9-0.6v-3H64.5z M64,179.6l-1.9,0.6v3.4L64,183V179.6z"/>
</g>
<g>
	<path d="M70.7,182.2v2.8l1-0.3v1.8l-1,0.3v3.4l1-0.3v1.8l-1,0.3v3.1h-0.5v-3l-1.9,0.6v3h-0.5V193l-1,0.3v-1.8l1-0.3v-3.4l-1,0.3
		v-1.8l1-0.3v-3.1h0.5v3l1.9-0.6v-3H70.7z M70.2,187l-1.9,0.6v3.4l1.9-0.6V187z"/>
</g>
<g>
	<path d="M146.1,191c2.2-2,3.6-4.6,3.6-6.9c0-1.9-1.1-3.3-2.8-3.3c-1.2,0-2.5,1-2.5,2.1c0,0.2,0,0.2,0.1,0.2c0,0,0.4-0.5,1-0.5
		c0.7,0,1.2,0.6,1.2,1.3c0,0.9-0.6,1.7-1.6,1.7c-0.9,0-1.5-1-1.5-2.1c0-1.8,1.7-3.1,3.6-3.1c3.5,0,4.4,2.4,4.4,4.4
		c0,1.2-0.3,2.2-1.5,4c-1.4,2.3-4.8,4-6,4c-0.3,0-0.5-0.1-0.5-0.3C144.7,192,145.5,191.5,146.1,191z M153.6,181.5
		c0.4,0,0.7,0.3,0.7,0.7c0,0.4-0.3,0.7-0.7,0.7s-0.7-0.3-0.7-0.7C152.9,181.8,153.2,181.5,153.6,181.5z M153.6,185.2
		c0.4,0,0.7,0.3,0.7,0.7s-0.3,0.7-0.7,0.7s-0.7-0.3-0.7-0.7S153.2,185.2,153.6,185.2z"/>
</g>
<polygon fill-rule="evenodd" clip-rule="evenodd" points="87.1,190.3 135.9,195.3 135.9,192.8 87.1,187.8 "/>
<polygon fill-rule="evenodd" clip-rule="evenodd" points="87.1,186.6 135.9,191.5 135.9,189.1 87.1,184.1 "/>
<polygon fill-rule="evenodd" clip-rule="evenodd" points="162.1,195.3 210.9,200.2 210.9,197.7 162.1,192.8 "/>
<polygon fill-rule="evenodd" clip-rule="evenodd" points="162.1,199 210.9,203.9 210.9,201.5 162.1,196.5 "/>
<polygon fill-rule="evenodd" clip-rule="evenodd" points="233.7,179.1 282.5,180.4 282.5,177.9 233.7,176.7 "/>
<polygon fill-rule="evenodd" clip-rule="evenodd" points="233.7,175.4 282.5,176.7 282.5,174.2 233.7,172.9 "/>
<polygon fill-rule="evenodd" clip-rule="evenodd" points="292.3,205.2 341.1,200.2 341.1,197.7 292.3,202.7 "/>
<polygon fill-rule="evenodd" clip-rule="evenodd" points="292.3,208.9 341.1,203.9 341.1,201.5 292.3,206.4 "/>
<polygon fill-rule="evenodd" clip-rule="evenodd" points="365.5,195.3 414.1,196.5 414.1,194 365.5,192.8 "/>
<polygon fill-rule="evenodd" clip-rule="evenodd" points="365.5,199 414.1,200.2 414.1,197.7 365.5,196.5 "/>
<polygon fill-rule="evenodd" clip-rule="evenodd" points="436.9,175.4 485.8,180.4 485.8,177.9 436.9,172.9 "/>
<polygon fill-rule="evenodd" clip-rule="evenodd" points="436.9,171.7 485.8,176.7 485.8,174.2 436.9,169.2 "/>
<rect x="78.5" y="34.1" width="10.5" height="0.8"/>
<rect x="78.5" y="39.1" width="10.5" height="0.8"/>
<rect x="86.8" y="19.8" width="0.5" height="18.9"/>
<g>
	<path d="M80.4,40.3c0-1.8,2.5-3.5,4.5-3.5c1.3,0,2.3,0.7,2.3,1.7c0,1.7-2.5,3.5-4.6,3.5C81.4,42.1,80.4,41.4,80.4,40.3z"/>
</g>
<rect x="92.6" y="34.1" width="10.5" height="0.8"/>
<rect x="100.9" y="18.2" width="0.5" height="18"/>
<g>
	<path d="M94.5,37.9c0-1.8,2.5-3.5,4.5-3.5c1.3,0,2.3,0.7,2.3,1.7c0,1.7-2.5,3.5-4.6,3.5C95.5,39.6,94.5,38.9,94.5,37.9z"/>
</g>
<rect x="106.9" y="34.1" width="10.5" height="0.8"/>
<rect x="115.2" y="16.5" width="0.5" height="17.2"/>
<g>
	<path d="M108.8,35.4c0-1.8,2.5-3.5,4.5-3.5c1.3,0,2.3,0.7,2.3,1.7c0,1.7-2.5,3.5-4.6,3.5C109.7,37.1,108.8,36.5,108.8,35.4z"/>
</g>
<rect x="129.3" y="14.8" width="0.5" height="16.4"/>
<g>
	<path d="M122.9,32.9c0-1.8,2.5-3.5,4.5-3.5c1.3,0,2.3,0.7,2.3,1.7c0,1.7-2.5,3.5-4.6,3.5C123.8,34.6,122.9,34,122.9,32.9z"/>
</g>
<rect x="143.4" y="9.9" width="0.5" height="18.9"/>
<g>
	<path d="M137,30.4c0-1.8,2.5-3.5,4.5-3.5c1.3,0,2.3,0.7,2.3,1.7c0,1.7-2.5,3.5-4.6,3.5C137.9,32.1,137,31.5,137,30.4z"/>
</g>
<rect x="157.5" y="8.3" width="0.5" height="18"/>
<g>
	<path d="M151.1,27.9c0-1.8,2.5-3.5,4.5-3.5c1.3,0,2.3,0.7,2.3,1.7c0,1.7-2.5,3.5-4.6,3.5C152,29.7,151.1,29,151.1,27.9z"/>
</g>
<rect x="171.8" y="6.6" width="0.5" height="17.2"/>
<g>
	<path d="M165.3,25.5c0-1.8,2.5-3.5,4.5-3.5c1.3,0,2.3,0.7,2.3,1.7c0,1.7-2.5,3.5-4.6,3.5C166.3,27.2,165.3,26.5,165.3,25.5z"/>
</g>
<g>
	<path d="M162.4,27.1c0-0.8-0.4-1.5-1.1-2.2c-0.7,0.7-1.1,1.4-1.1,2.2h-1.4v-1.4c0.8,0,1.5-0.3,2.2-1c-0.7-0.7-1.4-1.1-2.2-1.1v-1.4
		h1.4c0,0.8,0.4,1.5,1.1,2.2c0.7-0.7,1.1-1.4,1.1-2.2h1.4v1.4c-0.8,0-1.5,0.4-2.2,1.1c0.7,0.7,1.4,1,2,1h0.2v1.4H162.4z"/>
</g>
<rect x="185.9" y="4.9" width="0.5" height="16.4"/>
<g>
	<path d="M179.4,23c0-1.8,2.5-3.5,4.5-3.5c1.3,0,2.3,0.7,2.3,1.7c0,1.7-2.5,3.5-4.6,3.5C180.4,24.7,179.4,24.1,179.4,23z"/>
</g>
<rect x="193.5" y="20.4" width="0.5" height="14"/>
<g>
	<path d="M193.5,20.5c0-1.8,2.5-3.5,4.5-3.5c1.3,0,2.3,0.7,2.3,1.7c0,1.7-2.5,3.5-4.6,3.5C194.5,22.2,193.5,21.6,193.5,20.5z"/>
</g>
<rect x="207.7" y="17.9" width="0.5" height="14.9"/>
<g>
	<path d="M207.8,18c0-1.8,2.5-3.5,4.5-3.5c1.3,0,2.3,0.7,2.3,1.7c0,1.7-2.5,3.5-4.6,3.5C208.8,19.7,207.8,19.1,207.8,18z"/>
</g>
<rect x="221.8" y="15.5" width="0.5" height="15.7"/>
<g>
	<path d="M221.9,15.5c0-1.8,2.5-3.5,4.5-3.5c1.3,0,2.3,0.7,2.3,1.7c0,1.7-2.5,3.5-4.6,3.5C222.9,17.3,221.9,16.6,221.9,15.5z"/>
</g>
<rect x="235.9" y="13" width="0.5" height="16.4"/>
<g>
	<path d="M236,13c0-1.8,2.5-3.5,4.5-3.5c1.3,0,2.3,0.7,2.3,1.7c0,1.7-2.5,3.5-4.6,3.5C237,14.8,236,14.1,236,13z"/>
</g>
<rect x="250.1" y="10.5" width="0.5" height="15.2"/>
<g>
	<path d="M250.1,10.6c0-1.8,2.5-3.5,4.5-3.5c1.3,0,2.3,0.7,2.3,1.7c0,1.7-2.5,3.5-4.6,3.5C251.1,12.3,250.1,11.7,250.1,10.6z"/>
</g>
<rect x="264.3" y="8" width="0.5" height="17.4"/>
<g>
	<path d="M264.4,8.1c0-1.8,2.5-3.5,4.5-3.5c1.3,0,2.3,0.7,2.3,1.7c0,1.7-2.5,3.5-4.6,3.5C265.4,9.8,264.4,9.2,264.4,8.1z"/>
</g>
<g>
	<path d="M261.4,9.7c0-0.8-0.4-1.5-1.1-2.2c-0.7,0.7-1.1,1.4-1.1,2.2h-1.4V8.3c0.8,0,1.5-0.3,2.2-1c-0.7-0.7-1.4-1.1-2.2-1.1V4.7
		h1.4c0,0.8,0.4,1.5,1.1,2.2c0.7-0.7,1.1-1.4,1.1-2.2h1.4v1.4c-0.8,0-1.5,0.4-2.2,1.1c0.7,0.7,1.4,1,2,1h0.2v1.4H261.4z"/>
</g>
<rect x="276.6" y="4.4" width="10.5" height="0.8"/>
<rect x="278.4" y="5.5" width="0.5" height="19.4"/>
<g>
	<path d="M278.5,5.6c0-1.8,2.5-3.5,4.5-3.5c1.3,0,2.3,0.7,2.3,1.7c0,1.7-2.5,3.5-4.6,3.5C279.5,7.3,278.5,6.7,278.5,5.6z"/>
</g>
<rect x="292.5" y="8" width="0.5" height="16.4"/>
<g>
	<path d="M292.6,8.1c0-1.8,2.5-3.5,4.5-3.5c1.3,0,2.3,0.7,2.3,1.7c0,1.7-2.5,3.5-4.6,3.5C293.6,9.8,292.6,9.2,292.6,8.1z"/>
</g>
<rect x="314.2" y="10.5" width="0.5" height="18.9"/>
<g>
	<path d="M314.3,10.6c0-1.8,2.5-3.5,4.5-3.5c1.3,0,2.3,0.7,2.3,1.7c0,1.7-2.5,3.5-4.6,3.5C315.3,12.3,314.3,11.7,314.3,10.6z"/>
</g>
<rect x="328.3" y="13" width="0.5" height="18"/>
<g>
	<path d="M328.4,13c0-1.8,2.5-3.5,4.5-3.5c1.3,0,2.3,0.7,2.3,1.7c0,1.7-2.5,3.5-4.6,3.5C329.4,14.8,328.4,14.1,328.4,13z"/>
</g>
<rect x="342.4" y="15.5" width="0.5" height="17.2"/>
<g>
	<path d="M342.5,15.5c0-1.8,2.5-3.5,4.5-3.5c1.3,0,2.3,0.7,2.3,1.7c0,1.7-2.5,3.5-4.6,3.5C343.5,17.3,342.5,16.6,342.5,15.5z"/>
</g>
<rect x="356.7" y="17.9" width="0.5" height="16.4"/>
<g>
	<path d="M356.8,18c0-1.8,2.5-3.5,4.5-3.5c1.3,0,2.3,0.7,2.3,1.7c0,1.7-2.5,3.5-4.6,3.5C357.8,19.7,356.8,19.1,356.8,18z"/>
</g>
<rect x="370.8" y="20.4" width="0.5" height="17.7"/>
<g>
	<path d="M370.9,20.5c0-1.8,2.5-3.5,4.5-3.5c1.3,0,2.3,0.7,2.3,1.7c0,1.7-2.5,3.5-4.6,3.5C371.9,22.2,370.9,21.6,370.9,20.5z"/>
</g>
<rect x="384.9" y="22.9" width="0.5" height="15.2"/>
<g>
	<path d="M385,23c0-1.8,2.5-3.5,4.5-3.5c1.3,0,2.3,0.7,2.3,1.7c0,1.7-2.5,3.5-4.6,3.5C386,24.7,385,24.1,385,23z"/>
</g>
<rect x="399" y="20.4" width="0.5" height="17.7"/>
<g>
	<path d="M399.1,20.5c0-1.8,2.5-3.5,4.5-3.5c1.3,0,2.3,0.7,2.3,1.7c0,1.7-2.5,3.5-4.6,3.5C400.1,22.2,399.1,21.6,399.1,20.5z"/>
</g>
<rect x="413.3" y="17.9" width="0.5" height="20.2"/>
<g>
	<path d="M413.4,18c0-1.8,2.5-3.5,4.5-3.5c1.3,0,2.3,0.7,2.3,1.7c0,1.7-2.5,3.5-4.6,3.5C414.3,19.7,413.4,19.1,413.4,18z"/>
</g>
<rect x="439.6" y="15.5" width="0.5" height="14"/>
<g>
	<path d="M439.7,15.5c0-1.8,2.5-3.5,4.5-3.5c1.3,0,2.3,0.7,2.3,1.7c0,1.7-2.5,3.5-4.6,3.5C440.7,17.3,439.7,16.6,439.7,15.5z"/>
</g>
<rect x="453.7" y="13" width="0.5" height="14.9"/>
<g>
	<path d="M453.8,13c0-1.8,2.5-3.5,4.5-3.5c1.3,0,2.3,0.7,2.3,1.7c0,1.7-2.5,3.5-4.6,3.5C454.8,14.8,453.8,14.1,453.8,13z"/>
</g>
<rect x="467.8" y="10.5" width="0.5" height="15.7"/>
<g>
	<path d="M467.9,10.6c0-1.8,2.5-3.5,4.5-3.5c1.3,0,2.3,0.7,2.3,1.7c0,1.7-2.5,3.5-4.6,3.5C468.9,12.3,467.9,11.7,467.9,10.6z"/>
</g>
<rect x="482.1" y="8" width="0.5" height="16.4"/>
<g>
	<path d="M482.2,8.1c0-1.8,2.5-3.5,4.5-3.5c1.3,0,2.3,0.7,2.3,1.7c0,1.7-2.5,3.5-4.6,3.5C483.2,9.8,482.2,9.2,482.2,8.1z"/>
</g>
<g>
	<path d="M479.2,9.7c0-0.8-0.4-1.5-1.1-2.2c-0.7,0.7-1.1,1.4-1.1,2.2h-1.4V8.3c0.8,0,1.5-0.3,2.2-1c-0.7-0.7-1.4-1.1-2.2-1.1V4.7
		h1.4c0,0.8,0.4,1.5,1.1,2.2c0.7-0.7,1.1-1.4,1.1-2.2h1.4v1.4c-0.8,0-1.5,0.4-2.2,1.1c0.7,0.7,1.4,1,2,1h0.2v1.4H479.2z"/>
</g>
<rect x="494.4" y="4.4" width="10.5" height="0.8"/>
<rect x="496.2" y="5.5" width="0.5" height="18.9"/>
<g>
	<path d="M496.3,5.6c0-1.8,2.5-3.5,4.5-3.5c1.3,0,2.3,0.7,2.3,1.7c0,1.7-2.5,3.5-4.6,3.5C497.3,7.3,496.3,6.7,496.3,5.6z"/>
</g>
<rect x="510.3" y="8" width="0.5" height="18"/>
<g>
	<path d="M510.4,8.1c0-1.8,2.5-3.5,4.5-3.5c1.3,0,2.3,0.7,2.3,1.7c0,1.7-2.5,3.5-4.6,3.5C511.4,9.8,510.4,9.2,510.4,8.1z"/>
</g>
<rect x="524.4" y="10.5" width="0.5" height="17.2"/>
<g>
	<path d="M524.5,10.6c0-1.8,2.5-3.5,4.5-3.5c1.3,0,2.3,0.7,2.3,1.7c0,1.7-2.5,3.5-4.6,3.5C525.5,12.3,524.5,11.7,524.5,10.6z"/>
</g>
<rect x="538.7" y="13" width="0.5" height="16.4"/>
<g>
	<path d="M538.8,13c0-1.8,2.5-3.5,4.5-3.5c1.3,0,2.3,0.7,2.3,1.7c0,1.7-2.5,3.5-4.6,3.5C539.7,14.8,538.8,14.1,538.8,13z"/>
</g>
<rect x="86.8" y="57" width="0.5" height="16.4"/>
<g>
	<path d="M80.4,75.1c0-1.8,2.5-3.5,4.5-3.5c1.3,0,2.3,0.7,2.3,1.7c0,1.7-2.5,3.5-4.6,3.5C81.4,76.8,80.4,76.1,80.4,75.1z"/>
</g>
<rect x="100.9" y="55.4" width="0.5" height="15.5"/>
<g>
	<path d="M94.5,72.6c0-1.8,2.5-3.5,4.5-3.5c1.3,0,2.3,0.7,2.3,1.7c0,1.7-2.5,3.5-4.6,3.5C95.5,74.3,94.5,73.7,94.5,72.6z"/>
</g>
<rect x="115.2" y="53.7" width="0.5" height="14.7"/>
<g>
	<path d="M108.8,70.1c0-1.8,2.5-3.5,4.5-3.5c1.3,0,2.3,0.7,2.3,1.7c0,1.7-2.5,3.5-4.6,3.5C109.7,71.8,108.8,71.2,108.8,70.1z"/>
</g>
<rect x="129.3" y="52" width="0.5" height="14"/>
<g>
	<path d="M122.9,67.6c0-1.8,2.5-3.5,4.5-3.5c1.3,0,2.3,0.7,2.3,1.7c0,1.7-2.5,3.5-4.6,3.5C123.8,69.3,122.9,68.7,122.9,67.6z"/>
</g>
<rect x="136.9" y="65.1" width="0.5" height="16.4"/>
<g>
	<path d="M137,65.1c0-1.8,2.5-3.5,4.5-3.5c1.3,0,2.3,0.7,2.3,1.7c0,1.7-2.5,3.5-4.6,3.5C137.9,66.9,137,66.2,137,65.1z"/>
</g>
<rect x="151" y="62.6" width="0.5" height="17.4"/>
<g>
	<path d="M151.1,62.7c0-1.8,2.5-3.5,4.5-3.5c1.3,0,2.3,0.7,2.3,1.7c0,1.7-2.5,3.5-4.6,3.5C152,64.4,151.1,63.7,151.1,62.7z"/>
</g>
<rect x="165.3" y="60.1" width="0.5" height="18.1"/>
<g>
	<path d="M165.3,60.2c0-1.8,2.5-3.5,4.5-3.5c1.3,0,2.3,0.7,2.3,1.7c0,1.7-2.5,3.5-4.6,3.5C166.3,61.9,165.3,61.3,165.3,60.2z"/>
</g>
<g>
	<path d="M162.4,61.8c0-0.8-0.4-1.5-1.1-2.2c-0.7,0.7-1.1,1.4-1.1,2.2h-1.4v-1.4c0.8,0,1.5-0.3,2.2-1c-0.7-0.7-1.4-1.1-2.2-1.1v-1.4
		h1.4c0,0.8,0.4,1.5,1.1,2.2c0.7-0.7,1.1-1.4,1.1-2.2h1.4v1.4c-0.8,0-1.5,0.4-2.2,1.1c0.7,0.7,1.4,1,2,1h0.2v1.4H162.4z"/>
</g>
<rect x="179.4" y="57.6" width="0.5" height="18.9"/>
<g>
	<path d="M179.4,57.7c0-1.8,2.5-3.5,4.5-3.5c1.3,0,2.3,0.7,2.3,1.7c0,1.7-2.5,3.5-4.6,3.5C180.4,59.4,179.4,58.8,179.4,57.7z"/>
</g>
<rect x="193.5" y="60.1" width="0.5" height="16.4"/>
<g>
	<path d="M193.5,60.2c0-1.8,2.5-3.5,4.5-3.5c1.3,0,2.3,0.7,2.3,1.7c0,1.7-2.5,3.5-4.6,3.5C194.5,61.9,193.5,61.3,193.5,60.2z"/>
</g>
<rect x="207.7" y="62.6" width="0.5" height="15.5"/>
<g>
	<path d="M207.8,62.7c0-1.8,2.5-3.5,4.5-3.5c1.3,0,2.3,0.7,2.3,1.7c0,1.7-2.5,3.5-4.6,3.5C208.8,64.4,207.8,63.7,207.8,62.7z"/>
</g>
<rect x="221.8" y="65.1" width="0.5" height="14.7"/>
<g>
	<path d="M221.9,65.1c0-1.8,2.5-3.5,4.5-3.5c1.3,0,2.3,0.7,2.3,1.7c0,1.7-2.5,3.5-4.6,3.5C222.9,66.9,221.9,66.2,221.9,65.1z"/>
</g>
<rect x="235.9" y="67.5" width="0.5" height="14"/>
<g>
	<path d="M236,67.6c0-1.8,2.5-3.5,4.5-3.5c1.3,0,2.3,0.7,2.3,1.7c0,1.7-2.5,3.5-4.6,3.5C237,69.3,236,68.7,236,67.6z"/>
</g>
<rect x="256.6" y="50.8" width="0.5" height="17.7"/>
<g>
	<path d="M250.1,70.1c0-1.8,2.5-3.5,4.5-3.5c1.3,0,2.3,0.7,2.3,1.7c0,1.7-2.5,3.5-4.6,3.5C251.1,71.8,250.1,71.2,250.1,70.1z"/>
</g>
<rect x="270.8" y="51.1" width="0.5" height="19.8"/>
<g>
	<path d="M264.4,72.6c0-1.8,2.5-3.5,4.5-3.5c1.3,0,2.3,0.7,2.3,1.7c0,1.7-2.5,3.5-4.6,3.5C265.4,74.3,264.4,73.7,264.4,72.6z"/>
</g>
<rect x="284.9" y="51.6" width="0.5" height="21.9"/>
<g>
	<path d="M278.5,75.1c0-1.8,2.5-3.5,4.5-3.5c1.3,0,2.3,0.7,2.3,1.7c0,1.7-2.5,3.5-4.6,3.5C279.5,76.8,278.5,76.1,278.5,75.1z"/>
</g>
<rect x="299" y="52" width="0.5" height="18.9"/>
<g>
	<path d="M292.6,72.6c0-1.8,2.5-3.5,4.5-3.5c1.3,0,2.3,0.7,2.3,1.7c0,1.7-2.5,3.5-4.6,3.5C293.6,74.3,292.6,73.7,292.6,72.6z"/>
</g>
<rect x="314.2" y="70" width="0.5" height="16.4"/>
<g>
	<path d="M314.3,70.1c0-1.8,2.5-3.5,4.5-3.5c1.3,0,2.3,0.7,2.3,1.7c0,1.7-2.5,3.5-4.6,3.5C315.3,71.8,314.3,71.2,314.3,70.1z"/>
</g>
<rect x="328.3" y="67.5" width="0.5" height="17.4"/>
<g>
	<path d="M328.4,67.6c0-1.8,2.5-3.5,4.5-3.5c1.3,0,2.3,0.7,2.3,1.7c0,1.7-2.5,3.5-4.6,3.5C329.4,69.3,328.4,68.7,328.4,67.6z"/>
</g>
<rect x="342.4" y="65.1" width="0.5" height="18.1"/>
<g>
	<path d="M342.5,65.1c0-1.8,2.5-3.5,4.5-3.5c1.3,0,2.3,0.7,2.3,1.7c0,1.7-2.5,3.5-4.6,3.5C343.5,66.9,342.5,66.2,342.5,65.1z"/>
</g>
<rect x="356.7" y="62.6" width="0.5" height="18.9"/>
<g>
	<path d="M356.8,62.7c0-1.8,2.5-3.5,4.5-3.5c1.3,0,2.3,0.7,2.3,1.7c0,1.7-2.5,3.5-4.6,3.5C357.8,64.4,356.8,63.7,356.8,62.7z"/>
</g>
<rect x="370.8" y="60.1" width="0.5" height="16.4"/>
<g>
	<path d="M370.9,60.2c0-1.8,2.5-3.5,4.5-3.5c1.3,0,2.3,0.7,2.3,1.7c0,1.7-2.5,3.5-4.6,3.5C371.9,61.9,370.9,61.3,370.9,60.2z"/>
</g>
<g>
	<path d="M367.9,61.8c0-0.8-0.4-1.5-1.1-2.2c-0.7,0.7-1.1,1.4-1.1,2.2h-1.4v-1.4c0.8,0,1.5-0.3,2.2-1c-0.7-0.7-1.4-1.1-2.2-1.1v-1.4
		h1.4c0,0.8,0.4,1.5,1.1,2.2c0.7-0.7,1.1-1.4,1.1-2.2h1.4v1.4c-0.8,0-1.5,0.4-2.2,1.1c0.7,0.7,1.4,1,2,1h0.2v1.4H367.9z"/>
</g>
<rect x="384.9" y="57.6" width="0.5" height="17.4"/>
<g>
	<path d="M385,57.7c0-1.8,2.5-3.5,4.5-3.5c1.3,0,2.3,0.7,2.3,1.7c0,1.7-2.5,3.5-4.6,3.5C386,59.4,385,58.8,385,57.7z"/>
</g>
<rect x="399" y="55.1" width="0.5" height="18.1"/>
<g>
	<path d="M399.1,55.2c0-1.8,2.5-3.5,4.5-3.5c1.3,0,2.3,0.7,2.3,1.7c0,1.7-2.5,3.5-4.6,3.5C400.1,56.9,399.1,56.3,399.1,55.2z"/>
</g>
<rect x="411.5" y="51.5" width="10.5" height="0.8"/>
<rect x="413.3" y="52.7" width="0.5" height="18.9"/>
<g>
	<path d="M413.4,52.7c0-1.8,2.5-3.5,4.5-3.5c1.3,0,2.3,0.7,2.3,1.7c0,1.7-2.5,3.5-4.6,3.5C414.3,54.5,413.4,53.8,413.4,52.7z"/>
</g>
<rect x="446.1" y="62" width="0.5" height="16.4"/>
<g>
	<path d="M439.7,80c0-1.8,2.5-3.5,4.5-3.5c1.3,0,2.3,0.7,2.3,1.7c0,1.7-2.5,3.5-4.6,3.5C440.7,81.7,439.7,81.1,439.7,80z"/>
</g>
<rect x="460.3" y="60.4" width="0.5" height="15.5"/>
<g>
	<path d="M453.8,77.5c0-1.8,2.5-3.5,4.5-3.5c1.3,0,2.3,0.7,2.3,1.7c0,1.7-2.5,3.5-4.6,3.5C454.8,79.3,453.8,78.6,453.8,77.5z"/>
</g>
<rect x="474.4" y="58.7" width="0.5" height="14.7"/>
<g>
	<path d="M467.9,75.1c0-1.8,2.5-3.5,4.5-3.5c1.3,0,2.3,0.7,2.3,1.7c0,1.7-2.5,3.5-4.6,3.5C468.9,76.8,467.9,76.1,467.9,75.1z"/>
</g>
<rect x="488.6" y="57" width="0.5" height="14"/>
<g>
	<path d="M482.2,72.6c0-1.8,2.5-3.5,4.5-3.5c1.3,0,2.3,0.7,2.3,1.7c0,1.7-2.5,3.5-4.6,3.5C483.2,74.3,482.2,73.7,482.2,72.6z"/>
</g>
<g>
	<path d="M479.2,74.2c0-0.8-0.4-1.5-1.1-2.2c-0.7,0.7-1.1,1.4-1.1,2.2h-1.4v-1.4c0.8,0,1.5-0.3,2.2-1c-0.7-0.7-1.4-1.1-2.2-1.1v-1.4
		h1.4c0,0.8,0.4,1.5,1.1,2.2c0.7-0.7,1.1-1.4,1.1-2.2h1.4v1.4c-0.8,0-1.5,0.4-2.2,1.1c0.7,0.7,1.4,1,2,1h0.2v1.4H479.2z"/>
</g>
<rect x="502.7" y="52" width="0.5" height="16.4"/>
<g>
	<path d="M496.3,70.1c0-1.8,2.5-3.5,4.5-3.5c1.3,0,2.3,0.7,2.3,1.7c0,1.7-2.5,3.5-4.6,3.5C497.3,71.8,496.3,71.2,496.3,70.1z"/>
</g>
<rect x="516.8" y="53.6" width="0.5" height="17.4"/>
<g>
	<path d="M510.4,72.6c0-1.8,2.5-3.5,4.5-3.5c1.3,0,2.3,0.7,2.3,1.7c0,1.7-2.5,3.5-4.6,3.5C511.4,74.3,510.4,73.7,510.4,72.6z"/>
</g>
<rect x="530.9" y="55.3" width="0.5" height="18.1"/>
<g>
	<path d="M524.5,75.1c0-1.8,2.5-3.5,4.5-3.5c1.3,0,2.3,0.7,2.3,1.7c0,1.7-2.5,3.5-4.6,3.5C525.5,76.8,524.5,76.1,524.5,75.1z"/>
</g>
<rect x="545.2" y="57" width="0.5" height="18.9"/>
<g>
	<path d="M538.8,77.5c0-1.8,2.5-3.5,4.5-3.5c1.3,0,2.3,0.7,2.3,1.7c0,1.7-2.5,3.5-4.6,3.5C539.7,79.3,538.8,78.6,538.8,77.5z"/>
</g>
<rect x="80.3" y="137.8" width="0.5" height="18.9"/>
<g>
	<path d="M80.4,137.8c0-1.8,2.5-3.5,4.5-3.5c1.3,0,2.3,0.7,2.3,1.7c0,1.7-2.5,3.5-4.6,3.5C81.4,139.6,80.4,138.9,80.4,137.8z"/>
</g>
<rect x="96.6" y="140.2" width="0.5" height="18"/>
<g>
	<path d="M96.7,140.3c0-1.8,2.5-3.5,4.5-3.5c1.3,0,2.3,0.7,2.3,1.7c0,1.7-2.5,3.5-4.6,3.5C97.6,142,96.7,141.4,96.7,140.3z"/>
</g>
<rect x="112.9" y="142.7" width="0.5" height="17.2"/>
<g>
	<path d="M112.9,142.8c0-1.8,2.5-3.5,4.5-3.5c1.3,0,2.3,0.7,2.3,1.7c0,1.7-2.5,3.5-4.6,3.5C113.9,144.5,112.9,143.9,112.9,142.8z"/>
</g>
<rect x="129.1" y="145.2" width="0.5" height="16.4"/>
<g>
	<path d="M129.2,145.3c0-1.8,2.5-3.5,4.5-3.5c1.3,0,2.3,0.7,2.3,1.7c0,1.7-2.5,3.5-4.6,3.5C130.2,147,129.2,146.4,129.2,145.3z"/>
</g>
<rect x="161.8" y="142.7" width="0.5" height="14"/>
<g>
	<path d="M161.9,142.8c0-1.8,2.5-3.5,4.5-3.5c1.3,0,2.3,0.7,2.3,1.7c0,1.7-2.5,3.5-4.6,3.5C162.9,144.5,161.9,143.9,161.9,142.8z"/>
</g>
<rect x="178.1" y="140.2" width="0.5" height="14.9"/>
<g>
	<path d="M178.2,140.3c0-1.8,2.5-3.5,4.5-3.5c1.3,0,2.3,0.7,2.3,1.7c0,1.7-2.5,3.5-4.6,3.5C179.2,142,178.2,141.4,178.2,140.3z"/>
</g>
<rect x="194.4" y="137.8" width="0.5" height="15.7"/>
<g>
	<path d="M194.5,137.8c0-1.8,2.5-3.5,4.5-3.5c1.3,0,2.3,0.7,2.3,1.7c0,1.7-2.5,3.5-4.6,3.5C195.5,139.6,194.5,138.9,194.5,137.8z"/>
</g>
<rect x="210.7" y="135.3" width="0.5" height="16.4"/>
<g>
	<path d="M210.8,135.4c0-1.8,2.5-3.5,4.5-3.5c1.3,0,2.3,0.7,2.3,1.7c0,1.7-2.5,3.5-4.6,3.5C211.7,137.1,210.8,136.4,210.8,135.4z"/>
</g>
<rect x="227" y="132.8" width="0.5" height="15.2"/>
<g>
	<path d="M227,132.9c0-1.8,2.5-3.5,4.5-3.5c1.3,0,2.3,0.7,2.3,1.7c0,1.7-2.5,3.5-4.6,3.5C228,134.6,227,134,227,132.9z"/>
</g>
<rect x="243.2" y="130.3" width="0.5" height="17.4"/>
<g>
	<path d="M243.3,130.4c0-1.8,2.5-3.5,4.5-3.5c1.3,0,2.3,0.7,2.3,1.7c0,1.7-2.5,3.5-4.6,3.5C244.3,132.1,243.3,131.5,243.3,130.4z"/>
</g>
<g>
	<path d="M240.4,132c0-0.8-0.4-1.5-1.1-2.2c-0.7,0.7-1.1,1.4-1.1,2.2h-1.4v-1.4c0.8,0,1.5-0.3,2.2-1c-0.7-0.7-1.4-1.1-2.2-1.1V127
		h1.4c0,0.8,0.4,1.5,1.1,2.2c0.7-0.7,1.1-1.4,1.1-2.2h1.4v1.4c-0.8,0-1.5,0.4-2.2,1.1c0.7,0.7,1.4,1,2,1h0.2v1.4H240.4z"/>
</g>
<rect x="257.7" y="126.7" width="10.5" height="0.8"/>
<rect x="259.5" y="127.8" width="0.5" height="19.4"/>
<g>
	<path d="M259.6,127.9c0-1.8,2.5-3.5,4.5-3.5c1.3,0,2.3,0.7,2.3,1.7c0,1.7-2.5,3.5-4.6,3.5C260.6,129.6,259.6,129,259.6,127.9z"/>
</g>
<rect x="275.8" y="130.3" width="0.5" height="16.4"/>
<g>
	<path d="M275.9,130.4c0-1.8,2.5-3.5,4.5-3.5c1.3,0,2.3,0.7,2.3,1.7c0,1.7-2.5,3.5-4.6,3.5C276.8,132.1,275.9,131.5,275.9,130.4z"/>
</g>
<rect x="292.1" y="132.8" width="0.5" height="18.9"/>
<g>
	<path d="M292.1,132.9c0-1.8,2.5-3.5,4.5-3.5c1.3,0,2.3,0.7,2.3,1.7c0,1.7-2.5,3.5-4.6,3.5C293.1,134.6,292.1,134,292.1,132.9z"/>
</g>
<rect x="308.3" y="135.3" width="0.5" height="18"/>
<g>
	<path d="M308.4,135.4c0-1.8,2.5-3.5,4.5-3.5c1.3,0,2.3,0.7,2.3,1.7c0,1.7-2.5,3.5-4.6,3.5C309.4,137.1,308.4,136.4,308.4,135.4z"/>
</g>
<rect x="324.6" y="137.8" width="0.5" height="17.2"/>
<g>
	<path d="M324.7,137.8c0-1.8,2.5-3.5,4.5-3.5c1.3,0,2.3,0.7,2.3,1.7c0,1.7-2.5,3.5-4.6,3.5C325.7,139.6,324.7,138.9,324.7,137.8z"/>
</g>
<rect x="340.9" y="140.2" width="0.5" height="16.4"/>
<g>
	<path d="M341,140.3c0-1.8,2.5-3.5,4.5-3.5c1.3,0,2.3,0.7,2.3,1.7c0,1.7-2.5,3.5-4.6,3.5C341.9,142,341,141.4,341,140.3z"/>
</g>
<rect x="371.7" y="127.2" width="0.5" height="14"/>
<g>
	<path d="M365.3,142.8c0-1.8,2.5-3.5,4.5-3.5c1.3,0,2.3,0.7,2.3,1.7c0,1.7-2.5,3.5-4.6,3.5C366.3,144.5,365.3,143.9,365.3,142.8z"/>
</g>
<rect x="388" y="128.8" width="0.5" height="14.9"/>
<g>
	<path d="M381.6,145.3c0-1.8,2.5-3.5,4.5-3.5c1.3,0,2.3,0.7,2.3,1.7c0,1.7-2.5,3.5-4.6,3.5C382.6,147,381.6,146.4,381.6,145.3z"/>
</g>
<rect x="404.1" y="130.5" width="0.5" height="15.7"/>
<g>
	<path d="M397.7,147.8c0-1.8,2.5-3.5,4.5-3.5c1.3,0,2.3,0.7,2.3,1.7c0,1.7-2.5,3.5-4.6,3.5C398.7,149.5,397.7,148.8,397.7,147.8z"/>
</g>
<g>
	<path d="M394.8,149.4c0-0.8-0.4-1.5-1.1-2.2c-0.7,0.7-1.1,1.4-1.1,2.2h-1.4v-1.4c0.8,0,1.5-0.3,2.2-1c-0.7-0.7-1.4-1.1-2.2-1.1
		v-1.4h1.4c0,0.8,0.4,1.5,1.1,2.2c0.7-0.7,1.1-1.4,1.1-2.2h1.4v1.4c-0.8,0-1.5,0.4-2.2,1.1c0.7,0.7,1.4,1,2,1h0.2v1.4H394.8z"/>
</g>
<rect x="420.4" y="132.2" width="0.5" height="16.4"/>
<g>
	<path d="M414,150.2c0-1.8,2.5-3.5,4.5-3.5c1.3,0,2.3,0.7,2.3,1.7c0,1.7-2.5,3.5-4.6,3.5C415,152,414,151.3,414,150.2z"/>
</g>
<rect x="436.7" y="137.1" width="0.5" height="14"/>
<g>
	<path d="M430.3,152.7c0-1.8,2.5-3.5,4.5-3.5c1.3,0,2.3,0.7,2.3,1.7c0,1.7-2.5,3.5-4.6,3.5C431.2,154.4,430.3,153.8,430.3,152.7z"/>
</g>
<rect x="453" y="138.7" width="0.5" height="14.9"/>
<g>
	<path d="M446.5,155.2c0-1.8,2.5-3.5,4.5-3.5c1.3,0,2.3,0.7,2.3,1.7c0,1.7-2.5,3.5-4.6,3.5C447.5,156.9,446.5,156.3,446.5,155.2z"/>
</g>
<rect x="460.9" y="156.4" width="10.5" height="0.8"/>
<rect x="469.2" y="140.4" width="0.5" height="15.7"/>
<g>
	<path d="M462.8,157.7c0-1.8,2.5-3.5,4.5-3.5c1.3,0,2.3,0.7,2.3,1.7c0,1.7-2.5,3.5-4.6,3.5C463.8,159.4,462.8,158.8,462.8,157.7z"/>
</g>
<rect x="477.2" y="156.4" width="10.5" height="0.8"/>
<rect x="485.5" y="142.1" width="0.5" height="16.4"/>
<g>
	<path d="M479.1,160.2c0-1.8,2.5-3.5,4.5-3.5c1.3,0,2.3,0.7,2.3,1.7c0,1.7-2.5,3.5-4.6,3.5C480.1,161.9,479.1,161.2,479.1,160.2z"/>
</g>
<rect x="493.5" y="156.4" width="10.7" height="0.8"/>
<rect x="493.5" y="161.4" width="10.7" height="0.8"/>
<rect x="502" y="141.9" width="0.5" height="19.1"/>
<g>
	<path d="M499.6,159.1c1.6,0,2.7,0.7,2.7,2c0,1.9-2.3,3.4-4.5,3.4c-1.3,0-2.4-0.7-2.4-1.8C495.4,160.9,497.6,159.1,499.6,159.1z
		 M495.8,162.9c0,0.6,0.4,0.9,1.1,0.9c1.4,0,4.9-2.1,4.9-3.3c0-0.6-0.4-0.9-1.1-0.9C499.5,159.7,495.8,161.7,495.8,162.9z"/>
</g>
<rect x="86.8" y="184.3" width="0.5" height="16.4"/>
<g>
	<path d="M80.4,202.3c0-1.8,2.5-3.5,4.5-3.5c1.3,0,2.3,0.7,2.3,1.7c0,1.7-2.5,3.5-4.6,3.5C81.4,204,80.4,203.4,80.4,202.3z"/>
</g>
<rect x="94.8" y="203.6" width="10.5" height="0.8"/>
<rect x="103.1" y="185.8" width="0.5" height="17.4"/>
<g>
	<path d="M96.7,204.8c0-1.8,2.5-3.5,4.5-3.5c1.3,0,2.3,0.7,2.3,1.7c0,1.7-2.5,3.5-4.6,3.5C97.6,206.5,96.7,205.9,96.7,204.8z"/>
</g>
<rect x="111.1" y="203.6" width="10.5" height="0.8"/>
<rect x="119.4" y="187.5" width="0.5" height="18.1"/>
<g>
	<path d="M112.9,207.3c0-1.8,2.5-3.5,4.5-3.5c1.3,0,2.3,0.7,2.3,1.7c0,1.7-2.5,3.5-4.6,3.5C113.9,209,112.9,208.4,112.9,207.3z"/>
</g>
<rect x="127.4" y="203.6" width="10.5" height="0.8"/>
<rect x="127.4" y="208.5" width="10.5" height="0.8"/>
<rect x="135.6" y="189.2" width="0.5" height="18.9"/>
<g>
	<path d="M129.2,209.8c0-1.8,2.5-3.5,4.5-3.5c1.3,0,2.3,0.7,2.3,1.7c0,1.7-2.5,3.5-4.6,3.5C130.2,211.5,129.2,210.8,129.2,209.8z"/>
</g>
<rect x="161.8" y="182.4" width="0.5" height="16.4"/>
<g>
	<path d="M161.9,182.5c0-1.8,2.5-3.5,4.5-3.5c1.3,0,2.3,0.7,2.3,1.7c0,1.7-2.5,3.5-4.6,3.5C162.9,184.2,161.9,183.6,161.9,182.5z"/>
</g>
<g>
	<path d="M159,184.1c0-0.8-0.4-1.5-1.1-2.2c-0.7,0.7-1.1,1.4-1.1,2.2h-1.4v-1.4c0.8,0,1.5-0.3,2.2-1c-0.7-0.7-1.4-1.1-2.2-1.1v-1.4
		h1.4c0,0.8,0.4,1.5,1.1,2.2c0.7-0.7,1.1-1.4,1.1-2.2h1.4v1.4c-0.8,0-1.5,0.4-2.2,1.1c0.7,0.7,1.4,1,2,1h0.2v1.4H159z"/>
</g>
<rect x="178.1" y="184.9" width="0.5" height="15.5"/>
<g>
	<path d="M178.2,185c0-1.8,2.5-3.5,4.5-3.5c1.3,0,2.3,0.7,2.3,1.7c0,1.7-2.5,3.5-4.6,3.5C179.2,186.7,178.2,186,178.2,185z"/>
</g>
<rect x="194.4" y="187.4" width="0.5" height="14.7"/>
<g>
	<path d="M194.5,187.4c0-1.8,2.5-3.5,4.5-3.5c1.3,0,2.3,0.7,2.3,1.7c0,1.7-2.5,3.5-4.6,3.5C195.5,189.2,194.5,188.5,194.5,187.4z"/>
</g>
<rect x="210.7" y="189.8" width="0.5" height="14"/>
<g>
	<path d="M210.8,189.9c0-1.8,2.5-3.5,4.5-3.5c1.3,0,2.3,0.7,2.3,1.7c0,1.7-2.5,3.5-4.6,3.5C211.7,191.6,210.8,191,210.8,189.9z"/>
</g>
<rect x="233.5" y="173.1" width="0.5" height="17.7"/>
<g>
	<path d="M227,192.4c0-1.8,2.5-3.5,4.5-3.5c1.3,0,2.3,0.7,2.3,1.7c0,1.7-2.5,3.5-4.6,3.5C228,194.1,227,193.5,227,192.4z"/>
</g>
<rect x="249.7" y="173.4" width="0.5" height="19.8"/>
<g>
	<path d="M243.3,194.9c0-1.8,2.5-3.5,4.5-3.5c1.3,0,2.3,0.7,2.3,1.7c0,1.7-2.5,3.5-4.6,3.5C244.3,196.6,243.3,196,243.3,194.9z"/>
</g>
<rect x="266" y="173.9" width="0.5" height="21.9"/>
<g>
	<path d="M259.6,197.4c0-1.8,2.5-3.5,4.5-3.5c1.3,0,2.3,0.7,2.3,1.7c0,1.7-2.5,3.5-4.6,3.5C260.6,199.1,259.6,198.4,259.6,197.4z"/>
</g>
<rect x="282.3" y="174.3" width="0.5" height="18.9"/>
<g>
	<path d="M275.9,194.9c0-1.8,2.5-3.5,4.5-3.5c1.3,0,2.3,0.7,2.3,1.7c0,1.7-2.5,3.5-4.6,3.5C276.8,196.6,275.9,196,275.9,194.9z"/>
</g>
<rect x="292.1" y="192.3" width="0.5" height="16.4"/>
<g>
	<path d="M292.1,192.4c0-1.8,2.5-3.5,4.5-3.5c1.3,0,2.3,0.7,2.3,1.7c0,1.7-2.5,3.5-4.6,3.5C293.1,194.1,292.1,193.5,292.1,192.4z"/>
</g>
<rect x="308.3" y="189.8" width="0.5" height="17.4"/>
<g>
	<path d="M308.4,189.9c0-1.8,2.5-3.5,4.5-3.5c1.3,0,2.3,0.7,2.3,1.7c0,1.7-2.5,3.5-4.6,3.5C309.4,191.6,308.4,191,308.4,189.9z"/>
</g>
<rect x="324.6" y="187.4" width="0.5" height="18.1"/>
<g>
	<path d="M324.7,187.4c0-1.8,2.5-3.5,4.5-3.5c1.3,0,2.3,0.7,2.3,1.7c0,1.7-2.5,3.5-4.6,3.5C325.7,189.2,324.7,188.5,324.7,187.4z"/>
</g>
<rect x="340.9" y="184.9" width="0.5" height="18.9"/>
<g>
	<path d="M341,185c0-1.8,2.5-3.5,4.5-3.5c1.3,0,2.3,0.7,2.3,1.7c0,1.7-2.5,3.5-4.6,3.5C341.9,186.7,341,186,341,185z"/>
</g>
<rect x="365.2" y="182.4" width="0.5" height="16.4"/>
<g>
	<path d="M365.3,182.5c0-1.8,2.5-3.5,4.5-3.5c1.3,0,2.3,0.7,2.3,1.7c0,1.7-2.5,3.5-4.6,3.5C366.3,184.2,365.3,183.6,365.3,182.5z"/>
</g>
<g>
	<path d="M362.4,184.1c0-0.8-0.4-1.5-1.1-2.2c-0.7,0.7-1.1,1.4-1.1,2.2h-1.4v-1.4c0.8,0,1.5-0.3,2.2-1c-0.7-0.7-1.4-1.1-2.2-1.1
		v-1.4h1.4c0,0.8,0.4,1.5,1.1,2.2c0.7-0.7,1.1-1.4,1.1-2.2h1.4v1.4c-0.8,0-1.5,0.4-2.2,1.1c0.7,0.7,1.4,1,2,1h0.2v1.4H362.4z"/>
</g>
<rect x="381.5" y="179.9" width="0.5" height="19.2"/>
<g>
	<path d="M381.6,180c0-1.8,2.5-3.5,4.5-3.5c1.3,0,2.3,0.7,2.3,1.7c0,1.7-2.5,3.5-4.6,3.5C382.6,181.7,381.6,181.1,381.6,180z"/>
</g>
<rect x="397.6" y="182.4" width="0.5" height="17.2"/>
<g>
	<path d="M397.7,182.5c0-1.8,2.5-3.5,4.5-3.5c1.3,0,2.3,0.7,2.3,1.7c0,1.7-2.5,3.5-4.6,3.5C398.7,184.2,397.7,183.6,397.7,182.5z"/>
</g>
<rect x="413.9" y="184.9" width="0.5" height="15.2"/>
<g>
	<path d="M414,185c0-1.8,2.5-3.5,4.5-3.5c1.3,0,2.3,0.7,2.3,1.7c0,1.7-2.5,3.5-4.6,3.5C415,186.7,414,186,414,185z"/>
</g>
<rect x="436.7" y="169.4" width="0.5" height="16.4"/>
<g>
	<path d="M430.3,187.4c0-1.8,2.5-3.5,4.5-3.5c1.3,0,2.3,0.7,2.3,1.7c0,1.7-2.5,3.5-4.6,3.5C431.2,189.2,430.3,188.5,430.3,187.4z"/>
</g>
<rect x="453" y="170.9" width="0.5" height="17.4"/>
<g>
	<path d="M446.5,189.9c0-1.8,2.5-3.5,4.5-3.5c1.3,0,2.3,0.7,2.3,1.7c0,1.7-2.5,3.5-4.6,3.5C447.5,191.6,446.5,191,446.5,189.9z"/>
</g>
<rect x="469.2" y="172.6" width="0.5" height="18.1"/>
<g>
	<path d="M462.8,192.4c0-1.8,2.5-3.5,4.5-3.5c1.3,0,2.3,0.7,2.3,1.7c0,1.7-2.5,3.5-4.6,3.5C463.8,194.1,462.8,193.5,462.8,192.4z"/>
</g>
<rect x="485.5" y="174.3" width="0.5" height="18.9"/>
<g>
	<path d="M479.1,194.9c0-1.8,2.5-3.5,4.5-3.5c1.3,0,2.3,0.7,2.3,1.7c0,1.7-2.5,3.5-4.6,3.5C480.1,196.6,479.1,196,479.1,194.9z"/>
</g>
<rect x="502" y="179.1" width="0.5" height="16.6"/>
<g>
	<path d="M499.6,193.8c1.6,0,2.7,0.7,2.7,2c0,1.9-2.3,3.4-4.5,3.4c-1.3,0-2.4-0.7-2.4-1.8C495.4,195.6,497.6,193.8,499.6,193.8z
		 M495.8,197.7c0,0.6,0.4,0.9,1.1,0.9c1.4,0,4.9-2.1,4.9-3.3c0-0.6-0.4-0.9-1.1-0.9C499.5,194.4,495.8,196.4,495.8,197.7z"/>
</g>
</svg>
