<?xml version="1.0" encoding="utf-8"?>

<!--
	ScaleBook
	Copyright (c) Leland Jansen 2015. All rights reserved.
-->

<!DOCTYPE svg PUBLIC "-//W3C//DTD SVG 1.1//EN" "http://www.w3.org/Graphics/SVG/1.1/DTD/svg11.dtd">
<svg version="1.1" id="Layer_1" xmlns="http://www.w3.org/2000/svg" xmlns:xlink="http://www.w3.org/1999/xlink" x="0px" y="0px"
	 viewBox="0 0 553 210.7" enable-background="new 0 0 553 210.7" xml:space="preserve">
<rect x="8.4" y="11.8" width="0.8" height="67"/>
<g>
	<path d="M7.4,12.4c-1.9,1.1-3.6,5.8-3.6,9.4c0,2.3,1.4,9.9,1.4,12.3c0,5-1.5,8.6-4.6,11.1c3,2.4,4.6,6.1,4.6,11.1
		c0,2.3-1.4,9.9-1.4,12.3c0,3.8,1.7,8.4,3.6,9.5v0.7c-3.5-2.3-5.8-8.2-5.8-13.1c0-2.1,1.7-9.4,1.7-11.5c0-3.8-1-6.6-2.9-8.2
		C0.1,45.6,0,45.4,0,45.2c0-0.2,0.1-0.4,0.5-0.7c1.9-1.7,2.9-4.2,2.9-7.6c0-2.1-1.7-10-1.7-12.2c0-5.2,2.1-10.4,5.8-13.1V12.4z"/>
</g>
<rect x="8.4" y="133.8" width="0.8" height="67"/>
<g>
	<path d="M7.4,134.4c-1.9,1.1-3.6,5.8-3.6,9.4c0,2.3,1.4,9.9,1.4,12.3c0,5-1.5,8.6-4.6,11.1c3,2.4,4.6,6.1,4.6,11.1
		c0,2.3-1.4,9.9-1.4,12.3c0,3.8,1.7,8.4,3.6,9.5v0.7c-3.5-2.3-5.8-8.2-5.8-13.1c0-2.1,1.7-9.4,1.7-11.5c0-3.8-1-6.6-2.9-8.2
		c-0.3-0.3-0.5-0.5-0.5-0.7c0-0.2,0.1-0.4,0.5-0.7c1.9-1.7,2.9-4.2,2.9-7.6c0-2.1-1.7-10-1.7-12.2c0-5.2,2.1-10.4,5.8-13.1V134.4z"
		/>
</g>
<rect x="298.6" y="11.8" width="0.8" height="67"/>
<rect x="552.2" y="11.8" width="0.8" height="67"/>
<rect x="349.6" y="133.8" width="0.8" height="67"/>
<rect x="547.8" y="133.8" width="0.8" height="67"/>
<rect x="550.4" y="133.8" width="2.5" height="67"/>
<rect x="8.5" y="31.4" width="544.4" height="0.5"/>
<rect x="8.5" y="26.4" width="544.4" height="0.5"/>
<rect x="8.5" y="21.5" width="544.4" height="0.5"/>
<rect x="8.5" y="16.5" width="544.4" height="0.5"/>
<rect x="8.5" y="11.5" width="544.4" height="0.5"/>
<g>
	<path d="M20.3,31.4c-4.2,0-8.1-3.1-8.1-6.9c0-3.2,2.3-6.7,6.8-10.5c-0.3-1.2-0.4-2.4-0.4-3.6c0-3.5,1.2-6.8,3.2-8.5
		c1.8,2.5,2.7,4.9,2.7,7.1c0,2.9-1.3,5.6-4.3,8.1l0.9,4.2c0.5,0,0.8-0.1,0.8-0.1c2.6,0,4.8,2,4.8,4.7c0,1.9-1.4,3.7-3.6,4.8
		c0-0.1,0.9,3.8,0.9,4.3c0,2.5-2.3,4.2-4.9,4.2c-2,0-3.6-1.3-3.6-3.4c0-1.4,1-2.6,2.4-2.6c1.3,0,2.3,1.3,2.3,2.5
		c0,1.4-1.2,2.3-2.7,2.5c0.6,0.3,1.2,0.5,1.9,0.5c2.1,0,4.1-1.6,4.1-3.6c0-0.2,0-0.4-0.1-0.6L22.6,31C21.9,31.3,21.2,31.4,20.3,31.4
		z M18.1,26.2c0,1,0.5,1.9,1.6,2.5c-1.8-0.3-3-1.4-3-3.1c0-2,1.7-3.7,3.8-4.1l-0.8-4C16,20.3,14,23,14,25.7c0,2.9,2.8,5.3,6,5.3
		c0.9,0,1.7-0.2,2.4-0.5L21,23.6C19.4,23.8,18.1,24.9,18.1,26.2z M22.1,4.9c-1.6,0-2.9,3.7-2.9,7c0,0.7,0,1.3,0.2,1.9
		c2.7-2.4,4-4.5,4-6.5c0-0.9-0.3-1.7-1-2.4C22.4,4.9,22.3,4.9,22.1,4.9z M24.9,26.8c0-1.6-1.2-3.3-2.9-3.3c-0.1,0-0.2,0-0.5,0
		l1.4,6.6C24.2,29.2,24.9,28.1,24.9,26.8z"/>
</g>
<g>
	<path d="M29.5,13.4h0.6L30,19.6c0.4-0.7,1-1,1.8-1c1.2,0,2.2,0.8,2.2,1.9c0,0.8-0.5,1.8-1.7,2.7l-2.8,2.1V13.4z M30.1,20.3
		C30,21,30,21.7,30,22.2c0,1,0,1.6,0.1,2c1-0.7,2.4-2.6,2.4-3.7c0-0.6-0.5-1.1-1.1-1.1C30.8,19.4,30.4,19.7,30.1,20.3z"/>
</g>
<g>
	<path d="M35.1,5.9h0.6l-0.1,6.2c0.4-0.7,1-1,1.8-1c1.2,0,2.2,0.8,2.2,1.9c0,0.8-0.5,1.8-1.7,2.7l-2.8,2.1V5.9z M35.7,12.8
		c-0.1,0.8-0.1,1.4-0.1,1.9c0,1,0,1.6,0.1,2c1-0.7,2.4-2.6,2.4-3.7c0-0.6-0.5-1.1-1.1-1.1C36.4,12,36,12.3,35.7,12.8z"/>
</g>
<g>
	<path d="M40.7,15.9h0.6l-0.1,6.2c0.4-0.7,1-1,1.8-1c1.2,0,2.2,0.8,2.2,1.9c0,0.8-0.5,1.8-1.7,2.7l-2.8,2.1V15.9z M41.3,22.8
		c-0.1,0.8-0.1,1.4-0.1,1.9c0,1,0,1.6,0.1,2c1-0.7,2.4-2.6,2.4-3.7c0-0.6-0.5-1.1-1.1-1.1C42,21.9,41.6,22.2,41.3,22.8z"/>
</g>
<g>
	<path d="M46.3,8.4h0.6l-0.1,6.2c0.4-0.7,1-1,1.8-1c1.2,0,2.2,0.8,2.2,1.9c0,0.8-0.5,1.8-1.7,2.7l-2.8,2.1V8.4z M46.9,15.3
		c-0.1,0.8-0.1,1.4-0.1,1.9c0,1,0,1.6,0.1,2c1-0.7,2.4-2.6,2.4-3.7c0-0.6-0.5-1.1-1.1-1.1C47.6,14.5,47.2,14.8,46.9,15.3z"/>
</g>
<g>
	<path d="M51.9,18.3h0.6l-0.1,6.2c0.4-0.7,1-1,1.8-1c1.2,0,2.2,0.8,2.2,1.9c0,0.8-0.5,1.8-1.7,2.7l-2.8,2.1V18.3z M52.4,25.2
		c-0.1,0.8-0.1,1.4-0.1,1.9c0,1,0,1.6,0.1,2c1-0.7,2.4-2.6,2.4-3.7c0-0.6-0.5-1.1-1.1-1.1C53.2,24.4,52.7,24.7,52.4,25.2z"/>
</g>
<polygon fill-rule="evenodd" clip-rule="evenodd" points="71.6,27.9 115.6,22.9 115.6,20.4 71.6,25.4 "/>
<polygon fill-rule="evenodd" clip-rule="evenodd" points="71.6,24.2 115.6,19.2 115.6,16.7 71.6,21.7 "/>
<polygon fill-rule="evenodd" clip-rule="evenodd" points="130.1,18 174.2,13 174.2,10.5 130.1,15.5 "/>
<polygon fill-rule="evenodd" clip-rule="evenodd" points="130.1,14.2 174.2,9.3 174.2,6.8 130.1,11.8 "/>
<polygon fill-rule="evenodd" clip-rule="evenodd" points="182.2,32.8 226.3,27.9 226.3,25.4 182.2,30.4 "/>
<polygon fill-rule="evenodd" clip-rule="evenodd" points="182.2,36.6 226.3,31.6 226.3,29.1 182.2,34.1 "/>
<polygon fill-rule="evenodd" clip-rule="evenodd" points="240.8,24.2 284.9,22.9 284.9,20.4 240.8,21.7 "/>
<polygon fill-rule="evenodd" clip-rule="evenodd" points="240.8,27.9 284.9,26.6 284.9,24.2 240.8,25.4 "/>
<polygon fill-rule="evenodd" clip-rule="evenodd" points="306.9,22.9 350.9,27.9 350.9,25.4 306.9,20.4 "/>
<polygon fill-rule="evenodd" clip-rule="evenodd" points="306.9,26.6 350.9,31.6 350.9,29.1 306.9,24.2 "/>
<rect x="365.5" y="31.6" fill-rule="evenodd" clip-rule="evenodd" width="44" height="2.5"/>
<rect x="365.5" y="35.3" fill-rule="evenodd" clip-rule="evenodd" width="44" height="2.5"/>
<polygon fill-rule="evenodd" clip-rule="evenodd" points="435.8,27.9 479.7,22.9 479.7,20.4 435.8,25.4 "/>
<polygon fill-rule="evenodd" clip-rule="evenodd" points="435.8,31.6 479.7,26.6 479.7,24.2 435.8,29.1 "/>
<polygon fill-rule="evenodd" clip-rule="evenodd" points="494.4,18 538.3,22.9 538.3,20.4 494.4,15.5 "/>
<polygon fill-rule="evenodd" clip-rule="evenodd" points="494.4,21.7 538.3,26.6 538.3,24.2 494.4,19.2 "/>
<rect x="8.5" y="78.5" width="544.4" height="0.5"/>
<rect x="8.5" y="73.5" width="544.4" height="0.5"/>
<rect x="8.5" y="68.6" width="544.4" height="0.5"/>
<rect x="8.5" y="63.6" width="544.4" height="0.5"/>
<rect x="8.5" y="58.7" width="544.4" height="0.5"/>
<g>
	<path d="M15.7,73.1c2.9-2.6,4.7-6.1,4.7-9.2c0-2.5-1.4-4.4-3.7-4.4c-1.6,0-3.4,1.3-3.4,2.7c0,0.2,0,0.3,0.1,0.3
		c-0.1,0,0.6-0.6,1.4-0.6c0.9,0,1.5,0.8,1.5,1.7c0,1.2-0.9,2.2-2.1,2.2c-1.2,0-2.1-1.3-2.1-2.8c0-2.3,2.3-4.1,4.8-4.1
		c4.7,0,5.9,3.2,5.9,5.8c0,1.6-0.4,2.9-2,5.3c-1.9,3.1-6.4,5.3-8.1,5.3c-0.4,0-0.6-0.2-0.6-0.5C13.8,74.3,14.9,73.8,15.7,73.1z
		 M25.7,60.4c0.6,0,1,0.4,1,1c0,0.6-0.4,1-1,1s-1-0.4-1-1C24.7,60.8,25.1,60.4,25.7,60.4z M25.7,65.3c0.6,0,1,0.4,1,1
		c0,0.6-0.4,1-1,1s-1-0.4-1-1C24.7,65.8,25.1,65.3,25.7,65.3z"/>
</g>
<g>
	<path d="M29.5,65.5h0.6L30,71.7c0.4-0.7,1-1,1.8-1c1.2,0,2.2,0.8,2.2,1.9c0,0.8-0.5,1.8-1.7,2.7l-2.8,2.1V65.5z M30.1,72.4
		C30,73.1,30,73.8,30,74.3c0,1,0,1.6,0.1,2c1-0.7,2.4-2.6,2.4-3.7c0-0.6-0.5-1.1-1.1-1.1C30.8,71.5,30.4,71.8,30.1,72.4z"/>
</g>
<g>
	<path d="M35.1,58h0.6l-0.1,6.2c0.4-0.7,1-1,1.8-1c1.2,0,2.2,0.8,2.2,1.9c0,0.8-0.5,1.8-1.7,2.7L35.1,70V58z M35.7,64.9
		c-0.1,0.8-0.1,1.4-0.1,1.9c0,1,0,1.6,0.1,2c1-0.7,2.4-2.6,2.4-3.7c0-0.6-0.5-1.1-1.1-1.1C36.4,64.1,36,64.4,35.7,64.9z"/>
</g>
<g>
	<path d="M40.7,67.9h0.6l-0.1,6.2c0.4-0.7,1-1,1.8-1c1.2,0,2.2,0.8,2.2,1.9c0,0.8-0.5,1.8-1.7,2.7l-2.8,2.1V67.9z M41.3,74.8
		c-0.1,0.8-0.1,1.4-0.1,1.9c0,1,0,1.6,0.1,2c1-0.7,2.4-2.6,2.4-3.7c0-0.6-0.5-1.1-1.1-1.1C42,74,41.6,74.3,41.3,74.8z"/>
</g>
<g>
	<path d="M46.3,60.5h0.6l-0.1,6.2c0.4-0.7,1-1,1.8-1c1.2,0,2.2,0.8,2.2,1.9c0,0.8-0.5,1.8-1.7,2.7l-2.8,2.1V60.5z M46.9,67.4
		c-0.1,0.8-0.1,1.4-0.1,1.9c0,1,0,1.6,0.1,2c1-0.7,2.4-2.6,2.4-3.7c0-0.6-0.5-1.1-1.1-1.1C47.6,66.6,47.2,66.8,46.9,67.4z"/>
</g>
<g>
	<path d="M51.9,70.4h0.6l-0.1,6.2c0.4-0.7,1-1,1.8-1c1.2,0,2.2,0.8,2.2,1.9c0,0.8-0.5,1.8-1.7,2.7l-2.8,2.1V70.4z M52.4,77.3
		c-0.1,0.8-0.1,1.4-0.1,1.9c0,1,0,1.6,0.1,2c1-0.7,2.4-2.6,2.4-3.7c0-0.6-0.5-1.1-1.1-1.1C53.2,76.5,52.7,76.8,52.4,77.3z"/>
</g>
<polygon fill-rule="evenodd" clip-rule="evenodd" points="71.6,60.1 115.6,55.2 115.6,52.7 71.6,57.6 "/>
<polygon fill-rule="evenodd" clip-rule="evenodd" points="71.6,56.4 115.6,51.4 115.6,49 71.6,53.9 "/>
<polygon fill-rule="evenodd" clip-rule="evenodd" points="123.6,75 167.7,70 167.7,67.6 123.6,72.5 "/>
<polygon fill-rule="evenodd" clip-rule="evenodd" points="123.6,78.7 167.7,73.8 167.7,71.3 123.6,76.2 "/>
<polygon fill-rule="evenodd" clip-rule="evenodd" points="182.2,75 226.3,80 226.3,77.5 182.2,72.5 "/>
<polygon fill-rule="evenodd" clip-rule="evenodd" points="182.2,78.7 226.3,83.7 226.3,81.2 182.2,76.2 "/>
<polygon fill-rule="evenodd" clip-rule="evenodd" points="247.3,58.9 291.4,60.1 291.4,57.6 247.3,56.4 "/>
<polygon fill-rule="evenodd" clip-rule="evenodd" points="247.3,55.2 291.4,56.4 291.4,53.9 247.3,52.7 "/>
<polygon fill-rule="evenodd" clip-rule="evenodd" points="306.9,80 350.9,75 350.9,72.5 306.9,77.5 "/>
<polygon fill-rule="evenodd" clip-rule="evenodd" points="306.9,83.7 350.9,78.7 350.9,76.2 306.9,81.2 "/>
<g>
	<path d="M429.7,77.4c-3.2,0-6.1-2.3-6.1-5.1c0-2.4,1.7-5,5.1-7.9c-0.2-0.9-0.3-1.8-0.3-2.7c0-2.6,0.9-5.1,2.4-6.3
		c1.4,1.9,2,3.7,2,5.3c0,2.2-1,4.2-3.2,6.1l0.7,3.1c0.4,0,0.6,0,0.6,0c2,0,3.6,1.5,3.6,3.5c0,1.4-1.1,2.8-2.7,3.6
		c0-0.1,0.6,2.8,0.6,3.3c0,1.9-1.7,3.2-3.7,3.2c-1.5,0-2.7-1-2.7-2.5c0-1.1,0.7-1.9,1.8-1.9c1,0,1.7,1,1.7,1.9c0,1-0.9,1.7-2,1.8
		c0.4,0.2,0.9,0.3,1.4,0.3c1.6,0,3.1-1.2,3.1-2.7c0-0.1,0-0.3,0-0.5l-0.6-2.8C430.9,77.3,430.4,77.4,429.7,77.4z M428,73.5
		c0,0.8,0.4,1.4,1.2,1.9c-1.3-0.2-2.2-1.1-2.2-2.3c0-1.5,1.3-2.8,2.9-3.1l-0.6-3c-2.8,2.1-4.3,4.1-4.3,6.1c0,2.2,2.1,4,4.5,4
		c0.7,0,1.3-0.1,1.8-0.4l-1.1-5.1C429,71.7,428,72.4,428,73.5z M431.1,57.4c-1.2,0-2.2,2.8-2.2,5.3c0,0.5,0,1,0.1,1.4
		c2-1.8,3-3.4,3-4.9c0-0.7-0.3-1.3-0.7-1.8C431.3,57.5,431.2,57.4,431.1,57.4z M433.1,73.9c0-1.2-0.9-2.4-2.2-2.4c0,0-0.2,0-0.4,0
		l1.1,5C432.6,75.7,433.1,74.8,433.1,73.9z"/>
</g>
<polygon fill-rule="evenodd" clip-rule="evenodd" points="365.5,70 409.5,65.1 409.5,62.6 365.5,67.6 "/>
<polygon fill-rule="evenodd" clip-rule="evenodd" points="365.5,73.8 409.5,68.8 409.5,66.3 365.5,71.3 "/>
<polygon fill-rule="evenodd" clip-rule="evenodd" points="442.3,65.1 486.2,60.1 486.2,57.6 442.3,62.6 "/>
<polygon fill-rule="evenodd" clip-rule="evenodd" points="442.3,61.4 486.2,56.4 486.2,53.9 442.3,58.9 "/>
<polygon fill-rule="evenodd" clip-rule="evenodd" points="500.9,60.1 544.8,65.1 544.8,62.6 500.9,57.6 "/>
<polygon fill-rule="evenodd" clip-rule="evenodd" points="500.9,56.4 544.8,61.4 544.8,58.9 500.9,53.9 "/>
<rect x="8.5" y="153.4" width="544.4" height="0.5"/>
<rect x="8.5" y="148.4" width="544.4" height="0.5"/>
<rect x="8.5" y="143.4" width="544.4" height="0.5"/>
<rect x="8.5" y="138.5" width="544.4" height="0.5"/>
<rect x="8.5" y="133.5" width="544.4" height="0.5"/>
<g>
	<path d="M20.3,153.4c-4.2,0-8.1-3.1-8.1-6.9c0-3.2,2.3-6.7,6.8-10.5c-0.3-1.2-0.4-2.4-0.4-3.6c0-3.5,1.2-6.8,3.2-8.5
		c1.8,2.5,2.7,4.9,2.7,7.1c0,2.9-1.3,5.6-4.3,8.1l0.9,4.2c0.5,0,0.8-0.1,0.8-0.1c2.6,0,4.8,2,4.8,4.7c0,1.9-1.4,3.7-3.6,4.8
		c0-0.1,0.9,3.8,0.9,4.3c0,2.5-2.3,4.2-4.9,4.2c-2,0-3.6-1.3-3.6-3.4c0-1.4,1-2.6,2.4-2.6c1.3,0,2.3,1.3,2.3,2.5
		c0,1.4-1.2,2.3-2.7,2.5c0.6,0.3,1.2,0.5,1.9,0.5c2.1,0,4.1-1.6,4.1-3.6c0-0.2,0-0.4-0.1-0.6l-0.8-3.7
		C21.9,153.3,21.2,153.4,20.3,153.4z M18.1,148.2c0,1,0.5,1.9,1.6,2.5c-1.8-0.3-3-1.4-3-3.1c0-2,1.7-3.7,3.8-4.1l-0.8-4
		c-3.7,2.8-5.7,5.5-5.7,8.1c0,2.9,2.8,5.3,6,5.3c0.9,0,1.7-0.2,2.4-0.5l-1.4-6.8C19.4,145.8,18.1,146.9,18.1,148.2z M22.1,126.9
		c-1.6,0-2.9,3.7-2.9,7c0,0.7,0,1.3,0.2,1.9c2.7-2.4,4-4.5,4-6.5c0-0.9-0.3-1.7-1-2.4C22.4,126.9,22.3,126.9,22.1,126.9z
		 M24.9,148.8c0-1.6-1.2-3.3-2.9-3.3c-0.1,0-0.2,0-0.5,0l1.4,6.6C24.2,151.2,24.9,150.1,24.9,148.8z"/>
</g>
<g>
	<path d="M29.5,135.4h0.6l-0.1,6.2c0.4-0.7,1-1,1.8-1c1.2,0,2.2,0.8,2.2,1.9c0,0.8-0.5,1.8-1.7,2.7l-2.8,2.1V135.4z M30.1,142.3
		c-0.1,0.8-0.1,1.4-0.1,1.9c0,1,0,1.6,0.1,2c1-0.7,2.4-2.6,2.4-3.7c0-0.6-0.5-1.1-1.1-1.1C30.8,141.4,30.4,141.7,30.1,142.3z"/>
</g>
<g>
	<path d="M35.1,127.9h0.6l-0.1,6.2c0.4-0.7,1-1,1.8-1c1.2,0,2.2,0.8,2.2,1.9c0,0.8-0.5,1.8-1.7,2.7l-2.8,2.1V127.9z M35.7,134.8
		c-0.1,0.8-0.1,1.4-0.1,1.9c0,1,0,1.6,0.1,2c1-0.7,2.4-2.6,2.4-3.7c0-0.6-0.5-1.1-1.1-1.1C36.4,134,36,134.3,35.7,134.8z"/>
</g>
<g>
	<path d="M40.7,137.8h0.6l-0.1,6.2c0.4-0.7,1-1,1.8-1c1.2,0,2.2,0.8,2.2,1.9c0,0.8-0.5,1.8-1.7,2.7l-2.8,2.1V137.8z M41.3,144.7
		c-0.1,0.8-0.1,1.4-0.1,1.9c0,1,0,1.6,0.1,2c1-0.7,2.4-2.6,2.4-3.7c0-0.6-0.5-1.1-1.1-1.1C42,143.9,41.6,144.2,41.3,144.7z"/>
</g>
<g>
	<path d="M46.3,130.4h0.6l-0.1,6.2c0.4-0.7,1-1,1.8-1c1.2,0,2.2,0.8,2.2,1.9c0,0.8-0.5,1.8-1.7,2.7l-2.8,2.1V130.4z M46.9,137.3
		c-0.1,0.8-0.1,1.4-0.1,1.9c0,1,0,1.6,0.1,2c1-0.7,2.4-2.6,2.4-3.7c0-0.6-0.5-1.1-1.1-1.1C47.6,136.5,47.2,136.8,46.9,137.3z"/>
</g>
<g>
	<path d="M51.9,140.3h0.6l-0.1,6.2c0.4-0.7,1-1,1.8-1c1.2,0,2.2,0.8,2.2,1.9c0,0.8-0.5,1.8-1.7,2.7l-2.8,2.1V140.3z M52.4,147.2
		c-0.1,0.8-0.1,1.4-0.1,1.9c0,1,0,1.6,0.1,2c1-0.7,2.4-2.6,2.4-3.7c0-0.6-0.5-1.1-1.1-1.1C53.2,146.4,52.7,146.7,52.4,147.2z"/>
</g>
<polygon fill-rule="evenodd" clip-rule="evenodd" points="65,149.9 115.9,154.8 115.9,152.4 65,147.4 "/>
<polygon fill-rule="evenodd" clip-rule="evenodd" points="65,153.6 115.9,158.6 115.9,156.1 65,151.1 "/>
<polygon fill-rule="evenodd" clip-rule="evenodd" points="147,154.8 197.9,149.9 197.9,147.4 147,152.4 "/>
<polygon fill-rule="evenodd" clip-rule="evenodd" points="147,158.6 197.9,153.6 197.9,151.1 147,156.1 "/>
<polygon fill-rule="evenodd" clip-rule="evenodd" points="214.8,146.2 265.6,144.9 265.6,142.4 214.8,143.7 "/>
<polygon fill-rule="evenodd" clip-rule="evenodd" points="214.8,149.9 265.6,148.6 265.6,146.2 214.8,147.4 "/>
<polygon fill-rule="evenodd" clip-rule="evenodd" points="282.7,144.9 333.5,149.9 333.5,147.4 282.7,142.4 "/>
<polygon fill-rule="evenodd" clip-rule="evenodd" points="282.7,148.6 333.5,153.6 333.5,151.1 282.7,146.2 "/>
<polygon fill-rule="evenodd" clip-rule="evenodd" points="364.4,130 415.2,135 415.2,132.5 364.4,127.6 "/>
<polygon fill-rule="evenodd" clip-rule="evenodd" points="364.4,126.3 415.2,131.3 415.2,128.8 364.4,123.8 "/>
<polygon fill-rule="evenodd" clip-rule="evenodd" points="432.3,140 483.1,144.9 483.1,142.4 432.3,137.5 "/>
<polygon fill-rule="evenodd" clip-rule="evenodd" points="432.3,136.2 483.1,141.2 483.1,138.7 432.3,133.8 "/>
<rect x="8.5" y="200.5" width="544.4" height="0.5"/>
<rect x="8.5" y="195.5" width="544.4" height="0.5"/>
<rect x="8.5" y="190.6" width="544.4" height="0.5"/>
<rect x="8.5" y="185.6" width="544.4" height="0.5"/>
<rect x="8.5" y="180.6" width="544.4" height="0.5"/>
<g>
	<path d="M20.3,200.6c-4.2,0-8.1-3.1-8.1-6.9c0-3.2,2.3-6.7,6.8-10.5c-0.3-1.2-0.4-2.4-0.4-3.6c0-3.5,1.2-6.8,3.2-8.5
		c1.8,2.5,2.7,4.9,2.7,7.1c0,2.9-1.3,5.6-4.3,8.1l0.9,4.2c0.5,0,0.8-0.1,0.8-0.1c2.6,0,4.8,2,4.8,4.7c0,1.9-1.4,3.7-3.6,4.8
		c0-0.1,0.9,3.8,0.9,4.3c0,2.5-2.3,4.2-4.9,4.2c-2,0-3.6-1.3-3.6-3.4c0-1.4,1-2.6,2.4-2.6c1.3,0,2.3,1.3,2.3,2.5
		c0,1.4-1.2,2.3-2.7,2.5c0.6,0.3,1.2,0.5,1.9,0.5c2.1,0,4.1-1.6,4.1-3.6c0-0.2,0-0.4-0.1-0.6l-0.8-3.7
		C21.9,200.4,21.2,200.6,20.3,200.6z M18.1,195.3c0,1,0.5,1.9,1.6,2.5c-1.8-0.3-3-1.4-3-3.1c0-2,1.7-3.7,3.8-4.1l-0.8-4
		c-3.7,2.8-5.7,5.5-5.7,8.1c0,2.9,2.8,5.3,6,5.3c0.9,0,1.7-0.2,2.4-0.5l-1.4-6.8C19.4,193,18.1,194,18.1,195.3z M22.1,174
		c-1.6,0-2.9,3.7-2.9,7c0,0.7,0,1.3,0.2,1.9c2.7-2.4,4-4.5,4-6.5c0-0.9-0.3-1.7-1-2.4C22.4,174,22.3,174,22.1,174z M24.9,195.9
		c0-1.6-1.2-3.3-2.9-3.3c-0.1,0-0.2,0-0.5,0l1.4,6.6C24.2,198.3,24.9,197.2,24.9,195.9z"/>
</g>
<g>
	<path d="M29.5,182.5h0.6l-0.1,6.2c0.4-0.7,1-1,1.8-1c1.2,0,2.2,0.8,2.2,1.9c0,0.8-0.5,1.8-1.7,2.7l-2.8,2.1V182.5z M30.1,189.4
		c-0.1,0.8-0.1,1.4-0.1,1.9c0,1,0,1.6,0.1,2c1-0.7,2.4-2.6,2.4-3.7c0-0.6-0.5-1.1-1.1-1.1C30.8,188.6,30.4,188.8,30.1,189.4z"/>
</g>
<g>
	<path d="M35.1,175h0.6l-0.1,6.2c0.4-0.7,1-1,1.8-1c1.2,0,2.2,0.8,2.2,1.9c0,0.8-0.5,1.8-1.7,2.7l-2.8,2.1V175z M35.7,182
		c-0.1,0.8-0.1,1.4-0.1,1.9c0,1,0,1.6,0.1,2c1-0.7,2.4-2.6,2.4-3.7c0-0.6-0.5-1.1-1.1-1.1C36.4,181.1,36,181.4,35.7,182z"/>
</g>
<g>
	<path d="M40.7,185h0.6l-0.1,6.2c0.4-0.7,1-1,1.8-1c1.2,0,2.2,0.8,2.2,1.9c0,0.8-0.5,1.8-1.7,2.7l-2.8,2.1V185z M41.3,191.9
		c-0.1,0.8-0.1,1.4-0.1,1.9c0,1,0,1.6,0.1,2c1-0.7,2.4-2.6,2.4-3.7c0-0.6-0.5-1.1-1.1-1.1C42,191,41.6,191.3,41.3,191.9z"/>
</g>
<g>
	<path d="M46.3,177.5h0.6l-0.1,6.2c0.4-0.7,1-1,1.8-1c1.2,0,2.2,0.8,2.2,1.9c0,0.8-0.5,1.8-1.7,2.7l-2.8,2.1V177.5z M46.9,184.4
		c-0.1,0.8-0.1,1.4-0.1,1.9c0,1,0,1.6,0.1,2c1-0.7,2.4-2.6,2.4-3.7c0-0.6-0.5-1.1-1.1-1.1C47.6,183.6,47.2,183.9,46.9,184.4z"/>
</g>
<g>
	<path d="M51.9,187.4h0.6l-0.1,6.2c0.4-0.7,1-1,1.8-1c1.2,0,2.2,0.8,2.2,1.9c0,0.8-0.5,1.8-1.7,2.7l-2.8,2.1V187.4z M52.4,194.4
		c-0.1,0.8-0.1,1.4-0.1,1.9c0,1,0,1.6,0.1,2c1-0.7,2.4-2.6,2.4-3.7c0-0.6-0.5-1.1-1.1-1.1C53.2,193.5,52.7,193.8,52.4,194.4z"/>
</g>
<g>
	<path d="M132.6,192.8c2.2-2,3.6-4.6,3.6-6.9c0-1.9-1.1-3.3-2.8-3.3c-1.2,0-2.5,1-2.5,2.1c0,0.2,0,0.2,0.1,0.2c0,0,0.4-0.5,1-0.5
		c0.7,0,1.2,0.6,1.2,1.3c0,0.9-0.6,1.7-1.6,1.7c-0.9,0-1.5-1-1.5-2.1c0-1.8,1.7-3.1,3.6-3.1c3.5,0,4.4,2.4,4.4,4.4
		c0,1.2-0.3,2.2-1.5,4c-1.4,2.3-4.8,4-6,4c-0.3,0-0.5-0.1-0.5-0.3C131.2,193.7,132.1,193.3,132.6,192.8z M140.1,183.2
		c0.4,0,0.7,0.3,0.7,0.7c0,0.4-0.3,0.7-0.7,0.7s-0.7-0.3-0.7-0.7C139.4,183.6,139.7,183.2,140.1,183.2z M140.1,186.9
		c0.4,0,0.7,0.3,0.7,0.7s-0.3,0.7-0.7,0.7s-0.7-0.3-0.7-0.7S139.7,186.9,140.1,186.9z"/>
</g>
<polygon fill-rule="evenodd" clip-rule="evenodd" points="71.6,192 122.4,197 122.4,194.5 71.6,189.6 "/>
<polygon fill-rule="evenodd" clip-rule="evenodd" points="71.6,188.3 122.4,193.3 122.4,190.8 71.6,185.8 "/>
<polygon fill-rule="evenodd" clip-rule="evenodd" points="147,197 197.9,202 197.9,199.5 147,194.5 "/>
<polygon fill-rule="evenodd" clip-rule="evenodd" points="147,200.7 197.9,205.7 197.9,203.2 147,198.2 "/>
<polygon fill-rule="evenodd" clip-rule="evenodd" points="221.3,180.9 272.1,182.1 272.1,179.6 221.3,178.4 "/>
<polygon fill-rule="evenodd" clip-rule="evenodd" points="221.3,177.2 272.1,178.4 272.1,175.9 221.3,174.7 "/>
<polygon fill-rule="evenodd" clip-rule="evenodd" points="282.7,202 333.5,197 333.5,194.5 282.7,199.5 "/>
<polygon fill-rule="evenodd" clip-rule="evenodd" points="282.7,205.7 333.5,200.7 333.5,198.2 282.7,203.2 "/>
<polygon fill-rule="evenodd" clip-rule="evenodd" points="357.9,197 408.7,198.2 408.7,195.8 357.9,194.5 "/>
<polygon fill-rule="evenodd" clip-rule="evenodd" points="357.9,200.7 408.7,202 408.7,199.5 357.9,198.2 "/>
<polygon fill-rule="evenodd" clip-rule="evenodd" points="425.8,202 476.6,206.9 476.6,204.4 425.8,199.5 "/>
<polygon fill-rule="evenodd" clip-rule="evenodd" points="425.8,205.7 476.6,210.6 476.6,208.2 425.8,203.2 "/>
<rect x="63" y="36.2" width="10.5" height="0.8"/>
<rect x="71.3" y="21.8" width="0.5" height="16.4"/>
<g>
	<path d="M64.9,39.9c0-1.8,2.5-3.5,4.5-3.5c1.3,0,2.3,0.7,2.3,1.7c0,1.7-2.5,3.5-4.6,3.5C65.9,41.6,64.9,41,64.9,39.9z"/>
</g>
<rect x="77.8" y="36.2" width="10.5" height="0.8"/>
<rect x="86" y="20.3" width="0.5" height="15.5"/>
<g>
	<path d="M79.6,37.4c0-1.8,2.5-3.5,4.5-3.5c1.3,0,2.3,0.7,2.3,1.7c0,1.7-2.5,3.5-4.6,3.5C80.6,39.1,79.6,38.5,79.6,37.4z"/>
</g>
<rect x="100.6" y="18.6" width="0.5" height="14.7"/>
<g>
	<path d="M94.2,34.9c0-1.8,2.5-3.5,4.5-3.5c1.3,0,2.3,0.7,2.3,1.7c0,1.7-2.5,3.5-4.6,3.5C95.2,36.7,94.2,36,94.2,34.9z"/>
</g>
<rect x="115.3" y="16.9" width="0.5" height="14"/>
<g>
	<path d="M108.9,32.5c0-1.8,2.5-3.5,4.5-3.5c1.3,0,2.3,0.7,2.3,1.7c0,1.7-2.5,3.5-4.6,3.5C109.9,34.2,108.9,33.5,108.9,32.5z"/>
</g>
<rect x="129.9" y="11.9" width="0.5" height="16.4"/>
<g>
	<path d="M123.5,30c0-1.8,2.5-3.5,4.5-3.5c1.3,0,2.3,0.7,2.3,1.7c0,1.7-2.5,3.5-4.6,3.5C124.5,31.7,123.5,31.1,123.5,30z"/>
</g>
<rect x="144.6" y="10.4" width="0.5" height="15.5"/>
<g>
	<path d="M138.2,27.5c0-1.8,2.5-3.5,4.5-3.5c1.3,0,2.3,0.7,2.3,1.7c0,1.7-2.5,3.5-4.6,3.5C139.2,29.2,138.2,28.6,138.2,27.5z"/>
</g>
<rect x="159.2" y="8.7" width="0.5" height="14.7"/>
<g>
	<path d="M152.8,25c0-1.8,2.5-3.5,4.5-3.5c1.3,0,2.3,0.7,2.3,1.7c0,1.7-2.5,3.5-4.6,3.5C153.8,26.7,152.8,26.1,152.8,25z"/>
</g>
<g>
	<path d="M150.9,30.9v-4l-3,1.1V17.4h0.5v4l3-1.1v10.7H150.9z M148.3,26.3l2.5-0.9V22l-2.5,0.9V26.3z"/>
</g>
<rect x="173.9" y="7" width="0.5" height="14"/>
<g>
	<path d="M167.5,22.5c0-1.8,2.5-3.5,4.5-3.5c1.3,0,2.3,0.7,2.3,1.7c0,1.7-2.5,3.5-4.6,3.5C168.5,24.3,167.5,23.6,167.5,22.5z"/>
</g>
<rect x="182" y="20" width="0.5" height="16.4"/>
<g>
	<path d="M182.1,20.1c0-1.8,2.5-3.5,4.5-3.5c1.3,0,2.3,0.7,2.3,1.7c0,1.7-2.5,3.5-4.6,3.5C183,21.8,182.1,21.1,182.1,20.1z"/>
</g>
<rect x="196.7" y="17.5" width="0.5" height="17.4"/>
<g>
	<path d="M196.8,17.6c0-1.8,2.5-3.5,4.5-3.5c1.3,0,2.3,0.7,2.3,1.7c0,1.7-2.5,3.5-4.6,3.5C197.8,19.3,196.8,18.7,196.8,17.6z"/>
</g>
<rect x="211.3" y="15" width="0.5" height="18.1"/>
<g>
	<path d="M211.4,15.1c0-1.8,2.5-3.5,4.5-3.5c1.3,0,2.3,0.7,2.3,1.7c0,1.7-2.5,3.5-4.6,3.5C212.3,16.8,211.4,16.2,211.4,15.1z"/>
</g>
<rect x="226" y="12.5" width="0.5" height="18.9"/>
<g>
	<path d="M226.1,12.6c0-1.8,2.5-3.5,4.5-3.5c1.3,0,2.3,0.7,2.3,1.7c0,1.7-2.5,3.5-4.6,3.5C227.1,14.3,226.1,13.7,226.1,12.6z"/>
</g>
<rect x="240.6" y="10.1" width="0.5" height="17.7"/>
<g>
	<path d="M240.7,10.1c0-1.8,2.5-3.5,4.5-3.5c1.3,0,2.3,0.7,2.3,1.7c0,1.7-2.5,3.5-4.6,3.5C241.6,11.9,240.7,11.2,240.7,10.1z"/>
</g>
<rect x="253.5" y="6.4" width="10.5" height="0.8"/>
<rect x="255.3" y="7.6" width="0.5" height="19.8"/>
<g>
	<path d="M255.4,7.7c0-1.8,2.5-3.5,4.5-3.5c1.3,0,2.3,0.7,2.3,1.7c0,1.7-2.5,3.5-4.6,3.5C256.4,9.4,255.4,8.7,255.4,7.7z"/>
</g>
<g>
	<path d="M252.2,13.6v-4l-3,1.1V0h0.5v4l3-1.1v10.7H252.2z M249.7,8.9l2.5-0.9V4.7l-2.5,0.9V8.9z"/>
</g>
<rect x="268.1" y="6.4" width="10.5" height="0.8"/>
<rect x="269.9" y="5.1" width="0.5" height="21.9"/>
<g>
	<path d="M270,5.2c0-1.8,2.5-3.5,4.5-3.5c1.3,0,2.3,0.7,2.3,1.7c0,1.7-2.5,3.5-4.6,3.5C270.9,6.9,270,6.3,270,5.2z"/>
</g>
<rect x="282.8" y="6.4" width="10.5" height="0.8"/>
<rect x="284.6" y="7.6" width="0.5" height="18.9"/>
<g>
	<path d="M284.7,7.7c0-1.8,2.5-3.5,4.5-3.5c1.3,0,2.3,0.7,2.3,1.7c0,1.7-2.5,3.5-4.6,3.5C285.7,9.4,284.7,8.7,284.7,7.7z"/>
</g>
<rect x="306.6" y="10.1" width="0.5" height="16.4"/>
<g>
	<path d="M306.7,10.1c0-1.8,2.5-3.5,4.5-3.5c1.3,0,2.3,0.7,2.3,1.7c0,1.7-2.5,3.5-4.6,3.5C307.7,11.9,306.7,11.2,306.7,10.1z"/>
</g>
<rect x="321.4" y="12.5" width="0.5" height="15.5"/>
<g>
	<path d="M321.4,12.6c0-1.8,2.5-3.5,4.5-3.5c1.3,0,2.3,0.7,2.3,1.7c0,1.7-2.5,3.5-4.6,3.5C322.4,14.3,321.4,13.7,321.4,12.6z"/>
</g>
<rect x="335.9" y="15" width="0.5" height="14.7"/>
<g>
	<path d="M336,15.1c0-1.8,2.5-3.5,4.5-3.5c1.3,0,2.3,0.7,2.3,1.7c0,1.7-2.5,3.5-4.6,3.5C337,16.8,336,16.2,336,15.1z"/>
</g>
<rect x="350.7" y="17.5" width="0.5" height="14"/>
<g>
	<path d="M350.7,17.6c0-1.8,2.5-3.5,4.5-3.5c1.3,0,2.3,0.7,2.3,1.7c0,1.7-2.5,3.5-4.6,3.5C351.7,19.3,350.7,18.7,350.7,17.6z"/>
</g>
<rect x="365.2" y="20" width="0.5" height="17.7"/>
<g>
	<path d="M365.3,20.1c0-1.8,2.5-3.5,4.5-3.5c1.3,0,2.3,0.7,2.3,1.7c0,1.7-2.5,3.5-4.6,3.5C366.3,21.8,365.3,21.1,365.3,20.1z"/>
</g>
<rect x="380" y="22.5" width="0.5" height="15.2"/>
<g>
	<path d="M380,22.5c0-1.8,2.5-3.5,4.5-3.5c1.3,0,2.3,0.7,2.3,1.7c0,1.7-2.5,3.5-4.6,3.5C381,24.3,380,23.6,380,22.5z"/>
</g>
<rect x="394.5" y="20" width="0.5" height="17.7"/>
<g>
	<path d="M394.6,20.1c0-1.8,2.5-3.5,4.5-3.5c1.3,0,2.3,0.7,2.3,1.7c0,1.7-2.5,3.5-4.6,3.5C395.6,21.8,394.6,21.1,394.6,20.1z"/>
</g>
<rect x="409.3" y="17.5" width="0.5" height="20.2"/>
<g>
	<path d="M409.3,17.6c0-1.8,2.5-3.5,4.5-3.5c1.3,0,2.3,0.7,2.3,1.7c0,1.7-2.5,3.5-4.6,3.5C410.3,19.3,409.3,18.7,409.3,17.6z"/>
</g>
<rect x="435.6" y="15" width="0.5" height="16.4"/>
<g>
	<path d="M435.7,15.1c0-1.8,2.5-3.5,4.5-3.5c1.3,0,2.3,0.7,2.3,1.7c0,1.7-2.5,3.5-4.6,3.5C436.7,16.8,435.7,16.2,435.7,15.1z"/>
</g>
<rect x="450.2" y="12.5" width="0.5" height="17.4"/>
<g>
	<path d="M450.3,12.6c0-1.8,2.5-3.5,4.5-3.5c1.3,0,2.3,0.7,2.3,1.7c0,1.7-2.5,3.5-4.6,3.5C451.2,14.3,450.3,13.7,450.3,12.6z"/>
</g>
<rect x="464.9" y="10.1" width="0.5" height="18.1"/>
<g>
	<path d="M465,10.1c0-1.8,2.5-3.5,4.5-3.5c1.3,0,2.3,0.7,2.3,1.7c0,1.7-2.5,3.5-4.6,3.5C466,11.9,465,11.2,465,10.1z"/>
</g>
<rect x="477.7" y="6.4" width="10.5" height="0.8"/>
<rect x="479.5" y="7.6" width="0.5" height="18.9"/>
<g>
	<path d="M479.6,7.7c0-1.8,2.5-3.5,4.5-3.5c1.3,0,2.3,0.7,2.3,1.7c0,1.7-2.5,3.5-4.6,3.5C480.5,9.4,479.6,8.7,479.6,7.7z"/>
</g>
<g>
	<path d="M476.4,13.6v-4l-3,1.1V0h0.5v4l3-1.1v10.7H476.4z M473.8,8.9l2.5-0.9V4.7l-2.5,0.9V8.9z"/>
</g>
<rect x="492.4" y="6.4" width="10.5" height="0.8"/>
<rect x="494.2" y="5.1" width="0.5" height="16.4"/>
<g>
	<path d="M494.3,5.2c0-1.8,2.5-3.5,4.5-3.5c1.3,0,2.3,0.7,2.3,1.7c0,1.7-2.5,3.5-4.6,3.5C495.2,6.9,494.3,6.3,494.3,5.2z"/>
</g>
<rect x="507" y="6.4" width="10.5" height="0.8"/>
<rect x="508.8" y="7.6" width="0.5" height="15.5"/>
<g>
	<path d="M508.8,7.7c0-1.8,2.5-3.5,4.5-3.5c1.3,0,2.3,0.7,2.3,1.7c0,1.7-2.5,3.5-4.6,3.5C509.8,9.4,508.8,8.7,508.8,7.7z"/>
</g>
<rect x="523.5" y="10.1" width="0.5" height="14.7"/>
<g>
	<path d="M523.6,10.1c0-1.8,2.5-3.5,4.5-3.5c1.3,0,2.3,0.7,2.3,1.7c0,1.7-2.5,3.5-4.6,3.5C524.5,11.9,523.6,11.2,523.6,10.1z"/>
</g>
<rect x="538.1" y="12.5" width="0.5" height="14"/>
<g>
	<path d="M538.1,12.6c0-1.8,2.5-3.5,4.5-3.5c1.3,0,2.3,0.7,2.3,1.7c0,1.7-2.5,3.5-4.6,3.5C539.1,14.3,538.1,13.7,538.1,12.6z"/>
</g>
<rect x="71.3" y="54.1" width="0.5" height="18.9"/>
<g>
	<path d="M64.9,74.6c0-1.8,2.5-3.5,4.5-3.5c1.3,0,2.3,0.7,2.3,1.7c0,1.7-2.5,3.5-4.6,3.5C65.9,76.3,64.9,75.7,64.9,74.6z"/>
</g>
<rect x="86" y="52.5" width="0.5" height="18"/>
<g>
	<path d="M79.6,72.1c0-1.8,2.5-3.5,4.5-3.5c1.3,0,2.3,0.7,2.3,1.7c0,1.7-2.5,3.5-4.6,3.5C80.6,73.9,79.6,73.2,79.6,72.1z"/>
</g>
<rect x="100.6" y="50.8" width="0.5" height="17.2"/>
<g>
	<path d="M94.2,69.7c0-1.8,2.5-3.5,4.5-3.5c1.3,0,2.3,0.7,2.3,1.7c0,1.7-2.5,3.5-4.6,3.5C95.2,71.4,94.2,70.8,94.2,69.7z"/>
</g>
<rect x="115.3" y="49.1" width="0.5" height="16.4"/>
<g>
	<path d="M108.9,67.2c0-1.8,2.5-3.5,4.5-3.5c1.3,0,2.3,0.7,2.3,1.7c0,1.7-2.5,3.5-4.6,3.5C109.9,68.9,108.9,68.3,108.9,67.2z"/>
</g>
<rect x="123.4" y="64.6" width="0.5" height="14"/>
<g>
	<path d="M123.5,64.7c0-1.8,2.5-3.5,4.5-3.5c1.3,0,2.3,0.7,2.3,1.7c0,1.7-2.5,3.5-4.6,3.5C124.5,66.4,123.5,65.8,123.5,64.7z"/>
</g>
<rect x="138.1" y="62.1" width="0.5" height="14.9"/>
<g>
	<path d="M138.2,62.2c0-1.8,2.5-3.5,4.5-3.5c1.3,0,2.3,0.7,2.3,1.7c0,1.7-2.5,3.5-4.6,3.5C139.2,63.9,138.2,63.3,138.2,62.2z"/>
</g>
<rect x="152.7" y="59.7" width="0.5" height="15.7"/>
<g>
	<path d="M152.8,59.7c0-1.8,2.5-3.5,4.5-3.5c1.3,0,2.3,0.7,2.3,1.7c0,1.7-2.5,3.5-4.6,3.5C153.8,61.5,152.8,60.8,152.8,59.7z"/>
</g>
<g>
	<path d="M150.9,65.7v-4l-3,1.1V52.1h0.5v4l3-1.1v10.7H150.9z M148.3,61l2.5-0.9v-3.3l-2.5,0.9V61z"/>
</g>
<rect x="167.4" y="57.2" width="0.5" height="16.4"/>
<g>
	<path d="M167.5,57.3c0-1.8,2.5-3.5,4.5-3.5c1.3,0,2.3,0.7,2.3,1.7c0,1.7-2.5,3.5-4.6,3.5C168.5,59,167.5,58.4,167.5,57.3z"/>
</g>
<rect x="182" y="59.7" width="0.5" height="18.9"/>
<g>
	<path d="M182.1,59.7c0-1.8,2.5-3.5,4.5-3.5c1.3,0,2.3,0.7,2.3,1.7c0,1.7-2.5,3.5-4.6,3.5C183,61.5,182.1,60.8,182.1,59.7z"/>
</g>
<rect x="196.7" y="62.1" width="0.5" height="18"/>
<g>
	<path d="M196.8,62.2c0-1.8,2.5-3.5,4.5-3.5c1.3,0,2.3,0.7,2.3,1.7c0,1.7-2.5,3.5-4.6,3.5C197.8,63.9,196.8,63.3,196.8,62.2z"/>
</g>
<rect x="211.3" y="64.6" width="0.5" height="17.2"/>
<g>
	<path d="M211.4,64.7c0-1.8,2.5-3.5,4.5-3.5c1.3,0,2.3,0.7,2.3,1.7c0,1.7-2.5,3.5-4.6,3.5C212.3,66.4,211.4,65.8,211.4,64.7z"/>
</g>
<rect x="226" y="67.1" width="0.5" height="16.4"/>
<g>
	<path d="M226.1,67.2c0-1.8,2.5-3.5,4.5-3.5c1.3,0,2.3,0.7,2.3,1.7c0,1.7-2.5,3.5-4.6,3.5C227.1,68.9,226.1,68.3,226.1,67.2z"/>
</g>
<rect x="247.1" y="52.8" width="0.5" height="15.2"/>
<g>
	<path d="M240.7,69.7c0-1.8,2.5-3.5,4.5-3.5c1.3,0,2.3,0.7,2.3,1.7c0,1.7-2.5,3.5-4.6,3.5C241.6,71.4,240.7,70.8,240.7,69.7z"/>
</g>
<rect x="261.8" y="53.2" width="0.5" height="17.4"/>
<g>
	<path d="M255.4,72.1c0-1.8,2.5-3.5,4.5-3.5c1.3,0,2.3,0.7,2.3,1.7c0,1.7-2.5,3.5-4.6,3.5C256.4,73.9,255.4,73.2,255.4,72.1z"/>
</g>
<rect x="276.4" y="53.6" width="0.5" height="19.4"/>
<g>
	<path d="M270,74.6c0-1.8,2.5-3.5,4.5-3.5c1.3,0,2.3,0.7,2.3,1.7c0,1.7-2.5,3.5-4.6,3.5C270.9,76.3,270,75.7,270,74.6z"/>
</g>
<rect x="291.1" y="54.1" width="0.5" height="16.4"/>
<g>
	<path d="M284.7,72.1c0-1.8,2.5-3.5,4.5-3.5c1.3,0,2.3,0.7,2.3,1.7c0,1.7-2.5,3.5-4.6,3.5C285.7,73.9,284.7,73.2,284.7,72.1z"/>
</g>
<rect x="306.6" y="69.6" width="0.5" height="14"/>
<g>
	<path d="M306.7,69.7c0-1.8,2.5-3.5,4.5-3.5c1.3,0,2.3,0.7,2.3,1.7c0,1.7-2.5,3.5-4.6,3.5C307.7,71.4,306.7,70.8,306.7,69.7z"/>
</g>
<rect x="321.4" y="67.1" width="0.5" height="14.9"/>
<g>
	<path d="M321.4,67.2c0-1.8,2.5-3.5,4.5-3.5c1.3,0,2.3,0.7,2.3,1.7c0,1.7-2.5,3.5-4.6,3.5C322.4,68.9,321.4,68.3,321.4,67.2z"/>
</g>
<rect x="335.9" y="64.6" width="0.5" height="15.7"/>
<g>
	<path d="M336,64.7c0-1.8,2.5-3.5,4.5-3.5c1.3,0,2.3,0.7,2.3,1.7c0,1.7-2.5,3.5-4.6,3.5C337,66.4,336,65.8,336,64.7z"/>
</g>
<rect x="350.7" y="62.1" width="0.5" height="16.4"/>
<g>
	<path d="M350.7,62.2c0-1.8,2.5-3.5,4.5-3.5c1.3,0,2.3,0.7,2.3,1.7c0,1.7-2.5,3.5-4.6,3.5C351.7,63.9,350.7,63.3,350.7,62.2z"/>
</g>
<rect x="365.2" y="59.7" width="0.5" height="14"/>
<g>
	<path d="M365.3,59.7c0-1.8,2.5-3.5,4.5-3.5c1.3,0,2.3,0.7,2.3,1.7c0,1.7-2.5,3.5-4.6,3.5C366.3,61.5,365.3,60.8,365.3,59.7z"/>
</g>
<g>
	<path d="M363.4,65.7v-4l-3,1.1V52.1h0.5v4l3-1.1v10.7H363.4z M360.8,61l2.5-0.9v-3.3l-2.5,0.9V61z"/>
</g>
<rect x="380" y="57.2" width="0.5" height="14.9"/>
<g>
	<path d="M380,57.3c0-1.8,2.5-3.5,4.5-3.5c1.3,0,2.3,0.7,2.3,1.7c0,1.7-2.5,3.5-4.6,3.5C381,59,380,58.4,380,57.3z"/>
</g>
<rect x="392.7" y="53.5" width="10.5" height="0.8"/>
<rect x="394.5" y="54.7" width="0.5" height="15.7"/>
<g>
	<path d="M394.6,54.8c0-1.8,2.5-3.5,4.5-3.5c1.3,0,2.3,0.7,2.3,1.7c0,1.7-2.5,3.5-4.6,3.5C395.6,56.5,394.6,55.9,394.6,54.8z"/>
</g>
<rect x="407.5" y="53.5" width="10.5" height="0.8"/>
<rect x="409.3" y="52.2" width="0.5" height="16.4"/>
<g>
	<path d="M409.3,52.3c0-1.8,2.5-3.5,4.5-3.5c1.3,0,2.3,0.7,2.3,1.7c0,1.7-2.5,3.5-4.6,3.5C410.3,54,409.3,53.4,409.3,52.3z"/>
</g>
<rect x="442.1" y="59" width="0.5" height="18.9"/>
<g>
	<path d="M435.7,79.6c0-1.8,2.5-3.5,4.5-3.5c1.3,0,2.3,0.7,2.3,1.7c0,1.7-2.5,3.5-4.6,3.5C436.7,81.3,435.7,80.7,435.7,79.6z"/>
</g>
<rect x="456.7" y="57.5" width="0.5" height="18"/>
<g>
	<path d="M450.3,77.1c0-1.8,2.5-3.5,4.5-3.5c1.3,0,2.3,0.7,2.3,1.7c0,1.7-2.5,3.5-4.6,3.5C451.2,78.8,450.3,78.2,450.3,77.1z"/>
</g>
<rect x="471.4" y="55.8" width="0.5" height="17.2"/>
<g>
	<path d="M465,74.6c0-1.8,2.5-3.5,4.5-3.5c1.3,0,2.3,0.7,2.3,1.7c0,1.7-2.5,3.5-4.6,3.5C466,76.3,465,75.7,465,74.6z"/>
</g>
<rect x="486" y="54.1" width="0.5" height="16.4"/>
<g>
	<path d="M479.6,72.1c0-1.8,2.5-3.5,4.5-3.5c1.3,0,2.3,0.7,2.3,1.7c0,1.7-2.5,3.5-4.6,3.5C480.5,73.9,479.6,73.2,479.6,72.1z"/>
</g>
<g>
	<path d="M477.6,78.1v-4l-3,1.1V64.5h0.5v4l3-1.1v10.7H477.6z M475.1,73.4l2.5-0.9v-3.3l-2.5,0.9V73.4z"/>
</g>
<rect x="500.7" y="54.1" width="0.5" height="14"/>
<g>
	<path d="M494.3,69.7c0-1.8,2.5-3.5,4.5-3.5c1.3,0,2.3,0.7,2.3,1.7c0,1.7-2.5,3.5-4.6,3.5C495.2,71.4,494.3,70.8,494.3,69.7z"/>
</g>
<rect x="515.3" y="55.6" width="0.5" height="14.9"/>
<g>
	<path d="M508.8,72.1c0-1.8,2.5-3.5,4.5-3.5c1.3,0,2.3,0.7,2.3,1.7c0,1.7-2.5,3.5-4.6,3.5C509.8,73.9,508.8,73.2,508.8,72.1z"/>
</g>
<rect x="530" y="57.3" width="0.5" height="15.7"/>
<g>
	<path d="M523.6,74.6c0-1.8,2.5-3.5,4.5-3.5c1.3,0,2.3,0.7,2.3,1.7c0,1.7-2.5,3.5-4.6,3.5C524.5,76.3,523.6,75.7,523.6,74.6z"/>
</g>
<rect x="544.6" y="59" width="0.5" height="16.4"/>
<g>
	<path d="M538.1,77.1c0-1.8,2.5-3.5,4.5-3.5c1.3,0,2.3,0.7,2.3,1.7c0,1.7-2.5,3.5-4.6,3.5C539.1,78.8,538.1,78.2,538.1,77.1z"/>
</g>
<rect x="64.8" y="137" width="0.5" height="16.4"/>
<g>
	<path d="M64.9,137.1c0-1.8,2.5-3.5,4.5-3.5c1.3,0,2.3,0.7,2.3,1.7c0,1.7-2.5,3.5-4.6,3.5C65.9,138.8,64.9,138.2,64.9,137.1z"/>
</g>
<rect x="81.7" y="139.5" width="0.5" height="15.5"/>
<g>
	<path d="M81.8,139.6c0-1.8,2.5-3.5,4.5-3.5c1.3,0,2.3,0.7,2.3,1.7c0,1.7-2.5,3.5-4.6,3.5C82.8,141.3,81.8,140.7,81.8,139.6z"/>
</g>
<rect x="98.8" y="142" width="0.5" height="14.7"/>
<g>
	<path d="M98.8,142c0-1.8,2.5-3.5,4.5-3.5c1.3,0,2.3,0.7,2.3,1.7c0,1.7-2.5,3.5-4.6,3.5C99.8,143.8,98.8,143.1,98.8,142z"/>
</g>
<rect x="115.7" y="144.5" width="0.5" height="14"/>
<g>
	<path d="M115.7,144.5c0-1.8,2.5-3.5,4.5-3.5c1.3,0,2.3,0.7,2.3,1.7c0,1.7-2.5,3.5-4.6,3.5C116.7,146.3,115.7,145.6,115.7,144.5z"/>
</g>
<rect x="146.8" y="142" width="0.5" height="16.4"/>
<g>
	<path d="M146.9,142c0-1.8,2.5-3.5,4.5-3.5c1.3,0,2.3,0.7,2.3,1.7c0,1.7-2.5,3.5-4.6,3.5C147.9,143.8,146.9,143.1,146.9,142z"/>
</g>
<rect x="163.7" y="139.5" width="0.5" height="17.4"/>
<g>
	<path d="M163.8,139.6c0-1.8,2.5-3.5,4.5-3.5c1.3,0,2.3,0.7,2.3,1.7c0,1.7-2.5,3.5-4.6,3.5C164.8,141.3,163.8,140.7,163.8,139.6z"/>
</g>
<rect x="180.8" y="137" width="0.5" height="18.1"/>
<g>
	<path d="M180.8,137.1c0-1.8,2.5-3.5,4.5-3.5c1.3,0,2.3,0.7,2.3,1.7c0,1.7-2.5,3.5-4.6,3.5C181.8,138.8,180.8,138.2,180.8,137.1z"/>
</g>
<rect x="197.7" y="134.5" width="0.5" height="18.9"/>
<g>
	<path d="M197.7,134.6c0-1.8,2.5-3.5,4.5-3.5c1.3,0,2.3,0.7,2.3,1.7c0,1.7-2.5,3.5-4.6,3.5C198.7,136.3,197.7,135.7,197.7,134.6z"/>
</g>
<rect x="214.6" y="132.1" width="0.5" height="17.7"/>
<g>
	<path d="M214.6,132.1c0-1.8,2.5-3.5,4.5-3.5c1.3,0,2.3,0.7,2.3,1.7c0,1.7-2.5,3.5-4.6,3.5C215.6,133.9,214.6,133.2,214.6,132.1z"/>
</g>
<rect x="229.8" y="128.4" width="10.5" height="0.8"/>
<rect x="231.6" y="129.6" width="0.5" height="19.8"/>
<g>
	<path d="M231.7,129.6c0-1.8,2.5-3.5,4.5-3.5c1.3,0,2.3,0.7,2.3,1.7c0,1.7-2.5,3.5-4.6,3.5C232.7,131.4,231.7,130.7,231.7,129.6z"/>
</g>
<g>
	<path d="M228.5,135.6v-4l-3,1.1V122h0.5v4l3-1.1v10.7H228.5z M226,130.9l2.5-0.9v-3.3l-2.5,0.9V130.9z"/>
</g>
<rect x="246.7" y="128.4" width="10.5" height="0.8"/>
<rect x="248.5" y="127.1" width="0.5" height="21.9"/>
<g>
	<path d="M248.6,127.2c0-1.8,2.5-3.5,4.5-3.5c1.3,0,2.3,0.7,2.3,1.7c0,1.7-2.5,3.5-4.6,3.5C249.6,128.9,248.6,128.3,248.6,127.2z"/>
</g>
<rect x="263.6" y="128.4" width="10.5" height="0.8"/>
<rect x="265.4" y="129.6" width="0.5" height="18.9"/>
<g>
	<path d="M265.5,129.6c0-1.8,2.5-3.5,4.5-3.5c1.3,0,2.3,0.7,2.3,1.7c0,1.7-2.5,3.5-4.6,3.5C266.4,131.4,265.5,130.7,265.5,129.6z"/>
</g>
<rect x="282.4" y="132.1" width="0.5" height="16.4"/>
<g>
	<path d="M282.5,132.1c0-1.8,2.5-3.5,4.5-3.5c1.3,0,2.3,0.7,2.3,1.7c0,1.7-2.5,3.5-4.6,3.5C283.5,133.9,282.5,133.2,282.5,132.1z"/>
</g>
<rect x="299.3" y="134.5" width="0.5" height="15.5"/>
<g>
	<path d="M299.4,134.6c0-1.8,2.5-3.5,4.5-3.5c1.3,0,2.3,0.7,2.3,1.7c0,1.7-2.5,3.5-4.6,3.5C300.4,136.3,299.4,135.7,299.4,134.6z"/>
</g>
<rect x="316.2" y="137" width="0.5" height="14.7"/>
<g>
	<path d="M316.3,137.1c0-1.8,2.5-3.5,4.5-3.5c1.3,0,2.3,0.7,2.3,1.7c0,1.7-2.5,3.5-4.6,3.5C317.3,138.8,316.3,138.2,316.3,137.1z"/>
</g>
<rect x="333.3" y="139.5" width="0.5" height="14"/>
<g>
	<path d="M333.4,139.6c0-1.8,2.5-3.5,4.5-3.5c1.3,0,2.3,0.7,2.3,1.7c0,1.7-2.5,3.5-4.6,3.5C334.3,141.3,333.4,140.7,333.4,139.6z"/>
</g>
<rect x="364.1" y="124" width="0.5" height="16.4"/>
<g>
	<path d="M357.7,142c0-1.8,2.5-3.5,4.5-3.5c1.3,0,2.3,0.7,2.3,1.7c0,1.7-2.5,3.5-4.6,3.5C358.7,143.8,357.7,143.1,357.7,142z"/>
</g>
<rect x="381.2" y="125.5" width="0.5" height="17.4"/>
<g>
	<path d="M374.8,144.5c0-1.8,2.5-3.5,4.5-3.5c1.3,0,2.3,0.7,2.3,1.7c0,1.7-2.5,3.5-4.6,3.5C375.7,146.3,374.8,145.6,374.8,144.5z"/>
</g>
<rect x="398.1" y="127.2" width="0.5" height="18.1"/>
<g>
	<path d="M391.7,147c0-1.8,2.5-3.5,4.5-3.5c1.3,0,2.3,0.7,2.3,1.7c0,1.7-2.5,3.5-4.6,3.5C392.6,148.7,391.7,148.1,391.7,147z"/>
</g>
<g>
	<path d="M389.7,152.9v-4l-3,1.1v-10.7h0.5v4l3-1.1v10.7H389.7z M387.2,148.3l2.5-0.9V144l-2.5,0.9V148.3z"/>
</g>
<rect x="415" y="129" width="0.5" height="18.9"/>
<g>
	<path d="M408.6,149.5c0-1.8,2.5-3.5,4.5-3.5c1.3,0,2.3,0.7,2.3,1.7c0,1.7-2.5,3.5-4.6,3.5C409.5,151.2,408.6,150.6,408.6,149.5z"/>
</g>
<rect x="432" y="133.9" width="0.5" height="16.4"/>
<g>
	<path d="M425.6,152c0-1.8,2.5-3.5,4.5-3.5c1.3,0,2.3,0.7,2.3,1.7c0,1.7-2.5,3.5-4.6,3.5C426.6,153.7,425.6,153.1,425.6,152z"/>
</g>
<rect x="448.9" y="135.5" width="0.5" height="17.4"/>
<g>
	<path d="M442.5,154.4c0-1.8,2.5-3.5,4.5-3.5c1.3,0,2.3,0.7,2.3,1.7c0,1.7-2.5,3.5-4.6,3.5C443.5,156.2,442.5,155.5,442.5,154.4z"/>
</g>
<rect x="465.8" y="137.2" width="0.5" height="18.1"/>
<g>
	<path d="M459.4,156.9c0-1.8,2.5-3.5,4.5-3.5c1.3,0,2.3,0.7,2.3,1.7c0,1.7-2.5,3.5-4.6,3.5C460.4,158.7,459.4,158,459.4,156.9z"/>
</g>
<rect x="474.6" y="158.2" width="10.5" height="0.8"/>
<rect x="482.9" y="138.9" width="0.5" height="18.9"/>
<g>
	<path d="M476.4,159.4c0-1.8,2.5-3.5,4.5-3.5c1.3,0,2.3,0.7,2.3,1.7c0,1.7-2.5,3.5-4.6,3.5C477.4,161.1,476.4,160.5,476.4,159.4z"/>
</g>
<rect x="491.5" y="158.2" width="10.7" height="0.8"/>
<rect x="499.9" y="143.7" width="0.5" height="16.6"/>
<g>
	<path d="M497.6,158.3c1.6,0,2.7,0.7,2.7,2c0,1.9-2.3,3.4-4.5,3.4c-1.3,0-2.4-0.7-2.4-1.8C493.3,160.1,495.6,158.3,497.6,158.3z
		 M493.8,162.2c0,0.6,0.4,0.9,1.1,0.9c1.4,0,4.9-2.1,4.9-3.3c0-0.6-0.4-0.9-1.1-0.9C497.5,158.9,493.8,161,493.8,162.2z"/>
</g>
<rect x="71.3" y="186" width="0.5" height="14"/>
<g>
	<path d="M64.9,201.6c0-1.8,2.5-3.5,4.5-3.5c1.3,0,2.3,0.7,2.3,1.7c0,1.7-2.5,3.5-4.6,3.5C65.9,203.3,64.9,202.7,64.9,201.6z"/>
</g>
<rect x="88.2" y="187.5" width="0.5" height="14.9"/>
<g>
	<path d="M81.8,204.1c0-1.8,2.5-3.5,4.5-3.5c1.3,0,2.3,0.7,2.3,1.7c0,1.7-2.5,3.5-4.6,3.5C82.8,205.8,81.8,205.1,81.8,204.1z"/>
</g>
<rect x="97" y="205.3" width="10.5" height="0.8"/>
<rect x="105.3" y="189.2" width="0.5" height="15.7"/>
<g>
	<path d="M98.8,206.5c0-1.8,2.5-3.5,4.5-3.5c1.3,0,2.3,0.7,2.3,1.7c0,1.7-2.5,3.5-4.6,3.5C99.8,208.3,98.8,207.6,98.8,206.5z"/>
</g>
<rect x="113.9" y="205.3" width="10.5" height="0.8"/>
<rect x="122.2" y="191" width="0.5" height="16.4"/>
<g>
	<path d="M115.7,209c0-1.8,2.5-3.5,4.5-3.5c1.3,0,2.3,0.7,2.3,1.7c0,1.7-2.5,3.5-4.6,3.5C116.7,210.7,115.7,210.1,115.7,209z"/>
</g>
<rect x="146.8" y="181.7" width="0.5" height="18.9"/>
<g>
	<path d="M146.9,181.7c0-1.8,2.5-3.5,4.5-3.5c1.3,0,2.3,0.7,2.3,1.7c0,1.7-2.5,3.5-4.6,3.5C147.9,183.5,146.9,182.8,146.9,181.7z"/>
</g>
<g>
	<path d="M145,187.6v-4l-3,1.1v-10.7h0.5v4l3-1.1v10.7H145z M142.4,183l2.5-0.9v-3.3l-2.5,0.9V183z"/>
</g>
<rect x="163.7" y="184.1" width="0.5" height="18"/>
<g>
	<path d="M163.8,184.2c0-1.8,2.5-3.5,4.5-3.5c1.3,0,2.3,0.7,2.3,1.7c0,1.7-2.5,3.5-4.6,3.5C164.8,185.9,163.8,185.3,163.8,184.2z"/>
</g>
<rect x="180.8" y="186.6" width="0.5" height="17.2"/>
<g>
	<path d="M180.8,186.7c0-1.8,2.5-3.5,4.5-3.5c1.3,0,2.3,0.7,2.3,1.7c0,1.7-2.5,3.5-4.6,3.5C181.8,188.4,180.8,187.8,180.8,186.7z"/>
</g>
<rect x="197.7" y="189.1" width="0.5" height="16.4"/>
<g>
	<path d="M197.7,189.2c0-1.8,2.5-3.5,4.5-3.5c1.3,0,2.3,0.7,2.3,1.7c0,1.7-2.5,3.5-4.6,3.5C198.7,190.9,197.7,190.3,197.7,189.2z"/>
</g>
<rect x="221.1" y="174.8" width="0.5" height="15.2"/>
<g>
	<path d="M214.6,191.7c0-1.8,2.5-3.5,4.5-3.5c1.3,0,2.3,0.7,2.3,1.7c0,1.7-2.5,3.5-4.6,3.5C215.6,193.4,214.6,192.7,214.6,191.7z"/>
</g>
<rect x="238.1" y="175.1" width="0.5" height="17.4"/>
<g>
	<path d="M231.7,194.1c0-1.8,2.5-3.5,4.5-3.5c1.3,0,2.3,0.7,2.3,1.7c0,1.7-2.5,3.5-4.6,3.5C232.7,195.9,231.7,195.2,231.7,194.1z"/>
</g>
<rect x="255" y="175.6" width="0.5" height="19.4"/>
<g>
	<path d="M248.6,196.6c0-1.8,2.5-3.5,4.5-3.5c1.3,0,2.3,0.7,2.3,1.7c0,1.7-2.5,3.5-4.6,3.5C249.6,198.3,248.6,197.7,248.6,196.6z"/>
</g>
<rect x="271.9" y="176.1" width="0.5" height="16.4"/>
<g>
	<path d="M265.5,194.1c0-1.8,2.5-3.5,4.5-3.5c1.3,0,2.3,0.7,2.3,1.7c0,1.7-2.5,3.5-4.6,3.5C266.4,195.9,265.5,195.2,265.5,194.1z"/>
</g>
<rect x="282.4" y="191.6" width="0.5" height="14"/>
<g>
	<path d="M282.5,191.7c0-1.8,2.5-3.5,4.5-3.5c1.3,0,2.3,0.7,2.3,1.7c0,1.7-2.5,3.5-4.6,3.5C283.5,193.4,282.5,192.7,282.5,191.7z"/>
</g>
<rect x="299.3" y="189.1" width="0.5" height="14.9"/>
<g>
	<path d="M299.4,189.2c0-1.8,2.5-3.5,4.5-3.5c1.3,0,2.3,0.7,2.3,1.7c0,1.7-2.5,3.5-4.6,3.5C300.4,190.9,299.4,190.3,299.4,189.2z"/>
</g>
<rect x="316.2" y="186.6" width="0.5" height="15.7"/>
<g>
	<path d="M316.3,186.7c0-1.8,2.5-3.5,4.5-3.5c1.3,0,2.3,0.7,2.3,1.7c0,1.7-2.5,3.5-4.6,3.5C317.3,188.4,316.3,187.8,316.3,186.7z"/>
</g>
<rect x="333.3" y="184.1" width="0.5" height="16.4"/>
<g>
	<path d="M333.4,184.2c0-1.8,2.5-3.5,4.5-3.5c1.3,0,2.3,0.7,2.3,1.7c0,1.7-2.5,3.5-4.6,3.5C334.3,185.9,333.4,185.3,333.4,184.2z"/>
</g>
<rect x="357.6" y="181.7" width="0.5" height="18.9"/>
<g>
	<path d="M357.7,181.7c0-1.8,2.5-3.5,4.5-3.5c1.3,0,2.3,0.7,2.3,1.7c0,1.7-2.5,3.5-4.6,3.5C358.7,183.5,357.7,182.8,357.7,181.7z"/>
</g>
<g>
	<path d="M355.8,187.6v-4l-3,1.1v-10.7h0.5v4l3-1.1v10.7H355.8z M353.2,183l2.5-0.9v-3.3l-2.5,0.9V183z"/>
</g>
<rect x="374.7" y="179.2" width="0.5" height="21.7"/>
<g>
	<path d="M374.8,179.3c0-1.8,2.5-3.5,4.5-3.5c1.3,0,2.3,0.7,2.3,1.7c0,1.7-2.5,3.5-4.6,3.5C375.7,181,374.8,180.3,374.8,179.3z"/>
</g>
<rect x="391.6" y="181.7" width="0.5" height="19.7"/>
<g>
	<path d="M391.7,181.7c0-1.8,2.5-3.5,4.5-3.5c1.3,0,2.3,0.7,2.3,1.7c0,1.7-2.5,3.5-4.6,3.5C392.6,183.5,391.7,182.8,391.7,181.7z"/>
</g>
<rect x="408.5" y="184.1" width="0.5" height="17.7"/>
<g>
	<path d="M408.6,184.2c0-1.8,2.5-3.5,4.5-3.5c1.3,0,2.3,0.7,2.3,1.7c0,1.7-2.5,3.5-4.6,3.5C409.5,185.9,408.6,185.3,408.6,184.2z"/>
</g>
<rect x="425.5" y="186.6" width="0.5" height="18.9"/>
<g>
	<path d="M425.6,186.7c0-1.8,2.5-3.5,4.5-3.5c1.3,0,2.3,0.7,2.3,1.7c0,1.7-2.5,3.5-4.6,3.5C426.6,188.4,425.6,187.8,425.6,186.7z"/>
</g>
<rect x="442.4" y="189.1" width="0.5" height="18"/>
<g>
	<path d="M442.5,189.2c0-1.8,2.5-3.5,4.5-3.5c1.3,0,2.3,0.7,2.3,1.7c0,1.7-2.5,3.5-4.6,3.5C443.5,190.9,442.5,190.3,442.5,189.2z"/>
</g>
<rect x="459.3" y="191.6" width="0.5" height="17.2"/>
<g>
	<path d="M459.4,191.7c0-1.8,2.5-3.5,4.5-3.5c1.3,0,2.3,0.7,2.3,1.7c0,1.7-2.5,3.5-4.6,3.5C460.4,193.4,459.4,192.7,459.4,191.7z"/>
</g>
<rect x="476.4" y="194.1" width="0.5" height="16.4"/>
<g>
	<path d="M476.4,194.1c0-1.8,2.5-3.5,4.5-3.5c1.3,0,2.3,0.7,2.3,1.7c0,1.7-2.5,3.5-4.6,3.5C477.4,195.9,476.4,195.2,476.4,194.1z"/>
</g>
<rect x="499.9" y="178.4" width="0.5" height="16.6"/>
<g>
	<path d="M497.6,193.1c1.6,0,2.7,0.7,2.7,2c0,1.9-2.3,3.4-4.5,3.4c-1.3,0-2.4-0.7-2.4-1.8C493.3,194.8,495.6,193.1,497.6,193.1z
		 M493.8,196.9c0,0.6,0.4,0.9,1.1,0.9c1.4,0,4.9-2.1,4.9-3.3c0-0.6-0.4-0.9-1.1-0.9C497.5,193.7,493.8,195.7,493.8,196.9z"/>
</g>
</svg>
