<?xml version="1.0" encoding="utf-8"?>

<!--
	ScaleBook
	Copyright (c) Leland Jansen 2015. All rights reserved.
-->

<!DOCTYPE svg PUBLIC "-//W3C//DTD SVG 1.1//EN" "http://www.w3.org/Graphics/SVG/1.1/DTD/svg11.dtd">
<svg version="1.1" id="Layer_1" xmlns="http://www.w3.org/2000/svg" xmlns:xlink="http://www.w3.org/1999/xlink" x="0px" y="0px"
	 viewBox="0 0 553 211.4" enable-background="new 0 0 553 211.4" xml:space="preserve">
<rect x="8.4" y="14.3" width="0.8" height="67"/>
<g>
	<path d="M7.4,14.9c-1.9,1.1-3.6,5.8-3.6,9.4c0,2.3,1.4,9.9,1.4,12.3c0,5-1.5,8.6-4.6,11.1c3,2.4,4.6,6.1,4.6,11.1
		c0,2.3-1.4,9.9-1.4,12.3c0,3.8,1.7,8.4,3.6,9.5v0.7C3.9,79,1.7,73,1.7,68.2c0-2.1,1.7-9.4,1.7-11.5c0-3.8-1-6.6-2.9-8.2
		C0.1,48.1,0,47.9,0,47.7c0-0.2,0.1-0.4,0.5-0.7c1.9-1.7,2.9-4.2,2.9-7.6c0-2.1-1.7-10-1.7-12.2c0-5.2,2.1-10.4,5.8-13.1V14.9z"/>
</g>
<rect x="8.4" y="135.8" width="0.8" height="67"/>
<g>
	<path d="M7.4,136.5c-1.9,1.1-3.6,5.8-3.6,9.4c0,2.3,1.4,9.9,1.4,12.3c0,5-1.5,8.6-4.6,11.1c3,2.4,4.6,6.1,4.6,11.1
		c0,2.3-1.4,9.9-1.4,12.3c0,3.8,1.7,8.4,3.6,9.5v0.7c-3.5-2.3-5.8-8.2-5.8-13.1c0-2.1,1.7-9.4,1.7-11.5c0-3.8-1-6.6-2.9-8.2
		c-0.3-0.3-0.5-0.5-0.5-0.7c0-0.2,0.1-0.4,0.5-0.7c1.9-1.7,2.9-4.2,2.9-7.6c0-2.1-1.7-10-1.7-12.2c0-5.2,2.1-10.4,5.8-13.1V136.5z"
		/>
</g>
<rect x="297" y="14.3" width="0.8" height="67"/>
<rect x="552.2" y="14.3" width="0.8" height="67"/>
<rect x="348.6" y="135.8" width="0.8" height="67"/>
<rect x="547.8" y="135.8" width="0.8" height="67"/>
<rect x="550.4" y="135.8" width="2.5" height="67"/>
<rect x="8.5" y="33.9" width="544.4" height="0.5"/>
<rect x="8.5" y="28.9" width="544.4" height="0.5"/>
<rect x="8.5" y="24" width="544.4" height="0.5"/>
<rect x="8.5" y="19" width="544.4" height="0.5"/>
<rect x="8.5" y="14" width="544.4" height="0.5"/>
<g>
	<path d="M20.3,33.9c-4.2,0-8.1-3.1-8.1-6.9c0-3.2,2.3-6.7,6.8-10.5c-0.3-1.2-0.4-2.4-0.4-3.6c0-3.5,1.2-6.8,3.2-8.5
		c1.8,2.5,2.7,4.9,2.7,7.1c0,2.9-1.3,5.6-4.3,8.1l0.9,4.2c0.5,0,0.8-0.1,0.8-0.1c2.6,0,4.8,2,4.8,4.7c0,1.9-1.4,3.7-3.6,4.8
		c0-0.1,0.9,3.8,0.9,4.3c0,2.5-2.3,4.2-4.9,4.2c-2,0-3.6-1.3-3.6-3.4c0-1.4,1-2.6,2.4-2.6c1.3,0,2.3,1.3,2.3,2.5
		c0,1.4-1.2,2.3-2.7,2.5c0.6,0.3,1.2,0.5,1.9,0.5c2.1,0,4.1-1.6,4.1-3.6c0-0.2,0-0.4-0.1-0.6l-0.8-3.7
		C21.9,33.8,21.2,33.9,20.3,33.9z M18.1,28.7c0,1,0.5,1.9,1.6,2.5c-1.8-0.3-3-1.4-3-3.1c0-2,1.7-3.7,3.8-4.1l-0.8-4
		C16,22.8,14,25.5,14,28.2c0,2.9,2.8,5.3,6,5.3c0.9,0,1.7-0.2,2.4-0.5L21,26.1C19.4,26.3,18.1,27.4,18.1,28.7z M22.1,7.4
		c-1.6,0-2.9,3.7-2.9,7c0,0.7,0,1.3,0.2,1.9c2.7-2.4,4-4.5,4-6.5c0-0.9-0.3-1.7-1-2.4C22.4,7.4,22.3,7.4,22.1,7.4z M24.9,29.3
		c0-1.6-1.2-3.3-2.9-3.3c-0.1,0-0.2,0-0.5,0l1.4,6.6C24.2,31.7,24.9,30.6,24.9,29.3z"/>
</g>
<g>
	<path d="M33.5,7.4v2.8l1-0.3v1.8l-1,0.3v3.4l1-0.3V17l-1,0.3v3.1H33v-3l-1.9,0.6v3h-0.5v-2.8l-1,0.3v-1.8l1-0.3V13l-1,0.3v-1.8
		l1-0.3V8.1h0.5v3l1.9-0.6v-3H33.5z M33,12.2l-1.9,0.6v3.4l1.9-0.6V12.2z"/>
</g>
<g>
	<path d="M39.7,14.9v2.8l1-0.3v1.8l-1,0.3V23l1-0.3v1.8l-1,0.3v3.1h-0.5v-3l-1.9,0.6v3h-0.5v-2.8l-1,0.3v-1.8l1-0.3v-3.4l-1,0.3V19
		l1-0.3v-3.1h0.5v3l1.9-0.6v-3H39.7z M39.2,19.7l-1.9,0.6v3.4l1.9-0.6V19.7z"/>
</g>
<g>
	<path d="M45.9,5v2.8l1-0.3v1.8l-1,0.3V13l1-0.3v1.8l-1,0.3V18h-0.5v-3l-1.9,0.6v3H43v-2.8l-1,0.3v-1.8l1-0.3v-3.4l-1,0.3V9l1-0.3
		V5.6h0.5v3l1.9-0.6V5H45.9z M45.4,9.7l-1.9,0.6v3.4l1.9-0.6V9.7z"/>
</g>
<g>
	<path d="M52.1,12.4v2.8l1-0.3v1.8l-1,0.3v3.4l1-0.3v1.8l-1,0.3v3.1h-0.5v-3l-1.9,0.6v3h-0.5v-2.8l-1,0.3v-1.8l1-0.3V18l-1,0.3v-1.8
		l1-0.3V13h0.5v3l1.9-0.6v-3H52.1z M51.6,17.2l-1.9,0.6v3.4l1.9-0.6V17.2z"/>
</g>
<polygon fill-rule="evenodd" clip-rule="evenodd" points="68.5,25.4 112.2,20.5 112.2,18 68.5,22.9 "/>
<polygon fill-rule="evenodd" clip-rule="evenodd" points="68.5,21.7 112.2,16.7 112.2,14.3 68.5,19.2 "/>
<polygon fill-rule="evenodd" clip-rule="evenodd" points="126.7,15.5 170.5,10.5 170.5,8.1 126.7,13 "/>
<polygon fill-rule="evenodd" clip-rule="evenodd" points="126.7,11.8 170.5,6.8 170.5,4.3 126.7,9.3 "/>
<polygon fill-rule="evenodd" clip-rule="evenodd" points="178.5,30.4 222.2,25.4 222.2,22.9 178.5,27.9 "/>
<polygon fill-rule="evenodd" clip-rule="evenodd" points="178.5,34.1 222.2,29.1 222.2,26.7 178.5,31.6 "/>
<polygon fill-rule="evenodd" clip-rule="evenodd" points="236.8,21.7 283.3,20.5 283.3,18 236.8,19.2 "/>
<polygon fill-rule="evenodd" clip-rule="evenodd" points="236.8,25.4 283.3,24.2 283.3,21.7 236.8,22.9 "/>
<polygon fill-rule="evenodd" clip-rule="evenodd" points="305.3,25.4 349,30.4 349,27.9 305.3,22.9 "/>
<polygon fill-rule="evenodd" clip-rule="evenodd" points="305.3,29.1 349,34.1 349,31.6 305.3,26.7 "/>
<rect x="363.6" y="32.9" fill-rule="evenodd" clip-rule="evenodd" width="43.7" height="2.5"/>
<rect x="363.6" y="36.6" fill-rule="evenodd" clip-rule="evenodd" width="43.7" height="2.5"/>
<polygon fill-rule="evenodd" clip-rule="evenodd" points="433.7,25.4 480.2,20.5 480.2,18 433.7,22.9 "/>
<polygon fill-rule="evenodd" clip-rule="evenodd" points="433.7,29.1 480.2,24.2 480.2,21.7 433.7,26.7 "/>
<polygon fill-rule="evenodd" clip-rule="evenodd" points="494.7,20.5 538.5,25.4 538.5,22.9 494.7,18 "/>
<polygon fill-rule="evenodd" clip-rule="evenodd" points="494.7,24.2 538.5,29.1 538.5,26.7 494.7,21.7 "/>
<rect x="8.5" y="81" width="544.4" height="0.5"/>
<rect x="8.5" y="76" width="544.4" height="0.5"/>
<rect x="8.5" y="71.1" width="544.4" height="0.5"/>
<rect x="8.5" y="66.1" width="544.4" height="0.5"/>
<rect x="8.5" y="61.2" width="544.4" height="0.5"/>
<g>
	<path d="M15.7,75.6c2.9-2.6,4.7-6.1,4.7-9.2c0-2.5-1.4-4.4-3.7-4.4c-1.6,0-3.4,1.3-3.4,2.7c0,0.2,0,0.3,0.1,0.3
		c-0.1,0,0.6-0.6,1.4-0.6c0.9,0,1.5,0.8,1.5,1.7c0,1.2-0.9,2.2-2.1,2.2c-1.2,0-2.1-1.3-2.1-2.8c0-2.3,2.3-4.1,4.8-4.1
		c4.7,0,5.9,3.2,5.9,5.8c0,1.6-0.4,2.9-2,5.3c-1.9,3.1-6.4,5.3-8.1,5.3c-0.4,0-0.6-0.2-0.6-0.5C13.8,76.8,14.9,76.3,15.7,75.6z
		 M25.7,62.9c0.6,0,1,0.4,1,1c0,0.6-0.4,1-1,1s-1-0.4-1-1C24.7,63.3,25.1,62.9,25.7,62.9z M25.7,67.8c0.6,0,1,0.4,1,1
		c0,0.6-0.4,1-1,1s-1-0.4-1-1C24.7,68.3,25.1,67.8,25.7,67.8z"/>
</g>
<g>
	<path d="M33.5,59.5v2.8l1-0.3v1.8l-1,0.3v3.4l1-0.3v1.8l-1,0.3v3.1H33v-3l-1.9,0.6v3h-0.5v-2.8l-1,0.3v-1.8l1-0.3v-3.4l-1,0.3v-1.8
		l1-0.3v-3.1h0.5v3l1.9-0.6v-3H33.5z M33,64.3l-1.9,0.6v3.4l1.9-0.6V64.3z"/>
</g>
<g>
	<path d="M39.7,67v2.8l1-0.3v1.8l-1,0.3V75l1-0.3v1.8l-1,0.3V80h-0.5v-3l-1.9,0.6v3h-0.5v-2.8l-1,0.3v-1.8l1-0.3v-3.4l-1,0.3v-1.8
		l1-0.3v-3.1h0.5v3l1.9-0.6v-3H39.7z M39.2,71.7l-1.9,0.6v3.4l1.9-0.6V71.7z"/>
</g>
<g>
	<path d="M45.9,57v2.8l1-0.3v1.8l-1,0.3v3.4l1-0.3v1.8l-1,0.3V70h-0.5v-3l-1.9,0.6v3H43v-2.8l-1,0.3v-1.8l1-0.3v-3.4l-1,0.3v-1.8
		l1-0.3v-3.1h0.5v3l1.9-0.6v-3H45.9z M45.4,61.8l-1.9,0.6v3.4l1.9-0.6V61.8z"/>
</g>
<g>
	<path d="M52.1,64.5v2.8l1-0.3v1.8l-1,0.3v3.4l1-0.3V74l-1,0.3v3.1h-0.5v-3l-1.9,0.6v3h-0.5v-2.8l-1,0.3v-1.8l1-0.3V70l-1,0.3v-1.8
		l1-0.3v-3.1h0.5v3l1.9-0.6v-3H52.1z M51.6,69.3l-1.9,0.6v3.4l1.9-0.6V69.3z"/>
</g>
<polygon fill-rule="evenodd" clip-rule="evenodd" points="61.9,87.4 105.7,82.5 105.7,80 61.9,84.9 "/>
<polygon fill-rule="evenodd" clip-rule="evenodd" points="61.9,91.1 105.7,86.2 105.7,83.7 61.9,88.7 "/>
<polygon fill-rule="evenodd" clip-rule="evenodd" points="120.2,77.5 163.9,72.5 163.9,70.1 120.2,75 "/>
<polygon fill-rule="evenodd" clip-rule="evenodd" points="120.2,81.2 163.9,76.3 163.9,73.8 120.2,78.7 "/>
<polygon fill-rule="evenodd" clip-rule="evenodd" points="178.5,72.5 222.2,77.5 222.2,75 178.5,70.1 "/>
<polygon fill-rule="evenodd" clip-rule="evenodd" points="178.5,76.3 222.2,81.2 222.2,78.7 178.5,73.8 "/>
<rect x="236.8" y="83.7" fill-rule="evenodd" clip-rule="evenodd" width="46.5" height="2.5"/>
<rect x="236.8" y="87.4" fill-rule="evenodd" clip-rule="evenodd" width="46.5" height="2.5"/>
<polygon fill-rule="evenodd" clip-rule="evenodd" points="305.3,82.5 349,77.5 349,75 305.3,80 "/>
<polygon fill-rule="evenodd" clip-rule="evenodd" points="305.3,86.2 349,81.2 349,78.7 305.3,83.7 "/>
<g>
	<path d="M427.5,79.9c-3.2,0-6.1-2.3-6.1-5.1c0-2.4,1.7-5,5.1-7.9c-0.2-0.9-0.3-1.8-0.3-2.7c0-2.6,0.9-5.1,2.4-6.3
		c1.4,1.9,2,3.7,2,5.3c0,2.2-1,4.2-3.2,6.1l0.7,3.1c0.4,0,0.6,0,0.6,0c2,0,3.6,1.5,3.6,3.5c0,1.4-1.1,2.8-2.7,3.6
		c0-0.1,0.6,2.8,0.6,3.3c0,1.9-1.7,3.2-3.7,3.2c-1.5,0-2.7-1-2.7-2.5c0-1.1,0.7-1.9,1.8-1.9c1,0,1.7,1,1.7,1.9c0,1-0.9,1.7-2,1.8
		c0.4,0.2,0.9,0.3,1.4,0.3c1.6,0,3.1-1.2,3.1-2.7c0-0.1,0-0.3,0-0.5l-0.6-2.8C428.7,79.8,428.2,79.9,427.5,79.9z M425.9,76
		c0,0.8,0.4,1.4,1.2,1.9c-1.3-0.2-2.2-1.1-2.2-2.3c0-1.5,1.3-2.8,2.9-3.1l-0.6-3c-2.8,2.1-4.3,4.1-4.3,6.1c0,2.2,2.1,4,4.5,4
		c0.7,0,1.3-0.1,1.8-0.4L428,74C426.8,74.2,425.9,74.9,425.9,76z M428.9,59.9c-1.2,0-2.2,2.8-2.2,5.3c0,0.5,0,1,0.1,1.4
		c2-1.8,3-3.4,3-4.9c0-0.7-0.3-1.3-0.7-1.8C429.1,60,429,59.9,428.9,59.9z M431,76.4c0-1.2-0.9-2.4-2.2-2.4c0,0-0.2,0-0.4,0l1.1,5
		C430.4,78.2,431,77.3,431,76.4z"/>
</g>
<polygon fill-rule="evenodd" clip-rule="evenodd" points="363.6,72.5 407.3,67.6 407.3,65.1 363.6,70.1 "/>
<polygon fill-rule="evenodd" clip-rule="evenodd" points="363.6,76.3 407.3,71.3 407.3,68.8 363.6,73.8 "/>
<polygon fill-rule="evenodd" clip-rule="evenodd" points="440.2,66.3 486.7,61.4 486.7,58.9 440.2,63.9 "/>
<polygon fill-rule="evenodd" clip-rule="evenodd" points="440.2,62.6 486.7,57.7 486.7,55.2 440.2,60.1 "/>
<polygon fill-rule="evenodd" clip-rule="evenodd" points="501.3,57.7 545,62.6 545,60.1 501.3,55.2 "/>
<polygon fill-rule="evenodd" clip-rule="evenodd" points="501.3,53.9 545,58.9 545,56.4 501.3,51.5 "/>
<rect x="8.5" y="155.4" width="544.4" height="0.5"/>
<rect x="8.5" y="150.4" width="544.4" height="0.5"/>
<rect x="8.5" y="145.5" width="544.4" height="0.5"/>
<rect x="8.5" y="140.5" width="544.4" height="0.5"/>
<rect x="8.5" y="135.6" width="544.4" height="0.5"/>
<g>
	<path d="M20.3,155.5c-4.2,0-8.1-3.1-8.1-6.9c0-3.2,2.3-6.7,6.8-10.5c-0.3-1.2-0.4-2.4-0.4-3.6c0-3.5,1.2-6.8,3.2-8.5
		c1.8,2.5,2.7,4.9,2.7,7.1c0,2.9-1.3,5.6-4.3,8.1l0.9,4.2c0.5,0,0.8-0.1,0.8-0.1c2.6,0,4.8,2,4.8,4.7c0,1.9-1.4,3.7-3.6,4.8
		c0-0.1,0.9,3.8,0.9,4.3c0,2.5-2.3,4.2-4.9,4.2c-2,0-3.6-1.3-3.6-3.4c0-1.4,1-2.6,2.4-2.6c1.3,0,2.3,1.3,2.3,2.5
		c0,1.4-1.2,2.3-2.7,2.5c0.6,0.3,1.2,0.5,1.9,0.5c2.1,0,4.1-1.6,4.1-3.6c0-0.2,0-0.4-0.1-0.6l-0.8-3.7
		C21.9,155.3,21.2,155.5,20.3,155.5z M18.1,150.3c0,1,0.5,1.9,1.6,2.5c-1.8-0.3-3-1.4-3-3.1c0-2,1.7-3.7,3.8-4.1l-0.8-4
		c-3.7,2.8-5.7,5.5-5.7,8.1c0,2.9,2.8,5.3,6,5.3c0.9,0,1.7-0.2,2.4-0.5l-1.4-6.8C19.4,147.9,18.1,148.9,18.1,150.3z M22.1,128.9
		c-1.6,0-2.9,3.7-2.9,7c0,0.7,0,1.3,0.2,1.9c2.7-2.4,4-4.5,4-6.5c0-0.9-0.3-1.7-1-2.4C22.4,128.9,22.3,128.9,22.1,128.9z
		 M24.9,150.8c0-1.6-1.2-3.3-2.9-3.3c-0.1,0-0.2,0-0.5,0l1.4,6.6C24.2,153.3,24.9,152.1,24.9,150.8z"/>
</g>
<g>
	<path d="M33.5,129v2.8l1-0.3v1.8l-1,0.3v3.4l1-0.3v1.8l-1,0.3v3.1H33v-3l-1.9,0.6v3h-0.5v-2.8l-1,0.3v-1.8l1-0.3v-3.4l-1,0.3v-1.8
		l1-0.3v-3.1h0.5v3l1.9-0.6v-3H33.5z M33,133.7l-1.9,0.6v3.4l1.9-0.6V133.7z"/>
</g>
<g>
	<path d="M39.7,136.4v2.8l1-0.3v1.8l-1,0.3v3.4l1-0.3v1.8l-1,0.3v3.1h-0.5v-3l-1.9,0.6v3h-0.5v-2.8l-1,0.3v-1.8l1-0.3V142l-1,0.3
		v-1.8l1-0.3V137h0.5v3l1.9-0.6v-3H39.7z M39.2,141.2l-1.9,0.6v3.4l1.9-0.6V141.2z"/>
</g>
<g>
	<path d="M45.9,126.5v2.8l1-0.3v1.8l-1,0.3v3.4l1-0.3v1.8l-1,0.3v3.1h-0.5v-3l-1.9,0.6v3H43v-2.8l-1,0.3v-1.8l1-0.3V132l-1,0.3v-1.8
		l1-0.3v-3.1h0.5v3l1.9-0.6v-3H45.9z M45.4,131.3l-1.9,0.6v3.4l1.9-0.6V131.3z"/>
</g>
<g>
	<path d="M52.1,133.9v2.8l1-0.3v1.8l-1,0.3v3.4l1-0.3v1.8l-1,0.3v3.1h-0.5v-3l-1.9,0.6v3h-0.5v-2.8l-1,0.3v-1.8l1-0.3v-3.4l-1,0.3
		V138l1-0.3v-3.1h0.5v3l1.9-0.6v-3H52.1z M51.6,138.7l-1.9,0.6v3.4l1.9-0.6V138.7z"/>
</g>
<polygon fill-rule="evenodd" clip-rule="evenodd" points="61.9,151.9 112.9,156.9 112.9,154.4 61.9,149.4 "/>
<polygon fill-rule="evenodd" clip-rule="evenodd" points="61.9,155.6 112.9,160.6 112.9,158.1 61.9,153.2 "/>
<polygon fill-rule="evenodd" clip-rule="evenodd" points="145.5,151.9 196.5,147 196.5,144.5 145.5,149.4 "/>
<polygon fill-rule="evenodd" clip-rule="evenodd" points="145.5,155.6 196.5,150.7 196.5,148.2 145.5,153.2 "/>
<polygon fill-rule="evenodd" clip-rule="evenodd" points="213.5,143.2 264.5,142 264.5,139.5 213.5,140.8 "/>
<polygon fill-rule="evenodd" clip-rule="evenodd" points="213.5,147 264.5,145.7 264.5,143.2 213.5,144.5 "/>
<polygon fill-rule="evenodd" clip-rule="evenodd" points="281.4,147 332.4,151.9 332.4,149.4 281.4,144.5 "/>
<polygon fill-rule="evenodd" clip-rule="evenodd" points="281.4,150.7 332.4,155.6 332.4,153.2 281.4,148.2 "/>
<polygon fill-rule="evenodd" clip-rule="evenodd" points="357.4,156.9 408.4,161.8 408.4,159.4 357.4,154.4 "/>
<polygon fill-rule="evenodd" clip-rule="evenodd" points="357.4,160.6 408.4,165.6 408.4,163.1 357.4,158.1 "/>
<polygon fill-rule="evenodd" clip-rule="evenodd" points="431.8,142 482.8,147 482.8,144.5 431.8,139.5 "/>
<polygon fill-rule="evenodd" clip-rule="evenodd" points="431.8,138.3 482.8,143.2 482.8,140.8 431.8,135.8 "/>
<rect x="8.5" y="202.5" width="544.4" height="0.5"/>
<rect x="8.5" y="197.6" width="544.4" height="0.5"/>
<rect x="8.5" y="192.6" width="544.4" height="0.5"/>
<rect x="8.5" y="187.6" width="544.4" height="0.5"/>
<rect x="8.5" y="182.7" width="544.4" height="0.5"/>
<g>
	<path d="M20.3,202.6c-4.2,0-8.1-3.1-8.1-6.9c0-3.2,2.3-6.7,6.8-10.5c-0.3-1.2-0.4-2.4-0.4-3.6c0-3.5,1.2-6.8,3.2-8.5
		c1.8,2.5,2.7,4.9,2.7,7.1c0,2.9-1.3,5.6-4.3,8.1l0.9,4.2c0.5,0,0.8-0.1,0.8-0.1c2.6,0,4.8,2,4.8,4.7c0,1.9-1.4,3.7-3.6,4.8
		c0-0.1,0.9,3.8,0.9,4.3c0,2.5-2.3,4.2-4.9,4.2c-2,0-3.6-1.3-3.6-3.4c0-1.4,1-2.6,2.4-2.6c1.3,0,2.3,1.3,2.3,2.5
		c0,1.4-1.2,2.3-2.7,2.5c0.6,0.3,1.2,0.5,1.9,0.5c2.1,0,4.1-1.6,4.1-3.6c0-0.2,0-0.4-0.1-0.6l-0.8-3.7
		C21.9,202.5,21.2,202.6,20.3,202.6z M18.1,197.4c0,1,0.5,1.9,1.6,2.5c-1.8-0.3-3-1.4-3-3.1c0-2,1.7-3.7,3.8-4.1l-0.8-4
		c-3.7,2.8-5.7,5.5-5.7,8.1c0,2.9,2.8,5.3,6,5.3c0.9,0,1.7-0.2,2.4-0.5l-1.4-6.8C19.4,195,18.1,196,18.1,197.4z M22.1,176
		c-1.6,0-2.9,3.7-2.9,7c0,0.7,0,1.3,0.2,1.9c2.7-2.4,4-4.5,4-6.5c0-0.9-0.3-1.7-1-2.4C22.4,176.1,22.3,176,22.1,176z M24.9,197.9
		c0-1.6-1.2-3.3-2.9-3.3c-0.1,0-0.2,0-0.5,0l1.4,6.6C24.2,200.4,24.9,199.2,24.9,197.9z"/>
</g>
<g>
	<path d="M33.5,176.1v2.8l1-0.3v1.8l-1,0.3v3.4l1-0.3v1.8l-1,0.3v3.1H33v-3l-1.9,0.6v3h-0.5v-2.8l-1,0.3v-1.8l1-0.3v-3.4l-1,0.3
		v-1.8l1-0.3v-3.1h0.5v3l1.9-0.6v-3H33.5z M33,180.9l-1.9,0.6v3.4l1.9-0.6V180.9z"/>
</g>
<g>
	<path d="M39.7,183.5v2.8l1-0.3v1.8l-1,0.3v3.4l1-0.3v1.8l-1,0.3v3.1h-0.5v-3l-1.9,0.6v3h-0.5v-2.8l-1,0.3v-1.8l1-0.3v-3.4l-1,0.3
		v-1.8l1-0.3v-3.1h0.5v3l1.9-0.6v-3H39.7z M39.2,188.3l-1.9,0.6v3.4l1.9-0.6V188.3z"/>
</g>
<g>
	<path d="M45.9,173.6v2.8l1-0.3v1.8l-1,0.3v3.4l1-0.3v1.8l-1,0.3v3.1h-0.5v-3l-1.9,0.6v3H43v-2.8l-1,0.3v-1.8l1-0.3v-3.4l-1,0.3
		v-1.8l1-0.3v-3.1h0.5v3l1.9-0.6v-3H45.9z M45.4,178.4l-1.9,0.6v3.4l1.9-0.6V178.4z"/>
</g>
<g>
	<path d="M52.1,181.1v2.8l1-0.3v1.8l-1,0.3v3.4l1-0.3v1.8l-1,0.3v3.1h-0.5v-3l-1.9,0.6v3h-0.5v-2.8l-1,0.3v-1.8l1-0.3v-3.4l-1,0.3
		v-1.8l1-0.3v-3.1h0.5v3l1.9-0.6v-3H52.1z M51.6,185.8l-1.9,0.6v3.4l1.9-0.6V185.8z"/>
</g>
<g>
	<path d="M129.7,194.8c2.2-2,3.6-4.6,3.6-6.9c0-1.9-1.1-3.3-2.8-3.3c-1.2,0-2.5,1-2.5,2.1c0,0.2,0,0.2,0.1,0.2c0,0,0.4-0.5,1-0.5
		c0.7,0,1.2,0.6,1.2,1.3c0,0.9-0.6,1.7-1.6,1.7c-0.9,0-1.5-1-1.5-2.1c0-1.8,1.7-3.1,3.6-3.1c3.5,0,4.4,2.4,4.4,4.4
		c0,1.2-0.3,2.2-1.5,4c-1.4,2.3-4.8,4-6,4c-0.3,0-0.5-0.1-0.5-0.3C128.3,195.7,129.1,195.3,129.7,194.8z M137.2,185.3
		c0.4,0,0.7,0.3,0.7,0.7c0,0.4-0.3,0.7-0.7,0.7s-0.7-0.3-0.7-0.7C136.4,185.6,136.7,185.3,137.2,185.3z M137.2,189
		c0.4,0,0.7,0.3,0.7,0.7s-0.3,0.7-0.7,0.7s-0.7-0.3-0.7-0.7S136.7,189,137.2,189z"/>
</g>
<polygon fill-rule="evenodd" clip-rule="evenodd" points="68.5,189.1 119.5,194.1 119.5,191.6 68.5,186.6 "/>
<polygon fill-rule="evenodd" clip-rule="evenodd" points="68.5,185.4 119.5,190.4 119.5,187.9 68.5,182.9 "/>
<polygon fill-rule="evenodd" clip-rule="evenodd" points="145.5,194.1 196.5,199 196.5,196.6 145.5,191.6 "/>
<polygon fill-rule="evenodd" clip-rule="evenodd" points="145.5,197.8 196.5,202.8 196.5,200.3 145.5,195.3 "/>
<rect x="213.5" y="205.2" fill-rule="evenodd" clip-rule="evenodd" width="51" height="2.5"/>
<rect x="213.5" y="209" fill-rule="evenodd" clip-rule="evenodd" width="51" height="2.5"/>
<polygon fill-rule="evenodd" clip-rule="evenodd" points="281.4,204 332.4,199 332.4,196.6 281.4,201.5 "/>
<polygon fill-rule="evenodd" clip-rule="evenodd" points="281.4,207.7 332.4,202.8 332.4,200.3 281.4,205.2 "/>
<polygon fill-rule="evenodd" clip-rule="evenodd" points="357.4,194.1 408.4,195.3 408.4,192.8 357.4,191.6 "/>
<polygon fill-rule="evenodd" clip-rule="evenodd" points="357.4,197.8 408.4,199 408.4,196.6 357.4,195.3 "/>
<polygon fill-rule="evenodd" clip-rule="evenodd" points="425.3,199 476.3,204 476.3,201.5 425.3,196.6 "/>
<polygon fill-rule="evenodd" clip-rule="evenodd" points="425.3,202.8 476.3,207.7 476.3,205.2 425.3,200.3 "/>
<rect x="59.9" y="38.7" width="10.5" height="0.8"/>
<rect x="68.2" y="19.4" width="0.5" height="18.9"/>
<g>
	<path d="M61.8,39.9c0-1.8,2.5-3.5,4.5-3.5c1.3,0,2.3,0.7,2.3,1.7c0,1.7-2.5,3.5-4.6,3.5C62.8,41.6,61.8,41,61.8,39.9z"/>
</g>
<rect x="82.8" y="17.8" width="0.5" height="18"/>
<g>
	<path d="M76.4,37.4c0-1.8,2.5-3.5,4.5-3.5c1.3,0,2.3,0.7,2.3,1.7c0,1.7-2.5,3.5-4.6,3.5C77.3,39.2,76.4,38.5,76.4,37.4z"/>
</g>
<rect x="97.4" y="16.1" width="0.5" height="17.2"/>
<g>
	<path d="M90.9,35c0-1.8,2.5-3.5,4.5-3.5c1.3,0,2.3,0.7,2.3,1.7c0,1.7-2.5,3.5-4.6,3.5C91.9,36.7,90.9,36,90.9,35z"/>
</g>
<rect x="111.9" y="14.4" width="0.5" height="16.4"/>
<g>
	<path d="M105.5,32.5c0-1.8,2.5-3.5,4.5-3.5c1.3,0,2.3,0.7,2.3,1.7c0,1.7-2.5,3.5-4.6,3.5C106.5,34.2,105.5,33.6,105.5,32.5z"/>
</g>
<rect x="126.5" y="9.5" width="0.5" height="18.9"/>
<g>
	<path d="M120.1,30c0-1.8,2.5-3.5,4.5-3.5c1.3,0,2.3,0.7,2.3,1.7c0,1.7-2.5,3.5-4.6,3.5C121,31.7,120.1,31.1,120.1,30z"/>
</g>
<rect x="141.1" y="7.9" width="0.5" height="18"/>
<g>
	<path d="M134.6,27.5c0-1.8,2.5-3.5,4.5-3.5c1.3,0,2.3,0.7,2.3,1.7c0,1.7-2.5,3.5-4.6,3.5C135.6,29.2,134.6,28.6,134.6,27.5z"/>
</g>
<rect x="155.6" y="6.2" width="0.5" height="17.2"/>
<g>
	<path d="M149.2,25c0-1.8,2.5-3.5,4.5-3.5c1.3,0,2.3,0.7,2.3,1.7c0,1.7-2.5,3.5-4.6,3.5C150.2,26.8,149.2,26.1,149.2,25z"/>
</g>
<g>
	<path d="M146.8,17.4v2.8l1-0.3v1.8l-1,0.3v3.4l1-0.3v1.8l-1,0.3v3.1h-0.5v-3l-1.9,0.6v3h-0.5v-2.8l-1,0.3v-1.8l1-0.3v-3.4l-1,0.3
		v-1.8l1-0.3V18h0.5v3l1.9-0.6v-3H146.8z M146.3,22.1l-1.9,0.6v3.4l1.9-0.6V22.1z"/>
</g>
<rect x="170.2" y="4.5" width="0.5" height="16.4"/>
<g>
	<path d="M163.8,22.6c0-1.8,2.5-3.5,4.5-3.5c1.3,0,2.3,0.7,2.3,1.7c0,1.7-2.5,3.5-4.6,3.5C164.8,24.3,163.8,23.6,163.8,22.6z"/>
</g>
<rect x="178.3" y="20" width="0.5" height="14"/>
<g>
	<path d="M178.4,20.1c0-1.8,2.5-3.5,4.5-3.5c1.3,0,2.3,0.7,2.3,1.7c0,1.7-2.5,3.5-4.6,3.5C179.3,21.8,178.4,21.2,178.4,20.1z"/>
</g>
<rect x="192.9" y="17.5" width="0.5" height="14.9"/>
<g>
	<path d="M192.9,17.6c0-1.8,2.5-3.5,4.5-3.5c1.3,0,2.3,0.7,2.3,1.7c0,1.7-2.5,3.5-4.6,3.5C193.9,19.3,192.9,18.7,192.9,17.6z"/>
</g>
<rect x="207.4" y="15" width="0.5" height="15.7"/>
<g>
	<path d="M207.5,15.1c0-1.8,2.5-3.5,4.5-3.5c1.3,0,2.3,0.7,2.3,1.7c0,1.7-2.5,3.5-4.6,3.5C208.5,16.8,207.5,16.2,207.5,15.1z"/>
</g>
<rect x="222" y="12.6" width="0.5" height="16.4"/>
<g>
	<path d="M222.1,12.6c0-1.8,2.5-3.5,4.5-3.5c1.3,0,2.3,0.7,2.3,1.7c0,1.7-2.5,3.5-4.6,3.5C223,14.4,222.1,13.7,222.1,12.6z"/>
</g>
<rect x="234.8" y="8.9" width="10.5" height="0.8"/>
<rect x="236.6" y="10.1" width="0.5" height="15.2"/>
<g>
	<path d="M236.6,10.2c0-1.8,2.5-3.5,4.5-3.5c1.3,0,2.3,0.7,2.3,1.7c0,1.7-2.5,3.5-4.6,3.5C237.6,11.9,236.6,11.2,236.6,10.2z"/>
</g>
<rect x="252.1" y="8.9" width="10.5" height="0.8"/>
<rect x="253.9" y="7.6" width="0.5" height="17.4"/>
<g>
	<path d="M254,7.7c0-1.8,2.5-3.5,4.5-3.5c1.3,0,2.3,0.7,2.3,1.7c0,1.7-2.5,3.5-4.6,3.5C255,9.4,254,8.8,254,7.7z"/>
</g>
<g>
	<path d="M250.3,0v2.8l1-0.3v1.8l-1,0.3v3.4l1-0.3v1.8l-1,0.3V13h-0.5v-3l-1.9,0.6v3h-0.5v-2.8l-1,0.3V9.3l1-0.3V5.6l-1,0.3V4.1
		l1-0.3V0.6h0.5v3l1.9-0.6V0H250.3z M249.8,4.8l-1.9,0.6v3.4l1.9-0.6V4.8z"/>
</g>
<rect x="266.7" y="8.9" width="10.5" height="0.8"/>
<rect x="266.7" y="4" width="10.5" height="0.8"/>
<rect x="268.5" y="5.1" width="0.5" height="19.4"/>
<g>
	<path d="M268.6,5.2c0-1.8,2.5-3.5,4.5-3.5c1.3,0,2.3,0.7,2.3,1.7c0,1.7-2.5,3.5-4.6,3.5C269.5,6.9,268.6,6.3,268.6,5.2z"/>
</g>
<rect x="281.3" y="8.9" width="10.5" height="0.8"/>
<rect x="283.1" y="7.6" width="0.5" height="16.4"/>
<g>
	<path d="M283.1,7.7c0-1.8,2.5-3.5,4.5-3.5c1.3,0,2.3,0.7,2.3,1.7c0,1.7-2.5,3.5-4.6,3.5C284.1,9.4,283.1,8.8,283.1,7.7z"/>
</g>
<rect x="303.3" y="8.9" width="10.5" height="0.8"/>
<rect x="305.1" y="10.1" width="0.5" height="18.9"/>
<g>
	<path d="M305.2,10.2c0-1.8,2.5-3.5,4.5-3.5c1.3,0,2.3,0.7,2.3,1.7c0,1.7-2.5,3.5-4.6,3.5C306.1,11.9,305.2,11.2,305.2,10.2z"/>
</g>
<rect x="319.7" y="12.6" width="0.5" height="18"/>
<g>
	<path d="M319.7,12.6c0-1.8,2.5-3.5,4.5-3.5c1.3,0,2.3,0.7,2.3,1.7c0,1.7-2.5,3.5-4.6,3.5C320.7,14.4,319.7,13.7,319.7,12.6z"/>
</g>
<rect x="334.2" y="15" width="0.5" height="17.2"/>
<g>
	<path d="M334.3,15.1c0-1.8,2.5-3.5,4.5-3.5c1.3,0,2.3,0.7,2.3,1.7c0,1.7-2.5,3.5-4.6,3.5C335.3,16.8,334.3,16.2,334.3,15.1z"/>
</g>
<rect x="348.8" y="17.5" width="0.5" height="16.4"/>
<g>
	<path d="M348.9,17.6c0-1.8,2.5-3.5,4.5-3.5c1.3,0,2.3,0.7,2.3,1.7c0,1.7-2.5,3.5-4.6,3.5C349.8,19.3,348.9,18.7,348.9,17.6z"/>
</g>
<rect x="363.4" y="20" width="0.5" height="18.9"/>
<g>
	<path d="M363.4,20.1c0-1.8,2.5-3.5,4.5-3.5c1.3,0,2.3,0.7,2.3,1.7c0,1.7-2.5,3.5-4.6,3.5C364.4,21.8,363.4,21.2,363.4,20.1z"/>
</g>
<rect x="377.9" y="22.5" width="0.5" height="16.4"/>
<g>
	<path d="M378,22.6c0-1.8,2.5-3.5,4.5-3.5c1.3,0,2.3,0.7,2.3,1.7c0,1.7-2.5,3.5-4.6,3.5C379,24.3,378,23.6,378,22.6z"/>
</g>
<rect x="392.5" y="20" width="0.5" height="18.9"/>
<g>
	<path d="M392.6,20.1c0-1.8,2.5-3.5,4.5-3.5c1.3,0,2.3,0.7,2.3,1.7c0,1.7-2.5,3.5-4.6,3.5C393.6,21.8,392.6,21.2,392.6,20.1z"/>
</g>
<rect x="407.1" y="17.5" width="0.5" height="21.4"/>
<g>
	<path d="M407.2,17.6c0-1.8,2.5-3.5,4.5-3.5c1.3,0,2.3,0.7,2.3,1.7c0,1.7-2.5,3.5-4.6,3.5C408.1,19.3,407.2,18.7,407.2,17.6z"/>
</g>
<rect x="433.4" y="15" width="0.5" height="14"/>
<g>
	<path d="M433.5,15.1c0-1.8,2.5-3.5,4.5-3.5c1.3,0,2.3,0.7,2.3,1.7c0,1.7-2.5,3.5-4.6,3.5C434.5,16.8,433.5,16.2,433.5,15.1z"/>
</g>
<rect x="448" y="12.6" width="0.5" height="14.9"/>
<g>
	<path d="M448.1,12.6c0-1.8,2.5-3.5,4.5-3.5c1.3,0,2.3,0.7,2.3,1.7c0,1.7-2.5,3.5-4.6,3.5C449.1,14.4,448.1,13.7,448.1,12.6z"/>
</g>
<rect x="460.8" y="8.9" width="10.5" height="0.8"/>
<rect x="462.6" y="10.1" width="0.5" height="15.8"/>
<g>
	<path d="M462.7,10.2c0-1.8,2.5-3.5,4.5-3.5c1.3,0,2.3,0.7,2.3,1.7c0,1.7-2.5,3.5-4.6,3.5C463.6,11.9,462.7,11.2,462.7,10.2z"/>
</g>
<rect x="478.2" y="8.9" width="10.5" height="0.8"/>
<rect x="479.9" y="7.6" width="0.5" height="16.4"/>
<g>
	<path d="M480,7.7c0-1.8,2.5-3.5,4.5-3.5c1.3,0,2.3,0.7,2.3,1.7c0,1.7-2.5,3.5-4.6,3.5C481,9.4,480,8.8,480,7.7z"/>
</g>
<g>
	<path d="M476.3,0v2.8l1-0.3v1.8l-1,0.3v3.4l1-0.3v1.8l-1,0.3V13h-0.5v-3l-1.9,0.6v3h-0.5v-2.8l-1,0.3V9.3l1-0.3V5.6l-1,0.3V4.1
		l1-0.3V0.6h0.5v3l1.9-0.6V0H476.3z M475.9,4.8l-1.9,0.6v3.4l1.9-0.6V4.8z"/>
</g>
<rect x="492.7" y="8.9" width="10.5" height="0.8"/>
<rect x="492.7" y="4" width="10.5" height="0.8"/>
<rect x="494.5" y="5.1" width="0.5" height="18.9"/>
<g>
	<path d="M494.6,5.2c0-1.8,2.5-3.5,4.5-3.5c1.3,0,2.3,0.7,2.3,1.7c0,1.7-2.5,3.5-4.6,3.5C495.6,6.9,494.6,6.3,494.6,5.2z"/>
</g>
<rect x="507.3" y="8.9" width="10.5" height="0.8"/>
<rect x="509.1" y="7.6" width="0.5" height="18"/>
<g>
	<path d="M509.2,7.7c0-1.8,2.5-3.5,4.5-3.5c1.3,0,2.3,0.7,2.3,1.7c0,1.7-2.5,3.5-4.6,3.5C510.1,9.4,509.2,8.8,509.2,7.7z"/>
</g>
<rect x="521.9" y="8.9" width="10.5" height="0.8"/>
<rect x="523.7" y="10.1" width="0.5" height="17.2"/>
<g>
	<path d="M523.7,10.2c0-1.8,2.5-3.5,4.5-3.5c1.3,0,2.3,0.7,2.3,1.7c0,1.7-2.5,3.5-4.6,3.5C524.7,11.9,523.7,11.2,523.7,10.2z"/>
</g>
<rect x="538.2" y="12.6" width="0.5" height="16.4"/>
<g>
	<path d="M538.3,12.6c0-1.8,2.5-3.5,4.5-3.5c1.3,0,2.3,0.7,2.3,1.7c0,1.7-2.5,3.5-4.6,3.5C539.3,14.4,538.3,13.7,538.3,12.6z"/>
</g>
<rect x="61.7" y="74.6" width="0.5" height="16.4"/>
<g>
	<path d="M61.8,74.6c0-1.8,2.5-3.5,4.5-3.5c1.3,0,2.3,0.7,2.3,1.7c0,1.7-2.5,3.5-4.6,3.5C62.8,76.4,61.8,75.7,61.8,74.6z"/>
</g>
<rect x="76.3" y="72.1" width="0.5" height="17.4"/>
<g>
	<path d="M76.4,72.2c0-1.8,2.5-3.5,4.5-3.5c1.3,0,2.3,0.7,2.3,1.7c0,1.7-2.5,3.5-4.6,3.5C77.3,73.9,76.4,73.3,76.4,72.2z"/>
</g>
<rect x="90.9" y="69.6" width="0.5" height="18.1"/>
<g>
	<path d="M90.9,69.7c0-1.8,2.5-3.5,4.5-3.5c1.3,0,2.3,0.7,2.3,1.7c0,1.7-2.5,3.5-4.6,3.5C91.9,71.4,90.9,70.8,90.9,69.7z"/>
</g>
<rect x="105.4" y="67.1" width="0.5" height="18.9"/>
<g>
	<path d="M105.5,67.2c0-1.8,2.5-3.5,4.5-3.5c1.3,0,2.3,0.7,2.3,1.7c0,1.7-2.5,3.5-4.6,3.5C106.5,68.9,105.5,68.3,105.5,67.2z"/>
</g>
<rect x="120" y="64.6" width="0.5" height="16.4"/>
<g>
	<path d="M120.1,64.7c0-1.8,2.5-3.5,4.5-3.5c1.3,0,2.3,0.7,2.3,1.7c0,1.7-2.5,3.5-4.6,3.5C121,66.4,120.1,65.8,120.1,64.7z"/>
</g>
<rect x="134.6" y="62.2" width="0.5" height="17.4"/>
<g>
	<path d="M134.6,62.2c0-1.8,2.5-3.5,4.5-3.5c1.3,0,2.3,0.7,2.3,1.7c0,1.7-2.5,3.5-4.6,3.5C135.6,64,134.6,63.3,134.6,62.2z"/>
</g>
<rect x="149.1" y="59.7" width="0.5" height="18.1"/>
<g>
	<path d="M149.2,59.8c0-1.8,2.5-3.5,4.5-3.5c1.3,0,2.3,0.7,2.3,1.7c0,1.7-2.5,3.5-4.6,3.5C150.2,61.5,149.2,60.9,149.2,59.8z"/>
</g>
<g>
	<path d="M146.8,52.1v2.8l1-0.3v1.8l-1,0.3v3.4l1-0.3v1.8l-1,0.3v3.1h-0.5v-3l-1.9,0.6v3h-0.5v-2.8l-1,0.3v-1.8l1-0.3v-3.4l-1,0.3
		v-1.8l1-0.3v-3.1h0.5v3l1.9-0.6v-3H146.8z M146.3,56.9l-1.9,0.6v3.4l1.9-0.6V56.9z"/>
</g>
<rect x="161.9" y="56" width="10.5" height="0.8"/>
<rect x="163.7" y="57.2" width="0.5" height="18.9"/>
<g>
	<path d="M163.8,57.3c0-1.8,2.5-3.5,4.5-3.5c1.3,0,2.3,0.7,2.3,1.7c0,1.7-2.5,3.5-4.6,3.5C164.8,59,163.8,58.4,163.8,57.3z"/>
</g>
<rect x="178.3" y="59.7" width="0.5" height="16.4"/>
<g>
	<path d="M178.4,59.8c0-1.8,2.5-3.5,4.5-3.5c1.3,0,2.3,0.7,2.3,1.7c0,1.7-2.5,3.5-4.6,3.5C179.3,61.5,178.4,60.9,178.4,59.8z"/>
</g>
<rect x="192.9" y="62.2" width="0.5" height="15.5"/>
<g>
	<path d="M192.9,62.2c0-1.8,2.5-3.5,4.5-3.5c1.3,0,2.3,0.7,2.3,1.7c0,1.7-2.5,3.5-4.6,3.5C193.9,64,192.9,63.3,192.9,62.2z"/>
</g>
<rect x="207.4" y="64.6" width="0.5" height="14.7"/>
<g>
	<path d="M207.5,64.7c0-1.8,2.5-3.5,4.5-3.5c1.3,0,2.3,0.7,2.3,1.7c0,1.7-2.5,3.5-4.6,3.5C208.5,66.4,207.5,65.8,207.5,64.7z"/>
</g>
<rect x="222" y="67.1" width="0.5" height="14"/>
<g>
	<path d="M222.1,67.2c0-1.8,2.5-3.5,4.5-3.5c1.3,0,2.3,0.7,2.3,1.7c0,1.7-2.5,3.5-4.6,3.5C223,68.9,222.1,68.3,222.1,67.2z"/>
</g>
<rect x="236.6" y="69.6" width="0.5" height="20.2"/>
<g>
	<path d="M236.6,69.7c0-1.8,2.5-3.5,4.5-3.5c1.3,0,2.3,0.7,2.3,1.7c0,1.7-2.5,3.5-4.6,3.5C237.6,71.4,236.6,70.8,236.6,69.7z"/>
</g>
<rect x="253.9" y="72.1" width="0.5" height="17.7"/>
<g>
	<path d="M254,72.2c0-1.8,2.5-3.5,4.5-3.5c1.3,0,2.3,0.7,2.3,1.7c0,1.7-2.5,3.5-4.6,3.5C255,73.9,254,73.3,254,72.2z"/>
</g>
<rect x="268.5" y="74.6" width="0.5" height="15.2"/>
<g>
	<path d="M268.6,74.6c0-1.8,2.5-3.5,4.5-3.5c1.3,0,2.3,0.7,2.3,1.7c0,1.7-2.5,3.5-4.6,3.5C269.5,76.4,268.6,75.7,268.6,74.6z"/>
</g>
<rect x="283.1" y="72.1" width="0.5" height="17.7"/>
<g>
	<path d="M283.1,72.2c0-1.8,2.5-3.5,4.5-3.5c1.3,0,2.3,0.7,2.3,1.7c0,1.7-2.5,3.5-4.6,3.5C284.1,73.9,283.1,73.3,283.1,72.2z"/>
</g>
<rect x="305.1" y="69.6" width="0.5" height="16.4"/>
<g>
	<path d="M305.2,69.7c0-1.8,2.5-3.5,4.5-3.5c1.3,0,2.3,0.7,2.3,1.7c0,1.7-2.5,3.5-4.6,3.5C306.1,71.4,305.2,70.8,305.2,69.7z"/>
</g>
<rect x="319.7" y="67.1" width="0.5" height="17.4"/>
<g>
	<path d="M319.7,67.2c0-1.8,2.5-3.5,4.5-3.5c1.3,0,2.3,0.7,2.3,1.7c0,1.7-2.5,3.5-4.6,3.5C320.7,68.9,319.7,68.3,319.7,67.2z"/>
</g>
<rect x="334.2" y="64.6" width="0.5" height="18.1"/>
<g>
	<path d="M334.3,64.7c0-1.8,2.5-3.5,4.5-3.5c1.3,0,2.3,0.7,2.3,1.7c0,1.7-2.5,3.5-4.6,3.5C335.3,66.4,334.3,65.8,334.3,64.7z"/>
</g>
<rect x="348.8" y="62.2" width="0.5" height="18.9"/>
<g>
	<path d="M348.9,62.2c0-1.8,2.5-3.5,4.5-3.5c1.3,0,2.3,0.7,2.3,1.7c0,1.7-2.5,3.5-4.6,3.5C349.8,64,348.9,63.3,348.9,62.2z"/>
</g>
<rect x="363.4" y="59.7" width="0.5" height="16.4"/>
<g>
	<path d="M363.4,59.8c0-1.8,2.5-3.5,4.5-3.5c1.3,0,2.3,0.7,2.3,1.7c0,1.7-2.5,3.5-4.6,3.5C364.4,61.5,363.4,60.9,363.4,59.8z"/>
</g>
<g>
	<path d="M361,52.1v2.8l1-0.3v1.8l-1,0.3v3.4l1-0.3v1.8l-1,0.3v3.1h-0.5v-3l-1.9,0.6v3h-0.5v-2.8l-1,0.3v-1.8l1-0.3v-3.4l-1,0.3
		v-1.8l1-0.3v-3.1h0.5v3l1.9-0.6v-3H361z M360.5,56.9l-1.9,0.6v3.4l1.9-0.6V56.9z"/>
</g>
<rect x="376.2" y="56" width="10.5" height="0.8"/>
<rect x="377.9" y="57.2" width="0.5" height="17.4"/>
<g>
	<path d="M378,57.3c0-1.8,2.5-3.5,4.5-3.5c1.3,0,2.3,0.7,2.3,1.7c0,1.7-2.5,3.5-4.6,3.5C379,59,378,58.4,378,57.3z"/>
</g>
<rect x="390.7" y="56" width="10.5" height="0.8"/>
<rect x="392.5" y="54.7" width="0.5" height="18.1"/>
<g>
	<path d="M392.6,54.8c0-1.8,2.5-3.5,4.5-3.5c1.3,0,2.3,0.7,2.3,1.7c0,1.7-2.5,3.5-4.6,3.5C393.6,56.5,392.6,55.9,392.6,54.8z"/>
</g>
<rect x="405.3" y="56" width="10.5" height="0.8"/>
<rect x="405.3" y="51.1" width="10.5" height="0.8"/>
<rect x="407.1" y="52.2" width="0.5" height="18.9"/>
<g>
	<path d="M407.2,52.3c0-1.8,2.5-3.5,4.5-3.5c1.3,0,2.3,0.7,2.3,1.7c0,1.7-2.5,3.5-4.6,3.5C408.1,54,407.2,53.4,407.2,52.3z"/>
</g>
<rect x="439.9" y="60.3" width="0.5" height="17.7"/>
<g>
	<path d="M433.5,79.6c0-1.8,2.5-3.5,4.5-3.5c1.3,0,2.3,0.7,2.3,1.7c0,1.7-2.5,3.5-4.6,3.5C434.5,81.3,433.5,80.7,433.5,79.6z"/>
</g>
<rect x="454.5" y="58.8" width="0.5" height="16.7"/>
<g>
	<path d="M448.1,77.1c0-1.8,2.5-3.5,4.5-3.5c1.3,0,2.3,0.7,2.3,1.7c0,1.7-2.5,3.5-4.6,3.5C449.1,78.8,448.1,78.2,448.1,77.1z"/>
</g>
<rect x="469.1" y="57.2" width="0.5" height="15.8"/>
<g>
	<path d="M462.7,74.6c0-1.8,2.5-3.5,4.5-3.5c1.3,0,2.3,0.7,2.3,1.7c0,1.7-2.5,3.5-4.6,3.5C463.6,76.4,462.7,75.7,462.7,74.6z"/>
</g>
<rect x="486.4" y="55.3" width="0.5" height="15.2"/>
<g>
	<path d="M480,72.2c0-1.8,2.5-3.5,4.5-3.5c1.3,0,2.3,0.7,2.3,1.7c0,1.7-2.5,3.5-4.6,3.5C481,73.9,480,73.3,480,72.2z"/>
</g>
<g>
	<path d="M477.6,64.5v2.8l1-0.3v1.8l-1,0.3v3.4l1-0.3V74l-1,0.3v3.1h-0.5v-3l-1.9,0.6v3h-0.5v-2.8l-1,0.3v-1.8l1-0.3V70l-1,0.3v-1.8
		l1-0.3v-3.1h0.5v3l1.9-0.6v-3H477.6z M477.1,69.3l-1.9,0.6v3.4l1.9-0.6V69.3z"/>
</g>
<rect x="501" y="51.6" width="0.5" height="16.4"/>
<g>
	<path d="M494.6,69.7c0-1.8,2.5-3.5,4.5-3.5c1.3,0,2.3,0.7,2.3,1.7c0,1.7-2.5,3.5-4.6,3.5C495.6,71.4,494.6,70.8,494.6,69.7z"/>
</g>
<rect x="515.6" y="53.2" width="0.5" height="17.4"/>
<g>
	<path d="M509.2,72.2c0-1.8,2.5-3.5,4.5-3.5c1.3,0,2.3,0.7,2.3,1.7c0,1.7-2.5,3.5-4.6,3.5C510.1,73.9,509.2,73.3,509.2,72.2z"/>
</g>
<rect x="530.2" y="54.9" width="0.5" height="18.1"/>
<g>
	<path d="M523.7,74.6c0-1.8,2.5-3.5,4.5-3.5c1.3,0,2.3,0.7,2.3,1.7c0,1.7-2.5,3.5-4.6,3.5C524.7,76.4,523.7,75.7,523.7,74.6z"/>
</g>
<rect x="544.7" y="56.6" width="0.5" height="18.9"/>
<g>
	<path d="M538.3,77.1c0-1.8,2.5-3.5,4.5-3.5c1.3,0,2.3,0.7,2.3,1.7c0,1.7-2.5,3.5-4.6,3.5C539.3,78.8,538.3,78.2,538.3,77.1z"/>
</g>
<rect x="61.7" y="136.6" width="0.5" height="18.9"/>
<g>
	<path d="M61.8,136.6c0-1.8,2.5-3.5,4.5-3.5c1.3,0,2.3,0.7,2.3,1.7c0,1.7-2.5,3.5-4.6,3.5C62.8,138.4,61.8,137.7,61.8,136.6z"/>
</g>
<rect x="78.8" y="139" width="0.5" height="18"/>
<g>
	<path d="M78.8,139.1c0-1.8,2.5-3.5,4.5-3.5c1.3,0,2.3,0.7,2.3,1.7c0,1.7-2.5,3.5-4.6,3.5C79.8,140.9,78.8,140.2,78.8,139.1z"/>
</g>
<rect x="95.7" y="141.5" width="0.5" height="17.2"/>
<g>
	<path d="M95.7,141.6c0-1.8,2.5-3.5,4.5-3.5c1.3,0,2.3,0.7,2.3,1.7c0,1.7-2.5,3.5-4.6,3.5C96.7,143.3,95.7,142.7,95.7,141.6z"/>
</g>
<rect x="112.7" y="144" width="0.5" height="16.4"/>
<g>
	<path d="M112.8,144.1c0-1.8,2.5-3.5,4.5-3.5c1.3,0,2.3,0.7,2.3,1.7c0,1.7-2.5,3.5-4.6,3.5C113.8,145.8,112.8,145.2,112.8,144.1z"/>
</g>
<rect x="145.3" y="141.5" width="0.5" height="14"/>
<g>
	<path d="M145.3,141.6c0-1.8,2.5-3.5,4.5-3.5c1.3,0,2.3,0.7,2.3,1.7c0,1.7-2.5,3.5-4.6,3.5C146.3,143.3,145.3,142.7,145.3,141.6z"/>
</g>
<rect x="162.3" y="139" width="0.5" height="14.9"/>
<g>
	<path d="M162.4,139.1c0-1.8,2.5-3.5,4.5-3.5c1.3,0,2.3,0.7,2.3,1.7c0,1.7-2.5,3.5-4.6,3.5C163.4,140.9,162.4,140.2,162.4,139.1z"/>
</g>
<rect x="179.2" y="136.6" width="0.5" height="15.7"/>
<g>
	<path d="M179.3,136.6c0-1.8,2.5-3.5,4.5-3.5c1.3,0,2.3,0.7,2.3,1.7c0,1.7-2.5,3.5-4.6,3.5C180.3,138.4,179.3,137.7,179.3,136.6z"/>
</g>
<rect x="196.3" y="134.1" width="0.5" height="16.4"/>
<g>
	<path d="M196.3,134.2c0-1.8,2.5-3.5,4.5-3.5c1.3,0,2.3,0.7,2.3,1.7c0,1.7-2.5,3.5-4.6,3.5C197.3,135.9,196.3,135.3,196.3,134.2z"/>
</g>
<rect x="211.5" y="130.4" width="10.5" height="0.8"/>
<rect x="213.3" y="131.6" width="0.5" height="15.2"/>
<g>
	<path d="M213.4,131.7c0-1.8,2.5-3.5,4.5-3.5c1.3,0,2.3,0.7,2.3,1.7c0,1.7-2.5,3.5-4.6,3.5C214.4,133.4,213.4,132.8,213.4,131.7z"/>
</g>
<rect x="228.4" y="130.4" width="10.5" height="0.8"/>
<rect x="230.2" y="129.1" width="0.5" height="17.4"/>
<g>
	<path d="M230.3,129.2c0-1.8,2.5-3.5,4.5-3.5c1.3,0,2.3,0.7,2.3,1.7c0,1.7-2.5,3.5-4.6,3.5C231.3,130.9,230.3,130.3,230.3,129.2z"/>
</g>
<g>
	<path d="M226.6,121.5v2.8l1-0.3v1.8l-1,0.3v3.4l1-0.3v1.8l-1,0.3v3.1h-0.5v-3l-1.9,0.6v3h-0.5v-2.8l-1,0.3v-1.8l1-0.3v-3.4l-1,0.3
		v-1.8l1-0.3v-3.1h0.5v3l1.9-0.6v-3H226.6z M226.1,126.3l-1.9,0.6v3.4l1.9-0.6V126.3z"/>
</g>
<rect x="245.5" y="130.4" width="10.5" height="0.8"/>
<rect x="245.5" y="125.5" width="10.5" height="0.8"/>
<rect x="247.3" y="126.6" width="0.5" height="19.4"/>
<g>
	<path d="M247.3,126.7c0-1.8,2.5-3.5,4.5-3.5c1.3,0,2.3,0.7,2.3,1.7c0,1.7-2.5,3.5-4.6,3.5C248.3,128.4,247.3,127.8,247.3,126.7z"/>
</g>
<rect x="262.5" y="130.4" width="10.5" height="0.8"/>
<rect x="264.3" y="129.1" width="0.5" height="16.4"/>
<g>
	<path d="M264.4,129.2c0-1.8,2.5-3.5,4.5-3.5c1.3,0,2.3,0.7,2.3,1.7c0,1.7-2.5,3.5-4.6,3.5C265.4,130.9,264.4,130.3,264.4,129.2z"/>
</g>
<rect x="279.4" y="130.4" width="10.5" height="0.8"/>
<rect x="281.2" y="131.6" width="0.5" height="18.9"/>
<g>
	<path d="M281.3,131.7c0-1.8,2.5-3.5,4.5-3.5c1.3,0,2.3,0.7,2.3,1.7c0,1.7-2.5,3.5-4.6,3.5C282.3,133.4,281.3,132.8,281.3,131.7z"/>
</g>
<rect x="298.3" y="134.1" width="0.5" height="18"/>
<g>
	<path d="M298.3,134.2c0-1.8,2.5-3.5,4.5-3.5c1.3,0,2.3,0.7,2.3,1.7c0,1.7-2.5,3.5-4.6,3.5C299.3,135.9,298.3,135.3,298.3,134.2z"/>
</g>
<rect x="315.2" y="136.6" width="0.5" height="17.2"/>
<g>
	<path d="M315.2,136.6c0-1.8,2.5-3.5,4.5-3.5c1.3,0,2.3,0.7,2.3,1.7c0,1.7-2.5,3.5-4.6,3.5C316.2,138.4,315.2,137.7,315.2,136.6z"/>
</g>
<rect x="332.2" y="139" width="0.5" height="16.4"/>
<g>
	<path d="M332.3,139.1c0-1.8,2.5-3.5,4.5-3.5c1.3,0,2.3,0.7,2.3,1.7c0,1.7-2.5,3.5-4.6,3.5C333.3,140.9,332.3,140.2,332.3,139.1z"/>
</g>
<rect x="357.2" y="141.5" width="0.5" height="18.9"/>
<g>
	<path d="M357.2,141.6c0-1.8,2.5-3.5,4.5-3.5c1.3,0,2.3,0.7,2.3,1.7c0,1.7-2.5,3.5-4.6,3.5C358.2,143.3,357.2,142.7,357.2,141.6z"/>
</g>
<rect x="374.1" y="144" width="0.5" height="18"/>
<g>
	<path d="M374.1,144.1c0-1.8,2.5-3.5,4.5-3.5c1.3,0,2.3,0.7,2.3,1.7c0,1.7-2.5,3.5-4.6,3.5C375.1,145.8,374.1,145.2,374.1,144.1z"/>
</g>
<rect x="391.1" y="146.5" width="0.5" height="17.2"/>
<g>
	<path d="M391.2,146.6c0-1.8,2.5-3.5,4.5-3.5c1.3,0,2.3,0.7,2.3,1.7c0,1.7-2.5,3.5-4.6,3.5C392.2,148.3,391.2,147.7,391.2,146.6z"/>
</g>
<g>
	<path d="M388.8,138.9v2.8l1-0.3v1.8l-1,0.3v3.4l1-0.3v1.8l-1,0.3v3.1h-0.5v-3l-1.9,0.6v3h-0.5v-2.8l-1,0.3v-1.8l1-0.3v-3.4l-1,0.3
		V143l1-0.3v-3.1h0.5v3l1.9-0.6v-3H388.8z M388.3,143.7l-1.9,0.6v3.4l1.9-0.6V143.7z"/>
</g>
<rect x="408.2" y="149" width="0.5" height="16.4"/>
<g>
	<path d="M408.2,149c0-1.8,2.5-3.5,4.5-3.5c1.3,0,2.3,0.7,2.3,1.7c0,1.7-2.5,3.5-4.6,3.5C409.2,150.8,408.2,150.1,408.2,149z"/>
</g>
<rect x="431.6" y="135.9" width="0.5" height="14"/>
<g>
	<path d="M425.1,151.5c0-1.8,2.5-3.5,4.5-3.5c1.3,0,2.3,0.7,2.3,1.7c0,1.7-2.5,3.5-4.6,3.5C426.1,153.3,425.1,152.6,425.1,151.5z"/>
</g>
<rect x="448.6" y="137.5" width="0.5" height="14.9"/>
<g>
	<path d="M442.2,154c0-1.8,2.5-3.5,4.5-3.5c1.3,0,2.3,0.7,2.3,1.7c0,1.7-2.5,3.5-4.6,3.5C443.2,155.7,442.2,155.1,442.2,154z"/>
</g>
<rect x="465.7" y="139.2" width="0.5" height="15.7"/>
<g>
	<path d="M459.2,156.5c0-1.8,2.5-3.5,4.5-3.5c1.3,0,2.3,0.7,2.3,1.7c0,1.7-2.5,3.5-4.6,3.5C460.2,158.2,459.2,157.6,459.2,156.5z"/>
</g>
<rect x="482.6" y="140.9" width="0.5" height="16.4"/>
<g>
	<path d="M476.1,159c0-1.8,2.5-3.5,4.5-3.5c1.3,0,2.3,0.7,2.3,1.7c0,1.7-2.5,3.5-4.6,3.5C477.1,160.7,476.1,160.1,476.1,159z"/>
</g>
<rect x="491.3" y="160.2" width="10.7" height="0.8"/>
<rect x="499.8" y="143.2" width="0.5" height="16.6"/>
<g>
	<path d="M497.5,157.9c1.6,0,2.7,0.7,2.7,2c0,1.9-2.3,3.4-4.5,3.4c-1.3,0-2.4-0.7-2.4-1.8C493.2,159.7,495.4,157.9,497.5,157.9z
		 M493.6,161.7c0,0.6,0.4,0.9,1.1,0.9c1.4,0,4.9-2.1,4.9-3.3c0-0.6-0.4-0.9-1.1-0.9C497.3,158.5,493.6,160.5,493.6,161.7z"/>
</g>
<rect x="68.2" y="183.1" width="0.5" height="16.4"/>
<g>
	<path d="M61.8,201.1c0-1.8,2.5-3.5,4.5-3.5c1.3,0,2.3,0.7,2.3,1.7c0,1.7-2.5,3.5-4.6,3.5C62.8,202.9,61.8,202.2,61.8,201.1z"/>
</g>
<rect x="85.3" y="184.6" width="0.5" height="17.4"/>
<g>
	<path d="M78.8,203.6c0-1.8,2.5-3.5,4.5-3.5c1.3,0,2.3,0.7,2.3,1.7c0,1.7-2.5,3.5-4.6,3.5C79.8,205.3,78.8,204.7,78.8,203.6z"/>
</g>
<rect x="102.2" y="186.3" width="0.5" height="18.1"/>
<g>
	<path d="M95.7,206.1c0-1.8,2.5-3.5,4.5-3.5c1.3,0,2.3,0.7,2.3,1.7c0,1.7-2.5,3.5-4.6,3.5C96.7,207.8,95.7,207.2,95.7,206.1z"/>
</g>
<rect x="110.9" y="207.3" width="10.5" height="0.8"/>
<rect x="119.2" y="188" width="0.5" height="18.9"/>
<g>
	<path d="M112.8,208.6c0-1.8,2.5-3.5,4.5-3.5c1.3,0,2.3,0.7,2.3,1.7c0,1.7-2.5,3.5-4.6,3.5C113.8,210.3,112.8,209.7,112.8,208.6z"/>
</g>
<rect x="145.3" y="181.2" width="0.5" height="16.4"/>
<g>
	<path d="M145.3,181.3c0-1.8,2.5-3.5,4.5-3.5c1.3,0,2.3,0.7,2.3,1.7c0,1.7-2.5,3.5-4.6,3.5C146.3,183,145.3,182.4,145.3,181.3z"/>
</g>
<g>
	<path d="M142.9,173.6v2.8l1-0.3v1.8l-1,0.3v3.4l1-0.3v1.8l-1,0.3v3.1h-0.5v-3l-1.9,0.6v3H140v-2.8l-1,0.3v-1.8l1-0.3v-3.4l-1,0.3
		v-1.8l1-0.3v-3.1h0.5v3l1.9-0.6v-3H142.9z M142.4,178.4l-1.9,0.6v3.4l1.9-0.6V178.4z"/>
</g>
<rect x="162.3" y="183.7" width="0.5" height="15.5"/>
<g>
	<path d="M162.4,183.8c0-1.8,2.5-3.5,4.5-3.5c1.3,0,2.3,0.7,2.3,1.7c0,1.7-2.5,3.5-4.6,3.5C163.4,185.5,162.4,184.9,162.4,183.8z"/>
</g>
<rect x="179.2" y="186.2" width="0.5" height="14.7"/>
<g>
	<path d="M179.3,186.2c0-1.8,2.5-3.5,4.5-3.5c1.3,0,2.3,0.7,2.3,1.7c0,1.7-2.5,3.5-4.6,3.5C180.3,188,179.3,187.3,179.3,186.2z"/>
</g>
<rect x="196.3" y="188.6" width="0.5" height="14"/>
<g>
	<path d="M196.3,188.7c0-1.8,2.5-3.5,4.5-3.5c1.3,0,2.3,0.7,2.3,1.7c0,1.7-2.5,3.5-4.6,3.5C197.3,190.5,196.3,189.8,196.3,188.7z"/>
</g>
<rect x="213.3" y="191.1" width="0.5" height="20.2"/>
<g>
	<path d="M213.4,191.2c0-1.8,2.5-3.5,4.5-3.5c1.3,0,2.3,0.7,2.3,1.7c0,1.7-2.5,3.5-4.6,3.5C214.4,192.9,213.4,192.3,213.4,191.2z"/>
</g>
<rect x="230.2" y="193.6" width="0.5" height="17.7"/>
<g>
	<path d="M230.3,193.7c0-1.8,2.5-3.5,4.5-3.5c1.3,0,2.3,0.7,2.3,1.7c0,1.7-2.5,3.5-4.6,3.5C231.3,195.4,230.3,194.8,230.3,193.7z"/>
</g>
<rect x="247.3" y="196.1" width="0.5" height="15.2"/>
<g>
	<path d="M247.3,196.2c0-1.8,2.5-3.5,4.5-3.5c1.3,0,2.3,0.7,2.3,1.7c0,1.7-2.5,3.5-4.6,3.5C248.3,197.9,247.3,197.3,247.3,196.2z"/>
</g>
<rect x="264.3" y="193.6" width="0.5" height="17.7"/>
<g>
	<path d="M264.4,193.7c0-1.8,2.5-3.5,4.5-3.5c1.3,0,2.3,0.7,2.3,1.7c0,1.7-2.5,3.5-4.6,3.5C265.4,195.4,264.4,194.8,264.4,193.7z"/>
</g>
<rect x="281.2" y="191.1" width="0.5" height="16.4"/>
<g>
	<path d="M281.3,191.2c0-1.8,2.5-3.5,4.5-3.5c1.3,0,2.3,0.7,2.3,1.7c0,1.7-2.5,3.5-4.6,3.5C282.3,192.9,281.3,192.3,281.3,191.2z"/>
</g>
<rect x="298.3" y="188.6" width="0.5" height="17.4"/>
<g>
	<path d="M298.3,188.7c0-1.8,2.5-3.5,4.5-3.5c1.3,0,2.3,0.7,2.3,1.7c0,1.7-2.5,3.5-4.6,3.5C299.3,190.5,298.3,189.8,298.3,188.7z"/>
</g>
<rect x="315.2" y="186.2" width="0.5" height="18.1"/>
<g>
	<path d="M315.2,186.2c0-1.8,2.5-3.5,4.5-3.5c1.3,0,2.3,0.7,2.3,1.7c0,1.7-2.5,3.5-4.6,3.5C316.2,188,315.2,187.3,315.2,186.2z"/>
</g>
<rect x="332.2" y="183.7" width="0.5" height="18.9"/>
<g>
	<path d="M332.3,183.8c0-1.8,2.5-3.5,4.5-3.5c1.3,0,2.3,0.7,2.3,1.7c0,1.7-2.5,3.5-4.6,3.5C333.3,185.5,332.3,184.9,332.3,183.8z"/>
</g>
<rect x="357.2" y="181.2" width="0.5" height="16.4"/>
<g>
	<path d="M357.2,181.3c0-1.8,2.5-3.5,4.5-3.5c1.3,0,2.3,0.7,2.3,1.7c0,1.7-2.5,3.5-4.6,3.5C358.2,183,357.2,182.4,357.2,181.3z"/>
</g>
<g>
	<path d="M354.8,173.6v2.8l1-0.3v1.8l-1,0.3v3.4l1-0.3v1.8l-1,0.3v3.1h-0.5v-3l-1.9,0.6v3h-0.5v-2.8l-1,0.3v-1.8l1-0.3v-3.4l-1,0.3
		v-1.8l1-0.3v-3.1h0.5v3l1.9-0.6v-3H354.8z M354.3,178.4l-1.9,0.6v3.4l1.9-0.6V178.4z"/>
</g>
<rect x="372.3" y="177.6" width="10.5" height="0.8"/>
<rect x="374.1" y="178.7" width="0.5" height="19.2"/>
<g>
	<path d="M374.1,178.8c0-1.8,2.5-3.5,4.5-3.5c1.3,0,2.3,0.7,2.3,1.7c0,1.7-2.5,3.5-4.6,3.5C375.1,180.5,374.1,179.9,374.1,178.8z"/>
</g>
<rect x="391.1" y="181.2" width="0.5" height="17.2"/>
<g>
	<path d="M391.2,181.3c0-1.8,2.5-3.5,4.5-3.5c1.3,0,2.3,0.7,2.3,1.7c0,1.7-2.5,3.5-4.6,3.5C392.2,183,391.2,182.4,391.2,181.3z"/>
</g>
<rect x="408.2" y="183.7" width="0.5" height="15.2"/>
<g>
	<path d="M408.2,183.8c0-1.8,2.5-3.5,4.5-3.5c1.3,0,2.3,0.7,2.3,1.7c0,1.7-2.5,3.5-4.6,3.5C409.2,185.5,408.2,184.9,408.2,183.8z"/>
</g>
<rect x="425.1" y="186.2" width="0.5" height="16.4"/>
<g>
	<path d="M425.1,186.2c0-1.8,2.5-3.5,4.5-3.5c1.3,0,2.3,0.7,2.3,1.7c0,1.7-2.5,3.5-4.6,3.5C426.1,188,425.1,187.3,425.1,186.2z"/>
</g>
<rect x="442.1" y="188.6" width="0.5" height="15.5"/>
<g>
	<path d="M442.2,188.7c0-1.8,2.5-3.5,4.5-3.5c1.3,0,2.3,0.7,2.3,1.7c0,1.7-2.5,3.5-4.6,3.5C443.2,190.5,442.2,189.8,442.2,188.7z"/>
</g>
<rect x="459.2" y="191.1" width="0.5" height="14.7"/>
<g>
	<path d="M459.2,191.2c0-1.8,2.5-3.5,4.5-3.5c1.3,0,2.3,0.7,2.3,1.7c0,1.7-2.5,3.5-4.6,3.5C460.2,192.9,459.2,192.3,459.2,191.2z"/>
</g>
<rect x="476.1" y="193.6" width="0.5" height="14"/>
<g>
	<path d="M476.1,193.7c0-1.8,2.5-3.5,4.5-3.5c1.3,0,2.3,0.7,2.3,1.7c0,1.7-2.5,3.5-4.6,3.5C477.1,195.4,476.1,194.8,476.1,193.7z"/>
</g>
<rect x="499.8" y="178" width="0.5" height="16.6"/>
<g>
	<path d="M497.5,192.6c1.6,0,2.7,0.7,2.7,2c0,1.9-2.3,3.4-4.5,3.4c-1.3,0-2.4-0.7-2.4-1.8C493.2,194.4,495.4,192.6,497.5,192.6z
		 M493.6,196.5c0,0.6,0.4,0.9,1.1,0.9c1.4,0,4.9-2.1,4.9-3.3c0-0.6-0.4-0.9-1.1-0.9C497.3,193.2,493.6,195.2,493.6,196.5z"/>
</g>
</svg>
