<?xml version="1.0" encoding="utf-8"?>

<!--
	ScaleBook
	Copyright (c) Leland Jansen 2015. All rights reserved.
-->

<!DOCTYPE svg PUBLIC "-//W3C//DTD SVG 1.1//EN" "http://www.w3.org/Graphics/SVG/1.1/DTD/svg11.dtd">
<svg version="1.1" id="Layer_1" xmlns="http://www.w3.org/2000/svg" xmlns:xlink="http://www.w3.org/1999/xlink" x="0px" y="0px"
	 viewBox="0 0 553 204.5" enable-background="new 0 0 553 204.5" xml:space="preserve">
<rect x="8.4" y="9.9" width="0.8" height="67"/>
<g>
	<path d="M7.4,10.6c-1.9,1.1-3.6,5.8-3.6,9.4c0,2.3,1.4,9.9,1.4,12.3c0,5-1.5,8.6-4.6,11.1c3,2.4,4.6,6.1,4.6,11.1
		c0,2.3-1.4,9.9-1.4,12.3c0,3.8,1.7,8.4,3.6,9.5v0.7c-3.5-2.3-5.8-8.2-5.8-13.1c0-2.1,1.7-9.4,1.7-11.5c0-3.8-1-6.6-2.9-8.2
		C0.1,43.8,0,43.6,0,43.4c0-0.2,0.1-0.4,0.5-0.7c1.9-1.7,2.9-4.2,2.9-7.6c0-2.1-1.7-10-1.7-12.2c0-5.2,2.1-10.4,5.8-13.1V10.6z"/>
</g>
<rect x="8.4" y="131.3" width="0.8" height="67"/>
<g>
	<path d="M7.4,132c-1.9,1.1-3.6,5.8-3.6,9.4c0,2.3,1.4,9.9,1.4,12.3c0,5-1.5,8.6-4.6,11.1c3,2.4,4.6,6.1,4.6,11.1
		c0,2.3-1.4,9.9-1.4,12.3c0,3.8,1.7,8.4,3.6,9.5v0.7c-3.5-2.3-5.8-8.2-5.8-13.1c0-2.1,1.7-9.4,1.7-11.5c0-3.8-1-6.6-2.9-8.2
		C0.1,165.2,0,165,0,164.8c0-0.2,0.1-0.4,0.5-0.7c1.9-1.7,2.9-4.2,2.9-7.6c0-2.1-1.7-10-1.7-12.2c0-5.2,2.1-10.4,5.8-13.1V132z"/>
</g>
<rect x="298.7" y="9.9" width="0.8" height="67"/>
<rect x="552.2" y="9.9" width="0.8" height="67"/>
<rect x="339.6" y="131.3" width="0.8" height="67"/>
<rect x="547.8" y="131.3" width="0.8" height="67"/>
<rect x="550.4" y="131.3" width="2.5" height="67"/>
<rect x="8.5" y="29.5" width="544.4" height="0.5"/>
<rect x="8.5" y="24.6" width="544.4" height="0.5"/>
<rect x="8.5" y="19.6" width="544.4" height="0.5"/>
<rect x="8.5" y="14.6" width="544.4" height="0.5"/>
<rect x="8.5" y="9.7" width="544.4" height="0.5"/>
<g>
	<path d="M20.3,29.6c-4.2,0-8.1-3.1-8.1-6.9c0-3.2,2.3-6.7,6.8-10.5c-0.3-1.2-0.4-2.4-0.4-3.6c0-3.5,1.2-6.8,3.2-8.5
		c1.8,2.5,2.7,4.9,2.7,7.1c0,2.9-1.3,5.6-4.3,8.1l0.9,4.2c0.5,0,0.8-0.1,0.8-0.1c2.6,0,4.8,2,4.8,4.7c0,1.9-1.4,3.7-3.6,4.8
		c0-0.1,0.9,3.8,0.9,4.3c0,2.5-2.3,4.2-4.9,4.2c-2,0-3.6-1.3-3.6-3.4c0-1.4,1-2.6,2.4-2.6c1.3,0,2.3,1.3,2.3,2.5
		c0,1.4-1.2,2.3-2.7,2.5c0.6,0.3,1.2,0.5,1.9,0.5c2.1,0,4.1-1.6,4.1-3.6c0-0.2,0-0.4-0.1-0.6l-0.8-3.7
		C21.9,29.5,21.2,29.6,20.3,29.6z M18.1,24.4c0,1,0.5,1.9,1.6,2.5c-1.8-0.3-3-1.4-3-3.1c0-2,1.7-3.7,3.8-4.1l-0.8-4
		C16,18.5,14,21.2,14,23.8c0,2.9,2.8,5.3,6,5.3c0.9,0,1.7-0.2,2.4-0.5L21,21.8C19.4,22,18.1,23,18.1,24.4z M22.1,3
		c-1.6,0-2.9,3.7-2.9,7c0,0.7,0,1.3,0.2,1.9c2.7-2.4,4-4.5,4-6.5c0-0.9-0.3-1.7-1-2.4C22.4,3.1,22.3,3,22.1,3z M24.9,24.9
		c0-1.6-1.2-3.3-2.9-3.3c-0.1,0-0.2,0-0.5,0l1.4,6.6C24.2,27.4,24.9,26.2,24.9,24.9z"/>
</g>
<g>
	<path d="M33.5,3.1v2.8l1-0.3v1.8l-1,0.3v3.4l1-0.3v1.8l-1,0.3v3.1H33v-3l-1.9,0.6v3h-0.5v-2.8l-1,0.3v-1.8l1-0.3V8.7l-1,0.3V7.2
		l1-0.3V3.7h0.5v3L33,6.1v-3H33.5z M33,7.9l-1.9,0.6v3.4l1.9-0.6V7.9z"/>
</g>
<g>
	<path d="M39.7,10.5v2.8l1-0.3v1.8l-1,0.3v3.4l1-0.3v1.8l-1,0.3v3.1h-0.5v-3l-1.9,0.6v3h-0.5v-2.8l-1,0.3v-1.8l1-0.3v-3.4l-1,0.3
		v-1.8l1-0.3v-3.1h0.5v3l1.9-0.6v-3H39.7z M39.2,15.3L37.3,16v3.4l1.9-0.6V15.3z"/>
</g>
<g>
	<path d="M45.9,0.6v2.8l1-0.3v1.8l-1,0.3v3.4l1-0.3v1.8l-1,0.3v3.1h-0.5v-3l-1.9,0.6v3H43v-2.8l-1,0.3V9.9l1-0.3V6.2l-1,0.3V4.7
		l1-0.3V1.3h0.5v3l1.9-0.6v-3H45.9z M45.4,5.4L43.5,6v3.4l1.9-0.6V5.4z"/>
</g>
<polygon fill-rule="evenodd" clip-rule="evenodd" points="62.2,26 108,24.8 108,22.3 62.2,23.6 "/>
<polygon fill-rule="evenodd" clip-rule="evenodd" points="62.2,22.3 108,21.1 108,18.6 62.2,19.8 "/>
<polygon fill-rule="evenodd" clip-rule="evenodd" points="123.2,21.1 168.9,16.1 168.9,13.6 123.2,18.6 "/>
<polygon fill-rule="evenodd" clip-rule="evenodd" points="123.2,17.4 168.9,12.4 168.9,9.9 123.2,14.9 "/>
<polygon fill-rule="evenodd" clip-rule="evenodd" points="184.2,11.2 230,6.2 230,3.7 184.2,8.7 "/>
<polygon fill-rule="evenodd" clip-rule="evenodd" points="184.2,7.4 230,2.5 230,0 184.2,5 "/>
<polygon fill-rule="evenodd" clip-rule="evenodd" points="238.7,27.3 284.4,26 284.4,23.6 238.7,24.8 "/>
<polygon fill-rule="evenodd" clip-rule="evenodd" points="238.7,31 284.4,29.8 284.4,27.3 238.7,28.5 "/>
<polygon fill-rule="evenodd" clip-rule="evenodd" points="307,31 352.7,36 352.7,33.5 307,28.5 "/>
<polygon fill-rule="evenodd" clip-rule="evenodd" points="307,34.7 352.7,39.7 352.7,37.2 307,32.2 "/>
<polygon fill-rule="evenodd" clip-rule="evenodd" points="374.5,11.2 420.2,9.9 420.2,7.4 374.5,8.7 "/>
<polygon fill-rule="evenodd" clip-rule="evenodd" points="374.5,7.4 420.2,6.2 420.2,3.7 374.5,5 "/>
<polygon fill-rule="evenodd" clip-rule="evenodd" points="429,31 476.8,26 476.8,23.6 429,28.5 "/>
<polygon fill-rule="evenodd" clip-rule="evenodd" points="429,34.7 476.8,29.8 476.8,27.3 429,32.2 "/>
<polygon fill-rule="evenodd" clip-rule="evenodd" points="492.1,26 537.8,31 537.8,28.5 492.1,23.6 "/>
<polygon fill-rule="evenodd" clip-rule="evenodd" points="492.1,29.8 537.8,34.7 537.8,32.2 492.1,27.3 "/>
<rect x="8.5" y="76.7" width="544.4" height="0.5"/>
<rect x="8.5" y="71.7" width="544.4" height="0.5"/>
<rect x="8.5" y="66.7" width="544.4" height="0.5"/>
<rect x="8.5" y="61.8" width="544.4" height="0.5"/>
<rect x="8.5" y="56.8" width="544.4" height="0.5"/>
<g>
	<path d="M15.7,71.2c2.9-2.6,4.7-6.1,4.7-9.2c0-2.5-1.4-4.4-3.7-4.4c-1.6,0-3.4,1.3-3.4,2.7c0,0.2,0,0.3,0.1,0.3
		c-0.1,0,0.6-0.6,1.4-0.6c0.9,0,1.5,0.8,1.5,1.7c0,1.2-0.9,2.2-2.1,2.2c-1.2,0-2.1-1.3-2.1-2.8c0-2.3,2.3-4.1,4.8-4.1
		c4.7,0,5.9,3.2,5.9,5.8c0,1.6-0.4,2.9-2,5.3c-1.9,3.1-6.4,5.3-8.1,5.3c-0.4,0-0.6-0.2-0.6-0.5C13.8,72.5,14.9,71.9,15.7,71.2z
		 M25.7,58.5c0.6,0,1,0.4,1,1c0,0.6-0.4,1-1,1s-1-0.4-1-1C24.7,59,25.1,58.5,25.7,58.5z M25.7,63.5c0.6,0,1,0.4,1,1c0,0.6-0.4,1-1,1
		s-1-0.4-1-1C24.7,63.9,25.1,63.5,25.7,63.5z"/>
</g>
<g>
	<path d="M33.5,55.2V58l1-0.3v1.8l-1,0.3v3.4l1-0.3v1.8l-1,0.3v3.1H33v-3l-1.9,0.6v3h-0.5V66l-1,0.3v-1.8l1-0.3v-3.4l-1,0.3v-1.8
		l1-0.3v-3.1h0.5v3l1.9-0.6v-3H33.5z M33,60l-1.9,0.6V64l1.9-0.6V60z"/>
</g>
<g>
	<path d="M39.7,62.6v2.8l1-0.3v1.8l-1,0.3v3.4l1-0.3v1.8l-1,0.3v3.1h-0.5v-3l-1.9,0.6v3h-0.5v-2.8l-1,0.3v-1.8l1-0.3v-3.4l-1,0.3
		v-1.8l1-0.3v-3.1h0.5v3l1.9-0.6v-3H39.7z M39.2,67.4L37.3,68v3.4l1.9-0.6V67.4z"/>
</g>
<g>
	<path d="M45.9,52.7v2.8l1-0.3V57l-1,0.3v3.4l1-0.3v1.8l-1,0.3v3.1h-0.5v-3l-1.9,0.6v3H43v-2.8l-1,0.3V62l1-0.3v-3.4l-1,0.3v-1.8
		l1-0.3v-3.1h0.5v3l1.9-0.6v-3H45.9z M45.4,57.5l-1.9,0.6v3.4l1.9-0.6V57.5z"/>
</g>
<polygon fill-rule="evenodd" clip-rule="evenodd" points="62.2,68.2 108,63.2 108,60.8 62.2,65.7 "/>
<polygon fill-rule="evenodd" clip-rule="evenodd" points="62.2,64.5 108,59.5 108,57 62.2,62 "/>
<polygon fill-rule="evenodd" clip-rule="evenodd" points="116.7,83.1 162.4,78.1 162.4,75.6 116.7,80.6 "/>
<polygon fill-rule="evenodd" clip-rule="evenodd" points="116.7,86.8 162.4,81.8 162.4,79.4 116.7,84.3 "/>
<polygon fill-rule="evenodd" clip-rule="evenodd" points="184.2,53.3 230,58.3 230,55.8 184.2,50.8 "/>
<polygon fill-rule="evenodd" clip-rule="evenodd" points="184.2,49.6 230,54.6 230,52.1 184.2,47.1 "/>
<polygon fill-rule="evenodd" clip-rule="evenodd" points="245.2,62 290.9,63.2 290.9,60.8 245.2,59.5 "/>
<polygon fill-rule="evenodd" clip-rule="evenodd" points="245.2,58.3 290.9,59.5 290.9,57 245.2,55.8 "/>
<polygon fill-rule="evenodd" clip-rule="evenodd" points="313.5,63.2 359.3,58.3 359.3,55.8 313.5,60.8 "/>
<polygon fill-rule="evenodd" clip-rule="evenodd" points="313.5,59.5 359.3,54.6 359.3,52.1 313.5,57 "/>
<polygon fill-rule="evenodd" clip-rule="evenodd" points="367.9,78.1 413.7,73.2 413.7,70.7 367.9,75.6 "/>
<polygon fill-rule="evenodd" clip-rule="evenodd" points="367.9,81.8 413.7,76.9 413.7,74.4 367.9,79.4 "/>
<polygon fill-rule="evenodd" clip-rule="evenodd" points="429,68.2 476.8,63.2 476.8,60.8 429,65.7 "/>
<polygon fill-rule="evenodd" clip-rule="evenodd" points="429,71.9 476.8,67 476.8,64.5 429,69.4 "/>
<polygon fill-rule="evenodd" clip-rule="evenodd" points="492.1,63.2 537.8,64.5 537.8,62 492.1,60.8 "/>
<polygon fill-rule="evenodd" clip-rule="evenodd" points="492.1,67 537.8,68.2 537.8,65.7 492.1,64.5 "/>
<rect x="8.5" y="150.9" width="544.4" height="0.5"/>
<rect x="8.5" y="145.9" width="544.4" height="0.5"/>
<rect x="8.5" y="141" width="544.4" height="0.5"/>
<rect x="8.5" y="136" width="544.4" height="0.5"/>
<rect x="8.5" y="131.1" width="544.4" height="0.5"/>
<g>
	<path d="M20.3,151c-4.2,0-8.1-3.1-8.1-6.9c0-3.2,2.3-6.7,6.8-10.5c-0.3-1.2-0.4-2.4-0.4-3.6c0-3.5,1.2-6.8,3.2-8.5
		c1.8,2.5,2.7,4.9,2.7,7.1c0,2.9-1.3,5.6-4.3,8.1L21,141c0.5,0,0.8-0.1,0.8-0.1c2.6,0,4.8,2,4.8,4.7c0,1.9-1.4,3.7-3.6,4.8
		c0-0.1,0.9,3.8,0.9,4.3c0,2.5-2.3,4.2-4.9,4.2c-2,0-3.6-1.3-3.6-3.4c0-1.4,1-2.6,2.4-2.6c1.3,0,2.3,1.3,2.3,2.5
		c0,1.4-1.2,2.3-2.7,2.5c0.6,0.3,1.2,0.5,1.9,0.5c2.1,0,4.1-1.6,4.1-3.6c0-0.2,0-0.4-0.1-0.6l-0.8-3.7C21.9,150.8,21.2,151,20.3,151
		z M18.1,145.8c0,1,0.5,1.9,1.6,2.5c-1.8-0.3-3-1.4-3-3.1c0-2,1.7-3.7,3.8-4.1l-0.8-4c-3.7,2.8-5.7,5.5-5.7,8.1c0,2.9,2.8,5.3,6,5.3
		c0.9,0,1.7-0.2,2.4-0.5l-1.4-6.8C19.4,143.4,18.1,144.4,18.1,145.8z M22.1,124.4c-1.6,0-2.9,3.7-2.9,7c0,0.7,0,1.3,0.2,1.9
		c2.7-2.4,4-4.5,4-6.5c0-0.9-0.3-1.7-1-2.4C22.4,124.4,22.3,124.4,22.1,124.4z M24.9,146.3c0-1.6-1.2-3.3-2.9-3.3
		c-0.1,0-0.2,0-0.5,0l1.4,6.6C24.2,148.8,24.9,147.6,24.9,146.3z"/>
</g>
<g>
	<path d="M33.5,124.5v2.8l1-0.3v1.8l-1,0.3v3.4l1-0.3v1.8l-1,0.3v3.1H33v-3l-1.9,0.6v3h-0.5v-2.8l-1,0.3v-1.8l1-0.3V130l-1,0.3v-1.8
		l1-0.3v-3.1h0.5v3l1.9-0.6v-3H33.5z M33,129.2l-1.9,0.6v3.4l1.9-0.6V129.2z"/>
</g>
<g>
	<path d="M39.7,131.9v2.8l1-0.3v1.8l-1,0.3v3.4l1-0.3v1.8l-1,0.3v3.1h-0.5v-3l-1.9,0.6v3h-0.5v-2.8l-1,0.3v-1.8l1-0.3v-3.4l-1,0.3
		V136l1-0.3v-3.1h0.5v3l1.9-0.6v-3H39.7z M39.2,136.7l-1.9,0.6v3.4l1.9-0.6V136.7z"/>
</g>
<g>
	<path d="M45.9,122v2.8l1-0.3v1.8l-1,0.3v3.4l1-0.3v1.8l-1,0.3v3.1h-0.5v-3l-1.9,0.6v3H43v-2.8l-1,0.3v-1.8l1-0.3v-3.4l-1,0.3v-1.8
		l1-0.3v-3.1h0.5v3l1.9-0.6v-3H45.9z M45.4,126.8l-1.9,0.6v3.4l1.9-0.6V126.8z"/>
</g>
<polygon fill-rule="evenodd" clip-rule="evenodd" points="62.2,132.5 115.7,137.5 115.7,135 62.2,130.1 "/>
<polygon fill-rule="evenodd" clip-rule="evenodd" points="62.2,128.8 115.7,133.8 115.7,131.3 62.2,126.3 "/>
<polygon fill-rule="evenodd" clip-rule="evenodd" points="133.4,132.5 186.9,127.6 186.9,125.1 133.4,130.1 "/>
<polygon fill-rule="evenodd" clip-rule="evenodd" points="133.4,128.8 186.9,123.9 186.9,121.4 133.4,126.3 "/>
<polygon fill-rule="evenodd" clip-rule="evenodd" points="198.2,148.7 251.5,147.4 251.5,144.9 198.2,146.2 "/>
<polygon fill-rule="evenodd" clip-rule="evenodd" points="198.2,152.4 251.5,151.1 251.5,148.7 198.2,149.9 "/>
<polygon fill-rule="evenodd" clip-rule="evenodd" points="269.4,152.4 322.8,157.3 322.8,154.9 269.4,149.9 "/>
<polygon fill-rule="evenodd" clip-rule="evenodd" points="269.4,156.1 322.8,161.1 322.8,158.6 269.4,153.6 "/>
<polygon fill-rule="evenodd" clip-rule="evenodd" points="354.9,137.5 408.4,142.5 408.4,140 354.9,135 "/>
<polygon fill-rule="evenodd" clip-rule="evenodd" points="354.9,133.8 408.4,138.7 408.4,136.3 354.9,131.3 "/>
<polygon fill-rule="evenodd" clip-rule="evenodd" points="426.2,146.2 479.6,147.4 479.6,144.9 426.2,143.7 "/>
<polygon fill-rule="evenodd" clip-rule="evenodd" points="426.2,142.5 479.6,143.7 479.6,141.2 426.2,140 "/>
<rect x="8.5" y="198" width="544.4" height="0.5"/>
<rect x="8.5" y="193.1" width="544.4" height="0.5"/>
<rect x="8.5" y="188.1" width="544.4" height="0.5"/>
<rect x="8.5" y="183.1" width="544.4" height="0.5"/>
<rect x="8.5" y="178.2" width="544.4" height="0.5"/>
<g>
	<path d="M15.7,192.6c2.9-2.6,4.7-6.1,4.7-9.2c0-2.5-1.4-4.4-3.7-4.4c-1.6,0-3.4,1.3-3.4,2.7c0,0.2,0,0.3,0.1,0.3
		c-0.1,0,0.6-0.6,1.4-0.6c0.9,0,1.5,0.8,1.5,1.7c0,1.2-0.9,2.2-2.1,2.2c-1.2,0-2.1-1.3-2.1-2.8c0-2.3,2.3-4.1,4.8-4.1
		c4.7,0,5.9,3.2,5.9,5.8c0,1.6-0.4,2.9-2,5.3c-1.9,3.1-6.4,5.3-8.1,5.3c-0.4,0-0.6-0.2-0.6-0.5C13.8,193.9,14.9,193.3,15.7,192.6z
		 M25.7,179.9c0.6,0,1,0.4,1,1c0,0.6-0.4,1-1,1s-1-0.4-1-1C24.7,180.3,25.1,179.9,25.7,179.9z M25.7,184.8c0.6,0,1,0.4,1,1
		c0,0.6-0.4,1-1,1s-1-0.4-1-1C24.7,185.3,25.1,184.8,25.7,184.8z"/>
</g>
<g>
	<path d="M33.5,176.6v2.8l1-0.3v1.8l-1,0.3v3.4l1-0.3v1.8l-1,0.3v3.1H33v-3l-1.9,0.6v3h-0.5v-2.8l-1,0.3v-1.8l1-0.3v-3.4l-1,0.3
		v-1.8l1-0.3v-3.1h0.5v3l1.9-0.6v-3H33.5z M33,181.3l-1.9,0.6v3.4l1.9-0.6V181.3z"/>
</g>
<g>
	<path d="M39.7,184v2.8l1-0.3v1.8l-1,0.3v3.4l1-0.3v1.8l-1,0.3v3.1h-0.5v-3l-1.9,0.6v3h-0.5v-2.8l-1,0.3v-1.8l1-0.3v-3.4l-1,0.3
		v-1.8l1-0.3v-3.1h0.5v3l1.9-0.6v-3H39.7z M39.2,188.8l-1.9,0.6v3.4l1.9-0.6V188.8z"/>
</g>
<g>
	<path d="M45.9,174.1v2.8l1-0.3v1.8l-1,0.3v3.4l1-0.3v1.8l-1,0.3v3.1h-0.5v-3l-1.9,0.6v3H43v-2.8l-1,0.3v-1.8l1-0.3v-3.4l-1,0.3
		v-1.8l1-0.3v-3.1h0.5v3l1.9-0.6v-3H45.9z M45.4,178.9l-1.9,0.6v3.4l1.9-0.6V178.9z"/>
</g>
<polygon fill-rule="evenodd" clip-rule="evenodd" points="55.7,189.6 109.2,194.5 109.2,192.1 55.7,187.1 "/>
<polygon fill-rule="evenodd" clip-rule="evenodd" points="55.7,193.3 109.2,198.3 109.2,195.8 55.7,190.8 "/>
<polygon fill-rule="evenodd" clip-rule="evenodd" points="133.4,174.7 186.9,179.7 186.9,177.2 133.4,172.2 "/>
<polygon fill-rule="evenodd" clip-rule="evenodd" points="133.4,171 186.9,175.9 186.9,173.5 133.4,168.5 "/>
<polygon fill-rule="evenodd" clip-rule="evenodd" points="204.7,183.4 258,184.6 258,182.1 204.7,180.9 "/>
<polygon fill-rule="evenodd" clip-rule="evenodd" points="204.7,179.7 258,180.9 258,178.4 204.7,177.2 "/>
<polygon fill-rule="evenodd" clip-rule="evenodd" points="275.9,184.6 329.3,179.7 329.3,177.2 275.9,182.1 "/>
<polygon fill-rule="evenodd" clip-rule="evenodd" points="275.9,180.9 329.3,175.9 329.3,173.5 275.9,178.4 "/>
<polygon fill-rule="evenodd" clip-rule="evenodd" points="348.4,199.5 401.9,200.7 401.9,198.3 348.4,197 "/>
<polygon fill-rule="evenodd" clip-rule="evenodd" points="348.4,203.2 401.9,204.5 401.9,202 348.4,200.7 "/>
<polygon fill-rule="evenodd" clip-rule="evenodd" points="426.2,179.7 479.6,184.6 479.6,182.1 426.2,177.2 "/>
<polygon fill-rule="evenodd" clip-rule="evenodd" points="426.2,175.9 479.6,180.9 479.6,178.4 426.2,173.5 "/>
<rect x="53.7" y="34.3" width="10.5" height="0.8"/>
<rect x="53.7" y="39.3" width="10.5" height="0.8"/>
<rect x="53.7" y="44.3" width="10.5" height="0.8"/>
<rect x="62" y="20" width="0.5" height="23.9"/>
<g>
	<path d="M55.6,45.5c0-1.8,2.5-3.5,4.5-3.5c1.3,0,2.3,0.7,2.3,1.7c0,1.7-2.5,3.5-4.6,3.5C56.6,47.2,55.6,46.6,55.6,45.5z"/>
</g>
<rect x="68.9" y="34.3" width="10.5" height="0.8"/>
<rect x="68.9" y="39.3" width="10.5" height="0.8"/>
<rect x="77.2" y="19.7" width="0.5" height="21.7"/>
<g>
	<path d="M70.8,43c0-1.8,2.5-3.5,4.5-3.5c1.3,0,2.3,0.7,2.3,1.7c0,1.7-2.5,3.5-4.6,3.5C71.7,44.7,70.8,44.1,70.8,43z"/>
</g>
<rect x="84.3" y="34.3" width="10.5" height="0.8"/>
<rect x="84.3" y="39.3" width="10.5" height="0.8"/>
<rect x="92.6" y="19.2" width="0.5" height="19.7"/>
<g>
	<path d="M86.1,40.5c0-1.8,2.5-3.5,4.5-3.5c1.3,0,2.3,0.7,2.3,1.7c0,1.7-2.5,3.5-4.6,3.5C87.1,42.3,86.1,41.6,86.1,40.5z"/>
</g>
<rect x="99.5" y="34.3" width="10.5" height="0.8"/>
<rect x="107.7" y="18.8" width="0.5" height="17.7"/>
<g>
	<path d="M101.3,38.1c0-1.8,2.5-3.5,4.5-3.5c1.3,0,2.3,0.7,2.3,1.7c0,1.7-2.5,3.5-4.6,3.5C102.3,39.8,101.3,39.1,101.3,38.1z"/>
</g>
<rect x="114.6" y="34.3" width="10.5" height="0.8"/>
<rect x="122.9" y="15" width="0.5" height="18.9"/>
<g>
	<path d="M116.5,35.6c0-1.8,2.5-3.5,4.5-3.5c1.3,0,2.3,0.7,2.3,1.7c0,1.7-2.5,3.5-4.6,3.5C117.5,37.3,116.5,36.7,116.5,35.6z"/>
</g>
<rect x="138.3" y="13.5" width="0.5" height="18"/>
<g>
	<path d="M131.9,33.1c0-1.8,2.5-3.5,4.5-3.5c1.3,0,2.3,0.7,2.3,1.7c0,1.7-2.5,3.5-4.6,3.5C132.8,34.8,131.9,34.2,131.9,33.1z"/>
</g>
<rect x="153.5" y="11.8" width="0.5" height="17.2"/>
<g>
	<path d="M147,30.6c0-1.8,2.5-3.5,4.5-3.5c1.3,0,2.3,0.7,2.3,1.7c0,1.7-2.5,3.5-4.6,3.5C148,32.3,147,31.7,147,30.6z"/>
</g>
<g>
	<path d="M144.6,22.9v2.8l1-0.3v1.8l-1,0.3V31l1-0.3v1.8l-1,0.3v3.1h-0.5v-3l-1.9,0.6v3h-0.5v-2.8l-1,0.3v-1.8l1-0.3v-3.4l-1,0.3V27
		l1-0.3v-3.1h0.5v3l1.9-0.6v-3H144.6z M144.1,27.7l-1.9,0.6v3.4l1.9-0.6V27.7z"/>
</g>
<rect x="168.7" y="10.1" width="0.5" height="16.4"/>
<g>
	<path d="M162.2,28.1c0-1.8,2.5-3.5,4.5-3.5c1.3,0,2.3,0.7,2.3,1.7c0,1.7-2.5,3.5-4.6,3.5C163.2,29.9,162.2,29.2,162.2,28.1z"/>
</g>
<rect x="184" y="5.1" width="0.5" height="18.9"/>
<g>
	<path d="M177.6,25.7c0-1.8,2.5-3.5,4.5-3.5c1.3,0,2.3,0.7,2.3,1.7c0,1.7-2.5,3.5-4.6,3.5C178.6,27.4,177.6,26.7,177.6,25.7z"/>
</g>
<rect x="199.2" y="3.6" width="0.5" height="18"/>
<g>
	<path d="M192.8,23.2c0-1.8,2.5-3.5,4.5-3.5c1.3,0,2.3,0.7,2.3,1.7c0,1.7-2.5,3.5-4.6,3.5C193.7,24.9,192.8,24.3,192.8,23.2z"/>
</g>
<rect x="214.4" y="1.9" width="0.5" height="17.2"/>
<g>
	<path d="M208,20.7c0-1.8,2.5-3.5,4.5-3.5c1.3,0,2.3,0.7,2.3,1.7c0,1.7-2.5,3.5-4.6,3.5C208.9,22.4,208,21.8,208,20.7z"/>
</g>
<rect x="229.7" y="0.2" width="0.5" height="16.4"/>
<g>
	<path d="M223.3,18.2c0-1.8,2.5-3.5,4.5-3.5c1.3,0,2.3,0.7,2.3,1.7c0,1.7-2.5,3.5-4.6,3.5C224.3,19.9,223.3,19.3,223.3,18.2z"/>
</g>
<rect x="238.4" y="15.7" width="0.5" height="15.2"/>
<g>
	<path d="M238.5,15.7c0-1.8,2.5-3.5,4.5-3.5c1.3,0,2.3,0.7,2.3,1.7c0,1.7-2.5,3.5-4.6,3.5C239.5,17.5,238.5,16.8,238.5,15.7z"/>
</g>
<rect x="253.6" y="13.2" width="0.5" height="17.4"/>
<g>
	<path d="M253.7,13.3c0-1.8,2.5-3.5,4.5-3.5c1.3,0,2.3,0.7,2.3,1.7c0,1.7-2.5,3.5-4.6,3.5C254.7,15,253.7,14.3,253.7,13.3z"/>
</g>
<g>
	<path d="M251.3,5.6v2.8l1-0.3v1.8l-1,0.3v3.4l1-0.3v1.8l-1,0.3v3.1h-0.5v-3l-1.9,0.6v3h-0.5v-2.8l-1,0.3v-1.8l1-0.3v-3.4l-1,0.3
		V9.7l1-0.3V6.2h0.5v3l1.9-0.6v-3H251.3z M250.8,10.4l-1.9,0.6v3.4l1.9-0.6V10.4z"/>
</g>
<rect x="269" y="10.7" width="0.5" height="19.4"/>
<g>
	<path d="M269,10.8c0-1.8,2.5-3.5,4.5-3.5c1.3,0,2.3,0.7,2.3,1.7c0,1.7-2.5,3.5-4.6,3.5C270,12.5,269,11.9,269,10.8z"/>
</g>
<rect x="284.2" y="13.2" width="0.5" height="16.4"/>
<g>
	<path d="M284.2,13.3c0-1.8,2.5-3.5,4.5-3.5c1.3,0,2.3,0.7,2.3,1.7c0,1.7-2.5,3.5-4.6,3.5C285.2,15,284.2,14.3,284.2,13.3z"/>
</g>
<rect x="306.8" y="15.7" width="0.5" height="18.9"/>
<g>
	<path d="M306.9,15.7c0-1.8,2.5-3.5,4.5-3.5c1.3,0,2.3,0.7,2.3,1.7c0,1.7-2.5,3.5-4.6,3.5C307.8,17.5,306.9,16.8,306.9,15.7z"/>
</g>
<rect x="322" y="18.1" width="0.5" height="18"/>
<g>
	<path d="M322.1,18.2c0-1.8,2.5-3.5,4.5-3.5c1.3,0,2.3,0.7,2.3,1.7c0,1.7-2.5,3.5-4.6,3.5C323,19.9,322.1,19.3,322.1,18.2z"/>
</g>
<rect x="337.3" y="20.6" width="0.5" height="17.2"/>
<g>
	<path d="M337.4,20.7c0-1.8,2.5-3.5,4.5-3.5c1.3,0,2.3,0.7,2.3,1.7c0,1.7-2.5,3.5-4.6,3.5C338.4,22.4,337.4,21.8,337.4,20.7z"/>
</g>
<rect x="352.5" y="23.1" width="0.5" height="16.4"/>
<g>
	<path d="M352.6,23.2c0-1.8,2.5-3.5,4.5-3.5c1.3,0,2.3,0.7,2.3,1.7c0,1.7-2.5,3.5-4.6,3.5C353.6,24.9,352.6,24.3,352.6,23.2z"/>
</g>
<rect x="374.2" y="5.1" width="0.5" height="18.9"/>
<g>
	<path d="M367.8,25.7c0-1.8,2.5-3.5,4.5-3.5c1.3,0,2.3,0.7,2.3,1.7c0,1.7-2.5,3.5-4.6,3.5C368.8,27.4,367.8,26.7,367.8,25.7z"/>
</g>
<rect x="389.6" y="4.8" width="0.5" height="21.7"/>
<g>
	<path d="M383.1,28.1c0-1.8,2.5-3.5,4.5-3.5c1.3,0,2.3,0.7,2.3,1.7c0,1.7-2.5,3.5-4.6,3.5C384.1,29.9,383.1,29.2,383.1,28.1z"/>
</g>
<rect x="404.8" y="4.3" width="0.5" height="19.7"/>
<g>
	<path d="M398.3,25.7c0-1.8,2.5-3.5,4.5-3.5c1.3,0,2.3,0.7,2.3,1.7c0,1.7-2.5,3.5-4.6,3.5C399.3,27.4,398.3,26.7,398.3,25.7z"/>
</g>
<rect x="419.9" y="3.9" width="0.5" height="17.7"/>
<g>
	<path d="M413.5,23.2c0-1.8,2.5-3.5,4.5-3.5c1.3,0,2.3,0.7,2.3,1.7c0,1.7-2.5,3.5-4.6,3.5C414.5,24.9,413.5,24.3,413.5,23.2z"/>
</g>
<rect x="428.8" y="20.6" width="0.5" height="14"/>
<g>
	<path d="M428.9,20.7c0-1.8,2.5-3.5,4.5-3.5c1.3,0,2.3,0.7,2.3,1.7c0,1.7-2.5,3.5-4.6,3.5C429.8,22.4,428.9,21.8,428.9,20.7z"/>
</g>
<rect x="444" y="18.1" width="0.5" height="14.9"/>
<g>
	<path d="M444.1,18.2c0-1.8,2.5-3.5,4.5-3.5c1.3,0,2.3,0.7,2.3,1.7c0,1.7-2.5,3.5-4.6,3.5C445,19.9,444.1,19.3,444.1,18.2z"/>
</g>
<rect x="459.2" y="15.7" width="0.5" height="15.8"/>
<g>
	<path d="M459.2,15.7c0-1.8,2.5-3.5,4.5-3.5c1.3,0,2.3,0.7,2.3,1.7c0,1.7-2.5,3.5-4.6,3.5C460.2,17.5,459.2,16.8,459.2,15.7z"/>
</g>
<rect x="476.5" y="13.2" width="0.5" height="16.4"/>
<g>
	<path d="M476.6,13.3c0-1.8,2.5-3.5,4.5-3.5c1.3,0,2.3,0.7,2.3,1.7c0,1.7-2.5,3.5-4.6,3.5C477.6,15,476.6,14.3,476.6,13.3z"/>
</g>
<g>
	<path d="M474.2,5.6v2.8l1-0.3v1.8l-1,0.3v3.4l1-0.3v1.8l-1,0.3v3.1h-0.5v-3l-1.9,0.6v3h-0.5v-2.8l-1,0.3v-1.8l1-0.3v-3.4l-1,0.3
		V9.7l1-0.3V6.2h0.5v3l1.9-0.6v-3H474.2z M473.7,10.4l-1.9,0.6v3.4l1.9-0.6V10.4z"/>
</g>
<rect x="491.9" y="10.7" width="0.5" height="18.9"/>
<g>
	<path d="M492,10.8c0-1.8,2.5-3.5,4.5-3.5c1.3,0,2.3,0.7,2.3,1.7c0,1.7-2.5,3.5-4.6,3.5C492.9,12.5,492,11.9,492,10.8z"/>
</g>
<rect x="507.1" y="13.2" width="0.5" height="18"/>
<g>
	<path d="M507.1,13.3c0-1.8,2.5-3.5,4.5-3.5c1.3,0,2.3,0.7,2.3,1.7c0,1.7-2.5,3.5-4.6,3.5C508.1,15,507.1,14.3,507.1,13.3z"/>
</g>
<rect x="522.3" y="15.7" width="0.5" height="17.2"/>
<g>
	<path d="M522.3,15.7c0-1.8,2.5-3.5,4.5-3.5c1.3,0,2.3,0.7,2.3,1.7c0,1.7-2.5,3.5-4.6,3.5C523.3,17.5,522.3,16.8,522.3,15.7z"/>
</g>
<rect x="537.6" y="18.1" width="0.5" height="16.4"/>
<g>
	<path d="M537.7,18.2c0-1.8,2.5-3.5,4.5-3.5c1.3,0,2.3,0.7,2.3,1.7c0,1.7-2.5,3.5-4.6,3.5C538.7,19.9,537.7,19.3,537.7,18.2z"/>
</g>
<rect x="62" y="62.2" width="0.5" height="16.4"/>
<g>
	<path d="M55.6,80.2c0-1.8,2.5-3.5,4.5-3.5c1.3,0,2.3,0.7,2.3,1.7c0,1.7-2.5,3.5-4.6,3.5C56.6,81.9,55.6,81.3,55.6,80.2z"/>
</g>
<rect x="77.2" y="60.6" width="0.5" height="15.5"/>
<g>
	<path d="M70.8,77.7c0-1.8,2.5-3.5,4.5-3.5c1.3,0,2.3,0.7,2.3,1.7c0,1.7-2.5,3.5-4.6,3.5C71.7,79.5,70.8,78.8,70.8,77.7z"/>
</g>
<rect x="92.6" y="58.9" width="0.5" height="14.7"/>
<g>
	<path d="M86.1,75.3c0-1.8,2.5-3.5,4.5-3.5c1.3,0,2.3,0.7,2.3,1.7c0,1.7-2.5,3.5-4.6,3.5C87.1,77,86.1,76.3,86.1,75.3z"/>
</g>
<rect x="107.7" y="57.2" width="0.5" height="14"/>
<g>
	<path d="M101.3,72.8c0-1.8,2.5-3.5,4.5-3.5c1.3,0,2.3,0.7,2.3,1.7c0,1.7-2.5,3.5-4.6,3.5C102.3,74.5,101.3,73.9,101.3,72.8z"/>
</g>
<rect x="116.4" y="70.2" width="0.5" height="16.4"/>
<g>
	<path d="M116.5,70.3c0-1.8,2.5-3.5,4.5-3.5c1.3,0,2.3,0.7,2.3,1.7c0,1.7-2.5,3.5-4.6,3.5C117.5,72,116.5,71.4,116.5,70.3z"/>
</g>
<rect x="131.8" y="67.7" width="0.5" height="17.4"/>
<g>
	<path d="M131.9,67.8c0-1.8,2.5-3.5,4.5-3.5c1.3,0,2.3,0.7,2.3,1.7c0,1.7-2.5,3.5-4.6,3.5C132.8,69.5,131.9,68.9,131.9,67.8z"/>
</g>
<rect x="147" y="65.3" width="0.5" height="18.1"/>
<g>
	<path d="M147,65.3c0-1.8,2.5-3.5,4.5-3.5c1.3,0,2.3,0.7,2.3,1.7c0,1.7-2.5,3.5-4.6,3.5C148,67.1,147,66.4,147,65.3z"/>
</g>
<g>
	<path d="M144.6,57.7v2.8l1-0.3V62l-1,0.3v3.4l1-0.3v1.8l-1,0.3v3.1h-0.5v-3l-1.9,0.6v3h-0.5v-2.8l-1,0.3V67l1-0.3v-3.4l-1,0.3v-1.8
		l1-0.3v-3.1h0.5v3l1.9-0.6v-3H144.6z M144.1,62.4l-1.9,0.6v3.4l1.9-0.6V62.4z"/>
</g>
<rect x="162.2" y="62.8" width="0.5" height="18.9"/>
<g>
	<path d="M162.2,62.9c0-1.8,2.5-3.5,4.5-3.5c1.3,0,2.3,0.7,2.3,1.7c0,1.7-2.5,3.5-4.6,3.5C163.2,64.6,162.2,63.9,162.2,62.9z"/>
</g>
<rect x="184" y="47.3" width="0.5" height="16.4"/>
<g>
	<path d="M177.6,65.3c0-1.8,2.5-3.5,4.5-3.5c1.3,0,2.3,0.7,2.3,1.7c0,1.7-2.5,3.5-4.6,3.5C178.6,67.1,177.6,66.4,177.6,65.3z"/>
</g>
<rect x="199.2" y="48.8" width="0.5" height="17.4"/>
<g>
	<path d="M192.8,67.8c0-1.8,2.5-3.5,4.5-3.5c1.3,0,2.3,0.7,2.3,1.7c0,1.7-2.5,3.5-4.6,3.5C193.7,69.5,192.8,68.9,192.8,67.8z"/>
</g>
<rect x="214.4" y="50.5" width="0.5" height="18.1"/>
<g>
	<path d="M208,70.3c0-1.8,2.5-3.5,4.5-3.5c1.3,0,2.3,0.7,2.3,1.7c0,1.7-2.5,3.5-4.6,3.5C208.9,72,208,71.4,208,70.3z"/>
</g>
<rect x="229.7" y="52.2" width="0.5" height="18.9"/>
<g>
	<path d="M223.3,72.8c0-1.8,2.5-3.5,4.5-3.5c1.3,0,2.3,0.7,2.3,1.7c0,1.7-2.5,3.5-4.6,3.5C224.3,74.5,223.3,73.9,223.3,72.8z"/>
</g>
<rect x="244.9" y="56" width="0.5" height="17.7"/>
<g>
	<path d="M238.5,75.3c0-1.8,2.5-3.5,4.5-3.5c1.3,0,2.3,0.7,2.3,1.7c0,1.7-2.5,3.5-4.6,3.5C239.5,77,238.5,76.3,238.5,75.3z"/>
</g>
<rect x="260.1" y="56.3" width="0.5" height="19.8"/>
<g>
	<path d="M253.7,77.7c0-1.8,2.5-3.5,4.5-3.5c1.3,0,2.3,0.7,2.3,1.7c0,1.7-2.5,3.5-4.6,3.5C254.7,79.5,253.7,78.8,253.7,77.7z"/>
</g>
<rect x="275.5" y="56.7" width="0.5" height="21.9"/>
<g>
	<path d="M269,80.2c0-1.8,2.5-3.5,4.5-3.5c1.3,0,2.3,0.7,2.3,1.7c0,1.7-2.5,3.5-4.6,3.5C270,81.9,269,81.3,269,80.2z"/>
</g>
<rect x="290.7" y="57.2" width="0.5" height="18.9"/>
<g>
	<path d="M284.2,77.7c0-1.8,2.5-3.5,4.5-3.5c1.3,0,2.3,0.7,2.3,1.7c0,1.7-2.5,3.5-4.6,3.5C285.2,79.5,284.2,78.8,284.2,77.7z"/>
</g>
<rect x="313.3" y="57.2" width="0.5" height="16.4"/>
<g>
	<path d="M306.9,75.3c0-1.8,2.5-3.5,4.5-3.5c1.3,0,2.3,0.7,2.3,1.7c0,1.7-2.5,3.5-4.6,3.5C307.8,77,306.9,76.3,306.9,75.3z"/>
</g>
<rect x="328.5" y="55.6" width="0.5" height="15.5"/>
<g>
	<path d="M322.1,72.8c0-1.8,2.5-3.5,4.5-3.5c1.3,0,2.3,0.7,2.3,1.7c0,1.7-2.5,3.5-4.6,3.5C323,74.5,322.1,73.9,322.1,72.8z"/>
</g>
<rect x="343.8" y="53.9" width="0.5" height="14.7"/>
<g>
	<path d="M337.4,70.3c0-1.8,2.5-3.5,4.5-3.5c1.3,0,2.3,0.7,2.3,1.7c0,1.7-2.5,3.5-4.6,3.5C338.4,72,337.4,71.4,337.4,70.3z"/>
</g>
<rect x="359" y="52.2" width="0.5" height="14"/>
<g>
	<path d="M352.6,67.8c0-1.8,2.5-3.5,4.5-3.5c1.3,0,2.3,0.7,2.3,1.7c0,1.7-2.5,3.5-4.6,3.5C353.6,69.5,352.6,68.9,352.6,67.8z"/>
</g>
<rect x="367.7" y="65.3" width="0.5" height="16.4"/>
<g>
	<path d="M367.8,65.3c0-1.8,2.5-3.5,4.5-3.5c1.3,0,2.3,0.7,2.3,1.7c0,1.7-2.5,3.5-4.6,3.5C368.8,67.1,367.8,66.4,367.8,65.3z"/>
</g>
<g>
	<path d="M365.4,57.7v2.8l1-0.3V62l-1,0.3v3.4l1-0.3v1.8l-1,0.3v3.1h-0.5v-3l-1.9,0.6v3h-0.5v-2.8l-1,0.3V67l1-0.3v-3.4l-1,0.3v-1.8
		l1-0.3v-3.1h0.5v3l1.9-0.6v-3H365.4z M364.9,62.4l-1.9,0.6v3.4l1.9-0.6V62.4z"/>
</g>
<rect x="383.1" y="62.8" width="0.5" height="17.4"/>
<g>
	<path d="M383.1,62.9c0-1.8,2.5-3.5,4.5-3.5c1.3,0,2.3,0.7,2.3,1.7c0,1.7-2.5,3.5-4.6,3.5C384.1,64.6,383.1,63.9,383.1,62.9z"/>
</g>
<rect x="398.2" y="60.3" width="0.5" height="18.1"/>
<g>
	<path d="M398.3,60.4c0-1.8,2.5-3.5,4.5-3.5c1.3,0,2.3,0.7,2.3,1.7c0,1.7-2.5,3.5-4.6,3.5C399.3,62.1,398.3,61.5,398.3,60.4z"/>
</g>
<rect x="413.4" y="57.8" width="0.5" height="18.9"/>
<g>
	<path d="M413.5,57.9c0-1.8,2.5-3.5,4.5-3.5c1.3,0,2.3,0.7,2.3,1.7c0,1.7-2.5,3.5-4.6,3.5C414.5,59.6,413.5,59,413.5,57.9z"/>
</g>
<rect x="428.8" y="55.3" width="0.5" height="16.4"/>
<g>
	<path d="M428.9,55.4c0-1.8,2.5-3.5,4.5-3.5c1.3,0,2.3,0.7,2.3,1.7c0,1.7-2.5,3.5-4.6,3.5C429.8,57.1,428.9,56.5,428.9,55.4z"/>
</g>
<rect x="442.2" y="51.7" width="10.5" height="0.8"/>
<rect x="444" y="52.9" width="0.5" height="17.4"/>
<g>
	<path d="M444.1,52.9c0-1.8,2.5-3.5,4.5-3.5c1.3,0,2.3,0.7,2.3,1.7c0,1.7-2.5,3.5-4.6,3.5C445,54.7,444.1,54,444.1,52.9z"/>
</g>
<rect x="457.4" y="51.7" width="10.5" height="0.8"/>
<rect x="459.2" y="50.4" width="0.5" height="18.3"/>
<g>
	<path d="M459.2,50.5c0-1.8,2.5-3.5,4.5-3.5c1.3,0,2.3,0.7,2.3,1.7c0,1.7-2.5,3.5-4.6,3.5C460.2,52.2,459.2,51.5,459.2,50.5z"/>
</g>
<rect x="474.7" y="51.7" width="10.5" height="0.8"/>
<rect x="474.7" y="46.7" width="10.5" height="0.8"/>
<rect x="476.5" y="47.9" width="0.5" height="18.9"/>
<g>
	<path d="M476.6,48c0-1.8,2.5-3.5,4.5-3.5c1.3,0,2.3,0.7,2.3,1.7c0,1.7-2.5,3.5-4.6,3.5C477.6,49.7,476.6,49.1,476.6,48z"/>
</g>
<g>
	<path d="M472.9,40.3v2.8l1-0.3v1.8l-1,0.3v3.4l1-0.3v1.8l-1,0.3v3.1h-0.5v-3l-1.9,0.6v3H470v-2.8l-1,0.3v-1.8l1-0.3v-3.4l-1,0.3
		v-1.8l1-0.3v-3.1h0.5v3l1.9-0.6v-3H472.9z M472.4,45.1l-1.9,0.6v3.4l1.9-0.6V45.1z"/>
</g>
<rect x="490.1" y="51.7" width="10.5" height="0.8"/>
<rect x="490.1" y="46.7" width="10.5" height="0.8"/>
<rect x="491.9" y="45.4" width="0.5" height="21.4"/>
<g>
	<path d="M492,45.5c0-1.8,2.5-3.5,4.5-3.5c1.3,0,2.3,0.7,2.3,1.7c0,1.7-2.5,3.5-4.6,3.5C492.9,47.2,492,46.6,492,45.5z"/>
</g>
<rect x="505.3" y="51.7" width="10.5" height="0.8"/>
<rect x="505.3" y="46.7" width="10.5" height="0.8"/>
<rect x="507.1" y="47.9" width="0.5" height="19.2"/>
<g>
	<path d="M507.1,48c0-1.8,2.5-3.5,4.5-3.5c1.3,0,2.3,0.7,2.3,1.7c0,1.7-2.5,3.5-4.6,3.5C508.1,49.7,507.1,49.1,507.1,48z"/>
</g>
<rect x="520.5" y="51.7" width="10.5" height="0.8"/>
<rect x="522.3" y="50.4" width="0.5" height="17.2"/>
<g>
	<path d="M522.3,50.5c0-1.8,2.5-3.5,4.5-3.5c1.3,0,2.3,0.7,2.3,1.7c0,1.7-2.5,3.5-4.6,3.5C523.3,52.2,522.3,51.5,522.3,50.5z"/>
</g>
<rect x="535.8" y="51.7" width="10.5" height="0.8"/>
<rect x="537.6" y="52.9" width="0.5" height="15.2"/>
<g>
	<path d="M537.7,52.9c0-1.8,2.5-3.5,4.5-3.5c1.3,0,2.3,0.7,2.3,1.7c0,1.7-2.5,3.5-4.6,3.5C538.7,54.7,537.7,54,537.7,52.9z"/>
</g>
<rect x="62" y="126.5" width="0.5" height="14"/>
<g>
	<path d="M55.6,142.1c0-1.8,2.5-3.5,4.5-3.5c1.3,0,2.3,0.7,2.3,1.7c0,1.7-2.5,3.5-4.6,3.5C56.6,143.8,55.6,143.2,55.6,142.1z"/>
</g>
<rect x="79.8" y="128" width="0.5" height="14.9"/>
<g>
	<path d="M73.4,144.5c0-1.8,2.5-3.5,4.5-3.5c1.3,0,2.3,0.7,2.3,1.7c0,1.7-2.5,3.5-4.6,3.5C74.4,146.3,73.4,145.6,73.4,144.5z"/>
</g>
<rect x="97.7" y="129.7" width="0.5" height="15.7"/>
<g>
	<path d="M91.2,147c0-1.8,2.5-3.5,4.5-3.5c1.3,0,2.3,0.7,2.3,1.7c0,1.7-2.5,3.5-4.6,3.5C92.2,148.8,91.2,148.1,91.2,147z"/>
</g>
<rect x="115.5" y="131.4" width="0.5" height="16.4"/>
<g>
	<path d="M109.1,149.5c0-1.8,2.5-3.5,4.5-3.5c1.3,0,2.3,0.7,2.3,1.7c0,1.7-2.5,3.5-4.6,3.5C110,151.2,109.1,150.6,109.1,149.5z"/>
</g>
<rect x="133.2" y="126.5" width="0.5" height="18.9"/>
<g>
	<path d="M126.7,147c0-1.8,2.5-3.5,4.5-3.5c1.3,0,2.3,0.7,2.3,1.7c0,1.7-2.5,3.5-4.6,3.5C127.7,148.8,126.7,148.1,126.7,147z"/>
</g>
<rect x="151" y="124.9" width="0.5" height="18"/>
<g>
	<path d="M144.6,144.5c0-1.8,2.5-3.5,4.5-3.5c1.3,0,2.3,0.7,2.3,1.7c0,1.7-2.5,3.5-4.6,3.5C145.5,146.3,144.6,145.6,144.6,144.5z"/>
</g>
<rect x="168.8" y="123.2" width="0.5" height="17.2"/>
<g>
	<path d="M162.4,142.1c0-1.8,2.5-3.5,4.5-3.5c1.3,0,2.3,0.7,2.3,1.7c0,1.7-2.5,3.5-4.6,3.5C163.4,143.8,162.4,143.2,162.4,142.1z"/>
</g>
<rect x="186.6" y="121.5" width="0.5" height="16.4"/>
<g>
	<path d="M180.2,139.6c0-1.8,2.5-3.5,4.5-3.5c1.3,0,2.3,0.7,2.3,1.7c0,1.7-2.5,3.5-4.6,3.5C181.2,141.3,180.2,140.7,180.2,139.6z"/>
</g>
<rect x="198" y="137" width="0.5" height="15.2"/>
<g>
	<path d="M198,137.1c0-1.8,2.5-3.5,4.5-3.5c1.3,0,2.3,0.7,2.3,1.7c0,1.7-2.5,3.5-4.6,3.5C199,138.8,198,138.2,198,137.1z"/>
</g>
<rect x="215.8" y="134.5" width="0.5" height="17.4"/>
<g>
	<path d="M215.9,134.6c0-1.8,2.5-3.5,4.5-3.5c1.3,0,2.3,0.7,2.3,1.7c0,1.7-2.5,3.5-4.6,3.5C216.8,136.4,215.9,135.7,215.9,134.6z"/>
</g>
<g>
	<path d="M213.4,126.9v2.8l1-0.3v1.8l-1,0.3v3.4l1-0.3v1.8l-1,0.3v3.1h-0.5v-3l-1.9,0.6v3h-0.5v-2.8l-1,0.3v-1.8l1-0.3v-3.4l-1,0.3
		V131l1-0.3v-3.1h0.5v3l1.9-0.6v-3H213.4z M212.9,131.7l-1.9,0.6v3.4l1.9-0.6V131.7z"/>
</g>
<rect x="233.5" y="132.1" width="0.5" height="19.4"/>
<g>
	<path d="M233.5,132.1c0-1.8,2.5-3.5,4.5-3.5c1.3,0,2.3,0.7,2.3,1.7c0,1.7-2.5,3.5-4.6,3.5C234.5,133.9,233.5,133.2,233.5,132.1z"/>
</g>
<rect x="251.3" y="134.5" width="0.5" height="16.4"/>
<g>
	<path d="M251.4,134.6c0-1.8,2.5-3.5,4.5-3.5c1.3,0,2.3,0.7,2.3,1.7c0,1.7-2.5,3.5-4.6,3.5C252.3,136.4,251.4,135.7,251.4,134.6z"/>
</g>
<rect x="269.1" y="137" width="0.5" height="18.9"/>
<g>
	<path d="M269.2,137.1c0-1.8,2.5-3.5,4.5-3.5c1.3,0,2.3,0.7,2.3,1.7c0,1.7-2.5,3.5-4.6,3.5C270.2,138.8,269.2,138.2,269.2,137.1z"/>
</g>
<rect x="286.9" y="139.5" width="0.5" height="18"/>
<g>
	<path d="M287,139.6c0-1.8,2.5-3.5,4.5-3.5c1.3,0,2.3,0.7,2.3,1.7c0,1.7-2.5,3.5-4.6,3.5C288,141.3,287,140.7,287,139.6z"/>
</g>
<rect x="304.8" y="142" width="0.5" height="17.2"/>
<g>
	<path d="M304.8,142.1c0-1.8,2.5-3.5,4.5-3.5c1.3,0,2.3,0.7,2.3,1.7c0,1.7-2.5,3.5-4.6,3.5C305.8,143.8,304.8,143.2,304.8,142.1z"/>
</g>
<rect x="322.6" y="144.5" width="0.5" height="16.4"/>
<g>
	<path d="M322.7,144.5c0-1.8,2.5-3.5,4.5-3.5c1.3,0,2.3,0.7,2.3,1.7c0,1.7-2.5,3.5-4.6,3.5C323.6,146.3,322.7,145.6,322.7,144.5z"/>
</g>
<rect x="354.7" y="131.4" width="0.5" height="14"/>
<g>
	<path d="M348.3,147c0-1.8,2.5-3.5,4.5-3.5c1.3,0,2.3,0.7,2.3,1.7c0,1.7-2.5,3.5-4.6,3.5C349.2,148.8,348.3,148.1,348.3,147z"/>
</g>
<rect x="372.5" y="133" width="0.5" height="14.9"/>
<g>
	<path d="M366.1,149.5c0-1.8,2.5-3.5,4.5-3.5c1.3,0,2.3,0.7,2.3,1.7c0,1.7-2.5,3.5-4.6,3.5C367.1,151.2,366.1,150.6,366.1,149.5z"/>
</g>
<rect x="390.3" y="134.7" width="0.5" height="15.7"/>
<g>
	<path d="M383.9,152c0-1.8,2.5-3.5,4.5-3.5c1.3,0,2.3,0.7,2.3,1.7c0,1.7-2.5,3.5-4.6,3.5C384.9,153.7,383.9,153.1,383.9,152z"/>
</g>
<g>
	<path d="M381.5,144.3v2.8l1-0.3v1.8l-1,0.3v3.4l1-0.3v1.8l-1,0.3v3.1H381v-3l-1.9,0.6v3h-0.5v-2.8l-1,0.3v-1.8l1-0.3v-3.4l-1,0.3
		v-1.8l1-0.3v-3.1h0.5v3l1.9-0.6v-3H381.5z M381,149.1l-1.9,0.6v3.4l1.9-0.6V149.1z"/>
</g>
<rect x="408.2" y="136.4" width="0.5" height="16.4"/>
<g>
	<path d="M401.7,154.5c0-1.8,2.5-3.5,4.5-3.5c1.3,0,2.3,0.7,2.3,1.7c0,1.7-2.5,3.5-4.6,3.5C402.7,156.2,401.7,155.6,401.7,154.5z"/>
</g>
<rect x="417.7" y="155.7" width="10.5" height="0.8"/>
<rect x="426" y="140.1" width="0.5" height="15.2"/>
<g>
	<path d="M419.6,156.9c0-1.8,2.5-3.5,4.5-3.5c1.3,0,2.3,0.7,2.3,1.7c0,1.7-2.5,3.5-4.6,3.5C420.5,158.7,419.6,158,419.6,156.9z"/>
</g>
<rect x="435.5" y="155.7" width="10.5" height="0.8"/>
<rect x="443.8" y="140.4" width="0.5" height="17.4"/>
<g>
	<path d="M437.4,159.4c0-1.8,2.5-3.5,4.5-3.5c1.3,0,2.3,0.7,2.3,1.7c0,1.7-2.5,3.5-4.6,3.5C438.4,161.2,437.4,160.5,437.4,159.4z"/>
</g>
<rect x="453.2" y="155.7" width="10.5" height="0.8"/>
<rect x="453.2" y="160.7" width="10.5" height="0.8"/>
<rect x="461.5" y="140.9" width="0.5" height="19.4"/>
<g>
	<path d="M455.1,161.9c0-1.8,2.5-3.5,4.5-3.5c1.3,0,2.3,0.7,2.3,1.7c0,1.7-2.5,3.5-4.6,3.5C456,163.6,455.1,163,455.1,161.9z"/>
</g>
<rect x="471" y="155.7" width="10.5" height="0.8"/>
<rect x="471" y="160.7" width="10.5" height="0.8"/>
<rect x="479.3" y="141.4" width="0.5" height="21.4"/>
<g>
	<path d="M472.9,164.4c0-1.8,2.5-3.5,4.5-3.5c1.3,0,2.3,0.7,2.3,1.7c0,1.7-2.5,3.5-4.6,3.5C473.9,166.1,472.9,165.5,472.9,164.4z"/>
</g>
<rect x="488.9" y="155.7" width="10.7" height="0.8"/>
<rect x="488.9" y="160.7" width="10.7" height="0.8"/>
<rect x="488.9" y="165.6" width="10.7" height="0.8"/>
<rect x="497.3" y="141.2" width="0.5" height="24"/>
<g>
	<path d="M495,163.3c1.6,0,2.7,0.7,2.7,2c0,1.9-2.3,3.4-4.5,3.4c-1.3,0-2.4-0.7-2.4-1.8C490.7,165.1,493,163.3,495,163.3z
		 M491.2,167.2c0,0.6,0.4,0.9,1.1,0.9c1.4,0,4.9-2.1,4.9-3.3c0-0.6-0.4-0.9-1.1-0.9C494.8,163.9,491.2,165.9,491.2,167.2z"/>
</g>
<rect x="55.5" y="176.7" width="0.5" height="16.4"/>
<g>
	<path d="M55.6,176.8c0-1.8,2.5-3.5,4.5-3.5c1.3,0,2.3,0.7,2.3,1.7c0,1.7-2.5,3.5-4.6,3.5C56.6,178.5,55.6,177.9,55.6,176.8z"/>
</g>
<rect x="73.3" y="179.2" width="0.5" height="15.5"/>
<g>
	<path d="M73.4,179.3c0-1.8,2.5-3.5,4.5-3.5c1.3,0,2.3,0.7,2.3,1.7c0,1.7-2.5,3.5-4.6,3.5C74.4,181,73.4,180.4,73.4,179.3z"/>
</g>
<rect x="91.2" y="181.7" width="0.5" height="14.7"/>
<g>
	<path d="M91.2,181.7c0-1.8,2.5-3.5,4.5-3.5c1.3,0,2.3,0.7,2.3,1.7c0,1.7-2.5,3.5-4.6,3.5C92.2,183.5,91.2,182.8,91.2,181.7z"/>
</g>
<rect x="109" y="184.2" width="0.5" height="14"/>
<g>
	<path d="M109.1,184.2c0-1.8,2.5-3.5,4.5-3.5c1.3,0,2.3,0.7,2.3,1.7c0,1.7-2.5,3.5-4.6,3.5C110,186,109.1,185.3,109.1,184.2z"/>
</g>
<rect x="133.2" y="168.6" width="0.5" height="16.4"/>
<g>
	<path d="M126.7,186.7c0-1.8,2.5-3.5,4.5-3.5c1.3,0,2.3,0.7,2.3,1.7c0,1.7-2.5,3.5-4.6,3.5C127.7,188.4,126.7,187.8,126.7,186.7z"/>
</g>
<g>
	<path d="M124.3,179v2.8l1-0.3v1.8l-1,0.3v3.4l1-0.3v1.8l-1,0.3v3.1h-0.5v-3l-1.9,0.6v3h-0.5v-2.8l-1,0.3v-1.8l1-0.3v-3.4l-1,0.3
		v-1.8l1-0.3v-3.1h0.5v3l1.9-0.6v-3H124.3z M123.8,183.8l-1.9,0.6v3.4l1.9-0.6V183.8z"/>
</g>
<rect x="151" y="170.2" width="0.5" height="17.4"/>
<g>
	<path d="M144.6,189.2c0-1.8,2.5-3.5,4.5-3.5c1.3,0,2.3,0.7,2.3,1.7c0,1.7-2.5,3.5-4.6,3.5C145.5,190.9,144.6,190.3,144.6,189.2z"/>
</g>
<rect x="168.8" y="171.9" width="0.5" height="18.1"/>
<g>
	<path d="M162.4,191.7c0-1.8,2.5-3.5,4.5-3.5c1.3,0,2.3,0.7,2.3,1.7c0,1.7-2.5,3.5-4.6,3.5C163.4,193.4,162.4,192.8,162.4,191.7z"/>
</g>
<rect x="186.6" y="173.6" width="0.5" height="18.9"/>
<g>
	<path d="M180.2,194.1c0-1.8,2.5-3.5,4.5-3.5c1.3,0,2.3,0.7,2.3,1.7c0,1.7-2.5,3.5-4.6,3.5C181.2,195.9,180.2,195.2,180.2,194.1z"/>
</g>
<rect x="204.5" y="177.3" width="0.5" height="17.7"/>
<g>
	<path d="M198,196.6c0-1.8,2.5-3.5,4.5-3.5c1.3,0,2.3,0.7,2.3,1.7c0,1.7-2.5,3.5-4.6,3.5C199,198.4,198,197.7,198,196.6z"/>
</g>
<rect x="222.3" y="177.6" width="0.5" height="19.8"/>
<g>
	<path d="M215.9,199.1c0-1.8,2.5-3.5,4.5-3.5c1.3,0,2.3,0.7,2.3,1.7c0,1.7-2.5,3.5-4.6,3.5C216.8,200.8,215.9,200.2,215.9,199.1z"/>
</g>
<rect x="240" y="178.1" width="0.5" height="21.9"/>
<g>
	<path d="M233.5,201.6c0-1.8,2.5-3.5,4.5-3.5c1.3,0,2.3,0.7,2.3,1.7c0,1.7-2.5,3.5-4.6,3.5C234.5,203.3,233.5,202.7,233.5,201.6z"/>
</g>
<rect x="257.8" y="178.6" width="0.5" height="18.9"/>
<g>
	<path d="M251.4,199.1c0-1.8,2.5-3.5,4.5-3.5c1.3,0,2.3,0.7,2.3,1.7c0,1.7-2.5,3.5-4.6,3.5C252.3,200.8,251.4,200.2,251.4,199.1z"/>
</g>
<rect x="275.6" y="178.6" width="0.5" height="16.4"/>
<g>
	<path d="M269.2,196.6c0-1.8,2.5-3.5,4.5-3.5c1.3,0,2.3,0.7,2.3,1.7c0,1.7-2.5,3.5-4.6,3.5C270.2,198.4,269.2,197.7,269.2,196.6z"/>
</g>
<rect x="293.5" y="177" width="0.5" height="15.5"/>
<g>
	<path d="M287,194.1c0-1.8,2.5-3.5,4.5-3.5c1.3,0,2.3,0.7,2.3,1.7c0,1.7-2.5,3.5-4.6,3.5C288,195.9,287,195.2,287,194.1z"/>
</g>
<rect x="311.3" y="175.3" width="0.5" height="14.7"/>
<g>
	<path d="M304.8,191.7c0-1.8,2.5-3.5,4.5-3.5c1.3,0,2.3,0.7,2.3,1.7c0,1.7-2.5,3.5-4.6,3.5C305.8,193.4,304.8,192.8,304.8,191.7z"/>
</g>
<rect x="329.1" y="173.6" width="0.5" height="14"/>
<g>
	<path d="M322.7,189.2c0-1.8,2.5-3.5,4.5-3.5c1.3,0,2.3,0.7,2.3,1.7c0,1.7-2.5,3.5-4.6,3.5C323.6,190.9,322.7,190.3,322.7,189.2z"/>
</g>
<rect x="348.2" y="186.6" width="0.5" height="16.4"/>
<g>
	<path d="M348.3,186.7c0-1.8,2.5-3.5,4.5-3.5c1.3,0,2.3,0.7,2.3,1.7c0,1.7-2.5,3.5-4.6,3.5C349.2,188.4,348.3,187.8,348.3,186.7z"/>
</g>
<g>
	<path d="M345.8,179v2.8l1-0.3v1.8l-1,0.3v3.4l1-0.3v1.8l-1,0.3v3.1h-0.5v-3l-1.9,0.6v3h-0.5v-2.8l-1,0.3v-1.8l1-0.3v-3.4l-1,0.3
		v-1.8l1-0.3v-3.1h0.5v3l1.9-0.6v-3H345.8z M345.3,183.8l-1.9,0.6v3.4l1.9-0.6V183.8z"/>
</g>
<rect x="366" y="184.2" width="0.5" height="19.2"/>
<g>
	<path d="M366.1,184.2c0-1.8,2.5-3.5,4.5-3.5c1.3,0,2.3,0.7,2.3,1.7c0,1.7-2.5,3.5-4.6,3.5C367.1,186,366.1,185.3,366.1,184.2z"/>
</g>
<rect x="383.8" y="186.6" width="0.5" height="17.2"/>
<g>
	<path d="M383.9,186.7c0-1.8,2.5-3.5,4.5-3.5c1.3,0,2.3,0.7,2.3,1.7c0,1.7-2.5,3.5-4.6,3.5C384.9,188.4,383.9,187.8,383.9,186.7z"/>
</g>
<rect x="401.7" y="189.1" width="0.5" height="15.2"/>
<g>
	<path d="M401.7,189.2c0-1.8,2.5-3.5,4.5-3.5c1.3,0,2.3,0.7,2.3,1.7c0,1.7-2.5,3.5-4.6,3.5C402.7,190.9,401.7,190.3,401.7,189.2z"/>
</g>
<rect x="426" y="173.6" width="0.5" height="16.4"/>
<g>
	<path d="M419.6,191.7c0-1.8,2.5-3.5,4.5-3.5c1.3,0,2.3,0.7,2.3,1.7c0,1.7-2.5,3.5-4.6,3.5C420.5,193.4,419.6,192.8,419.6,191.7z"/>
</g>
<rect x="443.8" y="175.2" width="0.5" height="17.4"/>
<g>
	<path d="M437.4,194.1c0-1.8,2.5-3.5,4.5-3.5c1.3,0,2.3,0.7,2.3,1.7c0,1.7-2.5,3.5-4.6,3.5C438.4,195.9,437.4,195.2,437.4,194.1z"/>
</g>
<rect x="461.5" y="176.9" width="0.5" height="18.1"/>
<g>
	<path d="M455.1,196.6c0-1.8,2.5-3.5,4.5-3.5c1.3,0,2.3,0.7,2.3,1.7c0,1.7-2.5,3.5-4.6,3.5C456,198.4,455.1,197.7,455.1,196.6z"/>
</g>
<rect x="479.3" y="178.6" width="0.5" height="18.9"/>
<g>
	<path d="M472.9,199.1c0-1.8,2.5-3.5,4.5-3.5c1.3,0,2.3,0.7,2.3,1.7c0,1.7-2.5,3.5-4.6,3.5C473.9,200.8,472.9,200.2,472.9,199.1z"/>
</g>
<rect x="497.3" y="183.4" width="0.5" height="16.6"/>
<g>
	<path d="M495,198c1.6,0,2.7,0.7,2.7,2c0,1.9-2.3,3.4-4.5,3.4c-1.3,0-2.4-0.7-2.4-1.8C490.7,199.8,493,198,495,198z M491.2,201.9
		c0,0.6,0.4,0.9,1.1,0.9c1.4,0,4.9-2.1,4.9-3.3c0-0.6-0.4-0.9-1.1-0.9C494.8,198.6,491.2,200.7,491.2,201.9z"/>
</g>
</svg>
