<?xml version="1.0" encoding="utf-8"?>

<!--
	ScaleBook
	Copyright (c) Leland Jansen 2015. All rights reserved.
-->

<!DOCTYPE svg PUBLIC "-//W3C//DTD SVG 1.1//EN" "http://www.w3.org/Graphics/SVG/1.1/DTD/svg11.dtd">
<svg version="1.1" id="Layer_1" xmlns="http://www.w3.org/2000/svg" xmlns:xlink="http://www.w3.org/1999/xlink" x="0px" y="0px"
	 viewBox="0 0 553 204.5" enable-background="new 0 0 553 204.5" xml:space="preserve">
<rect x="8.4" y="9.9" width="0.8" height="67"/>
<g>
	<path d="M7.4,10.6c-1.9,1.1-3.6,5.8-3.6,9.4c0,2.3,1.4,9.9,1.4,12.3c0,5-1.5,8.6-4.6,11.1c3,2.4,4.6,6.1,4.6,11.1
		c0,2.3-1.4,9.9-1.4,12.3c0,3.8,1.7,8.4,3.6,9.5v0.7c-3.5-2.3-5.8-8.2-5.8-13.1c0-2.1,1.7-9.4,1.7-11.5c0-3.8-1-6.6-2.9-8.2
		C0.1,43.8,0,43.6,0,43.4c0-0.2,0.1-0.4,0.5-0.7c1.9-1.7,2.9-4.2,2.9-7.6c0-2.1-1.7-10-1.7-12.2c0-5.2,2.1-10.4,5.8-13.1V10.6z"/>
</g>
<rect x="8.4" y="131.3" width="0.8" height="67"/>
<g>
	<path d="M7.4,132c-1.9,1.1-3.6,5.8-3.6,9.4c0,2.3,1.4,9.9,1.4,12.3c0,5-1.5,8.6-4.6,11.1c3,2.4,4.6,6.1,4.6,11.1
		c0,2.3-1.4,9.9-1.4,12.3c0,3.8,1.7,8.4,3.6,9.5v0.7c-3.5-2.3-5.8-8.2-5.8-13.1c0-2.1,1.7-9.4,1.7-11.5c0-3.8-1-6.6-2.9-8.2
		C0.1,165.2,0,165,0,164.8c0-0.2,0.1-0.4,0.5-0.7c1.9-1.7,2.9-4.2,2.9-7.6c0-2.1-1.7-10-1.7-12.2c0-5.2,2.1-10.4,5.8-13.1V132z"/>
</g>
<rect x="301.2" y="9.9" width="0.8" height="67"/>
<rect x="552.2" y="9.9" width="0.8" height="67"/>
<rect x="341.5" y="131.3" width="0.8" height="67"/>
<rect x="547.8" y="131.3" width="0.8" height="67"/>
<rect x="550.4" y="131.3" width="2.5" height="67"/>
<rect x="8.5" y="29.5" width="544.4" height="0.5"/>
<rect x="8.5" y="24.6" width="544.4" height="0.5"/>
<rect x="8.5" y="19.6" width="544.4" height="0.5"/>
<rect x="8.5" y="14.6" width="544.4" height="0.5"/>
<rect x="8.5" y="9.7" width="544.4" height="0.5"/>
<g>
	<path d="M20.3,29.6c-4.2,0-8.1-3.1-8.1-6.9c0-3.2,2.3-6.7,6.8-10.5c-0.3-1.2-0.4-2.4-0.4-3.6c0-3.5,1.2-6.8,3.2-8.5
		c1.8,2.5,2.7,4.9,2.7,7.1c0,2.9-1.3,5.6-4.3,8.1l0.9,4.2c0.5,0,0.8-0.1,0.8-0.1c2.6,0,4.8,2,4.8,4.7c0,1.9-1.4,3.7-3.6,4.8
		c0-0.1,0.9,3.8,0.9,4.3c0,2.5-2.3,4.2-4.9,4.2c-2,0-3.6-1.3-3.6-3.4c0-1.4,1-2.6,2.4-2.6c1.3,0,2.3,1.3,2.3,2.5
		c0,1.4-1.2,2.3-2.7,2.5c0.6,0.3,1.2,0.5,1.9,0.5c2.1,0,4.1-1.6,4.1-3.6c0-0.2,0-0.4-0.1-0.6l-0.8-3.7
		C21.9,29.5,21.2,29.6,20.3,29.6z M18.1,24.4c0,1,0.5,1.9,1.6,2.5c-1.8-0.3-3-1.4-3-3.1c0-2,1.7-3.7,3.8-4.1l-0.8-4
		C16,18.5,14,21.2,14,23.8c0,2.9,2.8,5.3,6,5.3c0.9,0,1.7-0.2,2.4-0.5L21,21.8C19.4,22,18.1,23,18.1,24.4z M22.1,3
		c-1.6,0-2.9,3.7-2.9,7c0,0.7,0,1.3,0.2,1.9c2.7-2.4,4-4.5,4-6.5c0-0.9-0.3-1.7-1-2.4C22.4,3.1,22.3,3,22.1,3z M24.9,24.9
		c0-1.6-1.2-3.3-2.9-3.3c-0.1,0-0.2,0-0.5,0l1.4,6.6C24.2,27.4,24.9,26.2,24.9,24.9z"/>
</g>
<g>
	<path d="M29.5,11.5h0.6L30,17.8c0.4-0.7,1-1,1.8-1c1.2,0,2.2,0.8,2.2,1.9c0,0.8-0.5,1.8-1.7,2.7l-2.8,2.1V11.5z M30.1,18.4
		C30,19.2,30,19.8,30,20.4c0,1,0,1.6,0.1,2c1-0.7,2.4-2.6,2.4-3.7c0-0.6-0.5-1.1-1.1-1.1C30.8,17.6,30.4,17.9,30.1,18.4z"/>
</g>
<g>
	<path d="M35.1,4.1h0.6l-0.1,6.2c0.4-0.7,1-1,1.8-1c1.2,0,2.2,0.8,2.2,1.9c0,0.8-0.5,1.8-1.7,2.7L35.1,16V4.1z M35.7,11
		c-0.1,0.8-0.1,1.4-0.1,1.9c0,1,0,1.6,0.1,2c1-0.7,2.4-2.6,2.4-3.7c0-0.6-0.5-1.1-1.1-1.1C36.4,10.2,36,10.4,35.7,11z"/>
</g>
<g>
	<path d="M40.7,14h0.6l-0.1,6.2c0.4-0.7,1-1,1.8-1c1.2,0,2.2,0.8,2.2,1.9c0,0.8-0.5,1.8-1.7,2.7L40.7,26V14z M41.3,20.9
		c-0.1,0.8-0.1,1.4-0.1,1.9c0,1,0,1.6,0.1,2c1-0.7,2.4-2.6,2.4-3.7c0-0.6-0.5-1.1-1.1-1.1C42,20.1,41.6,20.4,41.3,20.9z"/>
</g>
<g>
	<path d="M46.3,6.6h0.6l-0.1,6.2c0.4-0.7,1-1,1.8-1c1.2,0,2.2,0.8,2.2,1.9c0,0.8-0.5,1.8-1.7,2.7l-2.8,2.1V6.6z M46.9,13.5
		c-0.1,0.8-0.1,1.4-0.1,1.9c0,1,0,1.6,0.1,2c1-0.7,2.4-2.6,2.4-3.7c0-0.6-0.5-1.1-1.1-1.1C47.6,12.6,47.2,12.9,46.9,13.5z"/>
</g>
<polygon fill-rule="evenodd" clip-rule="evenodd" points="66,26 111.5,24.8 111.5,22.3 66,23.6 "/>
<polygon fill-rule="evenodd" clip-rule="evenodd" points="66,22.3 111.5,21.1 111.5,18.6 66,19.8 "/>
<polygon fill-rule="evenodd" clip-rule="evenodd" points="126.6,21.1 172.2,16.1 172.2,13.6 126.6,18.6 "/>
<polygon fill-rule="evenodd" clip-rule="evenodd" points="126.6,17.4 172.2,12.4 172.2,9.9 126.6,14.9 "/>
<polygon fill-rule="evenodd" clip-rule="evenodd" points="187.3,11.2 232.8,6.2 232.8,3.7 187.3,8.7 "/>
<polygon fill-rule="evenodd" clip-rule="evenodd" points="187.3,7.4 232.8,2.5 232.8,0 187.3,5 "/>
<polygon fill-rule="evenodd" clip-rule="evenodd" points="241.4,27.3 287,26 287,23.6 241.4,24.8 "/>
<polygon fill-rule="evenodd" clip-rule="evenodd" points="241.4,31 287,29.8 287,27.3 241.4,28.5 "/>
<polygon fill-rule="evenodd" clip-rule="evenodd" points="309.5,31 355.1,36 355.1,33.5 309.5,28.5 "/>
<polygon fill-rule="evenodd" clip-rule="evenodd" points="309.5,34.7 355.1,39.7 355.1,37.2 309.5,32.2 "/>
<polygon fill-rule="evenodd" clip-rule="evenodd" points="376.8,11.2 422.2,9.9 422.2,7.4 376.8,8.7 "/>
<polygon fill-rule="evenodd" clip-rule="evenodd" points="376.8,7.4 422.2,6.2 422.2,3.7 376.8,5 "/>
<polygon fill-rule="evenodd" clip-rule="evenodd" points="430.9,31 477.2,26 477.2,23.6 430.9,28.5 "/>
<polygon fill-rule="evenodd" clip-rule="evenodd" points="430.9,34.7 477.2,29.8 477.2,27.3 430.9,32.2 "/>
<polygon fill-rule="evenodd" clip-rule="evenodd" points="492.4,26 537.8,31 537.8,28.5 492.4,23.6 "/>
<polygon fill-rule="evenodd" clip-rule="evenodd" points="492.4,29.8 537.8,34.7 537.8,32.2 492.4,27.3 "/>
<rect x="8.5" y="76.7" width="544.4" height="0.5"/>
<rect x="8.5" y="71.7" width="544.4" height="0.5"/>
<rect x="8.5" y="66.7" width="544.4" height="0.5"/>
<rect x="8.5" y="61.8" width="544.4" height="0.5"/>
<rect x="8.5" y="56.8" width="544.4" height="0.5"/>
<g>
	<path d="M15.7,71.2c2.9-2.6,4.7-6.1,4.7-9.2c0-2.5-1.4-4.4-3.7-4.4c-1.6,0-3.4,1.3-3.4,2.7c0,0.2,0,0.3,0.1,0.3
		c-0.1,0,0.6-0.6,1.4-0.6c0.9,0,1.5,0.8,1.5,1.7c0,1.2-0.9,2.2-2.1,2.2c-1.2,0-2.1-1.3-2.1-2.8c0-2.3,2.3-4.1,4.8-4.1
		c4.7,0,5.9,3.2,5.9,5.8c0,1.6-0.4,2.9-2,5.3c-1.9,3.1-6.4,5.3-8.1,5.3c-0.4,0-0.6-0.2-0.6-0.5C13.8,72.5,14.9,71.9,15.7,71.2z
		 M25.7,58.5c0.6,0,1,0.4,1,1c0,0.6-0.4,1-1,1s-1-0.4-1-1C24.7,59,25.1,58.5,25.7,58.5z M25.7,63.5c0.6,0,1,0.4,1,1c0,0.6-0.4,1-1,1
		s-1-0.4-1-1C24.7,63.9,25.1,63.5,25.7,63.5z"/>
</g>
<g>
	<path d="M29.5,63.6h0.6L30,69.9c0.4-0.7,1-1,1.8-1c1.2,0,2.2,0.8,2.2,1.9c0,0.8-0.5,1.8-1.7,2.7l-2.8,2.1V63.6z M30.1,70.5
		C30,71.3,30,71.9,30,72.5c0,1,0,1.6,0.1,2c1-0.7,2.4-2.6,2.4-3.7c0-0.6-0.5-1.1-1.1-1.1C30.8,69.7,30.4,70,30.1,70.5z"/>
</g>
<g>
	<path d="M35.1,56.2h0.6l-0.1,6.2c0.4-0.7,1-1,1.8-1c1.2,0,2.2,0.8,2.2,1.9c0,0.8-0.5,1.8-1.7,2.7l-2.8,2.1V56.2z M35.7,63.1
		c-0.1,0.8-0.1,1.4-0.1,1.9c0,1,0,1.6,0.1,2c1-0.7,2.4-2.6,2.4-3.7c0-0.6-0.5-1.1-1.1-1.1C36.4,62.2,36,62.5,35.7,63.1z"/>
</g>
<g>
	<path d="M40.7,66.1h0.6l-0.1,6.2c0.4-0.7,1-1,1.8-1c1.2,0,2.2,0.8,2.2,1.9c0,0.8-0.5,1.8-1.7,2.7L40.7,78V66.1z M41.3,73
		c-0.1,0.8-0.1,1.4-0.1,1.9c0,1,0,1.6,0.1,2c1-0.7,2.4-2.6,2.4-3.7c0-0.6-0.5-1.1-1.1-1.1C42,72.2,41.6,72.4,41.3,73z"/>
</g>
<g>
	<path d="M46.3,58.7h0.6l-0.1,6.2c0.4-0.7,1-1,1.8-1c1.2,0,2.2,0.8,2.2,1.9c0,0.8-0.5,1.8-1.7,2.7l-2.8,2.1V58.7z M46.9,65.6
		c-0.1,0.8-0.1,1.4-0.1,1.9c0,1,0,1.6,0.1,2c1-0.7,2.4-2.6,2.4-3.7c0-0.6-0.5-1.1-1.1-1.1C47.6,64.7,47.2,65,46.9,65.6z"/>
</g>
<polygon fill-rule="evenodd" clip-rule="evenodd" points="66,68.2 111.5,63.2 111.5,60.8 66,65.7 "/>
<polygon fill-rule="evenodd" clip-rule="evenodd" points="66,64.5 111.5,59.5 111.5,57 66,62 "/>
<polygon fill-rule="evenodd" clip-rule="evenodd" points="120.1,83.1 165.6,78.1 165.6,75.6 120.1,80.6 "/>
<polygon fill-rule="evenodd" clip-rule="evenodd" points="120.1,86.8 165.6,81.8 165.6,79.4 120.1,84.3 "/>
<polygon fill-rule="evenodd" clip-rule="evenodd" points="187.3,53.3 232.8,58.3 232.8,55.8 187.3,50.8 "/>
<polygon fill-rule="evenodd" clip-rule="evenodd" points="187.3,49.6 232.8,54.6 232.8,52.1 187.3,47.1 "/>
<polygon fill-rule="evenodd" clip-rule="evenodd" points="248,62 293.5,63.2 293.5,60.8 248,59.5 "/>
<polygon fill-rule="evenodd" clip-rule="evenodd" points="248,58.3 293.5,59.5 293.5,57 248,55.8 "/>
<polygon fill-rule="evenodd" clip-rule="evenodd" points="316,63.2 361.6,58.3 361.6,55.8 316,60.8 "/>
<polygon fill-rule="evenodd" clip-rule="evenodd" points="316,59.5 361.6,54.6 361.6,52.1 316,57 "/>
<polygon fill-rule="evenodd" clip-rule="evenodd" points="370.3,78.1 415.7,73.2 415.7,70.7 370.3,75.6 "/>
<polygon fill-rule="evenodd" clip-rule="evenodd" points="370.3,81.8 415.7,76.9 415.7,74.4 370.3,79.4 "/>
<polygon fill-rule="evenodd" clip-rule="evenodd" points="430.9,68.2 477.2,63.2 477.2,60.8 430.9,65.7 "/>
<polygon fill-rule="evenodd" clip-rule="evenodd" points="430.9,71.9 477.2,67 477.2,64.5 430.9,69.4 "/>
<polygon fill-rule="evenodd" clip-rule="evenodd" points="492.4,63.2 537.8,64.5 537.8,62 492.4,60.8 "/>
<polygon fill-rule="evenodd" clip-rule="evenodd" points="492.4,67 537.8,68.2 537.8,65.7 492.4,64.5 "/>
<rect x="8.5" y="150.9" width="544.4" height="0.5"/>
<rect x="8.5" y="145.9" width="544.4" height="0.5"/>
<rect x="8.5" y="141" width="544.4" height="0.5"/>
<rect x="8.5" y="136" width="544.4" height="0.5"/>
<rect x="8.5" y="131.1" width="544.4" height="0.5"/>
<g>
	<path d="M20.3,151c-4.2,0-8.1-3.1-8.1-6.9c0-3.2,2.3-6.7,6.8-10.5c-0.3-1.2-0.4-2.4-0.4-3.6c0-3.5,1.2-6.8,3.2-8.5
		c1.8,2.5,2.7,4.9,2.7,7.1c0,2.9-1.3,5.6-4.3,8.1L21,141c0.5,0,0.8-0.1,0.8-0.1c2.6,0,4.8,2,4.8,4.7c0,1.9-1.4,3.7-3.6,4.8
		c0-0.1,0.9,3.8,0.9,4.3c0,2.5-2.3,4.2-4.9,4.2c-2,0-3.6-1.3-3.6-3.4c0-1.4,1-2.6,2.4-2.6c1.3,0,2.3,1.3,2.3,2.5
		c0,1.4-1.2,2.3-2.7,2.5c0.6,0.3,1.2,0.5,1.9,0.5c2.1,0,4.1-1.6,4.1-3.6c0-0.2,0-0.4-0.1-0.6l-0.8-3.7C21.9,150.8,21.2,151,20.3,151
		z M18.1,145.8c0,1,0.5,1.9,1.6,2.5c-1.8-0.3-3-1.4-3-3.1c0-2,1.7-3.7,3.8-4.1l-0.8-4c-3.7,2.8-5.7,5.5-5.7,8.1c0,2.9,2.8,5.3,6,5.3
		c0.9,0,1.7-0.2,2.4-0.5l-1.4-6.8C19.4,143.4,18.1,144.4,18.1,145.8z M22.1,124.4c-1.6,0-2.9,3.7-2.9,7c0,0.7,0,1.3,0.2,1.9
		c2.7-2.4,4-4.5,4-6.5c0-0.9-0.3-1.7-1-2.4C22.4,124.4,22.3,124.4,22.1,124.4z M24.9,146.3c0-1.6-1.2-3.3-2.9-3.3
		c-0.1,0-0.2,0-0.5,0l1.4,6.6C24.2,148.8,24.9,147.6,24.9,146.3z"/>
</g>
<g>
	<path d="M29.5,132.9h0.6l-0.1,6.2c0.4-0.7,1-1,1.8-1c1.2,0,2.2,0.8,2.2,1.9c0,0.8-0.5,1.8-1.7,2.7l-2.8,2.1V132.9z M30.1,139.8
		c-0.1,0.8-0.1,1.4-0.1,1.9c0,1,0,1.6,0.1,2c1-0.7,2.4-2.6,2.4-3.7c0-0.6-0.5-1.1-1.1-1.1C30.8,139,30.4,139.2,30.1,139.8z"/>
</g>
<g>
	<path d="M35.1,125.5h0.6l-0.1,6.2c0.4-0.7,1-1,1.8-1c1.2,0,2.2,0.8,2.2,1.9c0,0.8-0.5,1.8-1.7,2.7l-2.8,2.1V125.5z M35.7,132.4
		c-0.1,0.8-0.1,1.4-0.1,1.9c0,1,0,1.6,0.1,2c1-0.7,2.4-2.6,2.4-3.7c0-0.6-0.5-1.1-1.1-1.1C36.4,131.5,36,131.8,35.7,132.4z"/>
</g>
<g>
	<path d="M40.7,135.4h0.6l-0.1,6.2c0.4-0.7,1-1,1.8-1c1.2,0,2.2,0.8,2.2,1.9c0,0.8-0.5,1.8-1.7,2.7l-2.8,2.1V135.4z M41.3,142.3
		c-0.1,0.8-0.1,1.4-0.1,1.9c0,1,0,1.6,0.1,2c1-0.7,2.4-2.6,2.4-3.7c0-0.6-0.5-1.1-1.1-1.1C42,141.5,41.6,141.7,41.3,142.3z"/>
</g>
<g>
	<path d="M46.3,127.9h0.6l-0.1,6.2c0.4-0.7,1-1,1.8-1c1.2,0,2.2,0.8,2.2,1.9c0,0.8-0.5,1.8-1.7,2.7l-2.8,2.1V127.9z M46.9,134.8
		c-0.1,0.8-0.1,1.4-0.1,1.9c0,1,0,1.6,0.1,2c1-0.7,2.4-2.6,2.4-3.7c0-0.6-0.5-1.1-1.1-1.1C47.6,134,47.2,134.3,46.9,134.8z"/>
</g>
<polygon fill-rule="evenodd" clip-rule="evenodd" points="66,132.5 119,137.5 119,135 66,130.1 "/>
<polygon fill-rule="evenodd" clip-rule="evenodd" points="66,128.8 119,133.8 119,131.3 66,126.3 "/>
<polygon fill-rule="evenodd" clip-rule="evenodd" points="136.7,132.5 189.7,127.6 189.7,125.1 136.7,130.1 "/>
<polygon fill-rule="evenodd" clip-rule="evenodd" points="136.7,128.8 189.7,123.9 189.7,121.4 136.7,126.3 "/>
<polygon fill-rule="evenodd" clip-rule="evenodd" points="200.8,148.7 254,147.4 254,144.9 200.8,146.2 "/>
<polygon fill-rule="evenodd" clip-rule="evenodd" points="200.8,152.4 254,151.1 254,148.7 200.8,149.9 "/>
<polygon fill-rule="evenodd" clip-rule="evenodd" points="271.7,152.4 324.7,157.3 324.7,154.9 271.7,149.9 "/>
<polygon fill-rule="evenodd" clip-rule="evenodd" points="271.7,156.1 324.7,161.1 324.7,158.6 271.7,153.6 "/>
<polygon fill-rule="evenodd" clip-rule="evenodd" points="356.3,137.5 409.3,142.5 409.3,140 356.3,135 "/>
<polygon fill-rule="evenodd" clip-rule="evenodd" points="356.3,133.8 409.3,138.7 409.3,136.3 356.3,131.3 "/>
<polygon fill-rule="evenodd" clip-rule="evenodd" points="427,146.2 480,147.4 480,144.9 427,143.7 "/>
<polygon fill-rule="evenodd" clip-rule="evenodd" points="427,142.5 480,143.7 480,141.2 427,140 "/>
<rect x="8.5" y="198" width="544.4" height="0.5"/>
<rect x="8.5" y="193.1" width="544.4" height="0.5"/>
<rect x="8.5" y="188.1" width="544.4" height="0.5"/>
<rect x="8.5" y="183.1" width="544.4" height="0.5"/>
<rect x="8.5" y="178.2" width="544.4" height="0.5"/>
<g>
	<path d="M15.7,192.6c2.9-2.6,4.7-6.1,4.7-9.2c0-2.5-1.4-4.4-3.7-4.4c-1.6,0-3.4,1.3-3.4,2.7c0,0.2,0,0.3,0.1,0.3
		c-0.1,0,0.6-0.6,1.4-0.6c0.9,0,1.5,0.8,1.5,1.7c0,1.2-0.9,2.2-2.1,2.2c-1.2,0-2.1-1.3-2.1-2.8c0-2.3,2.3-4.1,4.8-4.1
		c4.7,0,5.9,3.2,5.9,5.8c0,1.6-0.4,2.9-2,5.3c-1.9,3.1-6.4,5.3-8.1,5.3c-0.4,0-0.6-0.2-0.6-0.5C13.8,193.9,14.9,193.3,15.7,192.6z
		 M25.7,179.9c0.6,0,1,0.4,1,1c0,0.6-0.4,1-1,1s-1-0.4-1-1C24.7,180.3,25.1,179.9,25.7,179.9z M25.7,184.8c0.6,0,1,0.4,1,1
		c0,0.6-0.4,1-1,1s-1-0.4-1-1C24.7,185.3,25.1,184.8,25.7,184.8z"/>
</g>
<g>
	<path d="M29.5,185h0.6l-0.1,6.2c0.4-0.7,1-1,1.8-1c1.2,0,2.2,0.8,2.2,1.9c0,0.8-0.5,1.8-1.7,2.7l-2.8,2.1V185z M30.1,191.9
		c-0.1,0.8-0.1,1.4-0.1,1.9c0,1,0,1.6,0.1,2c1-0.7,2.4-2.6,2.4-3.7c0-0.6-0.5-1.1-1.1-1.1C30.8,191.1,30.4,191.3,30.1,191.9z"/>
</g>
<g>
	<path d="M35.1,177.5h0.6l-0.1,6.2c0.4-0.7,1-1,1.8-1c1.2,0,2.2,0.8,2.2,1.9c0,0.8-0.5,1.8-1.7,2.7l-2.8,2.1V177.5z M35.7,184.4
		c-0.1,0.8-0.1,1.4-0.1,1.9c0,1,0,1.6,0.1,2c1-0.7,2.4-2.6,2.4-3.7c0-0.6-0.5-1.1-1.1-1.1C36.4,183.6,36,183.9,35.7,184.4z"/>
</g>
<g>
	<path d="M40.7,187.5h0.6l-0.1,6.2c0.4-0.7,1-1,1.8-1c1.2,0,2.2,0.8,2.2,1.9c0,0.8-0.5,1.8-1.7,2.7l-2.8,2.1V187.5z M41.3,194.4
		c-0.1,0.8-0.1,1.4-0.1,1.9c0,1,0,1.6,0.1,2c1-0.7,2.4-2.6,2.4-3.7c0-0.6-0.5-1.1-1.1-1.1C42,193.5,41.6,193.8,41.3,194.4z"/>
</g>
<g>
	<path d="M46.3,180h0.6l-0.1,6.2c0.4-0.7,1-1,1.8-1c1.2,0,2.2,0.8,2.2,1.9c0,0.8-0.5,1.8-1.7,2.7l-2.8,2.1V180z M46.9,186.9
		c-0.1,0.8-0.1,1.4-0.1,1.9c0,1,0,1.6,0.1,2c1-0.7,2.4-2.6,2.4-3.7c0-0.6-0.5-1.1-1.1-1.1C47.6,186.1,47.2,186.4,46.9,186.9z"/>
</g>
<polygon fill-rule="evenodd" clip-rule="evenodd" points="59.5,189.6 112.5,194.5 112.5,192.1 59.5,187.1 "/>
<polygon fill-rule="evenodd" clip-rule="evenodd" points="59.5,193.3 112.5,198.3 112.5,195.8 59.5,190.8 "/>
<polygon fill-rule="evenodd" clip-rule="evenodd" points="136.7,174.7 189.7,179.7 189.7,177.2 136.7,172.2 "/>
<polygon fill-rule="evenodd" clip-rule="evenodd" points="136.7,171 189.7,175.9 189.7,173.5 136.7,168.5 "/>
<polygon fill-rule="evenodd" clip-rule="evenodd" points="207.3,183.4 260.5,184.6 260.5,182.1 207.3,180.9 "/>
<polygon fill-rule="evenodd" clip-rule="evenodd" points="207.3,179.7 260.5,180.9 260.5,178.4 207.3,177.2 "/>
<polygon fill-rule="evenodd" clip-rule="evenodd" points="278.2,184.6 331.2,179.7 331.2,177.2 278.2,182.1 "/>
<polygon fill-rule="evenodd" clip-rule="evenodd" points="278.2,180.9 331.2,175.9 331.2,173.5 278.2,178.4 "/>
<polygon fill-rule="evenodd" clip-rule="evenodd" points="349.8,199.5 402.8,200.7 402.8,198.3 349.8,197 "/>
<polygon fill-rule="evenodd" clip-rule="evenodd" points="349.8,203.2 402.8,204.5 402.8,202 349.8,200.7 "/>
<polygon fill-rule="evenodd" clip-rule="evenodd" points="427,179.7 480,184.6 480,182.1 427,177.2 "/>
<polygon fill-rule="evenodd" clip-rule="evenodd" points="427,175.9 480,180.9 480,178.4 427,173.5 "/>
<rect x="57.4" y="34.3" width="10.5" height="0.8"/>
<rect x="57.4" y="39.3" width="10.5" height="0.8"/>
<rect x="57.4" y="44.3" width="10.5" height="0.8"/>
<rect x="65.7" y="20" width="0.5" height="23.9"/>
<g>
	<path d="M59.3,45.5c0-1.8,2.5-3.5,4.5-3.5c1.3,0,2.3,0.7,2.3,1.7c0,1.7-2.5,3.5-4.6,3.5C60.3,47.2,59.3,46.6,59.3,45.5z"/>
</g>
<rect x="72.6" y="34.3" width="10.5" height="0.8"/>
<rect x="72.6" y="39.3" width="10.5" height="0.8"/>
<rect x="80.9" y="19.7" width="0.5" height="21.7"/>
<g>
	<path d="M74.5,43c0-1.8,2.5-3.5,4.5-3.5c1.3,0,2.3,0.7,2.3,1.7c0,1.7-2.5,3.5-4.6,3.5C75.5,44.7,74.5,44.1,74.5,43z"/>
</g>
<rect x="87.8" y="34.3" width="10.5" height="0.8"/>
<rect x="87.8" y="39.3" width="10.5" height="0.8"/>
<rect x="96.1" y="19.2" width="0.5" height="19.7"/>
<g>
	<path d="M89.7,40.5c0-1.8,2.5-3.5,4.5-3.5c1.3,0,2.3,0.7,2.3,1.7c0,1.7-2.5,3.5-4.6,3.5C90.7,42.3,89.7,41.6,89.7,40.5z"/>
</g>
<rect x="103" y="34.3" width="10.5" height="0.8"/>
<rect x="111.3" y="18.8" width="0.5" height="17.7"/>
<g>
	<path d="M104.9,38.1c0-1.8,2.5-3.5,4.5-3.5c1.3,0,2.3,0.7,2.3,1.7c0,1.7-2.5,3.5-4.6,3.5C105.9,39.8,104.9,39.1,104.9,38.1z"/>
</g>
<rect x="118.1" y="34.3" width="10.5" height="0.8"/>
<rect x="126.3" y="15" width="0.5" height="18.9"/>
<g>
	<path d="M119.9,35.6c0-1.8,2.5-3.5,4.5-3.5c1.3,0,2.3,0.7,2.3,1.7c0,1.7-2.5,3.5-4.6,3.5C120.9,37.3,119.9,36.7,119.9,35.6z"/>
</g>
<rect x="141.5" y="13.5" width="0.5" height="18"/>
<g>
	<path d="M135.1,33.1c0-1.8,2.5-3.5,4.5-3.5c1.3,0,2.3,0.7,2.3,1.7c0,1.7-2.5,3.5-4.6,3.5C136.1,34.8,135.1,34.2,135.1,33.1z"/>
</g>
<rect x="156.7" y="11.8" width="0.5" height="17.2"/>
<g>
	<path d="M150.3,30.6c0-1.8,2.5-3.5,4.5-3.5c1.3,0,2.3,0.7,2.3,1.7c0,1.7-2.5,3.5-4.6,3.5C151.3,32.3,150.3,31.7,150.3,30.6z"/>
</g>
<g>
	<path d="M148.4,36.5v-4l-3,1.1V23h0.5v4l3-1.1v10.7H148.4z M145.8,31.9l2.5-0.9v-3.3l-2.5,0.9V31.9z"/>
</g>
<rect x="171.9" y="10.1" width="0.5" height="16.4"/>
<g>
	<path d="M165.5,28.1c0-1.8,2.5-3.5,4.5-3.5c1.3,0,2.3,0.7,2.3,1.7c0,1.7-2.5,3.5-4.6,3.5C166.5,29.9,165.5,29.2,165.5,28.1z"/>
</g>
<rect x="187.1" y="5.1" width="0.5" height="18.9"/>
<g>
	<path d="M180.7,25.7c0-1.8,2.5-3.5,4.5-3.5c1.3,0,2.3,0.7,2.3,1.7c0,1.7-2.5,3.5-4.6,3.5C181.7,27.4,180.7,26.7,180.7,25.7z"/>
</g>
<rect x="202.3" y="3.6" width="0.5" height="18"/>
<g>
	<path d="M195.9,23.2c0-1.8,2.5-3.5,4.5-3.5c1.3,0,2.3,0.7,2.3,1.7c0,1.7-2.5,3.5-4.6,3.5C196.8,24.9,195.9,24.3,195.9,23.2z"/>
</g>
<rect x="217.3" y="1.9" width="0.5" height="17.2"/>
<g>
	<path d="M210.9,20.7c0-1.8,2.5-3.5,4.5-3.5c1.3,0,2.3,0.7,2.3,1.7c0,1.7-2.5,3.5-4.6,3.5C211.9,22.4,210.9,21.8,210.9,20.7z"/>
</g>
<rect x="232.5" y="0.2" width="0.5" height="16.4"/>
<g>
	<path d="M226.1,18.2c0-1.8,2.5-3.5,4.5-3.5c1.3,0,2.3,0.7,2.3,1.7c0,1.7-2.5,3.5-4.6,3.5C227.1,19.9,226.1,19.3,226.1,18.2z"/>
</g>
<rect x="241.2" y="15.7" width="0.5" height="15.2"/>
<g>
	<path d="M241.3,15.7c0-1.8,2.5-3.5,4.5-3.5c1.3,0,2.3,0.7,2.3,1.7c0,1.7-2.5,3.5-4.6,3.5C242.3,17.5,241.3,16.8,241.3,15.7z"/>
</g>
<rect x="256.4" y="13.2" width="0.5" height="17.4"/>
<g>
	<path d="M256.5,13.3c0-1.8,2.5-3.5,4.5-3.5c1.3,0,2.3,0.7,2.3,1.7c0,1.7-2.5,3.5-4.6,3.5C257.5,15,256.5,14.3,256.5,13.3z"/>
</g>
<g>
	<path d="M254.6,19.2v-4l-3,1.1V5.6h0.5v4l3-1.1v10.7H254.6z M252,14.5l2.5-0.9v-3.3l-2.5,0.9V14.5z"/>
</g>
<rect x="271.6" y="10.7" width="0.5" height="19.4"/>
<g>
	<path d="M271.7,10.8c0-1.8,2.5-3.5,4.5-3.5c1.3,0,2.3,0.7,2.3,1.7c0,1.7-2.5,3.5-4.6,3.5C272.6,12.5,271.7,11.9,271.7,10.8z"/>
</g>
<rect x="286.8" y="13.2" width="0.5" height="16.4"/>
<g>
	<path d="M286.9,13.3c0-1.8,2.5-3.5,4.5-3.5c1.3,0,2.3,0.7,2.3,1.7c0,1.7-2.5,3.5-4.6,3.5C287.8,15,286.9,14.3,286.9,13.3z"/>
</g>
<rect x="309.3" y="15.7" width="0.5" height="18.9"/>
<g>
	<path d="M309.3,15.7c0-1.8,2.5-3.5,4.5-3.5c1.3,0,2.3,0.7,2.3,1.7c0,1.7-2.5,3.5-4.6,3.5C310.3,17.5,309.3,16.8,309.3,15.7z"/>
</g>
<rect x="324.5" y="18.1" width="0.5" height="18"/>
<g>
	<path d="M324.5,18.2c0-1.8,2.5-3.5,4.5-3.5c1.3,0,2.3,0.7,2.3,1.7c0,1.7-2.5,3.5-4.6,3.5C325.5,19.9,324.5,19.3,324.5,18.2z"/>
</g>
<rect x="339.6" y="20.6" width="0.5" height="17.2"/>
<g>
	<path d="M339.7,20.7c0-1.8,2.5-3.5,4.5-3.5c1.3,0,2.3,0.7,2.3,1.7c0,1.7-2.5,3.5-4.6,3.5C340.7,22.4,339.7,21.8,339.7,20.7z"/>
</g>
<rect x="354.8" y="23.1" width="0.5" height="16.4"/>
<g>
	<path d="M354.9,23.2c0-1.8,2.5-3.5,4.5-3.5c1.3,0,2.3,0.7,2.3,1.7c0,1.7-2.5,3.5-4.6,3.5C355.9,24.9,354.9,24.3,354.9,23.2z"/>
</g>
<rect x="376.5" y="5.1" width="0.5" height="18.9"/>
<g>
	<path d="M370.1,25.7c0-1.8,2.5-3.5,4.5-3.5c1.3,0,2.3,0.7,2.3,1.7c0,1.7-2.5,3.5-4.6,3.5C371.1,27.4,370.1,26.7,370.1,25.7z"/>
</g>
<rect x="391.7" y="4.8" width="0.5" height="21.7"/>
<g>
	<path d="M385.3,28.1c0-1.8,2.5-3.5,4.5-3.5c1.3,0,2.3,0.7,2.3,1.7c0,1.7-2.5,3.5-4.6,3.5C386.3,29.9,385.3,29.2,385.3,28.1z"/>
</g>
<rect x="406.8" y="4.3" width="0.5" height="19.7"/>
<g>
	<path d="M400.3,25.7c0-1.8,2.5-3.5,4.5-3.5c1.3,0,2.3,0.7,2.3,1.7c0,1.7-2.5,3.5-4.6,3.5C401.3,27.4,400.3,26.7,400.3,25.7z"/>
</g>
<rect x="422" y="3.9" width="0.5" height="17.7"/>
<g>
	<path d="M415.5,23.2c0-1.8,2.5-3.5,4.5-3.5c1.3,0,2.3,0.7,2.3,1.7c0,1.7-2.5,3.5-4.6,3.5C416.5,24.9,415.5,24.3,415.5,23.2z"/>
</g>
<rect x="430.6" y="20.6" width="0.5" height="14"/>
<g>
	<path d="M430.7,20.7c0-1.8,2.5-3.5,4.5-3.5c1.3,0,2.3,0.7,2.3,1.7c0,1.7-2.5,3.5-4.6,3.5C431.7,22.4,430.7,21.8,430.7,20.7z"/>
</g>
<rect x="445.8" y="18.1" width="0.5" height="14.9"/>
<g>
	<path d="M445.9,18.2c0-1.8,2.5-3.5,4.5-3.5c1.3,0,2.3,0.7,2.3,1.7c0,1.7-2.5,3.5-4.6,3.5C446.9,19.9,445.9,19.3,445.9,18.2z"/>
</g>
<rect x="461" y="15.7" width="0.5" height="15.8"/>
<g>
	<path d="M461.1,15.7c0-1.8,2.5-3.5,4.5-3.5c1.3,0,2.3,0.7,2.3,1.7c0,1.7-2.5,3.5-4.6,3.5C462.1,17.5,461.1,16.8,461.1,15.7z"/>
</g>
<rect x="477" y="13.2" width="0.5" height="16.4"/>
<g>
	<path d="M477.1,13.3c0-1.8,2.5-3.5,4.5-3.5c1.3,0,2.3,0.7,2.3,1.7c0,1.7-2.5,3.5-4.6,3.5C478,15,477.1,14.3,477.1,13.3z"/>
</g>
<g>
	<path d="M475.1,19.2v-4l-3,1.1V5.6h0.5v4l3-1.1v10.7H475.1z M472.6,14.5l2.5-0.9v-3.3l-2.5,0.9V14.5z"/>
</g>
<rect x="492.2" y="10.7" width="0.5" height="18.9"/>
<g>
	<path d="M492.3,10.8c0-1.8,2.5-3.5,4.5-3.5c1.3,0,2.3,0.7,2.3,1.7c0,1.7-2.5,3.5-4.6,3.5C493.2,12.5,492.3,11.9,492.3,10.8z"/>
</g>
<rect x="507.2" y="13.2" width="0.5" height="18"/>
<g>
	<path d="M507.3,13.3c0-1.8,2.5-3.5,4.5-3.5c1.3,0,2.3,0.7,2.3,1.7c0,1.7-2.5,3.5-4.6,3.5C508.3,15,507.3,14.3,507.3,13.3z"/>
</g>
<rect x="522.4" y="15.7" width="0.5" height="17.2"/>
<g>
	<path d="M522.5,15.7c0-1.8,2.5-3.5,4.5-3.5c1.3,0,2.3,0.7,2.3,1.7c0,1.7-2.5,3.5-4.6,3.5C523.5,17.5,522.5,16.8,522.5,15.7z"/>
</g>
<rect x="537.6" y="18.1" width="0.5" height="16.4"/>
<g>
	<path d="M537.7,18.2c0-1.8,2.5-3.5,4.5-3.5c1.3,0,2.3,0.7,2.3,1.7c0,1.7-2.5,3.5-4.6,3.5C538.7,19.9,537.7,19.3,537.7,18.2z"/>
</g>
<rect x="65.7" y="62.2" width="0.5" height="16.4"/>
<g>
	<path d="M59.3,80.2c0-1.8,2.5-3.5,4.5-3.5c1.3,0,2.3,0.7,2.3,1.7c0,1.7-2.5,3.5-4.6,3.5C60.3,81.9,59.3,81.3,59.3,80.2z"/>
</g>
<rect x="80.9" y="60.6" width="0.5" height="15.5"/>
<g>
	<path d="M74.5,77.7c0-1.8,2.5-3.5,4.5-3.5c1.3,0,2.3,0.7,2.3,1.7c0,1.7-2.5,3.5-4.6,3.5C75.5,79.5,74.5,78.8,74.5,77.7z"/>
</g>
<rect x="96.1" y="58.9" width="0.5" height="14.7"/>
<g>
	<path d="M89.7,75.3c0-1.8,2.5-3.5,4.5-3.5c1.3,0,2.3,0.7,2.3,1.7c0,1.7-2.5,3.5-4.6,3.5C90.7,77,89.7,76.3,89.7,75.3z"/>
</g>
<rect x="111.3" y="57.2" width="0.5" height="14"/>
<g>
	<path d="M104.9,72.8c0-1.8,2.5-3.5,4.5-3.5c1.3,0,2.3,0.7,2.3,1.7c0,1.7-2.5,3.5-4.6,3.5C105.9,74.5,104.9,73.9,104.9,72.8z"/>
</g>
<rect x="119.8" y="70.2" width="0.5" height="16.4"/>
<g>
	<path d="M119.9,70.3c0-1.8,2.5-3.5,4.5-3.5c1.3,0,2.3,0.7,2.3,1.7c0,1.7-2.5,3.5-4.6,3.5C120.9,72,119.9,71.4,119.9,70.3z"/>
</g>
<rect x="135" y="67.7" width="0.5" height="17.4"/>
<g>
	<path d="M135.1,67.8c0-1.8,2.5-3.5,4.5-3.5c1.3,0,2.3,0.7,2.3,1.7c0,1.7-2.5,3.5-4.6,3.5C136.1,69.5,135.1,68.9,135.1,67.8z"/>
</g>
<rect x="150.2" y="65.3" width="0.5" height="18.1"/>
<g>
	<path d="M150.3,65.3c0-1.8,2.5-3.5,4.5-3.5c1.3,0,2.3,0.7,2.3,1.7c0,1.7-2.5,3.5-4.6,3.5C151.3,67.1,150.3,66.4,150.3,65.3z"/>
</g>
<g>
	<path d="M148.4,71.2v-4l-3,1.1V57.7h0.5v4l3-1.1v10.7H148.4z M145.8,66.6l2.5-0.9v-3.3l-2.5,0.9V66.6z"/>
</g>
<rect x="165.4" y="62.8" width="0.5" height="18.9"/>
<g>
	<path d="M165.5,62.9c0-1.8,2.5-3.5,4.5-3.5c1.3,0,2.3,0.7,2.3,1.7c0,1.7-2.5,3.5-4.6,3.5C166.5,64.6,165.5,63.9,165.5,62.9z"/>
</g>
<rect x="187.1" y="47.3" width="0.5" height="16.4"/>
<g>
	<path d="M180.7,65.3c0-1.8,2.5-3.5,4.5-3.5c1.3,0,2.3,0.7,2.3,1.7c0,1.7-2.5,3.5-4.6,3.5C181.7,67.1,180.7,66.4,180.7,65.3z"/>
</g>
<rect x="202.3" y="48.8" width="0.5" height="17.4"/>
<g>
	<path d="M195.9,67.8c0-1.8,2.5-3.5,4.5-3.5c1.3,0,2.3,0.7,2.3,1.7c0,1.7-2.5,3.5-4.6,3.5C196.8,69.5,195.9,68.9,195.9,67.8z"/>
</g>
<rect x="217.3" y="50.5" width="0.5" height="18.1"/>
<g>
	<path d="M210.9,70.3c0-1.8,2.5-3.5,4.5-3.5c1.3,0,2.3,0.7,2.3,1.7c0,1.7-2.5,3.5-4.6,3.5C211.9,72,210.9,71.4,210.9,70.3z"/>
</g>
<rect x="232.5" y="52.2" width="0.5" height="18.9"/>
<g>
	<path d="M226.1,72.8c0-1.8,2.5-3.5,4.5-3.5c1.3,0,2.3,0.7,2.3,1.7c0,1.7-2.5,3.5-4.6,3.5C227.1,74.5,226.1,73.9,226.1,72.8z"/>
</g>
<rect x="247.7" y="56" width="0.5" height="17.7"/>
<g>
	<path d="M241.3,75.3c0-1.8,2.5-3.5,4.5-3.5c1.3,0,2.3,0.7,2.3,1.7c0,1.7-2.5,3.5-4.6,3.5C242.3,77,241.3,76.3,241.3,75.3z"/>
</g>
<rect x="262.9" y="56.3" width="0.5" height="19.8"/>
<g>
	<path d="M256.5,77.7c0-1.8,2.5-3.5,4.5-3.5c1.3,0,2.3,0.7,2.3,1.7c0,1.7-2.5,3.5-4.6,3.5C257.5,79.5,256.5,78.8,256.5,77.7z"/>
</g>
<rect x="278.1" y="56.7" width="0.5" height="21.9"/>
<g>
	<path d="M271.7,80.2c0-1.8,2.5-3.5,4.5-3.5c1.3,0,2.3,0.7,2.3,1.7c0,1.7-2.5,3.5-4.6,3.5C272.6,81.9,271.7,81.3,271.7,80.2z"/>
</g>
<rect x="293.3" y="57.2" width="0.5" height="18.9"/>
<g>
	<path d="M286.9,77.7c0-1.8,2.5-3.5,4.5-3.5c1.3,0,2.3,0.7,2.3,1.7c0,1.7-2.5,3.5-4.6,3.5C287.8,79.5,286.9,78.8,286.9,77.7z"/>
</g>
<rect x="315.8" y="57.2" width="0.5" height="16.4"/>
<g>
	<path d="M309.3,75.3c0-1.8,2.5-3.5,4.5-3.5c1.3,0,2.3,0.7,2.3,1.7c0,1.7-2.5,3.5-4.6,3.5C310.3,77,309.3,76.3,309.3,75.3z"/>
</g>
<rect x="331" y="55.6" width="0.5" height="15.5"/>
<g>
	<path d="M324.5,72.8c0-1.8,2.5-3.5,4.5-3.5c1.3,0,2.3,0.7,2.3,1.7c0,1.7-2.5,3.5-4.6,3.5C325.5,74.5,324.5,73.9,324.5,72.8z"/>
</g>
<rect x="346.2" y="53.9" width="0.5" height="14.7"/>
<g>
	<path d="M339.7,70.3c0-1.8,2.5-3.5,4.5-3.5c1.3,0,2.3,0.7,2.3,1.7c0,1.7-2.5,3.5-4.6,3.5C340.7,72,339.7,71.4,339.7,70.3z"/>
</g>
<rect x="361.4" y="52.2" width="0.5" height="14"/>
<g>
	<path d="M354.9,67.8c0-1.8,2.5-3.5,4.5-3.5c1.3,0,2.3,0.7,2.3,1.7c0,1.7-2.5,3.5-4.6,3.5C355.9,69.5,354.9,68.9,354.9,67.8z"/>
</g>
<rect x="370" y="65.3" width="0.5" height="16.4"/>
<g>
	<path d="M370.1,65.3c0-1.8,2.5-3.5,4.5-3.5c1.3,0,2.3,0.7,2.3,1.7c0,1.7-2.5,3.5-4.6,3.5C371.1,67.1,370.1,66.4,370.1,65.3z"/>
</g>
<g>
	<path d="M368.2,71.2v-4l-3,1.1V57.7h0.5v4l3-1.1v10.7H368.2z M365.6,66.6l2.5-0.9v-3.3l-2.5,0.9V66.6z"/>
</g>
<rect x="385.2" y="62.8" width="0.5" height="17.4"/>
<g>
	<path d="M385.3,62.9c0-1.8,2.5-3.5,4.5-3.5c1.3,0,2.3,0.7,2.3,1.7c0,1.7-2.5,3.5-4.6,3.5C386.3,64.6,385.3,63.9,385.3,62.9z"/>
</g>
<rect x="400.3" y="60.3" width="0.5" height="18.1"/>
<g>
	<path d="M400.3,60.4c0-1.8,2.5-3.5,4.5-3.5c1.3,0,2.3,0.7,2.3,1.7c0,1.7-2.5,3.5-4.6,3.5C401.3,62.1,400.3,61.5,400.3,60.4z"/>
</g>
<rect x="415.5" y="57.8" width="0.5" height="18.9"/>
<g>
	<path d="M415.5,57.9c0-1.8,2.5-3.5,4.5-3.5c1.3,0,2.3,0.7,2.3,1.7c0,1.7-2.5,3.5-4.6,3.5C416.5,59.6,415.5,59,415.5,57.9z"/>
</g>
<rect x="430.6" y="55.3" width="0.5" height="16.4"/>
<g>
	<path d="M430.7,55.4c0-1.8,2.5-3.5,4.5-3.5c1.3,0,2.3,0.7,2.3,1.7c0,1.7-2.5,3.5-4.6,3.5C431.7,57.1,430.7,56.5,430.7,55.4z"/>
</g>
<rect x="444.1" y="51.7" width="10.5" height="0.8"/>
<rect x="445.8" y="52.9" width="0.5" height="17.4"/>
<g>
	<path d="M445.9,52.9c0-1.8,2.5-3.5,4.5-3.5c1.3,0,2.3,0.7,2.3,1.7c0,1.7-2.5,3.5-4.6,3.5C446.9,54.7,445.9,54,445.9,52.9z"/>
</g>
<rect x="459.2" y="51.7" width="10.5" height="0.8"/>
<rect x="461" y="50.4" width="0.5" height="18.3"/>
<g>
	<path d="M461.1,50.5c0-1.8,2.5-3.5,4.5-3.5c1.3,0,2.3,0.7,2.3,1.7c0,1.7-2.5,3.5-4.6,3.5C462.1,52.2,461.1,51.5,461.1,50.5z"/>
</g>
<rect x="475.2" y="51.7" width="10.5" height="0.8"/>
<rect x="475.2" y="46.7" width="10.5" height="0.8"/>
<rect x="477" y="47.9" width="0.5" height="18.9"/>
<g>
	<path d="M477.1,48c0-1.8,2.5-3.5,4.5-3.5c1.3,0,2.3,0.7,2.3,1.7c0,1.7-2.5,3.5-4.6,3.5C478,49.7,477.1,49.1,477.1,48z"/>
</g>
<g>
	<path d="M473.9,53.9v-4l-3,1.1V40.3h0.5v4l3-1.1v10.7H473.9z M471.4,49.2l2.5-0.9V45l-2.5,0.9V49.2z"/>
</g>
<rect x="490.4" y="51.7" width="10.5" height="0.8"/>
<rect x="490.4" y="46.7" width="10.5" height="0.8"/>
<rect x="492.2" y="45.4" width="0.5" height="21.4"/>
<g>
	<path d="M492.3,45.5c0-1.8,2.5-3.5,4.5-3.5c1.3,0,2.3,0.7,2.3,1.7c0,1.7-2.5,3.5-4.6,3.5C493.2,47.2,492.3,46.6,492.3,45.5z"/>
</g>
<rect x="505.4" y="51.7" width="10.5" height="0.8"/>
<rect x="505.4" y="46.7" width="10.5" height="0.8"/>
<rect x="507.2" y="47.9" width="0.5" height="19.2"/>
<g>
	<path d="M507.3,48c0-1.8,2.5-3.5,4.5-3.5c1.3,0,2.3,0.7,2.3,1.7c0,1.7-2.5,3.5-4.6,3.5C508.3,49.7,507.3,49.1,507.3,48z"/>
</g>
<rect x="520.6" y="51.7" width="10.5" height="0.8"/>
<rect x="522.4" y="50.4" width="0.5" height="17.2"/>
<g>
	<path d="M522.5,50.5c0-1.8,2.5-3.5,4.5-3.5c1.3,0,2.3,0.7,2.3,1.7c0,1.7-2.5,3.5-4.6,3.5C523.5,52.2,522.5,51.5,522.5,50.5z"/>
</g>
<rect x="535.8" y="51.7" width="10.5" height="0.8"/>
<rect x="537.6" y="52.9" width="0.5" height="15.2"/>
<g>
	<path d="M537.7,52.9c0-1.8,2.5-3.5,4.5-3.5c1.3,0,2.3,0.7,2.3,1.7c0,1.7-2.5,3.5-4.6,3.5C538.7,54.7,537.7,54,537.7,52.9z"/>
</g>
<rect x="65.7" y="126.5" width="0.5" height="14"/>
<g>
	<path d="M59.3,142.1c0-1.8,2.5-3.5,4.5-3.5c1.3,0,2.3,0.7,2.3,1.7c0,1.7-2.5,3.5-4.6,3.5C60.3,143.8,59.3,143.2,59.3,142.1z"/>
</g>
<rect x="83.4" y="128" width="0.5" height="14.9"/>
<g>
	<path d="M77,144.5c0-1.8,2.5-3.5,4.5-3.5c1.3,0,2.3,0.7,2.3,1.7c0,1.7-2.5,3.5-4.6,3.5C77.9,146.3,77,145.6,77,144.5z"/>
</g>
<rect x="101.1" y="129.7" width="0.5" height="15.7"/>
<g>
	<path d="M94.6,147c0-1.8,2.5-3.5,4.5-3.5c1.3,0,2.3,0.7,2.3,1.7c0,1.7-2.5,3.5-4.6,3.5C95.6,148.8,94.6,148.1,94.6,147z"/>
</g>
<rect x="118.8" y="131.4" width="0.5" height="16.4"/>
<g>
	<path d="M112.3,149.5c0-1.8,2.5-3.5,4.5-3.5c1.3,0,2.3,0.7,2.3,1.7c0,1.7-2.5,3.5-4.6,3.5C113.3,151.2,112.3,150.6,112.3,149.5z"/>
</g>
<rect x="136.4" y="126.5" width="0.5" height="18.9"/>
<g>
	<path d="M130,147c0-1.8,2.5-3.5,4.5-3.5c1.3,0,2.3,0.7,2.3,1.7c0,1.7-2.5,3.5-4.6,3.5C131,148.8,130,148.1,130,147z"/>
</g>
<rect x="154.1" y="124.9" width="0.5" height="18"/>
<g>
	<path d="M147.7,144.5c0-1.8,2.5-3.5,4.5-3.5c1.3,0,2.3,0.7,2.3,1.7c0,1.7-2.5,3.5-4.6,3.5C148.6,146.3,147.7,145.6,147.7,144.5z"/>
</g>
<rect x="171.8" y="123.2" width="0.5" height="17.2"/>
<g>
	<path d="M165.3,142.1c0-1.8,2.5-3.5,4.5-3.5c1.3,0,2.3,0.7,2.3,1.7c0,1.7-2.5,3.5-4.6,3.5C166.3,143.8,165.3,143.2,165.3,142.1z"/>
</g>
<rect x="189.4" y="121.5" width="0.5" height="16.4"/>
<g>
	<path d="M183,139.6c0-1.8,2.5-3.5,4.5-3.5c1.3,0,2.3,0.7,2.3,1.7c0,1.7-2.5,3.5-4.6,3.5C184,141.3,183,140.7,183,139.6z"/>
</g>
<rect x="200.6" y="137" width="0.5" height="15.2"/>
<g>
	<path d="M200.7,137.1c0-1.8,2.5-3.5,4.5-3.5c1.3,0,2.3,0.7,2.3,1.7c0,1.7-2.5,3.5-4.6,3.5C201.7,138.8,200.7,138.2,200.7,137.1z"/>
</g>
<rect x="218.4" y="134.5" width="0.5" height="17.4"/>
<g>
	<path d="M218.5,134.6c0-1.8,2.5-3.5,4.5-3.5c1.3,0,2.3,0.7,2.3,1.7c0,1.7-2.5,3.5-4.6,3.5C219.5,136.4,218.5,135.7,218.5,134.6z"/>
</g>
<g>
	<path d="M216.6,140.5v-4l-3,1.1V127h0.5v4l3-1.1v10.7H216.6z M214,135.9l2.5-0.9v-3.3l-2.5,0.9V135.9z"/>
</g>
<rect x="236.1" y="132.1" width="0.5" height="19.4"/>
<g>
	<path d="M236.2,132.1c0-1.8,2.5-3.5,4.5-3.5c1.3,0,2.3,0.7,2.3,1.7c0,1.7-2.5,3.5-4.6,3.5C237.1,133.9,236.2,133.2,236.2,132.1z"/>
</g>
<rect x="253.8" y="134.5" width="0.5" height="16.4"/>
<g>
	<path d="M253.8,134.6c0-1.8,2.5-3.5,4.5-3.5c1.3,0,2.3,0.7,2.3,1.7c0,1.7-2.5,3.5-4.6,3.5C254.8,136.4,253.8,135.7,253.8,134.6z"/>
</g>
<rect x="271.4" y="137" width="0.5" height="18.9"/>
<g>
	<path d="M271.5,137.1c0-1.8,2.5-3.5,4.5-3.5c1.3,0,2.3,0.7,2.3,1.7c0,1.7-2.5,3.5-4.6,3.5C272.5,138.8,271.5,138.2,271.5,137.1z"/>
</g>
<rect x="289.1" y="139.5" width="0.5" height="18"/>
<g>
	<path d="M289.2,139.6c0-1.8,2.5-3.5,4.5-3.5c1.3,0,2.3,0.7,2.3,1.7c0,1.7-2.5,3.5-4.6,3.5C290.2,141.3,289.2,140.7,289.2,139.6z"/>
</g>
<rect x="306.8" y="142" width="0.5" height="17.2"/>
<g>
	<path d="M306.9,142.1c0-1.8,2.5-3.5,4.5-3.5c1.3,0,2.3,0.7,2.3,1.7c0,1.7-2.5,3.5-4.6,3.5C307.8,143.8,306.9,143.2,306.9,142.1z"/>
</g>
<rect x="324.5" y="144.5" width="0.5" height="16.4"/>
<g>
	<path d="M324.5,144.5c0-1.8,2.5-3.5,4.5-3.5c1.3,0,2.3,0.7,2.3,1.7c0,1.7-2.5,3.5-4.6,3.5C325.5,146.3,324.5,145.6,324.5,144.5z"/>
</g>
<rect x="356.1" y="131.4" width="0.5" height="14"/>
<g>
	<path d="M349.6,147c0-1.8,2.5-3.5,4.5-3.5c1.3,0,2.3,0.7,2.3,1.7c0,1.7-2.5,3.5-4.6,3.5C350.6,148.8,349.6,148.1,349.6,147z"/>
</g>
<rect x="373.8" y="133" width="0.5" height="14.9"/>
<g>
	<path d="M367.3,149.5c0-1.8,2.5-3.5,4.5-3.5c1.3,0,2.3,0.7,2.3,1.7c0,1.7-2.5,3.5-4.6,3.5C368.3,151.2,367.3,150.6,367.3,149.5z"/>
</g>
<rect x="391.4" y="134.7" width="0.5" height="15.7"/>
<g>
	<path d="M385,152c0-1.8,2.5-3.5,4.5-3.5c1.3,0,2.3,0.7,2.3,1.7c0,1.7-2.5,3.5-4.6,3.5C386,153.7,385,153.1,385,152z"/>
</g>
<g>
	<path d="M383.1,157.9v-4l-3,1.1v-10.7h0.5v4l3-1.1v10.7H383.1z M380.5,153.2l2.5-0.9V149l-2.5,0.9V153.2z"/>
</g>
<rect x="409.1" y="136.4" width="0.5" height="16.4"/>
<g>
	<path d="M402.7,154.5c0-1.8,2.5-3.5,4.5-3.5c1.3,0,2.3,0.7,2.3,1.7c0,1.7-2.5,3.5-4.6,3.5C403.6,156.2,402.7,155.6,402.7,154.5z"/>
</g>
<rect x="418.5" y="155.7" width="10.5" height="0.8"/>
<rect x="426.8" y="140.1" width="0.5" height="15.2"/>
<g>
	<path d="M420.3,156.9c0-1.8,2.5-3.5,4.5-3.5c1.3,0,2.3,0.7,2.3,1.7c0,1.7-2.5,3.5-4.6,3.5C421.3,158.7,420.3,158,420.3,156.9z"/>
</g>
<rect x="436.1" y="155.7" width="10.5" height="0.8"/>
<rect x="444.4" y="140.4" width="0.5" height="17.4"/>
<g>
	<path d="M438,159.4c0-1.8,2.5-3.5,4.5-3.5c1.3,0,2.3,0.7,2.3,1.7c0,1.7-2.5,3.5-4.6,3.5C439,161.2,438,160.5,438,159.4z"/>
</g>
<rect x="453.8" y="155.7" width="10.5" height="0.8"/>
<rect x="453.8" y="160.7" width="10.5" height="0.8"/>
<rect x="462.1" y="140.9" width="0.5" height="19.4"/>
<g>
	<path d="M455.7,161.9c0-1.8,2.5-3.5,4.5-3.5c1.3,0,2.3,0.7,2.3,1.7c0,1.7-2.5,3.5-4.6,3.5C456.6,163.6,455.7,163,455.7,161.9z"/>
</g>
<rect x="471.5" y="155.7" width="10.5" height="0.8"/>
<rect x="471.5" y="160.7" width="10.5" height="0.8"/>
<rect x="479.8" y="141.4" width="0.5" height="21.4"/>
<g>
	<path d="M473.4,164.4c0-1.8,2.5-3.5,4.5-3.5c1.3,0,2.3,0.7,2.3,1.7c0,1.7-2.5,3.5-4.6,3.5C474.3,166.1,473.4,165.5,473.4,164.4z"/>
</g>
<rect x="489.2" y="155.7" width="10.7" height="0.8"/>
<rect x="489.2" y="160.7" width="10.7" height="0.8"/>
<rect x="489.2" y="165.6" width="10.7" height="0.8"/>
<rect x="497.6" y="141.2" width="0.5" height="24"/>
<g>
	<path d="M495.3,163.3c1.6,0,2.7,0.7,2.7,2c0,1.9-2.3,3.4-4.5,3.4c-1.3,0-2.4-0.7-2.4-1.8C491,165.1,493.3,163.3,495.3,163.3z
		 M491.5,167.2c0,0.6,0.4,0.9,1.1,0.9c1.4,0,4.9-2.1,4.9-3.3c0-0.6-0.4-0.9-1.1-0.9C495.1,163.9,491.5,165.9,491.5,167.2z"/>
</g>
<rect x="59.2" y="176.7" width="0.5" height="16.4"/>
<g>
	<path d="M59.3,176.8c0-1.8,2.5-3.5,4.5-3.5c1.3,0,2.3,0.7,2.3,1.7c0,1.7-2.5,3.5-4.6,3.5C60.3,178.5,59.3,177.9,59.3,176.8z"/>
</g>
<rect x="76.9" y="179.2" width="0.5" height="15.5"/>
<g>
	<path d="M77,179.3c0-1.8,2.5-3.5,4.5-3.5c1.3,0,2.3,0.7,2.3,1.7c0,1.7-2.5,3.5-4.6,3.5C77.9,181,77,180.4,77,179.3z"/>
</g>
<rect x="94.6" y="181.7" width="0.5" height="14.7"/>
<g>
	<path d="M94.6,181.7c0-1.8,2.5-3.5,4.5-3.5c1.3,0,2.3,0.7,2.3,1.7c0,1.7-2.5,3.5-4.6,3.5C95.6,183.5,94.6,182.8,94.6,181.7z"/>
</g>
<rect x="112.2" y="184.2" width="0.5" height="14"/>
<g>
	<path d="M112.3,184.2c0-1.8,2.5-3.5,4.5-3.5c1.3,0,2.3,0.7,2.3,1.7c0,1.7-2.5,3.5-4.6,3.5C113.3,186,112.3,185.3,112.3,184.2z"/>
</g>
<rect x="136.4" y="168.6" width="0.5" height="16.4"/>
<g>
	<path d="M130,186.7c0-1.8,2.5-3.5,4.5-3.5c1.3,0,2.3,0.7,2.3,1.7c0,1.7-2.5,3.5-4.6,3.5C131,188.4,130,187.8,130,186.7z"/>
</g>
<g>
	<path d="M128.1,192.6v-4l-3,1.1v-10.7h0.5v4l3-1.1v10.7H128.1z M125.5,188l2.5-0.9v-3.3l-2.5,0.9V188z"/>
</g>
<rect x="154.1" y="170.2" width="0.5" height="17.4"/>
<g>
	<path d="M147.7,189.2c0-1.8,2.5-3.5,4.5-3.5c1.3,0,2.3,0.7,2.3,1.7c0,1.7-2.5,3.5-4.6,3.5C148.6,190.9,147.7,190.3,147.7,189.2z"/>
</g>
<rect x="171.8" y="171.9" width="0.5" height="18.1"/>
<g>
	<path d="M165.3,191.7c0-1.8,2.5-3.5,4.5-3.5c1.3,0,2.3,0.7,2.3,1.7c0,1.7-2.5,3.5-4.6,3.5C166.3,193.4,165.3,192.8,165.3,191.7z"/>
</g>
<rect x="189.4" y="173.6" width="0.5" height="18.9"/>
<g>
	<path d="M183,194.1c0-1.8,2.5-3.5,4.5-3.5c1.3,0,2.3,0.7,2.3,1.7c0,1.7-2.5,3.5-4.6,3.5C184,195.9,183,195.2,183,194.1z"/>
</g>
<rect x="207.1" y="177.3" width="0.5" height="17.7"/>
<g>
	<path d="M200.7,196.6c0-1.8,2.5-3.5,4.5-3.5c1.3,0,2.3,0.7,2.3,1.7c0,1.7-2.5,3.5-4.6,3.5C201.7,198.4,200.7,197.7,200.7,196.6z"/>
</g>
<rect x="224.9" y="177.6" width="0.5" height="19.8"/>
<g>
	<path d="M218.5,199.1c0-1.8,2.5-3.5,4.5-3.5c1.3,0,2.3,0.7,2.3,1.7c0,1.7-2.5,3.5-4.6,3.5C219.5,200.8,218.5,200.2,218.5,199.1z"/>
</g>
<rect x="242.6" y="178.1" width="0.5" height="21.9"/>
<g>
	<path d="M236.2,201.6c0-1.8,2.5-3.5,4.5-3.5c1.3,0,2.3,0.7,2.3,1.7c0,1.7-2.5,3.5-4.6,3.5C237.1,203.3,236.2,202.7,236.2,201.6z"/>
</g>
<rect x="260.3" y="178.6" width="0.5" height="18.9"/>
<g>
	<path d="M253.8,199.1c0-1.8,2.5-3.5,4.5-3.5c1.3,0,2.3,0.7,2.3,1.7c0,1.7-2.5,3.5-4.6,3.5C254.8,200.8,253.8,200.2,253.8,199.1z"/>
</g>
<rect x="278" y="178.6" width="0.5" height="16.4"/>
<g>
	<path d="M271.5,196.6c0-1.8,2.5-3.5,4.5-3.5c1.3,0,2.3,0.7,2.3,1.7c0,1.7-2.5,3.5-4.6,3.5C272.5,198.4,271.5,197.7,271.5,196.6z"/>
</g>
<rect x="295.6" y="177" width="0.5" height="15.5"/>
<g>
	<path d="M289.2,194.1c0-1.8,2.5-3.5,4.5-3.5c1.3,0,2.3,0.7,2.3,1.7c0,1.7-2.5,3.5-4.6,3.5C290.2,195.9,289.2,195.2,289.2,194.1z"/>
</g>
<rect x="313.3" y="175.3" width="0.5" height="14.7"/>
<g>
	<path d="M306.9,191.7c0-1.8,2.5-3.5,4.5-3.5c1.3,0,2.3,0.7,2.3,1.7c0,1.7-2.5,3.5-4.6,3.5C307.8,193.4,306.9,192.8,306.9,191.7z"/>
</g>
<rect x="331" y="173.6" width="0.5" height="14"/>
<g>
	<path d="M324.5,189.2c0-1.8,2.5-3.5,4.5-3.5c1.3,0,2.3,0.7,2.3,1.7c0,1.7-2.5,3.5-4.6,3.5C325.5,190.9,324.5,190.3,324.5,189.2z"/>
</g>
<rect x="349.6" y="186.6" width="0.5" height="16.4"/>
<g>
	<path d="M349.6,186.7c0-1.8,2.5-3.5,4.5-3.5c1.3,0,2.3,0.7,2.3,1.7c0,1.7-2.5,3.5-4.6,3.5C350.6,188.4,349.6,187.8,349.6,186.7z"/>
</g>
<g>
	<path d="M347.7,192.6v-4l-3,1.1v-10.7h0.5v4l3-1.1v10.7H347.7z M345.2,188l2.5-0.9v-3.3l-2.5,0.9V188z"/>
</g>
<rect x="367.2" y="184.2" width="0.5" height="19.2"/>
<g>
	<path d="M367.3,184.2c0-1.8,2.5-3.5,4.5-3.5c1.3,0,2.3,0.7,2.3,1.7c0,1.7-2.5,3.5-4.6,3.5C368.3,186,367.3,185.3,367.3,184.2z"/>
</g>
<rect x="384.9" y="186.6" width="0.5" height="17.2"/>
<g>
	<path d="M385,186.7c0-1.8,2.5-3.5,4.5-3.5c1.3,0,2.3,0.7,2.3,1.7c0,1.7-2.5,3.5-4.6,3.5C386,188.4,385,187.8,385,186.7z"/>
</g>
<rect x="402.6" y="189.1" width="0.5" height="15.2"/>
<g>
	<path d="M402.7,189.2c0-1.8,2.5-3.5,4.5-3.5c1.3,0,2.3,0.7,2.3,1.7c0,1.7-2.5,3.5-4.6,3.5C403.6,190.9,402.7,190.3,402.7,189.2z"/>
</g>
<rect x="426.8" y="173.6" width="0.5" height="16.4"/>
<g>
	<path d="M420.3,191.7c0-1.8,2.5-3.5,4.5-3.5c1.3,0,2.3,0.7,2.3,1.7c0,1.7-2.5,3.5-4.6,3.5C421.3,193.4,420.3,192.8,420.3,191.7z"/>
</g>
<rect x="444.4" y="175.2" width="0.5" height="17.4"/>
<g>
	<path d="M438,194.1c0-1.8,2.5-3.5,4.5-3.5c1.3,0,2.3,0.7,2.3,1.7c0,1.7-2.5,3.5-4.6,3.5C439,195.9,438,195.2,438,194.1z"/>
</g>
<rect x="462.1" y="176.9" width="0.5" height="18.1"/>
<g>
	<path d="M455.7,196.6c0-1.8,2.5-3.5,4.5-3.5c1.3,0,2.3,0.7,2.3,1.7c0,1.7-2.5,3.5-4.6,3.5C456.6,198.4,455.7,197.7,455.7,196.6z"/>
</g>
<rect x="479.8" y="178.6" width="0.5" height="18.9"/>
<g>
	<path d="M473.4,199.1c0-1.8,2.5-3.5,4.5-3.5c1.3,0,2.3,0.7,2.3,1.7c0,1.7-2.5,3.5-4.6,3.5C474.3,200.8,473.4,200.2,473.4,199.1z"/>
</g>
<rect x="497.6" y="183.4" width="0.5" height="16.6"/>
<g>
	<path d="M495.3,198c1.6,0,2.7,0.7,2.7,2c0,1.9-2.3,3.4-4.5,3.4c-1.3,0-2.4-0.7-2.4-1.8C491,199.8,493.3,198,495.3,198z
		 M491.5,201.9c0,0.6,0.4,0.9,1.1,0.9c1.4,0,4.9-2.1,4.9-3.3c0-0.6-0.4-0.9-1.1-0.9C495.1,198.6,491.5,200.7,491.5,201.9z"/>
</g>
</svg>
