<?xml version="1.0" encoding="utf-8"?>

<!--
	ScaleBook
	Copyright (c) Leland Jansen 2015. All rights reserved.
-->

<!DOCTYPE svg PUBLIC "-//W3C//DTD SVG 1.1//EN" "http://www.w3.org/Graphics/SVG/1.1/DTD/svg11.dtd">
<svg version="1.1" id="Layer_1" xmlns="http://www.w3.org/2000/svg" xmlns:xlink="http://www.w3.org/1999/xlink" x="0px" y="0px"
	 viewBox="0 0 552.9 89.5" enable-background="new 0 0 552.9 89.5" xml:space="preserve">
<rect x="8.4" y="10" width="0.8" height="67"/>
<g>
	<path d="M7.4,10.7c-1.9,1.1-3.6,5.8-3.6,9.4c0,2.3,1.4,9.9,1.4,12.3c0,5-1.5,8.6-4.6,11.1c3,2.4,4.6,6.1,4.6,11.1
		c0,2.3-1.4,9.9-1.4,12.3c0,3.8,1.7,8.4,3.6,9.5V77c-3.5-2.3-5.8-8.2-5.8-13.1c0-2.1,1.7-9.4,1.7-11.5c0-3.8-1-6.6-2.9-8.2
		C0.1,43.9,0,43.7,0,43.5c0-0.2,0.1-0.4,0.5-0.7c1.9-1.7,2.9-4.2,2.9-7.6c0-2.1-1.7-10-1.7-12.2c0-5.2,2.1-10.4,5.8-13.1V10.7z"/>
</g>
<rect x="547.8" y="10" width="0.8" height="67"/>
<rect x="550.4" y="10" width="2.5" height="67"/>
<rect x="8.5" y="29.6" width="544.4" height="0.5"/>
<rect x="8.5" y="24.7" width="544.4" height="0.5"/>
<rect x="8.5" y="19.7" width="544.4" height="0.5"/>
<rect x="8.5" y="14.8" width="544.4" height="0.5"/>
<rect x="8.5" y="9.8" width="544.4" height="0.5"/>
<g>
	<path d="M20.3,29.7c-4.2,0-8.1-3.1-8.1-6.9c0-3.2,2.3-6.7,6.8-10.5c-0.3-1.2-0.4-2.4-0.4-3.6c0-3.5,1.2-6.8,3.2-8.5
		c1.8,2.5,2.7,4.9,2.7,7.1c0,2.9-1.3,5.6-4.3,8.1l0.9,4.2c0.5,0,0.8-0.1,0.8-0.1c2.6,0,4.8,2,4.8,4.7c0,1.9-1.4,3.7-3.6,4.8
		c0-0.1,0.9,3.8,0.9,4.3c0,2.5-2.3,4.2-4.9,4.2c-2,0-3.6-1.3-3.6-3.4c0-1.4,1-2.6,2.4-2.6c1.3,0,2.3,1.3,2.3,2.5
		c0,1.4-1.2,2.3-2.7,2.5c0.6,0.3,1.2,0.5,1.9,0.5c2.1,0,4.1-1.6,4.1-3.6c0-0.2,0-0.4-0.1-0.6l-0.8-3.7
		C21.9,29.6,21.2,29.7,20.3,29.7z M18.1,24.5c0,1,0.5,1.9,1.6,2.5c-1.8-0.3-3-1.4-3-3.1c0-2,1.7-3.7,3.8-4.1l-0.8-4
		C16,18.6,14,21.3,14,23.9c0,2.9,2.8,5.3,6,5.3c0.9,0,1.7-0.2,2.4-0.5L21,21.9C19.4,22.1,18.1,23.1,18.1,24.5z M22.1,3.2
		c-1.6,0-2.9,3.7-2.9,7c0,0.7,0,1.3,0.2,1.9c2.7-2.4,4-4.5,4-6.5c0-0.9-0.3-1.7-1-2.4C22.4,3.2,22.3,3.2,22.1,3.2z M24.9,25
		c0-1.6-1.2-3.3-2.9-3.3c-0.1,0-0.2,0-0.5,0l1.4,6.6C24.2,27.5,24.9,26.3,24.9,25z"/>
</g>
<g>
	<path d="M33.5,3.2v2.8l1-0.3v1.8l-1,0.3v3.4l1-0.3v1.8l-1,0.3v3.1H33v-3l-1.9,0.6v3h-0.5V14l-1,0.3v-1.8l1-0.3V8.8l-1,0.3V7.3
		l1-0.3V3.9h0.5v3L33,6.2v-3H33.5z M33,8l-1.9,0.6v3.4l1.9-0.6V8z"/>
</g>
<polygon fill-rule="evenodd" clip-rule="evenodd" points="49.8,26.2 96.2,21.2 96.2,18.7 49.8,23.7 "/>
<polygon fill-rule="evenodd" clip-rule="evenodd" points="49.8,22.4 96.2,17.5 96.2,15 49.8,20 "/>
<polygon fill-rule="evenodd" clip-rule="evenodd" points="111.7,16.2 158,11.3 158,8.8 111.7,13.8 "/>
<polygon fill-rule="evenodd" clip-rule="evenodd" points="111.7,12.5 158,7.6 158,5.1 111.7,10 "/>
<polygon fill-rule="evenodd" clip-rule="evenodd" points="177.9,31.1 224.2,26.2 224.2,23.7 177.9,28.6 "/>
<polygon fill-rule="evenodd" clip-rule="evenodd" points="177.9,34.8 224.2,29.9 224.2,27.4 177.9,32.4 "/>
<polygon fill-rule="evenodd" clip-rule="evenodd" points="239.7,22.4 286.1,21.2 286.1,18.7 239.7,20 "/>
<polygon fill-rule="evenodd" clip-rule="evenodd" points="239.7,26.2 286.1,24.9 286.1,22.4 239.7,23.7 "/>
<polygon fill-rule="evenodd" clip-rule="evenodd" points="301.6,21.2 347.9,26.2 347.9,23.7 301.6,18.7 "/>
<polygon fill-rule="evenodd" clip-rule="evenodd" points="301.6,24.9 347.9,29.9 347.9,27.4 301.6,22.4 "/>
<polygon fill-rule="evenodd" clip-rule="evenodd" points="380.8,6.3 427.3,11.3 427.3,8.8 380.8,3.8 "/>
<polygon fill-rule="evenodd" clip-rule="evenodd" points="380.8,2.6 427.3,7.6 427.3,5.1 380.8,0.1 "/>
<polygon fill-rule="evenodd" clip-rule="evenodd" points="442.7,16.2 489.2,21.2 489.2,18.7 442.7,13.8 "/>
<polygon fill-rule="evenodd" clip-rule="evenodd" points="442.7,12.5 489.2,17.5 489.2,15 442.7,10 "/>
<rect x="8.5" y="76.8" width="544.4" height="0.5"/>
<rect x="8.5" y="71.8" width="544.4" height="0.5"/>
<rect x="8.5" y="66.9" width="544.4" height="0.5"/>
<rect x="8.5" y="61.9" width="544.4" height="0.5"/>
<rect x="8.5" y="56.9" width="544.4" height="0.5"/>
<g>
	<path d="M15.7,71.3c2.9-2.6,4.7-6.1,4.7-9.2c0-2.5-1.4-4.4-3.7-4.4c-1.6,0-3.4,1.3-3.4,2.7c0,0.2,0,0.3,0.1,0.3
		c-0.1,0,0.6-0.6,1.4-0.6c0.9,0,1.5,0.8,1.5,1.7c0,1.2-0.9,2.2-2.1,2.2c-1.2,0-2.1-1.3-2.1-2.8c0-2.3,2.3-4.1,4.8-4.1
		c4.7,0,5.9,3.2,5.9,5.8c0,1.6-0.4,2.9-2,5.3c-1.9,3.1-6.4,5.3-8.1,5.3c-0.4,0-0.6-0.2-0.6-0.5C13.8,72.6,14.9,72,15.7,71.3z
		 M25.7,58.7c0.6,0,1,0.4,1,1c0,0.6-0.4,1-1,1s-1-0.4-1-1C24.7,59.1,25.1,58.7,25.7,58.7z M25.7,63.6c0.6,0,1,0.4,1,1
		c0,0.6-0.4,1-1,1s-1-0.4-1-1C24.7,64,25.1,63.6,25.7,63.6z"/>
</g>
<g>
	<path d="M33.5,55.3v2.8l1-0.3v1.8l-1,0.3v3.4l1-0.3v1.8l-1,0.3v3.1H33v-3L31.1,66v3h-0.5v-2.8l-1,0.3v-1.8l1-0.3v-3.4l-1,0.3v-1.8
		l1-0.3v-3.1h0.5v3l1.9-0.6v-3H33.5z M33,60.1l-1.9,0.6v3.4l1.9-0.6V60.1z"/>
</g>
<polygon fill-rule="evenodd" clip-rule="evenodd" points="49.8,63.4 96.2,58.4 96.2,55.9 49.8,60.9 "/>
<polygon fill-rule="evenodd" clip-rule="evenodd" points="49.8,59.6 96.2,54.7 96.2,52.2 49.8,57.2 "/>
<g>
	<path d="M169.9,75.6c-3.2,0-6.1-2.3-6.1-5.1c0-2.4,1.7-5,5.1-7.9c-0.2-0.9-0.3-1.8-0.3-2.7c0-2.6,0.9-5.1,2.4-6.3
		c1.4,1.9,2,3.7,2,5.3c0,2.2-1,4.2-3.2,6.1l0.7,3.1c0.4,0,0.6,0,0.6,0c2,0,3.6,1.5,3.6,3.5c0,1.4-1.1,2.8-2.7,3.6
		c0-0.1,0.6,2.8,0.6,3.3c0,1.9-1.7,3.2-3.7,3.2c-1.5,0-2.7-1-2.7-2.5c0-1.1,0.7-1.9,1.8-1.9c1,0,1.7,1,1.7,1.9c0,1-0.9,1.7-2,1.8
		c0.4,0.2,0.9,0.3,1.4,0.3c1.6,0,3.1-1.2,3.1-2.7c0-0.1,0-0.3,0-0.5l-0.6-2.8C171.1,75.5,170.6,75.6,169.9,75.6z M168.2,71.7
		c0,0.8,0.4,1.4,1.2,1.9c-1.3-0.2-2.2-1.1-2.2-2.3c0-1.5,1.3-2.8,2.9-3.1l-0.6-3c-2.8,2.1-4.3,4.1-4.3,6.1c0,2.2,2.1,4,4.5,4
		c0.7,0,1.3-0.1,1.8-0.4l-1.1-5.1C169.2,69.9,168.2,70.7,168.2,71.7z M171.3,55.7c-1.2,0-2.2,2.8-2.2,5.3c0,0.5,0,1,0.1,1.4
		c2-1.8,3-3.4,3-4.9c0-0.7-0.3-1.3-0.7-1.8C171.4,55.7,171.4,55.7,171.3,55.7z M173.3,72.1c0-1.2-0.9-2.4-2.2-2.4c0,0-0.2,0-0.4,0
		l1.1,5C172.8,74,173.3,73.1,173.3,72.1z"/>
</g>
<polygon fill-rule="evenodd" clip-rule="evenodd" points="105.2,78.2 151.5,73.3 151.5,70.8 105.2,75.8 "/>
<polygon fill-rule="evenodd" clip-rule="evenodd" points="105.2,82 151.5,77 151.5,74.5 105.2,79.5 "/>
<polygon fill-rule="evenodd" clip-rule="evenodd" points="184.4,73.3 230.8,68.3 230.8,65.8 184.4,70.8 "/>
<polygon fill-rule="evenodd" clip-rule="evenodd" points="184.4,69.6 230.8,64.6 230.8,62.1 184.4,67.1 "/>
<rect x="246.3" y="59.6" fill-rule="evenodd" clip-rule="evenodd" width="46.3" height="2.5"/>
<rect x="246.3" y="55.9" fill-rule="evenodd" clip-rule="evenodd" width="46.3" height="2.5"/>
<g>
	<path d="M364.7,69c2.2-2,3.6-4.6,3.6-6.9c0-1.9-1.1-3.3-2.8-3.3c-1.2,0-2.5,1-2.5,2.1c0,0.2,0,0.2,0.1,0.2c0,0,0.4-0.5,1-0.5
		c0.7,0,1.2,0.6,1.2,1.3c0,0.9-0.6,1.7-1.6,1.7s-1.5-1-1.5-2.1c0-1.8,1.7-3.1,3.6-3.1c3.5,0,4.4,2.4,4.4,4.4c0,1.2-0.3,2.2-1.5,4
		c-1.4,2.3-4.8,4-6,4c-0.3,0-0.5-0.1-0.5-0.3C363.3,70,364.1,69.6,364.7,69z M372.2,59.5c0.4,0,0.7,0.3,0.7,0.7
		c0,0.4-0.3,0.7-0.7,0.7c-0.4,0-0.7-0.3-0.7-0.7C371.4,59.8,371.7,59.5,372.2,59.5z M372.2,63.2c0.4,0,0.7,0.3,0.7,0.7
		s-0.3,0.7-0.7,0.7c-0.4,0-0.7-0.3-0.7-0.7S371.7,63.2,372.2,63.2z"/>
</g>
<polygon fill-rule="evenodd" clip-rule="evenodd" points="308.1,68.3 354.5,73.3 354.5,70.8 308.1,65.8 "/>
<polygon fill-rule="evenodd" clip-rule="evenodd" points="308.1,64.6 354.5,69.6 354.5,67.1 308.1,62.1 "/>
<polygon fill-rule="evenodd" clip-rule="evenodd" points="374.3,73.3 420.8,78.2 420.8,75.8 374.3,70.8 "/>
<polygon fill-rule="evenodd" clip-rule="evenodd" points="374.3,77 420.8,82 420.8,79.5 374.3,74.5 "/>
<polygon fill-rule="evenodd" clip-rule="evenodd" points="442.7,58.4 489.2,63.4 489.2,60.9 442.7,55.9 "/>
<polygon fill-rule="evenodd" clip-rule="evenodd" points="442.7,54.7 489.2,59.6 489.2,57.2 442.7,52.2 "/>
<rect x="41.3" y="34.5" width="10.5" height="0.8"/>
<rect x="49.6" y="20.1" width="0.5" height="16.4"/>
<g>
	<path d="M43.2,38.2c0-1.8,2.5-3.5,4.5-3.5c1.3,0,2.3,0.7,2.3,1.7c0,1.7-2.5,3.5-4.6,3.5C44.2,39.9,43.2,39.3,43.2,38.2z"/>
</g>
<rect x="56.8" y="34.5" width="10.5" height="0.8"/>
<rect x="65.1" y="18.6" width="0.5" height="15.5"/>
<g>
	<path d="M58.7,35.7c0-1.8,2.5-3.5,4.5-3.5c1.3,0,2.3,0.7,2.3,1.7c0,1.7-2.5,3.5-4.6,3.5C59.7,37.4,58.7,36.8,58.7,35.7z"/>
</g>
<rect x="80.5" y="16.9" width="0.5" height="14.7"/>
<g>
	<path d="M74,33.2c0-1.8,2.5-3.5,4.5-3.5c1.3,0,2.3,0.7,2.3,1.7c0,1.7-2.5,3.5-4.6,3.5C75,34.9,74,34.3,74,33.2z"/>
</g>
<rect x="96" y="15.2" width="0.5" height="14"/>
<g>
	<path d="M89.5,30.7c0-1.8,2.5-3.5,4.5-3.5c1.3,0,2.3,0.7,2.3,1.7c0,1.7-2.5,3.5-4.6,3.5C90.5,32.5,89.5,31.8,89.5,30.7z"/>
</g>
<rect x="111.5" y="10.2" width="0.5" height="16.4"/>
<g>
	<path d="M105,28.3c0-1.8,2.5-3.5,4.5-3.5c1.3,0,2.3,0.7,2.3,1.7c0,1.7-2.5,3.5-4.6,3.5C106,30,105,29.3,105,28.3z"/>
</g>
<rect x="127" y="8.6" width="0.5" height="15.5"/>
<g>
	<path d="M120.5,25.8c0-1.8,2.5-3.5,4.5-3.5c1.3,0,2.3,0.7,2.3,1.7c0,1.7-2.5,3.5-4.6,3.5C121.5,27.5,120.5,26.9,120.5,25.8z"/>
</g>
<rect x="142.3" y="6.9" width="0.5" height="14.7"/>
<g>
	<path d="M135.9,23.3c0-1.8,2.5-3.5,4.5-3.5c1.3,0,2.3,0.7,2.3,1.7c0,1.7-2.5,3.5-4.6,3.5C136.9,25,135.9,24.4,135.9,23.3z"/>
</g>
<rect x="157.8" y="5.2" width="0.5" height="14"/>
<g>
	<path d="M151.4,20.8c0-1.8,2.5-3.5,4.5-3.5c1.3,0,2.3,0.7,2.3,1.7c0,1.7-2.5,3.5-4.6,3.5C152.4,22.5,151.4,21.9,151.4,20.8z"/>
</g>
<rect x="177.7" y="18.3" width="0.5" height="16.4"/>
<g>
	<path d="M177.7,18.3c0-1.8,2.5-3.5,4.5-3.5c1.3,0,2.3,0.7,2.3,1.7c0,1.7-2.5,3.5-4.6,3.5C178.7,20.1,177.7,19.4,177.7,18.3z"/>
</g>
<rect x="193.2" y="15.8" width="0.5" height="17.4"/>
<g>
	<path d="M193.2,15.9c0-1.8,2.5-3.5,4.5-3.5c1.3,0,2.3,0.7,2.3,1.7c0,1.7-2.5,3.5-4.6,3.5C194.2,17.6,193.2,16.9,193.2,15.9z"/>
</g>
<rect x="208.7" y="13.3" width="0.5" height="18.1"/>
<g>
	<path d="M208.7,13.4c0-1.8,2.5-3.5,4.5-3.5c1.3,0,2.3,0.7,2.3,1.7c0,1.7-2.5,3.5-4.6,3.5C209.7,15.1,208.7,14.5,208.7,13.4z"/>
</g>
<rect x="224" y="10.8" width="0.5" height="18.9"/>
<g>
	<path d="M224.1,10.9c0-1.8,2.5-3.5,4.5-3.5c1.3,0,2.3,0.7,2.3,1.7c0,1.7-2.5,3.5-4.6,3.5C225.1,12.6,224.1,12,224.1,10.9z"/>
</g>
<rect x="239.5" y="8.3" width="0.5" height="17.7"/>
<g>
	<path d="M239.6,8.4c0-1.8,2.5-3.5,4.5-3.5c1.3,0,2.3,0.7,2.3,1.7c0,1.7-2.5,3.5-4.6,3.5C240.6,10.1,239.6,9.5,239.6,8.4z"/>
</g>
<rect x="253.2" y="4.7" width="10.5" height="0.8"/>
<rect x="255" y="5.9" width="0.5" height="19.8"/>
<g>
	<path d="M255.1,5.9c0-1.8,2.5-3.5,4.5-3.5c1.3,0,2.3,0.7,2.3,1.7c0,1.7-2.5,3.5-4.6,3.5C256.1,7.7,255.1,7,255.1,5.9z"/>
</g>
<rect x="268.7" y="4.7" width="10.5" height="0.8"/>
<rect x="270.5" y="3.4" width="0.5" height="21.9"/>
<g>
	<path d="M270.6,3.5c0-1.8,2.5-3.5,4.5-3.5c1.3,0,2.3,0.7,2.3,1.7c0,1.7-2.5,3.5-4.6,3.5C271.6,5.2,270.6,4.5,270.6,3.5z"/>
</g>
<rect x="284.1" y="4.7" width="10.5" height="0.8"/>
<rect x="285.9" y="5.9" width="0.5" height="18.9"/>
<g>
	<path d="M285.9,5.9c0-1.8,2.5-3.5,4.5-3.5c1.3,0,2.3,0.7,2.3,1.7c0,1.7-2.5,3.5-4.6,3.5C286.9,7.7,285.9,7,285.9,5.9z"/>
</g>
<rect x="301.4" y="8.3" width="0.5" height="16.4"/>
<g>
	<path d="M301.4,8.4c0-1.8,2.5-3.5,4.5-3.5c1.3,0,2.3,0.7,2.3,1.7c0,1.7-2.5,3.5-4.6,3.5C302.4,10.1,301.4,9.5,301.4,8.4z"/>
</g>
<rect x="316.9" y="10.8" width="0.5" height="15.5"/>
<g>
	<path d="M316.9,10.9c0-1.8,2.5-3.5,4.5-3.5c1.3,0,2.3,0.7,2.3,1.7c0,1.7-2.5,3.5-4.6,3.5C317.9,12.6,316.9,12,316.9,10.9z"/>
</g>
<rect x="332.4" y="13.3" width="0.5" height="14.7"/>
<g>
	<path d="M332.4,13.4c0-1.8,2.5-3.5,4.5-3.5c1.3,0,2.3,0.7,2.3,1.7c0,1.7-2.5,3.5-4.6,3.5C333.4,15.1,332.4,14.5,332.4,13.4z"/>
</g>
<rect x="347.7" y="15.8" width="0.5" height="14"/>
<g>
	<path d="M347.8,15.9c0-1.8,2.5-3.5,4.5-3.5c1.3,0,2.3,0.7,2.3,1.7c0,1.7-2.5,3.5-4.6,3.5C348.8,17.6,347.8,16.9,347.8,15.9z"/>
</g>
<rect x="380.6" y="0.3" width="0.5" height="16.4"/>
<g>
	<path d="M374.1,18.3c0-1.8,2.5-3.5,4.5-3.5c1.3,0,2.3,0.7,2.3,1.7c0,1.7-2.5,3.5-4.6,3.5C375.1,20.1,374.1,19.4,374.1,18.3z"/>
</g>
<rect x="396.1" y="1.8" width="0.5" height="17.4"/>
<g>
	<path d="M389.6,20.8c0-1.8,2.5-3.5,4.5-3.5c1.3,0,2.3,0.7,2.3,1.7c0,1.7-2.5,3.5-4.6,3.5C390.6,22.5,389.6,21.9,389.6,20.8z"/>
</g>
<rect x="411.6" y="3.5" width="0.5" height="18.1"/>
<g>
	<path d="M405.1,23.3c0-1.8,2.5-3.5,4.5-3.5c1.3,0,2.3,0.7,2.3,1.7c0,1.7-2.5,3.5-4.6,3.5C406.1,25,405.1,24.4,405.1,23.3z"/>
</g>
<rect x="427.1" y="5.2" width="0.5" height="18.9"/>
<g>
	<path d="M420.6,25.8c0-1.8,2.5-3.5,4.5-3.5c1.3,0,2.3,0.7,2.3,1.7c0,1.7-2.5,3.5-4.6,3.5C421.6,27.5,420.6,26.9,420.6,25.8z"/>
</g>
<rect x="442.4" y="10.2" width="0.5" height="16.4"/>
<g>
	<path d="M436,28.3c0-1.8,2.5-3.5,4.5-3.5c1.3,0,2.3,0.7,2.3,1.7c0,1.7-2.5,3.5-4.6,3.5C437,30,436,29.3,436,28.3z"/>
</g>
<rect x="457.9" y="11.7" width="0.5" height="17.4"/>
<g>
	<path d="M451.5,30.7c0-1.8,2.5-3.5,4.5-3.5c1.3,0,2.3,0.7,2.3,1.7c0,1.7-2.5,3.5-4.6,3.5C452.5,32.5,451.5,31.8,451.5,30.7z"/>
</g>
<rect x="473.4" y="13.4" width="0.5" height="18.1"/>
<g>
	<path d="M467,33.2c0-1.8,2.5-3.5,4.5-3.5c1.3,0,2.3,0.7,2.3,1.7c0,1.7-2.5,3.5-4.6,3.5C468,34.9,467,34.3,467,33.2z"/>
</g>
<rect x="480.6" y="34.5" width="10.5" height="0.8"/>
<rect x="488.9" y="15.2" width="0.5" height="18.9"/>
<g>
	<path d="M482.5,35.7c0-1.8,2.5-3.5,4.5-3.5c1.3,0,2.3,0.7,2.3,1.7c0,1.7-2.5,3.5-4.6,3.5C483.5,37.4,482.5,36.8,482.5,35.7z"/>
</g>
<rect x="496" y="34.5" width="10.7" height="0.8"/>
<rect x="504.4" y="20" width="0.5" height="16.6"/>
<g>
	<path d="M502.1,34.6c1.6,0,2.7,0.7,2.7,2c0,1.9-2.3,3.4-4.5,3.4c-1.3,0-2.4-0.7-2.4-1.8C497.8,36.4,500.1,34.6,502.1,34.6z
		 M498.3,38.5c0,0.6,0.4,0.9,1.1,0.9c1.4,0,4.9-2.1,4.9-3.3c0-0.6-0.4-0.9-1.1-0.9C502,35.2,498.3,37.2,498.3,38.5z"/>
</g>
<rect x="49.6" y="57.3" width="0.5" height="18.9"/>
<g>
	<path d="M43.2,77.9c0-1.8,2.5-3.5,4.5-3.5c1.3,0,2.3,0.7,2.3,1.7c0,1.7-2.5,3.5-4.6,3.5C44.2,79.6,43.2,78.9,43.2,77.9z"/>
</g>
<rect x="65.1" y="55.8" width="0.5" height="18"/>
<g>
	<path d="M58.7,75.4c0-1.8,2.5-3.5,4.5-3.5c1.3,0,2.3,0.7,2.3,1.7c0,1.7-2.5,3.5-4.6,3.5C59.7,77.1,58.7,76.5,58.7,75.4z"/>
</g>
<rect x="80.5" y="54.1" width="0.5" height="17.2"/>
<g>
	<path d="M74,72.9c0-1.8,2.5-3.5,4.5-3.5c1.3,0,2.3,0.7,2.3,1.7c0,1.7-2.5,3.5-4.6,3.5C75,74.6,74,74,74,72.9z"/>
</g>
<rect x="96" y="52.4" width="0.5" height="16.4"/>
<g>
	<path d="M89.5,70.4c0-1.8,2.5-3.5,4.5-3.5c1.3,0,2.3,0.7,2.3,1.7c0,1.7-2.5,3.5-4.6,3.5C90.5,72.1,89.5,71.5,89.5,70.4z"/>
</g>
<rect x="105" y="67.9" width="0.5" height="14"/>
<g>
	<path d="M105,67.9c0-1.8,2.5-3.5,4.5-3.5c1.3,0,2.3,0.7,2.3,1.7c0,1.7-2.5,3.5-4.6,3.5C106,69.7,105,69,105,67.9z"/>
</g>
<rect x="120.5" y="65.4" width="0.5" height="14.9"/>
<g>
	<path d="M120.5,65.5c0-1.8,2.5-3.5,4.5-3.5c1.3,0,2.3,0.7,2.3,1.7c0,1.7-2.5,3.5-4.6,3.5C121.5,67.2,120.5,66.5,120.5,65.5z"/>
</g>
<rect x="135.8" y="62.9" width="0.5" height="15.7"/>
<g>
	<path d="M135.9,63c0-1.8,2.5-3.5,4.5-3.5c1.3,0,2.3,0.7,2.3,1.7c0,1.7-2.5,3.5-4.6,3.5C136.9,64.7,135.9,64.1,135.9,63z"/>
</g>
<rect x="151.3" y="60.4" width="0.5" height="16.4"/>
<g>
	<path d="M151.4,60.5c0-1.8,2.5-3.5,4.5-3.5c1.3,0,2.3,0.7,2.3,1.7c0,1.7-2.5,3.5-4.6,3.5C152.4,62.2,151.4,61.6,151.4,60.5z"/>
</g>
<rect x="175.9" y="81.6" width="10.5" height="0.8"/>
<rect x="175.9" y="86.5" width="10.5" height="0.8"/>
<rect x="184.2" y="67.2" width="0.5" height="18.9"/>
<g>
	<path d="M177.7,87.8c0-1.8,2.5-3.5,4.5-3.5c1.3,0,2.3,0.7,2.3,1.7c0,1.7-2.5,3.5-4.6,3.5C178.7,89.5,177.7,88.9,177.7,87.8z"/>
</g>
<rect x="191.4" y="81.6" width="10.5" height="0.8"/>
<rect x="199.7" y="65.7" width="0.5" height="18"/>
<g>
	<path d="M193.2,85.3c0-1.8,2.5-3.5,4.5-3.5c1.3,0,2.3,0.7,2.3,1.7c0,1.7-2.5,3.5-4.6,3.5C194.2,87,193.2,86.4,193.2,85.3z"/>
</g>
<rect x="206.9" y="81.6" width="10.5" height="0.8"/>
<rect x="215.2" y="64" width="0.5" height="17.2"/>
<g>
	<path d="M208.7,82.8c0-1.8,2.5-3.5,4.5-3.5c1.3,0,2.3,0.7,2.3,1.7c0,1.7-2.5,3.5-4.6,3.5C209.7,84.5,208.7,83.9,208.7,82.8z"/>
</g>
<rect x="230.5" y="62.3" width="0.5" height="16.4"/>
<g>
	<path d="M224.1,80.3c0-1.8,2.5-3.5,4.5-3.5c1.3,0,2.3,0.7,2.3,1.7c0,1.7-2.5,3.5-4.6,3.5C225.1,82.1,224.1,81.4,224.1,80.3z"/>
</g>
<rect x="246" y="56.1" width="0.5" height="20.2"/>
<g>
	<path d="M239.6,77.9c0-1.8,2.5-3.5,4.5-3.5c1.3,0,2.3,0.7,2.3,1.7c0,1.7-2.5,3.5-4.6,3.5C240.6,79.6,239.6,78.9,239.6,77.9z"/>
</g>
<rect x="261.5" y="56.1" width="0.5" height="17.7"/>
<g>
	<path d="M255.1,75.4c0-1.8,2.5-3.5,4.5-3.5c1.3,0,2.3,0.7,2.3,1.7c0,1.7-2.5,3.5-4.6,3.5C256.1,77.1,255.1,76.5,255.1,75.4z"/>
</g>
<rect x="277" y="56.1" width="0.5" height="15.2"/>
<g>
	<path d="M270.6,72.9c0-1.8,2.5-3.5,4.5-3.5c1.3,0,2.3,0.7,2.3,1.7c0,1.7-2.5,3.5-4.6,3.5C271.6,74.6,270.6,74,270.6,72.9z"/>
</g>
<rect x="292.4" y="56.1" width="0.5" height="17.7"/>
<g>
	<path d="M285.9,75.4c0-1.8,2.5-3.5,4.5-3.5c1.3,0,2.3,0.7,2.3,1.7c0,1.7-2.5,3.5-4.6,3.5C286.9,77.1,285.9,76.5,285.9,75.4z"/>
</g>
<rect x="307.9" y="62.3" width="0.5" height="14"/>
<g>
	<path d="M301.4,77.9c0-1.8,2.5-3.5,4.5-3.5c1.3,0,2.3,0.7,2.3,1.7c0,1.7-2.5,3.5-4.6,3.5C302.4,79.6,301.4,78.9,301.4,77.9z"/>
</g>
<rect x="323.4" y="63.8" width="0.5" height="14.9"/>
<g>
	<path d="M316.9,80.3c0-1.8,2.5-3.5,4.5-3.5c1.3,0,2.3,0.7,2.3,1.7c0,1.7-2.5,3.5-4.6,3.5C317.9,82.1,316.9,81.4,316.9,80.3z"/>
</g>
<rect x="330.6" y="81.6" width="10.5" height="0.8"/>
<rect x="338.9" y="65.5" width="0.5" height="15.7"/>
<g>
	<path d="M332.4,82.8c0-1.8,2.5-3.5,4.5-3.5c1.3,0,2.3,0.7,2.3,1.7c0,1.7-2.5,3.5-4.6,3.5C333.4,84.5,332.4,83.9,332.4,82.8z"/>
</g>
<rect x="345.9" y="81.6" width="10.5" height="0.8"/>
<rect x="354.2" y="67.2" width="0.5" height="16.4"/>
<g>
	<path d="M347.8,85.3c0-1.8,2.5-3.5,4.5-3.5c1.3,0,2.3,0.7,2.3,1.7c0,1.7-2.5,3.5-4.6,3.5C348.8,87,347.8,86.4,347.8,85.3z"/>
</g>
<rect x="374.1" y="57.9" width="0.5" height="18.9"/>
<g>
	<path d="M374.1,58c0-1.8,2.5-3.5,4.5-3.5c1.3,0,2.3,0.7,2.3,1.7c0,1.7-2.5,3.5-4.6,3.5C375.1,59.7,374.1,59.1,374.1,58z"/>
</g>
<rect x="389.6" y="60.4" width="0.5" height="18"/>
<g>
	<path d="M389.6,60.5c0-1.8,2.5-3.5,4.5-3.5c1.3,0,2.3,0.7,2.3,1.7c0,1.7-2.5,3.5-4.6,3.5C390.6,62.2,389.6,61.6,389.6,60.5z"/>
</g>
<rect x="405.1" y="62.9" width="0.5" height="17.2"/>
<g>
	<path d="M405.1,63c0-1.8,2.5-3.5,4.5-3.5c1.3,0,2.3,0.7,2.3,1.7c0,1.7-2.5,3.5-4.6,3.5C406.1,64.7,405.1,64.1,405.1,63z"/>
</g>
<rect x="420.6" y="65.4" width="0.5" height="16.4"/>
<g>
	<path d="M420.6,65.5c0-1.8,2.5-3.5,4.5-3.5c1.3,0,2.3,0.7,2.3,1.7c0,1.7-2.5,3.5-4.6,3.5C421.6,67.2,420.6,66.5,420.6,65.5z"/>
</g>
<rect x="442.4" y="52.4" width="0.5" height="14"/>
<g>
	<path d="M436,67.9c0-1.8,2.5-3.5,4.5-3.5c1.3,0,2.3,0.7,2.3,1.7c0,1.7-2.5,3.5-4.6,3.5C437,69.7,436,69,436,67.9z"/>
</g>
<rect x="457.9" y="53.9" width="0.5" height="14.9"/>
<g>
	<path d="M451.5,70.4c0-1.8,2.5-3.5,4.5-3.5c1.3,0,2.3,0.7,2.3,1.7c0,1.7-2.5,3.5-4.6,3.5C452.5,72.1,451.5,71.5,451.5,70.4z"/>
</g>
<rect x="473.4" y="55.6" width="0.5" height="15.7"/>
<g>
	<path d="M467,72.9c0-1.8,2.5-3.5,4.5-3.5c1.3,0,2.3,0.7,2.3,1.7c0,1.7-2.5,3.5-4.6,3.5C468,74.6,467,74,467,72.9z"/>
</g>
<rect x="488.9" y="57.3" width="0.5" height="16.4"/>
<g>
	<path d="M482.5,75.4c0-1.8,2.5-3.5,4.5-3.5c1.3,0,2.3,0.7,2.3,1.7c0,1.7-2.5,3.5-4.6,3.5C483.5,77.1,482.5,76.5,482.5,75.4z"/>
</g>
<rect x="504.4" y="59.6" width="0.5" height="16.6"/>
<g>
	<path d="M502.1,74.3c1.6,0,2.7,0.7,2.7,2c0,1.9-2.3,3.4-4.5,3.4c-1.3,0-2.4-0.7-2.4-1.8C497.8,76.1,500.1,74.3,502.1,74.3z
		 M498.3,78.2c0,0.6,0.4,0.9,1.1,0.9c1.4,0,4.9-2.1,4.9-3.3c0-0.6-0.4-0.9-1.1-0.9C502,74.9,498.3,76.9,498.3,78.2z"/>
</g>
</svg>
