<?xml version="1.0" encoding="utf-8"?>

<!--
	ScaleBook
	Copyright (c) Leland Jansen 2015. All rights reserved.
-->

<!DOCTYPE svg PUBLIC "-//W3C//DTD SVG 1.1//EN" "http://www.w3.org/Graphics/SVG/1.1/DTD/svg11.dtd">
<svg version="1.1" id="Layer_1" xmlns="http://www.w3.org/2000/svg" xmlns:xlink="http://www.w3.org/1999/xlink" x="0px" y="0px"
	 viewBox="0 0 552.9 84.1" enable-background="new 0 0 552.9 84.1" xml:space="preserve">
<rect x="8.4" y="9.7" width="0.8" height="67"/>
<g>
	<path d="M7.4,10.4c-1.9,1.1-3.6,5.8-3.6,9.4c0,2.3,1.4,9.9,1.4,12.3c0,5-1.5,8.6-4.6,11.1c3,2.4,4.6,6.1,4.6,11
		c0,2.3-1.4,9.9-1.4,12.3c0,3.8,1.7,8.4,3.6,9.5v0.7c-3.5-2.3-5.8-8.2-5.8-13.1c0-2.1,1.7-9.4,1.7-11.5c0-3.8-1-6.6-2.9-8.2
		C0.1,43.6,0,43.4,0,43.2s0.1-0.4,0.5-0.7c1.9-1.7,2.9-4.2,2.9-7.6c0-2.1-1.7-10-1.7-12.2c0-5.2,2.1-10.4,5.8-13.1V10.4z"/>
</g>
<rect x="547.8" y="9.7" width="0.8" height="67"/>
<rect x="550.4" y="9.7" width="2.5" height="67"/>
<rect x="8.5" y="29.3" width="544.4" height="0.5"/>
<rect x="8.5" y="24.4" width="544.4" height="0.5"/>
<rect x="8.5" y="19.4" width="544.4" height="0.5"/>
<rect x="8.5" y="14.4" width="544.4" height="0.5"/>
<rect x="8.5" y="9.5" width="544.4" height="0.5"/>
<g>
	<path d="M20.3,29.4c-4.2,0-8.1-3.1-8.1-6.9c0-3.2,2.3-6.7,6.8-10.5c-0.3-1.2-0.4-2.4-0.4-3.6c0-3.5,1.2-6.8,3.2-8.5
		c1.8,2.5,2.7,4.9,2.7,7.1c0,2.9-1.3,5.6-4.3,8.1l0.9,4.2c0.5,0,0.8-0.1,0.8-0.1c2.6,0,4.8,2,4.8,4.7c0,1.9-1.4,3.7-3.6,4.8
		c0-0.1,0.9,3.8,0.9,4.3c0,2.5-2.3,4.2-4.9,4.2c-2,0-3.6-1.3-3.6-3.4c0-1.4,1-2.6,2.4-2.6c1.3,0,2.3,1.3,2.3,2.5
		c0,1.4-1.2,2.3-2.7,2.5c0.6,0.3,1.2,0.5,1.9,0.5c2.1,0,4.1-1.6,4.1-3.6c0-0.2,0-0.4-0.1-0.6l-0.8-3.7
		C21.9,29.3,21.2,29.4,20.3,29.4z M18.1,24.2c0,1,0.5,1.9,1.6,2.5c-1.8-0.3-3-1.4-3-3.1c0-2,1.7-3.7,3.8-4.1l-0.8-4
		C16,18.3,14,21,14,23.6c0,2.9,2.8,5.3,6,5.3c0.9,0,1.7-0.2,2.4-0.5L21,21.6C19.4,21.8,18.1,22.8,18.1,24.2z M22.1,2.8
		c-1.6,0-2.9,3.7-2.9,7c0,0.7,0,1.3,0.2,1.9c2.7-2.4,4-4.5,4-6.5c0-0.9-0.3-1.7-1-2.4C22.4,2.9,22.3,2.8,22.1,2.8z M24.9,24.7
		c0-1.6-1.2-3.3-2.9-3.3c-0.1,0-0.2,0-0.5,0l1.4,6.6C24.2,27.2,24.9,26,24.9,24.7z"/>
</g>
<g>
	<path d="M29.5,11.3h0.6L30,17.6c0.4-0.7,1-1,1.8-1c1.2,0,2.2,0.8,2.2,1.9c0,0.8-0.5,1.8-1.7,2.7l-2.8,2.1V11.3z M30.1,18.2
		C30,19,30,19.6,30,20.2c0,1,0,1.6,0.1,2c1-0.7,2.4-2.6,2.4-3.7c0-0.6-0.5-1.1-1.1-1.1C30.8,17.4,30.4,17.7,30.1,18.2z"/>
</g>
<g>
	<path d="M35.1,3.9h0.6l-0.1,6.2c0.4-0.7,1-1,1.8-1c1.2,0,2.2,0.8,2.2,1.9c0,0.8-0.5,1.8-1.7,2.7l-2.8,2.1V3.9z M35.7,10.8
		c-0.1,0.8-0.1,1.4-0.1,1.9c0,1,0,1.6,0.1,2c1-0.7,2.4-2.6,2.4-3.7c0-0.6-0.5-1.1-1.1-1.1C36.4,10,36,10.2,35.7,10.8z"/>
</g>
<g>
	<path d="M40.7,13.8h0.6l-0.1,6.2c0.4-0.7,1-1,1.8-1c1.2,0,2.2,0.8,2.2,1.9c0,0.8-0.5,1.8-1.7,2.7l-2.8,2.1V13.8z M41.3,20.7
		c-0.1,0.8-0.1,1.4-0.1,1.9c0,1,0,1.6,0.1,2c1-0.7,2.4-2.6,2.4-3.7c0-0.6-0.5-1.1-1.1-1.1C42,19.9,41.6,20.2,41.3,20.7z"/>
</g>
<g>
	<path d="M46.3,6.4h0.6l-0.1,6.2c0.4-0.7,1-1,1.8-1c1.2,0,2.2,0.8,2.2,1.9c0,0.8-0.5,1.8-1.7,2.7l-2.8,2.1V6.4z M46.9,13.3
		c-0.1,0.8-0.1,1.4-0.1,1.9c0,1,0,1.6,0.1,2c1-0.7,2.4-2.6,2.4-3.7c0-0.6-0.5-1.1-1.1-1.1C47.6,12.4,47.2,12.7,46.9,13.3z"/>
</g>
<g>
	<path d="M51.9,16.3h0.6l-0.1,6.2c0.4-0.7,1-1,1.8-1c1.2,0,2.2,0.8,2.2,1.9c0,0.8-0.5,1.8-1.7,2.7l-2.8,2.1V16.3z M52.4,23.2
		c-0.1,0.8-0.1,1.4-0.1,1.9c0,1,0,1.6,0.1,2c1-0.7,2.4-2.6,2.4-3.7c0-0.6-0.5-1.1-1.1-1.1C53.2,22.4,52.7,22.6,52.4,23.2z"/>
</g>
<g>
	<path d="M57.4,8.8h0.6l-0.1,6.2c0.4-0.7,1-1,1.8-1c1.2,0,2.2,0.8,2.2,1.9c0,0.8-0.5,1.8-1.7,2.7l-2.8,2.1V8.8z M58,15.7
		c-0.1,0.8-0.1,1.4-0.1,1.9c0,1,0,1.6,0.1,2c1-0.7,2.4-2.6,2.4-3.7c0-0.6-0.5-1.1-1.1-1.1C58.7,14.9,58.3,15.2,58,15.7z"/>
</g>
<g>
	<path d="M63,18.8h0.6L63.5,25c0.4-0.7,1-1,1.8-1c1.2,0,2.2,0.8,2.2,1.9c0,0.8-0.5,1.8-1.7,2.7L63,30.7V18.8z M63.6,25.7
		c-0.1,0.8-0.1,1.4-0.1,1.9c0,1,0,1.6,0.1,2c1-0.7,2.4-2.6,2.4-3.7c0-0.6-0.5-1.1-1.1-1.1C64.3,24.8,63.9,25.1,63.6,25.7z"/>
</g>
<rect x="8.5" y="76.4" width="544.4" height="0.5"/>
<rect x="8.5" y="71.5" width="544.4" height="0.5"/>
<rect x="8.5" y="66.5" width="544.4" height="0.5"/>
<rect x="8.5" y="61.6" width="544.4" height="0.5"/>
<rect x="8.5" y="56.6" width="544.4" height="0.5"/>
<g>
	<path d="M15.7,71c2.9-2.6,4.7-6.1,4.7-9.2c0-2.5-1.4-4.4-3.7-4.4c-1.6,0-3.4,1.3-3.4,2.7c0,0.2,0,0.3,0.1,0.3
		c-0.1,0,0.6-0.6,1.4-0.6c0.9,0,1.5,0.8,1.5,1.7c0,1.2-0.9,2.2-2.1,2.2c-1.2,0-2.1-1.3-2.1-2.8c0-2.3,2.3-4.1,4.8-4.1
		c4.7,0,5.9,3.2,5.9,5.8c0,1.6-0.4,2.9-2,5.3c-1.9,3.1-6.4,5.3-8.1,5.3c-0.4,0-0.6-0.2-0.6-0.5C13.8,72.3,14.9,71.7,15.7,71z
		 M25.7,58.3c0.6,0,1,0.4,1,1s-0.4,1-1,1s-1-0.4-1-1S25.1,58.3,25.7,58.3z M25.7,63.3c0.6,0,1,0.4,1,1c0,0.6-0.4,1-1,1s-1-0.4-1-1
		C24.7,63.7,25.1,63.3,25.7,63.3z"/>
</g>
<g>
	<path d="M29.5,63.4h0.6L30,69.7c0.4-0.7,1-1,1.8-1c1.2,0,2.2,0.8,2.2,1.9c0,0.8-0.5,1.8-1.7,2.7l-2.8,2.1V63.4z M30.1,70.3
		C30,71.1,30,71.7,30,72.3c0,1,0,1.6,0.1,2c1-0.7,2.4-2.6,2.4-3.7c0-0.6-0.5-1.1-1.1-1.1C30.8,69.5,30.4,69.8,30.1,70.3z"/>
</g>
<g>
	<path d="M35.1,56h0.6l-0.1,6.2c0.4-0.7,1-1,1.8-1c1.2,0,2.2,0.8,2.2,1.9c0,0.8-0.5,1.8-1.7,2.7l-2.8,2.1V56z M35.7,62.9
		c-0.1,0.8-0.1,1.4-0.1,1.9c0,1,0,1.6,0.1,2c1-0.7,2.4-2.6,2.4-3.7c0-0.6-0.5-1.1-1.1-1.1C36.4,62,36,62.3,35.7,62.9z"/>
</g>
<g>
	<path d="M40.7,65.9h0.6l-0.1,6.2c0.4-0.7,1-1,1.8-1c1.2,0,2.2,0.8,2.2,1.9c0,0.8-0.5,1.8-1.7,2.7l-2.8,2.1V65.9z M41.3,72.8
		c-0.1,0.8-0.1,1.4-0.1,1.9c0,1,0,1.6,0.1,2c1-0.7,2.4-2.6,2.4-3.7c0-0.6-0.5-1.1-1.1-1.1C42,72,41.6,72.2,41.3,72.8z"/>
</g>
<g>
	<path d="M46.3,58.4h0.6l-0.1,6.2c0.4-0.7,1-1,1.8-1c1.2,0,2.2,0.8,2.2,1.9c0,0.8-0.5,1.8-1.7,2.7l-2.8,2.1V58.4z M46.9,65.4
		c-0.1,0.8-0.1,1.4-0.1,1.9c0,1,0,1.6,0.1,2c1-0.7,2.4-2.6,2.4-3.7c0-0.6-0.5-1.1-1.1-1.1C47.6,64.5,47.2,64.8,46.9,65.4z"/>
</g>
<g>
	<path d="M51.9,68.4h0.6l-0.1,6.2c0.4-0.7,1-1,1.8-1c1.2,0,2.2,0.8,2.2,1.9c0,0.8-0.5,1.8-1.7,2.7l-2.8,2.1V68.4z M52.4,75.3
		c-0.1,0.8-0.1,1.4-0.1,1.9c0,1,0,1.6,0.1,2c1-0.7,2.4-2.6,2.4-3.7c0-0.6-0.5-1.1-1.1-1.1C53.2,74.4,52.7,74.7,52.4,75.3z"/>
</g>
<g>
	<path d="M57.4,60.9h0.6l-0.1,6.2c0.4-0.7,1-1,1.8-1c1.2,0,2.2,0.8,2.2,1.9c0,0.8-0.5,1.8-1.7,2.7l-2.8,2.1V60.9z M58,67.8
		c-0.1,0.8-0.1,1.4-0.1,1.9c0,1,0,1.6,0.1,2c1-0.7,2.4-2.6,2.4-3.7c0-0.6-0.5-1.1-1.1-1.1C58.7,67,58.3,67.3,58,67.8z"/>
</g>
<g>
	<path d="M63,70.8h0.6l-0.1,6.2c0.4-0.7,1-1,1.8-1c1.2,0,2.2,0.8,2.2,1.9c0,0.8-0.5,1.8-1.7,2.7L63,82.8V70.8z M63.6,77.8
		c-0.1,0.8-0.1,1.4-0.1,1.9c0,1,0,1.6,0.1,2C64.6,81,66,79,66,78c0-0.6-0.5-1.1-1.1-1.1C64.3,76.9,63.9,77.2,63.6,77.8z"/>
</g>
<rect x="74.2" y="34.1" width="10.5" height="0.8"/>
<rect x="82.5" y="4.8" width="0.5" height="29"/>
<g>
	<path d="M76,35.4c0-1.8,2.5-3.5,4.5-3.5c1.3,0,2.3,0.7,2.3,1.7c0,1.7-2.5,3.5-4.6,3.5C77,37.1,76,36.5,76,35.4z"/>
</g>
<g>
	<path d="M76,30.4c0-1.8,2.5-3.5,4.5-3.5c1.3,0,2.3,0.7,2.3,1.7c0,1.7-2.5,3.5-4.6,3.5C77,32.1,76,31.5,76,30.4z"/>
</g>
<g>
	<path d="M76,23c0-1.8,2.5-3.5,4.5-3.5c1.3,0,2.3,0.7,2.3,1.7c0,1.7-2.5,3.5-4.6,3.5C77,24.7,76,24.1,76,23z"/>
</g>
<rect x="182.5" y="4.8" width="0.5" height="26.5"/>
<g>
	<path d="M176,32.9c0-1.8,2.5-3.5,4.5-3.5c1.3,0,2.3,0.7,2.3,1.7c0,1.7-2.5,3.5-4.6,3.5C177,34.6,176,34,176,32.9z"/>
</g>
<g>
	<path d="M176,27.9c0-1.8,2.5-3.5,4.5-3.5c1.3,0,2.3,0.7,2.3,1.7c0,1.7-2.5,3.5-4.6,3.5C177,29.7,176,29,176,27.9z"/>
</g>
<g>
	<path d="M176,23c0-1.8,2.5-3.5,4.5-3.5c1.3,0,2.3,0.7,2.3,1.7c0,1.7-2.5,3.5-4.6,3.5C177,24.7,176,24.1,176,23z"/>
</g>
<rect x="274" y="34.1" width="10.5" height="0.8"/>
<rect x="282.3" y="7.2" width="0.5" height="29"/>
<g>
	<path d="M275.9,37.9c0-1.8,2.5-3.5,4.5-3.5c1.3,0,2.3,0.7,2.3,1.7c0,1.7-2.5,3.5-4.6,3.5C276.8,39.6,275.9,38.9,275.9,37.9z"/>
</g>
<g>
	<path d="M275.9,30.4c0-1.8,2.5-3.5,4.5-3.5c1.3,0,2.3,0.7,2.3,1.7c0,1.7-2.5,3.5-4.6,3.5C276.8,32.1,275.9,31.5,275.9,30.4z"/>
</g>
<g>
	<path d="M275.9,25.4c0-1.8,2.5-3.5,4.5-3.5c1.3,0,2.3,0.7,2.3,1.7c0,1.7-2.5,3.5-4.6,3.5C276.8,27.2,275.9,26.5,275.9,25.4z"/>
</g>
<g>
	<path d="M273.9,31.4v-4l-3,1.1V17.8h0.5v4l3-1.1v10.7H273.9z M271.4,26.7l2.5-0.9v-3.3l-2.5,0.9V26.7z"/>
</g>
<rect x="374" y="34.1" width="10.7" height="0.8"/>
<rect x="382.4" y="4.8" width="0.5" height="29"/>
<g>
	<path d="M380.1,31.8c1.6,0,2.7,0.7,2.7,2c0,1.9-2.3,3.4-4.5,3.4c-1.3,0-2.4-0.7-2.4-1.8C375.8,33.6,378.1,31.8,380.1,31.8z
		 M376.3,35.7c0,0.6,0.4,0.9,1.1,0.9c1.4,0,4.9-2.1,4.9-3.3c0-0.6-0.4-0.9-1.1-0.9C380,32.4,376.3,34.4,376.3,35.7z"/>
</g>
<g>
	<path d="M380.1,26.9c1.6,0,2.7,0.7,2.7,2c0,1.9-2.3,3.4-4.5,3.4c-1.3,0-2.4-0.7-2.4-1.8C375.8,28.6,378.1,26.9,380.1,26.9z
		 M376.3,30.7c0,0.6,0.4,0.9,1.1,0.9c1.4,0,4.9-2.1,4.9-3.3c0-0.6-0.4-0.9-1.1-0.9C380,27.5,376.3,29.5,376.3,30.7z"/>
</g>
<g>
	<path d="M380.1,19.4c1.6,0,2.7,0.7,2.7,2c0,1.9-2.3,3.4-4.5,3.4c-1.3,0-2.4-0.7-2.4-1.8C375.8,21.2,378.1,19.4,380.1,19.4z
		 M376.3,23.3c0,0.6,0.4,0.9,1.1,0.9c1.4,0,4.9-2.1,4.9-3.3c0-0.6-0.4-0.9-1.1-0.9C380,20,376.3,22,376.3,23.3z"/>
</g>
<rect x="82.5" y="56.8" width="0.5" height="16.6"/>
<g>
	<path d="M76,75.1c0-1.8,2.5-3.5,4.5-3.5c1.3,0,2.3,0.7,2.3,1.7c0,1.7-2.5,3.5-4.6,3.5C77,76.8,76,76.1,76,75.1z"/>
</g>
<rect x="176" y="67.5" width="0.5" height="16.6"/>
<g>
	<path d="M176,67.6c0-1.8,2.5-3.5,4.5-3.5c1.3,0,2.3,0.7,2.3,1.7c0,1.7-2.5,3.5-4.6,3.5C177,69.3,176,68.7,176,67.6z"/>
</g>
<rect x="275.8" y="65.1" width="0.5" height="16.6"/>
<g>
	<path d="M275.9,65.1c0-1.8,2.5-3.5,4.5-3.5c1.3,0,2.3,0.7,2.3,1.7c0,1.7-2.5,3.5-4.6,3.5C276.8,66.9,275.9,66.2,275.9,65.1z"/>
</g>
<rect x="382.4" y="56.8" width="0.5" height="16.6"/>
<g>
	<path d="M380.1,71.5c1.6,0,2.7,0.7,2.7,2c0,1.9-2.3,3.4-4.5,3.4c-1.3,0-2.4-0.7-2.4-1.8C375.8,73.3,378.1,71.5,380.1,71.5z
		 M376.3,75.4c0,0.6,0.4,0.9,1.1,0.9c1.4,0,4.9-2.1,4.9-3.3c0-0.6-0.4-0.9-1.1-0.9C380,72.1,376.3,74.1,376.3,75.4z"/>
</g>
</svg>
