<?xml version="1.0" encoding="utf-8"?>

<!--
	ScaleBook
	Copyright (c) Leland Jansen 2015. All rights reserved.
-->

<!DOCTYPE svg PUBLIC "-//W3C//DTD SVG 1.1//EN" "http://www.w3.org/Graphics/SVG/1.1/DTD/svg11.dtd">
<svg version="1.1" id="Layer_1" xmlns="http://www.w3.org/2000/svg" xmlns:xlink="http://www.w3.org/1999/xlink" x="0px" y="0px"
	 viewBox="0 0 552.9 82.9" enable-background="new 0 0 552.9 82.9" xml:space="preserve">
<rect x="8.4" y="9.7" width="0.8" height="67"/>
<g>
	<path d="M7.4,10.4c-1.9,1.1-3.6,5.8-3.6,9.4c0,2.3,1.4,9.9,1.4,12.3c0,5-1.5,8.6-4.6,11.1c3,2.4,4.6,6.1,4.6,11.1
		c0,2.3-1.4,9.9-1.4,12.3c0,3.8,1.7,8.4,3.6,9.5v0.7c-3.5-2.3-5.8-8.2-5.8-13.1c0-2.1,1.7-9.4,1.7-11.5c0-3.8-1-6.6-2.9-8.2
		C0.1,43.6,0,43.4,0,43.2c0-0.2,0.1-0.4,0.5-0.7c1.9-1.7,2.9-4.2,2.9-7.6c0-2.1-1.7-10-1.7-12.2c0-5.2,2.1-10.4,5.8-13.1V10.4z"/>
</g>
<rect x="547.8" y="9.7" width="0.8" height="67"/>
<rect x="550.4" y="9.7" width="2.5" height="67"/>
<rect x="8.5" y="29.3" width="544.4" height="0.5"/>
<rect x="8.5" y="24.4" width="544.4" height="0.5"/>
<rect x="8.5" y="19.4" width="544.4" height="0.5"/>
<rect x="8.5" y="14.4" width="544.4" height="0.5"/>
<rect x="8.5" y="9.5" width="544.4" height="0.5"/>
<g>
	<path d="M20.3,29.4c-4.2,0-8.1-3.1-8.1-6.9c0-3.2,2.3-6.7,6.8-10.5c-0.3-1.2-0.4-2.4-0.4-3.6c0-3.5,1.2-6.8,3.2-8.5
		c1.8,2.5,2.7,4.9,2.7,7.1c0,2.9-1.3,5.6-4.3,8.1l0.9,4.2c0.5,0,0.8-0.1,0.8-0.1c2.6,0,4.8,2,4.8,4.7c0,1.9-1.4,3.7-3.6,4.8
		c0-0.1,0.9,3.8,0.9,4.3c0,2.5-2.3,4.2-4.9,4.2c-2,0-3.6-1.3-3.6-3.4c0-1.4,1-2.6,2.4-2.6c1.3,0,2.3,1.3,2.3,2.5
		c0,1.4-1.2,2.3-2.7,2.5c0.6,0.3,1.2,0.5,1.9,0.5c2.1,0,4.1-1.6,4.1-3.6c0-0.2,0-0.4-0.1-0.6l-0.8-3.7
		C21.9,29.3,21.2,29.4,20.3,29.4z M18.1,24.2c0,1,0.5,1.9,1.6,2.5c-1.8-0.3-3-1.4-3-3.1c0-2,1.7-3.7,3.8-4.1l-0.8-4
		C16,18.3,14,21,14,23.6c0,2.9,2.8,5.3,6,5.3c0.9,0,1.7-0.2,2.4-0.5L21,21.6C19.4,21.8,18.1,22.8,18.1,24.2z M22.1,2.8
		c-1.6,0-2.9,3.7-2.9,7c0,0.7,0,1.3,0.2,1.9c2.7-2.4,4-4.5,4-6.5c0-0.9-0.3-1.7-1-2.4C22.4,2.9,22.3,2.8,22.1,2.8z M24.9,24.7
		c0-1.6-1.2-3.3-2.9-3.3c-0.1,0-0.2,0-0.5,0l1.4,6.6C24.2,27.2,24.9,26,24.9,24.7z"/>
</g>
<g>
	<path d="M33.5,2.9v2.8l1-0.3v1.8l-1,0.3V11l1-0.3v1.8l-1,0.3v3.1H33v-3l-1.9,0.6v3h-0.5v-2.8l-1,0.3v-1.8l1-0.3V8.4l-1,0.3V7l1-0.3
		V3.5h0.5v3L33,5.9v-3H33.5z M33,7.7l-1.9,0.6v3.4l1.9-0.6V7.7z"/>
</g>
<g>
	<path d="M39.7,10.3v2.8l1-0.3v1.8l-1,0.3v3.4l1-0.3v1.8l-1,0.3v3.1h-0.5v-3L37.3,21v3h-0.5v-2.8l-1,0.3v-1.8l1-0.3v-3.4l-1,0.3
		v-1.8l1-0.3V11h0.5v3l1.9-0.6v-3H39.7z M39.2,15.1l-1.9,0.6v3.4l1.9-0.6V15.1z"/>
</g>
<g>
	<path d="M45.9,0.4v2.8l1-0.3v1.8l-1,0.3v3.4l1-0.3V10l-1,0.3v3.1h-0.5v-3l-1.9,0.6v3H43v-2.8l-1,0.3V9.7l1-0.3V6l-1,0.3V4.5l1-0.3
		V1h0.5v3l1.9-0.6v-3H45.9z M45.4,5.2l-1.9,0.6v3.4l1.9-0.6V5.2z"/>
</g>
<g>
	<path d="M52.1,7.9v2.8l1-0.3v1.8l-1,0.3v3.4l1-0.3v1.8l-1,0.3v3.1h-0.5v-3l-1.9,0.6v3h-0.5v-2.8l-1,0.3v-1.8l1-0.3v-3.4l-1,0.3
		v-1.8l1-0.3V8.5h0.5v3l1.9-0.6v-3H52.1z M51.6,12.6l-1.9,0.6v3.4l1.9-0.6V12.6z"/>
</g>
<polygon fill-rule="evenodd" clip-rule="evenodd" points="68.5,15.9 108.8,11 108.8,8.5 68.5,13.4 "/>
<polygon fill-rule="evenodd" clip-rule="evenodd" points="128.9,11 169.2,6 169.2,3.5 128.9,8.5 "/>
<polygon fill-rule="evenodd" clip-rule="evenodd" points="182.9,38.2 223.2,33.3 223.2,30.8 182.9,35.8 "/>
<polygon fill-rule="evenodd" clip-rule="evenodd" points="243.3,32 283.6,27.1 283.6,24.6 243.3,29.6 "/>
<polygon fill-rule="evenodd" clip-rule="evenodd" points="303.8,27.1 343.9,32 343.9,29.6 303.8,24.6 "/>
<polygon fill-rule="evenodd" clip-rule="evenodd" points="364.1,33.3 404.4,38.2 404.4,35.8 364.1,30.8 "/>
<polygon fill-rule="evenodd" clip-rule="evenodd" points="431,6 471.3,11 471.3,8.5 431,3.5 "/>
<polygon fill-rule="evenodd" clip-rule="evenodd" points="491.5,11 531.8,15.9 531.8,13.4 491.5,8.5 "/>
<rect x="8.5" y="76.4" width="544.4" height="0.5"/>
<rect x="8.5" y="71.5" width="544.4" height="0.5"/>
<rect x="8.5" y="66.5" width="544.4" height="0.5"/>
<rect x="8.5" y="61.6" width="544.4" height="0.5"/>
<rect x="8.5" y="56.6" width="544.4" height="0.5"/>
<g>
	<path d="M15.7,71c2.9-2.6,4.7-6.1,4.7-9.2c0-2.5-1.4-4.4-3.7-4.4c-1.6,0-3.4,1.3-3.4,2.7c0,0.2,0,0.3,0.1,0.3
		c-0.1,0,0.6-0.6,1.4-0.6c0.9,0,1.5,0.8,1.5,1.7c0,1.2-0.9,2.2-2.1,2.2c-1.2,0-2.1-1.3-2.1-2.8c0-2.3,2.3-4.1,4.8-4.1
		c4.7,0,5.9,3.2,5.9,5.8c0,1.6-0.4,2.9-2,5.3c-1.9,3.1-6.4,5.3-8.1,5.3c-0.4,0-0.6-0.2-0.6-0.5C13.8,72.3,14.9,71.7,15.7,71z
		 M25.7,58.3c0.6,0,1,0.4,1,1c0,0.6-0.4,1-1,1s-1-0.4-1-1C24.7,58.8,25.1,58.3,25.7,58.3z M25.7,63.3c0.6,0,1,0.4,1,1
		c0,0.6-0.4,1-1,1s-1-0.4-1-1C24.7,63.7,25.1,63.3,25.7,63.3z"/>
</g>
<g>
	<path d="M33.5,55v2.8l1-0.3v1.8l-1,0.3V63l1-0.3v1.8l-1,0.3V68H33v-3l-1.9,0.6v3h-0.5v-2.8l-1,0.3v-1.8l1-0.3v-3.4l-1,0.3v-1.8
		l1-0.3v-3.1h0.5v3L33,58v-3H33.5z M33,59.8l-1.9,0.6v3.4l1.9-0.6V59.8z"/>
</g>
<g>
	<path d="M39.7,62.4v2.8l1-0.3v1.8l-1,0.3v3.4l1-0.3V72l-1,0.3v3.1h-0.5v-3l-1.9,0.6v3h-0.5v-2.8l-1,0.3v-1.8l1-0.3V68l-1,0.3v-1.8
		l1-0.3v-3.1h0.5v3l1.9-0.6v-3H39.7z M39.2,67.2l-1.9,0.6v3.4l1.9-0.6V67.2z"/>
</g>
<g>
	<path d="M45.9,52.5v2.8l1-0.3v1.8l-1,0.3v3.4l1-0.3V62l-1,0.3v3.1h-0.5v-3l-1.9,0.6v3H43v-2.8l-1,0.3v-1.8l1-0.3V58l-1,0.3v-1.8
		l1-0.3v-3.1h0.5v3l1.9-0.6v-3H45.9z M45.4,57.3l-1.9,0.6v3.4l1.9-0.6V57.3z"/>
</g>
<g>
	<path d="M52.1,59.9v2.8l1-0.3v1.8l-1,0.3V68l1-0.3v1.8l-1,0.3v3.1h-0.5v-3l-1.9,0.6v3h-0.5v-2.8l-1,0.3v-1.8l1-0.3v-3.4l-1,0.3V64
		l1-0.3v-3.1h0.5v3l1.9-0.6v-3H52.1z M51.6,64.7l-1.9,0.6v3.4l1.9-0.6V64.7z"/>
</g>
<polygon fill-rule="evenodd" clip-rule="evenodd" points="61.9,82.9 102.2,77.9 102.2,75.4 61.9,80.4 "/>
<polygon fill-rule="evenodd" clip-rule="evenodd" points="122.4,79.2 162.7,74.2 162.7,71.7 122.4,76.7 "/>
<polygon fill-rule="evenodd" clip-rule="evenodd" points="182.9,74.2 223.2,69.2 223.2,66.8 182.9,71.7 "/>
<polygon fill-rule="evenodd" clip-rule="evenodd" points="243.3,69.2 283.6,66.8 283.6,64.3 243.3,66.8 "/>
<polygon fill-rule="evenodd" clip-rule="evenodd" points="303.8,66.8 343.9,69.2 343.9,66.8 303.8,64.3 "/>
<polygon fill-rule="evenodd" clip-rule="evenodd" points="364.1,69.2 404.4,74.2 404.4,71.7 364.1,66.8 "/>
<polygon fill-rule="evenodd" clip-rule="evenodd" points="424.5,74.2 464.8,79.2 464.8,76.7 424.5,71.7 "/>
<polygon fill-rule="evenodd" clip-rule="evenodd" points="485,77.9 525.3,82.9 525.3,80.4 485,75.4 "/>
<rect x="59.9" y="34.1" width="10.5" height="0.8"/>
<rect x="68.2" y="13.6" width="0.5" height="20.2"/>
<g>
	<path d="M61.8,35.4c0-1.8,2.5-3.5,4.5-3.5c1.3,0,2.3,0.7,2.3,1.7c0,1.7-2.5,3.5-4.6,3.5C62.8,37.1,61.8,36.5,61.8,35.4z"/>
</g>
<rect x="88.4" y="11.1" width="0.5" height="17.7"/>
<g>
	<path d="M81.9,30.4c0-1.8,2.5-3.5,4.5-3.5c1.3,0,2.3,0.7,2.3,1.7c0,1.7-2.5,3.5-4.6,3.5C82.9,32.1,81.9,31.5,81.9,30.4z"/>
</g>
<rect x="108.5" y="8.6" width="0.5" height="15.2"/>
<g>
	<path d="M102.1,25.5c0-1.8,2.5-3.5,4.5-3.5c1.3,0,2.3,0.7,2.3,1.7c0,1.7-2.5,3.5-4.6,3.5C103.1,27.2,102.1,26.5,102.1,25.5z"/>
</g>
<rect x="128.7" y="8.6" width="0.5" height="20.2"/>
<g>
	<path d="M122.2,30.4c0-1.8,2.5-3.5,4.5-3.5c1.3,0,2.3,0.7,2.3,1.7c0,1.7-2.5,3.5-4.6,3.5C123.2,32.1,122.2,31.5,122.2,30.4z"/>
</g>
<rect x="148.8" y="6.2" width="0.5" height="17.7"/>
<g>
	<path d="M142.4,25.5c0-1.8,2.5-3.5,4.5-3.5c1.3,0,2.3,0.7,2.3,1.7c0,1.7-2.5,3.5-4.6,3.5C143.4,27.2,142.4,26.5,142.4,25.5z"/>
</g>
<rect x="169" y="3.7" width="0.5" height="12.7"/>
<g>
	<path d="M162.5,18c0-1.8,2.5-3.5,4.5-3.5c1.3,0,2.3,0.7,2.3,1.7c0,1.7-2.5,3.5-4.6,3.5C163.5,19.7,162.5,19.1,162.5,18z"/>
</g>
<rect x="182.6" y="25.4" width="0.5" height="12.7"/>
<g>
	<path d="M182.7,25.5c0-1.8,2.5-3.5,4.5-3.5c1.3,0,2.3,0.7,2.3,1.7c0,1.7-2.5,3.5-4.6,3.5C183.7,27.2,182.7,26.5,182.7,25.5z"/>
</g>
<rect x="202.8" y="17.9" width="0.5" height="17.7"/>
<g>
	<path d="M202.8,18c0-1.8,2.5-3.5,4.5-3.5c1.3,0,2.3,0.7,2.3,1.7c0,1.7-2.5,3.5-4.6,3.5C203.8,19.7,202.8,19.1,202.8,18z"/>
</g>
<rect x="222.9" y="13" width="0.5" height="20.2"/>
<g>
	<path d="M223,13c0-1.8,2.5-3.5,4.5-3.5c1.3,0,2.3,0.7,2.3,1.7c0,1.7-2.5,3.5-4.6,3.5C224,14.8,223,14.1,223,13z"/>
</g>
<rect x="243.1" y="17.9" width="0.5" height="14"/>
<g>
	<path d="M243.2,18c0-1.8,2.5-3.5,4.5-3.5c1.3,0,2.3,0.7,2.3,1.7c0,1.7-2.5,3.5-4.6,3.5C244.1,19.7,243.2,19.1,243.2,18z"/>
</g>
<rect x="263.2" y="13" width="0.5" height="16.4"/>
<g>
	<path d="M263.3,13c0-1.8,2.5-3.5,4.5-3.5c1.3,0,2.3,0.7,2.3,1.7c0,1.7-2.5,3.5-4.6,3.5C264.3,14.8,263.3,14.1,263.3,13z"/>
</g>
<rect x="283.4" y="8" width="0.5" height="18.9"/>
<g>
	<path d="M283.5,8.1c0-1.8,2.5-3.5,4.5-3.5c1.3,0,2.3,0.7,2.3,1.7c0,1.7-2.5,3.5-4.6,3.5C284.4,9.8,283.5,9.2,283.5,8.1z"/>
</g>
<rect x="303.5" y="8" width="0.5" height="18.9"/>
<g>
	<path d="M303.6,8.1c0-1.8,2.5-3.5,4.5-3.5c1.3,0,2.3,0.7,2.3,1.7c0,1.7-2.5,3.5-4.6,3.5C304.6,9.8,303.6,9.2,303.6,8.1z"/>
</g>
<rect x="323.5" y="13" width="0.5" height="16.3"/>
<g>
	<path d="M323.6,13c0-1.8,2.5-3.5,4.5-3.5c1.3,0,2.3,0.7,2.3,1.7c0,1.7-2.5,3.5-4.6,3.5C324.6,14.8,323.6,14.1,323.6,13z"/>
</g>
<rect x="343.7" y="17.9" width="0.5" height="14"/>
<g>
	<path d="M343.8,18c0-1.8,2.5-3.5,4.5-3.5c1.3,0,2.3,0.7,2.3,1.7c0,1.7-2.5,3.5-4.6,3.5C344.7,19.7,343.8,19.1,343.8,18z"/>
</g>
<rect x="363.8" y="13" width="0.5" height="20.2"/>
<g>
	<path d="M363.9,13c0-1.8,2.5-3.5,4.5-3.5c1.3,0,2.3,0.7,2.3,1.7c0,1.7-2.5,3.5-4.6,3.5C364.9,14.8,363.9,14.1,363.9,13z"/>
</g>
<rect x="384" y="17.9" width="0.5" height="17.7"/>
<g>
	<path d="M384.1,18c0-1.8,2.5-3.5,4.5-3.5c1.3,0,2.3,0.7,2.3,1.7c0,1.7-2.5,3.5-4.6,3.5C385,19.7,384.1,19.1,384.1,18z"/>
</g>
<rect x="404.1" y="25.4" width="0.5" height="12.7"/>
<g>
	<path d="M404.2,25.5c0-1.8,2.5-3.5,4.5-3.5c1.3,0,2.3,0.7,2.3,1.7c0,1.7-2.5,3.5-4.6,3.5C405.2,27.2,404.2,26.5,404.2,25.5z"/>
</g>
<rect x="430.8" y="3.7" width="0.5" height="12.7"/>
<g>
	<path d="M424.4,18c0-1.8,2.5-3.5,4.5-3.5c1.3,0,2.3,0.7,2.3,1.7c0,1.7-2.5,3.5-4.6,3.5C425.3,19.7,424.4,19.1,424.4,18z"/>
</g>
<rect x="451" y="6.2" width="0.5" height="17.7"/>
<g>
	<path d="M444.5,25.5c0-1.8,2.5-3.5,4.5-3.5c1.3,0,2.3,0.7,2.3,1.7c0,1.7-2.5,3.5-4.6,3.5C445.5,27.2,444.5,26.5,444.5,25.5z"/>
</g>
<rect x="471.1" y="8.6" width="0.5" height="20.2"/>
<g>
	<path d="M464.7,30.4c0-1.8,2.5-3.5,4.5-3.5c1.3,0,2.3,0.7,2.3,1.7c0,1.7-2.5,3.5-4.6,3.5C465.6,32.1,464.7,31.5,464.7,30.4z"/>
</g>
<rect x="491.3" y="8.6" width="0.5" height="15.2"/>
<g>
	<path d="M484.8,25.5c0-1.8,2.5-3.5,4.5-3.5c1.3,0,2.3,0.7,2.3,1.7c0,1.7-2.5,3.5-4.6,3.5C485.8,27.2,484.8,26.5,484.8,25.5z"/>
</g>
<rect x="511.4" y="11.1" width="0.5" height="17.7"/>
<g>
	<path d="M505,30.4c0-1.8,2.5-3.5,4.5-3.5c1.3,0,2.3,0.7,2.3,1.7c0,1.7-2.5,3.5-4.6,3.5C505.9,32.1,505,31.5,505,30.4z"/>
</g>
<rect x="523.3" y="34.1" width="10.5" height="0.8"/>
<rect x="531.6" y="13.6" width="0.5" height="20.2"/>
<g>
	<path d="M525.1,35.4c0-1.8,2.5-3.5,4.5-3.5c1.3,0,2.3,0.7,2.3,1.7c0,1.7-2.5,3.5-4.6,3.5C526.1,37.1,525.1,36.5,525.1,35.4z"/>
</g>
<rect x="61.7" y="70" width="0.5" height="12.7"/>
<g>
	<path d="M61.8,70.1c0-1.8,2.5-3.5,4.5-3.5c1.3,0,2.3,0.7,2.3,1.7c0,1.7-2.5,3.5-4.6,3.5C62.8,71.8,61.8,71.2,61.8,70.1z"/>
</g>
<rect x="81.9" y="65.1" width="0.5" height="15.2"/>
<g>
	<path d="M81.9,65.1c0-1.8,2.5-3.5,4.5-3.5c1.3,0,2.3,0.7,2.3,1.7c0,1.7-2.5,3.5-4.6,3.5C82.9,66.9,81.9,66.2,81.9,65.1z"/>
</g>
<rect x="102" y="60.1" width="0.5" height="17.7"/>
<g>
	<path d="M102.1,60.2c0-1.8,2.5-3.5,4.5-3.5c1.3,0,2.3,0.7,2.3,1.7c0,1.7-2.5,3.5-4.6,3.5C103.1,61.9,102.1,61.3,102.1,60.2z"/>
</g>
<rect x="122.2" y="65.1" width="0.5" height="14"/>
<g>
	<path d="M122.2,65.1c0-1.8,2.5-3.5,4.5-3.5c1.3,0,2.3,0.7,2.3,1.7c0,1.7-2.5,3.5-4.6,3.5C123.2,66.9,122.2,66.2,122.2,65.1z"/>
</g>
<rect x="142.3" y="60.1" width="0.5" height="16.4"/>
<g>
	<path d="M142.4,60.2c0-1.8,2.5-3.5,4.5-3.5c1.3,0,2.3,0.7,2.3,1.7c0,1.7-2.5,3.5-4.6,3.5C143.4,61.9,142.4,61.3,142.4,60.2z"/>
</g>
<rect x="160.7" y="51.5" width="10.5" height="0.8"/>
<rect x="162.5" y="52.7" width="0.5" height="21.4"/>
<g>
	<path d="M162.5,52.7c0-1.8,2.5-3.5,4.5-3.5c1.3,0,2.3,0.7,2.3,1.7c0,1.7-2.5,3.5-4.6,3.5C163.5,54.5,162.5,53.8,162.5,52.7z"/>
</g>
<rect x="182.6" y="60.1" width="0.5" height="14"/>
<g>
	<path d="M182.7,60.2c0-1.8,2.5-3.5,4.5-3.5c1.3,0,2.3,0.7,2.3,1.7c0,1.7-2.5,3.5-4.6,3.5C183.7,61.9,182.7,61.3,182.7,60.2z"/>
</g>
<rect x="201" y="51.5" width="10.5" height="0.8"/>
<rect x="202.8" y="52.7" width="0.5" height="18.9"/>
<g>
	<path d="M202.8,52.7c0-1.8,2.5-3.5,4.5-3.5c1.3,0,2.3,0.7,2.3,1.7c0,1.7-2.5,3.5-4.6,3.5C203.8,54.5,202.8,53.8,202.8,52.7z"/>
</g>
<rect x="221.1" y="51.5" width="10.5" height="0.8"/>
<rect x="221.1" y="46.5" width="10.5" height="0.8"/>
<rect x="222.9" y="47.7" width="0.5" height="21.4"/>
<g>
	<path d="M223,47.8c0-1.8,2.5-3.5,4.5-3.5c1.3,0,2.3,0.7,2.3,1.7c0,1.7-2.5,3.5-4.6,3.5C224,49.5,223,48.9,223,47.8z"/>
</g>
<rect x="241.3" y="51.5" width="10.5" height="0.8"/>
<rect x="243.1" y="52.7" width="0.5" height="16.4"/>
<g>
	<path d="M243.2,52.7c0-1.8,2.5-3.5,4.5-3.5c1.3,0,2.3,0.7,2.3,1.7c0,1.7-2.5,3.5-4.6,3.5C244.1,54.5,243.2,53.8,243.2,52.7z"/>
</g>
<rect x="261.4" y="51.5" width="10.5" height="0.8"/>
<rect x="261.4" y="46.5" width="10.5" height="0.8"/>
<rect x="263.2" y="47.7" width="0.5" height="20.2"/>
<g>
	<path d="M263.3,47.8c0-1.8,2.5-3.5,4.5-3.5c1.3,0,2.3,0.7,2.3,1.7c0,1.7-2.5,3.5-4.6,3.5C264.3,49.5,263.3,48.9,263.3,47.8z"/>
</g>
<rect x="281.6" y="51.5" width="10.5" height="0.8"/>
<rect x="281.6" y="46.5" width="10.5" height="0.8"/>
<rect x="281.6" y="41.6" width="10.5" height="0.8"/>
<rect x="283.4" y="42.7" width="0.5" height="23.9"/>
<g>
	<path d="M283.5,42.8c0-1.8,2.5-3.5,4.5-3.5c1.3,0,2.3,0.7,2.3,1.7c0,1.7-2.5,3.5-4.6,3.5C284.4,44.5,283.5,43.9,283.5,42.8z"/>
</g>
<rect x="301.7" y="51.5" width="10.5" height="0.8"/>
<rect x="301.7" y="46.5" width="10.5" height="0.8"/>
<rect x="301.7" y="41.6" width="10.5" height="0.8"/>
<rect x="303.5" y="42.7" width="0.5" height="23.9"/>
<g>
	<path d="M303.6,42.8c0-1.8,2.5-3.5,4.5-3.5c1.3,0,2.3,0.7,2.3,1.7c0,1.7-2.5,3.5-4.6,3.5C304.6,44.5,303.6,43.9,303.6,42.8z"/>
</g>
<rect x="321.7" y="51.5" width="10.5" height="0.8"/>
<rect x="321.7" y="46.5" width="10.5" height="0.8"/>
<rect x="323.5" y="47.7" width="0.5" height="20"/>
<g>
	<path d="M323.6,47.8c0-1.8,2.5-3.5,4.5-3.5c1.3,0,2.3,0.7,2.3,1.7c0,1.7-2.5,3.5-4.6,3.5C324.6,49.5,323.6,48.9,323.6,47.8z"/>
</g>
<rect x="341.9" y="51.5" width="10.5" height="0.8"/>
<rect x="343.7" y="52.7" width="0.5" height="16.4"/>
<g>
	<path d="M343.8,52.7c0-1.8,2.5-3.5,4.5-3.5c1.3,0,2.3,0.7,2.3,1.7c0,1.7-2.5,3.5-4.6,3.5C344.7,54.5,343.8,53.8,343.8,52.7z"/>
</g>
<rect x="362" y="51.5" width="10.5" height="0.8"/>
<rect x="362" y="46.5" width="10.5" height="0.8"/>
<rect x="363.8" y="47.7" width="0.5" height="21.4"/>
<g>
	<path d="M363.9,47.8c0-1.8,2.5-3.5,4.5-3.5c1.3,0,2.3,0.7,2.3,1.7c0,1.7-2.5,3.5-4.6,3.5C364.9,49.5,363.9,48.9,363.9,47.8z"/>
</g>
<rect x="382.2" y="51.5" width="10.5" height="0.8"/>
<rect x="384" y="52.7" width="0.5" height="18.9"/>
<g>
	<path d="M384.1,52.7c0-1.8,2.5-3.5,4.5-3.5c1.3,0,2.3,0.7,2.3,1.7c0,1.7-2.5,3.5-4.6,3.5C385,54.5,384.1,53.8,384.1,52.7z"/>
</g>
<rect x="404.1" y="60.1" width="0.5" height="14"/>
<g>
	<path d="M404.2,60.2c0-1.8,2.5-3.5,4.5-3.5c1.3,0,2.3,0.7,2.3,1.7c0,1.7-2.5,3.5-4.6,3.5C405.2,61.9,404.2,61.3,404.2,60.2z"/>
</g>
<rect x="422.5" y="51.5" width="10.5" height="0.8"/>
<rect x="424.3" y="52.7" width="0.5" height="21.4"/>
<g>
	<path d="M424.4,52.7c0-1.8,2.5-3.5,4.5-3.5c1.3,0,2.3,0.7,2.3,1.7c0,1.7-2.5,3.5-4.6,3.5C425.3,54.5,424.4,53.8,424.4,52.7z"/>
</g>
<rect x="444.4" y="60.1" width="0.5" height="16.4"/>
<g>
	<path d="M444.5,60.2c0-1.8,2.5-3.5,4.5-3.5c1.3,0,2.3,0.7,2.3,1.7c0,1.7-2.5,3.5-4.6,3.5C445.5,61.9,444.5,61.3,444.5,60.2z"/>
</g>
<rect x="464.6" y="65.1" width="0.5" height="14"/>
<g>
	<path d="M464.7,65.1c0-1.8,2.5-3.5,4.5-3.5c1.3,0,2.3,0.7,2.3,1.7c0,1.7-2.5,3.5-4.6,3.5C465.6,66.9,464.7,66.2,464.7,65.1z"/>
</g>
<rect x="484.7" y="60.1" width="0.5" height="17.7"/>
<g>
	<path d="M484.8,60.2c0-1.8,2.5-3.5,4.5-3.5c1.3,0,2.3,0.7,2.3,1.7c0,1.7-2.5,3.5-4.6,3.5C485.8,61.9,484.8,61.3,484.8,60.2z"/>
</g>
<rect x="504.9" y="65.1" width="0.5" height="15.2"/>
<g>
	<path d="M505,65.1c0-1.8,2.5-3.5,4.5-3.5c1.3,0,2.3,0.7,2.3,1.7c0,1.7-2.5,3.5-4.6,3.5C505.9,66.9,505,66.2,505,65.1z"/>
</g>
<rect x="525" y="70" width="0.5" height="12.7"/>
<g>
	<path d="M525.1,70.1c0-1.8,2.5-3.5,4.5-3.5c1.3,0,2.3,0.7,2.3,1.7c0,1.7-2.5,3.5-4.6,3.5C526.1,71.8,525.1,71.2,525.1,70.1z"/>
</g>
</svg>
