<?xml version="1.0" encoding="utf-8"?>

<!--
	ScaleBook
	Copyright (c) Leland Jansen 2015. All rights reserved.
-->

<!DOCTYPE svg PUBLIC "-//W3C//DTD SVG 1.1//EN" "http://www.w3.org/Graphics/SVG/1.1/DTD/svg11.dtd">
<svg version="1.1" id="Layer_1" xmlns="http://www.w3.org/2000/svg" xmlns:xlink="http://www.w3.org/1999/xlink" x="0px" y="0px"
	 viewBox="0 0 552.9 87" enable-background="new 0 0 552.9 87" xml:space="preserve">
<rect x="8.4" y="10" width="0.8" height="67"/>
<g>
	<path d="M7.4,10.7c-1.9,1.1-3.6,5.8-3.6,9.4c0,2.3,1.4,9.9,1.4,12.3c0,5-1.5,8.6-4.6,11.1c3,2.4,4.6,6.1,4.6,11.1
		c0,2.3-1.4,9.9-1.4,12.3c0,3.8,1.7,8.4,3.6,9.5V77c-3.5-2.3-5.8-8.2-5.8-13.1c0-2.1,1.7-9.4,1.7-11.5c0-3.8-1-6.6-2.9-8.2
		C0.1,43.9,0,43.7,0,43.5c0-0.2,0.1-0.4,0.5-0.7c1.9-1.7,2.9-4.2,2.9-7.6c0-2.1-1.7-10-1.7-12.2c0-5.2,2.1-10.4,5.8-13.1V10.7z"/>
</g>
<rect x="547.8" y="10" width="0.8" height="67"/>
<rect x="550.4" y="10" width="2.5" height="67"/>
<rect x="8.5" y="29.6" width="544.4" height="0.5"/>
<rect x="8.5" y="24.7" width="544.4" height="0.5"/>
<rect x="8.5" y="19.7" width="544.4" height="0.5"/>
<rect x="8.5" y="14.8" width="544.4" height="0.5"/>
<rect x="8.5" y="9.8" width="544.4" height="0.5"/>
<g>
	<path d="M20.3,29.7c-4.2,0-8.1-3.1-8.1-6.9c0-3.2,2.3-6.7,6.8-10.5c-0.3-1.2-0.4-2.4-0.4-3.6c0-3.5,1.2-6.8,3.2-8.5
		c1.8,2.5,2.7,4.9,2.7,7.1c0,2.9-1.3,5.6-4.3,8.1l0.9,4.2c0.5,0,0.8-0.1,0.8-0.1c2.6,0,4.8,2,4.8,4.7c0,1.9-1.4,3.7-3.6,4.8
		c0-0.1,0.9,3.8,0.9,4.3c0,2.5-2.3,4.2-4.9,4.2c-2,0-3.6-1.3-3.6-3.4c0-1.4,1-2.6,2.4-2.6c1.3,0,2.3,1.3,2.3,2.5
		c0,1.4-1.2,2.3-2.7,2.5c0.6,0.3,1.2,0.5,1.9,0.5c2.1,0,4.1-1.6,4.1-3.6c0-0.2,0-0.4-0.1-0.6l-0.8-3.7
		C21.9,29.6,21.2,29.7,20.3,29.7z M18.1,24.5c0,1,0.5,1.9,1.6,2.5c-1.8-0.3-3-1.4-3-3.1c0-2,1.7-3.7,3.8-4.1l-0.8-4
		C16,18.6,14,21.3,14,23.9c0,2.9,2.8,5.3,6,5.3c0.9,0,1.7-0.2,2.4-0.5L21,21.9C19.4,22.1,18.1,23.1,18.1,24.5z M22.1,3.2
		c-1.6,0-2.9,3.7-2.9,7c0,0.7,0,1.3,0.2,1.9c2.7-2.4,4-4.5,4-6.5c0-0.9-0.3-1.7-1-2.4C22.4,3.2,22.3,3.2,22.1,3.2z M24.9,25
		c0-1.6-1.2-3.3-2.9-3.3c-0.1,0-0.2,0-0.5,0l1.4,6.6C24.2,27.5,24.9,26.3,24.9,25z"/>
</g>
<g>
	<path d="M29.5,11.6h0.6L30,17.9c0.4-0.7,1-1,1.8-1c1.2,0,2.2,0.8,2.2,1.9c0,0.8-0.5,1.8-1.7,2.7l-2.8,2.1V11.6z M30.1,18.6
		C30,19.3,30,20,30,20.5c0,1,0,1.6,0.1,2c1-0.7,2.4-2.6,2.4-3.7c0-0.6-0.5-1.1-1.1-1.1C30.8,17.7,30.4,18,30.1,18.6z"/>
</g>
<g>
	<path d="M35.1,4.2h0.6l-0.1,6.2c0.4-0.7,1-1,1.8-1c1.2,0,2.2,0.8,2.2,1.9c0,0.8-0.5,1.8-1.7,2.7l-2.8,2.1V4.2z M35.7,11.1
		c-0.1,0.8-0.1,1.4-0.1,1.9c0,1,0,1.6,0.1,2c1-0.7,2.4-2.6,2.4-3.7c0-0.6-0.5-1.1-1.1-1.1C36.4,10.3,36,10.6,35.7,11.1z"/>
</g>
<g>
	<path d="M40.7,14.1h0.6l-0.1,6.2c0.4-0.7,1-1,1.8-1c1.2,0,2.2,0.8,2.2,1.9c0,0.8-0.5,1.8-1.7,2.7l-2.8,2.1V14.1z M41.3,21
		c-0.1,0.8-0.1,1.4-0.1,1.9c0,1,0,1.6,0.1,2c1-0.7,2.4-2.6,2.4-3.7c0-0.6-0.5-1.1-1.1-1.1C42,20.2,41.6,20.5,41.3,21z"/>
</g>
<g>
	<path d="M46.3,6.7h0.6l-0.1,6.2c0.4-0.7,1-1,1.8-1c1.2,0,2.2,0.8,2.2,1.9c0,0.8-0.5,1.8-1.7,2.7l-2.8,2.1V6.7z M46.9,13.6
		c-0.1,0.8-0.1,1.4-0.1,1.9c0,1,0,1.6,0.1,2c1-0.7,2.4-2.6,2.4-3.7c0-0.6-0.5-1.1-1.1-1.1C47.6,12.8,47.2,13,46.9,13.6z"/>
</g>
<g>
	<path d="M51.9,16.6h0.6l-0.1,6.2c0.4-0.7,1-1,1.8-1c1.2,0,2.2,0.8,2.2,1.9c0,0.8-0.5,1.8-1.7,2.7l-2.8,2.1V16.6z M52.4,23.5
		c-0.1,0.8-0.1,1.4-0.1,1.9c0,1,0,1.6,0.1,2c1-0.7,2.4-2.6,2.4-3.7c0-0.6-0.5-1.1-1.1-1.1C53.2,22.7,52.7,23,52.4,23.5z"/>
</g>
<g>
	<path d="M57.4,9.2h0.6l-0.1,6.2c0.4-0.7,1-1,1.8-1c1.2,0,2.2,0.8,2.2,1.9c0,0.8-0.5,1.8-1.7,2.7l-2.8,2.1V9.2z M58,16.1
		c-0.1,0.8-0.1,1.4-0.1,1.9c0,1,0,1.6,0.1,2c1-0.7,2.4-2.6,2.4-3.7c0-0.6-0.5-1.1-1.1-1.1C58.7,15.2,58.3,15.5,58,16.1z"/>
</g>
<polygon fill-rule="evenodd" clip-rule="evenodd" points="77.1,11.3 115.1,6.3 115.1,3.8 77.1,8.8 "/>
<polygon fill-rule="evenodd" clip-rule="evenodd" points="127.7,38.6 165.6,33.6 165.6,31.1 127.7,36.1 "/>
<polygon fill-rule="evenodd" clip-rule="evenodd" points="193.9,36.1 232,31.1 232,28.6 193.9,33.6 "/>
<polygon fill-rule="evenodd" clip-rule="evenodd" points="250.9,27.4 289,22.4 289,20 250.9,24.9 "/>
<polygon fill-rule="evenodd" clip-rule="evenodd" points="308.1,22.4 346.1,27.4 346.1,24.9 308.1,20 "/>
<polygon fill-rule="evenodd" clip-rule="evenodd" points="365.1,31.1 403.1,36.1 403.1,33.6 365.1,28.6 "/>
<polygon fill-rule="evenodd" clip-rule="evenodd" points="431.3,33.6 469.3,38.6 469.3,36.1 431.3,31.1 "/>
<polygon fill-rule="evenodd" clip-rule="evenodd" points="494.9,6.3 532.9,11.3 532.9,8.8 494.9,3.8 "/>
<rect x="8.5" y="76.8" width="544.4" height="0.5"/>
<rect x="8.5" y="71.8" width="544.4" height="0.5"/>
<rect x="8.5" y="66.8" width="544.4" height="0.5"/>
<rect x="8.5" y="61.9" width="544.4" height="0.5"/>
<rect x="8.5" y="56.9" width="544.4" height="0.5"/>
<g>
	<path d="M15.7,71.3c2.9-2.6,4.7-6.1,4.7-9.2c0-2.5-1.4-4.4-3.7-4.4c-1.6,0-3.4,1.3-3.4,2.7c0,0.2,0,0.3,0.1,0.3
		c-0.1,0,0.6-0.6,1.4-0.6c0.9,0,1.5,0.8,1.5,1.7c0,1.2-0.9,2.2-2.1,2.2c-1.2,0-2.1-1.3-2.1-2.8c0-2.3,2.3-4.1,4.8-4.1
		c4.7,0,5.9,3.2,5.9,5.8c0,1.6-0.4,2.9-2,5.3c-1.9,3.1-6.4,5.3-8.1,5.3c-0.4,0-0.6-0.2-0.6-0.5C13.8,72.6,14.9,72,15.7,71.3z
		 M25.7,58.7c0.6,0,1,0.4,1,1c0,0.6-0.4,1-1,1s-1-0.4-1-1C24.7,59.1,25.1,58.7,25.7,58.7z M25.7,63.6c0.6,0,1,0.4,1,1
		c0,0.6-0.4,1-1,1s-1-0.4-1-1C24.7,64,25.1,63.6,25.7,63.6z"/>
</g>
<g>
	<path d="M29.5,63.7h0.6L30,70c0.4-0.7,1-1,1.8-1c1.2,0,2.2,0.8,2.2,1.9c0,0.8-0.5,1.8-1.7,2.7l-2.8,2.1V63.7z M30.1,70.6
		C30,71.4,30,72,30,72.6c0,1,0,1.6,0.1,2c1-0.7,2.4-2.6,2.4-3.7c0-0.6-0.5-1.1-1.1-1.1C30.8,69.8,30.4,70.1,30.1,70.6z"/>
</g>
<g>
	<path d="M35.1,56.3h0.6l-0.1,6.2c0.4-0.7,1-1,1.8-1c1.2,0,2.2,0.8,2.2,1.9c0,0.8-0.5,1.8-1.7,2.7l-2.8,2.1V56.3z M35.7,63.2
		c-0.1,0.8-0.1,1.4-0.1,1.9c0,1,0,1.6,0.1,2c1-0.7,2.4-2.6,2.4-3.7c0-0.6-0.5-1.1-1.1-1.1C36.4,62.4,36,62.6,35.7,63.2z"/>
</g>
<g>
	<path d="M40.7,66.2h0.6l-0.1,6.2c0.4-0.7,1-1,1.8-1c1.2,0,2.2,0.8,2.2,1.9c0,0.8-0.5,1.8-1.7,2.7l-2.8,2.1V66.2z M41.3,73.1
		c-0.1,0.8-0.1,1.4-0.1,1.9c0,1,0,1.6,0.1,2c1-0.7,2.4-2.6,2.4-3.7c0-0.6-0.5-1.1-1.1-1.1C42,72.3,41.6,72.6,41.3,73.1z"/>
</g>
<g>
	<path d="M46.3,58.8h0.6L46.8,65c0.4-0.7,1-1,1.8-1c1.2,0,2.2,0.8,2.2,1.9c0,0.8-0.5,1.8-1.7,2.7l-2.8,2.1V58.8z M46.9,65.7
		c-0.1,0.8-0.1,1.4-0.1,1.9c0,1,0,1.6,0.1,2c1-0.7,2.4-2.6,2.4-3.7c0-0.6-0.5-1.1-1.1-1.1C47.6,64.8,47.2,65.1,46.9,65.7z"/>
</g>
<g>
	<path d="M51.9,68.7h0.6l-0.1,6.2c0.4-0.7,1-1,1.8-1c1.2,0,2.2,0.8,2.2,1.9c0,0.8-0.5,1.8-1.7,2.7l-2.8,2.1V68.7z M52.4,75.6
		c-0.1,0.8-0.1,1.4-0.1,1.9c0,1,0,1.6,0.1,2c1-0.7,2.4-2.6,2.4-3.7c0-0.6-0.5-1.1-1.1-1.1C53.2,74.8,52.7,75,52.4,75.6z"/>
</g>
<g>
	<path d="M57.4,61.3h0.6l-0.1,6.2c0.4-0.7,1-1,1.8-1c1.2,0,2.2,0.8,2.2,1.9c0,0.8-0.5,1.8-1.7,2.7l-2.8,2.1V61.3z M58,68.2
		c-0.1,0.8-0.1,1.4-0.1,1.9c0,1,0,1.6,0.1,2c1-0.7,2.4-2.6,2.4-3.7c0-0.6-0.5-1.1-1.1-1.1C58.7,67.3,58.3,67.6,58,68.2z"/>
</g>
<polygon fill-rule="evenodd" clip-rule="evenodd" points="70.6,79.5 108.6,74.5 108.6,72 70.6,77 "/>
<g>
	<path d="M185.8,75.6c-3.2,0-6.1-2.3-6.1-5.1c0-2.4,1.7-5,5.1-7.9c-0.2-0.9-0.3-1.8-0.3-2.7c0-2.6,0.9-5.1,2.4-6.3
		c1.4,1.9,2,3.7,2,5.3c0,2.2-1,4.2-3.2,6.1l0.7,3.1c0.4,0,0.6,0,0.6,0c2,0,3.6,1.5,3.6,3.5c0,1.4-1.1,2.8-2.7,3.6
		c0-0.1,0.6,2.8,0.6,3.3c0,1.9-1.7,3.2-3.7,3.2c-1.5,0-2.7-1-2.7-2.5c0-1.1,0.7-1.9,1.8-1.9c1,0,1.7,1,1.7,1.9c0,1-0.9,1.7-2,1.8
		c0.4,0.2,0.9,0.3,1.4,0.3c1.6,0,3.1-1.2,3.1-2.7c0-0.1,0-0.3,0-0.5l-0.6-2.8C187.1,75.5,186.5,75.6,185.8,75.6z M184.2,71.7
		c0,0.8,0.4,1.4,1.2,1.9c-1.3-0.2-2.2-1.1-2.2-2.3c0-1.5,1.3-2.8,2.9-3.1l-0.6-3c-2.8,2.1-4.3,4.1-4.3,6.1c0,2.2,2.1,4,4.5,4
		c0.7,0,1.3-0.1,1.8-0.4l-1.1-5.1C185.1,69.9,184.2,70.7,184.2,71.7z M187.2,55.7c-1.2,0-2.2,2.8-2.2,5.3c0,0.5,0,1,0.1,1.4
		c2-1.8,3-3.4,3-4.9c0-0.7-0.3-1.3-0.7-1.8C187.4,55.7,187.3,55.7,187.2,55.7z M189.3,72.1c0-1.2-0.9-2.4-2.2-2.4c0,0-0.2,0-0.4,0
		l1.1,5C188.8,74,189.3,73.1,189.3,72.1z"/>
</g>
<polygon fill-rule="evenodd" clip-rule="evenodd" points="127.7,74.5 165.6,69.6 165.6,67.1 127.7,72 "/>
<polygon fill-rule="evenodd" clip-rule="evenodd" points="200.4,63.4 238.5,58.4 238.5,55.9 200.4,60.9 "/>
<polygon fill-rule="evenodd" clip-rule="evenodd" points="257.4,58.4 295.5,53.4 295.5,51 257.4,55.9 "/>
<polygon fill-rule="evenodd" clip-rule="evenodd" points="314.6,53.4 352.6,58.4 352.6,55.9 314.6,51 "/>
<g>
	<path d="M419.9,69c2.2-2,3.6-4.6,3.6-6.9c0-1.9-1.1-3.3-2.8-3.3c-1.2,0-2.5,1-2.5,2.1c0,0.2,0,0.2,0.1,0.2c0,0,0.4-0.5,1-0.5
		c0.7,0,1.2,0.6,1.2,1.3c0,0.9-0.6,1.7-1.6,1.7s-1.5-1-1.5-2.1c0-1.8,1.7-3.1,3.6-3.1c3.5,0,4.4,2.4,4.4,4.4c0,1.2-0.3,2.2-1.5,4
		c-1.4,2.3-4.8,4-6,4c-0.3,0-0.5-0.1-0.5-0.3C418.5,70,419.3,69.6,419.9,69z M427.4,59.5c0.4,0,0.7,0.3,0.7,0.7
		c0,0.4-0.3,0.7-0.7,0.7c-0.4,0-0.7-0.3-0.7-0.7C426.6,59.8,426.9,59.5,427.4,59.5z M427.4,63.2c0.4,0,0.7,0.3,0.7,0.7
		s-0.3,0.7-0.7,0.7c-0.4,0-0.7-0.3-0.7-0.7S426.9,63.2,427.4,63.2z"/>
</g>
<polygon fill-rule="evenodd" clip-rule="evenodd" points="371.7,58.4 409.6,63.4 409.6,60.9 371.7,55.9 "/>
<polygon fill-rule="evenodd" clip-rule="evenodd" points="431.3,69.6 469.3,74.5 469.3,72 431.3,67.1 "/>
<polygon fill-rule="evenodd" clip-rule="evenodd" points="488.4,74.5 526.4,79.5 526.4,77 488.4,72 "/>
<rect x="76.9" y="9" width="0.5" height="20.2"/>
<g>
	<path d="M70.5,30.7c0-1.8,2.5-3.5,4.5-3.5c1.3,0,2.3,0.7,2.3,1.7c0,1.7-2.5,3.5-4.6,3.5C71.4,32.5,70.5,31.8,70.5,30.7z"/>
</g>
<rect x="96" y="6.5" width="0.5" height="17.7"/>
<g>
	<path d="M89.5,25.8c0-1.8,2.5-3.5,4.5-3.5c1.3,0,2.3,0.7,2.3,1.7c0,1.7-2.5,3.5-4.6,3.5C90.5,27.5,89.5,26.9,89.5,25.8z"/>
</g>
<rect x="114.9" y="4" width="0.5" height="15.2"/>
<g>
	<path d="M108.4,20.8c0-1.8,2.5-3.5,4.5-3.5c1.3,0,2.3,0.7,2.3,1.7c0,1.7-2.5,3.5-4.6,3.5C109.4,22.5,108.4,21.9,108.4,20.8z"/>
</g>
<rect x="127.4" y="25.7" width="0.5" height="12.7"/>
<g>
	<path d="M127.5,25.8c0-1.8,2.5-3.5,4.5-3.5c1.3,0,2.3,0.7,2.3,1.7c0,1.7-2.5,3.5-4.6,3.5C128.5,27.5,127.5,26.9,127.5,25.8z"/>
</g>
<rect x="146.5" y="20.7" width="0.5" height="15.2"/>
<g>
	<path d="M146.6,20.8c0-1.8,2.5-3.5,4.5-3.5c1.3,0,2.3,0.7,2.3,1.7c0,1.7-2.5,3.5-4.6,3.5C147.6,22.5,146.6,21.9,146.6,20.8z"/>
</g>
<rect x="165.4" y="13.3" width="0.5" height="20.2"/>
<g>
	<path d="M165.5,13.4c0-1.8,2.5-3.5,4.5-3.5c1.3,0,2.3,0.7,2.3,1.7c0,1.7-2.5,3.5-4.6,3.5C166.5,15.1,165.5,14.5,165.5,13.4z"/>
</g>
<rect x="193.6" y="20.7" width="0.5" height="15.2"/>
<g>
	<path d="M193.7,20.8c0-1.8,2.5-3.5,4.5-3.5c1.3,0,2.3,0.7,2.3,1.7c0,1.7-2.5,3.5-4.6,3.5C194.7,22.5,193.7,21.9,193.7,20.8z"/>
</g>
<rect x="212.7" y="13.3" width="0.5" height="20.2"/>
<g>
	<path d="M212.8,13.4c0-1.8,2.5-3.5,4.5-3.5c1.3,0,2.3,0.7,2.3,1.7c0,1.7-2.5,3.5-4.6,3.5C213.7,15.1,212.8,14.5,212.8,13.4z"/>
</g>
<rect x="231.8" y="8.3" width="0.5" height="22.6"/>
<g>
	<path d="M231.8,8.4c0-1.8,2.5-3.5,4.5-3.5c1.3,0,2.3,0.7,2.3,1.7c0,1.7-2.5,3.5-4.6,3.5C232.8,10.1,231.8,9.5,231.8,8.4z"/>
</g>
<rect x="250.7" y="13.3" width="0.5" height="14"/>
<g>
	<path d="M250.7,13.4c0-1.8,2.5-3.5,4.5-3.5c1.3,0,2.3,0.7,2.3,1.7c0,1.7-2.5,3.5-4.6,3.5C251.7,15.1,250.7,14.5,250.7,13.4z"/>
</g>
<rect x="269.7" y="8.3" width="0.5" height="16.4"/>
<g>
	<path d="M269.8,8.4c0-1.8,2.5-3.5,4.5-3.5c1.3,0,2.3,0.7,2.3,1.7c0,1.7-2.5,3.5-4.6,3.5C270.8,10.1,269.8,9.5,269.8,8.4z"/>
</g>
<rect x="287" y="4.7" width="10.5" height="0.8"/>
<rect x="288.8" y="3.4" width="0.5" height="18.9"/>
<g>
	<path d="M288.9,3.5c0-1.8,2.5-3.5,4.5-3.5c1.3,0,2.3,0.7,2.3,1.7c0,1.7-2.5,3.5-4.6,3.5C289.9,5.2,288.9,4.5,288.9,3.5z"/>
</g>
<rect x="306.1" y="4.7" width="10.5" height="0.8"/>
<rect x="307.9" y="3.4" width="0.5" height="18.9"/>
<g>
	<path d="M307.9,3.5c0-1.8,2.5-3.5,4.5-3.5c1.3,0,2.3,0.7,2.3,1.7c0,1.7-2.5,3.5-4.6,3.5C308.9,5.2,307.9,4.5,307.9,3.5z"/>
</g>
<rect x="326.8" y="8.3" width="0.5" height="16.3"/>
<g>
	<path d="M326.9,8.4c0-1.8,2.5-3.5,4.5-3.5c1.3,0,2.3,0.7,2.3,1.7c0,1.7-2.5,3.5-4.6,3.5C327.8,10.1,326.9,9.5,326.9,8.4z"/>
</g>
<rect x="345.9" y="13.3" width="0.5" height="14"/>
<g>
	<path d="M345.9,13.4c0-1.8,2.5-3.5,4.5-3.5c1.3,0,2.3,0.7,2.3,1.7c0,1.7-2.5,3.5-4.6,3.5C346.9,15.1,345.9,14.5,345.9,13.4z"/>
</g>
<rect x="364.9" y="8.3" width="0.5" height="22.6"/>
<g>
	<path d="M365,8.4c0-1.8,2.5-3.5,4.5-3.5c1.3,0,2.3,0.7,2.3,1.7c0,1.7-2.5,3.5-4.6,3.5C366,10.1,365,9.5,365,8.4z"/>
</g>
<rect x="383.8" y="13.3" width="0.5" height="20"/>
<g>
	<path d="M383.9,13.4c0-1.8,2.5-3.5,4.5-3.5c1.3,0,2.3,0.7,2.3,1.7c0,1.7-2.5,3.5-4.6,3.5C384.9,15.1,383.9,14.5,383.9,13.4z"/>
</g>
<rect x="402.9" y="20.7" width="0.5" height="15.2"/>
<g>
	<path d="M403,20.8c0-1.8,2.5-3.5,4.5-3.5c1.3,0,2.3,0.7,2.3,1.7c0,1.7-2.5,3.5-4.6,3.5C403.9,22.5,403,21.9,403,20.8z"/>
</g>
<rect x="431.1" y="13.3" width="0.5" height="20.2"/>
<g>
	<path d="M431.2,13.4c0-1.8,2.5-3.5,4.5-3.5c1.3,0,2.3,0.7,2.3,1.7c0,1.7-2.5,3.5-4.6,3.5C432.2,15.1,431.2,14.5,431.2,13.4z"/>
</g>
<rect x="450.2" y="20.7" width="0.5" height="15.2"/>
<g>
	<path d="M450.3,20.8c0-1.8,2.5-3.5,4.5-3.5c1.3,0,2.3,0.7,2.3,1.7c0,1.7-2.5,3.5-4.6,3.5C451.2,22.5,450.3,21.9,450.3,20.8z"/>
</g>
<rect x="469.1" y="25.7" width="0.5" height="12.7"/>
<g>
	<path d="M469.2,25.8c0-1.8,2.5-3.5,4.5-3.5c1.3,0,2.3,0.7,2.3,1.7c0,1.7-2.5,3.5-4.6,3.5C470.1,27.5,469.2,26.9,469.2,25.8z"/>
</g>
<rect x="494.7" y="4" width="0.5" height="15.2"/>
<g>
	<path d="M488.2,20.8c0-1.8,2.5-3.5,4.5-3.5c1.3,0,2.3,0.7,2.3,1.7c0,1.7-2.5,3.5-4.6,3.5C489.2,22.5,488.2,21.9,488.2,20.8z"/>
</g>
<rect x="513.7" y="6.5" width="0.5" height="17.7"/>
<g>
	<path d="M507.3,25.8c0-1.8,2.5-3.5,4.5-3.5c1.3,0,2.3,0.7,2.3,1.7c0,1.7-2.5,3.5-4.6,3.5C508.3,27.5,507.3,26.9,507.3,25.8z"/>
</g>
<rect x="532.6" y="9" width="0.5" height="20.2"/>
<g>
	<path d="M526.2,30.7c0-1.8,2.5-3.5,4.5-3.5c1.3,0,2.3,0.7,2.3,1.7c0,1.7-2.5,3.5-4.6,3.5C527.2,32.5,526.2,31.8,526.2,30.7z"/>
</g>
<rect x="70.4" y="65.4" width="0.5" height="14"/>
<g>
	<path d="M70.5,65.5c0-1.8,2.5-3.5,4.5-3.5c1.3,0,2.3,0.7,2.3,1.7c0,1.7-2.5,3.5-4.6,3.5C71.4,67.2,70.5,66.5,70.5,65.5z"/>
</g>
<rect x="89.5" y="60.4" width="0.5" height="16.4"/>
<g>
	<path d="M89.5,60.5c0-1.8,2.5-3.5,4.5-3.5c1.3,0,2.3,0.7,2.3,1.7c0,1.7-2.5,3.5-4.6,3.5C90.5,62.2,89.5,61.6,89.5,60.5z"/>
</g>
<rect x="108.4" y="55.5" width="0.5" height="18.9"/>
<g>
	<path d="M108.4,55.5c0-1.8,2.5-3.5,4.5-3.5c1.3,0,2.3,0.7,2.3,1.7c0,1.7-2.5,3.5-4.6,3.5C109.4,57.3,108.4,56.6,108.4,55.5z"/>
</g>
<rect x="127.4" y="60.4" width="0.5" height="14"/>
<g>
	<path d="M127.5,60.5c0-1.8,2.5-3.5,4.5-3.5c1.3,0,2.3,0.7,2.3,1.7c0,1.7-2.5,3.5-4.6,3.5C128.5,62.2,127.5,61.6,127.5,60.5z"/>
</g>
<rect x="146.5" y="55.5" width="0.5" height="16.4"/>
<g>
	<path d="M146.6,55.5c0-1.8,2.5-3.5,4.5-3.5c1.3,0,2.3,0.7,2.3,1.7c0,1.7-2.5,3.5-4.6,3.5C147.6,57.3,146.6,56.6,146.6,55.5z"/>
</g>
<rect x="163.6" y="51.8" width="10.5" height="0.8"/>
<rect x="163.6" y="46.9" width="10.5" height="0.8"/>
<rect x="165.4" y="48" width="0.5" height="21.4"/>
<g>
	<path d="M165.5,48.1c0-1.8,2.5-3.5,4.5-3.5c1.3,0,2.3,0.7,2.3,1.7c0,1.7-2.5,3.5-4.6,3.5C166.5,49.8,165.5,49.2,165.5,48.1z"/>
</g>
<rect x="191.8" y="81.6" width="10.5" height="0.8"/>
<rect x="200.1" y="61" width="0.5" height="22.6"/>
<g>
	<path d="M193.7,85.3c0-1.8,2.5-3.5,4.5-3.5c1.3,0,2.3,0.7,2.3,1.7c0,1.7-2.5,3.5-4.6,3.5C194.7,87,193.7,86.4,193.7,85.3z"/>
</g>
<rect x="219.2" y="58.6" width="0.5" height="17.7"/>
<g>
	<path d="M212.8,77.9c0-1.8,2.5-3.5,4.5-3.5c1.3,0,2.3,0.7,2.3,1.7c0,1.7-2.5,3.5-4.6,3.5C213.7,79.6,212.8,78.9,212.8,77.9z"/>
</g>
<rect x="238.3" y="56.1" width="0.5" height="15.2"/>
<g>
	<path d="M231.8,72.9c0-1.8,2.5-3.5,4.5-3.5c1.3,0,2.3,0.7,2.3,1.7c0,1.7-2.5,3.5-4.6,3.5C232.8,74.6,231.8,74,231.8,72.9z"/>
</g>
<rect x="257.2" y="56.1" width="0.5" height="20.2"/>
<g>
	<path d="M250.7,77.9c0-1.8,2.5-3.5,4.5-3.5c1.3,0,2.3,0.7,2.3,1.7c0,1.7-2.5,3.5-4.6,3.5C251.7,79.6,250.7,78.9,250.7,77.9z"/>
</g>
<rect x="276.2" y="53.6" width="0.5" height="17.7"/>
<g>
	<path d="M269.8,72.9c0-1.8,2.5-3.5,4.5-3.5c1.3,0,2.3,0.7,2.3,1.7c0,1.7-2.5,3.5-4.6,3.5C270.8,74.6,269.8,74,269.8,72.9z"/>
</g>
<rect x="295.3" y="51.1" width="0.5" height="15.2"/>
<g>
	<path d="M288.9,67.9c0-1.8,2.5-3.5,4.5-3.5c1.3,0,2.3,0.7,2.3,1.7c0,1.7-2.5,3.5-4.6,3.5C289.9,69.7,288.9,69,288.9,67.9z"/>
</g>
<rect x="314.4" y="51.1" width="0.5" height="15.2"/>
<g>
	<path d="M307.9,67.9c0-1.8,2.5-3.5,4.5-3.5c1.3,0,2.3,0.7,2.3,1.7c0,1.7-2.5,3.5-4.6,3.5C308.9,69.7,307.9,69,307.9,67.9z"/>
</g>
<rect x="333.3" y="53.4" width="0.5" height="17.8"/>
<g>
	<path d="M326.9,72.9c0-1.8,2.5-3.5,4.5-3.5c1.3,0,2.3,0.7,2.3,1.7c0,1.7-2.5,3.5-4.6,3.5C327.8,74.6,326.9,74,326.9,72.9z"/>
</g>
<rect x="352.4" y="56.1" width="0.5" height="20.2"/>
<g>
	<path d="M345.9,77.9c0-1.8,2.5-3.5,4.5-3.5c1.3,0,2.3,0.7,2.3,1.7c0,1.7-2.5,3.5-4.6,3.5C346.9,79.6,345.9,78.9,345.9,77.9z"/>
</g>
<rect x="371.4" y="56.1" width="0.5" height="15.2"/>
<g>
	<path d="M365,72.9c0-1.8,2.5-3.5,4.5-3.5c1.3,0,2.3,0.7,2.3,1.7c0,1.7-2.5,3.5-4.6,3.5C366,74.6,365,74,365,72.9z"/>
</g>
<rect x="390.3" y="58.4" width="0.5" height="17.8"/>
<g>
	<path d="M383.9,77.9c0-1.8,2.5-3.5,4.5-3.5c1.3,0,2.3,0.7,2.3,1.7c0,1.7-2.5,3.5-4.6,3.5C384.9,79.6,383.9,78.9,383.9,77.9z"/>
</g>
<rect x="401.1" y="81.6" width="10.5" height="0.8"/>
<rect x="409.4" y="61" width="0.5" height="22.6"/>
<g>
	<path d="M403,85.3c0-1.8,2.5-3.5,4.5-3.5c1.3,0,2.3,0.7,2.3,1.7c0,1.7-2.5,3.5-4.6,3.5C403.9,87,403,86.4,403,85.3z"/>
</g>
<rect x="429.3" y="51.8" width="10.5" height="0.8"/>
<rect x="429.3" y="46.9" width="10.5" height="0.8"/>
<rect x="431.1" y="48" width="0.5" height="21.4"/>
<g>
	<path d="M431.2,48.1c0-1.8,2.5-3.5,4.5-3.5c1.3,0,2.3,0.7,2.3,1.7c0,1.7-2.5,3.5-4.6,3.5C432.2,49.8,431.2,49.2,431.2,48.1z"/>
</g>
<rect x="450.2" y="55.5" width="0.5" height="16.4"/>
<g>
	<path d="M450.3,55.5c0-1.8,2.5-3.5,4.5-3.5c1.3,0,2.3,0.7,2.3,1.7c0,1.7-2.5,3.5-4.6,3.5C451.2,57.3,450.3,56.6,450.3,55.5z"/>
</g>
<rect x="469.1" y="60.4" width="0.5" height="14"/>
<g>
	<path d="M469.2,60.5c0-1.8,2.5-3.5,4.5-3.5c1.3,0,2.3,0.7,2.3,1.7c0,1.7-2.5,3.5-4.6,3.5C470.1,62.2,469.2,61.6,469.2,60.5z"/>
</g>
<rect x="488.2" y="55.5" width="0.5" height="18.9"/>
<g>
	<path d="M488.2,55.5c0-1.8,2.5-3.5,4.5-3.5c1.3,0,2.3,0.7,2.3,1.7c0,1.7-2.5,3.5-4.6,3.5C489.2,57.3,488.2,56.6,488.2,55.5z"/>
</g>
<rect x="507.2" y="60.4" width="0.5" height="16.4"/>
<g>
	<path d="M507.3,60.5c0-1.8,2.5-3.5,4.5-3.5c1.3,0,2.3,0.7,2.3,1.7c0,1.7-2.5,3.5-4.6,3.5C508.3,62.2,507.3,61.6,507.3,60.5z"/>
</g>
<rect x="526.1" y="65.4" width="0.5" height="14"/>
<g>
	<path d="M526.2,65.5c0-1.8,2.5-3.5,4.5-3.5c1.3,0,2.3,0.7,2.3,1.7c0,1.7-2.5,3.5-4.6,3.5C527.2,67.2,526.2,66.5,526.2,65.5z"/>
</g>
</svg>
