<?xml version="1.0" encoding="utf-8"?>

<!--
	ScaleBook
	Copyright (c) Leland Jansen 2015. All rights reserved.
-->

<!DOCTYPE svg PUBLIC "-//W3C//DTD SVG 1.1//EN" "http://www.w3.org/Graphics/SVG/1.1/DTD/svg11.dtd">
<svg version="1.1" id="Layer_1" xmlns="http://www.w3.org/2000/svg" xmlns:xlink="http://www.w3.org/1999/xlink" x="0px" y="0px"
	 viewBox="0 0 552.9 87" enable-background="new 0 0 552.9 87" xml:space="preserve">
<rect x="8.4" y="10" width="0.8" height="67"/>
<g>
	<path d="M7.4,10.7c-1.9,1.1-3.6,5.8-3.6,9.4c0,2.3,1.4,9.9,1.4,12.3c0,5-1.5,8.6-4.6,11.1c3,2.4,4.6,6.1,4.6,11.1
		c0,2.3-1.4,9.9-1.4,12.3c0,3.8,1.7,8.4,3.6,9.5V77c-3.5-2.3-5.8-8.2-5.8-13.1c0-2.1,1.7-9.4,1.7-11.5c0-3.8-1-6.6-2.9-8.2
		C0.1,43.9,0,43.7,0,43.5c0-0.2,0.1-0.4,0.5-0.7c1.9-1.7,2.9-4.2,2.9-7.6c0-2.1-1.7-10-1.7-12.2c0-5.2,2.1-10.4,5.8-13.1V10.7z"/>
</g>
<rect x="547.8" y="10" width="0.8" height="67"/>
<rect x="550.4" y="10" width="2.5" height="67"/>
<rect x="8.5" y="29.6" width="544.4" height="0.5"/>
<rect x="8.5" y="24.7" width="544.4" height="0.5"/>
<rect x="8.5" y="19.7" width="544.4" height="0.5"/>
<rect x="8.5" y="14.8" width="544.4" height="0.5"/>
<rect x="8.5" y="9.8" width="544.4" height="0.5"/>
<g>
	<path d="M20.3,29.7c-4.2,0-8.1-3.1-8.1-6.9c0-3.2,2.3-6.7,6.8-10.5c-0.3-1.2-0.4-2.4-0.4-3.6c0-3.5,1.2-6.8,3.2-8.5
		c1.8,2.5,2.7,4.9,2.7,7.1c0,2.9-1.3,5.6-4.3,8.1l0.9,4.2c0.5,0,0.8-0.1,0.8-0.1c2.6,0,4.8,2,4.8,4.7c0,1.9-1.4,3.7-3.6,4.8
		c0-0.1,0.9,3.8,0.9,4.3c0,2.5-2.3,4.2-4.9,4.2c-2,0-3.6-1.3-3.6-3.4c0-1.4,1-2.6,2.4-2.6c1.3,0,2.3,1.3,2.3,2.5
		c0,1.4-1.2,2.3-2.7,2.5c0.6,0.3,1.2,0.5,1.9,0.5c2.1,0,4.1-1.6,4.1-3.6c0-0.2,0-0.4-0.1-0.6l-0.8-3.7
		C21.9,29.6,21.2,29.7,20.3,29.7z M18.1,24.5c0,1,0.5,1.9,1.6,2.5c-1.8-0.3-3-1.4-3-3.1c0-2,1.7-3.7,3.8-4.1l-0.8-4
		C16,18.6,14,21.3,14,23.9c0,2.9,2.8,5.3,6,5.3c0.9,0,1.7-0.2,2.4-0.5L21,21.9C19.4,22.1,18.1,23.1,18.1,24.5z M22.1,3.2
		c-1.6,0-2.9,3.7-2.9,7c0,0.7,0,1.3,0.2,1.9c2.7-2.4,4-4.5,4-6.5c0-0.9-0.3-1.7-1-2.4C22.4,3.2,22.3,3.2,22.1,3.2z M24.9,25
		c0-1.6-1.2-3.3-2.9-3.3c-0.1,0-0.2,0-0.5,0l1.4,6.6C24.2,27.5,24.9,26.3,24.9,25z"/>
</g>
<g>
	<path d="M33.5,3.2v2.8l1-0.3v1.8l-1,0.3v3.4l1-0.3v1.8l-1,0.3v3.1H33v-3l-1.9,0.6v3h-0.5V14l-1,0.3v-1.8l1-0.3V8.8l-1,0.3V7.3
		l1-0.3V3.9h0.5v3L33,6.2v-3H33.5z M33,8l-1.9,0.6v3.4l1.9-0.6V8z"/>
</g>
<polygon fill-rule="evenodd" clip-rule="evenodd" points="49.8,11.3 90.3,6.3 90.3,3.8 49.8,8.8 "/>
<polygon fill-rule="evenodd" clip-rule="evenodd" points="104.1,38.6 144.6,33.6 144.6,31.1 104.1,36.1 "/>
<polygon fill-rule="evenodd" clip-rule="evenodd" points="172.8,36.1 213.4,31.1 213.4,28.6 172.8,33.6 "/>
<polygon fill-rule="evenodd" clip-rule="evenodd" points="233.5,27.4 274.2,22.4 274.2,20 233.5,24.9 "/>
<polygon fill-rule="evenodd" clip-rule="evenodd" points="294.5,22.4 334.9,27.4 334.9,24.9 294.5,20 "/>
<polygon fill-rule="evenodd" clip-rule="evenodd" points="355.2,31.1 395.7,36.1 395.7,33.6 355.2,28.6 "/>
<polygon fill-rule="evenodd" clip-rule="evenodd" points="423.9,33.6 464.4,38.6 464.4,36.1 423.9,31.1 "/>
<polygon fill-rule="evenodd" clip-rule="evenodd" points="491.2,6.3 531.6,11.3 531.6,8.8 491.2,3.8 "/>
<rect x="8.5" y="76.8" width="544.4" height="0.5"/>
<rect x="8.5" y="71.8" width="544.4" height="0.5"/>
<rect x="8.5" y="66.8" width="544.4" height="0.5"/>
<rect x="8.5" y="61.9" width="544.4" height="0.5"/>
<rect x="8.5" y="56.9" width="544.4" height="0.5"/>
<g>
	<path d="M15.7,71.3c2.9-2.6,4.7-6.1,4.7-9.2c0-2.5-1.4-4.4-3.7-4.4c-1.6,0-3.4,1.3-3.4,2.7c0,0.2,0,0.3,0.1,0.3
		c-0.1,0,0.6-0.6,1.4-0.6c0.9,0,1.5,0.8,1.5,1.7c0,1.2-0.9,2.2-2.1,2.2c-1.2,0-2.1-1.3-2.1-2.8c0-2.3,2.3-4.1,4.8-4.1
		c4.7,0,5.9,3.2,5.9,5.8c0,1.6-0.4,2.9-2,5.3c-1.9,3.1-6.4,5.3-8.1,5.3c-0.4,0-0.6-0.2-0.6-0.5C13.8,72.6,14.9,72,15.7,71.3z
		 M25.7,58.7c0.6,0,1,0.4,1,1c0,0.6-0.4,1-1,1s-1-0.4-1-1C24.7,59.1,25.1,58.7,25.7,58.7z M25.7,63.6c0.6,0,1,0.4,1,1
		c0,0.6-0.4,1-1,1s-1-0.4-1-1C24.7,64,25.1,63.6,25.7,63.6z"/>
</g>
<g>
	<path d="M33.5,55.3v2.8l1-0.3v1.8l-1,0.3v3.4l1-0.3v1.8l-1,0.3v3.1H33v-3L31.1,66v3h-0.5v-2.8l-1,0.3v-1.8l1-0.3v-3.4l-1,0.3v-1.8
		l1-0.3v-3.1h0.5v3l1.9-0.6v-3H33.5z M33,60.1l-1.9,0.6v3.4l1.9-0.6V60.1z"/>
</g>
<polygon fill-rule="evenodd" clip-rule="evenodd" points="43.3,79.5 83.8,74.5 83.8,72 43.3,77 "/>
<g>
	<path d="M164.8,75.6c-3.2,0-6.1-2.3-6.1-5.1c0-2.4,1.7-5,5.1-7.9c-0.2-0.9-0.3-1.8-0.3-2.7c0-2.6,0.9-5.1,2.4-6.3
		c1.4,1.9,2,3.7,2,5.3c0,2.2-1,4.2-3.2,6.1l0.7,3.1c0.4,0,0.6,0,0.6,0c2,0,3.6,1.5,3.6,3.5c0,1.4-1.1,2.8-2.7,3.6
		c0-0.1,0.6,2.8,0.6,3.3c0,1.9-1.7,3.2-3.7,3.2c-1.5,0-2.7-1-2.7-2.5c0-1.1,0.7-1.9,1.8-1.9c1,0,1.7,1,1.7,1.9c0,1-0.9,1.7-2,1.8
		c0.4,0.2,0.9,0.3,1.4,0.3c1.6,0,3.1-1.2,3.1-2.7c0-0.1,0-0.3,0-0.5l-0.6-2.8C166,75.5,165.5,75.6,164.8,75.6z M163.1,71.7
		c0,0.8,0.4,1.4,1.2,1.9c-1.3-0.2-2.2-1.1-2.2-2.3c0-1.5,1.3-2.8,2.9-3.1l-0.6-3c-2.8,2.1-4.3,4.1-4.3,6.1c0,2.2,2.1,4,4.5,4
		c0.7,0,1.3-0.1,1.8-0.4l-1.1-5.1C164.1,69.9,163.1,70.7,163.1,71.7z M166.1,55.7c-1.2,0-2.2,2.8-2.2,5.3c0,0.5,0,1,0.1,1.4
		c2-1.8,3-3.4,3-4.9c0-0.7-0.3-1.3-0.7-1.8C166.3,55.7,166.2,55.7,166.1,55.7z M168.2,72.1c0-1.2-0.9-2.4-2.2-2.4c0,0-0.2,0-0.4,0
		l1.1,5C167.7,74,168.2,73.1,168.2,72.1z"/>
</g>
<polygon fill-rule="evenodd" clip-rule="evenodd" points="104.1,74.5 144.6,69.6 144.6,67.1 104.1,72 "/>
<polygon fill-rule="evenodd" clip-rule="evenodd" points="179.3,63.4 219.9,58.4 219.9,55.9 179.3,60.9 "/>
<polygon fill-rule="evenodd" clip-rule="evenodd" points="240.1,58.4 280.7,53.4 280.7,51 240.1,55.9 "/>
<polygon fill-rule="evenodd" clip-rule="evenodd" points="301,53.4 341.4,58.4 341.4,55.9 301,51 "/>
<g>
	<path d="M412.4,69c2.2-2,3.6-4.6,3.6-6.9c0-1.9-1.1-3.3-2.8-3.3c-1.2,0-2.5,1-2.5,2.1c0,0.2,0,0.2,0.1,0.2c0,0,0.4-0.5,1-0.5
		c0.7,0,1.2,0.6,1.2,1.3c0,0.9-0.6,1.7-1.6,1.7s-1.5-1-1.5-2.1c0-1.8,1.7-3.1,3.6-3.1c3.5,0,4.4,2.4,4.4,4.4c0,1.2-0.3,2.2-1.5,4
		c-1.4,2.3-4.8,4-6,4c-0.3,0-0.5-0.1-0.5-0.3C411,70,411.9,69.6,412.4,69z M419.9,59.5c0.4,0,0.7,0.3,0.7,0.7c0,0.4-0.3,0.7-0.7,0.7
		c-0.4,0-0.7-0.3-0.7-0.7C419.2,59.8,419.5,59.5,419.9,59.5z M419.9,63.2c0.4,0,0.7,0.3,0.7,0.7s-0.3,0.7-0.7,0.7
		c-0.4,0-0.7-0.3-0.7-0.7S419.5,63.2,419.9,63.2z"/>
</g>
<polygon fill-rule="evenodd" clip-rule="evenodd" points="361.7,58.4 402.2,63.4 402.2,60.9 361.7,55.9 "/>
<polygon fill-rule="evenodd" clip-rule="evenodd" points="423.9,69.6 464.4,74.5 464.4,72 423.9,67.1 "/>
<polygon fill-rule="evenodd" clip-rule="evenodd" points="484.7,74.5 525.1,79.5 525.1,77 484.7,72 "/>
<rect x="49.6" y="9" width="0.5" height="20.2"/>
<g>
	<path d="M43.2,30.7c0-1.8,2.5-3.5,4.5-3.5C49,27.3,50,28,50,29c0,1.7-2.5,3.5-4.6,3.5C44.2,32.5,43.2,31.8,43.2,30.7z"/>
</g>
<rect x="69.9" y="6.5" width="0.5" height="17.7"/>
<g>
	<path d="M63.5,25.8c0-1.8,2.5-3.5,4.5-3.5c1.3,0,2.3,0.7,2.3,1.7c0,1.7-2.5,3.5-4.6,3.5C64.5,27.5,63.5,26.9,63.5,25.8z"/>
</g>
<rect x="90.1" y="4" width="0.5" height="15.2"/>
<g>
	<path d="M83.6,20.8c0-1.8,2.5-3.5,4.5-3.5c1.3,0,2.3,0.7,2.3,1.7c0,1.7-2.5,3.5-4.6,3.5C84.6,22.5,83.6,21.9,83.6,20.8z"/>
</g>
<rect x="103.9" y="25.7" width="0.5" height="12.7"/>
<g>
	<path d="M103.9,25.8c0-1.8,2.5-3.5,4.5-3.5c1.3,0,2.3,0.7,2.3,1.7c0,1.7-2.5,3.5-4.6,3.5C104.9,27.5,103.9,26.9,103.9,25.8z"/>
</g>
<rect x="124.2" y="20.7" width="0.5" height="15.2"/>
<g>
	<path d="M124.3,20.8c0-1.8,2.5-3.5,4.5-3.5c1.3,0,2.3,0.7,2.3,1.7c0,1.7-2.5,3.5-4.6,3.5C125.2,22.5,124.3,21.9,124.3,20.8z"/>
</g>
<rect x="144.3" y="13.3" width="0.5" height="20.2"/>
<g>
	<path d="M144.4,13.4c0-1.8,2.5-3.5,4.5-3.5c1.3,0,2.3,0.7,2.3,1.7c0,1.7-2.5,3.5-4.6,3.5C145.4,15.1,144.4,14.5,144.4,13.4z"/>
</g>
<rect x="172.5" y="20.7" width="0.5" height="15.2"/>
<g>
	<path d="M172.6,20.8c0-1.8,2.5-3.5,4.5-3.5c1.3,0,2.3,0.7,2.3,1.7c0,1.7-2.5,3.5-4.6,3.5C173.6,22.5,172.6,21.9,172.6,20.8z"/>
</g>
<rect x="192.9" y="13.3" width="0.5" height="20.2"/>
<g>
	<path d="M192.9,13.4c0-1.8,2.5-3.5,4.5-3.5c1.3,0,2.3,0.7,2.3,1.7c0,1.7-2.5,3.5-4.6,3.5C193.9,15.1,192.9,14.5,192.9,13.4z"/>
</g>
<rect x="213.2" y="8.3" width="0.5" height="22.6"/>
<g>
	<path d="M213.2,8.4c0-1.8,2.5-3.5,4.5-3.5c1.3,0,2.3,0.7,2.3,1.7c0,1.7-2.5,3.5-4.6,3.5C214.2,10.1,213.2,9.5,213.2,8.4z"/>
</g>
<rect x="233.3" y="13.3" width="0.5" height="14"/>
<g>
	<path d="M233.4,13.4c0-1.8,2.5-3.5,4.5-3.5c1.3,0,2.3,0.7,2.3,1.7c0,1.7-2.5,3.5-4.6,3.5C234.4,15.1,233.4,14.5,233.4,13.4z"/>
</g>
<rect x="253.6" y="8.3" width="0.5" height="16.4"/>
<g>
	<path d="M253.7,8.4c0-1.8,2.5-3.5,4.5-3.5c1.3,0,2.3,0.7,2.3,1.7c0,1.7-2.5,3.5-4.6,3.5C254.7,10.1,253.7,9.5,253.7,8.4z"/>
</g>
<rect x="272.1" y="4.7" width="10.5" height="0.8"/>
<rect x="273.9" y="3.4" width="0.5" height="18.9"/>
<g>
	<path d="M274,3.5c0-1.8,2.5-3.5,4.5-3.5c1.3,0,2.3,0.7,2.3,1.7c0,1.7-2.5,3.5-4.6,3.5C275,5.2,274,4.5,274,3.5z"/>
</g>
<rect x="292.4" y="4.7" width="10.5" height="0.8"/>
<rect x="294.2" y="3.4" width="0.5" height="18.9"/>
<g>
	<path d="M294.3,3.5c0-1.8,2.5-3.5,4.5-3.5c1.3,0,2.3,0.7,2.3,1.7c0,1.7-2.5,3.5-4.6,3.5C295.3,5.2,294.3,4.5,294.3,3.5z"/>
</g>
<rect x="314.4" y="8.3" width="0.5" height="16.3"/>
<g>
	<path d="M314.5,8.4c0-1.8,2.5-3.5,4.5-3.5c1.3,0,2.3,0.7,2.3,1.7c0,1.7-2.5,3.5-4.6,3.5C315.4,10.1,314.5,9.5,314.5,8.4z"/>
</g>
<rect x="334.7" y="13.3" width="0.5" height="14"/>
<g>
	<path d="M334.8,13.4c0-1.8,2.5-3.5,4.5-3.5c1.3,0,2.3,0.7,2.3,1.7c0,1.7-2.5,3.5-4.6,3.5C335.7,15.1,334.8,14.5,334.8,13.4z"/>
</g>
<rect x="355" y="8.3" width="0.5" height="22.6"/>
<g>
	<path d="M355.1,8.4c0-1.8,2.5-3.5,4.5-3.5c1.3,0,2.3,0.7,2.3,1.7c0,1.7-2.5,3.5-4.6,3.5C356,10.1,355.1,9.5,355.1,8.4z"/>
</g>
<rect x="375.1" y="13.3" width="0.5" height="20"/>
<g>
	<path d="M375.2,13.4c0-1.8,2.5-3.5,4.5-3.5c1.3,0,2.3,0.7,2.3,1.7c0,1.7-2.5,3.5-4.6,3.5C376.2,15.1,375.2,14.5,375.2,13.4z"/>
</g>
<rect x="395.5" y="20.7" width="0.5" height="15.2"/>
<g>
	<path d="M395.5,20.8c0-1.8,2.5-3.5,4.5-3.5c1.3,0,2.3,0.7,2.3,1.7c0,1.7-2.5,3.5-4.6,3.5C396.5,22.5,395.5,21.9,395.5,20.8z"/>
</g>
<rect x="423.7" y="13.3" width="0.5" height="20.2"/>
<g>
	<path d="M423.7,13.4c0-1.8,2.5-3.5,4.5-3.5c1.3,0,2.3,0.7,2.3,1.7c0,1.7-2.5,3.5-4.6,3.5C424.7,15.1,423.7,14.5,423.7,13.4z"/>
</g>
<rect x="444" y="20.7" width="0.5" height="15.2"/>
<g>
	<path d="M444.1,20.8c0-1.8,2.5-3.5,4.5-3.5c1.3,0,2.3,0.7,2.3,1.7c0,1.7-2.5,3.5-4.6,3.5C445,22.5,444.1,21.9,444.1,20.8z"/>
</g>
<rect x="464.1" y="25.7" width="0.5" height="12.7"/>
<g>
	<path d="M464.2,25.8c0-1.8,2.5-3.5,4.5-3.5c1.3,0,2.3,0.7,2.3,1.7c0,1.7-2.5,3.5-4.6,3.5C465.2,27.5,464.2,26.9,464.2,25.8z"/>
</g>
<rect x="490.9" y="4" width="0.5" height="15.2"/>
<g>
	<path d="M484.5,20.8c0-1.8,2.5-3.5,4.5-3.5c1.3,0,2.3,0.7,2.3,1.7c0,1.7-2.5,3.5-4.6,3.5C485.5,22.5,484.5,21.9,484.5,20.8z"/>
</g>
<rect x="511.3" y="6.5" width="0.5" height="17.7"/>
<g>
	<path d="M504.8,25.8c0-1.8,2.5-3.5,4.5-3.5c1.3,0,2.3,0.7,2.3,1.7c0,1.7-2.5,3.5-4.6,3.5C505.8,27.5,504.8,26.9,504.8,25.8z"/>
</g>
<rect x="531.4" y="9" width="0.5" height="20.2"/>
<g>
	<path d="M525,30.7c0-1.8,2.5-3.5,4.5-3.5c1.3,0,2.3,0.7,2.3,1.7c0,1.7-2.5,3.5-4.6,3.5C525.9,32.5,525,31.8,525,30.7z"/>
</g>
<rect x="43.1" y="65.4" width="0.5" height="14"/>
<g>
	<path d="M43.2,65.5c0-1.8,2.5-3.5,4.5-3.5c1.3,0,2.3,0.7,2.3,1.7c0,1.7-2.5,3.5-4.6,3.5C44.2,67.2,43.2,66.5,43.2,65.5z"/>
</g>
<rect x="63.4" y="60.4" width="0.5" height="16.4"/>
<g>
	<path d="M63.5,60.5c0-1.8,2.5-3.5,4.5-3.5c1.3,0,2.3,0.7,2.3,1.7c0,1.7-2.5,3.5-4.6,3.5C64.5,62.2,63.5,61.6,63.5,60.5z"/>
</g>
<rect x="83.6" y="55.5" width="0.5" height="18.9"/>
<g>
	<path d="M83.6,55.5c0-1.8,2.5-3.5,4.5-3.5c1.3,0,2.3,0.7,2.3,1.7c0,1.7-2.5,3.5-4.6,3.5C84.6,57.3,83.6,56.6,83.6,55.5z"/>
</g>
<rect x="103.9" y="60.4" width="0.5" height="14"/>
<g>
	<path d="M103.9,60.5c0-1.8,2.5-3.5,4.5-3.5c1.3,0,2.3,0.7,2.3,1.7c0,1.7-2.5,3.5-4.6,3.5C104.9,62.2,103.9,61.6,103.9,60.5z"/>
</g>
<rect x="124.2" y="55.5" width="0.5" height="16.4"/>
<g>
	<path d="M124.3,55.5c0-1.8,2.5-3.5,4.5-3.5c1.3,0,2.3,0.7,2.3,1.7c0,1.7-2.5,3.5-4.6,3.5C125.2,57.3,124.3,56.6,124.3,55.5z"/>
</g>
<rect x="142.5" y="51.8" width="10.5" height="0.8"/>
<rect x="142.5" y="46.9" width="10.5" height="0.8"/>
<rect x="144.3" y="48" width="0.5" height="21.4"/>
<g>
	<path d="M144.4,48.1c0-1.8,2.5-3.5,4.5-3.5c1.3,0,2.3,0.7,2.3,1.7c0,1.7-2.5,3.5-4.6,3.5C145.4,49.8,144.4,49.2,144.4,48.1z"/>
</g>
<rect x="170.8" y="81.6" width="10.5" height="0.8"/>
<rect x="179.1" y="61" width="0.5" height="22.6"/>
<g>
	<path d="M172.6,85.3c0-1.8,2.5-3.5,4.5-3.5c1.3,0,2.3,0.7,2.3,1.7c0,1.7-2.5,3.5-4.6,3.5C173.6,87,172.6,86.4,172.6,85.3z"/>
</g>
<rect x="199.4" y="58.6" width="0.5" height="17.7"/>
<g>
	<path d="M192.9,77.9c0-1.8,2.5-3.5,4.5-3.5c1.3,0,2.3,0.7,2.3,1.7c0,1.7-2.5,3.5-4.6,3.5C193.9,79.6,192.9,78.9,192.9,77.9z"/>
</g>
<rect x="219.7" y="56.1" width="0.5" height="15.2"/>
<g>
	<path d="M213.2,72.9c0-1.8,2.5-3.5,4.5-3.5c1.3,0,2.3,0.7,2.3,1.7c0,1.7-2.5,3.5-4.6,3.5C214.2,74.6,213.2,74,213.2,72.9z"/>
</g>
<rect x="239.8" y="56.1" width="0.5" height="20.2"/>
<g>
	<path d="M233.4,77.9c0-1.8,2.5-3.5,4.5-3.5c1.3,0,2.3,0.7,2.3,1.7c0,1.7-2.5,3.5-4.6,3.5C234.4,79.6,233.4,78.9,233.4,77.9z"/>
</g>
<rect x="260.1" y="53.6" width="0.5" height="17.7"/>
<g>
	<path d="M253.7,72.9c0-1.8,2.5-3.5,4.5-3.5c1.3,0,2.3,0.7,2.3,1.7c0,1.7-2.5,3.5-4.6,3.5C254.7,74.6,253.7,74,253.7,72.9z"/>
</g>
<rect x="280.4" y="51.1" width="0.5" height="15.2"/>
<g>
	<path d="M274,67.9c0-1.8,2.5-3.5,4.5-3.5c1.3,0,2.3,0.7,2.3,1.7c0,1.7-2.5,3.5-4.6,3.5C275,69.7,274,69,274,67.9z"/>
</g>
<rect x="300.7" y="51.1" width="0.5" height="15.2"/>
<g>
	<path d="M294.3,67.9c0-1.8,2.5-3.5,4.5-3.5c1.3,0,2.3,0.7,2.3,1.7c0,1.7-2.5,3.5-4.6,3.5C295.3,69.7,294.3,69,294.3,67.9z"/>
</g>
<rect x="320.9" y="53.4" width="0.5" height="17.8"/>
<g>
	<path d="M314.5,72.9c0-1.8,2.5-3.5,4.5-3.5c1.3,0,2.3,0.7,2.3,1.7c0,1.7-2.5,3.5-4.6,3.5C315.4,74.6,314.5,74,314.5,72.9z"/>
</g>
<rect x="341.2" y="56.1" width="0.5" height="20.2"/>
<g>
	<path d="M334.8,77.9c0-1.8,2.5-3.5,4.5-3.5c1.3,0,2.3,0.7,2.3,1.7c0,1.7-2.5,3.5-4.6,3.5C335.7,79.6,334.8,78.9,334.8,77.9z"/>
</g>
<rect x="361.5" y="56.1" width="0.5" height="15.2"/>
<g>
	<path d="M355.1,72.9c0-1.8,2.5-3.5,4.5-3.5c1.3,0,2.3,0.7,2.3,1.7c0,1.7-2.5,3.5-4.6,3.5C356,74.6,355.1,74,355.1,72.9z"/>
</g>
<rect x="381.7" y="58.4" width="0.5" height="17.8"/>
<g>
	<path d="M375.2,77.9c0-1.8,2.5-3.5,4.5-3.5c1.3,0,2.3,0.7,2.3,1.7c0,1.7-2.5,3.5-4.6,3.5C376.2,79.6,375.2,78.9,375.2,77.9z"/>
</g>
<rect x="393.7" y="81.6" width="10.5" height="0.8"/>
<rect x="402" y="61" width="0.5" height="22.6"/>
<g>
	<path d="M395.5,85.3c0-1.8,2.5-3.5,4.5-3.5c1.3,0,2.3,0.7,2.3,1.7c0,1.7-2.5,3.5-4.6,3.5C396.5,87,395.5,86.4,395.5,85.3z"/>
</g>
<rect x="421.9" y="51.8" width="10.5" height="0.8"/>
<rect x="421.9" y="46.9" width="10.5" height="0.8"/>
<rect x="423.7" y="48" width="0.5" height="21.4"/>
<g>
	<path d="M423.7,48.1c0-1.8,2.5-3.5,4.5-3.5c1.3,0,2.3,0.7,2.3,1.7c0,1.7-2.5,3.5-4.6,3.5C424.7,49.8,423.7,49.2,423.7,48.1z"/>
</g>
<rect x="444" y="55.5" width="0.5" height="16.4"/>
<g>
	<path d="M444.1,55.5c0-1.8,2.5-3.5,4.5-3.5c1.3,0,2.3,0.7,2.3,1.7c0,1.7-2.5,3.5-4.6,3.5C445,57.3,444.1,56.6,444.1,55.5z"/>
</g>
<rect x="464.1" y="60.4" width="0.5" height="14"/>
<g>
	<path d="M464.2,60.5c0-1.8,2.5-3.5,4.5-3.5c1.3,0,2.3,0.7,2.3,1.7c0,1.7-2.5,3.5-4.6,3.5C465.2,62.2,464.2,61.6,464.2,60.5z"/>
</g>
<rect x="484.4" y="55.5" width="0.5" height="18.9"/>
<g>
	<path d="M484.5,55.5c0-1.8,2.5-3.5,4.5-3.5c1.3,0,2.3,0.7,2.3,1.7c0,1.7-2.5,3.5-4.6,3.5C485.5,57.3,484.5,56.6,484.5,55.5z"/>
</g>
<rect x="504.7" y="60.4" width="0.5" height="16.4"/>
<g>
	<path d="M504.8,60.5c0-1.8,2.5-3.5,4.5-3.5c1.3,0,2.3,0.7,2.3,1.7c0,1.7-2.5,3.5-4.6,3.5C505.8,62.2,504.8,61.6,504.8,60.5z"/>
</g>
<rect x="524.9" y="65.4" width="0.5" height="14"/>
<g>
	<path d="M525,65.5c0-1.8,2.5-3.5,4.5-3.5c1.3,0,2.3,0.7,2.3,1.7c0,1.7-2.5,3.5-4.6,3.5C525.9,67.2,525,66.5,525,65.5z"/>
</g>
</svg>
