<?xml version="1.0" encoding="utf-8"?>

<!--
	ScaleBook
	Copyright (c) Leland Jansen 2015. All rights reserved.
-->

<!DOCTYPE svg PUBLIC "-//W3C//DTD SVG 1.1//EN" "http://www.w3.org/Graphics/SVG/1.1/DTD/svg11.dtd">
<svg version="1.1" id="Layer_1" xmlns="http://www.w3.org/2000/svg" xmlns:xlink="http://www.w3.org/1999/xlink" x="0px" y="0px"
	 viewBox="0 0 552.9 87.8" enable-background="new 0 0 552.9 87.8" xml:space="preserve">
<rect x="8.4" y="9.7" width="0.8" height="67"/>
<g>
	<path d="M7.4,10.4c-1.9,1.1-3.6,5.8-3.6,9.4c0,2.3,1.4,9.9,1.4,12.3c0,5-1.5,8.6-4.6,11.1c3,2.4,4.6,6.1,4.6,11
		c0,2.3-1.4,9.9-1.4,12.3c0,3.8,1.7,8.4,3.6,9.5v0.7c-3.5-2.3-5.8-8.2-5.8-13.1c0-2.1,1.7-9.4,1.7-11.5c0-3.8-1-6.6-2.9-8.2
		C0.1,43.6,0,43.4,0,43.2s0.1-0.4,0.5-0.7c1.9-1.7,2.9-4.2,2.9-7.6c0-2.1-1.7-10-1.7-12.2c0-5.2,2.1-10.4,5.8-13.1V10.4z"/>
</g>
<rect x="547.8" y="9.7" width="0.8" height="67"/>
<rect x="550.4" y="9.7" width="2.5" height="67"/>
<rect x="8.5" y="29.3" width="544.4" height="0.5"/>
<rect x="8.5" y="24.4" width="544.4" height="0.5"/>
<rect x="8.5" y="19.4" width="544.4" height="0.5"/>
<rect x="8.5" y="14.4" width="544.4" height="0.5"/>
<rect x="8.5" y="9.5" width="544.4" height="0.5"/>
<g>
	<path d="M20.3,29.4c-4.2,0-8.1-3.1-8.1-6.9c0-3.2,2.3-6.7,6.8-10.5c-0.3-1.2-0.4-2.4-0.4-3.6c0-3.5,1.2-6.8,3.2-8.5
		c1.8,2.5,2.7,4.9,2.7,7.1c0,2.9-1.3,5.6-4.3,8.1l0.9,4.2c0.5,0,0.8-0.1,0.8-0.1c2.6,0,4.8,2,4.8,4.7c0,1.9-1.4,3.7-3.6,4.8
		c0-0.1,0.9,3.8,0.9,4.3c0,2.5-2.3,4.2-4.9,4.2c-2,0-3.6-1.3-3.6-3.4c0-1.4,1-2.6,2.4-2.6c1.3,0,2.3,1.3,2.3,2.5
		c0,1.4-1.2,2.3-2.7,2.5c0.6,0.3,1.2,0.5,1.9,0.5c2.1,0,4.1-1.6,4.1-3.6c0-0.2,0-0.4-0.1-0.6l-0.8-3.7
		C21.9,29.3,21.2,29.4,20.3,29.4z M18.1,24.2c0,1,0.5,1.9,1.6,2.5c-1.8-0.3-3-1.4-3-3.1c0-2,1.7-3.7,3.8-4.1l-0.8-4
		C16,18.3,14,21,14,23.6c0,2.9,2.8,5.3,6,5.3c0.9,0,1.7-0.2,2.4-0.5L21,21.6C19.4,21.8,18.1,22.8,18.1,24.2z M22.1,2.8
		c-1.6,0-2.9,3.7-2.9,7c0,0.7,0,1.3,0.2,1.9c2.7-2.4,4-4.5,4-6.5c0-0.9-0.3-1.7-1-2.4C22.4,2.9,22.3,2.8,22.1,2.8z M24.9,24.7
		c0-1.6-1.2-3.3-2.9-3.3c-0.1,0-0.2,0-0.5,0l1.4,6.6C24.2,27.2,24.9,26,24.9,24.7z"/>
</g>
<g>
	<path d="M33.5,2.9v2.8l1-0.3v1.8l-1,0.3V11l1-0.3v1.8l-1,0.3v3.1H33v-3l-1.9,0.6v3h-0.5v-2.8l-1,0.3v-1.8l1-0.3V8.4l-1,0.3V7l1-0.3
		V3.5h0.5v3L33,5.9v-3H33.5z M33,7.7l-1.9,0.6v3.4l1.9-0.6V7.7z"/>
</g>
<g>
	<path d="M39.7,10.3v2.8l1-0.3v1.8l-1,0.3v3.4l1-0.3v1.8l-1,0.3v3.1h-0.5v-3L37.3,21v3h-0.5v-2.8l-1,0.3v-1.8l1-0.3v-3.4l-1,0.3
		v-1.8l1-0.3V11h0.5v3l1.9-0.6v-3H39.7z M39.2,15.1l-1.9,0.6v3.4l1.9-0.6V15.1z"/>
</g>
<polygon fill-rule="evenodd" clip-rule="evenodd" points="56,20.9 93.3,15.9 93.3,13.4 56,18.4 "/>
<polygon fill-rule="evenodd" clip-rule="evenodd" points="56,17.2 93.3,12.2 93.3,9.7 56,14.7 "/>
<polygon fill-rule="evenodd" clip-rule="evenodd" points="105.7,15.9 142.9,11 142.9,8.5 105.7,13.4 "/>
<polygon fill-rule="evenodd" clip-rule="evenodd" points="105.7,12.2 142.9,7.2 142.9,4.8 105.7,9.7 "/>
<polygon fill-rule="evenodd" clip-rule="evenodd" points="155.3,14.7 192.5,9.7 192.5,7.2 155.3,12.2 "/>
<polygon fill-rule="evenodd" clip-rule="evenodd" points="155.3,11 192.5,6 192.5,3.5 155.3,8.5 "/>
<polygon fill-rule="evenodd" clip-rule="evenodd" points="198.4,35.8 235.6,30.8 235.6,28.3 198.4,33.3 "/>
<polygon fill-rule="evenodd" clip-rule="evenodd" points="198.4,39.5 235.6,34.5 235.6,32 198.4,37 "/>
<polygon fill-rule="evenodd" clip-rule="evenodd" points="248,32 285.2,27.1 285.2,24.6 248,29.6 "/>
<polygon fill-rule="evenodd" clip-rule="evenodd" points="248,35.8 285.2,30.8 285.2,28.3 248,33.3 "/>
<polygon fill-rule="evenodd" clip-rule="evenodd" points="297.4,27.1 334.6,32 334.6,29.6 297.4,24.6 "/>
<polygon fill-rule="evenodd" clip-rule="evenodd" points="297.4,30.8 334.6,35.8 334.6,33.3 297.4,28.3 "/>
<polygon fill-rule="evenodd" clip-rule="evenodd" points="347,30.8 384.2,35.8 384.2,33.3 347,28.3 "/>
<polygon fill-rule="evenodd" clip-rule="evenodd" points="347,34.5 384.2,39.5 384.2,37 347,32 "/>
<polygon fill-rule="evenodd" clip-rule="evenodd" points="403.1,9.7 440.3,14.7 440.3,12.2 403.1,7.2 "/>
<polygon fill-rule="evenodd" clip-rule="evenodd" points="403.1,6 440.3,11 440.3,8.5 403.1,3.5 "/>
<polygon fill-rule="evenodd" clip-rule="evenodd" points="452.7,11 489.9,15.9 489.9,13.4 452.7,8.5 "/>
<polygon fill-rule="evenodd" clip-rule="evenodd" points="452.7,7.2 489.9,12.2 489.9,9.7 452.7,4.8 "/>
<polygon fill-rule="evenodd" clip-rule="evenodd" points="502.3,15.9 539.5,20.9 539.5,18.4 502.3,13.4 "/>
<polygon fill-rule="evenodd" clip-rule="evenodd" points="502.3,12.2 539.5,17.2 539.5,14.7 502.3,9.7 "/>
<rect x="8.5" y="76.4" width="544.4" height="0.5"/>
<rect x="8.5" y="71.5" width="544.4" height="0.5"/>
<rect x="8.5" y="66.5" width="544.4" height="0.5"/>
<rect x="8.5" y="61.6" width="544.4" height="0.5"/>
<rect x="8.5" y="56.6" width="544.4" height="0.5"/>
<g>
	<path d="M15.7,71c2.9-2.6,4.7-6.1,4.7-9.2c0-2.5-1.4-4.4-3.7-4.4c-1.6,0-3.4,1.3-3.4,2.7c0,0.2,0,0.3,0.1,0.3
		c-0.1,0,0.6-0.6,1.4-0.6c0.9,0,1.5,0.8,1.5,1.7c0,1.2-0.9,2.2-2.1,2.2c-1.2,0-2.1-1.3-2.1-2.8c0-2.3,2.3-4.1,4.8-4.1
		c4.7,0,5.9,3.2,5.9,5.8c0,1.6-0.4,2.9-2,5.3c-1.9,3.1-6.4,5.3-8.1,5.3c-0.4,0-0.6-0.2-0.6-0.5C13.8,72.3,14.9,71.7,15.7,71z
		 M25.7,58.3c0.6,0,1,0.4,1,1s-0.4,1-1,1s-1-0.4-1-1S25.1,58.3,25.7,58.3z M25.7,63.3c0.6,0,1,0.4,1,1c0,0.6-0.4,1-1,1s-1-0.4-1-1
		C24.7,63.7,25.1,63.3,25.7,63.3z"/>
</g>
<g>
	<path d="M33.5,55v2.8l1-0.3v1.8l-1,0.3V63l1-0.3v1.8l-1,0.3V68H33v-3l-1.9,0.6v3h-0.5v-2.8l-1,0.3v-1.8l1-0.3v-3.4l-1,0.3v-1.8
		l1-0.3v-3.1h0.5v3L33,58v-3H33.5z M33,59.8l-1.9,0.6v3.4l1.9-0.6V59.8z"/>
</g>
<g>
	<path d="M39.7,62.4v2.8l1-0.3v1.8l-1,0.3v3.4l1-0.3V72l-1,0.3v3.1h-0.5v-3l-1.9,0.6v3h-0.5v-2.8l-1,0.3v-1.8l1-0.3V68l-1,0.3v-1.8
		l1-0.3v-3.1h0.5v3l1.9-0.6v-3H39.7z M39.2,67.2l-1.9,0.6v3.4l1.9-0.6V67.2z"/>
</g>
<polygon fill-rule="evenodd" clip-rule="evenodd" points="49.5,84.1 86.7,79.2 86.7,76.7 49.5,81.6 "/>
<polygon fill-rule="evenodd" clip-rule="evenodd" points="49.5,87.8 86.7,82.9 86.7,80.4 49.5,85.4 "/>
<polygon fill-rule="evenodd" clip-rule="evenodd" points="99.1,79.2 136.3,74.2 136.3,71.7 99.1,76.7 "/>
<polygon fill-rule="evenodd" clip-rule="evenodd" points="99.1,82.9 136.3,77.9 136.3,75.4 99.1,80.4 "/>
<polygon fill-rule="evenodd" clip-rule="evenodd" points="148.7,77.9 186,73 186,70.5 148.7,75.4 "/>
<polygon fill-rule="evenodd" clip-rule="evenodd" points="148.7,81.6 186,76.7 186,74.2 148.7,79.2 "/>
<polygon fill-rule="evenodd" clip-rule="evenodd" points="198.4,73 235.6,68 235.6,65.5 198.4,70.5 "/>
<polygon fill-rule="evenodd" clip-rule="evenodd" points="198.4,76.7 235.6,71.7 235.6,69.2 198.4,74.2 "/>
<polygon fill-rule="evenodd" clip-rule="evenodd" points="248,68 285.2,63 285.2,60.6 248,65.5 "/>
<polygon fill-rule="evenodd" clip-rule="evenodd" points="248,71.7 285.2,66.8 285.2,64.3 248,69.2 "/>
<polygon fill-rule="evenodd" clip-rule="evenodd" points="297.4,63 334.6,68 334.6,65.5 297.4,60.6 "/>
<polygon fill-rule="evenodd" clip-rule="evenodd" points="297.4,66.8 334.6,71.7 334.6,69.2 297.4,64.3 "/>
<polygon fill-rule="evenodd" clip-rule="evenodd" points="347,68 384.2,73 384.2,70.5 347,65.5 "/>
<polygon fill-rule="evenodd" clip-rule="evenodd" points="347,71.7 384.2,76.7 384.2,74.2 347,69.2 "/>
<polygon fill-rule="evenodd" clip-rule="evenodd" points="396.6,73 433.8,77.9 433.8,75.4 396.6,70.5 "/>
<polygon fill-rule="evenodd" clip-rule="evenodd" points="396.6,76.7 433.8,81.6 433.8,79.2 396.6,74.2 "/>
<polygon fill-rule="evenodd" clip-rule="evenodd" points="446.2,74.2 483.4,79.2 483.4,76.7 446.2,71.7 "/>
<polygon fill-rule="evenodd" clip-rule="evenodd" points="446.2,77.9 483.4,82.9 483.4,80.4 446.2,75.4 "/>
<polygon fill-rule="evenodd" clip-rule="evenodd" points="495.8,79.2 533,84.1 533,81.6 495.8,76.7 "/>
<polygon fill-rule="evenodd" clip-rule="evenodd" points="495.8,82.9 533,87.8 533,85.4 495.8,80.4 "/>
<rect x="47.5" y="34.1" width="10.5" height="0.8"/>
<rect x="47.5" y="39.1" width="10.5" height="0.8"/>
<rect x="55.8" y="14.8" width="0.5" height="23.9"/>
<g>
	<path d="M49.4,40.3c0-1.8,2.5-3.5,4.5-3.5c1.3,0,2.3,0.7,2.3,1.7c0,1.7-2.5,3.5-4.6,3.5C50.4,42.1,49.4,41.4,49.4,40.3z"/>
</g>
<rect x="59.9" y="34.1" width="10.5" height="0.8"/>
<rect x="68.2" y="13.3" width="0.5" height="20.5"/>
<g>
	<path d="M61.8,35.4c0-1.8,2.5-3.5,4.5-3.5c1.3,0,2.3,0.7,2.3,1.7c0,1.7-2.5,3.5-4.6,3.5C62.8,37.1,61.8,36.5,61.8,35.4z"/>
</g>
<rect x="80.6" y="11.6" width="0.5" height="17.2"/>
<g>
	<path d="M74.2,30.4c0-1.8,2.5-3.5,4.5-3.5c1.3,0,2.3,0.7,2.3,1.7c0,1.7-2.5,3.5-4.6,3.5C75.2,32.1,74.2,31.5,74.2,30.4z"/>
</g>
<rect x="93" y="9.9" width="0.5" height="14"/>
<g>
	<path d="M86.6,25.5c0-1.8,2.5-3.5,4.5-3.5c1.3,0,2.3,0.7,2.3,1.7c0,1.7-2.5,3.5-4.6,3.5C87.6,27.2,86.6,26.5,86.6,25.5z"/>
</g>
<rect x="97.1" y="34.1" width="10.5" height="0.8"/>
<rect x="105.4" y="9.9" width="0.5" height="23.9"/>
<g>
	<path d="M99,35.4c0-1.8,2.5-3.5,4.5-3.5c1.3,0,2.3,0.7,2.3,1.7c0,1.7-2.5,3.5-4.6,3.5C100,37.1,99,36.5,99,35.4z"/>
</g>
<rect x="117.8" y="8.3" width="0.5" height="20.5"/>
<g>
	<path d="M111.4,30.4c0-1.8,2.5-3.5,4.5-3.5c1.3,0,2.3,0.7,2.3,1.7c0,1.7-2.5,3.5-4.6,3.5C112.4,32.1,111.4,31.5,111.4,30.4z"/>
</g>
<rect x="130.2" y="6.6" width="0.5" height="17.2"/>
<g>
	<path d="M123.8,25.5c0-1.8,2.5-3.5,4.5-3.5c1.3,0,2.3,0.7,2.3,1.7c0,1.7-2.5,3.5-4.6,3.5C124.8,27.2,123.8,26.5,123.8,25.5z"/>
</g>
<rect x="142.6" y="4.9" width="0.5" height="16.4"/>
<g>
	<path d="M136.2,23c0-1.8,2.5-3.5,4.5-3.5c1.3,0,2.3,0.7,2.3,1.7c0,1.7-2.5,3.5-4.6,3.5C137.2,24.7,136.2,24.1,136.2,23z"/>
</g>
<rect x="155" y="8.6" width="0.5" height="20.2"/>
<g>
	<path d="M148.6,30.4c0-1.8,2.5-3.5,4.5-3.5c1.3,0,2.3,0.7,2.3,1.7c0,1.7-2.5,3.5-4.6,3.5C149.6,32.1,148.6,31.5,148.6,30.4z"/>
</g>
<rect x="167.4" y="7.1" width="0.5" height="16.7"/>
<g>
	<path d="M161,25.5c0-1.8,2.5-3.5,4.5-3.5c1.3,0,2.3,0.7,2.3,1.7c0,1.7-2.5,3.5-4.6,3.5C162,27.2,161,26.5,161,25.5z"/>
</g>
<rect x="179.8" y="5.4" width="0.5" height="16"/>
<g>
	<path d="M173.4,23c0-1.8,2.5-3.5,4.5-3.5c1.3,0,2.3,0.7,2.3,1.7c0,1.7-2.5,3.5-4.6,3.5C174.4,24.7,173.4,24.1,173.4,23z"/>
</g>
<rect x="192.2" y="3.7" width="0.5" height="12.7"/>
<g>
	<path d="M185.8,18c0-1.8,2.5-3.5,4.5-3.5c1.3,0,2.3,0.7,2.3,1.7c0,1.7-2.5,3.5-4.6,3.5C186.8,19.7,185.8,19.1,185.8,18z"/>
</g>
<rect x="198.1" y="25.4" width="0.5" height="14"/>
<g>
	<path d="M198.2,25.5c0-1.8,2.5-3.5,4.5-3.5c1.3,0,2.3,0.7,2.3,1.7c0,1.7-2.5,3.5-4.6,3.5C199.2,27.2,198.2,26.5,198.2,25.5z"/>
</g>
<rect x="210.5" y="22.9" width="0.5" height="14.9"/>
<g>
	<path d="M210.6,23c0-1.8,2.5-3.5,4.5-3.5c1.3,0,2.3,0.7,2.3,1.7c0,1.7-2.5,3.5-4.6,3.5C211.6,24.7,210.6,24.1,210.6,23z"/>
</g>
<rect x="222.9" y="17.9" width="0.5" height="18.1"/>
<g>
	<path d="M223,18c0-1.8,2.5-3.5,4.5-3.5c1.3,0,2.3,0.7,2.3,1.7c0,1.7-2.5,3.5-4.6,3.5C224,19.7,223,19.1,223,18z"/>
</g>
<rect x="235.3" y="13" width="0.5" height="21.4"/>
<g>
	<path d="M235.4,13c0-1.8,2.5-3.5,4.5-3.5c1.3,0,2.3,0.7,2.3,1.7c0,1.7-2.5,3.5-4.6,3.5C236.4,14.8,235.4,14.1,235.4,13z"/>
</g>
<rect x="247.7" y="22.9" width="0.5" height="12.7"/>
<g>
	<path d="M247.8,23c0-1.8,2.5-3.5,4.5-3.5c1.3,0,2.3,0.7,2.3,1.7c0,1.7-2.5,3.5-4.6,3.5C248.8,24.7,247.8,24.1,247.8,23z"/>
</g>
<rect x="260.1" y="17.9" width="0.5" height="16.1"/>
<g>
	<path d="M260.2,18c0-1.8,2.5-3.5,4.5-3.5c1.3,0,2.3,0.7,2.3,1.7c0,1.7-2.5,3.5-4.6,3.5C261.2,19.7,260.2,19.1,260.2,18z"/>
</g>
<rect x="272.5" y="13" width="0.5" height="19.4"/>
<g>
	<path d="M272.6,13c0-1.8,2.5-3.5,4.5-3.5c1.3,0,2.3,0.7,2.3,1.7c0,1.7-2.5,3.5-4.6,3.5C273.6,14.8,272.6,14.1,272.6,13z"/>
</g>
<rect x="284.9" y="8" width="0.5" height="22.6"/>
<g>
	<path d="M285,8.1c0-1.8,2.5-3.5,4.5-3.5c1.3,0,2.3,0.7,2.3,1.7c0,1.7-2.5,3.5-4.6,3.5C286,9.8,285,9.2,285,8.1z"/>
</g>
<rect x="297.2" y="8" width="0.5" height="22.6"/>
<g>
	<path d="M297.3,8.1c0-1.8,2.5-3.5,4.5-3.5c1.3,0,2.3,0.7,2.3,1.7c0,1.7-2.5,3.5-4.6,3.5C298.2,9.8,297.3,9.2,297.3,8.1z"/>
</g>
<rect x="309.6" y="13" width="0.5" height="19.2"/>
<g>
	<path d="M309.7,13c0-1.8,2.5-3.5,4.5-3.5c1.3,0,2.3,0.7,2.3,1.7c0,1.7-2.5,3.5-4.6,3.5C310.6,14.8,309.7,14.1,309.7,13z"/>
</g>
<rect x="322" y="17.9" width="0.5" height="16"/>
<g>
	<path d="M322.1,18c0-1.8,2.5-3.5,4.5-3.5c1.3,0,2.3,0.7,2.3,1.7c0,1.7-2.5,3.5-4.6,3.5C323,19.7,322.1,19.1,322.1,18z"/>
</g>
<rect x="334.4" y="22.9" width="0.5" height="12.7"/>
<g>
	<path d="M334.5,23c0-1.8,2.5-3.5,4.5-3.5c1.3,0,2.3,0.7,2.3,1.7c0,1.7-2.5,3.5-4.6,3.5C335.4,24.7,334.5,24.1,334.5,23z"/>
</g>
<rect x="346.8" y="13" width="0.5" height="21.4"/>
<g>
	<path d="M346.9,13c0-1.8,2.5-3.5,4.5-3.5c1.3,0,2.3,0.7,2.3,1.7c0,1.7-2.5,3.5-4.6,3.5C347.8,14.8,346.9,14.1,346.9,13z"/>
</g>
<rect x="359.2" y="17.9" width="0.5" height="18"/>
<g>
	<path d="M359.3,18c0-1.8,2.5-3.5,4.5-3.5c1.3,0,2.3,0.7,2.3,1.7c0,1.7-2.5,3.5-4.6,3.5C360.2,19.7,359.3,19.1,359.3,18z"/>
</g>
<rect x="371.6" y="22.9" width="0.5" height="14.7"/>
<g>
	<path d="M371.7,23c0-1.8,2.5-3.5,4.5-3.5c1.3,0,2.3,0.7,2.3,1.7c0,1.7-2.5,3.5-4.6,3.5C372.6,24.7,371.7,24.1,371.7,23z"/>
</g>
<rect x="384" y="25.4" width="0.5" height="14"/>
<g>
	<path d="M384.1,25.5c0-1.8,2.5-3.5,4.5-3.5c1.3,0,2.3,0.7,2.3,1.7c0,1.7-2.5,3.5-4.6,3.5C385,27.2,384.1,26.5,384.1,25.5z"/>
</g>
<rect x="402.9" y="3.7" width="0.5" height="12.7"/>
<g>
	<path d="M396.5,18c0-1.8,2.5-3.5,4.5-3.5c1.3,0,2.3,0.7,2.3,1.7c0,1.7-2.5,3.5-4.6,3.5C397.4,19.7,396.5,19.1,396.5,18z"/>
</g>
<rect x="415.3" y="5.2" width="0.5" height="16.1"/>
<g>
	<path d="M408.9,23c0-1.8,2.5-3.5,4.5-3.5c1.3,0,2.3,0.7,2.3,1.7c0,1.7-2.5,3.5-4.6,3.5C409.8,24.7,408.9,24.1,408.9,23z"/>
</g>
<rect x="427.7" y="6.9" width="0.5" height="16.9"/>
<g>
	<path d="M421.3,25.5c0-1.8,2.5-3.5,4.5-3.5c1.3,0,2.3,0.7,2.3,1.7c0,1.7-2.5,3.5-4.6,3.5C422.2,27.2,421.3,26.5,421.3,25.5z"/>
</g>
<rect x="440.1" y="8.6" width="0.5" height="20.2"/>
<g>
	<path d="M433.7,30.4c0-1.8,2.5-3.5,4.5-3.5c1.3,0,2.3,0.7,2.3,1.7c0,1.7-2.5,3.5-4.6,3.5C434.6,32.1,433.7,31.5,433.7,30.4z"/>
</g>
<rect x="452.5" y="4.9" width="0.5" height="16.4"/>
<g>
	<path d="M446.1,23c0-1.8,2.5-3.5,4.5-3.5c1.3,0,2.3,0.7,2.3,1.7c0,1.7-2.5,3.5-4.6,3.5C447,24.7,446.1,24.1,446.1,23z"/>
</g>
<rect x="464.9" y="6.5" width="0.5" height="17.4"/>
<g>
	<path d="M458.5,25.5c0-1.8,2.5-3.5,4.5-3.5c1.3,0,2.3,0.7,2.3,1.7c0,1.7-2.5,3.5-4.6,3.5C459.4,27.2,458.5,26.5,458.5,25.5z"/>
</g>
<rect x="477.3" y="8.2" width="0.5" height="20.6"/>
<g>
	<path d="M470.9,30.4c0-1.8,2.5-3.5,4.5-3.5c1.3,0,2.3,0.7,2.3,1.7c0,1.7-2.5,3.5-4.6,3.5C471.8,32.1,470.9,31.5,470.9,30.4z"/>
</g>
<rect x="481.4" y="34.1" width="10.5" height="0.8"/>
<rect x="489.7" y="9.9" width="0.5" height="23.9"/>
<g>
	<path d="M483.3,35.4c0-1.8,2.5-3.5,4.5-3.5c1.3,0,2.3,0.7,2.3,1.7c0,1.7-2.5,3.5-4.6,3.5C484.2,37.1,483.3,36.5,483.3,35.4z"/>
</g>
<rect x="502.1" y="9.9" width="0.5" height="14"/>
<g>
	<path d="M495.7,25.5c0-1.8,2.5-3.5,4.5-3.5c1.3,0,2.3,0.7,2.3,1.7c0,1.7-2.5,3.5-4.6,3.5C496.6,27.2,495.7,26.5,495.7,25.5z"/>
</g>
<rect x="514.5" y="11.4" width="0.5" height="17.4"/>
<g>
	<path d="M508.1,30.4c0-1.8,2.5-3.5,4.5-3.5c1.3,0,2.3,0.7,2.3,1.7c0,1.7-2.5,3.5-4.6,3.5C509,32.1,508.1,31.5,508.1,30.4z"/>
</g>
<rect x="518.6" y="34.1" width="10.5" height="0.8"/>
<rect x="526.9" y="13.1" width="0.5" height="20.6"/>
<g>
	<path d="M520.5,35.4c0-1.8,2.5-3.5,4.5-3.5c1.3,0,2.3,0.7,2.3,1.7c0,1.7-2.5,3.5-4.6,3.5C521.4,37.1,520.5,36.5,520.5,35.4z"/>
</g>
<rect x="531" y="34.1" width="10.5" height="0.8"/>
<rect x="531" y="39.1" width="10.5" height="0.8"/>
<rect x="539.3" y="14.8" width="0.5" height="23.9"/>
<g>
	<path d="M532.9,40.3c0-1.8,2.5-3.5,4.5-3.5c1.3,0,2.3,0.7,2.3,1.7c0,1.7-2.5,3.5-4.6,3.5C533.8,42.1,532.9,41.4,532.9,40.3z"/>
</g>
<rect x="49.3" y="75" width="0.5" height="12.7"/>
<g>
	<path d="M49.4,75.1c0-1.8,2.5-3.5,4.5-3.5c1.3,0,2.3,0.7,2.3,1.7c0,1.7-2.5,3.5-4.6,3.5C50.4,76.8,49.4,76.1,49.4,75.1z"/>
</g>
<rect x="61.7" y="70" width="0.5" height="16.1"/>
<g>
	<path d="M61.8,70.1c0-1.8,2.5-3.5,4.5-3.5c1.3,0,2.3,0.7,2.3,1.7c0,1.7-2.5,3.5-4.6,3.5C62.8,71.8,61.8,71.2,61.8,70.1z"/>
</g>
<rect x="74.1" y="65.1" width="0.5" height="19.4"/>
<g>
	<path d="M74.2,65.1c0-1.8,2.5-3.5,4.5-3.5c1.3,0,2.3,0.7,2.3,1.7c0,1.7-2.5,3.5-4.6,3.5C75.2,66.9,74.2,66.2,74.2,65.1z"/>
</g>
<rect x="86.5" y="60.1" width="0.5" height="22.6"/>
<g>
	<path d="M86.6,60.2c0-1.8,2.5-3.5,4.5-3.5c1.3,0,2.3,0.7,2.3,1.7c0,1.7-2.5,3.5-4.6,3.5C87.6,61.9,86.6,61.3,86.6,60.2z"/>
</g>
<rect x="98.9" y="70" width="0.5" height="12.7"/>
<g>
	<path d="M99,70.1c0-1.8,2.5-3.5,4.5-3.5c1.3,0,2.3,0.7,2.3,1.7c0,1.7-2.5,3.5-4.6,3.5C100,71.8,99,71.2,99,70.1z"/>
</g>
<rect x="111.3" y="65.1" width="0.5" height="16.1"/>
<g>
	<path d="M111.4,65.1c0-1.8,2.5-3.5,4.5-3.5c1.3,0,2.3,0.7,2.3,1.7c0,1.7-2.5,3.5-4.6,3.5C112.4,66.9,111.4,66.2,111.4,65.1z"/>
</g>
<rect x="123.7" y="60.1" width="0.5" height="19.4"/>
<g>
	<path d="M123.8,60.2c0-1.8,2.5-3.5,4.5-3.5c1.3,0,2.3,0.7,2.3,1.7c0,1.7-2.5,3.5-4.6,3.5C124.8,61.9,123.8,61.3,123.8,60.2z"/>
</g>
<rect x="136.1" y="57.6" width="0.5" height="20.2"/>
<g>
	<path d="M136.2,57.7c0-1.8,2.5-3.5,4.5-3.5c1.3,0,2.3,0.7,2.3,1.7c0,1.7-2.5,3.5-4.6,3.5C137.2,59.4,136.2,58.8,136.2,57.7z"/>
</g>
<rect x="148.5" y="65.1" width="0.5" height="16.4"/>
<g>
	<path d="M148.6,65.1c0-1.8,2.5-3.5,4.5-3.5c1.3,0,2.3,0.7,2.3,1.7c0,1.7-2.5,3.5-4.6,3.5C149.6,66.9,148.6,66.2,148.6,65.1z"/>
</g>
<rect x="160.9" y="60.1" width="0.5" height="19.8"/>
<g>
	<path d="M161,60.2c0-1.8,2.5-3.5,4.5-3.5c1.3,0,2.3,0.7,2.3,1.7c0,1.7-2.5,3.5-4.6,3.5C162,61.9,161,61.3,161,60.2z"/>
</g>
<rect x="173.3" y="57.6" width="0.5" height="20.6"/>
<g>
	<path d="M173.4,57.7c0-1.8,2.5-3.5,4.5-3.5c1.3,0,2.3,0.7,2.3,1.7c0,1.7-2.5,3.5-4.6,3.5C174.4,59.4,173.4,58.8,173.4,57.7z"/>
</g>
<rect x="183.9" y="51.5" width="10.5" height="0.8"/>
<rect x="185.7" y="52.7" width="0.5" height="23.9"/>
<g>
	<path d="M185.8,52.7c0-1.8,2.5-3.5,4.5-3.5c1.3,0,2.3,0.7,2.3,1.7c0,1.7-2.5,3.5-4.6,3.5C186.8,54.5,185.8,53.8,185.8,52.7z"/>
</g>
<rect x="198.1" y="60.1" width="0.5" height="16.4"/>
<g>
	<path d="M198.2,60.2c0-1.8,2.5-3.5,4.5-3.5c1.3,0,2.3,0.7,2.3,1.7c0,1.7-2.5,3.5-4.6,3.5C199.2,61.9,198.2,61.3,198.2,60.2z"/>
</g>
<rect x="210.5" y="57.6" width="0.5" height="17.4"/>
<g>
	<path d="M210.6,57.7c0-1.8,2.5-3.5,4.5-3.5c1.3,0,2.3,0.7,2.3,1.7c0,1.7-2.5,3.5-4.6,3.5C211.6,59.4,210.6,58.8,210.6,57.7z"/>
</g>
<rect x="221.1" y="51.5" width="10.5" height="0.8"/>
<rect x="222.9" y="52.7" width="0.5" height="20.6"/>
<g>
	<path d="M223,52.7c0-1.8,2.5-3.5,4.5-3.5c1.3,0,2.3,0.7,2.3,1.7c0,1.7-2.5,3.5-4.6,3.5C224,54.5,223,53.8,223,52.7z"/>
</g>
<rect x="233.5" y="51.5" width="10.5" height="0.8"/>
<rect x="233.5" y="46.5" width="10.5" height="0.8"/>
<rect x="235.3" y="47.7" width="0.5" height="23.9"/>
<g>
	<path d="M235.4,47.8c0-1.8,2.5-3.5,4.5-3.5c1.3,0,2.3,0.7,2.3,1.7c0,1.7-2.5,3.5-4.6,3.5C236.4,49.5,235.4,48.9,235.4,47.8z"/>
</g>
<rect x="247.7" y="57.6" width="0.5" height="14"/>
<g>
	<path d="M247.8,57.7c0-1.8,2.5-3.5,4.5-3.5c1.3,0,2.3,0.7,2.3,1.7c0,1.7-2.5,3.5-4.6,3.5C248.8,59.4,247.8,58.8,247.8,57.7z"/>
</g>
<rect x="258.3" y="51.5" width="10.5" height="0.8"/>
<rect x="260.1" y="52.7" width="0.5" height="17.4"/>
<g>
	<path d="M260.2,52.7c0-1.8,2.5-3.5,4.5-3.5c1.3,0,2.3,0.7,2.3,1.7c0,1.7-2.5,3.5-4.6,3.5C261.2,54.5,260.2,53.8,260.2,52.7z"/>
</g>
<rect x="270.7" y="51.5" width="10.5" height="0.8"/>
<rect x="270.7" y="46.5" width="10.5" height="0.8"/>
<rect x="272.5" y="47.7" width="0.5" height="20.6"/>
<g>
	<path d="M272.6,47.8c0-1.8,2.5-3.5,4.5-3.5c1.3,0,2.3,0.7,2.3,1.7c0,1.7-2.5,3.5-4.6,3.5C273.6,49.5,272.6,48.9,272.6,47.8z"/>
</g>
<rect x="283.1" y="51.5" width="10.5" height="0.8"/>
<rect x="283.1" y="46.5" width="10.5" height="0.8"/>
<rect x="283.1" y="41.6" width="10.5" height="0.8"/>
<rect x="284.9" y="42.7" width="0.5" height="23.9"/>
<g>
	<path d="M285,42.8c0-1.8,2.5-3.5,4.5-3.5c1.3,0,2.3,0.7,2.3,1.7c0,1.7-2.5,3.5-4.6,3.5C286,44.5,285,43.9,285,42.8z"/>
</g>
<rect x="295.4" y="51.5" width="10.5" height="0.8"/>
<rect x="295.4" y="46.5" width="10.5" height="0.8"/>
<rect x="295.4" y="41.6" width="10.5" height="0.8"/>
<rect x="297.2" y="42.7" width="0.5" height="23.9"/>
<g>
	<path d="M297.3,42.8c0-1.8,2.5-3.5,4.5-3.5c1.3,0,2.3,0.7,2.3,1.7c0,1.7-2.5,3.5-4.6,3.5C298.2,44.5,297.3,43.9,297.3,42.8z"/>
</g>
<rect x="307.8" y="51.5" width="10.5" height="0.8"/>
<rect x="307.8" y="46.5" width="10.5" height="0.8"/>
<rect x="309.6" y="47.7" width="0.5" height="20.5"/>
<g>
	<path d="M309.7,47.8c0-1.8,2.5-3.5,4.5-3.5c1.3,0,2.3,0.7,2.3,1.7c0,1.7-2.5,3.5-4.6,3.5C310.6,49.5,309.7,48.9,309.7,47.8z"/>
</g>
<rect x="320.2" y="51.5" width="10.5" height="0.8"/>
<rect x="322" y="52.7" width="0.5" height="17.2"/>
<g>
	<path d="M322.1,52.7c0-1.8,2.5-3.5,4.5-3.5c1.3,0,2.3,0.7,2.3,1.7c0,1.7-2.5,3.5-4.6,3.5C323,54.5,322.1,53.8,322.1,52.7z"/>
</g>
<rect x="334.4" y="57.6" width="0.5" height="14"/>
<g>
	<path d="M334.5,57.7c0-1.8,2.5-3.5,4.5-3.5c1.3,0,2.3,0.7,2.3,1.7c0,1.7-2.5,3.5-4.6,3.5C335.4,59.4,334.5,58.8,334.5,57.7z"/>
</g>
<rect x="345" y="51.5" width="10.5" height="0.8"/>
<rect x="345" y="46.5" width="10.5" height="0.8"/>
<rect x="346.8" y="47.7" width="0.5" height="23.9"/>
<g>
	<path d="M346.9,47.8c0-1.8,2.5-3.5,4.5-3.5c1.3,0,2.3,0.7,2.3,1.7c0,1.7-2.5,3.5-4.6,3.5C347.8,49.5,346.9,48.9,346.9,47.8z"/>
</g>
<rect x="357.4" y="51.5" width="10.5" height="0.8"/>
<rect x="359.2" y="52.7" width="0.5" height="20.5"/>
<g>
	<path d="M359.3,52.7c0-1.8,2.5-3.5,4.5-3.5c1.3,0,2.3,0.7,2.3,1.7c0,1.7-2.5,3.5-4.6,3.5C360.2,54.5,359.3,53.8,359.3,52.7z"/>
</g>
<rect x="371.6" y="57.6" width="0.5" height="17.2"/>
<g>
	<path d="M371.7,57.7c0-1.8,2.5-3.5,4.5-3.5c1.3,0,2.3,0.7,2.3,1.7c0,1.7-2.5,3.5-4.6,3.5C372.6,59.4,371.7,58.8,371.7,57.7z"/>
</g>
<rect x="384" y="60.1" width="0.5" height="16.4"/>
<g>
	<path d="M384.1,60.2c0-1.8,2.5-3.5,4.5-3.5c1.3,0,2.3,0.7,2.3,1.7c0,1.7-2.5,3.5-4.6,3.5C385,61.9,384.1,61.3,384.1,60.2z"/>
</g>
<rect x="394.6" y="51.5" width="10.5" height="0.8"/>
<rect x="396.4" y="52.7" width="0.5" height="23.9"/>
<g>
	<path d="M396.5,52.7c0-1.8,2.5-3.5,4.5-3.5c1.3,0,2.3,0.7,2.3,1.7c0,1.7-2.5,3.5-4.6,3.5C397.4,54.5,396.5,53.8,396.5,52.7z"/>
</g>
<rect x="408.8" y="57.6" width="0.5" height="20.5"/>
<g>
	<path d="M408.9,57.7c0-1.8,2.5-3.5,4.5-3.5c1.3,0,2.3,0.7,2.3,1.7c0,1.7-2.5,3.5-4.6,3.5C409.8,59.4,408.9,58.8,408.9,57.7z"/>
</g>
<rect x="421.2" y="60.1" width="0.5" height="19.7"/>
<g>
	<path d="M421.3,60.2c0-1.8,2.5-3.5,4.5-3.5c1.3,0,2.3,0.7,2.3,1.7c0,1.7-2.5,3.5-4.6,3.5C422.2,61.9,421.3,61.3,421.3,60.2z"/>
</g>
<rect x="433.6" y="65.1" width="0.5" height="16.4"/>
<g>
	<path d="M433.7,65.1c0-1.8,2.5-3.5,4.5-3.5c1.3,0,2.3,0.7,2.3,1.7c0,1.7-2.5,3.5-4.6,3.5C434.6,66.9,433.7,66.2,433.7,65.1z"/>
</g>
<rect x="446" y="57.6" width="0.5" height="20.2"/>
<g>
	<path d="M446.1,57.7c0-1.8,2.5-3.5,4.5-3.5c1.3,0,2.3,0.7,2.3,1.7c0,1.7-2.5,3.5-4.6,3.5C447,59.4,446.1,58.8,446.1,57.7z"/>
</g>
<rect x="458.4" y="60.1" width="0.5" height="19.2"/>
<g>
	<path d="M458.5,60.2c0-1.8,2.5-3.5,4.5-3.5c1.3,0,2.3,0.7,2.3,1.7c0,1.7-2.5,3.5-4.6,3.5C459.4,61.9,458.5,61.3,458.5,60.2z"/>
</g>
<rect x="470.8" y="65.1" width="0.5" height="16"/>
<g>
	<path d="M470.9,65.1c0-1.8,2.5-3.5,4.5-3.5c1.3,0,2.3,0.7,2.3,1.7c0,1.7-2.5,3.5-4.6,3.5C471.8,66.9,470.9,66.2,470.9,65.1z"/>
</g>
<rect x="483.2" y="70" width="0.5" height="12.7"/>
<g>
	<path d="M483.3,70.1c0-1.8,2.5-3.5,4.5-3.5c1.3,0,2.3,0.7,2.3,1.7c0,1.7-2.5,3.5-4.6,3.5C484.2,71.8,483.3,71.2,483.3,70.1z"/>
</g>
<rect x="495.6" y="60.1" width="0.5" height="22.6"/>
<g>
	<path d="M495.7,60.2c0-1.8,2.5-3.5,4.5-3.5c1.3,0,2.3,0.7,2.3,1.7c0,1.7-2.5,3.5-4.6,3.5C496.6,61.9,495.7,61.3,495.7,60.2z"/>
</g>
<rect x="508" y="65.1" width="0.5" height="19.2"/>
<g>
	<path d="M508.1,65.1c0-1.8,2.5-3.5,4.5-3.5c1.3,0,2.3,0.7,2.3,1.7c0,1.7-2.5,3.5-4.6,3.5C509,66.9,508.1,66.2,508.1,65.1z"/>
</g>
<rect x="520.4" y="70" width="0.5" height="16"/>
<g>
	<path d="M520.5,70.1c0-1.8,2.5-3.5,4.5-3.5c1.3,0,2.3,0.7,2.3,1.7c0,1.7-2.5,3.5-4.6,3.5C521.4,71.8,520.5,71.2,520.5,70.1z"/>
</g>
<rect x="532.8" y="75" width="0.5" height="12.7"/>
<g>
	<path d="M532.9,75.1c0-1.8,2.5-3.5,4.5-3.5c1.3,0,2.3,0.7,2.3,1.7c0,1.7-2.5,3.5-4.6,3.5C533.8,76.8,532.9,76.1,532.9,75.1z"/>
</g>
</svg>
