<?xml version="1.0" encoding="utf-8"?>

<!--
	ScaleBook
	Copyright (c) Leland Jansen 2015. All rights reserved.
-->

<!DOCTYPE svg PUBLIC "-//W3C//DTD SVG 1.1//EN" "http://www.w3.org/Graphics/SVG/1.1/DTD/svg11.dtd">
<svg version="1.1" id="Layer_1" xmlns="http://www.w3.org/2000/svg" xmlns:xlink="http://www.w3.org/1999/xlink" x="0px" y="0px"
	 viewBox="0 0 552.9 92" enable-background="new 0 0 552.9 92" xml:space="preserve">
<rect x="8.4" y="12.5" width="0.8" height="67"/>
<g>
	<path d="M7.4,13.2c-1.9,1.1-3.6,5.8-3.6,9.4c0,2.3,1.4,9.9,1.4,12.3c0,5-1.5,8.6-4.6,11.1c3,2.4,4.6,6.1,4.6,11
		c0,2.3-1.4,9.9-1.4,12.3c0,3.8,1.7,8.4,3.6,9.5v0.7c-3.5-2.3-5.8-8.2-5.8-13.1c0-2.1,1.7-9.4,1.7-11.5c0-3.8-1-6.6-2.9-8.2
		C0.1,46.4,0,46.2,0,46s0.1-0.4,0.5-0.7c1.9-1.7,2.9-4.2,2.9-7.6c0-2.1-1.7-10-1.7-12.2c0-5.2,2.1-10.4,5.8-13.1V13.2z"/>
</g>
<rect x="547.8" y="12.5" width="0.8" height="67"/>
<rect x="550.4" y="12.5" width="2.5" height="67"/>
<rect x="8.5" y="32.1" width="544.4" height="0.5"/>
<rect x="8.5" y="27.2" width="544.4" height="0.5"/>
<rect x="8.5" y="22.2" width="544.4" height="0.5"/>
<rect x="8.5" y="17.2" width="544.4" height="0.5"/>
<rect x="8.5" y="12.3" width="544.4" height="0.5"/>
<g>
	<path d="M20.3,32.2c-4.2,0-8.1-3.1-8.1-6.9c0-3.2,2.3-6.7,6.8-10.5c-0.3-1.2-0.4-2.4-0.4-3.6c0-3.5,1.2-6.8,3.2-8.5
		c1.8,2.5,2.7,4.9,2.7,7.1c0,2.9-1.3,5.6-4.3,8.1l0.9,4.2c0.5,0,0.8-0.1,0.8-0.1c2.6,0,4.8,2,4.8,4.7c0,1.9-1.4,3.7-3.6,4.8
		c0-0.1,0.9,3.8,0.9,4.3c0,2.5-2.3,4.2-4.9,4.2c-2,0-3.6-1.3-3.6-3.4c0-1.4,1-2.6,2.4-2.6c1.3,0,2.3,1.3,2.3,2.5
		c0,1.4-1.2,2.3-2.7,2.5c0.6,0.3,1.2,0.5,1.9,0.5c2.1,0,4.1-1.6,4.1-3.6c0-0.2,0-0.4-0.1-0.6l-0.8-3.7
		C21.9,32.1,21.2,32.2,20.3,32.2z M18.1,27c0,1,0.5,1.9,1.6,2.5c-1.8-0.3-3-1.4-3-3.1c0-2,1.7-3.7,3.8-4.1l-0.8-4
		C16,21.1,14,23.8,14,26.4c0,2.9,2.8,5.3,6,5.3c0.9,0,1.7-0.2,2.4-0.5L21,24.4C19.4,24.6,18.1,25.6,18.1,27z M22.1,5.6
		c-1.6,0-2.9,3.7-2.9,7c0,0.7,0,1.3,0.2,1.9c2.7-2.4,4-4.5,4-6.5c0-0.9-0.3-1.7-1-2.4C22.4,5.7,22.3,5.6,22.1,5.6z M24.9,27.5
		c0-1.6-1.2-3.3-2.9-3.3c-0.1,0-0.2,0-0.5,0l1.4,6.6C24.2,30,24.9,28.8,24.9,27.5z"/>
</g>
<g>
	<path d="M33.5,5.7v2.8l1-0.3V10l-1,0.3v3.4l1-0.3v1.8l-1,0.3v3.1H33v-3l-1.9,0.6v3h-0.5v-2.8l-1,0.3V15l1-0.3v-3.4l-1,0.3V9.8
		l1-0.3V6.3h0.5v3L33,8.7v-3H33.5z M33,10.5l-1.9,0.6v3.4l1.9-0.6V10.5z"/>
</g>
<polygon fill-rule="evenodd" clip-rule="evenodd" points="49.8,17.5 85,12.5 85,10 49.8,15 "/>
<polygon fill-rule="evenodd" clip-rule="evenodd" points="49.8,13.8 85,8.8 85,6.3 49.8,11.3 "/>
<polygon fill-rule="evenodd" clip-rule="evenodd" points="96.8,13.8 132,8.8 132,6.3 96.8,11.3 "/>
<polygon fill-rule="evenodd" clip-rule="evenodd" points="96.8,10 132,5.1 132,2.6 96.8,7.6 "/>
<polygon fill-rule="evenodd" clip-rule="evenodd" points="153.7,34.8 188.9,29.9 188.9,27.4 153.7,32.4 "/>
<polygon fill-rule="evenodd" clip-rule="evenodd" points="153.7,38.6 188.9,33.6 188.9,31.1 153.7,36.1 "/>
<polygon fill-rule="evenodd" clip-rule="evenodd" points="200.5,33.6 235.7,28.6 235.7,26.2 200.5,31.1 "/>
<polygon fill-rule="evenodd" clip-rule="evenodd" points="200.5,37.3 235.7,32.4 235.7,29.9 200.5,34.8 "/>
<polygon fill-rule="evenodd" clip-rule="evenodd" points="247.5,28.6 282.7,23.7 282.7,21.2 247.5,26.2 "/>
<polygon fill-rule="evenodd" clip-rule="evenodd" points="247.5,32.4 282.7,27.4 282.7,24.9 247.5,29.9 "/>
<polygon fill-rule="evenodd" clip-rule="evenodd" points="294.5,23.7 329.5,28.6 329.5,26.2 294.5,21.2 "/>
<polygon fill-rule="evenodd" clip-rule="evenodd" points="294.5,27.4 329.5,32.4 329.5,29.9 294.5,24.9 "/>
<polygon fill-rule="evenodd" clip-rule="evenodd" points="341.3,28.6 376.5,33.6 376.5,31.1 341.3,26.2 "/>
<polygon fill-rule="evenodd" clip-rule="evenodd" points="341.3,32.4 376.5,37.3 376.5,34.8 341.3,29.9 "/>
<polygon fill-rule="evenodd" clip-rule="evenodd" points="388.2,29.9 423.4,34.8 423.4,32.4 388.2,27.4 "/>
<polygon fill-rule="evenodd" clip-rule="evenodd" points="388.2,33.6 423.4,38.6 423.4,36.1 388.2,31.1 "/>
<polygon fill-rule="evenodd" clip-rule="evenodd" points="458.2,8.8 493.3,13.8 493.3,11.3 458.2,6.3 "/>
<polygon fill-rule="evenodd" clip-rule="evenodd" points="458.2,5.1 493.3,10 493.3,7.6 458.2,2.6 "/>
<polygon fill-rule="evenodd" clip-rule="evenodd" points="505,12.5 540.2,17.5 540.2,15 505,10 "/>
<polygon fill-rule="evenodd" clip-rule="evenodd" points="505,8.8 540.2,13.8 540.2,11.3 505,6.3 "/>
<rect x="8.5" y="79.3" width="544.4" height="0.5"/>
<rect x="8.5" y="74.3" width="544.4" height="0.5"/>
<rect x="8.5" y="69.3" width="544.4" height="0.5"/>
<rect x="8.5" y="64.4" width="544.4" height="0.5"/>
<rect x="8.5" y="59.4" width="544.4" height="0.5"/>
<g>
	<path d="M15.7,73.8c2.9-2.6,4.7-6.1,4.7-9.2c0-2.5-1.4-4.4-3.7-4.4c-1.6,0-3.4,1.3-3.4,2.7c0,0.2,0,0.3,0.1,0.3
		c-0.1,0,0.6-0.6,1.4-0.6c0.9,0,1.5,0.8,1.5,1.7c0,1.2-0.9,2.2-2.1,2.2c-1.2,0-2.1-1.3-2.1-2.8c0-2.3,2.3-4.1,4.8-4.1
		c4.7,0,5.9,3.2,5.9,5.8c0,1.6-0.4,2.9-2,5.3C19.1,73.8,14.6,76,13,76c-0.4,0-0.6-0.2-0.6-0.5C13.8,75.1,14.9,74.5,15.7,73.8z
		 M25.7,61.1c0.6,0,1,0.4,1,1s-0.4,1-1,1s-1-0.4-1-1S25.1,61.1,25.7,61.1z M25.7,66.1c0.6,0,1,0.4,1,1s-0.4,1-1,1s-1-0.4-1-1
		S25.1,66.1,25.7,66.1z"/>
</g>
<g>
	<path d="M33.5,57.8v2.8l1-0.3v1.8l-1,0.3v3.4l1-0.3v1.8l-1,0.3v3.1H33v-3l-1.9,0.6v3h-0.5v-2.8l-1,0.3v-1.8l1-0.3v-3.4l-1,0.3v-1.8
		l1-0.3v-3.1h0.5v3l1.9-0.6v-3H33.5z M33,62.6l-1.9,0.6v3.4L33,66V62.6z"/>
</g>
<polygon fill-rule="evenodd" clip-rule="evenodd" points="43.3,80.7 78.5,75.8 78.5,73.3 43.3,78.2 "/>
<polygon fill-rule="evenodd" clip-rule="evenodd" points="43.3,84.4 78.5,79.5 78.5,77 43.3,82 "/>
<g>
	<path d="M145.7,78.1c-3.2,0-6.1-2.3-6.1-5.1c0-2.4,1.7-5,5.1-7.9c-0.2-0.9-0.3-1.8-0.3-2.7c0-2.6,0.9-5.1,2.4-6.3
		c1.4,1.9,2,3.7,2,5.3c0,2.2-1,4.2-3.2,6.1l0.7,3.1c0.4,0,0.6,0,0.6,0c2,0,3.6,1.5,3.6,3.5c0,1.4-1.1,2.8-2.7,3.6
		c0-0.1,0.6,2.8,0.6,3.3c0,1.9-1.7,3.2-3.7,3.2c-1.5,0-2.7-1-2.7-2.5c0-1.1,0.7-1.9,1.8-1.9c1,0,1.7,1,1.7,1.9c0,1-0.9,1.7-2,1.8
		c0.4,0.2,0.9,0.3,1.4,0.3c1.6,0,3.1-1.2,3.1-2.7c0-0.1,0-0.3,0-0.5l-0.6-2.8C146.9,78,146.4,78.1,145.7,78.1z M144,74.2
		c0,0.8,0.4,1.4,1.2,1.9c-1.3-0.2-2.2-1.1-2.2-2.3c0-1.5,1.3-2.8,2.9-3.1l-0.6-3c-2.8,2.1-4.3,4.1-4.3,6.1c0,2.2,2.1,4,4.5,4
		c0.7,0,1.3-0.1,1.8-0.4l-1.1-5.1C145,72.4,144,73.2,144,74.2z M147.1,58.2c-1.2,0-2.2,2.8-2.2,5.3c0,0.5,0,1,0.1,1.4
		c2-1.8,3-3.4,3-4.8c0-0.7-0.3-1.3-0.7-1.8C147.3,58.2,147.2,58.2,147.1,58.2z M149.1,74.6c0-1.2-0.9-2.4-2.2-2.4c0,0-0.2,0-0.4,0
		l1.1,5C148.6,76.5,149.1,75.6,149.1,74.6z"/>
</g>
<polygon fill-rule="evenodd" clip-rule="evenodd" points="90.3,75.8 125.5,70.8 125.5,68.3 90.3,73.3 "/>
<polygon fill-rule="evenodd" clip-rule="evenodd" points="90.3,79.5 125.5,74.5 125.5,72 90.3,77 "/>
<polygon fill-rule="evenodd" clip-rule="evenodd" points="160.2,70.8 195.4,65.8 195.4,63.4 160.2,68.3 "/>
<polygon fill-rule="evenodd" clip-rule="evenodd" points="160.2,67.1 195.4,62.1 195.4,59.6 160.2,64.6 "/>
<polygon fill-rule="evenodd" clip-rule="evenodd" points="207,65.8 242.2,60.9 242.2,58.4 207,63.4 "/>
<polygon fill-rule="evenodd" clip-rule="evenodd" points="207,62.1 242.2,57.2 242.2,54.7 207,59.6 "/>
<polygon fill-rule="evenodd" clip-rule="evenodd" points="254,64.6 289.2,59.6 289.2,57.2 254,62.1 "/>
<polygon fill-rule="evenodd" clip-rule="evenodd" points="254,60.9 289.2,55.9 289.2,53.4 254,58.4 "/>
<polygon fill-rule="evenodd" clip-rule="evenodd" points="301,59.6 336,64.6 336,62.1 301,57.2 "/>
<polygon fill-rule="evenodd" clip-rule="evenodd" points="301,55.9 336,60.9 336,58.4 301,53.4 "/>
<polygon fill-rule="evenodd" clip-rule="evenodd" points="347.8,60.9 383,65.8 383,63.4 347.8,58.4 "/>
<polygon fill-rule="evenodd" clip-rule="evenodd" points="347.8,57.2 383,62.1 383,59.6 347.8,54.7 "/>
<g>
	<path d="M440.2,71.5c2.2-2,3.6-4.6,3.6-6.9c0-1.9-1.1-3.3-2.8-3.3c-1.2,0-2.5,1-2.5,2.1c0,0.2,0,0.2,0.1,0.2c0,0,0.4-0.5,1-0.5
		c0.7,0,1.2,0.6,1.2,1.3c0,0.9-0.6,1.7-1.6,1.7s-1.5-1-1.5-2.1c0-1.8,1.7-3.1,3.6-3.1c3.5,0,4.4,2.4,4.4,4.4c0,1.2-0.3,2.2-1.5,4
		c-1.4,2.3-4.8,4-6,4c-0.3,0-0.5-0.1-0.5-0.3C438.8,72.5,439.6,72,440.2,71.5z M447.7,62c0.4,0,0.7,0.3,0.7,0.7
		c0,0.4-0.3,0.7-0.7,0.7c-0.4,0-0.7-0.3-0.7-0.7C446.9,62.3,447.2,62,447.7,62z M447.7,65.7c0.4,0,0.7,0.3,0.7,0.7s-0.3,0.7-0.7,0.7
		c-0.4,0-0.7-0.3-0.7-0.7S447.2,65.7,447.7,65.7z"/>
</g>
<polygon fill-rule="evenodd" clip-rule="evenodd" points="394.8,65.8 429.9,70.8 429.9,68.3 394.8,63.4 "/>
<polygon fill-rule="evenodd" clip-rule="evenodd" points="394.8,62.1 429.9,67.1 429.9,64.6 394.8,59.6 "/>
<polygon fill-rule="evenodd" clip-rule="evenodd" points="451.6,70.8 486.8,75.8 486.8,73.3 451.6,68.3 "/>
<polygon fill-rule="evenodd" clip-rule="evenodd" points="451.6,74.5 486.8,79.5 486.8,77 451.6,72 "/>
<polygon fill-rule="evenodd" clip-rule="evenodd" points="498.5,75.8 533.7,80.7 533.7,78.2 498.5,73.3 "/>
<polygon fill-rule="evenodd" clip-rule="evenodd" points="498.5,79.5 533.7,84.4 533.7,82 498.5,77 "/>
<rect x="49.6" y="11.4" width="0.5" height="22.6"/>
<g>
	<path d="M43.2,35.7c0-1.8,2.5-3.5,4.5-3.5c1.3,0,2.3,0.7,2.3,1.7c0,1.7-2.5,3.5-4.6,3.5C44.2,37.4,43.2,36.8,43.2,35.7z"/>
</g>
<rect x="61.4" y="9.9" width="0.5" height="19.2"/>
<g>
	<path d="M55,30.7c0-1.8,2.5-3.5,4.5-3.5c1.3,0,2.3,0.7,2.3,1.7c0,1.7-2.5,3.5-4.6,3.5C55.9,32.5,55,31.8,55,30.7z"/>
</g>
<rect x="73" y="8.2" width="0.5" height="16"/>
<g>
	<path d="M66.6,25.8c0-1.8,2.5-3.5,4.5-3.5c1.3,0,2.3,0.7,2.3,1.7c0,1.7-2.5,3.5-4.6,3.5C67.6,27.5,66.6,26.9,66.6,25.8z"/>
</g>
<rect x="84.8" y="6.5" width="0.5" height="12.7"/>
<g>
	<path d="M78.4,20.8c0-1.8,2.5-3.5,4.5-3.5c1.3,0,2.3,0.7,2.3,1.7c0,1.7-2.5,3.5-4.6,3.5C79.3,22.5,78.4,21.9,78.4,20.8z"/>
</g>
<rect x="96.6" y="7.7" width="0.5" height="21.4"/>
<g>
	<path d="M90.2,30.7c0-1.8,2.5-3.5,4.5-3.5c1.3,0,2.3,0.7,2.3,1.7c0,1.7-2.5,3.5-4.6,3.5C91.1,32.5,90.2,31.8,90.2,30.7z"/>
</g>
<rect x="108.2" y="6.2" width="0.5" height="18"/>
<g>
	<path d="M101.8,25.8c0-1.8,2.5-3.5,4.5-3.5c1.3,0,2.3,0.7,2.3,1.7c0,1.7-2.5,3.5-4.6,3.5C102.8,27.5,101.8,26.9,101.8,25.8z"/>
</g>
<rect x="120" y="4.5" width="0.5" height="14.7"/>
<g>
	<path d="M113.6,20.8c0-1.8,2.5-3.5,4.5-3.5c1.3,0,2.3,0.7,2.3,1.7c0,1.7-2.5,3.5-4.6,3.5C114.5,22.5,113.6,21.9,113.6,20.8z"/>
</g>
<rect x="131.8" y="2.8" width="0.5" height="14"/>
<g>
	<path d="M125.3,18.3c0-1.8,2.5-3.5,4.5-3.5c1.3,0,2.3,0.7,2.3,1.7c0,1.7-2.5,3.5-4.6,3.5C126.3,20.1,125.3,19.4,125.3,18.3z"/>
</g>
<rect x="153.5" y="25.7" width="0.5" height="12.7"/>
<g>
	<path d="M153.6,25.8c0-1.8,2.5-3.5,4.5-3.5c1.3,0,2.3,0.7,2.3,1.7c0,1.7-2.5,3.5-4.6,3.5C154.5,27.5,153.6,26.9,153.6,25.8z"/>
</g>
<rect x="165.1" y="20.7" width="0.5" height="16.1"/>
<g>
	<path d="M165.2,20.8c0-1.8,2.5-3.5,4.5-3.5c1.3,0,2.3,0.7,2.3,1.7c0,1.7-2.5,3.5-4.6,3.5C166.2,22.5,165.2,21.9,165.2,20.8z"/>
</g>
<rect x="176.9" y="18.3" width="0.5" height="16.9"/>
<g>
	<path d="M177,18.3c0-1.8,2.5-3.5,4.5-3.5c1.3,0,2.3,0.7,2.3,1.7c0,1.7-2.5,3.5-4.6,3.5C177.9,20.1,177,19.4,177,18.3z"/>
</g>
<rect x="188.7" y="13.3" width="0.5" height="20.2"/>
<g>
	<path d="M188.7,13.4c0-1.8,2.5-3.5,4.5-3.5c1.3,0,2.3,0.7,2.3,1.7c0,1.7-2.5,3.5-4.6,3.5C189.7,15.1,188.7,14.5,188.7,13.4z"/>
</g>
<rect x="200.3" y="20.7" width="0.5" height="16.4"/>
<g>
	<path d="M200.4,20.8c0-1.8,2.5-3.5,4.5-3.5c1.3,0,2.3,0.7,2.3,1.7c0,1.7-2.5,3.5-4.6,3.5C201.3,22.5,200.4,21.9,200.4,20.8z"/>
</g>
<rect x="212.1" y="18.3" width="0.5" height="17.4"/>
<g>
	<path d="M212.1,18.3c0-1.8,2.5-3.5,4.5-3.5c1.3,0,2.3,0.7,2.3,1.7c0,1.7-2.5,3.5-4.6,3.5C213.1,20.1,212.1,19.4,212.1,18.3z"/>
</g>
<rect x="223.9" y="13.3" width="0.5" height="20.6"/>
<g>
	<path d="M223.9,13.4c0-1.8,2.5-3.5,4.5-3.5c1.3,0,2.3,0.7,2.3,1.7c0,1.7-2.5,3.5-4.6,3.5C224.9,15.1,223.9,14.5,223.9,13.4z"/>
</g>
<rect x="233.7" y="7.2" width="10.5" height="0.8"/>
<rect x="235.5" y="8.3" width="0.5" height="23.9"/>
<g>
	<path d="M235.6,8.4c0-1.8,2.5-3.5,4.5-3.5c1.3,0,2.3,0.7,2.3,1.7c0,1.7-2.5,3.5-4.6,3.5C236.5,10.1,235.6,9.5,235.6,8.4z"/>
</g>
<rect x="247.3" y="18.3" width="0.5" height="14"/>
<g>
	<path d="M247.3,18.3c0-1.8,2.5-3.5,4.5-3.5c1.3,0,2.3,0.7,2.3,1.7c0,1.7-2.5,3.5-4.6,3.5C248.3,20.1,247.3,19.4,247.3,18.3z"/>
</g>
<rect x="259" y="13.3" width="0.5" height="17.4"/>
<g>
	<path d="M259.1,13.4c0-1.8,2.5-3.5,4.5-3.5c1.3,0,2.3,0.7,2.3,1.7c0,1.7-2.5,3.5-4.6,3.5C260.1,15.1,259.1,14.5,259.1,13.4z"/>
</g>
<rect x="268.9" y="7.2" width="10.5" height="0.8"/>
<rect x="270.7" y="8.3" width="0.5" height="20.6"/>
<g>
	<path d="M270.7,8.4c0-1.8,2.5-3.5,4.5-3.5c1.3,0,2.3,0.7,2.3,1.7c0,1.7-2.5,3.5-4.6,3.5C271.7,10.1,270.7,9.5,270.7,8.4z"/>
</g>
<rect x="280.7" y="7.2" width="10.5" height="0.8"/>
<rect x="280.7" y="2.2" width="10.5" height="0.8"/>
<rect x="282.4" y="3.4" width="0.5" height="23.9"/>
<g>
	<path d="M282.5,3.5c0-1.8,2.5-3.5,4.5-3.5c1.3,0,2.3,0.7,2.3,1.7c0,1.7-2.5,3.5-4.6,3.5C283.5,5.2,282.5,4.5,282.5,3.5z"/>
</g>
<rect x="292.4" y="7.2" width="10.5" height="0.8"/>
<rect x="292.4" y="2.2" width="10.5" height="0.8"/>
<rect x="294.2" y="3.4" width="0.5" height="23.9"/>
<g>
	<path d="M294.3,3.5c0-1.8,2.5-3.5,4.5-3.5c1.3,0,2.3,0.7,2.3,1.7c0,1.7-2.5,3.5-4.6,3.5C295.3,5.2,294.3,4.5,294.3,3.5z"/>
</g>
<rect x="304.1" y="7.2" width="10.5" height="0.8"/>
<rect x="305.9" y="8.3" width="0.5" height="20.5"/>
<g>
	<path d="M305.9,8.4c0-1.8,2.5-3.5,4.5-3.5c1.3,0,2.3,0.7,2.3,1.7c0,1.7-2.5,3.5-4.6,3.5C306.9,10.1,305.9,9.5,305.9,8.4z"/>
</g>
<rect x="317.6" y="13.3" width="0.5" height="17.2"/>
<g>
	<path d="M317.7,13.4c0-1.8,2.5-3.5,4.5-3.5c1.3,0,2.3,0.7,2.3,1.7c0,1.7-2.5,3.5-4.6,3.5C318.7,15.1,317.7,14.5,317.7,13.4z"/>
</g>
<rect x="329.3" y="18.3" width="0.5" height="14"/>
<g>
	<path d="M329.3,18.3c0-1.8,2.5-3.5,4.5-3.5c1.3,0,2.3,0.7,2.3,1.7c0,1.7-2.5,3.5-4.6,3.5C330.3,20.1,329.3,19.4,329.3,18.3z"/>
</g>
<rect x="339.3" y="7.2" width="10.5" height="0.8"/>
<rect x="341" y="8.3" width="0.5" height="23.9"/>
<g>
	<path d="M341.1,8.4c0-1.8,2.5-3.5,4.5-3.5c1.3,0,2.3,0.7,2.3,1.7c0,1.7-2.5,3.5-4.6,3.5C342.1,10.1,341.1,9.5,341.1,8.4z"/>
</g>
<rect x="352.8" y="13.3" width="0.5" height="20.5"/>
<g>
	<path d="M352.9,13.4c0-1.8,2.5-3.5,4.5-3.5c1.3,0,2.3,0.7,2.3,1.7c0,1.7-2.5,3.5-4.6,3.5C353.9,15.1,352.9,14.5,352.9,13.4z"/>
</g>
<rect x="364.5" y="18.3" width="0.5" height="17.2"/>
<g>
	<path d="M364.5,18.3c0-1.8,2.5-3.5,4.5-3.5c1.3,0,2.3,0.7,2.3,1.7c0,1.7-2.5,3.5-4.6,3.5C365.5,20.1,364.5,19.4,364.5,18.3z"/>
</g>
<rect x="376.2" y="20.7" width="0.5" height="16.4"/>
<g>
	<path d="M376.3,20.8c0-1.8,2.5-3.5,4.5-3.5c1.3,0,2.3,0.7,2.3,1.7c0,1.7-2.5,3.5-4.6,3.5C377.3,22.5,376.3,21.9,376.3,20.8z"/>
</g>
<rect x="388" y="13.3" width="0.5" height="20.2"/>
<g>
	<path d="M388.1,13.4c0-1.8,2.5-3.5,4.5-3.5c1.3,0,2.3,0.7,2.3,1.7c0,1.7-2.5,3.5-4.6,3.5C389.1,15.1,388.1,14.5,388.1,13.4z"/>
</g>
<rect x="399.6" y="18.3" width="0.5" height="16.7"/>
<g>
	<path d="M399.7,18.3c0-1.8,2.5-3.5,4.5-3.5c1.3,0,2.3,0.7,2.3,1.7c0,1.7-2.5,3.5-4.6,3.5C400.7,20.1,399.7,19.4,399.7,18.3z"/>
</g>
<rect x="411.4" y="20.7" width="0.5" height="16"/>
<g>
	<path d="M411.5,20.8c0-1.8,2.5-3.5,4.5-3.5c1.3,0,2.3,0.7,2.3,1.7c0,1.7-2.5,3.5-4.6,3.5C412.5,22.5,411.5,21.9,411.5,20.8z"/>
</g>
<rect x="423.2" y="25.7" width="0.5" height="12.7"/>
<g>
	<path d="M423.3,25.8c0-1.8,2.5-3.5,4.5-3.5c1.3,0,2.3,0.7,2.3,1.7c0,1.7-2.5,3.5-4.6,3.5C424.3,27.5,423.3,26.9,423.3,25.8z"/>
</g>
<rect x="457.9" y="2.8" width="0.5" height="14"/>
<g>
	<path d="M451.5,18.3c0-1.8,2.5-3.5,4.5-3.5c1.3,0,2.3,0.7,2.3,1.7c0,1.7-2.5,3.5-4.6,3.5C452.5,20.1,451.5,19.4,451.5,18.3z"/>
</g>
<rect x="469.6" y="4.3" width="0.5" height="14.9"/>
<g>
	<path d="M463.1,20.8c0-1.8,2.5-3.5,4.5-3.5c1.3,0,2.3,0.7,2.3,1.7c0,1.7-2.5,3.5-4.6,3.5C464.1,22.5,463.1,21.9,463.1,20.8z"/>
</g>
<rect x="481.3" y="6" width="0.5" height="18.1"/>
<g>
	<path d="M474.9,25.8c0-1.8,2.5-3.5,4.5-3.5c1.3,0,2.3,0.7,2.3,1.7c0,1.7-2.5,3.5-4.6,3.5C475.9,27.5,474.9,26.9,474.9,25.8z"/>
</g>
<rect x="493.1" y="7.7" width="0.5" height="21.4"/>
<g>
	<path d="M486.7,30.7c0-1.8,2.5-3.5,4.5-3.5c1.3,0,2.3,0.7,2.3,1.7c0,1.7-2.5,3.5-4.6,3.5C487.7,32.5,486.7,31.8,486.7,30.7z"/>
</g>
<rect x="504.7" y="6.5" width="0.5" height="12.7"/>
<g>
	<path d="M498.3,20.8c0-1.8,2.5-3.5,4.5-3.5c1.3,0,2.3,0.7,2.3,1.7c0,1.7-2.5,3.5-4.6,3.5C499.3,22.5,498.3,21.9,498.3,20.8z"/>
</g>
<rect x="516.5" y="8" width="0.5" height="16.1"/>
<g>
	<path d="M510.1,25.8c0-1.8,2.5-3.5,4.5-3.5c1.3,0,2.3,0.7,2.3,1.7c0,1.7-2.5,3.5-4.6,3.5C511.1,27.5,510.1,26.9,510.1,25.8z"/>
</g>
<rect x="528.3" y="9.7" width="0.5" height="19.4"/>
<g>
	<path d="M521.9,30.7c0-1.8,2.5-3.5,4.5-3.5c1.3,0,2.3,0.7,2.3,1.7c0,1.7-2.5,3.5-4.6,3.5C522.8,32.5,521.9,31.8,521.9,30.7z"/>
</g>
<rect x="539.9" y="11.4" width="0.5" height="22.6"/>
<g>
	<path d="M533.5,35.7c0-1.8,2.5-3.5,4.5-3.5c1.3,0,2.3,0.7,2.3,1.7c0,1.7-2.5,3.5-4.6,3.5C534.5,37.4,533.5,36.8,533.5,35.7z"/>
</g>
<rect x="43.1" y="70.3" width="0.5" height="14"/>
<g>
	<path d="M43.2,70.4c0-1.8,2.5-3.5,4.5-3.5c1.3,0,2.3,0.7,2.3,1.7c0,1.7-2.5,3.5-4.6,3.5C44.2,72.1,43.2,71.5,43.2,70.4z"/>
</g>
<rect x="54.9" y="65.4" width="0.5" height="17.4"/>
<g>
	<path d="M55,65.5c0-1.8,2.5-3.5,4.5-3.5c1.3,0,2.3,0.7,2.3,1.7c0,1.7-2.5,3.5-4.6,3.5C55.9,67.2,55,66.5,55,65.5z"/>
</g>
<rect x="66.5" y="60.4" width="0.5" height="20.6"/>
<g>
	<path d="M66.6,60.5c0-1.8,2.5-3.5,4.5-3.5c1.3,0,2.3,0.7,2.3,1.7c0,1.7-2.5,3.5-4.6,3.5C67.6,62.2,66.6,61.6,66.6,60.5z"/>
</g>
<rect x="76.5" y="54.3" width="10.5" height="0.8"/>
<rect x="78.3" y="55.5" width="0.5" height="23.9"/>
<g>
	<path d="M78.4,55.5c0-1.8,2.5-3.5,4.5-3.5c1.3,0,2.3,0.7,2.3,1.7c0,1.7-2.5,3.5-4.6,3.5C79.3,57.3,78.4,56.6,78.4,55.5z"/>
</g>
<rect x="90.1" y="65.4" width="0.5" height="14"/>
<g>
	<path d="M90.2,65.5c0-1.8,2.5-3.5,4.5-3.5c1.3,0,2.3,0.7,2.3,1.7c0,1.7-2.5,3.5-4.6,3.5C91.1,67.2,90.2,66.5,90.2,65.5z"/>
</g>
<rect x="101.7" y="60.4" width="0.5" height="17.4"/>
<g>
	<path d="M101.8,60.5c0-1.8,2.5-3.5,4.5-3.5c1.3,0,2.3,0.7,2.3,1.7c0,1.7-2.5,3.5-4.6,3.5C102.8,62.2,101.8,61.6,101.8,60.5z"/>
</g>
<rect x="111.7" y="54.3" width="10.5" height="0.8"/>
<rect x="113.5" y="55.5" width="0.5" height="20.6"/>
<g>
	<path d="M113.6,55.5c0-1.8,2.5-3.5,4.5-3.5c1.3,0,2.3,0.7,2.3,1.7c0,1.7-2.5,3.5-4.6,3.5C114.5,57.3,113.6,56.6,113.6,55.5z"/>
</g>
<rect x="123.5" y="54.3" width="10.5" height="0.8"/>
<rect x="125.3" y="53" width="0.5" height="21.4"/>
<g>
	<path d="M125.3,53.1c0-1.8,2.5-3.5,4.5-3.5c1.3,0,2.3,0.7,2.3,1.7c0,1.7-2.5,3.5-4.6,3.5C126.3,54.8,125.3,54.1,125.3,53.1z"/>
</g>
<rect x="151.7" y="84.1" width="10.5" height="0.8"/>
<rect x="151.7" y="89" width="10.5" height="0.8"/>
<rect x="160" y="64.8" width="0.5" height="23.9"/>
<g>
	<path d="M153.6,90.3c0-1.8,2.5-3.5,4.5-3.5c1.3,0,2.3,0.7,2.3,1.7c0,1.7-2.5,3.5-4.6,3.5C154.5,92,153.6,91.3,153.6,90.3z"/>
</g>
<rect x="163.3" y="84.1" width="10.5" height="0.8"/>
<rect x="171.6" y="63.2" width="0.5" height="20.5"/>
<g>
	<path d="M165.2,85.3c0-1.8,2.5-3.5,4.5-3.5c1.3,0,2.3,0.7,2.3,1.7c0,1.7-2.5,3.5-4.6,3.5C166.2,87,165.2,86.4,165.2,85.3z"/>
</g>
<rect x="183.4" y="61.5" width="0.5" height="19.7"/>
<g>
	<path d="M177,82.8c0-1.8,2.5-3.5,4.5-3.5c1.3,0,2.3,0.7,2.3,1.7c0,1.7-2.5,3.5-4.6,3.5C177.9,84.5,177,83.9,177,82.8z"/>
</g>
<rect x="195.2" y="59.8" width="0.5" height="16.4"/>
<g>
	<path d="M188.7,77.9c0-1.8,2.5-3.5,4.5-3.5c1.3,0,2.3,0.7,2.3,1.7c0,1.7-2.5,3.5-4.6,3.5C189.7,79.6,188.7,78.9,188.7,77.9z"/>
</g>
<rect x="198.5" y="84.1" width="10.5" height="0.8"/>
<rect x="206.8" y="59.8" width="0.5" height="23.9"/>
<g>
	<path d="M200.4,85.3c0-1.8,2.5-3.5,4.5-3.5c1.3,0,2.3,0.7,2.3,1.7c0,1.7-2.5,3.5-4.6,3.5C201.3,87,200.4,86.4,200.4,85.3z"/>
</g>
<rect x="218.6" y="58.2" width="0.5" height="22.9"/>
<g>
	<path d="M212.1,82.8c0-1.8,2.5-3.5,4.5-3.5c1.3,0,2.3,0.7,2.3,1.7c0,1.7-2.5,3.5-4.6,3.5C213.1,84.5,212.1,83.9,212.1,82.8z"/>
</g>
<rect x="230.4" y="56.5" width="0.5" height="19.7"/>
<g>
	<path d="M223.9,77.9c0-1.8,2.5-3.5,4.5-3.5c1.3,0,2.3,0.7,2.3,1.7c0,1.7-2.5,3.5-4.6,3.5C224.9,79.6,223.9,78.9,223.9,77.9z"/>
</g>
<rect x="242" y="54.8" width="0.5" height="16.4"/>
<g>
	<path d="M235.6,72.9c0-1.8,2.5-3.5,4.5-3.5c1.3,0,2.3,0.7,2.3,1.7c0,1.7-2.5,3.5-4.6,3.5C236.5,74.6,235.6,74,235.6,72.9z"/>
</g>
<rect x="253.8" y="58.6" width="0.5" height="22.6"/>
<g>
	<path d="M247.3,82.8c0-1.8,2.5-3.5,4.5-3.5c1.3,0,2.3,0.7,2.3,1.7c0,1.7-2.5,3.5-4.6,3.5C248.3,84.5,247.3,83.9,247.3,82.8z"/>
</g>
<rect x="265.6" y="57" width="0.5" height="19.2"/>
<g>
	<path d="M259.1,77.9c0-1.8,2.5-3.5,4.5-3.5c1.3,0,2.3,0.7,2.3,1.7c0,1.7-2.5,3.5-4.6,3.5C260.1,79.6,259.1,78.9,259.1,77.9z"/>
</g>
<rect x="277.2" y="55.3" width="0.5" height="16"/>
<g>
	<path d="M270.7,72.9c0-1.8,2.5-3.5,4.5-3.5c1.3,0,2.3,0.7,2.3,1.7c0,1.7-2.5,3.5-4.6,3.5C271.7,74.6,270.7,74,270.7,72.9z"/>
</g>
<rect x="289" y="53.6" width="0.5" height="12.7"/>
<g>
	<path d="M282.5,67.9c0-1.8,2.5-3.5,4.5-3.5c1.3,0,2.3,0.7,2.3,1.7c0,1.7-2.5,3.5-4.6,3.5C283.5,69.7,282.5,69,282.5,67.9z"/>
</g>
<rect x="300.7" y="53.6" width="0.5" height="12.7"/>
<g>
	<path d="M294.3,67.9c0-1.8,2.5-3.5,4.5-3.5c1.3,0,2.3,0.7,2.3,1.7c0,1.7-2.5,3.5-4.6,3.5C295.3,69.7,294.3,69,294.3,67.9z"/>
</g>
<rect x="312.4" y="55.1" width="0.5" height="16.1"/>
<g>
	<path d="M305.9,72.9c0-1.8,2.5-3.5,4.5-3.5c1.3,0,2.3,0.7,2.3,1.7c0,1.7-2.5,3.5-4.6,3.5C306.9,74.6,305.9,74,305.9,72.9z"/>
</g>
<rect x="324.1" y="56.9" width="0.5" height="19.4"/>
<g>
	<path d="M317.7,77.9c0-1.8,2.5-3.5,4.5-3.5c1.3,0,2.3,0.7,2.3,1.7c0,1.7-2.5,3.5-4.6,3.5C318.7,79.6,317.7,78.9,317.7,77.9z"/>
</g>
<rect x="335.8" y="58.6" width="0.5" height="22.6"/>
<g>
	<path d="M329.3,82.8c0-1.8,2.5-3.5,4.5-3.5c1.3,0,2.3,0.7,2.3,1.7c0,1.7-2.5,3.5-4.6,3.5C330.3,84.5,329.3,83.9,329.3,82.8z"/>
</g>
<rect x="347.6" y="54.8" width="0.5" height="16.4"/>
<g>
	<path d="M341.1,72.9c0-1.8,2.5-3.5,4.5-3.5c1.3,0,2.3,0.7,2.3,1.7c0,1.7-2.5,3.5-4.6,3.5C342.1,74.6,341.1,74,341.1,72.9z"/>
</g>
<rect x="359.3" y="56.4" width="0.5" height="19.8"/>
<g>
	<path d="M352.9,77.9c0-1.8,2.5-3.5,4.5-3.5c1.3,0,2.3,0.7,2.3,1.7c0,1.7-2.5,3.5-4.6,3.5C353.9,79.6,352.9,78.9,352.9,77.9z"/>
</g>
<rect x="371" y="58.1" width="0.5" height="23.1"/>
<g>
	<path d="M364.5,82.8c0-1.8,2.5-3.5,4.5-3.5c1.3,0,2.3,0.7,2.3,1.7c0,1.7-2.5,3.5-4.6,3.5C365.5,84.5,364.5,83.9,364.5,82.8z"/>
</g>
<rect x="374.5" y="84.1" width="10.5" height="0.8"/>
<rect x="382.7" y="59.8" width="0.5" height="23.9"/>
<g>
	<path d="M376.3,85.3c0-1.8,2.5-3.5,4.5-3.5c1.3,0,2.3,0.7,2.3,1.7c0,1.7-2.5,3.5-4.6,3.5C377.3,87,376.3,86.4,376.3,85.3z"/>
</g>
<rect x="394.5" y="59.8" width="0.5" height="16.4"/>
<g>
	<path d="M388.1,77.9c0-1.8,2.5-3.5,4.5-3.5c1.3,0,2.3,0.7,2.3,1.7c0,1.7-2.5,3.5-4.6,3.5C389.1,79.6,388.1,78.9,388.1,77.9z"/>
</g>
<rect x="406.2" y="61.3" width="0.5" height="19.8"/>
<g>
	<path d="M399.7,82.8c0-1.8,2.5-3.5,4.5-3.5c1.3,0,2.3,0.7,2.3,1.7c0,1.7-2.5,3.5-4.6,3.5C400.7,84.5,399.7,83.9,399.7,82.8z"/>
</g>
<rect x="409.6" y="84.1" width="10.5" height="0.8"/>
<rect x="417.9" y="63.1" width="0.5" height="20.6"/>
<g>
	<path d="M411.5,85.3c0-1.8,2.5-3.5,4.5-3.5c1.3,0,2.3,0.7,2.3,1.7c0,1.7-2.5,3.5-4.6,3.5C412.5,87,411.5,86.4,411.5,85.3z"/>
</g>
<rect x="421.4" y="84.1" width="10.5" height="0.8"/>
<rect x="421.4" y="89" width="10.5" height="0.8"/>
<rect x="429.7" y="64.8" width="0.5" height="23.9"/>
<g>
	<path d="M423.3,90.3c0-1.8,2.5-3.5,4.5-3.5c1.3,0,2.3,0.7,2.3,1.7c0,1.7-2.5,3.5-4.6,3.5C424.3,92,423.3,91.3,423.3,90.3z"/>
</g>
<rect x="449.6" y="54.3" width="10.5" height="0.8"/>
<rect x="451.4" y="53" width="0.5" height="21.4"/>
<g>
	<path d="M451.5,53.1c0-1.8,2.5-3.5,4.5-3.5c1.3,0,2.3,0.7,2.3,1.7c0,1.7-2.5,3.5-4.6,3.5C452.5,54.8,451.5,54.1,451.5,53.1z"/>
</g>
<rect x="461.3" y="54.3" width="10.5" height="0.8"/>
<rect x="463" y="55.5" width="0.5" height="20.5"/>
<g>
	<path d="M463.1,55.5c0-1.8,2.5-3.5,4.5-3.5c1.3,0,2.3,0.7,2.3,1.7c0,1.7-2.5,3.5-4.6,3.5C464.1,57.3,463.1,56.6,463.1,55.5z"/>
</g>
<rect x="474.8" y="60.4" width="0.5" height="17.2"/>
<g>
	<path d="M474.9,60.5c0-1.8,2.5-3.5,4.5-3.5c1.3,0,2.3,0.7,2.3,1.7c0,1.7-2.5,3.5-4.6,3.5C475.9,62.2,474.9,61.6,474.9,60.5z"/>
</g>
<rect x="486.6" y="65.4" width="0.5" height="14"/>
<g>
	<path d="M486.7,65.5c0-1.8,2.5-3.5,4.5-3.5c1.3,0,2.3,0.7,2.3,1.7c0,1.7-2.5,3.5-4.6,3.5C487.7,67.2,486.7,66.5,486.7,65.5z"/>
</g>
<rect x="496.4" y="54.3" width="10.5" height="0.8"/>
<rect x="498.2" y="55.5" width="0.5" height="23.9"/>
<g>
	<path d="M498.3,55.5c0-1.8,2.5-3.5,4.5-3.5c1.3,0,2.3,0.7,2.3,1.7c0,1.7-2.5,3.5-4.6,3.5C499.3,57.3,498.3,56.6,498.3,55.5z"/>
</g>
<rect x="510" y="60.4" width="0.5" height="20.5"/>
<g>
	<path d="M510.1,60.5c0-1.8,2.5-3.5,4.5-3.5c1.3,0,2.3,0.7,2.3,1.7c0,1.7-2.5,3.5-4.6,3.5C511.1,62.2,510.1,61.6,510.1,60.5z"/>
</g>
<rect x="521.8" y="65.4" width="0.5" height="17.2"/>
<g>
	<path d="M521.9,65.5c0-1.8,2.5-3.5,4.5-3.5c1.3,0,2.3,0.7,2.3,1.7c0,1.7-2.5,3.5-4.6,3.5C522.8,67.2,521.9,66.5,521.9,65.5z"/>
</g>
<rect x="533.4" y="70.3" width="0.5" height="14"/>
<g>
	<path d="M533.5,70.4c0-1.8,2.5-3.5,4.5-3.5c1.3,0,2.3,0.7,2.3,1.7c0,1.7-2.5,3.5-4.6,3.5C534.5,72.1,533.5,71.5,533.5,70.4z"/>
</g>
</svg>
