<?xml version="1.0" encoding="utf-8"?>

<!--
	ScaleBook
	Copyright (c) Leland Jansen 2015. All rights reserved.
-->

<!DOCTYPE svg PUBLIC "-//W3C//DTD SVG 1.1//EN" "http://www.w3.org/Graphics/SVG/1.1/DTD/svg11.dtd">
<svg version="1.1" id="Layer_1" xmlns="http://www.w3.org/2000/svg" xmlns:xlink="http://www.w3.org/1999/xlink" x="0px" y="0px"
	 viewBox="0 0 552.9 89.4" enable-background="new 0 0 552.9 89.4" xml:space="preserve">
<rect x="8.4" y="15" width="0.8" height="67"/>
<g>
	<path d="M7.4,15.7c-1.9,1.1-3.6,5.8-3.6,9.4c0,2.3,1.4,9.9,1.4,12.3c0,5-1.5,8.6-4.6,11.1c3,2.4,4.6,6.1,4.6,11.1
		c0,2.3-1.4,9.9-1.4,12.3c0,3.8,1.7,8.4,3.6,9.5V82c-3.5-2.3-5.8-8.2-5.8-13.1c0-2.1,1.7-9.4,1.7-11.5c0-3.8-1-6.6-2.9-8.2
		C0.1,48.9,0,48.7,0,48.5c0-0.2,0.1-0.4,0.5-0.7c1.9-1.7,2.9-4.2,2.9-7.6c0-2.1-1.7-10-1.7-12.2c0-5.2,2.1-10.4,5.8-13.1V15.7z"/>
</g>
<rect x="547.8" y="15" width="0.8" height="67"/>
<rect x="550.4" y="15" width="2.5" height="67"/>
<rect x="8.5" y="34.6" width="544.4" height="0.5"/>
<rect x="8.5" y="29.6" width="544.4" height="0.5"/>
<rect x="8.5" y="24.7" width="544.4" height="0.5"/>
<rect x="8.5" y="19.7" width="544.4" height="0.5"/>
<rect x="8.5" y="14.8" width="544.4" height="0.5"/>
<g>
	<path d="M20.3,34.7c-4.2,0-8.1-3.1-8.1-6.9c0-3.2,2.3-6.7,6.8-10.5c-0.3-1.2-0.4-2.4-0.4-3.6c0-3.5,1.2-6.8,3.2-8.5
		c1.8,2.5,2.7,4.9,2.7,7.1c0,2.9-1.3,5.6-4.3,8.1l0.9,4.2c0.5,0,0.8-0.1,0.8-0.1c2.6,0,4.8,2,4.8,4.7c0,1.9-1.4,3.7-3.6,4.8
		c0-0.1,0.9,3.8,0.9,4.3c0,2.5-2.3,4.2-4.9,4.2c-2,0-3.6-1.3-3.6-3.4c0-1.4,1-2.6,2.4-2.6c1.3,0,2.3,1.3,2.3,2.5
		c0,1.4-1.2,2.3-2.7,2.5c0.6,0.3,1.2,0.5,1.9,0.5c2.1,0,4.1-1.6,4.1-3.6c0-0.2,0-0.4-0.1-0.6l-0.8-3.7
		C21.9,34.5,21.2,34.7,20.3,34.7z M18.1,29.5c0,1,0.5,1.9,1.6,2.5c-1.8-0.3-3-1.4-3-3.1c0-2,1.7-3.7,3.8-4.1l-0.8-4
		C16,23.6,14,26.3,14,28.9c0,2.9,2.8,5.3,6,5.3c0.9,0,1.7-0.2,2.4-0.5L21,26.9C19.4,27.1,18.1,28.1,18.1,29.5z M22.1,8.1
		c-1.6,0-2.9,3.7-2.9,7c0,0.7,0,1.3,0.2,1.9c2.7-2.4,4-4.5,4-6.5c0-0.9-0.3-1.7-1-2.4C22.4,8.1,22.3,8.1,22.1,8.1z M24.9,30
		c0-1.6-1.2-3.3-2.9-3.3c-0.1,0-0.2,0-0.5,0l1.4,6.6C24.2,32.5,24.9,31.3,24.9,30z"/>
</g>
<g>
	<path d="M33.5,8.2V11l1-0.3v1.8l-1,0.3v3.4l1-0.3v1.8l-1,0.3v3.1H33v-3l-1.9,0.6v3h-0.5V19l-1,0.3v-1.8l1-0.3v-3.4l-1,0.3v-1.8
		l1-0.3V8.8h0.5v3l1.9-0.6v-3H33.5z M33,13l-1.9,0.6V17l1.9-0.6V13z"/>
</g>
<g>
	<path d="M39.7,15.6v2.8l1-0.3v1.8l-1,0.3v3.4l1-0.3v1.8l-1,0.3v3.1h-0.5v-3l-1.9,0.6v3h-0.5v-2.8l-1,0.3v-1.8l1-0.3v-3.4l-1,0.3
		v-1.8l1-0.3v-3.1h0.5v3l1.9-0.6v-3H39.7z M39.2,20.4L37.3,21v3.4l1.9-0.6V20.4z"/>
</g>
<g>
	<path d="M45.9,5.7v2.8l1-0.3V10l-1,0.3v3.4l1-0.3v1.8l-1,0.3v3.1h-0.5v-3l-1.9,0.6v3H43v-2.8l-1,0.3V15l1-0.3v-3.4l-1,0.3V9.8
		l1-0.3V6.3h0.5v3l1.9-0.6v-3H45.9z M45.4,10.5l-1.9,0.6v3.4l1.9-0.6V10.5z"/>
</g>
<g>
	<path d="M52.1,13.1V16l1-0.3v1.8l-1,0.3v3.4l1-0.3v1.8l-1,0.3v3.1h-0.5v-3l-1.9,0.6v3h-0.5v-2.8l-1,0.3v-1.8l1-0.3v-3.4l-1,0.3
		v-1.8l1-0.3v-3.1h0.5v3l1.9-0.6v-3H52.1z M51.6,17.9l-1.9,0.6V22l1.9-0.6V17.9z"/>
</g>
<g>
	<path d="M58.3,20.6v2.8l1-0.3v1.8l-1,0.3v3.4l1-0.3v1.8l-1,0.3v3.1h-0.5v-3l-1.9,0.6v3h-0.5v-2.8l-1,0.3v-1.8l1-0.3v-3.4l-1,0.3
		v-1.8l1-0.3v-3.1h0.5v3l1.9-0.6v-3H58.3z M57.8,25.4L55.9,26v3.4l1.9-0.6V25.4z"/>
</g>
<g>
	<path d="M64.5,10.7v2.8l1-0.3V15l-1,0.3v3.4l1-0.3v1.8l-1,0.3v3.1H64v-3l-1.9,0.6v3h-0.5v-2.8l-1,0.3V20l1-0.3v-3.4l-1,0.3v-1.8
		l1-0.3v-3.1h0.5v3l1.9-0.6v-3H64.5z M64,15.4l-1.9,0.6v3.4l1.9-0.6V15.4z"/>
</g>
<polygon fill-rule="evenodd" clip-rule="evenodd" points="80.9,26.2 123.5,21.2 123.5,18.7 80.9,23.7 "/>
<polygon fill-rule="evenodd" clip-rule="evenodd" points="80.9,22.4 123.5,17.5 123.5,15 80.9,20 "/>
<polygon fill-rule="evenodd" clip-rule="evenodd" points="131.2,41 175.4,36.1 175.4,33.6 131.2,38.6 "/>
<polygon fill-rule="evenodd" clip-rule="evenodd" points="131.2,44.8 175.4,39.8 175.4,37.3 131.2,42.3 "/>
<polygon fill-rule="evenodd" clip-rule="evenodd" points="201.8,31.1 244.4,26.2 244.4,23.7 201.8,28.6 "/>
<polygon fill-rule="evenodd" clip-rule="evenodd" points="201.8,34.8 244.4,29.9 244.4,27.4 201.8,32.4 "/>
<polygon fill-rule="evenodd" clip-rule="evenodd" points="258.7,22.4 304.7,21.2 304.7,18.7 258.7,20 "/>
<polygon fill-rule="evenodd" clip-rule="evenodd" points="258.7,26.2 304.7,24.9 304.7,22.4 258.7,23.7 "/>
<polygon fill-rule="evenodd" clip-rule="evenodd" points="319,21.2 361.6,26.2 361.6,23.7 319,18.7 "/>
<polygon fill-rule="evenodd" clip-rule="evenodd" points="319,24.9 361.6,29.9 361.6,27.4 319,22.4 "/>
<polygon fill-rule="evenodd" clip-rule="evenodd" points="387.9,31.1 430.7,36.1 430.7,33.6 387.9,28.6 "/>
<polygon fill-rule="evenodd" clip-rule="evenodd" points="387.9,34.8 430.7,39.8 430.7,37.3 387.9,32.4 "/>
<polygon fill-rule="evenodd" clip-rule="evenodd" points="451.3,16.2 494.1,21.2 494.1,18.7 451.3,13.8 "/>
<polygon fill-rule="evenodd" clip-rule="evenodd" points="451.3,12.5 494.1,17.5 494.1,15 451.3,10 "/>
<rect x="8.5" y="81.7" width="544.4" height="0.5"/>
<rect x="8.5" y="76.8" width="544.4" height="0.5"/>
<rect x="8.5" y="71.8" width="544.4" height="0.5"/>
<rect x="8.5" y="66.9" width="544.4" height="0.5"/>
<rect x="8.5" y="61.9" width="544.4" height="0.5"/>
<g>
	<path d="M15.7,76.3c2.9-2.6,4.7-6.1,4.7-9.2c0-2.5-1.4-4.4-3.7-4.4c-1.6,0-3.4,1.3-3.4,2.7c0,0.2,0,0.3,0.1,0.3
		c-0.1,0,0.6-0.6,1.4-0.6c0.9,0,1.5,0.8,1.5,1.7c0,1.2-0.9,2.2-2.1,2.2c-1.2,0-2.1-1.3-2.1-2.8c0-2.3,2.3-4.1,4.8-4.1
		c4.7,0,5.9,3.2,5.9,5.8c0,1.6-0.4,2.9-2,5.3c-1.9,3.1-6.4,5.3-8.1,5.3c-0.4,0-0.6-0.2-0.6-0.5C13.8,77.6,14.9,77,15.7,76.3z
		 M25.7,63.6c0.6,0,1,0.4,1,1c0,0.6-0.4,1-1,1s-1-0.4-1-1C24.7,64,25.1,63.6,25.7,63.6z M25.7,68.6c0.6,0,1,0.4,1,1c0,0.6-0.4,1-1,1
		s-1-0.4-1-1C24.7,69,25.1,68.6,25.7,68.6z"/>
</g>
<g>
	<path d="M33.5,60.3v2.8l1-0.3v1.8l-1,0.3v3.4l1-0.3v1.8l-1,0.3v3.1H33v-3l-1.9,0.6v3h-0.5V71l-1,0.3v-1.8l1-0.3v-3.4l-1,0.3v-1.8
		l1-0.3v-3.1h0.5v3l1.9-0.6v-3H33.5z M33,65l-1.9,0.6v3.4l1.9-0.6V65z"/>
</g>
<g>
	<path d="M39.7,67.7v2.8l1-0.3V72l-1,0.3v3.4l1-0.3v1.8l-1,0.3v3.1h-0.5v-3l-1.9,0.6v3h-0.5v-2.8l-1,0.3V77l1-0.3v-3.4l-1,0.3v-1.8
		l1-0.3v-3.1h0.5v3l1.9-0.6v-3H39.7z M39.2,72.5l-1.9,0.6v3.4l1.9-0.6V72.5z"/>
</g>
<g>
	<path d="M45.9,57.8v2.8l1-0.3v1.8l-1,0.3v3.4l1-0.3v1.8l-1,0.3v3.1h-0.5v-3l-1.9,0.6v3H43v-2.8l-1,0.3v-1.8l1-0.3v-3.4l-1,0.3v-1.8
		l1-0.3v-3.1h0.5v3l1.9-0.6v-3H45.9z M45.4,62.6l-1.9,0.6v3.4l1.9-0.6V62.6z"/>
</g>
<g>
	<path d="M52.1,65.2v2.8l1-0.3v1.8l-1,0.3v3.4l1-0.3v1.8l-1,0.3v3.1h-0.5v-3l-1.9,0.6v3h-0.5V76l-1,0.3v-1.8l1-0.3v-3.4l-1,0.3v-1.8
		l1-0.3v-3.1h0.5v3l1.9-0.6v-3H52.1z M51.6,70l-1.9,0.6v3.4l1.9-0.6V70z"/>
</g>
<g>
	<path d="M58.3,72.7v2.8l1-0.3V77l-1,0.3v3.4l1-0.3v1.8l-1,0.3v3.1h-0.5v-3l-1.9,0.6v3h-0.5v-2.8l-1,0.3V82l1-0.3v-3.4l-1,0.3v-1.8
		l1-0.3v-3.1h0.5v3l1.9-0.6v-3H58.3z M57.8,77.4l-1.9,0.6v3.4l1.9-0.6V77.4z"/>
</g>
<g>
	<path d="M64.5,62.7v2.8l1-0.3V67l-1,0.3v3.4l1-0.3v1.8l-1,0.3v3.1H64v-3l-1.9,0.6v3h-0.5v-2.8l-1,0.3v-1.8l1-0.3v-3.4l-1,0.3v-1.8
		l1-0.3v-3.1h0.5v3l1.9-0.6v-3H64.5z M64,67.5l-1.9,0.6v3.4L64,71V67.5z"/>
</g>
<polygon fill-rule="evenodd" clip-rule="evenodd" points="74.3,83.2 117,78.2 117,75.8 74.3,80.7 "/>
<polygon fill-rule="evenodd" clip-rule="evenodd" points="74.3,86.9 117,82 117,79.5 74.3,84.4 "/>
<g>
	<path d="M195.6,80.6c-3.2,0-6.1-2.3-6.1-5.1c0-2.4,1.7-5,5.1-7.9c-0.2-0.9-0.3-1.8-0.3-2.7c0-2.6,0.9-5.1,2.4-6.3
		c1.4,1.9,2,3.7,2,5.3c0,2.2-1,4.2-3.2,6.1l0.7,3.1c0.4,0,0.6,0,0.6,0c2,0,3.6,1.5,3.6,3.5c0,1.4-1.1,2.8-2.7,3.6
		c0-0.1,0.6,2.8,0.6,3.3c0,1.9-1.7,3.2-3.7,3.2c-1.5,0-2.7-1-2.7-2.5c0-1.1,0.7-1.9,1.8-1.9c1,0,1.7,1,1.7,1.9c0,1-0.9,1.7-2,1.8
		c0.4,0.2,0.9,0.3,1.4,0.3c1.6,0,3.1-1.2,3.1-2.7c0-0.1,0-0.3,0-0.5l-0.6-2.8C196.8,80.5,196.3,80.6,195.6,80.6z M194,76.7
		c0,0.8,0.4,1.4,1.2,1.9c-1.3-0.2-2.2-1.1-2.2-2.3c0-1.5,1.3-2.8,2.9-3.1l-0.6-3c-2.8,2.1-4.3,4.1-4.3,6.1c0,2.2,2.1,4,4.5,4
		c0.7,0,1.3-0.1,1.8-0.4l-1.1-5.1C194.9,74.9,194,75.7,194,76.7z M197,60.7c-1.2,0-2.2,2.8-2.2,5.3c0,0.5,0,1,0.1,1.4
		c2-1.8,3-3.4,3-4.9c0-0.7-0.3-1.3-0.7-1.8C197.2,60.7,197.1,60.7,197,60.7z M199.1,77.1c0-1.2-0.9-2.4-2.2-2.4c0,0-0.2,0-0.4,0
		l1.1,5C198.5,78.9,199.1,78.1,199.1,77.1z"/>
</g>
<polygon fill-rule="evenodd" clip-rule="evenodd" points="131.2,73.3 175.4,68.3 175.4,65.8 131.2,70.8 "/>
<polygon fill-rule="evenodd" clip-rule="evenodd" points="131.2,77 175.4,72 175.4,69.6 131.2,74.5 "/>
<polygon fill-rule="evenodd" clip-rule="evenodd" points="208.3,68.3 250.9,63.4 250.9,60.9 208.3,65.8 "/>
<polygon fill-rule="evenodd" clip-rule="evenodd" points="208.3,64.6 250.9,59.6 250.9,57.2 208.3,62.1 "/>
<polygon fill-rule="evenodd" clip-rule="evenodd" points="258.7,84.4 304.7,83.2 304.7,80.7 258.7,82 "/>
<polygon fill-rule="evenodd" clip-rule="evenodd" points="258.7,88.2 304.7,86.9 304.7,84.4 258.7,85.7 "/>
<g>
	<path d="M376.5,74c2.2-2,3.6-4.6,3.6-6.9c0-1.9-1.1-3.3-2.8-3.3c-1.2,0-2.5,1-2.5,2.1c0,0.2,0,0.2,0.1,0.2c0,0,0.4-0.5,1-0.5
		c0.7,0,1.2,0.6,1.2,1.3c0,0.9-0.6,1.7-1.6,1.7s-1.5-1-1.5-2.1c0-1.8,1.7-3.1,3.6-3.1c3.5,0,4.4,2.4,4.4,4.4c0,1.2-0.3,2.2-1.5,4
		c-1.4,2.3-4.8,4-6,4c-0.3,0-0.5-0.1-0.5-0.3C375.1,75,375.9,74.5,376.5,74z M383.9,64.5c0.4,0,0.7,0.3,0.7,0.7
		c0,0.4-0.3,0.7-0.7,0.7c-0.4,0-0.7-0.3-0.7-0.7C383.2,64.8,383.5,64.5,383.9,64.5z M383.9,68.2c0.4,0,0.7,0.3,0.7,0.7
		s-0.3,0.7-0.7,0.7c-0.4,0-0.7-0.3-0.7-0.7S383.5,68.2,383.9,68.2z"/>
</g>
<polygon fill-rule="evenodd" clip-rule="evenodd" points="325.5,63.4 368.1,68.3 368.1,65.8 325.5,60.9 "/>
<polygon fill-rule="evenodd" clip-rule="evenodd" points="325.5,59.6 368.1,64.6 368.1,62.1 325.5,57.2 "/>
<polygon fill-rule="evenodd" clip-rule="evenodd" points="387.9,68.3 430.7,73.3 430.7,70.8 387.9,65.8 "/>
<polygon fill-rule="evenodd" clip-rule="evenodd" points="387.9,72 430.7,77 430.7,74.5 387.9,69.6 "/>
<polygon fill-rule="evenodd" clip-rule="evenodd" points="444.8,78.2 487.6,83.2 487.6,80.7 444.8,75.8 "/>
<polygon fill-rule="evenodd" clip-rule="evenodd" points="444.8,82 487.6,86.9 487.6,84.4 444.8,79.5 "/>
<rect x="80.6" y="20.1" width="0.5" height="16.4"/>
<g>
	<path d="M74.2,38.2c0-1.8,2.5-3.5,4.5-3.5c1.3,0,2.3,0.7,2.3,1.7c0,1.7-2.5,3.5-4.6,3.5C75.2,39.9,74.2,39.3,74.2,38.2z"/>
</g>
<rect x="94.9" y="18.6" width="0.5" height="15.5"/>
<g>
	<path d="M88.4,35.7c0-1.8,2.5-3.5,4.5-3.5c1.3,0,2.3,0.7,2.3,1.7c0,1.7-2.5,3.5-4.6,3.5C89.4,37.4,88.4,36.8,88.4,35.7z"/>
</g>
<rect x="109.1" y="16.9" width="0.5" height="14.7"/>
<g>
	<path d="M102.7,33.2c0-1.8,2.5-3.5,4.5-3.5c1.3,0,2.3,0.7,2.3,1.7c0,1.7-2.5,3.5-4.6,3.5C103.7,34.9,102.7,34.3,102.7,33.2z"/>
</g>
<rect x="123.2" y="15.2" width="0.5" height="14"/>
<g>
	<path d="M116.8,30.7c0-1.8,2.5-3.5,4.5-3.5c1.3,0,2.3,0.7,2.3,1.7c0,1.7-2.5,3.5-4.6,3.5C117.8,32.5,116.8,31.8,116.8,30.7z"/>
</g>
<rect x="131" y="28.2" width="0.5" height="16.4"/>
<g>
	<path d="M131.1,28.3c0-1.8,2.5-3.5,4.5-3.5c1.3,0,2.3,0.7,2.3,1.7c0,1.7-2.5,3.5-4.6,3.5C132,30,131.1,29.3,131.1,28.3z"/>
</g>
<rect x="145.3" y="25.7" width="0.5" height="17.4"/>
<g>
	<path d="M145.3,25.8c0-1.8,2.5-3.5,4.5-3.5c1.3,0,2.3,0.7,2.3,1.7c0,1.7-2.5,3.5-4.6,3.5C146.3,27.5,145.3,26.9,145.3,25.8z"/>
</g>
<rect x="160.9" y="23.2" width="0.5" height="18.1"/>
<g>
	<path d="M161,23.3c0-1.8,2.5-3.5,4.5-3.5c1.3,0,2.3,0.7,2.3,1.7c0,1.7-2.5,3.5-4.6,3.5C162,25,161,24.4,161,23.3z"/>
</g>
<g>
	<path d="M158.1,24.9c0-0.8-0.4-1.5-1.1-2.2c-0.7,0.7-1.1,1.4-1.1,2.2h-1.4v-1.4c0.8,0,1.5-0.3,2.2-1c-0.7-0.7-1.4-1.1-2.2-1.1v-1.4
		h1.4c0,0.8,0.4,1.5,1.1,2.2c0.7-0.7,1.1-1.4,1.1-2.2h1.4v1.4c-0.8,0-1.5,0.4-2.2,1.1c0.7,0.7,1.4,1,2,1h0.2v1.4H158.1z"/>
</g>
<rect x="175.2" y="20.7" width="0.5" height="18.9"/>
<g>
	<path d="M175.3,20.8c0-1.8,2.5-3.5,4.5-3.5c1.3,0,2.3,0.7,2.3,1.7c0,1.7-2.5,3.5-4.6,3.5C176.2,22.5,175.3,21.9,175.3,20.8z"/>
</g>
<rect x="201.5" y="18.3" width="0.5" height="16.4"/>
<g>
	<path d="M201.6,18.3c0-1.8,2.5-3.5,4.5-3.5c1.3,0,2.3,0.7,2.3,1.7c0,1.7-2.5,3.5-4.6,3.5C202.6,20.1,201.6,19.4,201.6,18.3z"/>
</g>
<rect x="215.8" y="15.8" width="0.5" height="17.4"/>
<g>
	<path d="M215.9,15.9c0-1.8,2.5-3.5,4.5-3.5c1.3,0,2.3,0.7,2.3,1.7c0,1.7-2.5,3.5-4.6,3.5C216.8,17.6,215.9,16.9,215.9,15.9z"/>
</g>
<rect x="230.1" y="13.3" width="0.5" height="18.1"/>
<g>
	<path d="M230.1,13.4c0-1.8,2.5-3.5,4.5-3.5c1.3,0,2.3,0.7,2.3,1.7c0,1.7-2.5,3.5-4.6,3.5C231.1,15.1,230.1,14.5,230.1,13.4z"/>
</g>
<rect x="242.4" y="9.7" width="10.5" height="0.8"/>
<rect x="244.2" y="10.8" width="0.5" height="18.9"/>
<g>
	<path d="M244.2,10.9c0-1.8,2.5-3.5,4.5-3.5c1.3,0,2.3,0.7,2.3,1.7c0,1.7-2.5,3.5-4.6,3.5C245.2,12.6,244.2,12,244.2,10.9z"/>
</g>
<rect x="256.6" y="9.7" width="10.5" height="0.8"/>
<rect x="258.4" y="8.3" width="0.5" height="17.7"/>
<g>
	<path d="M258.5,8.4c0-1.8,2.5-3.5,4.5-3.5c1.3,0,2.3,0.7,2.3,1.7c0,1.7-2.5,3.5-4.6,3.5C259.5,10.1,258.5,9.5,258.5,8.4z"/>
</g>
<rect x="274.2" y="9.7" width="10.5" height="0.8"/>
<rect x="274.2" y="4.7" width="10.5" height="0.8"/>
<rect x="275.9" y="5.9" width="0.5" height="19.7"/>
<g>
	<path d="M276,5.9c0-1.8,2.5-3.5,4.5-3.5c1.3,0,2.3,0.7,2.3,1.7c0,1.7-2.5,3.5-4.6,3.5C277,7.7,276,7,276,5.9z"/>
</g>
<g>
	<path d="M271.8,7.6c0-0.8-0.4-1.5-1.1-2.2c-0.7,0.7-1.1,1.4-1.1,2.2h-1.4V6.1c0.8,0,1.5-0.3,2.2-1C269.8,4.4,269,4,268.3,4V2.6h1.4
		c0,0.8,0.4,1.5,1.1,2.2c0.7-0.7,1.1-1.4,1.1-2.2h1.4V4c-0.8,0-1.5,0.4-2.2,1.1c0.7,0.7,1.4,1,2,1h0.2v1.4H271.8z"/>
</g>
<rect x="288.4" y="9.7" width="10.5" height="0.8"/>
<rect x="288.4" y="4.7" width="10.5" height="0.8"/>
<rect x="290.2" y="3.4" width="0.5" height="21.9"/>
<g>
	<path d="M290.3,3.5c0-1.8,2.5-3.5,4.5-3.5c1.3,0,2.3,0.7,2.3,1.7c0,1.7-2.5,3.5-4.6,3.5C291.2,5.2,290.3,4.5,290.3,3.5z"/>
</g>
<rect x="302.7" y="9.7" width="10.5" height="0.8"/>
<rect x="302.7" y="4.7" width="10.5" height="0.8"/>
<rect x="304.5" y="5.9" width="0.5" height="18.9"/>
<g>
	<path d="M304.5,5.9c0-1.8,2.5-3.5,4.5-3.5c1.3,0,2.3,0.7,2.3,1.7c0,1.7-2.5,3.5-4.6,3.5C305.5,7.7,304.5,7,304.5,5.9z"/>
</g>
<rect x="316.9" y="9.7" width="10.5" height="0.8"/>
<rect x="318.7" y="8.3" width="0.5" height="16.4"/>
<g>
	<path d="M318.8,8.4c0-1.8,2.5-3.5,4.5-3.5c1.3,0,2.3,0.7,2.3,1.7c0,1.7-2.5,3.5-4.6,3.5C319.8,10.1,318.8,9.5,318.8,8.4z"/>
</g>
<rect x="331" y="9.7" width="10.5" height="0.8"/>
<rect x="332.8" y="10.8" width="0.5" height="15.5"/>
<g>
	<path d="M332.9,10.9c0-1.8,2.5-3.5,4.5-3.5c1.3,0,2.3,0.7,2.3,1.7c0,1.7-2.5,3.5-4.6,3.5C333.9,12.6,332.9,12,332.9,10.9z"/>
</g>
<rect x="347.1" y="13.3" width="0.5" height="14.7"/>
<g>
	<path d="M347.2,13.4c0-1.8,2.5-3.5,4.5-3.5c1.3,0,2.3,0.7,2.3,1.7c0,1.7-2.5,3.5-4.6,3.5C348.1,15.1,347.2,14.5,347.2,13.4z"/>
</g>
<rect x="361.4" y="15.8" width="0.5" height="14"/>
<g>
	<path d="M361.4,15.9c0-1.8,2.5-3.5,4.5-3.5c1.3,0,2.3,0.7,2.3,1.7c0,1.7-2.5,3.5-4.6,3.5C362.4,17.6,361.4,16.9,361.4,15.9z"/>
</g>
<rect x="387.7" y="18.3" width="0.5" height="16.4"/>
<g>
	<path d="M387.8,18.3c0-1.8,2.5-3.5,4.5-3.5c1.3,0,2.3,0.7,2.3,1.7c0,1.7-2.5,3.5-4.6,3.5C388.8,20.1,387.8,19.4,387.8,18.3z"/>
</g>
<rect x="402" y="20.7" width="0.5" height="15.5"/>
<g>
	<path d="M402,20.8c0-1.8,2.5-3.5,4.5-3.5c1.3,0,2.3,0.7,2.3,1.7c0,1.7-2.5,3.5-4.6,3.5C403,22.5,402,21.9,402,20.8z"/>
</g>
<rect x="416.2" y="23.2" width="0.5" height="14.7"/>
<g>
	<path d="M416.3,23.3c0-1.8,2.5-3.5,4.5-3.5c1.3,0,2.3,0.7,2.3,1.7c0,1.7-2.5,3.5-4.6,3.5C417.3,25,416.3,24.4,416.3,23.3z"/>
</g>
<rect x="430.5" y="25.7" width="0.5" height="14"/>
<g>
	<path d="M430.6,25.8c0-1.8,2.5-3.5,4.5-3.5c1.3,0,2.3,0.7,2.3,1.7c0,1.7-2.5,3.5-4.6,3.5C431.5,27.5,430.6,26.9,430.6,25.8z"/>
</g>
<rect x="451.1" y="10.2" width="0.5" height="16.4"/>
<g>
	<path d="M444.7,28.3c0-1.8,2.5-3.5,4.5-3.5c1.3,0,2.3,0.7,2.3,1.7c0,1.7-2.5,3.5-4.6,3.5C445.6,30,444.7,29.3,444.7,28.3z"/>
</g>
<rect x="465.4" y="11.7" width="0.5" height="17.4"/>
<g>
	<path d="M458.9,30.7c0-1.8,2.5-3.5,4.5-3.5c1.3,0,2.3,0.7,2.3,1.7c0,1.7-2.5,3.5-4.6,3.5C459.9,32.5,458.9,31.8,458.9,30.7z"/>
</g>
<rect x="479.6" y="13.4" width="0.5" height="18.1"/>
<g>
	<path d="M473.2,33.2c0-1.8,2.5-3.5,4.5-3.5c1.3,0,2.3,0.7,2.3,1.7c0,1.7-2.5,3.5-4.6,3.5C474.2,34.9,473.2,34.3,473.2,33.2z"/>
</g>
<rect x="493.9" y="15.2" width="0.5" height="18.9"/>
<g>
	<path d="M487.5,35.7c0-1.8,2.5-3.5,4.5-3.5c1.3,0,2.3,0.7,2.3,1.7c0,1.7-2.5,3.5-4.6,3.5C488.4,37.4,487.5,36.8,487.5,35.7z"/>
</g>
<rect x="508.3" y="20" width="0.5" height="16.6"/>
<g>
	<path d="M506,34.6c1.6,0,2.7,0.7,2.7,2c0,1.9-2.3,3.4-4.5,3.4c-1.3,0-2.4-0.7-2.4-1.8C501.7,36.4,504,34.6,506,34.6z M502.2,38.5
		c0,0.6,0.4,0.9,1.1,0.9c1.4,0,4.9-2.1,4.9-3.3c0-0.6-0.4-0.9-1.1-0.9C505.8,35.2,502.2,37.2,502.2,38.5z"/>
</g>
<rect x="74.1" y="72.8" width="0.5" height="14"/>
<g>
	<path d="M74.2,72.9c0-1.8,2.5-3.5,4.5-3.5c1.3,0,2.3,0.7,2.3,1.7c0,1.7-2.5,3.5-4.6,3.5C75.2,74.6,74.2,74,74.2,72.9z"/>
</g>
<rect x="88.4" y="70.3" width="0.5" height="14.9"/>
<g>
	<path d="M88.4,70.4c0-1.8,2.5-3.5,4.5-3.5c1.3,0,2.3,0.7,2.3,1.7c0,1.7-2.5,3.5-4.6,3.5C89.4,72.1,88.4,71.5,88.4,70.4z"/>
</g>
<rect x="102.6" y="67.9" width="0.5" height="15.7"/>
<g>
	<path d="M102.7,67.9c0-1.8,2.5-3.5,4.5-3.5c1.3,0,2.3,0.7,2.3,1.7c0,1.7-2.5,3.5-4.6,3.5C103.7,69.7,102.7,69,102.7,67.9z"/>
</g>
<rect x="116.7" y="65.4" width="0.5" height="16.4"/>
<g>
	<path d="M116.8,65.5c0-1.8,2.5-3.5,4.5-3.5c1.3,0,2.3,0.7,2.3,1.7c0,1.7-2.5,3.5-4.6,3.5C117.8,67.2,116.8,66.5,116.8,65.5z"/>
</g>
<rect x="131" y="62.9" width="0.5" height="14"/>
<g>
	<path d="M131.1,63c0-1.8,2.5-3.5,4.5-3.5c1.3,0,2.3,0.7,2.3,1.7c0,1.7-2.5,3.5-4.6,3.5C132,64.7,131.1,64.1,131.1,63z"/>
</g>
<rect x="145.3" y="60.4" width="0.5" height="14.9"/>
<g>
	<path d="M145.3,60.5c0-1.8,2.5-3.5,4.5-3.5c1.3,0,2.3,0.7,2.3,1.7c0,1.7-2.5,3.5-4.6,3.5C146.3,62.2,145.3,61.6,145.3,60.5z"/>
</g>
<rect x="159.1" y="56.8" width="10.5" height="0.8"/>
<rect x="160.9" y="57.9" width="0.5" height="15.7"/>
<g>
	<path d="M161,58c0-1.8,2.5-3.5,4.5-3.5c1.3,0,2.3,0.7,2.3,1.7c0,1.7-2.5,3.5-4.6,3.5C162,59.7,161,59.1,161,58z"/>
</g>
<g>
	<path d="M156.8,59.6c0-0.8-0.4-1.5-1.1-2.2c-0.7,0.7-1.1,1.4-1.1,2.2h-1.4v-1.4c0.8,0,1.5-0.3,2.2-1c-0.7-0.7-1.4-1.1-2.2-1.1v-1.4
		h1.4c0,0.8,0.4,1.5,1.1,2.2c0.7-0.7,1.1-1.4,1.1-2.2h1.4v1.4c-0.8,0-1.5,0.4-2.2,1.1c0.7,0.7,1.4,1,2,1h0.2v1.4H156.8z"/>
</g>
<rect x="173.4" y="56.8" width="10.5" height="0.8"/>
<rect x="175.2" y="55.5" width="0.5" height="16.4"/>
<g>
	<path d="M175.3,55.5c0-1.8,2.5-3.5,4.5-3.5c1.3,0,2.3,0.7,2.3,1.7c0,1.7-2.5,3.5-4.6,3.5C176.2,57.3,175.3,56.6,175.3,55.5z"/>
</g>
<rect x="208" y="62.3" width="0.5" height="18.9"/>
<g>
	<path d="M201.6,82.8c0-1.8,2.5-3.5,4.5-3.5c1.3,0,2.3,0.7,2.3,1.7c0,1.7-2.5,3.5-4.6,3.5C202.6,84.5,201.6,83.9,201.6,82.8z"/>
</g>
<rect x="222.3" y="60.7" width="0.5" height="18"/>
<g>
	<path d="M215.9,80.3c0-1.8,2.5-3.5,4.5-3.5c1.3,0,2.3,0.7,2.3,1.7c0,1.7-2.5,3.5-4.6,3.5C216.8,82.1,215.9,81.4,215.9,80.3z"/>
</g>
<rect x="236.6" y="59" width="0.5" height="17.2"/>
<g>
	<path d="M230.1,77.9c0-1.8,2.5-3.5,4.5-3.5c1.3,0,2.3,0.7,2.3,1.7c0,1.7-2.5,3.5-4.6,3.5C231.1,79.6,230.1,78.9,230.1,77.9z"/>
</g>
<rect x="250.7" y="57.3" width="0.5" height="16.4"/>
<g>
	<path d="M244.2,75.4c0-1.8,2.5-3.5,4.5-3.5c1.3,0,2.3,0.7,2.3,1.7c0,1.7-2.5,3.5-4.6,3.5C245.2,77.1,244.2,76.5,244.2,75.4z"/>
</g>
<rect x="258.4" y="72.8" width="0.5" height="15.2"/>
<g>
	<path d="M258.5,72.9c0-1.8,2.5-3.5,4.5-3.5c1.3,0,2.3,0.7,2.3,1.7c0,1.7-2.5,3.5-4.6,3.5C259.5,74.6,258.5,74,258.5,72.9z"/>
</g>
<rect x="275.9" y="70.3" width="0.5" height="17.2"/>
<g>
	<path d="M276,70.4c0-1.8,2.5-3.5,4.5-3.5c1.3,0,2.3,0.7,2.3,1.7c0,1.7-2.5,3.5-4.6,3.5C277,72.1,276,71.5,276,70.4z"/>
</g>
<g>
	<path d="M273.1,72c0-0.8-0.4-1.5-1.1-2.2c-0.7,0.7-1.1,1.4-1.1,2.2h-1.4v-1.4c0.8,0,1.5-0.3,2.2-1c-0.7-0.7-1.4-1.1-2.2-1.1v-1.4
		h1.4c0,0.8,0.4,1.5,1.1,2.2c0.7-0.7,1.1-1.4,1.1-2.2h1.4v1.4c-0.8,0-1.5,0.4-2.2,1.1c0.7,0.7,1.4,1,2,1h0.2V72H273.1z"/>
</g>
<rect x="290.2" y="67.9" width="0.5" height="19.4"/>
<g>
	<path d="M290.3,67.9c0-1.8,2.5-3.5,4.5-3.5c1.3,0,2.3,0.7,2.3,1.7c0,1.7-2.5,3.5-4.6,3.5C291.2,69.7,290.3,69,290.3,67.9z"/>
</g>
<rect x="304.5" y="70.3" width="0.5" height="16.4"/>
<g>
	<path d="M304.5,70.4c0-1.8,2.5-3.5,4.5-3.5c1.3,0,2.3,0.7,2.3,1.7c0,1.7-2.5,3.5-4.6,3.5C305.5,72.1,304.5,71.5,304.5,70.4z"/>
</g>
<rect x="325.2" y="57.3" width="0.5" height="14"/>
<g>
	<path d="M318.8,72.9c0-1.8,2.5-3.5,4.5-3.5c1.3,0,2.3,0.7,2.3,1.7c0,1.7-2.5,3.5-4.6,3.5C319.8,74.6,318.8,74,318.8,72.9z"/>
</g>
<rect x="339.3" y="58.9" width="0.5" height="14.9"/>
<g>
	<path d="M332.9,75.4c0-1.8,2.5-3.5,4.5-3.5c1.3,0,2.3,0.7,2.3,1.7c0,1.7-2.5,3.5-4.6,3.5C333.9,77.1,332.9,76.5,332.9,75.4z"/>
</g>
<rect x="353.6" y="60.6" width="0.5" height="15.7"/>
<g>
	<path d="M347.2,77.9c0-1.8,2.5-3.5,4.5-3.5c1.3,0,2.3,0.7,2.3,1.7c0,1.7-2.5,3.5-4.6,3.5C348.1,79.6,347.2,78.9,347.2,77.9z"/>
</g>
<rect x="367.9" y="62.3" width="0.5" height="16.4"/>
<g>
	<path d="M361.4,80.3c0-1.8,2.5-3.5,4.5-3.5c1.3,0,2.3,0.7,2.3,1.7c0,1.7-2.5,3.5-4.6,3.5C362.4,82.1,361.4,81.4,361.4,80.3z"/>
</g>
<rect x="385.9" y="56.8" width="10.5" height="0.8"/>
<rect x="385.9" y="51.8" width="10.5" height="0.8"/>
<rect x="387.7" y="53" width="0.5" height="18.9"/>
<g>
	<path d="M387.8,53.1c0-1.8,2.5-3.5,4.5-3.5c1.3,0,2.3,0.7,2.3,1.7c0,1.7-2.5,3.5-4.6,3.5C388.8,54.8,387.8,54.1,387.8,53.1z"/>
</g>
<rect x="400.2" y="56.8" width="10.5" height="0.8"/>
<rect x="402" y="55.5" width="0.5" height="18"/>
<g>
	<path d="M402,55.5c0-1.8,2.5-3.5,4.5-3.5c1.3,0,2.3,0.7,2.3,1.7c0,1.7-2.5,3.5-4.6,3.5C403,57.3,402,56.6,402,55.5z"/>
</g>
<rect x="414.4" y="56.8" width="10.5" height="0.8"/>
<rect x="416.2" y="57.9" width="0.5" height="17.2"/>
<g>
	<path d="M416.3,58c0-1.8,2.5-3.5,4.5-3.5c1.3,0,2.3,0.7,2.3,1.7c0,1.7-2.5,3.5-4.6,3.5C417.3,59.7,416.3,59.1,416.3,58z"/>
</g>
<rect x="430.5" y="60.4" width="0.5" height="16.4"/>
<g>
	<path d="M430.6,60.5c0-1.8,2.5-3.5,4.5-3.5c1.3,0,2.3,0.7,2.3,1.7c0,1.7-2.5,3.5-4.6,3.5C431.5,62.2,430.6,61.6,430.6,60.5z"/>
</g>
<rect x="444.6" y="62.9" width="0.5" height="18.9"/>
<g>
	<path d="M444.7,63c0-1.8,2.5-3.5,4.5-3.5c1.3,0,2.3,0.7,2.3,1.7c0,1.7-2.5,3.5-4.6,3.5C445.6,64.7,444.7,64.1,444.7,63z"/>
</g>
<rect x="458.9" y="65.4" width="0.5" height="18"/>
<g>
	<path d="M458.9,65.5c0-1.8,2.5-3.5,4.5-3.5c1.3,0,2.3,0.7,2.3,1.7c0,1.7-2.5,3.5-4.6,3.5C459.9,67.2,458.9,66.5,458.9,65.5z"/>
</g>
<rect x="473.1" y="67.9" width="0.5" height="17.2"/>
<g>
	<path d="M473.2,67.9c0-1.8,2.5-3.5,4.5-3.5c1.3,0,2.3,0.7,2.3,1.7c0,1.7-2.5,3.5-4.6,3.5C474.2,69.7,473.2,69,473.2,67.9z"/>
</g>
<rect x="487.4" y="70.3" width="0.5" height="16.4"/>
<g>
	<path d="M487.5,70.4c0-1.8,2.5-3.5,4.5-3.5c1.3,0,2.3,0.7,2.3,1.7c0,1.7-2.5,3.5-4.6,3.5C488.4,72.1,487.5,71.5,487.5,70.4z"/>
</g>
<rect x="501.6" y="72.8" width="0.5" height="16.6"/>
<g>
	<path d="M506,69.3c1.6,0,2.7,0.7,2.7,2c0,1.9-2.3,3.4-4.5,3.4c-1.3,0-2.4-0.7-2.4-1.8C501.7,71.1,504,69.3,506,69.3z M502.2,73.2
		c0,0.6,0.4,0.9,1.1,0.9c1.4,0,4.9-2.1,4.9-3.3c0-0.6-0.4-0.9-1.1-0.9C505.8,69.9,502.2,72,502.2,73.2z"/>
</g>
</svg>
