<?xml version="1.0" encoding="utf-8"?>

<!--
	ScaleBook
	Copyright (c) Leland Jansen 2015. All rights reserved.
-->

<!DOCTYPE svg PUBLIC "-//W3C//DTD SVG 1.1//EN" "http://www.w3.org/Graphics/SVG/1.1/DTD/svg11.dtd">
<svg version="1.1" id="Layer_1" xmlns="http://www.w3.org/2000/svg" xmlns:xlink="http://www.w3.org/1999/xlink" x="0px" y="0px"
	 viewBox="0 0 552.9 92.4" enable-background="new 0 0 552.9 92.4" xml:space="preserve">
<rect x="8.4" y="19.2" width="0.8" height="67"/>
<g>
	<path d="M7.4,19.9c-1.9,1.1-3.6,5.8-3.6,9.4c0,2.3,1.4,9.9,1.4,12.3c0,5-1.5,8.6-4.6,11.1c3,2.4,4.6,6.1,4.6,11.1
		c0,2.3-1.4,9.9-1.4,12.3c0,3.8,1.7,8.4,3.6,9.5v0.7c-3.5-2.3-5.8-8.2-5.8-13.1c0-2.1,1.7-9.4,1.7-11.5c0-3.8-1-6.6-2.9-8.2
		C0.1,53.1,0,52.9,0,52.7c0-0.2,0.1-0.4,0.5-0.7c1.9-1.7,2.9-4.2,2.9-7.6c0-2.1-1.7-10-1.7-12.2c0-5.2,2.1-10.4,5.8-13.1V19.9z"/>
</g>
<rect x="547.8" y="19.2" width="0.8" height="67"/>
<rect x="550.4" y="19.2" width="2.5" height="67"/>
<rect x="8.5" y="38.8" width="544.4" height="0.5"/>
<rect x="8.5" y="33.9" width="544.4" height="0.5"/>
<rect x="8.5" y="28.9" width="544.4" height="0.5"/>
<rect x="8.5" y="23.9" width="544.4" height="0.5"/>
<rect x="8.5" y="19" width="544.4" height="0.5"/>
<g>
	<path d="M20.3,38.9c-4.2,0-8.1-3.1-8.1-6.9c0-3.2,2.3-6.7,6.8-10.5c-0.3-1.2-0.4-2.4-0.4-3.6c0-3.5,1.2-6.8,3.2-8.5
		c1.8,2.5,2.7,4.9,2.7,7.1c0,2.9-1.3,5.6-4.3,8.1l0.9,4.2c0.5,0,0.8-0.1,0.8-0.1c2.6,0,4.8,2,4.8,4.7c0,1.9-1.4,3.7-3.6,4.8
		c0-0.1,0.9,3.8,0.9,4.3c0,2.5-2.3,4.2-4.9,4.2c-2,0-3.6-1.3-3.6-3.4c0-1.4,1-2.6,2.4-2.6c1.3,0,2.3,1.3,2.3,2.5
		c0,1.4-1.2,2.3-2.7,2.5c0.6,0.3,1.2,0.5,1.9,0.5c2.1,0,4.1-1.6,4.1-3.6c0-0.2,0-0.4-0.1-0.6l-0.8-3.7
		C21.9,38.7,21.2,38.9,20.3,38.9z M18.1,33.7c0,1,0.5,1.9,1.6,2.5c-1.8-0.3-3-1.4-3-3.1c0-2,1.7-3.7,3.8-4.1l-0.8-4
		C16,27.8,14,30.5,14,33.1c0,2.9,2.8,5.3,6,5.3c0.9,0,1.7-0.2,2.4-0.5L21,31.1C19.4,31.3,18.1,32.3,18.1,33.7z M22.1,12.3
		c-1.6,0-2.9,3.7-2.9,7c0,0.7,0,1.3,0.2,1.9c2.7-2.4,4-4.5,4-6.5c0-0.9-0.3-1.7-1-2.4C22.4,12.3,22.3,12.3,22.1,12.3z M24.9,34.2
		c0-1.6-1.2-3.3-2.9-3.3c-0.1,0-0.2,0-0.5,0l1.4,6.6C24.2,36.7,24.9,35.5,24.9,34.2z"/>
</g>
<g>
	<path d="M29.5,20.8h0.6L30,27.1c0.4-0.7,1-1,1.8-1c1.2,0,2.2,0.8,2.2,1.9c0,0.8-0.5,1.8-1.7,2.7l-2.8,2.1V20.8z M30.1,27.7
		C30,28.5,30,29.1,30,29.7c0,1,0,1.6,0.1,2c1-0.7,2.4-2.6,2.4-3.7c0-0.6-0.5-1.1-1.1-1.1C30.8,26.9,30.4,27.2,30.1,27.7z"/>
</g>
<g>
	<path d="M35.1,13.4h0.6l-0.1,6.2c0.4-0.7,1-1,1.8-1c1.2,0,2.2,0.8,2.2,1.9c0,0.8-0.5,1.8-1.7,2.7l-2.8,2.1V13.4z M35.7,20.3
		c-0.1,0.8-0.1,1.4-0.1,1.9c0,1,0,1.6,0.1,2c1-0.7,2.4-2.6,2.4-3.7c0-0.6-0.5-1.1-1.1-1.1C36.4,19.4,36,19.7,35.7,20.3z"/>
</g>
<g>
	<path d="M40.7,23.3h0.6l-0.1,6.2c0.4-0.7,1-1,1.8-1c1.2,0,2.2,0.8,2.2,1.9c0,0.8-0.5,1.8-1.7,2.7l-2.8,2.1V23.3z M41.3,30.2
		c-0.1,0.8-0.1,1.4-0.1,1.9c0,1,0,1.6,0.1,2c1-0.7,2.4-2.6,2.4-3.7c0-0.6-0.5-1.1-1.1-1.1C42,29.4,41.6,29.6,41.3,30.2z"/>
</g>
<g>
	<path d="M46.3,15.9h0.6l-0.1,6.2c0.4-0.7,1-1,1.8-1c1.2,0,2.2,0.8,2.2,1.9c0,0.8-0.5,1.8-1.7,2.7l-2.8,2.1V15.9z M46.9,22.8
		c-0.1,0.8-0.1,1.4-0.1,1.9c0,1,0,1.6,0.1,2c1-0.7,2.4-2.6,2.4-3.7c0-0.6-0.5-1.1-1.1-1.1C47.6,21.9,47.2,22.2,46.9,22.8z"/>
</g>
<g>
	<path d="M51.9,25.8h0.6L52.4,32c0.4-0.7,1-1,1.8-1c1.2,0,2.2,0.8,2.2,1.9c0,0.8-0.5,1.8-1.7,2.7l-2.8,2.1V25.8z M52.4,32.7
		c-0.1,0.8-0.1,1.4-0.1,1.9c0,1,0,1.6,0.1,2c1-0.7,2.4-2.6,2.4-3.7c0-0.6-0.5-1.1-1.1-1.1C53.2,31.8,52.7,32.1,52.4,32.7z"/>
</g>
<g>
	<path d="M57.4,18.3h0.6l-0.1,6.2c0.4-0.7,1-1,1.8-1c1.2,0,2.2,0.8,2.2,1.9c0,0.8-0.5,1.8-1.7,2.7l-2.8,2.1V18.3z M58,25.2
		c-0.1,0.8-0.1,1.4-0.1,1.9c0,1,0,1.6,0.1,2c1-0.7,2.4-2.6,2.4-3.7c0-0.6-0.5-1.1-1.1-1.1C58.7,24.4,58.3,24.7,58,25.2z"/>
</g>
<polygon fill-rule="evenodd" clip-rule="evenodd" points="77.1,25.4 120.4,20.4 120.4,18 77.1,22.9 "/>
<polygon fill-rule="evenodd" clip-rule="evenodd" points="77.1,21.7 120.4,16.7 120.4,14.2 77.1,19.2 "/>
<polygon fill-rule="evenodd" clip-rule="evenodd" points="128.3,40.3 173.1,35.3 173.1,32.8 128.3,37.8 "/>
<polygon fill-rule="evenodd" clip-rule="evenodd" points="128.3,44 173.1,39 173.1,36.6 128.3,41.5 "/>
<polygon fill-rule="evenodd" clip-rule="evenodd" points="199.4,30.4 242.7,25.4 242.7,22.9 199.4,27.9 "/>
<polygon fill-rule="evenodd" clip-rule="evenodd" points="199.4,34.1 242.7,29.1 242.7,26.6 199.4,31.6 "/>
<polygon fill-rule="evenodd" clip-rule="evenodd" points="257.1,26.6 301.9,25.4 301.9,22.9 257.1,24.2 "/>
<polygon fill-rule="evenodd" clip-rule="evenodd" points="257.1,30.4 301.9,29.1 301.9,26.6 257.1,27.9 "/>
<polygon fill-rule="evenodd" clip-rule="evenodd" points="316.3,25.4 359.6,30.4 359.6,27.9 316.3,22.9 "/>
<polygon fill-rule="evenodd" clip-rule="evenodd" points="316.3,29.1 359.6,34.1 359.6,31.6 316.3,26.6 "/>
<polygon fill-rule="evenodd" clip-rule="evenodd" points="385.9,35.3 429.2,40.3 429.2,37.8 385.9,32.8 "/>
<polygon fill-rule="evenodd" clip-rule="evenodd" points="385.9,39 429.2,44 429.2,41.5 385.9,36.6 "/>
<polygon fill-rule="evenodd" clip-rule="evenodd" points="450.1,20.4 493.3,25.4 493.3,22.9 450.1,18 "/>
<polygon fill-rule="evenodd" clip-rule="evenodd" points="450.1,16.7 493.3,21.7 493.3,19.2 450.1,14.2 "/>
<rect x="8.5" y="85.9" width="544.4" height="0.5"/>
<rect x="8.5" y="81" width="544.4" height="0.5"/>
<rect x="8.5" y="76" width="544.4" height="0.5"/>
<rect x="8.5" y="71.1" width="544.4" height="0.5"/>
<rect x="8.5" y="66.1" width="544.4" height="0.5"/>
<g>
	<path d="M15.7,80.5c2.9-2.6,4.7-6.1,4.7-9.2c0-2.5-1.4-4.4-3.7-4.4c-1.6,0-3.4,1.3-3.4,2.7c0,0.2,0,0.3,0.1,0.3
		c-0.1,0,0.6-0.6,1.4-0.6c0.9,0,1.5,0.8,1.5,1.7c0,1.2-0.9,2.2-2.1,2.2c-1.2,0-2.1-1.3-2.1-2.8c0-2.3,2.3-4.1,4.8-4.1
		c4.7,0,5.9,3.2,5.9,5.8c0,1.6-0.4,2.9-2,5.3c-1.9,3.1-6.4,5.3-8.1,5.3c-0.4,0-0.6-0.2-0.6-0.5C13.8,81.8,14.9,81.2,15.7,80.5z
		 M25.7,67.8c0.6,0,1,0.4,1,1c0,0.6-0.4,1-1,1s-1-0.4-1-1C24.7,68.3,25.1,67.8,25.7,67.8z M25.7,72.8c0.6,0,1,0.4,1,1
		c0,0.6-0.4,1-1,1s-1-0.4-1-1C24.7,73.2,25.1,72.8,25.7,72.8z"/>
</g>
<g>
	<path d="M29.5,72.9h0.6L30,79.1c0.4-0.7,1-1,1.8-1c1.2,0,2.2,0.8,2.2,1.9c0,0.8-0.5,1.8-1.7,2.7l-2.8,2.1V72.9z M30.1,79.8
		C30,80.6,30,81.2,30,81.7c0,1,0,1.6,0.1,2c1-0.7,2.4-2.6,2.4-3.7c0-0.6-0.5-1.1-1.1-1.1C30.8,79,30.4,79.2,30.1,79.8z"/>
</g>
<g>
	<path d="M35.1,65.5h0.6l-0.1,6.2c0.4-0.7,1-1,1.8-1c1.2,0,2.2,0.8,2.2,1.9c0,0.8-0.5,1.8-1.7,2.7l-2.8,2.1V65.5z M35.7,72.4
		c-0.1,0.8-0.1,1.4-0.1,1.9c0,1,0,1.6,0.1,2c1-0.7,2.4-2.6,2.4-3.7c0-0.6-0.5-1.1-1.1-1.1C36.4,71.5,36,71.8,35.7,72.4z"/>
</g>
<g>
	<path d="M40.7,75.4h0.6l-0.1,6.2c0.4-0.7,1-1,1.8-1c1.2,0,2.2,0.8,2.2,1.9c0,0.8-0.5,1.8-1.7,2.7l-2.8,2.1V75.4z M41.3,82.3
		c-0.1,0.8-0.1,1.4-0.1,1.9c0,1,0,1.6,0.1,2c1-0.7,2.4-2.6,2.4-3.7c0-0.6-0.5-1.1-1.1-1.1C42,81.4,41.6,81.7,41.3,82.3z"/>
</g>
<g>
	<path d="M46.3,67.9h0.6l-0.1,6.2c0.4-0.7,1-1,1.8-1c1.2,0,2.2,0.8,2.2,1.9c0,0.8-0.5,1.8-1.7,2.7l-2.8,2.1V67.9z M46.9,74.8
		c-0.1,0.8-0.1,1.4-0.1,1.9c0,1,0,1.6,0.1,2c1-0.7,2.4-2.6,2.4-3.7c0-0.6-0.5-1.1-1.1-1.1C47.6,74,47.2,74.3,46.9,74.8z"/>
</g>
<g>
	<path d="M51.9,77.9h0.6l-0.1,6.2c0.4-0.7,1-1,1.8-1c1.2,0,2.2,0.8,2.2,1.9c0,0.8-0.5,1.8-1.7,2.7l-2.8,2.1V77.9z M52.4,84.8
		c-0.1,0.8-0.1,1.4-0.1,1.9c0,1,0,1.6,0.1,2c1-0.7,2.4-2.6,2.4-3.7c0-0.6-0.5-1.1-1.1-1.1C53.2,83.9,52.7,84.2,52.4,84.8z"/>
</g>
<g>
	<path d="M57.4,70.4h0.6l-0.1,6.2c0.4-0.7,1-1,1.8-1c1.2,0,2.2,0.8,2.2,1.9c0,0.8-0.5,1.8-1.7,2.7l-2.8,2.1V70.4z M58,77.3
		c-0.1,0.8-0.1,1.4-0.1,1.9c0,1,0,1.6,0.1,2c1-0.7,2.4-2.6,2.4-3.7c0-0.6-0.5-1.1-1.1-1.1C58.7,76.5,58.3,76.8,58,77.3z"/>
</g>
<polygon fill-rule="evenodd" clip-rule="evenodd" points="70.6,87.4 113.9,82.4 113.9,80 70.6,84.9 "/>
<polygon fill-rule="evenodd" clip-rule="evenodd" points="70.6,91.1 113.9,86.2 113.9,83.7 70.6,88.6 "/>
<g>
	<path d="M193.3,84.8c-3.2,0-6.1-2.3-6.1-5.1c0-2.4,1.7-5,5.1-7.9c-0.2-0.9-0.3-1.8-0.3-2.7c0-2.6,0.9-5.1,2.4-6.3
		c1.4,1.9,2,3.7,2,5.3c0,2.2-1,4.2-3.2,6.1l0.7,3.1c0.4,0,0.6,0,0.6,0c2,0,3.6,1.5,3.6,3.5c0,1.4-1.1,2.8-2.7,3.6
		c0-0.1,0.6,2.8,0.6,3.3c0,1.9-1.7,3.2-3.7,3.2c-1.5,0-2.7-1-2.7-2.5c0-1.1,0.7-1.9,1.8-1.9c1,0,1.7,1,1.7,1.9c0,1-0.9,1.7-2,1.8
		c0.4,0.2,0.9,0.3,1.4,0.3c1.6,0,3.1-1.2,3.1-2.7c0-0.1,0-0.3,0-0.5l-0.6-2.8C194.5,84.7,194,84.8,193.3,84.8z M191.6,80.9
		c0,0.8,0.4,1.4,1.2,1.9c-1.3-0.2-2.2-1.1-2.2-2.3c0-1.5,1.3-2.8,2.9-3.1l-0.6-3c-2.8,2.1-4.3,4.1-4.3,6.1c0,2.2,2.1,4,4.5,4
		c0.7,0,1.3-0.1,1.8-0.4l-1.1-5.1C192.6,79.1,191.6,79.9,191.6,80.9z M194.7,64.9c-1.2,0-2.2,2.8-2.2,5.3c0,0.5,0,1,0.1,1.4
		c2-1.8,3-3.4,3-4.9c0-0.7-0.3-1.3-0.7-1.8C194.9,64.9,194.8,64.9,194.7,64.9z M196.7,81.3c0-1.2-0.9-2.4-2.2-2.4c0,0-0.2,0-0.4,0
		l1.1,5C196.2,83.1,196.7,82.3,196.7,81.3z"/>
</g>
<polygon fill-rule="evenodd" clip-rule="evenodd" points="128.3,77.5 173.1,72.5 173.1,70 128.3,75 "/>
<polygon fill-rule="evenodd" clip-rule="evenodd" points="128.3,81.2 173.1,76.2 173.1,73.8 128.3,78.7 "/>
<polygon fill-rule="evenodd" clip-rule="evenodd" points="205.9,72.5 249.2,67.6 249.2,65.1 205.9,70 "/>
<polygon fill-rule="evenodd" clip-rule="evenodd" points="205.9,68.8 249.2,63.8 249.2,61.4 205.9,66.3 "/>
<polygon fill-rule="evenodd" clip-rule="evenodd" points="257.1,88.6 301.9,87.4 301.9,84.9 257.1,86.2 "/>
<polygon fill-rule="evenodd" clip-rule="evenodd" points="257.1,92.4 301.9,91.1 301.9,88.6 257.1,89.9 "/>
<g>
	<path d="M374.5,78.2c2.2-2,3.6-4.6,3.6-6.9c0-1.9-1.1-3.3-2.8-3.3c-1.2,0-2.5,1-2.5,2.1c0,0.2,0,0.2,0.1,0.2c0,0,0.4-0.5,1-0.5
		c0.7,0,1.2,0.6,1.2,1.3c0,0.9-0.6,1.7-1.6,1.7s-1.5-1-1.5-2.1c0-1.8,1.7-3.1,3.6-3.1c3.5,0,4.4,2.4,4.4,4.4c0,1.2-0.3,2.2-1.5,4
		c-1.4,2.3-4.8,4-6,4c-0.3,0-0.5-0.1-0.5-0.3C373,79.2,373.9,78.7,374.5,78.2z M381.9,68.7c0.4,0,0.7,0.3,0.7,0.7
		c0,0.4-0.3,0.7-0.7,0.7c-0.4,0-0.7-0.3-0.7-0.7C381.2,69,381.5,68.7,381.9,68.7z M381.9,72.4c0.4,0,0.7,0.3,0.7,0.7
		s-0.3,0.7-0.7,0.7c-0.4,0-0.7-0.3-0.7-0.7S381.5,72.4,381.9,72.4z"/>
</g>
<polygon fill-rule="evenodd" clip-rule="evenodd" points="322.8,62.6 366.1,67.6 366.1,65.1 322.8,60.1 "/>
<polygon fill-rule="evenodd" clip-rule="evenodd" points="322.8,58.9 366.1,63.8 366.1,61.4 322.8,56.4 "/>
<polygon fill-rule="evenodd" clip-rule="evenodd" points="385.9,72.5 429.2,73.8 429.2,71.3 385.9,70 "/>
<polygon fill-rule="evenodd" clip-rule="evenodd" points="385.9,76.2 429.2,77.5 429.2,75 385.9,73.8 "/>
<polygon fill-rule="evenodd" clip-rule="evenodd" points="443.6,77.5 486.8,82.4 486.8,80 443.6,75 "/>
<polygon fill-rule="evenodd" clip-rule="evenodd" points="443.6,81.2 486.8,86.2 486.8,83.7 443.6,78.7 "/>
<rect x="76.9" y="19.4" width="0.5" height="18.9"/>
<g>
	<path d="M70.5,39.9c0-1.8,2.5-3.5,4.5-3.5c1.3,0,2.3,0.7,2.3,1.7c0,1.7-2.5,3.5-4.6,3.5C71.4,41.6,70.5,41,70.5,39.9z"/>
</g>
<rect x="91.3" y="17.8" width="0.5" height="18"/>
<g>
	<path d="M84.9,37.4c0-1.8,2.5-3.5,4.5-3.5c1.3,0,2.3,0.7,2.3,1.7c0,1.7-2.5,3.5-4.6,3.5C85.9,39.1,84.9,38.5,84.9,37.4z"/>
</g>
<rect x="105.7" y="16.1" width="0.5" height="17.2"/>
<g>
	<path d="M99.3,34.9c0-1.8,2.5-3.5,4.5-3.5c1.3,0,2.3,0.7,2.3,1.7c0,1.7-2.5,3.5-4.6,3.5C100.3,36.7,99.3,36,99.3,34.9z"/>
</g>
<rect x="120.1" y="14.4" width="0.5" height="16.4"/>
<g>
	<path d="M113.7,32.5c0-1.8,2.5-3.5,4.5-3.5c1.3,0,2.3,0.7,2.3,1.7c0,1.7-2.5,3.5-4.6,3.5C114.7,34.2,113.7,33.5,113.7,32.5z"/>
</g>
<rect x="128.1" y="29.9" width="0.5" height="14"/>
<g>
	<path d="M128.1,30c0-1.8,2.5-3.5,4.5-3.5c1.3,0,2.3,0.7,2.3,1.7c0,1.7-2.5,3.5-4.6,3.5C129.1,31.7,128.1,31.1,128.1,30z"/>
</g>
<rect x="142.5" y="27.4" width="0.5" height="14.9"/>
<g>
	<path d="M142.5,27.5c0-1.8,2.5-3.5,4.5-3.5c1.3,0,2.3,0.7,2.3,1.7c0,1.7-2.5,3.5-4.6,3.5C143.5,29.2,142.5,28.6,142.5,27.5z"/>
</g>
<rect x="158.4" y="24.9" width="0.5" height="15.7"/>
<g>
	<path d="M158.5,25c0-1.8,2.5-3.5,4.5-3.5c1.3,0,2.3,0.7,2.3,1.7c0,1.7-2.5,3.5-4.6,3.5C159.5,26.7,158.5,26.1,158.5,25z"/>
</g>
<g>
	<path d="M156.6,30.9v-4l-3,1.1V17.4h0.5v4l3-1.1v10.7H156.6z M154,26.3l2.5-0.9V22L154,23V26.3z"/>
</g>
<rect x="172.9" y="22.5" width="0.5" height="16.4"/>
<g>
	<path d="M172.9,22.5c0-1.8,2.5-3.5,4.5-3.5c1.3,0,2.3,0.7,2.3,1.7c0,1.7-2.5,3.5-4.6,3.5C173.9,24.3,172.9,23.6,172.9,22.5z"/>
</g>
<rect x="199.2" y="20" width="0.5" height="14"/>
<g>
	<path d="M199.3,20.1c0-1.8,2.5-3.5,4.5-3.5c1.3,0,2.3,0.7,2.3,1.7c0,1.7-2.5,3.5-4.6,3.5C200.3,21.8,199.3,21.1,199.3,20.1z"/>
</g>
<rect x="213.6" y="17.5" width="0.5" height="14.9"/>
<g>
	<path d="M213.7,17.6c0-1.8,2.5-3.5,4.5-3.5c1.3,0,2.3,0.7,2.3,1.7c0,1.7-2.5,3.5-4.6,3.5C214.7,19.3,213.7,18.7,213.7,17.6z"/>
</g>
<rect x="226.3" y="13.9" width="10.5" height="0.8"/>
<rect x="228" y="15" width="0.5" height="15.7"/>
<g>
	<path d="M228.1,15.1c0-1.8,2.5-3.5,4.5-3.5c1.3,0,2.3,0.7,2.3,1.7c0,1.7-2.5,3.5-4.6,3.5C229.1,16.8,228.1,16.2,228.1,15.1z"/>
</g>
<rect x="240.7" y="13.9" width="10.5" height="0.8"/>
<rect x="242.5" y="12.5" width="0.5" height="16.4"/>
<g>
	<path d="M242.5,12.6c0-1.8,2.5-3.5,4.5-3.5c1.3,0,2.3,0.7,2.3,1.7c0,1.7-2.5,3.5-4.6,3.5C243.5,14.3,242.5,13.7,242.5,12.6z"/>
</g>
<rect x="255.1" y="13.9" width="10.5" height="0.8"/>
<rect x="255.1" y="8.9" width="10.5" height="0.8"/>
<rect x="256.9" y="10.1" width="0.5" height="20.2"/>
<g>
	<path d="M256.9,10.1c0-1.8,2.5-3.5,4.5-3.5c1.3,0,2.3,0.7,2.3,1.7c0,1.7-2.5,3.5-4.6,3.5C257.9,11.9,256.9,11.2,256.9,10.1z"/>
</g>
<rect x="271.1" y="13.9" width="10.5" height="0.8"/>
<rect x="271.1" y="8.9" width="10.5" height="0.8"/>
<rect x="272.8" y="7.6" width="0.5" height="22.3"/>
<g>
	<path d="M272.9,7.7c0-1.8,2.5-3.5,4.5-3.5c1.3,0,2.3,0.7,2.3,1.7c0,1.7-2.5,3.5-4.6,3.5C273.9,9.4,272.9,8.7,272.9,7.7z"/>
</g>
<g>
	<path d="M269.8,13.6v-4l-3,1.1V0h0.5v4l3-1.1v10.7H269.8z M267.2,8.9l2.5-0.9V4.7l-2.5,0.9V8.9z"/>
</g>
<rect x="285.5" y="13.9" width="10.5" height="0.8"/>
<rect x="285.5" y="8.9" width="10.5" height="0.8"/>
<rect x="285.5" y="3.9" width="10.5" height="0.8"/>
<rect x="287.3" y="5.1" width="0.5" height="24.3"/>
<g>
	<path d="M287.3,5.2c0-1.8,2.5-3.5,4.5-3.5c1.3,0,2.3,0.7,2.3,1.7c0,1.7-2.5,3.5-4.6,3.5C288.3,6.9,287.3,6.3,287.3,5.2z"/>
</g>
<rect x="299.9" y="13.9" width="10.5" height="0.8"/>
<rect x="299.9" y="8.9" width="10.5" height="0.8"/>
<rect x="301.7" y="7.6" width="0.5" height="21.4"/>
<g>
	<path d="M301.7,7.7c0-1.8,2.5-3.5,4.5-3.5c1.3,0,2.3,0.7,2.3,1.7c0,1.7-2.5,3.5-4.6,3.5C302.7,9.4,301.7,8.7,301.7,7.7z"/>
</g>
<rect x="314.3" y="13.9" width="10.5" height="0.8"/>
<rect x="314.3" y="8.9" width="10.5" height="0.8"/>
<rect x="316.1" y="10.1" width="0.5" height="18.9"/>
<g>
	<path d="M316.2,10.1c0-1.8,2.5-3.5,4.5-3.5c1.3,0,2.3,0.7,2.3,1.7c0,1.7-2.5,3.5-4.6,3.5C317.1,11.9,316.2,11.2,316.2,10.1z"/>
</g>
<rect x="328.7" y="13.9" width="10.5" height="0.8"/>
<rect x="330.5" y="12.5" width="0.5" height="18"/>
<g>
	<path d="M330.6,12.6c0-1.8,2.5-3.5,4.5-3.5c1.3,0,2.3,0.7,2.3,1.7c0,1.7-2.5,3.5-4.6,3.5C331.6,14.3,330.6,13.7,330.6,12.6z"/>
</g>
<rect x="343.1" y="13.9" width="10.5" height="0.8"/>
<rect x="344.9" y="15" width="0.5" height="17.2"/>
<g>
	<path d="M345,15.1c0-1.8,2.5-3.5,4.5-3.5c1.3,0,2.3,0.7,2.3,1.7c0,1.7-2.5,3.5-4.6,3.5C346,16.8,345,16.2,345,15.1z"/>
</g>
<rect x="359.3" y="17.5" width="0.5" height="16.4"/>
<g>
	<path d="M359.4,17.6c0-1.8,2.5-3.5,4.5-3.5c1.3,0,2.3,0.7,2.3,1.7c0,1.7-2.5,3.5-4.6,3.5C360.4,19.3,359.4,18.7,359.4,17.6z"/>
</g>
<rect x="385.7" y="20" width="0.5" height="18.9"/>
<g>
	<path d="M385.8,20.1c0-1.8,2.5-3.5,4.5-3.5c1.3,0,2.3,0.7,2.3,1.7c0,1.7-2.5,3.5-4.6,3.5C386.7,21.8,385.8,21.1,385.8,20.1z"/>
</g>
<rect x="400.1" y="22.5" width="0.5" height="18"/>
<g>
	<path d="M400.2,22.5c0-1.8,2.5-3.5,4.5-3.5c1.3,0,2.3,0.7,2.3,1.7c0,1.7-2.5,3.5-4.6,3.5C401.2,24.3,400.2,23.6,400.2,22.5z"/>
</g>
<rect x="414.5" y="24.9" width="0.5" height="17.2"/>
<g>
	<path d="M414.6,25c0-1.8,2.5-3.5,4.5-3.5c1.3,0,2.3,0.7,2.3,1.7c0,1.7-2.5,3.5-4.6,3.5C415.6,26.7,414.6,26.1,414.6,25z"/>
</g>
<rect x="428.9" y="27.4" width="0.5" height="16.4"/>
<g>
	<path d="M429,27.5c0-1.8,2.5-3.5,4.5-3.5c1.3,0,2.3,0.7,2.3,1.7c0,1.7-2.5,3.5-4.6,3.5C430,29.2,429,28.6,429,27.5z"/>
</g>
<rect x="449.9" y="14.4" width="0.5" height="14"/>
<g>
	<path d="M443.4,30c0-1.8,2.5-3.5,4.5-3.5c1.3,0,2.3,0.7,2.3,1.7c0,1.7-2.5,3.5-4.6,3.5C444.4,31.7,443.4,31.1,443.4,30z"/>
</g>
<rect x="464.3" y="15.9" width="0.5" height="14.9"/>
<g>
	<path d="M457.8,32.5c0-1.8,2.5-3.5,4.5-3.5c1.3,0,2.3,0.7,2.3,1.7c0,1.7-2.5,3.5-4.6,3.5C458.8,34.2,457.8,33.5,457.8,32.5z"/>
</g>
<rect x="478.7" y="17.7" width="0.5" height="15.7"/>
<g>
	<path d="M472.3,34.9c0-1.8,2.5-3.5,4.5-3.5c1.3,0,2.3,0.7,2.3,1.7c0,1.7-2.5,3.5-4.6,3.5C473.2,36.7,472.3,36,472.3,34.9z"/>
</g>
<rect x="493.1" y="19.4" width="0.5" height="16.4"/>
<g>
	<path d="M486.7,37.4c0-1.8,2.5-3.5,4.5-3.5c1.3,0,2.3,0.7,2.3,1.7c0,1.7-2.5,3.5-4.6,3.5C487.7,39.1,486.7,38.5,486.7,37.4z"/>
</g>
<rect x="507.7" y="21.7" width="0.5" height="16.6"/>
<g>
	<path d="M505.4,36.3c1.6,0,2.7,0.7,2.7,2c0,1.9-2.3,3.4-4.5,3.4c-1.3,0-2.4-0.7-2.4-1.8C501.1,38.1,503.3,36.3,505.4,36.3z
		 M501.6,40.2c0,0.6,0.4,0.9,1.1,0.9c1.4,0,4.9-2.1,4.9-3.3c0-0.6-0.4-0.9-1.1-0.9C505.2,36.9,501.6,39,501.6,40.2z"/>
</g>
<rect x="70.4" y="74.5" width="0.5" height="16.4"/>
<g>
	<path d="M70.5,74.6c0-1.8,2.5-3.5,4.5-3.5c1.3,0,2.3,0.7,2.3,1.7c0,1.7-2.5,3.5-4.6,3.5C71.4,76.3,70.5,75.7,70.5,74.6z"/>
</g>
<rect x="84.8" y="72.1" width="0.5" height="17.4"/>
<g>
	<path d="M84.9,72.1c0-1.8,2.5-3.5,4.5-3.5c1.3,0,2.3,0.7,2.3,1.7c0,1.7-2.5,3.5-4.6,3.5C85.9,73.9,84.9,73.2,84.9,72.1z"/>
</g>
<rect x="99.2" y="69.6" width="0.5" height="18.1"/>
<g>
	<path d="M99.3,69.7c0-1.8,2.5-3.5,4.5-3.5c1.3,0,2.3,0.7,2.3,1.7c0,1.7-2.5,3.5-4.6,3.5C100.3,71.4,99.3,70.8,99.3,69.7z"/>
</g>
<rect x="113.6" y="67.1" width="0.5" height="18.9"/>
<g>
	<path d="M113.7,67.2c0-1.8,2.5-3.5,4.5-3.5c1.3,0,2.3,0.7,2.3,1.7c0,1.7-2.5,3.5-4.6,3.5C114.7,68.9,113.7,68.3,113.7,67.2z"/>
</g>
<rect x="128.1" y="64.6" width="0.5" height="16.4"/>
<g>
	<path d="M128.1,64.7c0-1.8,2.5-3.5,4.5-3.5c1.3,0,2.3,0.7,2.3,1.7c0,1.7-2.5,3.5-4.6,3.5C129.1,66.4,128.1,65.8,128.1,64.7z"/>
</g>
<rect x="140.7" y="61" width="10.5" height="0.8"/>
<rect x="142.5" y="62.1" width="0.5" height="17.4"/>
<g>
	<path d="M142.5,62.2c0-1.8,2.5-3.5,4.5-3.5c1.3,0,2.3,0.7,2.3,1.7c0,1.7-2.5,3.5-4.6,3.5C143.5,63.9,142.5,63.3,142.5,62.2z"/>
</g>
<rect x="156.7" y="61" width="10.5" height="0.8"/>
<rect x="158.4" y="59.7" width="0.5" height="18.1"/>
<g>
	<path d="M158.5,59.7c0-1.8,2.5-3.5,4.5-3.5c1.3,0,2.3,0.7,2.3,1.7c0,1.7-2.5,3.5-4.6,3.5C159.5,61.5,158.5,60.8,158.5,59.7z"/>
</g>
<g>
	<path d="M155.3,65.7v-4l-3,1.1V52.1h0.5v4l3-1.1v10.7H155.3z M152.8,61l2.5-0.9v-3.3l-2.5,0.9V61z"/>
</g>
<rect x="171.1" y="61" width="10.5" height="0.8"/>
<rect x="171.1" y="56" width="10.5" height="0.8"/>
<rect x="172.9" y="57.2" width="0.5" height="18.9"/>
<g>
	<path d="M172.9,57.3c0-1.8,2.5-3.5,4.5-3.5c1.3,0,2.3,0.7,2.3,1.7c0,1.7-2.5,3.5-4.6,3.5C173.9,59,172.9,58.4,172.9,57.3z"/>
</g>
<rect x="205.7" y="66.5" width="0.5" height="16.4"/>
<g>
	<path d="M199.3,84.5c0-1.8,2.5-3.5,4.5-3.5c1.3,0,2.3,0.7,2.3,1.7c0,1.7-2.5,3.5-4.6,3.5C200.3,86.3,199.3,85.6,199.3,84.5z"/>
</g>
<rect x="220.1" y="64.9" width="0.5" height="15.5"/>
<g>
	<path d="M213.7,82.1c0-1.8,2.5-3.5,4.5-3.5c1.3,0,2.3,0.7,2.3,1.7c0,1.7-2.5,3.5-4.6,3.5C214.7,83.8,213.7,83.2,213.7,82.1z"/>
</g>
<rect x="234.5" y="63.2" width="0.5" height="14.7"/>
<g>
	<path d="M228.1,79.6c0-1.8,2.5-3.5,4.5-3.5c1.3,0,2.3,0.7,2.3,1.7c0,1.7-2.5,3.5-4.6,3.5C229.1,81.3,228.1,80.7,228.1,79.6z"/>
</g>
<rect x="249" y="61.5" width="0.5" height="14"/>
<g>
	<path d="M242.5,77.1c0-1.8,2.5-3.5,4.5-3.5c1.3,0,2.3,0.7,2.3,1.7c0,1.7-2.5,3.5-4.6,3.5C243.5,78.8,242.5,78.2,242.5,77.1z"/>
</g>
<rect x="256.9" y="74.5" width="0.5" height="17.7"/>
<g>
	<path d="M256.9,74.6c0-1.8,2.5-3.5,4.5-3.5c1.3,0,2.3,0.7,2.3,1.7c0,1.7-2.5,3.5-4.6,3.5C257.9,76.3,256.9,75.7,256.9,74.6z"/>
</g>
<rect x="272.8" y="72.1" width="0.5" height="19.8"/>
<g>
	<path d="M272.9,72.1c0-1.8,2.5-3.5,4.5-3.5c1.3,0,2.3,0.7,2.3,1.7c0,1.7-2.5,3.5-4.6,3.5C273.9,73.9,272.9,73.2,272.9,72.1z"/>
</g>
<g>
	<path d="M271,78.1v-4l-3,1.1V64.5h0.5v4l3-1.1v10.7H271z M268.5,73.4l2.5-0.9v-3.3l-2.5,0.9V73.4z"/>
</g>
<rect x="287.3" y="69.6" width="0.5" height="21.9"/>
<g>
	<path d="M287.3,69.7c0-1.8,2.5-3.5,4.5-3.5c1.3,0,2.3,0.7,2.3,1.7c0,1.7-2.5,3.5-4.6,3.5C288.3,71.4,287.3,70.8,287.3,69.7z"/>
</g>
<rect x="301.7" y="72.1" width="0.5" height="18.9"/>
<g>
	<path d="M301.7,72.1c0-1.8,2.5-3.5,4.5-3.5c1.3,0,2.3,0.7,2.3,1.7c0,1.7-2.5,3.5-4.6,3.5C302.7,73.9,301.7,73.2,301.7,72.1z"/>
</g>
<rect x="322.6" y="56.6" width="0.5" height="16.4"/>
<g>
	<path d="M316.2,74.6c0-1.8,2.5-3.5,4.5-3.5c1.3,0,2.3,0.7,2.3,1.7c0,1.7-2.5,3.5-4.6,3.5C317.1,76.3,316.2,75.7,316.2,74.6z"/>
</g>
<rect x="337" y="58.1" width="0.5" height="17.4"/>
<g>
	<path d="M330.6,77.1c0-1.8,2.5-3.5,4.5-3.5c1.3,0,2.3,0.7,2.3,1.7c0,1.7-2.5,3.5-4.6,3.5C331.6,78.8,330.6,78.2,330.6,77.1z"/>
</g>
<rect x="351.4" y="59.8" width="0.5" height="18.1"/>
<g>
	<path d="M345,79.6c0-1.8,2.5-3.5,4.5-3.5c1.3,0,2.3,0.7,2.3,1.7c0,1.7-2.5,3.5-4.6,3.5C346,81.3,345,80.7,345,79.6z"/>
</g>
<rect x="365.8" y="61.5" width="0.5" height="18.9"/>
<g>
	<path d="M359.4,82.1c0-1.8,2.5-3.5,4.5-3.5c1.3,0,2.3,0.7,2.3,1.7c0,1.7-2.5,3.5-4.6,3.5C360.4,83.8,359.4,83.2,359.4,82.1z"/>
</g>
<rect x="383.9" y="61" width="10.5" height="0.8"/>
<rect x="383.9" y="56" width="10.5" height="0.8"/>
<rect x="385.7" y="54.7" width="0.5" height="21.4"/>
<g>
	<path d="M385.8,54.8c0-1.8,2.5-3.5,4.5-3.5c1.3,0,2.3,0.7,2.3,1.7c0,1.7-2.5,3.5-4.6,3.5C386.7,56.5,385.8,55.9,385.8,54.8z"/>
</g>
<rect x="398.3" y="61" width="10.5" height="0.8"/>
<rect x="398.3" y="56" width="10.5" height="0.8"/>
<rect x="400.1" y="57.2" width="0.5" height="19.2"/>
<g>
	<path d="M400.2,57.3c0-1.8,2.5-3.5,4.5-3.5c1.3,0,2.3,0.7,2.3,1.7c0,1.7-2.5,3.5-4.6,3.5C401.2,59,400.2,58.4,400.2,57.3z"/>
</g>
<rect x="412.7" y="61" width="10.5" height="0.8"/>
<rect x="414.5" y="59.7" width="0.5" height="17.2"/>
<g>
	<path d="M414.6,59.7c0-1.8,2.5-3.5,4.5-3.5c1.3,0,2.3,0.7,2.3,1.7c0,1.7-2.5,3.5-4.6,3.5C415.6,61.5,414.6,60.8,414.6,59.7z"/>
</g>
<rect x="427.2" y="61" width="10.5" height="0.8"/>
<rect x="428.9" y="62.1" width="0.5" height="15.2"/>
<g>
	<path d="M429,62.2c0-1.8,2.5-3.5,4.5-3.5c1.3,0,2.3,0.7,2.3,1.7c0,1.7-2.5,3.5-4.6,3.5C430,63.9,429,63.3,429,62.2z"/>
</g>
<rect x="443.4" y="64.6" width="0.5" height="16.4"/>
<g>
	<path d="M443.4,64.7c0-1.8,2.5-3.5,4.5-3.5c1.3,0,2.3,0.7,2.3,1.7c0,1.7-2.5,3.5-4.6,3.5C444.4,66.4,443.4,65.8,443.4,64.7z"/>
</g>
<rect x="457.8" y="67.1" width="0.5" height="15.5"/>
<g>
	<path d="M457.8,67.2c0-1.8,2.5-3.5,4.5-3.5c1.3,0,2.3,0.7,2.3,1.7c0,1.7-2.5,3.5-4.6,3.5C458.8,68.9,457.8,68.3,457.8,67.2z"/>
</g>
<rect x="472.2" y="69.6" width="0.5" height="14.7"/>
<g>
	<path d="M472.3,69.7c0-1.8,2.5-3.5,4.5-3.5c1.3,0,2.3,0.7,2.3,1.7c0,1.7-2.5,3.5-4.6,3.5C473.2,71.4,472.3,70.8,472.3,69.7z"/>
</g>
<rect x="486.6" y="72.1" width="0.5" height="14"/>
<g>
	<path d="M486.7,72.1c0-1.8,2.5-3.5,4.5-3.5c1.3,0,2.3,0.7,2.3,1.7c0,1.7-2.5,3.5-4.6,3.5C487.7,73.9,486.7,73.2,486.7,72.1z"/>
</g>
<rect x="501" y="74.5" width="0.5" height="16.6"/>
<g>
	<path d="M505.4,71.1c1.6,0,2.7,0.7,2.7,2c0,1.9-2.3,3.4-4.5,3.4c-1.3,0-2.4-0.7-2.4-1.8C501.1,72.9,503.3,71.1,505.4,71.1z
		 M501.6,74.9c0,0.6,0.4,0.9,1.1,0.9c1.4,0,4.9-2.1,4.9-3.3c0-0.6-0.4-0.9-1.1-0.9C505.2,71.7,501.6,73.7,501.6,74.9z"/>
</g>
</svg>
