<?xml version="1.0" encoding="utf-8"?>

<!--
	ScaleBook
	Copyright (c) Leland Jansen 2015. All rights reserved.
-->

<!DOCTYPE svg PUBLIC "-//W3C//DTD SVG 1.1//EN" "http://www.w3.org/Graphics/SVG/1.1/DTD/svg11.dtd">
<svg version="1.1" id="Layer_1" xmlns="http://www.w3.org/2000/svg" xmlns:xlink="http://www.w3.org/1999/xlink" x="0px" y="0px"
	 viewBox="0 0 552.9 92.4" enable-background="new 0 0 552.9 92.4" xml:space="preserve">
<rect x="8.4" y="19.2" width="0.8" height="67"/>
<g>
	<path d="M7.4,19.9c-1.9,1.1-3.6,5.8-3.6,9.4c0,2.3,1.4,9.9,1.4,12.3c0,5-1.5,8.6-4.6,11.1c3,2.4,4.6,6.1,4.6,11.1
		c0,2.3-1.4,9.9-1.4,12.3c0,3.8,1.7,8.4,3.6,9.5v0.7C3.9,83.9,1.7,78,1.7,73.1c0-2.1,1.7-9.4,1.7-11.5c0-3.8-1-6.6-2.9-8.2
		C0.1,53.1,0,52.9,0,52.7c0-0.2,0.1-0.4,0.5-0.7c1.9-1.7,2.9-4.2,2.9-7.6c0-2.1-1.7-10-1.7-12.2c0-5.2,2.1-10.4,5.8-13.1V19.9z"/>
</g>
<rect x="547.8" y="19.2" width="0.8" height="67"/>
<rect x="550.4" y="19.2" width="2.5" height="67"/>
<rect x="8.5" y="38.8" width="544.4" height="0.5"/>
<rect x="8.5" y="33.9" width="544.4" height="0.5"/>
<rect x="8.5" y="28.9" width="544.4" height="0.5"/>
<rect x="8.5" y="24" width="544.4" height="0.5"/>
<rect x="8.5" y="19" width="544.4" height="0.5"/>
<g>
	<path d="M20.3,38.9c-4.2,0-8.1-3.1-8.1-6.9c0-3.2,2.3-6.7,6.8-10.5c-0.3-1.2-0.4-2.4-0.4-3.6c0-3.5,1.2-6.8,3.2-8.5
		c1.8,2.5,2.7,4.9,2.7,7.1c0,2.9-1.3,5.6-4.3,8.1l0.9,4.2c0.5,0,0.8-0.1,0.8-0.1c2.6,0,4.8,2,4.8,4.7c0,1.9-1.4,3.7-3.6,4.8
		c0-0.1,0.9,3.8,0.9,4.3c0,2.5-2.3,4.2-4.9,4.2c-2,0-3.6-1.3-3.6-3.4c0-1.4,1-2.6,2.4-2.6c1.3,0,2.3,1.3,2.3,2.5
		c0,1.4-1.2,2.3-2.7,2.5c0.6,0.3,1.2,0.5,1.9,0.5c2.1,0,4.1-1.6,4.1-3.6c0-0.2,0-0.4-0.1-0.6l-0.8-3.7
		C21.9,38.8,21.2,38.9,20.3,38.9z M18.1,33.7c0,1,0.5,1.9,1.6,2.5c-1.8-0.3-3-1.4-3-3.1c0-2,1.7-3.7,3.8-4.1l-0.8-4
		C16,27.8,14,30.5,14,33.1c0,2.9,2.8,5.3,6,5.3c0.9,0,1.7-0.2,2.4-0.5L21,31.1C19.4,31.3,18.1,32.3,18.1,33.7z M22.1,12.3
		c-1.6,0-2.9,3.7-2.9,7c0,0.7,0,1.3,0.2,1.9c2.7-2.4,4-4.5,4-6.5c0-0.9-0.3-1.7-1-2.4C22.4,12.4,22.3,12.3,22.1,12.3z M24.9,34.2
		c0-1.6-1.2-3.3-2.9-3.3c-0.1,0-0.2,0-0.5,0l1.4,6.6C24.2,36.7,24.9,35.5,24.9,34.2z"/>
</g>
<g>
	<path d="M33.5,12.4v2.8l1-0.3v1.8l-1,0.3v3.4l1-0.3v1.8l-1,0.3v3.1H33v-3l-1.9,0.6v3h-0.5v-2.8l-1,0.3v-1.8l1-0.3V18l-1,0.3v-1.8
		l1-0.3V13h0.5v3l1.9-0.6v-3H33.5z M33,17.2l-1.9,0.6v3.4l1.9-0.6V17.2z"/>
</g>
<polygon fill-rule="evenodd" clip-rule="evenodd" points="49.8,25.4 95.9,20.5 95.9,18 49.8,22.9 "/>
<polygon fill-rule="evenodd" clip-rule="evenodd" points="49.8,21.7 95.9,16.7 95.9,14.3 49.8,19.2 "/>
<polygon fill-rule="evenodd" clip-rule="evenodd" points="104.6,40.3 152.6,35.3 152.6,32.9 104.6,37.8 "/>
<polygon fill-rule="evenodd" clip-rule="evenodd" points="104.6,44 152.6,39.1 152.6,36.6 104.6,41.5 "/>
<polygon fill-rule="evenodd" clip-rule="evenodd" points="179,30.4 225,25.4 225,22.9 179,27.9 "/>
<polygon fill-rule="evenodd" clip-rule="evenodd" points="179,34.1 225,29.1 225,26.7 179,31.6 "/>
<polygon fill-rule="evenodd" clip-rule="evenodd" points="240.2,26.7 288.3,25.4 288.3,22.9 240.2,24.2 "/>
<polygon fill-rule="evenodd" clip-rule="evenodd" points="240.2,30.4 288.3,29.1 288.3,26.7 240.2,27.9 "/>
<polygon fill-rule="evenodd" clip-rule="evenodd" points="303.6,25.4 349.5,30.4 349.5,27.9 303.6,22.9 "/>
<polygon fill-rule="evenodd" clip-rule="evenodd" points="303.6,29.1 349.5,34.1 349.5,31.6 303.6,26.7 "/>
<polygon fill-rule="evenodd" clip-rule="evenodd" points="375.8,35.3 421.9,40.3 421.9,37.8 375.8,32.9 "/>
<polygon fill-rule="evenodd" clip-rule="evenodd" points="375.8,39.1 421.9,44 421.9,41.5 375.8,36.6 "/>
<polygon fill-rule="evenodd" clip-rule="evenodd" points="443.7,20.5 489.6,25.4 489.6,22.9 443.7,18 "/>
<polygon fill-rule="evenodd" clip-rule="evenodd" points="443.7,16.7 489.6,21.7 489.6,19.2 443.7,14.3 "/>
<rect x="8.5" y="86" width="544.4" height="0.5"/>
<rect x="8.5" y="81" width="544.4" height="0.5"/>
<rect x="8.5" y="76" width="544.4" height="0.5"/>
<rect x="8.5" y="71.1" width="544.4" height="0.5"/>
<rect x="8.5" y="66.1" width="544.4" height="0.5"/>
<g>
	<path d="M15.7,80.5c2.9-2.6,4.7-6.1,4.7-9.2c0-2.5-1.4-4.4-3.7-4.4c-1.6,0-3.4,1.3-3.4,2.7c0,0.2,0,0.3,0.1,0.3
		c-0.1,0,0.6-0.6,1.4-0.6c0.9,0,1.5,0.8,1.5,1.7c0,1.2-0.9,2.2-2.1,2.2c-1.2,0-2.1-1.3-2.1-2.8c0-2.3,2.3-4.1,4.8-4.1
		c4.7,0,5.9,3.2,5.9,5.8c0,1.6-0.4,2.9-2,5.3c-1.9,3.1-6.4,5.3-8.1,5.3c-0.4,0-0.6-0.2-0.6-0.5C13.8,81.8,14.9,81.2,15.7,80.5z
		 M25.7,67.8c0.6,0,1,0.4,1,1c0,0.6-0.4,1-1,1s-1-0.4-1-1C24.7,68.3,25.1,67.8,25.7,67.8z M25.7,72.8c0.6,0,1,0.4,1,1
		c0,0.6-0.4,1-1,1s-1-0.4-1-1C24.7,73.2,25.1,72.8,25.7,72.8z"/>
</g>
<g>
	<path d="M33.5,64.5v2.8l1-0.3v1.8l-1,0.3v3.4l1-0.3V74l-1,0.3v3.1H33v-3l-1.9,0.6v3h-0.5v-2.8l-1,0.3v-1.8l1-0.3V70l-1,0.3v-1.8
		l1-0.3v-3.1h0.5v3l1.9-0.6v-3H33.5z M33,69.3l-1.9,0.6v3.4l1.9-0.6V69.3z"/>
</g>
<polygon fill-rule="evenodd" clip-rule="evenodd" points="43.3,87.4 89.4,82.5 89.4,80 43.3,84.9 "/>
<polygon fill-rule="evenodd" clip-rule="evenodd" points="43.3,91.1 89.4,86.2 89.4,83.7 43.3,88.7 "/>
<g>
	<path d="M172.8,84.8c-3.2,0-6.1-2.3-6.1-5.1c0-2.4,1.7-5,5.1-7.9c-0.2-0.9-0.3-1.8-0.3-2.7c0-2.6,0.9-5.1,2.4-6.3
		c1.4,1.9,2,3.7,2,5.3c0,2.2-1,4.2-3.2,6.1l0.7,3.1c0.4,0,0.6,0,0.6,0c2,0,3.6,1.5,3.6,3.5c0,1.4-1.1,2.8-2.7,3.6
		c0-0.1,0.6,2.8,0.6,3.3c0,1.9-1.7,3.2-3.7,3.2c-1.5,0-2.7-1-2.7-2.5c0-1.1,0.7-1.9,1.8-1.9c1,0,1.7,1,1.7,1.9c0,1-0.9,1.7-2,1.8
		c0.4,0.2,0.9,0.3,1.4,0.3c1.6,0,3.1-1.2,3.1-2.7c0-0.1,0-0.3,0-0.5l-0.6-2.8C174,84.7,173.5,84.8,172.8,84.8z M171.2,80.9
		c0,0.8,0.4,1.4,1.2,1.9c-1.3-0.2-2.2-1.1-2.2-2.3c0-1.5,1.3-2.8,2.9-3.1l-0.6-3c-2.8,2.1-4.3,4.1-4.3,6.1c0,2.2,2.1,4,4.5,4
		c0.7,0,1.3-0.1,1.8-0.4l-1.1-5.1C172.1,79.1,171.2,79.9,171.2,80.9z M174.2,64.9c-1.2,0-2.2,2.8-2.2,5.3c0,0.5,0,1,0.1,1.4
		c2-1.8,3-3.4,3-4.9c0-0.7-0.3-1.3-0.7-1.8C174.4,64.9,174.3,64.9,174.2,64.9z M176.3,81.3c0-1.2-0.9-2.4-2.2-2.4c0,0-0.2,0-0.4,0
		l1.1,5C175.7,83.2,176.3,82.3,176.3,81.3z"/>
</g>
<polygon fill-rule="evenodd" clip-rule="evenodd" points="104.6,77.5 152.6,72.5 152.6,70.1 104.6,75 "/>
<polygon fill-rule="evenodd" clip-rule="evenodd" points="104.6,81.2 152.6,76.3 152.6,73.8 104.6,78.7 "/>
<polygon fill-rule="evenodd" clip-rule="evenodd" points="185.5,72.5 231.5,67.6 231.5,65.1 185.5,70.1 "/>
<polygon fill-rule="evenodd" clip-rule="evenodd" points="185.5,68.8 231.5,63.9 231.5,61.4 185.5,66.3 "/>
<polygon fill-rule="evenodd" clip-rule="evenodd" points="240.2,88.7 288.3,87.4 288.3,84.9 240.2,86.2 "/>
<polygon fill-rule="evenodd" clip-rule="evenodd" points="240.2,92.4 288.3,91.1 288.3,88.7 240.2,89.9 "/>
<g>
	<path d="M364.4,78.2c2.2-2,3.6-4.6,3.6-6.9c0-1.9-1.1-3.3-2.8-3.3c-1.2,0-2.5,1-2.5,2.1c0,0.2,0,0.2,0.1,0.2c0,0,0.4-0.5,1-0.5
		c0.7,0,1.2,0.6,1.2,1.3c0,0.9-0.6,1.7-1.6,1.7s-1.5-1-1.5-2.1c0-1.8,1.7-3.1,3.6-3.1c3.5,0,4.4,2.4,4.4,4.4c0,1.2-0.3,2.2-1.5,4
		c-1.4,2.3-4.8,4-6,4c-0.3,0-0.5-0.1-0.5-0.3C363,79.2,363.8,78.7,364.4,78.2z M371.9,68.7c0.4,0,0.7,0.3,0.7,0.7
		c0,0.4-0.3,0.7-0.7,0.7c-0.4,0-0.7-0.3-0.7-0.7C371.1,69,371.4,68.7,371.9,68.7z M371.9,72.4c0.4,0,0.7,0.3,0.7,0.7
		s-0.3,0.7-0.7,0.7c-0.4,0-0.7-0.3-0.7-0.7S371.4,72.4,371.9,72.4z"/>
</g>
<polygon fill-rule="evenodd" clip-rule="evenodd" points="310.1,62.6 356,67.6 356,65.1 310.1,60.1 "/>
<polygon fill-rule="evenodd" clip-rule="evenodd" points="310.1,58.9 356,63.9 356,61.4 310.1,56.4 "/>
<polygon fill-rule="evenodd" clip-rule="evenodd" points="375.8,72.5 421.9,73.8 421.9,71.3 375.8,70.1 "/>
<polygon fill-rule="evenodd" clip-rule="evenodd" points="375.8,76.3 421.9,77.5 421.9,75 375.8,73.8 "/>
<polygon fill-rule="evenodd" clip-rule="evenodd" points="437.2,77.5 483.1,82.5 483.1,80 437.2,75 "/>
<polygon fill-rule="evenodd" clip-rule="evenodd" points="437.2,81.2 483.1,86.2 483.1,83.7 437.2,78.7 "/>
<rect x="49.6" y="19.4" width="0.5" height="18.9"/>
<g>
	<path d="M43.2,39.9c0-1.8,2.5-3.5,4.5-3.5c1.3,0,2.3,0.7,2.3,1.7c0,1.7-2.5,3.5-4.6,3.5C44.2,41.6,43.2,41,43.2,39.9z"/>
</g>
<rect x="65" y="17.8" width="0.5" height="18"/>
<g>
	<path d="M58.5,37.4c0-1.8,2.5-3.5,4.5-3.5c1.3,0,2.3,0.7,2.3,1.7c0,1.7-2.5,3.5-4.6,3.5C59.5,39.2,58.5,38.5,58.5,37.4z"/>
</g>
<rect x="80.3" y="16.1" width="0.5" height="17.2"/>
<g>
	<path d="M73.9,35c0-1.8,2.5-3.5,4.5-3.5c1.3,0,2.3,0.7,2.3,1.7c0,1.7-2.5,3.5-4.6,3.5C74.8,36.7,73.9,36,73.9,35z"/>
</g>
<rect x="95.7" y="14.4" width="0.5" height="16.4"/>
<g>
	<path d="M89.2,32.5c0-1.8,2.5-3.5,4.5-3.5c1.3,0,2.3,0.7,2.3,1.7c0,1.7-2.5,3.5-4.6,3.5C90.2,34.2,89.2,33.6,89.2,32.5z"/>
</g>
<rect x="104.3" y="29.9" width="0.5" height="14"/>
<g>
	<path d="M104.4,30c0-1.8,2.5-3.5,4.5-3.5c1.3,0,2.3,0.7,2.3,1.7c0,1.7-2.5,3.5-4.6,3.5C105.4,31.7,104.4,31.1,104.4,30z"/>
</g>
<rect x="119.7" y="27.4" width="0.5" height="14.9"/>
<g>
	<path d="M119.8,27.5c0-1.8,2.5-3.5,4.5-3.5c1.3,0,2.3,0.7,2.3,1.7c0,1.7-2.5,3.5-4.6,3.5C120.7,29.2,119.8,28.6,119.8,27.5z"/>
</g>
<rect x="137" y="25" width="0.5" height="15.7"/>
<g>
	<path d="M137.1,25c0-1.8,2.5-3.5,4.5-3.5c1.3,0,2.3,0.7,2.3,1.7c0,1.7-2.5,3.5-4.6,3.5C138.1,26.8,137.1,26.1,137.1,25z"/>
</g>
<g>
	<path d="M134.7,17.4v2.8l1-0.3v1.8l-1,0.3v3.4l1-0.3v1.8l-1,0.3v3.1h-0.5v-3l-1.9,0.6v3h-0.5v-2.8l-1,0.3v-1.8l1-0.3v-3.4l-1,0.3
		v-1.8l1-0.3V18h0.5v3l1.9-0.6v-3H134.7z M134.2,22.1l-1.9,0.6v3.4l1.9-0.6V22.1z"/>
</g>
<rect x="152.4" y="22.5" width="0.5" height="16.4"/>
<g>
	<path d="M152.5,22.6c0-1.8,2.5-3.5,4.5-3.5c1.3,0,2.3,0.7,2.3,1.7c0,1.7-2.5,3.5-4.6,3.5C153.4,24.3,152.5,23.6,152.5,22.6z"/>
</g>
<rect x="178.7" y="20" width="0.5" height="14"/>
<g>
	<path d="M178.8,20.1c0-1.8,2.5-3.5,4.5-3.5c1.3,0,2.3,0.7,2.3,1.7c0,1.7-2.5,3.5-4.6,3.5C179.8,21.8,178.8,21.2,178.8,20.1z"/>
</g>
<rect x="194.1" y="17.5" width="0.5" height="14.9"/>
<g>
	<path d="M194.2,17.6c0-1.8,2.5-3.5,4.5-3.5c1.3,0,2.3,0.7,2.3,1.7c0,1.7-2.5,3.5-4.6,3.5C195.1,19.3,194.2,18.7,194.2,17.6z"/>
</g>
<rect x="207.7" y="13.9" width="10.5" height="0.8"/>
<rect x="209.4" y="15" width="0.5" height="15.7"/>
<g>
	<path d="M209.5,15.1c0-1.8,2.5-3.5,4.5-3.5c1.3,0,2.3,0.7,2.3,1.7c0,1.7-2.5,3.5-4.6,3.5C210.5,16.8,209.5,16.2,209.5,15.1z"/>
</g>
<rect x="223" y="13.9" width="10.5" height="0.8"/>
<rect x="224.8" y="12.6" width="0.5" height="16.4"/>
<g>
	<path d="M224.9,12.6c0-1.8,2.5-3.5,4.5-3.5c1.3,0,2.3,0.7,2.3,1.7c0,1.7-2.5,3.5-4.6,3.5C225.8,14.4,224.9,13.7,224.9,12.6z"/>
</g>
<rect x="238.2" y="13.9" width="10.5" height="0.8"/>
<rect x="238.2" y="8.9" width="10.5" height="0.8"/>
<rect x="240" y="10.1" width="0.5" height="20.2"/>
<g>
	<path d="M240.1,10.2c0-1.8,2.5-3.5,4.5-3.5c1.3,0,2.3,0.7,2.3,1.7c0,1.7-2.5,3.5-4.6,3.5C241,11.9,240.1,11.2,240.1,10.2z"/>
</g>
<rect x="255.6" y="13.9" width="10.5" height="0.8"/>
<rect x="255.6" y="8.9" width="10.5" height="0.8"/>
<rect x="257.3" y="7.6" width="0.5" height="22.3"/>
<g>
	<path d="M257.4,7.7c0-1.8,2.5-3.5,4.5-3.5c1.3,0,2.3,0.7,2.3,1.7c0,1.7-2.5,3.5-4.6,3.5C258.4,9.4,257.4,8.8,257.4,7.7z"/>
</g>
<g>
	<path d="M253.7,0v2.8l1-0.3v1.8l-1,0.3v3.4l1-0.3v1.8l-1,0.3V13h-0.5v-3l-1.9,0.6v3h-0.5v-2.8l-1,0.3V9.3l1-0.3V5.6l-1,0.3V4.1
		l1-0.3V0.6h0.5v3l1.9-0.6V0H253.7z M253.2,4.8l-1.9,0.6v3.4l1.9-0.6V4.8z"/>
</g>
<rect x="270.9" y="13.9" width="10.5" height="0.8"/>
<rect x="270.9" y="8.9" width="10.5" height="0.8"/>
<rect x="270.9" y="4" width="10.5" height="0.8"/>
<rect x="272.7" y="5.1" width="0.5" height="24.3"/>
<g>
	<path d="M272.8,5.2c0-1.8,2.5-3.5,4.5-3.5c1.3,0,2.3,0.7,2.3,1.7c0,1.7-2.5,3.5-4.6,3.5C273.7,6.9,272.8,6.3,272.8,5.2z"/>
</g>
<rect x="286.2" y="13.9" width="10.5" height="0.8"/>
<rect x="286.2" y="8.9" width="10.5" height="0.8"/>
<rect x="288" y="7.6" width="0.5" height="21.4"/>
<g>
	<path d="M288.1,7.7c0-1.8,2.5-3.5,4.5-3.5c1.3,0,2.3,0.7,2.3,1.7c0,1.7-2.5,3.5-4.6,3.5C289.1,9.4,288.1,8.8,288.1,7.7z"/>
</g>
<rect x="301.6" y="13.9" width="10.5" height="0.8"/>
<rect x="301.6" y="8.9" width="10.5" height="0.8"/>
<rect x="303.4" y="10.1" width="0.5" height="18.9"/>
<g>
	<path d="M303.5,10.2c0-1.8,2.5-3.5,4.5-3.5c1.3,0,2.3,0.7,2.3,1.7c0,1.7-2.5,3.5-4.6,3.5C304.4,11.9,303.5,11.2,303.5,10.2z"/>
</g>
<rect x="316.9" y="13.9" width="10.5" height="0.8"/>
<rect x="318.7" y="12.6" width="0.5" height="18"/>
<g>
	<path d="M318.8,12.6c0-1.8,2.5-3.5,4.5-3.5c1.3,0,2.3,0.7,2.3,1.7c0,1.7-2.5,3.5-4.6,3.5C319.8,14.4,318.8,13.7,318.8,12.6z"/>
</g>
<rect x="332.3" y="13.9" width="10.5" height="0.8"/>
<rect x="334.1" y="15" width="0.5" height="17.2"/>
<g>
	<path d="M334.1,15.1c0-1.8,2.5-3.5,4.5-3.5c1.3,0,2.3,0.7,2.3,1.7c0,1.7-2.5,3.5-4.6,3.5C335.1,16.8,334.1,16.2,334.1,15.1z"/>
</g>
<rect x="349.3" y="17.5" width="0.5" height="16.4"/>
<g>
	<path d="M349.3,17.6c0-1.8,2.5-3.5,4.5-3.5c1.3,0,2.3,0.7,2.3,1.7c0,1.7-2.5,3.5-4.6,3.5C350.3,19.3,349.3,18.7,349.3,17.6z"/>
</g>
<rect x="375.6" y="20" width="0.5" height="18.9"/>
<g>
	<path d="M375.7,20.1c0-1.8,2.5-3.5,4.5-3.5c1.3,0,2.3,0.7,2.3,1.7c0,1.7-2.5,3.5-4.6,3.5C376.7,21.8,375.7,21.2,375.7,20.1z"/>
</g>
<rect x="391" y="22.5" width="0.5" height="18"/>
<g>
	<path d="M391,22.6c0-1.8,2.5-3.5,4.5-3.5c1.3,0,2.3,0.7,2.3,1.7c0,1.7-2.5,3.5-4.6,3.5C392,24.3,391,23.6,391,22.6z"/>
</g>
<rect x="406.3" y="25" width="0.5" height="17.2"/>
<g>
	<path d="M406.4,25c0-1.8,2.5-3.5,4.5-3.5c1.3,0,2.3,0.7,2.3,1.7c0,1.7-2.5,3.5-4.6,3.5C407.4,26.8,406.4,26.1,406.4,25z"/>
</g>
<rect x="421.7" y="27.4" width="0.5" height="16.4"/>
<g>
	<path d="M421.7,27.5c0-1.8,2.5-3.5,4.5-3.5c1.3,0,2.3,0.7,2.3,1.7c0,1.7-2.5,3.5-4.6,3.5C422.7,29.2,421.7,28.6,421.7,27.5z"/>
</g>
<rect x="443.5" y="14.4" width="0.5" height="14"/>
<g>
	<path d="M437.1,30c0-1.8,2.5-3.5,4.5-3.5c1.3,0,2.3,0.7,2.3,1.7c0,1.7-2.5,3.5-4.6,3.5C438,31.7,437.1,31.1,437.1,30z"/>
</g>
<rect x="458.9" y="16" width="0.5" height="14.9"/>
<g>
	<path d="M452.4,32.5c0-1.8,2.5-3.5,4.5-3.5c1.3,0,2.3,0.7,2.3,1.7c0,1.7-2.5,3.5-4.6,3.5C453.4,34.2,452.4,33.6,452.4,32.5z"/>
</g>
<rect x="474" y="17.7" width="0.5" height="15.7"/>
<g>
	<path d="M467.6,35c0-1.8,2.5-3.5,4.5-3.5c1.3,0,2.3,0.7,2.3,1.7c0,1.7-2.5,3.5-4.6,3.5C468.6,36.7,467.6,36,467.6,35z"/>
</g>
<rect x="489.4" y="19.4" width="0.5" height="16.4"/>
<g>
	<path d="M483,37.4c0-1.8,2.5-3.5,4.5-3.5c1.3,0,2.3,0.7,2.3,1.7c0,1.7-2.5,3.5-4.6,3.5C483.9,39.2,483,38.5,483,37.4z"/>
</g>
<rect x="504.9" y="21.7" width="0.5" height="16.6"/>
<g>
	<path d="M502.6,36.4c1.6,0,2.7,0.7,2.7,2c0,1.9-2.3,3.4-4.5,3.4c-1.3,0-2.4-0.7-2.4-1.8C498.3,38.2,500.5,36.4,502.6,36.4z
		 M498.8,40.2c0,0.6,0.4,0.9,1.1,0.9c1.4,0,4.9-2.1,4.9-3.3c0-0.6-0.4-0.9-1.1-0.9C502.4,37,498.8,39,498.8,40.2z"/>
</g>
<rect x="43.1" y="74.6" width="0.5" height="16.4"/>
<g>
	<path d="M43.2,74.6c0-1.8,2.5-3.5,4.5-3.5c1.3,0,2.3,0.7,2.3,1.7c0,1.7-2.5,3.5-4.6,3.5C44.2,76.4,43.2,75.7,43.2,74.6z"/>
</g>
<rect x="58.5" y="72.1" width="0.5" height="17.4"/>
<g>
	<path d="M58.5,72.2c0-1.8,2.5-3.5,4.5-3.5c1.3,0,2.3,0.7,2.3,1.7c0,1.7-2.5,3.5-4.6,3.5C59.5,73.9,58.5,73.3,58.5,72.2z"/>
</g>
<rect x="73.8" y="69.6" width="0.5" height="18.1"/>
<g>
	<path d="M73.9,69.7c0-1.8,2.5-3.5,4.5-3.5c1.3,0,2.3,0.7,2.3,1.7c0,1.7-2.5,3.5-4.6,3.5C74.8,71.4,73.9,70.8,73.9,69.7z"/>
</g>
<rect x="89.1" y="67.1" width="0.5" height="18.9"/>
<g>
	<path d="M89.2,67.2c0-1.8,2.5-3.5,4.5-3.5c1.3,0,2.3,0.7,2.3,1.7c0,1.7-2.5,3.5-4.6,3.5C90.2,68.9,89.2,68.3,89.2,67.2z"/>
</g>
<rect x="104.3" y="64.6" width="0.5" height="16.4"/>
<g>
	<path d="M104.4,64.7c0-1.8,2.5-3.5,4.5-3.5c1.3,0,2.3,0.7,2.3,1.7c0,1.7-2.5,3.5-4.6,3.5C105.4,66.4,104.4,65.8,104.4,64.7z"/>
</g>
<rect x="117.9" y="61" width="10.5" height="0.8"/>
<rect x="119.7" y="62.2" width="0.5" height="17.4"/>
<g>
	<path d="M119.8,62.2c0-1.8,2.5-3.5,4.5-3.5c1.3,0,2.3,0.7,2.3,1.7c0,1.7-2.5,3.5-4.6,3.5C120.7,64,119.8,63.3,119.8,62.2z"/>
</g>
<rect x="135.3" y="61" width="10.5" height="0.8"/>
<rect x="137" y="59.7" width="0.5" height="18.1"/>
<g>
	<path d="M137.1,59.8c0-1.8,2.5-3.5,4.5-3.5c1.3,0,2.3,0.7,2.3,1.7c0,1.7-2.5,3.5-4.6,3.5C138.1,61.5,137.1,60.9,137.1,59.8z"/>
</g>
<g>
	<path d="M133.5,52.1v2.8l1-0.3v1.8l-1,0.3v3.4l1-0.3v1.8l-1,0.3v3.1H133v-3l-1.9,0.6v3h-0.5v-2.8l-1,0.3v-1.8l1-0.3v-3.4l-1,0.3
		v-1.8l1-0.3v-3.1h0.5v3l1.9-0.6v-3H133.5z M133,56.9l-1.9,0.6v3.4l1.9-0.6V56.9z"/>
</g>
<rect x="150.6" y="61" width="10.5" height="0.8"/>
<rect x="150.6" y="56" width="10.5" height="0.8"/>
<rect x="152.4" y="57.2" width="0.5" height="18.9"/>
<g>
	<path d="M152.5,57.3c0-1.8,2.5-3.5,4.5-3.5c1.3,0,2.3,0.7,2.3,1.7c0,1.7-2.5,3.5-4.6,3.5C153.4,59,152.5,58.4,152.5,57.3z"/>
</g>
<rect x="185.3" y="66.5" width="0.5" height="16.4"/>
<g>
	<path d="M178.8,84.6c0-1.8,2.5-3.5,4.5-3.5c1.3,0,2.3,0.7,2.3,1.7c0,1.7-2.5,3.5-4.6,3.5C179.8,86.3,178.8,85.7,178.8,84.6z"/>
</g>
<rect x="200.6" y="65" width="0.5" height="15.5"/>
<g>
	<path d="M194.2,82.1c0-1.8,2.5-3.5,4.5-3.5c1.3,0,2.3,0.7,2.3,1.7c0,1.7-2.5,3.5-4.6,3.5C195.1,83.8,194.2,83.2,194.2,82.1z"/>
</g>
<rect x="215.9" y="63.2" width="0.5" height="14.7"/>
<g>
	<path d="M209.5,79.6c0-1.8,2.5-3.5,4.5-3.5c1.3,0,2.3,0.7,2.3,1.7c0,1.7-2.5,3.5-4.6,3.5C210.5,81.3,209.5,80.7,209.5,79.6z"/>
</g>
<rect x="231.3" y="61.5" width="0.5" height="14"/>
<g>
	<path d="M224.9,77.1c0-1.8,2.5-3.5,4.5-3.5c1.3,0,2.3,0.7,2.3,1.7c0,1.7-2.5,3.5-4.6,3.5C225.8,78.8,224.9,78.2,224.9,77.1z"/>
</g>
<rect x="240" y="74.6" width="0.5" height="17.7"/>
<g>
	<path d="M240.1,74.6c0-1.8,2.5-3.5,4.5-3.5c1.3,0,2.3,0.7,2.3,1.7c0,1.7-2.5,3.5-4.6,3.5C241,76.4,240.1,75.7,240.1,74.6z"/>
</g>
<rect x="257.3" y="72.1" width="0.5" height="19.8"/>
<g>
	<path d="M257.4,72.2c0-1.8,2.5-3.5,4.5-3.5c1.3,0,2.3,0.7,2.3,1.7c0,1.7-2.5,3.5-4.6,3.5C258.4,73.9,257.4,73.3,257.4,72.2z"/>
</g>
<g>
	<path d="M255,64.5v2.8l1-0.3v1.8l-1,0.3v3.4l1-0.3V74l-1,0.3v3.1h-0.5v-3l-1.9,0.6v3h-0.5v-2.8l-1,0.3v-1.8l1-0.3V70l-1,0.3v-1.8
		l1-0.3v-3.1h0.5v3l1.9-0.6v-3H255z M254.5,69.3l-1.9,0.6v3.4l1.9-0.6V69.3z"/>
</g>
<rect x="272.7" y="69.6" width="0.5" height="21.9"/>
<g>
	<path d="M272.8,69.7c0-1.8,2.5-3.5,4.5-3.5c1.3,0,2.3,0.7,2.3,1.7c0,1.7-2.5,3.5-4.6,3.5C273.7,71.4,272.8,70.8,272.8,69.7z"/>
</g>
<rect x="288" y="72.1" width="0.5" height="18.9"/>
<g>
	<path d="M288.1,72.2c0-1.8,2.5-3.5,4.5-3.5c1.3,0,2.3,0.7,2.3,1.7c0,1.7-2.5,3.5-4.6,3.5C289.1,73.9,288.1,73.3,288.1,72.2z"/>
</g>
<rect x="309.9" y="56.6" width="0.5" height="16.4"/>
<g>
	<path d="M303.5,74.6c0-1.8,2.5-3.5,4.5-3.5c1.3,0,2.3,0.7,2.3,1.7c0,1.7-2.5,3.5-4.6,3.5C304.4,76.4,303.5,75.7,303.5,74.6z"/>
</g>
<rect x="325.2" y="58.1" width="0.5" height="17.4"/>
<g>
	<path d="M318.8,77.1c0-1.8,2.5-3.5,4.5-3.5c1.3,0,2.3,0.7,2.3,1.7c0,1.7-2.5,3.5-4.6,3.5C319.8,78.8,318.8,78.2,318.8,77.1z"/>
</g>
<rect x="340.6" y="59.8" width="0.5" height="18.1"/>
<g>
	<path d="M334.1,79.6c0-1.8,2.5-3.5,4.5-3.5c1.3,0,2.3,0.7,2.3,1.7c0,1.7-2.5,3.5-4.6,3.5C335.1,81.3,334.1,80.7,334.1,79.6z"/>
</g>
<rect x="355.8" y="61.5" width="0.5" height="18.9"/>
<g>
	<path d="M349.3,82.1c0-1.8,2.5-3.5,4.5-3.5c1.3,0,2.3,0.7,2.3,1.7c0,1.7-2.5,3.5-4.6,3.5C350.3,83.8,349.3,83.2,349.3,82.1z"/>
</g>
<rect x="373.8" y="61" width="10.5" height="0.8"/>
<rect x="373.8" y="56" width="10.5" height="0.8"/>
<rect x="375.6" y="54.7" width="0.5" height="21.4"/>
<g>
	<path d="M375.7,54.8c0-1.8,2.5-3.5,4.5-3.5c1.3,0,2.3,0.7,2.3,1.7c0,1.7-2.5,3.5-4.6,3.5C376.7,56.5,375.7,55.9,375.7,54.8z"/>
</g>
<rect x="389.2" y="61" width="10.5" height="0.8"/>
<rect x="389.2" y="56" width="10.5" height="0.8"/>
<rect x="391" y="57.2" width="0.5" height="19.2"/>
<g>
	<path d="M391,57.3c0-1.8,2.5-3.5,4.5-3.5c1.3,0,2.3,0.7,2.3,1.7c0,1.7-2.5,3.5-4.6,3.5C392,59,391,58.4,391,57.3z"/>
</g>
<rect x="404.5" y="61" width="10.5" height="0.8"/>
<rect x="406.3" y="59.7" width="0.5" height="17.2"/>
<g>
	<path d="M406.4,59.8c0-1.8,2.5-3.5,4.5-3.5c1.3,0,2.3,0.7,2.3,1.7c0,1.7-2.5,3.5-4.6,3.5C407.4,61.5,406.4,60.9,406.4,59.8z"/>
</g>
<rect x="419.9" y="61" width="10.5" height="0.8"/>
<rect x="421.7" y="62.2" width="0.5" height="15.2"/>
<g>
	<path d="M421.7,62.2c0-1.8,2.5-3.5,4.5-3.5c1.3,0,2.3,0.7,2.3,1.7c0,1.7-2.5,3.5-4.6,3.5C422.7,64,421.7,63.3,421.7,62.2z"/>
</g>
<rect x="437" y="64.6" width="0.5" height="16.4"/>
<g>
	<path d="M437.1,64.7c0-1.8,2.5-3.5,4.5-3.5c1.3,0,2.3,0.7,2.3,1.7c0,1.7-2.5,3.5-4.6,3.5C438,66.4,437.1,65.8,437.1,64.7z"/>
</g>
<rect x="452.3" y="67.1" width="0.5" height="15.5"/>
<g>
	<path d="M452.4,67.2c0-1.8,2.5-3.5,4.5-3.5c1.3,0,2.3,0.7,2.3,1.7c0,1.7-2.5,3.5-4.6,3.5C453.4,68.9,452.4,68.3,452.4,67.2z"/>
</g>
<rect x="467.5" y="69.6" width="0.5" height="14.7"/>
<g>
	<path d="M467.6,69.7c0-1.8,2.5-3.5,4.5-3.5c1.3,0,2.3,0.7,2.3,1.7c0,1.7-2.5,3.5-4.6,3.5C468.6,71.4,467.6,70.8,467.6,69.7z"/>
</g>
<rect x="482.9" y="72.1" width="0.5" height="14"/>
<g>
	<path d="M483,72.2c0-1.8,2.5-3.5,4.5-3.5c1.3,0,2.3,0.7,2.3,1.7c0,1.7-2.5,3.5-4.6,3.5C483.9,73.9,483,73.3,483,72.2z"/>
</g>
<rect x="498.2" y="74.6" width="0.5" height="16.6"/>
<g>
	<path d="M502.6,71.1c1.6,0,2.7,0.7,2.7,2c0,1.9-2.3,3.4-4.5,3.4c-1.3,0-2.4-0.7-2.4-1.8C498.3,72.9,500.5,71.1,502.6,71.1z
		 M498.8,74.9c0,0.6,0.4,0.9,1.1,0.9c1.4,0,4.9-2.1,4.9-3.3c0-0.6-0.4-0.9-1.1-0.9C502.4,71.7,498.8,73.7,498.8,74.9z"/>
</g>
</svg>
