<?xml version="1.0" encoding="utf-8"?>

<!--
	ScaleBook
	Copyright (c) Leland Jansen 2015. All rights reserved.
-->

<!DOCTYPE svg PUBLIC "-//W3C//DTD SVG 1.1//EN" "http://www.w3.org/Graphics/SVG/1.1/DTD/svg11.dtd">
<svg version="1.1" id="Layer_1" xmlns="http://www.w3.org/2000/svg" xmlns:xlink="http://www.w3.org/1999/xlink" x="0px" y="0px"
	 viewBox="0 0 552.9 81.6" enable-background="new 0 0 552.9 81.6" xml:space="preserve">
<rect x="8.4" y="9.7" width="0.8" height="67"/>
<g>
	<path d="M7.4,10.4c-1.9,1.1-3.6,5.8-3.6,9.4c0,2.3,1.4,9.9,1.4,12.3c0,5-1.5,8.6-4.6,11.1c3,2.4,4.6,6.1,4.6,11.1
		c0,2.3-1.4,9.9-1.4,12.3c0,3.8,1.7,8.4,3.6,9.5v0.7c-3.5-2.3-5.8-8.2-5.8-13.1c0-2.1,1.7-9.4,1.7-11.5c0-3.8-1-6.6-2.9-8.2
		C0.1,43.6,0,43.4,0,43.2c0-0.2,0.1-0.4,0.5-0.7c1.9-1.7,2.9-4.2,2.9-7.6c0-2.1-1.7-10-1.7-12.2c0-5.2,2.1-10.4,5.8-13.1V10.4z"/>
</g>
<rect x="547.8" y="9.7" width="0.8" height="67"/>
<rect x="550.4" y="9.7" width="2.5" height="67"/>
<rect x="8.5" y="29.3" width="544.4" height="0.5"/>
<rect x="8.5" y="24.4" width="544.4" height="0.5"/>
<rect x="8.5" y="19.4" width="544.4" height="0.5"/>
<rect x="8.5" y="14.4" width="544.4" height="0.5"/>
<rect x="8.5" y="9.5" width="544.4" height="0.5"/>
<g>
	<path d="M20.3,29.4c-4.2,0-8.1-3.1-8.1-6.9c0-3.2,2.3-6.7,6.8-10.5c-0.3-1.2-0.4-2.4-0.4-3.6c0-3.5,1.2-6.8,3.2-8.5
		c1.8,2.5,2.7,4.9,2.7,7.1c0,2.9-1.3,5.6-4.3,8.1l0.9,4.2c0.5,0,0.8-0.1,0.8-0.1c2.6,0,4.8,2,4.8,4.7c0,1.9-1.4,3.7-3.6,4.8
		c0-0.1,0.9,3.8,0.9,4.3c0,2.5-2.3,4.2-4.9,4.2c-2,0-3.6-1.3-3.6-3.4c0-1.4,1-2.6,2.4-2.6c1.3,0,2.3,1.3,2.3,2.5
		c0,1.4-1.2,2.3-2.7,2.5c0.6,0.3,1.2,0.5,1.9,0.5c2.1,0,4.1-1.6,4.1-3.6c0-0.2,0-0.4-0.1-0.6l-0.8-3.7
		C21.9,29.3,21.2,29.4,20.3,29.4z M18.1,24.2c0,1,0.5,1.9,1.6,2.5c-1.8-0.3-3-1.4-3-3.1c0-2,1.7-3.7,3.8-4.1l-0.8-4
		C16,18.3,14,21,14,23.6c0,2.9,2.8,5.3,6,5.3c0.9,0,1.7-0.2,2.4-0.5L21,21.6C19.4,21.8,18.1,22.8,18.1,24.2z M22.1,2.8
		c-1.6,0-2.9,3.7-2.9,7c0,0.7,0,1.3,0.2,1.9c2.7-2.4,4-4.5,4-6.5c0-0.9-0.3-1.7-1-2.4C22.4,2.9,22.3,2.8,22.1,2.8z M24.9,24.7
		c0-1.6-1.2-3.3-2.9-3.3c-0.1,0-0.2,0-0.5,0l1.4,6.6C24.2,27.2,24.9,26,24.9,24.7z"/>
</g>
<g>
	<path d="M29.5,11.3h0.6L30,17.6c0.4-0.7,1-1,1.8-1c1.2,0,2.2,0.8,2.2,1.9c0,0.8-0.5,1.8-1.7,2.7l-2.8,2.1V11.3z M30.1,18.2
		C30,19,30,19.6,30,20.2c0,1,0,1.6,0.1,2c1-0.7,2.4-2.6,2.4-3.7c0-0.6-0.5-1.1-1.1-1.1C30.8,17.4,30.4,17.7,30.1,18.2z"/>
</g>
<g>
	<path d="M35.1,3.9h0.6l-0.1,6.2c0.4-0.7,1-1,1.8-1c1.2,0,2.2,0.8,2.2,1.9c0,0.8-0.5,1.8-1.7,2.7l-2.8,2.1V3.9z M35.7,10.8
		c-0.1,0.8-0.1,1.4-0.1,1.9c0,1,0,1.6,0.1,2c1-0.7,2.4-2.6,2.4-3.7c0-0.6-0.5-1.1-1.1-1.1C36.4,10,36,10.2,35.7,10.8z"/>
</g>
<polygon fill-rule="evenodd" clip-rule="evenodd" points="54.8,25.8 102.7,24.6 102.7,22.1 54.8,23.4 "/>
<polygon fill-rule="evenodd" clip-rule="evenodd" points="54.8,22.1 102.7,20.9 102.7,18.4 54.8,19.6 "/>
<polygon fill-rule="evenodd" clip-rule="evenodd" points="118.7,20.9 166.6,15.9 166.6,13.4 118.7,18.4 "/>
<polygon fill-rule="evenodd" clip-rule="evenodd" points="118.7,17.2 166.6,12.2 166.6,9.7 118.7,14.7 "/>
<polygon fill-rule="evenodd" clip-rule="evenodd" points="176,35.8 223.8,30.8 223.8,28.3 176,33.3 "/>
<polygon fill-rule="evenodd" clip-rule="evenodd" points="176,39.5 223.8,34.5 223.8,32 176,37 "/>
<polygon fill-rule="evenodd" clip-rule="evenodd" points="239.7,27.1 289,25.8 289,23.4 239.7,24.6 "/>
<polygon fill-rule="evenodd" clip-rule="evenodd" points="239.7,30.8 289,29.6 289,27.1 239.7,28.3 "/>
<polygon fill-rule="evenodd" clip-rule="evenodd" points="305,25.8 352.9,30.8 352.9,28.3 305,23.4 "/>
<polygon fill-rule="evenodd" clip-rule="evenodd" points="305,29.6 352.9,34.5 352.9,32 305,27.1 "/>
<polygon fill-rule="evenodd" clip-rule="evenodd" points="375.4,11 423.3,15.9 423.3,13.4 375.4,8.5 "/>
<polygon fill-rule="evenodd" clip-rule="evenodd" points="375.4,7.2 423.3,12.2 423.3,9.7 375.4,4.8 "/>
<polygon fill-rule="evenodd" clip-rule="evenodd" points="439.2,20.9 487.1,25.8 487.1,23.4 439.2,18.4 "/>
<polygon fill-rule="evenodd" clip-rule="evenodd" points="439.2,17.2 487.1,22.1 487.1,19.6 439.2,14.7 "/>
<rect x="8.5" y="76.4" width="544.4" height="0.5"/>
<rect x="8.5" y="71.5" width="544.4" height="0.5"/>
<rect x="8.5" y="66.5" width="544.4" height="0.5"/>
<rect x="8.5" y="61.6" width="544.4" height="0.5"/>
<rect x="8.5" y="56.6" width="544.4" height="0.5"/>
<g>
	<path d="M15.7,71c2.9-2.6,4.7-6.1,4.7-9.2c0-2.5-1.4-4.4-3.7-4.4c-1.6,0-3.4,1.3-3.4,2.7c0,0.2,0,0.3,0.1,0.3
		c-0.1,0,0.6-0.6,1.4-0.6c0.9,0,1.5,0.8,1.5,1.7c0,1.2-0.9,2.2-2.1,2.2c-1.2,0-2.1-1.3-2.1-2.8c0-2.3,2.3-4.1,4.8-4.1
		c4.7,0,5.9,3.2,5.9,5.8c0,1.6-0.4,2.9-2,5.3c-1.9,3.1-6.4,5.3-8.1,5.3c-0.4,0-0.6-0.2-0.6-0.5C13.8,72.3,14.9,71.7,15.7,71z
		 M25.7,58.3c0.6,0,1,0.4,1,1c0,0.6-0.4,1-1,1s-1-0.4-1-1C24.7,58.8,25.1,58.3,25.7,58.3z M25.7,63.3c0.6,0,1,0.4,1,1
		c0,0.6-0.4,1-1,1s-1-0.4-1-1C24.7,63.7,25.1,63.3,25.7,63.3z"/>
</g>
<g>
	<path d="M29.5,63.4h0.6L30,69.7c0.4-0.7,1-1,1.8-1c1.2,0,2.2,0.8,2.2,1.9c0,0.8-0.5,1.8-1.7,2.7l-2.8,2.1V63.4z M30.1,70.3
		C30,71.1,30,71.7,30,72.3c0,1,0,1.6,0.1,2c1-0.7,2.4-2.6,2.4-3.7c0-0.6-0.5-1.1-1.1-1.1C30.8,69.5,30.4,69.8,30.1,70.3z"/>
</g>
<g>
	<path d="M35.1,56h0.6l-0.1,6.2c0.4-0.7,1-1,1.8-1c1.2,0,2.2,0.8,2.2,1.9c0,0.8-0.5,1.8-1.7,2.7l-2.8,2.1V56z M35.7,62.9
		c-0.1,0.8-0.1,1.4-0.1,1.9c0,1,0,1.6,0.1,2c1-0.7,2.4-2.6,2.4-3.7c0-0.6-0.5-1.1-1.1-1.1C36.4,62,36,62.3,35.7,62.9z"/>
</g>
<polygon fill-rule="evenodd" clip-rule="evenodd" points="54.8,63 102.7,58.1 102.7,55.6 54.8,60.6 "/>
<polygon fill-rule="evenodd" clip-rule="evenodd" points="54.8,59.3 102.7,54.4 102.7,51.9 54.8,56.8 "/>
<polygon fill-rule="evenodd" clip-rule="evenodd" points="112.2,77.9 160.1,73 160.1,70.5 112.2,75.4 "/>
<polygon fill-rule="evenodd" clip-rule="evenodd" points="112.2,81.6 160.1,76.7 160.1,74.2 112.2,79.2 "/>
<polygon fill-rule="evenodd" clip-rule="evenodd" points="176,68 223.8,63 223.8,60.6 176,65.5 "/>
<polygon fill-rule="evenodd" clip-rule="evenodd" points="176,71.7 223.8,66.8 223.8,64.3 176,69.2 "/>
<polygon fill-rule="evenodd" clip-rule="evenodd" points="239.7,64.3 289,63 289,60.6 239.7,61.8 "/>
<polygon fill-rule="evenodd" clip-rule="evenodd" points="239.7,68 289,66.8 289,64.3 239.7,65.5 "/>
<polygon fill-rule="evenodd" clip-rule="evenodd" points="305,63 352.9,68 352.9,65.5 305,60.6 "/>
<polygon fill-rule="evenodd" clip-rule="evenodd" points="305,66.8 352.9,71.7 352.9,69.2 305,64.3 "/>
<polygon fill-rule="evenodd" clip-rule="evenodd" points="368.9,73 416.8,77.9 416.8,75.4 368.9,70.5 "/>
<polygon fill-rule="evenodd" clip-rule="evenodd" points="368.9,76.7 416.8,81.6 416.8,79.2 368.9,74.2 "/>
<polygon fill-rule="evenodd" clip-rule="evenodd" points="439.2,58.1 487.1,63 487.1,60.6 439.2,55.6 "/>
<polygon fill-rule="evenodd" clip-rule="evenodd" points="439.2,54.4 487.1,59.3 487.1,56.8 439.2,51.9 "/>
<rect x="46.3" y="34.1" width="10.5" height="0.8"/>
<rect x="46.3" y="39.1" width="10.5" height="0.8"/>
<rect x="54.6" y="19.8" width="0.5" height="21.4"/>
<g>
	<path d="M48.1,42.8c0-1.8,2.5-3.5,4.5-3.5c1.3,0,2.3,0.7,2.3,1.7c0,1.7-2.5,3.5-4.6,3.5C49.1,44.5,48.1,43.9,48.1,42.8z"/>
</g>
<rect x="62.2" y="34.1" width="10.5" height="0.8"/>
<rect x="62.2" y="39.1" width="10.5" height="0.8"/>
<rect x="70.5" y="19.5" width="0.5" height="19.2"/>
<g>
	<path d="M64.1,40.3c0-1.8,2.5-3.5,4.5-3.5c1.3,0,2.3,0.7,2.3,1.7c0,1.7-2.5,3.5-4.6,3.5C65.1,42.1,64.1,41.4,64.1,40.3z"/>
</g>
<rect x="78.2" y="34.1" width="10.5" height="0.8"/>
<rect x="86.5" y="19" width="0.5" height="17.2"/>
<g>
	<path d="M80.1,37.9c0-1.8,2.5-3.5,4.5-3.5c1.3,0,2.3,0.7,2.3,1.7c0,1.7-2.5,3.5-4.6,3.5C81,39.6,80.1,38.9,80.1,37.9z"/>
</g>
<rect x="94.2" y="34.1" width="10.5" height="0.8"/>
<rect x="102.5" y="18.6" width="0.5" height="15.2"/>
<g>
	<path d="M96,35.4c0-1.8,2.5-3.5,4.5-3.5c1.3,0,2.3,0.7,2.3,1.7c0,1.7-2.5,3.5-4.6,3.5C97,37.1,96,36.5,96,35.4z"/>
</g>
<rect x="118.4" y="14.8" width="0.5" height="16.4"/>
<g>
	<path d="M112,32.9c0-1.8,2.5-3.5,4.5-3.5c1.3,0,2.3,0.7,2.3,1.7c0,1.7-2.5,3.5-4.6,3.5C113,34.6,112,34,112,32.9z"/>
</g>
<rect x="134.4" y="13.3" width="0.5" height="15.5"/>
<g>
	<path d="M128,30.4c0-1.8,2.5-3.5,4.5-3.5c1.3,0,2.3,0.7,2.3,1.7c0,1.7-2.5,3.5-4.6,3.5C128.9,32.1,128,31.5,128,30.4z"/>
</g>
<rect x="150.4" y="11.6" width="0.5" height="14.7"/>
<g>
	<path d="M143.9,27.9c0-1.8,2.5-3.5,4.5-3.5c1.3,0,2.3,0.7,2.3,1.7c0,1.7-2.5,3.5-4.6,3.5C144.9,29.7,143.9,29,143.9,27.9z"/>
</g>
<g>
	<path d="M141.5,20.3v2.8l1-0.3v1.8l-1,0.3v3.4l1-0.3v1.8l-1,0.3v3.1H141v-3l-1.9,0.6v3h-0.5V31l-1,0.3v-1.8l1-0.3v-3.4l-1,0.3v-1.8
		l1-0.3v-3.1h0.5v3l1.9-0.6v-3H141.5z M141,25l-1.9,0.6v3.4l1.9-0.6V25z"/>
</g>
<rect x="166.3" y="9.9" width="0.5" height="14"/>
<g>
	<path d="M159.9,25.5c0-1.8,2.5-3.5,4.5-3.5c1.3,0,2.3,0.7,2.3,1.7c0,1.7-2.5,3.5-4.6,3.5C160.9,27.2,159.9,26.5,159.9,25.5z"/>
</g>
<rect x="175.8" y="22.9" width="0.5" height="16.4"/>
<g>
	<path d="M175.9,23c0-1.8,2.5-3.5,4.5-3.5c1.3,0,2.3,0.7,2.3,1.7c0,1.7-2.5,3.5-4.6,3.5C176.8,24.7,175.9,24.1,175.9,23z"/>
</g>
<rect x="191.8" y="20.4" width="0.5" height="17.4"/>
<g>
	<path d="M191.8,20.5c0-1.8,2.5-3.5,4.5-3.5c1.3,0,2.3,0.7,2.3,1.7c0,1.7-2.5,3.5-4.6,3.5C192.8,22.2,191.8,21.6,191.8,20.5z"/>
</g>
<rect x="207.6" y="17.9" width="0.5" height="18.1"/>
<g>
	<path d="M207.7,18c0-1.8,2.5-3.5,4.5-3.5c1.3,0,2.3,0.7,2.3,1.7c0,1.7-2.5,3.5-4.6,3.5C208.6,19.7,207.7,19.1,207.7,18z"/>
</g>
<rect x="223.5" y="15.5" width="0.5" height="18.9"/>
<g>
	<path d="M223.6,15.5c0-1.8,2.5-3.5,4.5-3.5c1.3,0,2.3,0.7,2.3,1.7c0,1.7-2.5,3.5-4.6,3.5C224.6,17.3,223.6,16.6,223.6,15.5z"/>
</g>
<rect x="239.5" y="13" width="0.5" height="17.7"/>
<g>
	<path d="M239.6,13c0-1.8,2.5-3.5,4.5-3.5c1.3,0,2.3,0.7,2.3,1.7c0,1.7-2.5,3.5-4.6,3.5C240.6,14.8,239.6,14.1,239.6,13z"/>
</g>
<rect x="256.9" y="10.5" width="0.5" height="19.8"/>
<g>
	<path d="M256.9,10.6c0-1.8,2.5-3.5,4.5-3.5c1.3,0,2.3,0.7,2.3,1.7c0,1.7-2.5,3.5-4.6,3.5C257.9,12.3,256.9,11.7,256.9,10.6z"/>
</g>
<g>
	<path d="M254.5,2.9v2.8l1-0.3v1.8l-1,0.3V11l1-0.3v1.8l-1,0.3v3.1H254v-3l-1.9,0.6v3h-0.5v-2.8l-1,0.3v-1.8l1-0.3V8.4l-1,0.3V7
		l1-0.3V3.5h0.5v3l1.9-0.6v-3H254.5z M254,7.7l-1.9,0.6v3.4l1.9-0.6V7.7z"/>
</g>
<rect x="272.8" y="8" width="0.5" height="21.9"/>
<g>
	<path d="M272.9,8.1c0-1.8,2.5-3.5,4.5-3.5c1.3,0,2.3,0.7,2.3,1.7c0,1.7-2.5,3.5-4.6,3.5C273.9,9.8,272.9,9.2,272.9,8.1z"/>
</g>
<rect x="288.8" y="10.5" width="0.5" height="18.9"/>
<g>
	<path d="M288.9,10.6c0-1.8,2.5-3.5,4.5-3.5c1.3,0,2.3,0.7,2.3,1.7c0,1.7-2.5,3.5-4.6,3.5C289.9,12.3,288.9,11.7,288.9,10.6z"/>
</g>
<rect x="304.8" y="13" width="0.5" height="16.4"/>
<g>
	<path d="M304.8,13c0-1.8,2.5-3.5,4.5-3.5c1.3,0,2.3,0.7,2.3,1.7c0,1.7-2.5,3.5-4.6,3.5C305.8,14.8,304.8,14.1,304.8,13z"/>
</g>
<rect x="320.7" y="15.5" width="0.5" height="15.5"/>
<g>
	<path d="M320.8,15.5c0-1.8,2.5-3.5,4.5-3.5c1.3,0,2.3,0.7,2.3,1.7c0,1.7-2.5,3.5-4.6,3.5C321.8,17.3,320.8,16.6,320.8,15.5z"/>
</g>
<rect x="336.7" y="17.9" width="0.5" height="14.7"/>
<g>
	<path d="M336.8,18c0-1.8,2.5-3.5,4.5-3.5c1.3,0,2.3,0.7,2.3,1.7c0,1.7-2.5,3.5-4.6,3.5C337.8,19.7,336.8,19.1,336.8,18z"/>
</g>
<rect x="352.7" y="20.4" width="0.5" height="14"/>
<g>
	<path d="M352.7,20.5c0-1.8,2.5-3.5,4.5-3.5c1.3,0,2.3,0.7,2.3,1.7c0,1.7-2.5,3.5-4.6,3.5C353.7,22.2,352.7,21.6,352.7,20.5z"/>
</g>
<rect x="375.1" y="4.9" width="0.5" height="16.4"/>
<g>
	<path d="M368.7,23c0-1.8,2.5-3.5,4.5-3.5c1.3,0,2.3,0.7,2.3,1.7c0,1.7-2.5,3.5-4.6,3.5C369.7,24.7,368.7,24.1,368.7,23z"/>
</g>
<rect x="391.1" y="6.5" width="0.5" height="17.4"/>
<g>
	<path d="M384.7,25.5c0-1.8,2.5-3.5,4.5-3.5c1.3,0,2.3,0.7,2.3,1.7c0,1.7-2.5,3.5-4.6,3.5C385.7,27.2,384.7,26.5,384.7,25.5z"/>
</g>
<rect x="407.1" y="8.2" width="0.5" height="18.1"/>
<g>
	<path d="M400.6,27.9c0-1.8,2.5-3.5,4.5-3.5c1.3,0,2.3,0.7,2.3,1.7c0,1.7-2.5,3.5-4.6,3.5C401.6,29.7,400.6,29,400.6,27.9z"/>
</g>
<rect x="423" y="9.9" width="0.5" height="18.9"/>
<g>
	<path d="M416.6,30.4c0-1.8,2.5-3.5,4.5-3.5c1.3,0,2.3,0.7,2.3,1.7c0,1.7-2.5,3.5-4.6,3.5C417.6,32.1,416.6,31.5,416.6,30.4z"/>
</g>
<rect x="439" y="14.8" width="0.5" height="16.4"/>
<g>
	<path d="M432.6,32.9c0-1.8,2.5-3.5,4.5-3.5c1.3,0,2.3,0.7,2.3,1.7c0,1.7-2.5,3.5-4.6,3.5C433.6,34.6,432.6,34,432.6,32.9z"/>
</g>
<rect x="446.7" y="34.1" width="10.5" height="0.8"/>
<rect x="455" y="16.4" width="0.5" height="17.4"/>
<g>
	<path d="M448.5,35.4c0-1.8,2.5-3.5,4.5-3.5c1.3,0,2.3,0.7,2.3,1.7c0,1.7-2.5,3.5-4.6,3.5C449.5,37.1,448.5,36.5,448.5,35.4z"/>
</g>
<rect x="462.7" y="34.1" width="10.5" height="0.8"/>
<rect x="470.9" y="18.1" width="0.5" height="18.1"/>
<g>
	<path d="M464.5,37.9c0-1.8,2.5-3.5,4.5-3.5c1.3,0,2.3,0.7,2.3,1.7c0,1.7-2.5,3.5-4.6,3.5C465.5,39.6,464.5,38.9,464.5,37.9z"/>
</g>
<rect x="478.6" y="34.1" width="10.5" height="0.8"/>
<rect x="478.6" y="39.1" width="10.5" height="0.8"/>
<rect x="486.9" y="19.8" width="0.5" height="18.9"/>
<g>
	<path d="M480.5,40.3c0-1.8,2.5-3.5,4.5-3.5c1.3,0,2.3,0.7,2.3,1.7c0,1.7-2.5,3.5-4.6,3.5C481.5,42.1,480.5,41.4,480.5,40.3z"/>
</g>
<rect x="494.6" y="34.1" width="10.7" height="0.8"/>
<rect x="494.6" y="39.1" width="10.7" height="0.8"/>
<rect x="503" y="19.6" width="0.5" height="21.5"/>
<g>
	<path d="M500.7,39.3c1.6,0,2.7,0.7,2.7,2c0,1.9-2.3,3.4-4.5,3.4c-1.3,0-2.4-0.7-2.4-1.8C496.4,41,498.7,39.3,500.7,39.3z
		 M496.9,43.1c0,0.6,0.4,0.9,1.1,0.9c1.4,0,4.9-2.1,4.9-3.3c0-0.6-0.4-0.9-1.1-0.9C500.6,39.9,496.9,41.9,496.9,43.1z"/>
</g>
<rect x="54.6" y="57" width="0.5" height="18.9"/>
<g>
	<path d="M48.1,77.5c0-1.8,2.5-3.5,4.5-3.5c1.3,0,2.3,0.7,2.3,1.7c0,1.7-2.5,3.5-4.6,3.5C49.1,79.3,48.1,78.6,48.1,77.5z"/>
</g>
<rect x="70.5" y="55.4" width="0.5" height="18"/>
<g>
	<path d="M64.1,75.1c0-1.8,2.5-3.5,4.5-3.5c1.3,0,2.3,0.7,2.3,1.7c0,1.7-2.5,3.5-4.6,3.5C65.1,76.8,64.1,76.1,64.1,75.1z"/>
</g>
<rect x="86.5" y="53.7" width="0.5" height="17.2"/>
<g>
	<path d="M80.1,72.6c0-1.8,2.5-3.5,4.5-3.5c1.3,0,2.3,0.7,2.3,1.7c0,1.7-2.5,3.5-4.6,3.5C81,74.3,80.1,73.7,80.1,72.6z"/>
</g>
<rect x="102.5" y="52" width="0.5" height="16.4"/>
<g>
	<path d="M96,70.1c0-1.8,2.5-3.5,4.5-3.5c1.3,0,2.3,0.7,2.3,1.7c0,1.7-2.5,3.5-4.6,3.5C97,71.8,96,71.2,96,70.1z"/>
</g>
<rect x="111.9" y="67.5" width="0.5" height="14"/>
<g>
	<path d="M112,67.6c0-1.8,2.5-3.5,4.5-3.5c1.3,0,2.3,0.7,2.3,1.7c0,1.7-2.5,3.5-4.6,3.5C113,69.3,112,68.7,112,67.6z"/>
</g>
<rect x="127.9" y="65.1" width="0.5" height="14.9"/>
<g>
	<path d="M128,65.1c0-1.8,2.5-3.5,4.5-3.5c1.3,0,2.3,0.7,2.3,1.7c0,1.7-2.5,3.5-4.6,3.5C128.9,66.9,128,66.2,128,65.1z"/>
</g>
<rect x="143.9" y="62.6" width="0.5" height="15.7"/>
<g>
	<path d="M143.9,62.7c0-1.8,2.5-3.5,4.5-3.5c1.3,0,2.3,0.7,2.3,1.7c0,1.7-2.5,3.5-4.6,3.5C144.9,64.4,143.9,63.7,143.9,62.7z"/>
</g>
<g>
	<path d="M141.5,55v2.8l1-0.3v1.8l-1,0.3V63l1-0.3v1.8l-1,0.3V68H141v-3l-1.9,0.6v3h-0.5v-2.8l-1,0.3v-1.8l1-0.3v-3.4l-1,0.3v-1.8
		l1-0.3v-3.1h0.5v3L141,58v-3H141.5z M141,59.8l-1.9,0.6v3.4l1.9-0.6V59.8z"/>
</g>
<rect x="159.8" y="60.1" width="0.5" height="16.4"/>
<g>
	<path d="M159.9,60.2c0-1.8,2.5-3.5,4.5-3.5c1.3,0,2.3,0.7,2.3,1.7c0,1.7-2.5,3.5-4.6,3.5C160.9,61.9,159.9,61.3,159.9,60.2z"/>
</g>
<rect x="175.8" y="57.6" width="0.5" height="14"/>
<g>
	<path d="M175.9,57.7c0-1.8,2.5-3.5,4.5-3.5c1.3,0,2.3,0.7,2.3,1.7c0,1.7-2.5,3.5-4.6,3.5C176.8,59.4,175.9,58.8,175.9,57.7z"/>
</g>
<rect x="191.8" y="55.1" width="0.5" height="14.9"/>
<g>
	<path d="M191.8,55.2c0-1.8,2.5-3.5,4.5-3.5c1.3,0,2.3,0.7,2.3,1.7c0,1.7-2.5,3.5-4.6,3.5C192.8,56.9,191.8,56.3,191.8,55.2z"/>
</g>
<rect x="205.8" y="51.5" width="10.5" height="0.8"/>
<rect x="207.6" y="52.7" width="0.5" height="15.7"/>
<g>
	<path d="M207.7,52.7c0-1.8,2.5-3.5,4.5-3.5c1.3,0,2.3,0.7,2.3,1.7c0,1.7-2.5,3.5-4.6,3.5C208.6,54.5,207.7,53.8,207.7,52.7z"/>
</g>
<rect x="221.8" y="51.5" width="10.5" height="0.8"/>
<rect x="223.5" y="50.2" width="0.5" height="16.4"/>
<g>
	<path d="M223.6,50.3c0-1.8,2.5-3.5,4.5-3.5c1.3,0,2.3,0.7,2.3,1.7c0,1.7-2.5,3.5-4.6,3.5C224.6,52,223.6,51.3,223.6,50.3z"/>
</g>
<rect x="237.7" y="51.5" width="10.5" height="0.8"/>
<rect x="237.7" y="46.5" width="10.5" height="0.8"/>
<rect x="239.5" y="47.7" width="0.5" height="20.2"/>
<g>
	<path d="M239.6,47.8c0-1.8,2.5-3.5,4.5-3.5c1.3,0,2.3,0.7,2.3,1.7c0,1.7-2.5,3.5-4.6,3.5C240.6,49.5,239.6,48.9,239.6,47.8z"/>
</g>
<rect x="255.1" y="51.5" width="10.5" height="0.8"/>
<rect x="255.1" y="46.5" width="10.5" height="0.8"/>
<rect x="256.9" y="45.2" width="0.5" height="22.3"/>
<g>
	<path d="M256.9,45.3c0-1.8,2.5-3.5,4.5-3.5c1.3,0,2.3,0.7,2.3,1.7c0,1.7-2.5,3.5-4.6,3.5C257.9,47,256.9,46.4,256.9,45.3z"/>
</g>
<g>
	<path d="M253.3,37.6v2.8l1-0.3v1.8l-1,0.3v3.4l1-0.3v1.8l-1,0.3v3.1h-0.5v-3l-1.9,0.6v3h-0.5v-2.8l-1,0.3v-1.8l1-0.3v-3.4l-1,0.3
		v-1.8l1-0.3v-3.1h0.5v3l1.9-0.6v-3H253.3z M252.8,42.4l-1.9,0.6v3.4l1.9-0.6V42.4z"/>
</g>
<rect x="271.1" y="51.5" width="10.5" height="0.8"/>
<rect x="271.1" y="46.5" width="10.5" height="0.8"/>
<rect x="271.1" y="41.6" width="10.5" height="0.8"/>
<rect x="272.8" y="42.7" width="0.5" height="24.3"/>
<g>
	<path d="M272.9,42.8c0-1.8,2.5-3.5,4.5-3.5c1.3,0,2.3,0.7,2.3,1.7c0,1.7-2.5,3.5-4.6,3.5C273.9,44.5,272.9,43.9,272.9,42.8z"/>
</g>
<rect x="287" y="51.5" width="10.5" height="0.8"/>
<rect x="287" y="46.5" width="10.5" height="0.8"/>
<rect x="288.8" y="45.2" width="0.5" height="21.4"/>
<g>
	<path d="M288.9,45.3c0-1.8,2.5-3.5,4.5-3.5c1.3,0,2.3,0.7,2.3,1.7c0,1.7-2.5,3.5-4.6,3.5C289.9,47,288.9,46.4,288.9,45.3z"/>
</g>
<rect x="303" y="51.5" width="10.5" height="0.8"/>
<rect x="303" y="46.5" width="10.5" height="0.8"/>
<rect x="304.8" y="47.7" width="0.5" height="18.9"/>
<g>
	<path d="M304.8,47.8c0-1.8,2.5-3.5,4.5-3.5c1.3,0,2.3,0.7,2.3,1.7c0,1.7-2.5,3.5-4.6,3.5C305.8,49.5,304.8,48.9,304.8,47.8z"/>
</g>
<rect x="319" y="51.5" width="10.5" height="0.8"/>
<rect x="320.7" y="50.2" width="0.5" height="18"/>
<g>
	<path d="M320.8,50.3c0-1.8,2.5-3.5,4.5-3.5c1.3,0,2.3,0.7,2.3,1.7c0,1.7-2.5,3.5-4.6,3.5C321.8,52,320.8,51.3,320.8,50.3z"/>
</g>
<rect x="334.9" y="51.5" width="10.5" height="0.8"/>
<rect x="336.7" y="52.7" width="0.5" height="17.2"/>
<g>
	<path d="M336.8,52.7c0-1.8,2.5-3.5,4.5-3.5c1.3,0,2.3,0.7,2.3,1.7c0,1.7-2.5,3.5-4.6,3.5C337.8,54.5,336.8,53.8,336.8,52.7z"/>
</g>
<rect x="352.7" y="55.1" width="0.5" height="16.4"/>
<g>
	<path d="M352.7,55.2c0-1.8,2.5-3.5,4.5-3.5c1.3,0,2.3,0.7,2.3,1.7c0,1.7-2.5,3.5-4.6,3.5C353.7,56.9,352.7,56.3,352.7,55.2z"/>
</g>
<rect x="368.6" y="57.6" width="0.5" height="18.9"/>
<g>
	<path d="M368.7,57.7c0-1.8,2.5-3.5,4.5-3.5c1.3,0,2.3,0.7,2.3,1.7c0,1.7-2.5,3.5-4.6,3.5C369.7,59.4,368.7,58.8,368.7,57.7z"/>
</g>
<rect x="384.6" y="60.1" width="0.5" height="18"/>
<g>
	<path d="M384.7,60.2c0-1.8,2.5-3.5,4.5-3.5c1.3,0,2.3,0.7,2.3,1.7c0,1.7-2.5,3.5-4.6,3.5C385.7,61.9,384.7,61.3,384.7,60.2z"/>
</g>
<rect x="400.6" y="62.6" width="0.5" height="17.2"/>
<g>
	<path d="M400.6,62.7c0-1.8,2.5-3.5,4.5-3.5c1.3,0,2.3,0.7,2.3,1.7c0,1.7-2.5,3.5-4.6,3.5C401.6,64.4,400.6,63.7,400.6,62.7z"/>
</g>
<rect x="416.5" y="65.1" width="0.5" height="16.4"/>
<g>
	<path d="M416.6,65.1c0-1.8,2.5-3.5,4.5-3.5c1.3,0,2.3,0.7,2.3,1.7c0,1.7-2.5,3.5-4.6,3.5C417.6,66.9,416.6,66.2,416.6,65.1z"/>
</g>
<rect x="439" y="52" width="0.5" height="14"/>
<g>
	<path d="M432.6,67.6c0-1.8,2.5-3.5,4.5-3.5c1.3,0,2.3,0.7,2.3,1.7c0,1.7-2.5,3.5-4.6,3.5C433.6,69.3,432.6,68.7,432.6,67.6z"/>
</g>
<rect x="455" y="53.6" width="0.5" height="14.9"/>
<g>
	<path d="M448.5,70.1c0-1.8,2.5-3.5,4.5-3.5c1.3,0,2.3,0.7,2.3,1.7c0,1.7-2.5,3.5-4.6,3.5C449.5,71.8,448.5,71.2,448.5,70.1z"/>
</g>
<rect x="470.9" y="55.3" width="0.5" height="15.7"/>
<g>
	<path d="M464.5,72.6c0-1.8,2.5-3.5,4.5-3.5c1.3,0,2.3,0.7,2.3,1.7c0,1.7-2.5,3.5-4.6,3.5C465.5,74.3,464.5,73.7,464.5,72.6z"/>
</g>
<rect x="486.9" y="57" width="0.5" height="16.4"/>
<g>
	<path d="M480.5,75.1c0-1.8,2.5-3.5,4.5-3.5c1.3,0,2.3,0.7,2.3,1.7c0,1.7-2.5,3.5-4.6,3.5C481.5,76.8,480.5,76.1,480.5,75.1z"/>
</g>
<rect x="503" y="59.3" width="0.5" height="16.6"/>
<g>
	<path d="M500.7,74c1.6,0,2.7,0.7,2.7,2c0,1.9-2.3,3.4-4.5,3.4c-1.3,0-2.4-0.7-2.4-1.8C496.4,75.8,498.7,74,500.7,74z M496.9,77.8
		c0,0.6,0.4,0.9,1.1,0.9c1.4,0,4.9-2.1,4.9-3.3c0-0.6-0.4-0.9-1.1-0.9C500.6,74.6,496.9,76.6,496.9,77.8z"/>
</g>
</svg>
