<?xml version="1.0" encoding="utf-8"?>

<!--
	ScaleBook
	Copyright (c) Leland Jansen 2015. All rights reserved.
-->

<!DOCTYPE svg PUBLIC "-//W3C//DTD SVG 1.1//EN" "http://www.w3.org/Graphics/SVG/1.1/DTD/svg11.dtd">
<svg version="1.1" id="Layer_1" xmlns="http://www.w3.org/2000/svg" xmlns:xlink="http://www.w3.org/1999/xlink" x="0px" y="0px"
	 viewBox="0 0 552.9 90.6" enable-background="new 0 0 552.9 90.6" xml:space="preserve">
<rect x="8.4" y="11.2" width="0.8" height="67"/>
<g>
	<path d="M7.4,11.8c-1.9,1.1-3.6,5.8-3.6,9.4c0,2.3,1.4,9.9,1.4,12.3c0,5-1.5,8.6-4.6,11.1c3,2.4,4.6,6.1,4.6,11.1
		c0,2.3-1.4,9.9-1.4,12.3c0,3.8,1.7,8.4,3.6,9.5v0.7c-3.5-2.3-5.8-8.2-5.8-13.1c0-2.1,1.7-9.4,1.7-11.5c0-3.8-1-6.6-2.9-8.2
		C0.1,45,0,44.8,0,44.6c0-0.2,0.1-0.4,0.5-0.7c1.9-1.7,2.9-4.2,2.9-7.6c0-2.1-1.7-10-1.7-12.2c0-5.2,2.1-10.4,5.8-13.1V11.8z"/>
</g>
<rect x="547.8" y="11.2" width="0.8" height="67"/>
<rect x="550.4" y="11.2" width="2.5" height="67"/>
<rect x="8.5" y="30.8" width="544.4" height="0.5"/>
<rect x="8.5" y="25.8" width="544.4" height="0.5"/>
<rect x="8.5" y="20.8" width="544.4" height="0.5"/>
<rect x="8.5" y="15.9" width="544.4" height="0.5"/>
<rect x="8.5" y="10.9" width="544.4" height="0.5"/>
<g>
	<path d="M20.3,30.8c-4.2,0-8.1-3.1-8.1-6.9c0-3.2,2.3-6.7,6.8-10.5c-0.3-1.2-0.4-2.4-0.4-3.6c0-3.5,1.2-6.8,3.2-8.5
		c1.8,2.5,2.7,4.9,2.7,7.1c0,2.9-1.3,5.6-4.3,8.1l0.9,4.2c0.5,0,0.8-0.1,0.8-0.1c2.6,0,4.8,2,4.8,4.7c0,1.9-1.4,3.7-3.6,4.8
		c0-0.1,0.9,3.8,0.9,4.3c0,2.5-2.3,4.2-4.9,4.2c-2,0-3.6-1.3-3.6-3.4c0-1.4,1-2.6,2.4-2.6c1.3,0,2.3,1.3,2.3,2.5
		c0,1.4-1.2,2.3-2.7,2.5c0.6,0.3,1.2,0.5,1.9,0.5c2.1,0,4.1-1.6,4.1-3.6c0-0.2,0-0.4-0.1-0.6l-0.8-3.7
		C21.9,30.7,21.2,30.8,20.3,30.8z M18.1,25.6c0,1,0.5,1.9,1.6,2.5c-1.8-0.3-3-1.4-3-3.1c0-2,1.7-3.7,3.8-4.1l-0.8-4
		C16,19.7,14,22.4,14,25.1c0,2.9,2.8,5.3,6,5.3c0.9,0,1.7-0.2,2.4-0.5L21,23C19.4,23.2,18.1,24.3,18.1,25.6z M22.1,4.3
		c-1.6,0-2.9,3.7-2.9,7c0,0.7,0,1.3,0.2,1.9c2.7-2.4,4-4.5,4-6.5c0-0.9-0.3-1.7-1-2.4C22.4,4.3,22.3,4.3,22.1,4.3z M24.9,26.2
		c0-1.6-1.2-3.3-2.9-3.3c-0.1,0-0.2,0-0.5,0l1.4,6.6C24.2,28.6,24.9,27.5,24.9,26.2z"/>
</g>
<g>
	<path d="M29.5,12.8h0.6L30,19c0.4-0.7,1-1,1.8-1c1.2,0,2.2,0.8,2.2,1.9c0,0.8-0.5,1.8-1.7,2.7l-2.8,2.1V12.8z M30.1,19.7
		C30,20.4,30,21.1,30,21.6c0,1,0,1.6,0.1,2c1-0.7,2.4-2.6,2.4-3.7c0-0.6-0.5-1.1-1.1-1.1C30.8,18.8,30.4,19.1,30.1,19.7z"/>
</g>
<g>
	<path d="M35.1,5.3h0.6l-0.1,6.2c0.4-0.7,1-1,1.8-1c1.2,0,2.2,0.8,2.2,1.9c0,0.8-0.5,1.8-1.7,2.7l-2.8,2.1V5.3z M35.7,12.2
		c-0.1,0.8-0.1,1.4-0.1,1.9c0,1,0,1.6,0.1,2c1-0.7,2.4-2.6,2.4-3.7c0-0.6-0.5-1.1-1.1-1.1C36.4,11.4,36,11.7,35.7,12.2z"/>
</g>
<g>
	<path d="M40.7,15.2h0.6l-0.1,6.2c0.4-0.7,1-1,1.8-1c1.2,0,2.2,0.8,2.2,1.9c0,0.8-0.5,1.8-1.7,2.7l-2.8,2.1V15.2z M41.3,22.2
		c-0.1,0.8-0.1,1.4-0.1,1.9c0,1,0,1.6,0.1,2c1-0.7,2.4-2.6,2.4-3.7c0-0.6-0.5-1.1-1.1-1.1C42,21.3,41.6,21.6,41.3,22.2z"/>
</g>
<g>
	<path d="M46.3,7.8h0.6l-0.1,6.2c0.4-0.7,1-1,1.8-1c1.2,0,2.2,0.8,2.2,1.9c0,0.8-0.5,1.8-1.7,2.7l-2.8,2.1V7.8z M46.9,14.7
		c-0.1,0.8-0.1,1.4-0.1,1.9c0,1,0,1.6,0.1,2c1-0.7,2.4-2.6,2.4-3.7c0-0.6-0.5-1.1-1.1-1.1C47.6,13.9,47.2,14.2,46.9,14.7z"/>
</g>
<polygon fill-rule="evenodd" clip-rule="evenodd" points="66,17.4 108.9,12.4 108.9,9.9 66,14.9 "/>
<polygon fill-rule="evenodd" clip-rule="evenodd" points="66,13.6 108.9,8.7 108.9,6.2 66,11.2 "/>
<polygon fill-rule="evenodd" clip-rule="evenodd" points="123.2,16.1 166.3,11.2 166.3,8.7 123.2,13.6 "/>
<polygon fill-rule="evenodd" clip-rule="evenodd" points="123.2,12.4 166.3,7.4 166.3,5 123.2,9.9 "/>
<polygon fill-rule="evenodd" clip-rule="evenodd" points="180.5,11.2 223.5,6.2 223.5,3.7 180.5,8.7 "/>
<polygon fill-rule="evenodd" clip-rule="evenodd" points="180.5,7.4 223.5,2.5 223.5,0 180.5,5 "/>
<polygon fill-rule="evenodd" clip-rule="evenodd" points="245.2,33.5 288.1,28.5 288.1,26 245.2,31 "/>
<polygon fill-rule="evenodd" clip-rule="evenodd" points="245.2,37.2 288.1,32.2 288.1,29.8 245.2,34.7 "/>
<polygon fill-rule="evenodd" clip-rule="evenodd" points="302.5,28.5 345.5,33.5 345.5,31 302.5,26 "/>
<polygon fill-rule="evenodd" clip-rule="evenodd" points="302.5,32.2 345.5,37.2 345.5,34.7 302.5,29.8 "/>
<polygon fill-rule="evenodd" clip-rule="evenodd" points="380.2,6.2 423.1,11.2 423.1,8.7 380.2,3.7 "/>
<polygon fill-rule="evenodd" clip-rule="evenodd" points="380.2,2.5 423.1,7.4 423.1,5 380.2,0 "/>
<polygon fill-rule="evenodd" clip-rule="evenodd" points="437.4,11.2 480.3,16.1 480.3,13.6 437.4,8.7 "/>
<polygon fill-rule="evenodd" clip-rule="evenodd" points="437.4,7.4 480.3,12.4 480.3,9.9 437.4,5 "/>
<polygon fill-rule="evenodd" clip-rule="evenodd" points="494.7,12.4 537.7,17.4 537.7,14.9 494.7,9.9 "/>
<polygon fill-rule="evenodd" clip-rule="evenodd" points="494.7,8.7 537.7,13.6 537.7,11.2 494.7,6.2 "/>
<rect x="8.5" y="77.9" width="544.4" height="0.5"/>
<rect x="8.5" y="72.9" width="544.4" height="0.5"/>
<rect x="8.5" y="68" width="544.4" height="0.5"/>
<rect x="8.5" y="63" width="544.4" height="0.5"/>
<rect x="8.5" y="58.1" width="544.4" height="0.5"/>
<g>
	<path d="M15.7,72.5c2.9-2.6,4.7-6.1,4.7-9.2c0-2.5-1.4-4.4-3.7-4.4c-1.6,0-3.4,1.3-3.4,2.7c0,0.2,0,0.3,0.1,0.3
		c-0.1,0,0.6-0.6,1.4-0.6c0.9,0,1.5,0.8,1.5,1.7c0,1.2-0.9,2.2-2.1,2.2c-1.2,0-2.1-1.3-2.1-2.8c0-2.3,2.3-4.1,4.8-4.1
		c4.7,0,5.9,3.2,5.9,5.8c0,1.6-0.4,2.9-2,5.3c-1.9,3.1-6.4,5.3-8.1,5.3c-0.4,0-0.6-0.2-0.6-0.5C13.8,73.7,14.9,73.2,15.7,72.5z
		 M25.7,59.8c0.6,0,1,0.4,1,1c0,0.6-0.4,1-1,1s-1-0.4-1-1C24.7,60.2,25.1,59.8,25.7,59.8z M25.7,64.7c0.6,0,1,0.4,1,1
		c0,0.6-0.4,1-1,1s-1-0.4-1-1C24.7,65.1,25.1,64.7,25.7,64.7z"/>
</g>
<g>
	<path d="M29.5,64.9h0.6L30,71.1c0.4-0.7,1-1,1.8-1c1.2,0,2.2,0.8,2.2,1.9c0,0.8-0.5,1.8-1.7,2.7l-2.8,2.1V64.9z M30.1,71.8
		C30,72.5,30,73.2,30,73.7c0,1,0,1.6,0.1,2c1-0.7,2.4-2.6,2.4-3.7c0-0.6-0.5-1.1-1.1-1.1C30.8,70.9,30.4,71.2,30.1,71.8z"/>
</g>
<g>
	<path d="M35.1,57.4h0.6l-0.1,6.2c0.4-0.7,1-1,1.8-1c1.2,0,2.2,0.8,2.2,1.9c0,0.8-0.5,1.8-1.7,2.7l-2.8,2.1V57.4z M35.7,64.3
		c-0.1,0.8-0.1,1.4-0.1,1.9c0,1,0,1.6,0.1,2c1-0.7,2.4-2.6,2.4-3.7c0-0.6-0.5-1.1-1.1-1.1C36.4,63.5,36,63.8,35.7,64.3z"/>
</g>
<g>
	<path d="M40.7,67.3h0.6l-0.1,6.2c0.4-0.7,1-1,1.8-1c1.2,0,2.2,0.8,2.2,1.9c0,0.8-0.5,1.8-1.7,2.7l-2.8,2.1V67.3z M41.3,74.2
		c-0.1,0.8-0.1,1.4-0.1,1.9c0,1,0,1.6,0.1,2c1-0.7,2.4-2.6,2.4-3.7c0-0.6-0.5-1.1-1.1-1.1C42,73.4,41.6,73.7,41.3,74.2z"/>
</g>
<g>
	<path d="M46.3,59.9h0.6l-0.1,6.2c0.4-0.7,1-1,1.8-1c1.2,0,2.2,0.8,2.2,1.9c0,0.8-0.5,1.8-1.7,2.7l-2.8,2.1V59.9z M46.9,66.8
		c-0.1,0.8-0.1,1.4-0.1,1.9c0,1,0,1.6,0.1,2c1-0.7,2.4-2.6,2.4-3.7c0-0.6-0.5-1.1-1.1-1.1C47.6,66,47.2,66.2,46.9,66.8z"/>
</g>
<polygon fill-rule="evenodd" clip-rule="evenodd" points="59.5,85.6 102.4,80.6 102.4,78.1 59.5,83.1 "/>
<polygon fill-rule="evenodd" clip-rule="evenodd" points="59.5,89.3 102.4,84.3 102.4,81.8 59.5,86.8 "/>
<polygon fill-rule="evenodd" clip-rule="evenodd" points="116.7,80.6 159.8,75.6 159.8,73.2 116.7,78.1 "/>
<polygon fill-rule="evenodd" clip-rule="evenodd" points="116.7,84.3 159.8,79.4 159.8,76.9 116.7,81.8 "/>
<g>
	<path d="M237.1,76.8c-3.2,0-6.1-2.3-6.1-5.1c0-2.4,1.7-5,5.1-7.9c-0.2-0.9-0.3-1.8-0.3-2.7c0-2.6,0.9-5.1,2.4-6.3
		c1.4,1.9,2,3.7,2,5.3c0,2.2-1,4.2-3.2,6.1l0.7,3.1c0.4,0,0.6,0,0.6,0c2,0,3.6,1.5,3.6,3.5c0,1.4-1.1,2.8-2.7,3.6
		c0-0.1,0.6,2.8,0.6,3.3c0,1.9-1.7,3.2-3.7,3.2c-1.5,0-2.7-1-2.7-2.5c0-1.1,0.7-1.9,1.8-1.9c1,0,1.7,1,1.7,1.9c0,1-0.9,1.7-2,1.8
		c0.4,0.2,0.9,0.3,1.4,0.3c1.6,0,3.1-1.2,3.1-2.7c0-0.1,0-0.3,0-0.5l-0.6-2.8C238.4,76.7,237.8,76.8,237.1,76.8z M235.5,72.9
		c0,0.8,0.4,1.4,1.2,1.9c-1.3-0.2-2.2-1.1-2.2-2.3c0-1.5,1.3-2.8,2.9-3.1l-0.6-3c-2.8,2.1-4.3,4.1-4.3,6.1c0,2.2,2.1,4,4.5,4
		c0.7,0,1.3-0.1,1.8-0.4l-1.1-5.1C236.4,71.1,235.5,71.8,235.5,72.9z M238.5,56.8c-1.2,0-2.2,2.8-2.2,5.3c0,0.5,0,1,0.1,1.4
		c2-1.8,3-3.4,3-4.9c0-0.7-0.3-1.3-0.7-1.8C238.7,56.9,238.6,56.8,238.5,56.8z M240.6,73.3c0-1.2-0.9-2.4-2.2-2.4c0,0-0.2,0-0.4,0
		l1.1,5C240.1,75.1,240.6,74.2,240.6,73.3z"/>
</g>
<polygon fill-rule="evenodd" clip-rule="evenodd" points="174,79.4 217,74.4 217,71.9 174,76.9 "/>
<polygon fill-rule="evenodd" clip-rule="evenodd" points="174,83.1 217,78.1 217,75.6 174,80.6 "/>
<polygon fill-rule="evenodd" clip-rule="evenodd" points="251.7,64.5 294.6,59.5 294.6,57 251.7,62 "/>
<polygon fill-rule="evenodd" clip-rule="evenodd" points="251.7,60.8 294.6,55.8 294.6,53.3 251.7,58.3 "/>
<g>
	<path d="M362.2,70.2c2.2-2,3.6-4.6,3.6-6.9c0-1.9-1.1-3.3-2.8-3.3c-1.2,0-2.5,1-2.5,2.1c0,0.2,0,0.2,0.1,0.2c0,0,0.4-0.5,1-0.5
		c0.7,0,1.2,0.6,1.2,1.3c0,0.9-0.6,1.7-1.6,1.7s-1.5-1-1.5-2.1c0-1.8,1.7-3.1,3.6-3.1c3.5,0,4.4,2.4,4.4,4.4c0,1.2-0.3,2.2-1.5,4
		c-1.4,2.3-4.8,4-6,4c-0.3,0-0.5-0.1-0.5-0.3C360.8,71.1,361.6,70.7,362.2,70.2z M369.7,60.6c0.4,0,0.7,0.3,0.7,0.7
		c0,0.4-0.3,0.7-0.7,0.7c-0.4,0-0.7-0.3-0.7-0.7C368.9,61,369.3,60.6,369.7,60.6z M369.7,64.3c0.4,0,0.7,0.3,0.7,0.7
		s-0.3,0.7-0.7,0.7c-0.4,0-0.7-0.3-0.7-0.7S369.3,64.3,369.7,64.3z"/>
</g>
<polygon fill-rule="evenodd" clip-rule="evenodd" points="309,59.5 352,64.5 352,62 309,57 "/>
<polygon fill-rule="evenodd" clip-rule="evenodd" points="309,55.8 352,60.8 352,58.3 309,53.3 "/>
<polygon fill-rule="evenodd" clip-rule="evenodd" points="373.7,74.4 416.6,79.4 416.6,76.9 373.7,71.9 "/>
<polygon fill-rule="evenodd" clip-rule="evenodd" points="373.7,78.1 416.6,83.1 416.6,80.6 373.7,75.6 "/>
<polygon fill-rule="evenodd" clip-rule="evenodd" points="430.9,75.6 473.8,80.6 473.8,78.1 430.9,73.2 "/>
<polygon fill-rule="evenodd" clip-rule="evenodd" points="430.9,79.4 473.8,84.3 473.8,81.8 430.9,76.9 "/>
<polygon fill-rule="evenodd" clip-rule="evenodd" points="488.2,80.6 531.2,85.6 531.2,83.1 488.2,78.1 "/>
<polygon fill-rule="evenodd" clip-rule="evenodd" points="488.2,84.3 531.2,89.3 531.2,86.8 488.2,81.8 "/>
<rect x="57.4" y="35.6" width="10.5" height="0.8"/>
<rect x="57.4" y="40.5" width="10.5" height="0.8"/>
<rect x="65.7" y="11.3" width="0.5" height="28.8"/>
<g>
	<path d="M59.3,41.8c0-1.8,2.5-3.5,4.5-3.5c1.3,0,2.3,0.7,2.3,1.7c0,1.7-2.5,3.5-4.6,3.5C60.3,43.5,59.3,42.9,59.3,41.8z"/>
</g>
<rect x="71.7" y="35.6" width="10.5" height="0.8"/>
<rect x="80" y="9.8" width="0.5" height="25.4"/>
<g>
	<path d="M73.6,36.8c0-1.8,2.5-3.5,4.5-3.5c1.3,0,2.3,0.7,2.3,1.7c0,1.7-2.5,3.5-4.6,3.5C74.5,38.5,73.6,37.9,73.6,36.8z"/>
</g>
<rect x="94.4" y="8.1" width="0.5" height="22.2"/>
<g>
	<path d="M88,31.9c0-1.8,2.5-3.5,4.5-3.5c1.3,0,2.3,0.7,2.3,1.7c0,1.7-2.5,3.5-4.6,3.5C89,33.6,88,32.9,88,31.9z"/>
</g>
<rect x="108.7" y="6.4" width="0.5" height="16.4"/>
<g>
	<path d="M102.2,24.4c0-1.8,2.5-3.5,4.5-3.5c1.3,0,2.3,0.7,2.3,1.7c0,1.7-2.5,3.5-4.6,3.5C103.2,26.1,102.2,25.5,102.2,24.4z"/>
</g>
<rect x="114.6" y="35.6" width="10.5" height="0.8"/>
<rect x="122.9" y="10.1" width="0.5" height="25.1"/>
<g>
	<path d="M116.5,36.8c0-1.8,2.5-3.5,4.5-3.5c1.3,0,2.3,0.7,2.3,1.7c0,1.7-2.5,3.5-4.6,3.5C117.5,38.5,116.5,37.9,116.5,36.8z"/>
</g>
<rect x="137.4" y="8.5" width="0.5" height="21.7"/>
<g>
	<path d="M130.9,31.9c0-1.8,2.5-3.5,4.5-3.5c1.3,0,2.3,0.7,2.3,1.7c0,1.7-2.5,3.5-4.6,3.5C131.9,33.6,130.9,32.9,130.9,31.9z"/>
</g>
<rect x="151.6" y="6.8" width="0.5" height="16"/>
<g>
	<path d="M145.2,24.4c0-1.8,2.5-3.5,4.5-3.5c1.3,0,2.3,0.7,2.3,1.7c0,1.7-2.5,3.5-4.6,3.5C146.2,26.1,145.2,25.5,145.2,24.4z"/>
</g>
<rect x="166" y="5.1" width="0.5" height="12.7"/>
<g>
	<path d="M159.6,19.5c0-1.8,2.5-3.5,4.5-3.5c1.3,0,2.3,0.7,2.3,1.7c0,1.7-2.5,3.5-4.6,3.5C160.6,21.2,159.6,20.5,159.6,19.5z"/>
</g>
<rect x="180.3" y="5.1" width="0.5" height="25.1"/>
<g>
	<path d="M173.9,31.9c0-1.8,2.5-3.5,4.5-3.5c1.3,0,2.3,0.7,2.3,1.7c0,1.7-2.5,3.5-4.6,3.5C174.8,33.6,173.9,32.9,173.9,31.9z"/>
</g>
<rect x="194.6" y="3.6" width="0.5" height="19.2"/>
<g>
	<path d="M188.1,24.4c0-1.8,2.5-3.5,4.5-3.5c1.3,0,2.3,0.7,2.3,1.7c0,1.7-2.5,3.5-4.6,3.5C189.1,26.1,188.1,25.5,188.1,24.4z"/>
</g>
<rect x="209" y="1.9" width="0.5" height="16"/>
<g>
	<path d="M202.5,19.5c0-1.8,2.5-3.5,4.5-3.5c1.3,0,2.3,0.7,2.3,1.7c0,1.7-2.5,3.5-4.6,3.5C203.5,21.2,202.5,20.5,202.5,19.5z"/>
</g>
<rect x="223.2" y="0.2" width="0.5" height="12.7"/>
<g>
	<path d="M216.8,14.5c0-1.8,2.5-3.5,4.5-3.5c1.3,0,2.3,0.7,2.3,1.7c0,1.7-2.5,3.5-4.6,3.5C217.8,16.2,216.8,15.6,216.8,14.5z"/>
</g>
<rect x="244.9" y="24.3" width="0.5" height="12.7"/>
<g>
	<path d="M245,24.4c0-1.8,2.5-3.5,4.5-3.5c1.3,0,2.3,0.7,2.3,1.7c0,1.7-2.5,3.5-4.6,3.5C246,26.1,245,25.5,245,24.4z"/>
</g>
<rect x="259.2" y="19.4" width="0.5" height="16.1"/>
<g>
	<path d="M259.3,19.5c0-1.8,2.5-3.5,4.5-3.5c1.3,0,2.3,0.7,2.3,1.7c0,1.7-2.5,3.5-4.6,3.5C260.2,21.2,259.3,20.5,259.3,19.5z"/>
</g>
<rect x="273.6" y="14.4" width="0.5" height="19.4"/>
<g>
	<path d="M273.7,14.5c0-1.8,2.5-3.5,4.5-3.5c1.3,0,2.3,0.7,2.3,1.7c0,1.7-2.5,3.5-4.6,3.5C274.7,16.2,273.7,15.6,273.7,14.5z"/>
</g>
<rect x="286.1" y="5.8" width="10.5" height="0.8"/>
<rect x="287.9" y="7" width="0.5" height="25.1"/>
<g>
	<path d="M288,7.1c0-1.8,2.5-3.5,4.5-3.5c1.3,0,2.3,0.7,2.3,1.7c0,1.7-2.5,3.5-4.6,3.5C288.9,8.8,288,8.1,288,7.1z"/>
</g>
<rect x="300.5" y="5.8" width="10.5" height="0.8"/>
<rect x="302.3" y="7" width="0.5" height="25.1"/>
<g>
	<path d="M302.4,7.1c0-1.8,2.5-3.5,4.5-3.5c1.3,0,2.3,0.7,2.3,1.7c0,1.7-2.5,3.5-4.6,3.5C303.3,8.8,302.4,8.1,302.4,7.1z"/>
</g>
<rect x="316.6" y="14.4" width="0.5" height="19.2"/>
<g>
	<path d="M316.6,14.5c0-1.8,2.5-3.5,4.5-3.5c1.3,0,2.3,0.7,2.3,1.7c0,1.7-2.5,3.5-4.6,3.5C317.6,16.2,316.6,15.6,316.6,14.5z"/>
</g>
<rect x="330.8" y="19.4" width="0.5" height="16"/>
<g>
	<path d="M330.9,19.5c0-1.8,2.5-3.5,4.5-3.5c1.3,0,2.3,0.7,2.3,1.7c0,1.7-2.5,3.5-4.6,3.5C331.9,21.2,330.9,20.5,330.9,19.5z"/>
</g>
<rect x="345.2" y="24.3" width="0.5" height="12.7"/>
<g>
	<path d="M345.3,24.4c0-1.8,2.5-3.5,4.5-3.5c1.3,0,2.3,0.7,2.3,1.7c0,1.7-2.5,3.5-4.6,3.5C346.3,26.1,345.3,25.5,345.3,24.4z"/>
</g>
<rect x="380" y="0.2" width="0.5" height="12.7"/>
<g>
	<path d="M373.5,14.5c0-1.8,2.5-3.5,4.5-3.5c1.3,0,2.3,0.7,2.3,1.7c0,1.7-2.5,3.5-4.6,3.5C374.5,16.2,373.5,15.6,373.5,14.5z"/>
</g>
<rect x="394.2" y="1.7" width="0.5" height="16.1"/>
<g>
	<path d="M387.8,19.5c0-1.8,2.5-3.5,4.5-3.5c1.3,0,2.3,0.7,2.3,1.7c0,1.7-2.5,3.5-4.6,3.5C388.8,21.2,387.8,20.5,387.8,19.5z"/>
</g>
<rect x="408.5" y="3.4" width="0.5" height="19.4"/>
<g>
	<path d="M402,24.4c0-1.8,2.5-3.5,4.5-3.5c1.3,0,2.3,0.7,2.3,1.7c0,1.7-2.5,3.5-4.6,3.5C403,26.1,402,25.5,402,24.4z"/>
</g>
<rect x="422.9" y="5.1" width="0.5" height="25.1"/>
<g>
	<path d="M416.5,31.9c0-1.8,2.5-3.5,4.5-3.5c1.3,0,2.3,0.7,2.3,1.7c0,1.7-2.5,3.5-4.6,3.5C417.4,33.6,416.5,32.9,416.5,31.9z"/>
</g>
<rect x="437.2" y="5.1" width="0.5" height="12.7"/>
<g>
	<path d="M430.7,19.5c0-1.8,2.5-3.5,4.5-3.5c1.3,0,2.3,0.7,2.3,1.7c0,1.7-2.5,3.5-4.6,3.5C431.7,21.2,430.7,20.5,430.7,19.5z"/>
</g>
<rect x="451.4" y="6.7" width="0.5" height="16.1"/>
<g>
	<path d="M445,24.4c0-1.8,2.5-3.5,4.5-3.5c1.3,0,2.3,0.7,2.3,1.7c0,1.7-2.5,3.5-4.6,3.5C446,26.1,445,25.5,445,24.4z"/>
</g>
<rect x="465.8" y="8.4" width="0.5" height="21.9"/>
<g>
	<path d="M459.4,31.9c0-1.8,2.5-3.5,4.5-3.5c1.3,0,2.3,0.7,2.3,1.7c0,1.7-2.5,3.5-4.6,3.5C460.4,33.6,459.4,32.9,459.4,31.9z"/>
</g>
<rect x="471.8" y="35.6" width="10.5" height="0.8"/>
<rect x="480.1" y="10.1" width="0.5" height="25.1"/>
<g>
	<path d="M473.7,36.8c0-1.8,2.5-3.5,4.5-3.5c1.3,0,2.3,0.7,2.3,1.7c0,1.7-2.5,3.5-4.6,3.5C474.6,38.5,473.7,37.9,473.7,36.8z"/>
</g>
<rect x="494.5" y="6.4" width="0.5" height="16.4"/>
<g>
	<path d="M488.1,24.4c0-1.8,2.5-3.5,4.5-3.5c1.3,0,2.3,0.7,2.3,1.7c0,1.7-2.5,3.5-4.6,3.5C489,26.1,488.1,25.5,488.1,24.4z"/>
</g>
<rect x="508.8" y="7.9" width="0.5" height="22.3"/>
<g>
	<path d="M502.3,31.9c0-1.8,2.5-3.5,4.5-3.5c1.3,0,2.3,0.7,2.3,1.7c0,1.7-2.5,3.5-4.6,3.5C503.3,33.6,502.3,32.9,502.3,31.9z"/>
</g>
<rect x="514.7" y="35.6" width="10.5" height="0.8"/>
<rect x="523" y="9.6" width="0.5" height="25.6"/>
<g>
	<path d="M516.6,36.8c0-1.8,2.5-3.5,4.5-3.5c1.3,0,2.3,0.7,2.3,1.7c0,1.7-2.5,3.5-4.6,3.5C517.6,38.5,516.6,37.9,516.6,36.8z"/>
</g>
<rect x="529.2" y="35.6" width="10.5" height="0.8"/>
<rect x="529.2" y="40.5" width="10.5" height="0.8"/>
<rect x="537.4" y="11.3" width="0.5" height="28.8"/>
<g>
	<path d="M531,41.8c0-1.8,2.5-3.5,4.5-3.5c1.3,0,2.3,0.7,2.3,1.7c0,1.7-2.5,3.5-4.6,3.5C532,43.5,531,42.9,531,41.8z"/>
</g>
<rect x="59.2" y="76.4" width="0.5" height="12.7"/>
<g>
	<path d="M59.3,76.5c0-1.8,2.5-3.5,4.5-3.5c1.3,0,2.3,0.7,2.3,1.7c0,1.7-2.5,3.5-4.6,3.5C60.3,78.2,59.3,77.6,59.3,76.5z"/>
</g>
<rect x="73.5" y="71.5" width="0.5" height="16.1"/>
<g>
	<path d="M73.6,71.5c0-1.8,2.5-3.5,4.5-3.5c1.3,0,2.3,0.7,2.3,1.7c0,1.7-2.5,3.5-4.6,3.5C74.5,73.3,73.6,72.6,73.6,71.5z"/>
</g>
<rect x="87.9" y="66.5" width="0.5" height="19.4"/>
<g>
	<path d="M88,66.6c0-1.8,2.5-3.5,4.5-3.5c1.3,0,2.3,0.7,2.3,1.7c0,1.7-2.5,3.5-4.6,3.5C89,68.3,88,67.7,88,66.6z"/>
</g>
<rect x="102.2" y="59.1" width="0.5" height="25.1"/>
<g>
	<path d="M102.2,59.1c0-1.8,2.5-3.5,4.5-3.5c1.3,0,2.3,0.7,2.3,1.7c0,1.7-2.5,3.5-4.6,3.5C103.2,60.9,102.2,60.2,102.2,59.1z"/>
</g>
<rect x="116.4" y="71.5" width="0.5" height="12.7"/>
<g>
	<path d="M116.5,71.5c0-1.8,2.5-3.5,4.5-3.5c1.3,0,2.3,0.7,2.3,1.7c0,1.7-2.5,3.5-4.6,3.5C117.5,73.3,116.5,72.6,116.5,71.5z"/>
</g>
<rect x="130.8" y="66.5" width="0.5" height="16.1"/>
<g>
	<path d="M130.9,66.6c0-1.8,2.5-3.5,4.5-3.5c1.3,0,2.3,0.7,2.3,1.7c0,1.7-2.5,3.5-4.6,3.5C131.9,68.3,130.9,67.7,130.9,66.6z"/>
</g>
<rect x="145.1" y="59.1" width="0.5" height="21.9"/>
<g>
	<path d="M145.2,59.1c0-1.8,2.5-3.5,4.5-3.5c1.3,0,2.3,0.7,2.3,1.7c0,1.7-2.5,3.5-4.6,3.5C146.2,60.9,145.2,60.2,145.2,59.1z"/>
</g>
<rect x="157.7" y="52.9" width="10.5" height="0.8"/>
<rect x="159.5" y="54.1" width="0.5" height="25.1"/>
<g>
	<path d="M159.6,54.2c0-1.8,2.5-3.5,4.5-3.5c1.3,0,2.3,0.7,2.3,1.7c0,1.7-2.5,3.5-4.6,3.5C160.6,55.9,159.6,55.3,159.6,54.2z"/>
</g>
<rect x="173.8" y="66.5" width="0.5" height="16.4"/>
<g>
	<path d="M173.9,66.6c0-1.8,2.5-3.5,4.5-3.5c1.3,0,2.3,0.7,2.3,1.7c0,1.7-2.5,3.5-4.6,3.5C174.8,68.3,173.9,67.7,173.9,66.6z"/>
</g>
<rect x="188" y="59.1" width="0.5" height="22.3"/>
<g>
	<path d="M188.1,59.1c0-1.8,2.5-3.5,4.5-3.5c1.3,0,2.3,0.7,2.3,1.7c0,1.7-2.5,3.5-4.6,3.5C189.1,60.9,188.1,60.2,188.1,59.1z"/>
</g>
<rect x="200.7" y="52.9" width="10.5" height="0.8"/>
<rect x="202.5" y="54.1" width="0.5" height="25.6"/>
<g>
	<path d="M202.5,54.2c0-1.8,2.5-3.5,4.5-3.5c1.3,0,2.3,0.7,2.3,1.7c0,1.7-2.5,3.5-4.6,3.5C203.5,55.9,202.5,55.3,202.5,54.2z"/>
</g>
<rect x="214.9" y="52.9" width="10.5" height="0.8"/>
<rect x="214.9" y="48" width="10.5" height="0.8"/>
<rect x="216.7" y="49.1" width="0.5" height="28.8"/>
<g>
	<path d="M216.8,49.2c0-1.8,2.5-3.5,4.5-3.5c1.3,0,2.3,0.7,2.3,1.7c0,1.7-2.5,3.5-4.6,3.5C217.8,50.9,216.8,50.3,216.8,49.2z"/>
</g>
<rect x="243.2" y="82.7" width="10.5" height="0.8"/>
<rect x="243.2" y="87.7" width="10.5" height="0.8"/>
<rect x="251.4" y="58.4" width="0.5" height="28.8"/>
<g>
	<path d="M245,88.9c0-1.8,2.5-3.5,4.5-3.5c1.3,0,2.3,0.7,2.3,1.7c0,1.7-2.5,3.5-4.6,3.5C246,90.6,245,90,245,88.9z"/>
</g>
<rect x="257.4" y="82.7" width="10.5" height="0.8"/>
<rect x="265.7" y="56.9" width="0.5" height="25.4"/>
<g>
	<path d="M259.3,83.9c0-1.8,2.5-3.5,4.5-3.5c1.3,0,2.3,0.7,2.3,1.7c0,1.7-2.5,3.5-4.6,3.5C260.2,85.7,259.3,85,259.3,83.9z"/>
</g>
<rect x="280.1" y="55.2" width="0.5" height="22.2"/>
<g>
	<path d="M273.7,79c0-1.8,2.5-3.5,4.5-3.5c1.3,0,2.3,0.7,2.3,1.7c0,1.7-2.5,3.5-4.6,3.5C274.7,80.7,273.7,80.1,273.7,79z"/>
</g>
<rect x="294.4" y="53.5" width="0.5" height="16.4"/>
<g>
	<path d="M288,71.5c0-1.8,2.5-3.5,4.5-3.5c1.3,0,2.3,0.7,2.3,1.7c0,1.7-2.5,3.5-4.6,3.5C288.9,73.3,288,72.6,288,71.5z"/>
</g>
<rect x="308.8" y="53.5" width="0.5" height="16.4"/>
<g>
	<path d="M302.4,71.5c0-1.8,2.5-3.5,4.5-3.5c1.3,0,2.3,0.7,2.3,1.7c0,1.7-2.5,3.5-4.6,3.5C303.3,73.3,302.4,72.6,302.4,71.5z"/>
</g>
<rect x="323.1" y="55" width="0.5" height="22.3"/>
<g>
	<path d="M316.6,79c0-1.8,2.5-3.5,4.5-3.5c1.3,0,2.3,0.7,2.3,1.7c0,1.7-2.5,3.5-4.6,3.5C317.6,80.7,316.6,80.1,316.6,79z"/>
</g>
<rect x="329" y="82.7" width="10.5" height="0.8"/>
<rect x="337.3" y="56.7" width="0.5" height="25.6"/>
<g>
	<path d="M330.9,83.9c0-1.8,2.5-3.5,4.5-3.5c1.3,0,2.3,0.7,2.3,1.7c0,1.7-2.5,3.5-4.6,3.5C331.9,85.7,330.9,85,330.9,83.9z"/>
</g>
<rect x="343.4" y="82.7" width="10.5" height="0.8"/>
<rect x="343.4" y="87.7" width="10.5" height="0.8"/>
<rect x="351.7" y="58.4" width="0.5" height="28.8"/>
<g>
	<path d="M345.3,88.9c0-1.8,2.5-3.5,4.5-3.5c1.3,0,2.3,0.7,2.3,1.7c0,1.7-2.5,3.5-4.6,3.5C346.3,90.6,345.3,90,345.3,88.9z"/>
</g>
<rect x="371.7" y="52.9" width="10.5" height="0.8"/>
<rect x="371.7" y="48" width="10.5" height="0.8"/>
<rect x="373.4" y="49.1" width="0.5" height="28.8"/>
<g>
	<path d="M373.5,49.2c0-1.8,2.5-3.5,4.5-3.5c1.3,0,2.3,0.7,2.3,1.7c0,1.7-2.5,3.5-4.6,3.5C374.5,50.9,373.5,50.3,373.5,49.2z"/>
</g>
<rect x="385.9" y="52.9" width="10.5" height="0.8"/>
<rect x="387.7" y="54.1" width="0.5" height="25.4"/>
<g>
	<path d="M387.8,54.2c0-1.8,2.5-3.5,4.5-3.5c1.3,0,2.3,0.7,2.3,1.7c0,1.7-2.5,3.5-4.6,3.5C388.8,55.9,387.8,55.3,387.8,54.2z"/>
</g>
<rect x="402" y="59.1" width="0.5" height="22.2"/>
<g>
	<path d="M402,59.1c0-1.8,2.5-3.5,4.5-3.5c1.3,0,2.3,0.7,2.3,1.7c0,1.7-2.5,3.5-4.6,3.5C403,60.9,402,60.2,402,59.1z"/>
</g>
<rect x="416.4" y="66.5" width="0.5" height="16.4"/>
<g>
	<path d="M416.5,66.6c0-1.8,2.5-3.5,4.5-3.5c1.3,0,2.3,0.7,2.3,1.7c0,1.7-2.5,3.5-4.6,3.5C417.4,68.3,416.5,67.7,416.5,66.6z"/>
</g>
<rect x="428.9" y="52.9" width="10.5" height="0.8"/>
<rect x="430.6" y="54.1" width="0.5" height="25.1"/>
<g>
	<path d="M430.7,54.2c0-1.8,2.5-3.5,4.5-3.5c1.3,0,2.3,0.7,2.3,1.7c0,1.7-2.5,3.5-4.6,3.5C431.7,55.9,430.7,55.3,430.7,54.2z"/>
</g>
<rect x="444.9" y="59.1" width="0.5" height="21.7"/>
<g>
	<path d="M445,59.1c0-1.8,2.5-3.5,4.5-3.5c1.3,0,2.3,0.7,2.3,1.7c0,1.7-2.5,3.5-4.6,3.5C446,60.9,445,60.2,445,59.1z"/>
</g>
<rect x="459.3" y="66.5" width="0.5" height="16"/>
<g>
	<path d="M459.4,66.6c0-1.8,2.5-3.5,4.5-3.5c1.3,0,2.3,0.7,2.3,1.7c0,1.7-2.5,3.5-4.6,3.5C460.4,68.3,459.4,67.7,459.4,66.6z"/>
</g>
<rect x="473.6" y="71.5" width="0.5" height="12.7"/>
<g>
	<path d="M473.7,71.5c0-1.8,2.5-3.5,4.5-3.5c1.3,0,2.3,0.7,2.3,1.7c0,1.7-2.5,3.5-4.6,3.5C474.6,73.3,473.7,72.6,473.7,71.5z"/>
</g>
<rect x="488" y="59.1" width="0.5" height="25.1"/>
<g>
	<path d="M488.1,59.1c0-1.8,2.5-3.5,4.5-3.5c1.3,0,2.3,0.7,2.3,1.7c0,1.7-2.5,3.5-4.6,3.5C489,60.9,488.1,60.2,488.1,59.1z"/>
</g>
<rect x="502.3" y="66.5" width="0.5" height="19.2"/>
<g>
	<path d="M502.3,66.6c0-1.8,2.5-3.5,4.5-3.5c1.3,0,2.3,0.7,2.3,1.7c0,1.7-2.5,3.5-4.6,3.5C503.3,68.3,502.3,67.7,502.3,66.6z"/>
</g>
<rect x="516.5" y="71.5" width="0.5" height="16"/>
<g>
	<path d="M516.6,71.5c0-1.8,2.5-3.5,4.5-3.5c1.3,0,2.3,0.7,2.3,1.7c0,1.7-2.5,3.5-4.6,3.5C517.6,73.3,516.6,72.6,516.6,71.5z"/>
</g>
<rect x="530.9" y="76.4" width="0.5" height="12.7"/>
<g>
	<path d="M531,76.5c0-1.8,2.5-3.5,4.5-3.5c1.3,0,2.3,0.7,2.3,1.7c0,1.7-2.5,3.5-4.6,3.5C532,78.2,531,77.6,531,76.5z"/>
</g>
</svg>
