<?xml version="1.0" encoding="utf-8"?>

<!--
	ScaleBook
	Copyright (c) Leland Jansen 2015. All rights reserved.
-->

<!DOCTYPE svg PUBLIC "-//W3C//DTD SVG 1.1//EN" "http://www.w3.org/Graphics/SVG/1.1/DTD/svg11.dtd">
<svg version="1.1" id="Layer_1" xmlns="http://www.w3.org/2000/svg" xmlns:xlink="http://www.w3.org/1999/xlink" x="0px" y="0px"
	 viewBox="0 0 552.9 90.6" enable-background="new 0 0 552.9 90.6" xml:space="preserve">
<rect x="8.4" y="11.2" width="0.8" height="67"/>
<g>
	<path d="M7.4,11.8c-1.9,1.1-3.6,5.8-3.6,9.4c0,2.3,1.4,9.9,1.4,12.3c0,5-1.5,8.6-4.6,11.1c3,2.4,4.6,6.1,4.6,11.1
		c0,2.3-1.4,9.9-1.4,12.3c0,3.8,1.7,8.4,3.6,9.5v0.7c-3.5-2.3-5.8-8.2-5.8-13.1c0-2.1,1.7-9.4,1.7-11.5c0-3.8-1-6.6-2.9-8.2
		C0.1,45,0,44.8,0,44.6c0-0.2,0.1-0.4,0.5-0.7c1.9-1.7,2.9-4.2,2.9-7.6c0-2.1-1.7-10-1.7-12.2c0-5.2,2.1-10.4,5.8-13.1V11.8z"/>
</g>
<rect x="547.8" y="11.2" width="0.8" height="67"/>
<rect x="550.4" y="11.2" width="2.5" height="67"/>
<rect x="8.5" y="30.8" width="544.4" height="0.5"/>
<rect x="8.5" y="25.8" width="544.4" height="0.5"/>
<rect x="8.5" y="20.8" width="544.4" height="0.5"/>
<rect x="8.5" y="15.9" width="544.4" height="0.5"/>
<rect x="8.5" y="10.9" width="544.4" height="0.5"/>
<g>
	<path d="M20.3,30.8c-4.2,0-8.1-3.1-8.1-6.9c0-3.2,2.3-6.7,6.8-10.5c-0.3-1.2-0.4-2.4-0.4-3.6c0-3.5,1.2-6.8,3.2-8.5
		c1.8,2.5,2.7,4.9,2.7,7.1c0,2.9-1.3,5.6-4.3,8.1l0.9,4.2c0.5,0,0.8-0.1,0.8-0.1c2.6,0,4.8,2,4.8,4.7c0,1.9-1.4,3.7-3.6,4.8
		c0-0.1,0.9,3.8,0.9,4.3c0,2.5-2.3,4.2-4.9,4.2c-2,0-3.6-1.3-3.6-3.4c0-1.4,1-2.6,2.4-2.6c1.3,0,2.3,1.3,2.3,2.5
		c0,1.4-1.2,2.3-2.7,2.5c0.6,0.3,1.2,0.5,1.9,0.5c2.1,0,4.1-1.6,4.1-3.6c0-0.2,0-0.4-0.1-0.6l-0.8-3.7
		C21.9,30.7,21.2,30.8,20.3,30.8z M18.1,25.6c0,1,0.5,1.9,1.6,2.5c-1.8-0.3-3-1.4-3-3.1c0-2,1.7-3.7,3.8-4.1l-0.8-4
		C16,19.7,14,22.4,14,25.1c0,2.9,2.8,5.3,6,5.3c0.9,0,1.7-0.2,2.4-0.5L21,23C19.4,23.2,18.1,24.3,18.1,25.6z M22.1,4.3
		c-1.6,0-2.9,3.7-2.9,7c0,0.7,0,1.3,0.2,1.9c2.7-2.4,4-4.5,4-6.5c0-0.9-0.3-1.7-1-2.4C22.4,4.3,22.3,4.3,22.1,4.3z M24.9,26.2
		c0-1.6-1.2-3.3-2.9-3.3c-0.1,0-0.2,0-0.5,0l1.4,6.6C24.2,28.6,24.9,27.5,24.9,26.2z"/>
</g>
<g>
	<path d="M33.5,4.3v2.8l1-0.3v1.8l-1,0.3v3.4l1-0.3v1.8l-1,0.3v3.1H33v-3L31.1,15v3h-0.5v-2.8l-1,0.3v-1.8l1-0.3V9.9l-1,0.3V8.4
		l1-0.3V5h0.5v3L33,7.3v-3H33.5z M33,9.1l-1.9,0.6v3.4l1.9-0.6V9.1z"/>
</g>
<g>
	<path d="M39.7,11.8v2.8l1-0.3v1.8l-1,0.3v3.4l1-0.3v1.8l-1,0.3v3.1h-0.5v-3l-1.9,0.6v3h-0.5v-2.8l-1,0.3v-1.8l1-0.3v-3.4l-1,0.3
		v-1.8l1-0.3v-3.1h0.5v3l1.9-0.6v-3H39.7z M39.2,16.6l-1.9,0.6v3.4l1.9-0.6V16.6z"/>
</g>
<g>
	<path d="M45.9,1.9v2.8l1-0.3v1.8l-1,0.3v3.4l1-0.3v1.8l-1,0.3v3.1h-0.5v-3l-1.9,0.6v3H43v-2.8l-1,0.3v-1.8l1-0.3V7.4l-1,0.3V5.9
		l1-0.3V2.5h0.5v3l1.9-0.6v-3H45.9z M45.4,6.6l-1.9,0.6v3.4l1.9-0.6V6.6z"/>
</g>
<polygon fill-rule="evenodd" clip-rule="evenodd" points="62.2,17.4 105.7,12.4 105.7,9.9 62.2,14.9 "/>
<polygon fill-rule="evenodd" clip-rule="evenodd" points="62.2,13.6 105.7,8.7 105.7,6.2 62.2,11.2 "/>
<polygon fill-rule="evenodd" clip-rule="evenodd" points="120.1,16.1 163.3,11.2 163.3,8.7 120.1,13.6 "/>
<polygon fill-rule="evenodd" clip-rule="evenodd" points="120.1,12.4 163.3,7.4 163.3,5 120.1,9.9 "/>
<polygon fill-rule="evenodd" clip-rule="evenodd" points="177.7,11.2 221.1,6.2 221.1,3.7 177.7,8.7 "/>
<polygon fill-rule="evenodd" clip-rule="evenodd" points="177.7,7.4 221.1,2.5 221.1,0 177.7,5 "/>
<polygon fill-rule="evenodd" clip-rule="evenodd" points="242.8,33.5 286.1,28.5 286.1,26 242.8,31 "/>
<polygon fill-rule="evenodd" clip-rule="evenodd" points="242.8,37.2 286.1,32.2 286.1,29.8 242.8,34.7 "/>
<polygon fill-rule="evenodd" clip-rule="evenodd" points="300.5,28.5 343.9,33.5 343.9,31 300.5,26 "/>
<polygon fill-rule="evenodd" clip-rule="evenodd" points="300.5,32.2 343.9,37.2 343.9,34.7 300.5,29.8 "/>
<polygon fill-rule="evenodd" clip-rule="evenodd" points="378.6,6.2 422,11.2 422,8.7 378.6,3.7 "/>
<polygon fill-rule="evenodd" clip-rule="evenodd" points="378.6,2.5 422,7.4 422,5 378.6,0 "/>
<polygon fill-rule="evenodd" clip-rule="evenodd" points="436.5,11.2 479.7,16.1 479.7,13.6 436.5,8.7 "/>
<polygon fill-rule="evenodd" clip-rule="evenodd" points="436.5,7.4 479.7,12.4 479.7,9.9 436.5,5 "/>
<polygon fill-rule="evenodd" clip-rule="evenodd" points="494.1,12.4 537.5,17.4 537.5,14.9 494.1,9.9 "/>
<polygon fill-rule="evenodd" clip-rule="evenodd" points="494.1,8.7 537.5,13.6 537.5,11.2 494.1,6.2 "/>
<rect x="8.5" y="77.9" width="544.4" height="0.5"/>
<rect x="8.5" y="72.9" width="544.4" height="0.5"/>
<rect x="8.5" y="68" width="544.4" height="0.5"/>
<rect x="8.5" y="63" width="544.4" height="0.5"/>
<rect x="8.5" y="58.1" width="544.4" height="0.5"/>
<g>
	<path d="M15.7,72.5c2.9-2.6,4.7-6.1,4.7-9.2c0-2.5-1.4-4.4-3.7-4.4c-1.6,0-3.4,1.3-3.4,2.7c0,0.2,0,0.3,0.1,0.3
		c-0.1,0,0.6-0.6,1.4-0.6c0.9,0,1.5,0.8,1.5,1.7c0,1.2-0.9,2.2-2.1,2.2c-1.2,0-2.1-1.3-2.1-2.8c0-2.3,2.3-4.1,4.8-4.1
		c4.7,0,5.9,3.2,5.9,5.8c0,1.6-0.4,2.9-2,5.3c-1.9,3.1-6.4,5.3-8.1,5.3c-0.4,0-0.6-0.2-0.6-0.5C13.8,73.7,14.9,73.2,15.7,72.5z
		 M25.7,59.8c0.6,0,1,0.4,1,1c0,0.6-0.4,1-1,1s-1-0.4-1-1C24.7,60.2,25.1,59.8,25.7,59.8z M25.7,64.7c0.6,0,1,0.4,1,1
		c0,0.6-0.4,1-1,1s-1-0.4-1-1C24.7,65.1,25.1,64.7,25.7,64.7z"/>
</g>
<g>
	<path d="M33.5,56.4v2.8l1-0.3v1.8l-1,0.3v3.4l1-0.3V66l-1,0.3v3.1H33v-3l-1.9,0.6v3h-0.5v-2.8l-1,0.3v-1.8l1-0.3V62l-1,0.3v-1.8
		l1-0.3v-3.1h0.5v3l1.9-0.6v-3H33.5z M33,61.2l-1.9,0.6v3.4l1.9-0.6V61.2z"/>
</g>
<g>
	<path d="M39.7,63.9v2.8l1-0.3v1.8l-1,0.3v3.4l1-0.3v1.8l-1,0.3v3.1h-0.5v-3l-1.9,0.6v3h-0.5v-2.8l-1,0.3v-1.8l1-0.3v-3.4l-1,0.3
		v-1.8l1-0.3v-3.1h0.5v3l1.9-0.6v-3H39.7z M39.2,68.6l-1.9,0.6v3.4l1.9-0.6V68.6z"/>
</g>
<g>
	<path d="M45.9,53.9v2.8l1-0.3v1.8l-1,0.3V62l1-0.3v1.8l-1,0.3v3.1h-0.5v-3l-1.9,0.6v3H43v-2.8l-1,0.3v-1.8l1-0.3v-3.4l-1,0.3V58
		l1-0.3v-3.1h0.5v3l1.9-0.6v-3H45.9z M45.4,58.7l-1.9,0.6v3.4l1.9-0.6V58.7z"/>
</g>
<polygon fill-rule="evenodd" clip-rule="evenodd" points="55.7,85.6 99.1,80.6 99.1,78.1 55.7,83.1 "/>
<polygon fill-rule="evenodd" clip-rule="evenodd" points="55.7,89.3 99.1,84.3 99.1,81.8 55.7,86.8 "/>
<polygon fill-rule="evenodd" clip-rule="evenodd" points="113.6,80.6 156.8,75.6 156.8,73.2 113.6,78.1 "/>
<polygon fill-rule="evenodd" clip-rule="evenodd" points="113.6,84.3 156.8,79.4 156.8,76.9 113.6,81.8 "/>
<g>
	<path d="M234.8,76.8c-3.2,0-6.1-2.3-6.1-5.1c0-2.4,1.7-5,5.1-7.9c-0.2-0.9-0.3-1.8-0.3-2.7c0-2.6,0.9-5.1,2.4-6.3
		c1.4,1.9,2,3.7,2,5.3c0,2.2-1,4.2-3.2,6.1l0.7,3.1c0.4,0,0.6,0,0.6,0c2,0,3.6,1.5,3.6,3.5c0,1.4-1.1,2.8-2.7,3.6
		c0-0.1,0.6,2.8,0.6,3.3c0,1.9-1.7,3.2-3.7,3.2c-1.5,0-2.7-1-2.7-2.5c0-1.1,0.7-1.9,1.8-1.9c1,0,1.7,1,1.7,1.9c0,1-0.9,1.7-2,1.8
		c0.4,0.2,0.9,0.3,1.4,0.3c1.6,0,3.1-1.2,3.1-2.7c0-0.1,0-0.3,0-0.5l-0.6-2.8C236,76.7,235.5,76.8,234.8,76.8z M233.2,72.9
		c0,0.8,0.4,1.4,1.2,1.9c-1.3-0.2-2.2-1.1-2.2-2.3c0-1.5,1.3-2.8,2.9-3.1l-0.6-3c-2.8,2.1-4.3,4.1-4.3,6.1c0,2.2,2.1,4,4.5,4
		c0.7,0,1.3-0.1,1.8-0.4l-1.1-5.1C234.1,71.1,233.2,71.8,233.2,72.9z M236.2,56.8c-1.2,0-2.2,2.8-2.2,5.3c0,0.5,0,1,0.1,1.4
		c2-1.8,3-3.4,3-4.9c0-0.7-0.3-1.3-0.7-1.8C236.4,56.9,236.3,56.8,236.2,56.8z M238.3,73.3c0-1.2-0.9-2.4-2.2-2.4c0,0-0.2,0-0.4,0
		l1.1,5C237.8,75.1,238.3,74.2,238.3,73.3z"/>
</g>
<polygon fill-rule="evenodd" clip-rule="evenodd" points="171.2,79.4 214.6,74.4 214.6,71.9 171.2,76.9 "/>
<polygon fill-rule="evenodd" clip-rule="evenodd" points="171.2,83.1 214.6,78.1 214.6,75.6 171.2,80.6 "/>
<polygon fill-rule="evenodd" clip-rule="evenodd" points="249.4,64.5 292.6,59.5 292.6,57 249.4,62 "/>
<polygon fill-rule="evenodd" clip-rule="evenodd" points="249.4,60.8 292.6,55.8 292.6,53.3 249.4,58.3 "/>
<g>
	<path d="M360.7,70.2c2.2-2,3.6-4.6,3.6-6.9c0-1.9-1.1-3.3-2.8-3.3c-1.2,0-2.5,1-2.5,2.1c0,0.2,0,0.2,0.1,0.2c0,0,0.4-0.5,1-0.5
		c0.7,0,1.2,0.6,1.2,1.3c0,0.9-0.6,1.7-1.6,1.7s-1.5-1-1.5-2.1c0-1.8,1.7-3.1,3.6-3.1c3.5,0,4.4,2.4,4.4,4.4c0,1.2-0.3,2.2-1.5,4
		c-1.4,2.3-4.8,4-6,4c-0.3,0-0.5-0.1-0.5-0.3C359.2,71.1,360.1,70.7,360.7,70.2z M368.1,60.6c0.4,0,0.7,0.3,0.7,0.7
		c0,0.4-0.3,0.7-0.7,0.7c-0.4,0-0.7-0.3-0.7-0.7C367.4,61,367.7,60.6,368.1,60.6z M368.1,64.3c0.4,0,0.7,0.3,0.7,0.7
		s-0.3,0.7-0.7,0.7c-0.4,0-0.7-0.3-0.7-0.7S367.7,64.3,368.1,64.3z"/>
</g>
<polygon fill-rule="evenodd" clip-rule="evenodd" points="307,59.5 350.4,64.5 350.4,62 307,57 "/>
<polygon fill-rule="evenodd" clip-rule="evenodd" points="307,55.8 350.4,60.8 350.4,58.3 307,53.3 "/>
<polygon fill-rule="evenodd" clip-rule="evenodd" points="372.1,74.4 415.5,79.4 415.5,76.9 372.1,71.9 "/>
<polygon fill-rule="evenodd" clip-rule="evenodd" points="372.1,78.1 415.5,83.1 415.5,80.6 372.1,75.6 "/>
<polygon fill-rule="evenodd" clip-rule="evenodd" points="429.9,75.6 473.2,80.6 473.2,78.1 429.9,73.2 "/>
<polygon fill-rule="evenodd" clip-rule="evenodd" points="429.9,79.4 473.2,84.3 473.2,81.8 429.9,76.9 "/>
<polygon fill-rule="evenodd" clip-rule="evenodd" points="487.6,80.6 531,85.6 531,83.1 487.6,78.1 "/>
<polygon fill-rule="evenodd" clip-rule="evenodd" points="487.6,84.3 531,89.3 531,86.8 487.6,81.8 "/>
<rect x="53.7" y="35.6" width="10.5" height="0.8"/>
<rect x="53.7" y="40.5" width="10.5" height="0.8"/>
<rect x="62" y="11.3" width="0.5" height="28.8"/>
<g>
	<path d="M55.6,41.8c0-1.8,2.5-3.5,4.5-3.5c1.3,0,2.3,0.7,2.3,1.7c0,1.7-2.5,3.5-4.6,3.5C56.6,43.5,55.6,42.9,55.6,41.8z"/>
</g>
<rect x="68.1" y="35.6" width="10.5" height="0.8"/>
<rect x="76.4" y="9.8" width="0.5" height="25.4"/>
<g>
	<path d="M70,36.8c0-1.8,2.5-3.5,4.5-3.5c1.3,0,2.3,0.7,2.3,1.7c0,1.7-2.5,3.5-4.6,3.5C71,38.5,70,37.9,70,36.8z"/>
</g>
<rect x="90.9" y="8.1" width="0.5" height="22.2"/>
<g>
	<path d="M84.4,31.9c0-1.8,2.5-3.5,4.5-3.5c1.3,0,2.3,0.7,2.3,1.7c0,1.7-2.5,3.5-4.6,3.5C85.4,33.6,84.4,32.9,84.4,31.9z"/>
</g>
<rect x="105.4" y="6.4" width="0.5" height="16.4"/>
<g>
	<path d="M99,24.4c0-1.8,2.5-3.5,4.5-3.5c1.3,0,2.3,0.7,2.3,1.7c0,1.7-2.5,3.5-4.6,3.5C100,26.1,99,25.5,99,24.4z"/>
</g>
<rect x="111.5" y="35.6" width="10.5" height="0.8"/>
<rect x="119.8" y="10.1" width="0.5" height="25.1"/>
<g>
	<path d="M113.4,36.8c0-1.8,2.5-3.5,4.5-3.5c1.3,0,2.3,0.7,2.3,1.7c0,1.7-2.5,3.5-4.6,3.5C114.4,38.5,113.4,37.9,113.4,36.8z"/>
</g>
<rect x="134.3" y="8.5" width="0.5" height="21.7"/>
<g>
	<path d="M127.8,31.9c0-1.8,2.5-3.5,4.5-3.5c1.3,0,2.3,0.7,2.3,1.7c0,1.7-2.5,3.5-4.6,3.5C128.8,33.6,127.8,32.9,127.8,31.9z"/>
</g>
<rect x="148.7" y="6.8" width="0.5" height="16"/>
<g>
	<path d="M142.2,24.4c0-1.8,2.5-3.5,4.5-3.5c1.3,0,2.3,0.7,2.3,1.7c0,1.7-2.5,3.5-4.6,3.5C143.2,26.1,142.2,25.5,142.2,24.4z"/>
</g>
<rect x="163.1" y="5.1" width="0.5" height="12.7"/>
<g>
	<path d="M156.7,19.5c0-1.8,2.5-3.5,4.5-3.5c1.3,0,2.3,0.7,2.3,1.7c0,1.7-2.5,3.5-4.6,3.5C157.6,21.2,156.7,20.5,156.7,19.5z"/>
</g>
<rect x="177.5" y="5.1" width="0.5" height="25.1"/>
<g>
	<path d="M171.1,31.9c0-1.8,2.5-3.5,4.5-3.5c1.3,0,2.3,0.7,2.3,1.7c0,1.7-2.5,3.5-4.6,3.5C172,33.6,171.1,32.9,171.1,31.9z"/>
</g>
<rect x="192.1" y="3.6" width="0.5" height="19.2"/>
<g>
	<path d="M185.6,24.4c0-1.8,2.5-3.5,4.5-3.5c1.3,0,2.3,0.7,2.3,1.7c0,1.7-2.5,3.5-4.6,3.5C186.6,26.1,185.6,25.5,185.6,24.4z"/>
</g>
<rect x="206.5" y="1.9" width="0.5" height="16"/>
<g>
	<path d="M200.1,19.5c0-1.8,2.5-3.5,4.5-3.5c1.3,0,2.3,0.7,2.3,1.7c0,1.7-2.5,3.5-4.6,3.5C201,21.2,200.1,20.5,200.1,19.5z"/>
</g>
<rect x="220.9" y="0.2" width="0.5" height="12.7"/>
<g>
	<path d="M214.5,14.5c0-1.8,2.5-3.5,4.5-3.5c1.3,0,2.3,0.7,2.3,1.7c0,1.7-2.5,3.5-4.6,3.5C215.4,16.2,214.5,15.6,214.5,14.5z"/>
</g>
<rect x="242.6" y="24.3" width="0.5" height="12.7"/>
<g>
	<path d="M242.7,24.4c0-1.8,2.5-3.5,4.5-3.5c1.3,0,2.3,0.7,2.3,1.7c0,1.7-2.5,3.5-4.6,3.5C243.7,26.1,242.7,25.5,242.7,24.4z"/>
</g>
<rect x="257" y="19.4" width="0.5" height="16.1"/>
<g>
	<path d="M257.1,19.5c0-1.8,2.5-3.5,4.5-3.5c1.3,0,2.3,0.7,2.3,1.7c0,1.7-2.5,3.5-4.6,3.5C258.1,21.2,257.1,20.5,257.1,19.5z"/>
</g>
<rect x="271.4" y="14.4" width="0.5" height="19.4"/>
<g>
	<path d="M271.5,14.5c0-1.8,2.5-3.5,4.5-3.5c1.3,0,2.3,0.7,2.3,1.7c0,1.7-2.5,3.5-4.6,3.5C272.5,16.2,271.5,15.6,271.5,14.5z"/>
</g>
<rect x="284.1" y="5.8" width="10.5" height="0.8"/>
<rect x="285.9" y="7" width="0.5" height="25.1"/>
<g>
	<path d="M285.9,7.1c0-1.8,2.5-3.5,4.5-3.5c1.3,0,2.3,0.7,2.3,1.7c0,1.7-2.5,3.5-4.6,3.5C286.9,8.8,285.9,8.1,285.9,7.1z"/>
</g>
<rect x="298.5" y="5.8" width="10.5" height="0.8"/>
<rect x="300.3" y="7" width="0.5" height="25.1"/>
<g>
	<path d="M300.4,7.1c0-1.8,2.5-3.5,4.5-3.5c1.3,0,2.3,0.7,2.3,1.7c0,1.7-2.5,3.5-4.6,3.5C301.3,8.8,300.4,8.1,300.4,7.1z"/>
</g>
<rect x="314.8" y="14.4" width="0.5" height="19.2"/>
<g>
	<path d="M314.9,14.5c0-1.8,2.5-3.5,4.5-3.5c1.3,0,2.3,0.7,2.3,1.7c0,1.7-2.5,3.5-4.6,3.5C315.9,16.2,314.9,15.6,314.9,14.5z"/>
</g>
<rect x="329.3" y="19.4" width="0.5" height="16"/>
<g>
	<path d="M329.3,19.5c0-1.8,2.5-3.5,4.5-3.5c1.3,0,2.3,0.7,2.3,1.7c0,1.7-2.5,3.5-4.6,3.5C330.3,21.2,329.3,20.5,329.3,19.5z"/>
</g>
<rect x="343.7" y="24.3" width="0.5" height="12.7"/>
<g>
	<path d="M343.8,24.4c0-1.8,2.5-3.5,4.5-3.5c1.3,0,2.3,0.7,2.3,1.7c0,1.7-2.5,3.5-4.6,3.5C344.7,26.1,343.8,25.5,343.8,24.4z"/>
</g>
<rect x="378.4" y="0.2" width="0.5" height="12.7"/>
<g>
	<path d="M372,14.5c0-1.8,2.5-3.5,4.5-3.5c1.3,0,2.3,0.7,2.3,1.7c0,1.7-2.5,3.5-4.6,3.5C372.9,16.2,372,15.6,372,14.5z"/>
</g>
<rect x="392.8" y="1.7" width="0.5" height="16.1"/>
<g>
	<path d="M386.4,19.5c0-1.8,2.5-3.5,4.5-3.5c1.3,0,2.3,0.7,2.3,1.7c0,1.7-2.5,3.5-4.6,3.5C387.4,21.2,386.4,20.5,386.4,19.5z"/>
</g>
<rect x="407.2" y="3.4" width="0.5" height="19.4"/>
<g>
	<path d="M400.8,24.4c0-1.8,2.5-3.5,4.5-3.5c1.3,0,2.3,0.7,2.3,1.7c0,1.7-2.5,3.5-4.6,3.5C401.8,26.1,400.8,25.5,400.8,24.4z"/>
</g>
<rect x="421.8" y="5.1" width="0.5" height="25.1"/>
<g>
	<path d="M415.4,31.9c0-1.8,2.5-3.5,4.5-3.5c1.3,0,2.3,0.7,2.3,1.7c0,1.7-2.5,3.5-4.6,3.5C416.3,33.6,415.4,32.9,415.4,31.9z"/>
</g>
<rect x="436.2" y="5.1" width="0.5" height="12.7"/>
<g>
	<path d="M429.8,19.5c0-1.8,2.5-3.5,4.5-3.5c1.3,0,2.3,0.7,2.3,1.7c0,1.7-2.5,3.5-4.6,3.5C430.8,21.2,429.8,20.5,429.8,19.5z"/>
</g>
<rect x="450.6" y="6.7" width="0.5" height="16.1"/>
<g>
	<path d="M444.2,24.4c0-1.8,2.5-3.5,4.5-3.5c1.3,0,2.3,0.7,2.3,1.7c0,1.7-2.5,3.5-4.6,3.5C445.2,26.1,444.2,25.5,444.2,24.4z"/>
</g>
<rect x="465.1" y="8.4" width="0.5" height="21.9"/>
<g>
	<path d="M458.6,31.9c0-1.8,2.5-3.5,4.5-3.5c1.3,0,2.3,0.7,2.3,1.7c0,1.7-2.5,3.5-4.6,3.5C459.6,33.6,458.6,32.9,458.6,31.9z"/>
</g>
<rect x="471.2" y="35.6" width="10.5" height="0.8"/>
<rect x="479.5" y="10.1" width="0.5" height="25.1"/>
<g>
	<path d="M473,36.8c0-1.8,2.5-3.5,4.5-3.5c1.3,0,2.3,0.7,2.3,1.7c0,1.7-2.5,3.5-4.6,3.5C474,38.5,473,37.9,473,36.8z"/>
</g>
<rect x="493.9" y="6.4" width="0.5" height="16.4"/>
<g>
	<path d="M487.5,24.4c0-1.8,2.5-3.5,4.5-3.5c1.3,0,2.3,0.7,2.3,1.7c0,1.7-2.5,3.5-4.6,3.5C488.4,26.1,487.5,25.5,487.5,24.4z"/>
</g>
<rect x="508.5" y="7.9" width="0.5" height="22.3"/>
<g>
	<path d="M502,31.9c0-1.8,2.5-3.5,4.5-3.5c1.3,0,2.3,0.7,2.3,1.7c0,1.7-2.5,3.5-4.6,3.5C503,33.6,502,32.9,502,31.9z"/>
</g>
<rect x="514.6" y="35.6" width="10.5" height="0.8"/>
<rect x="522.9" y="9.6" width="0.5" height="25.6"/>
<g>
	<path d="M516.4,36.8c0-1.8,2.5-3.5,4.5-3.5c1.3,0,2.3,0.7,2.3,1.7c0,1.7-2.5,3.5-4.6,3.5C517.4,38.5,516.4,37.9,516.4,36.8z"/>
</g>
<rect x="529" y="35.6" width="10.5" height="0.8"/>
<rect x="529" y="40.5" width="10.5" height="0.8"/>
<rect x="537.3" y="11.3" width="0.5" height="28.8"/>
<g>
	<path d="M530.9,41.8c0-1.8,2.5-3.5,4.5-3.5c1.3,0,2.3,0.7,2.3,1.7c0,1.7-2.5,3.5-4.6,3.5C531.8,43.5,530.9,42.9,530.9,41.8z"/>
</g>
<rect x="55.5" y="76.4" width="0.5" height="12.7"/>
<g>
	<path d="M55.6,76.5c0-1.8,2.5-3.5,4.5-3.5c1.3,0,2.3,0.7,2.3,1.7c0,1.7-2.5,3.5-4.6,3.5C56.6,78.2,55.6,77.6,55.6,76.5z"/>
</g>
<rect x="69.9" y="71.5" width="0.5" height="16.1"/>
<g>
	<path d="M70,71.5c0-1.8,2.5-3.5,4.5-3.5c1.3,0,2.3,0.7,2.3,1.7c0,1.7-2.5,3.5-4.6,3.5C71,73.3,70,72.6,70,71.5z"/>
</g>
<rect x="84.3" y="66.5" width="0.5" height="19.4"/>
<g>
	<path d="M84.4,66.6c0-1.8,2.5-3.5,4.5-3.5c1.3,0,2.3,0.7,2.3,1.7c0,1.7-2.5,3.5-4.6,3.5C85.4,68.3,84.4,67.7,84.4,66.6z"/>
</g>
<rect x="98.9" y="59.1" width="0.5" height="25.1"/>
<g>
	<path d="M99,59.1c0-1.8,2.5-3.5,4.5-3.5c1.3,0,2.3,0.7,2.3,1.7c0,1.7-2.5,3.5-4.6,3.5C100,60.9,99,60.2,99,59.1z"/>
</g>
<rect x="113.3" y="71.5" width="0.5" height="12.7"/>
<g>
	<path d="M113.4,71.5c0-1.8,2.5-3.5,4.5-3.5c1.3,0,2.3,0.7,2.3,1.7c0,1.7-2.5,3.5-4.6,3.5C114.4,73.3,113.4,72.6,113.4,71.5z"/>
</g>
<rect x="127.7" y="66.5" width="0.5" height="16.1"/>
<g>
	<path d="M127.8,66.6c0-1.8,2.5-3.5,4.5-3.5c1.3,0,2.3,0.7,2.3,1.7c0,1.7-2.5,3.5-4.6,3.5C128.8,68.3,127.8,67.7,127.8,66.6z"/>
</g>
<rect x="142.2" y="59.1" width="0.5" height="21.9"/>
<g>
	<path d="M142.2,59.1c0-1.8,2.5-3.5,4.5-3.5c1.3,0,2.3,0.7,2.3,1.7c0,1.7-2.5,3.5-4.6,3.5C143.2,60.9,142.2,60.2,142.2,59.1z"/>
</g>
<rect x="154.8" y="52.9" width="10.5" height="0.8"/>
<rect x="156.6" y="54.1" width="0.5" height="25.1"/>
<g>
	<path d="M156.7,54.2c0-1.8,2.5-3.5,4.5-3.5c1.3,0,2.3,0.7,2.3,1.7c0,1.7-2.5,3.5-4.6,3.5C157.6,55.9,156.7,55.3,156.7,54.2z"/>
</g>
<rect x="171" y="66.5" width="0.5" height="16.4"/>
<g>
	<path d="M171.1,66.6c0-1.8,2.5-3.5,4.5-3.5c1.3,0,2.3,0.7,2.3,1.7c0,1.7-2.5,3.5-4.6,3.5C172,68.3,171.1,67.7,171.1,66.6z"/>
</g>
<rect x="185.6" y="59.1" width="0.5" height="22.3"/>
<g>
	<path d="M185.6,59.1c0-1.8,2.5-3.5,4.5-3.5c1.3,0,2.3,0.7,2.3,1.7c0,1.7-2.5,3.5-4.6,3.5C186.6,60.9,185.6,60.2,185.6,59.1z"/>
</g>
<rect x="198.2" y="52.9" width="10.5" height="0.8"/>
<rect x="200" y="54.1" width="0.5" height="25.6"/>
<g>
	<path d="M200.1,54.2c0-1.8,2.5-3.5,4.5-3.5c1.3,0,2.3,0.7,2.3,1.7c0,1.7-2.5,3.5-4.6,3.5C201,55.9,200.1,55.3,200.1,54.2z"/>
</g>
<rect x="212.6" y="52.9" width="10.5" height="0.8"/>
<rect x="212.6" y="48" width="10.5" height="0.8"/>
<rect x="214.4" y="49.1" width="0.5" height="28.8"/>
<g>
	<path d="M214.5,49.2c0-1.8,2.5-3.5,4.5-3.5c1.3,0,2.3,0.7,2.3,1.7c0,1.7-2.5,3.5-4.6,3.5C215.4,50.9,214.5,50.3,214.5,49.2z"/>
</g>
<rect x="240.8" y="82.7" width="10.5" height="0.8"/>
<rect x="240.8" y="87.7" width="10.5" height="0.8"/>
<rect x="249.1" y="58.4" width="0.5" height="28.8"/>
<g>
	<path d="M242.7,88.9c0-1.8,2.5-3.5,4.5-3.5c1.3,0,2.3,0.7,2.3,1.7c0,1.7-2.5,3.5-4.6,3.5C243.7,90.6,242.7,90,242.7,88.9z"/>
</g>
<rect x="255.2" y="82.7" width="10.5" height="0.8"/>
<rect x="263.5" y="56.9" width="0.5" height="25.4"/>
<g>
	<path d="M257.1,83.9c0-1.8,2.5-3.5,4.5-3.5c1.3,0,2.3,0.7,2.3,1.7c0,1.7-2.5,3.5-4.6,3.5C258.1,85.7,257.1,85,257.1,83.9z"/>
</g>
<rect x="278" y="55.2" width="0.5" height="22.2"/>
<g>
	<path d="M271.5,79c0-1.8,2.5-3.5,4.5-3.5c1.3,0,2.3,0.7,2.3,1.7c0,1.7-2.5,3.5-4.6,3.5C272.5,80.7,271.5,80.1,271.5,79z"/>
</g>
<rect x="292.4" y="53.5" width="0.5" height="16.4"/>
<g>
	<path d="M285.9,71.5c0-1.8,2.5-3.5,4.5-3.5c1.3,0,2.3,0.7,2.3,1.7c0,1.7-2.5,3.5-4.6,3.5C286.9,73.3,285.9,72.6,285.9,71.5z"/>
</g>
<rect x="306.8" y="53.5" width="0.5" height="16.4"/>
<g>
	<path d="M300.4,71.5c0-1.8,2.5-3.5,4.5-3.5c1.3,0,2.3,0.7,2.3,1.7c0,1.7-2.5,3.5-4.6,3.5C301.3,73.3,300.4,72.6,300.4,71.5z"/>
</g>
<rect x="321.4" y="55" width="0.5" height="22.3"/>
<g>
	<path d="M314.9,79c0-1.8,2.5-3.5,4.5-3.5c1.3,0,2.3,0.7,2.3,1.7c0,1.7-2.5,3.5-4.6,3.5C315.9,80.7,314.9,80.1,314.9,79z"/>
</g>
<rect x="327.5" y="82.7" width="10.5" height="0.8"/>
<rect x="335.8" y="56.7" width="0.5" height="25.6"/>
<g>
	<path d="M329.3,83.9c0-1.8,2.5-3.5,4.5-3.5c1.3,0,2.3,0.7,2.3,1.7c0,1.7-2.5,3.5-4.6,3.5C330.3,85.7,329.3,85,329.3,83.9z"/>
</g>
<rect x="341.9" y="82.7" width="10.5" height="0.8"/>
<rect x="341.9" y="87.7" width="10.5" height="0.8"/>
<rect x="350.2" y="58.4" width="0.5" height="28.8"/>
<g>
	<path d="M343.8,88.9c0-1.8,2.5-3.5,4.5-3.5c1.3,0,2.3,0.7,2.3,1.7c0,1.7-2.5,3.5-4.6,3.5C344.7,90.6,343.8,90,343.8,88.9z"/>
</g>
<rect x="370.1" y="52.9" width="10.5" height="0.8"/>
<rect x="370.1" y="48" width="10.5" height="0.8"/>
<rect x="371.9" y="49.1" width="0.5" height="28.8"/>
<g>
	<path d="M372,49.2c0-1.8,2.5-3.5,4.5-3.5c1.3,0,2.3,0.7,2.3,1.7c0,1.7-2.5,3.5-4.6,3.5C372.9,50.9,372,50.3,372,49.2z"/>
</g>
<rect x="384.5" y="52.9" width="10.5" height="0.8"/>
<rect x="386.3" y="54.1" width="0.5" height="25.4"/>
<g>
	<path d="M386.4,54.2c0-1.8,2.5-3.5,4.5-3.5c1.3,0,2.3,0.7,2.3,1.7c0,1.7-2.5,3.5-4.6,3.5C387.4,55.9,386.4,55.3,386.4,54.2z"/>
</g>
<rect x="400.7" y="59.1" width="0.5" height="22.2"/>
<g>
	<path d="M400.8,59.1c0-1.8,2.5-3.5,4.5-3.5c1.3,0,2.3,0.7,2.3,1.7c0,1.7-2.5,3.5-4.6,3.5C401.8,60.9,400.8,60.2,400.8,59.1z"/>
</g>
<rect x="415.3" y="66.5" width="0.5" height="16.4"/>
<g>
	<path d="M415.4,66.6c0-1.8,2.5-3.5,4.5-3.5c1.3,0,2.3,0.7,2.3,1.7c0,1.7-2.5,3.5-4.6,3.5C416.3,68.3,415.4,67.7,415.4,66.6z"/>
</g>
<rect x="427.9" y="52.9" width="10.5" height="0.8"/>
<rect x="429.7" y="54.1" width="0.5" height="25.1"/>
<g>
	<path d="M429.8,54.2c0-1.8,2.5-3.5,4.5-3.5c1.3,0,2.3,0.7,2.3,1.7c0,1.7-2.5,3.5-4.6,3.5C430.8,55.9,429.8,55.3,429.8,54.2z"/>
</g>
<rect x="444.1" y="59.1" width="0.5" height="21.7"/>
<g>
	<path d="M444.2,59.1c0-1.8,2.5-3.5,4.5-3.5c1.3,0,2.3,0.7,2.3,1.7c0,1.7-2.5,3.5-4.6,3.5C445.2,60.9,444.2,60.2,444.2,59.1z"/>
</g>
<rect x="458.5" y="66.5" width="0.5" height="16"/>
<g>
	<path d="M458.6,66.6c0-1.8,2.5-3.5,4.5-3.5c1.3,0,2.3,0.7,2.3,1.7c0,1.7-2.5,3.5-4.6,3.5C459.6,68.3,458.6,67.7,458.6,66.6z"/>
</g>
<rect x="473" y="71.5" width="0.5" height="12.7"/>
<g>
	<path d="M473,71.5c0-1.8,2.5-3.5,4.5-3.5c1.3,0,2.3,0.7,2.3,1.7c0,1.7-2.5,3.5-4.6,3.5C474,73.3,473,72.6,473,71.5z"/>
</g>
<rect x="487.4" y="59.1" width="0.5" height="25.1"/>
<g>
	<path d="M487.5,59.1c0-1.8,2.5-3.5,4.5-3.5c1.3,0,2.3,0.7,2.3,1.7c0,1.7-2.5,3.5-4.6,3.5C488.4,60.9,487.5,60.2,487.5,59.1z"/>
</g>
<rect x="502" y="66.5" width="0.5" height="19.2"/>
<g>
	<path d="M502,66.6c0-1.8,2.5-3.5,4.5-3.5c1.3,0,2.3,0.7,2.3,1.7c0,1.7-2.5,3.5-4.6,3.5C503,68.3,502,67.7,502,66.6z"/>
</g>
<rect x="516.4" y="71.5" width="0.5" height="16"/>
<g>
	<path d="M516.4,71.5c0-1.8,2.5-3.5,4.5-3.5c1.3,0,2.3,0.7,2.3,1.7c0,1.7-2.5,3.5-4.6,3.5C517.4,73.3,516.4,72.6,516.4,71.5z"/>
</g>
<rect x="530.8" y="76.4" width="0.5" height="12.7"/>
<g>
	<path d="M530.9,76.5c0-1.8,2.5-3.5,4.5-3.5c1.3,0,2.3,0.7,2.3,1.7c0,1.7-2.5,3.5-4.6,3.5C531.8,78.2,530.9,77.6,530.9,76.5z"/>
</g>
</svg>
