<?xml version="1.0" encoding="utf-8"?>

<!--
	ScaleBook
	Copyright (c) Leland Jansen 2015. All rights reserved.
-->

<!DOCTYPE svg PUBLIC "-//W3C//DTD SVG 1.1//EN" "http://www.w3.org/Graphics/SVG/1.1/DTD/svg11.dtd">
<svg version="1.1" id="Layer_1" xmlns="http://www.w3.org/2000/svg" xmlns:xlink="http://www.w3.org/1999/xlink" x="0px" y="0px"
	 viewBox="0 0 553 88.9" enable-background="new 0 0 553 88.9" xml:space="preserve">
<rect x="8.5" y="12.5" width="0.8" height="68.8"/>
<g>
	<path d="M7.6,13.2c-2,1.1-3.7,5.9-3.7,9.7c0,2.3,1.4,10.2,1.4,12.6c0,5.1-1.6,8.9-4.7,11.4c3.1,2.5,4.7,6.3,4.7,11.4
		c0,2.3-1.4,10.2-1.4,12.6c0,3.9,1.8,8.7,3.7,9.8v0.7C4,79,1.7,72.9,1.7,67.9c0-2.2,1.8-9.6,1.8-11.8c0-3.9-1-6.7-3-8.5
		C0.1,47.3,0,47.1,0,46.9s0.1-0.4,0.5-0.7c2-1.7,3-4.3,3-7.8c0-2.2-1.8-10.3-1.8-12.5c0-5.3,2.1-10.7,5.9-13.4V13.2z"/>
</g>
<rect x="548" y="12.5" width="0.8" height="68.8"/>
<rect x="550.5" y="12.5" width="2.5" height="68.8"/>
<rect x="8.6" y="32.1" width="544.4" height="0.5"/>
<rect x="8.6" y="27.2" width="544.4" height="0.5"/>
<rect x="8.6" y="22.2" width="544.4" height="0.5"/>
<rect x="8.6" y="17.2" width="544.4" height="0.5"/>
<rect x="8.6" y="12.3" width="544.4" height="0.5"/>
<g>
	<path d="M20.4,32.2c-4.2,0-8.1-3.1-8.1-6.9c0-3.2,2.3-6.7,6.8-10.5c-0.3-1.2-0.4-2.4-0.4-3.6c0-3.5,1.2-6.8,3.2-8.5
		c1.8,2.5,2.7,4.9,2.7,7.1c0,2.9-1.3,5.6-4.3,8.1l0.9,4.2c0.5,0,0.8-0.1,0.8-0.1c2.6,0,4.8,2,4.8,4.7c0,1.9-1.4,3.7-3.6,4.8
		c0-0.1,0.9,3.8,0.9,4.3c0,2.5-2.3,4.2-4.9,4.2c-2,0-3.6-1.3-3.6-3.4c0-1.4,1-2.6,2.4-2.6c1.3,0,2.3,1.3,2.3,2.5
		c0,1.4-1.2,2.3-2.7,2.5c0.6,0.3,1.2,0.5,1.9,0.5c2.1,0,4.1-1.6,4.1-3.6c0-0.2,0-0.4-0.1-0.6l-0.8-3.7
		C22.1,32.1,21.4,32.2,20.4,32.2z M18.2,27c0,1,0.5,1.9,1.6,2.5c-1.8-0.3-3-1.4-3-3.1c0-2,1.7-3.7,3.8-4.1l-0.8-4
		c-3.7,2.8-5.7,5.5-5.7,8.1c0,2.9,2.8,5.3,6,5.3c0.9,0,1.7-0.2,2.4-0.5l-1.4-6.8C19.5,24.6,18.2,25.6,18.2,27z M22.3,5.6
		c-1.6,0-2.9,3.7-2.9,7c0,0.7,0,1.3,0.2,1.9c2.7-2.4,4-4.5,4-6.5c0-0.9-0.3-1.7-1-2.4C22.5,5.7,22.4,5.6,22.3,5.6z M25,27.5
		c0-1.6-1.2-3.3-2.9-3.3c-0.1,0-0.2,0-0.5,0l1.4,6.6C24.4,30,25,28.8,25,27.5z"/>
</g>
<g>
	<path d="M29.7,14.1h0.6l-0.1,6.2c0.4-0.7,1-1,1.8-1c1.2,0,2.2,0.8,2.2,1.9c0,0.8-0.5,1.8-1.7,2.7l-2.8,2.1V14.1z M30.3,21
		c-0.1,0.8-0.1,1.4-0.1,1.9c0,1,0,1.6,0.1,2c1-0.7,2.4-2.6,2.4-3.7c0-0.6-0.5-1.1-1.1-1.1C31,20.2,30.6,20.5,30.3,21z"/>
</g>
<g>
	<path d="M35.3,6.7h0.6l-0.1,6.2c0.4-0.7,1-1,1.8-1c1.2,0,2.2,0.8,2.2,1.9c0,0.8-0.5,1.8-1.7,2.7l-2.8,2.1V6.7z M35.9,13.6
		c-0.1,0.8-0.1,1.4-0.1,1.9c0,1,0,1.6,0.1,2c1-0.7,2.4-2.6,2.4-3.7c0-0.6-0.5-1.1-1.1-1.1C36.6,12.8,36.1,13,35.9,13.6z"/>
</g>
<g>
	<path d="M40.9,16.6h0.6l-0.1,6.2c0.4-0.7,1-1,1.8-1c1.2,0,2.2,0.8,2.2,1.9c0,0.8-0.5,1.8-1.7,2.7l-2.8,2.1V16.6z M41.4,23.5
		c-0.1,0.8-0.1,1.4-0.1,1.9c0,1,0,1.6,0.1,2c1-0.7,2.4-2.6,2.4-3.7c0-0.6-0.5-1.1-1.1-1.1C42.1,22.7,41.7,23,41.4,23.5z"/>
</g>
<g>
	<path d="M46.4,9.2h0.6l-0.1,6.2c0.4-0.7,1-1,1.8-1c1.2,0,2.2,0.8,2.2,1.9c0,0.8-0.5,1.8-1.7,2.7l-2.8,2.1V9.2z M47,16.1
		c-0.1,0.8-0.1,1.4-0.1,1.9c0,1,0,1.6,0.1,2c1-0.7,2.4-2.6,2.4-3.7c0-0.6-0.5-1.1-1.1-1.1C47.7,15.2,47.3,15.5,47,16.1z"/>
</g>
<g>
	<path d="M52,19.1h0.6l-0.1,6.2c0.4-0.7,1-1,1.8-1c1.2,0,2.2,0.8,2.2,1.9c0,0.8-0.5,1.8-1.7,2.7L52,31V19.1z M52.6,26
		c-0.1,0.8-0.1,1.4-0.1,1.9c0,1,0,1.6,0.1,2c1-0.7,2.4-2.6,2.4-3.7c0-0.6-0.5-1.1-1.1-1.1C53.3,25.2,52.9,25.4,52.6,26z"/>
</g>
<g>
	<path d="M57.6,11.6h0.6l-0.1,6.2c0.4-0.7,1-1,1.8-1c1.2,0,2.2,0.8,2.2,1.9c0,0.8-0.5,1.8-1.7,2.7l-2.8,2.1V11.6z M58.2,18.6
		c-0.1,0.8-0.1,1.4-0.1,1.9c0,1,0,1.6,0.1,2c1-0.7,2.4-2.6,2.4-3.7c0-0.6-0.5-1.1-1.1-1.1C58.9,17.7,58.5,18,58.2,18.6z"/>
</g>
<g>
	<path d="M63.2,21.6h0.6l-0.1,6.2c0.4-0.7,1-1,1.8-1c1.2,0,2.2,0.8,2.2,1.9c0,0.8-0.5,1.8-1.7,2.7l-2.8,2.1V21.6z M63.8,28.5
		c-0.1,0.8-0.1,1.4-0.1,1.9c0,1,0,1.6,0.1,2c1-0.7,2.4-2.6,2.4-3.7c0-0.6-0.5-1.1-1.1-1.1C64.5,27.6,64.1,27.9,63.8,28.5z"/>
</g>
<polygon fill-rule="evenodd" clip-rule="evenodd" points="82.9,17.5 124.1,12.5 124.1,10 82.9,15 "/>
<polygon fill-rule="evenodd" clip-rule="evenodd" points="82.9,13.8 124.1,8.8 124.1,6.3 82.9,11.3 "/>
<polygon fill-rule="evenodd" clip-rule="evenodd" points="137.9,12.5 179.1,7.6 179.1,5.1 137.9,10 "/>
<polygon fill-rule="evenodd" clip-rule="evenodd" points="137.9,8.8 179.1,3.8 179.1,1.4 137.9,6.3 "/>
<polygon fill-rule="evenodd" clip-rule="evenodd" points="186.4,38.6 227.6,33.6 227.6,31.1 186.4,36.1 "/>
<polygon fill-rule="evenodd" clip-rule="evenodd" points="186.4,42.3 227.6,37.3 227.6,34.8 186.4,39.8 "/>
<polygon fill-rule="evenodd" clip-rule="evenodd" points="255.9,33.6 297.3,28.6 297.3,26.2 255.9,31.1 "/>
<polygon fill-rule="evenodd" clip-rule="evenodd" points="255.9,37.3 297.3,32.4 297.3,29.9 255.9,34.8 "/>
<polygon fill-rule="evenodd" clip-rule="evenodd" points="310.9,28.6 352.3,33.6 352.3,31.1 310.9,26.2 "/>
<polygon fill-rule="evenodd" clip-rule="evenodd" points="310.9,32.4 352.3,37.3 352.3,34.8 310.9,29.9 "/>
<polygon fill-rule="evenodd" clip-rule="evenodd" points="380.5,33.6 421.7,38.6 421.7,36.1 380.5,31.1 "/>
<polygon fill-rule="evenodd" clip-rule="evenodd" points="380.5,37.3 421.7,42.3 421.7,39.8 380.5,34.8 "/>
<polygon fill-rule="evenodd" clip-rule="evenodd" points="442,7.6 483.3,12.5 483.3,10 442,5.1 "/>
<polygon fill-rule="evenodd" clip-rule="evenodd" points="442,3.8 483.3,8.8 483.3,6.3 442,1.4 "/>
<polygon fill-rule="evenodd" clip-rule="evenodd" points="497.1,12.5 538.3,17.5 538.3,15 497.1,10 "/>
<polygon fill-rule="evenodd" clip-rule="evenodd" points="497.1,8.8 538.3,13.8 538.3,11.3 497.1,6.3 "/>
<rect x="8.6" y="81.1" width="544.4" height="0.5"/>
<rect x="8.6" y="76.2" width="544.4" height="0.5"/>
<rect x="8.6" y="71.2" width="544.4" height="0.5"/>
<rect x="8.6" y="66.2" width="544.4" height="0.5"/>
<rect x="8.6" y="61.3" width="544.4" height="0.5"/>
<g>
	<path d="M15.9,75.7c2.9-2.6,4.7-6.1,4.7-9.2c0-2.5-1.4-4.4-3.7-4.4c-1.6,0-3.4,1.3-3.4,2.7c0,0.2,0,0.3,0.1,0.3
		c-0.1,0,0.6-0.6,1.4-0.6c0.9,0,1.5,0.8,1.5,1.7c0,1.2-0.9,2.2-2.1,2.2c-1.2,0-2.1-1.3-2.1-2.8c0-2.3,2.3-4.1,4.8-4.1
		c4.7,0,5.9,3.2,5.9,5.8c0,1.6-0.4,2.9-2,5.3c-1.9,3.1-6.4,5.3-8.1,5.3c-0.4,0-0.6-0.2-0.6-0.5C14,77,15.1,76.4,15.9,75.7z M25.8,63
		c0.6,0,1,0.4,1,1c0,0.6-0.4,1-1,1s-1-0.4-1-1C24.8,63.4,25.3,63,25.8,63z M25.8,67.9c0.6,0,1,0.4,1,1c0,0.6-0.4,1-1,1s-1-0.4-1-1
		C24.8,68.4,25.3,67.9,25.8,67.9z"/>
</g>
<g>
	<path d="M29.7,68.1h0.6l-0.1,6.2c0.4-0.7,1-1,1.8-1c1.2,0,2.2,0.8,2.2,1.9c0,0.8-0.5,1.8-1.7,2.7L29.7,80V68.1z M30.3,75
		c-0.1,0.8-0.1,1.4-0.1,1.9c0,1,0,1.6,0.1,2c1-0.7,2.4-2.6,2.4-3.7c0-0.6-0.5-1.1-1.1-1.1C31,74.1,30.6,74.4,30.3,75z"/>
</g>
<g>
	<path d="M35.3,60.6h0.6l-0.1,6.2c0.4-0.7,1-1,1.8-1c1.2,0,2.2,0.8,2.2,1.9c0,0.8-0.5,1.8-1.7,2.7l-2.8,2.1V60.6z M35.9,67.5
		c-0.1,0.8-0.1,1.4-0.1,1.9c0,1,0,1.6,0.1,2c1-0.7,2.4-2.6,2.4-3.7c0-0.6-0.5-1.1-1.1-1.1C36.6,66.7,36.1,67,35.9,67.5z"/>
</g>
<g>
	<path d="M40.9,70.6h0.6l-0.1,6.2c0.4-0.7,1-1,1.8-1c1.2,0,2.2,0.8,2.2,1.9c0,0.8-0.5,1.8-1.7,2.7l-2.8,2.1V70.6z M41.4,77.5
		c-0.1,0.8-0.1,1.4-0.1,1.9c0,1,0,1.6,0.1,2c1-0.7,2.4-2.6,2.4-3.7c0-0.6-0.5-1.1-1.1-1.1C42.1,76.6,41.7,76.9,41.4,77.5z"/>
</g>
<g>
	<path d="M46.4,63.1h0.6l-0.1,6.2c0.4-0.7,1-1,1.8-1c1.2,0,2.2,0.8,2.2,1.9c0,0.8-0.5,1.8-1.7,2.7l-2.8,2.1V63.1z M47,70
		c-0.1,0.8-0.1,1.4-0.1,1.9c0,1,0,1.6,0.1,2c1-0.7,2.4-2.6,2.4-3.7c0-0.6-0.5-1.1-1.1-1.1C47.7,69.2,47.3,69.5,47,70z"/>
</g>
<g>
	<path d="M52,73h0.6l-0.1,6.2c0.4-0.7,1-1,1.8-1c1.2,0,2.2,0.8,2.2,1.9c0,0.8-0.5,1.8-1.7,2.7L52,85V73z M52.6,79.9
		c-0.1,0.8-0.1,1.4-0.1,1.9c0,1,0,1.6,0.1,2c1-0.7,2.4-2.6,2.4-3.7c0-0.6-0.5-1.1-1.1-1.1C53.3,79.1,52.9,79.4,52.6,79.9z"/>
</g>
<g>
	<path d="M57.6,65.6h0.6l-0.1,6.2c0.4-0.7,1-1,1.8-1c1.2,0,2.2,0.8,2.2,1.9c0,0.8-0.5,1.8-1.7,2.7l-2.8,2.1V65.6z M58.2,72.5
		c-0.1,0.8-0.1,1.4-0.1,1.9c0,1,0,1.6,0.1,2c1-0.7,2.4-2.6,2.4-3.7c0-0.6-0.5-1.1-1.1-1.1C58.9,71.7,58.5,71.9,58.2,72.5z"/>
</g>
<g>
	<path d="M63.2,75.5h0.6l-0.1,6.2c0.4-0.7,1-1,1.8-1c1.2,0,2.2,0.8,2.2,1.9c0,0.8-0.5,1.8-1.7,2.7l-2.8,2.1V75.5z M63.8,82.4
		c-0.1,0.8-0.1,1.4-0.1,1.9c0,1,0,1.6,0.1,2c1-0.7,2.4-2.6,2.4-3.7c0-0.6-0.5-1.1-1.1-1.1C64.5,81.6,64.1,81.9,63.8,82.4z"/>
</g>
<polygon fill-rule="evenodd" clip-rule="evenodd" points="76.4,83.8 117.6,78.9 117.6,76.4 76.4,81.3 "/>
<polygon fill-rule="evenodd" clip-rule="evenodd" points="76.4,87.5 117.6,82.6 117.6,80.1 76.4,85.1 "/>
<polygon fill-rule="evenodd" clip-rule="evenodd" points="131.4,82.6 172.6,77.6 172.6,75.1 131.4,80.1 "/>
<polygon fill-rule="evenodd" clip-rule="evenodd" points="131.4,86.3 172.6,81.3 172.6,78.9 131.4,83.8 "/>
<g>
	<path d="M247.8,80c-3.2,0-6.1-2.3-6.1-5.1c0-2.4,1.7-5,5.1-7.9c-0.2-0.9-0.3-1.8-0.3-2.7c0-2.6,0.9-5.1,2.4-6.3
		c1.4,1.9,2,3.7,2,5.3c0,2.2-1,4.2-3.2,6.1l0.7,3.1c0.4,0,0.6,0,0.6,0c2,0,3.6,1.5,3.6,3.5c0,1.4-1.1,2.8-2.7,3.6
		c0-0.1,0.6,2.8,0.6,3.3c0,1.9-1.7,3.2-3.7,3.2c-1.5,0-2.7-1-2.7-2.5c0-1.1,0.7-1.9,1.8-1.9c1,0,1.7,1,1.7,1.9c0,1-0.9,1.7-2,1.8
		c0.4,0.2,0.9,0.3,1.4,0.3c1.6,0,3.1-1.2,3.1-2.7c0-0.1,0-0.3,0-0.5l-0.6-2.8C249.1,79.9,248.5,80,247.8,80z M246.2,76.1
		c0,0.8,0.4,1.4,1.2,1.9c-1.3-0.2-2.2-1.1-2.2-2.3c0-1.5,1.3-2.8,2.9-3.1l-0.6-3c-2.8,2.1-4.3,4.1-4.3,6.1c0,2.2,2.1,4,4.5,4
		c0.7,0,1.3-0.1,1.8-0.4l-1.1-5.1C247.1,74.3,246.2,75,246.2,76.1z M249.2,60.1c-1.2,0-2.2,2.8-2.2,5.3c0,0.5,0,1,0.1,1.4
		c2-1.8,3-3.4,3-4.9c0-0.7-0.3-1.3-0.7-1.8C249.4,60.1,249.3,60.1,249.2,60.1z M251.3,76.5c0-1.2-0.9-2.4-2.2-2.4c0,0-0.2,0-0.4,0
		l1.1,5C250.8,78.3,251.3,77.5,251.3,76.5z"/>
</g>
<polygon fill-rule="evenodd" clip-rule="evenodd" points="186.4,77.6 227.6,72.7 227.6,70.2 186.4,75.1 "/>
<polygon fill-rule="evenodd" clip-rule="evenodd" points="186.4,81.3 227.6,76.4 227.6,73.9 186.4,78.9 "/>
<polygon fill-rule="evenodd" clip-rule="evenodd" points="262.4,66.5 303.8,61.5 303.8,59 262.4,64 "/>
<polygon fill-rule="evenodd" clip-rule="evenodd" points="262.4,62.7 303.8,57.8 303.8,55.3 262.4,60.3 "/>
<g>
	<path d="M369,73.4c2.2-2,3.6-4.6,3.6-6.9c0-1.9-1.1-3.3-2.8-3.3c-1.2,0-2.5,1-2.5,2.1c0,0.2,0,0.2,0.1,0.2c0,0,0.4-0.5,1-0.5
		c0.7,0,1.2,0.6,1.2,1.3c0,0.9-0.6,1.7-1.6,1.7s-1.5-1-1.5-2.1c0-1.8,1.7-3.1,3.6-3.1c3.5,0,4.4,2.4,4.4,4.4c0,1.2-0.3,2.2-1.5,4
		c-1.4,2.3-4.8,4-6,4c-0.3,0-0.5-0.1-0.5-0.3C367.6,74.3,368.5,73.9,369,73.4z M376.5,63.9c0.4,0,0.7,0.3,0.7,0.7
		c0,0.4-0.3,0.7-0.7,0.7c-0.4,0-0.7-0.3-0.7-0.7C375.8,64.2,376.1,63.9,376.5,63.9z M376.5,67.6c0.4,0,0.7,0.3,0.7,0.7
		s-0.3,0.7-0.7,0.7c-0.4,0-0.7-0.3-0.7-0.7S376.1,67.6,376.5,67.6z"/>
</g>
<polygon fill-rule="evenodd" clip-rule="evenodd" points="317.4,61.5 358.8,66.5 358.8,64 317.4,59 "/>
<polygon fill-rule="evenodd" clip-rule="evenodd" points="317.4,57.8 358.8,62.7 358.8,60.3 317.4,55.3 "/>
<polygon fill-rule="evenodd" clip-rule="evenodd" points="380.5,72.7 421.7,77.6 421.7,75.1 380.5,70.2 "/>
<polygon fill-rule="evenodd" clip-rule="evenodd" points="380.5,76.4 421.7,81.3 421.7,78.9 380.5,73.9 "/>
<polygon fill-rule="evenodd" clip-rule="evenodd" points="435.5,77.6 476.8,82.6 476.8,80.1 435.5,75.1 "/>
<polygon fill-rule="evenodd" clip-rule="evenodd" points="435.5,81.3 476.8,86.3 476.8,83.8 435.5,78.9 "/>
<polygon fill-rule="evenodd" clip-rule="evenodd" points="490.6,78.9 531.8,83.8 531.8,81.3 490.6,76.4 "/>
<polygon fill-rule="evenodd" clip-rule="evenodd" points="490.6,82.6 531.8,87.5 531.8,85.1 490.6,80.1 "/>
<rect x="74.3" y="36.9" width="10.5" height="0.8"/>
<rect x="82.6" y="11.4" width="0.5" height="25.1"/>
<g>
	<path d="M76.2,38.2c0-1.8,2.5-3.5,4.5-3.5c1.3,0,2.3,0.7,2.3,1.7c0,1.7-2.5,3.5-4.6,3.5C77.2,39.9,76.2,39.3,76.2,38.2z"/>
</g>
<rect x="96.4" y="9.9" width="0.5" height="21.7"/>
<g>
	<path d="M90,33.2c0-1.8,2.5-3.5,4.5-3.5c1.3,0,2.3,0.7,2.3,1.7c0,1.7-2.5,3.5-4.6,3.5C91,34.9,90,34.3,90,33.2z"/>
</g>
<rect x="110.2" y="8.2" width="0.5" height="18.4"/>
<g>
	<path d="M103.8,28.3c0-1.8,2.5-3.5,4.5-3.5c1.3,0,2.3,0.7,2.3,1.7c0,1.7-2.5,3.5-4.6,3.5C104.8,30,103.8,29.3,103.8,28.3z"/>
</g>
<rect x="123.9" y="6.5" width="0.5" height="12.7"/>
<g>
	<path d="M117.4,20.8c0-1.8,2.5-3.5,4.5-3.5c1.3,0,2.3,0.7,2.3,1.7c0,1.7-2.5,3.5-4.6,3.5C118.4,22.5,117.4,21.9,117.4,20.8z"/>
</g>
<rect x="137.7" y="6.5" width="0.5" height="25.1"/>
<g>
	<path d="M131.2,33.2c0-1.8,2.5-3.5,4.5-3.5c1.3,0,2.3,0.7,2.3,1.7c0,1.7-2.5,3.5-4.6,3.5C132.2,34.9,131.2,34.3,131.2,33.2z"/>
</g>
<rect x="151.5" y="4.9" width="0.5" height="21.7"/>
<g>
	<path d="M145,28.3c0-1.8,2.5-3.5,4.5-3.5c1.3,0,2.3,0.7,2.3,1.7c0,1.7-2.5,3.5-4.6,3.5C146,30,145,29.3,145,28.3z"/>
</g>
<rect x="165.3" y="3.2" width="0.5" height="16"/>
<g>
	<path d="M158.8,20.8c0-1.8,2.5-3.5,4.5-3.5c1.3,0,2.3,0.7,2.3,1.7c0,1.7-2.5,3.5-4.6,3.5C159.8,22.5,158.8,21.9,158.8,20.8z"/>
</g>
<rect x="178.9" y="1.5" width="0.5" height="12.7"/>
<g>
	<path d="M172.5,15.9c0-1.8,2.5-3.5,4.5-3.5c1.3,0,2.3,0.7,2.3,1.7c0,1.7-2.5,3.5-4.6,3.5C173.4,17.6,172.5,16.9,172.5,15.9z"/>
</g>
<rect x="186.2" y="28.2" width="0.5" height="14"/>
<g>
	<path d="M186.3,28.3c0-1.8,2.5-3.5,4.5-3.5c1.3,0,2.3,0.7,2.3,1.7c0,1.7-2.5,3.5-4.6,3.5C187.2,30,186.3,29.3,186.3,28.3z"/>
</g>
<rect x="200" y="20.7" width="0.5" height="19.8"/>
<g>
	<path d="M200.1,20.8c0-1.8,2.5-3.5,4.5-3.5c1.3,0,2.3,0.7,2.3,1.7c0,1.7-2.5,3.5-4.6,3.5C201,22.5,200.1,21.9,200.1,20.8z"/>
</g>
<rect x="213.8" y="15.8" width="0.5" height="23.1"/>
<g>
	<path d="M213.9,15.9c0-1.8,2.5-3.5,4.5-3.5c1.3,0,2.3,0.7,2.3,1.7c0,1.7-2.5,3.5-4.6,3.5C214.8,17.6,213.9,16.9,213.9,15.9z"/>
</g>
<rect x="227.4" y="10.8" width="0.5" height="26.4"/>
<g>
	<path d="M227.5,10.9c0-1.8,2.5-3.5,4.5-3.5c1.3,0,2.3,0.7,2.3,1.7c0,1.7-2.5,3.5-4.6,3.5C228.5,12.6,227.5,12,227.5,10.9z"/>
</g>
<rect x="255.6" y="20.7" width="0.5" height="16.4"/>
<g>
	<path d="M255.7,20.8c0-1.8,2.5-3.5,4.5-3.5c1.3,0,2.3,0.7,2.3,1.7c0,1.7-2.5,3.5-4.6,3.5C256.7,22.5,255.7,21.9,255.7,20.8z"/>
</g>
<rect x="269.4" y="15.8" width="0.5" height="19.8"/>
<g>
	<path d="M269.5,15.9c0-1.8,2.5-3.5,4.5-3.5c1.3,0,2.3,0.7,2.3,1.7c0,1.7-2.5,3.5-4.6,3.5C270.5,17.6,269.5,16.9,269.5,15.9z"/>
</g>
<rect x="283.2" y="10.8" width="0.5" height="23.1"/>
<g>
	<path d="M283.3,10.9c0-1.8,2.5-3.5,4.5-3.5c1.3,0,2.3,0.7,2.3,1.7c0,1.7-2.5,3.5-4.6,3.5C284.3,12.6,283.3,12,283.3,10.9z"/>
</g>
<rect x="295.2" y="7.2" width="10.5" height="0.8"/>
<rect x="295.2" y="2.2" width="10.5" height="0.8"/>
<rect x="297" y="3.4" width="0.5" height="28.8"/>
<g>
	<path d="M297.1,3.5c0-1.8,2.5-3.5,4.5-3.5c1.3,0,2.3,0.7,2.3,1.7c0,1.7-2.5,3.5-4.6,3.5C298.1,5.2,297.1,4.5,297.1,3.5z"/>
</g>
<rect x="308.9" y="7.2" width="10.5" height="0.8"/>
<rect x="308.9" y="2.2" width="10.5" height="0.8"/>
<rect x="310.7" y="3.4" width="0.5" height="28.8"/>
<g>
	<path d="M310.7,3.5c0-1.8,2.5-3.5,4.5-3.5c1.3,0,2.3,0.7,2.3,1.7c0,1.7-2.5,3.5-4.6,3.5C311.7,5.2,310.7,4.5,310.7,3.5z"/>
</g>
<rect x="324.5" y="10.8" width="0.5" height="22.9"/>
<g>
	<path d="M324.5,10.9c0-1.8,2.5-3.5,4.5-3.5c1.3,0,2.3,0.7,2.3,1.7c0,1.7-2.5,3.5-4.6,3.5C325.5,12.6,324.5,12,324.5,10.9z"/>
</g>
<rect x="338.3" y="15.8" width="0.5" height="19.7"/>
<g>
	<path d="M338.3,15.9c0-1.8,2.5-3.5,4.5-3.5c1.3,0,2.3,0.7,2.3,1.7c0,1.7-2.5,3.5-4.6,3.5C339.3,17.6,338.3,16.9,338.3,15.9z"/>
</g>
<rect x="352" y="20.7" width="0.5" height="16.4"/>
<g>
	<path d="M352.1,20.8c0-1.8,2.5-3.5,4.5-3.5c1.3,0,2.3,0.7,2.3,1.7c0,1.7-2.5,3.5-4.6,3.5C353.1,22.5,352.1,21.9,352.1,20.8z"/>
</g>
<rect x="380.3" y="10.8" width="0.5" height="26.4"/>
<g>
	<path d="M380.3,10.9c0-1.8,2.5-3.5,4.5-3.5c1.3,0,2.3,0.7,2.3,1.7c0,1.7-2.5,3.5-4.6,3.5C381.3,12.6,380.3,12,380.3,10.9z"/>
</g>
<rect x="394.1" y="15.8" width="0.5" height="22.9"/>
<g>
	<path d="M394.1,15.9c0-1.8,2.5-3.5,4.5-3.5c1.3,0,2.3,0.7,2.3,1.7c0,1.7-2.5,3.5-4.6,3.5C395.1,17.6,394.1,16.9,394.1,15.9z"/>
</g>
<rect x="407.7" y="20.7" width="0.5" height="19.7"/>
<g>
	<path d="M407.8,20.8c0-1.8,2.5-3.5,4.5-3.5c1.3,0,2.3,0.7,2.3,1.7c0,1.7-2.5,3.5-4.6,3.5C408.7,22.5,407.8,21.9,407.8,20.8z"/>
</g>
<rect x="421.5" y="28.2" width="0.5" height="14"/>
<g>
	<path d="M421.6,28.3c0-1.8,2.5-3.5,4.5-3.5c1.3,0,2.3,0.7,2.3,1.7c0,1.7-2.5,3.5-4.6,3.5C422.5,30,421.6,29.3,421.6,28.3z"/>
</g>
<rect x="441.8" y="1.5" width="0.5" height="12.7"/>
<g>
	<path d="M435.4,15.9c0-1.8,2.5-3.5,4.5-3.5c1.3,0,2.3,0.7,2.3,1.7c0,1.7-2.5,3.5-4.6,3.5C436.3,17.6,435.4,16.9,435.4,15.9z"/>
</g>
<rect x="455.6" y="3.1" width="0.5" height="16.1"/>
<g>
	<path d="M449.2,20.8c0-1.8,2.5-3.5,4.5-3.5c1.3,0,2.3,0.7,2.3,1.7c0,1.7-2.5,3.5-4.6,3.5C450.1,22.5,449.2,21.9,449.2,20.8z"/>
</g>
<rect x="469.2" y="4.8" width="0.5" height="21.9"/>
<g>
	<path d="M462.8,28.3c0-1.8,2.5-3.5,4.5-3.5c1.3,0,2.3,0.7,2.3,1.7c0,1.7-2.5,3.5-4.6,3.5C463.8,30,462.8,29.3,462.8,28.3z"/>
</g>
<rect x="483" y="6.5" width="0.5" height="25.1"/>
<g>
	<path d="M476.6,33.2c0-1.8,2.5-3.5,4.5-3.5c1.3,0,2.3,0.7,2.3,1.7c0,1.7-2.5,3.5-4.6,3.5C477.6,34.9,476.6,34.3,476.6,33.2z"/>
</g>
<rect x="496.8" y="6.5" width="0.5" height="12.7"/>
<g>
	<path d="M490.4,20.8c0-1.8,2.5-3.5,4.5-3.5c1.3,0,2.3,0.7,2.3,1.7c0,1.7-2.5,3.5-4.6,3.5C491.4,22.5,490.4,21.9,490.4,20.8z"/>
</g>
<rect x="510.6" y="8" width="0.5" height="18.6"/>
<g>
	<path d="M504.2,28.3c0-1.8,2.5-3.5,4.5-3.5c1.3,0,2.3,0.7,2.3,1.7c0,1.7-2.5,3.5-4.6,3.5C505.2,30,504.2,29.3,504.2,28.3z"/>
</g>
<rect x="524.3" y="9.7" width="0.5" height="21.9"/>
<g>
	<path d="M517.8,33.2c0-1.8,2.5-3.5,4.5-3.5c1.3,0,2.3,0.7,2.3,1.7c0,1.7-2.5,3.5-4.6,3.5C518.8,34.9,517.8,34.3,517.8,33.2z"/>
</g>
<rect x="529.8" y="36.9" width="10.5" height="0.8"/>
<rect x="538.1" y="11.4" width="0.5" height="25.1"/>
<g>
	<path d="M531.6,38.2c0-1.8,2.5-3.5,4.5-3.5c1.3,0,2.3,0.7,2.3,1.7c0,1.7-2.5,3.5-4.6,3.5C532.6,39.9,531.6,39.3,531.6,38.2z"/>
</g>
<rect x="76.1" y="74.7" width="0.5" height="12.7"/>
<g>
	<path d="M76.2,74.8c0-1.8,2.5-3.5,4.5-3.5c1.3,0,2.3,0.7,2.3,1.7c0,1.7-2.5,3.5-4.6,3.5C77.2,76.5,76.2,75.8,76.2,74.8z"/>
</g>
<rect x="89.9" y="69.7" width="0.5" height="16.1"/>
<g>
	<path d="M90,69.8c0-1.8,2.5-3.5,4.5-3.5c1.3,0,2.3,0.7,2.3,1.7c0,1.7-2.5,3.5-4.6,3.5C91,71.5,90,70.9,90,69.8z"/>
</g>
<rect x="103.7" y="64.8" width="0.5" height="19.4"/>
<g>
	<path d="M103.8,64.8c0-1.8,2.5-3.5,4.5-3.5c1.3,0,2.3,0.7,2.3,1.7c0,1.7-2.5,3.5-4.6,3.5C104.8,66.6,103.8,65.9,103.8,64.8z"/>
</g>
<rect x="115.6" y="56.2" width="10.5" height="0.8"/>
<rect x="117.4" y="57.3" width="0.5" height="25.1"/>
<g>
	<path d="M117.4,57.4c0-1.8,2.5-3.5,4.5-3.5c1.3,0,2.3,0.7,2.3,1.7c0,1.7-2.5,3.5-4.6,3.5C118.4,59.1,117.4,58.5,117.4,57.4z"/>
</g>
<rect x="131.2" y="69.7" width="0.5" height="16.4"/>
<g>
	<path d="M131.2,69.8c0-1.8,2.5-3.5,4.5-3.5c1.3,0,2.3,0.7,2.3,1.7c0,1.7-2.5,3.5-4.6,3.5C132.2,71.5,131.2,70.9,131.2,69.8z"/>
</g>
<rect x="144.9" y="64.8" width="0.5" height="19.8"/>
<g>
	<path d="M145,64.8c0-1.8,2.5-3.5,4.5-3.5c1.3,0,2.3,0.7,2.3,1.7c0,1.7-2.5,3.5-4.6,3.5C146,66.6,145,65.9,145,64.8z"/>
</g>
<rect x="157" y="56.2" width="10.5" height="0.8"/>
<rect x="158.7" y="57.3" width="0.5" height="25.6"/>
<g>
	<path d="M158.8,57.4c0-1.8,2.5-3.5,4.5-3.5c1.3,0,2.3,0.7,2.3,1.7c0,1.7-2.5,3.5-4.6,3.5C159.8,59.1,158.8,58.5,158.8,57.4z"/>
</g>
<rect x="170.6" y="56.2" width="10.5" height="0.8"/>
<rect x="170.6" y="51.2" width="10.5" height="0.8"/>
<rect x="172.4" y="52.4" width="0.5" height="28.8"/>
<g>
	<path d="M172.5,52.4c0-1.8,2.5-3.5,4.5-3.5c1.3,0,2.3,0.7,2.3,1.7c0,1.7-2.5,3.5-4.6,3.5C173.4,54.2,172.5,53.5,172.5,52.4z"/>
</g>
<rect x="186.2" y="64.8" width="0.5" height="16.4"/>
<g>
	<path d="M186.3,64.8c0-1.8,2.5-3.5,4.5-3.5c1.3,0,2.3,0.7,2.3,1.7c0,1.7-2.5,3.5-4.6,3.5C187.2,66.6,186.3,65.9,186.3,64.8z"/>
</g>
<rect x="198.2" y="56.2" width="10.5" height="0.8"/>
<rect x="200" y="57.3" width="0.5" height="22.3"/>
<g>
	<path d="M200.1,57.4c0-1.8,2.5-3.5,4.5-3.5c1.3,0,2.3,0.7,2.3,1.7c0,1.7-2.5,3.5-4.6,3.5C201,59.1,200.1,58.5,200.1,57.4z"/>
</g>
<rect x="212" y="56.2" width="10.5" height="0.8"/>
<rect x="212" y="51.2" width="10.5" height="0.8"/>
<rect x="213.8" y="52.4" width="0.5" height="25.6"/>
<g>
	<path d="M213.9,52.4c0-1.8,2.5-3.5,4.5-3.5c1.3,0,2.3,0.7,2.3,1.7c0,1.7-2.5,3.5-4.6,3.5C214.8,54.2,213.9,53.5,213.9,52.4z"/>
</g>
<rect x="225.6" y="56.2" width="10.5" height="0.8"/>
<rect x="225.6" y="51.2" width="10.5" height="0.8"/>
<rect x="225.6" y="46.2" width="10.5" height="0.8"/>
<rect x="227.4" y="47.4" width="0.5" height="28.8"/>
<g>
	<path d="M227.5,47.5c0-1.8,2.5-3.5,4.5-3.5c1.3,0,2.3,0.7,2.3,1.7c0,1.7-2.5,3.5-4.6,3.5C228.5,49.2,227.5,48.6,227.5,47.5z"/>
</g>
<rect x="253.8" y="85.9" width="10.5" height="0.8"/>
<rect x="262.1" y="60.4" width="0.5" height="25.1"/>
<g>
	<path d="M255.7,87.2c0-1.8,2.5-3.5,4.5-3.5c1.3,0,2.3,0.7,2.3,1.7c0,1.7-2.5,3.5-4.6,3.5C256.7,88.9,255.7,88.2,255.7,87.2z"/>
</g>
<rect x="275.9" y="58.9" width="0.5" height="21.7"/>
<g>
	<path d="M269.5,82.2c0-1.8,2.5-3.5,4.5-3.5c1.3,0,2.3,0.7,2.3,1.7c0,1.7-2.5,3.5-4.6,3.5C270.5,83.9,269.5,83.3,269.5,82.2z"/>
</g>
<rect x="289.7" y="57.2" width="0.5" height="18.4"/>
<g>
	<path d="M283.3,77.2c0-1.8,2.5-3.5,4.5-3.5c1.3,0,2.3,0.7,2.3,1.7c0,1.7-2.5,3.5-4.6,3.5C284.3,79,283.3,78.3,283.3,77.2z"/>
</g>
<rect x="303.5" y="55.5" width="0.5" height="12.7"/>
<g>
	<path d="M297.1,69.8c0-1.8,2.5-3.5,4.5-3.5c1.3,0,2.3,0.7,2.3,1.7c0,1.7-2.5,3.5-4.6,3.5C298.1,71.5,297.1,70.9,297.1,69.8z"/>
</g>
<rect x="317.2" y="55.5" width="0.5" height="12.7"/>
<g>
	<path d="M310.7,69.8c0-1.8,2.5-3.5,4.5-3.5c1.3,0,2.3,0.7,2.3,1.7c0,1.7-2.5,3.5-4.6,3.5C311.7,71.5,310.7,70.9,310.7,69.8z"/>
</g>
<rect x="331" y="57" width="0.5" height="18.6"/>
<g>
	<path d="M324.5,77.2c0-1.8,2.5-3.5,4.5-3.5c1.3,0,2.3,0.7,2.3,1.7c0,1.7-2.5,3.5-4.6,3.5C325.5,79,324.5,78.3,324.5,77.2z"/>
</g>
<rect x="344.8" y="58.7" width="0.5" height="21.9"/>
<g>
	<path d="M338.3,82.2c0-1.8,2.5-3.5,4.5-3.5c1.3,0,2.3,0.7,2.3,1.7c0,1.7-2.5,3.5-4.6,3.5C339.3,83.9,338.3,83.3,338.3,82.2z"/>
</g>
<rect x="350.3" y="85.9" width="10.5" height="0.8"/>
<rect x="358.6" y="60.4" width="0.5" height="25.1"/>
<g>
	<path d="M352.1,87.2c0-1.8,2.5-3.5,4.5-3.5c1.3,0,2.3,0.7,2.3,1.7c0,1.7-2.5,3.5-4.6,3.5C353.1,88.9,352.1,88.2,352.1,87.2z"/>
</g>
<rect x="378.5" y="56.2" width="10.5" height="0.8"/>
<rect x="378.5" y="51.2" width="10.5" height="0.8"/>
<rect x="378.5" y="46.2" width="10.5" height="0.8"/>
<rect x="380.3" y="47.4" width="0.5" height="28.8"/>
<g>
	<path d="M380.3,47.5c0-1.8,2.5-3.5,4.5-3.5c1.3,0,2.3,0.7,2.3,1.7c0,1.7-2.5,3.5-4.6,3.5C381.3,49.2,380.3,48.6,380.3,47.5z"/>
</g>
<rect x="392.3" y="56.2" width="10.5" height="0.8"/>
<rect x="392.3" y="51.2" width="10.5" height="0.8"/>
<rect x="394.1" y="52.4" width="0.5" height="25.4"/>
<g>
	<path d="M394.1,52.4c0-1.8,2.5-3.5,4.5-3.5c1.3,0,2.3,0.7,2.3,1.7c0,1.7-2.5,3.5-4.6,3.5C395.1,54.2,394.1,53.5,394.1,52.4z"/>
</g>
<rect x="405.9" y="56.2" width="10.5" height="0.8"/>
<rect x="407.7" y="57.3" width="0.5" height="22.2"/>
<g>
	<path d="M407.8,57.4c0-1.8,2.5-3.5,4.5-3.5c1.3,0,2.3,0.7,2.3,1.7c0,1.7-2.5,3.5-4.6,3.5C408.7,59.1,407.8,58.5,407.8,57.4z"/>
</g>
<rect x="421.5" y="64.8" width="0.5" height="16.4"/>
<g>
	<path d="M421.6,64.8c0-1.8,2.5-3.5,4.5-3.5c1.3,0,2.3,0.7,2.3,1.7c0,1.7-2.5,3.5-4.6,3.5C422.5,66.6,421.6,65.9,421.6,64.8z"/>
</g>
<rect x="433.5" y="56.2" width="10.5" height="0.8"/>
<rect x="433.5" y="51.2" width="10.5" height="0.8"/>
<rect x="435.3" y="52.4" width="0.5" height="28.8"/>
<g>
	<path d="M435.4,52.4c0-1.8,2.5-3.5,4.5-3.5c1.3,0,2.3,0.7,2.3,1.7c0,1.7-2.5,3.5-4.6,3.5C436.3,54.2,435.4,53.5,435.4,52.4z"/>
</g>
<rect x="447.3" y="56.2" width="10.5" height="0.8"/>
<rect x="449.1" y="57.3" width="0.5" height="25.4"/>
<g>
	<path d="M449.2,57.4c0-1.8,2.5-3.5,4.5-3.5c1.3,0,2.3,0.7,2.3,1.7c0,1.7-2.5,3.5-4.6,3.5C450.1,59.1,449.2,58.5,449.2,57.4z"/>
</g>
<rect x="462.7" y="64.8" width="0.5" height="19.7"/>
<g>
	<path d="M462.8,64.8c0-1.8,2.5-3.5,4.5-3.5c1.3,0,2.3,0.7,2.3,1.7c0,1.7-2.5,3.5-4.6,3.5C463.8,66.6,462.8,65.9,462.8,64.8z"/>
</g>
<rect x="476.5" y="69.7" width="0.5" height="16.4"/>
<g>
	<path d="M476.6,69.8c0-1.8,2.5-3.5,4.5-3.5c1.3,0,2.3,0.7,2.3,1.7c0,1.7-2.5,3.5-4.6,3.5C477.6,71.5,476.6,70.9,476.6,69.8z"/>
</g>
<rect x="488.5" y="56.2" width="10.5" height="0.8"/>
<rect x="490.3" y="57.3" width="0.5" height="25.1"/>
<g>
	<path d="M490.4,57.4c0-1.8,2.5-3.5,4.5-3.5c1.3,0,2.3,0.7,2.3,1.7c0,1.7-2.5,3.5-4.6,3.5C491.4,59.1,490.4,58.5,490.4,57.4z"/>
</g>
<rect x="504.1" y="64.8" width="0.5" height="19.2"/>
<g>
	<path d="M504.2,64.8c0-1.8,2.5-3.5,4.5-3.5c1.3,0,2.3,0.7,2.3,1.7c0,1.7-2.5,3.5-4.6,3.5C505.2,66.6,504.2,65.9,504.2,64.8z"/>
</g>
<rect x="517.8" y="69.7" width="0.5" height="16"/>
<g>
	<path d="M517.8,69.8c0-1.8,2.5-3.5,4.5-3.5c1.3,0,2.3,0.7,2.3,1.7c0,1.7-2.5,3.5-4.6,3.5C518.8,71.5,517.8,70.9,517.8,69.8z"/>
</g>
<rect x="531.6" y="74.7" width="0.5" height="12.7"/>
<g>
	<path d="M531.6,74.8c0-1.8,2.5-3.5,4.5-3.5c1.3,0,2.3,0.7,2.3,1.7c0,1.7-2.5,3.5-4.6,3.5C532.6,76.5,531.6,75.8,531.6,74.8z"/>
</g>
</svg>
