<?xml version="1.0" encoding="utf-8"?>

<!--
	ScaleBook
	Copyright (c) Leland Jansen 2015. All rights reserved.
-->

<!DOCTYPE svg PUBLIC "-//W3C//DTD SVG 1.1//EN" "http://www.w3.org/Graphics/SVG/1.1/DTD/svg11.dtd">
<svg version="1.1" id="Layer_1" xmlns="http://www.w3.org/2000/svg" xmlns:xlink="http://www.w3.org/1999/xlink" x="0px" y="0px"
	 viewBox="0 0 552.9 94.5" enable-background="new 0 0 552.9 94.5" xml:space="preserve">
<rect x="8.4" y="12.5" width="0.8" height="67"/>
<g>
	<path d="M7.4,13.2c-1.9,1.1-3.6,5.8-3.6,9.4c0,2.3,1.4,9.9,1.4,12.3c0,5-1.5,8.6-4.6,11.1c3,2.4,4.6,6.1,4.6,11.1
		c0,2.3-1.4,9.9-1.4,12.3c0,3.8,1.7,8.4,3.6,9.5v0.7c-3.5-2.3-5.8-8.2-5.8-13.1c0-2.1,1.7-9.4,1.7-11.5c0-3.8-1-6.6-2.9-8.2
		C0.1,46.4,0,46.2,0,46c0-0.2,0.1-0.4,0.5-0.7c1.9-1.7,2.9-4.2,2.9-7.6c0-2.1-1.7-10-1.7-12.2c0-5.2,2.1-10.4,5.8-13.1V13.2z"/>
</g>
<rect x="547.8" y="12.5" width="0.8" height="67"/>
<rect x="550.4" y="12.5" width="2.5" height="67"/>
<rect x="8.5" y="32.1" width="544.4" height="0.5"/>
<rect x="8.5" y="27.2" width="544.4" height="0.5"/>
<rect x="8.5" y="22.2" width="544.4" height="0.5"/>
<rect x="8.5" y="17.2" width="544.4" height="0.5"/>
<rect x="8.5" y="12.3" width="544.4" height="0.5"/>
<g>
	<path d="M20.3,32.2c-4.2,0-8.1-3.1-8.1-6.9c0-3.2,2.3-6.7,6.8-10.5c-0.3-1.2-0.4-2.4-0.4-3.6c0-3.5,1.2-6.8,3.2-8.5
		c1.8,2.5,2.7,4.9,2.7,7.1c0,2.9-1.3,5.6-4.3,8.1l0.9,4.2c0.5,0,0.8-0.1,0.8-0.1c2.6,0,4.8,2,4.8,4.7c0,1.9-1.4,3.7-3.6,4.8
		c0-0.1,0.9,3.8,0.9,4.3c0,2.5-2.3,4.2-4.9,4.2c-2,0-3.6-1.3-3.6-3.4c0-1.4,1-2.6,2.4-2.6c1.3,0,2.3,1.3,2.3,2.5
		c0,1.4-1.2,2.3-2.7,2.5c0.6,0.3,1.2,0.5,1.9,0.5c2.1,0,4.1-1.6,4.1-3.6c0-0.2,0-0.4-0.1-0.6l-0.8-3.7
		C21.9,32.1,21.2,32.2,20.3,32.2z M18.1,27c0,1,0.5,1.9,1.6,2.5c-1.8-0.3-3-1.4-3-3.1c0-2,1.7-3.7,3.8-4.1l-0.8-4
		C16,21.1,14,23.8,14,26.4c0,2.9,2.8,5.3,6,5.3c0.9,0,1.7-0.2,2.4-0.5L21,24.4C19.4,24.6,18.1,25.6,18.1,27z M22.1,5.6
		c-1.6,0-2.9,3.7-2.9,7c0,0.7,0,1.3,0.2,1.9c2.7-2.4,4-4.5,4-6.5c0-0.9-0.3-1.7-1-2.4C22.4,5.7,22.3,5.6,22.1,5.6z M24.9,27.5
		c0-1.6-1.2-3.3-2.9-3.3c-0.1,0-0.2,0-0.5,0l1.4,6.6C24.2,30,24.9,28.8,24.9,27.5z"/>
</g>
<g>
	<path d="M33.5,5.7v2.8l1-0.3V10l-1,0.3v3.4l1-0.3v1.8l-1,0.3v3.1H33v-3l-1.9,0.6v3h-0.5v-2.8l-1,0.3V15l1-0.3v-3.4l-1,0.3V9.8
		l1-0.3V6.3h0.5v3L33,8.7v-3H33.5z M33,10.5l-1.9,0.6v3.4l1.9-0.6V10.5z"/>
</g>
<g>
	<path d="M39.7,13.1V16l1-0.3v1.8l-1,0.3v3.4l1-0.3v1.8l-1,0.3v3.1h-0.5v-3l-1.9,0.6v3h-0.5v-2.8l-1,0.3v-1.8l1-0.3v-3.4l-1,0.3
		v-1.8l1-0.3v-3.1h0.5v3l1.9-0.6v-3H39.7z M39.2,17.9l-1.9,0.6V22l1.9-0.6V17.9z"/>
</g>
<g>
	<path d="M45.9,3.2v2.8l1-0.3v1.8l-1,0.3v3.4l1-0.3v1.8l-1,0.3v3.1h-0.5v-3l-1.9,0.6v3H43V14l-1,0.3v-1.8l1-0.3V8.8l-1,0.3V7.3L43,7
		V3.9h0.5v3l1.9-0.6v-3H45.9z M45.4,8l-1.9,0.6v3.4l1.9-0.6V8z"/>
</g>
<g>
	<path d="M52.1,10.7v2.8l1-0.3V15l-1,0.3v3.4l1-0.3v1.8l-1,0.3v3.1h-0.5v-3l-1.9,0.6v3h-0.5v-2.8l-1,0.3V20l1-0.3v-3.4l-1,0.3v-1.8
		l1-0.3v-3.1h0.5v3l1.9-0.6v-3H52.1z M51.6,15.4l-1.9,0.6v3.4l1.9-0.6V15.4z"/>
</g>
<g>
	<path d="M58.3,18.1v2.8l1-0.3v1.8l-1,0.3v3.4l1-0.3v1.8l-1,0.3v3.1h-0.5v-3l-1.9,0.6v3h-0.5v-2.8l-1,0.3v-1.8l1-0.3v-3.4l-1,0.3
		v-1.8l1-0.3v-3.1h0.5v3l1.9-0.6v-3H58.3z M57.8,22.9l-1.9,0.6v3.4l1.9-0.6V22.9z"/>
</g>
<g>
	<path d="M64.5,8.2V11l1-0.3v1.8l-1,0.3v3.4l1-0.3v1.8l-1,0.3v3.1H64v-3l-1.9,0.6v3h-0.5V19l-1,0.3v-1.8l1-0.3v-3.4l-1,0.3v-1.8
		l1-0.3V8.8h0.5v3l1.9-0.6v-3H64.5z M64,13l-1.9,0.6V17l1.9-0.6V13z"/>
</g>
<g>
	<path d="M70.7,15.6v2.8l1-0.3v1.8l-1,0.3v3.4l1-0.3v1.8l-1,0.3v3.1h-0.5v-3l-1.9,0.6v3h-0.5v-2.8l-1,0.3v-1.8l1-0.3v-3.4l-1,0.3
		v-1.8l1-0.3v-3.1h0.5v3l1.9-0.6v-3H70.7z M70.2,20.4L68.3,21v3.4l1.9-0.6V20.4z"/>
</g>
<polygon fill-rule="evenodd" clip-rule="evenodd" points="87.1,17.5 127.8,12.5 127.8,10 87.1,15 "/>
<polygon fill-rule="evenodd" clip-rule="evenodd" points="87.1,13.8 127.8,8.8 127.8,6.3 87.1,11.3 "/>
<polygon fill-rule="evenodd" clip-rule="evenodd" points="141.5,12.5 182.4,7.6 182.4,5.1 141.5,10 "/>
<polygon fill-rule="evenodd" clip-rule="evenodd" points="141.5,8.8 182.4,3.8 182.4,1.4 141.5,6.3 "/>
<polygon fill-rule="evenodd" clip-rule="evenodd" points="204.1,38.6 244.9,33.6 244.9,31.1 204.1,36.1 "/>
<polygon fill-rule="evenodd" clip-rule="evenodd" points="204.1,42.3 244.9,37.3 244.9,34.8 204.1,39.8 "/>
<polygon fill-rule="evenodd" clip-rule="evenodd" points="258.5,33.6 299.4,28.6 299.4,26.2 258.5,31.1 "/>
<polygon fill-rule="evenodd" clip-rule="evenodd" points="258.5,37.3 299.4,32.4 299.4,29.9 258.5,34.8 "/>
<polygon fill-rule="evenodd" clip-rule="evenodd" points="313.1,28.6 353.8,33.6 353.8,31.1 313.1,26.2 "/>
<polygon fill-rule="evenodd" clip-rule="evenodd" points="313.1,32.4 353.8,37.3 353.8,34.8 313.1,29.9 "/>
<polygon fill-rule="evenodd" clip-rule="evenodd" points="367.5,33.6 408.2,38.6 408.2,36.1 367.5,31.1 "/>
<polygon fill-rule="evenodd" clip-rule="evenodd" points="367.5,37.3 408.2,42.3 408.2,39.8 367.5,34.8 "/>
<polygon fill-rule="evenodd" clip-rule="evenodd" points="443,7.6 483.9,12.5 483.9,10 443,5.1 "/>
<polygon fill-rule="evenodd" clip-rule="evenodd" points="443,3.8 483.9,8.8 483.9,6.3 443,1.4 "/>
<polygon fill-rule="evenodd" clip-rule="evenodd" points="497.5,12.5 538.3,17.5 538.3,15 497.5,10 "/>
<polygon fill-rule="evenodd" clip-rule="evenodd" points="497.5,8.8 538.3,13.8 538.3,11.3 497.5,6.3 "/>
<rect x="8.5" y="79.3" width="544.4" height="0.5"/>
<rect x="8.5" y="74.3" width="544.4" height="0.5"/>
<rect x="8.5" y="69.3" width="544.4" height="0.5"/>
<rect x="8.5" y="64.4" width="544.4" height="0.5"/>
<rect x="8.5" y="59.4" width="544.4" height="0.5"/>
<g>
	<path d="M15.7,73.8c2.9-2.6,4.7-6.1,4.7-9.2c0-2.5-1.4-4.4-3.7-4.4c-1.6,0-3.4,1.3-3.4,2.7c0,0.2,0,0.3,0.1,0.3
		c-0.1,0,0.6-0.6,1.4-0.6c0.9,0,1.5,0.8,1.5,1.7c0,1.2-0.9,2.2-2.1,2.2c-1.2,0-2.1-1.3-2.1-2.8c0-2.3,2.3-4.1,4.8-4.1
		c4.7,0,5.9,3.2,5.9,5.8c0,1.6-0.4,2.9-2,5.3C19.1,73.8,14.6,76,13,76c-0.4,0-0.6-0.2-0.6-0.5C13.8,75.1,14.9,74.5,15.7,73.8z
		 M25.7,61.1c0.6,0,1,0.4,1,1c0,0.6-0.4,1-1,1s-1-0.4-1-1C24.7,61.6,25.1,61.1,25.7,61.1z M25.7,66.1c0.6,0,1,0.4,1,1
		c0,0.6-0.4,1-1,1s-1-0.4-1-1C24.7,66.5,25.1,66.1,25.7,66.1z"/>
</g>
<g>
	<path d="M33.5,57.8v2.8l1-0.3v1.8l-1,0.3v3.4l1-0.3v1.8l-1,0.3v3.1H33v-3l-1.9,0.6v3h-0.5v-2.8l-1,0.3v-1.8l1-0.3v-3.4l-1,0.3v-1.8
		l1-0.3v-3.1h0.5v3l1.9-0.6v-3H33.5z M33,62.6l-1.9,0.6v3.4L33,66V62.6z"/>
</g>
<g>
	<path d="M39.7,65.2v2.8l1-0.3v1.8l-1,0.3v3.4l1-0.3v1.8l-1,0.3v3.1h-0.5v-3l-1.9,0.6v3h-0.5V76l-1,0.3v-1.8l1-0.3v-3.4l-1,0.3v-1.8
		l1-0.3v-3.1h0.5v3l1.9-0.6v-3H39.7z M39.2,70l-1.9,0.6v3.4l1.9-0.6V70z"/>
</g>
<g>
	<path d="M45.9,55.3v2.8l1-0.3v1.8l-1,0.3v3.4l1-0.3v1.8l-1,0.3v3.1h-0.5v-3L43.5,66v3H43v-2.8l-1,0.3v-1.8l1-0.3v-3.4l-1,0.3v-1.8
		l1-0.3v-3.1h0.5v3l1.9-0.6v-3H45.9z M45.4,60.1l-1.9,0.6v3.4l1.9-0.6V60.1z"/>
</g>
<g>
	<path d="M52.1,62.7v2.8l1-0.3V67l-1,0.3v3.4l1-0.3v1.8l-1,0.3v3.1h-0.5v-3l-1.9,0.6v3h-0.5v-2.8l-1,0.3v-1.8l1-0.3v-3.4l-1,0.3
		v-1.8l1-0.3v-3.1h0.5v3l1.9-0.6v-3H52.1z M51.6,67.5l-1.9,0.6v3.4l1.9-0.6V67.5z"/>
</g>
<g>
	<path d="M58.3,70.2V73l1-0.3v1.8l-1,0.3v3.4l1-0.3v1.8l-1,0.3v3.1h-0.5v-3l-1.9,0.6v3h-0.5V81l-1,0.3v-1.8l1-0.3v-3.4l-1,0.3v-1.8
		l1-0.3v-3.1h0.5v3l1.9-0.6v-3H58.3z M57.8,75l-1.9,0.6V79l1.9-0.6V75z"/>
</g>
<g>
	<path d="M64.5,60.3v2.8l1-0.3v1.8l-1,0.3v3.4l1-0.3v1.8l-1,0.3v3.1H64v-3l-1.9,0.6v3h-0.5V71l-1,0.3v-1.8l1-0.3v-3.4l-1,0.3v-1.8
		l1-0.3v-3.1h0.5v3l1.9-0.6v-3H64.5z M64,65l-1.9,0.6v3.4l1.9-0.6V65z"/>
</g>
<g>
	<path d="M70.7,67.7v2.8l1-0.3V72l-1,0.3v3.4l1-0.3v1.8l-1,0.3v3.1h-0.5v-3l-1.9,0.6v3h-0.5v-2.8l-1,0.3V77l1-0.3v-3.4l-1,0.3v-1.8
		l1-0.3v-3.1h0.5v3l1.9-0.6v-3H70.7z M70.2,72.5l-1.9,0.6v3.4l1.9-0.6V72.5z"/>
</g>
<polygon fill-rule="evenodd" clip-rule="evenodd" points="80.5,82 121.3,77 121.3,74.5 80.5,79.5 "/>
<polygon fill-rule="evenodd" clip-rule="evenodd" points="80.5,85.7 121.3,80.7 121.3,78.2 80.5,83.2 "/>
<g>
	<path d="M196.1,78.1c-3.2,0-6.1-2.3-6.1-5.1c0-2.4,1.7-5,5.1-7.9c-0.2-0.9-0.3-1.8-0.3-2.7c0-2.6,0.9-5.1,2.4-6.3
		c1.4,1.9,2,3.7,2,5.3c0,2.2-1,4.2-3.2,6.1l0.7,3.1c0.4,0,0.6,0,0.6,0c2,0,3.6,1.5,3.6,3.5c0,1.4-1.1,2.8-2.7,3.6
		c0-0.1,0.6,2.8,0.6,3.3c0,1.9-1.7,3.2-3.7,3.2c-1.5,0-2.7-1-2.7-2.5c0-1.1,0.7-1.9,1.8-1.9c1,0,1.7,1,1.7,1.9c0,1-0.9,1.7-2,1.8
		c0.4,0.2,0.9,0.3,1.4,0.3c1.6,0,3.1-1.2,3.1-2.7c0-0.1,0-0.3,0-0.5l-0.6-2.8C197.3,78,196.8,78.1,196.1,78.1z M194.4,74.2
		c0,0.8,0.4,1.4,1.2,1.9c-1.3-0.2-2.2-1.1-2.2-2.3c0-1.5,1.3-2.8,2.9-3.1l-0.6-3c-2.8,2.1-4.3,4.1-4.3,6.1c0,2.2,2.1,4,4.5,4
		c0.7,0,1.3-0.1,1.8-0.4l-1.1-5.1C195.4,72.4,194.4,73.2,194.4,74.2z M197.5,58.2c-1.2,0-2.2,2.8-2.2,5.3c0,0.5,0,1,0.1,1.4
		c2-1.8,3-3.4,3-4.9c0-0.7-0.3-1.3-0.7-1.8C197.6,58.2,197.6,58.2,197.5,58.2z M199.5,74.6c0-1.2-0.9-2.4-2.2-2.4c0,0-0.2,0-0.4,0
		l1.1,5C199,76.5,199.5,75.6,199.5,74.6z"/>
</g>
<polygon fill-rule="evenodd" clip-rule="evenodd" points="135,80.7 175.9,75.8 175.9,73.3 135,78.2 "/>
<polygon fill-rule="evenodd" clip-rule="evenodd" points="135,84.4 175.9,79.5 175.9,77 135,82 "/>
<polygon fill-rule="evenodd" clip-rule="evenodd" points="210.6,70.8 251.4,65.8 251.4,63.4 210.6,68.3 "/>
<polygon fill-rule="evenodd" clip-rule="evenodd" points="210.6,67.1 251.4,62.1 251.4,59.6 210.6,64.6 "/>
<polygon fill-rule="evenodd" clip-rule="evenodd" points="265,64.6 305.9,59.6 305.9,57.2 265,62.1 "/>
<polygon fill-rule="evenodd" clip-rule="evenodd" points="265,60.9 305.9,55.9 305.9,53.4 265,58.4 "/>
<polygon fill-rule="evenodd" clip-rule="evenodd" points="319.6,59.6 360.3,64.6 360.3,62.1 319.6,57.2 "/>
<polygon fill-rule="evenodd" clip-rule="evenodd" points="319.6,55.9 360.3,60.9 360.3,58.4 319.6,53.4 "/>
<g>
	<path d="M425,71.5c2.2-2,3.6-4.6,3.6-6.9c0-1.9-1.1-3.3-2.8-3.3c-1.2,0-2.5,1-2.5,2.1c0,0.2,0,0.2,0.1,0.2c0,0,0.4-0.5,1-0.5
		c0.7,0,1.2,0.6,1.2,1.3c0,0.9-0.6,1.7-1.6,1.7s-1.5-1-1.5-2.1c0-1.8,1.7-3.1,3.6-3.1c3.5,0,4.4,2.4,4.4,4.4c0,1.2-0.3,2.2-1.5,4
		c-1.4,2.3-4.8,4-6,4c-0.3,0-0.5-0.1-0.5-0.3C423.6,72.5,424.4,72,425,71.5z M432.5,62c0.4,0,0.7,0.3,0.7,0.7c0,0.4-0.3,0.7-0.7,0.7
		c-0.4,0-0.7-0.3-0.7-0.7C431.7,62.3,432.1,62,432.5,62z M432.5,65.7c0.4,0,0.7,0.3,0.7,0.7s-0.3,0.7-0.7,0.7
		c-0.4,0-0.7-0.3-0.7-0.7S432.1,65.7,432.5,65.7z"/>
</g>
<polygon fill-rule="evenodd" clip-rule="evenodd" points="374,65.8 414.8,70.8 414.8,68.3 374,63.4 "/>
<polygon fill-rule="evenodd" clip-rule="evenodd" points="374,62.1 414.8,67.1 414.8,64.6 374,59.6 "/>
<polygon fill-rule="evenodd" clip-rule="evenodd" points="436.5,75.8 477.4,80.7 477.4,78.2 436.5,73.3 "/>
<polygon fill-rule="evenodd" clip-rule="evenodd" points="436.5,79.5 477.4,84.4 477.4,82 436.5,77 "/>
<polygon fill-rule="evenodd" clip-rule="evenodd" points="491,77 531.8,82 531.8,79.5 491,74.5 "/>
<polygon fill-rule="evenodd" clip-rule="evenodd" points="491,80.7 531.8,85.7 531.8,83.2 491,78.2 "/>
<rect x="78.5" y="36.9" width="10.5" height="0.8"/>
<rect x="86.8" y="11.4" width="0.5" height="25.1"/>
<g>
	<path d="M80.4,38.2c0-1.8,2.5-3.5,4.5-3.5c1.3,0,2.3,0.7,2.3,1.7c0,1.7-2.5,3.5-4.6,3.5C81.4,39.9,80.4,39.3,80.4,38.2z"/>
</g>
<rect x="100.5" y="9.9" width="0.5" height="21.7"/>
<g>
	<path d="M94,33.2c0-1.8,2.5-3.5,4.5-3.5c1.3,0,2.3,0.7,2.3,1.7c0,1.7-2.5,3.5-4.6,3.5C95,34.9,94,34.3,94,33.2z"/>
</g>
<rect x="114.1" y="8.2" width="0.5" height="18.4"/>
<g>
	<path d="M107.7,28.3c0-1.8,2.5-3.5,4.5-3.5c1.3,0,2.3,0.7,2.3,1.7c0,1.7-2.5,3.5-4.6,3.5C108.6,30,107.7,29.3,107.7,28.3z"/>
</g>
<rect x="127.6" y="6.5" width="0.5" height="12.7"/>
<g>
	<path d="M121.2,20.8c0-1.8,2.5-3.5,4.5-3.5c1.3,0,2.3,0.7,2.3,1.7c0,1.7-2.5,3.5-4.6,3.5C122.1,22.5,121.2,21.9,121.2,20.8z"/>
</g>
<rect x="141.2" y="6.5" width="0.5" height="25.1"/>
<g>
	<path d="M134.8,33.2c0-1.8,2.5-3.5,4.5-3.5c1.3,0,2.3,0.7,2.3,1.7c0,1.7-2.5,3.5-4.6,3.5C135.8,34.9,134.8,34.3,134.8,33.2z"/>
</g>
<rect x="154.9" y="4.9" width="0.5" height="21.7"/>
<g>
	<path d="M148.4,28.3c0-1.8,2.5-3.5,4.5-3.5c1.3,0,2.3,0.7,2.3,1.7c0,1.7-2.5,3.5-4.6,3.5C149.4,30,148.4,29.3,148.4,28.3z"/>
</g>
<rect x="168.5" y="3.2" width="0.5" height="16"/>
<g>
	<path d="M162.1,20.8c0-1.8,2.5-3.5,4.5-3.5c1.3,0,2.3,0.7,2.3,1.7c0,1.7-2.5,3.5-4.6,3.5C163.1,22.5,162.1,21.9,162.1,20.8z"/>
</g>
<rect x="182.2" y="1.5" width="0.5" height="12.7"/>
<g>
	<path d="M175.7,15.9c0-1.8,2.5-3.5,4.5-3.5c1.3,0,2.3,0.7,2.3,1.7c0,1.7-2.5,3.5-4.6,3.5C176.7,17.6,175.7,16.9,175.7,15.9z"/>
</g>
<rect x="203.9" y="28.2" width="0.5" height="14"/>
<g>
	<path d="M203.9,28.3c0-1.8,2.5-3.5,4.5-3.5c1.3,0,2.3,0.7,2.3,1.7c0,1.7-2.5,3.5-4.6,3.5C204.9,30,203.9,29.3,203.9,28.3z"/>
</g>
<rect x="217.5" y="20.7" width="0.5" height="19.8"/>
<g>
	<path d="M217.6,20.8c0-1.8,2.5-3.5,4.5-3.5c1.3,0,2.3,0.7,2.3,1.7c0,1.7-2.5,3.5-4.6,3.5C218.5,22.5,217.6,21.9,217.6,20.8z"/>
</g>
<rect x="231.1" y="15.8" width="0.5" height="23.1"/>
<g>
	<path d="M231.2,15.9c0-1.8,2.5-3.5,4.5-3.5c1.3,0,2.3,0.7,2.3,1.7c0,1.7-2.5,3.5-4.6,3.5C232.2,17.6,231.2,16.9,231.2,15.9z"/>
</g>
<rect x="244.6" y="10.8" width="0.5" height="26.4"/>
<g>
	<path d="M244.7,10.9c0-1.8,2.5-3.5,4.5-3.5c1.3,0,2.3,0.7,2.3,1.7c0,1.7-2.5,3.5-4.6,3.5C245.7,12.6,244.7,12,244.7,10.9z"/>
</g>
<rect x="258.3" y="20.7" width="0.5" height="16.4"/>
<g>
	<path d="M258.3,20.8c0-1.8,2.5-3.5,4.5-3.5c1.3,0,2.3,0.7,2.3,1.7c0,1.7-2.5,3.5-4.6,3.5C259.3,22.5,258.3,21.9,258.3,20.8z"/>
</g>
<rect x="271.9" y="15.8" width="0.5" height="19.8"/>
<g>
	<path d="M272,15.9c0-1.8,2.5-3.5,4.5-3.5c1.3,0,2.3,0.7,2.3,1.7c0,1.7-2.5,3.5-4.6,3.5C273,17.6,272,16.9,272,15.9z"/>
</g>
<rect x="285.5" y="10.8" width="0.5" height="23.1"/>
<g>
	<path d="M285.6,10.9c0-1.8,2.5-3.5,4.5-3.5c1.3,0,2.3,0.7,2.3,1.7c0,1.7-2.5,3.5-4.6,3.5C286.6,12.6,285.6,12,285.6,10.9z"/>
</g>
<rect x="297.4" y="7.2" width="10.5" height="0.8"/>
<rect x="297.4" y="2.2" width="10.5" height="0.8"/>
<rect x="299.2" y="3.4" width="0.5" height="28.8"/>
<g>
	<path d="M299.3,3.5c0-1.8,2.5-3.5,4.5-3.5c1.3,0,2.3,0.7,2.3,1.7c0,1.7-2.5,3.5-4.6,3.5C300.2,5.2,299.3,4.5,299.3,3.5z"/>
</g>
<rect x="311" y="7.2" width="10.5" height="0.8"/>
<rect x="311" y="2.2" width="10.5" height="0.8"/>
<rect x="312.8" y="3.4" width="0.5" height="28.8"/>
<g>
	<path d="M312.9,3.5c0-1.8,2.5-3.5,4.5-3.5c1.3,0,2.3,0.7,2.3,1.7c0,1.7-2.5,3.5-4.6,3.5C313.9,5.2,312.9,4.5,312.9,3.5z"/>
</g>
<rect x="326.3" y="10.8" width="0.5" height="22.9"/>
<g>
	<path d="M326.4,10.9c0-1.8,2.5-3.5,4.5-3.5c1.3,0,2.3,0.7,2.3,1.7c0,1.7-2.5,3.5-4.6,3.5C327.4,12.6,326.4,12,326.4,10.9z"/>
</g>
<rect x="340" y="15.8" width="0.5" height="19.7"/>
<g>
	<path d="M340,15.9c0-1.8,2.5-3.5,4.5-3.5c1.3,0,2.3,0.7,2.3,1.7c0,1.7-2.5,3.5-4.6,3.5C341,17.6,340,16.9,340,15.9z"/>
</g>
<rect x="353.6" y="20.7" width="0.5" height="16.4"/>
<g>
	<path d="M353.7,20.8c0-1.8,2.5-3.5,4.5-3.5c1.3,0,2.3,0.7,2.3,1.7c0,1.7-2.5,3.5-4.6,3.5C354.6,22.5,353.7,21.9,353.7,20.8z"/>
</g>
<rect x="367.2" y="10.8" width="0.5" height="26.4"/>
<g>
	<path d="M367.3,10.9c0-1.8,2.5-3.5,4.5-3.5c1.3,0,2.3,0.7,2.3,1.7c0,1.7-2.5,3.5-4.6,3.5C368.3,12.6,367.3,12,367.3,10.9z"/>
</g>
<rect x="380.9" y="15.8" width="0.5" height="22.9"/>
<g>
	<path d="M381,15.9c0-1.8,2.5-3.5,4.5-3.5c1.3,0,2.3,0.7,2.3,1.7c0,1.7-2.5,3.5-4.6,3.5C381.9,17.6,381,16.9,381,15.9z"/>
</g>
<rect x="394.4" y="20.7" width="0.5" height="19.7"/>
<g>
	<path d="M394.4,20.8c0-1.8,2.5-3.5,4.5-3.5c1.3,0,2.3,0.7,2.3,1.7c0,1.7-2.5,3.5-4.6,3.5C395.4,22.5,394.4,21.9,394.4,20.8z"/>
</g>
<rect x="408" y="28.2" width="0.5" height="14"/>
<g>
	<path d="M408.1,28.3c0-1.8,2.5-3.5,4.5-3.5c1.3,0,2.3,0.7,2.3,1.7c0,1.7-2.5,3.5-4.6,3.5C409.1,30,408.1,29.3,408.1,28.3z"/>
</g>
<rect x="442.7" y="1.5" width="0.5" height="12.7"/>
<g>
	<path d="M436.3,15.9c0-1.8,2.5-3.5,4.5-3.5c1.3,0,2.3,0.7,2.3,1.7c0,1.7-2.5,3.5-4.6,3.5C437.3,17.6,436.3,16.9,436.3,15.9z"/>
</g>
<rect x="456.4" y="3.1" width="0.5" height="16.1"/>
<g>
	<path d="M449.9,20.8c0-1.8,2.5-3.5,4.5-3.5c1.3,0,2.3,0.7,2.3,1.7c0,1.7-2.5,3.5-4.6,3.5C450.9,22.5,449.9,21.9,449.9,20.8z"/>
</g>
<rect x="470" y="4.8" width="0.5" height="21.9"/>
<g>
	<path d="M463.6,28.3c0-1.8,2.5-3.5,4.5-3.5c1.3,0,2.3,0.7,2.3,1.7c0,1.7-2.5,3.5-4.6,3.5C464.6,30,463.6,29.3,463.6,28.3z"/>
</g>
<rect x="483.7" y="6.5" width="0.5" height="25.1"/>
<g>
	<path d="M477.2,33.2c0-1.8,2.5-3.5,4.5-3.5c1.3,0,2.3,0.7,2.3,1.7c0,1.7-2.5,3.5-4.6,3.5C478.2,34.9,477.2,34.3,477.2,33.2z"/>
</g>
<rect x="497.3" y="6.5" width="0.5" height="12.7"/>
<g>
	<path d="M490.9,20.8c0-1.8,2.5-3.5,4.5-3.5c1.3,0,2.3,0.7,2.3,1.7c0,1.7-2.5,3.5-4.6,3.5C491.8,22.5,490.9,21.9,490.9,20.8z"/>
</g>
<rect x="510.8" y="8" width="0.5" height="18.6"/>
<g>
	<path d="M504.4,28.3c0-1.8,2.5-3.5,4.5-3.5c1.3,0,2.3,0.7,2.3,1.7c0,1.7-2.5,3.5-4.6,3.5C505.3,30,504.4,29.3,504.4,28.3z"/>
</g>
<rect x="524.4" y="9.7" width="0.5" height="21.9"/>
<g>
	<path d="M518,33.2c0-1.8,2.5-3.5,4.5-3.5c1.3,0,2.3,0.7,2.3,1.7c0,1.7-2.5,3.5-4.6,3.5C519,34.9,518,34.3,518,33.2z"/>
</g>
<rect x="529.8" y="36.9" width="10.5" height="0.8"/>
<rect x="538.1" y="11.4" width="0.5" height="25.1"/>
<g>
	<path d="M531.6,38.2c0-1.8,2.5-3.5,4.5-3.5c1.3,0,2.3,0.7,2.3,1.7c0,1.7-2.5,3.5-4.6,3.5C532.6,39.9,531.6,39.3,531.6,38.2z"/>
</g>
<rect x="80.3" y="72.8" width="0.5" height="12.7"/>
<g>
	<path d="M80.4,72.9c0-1.8,2.5-3.5,4.5-3.5c1.3,0,2.3,0.7,2.3,1.7c0,1.7-2.5,3.5-4.6,3.5C81.4,74.6,80.4,74,80.4,72.9z"/>
</g>
<rect x="94" y="67.9" width="0.5" height="16.1"/>
<g>
	<path d="M94,67.9c0-1.8,2.5-3.5,4.5-3.5c1.3,0,2.3,0.7,2.3,1.7c0,1.7-2.5,3.5-4.6,3.5C95,69.7,94,69,94,67.9z"/>
</g>
<rect x="107.6" y="62.9" width="0.5" height="19.4"/>
<g>
	<path d="M107.7,63c0-1.8,2.5-3.5,4.5-3.5c1.3,0,2.3,0.7,2.3,1.7c0,1.7-2.5,3.5-4.6,3.5C108.6,64.7,107.7,64.1,107.7,63z"/>
</g>
<rect x="119.3" y="54.3" width="10.5" height="0.8"/>
<rect x="121.1" y="55.5" width="0.5" height="25.1"/>
<g>
	<path d="M121.2,55.5c0-1.8,2.5-3.5,4.5-3.5c1.3,0,2.3,0.7,2.3,1.7c0,1.7-2.5,3.5-4.6,3.5C122.1,57.3,121.2,56.6,121.2,55.5z"/>
</g>
<rect x="134.7" y="67.9" width="0.5" height="16.4"/>
<g>
	<path d="M134.8,67.9c0-1.8,2.5-3.5,4.5-3.5c1.3,0,2.3,0.7,2.3,1.7c0,1.7-2.5,3.5-4.6,3.5C135.8,69.7,134.8,69,134.8,67.9z"/>
</g>
<rect x="148.4" y="62.9" width="0.5" height="19.8"/>
<g>
	<path d="M148.4,63c0-1.8,2.5-3.5,4.5-3.5c1.3,0,2.3,0.7,2.3,1.7c0,1.7-2.5,3.5-4.6,3.5C149.4,64.7,148.4,64.1,148.4,63z"/>
</g>
<rect x="160.2" y="54.3" width="10.5" height="0.8"/>
<rect x="162" y="55.5" width="0.5" height="25.6"/>
<g>
	<path d="M162.1,55.5c0-1.8,2.5-3.5,4.5-3.5c1.3,0,2.3,0.7,2.3,1.7c0,1.7-2.5,3.5-4.6,3.5C163.1,57.3,162.1,56.6,162.1,55.5z"/>
</g>
<rect x="173.9" y="54.3" width="10.5" height="0.8"/>
<rect x="173.9" y="49.3" width="10.5" height="0.8"/>
<rect x="175.6" y="50.5" width="0.5" height="28.8"/>
<g>
	<path d="M175.7,50.6c0-1.8,2.5-3.5,4.5-3.5c1.3,0,2.3,0.7,2.3,1.7c0,1.7-2.5,3.5-4.6,3.5C176.7,52.3,175.7,51.7,175.7,50.6z"/>
</g>
<rect x="202.1" y="84.1" width="10.5" height="0.8"/>
<rect x="202.1" y="89" width="10.5" height="0.8"/>
<rect x="210.4" y="64.8" width="0.5" height="26.4"/>
<g>
	<path d="M203.9,92.7c0-1.8,2.5-3.5,4.5-3.5c1.3,0,2.3,0.7,2.3,1.7c0,1.7-2.5,3.5-4.6,3.5C204.9,94.5,203.9,93.8,203.9,92.7z"/>
</g>
<rect x="215.7" y="84.1" width="10.5" height="0.8"/>
<rect x="224" y="63.2" width="0.5" height="20.5"/>
<g>
	<path d="M217.6,85.3c0-1.8,2.5-3.5,4.5-3.5c1.3,0,2.3,0.7,2.3,1.7c0,1.7-2.5,3.5-4.6,3.5C218.5,87,217.6,86.4,217.6,85.3z"/>
</g>
<rect x="237.6" y="61.5" width="0.5" height="17.2"/>
<g>
	<path d="M231.2,80.3c0-1.8,2.5-3.5,4.5-3.5c1.3,0,2.3,0.7,2.3,1.7c0,1.7-2.5,3.5-4.6,3.5C232.2,82.1,231.2,81.4,231.2,80.3z"/>
</g>
<rect x="251.1" y="59.8" width="0.5" height="14"/>
<g>
	<path d="M244.7,75.4c0-1.8,2.5-3.5,4.5-3.5c1.3,0,2.3,0.7,2.3,1.7c0,1.7-2.5,3.5-4.6,3.5C245.7,77.1,244.7,76.5,244.7,75.4z"/>
</g>
<rect x="256.5" y="84.1" width="10.5" height="0.8"/>
<rect x="264.8" y="58.6" width="0.5" height="25.1"/>
<g>
	<path d="M258.3,85.3c0-1.8,2.5-3.5,4.5-3.5c1.3,0,2.3,0.7,2.3,1.7c0,1.7-2.5,3.5-4.6,3.5C259.3,87,258.3,86.4,258.3,85.3z"/>
</g>
<rect x="278.4" y="57" width="0.5" height="21.7"/>
<g>
	<path d="M272,80.3c0-1.8,2.5-3.5,4.5-3.5c1.3,0,2.3,0.7,2.3,1.7c0,1.7-2.5,3.5-4.6,3.5C273,82.1,272,81.4,272,80.3z"/>
</g>
<rect x="292.1" y="55.3" width="0.5" height="18.4"/>
<g>
	<path d="M285.6,75.4c0-1.8,2.5-3.5,4.5-3.5c1.3,0,2.3,0.7,2.3,1.7c0,1.7-2.5,3.5-4.6,3.5C286.6,77.1,285.6,76.5,285.6,75.4z"/>
</g>
<rect x="305.7" y="53.6" width="0.5" height="12.7"/>
<g>
	<path d="M299.3,67.9c0-1.8,2.5-3.5,4.5-3.5c1.3,0,2.3,0.7,2.3,1.7c0,1.7-2.5,3.5-4.6,3.5C300.2,69.7,299.3,69,299.3,67.9z"/>
</g>
<rect x="319.3" y="53.6" width="0.5" height="12.7"/>
<g>
	<path d="M312.9,67.9c0-1.8,2.5-3.5,4.5-3.5c1.3,0,2.3,0.7,2.3,1.7c0,1.7-2.5,3.5-4.6,3.5C313.9,69.7,312.9,69,312.9,67.9z"/>
</g>
<rect x="332.8" y="55.1" width="0.5" height="18.6"/>
<g>
	<path d="M326.4,75.4c0-1.8,2.5-3.5,4.5-3.5c1.3,0,2.3,0.7,2.3,1.7c0,1.7-2.5,3.5-4.6,3.5C327.4,77.1,326.4,76.5,326.4,75.4z"/>
</g>
<rect x="346.5" y="56.9" width="0.5" height="21.9"/>
<g>
	<path d="M340,80.3c0-1.8,2.5-3.5,4.5-3.5c1.3,0,2.3,0.7,2.3,1.7c0,1.7-2.5,3.5-4.6,3.5C341,82.1,340,81.4,340,80.3z"/>
</g>
<rect x="351.8" y="84.1" width="10.5" height="0.8"/>
<rect x="360.1" y="58.6" width="0.5" height="25.1"/>
<g>
	<path d="M353.7,85.3c0-1.8,2.5-3.5,4.5-3.5c1.3,0,2.3,0.7,2.3,1.7c0,1.7-2.5,3.5-4.6,3.5C354.6,87,353.7,86.4,353.7,85.3z"/>
</g>
<rect x="373.8" y="59.8" width="0.5" height="14"/>
<g>
	<path d="M367.3,75.4c0-1.8,2.5-3.5,4.5-3.5c1.3,0,2.3,0.7,2.3,1.7c0,1.7-2.5,3.5-4.6,3.5C368.3,77.1,367.3,76.5,367.3,75.4z"/>
</g>
<rect x="387.4" y="61.3" width="0.5" height="17.4"/>
<g>
	<path d="M381,80.3c0-1.8,2.5-3.5,4.5-3.5c1.3,0,2.3,0.7,2.3,1.7c0,1.7-2.5,3.5-4.6,3.5C381.9,82.1,381,81.4,381,80.3z"/>
</g>
<rect x="392.6" y="84.1" width="10.5" height="0.8"/>
<rect x="400.9" y="63.1" width="0.5" height="20.6"/>
<g>
	<path d="M394.4,85.3c0-1.8,2.5-3.5,4.5-3.5c1.3,0,2.3,0.7,2.3,1.7c0,1.7-2.5,3.5-4.6,3.5C395.4,87,394.4,86.4,394.4,85.3z"/>
</g>
<rect x="406.2" y="84.1" width="10.5" height="0.8"/>
<rect x="406.2" y="89" width="10.5" height="0.8"/>
<rect x="414.5" y="64.8" width="0.5" height="26.4"/>
<g>
	<path d="M408.1,92.7c0-1.8,2.5-3.5,4.5-3.5c1.3,0,2.3,0.7,2.3,1.7c0,1.7-2.5,3.5-4.6,3.5C409.1,94.5,408.1,93.8,408.1,92.7z"/>
</g>
<rect x="434.4" y="54.3" width="10.5" height="0.8"/>
<rect x="434.4" y="49.3" width="10.5" height="0.8"/>
<rect x="436.2" y="50.5" width="0.5" height="28.8"/>
<g>
	<path d="M436.3,50.6c0-1.8,2.5-3.5,4.5-3.5c1.3,0,2.3,0.7,2.3,1.7c0,1.7-2.5,3.5-4.6,3.5C437.3,52.3,436.3,51.7,436.3,50.6z"/>
</g>
<rect x="448.1" y="54.3" width="10.5" height="0.8"/>
<rect x="449.9" y="55.5" width="0.5" height="25.4"/>
<g>
	<path d="M449.9,55.5c0-1.8,2.5-3.5,4.5-3.5c1.3,0,2.3,0.7,2.3,1.7c0,1.7-2.5,3.5-4.6,3.5C450.9,57.3,449.9,56.6,449.9,55.5z"/>
</g>
<rect x="463.5" y="62.9" width="0.5" height="19.7"/>
<g>
	<path d="M463.6,63c0-1.8,2.5-3.5,4.5-3.5c1.3,0,2.3,0.7,2.3,1.7c0,1.7-2.5,3.5-4.6,3.5C464.6,64.7,463.6,64.1,463.6,63z"/>
</g>
<rect x="477.1" y="67.9" width="0.5" height="16.4"/>
<g>
	<path d="M477.2,67.9c0-1.8,2.5-3.5,4.5-3.5c1.3,0,2.3,0.7,2.3,1.7c0,1.7-2.5,3.5-4.6,3.5C478.2,69.7,477.2,69,477.2,67.9z"/>
</g>
<rect x="489" y="54.3" width="10.5" height="0.8"/>
<rect x="490.8" y="55.5" width="0.5" height="25.1"/>
<g>
	<path d="M490.9,55.5c0-1.8,2.5-3.5,4.5-3.5c1.3,0,2.3,0.7,2.3,1.7c0,1.7-2.5,3.5-4.6,3.5C491.8,57.3,490.9,56.6,490.9,55.5z"/>
</g>
<rect x="504.3" y="62.9" width="0.5" height="19.2"/>
<g>
	<path d="M504.4,63c0-1.8,2.5-3.5,4.5-3.5c1.3,0,2.3,0.7,2.3,1.7c0,1.7-2.5,3.5-4.6,3.5C505.3,64.7,504.4,64.1,504.4,63z"/>
</g>
<rect x="517.9" y="67.9" width="0.5" height="16"/>
<g>
	<path d="M518,67.9c0-1.8,2.5-3.5,4.5-3.5c1.3,0,2.3,0.7,2.3,1.7c0,1.7-2.5,3.5-4.6,3.5C519,69.7,518,69,518,67.9z"/>
</g>
<rect x="531.6" y="72.8" width="0.5" height="12.7"/>
<g>
	<path d="M531.6,72.9c0-1.8,2.5-3.5,4.5-3.5c1.3,0,2.3,0.7,2.3,1.7c0,1.7-2.5,3.5-4.6,3.5C532.6,74.6,531.6,74,531.6,72.9z"/>
</g>
</svg>
