<?xml version="1.0" encoding="utf-8"?>

<!--
	ScaleBook
	Copyright (c) Leland Jansen 2015. All rights reserved.
-->

<!DOCTYPE svg PUBLIC "-//W3C//DTD SVG 1.1//EN" "http://www.w3.org/Graphics/SVG/1.1/DTD/svg11.dtd">
<svg version="1.1" id="Layer_1" xmlns="http://www.w3.org/2000/svg" xmlns:xlink="http://www.w3.org/1999/xlink" x="0px" y="0px"
	 viewBox="0 0 552.9 99.4" enable-background="new 0 0 552.9 99.4" xml:space="preserve">
<rect x="8.4" y="17.5" width="0.8" height="67"/>
<g>
	<path d="M7.4,18.1c-1.9,1.1-3.6,5.8-3.6,9.4c0,2.3,1.4,9.9,1.4,12.3c0,5-1.5,8.6-4.6,11.1c3,2.4,4.6,6.1,4.6,11.1
		c0,2.3-1.4,9.9-1.4,12.3c0,3.8,1.7,8.4,3.6,9.5v0.7c-3.5-2.3-5.8-8.2-5.8-13.1c0-2.1,1.7-9.4,1.7-11.5c0-3.8-1-6.6-2.9-8.2
		C0.1,51.4,0,51.2,0,51c0-0.2,0.1-0.4,0.5-0.7c1.9-1.7,2.9-4.2,2.9-7.6c0-2.1-1.7-10-1.7-12.2c0-5.2,2.1-10.4,5.8-13.1V18.1z"/>
</g>
<rect x="547.8" y="17.5" width="0.8" height="67"/>
<rect x="550.4" y="17.5" width="2.5" height="67"/>
<rect x="8.5" y="37.1" width="544.4" height="0.5"/>
<rect x="8.5" y="32.1" width="544.4" height="0.5"/>
<rect x="8.5" y="27.2" width="544.4" height="0.5"/>
<rect x="8.5" y="22.2" width="544.4" height="0.5"/>
<rect x="8.5" y="17.2" width="544.4" height="0.5"/>
<g>
	<path d="M20.3,37.2c-4.2,0-8.1-3.1-8.1-6.9c0-3.2,2.3-6.7,6.8-10.5c-0.3-1.2-0.4-2.4-0.4-3.6c0-3.5,1.2-6.8,3.2-8.5
		c1.8,2.5,2.7,4.9,2.7,7.1c0,2.9-1.3,5.6-4.3,8.1l0.9,4.2c0.5,0,0.8-0.1,0.8-0.1c2.6,0,4.8,2,4.8,4.7c0,1.9-1.4,3.7-3.6,4.8
		c0-0.1,0.9,3.8,0.9,4.3c0,2.5-2.3,4.2-4.9,4.2c-2,0-3.6-1.3-3.6-3.4c0-1.4,1-2.6,2.4-2.6c1.3,0,2.3,1.3,2.3,2.5
		c0,1.4-1.2,2.3-2.7,2.5c0.6,0.3,1.2,0.5,1.9,0.5c2.1,0,4.1-1.6,4.1-3.6c0-0.2,0-0.4-0.1-0.6l-0.8-3.7C21.9,37,21.2,37.2,20.3,37.2z
		 M18.1,31.9c0,1,0.5,1.9,1.6,2.5c-1.8-0.3-3-1.4-3-3.1c0-2,1.7-3.7,3.8-4.1l-0.8-4C16,26,14,28.7,14,31.4c0,2.9,2.8,5.3,6,5.3
		c0.9,0,1.7-0.2,2.4-0.5L21,29.3C19.4,29.6,18.1,30.6,18.1,31.9z M22.1,10.6c-1.6,0-2.9,3.7-2.9,7c0,0.7,0,1.3,0.2,1.9
		c2.7-2.4,4-4.5,4-6.5c0-0.9-0.3-1.7-1-2.4C22.4,10.6,22.3,10.6,22.1,10.6z M24.9,32.5c0-1.6-1.2-3.3-2.9-3.3c-0.1,0-0.2,0-0.5,0
		l1.4,6.6C24.2,34.9,24.9,33.8,24.9,32.5z"/>
</g>
<g>
	<path d="M29.5,19.1h0.6L30,25.3c0.4-0.7,1-1,1.8-1c1.2,0,2.2,0.8,2.2,1.9c0,0.8-0.5,1.8-1.7,2.7L29.5,31V19.1z M30.1,26
		C30,26.7,30,27.4,30,27.9c0,1,0,1.6,0.1,2c1-0.7,2.4-2.6,2.4-3.7c0-0.6-0.5-1.1-1.1-1.1C30.8,25.2,30.4,25.4,30.1,26z"/>
</g>
<g>
	<path d="M35.1,11.6h0.6l-0.1,6.2c0.4-0.7,1-1,1.8-1c1.2,0,2.2,0.8,2.2,1.9c0,0.8-0.5,1.8-1.7,2.7l-2.8,2.1V11.6z M35.7,18.6
		c-0.1,0.8-0.1,1.4-0.1,1.9c0,1,0,1.6,0.1,2c1-0.7,2.4-2.6,2.4-3.7c0-0.6-0.5-1.1-1.1-1.1C36.4,17.7,36,18,35.7,18.6z"/>
</g>
<g>
	<path d="M40.7,21.6h0.6l-0.1,6.2c0.4-0.7,1-1,1.8-1c1.2,0,2.2,0.8,2.2,1.9c0,0.8-0.5,1.8-1.7,2.7l-2.8,2.1V21.6z M41.3,28.5
		c-0.1,0.8-0.1,1.4-0.1,1.9c0,1,0,1.6,0.1,2c1-0.7,2.4-2.6,2.4-3.7c0-0.6-0.5-1.1-1.1-1.1C42,27.6,41.6,27.9,41.3,28.5z"/>
</g>
<polygon fill-rule="evenodd" clip-rule="evenodd" points="60.4,17.5 103.9,12.5 103.9,10 60.4,15 "/>
<polygon fill-rule="evenodd" clip-rule="evenodd" points="60.4,13.8 103.9,8.8 103.9,6.3 60.4,11.3 "/>
<polygon fill-rule="evenodd" clip-rule="evenodd" points="125.7,43.5 169.1,38.6 169.1,36.1 125.7,41 "/>
<polygon fill-rule="evenodd" clip-rule="evenodd" points="125.7,47.2 169.1,42.3 169.1,39.8 125.7,44.8 "/>
<polygon fill-rule="evenodd" clip-rule="evenodd" points="183.6,38.6 227.2,33.6 227.2,31.1 183.6,36.1 "/>
<polygon fill-rule="evenodd" clip-rule="evenodd" points="183.6,42.3 227.2,37.3 227.2,34.8 183.6,39.8 "/>
<polygon fill-rule="evenodd" clip-rule="evenodd" points="241.6,33.6 285.2,28.6 285.2,26.2 241.6,31.1 "/>
<polygon fill-rule="evenodd" clip-rule="evenodd" points="241.6,37.3 285.2,32.4 285.2,29.9 241.6,34.8 "/>
<polygon fill-rule="evenodd" clip-rule="evenodd" points="299.6,28.6 343.1,33.6 343.1,31.1 299.6,26.2 "/>
<polygon fill-rule="evenodd" clip-rule="evenodd" points="299.6,32.4 343.1,37.3 343.1,34.8 299.6,29.9 "/>
<polygon fill-rule="evenodd" clip-rule="evenodd" points="357.7,33.6 401.1,38.6 401.1,36.1 357.7,31.1 "/>
<polygon fill-rule="evenodd" clip-rule="evenodd" points="357.7,37.3 401.1,42.3 401.1,39.8 357.7,34.8 "/>
<polygon fill-rule="evenodd" clip-rule="evenodd" points="415.7,38.6 459.2,43.5 459.2,41 415.7,36.1 "/>
<polygon fill-rule="evenodd" clip-rule="evenodd" points="415.7,42.3 459.2,47.2 459.2,44.8 415.7,39.8 "/>
<polygon fill-rule="evenodd" clip-rule="evenodd" points="494,12.5 537.4,17.5 537.4,15 494,10 "/>
<polygon fill-rule="evenodd" clip-rule="evenodd" points="494,8.8 537.4,13.8 537.4,11.3 494,6.3 "/>
<rect x="8.5" y="84.2" width="544.4" height="0.5"/>
<rect x="8.5" y="79.2" width="544.4" height="0.5"/>
<rect x="8.5" y="74.3" width="544.4" height="0.5"/>
<rect x="8.5" y="69.3" width="544.4" height="0.5"/>
<rect x="8.5" y="64.4" width="544.4" height="0.5"/>
<g>
	<path d="M15.7,78.8c2.9-2.6,4.7-6.1,4.7-9.2c0-2.5-1.4-4.4-3.7-4.4c-1.6,0-3.4,1.3-3.4,2.7c0,0.2,0,0.3,0.1,0.3
		c-0.1,0,0.6-0.6,1.4-0.6c0.9,0,1.5,0.8,1.5,1.7c0,1.2-0.9,2.2-2.1,2.2c-1.2,0-2.1-1.3-2.1-2.8c0-2.3,2.3-4.1,4.8-4.1
		c4.7,0,5.9,3.2,5.9,5.8c0,1.6-0.4,2.9-2,5.3C19.1,78.7,14.6,81,13,81c-0.4,0-0.6-0.2-0.6-0.5C13.8,80.1,14.9,79.5,15.7,78.8z
		 M25.7,66.1c0.6,0,1,0.4,1,1c0,0.6-0.4,1-1,1s-1-0.4-1-1C24.7,66.5,25.1,66.1,25.7,66.1z M25.7,71c0.6,0,1,0.4,1,1c0,0.6-0.4,1-1,1
		s-1-0.4-1-1C24.7,71.5,25.1,71,25.7,71z"/>
</g>
<g>
	<path d="M29.5,71.2h0.6L30,77.4c0.4-0.7,1-1,1.8-1c1.2,0,2.2,0.8,2.2,1.9c0,0.8-0.5,1.8-1.7,2.7l-2.8,2.1V71.2z M30.1,78.1
		C30,78.8,30,79.5,30,80c0,1,0,1.6,0.1,2c1-0.7,2.4-2.6,2.4-3.7c0-0.6-0.5-1.1-1.1-1.1C30.8,77.2,30.4,77.5,30.1,78.1z"/>
</g>
<g>
	<path d="M35.1,63.7h0.6L35.6,70c0.4-0.7,1-1,1.8-1c1.2,0,2.2,0.8,2.2,1.9c0,0.8-0.5,1.8-1.7,2.7l-2.8,2.1V63.7z M35.7,70.6
		c-0.1,0.8-0.1,1.4-0.1,1.9c0,1,0,1.6,0.1,2c1-0.7,2.4-2.6,2.4-3.7c0-0.6-0.5-1.1-1.1-1.1C36.4,69.8,36,70.1,35.7,70.6z"/>
</g>
<g>
	<path d="M40.7,73.7h0.6l-0.1,6.2c0.4-0.7,1-1,1.8-1c1.2,0,2.2,0.8,2.2,1.9c0,0.8-0.5,1.8-1.7,2.7l-2.8,2.1V73.7z M41.3,80.6
		c-0.1,0.8-0.1,1.4-0.1,1.9c0,1,0,1.6,0.1,2c1-0.7,2.4-2.6,2.4-3.7c0-0.6-0.5-1.1-1.1-1.1C42,79.7,41.6,80,41.3,80.6z"/>
</g>
<g>
	<path d="M117.6,83.1c-3.2,0-6.1-2.3-6.1-5.1c0-2.4,1.7-5,5.1-7.9c-0.2-0.9-0.3-1.8-0.3-2.7c0-2.6,0.9-5.1,2.4-6.3
		c1.4,1.9,2,3.7,2,5.3c0,2.2-1,4.2-3.2,6.1l0.7,3.1c0.4,0,0.6,0,0.6,0c2,0,3.6,1.5,3.6,3.5c0,1.4-1.1,2.8-2.7,3.6
		c0-0.1,0.6,2.8,0.6,3.3c0,1.9-1.7,3.2-3.7,3.2c-1.5,0-2.7-1-2.7-2.5c0-1.1,0.7-1.9,1.8-1.9c1,0,1.7,1,1.7,1.9c0,1-0.9,1.7-2,1.8
		c0.4,0.2,0.9,0.3,1.4,0.3c1.6,0,3.1-1.2,3.1-2.7c0-0.1,0-0.3,0-0.5l-0.6-2.8C118.8,83,118.3,83.1,117.6,83.1z M116,79.2
		c0,0.8,0.4,1.4,1.2,1.9c-1.3-0.2-2.2-1.1-2.2-2.3c0-1.5,1.3-2.8,2.9-3.1l-0.6-3c-2.8,2.1-4.3,4.1-4.3,6.1c0,2.2,2.1,4,4.5,4
		c0.7,0,1.3-0.1,1.8-0.4l-1.1-5.1C116.9,77.4,116,78.1,116,79.2z M119,63.2c-1.2,0-2.2,2.8-2.2,5.3c0,0.5,0,1,0.1,1.4
		c2-1.8,3-3.4,3-4.9c0-0.7-0.3-1.3-0.7-1.8C119.2,63.2,119.1,63.2,119,63.2z M121.1,79.6c0-1.2-0.9-2.4-2.2-2.4c0,0-0.2,0-0.4,0
		l1.1,5C120.6,81.4,121.1,80.6,121.1,79.6z"/>
</g>
<polygon fill-rule="evenodd" clip-rule="evenodd" points="53.9,85.7 97.4,80.7 97.4,78.2 53.9,83.2 "/>
<polygon fill-rule="evenodd" clip-rule="evenodd" points="53.9,89.4 97.4,84.4 97.4,82 53.9,86.9 "/>
<polygon fill-rule="evenodd" clip-rule="evenodd" points="132.2,75.8 175.6,70.8 175.6,68.3 132.2,73.3 "/>
<polygon fill-rule="evenodd" clip-rule="evenodd" points="132.2,72 175.6,67.1 175.6,64.6 132.2,69.6 "/>
<polygon fill-rule="evenodd" clip-rule="evenodd" points="190.1,70.8 233.7,65.8 233.7,63.4 190.1,68.3 "/>
<polygon fill-rule="evenodd" clip-rule="evenodd" points="190.1,67.1 233.7,62.1 233.7,59.6 190.1,64.6 "/>
<polygon fill-rule="evenodd" clip-rule="evenodd" points="248.1,64.6 291.7,59.6 291.7,57.2 248.1,62.1 "/>
<polygon fill-rule="evenodd" clip-rule="evenodd" points="248.1,60.9 291.7,55.9 291.7,53.4 248.1,58.4 "/>
<polygon fill-rule="evenodd" clip-rule="evenodd" points="306.1,59.6 349.6,64.6 349.6,62.1 306.1,57.2 "/>
<polygon fill-rule="evenodd" clip-rule="evenodd" points="306.1,55.9 349.6,60.9 349.6,58.4 306.1,53.4 "/>
<polygon fill-rule="evenodd" clip-rule="evenodd" points="364.2,65.8 407.6,70.8 407.6,68.3 364.2,63.4 "/>
<polygon fill-rule="evenodd" clip-rule="evenodd" points="364.2,62.1 407.6,67.1 407.6,64.6 364.2,59.6 "/>
<g>
	<path d="M476,76.5c2.2-2,3.6-4.6,3.6-6.9c0-1.9-1.1-3.3-2.8-3.3c-1.2,0-2.5,1-2.5,2.1c0,0.2,0,0.2,0.1,0.2c0,0,0.4-0.5,1-0.5
		c0.7,0,1.2,0.6,1.2,1.3c0,0.9-0.6,1.7-1.6,1.7s-1.5-1-1.5-2.1c0-1.8,1.7-3.1,3.6-3.1c3.5,0,4.4,2.4,4.4,4.4c0,1.2-0.3,2.2-1.5,4
		c-1.4,2.3-4.8,4-6,4c-0.3,0-0.5-0.1-0.5-0.3C474.6,77.4,475.4,77,476,76.5z M483.5,67c0.4,0,0.7,0.3,0.7,0.7c0,0.4-0.3,0.7-0.7,0.7
		c-0.4,0-0.7-0.3-0.7-0.7C482.7,67.3,483.1,67,483.5,67z M483.5,70.7c0.4,0,0.7,0.3,0.7,0.7s-0.3,0.7-0.7,0.7
		c-0.4,0-0.7-0.3-0.7-0.7S483.1,70.7,483.5,70.7z"/>
</g>
<polygon fill-rule="evenodd" clip-rule="evenodd" points="422.2,70.8 465.8,75.8 465.8,73.3 422.2,68.3 "/>
<polygon fill-rule="evenodd" clip-rule="evenodd" points="422.2,67.1 465.8,72 465.8,69.6 422.2,64.6 "/>
<polygon fill-rule="evenodd" clip-rule="evenodd" points="487.5,80.7 530.9,85.7 530.9,83.2 487.5,78.2 "/>
<polygon fill-rule="evenodd" clip-rule="evenodd" points="487.5,84.4 530.9,89.4 530.9,86.9 487.5,82 "/>
<rect x="60.2" y="11.4" width="0.5" height="25.1"/>
<g>
	<path d="M53.7,38.2c0-1.8,2.5-3.5,4.5-3.5c1.3,0,2.3,0.7,2.3,1.7c0,1.7-2.5,3.5-4.6,3.5C54.7,39.9,53.7,39.3,53.7,38.2z"/>
</g>
<rect x="74.7" y="9.9" width="0.5" height="21.7"/>
<g>
	<path d="M68.3,33.2c0-1.8,2.5-3.5,4.5-3.5c1.3,0,2.3,0.7,2.3,1.7c0,1.7-2.5,3.5-4.6,3.5C69.3,34.9,68.3,34.3,68.3,33.2z"/>
</g>
<rect x="89.1" y="8.2" width="0.5" height="18.4"/>
<g>
	<path d="M82.7,28.3c0-1.8,2.5-3.5,4.5-3.5c1.3,0,2.3,0.7,2.3,1.7c0,1.7-2.5,3.5-4.6,3.5C83.7,30,82.7,29.3,82.7,28.3z"/>
</g>
<rect x="103.7" y="6.5" width="0.5" height="12.7"/>
<g>
	<path d="M97.3,20.8c0-1.8,2.5-3.5,4.5-3.5c1.3,0,2.3,0.7,2.3,1.7c0,1.7-2.5,3.5-4.6,3.5C98.3,22.5,97.3,21.9,97.3,20.8z"/>
</g>
<rect x="125.4" y="33.1" width="0.5" height="14"/>
<g>
	<path d="M125.5,33.2c0-1.8,2.5-3.5,4.5-3.5c1.3,0,2.3,0.7,2.3,1.7c0,1.7-2.5,3.5-4.6,3.5C126.5,34.9,125.5,34.3,125.5,33.2z"/>
</g>
<rect x="139.8" y="28.2" width="0.5" height="17.4"/>
<g>
	<path d="M139.9,28.3c0-1.8,2.5-3.5,4.5-3.5c1.3,0,2.3,0.7,2.3,1.7c0,1.7-2.5,3.5-4.6,3.5C140.9,30,139.9,29.3,139.9,28.3z"/>
</g>
<rect x="154.4" y="20.7" width="0.5" height="23.1"/>
<g>
	<path d="M154.5,20.8c0-1.8,2.5-3.5,4.5-3.5c1.3,0,2.3,0.7,2.3,1.7c0,1.7-2.5,3.5-4.6,3.5C155.5,22.5,154.5,21.9,154.5,20.8z"/>
</g>
<rect x="168.8" y="15.8" width="0.5" height="26.4"/>
<g>
	<path d="M168.9,15.9c0-1.8,2.5-3.5,4.5-3.5c1.3,0,2.3,0.7,2.3,1.7c0,1.7-2.5,3.5-4.6,3.5C169.9,17.6,168.9,16.9,168.9,15.9z"/>
</g>
<rect x="183.4" y="28.2" width="0.5" height="14"/>
<g>
	<path d="M183.5,28.3c0-1.8,2.5-3.5,4.5-3.5c1.3,0,2.3,0.7,2.3,1.7c0,1.7-2.5,3.5-4.6,3.5C184.4,30,183.5,29.3,183.5,28.3z"/>
</g>
<rect x="198" y="20.7" width="0.5" height="19.8"/>
<g>
	<path d="M198,20.8c0-1.8,2.5-3.5,4.5-3.5c1.3,0,2.3,0.7,2.3,1.7c0,1.7-2.5,3.5-4.6,3.5C199,22.5,198,21.9,198,20.8z"/>
</g>
<rect x="212.4" y="15.8" width="0.5" height="23.1"/>
<g>
	<path d="M212.5,15.9c0-1.8,2.5-3.5,4.5-3.5c1.3,0,2.3,0.7,2.3,1.7c0,1.7-2.5,3.5-4.6,3.5C213.4,17.6,212.5,16.9,212.5,15.9z"/>
</g>
<rect x="225.2" y="12.1" width="10.5" height="0.8"/>
<rect x="227" y="10.8" width="0.5" height="26.4"/>
<g>
	<path d="M227,10.9c0-1.8,2.5-3.5,4.5-3.5c1.3,0,2.3,0.7,2.3,1.7c0,1.7-2.5,3.5-4.6,3.5C228,12.6,227,12,227,10.9z"/>
</g>
<rect x="241.4" y="20.7" width="0.5" height="16.4"/>
<g>
	<path d="M241.4,20.8c0-1.8,2.5-3.5,4.5-3.5c1.3,0,2.3,0.7,2.3,1.7c0,1.7-2.5,3.5-4.6,3.5C242.4,22.5,241.4,21.9,241.4,20.8z"/>
</g>
<rect x="255.9" y="15.8" width="0.5" height="19.8"/>
<g>
	<path d="M256,15.9c0-1.8,2.5-3.5,4.5-3.5c1.3,0,2.3,0.7,2.3,1.7c0,1.7-2.5,3.5-4.6,3.5C257,17.6,256,16.9,256,15.9z"/>
</g>
<rect x="268.6" y="12.1" width="10.5" height="0.8"/>
<rect x="270.4" y="10.8" width="0.5" height="23.1"/>
<g>
	<path d="M270.4,10.9c0-1.8,2.5-3.5,4.5-3.5c1.3,0,2.3,0.7,2.3,1.7c0,1.7-2.5,3.5-4.6,3.5C271.4,12.6,270.4,12,270.4,10.9z"/>
</g>
<rect x="283.1" y="12.1" width="10.5" height="0.8"/>
<rect x="283.1" y="7.2" width="10.5" height="0.8"/>
<rect x="283.1" y="2.2" width="10.5" height="0.8"/>
<rect x="284.9" y="3.4" width="0.5" height="28.8"/>
<g>
	<path d="M285,3.5c0-1.8,2.5-3.5,4.5-3.5c1.3,0,2.3,0.7,2.3,1.7c0,1.7-2.5,3.5-4.6,3.5C286,5.2,285,4.5,285,3.5z"/>
</g>
<rect x="297.6" y="12.1" width="10.5" height="0.8"/>
<rect x="297.6" y="7.2" width="10.5" height="0.8"/>
<rect x="297.6" y="2.2" width="10.5" height="0.8"/>
<rect x="299.3" y="3.4" width="0.5" height="28.8"/>
<g>
	<path d="M299.4,3.5c0-1.8,2.5-3.5,4.5-3.5c1.3,0,2.3,0.7,2.3,1.7c0,1.7-2.5,3.5-4.6,3.5C300.4,5.2,299.4,4.5,299.4,3.5z"/>
</g>
<rect x="312.1" y="12.1" width="10.5" height="0.8"/>
<rect x="313.9" y="10.8" width="0.5" height="22.9"/>
<g>
	<path d="M314,10.9c0-1.8,2.5-3.5,4.5-3.5c1.3,0,2.3,0.7,2.3,1.7c0,1.7-2.5,3.5-4.6,3.5C315,12.6,314,12,314,10.9z"/>
</g>
<rect x="328.5" y="15.8" width="0.5" height="19.7"/>
<g>
	<path d="M328.6,15.9c0-1.8,2.5-3.5,4.5-3.5c1.3,0,2.3,0.7,2.3,1.7c0,1.7-2.5,3.5-4.6,3.5C329.5,17.6,328.6,16.9,328.6,15.9z"/>
</g>
<rect x="342.9" y="20.7" width="0.5" height="16.4"/>
<g>
	<path d="M343,20.8c0-1.8,2.5-3.5,4.5-3.5c1.3,0,2.3,0.7,2.3,1.7c0,1.7-2.5,3.5-4.6,3.5C344,22.5,343,21.9,343,20.8z"/>
</g>
<rect x="355.7" y="12.1" width="10.5" height="0.8"/>
<rect x="357.5" y="10.8" width="0.5" height="26.4"/>
<g>
	<path d="M357.6,10.9c0-1.8,2.5-3.5,4.5-3.5c1.3,0,2.3,0.7,2.3,1.7c0,1.7-2.5,3.5-4.6,3.5C358.5,12.6,357.6,12,357.6,10.9z"/>
</g>
<rect x="371.9" y="15.8" width="0.5" height="22.9"/>
<g>
	<path d="M372,15.9c0-1.8,2.5-3.5,4.5-3.5c1.3,0,2.3,0.7,2.3,1.7c0,1.7-2.5,3.5-4.6,3.5C372.9,17.6,372,16.9,372,15.9z"/>
</g>
<rect x="386.5" y="20.7" width="0.5" height="19.7"/>
<g>
	<path d="M386.5,20.8c0-1.8,2.5-3.5,4.5-3.5c1.3,0,2.3,0.7,2.3,1.7c0,1.7-2.5,3.5-4.6,3.5C387.5,22.5,386.5,21.9,386.5,20.8z"/>
</g>
<rect x="400.9" y="28.2" width="0.5" height="14"/>
<g>
	<path d="M401,28.3c0-1.8,2.5-3.5,4.5-3.5c1.3,0,2.3,0.7,2.3,1.7c0,1.7-2.5,3.5-4.6,3.5C401.9,30,401,29.3,401,28.3z"/>
</g>
<rect x="415.5" y="15.8" width="0.5" height="26.4"/>
<g>
	<path d="M415.5,15.9c0-1.8,2.5-3.5,4.5-3.5c1.3,0,2.3,0.7,2.3,1.7c0,1.7-2.5,3.5-4.6,3.5C416.5,17.6,415.5,16.9,415.5,15.9z"/>
</g>
<rect x="430" y="20.7" width="0.5" height="22.9"/>
<g>
	<path d="M430.1,20.8c0-1.8,2.5-3.5,4.5-3.5c1.3,0,2.3,0.7,2.3,1.7c0,1.7-2.5,3.5-4.6,3.5C431.1,22.5,430.1,21.9,430.1,20.8z"/>
</g>
<rect x="444.4" y="28.2" width="0.5" height="17.2"/>
<g>
	<path d="M444.5,28.3c0-1.8,2.5-3.5,4.5-3.5c1.3,0,2.3,0.7,2.3,1.7c0,1.7-2.5,3.5-4.6,3.5C445.5,30,444.5,29.3,444.5,28.3z"/>
</g>
<rect x="459" y="33.1" width="0.5" height="14"/>
<g>
	<path d="M459.1,33.2c0-1.8,2.5-3.5,4.5-3.5c1.3,0,2.3,0.7,2.3,1.7c0,1.7-2.5,3.5-4.6,3.5C460.1,34.9,459.1,34.3,459.1,33.2z"/>
</g>
<rect x="493.7" y="6.5" width="0.5" height="12.7"/>
<g>
	<path d="M487.3,20.8c0-1.8,2.5-3.5,4.5-3.5c1.3,0,2.3,0.7,2.3,1.7c0,1.7-2.5,3.5-4.6,3.5C488.3,22.5,487.3,21.9,487.3,20.8z"/>
</g>
<rect x="508.2" y="8" width="0.5" height="18.6"/>
<g>
	<path d="M501.7,28.3c0-1.8,2.5-3.5,4.5-3.5c1.3,0,2.3,0.7,2.3,1.7c0,1.7-2.5,3.5-4.6,3.5C502.7,30,501.7,29.3,501.7,28.3z"/>
</g>
<rect x="522.7" y="9.7" width="0.5" height="21.9"/>
<g>
	<path d="M516.3,33.2c0-1.8,2.5-3.5,4.5-3.5c1.3,0,2.3,0.7,2.3,1.7c0,1.7-2.5,3.5-4.6,3.5C517.3,34.9,516.3,34.3,516.3,33.2z"/>
</g>
<rect x="537.1" y="11.4" width="0.5" height="25.1"/>
<g>
	<path d="M530.7,38.2c0-1.8,2.5-3.5,4.5-3.5c1.3,0,2.3,0.7,2.3,1.7c0,1.7-2.5,3.5-4.6,3.5C531.7,39.9,530.7,39.3,530.7,38.2z"/>
</g>
<rect x="53.6" y="72.8" width="0.5" height="16.4"/>
<g>
	<path d="M53.7,72.9c0-1.8,2.5-3.5,4.5-3.5c1.3,0,2.3,0.7,2.3,1.7c0,1.7-2.5,3.5-4.6,3.5C54.7,74.6,53.7,74,53.7,72.9z"/>
</g>
<rect x="68.2" y="67.9" width="0.5" height="19.8"/>
<g>
	<path d="M68.3,67.9c0-1.8,2.5-3.5,4.5-3.5c1.3,0,2.3,0.7,2.3,1.7c0,1.7-2.5,3.5-4.6,3.5C69.3,69.7,68.3,69,68.3,67.9z"/>
</g>
<rect x="82.6" y="62.9" width="0.5" height="23.1"/>
<g>
	<path d="M82.7,63c0-1.8,2.5-3.5,4.5-3.5c1.3,0,2.3,0.7,2.3,1.7c0,1.7-2.5,3.5-4.6,3.5C83.7,64.7,82.7,64.1,82.7,63z"/>
</g>
<rect x="95.4" y="59.3" width="10.5" height="0.8"/>
<rect x="95.4" y="54.3" width="10.5" height="0.8"/>
<rect x="97.2" y="55.5" width="0.5" height="28.8"/>
<g>
	<path d="M97.3,55.5c0-1.8,2.5-3.5,4.5-3.5c1.3,0,2.3,0.7,2.3,1.7c0,1.7-2.5,3.5-4.6,3.5C98.3,57.3,97.3,56.6,97.3,55.5z"/>
</g>
<rect x="123.6" y="89" width="10.5" height="0.8"/>
<rect x="123.6" y="94" width="10.5" height="0.8"/>
<rect x="131.9" y="69.7" width="0.5" height="26.4"/>
<g>
	<path d="M125.5,97.7c0-1.8,2.5-3.5,4.5-3.5c1.3,0,2.3,0.7,2.3,1.7c0,1.7-2.5,3.5-4.6,3.5C126.5,99.4,125.5,98.8,125.5,97.7z"/>
</g>
<rect x="138.1" y="89" width="10.5" height="0.8"/>
<rect x="146.3" y="68.2" width="0.5" height="22.9"/>
<g>
	<path d="M139.9,92.7c0-1.8,2.5-3.5,4.5-3.5c1.3,0,2.3,0.7,2.3,1.7c0,1.7-2.5,3.5-4.6,3.5C140.9,94.5,139.9,93.8,139.9,92.7z"/>
</g>
<rect x="160.9" y="66.5" width="0.5" height="17.2"/>
<g>
	<path d="M154.5,85.3c0-1.8,2.5-3.5,4.5-3.5c1.3,0,2.3,0.7,2.3,1.7c0,1.7-2.5,3.5-4.6,3.5C155.5,87,154.5,86.4,154.5,85.3z"/>
</g>
<rect x="175.3" y="64.8" width="0.5" height="14"/>
<g>
	<path d="M168.9,80.3c0-1.8,2.5-3.5,4.5-3.5c1.3,0,2.3,0.7,2.3,1.7c0,1.7-2.5,3.5-4.6,3.5C169.9,82.1,168.9,81.4,168.9,80.3z"/>
</g>
<rect x="181.6" y="89" width="10.5" height="0.8"/>
<rect x="189.9" y="64.8" width="0.5" height="26.4"/>
<g>
	<path d="M183.5,92.7c0-1.8,2.5-3.5,4.5-3.5c1.3,0,2.3,0.7,2.3,1.7c0,1.7-2.5,3.5-4.6,3.5C184.4,94.5,183.5,93.8,183.5,92.7z"/>
</g>
<rect x="204.5" y="63.2" width="0.5" height="20.5"/>
<g>
	<path d="M198,85.3c0-1.8,2.5-3.5,4.5-3.5c1.3,0,2.3,0.7,2.3,1.7c0,1.7-2.5,3.5-4.6,3.5C199,87,198,86.4,198,85.3z"/>
</g>
<rect x="218.9" y="61.5" width="0.5" height="17.2"/>
<g>
	<path d="M212.5,80.3c0-1.8,2.5-3.5,4.5-3.5c1.3,0,2.3,0.7,2.3,1.7c0,1.7-2.5,3.5-4.6,3.5C213.4,82.1,212.5,81.4,212.5,80.3z"/>
</g>
<rect x="233.5" y="59.8" width="0.5" height="14"/>
<g>
	<path d="M227,75.4c0-1.8,2.5-3.5,4.5-3.5c1.3,0,2.3,0.7,2.3,1.7c0,1.7-2.5,3.5-4.6,3.5C228,77.1,227,76.5,227,75.4z"/>
</g>
<rect x="247.9" y="58.6" width="0.5" height="25.1"/>
<g>
	<path d="M241.4,85.3c0-1.8,2.5-3.5,4.5-3.5c1.3,0,2.3,0.7,2.3,1.7c0,1.7-2.5,3.5-4.6,3.5C242.4,87,241.4,86.4,241.4,85.3z"/>
</g>
<rect x="262.5" y="57" width="0.5" height="21.7"/>
<g>
	<path d="M256,80.3c0-1.8,2.5-3.5,4.5-3.5c1.3,0,2.3,0.7,2.3,1.7c0,1.7-2.5,3.5-4.6,3.5C257,82.1,256,81.4,256,80.3z"/>
</g>
<rect x="276.9" y="55.3" width="0.5" height="18.4"/>
<g>
	<path d="M270.4,75.4c0-1.8,2.5-3.5,4.5-3.5c1.3,0,2.3,0.7,2.3,1.7c0,1.7-2.5,3.5-4.6,3.5C271.4,77.1,270.4,76.5,270.4,75.4z"/>
</g>
<rect x="291.4" y="53.6" width="0.5" height="12.7"/>
<g>
	<path d="M285,67.9c0-1.8,2.5-3.5,4.5-3.5c1.3,0,2.3,0.7,2.3,1.7c0,1.7-2.5,3.5-4.6,3.5C286,69.7,285,69,285,67.9z"/>
</g>
<rect x="305.9" y="53.6" width="0.5" height="12.7"/>
<g>
	<path d="M299.4,67.9c0-1.8,2.5-3.5,4.5-3.5c1.3,0,2.3,0.7,2.3,1.7c0,1.7-2.5,3.5-4.6,3.5C300.4,69.7,299.4,69,299.4,67.9z"/>
</g>
<rect x="320.4" y="55.1" width="0.5" height="18.6"/>
<g>
	<path d="M314,75.4c0-1.8,2.5-3.5,4.5-3.5c1.3,0,2.3,0.7,2.3,1.7c0,1.7-2.5,3.5-4.6,3.5C315,77.1,314,76.5,314,75.4z"/>
</g>
<rect x="335" y="56.9" width="0.5" height="21.9"/>
<g>
	<path d="M328.6,80.3c0-1.8,2.5-3.5,4.5-3.5c1.3,0,2.3,0.7,2.3,1.7c0,1.7-2.5,3.5-4.6,3.5C329.5,82.1,328.6,81.4,328.6,80.3z"/>
</g>
<rect x="349.4" y="58.6" width="0.5" height="25.1"/>
<g>
	<path d="M343,85.3c0-1.8,2.5-3.5,4.5-3.5c1.3,0,2.3,0.7,2.3,1.7c0,1.7-2.5,3.5-4.6,3.5C344,87,343,86.4,343,85.3z"/>
</g>
<rect x="364" y="59.8" width="0.5" height="14"/>
<g>
	<path d="M357.6,75.4c0-1.8,2.5-3.5,4.5-3.5c1.3,0,2.3,0.7,2.3,1.7c0,1.7-2.5,3.5-4.6,3.5C358.5,77.1,357.6,76.5,357.6,75.4z"/>
</g>
<rect x="378.4" y="61.3" width="0.5" height="17.4"/>
<g>
	<path d="M372,80.3c0-1.8,2.5-3.5,4.5-3.5c1.3,0,2.3,0.7,2.3,1.7c0,1.7-2.5,3.5-4.6,3.5C372.9,82.1,372,81.4,372,80.3z"/>
</g>
<rect x="393" y="63.1" width="0.5" height="20.6"/>
<g>
	<path d="M386.5,85.3c0-1.8,2.5-3.5,4.5-3.5c1.3,0,2.3,0.7,2.3,1.7c0,1.7-2.5,3.5-4.6,3.5C387.5,87,386.5,86.4,386.5,85.3z"/>
</g>
<rect x="399.1" y="89" width="10.5" height="0.8"/>
<rect x="407.4" y="64.8" width="0.5" height="26.4"/>
<g>
	<path d="M401,92.7c0-1.8,2.5-3.5,4.5-3.5c1.3,0,2.3,0.7,2.3,1.7c0,1.7-2.5,3.5-4.6,3.5C401.9,94.5,401,93.8,401,92.7z"/>
</g>
<rect x="422" y="64.8" width="0.5" height="14"/>
<g>
	<path d="M415.5,80.3c0-1.8,2.5-3.5,4.5-3.5c1.3,0,2.3,0.7,2.3,1.7c0,1.7-2.5,3.5-4.6,3.5C416.5,82.1,415.5,81.4,415.5,80.3z"/>
</g>
<rect x="436.5" y="66.3" width="0.5" height="17.4"/>
<g>
	<path d="M430.1,85.3c0-1.8,2.5-3.5,4.5-3.5c1.3,0,2.3,0.7,2.3,1.7c0,1.7-2.5,3.5-4.6,3.5C431.1,87,430.1,86.4,430.1,85.3z"/>
</g>
<rect x="442.7" y="89" width="10.5" height="0.8"/>
<rect x="451" y="68" width="0.5" height="23.1"/>
<g>
	<path d="M444.5,92.7c0-1.8,2.5-3.5,4.5-3.5c1.3,0,2.3,0.7,2.3,1.7c0,1.7-2.5,3.5-4.6,3.5C445.5,94.5,444.5,93.8,444.5,92.7z"/>
</g>
<rect x="457.2" y="89" width="10.5" height="0.8"/>
<rect x="457.2" y="94" width="10.5" height="0.8"/>
<rect x="465.5" y="69.7" width="0.5" height="26.4"/>
<g>
	<path d="M459.1,97.7c0-1.8,2.5-3.5,4.5-3.5c1.3,0,2.3,0.7,2.3,1.7c0,1.7-2.5,3.5-4.6,3.5C460.1,99.4,459.1,98.8,459.1,97.7z"/>
</g>
<rect x="485.4" y="59.3" width="10.5" height="0.8"/>
<rect x="485.4" y="54.3" width="10.5" height="0.8"/>
<rect x="487.2" y="55.5" width="0.5" height="28.8"/>
<g>
	<path d="M487.3,55.5c0-1.8,2.5-3.5,4.5-3.5c1.3,0,2.3,0.7,2.3,1.7c0,1.7-2.5,3.5-4.6,3.5C488.3,57.3,487.3,56.6,487.3,55.5z"/>
</g>
<rect x="501.6" y="62.9" width="0.5" height="22.9"/>
<g>
	<path d="M501.7,63c0-1.8,2.5-3.5,4.5-3.5c1.3,0,2.3,0.7,2.3,1.7c0,1.7-2.5,3.5-4.6,3.5C502.7,64.7,501.7,64.1,501.7,63z"/>
</g>
<rect x="516.2" y="67.9" width="0.5" height="19.7"/>
<g>
	<path d="M516.3,67.9c0-1.8,2.5-3.5,4.5-3.5c1.3,0,2.3,0.7,2.3,1.7c0,1.7-2.5,3.5-4.6,3.5C517.3,69.7,516.3,69,516.3,67.9z"/>
</g>
<rect x="530.6" y="72.8" width="0.5" height="16.4"/>
<g>
	<path d="M530.7,72.9c0-1.8,2.5-3.5,4.5-3.5c1.3,0,2.3,0.7,2.3,1.7c0,1.7-2.5,3.5-4.6,3.5C531.7,74.6,530.7,74,530.7,72.9z"/>
</g>
</svg>
