<?xml version="1.0" encoding="utf-8"?>

<!--
	ScaleBook
	Copyright (c) Leland Jansen 2015. All rights reserved.
-->

<!DOCTYPE svg PUBLIC "-//W3C//DTD SVG 1.1//EN" "http://www.w3.org/Graphics/SVG/1.1/DTD/svg11.dtd">
<svg version="1.1" id="Layer_1" xmlns="http://www.w3.org/2000/svg" xmlns:xlink="http://www.w3.org/1999/xlink" x="0px" y="0px"
	 viewBox="0 0 553 88.4" enable-background="new 0 0 553 88.4" xml:space="preserve">
<rect x="8.5" y="9.9" width="0.8" height="68.5"/>
<g>
	<path d="M7.6,10.6c-2,1.1-3.7,5.9-3.7,9.7c0,2.3,1.4,10.1,1.4,12.5c0,5.1-1.6,8.8-4.7,11.4c3.1,2.5,4.7,6.2,4.7,11.3
		c0,2.3-1.4,10.1-1.4,12.5c0,3.9,1.8,8.6,3.7,9.7v0.7C4,76.1,1.7,70,1.7,65.1c0-2.2,1.8-9.6,1.8-11.8c0-3.9-1-6.7-3-8.4
		C0.1,44.6,0,44.4,0,44.2s0.1-0.4,0.5-0.7c2-1.7,3-4.3,3-7.7c0-2.2-1.8-10.3-1.8-12.5c0-5.3,2.1-10.6,5.9-13.4V10.6z"/>
</g>
<rect x="548" y="9.9" width="0.8" height="68.5"/>
<rect x="550.5" y="9.9" width="2.5" height="68.5"/>
<rect x="8.6" y="29.5" width="544.4" height="0.5"/>
<rect x="8.6" y="24.6" width="544.4" height="0.5"/>
<rect x="8.6" y="19.6" width="544.4" height="0.5"/>
<rect x="8.6" y="14.6" width="544.4" height="0.5"/>
<rect x="8.6" y="9.7" width="544.4" height="0.5"/>
<g>
	<path d="M20.4,29.6c-4.2,0-8.1-3.1-8.1-6.9c0-3.2,2.3-6.7,6.8-10.5c-0.3-1.2-0.4-2.4-0.4-3.6c0-3.5,1.2-6.8,3.2-8.5
		c1.8,2.5,2.7,4.9,2.7,7.1c0,2.9-1.3,5.6-4.3,8.1l0.9,4.2c0.5,0,0.8-0.1,0.8-0.1c2.6,0,4.8,2,4.8,4.7c0,1.9-1.4,3.7-3.6,4.8
		c0-0.1,0.9,3.8,0.9,4.3c0,2.5-2.3,4.2-4.9,4.2c-2,0-3.6-1.3-3.6-3.4c0-1.4,1-2.6,2.4-2.6c1.3,0,2.3,1.3,2.3,2.5
		c0,1.4-1.2,2.3-2.7,2.5c0.6,0.3,1.2,0.5,1.9,0.5c2.1,0,4.1-1.6,4.1-3.6c0-0.2,0-0.4-0.1-0.6l-0.8-3.7
		C22.1,29.5,21.4,29.6,20.4,29.6z M18.2,24.4c0,1,0.5,1.9,1.6,2.5c-1.8-0.3-3-1.4-3-3.1c0-2,1.7-3.7,3.8-4.1l-0.8-4
		c-3.7,2.8-5.7,5.5-5.7,8.1c0,2.9,2.8,5.3,6,5.3c0.9,0,1.7-0.2,2.4-0.5l-1.4-6.8C19.5,22,18.2,23,18.2,24.4z M22.3,3
		c-1.6,0-2.9,3.7-2.9,7c0,0.7,0,1.3,0.2,1.9c2.7-2.4,4-4.5,4-6.5c0-0.9-0.3-1.7-1-2.4C22.5,3.1,22.4,3,22.3,3z M25,24.9
		c0-1.6-1.2-3.3-2.9-3.3c-0.1,0-0.2,0-0.5,0l1.4,6.6C24.4,27.4,25,26.2,25,24.9z"/>
</g>
<g>
	<path d="M33.6,3.1v2.8l1-0.3v1.8l-1,0.3v3.4l1-0.3v1.8l-1,0.3v3.1h-0.5v-3l-1.9,0.6v3h-0.5v-2.8l-1,0.3v-1.8l1-0.3V8.7l-1,0.3V7.2
		l1-0.3V3.7h0.5v3l1.9-0.6v-3H33.6z M33.1,7.9l-1.9,0.6v3.4l1.9-0.6V7.9z"/>
</g>
<polygon fill-rule="evenodd" clip-rule="evenodd" points="50,21.1 97.1,16.1 97.1,13.6 50,18.6 "/>
<polygon fill-rule="evenodd" clip-rule="evenodd" points="50,17.4 97.1,12.4 97.1,9.9 50,14.9 "/>
<polygon fill-rule="evenodd" clip-rule="evenodd" points="112.8,16.1 159.9,11.2 159.9,8.7 112.8,13.6 "/>
<polygon fill-rule="evenodd" clip-rule="evenodd" points="112.8,12.4 159.9,7.4 159.9,5 112.8,9.9 "/>
<polygon fill-rule="evenodd" clip-rule="evenodd" points="175.6,11.2 222.5,6.2 222.5,3.7 175.6,8.7 "/>
<polygon fill-rule="evenodd" clip-rule="evenodd" points="175.6,7.4 222.5,2.5 222.5,0 175.6,5 "/>
<polygon fill-rule="evenodd" clip-rule="evenodd" points="231.8,36 278.8,31 278.8,28.5 231.8,33.5 "/>
<polygon fill-rule="evenodd" clip-rule="evenodd" points="231.8,39.7 278.8,34.7 278.8,32.2 231.8,37.2 "/>
<polygon fill-rule="evenodd" clip-rule="evenodd" points="294.6,31 341.6,36 341.6,33.5 294.6,28.5 "/>
<polygon fill-rule="evenodd" clip-rule="evenodd" points="294.6,34.7 341.6,39.7 341.6,37.2 294.6,32.2 "/>
<polygon fill-rule="evenodd" clip-rule="evenodd" points="363.8,6.2 410.9,11.2 410.9,8.7 363.8,3.7 "/>
<polygon fill-rule="evenodd" clip-rule="evenodd" points="363.8,2.5 410.9,7.4 410.9,5 363.8,0 "/>
<polygon fill-rule="evenodd" clip-rule="evenodd" points="426.5,11.2 473.7,16.1 473.7,13.6 426.5,8.7 "/>
<polygon fill-rule="evenodd" clip-rule="evenodd" points="426.5,7.4 473.7,12.4 473.7,9.9 426.5,5 "/>
<polygon fill-rule="evenodd" clip-rule="evenodd" points="489.3,16.1 536.4,21.1 536.4,18.6 489.3,13.6 "/>
<polygon fill-rule="evenodd" clip-rule="evenodd" points="489.3,12.4 536.4,17.4 536.4,14.9 489.3,9.9 "/>
<rect x="8.6" y="78.2" width="544.4" height="0.5"/>
<rect x="8.6" y="73.2" width="544.4" height="0.5"/>
<rect x="8.6" y="68.3" width="544.4" height="0.5"/>
<rect x="8.6" y="63.3" width="544.4" height="0.5"/>
<rect x="8.6" y="58.4" width="544.4" height="0.5"/>
<g>
	<path d="M15.9,72.8c2.9-2.6,4.7-6.1,4.7-9.2c0-2.5-1.4-4.4-3.7-4.4c-1.6,0-3.4,1.3-3.4,2.7c0,0.2,0,0.3,0.1,0.3
		c-0.1,0,0.6-0.6,1.4-0.6c0.9,0,1.5,0.8,1.5,1.7c0,1.2-0.9,2.2-2.1,2.2c-1.2,0-2.1-1.3-2.1-2.8c0-2.3,2.3-4.1,4.8-4.1
		c4.7,0,5.9,3.2,5.9,5.8c0,1.6-0.4,2.9-2,5.3c-1.9,3.1-6.4,5.3-8.1,5.3c-0.4,0-0.6-0.2-0.6-0.5C14,74,15.1,73.5,15.9,72.8z
		 M25.8,60.1c0.6,0,1,0.4,1,1c0,0.6-0.4,1-1,1s-1-0.4-1-1C24.8,60.5,25.3,60.1,25.8,60.1z M25.8,65c0.6,0,1,0.4,1,1c0,0.6-0.4,1-1,1
		s-1-0.4-1-1C24.8,65.5,25.3,65,25.8,65z"/>
</g>
<g>
	<path d="M33.6,56.7v2.8l1-0.3V61l-1,0.3v3.4l1-0.3v1.8l-1,0.3v3.1h-0.5v-3l-1.9,0.6v3h-0.5v-2.8l-1,0.3v-1.8l1-0.3v-3.4l-1,0.3
		v-1.8l1-0.3v-3.1h0.5v3l1.9-0.6v-3H33.6z M33.1,61.5l-1.9,0.6v3.4l1.9-0.6V61.5z"/>
</g>
<polygon fill-rule="evenodd" clip-rule="evenodd" points="50,58.6 97.1,53.6 97.1,51.2 50,56.1 "/>
<polygon fill-rule="evenodd" clip-rule="evenodd" points="50,54.9 97.1,49.9 97.1,47.4 50,52.4 "/>
<polygon fill-rule="evenodd" clip-rule="evenodd" points="106.3,84.6 153.4,79.7 153.4,77.2 106.3,82.2 "/>
<polygon fill-rule="evenodd" clip-rule="evenodd" points="106.3,88.4 153.4,83.4 153.4,80.9 106.3,85.9 "/>
<polygon fill-rule="evenodd" clip-rule="evenodd" points="169.1,79.7 216,74.7 216,72.2 169.1,77.2 "/>
<polygon fill-rule="evenodd" clip-rule="evenodd" points="169.1,83.4 216,78.4 216,76 169.1,80.9 "/>
<polygon fill-rule="evenodd" clip-rule="evenodd" points="231.8,74.7 278.8,69.8 278.8,67.3 231.8,72.2 "/>
<polygon fill-rule="evenodd" clip-rule="evenodd" points="231.8,78.4 278.8,73.5 278.8,71 231.8,76 "/>
<polygon fill-rule="evenodd" clip-rule="evenodd" points="294.6,69.8 341.6,74.7 341.6,72.2 294.6,67.3 "/>
<polygon fill-rule="evenodd" clip-rule="evenodd" points="294.6,73.5 341.6,78.4 341.6,76 294.6,71 "/>
<polygon fill-rule="evenodd" clip-rule="evenodd" points="357.2,74.7 404.4,79.7 404.4,77.2 357.2,72.2 "/>
<polygon fill-rule="evenodd" clip-rule="evenodd" points="357.2,78.4 404.4,83.4 404.4,80.9 357.2,76 "/>
<polygon fill-rule="evenodd" clip-rule="evenodd" points="420,79.7 467.1,84.6 467.1,82.2 420,77.2 "/>
<polygon fill-rule="evenodd" clip-rule="evenodd" points="420,83.4 467.1,88.4 467.1,85.9 420,80.9 "/>
<polygon fill-rule="evenodd" clip-rule="evenodd" points="489.3,53.6 536.4,58.6 536.4,56.1 489.3,51.2 "/>
<polygon fill-rule="evenodd" clip-rule="evenodd" points="489.3,49.9 536.4,54.9 536.4,52.4 489.3,47.4 "/>
<rect x="41.5" y="34.3" width="10.5" height="0.8"/>
<rect x="41.5" y="39.3" width="10.5" height="0.8"/>
<rect x="49.8" y="15" width="0.5" height="26.4"/>
<g>
	<path d="M43.3,43c0-1.8,2.5-3.5,4.5-3.5c1.3,0,2.3,0.7,2.3,1.7c0,1.7-2.5,3.5-4.6,3.5C44.3,44.7,43.3,44.1,43.3,43z"/>
</g>
<rect x="57.1" y="34.3" width="10.5" height="0.8"/>
<rect x="65.4" y="13.5" width="0.5" height="22.9"/>
<g>
	<path d="M59,38.1c0-1.8,2.5-3.5,4.5-3.5c1.3,0,2.3,0.7,2.3,1.7c0,1.7-2.5,3.5-4.6,3.5C60,39.8,59,39.1,59,38.1z"/>
</g>
<rect x="81.1" y="11.8" width="0.5" height="19.7"/>
<g>
	<path d="M74.6,33.1c0-1.8,2.5-3.5,4.5-3.5c1.3,0,2.3,0.7,2.3,1.7c0,1.7-2.5,3.5-4.6,3.5C75.6,34.8,74.6,34.2,74.6,33.1z"/>
</g>
<rect x="96.9" y="10.1" width="0.5" height="14"/>
<g>
	<path d="M90.5,25.7c0-1.8,2.5-3.5,4.5-3.5c1.3,0,2.3,0.7,2.3,1.7c0,1.7-2.5,3.5-4.6,3.5C91.4,27.4,90.5,26.7,90.5,25.7z"/>
</g>
<rect x="104.3" y="34.3" width="10.5" height="0.8"/>
<rect x="112.6" y="10.1" width="0.5" height="26.4"/>
<g>
	<path d="M106.1,38.1c0-1.8,2.5-3.5,4.5-3.5c1.3,0,2.3,0.7,2.3,1.7c0,1.7-2.5,3.5-4.6,3.5C107.1,39.8,106.1,39.1,106.1,38.1z"/>
</g>
<rect x="128.2" y="8.5" width="0.5" height="22.9"/>
<g>
	<path d="M121.8,33.1c0-1.8,2.5-3.5,4.5-3.5c1.3,0,2.3,0.7,2.3,1.7c0,1.7-2.5,3.5-4.6,3.5C122.7,34.8,121.8,34.2,121.8,33.1z"/>
</g>
<rect x="143.9" y="6.8" width="0.5" height="17.2"/>
<g>
	<path d="M137.4,25.7c0-1.8,2.5-3.5,4.5-3.5c1.3,0,2.3,0.7,2.3,1.7c0,1.7-2.5,3.5-4.6,3.5C138.4,27.4,137.4,26.7,137.4,25.7z"/>
</g>
<rect x="159.7" y="5.1" width="0.5" height="14"/>
<g>
	<path d="M153.2,20.7c0-1.8,2.5-3.5,4.5-3.5c1.3,0,2.3,0.7,2.3,1.7c0,1.7-2.5,3.5-4.6,3.5C154.2,22.4,153.2,21.8,153.2,20.7z"/>
</g>
<rect x="175.3" y="5.1" width="0.5" height="26.4"/>
<g>
	<path d="M168.9,33.1c0-1.8,2.5-3.5,4.5-3.5c1.3,0,2.3,0.7,2.3,1.7c0,1.7-2.5,3.5-4.6,3.5C169.9,34.8,168.9,34.2,168.9,33.1z"/>
</g>
<rect x="191" y="3.6" width="0.5" height="20.5"/>
<g>
	<path d="M184.6,25.7c0-1.8,2.5-3.5,4.5-3.5c1.3,0,2.3,0.7,2.3,1.7c0,1.7-2.5,3.5-4.6,3.5C185.5,27.4,184.6,26.7,184.6,25.7z"/>
</g>
<rect x="206.6" y="1.9" width="0.5" height="17.2"/>
<g>
	<path d="M200.2,20.7c0-1.8,2.5-3.5,4.5-3.5c1.3,0,2.3,0.7,2.3,1.7c0,1.7-2.5,3.5-4.6,3.5C201.2,22.4,200.2,21.8,200.2,20.7z"/>
</g>
<rect x="222.3" y="0.2" width="0.5" height="14"/>
<g>
	<path d="M215.9,15.7c0-1.8,2.5-3.5,4.5-3.5c1.3,0,2.3,0.7,2.3,1.7c0,1.7-2.5,3.5-4.6,3.5C216.8,17.5,215.9,16.8,215.9,15.7z"/>
</g>
<rect x="231.6" y="25.6" width="0.5" height="14"/>
<g>
	<path d="M231.7,25.7c0-1.8,2.5-3.5,4.5-3.5c1.3,0,2.3,0.7,2.3,1.7c0,1.7-2.5,3.5-4.6,3.5C232.7,27.4,231.7,26.7,231.7,25.7z"/>
</g>
<rect x="247.3" y="20.6" width="0.5" height="17.4"/>
<g>
	<path d="M247.3,20.7c0-1.8,2.5-3.5,4.5-3.5c1.3,0,2.3,0.7,2.3,1.7c0,1.7-2.5,3.5-4.6,3.5C248.3,22.4,247.3,21.8,247.3,20.7z"/>
</g>
<rect x="262.9" y="15.7" width="0.5" height="20.6"/>
<g>
	<path d="M263,15.7c0-1.8,2.5-3.5,4.5-3.5c1.3,0,2.3,0.7,2.3,1.7c0,1.7-2.5,3.5-4.6,3.5C264,17.5,263,16.8,263,15.7z"/>
</g>
<rect x="278.6" y="8.2" width="0.5" height="26.4"/>
<g>
	<path d="M278.6,8.3c0-1.8,2.5-3.5,4.5-3.5c1.3,0,2.3,0.7,2.3,1.7c0,1.7-2.5,3.5-4.6,3.5C279.6,10,278.6,9.4,278.6,8.3z"/>
</g>
<rect x="294.4" y="8.2" width="0.5" height="26.4"/>
<g>
	<path d="M294.5,8.3c0-1.8,2.5-3.5,4.5-3.5c1.3,0,2.3,0.7,2.3,1.7c0,1.7-2.5,3.5-4.6,3.5C295.4,10,294.5,9.4,294.5,8.3z"/>
</g>
<rect x="310" y="15.7" width="0.5" height="20.5"/>
<g>
	<path d="M310.1,15.7c0-1.8,2.5-3.5,4.5-3.5c1.3,0,2.3,0.7,2.3,1.7c0,1.7-2.5,3.5-4.6,3.5C311.1,17.5,310.1,16.8,310.1,15.7z"/>
</g>
<rect x="325.7" y="20.6" width="0.5" height="17.2"/>
<g>
	<path d="M325.8,20.7c0-1.8,2.5-3.5,4.5-3.5c1.3,0,2.3,0.7,2.3,1.7c0,1.7-2.5,3.5-4.6,3.5C326.7,22.4,325.8,21.8,325.8,20.7z"/>
</g>
<rect x="341.4" y="25.6" width="0.5" height="14"/>
<g>
	<path d="M341.4,25.7c0-1.8,2.5-3.5,4.5-3.5c1.3,0,2.3,0.7,2.3,1.7c0,1.7-2.5,3.5-4.6,3.5C342.4,27.4,341.4,26.7,341.4,25.7z"/>
</g>
<rect x="363.5" y="0.2" width="0.5" height="14"/>
<g>
	<path d="M357.1,15.7c0-1.8,2.5-3.5,4.5-3.5c1.3,0,2.3,0.7,2.3,1.7c0,1.7-2.5,3.5-4.6,3.5C358.1,17.5,357.1,16.8,357.1,15.7z"/>
</g>
<rect x="379.3" y="1.7" width="0.5" height="17.4"/>
<g>
	<path d="M372.9,20.7c0-1.8,2.5-3.5,4.5-3.5c1.3,0,2.3,0.7,2.3,1.7c0,1.7-2.5,3.5-4.6,3.5C373.9,22.4,372.9,21.8,372.9,20.7z"/>
</g>
<rect x="395" y="3.4" width="0.5" height="20.6"/>
<g>
	<path d="M388.6,25.7c0-1.8,2.5-3.5,4.5-3.5c1.3,0,2.3,0.7,2.3,1.7c0,1.7-2.5,3.5-4.6,3.5C389.5,27.4,388.6,26.7,388.6,25.7z"/>
</g>
<rect x="410.6" y="5.1" width="0.5" height="26.4"/>
<g>
	<path d="M404.2,33.1c0-1.8,2.5-3.5,4.5-3.5c1.3,0,2.3,0.7,2.3,1.7c0,1.7-2.5,3.5-4.6,3.5C405.2,34.8,404.2,34.2,404.2,33.1z"/>
</g>
<rect x="426.3" y="5.1" width="0.5" height="14"/>
<g>
	<path d="M419.9,20.7c0-1.8,2.5-3.5,4.5-3.5c1.3,0,2.3,0.7,2.3,1.7c0,1.7-2.5,3.5-4.6,3.5C420.8,22.4,419.9,21.8,419.9,20.7z"/>
</g>
<rect x="442" y="6.7" width="0.5" height="17.4"/>
<g>
	<path d="M435.5,25.7c0-1.8,2.5-3.5,4.5-3.5c1.3,0,2.3,0.7,2.3,1.7c0,1.7-2.5,3.5-4.6,3.5C436.5,27.4,435.5,26.7,435.5,25.7z"/>
</g>
<rect x="457.8" y="8.4" width="0.5" height="23.1"/>
<g>
	<path d="M451.3,33.1c0-1.8,2.5-3.5,4.5-3.5c1.3,0,2.3,0.7,2.3,1.7c0,1.7-2.5,3.5-4.6,3.5C452.3,34.8,451.3,34.2,451.3,33.1z"/>
</g>
<rect x="465.1" y="34.3" width="10.5" height="0.8"/>
<rect x="473.4" y="10.1" width="0.5" height="26.4"/>
<g>
	<path d="M467,38.1c0-1.8,2.5-3.5,4.5-3.5c1.3,0,2.3,0.7,2.3,1.7c0,1.7-2.5,3.5-4.6,3.5C468,39.8,467,39.1,467,38.1z"/>
</g>
<rect x="489.1" y="10.1" width="0.5" height="14"/>
<g>
	<path d="M482.6,25.7c0-1.8,2.5-3.5,4.5-3.5c1.3,0,2.3,0.7,2.3,1.7c0,1.7-2.5,3.5-4.6,3.5C483.6,27.4,482.6,26.7,482.6,25.7z"/>
</g>
<rect x="504.7" y="11.6" width="0.5" height="19.8"/>
<g>
	<path d="M498.3,33.1c0-1.8,2.5-3.5,4.5-3.5c1.3,0,2.3,0.7,2.3,1.7c0,1.7-2.5,3.5-4.6,3.5C499.3,34.8,498.3,34.2,498.3,33.1z"/>
</g>
<rect x="512.3" y="34.3" width="10.5" height="0.8"/>
<rect x="520.6" y="13.3" width="0.5" height="23.1"/>
<g>
	<path d="M514.1,38.1c0-1.8,2.5-3.5,4.5-3.5c1.3,0,2.3,0.7,2.3,1.7c0,1.7-2.5,3.5-4.6,3.5C515.1,39.8,514.1,39.1,514.1,38.1z"/>
</g>
<rect x="527.9" y="34.3" width="10.5" height="0.8"/>
<rect x="527.9" y="39.3" width="10.5" height="0.8"/>
<rect x="536.2" y="15" width="0.5" height="26.4"/>
<g>
	<path d="M529.8,43c0-1.8,2.5-3.5,4.5-3.5c1.3,0,2.3,0.7,2.3,1.7c0,1.7-2.5,3.5-4.6,3.5C530.7,44.7,529.8,44.1,529.8,43z"/>
</g>
<rect x="49.8" y="52.5" width="0.5" height="25.1"/>
<g>
	<path d="M43.3,79.3c0-1.8,2.5-3.5,4.5-3.5c1.3,0,2.3,0.7,2.3,1.7c0,1.7-2.5,3.5-4.6,3.5C44.3,81,43.3,80.4,43.3,79.3z"/>
</g>
<rect x="65.4" y="51" width="0.5" height="21.7"/>
<g>
	<path d="M59,74.3c0-1.8,2.5-3.5,4.5-3.5c1.3,0,2.3,0.7,2.3,1.7c0,1.7-2.5,3.5-4.6,3.5C60,76.1,59,75.4,59,74.3z"/>
</g>
<rect x="81.1" y="49.3" width="0.5" height="18.4"/>
<g>
	<path d="M74.6,69.4c0-1.8,2.5-3.5,4.5-3.5c1.3,0,2.3,0.7,2.3,1.7c0,1.7-2.5,3.5-4.6,3.5C75.6,71.1,74.6,70.5,74.6,69.4z"/>
</g>
<rect x="96.9" y="47.6" width="0.5" height="12.7"/>
<g>
	<path d="M90.5,61.9c0-1.8,2.5-3.5,4.5-3.5c1.3,0,2.3,0.7,2.3,1.7c0,1.7-2.5,3.5-4.6,3.5C91.4,63.7,90.5,63,90.5,61.9z"/>
</g>
<rect x="106" y="74.2" width="0.5" height="14"/>
<g>
	<path d="M106.1,74.3c0-1.8,2.5-3.5,4.5-3.5c1.3,0,2.3,0.7,2.3,1.7c0,1.7-2.5,3.5-4.6,3.5C107.1,76.1,106.1,75.4,106.1,74.3z"/>
</g>
<rect x="121.7" y="69.3" width="0.5" height="17.4"/>
<g>
	<path d="M121.8,69.4c0-1.8,2.5-3.5,4.5-3.5c1.3,0,2.3,0.7,2.3,1.7c0,1.7-2.5,3.5-4.6,3.5C122.7,71.1,121.8,70.5,121.8,69.4z"/>
</g>
<rect x="137.4" y="61.8" width="0.5" height="23.1"/>
<g>
	<path d="M137.4,61.9c0-1.8,2.5-3.5,4.5-3.5c1.3,0,2.3,0.7,2.3,1.7c0,1.7-2.5,3.5-4.6,3.5C138.4,63.7,137.4,63,137.4,61.9z"/>
</g>
<rect x="153.2" y="56.9" width="0.5" height="26.4"/>
<g>
	<path d="M153.2,57c0-1.8,2.5-3.5,4.5-3.5c1.3,0,2.3,0.7,2.3,1.7c0,1.7-2.5,3.5-4.6,3.5C154.2,58.7,153.2,58.1,153.2,57z"/>
</g>
<rect x="168.8" y="69.3" width="0.5" height="14"/>
<g>
	<path d="M168.9,69.4c0-1.8,2.5-3.5,4.5-3.5c1.3,0,2.3,0.7,2.3,1.7c0,1.7-2.5,3.5-4.6,3.5C169.9,71.1,168.9,70.5,168.9,69.4z"/>
</g>
<rect x="184.5" y="61.8" width="0.5" height="19.8"/>
<g>
	<path d="M184.6,61.9c0-1.8,2.5-3.5,4.5-3.5c1.3,0,2.3,0.7,2.3,1.7c0,1.7-2.5,3.5-4.6,3.5C185.5,63.7,184.6,63,184.6,61.9z"/>
</g>
<rect x="200.1" y="56.9" width="0.5" height="23.1"/>
<g>
	<path d="M200.2,57c0-1.8,2.5-3.5,4.5-3.5c1.3,0,2.3,0.7,2.3,1.7c0,1.7-2.5,3.5-4.6,3.5C201.2,58.7,200.2,58.1,200.2,57z"/>
</g>
<rect x="214" y="53.2" width="10.5" height="0.8"/>
<rect x="215.8" y="51.9" width="0.5" height="26.4"/>
<g>
	<path d="M215.9,52c0-1.8,2.5-3.5,4.5-3.5c1.3,0,2.3,0.7,2.3,1.7c0,1.7-2.5,3.5-4.6,3.5C216.8,53.7,215.9,53.1,215.9,52z"/>
</g>
<rect x="231.6" y="61.8" width="0.5" height="16.4"/>
<g>
	<path d="M231.7,61.9c0-1.8,2.5-3.5,4.5-3.5c1.3,0,2.3,0.7,2.3,1.7c0,1.7-2.5,3.5-4.6,3.5C232.7,63.7,231.7,63,231.7,61.9z"/>
</g>
<rect x="247.3" y="56.9" width="0.5" height="19.8"/>
<g>
	<path d="M247.3,57c0-1.8,2.5-3.5,4.5-3.5c1.3,0,2.3,0.7,2.3,1.7c0,1.7-2.5,3.5-4.6,3.5C248.3,58.7,247.3,58.1,247.3,57z"/>
</g>
<rect x="261.1" y="53.2" width="10.5" height="0.8"/>
<rect x="262.9" y="51.9" width="0.5" height="23.1"/>
<g>
	<path d="M263,52c0-1.8,2.5-3.5,4.5-3.5c1.3,0,2.3,0.7,2.3,1.7c0,1.7-2.5,3.5-4.6,3.5C264,53.7,263,53.1,263,52z"/>
</g>
<rect x="276.8" y="53.2" width="10.5" height="0.8"/>
<rect x="276.8" y="48.3" width="10.5" height="0.8"/>
<rect x="276.8" y="43.3" width="10.5" height="0.8"/>
<rect x="278.6" y="44.5" width="0.5" height="28.8"/>
<g>
	<path d="M278.6,44.6c0-1.8,2.5-3.5,4.5-3.5c1.3,0,2.3,0.7,2.3,1.7c0,1.7-2.5,3.5-4.6,3.5C279.6,46.3,278.6,45.7,278.6,44.6z"/>
</g>
<rect x="292.6" y="53.2" width="10.5" height="0.8"/>
<rect x="292.6" y="48.3" width="10.5" height="0.8"/>
<rect x="292.6" y="43.3" width="10.5" height="0.8"/>
<rect x="294.4" y="44.5" width="0.5" height="28.8"/>
<g>
	<path d="M294.5,44.6c0-1.8,2.5-3.5,4.5-3.5c1.3,0,2.3,0.7,2.3,1.7c0,1.7-2.5,3.5-4.6,3.5C295.4,46.3,294.5,45.7,294.5,44.6z"/>
</g>
<rect x="308.3" y="53.2" width="10.5" height="0.8"/>
<rect x="310" y="51.9" width="0.5" height="22.9"/>
<g>
	<path d="M310.1,52c0-1.8,2.5-3.5,4.5-3.5c1.3,0,2.3,0.7,2.3,1.7c0,1.7-2.5,3.5-4.6,3.5C311.1,53.7,310.1,53.1,310.1,52z"/>
</g>
<rect x="325.7" y="56.9" width="0.5" height="19.7"/>
<g>
	<path d="M325.8,57c0-1.8,2.5-3.5,4.5-3.5c1.3,0,2.3,0.7,2.3,1.7c0,1.7-2.5,3.5-4.6,3.5C326.7,58.7,325.8,58.1,325.8,57z"/>
</g>
<rect x="341.4" y="61.8" width="0.5" height="16.4"/>
<g>
	<path d="M341.4,61.9c0-1.8,2.5-3.5,4.5-3.5c1.3,0,2.3,0.7,2.3,1.7c0,1.7-2.5,3.5-4.6,3.5C342.4,63.7,341.4,63,341.4,61.9z"/>
</g>
<rect x="355.2" y="53.2" width="10.5" height="0.8"/>
<rect x="357" y="51.9" width="0.5" height="26.4"/>
<g>
	<path d="M357.1,52c0-1.8,2.5-3.5,4.5-3.5c1.3,0,2.3,0.7,2.3,1.7c0,1.7-2.5,3.5-4.6,3.5C358.1,53.7,357.1,53.1,357.1,52z"/>
</g>
<rect x="372.8" y="56.9" width="0.5" height="22.9"/>
<g>
	<path d="M372.9,57c0-1.8,2.5-3.5,4.5-3.5c1.3,0,2.3,0.7,2.3,1.7c0,1.7-2.5,3.5-4.6,3.5C373.9,58.7,372.9,58.1,372.9,57z"/>
</g>
<rect x="388.5" y="61.8" width="0.5" height="19.7"/>
<g>
	<path d="M388.6,61.9c0-1.8,2.5-3.5,4.5-3.5c1.3,0,2.3,0.7,2.3,1.7c0,1.7-2.5,3.5-4.6,3.5C389.5,63.7,388.6,63,388.6,61.9z"/>
</g>
<rect x="404.1" y="69.3" width="0.5" height="14"/>
<g>
	<path d="M404.2,69.4c0-1.8,2.5-3.5,4.5-3.5c1.3,0,2.3,0.7,2.3,1.7c0,1.7-2.5,3.5-4.6,3.5C405.2,71.1,404.2,70.5,404.2,69.4z"/>
</g>
<rect x="419.8" y="56.9" width="0.5" height="26.4"/>
<g>
	<path d="M419.9,57c0-1.8,2.5-3.5,4.5-3.5c1.3,0,2.3,0.7,2.3,1.7c0,1.7-2.5,3.5-4.6,3.5C420.8,58.7,419.9,58.1,419.9,57z"/>
</g>
<rect x="435.4" y="61.8" width="0.5" height="22.9"/>
<g>
	<path d="M435.5,61.9c0-1.8,2.5-3.5,4.5-3.5c1.3,0,2.3,0.7,2.3,1.7c0,1.7-2.5,3.5-4.6,3.5C436.5,63.7,435.5,63,435.5,61.9z"/>
</g>
<rect x="451.3" y="69.3" width="0.5" height="17.2"/>
<g>
	<path d="M451.3,69.4c0-1.8,2.5-3.5,4.5-3.5c1.3,0,2.3,0.7,2.3,1.7c0,1.7-2.5,3.5-4.6,3.5C452.3,71.1,451.3,70.5,451.3,69.4z"/>
</g>
<rect x="466.9" y="74.2" width="0.5" height="14"/>
<g>
	<path d="M467,74.3c0-1.8,2.5-3.5,4.5-3.5c1.3,0,2.3,0.7,2.3,1.7c0,1.7-2.5,3.5-4.6,3.5C468,76.1,467,75.4,467,74.3z"/>
</g>
<rect x="489.1" y="47.6" width="0.5" height="12.7"/>
<g>
	<path d="M482.6,61.9c0-1.8,2.5-3.5,4.5-3.5c1.3,0,2.3,0.7,2.3,1.7c0,1.7-2.5,3.5-4.6,3.5C483.6,63.7,482.6,63,482.6,61.9z"/>
</g>
<rect x="504.7" y="49.1" width="0.5" height="18.6"/>
<g>
	<path d="M498.3,69.4c0-1.8,2.5-3.5,4.5-3.5c1.3,0,2.3,0.7,2.3,1.7c0,1.7-2.5,3.5-4.6,3.5C499.3,71.1,498.3,70.5,498.3,69.4z"/>
</g>
<rect x="520.6" y="50.8" width="0.5" height="21.9"/>
<g>
	<path d="M514.1,74.3c0-1.8,2.5-3.5,4.5-3.5c1.3,0,2.3,0.7,2.3,1.7c0,1.7-2.5,3.5-4.6,3.5C515.1,76.1,514.1,75.4,514.1,74.3z"/>
</g>
<rect x="536.2" y="52.5" width="0.5" height="25.1"/>
<g>
	<path d="M529.8,79.3c0-1.8,2.5-3.5,4.5-3.5c1.3,0,2.3,0.7,2.3,1.7c0,1.7-2.5,3.5-4.6,3.5C530.7,81,529.8,80.4,529.8,79.3z"/>
</g>
</svg>
