<?xml version="1.0" encoding="utf-8"?>

<!--
	ScaleBook
	Copyright (c) Leland Jansen 2015. All rights reserved.
-->

<!DOCTYPE svg PUBLIC "-//W3C//DTD SVG 1.1//EN" "http://www.w3.org/Graphics/SVG/1.1/DTD/svg11.dtd">
<svg version="1.1" id="Layer_1" xmlns="http://www.w3.org/2000/svg" xmlns:xlink="http://www.w3.org/1999/xlink" x="0px" y="0px"
	 viewBox="0 0 552.9 87.1" enable-background="new 0 0 552.9 87.1" xml:space="preserve">
<rect x="8.4" y="9.9" width="0.8" height="67.3"/>
<g>
	<path d="M7.4,10.6c-1.9,1.1-3.6,5.8-3.6,9.5c0,2.3,1.4,10,1.4,12.3c0,5-1.5,8.7-4.6,11.2c3,2.4,4.6,6.1,4.6,11.1
		c0,2.3-1.4,10-1.4,12.3c0,3.8,1.7,8.5,3.6,9.6v0.7c-3.5-2.3-5.8-8.3-5.8-13.1c0-2.2,1.7-9.4,1.7-11.6c0-3.8-1-6.6-2.9-8.3
		C0.1,44,0,43.8,0,43.6c0-0.2,0.1-0.4,0.5-0.7c1.9-1.7,2.9-4.2,2.9-7.6c0-2.2-1.7-10.1-1.7-12.2c0-5.2,2.1-10.4,5.8-13.1V10.6z"/>
</g>
<rect x="547.8" y="9.9" width="0.8" height="67.3"/>
<rect x="550.4" y="9.9" width="2.5" height="67.3"/>
<rect x="8.5" y="29.5" width="544.4" height="0.5"/>
<rect x="8.5" y="24.6" width="544.4" height="0.5"/>
<rect x="8.5" y="19.6" width="544.4" height="0.5"/>
<rect x="8.5" y="14.6" width="544.4" height="0.5"/>
<rect x="8.5" y="9.7" width="544.4" height="0.5"/>
<g>
	<path d="M20.3,29.6c-4.2,0-8.1-3.1-8.1-6.9c0-3.2,2.3-6.7,6.8-10.5c-0.3-1.2-0.4-2.4-0.4-3.6c0-3.5,1.2-6.8,3.2-8.5
		c1.8,2.5,2.7,4.9,2.7,7.1c0,2.9-1.3,5.6-4.3,8.1l0.9,4.2c0.5,0,0.8-0.1,0.8-0.1c2.6,0,4.8,2,4.8,4.7c0,1.9-1.4,3.7-3.6,4.8
		c0-0.1,0.9,3.8,0.9,4.3c0,2.5-2.3,4.2-4.9,4.2c-2,0-3.6-1.3-3.6-3.4c0-1.4,1-2.6,2.4-2.6c1.3,0,2.3,1.3,2.3,2.5
		c0,1.4-1.2,2.3-2.7,2.5c0.6,0.3,1.2,0.5,1.9,0.5c2.1,0,4.1-1.6,4.1-3.6c0-0.2,0-0.4-0.1-0.6l-0.8-3.7
		C21.9,29.5,21.2,29.6,20.3,29.6z M18.1,24.4c0,1,0.5,1.9,1.6,2.5c-1.8-0.3-3-1.4-3-3.1c0-2,1.7-3.7,3.8-4.1l-0.8-4
		C16,18.5,14,21.2,14,23.8c0,2.9,2.8,5.3,6,5.3c0.9,0,1.7-0.2,2.4-0.5L21,21.8C19.4,22,18.1,23,18.1,24.4z M22.1,3
		c-1.6,0-2.9,3.7-2.9,7c0,0.7,0,1.3,0.2,1.9c2.7-2.4,4-4.5,4-6.5c0-0.9-0.3-1.7-1-2.4C22.4,3.1,22.3,3,22.1,3z M24.9,24.9
		c0-1.6-1.2-3.3-2.9-3.3c-0.1,0-0.2,0-0.5,0l1.4,6.6C24.2,27.4,24.9,26.2,24.9,24.9z"/>
</g>
<g>
	<path d="M29.5,11.5h0.6L30,17.8c0.4-0.7,1-1,1.8-1c1.2,0,2.2,0.8,2.2,1.9c0,0.8-0.5,1.8-1.7,2.7l-2.8,2.1V11.5z M30.1,18.4
		C30,19.2,30,19.8,30,20.4c0,1,0,1.6,0.1,2c1-0.7,2.4-2.6,2.4-3.7c0-0.6-0.5-1.1-1.1-1.1C30.8,17.6,30.4,17.9,30.1,18.4z"/>
</g>
<g>
	<path d="M35.1,4.1h0.6l-0.1,6.2c0.4-0.7,1-1,1.8-1c1.2,0,2.2,0.8,2.2,1.9c0,0.8-0.5,1.8-1.7,2.7L35.1,16V4.1z M35.7,11
		c-0.1,0.8-0.1,1.4-0.1,1.9c0,1,0,1.6,0.1,2c1-0.7,2.4-2.6,2.4-3.7c0-0.6-0.5-1.1-1.1-1.1C36.4,10.2,36,10.4,35.7,11z"/>
</g>
<g>
	<path d="M40.7,14h0.6l-0.1,6.2c0.4-0.7,1-1,1.8-1c1.2,0,2.2,0.8,2.2,1.9c0,0.8-0.5,1.8-1.7,2.7L40.7,26V14z M41.3,20.9
		c-0.1,0.8-0.1,1.4-0.1,1.9c0,1,0,1.6,0.1,2c1-0.7,2.4-2.6,2.4-3.7c0-0.6-0.5-1.1-1.1-1.1C42,20.1,41.6,20.4,41.3,20.9z"/>
</g>
<g>
	<path d="M46.3,6.6h0.6l-0.1,6.2c0.4-0.7,1-1,1.8-1c1.2,0,2.2,0.8,2.2,1.9c0,0.8-0.5,1.8-1.7,2.7l-2.8,2.1V6.6z M46.9,13.5
		c-0.1,0.8-0.1,1.4-0.1,1.9c0,1,0,1.6,0.1,2c1-0.7,2.4-2.6,2.4-3.7c0-0.6-0.5-1.1-1.1-1.1C47.6,12.6,47.2,12.9,46.9,13.5z"/>
</g>
<g>
	<path d="M51.9,16.5h0.6l-0.1,6.2c0.4-0.7,1-1,1.8-1c1.2,0,2.2,0.8,2.2,1.9c0,0.8-0.5,1.8-1.7,2.7l-2.8,2.1V16.5z M52.4,23.4
		c-0.1,0.8-0.1,1.4-0.1,1.9c0,1,0,1.6,0.1,2c1-0.7,2.4-2.6,2.4-3.7c0-0.6-0.5-1.1-1.1-1.1C53.2,22.6,52.7,22.8,52.4,23.4z"/>
</g>
<rect x="8.5" y="77" width="544.4" height="0.5"/>
<rect x="8.5" y="72" width="544.4" height="0.5"/>
<rect x="8.5" y="67" width="544.4" height="0.5"/>
<rect x="8.5" y="62.1" width="544.4" height="0.5"/>
<rect x="8.5" y="57.1" width="544.4" height="0.5"/>
<g>
	<path d="M15.7,71.5c2.9-2.6,4.7-6.1,4.7-9.2c0-2.5-1.4-4.4-3.7-4.4c-1.6,0-3.4,1.3-3.4,2.7c0,0.2,0,0.3,0.1,0.3
		c-0.1,0,0.6-0.6,1.4-0.6c0.9,0,1.5,0.8,1.5,1.7c0,1.2-0.9,2.2-2.1,2.2c-1.2,0-2.1-1.3-2.1-2.8c0-2.3,2.3-4.1,4.8-4.1
		c4.7,0,5.9,3.2,5.9,5.8c0,1.6-0.4,2.9-2,5.3c-1.9,3.1-6.4,5.3-8.1,5.3c-0.4,0-0.6-0.2-0.6-0.5C13.8,72.8,14.9,72.2,15.7,71.5z
		 M25.7,58.8c0.6,0,1,0.4,1,1c0,0.6-0.4,1-1,1s-1-0.4-1-1C24.7,59.3,25.1,58.8,25.7,58.8z M25.7,63.8c0.6,0,1,0.4,1,1
		c0,0.6-0.4,1-1,1s-1-0.4-1-1C24.7,64.2,25.1,63.8,25.7,63.8z"/>
</g>
<g>
	<path d="M29.5,63.9h0.6L30,70.2c0.4-0.7,1-1,1.8-1c1.2,0,2.2,0.8,2.2,1.9c0,0.8-0.5,1.8-1.7,2.7l-2.8,2.1V63.9z M30.1,70.8
		C30,71.6,30,72.2,30,72.8c0,1,0,1.6,0.1,2c1-0.7,2.4-2.6,2.4-3.7c0-0.6-0.5-1.1-1.1-1.1C30.8,70,30.4,70.3,30.1,70.8z"/>
</g>
<g>
	<path d="M35.1,56.5h0.6l-0.1,6.2c0.4-0.7,1-1,1.8-1c1.2,0,2.2,0.8,2.2,1.9c0,0.8-0.5,1.8-1.7,2.7l-2.8,2.1V56.5z M35.7,63.4
		c-0.1,0.8-0.1,1.4-0.1,1.9c0,1,0,1.6,0.1,2c1-0.7,2.4-2.6,2.4-3.7c0-0.6-0.5-1.1-1.1-1.1C36.4,62.6,36,62.8,35.7,63.4z"/>
</g>
<g>
	<path d="M40.7,66.4h0.6l-0.1,6.2c0.4-0.7,1-1,1.8-1c1.2,0,2.2,0.8,2.2,1.9c0,0.8-0.5,1.8-1.7,2.7l-2.8,2.1V66.4z M41.3,73.3
		c-0.1,0.8-0.1,1.4-0.1,1.9c0,1,0,1.6,0.1,2c1-0.7,2.4-2.6,2.4-3.7c0-0.6-0.5-1.1-1.1-1.1C42,72.5,41.6,72.8,41.3,73.3z"/>
</g>
<g>
	<path d="M46.3,59h0.6l-0.1,6.2c0.4-0.7,1-1,1.8-1c1.2,0,2.2,0.8,2.2,1.9c0,0.8-0.5,1.8-1.7,2.7l-2.8,2.1V59z M46.9,65.9
		c-0.1,0.8-0.1,1.4-0.1,1.9c0,1,0,1.6,0.1,2c1-0.7,2.4-2.6,2.4-3.7c0-0.6-0.5-1.1-1.1-1.1C47.6,65,47.2,65.3,46.9,65.9z"/>
</g>
<g>
	<path d="M51.9,68.9h0.6l-0.1,6.2c0.4-0.7,1-1,1.8-1c1.2,0,2.2,0.8,2.2,1.9c0,0.8-0.5,1.8-1.7,2.7l-2.8,2.1V68.9z M52.4,75.8
		c-0.1,0.8-0.1,1.4-0.1,1.9c0,1,0,1.6,0.1,2c1-0.7,2.4-2.6,2.4-3.7c0-0.6-0.5-1.1-1.1-1.1C53.2,75,52.7,75.2,52.4,75.8z"/>
</g>
<rect x="63" y="34.3" width="10.5" height="0.8"/>
<rect x="71.3" y="9.9" width="0.5" height="26.5"/>
<g>
	<path d="M64.9,38.1c0-1.8,2.5-3.5,4.5-3.5c1.3,0,2.3,0.7,2.3,1.7c0,1.7-2.5,3.5-4.6,3.5C65.9,39.8,64.9,39.1,64.9,38.1z"/>
</g>
<g>
	<path d="M64.9,33.1c0-1.8,2.5-3.5,4.5-3.5c1.3,0,2.3,0.7,2.3,1.7c0,1.7-2.5,3.5-4.6,3.5C65.9,34.8,64.9,34.2,64.9,33.1z"/>
</g>
<g>
	<path d="M64.9,28.1c0-1.8,2.5-3.5,4.5-3.5c1.3,0,2.3,0.7,2.3,1.7c0,1.7-2.5,3.5-4.6,3.5C65.9,29.9,64.9,29.2,64.9,28.1z"/>
</g>
<rect x="133.8" y="2.5" width="0.5" height="29"/>
<g>
	<path d="M127.4,33.1c0-1.8,2.5-3.5,4.5-3.5c1.3,0,2.3,0.7,2.3,1.7c0,1.7-2.5,3.5-4.6,3.5C128.3,34.8,127.4,34.2,127.4,33.1z"/>
</g>
<g>
	<path d="M127.4,28.1c0-1.8,2.5-3.5,4.5-3.5c1.3,0,2.3,0.7,2.3,1.7c0,1.7-2.5,3.5-4.6,3.5C128.3,29.9,127.4,29.2,127.4,28.1z"/>
</g>
<g>
	<path d="M127.4,20.7c0-1.8,2.5-3.5,4.5-3.5c1.3,0,2.3,0.7,2.3,1.7c0,1.7-2.5,3.5-4.6,3.5C128.3,22.4,127.4,21.8,127.4,20.7z"/>
</g>
<rect x="196.1" width="0.5" height="26.5"/>
<g>
	<path d="M189.7,28.1c0-1.8,2.5-3.5,4.5-3.5c1.3,0,2.3,0.7,2.3,1.7c0,1.7-2.5,3.5-4.6,3.5C190.6,29.9,189.7,29.2,189.7,28.1z"/>
</g>
<g>
	<path d="M189.7,20.7c0-1.8,2.5-3.5,4.5-3.5c1.3,0,2.3,0.7,2.3,1.7c0,1.7-2.5,3.5-4.6,3.5C190.6,22.4,189.7,21.8,189.7,20.7z"/>
</g>
<g>
	<path d="M189.7,15.7c0-1.8,2.5-3.5,4.5-3.5c1.3,0,2.3,0.7,2.3,1.7c0,1.7-2.5,3.5-4.6,3.5C190.6,17.5,189.7,16.8,189.7,15.7z"/>
</g>
<rect x="252.1" y="10.7" width="0.5" height="26.5"/>
<g>
	<path d="M252.1,10.8c0-1.8,2.5-3.5,4.5-3.5c1.3,0,2.3,0.7,2.3,1.7c0,1.7-2.5,3.5-4.6,3.5C253.1,12.5,252.1,11.9,252.1,10.8z"/>
</g>
<g>
	<path d="M252.1,15.7c0-1.8,2.5-3.5,4.5-3.5c1.3,0,2.3,0.7,2.3,1.7c0,1.7-2.5,3.5-4.6,3.5C253.1,17.5,252.1,16.8,252.1,15.7z"/>
</g>
<g>
	<path d="M252.1,20.7c0-1.8,2.5-3.5,4.5-3.5c1.3,0,2.3,0.7,2.3,1.7c0,1.7-2.5,3.5-4.6,3.5C253.1,22.4,252.1,21.8,252.1,20.7z"/>
</g>
<rect x="321" width="0.5" height="26.5"/>
<g>
	<path d="M314.6,28.1c0-1.8,2.5-3.5,4.5-3.5c1.3,0,2.3,0.7,2.3,1.7c0,1.7-2.5,3.5-4.6,3.5C315.6,29.9,314.6,29.2,314.6,28.1z"/>
</g>
<g>
	<path d="M314.6,20.7c0-1.8,2.5-3.5,4.5-3.5c1.3,0,2.3,0.7,2.3,1.7c0,1.7-2.5,3.5-4.6,3.5C315.6,22.4,314.6,21.8,314.6,20.7z"/>
</g>
<g>
	<path d="M314.6,15.7c0-1.8,2.5-3.5,4.5-3.5c1.3,0,2.3,0.7,2.3,1.7c0,1.7-2.5,3.5-4.6,3.5C315.6,17.5,314.6,16.8,314.6,15.7z"/>
</g>
<rect x="383.4" y="2.5" width="0.5" height="29"/>
<g>
	<path d="M376.9,33.1c0-1.8,2.5-3.5,4.5-3.5c1.3,0,2.3,0.7,2.3,1.7c0,1.7-2.5,3.5-4.6,3.5C377.9,34.8,376.9,34.2,376.9,33.1z"/>
</g>
<g>
	<path d="M376.9,28.1c0-1.8,2.5-3.5,4.5-3.5c1.3,0,2.3,0.7,2.3,1.7c0,1.7-2.5,3.5-4.6,3.5C377.9,29.9,376.9,29.2,376.9,28.1z"/>
</g>
<g>
	<path d="M376.9,20.7c0-1.8,2.5-3.5,4.5-3.5c1.3,0,2.3,0.7,2.3,1.7c0,1.7-2.5,3.5-4.6,3.5C377.9,22.4,376.9,21.8,376.9,20.7z"/>
</g>
<rect x="437.5" y="34.3" width="10.7" height="0.8"/>
<rect x="446" y="9.9" width="0.5" height="26.5"/>
<g>
	<path d="M443.7,34.5c1.6,0,2.7,0.7,2.7,2c0,1.9-2.3,3.4-4.5,3.4c-1.3,0-2.4-0.7-2.4-1.8C439.4,36.3,441.6,34.5,443.7,34.5z
		 M439.9,38.4c0,0.6,0.4,0.9,1.1,0.9c1.4,0,4.9-2.1,4.9-3.3c0-0.6-0.4-0.9-1.1-0.9C443.5,35.1,439.9,37.1,439.9,38.4z"/>
</g>
<g>
	<path d="M443.7,29.5c1.6,0,2.7,0.7,2.7,2c0,1.9-2.3,3.4-4.5,3.4c-1.3,0-2.4-0.7-2.4-1.8C439.4,31.3,441.6,29.5,443.7,29.5z
		 M439.9,33.4c0,0.6,0.4,0.9,1.1,0.9c1.4,0,4.9-2.1,4.9-3.3c0-0.6-0.4-0.9-1.1-0.9C443.5,30.1,439.9,32.2,439.9,33.4z"/>
</g>
<g>
	<path d="M443.7,24.6c1.6,0,2.7,0.7,2.7,2c0,1.9-2.3,3.4-4.5,3.4c-1.3,0-2.4-0.7-2.4-1.8C439.4,26.4,441.6,24.6,443.7,24.6z
		 M439.9,28.4c0,0.6,0.4,0.9,1.1,0.9c1.4,0,4.9-2.1,4.9-3.3c0-0.6-0.4-0.9-1.1-0.9C443.5,25.2,439.9,27.2,439.9,28.4z"/>
</g>
<rect x="64.8" y="63.1" width="0.5" height="24"/>
<g>
	<path d="M64.9,63.2c0-1.8,2.5-3.5,4.5-3.5c1.3,0,2.3,0.7,2.3,1.7c0,1.7-2.5,3.5-4.6,3.5C65.9,64.9,64.9,64.3,64.9,63.2z"/>
</g>
<g>
	<path d="M64.9,68.1c0-1.8,2.5-3.5,4.5-3.5c1.3,0,2.3,0.7,2.3,1.7c0,1.7-2.5,3.5-4.6,3.5C65.9,69.9,64.9,69.2,64.9,68.1z"/>
</g>
<g>
	<path d="M64.9,73.1c0-1.8,2.5-3.5,4.5-3.5c1.3,0,2.3,0.7,2.3,1.7c0,1.7-2.5,3.5-4.6,3.5C65.9,74.8,64.9,74.2,64.9,73.1z"/>
</g>
<rect x="127.3" y="55.6" width="0.5" height="29"/>
<g>
	<path d="M127.4,55.7c0-1.8,2.5-3.5,4.5-3.5c1.3,0,2.3,0.7,2.3,1.7c0,1.7-2.5,3.5-4.6,3.5C128.3,57.5,127.4,56.8,127.4,55.7z"/>
</g>
<g>
	<path d="M127.4,63.2c0-1.8,2.5-3.5,4.5-3.5c1.3,0,2.3,0.7,2.3,1.7c0,1.7-2.5,3.5-4.6,3.5C128.3,64.9,127.4,64.3,127.4,63.2z"/>
</g>
<g>
	<path d="M127.4,68.1c0-1.8,2.5-3.5,4.5-3.5c1.3,0,2.3,0.7,2.3,1.7c0,1.7-2.5,3.5-4.6,3.5C128.3,69.9,127.4,69.2,127.4,68.1z"/>
</g>
<rect x="187.8" y="52" width="10.5" height="0.8"/>
<rect x="189.6" y="50.7" width="0.5" height="29"/>
<g>
	<path d="M189.7,50.8c0-1.8,2.5-3.5,4.5-3.5c1.3,0,2.3,0.7,2.3,1.7c0,1.7-2.5,3.5-4.6,3.5C190.6,52.5,189.7,51.9,189.7,50.8z"/>
</g>
<g>
	<path d="M189.7,55.7c0-1.8,2.5-3.5,4.5-3.5c1.3,0,2.3,0.7,2.3,1.7c0,1.7-2.5,3.5-4.6,3.5C190.6,57.5,189.7,56.8,189.7,55.7z"/>
</g>
<g>
	<path d="M189.7,63.2c0-1.8,2.5-3.5,4.5-3.5c1.3,0,2.3,0.7,2.3,1.7c0,1.7-2.5,3.5-4.6,3.5C190.6,64.9,189.7,64.3,189.7,63.2z"/>
</g>
<rect x="250.3" y="52" width="10.5" height="0.8"/>
<rect x="250.3" y="47" width="10.5" height="0.8"/>
<rect x="252.1" y="45.7" width="0.5" height="26.5"/>
<g>
	<path d="M252.1,45.8c0-1.8,2.5-3.5,4.5-3.5c1.3,0,2.3,0.7,2.3,1.7c0,1.7-2.5,3.5-4.6,3.5C253.1,47.5,252.1,46.9,252.1,45.8z"/>
</g>
<g>
	<path d="M252.1,50.8c0-1.8,2.5-3.5,4.5-3.5c1.3,0,2.3,0.7,2.3,1.7c0,1.7-2.5,3.5-4.6,3.5C253.1,52.5,252.1,51.9,252.1,50.8z"/>
</g>
<g>
	<path d="M252.1,55.7c0-1.8,2.5-3.5,4.5-3.5c1.3,0,2.3,0.7,2.3,1.7c0,1.7-2.5,3.5-4.6,3.5C253.1,57.5,252.1,56.8,252.1,55.7z"/>
</g>
<rect x="312.8" y="52" width="10.5" height="0.8"/>
<rect x="314.5" y="50.7" width="0.5" height="29"/>
<g>
	<path d="M314.6,50.8c0-1.8,2.5-3.5,4.5-3.5c1.3,0,2.3,0.7,2.3,1.7c0,1.7-2.5,3.5-4.6,3.5C315.6,52.5,314.6,51.9,314.6,50.8z"/>
</g>
<g>
	<path d="M314.6,55.7c0-1.8,2.5-3.5,4.5-3.5c1.3,0,2.3,0.7,2.3,1.7c0,1.7-2.5,3.5-4.6,3.5C315.6,57.5,314.6,56.8,314.6,55.7z"/>
</g>
<g>
	<path d="M314.6,63.2c0-1.8,2.5-3.5,4.5-3.5c1.3,0,2.3,0.7,2.3,1.7c0,1.7-2.5,3.5-4.6,3.5C315.6,64.9,314.6,64.3,314.6,63.2z"/>
</g>
<rect x="376.9" y="55.6" width="0.5" height="29"/>
<g>
	<path d="M376.9,55.7c0-1.8,2.5-3.5,4.5-3.5c1.3,0,2.3,0.7,2.3,1.7c0,1.7-2.5,3.5-4.6,3.5C377.9,57.5,376.9,56.8,376.9,55.7z"/>
</g>
<g>
	<path d="M376.9,63.2c0-1.8,2.5-3.5,4.5-3.5c1.3,0,2.3,0.7,2.3,1.7c0,1.7-2.5,3.5-4.6,3.5C377.9,64.9,376.9,64.3,376.9,63.2z"/>
</g>
<g>
	<path d="M376.9,68.1c0-1.8,2.5-3.5,4.5-3.5c1.3,0,2.3,0.7,2.3,1.7c0,1.7-2.5,3.5-4.6,3.5C377.9,69.9,376.9,69.2,376.9,68.1z"/>
</g>
<rect x="439.3" y="63.1" width="0.5" height="24"/>
<g>
	<path d="M443.7,59.6c1.6,0,2.7,0.7,2.7,2c0,1.9-2.3,3.4-4.5,3.4c-1.3,0-2.4-0.7-2.4-1.8C439.4,61.4,441.6,59.6,443.7,59.6z
		 M439.9,63.5c0,0.6,0.4,0.9,1.1,0.9c1.4,0,4.9-2.1,4.9-3.3c0-0.6-0.4-0.9-1.1-0.9C443.5,60.2,439.9,62.2,439.9,63.5z"/>
</g>
<g>
	<path d="M443.7,64.6c1.6,0,2.7,0.7,2.7,2c0,1.9-2.3,3.4-4.5,3.4c-1.3,0-2.4-0.7-2.4-1.8C439.4,66.4,441.6,64.6,443.7,64.6z
		 M439.9,68.4c0,0.6,0.4,0.9,1.1,0.9c1.4,0,4.9-2.1,4.9-3.3c0-0.6-0.4-0.9-1.1-0.9C443.5,65.2,439.9,67.2,439.9,68.4z"/>
</g>
<g>
	<path d="M443.7,69.5c1.6,0,2.7,0.7,2.7,2c0,1.9-2.3,3.4-4.5,3.4c-1.3,0-2.4-0.7-2.4-1.8C439.4,71.3,441.6,69.5,443.7,69.5z
		 M439.9,73.4c0,0.6,0.4,0.9,1.1,0.9c1.4,0,4.9-2.1,4.9-3.3c0-0.6-0.4-0.9-1.1-0.9C443.5,70.1,439.9,72.2,439.9,73.4z"/>
</g>
</svg>
