<?xml version="1.0" encoding="utf-8"?>

<!--
	ScaleBook
	Copyright (c) Leland Jansen 2015. All rights reserved.
-->

<!DOCTYPE svg PUBLIC "-//W3C//DTD SVG 1.1//EN" "http://www.w3.org/Graphics/SVG/1.1/DTD/svg11.dtd">
<svg version="1.1" id="Layer_1" xmlns="http://www.w3.org/2000/svg" xmlns:xlink="http://www.w3.org/1999/xlink" x="0px" y="0px"
	 viewBox="0 0 553 85.9" enable-background="new 0 0 553 85.9" xml:space="preserve">
<rect x="8.5" y="9.9" width="0.8" height="68.5"/>
<g>
	<path d="M7.6,10.6c-2,1.1-3.7,5.9-3.7,9.7c0,2.3,1.4,10.1,1.4,12.5c0,5.1-1.6,8.8-4.7,11.4c3.1,2.5,4.7,6.2,4.7,11.3
		c0,2.3-1.4,10.1-1.4,12.5c0,3.9,1.8,8.6,3.7,9.7v0.7C4,76.1,1.7,70,1.7,65.1c0-2.2,1.8-9.6,1.8-11.8c0-3.9-1-6.7-3-8.4
		C0.1,44.6,0,44.4,0,44.2s0.1-0.4,0.5-0.7c2-1.7,3-4.3,3-7.7c0-2.2-1.8-10.3-1.8-12.5c0-5.3,2.1-10.6,5.9-13.4V10.6z"/>
</g>
<rect x="548" y="9.9" width="0.8" height="68.5"/>
<rect x="550.5" y="9.9" width="2.5" height="68.5"/>
<rect x="8.6" y="29.5" width="544.4" height="0.5"/>
<rect x="8.6" y="24.6" width="544.4" height="0.5"/>
<rect x="8.6" y="19.6" width="544.4" height="0.5"/>
<rect x="8.6" y="14.6" width="544.4" height="0.5"/>
<rect x="8.6" y="9.7" width="544.4" height="0.5"/>
<g>
	<path d="M20.4,29.6c-4.2,0-8.1-3.1-8.1-6.9c0-3.2,2.3-6.7,6.8-10.5c-0.3-1.2-0.4-2.4-0.4-3.6c0-3.5,1.2-6.8,3.2-8.5
		c1.8,2.5,2.7,4.9,2.7,7.1c0,2.9-1.3,5.6-4.3,8.1l0.9,4.2c0.5,0,0.8-0.1,0.8-0.1c2.6,0,4.8,2,4.8,4.7c0,1.9-1.4,3.7-3.6,4.8
		c0-0.1,0.9,3.8,0.9,4.3c0,2.5-2.3,4.2-4.9,4.2c-2,0-3.6-1.3-3.6-3.4c0-1.4,1-2.6,2.4-2.6c1.3,0,2.3,1.3,2.3,2.5
		c0,1.4-1.2,2.3-2.7,2.5c0.6,0.3,1.2,0.5,1.9,0.5c2.1,0,4.1-1.6,4.1-3.6c0-0.2,0-0.4-0.1-0.6l-0.8-3.7
		C22.1,29.5,21.4,29.6,20.4,29.6z M18.2,24.4c0,1,0.5,1.9,1.6,2.5c-1.8-0.3-3-1.4-3-3.1c0-2,1.7-3.7,3.8-4.1l-0.8-4
		c-3.7,2.8-5.7,5.5-5.7,8.1c0,2.9,2.8,5.3,6,5.3c0.9,0,1.7-0.2,2.4-0.5l-1.4-6.8C19.5,22,18.2,23,18.2,24.4z M22.3,3
		c-1.6,0-2.9,3.7-2.9,7c0,0.7,0,1.3,0.2,1.9c2.7-2.4,4-4.5,4-6.5c0-0.9-0.3-1.7-1-2.4C22.5,3.1,22.4,3,22.3,3z M25,24.9
		c0-1.6-1.2-3.3-2.9-3.3c-0.1,0-0.2,0-0.5,0l1.4,6.6C24.4,27.4,25,26.2,25,24.9z"/>
</g>
<g>
	<path d="M29.7,11.5h0.6l-0.1,6.2c0.4-0.7,1-1,1.8-1c1.2,0,2.2,0.8,2.2,1.9c0,0.8-0.5,1.8-1.7,2.7l-2.8,2.1V11.5z M30.3,18.4
		c-0.1,0.8-0.1,1.4-0.1,1.9c0,1,0,1.6,0.1,2c1-0.7,2.4-2.6,2.4-3.7c0-0.6-0.5-1.1-1.1-1.1C31,17.6,30.6,17.9,30.3,18.4z"/>
</g>
<rect x="8.6" y="78.2" width="544.4" height="0.5"/>
<rect x="8.6" y="73.2" width="544.4" height="0.5"/>
<rect x="8.6" y="68.3" width="544.4" height="0.5"/>
<rect x="8.6" y="63.3" width="544.4" height="0.5"/>
<rect x="8.6" y="58.4" width="544.4" height="0.5"/>
<g>
	<path d="M15.9,72.8c2.9-2.6,4.7-6.1,4.7-9.2c0-2.5-1.4-4.4-3.7-4.4c-1.6,0-3.4,1.3-3.4,2.7c0,0.2,0,0.3,0.1,0.3
		c-0.1,0,0.6-0.6,1.4-0.6c0.9,0,1.5,0.8,1.5,1.7c0,1.2-0.9,2.2-2.1,2.2c-1.2,0-2.1-1.3-2.1-2.8c0-2.3,2.3-4.1,4.8-4.1
		c4.7,0,5.9,3.2,5.9,5.8c0,1.6-0.4,2.9-2,5.3c-1.9,3.1-6.4,5.3-8.1,5.3c-0.4,0-0.6-0.2-0.6-0.5C14,74,15.1,73.5,15.9,72.8z
		 M25.8,60.1c0.6,0,1,0.4,1,1c0,0.6-0.4,1-1,1s-1-0.4-1-1C24.8,60.5,25.3,60.1,25.8,60.1z M25.8,65c0.6,0,1,0.4,1,1c0,0.6-0.4,1-1,1
		s-1-0.4-1-1C24.8,65.5,25.3,65,25.8,65z"/>
</g>
<g>
	<path d="M29.7,65.2h0.6l-0.1,6.2c0.4-0.7,1-1,1.8-1c1.2,0,2.2,0.8,2.2,1.9c0,0.8-0.5,1.8-1.7,2.7l-2.8,2.1V65.2z M30.3,72.1
		c-0.1,0.8-0.1,1.4-0.1,1.9c0,1,0,1.6,0.1,2c1-0.7,2.4-2.6,2.4-3.7c0-0.6-0.5-1.1-1.1-1.1C31,71.2,30.6,71.5,30.3,72.1z"/>
</g>
<rect x="49.1" y="5" width="0.5" height="26.5"/>
<g>
	<path d="M42.7,33.1c0-1.8,2.5-3.5,4.5-3.5c1.3,0,2.3,0.7,2.3,1.7c0,1.7-2.5,3.5-4.6,3.5C43.7,34.8,42.7,34.2,42.7,33.1z"/>
</g>
<g>
	<path d="M42.7,28.1c0-1.8,2.5-3.5,4.5-3.5c1.3,0,2.3,0.7,2.3,1.7c0,1.7-2.5,3.5-4.6,3.5C43.7,29.9,42.7,29.2,42.7,28.1z"/>
</g>
<g>
	<path d="M42.7,23.2c0-1.8,2.5-3.5,4.5-3.5c1.3,0,2.3,0.7,2.3,1.7c0,1.7-2.5,3.5-4.6,3.5C43.7,24.9,42.7,24.3,42.7,23.2z"/>
</g>
<rect x="114.4" width="0.5" height="26.5"/>
<g>
	<path d="M108,28.1c0-1.8,2.5-3.5,4.5-3.5c1.3,0,2.3,0.7,2.3,1.7c0,1.7-2.5,3.5-4.6,3.5C109,29.9,108,29.2,108,28.1z"/>
</g>
<g>
	<path d="M108,23.2c0-1.8,2.5-3.5,4.5-3.5c1.3,0,2.3,0.7,2.3,1.7c0,1.7-2.5,3.5-4.6,3.5C109,24.9,108,24.3,108,23.2z"/>
</g>
<g>
	<path d="M108,15.7c0-1.8,2.5-3.5,4.5-3.5c1.3,0,2.3,0.7,2.3,1.7c0,1.7-2.5,3.5-4.6,3.5C109,17.5,108,16.8,108,15.7z"/>
</g>
<rect x="173.3" y="10.7" width="0.5" height="27.7"/>
<g>
	<path d="M173.4,10.8c0-1.8,2.5-3.5,4.5-3.5c1.3,0,2.3,0.7,2.3,1.7c0,1.7-2.5,3.5-4.6,3.5C174.4,12.5,173.4,11.9,173.4,10.8z"/>
</g>
<g>
	<path d="M173.4,15.7c0-1.8,2.5-3.5,4.5-3.5c1.3,0,2.3,0.7,2.3,1.7c0,1.7-2.5,3.5-4.6,3.5C174.4,17.5,173.4,16.8,173.4,15.7z"/>
</g>
<g>
	<path d="M173.4,23.2c0-1.8,2.5-3.5,4.5-3.5c1.3,0,2.3,0.7,2.3,1.7c0,1.7-2.5,3.5-4.6,3.5C174.4,24.9,173.4,24.3,173.4,23.2z"/>
</g>
<rect x="236.8" y="4.6" width="10.5" height="0.8"/>
<rect x="238.6" y="5.7" width="0.5" height="26.5"/>
<g>
	<path d="M238.7,5.8c0-1.8,2.5-3.5,4.5-3.5c1.3,0,2.3,0.7,2.3,1.7c0,1.7-2.5,3.5-4.6,3.5C239.6,7.5,238.7,6.9,238.7,5.8z"/>
</g>
<g>
	<path d="M238.7,10.8c0-1.8,2.5-3.5,4.5-3.5c1.3,0,2.3,0.7,2.3,1.7c0,1.7-2.5,3.5-4.6,3.5C239.6,12.5,238.7,11.9,238.7,10.8z"/>
</g>
<g>
	<path d="M238.7,15.7c0-1.8,2.5-3.5,4.5-3.5c1.3,0,2.3,0.7,2.3,1.7c0,1.7-2.5,3.5-4.6,3.5C239.6,17.5,238.7,16.8,238.7,15.7z"/>
</g>
<rect x="303.8" y="10.7" width="0.5" height="27.7"/>
<g>
	<path d="M303.9,10.8c0-1.8,2.5-3.5,4.5-3.5c1.3,0,2.3,0.7,2.3,1.7c0,1.7-2.5,3.5-4.6,3.5C304.9,12.5,303.9,11.9,303.9,10.8z"/>
</g>
<g>
	<path d="M303.9,15.7c0-1.8,2.5-3.5,4.5-3.5c1.3,0,2.3,0.7,2.3,1.7c0,1.7-2.5,3.5-4.6,3.5C304.9,17.5,303.9,16.8,303.9,15.7z"/>
</g>
<g>
	<path d="M303.9,23.2c0-1.8,2.5-3.5,4.5-3.5c1.3,0,2.3,0.7,2.3,1.7c0,1.7-2.5,3.5-4.6,3.5C304.9,24.9,303.9,24.3,303.9,23.2z"/>
</g>
<rect x="375.8" width="0.5" height="26.5"/>
<g>
	<path d="M369.3,28.1c0-1.8,2.5-3.5,4.5-3.5c1.3,0,2.3,0.7,2.3,1.7c0,1.7-2.5,3.5-4.6,3.5C370.3,29.9,369.3,29.2,369.3,28.1z"/>
</g>
<g>
	<path d="M369.3,23.2c0-1.8,2.5-3.5,4.5-3.5c1.3,0,2.3,0.7,2.3,1.7c0,1.7-2.5,3.5-4.6,3.5C370.3,24.9,369.3,24.3,369.3,23.2z"/>
</g>
<g>
	<path d="M369.3,15.7c0-1.8,2.5-3.5,4.5-3.5c1.3,0,2.3,0.7,2.3,1.7c0,1.7-2.5,3.5-4.6,3.5C370.3,17.5,369.3,16.8,369.3,15.7z"/>
</g>
<rect x="441.2" y="5" width="0.5" height="26.5"/>
<g>
	<path d="M438.9,29.5c1.6,0,2.7,0.7,2.7,2c0,1.9-2.3,3.4-4.5,3.4c-1.3,0-2.4-0.7-2.4-1.8C434.6,31.3,436.8,29.5,438.9,29.5z
		 M435.1,33.4c0,0.6,0.4,0.9,1.1,0.9c1.4,0,4.9-2.1,4.9-3.3c0-0.6-0.4-0.9-1.1-0.9C438.7,30.1,435.1,32.2,435.1,33.4z"/>
</g>
<g>
	<path d="M438.9,24.6c1.6,0,2.7,0.7,2.7,2c0,1.9-2.3,3.4-4.5,3.4c-1.3,0-2.4-0.7-2.4-1.8C434.6,26.4,436.8,24.6,438.9,24.6z
		 M435.1,28.4c0,0.6,0.4,0.9,1.1,0.9c1.4,0,4.9-2.1,4.9-3.3c0-0.6-0.4-0.9-1.1-0.9C438.7,25.2,435.1,27.2,435.1,28.4z"/>
</g>
<g>
	<path d="M438.9,19.6c1.6,0,2.7,0.7,2.7,2c0,1.9-2.3,3.4-4.5,3.4c-1.3,0-2.4-0.7-2.4-1.8C434.6,21.4,436.8,19.6,438.9,19.6z
		 M435.1,23.5c0,0.6,0.4,0.9,1.1,0.9c1.4,0,4.9-2.1,4.9-3.3c0-0.6-0.4-0.9-1.1-0.9C438.7,20.2,435.1,22.2,435.1,23.5z"/>
</g>
<rect x="42.6" y="59.4" width="0.5" height="26.5"/>
<g>
	<path d="M42.7,59.4c0-1.8,2.5-3.5,4.5-3.5c1.3,0,2.3,0.7,2.3,1.7c0,1.7-2.5,3.5-4.6,3.5C43.7,61.2,42.7,60.5,42.7,59.4z"/>
</g>
<g>
	<path d="M42.7,64.4c0-1.8,2.5-3.5,4.5-3.5c1.3,0,2.3,0.7,2.3,1.7c0,1.7-2.5,3.5-4.6,3.5C43.7,66.1,42.7,65.5,42.7,64.4z"/>
</g>
<g>
	<path d="M42.7,69.4c0-1.8,2.5-3.5,4.5-3.5c1.3,0,2.3,0.7,2.3,1.7c0,1.7-2.5,3.5-4.6,3.5C43.7,71.1,42.7,70.5,42.7,69.4z"/>
</g>
<rect x="106.1" y="53.2" width="10.5" height="0.8"/>
<rect x="107.9" y="51.9" width="0.5" height="29"/>
<g>
	<path d="M108,52c0-1.8,2.5-3.5,4.5-3.5c1.3,0,2.3,0.7,2.3,1.7c0,1.7-2.5,3.5-4.6,3.5C109,53.7,108,53.1,108,52z"/>
</g>
<g>
	<path d="M108,59.4c0-1.8,2.5-3.5,4.5-3.5c1.3,0,2.3,0.7,2.3,1.7c0,1.7-2.5,3.5-4.6,3.5C109,61.2,108,60.5,108,59.4z"/>
</g>
<g>
	<path d="M108,64.4c0-1.8,2.5-3.5,4.5-3.5c1.3,0,2.3,0.7,2.3,1.7c0,1.7-2.5,3.5-4.6,3.5C109,66.1,108,65.5,108,64.4z"/>
</g>
<rect x="171.5" y="53.2" width="10.5" height="0.8"/>
<rect x="171.5" y="48.3" width="10.5" height="0.8"/>
<rect x="173.3" y="47" width="0.5" height="29"/>
<g>
	<path d="M173.4,47c0-1.8,2.5-3.5,4.5-3.5c1.3,0,2.3,0.7,2.3,1.7c0,1.7-2.5,3.5-4.6,3.5C174.4,48.8,173.4,48.1,173.4,47z"/>
</g>
<g>
	<path d="M173.4,52c0-1.8,2.5-3.5,4.5-3.5c1.3,0,2.3,0.7,2.3,1.7c0,1.7-2.5,3.5-4.6,3.5C174.4,53.7,173.4,53.1,173.4,52z"/>
</g>
<g>
	<path d="M173.4,59.4c0-1.8,2.5-3.5,4.5-3.5c1.3,0,2.3,0.7,2.3,1.7c0,1.7-2.5,3.5-4.6,3.5C174.4,61.2,173.4,60.5,173.4,59.4z"/>
</g>
<rect x="236.8" y="53.2" width="10.5" height="0.8"/>
<rect x="236.8" y="48.3" width="10.5" height="0.8"/>
<rect x="236.8" y="43.3" width="10.5" height="0.8"/>
<rect x="238.6" y="42" width="0.5" height="26.5"/>
<g>
	<path d="M238.7,42.1c0-1.8,2.5-3.5,4.5-3.5c1.3,0,2.3,0.7,2.3,1.7c0,1.7-2.5,3.5-4.6,3.5C239.6,43.8,238.7,43.2,238.7,42.1z"/>
</g>
<g>
	<path d="M238.7,47c0-1.8,2.5-3.5,4.5-3.5c1.3,0,2.3,0.7,2.3,1.7c0,1.7-2.5,3.5-4.6,3.5C239.6,48.8,238.7,48.1,238.7,47z"/>
</g>
<g>
	<path d="M238.7,52c0-1.8,2.5-3.5,4.5-3.5c1.3,0,2.3,0.7,2.3,1.7c0,1.7-2.5,3.5-4.6,3.5C239.6,53.7,238.7,53.1,238.7,52z"/>
</g>
<rect x="302.1" y="53.2" width="10.5" height="0.8"/>
<rect x="302.1" y="48.3" width="10.5" height="0.8"/>
<rect x="303.8" y="47" width="0.5" height="29"/>
<g>
	<path d="M303.9,47c0-1.8,2.5-3.5,4.5-3.5c1.3,0,2.3,0.7,2.3,1.7c0,1.7-2.5,3.5-4.6,3.5C304.9,48.8,303.9,48.1,303.9,47z"/>
</g>
<g>
	<path d="M303.9,52c0-1.8,2.5-3.5,4.5-3.5c1.3,0,2.3,0.7,2.3,1.7c0,1.7-2.5,3.5-4.6,3.5C304.9,53.7,303.9,53.1,303.9,52z"/>
</g>
<g>
	<path d="M303.9,59.4c0-1.8,2.5-3.5,4.5-3.5c1.3,0,2.3,0.7,2.3,1.7c0,1.7-2.5,3.5-4.6,3.5C304.9,61.2,303.9,60.5,303.9,59.4z"/>
</g>
<rect x="367.5" y="53.2" width="10.5" height="0.8"/>
<rect x="369.3" y="51.9" width="0.5" height="29"/>
<g>
	<path d="M369.3,52c0-1.8,2.5-3.5,4.5-3.5c1.3,0,2.3,0.7,2.3,1.7c0,1.7-2.5,3.5-4.6,3.5C370.3,53.7,369.3,53.1,369.3,52z"/>
</g>
<g>
	<path d="M369.3,59.4c0-1.8,2.5-3.5,4.5-3.5c1.3,0,2.3,0.7,2.3,1.7c0,1.7-2.5,3.5-4.6,3.5C370.3,61.2,369.3,60.5,369.3,59.4z"/>
</g>
<g>
	<path d="M369.3,64.4c0-1.8,2.5-3.5,4.5-3.5c1.3,0,2.3,0.7,2.3,1.7c0,1.7-2.5,3.5-4.6,3.5C370.3,66.1,369.3,65.5,369.3,64.4z"/>
</g>
<rect x="434.5" y="59.4" width="0.5" height="26.5"/>
<g>
	<path d="M438.9,55.9c1.6,0,2.7,0.7,2.7,2c0,1.9-2.3,3.4-4.5,3.4c-1.3,0-2.4-0.7-2.4-1.8C434.6,57.7,436.8,55.9,438.9,55.9z
		 M435.1,59.7c0,0.6,0.4,0.9,1.1,0.9c1.4,0,4.9-2.1,4.9-3.3c0-0.6-0.4-0.9-1.1-0.9C438.7,56.5,435.1,58.5,435.1,59.7z"/>
</g>
<g>
	<path d="M438.9,60.9c1.6,0,2.7,0.7,2.7,2c0,1.9-2.3,3.4-4.5,3.4c-1.3,0-2.4-0.7-2.4-1.8C434.6,62.6,436.8,60.9,438.9,60.9z
		 M435.1,64.7c0,0.6,0.4,0.9,1.1,0.9c1.4,0,4.9-2.1,4.9-3.3c0-0.6-0.4-0.9-1.1-0.9C438.7,61.5,435.1,63.5,435.1,64.7z"/>
</g>
<g>
	<path d="M438.9,65.8c1.6,0,2.7,0.7,2.7,2c0,1.9-2.3,3.4-4.5,3.4c-1.3,0-2.4-0.7-2.4-1.8C434.6,67.6,436.8,65.8,438.9,65.8z
		 M435.1,69.7c0,0.6,0.4,0.9,1.1,0.9c1.4,0,4.9-2.1,4.9-3.3c0-0.6-0.4-0.9-1.1-0.9C438.7,66.4,435.1,68.4,435.1,69.7z"/>
</g>
</svg>
