<?xml version="1.0" encoding="utf-8"?>

<!--
	ScaleBook
	Copyright (c) Leland Jansen 2015. All rights reserved.
-->

<!DOCTYPE svg PUBLIC "-//W3C//DTD SVG 1.1//EN" "http://www.w3.org/Graphics/SVG/1.1/DTD/svg11.dtd">
<svg version="1.1" id="Layer_1" xmlns="http://www.w3.org/2000/svg" xmlns:xlink="http://www.w3.org/1999/xlink" x="0px" y="0px"
	 viewBox="0 0 552.9 87" enable-background="new 0 0 552.9 87" xml:space="preserve">
<rect x="8.4" y="9.7" width="0.8" height="67.3"/>
<g>
	<path d="M7.4,10.4c-1.9,1.1-3.6,5.8-3.6,9.5c0,2.3,1.4,10,1.4,12.3c0,5-1.5,8.7-4.6,11.2c3,2.4,4.6,6.1,4.6,11.1
		c0,2.3-1.4,10-1.4,12.3c0,3.8,1.7,8.5,3.6,9.6V77c-3.5-2.3-5.8-8.3-5.8-13.1c0-2.2,1.7-9.4,1.7-11.6c0-3.8-1-6.6-2.9-8.3
		C0.1,43.8,0,43.6,0,43.4c0-0.2,0.1-0.4,0.5-0.7c1.9-1.7,2.9-4.2,2.9-7.6c0-2.2-1.7-10.1-1.7-12.2c0-5.2,2.1-10.4,5.8-13.1V10.4z"/>
</g>
<rect x="547.8" y="9.7" width="0.8" height="67.3"/>
<rect x="550.4" y="9.7" width="2.5" height="67.3"/>
<rect x="8.5" y="29.3" width="544.4" height="0.5"/>
<rect x="8.5" y="24.4" width="544.4" height="0.5"/>
<rect x="8.5" y="19.4" width="544.4" height="0.5"/>
<rect x="8.5" y="14.4" width="544.4" height="0.5"/>
<rect x="8.5" y="9.5" width="544.4" height="0.5"/>
<g>
	<path d="M20.3,29.4c-4.2,0-8.1-3.1-8.1-6.9c0-3.2,2.3-6.7,6.8-10.5c-0.3-1.2-0.4-2.4-0.4-3.6c0-3.5,1.2-6.8,3.2-8.5
		c1.8,2.5,2.7,4.9,2.7,7.1c0,2.9-1.3,5.6-4.3,8.1l0.9,4.2c0.5,0,0.8-0.1,0.8-0.1c2.6,0,4.8,2,4.8,4.7c0,1.9-1.4,3.7-3.6,4.8
		c0-0.1,0.9,3.8,0.9,4.3c0,2.5-2.3,4.2-4.9,4.2c-2,0-3.6-1.3-3.6-3.4c0-1.4,1-2.6,2.4-2.6c1.3,0,2.3,1.3,2.3,2.5
		c0,1.4-1.2,2.3-2.7,2.5c0.6,0.3,1.2,0.5,1.9,0.5c2.1,0,4.1-1.6,4.1-3.6c0-0.2,0-0.4-0.1-0.6l-0.8-3.7
		C21.9,29.3,21.2,29.4,20.3,29.4z M18.1,24.2c0,1,0.5,1.9,1.6,2.5c-1.8-0.3-3-1.4-3-3.1c0-2,1.7-3.7,3.8-4.1l-0.8-4
		C16,18.3,14,21,14,23.6c0,2.9,2.8,5.3,6,5.3c0.9,0,1.7-0.2,2.4-0.5L21,21.6C19.4,21.8,18.1,22.8,18.1,24.2z M22.1,2.8
		c-1.6,0-2.9,3.7-2.9,7c0,0.7,0,1.3,0.2,1.9c2.7-2.4,4-4.5,4-6.5c0-0.9-0.3-1.7-1-2.4C22.4,2.9,22.3,2.8,22.1,2.8z M24.9,24.7
		c0-1.6-1.2-3.3-2.9-3.3c-0.1,0-0.2,0-0.5,0l1.4,6.6C24.2,27.2,24.9,26,24.9,24.7z"/>
</g>
<g>
	<path d="M29.5,11.3h0.6L30,17.6c0.4-0.7,1-1,1.8-1c1.2,0,2.2,0.8,2.2,1.9c0,0.8-0.5,1.8-1.7,2.7l-2.8,2.1V11.3z M30.1,18.2
		C30,19,30,19.6,30,20.2c0,1,0,1.6,0.1,2c1-0.7,2.4-2.6,2.4-3.7c0-0.6-0.5-1.1-1.1-1.1C30.8,17.4,30.4,17.7,30.1,18.2z"/>
</g>
<g>
	<path d="M35.1,3.9h0.6l-0.1,6.2c0.4-0.7,1-1,1.8-1c1.2,0,2.2,0.8,2.2,1.9c0,0.8-0.5,1.8-1.7,2.7l-2.8,2.1V3.9z M35.7,10.8
		c-0.1,0.8-0.1,1.4-0.1,1.9c0,1,0,1.6,0.1,2c1-0.7,2.4-2.6,2.4-3.7c0-0.6-0.5-1.1-1.1-1.1C36.4,10,36,10.2,35.7,10.8z"/>
</g>
<g>
	<path d="M40.7,13.8h0.6l-0.1,6.2c0.4-0.7,1-1,1.8-1c1.2,0,2.2,0.8,2.2,1.9c0,0.8-0.5,1.8-1.7,2.7l-2.8,2.1V13.8z M41.3,20.7
		c-0.1,0.8-0.1,1.4-0.1,1.9c0,1,0,1.6,0.1,2c1-0.7,2.4-2.6,2.4-3.7c0-0.6-0.5-1.1-1.1-1.1C42,19.9,41.6,20.2,41.3,20.7z"/>
</g>
<g>
	<path d="M46.3,6.4h0.6l-0.1,6.2c0.4-0.7,1-1,1.8-1c1.2,0,2.2,0.8,2.2,1.9c0,0.8-0.5,1.8-1.7,2.7l-2.8,2.1V6.4z M46.9,13.3
		c-0.1,0.8-0.1,1.4-0.1,1.9c0,1,0,1.6,0.1,2c1-0.7,2.4-2.6,2.4-3.7c0-0.6-0.5-1.1-1.1-1.1C47.6,12.4,47.2,12.7,46.9,13.3z"/>
</g>
<g>
	<path d="M51.9,16.3h0.6l-0.1,6.2c0.4-0.7,1-1,1.8-1c1.2,0,2.2,0.8,2.2,1.9c0,0.8-0.5,1.8-1.7,2.7l-2.8,2.1V16.3z M52.4,23.2
		c-0.1,0.8-0.1,1.4-0.1,1.9c0,1,0,1.6,0.1,2c1-0.7,2.4-2.6,2.4-3.7c0-0.6-0.5-1.1-1.1-1.1C53.2,22.4,52.7,22.6,52.4,23.2z"/>
</g>
<g>
	<path d="M57.4,8.8h0.6l-0.1,6.2c0.4-0.7,1-1,1.8-1c1.2,0,2.2,0.8,2.2,1.9c0,0.8-0.5,1.8-1.7,2.7l-2.8,2.1V8.8z M58,15.7
		c-0.1,0.8-0.1,1.4-0.1,1.9c0,1,0,1.6,0.1,2c1-0.7,2.4-2.6,2.4-3.7c0-0.6-0.5-1.1-1.1-1.1C58.7,14.9,58.3,15.2,58,15.7z"/>
</g>
<rect x="8.5" y="76.8" width="544.4" height="0.5"/>
<rect x="8.5" y="71.8" width="544.4" height="0.5"/>
<rect x="8.5" y="66.8" width="544.4" height="0.5"/>
<rect x="8.5" y="61.9" width="544.4" height="0.5"/>
<rect x="8.5" y="56.9" width="544.4" height="0.5"/>
<g>
	<path d="M15.7,71.3c2.9-2.6,4.7-6.1,4.7-9.2c0-2.5-1.4-4.4-3.7-4.4c-1.6,0-3.4,1.3-3.4,2.7c0,0.2,0,0.3,0.1,0.3
		c-0.1,0,0.6-0.6,1.4-0.6c0.9,0,1.5,0.8,1.5,1.7c0,1.2-0.9,2.2-2.1,2.2c-1.2,0-2.1-1.3-2.1-2.8c0-2.3,2.3-4.1,4.8-4.1
		c4.7,0,5.9,3.2,5.9,5.8c0,1.6-0.4,2.9-2,5.3c-1.9,3.1-6.4,5.3-8.1,5.3c-0.4,0-0.6-0.2-0.6-0.5C13.8,72.6,14.9,72,15.7,71.3z
		 M25.7,58.6c0.6,0,1,0.4,1,1c0,0.6-0.4,1-1,1s-1-0.4-1-1C24.7,59.1,25.1,58.6,25.7,58.6z M25.7,63.6c0.6,0,1,0.4,1,1
		c0,0.6-0.4,1-1,1s-1-0.4-1-1C24.7,64,25.1,63.6,25.7,63.6z"/>
</g>
<g>
	<path d="M29.5,63.7h0.6L30,70c0.4-0.7,1-1,1.8-1c1.2,0,2.2,0.8,2.2,1.9c0,0.8-0.5,1.8-1.7,2.7l-2.8,2.1V63.7z M30.1,70.6
		C30,71.4,30,72,30,72.6c0,1,0,1.6,0.1,2c1-0.7,2.4-2.6,2.4-3.7c0-0.6-0.5-1.1-1.1-1.1C30.8,69.8,30.4,70.1,30.1,70.6z"/>
</g>
<g>
	<path d="M35.1,56.3h0.6l-0.1,6.2c0.4-0.7,1-1,1.8-1c1.2,0,2.2,0.8,2.2,1.9c0,0.8-0.5,1.8-1.7,2.7l-2.8,2.1V56.3z M35.7,63.2
		c-0.1,0.8-0.1,1.4-0.1,1.9c0,1,0,1.6,0.1,2c1-0.7,2.4-2.6,2.4-3.7c0-0.6-0.5-1.1-1.1-1.1C36.4,62.3,36,62.6,35.7,63.2z"/>
</g>
<g>
	<path d="M40.7,66.2h0.6l-0.1,6.2c0.4-0.7,1-1,1.8-1c1.2,0,2.2,0.8,2.2,1.9c0,0.8-0.5,1.8-1.7,2.7l-2.8,2.1V66.2z M41.3,73.1
		c-0.1,0.8-0.1,1.4-0.1,1.9c0,1,0,1.6,0.1,2c1-0.7,2.4-2.6,2.4-3.7c0-0.6-0.5-1.1-1.1-1.1C42,72.3,41.6,72.5,41.3,73.1z"/>
</g>
<g>
	<path d="M46.3,58.8h0.6L46.8,65c0.4-0.7,1-1,1.8-1c1.2,0,2.2,0.8,2.2,1.9c0,0.8-0.5,1.8-1.7,2.7l-2.8,2.1V58.8z M46.9,65.7
		c-0.1,0.8-0.1,1.4-0.1,1.9c0,1,0,1.6,0.1,2c1-0.7,2.4-2.6,2.4-3.7c0-0.6-0.5-1.1-1.1-1.1C47.6,64.8,47.2,65.1,46.9,65.7z"/>
</g>
<g>
	<path d="M51.9,68.7h0.6l-0.1,6.2c0.4-0.7,1-1,1.8-1c1.2,0,2.2,0.8,2.2,1.9c0,0.8-0.5,1.8-1.7,2.7l-2.8,2.1V68.7z M52.4,75.6
		c-0.1,0.8-0.1,1.4-0.1,1.9c0,1,0,1.6,0.1,2c1-0.7,2.4-2.6,2.4-3.7c0-0.6-0.5-1.1-1.1-1.1C53.2,74.7,52.7,75,52.4,75.6z"/>
</g>
<g>
	<path d="M57.4,61.2h0.6l-0.1,6.2c0.4-0.7,1-1,1.8-1c1.2,0,2.2,0.8,2.2,1.9c0,0.8-0.5,1.8-1.7,2.7l-2.8,2.1V61.2z M58,68.1
		c-0.1,0.8-0.1,1.4-0.1,1.9c0,1,0,1.6,0.1,2c1-0.7,2.4-2.6,2.4-3.7c0-0.6-0.5-1.1-1.1-1.1C58.7,67.3,58.3,67.6,58,68.1z"/>
</g>
<g>
	<path d="M186,75.6c-3.2,0-6.1-2.3-6.1-5.1c0-2.4,1.7-5,5.1-7.9c-0.2-0.9-0.3-1.8-0.3-2.7c0-2.6,0.9-5.1,2.4-6.3
		c1.4,1.9,2,3.7,2,5.3c0,2.2-1,4.2-3.2,6.1l0.7,3.1c0.4,0,0.6,0,0.6,0c2,0,3.6,1.5,3.6,3.5c0,1.4-1.1,2.8-2.7,3.6
		c0-0.1,0.6,2.8,0.6,3.3c0,1.9-1.7,3.2-3.7,3.2c-1.5,0-2.7-1-2.7-2.5c0-1.1,0.7-1.9,1.8-1.9c1,0,1.7,1,1.7,1.9c0,1-0.9,1.7-2,1.8
		c0.4,0.2,0.9,0.3,1.4,0.3c1.6,0,3.1-1.2,3.1-2.7c0-0.1,0-0.3,0-0.5l-0.6-2.8C187.2,75.5,186.7,75.6,186,75.6z M184.3,71.7
		c0,0.8,0.4,1.4,1.2,1.9c-1.3-0.2-2.2-1.1-2.2-2.3c0-1.5,1.3-2.8,2.9-3.1l-0.6-3c-2.8,2.1-4.3,4.1-4.3,6.1c0,2.2,2.1,4,4.5,4
		c0.7,0,1.3-0.1,1.8-0.4l-1.1-5.1C185.3,69.9,184.3,70.7,184.3,71.7z M187.4,55.7c-1.2,0-2.2,2.8-2.2,5.3c0,0.5,0,1,0.1,1.4
		c2-1.8,3-3.4,3-4.9c0-0.7-0.3-1.3-0.7-1.8C187.6,55.7,187.5,55.7,187.4,55.7z M189.4,72.1c0-1.2-0.9-2.4-2.2-2.4c0,0-0.2,0-0.4,0
		l1.1,5C188.9,74,189.4,73.1,189.4,72.1z"/>
</g>
<g>
	<path d="M367.6,69c2.2-2,3.6-4.6,3.6-6.9c0-1.9-1.1-3.3-2.8-3.3c-1.2,0-2.5,1-2.5,2.1c0,0.2,0,0.2,0.1,0.2c0,0,0.4-0.5,1-0.5
		c0.7,0,1.2,0.6,1.2,1.3c0,0.9-0.6,1.7-1.6,1.7s-1.5-1-1.5-2.1c0-1.8,1.7-3.1,3.6-3.1c3.5,0,4.4,2.4,4.4,4.4c0,1.2-0.3,2.2-1.5,4
		c-1.4,2.3-4.8,4-6,4c-0.3,0-0.5-0.1-0.5-0.3C366.2,70,367.1,69.5,367.6,69z M375.1,59.5c0.4,0,0.7,0.3,0.7,0.7
		c0,0.4-0.3,0.7-0.7,0.7c-0.4,0-0.7-0.3-0.7-0.7C374.4,59.8,374.7,59.5,375.1,59.5z M375.1,63.2c0.4,0,0.7,0.3,0.7,0.7
		s-0.3,0.7-0.7,0.7c-0.4,0-0.7-0.3-0.7-0.7S374.7,63.2,375.1,63.2z"/>
</g>
<rect x="76.9" y="2.3" width="0.5" height="26.5"/>
<g>
	<path d="M70.5,30.4c0-1.8,2.5-3.5,4.5-3.5c1.3,0,2.3,0.7,2.3,1.7c0,1.7-2.5,3.5-4.6,3.5C71.4,32.1,70.5,31.5,70.5,30.4z"/>
</g>
<g>
	<path d="M70.5,25.5c0-1.8,2.5-3.5,4.5-3.5c1.3,0,2.3,0.7,2.3,1.7c0,1.7-2.5,3.5-4.6,3.5C71.4,27.2,70.5,26.5,70.5,25.5z"/>
</g>
<g>
	<path d="M70.5,20.5c0-1.8,2.5-3.5,4.5-3.5c1.3,0,2.3,0.7,2.3,1.7c0,1.7-2.5,3.5-4.6,3.5C71.4,22.2,70.5,21.6,70.5,20.5z"/>
</g>
<rect x="132.1" y="13" width="0.5" height="26.5"/>
<g>
	<path d="M132.2,13c0-1.8,2.5-3.5,4.5-3.5c1.3,0,2.3,0.7,2.3,1.7c0,1.7-2.5,3.5-4.6,3.5C133.1,14.8,132.2,14.1,132.2,13z"/>
</g>
<g>
	<path d="M132.2,20.5c0-1.8,2.5-3.5,4.5-3.5c1.3,0,2.3,0.7,2.3,1.7c0,1.7-2.5,3.5-4.6,3.5C133.1,22.2,132.2,21.6,132.2,20.5z"/>
</g>
<g>
	<path d="M132.2,25.5c0-1.8,2.5-3.5,4.5-3.5c1.3,0,2.3,0.7,2.3,1.7c0,1.7-2.5,3.5-4.6,3.5C133.1,27.2,132.2,26.5,132.2,25.5z"/>
</g>
<rect x="193.8" y="8" width="0.5" height="29"/>
<g>
	<path d="M193.9,8.1c0-1.8,2.5-3.5,4.5-3.5c1.3,0,2.3,0.7,2.3,1.7c0,1.7-2.5,3.5-4.6,3.5C194.8,9.8,193.9,9.2,193.9,8.1z"/>
</g>
<g>
	<path d="M193.9,13c0-1.8,2.5-3.5,4.5-3.5c1.3,0,2.3,0.7,2.3,1.7c0,1.7-2.5,3.5-4.6,3.5C194.8,14.8,193.9,14.1,193.9,13z"/>
</g>
<g>
	<path d="M193.9,20.5c0-1.8,2.5-3.5,4.5-3.5c1.3,0,2.3,0.7,2.3,1.7c0,1.7-2.5,3.5-4.6,3.5C194.8,22.2,193.9,21.6,193.9,20.5z"/>
</g>
<rect x="253.7" y="4.4" width="10.5" height="0.8"/>
<rect x="255.5" y="3.1" width="0.5" height="26.5"/>
<g>
	<path d="M255.6,3.1c0-1.8,2.5-3.5,4.5-3.5c1.3,0,2.3,0.7,2.3,1.7c0,1.7-2.5,3.5-4.6,3.5C256.5,4.9,255.6,4.2,255.6,3.1z"/>
</g>
<g>
	<path d="M255.6,8.1c0-1.8,2.5-3.5,4.5-3.5c1.3,0,2.3,0.7,2.3,1.7c0,1.7-2.5,3.5-4.6,3.5C256.5,9.8,255.6,9.2,255.6,8.1z"/>
</g>
<g>
	<path d="M255.6,13c0-1.8,2.5-3.5,4.5-3.5c1.3,0,2.3,0.7,2.3,1.7c0,1.7-2.5,3.5-4.6,3.5C256.5,14.8,255.6,14.1,255.6,13z"/>
</g>
<rect x="317.2" y="8" width="0.5" height="29"/>
<g>
	<path d="M317.2,8.1c0-1.8,2.5-3.5,4.5-3.5c1.3,0,2.3,0.7,2.3,1.7c0,1.7-2.5,3.5-4.6,3.5C318.2,9.8,317.2,9.2,317.2,8.1z"/>
</g>
<g>
	<path d="M317.2,13c0-1.8,2.5-3.5,4.5-3.5c1.3,0,2.3,0.7,2.3,1.7c0,1.7-2.5,3.5-4.6,3.5C318.2,14.8,317.2,14.1,317.2,13z"/>
</g>
<g>
	<path d="M317.2,20.5c0-1.8,2.5-3.5,4.5-3.5c1.3,0,2.3,0.7,2.3,1.7c0,1.7-2.5,3.5-4.6,3.5C318.2,22.2,317.2,21.6,317.2,20.5z"/>
</g>
<rect x="378.9" y="13" width="0.5" height="26.5"/>
<g>
	<path d="M378.9,13c0-1.8,2.5-3.5,4.5-3.5c1.3,0,2.3,0.7,2.3,1.7c0,1.7-2.5,3.5-4.6,3.5C379.9,14.8,378.9,14.1,378.9,13z"/>
</g>
<g>
	<path d="M378.9,20.5c0-1.8,2.5-3.5,4.5-3.5c1.3,0,2.3,0.7,2.3,1.7c0,1.7-2.5,3.5-4.6,3.5C379.9,22.2,378.9,21.6,378.9,20.5z"/>
</g>
<g>
	<path d="M378.9,25.5c0-1.8,2.5-3.5,4.5-3.5c1.3,0,2.3,0.7,2.3,1.7c0,1.7-2.5,3.5-4.6,3.5C379.9,27.2,378.9,26.5,378.9,25.5z"/>
</g>
<rect x="447.2" y="2.3" width="0.5" height="26.5"/>
<g>
	<path d="M444.9,26.9c1.6,0,2.7,0.7,2.7,2c0,1.9-2.3,3.4-4.5,3.4c-1.3,0-2.4-0.7-2.4-1.8C440.6,28.6,442.9,26.9,444.9,26.9z
		 M441.1,30.7c0,0.6,0.4,0.9,1.1,0.9c1.4,0,4.9-2.1,4.9-3.3c0-0.6-0.4-0.9-1.1-0.9C444.8,27.5,441.1,29.5,441.1,30.7z"/>
</g>
<g>
	<path d="M444.9,21.9c1.6,0,2.7,0.7,2.7,2c0,1.9-2.3,3.4-4.5,3.4c-1.3,0-2.4-0.7-2.4-1.8C440.6,23.7,442.9,21.9,444.9,21.9z
		 M441.1,25.7c0,0.6,0.4,0.9,1.1,0.9c1.4,0,4.9-2.1,4.9-3.3c0-0.6-0.4-0.9-1.1-0.9C444.8,22.5,441.1,24.5,441.1,25.7z"/>
</g>
<g>
	<path d="M444.9,16.9c1.6,0,2.7,0.7,2.7,2c0,1.9-2.3,3.4-4.5,3.4c-1.3,0-2.4-0.7-2.4-1.8C440.6,18.7,442.9,16.9,444.9,16.9z
		 M441.1,20.8c0,0.6,0.4,0.9,1.1,0.9c1.4,0,4.9-2.1,4.9-3.3c0-0.6-0.4-0.9-1.1-0.9C444.8,17.5,441.1,19.6,441.1,20.8z"/>
</g>
<rect x="70.4" y="55.4" width="0.5" height="26.5"/>
<g>
	<path d="M70.5,55.5c0-1.8,2.5-3.5,4.5-3.5c1.3,0,2.3,0.7,2.3,1.7c0,1.7-2.5,3.5-4.6,3.5C71.4,57.2,70.5,56.6,70.5,55.5z"/>
</g>
<g>
	<path d="M70.5,60.5c0-1.8,2.5-3.5,4.5-3.5c1.3,0,2.3,0.7,2.3,1.7c0,1.7-2.5,3.5-4.6,3.5C71.4,62.2,70.5,61.6,70.5,60.5z"/>
</g>
<g>
	<path d="M70.5,65.4c0-1.8,2.5-3.5,4.5-3.5c1.3,0,2.3,0.7,2.3,1.7c0,1.7-2.5,3.5-4.6,3.5C71.4,67.2,70.5,66.5,70.5,65.4z"/>
</g>
<rect x="130.3" y="51.8" width="10.5" height="0.8"/>
<rect x="130.3" y="46.8" width="10.5" height="0.8"/>
<rect x="132.1" y="48" width="0.5" height="29"/>
<g>
	<path d="M132.2,48.1c0-1.8,2.5-3.5,4.5-3.5c1.3,0,2.3,0.7,2.3,1.7c0,1.7-2.5,3.5-4.6,3.5C133.1,49.8,132.2,49.2,132.2,48.1z"/>
</g>
<g>
	<path d="M132.2,55.5c0-1.8,2.5-3.5,4.5-3.5c1.3,0,2.3,0.7,2.3,1.7c0,1.7-2.5,3.5-4.6,3.5C133.1,57.2,132.2,56.6,132.2,55.5z"/>
</g>
<g>
	<path d="M132.2,60.5c0-1.8,2.5-3.5,4.5-3.5c1.3,0,2.3,0.7,2.3,1.7c0,1.7-2.5,3.5-4.6,3.5C133.1,62.2,132.2,61.6,132.2,60.5z"/>
</g>
<rect x="192" y="81.6" width="10.5" height="0.8"/>
<rect x="200.3" y="54.7" width="0.5" height="29"/>
<g>
	<path d="M193.9,85.3c0-1.8,2.5-3.5,4.5-3.5c1.3,0,2.3,0.7,2.3,1.7c0,1.7-2.5,3.5-4.6,3.5C194.8,87,193.9,86.4,193.9,85.3z"/>
</g>
<g>
	<path d="M193.9,77.8c0-1.8,2.5-3.5,4.5-3.5c1.3,0,2.3,0.7,2.3,1.7c0,1.7-2.5,3.5-4.6,3.5C194.8,79.6,193.9,78.9,193.9,77.8z"/>
</g>
<g>
	<path d="M193.9,72.9c0-1.8,2.5-3.5,4.5-3.5c1.3,0,2.3,0.7,2.3,1.7c0,1.7-2.5,3.5-4.6,3.5C194.8,74.6,193.9,74,193.9,72.9z"/>
</g>
<rect x="262" y="49.7" width="0.5" height="26.5"/>
<g>
	<path d="M255.6,77.8c0-1.8,2.5-3.5,4.5-3.5c1.3,0,2.3,0.7,2.3,1.7c0,1.7-2.5,3.5-4.6,3.5C256.5,79.6,255.6,78.9,255.6,77.8z"/>
</g>
<g>
	<path d="M255.6,72.9c0-1.8,2.5-3.5,4.5-3.5c1.3,0,2.3,0.7,2.3,1.7c0,1.7-2.5,3.5-4.6,3.5C256.5,74.6,255.6,74,255.6,72.9z"/>
</g>
<g>
	<path d="M255.6,67.9c0-1.8,2.5-3.5,4.5-3.5c1.3,0,2.3,0.7,2.3,1.7c0,1.7-2.5,3.5-4.6,3.5C256.5,69.6,255.6,69,255.6,67.9z"/>
</g>
<rect x="315.4" y="81.6" width="10.5" height="0.8"/>
<rect x="323.7" y="54.7" width="0.5" height="29"/>
<g>
	<path d="M317.2,85.3c0-1.8,2.5-3.5,4.5-3.5c1.3,0,2.3,0.7,2.3,1.7c0,1.7-2.5,3.5-4.6,3.5C318.2,87,317.2,86.4,317.2,85.3z"/>
</g>
<g>
	<path d="M317.2,77.8c0-1.8,2.5-3.5,4.5-3.5c1.3,0,2.3,0.7,2.3,1.7c0,1.7-2.5,3.5-4.6,3.5C318.2,79.6,317.2,78.9,317.2,77.8z"/>
</g>
<g>
	<path d="M317.2,72.9c0-1.8,2.5-3.5,4.5-3.5c1.3,0,2.3,0.7,2.3,1.7c0,1.7-2.5,3.5-4.6,3.5C318.2,74.6,317.2,74,317.2,72.9z"/>
</g>
<rect x="377.1" y="51.8" width="10.5" height="0.8"/>
<rect x="377.1" y="46.8" width="10.5" height="0.8"/>
<rect x="378.9" y="48" width="0.5" height="29"/>
<g>
	<path d="M378.9,48.1c0-1.8,2.5-3.5,4.5-3.5c1.3,0,2.3,0.7,2.3,1.7c0,1.7-2.5,3.5-4.6,3.5C379.9,49.8,378.9,49.2,378.9,48.1z"/>
</g>
<g>
	<path d="M378.9,55.5c0-1.8,2.5-3.5,4.5-3.5c1.3,0,2.3,0.7,2.3,1.7c0,1.7-2.5,3.5-4.6,3.5C379.9,57.2,378.9,56.6,378.9,55.5z"/>
</g>
<g>
	<path d="M378.9,60.5c0-1.8,2.5-3.5,4.5-3.5c1.3,0,2.3,0.7,2.3,1.7c0,1.7-2.5,3.5-4.6,3.5C379.9,62.2,378.9,61.6,378.9,60.5z"/>
</g>
<rect x="440.6" y="55.4" width="0.5" height="26.5"/>
<g>
	<path d="M444.9,52c1.6,0,2.7,0.7,2.7,2c0,1.9-2.3,3.4-4.5,3.4c-1.3,0-2.4-0.7-2.4-1.8C440.6,53.8,442.9,52,444.9,52z M441.1,55.8
		c0,0.6,0.4,0.9,1.1,0.9c1.4,0,4.9-2.1,4.9-3.3c0-0.6-0.4-0.9-1.1-0.9C444.8,52.6,441.1,54.6,441.1,55.8z"/>
</g>
<g>
	<path d="M444.9,56.9c1.6,0,2.7,0.7,2.7,2c0,1.9-2.3,3.4-4.5,3.4c-1.3,0-2.4-0.7-2.4-1.8C440.6,58.7,442.9,56.9,444.9,56.9z
		 M441.1,60.8c0,0.6,0.4,0.9,1.1,0.9c1.4,0,4.9-2.1,4.9-3.3c0-0.6-0.4-0.9-1.1-0.9C444.8,57.5,441.1,59.5,441.1,60.8z"/>
</g>
<g>
	<path d="M444.9,61.9c1.6,0,2.7,0.7,2.7,2c0,1.9-2.3,3.4-4.5,3.4c-1.3,0-2.4-0.7-2.4-1.8C440.6,63.7,442.9,61.9,444.9,61.9z
		 M441.1,65.7c0,0.6,0.4,0.9,1.1,0.9c1.4,0,4.9-2.1,4.9-3.3c0-0.6-0.4-0.9-1.1-0.9C444.8,62.5,441.1,64.5,441.1,65.7z"/>
</g>
</svg>
