<?xml version="1.0" encoding="utf-8"?>

<!--
	ScaleBook
	Copyright (c) Leland Jansen 2015. All rights reserved.
-->

<!DOCTYPE svg PUBLIC "-//W3C//DTD SVG 1.1//EN" "http://www.w3.org/Graphics/SVG/1.1/DTD/svg11.dtd">
<svg version="1.1" id="Layer_1" xmlns="http://www.w3.org/2000/svg" xmlns:xlink="http://www.w3.org/1999/xlink" x="0px" y="0px"
	 viewBox="0 0 552.9 87.3" enable-background="new 0 0 552.9 87.3" xml:space="preserve">
<rect x="8.4" y="10" width="0.8" height="67.3"/>
<g>
	<path d="M7.4,10.7c-1.9,1.1-3.6,5.8-3.6,9.5c0,2.3,1.4,10,1.4,12.3c0,5-1.5,8.7-4.6,11.2c3,2.4,4.6,6.1,4.6,11.1
		c0,2.3-1.4,10-1.4,12.3c0,3.8,1.7,8.5,3.6,9.6v0.7C3.9,75,1.7,69,1.7,64.2c0-2.2,1.7-9.4,1.7-11.6c0-3.8-1-6.6-2.9-8.3
		C0.1,44.1,0,43.9,0,43.7c0-0.2,0.1-0.4,0.5-0.7c1.9-1.7,2.9-4.2,2.9-7.6c0-2.2-1.7-10.1-1.7-12.2C1.7,18,3.7,12.7,7.4,10V10.7z"/>
</g>
<rect x="547.8" y="10" width="0.8" height="67.3"/>
<rect x="550.4" y="10" width="2.5" height="67.3"/>
<rect x="8.5" y="29.6" width="544.4" height="0.5"/>
<rect x="8.5" y="24.7" width="544.4" height="0.5"/>
<rect x="8.5" y="19.7" width="544.4" height="0.5"/>
<rect x="8.5" y="14.8" width="544.4" height="0.5"/>
<rect x="8.5" y="9.8" width="544.4" height="0.5"/>
<g>
	<path d="M20.3,29.7c-4.2,0-8.1-3.1-8.1-6.9c0-3.2,2.3-6.7,6.8-10.5c-0.3-1.2-0.4-2.4-0.4-3.6c0-3.5,1.2-6.8,3.2-8.5
		c1.8,2.5,2.7,4.9,2.7,7.1c0,2.9-1.3,5.6-4.3,8.1l0.9,4.2c0.5,0,0.8-0.1,0.8-0.1c2.6,0,4.8,2,4.8,4.7c0,1.9-1.4,3.7-3.6,4.8
		c0-0.1,0.9,3.8,0.9,4.3c0,2.5-2.3,4.2-4.9,4.2c-2,0-3.6-1.3-3.6-3.4c0-1.4,1-2.6,2.4-2.6c1.3,0,2.3,1.3,2.3,2.5
		c0,1.4-1.2,2.3-2.7,2.5c0.6,0.3,1.2,0.5,1.9,0.5c2.1,0,4.1-1.6,4.1-3.6c0-0.2,0-0.4-0.1-0.6l-0.8-3.7
		C21.9,29.6,21.2,29.7,20.3,29.7z M18.1,24.5c0,1,0.5,1.9,1.6,2.5c-1.8-0.3-3-1.4-3-3.1c0-2,1.7-3.7,3.8-4.1l-0.8-4
		C16,18.6,14,21.3,14,23.9c0,2.9,2.8,5.3,6,5.3c0.9,0,1.7-0.2,2.4-0.5L21,21.9C19.4,22.1,18.1,23.1,18.1,24.5z M22.1,3.2
		c-1.6,0-2.9,3.7-2.9,7c0,0.7,0,1.3,0.2,1.9c2.7-2.4,4-4.5,4-6.5c0-0.9-0.3-1.7-1-2.4C22.4,3.2,22.3,3.2,22.1,3.2z M24.9,25
		c0-1.6-1.2-3.3-2.9-3.3c-0.1,0-0.2,0-0.5,0l1.4,6.6C24.2,27.5,24.9,26.3,24.9,25z"/>
</g>
<g>
	<path d="M33.5,3.2v2.8l1-0.3v1.8l-1,0.3v3.4l1-0.3v1.8l-1,0.3v3.1H33v-3l-1.9,0.6v3h-0.5V14l-1,0.3v-1.8l1-0.3V8.8l-1,0.3V7.3
		l1-0.3V3.9h0.5v3L33,6.2v-3H33.5z M33,8l-1.9,0.6v3.4l1.9-0.6V8z"/>
</g>
<rect x="8.5" y="77.1" width="544.4" height="0.5"/>
<rect x="8.5" y="72.1" width="544.4" height="0.5"/>
<rect x="8.5" y="67.2" width="544.4" height="0.5"/>
<rect x="8.5" y="62.2" width="544.4" height="0.5"/>
<rect x="8.5" y="57.2" width="544.4" height="0.5"/>
<g>
	<path d="M15.7,71.7c2.9-2.6,4.7-6.1,4.7-9.2c0-2.5-1.4-4.4-3.7-4.4c-1.6,0-3.4,1.3-3.4,2.7c0,0.2,0,0.3,0.1,0.3
		c-0.1,0,0.6-0.6,1.4-0.6c0.9,0,1.5,0.8,1.5,1.7c0,1.2-0.9,2.2-2.1,2.2c-1.2,0-2.1-1.3-2.1-2.8c0-2.3,2.3-4.1,4.8-4.1
		c4.7,0,5.9,3.2,5.9,5.8c0,1.6-0.4,2.9-2,5.3c-1.9,3.1-6.4,5.3-8.1,5.3c-0.4,0-0.6-0.2-0.6-0.5C13.8,72.9,14.9,72.4,15.7,71.7z
		 M25.7,59c0.6,0,1,0.4,1,1c0,0.6-0.4,1-1,1s-1-0.4-1-1C24.7,59.4,25.1,59,25.7,59z M25.7,63.9c0.6,0,1,0.4,1,1c0,0.6-0.4,1-1,1
		s-1-0.4-1-1C24.7,64.3,25.1,63.9,25.7,63.9z"/>
</g>
<g>
	<path d="M33.5,55.6v2.8l1-0.3v1.8l-1,0.3v3.4l1-0.3v1.8l-1,0.3v3.1H33v-3l-1.9,0.6v3h-0.5v-2.8l-1,0.3v-1.8l1-0.3v-3.4l-1,0.3v-1.8
		l1-0.3v-3.1h0.5v3l1.9-0.6v-3H33.5z M33,60.4L31.1,61v3.4l1.9-0.6V60.4z"/>
</g>
<g>
	<path d="M165.8,76c-3.2,0-6.1-2.3-6.1-5.1c0-2.4,1.7-5,5.1-7.9c-0.2-0.9-0.3-1.8-0.3-2.7c0-2.6,0.9-5.1,2.4-6.3
		c1.4,1.9,2,3.7,2,5.3c0,2.2-1,4.2-3.2,6.1l0.7,3.1c0.4,0,0.6,0,0.6,0c2,0,3.6,1.5,3.6,3.5c0,1.4-1.1,2.8-2.7,3.6
		c0-0.1,0.6,2.8,0.6,3.3c0,1.9-1.7,3.2-3.7,3.2c-1.5,0-2.7-1-2.7-2.5c0-1.1,0.7-1.9,1.8-1.9c1,0,1.7,1,1.7,1.9c0,1-0.9,1.7-2,1.8
		c0.4,0.2,0.9,0.3,1.4,0.3c1.6,0,3.1-1.2,3.1-2.7c0-0.1,0-0.3,0-0.5l-0.6-2.8C167.1,75.8,166.5,76,165.8,76z M164.2,72
		c0,0.8,0.4,1.4,1.2,1.9c-1.3-0.2-2.2-1.1-2.2-2.3c0-1.5,1.3-2.8,2.9-3.1l-0.6-3c-2.8,2.1-4.3,4.1-4.3,6.1c0,2.2,2.1,4,4.5,4
		c0.7,0,1.3-0.1,1.8-0.4l-1.1-5.1C165.1,70.3,164.2,71,164.2,72z M167.2,56c-1.2,0-2.2,2.8-2.2,5.3c0,0.5,0,1,0.1,1.4
		c2-1.8,3-3.4,3-4.9c0-0.7-0.3-1.3-0.7-1.8C167.4,56,167.3,56,167.2,56z M169.3,72.4c0-1.2-0.9-2.4-2.2-2.4c0,0-0.2,0-0.4,0l1.1,5
		C168.8,74.3,169.3,73.4,169.3,72.4z"/>
</g>
<g>
	<path d="M358,69.4c2.2-2,3.6-4.6,3.6-6.9c0-1.9-1.1-3.3-2.8-3.3c-1.2,0-2.5,1-2.5,2.1c0,0.2,0,0.2,0.1,0.2c0,0,0.4-0.5,1-0.5
		c0.7,0,1.2,0.6,1.2,1.3c0,0.9-0.6,1.7-1.6,1.7s-1.5-1-1.5-2.1c0-1.8,1.7-3.1,3.6-3.1c3.5,0,4.4,2.4,4.4,4.4c0,1.2-0.3,2.2-1.5,4
		c-1.4,2.3-4.8,4-6,4c-0.3,0-0.5-0.1-0.5-0.3C356.6,70.3,357.5,69.9,358,69.4z M365.5,59.8c0.4,0,0.7,0.3,0.7,0.7
		c0,0.4-0.3,0.7-0.7,0.7c-0.4,0-0.7-0.3-0.7-0.7C364.8,60.2,365.1,59.8,365.5,59.8z M365.5,63.5c0.4,0,0.7,0.3,0.7,0.7
		s-0.3,0.7-0.7,0.7c-0.4,0-0.7-0.3-0.7-0.7S365.1,63.5,365.5,63.5z"/>
</g>
<rect x="49.6" y="2.6" width="0.5" height="26.5"/>
<g>
	<path d="M43.2,30.7c0-1.8,2.5-3.5,4.5-3.5C49,27.3,50,28,50,29c0,1.7-2.5,3.5-4.6,3.5C44.2,32.5,43.2,31.8,43.2,30.7z"/>
</g>
<g>
	<path d="M43.2,25.8c0-1.8,2.5-3.5,4.5-3.5C49,22.3,50,23,50,24c0,1.7-2.5,3.5-4.6,3.5C44.2,27.5,43.2,26.9,43.2,25.8z"/>
</g>
<g>
	<path d="M43.2,20.8c0-1.8,2.5-3.5,4.5-3.5c1.3,0,2.3,0.7,2.3,1.7c0,1.7-2.5,3.5-4.6,3.5C44.2,22.5,43.2,21.9,43.2,20.8z"/>
</g>
<rect x="108.4" y="13.3" width="0.5" height="26.5"/>
<g>
	<path d="M108.4,13.4c0-1.8,2.5-3.5,4.5-3.5c1.3,0,2.3,0.7,2.3,1.7c0,1.7-2.5,3.5-4.6,3.5C109.4,15.1,108.4,14.5,108.4,13.4z"/>
</g>
<g>
	<path d="M108.4,20.8c0-1.8,2.5-3.5,4.5-3.5c1.3,0,2.3,0.7,2.3,1.7c0,1.7-2.5,3.5-4.6,3.5C109.4,22.5,108.4,21.9,108.4,20.8z"/>
</g>
<g>
	<path d="M108.4,25.8c0-1.8,2.5-3.5,4.5-3.5c1.3,0,2.3,0.7,2.3,1.7c0,1.7-2.5,3.5-4.6,3.5C109.4,27.5,108.4,26.9,108.4,25.8z"/>
</g>
<rect x="173.6" y="8.3" width="0.5" height="29"/>
<g>
	<path d="M173.7,8.4c0-1.8,2.5-3.5,4.5-3.5c1.3,0,2.3,0.7,2.3,1.7c0,1.7-2.5,3.5-4.6,3.5C174.7,10.1,173.7,9.5,173.7,8.4z"/>
</g>
<g>
	<path d="M173.7,13.4c0-1.8,2.5-3.5,4.5-3.5c1.3,0,2.3,0.7,2.3,1.7c0,1.7-2.5,3.5-4.6,3.5C174.7,15.1,173.7,14.5,173.7,13.4z"/>
</g>
<g>
	<path d="M173.7,20.8c0-1.8,2.5-3.5,4.5-3.5c1.3,0,2.3,0.7,2.3,1.7c0,1.7-2.5,3.5-4.6,3.5C174.7,22.5,173.7,21.9,173.7,20.8z"/>
</g>
<rect x="237.1" y="4.7" width="10.5" height="0.8"/>
<rect x="238.9" y="3.4" width="0.5" height="26.5"/>
<g>
	<path d="M239,3.5c0-1.8,2.5-3.5,4.5-3.5c1.3,0,2.3,0.7,2.3,1.7c0,1.7-2.5,3.5-4.6,3.5C239.9,5.2,239,4.5,239,3.5z"/>
</g>
<g>
	<path d="M239,8.4c0-1.8,2.5-3.5,4.5-3.5c1.3,0,2.3,0.7,2.3,1.7c0,1.7-2.5,3.5-4.6,3.5C239.9,10.1,239,9.5,239,8.4z"/>
</g>
<g>
	<path d="M239,13.4c0-1.8,2.5-3.5,4.5-3.5c1.3,0,2.3,0.7,2.3,1.7c0,1.7-2.5,3.5-4.6,3.5C239.9,15.1,239,14.5,239,13.4z"/>
</g>
<rect x="304" y="8.3" width="0.5" height="29"/>
<g>
	<path d="M304.1,8.4c0-1.8,2.5-3.5,4.5-3.5c1.3,0,2.3,0.7,2.3,1.7c0,1.7-2.5,3.5-4.6,3.5C305,10.1,304.1,9.5,304.1,8.4z"/>
</g>
<g>
	<path d="M304.1,13.4c0-1.8,2.5-3.5,4.5-3.5c1.3,0,2.3,0.7,2.3,1.7c0,1.7-2.5,3.5-4.6,3.5C305,15.1,304.1,14.5,304.1,13.4z"/>
</g>
<g>
	<path d="M304.1,20.8c0-1.8,2.5-3.5,4.5-3.5c1.3,0,2.3,0.7,2.3,1.7c0,1.7-2.5,3.5-4.6,3.5C305,22.5,304.1,21.9,304.1,20.8z"/>
</g>
<rect x="369.3" y="13.3" width="0.5" height="26.5"/>
<g>
	<path d="M369.3,13.4c0-1.8,2.5-3.5,4.5-3.5c1.3,0,2.3,0.7,2.3,1.7c0,1.7-2.5,3.5-4.6,3.5C370.3,15.1,369.3,14.5,369.3,13.4z"/>
</g>
<g>
	<path d="M369.3,20.8c0-1.8,2.5-3.5,4.5-3.5c1.3,0,2.3,0.7,2.3,1.7c0,1.7-2.5,3.5-4.6,3.5C370.3,22.5,369.3,21.9,369.3,20.8z"/>
</g>
<g>
	<path d="M369.3,25.8c0-1.8,2.5-3.5,4.5-3.5c1.3,0,2.3,0.7,2.3,1.7c0,1.7-2.5,3.5-4.6,3.5C370.3,27.5,369.3,26.9,369.3,25.8z"/>
</g>
<rect x="441.2" y="2.6" width="0.5" height="26.5"/>
<g>
	<path d="M438.9,27.2c1.6,0,2.7,0.7,2.7,2c0,1.9-2.3,3.4-4.5,3.4c-1.3,0-2.4-0.7-2.4-1.8C434.6,29,436.8,27.2,438.9,27.2z M435.1,31
		c0,0.6,0.4,0.9,1.1,0.9c1.4,0,4.9-2.1,4.9-3.3c0-0.6-0.4-0.9-1.1-0.9C438.7,27.8,435.1,29.8,435.1,31z"/>
</g>
<g>
	<path d="M438.9,22.2c1.6,0,2.7,0.7,2.7,2c0,1.9-2.3,3.4-4.5,3.4c-1.3,0-2.4-0.7-2.4-1.8C434.6,24,436.8,22.2,438.9,22.2z
		 M435.1,26.1c0,0.6,0.4,0.9,1.1,0.9c1.4,0,4.9-2.1,4.9-3.3c0-0.6-0.4-0.9-1.1-0.9C438.7,22.8,435.1,24.8,435.1,26.1z"/>
</g>
<g>
	<path d="M438.9,17.3c1.6,0,2.7,0.7,2.7,2c0,1.9-2.3,3.4-4.5,3.4c-1.3,0-2.4-0.7-2.4-1.8C434.6,19,436.8,17.3,438.9,17.3z
		 M435.1,21.1c0,0.6,0.4,0.9,1.1,0.9c1.4,0,4.9-2.1,4.9-3.3c0-0.6-0.4-0.9-1.1-0.9C438.7,17.9,435.1,19.9,435.1,21.1z"/>
</g>
<rect x="43.1" y="55.8" width="0.5" height="26.5"/>
<g>
	<path d="M43.2,55.8c0-1.8,2.5-3.5,4.5-3.5c1.3,0,2.3,0.7,2.3,1.7c0,1.7-2.5,3.5-4.6,3.5C44.2,57.6,43.2,56.9,43.2,55.8z"/>
</g>
<g>
	<path d="M43.2,60.8c0-1.8,2.5-3.5,4.5-3.5c1.3,0,2.3,0.7,2.3,1.7c0,1.7-2.5,3.5-4.6,3.5C44.2,62.5,43.2,61.9,43.2,60.8z"/>
</g>
<g>
	<path d="M43.2,65.8c0-1.8,2.5-3.5,4.5-3.5C49,62.3,50,63,50,64c0,1.7-2.5,3.5-4.6,3.5C44.2,67.5,43.2,66.9,43.2,65.8z"/>
</g>
<rect x="106.6" y="52.1" width="10.5" height="0.8"/>
<rect x="106.6" y="47.2" width="10.5" height="0.8"/>
<rect x="108.4" y="48.3" width="0.5" height="29"/>
<g>
	<path d="M108.4,48.4c0-1.8,2.5-3.5,4.5-3.5c1.3,0,2.3,0.7,2.3,1.7c0,1.7-2.5,3.5-4.6,3.5C109.4,50.1,108.4,49.5,108.4,48.4z"/>
</g>
<g>
	<path d="M108.4,55.8c0-1.8,2.5-3.5,4.5-3.5c1.3,0,2.3,0.7,2.3,1.7c0,1.7-2.5,3.5-4.6,3.5C109.4,57.6,108.4,56.9,108.4,55.8z"/>
</g>
<g>
	<path d="M108.4,60.8c0-1.8,2.5-3.5,4.5-3.5c1.3,0,2.3,0.7,2.3,1.7c0,1.7-2.5,3.5-4.6,3.5C109.4,62.5,108.4,61.9,108.4,60.8z"/>
</g>
<rect x="171.8" y="81.9" width="10.5" height="0.8"/>
<rect x="180.1" y="55" width="0.5" height="29"/>
<g>
	<path d="M173.7,85.6c0-1.8,2.5-3.5,4.5-3.5c1.3,0,2.3,0.7,2.3,1.7c0,1.7-2.5,3.5-4.6,3.5C174.7,87.3,173.7,86.7,173.7,85.6z"/>
</g>
<g>
	<path d="M173.7,78.2c0-1.8,2.5-3.5,4.5-3.5c1.3,0,2.3,0.7,2.3,1.7c0,1.7-2.5,3.5-4.6,3.5C174.7,79.9,173.7,79.3,173.7,78.2z"/>
</g>
<g>
	<path d="M173.7,73.2c0-1.8,2.5-3.5,4.5-3.5c1.3,0,2.3,0.7,2.3,1.7c0,1.7-2.5,3.5-4.6,3.5C174.7,74.9,173.7,74.3,173.7,73.2z"/>
</g>
<rect x="245.4" y="50" width="0.5" height="26.5"/>
<g>
	<path d="M239,78.2c0-1.8,2.5-3.5,4.5-3.5c1.3,0,2.3,0.7,2.3,1.7c0,1.7-2.5,3.5-4.6,3.5C239.9,79.9,239,79.3,239,78.2z"/>
</g>
<g>
	<path d="M239,73.2c0-1.8,2.5-3.5,4.5-3.5c1.3,0,2.3,0.7,2.3,1.7c0,1.7-2.5,3.5-4.6,3.5C239.9,74.9,239,74.3,239,73.2z"/>
</g>
<g>
	<path d="M239,68.2c0-1.8,2.5-3.5,4.5-3.5c1.3,0,2.3,0.7,2.3,1.7c0,1.7-2.5,3.5-4.6,3.5C239.9,70,239,69.3,239,68.2z"/>
</g>
<rect x="302.2" y="81.9" width="10.5" height="0.8"/>
<rect x="310.5" y="55" width="0.5" height="29"/>
<g>
	<path d="M304.1,85.6c0-1.8,2.5-3.5,4.5-3.5c1.3,0,2.3,0.7,2.3,1.7c0,1.7-2.5,3.5-4.6,3.5C305,87.3,304.1,86.7,304.1,85.6z"/>
</g>
<g>
	<path d="M304.1,78.2c0-1.8,2.5-3.5,4.5-3.5c1.3,0,2.3,0.7,2.3,1.7c0,1.7-2.5,3.5-4.6,3.5C305,79.9,304.1,79.3,304.1,78.2z"/>
</g>
<g>
	<path d="M304.1,73.2c0-1.8,2.5-3.5,4.5-3.5c1.3,0,2.3,0.7,2.3,1.7c0,1.7-2.5,3.5-4.6,3.5C305,74.9,304.1,74.3,304.1,73.2z"/>
</g>
<rect x="367.5" y="52.1" width="10.5" height="0.8"/>
<rect x="367.5" y="47.2" width="10.5" height="0.8"/>
<rect x="369.3" y="48.3" width="0.5" height="29"/>
<g>
	<path d="M369.3,48.4c0-1.8,2.5-3.5,4.5-3.5c1.3,0,2.3,0.7,2.3,1.7c0,1.7-2.5,3.5-4.6,3.5C370.3,50.1,369.3,49.5,369.3,48.4z"/>
</g>
<g>
	<path d="M369.3,55.8c0-1.8,2.5-3.5,4.5-3.5c1.3,0,2.3,0.7,2.3,1.7c0,1.7-2.5,3.5-4.6,3.5C370.3,57.6,369.3,56.9,369.3,55.8z"/>
</g>
<g>
	<path d="M369.3,60.8c0-1.8,2.5-3.5,4.5-3.5c1.3,0,2.3,0.7,2.3,1.7c0,1.7-2.5,3.5-4.6,3.5C370.3,62.5,369.3,61.9,369.3,60.8z"/>
</g>
<rect x="434.5" y="55.8" width="0.5" height="26.5"/>
<g>
	<path d="M438.9,52.3c1.6,0,2.7,0.7,2.7,2c0,1.9-2.3,3.4-4.5,3.4c-1.3,0-2.4-0.7-2.4-1.8C434.6,54.1,436.8,52.3,438.9,52.3z
		 M435.1,56.1c0,0.6,0.4,0.9,1.1,0.9c1.4,0,4.9-2.1,4.9-3.3c0-0.6-0.4-0.9-1.1-0.9C438.7,52.9,435.1,54.9,435.1,56.1z"/>
</g>
<g>
	<path d="M438.9,57.3c1.6,0,2.7,0.7,2.7,2c0,1.9-2.3,3.4-4.5,3.4c-1.3,0-2.4-0.7-2.4-1.8C434.6,59,436.8,57.3,438.9,57.3z
		 M435.1,61.1c0,0.6,0.4,0.9,1.1,0.9c1.4,0,4.9-2.1,4.9-3.3c0-0.6-0.4-0.9-1.1-0.9C438.7,57.8,435.1,59.9,435.1,61.1z"/>
</g>
<g>
	<path d="M438.9,62.2c1.6,0,2.7,0.7,2.7,2c0,1.9-2.3,3.4-4.5,3.4c-1.3,0-2.4-0.7-2.4-1.8C434.6,64,436.8,62.2,438.9,62.2z
		 M435.1,66.1c0,0.6,0.4,0.9,1.1,0.9c1.4,0,4.9-2.1,4.9-3.3c0-0.6-0.4-0.9-1.1-0.9C438.7,62.8,435.1,64.8,435.1,66.1z"/>
</g>
</svg>
