<?xml version="1.0" encoding="utf-8"?>

<!--
	ScaleBook
	Copyright (c) Leland Jansen 2015. All rights reserved.
-->

<!DOCTYPE svg PUBLIC "-//W3C//DTD SVG 1.1//EN" "http://www.w3.org/Graphics/SVG/1.1/DTD/svg11.dtd">
<svg version="1.1" id="Layer_1" xmlns="http://www.w3.org/2000/svg" xmlns:xlink="http://www.w3.org/1999/xlink" x="0px" y="0px"
	 viewBox="0 0 552.9 85.5" enable-background="new 0 0 552.9 85.5" xml:space="preserve">
<rect x="8.4" y="9.7" width="0.8" height="67.1"/>
<g>
	<path d="M7.4,10.4c-1.9,1.1-3.6,5.8-3.6,9.5c0,2.3,1.4,9.9,1.4,12.3c0,5-1.5,8.7-4.6,11.1c3,2.4,4.6,6.1,4.6,11.1
		c0,2.3-1.4,9.9-1.4,12.3c0,3.8,1.7,8.5,3.6,9.5v0.7c-3.5-2.3-5.8-8.3-5.8-13.1c0-2.1,1.7-9.4,1.7-11.5c0-3.8-1-6.6-2.9-8.3
		C0.1,43.7,0,43.5,0,43.3c0-0.2,0.1-0.4,0.5-0.7c1.9-1.7,2.9-4.2,2.9-7.6c0-2.1-1.7-10.1-1.7-12.2c0-5.2,2.1-10.4,5.8-13.1V10.4z"/>
</g>
<rect x="547.8" y="9.7" width="0.8" height="67.1"/>
<rect x="550.4" y="9.7" width="2.5" height="67.1"/>
<rect x="8.5" y="29.3" width="544.4" height="0.5"/>
<rect x="8.5" y="24.4" width="544.4" height="0.5"/>
<rect x="8.5" y="19.4" width="544.4" height="0.5"/>
<rect x="8.5" y="14.4" width="544.4" height="0.5"/>
<rect x="8.5" y="9.5" width="544.4" height="0.5"/>
<g>
	<path d="M20.3,29.4c-4.2,0-8.1-3.1-8.1-6.9c0-3.2,2.3-6.7,6.8-10.5c-0.3-1.2-0.4-2.4-0.4-3.6c0-3.5,1.2-6.8,3.2-8.5
		c1.8,2.5,2.7,4.9,2.7,7.1c0,2.9-1.3,5.6-4.3,8.1l0.9,4.2c0.5,0,0.8-0.1,0.8-0.1c2.6,0,4.8,2,4.8,4.7c0,1.9-1.4,3.7-3.6,4.8
		c0-0.1,0.9,3.8,0.9,4.3c0,2.5-2.3,4.2-4.9,4.2c-2,0-3.6-1.3-3.6-3.4c0-1.4,1-2.6,2.4-2.6c1.3,0,2.3,1.3,2.3,2.5
		c0,1.4-1.2,2.3-2.7,2.5c0.6,0.3,1.2,0.5,1.9,0.5c2.1,0,4.1-1.6,4.1-3.6c0-0.2,0-0.4-0.1-0.6l-0.8-3.7
		C21.9,29.3,21.2,29.4,20.3,29.4z M18.1,24.2c0,1,0.5,1.9,1.6,2.5c-1.8-0.3-3-1.4-3-3.1c0-2,1.7-3.7,3.8-4.1l-0.8-4
		C16,18.3,14,21,14,23.6c0,2.9,2.8,5.3,6,5.3c0.9,0,1.7-0.2,2.4-0.5L21,21.6C19.4,21.8,18.1,22.8,18.1,24.2z M22.1,2.8
		c-1.6,0-2.9,3.7-2.9,7c0,0.7,0,1.3,0.2,1.9c2.7-2.4,4-4.5,4-6.5c0-0.9-0.3-1.7-1-2.4C22.4,2.9,22.3,2.8,22.1,2.8z M24.9,24.7
		c0-1.6-1.2-3.3-2.9-3.3c-0.1,0-0.2,0-0.5,0l1.4,6.6C24.2,27.2,24.9,26,24.9,24.7z"/>
</g>
<g>
	<path d="M33.5,2.9v2.8l1-0.3v1.8l-1,0.3V11l1-0.3v1.8l-1,0.3v3.1H33v-3l-1.9,0.6v3h-0.5v-2.8l-1,0.3v-1.8l1-0.3V8.4l-1,0.3V7l1-0.3
		V3.5h0.5v3L33,5.9v-3H33.5z M33,7.7l-1.9,0.6v3.4l1.9-0.6V7.7z"/>
</g>
<g>
	<path d="M39.7,10.3v2.8l1-0.3v1.8l-1,0.3v3.4l1-0.3v1.8l-1,0.3v3.1h-0.5v-3L37.3,21v3h-0.5v-2.8l-1,0.3v-1.8l1-0.3v-3.4l-1,0.3
		v-1.8l1-0.3V11h0.5v3l1.9-0.6v-3H39.7z M39.2,15.1l-1.9,0.6v3.4l1.9-0.6V15.1z"/>
</g>
<g>
	<path d="M45.9,0.4v2.8l1-0.3v1.8l-1,0.3v3.4l1-0.3V10l-1,0.3v3.1h-0.5v-3l-1.9,0.6v3H43v-2.8l-1,0.3V9.7l1-0.3V6l-1,0.3V4.5l1-0.3
		V1h0.5v3l1.9-0.6v-3H45.9z M45.4,5.2l-1.9,0.6v3.4l1.9-0.6V5.2z"/>
</g>
<rect x="8.5" y="76.6" width="544.4" height="0.5"/>
<rect x="8.5" y="71.6" width="544.4" height="0.5"/>
<rect x="8.5" y="66.7" width="544.4" height="0.5"/>
<rect x="8.5" y="61.7" width="544.4" height="0.5"/>
<rect x="8.5" y="56.8" width="544.4" height="0.5"/>
<g>
	<path d="M15.7,71.2c2.9-2.6,4.7-6.1,4.7-9.2c0-2.5-1.4-4.4-3.7-4.4c-1.6,0-3.4,1.3-3.4,2.7c0,0.2,0,0.3,0.1,0.3
		c-0.1,0,0.6-0.6,1.4-0.6c0.9,0,1.5,0.8,1.5,1.7c0,1.2-0.9,2.2-2.1,2.2c-1.2,0-2.1-1.3-2.1-2.8c0-2.3,2.3-4.1,4.8-4.1
		c4.7,0,5.9,3.2,5.9,5.8c0,1.6-0.4,2.9-2,5.3c-1.9,3.1-6.4,5.3-8.1,5.3c-0.4,0-0.6-0.2-0.6-0.5C13.8,72.4,14.9,71.9,15.7,71.2z
		 M25.7,58.5c0.6,0,1,0.4,1,1c0,0.6-0.4,1-1,1s-1-0.4-1-1C24.7,58.9,25.1,58.5,25.7,58.5z M25.7,63.4c0.6,0,1,0.4,1,1
		c0,0.6-0.4,1-1,1s-1-0.4-1-1C24.7,63.9,25.1,63.4,25.7,63.4z"/>
</g>
<g>
	<path d="M33.5,55.1V58l1-0.3v1.8l-1,0.3v3.4l1-0.3v1.8l-1,0.3v3.1H33v-3l-1.9,0.6v3h-0.5v-2.8l-1,0.3v-1.8l1-0.3v-3.4l-1,0.3v-1.8
		l1-0.3v-3.1h0.5v3l1.9-0.6v-3H33.5z M33,59.9l-1.9,0.6V64l1.9-0.6V59.9z"/>
</g>
<g>
	<path d="M39.7,62.6v2.8l1-0.3v1.8l-1,0.3v3.4l1-0.3v1.8l-1,0.3v3.1h-0.5v-3l-1.9,0.6v3h-0.5v-2.8l-1,0.3v-1.8l1-0.3v-3.4l-1,0.3
		v-1.8l1-0.3v-3.1h0.5v3l1.9-0.6v-3H39.7z M39.2,67.4L37.3,68v3.4l1.9-0.6V67.4z"/>
</g>
<g>
	<path d="M45.9,52.7v2.8l1-0.3V57l-1,0.3v3.4l1-0.3v1.8l-1,0.3v3.1h-0.5v-3l-1.9,0.6v3H43v-2.8l-1,0.3V62l1-0.3v-3.4l-1,0.3v-1.8
		l1-0.3v-3.1h0.5v3l1.9-0.6v-3H45.9z M45.4,57.4l-1.9,0.6v3.4l1.9-0.6V57.4z"/>
</g>
<rect x="53.7" y="34.1" width="10.5" height="0.8"/>
<rect x="53.7" y="39.1" width="10.5" height="0.8"/>
<rect x="53.7" y="44.1" width="10.5" height="0.8"/>
<rect x="62" y="17.2" width="0.5" height="26.5"/>
<g>
	<path d="M55.6,45.3c0-1.8,2.5-3.5,4.5-3.5c1.3,0,2.3,0.7,2.3,1.7c0,1.7-2.5,3.5-4.6,3.5C56.6,47,55.6,46.4,55.6,45.3z"/>
</g>
<g>
	<path d="M55.6,40.3c0-1.8,2.5-3.5,4.5-3.5c1.3,0,2.3,0.7,2.3,1.7c0,1.7-2.5,3.5-4.6,3.5C56.6,42.1,55.6,41.4,55.6,40.3z"/>
</g>
<g>
	<path d="M55.6,35.4c0-1.8,2.5-3.5,4.5-3.5c1.3,0,2.3,0.7,2.3,1.7c0,1.7-2.5,3.5-4.6,3.5C56.6,37.1,55.6,36.5,55.6,35.4z"/>
</g>
<rect x="117.3" y="34.1" width="10.5" height="0.8"/>
<rect x="117.3" y="39.1" width="10.5" height="0.8"/>
<rect x="125.6" y="9.7" width="0.5" height="29"/>
<g>
	<path d="M119.1,40.3c0-1.8,2.5-3.5,4.5-3.5c1.3,0,2.3,0.7,2.3,1.7c0,1.7-2.5,3.5-4.6,3.5C120.1,42.1,119.1,41.4,119.1,40.3z"/>
</g>
<g>
	<path d="M119.1,35.4c0-1.8,2.5-3.5,4.5-3.5c1.3,0,2.3,0.7,2.3,1.7c0,1.7-2.5,3.5-4.6,3.5C120.1,37.1,119.1,36.5,119.1,35.4z"/>
</g>
<g>
	<path d="M119.1,27.9c0-1.8,2.5-3.5,4.5-3.5c1.3,0,2.3,0.7,2.3,1.7c0,1.7-2.5,3.5-4.6,3.5C120.1,29.7,119.1,29,119.1,27.9z"/>
</g>
<rect x="181" y="34.1" width="10.5" height="0.8"/>
<rect x="189.3" y="4.8" width="0.5" height="29"/>
<g>
	<path d="M182.9,35.4c0-1.8,2.5-3.5,4.5-3.5c1.3,0,2.3,0.7,2.3,1.7c0,1.7-2.5,3.5-4.6,3.5C183.8,37.1,182.9,36.5,182.9,35.4z"/>
</g>
<g>
	<path d="M182.9,27.9c0-1.8,2.5-3.5,4.5-3.5c1.3,0,2.3,0.7,2.3,1.7c0,1.7-2.5,3.5-4.6,3.5C183.8,29.7,182.9,29,182.9,27.9z"/>
</g>
<g>
	<path d="M182.9,23c0-1.8,2.5-3.5,4.5-3.5c1.3,0,2.3,0.7,2.3,1.7c0,1.7-2.5,3.5-4.6,3.5C183.8,24.7,182.9,24.1,182.9,23z"/>
</g>
<rect x="252.8" y="1" width="0.5" height="25.3"/>
<g>
	<path d="M246.4,27.9c0-1.8,2.5-3.5,4.5-3.5c1.3,0,2.3,0.7,2.3,1.7c0,1.7-2.5,3.5-4.6,3.5C247.4,29.7,246.4,29,246.4,27.9z"/>
</g>
<g>
	<path d="M246.4,23c0-1.8,2.5-3.5,4.5-3.5c1.3,0,2.3,0.7,2.3,1.7c0,1.7-2.5,3.5-4.6,3.5C247.4,24.7,246.4,24.1,246.4,23z"/>
</g>
<g>
	<path d="M246.4,18c0-1.8,2.5-3.5,4.5-3.5c1.3,0,2.3,0.7,2.3,1.7c0,1.7-2.5,3.5-4.6,3.5C247.4,19.7,246.4,19.1,246.4,18z"/>
</g>
<rect x="308.3" y="34.1" width="10.5" height="0.8"/>
<rect x="316.6" y="4.8" width="0.5" height="29"/>
<g>
	<path d="M310.1,35.4c0-1.8,2.5-3.5,4.5-3.5c1.3,0,2.3,0.7,2.3,1.7c0,1.7-2.5,3.5-4.6,3.5C311.1,37.1,310.1,36.5,310.1,35.4z"/>
</g>
<g>
	<path d="M310.1,27.9c0-1.8,2.5-3.5,4.5-3.5c1.3,0,2.3,0.7,2.3,1.7c0,1.7-2.5,3.5-4.6,3.5C311.1,29.7,310.1,29,310.1,27.9z"/>
</g>
<g>
	<path d="M310.1,23c0-1.8,2.5-3.5,4.5-3.5c1.3,0,2.3,0.7,2.3,1.7c0,1.7-2.5,3.5-4.6,3.5C311.1,24.7,310.1,24.1,310.1,23z"/>
</g>
<rect x="371.8" y="34.1" width="10.5" height="0.8"/>
<rect x="371.8" y="39.1" width="10.5" height="0.8"/>
<rect x="380.1" y="9.7" width="0.5" height="29"/>
<g>
	<path d="M373.7,40.3c0-1.8,2.5-3.5,4.5-3.5c1.3,0,2.3,0.7,2.3,1.7c0,1.7-2.5,3.5-4.6,3.5C374.6,42.1,373.7,41.4,373.7,40.3z"/>
</g>
<g>
	<path d="M373.7,35.4c0-1.8,2.5-3.5,4.5-3.5c1.3,0,2.3,0.7,2.3,1.7c0,1.7-2.5,3.5-4.6,3.5C374.6,37.1,373.7,36.5,373.7,35.4z"/>
</g>
<g>
	<path d="M373.7,27.9c0-1.8,2.5-3.5,4.5-3.5c1.3,0,2.3,0.7,2.3,1.7c0,1.7-2.5,3.5-4.6,3.5C374.6,29.7,373.7,29,373.7,27.9z"/>
</g>
<rect x="435.5" y="34.1" width="10.7" height="0.8"/>
<rect x="435.5" y="39.1" width="10.7" height="0.8"/>
<rect x="435.5" y="44.1" width="10.7" height="0.8"/>
<rect x="444" y="17.2" width="0.5" height="26.5"/>
<g>
	<path d="M441.7,41.7c1.6,0,2.7,0.7,2.7,2c0,1.9-2.3,3.4-4.5,3.4c-1.3,0-2.4-0.7-2.4-1.8C437.4,43.5,439.6,41.7,441.7,41.7z
		 M437.8,45.6c0,0.6,0.4,0.9,1.1,0.9c1.4,0,4.9-2.1,4.9-3.3c0-0.6-0.4-0.9-1.1-0.9C441.5,42.3,437.8,44.4,437.8,45.6z"/>
</g>
<g>
	<path d="M441.7,36.8c1.6,0,2.7,0.7,2.7,2c0,1.9-2.3,3.4-4.5,3.4c-1.3,0-2.4-0.7-2.4-1.8C437.4,38.6,439.6,36.8,441.7,36.8z
		 M437.8,40.6c0,0.6,0.4,0.9,1.1,0.9c1.4,0,4.9-2.1,4.9-3.3c0-0.6-0.4-0.9-1.1-0.9C441.5,37.4,437.8,39.4,437.8,40.6z"/>
</g>
<g>
	<path d="M441.7,31.8c1.6,0,2.7,0.7,2.7,2c0,1.9-2.3,3.4-4.5,3.4c-1.3,0-2.4-0.7-2.4-1.8C437.4,33.6,439.6,31.8,441.7,31.8z
		 M437.8,35.7c0,0.6,0.4,0.9,1.1,0.9c1.4,0,4.9-2.1,4.9-3.3c0-0.6-0.4-0.9-1.1-0.9C441.5,32.4,437.8,34.4,437.8,35.7z"/>
</g>
<rect x="62" y="52" width="0.5" height="26.5"/>
<g>
	<path d="M55.6,80.2c0-1.8,2.5-3.5,4.5-3.5c1.3,0,2.3,0.7,2.3,1.7c0,1.7-2.5,3.5-4.6,3.5C56.6,81.9,55.6,81.3,55.6,80.2z"/>
</g>
<g>
	<path d="M55.6,75.2c0-1.8,2.5-3.5,4.5-3.5c1.3,0,2.3,0.7,2.3,1.7c0,1.7-2.5,3.5-4.6,3.5C56.6,76.9,55.6,76.3,55.6,75.2z"/>
</g>
<g>
	<path d="M55.6,70.2c0-1.8,2.5-3.5,4.5-3.5c1.3,0,2.3,0.7,2.3,1.7c0,1.7-2.5,3.5-4.6,3.5C56.6,72,55.6,71.3,55.6,70.2z"/>
</g>
<rect x="125.6" y="47.1" width="0.5" height="26.5"/>
<g>
	<path d="M119.1,75.2c0-1.8,2.5-3.5,4.5-3.5c1.3,0,2.3,0.7,2.3,1.7c0,1.7-2.5,3.5-4.6,3.5C120.1,76.9,119.1,76.3,119.1,75.2z"/>
</g>
<g>
	<path d="M119.1,70.2c0-1.8,2.5-3.5,4.5-3.5c1.3,0,2.3,0.7,2.3,1.7c0,1.7-2.5,3.5-4.6,3.5C120.1,72,119.1,71.3,119.1,70.2z"/>
</g>
<g>
	<path d="M119.1,62.8c0-1.8,2.5-3.5,4.5-3.5c1.3,0,2.3,0.7,2.3,1.7c0,1.7-2.5,3.5-4.6,3.5C120.1,64.5,119.1,63.9,119.1,62.8z"/>
</g>
<rect x="182.8" y="57.8" width="0.5" height="27.7"/>
<g>
	<path d="M182.9,57.8c0-1.8,2.5-3.5,4.5-3.5c1.3,0,2.3,0.7,2.3,1.7c0,1.7-2.5,3.5-4.6,3.5C183.8,59.6,182.9,58.9,182.9,57.8z"/>
</g>
<g>
	<path d="M182.9,62.8c0-1.8,2.5-3.5,4.5-3.5c1.3,0,2.3,0.7,2.3,1.7c0,1.7-2.5,3.5-4.6,3.5C183.8,64.5,182.9,63.9,182.9,62.8z"/>
</g>
<g>
	<path d="M182.9,70.2c0-1.8,2.5-3.5,4.5-3.5c1.3,0,2.3,0.7,2.3,1.7c0,1.7-2.5,3.5-4.6,3.5C183.8,72,182.9,71.3,182.9,70.2z"/>
</g>
<rect x="244.5" y="51.6" width="10.5" height="0.8"/>
<rect x="246.3" y="52.8" width="0.5" height="26.5"/>
<g>
	<path d="M246.4,52.9c0-1.8,2.5-3.5,4.5-3.5c1.3,0,2.3,0.7,2.3,1.7c0,1.7-2.5,3.5-4.6,3.5C247.4,54.6,246.4,54,246.4,52.9z"/>
</g>
<g>
	<path d="M246.4,57.8c0-1.8,2.5-3.5,4.5-3.5c1.3,0,2.3,0.7,2.3,1.7c0,1.7-2.5,3.5-4.6,3.5C247.4,59.6,246.4,58.9,246.4,57.8z"/>
</g>
<g>
	<path d="M246.4,62.8c0-1.8,2.5-3.5,4.5-3.5c1.3,0,2.3,0.7,2.3,1.7c0,1.7-2.5,3.5-4.6,3.5C247.4,64.5,246.4,63.9,246.4,62.8z"/>
</g>
<rect x="310" y="57.8" width="0.5" height="27.7"/>
<g>
	<path d="M310.1,57.8c0-1.8,2.5-3.5,4.5-3.5c1.3,0,2.3,0.7,2.3,1.7c0,1.7-2.5,3.5-4.6,3.5C311.1,59.6,310.1,58.9,310.1,57.8z"/>
</g>
<g>
	<path d="M310.1,62.8c0-1.8,2.5-3.5,4.5-3.5c1.3,0,2.3,0.7,2.3,1.7c0,1.7-2.5,3.5-4.6,3.5C311.1,64.5,310.1,63.9,310.1,62.8z"/>
</g>
<g>
	<path d="M310.1,70.2c0-1.8,2.5-3.5,4.5-3.5c1.3,0,2.3,0.7,2.3,1.7c0,1.7-2.5,3.5-4.6,3.5C311.1,72,310.1,71.3,310.1,70.2z"/>
</g>
<rect x="380.1" y="47.1" width="0.5" height="26.5"/>
<g>
	<path d="M373.7,75.2c0-1.8,2.5-3.5,4.5-3.5c1.3,0,2.3,0.7,2.3,1.7c0,1.7-2.5,3.5-4.6,3.5C374.6,76.9,373.7,76.3,373.7,75.2z"/>
</g>
<g>
	<path d="M373.7,70.2c0-1.8,2.5-3.5,4.5-3.5c1.3,0,2.3,0.7,2.3,1.7c0,1.7-2.5,3.5-4.6,3.5C374.6,72,373.7,71.3,373.7,70.2z"/>
</g>
<g>
	<path d="M373.7,62.8c0-1.8,2.5-3.5,4.5-3.5c1.3,0,2.3,0.7,2.3,1.7c0,1.7-2.5,3.5-4.6,3.5C374.6,64.5,373.7,63.9,373.7,62.8z"/>
</g>
<rect x="444" y="52" width="0.5" height="26.5"/>
<g>
	<path d="M441.7,76.6c1.6,0,2.7,0.7,2.7,2c0,1.9-2.3,3.4-4.5,3.4c-1.3,0-2.4-0.7-2.4-1.8C437.4,78.4,439.6,76.6,441.7,76.6z
		 M437.8,80.5c0,0.6,0.4,0.9,1.1,0.9c1.4,0,4.9-2.1,4.9-3.3c0-0.6-0.4-0.9-1.1-0.9C441.5,77.2,437.8,79.2,437.8,80.5z"/>
</g>
<g>
	<path d="M441.7,71.7c1.6,0,2.7,0.7,2.7,2c0,1.9-2.3,3.4-4.5,3.4c-1.3,0-2.4-0.7-2.4-1.8C437.4,73.4,439.6,71.7,441.7,71.7z
		 M437.8,75.5c0,0.6,0.4,0.9,1.1,0.9c1.4,0,4.9-2.1,4.9-3.3c0-0.6-0.4-0.9-1.1-0.9C441.5,72.3,437.8,74.3,437.8,75.5z"/>
</g>
<g>
	<path d="M441.7,66.7c1.6,0,2.7,0.7,2.7,2c0,1.9-2.3,3.4-4.5,3.4c-1.3,0-2.4-0.7-2.4-1.8C437.4,68.5,439.6,66.7,441.7,66.7z
		 M437.8,70.5c0,0.6,0.4,0.9,1.1,0.9c1.4,0,4.9-2.1,4.9-3.3c0-0.6-0.4-0.9-1.1-0.9C441.5,67.3,437.8,69.3,437.8,70.5z"/>
</g>
</svg>
