<?xml version="1.0" encoding="utf-8"?>

<!--
	ScaleBook
	Copyright (c) Leland Jansen 2015. All rights reserved.
-->

<!DOCTYPE svg PUBLIC "-//W3C//DTD SVG 1.1//EN" "http://www.w3.org/Graphics/SVG/1.1/DTD/svg11.dtd">
<svg version="1.1" id="Layer_1" xmlns="http://www.w3.org/2000/svg" xmlns:xlink="http://www.w3.org/1999/xlink" x="0px" y="0px"
	 viewBox="0 0 552.9 85.5" enable-background="new 0 0 552.9 85.5" xml:space="preserve">
<rect x="8.4" y="9.7" width="0.8" height="67.1"/>
<g>
	<path d="M7.4,10.4c-1.9,1.1-3.6,5.8-3.6,9.5c0,2.3,1.4,9.9,1.4,12.3c0,5-1.5,8.7-4.6,11.1c3,2.4,4.6,6.1,4.6,11.1
		c0,2.3-1.4,9.9-1.4,12.3c0,3.8,1.7,8.5,3.6,9.5v0.7c-3.5-2.3-5.8-8.3-5.8-13.1c0-2.1,1.7-9.4,1.7-11.5c0-3.8-1-6.6-2.9-8.3
		C0.1,43.7,0,43.5,0,43.3c0-0.2,0.1-0.4,0.5-0.7c1.9-1.7,2.9-4.2,2.9-7.6c0-2.1-1.7-10.1-1.7-12.2c0-5.2,2.1-10.4,5.8-13.1V10.4z"/>
</g>
<rect x="547.8" y="9.7" width="0.8" height="67.1"/>
<rect x="550.4" y="9.7" width="2.5" height="67.1"/>
<rect x="8.5" y="29.3" width="544.4" height="0.5"/>
<rect x="8.5" y="24.4" width="544.4" height="0.5"/>
<rect x="8.5" y="19.4" width="544.4" height="0.5"/>
<rect x="8.5" y="14.4" width="544.4" height="0.5"/>
<rect x="8.5" y="9.5" width="544.4" height="0.5"/>
<g>
	<path d="M20.3,29.4c-4.2,0-8.1-3.1-8.1-6.9c0-3.2,2.3-6.7,6.8-10.5c-0.3-1.2-0.4-2.4-0.4-3.6c0-3.5,1.2-6.8,3.2-8.5
		c1.8,2.5,2.7,4.9,2.7,7.1c0,2.9-1.3,5.6-4.3,8.1l0.9,4.2c0.5,0,0.8-0.1,0.8-0.1c2.6,0,4.8,2,4.8,4.7c0,1.9-1.4,3.7-3.6,4.8
		c0-0.1,0.9,3.8,0.9,4.3c0,2.5-2.3,4.2-4.9,4.2c-2,0-3.6-1.3-3.6-3.4c0-1.4,1-2.6,2.4-2.6c1.3,0,2.3,1.3,2.3,2.5
		c0,1.4-1.2,2.3-2.7,2.5c0.6,0.3,1.2,0.5,1.9,0.5c2.1,0,4.1-1.6,4.1-3.6c0-0.2,0-0.4-0.1-0.6l-0.8-3.7
		C21.9,29.3,21.2,29.4,20.3,29.4z M18.1,24.2c0,1,0.5,1.9,1.6,2.5c-1.8-0.3-3-1.4-3-3.1c0-2,1.7-3.7,3.8-4.1l-0.8-4
		C16,18.3,14,21,14,23.6c0,2.9,2.8,5.3,6,5.3c0.9,0,1.7-0.2,2.4-0.5L21,21.6C19.4,21.8,18.1,22.8,18.1,24.2z M22.1,2.8
		c-1.6,0-2.9,3.7-2.9,7c0,0.7,0,1.3,0.2,1.9c2.7-2.4,4-4.5,4-6.5c0-0.9-0.3-1.7-1-2.4C22.4,2.9,22.3,2.8,22.1,2.8z M24.9,24.7
		c0-1.6-1.2-3.3-2.9-3.3c-0.1,0-0.2,0-0.5,0l1.4,6.6C24.2,27.2,24.9,26,24.9,24.7z"/>
</g>
<g>
	<path d="M29.5,11.3h0.6L30,17.6c0.4-0.7,1-1,1.8-1c1.2,0,2.2,0.8,2.2,1.9c0,0.8-0.5,1.8-1.7,2.7l-2.8,2.1V11.3z M30.1,18.2
		C30,19,30,19.6,30,20.2c0,1,0,1.6,0.1,2c1-0.7,2.4-2.6,2.4-3.7c0-0.6-0.5-1.1-1.1-1.1C30.8,17.4,30.4,17.7,30.1,18.2z"/>
</g>
<g>
	<path d="M35.1,3.9h0.6l-0.1,6.2c0.4-0.7,1-1,1.8-1c1.2,0,2.2,0.8,2.2,1.9c0,0.8-0.5,1.8-1.7,2.7l-2.8,2.1V3.9z M35.7,10.8
		c-0.1,0.8-0.1,1.4-0.1,1.9c0,1,0,1.6,0.1,2c1-0.7,2.4-2.6,2.4-3.7c0-0.6-0.5-1.1-1.1-1.1C36.4,10,36,10.2,35.7,10.8z"/>
</g>
<g>
	<path d="M40.7,13.8h0.6l-0.1,6.2c0.4-0.7,1-1,1.8-1c1.2,0,2.2,0.8,2.2,1.9c0,0.8-0.5,1.8-1.7,2.7l-2.8,2.1V13.8z M41.3,20.7
		c-0.1,0.8-0.1,1.4-0.1,1.9c0,1,0,1.6,0.1,2c1-0.7,2.4-2.6,2.4-3.7c0-0.6-0.5-1.1-1.1-1.1C42,19.9,41.6,20.2,41.3,20.7z"/>
</g>
<g>
	<path d="M46.3,6.4h0.6l-0.1,6.2c0.4-0.7,1-1,1.8-1c1.2,0,2.2,0.8,2.2,1.9c0,0.8-0.5,1.8-1.7,2.7l-2.8,2.1V6.4z M46.9,13.3
		c-0.1,0.8-0.1,1.4-0.1,1.9c0,1,0,1.6,0.1,2c1-0.7,2.4-2.6,2.4-3.7c0-0.6-0.5-1.1-1.1-1.1C47.6,12.4,47.2,12.7,46.9,13.3z"/>
</g>
<rect x="8.5" y="76.6" width="544.4" height="0.5"/>
<rect x="8.5" y="71.6" width="544.4" height="0.5"/>
<rect x="8.5" y="66.7" width="544.4" height="0.5"/>
<rect x="8.5" y="61.7" width="544.4" height="0.5"/>
<rect x="8.5" y="56.8" width="544.4" height="0.5"/>
<g>
	<path d="M15.7,71.2c2.9-2.6,4.7-6.1,4.7-9.2c0-2.5-1.4-4.4-3.7-4.4c-1.6,0-3.4,1.3-3.4,2.7c0,0.2,0,0.3,0.1,0.3
		c-0.1,0,0.6-0.6,1.4-0.6c0.9,0,1.5,0.8,1.5,1.7c0,1.2-0.9,2.2-2.1,2.2c-1.2,0-2.1-1.3-2.1-2.8c0-2.3,2.3-4.1,4.8-4.1
		c4.7,0,5.9,3.2,5.9,5.8c0,1.6-0.4,2.9-2,5.3c-1.9,3.1-6.4,5.3-8.1,5.3c-0.4,0-0.6-0.2-0.6-0.5C13.8,72.4,14.9,71.9,15.7,71.2z
		 M25.7,58.5c0.6,0,1,0.4,1,1c0,0.6-0.4,1-1,1s-1-0.4-1-1C24.7,58.9,25.1,58.5,25.7,58.5z M25.7,63.4c0.6,0,1,0.4,1,1
		c0,0.6-0.4,1-1,1s-1-0.4-1-1C24.7,63.9,25.1,63.4,25.7,63.4z"/>
</g>
<g>
	<path d="M29.5,63.6h0.6L30,69.8c0.4-0.7,1-1,1.8-1c1.2,0,2.2,0.8,2.2,1.9c0,0.8-0.5,1.8-1.7,2.7l-2.8,2.1V63.6z M30.1,70.5
		C30,71.2,30,71.9,30,72.4c0,1,0,1.6,0.1,2c1-0.7,2.4-2.6,2.4-3.7c0-0.6-0.5-1.1-1.1-1.1C30.8,69.6,30.4,69.9,30.1,70.5z"/>
</g>
<g>
	<path d="M35.1,56.1h0.6l-0.1,6.2c0.4-0.7,1-1,1.8-1c1.2,0,2.2,0.8,2.2,1.9c0,0.8-0.5,1.8-1.7,2.7l-2.8,2.1V56.1z M35.7,63
		c-0.1,0.8-0.1,1.4-0.1,1.9c0,1,0,1.6,0.1,2c1-0.7,2.4-2.6,2.4-3.7c0-0.6-0.5-1.1-1.1-1.1C36.4,62.2,36,62.5,35.7,63z"/>
</g>
<g>
	<path d="M40.7,66h0.6l-0.1,6.2c0.4-0.7,1-1,1.8-1c1.2,0,2.2,0.8,2.2,1.9c0,0.8-0.5,1.8-1.7,2.7L40.7,78V66z M41.3,72.9
		c-0.1,0.8-0.1,1.4-0.1,1.9c0,1,0,1.6,0.1,2c1-0.7,2.4-2.6,2.4-3.7c0-0.6-0.5-1.1-1.1-1.1C42,72.1,41.6,72.4,41.3,72.9z"/>
</g>
<g>
	<path d="M46.3,58.6h0.6l-0.1,6.2c0.4-0.7,1-1,1.8-1c1.2,0,2.2,0.8,2.2,1.9c0,0.8-0.5,1.8-1.7,2.7l-2.8,2.1V58.6z M46.9,65.5
		c-0.1,0.8-0.1,1.4-0.1,1.9c0,1,0,1.6,0.1,2c1-0.7,2.4-2.6,2.4-3.7c0-0.6-0.5-1.1-1.1-1.1C47.6,64.7,47.2,65,46.9,65.5z"/>
</g>
<rect x="57.4" y="34.1" width="10.5" height="0.8"/>
<rect x="57.4" y="39.1" width="10.5" height="0.8"/>
<rect x="57.4" y="44.1" width="10.5" height="0.8"/>
<rect x="65.7" y="17.2" width="0.5" height="26.5"/>
<g>
	<path d="M59.3,45.3c0-1.8,2.5-3.5,4.5-3.5c1.3,0,2.3,0.7,2.3,1.7c0,1.7-2.5,3.5-4.6,3.5C60.3,47,59.3,46.4,59.3,45.3z"/>
</g>
<g>
	<path d="M59.3,40.3c0-1.8,2.5-3.5,4.5-3.5c1.3,0,2.3,0.7,2.3,1.7c0,1.7-2.5,3.5-4.6,3.5C60.3,42.1,59.3,41.4,59.3,40.3z"/>
</g>
<g>
	<path d="M59.3,35.4c0-1.8,2.5-3.5,4.5-3.5c1.3,0,2.3,0.7,2.3,1.7c0,1.7-2.5,3.5-4.6,3.5C60.3,37.1,59.3,36.5,59.3,35.4z"/>
</g>
<rect x="120.5" y="34.1" width="10.5" height="0.8"/>
<rect x="120.5" y="39.1" width="10.5" height="0.8"/>
<rect x="128.8" y="9.7" width="0.5" height="29"/>
<g>
	<path d="M122.4,40.3c0-1.8,2.5-3.5,4.5-3.5c1.3,0,2.3,0.7,2.3,1.7c0,1.7-2.5,3.5-4.6,3.5C123.4,42.1,122.4,41.4,122.4,40.3z"/>
</g>
<g>
	<path d="M122.4,35.4c0-1.8,2.5-3.5,4.5-3.5c1.3,0,2.3,0.7,2.3,1.7c0,1.7-2.5,3.5-4.6,3.5C123.4,37.1,122.4,36.5,122.4,35.4z"/>
</g>
<g>
	<path d="M122.4,27.9c0-1.8,2.5-3.5,4.5-3.5c1.3,0,2.3,0.7,2.3,1.7c0,1.7-2.5,3.5-4.6,3.5C123.4,29.7,122.4,29,122.4,27.9z"/>
</g>
<rect x="183.8" y="34.1" width="10.5" height="0.8"/>
<rect x="192.1" y="4.8" width="0.5" height="29"/>
<g>
	<path d="M185.6,35.4c0-1.8,2.5-3.5,4.5-3.5c1.3,0,2.3,0.7,2.3,1.7c0,1.7-2.5,3.5-4.6,3.5C186.6,37.1,185.6,36.5,185.6,35.4z"/>
</g>
<g>
	<path d="M185.6,27.9c0-1.8,2.5-3.5,4.5-3.5c1.3,0,2.3,0.7,2.3,1.7c0,1.7-2.5,3.5-4.6,3.5C186.6,29.7,185.6,29,185.6,27.9z"/>
</g>
<g>
	<path d="M185.6,23c0-1.8,2.5-3.5,4.5-3.5c1.3,0,2.3,0.7,2.3,1.7c0,1.7-2.5,3.5-4.6,3.5C186.6,24.7,185.6,24.1,185.6,23z"/>
</g>
<rect x="255.2" y="1" width="0.5" height="25.3"/>
<g>
	<path d="M248.7,27.9c0-1.8,2.5-3.5,4.5-3.5c1.3,0,2.3,0.7,2.3,1.7c0,1.7-2.5,3.5-4.6,3.5C249.7,29.7,248.7,29,248.7,27.9z"/>
</g>
<g>
	<path d="M248.7,23c0-1.8,2.5-3.5,4.5-3.5c1.3,0,2.3,0.7,2.3,1.7c0,1.7-2.5,3.5-4.6,3.5C249.7,24.7,248.7,24.1,248.7,23z"/>
</g>
<g>
	<path d="M248.7,18c0-1.8,2.5-3.5,4.5-3.5c1.3,0,2.3,0.7,2.3,1.7c0,1.7-2.5,3.5-4.6,3.5C249.7,19.7,248.7,19.1,248.7,18z"/>
</g>
<rect x="310" y="34.1" width="10.5" height="0.8"/>
<rect x="318.3" y="4.8" width="0.5" height="29"/>
<g>
	<path d="M311.8,35.4c0-1.8,2.5-3.5,4.5-3.5c1.3,0,2.3,0.7,2.3,1.7c0,1.7-2.5,3.5-4.6,3.5C312.8,37.1,311.8,36.5,311.8,35.4z"/>
</g>
<g>
	<path d="M311.8,27.9c0-1.8,2.5-3.5,4.5-3.5c1.3,0,2.3,0.7,2.3,1.7c0,1.7-2.5,3.5-4.6,3.5C312.8,29.7,311.8,29,311.8,27.9z"/>
</g>
<g>
	<path d="M311.8,23c0-1.8,2.5-3.5,4.5-3.5c1.3,0,2.3,0.7,2.3,1.7c0,1.7-2.5,3.5-4.6,3.5C312.8,24.7,311.8,24.1,311.8,23z"/>
</g>
<rect x="373.2" y="34.1" width="10.5" height="0.8"/>
<rect x="373.2" y="39.1" width="10.5" height="0.8"/>
<rect x="381.5" y="9.7" width="0.5" height="29"/>
<g>
	<path d="M375.1,40.3c0-1.8,2.5-3.5,4.5-3.5c1.3,0,2.3,0.7,2.3,1.7c0,1.7-2.5,3.5-4.6,3.5C376,42.1,375.1,41.4,375.1,40.3z"/>
</g>
<g>
	<path d="M375.1,35.4c0-1.8,2.5-3.5,4.5-3.5c1.3,0,2.3,0.7,2.3,1.7c0,1.7-2.5,3.5-4.6,3.5C376,37.1,375.1,36.5,375.1,35.4z"/>
</g>
<g>
	<path d="M375.1,27.9c0-1.8,2.5-3.5,4.5-3.5c1.3,0,2.3,0.7,2.3,1.7c0,1.7-2.5,3.5-4.6,3.5C376,29.7,375.1,29,375.1,27.9z"/>
</g>
<rect x="436.3" y="34.1" width="10.7" height="0.8"/>
<rect x="436.3" y="39.1" width="10.7" height="0.8"/>
<rect x="436.3" y="44.1" width="10.7" height="0.8"/>
<rect x="444.7" y="17.2" width="0.5" height="26.5"/>
<g>
	<path d="M442.4,41.7c1.6,0,2.7,0.7,2.7,2c0,1.9-2.3,3.4-4.5,3.4c-1.3,0-2.4-0.7-2.4-1.8C438.2,43.5,440.4,41.7,442.4,41.7z
		 M438.6,45.6c0,0.6,0.4,0.9,1.1,0.9c1.4,0,4.9-2.1,4.9-3.3c0-0.6-0.4-0.9-1.1-0.9C442.3,42.3,438.6,44.4,438.6,45.6z"/>
</g>
<g>
	<path d="M442.4,36.8c1.6,0,2.7,0.7,2.7,2c0,1.9-2.3,3.4-4.5,3.4c-1.3,0-2.4-0.7-2.4-1.8C438.2,38.6,440.4,36.8,442.4,36.8z
		 M438.6,40.6c0,0.6,0.4,0.9,1.1,0.9c1.4,0,4.9-2.1,4.9-3.3c0-0.6-0.4-0.9-1.1-0.9C442.3,37.4,438.6,39.4,438.6,40.6z"/>
</g>
<g>
	<path d="M442.4,31.8c1.6,0,2.7,0.7,2.7,2c0,1.9-2.3,3.4-4.5,3.4c-1.3,0-2.4-0.7-2.4-1.8C438.2,33.6,440.4,31.8,442.4,31.8z
		 M438.6,35.7c0,0.6,0.4,0.9,1.1,0.9c1.4,0,4.9-2.1,4.9-3.3c0-0.6-0.4-0.9-1.1-0.9C442.3,32.4,438.6,34.4,438.6,35.7z"/>
</g>
<rect x="65.7" y="52" width="0.5" height="26.5"/>
<g>
	<path d="M59.3,80.2c0-1.8,2.5-3.5,4.5-3.5c1.3,0,2.3,0.7,2.3,1.7c0,1.7-2.5,3.5-4.6,3.5C60.3,81.9,59.3,81.3,59.3,80.2z"/>
</g>
<g>
	<path d="M59.3,75.2c0-1.8,2.5-3.5,4.5-3.5c1.3,0,2.3,0.7,2.3,1.7c0,1.7-2.5,3.5-4.6,3.5C60.3,76.9,59.3,76.3,59.3,75.2z"/>
</g>
<g>
	<path d="M59.3,70.2c0-1.8,2.5-3.5,4.5-3.5c1.3,0,2.3,0.7,2.3,1.7c0,1.7-2.5,3.5-4.6,3.5C60.3,72,59.3,71.3,59.3,70.2z"/>
</g>
<rect x="128.8" y="47.1" width="0.5" height="26.5"/>
<g>
	<path d="M122.4,75.2c0-1.8,2.5-3.5,4.5-3.5c1.3,0,2.3,0.7,2.3,1.7c0,1.7-2.5,3.5-4.6,3.5C123.4,76.9,122.4,76.3,122.4,75.2z"/>
</g>
<g>
	<path d="M122.4,70.2c0-1.8,2.5-3.5,4.5-3.5c1.3,0,2.3,0.7,2.3,1.7c0,1.7-2.5,3.5-4.6,3.5C123.4,72,122.4,71.3,122.4,70.2z"/>
</g>
<g>
	<path d="M122.4,62.8c0-1.8,2.5-3.5,4.5-3.5c1.3,0,2.3,0.7,2.3,1.7c0,1.7-2.5,3.5-4.6,3.5C123.4,64.5,122.4,63.9,122.4,62.8z"/>
</g>
<rect x="185.6" y="57.8" width="0.5" height="27.7"/>
<g>
	<path d="M185.6,57.8c0-1.8,2.5-3.5,4.5-3.5c1.3,0,2.3,0.7,2.3,1.7c0,1.7-2.5,3.5-4.6,3.5C186.6,59.6,185.6,58.9,185.6,57.8z"/>
</g>
<g>
	<path d="M185.6,62.8c0-1.8,2.5-3.5,4.5-3.5c1.3,0,2.3,0.7,2.3,1.7c0,1.7-2.5,3.5-4.6,3.5C186.6,64.5,185.6,63.9,185.6,62.8z"/>
</g>
<g>
	<path d="M185.6,70.2c0-1.8,2.5-3.5,4.5-3.5c1.3,0,2.3,0.7,2.3,1.7c0,1.7-2.5,3.5-4.6,3.5C186.6,72,185.6,71.3,185.6,70.2z"/>
</g>
<rect x="246.9" y="51.6" width="10.5" height="0.8"/>
<rect x="248.7" y="52.8" width="0.5" height="26.5"/>
<g>
	<path d="M248.7,52.9c0-1.8,2.5-3.5,4.5-3.5c1.3,0,2.3,0.7,2.3,1.7c0,1.7-2.5,3.5-4.6,3.5C249.7,54.6,248.7,54,248.7,52.9z"/>
</g>
<g>
	<path d="M248.7,57.8c0-1.8,2.5-3.5,4.5-3.5c1.3,0,2.3,0.7,2.3,1.7c0,1.7-2.5,3.5-4.6,3.5C249.7,59.6,248.7,58.9,248.7,57.8z"/>
</g>
<g>
	<path d="M248.7,62.8c0-1.8,2.5-3.5,4.5-3.5c1.3,0,2.3,0.7,2.3,1.7c0,1.7-2.5,3.5-4.6,3.5C249.7,64.5,248.7,63.9,248.7,62.8z"/>
</g>
<rect x="311.7" y="57.8" width="0.5" height="27.7"/>
<g>
	<path d="M311.8,57.8c0-1.8,2.5-3.5,4.5-3.5c1.3,0,2.3,0.7,2.3,1.7c0,1.7-2.5,3.5-4.6,3.5C312.8,59.6,311.8,58.9,311.8,57.8z"/>
</g>
<g>
	<path d="M311.8,62.8c0-1.8,2.5-3.5,4.5-3.5c1.3,0,2.3,0.7,2.3,1.7c0,1.7-2.5,3.5-4.6,3.5C312.8,64.5,311.8,63.9,311.8,62.8z"/>
</g>
<g>
	<path d="M311.8,70.2c0-1.8,2.5-3.5,4.5-3.5c1.3,0,2.3,0.7,2.3,1.7c0,1.7-2.5,3.5-4.6,3.5C312.8,72,311.8,71.3,311.8,70.2z"/>
</g>
<rect x="381.5" y="47.1" width="0.5" height="26.5"/>
<g>
	<path d="M375.1,75.2c0-1.8,2.5-3.5,4.5-3.5c1.3,0,2.3,0.7,2.3,1.7c0,1.7-2.5,3.5-4.6,3.5C376,76.9,375.1,76.3,375.1,75.2z"/>
</g>
<g>
	<path d="M375.1,70.2c0-1.8,2.5-3.5,4.5-3.5c1.3,0,2.3,0.7,2.3,1.7c0,1.7-2.5,3.5-4.6,3.5C376,72,375.1,71.3,375.1,70.2z"/>
</g>
<g>
	<path d="M375.1,62.8c0-1.8,2.5-3.5,4.5-3.5c1.3,0,2.3,0.7,2.3,1.7c0,1.7-2.5,3.5-4.6,3.5C376,64.5,375.1,63.9,375.1,62.8z"/>
</g>
<rect x="444.7" y="52" width="0.5" height="26.5"/>
<g>
	<path d="M442.4,76.6c1.6,0,2.7,0.7,2.7,2c0,1.9-2.3,3.4-4.5,3.4c-1.3,0-2.4-0.7-2.4-1.8C438.2,78.4,440.4,76.6,442.4,76.6z
		 M438.6,80.5c0,0.6,0.4,0.9,1.1,0.9c1.4,0,4.9-2.1,4.9-3.3c0-0.6-0.4-0.9-1.1-0.9C442.3,77.2,438.6,79.2,438.6,80.5z"/>
</g>
<g>
	<path d="M442.4,71.7c1.6,0,2.7,0.7,2.7,2c0,1.9-2.3,3.4-4.5,3.4c-1.3,0-2.4-0.7-2.4-1.8C438.2,73.4,440.4,71.7,442.4,71.7z
		 M438.6,75.5c0,0.6,0.4,0.9,1.1,0.9c1.4,0,4.9-2.1,4.9-3.3c0-0.6-0.4-0.9-1.1-0.9C442.3,72.3,438.6,74.3,438.6,75.5z"/>
</g>
<g>
	<path d="M442.4,66.7c1.6,0,2.7,0.7,2.7,2c0,1.9-2.3,3.4-4.5,3.4c-1.3,0-2.4-0.7-2.4-1.8C438.2,68.5,440.4,66.7,442.4,66.7z
		 M438.6,70.5c0,0.6,0.4,0.9,1.1,0.9c1.4,0,4.9-2.1,4.9-3.3c0-0.6-0.4-0.9-1.1-0.9C442.3,67.3,438.6,69.3,438.6,70.5z"/>
</g>
</svg>
