<?xml version="1.0" encoding="utf-8"?>

<!--
	ScaleBook
	Copyright (c) Leland Jansen 2015. All rights reserved.
-->

<!DOCTYPE svg PUBLIC "-//W3C//DTD SVG 1.1//EN" "http://www.w3.org/Graphics/SVG/1.1/DTD/svg11.dtd">
<svg version="1.1" id="Layer_1" xmlns="http://www.w3.org/2000/svg" xmlns:xlink="http://www.w3.org/1999/xlink" x="0px" y="0px"
	 viewBox="0 0 553 204.2" enable-background="new 0 0 553 204.2" xml:space="preserve">
<rect x="8.4" y="15.8" width="0.8" height="67"/>
<g>
	<path d="M7.4,16.4c-1.9,1.1-3.6,5.8-3.6,9.4c0,2.3,1.4,9.9,1.4,12.3c0,5-1.5,8.6-4.6,11.1c3,2.4,4.6,6.1,4.6,11.1
		c0,2.3-1.4,9.9-1.4,12.3c0,3.8,1.7,8.4,3.6,9.5v0.7c-3.5-2.3-5.8-8.2-5.8-13.1c0-2.1,1.7-9.4,1.7-11.5c0-3.8-1-6.6-2.9-8.2
		C0.1,49.6,0,49.4,0,49.2c0-0.2,0.1-0.4,0.5-0.7c1.9-1.7,2.9-4.2,2.9-7.6c0-2.1-1.7-10-1.7-12.2c0-5.2,2.1-10.4,5.8-13.1V16.4z"/>
</g>
<rect x="8.4" y="128.6" width="0.8" height="67"/>
<g>
	<path d="M7.4,129.3c-1.9,1.1-3.6,5.8-3.6,9.4c0,2.3,1.4,9.9,1.4,12.3c0,5-1.5,8.6-4.6,11.1c3,2.4,4.6,6.1,4.6,11.1
		c0,2.3-1.4,9.9-1.4,12.3c0,3.8,1.7,8.4,3.6,9.5v0.7c-3.5-2.3-5.8-8.2-5.8-13.1c0-2.1,1.7-9.4,1.7-11.5c0-3.8-1-6.6-2.9-8.2
		c-0.3-0.3-0.5-0.5-0.5-0.7c0-0.2,0.1-0.4,0.5-0.7c1.9-1.7,2.9-4.2,2.9-7.6c0-2.1-1.7-10-1.7-12.2c0-5.2,2.1-10.4,5.8-13.1V129.3z"
		/>
</g>
<rect x="552.2" y="15.8" width="0.8" height="67"/>
<rect x="547.8" y="128.6" width="0.8" height="67"/>
<rect x="550.4" y="128.6" width="2.5" height="67"/>
<rect x="8.5" y="35.4" width="544.4" height="0.5"/>
<rect x="8.5" y="30.4" width="544.4" height="0.5"/>
<rect x="8.5" y="25.4" width="544.4" height="0.5"/>
<rect x="8.5" y="20.5" width="544.4" height="0.5"/>
<rect x="8.5" y="15.5" width="544.4" height="0.5"/>
<g>
	<path d="M20.3,35.4c-4.2,0-8.1-3.1-8.1-6.9c0-3.2,2.3-6.7,6.8-10.5c-0.3-1.2-0.4-2.4-0.4-3.6c0-3.5,1.2-6.8,3.2-8.5
		c1.8,2.5,2.7,4.9,2.7,7.1c0,2.9-1.3,5.6-4.3,8.1l0.9,4.2c0.5,0,0.8-0.1,0.8-0.1c2.6,0,4.8,2,4.8,4.7c0,1.9-1.4,3.7-3.6,4.8
		c0-0.1,0.9,3.8,0.9,4.3c0,2.5-2.3,4.2-4.9,4.2c-2,0-3.6-1.3-3.6-3.4c0-1.4,1-2.6,2.4-2.6c1.3,0,2.3,1.3,2.3,2.5
		c0,1.4-1.2,2.3-2.7,2.5c0.6,0.3,1.2,0.5,1.9,0.5c2.1,0,4.1-1.6,4.1-3.6c0-0.2,0-0.4-0.1-0.6L22.6,35C21.9,35.3,21.2,35.4,20.3,35.4
		z M18.1,30.2c0,1,0.5,1.9,1.6,2.5c-1.8-0.3-3-1.4-3-3.1c0-2,1.7-3.7,3.8-4.1l-0.8-4C16,24.3,14,27,14,29.7c0,2.9,2.8,5.3,6,5.3
		c0.9,0,1.7-0.2,2.4-0.5L21,27.6C19.4,27.8,18.1,28.8,18.1,30.2z M22.1,8.9c-1.6,0-2.9,3.7-2.9,7c0,0.7,0,1.3,0.2,1.9
		c2.7-2.4,4-4.5,4-6.5c0-0.9-0.3-1.7-1-2.4C22.4,8.9,22.3,8.9,22.1,8.9z M24.9,30.8c0-1.6-1.2-3.3-2.9-3.3c-0.1,0-0.2,0-0.5,0
		l1.4,6.6C24.2,33.2,24.9,32.1,24.9,30.8z"/>
</g>
<polygon fill-rule="evenodd" clip-rule="evenodd" points="43.6,27.2 106.9,26.6 106.9,24.1 43.6,24.7 "/>
<polygon fill-rule="evenodd" clip-rule="evenodd" points="43.6,23.5 106.9,22.9 106.9,20.4 43.6,21 "/>
<rect x="128.1" y="18.2" fill-rule="evenodd" clip-rule="evenodd" width="63.2" height="2.5"/>
<rect x="128.1" y="14.5" fill-rule="evenodd" clip-rule="evenodd" width="63.2" height="2.5"/>
<polygon fill-rule="evenodd" clip-rule="evenodd" points="212.5,17 275.7,15.8 275.7,13.3 212.5,14.5 "/>
<polygon fill-rule="evenodd" clip-rule="evenodd" points="212.5,13.3 275.7,12 275.7,9.6 212.5,10.8 "/>
<polygon fill-rule="evenodd" clip-rule="evenodd" points="299.7,36.8 363.1,31.9 363.1,29.4 299.7,34.4 "/>
<polygon fill-rule="evenodd" clip-rule="evenodd" points="299.7,40.6 363.1,35.6 363.1,33.1 299.7,38.1 "/>
<polygon fill-rule="evenodd" clip-rule="evenodd" points="384.2,31.9 447.5,26.9 447.5,24.4 384.2,29.4 "/>
<polygon fill-rule="evenodd" clip-rule="evenodd" points="384.2,35.6 447.5,30.6 447.5,28.2 384.2,33.1 "/>
<polygon fill-rule="evenodd" clip-rule="evenodd" points="468.5,23.2 531.9,22 531.9,19.5 468.5,20.7 "/>
<polygon fill-rule="evenodd" clip-rule="evenodd" points="468.5,26.9 531.9,25.7 531.9,23.2 468.5,24.4 "/>
<rect x="8.5" y="82.5" width="544.4" height="0.5"/>
<rect x="8.5" y="77.5" width="544.4" height="0.5"/>
<rect x="8.5" y="72.6" width="544.4" height="0.5"/>
<rect x="8.5" y="67.6" width="544.4" height="0.5"/>
<rect x="8.5" y="62.6" width="544.4" height="0.5"/>
<g>
	<path d="M15.7,77.1c2.9-2.6,4.7-6.1,4.7-9.2c0-2.5-1.4-4.4-3.7-4.4c-1.6,0-3.4,1.3-3.4,2.7c0,0.2,0,0.3,0.1,0.3
		c-0.1,0,0.6-0.6,1.4-0.6c0.9,0,1.5,0.8,1.5,1.7c0,1.2-0.9,2.2-2.1,2.2c-1.2,0-2.1-1.3-2.1-2.8c0-2.3,2.3-4.1,4.8-4.1
		c4.7,0,5.9,3.2,5.9,5.8c0,1.6-0.4,2.9-2,5.3c-1.9,3.1-6.4,5.3-8.1,5.3c-0.4,0-0.6-0.2-0.6-0.5C13.8,78.3,14.9,77.8,15.7,77.1z
		 M25.7,64.4c0.6,0,1,0.4,1,1c0,0.6-0.4,1-1,1s-1-0.4-1-1C24.7,64.8,25.1,64.4,25.7,64.4z M25.7,69.3c0.6,0,1,0.4,1,1
		c0,0.6-0.4,1-1,1s-1-0.4-1-1C24.7,69.7,25.1,69.3,25.7,69.3z"/>
</g>
<polygon fill-rule="evenodd" clip-rule="evenodd" points="37.1,87.7 100.4,85.2 100.4,82.7 37.1,85.2 "/>
<polygon fill-rule="evenodd" clip-rule="evenodd" points="37.1,91.4 100.4,88.9 100.4,86.4 37.1,88.9 "/>
<polygon fill-rule="evenodd" clip-rule="evenodd" points="121.6,84 184.9,79 184.9,76.5 121.6,81.5 "/>
<polygon fill-rule="evenodd" clip-rule="evenodd" points="121.6,87.7 184.9,82.7 184.9,80.2 121.6,85.2 "/>
<g>
	<path d="M287.5,81.4c-3.2,0-6.1-2.3-6.1-5.1c0-2.4,1.7-5,5.1-7.9c-0.2-0.9-0.3-1.8-0.3-2.7c0-2.6,0.9-5.1,2.4-6.3
		c1.4,1.9,2,3.7,2,5.3c0,2.2-1,4.2-3.2,6.1l0.7,3.1c0.4,0,0.6,0,0.6,0c2,0,3.6,1.5,3.6,3.5c0,1.4-1.1,2.8-2.7,3.6
		c0-0.1,0.6,2.8,0.6,3.3c0,1.9-1.7,3.2-3.7,3.2c-1.5,0-2.7-1-2.7-2.5c0-1.1,0.7-1.9,1.8-1.9c1,0,1.7,1,1.7,1.9c0,1-0.9,1.7-2,1.8
		c0.4,0.2,0.9,0.3,1.4,0.3c1.6,0,3.1-1.2,3.1-2.7c0-0.1,0-0.3,0-0.5l-0.6-2.8C288.7,81.3,288.2,81.4,287.5,81.4z M285.9,77.4
		c0,0.8,0.4,1.4,1.2,1.9c-1.3-0.2-2.2-1.1-2.2-2.3c0-1.5,1.3-2.8,2.9-3.1l-0.6-3c-2.8,2.1-4.3,4.1-4.3,6.1c0,2.2,2.1,4,4.5,4
		c0.7,0,1.3-0.1,1.8-0.4l-1.1-5.1C286.8,75.7,285.9,76.4,285.9,77.4z M288.9,61.4c-1.2,0-2.2,2.8-2.2,5.3c0,0.5,0,1,0.1,1.4
		c2-1.8,3-3.4,3-4.9c0-0.7-0.3-1.3-0.7-1.8C289.1,61.4,289,61.4,288.9,61.4z M291,77.8c0-1.2-0.9-2.4-2.2-2.4c0,0-0.2,0-0.4,0l1.1,5
		C290.5,79.7,291,78.8,291,77.8z"/>
</g>
<polygon fill-rule="evenodd" clip-rule="evenodd" points="205.9,75.3 269.2,74 269.2,71.6 205.9,72.8 "/>
<polygon fill-rule="evenodd" clip-rule="evenodd" points="205.9,79 269.2,77.8 269.2,75.3 205.9,76.5 "/>
<polygon fill-rule="evenodd" clip-rule="evenodd" points="306.2,74.3 369.6,73.7 369.6,71.2 306.2,71.9 "/>
<polygon fill-rule="evenodd" clip-rule="evenodd" points="306.2,70.6 369.6,70 369.6,67.5 306.2,68.1 "/>
<rect x="390.7" y="65.4" fill-rule="evenodd" clip-rule="evenodd" width="63.2" height="2.5"/>
<rect x="390.7" y="61.6" fill-rule="evenodd" clip-rule="evenodd" width="63.2" height="2.5"/>
<polygon fill-rule="evenodd" clip-rule="evenodd" points="475.1,64.1 538.5,62.9 538.5,60.4 475.1,61.6 "/>
<polygon fill-rule="evenodd" clip-rule="evenodd" points="475.1,60.4 538.5,59.2 538.5,56.7 475.1,57.9 "/>
<rect x="8.5" y="148.2" width="544.4" height="0.5"/>
<rect x="8.5" y="143.2" width="544.4" height="0.5"/>
<rect x="8.5" y="138.3" width="544.4" height="0.5"/>
<rect x="8.5" y="133.3" width="544.4" height="0.5"/>
<rect x="8.5" y="128.4" width="544.4" height="0.5"/>
<g>
	<path d="M20.3,148.3c-4.2,0-8.1-3.1-8.1-6.9c0-3.2,2.3-6.7,6.8-10.5c-0.3-1.2-0.4-2.4-0.4-3.6c0-3.5,1.2-6.8,3.2-8.5
		c1.8,2.5,2.7,4.9,2.7,7.1c0,2.9-1.3,5.6-4.3,8.1l0.9,4.2c0.5,0,0.8-0.1,0.8-0.1c2.6,0,4.8,2,4.8,4.7c0,1.9-1.4,3.7-3.6,4.8
		c0-0.1,0.9,3.8,0.9,4.3c0,2.5-2.3,4.2-4.9,4.2c-2,0-3.6-1.3-3.6-3.4c0-1.4,1-2.6,2.4-2.6c1.3,0,2.3,1.3,2.3,2.5
		c0,1.4-1.2,2.3-2.7,2.5c0.6,0.3,1.2,0.5,1.9,0.5c2.1,0,4.1-1.6,4.1-3.6c0-0.2,0-0.4-0.1-0.6l-0.8-3.7
		C21.9,148.1,21.2,148.3,20.3,148.3z M18.1,143.1c0,1,0.5,1.9,1.6,2.5c-1.8-0.3-3-1.4-3-3.1c0-2,1.7-3.7,3.8-4.1l-0.8-4
		c-3.7,2.8-5.7,5.5-5.7,8.1c0,2.9,2.8,5.3,6,5.3c0.9,0,1.7-0.2,2.4-0.5l-1.4-6.8C19.4,140.7,18.1,141.7,18.1,143.1z M22.1,121.7
		c-1.6,0-2.9,3.7-2.9,7c0,0.7,0,1.3,0.2,1.9c2.7-2.4,4-4.5,4-6.5c0-0.9-0.3-1.7-1-2.4C22.4,121.7,22.3,121.7,22.1,121.7z
		 M24.9,143.6c0-1.6-1.2-3.3-2.9-3.3c-0.1,0-0.2,0-0.5,0l1.4,6.6C24.2,146.1,24.9,144.9,24.9,143.6z"/>
</g>
<polygon fill-rule="evenodd" clip-rule="evenodd" points="37.1,134.8 92.6,136 92.6,133.6 37.1,132.3 "/>
<polygon fill-rule="evenodd" clip-rule="evenodd" points="37.1,138.5 92.6,139.8 92.6,137.3 37.1,136 "/>
<polygon fill-rule="evenodd" clip-rule="evenodd" points="111.1,139.4 166.6,140.1 166.6,137.6 111.1,137 "/>
<polygon fill-rule="evenodd" clip-rule="evenodd" points="111.1,143.2 166.6,143.8 166.6,141.3 111.1,140.7 "/>
<polygon fill-rule="evenodd" clip-rule="evenodd" points="185,144.7 240.5,146 240.5,143.5 185,142.2 "/>
<polygon fill-rule="evenodd" clip-rule="evenodd" points="185,148.4 240.5,149.7 240.5,147.2 185,146 "/>
<polygon fill-rule="evenodd" clip-rule="evenodd" points="266.9,150.9 322.4,153.4 322.4,150.9 266.9,148.4 "/>
<polygon fill-rule="evenodd" clip-rule="evenodd" points="266.9,154.6 322.4,157.1 322.4,154.6 266.9,152.2 "/>
<polygon fill-rule="evenodd" clip-rule="evenodd" points="347.3,129.8 402.8,134.8 402.8,132.3 347.3,127.4 "/>
<polygon fill-rule="evenodd" clip-rule="evenodd" points="347.3,126.1 402.8,131.1 402.8,128.6 347.3,123.6 "/>
<polygon fill-rule="evenodd" clip-rule="evenodd" points="421.3,138.5 476.8,139.8 476.8,137.3 421.3,136 "/>
<polygon fill-rule="evenodd" clip-rule="evenodd" points="421.3,134.8 476.8,136 476.8,133.6 421.3,132.3 "/>
<rect x="8.5" y="195.3" width="544.4" height="0.5"/>
<rect x="8.5" y="190.4" width="544.4" height="0.5"/>
<rect x="8.5" y="185.4" width="544.4" height="0.5"/>
<rect x="8.5" y="180.4" width="544.4" height="0.5"/>
<rect x="8.5" y="175.5" width="544.4" height="0.5"/>
<g>
	<path d="M20.3,195.4c-4.2,0-8.1-3.1-8.1-6.9c0-3.2,2.3-6.7,6.8-10.5c-0.3-1.2-0.4-2.4-0.4-3.6c0-3.5,1.2-6.8,3.2-8.5
		c1.8,2.5,2.7,4.9,2.7,7.1c0,2.9-1.3,5.6-4.3,8.1l0.9,4.2c0.5,0,0.8-0.1,0.8-0.1c2.6,0,4.8,2,4.8,4.7c0,1.9-1.4,3.7-3.6,4.8
		c0-0.1,0.9,3.8,0.9,4.3c0,2.5-2.3,4.2-4.9,4.2c-2,0-3.6-1.3-3.6-3.4c0-1.4,1-2.6,2.4-2.6c1.3,0,2.3,1.3,2.3,2.5
		c0,1.4-1.2,2.3-2.7,2.5c0.6,0.3,1.2,0.5,1.9,0.5c2.1,0,4.1-1.6,4.1-3.6c0-0.2,0-0.4-0.1-0.6l-0.8-3.7
		C21.9,195.3,21.2,195.4,20.3,195.4z M18.1,190.2c0,1,0.5,1.9,1.6,2.5c-1.8-0.3-3-1.4-3-3.1c0-2,1.7-3.7,3.8-4.1l-0.8-4
		c-3.7,2.8-5.7,5.5-5.7,8.1c0,2.9,2.8,5.3,6,5.3c0.9,0,1.7-0.2,2.4-0.5l-1.4-6.8C19.4,187.8,18.1,188.8,18.1,190.2z M22.1,168.8
		c-1.6,0-2.9,3.7-2.9,7c0,0.7,0,1.3,0.2,1.9c2.7-2.4,4-4.5,4-6.5c0-0.9-0.3-1.7-1-2.4C22.4,168.9,22.3,168.8,22.1,168.8z
		 M24.9,190.7c0-1.6-1.2-3.3-2.9-3.3c-0.1,0-0.2,0-0.5,0l1.4,6.6C24.2,193.2,24.9,192,24.9,190.7z"/>
</g>
<polygon fill-rule="evenodd" clip-rule="evenodd" points="37.1,198 92.6,200.5 92.6,198 37.1,195.6 "/>
<polygon fill-rule="evenodd" clip-rule="evenodd" points="37.1,201.8 92.6,204.2 92.6,201.8 37.1,199.3 "/>
<polygon fill-rule="evenodd" clip-rule="evenodd" points="117.6,177 173.1,181.9 173.1,179.4 117.6,174.5 "/>
<polygon fill-rule="evenodd" clip-rule="evenodd" points="117.6,173.2 173.1,178.2 173.1,175.7 117.6,170.8 "/>
<g>
	<path d="M255.4,187.6c2.2-2,3.6-4.6,3.6-6.9c0-1.9-1.1-3.3-2.8-3.3c-1.2,0-2.5,1-2.5,2.1c0,0.2,0,0.2,0.1,0.2c0,0,0.4-0.5,1-0.5
		c0.7,0,1.2,0.6,1.2,1.3c0,0.9-0.6,1.7-1.6,1.7c-0.9,0-1.5-1-1.5-2.1c0-1.8,1.7-3.1,3.6-3.1c3.5,0,4.4,2.4,4.4,4.4
		c0,1.2-0.3,2.2-1.5,4c-1.4,2.3-4.8,4-6,4c-0.3,0-0.5-0.1-0.5-0.3C254,188.6,254.8,188.1,255.4,187.6z M262.9,178.1
		c0.4,0,0.7,0.3,0.7,0.7c0,0.4-0.3,0.7-0.7,0.7s-0.7-0.3-0.7-0.7C262.1,178.4,262.5,178.1,262.9,178.1z M262.9,181.8
		c0.4,0,0.7,0.3,0.7,0.7s-0.3,0.7-0.7,0.7s-0.7-0.3-0.7-0.7S262.5,181.8,262.9,181.8z"/>
</g>
<polygon fill-rule="evenodd" clip-rule="evenodd" points="191.5,185.6 247,186.9 247,184.4 191.5,183.2 "/>
<polygon fill-rule="evenodd" clip-rule="evenodd" points="191.5,181.9 247,183.2 247,180.7 191.5,179.4 "/>
<polygon fill-rule="evenodd" clip-rule="evenodd" points="266.9,186.6 322.4,187.2 322.4,184.7 266.9,184.1 "/>
<polygon fill-rule="evenodd" clip-rule="evenodd" points="266.9,190.3 322.4,190.9 322.4,188.4 266.9,187.8 "/>
<polygon fill-rule="evenodd" clip-rule="evenodd" points="340.8,191.5 396.3,192.2 396.3,189.7 340.8,189.1 "/>
<polygon fill-rule="evenodd" clip-rule="evenodd" points="340.8,195.3 396.3,195.9 396.3,193.4 340.8,192.8 "/>
<polygon fill-rule="evenodd" clip-rule="evenodd" points="414.8,196.8 470.2,198 470.2,195.6 414.8,194.3 "/>
<polygon fill-rule="evenodd" clip-rule="evenodd" points="414.8,200.5 470.2,201.8 470.2,199.3 414.8,198 "/>
<rect x="35.1" y="40.2" width="10.5" height="0.8"/>
<rect x="43.4" y="21.2" width="0.5" height="18.6"/>
<g>
	<path d="M37,41.4c0-1.8,2.5-3.5,4.5-3.5c1.3,0,2.3,0.7,2.3,1.7c0,1.7-2.5,3.5-4.6,3.5C38,43.1,37,42.5,37,41.4z"/>
</g>
<rect x="64.5" y="21" width="0.5" height="16.3"/>
<g>
	<path d="M58.1,38.9c0-1.8,2.5-3.5,4.5-3.5c1.3,0,2.3,0.7,2.3,1.7c0,1.7-2.5,3.5-4.6,3.5C59,40.7,58.1,40,58.1,38.9z"/>
</g>
<g>
	<path d="M52.2,29.8h0.6L52.7,36c0.4-0.7,1-1,1.8-1c1.2,0,2.2,0.8,2.2,1.9c0,0.8-0.5,1.8-1.7,2.7l-2.8,2.1V29.8z M52.7,36.7
		c-0.1,0.8-0.1,1.4-0.1,1.9c0,1,0,1.6,0.1,2c1-0.7,2.4-2.6,2.4-3.7c0-0.6-0.5-1.1-1.1-1.1C53.5,35.8,53,36.1,52.7,36.7z"/>
</g>
<rect x="85.6" y="20.9" width="0.5" height="16.4"/>
<g>
	<path d="M79.1,38.9c0-1.8,2.5-3.5,4.5-3.5c1.3,0,2.3,0.7,2.3,1.7c0,1.7-2.5,3.5-4.6,3.5C80.1,40.7,79.1,40,79.1,38.9z"/>
</g>
<g>
	<path d="M77.2,44.8v-4l-3,1.1V31.3h0.5v4l3-1.1v10.7H77.2z M74.7,40.2l2.5-0.9v-3.3l-2.5,0.9V40.2z"/>
</g>
<rect x="106.7" y="20.6" width="0.5" height="14.3"/>
<g>
	<path d="M100.2,36.4c0-1.8,2.5-3.5,4.5-3.5c1.3,0,2.3,0.7,2.3,1.7c0,1.7-2.5,3.5-4.6,3.5C101.2,38.2,100.2,37.5,100.2,36.4z"/>
</g>
<g>
	<path d="M94.3,27.3H95l-0.1,6.2c0.4-0.7,1-1,1.8-1c1.2,0,2.2,0.8,2.2,1.9c0,0.8-0.5,1.8-1.7,2.7l-2.8,2.1V27.3z M94.9,34.2
		c-0.1,0.8-0.1,1.4-0.1,1.9c0,1,0,1.6,0.1,2c1-0.7,2.4-2.6,2.4-3.7c0-0.6-0.5-1.1-1.1-1.1C95.6,33.4,95.2,33.6,94.9,34.2z"/>
</g>
<rect x="127.9" y="14.7" width="0.5" height="20.2"/>
<g>
	<path d="M121.5,36.4c0-1.8,2.5-3.5,4.5-3.5c1.3,0,2.3,0.7,2.3,1.7c0,1.7-2.5,3.5-4.6,3.5C122.4,38.2,121.5,37.5,121.5,36.4z"/>
</g>
<g>
	<path d="M119.5,42.4v-4l-3,1.1V28.8h0.5v4l3-1.1v10.7H119.5z M117,37.7l2.5-0.9v-3.3l-2.5,0.9V37.7z"/>
</g>
<rect x="149" y="14.7" width="0.5" height="17.7"/>
<g>
	<path d="M142.5,34c0-1.8,2.5-3.5,4.5-3.5c1.3,0,2.3,0.7,2.3,1.7c0,1.7-2.5,3.5-4.6,3.5C143.5,35.7,142.5,35.1,142.5,34z"/>
</g>
<rect x="170.1" y="14.7" width="0.5" height="15.2"/>
<g>
	<path d="M163.6,31.5c0-1.8,2.5-3.5,4.5-3.5c1.3,0,2.3,0.7,2.3,1.7c0,1.7-2.5,3.5-4.6,3.5C164.6,33.2,163.6,32.6,163.6,31.5z"/>
</g>
<g>
	<path d="M157.7,22.3h0.6l-0.1,6.2c0.4-0.7,1-1,1.8-1c1.2,0,2.2,0.8,2.2,1.9c0,0.8-0.5,1.8-1.7,2.7l-2.8,2.1V22.3z M158.3,29.2
		c-0.1,0.8-0.1,1.4-0.1,1.9c0,1,0,1.6,0.1,2c1-0.7,2.4-2.6,2.4-3.7c0-0.6-0.5-1.1-1.1-1.1C159,28.4,158.6,28.7,158.3,29.2z"/>
</g>
<rect x="191.1" y="14.7" width="0.5" height="15.2"/>
<g>
	<path d="M184.7,31.5c0-1.8,2.5-3.5,4.5-3.5c1.3,0,2.3,0.7,2.3,1.7c0,1.7-2.5,3.5-4.6,3.5C185.7,33.2,184.7,32.6,184.7,31.5z"/>
</g>
<g>
	<path d="M182.8,37.4v-4l-3,1.1V23.8h0.5v4l3-1.1v10.7H182.8z M180.2,32.7l2.5-0.9v-3.3l-2.5,0.9V32.7z"/>
</g>
<rect x="212.2" y="10.9" width="0.5" height="16.4"/>
<g>
	<path d="M205.8,29c0-1.8,2.5-3.5,4.5-3.5c1.3,0,2.3,0.7,2.3,1.7c0,1.7-2.5,3.5-4.6,3.5C206.8,30.7,205.8,30.1,205.8,29z"/>
</g>
<g>
	<path d="M199.9,19.8h0.6l-0.1,6.2c0.4-0.7,1-1,1.8-1c1.2,0,2.2,0.8,2.2,1.9c0,0.8-0.5,1.8-1.7,2.7l-2.8,2.1V19.8z M200.5,26.7
		c-0.1,0.8-0.1,1.4-0.1,1.9c0,1,0,1.6,0.1,2c1-0.7,2.4-2.6,2.4-3.7c0-0.6-0.5-1.1-1.1-1.1C201.2,25.9,200.8,26.2,200.5,26.7z"/>
</g>
<rect x="233.3" y="10.6" width="0.5" height="16.7"/>
<g>
	<path d="M226.9,29c0-1.8,2.5-3.5,4.5-3.5c1.3,0,2.3,0.7,2.3,1.7c0,1.7-2.5,3.5-4.6,3.5C227.8,30.7,226.9,30.1,226.9,29z"/>
</g>
<g>
	<path d="M225,34.9v-4l-3,1.1V21.3h0.5v4l3-1.1v10.7H225z M222.4,30.3l2.5-0.9V26l-2.5,0.9V30.3z"/>
</g>
<rect x="254.4" y="10.2" width="0.5" height="14.7"/>
<g>
	<path d="M248,26.5c0-1.8,2.5-3.5,4.5-3.5c1.3,0,2.3,0.7,2.3,1.7c0,1.7-2.5,3.5-4.6,3.5C248.9,28.3,248,27.6,248,26.5z"/>
</g>
<g>
	<path d="M242.1,17.4h0.6l-0.1,6.2c0.4-0.7,1-1,1.8-1c1.2,0,2.2,0.8,2.2,1.9c0,0.8-0.5,1.8-1.7,2.7l-2.8,2.1V17.4z M242.6,24.3
		c-0.1,0.8-0.1,1.4-0.1,1.9c0,1,0,1.6,0.1,2c1-0.7,2.4-2.6,2.4-3.7c0-0.6-0.5-1.1-1.1-1.1C243.4,23.4,242.9,23.7,242.6,24.3z"/>
</g>
<rect x="275.5" y="9.7" width="0.5" height="15.2"/>
<g>
	<path d="M269,26.5c0-1.8,2.5-3.5,4.5-3.5c1.3,0,2.3,0.7,2.3,1.7c0,1.7-2.5,3.5-4.6,3.5C270,28.3,269,27.6,269,26.5z"/>
</g>
<g>
	<path d="M267.1,32.4v-4l-3,1.1V18.9h0.5v4l3-1.1v10.7H267.1z M264.6,27.8l2.5-0.9v-3.3l-2.5,0.9V27.8z"/>
</g>
<rect x="299.5" y="24" width="0.5" height="16.4"/>
<g>
	<path d="M299.6,24c0-1.8,2.5-3.5,4.5-3.5c1.3,0,2.3,0.7,2.3,1.7c0,1.7-2.5,3.5-4.6,3.5C300.5,25.8,299.6,25.1,299.6,24z"/>
</g>
<rect x="320.7" y="21.5" width="0.5" height="17.4"/>
<g>
	<path d="M320.8,21.6c0-1.8,2.5-3.5,4.5-3.5c1.3,0,2.3,0.7,2.3,1.7c0,1.7-2.5,3.5-4.6,3.5C321.8,23.3,320.8,22.7,320.8,21.6z"/>
</g>
<g>
	<path d="M314.9,12.4h0.6l-0.1,6.2c0.4-0.7,1-1,1.8-1c1.2,0,2.2,0.8,2.2,1.9c0,0.8-0.5,1.8-1.7,2.7l-2.8,2.1V12.4z M315.5,19.3
		c-0.1,0.8-0.1,1.4-0.1,1.9c0,1,0,1.6,0.1,2c1-0.7,2.4-2.6,2.4-3.7c0-0.6-0.5-1.1-1.1-1.1C316.2,18.5,315.8,18.7,315.5,19.3z"/>
</g>
<rect x="341.8" y="21.5" width="0.5" height="15.7"/>
<g>
	<path d="M341.9,21.6c0-1.8,2.5-3.5,4.5-3.5c1.3,0,2.3,0.7,2.3,1.7c0,1.7-2.5,3.5-4.6,3.5C342.9,23.3,341.9,22.7,341.9,21.6z"/>
</g>
<g>
	<path d="M340,27.5v-4l-3,1.1V13.9h0.5v4l3-1.1v10.7H340z M337.4,22.8l2.5-0.9v-3.3l-2.5,0.9V22.8z"/>
</g>
<rect x="362.9" y="19" width="0.5" height="16.4"/>
<g>
	<path d="M363,19.1c0-1.8,2.5-3.5,4.5-3.5c1.3,0,2.3,0.7,2.3,1.7c0,1.7-2.5,3.5-4.6,3.5C364,20.8,363,20.2,363,19.1z"/>
</g>
<g>
	<path d="M357.1,9.9h0.6l-0.1,6.2c0.4-0.7,1-1,1.8-1c1.2,0,2.2,0.8,2.2,1.9c0,0.8-0.5,1.8-1.7,2.7l-2.8,2.1V9.9z M357.7,16.8
		c-0.1,0.8-0.1,1.4-0.1,1.9c0,1,0,1.6,0.1,2c1-0.7,2.4-2.6,2.4-3.7c0-0.6-0.5-1.1-1.1-1.1C358.4,16,358,16.3,357.7,16.8z"/>
</g>
<rect x="384" y="19" width="0.5" height="16.4"/>
<g>
	<path d="M384.1,19.1c0-1.8,2.5-3.5,4.5-3.5c1.3,0,2.3,0.7,2.3,1.7c0,1.7-2.5,3.5-4.6,3.5C385,20.8,384.1,20.2,384.1,19.1z"/>
</g>
<g>
	<path d="M382.1,25v-4l-3,1.1V11.4h0.5v4l3-1.1V25H382.1z M379.6,20.3l2.5-0.9v-3.3l-2.5,0.9V20.3z"/>
</g>
<rect x="405.1" y="16.5" width="0.5" height="17.4"/>
<g>
	<path d="M405.1,16.6c0-1.8,2.5-3.5,4.5-3.5c1.3,0,2.3,0.7,2.3,1.7c0,1.7-2.5,3.5-4.6,3.5C406.1,18.3,405.1,17.7,405.1,16.6z"/>
</g>
<g>
	<path d="M403.2,22.5v-4l-3,1.1V8.9h0.5v4l3-1.1v10.7H403.2z M400.7,17.9l2.5-0.9v-3.3l-2.5,0.9V17.9z"/>
</g>
<rect x="426.1" y="14" width="0.5" height="18.1"/>
<g>
	<path d="M426.2,14.1c0-1.8,2.5-3.5,4.5-3.5c1.3,0,2.3,0.7,2.3,1.7c0,1.7-2.5,3.5-4.6,3.5C427.2,15.9,426.2,15.2,426.2,14.1z"/>
</g>
<g>
	<path d="M420.3,5h0.6l-0.1,6.2c0.4-0.7,1-1,1.8-1c1.2,0,2.2,0.8,2.2,1.9c0,0.8-0.5,1.8-1.7,2.7l-2.8,2.1V5z M420.9,11.9
		c-0.1,0.8-0.1,1.4-0.1,1.9c0,1,0,1.6,0.1,2c1-0.7,2.4-2.6,2.4-3.7c0-0.6-0.5-1.1-1.1-1.1C421.6,11,421.2,11.3,420.9,11.9z"/>
</g>
<rect x="447.2" y="14" width="0.5" height="16.4"/>
<g>
	<path d="M447.3,14.1c0-1.8,2.5-3.5,4.5-3.5c1.3,0,2.3,0.7,2.3,1.7c0,1.7-2.5,3.5-4.6,3.5C448.3,15.9,447.3,15.2,447.3,14.1z"/>
</g>
<g>
	<path d="M445.4,20v-4l-3,1.1V6.5h0.5v4l3-1.1V20H445.4z M442.8,15.4l2.5-0.9v-3.3l-2.5,0.9V15.4z"/>
</g>
<rect x="466.5" y="10.4" width="10.5" height="0.8"/>
<rect x="468.3" y="11.6" width="0.5" height="15.2"/>
<g>
	<path d="M468.4,11.6c0-1.8,2.5-3.5,4.5-3.5c1.3,0,2.3,0.7,2.3,1.7c0,1.7-2.5,3.5-4.6,3.5C469.4,13.4,468.4,12.7,468.4,11.6z"/>
</g>
<g>
	<path d="M461.3,2.5h0.6l-0.1,6.2c0.4-0.7,1-1,1.8-1c1.2,0,2.2,0.8,2.2,1.9c0,0.8-0.5,1.8-1.7,2.7l-2.8,2.1V2.5z M461.8,9.4
		c-0.1,0.8-0.1,1.4-0.1,1.9c0,1,0,1.6,0.1,2c1-0.7,2.4-2.6,2.4-3.7c0-0.6-0.5-1.1-1.1-1.1C462.5,8.6,462.1,8.8,461.8,9.4z"/>
</g>
<rect x="487.8" y="10.4" width="10.5" height="0.8"/>
<rect x="489.5" y="11.6" width="0.5" height="14.9"/>
<g>
	<path d="M489.6,11.6c0-1.8,2.5-3.5,4.5-3.5c1.3,0,2.3,0.7,2.3,1.7c0,1.7-2.5,3.5-4.6,3.5C490.6,13.4,489.6,12.7,489.6,11.6z"/>
</g>
<g>
	<path d="M486.5,17.6v-4l-3,1.1V4h0.5v4l3-1.1v10.7H486.5z M483.9,12.9l2.5-0.9V8.6l-2.5,0.9V12.9z"/>
</g>
<rect x="508.8" y="10.4" width="10.5" height="0.8"/>
<rect x="510.6" y="9.1" width="0.5" height="16.9"/>
<g>
	<path d="M510.7,9.2c0-1.8,2.5-3.5,4.5-3.5c1.3,0,2.3,0.7,2.3,1.7c0,1.7-2.5,3.5-4.6,3.5C511.7,10.9,510.7,10.3,510.7,9.2z"/>
</g>
<g>
	<path d="M503.6,0h0.6l-0.1,6.2c0.4-0.7,1-1,1.8-1c1.2,0,2.2,0.8,2.2,1.9c0,0.8-0.5,1.8-1.7,2.7l-2.8,2.1V0z M504.2,6.9
		c-0.1,0.8-0.1,1.4-0.1,1.9c0,1,0,1.6,0.1,2c1-0.7,2.4-2.6,2.4-3.7c0-0.6-0.5-1.1-1.1-1.1C504.9,6.1,504.5,6.3,504.2,6.9z"/>
</g>
<rect x="529.9" y="10.4" width="10.5" height="0.8"/>
<rect x="531.7" y="9.1" width="0.5" height="16.4"/>
<g>
	<path d="M531.8,9.2c0-1.8,2.5-3.5,4.5-3.5c1.3,0,2.3,0.7,2.3,1.7c0,1.7-2.5,3.5-4.6,3.5C532.8,10.9,531.8,10.3,531.8,9.2z"/>
</g>
<g>
	<path d="M528.6,15.1v-4l-3,1.1V1.5h0.5v4l3-1.1v10.7H528.6z M526.1,10.4l2.5-0.9V6.2l-2.5,0.9V10.4z"/>
</g>
<rect x="36.9" y="76.1" width="0.5" height="15.2"/>
<g>
	<path d="M37,76.1c0-1.8,2.5-3.5,4.5-3.5c1.3,0,2.3,0.7,2.3,1.7c0,1.7-2.5,3.5-4.6,3.5C38,77.9,37,77.2,37,76.1z"/>
</g>
<rect x="58" y="73.6" width="0.5" height="16.9"/>
<g>
	<path d="M58.1,73.6c0-1.8,2.5-3.5,4.5-3.5c1.3,0,2.3,0.7,2.3,1.7c0,1.7-2.5,3.5-4.6,3.5C59,75.4,58.1,74.7,58.1,73.6z"/>
</g>
<g>
	<path d="M52.2,64.5h0.6l-0.1,6.2c0.4-0.7,1-1,1.8-1c1.2,0,2.2,0.8,2.2,1.9c0,0.8-0.5,1.8-1.7,2.7l-2.8,2.1V64.5z M52.7,71.4
		c-0.1,0.8-0.1,1.4-0.1,1.9c0,1,0,1.6,0.1,2c1-0.7,2.4-2.6,2.4-3.7c0-0.6-0.5-1.1-1.1-1.1C53.5,70.6,53,70.8,52.7,71.4z"/>
</g>
<rect x="79.1" y="73.6" width="0.5" height="16.1"/>
<g>
	<path d="M79.1,73.6c0-1.8,2.5-3.5,4.5-3.5c1.3,0,2.3,0.7,2.3,1.7c0,1.7-2.5,3.5-4.6,3.5C80.1,75.4,79.1,74.7,79.1,73.6z"/>
</g>
<g>
	<path d="M77.2,79.6v-4l-3,1.1V66h0.5v4l3-1.1v10.7H77.2z M74.7,74.9l2.5-0.9v-3.3l-2.5,0.9V74.9z"/>
</g>
<rect x="100.2" y="71.1" width="0.5" height="17.7"/>
<g>
	<path d="M100.2,71.2c0-1.8,2.5-3.5,4.5-3.5c1.3,0,2.3,0.7,2.3,1.7c0,1.7-2.5,3.5-4.6,3.5C101.2,72.9,100.2,72.3,100.2,71.2z"/>
</g>
<g>
	<path d="M94.3,62H95l-0.1,6.2c0.4-0.7,1-1,1.8-1c1.2,0,2.2,0.8,2.2,1.9c0,0.8-0.5,1.8-1.7,2.7l-2.8,2.1V62z M94.9,68.9
		c-0.1,0.8-0.1,1.4-0.1,1.9c0,1,0,1.6,0.1,2c1-0.7,2.4-2.6,2.4-3.7c0-0.6-0.5-1.1-1.1-1.1C95.6,68.1,95.2,68.4,94.9,68.9z"/>
</g>
<rect x="121.4" y="71.1" width="0.5" height="16.4"/>
<g>
	<path d="M121.5,71.2c0-1.8,2.5-3.5,4.5-3.5c1.3,0,2.3,0.7,2.3,1.7c0,1.7-2.5,3.5-4.6,3.5C122.4,72.9,121.5,72.3,121.5,71.2z"/>
</g>
<g>
	<path d="M119.5,77.1v-4l-3,1.1V63.5h0.5v4l3-1.1v10.7H119.5z M117,72.4l2.5-0.9v-3.3l-2.5,0.9V72.4z"/>
</g>
<rect x="142.5" y="68.6" width="0.5" height="17.4"/>
<g>
	<path d="M142.5,68.7c0-1.8,2.5-3.5,4.5-3.5c1.3,0,2.3,0.7,2.3,1.7c0,1.7-2.5,3.5-4.6,3.5C143.5,70.4,142.5,69.8,142.5,68.7z"/>
</g>
<rect x="163.6" y="66.1" width="0.5" height="18.1"/>
<g>
	<path d="M163.6,66.2c0-1.8,2.5-3.5,4.5-3.5c1.3,0,2.3,0.7,2.3,1.7c0,1.7-2.5,3.5-4.6,3.5C164.6,67.9,163.6,67.3,163.6,66.2z"/>
</g>
<g>
	<path d="M157.7,57h0.6l-0.1,6.2c0.4-0.7,1-1,1.8-1c1.2,0,2.2,0.8,2.2,1.9c0,0.8-0.5,1.8-1.7,2.7l-2.8,2.1V57z M158.3,63.9
		c-0.1,0.8-0.1,1.4-0.1,1.9c0,1,0,1.6,0.1,2c1-0.7,2.4-2.6,2.4-3.7c0-0.6-0.5-1.1-1.1-1.1C159,63.1,158.6,63.4,158.3,63.9z"/>
</g>
<rect x="184.6" y="66.1" width="0.5" height="16.4"/>
<g>
	<path d="M184.7,66.2c0-1.8,2.5-3.5,4.5-3.5c1.3,0,2.3,0.7,2.3,1.7c0,1.7-2.5,3.5-4.6,3.5C185.7,67.9,184.7,67.3,184.7,66.2z"/>
</g>
<g>
	<path d="M182.8,72.1v-4l-3,1.1V58.6h0.5v4l3-1.1v10.7H182.8z M180.2,67.5l2.5-0.9v-3.3l-2.5,0.9V67.5z"/>
</g>
<rect x="205.7" y="63.6" width="0.5" height="15.2"/>
<g>
	<path d="M205.8,63.7c0-1.8,2.5-3.5,4.5-3.5c1.3,0,2.3,0.7,2.3,1.7c0,1.7-2.5,3.5-4.6,3.5C206.8,65.5,205.8,64.8,205.8,63.7z"/>
</g>
<g>
	<path d="M199.9,54.6h0.6l-0.1,6.2c0.4-0.7,1-1,1.8-1c1.2,0,2.2,0.8,2.2,1.9c0,0.8-0.5,1.8-1.7,2.7l-2.8,2.1V54.6z M200.5,61.5
		c-0.1,0.8-0.1,1.4-0.1,1.9c0,1,0,1.6,0.1,2c1-0.7,2.4-2.6,2.4-3.7c0-0.6-0.5-1.1-1.1-1.1C201.2,60.6,200.8,60.9,200.5,61.5z"/>
</g>
<rect x="226.8" y="63.6" width="0.5" height="14.9"/>
<g>
	<path d="M226.9,63.7c0-1.8,2.5-3.5,4.5-3.5c1.3,0,2.3,0.7,2.3,1.7c0,1.7-2.5,3.5-4.6,3.5C227.8,65.5,226.9,64.8,226.9,63.7z"/>
</g>
<g>
	<path d="M225,69.6v-4l-3,1.1V56.1h0.5v4l3-1.1v10.7H225z M222.4,65l2.5-0.9v-3.3l-2.5,0.9V65z"/>
</g>
<rect x="247.9" y="61.2" width="0.5" height="16.9"/>
<g>
	<path d="M248,61.2c0-1.8,2.5-3.5,4.5-3.5c1.3,0,2.3,0.7,2.3,1.7c0,1.7-2.5,3.5-4.6,3.5C248.9,63,248,62.3,248,61.2z"/>
</g>
<g>
	<path d="M242.1,52.1h0.6l-0.1,6.2c0.4-0.7,1-1,1.8-1c1.2,0,2.2,0.8,2.2,1.9c0,0.8-0.5,1.8-1.7,2.7l-2.8,2.1V52.1z M242.6,59
		c-0.1,0.8-0.1,1.4-0.1,1.9c0,1,0,1.6,0.1,2c1-0.7,2.4-2.6,2.4-3.7c0-0.6-0.5-1.1-1.1-1.1C243.4,58.2,242.9,58.4,242.6,59z"/>
</g>
<rect x="269" y="61.2" width="0.5" height="16.4"/>
<g>
	<path d="M269,61.2c0-1.8,2.5-3.5,4.5-3.5c1.3,0,2.3,0.7,2.3,1.7c0,1.7-2.5,3.5-4.6,3.5C270,63,269,62.3,269,61.2z"/>
</g>
<g>
	<path d="M267.1,67.2v-4l-3,1.1V53.6h0.5v4l3-1.1v10.7H267.1z M264.6,62.5l2.5-0.9v-3.3l-2.5,0.9V62.5z"/>
</g>
<rect x="297.7" y="87.3" width="10.5" height="0.8"/>
<rect x="306" y="68.3" width="0.5" height="18.6"/>
<g>
	<path d="M299.6,88.5c0-1.8,2.5-3.5,4.5-3.5c1.3,0,2.3,0.7,2.3,1.7c0,1.7-2.5,3.5-4.6,3.5C300.5,90.3,299.6,89.6,299.6,88.5z"/>
</g>
<g>
	<path d="M296.4,94.4v-4l-3,1.1V80.9h0.5v4l3-1.1v10.7H296.4z M293.9,89.8l2.5-0.9v-3.3l-2.5,0.9V89.8z"/>
</g>
<rect x="327.2" y="68.1" width="0.5" height="16.3"/>
<g>
	<path d="M320.8,86c0-1.8,2.5-3.5,4.5-3.5c1.3,0,2.3,0.7,2.3,1.7c0,1.7-2.5,3.5-4.6,3.5C321.8,87.8,320.8,87.1,320.8,86z"/>
</g>
<g>
	<path d="M314.9,76.9h0.6l-0.1,6.2c0.4-0.7,1-1,1.8-1c1.2,0,2.2,0.8,2.2,1.9c0,0.8-0.5,1.8-1.7,2.7l-2.8,2.1V76.9z M315.5,83.8
		c-0.1,0.8-0.1,1.4-0.1,1.9c0,1,0,1.6,0.1,2c1-0.7,2.4-2.6,2.4-3.7c0-0.6-0.5-1.1-1.1-1.1C316.2,83,315.8,83.2,315.5,83.8z"/>
</g>
<rect x="348.3" y="68" width="0.5" height="16.4"/>
<g>
	<path d="M341.9,86c0-1.8,2.5-3.5,4.5-3.5c1.3,0,2.3,0.7,2.3,1.7c0,1.7-2.5,3.5-4.6,3.5C342.9,87.8,341.9,87.1,341.9,86z"/>
</g>
<g>
	<path d="M340,92v-4l-3,1.1V78.4h0.5v4l3-1.1V92H340z M337.4,87.3l2.5-0.9v-3.3l-2.5,0.9V87.3z"/>
</g>
<rect x="369.4" y="67.7" width="0.5" height="14.3"/>
<g>
	<path d="M363,83.6c0-1.8,2.5-3.5,4.5-3.5c1.3,0,2.3,0.7,2.3,1.7c0,1.7-2.5,3.5-4.6,3.5C364,85.3,363,84.7,363,83.6z"/>
</g>
<g>
	<path d="M357.1,74.4h0.6l-0.1,6.2c0.4-0.7,1-1,1.8-1c1.2,0,2.2,0.8,2.2,1.9c0,0.8-0.5,1.8-1.7,2.7l-2.8,2.1V74.4z M357.7,81.3
		c-0.1,0.8-0.1,1.4-0.1,1.9c0,1,0,1.6,0.1,2c1-0.7,2.4-2.6,2.4-3.7c0-0.6-0.5-1.1-1.1-1.1C358.4,80.5,358,80.8,357.7,81.3z"/>
</g>
<rect x="390.5" y="61.8" width="0.5" height="20.2"/>
<g>
	<path d="M384.1,83.6c0-1.8,2.5-3.5,4.5-3.5c1.3,0,2.3,0.7,2.3,1.7c0,1.7-2.5,3.5-4.6,3.5C385,85.3,384.1,84.7,384.1,83.6z"/>
</g>
<g>
	<path d="M382.1,89.5v-4l-3,1.1V75.9h0.5v4l3-1.1v10.7H382.1z M379.6,84.8l2.5-0.9v-3.3l-2.5,0.9V84.8z"/>
</g>
<rect x="411.6" y="61.8" width="0.5" height="17.7"/>
<g>
	<path d="M405.1,81.1c0-1.8,2.5-3.5,4.5-3.5c1.3,0,2.3,0.7,2.3,1.7c0,1.7-2.5,3.5-4.6,3.5C406.1,82.8,405.1,82.2,405.1,81.1z"/>
</g>
<g>
	<path d="M403.2,87v-4l-3,1.1V73.4h0.5v4l3-1.1V87H403.2z M400.7,82.3l2.5-0.9v-3.3l-2.5,0.9V82.3z"/>
</g>
<rect x="432.7" y="61.8" width="0.5" height="15.2"/>
<g>
	<path d="M426.2,78.6c0-1.8,2.5-3.5,4.5-3.5c1.3,0,2.3,0.7,2.3,1.7c0,1.7-2.5,3.5-4.6,3.5C427.2,80.3,426.2,79.7,426.2,78.6z"/>
</g>
<g>
	<path d="M420.3,69.4h0.6l-0.1,6.2c0.4-0.7,1-1,1.8-1c1.2,0,2.2,0.8,2.2,1.9c0,0.8-0.5,1.8-1.7,2.7l-2.8,2.1V69.4z M420.9,76.3
		c-0.1,0.8-0.1,1.4-0.1,1.9c0,1,0,1.6,0.1,2c1-0.7,2.4-2.6,2.4-3.7c0-0.6-0.5-1.1-1.1-1.1C421.6,75.5,421.2,75.8,420.9,76.3z"/>
</g>
<rect x="453.7" y="61.8" width="0.5" height="15.2"/>
<g>
	<path d="M447.3,78.6c0-1.8,2.5-3.5,4.5-3.5c1.3,0,2.3,0.7,2.3,1.7c0,1.7-2.5,3.5-4.6,3.5C448.3,80.3,447.3,79.7,447.3,78.6z"/>
</g>
<g>
	<path d="M445.4,84.5v-4l-3,1.1V71h0.5v4l3-1.1v10.7H445.4z M442.8,79.9l2.5-0.9v-3.3l-2.5,0.9V79.9z"/>
</g>
<rect x="474.8" y="58.1" width="0.5" height="16.4"/>
<g>
	<path d="M468.4,76.1c0-1.8,2.5-3.5,4.5-3.5c1.3,0,2.3,0.7,2.3,1.7c0,1.7-2.5,3.5-4.6,3.5C469.4,77.9,468.4,77.2,468.4,76.1z"/>
</g>
<g>
	<path d="M462.5,67h0.6l-0.1,6.2c0.4-0.7,1-1,1.8-1c1.2,0,2.2,0.8,2.2,1.9c0,0.8-0.5,1.8-1.7,2.7l-2.8,2.1V67z M463.1,73.9
		c-0.1,0.8-0.1,1.4-0.1,1.9c0,1,0,1.6,0.1,2c1-0.7,2.4-2.6,2.4-3.7c0-0.6-0.5-1.1-1.1-1.1C463.8,73,463.4,73.3,463.1,73.9z"/>
</g>
<rect x="496.1" y="57.8" width="0.5" height="16.7"/>
<g>
	<path d="M489.6,76.1c0-1.8,2.5-3.5,4.5-3.5c1.3,0,2.3,0.7,2.3,1.7c0,1.7-2.5,3.5-4.6,3.5C490.6,77.9,489.6,77.2,489.6,76.1z"/>
</g>
<g>
	<path d="M487.7,82v-4l-3,1.1V68.5h0.5v4l3-1.1V82H487.7z M485.2,77.4l2.5-0.9v-3.3l-2.5,0.9V77.4z"/>
</g>
<rect x="517.1" y="57.3" width="0.5" height="14.7"/>
<g>
	<path d="M510.7,73.6c0-1.8,2.5-3.5,4.5-3.5c1.3,0,2.3,0.7,2.3,1.7c0,1.7-2.5,3.5-4.6,3.5C511.7,75.4,510.7,74.7,510.7,73.6z"/>
</g>
<g>
	<path d="M504.8,64.5h0.6l-0.1,6.2c0.4-0.7,1-1,1.8-1c1.2,0,2.2,0.8,2.2,1.9c0,0.8-0.5,1.8-1.7,2.7l-2.8,2.1V64.5z M505.4,71.4
		c-0.1,0.8-0.1,1.4-0.1,1.9c0,1,0,1.6,0.1,2c1-0.7,2.4-2.6,2.4-3.7c0-0.6-0.5-1.1-1.1-1.1C506.1,70.6,505.7,70.8,505.4,71.4z"/>
</g>
<rect x="538.2" y="56.8" width="0.5" height="15.2"/>
<g>
	<path d="M531.8,73.6c0-1.8,2.5-3.5,4.5-3.5c1.3,0,2.3,0.7,2.3,1.7c0,1.7-2.5,3.5-4.6,3.5C532.8,75.4,531.8,74.7,531.8,73.6z"/>
</g>
<g>
	<path d="M529.9,79.6v-4l-3,1.1V66h0.5v4l3-1.1v10.7H529.9z M527.3,74.9l2.5-0.9v-3.3l-2.5,0.9V74.9z"/>
</g>
<rect x="35.1" y="123.3" width="10.5" height="0.8"/>
<rect x="35.1" y="118.3" width="10.5" height="0.8"/>
<rect x="36.9" y="119.5" width="0.5" height="18.9"/>
<g>
	<path d="M37,119.5c0-1.8,2.5-3.5,4.5-3.5c1.3,0,2.3,0.7,2.3,1.7c0,1.7-2.5,3.5-4.6,3.5C38,121.3,37,120.6,37,119.5z"/>
</g>
<rect x="53.6" y="123.3" width="10.5" height="0.8"/>
<rect x="55.4" y="121.9" width="0.5" height="16.7"/>
<g>
	<path d="M55.4,122c0-1.8,2.5-3.5,4.5-3.5c1.3,0,2.3,0.7,2.3,1.7c0,1.7-2.5,3.5-4.6,3.5C56.4,123.7,55.4,123.1,55.4,122z"/>
</g>
<rect x="72.2" y="123.3" width="10.5" height="0.8"/>
<rect x="74" y="121.9" width="0.5" height="17.2"/>
<g>
	<path d="M74,122c0-1.8,2.5-3.5,4.5-3.5c1.3,0,2.3,0.7,2.3,1.7c0,1.7-2.5,3.5-4.6,3.5C75,123.7,74,123.1,74,122z"/>
</g>
<g>
	<path d="M66.9,112.8h0.6l-0.1,6.2c0.4-0.7,1-1,1.8-1c1.2,0,2.2,0.8,2.2,1.9c0,0.8-0.5,1.8-1.7,2.7l-2.8,2.1V112.8z M67.5,119.7
		c-0.1,0.8-0.1,1.4-0.1,1.9c0,1,0,1.6,0.1,2c1-0.7,2.4-2.6,2.4-3.7c0-0.6-0.5-1.1-1.1-1.1C68.2,118.9,67.8,119.2,67.5,119.7z"/>
</g>
<rect x="90.6" y="123.3" width="10.5" height="0.8"/>
<rect x="92.4" y="124.4" width="0.5" height="15.2"/>
<g>
	<path d="M92.5,124.5c0-1.8,2.5-3.5,4.5-3.5c1.3,0,2.3,0.7,2.3,1.7c0,1.7-2.5,3.5-4.6,3.5C93.5,126.2,92.5,125.6,92.5,124.5z"/>
</g>
<rect x="109.1" y="123.3" width="10.5" height="0.8"/>
<rect x="110.8" y="124.4" width="0.5" height="18.6"/>
<g>
	<path d="M110.9,124.5c0-1.8,2.5-3.5,4.5-3.5c1.3,0,2.3,0.7,2.3,1.7c0,1.7-2.5,3.5-4.6,3.5C111.9,126.2,110.9,125.6,110.9,124.5z"/>
</g>
<g>
	<path d="M103.8,115.3h0.6l-0.1,6.2c0.4-0.7,1-1,1.8-1c1.2,0,2.2,0.8,2.2,1.9c0,0.8-0.5,1.8-1.7,2.7l-2.8,2.1V115.3z M104.4,122.2
		c-0.1,0.8-0.1,1.4-0.1,1.9c0,1,0,1.6,0.1,2c1-0.7,2.4-2.6,2.4-3.7c0-0.6-0.5-1.1-1.1-1.1C105.1,121.4,104.7,121.7,104.4,122.2z"/>
</g>
<rect x="129.3" y="126.9" width="0.5" height="16.3"/>
<g>
	<path d="M129.4,127c0-1.8,2.5-3.5,4.5-3.5c1.3,0,2.3,0.7,2.3,1.7c0,1.7-2.5,3.5-4.6,3.5C130.3,128.7,129.4,128.1,129.4,127z"/>
</g>
<rect x="147.9" y="126.9" width="0.5" height="16.4"/>
<g>
	<path d="M148,127c0-1.8,2.5-3.5,4.5-3.5c1.3,0,2.3,0.7,2.3,1.7c0,1.7-2.5,3.5-4.6,3.5C148.9,128.7,148,128.1,148,127z"/>
</g>
<g>
	<path d="M142.1,117.8h0.6l-0.1,6.2c0.4-0.7,1-1,1.8-1c1.2,0,2.2,0.8,2.2,1.9c0,0.8-0.5,1.8-1.7,2.7l-2.8,2.1V117.8z M142.7,124.7
		c-0.1,0.8-0.1,1.4-0.1,1.9c0,1,0,1.6,0.1,2c1-0.7,2.4-2.6,2.4-3.7c0-0.6-0.5-1.1-1.1-1.1C143.4,123.9,143,124.2,142.7,124.7z"/>
</g>
<rect x="166.3" y="129.4" width="0.5" height="14.3"/>
<g>
	<path d="M166.4,129.5c0-1.8,2.5-3.5,4.5-3.5c1.3,0,2.3,0.7,2.3,1.7c0,1.7-2.5,3.5-4.6,3.5C167.4,131.2,166.4,130.5,166.4,129.5z"/>
</g>
<rect x="184.8" y="131.9" width="0.5" height="16.4"/>
<g>
	<path d="M184.9,131.9c0-1.8,2.5-3.5,4.5-3.5c1.3,0,2.3,0.7,2.3,1.7c0,1.7-2.5,3.5-4.6,3.5C185.8,133.7,184.9,133,184.9,131.9z"/>
</g>
<rect x="203.4" y="131.9" width="0.5" height="16.7"/>
<g>
	<path d="M203.5,131.9c0-1.8,2.5-3.5,4.5-3.5c1.3,0,2.3,0.7,2.3,1.7c0,1.7-2.5,3.5-4.6,3.5C204.4,133.7,203.5,133,203.5,131.9z"/>
</g>
<g>
	<path d="M197.6,122.8h0.6l-0.1,6.2c0.4-0.7,1-1,1.8-1c1.2,0,2.2,0.8,2.2,1.9c0,0.8-0.5,1.8-1.7,2.7l-2.8,2.1V122.8z M198.2,129.7
		c-0.1,0.8-0.1,1.4-0.1,1.9c0,1,0,1.6,0.1,2c1-0.7,2.4-2.6,2.4-3.7c0-0.6-0.5-1.1-1.1-1.1C198.9,128.8,198.5,129.1,198.2,129.7z"/>
</g>
<rect x="221.8" y="134.3" width="0.5" height="14.7"/>
<g>
	<path d="M221.9,134.4c0-1.8,2.5-3.5,4.5-3.5c1.3,0,2.3,0.7,2.3,1.7c0,1.7-2.5,3.5-4.6,3.5C222.9,136.1,221.9,135.5,221.9,134.4z"/>
</g>
<rect x="240.3" y="134.3" width="0.5" height="15.2"/>
<g>
	<path d="M240.4,134.4c0-1.8,2.5-3.5,4.5-3.5c1.3,0,2.3,0.7,2.3,1.7c0,1.7-2.5,3.5-4.6,3.5C241.3,136.1,240.4,135.5,240.4,134.4z"/>
</g>
<g>
	<path d="M234.5,125.2h0.6l-0.1,6.2c0.4-0.7,1-1,1.8-1c1.2,0,2.2,0.8,2.2,1.9c0,0.8-0.5,1.8-1.7,2.7l-2.8,2.1V125.2z M235,132.2
		c-0.1,0.8-0.1,1.4-0.1,1.9c0,1,0,1.6,0.1,2c1-0.7,2.4-2.6,2.4-3.7c0-0.6-0.5-1.1-1.1-1.1C235.8,131.3,235.3,131.6,235,132.2z"/>
</g>
<rect x="266.6" y="136.8" width="0.5" height="17.7"/>
<g>
	<path d="M266.7,136.9c0-1.8,2.5-3.5,4.5-3.5c1.3,0,2.3,0.7,2.3,1.7c0,1.7-2.5,3.5-4.6,3.5C267.7,138.6,266.7,138,266.7,136.9z"/>
</g>
<rect x="285.1" y="139.3" width="0.5" height="16"/>
<g>
	<path d="M285.2,139.4c0-1.8,2.5-3.5,4.5-3.5c1.3,0,2.3,0.7,2.3,1.7c0,1.7-2.5,3.5-4.6,3.5C286.1,141.1,285.2,140.5,285.2,139.4z"/>
</g>
<g>
	<path d="M283.2,145.3v-4l-3,1.1v-10.7h0.5v4l3-1.1v10.7H283.2z M280.7,140.6l2.5-0.9v-3.3l-2.5,0.9V140.6z"/>
</g>
<rect x="303.7" y="139.3" width="0.5" height="16.7"/>
<g>
	<path d="M303.8,139.4c0-1.8,2.5-3.5,4.5-3.5c1.3,0,2.3,0.7,2.3,1.7c0,1.7-2.5,3.5-4.6,3.5C304.7,141.1,303.8,140.5,303.8,139.4z"/>
</g>
<g>
	<path d="M297.9,130.2h0.6l-0.1,6.2c0.4-0.7,1-1,1.8-1c1.2,0,2.2,0.8,2.2,1.9c0,0.8-0.5,1.8-1.7,2.7l-2.8,2.1V130.2z M298.4,137.1
		c-0.1,0.8-0.1,1.4-0.1,1.9c0,1,0,1.6,0.1,2c1-0.7,2.4-2.6,2.4-3.7c0-0.6-0.5-1.1-1.1-1.1C299.2,136.3,298.7,136.6,298.4,137.1z"/>
</g>
<rect x="322.1" y="141.8" width="0.5" height="15.2"/>
<g>
	<path d="M322.2,141.9c0-1.8,2.5-3.5,4.5-3.5c1.3,0,2.3,0.7,2.3,1.7c0,1.7-2.5,3.5-4.6,3.5C323.2,143.6,322.2,142.9,322.2,141.9z"/>
</g>
<g>
	<path d="M320.3,147.8v-4l-3,1.1v-10.7h0.5v4l3-1.1v10.7H320.3z M317.7,143.1l2.5-0.9v-3.3l-2.5,0.9V143.1z"/>
</g>
<rect x="347.1" y="123.8" width="0.5" height="16.4"/>
<g>
	<path d="M340.7,141.9c0-1.8,2.5-3.5,4.5-3.5c1.3,0,2.3,0.7,2.3,1.7c0,1.7-2.5,3.5-4.6,3.5C341.6,143.6,340.7,142.9,340.7,141.9z"/>
</g>
<g>
	<path d="M334.8,132.7h0.6l-0.1,6.2c0.4-0.7,1-1,1.8-1c1.2,0,2.2,0.8,2.2,1.9c0,0.8-0.5,1.8-1.7,2.7l-2.8,2.1V132.7z M335.3,139.6
		c-0.1,0.8-0.1,1.4-0.1,1.9c0,1,0,1.6,0.1,2c1-0.7,2.4-2.6,2.4-3.7c0-0.6-0.5-1.1-1.1-1.1C336.1,138.8,335.6,139,335.3,139.6z"/>
</g>
<rect x="365.5" y="125.3" width="0.5" height="17.4"/>
<g>
	<path d="M359.1,144.3c0-1.8,2.5-3.5,4.5-3.5c1.3,0,2.3,0.7,2.3,1.7c0,1.7-2.5,3.5-4.6,3.5C360.1,146.1,359.1,145.4,359.1,144.3z"/>
</g>
<g>
	<path d="M357.2,150.2v-4l-3,1.1v-10.7h0.5v4l3-1.1v10.7H357.2z M354.6,145.6l2.5-0.9v-3.3l-2.5,0.9V145.6z"/>
</g>
<rect x="384.1" y="127" width="0.5" height="15.7"/>
<g>
	<path d="M377.7,144.3c0-1.8,2.5-3.5,4.5-3.5c1.3,0,2.3,0.7,2.3,1.7c0,1.7-2.5,3.5-4.6,3.5C378.7,146.1,377.7,145.4,377.7,144.3z"/>
</g>
<g>
	<path d="M371.8,135.2h0.6l-0.1,6.2c0.4-0.7,1-1,1.8-1c1.2,0,2.2,0.8,2.2,1.9c0,0.8-0.5,1.8-1.7,2.7l-2.8,2.1V135.2z M372.4,142.1
		c-0.1,0.8-0.1,1.4-0.1,1.9c0,1,0,1.6,0.1,2c1-0.7,2.4-2.6,2.4-3.7c0-0.6-0.5-1.1-1.1-1.1C373.1,141.2,372.7,141.5,372.4,142.1z"/>
</g>
<rect x="402.6" y="128.8" width="0.5" height="16.4"/>
<g>
	<path d="M396.2,146.8c0-1.8,2.5-3.5,4.5-3.5c1.3,0,2.3,0.7,2.3,1.7c0,1.7-2.5,3.5-4.6,3.5C397.1,148.5,396.2,147.9,396.2,146.8z"/>
</g>
<rect x="421" y="132.5" width="0.5" height="15.2"/>
<g>
	<path d="M414.6,149.3c0-1.8,2.5-3.5,4.5-3.5c1.3,0,2.3,0.7,2.3,1.7c0,1.7-2.5,3.5-4.6,3.5C415.6,151,414.6,150.4,414.6,149.3z"/>
</g>
<g>
	<path d="M412.7,155.2v-4l-3,1.1v-10.7h0.5v4l3-1.1v10.7H412.7z M410.1,150.5l2.5-0.9v-3.3l-2.5,0.9V150.5z"/>
</g>
<rect x="439.6" y="132.8" width="0.5" height="14.9"/>
<g>
	<path d="M433.2,149.3c0-1.8,2.5-3.5,4.5-3.5c1.3,0,2.3,0.7,2.3,1.7c0,1.7-2.5,3.5-4.6,3.5C434.2,151,433.2,150.4,433.2,149.3z"/>
</g>
<g>
	<path d="M427.3,140.1h0.6l-0.1,6.2c0.4-0.7,1-1,1.8-1c1.2,0,2.2,0.8,2.2,1.9c0,0.8-0.5,1.8-1.7,2.7l-2.8,2.1V140.1z M427.9,147
		c-0.1,0.8-0.1,1.4-0.1,1.9c0,1,0,1.6,0.1,2c1-0.7,2.4-2.6,2.4-3.7c0-0.6-0.5-1.1-1.1-1.1C428.6,146.2,428.2,146.5,427.9,147z"/>
</g>
<rect x="458.1" y="133.2" width="0.5" height="16.9"/>
<g>
	<path d="M451.6,151.8c0-1.8,2.5-3.5,4.5-3.5c1.3,0,2.3,0.7,2.3,1.7c0,1.7-2.5,3.5-4.6,3.5C452.6,153.5,451.6,152.9,451.6,151.8z"/>
</g>
<g>
	<path d="M449.7,157.7v-4l-3,1.1v-10.7h0.5v4l3-1.1v10.7H449.7z M447.2,153l2.5-0.9v-3.3l-2.5,0.9V153z"/>
</g>
<rect x="476.5" y="133.7" width="0.5" height="16.4"/>
<g>
	<path d="M470.1,151.8c0-1.8,2.5-3.5,4.5-3.5c1.3,0,2.3,0.7,2.3,1.7c0,1.7-2.5,3.5-4.6,3.5C471.1,153.5,470.1,152.9,470.1,151.8z"/>
</g>
<g>
	<path d="M464.2,142.6h0.6l-0.1,6.2c0.4-0.7,1-1,1.8-1c1.2,0,2.2,0.8,2.2,1.9c0,0.8-0.5,1.8-1.7,2.7l-2.8,2.1V142.6z M464.8,149.5
		c-0.1,0.8-0.1,1.4-0.1,1.9c0,1,0,1.6,0.1,2c1-0.7,2.4-2.6,2.4-3.7c0-0.6-0.5-1.1-1.1-1.1C465.5,148.7,465.1,149,464.8,149.5z"/>
</g>
<rect x="486.7" y="153" width="10.7" height="0.8"/>
<rect x="495.1" y="136" width="0.5" height="16.6"/>
<g>
	<path d="M492.8,150.7c1.6,0,2.7,0.7,2.7,2c0,1.9-2.3,3.4-4.5,3.4c-1.3,0-2.4-0.7-2.4-1.8C488.5,152.5,490.8,150.7,492.8,150.7z
		 M489,154.5c0,0.6,0.4,0.9,1.1,0.9c1.4,0,4.9-2.1,4.9-3.3c0-0.6-0.4-0.9-1.1-0.9C492.7,151.3,489,153.3,489,154.5z"/>
</g>
<rect x="36.9" y="183.9" width="0.5" height="17.7"/>
<g>
	<path d="M37,184c0-1.8,2.5-3.5,4.5-3.5c1.3,0,2.3,0.7,2.3,1.7c0,1.7-2.5,3.5-4.6,3.5C38,185.7,37,185.1,37,184z"/>
</g>
<rect x="55.4" y="186.4" width="0.5" height="16"/>
<g>
	<path d="M55.4,186.5c0-1.8,2.5-3.5,4.5-3.5c1.3,0,2.3,0.7,2.3,1.7c0,1.7-2.5,3.5-4.6,3.5C56.4,188.2,55.4,187.6,55.4,186.5z"/>
</g>
<rect x="74" y="186.4" width="0.5" height="16.7"/>
<g>
	<path d="M74,186.5c0-1.8,2.5-3.5,4.5-3.5c1.3,0,2.3,0.7,2.3,1.7c0,1.7-2.5,3.5-4.6,3.5C75,188.2,74,187.6,74,186.5z"/>
</g>
<g>
	<path d="M68.1,177.3h0.6l-0.1,6.2c0.4-0.7,1-1,1.8-1c1.2,0,2.2,0.8,2.2,1.9c0,0.8-0.5,1.8-1.7,2.7l-2.8,2.1V177.3z M68.7,184.2
		c-0.1,0.8-0.1,1.4-0.1,1.9c0,1,0,1.6,0.1,2c1-0.7,2.4-2.6,2.4-3.7c0-0.6-0.5-1.1-1.1-1.1C69.4,183.4,69,183.7,68.7,184.2z"/>
</g>
<rect x="92.4" y="188.9" width="0.5" height="15.2"/>
<g>
	<path d="M92.5,189c0-1.8,2.5-3.5,4.5-3.5c1.3,0,2.3,0.7,2.3,1.7c0,1.7-2.5,3.5-4.6,3.5C93.5,190.7,92.5,190.1,92.5,189z"/>
</g>
<rect x="117.4" y="170.9" width="0.5" height="16.4"/>
<g>
	<path d="M110.9,189c0-1.8,2.5-3.5,4.5-3.5c1.3,0,2.3,0.7,2.3,1.7c0,1.7-2.5,3.5-4.6,3.5C111.9,190.7,110.9,190.1,110.9,189z"/>
</g>
<g>
	<path d="M105,179.8h0.6l-0.1,6.2c0.4-0.7,1-1,1.8-1c1.2,0,2.2,0.8,2.2,1.9c0,0.8-0.5,1.8-1.7,2.7l-2.8,2.1V179.8z M105.6,186.7
		c-0.1,0.8-0.1,1.4-0.1,1.9c0,1,0,1.6,0.1,2c1-0.7,2.4-2.6,2.4-3.7c0-0.6-0.5-1.1-1.1-1.1C106.3,185.9,105.9,186.2,105.6,186.7z"/>
</g>
<rect x="135.8" y="172.5" width="0.5" height="17.4"/>
<g>
	<path d="M129.4,191.5c0-1.8,2.5-3.5,4.5-3.5c1.3,0,2.3,0.7,2.3,1.7c0,1.7-2.5,3.5-4.6,3.5C130.3,193.2,129.4,192.5,129.4,191.5z"/>
</g>
<rect x="154.4" y="174.2" width="0.5" height="15.7"/>
<g>
	<path d="M148,191.5c0-1.8,2.5-3.5,4.5-3.5c1.3,0,2.3,0.7,2.3,1.7c0,1.7-2.5,3.5-4.6,3.5C148.9,193.2,148,192.5,148,191.5z"/>
</g>
<g>
	<path d="M142.1,182.3h0.6l-0.1,6.2c0.4-0.7,1-1,1.8-1c1.2,0,2.2,0.8,2.2,1.9c0,0.8-0.5,1.8-1.7,2.7l-2.8,2.1V182.3z M142.7,189.2
		c-0.1,0.8-0.1,1.4-0.1,1.9c0,1,0,1.6,0.1,2c1-0.7,2.4-2.6,2.4-3.7c0-0.6-0.5-1.1-1.1-1.1C143.4,188.4,143,188.6,142.7,189.2z"/>
</g>
<rect x="172.9" y="175.9" width="0.5" height="16.4"/>
<g>
	<path d="M166.4,193.9c0-1.8,2.5-3.5,4.5-3.5c1.3,0,2.3,0.7,2.3,1.7c0,1.7-2.5,3.5-4.6,3.5C167.4,195.7,166.4,195,166.4,193.9z"/>
</g>
<rect x="191.3" y="179.6" width="0.5" height="15.2"/>
<g>
	<path d="M184.9,196.4c0-1.8,2.5-3.5,4.5-3.5c1.3,0,2.3,0.7,2.3,1.7c0,1.7-2.5,3.5-4.6,3.5C185.8,198.1,184.9,197.5,184.9,196.4z"/>
</g>
<rect x="209.9" y="179.9" width="0.5" height="14.9"/>
<g>
	<path d="M203.5,196.4c0-1.8,2.5-3.5,4.5-3.5c1.3,0,2.3,0.7,2.3,1.7c0,1.7-2.5,3.5-4.6,3.5C204.4,198.1,203.5,197.5,203.5,196.4z"/>
</g>
<g>
	<path d="M197.6,187.3h0.6l-0.1,6.2c0.4-0.7,1-1,1.8-1c1.2,0,2.2,0.8,2.2,1.9c0,0.8-0.5,1.8-1.7,2.7l-2.8,2.1V187.3z M198.2,194.2
		c-0.1,0.8-0.1,1.4-0.1,1.9c0,1,0,1.6,0.1,2c1-0.7,2.4-2.6,2.4-3.7c0-0.6-0.5-1.1-1.1-1.1C198.9,193.3,198.5,193.6,198.2,194.2z"/>
</g>
<rect x="228.3" y="180.4" width="0.5" height="16.9"/>
<g>
	<path d="M221.9,198.9c0-1.8,2.5-3.5,4.5-3.5c1.3,0,2.3,0.7,2.3,1.7c0,1.7-2.5,3.5-4.6,3.5C222.9,200.6,221.9,200,221.9,198.9z"/>
</g>
<rect x="246.8" y="180.8" width="0.5" height="16.4"/>
<g>
	<path d="M240.4,198.9c0-1.8,2.5-3.5,4.5-3.5c1.3,0,2.3,0.7,2.3,1.7c0,1.7-2.5,3.5-4.6,3.5C241.3,200.6,240.4,200,240.4,198.9z"/>
</g>
<g>
	<path d="M234.5,189.7h0.6L235,196c0.4-0.7,1-1,1.8-1c1.2,0,2.2,0.8,2.2,1.9c0,0.8-0.5,1.8-1.7,2.7l-2.8,2.1V189.7z M235,196.6
		c-0.1,0.8-0.1,1.4-0.1,1.9c0,1,0,1.6,0.1,2c1-0.7,2.4-2.6,2.4-3.7c0-0.6-0.5-1.1-1.1-1.1C235.8,195.8,235.3,196.1,235,196.6z"/>
</g>
<rect x="264.9" y="170.4" width="10.5" height="0.8"/>
<rect x="266.6" y="171.5" width="0.5" height="18.6"/>
<g>
	<path d="M266.7,171.6c0-1.8,2.5-3.5,4.5-3.5c1.3,0,2.3,0.7,2.3,1.7c0,1.7-2.5,3.5-4.6,3.5C267.7,173.3,266.7,172.7,266.7,171.6z"/>
</g>
<rect x="285.1" y="174" width="0.5" height="16.3"/>
<g>
	<path d="M285.2,174.1c0-1.8,2.5-3.5,4.5-3.5c1.3,0,2.3,0.7,2.3,1.7c0,1.7-2.5,3.5-4.6,3.5C286.1,175.8,285.2,175.2,285.2,174.1z"/>
</g>
<g>
	<path d="M283.2,180v-4l-3,1.1v-10.7h0.5v4l3-1.1V180H283.2z M280.7,175.3l2.5-0.9v-3.3l-2.5,0.9V175.3z"/>
</g>
<rect x="303.7" y="174" width="0.5" height="16.4"/>
<g>
	<path d="M303.8,174.1c0-1.8,2.5-3.5,4.5-3.5c1.3,0,2.3,0.7,2.3,1.7c0,1.7-2.5,3.5-4.6,3.5C304.7,175.8,303.8,175.2,303.8,174.1z"/>
</g>
<g>
	<path d="M297.9,164.9h0.6l-0.1,6.2c0.4-0.7,1-1,1.8-1c1.2,0,2.2,0.8,2.2,1.9c0,0.8-0.5,1.8-1.7,2.7l-2.8,2.1V164.9z M298.4,171.8
		c-0.1,0.8-0.1,1.4-0.1,1.9c0,1,0,1.6,0.1,2c1-0.7,2.4-2.6,2.4-3.7c0-0.6-0.5-1.1-1.1-1.1C299.2,171,298.7,171.3,298.4,171.8z"/>
</g>
<rect x="322.1" y="176.5" width="0.5" height="14.3"/>
<g>
	<path d="M322.2,176.6c0-1.8,2.5-3.5,4.5-3.5c1.3,0,2.3,0.7,2.3,1.7c0,1.7-2.5,3.5-4.6,3.5C323.2,178.3,322.2,177.7,322.2,176.6z"/>
</g>
<g>
	<path d="M320.3,182.5v-4l-3,1.1v-10.7h0.5v4l3-1.1v10.7H320.3z M317.7,177.8l2.5-0.9v-3.3l-2.5,0.9V177.8z"/>
</g>
<rect x="340.6" y="176.5" width="0.5" height="18.6"/>
<g>
	<path d="M340.7,176.6c0-1.8,2.5-3.5,4.5-3.5c1.3,0,2.3,0.7,2.3,1.7c0,1.7-2.5,3.5-4.6,3.5C341.6,178.3,340.7,177.7,340.7,176.6z"/>
</g>
<g>
	<path d="M334.8,167.4h0.6l-0.1,6.2c0.4-0.7,1-1,1.8-1c1.2,0,2.2,0.8,2.2,1.9c0,0.8-0.5,1.8-1.7,2.7l-2.8,2.1V167.4z M335.3,174.3
		c-0.1,0.8-0.1,1.4-0.1,1.9c0,1,0,1.6,0.1,2c1-0.7,2.4-2.6,2.4-3.7c0-0.6-0.5-1.1-1.1-1.1C336.1,173.5,335.6,173.8,335.3,174.3z"/>
</g>
<rect x="359" y="179" width="0.5" height="16.3"/>
<g>
	<path d="M359.1,179.1c0-1.8,2.5-3.5,4.5-3.5c1.3,0,2.3,0.7,2.3,1.7c0,1.7-2.5,3.5-4.6,3.5C360.1,180.8,359.1,180.1,359.1,179.1z"/>
</g>
<g>
	<path d="M357.2,185v-4l-3,1.1v-10.7h0.5v4l3-1.1V185H357.2z M354.6,180.3l2.5-0.9v-3.3l-2.5,0.9V180.3z"/>
</g>
<rect x="377.6" y="179" width="0.5" height="16.4"/>
<g>
	<path d="M377.7,179.1c0-1.8,2.5-3.5,4.5-3.5c1.3,0,2.3,0.7,2.3,1.7c0,1.7-2.5,3.5-4.6,3.5C378.7,180.8,377.7,180.1,377.7,179.1z"/>
</g>
<g>
	<path d="M371.8,169.9h0.6l-0.1,6.2c0.4-0.7,1-1,1.8-1c1.2,0,2.2,0.8,2.2,1.9c0,0.8-0.5,1.8-1.7,2.7l-2.8,2.1V169.9z M372.4,176.8
		c-0.1,0.8-0.1,1.4-0.1,1.9c0,1,0,1.6,0.1,2c1-0.7,2.4-2.6,2.4-3.7c0-0.6-0.5-1.1-1.1-1.1C373.1,176,372.7,176.2,372.4,176.8z"/>
</g>
<rect x="396.1" y="181.5" width="0.5" height="14.3"/>
<g>
	<path d="M396.2,181.5c0-1.8,2.5-3.5,4.5-3.5c1.3,0,2.3,0.7,2.3,1.7c0,1.7-2.5,3.5-4.6,3.5C397.1,183.3,396.2,182.6,396.2,181.5z"/>
</g>
<rect x="414.5" y="183.9" width="0.5" height="16.4"/>
<g>
	<path d="M414.6,184c0-1.8,2.5-3.5,4.5-3.5c1.3,0,2.3,0.7,2.3,1.7c0,1.7-2.5,3.5-4.6,3.5C415.6,185.7,414.6,185.1,414.6,184z"/>
</g>
<g>
	<path d="M412.7,189.9v-4l-3,1.1v-10.7h0.5v4l3-1.1v10.7H412.7z M410.1,185.3l2.5-0.9V181l-2.5,0.9V185.3z"/>
</g>
<rect x="433.1" y="183.9" width="0.5" height="16.7"/>
<g>
	<path d="M433.2,184c0-1.8,2.5-3.5,4.5-3.5c1.3,0,2.3,0.7,2.3,1.7c0,1.7-2.5,3.5-4.6,3.5C434.2,185.7,433.2,185.1,433.2,184z"/>
</g>
<g>
	<path d="M427.3,174.8h0.6l-0.1,6.2c0.4-0.7,1-1,1.8-1c1.2,0,2.2,0.8,2.2,1.9c0,0.8-0.5,1.8-1.7,2.7l-2.8,2.1V174.8z M427.9,181.8
		c-0.1,0.8-0.1,1.4-0.1,1.9c0,1,0,1.6,0.1,2c1-0.7,2.4-2.6,2.4-3.7c0-0.6-0.5-1.1-1.1-1.1C428.6,180.9,428.2,181.2,427.9,181.8z"/>
</g>
<rect x="451.6" y="186.4" width="0.5" height="14.7"/>
<g>
	<path d="M451.6,186.5c0-1.8,2.5-3.5,4.5-3.5c1.3,0,2.3,0.7,2.3,1.7c0,1.7-2.5,3.5-4.6,3.5C452.6,188.2,451.6,187.6,451.6,186.5z"/>
</g>
<g>
	<path d="M449.7,192.4v-4l-3,1.1v-10.7h0.5v4l3-1.1v10.7H449.7z M447.2,187.7l2.5-0.9v-3.3l-2.5,0.9V187.7z"/>
</g>
<rect x="470" y="186.4" width="0.5" height="15.2"/>
<g>
	<path d="M470.1,186.5c0-1.8,2.5-3.5,4.5-3.5c1.3,0,2.3,0.7,2.3,1.7c0,1.7-2.5,3.5-4.6,3.5C471.1,188.2,470.1,187.6,470.1,186.5z"/>
</g>
<g>
	<path d="M464.2,177.3h0.6l-0.1,6.2c0.4-0.7,1-1,1.8-1c1.2,0,2.2,0.8,2.2,1.9c0,0.8-0.5,1.8-1.7,2.7l-2.8,2.1V177.3z M464.8,184.2
		c-0.1,0.8-0.1,1.4-0.1,1.9c0,1,0,1.6,0.1,2c1-0.7,2.4-2.6,2.4-3.7c0-0.6-0.5-1.1-1.1-1.1C465.5,183.4,465.1,183.7,464.8,184.2z"/>
</g>
<rect x="495.1" y="170.8" width="0.5" height="16.6"/>
<g>
	<path d="M492.8,185.4c1.6,0,2.7,0.7,2.7,2c0,1.9-2.3,3.4-4.5,3.4c-1.3,0-2.4-0.7-2.4-1.8C488.5,187.2,490.8,185.4,492.8,185.4z
		 M489,189.3c0,0.6,0.4,0.9,1.1,0.9c1.4,0,4.9-2.1,4.9-3.3c0-0.6-0.4-0.9-1.1-0.9C492.7,186,489,188,489,189.3z"/>
</g>
</svg>
