<?xml version="1.0" encoding="utf-8"?>

<!--
	ScaleBook
	Copyright (c) Leland Jansen 2015. All rights reserved.
-->

<!DOCTYPE svg PUBLIC "-//W3C//DTD SVG 1.1//EN" "http://www.w3.org/Graphics/SVG/1.1/DTD/svg11.dtd">
<svg version="1.1" id="Layer_1" xmlns="http://www.w3.org/2000/svg" xmlns:xlink="http://www.w3.org/1999/xlink" x="0px" y="0px"
	 viewBox="0 0 553.1 210" enable-background="new 0 0 553.1 210" xml:space="preserve">
<rect x="8.5" y="20.7" width="0.8" height="67"/>
<g>
	<path d="M7.6,21.4c-1.9,1.1-3.6,5.8-3.6,9.4c0,2.3,1.4,9.9,1.4,12.3c0,5-1.5,8.6-4.6,11.1c3,2.4,4.6,6.1,4.6,11.1
		c0,2.3-1.4,9.9-1.4,12.3c0,3.8,1.7,8.4,3.6,9.5v0.7c-3.5-2.3-5.8-8.2-5.8-13.1c0-2.1,1.7-9.4,1.7-11.5c0-3.8-1-6.6-2.9-8.2
		c-0.3-0.3-0.5-0.5-0.5-0.7c0-0.2,0.1-0.4,0.5-0.7c1.9-1.7,2.9-4.2,2.9-7.6c0-2.1-1.7-10-1.7-12.2c0-5.2,2.1-10.4,5.8-13.1V21.4z"/>
</g>
<rect x="8.5" y="133.6" width="0.8" height="67.7"/>
<g>
	<path d="M7.6,134.2c-2,1.1-3.7,5.8-3.7,9.6c0,2.3,1.4,10,1.4,12.4c0,5-1.6,8.7-4.7,11.2c3.1,2.4,4.7,6.2,4.7,11.2
		c0,2.3-1.4,10-1.4,12.4c0,3.9,1.8,8.5,3.7,9.6v0.7C4,199,1.7,193,1.7,188.1c0-2.2,1.8-9.5,1.8-11.7c0-3.9-1-6.6-3-8.3
		c-0.3-0.3-0.5-0.5-0.5-0.7c0-0.2,0.1-0.4,0.5-0.7c2-1.7,3-4.3,3-7.7c0-2.2-1.8-10.2-1.8-12.3c0-5.2,2.1-10.5,5.9-13.2V134.2z"/>
</g>
<rect x="552.3" y="20.7" width="0.8" height="67"/>
<rect x="548" y="133.6" width="0.8" height="67.7"/>
<rect x="550.5" y="133.6" width="2.5" height="67.7"/>
<rect x="8.6" y="40.3" width="544.4" height="0.5"/>
<rect x="8.6" y="35.4" width="544.4" height="0.5"/>
<rect x="8.6" y="30.4" width="544.4" height="0.5"/>
<rect x="8.6" y="25.4" width="544.4" height="0.5"/>
<rect x="8.6" y="20.5" width="544.4" height="0.5"/>
<g>
	<path d="M20.4,40.4c-4.2,0-8.1-3.1-8.1-6.9c0-3.2,2.3-6.7,6.8-10.5c-0.3-1.2-0.4-2.4-0.4-3.6c0-3.5,1.2-6.8,3.2-8.5
		c1.8,2.5,2.7,4.9,2.7,7.1c0,2.9-1.3,5.6-4.3,8.1l0.9,4.2c0.5,0,0.8-0.1,0.8-0.1c2.6,0,4.8,2,4.8,4.7c0,1.9-1.4,3.7-3.6,4.8
		c0-0.1,0.9,3.8,0.9,4.3c0,2.5-2.3,4.2-4.9,4.2c-2,0-3.6-1.3-3.6-3.4c0-1.4,1-2.6,2.4-2.6c1.3,0,2.3,1.3,2.3,2.5
		c0,1.4-1.2,2.3-2.7,2.5c0.6,0.3,1.2,0.5,1.9,0.5c2.1,0,4.1-1.6,4.1-3.6c0-0.2,0-0.4-0.1-0.6l-0.8-3.7
		C22.1,40.3,21.4,40.4,20.4,40.4z M18.2,35.2c0,1,0.5,1.9,1.6,2.5c-1.8-0.3-3-1.4-3-3.1c0-2,1.7-3.7,3.8-4.1l-0.8-4
		c-3.7,2.8-5.7,5.5-5.7,8.1c0,2.9,2.8,5.3,6,5.3c0.9,0,1.7-0.2,2.4-0.5l-1.4-6.8C19.5,32.8,18.2,33.8,18.2,35.2z M22.3,13.8
		c-1.6,0-2.9,3.7-2.9,7c0,0.7,0,1.3,0.2,1.9c2.7-2.4,4-4.5,4-6.5c0-0.9-0.3-1.7-1-2.4C22.5,13.9,22.4,13.8,22.3,13.8z M25,35.7
		c0-1.6-1.2-3.3-2.9-3.3c-0.1,0-0.2,0-0.5,0l1.4,6.6C24.4,38.2,25,37,25,35.7z"/>
</g>
<polygon fill-rule="evenodd" clip-rule="evenodd" points="43.8,31.9 107,26.9 107,24.4 43.8,29.4 "/>
<polygon fill-rule="evenodd" clip-rule="evenodd" points="43.8,28.2 107,23.2 107,20.7 43.8,25.7 "/>
<polygon fill-rule="evenodd" clip-rule="evenodd" points="128.1,22 191.4,20.7 191.4,18.2 128.1,19.5 "/>
<polygon fill-rule="evenodd" clip-rule="evenodd" points="128.1,18.2 191.4,17 191.4,14.5 128.1,15.8 "/>
<rect x="205.9" y="40.6" fill-rule="evenodd" clip-rule="evenodd" width="63.2" height="2.5"/>
<rect x="205.9" y="44.3" fill-rule="evenodd" clip-rule="evenodd" width="63.2" height="2.5"/>
<polygon fill-rule="evenodd" clip-rule="evenodd" points="300.4,37.1 363.4,36.5 363.4,34 300.4,34.7 "/>
<polygon fill-rule="evenodd" clip-rule="evenodd" points="300.4,40.9 363.4,40.2 363.4,37.8 300.4,38.4 "/>
<polygon fill-rule="evenodd" clip-rule="evenodd" points="384.5,33.1 447.8,31.9 447.8,29.4 384.5,30.6 "/>
<polygon fill-rule="evenodd" clip-rule="evenodd" points="384.5,36.8 447.8,35.6 447.8,33.1 384.5,34.4 "/>
<rect x="468.9" y="24.4" fill-rule="evenodd" clip-rule="evenodd" width="63.2" height="2.5"/>
<rect x="468.9" y="28.2" fill-rule="evenodd" clip-rule="evenodd" width="63.2" height="2.5"/>
<rect x="8.6" y="87.4" width="544.4" height="0.5"/>
<rect x="8.6" y="82.5" width="544.4" height="0.5"/>
<rect x="8.6" y="77.5" width="544.4" height="0.5"/>
<rect x="8.6" y="72.6" width="544.4" height="0.5"/>
<rect x="8.6" y="67.6" width="544.4" height="0.5"/>
<g>
	<path d="M15.9,82c2.9-2.6,4.7-6.1,4.7-9.2c0-2.5-1.4-4.4-3.7-4.4c-1.6,0-3.4,1.3-3.4,2.7c0,0.2,0,0.3,0.1,0.3
		c-0.1,0,0.6-0.6,1.4-0.6c0.9,0,1.5,0.8,1.5,1.7c0,1.2-0.9,2.2-2.1,2.2c-1.2,0-2.1-1.3-2.1-2.8c0-2.3,2.3-4.1,4.8-4.1
		c4.7,0,5.9,3.2,5.9,5.8c0,1.6-0.4,2.9-2,5.3c-1.9,3.1-6.4,5.3-8.1,5.3c-0.4,0-0.6-0.2-0.6-0.5C14,83.3,15.1,82.7,15.9,82z
		 M25.8,69.3c0.6,0,1,0.4,1,1c0,0.6-0.4,1-1,1s-1-0.4-1-1C24.8,69.8,25.3,69.3,25.8,69.3z M25.8,74.3c0.6,0,1,0.4,1,1
		c0,0.6-0.4,1-1,1s-1-0.4-1-1C24.8,74.7,25.3,74.3,25.8,74.3z"/>
</g>
<polygon fill-rule="evenodd" clip-rule="evenodd" points="37.3,92.6 100.5,90.2 100.5,87.7 37.3,90.2 "/>
<polygon fill-rule="evenodd" clip-rule="evenodd" points="37.3,96.4 100.5,93.9 100.5,91.4 37.3,93.9 "/>
<polygon fill-rule="evenodd" clip-rule="evenodd" points="121.6,85.2 184.9,84 184.9,81.5 121.6,82.7 "/>
<polygon fill-rule="evenodd" clip-rule="evenodd" points="121.6,88.9 184.9,87.7 184.9,85.2 121.6,86.4 "/>
<g>
	<path d="M289.4,86.3c-3.2,0-6.1-2.3-6.1-5.1c0-2.4,1.7-5,5.1-7.9c-0.2-0.9-0.3-1.8-0.3-2.7c0-2.6,0.9-5.1,2.4-6.3
		c1.4,1.9,2,3.7,2,5.3c0,2.2-1,4.2-3.2,6.1l0.7,3.1c0.4,0,0.6,0,0.6,0c2,0,3.6,1.5,3.6,3.5c0,1.4-1.1,2.8-2.7,3.6
		c0-0.1,0.6,2.8,0.6,3.3c0,1.9-1.7,3.2-3.7,3.2c-1.5,0-2.7-1-2.7-2.5c0-1.1,0.7-1.9,1.8-1.9c1,0,1.7,1,1.7,1.9c0,1-0.9,1.7-2,1.8
		c0.4,0.2,0.9,0.3,1.4,0.3c1.6,0,3.1-1.2,3.1-2.7c0-0.1,0-0.3,0-0.5l-0.6-2.8C290.6,86.2,290.1,86.3,289.4,86.3z M287.7,82.4
		c0,0.8,0.4,1.4,1.2,1.9c-1.3-0.2-2.2-1.1-2.2-2.3c0-1.5,1.3-2.8,2.9-3.1l-0.6-3c-2.8,2.1-4.3,4.1-4.3,6.1c0,2.2,2.1,4,4.5,4
		c0.7,0,1.3-0.1,1.8-0.4l-1.1-5.1C288.7,80.6,287.7,81.4,287.7,82.4z M290.8,66.4c-1.2,0-2.2,2.8-2.2,5.3c0,0.5,0,1,0.1,1.4
		c2-1.8,3-3.4,3-4.9c0-0.7-0.3-1.3-0.7-1.8C291,66.4,290.9,66.4,290.8,66.4z M292.8,82.8c0-1.2-0.9-2.4-2.2-2.4c0,0-0.2,0-0.4,0
		l1.1,5C292.3,84.6,292.8,83.8,292.8,82.8z"/>
</g>
<rect x="205.9" y="76.5" fill-rule="evenodd" clip-rule="evenodd" width="63.2" height="2.5"/>
<rect x="205.9" y="80.2" fill-rule="evenodd" clip-rule="evenodd" width="63.2" height="2.5"/>
<polygon fill-rule="evenodd" clip-rule="evenodd" points="306.9,79 370,74 370,71.6 306.9,76.5 "/>
<polygon fill-rule="evenodd" clip-rule="evenodd" points="306.9,75.3 370,70.3 370,67.8 306.9,72.8 "/>
<polygon fill-rule="evenodd" clip-rule="evenodd" points="391,69.1 454.3,67.8 454.3,65.4 391,66.6 "/>
<polygon fill-rule="evenodd" clip-rule="evenodd" points="391,65.4 454.3,64.1 454.3,61.6 391,62.9 "/>
<rect x="468.9" y="87.7" fill-rule="evenodd" clip-rule="evenodd" width="63.2" height="2.5"/>
<rect x="468.9" y="91.4" fill-rule="evenodd" clip-rule="evenodd" width="63.2" height="2.5"/>
<rect x="8.6" y="153.2" width="544.4" height="0.5"/>
<rect x="8.6" y="148.2" width="544.4" height="0.5"/>
<rect x="8.6" y="143.2" width="544.4" height="0.5"/>
<rect x="8.6" y="138.3" width="544.4" height="0.5"/>
<rect x="8.6" y="133.3" width="544.4" height="0.5"/>
<g>
	<path d="M20.4,153.2c-4.2,0-8.1-3.1-8.1-6.9c0-3.2,2.3-6.7,6.8-10.5c-0.3-1.2-0.4-2.4-0.4-3.6c0-3.5,1.2-6.8,3.2-8.5
		c1.8,2.5,2.7,4.9,2.7,7.1c0,2.9-1.3,5.6-4.3,8.1l0.9,4.2c0.5,0,0.8-0.1,0.8-0.1c2.6,0,4.8,2,4.8,4.7c0,1.9-1.4,3.7-3.6,4.8
		c0-0.1,0.9,3.8,0.9,4.3c0,2.5-2.3,4.2-4.9,4.2c-2,0-3.6-1.3-3.6-3.4c0-1.4,1-2.6,2.4-2.6c1.3,0,2.3,1.3,2.3,2.5
		c0,1.4-1.2,2.3-2.7,2.5c0.6,0.3,1.2,0.5,1.9,0.5c2.1,0,4.1-1.6,4.1-3.6c0-0.2,0-0.4-0.1-0.6l-0.8-3.7
		C22.1,153.1,21.4,153.2,20.4,153.2z M18.2,148c0,1,0.5,1.9,1.6,2.5c-1.8-0.3-3-1.4-3-3.1c0-2,1.7-3.7,3.8-4.1l-0.8-4
		c-3.7,2.8-5.7,5.5-5.7,8.1c0,2.9,2.8,5.3,6,5.3c0.9,0,1.7-0.2,2.4-0.5l-1.4-6.8C19.5,145.6,18.2,146.7,18.2,148z M22.3,126.7
		c-1.6,0-2.9,3.7-2.9,7c0,0.7,0,1.3,0.2,1.9c2.7-2.4,4-4.5,4-6.5c0-0.9-0.3-1.7-1-2.4C22.5,126.7,22.4,126.7,22.3,126.7z M25,148.6
		c0-1.6-1.2-3.3-2.9-3.3c-0.1,0-0.2,0-0.5,0l1.4,6.6C24.4,151,25,149.9,25,148.6z"/>
</g>
<polygon fill-rule="evenodd" clip-rule="evenodd" points="37.6,139.8 92.6,141 92.6,138.5 37.6,137.3 "/>
<polygon fill-rule="evenodd" clip-rule="evenodd" points="37.6,143.5 92.6,144.7 92.6,142.2 37.6,141 "/>
<polygon fill-rule="evenodd" clip-rule="evenodd" points="110.9,139.8 165.8,144.7 165.8,142.2 110.9,137.3 "/>
<polygon fill-rule="evenodd" clip-rule="evenodd" points="110.9,143.5 165.8,148.4 165.8,146 110.9,141 "/>
<rect x="184.1" y="147.2" fill-rule="evenodd" clip-rule="evenodd" width="55" height="2.5"/>
<rect x="184.1" y="150.9" fill-rule="evenodd" clip-rule="evenodd" width="55" height="2.5"/>
<polygon fill-rule="evenodd" clip-rule="evenodd" points="269.7,155.9 324.5,158.4 324.5,155.9 269.7,153.4 "/>
<polygon fill-rule="evenodd" clip-rule="evenodd" points="269.7,159.6 324.5,162.1 324.5,159.6 269.7,157.1 "/>
<polygon fill-rule="evenodd" clip-rule="evenodd" points="349.5,131.1 404.4,133.6 404.4,131.1 349.5,128.6 "/>
<polygon fill-rule="evenodd" clip-rule="evenodd" points="349.5,127.4 404.4,129.8 404.4,127.4 349.5,124.9 "/>
<polygon fill-rule="evenodd" clip-rule="evenodd" points="422.7,139.4 477.7,140.1 477.7,137.6 422.7,137 "/>
<polygon fill-rule="evenodd" clip-rule="evenodd" points="422.7,135.7 477.7,136.3 477.7,133.9 422.7,133.2 "/>
<rect x="8.6" y="201.1" width="544.4" height="0.5"/>
<rect x="8.6" y="196.1" width="544.4" height="0.5"/>
<rect x="8.6" y="191.1" width="544.4" height="0.5"/>
<rect x="8.6" y="186.2" width="544.4" height="0.5"/>
<rect x="8.6" y="181.2" width="544.4" height="0.5"/>
<g>
	<path d="M20.4,201.1c-4.2,0-8.1-3.1-8.1-6.9c0-3.2,2.3-6.7,6.8-10.5c-0.3-1.2-0.4-2.4-0.4-3.6c0-3.5,1.2-6.8,3.2-8.5
		c1.8,2.5,2.7,4.9,2.7,7.1c0,2.9-1.3,5.6-4.3,8.1l0.9,4.2c0.5,0,0.8-0.1,0.8-0.1c2.6,0,4.8,2,4.8,4.7c0,1.9-1.4,3.7-3.6,4.8
		c0-0.1,0.9,3.8,0.9,4.3c0,2.5-2.3,4.2-4.9,4.2c-2,0-3.6-1.3-3.6-3.4c0-1.4,1-2.6,2.4-2.6c1.3,0,2.3,1.3,2.3,2.5
		c0,1.4-1.2,2.3-2.7,2.5c0.6,0.3,1.2,0.5,1.9,0.5c2.1,0,4.1-1.6,4.1-3.6c0-0.2,0-0.4-0.1-0.6l-0.8-3.7
		C22.1,201,21.4,201.1,20.4,201.1z M18.2,195.9c0,1,0.5,1.9,1.6,2.5c-1.8-0.3-3-1.4-3-3.1c0-2,1.7-3.7,3.8-4.1l-0.8-4
		c-3.7,2.8-5.7,5.5-5.7,8.1c0,2.9,2.8,5.3,6,5.3c0.9,0,1.7-0.2,2.4-0.5l-1.4-6.8C19.5,193.5,18.2,194.6,18.2,195.9z M22.3,174.6
		c-1.6,0-2.9,3.7-2.9,7c0,0.7,0,1.3,0.2,1.9c2.7-2.4,4-4.5,4-6.5c0-0.9-0.3-1.7-1-2.4C22.5,174.6,22.4,174.6,22.3,174.6z M25,196.5
		c0-1.6-1.2-3.3-2.9-3.3c-0.1,0-0.2,0-0.5,0l1.4,6.6C24.4,198.9,25,197.8,25,196.5z"/>
</g>
<polygon fill-rule="evenodd" clip-rule="evenodd" points="37.6,203.8 92.6,206.3 92.6,203.8 37.6,201.3 "/>
<polygon fill-rule="evenodd" clip-rule="evenodd" points="37.6,207.5 92.6,210 92.6,207.5 37.6,205 "/>
<polygon fill-rule="evenodd" clip-rule="evenodd" points="117.4,179 172.3,181.5 172.3,179 117.4,176.5 "/>
<polygon fill-rule="evenodd" clip-rule="evenodd" points="117.4,175.3 172.3,177.7 172.3,175.3 117.4,172.8 "/>
<g>
	<path d="M254,193.3c2.2-2,3.6-4.6,3.6-6.9c0-1.9-1.1-3.3-2.8-3.3c-1.2,0-2.5,1-2.5,2.1c0,0.2,0,0.2,0.1,0.2c0,0,0.4-0.5,1-0.5
		c0.7,0,1.2,0.6,1.2,1.3c0,0.9-0.6,1.7-1.6,1.7c-0.9,0-1.5-1-1.5-2.1c0-1.8,1.7-3.1,3.6-3.1c3.5,0,4.4,2.4,4.4,4.4
		c0,1.2-0.3,2.2-1.5,4c-1.4,2.3-4.8,4-6,4c-0.3,0-0.5-0.1-0.5-0.3C252.6,194.3,253.4,193.9,254,193.3z M261.5,183.8
		c0.4,0,0.7,0.3,0.7,0.7c0,0.4-0.3,0.7-0.7,0.7s-0.7-0.3-0.7-0.7C260.7,184.1,261.1,183.8,261.5,183.8z M261.5,187.5
		c0.4,0,0.7,0.3,0.7,0.7s-0.3,0.7-0.7,0.7s-0.7-0.3-0.7-0.7S261.1,187.5,261.5,187.5z"/>
</g>
<polygon fill-rule="evenodd" clip-rule="evenodd" points="190.6,187.3 245.6,188 245.6,185.5 190.6,184.9 "/>
<polygon fill-rule="evenodd" clip-rule="evenodd" points="190.6,183.6 245.6,184.2 245.6,181.8 190.6,181.1 "/>
<polygon fill-rule="evenodd" clip-rule="evenodd" points="269.7,187.7 324.5,192.6 324.5,190.1 269.7,185.2 "/>
<polygon fill-rule="evenodd" clip-rule="evenodd" points="269.7,191.4 324.5,196.3 324.5,193.9 269.7,188.9 "/>
<polygon fill-rule="evenodd" clip-rule="evenodd" points="343,192.6 397.9,197.6 397.9,195.1 343,190.1 "/>
<polygon fill-rule="evenodd" clip-rule="evenodd" points="343,196.3 397.9,201.3 397.9,198.8 343,193.9 "/>
<rect x="416.1" y="200.1" fill-rule="evenodd" clip-rule="evenodd" width="55" height="2.5"/>
<rect x="416.1" y="203.8" fill-rule="evenodd" clip-rule="evenodd" width="55" height="2.5"/>
<rect x="43.6" y="25.8" width="0.5" height="16.4"/>
<g>
	<path d="M37.1,43.9c0-1.8,2.5-3.5,4.5-3.5c1.3,0,2.3,0.7,2.3,1.7c0,1.7-2.5,3.5-4.6,3.5C38.1,45.6,37.1,45,37.1,43.9z"/>
</g>
<rect x="64.7" y="24.3" width="0.5" height="15.5"/>
<g>
	<path d="M58.2,41.4c0-1.8,2.5-3.5,4.5-3.5c1.3,0,2.3,0.7,2.3,1.7c0,1.7-2.5,3.5-4.6,3.5C59.2,43.1,58.2,42.5,58.2,41.4z"/>
</g>
<g>
	<path d="M52.3,32.2H53l-0.1,6.2c0.4-0.7,1-1,1.8-1c1.2,0,2.2,0.8,2.2,1.9c0,0.8-0.5,1.8-1.7,2.7l-2.8,2.1V32.2z M52.9,39.1
		c-0.1,0.8-0.1,1.4-0.1,1.9c0,1,0,1.6,0.1,2c1-0.7,2.4-2.6,2.4-3.7c0-0.6-0.5-1.1-1.1-1.1C53.6,38.3,53.2,38.6,52.9,39.1z"/>
</g>
<rect x="85.7" y="22.6" width="0.5" height="17.2"/>
<g>
	<path d="M79.3,41.4c0-1.8,2.5-3.5,4.5-3.5c1.3,0,2.3,0.7,2.3,1.7c0,1.7-2.5,3.5-4.6,3.5C80.3,43.1,79.3,42.5,79.3,41.4z"/>
</g>
<g>
	<path d="M77.4,47.3v-4l-3,1.1V33.7h0.5v4l3-1.1v10.7H77.4z M74.8,42.7l2.5-0.9v-3.3l-2.5,0.9V42.7z"/>
</g>
<rect x="106.8" y="20.9" width="0.5" height="16.4"/>
<g>
	<path d="M100.4,38.9c0-1.8,2.5-3.5,4.5-3.5c1.3,0,2.3,0.7,2.3,1.7c0,1.7-2.5,3.5-4.6,3.5C101.4,40.7,100.4,40,100.4,38.9z"/>
</g>
<rect x="127.9" y="15.9" width="0.5" height="18.9"/>
<g>
	<path d="M121.5,36.4c0-1.8,2.5-3.5,4.5-3.5c1.3,0,2.3,0.7,2.3,1.7c0,1.7-2.5,3.5-4.6,3.5C122.4,38.2,121.5,37.5,121.5,36.4z"/>
</g>
<g>
	<path d="M115.6,27.3h0.6l-0.1,6.2c0.4-0.7,1-1,1.8-1c1.2,0,2.2,0.8,2.2,1.9c0,0.8-0.5,1.8-1.7,2.7l-2.8,2.1V27.3z M116.1,34.2
		c-0.1,0.8-0.1,1.4-0.1,1.9c0,1,0,1.6,0.1,2c1-0.7,2.4-2.6,2.4-3.7c0-0.6-0.5-1.1-1.1-1.1C116.9,33.4,116.4,33.6,116.1,34.2z"/>
</g>
<rect x="149" y="15.6" width="0.5" height="19.2"/>
<g>
	<path d="M142.5,36.4c0-1.8,2.5-3.5,4.5-3.5c1.3,0,2.3,0.7,2.3,1.7c0,1.7-2.5,3.5-4.6,3.5C143.5,38.2,142.5,37.5,142.5,36.4z"/>
</g>
<g>
	<path d="M140.6,42.4v-4l-3,1.1V28.8h0.5v4l3-1.1v10.7H140.6z M138.1,37.7l2.5-0.9v-3.3l-2.5,0.9V37.7z"/>
</g>
<rect x="170.1" y="15.1" width="0.5" height="17.2"/>
<g>
	<path d="M163.6,34c0-1.8,2.5-3.5,4.5-3.5c1.3,0,2.3,0.7,2.3,1.7c0,1.7-2.5,3.5-4.6,3.5C164.6,35.7,163.6,35.1,163.6,34z"/>
</g>
<g>
	<path d="M157.7,24.8h0.6l-0.1,6.2c0.4-0.7,1-1,1.8-1c1.2,0,2.2,0.8,2.2,1.9c0,0.8-0.5,1.8-1.7,2.7l-2.8,2.1V24.8z M158.3,31.7
		c-0.1,0.8-0.1,1.4-0.1,1.9c0,1,0,1.6,0.1,2c1-0.7,2.4-2.6,2.4-3.7c0-0.6-0.5-1.1-1.1-1.1C159,30.9,158.6,31.1,158.3,31.7z"/>
</g>
<rect x="191.1" y="14.7" width="0.5" height="17.7"/>
<g>
	<path d="M184.7,34c0-1.8,2.5-3.5,4.5-3.5c1.3,0,2.3,0.7,2.3,1.7c0,1.7-2.5,3.5-4.6,3.5C185.7,35.7,184.7,35.1,184.7,34z"/>
</g>
<g>
	<path d="M182.8,39.9v-4l-3,1.1V26.3h0.5v4l3-1.1v10.7H182.8z M180.2,35.2l2.5-0.9V31l-2.5,0.9V35.2z"/>
</g>
<rect x="205.7" y="31.4" width="0.5" height="15.2"/>
<g>
	<path d="M205.8,31.5c0-1.8,2.5-3.5,4.5-3.5c1.3,0,2.3,0.7,2.3,1.7c0,1.7-2.5,3.5-4.6,3.5C206.8,33.2,205.8,32.6,205.8,31.5z"/>
</g>
<g>
	<path d="M199.9,22.3h0.6l-0.1,6.2c0.4-0.7,1-1,1.8-1c1.2,0,2.2,0.8,2.2,1.9c0,0.8-0.5,1.8-1.7,2.7l-2.8,2.1V22.3z M200.5,29.2
		c-0.1,0.8-0.1,1.4-0.1,1.9c0,1,0,1.6,0.1,2c1-0.7,2.4-2.6,2.4-3.7c0-0.6-0.5-1.1-1.1-1.1C201.2,28.4,200.8,28.7,200.5,29.2z"/>
</g>
<rect x="226.8" y="31.4" width="0.5" height="15.2"/>
<g>
	<path d="M226.9,31.5c0-1.8,2.5-3.5,4.5-3.5c1.3,0,2.3,0.7,2.3,1.7c0,1.7-2.5,3.5-4.6,3.5C227.8,33.2,226.9,32.6,226.9,31.5z"/>
</g>
<g>
	<path d="M224.9,37.4v-4l-3,1.1V23.8h0.5v4l3-1.1v10.7H224.9z M222.4,32.7l2.5-0.9v-3.3l-2.5,0.9V32.7z"/>
</g>
<rect x="247.9" y="28.9" width="0.5" height="17.7"/>
<g>
	<path d="M248,29c0-1.8,2.5-3.5,4.5-3.5c1.3,0,2.3,0.7,2.3,1.7c0,1.7-2.5,3.5-4.6,3.5C248.9,30.7,248,30.1,248,29z"/>
</g>
<g>
	<path d="M246,34.9v-4l-3,1.1V21.3h0.5v4l3-1.1v10.7H246z M243.5,30.3l2.5-0.9V26l-2.5,0.9V30.3z"/>
</g>
<rect x="269" y="26.4" width="0.5" height="20.2"/>
<g>
	<path d="M269,26.5c0-1.8,2.5-3.5,4.5-3.5c1.3,0,2.3,0.7,2.3,1.7c0,1.7-2.5,3.5-4.6,3.5C270,28.3,269,27.6,269,26.5z"/>
</g>
<g>
	<path d="M263.1,17.4h0.6l-0.1,6.2c0.4-0.7,1-1,1.8-1c1.2,0,2.2,0.8,2.2,1.9c0,0.8-0.5,1.8-1.7,2.7l-2.8,2.1V17.4z M263.7,24.3
		c-0.1,0.8-0.1,1.4-0.1,1.9c0,1,0,1.6,0.1,2c1-0.7,2.4-2.6,2.4-3.7c0-0.6-0.5-1.1-1.1-1.1C264.4,23.4,264,23.7,263.7,24.3z"/>
</g>
<rect x="300.1" y="26.4" width="0.5" height="14.3"/>
<g>
	<path d="M300.2,26.5c0-1.8,2.5-3.5,4.5-3.5c1.3,0,2.3,0.7,2.3,1.7c0,1.7-2.5,3.5-4.6,3.5C301.2,28.3,300.2,27.6,300.2,26.5z"/>
</g>
<g>
	<path d="M298.3,32.4v-4l-3,1.1V18.9h0.5v4l3-1.1v10.7H298.3z M295.7,27.8l2.5-0.9v-3.3l-2.5,0.9V27.8z"/>
</g>
<rect x="321" y="24" width="0.5" height="16.6"/>
<g>
	<path d="M321.1,24c0-1.8,2.5-3.5,4.5-3.5c1.3,0,2.3,0.7,2.3,1.7c0,1.7-2.5,3.5-4.6,3.5C322.1,25.8,321.1,25.1,321.1,24z"/>
</g>
<g>
	<path d="M315.2,14.9h0.6l-0.1,6.2c0.4-0.7,1-1,1.8-1c1.2,0,2.2,0.8,2.2,1.9c0,0.8-0.5,1.8-1.7,2.7l-2.8,2.1V14.9z M315.8,21.8
		c-0.1,0.8-0.1,1.4-0.1,1.9c0,1,0,1.6,0.1,2c1-0.7,2.4-2.6,2.4-3.7c0-0.6-0.5-1.1-1.1-1.1C316.5,21,316.1,21.2,315.8,21.8z"/>
</g>
<rect x="342.1" y="24" width="0.5" height="16.4"/>
<g>
	<path d="M342.2,24c0-1.8,2.5-3.5,4.5-3.5c1.3,0,2.3,0.7,2.3,1.7c0,1.7-2.5,3.5-4.6,3.5C343.2,25.8,342.2,25.1,342.2,24z"/>
</g>
<g>
	<path d="M340.3,30v-4l-3,1.1V16.4h0.5v4l3-1.1V30H340.3z M337.7,25.3l2.5-0.9v-3.3l-2.5,0.9V25.3z"/>
</g>
<rect x="363.2" y="21.5" width="0.5" height="18.6"/>
<g>
	<path d="M363.3,21.6c0-1.8,2.5-3.5,4.5-3.5c1.3,0,2.3,0.7,2.3,1.7c0,1.7-2.5,3.5-4.6,3.5C364.3,23.3,363.3,22.7,363.3,21.6z"/>
</g>
<g>
	<path d="M361.4,27.5v-4l-3,1.1V13.9h0.5v4l3-1.1v10.7H361.4z M358.8,22.8l2.5-0.9v-3.3l-2.5,0.9V22.8z"/>
</g>
<rect x="384.3" y="19" width="0.5" height="17.7"/>
<g>
	<path d="M384.4,19.1c0-1.8,2.5-3.5,4.5-3.5c1.3,0,2.3,0.7,2.3,1.7c0,1.7-2.5,3.5-4.6,3.5C385.3,20.8,384.4,20.2,384.4,19.1z"/>
</g>
<g>
	<path d="M378.5,9.9h0.6l-0.1,6.2c0.4-0.7,1-1,1.8-1c1.2,0,2.2,0.8,2.2,1.9c0,0.8-0.5,1.8-1.7,2.7l-2.8,2.1V9.9z M379.1,16.8
		c-0.1,0.8-0.1,1.4-0.1,1.9c0,1,0,1.6,0.1,2c1-0.7,2.4-2.6,2.4-3.7c0-0.6-0.5-1.1-1.1-1.1C379.8,16,379.4,16.3,379.1,16.8z"/>
</g>
<rect x="405.4" y="19" width="0.5" height="17.4"/>
<g>
	<path d="M405.5,19.1c0-1.8,2.5-3.5,4.5-3.5c1.3,0,2.3,0.7,2.3,1.7c0,1.7-2.5,3.5-4.6,3.5C406.4,20.8,405.5,20.2,405.5,19.1z"/>
</g>
<g>
	<path d="M403.5,25v-4l-3,1.1V11.4h0.5v4l3-1.1V25H403.5z M401,20.3l2.5-0.9v-3.3L401,17V20.3z"/>
</g>
<rect x="424.7" y="15.4" width="10.5" height="0.8"/>
<rect x="426.5" y="16.5" width="0.5" height="19.4"/>
<g>
	<path d="M426.5,16.6c0-1.8,2.5-3.5,4.5-3.5c1.3,0,2.3,0.7,2.3,1.7c0,1.7-2.5,3.5-4.6,3.5C427.5,18.3,426.5,17.7,426.5,16.6z"/>
</g>
<g>
	<path d="M419.4,7.4h0.6l-0.1,6.2c0.4-0.7,1-1,1.8-1c1.2,0,2.2,0.8,2.2,1.9c0,0.8-0.5,1.8-1.7,2.7l-2.8,2.1V7.4z M420,14.3
		c-0.1,0.8-0.1,1.4-0.1,1.9c0,1,0,1.6,0.1,2c1-0.7,2.4-2.6,2.4-3.7c0-0.6-0.5-1.1-1.1-1.1C420.7,13.5,420.3,13.8,420,14.3z"/>
</g>
<rect x="445.8" y="15.4" width="10.5" height="0.8"/>
<rect x="447.5" y="16.5" width="0.5" height="18.9"/>
<g>
	<path d="M447.6,16.6c0-1.8,2.5-3.5,4.5-3.5c1.3,0,2.3,0.7,2.3,1.7c0,1.7-2.5,3.5-4.6,3.5C448.6,18.3,447.6,17.7,447.6,16.6z"/>
</g>
<g>
	<path d="M444.5,22.5v-4l-3,1.1V8.9h0.5v4l3-1.1v10.7H444.5z M441.9,17.9l2.5-0.9v-3.3l-2.5,0.9V17.9z"/>
</g>
<rect x="466.8" y="15.4" width="10.5" height="0.8"/>
<rect x="468.6" y="14" width="0.5" height="16.4"/>
<g>
	<path d="M468.7,14.1c0-1.8,2.5-3.5,4.5-3.5c1.3,0,2.3,0.7,2.3,1.7c0,1.7-2.5,3.5-4.6,3.5C469.7,15.9,468.7,15.2,468.7,14.1z"/>
</g>
<g>
	<path d="M461.6,5h0.6l-0.1,6.2c0.4-0.7,1-1,1.8-1c1.2,0,2.2,0.8,2.2,1.9c0,0.8-0.5,1.8-1.7,2.7l-2.8,2.1V5z M462.1,11.9
		c-0.1,0.8-0.1,1.4-0.1,1.9c0,1,0,1.6,0.1,2c1-0.7,2.4-2.6,2.4-3.7c0-0.6-0.5-1.1-1.1-1.1C462.9,11,462.4,11.3,462.1,11.9z"/>
</g>
<rect x="487.9" y="15.4" width="10.5" height="0.8"/>
<rect x="489.7" y="14" width="0.5" height="16.4"/>
<g>
	<path d="M489.8,14.1c0-1.8,2.5-3.5,4.5-3.5c1.3,0,2.3,0.7,2.3,1.7c0,1.7-2.5,3.5-4.6,3.5C490.8,15.9,489.8,15.2,489.8,14.1z"/>
</g>
<g>
	<path d="M486.6,20v-4l-3,1.1V6.5h0.5v4l3-1.1V20H486.6z M484.1,15.4l2.5-0.9v-3.3l-2.5,0.9V15.4z"/>
</g>
<rect x="509" y="15.4" width="10.5" height="0.8"/>
<rect x="509" y="10.4" width="10.5" height="0.8"/>
<rect x="510.8" y="11.6" width="0.5" height="18.9"/>
<g>
	<path d="M510.9,11.6c0-1.8,2.5-3.5,4.5-3.5c1.3,0,2.3,0.7,2.3,1.7c0,1.7-2.5,3.5-4.6,3.5C511.8,13.4,510.9,12.7,510.9,11.6z"/>
</g>
<g>
	<path d="M507.7,17.6v-4l-3,1.1V4h0.5v4l3-1.1v10.7H507.7z M505.2,12.9l2.5-0.9V8.6l-2.5,0.9V12.9z"/>
</g>
<rect x="530.1" y="15.4" width="10.5" height="0.8"/>
<rect x="530.1" y="10.4" width="10.5" height="0.8"/>
<rect x="531.9" y="9.1" width="0.5" height="21.4"/>
<g>
	<path d="M531.9,9.2c0-1.8,2.5-3.5,4.5-3.5c1.3,0,2.3,0.7,2.3,1.7c0,1.7-2.5,3.5-4.6,3.5C532.9,10.9,531.9,10.3,531.9,9.2z"/>
</g>
<g>
	<path d="M524.8,0h0.6l-0.1,6.2c0.4-0.7,1-1,1.8-1c1.2,0,2.2,0.8,2.2,1.9c0,0.8-0.5,1.8-1.7,2.7l-2.8,2.1V0z M525.4,6.9
		c-0.1,0.8-0.1,1.4-0.1,1.9c0,1,0,1.6,0.1,2c1-0.7,2.4-2.6,2.4-3.7c0-0.6-0.5-1.1-1.1-1.1C526.1,6.1,525.7,6.3,525.4,6.9z"/>
</g>
<rect x="37.1" y="78.5" width="0.5" height="17.7"/>
<g>
	<path d="M37.1,78.6c0-1.8,2.5-3.5,4.5-3.5c1.3,0,2.3,0.7,2.3,1.7c0,1.7-2.5,3.5-4.6,3.5C38.1,80.3,37.1,79.7,37.1,78.6z"/>
</g>
<rect x="58.1" y="76.1" width="0.5" height="19.4"/>
<g>
	<path d="M58.2,76.1c0-1.8,2.5-3.5,4.5-3.5c1.3,0,2.3,0.7,2.3,1.7c0,1.7-2.5,3.5-4.6,3.5C59.2,77.9,58.2,77.2,58.2,76.1z"/>
</g>
<g>
	<path d="M52.3,67H53l-0.1,6.2c0.4-0.7,1-1,1.8-1c1.2,0,2.2,0.8,2.2,1.9c0,0.8-0.5,1.8-1.7,2.7l-2.8,2.1V67z M52.9,73.9
		c-0.1,0.8-0.1,1.4-0.1,1.9c0,1,0,1.6,0.1,2c1-0.7,2.4-2.6,2.4-3.7c0-0.6-0.5-1.1-1.1-1.1C53.6,73,53.2,73.3,52.9,73.9z"/>
</g>
<rect x="79.2" y="76.1" width="0.5" height="18.6"/>
<g>
	<path d="M79.3,76.1c0-1.8,2.5-3.5,4.5-3.5c1.3,0,2.3,0.7,2.3,1.7c0,1.7-2.5,3.5-4.6,3.5C80.3,77.9,79.3,77.2,79.3,76.1z"/>
</g>
<g>
	<path d="M77.4,82v-4l-3,1.1V68.5h0.5v4l3-1.1V82H77.4z M74.8,77.4l2.5-0.9v-3.3l-2.5,0.9V77.4z"/>
</g>
<rect x="100.3" y="73.6" width="0.5" height="20.2"/>
<g>
	<path d="M100.4,73.6c0-1.8,2.5-3.5,4.5-3.5c1.3,0,2.3,0.7,2.3,1.7c0,1.7-2.5,3.5-4.6,3.5C101.4,75.4,100.4,74.7,100.4,73.6z"/>
</g>
<rect x="121.4" y="71.1" width="0.5" height="17.7"/>
<g>
	<path d="M121.5,71.2c0-1.8,2.5-3.5,4.5-3.5c1.3,0,2.3,0.7,2.3,1.7c0,1.7-2.5,3.5-4.6,3.5C122.4,72.9,121.5,72.3,121.5,71.2z"/>
</g>
<g>
	<path d="M115.6,62h0.6l-0.1,6.2c0.4-0.7,1-1,1.8-1c1.2,0,2.2,0.8,2.2,1.9c0,0.8-0.5,1.8-1.7,2.7l-2.8,2.1V62z M116.1,68.9
		c-0.1,0.8-0.1,1.4-0.1,1.9c0,1,0,1.6,0.1,2c1-0.7,2.4-2.6,2.4-3.7c0-0.6-0.5-1.1-1.1-1.1C116.9,68.1,116.4,68.4,116.1,68.9z"/>
</g>
<rect x="142.5" y="71.1" width="0.5" height="17.4"/>
<g>
	<path d="M142.5,71.2c0-1.8,2.5-3.5,4.5-3.5c1.3,0,2.3,0.7,2.3,1.7c0,1.7-2.5,3.5-4.6,3.5C143.5,72.9,142.5,72.3,142.5,71.2z"/>
</g>
<g>
	<path d="M140.6,77.1v-4l-3,1.1V63.5h0.5v4l3-1.1v10.7H140.6z M138.1,72.4l2.5-0.9v-3.3l-2.5,0.9V72.4z"/>
</g>
<rect x="163.6" y="68.6" width="0.5" height="19.4"/>
<g>
	<path d="M163.6,68.7c0-1.8,2.5-3.5,4.5-3.5c1.3,0,2.3,0.7,2.3,1.7c0,1.7-2.5,3.5-4.6,3.5C164.6,70.4,163.6,69.8,163.6,68.7z"/>
</g>
<g>
	<path d="M157.7,59.5h0.6l-0.1,6.2c0.4-0.7,1-1,1.8-1c1.2,0,2.2,0.8,2.2,1.9c0,0.8-0.5,1.8-1.7,2.7l-2.8,2.1V59.5z M158.3,66.4
		c-0.1,0.8-0.1,1.4-0.1,1.9c0,1,0,1.6,0.1,2c1-0.7,2.4-2.6,2.4-3.7c0-0.6-0.5-1.1-1.1-1.1C159,65.6,158.6,65.9,158.3,66.4z"/>
</g>
<rect x="184.6" y="68.6" width="0.5" height="18.9"/>
<g>
	<path d="M184.7,68.7c0-1.8,2.5-3.5,4.5-3.5c1.3,0,2.3,0.7,2.3,1.7c0,1.7-2.5,3.5-4.6,3.5C185.7,70.4,184.7,69.8,184.7,68.7z"/>
</g>
<g>
	<path d="M182.8,74.6v-4l-3,1.1V61h0.5v4l3-1.1v10.7H182.8z M180.2,69.9l2.5-0.9v-3.3l-2.5,0.9V69.9z"/>
</g>
<rect x="205.7" y="66.1" width="0.5" height="16.4"/>
<g>
	<path d="M205.8,66.2c0-1.8,2.5-3.5,4.5-3.5c1.3,0,2.3,0.7,2.3,1.7c0,1.7-2.5,3.5-4.6,3.5C206.8,67.9,205.8,67.3,205.8,66.2z"/>
</g>
<g>
	<path d="M199.9,57h0.6l-0.1,6.2c0.4-0.7,1-1,1.8-1c1.2,0,2.2,0.8,2.2,1.9c0,0.8-0.5,1.8-1.7,2.7l-2.8,2.1V57z M200.5,63.9
		c-0.1,0.8-0.1,1.4-0.1,1.9c0,1,0,1.6,0.1,2c1-0.7,2.4-2.6,2.4-3.7c0-0.6-0.5-1.1-1.1-1.1C201.2,63.1,200.8,63.4,200.5,63.9z"/>
</g>
<rect x="226.8" y="66.1" width="0.5" height="16.4"/>
<g>
	<path d="M226.9,66.2c0-1.8,2.5-3.5,4.5-3.5c1.3,0,2.3,0.7,2.3,1.7c0,1.7-2.5,3.5-4.6,3.5C227.8,67.9,226.9,67.3,226.9,66.2z"/>
</g>
<g>
	<path d="M224.9,72.1v-4l-3,1.1V58.6h0.5v4l3-1.1v10.7H224.9z M222.4,67.5l2.5-0.9v-3.3l-2.5,0.9V67.5z"/>
</g>
<rect x="246.1" y="62.5" width="10.5" height="0.8"/>
<rect x="247.9" y="63.6" width="0.5" height="18.9"/>
<g>
	<path d="M248,63.7c0-1.8,2.5-3.5,4.5-3.5c1.3,0,2.3,0.7,2.3,1.7c0,1.7-2.5,3.5-4.6,3.5C248.9,65.5,248,64.8,248,63.7z"/>
</g>
<g>
	<path d="M244.8,69.6v-4l-3,1.1V56.1h0.5v4l3-1.1v10.7H244.8z M242.3,65l2.5-0.9v-3.3l-2.5,0.9V65z"/>
</g>
<rect x="267.2" y="62.5" width="10.5" height="0.8"/>
<rect x="269" y="61.2" width="0.5" height="21.4"/>
<g>
	<path d="M269,61.2c0-1.8,2.5-3.5,4.5-3.5c1.3,0,2.3,0.7,2.3,1.7c0,1.7-2.5,3.5-4.6,3.5C270,63,269,62.3,269,61.2z"/>
</g>
<g>
	<path d="M261.9,52.1h0.6l-0.1,6.2c0.4-0.7,1-1,1.8-1c1.2,0,2.2,0.8,2.2,1.9c0,0.8-0.5,1.8-1.7,2.7l-2.8,2.1V52.1z M262.5,59
		c-0.1,0.8-0.1,1.4-0.1,1.9c0,1,0,1.6,0.1,2c1-0.7,2.4-2.6,2.4-3.7c0-0.6-0.5-1.1-1.1-1.1C263.2,58.2,262.8,58.4,262.5,59z"/>
</g>
<rect x="306.6" y="72.9" width="0.5" height="16.4"/>
<g>
	<path d="M300.2,91c0-1.8,2.5-3.5,4.5-3.5c1.3,0,2.3,0.7,2.3,1.7c0,1.7-2.5,3.5-4.6,3.5C301.2,92.7,300.2,92.1,300.2,91z"/>
</g>
<g>
	<path d="M298.3,96.9v-4l-3,1.1V83.4h0.5v4l3-1.1v10.7H298.3z M295.7,92.3l2.5-0.9V88l-2.5,0.9V92.3z"/>
</g>
<rect x="327.6" y="71.4" width="0.5" height="15.5"/>
<g>
	<path d="M321.1,88.5c0-1.8,2.5-3.5,4.5-3.5c1.3,0,2.3,0.7,2.3,1.7c0,1.7-2.5,3.5-4.6,3.5C322.1,90.3,321.1,89.6,321.1,88.5z"/>
</g>
<g>
	<path d="M315.2,79.4h0.6l-0.1,6.2c0.4-0.7,1-1,1.8-1c1.2,0,2.2,0.8,2.2,1.9c0,0.8-0.5,1.8-1.7,2.7l-2.8,2.1V79.4z M315.8,86.3
		c-0.1,0.8-0.1,1.4-0.1,1.9c0,1,0,1.6,0.1,2c1-0.7,2.4-2.6,2.4-3.7c0-0.6-0.5-1.1-1.1-1.1C316.5,85.4,316.1,85.7,315.8,86.3z"/>
</g>
<rect x="348.6" y="69.7" width="0.5" height="17.2"/>
<g>
	<path d="M342.2,88.5c0-1.8,2.5-3.5,4.5-3.5c1.3,0,2.3,0.7,2.3,1.7c0,1.7-2.5,3.5-4.6,3.5C343.2,90.3,342.2,89.6,342.2,88.5z"/>
</g>
<g>
	<path d="M340.3,94.4v-4l-3,1.1V80.9h0.5v4l3-1.1v10.7H340.3z M337.7,89.8l2.5-0.9v-3.3l-2.5,0.9V89.8z"/>
</g>
<rect x="369.7" y="68" width="0.5" height="16.4"/>
<g>
	<path d="M363.3,86c0-1.8,2.5-3.5,4.5-3.5c1.3,0,2.3,0.7,2.3,1.7c0,1.7-2.5,3.5-4.6,3.5C364.3,87.8,363.3,87.1,363.3,86z"/>
</g>
<g>
	<path d="M361.4,92v-4l-3,1.1V78.4h0.5v4l3-1.1V92H361.4z M358.8,87.3l2.5-0.9v-3.3l-2.5,0.9V87.3z"/>
</g>
<rect x="390.8" y="63" width="0.5" height="18.9"/>
<g>
	<path d="M384.4,83.6c0-1.8,2.5-3.5,4.5-3.5c1.3,0,2.3,0.7,2.3,1.7c0,1.7-2.5,3.5-4.6,3.5C385.3,85.3,384.4,84.7,384.4,83.6z"/>
</g>
<g>
	<path d="M378.5,74.4h0.6l-0.1,6.2c0.4-0.7,1-1,1.8-1c1.2,0,2.2,0.8,2.2,1.9c0,0.8-0.5,1.8-1.7,2.7l-2.8,2.1V74.4z M379.1,81.3
		c-0.1,0.8-0.1,1.4-0.1,1.9c0,1,0,1.6,0.1,2c1-0.7,2.4-2.6,2.4-3.7c0-0.6-0.5-1.1-1.1-1.1C379.8,80.5,379.4,80.8,379.1,81.3z"/>
</g>
<rect x="411.9" y="62.7" width="0.5" height="19.2"/>
<g>
	<path d="M405.5,83.6c0-1.8,2.5-3.5,4.5-3.5c1.3,0,2.3,0.7,2.3,1.7c0,1.7-2.5,3.5-4.6,3.5C406.4,85.3,405.5,84.7,405.5,83.6z"/>
</g>
<g>
	<path d="M403.5,89.5v-4l-3,1.1V75.9h0.5v4l3-1.1v10.7H403.5z M401,84.8l2.5-0.9v-3.3l-2.5,0.9V84.8z"/>
</g>
<rect x="433" y="62.3" width="0.5" height="17.2"/>
<g>
	<path d="M426.5,81.1c0-1.8,2.5-3.5,4.5-3.5c1.3,0,2.3,0.7,2.3,1.7c0,1.7-2.5,3.5-4.6,3.5C427.5,82.8,426.5,82.2,426.5,81.1z"/>
</g>
<g>
	<path d="M420.6,71.9h0.6l-0.1,6.2c0.4-0.7,1-1,1.8-1c1.2,0,2.2,0.8,2.2,1.9c0,0.8-0.5,1.8-1.7,2.7l-2.8,2.1V71.9z M421.2,78.8
		c-0.1,0.8-0.1,1.4-0.1,1.9c0,1,0,1.6,0.1,2c1-0.7,2.4-2.6,2.4-3.7c0-0.6-0.5-1.1-1.1-1.1C421.9,78,421.5,78.3,421.2,78.8z"/>
</g>
<rect x="454" y="61.8" width="0.5" height="17.7"/>
<g>
	<path d="M447.6,81.1c0-1.8,2.5-3.5,4.5-3.5c1.3,0,2.3,0.7,2.3,1.7c0,1.7-2.5,3.5-4.6,3.5C448.6,82.8,447.6,82.2,447.6,81.1z"/>
</g>
<g>
	<path d="M445.7,87v-4l-3,1.1V73.4h0.5v4l3-1.1V87H445.7z M443.2,82.3l2.5-0.9v-3.3l-2.5,0.9V82.3z"/>
</g>
<rect x="468.6" y="78.5" width="0.5" height="15.2"/>
<g>
	<path d="M468.7,78.6c0-1.8,2.5-3.5,4.5-3.5c1.3,0,2.3,0.7,2.3,1.7c0,1.7-2.5,3.5-4.6,3.5C469.7,80.3,468.7,79.7,468.7,78.6z"/>
</g>
<g>
	<path d="M462.8,69.4h0.6l-0.1,6.2c0.4-0.7,1-1,1.8-1c1.2,0,2.2,0.8,2.2,1.9c0,0.8-0.5,1.8-1.7,2.7l-2.8,2.1V69.4z M463.4,76.3
		c-0.1,0.8-0.1,1.4-0.1,1.9c0,1,0,1.6,0.1,2c1-0.7,2.4-2.6,2.4-3.7c0-0.6-0.5-1.1-1.1-1.1C464.1,75.5,463.7,75.8,463.4,76.3z"/>
</g>
<rect x="489.7" y="78.5" width="0.5" height="15.2"/>
<g>
	<path d="M489.8,78.6c0-1.8,2.5-3.5,4.5-3.5c1.3,0,2.3,0.7,2.3,1.7c0,1.7-2.5,3.5-4.6,3.5C490.8,80.3,489.8,79.7,489.8,78.6z"/>
</g>
<g>
	<path d="M487.9,84.5v-4l-3,1.1V71h0.5v4l3-1.1v10.7H487.9z M485.3,79.9l2.5-0.9v-3.3l-2.5,0.9V79.9z"/>
</g>
<rect x="510.8" y="76.1" width="0.5" height="17.7"/>
<g>
	<path d="M510.9,76.1c0-1.8,2.5-3.5,4.5-3.5c1.3,0,2.3,0.7,2.3,1.7c0,1.7-2.5,3.5-4.6,3.5C511.8,77.9,510.9,77.2,510.9,76.1z"/>
</g>
<g>
	<path d="M508.9,82v-4l-3,1.1V68.5h0.5v4l3-1.1V82H508.9z M506.4,77.4l2.5-0.9v-3.3l-2.5,0.9V77.4z"/>
</g>
<rect x="531.9" y="73.6" width="0.5" height="20.2"/>
<g>
	<path d="M531.9,73.6c0-1.8,2.5-3.5,4.5-3.5c1.3,0,2.3,0.7,2.3,1.7c0,1.7-2.5,3.5-4.6,3.5C532.9,75.4,531.9,74.7,531.9,73.6z"/>
</g>
<g>
	<path d="M526.1,64.5h0.6l-0.1,6.2c0.4-0.7,1-1,1.8-1c1.2,0,2.2,0.8,2.2,1.9c0,0.8-0.5,1.8-1.7,2.7l-2.8,2.1V64.5z M526.6,71.4
		c-0.1,0.8-0.1,1.4-0.1,1.9c0,1,0,1.6,0.1,2c1-0.7,2.4-2.6,2.4-3.7c0-0.6-0.5-1.1-1.1-1.1C527.3,70.6,526.9,70.8,526.6,71.4z"/>
</g>
<rect x="35.6" y="128.2" width="10.5" height="0.8"/>
<rect x="35.6" y="123.2" width="10.5" height="0.8"/>
<rect x="37.4" y="121.9" width="0.5" height="21.4"/>
<g>
	<path d="M37.4,122c0-1.8,2.5-3.5,4.5-3.5c1.3,0,2.3,0.7,2.3,1.7c0,1.7-2.5,3.5-4.6,3.5C38.4,123.7,37.4,123.1,37.4,122z"/>
</g>
<g>
	<path d="M34.3,127.9v-4l-3,1.1v-10.7h0.5v4l3-1.1v10.7H34.3z M31.7,123.3l2.5-0.9V119l-2.5,0.9V123.3z"/>
</g>
<rect x="53.9" y="128.2" width="10.5" height="0.8"/>
<rect x="53.9" y="123.2" width="10.5" height="0.8"/>
<rect x="55.7" y="121.9" width="0.5" height="21.7"/>
<g>
	<path d="M55.7,122c0-1.8,2.5-3.5,4.5-3.5c1.3,0,2.3,0.7,2.3,1.7c0,1.7-2.5,3.5-4.6,3.5C56.7,123.7,55.7,123.1,55.7,122z"/>
</g>
<g>
	<path d="M48.6,112.8h0.6l-0.1,6.2c0.4-0.7,1-1,1.8-1c1.2,0,2.2,0.8,2.2,1.9c0,0.8-0.5,1.8-1.7,2.7l-2.8,2.1V112.8z M49.2,119.7
		c-0.1,0.8-0.1,1.4-0.1,1.9c0,1,0,1.6,0.1,2c1-0.7,2.4-2.6,2.4-3.7c0-0.6-0.5-1.1-1.1-1.1C49.9,118.9,49.5,119.2,49.2,119.7z"/>
</g>
<rect x="72.2" y="128.2" width="10.5" height="0.8"/>
<rect x="72.2" y="123.2" width="10.5" height="0.8"/>
<rect x="74" y="124.4" width="0.5" height="19.7"/>
<g>
	<path d="M74,124.5c0-1.8,2.5-3.5,4.5-3.5c1.3,0,2.3,0.7,2.3,1.7c0,1.7-2.5,3.5-4.6,3.5C75,126.2,74,125.6,74,124.5z"/>
</g>
<rect x="90.6" y="128.2" width="10.5" height="0.8"/>
<rect x="92.4" y="126.9" width="0.5" height="17.7"/>
<g>
	<path d="M92.5,127c0-1.8,2.5-3.5,4.5-3.5c1.3,0,2.3,0.7,2.3,1.7c0,1.7-2.5,3.5-4.6,3.5C93.4,128.7,92.5,128.1,92.5,127z"/>
</g>
<rect x="108.9" y="128.2" width="10.5" height="0.8"/>
<rect x="110.7" y="126.9" width="0.5" height="16.4"/>
<g>
	<path d="M110.8,127c0-1.8,2.5-3.5,4.5-3.5c1.3,0,2.3,0.7,2.3,1.7c0,1.7-2.5,3.5-4.6,3.5C111.7,128.7,110.8,128.1,110.8,127z"/>
</g>
<g>
	<path d="M103.6,117.8h0.6l-0.1,6.2c0.4-0.7,1-1,1.8-1c1.2,0,2.2,0.8,2.2,1.9c0,0.8-0.5,1.8-1.7,2.7l-2.8,2.1V117.8z M104.2,124.7
		c-0.1,0.8-0.1,1.4-0.1,1.9c0,1,0,1.6,0.1,2c1-0.7,2.4-2.6,2.4-3.7c0-0.6-0.5-1.1-1.1-1.1C104.9,123.9,104.5,124.2,104.2,124.7z"/>
</g>
<rect x="127.2" y="128.2" width="10.5" height="0.8"/>
<rect x="129" y="129.4" width="0.5" height="15.5"/>
<g>
	<path d="M129.1,129.5c0-1.8,2.5-3.5,4.5-3.5c1.3,0,2.3,0.7,2.3,1.7c0,1.7-2.5,3.5-4.6,3.5C130,131.2,129.1,130.5,129.1,129.5z"/>
</g>
<rect x="145.5" y="128.2" width="10.5" height="0.8"/>
<rect x="147.3" y="129.4" width="0.5" height="17.2"/>
<g>
	<path d="M147.4,129.5c0-1.8,2.5-3.5,4.5-3.5c1.3,0,2.3,0.7,2.3,1.7c0,1.7-2.5,3.5-4.6,3.5C148.3,131.2,147.4,130.5,147.4,129.5z"/>
</g>
<g>
	<path d="M140.2,120.3h0.6l-0.1,6.2c0.4-0.7,1-1,1.8-1c1.2,0,2.2,0.8,2.2,1.9c0,0.8-0.5,1.8-1.7,2.7l-2.8,2.1V120.3z M140.8,127.2
		c-0.1,0.8-0.1,1.4-0.1,1.9c0,1,0,1.6,0.1,2c1-0.7,2.4-2.6,2.4-3.7c0-0.6-0.5-1.1-1.1-1.1C141.5,126.4,141.1,126.6,140.8,127.2z"/>
</g>
<rect x="165.6" y="131.9" width="0.5" height="16.4"/>
<g>
	<path d="M165.6,131.9c0-1.8,2.5-3.5,4.5-3.5c1.3,0,2.3,0.7,2.3,1.7c0,1.7-2.5,3.5-4.6,3.5C166.6,133.7,165.6,133,165.6,131.9z"/>
</g>
<rect x="183.9" y="131.9" width="0.5" height="21.4"/>
<g>
	<path d="M183.9,131.9c0-1.8,2.5-3.5,4.5-3.5c1.3,0,2.3,0.7,2.3,1.7c0,1.7-2.5,3.5-4.6,3.5C184.9,133.7,183.9,133,183.9,131.9z"/>
</g>
<g>
	<path d="M178,122.8h0.6l-0.1,6.2c0.4-0.7,1-1,1.8-1c1.2,0,2.2,0.8,2.2,1.9c0,0.8-0.5,1.8-1.7,2.7l-2.8,2.1V122.8z M178.6,129.7
		c-0.1,0.8-0.1,1.4-0.1,1.9c0,1,0,1.6,0.1,2c1-0.7,2.4-2.6,2.4-3.7c0-0.6-0.5-1.1-1.1-1.1C179.3,128.8,178.9,129.1,178.6,129.7z"/>
</g>
<rect x="202.3" y="134.3" width="0.5" height="18.9"/>
<g>
	<path d="M202.4,134.4c0-1.8,2.5-3.5,4.5-3.5c1.3,0,2.3,0.7,2.3,1.7c0,1.7-2.5,3.5-4.6,3.5C203.4,136.1,202.4,135.5,202.4,134.4z"/>
</g>
<rect x="220.6" y="136.8" width="0.5" height="16.4"/>
<g>
	<path d="M220.7,136.9c0-1.8,2.5-3.5,4.5-3.5c1.3,0,2.3,0.7,2.3,1.7c0,1.7-2.5,3.5-4.6,3.5C221.6,138.6,220.7,138,220.7,136.9z"/>
</g>
<rect x="238.9" y="136.8" width="0.5" height="16.4"/>
<g>
	<path d="M239,136.9c0-1.8,2.5-3.5,4.5-3.5c1.3,0,2.3,0.7,2.3,1.7c0,1.7-2.5,3.5-4.6,3.5C239.9,138.6,239,138,239,136.9z"/>
</g>
<g>
	<path d="M233.1,127.7h0.6l-0.1,6.2c0.4-0.7,1-1,1.8-1c1.2,0,2.2,0.8,2.2,1.9c0,0.8-0.5,1.8-1.7,2.7l-2.8,2.1V127.7z M233.7,134.6
		c-0.1,0.8-0.1,1.4-0.1,1.9c0,1,0,1.6,0.1,2c1-0.7,2.4-2.6,2.4-3.7c0-0.6-0.5-1.1-1.1-1.1C234.4,133.8,233.9,134.1,233.7,134.6z"/>
</g>
<rect x="269.4" y="139.3" width="0.5" height="20.2"/>
<g>
	<path d="M269.5,139.4c0-1.8,2.5-3.5,4.5-3.5c1.3,0,2.3,0.7,2.3,1.7c0,1.7-2.5,3.5-4.6,3.5C270.5,141.1,269.5,140.5,269.5,139.4z"/>
</g>
<g>
	<path d="M267.6,145.3v-4l-3,1.1v-10.7h0.5v4l3-1.1v10.7H267.6z M265,140.6l2.5-0.9v-3.3l-2.5,0.9V140.6z"/>
</g>
<rect x="287.7" y="139.3" width="0.5" height="20.9"/>
<g>
	<path d="M287.8,139.4c0-1.8,2.5-3.5,4.5-3.5c1.3,0,2.3,0.7,2.3,1.7c0,1.7-2.5,3.5-4.6,3.5C288.8,141.1,287.8,140.5,287.8,139.4z"/>
</g>
<g>
	<path d="M281.9,130.2h0.6l-0.1,6.2c0.4-0.7,1-1,1.8-1c1.2,0,2.2,0.8,2.2,1.9c0,0.8-0.5,1.8-1.7,2.7l-2.8,2.1V130.2z M282.5,137.1
		c-0.1,0.8-0.1,1.4-0.1,1.9c0,1,0,1.6,0.1,2c1-0.7,2.4-2.6,2.4-3.7c0-0.6-0.5-1.1-1.1-1.1C283.2,136.3,282.8,136.6,282.5,137.1z"/>
</g>
<rect x="306" y="141.8" width="0.5" height="19.2"/>
<g>
	<path d="M306.1,141.9c0-1.8,2.5-3.5,4.5-3.5c1.3,0,2.3,0.7,2.3,1.7c0,1.7-2.5,3.5-4.6,3.5C307.1,143.6,306.1,142.9,306.1,141.9z"/>
</g>
<rect x="324.3" y="144.3" width="0.5" height="17.7"/>
<g>
	<path d="M324.4,144.3c0-1.8,2.5-3.5,4.5-3.5c1.3,0,2.3,0.7,2.3,1.7c0,1.7-2.5,3.5-4.6,3.5C325.4,146.1,324.4,145.4,324.4,144.3z"/>
</g>
<g>
	<path d="M322.5,150.2v-4l-3,1.1v-10.7h0.5v4l3-1.1v10.7H322.5z M319.9,145.6l2.5-0.9v-3.3l-2.5,0.9V145.6z"/>
</g>
<rect x="349.3" y="125" width="0.5" height="17.7"/>
<g>
	<path d="M342.8,144.3c0-1.8,2.5-3.5,4.5-3.5c1.3,0,2.3,0.7,2.3,1.7c0,1.7-2.5,3.5-4.6,3.5C343.8,146.1,342.8,145.4,342.8,144.3z"/>
</g>
<g>
	<path d="M336.9,135.2h0.6l-0.1,6.2c0.4-0.7,1-1,1.8-1c1.2,0,2.2,0.8,2.2,1.9c0,0.8-0.5,1.8-1.7,2.7l-2.8,2.1V135.2z M337.5,142.1
		c-0.1,0.8-0.1,1.4-0.1,1.9c0,1,0,1.6,0.1,2c1-0.7,2.4-2.6,2.4-3.7c0-0.6-0.5-1.1-1.1-1.1C338.2,141.2,337.8,141.5,337.5,142.1z"/>
</g>
<rect x="367.6" y="125.8" width="0.5" height="19.4"/>
<g>
	<path d="M361.1,146.8c0-1.8,2.5-3.5,4.5-3.5c1.3,0,2.3,0.7,2.3,1.7c0,1.7-2.5,3.5-4.6,3.5C362.1,148.5,361.1,147.9,361.1,146.8z"/>
</g>
<g>
	<path d="M359.2,152.7v-4l-3,1.1v-10.7h0.5v4l3-1.1v10.7H359.2z M356.7,148.1l2.5-0.9v-3.3l-2.5,0.9V148.1z"/>
</g>
<rect x="385.8" y="126.6" width="0.5" height="18.6"/>
<g>
	<path d="M379.4,146.8c0-1.8,2.5-3.5,4.5-3.5c1.3,0,2.3,0.7,2.3,1.7c0,1.7-2.5,3.5-4.6,3.5C380.4,148.5,379.4,147.9,379.4,146.8z"/>
</g>
<g>
	<path d="M373.5,137.6h0.6l-0.1,6.2c0.4-0.7,1-1,1.8-1c1.2,0,2.2,0.8,2.2,1.9c0,0.8-0.5,1.8-1.7,2.7l-2.8,2.1V137.6z M374.1,144.6
		c-0.1,0.8-0.1,1.4-0.1,1.9c0,1,0,1.6,0.1,2c1-0.7,2.4-2.6,2.4-3.7c0-0.6-0.5-1.1-1.1-1.1C374.8,143.7,374.4,144,374.1,144.6z"/>
</g>
<rect x="404.1" y="127.5" width="0.5" height="20.2"/>
<g>
	<path d="M397.7,149.3c0-1.8,2.5-3.5,4.5-3.5c1.3,0,2.3,0.7,2.3,1.7c0,1.7-2.5,3.5-4.6,3.5C398.7,151,397.7,150.4,397.7,149.3z"/>
</g>
<g>
	<path d="M395.8,155.2v-4l-3,1.1v-10.7h0.5v4l3-1.1v10.7H395.8z M393.2,150.5l2.5-0.9v-3.3l-2.5,0.9V150.5z"/>
</g>
<rect x="422.4" y="133.4" width="0.5" height="14.3"/>
<g>
	<path d="M416,149.3c0-1.8,2.5-3.5,4.5-3.5c1.3,0,2.3,0.7,2.3,1.7c0,1.7-2.5,3.5-4.6,3.5C417,151,416,150.4,416,149.3z"/>
</g>
<g>
	<path d="M410.1,140.1h0.6l-0.1,6.2c0.4-0.7,1-1,1.8-1c1.2,0,2.2,0.8,2.2,1.9c0,0.8-0.5,1.8-1.7,2.7l-2.8,2.1V140.1z M410.7,147
		c-0.1,0.8-0.1,1.4-0.1,1.9c0,1,0,1.6,0.1,2c1-0.7,2.4-2.6,2.4-3.7c0-0.6-0.5-1.1-1.1-1.1C411.4,146.2,411,146.5,410.7,147z"/>
</g>
<rect x="440.7" y="133.6" width="0.5" height="16.6"/>
<g>
	<path d="M434.3,151.8c0-1.8,2.5-3.5,4.5-3.5c1.3,0,2.3,0.7,2.3,1.7c0,1.7-2.5,3.5-4.6,3.5C435.3,153.5,434.3,152.9,434.3,151.8z"/>
</g>
<rect x="459.2" y="133.7" width="0.5" height="18.9"/>
<g>
	<path d="M452.7,154.3c0-1.8,2.5-3.5,4.5-3.5c1.3,0,2.3,0.7,2.3,1.7c0,1.7-2.5,3.5-4.6,3.5C453.7,156,452.7,155.3,452.7,154.3z"/>
</g>
<g>
	<path d="M450.8,160.2v-4l-3,1.1v-10.7h0.5v4l3-1.1v10.7H450.8z M448.3,155.5l2.5-0.9v-3.3l-2.5,0.9V155.5z"/>
</g>
<rect x="477.5" y="134" width="0.5" height="18.6"/>
<g>
	<path d="M471,154.3c0-1.8,2.5-3.5,4.5-3.5c1.3,0,2.3,0.7,2.3,1.7c0,1.7-2.5,3.5-4.6,3.5C472,156,471,155.3,471,154.3z"/>
</g>
<g>
	<path d="M465.1,145.1h0.6l-0.1,6.2c0.4-0.7,1-1,1.8-1c1.2,0,2.2,0.8,2.2,1.9c0,0.8-0.5,1.8-1.7,2.7l-2.8,2.1V145.1z M465.7,152
		c-0.1,0.8-0.1,1.4-0.1,1.9c0,1,0,1.6,0.1,2c1-0.7,2.4-2.6,2.4-3.7c0-0.6-0.5-1.1-1.1-1.1C466.4,151.2,466,151.4,465.7,152z"/>
</g>
<rect x="495.9" y="138.5" width="0.5" height="16.6"/>
<g>
	<path d="M493.6,153.2c1.6,0,2.7,0.7,2.7,2c0,1.9-2.3,3.4-4.5,3.4c-1.3,0-2.4-0.7-2.4-1.8C489.3,155,491.6,153.2,493.6,153.2z
		 M489.8,157c0,0.6,0.4,0.9,1.1,0.9c1.4,0,4.9-2.1,4.9-3.3c0-0.6-0.4-0.9-1.1-0.9C493.4,153.8,489.8,155.8,489.8,157z"/>
</g>
<g>
	<path d="M487.4,162.6v-4l-3,1.1v-10.7h0.5v4l3-1.1v10.7H487.4z M484.9,158l2.5-0.9v-3.3l-2.5,0.9V158z"/>
</g>
<rect x="37.4" y="187.2" width="0.5" height="20.2"/>
<g>
	<path d="M37.4,187.3c0-1.8,2.5-3.5,4.5-3.5c1.3,0,2.3,0.7,2.3,1.7c0,1.7-2.5,3.5-4.6,3.5C38.4,189,37.4,188.4,37.4,187.3z"/>
</g>
<g>
	<path d="M35.5,193.2v-4l-3,1.1v-10.7H33v4l3-1.1v10.7H35.5z M33,188.5l2.5-0.9v-3.3l-2.5,0.9V188.5z"/>
</g>
<rect x="55.7" y="187.2" width="0.5" height="20.9"/>
<g>
	<path d="M55.7,187.3c0-1.8,2.5-3.5,4.5-3.5c1.3,0,2.3,0.7,2.3,1.7c0,1.7-2.5,3.5-4.6,3.5C56.7,189,55.7,188.4,55.7,187.3z"/>
</g>
<g>
	<path d="M49.8,178.1h0.6l-0.1,6.2c0.4-0.7,1-1,1.8-1c1.2,0,2.2,0.8,2.2,1.9c0,0.8-0.5,1.8-1.7,2.7l-2.8,2.1V178.1z M50.4,185
		c-0.1,0.8-0.1,1.4-0.1,1.9c0,1,0,1.6,0.1,2c1-0.7,2.4-2.6,2.4-3.7c0-0.6-0.5-1.1-1.1-1.1C51.1,184.2,50.7,184.5,50.4,185z"/>
</g>
<rect x="74" y="189.7" width="0.5" height="19.2"/>
<g>
	<path d="M74,189.7c0-1.8,2.5-3.5,4.5-3.5c1.3,0,2.3,0.7,2.3,1.7c0,1.7-2.5,3.5-4.6,3.5C75,191.5,74,190.8,74,189.7z"/>
</g>
<rect x="92.4" y="192.2" width="0.5" height="17.7"/>
<g>
	<path d="M92.5,192.2c0-1.8,2.5-3.5,4.5-3.5c1.3,0,2.3,0.7,2.3,1.7c0,1.7-2.5,3.5-4.6,3.5C93.4,194,92.5,193.3,92.5,192.2z"/>
</g>
<rect x="117.2" y="172.9" width="0.5" height="17.7"/>
<g>
	<path d="M110.8,192.2c0-1.8,2.5-3.5,4.5-3.5c1.3,0,2.3,0.7,2.3,1.7c0,1.7-2.5,3.5-4.6,3.5C111.7,194,110.8,193.3,110.8,192.2z"/>
</g>
<g>
	<path d="M104.9,183.1h0.6l-0.1,6.2c0.4-0.7,1-1,1.8-1c1.2,0,2.2,0.8,2.2,1.9c0,0.8-0.5,1.8-1.7,2.7l-2.8,2.1V183.1z M105.5,190
		c-0.1,0.8-0.1,1.4-0.1,1.9c0,1,0,1.6,0.1,2c1-0.7,2.4-2.6,2.4-3.7c0-0.6-0.5-1.1-1.1-1.1C106.2,189.1,105.8,189.4,105.5,190z"/>
</g>
<rect x="135.5" y="173.7" width="0.5" height="19.4"/>
<g>
	<path d="M129.1,194.7c0-1.8,2.5-3.5,4.5-3.5c1.3,0,2.3,0.7,2.3,1.7c0,1.7-2.5,3.5-4.6,3.5C130,196.4,129.1,195.8,129.1,194.7z"/>
</g>
<rect x="153.8" y="174.5" width="0.5" height="18.6"/>
<g>
	<path d="M147.4,194.7c0-1.8,2.5-3.5,4.5-3.5c1.3,0,2.3,0.7,2.3,1.7c0,1.7-2.5,3.5-4.6,3.5C148.3,196.4,147.4,195.8,147.4,194.7z"/>
</g>
<g>
	<path d="M141.5,185.5h0.6l-0.1,6.2c0.4-0.7,1-1,1.8-1c1.2,0,2.2,0.8,2.2,1.9c0,0.8-0.5,1.8-1.7,2.7l-2.8,2.1V185.5z M142,192.4
		c-0.1,0.8-0.1,1.4-0.1,1.9c0,1,0,1.6,0.1,2c1-0.7,2.4-2.6,2.4-3.7c0-0.6-0.5-1.1-1.1-1.1C142.8,191.6,142.3,191.9,142,192.4z"/>
</g>
<rect x="172.1" y="175.4" width="0.5" height="20.2"/>
<g>
	<path d="M165.6,197.2c0-1.8,2.5-3.5,4.5-3.5c1.3,0,2.3,0.7,2.3,1.7c0,1.7-2.5,3.5-4.6,3.5C166.6,198.9,165.6,198.3,165.6,197.2z"/>
</g>
<rect x="190.4" y="181.3" width="0.5" height="14.3"/>
<g>
	<path d="M183.9,197.2c0-1.8,2.5-3.5,4.5-3.5c1.3,0,2.3,0.7,2.3,1.7c0,1.7-2.5,3.5-4.6,3.5C184.9,198.9,183.9,198.3,183.9,197.2z"/>
</g>
<g>
	<path d="M178,188h0.6l-0.1,6.2c0.4-0.7,1-1,1.8-1c1.2,0,2.2,0.8,2.2,1.9c0,0.8-0.5,1.8-1.7,2.7L178,200V188z M178.6,194.9
		c-0.1,0.8-0.1,1.4-0.1,1.9c0,1,0,1.6,0.1,2c1-0.7,2.4-2.6,2.4-3.7c0-0.6-0.5-1.1-1.1-1.1C179.3,194.1,178.9,194.4,178.6,194.9z"/>
</g>
<rect x="208.8" y="181.5" width="0.5" height="16.6"/>
<g>
	<path d="M202.4,199.7c0-1.8,2.5-3.5,4.5-3.5c1.3,0,2.3,0.7,2.3,1.7c0,1.7-2.5,3.5-4.6,3.5C203.4,201.4,202.4,200.8,202.4,199.7z"/>
</g>
<rect x="227.1" y="181.6" width="0.5" height="18.9"/>
<g>
	<path d="M220.7,202.1c0-1.8,2.5-3.5,4.5-3.5c1.3,0,2.3,0.7,2.3,1.7c0,1.7-2.5,3.5-4.6,3.5C221.6,203.9,220.7,203.2,220.7,202.1z"/>
</g>
<rect x="245.4" y="181.9" width="0.5" height="18.6"/>
<g>
	<path d="M239,202.1c0-1.8,2.5-3.5,4.5-3.5c1.3,0,2.3,0.7,2.3,1.7c0,1.7-2.5,3.5-4.6,3.5C239.9,203.9,239,203.2,239,202.1z"/>
</g>
<g>
	<path d="M233.1,193h0.6l-0.1,6.2c0.4-0.7,1-1,1.8-1c1.2,0,2.2,0.8,2.2,1.9c0,0.8-0.5,1.8-1.7,2.7l-2.8,2.1V193z M233.7,199.9
		c-0.1,0.8-0.1,1.4-0.1,1.9c0,1,0,1.6,0.1,2c1-0.7,2.4-2.6,2.4-3.7c0-0.6-0.5-1.1-1.1-1.1C234.4,199.1,233.9,199.3,233.7,199.9z"/>
</g>
<rect x="267.6" y="176.1" width="10.5" height="0.8"/>
<rect x="269.4" y="174.8" width="0.5" height="16.4"/>
<g>
	<path d="M269.5,174.9c0-1.8,2.5-3.5,4.5-3.5c1.3,0,2.3,0.7,2.3,1.7c0,1.7-2.5,3.5-4.6,3.5C270.5,176.6,269.5,176,269.5,174.9z"/>
</g>
<g>
	<path d="M266.3,180.8v-4l-3,1.1v-10.7h0.5v4l3-1.1v10.7H266.3z M263.8,176.1l2.5-0.9v-3.3l-2.5,0.9V176.1z"/>
</g>
<rect x="285.9" y="176.1" width="10.5" height="0.8"/>
<rect x="287.7" y="174.8" width="0.5" height="18"/>
<g>
	<path d="M287.8,174.9c0-1.8,2.5-3.5,4.5-3.5c1.3,0,2.3,0.7,2.3,1.7c0,1.7-2.5,3.5-4.6,3.5C288.8,176.6,287.8,176,287.8,174.9z"/>
</g>
<g>
	<path d="M280.7,165.7h0.6l-0.1,6.2c0.4-0.7,1-1,1.8-1c1.2,0,2.2,0.8,2.2,1.9c0,0.8-0.5,1.8-1.7,2.7l-2.8,2.1V165.7z M281.2,172.6
		c-0.1,0.8-0.1,1.4-0.1,1.9c0,1,0,1.6,0.1,2c1-0.7,2.4-2.6,2.4-3.7c0-0.6-0.5-1.1-1.1-1.1C282,171.8,281.5,172.1,281.2,172.6z"/>
</g>
<rect x="304.2" y="176.1" width="10.5" height="0.8"/>
<rect x="306" y="177.3" width="0.5" height="17.2"/>
<g>
	<path d="M306.1,177.3c0-1.8,2.5-3.5,4.5-3.5c1.3,0,2.3,0.7,2.3,1.7c0,1.7-2.5,3.5-4.6,3.5C307.1,179.1,306.1,178.4,306.1,177.3z"/>
</g>
<rect x="324.3" y="179.8" width="0.5" height="16.4"/>
<g>
	<path d="M324.4,179.8c0-1.8,2.5-3.5,4.5-3.5c1.3,0,2.3,0.7,2.3,1.7c0,1.7-2.5,3.5-4.6,3.5C325.4,181.6,324.4,180.9,324.4,179.8z"/>
</g>
<g>
	<path d="M322.5,185.7v-4l-3,1.1v-10.7h0.5v4l3-1.1v10.7H322.5z M319.9,181.1l2.5-0.9v-3.3l-2.5,0.9V181.1z"/>
</g>
<rect x="342.7" y="179.8" width="0.5" height="16.4"/>
<g>
	<path d="M342.8,179.8c0-1.8,2.5-3.5,4.5-3.5c1.3,0,2.3,0.7,2.3,1.7c0,1.7-2.5,3.5-4.6,3.5C343.8,181.6,342.8,180.9,342.8,179.8z"/>
</g>
<g>
	<path d="M336.9,170.7h0.6l-0.1,6.2c0.4-0.7,1-1,1.8-1c1.2,0,2.2,0.8,2.2,1.9c0,0.8-0.5,1.8-1.7,2.7l-2.8,2.1V170.7z M337.5,177.6
		c-0.1,0.8-0.1,1.4-0.1,1.9c0,1,0,1.6,0.1,2c1-0.7,2.4-2.6,2.4-3.7c0-0.6-0.5-1.1-1.1-1.1C338.2,176.7,337.8,177,337.5,177.6z"/>
</g>
<rect x="361" y="182.2" width="0.5" height="15.5"/>
<g>
	<path d="M361.1,182.3c0-1.8,2.5-3.5,4.5-3.5c1.3,0,2.3,0.7,2.3,1.7c0,1.7-2.5,3.5-4.6,3.5C362.1,184,361.1,183.4,361.1,182.3z"/>
</g>
<g>
	<path d="M359.2,188.2v-4l-3,1.1v-10.7h0.5v4l3-1.1v10.7H359.2z M356.7,183.6l2.5-0.9v-3.3l-2.5,0.9V183.6z"/>
</g>
<rect x="379.3" y="182.2" width="0.5" height="17.2"/>
<g>
	<path d="M379.4,182.3c0-1.8,2.5-3.5,4.5-3.5c1.3,0,2.3,0.7,2.3,1.7c0,1.7-2.5,3.5-4.6,3.5C380.4,184,379.4,183.4,379.4,182.3z"/>
</g>
<g>
	<path d="M373.5,173.1h0.6l-0.1,6.2c0.4-0.7,1-1,1.8-1c1.2,0,2.2,0.8,2.2,1.9c0,0.8-0.5,1.8-1.7,2.7l-2.8,2.1V173.1z M374.1,180
		c-0.1,0.8-0.1,1.4-0.1,1.9c0,1,0,1.6,0.1,2c1-0.7,2.4-2.6,2.4-3.7c0-0.6-0.5-1.1-1.1-1.1C374.8,179.2,374.4,179.5,374.1,180z"/>
</g>
<rect x="397.6" y="184.7" width="0.5" height="16.4"/>
<g>
	<path d="M397.7,184.8c0-1.8,2.5-3.5,4.5-3.5c1.3,0,2.3,0.7,2.3,1.7c0,1.7-2.5,3.5-4.6,3.5C398.7,186.5,397.7,185.9,397.7,184.8z"/>
</g>
<g>
	<path d="M395.8,190.7v-4l-3,1.1v-10.7h0.5v4l3-1.1v10.7H395.8z M393.2,186l2.5-0.9v-3.3l-2.5,0.9V186z"/>
</g>
<rect x="415.9" y="184.7" width="0.5" height="21.4"/>
<g>
	<path d="M416,184.8c0-1.8,2.5-3.5,4.5-3.5c1.3,0,2.3,0.7,2.3,1.7c0,1.7-2.5,3.5-4.6,3.5C417,186.5,416,185.9,416,184.8z"/>
</g>
<g>
	<path d="M410.1,175.6h0.6l-0.1,6.2c0.4-0.7,1-1,1.8-1c1.2,0,2.2,0.8,2.2,1.9c0,0.8-0.5,1.8-1.7,2.7l-2.8,2.1V175.6z M410.7,182.5
		c-0.1,0.8-0.1,1.4-0.1,1.9c0,1,0,1.6,0.1,2c1-0.7,2.4-2.6,2.4-3.7c0-0.6-0.5-1.1-1.1-1.1C411.4,181.7,411,182,410.7,182.5z"/>
</g>
<rect x="434.2" y="187.2" width="0.5" height="18.9"/>
<g>
	<path d="M434.3,187.3c0-1.8,2.5-3.5,4.5-3.5c1.3,0,2.3,0.7,2.3,1.7c0,1.7-2.5,3.5-4.6,3.5C435.3,189,434.3,188.4,434.3,187.3z"/>
</g>
<rect x="452.7" y="189.7" width="0.5" height="16.4"/>
<g>
	<path d="M452.7,189.7c0-1.8,2.5-3.5,4.5-3.5c1.3,0,2.3,0.7,2.3,1.7c0,1.7-2.5,3.5-4.6,3.5C453.7,191.5,452.7,190.8,452.7,189.7z"/>
</g>
<g>
	<path d="M450.8,195.7v-4l-3,1.1v-10.7h0.5v4l3-1.1v10.7H450.8z M448.3,191l2.5-0.9v-3.3l-2.5,0.9V191z"/>
</g>
<rect x="470.9" y="189.7" width="0.5" height="16.4"/>
<g>
	<path d="M471,189.7c0-1.8,2.5-3.5,4.5-3.5c1.3,0,2.3,0.7,2.3,1.7c0,1.7-2.5,3.5-4.6,3.5C472,191.5,471,190.8,471,189.7z"/>
</g>
<g>
	<path d="M465.1,180.6h0.6l-0.1,6.2c0.4-0.7,1-1,1.8-1c1.2,0,2.2,0.8,2.2,1.9c0,0.8-0.5,1.8-1.7,2.7l-2.8,2.1V180.6z M465.7,187.5
		c-0.1,0.8-0.1,1.4-0.1,1.9c0,1,0,1.6,0.1,2c1-0.7,2.4-2.6,2.4-3.7c0-0.6-0.5-1.1-1.1-1.1C466.4,186.7,466,186.9,465.7,187.5z"/>
</g>
<rect x="489.2" y="192.2" width="0.5" height="16.6"/>
<g>
	<path d="M493.6,188.7c1.6,0,2.7,0.7,2.7,2c0,1.9-2.3,3.4-4.5,3.4c-1.3,0-2.4-0.7-2.4-1.8C489.3,190.5,491.6,188.7,493.6,188.7z
		 M489.8,192.5c0,0.6,0.4,0.9,1.1,0.9c1.4,0,4.9-2.1,4.9-3.3c0-0.6-0.4-0.9-1.1-0.9C493.4,189.3,489.8,191.3,489.8,192.5z"/>
</g>
<g>
	<path d="M487.4,198.1v-4l-3,1.1v-10.7h0.5v4l3-1.1v10.7H487.4z M484.9,193.5l2.5-0.9v-3.3l-2.5,0.9V193.5z"/>
</g>
</svg>
