<?xml version="1.0" encoding="utf-8"?>

<!--
	ScaleBook
	Copyright (c) Leland Jansen 2015. All rights reserved.
-->

<!DOCTYPE svg PUBLIC "-//W3C//DTD SVG 1.1//EN" "http://www.w3.org/Graphics/SVG/1.1/DTD/svg11.dtd">
<svg version="1.1" id="Layer_1" xmlns="http://www.w3.org/2000/svg" xmlns:xlink="http://www.w3.org/1999/xlink" x="0px" y="0px"
	 viewBox="0 0 553 205.8" enable-background="new 0 0 553 205.8" xml:space="preserve">
<rect x="8.4" y="16.7" width="0.8" height="67"/>
<g>
	<path d="M7.4,17.4c-1.9,1.1-3.6,5.8-3.6,9.4c0,2.3,1.4,9.9,1.4,12.3c0,5-1.5,8.6-4.6,11.1c3,2.4,4.6,6.1,4.6,11.1
		c0,2.3-1.4,9.9-1.4,12.3c0,3.8,1.7,8.4,3.6,9.5v0.7c-3.5-2.3-5.8-8.2-5.8-13.1c0-2.1,1.7-9.4,1.7-11.5c0-3.8-1-6.6-2.9-8.2
		C0.1,50.6,0,50.4,0,50.2c0-0.2,0.1-0.4,0.5-0.7c1.9-1.7,2.9-4.2,2.9-7.6c0-2.1-1.7-10-1.7-12.2c0-5.2,2.1-10.4,5.8-13.1V17.4z"/>
</g>
<rect x="8.4" y="129.6" width="0.8" height="67"/>
<g>
	<path d="M7.4,130.3c-1.9,1.1-3.6,5.8-3.6,9.4c0,2.3,1.4,9.9,1.4,12.3c0,5-1.5,8.6-4.6,11.1c3,2.4,4.6,6.1,4.6,11.1
		c0,2.3-1.4,9.9-1.4,12.3c0,3.8,1.7,8.4,3.6,9.5v0.7c-3.5-2.3-5.8-8.2-5.8-13.1c0-2.1,1.7-9.4,1.7-11.5c0-3.8-1-6.6-2.9-8.2
		c-0.3-0.3-0.5-0.5-0.5-0.7c0-0.2,0.1-0.4,0.5-0.7c1.9-1.7,2.9-4.2,2.9-7.6c0-2.1-1.7-10-1.7-12.2c0-5.2,2.1-10.4,5.8-13.1V130.3z"
		/>
</g>
<rect x="552.2" y="16.7" width="0.8" height="67"/>
<rect x="547.8" y="129.6" width="0.8" height="67"/>
<rect x="550.4" y="129.6" width="2.5" height="67"/>
<rect x="8.5" y="36.4" width="544.4" height="0.5"/>
<rect x="8.5" y="31.4" width="544.4" height="0.5"/>
<rect x="8.5" y="26.4" width="544.4" height="0.5"/>
<rect x="8.5" y="21.5" width="544.4" height="0.5"/>
<rect x="8.5" y="16.5" width="544.4" height="0.5"/>
<g>
	<path d="M20.3,36.4c-4.2,0-8.1-3.1-8.1-6.9c0-3.2,2.3-6.7,6.8-10.5c-0.3-1.2-0.4-2.4-0.4-3.6c0-3.5,1.2-6.8,3.2-8.5
		c1.8,2.5,2.7,4.9,2.7,7.1c0,2.9-1.3,5.6-4.3,8.1l0.9,4.2c0.5,0,0.8-0.1,0.8-0.1c2.6,0,4.8,2,4.8,4.7c0,1.9-1.4,3.7-3.6,4.8
		c0-0.1,0.9,3.8,0.9,4.3c0,2.5-2.3,4.2-4.9,4.2c-2,0-3.6-1.3-3.6-3.4c0-1.4,1-2.6,2.4-2.6c1.3,0,2.3,1.3,2.3,2.5
		c0,1.4-1.2,2.3-2.7,2.5c0.6,0.3,1.2,0.5,1.9,0.5c2.1,0,4.1-1.6,4.1-3.6c0-0.2,0-0.4-0.1-0.6L22.6,36C21.9,36.3,21.2,36.4,20.3,36.4
		z M18.1,31.2c0,1,0.5,1.9,1.6,2.5c-1.8-0.3-3-1.4-3-3.1c0-2,1.7-3.7,3.8-4.1l-0.8-4C16,25.3,14,28,14,30.7c0,2.9,2.8,5.3,6,5.3
		c0.9,0,1.7-0.2,2.4-0.5L21,28.6C19.4,28.8,18.1,29.8,18.1,31.2z M22.1,9.9c-1.6,0-2.9,3.7-2.9,7c0,0.7,0,1.3,0.2,1.9
		c2.7-2.4,4-4.5,4-6.5c0-0.9-0.3-1.7-1-2.4C22.4,9.9,22.3,9.9,22.1,9.9z M24.9,31.7c0-1.6-1.2-3.3-2.9-3.3c-0.1,0-0.2,0-0.5,0
		l1.4,6.6C24.2,34.2,24.9,33.1,24.9,31.7z"/>
</g>
<polygon fill-rule="evenodd" clip-rule="evenodd" points="43.6,27.9 106.9,22.9 106.9,20.5 43.6,25.4 "/>
<polygon fill-rule="evenodd" clip-rule="evenodd" points="43.6,24.2 106.9,19.2 106.9,16.7 43.6,21.7 "/>
<polygon fill-rule="evenodd" clip-rule="evenodd" points="128,22.9 191.2,18 191.2,15.5 128,20.5 "/>
<polygon fill-rule="evenodd" clip-rule="evenodd" points="128,19.2 191.2,14.3 191.2,11.8 128,16.7 "/>
<polygon fill-rule="evenodd" clip-rule="evenodd" points="205.8,41.5 269,39.1 269,36.6 205.8,39.1 "/>
<polygon fill-rule="evenodd" clip-rule="evenodd" points="205.8,45.3 269,42.8 269,40.3 205.8,42.8 "/>
<rect x="300.2" y="31.6" fill-rule="evenodd" clip-rule="evenodd" width="63.1" height="2.5"/>
<rect x="300.2" y="35.3" fill-rule="evenodd" clip-rule="evenodd" width="63.1" height="2.5"/>
<polygon fill-rule="evenodd" clip-rule="evenodd" points="384.4,28.2 447.6,27.6 447.6,25.1 384.4,25.7 "/>
<polygon fill-rule="evenodd" clip-rule="evenodd" points="384.4,31.9 447.6,31.3 447.6,28.8 384.4,29.5 "/>
<polygon fill-rule="evenodd" clip-rule="evenodd" points="468.7,24.2 531.9,22.9 531.9,20.5 468.7,21.7 "/>
<polygon fill-rule="evenodd" clip-rule="evenodd" points="468.7,27.9 531.9,26.7 531.9,24.2 468.7,25.4 "/>
<rect x="8.5" y="83.5" width="544.4" height="0.5"/>
<rect x="8.5" y="78.5" width="544.4" height="0.5"/>
<rect x="8.5" y="73.6" width="544.4" height="0.5"/>
<rect x="8.5" y="68.6" width="544.4" height="0.5"/>
<rect x="8.5" y="63.6" width="544.4" height="0.5"/>
<g>
	<path d="M15.7,78.1c2.9-2.6,4.7-6.1,4.7-9.2c0-2.5-1.4-4.4-3.7-4.4c-1.6,0-3.4,1.3-3.4,2.7c0,0.2,0,0.3,0.1,0.3
		c-0.1,0,0.6-0.6,1.4-0.6c0.9,0,1.5,0.8,1.5,1.7c0,1.2-0.9,2.2-2.1,2.2c-1.2,0-2.1-1.3-2.1-2.8c0-2.3,2.3-4.1,4.8-4.1
		c4.7,0,5.9,3.2,5.9,5.8c0,1.6-0.4,2.9-2,5.3c-1.9,3.1-6.4,5.3-8.1,5.3c-0.4,0-0.6-0.2-0.6-0.5C13.8,79.3,14.9,78.7,15.7,78.1z
		 M25.7,65.4c0.6,0,1,0.4,1,1c0,0.6-0.4,1-1,1s-1-0.4-1-1C24.7,65.8,25.1,65.4,25.7,65.4z M25.7,70.3c0.6,0,1,0.4,1,1
		c0,0.6-0.4,1-1,1s-1-0.4-1-1C24.7,70.7,25.1,70.3,25.7,70.3z"/>
</g>
<rect x="37.1" y="83.7" fill-rule="evenodd" clip-rule="evenodd" width="63.2" height="2.5"/>
<rect x="37.1" y="87.4" fill-rule="evenodd" clip-rule="evenodd" width="63.2" height="2.5"/>
<polygon fill-rule="evenodd" clip-rule="evenodd" points="121.5,80.3 184.7,79.7 184.7,77.2 121.5,77.8 "/>
<polygon fill-rule="evenodd" clip-rule="evenodd" points="121.5,84 184.7,83.4 184.7,80.9 121.5,81.5 "/>
<g>
	<path d="M289.2,82.3c-3.2,0-6.1-2.3-6.1-5.1c0-2.4,1.7-5,5.1-7.9c-0.2-0.9-0.3-1.8-0.3-2.7c0-2.6,0.9-5.1,2.4-6.3
		c1.4,1.9,2,3.7,2,5.3c0,2.2-1,4.2-3.2,6.1l0.7,3.1c0.4,0,0.6,0,0.6,0c2,0,3.6,1.5,3.6,3.5c0,1.4-1.1,2.8-2.7,3.6
		c0-0.1,0.6,2.8,0.6,3.3c0,1.9-1.7,3.2-3.7,3.2c-1.5,0-2.7-1-2.7-2.5c0-1.1,0.7-1.9,1.8-1.9c1,0,1.7,1,1.7,1.9c0,1-0.9,1.7-2,1.8
		c0.4,0.2,0.9,0.3,1.4,0.3c1.6,0,3.1-1.2,3.1-2.7c0-0.1,0-0.3,0-0.5l-0.6-2.8C290.5,82.2,289.9,82.3,289.2,82.3z M287.6,78.4
		c0,0.8,0.4,1.4,1.2,1.9c-1.3-0.2-2.2-1.1-2.2-2.3c0-1.5,1.3-2.8,2.9-3.1l-0.6-3c-2.8,2.1-4.3,4.1-4.3,6.1c0,2.2,2.1,4,4.5,4
		c0.7,0,1.3-0.1,1.8-0.4l-1.1-5.1C288.5,76.7,287.6,77.4,287.6,78.4z M290.6,62.4c-1.2,0-2.2,2.8-2.2,5.3c0,0.5,0,1,0.1,1.4
		c2-1.8,3-3.4,3-4.9c0-0.7-0.3-1.3-0.7-1.8C290.8,62.4,290.7,62.4,290.6,62.4z M292.7,78.8c0-1.2-0.9-2.4-2.2-2.4c0,0-0.2,0-0.4,0
		l1.1,5C292.2,80.7,292.7,79.8,292.7,78.8z"/>
</g>
<polygon fill-rule="evenodd" clip-rule="evenodd" points="205.8,75.3 269,74.7 269,72.2 205.8,72.9 "/>
<polygon fill-rule="evenodd" clip-rule="evenodd" points="205.8,79.1 269,78.4 269,76 205.8,76.6 "/>
<polygon fill-rule="evenodd" clip-rule="evenodd" points="306.7,75 369.8,70.1 369.8,67.6 306.7,72.5 "/>
<polygon fill-rule="evenodd" clip-rule="evenodd" points="306.7,71.3 369.8,66.3 369.8,63.9 306.7,68.8 "/>
<polygon fill-rule="evenodd" clip-rule="evenodd" points="390.9,70.1 454.1,65.1 454.1,62.6 390.9,67.6 "/>
<polygon fill-rule="evenodd" clip-rule="evenodd" points="390.9,66.3 454.1,61.4 454.1,58.9 390.9,63.9 "/>
<polygon fill-rule="evenodd" clip-rule="evenodd" points="468.7,88.7 531.9,86.2 531.9,83.7 468.7,86.2 "/>
<polygon fill-rule="evenodd" clip-rule="evenodd" points="468.7,92.4 531.9,89.9 531.9,87.4 468.7,89.9 "/>
<rect x="8.5" y="149.2" width="544.4" height="0.5"/>
<rect x="8.5" y="144.2" width="544.4" height="0.5"/>
<rect x="8.5" y="139.3" width="544.4" height="0.5"/>
<rect x="8.5" y="134.3" width="544.4" height="0.5"/>
<rect x="8.5" y="129.4" width="544.4" height="0.5"/>
<g>
	<path d="M20.3,149.3c-4.2,0-8.1-3.1-8.1-6.9c0-3.2,2.3-6.7,6.8-10.5c-0.3-1.2-0.4-2.4-0.4-3.6c0-3.5,1.2-6.8,3.2-8.5
		c1.8,2.5,2.7,4.9,2.7,7.1c0,2.9-1.3,5.6-4.3,8.1l0.9,4.2c0.5,0,0.8-0.1,0.8-0.1c2.6,0,4.8,2,4.8,4.7c0,1.9-1.4,3.7-3.6,4.8
		c0-0.1,0.9,3.8,0.9,4.3c0,2.5-2.3,4.2-4.9,4.2c-2,0-3.6-1.3-3.6-3.4c0-1.4,1-2.6,2.4-2.6c1.3,0,2.3,1.3,2.3,2.5
		c0,1.4-1.2,2.3-2.7,2.5c0.6,0.3,1.2,0.5,1.9,0.5c2.1,0,4.1-1.6,4.1-3.6c0-0.2,0-0.4-0.1-0.6l-0.8-3.7
		C21.9,149.1,21.2,149.3,20.3,149.3z M18.1,144.1c0,1,0.5,1.9,1.6,2.5c-1.8-0.3-3-1.4-3-3.1c0-2,1.7-3.7,3.8-4.1l-0.8-4
		c-3.7,2.8-5.7,5.5-5.7,8.1c0,2.9,2.8,5.3,6,5.3c0.9,0,1.7-0.2,2.4-0.5l-1.4-6.8C19.4,141.7,18.1,142.7,18.1,144.1z M22.1,122.7
		c-1.6,0-2.9,3.7-2.9,7c0,0.7,0,1.3,0.2,1.9c2.7-2.4,4-4.5,4-6.5c0-0.9-0.3-1.7-1-2.4C22.4,122.7,22.3,122.7,22.1,122.7z
		 M24.9,144.6c0-1.6-1.2-3.3-2.9-3.3c-0.1,0-0.2,0-0.5,0l1.4,6.6C24.2,147.1,24.9,145.9,24.9,144.6z"/>
</g>
<polygon fill-rule="evenodd" clip-rule="evenodd" points="37.4,135.8 92.5,137 92.5,134.6 37.4,133.3 "/>
<polygon fill-rule="evenodd" clip-rule="evenodd" points="37.4,139.5 92.5,140.8 92.5,138.3 37.4,137 "/>
<polygon fill-rule="evenodd" clip-rule="evenodd" points="110.8,140.8 165.6,142 165.6,139.5 110.8,138.3 "/>
<polygon fill-rule="evenodd" clip-rule="evenodd" points="110.8,144.5 165.6,145.7 165.6,143.2 110.8,142 "/>
<polygon fill-rule="evenodd" clip-rule="evenodd" points="183.9,145.4 239,146 239,143.5 183.9,142.9 "/>
<polygon fill-rule="evenodd" clip-rule="evenodd" points="183.9,149.1 239,149.7 239,147.3 183.9,146.6 "/>
<polygon fill-rule="evenodd" clip-rule="evenodd" points="269.5,151.9 324.4,154.4 324.4,151.9 269.5,149.4 "/>
<polygon fill-rule="evenodd" clip-rule="evenodd" points="269.5,155.6 324.4,158.1 324.4,155.6 269.5,153.2 "/>
<polygon fill-rule="evenodd" clip-rule="evenodd" points="349.3,129.6 404.2,130.8 404.2,128.4 349.3,127.1 "/>
<polygon fill-rule="evenodd" clip-rule="evenodd" points="349.3,125.9 404.2,127.1 404.2,124.6 349.3,123.4 "/>
<rect x="422.5" y="133.3" fill-rule="evenodd" clip-rule="evenodd" width="55" height="2.5"/>
<rect x="422.5" y="129.6" fill-rule="evenodd" clip-rule="evenodd" width="55" height="2.5"/>
<rect x="8.5" y="196.3" width="544.4" height="0.5"/>
<rect x="8.5" y="191.4" width="544.4" height="0.5"/>
<rect x="8.5" y="186.4" width="544.4" height="0.5"/>
<rect x="8.5" y="181.4" width="544.4" height="0.5"/>
<rect x="8.5" y="176.5" width="544.4" height="0.5"/>
<g>
	<path d="M20.3,196.4c-4.2,0-8.1-3.1-8.1-6.9c0-3.2,2.3-6.7,6.8-10.5c-0.3-1.2-0.4-2.4-0.4-3.6c0-3.5,1.2-6.8,3.2-8.5
		c1.8,2.5,2.7,4.9,2.7,7.1c0,2.9-1.3,5.6-4.3,8.1l0.9,4.2c0.5,0,0.8-0.1,0.8-0.1c2.6,0,4.8,2,4.8,4.7c0,1.9-1.4,3.7-3.6,4.8
		c0-0.1,0.9,3.8,0.9,4.3c0,2.5-2.3,4.2-4.9,4.2c-2,0-3.6-1.3-3.6-3.4c0-1.4,1-2.6,2.4-2.6c1.3,0,2.3,1.3,2.3,2.5
		c0,1.4-1.2,2.3-2.7,2.5c0.6,0.3,1.2,0.5,1.9,0.5c2.1,0,4.1-1.6,4.1-3.6c0-0.2,0-0.4-0.1-0.6l-0.8-3.7
		C21.9,196.3,21.2,196.4,20.3,196.4z M18.1,191.2c0,1,0.5,1.9,1.6,2.5c-1.8-0.3-3-1.4-3-3.1c0-2,1.7-3.7,3.8-4.1l-0.8-4
		c-3.7,2.8-5.7,5.5-5.7,8.1c0,2.9,2.8,5.3,6,5.3c0.9,0,1.7-0.2,2.4-0.5l-1.4-6.8C19.4,188.8,18.1,189.8,18.1,191.2z M22.1,169.8
		c-1.6,0-2.9,3.7-2.9,7c0,0.7,0,1.3,0.2,1.9c2.7-2.4,4-4.5,4-6.5c0-0.9-0.3-1.7-1-2.4C22.4,169.9,22.3,169.8,22.1,169.8z
		 M24.9,191.7c0-1.6-1.2-3.3-2.9-3.3c-0.1,0-0.2,0-0.5,0l1.4,6.6C24.2,194.2,24.9,193,24.9,191.7z"/>
</g>
<polygon fill-rule="evenodd" clip-rule="evenodd" points="37.4,199 92.5,201.5 92.5,199 37.4,196.6 "/>
<polygon fill-rule="evenodd" clip-rule="evenodd" points="37.4,202.8 92.5,205.2 92.5,202.8 37.4,200.3 "/>
<polygon fill-rule="evenodd" clip-rule="evenodd" points="117.3,176.7 172.2,178 172.2,175.5 117.3,174.2 "/>
<polygon fill-rule="evenodd" clip-rule="evenodd" points="117.3,173 172.2,174.2 172.2,171.8 117.3,170.5 "/>
<g>
	<path d="M253.9,188.6c2.2-2,3.6-4.6,3.6-6.9c0-1.9-1.1-3.3-2.8-3.3c-1.2,0-2.5,1-2.5,2.1c0,0.2,0,0.2,0.1,0.2c0,0,0.4-0.5,1-0.5
		c0.7,0,1.2,0.6,1.2,1.3c0,0.9-0.6,1.7-1.6,1.7c-0.9,0-1.5-1-1.5-2.1c0-1.8,1.7-3.1,3.6-3.1c3.5,0,4.4,2.4,4.4,4.4
		c0,1.2-0.3,2.2-1.5,4c-1.4,2.3-4.8,4-6,4c-0.3,0-0.5-0.1-0.5-0.3C252.4,189.5,253.3,189.1,253.9,188.6z M261.3,179.1
		c0.4,0,0.7,0.3,0.7,0.7c0,0.4-0.3,0.7-0.7,0.7s-0.7-0.3-0.7-0.7C260.6,179.4,260.9,179.1,261.3,179.1z M261.3,182.8
		c0.4,0,0.7,0.3,0.7,0.7s-0.3,0.7-0.7,0.7s-0.7-0.3-0.7-0.7S260.9,182.8,261.3,182.8z"/>
</g>
<rect x="190.4" y="180.4" fill-rule="evenodd" clip-rule="evenodd" width="55" height="2.5"/>
<rect x="190.4" y="176.7" fill-rule="evenodd" clip-rule="evenodd" width="55" height="2.5"/>
<polygon fill-rule="evenodd" clip-rule="evenodd" points="269.5,182.9 324.4,187.9 324.4,185.4 269.5,180.4 "/>
<polygon fill-rule="evenodd" clip-rule="evenodd" points="269.5,186.6 324.4,191.6 324.4,189.1 269.5,184.2 "/>
<polygon fill-rule="evenodd" clip-rule="evenodd" points="342.8,192.8 397.7,194.1 397.7,191.6 342.8,190.4 "/>
<polygon fill-rule="evenodd" clip-rule="evenodd" points="342.8,196.6 397.7,197.8 397.7,195.3 342.8,194.1 "/>
<polygon fill-rule="evenodd" clip-rule="evenodd" points="416,199 471,201.5 471,199 416,196.6 "/>
<polygon fill-rule="evenodd" clip-rule="evenodd" points="416,202.8 471,205.2 471,202.8 416,200.3 "/>
<rect x="43.4" y="21.9" width="0.5" height="16.4"/>
<g>
	<path d="M37,39.9c0-1.8,2.5-3.5,4.5-3.5c1.3,0,2.3,0.7,2.3,1.7c0,1.7-2.5,3.5-4.6,3.5C38,41.6,37,41,37,39.9z"/>
</g>
<rect x="64.5" y="20.3" width="0.5" height="18"/>
<g>
	<path d="M58.1,39.9c0-1.8,2.5-3.5,4.5-3.5c1.3,0,2.3,0.7,2.3,1.7c0,1.7-2.5,3.5-4.6,3.5C59,41.6,58.1,41,58.1,39.9z"/>
</g>
<g>
	<path d="M55.6,32.2v2.8l1-0.3v1.8l-1,0.3v3.4l1-0.3v1.8l-1,0.3v3.1h-0.5v-3l-1.9,0.6v3h-0.5V43l-1,0.3v-1.8l1-0.3v-3.4l-1,0.3v-1.8
		l1-0.3v-3.1h0.5v3l1.9-0.6v-3H55.6z M55.1,37l-1.9,0.6v3.4l1.9-0.6V37z"/>
</g>
<rect x="85.6" y="18.6" width="0.5" height="17.2"/>
<g>
	<path d="M79.1,37.4c0-1.8,2.5-3.5,4.5-3.5c1.3,0,2.3,0.7,2.3,1.7c0,1.7-2.5,3.5-4.6,3.5C80.1,39.2,79.1,38.5,79.1,37.4z"/>
</g>
<rect x="106.7" y="16.9" width="0.5" height="16.4"/>
<g>
	<path d="M100.2,35c0-1.8,2.5-3.5,4.5-3.5c1.3,0,2.3,0.7,2.3,1.7c0,1.7-2.5,3.5-4.6,3.5C101.2,36.7,100.2,36,100.2,35z"/>
</g>
<rect x="127.7" y="16.9" width="0.5" height="16.4"/>
<g>
	<path d="M121.3,35c0-1.8,2.5-3.5,4.5-3.5c1.3,0,2.3,0.7,2.3,1.7c0,1.7-2.5,3.5-4.6,3.5C122.3,36.7,121.3,36,121.3,35z"/>
</g>
<g>
	<path d="M118.9,27.3v2.8l1-0.3v1.8l-1,0.3v3.4l1-0.3v1.8l-1,0.3v3.1h-0.5v-3l-1.9,0.6v3H116v-2.8l-1,0.3v-1.8l1-0.3v-3.4l-1,0.3
		v-1.8l1-0.3v-3.1h0.5v3l1.9-0.6v-3H118.9z M118.4,32.1l-1.9,0.6v3.4l1.9-0.6V32.1z"/>
</g>
<rect x="148.8" y="15.3" width="0.5" height="15.5"/>
<g>
	<path d="M142.4,32.5c0-1.8,2.5-3.5,4.5-3.5c1.3,0,2.3,0.7,2.3,1.7c0,1.7-2.5,3.5-4.6,3.5C143.4,34.2,142.4,33.6,142.4,32.5z"/>
</g>
<rect x="169.9" y="13.6" width="0.5" height="17.2"/>
<g>
	<path d="M163.5,32.5c0-1.8,2.5-3.5,4.5-3.5c1.3,0,2.3,0.7,2.3,1.7c0,1.7-2.5,3.5-4.6,3.5C164.4,34.2,163.5,33.6,163.5,32.5z"/>
</g>
<g>
	<path d="M161,24.8v2.8l1-0.3v1.8l-1,0.3v3.4l1-0.3v1.8l-1,0.3v3.1h-0.5v-3l-1.9,0.6v3h-0.5v-2.8l-1,0.3v-1.8l1-0.3v-3.4l-1,0.3
		v-1.8l1-0.3v-3.1h0.5v3l1.9-0.6v-3H161z M160.6,29.6l-1.9,0.6v3.4l1.9-0.6V29.6z"/>
</g>
<rect x="191" y="11.9" width="0.5" height="16.4"/>
<g>
	<path d="M184.6,30c0-1.8,2.5-3.5,4.5-3.5c1.3,0,2.3,0.7,2.3,1.7c0,1.7-2.5,3.5-4.6,3.5C185.5,31.7,184.6,31.1,184.6,30z"/>
</g>
<rect x="205.6" y="29.9" width="0.5" height="15.2"/>
<g>
	<path d="M205.6,30c0-1.8,2.5-3.5,4.5-3.5c1.3,0,2.3,0.7,2.3,1.7c0,1.7-2.5,3.5-4.6,3.5C206.6,31.7,205.6,31.1,205.6,30z"/>
</g>
<g>
	<path d="M203.2,22.3v2.8l1-0.3v1.8l-1,0.3v3.4l1-0.3v1.8l-1,0.3v3.1h-0.5v-3l-1.9,0.6v3h-0.5v-2.8l-1,0.3v-1.8l1-0.3v-3.4l-1,0.3
		v-1.8l1-0.3V23h0.5v3l1.9-0.6v-3H203.2z M202.7,27.1l-1.9,0.6v3.4l1.9-0.6V27.1z"/>
</g>
<rect x="226.6" y="27.4" width="0.5" height="16.9"/>
<g>
	<path d="M226.7,27.5c0-1.8,2.5-3.5,4.5-3.5c1.3,0,2.3,0.7,2.3,1.7c0,1.7-2.5,3.5-4.6,3.5C227.7,29.2,226.7,28.6,226.7,27.5z"/>
</g>
<rect x="247.7" y="25" width="0.5" height="18.6"/>
<g>
	<path d="M247.8,25c0-1.8,2.5-3.5,4.5-3.5c1.3,0,2.3,0.7,2.3,1.7c0,1.7-2.5,3.5-4.6,3.5C248.8,26.8,247.8,26.1,247.8,25z"/>
</g>
<rect x="268.8" y="25" width="0.5" height="17.7"/>
<g>
	<path d="M268.9,25c0-1.8,2.5-3.5,4.5-3.5c1.3,0,2.3,0.7,2.3,1.7c0,1.7-2.5,3.5-4.6,3.5C269.9,26.8,268.9,26.1,268.9,25z"/>
</g>
<g>
	<path d="M266.5,17.4v2.8l1-0.3v1.8l-1,0.3v3.4l1-0.3v1.8l-1,0.3v3.1H266v-3l-1.9,0.6v3h-0.5v-2.8l-1,0.3v-1.8l1-0.3v-3.4l-1,0.3
		v-1.8l1-0.3V18h0.5v3l1.9-0.6v-3H266.5z M266,22.1l-1.9,0.6v3.4l1.9-0.6V22.1z"/>
</g>
<rect x="300" y="22.5" width="0.5" height="15.2"/>
<g>
	<path d="M300,22.6c0-1.8,2.5-3.5,4.5-3.5c1.3,0,2.3,0.7,2.3,1.7c0,1.7-2.5,3.5-4.6,3.5C301,24.3,300,23.6,300,22.6z"/>
</g>
<g>
	<path d="M298.1,28.5v-4l-3,1.1V14.9h0.5v4l3-1.1v10.7H298.1z M295.6,23.8l2.5-0.9v-3.3l-2.5,0.9V23.8z"/>
</g>
<rect x="320.9" y="22.5" width="0.5" height="15.2"/>
<g>
	<path d="M321,22.6c0-1.8,2.5-3.5,4.5-3.5c1.3,0,2.3,0.7,2.3,1.7c0,1.7-2.5,3.5-4.6,3.5C321.9,24.3,321,23.6,321,22.6z"/>
</g>
<g>
	<path d="M318.5,14.9v2.8l1-0.3v1.8l-1,0.3V23l1-0.3v1.8l-1,0.3v3.1H318v-3l-1.9,0.6v3h-0.5v-2.8l-1,0.3v-1.8l1-0.3v-3.4l-1,0.3V19
		l1-0.3v-3.1h0.5v3l1.9-0.6v-3H318.5z M318,19.7l-1.9,0.6v3.4l1.9-0.6V19.7z"/>
</g>
<rect x="342" y="20" width="0.5" height="17.7"/>
<g>
	<path d="M342.1,20.1c0-1.8,2.5-3.5,4.5-3.5c1.3,0,2.3,0.7,2.3,1.7c0,1.7-2.5,3.5-4.6,3.5C343,21.8,342.1,21.2,342.1,20.1z"/>
</g>
<rect x="363.1" y="17.5" width="0.5" height="20.2"/>
<g>
	<path d="M363.1,17.6c0-1.8,2.5-3.5,4.5-3.5c1.3,0,2.3,0.7,2.3,1.7c0,1.7-2.5,3.5-4.6,3.5C364.1,19.3,363.1,18.7,363.1,17.6z"/>
</g>
<g>
	<path d="M361.2,23.5v-4l-3,1.1V9.9h0.5v4l3-1.1v10.7H361.2z M358.7,18.8l2.5-0.9v-3.3l-2.5,0.9V18.8z"/>
</g>
<rect x="384.1" y="17.5" width="0.5" height="14.3"/>
<g>
	<path d="M384.2,17.6c0-1.8,2.5-3.5,4.5-3.5c1.3,0,2.3,0.7,2.3,1.7c0,1.7-2.5,3.5-4.6,3.5C385.2,19.3,384.2,18.7,384.2,17.6z"/>
</g>
<g>
	<path d="M381.8,9.9v2.8l1-0.3v1.8l-1,0.3V18l1-0.3v1.8l-1,0.3v3.1h-0.5v-3l-1.9,0.6v3h-0.5v-2.8l-1,0.3v-1.8l1-0.3v-3.4l-1,0.3V14
		l1-0.3v-3.1h0.5v3l1.9-0.6v-3H381.8z M381.3,14.7l-1.9,0.6v3.4l1.9-0.6V14.7z"/>
</g>
<rect x="405.2" y="15" width="0.5" height="16.6"/>
<g>
	<path d="M405.3,15.1c0-1.8,2.5-3.5,4.5-3.5c1.3,0,2.3,0.7,2.3,1.7c0,1.7-2.5,3.5-4.6,3.5C406.3,16.8,405.3,16.2,405.3,15.1z"/>
</g>
<g>
	<path d="M403.4,21v-4l-3,1.1V7.5h0.5v4l3-1.1V21H403.4z M400.8,16.4l2.5-0.9v-3.3l-2.5,0.9V16.4z"/>
</g>
<rect x="426.3" y="15" width="0.5" height="16.4"/>
<g>
	<path d="M426.4,15.1c0-1.8,2.5-3.5,4.5-3.5c1.3,0,2.3,0.7,2.3,1.7c0,1.7-2.5,3.5-4.6,3.5C427.4,16.8,426.4,16.2,426.4,15.1z"/>
</g>
<g>
	<path d="M424,7.4v2.8l1-0.3v1.8l-1,0.3v3.4l1-0.3V17l-1,0.3v3.1h-0.5v-3l-1.9,0.6v3h-0.5v-2.8l-1,0.3v-1.8l1-0.3V13l-1,0.3v-1.8
		l1-0.3V8.1h0.5v3l1.9-0.6v-3H424z M423.5,12.2l-1.9,0.6v3.4l1.9-0.6V12.2z"/>
</g>
<rect x="445.6" y="11.4" width="10.5" height="0.8"/>
<rect x="447.4" y="12.6" width="0.5" height="18.6"/>
<g>
	<path d="M447.5,12.6c0-1.8,2.5-3.5,4.5-3.5c1.3,0,2.3,0.7,2.3,1.7c0,1.7-2.5,3.5-4.6,3.5C448.4,14.4,447.5,13.7,447.5,12.6z"/>
</g>
<g>
	<path d="M444.3,18.5v-4l-3,1.1V5h0.5v4l3-1.1v10.7H444.3z M441.8,13.9l2.5-0.9V9.6l-2.5,0.9V13.9z"/>
</g>
<rect x="466.7" y="11.4" width="10.5" height="0.8"/>
<rect x="468.5" y="12.6" width="0.5" height="15.2"/>
<g>
	<path d="M468.5,12.6c0-1.8,2.5-3.5,4.5-3.5c1.3,0,2.3,0.7,2.3,1.7c0,1.7-2.5,3.5-4.6,3.5C469.5,14.4,468.5,13.7,468.5,12.6z"/>
</g>
<g>
	<path d="M464.9,5v2.8l1-0.3v1.8l-1,0.3V13l1-0.3v1.8l-1,0.3V18h-0.5v-3l-1.9,0.6v3H462v-2.8l-1,0.3v-1.8l1-0.3v-3.4l-1,0.3V9l1-0.3
		V5.6h0.5v3l1.9-0.6V5H464.9z M464.4,9.7l-1.9,0.6v3.4l1.9-0.6V9.7z"/>
</g>
<rect x="487.8" y="11.4" width="10.5" height="0.8"/>
<rect x="489.5" y="10.1" width="0.5" height="17.4"/>
<g>
	<path d="M489.6,10.2c0-1.8,2.5-3.5,4.5-3.5c1.3,0,2.3,0.7,2.3,1.7c0,1.7-2.5,3.5-4.6,3.5C490.6,11.9,489.6,11.2,489.6,10.2z"/>
</g>
<rect x="508.8" y="11.4" width="10.5" height="0.8"/>
<rect x="508.8" y="6.4" width="10.5" height="0.8"/>
<rect x="510.6" y="7.6" width="0.5" height="19.4"/>
<g>
	<path d="M510.7,7.7c0-1.8,2.5-3.5,4.5-3.5c1.3,0,2.3,0.7,2.3,1.7c0,1.7-2.5,3.5-4.6,3.5C511.7,9.4,510.7,8.8,510.7,7.7z"/>
</g>
<g>
	<path d="M507.5,13.6v-4l-3,1.1V0h0.5v4l3-1.1v10.7H507.5z M505,8.9l2.5-0.9V4.7L505,5.6V8.9z"/>
</g>
<rect x="529.9" y="11.4" width="10.5" height="0.8"/>
<rect x="529.9" y="6.4" width="10.5" height="0.8"/>
<rect x="531.7" y="7.6" width="0.5" height="18.9"/>
<g>
	<path d="M531.8,7.7c0-1.8,2.5-3.5,4.5-3.5c1.3,0,2.3,0.7,2.3,1.7c0,1.7-2.5,3.5-4.6,3.5C532.8,9.4,531.8,8.8,531.8,7.7z"/>
</g>
<g>
	<path d="M528.1,0v2.8l1-0.3v1.8l-1,0.3v3.4l1-0.3v1.8l-1,0.3V13h-0.5v-3l-1.9,0.6v3h-0.5v-2.8l-1,0.3V9.3l1-0.3V5.6l-1,0.3V4.1
		l1-0.3V0.6h0.5v3l1.9-0.6V0H528.1z M527.6,4.8l-1.9,0.6v3.4l1.9-0.6V4.8z"/>
</g>
<rect x="36.9" y="74.6" width="0.5" height="15.2"/>
<g>
	<path d="M37,74.6c0-1.8,2.5-3.5,4.5-3.5c1.3,0,2.3,0.7,2.3,1.7c0,1.7-2.5,3.5-4.6,3.5C38,76.4,37,75.7,37,74.6z"/>
</g>
<rect x="58" y="74.6" width="0.5" height="15.2"/>
<g>
	<path d="M58.1,74.6c0-1.8,2.5-3.5,4.5-3.5c1.3,0,2.3,0.7,2.3,1.7c0,1.7-2.5,3.5-4.6,3.5C59,76.4,58.1,75.7,58.1,74.6z"/>
</g>
<g>
	<path d="M55.6,67v2.8l1-0.3v1.8l-1,0.3V75l1-0.3v1.8l-1,0.3V80h-0.5v-3l-1.9,0.6v3h-0.5v-2.8l-1,0.3v-1.8l1-0.3v-3.4l-1,0.3v-1.8
		l1-0.3v-3.1h0.5v3l1.9-0.6v-3H55.6z M55.1,71.7l-1.9,0.6v3.4l1.9-0.6V71.7z"/>
</g>
<rect x="79.1" y="72.1" width="0.5" height="17.7"/>
<g>
	<path d="M79.1,72.2c0-1.8,2.5-3.5,4.5-3.5c1.3,0,2.3,0.7,2.3,1.7c0,1.7-2.5,3.5-4.6,3.5C80.1,73.9,79.1,73.3,79.1,72.2z"/>
</g>
<rect x="100.2" y="69.6" width="0.5" height="20.2"/>
<g>
	<path d="M100.2,69.7c0-1.8,2.5-3.5,4.5-3.5c1.3,0,2.3,0.7,2.3,1.7c0,1.7-2.5,3.5-4.6,3.5C101.2,71.4,100.2,70.8,100.2,69.7z"/>
</g>
<rect x="121.2" y="69.6" width="0.5" height="14.3"/>
<g>
	<path d="M121.3,69.7c0-1.8,2.5-3.5,4.5-3.5c1.3,0,2.3,0.7,2.3,1.7c0,1.7-2.5,3.5-4.6,3.5C122.3,71.4,121.3,70.8,121.3,69.7z"/>
</g>
<g>
	<path d="M118.9,62v2.8l1-0.3v1.8l-1,0.3v3.4l1-0.3v1.8l-1,0.3V75h-0.5v-3l-1.9,0.6v3H116v-2.8l-1,0.3v-1.8l1-0.3v-3.4l-1,0.3v-1.8
		l1-0.3v-3.1h0.5v3l1.9-0.6v-3H118.9z M118.4,66.8l-1.9,0.6v3.4l1.9-0.6V66.8z"/>
</g>
<rect x="142.3" y="67.1" width="0.5" height="16.6"/>
<g>
	<path d="M142.4,67.2c0-1.8,2.5-3.5,4.5-3.5c1.3,0,2.3,0.7,2.3,1.7c0,1.7-2.5,3.5-4.6,3.5C143.4,68.9,142.4,68.3,142.4,67.2z"/>
</g>
<rect x="163.4" y="67.1" width="0.5" height="16.4"/>
<g>
	<path d="M163.5,67.2c0-1.8,2.5-3.5,4.5-3.5c1.3,0,2.3,0.7,2.3,1.7c0,1.7-2.5,3.5-4.6,3.5C164.4,68.9,163.5,68.3,163.5,67.2z"/>
</g>
<g>
	<path d="M161,59.5v2.8l1-0.3v1.8l-1,0.3v3.4l1-0.3v1.8l-1,0.3v3.1h-0.5v-3l-1.9,0.6v3h-0.5v-2.8l-1,0.3v-1.8l1-0.3v-3.4l-1,0.3
		v-1.8l1-0.3v-3.1h0.5v3l1.9-0.6v-3H161z M160.6,64.3l-1.9,0.6v3.4l1.9-0.6V64.3z"/>
</g>
<rect x="184.5" y="64.6" width="0.5" height="18.6"/>
<g>
	<path d="M184.6,64.7c0-1.8,2.5-3.5,4.5-3.5c1.3,0,2.3,0.7,2.3,1.7c0,1.7-2.5,3.5-4.6,3.5C185.5,66.4,184.6,65.8,184.6,64.7z"/>
</g>
<rect x="205.6" y="64.6" width="0.5" height="14.3"/>
<g>
	<path d="M205.6,64.7c0-1.8,2.5-3.5,4.5-3.5c1.3,0,2.3,0.7,2.3,1.7c0,1.7-2.5,3.5-4.6,3.5C206.6,66.4,205.6,65.8,205.6,64.7z"/>
</g>
<g>
	<path d="M203.2,57v2.8l1-0.3v1.8l-1,0.3v3.4l1-0.3v1.8l-1,0.3V70h-0.5v-3l-1.9,0.6v3h-0.5v-2.8l-1,0.3v-1.8l1-0.3v-3.4l-1,0.3v-1.8
		l1-0.3v-3.1h0.5v3l1.9-0.6v-3H203.2z M202.7,61.8l-1.9,0.6v3.4l1.9-0.6V61.8z"/>
</g>
<rect x="226.6" y="62.2" width="0.5" height="16.6"/>
<g>
	<path d="M226.7,62.2c0-1.8,2.5-3.5,4.5-3.5c1.3,0,2.3,0.7,2.3,1.7c0,1.7-2.5,3.5-4.6,3.5C227.7,64,226.7,63.3,226.7,62.2z"/>
</g>
<rect x="245.9" y="58.5" width="10.5" height="0.8"/>
<rect x="247.7" y="59.7" width="0.5" height="18.9"/>
<g>
	<path d="M247.8,59.8c0-1.8,2.5-3.5,4.5-3.5c1.3,0,2.3,0.7,2.3,1.7c0,1.7-2.5,3.5-4.6,3.5C248.8,61.5,247.8,60.9,247.8,59.8z"/>
</g>
<rect x="267" y="58.5" width="10.5" height="0.8"/>
<rect x="268.8" y="59.7" width="0.5" height="18.6"/>
<g>
	<path d="M268.9,59.8c0-1.8,2.5-3.5,4.5-3.5c1.3,0,2.3,0.7,2.3,1.7c0,1.7-2.5,3.5-4.6,3.5C269.9,61.5,268.9,60.9,268.9,59.8z"/>
</g>
<g>
	<path d="M265.2,52.1v2.8l1-0.3v1.8l-1,0.3v3.4l1-0.3v1.8l-1,0.3v3.1h-0.5v-3l-1.9,0.6v3h-0.5v-2.8l-1,0.3v-1.8l1-0.3v-3.4l-1,0.3
		v-1.8l1-0.3v-3.1h0.5v3l1.9-0.6v-3H265.2z M264.7,56.9l-1.9,0.6v3.4l1.9-0.6V56.9z"/>
</g>
<rect x="306.5" y="69" width="0.5" height="16.4"/>
<g>
	<path d="M300,87c0-1.8,2.5-3.5,4.5-3.5c1.3,0,2.3,0.7,2.3,1.7c0,1.7-2.5,3.5-4.6,3.5C301,88.8,300,88.1,300,87z"/>
</g>
<g>
	<path d="M298.1,93v-4l-3,1.1V79.4h0.5v4l3-1.1V93H298.1z M295.6,88.3l2.5-0.9V84l-2.5,0.9V88.3z"/>
</g>
<rect x="327.4" y="67.4" width="0.5" height="18"/>
<g>
	<path d="M321,87c0-1.8,2.5-3.5,4.5-3.5c1.3,0,2.3,0.7,2.3,1.7c0,1.7-2.5,3.5-4.6,3.5C321.9,88.8,321,88.1,321,87z"/>
</g>
<g>
	<path d="M318.5,79.4v2.8l1-0.3v1.8l-1,0.3v3.4l1-0.3v1.8l-1,0.3v3.1H318v-3l-1.9,0.6v3h-0.5v-2.8l-1,0.3v-1.8l1-0.3v-3.4l-1,0.3
		v-1.8l1-0.3V80h0.5v3l1.9-0.6v-3H318.5z M318,84.1l-1.9,0.6v3.4l1.9-0.6V84.1z"/>
</g>
<rect x="348.5" y="65.7" width="0.5" height="17.2"/>
<g>
	<path d="M342.1,84.6c0-1.8,2.5-3.5,4.5-3.5c1.3,0,2.3,0.7,2.3,1.7c0,1.7-2.5,3.5-4.6,3.5C343,86.3,342.1,85.7,342.1,84.6z"/>
</g>
<rect x="369.6" y="64" width="0.5" height="16.4"/>
<g>
	<path d="M363.1,82.1c0-1.8,2.5-3.5,4.5-3.5c1.3,0,2.3,0.7,2.3,1.7c0,1.7-2.5,3.5-4.6,3.5C364.1,83.8,363.1,83.2,363.1,82.1z"/>
</g>
<g>
	<path d="M361.2,88v-4l-3,1.1V74.4h0.5v4l3-1.1V88H361.2z M358.7,83.3l2.5-0.9v-3.3l-2.5,0.9V83.3z"/>
</g>
<rect x="390.6" y="64" width="0.5" height="16.4"/>
<g>
	<path d="M384.2,82.1c0-1.8,2.5-3.5,4.5-3.5c1.3,0,2.3,0.7,2.3,1.7c0,1.7-2.5,3.5-4.6,3.5C385.2,83.8,384.2,83.2,384.2,82.1z"/>
</g>
<g>
	<path d="M381.8,74.4v2.8l1-0.3v1.8l-1,0.3v3.4l1-0.3v1.8l-1,0.3v3.1h-0.5v-3l-1.9,0.6v3h-0.5v-2.8l-1,0.3v-1.8l1-0.3V80l-1,0.3
		v-1.8l1-0.3V75h0.5v3l1.9-0.6v-3H381.8z M381.3,79.2l-1.9,0.6v3.4l1.9-0.6V79.2z"/>
</g>
<rect x="411.7" y="62.5" width="0.5" height="15.5"/>
<g>
	<path d="M405.3,79.6c0-1.8,2.5-3.5,4.5-3.5c1.3,0,2.3,0.7,2.3,1.7c0,1.7-2.5,3.5-4.6,3.5C406.3,81.3,405.3,80.7,405.3,79.6z"/>
</g>
<g>
	<path d="M403.4,85.5v-4l-3,1.1V71.9h0.5v4l3-1.1v10.7H403.4z M400.8,80.9l2.5-0.9v-3.3l-2.5,0.9V80.9z"/>
</g>
<rect x="432.8" y="60.8" width="0.5" height="17.2"/>
<g>
	<path d="M426.4,79.6c0-1.8,2.5-3.5,4.5-3.5c1.3,0,2.3,0.7,2.3,1.7c0,1.7-2.5,3.5-4.6,3.5C427.4,81.3,426.4,80.7,426.4,79.6z"/>
</g>
<g>
	<path d="M424,71.9v2.8l1-0.3v1.8l-1,0.3V80l1-0.3v1.8l-1,0.3v3.1h-0.5v-3l-1.9,0.6v3h-0.5v-2.8l-1,0.3v-1.8l1-0.3v-3.4l-1,0.3V76
		l1-0.3v-3.1h0.5v3l1.9-0.6v-3H424z M423.5,76.7l-1.9,0.6v3.4l1.9-0.6V76.7z"/>
</g>
<rect x="453.9" y="59.1" width="0.5" height="16.4"/>
<g>
	<path d="M447.5,77.1c0-1.8,2.5-3.5,4.5-3.5c1.3,0,2.3,0.7,2.3,1.7c0,1.7-2.5,3.5-4.6,3.5C448.4,78.8,447.5,78.2,447.5,77.1z"/>
</g>
<g>
	<path d="M445.5,83v-4l-3,1.1V69.5h0.5v4l3-1.1V83H445.5z M443,78.4l2.5-0.9v-3.3l-2.5,0.9V78.4z"/>
</g>
<rect x="468.5" y="77" width="0.5" height="15.2"/>
<g>
	<path d="M468.5,77.1c0-1.8,2.5-3.5,4.5-3.5c1.3,0,2.3,0.7,2.3,1.7c0,1.7-2.5,3.5-4.6,3.5C469.5,78.8,468.5,78.2,468.5,77.1z"/>
</g>
<g>
	<path d="M466.1,69.4v2.8l1-0.3v1.8l-1,0.3v3.4l1-0.3V79l-1,0.3v3.1h-0.5v-3l-1.9,0.6v3h-0.5v-2.8l-1,0.3v-1.8l1-0.3V75l-1,0.3v-1.8
		l1-0.3v-3.1h0.5v3l1.9-0.6v-3H466.1z M465.6,74.2l-1.9,0.6v3.4l1.9-0.6V74.2z"/>
</g>
<rect x="489.5" y="74.6" width="0.5" height="16.9"/>
<g>
	<path d="M489.6,74.6c0-1.8,2.5-3.5,4.5-3.5c1.3,0,2.3,0.7,2.3,1.7c0,1.7-2.5,3.5-4.6,3.5C490.6,76.4,489.6,75.7,489.6,74.6z"/>
</g>
<rect x="510.6" y="72.1" width="0.5" height="18.6"/>
<g>
	<path d="M510.7,72.2c0-1.8,2.5-3.5,4.5-3.5c1.3,0,2.3,0.7,2.3,1.7c0,1.7-2.5,3.5-4.6,3.5C511.7,73.9,510.7,73.3,510.7,72.2z"/>
</g>
<g>
	<path d="M508.8,78.1v-4l-3,1.1V64.5h0.5v4l3-1.1v10.7H508.8z M506.2,73.4l2.5-0.9v-3.3l-2.5,0.9V73.4z"/>
</g>
<rect x="531.7" y="72.1" width="0.5" height="17.7"/>
<g>
	<path d="M531.8,72.2c0-1.8,2.5-3.5,4.5-3.5c1.3,0,2.3,0.7,2.3,1.7c0,1.7-2.5,3.5-4.6,3.5C532.8,73.9,531.8,73.3,531.8,72.2z"/>
</g>
<g>
	<path d="M529.4,64.5v2.8l1-0.3v1.8l-1,0.3v3.4l1-0.3V74l-1,0.3v3.1h-0.5v-3l-1.9,0.6v3h-0.5v-2.8l-1,0.3v-1.8l1-0.3V70l-1,0.3v-1.8
		l1-0.3v-3.1h0.5v3l1.9-0.6v-3H529.4z M528.9,69.3l-1.9,0.6v3.4l1.9-0.6V69.3z"/>
</g>
<rect x="35.4" y="124.2" width="10.5" height="0.8"/>
<rect x="35.4" y="119.3" width="10.5" height="0.8"/>
<rect x="37.2" y="118" width="0.5" height="21.4"/>
<g>
	<path d="M37.3,118c0-1.8,2.5-3.5,4.5-3.5c1.3,0,2.3,0.7,2.3,1.7c0,1.7-2.5,3.5-4.6,3.5C38.3,119.8,37.3,119.1,37.3,118z"/>
</g>
<g>
	<path d="M34.1,124v-4l-3,1.1v-10.7h0.5v4l3-1.1V124H34.1z M31.6,119.3l2.5-0.9V115l-2.5,0.9V119.3z"/>
</g>
<rect x="53.7" y="124.2" width="10.5" height="0.8"/>
<rect x="53.7" y="119.3" width="10.5" height="0.8"/>
<rect x="55.5" y="120.4" width="0.5" height="19.2"/>
<g>
	<path d="M55.6,120.5c0-1.8,2.5-3.5,4.5-3.5c1.3,0,2.3,0.7,2.3,1.7c0,1.7-2.5,3.5-4.6,3.5C56.6,122.2,55.6,121.6,55.6,120.5z"/>
</g>
<g>
	<path d="M51.9,112.8v2.8l1-0.3v1.8l-1,0.3v3.4l1-0.3v1.8l-1,0.3v3.1h-0.5v-3l-1.9,0.6v3H49v-2.8l-1,0.3v-1.8l1-0.3v-3.4l-1,0.3
		v-1.8l1-0.3v-3.1h0.5v3l1.9-0.6v-3H51.9z M51.4,117.6l-1.9,0.6v3.4l1.9-0.6V117.6z"/>
</g>
<rect x="72" y="124.2" width="10.5" height="0.8"/>
<rect x="72" y="119.3" width="10.5" height="0.8"/>
<rect x="73.8" y="120.4" width="0.5" height="19.7"/>
<g>
	<path d="M73.9,120.5c0-1.8,2.5-3.5,4.5-3.5c1.3,0,2.3,0.7,2.3,1.7c0,1.7-2.5,3.5-4.6,3.5C74.8,122.2,73.9,121.6,73.9,120.5z"/>
</g>
<g>
	<path d="M70.7,126.4v-4l-3,1.1v-10.7h0.5v4l3-1.1v10.7H70.7z M68.2,121.8l2.5-0.9v-3.3l-2.5,0.9V121.8z"/>
</g>
<rect x="90.5" y="124.2" width="10.5" height="0.8"/>
<rect x="92.2" y="122.9" width="0.5" height="17.7"/>
<g>
	<path d="M92.3,123c0-1.8,2.5-3.5,4.5-3.5c1.3,0,2.3,0.7,2.3,1.7c0,1.7-2.5,3.5-4.6,3.5C93.3,124.7,92.3,124.1,92.3,123z"/>
</g>
<rect x="108.8" y="124.2" width="10.5" height="0.8"/>
<rect x="110.5" y="125.4" width="0.5" height="18.9"/>
<g>
	<path d="M110.6,125.5c0-1.8,2.5-3.5,4.5-3.5c1.3,0,2.3,0.7,2.3,1.7c0,1.7-2.5,3.5-4.6,3.5C111.6,127.2,110.6,126.6,110.6,125.5z"/>
</g>
<g>
	<path d="M106.9,117.8v2.8l1-0.3v1.8l-1,0.3v3.4l1-0.3v1.8l-1,0.3v3.1h-0.5v-3l-1.9,0.6v3h-0.5v-2.8l-1,0.3v-1.8l1-0.3v-3.4l-1,0.3
		v-1.8l1-0.3v-3.1h0.5v3l1.9-0.6v-3H106.9z M106.5,122.6l-1.9,0.6v3.4l1.9-0.6V122.6z"/>
</g>
<rect x="127" y="124.2" width="10.5" height="0.8"/>
<rect x="128.8" y="125.4" width="0.5" height="19.2"/>
<g>
	<path d="M128.9,125.5c0-1.8,2.5-3.5,4.5-3.5c1.3,0,2.3,0.7,2.3,1.7c0,1.7-2.5,3.5-4.6,3.5C129.9,127.2,128.9,126.6,128.9,125.5z"/>
</g>
<g>
	<path d="M125.7,131.4v-4l-3,1.1v-10.7h0.5v4l3-1.1v10.7H125.7z M123.2,126.7l2.5-0.9v-3.3l-2.5,0.9V126.7z"/>
</g>
<rect x="147.1" y="127.9" width="0.5" height="17.2"/>
<g>
	<path d="M147.2,128c0-1.8,2.5-3.5,4.5-3.5c1.3,0,2.3,0.7,2.3,1.7c0,1.7-2.5,3.5-4.6,3.5C148.2,129.7,147.2,129.1,147.2,128z"/>
</g>
<g>
	<path d="M144.8,120.3v2.8l1-0.3v1.8l-1,0.3v3.4l1-0.3v1.8l-1,0.3v3.1h-0.5v-3l-1.9,0.6v3h-0.5v-2.8l-1,0.3v-1.8l1-0.3v-3.4l-1,0.3
		v-1.8l1-0.3v-3.1h0.5v3l1.9-0.6v-3H144.8z M144.3,125.1l-1.9,0.6v3.4l1.9-0.6V125.1z"/>
</g>
<rect x="165.4" y="127.9" width="0.5" height="17.7"/>
<g>
	<path d="M165.5,128c0-1.8,2.5-3.5,4.5-3.5c1.3,0,2.3,0.7,2.3,1.7c0,1.7-2.5,3.5-4.6,3.5C166.5,129.7,165.5,129.1,165.5,128z"/>
</g>
<g>
	<path d="M163.6,133.9v-4l-3,1.1v-10.7h0.5v4l3-1.1v10.7H163.6z M161,129.2l2.5-0.9V125l-2.5,0.9V129.2z"/>
</g>
<rect x="183.7" y="130.4" width="0.5" height="18.6"/>
<g>
	<path d="M183.8,130.4c0-1.8,2.5-3.5,4.5-3.5c1.3,0,2.3,0.7,2.3,1.7c0,1.7-2.5,3.5-4.6,3.5C184.8,132.2,183.8,131.5,183.8,130.4z"/>
</g>
<g>
	<path d="M181.4,122.8v2.8l1-0.3v1.8l-1,0.3v3.4l1-0.3v1.8l-1,0.3v3.1h-0.5v-3l-1.9,0.6v3h-0.5v-2.8l-1,0.3v-1.8l1-0.3v-3.4l-1,0.3
		v-1.8l1-0.3v-3.1h0.5v3l1.9-0.6v-3H181.4z M180.9,127.5l-1.9,0.6v3.4l1.9-0.6V127.5z"/>
</g>
<rect x="202.2" y="130.4" width="0.5" height="18.8"/>
<g>
	<path d="M202.2,130.4c0-1.8,2.5-3.5,4.5-3.5c1.3,0,2.3,0.7,2.3,1.7c0,1.7-2.5,3.5-4.6,3.5C203.2,132.2,202.2,131.5,202.2,130.4z"/>
</g>
<g>
	<path d="M200.3,136.4v-4l-3,1.1v-10.7h0.5v4l3-1.1v10.7H200.3z M197.8,131.7l2.5-0.9v-3.3l-2.5,0.9V131.7z"/>
</g>
<rect x="220.4" y="132.8" width="0.5" height="16.4"/>
<g>
	<path d="M220.5,132.9c0-1.8,2.5-3.5,4.5-3.5c1.3,0,2.3,0.7,2.3,1.7c0,1.7-2.5,3.5-4.6,3.5C221.5,134.6,220.5,134,220.5,132.9z"/>
</g>
<rect x="238.7" y="135.3" width="0.5" height="14.3"/>
<g>
	<path d="M238.8,135.4c0-1.8,2.5-3.5,4.5-3.5c1.3,0,2.3,0.7,2.3,1.7c0,1.7-2.5,3.5-4.6,3.5C239.8,137.1,238.8,136.5,238.8,135.4z"/>
</g>
<g>
	<path d="M236.4,127.7v2.8l1-0.3v1.8l-1,0.3v3.4l1-0.3v1.8l-1,0.3v3.1h-0.5v-3l-1.9,0.6v3h-0.5v-2.8l-1,0.3v-1.8l1-0.3v-3.4l-1,0.3
		v-1.8l1-0.3v-3.1h0.5v3l1.9-0.6v-3H236.4z M235.9,132.5l-1.9,0.6v3.4l1.9-0.6V132.5z"/>
</g>
<rect x="269.3" y="135.3" width="0.5" height="20.2"/>
<g>
	<path d="M269.4,135.4c0-1.8,2.5-3.5,4.5-3.5c1.3,0,2.3,0.7,2.3,1.7c0,1.7-2.5,3.5-4.6,3.5C270.3,137.1,269.4,136.5,269.4,135.4z"/>
</g>
<g>
	<path d="M267.4,141.3v-4l-3,1.1v-10.7h0.5v4l3-1.1v10.7H267.4z M264.9,136.7l2.5-0.9v-3.3l-2.5,0.9V136.7z"/>
</g>
<rect x="287.6" y="137.8" width="0.5" height="18.4"/>
<g>
	<path d="M287.6,137.9c0-1.8,2.5-3.5,4.5-3.5c1.3,0,2.3,0.7,2.3,1.7c0,1.7-2.5,3.5-4.6,3.5C288.6,139.6,287.6,139,287.6,137.9z"/>
</g>
<g>
	<path d="M285.2,130.2v2.8l1-0.3v1.8l-1,0.3v3.4l1-0.3v1.8l-1,0.3v3.1h-0.5v-3l-1.9,0.6v3h-0.5V141l-1,0.3v-1.8l1-0.3v-3.4l-1,0.3
		v-1.8l1-0.3v-3.1h0.5v3l1.9-0.6v-3H285.2z M284.7,135l-1.9,0.6v3.4l1.9-0.6V135z"/>
</g>
<rect x="305.9" y="137.8" width="0.5" height="19.2"/>
<g>
	<path d="M305.9,137.9c0-1.8,2.5-3.5,4.5-3.5c1.3,0,2.3,0.7,2.3,1.7c0,1.7-2.5,3.5-4.6,3.5C306.9,139.6,305.9,139,305.9,137.9z"/>
</g>
<g>
	<path d="M304,143.8v-4l-3,1.1v-10.7h0.5v4l3-1.1v10.7H304z M301.5,139.1l2.5-0.9v-3.3l-2.5,0.9V139.1z"/>
</g>
<rect x="324.1" y="140.3" width="0.5" height="17.7"/>
<g>
	<path d="M324.2,140.4c0-1.8,2.5-3.5,4.5-3.5c1.3,0,2.3,0.7,2.3,1.7c0,1.7-2.5,3.5-4.6,3.5C325.2,142.1,324.2,141.5,324.2,140.4z"/>
</g>
<rect x="349.1" y="123.5" width="0.5" height="17.7"/>
<g>
	<path d="M342.7,142.8c0-1.8,2.5-3.5,4.5-3.5c1.3,0,2.3,0.7,2.3,1.7c0,1.7-2.5,3.5-4.6,3.5C343.6,144.6,342.7,143.9,342.7,142.8z"/>
</g>
<g>
	<path d="M340.2,135.2v2.8l1-0.3v1.8l-1,0.3v3.4l1-0.3v1.8l-1,0.3v3.1h-0.5v-3l-1.9,0.6v3h-0.5V146l-1,0.3v-1.8l1-0.3v-3.4l-1,0.3
		v-1.8l1-0.3v-3.1h0.5v3l1.9-0.6v-3H340.2z M339.7,139.9l-1.9,0.6v3.4l1.9-0.6V139.9z"/>
</g>
<rect x="367.4" y="123.9" width="0.5" height="17.4"/>
<g>
	<path d="M361,142.8c0-1.8,2.5-3.5,4.5-3.5c1.3,0,2.3,0.7,2.3,1.7c0,1.7-2.5,3.5-4.6,3.5C361.9,144.6,361,143.9,361,142.8z"/>
</g>
<g>
	<path d="M359,148.8v-4l-3,1.1v-10.7h0.5v4l3-1.1v10.7H359z M356.5,144.1l2.5-0.9v-3.3l-2.5,0.9V144.1z"/>
</g>
<rect x="385.7" y="124.3" width="0.5" height="19.4"/>
<g>
	<path d="M379.3,145.3c0-1.8,2.5-3.5,4.5-3.5c1.3,0,2.3,0.7,2.3,1.7c0,1.7-2.5,3.5-4.6,3.5C380.2,147.1,379.3,146.4,379.3,145.3z"/>
</g>
<g>
	<path d="M376.8,137.6v2.8l1-0.3v1.8l-1,0.3v3.4l1-0.3v1.8l-1,0.3v3.1h-0.5v-3l-1.9,0.6v3h-0.5v-2.8l-1,0.3V147l1-0.3v-3.4l-1,0.3
		v-1.8l1-0.3v-3.1h0.5v3l1.9-0.6v-3H376.8z M376.3,142.4l-1.9,0.6v3.4l1.9-0.6V142.4z"/>
</g>
<rect x="404" y="124.8" width="0.5" height="18.9"/>
<g>
	<path d="M397.5,145.3c0-1.8,2.5-3.5,4.5-3.5c1.3,0,2.3,0.7,2.3,1.7c0,1.7-2.5,3.5-4.6,3.5C398.5,147.1,397.5,146.4,397.5,145.3z"/>
</g>
<g>
	<path d="M395.6,151.2v-4l-3,1.1v-10.7h0.5v4l3-1.1v10.7H395.6z M393.1,146.6l2.5-0.9v-3.3l-2.5,0.9V146.6z"/>
</g>
<rect x="422.3" y="129.7" width="0.5" height="16.4"/>
<g>
	<path d="M415.8,147.8c0-1.8,2.5-3.5,4.5-3.5c1.3,0,2.3,0.7,2.3,1.7c0,1.7-2.5,3.5-4.6,3.5C416.8,149.5,415.8,148.9,415.8,147.8z"/>
</g>
<g>
	<path d="M413.4,140.1v2.8l1-0.3v1.8l-1,0.3v3.4l1-0.3v1.8l-1,0.3v3.1h-0.5v-3l-1.9,0.6v3h-0.5v-2.8l-1,0.3v-1.8l1-0.3v-3.4l-1,0.3
		v-1.8l1-0.3v-3.1h0.5v3l1.9-0.6v-3H413.4z M412.9,144.9l-1.9,0.6v3.4l1.9-0.6V144.9z"/>
</g>
<rect x="440.6" y="129.7" width="0.5" height="16.4"/>
<g>
	<path d="M434.1,147.8c0-1.8,2.5-3.5,4.5-3.5c1.3,0,2.3,0.7,2.3,1.7c0,1.7-2.5,3.5-4.6,3.5C435.1,149.5,434.1,148.9,434.1,147.8z"/>
</g>
<g>
	<path d="M432.2,153.7v-4l-3,1.1v-10.7h0.5v4l3-1.1v10.7H432.2z M429.7,149.1l2.5-0.9v-3.3l-2.5,0.9V149.1z"/>
</g>
<rect x="459" y="129.7" width="0.5" height="18.9"/>
<g>
	<path d="M452.6,150.3c0-1.8,2.5-3.5,4.5-3.5c1.3,0,2.3,0.7,2.3,1.7c0,1.7-2.5,3.5-4.6,3.5C453.5,152,452.6,151.4,452.6,150.3z"/>
</g>
<rect x="477.3" y="129.7" width="0.5" height="21.4"/>
<g>
	<path d="M470.9,152.8c0-1.8,2.5-3.5,4.5-3.5c1.3,0,2.3,0.7,2.3,1.7c0,1.7-2.5,3.5-4.6,3.5C471.8,154.5,470.9,153.9,470.9,152.8z"/>
</g>
<g>
	<path d="M468.4,145.1v2.8l1-0.3v1.8l-1,0.3v3.4l1-0.3v1.8l-1,0.3v3.1h-0.5v-3l-1.9,0.6v3h-0.5v-2.8l-1,0.3v-1.8l1-0.3v-3.4l-1,0.3
		v-1.8l1-0.3v-3.1h0.5v3l1.9-0.6v-3H468.4z M467.9,149.9l-1.9,0.6v3.4l1.9-0.6V149.9z"/>
</g>
<rect x="495.7" y="134.6" width="0.5" height="16.6"/>
<g>
	<path d="M493.4,149.2c1.6,0,2.7,0.7,2.7,2c0,1.9-2.3,3.4-4.5,3.4c-1.3,0-2.4-0.7-2.4-1.8C489.2,151,491.4,149.2,493.4,149.2z
		 M489.6,153.1c0,0.6,0.4,0.9,1.1,0.9c1.4,0,4.9-2.1,4.9-3.3c0-0.6-0.4-0.9-1.1-0.9C493.3,149.8,489.6,151.8,489.6,153.1z"/>
</g>
<g>
	<path d="M487.2,158.7v-4l-3,1.1v-10.7h0.5v4l3-1.1v10.7H487.2z M484.7,154l2.5-0.9v-3.3l-2.5,0.9V154z"/>
</g>
<rect x="37.2" y="182.4" width="0.5" height="20.2"/>
<g>
	<path d="M37.3,182.5c0-1.8,2.5-3.5,4.5-3.5c1.3,0,2.3,0.7,2.3,1.7c0,1.7-2.5,3.5-4.6,3.5C38.3,184.3,37.3,183.6,37.3,182.5z"/>
</g>
<g>
	<path d="M35.4,188.4v-4l-3,1.1v-10.7h0.5v4l3-1.1v10.7H35.4z M32.8,183.8l2.5-0.9v-3.3l-2.5,0.9V183.8z"/>
</g>
<rect x="55.5" y="184.9" width="0.5" height="18.4"/>
<g>
	<path d="M55.6,185c0-1.8,2.5-3.5,4.5-3.5c1.3,0,2.3,0.7,2.3,1.7c0,1.7-2.5,3.5-4.6,3.5C56.6,186.7,55.6,186.1,55.6,185z"/>
</g>
<g>
	<path d="M53.2,177.3v2.8l1-0.3v1.8l-1,0.3v3.4l1-0.3v1.8l-1,0.3v3.1h-0.5v-3l-1.9,0.6v3h-0.5v-2.8l-1,0.3v-1.8l1-0.3v-3.4l-1,0.3
		v-1.8l1-0.3V178h0.5v3l1.9-0.6v-3H53.2z M52.7,182.1l-1.9,0.6v3.4l1.9-0.6V182.1z"/>
</g>
<rect x="73.8" y="184.9" width="0.5" height="19.2"/>
<g>
	<path d="M73.9,185c0-1.8,2.5-3.5,4.5-3.5c1.3,0,2.3,0.7,2.3,1.7c0,1.7-2.5,3.5-4.6,3.5C74.8,186.7,73.9,186.1,73.9,185z"/>
</g>
<g>
	<path d="M72,190.9v-4l-3,1.1v-10.7h0.5v4l3-1.1v10.7H72z M69.4,186.3l2.5-0.9V182l-2.5,0.9V186.3z"/>
</g>
<rect x="92.2" y="187.4" width="0.5" height="17.7"/>
<g>
	<path d="M92.3,187.5c0-1.8,2.5-3.5,4.5-3.5c1.3,0,2.3,0.7,2.3,1.7c0,1.7-2.5,3.5-4.6,3.5C93.3,189.2,92.3,188.6,92.3,187.5z"/>
</g>
<rect x="117" y="170.7" width="0.5" height="17.7"/>
<g>
	<path d="M110.6,190c0-1.8,2.5-3.5,4.5-3.5c1.3,0,2.3,0.7,2.3,1.7c0,1.7-2.5,3.5-4.6,3.5C111.6,191.7,110.6,191.1,110.6,190z"/>
</g>
<g>
	<path d="M108.2,182.3v2.8l1-0.3v1.8l-1,0.3v3.4l1-0.3v1.8l-1,0.3v3.1h-0.5v-3l-1.9,0.6v3h-0.5v-2.8l-1,0.3v-1.8l1-0.3v-3.4l-1,0.3
		v-1.8l1-0.3v-3.1h0.5v3l1.9-0.6v-3H108.2z M107.7,187.1l-1.9,0.6v3.4l1.9-0.6V187.1z"/>
</g>
<rect x="135.3" y="171" width="0.5" height="17.4"/>
<g>
	<path d="M128.9,190c0-1.8,2.5-3.5,4.5-3.5c1.3,0,2.3,0.7,2.3,1.7c0,1.7-2.5,3.5-4.6,3.5C129.9,191.7,128.9,191.1,128.9,190z"/>
</g>
<g>
	<path d="M127,195.9v-4l-3,1.1v-10.7h0.5v4l3-1.1v10.7H127z M124.4,191.2l2.5-0.9V187l-2.5,0.9V191.2z"/>
</g>
<rect x="153.6" y="171.4" width="0.5" height="19.4"/>
<g>
	<path d="M147.2,192.4c0-1.8,2.5-3.5,4.5-3.5c1.3,0,2.3,0.7,2.3,1.7c0,1.7-2.5,3.5-4.6,3.5C148.2,194.2,147.2,193.5,147.2,192.4z"/>
</g>
<g>
	<path d="M144.8,184.8v2.8l1-0.3v1.8l-1,0.3v3.4l1-0.3v1.8l-1,0.3v3.1h-0.5v-3l-1.9,0.6v3h-0.5v-2.8l-1,0.3v-1.8l1-0.3v-3.4l-1,0.3
		v-1.8l1-0.3v-3.1h0.5v3l1.9-0.6v-3H144.8z M144.3,189.6l-1.9,0.6v3.4l1.9-0.6V189.6z"/>
</g>
<rect x="171.9" y="171.9" width="0.5" height="18.9"/>
<g>
	<path d="M165.5,192.4c0-1.8,2.5-3.5,4.5-3.5c1.3,0,2.3,0.7,2.3,1.7c0,1.7-2.5,3.5-4.6,3.5C166.5,194.2,165.5,193.5,165.5,192.4z"/>
</g>
<g>
	<path d="M163.6,198.4v-4l-3,1.1v-10.7h0.5v4l3-1.1v10.7H163.6z M161,193.7l2.5-0.9v-3.3l-2.5,0.9V193.7z"/>
</g>
<rect x="190.2" y="176.9" width="0.5" height="16.4"/>
<g>
	<path d="M183.8,194.9c0-1.8,2.5-3.5,4.5-3.5c1.3,0,2.3,0.7,2.3,1.7c0,1.7-2.5,3.5-4.6,3.5C184.8,196.7,183.8,196,183.8,194.9z"/>
</g>
<g>
	<path d="M181.4,187.3v2.8l1-0.3v1.8l-1,0.3v3.4l1-0.3v1.8l-1,0.3v3.1h-0.5v-3l-1.9,0.6v3h-0.5V198l-1,0.3v-1.8l1-0.3v-3.4l-1,0.3
		v-1.8l1-0.3v-3.1h0.5v3l1.9-0.6v-3H181.4z M180.9,192l-1.9,0.6v3.4l1.9-0.6V192z"/>
</g>
<rect x="208.7" y="176.9" width="0.5" height="16.4"/>
<g>
	<path d="M202.2,194.9c0-1.8,2.5-3.5,4.5-3.5c1.3,0,2.3,0.7,2.3,1.7c0,1.7-2.5,3.5-4.6,3.5C203.2,196.7,202.2,196,202.2,194.9z"/>
</g>
<g>
	<path d="M200.3,200.8v-4l-3,1.1v-10.7h0.5v4l3-1.1v10.7H200.3z M197.8,196.2l2.5-0.9v-3.3l-2.5,0.9V196.2z"/>
</g>
<rect x="227" y="176.9" width="0.5" height="18.9"/>
<g>
	<path d="M220.5,197.4c0-1.8,2.5-3.5,4.5-3.5c1.3,0,2.3,0.7,2.3,1.7c0,1.7-2.5,3.5-4.6,3.5C221.5,199.1,220.5,198.5,220.5,197.4z"/>
</g>
<rect x="245.2" y="176.9" width="0.5" height="21.4"/>
<g>
	<path d="M238.8,199.9c0-1.8,2.5-3.5,4.5-3.5c1.3,0,2.3,0.7,2.3,1.7c0,1.7-2.5,3.5-4.6,3.5C239.8,201.6,238.8,201,238.8,199.9z"/>
</g>
<g>
	<path d="M236.4,192.2v2.8l1-0.3v1.8l-1,0.3v3.4l1-0.3v1.8l-1,0.3v3.1h-0.5v-3l-1.9,0.6v3h-0.5V203l-1,0.3v-1.8l1-0.3v-3.4l-1,0.3
		v-1.8l1-0.3v-3.1h0.5v3l1.9-0.6v-3H236.4z M235.9,197l-1.9,0.6v3.4l1.9-0.6V197z"/>
</g>
<rect x="267.5" y="171.4" width="10.5" height="0.8"/>
<rect x="269.3" y="170" width="0.5" height="16.4"/>
<g>
	<path d="M269.4,170.1c0-1.8,2.5-3.5,4.5-3.5c1.3,0,2.3,0.7,2.3,1.7c0,1.7-2.5,3.5-4.6,3.5C270.3,171.9,269.4,171.2,269.4,170.1z"/>
</g>
<g>
	<path d="M266.2,176v-4l-3,1.1v-10.7h0.5v4l3-1.1V176H266.2z M263.6,171.4l2.5-0.9v-3.3l-2.5,0.9V171.4z"/>
</g>
<rect x="285.8" y="171.4" width="10.5" height="0.8"/>
<rect x="287.6" y="172.5" width="0.5" height="15.5"/>
<g>
	<path d="M287.6,172.6c0-1.8,2.5-3.5,4.5-3.5c1.3,0,2.3,0.7,2.3,1.7c0,1.7-2.5,3.5-4.6,3.5C288.6,174.3,287.6,173.7,287.6,172.6z"/>
</g>
<g>
	<path d="M284,164.9v2.8l1-0.3v1.8l-1,0.3v3.4l1-0.3v1.8l-1,0.3v3.1h-0.5v-3l-1.9,0.6v3h-0.5v-2.8l-1,0.3v-1.8l1-0.3v-3.4l-1,0.3
		V169l1-0.3v-3.1h0.5v3l1.9-0.6v-3H284z M283.5,169.7l-1.9,0.6v3.4l1.9-0.6V169.7z"/>
</g>
<rect x="304.1" y="171.4" width="10.5" height="0.8"/>
<rect x="305.9" y="172.5" width="0.5" height="17.2"/>
<g>
	<path d="M305.9,172.6c0-1.8,2.5-3.5,4.5-3.5c1.3,0,2.3,0.7,2.3,1.7c0,1.7-2.5,3.5-4.6,3.5C306.9,174.3,305.9,173.7,305.9,172.6z"/>
</g>
<g>
	<path d="M302.8,178.5v-4l-3,1.1v-10.7h0.5v4l3-1.1v10.7H302.8z M300.2,173.9l2.5-0.9v-3.3l-2.5,0.9V173.9z"/>
</g>
<rect x="324.1" y="175" width="0.5" height="16.4"/>
<g>
	<path d="M324.2,175.1c0-1.8,2.5-3.5,4.5-3.5c1.3,0,2.3,0.7,2.3,1.7c0,1.7-2.5,3.5-4.6,3.5C325.2,176.8,324.2,176.2,324.2,175.1z"/>
</g>
<rect x="342.6" y="177.5" width="0.5" height="18.9"/>
<g>
	<path d="M342.7,177.6c0-1.8,2.5-3.5,4.5-3.5c1.3,0,2.3,0.7,2.3,1.7c0,1.7-2.5,3.5-4.6,3.5C343.6,179.3,342.7,178.7,342.7,177.6z"/>
</g>
<g>
	<path d="M340.2,169.9v2.8l1-0.3v1.8l-1,0.3v3.4l1-0.3v1.8l-1,0.3v3.1h-0.5v-3l-1.9,0.6v3h-0.5v-2.8l-1,0.3v-1.8l1-0.3v-3.4l-1,0.3
		V174l1-0.3v-3.1h0.5v3l1.9-0.6v-3H340.2z M339.7,174.7l-1.9,0.6v3.4l1.9-0.6V174.7z"/>
</g>
<rect x="360.9" y="177.5" width="0.5" height="19.2"/>
<g>
	<path d="M361,177.6c0-1.8,2.5-3.5,4.5-3.5c1.3,0,2.3,0.7,2.3,1.7c0,1.7-2.5,3.5-4.6,3.5C361.9,179.3,361,178.7,361,177.6z"/>
</g>
<g>
	<path d="M359,183.5v-4l-3,1.1v-10.7h0.5v4l3-1.1v10.7H359z M356.5,178.8l2.5-0.9v-3.3l-2.5,0.9V178.8z"/>
</g>
<rect x="379.2" y="180" width="0.5" height="17.2"/>
<g>
	<path d="M379.3,180c0-1.8,2.5-3.5,4.5-3.5c1.3,0,2.3,0.7,2.3,1.7c0,1.7-2.5,3.5-4.6,3.5C380.2,181.8,379.3,181.1,379.3,180z"/>
</g>
<g>
	<path d="M376.8,172.4v2.8l1-0.3v1.8l-1,0.3v3.4l1-0.3v1.8l-1,0.3v3.1h-0.5v-3l-1.9,0.6v3h-0.5v-2.8l-1,0.3v-1.8l1-0.3v-3.4l-1,0.3
		v-1.8l1-0.3V173h0.5v3l1.9-0.6v-3H376.8z M376.3,177.2l-1.9,0.6v3.4l1.9-0.6V177.2z"/>
</g>
<rect x="397.5" y="180" width="0.5" height="17.7"/>
<g>
	<path d="M397.5,180c0-1.8,2.5-3.5,4.5-3.5c1.3,0,2.3,0.7,2.3,1.7c0,1.7-2.5,3.5-4.6,3.5C398.5,181.8,397.5,181.1,397.5,180z"/>
</g>
<g>
	<path d="M395.6,186v-4l-3,1.1v-10.7h0.5v4l3-1.1V186H395.6z M393.1,181.3l2.5-0.9v-3.3l-2.5,0.9V181.3z"/>
</g>
<rect x="415.8" y="182.4" width="0.5" height="20.2"/>
<g>
	<path d="M415.8,182.5c0-1.8,2.5-3.5,4.5-3.5c1.3,0,2.3,0.7,2.3,1.7c0,1.7-2.5,3.5-4.6,3.5C416.8,184.3,415.8,183.6,415.8,182.5z"/>
</g>
<g>
	<path d="M413.4,174.9v2.8l1-0.3v1.8l-1,0.3v3.4l1-0.3v1.8l-1,0.3v3.1h-0.5v-3l-1.9,0.6v3h-0.5v-2.8l-1,0.3v-1.8l1-0.3v-3.4l-1,0.3
		v-1.8l1-0.3v-3.1h0.5v3l1.9-0.6v-3H413.4z M412.9,179.6l-1.9,0.6v3.4l1.9-0.6V179.6z"/>
</g>
<rect x="434.1" y="182.4" width="0.5" height="20.9"/>
<g>
	<path d="M434.1,182.5c0-1.8,2.5-3.5,4.5-3.5c1.3,0,2.3,0.7,2.3,1.7c0,1.7-2.5,3.5-4.6,3.5C435.1,184.3,434.1,183.6,434.1,182.5z"/>
</g>
<g>
	<path d="M432.2,188.4v-4l-3,1.1v-10.7h0.5v4l3-1.1v10.7H432.2z M429.7,183.8l2.5-0.9v-3.3l-2.5,0.9V183.8z"/>
</g>
<rect x="452.5" y="184.9" width="0.5" height="19.2"/>
<g>
	<path d="M452.6,185c0-1.8,2.5-3.5,4.5-3.5c1.3,0,2.3,0.7,2.3,1.7c0,1.7-2.5,3.5-4.6,3.5C453.5,186.7,452.6,186.1,452.6,185z"/>
</g>
<rect x="470.8" y="187.4" width="0.5" height="17.7"/>
<g>
	<path d="M470.9,187.5c0-1.8,2.5-3.5,4.5-3.5c1.3,0,2.3,0.7,2.3,1.7c0,1.7-2.5,3.5-4.6,3.5C471.8,189.2,470.9,188.6,470.9,187.5z"/>
</g>
<g>
	<path d="M468.4,179.8v2.8l1-0.3v1.8l-1,0.3v3.4l1-0.3v1.8l-1,0.3v3.1h-0.5v-3l-1.9,0.6v3h-0.5v-2.8l-1,0.3v-1.8l1-0.3v-3.4l-1,0.3
		v-1.8l1-0.3v-3.1h0.5v3l1.9-0.6v-3H468.4z M467.9,184.6l-1.9,0.6v3.4l1.9-0.6V184.6z"/>
</g>
<rect x="489.1" y="187.4" width="0.5" height="16.6"/>
<g>
	<path d="M493.4,183.9c1.6,0,2.7,0.7,2.7,2c0,1.9-2.3,3.4-4.5,3.4c-1.3,0-2.4-0.7-2.4-1.8C489.2,185.7,491.4,183.9,493.4,183.9z
		 M489.6,187.8c0,0.6,0.4,0.9,1.1,0.9c1.4,0,4.9-2.1,4.9-3.3c0-0.6-0.4-0.9-1.1-0.9C493.3,184.5,489.6,186.6,489.6,187.8z"/>
</g>
<g>
	<path d="M487.2,193.4v-4l-3,1.1v-10.7h0.5v4l3-1.1v10.7H487.2z M484.7,188.7l2.5-0.9v-3.3l-2.5,0.9V188.7z"/>
</g>
</svg>
