<?xml version="1.0" encoding="utf-8"?>

<!--
	ScaleBook
	Copyright (c) Leland Jansen 2015. All rights reserved.
-->

<!DOCTYPE svg PUBLIC "-//W3C//DTD SVG 1.1//EN" "http://www.w3.org/Graphics/SVG/1.1/DTD/svg11.dtd">
<svg version="1.1" id="Layer_1" xmlns="http://www.w3.org/2000/svg" xmlns:xlink="http://www.w3.org/1999/xlink" x="0px" y="0px"
	 viewBox="0 0 553 204.8" enable-background="new 0 0 553 204.8" xml:space="preserve">
<rect x="8.4" y="15.8" width="0.8" height="67"/>
<g>
	<path d="M7.4,16.4c-1.9,1.1-3.6,5.8-3.6,9.4c0,2.3,1.4,9.9,1.4,12.3c0,5-1.5,8.6-4.6,11.1c3,2.4,4.6,6.1,4.6,11.1
		c0,2.3-1.4,9.9-1.4,12.3c0,3.8,1.7,8.4,3.6,9.5v0.7c-3.5-2.3-5.8-8.2-5.8-13.1c0-2.1,1.7-9.4,1.7-11.5c0-3.8-1-6.6-2.9-8.2
		C0.1,49.6,0,49.4,0,49.2c0-0.2,0.1-0.4,0.5-0.7c1.9-1.7,2.9-4.2,2.9-7.6c0-2.1-1.7-10-1.7-12.2c0-5.2,2.1-10.4,5.8-13.1V16.4z"/>
</g>
<rect x="8.4" y="128.6" width="0.8" height="67"/>
<g>
	<path d="M7.4,129.3c-1.9,1.1-3.6,5.8-3.6,9.4c0,2.3,1.4,9.9,1.4,12.3c0,5-1.5,8.6-4.6,11.1c3,2.4,4.6,6.1,4.6,11.1
		c0,2.3-1.4,9.9-1.4,12.3c0,3.8,1.7,8.4,3.6,9.5v0.7c-3.5-2.3-5.8-8.2-5.8-13.1c0-2.1,1.7-9.4,1.7-11.5c0-3.8-1-6.6-2.9-8.2
		c-0.3-0.3-0.5-0.5-0.5-0.7c0-0.2,0.1-0.4,0.5-0.7c1.9-1.7,2.9-4.2,2.9-7.6c0-2.1-1.7-10-1.7-12.2c0-5.2,2.1-10.4,5.8-13.1V129.3z"
		/>
</g>
<rect x="552.2" y="15.8" width="0.8" height="67"/>
<rect x="547.8" y="128.6" width="0.8" height="67"/>
<rect x="550.4" y="128.6" width="2.5" height="67"/>
<rect x="8.5" y="35.4" width="544.4" height="0.5"/>
<rect x="8.5" y="30.4" width="544.4" height="0.5"/>
<rect x="8.5" y="25.4" width="544.4" height="0.5"/>
<rect x="8.5" y="20.5" width="544.4" height="0.5"/>
<rect x="8.5" y="15.5" width="544.4" height="0.5"/>
<g>
	<path d="M20.3,35.4c-4.2,0-8.1-3.1-8.1-6.9c0-3.2,2.3-6.7,6.8-10.5c-0.3-1.2-0.4-2.4-0.4-3.6c0-3.5,1.2-6.8,3.2-8.5
		c1.8,2.5,2.7,4.9,2.7,7.1c0,2.9-1.3,5.6-4.3,8.1l0.9,4.2c0.5,0,0.8-0.1,0.8-0.1c2.6,0,4.8,2,4.8,4.7c0,1.9-1.4,3.7-3.6,4.8
		c0-0.1,0.9,3.8,0.9,4.3c0,2.5-2.3,4.2-4.9,4.2c-2,0-3.6-1.3-3.6-3.4c0-1.4,1-2.6,2.4-2.6c1.3,0,2.3,1.3,2.3,2.5
		c0,1.4-1.2,2.3-2.7,2.5c0.6,0.3,1.2,0.5,1.9,0.5c2.1,0,4.1-1.6,4.1-3.6c0-0.2,0-0.4-0.1-0.6L22.6,35C21.9,35.3,21.2,35.4,20.3,35.4
		z M18.1,30.2c0,1,0.5,1.9,1.6,2.5c-1.8-0.3-3-1.4-3-3.1c0-2,1.7-3.7,3.8-4.1l-0.8-4C16,24.3,14,27,14,29.7c0,2.9,2.8,5.3,6,5.3
		c0.9,0,1.7-0.2,2.4-0.5L21,27.6C19.4,27.8,18.1,28.8,18.1,30.2z M22.1,8.9c-1.6,0-2.9,3.7-2.9,7c0,0.7,0,1.3,0.2,1.9
		c2.7-2.4,4-4.5,4-6.5c0-0.9-0.3-1.7-1-2.4C22.4,8.9,22.3,8.9,22.1,8.9z M24.9,30.8c0-1.6-1.2-3.3-2.9-3.3c-0.1,0-0.2,0-0.5,0
		l1.4,6.6C24.2,33.2,24.9,32.1,24.9,30.8z"/>
</g>
<polygon fill-rule="evenodd" clip-rule="evenodd" points="43.6,26.9 106.7,25.7 106.7,23.2 43.6,24.4 "/>
<polygon fill-rule="evenodd" clip-rule="evenodd" points="43.6,23.2 106.7,22 106.7,19.5 43.6,20.7 "/>
<polygon fill-rule="evenodd" clip-rule="evenodd" points="127.8,22 190.9,17 190.9,14.5 127.8,19.5 "/>
<polygon fill-rule="evenodd" clip-rule="evenodd" points="127.8,18.2 190.9,13.3 190.9,10.8 127.8,15.8 "/>
<polygon fill-rule="evenodd" clip-rule="evenodd" points="205.5,40.6 268.6,38.1 268.6,35.6 205.5,38.1 "/>
<polygon fill-rule="evenodd" clip-rule="evenodd" points="205.5,44.3 268.6,41.8 268.6,39.3 205.5,41.8 "/>
<polygon fill-rule="evenodd" clip-rule="evenodd" points="300.7,33.1 363.8,31.9 363.8,29.4 300.7,30.6 "/>
<polygon fill-rule="evenodd" clip-rule="evenodd" points="300.7,36.8 363.8,35.6 363.8,33.1 300.7,34.4 "/>
<polygon fill-rule="evenodd" clip-rule="evenodd" points="384.7,27.2 447.9,26.6 447.9,24.1 384.7,24.7 "/>
<polygon fill-rule="evenodd" clip-rule="evenodd" points="384.7,30.9 447.9,30.3 447.9,27.8 384.7,28.5 "/>
<polygon fill-rule="evenodd" clip-rule="evenodd" points="468.9,23.2 531.9,22 531.9,19.5 468.9,20.7 "/>
<polygon fill-rule="evenodd" clip-rule="evenodd" points="468.9,26.9 531.9,25.7 531.9,23.2 468.9,24.4 "/>
<rect x="8.5" y="82.5" width="544.4" height="0.5"/>
<rect x="8.5" y="77.5" width="544.4" height="0.5"/>
<rect x="8.5" y="72.6" width="544.4" height="0.5"/>
<rect x="8.5" y="67.6" width="544.4" height="0.5"/>
<rect x="8.5" y="62.6" width="544.4" height="0.5"/>
<g>
	<path d="M15.7,77.1c2.9-2.6,4.7-6.1,4.7-9.2c0-2.5-1.4-4.4-3.7-4.4c-1.6,0-3.4,1.3-3.4,2.7c0,0.2,0,0.3,0.1,0.3
		c-0.1,0,0.6-0.6,1.4-0.6c0.9,0,1.5,0.8,1.5,1.7c0,1.2-0.9,2.2-2.1,2.2c-1.2,0-2.1-1.3-2.1-2.8c0-2.3,2.3-4.1,4.8-4.1
		c4.7,0,5.9,3.2,5.9,5.8c0,1.6-0.4,2.9-2,5.3c-1.9,3.1-6.4,5.3-8.1,5.3c-0.4,0-0.6-0.2-0.6-0.5C13.8,78.3,14.9,77.8,15.7,77.1z
		 M25.7,64.4c0.6,0,1,0.4,1,1c0,0.6-0.4,1-1,1s-1-0.4-1-1C24.7,64.8,25.1,64.4,25.7,64.4z M25.7,69.3c0.6,0,1,0.4,1,1
		c0,0.6-0.4,1-1,1s-1-0.4-1-1C24.7,69.7,25.1,69.3,25.7,69.3z"/>
</g>
<polygon fill-rule="evenodd" clip-rule="evenodd" points="37.1,85.2 100.2,84 100.2,81.5 37.1,82.7 "/>
<polygon fill-rule="evenodd" clip-rule="evenodd" points="37.1,88.9 100.2,87.7 100.2,85.2 37.1,86.4 "/>
<polygon fill-rule="evenodd" clip-rule="evenodd" points="121.3,79.3 184.4,78.7 184.4,76.2 121.3,76.8 "/>
<polygon fill-rule="evenodd" clip-rule="evenodd" points="121.3,83 184.4,82.4 184.4,79.9 121.3,80.5 "/>
<g>
	<path d="M288.8,81.4c-3.2,0-6.1-2.3-6.1-5.1c0-2.4,1.7-5,5.1-7.9c-0.2-0.9-0.3-1.8-0.3-2.7c0-2.6,0.9-5.1,2.4-6.3
		c1.4,1.9,2,3.7,2,5.3c0,2.2-1,4.2-3.2,6.1l0.7,3.1c0.4,0,0.6,0,0.6,0c2,0,3.6,1.5,3.6,3.5c0,1.4-1.1,2.8-2.7,3.6
		c0-0.1,0.6,2.8,0.6,3.3c0,1.9-1.7,3.2-3.7,3.2c-1.5,0-2.7-1-2.7-2.5c0-1.1,0.7-1.9,1.8-1.9c1,0,1.7,1,1.7,1.9c0,1-0.9,1.7-2,1.8
		c0.4,0.2,0.9,0.3,1.4,0.3c1.6,0,3.1-1.2,3.1-2.7c0-0.1,0-0.3,0-0.5l-0.6-2.8C290,81.3,289.5,81.4,288.8,81.4z M287.1,77.4
		c0,0.8,0.4,1.4,1.2,1.9c-1.3-0.2-2.2-1.1-2.2-2.3c0-1.5,1.3-2.8,2.9-3.1l-0.6-3c-2.8,2.1-4.3,4.1-4.3,6.1c0,2.2,2.1,4,4.5,4
		c0.7,0,1.3-0.1,1.8-0.4l-1.1-5.1C288.1,75.7,287.1,76.4,287.1,77.4z M290.1,61.4c-1.2,0-2.2,2.8-2.2,5.3c0,0.5,0,1,0.1,1.4
		c2-1.8,3-3.4,3-4.9c0-0.7-0.3-1.3-0.7-1.8C290.3,61.4,290.3,61.4,290.1,61.4z M292.2,77.8c0-1.2-0.9-2.4-2.2-2.4c0,0-0.2,0-0.4,0
		l1.1,5C291.7,79.7,292.2,78.8,292.2,77.8z"/>
</g>
<polygon fill-rule="evenodd" clip-rule="evenodd" points="205.5,74.3 268.6,73.7 268.6,71.2 205.5,71.9 "/>
<polygon fill-rule="evenodd" clip-rule="evenodd" points="205.5,78.1 268.6,77.4 268.6,75 205.5,75.6 "/>
<polygon fill-rule="evenodd" clip-rule="evenodd" points="307.2,74 370.3,72.8 370.3,70.3 307.2,71.6 "/>
<polygon fill-rule="evenodd" clip-rule="evenodd" points="307.2,70.3 370.3,69.1 370.3,66.6 307.2,67.8 "/>
<polygon fill-rule="evenodd" clip-rule="evenodd" points="391.2,69.1 454.4,64.1 454.4,61.6 391.2,66.6 "/>
<polygon fill-rule="evenodd" clip-rule="evenodd" points="391.2,65.4 454.4,60.4 454.4,57.9 391.2,62.9 "/>
<polygon fill-rule="evenodd" clip-rule="evenodd" points="468.9,87.7 531.9,85.2 531.9,82.7 468.9,85.2 "/>
<polygon fill-rule="evenodd" clip-rule="evenodd" points="468.9,91.4 531.9,88.9 531.9,86.4 468.9,88.9 "/>
<rect x="8.5" y="148.2" width="544.4" height="0.5"/>
<rect x="8.5" y="143.2" width="544.4" height="0.5"/>
<rect x="8.5" y="138.3" width="544.4" height="0.5"/>
<rect x="8.5" y="133.3" width="544.4" height="0.5"/>
<rect x="8.5" y="128.4" width="544.4" height="0.5"/>
<g>
	<path d="M20.3,148.3c-4.2,0-8.1-3.1-8.1-6.9c0-3.2,2.3-6.7,6.8-10.5c-0.3-1.2-0.4-2.4-0.4-3.6c0-3.5,1.2-6.8,3.2-8.5
		c1.8,2.5,2.7,4.9,2.7,7.1c0,2.9-1.3,5.6-4.3,8.1l0.9,4.2c0.5,0,0.8-0.1,0.8-0.1c2.6,0,4.8,2,4.8,4.7c0,1.9-1.4,3.7-3.6,4.8
		c0-0.1,0.9,3.8,0.9,4.3c0,2.5-2.3,4.2-4.9,4.2c-2,0-3.6-1.3-3.6-3.4c0-1.4,1-2.6,2.4-2.6c1.3,0,2.3,1.3,2.3,2.5
		c0,1.4-1.2,2.3-2.7,2.5c0.6,0.3,1.2,0.5,1.9,0.5c2.1,0,4.1-1.6,4.1-3.6c0-0.2,0-0.4-0.1-0.6l-0.8-3.7
		C21.9,148.1,21.2,148.3,20.3,148.3z M18.1,143.1c0,1,0.5,1.9,1.6,2.5c-1.8-0.3-3-1.4-3-3.1c0-2,1.7-3.7,3.8-4.1l-0.8-4
		c-3.7,2.8-5.7,5.5-5.7,8.1c0,2.9,2.8,5.3,6,5.3c0.9,0,1.7-0.2,2.4-0.5l-1.4-6.8C19.4,140.7,18.1,141.7,18.1,143.1z M22.1,121.7
		c-1.6,0-2.9,3.7-2.9,7c0,0.7,0,1.3,0.2,1.9c2.7-2.4,4-4.5,4-6.5c0-0.9-0.3-1.7-1-2.4C22.4,121.7,22.3,121.7,22.1,121.7z
		 M24.9,143.6c0-1.6-1.2-3.3-2.9-3.3c-0.1,0-0.2,0-0.5,0l1.4,6.6C24.2,146.1,24.9,144.9,24.9,143.6z"/>
</g>
<rect x="38.4" y="132.3" fill-rule="evenodd" clip-rule="evenodd" width="54.7" height="2.5"/>
<rect x="38.4" y="136" fill-rule="evenodd" clip-rule="evenodd" width="54.7" height="2.5"/>
<polygon fill-rule="evenodd" clip-rule="evenodd" points="111.4,139.8 166.1,141 166.1,138.5 111.4,137.3 "/>
<polygon fill-rule="evenodd" clip-rule="evenodd" points="111.4,143.5 166.1,144.7 166.1,142.2 111.4,141 "/>
<polygon fill-rule="evenodd" clip-rule="evenodd" points="184.4,144.4 239.1,145 239.1,142.5 184.4,141.9 "/>
<polygon fill-rule="evenodd" clip-rule="evenodd" points="184.4,148.1 239.1,148.7 239.1,146.3 184.4,145.6 "/>
<rect x="270.6" y="148.4" fill-rule="evenodd" clip-rule="evenodd" width="54.7" height="2.5"/>
<rect x="270.6" y="152.2" fill-rule="evenodd" clip-rule="evenodd" width="54.7" height="2.5"/>
<polygon fill-rule="evenodd" clip-rule="evenodd" points="350.1,128.6 404.8,129.8 404.8,127.4 350.1,126.1 "/>
<polygon fill-rule="evenodd" clip-rule="evenodd" points="350.1,124.9 404.8,126.1 404.8,123.6 350.1,122.4 "/>
<polygon fill-rule="evenodd" clip-rule="evenodd" points="423,134.8 477.8,139.8 477.8,137.3 423,132.3 "/>
<polygon fill-rule="evenodd" clip-rule="evenodd" points="423,131.1 477.8,136 477.8,133.6 423,128.6 "/>
<rect x="8.5" y="195.3" width="544.4" height="0.5"/>
<rect x="8.5" y="190.4" width="544.4" height="0.5"/>
<rect x="8.5" y="185.4" width="544.4" height="0.5"/>
<rect x="8.5" y="180.4" width="544.4" height="0.5"/>
<rect x="8.5" y="175.5" width="544.4" height="0.5"/>
<g>
	<path d="M20.3,195.4c-4.2,0-8.1-3.1-8.1-6.9c0-3.2,2.3-6.7,6.8-10.5c-0.3-1.2-0.4-2.4-0.4-3.6c0-3.5,1.2-6.8,3.2-8.5
		c1.8,2.5,2.7,4.9,2.7,7.1c0,2.9-1.3,5.6-4.3,8.1l0.9,4.2c0.5,0,0.8-0.1,0.8-0.1c2.6,0,4.8,2,4.8,4.7c0,1.9-1.4,3.7-3.6,4.8
		c0-0.1,0.9,3.8,0.9,4.3c0,2.5-2.3,4.2-4.9,4.2c-2,0-3.6-1.3-3.6-3.4c0-1.4,1-2.6,2.4-2.6c1.3,0,2.3,1.3,2.3,2.5
		c0,1.4-1.2,2.3-2.7,2.5c0.6,0.3,1.2,0.5,1.9,0.5c2.1,0,4.1-1.6,4.1-3.6c0-0.2,0-0.4-0.1-0.6l-0.8-3.7
		C21.9,195.3,21.2,195.4,20.3,195.4z M18.1,190.2c0,1,0.5,1.9,1.6,2.5c-1.8-0.3-3-1.4-3-3.1c0-2,1.7-3.7,3.8-4.1l-0.8-4
		c-3.7,2.8-5.7,5.5-5.7,8.1c0,2.9,2.8,5.3,6,5.3c0.9,0,1.7-0.2,2.4-0.5l-1.4-6.8C19.4,187.8,18.1,188.8,18.1,190.2z M22.1,168.8
		c-1.6,0-2.9,3.7-2.9,7c0,0.7,0,1.3,0.2,1.9c2.7-2.4,4-4.5,4-6.5c0-0.9-0.3-1.7-1-2.4C22.4,168.9,22.3,168.8,22.1,168.8z
		 M24.9,190.7c0-1.6-1.2-3.3-2.9-3.3c-0.1,0-0.2,0-0.5,0l1.4,6.6C24.2,193.2,24.9,192,24.9,190.7z"/>
</g>
<rect x="38.4" y="195.6" fill-rule="evenodd" clip-rule="evenodd" width="54.7" height="2.5"/>
<rect x="38.4" y="199.3" fill-rule="evenodd" clip-rule="evenodd" width="54.7" height="2.5"/>
<polygon fill-rule="evenodd" clip-rule="evenodd" points="117.9,175.7 172.6,177 172.6,174.5 117.9,173.2 "/>
<polygon fill-rule="evenodd" clip-rule="evenodd" points="117.9,172 172.6,173.2 172.6,170.8 117.9,169.5 "/>
<g>
	<path d="M254,187.6c2.2-2,3.6-4.6,3.6-6.9c0-1.9-1.1-3.3-2.8-3.3c-1.2,0-2.5,1-2.5,2.1c0,0.2,0,0.2,0.1,0.2c0,0,0.4-0.5,1-0.5
		c0.7,0,1.2,0.6,1.2,1.3c0,0.9-0.6,1.7-1.6,1.7c-0.9,0-1.5-1-1.5-2.1c0-1.8,1.7-3.1,3.6-3.1c3.5,0,4.4,2.4,4.4,4.4
		c0,1.2-0.3,2.2-1.5,4c-1.4,2.3-4.8,4-6,4c-0.3,0-0.5-0.1-0.5-0.3C252.6,188.6,253.4,188.1,254,187.6z M261.5,178.1
		c0.4,0,0.7,0.3,0.7,0.7c0,0.4-0.3,0.7-0.7,0.7s-0.7-0.3-0.7-0.7C260.7,178.4,261.1,178.1,261.5,178.1z M261.5,181.8
		c0.4,0,0.7,0.3,0.7,0.7s-0.3,0.7-0.7,0.7s-0.7-0.3-0.7-0.7S261.1,181.8,261.5,181.8z"/>
</g>
<polygon fill-rule="evenodd" clip-rule="evenodd" points="190.9,181.9 245.6,186.9 245.6,184.4 190.9,179.4 "/>
<polygon fill-rule="evenodd" clip-rule="evenodd" points="190.9,178.2 245.6,183.2 245.6,180.7 190.9,175.7 "/>
<rect x="270.6" y="184.4" fill-rule="evenodd" clip-rule="evenodd" width="54.7" height="2.5"/>
<rect x="270.6" y="188.1" fill-rule="evenodd" clip-rule="evenodd" width="54.7" height="2.5"/>
<polygon fill-rule="evenodd" clip-rule="evenodd" points="343.6,191.8 398.3,193.1 398.3,190.6 343.6,189.4 "/>
<polygon fill-rule="evenodd" clip-rule="evenodd" points="343.6,195.6 398.3,196.8 398.3,194.3 343.6,193.1 "/>
<polygon fill-rule="evenodd" clip-rule="evenodd" points="416.5,198 471.3,200.5 471.3,198 416.5,195.6 "/>
<polygon fill-rule="evenodd" clip-rule="evenodd" points="416.5,201.8 471.3,204.2 471.3,201.8 416.5,199.3 "/>
<rect x="43.4" y="20.9" width="0.5" height="16.4"/>
<g>
	<path d="M37,38.9c0-1.8,2.5-3.5,4.5-3.5c1.3,0,2.3,0.7,2.3,1.7c0,1.7-2.5,3.5-4.6,3.5C38,40.7,37,40,37,38.9z"/>
</g>
<g>
	<path d="M31.1,29.8h0.6L31.6,36c0.4-0.7,1-1,1.8-1c1.2,0,2.2,0.8,2.2,1.9c0,0.8-0.5,1.8-1.7,2.7l-2.8,2.1V29.8z M31.7,36.7
		c-0.1,0.8-0.1,1.4-0.1,1.9c0,1,0,1.6,0.1,2c1-0.7,2.4-2.6,2.4-3.7c0-0.6-0.5-1.1-1.1-1.1C32.4,35.8,32,36.1,31.7,36.7z"/>
</g>
<rect x="64.5" y="20.6" width="0.5" height="16.7"/>
<g>
	<path d="M58.1,38.9c0-1.8,2.5-3.5,4.5-3.5c1.3,0,2.3,0.7,2.3,1.7c0,1.7-2.5,3.5-4.6,3.5C59,40.7,58.1,40,58.1,38.9z"/>
</g>
<g>
	<path d="M56.1,44.8v-4l-3,1.1V31.3h0.5v4l3-1.1v10.7H56.1z M53.6,40.2l2.5-0.9v-3.3l-2.5,0.9V40.2z"/>
</g>
<rect x="85.4" y="20.1" width="0.5" height="14.7"/>
<g>
	<path d="M79,36.4c0-1.8,2.5-3.5,4.5-3.5c1.3,0,2.3,0.7,2.3,1.7c0,1.7-2.5,3.5-4.6,3.5C80,38.2,79,37.5,79,36.4z"/>
</g>
<g>
	<path d="M73.1,27.3h0.6l-0.1,6.2c0.4-0.7,1-1,1.8-1c1.2,0,2.2,0.8,2.2,1.9c0,0.8-0.5,1.8-1.7,2.7l-2.8,2.1V27.3z M73.7,34.2
		c-0.1,0.8-0.1,1.4-0.1,1.9c0,1,0,1.6,0.1,2c1-0.7,2.4-2.6,2.4-3.7c0-0.6-0.5-1.1-1.1-1.1C74.4,33.4,74,33.6,73.7,34.2z"/>
</g>
<rect x="106.5" y="19.6" width="0.5" height="15.2"/>
<g>
	<path d="M100.1,36.4c0-1.8,2.5-3.5,4.5-3.5c1.3,0,2.3,0.7,2.3,1.7c0,1.7-2.5,3.5-4.6,3.5C101,38.2,100.1,37.5,100.1,36.4z"/>
</g>
<g>
	<path d="M98.1,42.4v-4l-3,1.1V28.8h0.5v4l3-1.1v10.7H98.1z M95.6,37.7l2.5-0.9v-3.3l-2.5,0.9V37.7z"/>
</g>
<rect x="127.6" y="15.9" width="0.5" height="16.4"/>
<g>
	<path d="M121.2,34c0-1.8,2.5-3.5,4.5-3.5c1.3,0,2.3,0.7,2.3,1.7c0,1.7-2.5,3.5-4.6,3.5C122.1,35.7,121.2,35.1,121.2,34z"/>
</g>
<rect x="148.5" y="14.4" width="0.5" height="15.5"/>
<g>
	<path d="M142.1,31.5c0-1.8,2.5-3.5,4.5-3.5c1.3,0,2.3,0.7,2.3,1.7c0,1.7-2.5,3.5-4.6,3.5C143.1,33.2,142.1,32.6,142.1,31.5z"/>
</g>
<g>
	<path d="M136.2,22.3h0.6l-0.1,6.2c0.4-0.7,1-1,1.8-1c1.2,0,2.2,0.8,2.2,1.9c0,0.8-0.5,1.8-1.7,2.7l-2.8,2.1V22.3z M136.8,29.2
		c-0.1,0.8-0.1,1.4-0.1,1.9c0,1,0,1.6,0.1,2c1-0.7,2.4-2.6,2.4-3.7c0-0.6-0.5-1.1-1.1-1.1C137.5,28.4,137.1,28.7,136.8,29.2z"/>
</g>
<rect x="169.6" y="12.7" width="0.5" height="17.2"/>
<g>
	<path d="M163.2,31.5c0-1.8,2.5-3.5,4.5-3.5c1.3,0,2.3,0.7,2.3,1.7c0,1.7-2.5,3.5-4.6,3.5C164.1,33.2,163.2,32.6,163.2,31.5z"/>
</g>
<g>
	<path d="M161.2,37.4v-4l-3,1.1V23.8h0.5v4l3-1.1v10.7H161.2z M158.7,32.7l2.5-0.9v-3.3l-2.5,0.9V32.7z"/>
</g>
<rect x="190.7" y="10.9" width="0.5" height="16.4"/>
<g>
	<path d="M184.2,29c0-1.8,2.5-3.5,4.5-3.5c1.3,0,2.3,0.7,2.3,1.7c0,1.7-2.5,3.5-4.6,3.5C185.2,30.7,184.2,30.1,184.2,29z"/>
</g>
<g>
	<path d="M178.4,19.8h0.6l-0.1,6.2c0.4-0.7,1-1,1.8-1c1.2,0,2.2,0.8,2.2,1.9c0,0.8-0.5,1.8-1.7,2.7l-2.8,2.1V19.8z M178.9,26.7
		c-0.1,0.8-0.1,1.4-0.1,1.9c0,1,0,1.6,0.1,2c1-0.7,2.4-2.6,2.4-3.7c0-0.6-0.5-1.1-1.1-1.1C179.6,25.9,179.2,26.2,178.9,26.7z"/>
</g>
<rect x="205.3" y="28.9" width="0.5" height="15.2"/>
<g>
	<path d="M205.3,29c0-1.8,2.5-3.5,4.5-3.5c1.3,0,2.3,0.7,2.3,1.7c0,1.7-2.5,3.5-4.6,3.5C206.3,30.7,205.3,30.1,205.3,29z"/>
</g>
<g>
	<path d="M203.4,34.9v-4l-3,1.1V21.3h0.5v4l3-1.1v10.7H203.4z M200.9,30.3l2.5-0.9V26l-2.5,0.9V30.3z"/>
</g>
<rect x="226.2" y="26.4" width="0.5" height="16.9"/>
<g>
	<path d="M226.3,26.5c0-1.8,2.5-3.5,4.5-3.5c1.3,0,2.3,0.7,2.3,1.7c0,1.7-2.5,3.5-4.6,3.5C227.2,28.3,226.3,27.6,226.3,26.5z"/>
</g>
<g>
	<path d="M220.4,17.4h0.6l-0.1,6.2c0.4-0.7,1-1,1.8-1c1.2,0,2.2,0.8,2.2,1.9c0,0.8-0.5,1.8-1.7,2.7l-2.8,2.1V17.4z M220.9,24.3
		c-0.1,0.8-0.1,1.4-0.1,1.9c0,1,0,1.6,0.1,2c1-0.7,2.4-2.6,2.4-3.7c0-0.6-0.5-1.1-1.1-1.1C221.7,23.4,221.2,23.7,220.9,24.3z"/>
</g>
<rect x="247.3" y="26.4" width="0.5" height="16.1"/>
<g>
	<path d="M247.3,26.5c0-1.8,2.5-3.5,4.5-3.5c1.3,0,2.3,0.7,2.3,1.7c0,1.7-2.5,3.5-4.6,3.5C248.3,28.3,247.3,27.6,247.3,26.5z"/>
</g>
<g>
	<path d="M245.4,32.4v-4l-3,1.1V18.9h0.5v4l3-1.1v10.7H245.4z M242.9,27.8l2.5-0.9v-3.3l-2.5,0.9V27.8z"/>
</g>
<rect x="268.3" y="24" width="0.5" height="17.7"/>
<g>
	<path d="M268.4,24c0-1.8,2.5-3.5,4.5-3.5c1.3,0,2.3,0.7,2.3,1.7c0,1.7-2.5,3.5-4.6,3.5C269.4,25.8,268.4,25.1,268.4,24z"/>
</g>
<rect x="300.4" y="21.5" width="0.5" height="15.2"/>
<g>
	<path d="M300.5,21.6c0-1.8,2.5-3.5,4.5-3.5c1.3,0,2.3,0.7,2.3,1.7c0,1.7-2.5,3.5-4.6,3.5C301.5,23.3,300.5,22.7,300.5,21.6z"/>
</g>
<g>
	<path d="M294.6,12.4h0.6l-0.1,6.2c0.4-0.7,1-1,1.8-1c1.2,0,2.2,0.8,2.2,1.9c0,0.8-0.5,1.8-1.7,2.7l-2.8,2.1V12.4z M295.2,19.3
		c-0.1,0.8-0.1,1.4-0.1,1.9c0,1,0,1.6,0.1,2c1-0.7,2.4-2.6,2.4-3.7c0-0.6-0.5-1.1-1.1-1.1C295.9,18.5,295.5,18.7,295.2,19.3z"/>
</g>
<rect x="321.4" y="21.5" width="0.5" height="14.9"/>
<g>
	<path d="M321.4,21.6c0-1.8,2.5-3.5,4.5-3.5c1.3,0,2.3,0.7,2.3,1.7c0,1.7-2.5,3.5-4.6,3.5C322.4,23.3,321.4,22.7,321.4,21.6z"/>
</g>
<g>
	<path d="M319.5,27.5v-4l-3,1.1V13.9h0.5v4l3-1.1v10.7H319.5z M317,22.8l2.5-0.9v-3.3l-2.5,0.9V22.8z"/>
</g>
<rect x="342.4" y="19" width="0.5" height="16.9"/>
<g>
	<path d="M342.5,19.1c0-1.8,2.5-3.5,4.5-3.5c1.3,0,2.3,0.7,2.3,1.7c0,1.7-2.5,3.5-4.6,3.5C343.5,20.8,342.5,20.2,342.5,19.1z"/>
</g>
<g>
	<path d="M336.6,9.9h0.6l-0.1,6.2c0.4-0.7,1-1,1.8-1c1.2,0,2.2,0.8,2.2,1.9c0,0.8-0.5,1.8-1.7,2.7l-2.8,2.1V9.9z M337.2,16.8
		c-0.1,0.8-0.1,1.4-0.1,1.9c0,1,0,1.6,0.1,2c1-0.7,2.4-2.6,2.4-3.7c0-0.6-0.5-1.1-1.1-1.1C337.9,16,337.5,16.3,337.2,16.8z"/>
</g>
<rect x="363.5" y="19" width="0.5" height="16.4"/>
<g>
	<path d="M363.6,19.1c0-1.8,2.5-3.5,4.5-3.5c1.3,0,2.3,0.7,2.3,1.7c0,1.7-2.5,3.5-4.6,3.5C364.6,20.8,363.6,20.2,363.6,19.1z"/>
</g>
<g>
	<path d="M361.7,25v-4l-3,1.1V11.4h0.5v4l3-1.1V25H361.7z M359.1,20.3l2.5-0.9v-3.3l-2.5,0.9V20.3z"/>
</g>
<rect x="384.4" y="16.5" width="0.5" height="14.3"/>
<g>
	<path d="M384.5,16.6c0-1.8,2.5-3.5,4.5-3.5c1.3,0,2.3,0.7,2.3,1.7c0,1.7-2.5,3.5-4.6,3.5C385.5,18.3,384.5,17.7,384.5,16.6z"/>
</g>
<rect x="405.5" y="14" width="0.5" height="16.6"/>
<g>
	<path d="M405.6,14.1c0-1.8,2.5-3.5,4.5-3.5c1.3,0,2.3,0.7,2.3,1.7c0,1.7-2.5,3.5-4.6,3.5C406.6,15.9,405.6,15.2,405.6,14.1z"/>
</g>
<g>
	<path d="M399.7,5h0.6l-0.1,6.2c0.4-0.7,1-1,1.8-1c1.2,0,2.2,0.8,2.2,1.9c0,0.8-0.5,1.8-1.7,2.7l-2.8,2.1V5z M400.3,11.9
		c-0.1,0.8-0.1,1.4-0.1,1.9c0,1,0,1.6,0.1,2c1-0.7,2.4-2.6,2.4-3.7c0-0.6-0.5-1.1-1.1-1.1C401,11,400.6,11.3,400.3,11.9z"/>
</g>
<rect x="426.6" y="14" width="0.5" height="16.4"/>
<g>
	<path d="M426.7,14.1c0-1.8,2.5-3.5,4.5-3.5c1.3,0,2.3,0.7,2.3,1.7c0,1.7-2.5,3.5-4.6,3.5C427.7,15.9,426.7,15.2,426.7,14.1z"/>
</g>
<g>
	<path d="M424.8,20v-4l-3,1.1V6.5h0.5v4l3-1.1V20H424.8z M422.2,15.4l2.5-0.9v-3.3l-2.5,0.9V15.4z"/>
</g>
<rect x="445.9" y="10.4" width="10.5" height="0.8"/>
<rect x="447.7" y="11.6" width="0.5" height="18.6"/>
<g>
	<path d="M447.8,11.6c0-1.8,2.5-3.5,4.5-3.5c1.3,0,2.3,0.7,2.3,1.7c0,1.7-2.5,3.5-4.6,3.5C448.7,13.4,447.8,12.7,447.8,11.6z"/>
</g>
<g>
	<path d="M440.6,2.5h0.6l-0.1,6.2c0.4-0.7,1-1,1.8-1c1.2,0,2.2,0.8,2.2,1.9c0,0.8-0.5,1.8-1.7,2.7l-2.8,2.1V2.5z M441.2,9.4
		c-0.1,0.8-0.1,1.4-0.1,1.9c0,1,0,1.6,0.1,2c1-0.7,2.4-2.6,2.4-3.7c0-0.6-0.5-1.1-1.1-1.1C441.9,8.5,441.5,8.8,441.2,9.4z"/>
</g>
<rect x="466.8" y="10.4" width="10.5" height="0.8"/>
<rect x="468.6" y="11.6" width="0.5" height="15.2"/>
<g>
	<path d="M468.7,11.6c0-1.8,2.5-3.5,4.5-3.5c1.3,0,2.3,0.7,2.3,1.7c0,1.7-2.5,3.5-4.6,3.5C469.7,13.4,468.7,12.7,468.7,11.6z"/>
</g>
<g>
	<path d="M465.5,17.6v-4l-3,1.1V4h0.5v4l3-1.1v10.7H465.5z M463,12.9l2.5-0.9V8.6L463,9.6V12.9z"/>
</g>
<rect x="487.9" y="10.4" width="10.5" height="0.8"/>
<rect x="489.7" y="9.1" width="0.5" height="17.4"/>
<g>
	<path d="M489.8,9.2c0-1.8,2.5-3.5,4.5-3.5c1.3,0,2.3,0.7,2.3,1.7c0,1.7-2.5,3.5-4.6,3.5C490.8,10.9,489.8,10.3,489.8,9.2z"/>
</g>
<g>
	<path d="M482.7,0h0.6l-0.1,6.2c0.4-0.7,1-1,1.8-1c1.2,0,2.2,0.8,2.2,1.9c0,0.8-0.5,1.8-1.7,2.7l-2.8,2.1V0z M483.2,6.9
		c-0.1,0.8-0.1,1.4-0.1,1.9c0,1,0,1.6,0.1,2c1-0.7,2.4-2.6,2.4-3.7c0-0.6-0.5-1.1-1.1-1.1C483.9,6.1,483.5,6.3,483.2,6.9z"/>
</g>
<rect x="509" y="10.4" width="10.5" height="0.8"/>
<rect x="510.8" y="9.1" width="0.5" height="16.9"/>
<g>
	<path d="M510.9,9.2c0-1.8,2.5-3.5,4.5-3.5c1.3,0,2.3,0.7,2.3,1.7c0,1.7-2.5,3.5-4.6,3.5C511.8,10.9,510.9,10.3,510.9,9.2z"/>
</g>
<g>
	<path d="M507.7,15.1v-4l-3,1.1V1.5h0.5v4l3-1.1v10.7H507.7z M505.2,10.4l2.5-0.9V6.2l-2.5,0.9V10.4z"/>
</g>
<rect x="529.9" y="10.4" width="10.5" height="0.8"/>
<rect x="529.9" y="5.4" width="10.5" height="0.8"/>
<rect x="531.7" y="6.6" width="0.5" height="18.9"/>
<g>
	<path d="M531.8,6.7c0-1.8,2.5-3.5,4.5-3.5c1.3,0,2.3,0.7,2.3,1.7c0,1.7-2.5,3.5-4.6,3.5C532.8,8.4,531.8,7.8,531.8,6.7z"/>
</g>
<rect x="36.9" y="73.6" width="0.5" height="15.2"/>
<g>
	<path d="M37,73.6c0-1.8,2.5-3.5,4.5-3.5c1.3,0,2.3,0.7,2.3,1.7c0,1.7-2.5,3.5-4.6,3.5C38,75.4,37,74.7,37,73.6z"/>
</g>
<g>
	<path d="M31.1,64.5h0.6l-0.1,6.2c0.4-0.7,1-1,1.8-1c1.2,0,2.2,0.8,2.2,1.9c0,0.8-0.5,1.8-1.7,2.7l-2.8,2.1V64.5z M31.7,71.4
		c-0.1,0.8-0.1,1.4-0.1,1.9c0,1,0,1.6,0.1,2c1-0.7,2.4-2.6,2.4-3.7c0-0.6-0.5-1.1-1.1-1.1C32.4,70.6,32,70.8,31.7,71.4z"/>
</g>
<rect x="58" y="73.6" width="0.5" height="14.9"/>
<g>
	<path d="M58.1,73.6c0-1.8,2.5-3.5,4.5-3.5c1.3,0,2.3,0.7,2.3,1.7c0,1.7-2.5,3.5-4.6,3.5C59,75.4,58.1,74.7,58.1,73.6z"/>
</g>
<g>
	<path d="M56.1,79.6v-4l-3,1.1V66h0.5v4l3-1.1v10.7H56.1z M53.6,74.9l2.5-0.9v-3.3l-2.5,0.9V74.9z"/>
</g>
<rect x="78.9" y="71.1" width="0.5" height="16.9"/>
<g>
	<path d="M79,71.2c0-1.8,2.5-3.5,4.5-3.5c1.3,0,2.3,0.7,2.3,1.7c0,1.7-2.5,3.5-4.6,3.5C80,72.9,79,72.3,79,71.2z"/>
</g>
<g>
	<path d="M73.1,62h0.6l-0.1,6.2c0.4-0.7,1-1,1.8-1c1.2,0,2.2,0.8,2.2,1.9c0,0.8-0.5,1.8-1.7,2.7l-2.8,2.1V62z M73.7,68.9
		c-0.1,0.8-0.1,1.4-0.1,1.9c0,1,0,1.6,0.1,2c1-0.7,2.4-2.6,2.4-3.7c0-0.6-0.5-1.1-1.1-1.1C74.4,68.1,74,68.4,73.7,68.9z"/>
</g>
<rect x="100" y="71.1" width="0.5" height="16.4"/>
<g>
	<path d="M100.1,71.2c0-1.8,2.5-3.5,4.5-3.5c1.3,0,2.3,0.7,2.3,1.7c0,1.7-2.5,3.5-4.6,3.5C101,72.9,100.1,72.3,100.1,71.2z"/>
</g>
<g>
	<path d="M98.1,77.1v-4l-3,1.1V63.5h0.5v4l3-1.1v10.7H98.1z M95.6,72.4l2.5-0.9v-3.3l-2.5,0.9V72.4z"/>
</g>
<rect x="121.1" y="68.6" width="0.5" height="14.3"/>
<g>
	<path d="M121.2,68.7c0-1.8,2.5-3.5,4.5-3.5c1.3,0,2.3,0.7,2.3,1.7c0,1.7-2.5,3.5-4.6,3.5C122.1,70.4,121.2,69.8,121.2,68.7z"/>
</g>
<rect x="142" y="66.1" width="0.5" height="16.6"/>
<g>
	<path d="M142.1,66.2c0-1.8,2.5-3.5,4.5-3.5c1.3,0,2.3,0.7,2.3,1.7c0,1.7-2.5,3.5-4.6,3.5C143.1,67.9,142.1,67.3,142.1,66.2z"/>
</g>
<g>
	<path d="M136.2,57h0.6l-0.1,6.2c0.4-0.7,1-1,1.8-1c1.2,0,2.2,0.8,2.2,1.9c0,0.8-0.5,1.8-1.7,2.7l-2.8,2.1V57z M136.8,63.9
		c-0.1,0.8-0.1,1.4-0.1,1.9c0,1,0,1.6,0.1,2c1-0.7,2.4-2.6,2.4-3.7c0-0.6-0.5-1.1-1.1-1.1C137.5,63.1,137.1,63.4,136.8,63.9z"/>
</g>
<rect x="163.1" y="66.1" width="0.5" height="16.4"/>
<g>
	<path d="M163.2,66.2c0-1.8,2.5-3.5,4.5-3.5c1.3,0,2.3,0.7,2.3,1.7c0,1.7-2.5,3.5-4.6,3.5C164.1,67.9,163.2,67.3,163.2,66.2z"/>
</g>
<g>
	<path d="M161.2,72.1v-4l-3,1.1V58.6h0.5v4l3-1.1v10.7H161.2z M158.7,67.5l2.5-0.9v-3.3l-2.5,0.9V67.5z"/>
</g>
<rect x="184.2" y="63.6" width="0.5" height="18.6"/>
<g>
	<path d="M184.2,63.7c0-1.8,2.5-3.5,4.5-3.5c1.3,0,2.3,0.7,2.3,1.7c0,1.7-2.5,3.5-4.6,3.5C185.2,65.5,184.2,64.8,184.2,63.7z"/>
</g>
<g>
	<path d="M178.4,54.6h0.6l-0.1,6.2c0.4-0.7,1-1,1.8-1c1.2,0,2.2,0.8,2.2,1.9c0,0.8-0.5,1.8-1.7,2.7l-2.8,2.1V54.6z M178.9,61.5
		c-0.1,0.8-0.1,1.4-0.1,1.9c0,1,0,1.6,0.1,2c1-0.7,2.4-2.6,2.4-3.7c0-0.6-0.5-1.1-1.1-1.1C179.6,60.6,179.2,60.9,178.9,61.5z"/>
</g>
<rect x="205.3" y="63.6" width="0.5" height="14.3"/>
<g>
	<path d="M205.3,63.7c0-1.8,2.5-3.5,4.5-3.5c1.3,0,2.3,0.7,2.3,1.7c0,1.7-2.5,3.5-4.6,3.5C206.3,65.5,205.3,64.8,205.3,63.7z"/>
</g>
<g>
	<path d="M203.4,69.6v-4l-3,1.1V56.1h0.5v4l3-1.1v10.7H203.4z M200.9,65l2.5-0.9v-3.3l-2.5,0.9V65z"/>
</g>
<rect x="226.2" y="61.2" width="0.5" height="16.6"/>
<g>
	<path d="M226.3,61.2c0-1.8,2.5-3.5,4.5-3.5c1.3,0,2.3,0.7,2.3,1.7c0,1.7-2.5,3.5-4.6,3.5C227.2,63,226.3,62.3,226.3,61.2z"/>
</g>
<g>
	<path d="M220.4,52.1h0.6l-0.1,6.2c0.4-0.7,1-1,1.8-1c1.2,0,2.2,0.8,2.2,1.9c0,0.8-0.5,1.8-1.7,2.7l-2.8,2.1V52.1z M220.9,59
		c-0.1,0.8-0.1,1.4-0.1,1.9c0,1,0,1.6,0.1,2c1-0.7,2.4-2.6,2.4-3.7c0-0.6-0.5-1.1-1.1-1.1C221.7,58.2,221.2,58.4,220.9,59z"/>
</g>
<rect x="247.3" y="61.2" width="0.5" height="16.4"/>
<g>
	<path d="M247.3,61.2c0-1.8,2.5-3.5,4.5-3.5c1.3,0,2.3,0.7,2.3,1.7c0,1.7-2.5,3.5-4.6,3.5C248.3,63,247.3,62.3,247.3,61.2z"/>
</g>
<g>
	<path d="M245.4,67.2v-4l-3,1.1V53.6h0.5v4l3-1.1v10.7H245.4z M242.9,62.5l2.5-0.9v-3.3l-2.5,0.9V62.5z"/>
</g>
<rect x="266.6" y="57.5" width="10.5" height="0.8"/>
<rect x="268.3" y="58.7" width="0.5" height="18.6"/>
<g>
	<path d="M268.4,58.8c0-1.8,2.5-3.5,4.5-3.5c1.3,0,2.3,0.7,2.3,1.7c0,1.7-2.5,3.5-4.6,3.5C269.4,60.5,268.4,59.9,268.4,58.8z"/>
</g>
<rect x="306.9" y="68" width="0.5" height="16.4"/>
<g>
	<path d="M300.5,86c0-1.8,2.5-3.5,4.5-3.5c1.3,0,2.3,0.7,2.3,1.7c0,1.7-2.5,3.5-4.6,3.5C301.5,87.8,300.5,87.1,300.5,86z"/>
</g>
<g>
	<path d="M294.6,76.9h0.6l-0.1,6.2c0.4-0.7,1-1,1.8-1c1.2,0,2.2,0.8,2.2,1.9c0,0.8-0.5,1.8-1.7,2.7l-2.8,2.1V76.9z M295.2,83.8
		c-0.1,0.8-0.1,1.4-0.1,1.9c0,1,0,1.6,0.1,2c1-0.7,2.4-2.6,2.4-3.7c0-0.6-0.5-1.1-1.1-1.1C295.9,83,295.5,83.2,295.2,83.8z"/>
</g>
<rect x="327.9" y="67.7" width="0.5" height="16.7"/>
<g>
	<path d="M321.4,86c0-1.8,2.5-3.5,4.5-3.5c1.3,0,2.3,0.7,2.3,1.7c0,1.7-2.5,3.5-4.6,3.5C322.4,87.8,321.4,87.1,321.4,86z"/>
</g>
<g>
	<path d="M319.5,92v-4l-3,1.1V78.4h0.5v4l3-1.1V92H319.5z M317,87.3l2.5-0.9v-3.3L317,84V87.3z"/>
</g>
<rect x="349" y="67.2" width="0.5" height="14.7"/>
<g>
	<path d="M342.5,83.6c0-1.8,2.5-3.5,4.5-3.5c1.3,0,2.3,0.7,2.3,1.7c0,1.7-2.5,3.5-4.6,3.5C343.5,85.3,342.5,84.7,342.5,83.6z"/>
</g>
<g>
	<path d="M336.6,74.4h0.6l-0.1,6.2c0.4-0.7,1-1,1.8-1c1.2,0,2.2,0.8,2.2,1.9c0,0.8-0.5,1.8-1.7,2.7l-2.8,2.1V74.4z M337.2,81.3
		c-0.1,0.8-0.1,1.4-0.1,1.9c0,1,0,1.6,0.1,2c1-0.7,2.4-2.6,2.4-3.7c0-0.6-0.5-1.1-1.1-1.1C337.9,80.5,337.5,80.8,337.2,81.3z"/>
</g>
<rect x="370" y="66.7" width="0.5" height="15.2"/>
<g>
	<path d="M363.6,83.6c0-1.8,2.5-3.5,4.5-3.5c1.3,0,2.3,0.7,2.3,1.7c0,1.7-2.5,3.5-4.6,3.5C364.6,85.3,363.6,84.7,363.6,83.6z"/>
</g>
<g>
	<path d="M361.7,89.5v-4l-3,1.1V75.9h0.5v4l3-1.1v10.7H361.7z M359.1,84.8l2.5-0.9v-3.3l-2.5,0.9V84.8z"/>
</g>
<rect x="391" y="63" width="0.5" height="16.4"/>
<g>
	<path d="M384.5,81.1c0-1.8,2.5-3.5,4.5-3.5c1.3,0,2.3,0.7,2.3,1.7c0,1.7-2.5,3.5-4.6,3.5C385.5,82.8,384.5,82.2,384.5,81.1z"/>
</g>
<rect x="412" y="61.5" width="0.5" height="15.5"/>
<g>
	<path d="M405.6,78.6c0-1.8,2.5-3.5,4.5-3.5c1.3,0,2.3,0.7,2.3,1.7c0,1.7-2.5,3.5-4.6,3.5C406.6,80.3,405.6,79.7,405.6,78.6z"/>
</g>
<g>
	<path d="M399.7,69.4h0.6l-0.1,6.2c0.4-0.7,1-1,1.8-1c1.2,0,2.2,0.8,2.2,1.9c0,0.8-0.5,1.8-1.7,2.7l-2.8,2.1V69.4z M400.3,76.3
		c-0.1,0.8-0.1,1.4-0.1,1.9c0,1,0,1.6,0.1,2c1-0.7,2.4-2.6,2.4-3.7c0-0.6-0.5-1.1-1.1-1.1C401,75.5,400.6,75.8,400.3,76.3z"/>
</g>
<rect x="433.1" y="59.8" width="0.5" height="17.2"/>
<g>
	<path d="M426.7,78.6c0-1.8,2.5-3.5,4.5-3.5c1.3,0,2.3,0.7,2.3,1.7c0,1.7-2.5,3.5-4.6,3.5C427.7,80.3,426.7,79.7,426.7,78.6z"/>
</g>
<g>
	<path d="M424.8,84.5v-4l-3,1.1V71h0.5v4l3-1.1v10.7H424.8z M422.2,79.9l2.5-0.9v-3.3l-2.5,0.9V79.9z"/>
</g>
<rect x="454.2" y="58.1" width="0.5" height="16.4"/>
<g>
	<path d="M447.8,76.1c0-1.8,2.5-3.5,4.5-3.5c1.3,0,2.3,0.7,2.3,1.7c0,1.7-2.5,3.5-4.6,3.5C448.7,77.9,447.8,77.2,447.8,76.1z"/>
</g>
<g>
	<path d="M441.9,67h0.6l-0.1,6.2c0.4-0.7,1-1,1.8-1c1.2,0,2.2,0.8,2.2,1.9c0,0.8-0.5,1.8-1.7,2.7l-2.8,2.1V67z M442.5,73.9
		c-0.1,0.8-0.1,1.4-0.1,1.9c0,1,0,1.6,0.1,2c1-0.7,2.4-2.6,2.4-3.7c0-0.6-0.5-1.1-1.1-1.1C443.2,73,442.8,73.3,442.5,73.9z"/>
</g>
<rect x="468.6" y="76.1" width="0.5" height="15.2"/>
<g>
	<path d="M468.7,76.1c0-1.8,2.5-3.5,4.5-3.5c1.3,0,2.3,0.7,2.3,1.7c0,1.7-2.5,3.5-4.6,3.5C469.7,77.9,468.7,77.2,468.7,76.1z"/>
</g>
<g>
	<path d="M466.8,82v-4l-3,1.1V68.5h0.5v4l3-1.1V82H466.8z M464.2,77.4l2.5-0.9v-3.3l-2.5,0.9V77.4z"/>
</g>
<rect x="489.7" y="73.6" width="0.5" height="16.9"/>
<g>
	<path d="M489.8,73.6c0-1.8,2.5-3.5,4.5-3.5c1.3,0,2.3,0.7,2.3,1.7c0,1.7-2.5,3.5-4.6,3.5C490.8,75.4,489.8,74.7,489.8,73.6z"/>
</g>
<g>
	<path d="M483.9,64.5h0.6l-0.1,6.2c0.4-0.7,1-1,1.8-1c1.2,0,2.2,0.8,2.2,1.9c0,0.8-0.5,1.8-1.7,2.7l-2.8,2.1V64.5z M484.5,71.4
		c-0.1,0.8-0.1,1.4-0.1,1.9c0,1,0,1.6,0.1,2c1-0.7,2.4-2.6,2.4-3.7c0-0.6-0.5-1.1-1.1-1.1C485.2,70.6,484.8,70.8,484.5,71.4z"/>
</g>
<rect x="510.8" y="73.6" width="0.5" height="16.1"/>
<g>
	<path d="M510.9,73.6c0-1.8,2.5-3.5,4.5-3.5c1.3,0,2.3,0.7,2.3,1.7c0,1.7-2.5,3.5-4.6,3.5C511.8,75.4,510.9,74.7,510.9,73.6z"/>
</g>
<g>
	<path d="M508.9,79.6v-4l-3,1.1V66h0.5v4l3-1.1v10.7H508.9z M506.4,74.9l2.5-0.9v-3.3l-2.5,0.9V74.9z"/>
</g>
<rect x="531.7" y="71.1" width="0.5" height="17.7"/>
<g>
	<path d="M531.8,71.2c0-1.8,2.5-3.5,4.5-3.5c1.3,0,2.3,0.7,2.3,1.7c0,1.7-2.5,3.5-4.6,3.5C532.8,72.9,531.8,72.3,531.8,71.2z"/>
</g>
<rect x="36.4" y="123.2" width="10.5" height="0.8"/>
<rect x="36.4" y="118.3" width="10.5" height="0.8"/>
<rect x="38.1" y="117" width="0.5" height="21.4"/>
<g>
	<path d="M38.2,117.1c0-1.8,2.5-3.5,4.5-3.5c1.3,0,2.3,0.7,2.3,1.7c0,1.7-2.5,3.5-4.6,3.5C39.2,118.8,38.2,118.1,38.2,117.1z"/>
</g>
<g>
	<path d="M31.1,107.9h0.6l-0.1,6.2c0.4-0.7,1-1,1.8-1c1.2,0,2.2,0.8,2.2,1.9c0,0.8-0.5,1.8-1.7,2.7l-2.8,2.1V107.9z M31.7,114.8
		c-0.1,0.8-0.1,1.4-0.1,1.9c0,1,0,1.6,0.1,2c1-0.7,2.4-2.6,2.4-3.7c0-0.6-0.5-1.1-1.1-1.1C32.4,114,32,114.2,31.7,114.8z"/>
</g>
<rect x="54.7" y="123.2" width="10.5" height="0.8"/>
<rect x="54.7" y="118.3" width="10.5" height="0.8"/>
<rect x="56.4" y="119.5" width="0.5" height="18.9"/>
<g>
	<path d="M56.5,119.5c0-1.8,2.5-3.5,4.5-3.5c1.3,0,2.3,0.7,2.3,1.7c0,1.7-2.5,3.5-4.6,3.5C57.5,121.3,56.5,120.6,56.5,119.5z"/>
</g>
<rect x="72.8" y="123.2" width="10.5" height="0.8"/>
<rect x="74.6" y="121.9" width="0.5" height="16.4"/>
<g>
	<path d="M74.7,122c0-1.8,2.5-3.5,4.5-3.5c1.3,0,2.3,0.7,2.3,1.7c0,1.7-2.5,3.5-4.6,3.5C75.6,123.7,74.7,123.1,74.7,122z"/>
</g>
<rect x="91.1" y="123.2" width="10.5" height="0.8"/>
<rect x="92.9" y="121.9" width="0.5" height="16.4"/>
<g>
	<path d="M92.9,122c0-1.8,2.5-3.5,4.5-3.5c1.3,0,2.3,0.7,2.3,1.7c0,1.7-2.5,3.5-4.6,3.5C93.9,123.7,92.9,123.1,92.9,122z"/>
</g>
<g>
	<path d="M85.8,112.8h0.6l-0.1,6.2c0.4-0.7,1-1,1.8-1c1.2,0,2.2,0.8,2.2,1.9c0,0.8-0.5,1.8-1.7,2.7l-2.8,2.1V112.8z M86.4,119.7
		c-0.1,0.8-0.1,1.4-0.1,1.9c0,1,0,1.6,0.1,2c1-0.7,2.4-2.6,2.4-3.7c0-0.6-0.5-1.1-1.1-1.1C87.1,118.9,86.7,119.2,86.4,119.7z"/>
</g>
<rect x="109.4" y="123.2" width="10.5" height="0.8"/>
<rect x="111.2" y="124.4" width="0.5" height="18.9"/>
<g>
	<path d="M111.2,124.5c0-1.8,2.5-3.5,4.5-3.5c1.3,0,2.3,0.7,2.3,1.7c0,1.7-2.5,3.5-4.6,3.5C112.2,126.2,111.2,125.6,111.2,124.5z"/>
</g>
<rect x="127.7" y="123.2" width="10.5" height="0.8"/>
<rect x="129.4" y="124.4" width="0.5" height="19.2"/>
<g>
	<path d="M129.5,124.5c0-1.8,2.5-3.5,4.5-3.5c1.3,0,2.3,0.7,2.3,1.7c0,1.7-2.5,3.5-4.6,3.5C130.5,126.2,129.5,125.6,129.5,124.5z"/>
</g>
<g>
	<path d="M122.4,115.3h0.6l-0.1,6.2c0.4-0.7,1-1,1.8-1c1.2,0,2.2,0.8,2.2,1.9c0,0.8-0.5,1.8-1.7,2.7l-2.8,2.1V115.3z M123,122.2
		c-0.1,0.8-0.1,1.4-0.1,1.9c0,1,0,1.6,0.1,2c1-0.7,2.4-2.6,2.4-3.7c0-0.6-0.5-1.1-1.1-1.1C123.7,121.4,123.3,121.7,123,122.2z"/>
</g>
<rect x="147.6" y="126.9" width="0.5" height="17.2"/>
<g>
	<path d="M147.7,127c0-1.8,2.5-3.5,4.5-3.5c1.3,0,2.3,0.7,2.3,1.7c0,1.7-2.5,3.5-4.6,3.5C148.6,128.7,147.7,128.1,147.7,127z"/>
</g>
<rect x="165.9" y="126.9" width="0.5" height="17.7"/>
<g>
	<path d="M166,127c0-1.8,2.5-3.5,4.5-3.5c1.3,0,2.3,0.7,2.3,1.7c0,1.7-2.5,3.5-4.6,3.5C166.9,128.7,166,128.1,166,127z"/>
</g>
<g>
	<path d="M160.1,117.8h0.6l-0.1,6.2c0.4-0.7,1-1,1.8-1c1.2,0,2.2,0.8,2.2,1.9c0,0.8-0.5,1.8-1.7,2.7l-2.8,2.1V117.8z M160.6,124.7
		c-0.1,0.8-0.1,1.4-0.1,1.9c0,1,0,1.6,0.1,2c1-0.7,2.4-2.6,2.4-3.7c0-0.6-0.5-1.1-1.1-1.1C161.4,123.9,160.9,124.2,160.6,124.7z"/>
</g>
<rect x="184.2" y="129.4" width="0.5" height="18.6"/>
<g>
	<path d="M184.2,129.5c0-1.8,2.5-3.5,4.5-3.5c1.3,0,2.3,0.7,2.3,1.7c0,1.7-2.5,3.5-4.6,3.5C185.2,131.2,184.2,130.5,184.2,129.5z"/>
</g>
<rect x="202.3" y="131.9" width="0.5" height="16.3"/>
<g>
	<path d="M202.4,131.9c0-1.8,2.5-3.5,4.5-3.5c1.3,0,2.3,0.7,2.3,1.7c0,1.7-2.5,3.5-4.6,3.5C203.4,133.7,202.4,133,202.4,131.9z"/>
</g>
<rect x="220.6" y="131.9" width="0.5" height="16.4"/>
<g>
	<path d="M220.7,131.9c0-1.8,2.5-3.5,4.5-3.5c1.3,0,2.3,0.7,2.3,1.7c0,1.7-2.5,3.5-4.6,3.5C221.6,133.7,220.7,133,220.7,131.9z"/>
</g>
<g>
	<path d="M214.8,122.8h0.6l-0.1,6.2c0.4-0.7,1-1,1.8-1c1.2,0,2.2,0.8,2.2,1.9c0,0.8-0.5,1.8-1.7,2.7l-2.8,2.1V122.8z M215.4,129.7
		c-0.1,0.8-0.1,1.4-0.1,1.9c0,1,0,1.6,0.1,2c1-0.7,2.4-2.6,2.4-3.7c0-0.6-0.5-1.1-1.1-1.1C216.1,128.8,215.7,129.1,215.4,129.7z"/>
</g>
<rect x="238.9" y="134.3" width="0.5" height="14.3"/>
<g>
	<path d="M239,134.4c0-1.8,2.5-3.5,4.5-3.5c1.3,0,2.3,0.7,2.3,1.7c0,1.7-2.5,3.5-4.6,3.5C239.9,136.1,239,135.5,239,134.4z"/>
</g>
<g>
	<path d="M237,140.3v-4l-3,1.1v-10.7h0.5v4l3-1.1v10.7H237z M234.5,135.7l2.5-0.9v-3.3l-2.5,0.9V135.7z"/>
</g>
<rect x="270.4" y="134.3" width="0.5" height="20.2"/>
<g>
	<path d="M270.4,134.4c0-1.8,2.5-3.5,4.5-3.5c1.3,0,2.3,0.7,2.3,1.7c0,1.7-2.5,3.5-4.6,3.5C271.4,136.1,270.4,135.5,270.4,134.4z"/>
</g>
<g>
	<path d="M264.5,125.2h0.6l-0.1,6.2c0.4-0.7,1-1,1.8-1c1.2,0,2.2,0.8,2.2,1.9c0,0.8-0.5,1.8-1.7,2.7l-2.8,2.1V125.2z M265.1,132.1
		c-0.1,0.8-0.1,1.4-0.1,1.9c0,1,0,1.6,0.1,2c1-0.7,2.4-2.6,2.4-3.7c0-0.6-0.5-1.1-1.1-1.1C265.8,131.3,265.4,131.6,265.1,132.1z"/>
</g>
<rect x="288.5" y="136.8" width="0.5" height="17.7"/>
<g>
	<path d="M288.6,136.9c0-1.8,2.5-3.5,4.5-3.5c1.3,0,2.3,0.7,2.3,1.7c0,1.7-2.5,3.5-4.6,3.5C289.5,138.6,288.6,138,288.6,136.9z"/>
</g>
<rect x="306.8" y="139.3" width="0.5" height="15.2"/>
<g>
	<path d="M306.9,139.4c0-1.8,2.5-3.5,4.5-3.5c1.3,0,2.3,0.7,2.3,1.7c0,1.7-2.5,3.5-4.6,3.5C307.8,141.1,306.9,140.5,306.9,139.4z"/>
</g>
<g>
	<path d="M304.9,145.3v-4l-3,1.1v-10.7h0.5v4l3-1.1v10.7H304.9z M302.4,140.6l2.5-0.9v-3.3l-2.5,0.9V140.6z"/>
</g>
<rect x="325.1" y="139.3" width="0.5" height="15.2"/>
<g>
	<path d="M325.2,139.4c0-1.8,2.5-3.5,4.5-3.5c1.3,0,2.3,0.7,2.3,1.7c0,1.7-2.5,3.5-4.6,3.5C326.1,141.1,325.2,140.5,325.2,139.4z"/>
</g>
<g>
	<path d="M319.3,130.2h0.6l-0.1,6.2c0.4-0.7,1-1,1.8-1c1.2,0,2.2,0.8,2.2,1.9c0,0.8-0.5,1.8-1.7,2.7l-2.8,2.1V130.2z M319.8,137.1
		c-0.1,0.8-0.1,1.4-0.1,1.9c0,1,0,1.6,0.1,2c1-0.7,2.4-2.6,2.4-3.7c0-0.6-0.5-1.1-1.1-1.1C320.6,136.3,320.1,136.6,319.8,137.1z"/>
</g>
<rect x="349.9" y="122.6" width="0.5" height="17.7"/>
<g>
	<path d="M343.4,141.9c0-1.8,2.5-3.5,4.5-3.5c1.3,0,2.3,0.7,2.3,1.7c0,1.7-2.5,3.5-4.6,3.5C344.4,143.6,343.4,142.9,343.4,141.9z"/>
</g>
<g>
	<path d="M341.5,147.8v-4l-3,1.1v-10.7h0.5v4l3-1.1v10.7H341.5z M339,143.1l2.5-0.9v-3.3l-2.5,0.9V143.1z"/>
</g>
<rect x="368" y="122.9" width="0.5" height="17.4"/>
<g>
	<path d="M361.6,141.9c0-1.8,2.5-3.5,4.5-3.5c1.3,0,2.3,0.7,2.3,1.7c0,1.7-2.5,3.5-4.6,3.5C362.6,143.6,361.6,142.9,361.6,141.9z"/>
</g>
<g>
	<path d="M355.7,132.7h0.6l-0.1,6.2c0.4-0.7,1-1,1.8-1c1.2,0,2.2,0.8,2.2,1.9c0,0.8-0.5,1.8-1.7,2.7l-2.8,2.1V132.7z M356.3,139.6
		c-0.1,0.8-0.1,1.4-0.1,1.9c0,1,0,1.6,0.1,2c1-0.7,2.4-2.6,2.4-3.7c0-0.6-0.5-1.1-1.1-1.1C357,138.8,356.6,139,356.3,139.6z"/>
</g>
<rect x="386.3" y="123.3" width="0.5" height="19.4"/>
<g>
	<path d="M379.9,144.3c0-1.8,2.5-3.5,4.5-3.5c1.3,0,2.3,0.7,2.3,1.7c0,1.7-2.5,3.5-4.6,3.5C380.8,146.1,379.9,145.4,379.9,144.3z"/>
</g>
<g>
	<path d="M378,150.2v-4l-3,1.1v-10.7h0.5v4l3-1.1v10.7H378z M375.4,145.6l2.5-0.9v-3.3l-2.5,0.9V145.6z"/>
</g>
<rect x="404.6" y="123.8" width="0.5" height="18.9"/>
<g>
	<path d="M398.2,144.3c0-1.8,2.5-3.5,4.5-3.5c1.3,0,2.3,0.7,2.3,1.7c0,1.7-2.5,3.5-4.6,3.5C399.1,146.1,398.2,145.4,398.2,144.3z"/>
</g>
<g>
	<path d="M392.3,135.2h0.6l-0.1,6.2c0.4-0.7,1-1,1.8-1c1.2,0,2.2,0.8,2.2,1.9c0,0.8-0.5,1.8-1.7,2.7l-2.8,2.1V135.2z M392.9,142.1
		c-0.1,0.8-0.1,1.4-0.1,1.9c0,1,0,1.6,0.1,2c1-0.7,2.4-2.6,2.4-3.7c0-0.6-0.5-1.1-1.1-1.1C393.6,141.2,393.1,141.5,392.9,142.1z"/>
</g>
<rect x="422.7" y="128.8" width="0.5" height="16.4"/>
<g>
	<path d="M416.3,146.8c0-1.8,2.5-3.5,4.5-3.5c1.3,0,2.3,0.7,2.3,1.7c0,1.7-2.5,3.5-4.6,3.5C417.3,148.5,416.3,147.9,416.3,146.8z"/>
</g>
<rect x="441" y="130.3" width="0.5" height="17.4"/>
<g>
	<path d="M434.6,149.3c0-1.8,2.5-3.5,4.5-3.5c1.3,0,2.3,0.7,2.3,1.7c0,1.7-2.5,3.5-4.6,3.5C435.6,151,434.6,150.4,434.6,149.3z"/>
</g>
<g>
	<path d="M432.7,155.2v-4l-3,1.1v-10.7h0.5v4l3-1.1v10.7H432.7z M430.1,150.5l2.5-0.9v-3.3l-2.5,0.9V150.5z"/>
</g>
<rect x="459.3" y="132" width="0.5" height="15.7"/>
<g>
	<path d="M452.9,149.3c0-1.8,2.5-3.5,4.5-3.5c1.3,0,2.3,0.7,2.3,1.7c0,1.7-2.5,3.5-4.6,3.5C453.9,151,452.9,150.4,452.9,149.3z"/>
</g>
<g>
	<path d="M447,140.1h0.6l-0.1,6.2c0.4-0.7,1-1,1.8-1c1.2,0,2.2,0.8,2.2,1.9c0,0.8-0.5,1.8-1.7,2.7l-2.8,2.1V140.1z M447.6,147
		c-0.1,0.8-0.1,1.4-0.1,1.9c0,1,0,1.6,0.1,2c1-0.7,2.4-2.6,2.4-3.7c0-0.6-0.5-1.1-1.1-1.1C448.3,146.2,447.9,146.5,447.6,147z"/>
</g>
<rect x="477.6" y="133.7" width="0.5" height="16.4"/>
<g>
	<path d="M471.2,151.8c0-1.8,2.5-3.5,4.5-3.5c1.3,0,2.3,0.7,2.3,1.7c0,1.7-2.5,3.5-4.6,3.5C472.2,153.5,471.2,152.9,471.2,151.8z"/>
</g>
<g>
	<path d="M469.3,157.7v-4l-3,1.1v-10.7h0.5v4l3-1.1v10.7H469.3z M466.7,153l2.5-0.9v-3.3l-2.5,0.9V153z"/>
</g>
<rect x="495.9" y="133.6" width="0.5" height="16.6"/>
<g>
	<path d="M493.6,148.2c1.6,0,2.7,0.7,2.7,2c0,1.9-2.3,3.4-4.5,3.4c-1.3,0-2.4-0.7-2.4-1.8C489.3,150,491.6,148.2,493.6,148.2z
		 M489.8,152.1c0,0.6,0.4,0.9,1.1,0.9c1.4,0,4.9-2.1,4.9-3.3c0-0.6-0.4-0.9-1.1-0.9C493.4,148.8,489.8,150.8,489.8,152.1z"/>
</g>
<g>
	<path d="M483.4,142.6h0.6l-0.1,6.2c0.4-0.7,1-1,1.8-1c1.2,0,2.2,0.8,2.2,1.9c0,0.8-0.5,1.8-1.7,2.7l-2.8,2.1V142.6z M484,149.5
		c-0.1,0.8-0.1,1.4-0.1,1.9c0,1,0,1.6,0.1,2c1-0.7,2.4-2.6,2.4-3.7c0-0.6-0.5-1.1-1.1-1.1C484.7,148.7,484.3,149,484,149.5z"/>
</g>
<rect x="38.1" y="181.5" width="0.5" height="20.2"/>
<g>
	<path d="M38.2,181.5c0-1.8,2.5-3.5,4.5-3.5c1.3,0,2.3,0.7,2.3,1.7c0,1.7-2.5,3.5-4.6,3.5C39.2,183.3,38.2,182.6,38.2,181.5z"/>
</g>
<g>
	<path d="M32.3,172.4H33l-0.1,6.2c0.4-0.7,1-1,1.8-1c1.2,0,2.2,0.8,2.2,1.9c0,0.8-0.5,1.8-1.7,2.7l-2.8,2.1V172.4z M32.9,179.3
		c-0.1,0.8-0.1,1.4-0.1,1.9c0,1,0,1.6,0.1,2c1-0.7,2.4-2.6,2.4-3.7c0-0.6-0.5-1.1-1.1-1.1C33.6,178.4,33.2,178.7,32.9,179.3z"/>
</g>
<rect x="56.4" y="183.9" width="0.5" height="17.7"/>
<g>
	<path d="M56.5,184c0-1.8,2.5-3.5,4.5-3.5c1.3,0,2.3,0.7,2.3,1.7c0,1.7-2.5,3.5-4.6,3.5C57.5,185.7,56.5,185.1,56.5,184z"/>
</g>
<rect x="74.6" y="186.4" width="0.5" height="15.2"/>
<g>
	<path d="M74.7,186.5c0-1.8,2.5-3.5,4.5-3.5c1.3,0,2.3,0.7,2.3,1.7c0,1.7-2.5,3.5-4.6,3.5C75.6,188.2,74.7,187.6,74.7,186.5z"/>
</g>
<rect x="92.9" y="186.4" width="0.5" height="15.2"/>
<g>
	<path d="M92.9,186.5c0-1.8,2.5-3.5,4.5-3.5c1.3,0,2.3,0.7,2.3,1.7c0,1.7-2.5,3.5-4.6,3.5C93.9,188.2,92.9,187.6,92.9,186.5z"/>
</g>
<g>
	<path d="M87.1,177.3h0.6l-0.1,6.2c0.4-0.7,1-1,1.8-1c1.2,0,2.2,0.8,2.2,1.9c0,0.8-0.5,1.8-1.7,2.7l-2.8,2.1V177.3z M87.6,184.2
		c-0.1,0.8-0.1,1.4-0.1,1.9c0,1,0,1.6,0.1,2c1-0.7,2.4-2.6,2.4-3.7c0-0.6-0.5-1.1-1.1-1.1C88.3,183.4,87.9,183.7,87.6,184.2z"/>
</g>
<rect x="117.7" y="169.7" width="0.5" height="17.7"/>
<g>
	<path d="M111.2,189c0-1.8,2.5-3.5,4.5-3.5c1.3,0,2.3,0.7,2.3,1.7c0,1.7-2.5,3.5-4.6,3.5C112.2,190.7,111.2,190.1,111.2,189z"/>
</g>
<rect x="136" y="170" width="0.5" height="17.4"/>
<g>
	<path d="M129.5,189c0-1.8,2.5-3.5,4.5-3.5c1.3,0,2.3,0.7,2.3,1.7c0,1.7-2.5,3.5-4.6,3.5C130.5,190.7,129.5,190.1,129.5,189z"/>
</g>
<g>
	<path d="M123.6,179.8h0.6l-0.1,6.2c0.4-0.7,1-1,1.8-1c1.2,0,2.2,0.8,2.2,1.9c0,0.8-0.5,1.8-1.7,2.7l-2.8,2.1V179.8z M124.2,186.7
		c-0.1,0.8-0.1,1.4-0.1,1.9c0,1,0,1.6,0.1,2c1-0.7,2.4-2.6,2.4-3.7c0-0.6-0.5-1.1-1.1-1.1C124.9,185.9,124.5,186.2,124.2,186.7z"/>
</g>
<rect x="154.1" y="170.5" width="0.5" height="19.4"/>
<g>
	<path d="M147.7,191.5c0-1.8,2.5-3.5,4.5-3.5c1.3,0,2.3,0.7,2.3,1.7c0,1.7-2.5,3.5-4.6,3.5C148.6,193.2,147.7,192.5,147.7,191.5z"/>
</g>
<rect x="172.4" y="170.9" width="0.5" height="18.9"/>
<g>
	<path d="M166,191.5c0-1.8,2.5-3.5,4.5-3.5c1.3,0,2.3,0.7,2.3,1.7c0,1.7-2.5,3.5-4.6,3.5C166.9,193.2,166,192.5,166,191.5z"/>
</g>
<g>
	<path d="M160.1,182.3h0.6l-0.1,6.2c0.4-0.7,1-1,1.8-1c1.2,0,2.2,0.8,2.2,1.9c0,0.8-0.5,1.8-1.7,2.7l-2.8,2.1V182.3z M160.6,189.2
		c-0.1,0.8-0.1,1.4-0.1,1.9c0,1,0,1.6,0.1,2c1-0.7,2.4-2.6,2.4-3.7c0-0.6-0.5-1.1-1.1-1.1C161.4,188.4,160.9,188.6,160.6,189.2z"/>
</g>
<rect x="190.7" y="175.9" width="0.5" height="16.4"/>
<g>
	<path d="M184.2,193.9c0-1.8,2.5-3.5,4.5-3.5c1.3,0,2.3,0.7,2.3,1.7c0,1.7-2.5,3.5-4.6,3.5C185.2,195.7,184.2,195,184.2,193.9z"/>
</g>
<rect x="208.8" y="177.4" width="0.5" height="17.4"/>
<g>
	<path d="M202.4,196.4c0-1.8,2.5-3.5,4.5-3.5c1.3,0,2.3,0.7,2.3,1.7c0,1.7-2.5,3.5-4.6,3.5C203.4,198.1,202.4,197.5,202.4,196.4z"/>
</g>
<rect x="227.1" y="179.1" width="0.5" height="15.7"/>
<g>
	<path d="M220.7,196.4c0-1.8,2.5-3.5,4.5-3.5c1.3,0,2.3,0.7,2.3,1.7c0,1.7-2.5,3.5-4.6,3.5C221.6,198.1,220.7,197.5,220.7,196.4z"/>
</g>
<g>
	<path d="M214.8,187.3h0.6l-0.1,6.2c0.4-0.7,1-1,1.8-1c1.2,0,2.2,0.8,2.2,1.9c0,0.8-0.5,1.8-1.7,2.7l-2.8,2.1V187.3z M215.4,194.2
		c-0.1,0.8-0.1,1.4-0.1,1.9c0,1,0,1.6,0.1,2c1-0.7,2.4-2.6,2.4-3.7c0-0.6-0.5-1.1-1.1-1.1C216.1,193.3,215.7,193.6,215.4,194.2z"/>
</g>
<rect x="245.4" y="180.8" width="0.5" height="16.4"/>
<g>
	<path d="M239,198.9c0-1.8,2.5-3.5,4.5-3.5c1.3,0,2.3,0.7,2.3,1.7c0,1.7-2.5,3.5-4.6,3.5C239.9,200.6,239,200,239,198.9z"/>
</g>
<g>
	<path d="M237,204.8v-4l-3,1.1v-10.7h0.5v4l3-1.1v10.7H237z M234.5,200.1l2.5-0.9v-3.3l-2.5,0.9V200.1z"/>
</g>
<rect x="268.6" y="170.4" width="10.5" height="0.8"/>
<rect x="270.4" y="169.1" width="0.5" height="21.4"/>
<g>
	<path d="M270.4,169.1c0-1.8,2.5-3.5,4.5-3.5c1.3,0,2.3,0.7,2.3,1.7c0,1.7-2.5,3.5-4.6,3.5C271.4,170.9,270.4,170.2,270.4,169.1z"/>
</g>
<g>
	<path d="M263.3,160h0.6l-0.1,6.2c0.4-0.7,1-1,1.8-1c1.2,0,2.2,0.8,2.2,1.9c0,0.8-0.5,1.8-1.7,2.7l-2.8,2.1V160z M263.9,166.9
		c-0.1,0.8-0.1,1.4-0.1,1.9c0,1,0,1.6,0.1,2c1-0.7,2.4-2.6,2.4-3.7c0-0.6-0.5-1.1-1.1-1.1C264.6,166,264.2,166.3,263.9,166.9z"/>
</g>
<rect x="286.7" y="170.4" width="10.5" height="0.8"/>
<rect x="288.5" y="171.5" width="0.5" height="18.9"/>
<g>
	<path d="M288.6,171.6c0-1.8,2.5-3.5,4.5-3.5c1.3,0,2.3,0.7,2.3,1.7c0,1.7-2.5,3.5-4.6,3.5C289.5,173.3,288.6,172.7,288.6,171.6z"/>
</g>
<rect x="306.8" y="174" width="0.5" height="16.4"/>
<g>
	<path d="M306.9,174.1c0-1.8,2.5-3.5,4.5-3.5c1.3,0,2.3,0.7,2.3,1.7c0,1.7-2.5,3.5-4.6,3.5C307.8,175.8,306.9,175.2,306.9,174.1z"/>
</g>
<g>
	<path d="M304.9,180v-4l-3,1.1v-10.7h0.5v4l3-1.1V180H304.9z M302.4,175.3l2.5-0.9v-3.3l-2.5,0.9V175.3z"/>
</g>
<rect x="325.1" y="174" width="0.5" height="16.4"/>
<g>
	<path d="M325.2,174.1c0-1.8,2.5-3.5,4.5-3.5c1.3,0,2.3,0.7,2.3,1.7c0,1.7-2.5,3.5-4.6,3.5C326.1,175.8,325.2,175.2,325.2,174.1z"/>
</g>
<g>
	<path d="M319.3,164.9h0.6l-0.1,6.2c0.4-0.7,1-1,1.8-1c1.2,0,2.2,0.8,2.2,1.9c0,0.8-0.5,1.8-1.7,2.7l-2.8,2.1V164.9z M319.8,171.8
		c-0.1,0.8-0.1,1.4-0.1,1.9c0,1,0,1.6,0.1,2c1-0.7,2.4-2.6,2.4-3.7c0-0.6-0.5-1.1-1.1-1.1C320.6,171,320.1,171.3,319.8,171.8z"/>
</g>
<rect x="343.4" y="176.5" width="0.5" height="18.9"/>
<g>
	<path d="M343.4,176.6c0-1.8,2.5-3.5,4.5-3.5c1.3,0,2.3,0.7,2.3,1.7c0,1.7-2.5,3.5-4.6,3.5C344.4,178.3,343.4,177.7,343.4,176.6z"/>
</g>
<g>
	<path d="M341.5,182.5v-4l-3,1.1v-10.7h0.5v4l3-1.1v10.7H341.5z M339,177.8l2.5-0.9v-3.3l-2.5,0.9V177.8z"/>
</g>
<rect x="361.5" y="176.5" width="0.5" height="19.2"/>
<g>
	<path d="M361.6,176.6c0-1.8,2.5-3.5,4.5-3.5c1.3,0,2.3,0.7,2.3,1.7c0,1.7-2.5,3.5-4.6,3.5C362.6,178.3,361.6,177.7,361.6,176.6z"/>
</g>
<g>
	<path d="M355.7,167.4h0.6l-0.1,6.2c0.4-0.7,1-1,1.8-1c1.2,0,2.2,0.8,2.2,1.9c0,0.8-0.5,1.8-1.7,2.7l-2.8,2.1V167.4z M356.3,174.3
		c-0.1,0.8-0.1,1.4-0.1,1.9c0,1,0,1.6,0.1,2c1-0.7,2.4-2.6,2.4-3.7c0-0.6-0.5-1.1-1.1-1.1C357,173.5,356.6,173.8,356.3,174.3z"/>
</g>
<rect x="379.8" y="179" width="0.5" height="17.2"/>
<g>
	<path d="M379.9,179.1c0-1.8,2.5-3.5,4.5-3.5c1.3,0,2.3,0.7,2.3,1.7c0,1.7-2.5,3.5-4.6,3.5C380.8,180.8,379.9,180.1,379.9,179.1z"/>
</g>
<g>
	<path d="M378,185v-4l-3,1.1v-10.7h0.5v4l3-1.1V185H378z M375.4,180.3l2.5-0.9v-3.3l-2.5,0.9V180.3z"/>
</g>
<rect x="398.1" y="179" width="0.5" height="17.7"/>
<g>
	<path d="M398.2,179.1c0-1.8,2.5-3.5,4.5-3.5c1.3,0,2.3,0.7,2.3,1.7c0,1.7-2.5,3.5-4.6,3.5C399.1,180.8,398.2,180.1,398.2,179.1z"/>
</g>
<g>
	<path d="M392.3,169.9h0.6l-0.1,6.2c0.4-0.7,1-1,1.8-1c1.2,0,2.2,0.8,2.2,1.9c0,0.8-0.5,1.8-1.7,2.7l-2.8,2.1V169.9z M392.9,176.8
		c-0.1,0.8-0.1,1.4-0.1,1.9c0,1,0,1.6,0.1,2c1-0.7,2.4-2.6,2.4-3.7c0-0.6-0.5-1.1-1.1-1.1C393.6,176,393.1,176.2,392.9,176.8z"/>
</g>
<rect x="416.2" y="181.5" width="0.5" height="20.2"/>
<g>
	<path d="M416.3,181.5c0-1.8,2.5-3.5,4.5-3.5c1.3,0,2.3,0.7,2.3,1.7c0,1.7-2.5,3.5-4.6,3.5C417.3,183.3,416.3,182.6,416.3,181.5z"/>
</g>
<rect x="434.5" y="183.9" width="0.5" height="18.4"/>
<g>
	<path d="M434.6,184c0-1.8,2.5-3.5,4.5-3.5c1.3,0,2.3,0.7,2.3,1.7c0,1.7-2.5,3.5-4.6,3.5C435.6,185.7,434.6,185.1,434.6,184z"/>
</g>
<g>
	<path d="M432.7,189.9v-4l-3,1.1v-10.7h0.5v4l3-1.1v10.7H432.7z M430.1,185.3l2.5-0.9V181l-2.5,0.9V185.3z"/>
</g>
<rect x="452.8" y="183.9" width="0.5" height="19.2"/>
<g>
	<path d="M452.9,184c0-1.8,2.5-3.5,4.5-3.5c1.3,0,2.3,0.7,2.3,1.7c0,1.7-2.5,3.5-4.6,3.5C453.9,185.7,452.9,185.1,452.9,184z"/>
</g>
<g>
	<path d="M447,174.8h0.6l-0.1,6.2c0.4-0.7,1-1,1.8-1c1.2,0,2.2,0.8,2.2,1.9c0,0.8-0.5,1.8-1.7,2.7l-2.8,2.1V174.8z M447.6,181.8
		c-0.1,0.8-0.1,1.4-0.1,1.9c0,1,0,1.6,0.1,2c1-0.7,2.4-2.6,2.4-3.7c0-0.6-0.5-1.1-1.1-1.1C448.3,180.9,447.9,181.2,447.6,181.8z"/>
</g>
<rect x="471.1" y="186.4" width="0.5" height="17.7"/>
<g>
	<path d="M471.2,186.5c0-1.8,2.5-3.5,4.5-3.5c1.3,0,2.3,0.7,2.3,1.7c0,1.7-2.5,3.5-4.6,3.5C472.2,188.2,471.2,187.6,471.2,186.5z"/>
</g>
<g>
	<path d="M469.3,192.4v-4l-3,1.1v-10.7h0.5v4l3-1.1v10.7H469.3z M466.7,187.7l2.5-0.9v-3.3l-2.5,0.9V187.7z"/>
</g>
<rect x="489.2" y="186.4" width="0.5" height="16.6"/>
<g>
	<path d="M493.6,182.9c1.6,0,2.7,0.7,2.7,2c0,1.9-2.3,3.4-4.5,3.4c-1.3,0-2.4-0.7-2.4-1.8C489.3,184.7,491.6,182.9,493.6,182.9z
		 M489.8,186.8c0,0.6,0.4,0.9,1.1,0.9c1.4,0,4.9-2.1,4.9-3.3c0-0.6-0.4-0.9-1.1-0.9C493.4,183.5,489.8,185.6,489.8,186.8z"/>
</g>
<g>
	<path d="M483.4,177.3h0.6l-0.1,6.2c0.4-0.7,1-1,1.8-1c1.2,0,2.2,0.8,2.2,1.9c0,0.8-0.5,1.8-1.7,2.7l-2.8,2.1V177.3z M484,184.2
		c-0.1,0.8-0.1,1.4-0.1,1.9c0,1,0,1.6,0.1,2c1-0.7,2.4-2.6,2.4-3.7c0-0.6-0.5-1.1-1.1-1.1C484.7,183.4,484.3,183.7,484,184.2z"/>
</g>
</svg>
