<?xml version="1.0" encoding="utf-8"?>

<!--
	ScaleBook
	Copyright (c) Leland Jansen 2015. All rights reserved.
-->

<!DOCTYPE svg PUBLIC "-//W3C//DTD SVG 1.1//EN" "http://www.w3.org/Graphics/SVG/1.1/DTD/svg11.dtd">
<svg version="1.1" id="Layer_1" xmlns="http://www.w3.org/2000/svg" xmlns:xlink="http://www.w3.org/1999/xlink" x="0px" y="0px"
	 viewBox="0 0 553 198.2" enable-background="new 0 0 553 198.2" xml:space="preserve">
<rect x="8.4" y="9.7" width="0.8" height="67"/>
<g>
	<path d="M7.4,10.4c-1.9,1.1-3.6,5.8-3.6,9.4c0,2.3,1.4,9.9,1.4,12.3c0,5-1.5,8.6-4.6,11.1c3,2.4,4.6,6.1,4.6,11.1
		c0,2.3-1.4,9.9-1.4,12.3c0,3.8,1.7,8.4,3.6,9.5v0.7c-3.5-2.3-5.8-8.2-5.8-13.1c0-2.1,1.7-9.4,1.7-11.5c0-3.8-1-6.6-2.9-8.2
		C0.1,43.6,0,43.4,0,43.2c0-0.2,0.1-0.4,0.5-0.7c1.9-1.7,2.9-4.2,2.9-7.6c0-2.1-1.7-10-1.7-12.2c0-5.2,2.1-10.4,5.8-13.1V10.4z"/>
</g>
<rect x="8.4" y="122.6" width="0.8" height="67"/>
<g>
	<path d="M7.4,123.2c-1.9,1.1-3.6,5.8-3.6,9.4c0,2.3,1.4,9.9,1.4,12.3c0,5-1.5,8.6-4.6,11.1c3,2.4,4.6,6.1,4.6,11.1
		c0,2.3-1.4,9.9-1.4,12.3c0,3.8,1.7,8.4,3.6,9.5v0.7c-3.5-2.3-5.8-8.2-5.8-13.1c0-2.1,1.7-9.4,1.7-11.5c0-3.8-1-6.6-2.9-8.2
		C0.1,156.4,0,156.2,0,156c0-0.2,0.1-0.4,0.5-0.7c1.9-1.7,2.9-4.2,2.9-7.6c0-2.1-1.7-10-1.7-12.2c0-5.2,2.1-10.4,5.8-13.1V123.2z"/>
</g>
<rect x="552.2" y="9.7" width="0.8" height="67"/>
<rect x="547.8" y="122.6" width="0.8" height="67"/>
<rect x="550.4" y="122.6" width="2.5" height="67"/>
<rect x="8.5" y="29.3" width="544.4" height="0.5"/>
<rect x="8.5" y="24.4" width="544.4" height="0.5"/>
<rect x="8.5" y="19.4" width="544.4" height="0.5"/>
<rect x="8.5" y="14.4" width="544.4" height="0.5"/>
<rect x="8.5" y="9.5" width="544.4" height="0.5"/>
<g>
	<path d="M20.3,29.4c-4.2,0-8.1-3.1-8.1-6.9c0-3.2,2.3-6.7,6.8-10.5c-0.3-1.2-0.4-2.4-0.4-3.6c0-3.5,1.2-6.8,3.2-8.5
		c1.8,2.5,2.7,4.9,2.7,7.1c0,2.9-1.3,5.6-4.3,8.1l0.9,4.2c0.5,0,0.8-0.1,0.8-0.1c2.6,0,4.8,2,4.8,4.7c0,1.9-1.4,3.7-3.6,4.8
		c0-0.1,0.9,3.8,0.9,4.3c0,2.5-2.3,4.2-4.9,4.2c-2,0-3.6-1.3-3.6-3.4c0-1.4,1-2.6,2.4-2.6c1.3,0,2.3,1.3,2.3,2.5
		c0,1.4-1.2,2.3-2.7,2.5c0.6,0.3,1.2,0.5,1.9,0.5c2.1,0,4.1-1.6,4.1-3.6c0-0.2,0-0.4-0.1-0.6l-0.8-3.7
		C21.9,29.3,21.2,29.4,20.3,29.4z M18.1,24.2c0,1,0.5,1.9,1.6,2.5c-1.8-0.3-3-1.4-3-3.1c0-2,1.7-3.7,3.8-4.1l-0.8-4
		C16,18.3,14,21,14,23.6c0,2.9,2.8,5.3,6,5.3c0.9,0,1.7-0.2,2.4-0.5L21,21.6C19.4,21.8,18.1,22.8,18.1,24.2z M22.1,2.8
		c-1.6,0-2.9,3.7-2.9,7c0,0.7,0,1.3,0.2,1.9c2.7-2.4,4-4.5,4-6.5c0-0.9-0.3-1.7-1-2.4C22.4,2.9,22.3,2.8,22.1,2.8z M24.9,24.7
		c0-1.6-1.2-3.3-2.9-3.3c-0.1,0-0.2,0-0.5,0l1.4,6.6C24.2,27.2,24.9,26,24.9,24.7z"/>
</g>
<polygon fill-rule="evenodd" clip-rule="evenodd" points="43.6,25.8 108.1,24.6 108.1,22.1 43.6,23.4 "/>
<polygon fill-rule="evenodd" clip-rule="evenodd" points="43.6,22.1 108.1,20.9 108.1,18.4 43.6,19.6 "/>
<polygon fill-rule="evenodd" clip-rule="evenodd" points="129.7,25.8 194.2,24.6 194.2,22.1 129.7,23.4 "/>
<polygon fill-rule="evenodd" clip-rule="evenodd" points="129.7,22.1 194.2,20.9 194.2,18.4 129.7,19.6 "/>
<polygon fill-rule="evenodd" clip-rule="evenodd" points="215.6,20.9 280,19.6 280,17.2 215.6,18.4 "/>
<polygon fill-rule="evenodd" clip-rule="evenodd" points="215.6,17.2 280,15.9 280,13.4 215.6,14.7 "/>
<polygon fill-rule="evenodd" clip-rule="evenodd" points="301.6,15.9 366.1,11 366.1,8.5 301.6,13.4 "/>
<polygon fill-rule="evenodd" clip-rule="evenodd" points="301.6,12.2 366.1,7.2 366.1,4.8 301.6,9.7 "/>
<polygon fill-rule="evenodd" clip-rule="evenodd" points="381.1,34.5 445.6,32 445.6,29.6 381.1,32 "/>
<polygon fill-rule="evenodd" clip-rule="evenodd" points="381.1,38.2 445.6,35.8 445.6,33.3 381.1,35.8 "/>
<polygon fill-rule="evenodd" clip-rule="evenodd" points="467,27.1 531.5,25.8 531.5,23.4 467,24.6 "/>
<polygon fill-rule="evenodd" clip-rule="evenodd" points="467,30.8 531.5,29.6 531.5,27.1 467,28.3 "/>
<rect x="8.5" y="76.4" width="544.4" height="0.5"/>
<rect x="8.5" y="71.5" width="544.4" height="0.5"/>
<rect x="8.5" y="66.5" width="544.4" height="0.5"/>
<rect x="8.5" y="61.6" width="544.4" height="0.5"/>
<rect x="8.5" y="56.6" width="544.4" height="0.5"/>
<g>
	<path d="M15.7,71c2.9-2.6,4.7-6.1,4.7-9.2c0-2.5-1.4-4.4-3.7-4.4c-1.6,0-3.4,1.3-3.4,2.7c0,0.2,0,0.3,0.1,0.3
		c-0.1,0,0.6-0.6,1.4-0.6c0.9,0,1.5,0.8,1.5,1.7c0,1.2-0.9,2.2-2.1,2.2c-1.2,0-2.1-1.3-2.1-2.8c0-2.3,2.3-4.1,4.8-4.1
		c4.7,0,5.9,3.2,5.9,5.8c0,1.6-0.4,2.9-2,5.3c-1.9,3.1-6.4,5.3-8.1,5.3c-0.4,0-0.6-0.2-0.6-0.5C13.8,72.3,14.9,71.7,15.7,71z
		 M25.7,58.3c0.6,0,1,0.4,1,1c0,0.6-0.4,1-1,1s-1-0.4-1-1C24.7,58.8,25.1,58.3,25.7,58.3z M25.7,63.3c0.6,0,1,0.4,1,1
		c0,0.6-0.4,1-1,1s-1-0.4-1-1C24.7,63.7,25.1,63.3,25.7,63.3z"/>
</g>
<polygon fill-rule="evenodd" clip-rule="evenodd" points="43.6,68 108.1,63 108.1,60.6 43.6,65.5 "/>
<polygon fill-rule="evenodd" clip-rule="evenodd" points="43.6,64.3 108.1,59.3 108.1,56.8 43.6,61.8 "/>
<polygon fill-rule="evenodd" clip-rule="evenodd" points="129.7,63 194.2,58.1 194.2,55.6 129.7,60.6 "/>
<polygon fill-rule="evenodd" clip-rule="evenodd" points="129.7,59.3 194.2,54.4 194.2,51.9 129.7,56.8 "/>
<polygon fill-rule="evenodd" clip-rule="evenodd" points="209,79.2 273.5,77.9 273.5,75.4 209,76.7 "/>
<polygon fill-rule="evenodd" clip-rule="evenodd" points="209,82.9 273.5,81.6 273.5,79.2 209,80.4 "/>
<polygon fill-rule="evenodd" clip-rule="evenodd" points="295.1,73.3 359.6,72.6 359.6,70.2 295.1,70.8 "/>
<polygon fill-rule="evenodd" clip-rule="evenodd" points="295.1,77 359.6,76.4 359.6,73.9 295.1,74.5 "/>
<polygon fill-rule="evenodd" clip-rule="evenodd" points="381.1,68.3 445.6,67.7 445.6,65.2 381.1,65.8 "/>
<polygon fill-rule="evenodd" clip-rule="evenodd" points="381.1,72 445.6,71.4 445.6,68.9 381.1,69.5 "/>
<polygon fill-rule="evenodd" clip-rule="evenodd" points="467,64.3 531.5,63 531.5,60.6 467,61.8 "/>
<polygon fill-rule="evenodd" clip-rule="evenodd" points="467,68 531.5,66.8 531.5,64.3 467,65.5 "/>
<rect x="8.5" y="142.2" width="544.4" height="0.5"/>
<rect x="8.5" y="137.2" width="544.4" height="0.5"/>
<rect x="8.5" y="132.3" width="544.4" height="0.5"/>
<rect x="8.5" y="127.3" width="544.4" height="0.5"/>
<rect x="8.5" y="122.3" width="544.4" height="0.5"/>
<g>
	<path d="M20.3,142.2c-4.2,0-8.1-3.1-8.1-6.9c0-3.2,2.3-6.7,6.8-10.5c-0.3-1.2-0.4-2.4-0.4-3.6c0-3.5,1.2-6.8,3.2-8.5
		c1.8,2.5,2.7,4.9,2.7,7.1c0,2.9-1.3,5.6-4.3,8.1l0.9,4.2c0.5,0,0.8-0.1,0.8-0.1c2.6,0,4.8,2,4.8,4.7c0,1.9-1.4,3.7-3.6,4.8
		c0-0.1,0.9,3.8,0.9,4.3c0,2.5-2.3,4.2-4.9,4.2c-2,0-3.6-1.3-3.6-3.4c0-1.4,1-2.6,2.4-2.6c1.3,0,2.3,1.3,2.3,2.5
		c0,1.4-1.2,2.3-2.7,2.5c0.6,0.3,1.2,0.5,1.9,0.5c2.1,0,4.1-1.6,4.1-3.6c0-0.2,0-0.4-0.1-0.6l-0.8-3.7
		C21.9,142.1,21.2,142.2,20.3,142.2z M18.1,137c0,1,0.5,1.9,1.6,2.5c-1.8-0.3-3-1.4-3-3.1c0-2,1.7-3.7,3.8-4.1l-0.8-4
		c-3.7,2.8-5.7,5.5-5.7,8.1c0,2.9,2.8,5.3,6,5.3c0.9,0,1.7-0.2,2.4-0.5l-1.4-6.8C19.4,134.6,18.1,135.7,18.1,137z M22.1,115.7
		c-1.6,0-2.9,3.7-2.9,7c0,0.7,0,1.3,0.2,1.9c2.7-2.4,4-4.5,4-6.5c0-0.9-0.3-1.7-1-2.4C22.4,115.7,22.3,115.7,22.1,115.7z
		 M24.9,137.6c0-1.6-1.2-3.3-2.9-3.3c-0.1,0-0.2,0-0.5,0l1.4,6.6C24.2,140,24.9,138.9,24.9,137.6z"/>
</g>
<polygon fill-rule="evenodd" clip-rule="evenodd" points="37.1,138.4 93.4,139 93.4,136.5 37.1,135.9 "/>
<polygon fill-rule="evenodd" clip-rule="evenodd" points="37.1,142.1 93.4,142.7 93.4,140.2 37.1,139.6 "/>
<rect x="112.3" y="142.4" fill-rule="evenodd" clip-rule="evenodd" width="56.3" height="2.5"/>
<rect x="112.3" y="146.1" fill-rule="evenodd" clip-rule="evenodd" width="56.3" height="2.5"/>
<polygon fill-rule="evenodd" clip-rule="evenodd" points="193.9,122.6 250.3,123.8 250.3,121.3 193.9,120.1 "/>
<polygon fill-rule="evenodd" clip-rule="evenodd" points="193.9,118.8 250.3,120.1 250.3,117.6 193.9,116.4 "/>
<polygon fill-rule="evenodd" clip-rule="evenodd" points="269,128.8 325.3,133.7 325.3,131.2 269,126.3 "/>
<polygon fill-rule="evenodd" clip-rule="evenodd" points="269,125 325.3,130 325.3,127.5 269,122.6 "/>
<polygon fill-rule="evenodd" clip-rule="evenodd" points="344.1,133.7 400.5,138.7 400.5,136.2 344.1,131.2 "/>
<polygon fill-rule="evenodd" clip-rule="evenodd" points="344.1,130 400.5,135 400.5,132.5 344.1,127.5 "/>
<polygon fill-rule="evenodd" clip-rule="evenodd" points="419.2,137.4 475.7,138.7 475.7,136.2 419.2,135 "/>
<polygon fill-rule="evenodd" clip-rule="evenodd" points="419.2,133.7 475.7,135 475.7,132.5 419.2,131.2 "/>
<rect x="8.5" y="189.3" width="544.4" height="0.5"/>
<rect x="8.5" y="184.3" width="544.4" height="0.5"/>
<rect x="8.5" y="179.4" width="544.4" height="0.5"/>
<rect x="8.5" y="174.4" width="544.4" height="0.5"/>
<rect x="8.5" y="169.5" width="544.4" height="0.5"/>
<g>
	<path d="M15.7,183.9c2.9-2.6,4.7-6.1,4.7-9.2c0-2.5-1.4-4.4-3.7-4.4c-1.6,0-3.4,1.3-3.4,2.7c0,0.2,0,0.3,0.1,0.3
		c-0.1,0,0.6-0.6,1.4-0.6c0.9,0,1.5,0.8,1.5,1.7c0,1.2-0.9,2.2-2.1,2.2c-1.2,0-2.1-1.3-2.1-2.8c0-2.3,2.3-4.1,4.8-4.1
		c4.7,0,5.9,3.2,5.9,5.8c0,1.6-0.4,2.9-2,5.3c-1.9,3.1-6.4,5.3-8.1,5.3c-0.4,0-0.6-0.2-0.6-0.5C13.8,185.1,14.9,184.6,15.7,183.9z
		 M25.7,171.2c0.6,0,1,0.4,1,1c0,0.6-0.4,1-1,1s-1-0.4-1-1C24.7,171.6,25.1,171.2,25.7,171.2z M25.7,176.1c0.6,0,1,0.4,1,1
		c0,0.6-0.4,1-1,1s-1-0.4-1-1C24.7,176.6,25.1,176.1,25.7,176.1z"/>
</g>
<polygon fill-rule="evenodd" clip-rule="evenodd" points="37.1,175.9 93.4,177.1 93.4,174.6 37.1,173.4 "/>
<polygon fill-rule="evenodd" clip-rule="evenodd" points="37.1,179.6 93.4,180.8 93.4,178.4 37.1,177.1 "/>
<rect x="112.3" y="178.4" fill-rule="evenodd" clip-rule="evenodd" width="56.3" height="2.5"/>
<rect x="112.3" y="182.1" fill-rule="evenodd" clip-rule="evenodd" width="56.3" height="2.5"/>
<polygon fill-rule="evenodd" clip-rule="evenodd" points="187.3,185.8 243.8,187 243.8,184.6 187.3,183.3 "/>
<polygon fill-rule="evenodd" clip-rule="evenodd" points="187.3,189.5 243.8,190.8 243.8,188.3 187.3,187 "/>
<polygon fill-rule="evenodd" clip-rule="evenodd" points="262.5,192 318.8,194.5 318.8,192 262.5,189.5 "/>
<polygon fill-rule="evenodd" clip-rule="evenodd" points="262.5,195.7 318.8,198.2 318.8,195.7 262.5,193.2 "/>
<polygon fill-rule="evenodd" clip-rule="evenodd" points="344.1,167.2 400.5,169.7 400.5,167.2 344.1,164.7 "/>
<polygon fill-rule="evenodd" clip-rule="evenodd" points="344.1,163.5 400.5,166 400.5,163.5 344.1,161 "/>
<polygon fill-rule="evenodd" clip-rule="evenodd" points="419.2,174.6 475.7,175.9 475.7,173.4 419.2,172.2 "/>
<polygon fill-rule="evenodd" clip-rule="evenodd" points="419.2,170.9 475.7,172.2 475.7,169.7 419.2,168.4 "/>
<rect x="35.1" y="34.1" width="10.5" height="0.8"/>
<rect x="35.1" y="39.1" width="10.5" height="0.8"/>
<rect x="35.1" y="44.1" width="10.5" height="0.8"/>
<rect x="43.4" y="19.8" width="0.5" height="23.9"/>
<g>
	<path d="M37,45.3c0-1.8,2.5-3.5,4.5-3.5c1.3,0,2.3,0.7,2.3,1.7c0,1.7-2.5,3.5-4.6,3.5C38,47,37,46.4,37,45.3z"/>
</g>
<rect x="56.7" y="34.1" width="10.5" height="0.8"/>
<rect x="56.7" y="39.1" width="10.5" height="0.8"/>
<rect x="65" y="19.5" width="0.5" height="21.7"/>
<g>
	<path d="M58.5,42.8c0-1.8,2.5-3.5,4.5-3.5c1.3,0,2.3,0.7,2.3,1.7c0,1.7-2.5,3.5-4.6,3.5C59.5,44.5,58.5,43.9,58.5,42.8z"/>
</g>
<g>
	<path d="M51.4,33.6H52l-0.1,6.2c0.4-0.7,1-1,1.8-1c1.2,0,2.2,0.8,2.2,1.9c0,0.8-0.5,1.8-1.7,2.7l-2.8,2.1V33.6z M52,40.6
		c-0.1,0.8-0.1,1.4-0.1,1.9c0,1,0,1.6,0.1,2c1-0.7,2.4-2.6,2.4-3.7c0-0.6-0.5-1.1-1.1-1.1C52.7,39.7,52.3,40,52,40.6z"/>
</g>
<rect x="78.1" y="34.1" width="10.5" height="0.8"/>
<rect x="78.1" y="39.1" width="10.5" height="0.8"/>
<rect x="86.4" y="19" width="0.5" height="22.2"/>
<g>
	<path d="M79.9,42.8c0-1.8,2.5-3.5,4.5-3.5c1.3,0,2.3,0.7,2.3,1.7c0,1.7-2.5,3.5-4.6,3.5C80.9,44.5,79.9,43.9,79.9,42.8z"/>
</g>
<g>
	<path d="M76.8,48.7v-4l-3,1.1V35.2h0.5v4l3-1.1v10.7H76.8z M74.2,44.1l2.5-0.9v-3.3l-2.5,0.9V44.1z"/>
</g>
<rect x="99.6" y="34.1" width="10.5" height="0.8"/>
<rect x="99.6" y="39.1" width="10.5" height="0.8"/>
<rect x="107.9" y="18.6" width="0.5" height="20.2"/>
<g>
	<path d="M101.5,40.3c0-1.8,2.5-3.5,4.5-3.5c1.3,0,2.3,0.7,2.3,1.7c0,1.7-2.5,3.5-4.6,3.5C102.4,42.1,101.5,41.4,101.5,40.3z"/>
</g>
<g>
	<path d="M94.3,31.2H95l-0.1,6.2c0.4-0.7,1-1,1.8-1c1.2,0,2.2,0.8,2.2,1.9c0,0.8-0.5,1.8-1.7,2.7l-2.8,2.1V31.2z M94.9,38.1
		c-0.1,0.8-0.1,1.4-0.1,1.9c0,1,0,1.6,0.1,2c1-0.7,2.4-2.6,2.4-3.7c0-0.6-0.5-1.1-1.1-1.1C95.6,37.2,95.2,37.5,94.9,38.1z"/>
</g>
<rect x="121.2" y="34.1" width="10.5" height="0.8"/>
<rect x="121.2" y="39.1" width="10.5" height="0.8"/>
<rect x="129.4" y="19.8" width="0.5" height="18.9"/>
<g>
	<path d="M123,40.3c0-1.8,2.5-3.5,4.5-3.5c1.3,0,2.3,0.7,2.3,1.7c0,1.7-2.5,3.5-4.6,3.5C124,42.1,123,41.4,123,40.3z"/>
</g>
<g>
	<path d="M119.9,46.2v-4l-3,1.1V32.7h0.5v4l3-1.1v10.7H119.9z M117.3,41.6l2.5-0.9v-3.3l-2.5,0.9V41.6z"/>
</g>
<rect x="142.5" y="34.1" width="10.5" height="0.8"/>
<rect x="150.8" y="19.5" width="0.5" height="16.7"/>
<g>
	<path d="M144.4,37.9c0-1.8,2.5-3.5,4.5-3.5c1.3,0,2.3,0.7,2.3,1.7c0,1.7-2.5,3.5-4.6,3.5C145.4,39.6,144.4,38.9,144.4,37.9z"/>
</g>
<g>
	<path d="M137.3,28.7h0.6l-0.1,6.2c0.4-0.7,1-1,1.8-1c1.2,0,2.2,0.8,2.2,1.9c0,0.8-0.5,1.8-1.7,2.7l-2.8,2.1V28.7z M137.9,35.6
		c-0.1,0.8-0.1,1.4-0.1,1.9c0,1,0,1.6,0.1,2c1-0.7,2.4-2.6,2.4-3.7c0-0.6-0.5-1.1-1.1-1.1C138.6,34.8,138.2,35,137.9,35.6z"/>
</g>
<rect x="164.1" y="34.1" width="10.5" height="0.8"/>
<rect x="172.4" y="19" width="0.5" height="17.2"/>
<g>
	<path d="M166,37.9c0-1.8,2.5-3.5,4.5-3.5c1.3,0,2.3,0.7,2.3,1.7c0,1.7-2.5,3.5-4.6,3.5C166.9,39.6,166,38.9,166,37.9z"/>
</g>
<g>
	<path d="M162.8,43.8v-4l-3,1.1V30.2h0.5v4l3-1.1v10.7H162.8z M160.3,39.1l2.5-0.9v-3.3l-2.5,0.9V39.1z"/>
</g>
<rect x="185.6" y="34.1" width="10.5" height="0.8"/>
<rect x="193.9" y="18.6" width="0.5" height="15.2"/>
<g>
	<path d="M187.5,35.4c0-1.8,2.5-3.5,4.5-3.5c1.3,0,2.3,0.7,2.3,1.7c0,1.7-2.5,3.5-4.6,3.5C188.5,37.1,187.5,36.5,187.5,35.4z"/>
</g>
<rect x="215.3" y="14.8" width="0.5" height="16.4"/>
<g>
	<path d="M208.9,32.9c0-1.8,2.5-3.5,4.5-3.5c1.3,0,2.3,0.7,2.3,1.7c0,1.7-2.5,3.5-4.6,3.5C209.9,34.6,208.9,34,208.9,32.9z"/>
</g>
<g>
	<path d="M203,23.7h0.6l-0.1,6.2c0.4-0.7,1-1,1.8-1c1.2,0,2.2,0.8,2.2,1.9c0,0.8-0.5,1.8-1.7,2.7l-2.8,2.1V23.7z M203.6,30.6
		c-0.1,0.8-0.1,1.4-0.1,1.9c0,1,0,1.6,0.1,2c1-0.7,2.4-2.6,2.4-3.7c0-0.6-0.5-1.1-1.1-1.1C204.3,29.8,203.9,30.1,203.6,30.6z"/>
</g>
<rect x="236.9" y="14.5" width="0.5" height="16.7"/>
<g>
	<path d="M230.4,32.9c0-1.8,2.5-3.5,4.5-3.5c1.3,0,2.3,0.7,2.3,1.7c0,1.7-2.5,3.5-4.6,3.5C231.4,34.6,230.4,34,230.4,32.9z"/>
</g>
<g>
	<path d="M228.5,38.8v-4l-3,1.1V25.2h0.5v4l3-1.1v10.7H228.5z M226,34.1l2.5-0.9v-3.3l-2.5,0.9V34.1z"/>
</g>
<rect x="258.4" y="14.1" width="0.5" height="14.7"/>
<g>
	<path d="M252,30.4c0-1.8,2.5-3.5,4.5-3.5c1.3,0,2.3,0.7,2.3,1.7c0,1.7-2.5,3.5-4.6,3.5C253,32.1,252,31.5,252,30.4z"/>
</g>
<g>
	<path d="M246.1,21.2h0.6l-0.1,6.2c0.4-0.7,1-1,1.8-1c1.2,0,2.2,0.8,2.2,1.9c0,0.8-0.5,1.8-1.7,2.7l-2.8,2.1V21.2z M246.7,28.1
		c-0.1,0.8-0.1,1.4-0.1,1.9c0,1,0,1.6,0.1,2c1-0.7,2.4-2.6,2.4-3.7c0-0.6-0.5-1.1-1.1-1.1C247.4,27.3,247,27.6,246.7,28.1z"/>
</g>
<rect x="279.8" y="13.6" width="0.5" height="15.2"/>
<g>
	<path d="M273.4,30.4c0-1.8,2.5-3.5,4.5-3.5c1.3,0,2.3,0.7,2.3,1.7c0,1.7-2.5,3.5-4.6,3.5C274.4,32.1,273.4,31.5,273.4,30.4z"/>
</g>
<g>
	<path d="M271.5,36.3v-4l-3,1.1V22.8h0.5v4l3-1.1v10.7H271.5z M268.9,31.7l2.5-0.9v-3.3l-2.5,0.9V31.7z"/>
</g>
<rect x="301.4" y="9.9" width="0.5" height="16.4"/>
<g>
	<path d="M294.9,27.9c0-1.8,2.5-3.5,4.5-3.5c1.3,0,2.3,0.7,2.3,1.7c0,1.7-2.5,3.5-4.6,3.5C295.9,29.7,294.9,29,294.9,27.9z"/>
</g>
<rect x="322.9" y="8.3" width="0.5" height="15.5"/>
<g>
	<path d="M316.5,25.5c0-1.8,2.5-3.5,4.5-3.5c1.3,0,2.3,0.7,2.3,1.7c0,1.7-2.5,3.5-4.6,3.5C317.4,27.2,316.5,26.5,316.5,25.5z"/>
</g>
<g>
	<path d="M310.6,16.3h0.6l-0.1,6.2c0.4-0.7,1-1,1.8-1c1.2,0,2.2,0.8,2.2,1.9c0,0.8-0.5,1.8-1.7,2.7l-2.8,2.1V16.3z M311.2,23.2
		c-0.1,0.8-0.1,1.4-0.1,1.9c0,1,0,1.6,0.1,2c1-0.7,2.4-2.6,2.4-3.7c0-0.6-0.5-1.1-1.1-1.1C311.9,22.4,311.5,22.6,311.2,23.2z"/>
</g>
<rect x="344.3" y="6.6" width="0.5" height="17.2"/>
<g>
	<path d="M337.9,25.5c0-1.8,2.5-3.5,4.5-3.5c1.3,0,2.3,0.7,2.3,1.7c0,1.7-2.5,3.5-4.6,3.5C338.8,27.2,337.9,26.5,337.9,25.5z"/>
</g>
<g>
	<path d="M335.9,31.4v-4l-3,1.1V17.8h0.5v4l3-1.1v10.7H335.9z M333.4,26.7l2.5-0.9v-3.3l-2.5,0.9V26.7z"/>
</g>
<rect x="365.8" y="4.9" width="0.5" height="16.4"/>
<g>
	<path d="M359.4,23c0-1.8,2.5-3.5,4.5-3.5c1.3,0,2.3,0.7,2.3,1.7c0,1.7-2.5,3.5-4.6,3.5C360.4,24.7,359.4,24.1,359.4,23z"/>
</g>
<g>
	<path d="M353.5,13.8h0.6l-0.1,6.2c0.4-0.7,1-1,1.8-1c1.2,0,2.2,0.8,2.2,1.9c0,0.8-0.5,1.8-1.7,2.7l-2.8,2.1V13.8z M354.1,20.7
		c-0.1,0.8-0.1,1.4-0.1,1.9c0,1,0,1.6,0.1,2c1-0.7,2.4-2.6,2.4-3.7c0-0.6-0.5-1.1-1.1-1.1C354.8,19.9,354.4,20.2,354.1,20.7z"/>
</g>
<rect x="380.9" y="22.9" width="0.5" height="15.2"/>
<g>
	<path d="M381,23c0-1.8,2.5-3.5,4.5-3.5c1.3,0,2.3,0.7,2.3,1.7c0,1.7-2.5,3.5-4.6,3.5C381.9,24.7,381,24.1,381,23z"/>
</g>
<g>
	<path d="M379,28.9v-4l-3,1.1V15.3h0.5v4l3-1.1v10.7H379z M376.5,24.2l2.5-0.9V20l-2.5,0.9V24.2z"/>
</g>
<rect x="402.3" y="20.4" width="0.5" height="16.9"/>
<g>
	<path d="M402.4,20.5c0-1.8,2.5-3.5,4.5-3.5c1.3,0,2.3,0.7,2.3,1.7c0,1.7-2.5,3.5-4.6,3.5C403.3,22.2,402.4,21.6,402.4,20.5z"/>
</g>
<g>
	<path d="M396.5,11.3h0.6l-0.1,6.2c0.4-0.7,1-1,1.8-1c1.2,0,2.2,0.8,2.2,1.9c0,0.8-0.5,1.8-1.7,2.7l-2.8,2.1V11.3z M397,18.2
		c-0.1,0.8-0.1,1.4-0.1,1.9c0,1,0,1.6,0.1,2c1-0.7,2.4-2.6,2.4-3.7c0-0.6-0.5-1.1-1.1-1.1C397.8,17.4,397.3,17.7,397,18.2z"/>
</g>
<rect x="423.8" y="20.4" width="0.5" height="16.1"/>
<g>
	<path d="M423.9,20.5c0-1.8,2.5-3.5,4.5-3.5c1.3,0,2.3,0.7,2.3,1.7c0,1.7-2.5,3.5-4.6,3.5C424.9,22.2,423.9,21.6,423.9,20.5z"/>
</g>
<g>
	<path d="M422,26.4v-4l-3,1.1V12.8h0.5v4l3-1.1v10.7H422z M419.4,21.7l2.5-0.9v-3.3l-2.5,0.9V21.7z"/>
</g>
<rect x="445.4" y="17.9" width="0.5" height="17.7"/>
<g>
	<path d="M445.4,18c0-1.8,2.5-3.5,4.5-3.5c1.3,0,2.3,0.7,2.3,1.7c0,1.7-2.5,3.5-4.6,3.5C446.4,19.7,445.4,19.1,445.4,18z"/>
</g>
<g>
	<path d="M443.5,23.9v-4l-3,1.1V10.4h0.5v4l3-1.1v10.7H443.5z M441,19.3l2.5-0.9V15l-2.5,0.9V19.3z"/>
</g>
<rect x="466.8" y="15.5" width="0.5" height="15.2"/>
<g>
	<path d="M466.8,15.5c0-1.8,2.5-3.5,4.5-3.5c1.3,0,2.3,0.7,2.3,1.7c0,1.7-2.5,3.5-4.6,3.5C467.8,17.3,466.8,16.6,466.8,15.5z"/>
</g>
<g>
	<path d="M460.9,6.4h0.6l-0.1,6.2c0.4-0.7,1-1,1.8-1c1.2,0,2.2,0.8,2.2,1.9c0,0.8-0.5,1.8-1.7,2.7l-2.8,2.1V6.4z M461.5,13.3
		c-0.1,0.8-0.1,1.4-0.1,1.9c0,1,0,1.6,0.1,2c1-0.7,2.4-2.6,2.4-3.7c0-0.6-0.5-1.1-1.1-1.1C462.2,12.4,461.8,12.7,461.5,13.3z"/>
</g>
<rect x="488.3" y="15.5" width="0.5" height="14.9"/>
<g>
	<path d="M488.4,15.5c0-1.8,2.5-3.5,4.5-3.5c1.3,0,2.3,0.7,2.3,1.7c0,1.7-2.5,3.5-4.6,3.5C489.4,17.3,488.4,16.6,488.4,15.5z"/>
</g>
<g>
	<path d="M486.5,21.4v-4l-3,1.1V7.9h0.5v4l3-1.1v10.7H486.5z M483.9,16.8l2.5-0.9v-3.3l-2.5,0.9V16.8z"/>
</g>
<rect x="509.9" y="13" width="0.5" height="16.9"/>
<g>
	<path d="M509.9,13c0-1.8,2.5-3.5,4.5-3.5c1.3,0,2.3,0.7,2.3,1.7c0,1.7-2.5,3.5-4.6,3.5C510.9,14.8,509.9,14.1,509.9,13z"/>
</g>
<g>
	<path d="M504,3.9h0.6l-0.1,6.2c0.4-0.7,1-1,1.8-1c1.2,0,2.2,0.8,2.2,1.9c0,0.8-0.5,1.8-1.7,2.7l-2.8,2.1V3.9z M504.6,10.8
		c-0.1,0.8-0.1,1.4-0.1,1.9c0,1,0,1.6,0.1,2c1-0.7,2.4-2.6,2.4-3.7c0-0.6-0.5-1.1-1.1-1.1C505.3,10,504.9,10.2,504.6,10.8z"/>
</g>
<rect x="531.2" y="13" width="0.5" height="16.4"/>
<g>
	<path d="M531.3,13c0-1.8,2.5-3.5,4.5-3.5c1.3,0,2.3,0.7,2.3,1.7c0,1.7-2.5,3.5-4.6,3.5C532.3,14.8,531.3,14.1,531.3,13z"/>
</g>
<g>
	<path d="M529.4,19v-4l-3,1.1V5.4h0.5v4l3-1.1V19H529.4z M526.9,14.3l2.5-0.9v-3.3l-2.5,0.9V14.3z"/>
</g>
<rect x="43.4" y="62" width="0.5" height="16.4"/>
<g>
	<path d="M37,80c0-1.8,2.5-3.5,4.5-3.5c1.3,0,2.3,0.7,2.3,1.7c0,1.7-2.5,3.5-4.6,3.5C38,81.7,37,81.1,37,80z"/>
</g>
<rect x="65" y="60.4" width="0.5" height="15.5"/>
<g>
	<path d="M58.5,77.5c0-1.8,2.5-3.5,4.5-3.5c1.3,0,2.3,0.7,2.3,1.7c0,1.7-2.5,3.5-4.6,3.5C59.5,79.3,58.5,78.6,58.5,77.5z"/>
</g>
<g>
	<path d="M52.6,68.4h0.6l-0.1,6.2c0.4-0.7,1-1,1.8-1c1.2,0,2.2,0.8,2.2,1.9c0,0.8-0.5,1.8-1.7,2.7l-2.8,2.1V68.4z M53.2,75.3
		c-0.1,0.8-0.1,1.4-0.1,1.9c0,1,0,1.6,0.1,2c1-0.7,2.4-2.6,2.4-3.7c0-0.6-0.5-1.1-1.1-1.1C53.9,74.4,53.5,74.7,53.2,75.3z"/>
</g>
<rect x="86.4" y="58.7" width="0.5" height="17.2"/>
<g>
	<path d="M79.9,77.5c0-1.8,2.5-3.5,4.5-3.5c1.3,0,2.3,0.7,2.3,1.7c0,1.7-2.5,3.5-4.6,3.5C80.9,79.3,79.9,78.6,79.9,77.5z"/>
</g>
<g>
	<path d="M78,83.4v-4l-3,1.1V69.9h0.5v4l3-1.1v10.7H78z M75.5,78.8l2.5-0.9v-3.3l-2.5,0.9V78.8z"/>
</g>
<rect x="107.9" y="57" width="0.5" height="16.4"/>
<g>
	<path d="M101.5,75.1c0-1.8,2.5-3.5,4.5-3.5c1.3,0,2.3,0.7,2.3,1.7c0,1.7-2.5,3.5-4.6,3.5C102.4,76.8,101.5,76.1,101.5,75.1z"/>
</g>
<g>
	<path d="M95.6,65.9h0.6l-0.1,6.2c0.4-0.7,1-1,1.8-1c1.2,0,2.2,0.8,2.2,1.9c0,0.8-0.5,1.8-1.7,2.7l-2.8,2.1V65.9z M96.2,72.8
		c-0.1,0.8-0.1,1.4-0.1,1.9c0,1,0,1.6,0.1,2c1-0.7,2.4-2.6,2.4-3.7c0-0.6-0.5-1.1-1.1-1.1C96.9,72,96.5,72.2,96.2,72.8z"/>
</g>
<rect x="129.4" y="57" width="0.5" height="16.4"/>
<g>
	<path d="M123,75.1c0-1.8,2.5-3.5,4.5-3.5c1.3,0,2.3,0.7,2.3,1.7c0,1.7-2.5,3.5-4.6,3.5C124,76.8,123,76.1,123,75.1z"/>
</g>
<g>
	<path d="M121.1,81v-4l-3,1.1V67.4h0.5v4l3-1.1V81H121.1z M118.6,76.3l2.5-0.9v-3.3l-2.5,0.9V76.3z"/>
</g>
<rect x="150.8" y="55.4" width="0.5" height="15.5"/>
<g>
	<path d="M144.4,72.6c0-1.8,2.5-3.5,4.5-3.5c1.3,0,2.3,0.7,2.3,1.7c0,1.7-2.5,3.5-4.6,3.5C145.4,74.3,144.4,73.7,144.4,72.6z"/>
</g>
<g>
	<path d="M138.5,63.4h0.6l-0.1,6.2c0.4-0.7,1-1,1.8-1c1.2,0,2.2,0.8,2.2,1.9c0,0.8-0.5,1.8-1.7,2.7l-2.8,2.1V63.4z M139.1,70.3
		c-0.1,0.8-0.1,1.4-0.1,1.9c0,1,0,1.6,0.1,2c1-0.7,2.4-2.6,2.4-3.7c0-0.6-0.5-1.1-1.1-1.1C139.8,69.5,139.4,69.8,139.1,70.3z"/>
</g>
<rect x="172.4" y="53.7" width="0.5" height="17.2"/>
<g>
	<path d="M166,72.6c0-1.8,2.5-3.5,4.5-3.5c1.3,0,2.3,0.7,2.3,1.7c0,1.7-2.5,3.5-4.6,3.5C166.9,74.3,166,73.7,166,72.6z"/>
</g>
<g>
	<path d="M164,78.5v-4l-3,1.1V64.9h0.5v4l3-1.1v10.7H164z M161.5,73.8l2.5-0.9v-3.3l-2.5,0.9V73.8z"/>
</g>
<rect x="193.9" y="52" width="0.5" height="16.4"/>
<g>
	<path d="M187.5,70.1c0-1.8,2.5-3.5,4.5-3.5c1.3,0,2.3,0.7,2.3,1.7c0,1.7-2.5,3.5-4.6,3.5C188.5,71.8,187.5,71.2,187.5,70.1z"/>
</g>
<rect x="208.8" y="67.5" width="0.5" height="15.2"/>
<g>
	<path d="M208.9,67.6c0-1.8,2.5-3.5,4.5-3.5c1.3,0,2.3,0.7,2.3,1.7c0,1.7-2.5,3.5-4.6,3.5C209.9,69.3,208.9,68.7,208.9,67.6z"/>
</g>
<g>
	<path d="M203,58.4h0.6l-0.1,6.2c0.4-0.7,1-1,1.8-1c1.2,0,2.2,0.8,2.2,1.9c0,0.8-0.5,1.8-1.7,2.7l-2.8,2.1V58.4z M203.6,65.4
		c-0.1,0.8-0.1,1.4-0.1,1.9c0,1,0,1.6,0.1,2c1-0.7,2.4-2.6,2.4-3.7c0-0.6-0.5-1.1-1.1-1.1C204.3,64.5,203.9,64.8,203.6,65.4z"/>
</g>
<rect x="230.4" y="67.5" width="0.5" height="14.9"/>
<g>
	<path d="M230.4,67.6c0-1.8,2.5-3.5,4.5-3.5c1.3,0,2.3,0.7,2.3,1.7c0,1.7-2.5,3.5-4.6,3.5C231.4,69.3,230.4,68.7,230.4,67.6z"/>
</g>
<g>
	<path d="M228.5,73.5v-4l-3,1.1V60h0.5v4l3-1.1v10.7H228.5z M226,68.9l2.5-0.9v-3.3l-2.5,0.9V68.9z"/>
</g>
<rect x="251.9" y="65.1" width="0.5" height="16.9"/>
<g>
	<path d="M252,65.1c0-1.8,2.5-3.5,4.5-3.5c1.3,0,2.3,0.7,2.3,1.7c0,1.7-2.5,3.5-4.6,3.5C253,66.9,252,66.2,252,65.1z"/>
</g>
<g>
	<path d="M246.1,56h0.6l-0.1,6.2c0.4-0.7,1-1,1.8-1c1.2,0,2.2,0.8,2.2,1.9c0,0.8-0.5,1.8-1.7,2.7l-2.8,2.1V56z M246.7,62.9
		c-0.1,0.8-0.1,1.4-0.1,1.9c0,1,0,1.6,0.1,2c1-0.7,2.4-2.6,2.4-3.7c0-0.6-0.5-1.1-1.1-1.1C247.4,62,247,62.3,246.7,62.9z"/>
</g>
<rect x="273.3" y="65.1" width="0.5" height="16.4"/>
<g>
	<path d="M273.4,65.1c0-1.8,2.5-3.5,4.5-3.5c1.3,0,2.3,0.7,2.3,1.7c0,1.7-2.5,3.5-4.6,3.5C274.4,66.9,273.4,66.2,273.4,65.1z"/>
</g>
<g>
	<path d="M271.5,71v-4l-3,1.1V57.5h0.5v4l3-1.1V71H271.5z M268.9,66.4l2.5-0.9v-3.3l-2.5,0.9V66.4z"/>
</g>
<rect x="294.9" y="62.6" width="0.5" height="14.3"/>
<g>
	<path d="M294.9,62.7c0-1.8,2.5-3.5,4.5-3.5c1.3,0,2.3,0.7,2.3,1.7c0,1.7-2.5,3.5-4.6,3.5C295.9,64.4,294.9,63.7,294.9,62.7z"/>
</g>
<g>
	<path d="M293,68.6v-4l-3,1.1V55h0.5v4l3-1.1v10.7H293z M290.5,63.9L293,63v-3.3l-2.5,0.9V63.9z"/>
</g>
<rect x="316.4" y="60.1" width="0.5" height="16.6"/>
<g>
	<path d="M316.5,60.2c0-1.8,2.5-3.5,4.5-3.5c1.3,0,2.3,0.7,2.3,1.7c0,1.7-2.5,3.5-4.6,3.5C317.4,61.9,316.5,61.3,316.5,60.2z"/>
</g>
<g>
	<path d="M310.6,51h0.6l-0.1,6.2c0.4-0.7,1-1,1.8-1c1.2,0,2.2,0.8,2.2,1.9c0,0.8-0.5,1.8-1.7,2.7l-2.8,2.1V51z M311.2,57.9
		c-0.1,0.8-0.1,1.4-0.1,1.9c0,1,0,1.6,0.1,2c1-0.7,2.4-2.6,2.4-3.7c0-0.6-0.5-1.1-1.1-1.1C311.9,57.1,311.5,57.4,311.2,57.9z"/>
</g>
<rect x="337.8" y="60.1" width="0.5" height="16.4"/>
<g>
	<path d="M337.9,60.2c0-1.8,2.5-3.5,4.5-3.5c1.3,0,2.3,0.7,2.3,1.7c0,1.7-2.5,3.5-4.6,3.5C338.8,61.9,337.9,61.3,337.9,60.2z"/>
</g>
<g>
	<path d="M335.9,66.1v-4l-3,1.1V52.5h0.5v4l3-1.1v10.7H335.9z M333.4,61.4l2.5-0.9v-3.3l-2.5,0.9V61.4z"/>
</g>
<rect x="359.3" y="57.6" width="0.5" height="18.6"/>
<g>
	<path d="M359.4,57.7c0-1.8,2.5-3.5,4.5-3.5c1.3,0,2.3,0.7,2.3,1.7c0,1.7-2.5,3.5-4.6,3.5C360.4,59.4,359.4,58.8,359.4,57.7z"/>
</g>
<g>
	<path d="M353.5,48.5h0.6l-0.1,6.2c0.4-0.7,1-1,1.8-1c1.2,0,2.2,0.8,2.2,1.9c0,0.8-0.5,1.8-1.7,2.7l-2.8,2.1V48.5z M354.1,55.4
		c-0.1,0.8-0.1,1.4-0.1,1.9c0,1,0,1.6,0.1,2c1-0.7,2.4-2.6,2.4-3.7c0-0.6-0.5-1.1-1.1-1.1C354.8,54.6,354.4,54.9,354.1,55.4z"/>
</g>
<rect x="380.9" y="57.6" width="0.5" height="14.3"/>
<g>
	<path d="M381,57.7c0-1.8,2.5-3.5,4.5-3.5c1.3,0,2.3,0.7,2.3,1.7c0,1.7-2.5,3.5-4.6,3.5C381.9,59.4,381,58.8,381,57.7z"/>
</g>
<g>
	<path d="M379,63.6v-4l-3,1.1V50h0.5v4l3-1.1v10.7H379z M376.5,58.9L379,58v-3.3l-2.5,0.9V58.9z"/>
</g>
<rect x="402.3" y="55.1" width="0.5" height="16.6"/>
<g>
	<path d="M402.4,55.2c0-1.8,2.5-3.5,4.5-3.5c1.3,0,2.3,0.7,2.3,1.7c0,1.7-2.5,3.5-4.6,3.5C403.3,56.9,402.4,56.3,402.4,55.2z"/>
</g>
<g>
	<path d="M396.5,46h0.6l-0.1,6.2c0.4-0.7,1-1,1.8-1c1.2,0,2.2,0.8,2.2,1.9c0,0.8-0.5,1.8-1.7,2.7l-2.8,2.1V46z M397,53
		c-0.1,0.8-0.1,1.4-0.1,1.9c0,1,0,1.6,0.1,2c1-0.7,2.4-2.6,2.4-3.7c0-0.6-0.5-1.1-1.1-1.1C397.8,52.1,397.3,52.4,397,53z"/>
</g>
<rect x="423.8" y="55.1" width="0.5" height="16.4"/>
<g>
	<path d="M423.9,55.2c0-1.8,2.5-3.5,4.5-3.5c1.3,0,2.3,0.7,2.3,1.7c0,1.7-2.5,3.5-4.6,3.5C424.9,56.9,423.9,56.3,423.9,55.2z"/>
</g>
<g>
	<path d="M422,61.1v-4l-3,1.1V47.6h0.5v4l3-1.1v10.7H422z M419.4,56.5l2.5-0.9v-3.3l-2.5,0.9V56.5z"/>
</g>
<rect x="443.6" y="51.5" width="10.5" height="0.8"/>
<rect x="445.4" y="52.7" width="0.5" height="18.6"/>
<g>
	<path d="M445.4,52.7c0-1.8,2.5-3.5,4.5-3.5c1.3,0,2.3,0.7,2.3,1.7c0,1.7-2.5,3.5-4.6,3.5C446.4,54.5,445.4,53.8,445.4,52.7z"/>
</g>
<g>
	<path d="M442.3,58.6v-4l-3,1.1V45.1h0.5v4l3-1.1v10.7H442.3z M439.7,54l2.5-0.9v-3.3l-2.5,0.9V54z"/>
</g>
<rect x="465" y="51.5" width="10.5" height="0.8"/>
<rect x="466.8" y="50.2" width="0.5" height="17.7"/>
<g>
	<path d="M466.8,50.3c0-1.8,2.5-3.5,4.5-3.5c1.3,0,2.3,0.7,2.3,1.7c0,1.7-2.5,3.5-4.6,3.5C467.8,52,466.8,51.3,466.8,50.3z"/>
</g>
<g>
	<path d="M459.7,41.1h0.6l-0.1,6.2c0.4-0.7,1-1,1.8-1c1.2,0,2.2,0.8,2.2,1.9c0,0.8-0.5,1.8-1.7,2.7l-2.8,2.1V41.1z M460.3,48
		c-0.1,0.8-0.1,1.4-0.1,1.9c0,1,0,1.6,0.1,2c1-0.7,2.4-2.6,2.4-3.7c0-0.6-0.5-1.1-1.1-1.1C461,47.2,460.6,47.4,460.3,48z"/>
</g>
<rect x="486.5" y="51.5" width="10.5" height="0.8"/>
<rect x="488.3" y="50.2" width="0.5" height="17.4"/>
<g>
	<path d="M488.4,50.3c0-1.8,2.5-3.5,4.5-3.5c1.3,0,2.3,0.7,2.3,1.7c0,1.7-2.5,3.5-4.6,3.5C489.4,52,488.4,51.3,488.4,50.3z"/>
</g>
<g>
	<path d="M485.2,56.2v-4l-3,1.1V42.6h0.5v4l3-1.1v10.7H485.2z M482.7,51.5l2.5-0.9v-3.3l-2.5,0.9V51.5z"/>
</g>
<rect x="508.1" y="51.5" width="10.5" height="0.8"/>
<rect x="508.1" y="46.5" width="10.5" height="0.8"/>
<rect x="509.9" y="47.7" width="0.5" height="19.4"/>
<g>
	<path d="M509.9,47.8c0-1.8,2.5-3.5,4.5-3.5c1.3,0,2.3,0.7,2.3,1.7c0,1.7-2.5,3.5-4.6,3.5C510.9,49.5,509.9,48.9,509.9,47.8z"/>
</g>
<g>
	<path d="M502.8,38.6h0.6l-0.1,6.2c0.4-0.7,1-1,1.8-1c1.2,0,2.2,0.8,2.2,1.9c0,0.8-0.5,1.8-1.7,2.7l-2.8,2.1V38.6z M503.4,45.5
		c-0.1,0.8-0.1,1.4-0.1,1.9c0,1,0,1.6,0.1,2c1-0.7,2.4-2.6,2.4-3.7c0-0.6-0.5-1.1-1.1-1.1C504.1,44.7,503.7,45,503.4,45.5z"/>
</g>
<rect x="529.5" y="51.5" width="10.5" height="0.8"/>
<rect x="529.5" y="46.5" width="10.5" height="0.8"/>
<rect x="531.2" y="47.7" width="0.5" height="18.9"/>
<g>
	<path d="M531.3,47.8c0-1.8,2.5-3.5,4.5-3.5c1.3,0,2.3,0.7,2.3,1.7c0,1.7-2.5,3.5-4.6,3.5C532.3,49.5,531.3,48.9,531.3,47.8z"/>
</g>
<g>
	<path d="M528.2,53.7v-4l-3,1.1V40.1h0.5v4l3-1.1v10.7H528.2z M525.6,49l2.5-0.9v-3.3l-2.5,0.9V49z"/>
</g>
<rect x="36.9" y="123.3" width="0.5" height="18.6"/>
<g>
	<path d="M37,123.4c0-1.8,2.5-3.5,4.5-3.5c1.3,0,2.3,0.7,2.3,1.7c0,1.7-2.5,3.5-4.6,3.5C38,125.1,37,124.5,37,123.4z"/>
</g>
<rect x="55.7" y="125.8" width="0.5" height="16.3"/>
<g>
	<path d="M55.7,125.9c0-1.8,2.5-3.5,4.5-3.5c1.3,0,2.3,0.7,2.3,1.7c0,1.7-2.5,3.5-4.6,3.5C56.7,127.6,55.7,127,55.7,125.9z"/>
</g>
<rect x="74.4" y="125.8" width="0.5" height="16.4"/>
<g>
	<path d="M74.5,125.9c0-1.8,2.5-3.5,4.5-3.5c1.3,0,2.3,0.7,2.3,1.7c0,1.7-2.5,3.5-4.6,3.5C75.5,127.6,74.5,127,74.5,125.9z"/>
</g>
<g>
	<path d="M68.6,116.7h0.6l-0.1,6.2c0.4-0.7,1-1,1.8-1c1.2,0,2.2,0.8,2.2,1.9c0,0.8-0.5,1.8-1.7,2.7l-2.8,2.1V116.7z M69.2,123.6
		c-0.1,0.8-0.1,1.4-0.1,1.9c0,1,0,1.6,0.1,2c1-0.7,2.4-2.6,2.4-3.7c0-0.6-0.5-1.1-1.1-1.1C69.9,122.8,69.5,123.1,69.2,123.6z"/>
</g>
<rect x="93.2" y="128.3" width="0.5" height="14.3"/>
<g>
	<path d="M93.3,128.4c0-1.8,2.5-3.5,4.5-3.5c1.3,0,2.3,0.7,2.3,1.7c0,1.7-2.5,3.5-4.6,3.5C94.2,130.1,93.3,129.5,93.3,128.4z"/>
</g>
<rect x="112.1" y="128.3" width="0.5" height="20.2"/>
<g>
	<path d="M112.2,128.4c0-1.8,2.5-3.5,4.5-3.5c1.3,0,2.3,0.7,2.3,1.7c0,1.7-2.5,3.5-4.6,3.5C113.1,130.1,112.2,129.5,112.2,128.4z"/>
</g>
<g>
	<path d="M106.3,119.2h0.6l-0.1,6.2c0.4-0.7,1-1,1.8-1c1.2,0,2.2,0.8,2.2,1.9c0,0.8-0.5,1.8-1.7,2.7l-2.8,2.1V119.2z M106.8,126.1
		c-0.1,0.8-0.1,1.4-0.1,1.9c0,1,0,1.6,0.1,2c1-0.7,2.4-2.6,2.4-3.7c0-0.6-0.5-1.1-1.1-1.1C107.6,125.3,107.1,125.6,106.8,126.1z"/>
</g>
<rect x="130.8" y="130.8" width="0.5" height="17.7"/>
<g>
	<path d="M130.9,130.9c0-1.8,2.5-3.5,4.5-3.5c1.3,0,2.3,0.7,2.3,1.7c0,1.7-2.5,3.5-4.6,3.5C131.9,132.6,130.9,131.9,130.9,130.9z"/>
</g>
<rect x="149.6" y="133.3" width="0.5" height="15.2"/>
<g>
	<path d="M149.7,133.3c0-1.8,2.5-3.5,4.5-3.5c1.3,0,2.3,0.7,2.3,1.7c0,1.7-2.5,3.5-4.6,3.5C150.7,135.1,149.7,134.4,149.7,133.3z"/>
</g>
<rect x="168.4" y="133.3" width="0.5" height="15.2"/>
<g>
	<path d="M168.4,133.3c0-1.8,2.5-3.5,4.5-3.5c1.3,0,2.3,0.7,2.3,1.7c0,1.7-2.5,3.5-4.6,3.5C169.4,135.1,168.4,134.4,168.4,133.3z"/>
</g>
<g>
	<path d="M162.5,124.2h0.6l-0.1,6.2c0.4-0.7,1-1,1.8-1c1.2,0,2.2,0.8,2.2,1.9c0,0.8-0.5,1.8-1.7,2.7l-2.8,2.1V124.2z M163.1,131.1
		c-0.1,0.8-0.1,1.4-0.1,1.9c0,1,0,1.6,0.1,2c1-0.7,2.4-2.6,2.4-3.7c0-0.6-0.5-1.1-1.1-1.1C163.8,130.2,163.4,130.5,163.1,131.1z"/>
</g>
<rect x="193.6" y="116.5" width="0.5" height="17.7"/>
<g>
	<path d="M187.2,135.8c0-1.8,2.5-3.5,4.5-3.5c1.3,0,2.3,0.7,2.3,1.7c0,1.7-2.5,3.5-4.6,3.5C188.2,137.5,187.2,136.9,187.2,135.8z"/>
</g>
<rect x="212.4" y="116.8" width="0.5" height="17.4"/>
<g>
	<path d="M205.9,135.8c0-1.8,2.5-3.5,4.5-3.5c1.3,0,2.3,0.7,2.3,1.7c0,1.7-2.5,3.5-4.6,3.5C206.9,137.5,205.9,136.9,205.9,135.8z"/>
</g>
<g>
	<path d="M200.1,126.7h0.6l-0.1,6.2c0.4-0.7,1-1,1.8-1c1.2,0,2.2,0.8,2.2,1.9c0,0.8-0.5,1.8-1.7,2.7l-2.8,2.1V126.7z M200.6,133.6
		c-0.1,0.8-0.1,1.4-0.1,1.9c0,1,0,1.6,0.1,2c1-0.7,2.4-2.6,2.4-3.7c0-0.6-0.5-1.1-1.1-1.1C201.3,132.7,200.9,133,200.6,133.6z"/>
</g>
<rect x="231.3" y="117.3" width="0.5" height="19.4"/>
<g>
	<path d="M224.9,138.3c0-1.8,2.5-3.5,4.5-3.5c1.3,0,2.3,0.7,2.3,1.7c0,1.7-2.5,3.5-4.6,3.5C225.8,140,224.9,139.4,224.9,138.3z"/>
</g>
<rect x="250.1" y="117.8" width="0.5" height="18.9"/>
<g>
	<path d="M243.6,138.3c0-1.8,2.5-3.5,4.5-3.5c1.3,0,2.3,0.7,2.3,1.7c0,1.7-2.5,3.5-4.6,3.5C244.6,140,243.6,139.4,243.6,138.3z"/>
</g>
<g>
	<path d="M237.7,129.1h0.6l-0.1,6.2c0.4-0.7,1-1,1.8-1c1.2,0,2.2,0.8,2.2,1.9c0,0.8-0.5,1.8-1.7,2.7l-2.8,2.1V129.1z M238.3,136
		c-0.1,0.8-0.1,1.4-0.1,1.9c0,1,0,1.6,0.1,2c1-0.7,2.4-2.6,2.4-3.7c0-0.6-0.5-1.1-1.1-1.1C239,135.2,238.6,135.5,238.3,136z"/>
</g>
<rect x="268.8" y="122.7" width="0.5" height="16.4"/>
<g>
	<path d="M262.4,140.8c0-1.8,2.5-3.5,4.5-3.5c1.3,0,2.3,0.7,2.3,1.7c0,1.7-2.5,3.5-4.6,3.5C263.3,142.5,262.4,141.9,262.4,140.8z"/>
</g>
<rect x="287.6" y="124.3" width="0.5" height="17.4"/>
<g>
	<path d="M281.1,143.3c0-1.8,2.5-3.5,4.5-3.5c1.3,0,2.3,0.7,2.3,1.7c0,1.7-2.5,3.5-4.6,3.5C282.1,145,281.1,144.3,281.1,143.3z"/>
</g>
<g>
	<path d="M279.2,149.2v-4l-3,1.1v-10.7h0.5v4l3-1.1v10.7H279.2z M276.7,144.5l2.5-0.9v-3.3l-2.5,0.9V144.5z"/>
</g>
<rect x="306.3" y="126" width="0.5" height="15.7"/>
<g>
	<path d="M299.9,143.3c0-1.8,2.5-3.5,4.5-3.5c1.3,0,2.3,0.7,2.3,1.7c0,1.7-2.5,3.5-4.6,3.5C300.9,145,299.9,144.3,299.9,143.3z"/>
</g>
<g>
	<path d="M294,134.1h0.6l-0.1,6.2c0.4-0.7,1-1,1.8-1c1.2,0,2.2,0.8,2.2,1.9c0,0.8-0.5,1.8-1.7,2.7L294,146V134.1z M294.6,141
		c-0.1,0.8-0.1,1.4-0.1,1.9c0,1,0,1.6,0.1,2c1-0.7,2.4-2.6,2.4-3.7c0-0.6-0.5-1.1-1.1-1.1C295.3,140.2,294.9,140.4,294.6,141z"/>
</g>
<rect x="325.1" y="127.7" width="0.5" height="16.4"/>
<g>
	<path d="M318.6,145.7c0-1.8,2.5-3.5,4.5-3.5c1.3,0,2.3,0.7,2.3,1.7c0,1.7-2.5,3.5-4.6,3.5C319.6,147.5,318.6,146.8,318.6,145.7z"/>
</g>
<g>
	<path d="M316.7,151.6v-4l-3,1.1v-10.7h0.5v4l3-1.1v10.7H316.7z M314.2,147l2.5-0.9v-3.3l-2.5,0.9V147z"/>
</g>
<rect x="343.8" y="127.7" width="0.5" height="16.4"/>
<g>
	<path d="M337.4,145.7c0-1.8,2.5-3.5,4.5-3.5c1.3,0,2.3,0.7,2.3,1.7c0,1.7-2.5,3.5-4.6,3.5C338.4,147.5,337.4,146.8,337.4,145.7z"/>
</g>
<g>
	<path d="M331.5,136.6h0.6l-0.1,6.2c0.4-0.7,1-1,1.8-1c1.2,0,2.2,0.8,2.2,1.9c0,0.8-0.5,1.8-1.7,2.7l-2.8,2.1V136.6z M332.1,143.5
		c-0.1,0.8-0.1,1.4-0.1,1.9c0,1,0,1.6,0.1,2c1-0.7,2.4-2.6,2.4-3.7c0-0.6-0.5-1.1-1.1-1.1C332.8,142.6,332.4,142.9,332.1,143.5z"/>
</g>
<rect x="354.5" y="147" width="10.5" height="0.8"/>
<rect x="362.7" y="129.2" width="0.5" height="17.4"/>
<g>
	<path d="M356.3,148.2c0-1.8,2.5-3.5,4.5-3.5c1.3,0,2.3,0.7,2.3,1.7c0,1.7-2.5,3.5-4.6,3.5C357.3,149.9,356.3,149.3,356.3,148.2z"/>
</g>
<rect x="373.2" y="147" width="10.5" height="0.8"/>
<rect x="381.5" y="130.9" width="0.5" height="18.1"/>
<g>
	<path d="M375.1,150.7c0-1.8,2.5-3.5,4.5-3.5c1.3,0,2.3,0.7,2.3,1.7c0,1.7-2.5,3.5-4.6,3.5C376,152.4,375.1,151.8,375.1,150.7z"/>
</g>
<g>
	<path d="M371.9,156.6v-4l-3,1.1V143h0.5v4l3-1.1v10.7H371.9z M369.4,151.9l2.5-0.9v-3.3l-2.5,0.9V151.9z"/>
</g>
<rect x="392" y="147" width="10.5" height="0.8"/>
<rect x="400.3" y="132.6" width="0.5" height="16.4"/>
<g>
	<path d="M393.8,150.7c0-1.8,2.5-3.5,4.5-3.5c1.3,0,2.3,0.7,2.3,1.7c0,1.7-2.5,3.5-4.6,3.5C394.8,152.4,393.8,151.8,393.8,150.7z"/>
</g>
<g>
	<path d="M386.7,141.5h0.6l-0.1,6.2c0.4-0.7,1-1,1.8-1c1.2,0,2.2,0.8,2.2,1.9c0,0.8-0.5,1.8-1.7,2.7l-2.8,2.1V141.5z M387.3,148.4
		c-0.1,0.8-0.1,1.4-0.1,1.9c0,1,0,1.6,0.1,2c1-0.7,2.4-2.6,2.4-3.7c0-0.6-0.5-1.1-1.1-1.1C388,147.6,387.6,147.9,387.3,148.4z"/>
</g>
<rect x="410.7" y="147" width="10.5" height="0.8"/>
<rect x="410.7" y="151.9" width="10.5" height="0.8"/>
<rect x="419" y="131.4" width="0.5" height="20.2"/>
<g>
	<path d="M412.6,153.2c0-1.8,2.5-3.5,4.5-3.5c1.3,0,2.3,0.7,2.3,1.7c0,1.7-2.5,3.5-4.6,3.5C413.6,154.9,412.6,154.3,412.6,153.2z"/>
</g>
<g>
	<path d="M409.4,159.1v-4l-3,1.1v-10.7h0.5v4l3-1.1v10.7H409.4z M406.9,154.4l2.5-0.9v-3.3l-2.5,0.9V154.4z"/>
</g>
<rect x="429.5" y="147" width="10.5" height="0.8"/>
<rect x="429.5" y="151.9" width="10.5" height="0.8"/>
<rect x="437.8" y="131.7" width="0.5" height="19.8"/>
<g>
	<path d="M431.3,153.2c0-1.8,2.5-3.5,4.5-3.5c1.3,0,2.3,0.7,2.3,1.7c0,1.7-2.5,3.5-4.6,3.5C432.3,154.9,431.3,154.3,431.3,153.2z"/>
</g>
<g>
	<path d="M424.2,144h0.6l-0.1,6.2c0.4-0.7,1-1,1.8-1c1.2,0,2.2,0.8,2.2,1.9c0,0.8-0.5,1.8-1.7,2.7l-2.8,2.1V144z M424.8,150.9
		c-0.1,0.8-0.1,1.4-0.1,1.9c0,1,0,1.6,0.1,2c1-0.7,2.4-2.6,2.4-3.7c0-0.6-0.5-1.1-1.1-1.1C425.5,150.1,425.1,150.4,424.8,150.9z"/>
</g>
<rect x="448.2" y="147" width="10.5" height="0.8"/>
<rect x="448.2" y="151.9" width="10.5" height="0.8"/>
<rect x="456.5" y="132.2" width="0.5" height="21.9"/>
<g>
	<path d="M450.1,155.7c0-1.8,2.5-3.5,4.5-3.5c1.3,0,2.3,0.7,2.3,1.7c0,1.7-2.5,3.5-4.6,3.5C451.1,157.4,450.1,156.7,450.1,155.7z"/>
</g>
<g>
	<path d="M446.9,161.6v-4l-3,1.1V148h0.5v4l3-1.1v10.7H446.9z M444.4,156.9l2.5-0.9v-3.3l-2.5,0.9V156.9z"/>
</g>
<rect x="467.1" y="147" width="10.5" height="0.8"/>
<rect x="467.1" y="151.9" width="10.5" height="0.8"/>
<rect x="475.4" y="132.6" width="0.5" height="21.4"/>
<g>
	<path d="M469,155.7c0-1.8,2.5-3.5,4.5-3.5c1.3,0,2.3,0.7,2.3,1.7c0,1.7-2.5,3.5-4.6,3.5C470,157.4,469,156.7,469,155.7z"/>
</g>
<g>
	<path d="M461.9,146.5h0.6l-0.1,6.2c0.4-0.7,1-1,1.8-1c1.2,0,2.2,0.8,2.2,1.9c0,0.8-0.5,1.8-1.7,2.7l-2.8,2.1V146.5z M462.5,153.4
		c-0.1,0.8-0.1,1.4-0.1,1.9c0,1,0,1.6,0.1,2c1-0.7,2.4-2.6,2.4-3.7c0-0.6-0.5-1.1-1.1-1.1C463.2,152.6,462.8,152.8,462.5,153.4z"/>
</g>
<rect x="485.9" y="147" width="10.7" height="0.8"/>
<rect x="485.9" y="151.9" width="10.7" height="0.8"/>
<rect x="485.9" y="156.9" width="10.7" height="0.8"/>
<rect x="494.4" y="132.5" width="0.5" height="24"/>
<g>
	<path d="M492,154.6c1.6,0,2.7,0.7,2.7,2c0,1.9-2.3,3.4-4.5,3.4c-1.3,0-2.4-0.7-2.4-1.8C487.8,156.4,490,154.6,492,154.6z
		 M488.2,158.4c0,0.6,0.4,0.9,1.1,0.9c1.4,0,4.9-2.1,4.9-3.3c0-0.6-0.4-0.9-1.1-0.9C491.9,155.2,488.2,157.2,488.2,158.4z"/>
</g>
<rect x="35.1" y="164.3" width="10.5" height="0.8"/>
<rect x="35.1" y="159.4" width="10.5" height="0.8"/>
<rect x="36.9" y="158.1" width="0.5" height="21.4"/>
<g>
	<path d="M37,158.1c0-1.8,2.5-3.5,4.5-3.5c1.3,0,2.3,0.7,2.3,1.7c0,1.7-2.5,3.5-4.6,3.5C38,159.9,37,159.2,37,158.1z"/>
</g>
<rect x="53.9" y="164.3" width="10.5" height="0.8"/>
<rect x="53.9" y="159.4" width="10.5" height="0.8"/>
<rect x="55.7" y="160.5" width="0.5" height="19.2"/>
<g>
	<path d="M55.7,160.6c0-1.8,2.5-3.5,4.5-3.5c1.3,0,2.3,0.7,2.3,1.7c0,1.7-2.5,3.5-4.6,3.5C56.7,162.3,55.7,161.7,55.7,160.6z"/>
</g>
<rect x="72.6" y="164.3" width="10.5" height="0.8"/>
<rect x="72.6" y="159.4" width="10.5" height="0.8"/>
<rect x="74.4" y="160.5" width="0.5" height="19.7"/>
<g>
	<path d="M74.5,160.6c0-1.8,2.5-3.5,4.5-3.5c1.3,0,2.3,0.7,2.3,1.7c0,1.7-2.5,3.5-4.6,3.5C75.5,162.3,74.5,161.7,74.5,160.6z"/>
</g>
<g>
	<path d="M67.4,151.5H68l-0.1,6.2c0.4-0.7,1-1,1.8-1c1.2,0,2.2,0.8,2.2,1.9c0,0.8-0.5,1.8-1.7,2.7l-2.8,2.1V151.5z M67.9,158.4
		c-0.1,0.8-0.1,1.4-0.1,1.9c0,1,0,1.6,0.1,2c1-0.7,2.4-2.6,2.4-3.7c0-0.6-0.5-1.1-1.1-1.1C68.7,157.5,68.2,157.8,67.9,158.4z"/>
</g>
<rect x="91.4" y="164.3" width="10.5" height="0.8"/>
<rect x="93.2" y="163" width="0.5" height="17.7"/>
<g>
	<path d="M93.3,163.1c0-1.8,2.5-3.5,4.5-3.5c1.3,0,2.3,0.7,2.3,1.7c0,1.7-2.5,3.5-4.6,3.5C94.2,164.8,93.3,164.2,93.3,163.1z"/>
</g>
<rect x="110.3" y="164.3" width="10.5" height="0.8"/>
<rect x="112.1" y="163" width="0.5" height="21.4"/>
<g>
	<path d="M112.2,163.1c0-1.8,2.5-3.5,4.5-3.5c1.3,0,2.3,0.7,2.3,1.7c0,1.7-2.5,3.5-4.6,3.5C113.1,164.8,112.2,164.2,112.2,163.1z"/>
</g>
<g>
	<path d="M105,153.9h0.6l-0.1,6.2c0.4-0.7,1-1,1.8-1c1.2,0,2.2,0.8,2.2,1.9c0,0.8-0.5,1.8-1.7,2.7l-2.8,2.1V153.9z M105.6,160.8
		c-0.1,0.8-0.1,1.4-0.1,1.9c0,1,0,1.6,0.1,2c1-0.7,2.4-2.6,2.4-3.7c0-0.6-0.5-1.1-1.1-1.1C106.3,160,105.9,160.3,105.6,160.8z"/>
</g>
<rect x="129.1" y="164.3" width="10.5" height="0.8"/>
<rect x="130.8" y="165.5" width="0.5" height="18.9"/>
<g>
	<path d="M130.9,165.6c0-1.8,2.5-3.5,4.5-3.5c1.3,0,2.3,0.7,2.3,1.7c0,1.7-2.5,3.5-4.6,3.5C131.9,167.3,130.9,166.7,130.9,165.6z"/>
</g>
<rect x="149.6" y="168" width="0.5" height="16.4"/>
<g>
	<path d="M149.7,168.1c0-1.8,2.5-3.5,4.5-3.5c1.3,0,2.3,0.7,2.3,1.7c0,1.7-2.5,3.5-4.6,3.5C150.7,169.8,149.7,169.1,149.7,168.1z"/>
</g>
<rect x="168.4" y="168" width="0.5" height="16.4"/>
<g>
	<path d="M168.4,168.1c0-1.8,2.5-3.5,4.5-3.5c1.3,0,2.3,0.7,2.3,1.7c0,1.7-2.5,3.5-4.6,3.5C169.4,169.8,168.4,169.1,168.4,168.1z"/>
</g>
<g>
	<path d="M162.5,158.9h0.6l-0.1,6.2c0.4-0.7,1-1,1.8-1c1.2,0,2.2,0.8,2.2,1.9c0,0.8-0.5,1.8-1.7,2.7l-2.8,2.1V158.9z M163.1,165.8
		c-0.1,0.8-0.1,1.4-0.1,1.9c0,1,0,1.6,0.1,2c1-0.7,2.4-2.6,2.4-3.7c0-0.6-0.5-1.1-1.1-1.1C163.8,165,163.4,165.2,163.1,165.8z"/>
</g>
<rect x="187.1" y="170.5" width="0.5" height="18.9"/>
<g>
	<path d="M187.2,170.5c0-1.8,2.5-3.5,4.5-3.5c1.3,0,2.3,0.7,2.3,1.7c0,1.7-2.5,3.5-4.6,3.5C188.2,172.3,187.2,171.6,187.2,170.5z"/>
</g>
<rect x="205.9" y="170.5" width="0.5" height="19.2"/>
<g>
	<path d="M205.9,170.5c0-1.8,2.5-3.5,4.5-3.5c1.3,0,2.3,0.7,2.3,1.7c0,1.7-2.5,3.5-4.6,3.5C206.9,172.3,205.9,171.6,205.9,170.5z"/>
</g>
<g>
	<path d="M200.1,161.4h0.6l-0.1,6.2c0.4-0.7,1-1,1.8-1c1.2,0,2.2,0.8,2.2,1.9c0,0.8-0.5,1.8-1.7,2.7l-2.8,2.1V161.4z M200.6,168.3
		c-0.1,0.8-0.1,1.4-0.1,1.9c0,1,0,1.6,0.1,2c1-0.7,2.4-2.6,2.4-3.7c0-0.6-0.5-1.1-1.1-1.1C201.3,167.4,200.9,167.7,200.6,168.3z"/>
</g>
<rect x="224.8" y="172.9" width="0.5" height="17.2"/>
<g>
	<path d="M224.9,173c0-1.8,2.5-3.5,4.5-3.5c1.3,0,2.3,0.7,2.3,1.7c0,1.7-2.5,3.5-4.6,3.5C225.8,174.7,224.9,174.1,224.9,173z"/>
</g>
<rect x="243.5" y="172.9" width="0.5" height="17.7"/>
<g>
	<path d="M243.6,173c0-1.8,2.5-3.5,4.5-3.5c1.3,0,2.3,0.7,2.3,1.7c0,1.7-2.5,3.5-4.6,3.5C244.6,174.7,243.6,174.1,243.6,173z"/>
</g>
<g>
	<path d="M237.7,163.9h0.6l-0.1,6.2c0.4-0.7,1-1,1.8-1c1.2,0,2.2,0.8,2.2,1.9c0,0.8-0.5,1.8-1.7,2.7l-2.8,2.1V163.9z M238.3,170.8
		c-0.1,0.8-0.1,1.4-0.1,1.9c0,1,0,1.6,0.1,2c1-0.7,2.4-2.6,2.4-3.7c0-0.6-0.5-1.1-1.1-1.1C239,169.9,238.6,170.2,238.3,170.8z"/>
</g>
<rect x="262.3" y="175.4" width="0.5" height="20.2"/>
<g>
	<path d="M262.4,175.5c0-1.8,2.5-3.5,4.5-3.5c1.3,0,2.3,0.7,2.3,1.7c0,1.7-2.5,3.5-4.6,3.5C263.3,177.2,262.4,176.6,262.4,175.5z"/>
</g>
<rect x="281.1" y="177.9" width="0.5" height="18.4"/>
<g>
	<path d="M281.1,178c0-1.8,2.5-3.5,4.5-3.5c1.3,0,2.3,0.7,2.3,1.7c0,1.7-2.5,3.5-4.6,3.5C282.1,179.7,281.1,179.1,281.1,178z"/>
</g>
<g>
	<path d="M279.2,183.9v-4l-3,1.1v-10.7h0.5v4l3-1.1v10.7H279.2z M276.7,179.2l2.5-0.9V175l-2.5,0.9V179.2z"/>
</g>
<rect x="299.8" y="177.9" width="0.5" height="19.2"/>
<g>
	<path d="M299.9,178c0-1.8,2.5-3.5,4.5-3.5c1.3,0,2.3,0.7,2.3,1.7c0,1.7-2.5,3.5-4.6,3.5C300.9,179.7,299.9,179.1,299.9,178z"/>
</g>
<g>
	<path d="M294,168.8h0.6l-0.1,6.2c0.4-0.7,1-1,1.8-1c1.2,0,2.2,0.8,2.2,1.9c0,0.8-0.5,1.8-1.7,2.7l-2.8,2.1V168.8z M294.6,175.7
		c-0.1,0.8-0.1,1.4-0.1,1.9c0,1,0,1.6,0.1,2c1-0.7,2.4-2.6,2.4-3.7c0-0.6-0.5-1.1-1.1-1.1C295.3,174.9,294.9,175.2,294.6,175.7z"/>
</g>
<rect x="318.6" y="180.4" width="0.5" height="17.7"/>
<g>
	<path d="M318.6,180.5c0-1.8,2.5-3.5,4.5-3.5c1.3,0,2.3,0.7,2.3,1.7c0,1.7-2.5,3.5-4.6,3.5C319.6,182.2,318.6,181.5,318.6,180.5z"/>
</g>
<g>
	<path d="M316.7,186.4v-4l-3,1.1v-10.7h0.5v4l3-1.1v10.7H316.7z M314.2,181.7l2.5-0.9v-3.3l-2.5,0.9V181.7z"/>
</g>
<rect x="343.8" y="161.2" width="0.5" height="17.7"/>
<g>
	<path d="M337.4,180.5c0-1.8,2.5-3.5,4.5-3.5c1.3,0,2.3,0.7,2.3,1.7c0,1.7-2.5,3.5-4.6,3.5C338.4,182.2,337.4,181.5,337.4,180.5z"/>
</g>
<g>
	<path d="M331.5,171.3h0.6l-0.1,6.2c0.4-0.7,1-1,1.8-1c1.2,0,2.2,0.8,2.2,1.9c0,0.8-0.5,1.8-1.7,2.7l-2.8,2.1V171.3z M332.1,178.2
		c-0.1,0.8-0.1,1.4-0.1,1.9c0,1,0,1.6,0.1,2c1-0.7,2.4-2.6,2.4-3.7c0-0.6-0.5-1.1-1.1-1.1C332.8,177.4,332.4,177.6,332.1,178.2z"/>
</g>
<rect x="362.7" y="161.9" width="0.5" height="19.4"/>
<g>
	<path d="M356.3,182.9c0-1.8,2.5-3.5,4.5-3.5c1.3,0,2.3,0.7,2.3,1.7c0,1.7-2.5,3.5-4.6,3.5C357.3,184.7,356.3,184,356.3,182.9z"/>
</g>
<rect x="381.5" y="162.7" width="0.5" height="21.1"/>
<g>
	<path d="M375.1,185.4c0-1.8,2.5-3.5,4.5-3.5c1.3,0,2.3,0.7,2.3,1.7c0,1.7-2.5,3.5-4.6,3.5C376,187.1,375.1,186.5,375.1,185.4z"/>
</g>
<g>
	<path d="M373.1,191.3v-4l-3,1.1v-10.7h0.5v4l3-1.1v10.7H373.1z M370.6,186.7l2.5-0.9v-3.3l-2.5,0.9V186.7z"/>
</g>
<rect x="400.3" y="163.6" width="0.5" height="20.2"/>
<g>
	<path d="M393.8,185.4c0-1.8,2.5-3.5,4.5-3.5c1.3,0,2.3,0.7,2.3,1.7c0,1.7-2.5,3.5-4.6,3.5C394.8,187.1,393.8,186.5,393.8,185.4z"/>
</g>
<g>
	<path d="M387.9,176.3h0.6l-0.1,6.2c0.4-0.7,1-1,1.8-1c1.2,0,2.2,0.8,2.2,1.9c0,0.8-0.5,1.8-1.7,2.7l-2.8,2.1V176.3z M388.5,183.2
		c-0.1,0.8-0.1,1.4-0.1,1.9c0,1,0,1.6,0.1,2c1-0.7,2.4-2.6,2.4-3.7c0-0.6-0.5-1.1-1.1-1.1C389.2,182.3,388.8,182.6,388.5,183.2z"/>
</g>
<rect x="419" y="168.6" width="0.5" height="17.7"/>
<g>
	<path d="M412.6,187.9c0-1.8,2.5-3.5,4.5-3.5c1.3,0,2.3,0.7,2.3,1.7c0,1.7-2.5,3.5-4.6,3.5C413.6,189.6,412.6,189,412.6,187.9z"/>
</g>
<g>
	<path d="M410.7,193.8v-4l-3,1.1v-10.7h0.5v4l3-1.1v10.7H410.7z M408.1,189.1l2.5-0.9v-3.3l-2.5,0.9V189.1z"/>
</g>
<rect x="437.8" y="168.9" width="0.5" height="17.4"/>
<g>
	<path d="M431.3,187.9c0-1.8,2.5-3.5,4.5-3.5c1.3,0,2.3,0.7,2.3,1.7c0,1.7-2.5,3.5-4.6,3.5C432.3,189.6,431.3,189,431.3,187.9z"/>
</g>
<g>
	<path d="M425.4,178.7h0.6l-0.1,6.2c0.4-0.7,1-1,1.8-1c1.2,0,2.2,0.8,2.2,1.9c0,0.8-0.5,1.8-1.7,2.7l-2.8,2.1V178.7z M426,185.6
		c-0.1,0.8-0.1,1.4-0.1,1.9c0,1,0,1.6,0.1,2c1-0.7,2.4-2.6,2.4-3.7c0-0.6-0.5-1.1-1.1-1.1C426.7,184.8,426.3,185.1,426,185.6z"/>
</g>
<rect x="456.5" y="169.4" width="0.5" height="19.4"/>
<g>
	<path d="M450.1,190.4c0-1.8,2.5-3.5,4.5-3.5c1.3,0,2.3,0.7,2.3,1.7c0,1.7-2.5,3.5-4.6,3.5C451.1,192.1,450.1,191.5,450.1,190.4z"/>
</g>
<g>
	<path d="M448.2,196.3v-4l-3,1.1v-10.7h0.5v4l3-1.1v10.7H448.2z M445.6,191.6l2.5-0.9v-3.3l-2.5,0.9V191.6z"/>
</g>
<rect x="475.4" y="169.8" width="0.5" height="18.9"/>
<g>
	<path d="M469,190.4c0-1.8,2.5-3.5,4.5-3.5c1.3,0,2.3,0.7,2.3,1.7c0,1.7-2.5,3.5-4.6,3.5C470,192.1,469,191.5,469,190.4z"/>
</g>
<g>
	<path d="M463.1,181.2h0.6l-0.1,6.2c0.4-0.7,1-1,1.8-1c1.2,0,2.2,0.8,2.2,1.9c0,0.8-0.5,1.8-1.7,2.7l-2.8,2.1V181.2z M463.7,188.1
		c-0.1,0.8-0.1,1.4-0.1,1.9c0,1,0,1.6,0.1,2c1-0.7,2.4-2.6,2.4-3.7c0-0.6-0.5-1.1-1.1-1.1C464.4,187.3,464,187.6,463.7,188.1z"/>
</g>
<rect x="494.4" y="174.6" width="0.5" height="16.6"/>
<g>
	<path d="M492,189.3c1.6,0,2.7,0.7,2.7,2c0,1.9-2.3,3.4-4.5,3.4c-1.3,0-2.4-0.7-2.4-1.8C487.8,191.1,490,189.3,492,189.3z
		 M488.2,193.2c0,0.6,0.4,0.9,1.1,0.9c1.4,0,4.9-2.1,4.9-3.3c0-0.6-0.4-0.9-1.1-0.9C491.9,189.9,488.2,191.9,488.2,193.2z"/>
</g>
</svg>
