<?xml version="1.0" encoding="utf-8"?>

<!--
	ScaleBook
	Copyright (c) Leland Jansen 2015. All rights reserved.
-->

<!DOCTYPE svg PUBLIC "-//W3C//DTD SVG 1.1//EN" "http://www.w3.org/Graphics/SVG/1.1/DTD/svg11.dtd">
<svg version="1.1" id="Layer_1" xmlns="http://www.w3.org/2000/svg" xmlns:xlink="http://www.w3.org/1999/xlink" x="0px" y="0px"
	 viewBox="0 0 553.1 203.6" enable-background="new 0 0 553.1 203.6" xml:space="preserve">
<rect x="8.5" y="9.7" width="0.8" height="67"/>
<g>
	<path d="M7.6,10.4c-1.9,1.1-3.6,5.8-3.6,9.4c0,2.3,1.4,9.9,1.4,12.3c0,5-1.5,8.6-4.6,11.1c3,2.4,4.6,6.1,4.6,11.1
		c0,2.3-1.4,9.9-1.4,12.3c0,3.8,1.7,8.4,3.6,9.5v0.7c-3.5-2.3-5.8-8.2-5.8-13.1c0-2.1,1.7-9.4,1.7-11.5c0-3.8-1-6.6-2.9-8.2
		c-0.3-0.3-0.5-0.5-0.5-0.7c0-0.2,0.1-0.4,0.5-0.7c1.9-1.7,2.9-4.2,2.9-7.6c0-2.1-1.7-10-1.7-12.2c0-5.2,2.1-10.4,5.8-13.1V10.4z"/>
</g>
<rect x="8.5" y="122.6" width="0.8" height="71.8"/>
<g>
	<path d="M7.6,123.3c-2,1.1-3.7,6.2-3.7,10.1c0,2.4,1.4,10.6,1.4,13.1c0,5.3-1.6,9.3-4.7,11.9c3.1,2.6,4.7,6.5,4.7,11.8
		c0,2.4-1.4,10.6-1.4,13.1c0,4.1,1.8,9,3.7,10.2v0.7c-3.6-2.4-5.9-8.8-5.9-14c0-2.3,1.8-10,1.8-12.3c0-4.1-1-7-3-8.8
		c-0.3-0.3-0.5-0.5-0.5-0.7s0.1-0.4,0.5-0.7c2-1.8,3-4.5,3-8.1c0-2.3-1.8-10.8-1.8-13.1c0-5.5,2.1-11.1,5.9-14V123.3z"/>
</g>
<rect x="552.3" y="9.7" width="0.8" height="67"/>
<rect x="548" y="122.6" width="0.8" height="71.8"/>
<rect x="550.5" y="122.6" width="2.5" height="71.8"/>
<rect x="8.6" y="29.3" width="544.4" height="0.5"/>
<rect x="8.6" y="24.4" width="544.4" height="0.5"/>
<rect x="8.6" y="19.4" width="544.4" height="0.5"/>
<rect x="8.6" y="14.4" width="544.4" height="0.5"/>
<rect x="8.6" y="9.5" width="544.4" height="0.5"/>
<g>
	<path d="M20.4,29.4c-4.2,0-8.1-3.1-8.1-6.9c0-3.2,2.3-6.7,6.8-10.5c-0.3-1.2-0.4-2.4-0.4-3.6c0-3.5,1.2-6.8,3.2-8.5
		c1.8,2.5,2.7,4.9,2.7,7.1c0,2.9-1.3,5.6-4.3,8.1l0.9,4.2c0.5,0,0.8-0.1,0.8-0.1c2.6,0,4.8,2,4.8,4.7c0,1.9-1.4,3.7-3.6,4.8
		c0-0.1,0.9,3.8,0.9,4.3c0,2.5-2.3,4.2-4.9,4.2c-2,0-3.6-1.3-3.6-3.4c0-1.4,1-2.6,2.4-2.6c1.3,0,2.3,1.3,2.3,2.5
		c0,1.4-1.2,2.3-2.7,2.5c0.6,0.3,1.2,0.5,1.9,0.5c2.1,0,4.1-1.6,4.1-3.6c0-0.2,0-0.4-0.1-0.6l-0.8-3.7
		C22.1,29.3,21.4,29.4,20.4,29.4z M18.2,24.2c0,1,0.5,1.9,1.6,2.5c-1.8-0.3-3-1.4-3-3.1c0-2,1.7-3.7,3.8-4.1l-0.8-4
		c-3.7,2.8-5.7,5.5-5.7,8.1c0,2.9,2.8,5.3,6,5.3c0.9,0,1.7-0.2,2.4-0.5l-1.4-6.8C19.5,21.8,18.2,22.8,18.2,24.2z M22.3,2.8
		c-1.6,0-2.9,3.7-2.9,7c0,0.7,0,1.3,0.2,1.9c2.7-2.4,4-4.5,4-6.5c0-0.9-0.3-1.7-1-2.4C22.5,2.9,22.4,2.8,22.3,2.8z M25,24.7
		c0-1.6-1.2-3.3-2.9-3.3c-0.1,0-0.2,0-0.5,0l1.4,6.6C24.4,27.2,25,26,25,24.7z"/>
</g>
<polygon fill-rule="evenodd" clip-rule="evenodd" points="45.5,25.8 109.8,24.6 109.8,22.1 45.5,23.4 "/>
<polygon fill-rule="evenodd" clip-rule="evenodd" points="45.5,22.1 109.8,20.9 109.8,18.4 45.5,19.6 "/>
<rect x="131.2" y="22.1" fill-rule="evenodd" clip-rule="evenodd" width="64.2" height="2.5"/>
<rect x="131.2" y="18.4" fill-rule="evenodd" clip-rule="evenodd" width="64.2" height="2.5"/>
<polygon fill-rule="evenodd" clip-rule="evenodd" points="217,20.9 281.1,15.9 281.1,13.4 217,18.4 "/>
<polygon fill-rule="evenodd" clip-rule="evenodd" points="217,17.2 281.1,12.2 281.1,9.7 217,14.7 "/>
<polygon fill-rule="evenodd" clip-rule="evenodd" points="302.7,15.9 366.9,11 366.9,8.5 302.7,13.4 "/>
<polygon fill-rule="evenodd" clip-rule="evenodd" points="302.7,12.2 366.9,7.2 366.9,4.8 302.7,9.7 "/>
<polygon fill-rule="evenodd" clip-rule="evenodd" points="381.7,34.5 446.1,32 446.1,29.6 381.7,32 "/>
<polygon fill-rule="evenodd" clip-rule="evenodd" points="381.7,38.2 446.1,35.8 446.1,33.3 381.7,35.8 "/>
<rect x="467.5" y="24.6" fill-rule="evenodd" clip-rule="evenodd" width="64.3" height="2.5"/>
<rect x="467.5" y="28.3" fill-rule="evenodd" clip-rule="evenodd" width="64.3" height="2.5"/>
<rect x="8.6" y="76.4" width="544.4" height="0.5"/>
<rect x="8.6" y="71.5" width="544.4" height="0.5"/>
<rect x="8.6" y="66.5" width="544.4" height="0.5"/>
<rect x="8.6" y="61.6" width="544.4" height="0.5"/>
<rect x="8.6" y="56.6" width="544.4" height="0.5"/>
<g>
	<path d="M15.9,71c2.9-2.6,4.7-6.1,4.7-9.2c0-2.5-1.4-4.4-3.7-4.4c-1.6,0-3.4,1.3-3.4,2.7c0,0.2,0,0.3,0.1,0.3
		c-0.1,0,0.6-0.6,1.4-0.6c0.9,0,1.5,0.8,1.5,1.7c0,1.2-0.9,2.2-2.1,2.2c-1.2,0-2.1-1.3-2.1-2.8c0-2.3,2.3-4.1,4.8-4.1
		c4.7,0,5.9,3.2,5.9,5.8c0,1.6-0.4,2.9-2,5.3c-1.9,3.1-6.4,5.3-8.1,5.3c-0.4,0-0.6-0.2-0.6-0.5C14,72.3,15.1,71.7,15.9,71z
		 M25.8,58.3c0.6,0,1,0.4,1,1c0,0.6-0.4,1-1,1s-1-0.4-1-1C24.8,58.8,25.3,58.3,25.8,58.3z M25.8,63.3c0.6,0,1,0.4,1,1
		c0,0.6-0.4,1-1,1s-1-0.4-1-1C24.8,63.7,25.3,63.3,25.8,63.3z"/>
</g>
<polygon fill-rule="evenodd" clip-rule="evenodd" points="45.5,68 109.8,63 109.8,60.6 45.5,65.5 "/>
<polygon fill-rule="evenodd" clip-rule="evenodd" points="45.5,64.3 109.8,59.3 109.8,56.8 45.5,61.8 "/>
<rect x="131.2" y="55.6" fill-rule="evenodd" clip-rule="evenodd" width="64.2" height="2.5"/>
<rect x="131.2" y="51.9" fill-rule="evenodd" clip-rule="evenodd" width="64.2" height="2.5"/>
<rect x="210.4" y="76.7" fill-rule="evenodd" clip-rule="evenodd" width="64.2" height="2.5"/>
<rect x="210.4" y="80.4" fill-rule="evenodd" clip-rule="evenodd" width="64.2" height="2.5"/>
<polygon fill-rule="evenodd" clip-rule="evenodd" points="296.2,73.3 360.3,72.6 360.3,70.2 296.2,70.8 "/>
<polygon fill-rule="evenodd" clip-rule="evenodd" points="296.2,77 360.3,76.4 360.3,73.9 296.2,74.5 "/>
<polygon fill-rule="evenodd" clip-rule="evenodd" points="381.7,68.3 446.1,67.7 446.1,65.2 381.7,65.8 "/>
<polygon fill-rule="evenodd" clip-rule="evenodd" points="381.7,72 446.1,71.4 446.1,68.9 381.7,69.5 "/>
<rect x="467.5" y="60.6" fill-rule="evenodd" clip-rule="evenodd" width="64.3" height="2.5"/>
<rect x="467.5" y="64.3" fill-rule="evenodd" clip-rule="evenodd" width="64.3" height="2.5"/>
<rect x="8.6" y="142.2" width="544.4" height="0.5"/>
<rect x="8.6" y="137.2" width="544.4" height="0.5"/>
<rect x="8.6" y="132.3" width="544.4" height="0.5"/>
<rect x="8.6" y="127.3" width="544.4" height="0.5"/>
<rect x="8.6" y="122.3" width="544.4" height="0.5"/>
<g>
	<path d="M20.4,142.2c-4.2,0-8.1-3.1-8.1-6.9c0-3.2,2.3-6.7,6.8-10.5c-0.3-1.2-0.4-2.4-0.4-3.6c0-3.5,1.2-6.8,3.2-8.5
		c1.8,2.5,2.7,4.9,2.7,7.1c0,2.9-1.3,5.6-4.3,8.1l0.9,4.2c0.5,0,0.8-0.1,0.8-0.1c2.6,0,4.8,2,4.8,4.7c0,1.9-1.4,3.7-3.6,4.8
		c0-0.1,0.9,3.8,0.9,4.3c0,2.5-2.3,4.2-4.9,4.2c-2,0-3.6-1.3-3.6-3.4c0-1.4,1-2.6,2.4-2.6c1.3,0,2.3,1.3,2.3,2.5
		c0,1.4-1.2,2.3-2.7,2.5c0.6,0.3,1.2,0.5,1.9,0.5c2.1,0,4.1-1.6,4.1-3.6c0-0.2,0-0.4-0.1-0.6l-0.8-3.7
		C22.1,142.1,21.4,142.2,20.4,142.2z M18.2,137c0,1,0.5,1.9,1.6,2.5c-1.8-0.3-3-1.4-3-3.1c0-2,1.7-3.7,3.8-4.1l-0.8-4
		c-3.7,2.8-5.7,5.5-5.7,8.1c0,2.9,2.8,5.3,6,5.3c0.9,0,1.7-0.2,2.4-0.5l-1.4-6.8C19.5,134.6,18.2,135.7,18.2,137z M22.3,115.7
		c-1.6,0-2.9,3.7-2.9,7c0,0.7,0,1.3,0.2,1.9c2.7-2.4,4-4.5,4-6.5c0-0.9-0.3-1.7-1-2.4C22.5,115.7,22.4,115.7,22.3,115.7z M25,137.6
		c0-1.6-1.2-3.3-2.9-3.3c-0.1,0-0.2,0-0.5,0l1.4,6.6C24.4,140,25,138.9,25,137.6z"/>
</g>
<polygon fill-rule="evenodd" clip-rule="evenodd" points="39,138.4 95.1,139 95.1,136.5 39,135.9 "/>
<polygon fill-rule="evenodd" clip-rule="evenodd" points="39,142.1 95.1,142.7 95.1,140.2 39,139.6 "/>
<polygon fill-rule="evenodd" clip-rule="evenodd" points="113.9,144.9 170,147.4 170,144.9 113.9,142.4 "/>
<polygon fill-rule="evenodd" clip-rule="evenodd" points="113.9,148.6 170,151.1 170,148.6 113.9,146.1 "/>
<polygon fill-rule="evenodd" clip-rule="evenodd" points="195.3,122.6 251.4,123.8 251.4,121.3 195.3,120.1 "/>
<polygon fill-rule="evenodd" clip-rule="evenodd" points="195.3,118.8 251.4,120.1 251.4,117.6 195.3,116.4 "/>
<rect x="270.1" y="126.3" fill-rule="evenodd" clip-rule="evenodd" width="56.1" height="2.5"/>
<rect x="270.1" y="122.6" fill-rule="evenodd" clip-rule="evenodd" width="56.1" height="2.5"/>
<polygon fill-rule="evenodd" clip-rule="evenodd" points="345,133.7 401.1,138.7 401.1,136.2 345,131.2 "/>
<polygon fill-rule="evenodd" clip-rule="evenodd" points="345,130 401.1,135 401.1,132.5 345,127.5 "/>
<polygon fill-rule="evenodd" clip-rule="evenodd" points="419.9,137.4 476,138.7 476,136.2 419.9,135 "/>
<polygon fill-rule="evenodd" clip-rule="evenodd" points="419.9,133.7 476,135 476,132.5 419.9,131.2 "/>
<rect x="8.6" y="194.1" width="544.4" height="0.5"/>
<rect x="8.6" y="189.1" width="544.4" height="0.5"/>
<rect x="8.6" y="184.2" width="544.4" height="0.5"/>
<rect x="8.6" y="179.2" width="544.4" height="0.5"/>
<rect x="8.6" y="174.3" width="544.4" height="0.5"/>
<g>
	<path d="M15.9,188.7c2.9-2.6,4.7-6.1,4.7-9.2c0-2.5-1.4-4.4-3.7-4.4c-1.6,0-3.4,1.3-3.4,2.7c0,0.2,0,0.3,0.1,0.3
		c-0.1,0,0.6-0.6,1.4-0.6c0.9,0,1.5,0.8,1.5,1.7c0,1.2-0.9,2.2-2.1,2.2c-1.2,0-2.1-1.3-2.1-2.8c0-2.3,2.3-4.1,4.8-4.1
		c4.7,0,5.9,3.2,5.9,5.8c0,1.6-0.4,2.9-2,5.3c-1.9,3.1-6.4,5.3-8.1,5.3c-0.4,0-0.6-0.2-0.6-0.5C14,189.9,15.1,189.4,15.9,188.7z
		 M25.8,176c0.6,0,1,0.4,1,1c0,0.6-0.4,1-1,1s-1-0.4-1-1C24.8,176.4,25.3,176,25.8,176z M25.8,180.9c0.6,0,1,0.4,1,1
		c0,0.6-0.4,1-1,1s-1-0.4-1-1C24.8,181.4,25.3,180.9,25.8,180.9z"/>
</g>
<polygon fill-rule="evenodd" clip-rule="evenodd" points="39,180.7 95.1,181.9 95.1,179.5 39,178.2 "/>
<polygon fill-rule="evenodd" clip-rule="evenodd" points="39,184.4 95.1,185.7 95.1,183.2 39,181.9 "/>
<polygon fill-rule="evenodd" clip-rule="evenodd" points="113.9,180.7 170,185.7 170,183.2 113.9,178.2 "/>
<polygon fill-rule="evenodd" clip-rule="evenodd" points="113.9,184.4 170,189.4 170,186.9 113.9,181.9 "/>
<polygon fill-rule="evenodd" clip-rule="evenodd" points="188.7,190.6 244.9,191.9 244.9,189.4 188.7,188.1 "/>
<polygon fill-rule="evenodd" clip-rule="evenodd" points="188.7,194.3 244.9,195.6 244.9,193.1 188.7,191.9 "/>
<polygon fill-rule="evenodd" clip-rule="evenodd" points="263.6,196.8 319.7,199.3 319.7,196.8 263.6,194.3 "/>
<polygon fill-rule="evenodd" clip-rule="evenodd" points="263.6,200.5 319.7,203 319.7,200.5 263.6,198.1 "/>
<polygon fill-rule="evenodd" clip-rule="evenodd" points="345,172 401.1,174.5 401.1,172 345,169.5 "/>
<polygon fill-rule="evenodd" clip-rule="evenodd" points="345,168.3 401.1,170.8 401.1,168.3 345,165.8 "/>
<polygon fill-rule="evenodd" clip-rule="evenodd" points="419.9,179.5 476,180.7 476,178.2 419.9,177 "/>
<polygon fill-rule="evenodd" clip-rule="evenodd" points="419.9,175.7 476,177 476,174.5 419.9,173.3 "/>
<rect x="37" y="34.1" width="10.5" height="0.8"/>
<rect x="37" y="39.1" width="10.5" height="0.8"/>
<rect x="37" y="44.1" width="10.5" height="0.8"/>
<rect x="45.3" y="19.8" width="0.5" height="23.9"/>
<g>
	<path d="M38.8,45.3c0-1.8,2.5-3.5,4.5-3.5c1.3,0,2.3,0.7,2.3,1.7c0,1.7-2.5,3.5-4.6,3.5C39.8,47,38.8,46.4,38.8,45.3z"/>
</g>
<g>
	<path d="M35.2,37.6v2.8l1-0.3v1.8l-1,0.3v3.4l1-0.3v1.8l-1,0.3v3.1h-0.5v-3l-1.9,0.6v3h-0.5v-2.8l-1,0.3v-1.8l1-0.3v-3.4l-1,0.3
		v-1.8l1-0.3v-3.1h0.5v3l1.9-0.6v-3H35.2z M34.7,42.4L32.8,43v3.4l1.9-0.6V42.4z"/>
</g>
<rect x="58.4" y="34.1" width="10.5" height="0.8"/>
<rect x="58.4" y="39.1" width="10.5" height="0.8"/>
<rect x="66.7" y="19.5" width="0.5" height="21.7"/>
<g>
	<path d="M60.2,42.8c0-1.8,2.5-3.5,4.5-3.5c1.3,0,2.3,0.7,2.3,1.7c0,1.7-2.5,3.5-4.6,3.5C61.2,44.5,60.2,43.9,60.2,42.8z"/>
</g>
<rect x="79.8" y="34.1" width="10.5" height="0.8"/>
<rect x="79.8" y="39.1" width="10.5" height="0.8"/>
<rect x="88.1" y="19" width="0.5" height="22.2"/>
<g>
	<path d="M81.6,42.8c0-1.8,2.5-3.5,4.5-3.5c1.3,0,2.3,0.7,2.3,1.7c0,1.7-2.5,3.5-4.6,3.5C82.6,44.5,81.6,43.9,81.6,42.8z"/>
</g>
<g>
	<path d="M78,35.1V38l1-0.3v1.8l-1,0.3v3.4l1-0.3v1.8L78,45v3.1h-0.5v-3l-1.9,0.6v3h-0.5v-2.8l-1,0.3v-1.8l1-0.3v-3.4L74,41v-1.8
		l1-0.3v-3.1h0.5v3l1.9-0.6v-3H78z M77.5,39.9l-1.9,0.6V44l1.9-0.6V39.9z"/>
</g>
<rect x="101.3" y="34.1" width="10.5" height="0.8"/>
<rect x="101.3" y="39.1" width="10.5" height="0.8"/>
<rect x="109.6" y="18.6" width="0.5" height="20.2"/>
<g>
	<path d="M103.2,40.3c0-1.8,2.5-3.5,4.5-3.5c1.3,0,2.3,0.7,2.3,1.7c0,1.7-2.5,3.5-4.6,3.5C104.1,42.1,103.2,41.4,103.2,40.3z"/>
</g>
<rect x="122.7" y="34.1" width="10.5" height="0.8"/>
<rect x="122.7" y="39.1" width="10.5" height="0.8"/>
<rect x="131" y="18.6" width="0.5" height="20.2"/>
<g>
	<path d="M124.6,40.3c0-1.8,2.5-3.5,4.5-3.5c1.3,0,2.3,0.7,2.3,1.7c0,1.7-2.5,3.5-4.6,3.5C125.5,42.1,124.6,41.4,124.6,40.3z"/>
</g>
<g>
	<path d="M120.9,32.7v2.8l1-0.3V37l-1,0.3v3.4l1-0.3v1.8l-1,0.3v3.1h-0.5v-3l-1.9,0.6v3H118v-2.8l-1,0.3V42l1-0.3v-3.4l-1,0.3v-1.8
		l1-0.3v-3.1h0.5v3l1.9-0.6v-3H120.9z M120.4,37.4l-1.9,0.6v3.4l1.9-0.6V37.4z"/>
</g>
<rect x="144.1" y="34.1" width="10.5" height="0.8"/>
<rect x="152.4" y="18.6" width="0.5" height="17.7"/>
<g>
	<path d="M146,37.9c0-1.8,2.5-3.5,4.5-3.5c1.3,0,2.3,0.7,2.3,1.7c0,1.7-2.5,3.5-4.6,3.5C146.9,39.6,146,38.9,146,37.9z"/>
</g>
<rect x="165.5" y="34.1" width="10.5" height="0.8"/>
<rect x="173.8" y="18.6" width="0.5" height="15.2"/>
<g>
	<path d="M167.3,35.4c0-1.8,2.5-3.5,4.5-3.5c1.3,0,2.3,0.7,2.3,1.7c0,1.7-2.5,3.5-4.6,3.5C168.3,37.1,167.3,36.5,167.3,35.4z"/>
</g>
<rect x="186.9" y="34.1" width="10.5" height="0.8"/>
<rect x="195.2" y="18.6" width="0.5" height="15.2"/>
<g>
	<path d="M188.7,35.4c0-1.8,2.5-3.5,4.5-3.5c1.3,0,2.3,0.7,2.3,1.7c0,1.7-2.5,3.5-4.6,3.5C189.7,37.1,188.7,36.5,188.7,35.4z"/>
</g>
<g>
	<path d="M185.1,27.7v2.8l1-0.3V32l-1,0.3v3.4l1-0.3v1.8l-1,0.3v3.1h-0.5v-3l-1.9,0.6v3h-0.5v-2.8l-1,0.3V37l1-0.3v-3.4l-1,0.3v-1.8
		l1-0.3v-3.1h0.5v3l1.9-0.6v-3H185.1z M184.6,32.5l-1.9,0.6v3.4l1.9-0.6V32.5z"/>
</g>
<rect x="216.7" y="14.8" width="0.5" height="16.4"/>
<g>
	<path d="M210.3,32.9c0-1.8,2.5-3.5,4.5-3.5c1.3,0,2.3,0.7,2.3,1.7c0,1.7-2.5,3.5-4.6,3.5C211.3,34.6,210.3,34,210.3,32.9z"/>
</g>
<rect x="238.1" y="13.3" width="0.5" height="18"/>
<g>
	<path d="M231.7,32.9c0-1.8,2.5-3.5,4.5-3.5c1.3,0,2.3,0.7,2.3,1.7c0,1.7-2.5,3.5-4.6,3.5C232.7,34.6,231.7,34,231.7,32.9z"/>
</g>
<g>
	<path d="M229.3,25.2v2.8l1-0.3v1.8l-1,0.3v3.4l1-0.3v1.8l-1,0.3v3.1h-0.5v-3l-1.9,0.6v3h-0.5V36l-1,0.3v-1.8l1-0.3v-3.4l-1,0.3
		v-1.8l1-0.3v-3.1h0.5v3l1.9-0.6v-3H229.3z M228.8,30l-1.9,0.6v3.4l1.9-0.6V30z"/>
</g>
<rect x="259.5" y="11.6" width="0.5" height="17.2"/>
<g>
	<path d="M253.1,30.4c0-1.8,2.5-3.5,4.5-3.5c1.3,0,2.3,0.7,2.3,1.7c0,1.7-2.5,3.5-4.6,3.5C254,32.1,253.1,31.5,253.1,30.4z"/>
</g>
<rect x="280.9" y="9.9" width="0.5" height="16.4"/>
<g>
	<path d="M274.5,27.9c0-1.8,2.5-3.5,4.5-3.5c1.3,0,2.3,0.7,2.3,1.7c0,1.7-2.5,3.5-4.6,3.5C275.4,29.7,274.5,29,274.5,27.9z"/>
</g>
<g>
	<path d="M272.5,33.8v-4l-3,1.1V20.3h0.5v4l3-1.1v10.7H272.5z M270,29.2l2.5-0.9v-3.3l-2.5,0.9V29.2z"/>
</g>
<rect x="302.4" y="9.9" width="0.5" height="16.4"/>
<g>
	<path d="M296,27.9c0-1.8,2.5-3.5,4.5-3.5c1.3,0,2.3,0.7,2.3,1.7c0,1.7-2.5,3.5-4.6,3.5C297,29.7,296,29,296,27.9z"/>
</g>
<g>
	<path d="M293.6,20.3v2.8l1-0.3v1.8l-1,0.3v3.4l1-0.3v1.8l-1,0.3v3.1h-0.5v-3l-1.9,0.6v3h-0.5V31l-1,0.3v-1.8l1-0.3v-3.4l-1,0.3
		v-1.8l1-0.3v-3.1h0.5v3l1.9-0.6v-3H293.6z M293.1,25l-1.9,0.6v3.4l1.9-0.6V25z"/>
</g>
<rect x="323.8" y="8.3" width="0.5" height="15.5"/>
<g>
	<path d="M317.4,25.5c0-1.8,2.5-3.5,4.5-3.5c1.3,0,2.3,0.7,2.3,1.7c0,1.7-2.5,3.5-4.6,3.5C318.4,27.2,317.4,26.5,317.4,25.5z"/>
</g>
<g>
	<path d="M315.5,31.4v-4l-3,1.1V17.8h0.5v4l3-1.1v10.7H315.5z M312.9,26.7l2.5-0.9v-3.3l-2.5,0.9V26.7z"/>
</g>
<rect x="345.2" y="6.6" width="0.5" height="17.2"/>
<g>
	<path d="M338.8,25.5c0-1.8,2.5-3.5,4.5-3.5c1.3,0,2.3,0.7,2.3,1.7c0,1.7-2.5,3.5-4.6,3.5C339.8,27.2,338.8,26.5,338.8,25.5z"/>
</g>
<g>
	<path d="M336.4,17.8v2.8l1-0.3v1.8l-1,0.3v3.4l1-0.3v1.8l-1,0.3v3.1h-0.5v-3l-1.9,0.6v3h-0.5v-2.8l-1,0.3v-1.8l1-0.3v-3.4l-1,0.3
		v-1.8l1-0.3v-3.1h0.5v3l1.9-0.6v-3H336.4z M335.9,22.6l-1.9,0.6v3.4l1.9-0.6V22.6z"/>
</g>
<rect x="366.6" y="4.9" width="0.5" height="16.4"/>
<g>
	<path d="M360.2,23c0-1.8,2.5-3.5,4.5-3.5c1.3,0,2.3,0.7,2.3,1.7c0,1.7-2.5,3.5-4.6,3.5C361.2,24.7,360.2,24.1,360.2,23z"/>
</g>
<g>
	<path d="M358.3,28.9v-4l-3,1.1V15.3h0.5v4l3-1.1v10.7H358.3z M355.7,24.2l2.5-0.9V20l-2.5,0.9V24.2z"/>
</g>
<rect x="381.5" y="22.9" width="0.5" height="15.2"/>
<g>
	<path d="M381.6,23c0-1.8,2.5-3.5,4.5-3.5c1.3,0,2.3,0.7,2.3,1.7c0,1.7-2.5,3.5-4.6,3.5C382.6,24.7,381.6,24.1,381.6,23z"/>
</g>
<g>
	<path d="M379.2,15.3v2.8l1-0.3v1.8l-1,0.3v3.4l1-0.3v1.8l-1,0.3v3.1h-0.5v-3l-1.9,0.6v3h-0.5v-2.8l-1,0.3v-1.8l1-0.3v-3.4l-1,0.3
		v-1.8l1-0.3v-3.1h0.5v3l1.9-0.6v-3H379.2z M378.7,20.1l-1.9,0.6v3.4l1.9-0.6V20.1z"/>
</g>
<rect x="403" y="20.4" width="0.5" height="16.9"/>
<g>
	<path d="M403.1,20.5c0-1.8,2.5-3.5,4.5-3.5c1.3,0,2.3,0.7,2.3,1.7c0,1.7-2.5,3.5-4.6,3.5C404.1,22.2,403.1,21.6,403.1,20.5z"/>
</g>
<rect x="424.4" y="17.9" width="0.5" height="18.6"/>
<g>
	<path d="M424.5,18c0-1.8,2.5-3.5,4.5-3.5c1.3,0,2.3,0.7,2.3,1.7c0,1.7-2.5,3.5-4.6,3.5C425.5,19.7,424.5,19.1,424.5,18z"/>
</g>
<g>
	<path d="M422.6,23.9v-4l-3,1.1V10.4h0.5v4l3-1.1v10.7H422.6z M420.1,19.3l2.5-0.9V15l-2.5,0.9V19.3z"/>
</g>
<rect x="445.8" y="17.9" width="0.5" height="17.7"/>
<g>
	<path d="M445.9,18c0-1.8,2.5-3.5,4.5-3.5c1.3,0,2.3,0.7,2.3,1.7c0,1.7-2.5,3.5-4.6,3.5C446.9,19.7,445.9,19.1,445.9,18z"/>
</g>
<g>
	<path d="M443.5,10.3v2.8l1-0.3v1.8l-1,0.3v3.4l1-0.3v1.8l-1,0.3v3.1H443v-3l-1.9,0.6v3h-0.5v-2.8l-1,0.3v-1.8l1-0.3v-3.4l-1,0.3
		v-1.8l1-0.3V11h0.5v3l1.9-0.6v-3H443.5z M443,15.1l-1.9,0.6v3.4l1.9-0.6V15.1z"/>
</g>
<rect x="467.2" y="15.5" width="0.5" height="15.2"/>
<g>
	<path d="M467.3,15.5c0-1.8,2.5-3.5,4.5-3.5c1.3,0,2.3,0.7,2.3,1.7c0,1.7-2.5,3.5-4.6,3.5C468.3,17.3,467.3,16.6,467.3,15.5z"/>
</g>
<g>
	<path d="M465.4,21.4v-4l-3,1.1V7.9h0.5v4l3-1.1v10.7H465.4z M462.8,16.8l2.5-0.9v-3.3l-2.5,0.9V16.8z"/>
</g>
<rect x="488.6" y="15.5" width="0.5" height="15.2"/>
<g>
	<path d="M488.7,15.5c0-1.8,2.5-3.5,4.5-3.5c1.3,0,2.3,0.7,2.3,1.7c0,1.7-2.5,3.5-4.6,3.5C489.7,17.3,488.7,16.6,488.7,15.5z"/>
</g>
<g>
	<path d="M486.3,7.9v2.8l1-0.3v1.8l-1,0.3v3.4l1-0.3v1.8l-1,0.3v3.1h-0.5v-3l-1.9,0.6v3h-0.5v-2.8l-1,0.3v-1.8l1-0.3v-3.4l-1,0.3
		v-1.8l1-0.3V8.5h0.5v3l1.9-0.6v-3H486.3z M485.8,12.6l-1.9,0.6v3.4l1.9-0.6V12.6z"/>
</g>
<rect x="510.2" y="13" width="0.5" height="17.7"/>
<g>
	<path d="M510.2,13c0-1.8,2.5-3.5,4.5-3.5c1.3,0,2.3,0.7,2.3,1.7c0,1.7-2.5,3.5-4.6,3.5C511.2,14.8,510.2,14.1,510.2,13z"/>
</g>
<rect x="531.6" y="10.5" width="0.5" height="20.2"/>
<g>
	<path d="M531.6,10.6c0-1.8,2.5-3.5,4.5-3.5c1.3,0,2.3,0.7,2.3,1.7c0,1.7-2.5,3.5-4.6,3.5C532.6,12.3,531.6,11.7,531.6,10.6z"/>
</g>
<g>
	<path d="M529.7,16.5v-4l-3,1.1V2.9h0.5v4l3-1.1v10.7H529.7z M527.2,11.8l2.5-0.9V7.6l-2.5,0.9V11.8z"/>
</g>
<rect x="45.3" y="62" width="0.5" height="16.4"/>
<g>
	<path d="M38.8,80c0-1.8,2.5-3.5,4.5-3.5c1.3,0,2.3,0.7,2.3,1.7c0,1.7-2.5,3.5-4.6,3.5C39.8,81.7,38.8,81.1,38.8,80z"/>
</g>
<g>
	<path d="M36.4,72.3v2.8l1-0.3v1.8l-1,0.3v3.4l1-0.3v1.8l-1,0.3v3.1h-0.5v-3L34,83v3h-0.5v-2.8l-1,0.3v-1.8l1-0.3v-3.4l-1,0.3v-1.8
		l1-0.3V73H34v3l1.9-0.6v-3H36.4z M35.9,77.1L34,77.8v3.4l1.9-0.6V77.1z"/>
</g>
<rect x="66.7" y="60.4" width="0.5" height="15.5"/>
<g>
	<path d="M60.2,77.5c0-1.8,2.5-3.5,4.5-3.5c1.3,0,2.3,0.7,2.3,1.7c0,1.7-2.5,3.5-4.6,3.5C61.2,79.3,60.2,78.6,60.2,77.5z"/>
</g>
<rect x="88.1" y="58.7" width="0.5" height="17.2"/>
<g>
	<path d="M81.6,77.5c0-1.8,2.5-3.5,4.5-3.5c1.3,0,2.3,0.7,2.3,1.7c0,1.7-2.5,3.5-4.6,3.5C82.6,79.3,81.6,78.6,81.6,77.5z"/>
</g>
<g>
	<path d="M79.2,69.9v2.8l1-0.3v1.8l-1,0.3v3.4l1-0.3v1.8l-1,0.3v3.1h-0.5v-3l-1.9,0.6v3h-0.5v-2.8l-1,0.3v-1.8l1-0.3v-3.4l-1,0.3
		v-1.8l1-0.3v-3.1h0.5v3l1.9-0.6v-3H79.2z M78.7,74.6l-1.9,0.6v3.4l1.9-0.6V74.6z"/>
</g>
<rect x="109.6" y="57" width="0.5" height="16.4"/>
<g>
	<path d="M103.2,75.1c0-1.8,2.5-3.5,4.5-3.5c1.3,0,2.3,0.7,2.3,1.7c0,1.7-2.5,3.5-4.6,3.5C104.1,76.8,103.2,76.1,103.2,75.1z"/>
</g>
<rect x="131" y="52" width="0.5" height="21.4"/>
<g>
	<path d="M124.6,75.1c0-1.8,2.5-3.5,4.5-3.5c1.3,0,2.3,0.7,2.3,1.7c0,1.7-2.5,3.5-4.6,3.5C125.5,76.8,124.6,76.1,124.6,75.1z"/>
</g>
<g>
	<path d="M122.1,67.4v2.8l1-0.3v1.8l-1,0.3v3.4l1-0.3v1.8l-1,0.3v3.1h-0.5v-3l-1.9,0.6v3h-0.5v-2.8l-1,0.3v-1.8l1-0.3v-3.4l-1,0.3
		v-1.8l1-0.3V68h0.5v3l1.9-0.6v-3H122.1z M121.6,72.2l-1.9,0.6v3.4l1.9-0.6V72.2z"/>
</g>
<rect x="152.4" y="52" width="0.5" height="18.9"/>
<g>
	<path d="M146,72.6c0-1.8,2.5-3.5,4.5-3.5c1.3,0,2.3,0.7,2.3,1.7c0,1.7-2.5,3.5-4.6,3.5C146.9,74.3,146,73.7,146,72.6z"/>
</g>
<rect x="173.8" y="52" width="0.5" height="16.4"/>
<g>
	<path d="M167.3,70.1c0-1.8,2.5-3.5,4.5-3.5c1.3,0,2.3,0.7,2.3,1.7c0,1.7-2.5,3.5-4.6,3.5C168.3,71.8,167.3,71.2,167.3,70.1z"/>
</g>
<rect x="195.2" y="52" width="0.5" height="16.4"/>
<g>
	<path d="M188.7,70.1c0-1.8,2.5-3.5,4.5-3.5c1.3,0,2.3,0.7,2.3,1.7c0,1.7-2.5,3.5-4.6,3.5C189.7,71.8,188.7,71.2,188.7,70.1z"/>
</g>
<g>
	<path d="M186.3,62.4v2.8l1-0.3v1.8l-1,0.3v3.4l1-0.3V72l-1,0.3v3.1h-0.5v-3l-1.9,0.6v3h-0.5v-2.8l-1,0.3v-1.8l1-0.3V68l-1,0.3v-1.8
		l1-0.3v-3.1h0.5v3l1.9-0.6v-3H186.3z M185.8,67.2l-1.9,0.6v3.4l1.9-0.6V67.2z"/>
</g>
<rect x="210.2" y="67.5" width="0.5" height="15.2"/>
<g>
	<path d="M210.3,67.6c0-1.8,2.5-3.5,4.5-3.5c1.3,0,2.3,0.7,2.3,1.7c0,1.7-2.5,3.5-4.6,3.5C211.3,69.3,210.3,68.7,210.3,67.6z"/>
</g>
<rect x="231.6" y="67.5" width="0.5" height="15.2"/>
<g>
	<path d="M231.7,67.6c0-1.8,2.5-3.5,4.5-3.5c1.3,0,2.3,0.7,2.3,1.7c0,1.7-2.5,3.5-4.6,3.5C232.7,69.3,231.7,68.7,231.7,67.6z"/>
</g>
<g>
	<path d="M229.3,59.9v2.8l1-0.3v1.8l-1,0.3V68l1-0.3v1.8l-1,0.3v3.1h-0.5v-3l-1.9,0.6v3h-0.5v-2.8l-1,0.3v-1.8l1-0.3v-3.4l-1,0.3V64
		l1-0.3v-3.1h0.5v3l1.9-0.6v-3H229.3z M228.8,64.7l-1.9,0.6v3.4l1.9-0.6V64.7z"/>
</g>
<rect x="253" y="65.1" width="0.5" height="17.7"/>
<g>
	<path d="M253.1,65.1c0-1.8,2.5-3.5,4.5-3.5c1.3,0,2.3,0.7,2.3,1.7c0,1.7-2.5,3.5-4.6,3.5C254,66.9,253.1,66.2,253.1,65.1z"/>
</g>
<rect x="274.4" y="62.6" width="0.5" height="20.2"/>
<g>
	<path d="M274.5,62.7c0-1.8,2.5-3.5,4.5-3.5c1.3,0,2.3,0.7,2.3,1.7c0,1.7-2.5,3.5-4.6,3.5C275.4,64.4,274.5,63.7,274.5,62.7z"/>
</g>
<g>
	<path d="M272.5,68.6v-4l-3,1.1V55h0.5v4l3-1.1v10.7H272.5z M270,63.9l2.5-0.9v-3.3l-2.5,0.9V63.9z"/>
</g>
<rect x="295.9" y="62.6" width="0.5" height="14.3"/>
<g>
	<path d="M296,62.7c0-1.8,2.5-3.5,4.5-3.5c1.3,0,2.3,0.7,2.3,1.7c0,1.7-2.5,3.5-4.6,3.5C297,64.4,296,63.7,296,62.7z"/>
</g>
<g>
	<path d="M293.6,55v2.8l1-0.3v1.8l-1,0.3V63l1-0.3v1.8l-1,0.3V68h-0.5v-3l-1.9,0.6v3h-0.5v-2.8l-1,0.3v-1.8l1-0.3v-3.4l-1,0.3v-1.8
		l1-0.3v-3.1h0.5v3l1.9-0.6v-3H293.6z M293.1,59.8l-1.9,0.6v3.4l1.9-0.6V59.8z"/>
</g>
<rect x="317.3" y="60.1" width="0.5" height="16.6"/>
<g>
	<path d="M317.4,60.2c0-1.8,2.5-3.5,4.5-3.5c1.3,0,2.3,0.7,2.3,1.7c0,1.7-2.5,3.5-4.6,3.5C318.4,61.9,317.4,61.3,317.4,60.2z"/>
</g>
<g>
	<path d="M315.5,66.1v-4l-3,1.1V52.5h0.5v4l3-1.1v10.7H315.5z M312.9,61.4l2.5-0.9v-3.3l-2.5,0.9V61.4z"/>
</g>
<rect x="338.7" y="60.1" width="0.5" height="16.4"/>
<g>
	<path d="M338.8,60.2c0-1.8,2.5-3.5,4.5-3.5c1.3,0,2.3,0.7,2.3,1.7c0,1.7-2.5,3.5-4.6,3.5C339.8,61.9,338.8,61.3,338.8,60.2z"/>
</g>
<g>
	<path d="M336.4,52.5v2.8l1-0.3v1.8l-1,0.3v3.4l1-0.3V62l-1,0.3v3.1h-0.5v-3l-1.9,0.6v3h-0.5v-2.8l-1,0.3v-1.8l1-0.3V58l-1,0.3v-1.8
		l1-0.3v-3.1h0.5v3l1.9-0.6v-3H336.4z M335.9,57.3l-1.9,0.6v3.4l1.9-0.6V57.3z"/>
</g>
<rect x="360.1" y="57.6" width="0.5" height="18.6"/>
<g>
	<path d="M360.2,57.7c0-1.8,2.5-3.5,4.5-3.5c1.3,0,2.3,0.7,2.3,1.7c0,1.7-2.5,3.5-4.6,3.5C361.2,59.4,360.2,58.8,360.2,57.7z"/>
</g>
<g>
	<path d="M358.3,63.6v-4l-3,1.1V50h0.5v4l3-1.1v10.7H358.3z M355.7,58.9l2.5-0.9v-3.3l-2.5,0.9V58.9z"/>
</g>
<rect x="381.5" y="57.6" width="0.5" height="14.3"/>
<g>
	<path d="M381.6,57.7c0-1.8,2.5-3.5,4.5-3.5c1.3,0,2.3,0.7,2.3,1.7c0,1.7-2.5,3.5-4.6,3.5C382.6,59.4,381.6,58.8,381.6,57.7z"/>
</g>
<g>
	<path d="M379.2,50v2.8l1-0.3v1.8l-1,0.3v3.4l1-0.3v1.8l-1,0.3V63h-0.5v-3l-1.9,0.6v3h-0.5v-2.8l-1,0.3v-1.8l1-0.3v-3.4l-1,0.3v-1.8
		l1-0.3v-3.1h0.5v3l1.9-0.6v-3H379.2z M378.7,54.8l-1.9,0.6v3.4l1.9-0.6V54.8z"/>
</g>
<rect x="403" y="55.1" width="0.5" height="16.6"/>
<g>
	<path d="M403.1,55.2c0-1.8,2.5-3.5,4.5-3.5c1.3,0,2.3,0.7,2.3,1.7c0,1.7-2.5,3.5-4.6,3.5C404.1,56.9,403.1,56.3,403.1,55.2z"/>
</g>
<rect x="422.7" y="51.5" width="10.5" height="0.8"/>
<rect x="424.4" y="52.7" width="0.5" height="18.9"/>
<g>
	<path d="M424.5,52.7c0-1.8,2.5-3.5,4.5-3.5c1.3,0,2.3,0.7,2.3,1.7c0,1.7-2.5,3.5-4.6,3.5C425.5,54.5,424.5,53.8,424.5,52.7z"/>
</g>
<g>
	<path d="M421.4,58.6v-4l-3,1.1V45.1h0.5v4l3-1.1v10.7H421.4z M418.8,54l2.5-0.9v-3.3l-2.5,0.9V54z"/>
</g>
<rect x="444.1" y="51.5" width="10.5" height="0.8"/>
<rect x="445.8" y="52.7" width="0.5" height="18.6"/>
<g>
	<path d="M445.9,52.7c0-1.8,2.5-3.5,4.5-3.5c1.3,0,2.3,0.7,2.3,1.7c0,1.7-2.5,3.5-4.6,3.5C446.9,54.5,445.9,53.8,445.9,52.7z"/>
</g>
<g>
	<path d="M442.2,45.1v2.8l1-0.3v1.8l-1,0.3v3.4l1-0.3v1.8l-1,0.3V58h-0.5v-3l-1.9,0.6v3h-0.5v-2.8l-1,0.3v-1.8l1-0.3v-3.4l-1,0.3
		v-1.8l1-0.3v-3.1h0.5v3l1.9-0.6v-3H442.2z M441.7,49.8l-1.9,0.6v3.4l1.9-0.6V49.8z"/>
</g>
<rect x="465.4" y="51.5" width="10.5" height="0.8"/>
<rect x="467.2" y="50.2" width="0.5" height="16.4"/>
<g>
	<path d="M467.3,50.3c0-1.8,2.5-3.5,4.5-3.5c1.3,0,2.3,0.7,2.3,1.7c0,1.7-2.5,3.5-4.6,3.5C468.3,52,467.3,51.3,467.3,50.3z"/>
</g>
<g>
	<path d="M464.1,56.2v-4l-3,1.1V42.6h0.5v4l3-1.1v10.7H464.1z M461.6,51.5l2.5-0.9v-3.3l-2.5,0.9V51.5z"/>
</g>
<rect x="486.8" y="51.5" width="10.5" height="0.8"/>
<rect x="488.6" y="50.2" width="0.5" height="16.4"/>
<g>
	<path d="M488.7,50.3c0-1.8,2.5-3.5,4.5-3.5c1.3,0,2.3,0.7,2.3,1.7c0,1.7-2.5,3.5-4.6,3.5C489.7,52,488.7,51.3,488.7,50.3z"/>
</g>
<g>
	<path d="M485,42.6v2.8l1-0.3v1.8l-1,0.3v3.4l1-0.3v1.8l-1,0.3v3.1h-0.5v-3l-1.9,0.6v3h-0.5v-2.8l-1,0.3v-1.8l1-0.3v-3.4l-1,0.3
		v-1.8l1-0.3v-3.1h0.5v3l1.9-0.6v-3H485z M484.5,47.4l-1.9,0.6v3.4l1.9-0.6V47.4z"/>
</g>
<rect x="508.4" y="51.5" width="10.5" height="0.8"/>
<rect x="508.4" y="46.5" width="10.5" height="0.8"/>
<rect x="510.2" y="47.7" width="0.5" height="18.9"/>
<g>
	<path d="M510.2,47.8c0-1.8,2.5-3.5,4.5-3.5c1.3,0,2.3,0.7,2.3,1.7c0,1.7-2.5,3.5-4.6,3.5C511.2,49.5,510.2,48.9,510.2,47.8z"/>
</g>
<rect x="529.8" y="51.5" width="10.5" height="0.8"/>
<rect x="529.8" y="46.5" width="10.5" height="0.8"/>
<rect x="531.6" y="45.2" width="0.5" height="21.4"/>
<g>
	<path d="M531.6,45.3c0-1.8,2.5-3.5,4.5-3.5c1.3,0,2.3,0.7,2.3,1.7c0,1.7-2.5,3.5-4.6,3.5C532.6,47,531.6,46.4,531.6,45.3z"/>
</g>
<g>
	<path d="M528.5,51.2v-4l-3,1.1V37.6h0.5v4l3-1.1v10.7H528.5z M525.9,46.5l2.5-0.9v-3.3l-2.5,0.9V46.5z"/>
</g>
<rect x="38.8" y="123.3" width="0.5" height="18.6"/>
<g>
	<path d="M38.8,123.4c0-1.8,2.5-3.5,4.5-3.5c1.3,0,2.3,0.7,2.3,1.7c0,1.7-2.5,3.5-4.6,3.5C39.8,125.1,38.8,124.5,38.8,123.4z"/>
</g>
<g>
	<path d="M36.4,115.7v2.8l1-0.3v1.8l-1,0.3v3.4l1-0.3v1.8l-1,0.3v3.1h-0.5v-3l-1.9,0.6v3h-0.5v-2.8l-1,0.3v-1.8l1-0.3v-3.4l-1,0.3
		v-1.8l1-0.3v-3.1H34v3l1.9-0.6v-3H36.4z M35.9,120.5l-1.9,0.6v3.4l1.9-0.6V120.5z"/>
</g>
<rect x="57.5" y="123.3" width="0.5" height="18.8"/>
<g>
	<path d="M57.6,123.4c0-1.8,2.5-3.5,4.5-3.5c1.3,0,2.3,0.7,2.3,1.7c0,1.7-2.5,3.5-4.6,3.5C58.6,125.1,57.6,124.5,57.6,123.4z"/>
</g>
<g>
	<path d="M55.7,129.3v-4l-3,1.1v-10.7h0.5v4l3-1.1v10.7H55.7z M53.1,124.7l2.5-0.9v-3.3l-2.5,0.9V124.7z"/>
</g>
<rect x="76.1" y="125.8" width="0.5" height="16.4"/>
<g>
	<path d="M76.2,125.9c0-1.8,2.5-3.5,4.5-3.5c1.3,0,2.3,0.7,2.3,1.7c0,1.7-2.5,3.5-4.6,3.5C77.2,127.6,76.2,127,76.2,125.9z"/>
</g>
<rect x="94.9" y="128.3" width="0.5" height="14.3"/>
<g>
	<path d="M95,128.4c0-1.8,2.5-3.5,4.5-3.5c1.3,0,2.3,0.7,2.3,1.7c0,1.7-2.5,3.5-4.6,3.5C95.9,130.1,95,129.5,95,128.4z"/>
</g>
<g>
	<path d="M92.5,120.7v2.8l1-0.3v1.8l-1,0.3v3.4l1-0.3v1.8l-1,0.3v3.1H92v-3l-1.9,0.6v3h-0.5v-2.8l-1,0.3V130l1-0.3v-3.4l-1,0.3v-1.8
		l1-0.3v-3.1h0.5v3l1.9-0.6v-3H92.5z M92,125.5l-1.9,0.6v3.4l1.9-0.6V125.5z"/>
</g>
<rect x="113.6" y="128.3" width="0.5" height="20.2"/>
<g>
	<path d="M113.7,128.4c0-1.8,2.5-3.5,4.5-3.5c1.3,0,2.3,0.7,2.3,1.7c0,1.7-2.5,3.5-4.6,3.5C114.7,130.1,113.7,129.5,113.7,128.4z"/>
</g>
<g>
	<path d="M111.8,134.3v-4l-3,1.1v-10.7h0.5v4l3-1.1v10.7H111.8z M109.2,129.6l2.5-0.9v-3.3l-2.5,0.9V129.6z"/>
</g>
<rect x="132.4" y="130.8" width="0.5" height="18.4"/>
<g>
	<path d="M132.5,130.9c0-1.8,2.5-3.5,4.5-3.5c1.3,0,2.3,0.7,2.3,1.7c0,1.7-2.5,3.5-4.6,3.5C133.4,132.6,132.5,131.9,132.5,130.9z"/>
</g>
<g>
	<path d="M130,123.2v2.8l1-0.3v1.8l-1,0.3v3.4l1-0.3v1.8l-1,0.3v3.1h-0.5v-3l-1.9,0.6v3h-0.5V134l-1,0.3v-1.8l1-0.3v-3.4l-1,0.3
		v-1.8l1-0.3v-3.1h0.5v3l1.9-0.6v-3H130z M129.5,128l-1.9,0.6v3.4l1.9-0.6V128z"/>
</g>
<rect x="151" y="130.8" width="0.5" height="19.2"/>
<g>
	<path d="M151.1,130.9c0-1.8,2.5-3.5,4.5-3.5c1.3,0,2.3,0.7,2.3,1.7c0,1.7-2.5,3.5-4.6,3.5C152,132.6,151.1,131.9,151.1,130.9z"/>
</g>
<g>
	<path d="M149.1,136.8v-4l-3,1.1v-10.7h0.5v4l3-1.1v10.7H149.1z M146.6,132.1l2.5-0.9v-3.3l-2.5,0.9V132.1z"/>
</g>
<rect x="169.8" y="133.3" width="0.5" height="17.7"/>
<g>
	<path d="M169.8,133.3c0-1.8,2.5-3.5,4.5-3.5c1.3,0,2.3,0.7,2.3,1.7c0,1.7-2.5,3.5-4.6,3.5C170.8,135.1,169.8,134.4,169.8,133.3z"/>
</g>
<rect x="195" y="116.5" width="0.5" height="17.7"/>
<g>
	<path d="M188.6,135.8c0-1.8,2.5-3.5,4.5-3.5c1.3,0,2.3,0.7,2.3,1.7c0,1.7-2.5,3.5-4.6,3.5C189.6,137.5,188.6,136.9,188.6,135.8z"/>
</g>
<g>
	<path d="M186.2,128.1v2.8l1-0.3v1.8l-1,0.3v3.4l1-0.3v1.8l-1,0.3v3.1h-0.5v-3l-1.9,0.6v3h-0.5v-2.8l-1,0.3v-1.8l1-0.3v-3.4l-1,0.3
		v-1.8l1-0.3v-3.1h0.5v3l1.9-0.6v-3H186.2z M185.7,132.9l-1.9,0.6v3.4l1.9-0.6V132.9z"/>
</g>
<rect x="213.8" y="116.8" width="0.5" height="17.4"/>
<g>
	<path d="M207.3,135.8c0-1.8,2.5-3.5,4.5-3.5c1.3,0,2.3,0.7,2.3,1.7c0,1.7-2.5,3.5-4.6,3.5C208.3,137.5,207.3,136.9,207.3,135.8z"/>
</g>
<g>
	<path d="M205.4,141.7v-4l-3,1.1v-10.7h0.5v4l3-1.1v10.7H205.4z M202.9,137.1l2.5-0.9v-3.3l-2.5,0.9V137.1z"/>
</g>
<rect x="232.4" y="117.3" width="0.5" height="19.4"/>
<g>
	<path d="M225.9,138.3c0-1.8,2.5-3.5,4.5-3.5c1.3,0,2.3,0.7,2.3,1.7c0,1.7-2.5,3.5-4.6,3.5C226.9,140,225.9,139.4,225.9,138.3z"/>
</g>
<g>
	<path d="M223.5,130.6v2.8l1-0.3v1.8l-1,0.3v3.4l1-0.3v1.8l-1,0.3v3.1H223v-3l-1.9,0.6v3h-0.5v-2.8l-1,0.3v-1.8l1-0.3v-3.4l-1,0.3
		v-1.8l1-0.3v-3.1h0.5v3l1.9-0.6v-3H223.5z M223,135.4l-1.9,0.6v3.4l1.9-0.6V135.4z"/>
</g>
<rect x="251.1" y="117.8" width="0.5" height="18.9"/>
<g>
	<path d="M244.7,138.3c0-1.8,2.5-3.5,4.5-3.5c1.3,0,2.3,0.7,2.3,1.7c0,1.7-2.5,3.5-4.6,3.5C245.7,140,244.7,139.4,244.7,138.3z"/>
</g>
<g>
	<path d="M242.8,144.2v-4l-3,1.1v-10.7h0.5v4l3-1.1v10.7H242.8z M240.2,139.5l2.5-0.9v-3.3l-2.5,0.9V139.5z"/>
</g>
<rect x="269.9" y="122.7" width="0.5" height="16.4"/>
<g>
	<path d="M263.5,140.8c0-1.8,2.5-3.5,4.5-3.5c1.3,0,2.3,0.7,2.3,1.7c0,1.7-2.5,3.5-4.6,3.5C264.4,142.5,263.5,141.9,263.5,140.8z"/>
</g>
<g>
	<path d="M261,133.1v2.8l1-0.3v1.8l-1,0.3v3.4l1-0.3v1.8l-1,0.3v3.1h-0.5v-3l-1.9,0.6v3h-0.5v-2.8l-1,0.3v-1.8l1-0.3v-3.4l-1,0.3
		v-1.8l1-0.3v-3.1h0.5v3l1.9-0.6v-3H261z M260.5,137.9l-1.9,0.6v3.4l1.9-0.6V137.9z"/>
</g>
<rect x="288.6" y="122.7" width="0.5" height="16.4"/>
<g>
	<path d="M282.2,140.8c0-1.8,2.5-3.5,4.5-3.5c1.3,0,2.3,0.7,2.3,1.7c0,1.7-2.5,3.5-4.6,3.5C283.2,142.5,282.2,141.9,282.2,140.8z"/>
</g>
<g>
	<path d="M280.3,146.7v-4l-3,1.1v-10.7h0.5v4l3-1.1v10.7H280.3z M277.7,142l2.5-0.9v-3.3l-2.5,0.9V142z"/>
</g>
<rect x="307.2" y="122.7" width="0.5" height="18.9"/>
<g>
	<path d="M300.8,143.3c0-1.8,2.5-3.5,4.5-3.5c1.3,0,2.3,0.7,2.3,1.7c0,1.7-2.5,3.5-4.6,3.5C301.8,145,300.8,144.3,300.8,143.3z"/>
</g>
<rect x="326" y="122.7" width="0.5" height="21.4"/>
<g>
	<path d="M319.6,145.7c0-1.8,2.5-3.5,4.5-3.5c1.3,0,2.3,0.7,2.3,1.7c0,1.7-2.5,3.5-4.6,3.5C320.5,147.5,319.6,146.8,319.6,145.7z"/>
</g>
<g>
	<path d="M317.1,138.1v2.8l1-0.3v1.8l-1,0.3v3.4l1-0.3v1.8l-1,0.3v3.1h-0.5v-3l-1.9,0.6v3h-0.5v-2.8l-1,0.3v-1.8l1-0.3v-3.4l-1,0.3
		v-1.8l1-0.3v-3.1h0.5v3l1.9-0.6v-3H317.1z M316.6,142.8l-1.9,0.6v3.4l1.9-0.6V142.8z"/>
</g>
<rect x="344.8" y="127.7" width="0.5" height="16.4"/>
<g>
	<path d="M338.3,145.7c0-1.8,2.5-3.5,4.5-3.5c1.3,0,2.3,0.7,2.3,1.7c0,1.7-2.5,3.5-4.6,3.5C339.3,147.5,338.3,146.8,338.3,145.7z"/>
</g>
<g>
	<path d="M336.4,151.6v-4l-3,1.1v-10.7h0.5v4l3-1.1v10.7H336.4z M333.9,147l2.5-0.9v-3.3l-2.5,0.9V147z"/>
</g>
<rect x="355.2" y="147" width="10.5" height="0.8"/>
<rect x="363.5" y="129.2" width="0.5" height="17.4"/>
<g>
	<path d="M357.1,148.2c0-1.8,2.5-3.5,4.5-3.5c1.3,0,2.3,0.7,2.3,1.7c0,1.7-2.5,3.5-4.6,3.5C358.1,149.9,357.1,149.3,357.1,148.2z"/>
</g>
<g>
	<path d="M353.4,140.5v2.8l1-0.3v1.8l-1,0.3v3.4l1-0.3v1.8l-1,0.3v3.1h-0.5v-3l-1.9,0.6v3h-0.5v-2.8l-1,0.3v-1.8l1-0.3v-3.4l-1,0.3
		v-1.8l1-0.3v-3.1h0.5v3l1.9-0.6v-3H353.4z M352.9,145.3L351,146v3.4l1.9-0.6V145.3z"/>
</g>
<rect x="373.8" y="147" width="10.5" height="0.8"/>
<rect x="382.1" y="130.9" width="0.5" height="15.7"/>
<g>
	<path d="M375.7,148.2c0-1.8,2.5-3.5,4.5-3.5c1.3,0,2.3,0.7,2.3,1.7c0,1.7-2.5,3.5-4.6,3.5C376.7,149.9,375.7,149.3,375.7,148.2z"/>
</g>
<g>
	<path d="M372.5,154.1v-4l-3,1.1v-10.7h0.5v4l3-1.1v10.7H372.5z M370,149.5l2.5-0.9v-3.3l-2.5,0.9V149.5z"/>
</g>
<rect x="392.6" y="147" width="10.5" height="0.8"/>
<rect x="400.9" y="132.6" width="0.5" height="16.4"/>
<g>
	<path d="M394.4,150.7c0-1.8,2.5-3.5,4.5-3.5c1.3,0,2.3,0.7,2.3,1.7c0,1.7-2.5,3.5-4.6,3.5C395.4,152.4,394.4,151.8,394.4,150.7z"/>
</g>
<rect x="411.3" y="147" width="10.5" height="0.8"/>
<rect x="411.3" y="151.9" width="10.5" height="0.8"/>
<rect x="419.6" y="131.4" width="0.5" height="20.2"/>
<g>
	<path d="M413.2,153.2c0-1.8,2.5-3.5,4.5-3.5c1.3,0,2.3,0.7,2.3,1.7c0,1.7-2.5,3.5-4.6,3.5C414.2,154.9,413.2,154.3,413.2,153.2z"/>
</g>
<g>
	<path d="M409.5,145.5v2.8l1-0.3v1.8l-1,0.3v3.4l1-0.3v1.8l-1,0.3v3.1H409v-3l-1.9,0.6v3h-0.5v-2.8l-1,0.3v-1.8l1-0.3v-3.4l-1,0.3
		v-1.8l1-0.3v-3.1h0.5v3l1.9-0.6v-3H409.5z M409,150.3l-1.9,0.6v3.4l1.9-0.6V150.3z"/>
</g>
<rect x="430.1" y="147" width="10.5" height="0.8"/>
<rect x="430.1" y="151.9" width="10.5" height="0.8"/>
<rect x="438.4" y="131.7" width="0.5" height="19.8"/>
<g>
	<path d="M432,153.2c0-1.8,2.5-3.5,4.5-3.5c1.3,0,2.3,0.7,2.3,1.7c0,1.7-2.5,3.5-4.6,3.5C432.9,154.9,432,154.3,432,153.2z"/>
</g>
<g>
	<path d="M428.8,159.1v-4l-3,1.1v-10.7h0.5v4l3-1.1v10.7H428.8z M426.3,154.4l2.5-0.9v-3.3l-2.5,0.9V154.4z"/>
</g>
<rect x="448.7" y="147" width="10.5" height="0.8"/>
<rect x="448.7" y="151.9" width="10.5" height="0.8"/>
<rect x="457" y="132.2" width="0.5" height="21.9"/>
<g>
	<path d="M450.6,155.7c0-1.8,2.5-3.5,4.5-3.5c1.3,0,2.3,0.7,2.3,1.7c0,1.7-2.5,3.5-4.6,3.5C451.5,157.4,450.6,156.7,450.6,155.7z"/>
</g>
<g>
	<path d="M446.9,148v2.8l1-0.3v1.8l-1,0.3v3.4l1-0.3v1.8l-1,0.3v3.1h-0.5v-3l-1.9,0.6v3H444v-2.8l-1,0.3v-1.8l1-0.3v-3.4l-1,0.3
		v-1.8l1-0.3v-3.1h0.5v3l1.9-0.6v-3H446.9z M446.4,152.8l-1.9,0.6v3.4l1.9-0.6V152.8z"/>
</g>
<rect x="467.5" y="147" width="10.5" height="0.8"/>
<rect x="467.5" y="151.9" width="10.5" height="0.8"/>
<rect x="475.8" y="132.6" width="0.5" height="21.4"/>
<g>
	<path d="M469.3,155.7c0-1.8,2.5-3.5,4.5-3.5c1.3,0,2.3,0.7,2.3,1.7c0,1.7-2.5,3.5-4.6,3.5C470.3,157.4,469.3,156.7,469.3,155.7z"/>
</g>
<g>
	<path d="M466.2,161.6v-4l-3,1.1V148h0.5v4l3-1.1v10.7H466.2z M463.6,156.9l2.5-0.9v-3.3l-2.5,0.9V156.9z"/>
</g>
<rect x="486.2" y="147" width="10.7" height="0.8"/>
<rect x="486.2" y="151.9" width="10.7" height="0.8"/>
<rect x="486.2" y="156.9" width="10.7" height="0.8"/>
<rect x="494.7" y="132.5" width="0.5" height="24"/>
<g>
	<path d="M492.3,154.6c1.6,0,2.7,0.7,2.7,2c0,1.9-2.3,3.4-4.5,3.4c-1.3,0-2.4-0.7-2.4-1.8C488.1,156.4,490.3,154.6,492.3,154.6z
		 M488.5,158.4c0,0.6,0.4,0.9,1.1,0.9c1.4,0,4.9-2.1,4.9-3.3c0-0.6-0.4-0.9-1.1-0.9C492.2,155.2,488.5,157.2,488.5,158.4z"/>
</g>
<g>
	<path d="M484.4,150.5v2.8l1-0.3v1.8l-1,0.3v3.4l1-0.3v1.8l-1,0.3v3.1h-0.5v-3l-1.9,0.6v3h-0.5v-2.8l-1,0.3v-1.8l1-0.3V156l-1,0.3
		v-1.8l1-0.3v-3.1h0.5v3l1.9-0.6v-3H484.4z M483.9,155.2l-1.9,0.6v3.4l1.9-0.6V155.2z"/>
</g>
<rect x="37" y="169.1" width="10.5" height="0.8"/>
<rect x="37" y="164.2" width="10.5" height="0.8"/>
<rect x="38.8" y="162.9" width="0.5" height="21.4"/>
<g>
	<path d="M38.8,162.9c0-1.8,2.5-3.5,4.5-3.5c1.3,0,2.3,0.7,2.3,1.7c0,1.7-2.5,3.5-4.6,3.5C39.8,164.7,38.8,164,38.8,162.9z"/>
</g>
<g>
	<path d="M35.2,155.3v2.8l1-0.3v1.8l-1,0.3v3.4l1-0.3v1.8l-1,0.3v3.1h-0.5v-3l-1.9,0.6v3h-0.5v-2.8l-1,0.3v-1.8l1-0.3v-3.4l-1,0.3
		v-1.8l1-0.3v-3.1h0.5v3l1.9-0.6v-3H35.2z M34.7,160l-1.9,0.6v3.4l1.9-0.6V160z"/>
</g>
<rect x="55.7" y="169.1" width="10.5" height="0.8"/>
<rect x="55.7" y="164.2" width="10.5" height="0.8"/>
<rect x="57.5" y="162.9" width="0.5" height="21.7"/>
<g>
	<path d="M57.6,162.9c0-1.8,2.5-3.5,4.5-3.5c1.3,0,2.3,0.7,2.3,1.7c0,1.7-2.5,3.5-4.6,3.5C58.6,164.7,57.6,164,57.6,162.9z"/>
</g>
<g>
	<path d="M54.4,168.9v-4l-3,1.1v-10.7h0.5v4l3-1.1v10.7H54.4z M51.9,164.2l2.5-0.9v-3.3l-2.5,0.9V164.2z"/>
</g>
<rect x="74.3" y="169.1" width="10.5" height="0.8"/>
<rect x="74.3" y="164.2" width="10.5" height="0.8"/>
<rect x="76.1" y="165.3" width="0.5" height="19.7"/>
<g>
	<path d="M76.2,165.4c0-1.8,2.5-3.5,4.5-3.5c1.3,0,2.3,0.7,2.3,1.7c0,1.7-2.5,3.5-4.6,3.5C77.2,167.1,76.2,166.5,76.2,165.4z"/>
</g>
<rect x="93.1" y="169.1" width="10.5" height="0.8"/>
<rect x="94.9" y="167.8" width="0.5" height="17.7"/>
<g>
	<path d="M95,167.9c0-1.8,2.5-3.5,4.5-3.5c1.3,0,2.3,0.7,2.3,1.7c0,1.7-2.5,3.5-4.6,3.5C95.9,169.6,95,169,95,167.9z"/>
</g>
<g>
	<path d="M91.3,160.2v2.8l1-0.3v1.8l-1,0.3v3.4l1-0.3v1.8l-1,0.3v3.1h-0.5v-3l-1.9,0.6v3h-0.5V171l-1,0.3v-1.8l1-0.3v-3.4l-1,0.3
		v-1.8l1-0.3v-3.1h0.5v3l1.9-0.6v-3H91.3z M90.8,165l-1.9,0.6v3.4l1.9-0.6V165z"/>
</g>
<rect x="111.9" y="169.1" width="10.5" height="0.8"/>
<rect x="113.6" y="167.8" width="0.5" height="16.4"/>
<g>
	<path d="M113.7,167.9c0-1.8,2.5-3.5,4.5-3.5c1.3,0,2.3,0.7,2.3,1.7c0,1.7-2.5,3.5-4.6,3.5C114.7,169.6,113.7,169,113.7,167.9z"/>
</g>
<g>
	<path d="M110.5,173.8v-4l-3,1.1v-10.7h0.5v4l3-1.1v10.7H110.5z M108,169.2l2.5-0.9v-3.3l-2.5,0.9V169.2z"/>
</g>
<rect x="130.6" y="169.1" width="10.5" height="0.8"/>
<rect x="132.4" y="170.3" width="0.5" height="15.5"/>
<g>
	<path d="M132.5,170.4c0-1.8,2.5-3.5,4.5-3.5c1.3,0,2.3,0.7,2.3,1.7c0,1.7-2.5,3.5-4.6,3.5C133.4,172.1,132.5,171.5,132.5,170.4z"/>
</g>
<g>
	<path d="M128.8,162.7v2.8l1-0.3v1.8l-1,0.3v3.4l1-0.3v1.8l-1,0.3v3.1h-0.5v-3l-1.9,0.6v3h-0.5v-2.8l-1,0.3V172l1-0.3v-3.4l-1,0.3
		v-1.8l1-0.3v-3.1h0.5v3l1.9-0.6v-3H128.8z M128.3,167.5l-1.9,0.6v3.4l1.9-0.6V167.5z"/>
</g>
<rect x="149.2" y="169.1" width="10.5" height="0.8"/>
<rect x="151" y="170.3" width="0.5" height="17.2"/>
<g>
	<path d="M151.1,170.4c0-1.8,2.5-3.5,4.5-3.5c1.3,0,2.3,0.7,2.3,1.7c0,1.7-2.5,3.5-4.6,3.5C152,172.1,151.1,171.5,151.1,170.4z"/>
</g>
<g>
	<path d="M147.9,176.3v-4l-3,1.1v-10.7h0.5v4l3-1.1v10.7H147.9z M145.4,171.6l2.5-0.9v-3.3l-2.5,0.9V171.6z"/>
</g>
<rect x="169.8" y="172.8" width="0.5" height="16.4"/>
<g>
	<path d="M169.8,172.9c0-1.8,2.5-3.5,4.5-3.5c1.3,0,2.3,0.7,2.3,1.7c0,1.7-2.5,3.5-4.6,3.5C170.8,174.6,169.8,174,169.8,172.9z"/>
</g>
<rect x="188.5" y="175.3" width="0.5" height="18.9"/>
<g>
	<path d="M188.6,175.3c0-1.8,2.5-3.5,4.5-3.5c1.3,0,2.3,0.7,2.3,1.7c0,1.7-2.5,3.5-4.6,3.5C189.6,177.1,188.6,176.4,188.6,175.3z"/>
</g>
<g>
	<path d="M186.2,167.7v2.8l1-0.3v1.8l-1,0.3v3.4l1-0.3v1.8l-1,0.3v3.1h-0.5v-3l-1.9,0.6v3h-0.5v-2.8l-1,0.3V177l1-0.3v-3.4l-1,0.3
		v-1.8l1-0.3v-3.1h0.5v3l1.9-0.6v-3H186.2z M185.7,172.4l-1.9,0.6v3.4l1.9-0.6V172.4z"/>
</g>
<rect x="207.3" y="175.3" width="0.5" height="19.2"/>
<g>
	<path d="M207.3,175.3c0-1.8,2.5-3.5,4.5-3.5c1.3,0,2.3,0.7,2.3,1.7c0,1.7-2.5,3.5-4.6,3.5C208.3,177.1,207.3,176.4,207.3,175.3z"/>
</g>
<g>
	<path d="M205.4,181.3v-4l-3,1.1v-10.7h0.5v4l3-1.1v10.7H205.4z M202.9,176.6l2.5-0.9v-3.3l-2.5,0.9V176.6z"/>
</g>
<rect x="225.9" y="177.7" width="0.5" height="17.2"/>
<g>
	<path d="M225.9,177.8c0-1.8,2.5-3.5,4.5-3.5c1.3,0,2.3,0.7,2.3,1.7c0,1.7-2.5,3.5-4.6,3.5C226.9,179.5,225.9,178.9,225.9,177.8z"/>
</g>
<g>
	<path d="M223.5,170.1v2.8l1-0.3v1.8l-1,0.3v3.4l1-0.3v1.8l-1,0.3v3.1H223v-3l-1.9,0.6v3h-0.5v-2.8l-1,0.3v-1.8l1-0.3v-3.4l-1,0.3
		v-1.8l1-0.3v-3.1h0.5v3l1.9-0.6v-3H223.5z M223,174.9l-1.9,0.6v3.4l1.9-0.6V174.9z"/>
</g>
<rect x="244.6" y="177.7" width="0.5" height="17.7"/>
<g>
	<path d="M244.7,177.8c0-1.8,2.5-3.5,4.5-3.5c1.3,0,2.3,0.7,2.3,1.7c0,1.7-2.5,3.5-4.6,3.5C245.7,179.5,244.7,178.9,244.7,177.8z"/>
</g>
<g>
	<path d="M242.8,183.7v-4l-3,1.1v-10.7h0.5v4l3-1.1v10.7H242.8z M240.2,179.1l2.5-0.9v-3.3l-2.5,0.9V179.1z"/>
</g>
<rect x="263.4" y="180.2" width="0.5" height="20.2"/>
<g>
	<path d="M263.5,180.3c0-1.8,2.5-3.5,4.5-3.5c1.3,0,2.3,0.7,2.3,1.7c0,1.7-2.5,3.5-4.6,3.5C264.4,182,263.5,181.4,263.5,180.3z"/>
</g>
<g>
	<path d="M261,172.6v2.8l1-0.3v1.8l-1,0.3v3.4l1-0.3v1.8l-1,0.3v3.1h-0.5v-3l-1.9,0.6v3h-0.5v-2.8l-1,0.3V182l1-0.3v-3.4l-1,0.3
		v-1.8l1-0.3v-3.1h0.5v3l1.9-0.6v-3H261z M260.5,177.4l-1.9,0.6v3.4l1.9-0.6V177.4z"/>
</g>
<rect x="282.1" y="180.2" width="0.5" height="20.9"/>
<g>
	<path d="M282.2,180.3c0-1.8,2.5-3.5,4.5-3.5c1.3,0,2.3,0.7,2.3,1.7c0,1.7-2.5,3.5-4.6,3.5C283.2,182,282.2,181.4,282.2,180.3z"/>
</g>
<g>
	<path d="M280.3,186.2v-4l-3,1.1v-10.7h0.5v4l3-1.1v10.7H280.3z M277.7,181.6l2.5-0.9v-3.3l-2.5,0.9V181.6z"/>
</g>
<rect x="300.7" y="182.7" width="0.5" height="19.2"/>
<g>
	<path d="M300.8,182.8c0-1.8,2.5-3.5,4.5-3.5c1.3,0,2.3,0.7,2.3,1.7c0,1.7-2.5,3.5-4.6,3.5C301.8,184.5,300.8,183.9,300.8,182.8z"/>
</g>
<rect x="319.5" y="185.2" width="0.5" height="17.7"/>
<g>
	<path d="M319.6,185.3c0-1.8,2.5-3.5,4.5-3.5c1.3,0,2.3,0.7,2.3,1.7c0,1.7-2.5,3.5-4.6,3.5C320.5,187,319.6,186.4,319.6,185.3z"/>
</g>
<g>
	<path d="M317.1,177.6v2.8l1-0.3v1.8l-1,0.3v3.4l1-0.3v1.8l-1,0.3v3.1h-0.5v-3l-1.9,0.6v3h-0.5v-2.8l-1,0.3v-1.8l1-0.3v-3.4l-1,0.3
		v-1.8l1-0.3v-3.1h0.5v3l1.9-0.6v-3H317.1z M316.6,182.4l-1.9,0.6v3.4l1.9-0.6V182.4z"/>
</g>
<rect x="344.8" y="166" width="0.5" height="17.7"/>
<g>
	<path d="M338.3,185.3c0-1.8,2.5-3.5,4.5-3.5c1.3,0,2.3,0.7,2.3,1.7c0,1.7-2.5,3.5-4.6,3.5C339.3,187,338.3,186.4,338.3,185.3z"/>
</g>
<g>
	<path d="M336.4,191.2v-4l-3,1.1v-10.7h0.5v4l3-1.1v10.7H336.4z M333.9,186.5l2.5-0.9v-3.3l-2.5,0.9V186.5z"/>
</g>
<rect x="363.5" y="166.7" width="0.5" height="19.4"/>
<g>
	<path d="M357.1,187.7c0-1.8,2.5-3.5,4.5-3.5c1.3,0,2.3,0.7,2.3,1.7c0,1.7-2.5,3.5-4.6,3.5C358.1,189.5,357.1,188.8,357.1,187.7z"/>
</g>
<g>
	<path d="M354.7,180.1v2.8l1-0.3v1.8l-1,0.3v3.4l1-0.3v1.8l-1,0.3v3.1h-0.5v-3l-1.9,0.6v3h-0.5v-2.8l-1,0.3v-1.8l1-0.3v-3.4l-1,0.3
		v-1.8l1-0.3v-3.1h0.5v3l1.9-0.6v-3H354.7z M354.2,184.8l-1.9,0.6v3.4l1.9-0.6V184.8z"/>
</g>
<rect x="382.1" y="167.5" width="0.5" height="18.6"/>
<g>
	<path d="M375.7,187.7c0-1.8,2.5-3.5,4.5-3.5c1.3,0,2.3,0.7,2.3,1.7c0,1.7-2.5,3.5-4.6,3.5C376.7,189.5,375.7,188.8,375.7,187.7z"/>
</g>
<g>
	<path d="M373.8,193.7v-4l-3,1.1v-10.7h0.5v4l3-1.1v10.7H373.8z M371.2,189l2.5-0.9v-3.3l-2.5,0.9V189z"/>
</g>
<rect x="400.9" y="168.4" width="0.5" height="20.2"/>
<g>
	<path d="M394.4,190.2c0-1.8,2.5-3.5,4.5-3.5c1.3,0,2.3,0.7,2.3,1.7c0,1.7-2.5,3.5-4.6,3.5C395.4,192,394.4,191.3,394.4,190.2z"/>
</g>
<rect x="419.6" y="173.4" width="0.5" height="17.7"/>
<g>
	<path d="M413.2,192.7c0-1.8,2.5-3.5,4.5-3.5c1.3,0,2.3,0.7,2.3,1.7c0,1.7-2.5,3.5-4.6,3.5C414.2,194.4,413.2,193.8,413.2,192.7z"/>
</g>
<g>
	<path d="M410.8,185v2.8l1-0.3v1.8l-1,0.3v3.4l1-0.3v1.8l-1,0.3v3.1h-0.5v-3l-1.9,0.6v3h-0.5v-2.8l-1,0.3v-1.8l1-0.3v-3.4l-1,0.3
		v-1.8l1-0.3v-3.1h0.5v3l1.9-0.6v-3H410.8z M410.3,189.8l-1.9,0.6v3.4l1.9-0.6V189.8z"/>
</g>
<rect x="438.4" y="173.7" width="0.5" height="17.4"/>
<g>
	<path d="M432,192.7c0-1.8,2.5-3.5,4.5-3.5c1.3,0,2.3,0.7,2.3,1.7c0,1.7-2.5,3.5-4.6,3.5C432.9,194.4,432,193.8,432,192.7z"/>
</g>
<g>
	<path d="M430,198.6v-4l-3,1.1V185h0.5v4l3-1.1v10.7H430z M427.5,194l2.5-0.9v-3.3l-2.5,0.9V194z"/>
</g>
<rect x="457" y="174.2" width="0.5" height="19.4"/>
<g>
	<path d="M450.6,195.2c0-1.8,2.5-3.5,4.5-3.5c1.3,0,2.3,0.7,2.3,1.7c0,1.7-2.5,3.5-4.6,3.5C451.5,196.9,450.6,196.3,450.6,195.2z"/>
</g>
<g>
	<path d="M448.1,187.5v2.8l1-0.3v1.8l-1,0.3v3.4l1-0.3v1.8l-1,0.3v3.1h-0.5v-3l-1.9,0.6v3h-0.5v-2.8l-1,0.3v-1.8l1-0.3v-3.4l-1,0.3
		v-1.8l1-0.3v-3.1h0.5v3l1.9-0.6v-3H448.1z M447.6,192.3l-1.9,0.6v3.4l1.9-0.6V192.3z"/>
</g>
<rect x="475.8" y="174.6" width="0.5" height="18.9"/>
<g>
	<path d="M469.3,195.2c0-1.8,2.5-3.5,4.5-3.5c1.3,0,2.3,0.7,2.3,1.7c0,1.7-2.5,3.5-4.6,3.5C470.3,196.9,469.3,196.3,469.3,195.2z"/>
</g>
<g>
	<path d="M467.4,201.1v-4l-3,1.1v-10.7h0.5v4l3-1.1v10.7H467.4z M464.9,196.4l2.5-0.9v-3.3l-2.5,0.9V196.4z"/>
</g>
<rect x="494.7" y="179.5" width="0.5" height="16.6"/>
<g>
	<path d="M492.3,194.1c1.6,0,2.7,0.7,2.7,2c0,1.9-2.3,3.4-4.5,3.4c-1.3,0-2.4-0.7-2.4-1.8C488.1,195.9,490.3,194.1,492.3,194.1z
		 M488.5,198c0,0.6,0.4,0.9,1.1,0.9c1.4,0,4.9-2.1,4.9-3.3c0-0.6-0.4-0.9-1.1-0.9C492.2,194.7,488.5,196.7,488.5,198z"/>
</g>
<g>
	<path d="M485.6,190v2.8l1-0.3v1.8l-1,0.3v3.4l1-0.3v1.8l-1,0.3v3.1h-0.5v-3l-1.9,0.6v3h-0.5v-2.8l-1,0.3v-1.8l1-0.3v-3.4l-1,0.3
		v-1.8l1-0.3v-3.1h0.5v3l1.9-0.6v-3H485.6z M485.2,194.8l-1.9,0.6v3.4l1.9-0.6V194.8z"/>
</g>
</svg>
