<?xml version="1.0" encoding="utf-8"?>

<!--
	ScaleBook
	Copyright (c) Leland Jansen 2015. All rights reserved.
-->

<!DOCTYPE svg PUBLIC "-//W3C//DTD SVG 1.1//EN" "http://www.w3.org/Graphics/SVG/1.1/DTD/svg11.dtd">
<svg version="1.1" id="Layer_1" xmlns="http://www.w3.org/2000/svg" xmlns:xlink="http://www.w3.org/1999/xlink" x="0px" y="0px"
	 viewBox="0 0 553.1 205.1" enable-background="new 0 0 553.1 205.1" xml:space="preserve">
<rect x="8.5" y="9.7" width="0.8" height="67"/>
<g>
	<path d="M7.6,10.4c-1.9,1.1-3.6,5.8-3.6,9.4c0,2.3,1.4,9.9,1.4,12.3c0,5-1.5,8.6-4.6,11.1c3,2.4,4.6,6.1,4.6,11.1
		c0,2.3-1.4,9.9-1.4,12.3c0,3.8,1.7,8.4,3.6,9.5v0.7c-3.5-2.3-5.8-8.2-5.8-13.1c0-2.1,1.7-9.4,1.7-11.5c0-3.8-1-6.6-2.9-8.2
		c-0.3-0.3-0.5-0.5-0.5-0.7c0-0.2,0.1-0.4,0.5-0.7c1.9-1.7,2.9-4.2,2.9-7.6c0-2.1-1.7-10-1.7-12.2c0-5.2,2.1-10.4,5.8-13.1V10.4z"/>
</g>
<rect x="8.5" y="122.6" width="0.8" height="75.8"/>
<g>
	<path d="M7.6,123.3c-2,1.2-3.7,6.5-3.7,10.7c0,2.6,1.4,11.2,1.4,13.9c0,5.6-1.6,9.8-4.7,12.6c3.1,2.7,4.7,6.9,4.7,12.5
		c0,2.6-1.4,11.2-1.4,13.9c0,4.3,1.8,9.6,3.7,10.8v0.8c-3.6-2.6-5.9-9.3-5.9-14.8c0-2.4,1.8-10.6,1.8-13c0-4.3-1-7.4-3-9.3
		c-0.3-0.3-0.5-0.5-0.5-0.8s0.1-0.5,0.5-0.8c2-1.9,3-4.8,3-8.6c0-2.4-1.8-11.4-1.8-13.8c0-5.8,2.1-11.8,5.9-14.8V123.3z"/>
</g>
<rect x="552.3" y="9.7" width="0.8" height="67"/>
<rect x="548" y="122.6" width="0.8" height="75.8"/>
<rect x="550.5" y="122.6" width="2.5" height="75.8"/>
<rect x="8.6" y="29.3" width="544.4" height="0.5"/>
<rect x="8.6" y="24.4" width="544.4" height="0.5"/>
<rect x="8.6" y="19.4" width="544.4" height="0.5"/>
<rect x="8.6" y="14.4" width="544.4" height="0.5"/>
<rect x="8.6" y="9.5" width="544.4" height="0.5"/>
<g>
	<path d="M20.4,29.4c-4.2,0-8.1-3.1-8.1-6.9c0-3.2,2.3-6.7,6.8-10.5c-0.3-1.2-0.4-2.4-0.4-3.6c0-3.5,1.2-6.8,3.2-8.5
		c1.8,2.5,2.7,4.9,2.7,7.1c0,2.9-1.3,5.6-4.3,8.1l0.9,4.2c0.5,0,0.8-0.1,0.8-0.1c2.6,0,4.8,2,4.8,4.7c0,1.9-1.4,3.7-3.6,4.8
		c0-0.1,0.9,3.8,0.9,4.3c0,2.5-2.3,4.2-4.9,4.2c-2,0-3.6-1.3-3.6-3.4c0-1.4,1-2.6,2.4-2.6c1.3,0,2.3,1.3,2.3,2.5
		c0,1.4-1.2,2.3-2.7,2.5c0.6,0.3,1.2,0.5,1.9,0.5c2.1,0,4.1-1.6,4.1-3.6c0-0.2,0-0.4-0.1-0.6l-0.8-3.7
		C22.1,29.3,21.4,29.4,20.4,29.4z M18.2,24.2c0,1,0.5,1.9,1.6,2.5c-1.8-0.3-3-1.4-3-3.1c0-2,1.7-3.7,3.8-4.1l-0.8-4
		c-3.7,2.8-5.7,5.5-5.7,8.1c0,2.9,2.8,5.3,6,5.3c0.9,0,1.7-0.2,2.4-0.5l-1.4-6.8C19.5,21.8,18.2,22.8,18.2,24.2z M22.3,2.8
		c-1.6,0-2.9,3.7-2.9,7c0,0.7,0,1.3,0.2,1.9c2.7-2.4,4-4.5,4-6.5c0-0.9-0.3-1.7-1-2.4C22.5,2.9,22.4,2.8,22.3,2.8z M25,24.7
		c0-1.6-1.2-3.3-2.9-3.3c-0.1,0-0.2,0-0.5,0l1.4,6.6C24.4,27.2,25,26,25,24.7z"/>
</g>
<polygon fill-rule="evenodd" clip-rule="evenodd" points="45,25.8 109.4,24.6 109.4,22.1 45,23.4 "/>
<polygon fill-rule="evenodd" clip-rule="evenodd" points="45,22.1 109.4,20.9 109.4,18.4 45,19.6 "/>
<polygon fill-rule="evenodd" clip-rule="evenodd" points="130.8,25.8 195.1,20.9 195.1,18.4 130.8,23.4 "/>
<polygon fill-rule="evenodd" clip-rule="evenodd" points="130.8,22.1 195.1,17.2 195.1,14.7 130.8,19.6 "/>
<polygon fill-rule="evenodd" clip-rule="evenodd" points="216.6,20.9 281,15.9 281,13.4 216.6,18.4 "/>
<polygon fill-rule="evenodd" clip-rule="evenodd" points="216.6,17.2 281,12.2 281,9.7 216.6,14.7 "/>
<polygon fill-rule="evenodd" clip-rule="evenodd" points="302.4,11 366.7,9.7 366.7,7.2 302.4,8.5 "/>
<polygon fill-rule="evenodd" clip-rule="evenodd" points="302.4,7.2 366.7,6 366.7,3.5 302.4,4.8 "/>
<rect x="381.6" y="29.6" fill-rule="evenodd" clip-rule="evenodd" width="64.3" height="2.5"/>
<rect x="381.6" y="33.3" fill-rule="evenodd" clip-rule="evenodd" width="64.3" height="2.5"/>
<polygon fill-rule="evenodd" clip-rule="evenodd" points="467.5,26.1 531.8,25.5 531.8,23 467.5,23.7 "/>
<polygon fill-rule="evenodd" clip-rule="evenodd" points="467.5,29.9 531.8,29.2 531.8,26.8 467.5,27.4 "/>
<rect x="8.6" y="76.4" width="544.4" height="0.5"/>
<rect x="8.6" y="71.5" width="544.4" height="0.5"/>
<rect x="8.6" y="66.5" width="544.4" height="0.5"/>
<rect x="8.6" y="61.6" width="544.4" height="0.5"/>
<rect x="8.6" y="56.6" width="544.4" height="0.5"/>
<g>
	<path d="M15.9,71c2.9-2.6,4.7-6.1,4.7-9.2c0-2.5-1.4-4.4-3.7-4.4c-1.6,0-3.4,1.3-3.4,2.7c0,0.2,0,0.3,0.1,0.3
		c-0.1,0,0.6-0.6,1.4-0.6c0.9,0,1.5,0.8,1.5,1.7c0,1.2-0.9,2.2-2.1,2.2c-1.2,0-2.1-1.3-2.1-2.8c0-2.3,2.3-4.1,4.8-4.1
		c4.7,0,5.9,3.2,5.9,5.8c0,1.6-0.4,2.9-2,5.3c-1.9,3.1-6.4,5.3-8.1,5.3c-0.4,0-0.6-0.2-0.6-0.5C14,72.3,15.1,71.7,15.9,71z
		 M25.8,58.3c0.6,0,1,0.4,1,1c0,0.6-0.4,1-1,1s-1-0.4-1-1C24.8,58.8,25.3,58.3,25.8,58.3z M25.8,63.3c0.6,0,1,0.4,1,1
		c0,0.6-0.4,1-1,1s-1-0.4-1-1C24.8,63.7,25.3,63.3,25.8,63.3z"/>
</g>
<polygon fill-rule="evenodd" clip-rule="evenodd" points="45,63 109.4,61.8 109.4,59.3 45,60.6 "/>
<polygon fill-rule="evenodd" clip-rule="evenodd" points="45,59.3 109.4,58.1 109.4,55.6 45,56.8 "/>
<polygon fill-rule="evenodd" clip-rule="evenodd" points="130.8,56.8 195.1,54.4 195.1,51.9 130.8,54.4 "/>
<polygon fill-rule="evenodd" clip-rule="evenodd" points="130.8,53.1 195.1,50.6 195.1,48.2 130.8,50.6 "/>
<polygon fill-rule="evenodd" clip-rule="evenodd" points="210.1,81.6 274.5,79.2 274.5,76.7 210.1,79.2 "/>
<polygon fill-rule="evenodd" clip-rule="evenodd" points="210.1,85.4 274.5,82.9 274.5,80.4 210.1,82.9 "/>
<polygon fill-rule="evenodd" clip-rule="evenodd" points="295.9,74.2 360.2,73 360.2,70.5 295.9,71.7 "/>
<polygon fill-rule="evenodd" clip-rule="evenodd" points="295.9,77.9 360.2,76.7 360.2,74.2 295.9,75.4 "/>
<rect x="381.6" y="65.5" fill-rule="evenodd" clip-rule="evenodd" width="64.3" height="2.5"/>
<rect x="381.6" y="69.2" fill-rule="evenodd" clip-rule="evenodd" width="64.3" height="2.5"/>
<polygon fill-rule="evenodd" clip-rule="evenodd" points="467.5,64.3 531.8,63 531.8,60.6 467.5,61.8 "/>
<polygon fill-rule="evenodd" clip-rule="evenodd" points="467.5,68 531.8,66.8 531.8,64.3 467.5,65.5 "/>
<rect x="8.6" y="142.2" width="544.4" height="0.5"/>
<rect x="8.6" y="137.2" width="544.4" height="0.5"/>
<rect x="8.6" y="132.3" width="544.4" height="0.5"/>
<rect x="8.6" y="127.3" width="544.4" height="0.5"/>
<rect x="8.6" y="122.3" width="544.4" height="0.5"/>
<g>
	<path d="M20.4,142.2c-4.2,0-8.1-3.1-8.1-6.9c0-3.2,2.3-6.7,6.8-10.5c-0.3-1.2-0.4-2.4-0.4-3.6c0-3.5,1.2-6.8,3.2-8.5
		c1.8,2.5,2.7,4.9,2.7,7.1c0,2.9-1.3,5.6-4.3,8.1l0.9,4.2c0.5,0,0.8-0.1,0.8-0.1c2.6,0,4.8,2,4.8,4.7c0,1.9-1.4,3.7-3.6,4.8
		c0-0.1,0.9,3.8,0.9,4.3c0,2.5-2.3,4.2-4.9,4.2c-2,0-3.6-1.3-3.6-3.4c0-1.4,1-2.6,2.4-2.6c1.3,0,2.3,1.3,2.3,2.5
		c0,1.4-1.2,2.3-2.7,2.5c0.6,0.3,1.2,0.5,1.9,0.5c2.1,0,4.1-1.6,4.1-3.6c0-0.2,0-0.4-0.1-0.6l-0.8-3.7
		C22.1,142.1,21.4,142.2,20.4,142.2z M18.2,137c0,1,0.5,1.9,1.6,2.5c-1.8-0.3-3-1.4-3-3.1c0-2,1.7-3.7,3.8-4.1l-0.8-4
		c-3.7,2.8-5.7,5.5-5.7,8.1c0,2.9,2.8,5.3,6,5.3c0.9,0,1.7-0.2,2.4-0.5l-1.4-6.8C19.5,134.6,18.2,135.7,18.2,137z M22.3,115.7
		c-1.6,0-2.9,3.7-2.9,7c0,0.7,0,1.3,0.2,1.9c2.7-2.4,4-4.5,4-6.5c0-0.9-0.3-1.7-1-2.4C22.5,115.7,22.4,115.7,22.3,115.7z M25,137.6
		c0-1.6-1.2-3.3-2.9-3.3c-0.1,0-0.2,0-0.5,0l1.4,6.6C24.4,140,25,138.9,25,137.6z"/>
</g>
<rect x="38.5" y="136.2" fill-rule="evenodd" clip-rule="evenodd" width="56.3" height="2.5"/>
<rect x="38.5" y="139.9" fill-rule="evenodd" clip-rule="evenodd" width="56.3" height="2.5"/>
<polygon fill-rule="evenodd" clip-rule="evenodd" points="113.4,144.9 169.7,147.4 169.7,144.9 113.4,142.4 "/>
<polygon fill-rule="evenodd" clip-rule="evenodd" points="113.4,148.6 169.7,151.1 169.7,148.6 113.4,146.1 "/>
<polygon fill-rule="evenodd" clip-rule="evenodd" points="194.9,120.1 251.1,122.6 251.1,120.1 194.9,117.6 "/>
<polygon fill-rule="evenodd" clip-rule="evenodd" points="194.9,116.4 251.1,118.8 251.1,116.4 194.9,113.9 "/>
<polygon fill-rule="evenodd" clip-rule="evenodd" points="269.8,128.5 326.1,129.1 326.1,126.6 269.8,126 "/>
<polygon fill-rule="evenodd" clip-rule="evenodd" points="269.8,124.7 326.1,125.4 326.1,122.9 269.8,122.3 "/>
<rect x="344.8" y="131.2" fill-rule="evenodd" clip-rule="evenodd" width="56.1" height="2.5"/>
<rect x="344.8" y="127.5" fill-rule="evenodd" clip-rule="evenodd" width="56.1" height="2.5"/>
<polygon fill-rule="evenodd" clip-rule="evenodd" points="419.7,137.4 476,138.7 476,136.2 419.7,135 "/>
<polygon fill-rule="evenodd" clip-rule="evenodd" points="419.7,133.7 476,135 476,132.5 419.7,131.2 "/>
<rect x="8.6" y="198.1" width="544.4" height="0.5"/>
<rect x="8.6" y="193.2" width="544.4" height="0.5"/>
<rect x="8.6" y="188.2" width="544.4" height="0.5"/>
<rect x="8.6" y="183.2" width="544.4" height="0.5"/>
<rect x="8.6" y="178.3" width="544.4" height="0.5"/>
<g>
	<path d="M15.9,192.7c2.9-2.6,4.7-6.1,4.7-9.2c0-2.5-1.4-4.4-3.7-4.4c-1.6,0-3.4,1.3-3.4,2.7c0,0.2,0,0.3,0.1,0.3
		c-0.1,0,0.6-0.6,1.4-0.6c0.9,0,1.5,0.8,1.5,1.7c0,1.2-0.9,2.2-2.1,2.2c-1.2,0-2.1-1.3-2.1-2.8c0-2.3,2.3-4.1,4.8-4.1
		c4.7,0,5.9,3.2,5.9,5.8c0,1.6-0.4,2.9-2,5.3c-1.9,3.1-6.4,5.3-8.1,5.3c-0.4,0-0.6-0.2-0.6-0.5C14,194,15.1,193.4,15.9,192.7z
		 M25.8,180c0.6,0,1,0.4,1,1c0,0.6-0.4,1-1,1s-1-0.4-1-1C24.8,180.4,25.3,180,25.8,180z M25.8,184.9c0.6,0,1,0.4,1,1
		c0,0.6-0.4,1-1,1s-1-0.4-1-1C24.8,185.4,25.3,184.9,25.8,184.9z"/>
</g>
<rect x="38.5" y="182.2" fill-rule="evenodd" clip-rule="evenodd" width="56.3" height="2.5"/>
<rect x="38.5" y="186" fill-rule="evenodd" clip-rule="evenodd" width="56.3" height="2.5"/>
<polygon fill-rule="evenodd" clip-rule="evenodd" points="113.4,184.7 169.7,189.7 169.7,187.2 113.4,182.2 "/>
<polygon fill-rule="evenodd" clip-rule="evenodd" points="113.4,188.4 169.7,193.4 169.7,190.9 113.4,186 "/>
<polygon fill-rule="evenodd" clip-rule="evenodd" points="188.4,189.7 244.5,194.6 244.5,192.2 188.4,187.2 "/>
<polygon fill-rule="evenodd" clip-rule="evenodd" points="188.4,193.4 244.5,198.4 244.5,195.9 188.4,190.9 "/>
<rect x="263.3" y="197.1" fill-rule="evenodd" clip-rule="evenodd" width="56.3" height="2.5"/>
<rect x="263.3" y="200.8" fill-rule="evenodd" clip-rule="evenodd" width="56.3" height="2.5"/>
<rect x="344.8" y="176" fill-rule="evenodd" clip-rule="evenodd" width="56.1" height="2.5"/>
<rect x="344.8" y="172.3" fill-rule="evenodd" clip-rule="evenodd" width="56.1" height="2.5"/>
<polygon fill-rule="evenodd" clip-rule="evenodd" points="419.7,184.4 476,185 476,182.6 419.7,181.9 "/>
<polygon fill-rule="evenodd" clip-rule="evenodd" points="419.7,180.7 476,181.3 476,178.8 419.7,178.2 "/>
<rect x="36.5" y="34.1" width="10.5" height="0.8"/>
<rect x="36.5" y="39.1" width="10.5" height="0.8"/>
<rect x="44.8" y="19.8" width="0.5" height="21.4"/>
<g>
	<path d="M38.4,42.8c0-1.8,2.5-3.5,4.5-3.5c1.3,0,2.3,0.7,2.3,1.7c0,1.7-2.5,3.5-4.6,3.5C39.3,44.5,38.4,43.9,38.4,42.8z"/>
</g>
<g>
	<path d="M31.2,33.6h0.6l-0.1,6.2c0.4-0.7,1-1,1.8-1c1.2,0,2.2,0.8,2.2,1.9c0,0.8-0.5,1.8-1.7,2.7l-2.8,2.1V33.6z M31.8,40.5
		c-0.1,0.8-0.1,1.4-0.1,1.9c0,1,0,1.6,0.1,2c1-0.7,2.4-2.6,2.4-3.7c0-0.6-0.5-1.1-1.1-1.1C32.5,39.7,32.1,40,31.8,40.5z"/>
</g>
<rect x="57.9" y="34.1" width="10.5" height="0.8"/>
<rect x="57.9" y="39.1" width="10.5" height="0.8"/>
<rect x="66.2" y="19.5" width="0.5" height="21.7"/>
<g>
	<path d="M59.8,42.8c0-1.8,2.5-3.5,4.5-3.5c1.3,0,2.3,0.7,2.3,1.7c0,1.7-2.5,3.5-4.6,3.5C60.7,44.5,59.8,43.9,59.8,42.8z"/>
</g>
<g>
	<path d="M56.6,48.7v-4l-3,1.1V35.2h0.5v4l3-1.1v10.7H56.6z M54.1,44.1l2.5-0.9v-3.3l-2.5,0.9V44.1z"/>
</g>
<rect x="79.5" y="34.1" width="10.5" height="0.8"/>
<rect x="79.5" y="39.1" width="10.5" height="0.8"/>
<rect x="87.7" y="19" width="0.5" height="19.7"/>
<g>
	<path d="M81.3,40.3c0-1.8,2.5-3.5,4.5-3.5c1.3,0,2.3,0.7,2.3,1.7c0,1.7-2.5,3.5-4.6,3.5C82.3,42.1,81.3,41.4,81.3,40.3z"/>
</g>
<g>
	<path d="M74.2,31.2h0.6l-0.1,6.2c0.4-0.7,1-1,1.8-1c1.2,0,2.2,0.8,2.2,1.9c0,0.8-0.5,1.8-1.7,2.7l-2.8,2.1V31.2z M74.8,38.1
		c-0.1,0.8-0.1,1.4-0.1,1.9c0,1,0,1.6,0.1,2c1-0.7,2.4-2.6,2.4-3.7c0-0.6-0.5-1.1-1.1-1.1C75.5,37.2,75.1,37.5,74.8,38.1z"/>
</g>
<rect x="100.8" y="34.1" width="10.5" height="0.8"/>
<rect x="100.8" y="39.1" width="10.5" height="0.8"/>
<rect x="109.1" y="18.6" width="0.5" height="20.2"/>
<g>
	<path d="M102.7,40.3c0-1.8,2.5-3.5,4.5-3.5c1.3,0,2.3,0.7,2.3,1.7c0,1.7-2.5,3.5-4.6,3.5C103.7,42.1,102.7,41.4,102.7,40.3z"/>
</g>
<g>
	<path d="M99.5,46.2v-4l-3,1.1V32.7H97v4l3-1.1v10.7H99.5z M97,41.6l2.5-0.9v-3.3L97,38.3V41.6z"/>
</g>
<rect x="122.2" y="34.1" width="10.5" height="0.8"/>
<rect x="130.5" y="19.8" width="0.5" height="16.4"/>
<g>
	<path d="M124.1,37.9c0-1.8,2.5-3.5,4.5-3.5c1.3,0,2.3,0.7,2.3,1.7c0,1.7-2.5,3.5-4.6,3.5C125.1,39.6,124.1,38.9,124.1,37.9z"/>
</g>
<g>
	<path d="M117,28.7h0.6l-0.1,6.2c0.4-0.7,1-1,1.8-1c1.2,0,2.2,0.8,2.2,1.9c0,0.8-0.5,1.8-1.7,2.7l-2.8,2.1V28.7z M117.5,35.6
		c-0.1,0.8-0.1,1.4-0.1,1.9c0,1,0,1.6,0.1,2c1-0.7,2.4-2.6,2.4-3.7c0-0.6-0.5-1.1-1.1-1.1C118.3,34.8,117.8,35,117.5,35.6z"/>
</g>
<rect x="143.8" y="34.1" width="10.5" height="0.8"/>
<rect x="152.1" y="18.2" width="0.5" height="18"/>
<g>
	<path d="M145.6,37.9c0-1.8,2.5-3.5,4.5-3.5c1.3,0,2.3,0.7,2.3,1.7c0,1.7-2.5,3.5-4.6,3.5C146.6,39.6,145.6,38.9,145.6,37.9z"/>
</g>
<g>
	<path d="M142.5,43.8v-4l-3,1.1V30.2h0.5v4l3-1.1v10.7H142.5z M139.9,39.1l2.5-0.9v-3.3l-2.5,0.9V39.1z"/>
</g>
<rect x="165.2" y="34.1" width="10.5" height="0.8"/>
<rect x="173.5" y="16.5" width="0.5" height="17.2"/>
<g>
	<path d="M167,35.4c0-1.8,2.5-3.5,4.5-3.5c1.3,0,2.3,0.7,2.3,1.7c0,1.7-2.5,3.5-4.6,3.5C168,37.1,167,36.5,167,35.4z"/>
</g>
<rect x="194.9" y="14.8" width="0.5" height="16.4"/>
<g>
	<path d="M188.4,32.9c0-1.8,2.5-3.5,4.5-3.5c1.3,0,2.3,0.7,2.3,1.7c0,1.7-2.5,3.5-4.6,3.5C189.4,34.6,188.4,34,188.4,32.9z"/>
</g>
<g>
	<path d="M182.5,23.7h0.6L183,30c0.4-0.7,1-1,1.8-1c1.2,0,2.2,0.8,2.2,1.9c0,0.8-0.5,1.8-1.7,2.7l-2.8,2.1V23.7z M183.1,30.6
		c-0.1,0.8-0.1,1.4-0.1,1.9c0,1,0,1.6,0.1,2c1-0.7,2.4-2.6,2.4-3.7c0-0.6-0.5-1.1-1.1-1.1C183.8,29.8,183.4,30.1,183.1,30.6z"/>
</g>
<rect x="216.4" y="14.8" width="0.5" height="16.4"/>
<g>
	<path d="M210,32.9c0-1.8,2.5-3.5,4.5-3.5c1.3,0,2.3,0.7,2.3,1.7c0,1.7-2.5,3.5-4.6,3.5C210.9,34.6,210,34,210,32.9z"/>
</g>
<g>
	<path d="M208.1,38.8v-4l-3,1.1V25.2h0.5v4l3-1.1v10.7H208.1z M205.5,34.1l2.5-0.9v-3.3l-2.5,0.9V34.1z"/>
</g>
<rect x="237.8" y="13.3" width="0.5" height="15.5"/>
<g>
	<path d="M231.4,30.4c0-1.8,2.5-3.5,4.5-3.5c1.3,0,2.3,0.7,2.3,1.7c0,1.7-2.5,3.5-4.6,3.5C232.3,32.1,231.4,31.5,231.4,30.4z"/>
</g>
<g>
	<path d="M225.5,21.2h0.6l-0.1,6.2c0.4-0.7,1-1,1.8-1c1.2,0,2.2,0.8,2.2,1.9c0,0.8-0.5,1.8-1.7,2.7l-2.8,2.1V21.2z M226.1,28.1
		c-0.1,0.8-0.1,1.4-0.1,1.9c0,1,0,1.6,0.1,2c1-0.7,2.4-2.6,2.4-3.7c0-0.6-0.5-1.1-1.1-1.1C226.8,27.3,226.4,27.6,226.1,28.1z"/>
</g>
<rect x="259.2" y="11.6" width="0.5" height="17.2"/>
<g>
	<path d="M252.8,30.4c0-1.8,2.5-3.5,4.5-3.5c1.3,0,2.3,0.7,2.3,1.7c0,1.7-2.5,3.5-4.6,3.5C253.7,32.1,252.8,31.5,252.8,30.4z"/>
</g>
<g>
	<path d="M250.8,36.3v-4l-3,1.1V22.8h0.5v4l3-1.1v10.7H250.8z M248.3,31.7l2.5-0.9v-3.3l-2.5,0.9V31.7z"/>
</g>
<rect x="280.7" y="9.9" width="0.5" height="16.4"/>
<g>
	<path d="M274.3,27.9c0-1.8,2.5-3.5,4.5-3.5c1.3,0,2.3,0.7,2.3,1.7c0,1.7-2.5,3.5-4.6,3.5C275.3,29.7,274.3,29,274.3,27.9z"/>
</g>
<rect x="302.1" y="4.9" width="0.5" height="18.9"/>
<g>
	<path d="M295.7,25.5c0-1.8,2.5-3.5,4.5-3.5c1.3,0,2.3,0.7,2.3,1.7c0,1.7-2.5,3.5-4.6,3.5C296.7,27.2,295.7,26.5,295.7,25.5z"/>
</g>
<g>
	<path d="M289.8,16.3h0.6l-0.1,6.2c0.4-0.7,1-1,1.8-1c1.2,0,2.2,0.8,2.2,1.9c0,0.8-0.5,1.8-1.7,2.7l-2.8,2.1V16.3z M290.4,23.2
		c-0.1,0.8-0.1,1.4-0.1,1.9c0,1,0,1.6,0.1,2c1-0.7,2.4-2.6,2.4-3.7c0-0.6-0.5-1.1-1.1-1.1C291.1,22.4,290.7,22.6,290.4,23.2z"/>
</g>
<rect x="323.5" y="4.6" width="0.5" height="19.2"/>
<g>
	<path d="M317.1,25.5c0-1.8,2.5-3.5,4.5-3.5c1.3,0,2.3,0.7,2.3,1.7c0,1.7-2.5,3.5-4.6,3.5C318.1,27.2,317.1,26.5,317.1,25.5z"/>
</g>
<g>
	<path d="M315.2,31.4v-4l-3,1.1V17.8h0.5v4l3-1.1v10.7H315.2z M312.6,26.7l2.5-0.9v-3.3l-2.5,0.9V26.7z"/>
</g>
<rect x="345.1" y="4.1" width="0.5" height="17.2"/>
<g>
	<path d="M338.6,23c0-1.8,2.5-3.5,4.5-3.5c1.3,0,2.3,0.7,2.3,1.7c0,1.7-2.5,3.5-4.6,3.5C339.6,24.7,338.6,24.1,338.6,23z"/>
</g>
<g>
	<path d="M332.7,13.8h0.6l-0.1,6.2c0.4-0.7,1-1,1.8-1c1.2,0,2.2,0.8,2.2,1.9c0,0.8-0.5,1.8-1.7,2.7l-2.8,2.1V13.8z M333.3,20.7
		c-0.1,0.8-0.1,1.4-0.1,1.9c0,1,0,1.6,0.1,2c1-0.7,2.4-2.6,2.4-3.7c0-0.6-0.5-1.1-1.1-1.1C334,19.9,333.6,20.2,333.3,20.7z"/>
</g>
<rect x="366.5" y="3.7" width="0.5" height="17.7"/>
<g>
	<path d="M360,23c0-1.8,2.5-3.5,4.5-3.5c1.3,0,2.3,0.7,2.3,1.7c0,1.7-2.5,3.5-4.6,3.5C361,24.7,360,24.1,360,23z"/>
</g>
<g>
	<path d="M358.1,28.9v-4l-3,1.1V15.3h0.5v4l3-1.1v10.7H358.1z M355.6,24.2l2.5-0.9V20l-2.5,0.9V24.2z"/>
</g>
<rect x="381.3" y="20.4" width="0.5" height="15.2"/>
<g>
	<path d="M381.4,20.5c0-1.8,2.5-3.5,4.5-3.5c1.3,0,2.3,0.7,2.3,1.7c0,1.7-2.5,3.5-4.6,3.5C382.4,22.2,381.4,21.6,381.4,20.5z"/>
</g>
<g>
	<path d="M375.5,11.3h0.6l-0.1,6.2c0.4-0.7,1-1,1.8-1c1.2,0,2.2,0.8,2.2,1.9c0,0.8-0.5,1.8-1.7,2.7l-2.8,2.1V11.3z M376.1,18.2
		c-0.1,0.8-0.1,1.4-0.1,1.9c0,1,0,1.6,0.1,2c1-0.7,2.4-2.6,2.4-3.7c0-0.6-0.5-1.1-1.1-1.1C376.8,17.4,376.4,17.7,376.1,18.2z"/>
</g>
<rect x="402.9" y="20.4" width="0.5" height="15.2"/>
<g>
	<path d="M403,20.5c0-1.8,2.5-3.5,4.5-3.5c1.3,0,2.3,0.7,2.3,1.7c0,1.7-2.5,3.5-4.6,3.5C403.9,22.2,403,21.6,403,20.5z"/>
</g>
<g>
	<path d="M401,26.4v-4l-3,1.1V12.8h0.5v4l3-1.1v10.7H401z M398.5,21.7l2.5-0.9v-3.3l-2.5,0.9V21.7z"/>
</g>
<rect x="424.3" y="17.9" width="0.5" height="17.7"/>
<g>
	<path d="M424.4,18c0-1.8,2.5-3.5,4.5-3.5c1.3,0,2.3,0.7,2.3,1.7c0,1.7-2.5,3.5-4.6,3.5C425.3,19.7,424.4,19.1,424.4,18z"/>
</g>
<rect x="445.7" y="15.5" width="0.5" height="20.2"/>
<g>
	<path d="M445.8,15.5c0-1.8,2.5-3.5,4.5-3.5c1.3,0,2.3,0.7,2.3,1.7c0,1.7-2.5,3.5-4.6,3.5C446.7,17.3,445.8,16.6,445.8,15.5z"/>
</g>
<g>
	<path d="M439.9,6.4h0.6l-0.1,6.2c0.4-0.7,1-1,1.8-1c1.2,0,2.2,0.8,2.2,1.9c0,0.8-0.5,1.8-1.7,2.7l-2.8,2.1V6.4z M440.4,13.3
		c-0.1,0.8-0.1,1.4-0.1,1.9c0,1,0,1.6,0.1,2c1-0.7,2.4-2.6,2.4-3.7c0-0.6-0.5-1.1-1.1-1.1C441.2,12.4,440.7,12.7,440.4,13.3z"/>
</g>
<rect x="467.2" y="15.5" width="0.5" height="14.3"/>
<g>
	<path d="M467.3,15.5c0-1.8,2.5-3.5,4.5-3.5c1.3,0,2.3,0.7,2.3,1.7c0,1.7-2.5,3.5-4.6,3.5C468.3,17.3,467.3,16.6,467.3,15.5z"/>
</g>
<g>
	<path d="M465.4,21.4v-4l-3,1.1V7.9h0.5v4l3-1.1v10.7H465.4z M462.8,16.8l2.5-0.9v-3.3l-2.5,0.9V16.8z"/>
</g>
<rect x="488.6" y="13" width="0.5" height="16.6"/>
<g>
	<path d="M488.7,13c0-1.8,2.5-3.5,4.5-3.5c1.3,0,2.3,0.7,2.3,1.7c0,1.7-2.5,3.5-4.6,3.5C489.7,14.8,488.7,14.1,488.7,13z"/>
</g>
<g>
	<path d="M482.8,3.9h0.6l-0.1,6.2c0.4-0.7,1-1,1.8-1c1.2,0,2.2,0.8,2.2,1.9c0,0.8-0.5,1.8-1.7,2.7l-2.8,2.1V3.9z M483.4,10.8
		c-0.1,0.8-0.1,1.4-0.1,1.9c0,1,0,1.6,0.1,2c1-0.7,2.4-2.6,2.4-3.7c0-0.6-0.5-1.1-1.1-1.1C484.1,10,483.7,10.2,483.4,10.8z"/>
</g>
<rect x="510" y="13" width="0.5" height="16.4"/>
<g>
	<path d="M510.1,13c0-1.8,2.5-3.5,4.5-3.5c1.3,0,2.3,0.7,2.3,1.7c0,1.7-2.5,3.5-4.6,3.5C511.1,14.8,510.1,14.1,510.1,13z"/>
</g>
<g>
	<path d="M508.2,19v-4l-3,1.1V5.4h0.5v4l3-1.1V19H508.2z M505.6,14.3l2.5-0.9v-3.3l-2.5,0.9V14.3z"/>
</g>
<rect x="531.6" y="10.5" width="0.5" height="18.6"/>
<g>
	<path d="M531.6,10.6c0-1.8,2.5-3.5,4.5-3.5c1.3,0,2.3,0.7,2.3,1.7c0,1.7-2.5,3.5-4.6,3.5C532.6,12.3,531.6,11.7,531.6,10.6z"/>
</g>
<rect x="44.8" y="57" width="0.5" height="18.9"/>
<g>
	<path d="M38.4,77.5c0-1.8,2.5-3.5,4.5-3.5c1.3,0,2.3,0.7,2.3,1.7c0,1.7-2.5,3.5-4.6,3.5C39.3,79.3,38.4,78.6,38.4,77.5z"/>
</g>
<g>
	<path d="M32.5,68.4h0.6L33,74.6c0.4-0.7,1-1,1.8-1c1.2,0,2.2,0.8,2.2,1.9c0,0.8-0.5,1.8-1.7,2.7l-2.8,2.1V68.4z M33.1,75.3
		c-0.1,0.8-0.1,1.4-0.1,1.9c0,1,0,1.6,0.1,2c1-0.7,2.4-2.6,2.4-3.7c0-0.6-0.5-1.1-1.1-1.1C33.8,74.4,33.4,74.7,33.1,75.3z"/>
</g>
<rect x="66.2" y="56.7" width="0.5" height="19.2"/>
<g>
	<path d="M59.8,77.5c0-1.8,2.5-3.5,4.5-3.5c1.3,0,2.3,0.7,2.3,1.7c0,1.7-2.5,3.5-4.6,3.5C60.7,79.3,59.8,78.6,59.8,77.5z"/>
</g>
<g>
	<path d="M57.8,83.4v-4l-3,1.1V69.9h0.5v4l3-1.1v10.7H57.8z M55.3,78.8l2.5-0.9v-3.3l-2.5,0.9V78.8z"/>
</g>
<rect x="87.7" y="56.2" width="0.5" height="17.2"/>
<g>
	<path d="M81.3,75.1c0-1.8,2.5-3.5,4.5-3.5c1.3,0,2.3,0.7,2.3,1.7c0,1.7-2.5,3.5-4.6,3.5C82.3,76.8,81.3,76.1,81.3,75.1z"/>
</g>
<g>
	<path d="M75.4,65.9h0.6l-0.1,6.2c0.4-0.7,1-1,1.8-1c1.2,0,2.2,0.8,2.2,1.9c0,0.8-0.5,1.8-1.7,2.7l-2.8,2.1V65.9z M76,72.8
		c-0.1,0.8-0.1,1.4-0.1,1.9c0,1,0,1.6,0.1,2c1-0.7,2.4-2.6,2.4-3.7c0-0.6-0.5-1.1-1.1-1.1C76.7,72,76.3,72.2,76,72.8z"/>
</g>
<rect x="109.1" y="55.8" width="0.5" height="17.7"/>
<g>
	<path d="M102.7,75.1c0-1.8,2.5-3.5,4.5-3.5c1.3,0,2.3,0.7,2.3,1.7c0,1.7-2.5,3.5-4.6,3.5C103.7,76.8,102.7,76.1,102.7,75.1z"/>
</g>
<g>
	<path d="M100.8,81v-4l-3,1.1V67.4h0.5v4l3-1.1V81H100.8z M98.2,76.3l2.5-0.9v-3.3L98.2,73V76.3z"/>
</g>
<rect x="130.5" y="50.8" width="0.5" height="20.2"/>
<g>
	<path d="M124.1,72.6c0-1.8,2.5-3.5,4.5-3.5c1.3,0,2.3,0.7,2.3,1.7c0,1.7-2.5,3.5-4.6,3.5C125.1,74.3,124.1,73.7,124.1,72.6z"/>
</g>
<g>
	<path d="M118.2,63.4h0.6l-0.1,6.2c0.4-0.7,1-1,1.8-1c1.2,0,2.2,0.8,2.2,1.9c0,0.8-0.5,1.8-1.7,2.7l-2.8,2.1V63.4z M118.8,70.3
		c-0.1,0.8-0.1,1.4-0.1,1.9c0,1,0,1.6,0.1,2c1-0.7,2.4-2.6,2.4-3.7c0-0.6-0.5-1.1-1.1-1.1C119.5,69.5,119.1,69.8,118.8,70.3z"/>
</g>
<rect x="152.1" y="50" width="0.5" height="20.9"/>
<g>
	<path d="M145.6,72.6c0-1.8,2.5-3.5,4.5-3.5c1.3,0,2.3,0.7,2.3,1.7c0,1.7-2.5,3.5-4.6,3.5C146.6,74.3,145.6,73.7,145.6,72.6z"/>
</g>
<g>
	<path d="M143.7,78.5v-4l-3,1.1V64.9h0.5v4l3-1.1v10.7H143.7z M141.2,73.8l2.5-0.9v-3.3l-2.5,0.9V73.8z"/>
</g>
<rect x="173.5" y="49.2" width="0.5" height="19.2"/>
<g>
	<path d="M167,70.1c0-1.8,2.5-3.5,4.5-3.5c1.3,0,2.3,0.7,2.3,1.7c0,1.7-2.5,3.5-4.6,3.5C168,71.8,167,71.2,167,70.1z"/>
</g>
<rect x="194.9" y="48.3" width="0.5" height="17.7"/>
<g>
	<path d="M188.4,67.6c0-1.8,2.5-3.5,4.5-3.5c1.3,0,2.3,0.7,2.3,1.7c0,1.7-2.5,3.5-4.6,3.5C189.4,69.3,188.4,68.7,188.4,67.6z"/>
</g>
<g>
	<path d="M182.5,58.4h0.6l-0.1,6.2c0.4-0.7,1-1,1.8-1c1.2,0,2.2,0.8,2.2,1.9c0,0.8-0.5,1.8-1.7,2.7l-2.8,2.1V58.4z M183.1,65.4
		c-0.1,0.8-0.1,1.4-0.1,1.9c0,1,0,1.6,0.1,2c1-0.7,2.4-2.6,2.4-3.7c0-0.6-0.5-1.1-1.1-1.1C183.8,64.5,183.4,64.8,183.1,65.4z"/>
</g>
<rect x="209.9" y="67.5" width="0.5" height="17.7"/>
<g>
	<path d="M210,67.6c0-1.8,2.5-3.5,4.5-3.5c1.3,0,2.3,0.7,2.3,1.7c0,1.7-2.5,3.5-4.6,3.5C210.9,69.3,210,68.7,210,67.6z"/>
</g>
<g>
	<path d="M208.1,73.5v-4l-3,1.1V60h0.5v4l3-1.1v10.7H208.1z M205.5,68.9l2.5-0.9v-3.3l-2.5,0.9V68.9z"/>
</g>
<rect x="231.3" y="65.1" width="0.5" height="19.4"/>
<g>
	<path d="M231.4,65.1c0-1.8,2.5-3.5,4.5-3.5c1.3,0,2.3,0.7,2.3,1.7c0,1.7-2.5,3.5-4.6,3.5C232.3,66.9,231.4,66.2,231.4,65.1z"/>
</g>
<g>
	<path d="M225.5,56h0.6l-0.1,6.2c0.4-0.7,1-1,1.8-1c1.2,0,2.2,0.8,2.2,1.9c0,0.8-0.5,1.8-1.7,2.7l-2.8,2.1V56z M226.1,62.9
		c-0.1,0.8-0.1,1.4-0.1,1.9c0,1,0,1.6,0.1,2c1-0.7,2.4-2.6,2.4-3.7c0-0.6-0.5-1.1-1.1-1.1C226.8,62,226.4,62.3,226.1,62.9z"/>
</g>
<rect x="252.7" y="65.1" width="0.5" height="18.6"/>
<g>
	<path d="M252.8,65.1c0-1.8,2.5-3.5,4.5-3.5c1.3,0,2.3,0.7,2.3,1.7c0,1.7-2.5,3.5-4.6,3.5C253.7,66.9,252.8,66.2,252.8,65.1z"/>
</g>
<g>
	<path d="M250.8,71v-4l-3,1.1V57.5h0.5v4l3-1.1V71H250.8z M248.3,66.4l2.5-0.9v-3.3l-2.5,0.9V66.4z"/>
</g>
<rect x="274.2" y="62.6" width="0.5" height="20.2"/>
<g>
	<path d="M274.3,62.7c0-1.8,2.5-3.5,4.5-3.5c1.3,0,2.3,0.7,2.3,1.7c0,1.7-2.5,3.5-4.6,3.5C275.3,64.4,274.3,63.7,274.3,62.7z"/>
</g>
<rect x="295.6" y="60.1" width="0.5" height="17.7"/>
<g>
	<path d="M295.7,60.2c0-1.8,2.5-3.5,4.5-3.5c1.3,0,2.3,0.7,2.3,1.7c0,1.7-2.5,3.5-4.6,3.5C296.7,61.9,295.7,61.3,295.7,60.2z"/>
</g>
<g>
	<path d="M289.8,51h0.6l-0.1,6.2c0.4-0.7,1-1,1.8-1c1.2,0,2.2,0.8,2.2,1.9c0,0.8-0.5,1.8-1.7,2.7l-2.8,2.1V51z M290.4,57.9
		c-0.1,0.8-0.1,1.4-0.1,1.9c0,1,0,1.6,0.1,2c1-0.7,2.4-2.6,2.4-3.7c0-0.6-0.5-1.1-1.1-1.1C291.1,57.1,290.7,57.4,290.4,57.9z"/>
</g>
<rect x="317" y="60.1" width="0.5" height="17.4"/>
<g>
	<path d="M317.1,60.2c0-1.8,2.5-3.5,4.5-3.5c1.3,0,2.3,0.7,2.3,1.7c0,1.7-2.5,3.5-4.6,3.5C318.1,61.9,317.1,61.3,317.1,60.2z"/>
</g>
<g>
	<path d="M315.2,66.1v-4l-3,1.1V52.5h0.5v4l3-1.1v10.7H315.2z M312.6,61.4l2.5-0.9v-3.3l-2.5,0.9V61.4z"/>
</g>
<rect x="338.6" y="57.6" width="0.5" height="19.4"/>
<g>
	<path d="M338.6,57.7c0-1.8,2.5-3.5,4.5-3.5c1.3,0,2.3,0.7,2.3,1.7c0,1.7-2.5,3.5-4.6,3.5C339.6,59.4,338.6,58.8,338.6,57.7z"/>
</g>
<g>
	<path d="M332.7,48.5h0.6l-0.1,6.2c0.4-0.7,1-1,1.8-1c1.2,0,2.2,0.8,2.2,1.9c0,0.8-0.5,1.8-1.7,2.7l-2.8,2.1V48.5z M333.3,55.4
		c-0.1,0.8-0.1,1.4-0.1,1.9c0,1,0,1.6,0.1,2c1-0.7,2.4-2.6,2.4-3.7c0-0.6-0.5-1.1-1.1-1.1C334,54.6,333.6,54.9,333.3,55.4z"/>
</g>
<rect x="360" y="57.6" width="0.5" height="18.9"/>
<g>
	<path d="M360,57.7c0-1.8,2.5-3.5,4.5-3.5c1.3,0,2.3,0.7,2.3,1.7c0,1.7-2.5,3.5-4.6,3.5C361,59.4,360,58.8,360,57.7z"/>
</g>
<g>
	<path d="M358.1,63.6v-4l-3,1.1V50h0.5v4l3-1.1v10.7H358.1z M355.6,58.9l2.5-0.9v-3.3l-2.5,0.9V58.9z"/>
</g>
<rect x="381.3" y="55.1" width="0.5" height="16.4"/>
<g>
	<path d="M381.4,55.2c0-1.8,2.5-3.5,4.5-3.5c1.3,0,2.3,0.7,2.3,1.7c0,1.7-2.5,3.5-4.6,3.5C382.4,56.9,381.4,56.3,381.4,55.2z"/>
</g>
<g>
	<path d="M375.5,46h0.6l-0.1,6.2c0.4-0.7,1-1,1.8-1c1.2,0,2.2,0.8,2.2,1.9c0,0.8-0.5,1.8-1.7,2.7l-2.8,2.1V46z M376.1,53
		c-0.1,0.8-0.1,1.4-0.1,1.9c0,1,0,1.6,0.1,2c1-0.7,2.4-2.6,2.4-3.7c0-0.6-0.5-1.1-1.1-1.1C376.8,52.1,376.4,52.4,376.1,53z"/>
</g>
<rect x="402.9" y="55.1" width="0.5" height="16.4"/>
<g>
	<path d="M403,55.2c0-1.8,2.5-3.5,4.5-3.5c1.3,0,2.3,0.7,2.3,1.7c0,1.7-2.5,3.5-4.6,3.5C403.9,56.9,403,56.3,403,55.2z"/>
</g>
<g>
	<path d="M401,61.1v-4l-3,1.1V47.6h0.5v4l3-1.1v10.7H401z M398.5,56.5l2.5-0.9v-3.3l-2.5,0.9V56.5z"/>
</g>
<rect x="422.5" y="51.5" width="10.5" height="0.8"/>
<rect x="424.3" y="52.7" width="0.5" height="18.9"/>
<g>
	<path d="M424.4,52.7c0-1.8,2.5-3.5,4.5-3.5c1.3,0,2.3,0.7,2.3,1.7c0,1.7-2.5,3.5-4.6,3.5C425.3,54.5,424.4,53.8,424.4,52.7z"/>
</g>
<rect x="443.9" y="51.5" width="10.5" height="0.8"/>
<rect x="445.7" y="50.2" width="0.5" height="21.4"/>
<g>
	<path d="M445.8,50.3c0-1.8,2.5-3.5,4.5-3.5c1.3,0,2.3,0.7,2.3,1.7c0,1.7-2.5,3.5-4.6,3.5C446.7,52,445.8,51.3,445.8,50.3z"/>
</g>
<g>
	<path d="M438.6,41.1h0.6l-0.1,6.2c0.4-0.7,1-1,1.8-1c1.2,0,2.2,0.8,2.2,1.9c0,0.8-0.5,1.8-1.7,2.7l-2.8,2.1V41.1z M439.2,48
		c-0.1,0.8-0.1,1.4-0.1,1.9c0,1,0,1.6,0.1,2c1-0.7,2.4-2.6,2.4-3.7c0-0.6-0.5-1.1-1.1-1.1C439.9,47.2,439.5,47.4,439.2,48z"/>
</g>
<rect x="465.4" y="51.5" width="10.5" height="0.8"/>
<rect x="467.2" y="50.2" width="0.5" height="17.7"/>
<g>
	<path d="M467.3,50.3c0-1.8,2.5-3.5,4.5-3.5c1.3,0,2.3,0.7,2.3,1.7c0,1.7-2.5,3.5-4.6,3.5C468.3,52,467.3,51.3,467.3,50.3z"/>
</g>
<g>
	<path d="M464.1,56.2v-4l-3,1.1V42.6h0.5v4l3-1.1v10.7H464.1z M461.6,51.5l2.5-0.9v-3.3l-2.5,0.9V51.5z"/>
</g>
<rect x="486.8" y="51.5" width="10.5" height="0.8"/>
<rect x="486.8" y="46.5" width="10.5" height="0.8"/>
<rect x="488.6" y="47.7" width="0.5" height="19.8"/>
<g>
	<path d="M488.7,47.8c0-1.8,2.5-3.5,4.5-3.5c1.3,0,2.3,0.7,2.3,1.7c0,1.7-2.5,3.5-4.6,3.5C489.7,49.5,488.7,48.9,488.7,47.8z"/>
</g>
<g>
	<path d="M481.6,38.6h0.6l-0.1,6.2c0.4-0.7,1-1,1.8-1c1.2,0,2.2,0.8,2.2,1.9c0,0.8-0.5,1.8-1.7,2.7l-2.8,2.1V38.6z M482.1,45.5
		c-0.1,0.8-0.1,1.4-0.1,1.9c0,1,0,1.6,0.1,2c1-0.7,2.4-2.6,2.4-3.7c0-0.6-0.5-1.1-1.1-1.1C482.9,44.7,482.4,45,482.1,45.5z"/>
</g>
<rect x="508.2" y="51.5" width="10.5" height="0.8"/>
<rect x="508.2" y="46.5" width="10.5" height="0.8"/>
<rect x="510" y="47.7" width="0.5" height="19.4"/>
<g>
	<path d="M510.1,47.8c0-1.8,2.5-3.5,4.5-3.5c1.3,0,2.3,0.7,2.3,1.7c0,1.7-2.5,3.5-4.6,3.5C511.1,49.5,510.1,48.9,510.1,47.8z"/>
</g>
<g>
	<path d="M506.9,53.7v-4l-3,1.1V40.1h0.5v4l3-1.1v10.7H506.9z M504.4,49l2.5-0.9v-3.3l-2.5,0.9V49z"/>
</g>
<rect x="529.8" y="51.5" width="10.5" height="0.8"/>
<rect x="529.8" y="46.5" width="10.5" height="0.8"/>
<rect x="531.6" y="45.2" width="0.5" height="21.4"/>
<g>
	<path d="M531.6,45.3c0-1.8,2.5-3.5,4.5-3.5c1.3,0,2.3,0.7,2.3,1.7c0,1.7-2.5,3.5-4.6,3.5C532.6,47,531.6,46.4,531.6,45.3z"/>
</g>
<rect x="38.3" y="120.9" width="0.5" height="21.4"/>
<g>
	<path d="M38.4,120.9c0-1.8,2.5-3.5,4.5-3.5c1.3,0,2.3,0.7,2.3,1.7c0,1.7-2.5,3.5-4.6,3.5C39.3,122.7,38.4,122,38.4,120.9z"/>
</g>
<g>
	<path d="M32.5,111.8h0.6L33,118c0.4-0.7,1-1,1.8-1c1.2,0,2.2,0.8,2.2,1.9c0,0.8-0.5,1.8-1.7,2.7l-2.8,2.1V111.8z M33.1,118.7
		c-0.1,0.8-0.1,1.4-0.1,1.9c0,1,0,1.6,0.1,2c1-0.7,2.4-2.6,2.4-3.7c0-0.6-0.5-1.1-1.1-1.1C33.8,117.8,33.4,118.1,33.1,118.7z"/>
</g>
<rect x="57.1" y="123.3" width="0.5" height="18.9"/>
<g>
	<path d="M57.1,123.4c0-1.8,2.5-3.5,4.5-3.5c1.3,0,2.3,0.7,2.3,1.7c0,1.7-2.5,3.5-4.6,3.5C58.1,125.1,57.1,124.5,57.1,123.4z"/>
</g>
<rect x="75.8" y="125.8" width="0.5" height="16.4"/>
<g>
	<path d="M75.9,125.9c0-1.8,2.5-3.5,4.5-3.5c1.3,0,2.3,0.7,2.3,1.7c0,1.7-2.5,3.5-4.6,3.5C76.9,127.6,75.9,127,75.9,125.9z"/>
</g>
<rect x="94.6" y="125.8" width="0.5" height="16.4"/>
<g>
	<path d="M94.6,125.9c0-1.8,2.5-3.5,4.5-3.5c1.3,0,2.3,0.7,2.3,1.7c0,1.7-2.5,3.5-4.6,3.5C95.6,127.6,94.6,127,94.6,125.9z"/>
</g>
<g>
	<path d="M88.8,116.7h0.6l-0.1,6.2c0.4-0.7,1-1,1.8-1c1.2,0,2.2,0.8,2.2,1.9c0,0.8-0.5,1.8-1.7,2.7l-2.8,2.1V116.7z M89.3,123.6
		c-0.1,0.8-0.1,1.4-0.1,1.9c0,1,0,1.6,0.1,2c1-0.7,2.4-2.6,2.4-3.7c0-0.6-0.5-1.1-1.1-1.1C90,122.8,89.6,123.1,89.3,123.6z"/>
</g>
<rect x="113.2" y="128.3" width="0.5" height="20.2"/>
<g>
	<path d="M113.2,128.4c0-1.8,2.5-3.5,4.5-3.5c1.3,0,2.3,0.7,2.3,1.7c0,1.7-2.5,3.5-4.6,3.5C114.2,130.1,113.2,129.5,113.2,128.4z"/>
</g>
<rect x="131.9" y="128.3" width="0.5" height="20.9"/>
<g>
	<path d="M132,128.4c0-1.8,2.5-3.5,4.5-3.5c1.3,0,2.3,0.7,2.3,1.7c0,1.7-2.5,3.5-4.6,3.5C133,130.1,132,129.5,132,128.4z"/>
</g>
<g>
	<path d="M126.1,119.2h0.6l-0.1,6.2c0.4-0.7,1-1,1.8-1c1.2,0,2.2,0.8,2.2,1.9c0,0.8-0.5,1.8-1.7,2.7l-2.8,2.1V119.2z M126.7,126.1
		c-0.1,0.8-0.1,1.4-0.1,1.9c0,1,0,1.6,0.1,2c1-0.7,2.4-2.6,2.4-3.7c0-0.6-0.5-1.1-1.1-1.1C127.4,125.3,127,125.6,126.7,126.1z"/>
</g>
<rect x="150.7" y="130.8" width="0.5" height="19.2"/>
<g>
	<path d="M150.8,130.9c0-1.8,2.5-3.5,4.5-3.5c1.3,0,2.3,0.7,2.3,1.7c0,1.7-2.5,3.5-4.6,3.5C151.7,132.6,150.8,131.9,150.8,130.9z"/>
</g>
<rect x="169.4" y="133.3" width="0.5" height="17.7"/>
<g>
	<path d="M169.5,133.3c0-1.8,2.5-3.5,4.5-3.5c1.3,0,2.3,0.7,2.3,1.7c0,1.7-2.5,3.5-4.6,3.5C170.5,135.1,169.5,134.4,169.5,133.3z"/>
</g>
<rect x="194.7" y="114" width="0.5" height="17.7"/>
<g>
	<path d="M188.3,133.3c0-1.8,2.5-3.5,4.5-3.5c1.3,0,2.3,0.7,2.3,1.7c0,1.7-2.5,3.5-4.6,3.5C189.2,135.1,188.3,134.4,188.3,133.3z"/>
</g>
<g>
	<path d="M182.4,124.2h0.6l-0.1,6.2c0.4-0.7,1-1,1.8-1c1.2,0,2.2,0.8,2.2,1.9c0,0.8-0.5,1.8-1.7,2.7l-2.8,2.1V124.2z M183,131.1
		c-0.1,0.8-0.1,1.4-0.1,1.9c0,1,0,1.6,0.1,2c1-0.7,2.4-2.6,2.4-3.7c0-0.6-0.5-1.1-1.1-1.1C183.7,130.2,183.3,130.5,183,131.1z"/>
</g>
<rect x="213.5" y="114.8" width="0.5" height="19.4"/>
<g>
	<path d="M207,135.8c0-1.8,2.5-3.5,4.5-3.5c1.3,0,2.3,0.7,2.3,1.7c0,1.7-2.5,3.5-4.6,3.5C208,137.5,207,136.9,207,135.8z"/>
</g>
<rect x="232.2" y="115.6" width="0.5" height="18.6"/>
<g>
	<path d="M225.8,135.8c0-1.8,2.5-3.5,4.5-3.5c1.3,0,2.3,0.7,2.3,1.7c0,1.7-2.5,3.5-4.6,3.5C226.8,137.5,225.8,136.9,225.8,135.8z"/>
</g>
<g>
	<path d="M219.9,126.7h0.6l-0.1,6.2c0.4-0.7,1-1,1.8-1c1.2,0,2.2,0.8,2.2,1.9c0,0.8-0.5,1.8-1.7,2.7l-2.8,2.1V126.7z M220.5,133.6
		c-0.1,0.8-0.1,1.4-0.1,1.9c0,1,0,1.6,0.1,2c1-0.7,2.4-2.6,2.4-3.7c0-0.6-0.5-1.1-1.1-1.1C221.2,132.7,220.8,133,220.5,133.6z"/>
</g>
<rect x="250.8" y="116.5" width="0.5" height="20.2"/>
<g>
	<path d="M244.4,138.3c0-1.8,2.5-3.5,4.5-3.5c1.3,0,2.3,0.7,2.3,1.7c0,1.7-2.5,3.5-4.6,3.5C245.4,140,244.4,139.4,244.4,138.3z"/>
</g>
<g>
	<path d="M242.5,144.2v-4l-3,1.1v-10.7h0.5v4l3-1.1v10.7H242.5z M239.9,139.5l2.5-0.9v-3.3l-2.5,0.9V139.5z"/>
</g>
<rect x="269.6" y="122.4" width="0.5" height="14.3"/>
<g>
	<path d="M263.1,138.3c0-1.8,2.5-3.5,4.5-3.5c1.3,0,2.3,0.7,2.3,1.7c0,1.7-2.5,3.5-4.6,3.5C264.1,140,263.1,139.4,263.1,138.3z"/>
</g>
<g>
	<path d="M257.3,129.1h0.6l-0.1,6.2c0.4-0.7,1-1,1.8-1c1.2,0,2.2,0.8,2.2,1.9c0,0.8-0.5,1.8-1.7,2.7l-2.8,2.1V129.1z M257.8,136
		c-0.1,0.8-0.1,1.4-0.1,1.9c0,1,0,1.6,0.1,2c1-0.7,2.4-2.6,2.4-3.7c0-0.6-0.5-1.1-1.1-1.1C258.5,135.2,258.1,135.5,257.8,136z"/>
</g>
<rect x="288.3" y="122.6" width="0.5" height="16.6"/>
<g>
	<path d="M281.9,140.8c0-1.8,2.5-3.5,4.5-3.5c1.3,0,2.3,0.7,2.3,1.7c0,1.7-2.5,3.5-4.6,3.5C282.9,142.5,281.9,141.9,281.9,140.8z"/>
</g>
<rect x="307.1" y="122.7" width="0.5" height="18.9"/>
<g>
	<path d="M300.7,143.3c0-1.8,2.5-3.5,4.5-3.5c1.3,0,2.3,0.7,2.3,1.7c0,1.7-2.5,3.5-4.6,3.5C301.6,145,300.7,144.3,300.7,143.3z"/>
</g>
<g>
	<path d="M298.7,149.2v-4l-3,1.1v-10.7h0.5v4l3-1.1v10.7H298.7z M296.2,144.5l2.5-0.9v-3.3l-2.5,0.9V144.5z"/>
</g>
<rect x="325.9" y="123" width="0.5" height="18.6"/>
<g>
	<path d="M319.4,143.3c0-1.8,2.5-3.5,4.5-3.5c1.3,0,2.3,0.7,2.3,1.7c0,1.7-2.5,3.5-4.6,3.5C320.4,145,319.4,144.3,319.4,143.3z"/>
</g>
<g>
	<path d="M313.5,134.1h0.6l-0.1,6.2c0.4-0.7,1-1,1.8-1c1.2,0,2.2,0.8,2.2,1.9c0,0.8-0.5,1.8-1.7,2.7l-2.8,2.1V134.1z M314.1,141
		c-0.1,0.8-0.1,1.4-0.1,1.9c0,1,0,1.6,0.1,2c1-0.7,2.4-2.6,2.4-3.7c0-0.6-0.5-1.1-1.1-1.1C314.8,140.2,314.4,140.4,314.1,141z"/>
</g>
<rect x="344.6" y="127.7" width="0.5" height="16.4"/>
<g>
	<path d="M338.2,145.7c0-1.8,2.5-3.5,4.5-3.5c1.3,0,2.3,0.7,2.3,1.7c0,1.7-2.5,3.5-4.6,3.5C339.1,147.5,338.2,146.8,338.2,145.7z"/>
</g>
<g>
	<path d="M336.2,151.6v-4l-3,1.1v-10.7h0.5v4l3-1.1v10.7H336.2z M333.7,147l2.5-0.9v-3.3l-2.5,0.9V147z"/>
</g>
<rect x="363.4" y="127.7" width="0.5" height="16.4"/>
<g>
	<path d="M356.9,145.7c0-1.8,2.5-3.5,4.5-3.5c1.3,0,2.3,0.7,2.3,1.7c0,1.7-2.5,3.5-4.6,3.5C357.9,147.5,356.9,146.8,356.9,145.7z"/>
</g>
<g>
	<path d="M351,136.6h0.6l-0.1,6.2c0.4-0.7,1-1,1.8-1c1.2,0,2.2,0.8,2.2,1.9c0,0.8-0.5,1.8-1.7,2.7l-2.8,2.1V136.6z M351.6,143.5
		c-0.1,0.8-0.1,1.4-0.1,1.9c0,1,0,1.6,0.1,2c1-0.7,2.4-2.6,2.4-3.7c0-0.6-0.5-1.1-1.1-1.1C352.3,142.6,351.9,142.9,351.6,143.5z"/>
</g>
<rect x="373.7" y="147" width="10.5" height="0.8"/>
<rect x="382" y="127.7" width="0.5" height="18.9"/>
<g>
	<path d="M375.5,148.2c0-1.8,2.5-3.5,4.5-3.5c1.3,0,2.3,0.7,2.3,1.7c0,1.7-2.5,3.5-4.6,3.5C376.5,149.9,375.5,149.3,375.5,148.2z"/>
</g>
<rect x="392.4" y="147" width="10.5" height="0.8"/>
<rect x="400.7" y="127.7" width="0.5" height="21.4"/>
<g>
	<path d="M394.3,150.7c0-1.8,2.5-3.5,4.5-3.5c1.3,0,2.3,0.7,2.3,1.7c0,1.7-2.5,3.5-4.6,3.5C395.3,152.4,394.3,151.8,394.3,150.7z"/>
</g>
<g>
	<path d="M391.1,156.6v-4l-3,1.1V143h0.5v4l3-1.1v10.7H391.1z M388.6,151.9l2.5-0.9v-3.3l-2.5,0.9V151.9z"/>
</g>
<rect x="411.2" y="147" width="10.5" height="0.8"/>
<rect x="419.5" y="131.4" width="0.5" height="17.7"/>
<g>
	<path d="M413,150.7c0-1.8,2.5-3.5,4.5-3.5c1.3,0,2.3,0.7,2.3,1.7c0,1.7-2.5,3.5-4.6,3.5C414,152.4,413,151.8,413,150.7z"/>
</g>
<g>
	<path d="M405.9,141.5h0.6l-0.1,6.2c0.4-0.7,1-1,1.8-1c1.2,0,2.2,0.8,2.2,1.9c0,0.8-0.5,1.8-1.7,2.7l-2.8,2.1V141.5z M406.5,148.4
		c-0.1,0.8-0.1,1.4-0.1,1.9c0,1,0,1.6,0.1,2c1-0.7,2.4-2.6,2.4-3.7c0-0.6-0.5-1.1-1.1-1.1C407.2,147.6,406.8,147.9,406.5,148.4z"/>
</g>
<rect x="429.9" y="147" width="10.5" height="0.8"/>
<rect x="429.9" y="151.9" width="10.5" height="0.8"/>
<rect x="438.2" y="131.7" width="0.5" height="19.8"/>
<g>
	<path d="M431.8,153.2c0-1.8,2.5-3.5,4.5-3.5c1.3,0,2.3,0.7,2.3,1.7c0,1.7-2.5,3.5-4.6,3.5C432.8,154.9,431.8,154.3,431.8,153.2z"/>
</g>
<g>
	<path d="M428.6,159.1v-4l-3,1.1v-10.7h0.5v4l3-1.1v10.7H428.6z M426.1,154.4l2.5-0.9v-3.3l-2.5,0.9V154.4z"/>
</g>
<rect x="448.7" y="147" width="10.5" height="0.8"/>
<rect x="448.7" y="151.9" width="10.5" height="0.8"/>
<rect x="457" y="132.2" width="0.5" height="19.4"/>
<g>
	<path d="M450.6,153.2c0-1.8,2.5-3.5,4.5-3.5c1.3,0,2.3,0.7,2.3,1.7c0,1.7-2.5,3.5-4.6,3.5C451.5,154.9,450.6,154.3,450.6,153.2z"/>
</g>
<g>
	<path d="M443.4,144h0.6l-0.1,6.2c0.4-0.7,1-1,1.8-1c1.2,0,2.2,0.8,2.2,1.9c0,0.8-0.5,1.8-1.7,2.7l-2.8,2.1V144z M444,150.9
		c-0.1,0.8-0.1,1.4-0.1,1.9c0,1,0,1.6,0.1,2c1-0.7,2.4-2.6,2.4-3.7c0-0.6-0.5-1.1-1.1-1.1C444.7,150.1,444.3,150.4,444,150.9z"/>
</g>
<rect x="467.5" y="147" width="10.5" height="0.8"/>
<rect x="467.5" y="151.9" width="10.5" height="0.8"/>
<rect x="475.8" y="132.6" width="0.5" height="21.4"/>
<g>
	<path d="M469.3,155.7c0-1.8,2.5-3.5,4.5-3.5c1.3,0,2.3,0.7,2.3,1.7c0,1.7-2.5,3.5-4.6,3.5C470.3,157.4,469.3,156.7,469.3,155.7z"/>
</g>
<g>
	<path d="M466.2,161.6v-4l-3,1.1V148h0.5v4l3-1.1v10.7H466.2z M463.6,156.9l2.5-0.9v-3.3l-2.5,0.9V156.9z"/>
</g>
<rect x="486.2" y="147" width="10.7" height="0.8"/>
<rect x="486.2" y="151.9" width="10.7" height="0.8"/>
<rect x="494.7" y="132.5" width="0.5" height="21.5"/>
<g>
	<path d="M492.3,152.1c1.6,0,2.7,0.7,2.7,2c0,1.9-2.3,3.4-4.5,3.4c-1.3,0-2.4-0.7-2.4-1.8C488.1,153.9,490.3,152.1,492.3,152.1z
		 M488.5,156c0,0.6,0.4,0.9,1.1,0.9c1.4,0,4.9-2.1,4.9-3.3c0-0.6-0.4-0.9-1.1-0.9C492.2,152.7,488.5,154.7,488.5,156z"/>
</g>
<g>
	<path d="M480.9,146.5h0.6l-0.1,6.2c0.4-0.7,1-1,1.8-1c1.2,0,2.2,0.8,2.2,1.9c0,0.8-0.5,1.8-1.7,2.7l-2.8,2.1V146.5z M481.5,153.4
		c-0.1,0.8-0.1,1.4-0.1,1.9c0,1,0,1.6,0.1,2c1-0.7,2.4-2.6,2.4-3.7c0-0.6-0.5-1.1-1.1-1.1C482.2,152.6,481.8,152.8,481.5,153.4z"/>
</g>
<rect x="36.5" y="173.2" width="10.5" height="0.8"/>
<rect x="36.5" y="168.2" width="10.5" height="0.8"/>
<rect x="36.5" y="163.3" width="10.5" height="0.8"/>
<rect x="38.3" y="164.4" width="0.5" height="23.9"/>
<g>
	<path d="M38.4,164.5c0-1.8,2.5-3.5,4.5-3.5c1.3,0,2.3,0.7,2.3,1.7c0,1.7-2.5,3.5-4.6,3.5C39.3,166.2,38.4,165.6,38.4,164.5z"/>
</g>
<g>
	<path d="M31.2,155.3h0.6l-0.1,6.2c0.4-0.7,1-1,1.8-1c1.2,0,2.2,0.8,2.2,1.9c0,0.8-0.5,1.8-1.7,2.7l-2.8,2.1V155.3z M31.8,162.2
		c-0.1,0.8-0.1,1.4-0.1,1.9c0,1,0,1.6,0.1,2c1-0.7,2.4-2.6,2.4-3.7c0-0.6-0.5-1.1-1.1-1.1C32.5,161.4,32.1,161.7,31.8,162.2z"/>
</g>
<rect x="55.3" y="173.2" width="10.5" height="0.8"/>
<rect x="55.3" y="168.2" width="10.5" height="0.8"/>
<rect x="57.1" y="166.9" width="0.5" height="21.4"/>
<g>
	<path d="M57.1,167c0-1.8,2.5-3.5,4.5-3.5c1.3,0,2.3,0.7,2.3,1.7c0,1.7-2.5,3.5-4.6,3.5C58.1,168.7,57.1,168.1,57.1,167z"/>
</g>
<rect x="74" y="173.2" width="10.5" height="0.8"/>
<rect x="74" y="168.2" width="10.5" height="0.8"/>
<rect x="75.8" y="169.4" width="0.5" height="18.9"/>
<g>
	<path d="M75.9,169.5c0-1.8,2.5-3.5,4.5-3.5c1.3,0,2.3,0.7,2.3,1.7c0,1.7-2.5,3.5-4.6,3.5C76.9,171.2,75.9,170.5,75.9,169.5z"/>
</g>
<rect x="92.8" y="173.2" width="10.5" height="0.8"/>
<rect x="92.8" y="168.2" width="10.5" height="0.8"/>
<rect x="94.6" y="169.4" width="0.5" height="18.9"/>
<g>
	<path d="M94.6,169.5c0-1.8,2.5-3.5,4.5-3.5c1.3,0,2.3,0.7,2.3,1.7c0,1.7-2.5,3.5-4.6,3.5C95.6,171.2,94.6,170.5,94.6,169.5z"/>
</g>
<g>
	<path d="M87.5,160.3h0.6l-0.1,6.2c0.4-0.7,1-1,1.8-1c1.2,0,2.2,0.8,2.2,1.9c0,0.8-0.5,1.8-1.7,2.7l-2.8,2.1V160.3z M88.1,167.2
		c-0.1,0.8-0.1,1.4-0.1,1.9c0,1,0,1.6,0.1,2c1-0.7,2.4-2.6,2.4-3.7c0-0.6-0.5-1.1-1.1-1.1C88.8,166.4,88.4,166.6,88.1,167.2z"/>
</g>
<rect x="111.4" y="173.2" width="10.5" height="0.8"/>
<rect x="113.2" y="171.9" width="0.5" height="16.4"/>
<g>
	<path d="M113.2,171.9c0-1.8,2.5-3.5,4.5-3.5c1.3,0,2.3,0.7,2.3,1.7c0,1.7-2.5,3.5-4.6,3.5C114.2,173.7,113.2,173,113.2,171.9z"/>
</g>
<rect x="130.1" y="173.2" width="10.5" height="0.8"/>
<rect x="131.9" y="171.9" width="0.5" height="18"/>
<g>
	<path d="M132,171.9c0-1.8,2.5-3.5,4.5-3.5c1.3,0,2.3,0.7,2.3,1.7c0,1.7-2.5,3.5-4.6,3.5C133,173.7,132,173,132,171.9z"/>
</g>
<g>
	<path d="M124.9,162.8h0.6l-0.1,6.2c0.4-0.7,1-1,1.8-1c1.2,0,2.2,0.8,2.2,1.9c0,0.8-0.5,1.8-1.7,2.7l-2.8,2.1V162.8z M125.4,169.7
		c-0.1,0.8-0.1,1.4-0.1,1.9c0,1,0,1.6,0.1,2c1-0.7,2.4-2.6,2.4-3.7c0-0.6-0.5-1.1-1.1-1.1C126.2,168.8,125.7,169.1,125.4,169.7z"/>
</g>
<rect x="148.9" y="173.2" width="10.5" height="0.8"/>
<rect x="150.7" y="174.3" width="0.5" height="17.2"/>
<g>
	<path d="M150.8,174.4c0-1.8,2.5-3.5,4.5-3.5c1.3,0,2.3,0.7,2.3,1.7c0,1.7-2.5,3.5-4.6,3.5C151.7,176.1,150.8,175.5,150.8,174.4z"/>
</g>
<rect x="169.4" y="176.8" width="0.5" height="16.4"/>
<g>
	<path d="M169.5,176.9c0-1.8,2.5-3.5,4.5-3.5c1.3,0,2.3,0.7,2.3,1.7c0,1.7-2.5,3.5-4.6,3.5C170.5,178.6,169.5,178,169.5,176.9z"/>
</g>
<rect x="188.2" y="176.8" width="0.5" height="16.4"/>
<g>
	<path d="M188.3,176.9c0-1.8,2.5-3.5,4.5-3.5c1.3,0,2.3,0.7,2.3,1.7c0,1.7-2.5,3.5-4.6,3.5C189.2,178.6,188.3,178,188.3,176.9z"/>
</g>
<g>
	<path d="M182.4,167.7h0.6l-0.1,6.2c0.4-0.7,1-1,1.8-1c1.2,0,2.2,0.8,2.2,1.9c0,0.8-0.5,1.8-1.7,2.7l-2.8,2.1V167.7z M183,174.6
		c-0.1,0.8-0.1,1.4-0.1,1.9c0,1,0,1.6,0.1,2c1-0.7,2.4-2.6,2.4-3.7c0-0.6-0.5-1.1-1.1-1.1C183.7,173.8,183.3,174.1,183,174.6z"/>
</g>
<rect x="207" y="179.3" width="0.5" height="15.5"/>
<g>
	<path d="M207,179.4c0-1.8,2.5-3.5,4.5-3.5c1.3,0,2.3,0.7,2.3,1.7c0,1.7-2.5,3.5-4.6,3.5C208,181.1,207,180.5,207,179.4z"/>
</g>
<rect x="225.7" y="179.3" width="0.5" height="17.2"/>
<g>
	<path d="M225.8,179.4c0-1.8,2.5-3.5,4.5-3.5c1.3,0,2.3,0.7,2.3,1.7c0,1.7-2.5,3.5-4.6,3.5C226.8,181.1,225.8,180.5,225.8,179.4z"/>
</g>
<g>
	<path d="M219.9,170.2h0.6l-0.1,6.2c0.4-0.7,1-1,1.8-1c1.2,0,2.2,0.8,2.2,1.9c0,0.8-0.5,1.8-1.7,2.7l-2.8,2.1V170.2z M220.5,177.1
		c-0.1,0.8-0.1,1.4-0.1,1.9c0,1,0,1.6,0.1,2c1-0.7,2.4-2.6,2.4-3.7c0-0.6-0.5-1.1-1.1-1.1C221.2,176.3,220.8,176.6,220.5,177.1z"/>
</g>
<rect x="244.3" y="181.8" width="0.5" height="16.4"/>
<g>
	<path d="M244.4,181.9c0-1.8,2.5-3.5,4.5-3.5c1.3,0,2.3,0.7,2.3,1.7c0,1.7-2.5,3.5-4.6,3.5C245.4,183.6,244.4,182.9,244.4,181.9z"/>
</g>
<g>
	<path d="M242.5,187.8v-4l-3,1.1v-10.7h0.5v4l3-1.1v10.7H242.5z M239.9,183.1l2.5-0.9v-3.3l-2.5,0.9V183.1z"/>
</g>
<rect x="263.1" y="181.8" width="0.5" height="21.4"/>
<g>
	<path d="M263.1,181.9c0-1.8,2.5-3.5,4.5-3.5c1.3,0,2.3,0.7,2.3,1.7c0,1.7-2.5,3.5-4.6,3.5C264.1,183.6,263.1,182.9,263.1,181.9z"/>
</g>
<g>
	<path d="M257.3,172.7h0.6l-0.1,6.2c0.4-0.7,1-1,1.8-1c1.2,0,2.2,0.8,2.2,1.9c0,0.8-0.5,1.8-1.7,2.7l-2.8,2.1V172.7z M257.8,179.6
		c-0.1,0.8-0.1,1.4-0.1,1.9c0,1,0,1.6,0.1,2c1-0.7,2.4-2.6,2.4-3.7c0-0.6-0.5-1.1-1.1-1.1C258.5,178.8,258.1,179,257.8,179.6z"/>
</g>
<rect x="281.8" y="184.3" width="0.5" height="18.9"/>
<g>
	<path d="M281.9,184.3c0-1.8,2.5-3.5,4.5-3.5c1.3,0,2.3,0.7,2.3,1.7c0,1.7-2.5,3.5-4.6,3.5C282.9,186.1,281.9,185.4,281.9,184.3z"/>
</g>
<rect x="300.6" y="186.7" width="0.5" height="16.4"/>
<g>
	<path d="M300.7,186.8c0-1.8,2.5-3.5,4.5-3.5c1.3,0,2.3,0.7,2.3,1.7c0,1.7-2.5,3.5-4.6,3.5C301.6,188.5,300.7,187.9,300.7,186.8z"/>
</g>
<g>
	<path d="M298.7,192.7v-4l-3,1.1v-10.7h0.5v4l3-1.1v10.7H298.7z M296.2,188.1l2.5-0.9v-3.3l-2.5,0.9V188.1z"/>
</g>
<rect x="319.3" y="186.7" width="0.5" height="16.4"/>
<g>
	<path d="M319.4,186.8c0-1.8,2.5-3.5,4.5-3.5c1.3,0,2.3,0.7,2.3,1.7c0,1.7-2.5,3.5-4.6,3.5C320.4,188.5,319.4,187.9,319.4,186.8z"/>
</g>
<g>
	<path d="M313.5,177.6h0.6l-0.1,6.2c0.4-0.7,1-1,1.8-1c1.2,0,2.2,0.8,2.2,1.9c0,0.8-0.5,1.8-1.7,2.7l-2.8,2.1V177.6z M314.1,184.6
		c-0.1,0.8-0.1,1.4-0.1,1.9c0,1,0,1.6,0.1,2c1-0.7,2.4-2.6,2.4-3.7c0-0.6-0.5-1.1-1.1-1.1C314.8,183.7,314.4,184,314.1,184.6z"/>
</g>
<rect x="344.6" y="172.5" width="0.5" height="15.2"/>
<g>
	<path d="M338.2,189.3c0-1.8,2.5-3.5,4.5-3.5c1.3,0,2.3,0.7,2.3,1.7c0,1.7-2.5,3.5-4.6,3.5C339.1,191,338.2,190.4,338.2,189.3z"/>
</g>
<g>
	<path d="M336.2,195.2v-4l-3,1.1v-10.7h0.5v4l3-1.1v10.7H336.2z M333.7,190.5l2.5-0.9v-3.3l-2.5,0.9V190.5z"/>
</g>
<rect x="363.4" y="172.5" width="0.5" height="15.2"/>
<g>
	<path d="M356.9,189.3c0-1.8,2.5-3.5,4.5-3.5c1.3,0,2.3,0.7,2.3,1.7c0,1.7-2.5,3.5-4.6,3.5C357.9,191,356.9,190.4,356.9,189.3z"/>
</g>
<g>
	<path d="M351,180.1h0.6l-0.1,6.2c0.4-0.7,1-1,1.8-1c1.2,0,2.2,0.8,2.2,1.9c0,0.8-0.5,1.8-1.7,2.7l-2.8,2.1V180.1z M351.6,187
		c-0.1,0.8-0.1,1.4-0.1,1.9c0,1,0,1.6,0.1,2c1-0.7,2.4-2.6,2.4-3.7c0-0.6-0.5-1.1-1.1-1.1C352.3,186.2,351.9,186.5,351.6,187z"/>
</g>
<rect x="382" y="172.5" width="0.5" height="17.7"/>
<g>
	<path d="M375.5,191.8c0-1.8,2.5-3.5,4.5-3.5c1.3,0,2.3,0.7,2.3,1.7c0,1.7-2.5,3.5-4.6,3.5C376.5,193.5,375.5,192.9,375.5,191.8z"/>
</g>
<rect x="400.7" y="172.5" width="0.5" height="20.2"/>
<g>
	<path d="M394.3,194.3c0-1.8,2.5-3.5,4.5-3.5c1.3,0,2.3,0.7,2.3,1.7c0,1.7-2.5,3.5-4.6,3.5C395.3,196,394.3,195.3,394.3,194.3z"/>
</g>
<g>
	<path d="M392.4,200.2v-4l-3,1.1v-10.7h0.5v4l3-1.1v10.7H392.4z M389.8,195.5l2.5-0.9v-3.3l-2.5,0.9V195.5z"/>
</g>
<rect x="419.5" y="178.4" width="0.5" height="14.3"/>
<g>
	<path d="M413,194.3c0-1.8,2.5-3.5,4.5-3.5c1.3,0,2.3,0.7,2.3,1.7c0,1.7-2.5,3.5-4.6,3.5C414,196,413,195.3,413,194.3z"/>
</g>
<g>
	<path d="M407.2,185.1h0.6l-0.1,6.2c0.4-0.7,1-1,1.8-1c1.2,0,2.2,0.8,2.2,1.9c0,0.8-0.5,1.8-1.7,2.7l-2.8,2.1V185.1z M407.7,192
		c-0.1,0.8-0.1,1.4-0.1,1.9c0,1,0,1.6,0.1,2c1-0.7,2.4-2.6,2.4-3.7c0-0.6-0.5-1.1-1.1-1.1C408.4,191.2,408,191.4,407.7,192z"/>
</g>
<rect x="438.2" y="178.5" width="0.5" height="16.6"/>
<g>
	<path d="M431.8,196.7c0-1.8,2.5-3.5,4.5-3.5c1.3,0,2.3,0.7,2.3,1.7c0,1.7-2.5,3.5-4.6,3.5C432.8,198.5,431.8,197.8,431.8,196.7z"/>
</g>
<g>
	<path d="M429.9,202.6v-4l-3,1.1v-10.7h0.5v4l3-1.1v10.7H429.9z M427.3,198l2.5-0.9v-3.3l-2.5,0.9V198z"/>
</g>
<rect x="457" y="178.7" width="0.5" height="16.4"/>
<g>
	<path d="M450.6,196.7c0-1.8,2.5-3.5,4.5-3.5c1.3,0,2.3,0.7,2.3,1.7c0,1.7-2.5,3.5-4.6,3.5C451.5,198.5,450.6,197.8,450.6,196.7z"/>
</g>
<g>
	<path d="M444.7,187.6h0.6l-0.1,6.2c0.4-0.7,1-1,1.8-1c1.2,0,2.2,0.8,2.2,1.9c0,0.8-0.5,1.8-1.7,2.7l-2.8,2.1V187.6z M445.2,194.5
		c-0.1,0.8-0.1,1.4-0.1,1.9c0,1,0,1.6,0.1,2c1-0.7,2.4-2.6,2.4-3.7c0-0.6-0.5-1.1-1.1-1.1C446,193.6,445.5,193.9,445.2,194.5z"/>
</g>
<rect x="475.8" y="179" width="0.5" height="18.6"/>
<g>
	<path d="M469.3,199.2c0-1.8,2.5-3.5,4.5-3.5c1.3,0,2.3,0.7,2.3,1.7c0,1.7-2.5,3.5-4.6,3.5C470.3,200.9,469.3,200.3,469.3,199.2z"/>
</g>
<g>
	<path d="M467.4,205.1v-4l-3,1.1v-10.7h0.5v4l3-1.1v10.7H467.4z M464.9,200.5l2.5-0.9v-3.3l-2.5,0.9V200.5z"/>
</g>
<rect x="494.7" y="181" width="0.5" height="16.6"/>
<g>
	<path d="M492.3,195.7c1.6,0,2.7,0.7,2.7,2c0,1.9-2.3,3.4-4.5,3.4c-1.3,0-2.4-0.7-2.4-1.8C488.1,197.4,490.3,195.7,492.3,195.7z
		 M488.5,199.5c0,0.6,0.4,0.9,1.1,0.9c1.4,0,4.9-2.1,4.9-3.3c0-0.6-0.4-0.9-1.1-0.9C492.2,196.3,488.5,198.3,488.5,199.5z"/>
</g>
<g>
	<path d="M482.2,190.1h0.6l-0.1,6.2c0.4-0.7,1-1,1.8-1c1.2,0,2.2,0.8,2.2,1.9c0,0.8-0.5,1.8-1.7,2.7l-2.8,2.1V190.1z M482.8,197
		c-0.1,0.8-0.1,1.4-0.1,1.9c0,1,0,1.6,0.1,2c1-0.7,2.4-2.6,2.4-3.7c0-0.6-0.5-1.1-1.1-1.1C483.5,196.1,483.1,196.4,482.8,197z"/>
</g>
</svg>
