<?xml version="1.0" encoding="utf-8"?>

<!--
	ScaleBook
	Copyright (c) Leland Jansen 2015. All rights reserved.
-->

<!DOCTYPE svg PUBLIC "-//W3C//DTD SVG 1.1//EN" "http://www.w3.org/Graphics/SVG/1.1/DTD/svg11.dtd">
<svg version="1.1" id="Layer_1" xmlns="http://www.w3.org/2000/svg" xmlns:xlink="http://www.w3.org/1999/xlink" x="0px" y="0px"
	 viewBox="0 0 552.9 86.7" enable-background="new 0 0 552.9 86.7" xml:space="preserve">
<rect x="8.4" y="9.7" width="0.8" height="67"/>
<g>
	<path d="M7.4,10.4c-1.9,1.1-3.6,5.8-3.6,9.4c0,2.3,1.4,9.9,1.4,12.3c0,5-1.5,8.6-4.6,11.1c3,2.4,4.6,6.1,4.6,11.1
		c0,2.3-1.4,9.9-1.4,12.3c0,3.8,1.7,8.4,3.6,9.5v0.7c-3.5-2.3-5.8-8.2-5.8-13.1c0-2.1,1.7-9.4,1.7-11.5c0-3.8-1-6.6-2.9-8.2
		C0.1,43.6,0,43.4,0,43.2c0-0.2,0.1-0.4,0.5-0.7c1.9-1.7,2.9-4.2,2.9-7.6c0-2.1-1.7-10-1.7-12.2c0-5.2,2.1-10.4,5.8-13.1V10.4z"/>
</g>
<rect x="547.8" y="9.7" width="0.8" height="67"/>
<rect x="550.4" y="9.7" width="2.5" height="67"/>
<rect x="8.5" y="29.3" width="544.4" height="0.5"/>
<rect x="8.5" y="24.4" width="544.4" height="0.5"/>
<rect x="8.5" y="19.4" width="544.4" height="0.5"/>
<rect x="8.5" y="14.4" width="544.4" height="0.5"/>
<rect x="8.5" y="9.5" width="544.4" height="0.5"/>
<g>
	<path d="M20.3,29.4c-4.2,0-8.1-3.1-8.1-6.9c0-3.2,2.3-6.7,6.8-10.5c-0.3-1.2-0.4-2.4-0.4-3.6c0-3.5,1.2-6.8,3.2-8.5
		c1.8,2.5,2.7,4.9,2.7,7.1c0,2.9-1.3,5.6-4.3,8.1l0.9,4.2c0.5,0,0.8-0.1,0.8-0.1c2.6,0,4.8,2,4.8,4.7c0,1.9-1.4,3.7-3.6,4.8
		c0-0.1,0.9,3.8,0.9,4.3c0,2.5-2.3,4.2-4.9,4.2c-2,0-3.6-1.3-3.6-3.4c0-1.4,1-2.6,2.4-2.6c1.3,0,2.3,1.3,2.3,2.5
		c0,1.4-1.2,2.3-2.7,2.5c0.6,0.3,1.2,0.5,1.9,0.5c2.1,0,4.1-1.6,4.1-3.6c0-0.2,0-0.4-0.1-0.6l-0.8-3.7
		C21.9,29.3,21.2,29.4,20.3,29.4z M18.1,24.2c0,1,0.5,1.9,1.6,2.5c-1.8-0.3-3-1.4-3-3.1c0-2,1.7-3.7,3.8-4.1l-0.8-4
		C16,18.3,14,21,14,23.6c0,2.9,2.8,5.3,6,5.3c0.9,0,1.7-0.2,2.4-0.5L21,21.6C19.4,21.8,18.1,22.8,18.1,24.2z M22.1,2.8
		c-1.6,0-2.9,3.7-2.9,7c0,0.7,0,1.3,0.2,1.9c2.7-2.4,4-4.5,4-6.5c0-0.9-0.3-1.7-1-2.4C22.4,2.9,22.3,2.8,22.1,2.8z M24.9,24.7
		c0-1.6-1.2-3.3-2.9-3.3c-0.1,0-0.2,0-0.5,0l1.4,6.6C24.2,27.2,24.9,26,24.9,24.7z"/>
</g>
<g>
	<path d="M33.5,2.9v2.8l1-0.3v1.8l-1,0.3V11l1-0.3v1.8l-1,0.3v3.1H33v-3l-1.9,0.6v3h-0.5v-2.8l-1,0.3v-1.8l1-0.3V8.4l-1,0.3V7l1-0.3
		V3.5h0.5v3L33,5.9v-3H33.5z M33,7.7l-1.9,0.6v3.4l1.9-0.6V7.7z"/>
</g>
<g>
	<path d="M39.7,10.3v2.8l1-0.3v1.8l-1,0.3v3.4l1-0.3v1.8l-1,0.3v3.1h-0.5v-3L37.3,21v3h-0.5v-2.8l-1,0.3v-1.8l1-0.3v-3.4l-1,0.3
		v-1.8l1-0.3V11h0.5v3l1.9-0.6v-3H39.7z M39.2,15.1l-1.9,0.6v3.4l1.9-0.6V15.1z"/>
</g>
<g>
	<path d="M45.9,0.4v2.8l1-0.3v1.8l-1,0.3v3.4l1-0.3V10l-1,0.3v3.1h-0.5v-3l-1.9,0.6v3H43v-2.8l-1,0.3V9.7l1-0.3V6l-1,0.3V4.5l1-0.3
		V1h0.5v3l1.9-0.6v-3H45.9z M45.4,5.2l-1.9,0.6v3.4l1.9-0.6V5.2z"/>
</g>
<g>
	<path d="M52.1,7.9v2.8l1-0.3v1.8l-1,0.3v3.4l1-0.3v1.8l-1,0.3v3.1h-0.5v-3l-1.9,0.6v3h-0.5v-2.8l-1,0.3v-1.8l1-0.3v-3.4l-1,0.3
		v-1.8l1-0.3V8.5h0.5v3l1.9-0.6v-3H52.1z M51.6,12.6l-1.9,0.6v3.4l1.9-0.6V12.6z"/>
</g>
<g>
	<path d="M58.3,15.3v2.8l1-0.3v1.8l-1,0.3v3.4l1-0.3v1.8l-1,0.3v3.1h-0.5v-3l-1.9,0.6v3h-0.5v-2.8l-1,0.3v-1.8l1-0.3v-3.4l-1,0.3
		v-1.8l1-0.3v-3.1h0.5v3l1.9-0.6v-3H58.3z M57.8,20.1l-1.9,0.6v3.4l1.9-0.6V20.1z"/>
</g>
<g>
	<path d="M64.5,5.4v2.8l1-0.3v1.8l-1,0.3v3.4l1-0.3v1.8l-1,0.3v3.1H64v-3L62.1,16v3h-0.5v-2.8l-1,0.3v-1.8l1-0.3v-3.4l-1,0.3V9.5
		l1-0.3V6h0.5v3L64,8.3v-3H64.5z M64,10.2l-1.9,0.6v3.4l1.9-0.6V10.2z"/>
</g>
<polygon fill-rule="evenodd" clip-rule="evenodd" points="80.9,25.8 124.1,20.9 124.1,18.4 80.9,23.4 "/>
<polygon fill-rule="evenodd" clip-rule="evenodd" points="80.9,22.1 124.1,17.2 124.1,14.7 80.9,19.6 "/>
<polygon fill-rule="evenodd" clip-rule="evenodd" points="138.4,15.9 181.6,11 181.6,8.5 138.4,13.4 "/>
<polygon fill-rule="evenodd" clip-rule="evenodd" points="138.4,12.2 181.6,7.2 181.6,4.8 138.4,9.7 "/>
<polygon fill-rule="evenodd" clip-rule="evenodd" points="201.5,30.8 244.7,25.8 244.7,23.4 201.5,28.3 "/>
<polygon fill-rule="evenodd" clip-rule="evenodd" points="201.5,34.5 244.7,29.6 244.7,27.1 201.5,32 "/>
<polygon fill-rule="evenodd" clip-rule="evenodd" points="259,22.1 302.2,20.9 302.2,18.4 259,19.6 "/>
<polygon fill-rule="evenodd" clip-rule="evenodd" points="259,25.8 302.2,24.6 302.2,22.1 259,23.4 "/>
<polygon fill-rule="evenodd" clip-rule="evenodd" points="316.6,25.8 359.9,30.8 359.9,28.3 316.6,23.4 "/>
<polygon fill-rule="evenodd" clip-rule="evenodd" points="316.6,29.6 359.9,34.5 359.9,32 316.6,27.1 "/>
<polygon fill-rule="evenodd" clip-rule="evenodd" points="392.7,11 435.8,15.9 435.8,13.4 392.7,8.5 "/>
<polygon fill-rule="evenodd" clip-rule="evenodd" points="392.7,7.2 435.8,12.2 435.8,9.7 392.7,4.8 "/>
<polygon fill-rule="evenodd" clip-rule="evenodd" points="450.3,20.9 493.5,25.8 493.5,23.4 450.3,18.4 "/>
<polygon fill-rule="evenodd" clip-rule="evenodd" points="450.3,17.2 493.5,22.1 493.5,19.6 450.3,14.7 "/>
<rect x="8.5" y="76.4" width="544.4" height="0.5"/>
<rect x="8.5" y="71.5" width="544.4" height="0.5"/>
<rect x="8.5" y="66.5" width="544.4" height="0.5"/>
<rect x="8.5" y="61.6" width="544.4" height="0.5"/>
<rect x="8.5" y="56.6" width="544.4" height="0.5"/>
<g>
	<path d="M15.7,71c2.9-2.6,4.7-6.1,4.7-9.2c0-2.5-1.4-4.4-3.7-4.4c-1.6,0-3.4,1.3-3.4,2.7c0,0.2,0,0.3,0.1,0.3
		c-0.1,0,0.6-0.6,1.4-0.6c0.9,0,1.5,0.8,1.5,1.7c0,1.2-0.9,2.2-2.1,2.2c-1.2,0-2.1-1.3-2.1-2.8c0-2.3,2.3-4.1,4.8-4.1
		c4.7,0,5.9,3.2,5.9,5.8c0,1.6-0.4,2.9-2,5.3c-1.9,3.1-6.4,5.3-8.1,5.3c-0.4,0-0.6-0.2-0.6-0.5C13.8,72.3,14.9,71.7,15.7,71z
		 M25.7,58.3c0.6,0,1,0.4,1,1c0,0.6-0.4,1-1,1s-1-0.4-1-1C24.7,58.8,25.1,58.3,25.7,58.3z M25.7,63.3c0.6,0,1,0.4,1,1
		c0,0.6-0.4,1-1,1s-1-0.4-1-1C24.7,63.7,25.1,63.3,25.7,63.3z"/>
</g>
<g>
	<path d="M33.5,55v2.8l1-0.3v1.8l-1,0.3V63l1-0.3v1.8l-1,0.3V68H33v-3l-1.9,0.6v3h-0.5v-2.8l-1,0.3v-1.8l1-0.3v-3.4l-1,0.3v-1.8
		l1-0.3v-3.1h0.5v3L33,58v-3H33.5z M33,59.8l-1.9,0.6v3.4l1.9-0.6V59.8z"/>
</g>
<g>
	<path d="M39.7,62.4v2.8l1-0.3v1.8l-1,0.3v3.4l1-0.3V72l-1,0.3v3.1h-0.5v-3l-1.9,0.6v3h-0.5v-2.8l-1,0.3v-1.8l1-0.3V68l-1,0.3v-1.8
		l1-0.3v-3.1h0.5v3l1.9-0.6v-3H39.7z M39.2,67.2l-1.9,0.6v3.4l1.9-0.6V67.2z"/>
</g>
<g>
	<path d="M45.9,52.5v2.8l1-0.3v1.8l-1,0.3v3.4l1-0.3V62l-1,0.3v3.1h-0.5v-3l-1.9,0.6v3H43v-2.8l-1,0.3v-1.8l1-0.3V58l-1,0.3v-1.8
		l1-0.3v-3.1h0.5v3l1.9-0.6v-3H45.9z M45.4,57.3l-1.9,0.6v3.4l1.9-0.6V57.3z"/>
</g>
<g>
	<path d="M52.1,59.9v2.8l1-0.3v1.8l-1,0.3V68l1-0.3v1.8l-1,0.3v3.1h-0.5v-3l-1.9,0.6v3h-0.5v-2.8l-1,0.3v-1.8l1-0.3v-3.4l-1,0.3V64
		l1-0.3v-3.1h0.5v3l1.9-0.6v-3H52.1z M51.6,64.7l-1.9,0.6v3.4l1.9-0.6V64.7z"/>
</g>
<g>
	<path d="M58.3,67.4v2.8l1-0.3v1.8l-1,0.3v3.4l1-0.3v1.8l-1,0.3v3.1h-0.5v-3L55.9,78v3h-0.5v-2.8l-1,0.3v-1.8l1-0.3v-3.4l-1,0.3
		v-1.8l1-0.3V68h0.5v3l1.9-0.6v-3H58.3z M57.8,72.2l-1.9,0.6v3.4l1.9-0.6V72.2z"/>
</g>
<g>
	<path d="M64.5,57.5v2.8l1-0.3v1.8l-1,0.3v3.4l1-0.3V67l-1,0.3v3.1H64v-3l-1.9,0.6v3h-0.5v-2.8l-1,0.3v-1.8l1-0.3V63l-1,0.3v-1.8
		l1-0.3v-3.1h0.5v3l1.9-0.6v-3H64.5z M64,62.2l-1.9,0.6v3.4l1.9-0.6V62.2z"/>
</g>
<polygon fill-rule="evenodd" clip-rule="evenodd" points="80.9,63 124.1,58.1 124.1,55.6 80.9,60.6 "/>
<polygon fill-rule="evenodd" clip-rule="evenodd" points="80.9,59.3 124.1,54.4 124.1,51.9 80.9,56.8 "/>
<g>
	<path d="M193.4,75.3c-3.2,0-6.1-2.3-6.1-5.1c0-2.4,1.7-5,5.1-7.9c-0.2-0.9-0.3-1.8-0.3-2.7c0-2.6,0.9-5.1,2.4-6.3
		c1.4,1.9,2,3.7,2,5.3c0,2.2-1,4.2-3.2,6.1l0.7,3.1c0.4,0,0.6,0,0.6,0c2,0,3.6,1.5,3.6,3.5c0,1.4-1.1,2.8-2.7,3.6
		c0-0.1,0.6,2.8,0.6,3.3c0,1.9-1.7,3.2-3.7,3.2c-1.5,0-2.7-1-2.7-2.5c0-1.1,0.7-1.9,1.8-1.9c1,0,1.7,1,1.7,1.9c0,1-0.9,1.7-2,1.8
		c0.4,0.2,0.9,0.3,1.4,0.3c1.6,0,3.1-1.2,3.1-2.7c0-0.1,0-0.3,0-0.5l-0.6-2.8C194.7,75.2,194.1,75.3,193.4,75.3z M191.8,71.4
		c0,0.8,0.4,1.4,1.2,1.9c-1.3-0.2-2.2-1.1-2.2-2.3c0-1.5,1.3-2.8,2.9-3.1l-0.6-3c-2.8,2.1-4.3,4.1-4.3,6.1c0,2.2,2.1,4,4.5,4
		c0.7,0,1.3-0.1,1.8-0.4l-1.1-5.1C192.7,69.6,191.8,70.4,191.8,71.4z M194.8,55.4c-1.2,0-2.2,2.8-2.2,5.3c0,0.5,0,1,0.1,1.4
		c2-1.8,3-3.4,3-4.9c0-0.7-0.3-1.3-0.7-1.8C195,55.4,194.9,55.4,194.8,55.4z M196.9,71.8c0-1.2-0.9-2.4-2.2-2.4c0,0-0.2,0-0.4,0
		l1.1,5C196.4,73.7,196.9,72.8,196.9,71.8z"/>
</g>
<polygon fill-rule="evenodd" clip-rule="evenodd" points="131.9,77.9 175.1,73 175.1,70.5 131.9,75.4 "/>
<polygon fill-rule="evenodd" clip-rule="evenodd" points="131.9,81.6 175.1,76.7 175.1,74.2 131.9,79.2 "/>
<polygon fill-rule="evenodd" clip-rule="evenodd" points="208,73 251.2,68 251.2,65.5 208,70.5 "/>
<polygon fill-rule="evenodd" clip-rule="evenodd" points="208,69.2 251.2,64.3 251.2,61.8 208,66.8 "/>
<rect x="265.5" y="55.6" fill-rule="evenodd" clip-rule="evenodd" width="43.2" height="2.5"/>
<rect x="265.5" y="51.9" fill-rule="evenodd" clip-rule="evenodd" width="43.2" height="2.5"/>
<g>
	<path d="M376.6,68.7c2.2-2,3.6-4.6,3.6-6.9c0-1.9-1.1-3.3-2.8-3.3c-1.2,0-2.5,1-2.5,2.1c0,0.2,0,0.2,0.1,0.2c0,0,0.4-0.5,1-0.5
		c0.7,0,1.2,0.6,1.2,1.3c0,0.9-0.6,1.7-1.6,1.7s-1.5-1-1.5-2.1c0-1.8,1.7-3.1,3.6-3.1c3.5,0,4.4,2.4,4.4,4.4c0,1.2-0.3,2.2-1.5,4
		c-1.4,2.3-4.8,4-6,4c-0.3,0-0.5-0.1-0.5-0.3C375.2,69.7,376.1,69.2,376.6,68.7z M384.1,59.2c0.4,0,0.7,0.3,0.7,0.7
		c0,0.4-0.3,0.7-0.7,0.7c-0.4,0-0.7-0.3-0.7-0.7C383.4,59.5,383.7,59.2,384.1,59.2z M384.1,62.9c0.4,0,0.7,0.3,0.7,0.7
		s-0.3,0.7-0.7,0.7c-0.4,0-0.7-0.3-0.7-0.7S383.7,62.9,384.1,62.9z"/>
</g>
<polygon fill-rule="evenodd" clip-rule="evenodd" points="323.1,63 366.4,68 366.4,65.5 323.1,60.6 "/>
<polygon fill-rule="evenodd" clip-rule="evenodd" points="323.1,59.3 366.4,64.3 366.4,61.8 323.1,56.8 "/>
<polygon fill-rule="evenodd" clip-rule="evenodd" points="386.2,68 429.3,73 429.3,70.5 386.2,65.5 "/>
<polygon fill-rule="evenodd" clip-rule="evenodd" points="386.2,71.7 429.3,76.7 429.3,74.2 386.2,69.2 "/>
<polygon fill-rule="evenodd" clip-rule="evenodd" points="450.3,53.1 493.5,58.1 493.5,55.6 450.3,50.6 "/>
<polygon fill-rule="evenodd" clip-rule="evenodd" points="450.3,49.4 493.5,54.4 493.5,51.9 450.3,46.9 "/>
<rect x="72.3" y="34.1" width="10.5" height="0.8"/>
<rect x="72.3" y="39.1" width="10.5" height="0.8"/>
<rect x="80.6" y="19.8" width="0.5" height="18.9"/>
<g>
	<path d="M74.2,40.3c0-1.8,2.5-3.5,4.5-3.5c1.3,0,2.3,0.7,2.3,1.7c0,1.7-2.5,3.5-4.6,3.5C75.2,42.1,74.2,41.4,74.2,40.3z"/>
</g>
<rect x="86.7" y="34.1" width="10.5" height="0.8"/>
<rect x="95" y="18.2" width="0.5" height="18"/>
<g>
	<path d="M88.6,37.9c0-1.8,2.5-3.5,4.5-3.5c1.3,0,2.3,0.7,2.3,1.7c0,1.7-2.5,3.5-4.6,3.5C89.6,39.6,88.6,38.9,88.6,37.9z"/>
</g>
<rect x="101.2" y="34.1" width="10.5" height="0.8"/>
<rect x="109.5" y="16.5" width="0.5" height="17.2"/>
<g>
	<path d="M103,35.4c0-1.8,2.5-3.5,4.5-3.5c1.3,0,2.3,0.7,2.3,1.7c0,1.7-2.5,3.5-4.6,3.5C104,37.1,103,36.5,103,35.4z"/>
</g>
<rect x="123.9" y="14.8" width="0.5" height="16.4"/>
<g>
	<path d="M117.4,32.9c0-1.8,2.5-3.5,4.5-3.5c1.3,0,2.3,0.7,2.3,1.7c0,1.7-2.5,3.5-4.6,3.5C118.4,34.6,117.4,34,117.4,32.9z"/>
</g>
<rect x="138.1" y="9.9" width="0.5" height="18.9"/>
<g>
	<path d="M131.7,30.4c0-1.8,2.5-3.5,4.5-3.5c1.3,0,2.3,0.7,2.3,1.7c0,1.7-2.5,3.5-4.6,3.5C132.7,32.1,131.7,31.5,131.7,30.4z"/>
</g>
<rect x="152.5" y="8.3" width="0.5" height="18"/>
<g>
	<path d="M146.1,27.9c0-1.8,2.5-3.5,4.5-3.5c1.3,0,2.3,0.7,2.3,1.7c0,1.7-2.5,3.5-4.6,3.5C147.1,29.7,146.1,29,146.1,27.9z"/>
</g>
<rect x="167" y="6.6" width="0.5" height="17.2"/>
<g>
	<path d="M160.5,25.5c0-1.8,2.5-3.5,4.5-3.5c1.3,0,2.3,0.7,2.3,1.7c0,1.7-2.5,3.5-4.6,3.5C161.5,27.2,160.5,26.5,160.5,25.5z"/>
</g>
<rect x="181.4" y="4.9" width="0.5" height="16.4"/>
<g>
	<path d="M174.9,23c0-1.8,2.5-3.5,4.5-3.5c1.3,0,2.3,0.7,2.3,1.7c0,1.7-2.5,3.5-4.6,3.5C175.9,24.7,174.9,24.1,174.9,23z"/>
</g>
<rect x="201.2" y="20.4" width="0.5" height="14"/>
<g>
	<path d="M201.3,20.5c0-1.8,2.5-3.5,4.5-3.5c1.3,0,2.3,0.7,2.3,1.7c0,1.7-2.5,3.5-4.6,3.5C202.3,22.2,201.3,21.6,201.3,20.5z"/>
</g>
<rect x="215.6" y="17.9" width="0.5" height="14.9"/>
<g>
	<path d="M215.7,18c0-1.8,2.5-3.5,4.5-3.5c1.3,0,2.3,0.7,2.3,1.7c0,1.7-2.5,3.5-4.6,3.5C216.7,19.7,215.7,19.1,215.7,18z"/>
</g>
<rect x="230.1" y="15.5" width="0.5" height="15.7"/>
<g>
	<path d="M230.1,15.5c0-1.8,2.5-3.5,4.5-3.5c1.3,0,2.3,0.7,2.3,1.7c0,1.7-2.5,3.5-4.6,3.5C231.1,17.3,230.1,16.6,230.1,15.5z"/>
</g>
<rect x="244.5" y="13" width="0.5" height="16.4"/>
<g>
	<path d="M244.5,13c0-1.8,2.5-3.5,4.5-3.5c1.3,0,2.3,0.7,2.3,1.7c0,1.7-2.5,3.5-4.6,3.5C245.5,14.8,244.5,14.1,244.5,13z"/>
</g>
<rect x="258.7" y="10.5" width="0.5" height="15.2"/>
<g>
	<path d="M258.8,10.6c0-1.8,2.5-3.5,4.5-3.5c1.3,0,2.3,0.7,2.3,1.7c0,1.7-2.5,3.5-4.6,3.5C259.8,12.3,258.8,11.7,258.8,10.6z"/>
</g>
<rect x="273.1" y="8" width="0.5" height="17.4"/>
<g>
	<path d="M273.2,8.1c0-1.8,2.5-3.5,4.5-3.5c1.3,0,2.3,0.7,2.3,1.7c0,1.7-2.5,3.5-4.6,3.5C274.2,9.8,273.2,9.2,273.2,8.1z"/>
</g>
<rect x="285.8" y="4.4" width="10.5" height="0.8"/>
<rect x="287.6" y="5.5" width="0.5" height="19.4"/>
<g>
	<path d="M287.6,5.6c0-1.8,2.5-3.5,4.5-3.5c1.3,0,2.3,0.7,2.3,1.7c0,1.7-2.5,3.5-4.6,3.5C288.6,7.3,287.6,6.7,287.6,5.6z"/>
</g>
<rect x="302" y="8" width="0.5" height="16.4"/>
<g>
	<path d="M302.1,8.1c0-1.8,2.5-3.5,4.5-3.5c1.3,0,2.3,0.7,2.3,1.7c0,1.7-2.5,3.5-4.6,3.5C303,9.8,302.1,9.2,302.1,8.1z"/>
</g>
<rect x="316.4" y="10.5" width="0.5" height="18.9"/>
<g>
	<path d="M316.5,10.6c0-1.8,2.5-3.5,4.5-3.5c1.3,0,2.3,0.7,2.3,1.7c0,1.7-2.5,3.5-4.6,3.5C317.4,12.3,316.5,11.7,316.5,10.6z"/>
</g>
<rect x="330.8" y="13" width="0.5" height="18"/>
<g>
	<path d="M330.9,13c0-1.8,2.5-3.5,4.5-3.5c1.3,0,2.3,0.7,2.3,1.7c0,1.7-2.5,3.5-4.6,3.5C331.9,14.8,330.9,14.1,330.9,13z"/>
</g>
<rect x="345.2" y="15.5" width="0.5" height="17.2"/>
<g>
	<path d="M345.3,15.5c0-1.8,2.5-3.5,4.5-3.5c1.3,0,2.3,0.7,2.3,1.7c0,1.7-2.5,3.5-4.6,3.5C346.3,17.3,345.3,16.6,345.3,15.5z"/>
</g>
<rect x="359.6" y="17.9" width="0.5" height="16.4"/>
<g>
	<path d="M359.7,18c0-1.8,2.5-3.5,4.5-3.5c1.3,0,2.3,0.7,2.3,1.7c0,1.7-2.5,3.5-4.6,3.5C360.7,19.7,359.7,19.1,359.7,18z"/>
</g>
<rect x="392.5" y="4.9" width="0.5" height="14"/>
<g>
	<path d="M386.1,20.5c0-1.8,2.5-3.5,4.5-3.5c1.3,0,2.3,0.7,2.3,1.7c0,1.7-2.5,3.5-4.6,3.5C387,22.2,386.1,21.6,386.1,20.5z"/>
</g>
<rect x="406.8" y="6.5" width="0.5" height="14.9"/>
<g>
	<path d="M400.3,23c0-1.8,2.5-3.5,4.5-3.5c1.3,0,2.3,0.7,2.3,1.7c0,1.7-2.5,3.5-4.6,3.5C401.3,24.7,400.3,24.1,400.3,23z"/>
</g>
<rect x="421.2" y="8.2" width="0.5" height="15.7"/>
<g>
	<path d="M414.8,25.5c0-1.8,2.5-3.5,4.5-3.5c1.3,0,2.3,0.7,2.3,1.7c0,1.7-2.5,3.5-4.6,3.5C415.7,27.2,414.8,26.5,414.8,25.5z"/>
</g>
<rect x="435.6" y="9.9" width="0.5" height="16.4"/>
<g>
	<path d="M429.2,27.9c0-1.8,2.5-3.5,4.5-3.5c1.3,0,2.3,0.7,2.3,1.7c0,1.7-2.5,3.5-4.6,3.5C430.1,29.7,429.2,29,429.2,27.9z"/>
</g>
<rect x="450" y="14.8" width="0.5" height="14"/>
<g>
	<path d="M443.6,30.4c0-1.8,2.5-3.5,4.5-3.5c1.3,0,2.3,0.7,2.3,1.7c0,1.7-2.5,3.5-4.6,3.5C444.6,32.1,443.6,31.5,443.6,30.4z"/>
</g>
<rect x="464.4" y="16.4" width="0.5" height="14.9"/>
<g>
	<path d="M458,32.9c0-1.8,2.5-3.5,4.5-3.5c1.3,0,2.3,0.7,2.3,1.7c0,1.7-2.5,3.5-4.6,3.5C459,34.6,458,34,458,32.9z"/>
</g>
<rect x="470.6" y="34.1" width="10.5" height="0.8"/>
<rect x="478.9" y="18.1" width="0.5" height="15.7"/>
<g>
	<path d="M472.4,35.4c0-1.8,2.5-3.5,4.5-3.5c1.3,0,2.3,0.7,2.3,1.7c0,1.7-2.5,3.5-4.6,3.5C473.4,37.1,472.4,36.5,472.4,35.4z"/>
</g>
<rect x="485" y="34.1" width="10.5" height="0.8"/>
<rect x="493.3" y="19.8" width="0.5" height="16.4"/>
<g>
	<path d="M486.8,37.9c0-1.8,2.5-3.5,4.5-3.5c1.3,0,2.3,0.7,2.3,1.7c0,1.7-2.5,3.5-4.6,3.5C487.8,39.6,486.8,38.9,486.8,37.9z"/>
</g>
<rect x="499.2" y="34.1" width="10.7" height="0.8"/>
<rect x="499.2" y="39.1" width="10.7" height="0.8"/>
<rect x="507.7" y="19.6" width="0.5" height="19.1"/>
<g>
	<path d="M505.4,36.8c1.6,0,2.7,0.7,2.7,2c0,1.9-2.3,3.4-4.5,3.4c-1.3,0-2.4-0.7-2.4-1.8C501.1,38.6,503.3,36.8,505.4,36.8z
		 M501.6,40.6c0,0.6,0.4,0.9,1.1,0.9c1.4,0,4.9-2.1,4.9-3.3c0-0.6-0.4-0.9-1.1-0.9C505.2,37.4,501.6,39.4,501.6,40.6z"/>
</g>
<rect x="80.6" y="57" width="0.5" height="16.4"/>
<g>
	<path d="M74.2,75.1c0-1.8,2.5-3.5,4.5-3.5c1.3,0,2.3,0.7,2.3,1.7c0,1.7-2.5,3.5-4.6,3.5C75.2,76.8,74.2,76.1,74.2,75.1z"/>
</g>
<rect x="95" y="55.4" width="0.5" height="15.5"/>
<g>
	<path d="M88.6,72.6c0-1.8,2.5-3.5,4.5-3.5c1.3,0,2.3,0.7,2.3,1.7c0,1.7-2.5,3.5-4.6,3.5C89.6,74.3,88.6,73.7,88.6,72.6z"/>
</g>
<rect x="109.5" y="53.7" width="0.5" height="14.7"/>
<g>
	<path d="M103,70.1c0-1.8,2.5-3.5,4.5-3.5c1.3,0,2.3,0.7,2.3,1.7c0,1.7-2.5,3.5-4.6,3.5C104,71.8,103,71.2,103,70.1z"/>
</g>
<rect x="123.9" y="52" width="0.5" height="14"/>
<g>
	<path d="M117.4,67.6c0-1.8,2.5-3.5,4.5-3.5c1.3,0,2.3,0.7,2.3,1.7c0,1.7-2.5,3.5-4.6,3.5C118.4,69.3,117.4,68.7,117.4,67.6z"/>
</g>
<rect x="131.6" y="65.1" width="0.5" height="16.4"/>
<g>
	<path d="M131.7,65.1c0-1.8,2.5-3.5,4.5-3.5c1.3,0,2.3,0.7,2.3,1.7c0,1.7-2.5,3.5-4.6,3.5C132.7,66.9,131.7,66.2,131.7,65.1z"/>
</g>
<rect x="146" y="62.6" width="0.5" height="17.4"/>
<g>
	<path d="M146.1,62.7c0-1.8,2.5-3.5,4.5-3.5c1.3,0,2.3,0.7,2.3,1.7c0,1.7-2.5,3.5-4.6,3.5C147.1,64.4,146.1,63.7,146.1,62.7z"/>
</g>
<rect x="160.5" y="60.1" width="0.5" height="18.1"/>
<g>
	<path d="M160.5,60.2c0-1.8,2.5-3.5,4.5-3.5c1.3,0,2.3,0.7,2.3,1.7c0,1.7-2.5,3.5-4.6,3.5C161.5,61.9,160.5,61.3,160.5,60.2z"/>
</g>
<rect x="174.9" y="57.6" width="0.5" height="18.9"/>
<g>
	<path d="M174.9,57.7c0-1.8,2.5-3.5,4.5-3.5c1.3,0,2.3,0.7,2.3,1.7c0,1.7-2.5,3.5-4.6,3.5C175.9,59.4,174.9,58.8,174.9,57.7z"/>
</g>
<rect x="199.4" y="81.3" width="10.5" height="0.8"/>
<rect x="207.7" y="66.9" width="0.5" height="16.4"/>
<g>
	<path d="M201.3,85c0-1.8,2.5-3.5,4.5-3.5c1.3,0,2.3,0.7,2.3,1.7c0,1.7-2.5,3.5-4.6,3.5C202.3,86.7,201.3,86.1,201.3,85z"/>
</g>
<rect x="213.9" y="81.3" width="10.5" height="0.8"/>
<rect x="222.1" y="65.4" width="0.5" height="15.5"/>
<g>
	<path d="M215.7,82.5c0-1.8,2.5-3.5,4.5-3.5c1.3,0,2.3,0.7,2.3,1.7c0,1.7-2.5,3.5-4.6,3.5C216.7,84.2,215.7,83.6,215.7,82.5z"/>
</g>
<rect x="236.6" y="63.7" width="0.5" height="14.7"/>
<g>
	<path d="M230.1,80c0-1.8,2.5-3.5,4.5-3.5c1.3,0,2.3,0.7,2.3,1.7c0,1.7-2.5,3.5-4.6,3.5C231.1,81.7,230.1,81.1,230.1,80z"/>
</g>
<rect x="251" y="62" width="0.5" height="14"/>
<g>
	<path d="M244.5,77.5c0-1.8,2.5-3.5,4.5-3.5c1.3,0,2.3,0.7,2.3,1.7c0,1.7-2.5,3.5-4.6,3.5C245.5,79.3,244.5,78.6,244.5,77.5z"/>
</g>
<rect x="265.2" y="52" width="0.5" height="21.4"/>
<g>
	<path d="M258.8,75.1c0-1.8,2.5-3.5,4.5-3.5c1.3,0,2.3,0.7,2.3,1.7c0,1.7-2.5,3.5-4.6,3.5C259.8,76.8,258.8,76.1,258.8,75.1z"/>
</g>
<rect x="279.7" y="52" width="0.5" height="18.9"/>
<g>
	<path d="M273.2,72.6c0-1.8,2.5-3.5,4.5-3.5c1.3,0,2.3,0.7,2.3,1.7c0,1.7-2.5,3.5-4.6,3.5C274.2,74.3,273.2,73.7,273.2,72.6z"/>
</g>
<rect x="294.1" y="52" width="0.5" height="16.4"/>
<g>
	<path d="M287.6,70.1c0-1.8,2.5-3.5,4.5-3.5c1.3,0,2.3,0.7,2.3,1.7c0,1.7-2.5,3.5-4.6,3.5C288.6,71.8,287.6,71.2,287.6,70.1z"/>
</g>
<rect x="308.5" y="52" width="0.5" height="18.9"/>
<g>
	<path d="M302.1,72.6c0-1.8,2.5-3.5,4.5-3.5c1.3,0,2.3,0.7,2.3,1.7c0,1.7-2.5,3.5-4.6,3.5C303,74.3,302.1,73.7,302.1,72.6z"/>
</g>
<rect x="322.9" y="57" width="0.5" height="16.4"/>
<g>
	<path d="M316.5,75.1c0-1.8,2.5-3.5,4.5-3.5c1.3,0,2.3,0.7,2.3,1.7c0,1.7-2.5,3.5-4.6,3.5C317.4,76.8,316.5,76.1,316.5,75.1z"/>
</g>
<rect x="337.3" y="58.5" width="0.5" height="17.4"/>
<g>
	<path d="M330.9,77.5c0-1.8,2.5-3.5,4.5-3.5c1.3,0,2.3,0.7,2.3,1.7c0,1.7-2.5,3.5-4.6,3.5C331.9,79.3,330.9,78.6,330.9,77.5z"/>
</g>
<rect x="351.7" y="60.2" width="0.5" height="18.1"/>
<g>
	<path d="M345.3,80c0-1.8,2.5-3.5,4.5-3.5c1.3,0,2.3,0.7,2.3,1.7c0,1.7-2.5,3.5-4.6,3.5C346.3,81.7,345.3,81.1,345.3,80z"/>
</g>
<rect x="357.9" y="81.3" width="10.5" height="0.8"/>
<rect x="366.2" y="62" width="0.5" height="18.9"/>
<g>
	<path d="M359.7,82.5c0-1.8,2.5-3.5,4.5-3.5c1.3,0,2.3,0.7,2.3,1.7c0,1.7-2.5,3.5-4.6,3.5C360.7,84.2,359.7,83.6,359.7,82.5z"/>
</g>
<rect x="386" y="55.1" width="0.5" height="16.4"/>
<g>
	<path d="M386.1,55.2c0-1.8,2.5-3.5,4.5-3.5c1.3,0,2.3,0.7,2.3,1.7c0,1.7-2.5,3.5-4.6,3.5C387,56.9,386.1,56.3,386.1,55.2z"/>
</g>
<rect x="400.3" y="57.6" width="0.5" height="15.5"/>
<g>
	<path d="M400.3,57.7c0-1.8,2.5-3.5,4.5-3.5c1.3,0,2.3,0.7,2.3,1.7c0,1.7-2.5,3.5-4.6,3.5C401.3,59.4,400.3,58.8,400.3,57.7z"/>
</g>
<rect x="414.7" y="60.1" width="0.5" height="14.7"/>
<g>
	<path d="M414.8,60.2c0-1.8,2.5-3.5,4.5-3.5c1.3,0,2.3,0.7,2.3,1.7c0,1.7-2.5,3.5-4.6,3.5C415.7,61.9,414.8,61.3,414.8,60.2z"/>
</g>
<rect x="429.1" y="62.6" width="0.5" height="14"/>
<g>
	<path d="M429.2,62.7c0-1.8,2.5-3.5,4.5-3.5c1.3,0,2.3,0.7,2.3,1.7c0,1.7-2.5,3.5-4.6,3.5C430.1,64.4,429.2,63.7,429.2,62.7z"/>
</g>
<rect x="450" y="47.1" width="0.5" height="16.4"/>
<g>
	<path d="M443.6,65.1c0-1.8,2.5-3.5,4.5-3.5c1.3,0,2.3,0.7,2.3,1.7c0,1.7-2.5,3.5-4.6,3.5C444.6,66.9,443.6,66.2,443.6,65.1z"/>
</g>
<rect x="464.4" y="48.6" width="0.5" height="17.4"/>
<g>
	<path d="M458,67.6c0-1.8,2.5-3.5,4.5-3.5c1.3,0,2.3,0.7,2.3,1.7c0,1.7-2.5,3.5-4.6,3.5C459,69.3,458,68.7,458,67.6z"/>
</g>
<rect x="478.9" y="50.3" width="0.5" height="18.1"/>
<g>
	<path d="M472.4,70.1c0-1.8,2.5-3.5,4.5-3.5c1.3,0,2.3,0.7,2.3,1.7c0,1.7-2.5,3.5-4.6,3.5C473.4,71.8,472.4,71.2,472.4,70.1z"/>
</g>
<rect x="493.3" y="52" width="0.5" height="18.9"/>
<g>
	<path d="M486.8,72.6c0-1.8,2.5-3.5,4.5-3.5c1.3,0,2.3,0.7,2.3,1.7c0,1.7-2.5,3.5-4.6,3.5C487.8,74.3,486.8,73.7,486.8,72.6z"/>
</g>
<rect x="507.7" y="56.8" width="0.5" height="16.6"/>
<g>
	<path d="M505.4,71.5c1.6,0,2.7,0.7,2.7,2c0,1.9-2.3,3.4-4.5,3.4c-1.3,0-2.4-0.7-2.4-1.8C501.1,73.3,503.3,71.5,505.4,71.5z
		 M501.6,75.4c0,0.6,0.4,0.9,1.1,0.9c1.4,0,4.9-2.1,4.9-3.3c0-0.6-0.4-0.9-1.1-0.9C505.2,72.1,501.6,74.1,501.6,75.4z"/>
</g>
</svg>
