<?xml version="1.0" encoding="utf-8"?>

<!--
	ScaleBook
	Copyright (c) Leland Jansen 2015. All rights reserved.
-->

<!DOCTYPE svg PUBLIC "-//W3C//DTD SVG 1.1//EN" "http://www.w3.org/Graphics/SVG/1.1/DTD/svg11.dtd">
<svg version="1.1" id="Layer_1" xmlns="http://www.w3.org/2000/svg" xmlns:xlink="http://www.w3.org/1999/xlink" x="0px" y="0px"
	 viewBox="0 0 552.9 89.4" enable-background="new 0 0 552.9 89.4" xml:space="preserve">
<rect x="8.4" y="15" width="0.8" height="67"/>
<g>
	<path d="M7.4,15.7c-1.9,1.1-3.6,5.8-3.6,9.4c0,2.3,1.4,9.9,1.4,12.3c0,5-1.5,8.6-4.6,11.1c3,2.4,4.6,6.1,4.6,11.1
		c0,2.3-1.4,9.9-1.4,12.3c0,3.8,1.7,8.4,3.6,9.5V82c-3.5-2.3-5.8-8.2-5.8-13.1c0-2.1,1.7-9.4,1.7-11.5c0-3.8-1-6.6-2.9-8.2
		C0.1,48.9,0,48.7,0,48.5c0-0.2,0.1-0.4,0.5-0.7c1.9-1.7,2.9-4.2,2.9-7.6c0-2.1-1.7-10-1.7-12.2c0-5.2,2.1-10.4,5.8-13.1V15.7z"/>
</g>
<rect x="547.8" y="15" width="0.8" height="67"/>
<rect x="550.4" y="15" width="2.5" height="67"/>
<rect x="8.5" y="34.6" width="544.4" height="0.5"/>
<rect x="8.5" y="29.6" width="544.4" height="0.5"/>
<rect x="8.5" y="24.7" width="544.4" height="0.5"/>
<rect x="8.5" y="19.7" width="544.4" height="0.5"/>
<rect x="8.5" y="14.8" width="544.4" height="0.5"/>
<g>
	<path d="M20.3,34.7c-4.2,0-8.1-3.1-8.1-6.9c0-3.2,2.3-6.7,6.8-10.5c-0.3-1.2-0.4-2.4-0.4-3.6c0-3.5,1.2-6.8,3.2-8.5
		c1.8,2.5,2.7,4.9,2.7,7.1c0,2.9-1.3,5.6-4.3,8.1l0.9,4.2c0.5,0,0.8-0.1,0.8-0.1c2.6,0,4.8,2,4.8,4.7c0,1.9-1.4,3.7-3.6,4.8
		c0-0.1,0.9,3.8,0.9,4.3c0,2.5-2.3,4.2-4.9,4.2c-2,0-3.6-1.3-3.6-3.4c0-1.4,1-2.6,2.4-2.6c1.3,0,2.3,1.3,2.3,2.5
		c0,1.4-1.2,2.3-2.7,2.5c0.6,0.3,1.2,0.5,1.9,0.5c2.1,0,4.1-1.6,4.1-3.6c0-0.2,0-0.4-0.1-0.6l-0.8-3.7
		C21.9,34.5,21.2,34.7,20.3,34.7z M18.1,29.5c0,1,0.5,1.9,1.6,2.5c-1.8-0.3-3-1.4-3-3.1c0-2,1.7-3.7,3.8-4.1l-0.8-4
		C16,23.6,14,26.3,14,28.9c0,2.9,2.8,5.3,6,5.3c0.9,0,1.7-0.2,2.4-0.5L21,26.9C19.4,27.1,18.1,28.1,18.1,29.5z M22.1,8.1
		c-1.6,0-2.9,3.7-2.9,7c0,0.7,0,1.3,0.2,1.9c2.7-2.4,4-4.5,4-6.5c0-0.9-0.3-1.7-1-2.4C22.4,8.1,22.3,8.1,22.1,8.1z M24.9,30
		c0-1.6-1.2-3.3-2.9-3.3c-0.1,0-0.2,0-0.5,0l1.4,6.6C24.2,32.5,24.9,31.3,24.9,30z"/>
</g>
<g>
	<path d="M33.5,8.2V11l1-0.3v1.8l-1,0.3v3.4l1-0.3v1.8l-1,0.3v3.1H33v-3l-1.9,0.6v3h-0.5V19l-1,0.3v-1.8l1-0.3v-3.4l-1,0.3v-1.8
		l1-0.3V8.8h0.5v3l1.9-0.6v-3H33.5z M33,13l-1.9,0.6V17l1.9-0.6V13z"/>
</g>
<g>
	<path d="M39.7,15.6v2.8l1-0.3v1.8l-1,0.3v3.4l1-0.3v1.8l-1,0.3v3.1h-0.5v-3l-1.9,0.6v3h-0.5v-2.8l-1,0.3v-1.8l1-0.3v-3.4l-1,0.3
		v-1.8l1-0.3v-3.1h0.5v3l1.9-0.6v-3H39.7z M39.2,20.4L37.3,21v3.4l1.9-0.6V20.4z"/>
</g>
<g>
	<path d="M45.9,5.7v2.8l1-0.3V10l-1,0.3v3.4l1-0.3v1.8l-1,0.3v3.1h-0.5v-3l-1.9,0.6v3H43v-2.8l-1,0.3V15l1-0.3v-3.4l-1,0.3V9.8
		l1-0.3V6.3h0.5v3l1.9-0.6v-3H45.9z M45.4,10.5l-1.9,0.6v3.4l1.9-0.6V10.5z"/>
</g>
<g>
	<path d="M52.1,13.1V16l1-0.3v1.8l-1,0.3v3.4l1-0.3v1.8l-1,0.3v3.1h-0.5v-3l-1.9,0.6v3h-0.5v-2.8l-1,0.3v-1.8l1-0.3v-3.4l-1,0.3
		v-1.8l1-0.3v-3.1h0.5v3l1.9-0.6v-3H52.1z M51.6,17.9l-1.9,0.6V22l1.9-0.6V17.9z"/>
</g>
<g>
	<path d="M58.3,20.6v2.8l1-0.3v1.8l-1,0.3v3.4l1-0.3v1.8l-1,0.3v3.1h-0.5v-3l-1.9,0.6v3h-0.5v-2.8l-1,0.3v-1.8l1-0.3v-3.4l-1,0.3
		v-1.8l1-0.3v-3.1h0.5v3l1.9-0.6v-3H58.3z M57.8,25.4L55.9,26v3.4l1.9-0.6V25.4z"/>
</g>
<polygon fill-rule="evenodd" clip-rule="evenodd" points="74.7,26.2 118.2,21.2 118.2,18.7 74.7,23.7 "/>
<polygon fill-rule="evenodd" clip-rule="evenodd" points="74.7,22.4 118.2,17.5 118.2,15 74.7,20 "/>
<polygon fill-rule="evenodd" clip-rule="evenodd" points="126.3,41 170,36.1 170,33.6 126.3,38.6 "/>
<polygon fill-rule="evenodd" clip-rule="evenodd" points="126.3,44.8 170,39.8 170,37.3 126.3,42.3 "/>
<polygon fill-rule="evenodd" clip-rule="evenodd" points="198.2,31.1 241.8,26.2 241.8,23.7 198.2,28.6 "/>
<polygon fill-rule="evenodd" clip-rule="evenodd" points="198.2,34.8 241.8,29.9 241.8,27.4 198.2,32.4 "/>
<polygon fill-rule="evenodd" clip-rule="evenodd" points="256.3,22.4 300,21.2 300,18.7 256.3,20 "/>
<polygon fill-rule="evenodd" clip-rule="evenodd" points="256.3,26.2 300,24.9 300,22.4 256.3,23.7 "/>
<polygon fill-rule="evenodd" clip-rule="evenodd" points="314.5,21.2 358.2,26.2 358.2,23.7 314.5,18.7 "/>
<polygon fill-rule="evenodd" clip-rule="evenodd" points="314.5,24.9 358.2,29.9 358.2,27.4 314.5,22.4 "/>
<polygon fill-rule="evenodd" clip-rule="evenodd" points="384.5,31.1 428.1,36.1 428.1,33.6 384.5,28.6 "/>
<polygon fill-rule="evenodd" clip-rule="evenodd" points="384.5,34.8 428.1,39.8 428.1,37.3 384.5,32.4 "/>
<polygon fill-rule="evenodd" clip-rule="evenodd" points="449.2,16.2 492.9,21.2 492.9,18.7 449.2,13.8 "/>
<polygon fill-rule="evenodd" clip-rule="evenodd" points="449.2,12.5 492.9,17.5 492.9,15 449.2,10 "/>
<rect x="8.5" y="81.7" width="544.4" height="0.5"/>
<rect x="8.5" y="76.8" width="544.4" height="0.5"/>
<rect x="8.5" y="71.8" width="544.4" height="0.5"/>
<rect x="8.5" y="66.9" width="544.4" height="0.5"/>
<rect x="8.5" y="61.9" width="544.4" height="0.5"/>
<g>
	<path d="M15.7,76.3c2.9-2.6,4.7-6.1,4.7-9.2c0-2.5-1.4-4.4-3.7-4.4c-1.6,0-3.4,1.3-3.4,2.7c0,0.2,0,0.3,0.1,0.3
		c-0.1,0,0.6-0.6,1.4-0.6c0.9,0,1.5,0.8,1.5,1.7c0,1.2-0.9,2.2-2.1,2.2c-1.2,0-2.1-1.3-2.1-2.8c0-2.3,2.3-4.1,4.8-4.1
		c4.7,0,5.9,3.2,5.9,5.8c0,1.6-0.4,2.9-2,5.3c-1.9,3.1-6.4,5.3-8.1,5.3c-0.4,0-0.6-0.2-0.6-0.5C13.8,77.6,14.9,77,15.7,76.3z
		 M25.7,63.6c0.6,0,1,0.4,1,1c0,0.6-0.4,1-1,1s-1-0.4-1-1C24.7,64,25.1,63.6,25.7,63.6z M25.7,68.6c0.6,0,1,0.4,1,1c0,0.6-0.4,1-1,1
		s-1-0.4-1-1C24.7,69,25.1,68.6,25.7,68.6z"/>
</g>
<g>
	<path d="M33.5,60.3v2.8l1-0.3v1.8l-1,0.3v3.4l1-0.3v1.8l-1,0.3v3.1H33v-3l-1.9,0.6v3h-0.5V71l-1,0.3v-1.8l1-0.3v-3.4l-1,0.3v-1.8
		l1-0.3v-3.1h0.5v3l1.9-0.6v-3H33.5z M33,65l-1.9,0.6v3.4l1.9-0.6V65z"/>
</g>
<g>
	<path d="M39.7,67.7v2.8l1-0.3V72l-1,0.3v3.4l1-0.3v1.8l-1,0.3v3.1h-0.5v-3l-1.9,0.6v3h-0.5v-2.8l-1,0.3V77l1-0.3v-3.4l-1,0.3v-1.8
		l1-0.3v-3.1h0.5v3l1.9-0.6v-3H39.7z M39.2,72.5l-1.9,0.6v3.4l1.9-0.6V72.5z"/>
</g>
<g>
	<path d="M45.9,57.8v2.8l1-0.3v1.8l-1,0.3v3.4l1-0.3v1.8l-1,0.3v3.1h-0.5v-3l-1.9,0.6v3H43v-2.8l-1,0.3v-1.8l1-0.3v-3.4l-1,0.3v-1.8
		l1-0.3v-3.1h0.5v3l1.9-0.6v-3H45.9z M45.4,62.6l-1.9,0.6v3.4l1.9-0.6V62.6z"/>
</g>
<g>
	<path d="M52.1,65.2v2.8l1-0.3v1.8l-1,0.3v3.4l1-0.3v1.8l-1,0.3v3.1h-0.5v-3l-1.9,0.6v3h-0.5V76l-1,0.3v-1.8l1-0.3v-3.4l-1,0.3v-1.8
		l1-0.3v-3.1h0.5v3l1.9-0.6v-3H52.1z M51.6,70l-1.9,0.6v3.4l1.9-0.6V70z"/>
</g>
<g>
	<path d="M58.3,72.7v2.8l1-0.3V77l-1,0.3v3.4l1-0.3v1.8l-1,0.3v3.1h-0.5v-3l-1.9,0.6v3h-0.5v-2.8l-1,0.3V82l1-0.3v-3.4l-1,0.3v-1.8
		l1-0.3v-3.1h0.5v3l1.9-0.6v-3H58.3z M57.8,77.4l-1.9,0.6v3.4l1.9-0.6V77.4z"/>
</g>
<polygon fill-rule="evenodd" clip-rule="evenodd" points="68.1,83.2 111.7,78.2 111.7,75.8 68.1,80.7 "/>
<polygon fill-rule="evenodd" clip-rule="evenodd" points="68.1,86.9 111.7,82 111.7,79.5 68.1,84.4 "/>
<g>
	<path d="M190.2,80.6c-3.2,0-6.1-2.3-6.1-5.1c0-2.4,1.7-5,5.1-7.9c-0.2-0.9-0.3-1.8-0.3-2.7c0-2.6,0.9-5.1,2.4-6.3
		c1.4,1.9,2,3.7,2,5.3c0,2.2-1,4.2-3.2,6.1l0.7,3.1c0.4,0,0.6,0,0.6,0c2,0,3.6,1.5,3.6,3.5c0,1.4-1.1,2.8-2.7,3.6
		c0-0.1,0.6,2.8,0.6,3.3c0,1.9-1.7,3.2-3.7,3.2c-1.5,0-2.7-1-2.7-2.5c0-1.1,0.7-1.9,1.8-1.9c1,0,1.7,1,1.7,1.9c0,1-0.9,1.7-2,1.8
		c0.4,0.2,0.9,0.3,1.4,0.3c1.6,0,3.1-1.2,3.1-2.7c0-0.1,0-0.3,0-0.5l-0.6-2.8C191.4,80.5,190.9,80.6,190.2,80.6z M188.5,76.7
		c0,0.8,0.4,1.4,1.2,1.9c-1.3-0.2-2.2-1.1-2.2-2.3c0-1.5,1.3-2.8,2.9-3.1l-0.6-3c-2.8,2.1-4.3,4.1-4.3,6.1c0,2.2,2.1,4,4.5,4
		c0.7,0,1.3-0.1,1.8-0.4l-1.1-5.1C189.5,74.9,188.5,75.7,188.5,76.7z M191.6,60.7c-1.2,0-2.2,2.8-2.2,5.3c0,0.5,0,1,0.1,1.4
		c2-1.8,3-3.4,3-4.9c0-0.7-0.3-1.3-0.7-1.8C191.8,60.7,191.7,60.7,191.6,60.7z M193.6,77.1c0-1.2-0.9-2.4-2.2-2.4c0,0-0.2,0-0.4,0
		l1.1,5C193.1,78.9,193.6,78.1,193.6,77.1z"/>
</g>
<polygon fill-rule="evenodd" clip-rule="evenodd" points="126.3,73.3 170,68.3 170,65.8 126.3,70.8 "/>
<polygon fill-rule="evenodd" clip-rule="evenodd" points="126.3,77 170,72 170,69.6 126.3,74.5 "/>
<polygon fill-rule="evenodd" clip-rule="evenodd" points="204.7,68.3 248.3,63.4 248.3,60.9 204.7,65.8 "/>
<polygon fill-rule="evenodd" clip-rule="evenodd" points="204.7,64.6 248.3,59.6 248.3,57.2 204.7,62.1 "/>
<polygon fill-rule="evenodd" clip-rule="evenodd" points="256.3,84.4 300,83.2 300,80.7 256.3,82 "/>
<polygon fill-rule="evenodd" clip-rule="evenodd" points="256.3,88.2 300,86.9 300,84.4 256.3,85.7 "/>
<g>
	<path d="M373.1,74c2.2-2,3.6-4.6,3.6-6.9c0-1.9-1.1-3.3-2.8-3.3c-1.2,0-2.5,1-2.5,2.1c0,0.2,0,0.2,0.1,0.2c0,0,0.4-0.5,1-0.5
		c0.7,0,1.2,0.6,1.2,1.3c0,0.9-0.6,1.7-1.6,1.7s-1.5-1-1.5-2.1c0-1.8,1.7-3.1,3.6-3.1c3.5,0,4.4,2.4,4.4,4.4c0,1.2-0.3,2.2-1.5,4
		c-1.4,2.3-4.8,4-6,4c-0.3,0-0.5-0.1-0.5-0.3C371.6,75,372.5,74.5,373.1,74z M380.5,64.5c0.4,0,0.7,0.3,0.7,0.7
		c0,0.4-0.3,0.7-0.7,0.7c-0.4,0-0.7-0.3-0.7-0.7C379.8,64.8,380.1,64.5,380.5,64.5z M380.5,68.2c0.4,0,0.7,0.3,0.7,0.7
		s-0.3,0.7-0.7,0.7c-0.4,0-0.7-0.3-0.7-0.7S380.1,68.2,380.5,68.2z"/>
</g>
<polygon fill-rule="evenodd" clip-rule="evenodd" points="321,63.4 364.7,68.3 364.7,65.8 321,60.9 "/>
<polygon fill-rule="evenodd" clip-rule="evenodd" points="321,59.6 364.7,64.6 364.7,62.1 321,57.2 "/>
<polygon fill-rule="evenodd" clip-rule="evenodd" points="384.5,68.3 428.1,73.3 428.1,70.8 384.5,65.8 "/>
<polygon fill-rule="evenodd" clip-rule="evenodd" points="384.5,72 428.1,77 428.1,74.5 384.5,69.6 "/>
<polygon fill-rule="evenodd" clip-rule="evenodd" points="442.7,78.2 486.4,83.2 486.4,80.7 442.7,75.8 "/>
<polygon fill-rule="evenodd" clip-rule="evenodd" points="442.7,82 486.4,86.9 486.4,84.4 442.7,79.5 "/>
<rect x="74.4" y="20.1" width="0.5" height="16.4"/>
<g>
	<path d="M68,38.2c0-1.8,2.5-3.5,4.5-3.5c1.3,0,2.3,0.7,2.3,1.7c0,1.7-2.5,3.5-4.6,3.5C69,39.9,68,39.3,68,38.2z"/>
</g>
<rect x="89" y="18.6" width="0.5" height="15.5"/>
<g>
	<path d="M82.6,35.7c0-1.8,2.5-3.5,4.5-3.5c1.3,0,2.3,0.7,2.3,1.7c0,1.7-2.5,3.5-4.6,3.5C83.5,37.4,82.6,36.8,82.6,35.7z"/>
</g>
<rect x="103.6" y="16.9" width="0.5" height="14.7"/>
<g>
	<path d="M97.1,33.2c0-1.8,2.5-3.5,4.5-3.5c1.3,0,2.3,0.7,2.3,1.7c0,1.7-2.5,3.5-4.6,3.5C98.1,34.9,97.1,34.3,97.1,33.2z"/>
</g>
<rect x="118" y="15.2" width="0.5" height="14"/>
<g>
	<path d="M111.5,30.7c0-1.8,2.5-3.5,4.5-3.5c1.3,0,2.3,0.7,2.3,1.7c0,1.7-2.5,3.5-4.6,3.5C112.5,32.5,111.5,31.8,111.5,30.7z"/>
</g>
<rect x="126" y="28.2" width="0.5" height="16.4"/>
<g>
	<path d="M126.1,28.3c0-1.8,2.5-3.5,4.5-3.5c1.3,0,2.3,0.7,2.3,1.7c0,1.7-2.5,3.5-4.6,3.5C127.1,30,126.1,29.3,126.1,28.3z"/>
</g>
<rect x="140.6" y="25.7" width="0.5" height="17.4"/>
<g>
	<path d="M140.7,25.8c0-1.8,2.5-3.5,4.5-3.5c1.3,0,2.3,0.7,2.3,1.7c0,1.7-2.5,3.5-4.6,3.5C141.7,27.5,140.7,26.9,140.7,25.8z"/>
</g>
<rect x="155.2" y="23.2" width="0.5" height="18.1"/>
<g>
	<path d="M155.3,23.3c0-1.8,2.5-3.5,4.5-3.5c1.3,0,2.3,0.7,2.3,1.7c0,1.7-2.5,3.5-4.6,3.5C156.2,25,155.3,24.4,155.3,23.3z"/>
</g>
<rect x="169.8" y="20.7" width="0.5" height="18.9"/>
<g>
	<path d="M169.8,20.8c0-1.8,2.5-3.5,4.5-3.5c1.3,0,2.3,0.7,2.3,1.7c0,1.7-2.5,3.5-4.6,3.5C170.8,22.5,169.8,21.9,169.8,20.8z"/>
</g>
<rect x="198" y="18.3" width="0.5" height="16.4"/>
<g>
	<path d="M198,18.3c0-1.8,2.5-3.5,4.5-3.5c1.3,0,2.3,0.7,2.3,1.7c0,1.7-2.5,3.5-4.6,3.5C199,20.1,198,19.4,198,18.3z"/>
</g>
<rect x="212.5" y="15.8" width="0.5" height="17.4"/>
<g>
	<path d="M212.6,15.9c0-1.8,2.5-3.5,4.5-3.5c1.3,0,2.3,0.7,2.3,1.7c0,1.7-2.5,3.5-4.6,3.5C213.6,17.6,212.6,16.9,212.6,15.9z"/>
</g>
<rect x="227" y="13.3" width="0.5" height="18.1"/>
<g>
	<path d="M227,13.4c0-1.8,2.5-3.5,4.5-3.5c1.3,0,2.3,0.7,2.3,1.7c0,1.7-2.5,3.5-4.6,3.5C228,15.1,227,14.5,227,13.4z"/>
</g>
<rect x="239.7" y="9.7" width="10.5" height="0.8"/>
<rect x="241.5" y="10.8" width="0.5" height="18.9"/>
<g>
	<path d="M241.6,10.9c0-1.8,2.5-3.5,4.5-3.5c1.3,0,2.3,0.7,2.3,1.7c0,1.7-2.5,3.5-4.6,3.5C242.6,12.6,241.6,12,241.6,10.9z"/>
</g>
<rect x="254.3" y="9.7" width="10.5" height="0.8"/>
<rect x="256.1" y="8.3" width="0.5" height="17.7"/>
<g>
	<path d="M256.2,8.4c0-1.8,2.5-3.5,4.5-3.5c1.3,0,2.3,0.7,2.3,1.7c0,1.7-2.5,3.5-4.6,3.5C257.1,10.1,256.2,9.5,256.2,8.4z"/>
</g>
<rect x="268.9" y="9.7" width="10.5" height="0.8"/>
<rect x="268.9" y="4.7" width="10.5" height="0.8"/>
<rect x="270.7" y="5.9" width="0.5" height="19.8"/>
<g>
	<path d="M270.7,5.9c0-1.8,2.5-3.5,4.5-3.5c1.3,0,2.3,0.7,2.3,1.7c0,1.7-2.5,3.5-4.6,3.5C271.7,7.7,270.7,7,270.7,5.9z"/>
</g>
<rect x="283.5" y="9.7" width="10.5" height="0.8"/>
<rect x="283.5" y="4.7" width="10.5" height="0.8"/>
<rect x="285.2" y="3.4" width="0.5" height="21.9"/>
<g>
	<path d="M285.3,3.5c0-1.8,2.5-3.5,4.5-3.5c1.3,0,2.3,0.7,2.3,1.7c0,1.7-2.5,3.5-4.6,3.5C286.3,5.2,285.3,4.5,285.3,3.5z"/>
</g>
<rect x="298" y="9.7" width="10.5" height="0.8"/>
<rect x="298" y="4.7" width="10.5" height="0.8"/>
<rect x="299.8" y="5.9" width="0.5" height="18.9"/>
<g>
	<path d="M299.9,5.9c0-1.8,2.5-3.5,4.5-3.5c1.3,0,2.3,0.7,2.3,1.7c0,1.7-2.5,3.5-4.6,3.5C300.9,7.7,299.9,7,299.9,5.9z"/>
</g>
<rect x="312.4" y="9.7" width="10.5" height="0.8"/>
<rect x="314.2" y="8.3" width="0.5" height="16.4"/>
<g>
	<path d="M314.3,8.4c0-1.8,2.5-3.5,4.5-3.5c1.3,0,2.3,0.7,2.3,1.7c0,1.7-2.5,3.5-4.6,3.5C315.3,10.1,314.3,9.5,314.3,8.4z"/>
</g>
<rect x="327" y="9.7" width="10.5" height="0.8"/>
<rect x="328.8" y="10.8" width="0.5" height="15.5"/>
<g>
	<path d="M328.9,10.9c0-1.8,2.5-3.5,4.5-3.5c1.3,0,2.3,0.7,2.3,1.7c0,1.7-2.5,3.5-4.6,3.5C329.8,12.6,328.9,12,328.9,10.9z"/>
</g>
<rect x="343.4" y="13.3" width="0.5" height="14.7"/>
<g>
	<path d="M343.4,13.4c0-1.8,2.5-3.5,4.5-3.5c1.3,0,2.3,0.7,2.3,1.7c0,1.7-2.5,3.5-4.6,3.5C344.4,15.1,343.4,14.5,343.4,13.4z"/>
</g>
<rect x="357.9" y="15.8" width="0.5" height="14"/>
<g>
	<path d="M358,15.9c0-1.8,2.5-3.5,4.5-3.5c1.3,0,2.3,0.7,2.3,1.7c0,1.7-2.5,3.5-4.6,3.5C359,17.6,358,16.9,358,15.9z"/>
</g>
<rect x="384.3" y="18.3" width="0.5" height="16.4"/>
<g>
	<path d="M384.4,18.3c0-1.8,2.5-3.5,4.5-3.5c1.3,0,2.3,0.7,2.3,1.7c0,1.7-2.5,3.5-4.6,3.5C385.3,20.1,384.4,19.4,384.4,18.3z"/>
</g>
<rect x="398.9" y="20.7" width="0.5" height="15.5"/>
<g>
	<path d="M398.9,20.8c0-1.8,2.5-3.5,4.5-3.5c1.3,0,2.3,0.7,2.3,1.7c0,1.7-2.5,3.5-4.6,3.5C399.9,22.5,398.9,21.9,398.9,20.8z"/>
</g>
<rect x="413.4" y="23.2" width="0.5" height="14.7"/>
<g>
	<path d="M413.5,23.3c0-1.8,2.5-3.5,4.5-3.5c1.3,0,2.3,0.7,2.3,1.7c0,1.7-2.5,3.5-4.6,3.5C414.5,25,413.5,24.4,413.5,23.3z"/>
</g>
<rect x="427.9" y="25.7" width="0.5" height="14"/>
<g>
	<path d="M427.9,25.8c0-1.8,2.5-3.5,4.5-3.5c1.3,0,2.3,0.7,2.3,1.7c0,1.7-2.5,3.5-4.6,3.5C428.9,27.5,427.9,26.9,427.9,25.8z"/>
</g>
<rect x="448.9" y="10.2" width="0.5" height="16.4"/>
<g>
	<path d="M442.5,28.3c0-1.8,2.5-3.5,4.5-3.5c1.3,0,2.3,0.7,2.3,1.7c0,1.7-2.5,3.5-4.6,3.5C443.5,30,442.5,29.3,442.5,28.3z"/>
</g>
<rect x="463.5" y="11.7" width="0.5" height="17.4"/>
<g>
	<path d="M457.1,30.7c0-1.8,2.5-3.5,4.5-3.5c1.3,0,2.3,0.7,2.3,1.7c0,1.7-2.5,3.5-4.6,3.5C458,32.5,457.1,31.8,457.1,30.7z"/>
</g>
<rect x="478.1" y="13.4" width="0.5" height="18.1"/>
<g>
	<path d="M471.6,33.2c0-1.8,2.5-3.5,4.5-3.5c1.3,0,2.3,0.7,2.3,1.7c0,1.7-2.5,3.5-4.6,3.5C472.6,34.9,471.6,34.3,471.6,33.2z"/>
</g>
<rect x="492.6" y="15.2" width="0.5" height="18.9"/>
<g>
	<path d="M486.2,35.7c0-1.8,2.5-3.5,4.5-3.5c1.3,0,2.3,0.7,2.3,1.7c0,1.7-2.5,3.5-4.6,3.5C487.2,37.4,486.2,36.8,486.2,35.7z"/>
</g>
<rect x="507.2" y="20" width="0.5" height="16.6"/>
<g>
	<path d="M504.9,34.6c1.6,0,2.7,0.7,2.7,2c0,1.9-2.3,3.4-4.5,3.4c-1.3,0-2.4-0.7-2.4-1.8C500.6,36.4,502.9,34.6,504.9,34.6z
		 M501.1,38.5c0,0.6,0.4,0.9,1.1,0.9c1.4,0,4.9-2.1,4.9-3.3c0-0.6-0.4-0.9-1.1-0.9C504.8,35.2,501.1,37.2,501.1,38.5z"/>
</g>
<rect x="67.9" y="72.8" width="0.5" height="14"/>
<g>
	<path d="M68,72.9c0-1.8,2.5-3.5,4.5-3.5c1.3,0,2.3,0.7,2.3,1.7c0,1.7-2.5,3.5-4.6,3.5C69,74.6,68,74,68,72.9z"/>
</g>
<rect x="82.5" y="70.3" width="0.5" height="14.9"/>
<g>
	<path d="M82.6,70.4c0-1.8,2.5-3.5,4.5-3.5c1.3,0,2.3,0.7,2.3,1.7c0,1.7-2.5,3.5-4.6,3.5C83.5,72.1,82.6,71.5,82.6,70.4z"/>
</g>
<rect x="97.1" y="67.9" width="0.5" height="15.7"/>
<g>
	<path d="M97.1,67.9c0-1.8,2.5-3.5,4.5-3.5c1.3,0,2.3,0.7,2.3,1.7c0,1.7-2.5,3.5-4.6,3.5C98.1,69.7,97.1,69,97.1,67.9z"/>
</g>
<rect x="111.5" y="65.4" width="0.5" height="16.4"/>
<g>
	<path d="M111.5,65.5c0-1.8,2.5-3.5,4.5-3.5c1.3,0,2.3,0.7,2.3,1.7c0,1.7-2.5,3.5-4.6,3.5C112.5,67.2,111.5,66.5,111.5,65.5z"/>
</g>
<rect x="126" y="62.9" width="0.5" height="14"/>
<g>
	<path d="M126.1,63c0-1.8,2.5-3.5,4.5-3.5c1.3,0,2.3,0.7,2.3,1.7c0,1.7-2.5,3.5-4.6,3.5C127.1,64.7,126.1,64.1,126.1,63z"/>
</g>
<rect x="140.6" y="60.4" width="0.5" height="14.9"/>
<g>
	<path d="M140.7,60.5c0-1.8,2.5-3.5,4.5-3.5c1.3,0,2.3,0.7,2.3,1.7c0,1.7-2.5,3.5-4.6,3.5C141.7,62.2,140.7,61.6,140.7,60.5z"/>
</g>
<rect x="153.4" y="56.8" width="10.5" height="0.8"/>
<rect x="155.2" y="57.9" width="0.5" height="15.7"/>
<g>
	<path d="M155.3,58c0-1.8,2.5-3.5,4.5-3.5c1.3,0,2.3,0.7,2.3,1.7c0,1.7-2.5,3.5-4.6,3.5C156.2,59.7,155.3,59.1,155.3,58z"/>
</g>
<rect x="168" y="56.8" width="10.5" height="0.8"/>
<rect x="169.8" y="55.5" width="0.5" height="16.4"/>
<g>
	<path d="M169.8,55.5c0-1.8,2.5-3.5,4.5-3.5c1.3,0,2.3,0.7,2.3,1.7c0,1.7-2.5,3.5-4.6,3.5C170.8,57.3,169.8,56.6,169.8,55.5z"/>
</g>
<rect x="204.5" y="62.3" width="0.5" height="18.9"/>
<g>
	<path d="M198,82.8c0-1.8,2.5-3.5,4.5-3.5c1.3,0,2.3,0.7,2.3,1.7c0,1.7-2.5,3.5-4.6,3.5C199,84.5,198,83.9,198,82.8z"/>
</g>
<rect x="219" y="60.7" width="0.5" height="18"/>
<g>
	<path d="M212.6,80.3c0-1.8,2.5-3.5,4.5-3.5c1.3,0,2.3,0.7,2.3,1.7c0,1.7-2.5,3.5-4.6,3.5C213.6,82.1,212.6,81.4,212.6,80.3z"/>
</g>
<rect x="233.5" y="59" width="0.5" height="17.2"/>
<g>
	<path d="M227,77.9c0-1.8,2.5-3.5,4.5-3.5c1.3,0,2.3,0.7,2.3,1.7c0,1.7-2.5,3.5-4.6,3.5C228,79.6,227,78.9,227,77.9z"/>
</g>
<rect x="248" y="57.3" width="0.5" height="16.4"/>
<g>
	<path d="M241.6,75.4c0-1.8,2.5-3.5,4.5-3.5c1.3,0,2.3,0.7,2.3,1.7c0,1.7-2.5,3.5-4.6,3.5C242.6,77.1,241.6,76.5,241.6,75.4z"/>
</g>
<rect x="256.1" y="72.8" width="0.5" height="15.2"/>
<g>
	<path d="M256.2,72.9c0-1.8,2.5-3.5,4.5-3.5c1.3,0,2.3,0.7,2.3,1.7c0,1.7-2.5,3.5-4.6,3.5C257.1,74.6,256.2,74,256.2,72.9z"/>
</g>
<rect x="270.7" y="70.3" width="0.5" height="17.4"/>
<g>
	<path d="M270.7,70.4c0-1.8,2.5-3.5,4.5-3.5c1.3,0,2.3,0.7,2.3,1.7c0,1.7-2.5,3.5-4.6,3.5C271.7,72.1,270.7,71.5,270.7,70.4z"/>
</g>
<rect x="285.2" y="67.9" width="0.5" height="19.4"/>
<g>
	<path d="M285.3,67.9c0-1.8,2.5-3.5,4.5-3.5c1.3,0,2.3,0.7,2.3,1.7c0,1.7-2.5,3.5-4.6,3.5C286.3,69.7,285.3,69,285.3,67.9z"/>
</g>
<rect x="299.8" y="70.3" width="0.5" height="16.4"/>
<g>
	<path d="M299.9,70.4c0-1.8,2.5-3.5,4.5-3.5c1.3,0,2.3,0.7,2.3,1.7c0,1.7-2.5,3.5-4.6,3.5C300.9,72.1,299.9,71.5,299.9,70.4z"/>
</g>
<rect x="320.7" y="57.3" width="0.5" height="14"/>
<g>
	<path d="M314.3,72.9c0-1.8,2.5-3.5,4.5-3.5c1.3,0,2.3,0.7,2.3,1.7c0,1.7-2.5,3.5-4.6,3.5C315.3,74.6,314.3,74,314.3,72.9z"/>
</g>
<rect x="335.3" y="58.9" width="0.5" height="14.9"/>
<g>
	<path d="M328.9,75.4c0-1.8,2.5-3.5,4.5-3.5c1.3,0,2.3,0.7,2.3,1.7c0,1.7-2.5,3.5-4.6,3.5C329.8,77.1,328.9,76.5,328.9,75.4z"/>
</g>
<rect x="349.9" y="60.6" width="0.5" height="15.7"/>
<g>
	<path d="M343.4,77.9c0-1.8,2.5-3.5,4.5-3.5c1.3,0,2.3,0.7,2.3,1.7c0,1.7-2.5,3.5-4.6,3.5C344.4,79.6,343.4,78.9,343.4,77.9z"/>
</g>
<rect x="364.5" y="62.3" width="0.5" height="16.4"/>
<g>
	<path d="M358,80.3c0-1.8,2.5-3.5,4.5-3.5c1.3,0,2.3,0.7,2.3,1.7c0,1.7-2.5,3.5-4.6,3.5C359,82.1,358,81.4,358,80.3z"/>
</g>
<rect x="382.5" y="56.8" width="10.5" height="0.8"/>
<rect x="382.5" y="51.8" width="10.5" height="0.8"/>
<rect x="384.3" y="53" width="0.5" height="18.9"/>
<g>
	<path d="M384.4,53.1c0-1.8,2.5-3.5,4.5-3.5c1.3,0,2.3,0.7,2.3,1.7c0,1.7-2.5,3.5-4.6,3.5C385.3,54.8,384.4,54.1,384.4,53.1z"/>
</g>
<rect x="397.1" y="56.8" width="10.5" height="0.8"/>
<rect x="398.9" y="55.5" width="0.5" height="18"/>
<g>
	<path d="M398.9,55.5c0-1.8,2.5-3.5,4.5-3.5c1.3,0,2.3,0.7,2.3,1.7c0,1.7-2.5,3.5-4.6,3.5C399.9,57.3,398.9,56.6,398.9,55.5z"/>
</g>
<rect x="411.7" y="56.8" width="10.5" height="0.8"/>
<rect x="413.4" y="57.9" width="0.5" height="17.2"/>
<g>
	<path d="M413.5,58c0-1.8,2.5-3.5,4.5-3.5c1.3,0,2.3,0.7,2.3,1.7c0,1.7-2.5,3.5-4.6,3.5C414.5,59.7,413.5,59.1,413.5,58z"/>
</g>
<rect x="427.9" y="60.4" width="0.5" height="16.4"/>
<g>
	<path d="M427.9,60.5c0-1.8,2.5-3.5,4.5-3.5c1.3,0,2.3,0.7,2.3,1.7c0,1.7-2.5,3.5-4.6,3.5C428.9,62.2,427.9,61.6,427.9,60.5z"/>
</g>
<rect x="442.4" y="62.9" width="0.5" height="18.9"/>
<g>
	<path d="M442.5,63c0-1.8,2.5-3.5,4.5-3.5c1.3,0,2.3,0.7,2.3,1.7c0,1.7-2.5,3.5-4.6,3.5C443.5,64.7,442.5,64.1,442.5,63z"/>
</g>
<rect x="457" y="65.4" width="0.5" height="18"/>
<g>
	<path d="M457.1,65.5c0-1.8,2.5-3.5,4.5-3.5c1.3,0,2.3,0.7,2.3,1.7c0,1.7-2.5,3.5-4.6,3.5C458,67.2,457.1,66.5,457.1,65.5z"/>
</g>
<rect x="471.6" y="67.9" width="0.5" height="17.2"/>
<g>
	<path d="M471.6,67.9c0-1.8,2.5-3.5,4.5-3.5c1.3,0,2.3,0.7,2.3,1.7c0,1.7-2.5,3.5-4.6,3.5C472.6,69.7,471.6,69,471.6,67.9z"/>
</g>
<rect x="486.1" y="70.3" width="0.5" height="16.4"/>
<g>
	<path d="M486.2,70.4c0-1.8,2.5-3.5,4.5-3.5c1.3,0,2.3,0.7,2.3,1.7c0,1.7-2.5,3.5-4.6,3.5C487.2,72.1,486.2,71.5,486.2,70.4z"/>
</g>
<rect x="500.6" y="72.8" width="0.5" height="16.6"/>
<g>
	<path d="M504.9,69.3c1.6,0,2.7,0.7,2.7,2c0,1.9-2.3,3.4-4.5,3.4c-1.3,0-2.4-0.7-2.4-1.8C500.6,71.1,502.9,69.3,504.9,69.3z
		 M501.1,73.2c0,0.6,0.4,0.9,1.1,0.9c1.4,0,4.9-2.1,4.9-3.3c0-0.6-0.4-0.9-1.1-0.9C504.8,69.9,501.1,72,501.1,73.2z"/>
</g>
</svg>
