<?xml version="1.0" encoding="utf-8"?>

<!--
	ScaleBook
	Copyright (c) Leland Jansen 2015. All rights reserved.
-->

<!DOCTYPE svg PUBLIC "-//W3C//DTD SVG 1.1//EN" "http://www.w3.org/Graphics/SVG/1.1/DTD/svg11.dtd">
<svg version="1.1" id="Layer_1" xmlns="http://www.w3.org/2000/svg" xmlns:xlink="http://www.w3.org/1999/xlink" x="0px" y="0px"
	 viewBox="0 0 552.9 90.6" enable-background="new 0 0 552.9 90.6" xml:space="preserve">
<rect x="8.4" y="17.5" width="0.8" height="67"/>
<g>
	<path d="M7.4,18.1c-1.9,1.1-3.6,5.8-3.6,9.4c0,2.3,1.4,9.9,1.4,12.3c0,5-1.5,8.6-4.6,11.1c3,2.4,4.6,6.1,4.6,11.1
		c0,2.3-1.4,9.9-1.4,12.3c0,3.8,1.7,8.4,3.6,9.5v0.7c-3.5-2.3-5.8-8.2-5.8-13.1c0-2.1,1.7-9.4,1.7-11.5c0-3.8-1-6.6-2.9-8.2
		C0.1,51.4,0,51.2,0,51c0-0.2,0.1-0.4,0.5-0.7c1.9-1.7,2.9-4.2,2.9-7.6c0-2.1-1.7-10-1.7-12.2c0-5.2,2.1-10.4,5.8-13.1V18.1z"/>
</g>
<rect x="547.8" y="17.5" width="0.8" height="67"/>
<rect x="550.4" y="17.5" width="2.5" height="67"/>
<rect x="8.5" y="37.1" width="544.4" height="0.5"/>
<rect x="8.5" y="32.1" width="544.4" height="0.5"/>
<rect x="8.5" y="27.2" width="544.4" height="0.5"/>
<rect x="8.5" y="22.2" width="544.4" height="0.5"/>
<rect x="8.5" y="17.2" width="544.4" height="0.5"/>
<g>
	<path d="M20.3,37.2c-4.2,0-8.1-3.1-8.1-6.9c0-3.2,2.3-6.7,6.8-10.5c-0.3-1.2-0.4-2.4-0.4-3.6c0-3.5,1.2-6.8,3.2-8.5
		c1.8,2.5,2.7,4.9,2.7,7.1c0,2.9-1.3,5.6-4.3,8.1l0.9,4.2c0.5,0,0.8-0.1,0.8-0.1c2.6,0,4.8,2,4.8,4.7c0,1.9-1.4,3.7-3.6,4.8
		c0-0.1,0.9,3.8,0.9,4.3c0,2.5-2.3,4.2-4.9,4.2c-2,0-3.6-1.3-3.6-3.4c0-1.4,1-2.6,2.4-2.6c1.3,0,2.3,1.3,2.3,2.5
		c0,1.4-1.2,2.3-2.7,2.5c0.6,0.3,1.2,0.5,1.9,0.5c2.1,0,4.1-1.6,4.1-3.6c0-0.2,0-0.4-0.1-0.6l-0.8-3.7C21.9,37,21.2,37.2,20.3,37.2z
		 M18.1,31.9c0,1,0.5,1.9,1.6,2.5c-1.8-0.3-3-1.4-3-3.1c0-2,1.7-3.7,3.8-4.1l-0.8-4C16,26,14,28.8,14,31.4c0,2.9,2.8,5.3,6,5.3
		c0.9,0,1.7-0.2,2.4-0.5L21,29.3C19.4,29.6,18.1,30.6,18.1,31.9z M22.1,10.6c-1.6,0-2.9,3.7-2.9,7c0,0.7,0,1.3,0.2,1.9
		c2.7-2.4,4-4.5,4-6.5c0-0.9-0.3-1.7-1-2.4C22.4,10.6,22.3,10.6,22.1,10.6z M24.9,32.5c0-1.6-1.2-3.3-2.9-3.3c-0.1,0-0.2,0-0.5,0
		l1.4,6.6C24.2,34.9,24.9,33.8,24.9,32.5z"/>
</g>
<g>
	<path d="M29.5,19.1h0.6L30,25.3c0.4-0.7,1-1,1.8-1c1.2,0,2.2,0.8,2.2,1.9c0,0.8-0.5,1.8-1.7,2.7L29.5,31V19.1z M30.1,26
		C30,26.7,30,27.4,30,27.9c0,1,0,1.6,0.1,2c1-0.7,2.4-2.6,2.4-3.7c0-0.6-0.5-1.1-1.1-1.1C30.8,25.2,30.4,25.4,30.1,26z"/>
</g>
<g>
	<path d="M35.1,11.6h0.6l-0.1,6.2c0.4-0.7,1-1,1.8-1c1.2,0,2.2,0.8,2.2,1.9c0,0.8-0.5,1.8-1.7,2.7l-2.8,2.1V11.6z M35.7,18.6
		c-0.1,0.8-0.1,1.4-0.1,1.9c0,1,0,1.6,0.1,2c1-0.7,2.4-2.6,2.4-3.7c0-0.6-0.5-1.1-1.1-1.1C36.4,17.7,36,18,35.7,18.6z"/>
</g>
<g>
	<path d="M40.7,21.6h0.6l-0.1,6.2c0.4-0.7,1-1,1.8-1c1.2,0,2.2,0.8,2.2,1.9c0,0.8-0.5,1.8-1.7,2.7l-2.8,2.1V21.6z M41.3,28.5
		c-0.1,0.8-0.1,1.4-0.1,1.9c0,1,0,1.6,0.1,2c1-0.7,2.4-2.6,2.4-3.7c0-0.6-0.5-1.1-1.1-1.1C42,27.6,41.6,27.9,41.3,28.5z"/>
</g>
<g>
	<path d="M46.3,14.1h0.6l-0.1,6.2c0.4-0.7,1-1,1.8-1c1.2,0,2.2,0.8,2.2,1.9c0,0.8-0.5,1.8-1.7,2.7l-2.8,2.1V14.1z M46.9,21
		c-0.1,0.8-0.1,1.4-0.1,1.9c0,1,0,1.6,0.1,2c1-0.7,2.4-2.6,2.4-3.7c0-0.6-0.5-1.1-1.1-1.1C47.6,20.2,47.2,20.5,46.9,21z"/>
</g>
<g>
	<path d="M51.9,24h0.6l-0.1,6.2c0.4-0.7,1-1,1.8-1c1.2,0,2.2,0.8,2.2,1.9c0,0.8-0.5,1.8-1.7,2.7L51.9,36V24z M52.4,31
		c-0.1,0.8-0.1,1.4-0.1,1.9c0,1,0,1.6,0.1,2c1-0.7,2.4-2.6,2.4-3.7c0-0.6-0.5-1.1-1.1-1.1C53.2,30.1,52.7,30.4,52.4,31z"/>
</g>
<g>
	<path d="M57.4,16.6h0.6l-0.1,6.2c0.4-0.7,1-1,1.8-1c1.2,0,2.2,0.8,2.2,1.9c0,0.8-0.5,1.8-1.7,2.7l-2.8,2.1V16.6z M58,23.5
		c-0.1,0.8-0.1,1.4-0.1,1.9c0,1,0,1.6,0.1,2c1-0.7,2.4-2.6,2.4-3.7c0-0.6-0.5-1.1-1.1-1.1C58.7,22.7,58.3,23,58,23.5z"/>
</g>
<g>
	<path d="M63,26.5h0.6l-0.1,6.2c0.4-0.7,1-1,1.8-1c1.2,0,2.2,0.8,2.2,1.9c0,0.8-0.5,1.8-1.7,2.7L63,38.5V26.5z M63.6,33.4
		c-0.1,0.8-0.1,1.4-0.1,1.9c0,1,0,1.6,0.1,2c1-0.7,2.4-2.6,2.4-3.7c0-0.6-0.5-1.1-1.1-1.1C64.3,32.6,63.9,32.9,63.6,33.4z"/>
</g>
<polygon fill-rule="evenodd" clip-rule="evenodd" points="82.7,23.7 125.7,18.7 125.7,16.2 82.7,21.2 "/>
<polygon fill-rule="evenodd" clip-rule="evenodd" points="82.7,20 125.7,15 125.7,12.5 82.7,17.5 "/>
<polygon fill-rule="evenodd" clip-rule="evenodd" points="133.6,38.6 176.5,33.6 176.5,31.1 133.6,36.1 "/>
<polygon fill-rule="evenodd" clip-rule="evenodd" points="133.6,42.3 176.5,37.3 176.5,34.8 133.6,39.8 "/>
<polygon fill-rule="evenodd" clip-rule="evenodd" points="202.8,28.6 245.8,23.7 245.8,21.2 202.8,26.2 "/>
<polygon fill-rule="evenodd" clip-rule="evenodd" points="202.8,32.4 245.8,27.4 245.8,24.9 202.8,29.9 "/>
<polygon fill-rule="evenodd" clip-rule="evenodd" points="260.2,24.9 303.1,23.7 303.1,21.2 260.2,22.4 "/>
<polygon fill-rule="evenodd" clip-rule="evenodd" points="260.2,28.6 303.1,27.4 303.1,24.9 260.2,26.2 "/>
<polygon fill-rule="evenodd" clip-rule="evenodd" points="317.6,23.7 360.5,28.6 360.5,26.2 317.6,21.2 "/>
<polygon fill-rule="evenodd" clip-rule="evenodd" points="317.6,27.4 360.5,32.4 360.5,29.9 317.6,24.9 "/>
<polygon fill-rule="evenodd" clip-rule="evenodd" points="386.9,33.6 429.8,38.6 429.8,36.1 386.9,31.1 "/>
<polygon fill-rule="evenodd" clip-rule="evenodd" points="386.9,37.3 429.8,42.3 429.8,39.8 386.9,34.8 "/>
<polygon fill-rule="evenodd" clip-rule="evenodd" points="450.7,18.7 493.7,23.7 493.7,21.2 450.7,16.2 "/>
<polygon fill-rule="evenodd" clip-rule="evenodd" points="450.7,15 493.7,20 493.7,17.5 450.7,12.5 "/>
<rect x="8.5" y="84.2" width="544.4" height="0.5"/>
<rect x="8.5" y="79.3" width="544.4" height="0.5"/>
<rect x="8.5" y="74.3" width="544.4" height="0.5"/>
<rect x="8.5" y="69.3" width="544.4" height="0.5"/>
<rect x="8.5" y="64.4" width="544.4" height="0.5"/>
<g>
	<path d="M15.7,78.8c2.9-2.6,4.7-6.1,4.7-9.2c0-2.5-1.4-4.4-3.7-4.4c-1.6,0-3.4,1.3-3.4,2.7c0,0.2,0,0.3,0.1,0.3
		c-0.1,0,0.6-0.6,1.4-0.6c0.9,0,1.5,0.8,1.5,1.7c0,1.2-0.9,2.2-2.1,2.2c-1.2,0-2.1-1.3-2.1-2.8c0-2.3,2.3-4.1,4.8-4.1
		c4.7,0,5.9,3.2,5.9,5.8c0,1.6-0.4,2.9-2,5.3C19.1,78.7,14.6,81,13,81c-0.4,0-0.6-0.2-0.6-0.5C13.8,80.1,14.9,79.5,15.7,78.8z
		 M25.7,66.1c0.6,0,1,0.4,1,1c0,0.6-0.4,1-1,1s-1-0.4-1-1C24.7,66.5,25.1,66.1,25.7,66.1z M25.7,71c0.6,0,1,0.4,1,1c0,0.6-0.4,1-1,1
		s-1-0.4-1-1C24.7,71.5,25.1,71,25.7,71z"/>
</g>
<g>
	<path d="M29.5,71.2h0.6L30,77.4c0.4-0.7,1-1,1.8-1c1.2,0,2.2,0.8,2.2,1.9c0,0.8-0.5,1.8-1.7,2.7l-2.8,2.1V71.2z M30.1,78.1
		C30,78.8,30,79.5,30,80c0,1,0,1.6,0.1,2c1-0.7,2.4-2.6,2.4-3.7c0-0.6-0.5-1.1-1.1-1.1C30.8,77.2,30.4,77.5,30.1,78.1z"/>
</g>
<g>
	<path d="M35.1,63.7h0.6L35.6,70c0.4-0.7,1-1,1.8-1c1.2,0,2.2,0.8,2.2,1.9c0,0.8-0.5,1.8-1.7,2.7l-2.8,2.1V63.7z M35.7,70.6
		c-0.1,0.8-0.1,1.4-0.1,1.9c0,1,0,1.6,0.1,2c1-0.7,2.4-2.6,2.4-3.7c0-0.6-0.5-1.1-1.1-1.1C36.4,69.8,36,70.1,35.7,70.6z"/>
</g>
<g>
	<path d="M40.7,73.7h0.6l-0.1,6.2c0.4-0.7,1-1,1.8-1c1.2,0,2.2,0.8,2.2,1.9c0,0.8-0.5,1.8-1.7,2.7l-2.8,2.1V73.7z M41.3,80.6
		c-0.1,0.8-0.1,1.4-0.1,1.9c0,1,0,1.6,0.1,2c1-0.7,2.4-2.6,2.4-3.7c0-0.6-0.5-1.1-1.1-1.1C42,79.7,41.6,80,41.3,80.6z"/>
</g>
<g>
	<path d="M46.3,66.2h0.6l-0.1,6.2c0.4-0.7,1-1,1.8-1c1.2,0,2.2,0.8,2.2,1.9c0,0.8-0.5,1.8-1.7,2.7l-2.8,2.1V66.2z M46.9,73.1
		c-0.1,0.8-0.1,1.4-0.1,1.9c0,1,0,1.6,0.1,2c1-0.7,2.4-2.6,2.4-3.7c0-0.6-0.5-1.1-1.1-1.1C47.6,72.3,47.2,72.6,46.9,73.1z"/>
</g>
<g>
	<path d="M51.9,76.1h0.6l-0.1,6.2c0.4-0.7,1-1,1.8-1c1.2,0,2.2,0.8,2.2,1.9c0,0.8-0.5,1.8-1.7,2.7l-2.8,2.1V76.1z M52.4,83
		c-0.1,0.8-0.1,1.4-0.1,1.9c0,1,0,1.6,0.1,2c1-0.7,2.4-2.6,2.4-3.7c0-0.6-0.5-1.1-1.1-1.1C53.2,82.2,52.7,82.5,52.4,83z"/>
</g>
<g>
	<path d="M57.4,68.7h0.6l-0.1,6.2c0.4-0.7,1-1,1.8-1c1.2,0,2.2,0.8,2.2,1.9c0,0.8-0.5,1.8-1.7,2.7l-2.8,2.1V68.7z M58,75.6
		c-0.1,0.8-0.1,1.4-0.1,1.9c0,1,0,1.6,0.1,2c1-0.7,2.4-2.6,2.4-3.7c0-0.6-0.5-1.1-1.1-1.1C58.7,74.8,58.3,75,58,75.6z"/>
</g>
<g>
	<path d="M63,78.6h0.6l-0.1,6.2c0.4-0.7,1-1,1.8-1c1.2,0,2.2,0.8,2.2,1.9c0,0.8-0.5,1.8-1.7,2.7L63,90.6V78.6z M63.6,85.5
		c-0.1,0.8-0.1,1.4-0.1,1.9c0,1,0,1.6,0.1,2c1-0.7,2.4-2.6,2.4-3.7c0-0.6-0.5-1.1-1.1-1.1C64.3,84.7,63.9,85,63.6,85.5z"/>
</g>
<polygon fill-rule="evenodd" clip-rule="evenodd" points="76.2,85.7 119.1,80.7 119.1,78.2 76.2,83.2 "/>
<polygon fill-rule="evenodd" clip-rule="evenodd" points="76.2,89.4 119.1,84.4 119.1,82 76.2,86.9 "/>
<g>
	<path d="M196.7,83.1c-3.2,0-6.1-2.3-6.1-5.1c0-2.4,1.7-5,5.1-7.9c-0.2-0.9-0.3-1.8-0.3-2.7c0-2.6,0.9-5.1,2.4-6.3
		c1.4,1.9,2,3.7,2,5.3c0,2.2-1,4.2-3.2,6.1l0.7,3.1c0.4,0,0.6,0,0.6,0c2,0,3.6,1.5,3.6,3.5c0,1.4-1.1,2.8-2.7,3.6
		c0-0.1,0.6,2.8,0.6,3.3c0,1.9-1.7,3.2-3.7,3.2c-1.5,0-2.7-1-2.7-2.5c0-1.1,0.7-1.9,1.8-1.9c1,0,1.7,1,1.7,1.9c0,1-0.9,1.7-2,1.8
		c0.4,0.2,0.9,0.3,1.4,0.3c1.6,0,3.1-1.2,3.1-2.7c0-0.1,0-0.3,0-0.5l-0.6-2.8C197.9,83,197.4,83.1,196.7,83.1z M195,79.2
		c0,0.8,0.4,1.4,1.2,1.9c-1.3-0.2-2.2-1.1-2.2-2.3c0-1.5,1.3-2.8,2.9-3.1l-0.6-3c-2.8,2.1-4.3,4.1-4.3,6.1c0,2.2,2.1,4,4.5,4
		c0.7,0,1.3-0.1,1.8-0.4l-1.1-5.1C196,77.4,195,78.1,195,79.2z M198.1,63.2c-1.2,0-2.2,2.8-2.2,5.3c0,0.5,0,1,0.1,1.4
		c2-1.8,3-3.4,3-4.9c0-0.7-0.3-1.3-0.7-1.8C198.3,63.2,198.2,63.2,198.1,63.2z M200.1,79.6c0-1.2-0.9-2.4-2.2-2.4c0,0-0.2,0-0.4,0
		l1.1,5C199.6,81.4,200.1,80.6,200.1,79.6z"/>
</g>
<polygon fill-rule="evenodd" clip-rule="evenodd" points="133.6,75.8 176.5,70.8 176.5,68.3 133.6,73.3 "/>
<polygon fill-rule="evenodd" clip-rule="evenodd" points="133.6,79.5 176.5,74.5 176.5,72 133.6,77 "/>
<polygon fill-rule="evenodd" clip-rule="evenodd" points="209.4,70.8 252.3,65.8 252.3,63.4 209.4,68.3 "/>
<polygon fill-rule="evenodd" clip-rule="evenodd" points="209.4,67.1 252.3,62.1 252.3,59.6 209.4,64.6 "/>
<polygon fill-rule="evenodd" clip-rule="evenodd" points="260.2,86.9 303.1,85.7 303.1,83.2 260.2,84.4 "/>
<polygon fill-rule="evenodd" clip-rule="evenodd" points="260.2,90.6 303.1,89.4 303.1,86.9 260.2,88.2 "/>
<g>
	<path d="M375.4,76.5c2.2-2,3.6-4.6,3.6-6.9c0-1.9-1.1-3.3-2.8-3.3c-1.2,0-2.5,1-2.5,2.1c0,0.2,0,0.2,0.1,0.2c0,0,0.4-0.5,1-0.5
		c0.7,0,1.2,0.6,1.2,1.3c0,0.9-0.6,1.7-1.6,1.7s-1.5-1-1.5-2.1c0-1.8,1.7-3.1,3.6-3.1c3.5,0,4.4,2.4,4.4,4.4c0,1.2-0.3,2.2-1.5,4
		c-1.4,2.3-4.8,4-6,4c-0.3,0-0.5-0.1-0.5-0.3C374,77.4,374.8,77,375.4,76.5z M382.9,67c0.4,0,0.7,0.3,0.7,0.7c0,0.4-0.3,0.7-0.7,0.7
		c-0.4,0-0.7-0.3-0.7-0.7C382.1,67.3,382.4,67,382.9,67z M382.9,70.7c0.4,0,0.7,0.3,0.7,0.7s-0.3,0.7-0.7,0.7
		c-0.4,0-0.7-0.3-0.7-0.7S382.4,70.7,382.9,70.7z"/>
</g>
<polygon fill-rule="evenodd" clip-rule="evenodd" points="324.1,60.9 367,65.8 367,63.4 324.1,58.4 "/>
<polygon fill-rule="evenodd" clip-rule="evenodd" points="324.1,57.2 367,62.1 367,59.6 324.1,54.7 "/>
<polygon fill-rule="evenodd" clip-rule="evenodd" points="386.9,70.8 429.8,72 429.8,69.6 386.9,68.3 "/>
<polygon fill-rule="evenodd" clip-rule="evenodd" points="386.9,74.5 429.8,75.8 429.8,73.3 386.9,72 "/>
<polygon fill-rule="evenodd" clip-rule="evenodd" points="444.2,75.8 487.1,80.7 487.1,78.2 444.2,73.3 "/>
<polygon fill-rule="evenodd" clip-rule="evenodd" points="444.2,79.5 487.1,84.4 487.1,82 444.2,77 "/>
<rect x="82.5" y="17.6" width="0.5" height="18.9"/>
<g>
	<path d="M76,38.2c0-1.8,2.5-3.5,4.5-3.5c1.3,0,2.3,0.7,2.3,1.7c0,1.7-2.5,3.5-4.6,3.5C77,39.9,76,39.3,76,38.2z"/>
</g>
<rect x="96.7" y="16.1" width="0.5" height="18"/>
<g>
	<path d="M90.3,35.7c0-1.8,2.5-3.5,4.5-3.5c1.3,0,2.3,0.7,2.3,1.7c0,1.7-2.5,3.5-4.6,3.5C91.3,37.4,90.3,36.8,90.3,35.7z"/>
</g>
<rect x="111.2" y="14.4" width="0.5" height="17.2"/>
<g>
	<path d="M104.7,33.2c0-1.8,2.5-3.5,4.5-3.5c1.3,0,2.3,0.7,2.3,1.7c0,1.7-2.5,3.5-4.6,3.5C105.7,34.9,104.7,34.3,104.7,33.2z"/>
</g>
<rect x="125.4" y="12.7" width="0.5" height="16.4"/>
<g>
	<path d="M119,30.7c0-1.8,2.5-3.5,4.5-3.5c1.3,0,2.3,0.7,2.3,1.7c0,1.7-2.5,3.5-4.6,3.5C120,32.5,119,31.8,119,30.7z"/>
</g>
<rect x="133.3" y="28.2" width="0.5" height="14"/>
<g>
	<path d="M133.4,28.3c0-1.8,2.5-3.5,4.5-3.5c1.3,0,2.3,0.7,2.3,1.7c0,1.7-2.5,3.5-4.6,3.5C134.4,30,133.4,29.3,133.4,28.3z"/>
</g>
<rect x="147.6" y="25.7" width="0.5" height="14.9"/>
<g>
	<path d="M147.7,25.8c0-1.8,2.5-3.5,4.5-3.5c1.3,0,2.3,0.7,2.3,1.7c0,1.7-2.5,3.5-4.6,3.5C148.6,27.5,147.7,26.9,147.7,25.8z"/>
</g>
<rect x="162" y="23.2" width="0.5" height="15.7"/>
<g>
	<path d="M162.1,23.3c0-1.8,2.5-3.5,4.5-3.5c1.3,0,2.3,0.7,2.3,1.7c0,1.7-2.5,3.5-4.6,3.5C163.1,25,162.1,24.4,162.1,23.3z"/>
</g>
<rect x="176.3" y="20.7" width="0.5" height="16.4"/>
<g>
	<path d="M176.3,20.8c0-1.8,2.5-3.5,4.5-3.5c1.3,0,2.3,0.7,2.3,1.7c0,1.7-2.5,3.5-4.6,3.5C177.3,22.5,176.3,21.9,176.3,20.8z"/>
</g>
<rect x="202.6" y="18.3" width="0.5" height="14"/>
<g>
	<path d="M202.7,18.3c0-1.8,2.5-3.5,4.5-3.5c1.3,0,2.3,0.7,2.3,1.7c0,1.7-2.5,3.5-4.6,3.5C203.7,20.1,202.7,19.4,202.7,18.3z"/>
</g>
<rect x="217" y="15.8" width="0.5" height="14.9"/>
<g>
	<path d="M217.1,15.9c0-1.8,2.5-3.5,4.5-3.5c1.3,0,2.3,0.7,2.3,1.7c0,1.7-2.5,3.5-4.6,3.5C218.1,17.6,217.1,16.9,217.1,15.9z"/>
</g>
<rect x="229.5" y="12.1" width="10.5" height="0.8"/>
<rect x="231.3" y="13.3" width="0.5" height="15.7"/>
<g>
	<path d="M231.4,13.4c0-1.8,2.5-3.5,4.5-3.5c1.3,0,2.3,0.7,2.3,1.7c0,1.7-2.5,3.5-4.6,3.5C232.3,15.1,231.4,14.5,231.4,13.4z"/>
</g>
<rect x="243.8" y="12.1" width="10.5" height="0.8"/>
<rect x="245.6" y="10.8" width="0.5" height="16.4"/>
<g>
	<path d="M245.6,10.9c0-1.8,2.5-3.5,4.5-3.5c1.3,0,2.3,0.7,2.3,1.7c0,1.7-2.5,3.5-4.6,3.5C246.6,12.6,245.6,12,245.6,10.9z"/>
</g>
<rect x="258.2" y="12.1" width="10.5" height="0.8"/>
<rect x="258.2" y="7.2" width="10.5" height="0.8"/>
<rect x="260" y="8.3" width="0.5" height="20.2"/>
<g>
	<path d="M260,8.4c0-1.8,2.5-3.5,4.5-3.5c1.3,0,2.3,0.7,2.3,1.7c0,1.7-2.5,3.5-4.6,3.5C261,10.1,260,9.5,260,8.4z"/>
</g>
<rect x="272.5" y="12.1" width="10.5" height="0.8"/>
<rect x="272.5" y="7.2" width="10.5" height="0.8"/>
<rect x="274.2" y="5.9" width="0.5" height="22.3"/>
<g>
	<path d="M274.3,5.9c0-1.8,2.5-3.5,4.5-3.5c1.3,0,2.3,0.7,2.3,1.7c0,1.7-2.5,3.5-4.6,3.5C275.3,7.7,274.3,7,274.3,5.9z"/>
</g>
<rect x="286.9" y="12.1" width="10.5" height="0.8"/>
<rect x="286.9" y="7.2" width="10.5" height="0.8"/>
<rect x="286.9" y="2.2" width="10.5" height="0.8"/>
<rect x="288.6" y="3.4" width="0.5" height="24.3"/>
<g>
	<path d="M288.7,3.5c0-1.8,2.5-3.5,4.5-3.5c1.3,0,2.3,0.7,2.3,1.7c0,1.7-2.5,3.5-4.6,3.5C289.7,5.2,288.7,4.5,288.7,3.5z"/>
</g>
<rect x="301.1" y="12.1" width="10.5" height="0.8"/>
<rect x="301.1" y="7.2" width="10.5" height="0.8"/>
<rect x="302.9" y="5.9" width="0.5" height="21.4"/>
<g>
	<path d="M303,5.9c0-1.8,2.5-3.5,4.5-3.5c1.3,0,2.3,0.7,2.3,1.7c0,1.7-2.5,3.5-4.6,3.5C304,7.7,303,7,303,5.9z"/>
</g>
<rect x="315.5" y="12.1" width="10.5" height="0.8"/>
<rect x="315.5" y="7.2" width="10.5" height="0.8"/>
<rect x="317.3" y="8.3" width="0.5" height="18.9"/>
<g>
	<path d="M317.4,8.4c0-1.8,2.5-3.5,4.5-3.5c1.3,0,2.3,0.7,2.3,1.7c0,1.7-2.5,3.5-4.6,3.5C318.4,10.1,317.4,9.5,317.4,8.4z"/>
</g>
<rect x="329.8" y="12.1" width="10.5" height="0.8"/>
<rect x="331.6" y="10.8" width="0.5" height="18"/>
<g>
	<path d="M331.7,10.9c0-1.8,2.5-3.5,4.5-3.5c1.3,0,2.3,0.7,2.3,1.7c0,1.7-2.5,3.5-4.6,3.5C332.6,12.6,331.7,12,331.7,10.9z"/>
</g>
<rect x="344.2" y="12.1" width="10.5" height="0.8"/>
<rect x="346" y="13.3" width="0.5" height="17.2"/>
<g>
	<path d="M346.1,13.4c0-1.8,2.5-3.5,4.5-3.5c1.3,0,2.3,0.7,2.3,1.7c0,1.7-2.5,3.5-4.6,3.5C347.1,15.1,346.1,14.5,346.1,13.4z"/>
</g>
<rect x="360.3" y="15.8" width="0.5" height="16.4"/>
<g>
	<path d="M360.3,15.9c0-1.8,2.5-3.5,4.5-3.5c1.3,0,2.3,0.7,2.3,1.7c0,1.7-2.5,3.5-4.6,3.5C361.3,17.6,360.3,16.9,360.3,15.9z"/>
</g>
<rect x="386.6" y="18.3" width="0.5" height="18.9"/>
<g>
	<path d="M386.7,18.3c0-1.8,2.5-3.5,4.5-3.5c1.3,0,2.3,0.7,2.3,1.7c0,1.7-2.5,3.5-4.6,3.5C387.7,20.1,386.7,19.4,386.7,18.3z"/>
</g>
<rect x="401" y="20.7" width="0.5" height="18"/>
<g>
	<path d="M401.1,20.8c0-1.8,2.5-3.5,4.5-3.5c1.3,0,2.3,0.7,2.3,1.7c0,1.7-2.5,3.5-4.6,3.5C402.1,22.5,401.1,21.9,401.1,20.8z"/>
</g>
<rect x="415.3" y="23.2" width="0.5" height="17.2"/>
<g>
	<path d="M415.4,23.3c0-1.8,2.5-3.5,4.5-3.5c1.3,0,2.3,0.7,2.3,1.7c0,1.7-2.5,3.5-4.6,3.5C416.3,25,415.4,24.4,415.4,23.3z"/>
</g>
<rect x="429.6" y="25.7" width="0.5" height="16.4"/>
<g>
	<path d="M429.6,25.8c0-1.8,2.5-3.5,4.5-3.5c1.3,0,2.3,0.7,2.3,1.7c0,1.7-2.5,3.5-4.6,3.5C430.6,27.5,429.6,26.9,429.6,25.8z"/>
</g>
<rect x="450.5" y="12.7" width="0.5" height="14"/>
<g>
	<path d="M444.1,28.3c0-1.8,2.5-3.5,4.5-3.5c1.3,0,2.3,0.7,2.3,1.7c0,1.7-2.5,3.5-4.6,3.5C445,30,444.1,29.3,444.1,28.3z"/>
</g>
<rect x="464.7" y="14.2" width="0.5" height="14.9"/>
<g>
	<path d="M458.3,30.7c0-1.8,2.5-3.5,4.5-3.5c1.3,0,2.3,0.7,2.3,1.7c0,1.7-2.5,3.5-4.6,3.5C459.3,32.5,458.3,31.8,458.3,30.7z"/>
</g>
<rect x="479.2" y="15.9" width="0.5" height="15.7"/>
<g>
	<path d="M472.7,33.2c0-1.8,2.5-3.5,4.5-3.5c1.3,0,2.3,0.7,2.3,1.7c0,1.7-2.5,3.5-4.6,3.5C473.7,34.9,472.7,34.3,472.7,33.2z"/>
</g>
<rect x="493.4" y="17.6" width="0.5" height="16.4"/>
<g>
	<path d="M487,35.7c0-1.8,2.5-3.5,4.5-3.5c1.3,0,2.3,0.7,2.3,1.7c0,1.7-2.5,3.5-4.6,3.5C488,37.4,487,36.8,487,35.7z"/>
</g>
<rect x="508" y="20" width="0.5" height="16.6"/>
<g>
	<path d="M505.7,34.6c1.6,0,2.7,0.7,2.7,2c0,1.9-2.3,3.4-4.5,3.4c-1.3,0-2.4-0.7-2.4-1.8C501.4,36.4,503.6,34.6,505.7,34.6z
		 M501.9,38.5c0,0.6,0.4,0.9,1.1,0.9c1.4,0,4.9-2.1,4.9-3.3c0-0.6-0.4-0.9-1.1-0.9C505.5,35.2,501.9,37.2,501.9,38.5z"/>
</g>
<rect x="76" y="72.8" width="0.5" height="16.4"/>
<g>
	<path d="M76,72.9c0-1.8,2.5-3.5,4.5-3.5c1.3,0,2.3,0.7,2.3,1.7c0,1.7-2.5,3.5-4.6,3.5C77,74.6,76,74,76,72.9z"/>
</g>
<rect x="90.2" y="70.3" width="0.5" height="17.4"/>
<g>
	<path d="M90.3,70.4c0-1.8,2.5-3.5,4.5-3.5c1.3,0,2.3,0.7,2.3,1.7c0,1.7-2.5,3.5-4.6,3.5C91.3,72.1,90.3,71.5,90.3,70.4z"/>
</g>
<rect x="104.6" y="67.9" width="0.5" height="18.1"/>
<g>
	<path d="M104.7,67.9c0-1.8,2.5-3.5,4.5-3.5c1.3,0,2.3,0.7,2.3,1.7c0,1.7-2.5,3.5-4.6,3.5C105.7,69.7,104.7,69,104.7,67.9z"/>
</g>
<rect x="118.9" y="65.4" width="0.5" height="18.9"/>
<g>
	<path d="M119,65.5c0-1.8,2.5-3.5,4.5-3.5c1.3,0,2.3,0.7,2.3,1.7c0,1.7-2.5,3.5-4.6,3.5C120,67.2,119,66.5,119,65.5z"/>
</g>
<rect x="133.3" y="62.9" width="0.5" height="16.4"/>
<g>
	<path d="M133.4,63c0-1.8,2.5-3.5,4.5-3.5c1.3,0,2.3,0.7,2.3,1.7c0,1.7-2.5,3.5-4.6,3.5C134.4,64.7,133.4,64.1,133.4,63z"/>
</g>
<rect x="145.8" y="59.3" width="10.5" height="0.8"/>
<rect x="147.6" y="60.4" width="0.5" height="17.4"/>
<g>
	<path d="M147.7,60.5c0-1.8,2.5-3.5,4.5-3.5c1.3,0,2.3,0.7,2.3,1.7c0,1.7-2.5,3.5-4.6,3.5C148.6,62.2,147.7,61.6,147.7,60.5z"/>
</g>
<rect x="160.2" y="59.3" width="10.5" height="0.8"/>
<rect x="162" y="57.9" width="0.5" height="18.1"/>
<g>
	<path d="M162.1,58c0-1.8,2.5-3.5,4.5-3.5c1.3,0,2.3,0.7,2.3,1.7c0,1.7-2.5,3.5-4.6,3.5C163.1,59.7,162.1,59.1,162.1,58z"/>
</g>
<rect x="174.5" y="59.3" width="10.5" height="0.8"/>
<rect x="174.5" y="54.3" width="10.5" height="0.8"/>
<rect x="176.3" y="55.5" width="0.5" height="18.9"/>
<g>
	<path d="M176.3,55.5c0-1.8,2.5-3.5,4.5-3.5c1.3,0,2.3,0.7,2.3,1.7c0,1.7-2.5,3.5-4.6,3.5C177.3,57.3,176.3,56.6,176.3,55.5z"/>
</g>
<rect x="209.1" y="64.8" width="0.5" height="16.4"/>
<g>
	<path d="M202.7,82.8c0-1.8,2.5-3.5,4.5-3.5c1.3,0,2.3,0.7,2.3,1.7c0,1.7-2.5,3.5-4.6,3.5C203.7,84.5,202.7,83.9,202.7,82.8z"/>
</g>
<rect x="223.5" y="63.2" width="0.5" height="15.5"/>
<g>
	<path d="M217.1,80.3c0-1.8,2.5-3.5,4.5-3.5c1.3,0,2.3,0.7,2.3,1.7c0,1.7-2.5,3.5-4.6,3.5C218.1,82.1,217.1,81.4,217.1,80.3z"/>
</g>
<rect x="237.8" y="61.5" width="0.5" height="14.7"/>
<g>
	<path d="M231.4,77.9c0-1.8,2.5-3.5,4.5-3.5c1.3,0,2.3,0.7,2.3,1.7c0,1.7-2.5,3.5-4.6,3.5C232.3,79.6,231.4,78.9,231.4,77.9z"/>
</g>
<rect x="252.1" y="59.8" width="0.5" height="14"/>
<g>
	<path d="M245.6,75.4c0-1.8,2.5-3.5,4.5-3.5c1.3,0,2.3,0.7,2.3,1.7c0,1.7-2.5,3.5-4.6,3.5C246.6,77.1,245.6,76.5,245.6,75.4z"/>
</g>
<rect x="260" y="72.8" width="0.5" height="17.7"/>
<g>
	<path d="M260,72.9c0-1.8,2.5-3.5,4.5-3.5c1.3,0,2.3,0.7,2.3,1.7c0,1.7-2.5,3.5-4.6,3.5C261,74.6,260,74,260,72.9z"/>
</g>
<rect x="274.2" y="70.3" width="0.5" height="19.8"/>
<g>
	<path d="M274.3,70.4c0-1.8,2.5-3.5,4.5-3.5c1.3,0,2.3,0.7,2.3,1.7c0,1.7-2.5,3.5-4.6,3.5C275.3,72.1,274.3,71.5,274.3,70.4z"/>
</g>
<rect x="288.6" y="67.9" width="0.5" height="21.9"/>
<g>
	<path d="M288.7,67.9c0-1.8,2.5-3.5,4.5-3.5c1.3,0,2.3,0.7,2.3,1.7c0,1.7-2.5,3.5-4.6,3.5C289.7,69.7,288.7,69,288.7,67.9z"/>
</g>
<rect x="302.9" y="70.3" width="0.5" height="18.9"/>
<g>
	<path d="M303,70.4c0-1.8,2.5-3.5,4.5-3.5c1.3,0,2.3,0.7,2.3,1.7c0,1.7-2.5,3.5-4.6,3.5C304,72.1,303,71.5,303,70.4z"/>
</g>
<rect x="323.8" y="54.8" width="0.5" height="16.4"/>
<g>
	<path d="M317.4,72.9c0-1.8,2.5-3.5,4.5-3.5c1.3,0,2.3,0.7,2.3,1.7c0,1.7-2.5,3.5-4.6,3.5C318.4,74.6,317.4,74,317.4,72.9z"/>
</g>
<rect x="338.1" y="56.4" width="0.5" height="17.4"/>
<g>
	<path d="M331.7,75.4c0-1.8,2.5-3.5,4.5-3.5c1.3,0,2.3,0.7,2.3,1.7c0,1.7-2.5,3.5-4.6,3.5C332.6,77.1,331.7,76.5,331.7,75.4z"/>
</g>
<rect x="352.5" y="58.1" width="0.5" height="18.1"/>
<g>
	<path d="M346.1,77.9c0-1.8,2.5-3.5,4.5-3.5c1.3,0,2.3,0.7,2.3,1.7c0,1.7-2.5,3.5-4.6,3.5C347.1,79.6,346.1,78.9,346.1,77.9z"/>
</g>
<rect x="366.8" y="59.8" width="0.5" height="18.9"/>
<g>
	<path d="M360.3,80.3c0-1.8,2.5-3.5,4.5-3.5c1.3,0,2.3,0.7,2.3,1.7c0,1.7-2.5,3.5-4.6,3.5C361.3,82.1,360.3,81.4,360.3,80.3z"/>
</g>
<rect x="384.8" y="59.3" width="10.5" height="0.8"/>
<rect x="384.8" y="54.3" width="10.5" height="0.8"/>
<rect x="386.6" y="53" width="0.5" height="21.4"/>
<g>
	<path d="M386.7,53.1c0-1.8,2.5-3.5,4.5-3.5c1.3,0,2.3,0.7,2.3,1.7c0,1.7-2.5,3.5-4.6,3.5C387.7,54.8,386.7,54.1,386.7,53.1z"/>
</g>
<rect x="399.3" y="59.3" width="10.5" height="0.8"/>
<rect x="399.3" y="54.3" width="10.5" height="0.8"/>
<rect x="401" y="55.5" width="0.5" height="19.2"/>
<g>
	<path d="M401.1,55.5c0-1.8,2.5-3.5,4.5-3.5c1.3,0,2.3,0.7,2.3,1.7c0,1.7-2.5,3.5-4.6,3.5C402.1,57.3,401.1,56.6,401.1,55.5z"/>
</g>
<rect x="413.5" y="59.3" width="10.5" height="0.8"/>
<rect x="415.3" y="57.9" width="0.5" height="17.2"/>
<g>
	<path d="M415.4,58c0-1.8,2.5-3.5,4.5-3.5c1.3,0,2.3,0.7,2.3,1.7c0,1.7-2.5,3.5-4.6,3.5C416.3,59.7,415.4,59.1,415.4,58z"/>
</g>
<rect x="427.8" y="59.3" width="10.5" height="0.8"/>
<rect x="429.6" y="60.4" width="0.5" height="15.2"/>
<g>
	<path d="M429.6,60.5c0-1.8,2.5-3.5,4.5-3.5c1.3,0,2.3,0.7,2.3,1.7c0,1.7-2.5,3.5-4.6,3.5C430.6,62.2,429.6,61.6,429.6,60.5z"/>
</g>
<rect x="444" y="62.9" width="0.5" height="16.4"/>
<g>
	<path d="M444.1,63c0-1.8,2.5-3.5,4.5-3.5c1.3,0,2.3,0.7,2.3,1.7c0,1.7-2.5,3.5-4.6,3.5C445,64.7,444.1,64.1,444.1,63z"/>
</g>
<rect x="458.2" y="65.4" width="0.5" height="15.5"/>
<g>
	<path d="M458.3,65.5c0-1.8,2.5-3.5,4.5-3.5c1.3,0,2.3,0.7,2.3,1.7c0,1.7-2.5,3.5-4.6,3.5C459.3,67.2,458.3,66.5,458.3,65.5z"/>
</g>
<rect x="472.7" y="67.9" width="0.5" height="14.7"/>
<g>
	<path d="M472.7,67.9c0-1.8,2.5-3.5,4.5-3.5c1.3,0,2.3,0.7,2.3,1.7c0,1.7-2.5,3.5-4.6,3.5C473.7,69.7,472.7,69,472.7,67.9z"/>
</g>
<rect x="486.9" y="70.3" width="0.5" height="14"/>
<g>
	<path d="M487,70.4c0-1.8,2.5-3.5,4.5-3.5c1.3,0,2.3,0.7,2.3,1.7c0,1.7-2.5,3.5-4.6,3.5C488,72.1,487,71.5,487,70.4z"/>
</g>
<rect x="501.3" y="72.8" width="0.5" height="16.6"/>
<g>
	<path d="M505.7,69.3c1.6,0,2.7,0.7,2.7,2c0,1.9-2.3,3.4-4.5,3.4c-1.3,0-2.4-0.7-2.4-1.8C501.4,71.1,503.6,69.3,505.7,69.3z
		 M501.9,73.2c0,0.6,0.4,0.9,1.1,0.9c1.4,0,4.9-2.1,4.9-3.3c0-0.6-0.4-0.9-1.1-0.9C505.5,69.9,501.9,72,501.9,73.2z"/>
</g>
</svg>
