<?xml version="1.0" encoding="utf-8"?>

<!--
	ScaleBook
	Copyright (c) Leland Jansen 2015. All rights reserved.
-->

<!DOCTYPE svg PUBLIC "-//W3C//DTD SVG 1.1//EN" "http://www.w3.org/Graphics/SVG/1.1/DTD/svg11.dtd">
<svg version="1.1" id="Layer_1" xmlns="http://www.w3.org/2000/svg" xmlns:xlink="http://www.w3.org/1999/xlink" x="0px" y="0px"
	 viewBox="0 0 552.9 90.6" enable-background="new 0 0 552.9 90.6" xml:space="preserve">
<rect x="8.4" y="17.5" width="0.8" height="67"/>
<g>
	<path d="M7.4,18.1c-1.9,1.1-3.6,5.8-3.6,9.4c0,2.3,1.4,9.9,1.4,12.3c0,5-1.5,8.6-4.6,11.1c3,2.4,4.6,6.1,4.6,11.1
		c0,2.3-1.4,9.9-1.4,12.3c0,3.8,1.7,8.4,3.6,9.5v0.7c-3.5-2.3-5.8-8.2-5.8-13.1c0-2.1,1.7-9.4,1.7-11.5c0-3.8-1-6.6-2.9-8.2
		C0.1,51.4,0,51.2,0,51c0-0.2,0.1-0.4,0.5-0.7c1.9-1.7,2.9-4.2,2.9-7.6c0-2.1-1.7-10-1.7-12.2c0-5.2,2.1-10.4,5.8-13.1V18.1z"/>
</g>
<rect x="547.8" y="17.5" width="0.8" height="67"/>
<rect x="550.4" y="17.5" width="2.5" height="67"/>
<rect x="8.5" y="37.1" width="544.4" height="0.5"/>
<rect x="8.5" y="32.1" width="544.4" height="0.5"/>
<rect x="8.5" y="27.2" width="544.4" height="0.5"/>
<rect x="8.5" y="22.2" width="544.4" height="0.5"/>
<rect x="8.5" y="17.2" width="544.4" height="0.5"/>
<g>
	<path d="M20.3,37.2c-4.2,0-8.1-3.1-8.1-6.9c0-3.2,2.3-6.7,6.8-10.5c-0.3-1.2-0.4-2.4-0.4-3.6c0-3.5,1.2-6.8,3.2-8.5
		c1.8,2.5,2.7,4.9,2.7,7.1c0,2.9-1.3,5.6-4.3,8.1l0.9,4.2c0.5,0,0.8-0.1,0.8-0.1c2.6,0,4.8,2,4.8,4.7c0,1.9-1.4,3.7-3.6,4.8
		c0-0.1,0.9,3.8,0.9,4.3c0,2.5-2.3,4.2-4.9,4.2c-2,0-3.6-1.3-3.6-3.4c0-1.4,1-2.6,2.4-2.6c1.3,0,2.3,1.3,2.3,2.5
		c0,1.4-1.2,2.3-2.7,2.5c0.6,0.3,1.2,0.5,1.9,0.5c2.1,0,4.1-1.6,4.1-3.6c0-0.2,0-0.4-0.1-0.6l-0.8-3.7C21.9,37,21.2,37.2,20.3,37.2z
		 M18.1,31.9c0,1,0.5,1.9,1.6,2.5c-1.8-0.3-3-1.4-3-3.1c0-2,1.7-3.7,3.8-4.1l-0.8-4C16,26,14,28.8,14,31.4c0,2.9,2.8,5.3,6,5.3
		c0.9,0,1.7-0.2,2.4-0.5L21,29.3C19.4,29.6,18.1,30.6,18.1,31.9z M22.1,10.6c-1.6,0-2.9,3.7-2.9,7c0,0.7,0,1.3,0.2,1.9
		c2.7-2.4,4-4.5,4-6.5c0-0.9-0.3-1.7-1-2.4C22.4,10.6,22.3,10.6,22.1,10.6z M24.9,32.5c0-1.6-1.2-3.3-2.9-3.3c-0.1,0-0.2,0-0.5,0
		l1.4,6.6C24.2,34.9,24.9,33.8,24.9,32.5z"/>
</g>
<polygon fill-rule="evenodd" clip-rule="evenodd" points="43.6,23.7 90.6,18.7 90.6,16.2 43.6,21.2 "/>
<polygon fill-rule="evenodd" clip-rule="evenodd" points="43.6,20 90.6,15 90.6,12.5 43.6,17.5 "/>
<polygon fill-rule="evenodd" clip-rule="evenodd" points="99.8,38.6 146.9,33.6 146.9,31.1 99.8,36.1 "/>
<polygon fill-rule="evenodd" clip-rule="evenodd" points="99.8,42.3 146.9,37.3 146.9,34.8 99.8,39.8 "/>
<polygon fill-rule="evenodd" clip-rule="evenodd" points="173.2,28.6 220.2,23.7 220.2,21.2 173.2,26.2 "/>
<polygon fill-rule="evenodd" clip-rule="evenodd" points="173.2,32.4 220.2,27.4 220.2,24.9 173.2,29.9 "/>
<polygon fill-rule="evenodd" clip-rule="evenodd" points="235.9,24.9 283,23.7 283,21.2 235.9,22.4 "/>
<polygon fill-rule="evenodd" clip-rule="evenodd" points="235.9,28.6 283,27.4 283,24.9 235.9,26.2 "/>
<polygon fill-rule="evenodd" clip-rule="evenodd" points="298.6,23.7 345.6,28.6 345.6,26.2 298.6,21.2 "/>
<polygon fill-rule="evenodd" clip-rule="evenodd" points="298.6,27.4 345.6,32.4 345.6,29.9 298.6,24.9 "/>
<polygon fill-rule="evenodd" clip-rule="evenodd" points="372,33.6 419.1,38.6 419.1,36.1 372,31.1 "/>
<polygon fill-rule="evenodd" clip-rule="evenodd" points="372,37.3 419.1,42.3 419.1,39.8 372,34.8 "/>
<polygon fill-rule="evenodd" clip-rule="evenodd" points="441.3,18.7 488.2,23.7 488.2,21.2 441.3,16.2 "/>
<polygon fill-rule="evenodd" clip-rule="evenodd" points="441.3,15 488.2,20 488.2,17.5 441.3,12.5 "/>
<rect x="8.5" y="84.2" width="544.4" height="0.5"/>
<rect x="8.5" y="79.3" width="544.4" height="0.5"/>
<rect x="8.5" y="74.3" width="544.4" height="0.5"/>
<rect x="8.5" y="69.3" width="544.4" height="0.5"/>
<rect x="8.5" y="64.4" width="544.4" height="0.5"/>
<g>
	<path d="M15.7,78.8c2.9-2.6,4.7-6.1,4.7-9.2c0-2.5-1.4-4.4-3.7-4.4c-1.6,0-3.4,1.3-3.4,2.7c0,0.2,0,0.3,0.1,0.3
		c-0.1,0,0.6-0.6,1.4-0.6c0.9,0,1.5,0.8,1.5,1.7c0,1.2-0.9,2.2-2.1,2.2c-1.2,0-2.1-1.3-2.1-2.8c0-2.3,2.3-4.1,4.8-4.1
		c4.7,0,5.9,3.2,5.9,5.8c0,1.6-0.4,2.9-2,5.3C19.1,78.7,14.6,81,13,81c-0.4,0-0.6-0.2-0.6-0.5C13.8,80.1,14.9,79.5,15.7,78.8z
		 M25.7,66.1c0.6,0,1,0.4,1,1c0,0.6-0.4,1-1,1s-1-0.4-1-1C24.7,66.5,25.1,66.1,25.7,66.1z M25.7,71c0.6,0,1,0.4,1,1c0,0.6-0.4,1-1,1
		s-1-0.4-1-1C24.7,71.5,25.1,71,25.7,71z"/>
</g>
<polygon fill-rule="evenodd" clip-rule="evenodd" points="37.1,85.7 84.1,80.7 84.1,78.2 37.1,83.2 "/>
<polygon fill-rule="evenodd" clip-rule="evenodd" points="37.1,89.4 84.1,84.4 84.1,82 37.1,86.9 "/>
<g>
	<path d="M167.1,83.1c-3.2,0-6.1-2.3-6.1-5.1c0-2.4,1.7-5,5.1-7.9c-0.2-0.9-0.3-1.8-0.3-2.7c0-2.6,0.9-5.1,2.4-6.3
		c1.4,1.9,2,3.7,2,5.3c0,2.2-1,4.2-3.2,6.1l0.7,3.1c0.4,0,0.6,0,0.6,0c2,0,3.6,1.5,3.6,3.5c0,1.4-1.1,2.8-2.7,3.6
		c0-0.1,0.6,2.8,0.6,3.3c0,1.9-1.7,3.2-3.7,3.2c-1.5,0-2.7-1-2.7-2.5c0-1.1,0.7-1.9,1.8-1.9c1,0,1.7,1,1.7,1.9c0,1-0.9,1.7-2,1.8
		c0.4,0.2,0.9,0.3,1.4,0.3c1.6,0,3.1-1.2,3.1-2.7c0-0.1,0-0.3,0-0.5l-0.6-2.8C168.3,83,167.8,83.1,167.1,83.1z M165.4,79.2
		c0,0.8,0.4,1.4,1.2,1.9c-1.3-0.2-2.2-1.1-2.2-2.3c0-1.5,1.3-2.8,2.9-3.1l-0.6-3c-2.8,2.1-4.3,4.1-4.3,6.1c0,2.2,2.1,4,4.5,4
		c0.7,0,1.3-0.1,1.8-0.4l-1.1-5.1C166.4,77.4,165.4,78.1,165.4,79.2z M168.5,63.2c-1.2,0-2.2,2.8-2.2,5.3c0,0.5,0,1,0.1,1.4
		c2-1.8,3-3.4,3-4.9c0-0.7-0.3-1.3-0.7-1.8C168.7,63.2,168.6,63.2,168.5,63.2z M170.5,79.6c0-1.2-0.9-2.4-2.2-2.4c0,0-0.2,0-0.4,0
		l1.1,5C170,81.4,170.5,80.6,170.5,79.6z"/>
</g>
<polygon fill-rule="evenodd" clip-rule="evenodd" points="99.8,75.8 146.9,70.8 146.9,68.3 99.8,73.3 "/>
<polygon fill-rule="evenodd" clip-rule="evenodd" points="99.8,79.5 146.9,74.5 146.9,72 99.8,77 "/>
<polygon fill-rule="evenodd" clip-rule="evenodd" points="179.8,70.8 226.7,65.8 226.7,63.4 179.8,68.3 "/>
<polygon fill-rule="evenodd" clip-rule="evenodd" points="179.8,67.1 226.7,62.1 226.7,59.6 179.8,64.6 "/>
<polygon fill-rule="evenodd" clip-rule="evenodd" points="235.9,86.9 283,85.7 283,83.2 235.9,84.4 "/>
<polygon fill-rule="evenodd" clip-rule="evenodd" points="235.9,90.6 283,89.4 283,86.9 235.9,88.2 "/>
<g>
	<path d="M360.5,76.5c2.2-2,3.6-4.6,3.6-6.9c0-1.9-1.1-3.3-2.8-3.3c-1.2,0-2.5,1-2.5,2.1c0,0.2,0,0.2,0.1,0.2c0,0,0.4-0.5,1-0.5
		c0.7,0,1.2,0.6,1.2,1.3c0,0.9-0.6,1.7-1.6,1.7s-1.5-1-1.5-2.1c0-1.8,1.7-3.1,3.6-3.1c3.5,0,4.4,2.4,4.4,4.4c0,1.2-0.3,2.2-1.5,4
		c-1.4,2.3-4.8,4-6,4c-0.3,0-0.5-0.1-0.5-0.3C359.1,77.4,359.9,77,360.5,76.5z M368,67c0.4,0,0.7,0.3,0.7,0.7c0,0.4-0.3,0.7-0.7,0.7
		c-0.4,0-0.7-0.3-0.7-0.7C367.2,67.3,367.6,67,368,67z M368,70.7c0.4,0,0.7,0.3,0.7,0.7s-0.3,0.7-0.7,0.7c-0.4,0-0.7-0.3-0.7-0.7
		S367.6,70.7,368,70.7z"/>
</g>
<polygon fill-rule="evenodd" clip-rule="evenodd" points="305.2,60.9 352.1,65.8 352.1,63.4 305.2,58.4 "/>
<polygon fill-rule="evenodd" clip-rule="evenodd" points="305.2,57.2 352.1,62.1 352.1,59.6 305.2,54.7 "/>
<polygon fill-rule="evenodd" clip-rule="evenodd" points="372,70.8 419.1,72 419.1,69.6 372,68.3 "/>
<polygon fill-rule="evenodd" clip-rule="evenodd" points="372,74.5 419.1,75.8 419.1,73.3 372,72 "/>
<polygon fill-rule="evenodd" clip-rule="evenodd" points="434.8,75.8 481.7,80.7 481.7,78.2 434.8,73.3 "/>
<polygon fill-rule="evenodd" clip-rule="evenodd" points="434.8,79.5 481.7,84.4 481.7,82 434.8,77 "/>
<rect x="43.4" y="17.6" width="0.5" height="18.9"/>
<g>
	<path d="M37,38.2c0-1.8,2.5-3.5,4.5-3.5c1.3,0,2.3,0.7,2.3,1.7c0,1.7-2.5,3.5-4.6,3.5C38,39.9,37,39.3,37,38.2z"/>
</g>
<rect x="59.1" y="16.1" width="0.5" height="18"/>
<g>
	<path d="M52.6,35.7c0-1.8,2.5-3.5,4.5-3.5c1.3,0,2.3,0.7,2.3,1.7c0,1.7-2.5,3.5-4.6,3.5C53.6,37.4,52.6,36.8,52.6,35.7z"/>
</g>
<rect x="74.7" y="14.4" width="0.5" height="17.2"/>
<g>
	<path d="M68.3,33.2c0-1.8,2.5-3.5,4.5-3.5c1.3,0,2.3,0.7,2.3,1.7c0,1.7-2.5,3.5-4.6,3.5C69.3,34.9,68.3,34.3,68.3,33.2z"/>
</g>
<rect x="90.4" y="12.7" width="0.5" height="16.4"/>
<g>
	<path d="M84,30.7c0-1.8,2.5-3.5,4.5-3.5c1.3,0,2.3,0.7,2.3,1.7c0,1.7-2.5,3.5-4.6,3.5C84.9,32.5,84,31.8,84,30.7z"/>
</g>
<rect x="99.5" y="28.2" width="0.5" height="14"/>
<g>
	<path d="M99.6,28.3c0-1.8,2.5-3.5,4.5-3.5c1.3,0,2.3,0.7,2.3,1.7c0,1.7-2.5,3.5-4.6,3.5C100.6,30,99.6,29.3,99.6,28.3z"/>
</g>
<rect x="115.3" y="25.7" width="0.5" height="14.9"/>
<g>
	<path d="M115.4,25.8c0-1.8,2.5-3.5,4.5-3.5c1.3,0,2.3,0.7,2.3,1.7c0,1.7-2.5,3.5-4.6,3.5C116.4,27.5,115.4,26.9,115.4,25.8z"/>
</g>
<rect x="131" y="23.2" width="0.5" height="15.7"/>
<g>
	<path d="M131.1,23.3c0-1.8,2.5-3.5,4.5-3.5c1.3,0,2.3,0.7,2.3,1.7c0,1.7-2.5,3.5-4.6,3.5C132,25,131.1,24.4,131.1,23.3z"/>
</g>
<rect x="146.7" y="20.7" width="0.5" height="16.4"/>
<g>
	<path d="M146.7,20.8c0-1.8,2.5-3.5,4.5-3.5c1.3,0,2.3,0.7,2.3,1.7c0,1.7-2.5,3.5-4.6,3.5C147.7,22.5,146.7,21.9,146.7,20.8z"/>
</g>
<rect x="173" y="18.3" width="0.5" height="14"/>
<g>
	<path d="M173.1,18.3c0-1.8,2.5-3.5,4.5-3.5c1.3,0,2.3,0.7,2.3,1.7c0,1.7-2.5,3.5-4.6,3.5C174.1,20.1,173.1,19.4,173.1,18.3z"/>
</g>
<rect x="188.7" y="15.8" width="0.5" height="14.9"/>
<g>
	<path d="M188.7,15.9c0-1.8,2.5-3.5,4.5-3.5c1.3,0,2.3,0.7,2.3,1.7c0,1.7-2.5,3.5-4.6,3.5C189.7,17.6,188.7,16.9,188.7,15.9z"/>
</g>
<rect x="202.5" y="12.1" width="10.5" height="0.8"/>
<rect x="204.3" y="13.3" width="0.5" height="15.7"/>
<g>
	<path d="M204.4,13.4c0-1.8,2.5-3.5,4.5-3.5c1.3,0,2.3,0.7,2.3,1.7c0,1.7-2.5,3.5-4.6,3.5C205.4,15.1,204.4,14.5,204.4,13.4z"/>
</g>
<rect x="218.2" y="12.1" width="10.5" height="0.8"/>
<rect x="220" y="10.8" width="0.5" height="16.4"/>
<g>
	<path d="M220.1,10.9c0-1.8,2.5-3.5,4.5-3.5c1.3,0,2.3,0.7,2.3,1.7c0,1.7-2.5,3.5-4.6,3.5C221,12.6,220.1,12,220.1,10.9z"/>
</g>
<rect x="233.9" y="12.1" width="10.5" height="0.8"/>
<rect x="233.9" y="7.2" width="10.5" height="0.8"/>
<rect x="235.6" y="8.3" width="0.5" height="20.2"/>
<g>
	<path d="M235.7,8.4c0-1.8,2.5-3.5,4.5-3.5c1.3,0,2.3,0.7,2.3,1.7c0,1.7-2.5,3.5-4.6,3.5C236.7,10.1,235.7,9.5,235.7,8.4z"/>
</g>
<rect x="249.5" y="12.1" width="10.5" height="0.8"/>
<rect x="249.5" y="7.2" width="10.5" height="0.8"/>
<rect x="251.3" y="5.9" width="0.5" height="22.3"/>
<g>
	<path d="M251.4,5.9c0-1.8,2.5-3.5,4.5-3.5c1.3,0,2.3,0.7,2.3,1.7c0,1.7-2.5,3.5-4.6,3.5C252.3,7.7,251.4,7,251.4,5.9z"/>
</g>
<rect x="265.3" y="12.1" width="10.5" height="0.8"/>
<rect x="265.3" y="7.2" width="10.5" height="0.8"/>
<rect x="265.3" y="2.2" width="10.5" height="0.8"/>
<rect x="267.1" y="3.4" width="0.5" height="24.3"/>
<g>
	<path d="M267.2,3.5c0-1.8,2.5-3.5,4.5-3.5c1.3,0,2.3,0.7,2.3,1.7c0,1.7-2.5,3.5-4.6,3.5C268.2,5.2,267.2,4.5,267.2,3.5z"/>
</g>
<rect x="281" y="12.1" width="10.5" height="0.8"/>
<rect x="281" y="7.2" width="10.5" height="0.8"/>
<rect x="282.8" y="5.9" width="0.5" height="21.4"/>
<g>
	<path d="M282.8,5.9c0-1.8,2.5-3.5,4.5-3.5c1.3,0,2.3,0.7,2.3,1.7c0,1.7-2.5,3.5-4.6,3.5C283.8,7.7,282.8,7,282.8,5.9z"/>
</g>
<rect x="296.6" y="12.1" width="10.5" height="0.8"/>
<rect x="296.6" y="7.2" width="10.5" height="0.8"/>
<rect x="298.4" y="8.3" width="0.5" height="18.9"/>
<g>
	<path d="M298.5,8.4c0-1.8,2.5-3.5,4.5-3.5c1.3,0,2.3,0.7,2.3,1.7c0,1.7-2.5,3.5-4.6,3.5C299.5,10.1,298.5,9.5,298.5,8.4z"/>
</g>
<rect x="312.3" y="12.1" width="10.5" height="0.8"/>
<rect x="314.1" y="10.8" width="0.5" height="18"/>
<g>
	<path d="M314.1,10.9c0-1.8,2.5-3.5,4.5-3.5c1.3,0,2.3,0.7,2.3,1.7c0,1.7-2.5,3.5-4.6,3.5C315.1,12.6,314.1,12,314.1,10.9z"/>
</g>
<rect x="327.9" y="12.1" width="10.5" height="0.8"/>
<rect x="329.7" y="13.3" width="0.5" height="17.2"/>
<g>
	<path d="M329.8,13.4c0-1.8,2.5-3.5,4.5-3.5c1.3,0,2.3,0.7,2.3,1.7c0,1.7-2.5,3.5-4.6,3.5C330.8,15.1,329.8,14.5,329.8,13.4z"/>
</g>
<rect x="345.4" y="15.8" width="0.5" height="16.4"/>
<g>
	<path d="M345.5,15.9c0-1.8,2.5-3.5,4.5-3.5c1.3,0,2.3,0.7,2.3,1.7c0,1.7-2.5,3.5-4.6,3.5C346.4,17.6,345.5,16.9,345.5,15.9z"/>
</g>
<rect x="371.7" y="18.3" width="0.5" height="18.9"/>
<g>
	<path d="M371.8,18.3c0-1.8,2.5-3.5,4.5-3.5c1.3,0,2.3,0.7,2.3,1.7c0,1.7-2.5,3.5-4.6,3.5C372.8,20.1,371.8,19.4,371.8,18.3z"/>
</g>
<rect x="387.4" y="20.7" width="0.5" height="18"/>
<g>
	<path d="M387.5,20.8c0-1.8,2.5-3.5,4.5-3.5c1.3,0,2.3,0.7,2.3,1.7c0,1.7-2.5,3.5-4.6,3.5C388.4,22.5,387.5,21.9,387.5,20.8z"/>
</g>
<rect x="403.1" y="23.2" width="0.5" height="17.2"/>
<g>
	<path d="M403.1,23.3c0-1.8,2.5-3.5,4.5-3.5c1.3,0,2.3,0.7,2.3,1.7c0,1.7-2.5,3.5-4.6,3.5C404.1,25,403.1,24.4,403.1,23.3z"/>
</g>
<rect x="418.9" y="25.7" width="0.5" height="16.4"/>
<g>
	<path d="M418.9,25.8c0-1.8,2.5-3.5,4.5-3.5c1.3,0,2.3,0.7,2.3,1.7c0,1.7-2.5,3.5-4.6,3.5C419.9,27.5,418.9,26.9,418.9,25.8z"/>
</g>
<rect x="441" y="12.7" width="0.5" height="14"/>
<g>
	<path d="M434.6,28.3c0-1.8,2.5-3.5,4.5-3.5c1.3,0,2.3,0.7,2.3,1.7c0,1.7-2.5,3.5-4.6,3.5C435.6,30,434.6,29.3,434.6,28.3z"/>
</g>
<rect x="456.7" y="14.2" width="0.5" height="14.9"/>
<g>
	<path d="M450.3,30.7c0-1.8,2.5-3.5,4.5-3.5c1.3,0,2.3,0.7,2.3,1.7c0,1.7-2.5,3.5-4.6,3.5C451.2,32.5,450.3,31.8,450.3,30.7z"/>
</g>
<rect x="472.3" y="15.9" width="0.5" height="15.7"/>
<g>
	<path d="M465.9,33.2c0-1.8,2.5-3.5,4.5-3.5c1.3,0,2.3,0.7,2.3,1.7c0,1.7-2.5,3.5-4.6,3.5C466.9,34.9,465.9,34.3,465.9,33.2z"/>
</g>
<rect x="488" y="17.6" width="0.5" height="16.4"/>
<g>
	<path d="M481.6,35.7c0-1.8,2.5-3.5,4.5-3.5c1.3,0,2.3,0.7,2.3,1.7c0,1.7-2.5,3.5-4.6,3.5C482.5,37.4,481.6,36.8,481.6,35.7z"/>
</g>
<rect x="503.8" y="20" width="0.5" height="16.6"/>
<g>
	<path d="M501.5,34.6c1.6,0,2.7,0.7,2.7,2c0,1.9-2.3,3.4-4.5,3.4c-1.3,0-2.4-0.7-2.4-1.8C497.2,36.4,499.5,34.6,501.5,34.6z
		 M497.7,38.5c0,0.6,0.4,0.9,1.1,0.9c1.4,0,4.9-2.1,4.9-3.3c0-0.6-0.4-0.9-1.1-0.9C501.3,35.2,497.7,37.2,497.7,38.5z"/>
</g>
<rect x="36.9" y="72.8" width="0.5" height="16.4"/>
<g>
	<path d="M37,72.9c0-1.8,2.5-3.5,4.5-3.5c1.3,0,2.3,0.7,2.3,1.7c0,1.7-2.5,3.5-4.6,3.5C38,74.6,37,74,37,72.9z"/>
</g>
<rect x="52.6" y="70.3" width="0.5" height="17.4"/>
<g>
	<path d="M52.6,70.4c0-1.8,2.5-3.5,4.5-3.5c1.3,0,2.3,0.7,2.3,1.7c0,1.7-2.5,3.5-4.6,3.5C53.6,72.1,52.6,71.5,52.6,70.4z"/>
</g>
<rect x="68.2" y="67.9" width="0.5" height="18.1"/>
<g>
	<path d="M68.3,67.9c0-1.8,2.5-3.5,4.5-3.5c1.3,0,2.3,0.7,2.3,1.7c0,1.7-2.5,3.5-4.6,3.5C69.3,69.7,68.3,69,68.3,67.9z"/>
</g>
<rect x="83.9" y="65.4" width="0.5" height="18.9"/>
<g>
	<path d="M84,65.5c0-1.8,2.5-3.5,4.5-3.5c1.3,0,2.3,0.7,2.3,1.7c0,1.7-2.5,3.5-4.6,3.5C84.9,67.2,84,66.5,84,65.5z"/>
</g>
<rect x="99.5" y="62.9" width="0.5" height="16.4"/>
<g>
	<path d="M99.6,63c0-1.8,2.5-3.5,4.5-3.5c1.3,0,2.3,0.7,2.3,1.7c0,1.7-2.5,3.5-4.6,3.5C100.6,64.7,99.6,64.1,99.6,63z"/>
</g>
<rect x="113.6" y="59.3" width="10.5" height="0.8"/>
<rect x="115.3" y="60.4" width="0.5" height="17.4"/>
<g>
	<path d="M115.4,60.5c0-1.8,2.5-3.5,4.5-3.5c1.3,0,2.3,0.7,2.3,1.7c0,1.7-2.5,3.5-4.6,3.5C116.4,62.2,115.4,61.6,115.4,60.5z"/>
</g>
<rect x="129.2" y="59.3" width="10.5" height="0.8"/>
<rect x="131" y="57.9" width="0.5" height="18.1"/>
<g>
	<path d="M131.1,58c0-1.8,2.5-3.5,4.5-3.5c1.3,0,2.3,0.7,2.3,1.7c0,1.7-2.5,3.5-4.6,3.5C132,59.7,131.1,59.1,131.1,58z"/>
</g>
<rect x="144.9" y="59.3" width="10.5" height="0.8"/>
<rect x="144.9" y="54.3" width="10.5" height="0.8"/>
<rect x="146.7" y="55.5" width="0.5" height="18.9"/>
<g>
	<path d="M146.7,55.5c0-1.8,2.5-3.5,4.5-3.5c1.3,0,2.3,0.7,2.3,1.7c0,1.7-2.5,3.5-4.6,3.5C147.7,57.3,146.7,56.6,146.7,55.5z"/>
</g>
<rect x="179.5" y="64.8" width="0.5" height="16.4"/>
<g>
	<path d="M173.1,82.8c0-1.8,2.5-3.5,4.5-3.5c1.3,0,2.3,0.7,2.3,1.7c0,1.7-2.5,3.5-4.6,3.5C174.1,84.5,173.1,83.9,173.1,82.8z"/>
</g>
<rect x="195.2" y="63.2" width="0.5" height="15.5"/>
<g>
	<path d="M188.7,80.3c0-1.8,2.5-3.5,4.5-3.5c1.3,0,2.3,0.7,2.3,1.7c0,1.7-2.5,3.5-4.6,3.5C189.7,82.1,188.7,81.4,188.7,80.3z"/>
</g>
<rect x="210.8" y="61.5" width="0.5" height="14.7"/>
<g>
	<path d="M204.4,77.9c0-1.8,2.5-3.5,4.5-3.5c1.3,0,2.3,0.7,2.3,1.7c0,1.7-2.5,3.5-4.6,3.5C205.4,79.6,204.4,78.9,204.4,77.9z"/>
</g>
<rect x="226.5" y="59.8" width="0.5" height="14"/>
<g>
	<path d="M220.1,75.4c0-1.8,2.5-3.5,4.5-3.5c1.3,0,2.3,0.7,2.3,1.7c0,1.7-2.5,3.5-4.6,3.5C221,77.1,220.1,76.5,220.1,75.4z"/>
</g>
<rect x="235.6" y="72.8" width="0.5" height="17.7"/>
<g>
	<path d="M235.7,72.9c0-1.8,2.5-3.5,4.5-3.5c1.3,0,2.3,0.7,2.3,1.7c0,1.7-2.5,3.5-4.6,3.5C236.7,74.6,235.7,74,235.7,72.9z"/>
</g>
<rect x="251.3" y="70.3" width="0.5" height="19.8"/>
<g>
	<path d="M251.4,70.4c0-1.8,2.5-3.5,4.5-3.5c1.3,0,2.3,0.7,2.3,1.7c0,1.7-2.5,3.5-4.6,3.5C252.3,72.1,251.4,71.5,251.4,70.4z"/>
</g>
<rect x="267.1" y="67.9" width="0.5" height="21.9"/>
<g>
	<path d="M267.2,67.9c0-1.8,2.5-3.5,4.5-3.5c1.3,0,2.3,0.7,2.3,1.7c0,1.7-2.5,3.5-4.6,3.5C268.2,69.7,267.2,69,267.2,67.9z"/>
</g>
<rect x="282.8" y="70.3" width="0.5" height="18.9"/>
<g>
	<path d="M282.8,70.4c0-1.8,2.5-3.5,4.5-3.5c1.3,0,2.3,0.7,2.3,1.7c0,1.7-2.5,3.5-4.6,3.5C283.8,72.1,282.8,71.5,282.8,70.4z"/>
</g>
<rect x="304.9" y="54.8" width="0.5" height="16.4"/>
<g>
	<path d="M298.5,72.9c0-1.8,2.5-3.5,4.5-3.5c1.3,0,2.3,0.7,2.3,1.7c0,1.7-2.5,3.5-4.6,3.5C299.5,74.6,298.5,74,298.5,72.9z"/>
</g>
<rect x="320.6" y="56.4" width="0.5" height="17.4"/>
<g>
	<path d="M314.1,75.4c0-1.8,2.5-3.5,4.5-3.5c1.3,0,2.3,0.7,2.3,1.7c0,1.7-2.5,3.5-4.6,3.5C315.1,77.1,314.1,76.5,314.1,75.4z"/>
</g>
<rect x="336.2" y="58.1" width="0.5" height="18.1"/>
<g>
	<path d="M329.8,77.9c0-1.8,2.5-3.5,4.5-3.5c1.3,0,2.3,0.7,2.3,1.7c0,1.7-2.5,3.5-4.6,3.5C330.8,79.6,329.8,78.9,329.8,77.9z"/>
</g>
<rect x="351.9" y="59.8" width="0.5" height="18.9"/>
<g>
	<path d="M345.5,80.3c0-1.8,2.5-3.5,4.5-3.5c1.3,0,2.3,0.7,2.3,1.7c0,1.7-2.5,3.5-4.6,3.5C346.4,82.1,345.5,81.4,345.5,80.3z"/>
</g>
<rect x="370" y="59.3" width="10.5" height="0.8"/>
<rect x="370" y="54.3" width="10.5" height="0.8"/>
<rect x="371.7" y="53" width="0.5" height="21.4"/>
<g>
	<path d="M371.8,53.1c0-1.8,2.5-3.5,4.5-3.5c1.3,0,2.3,0.7,2.3,1.7c0,1.7-2.5,3.5-4.6,3.5C372.8,54.8,371.8,54.1,371.8,53.1z"/>
</g>
<rect x="385.6" y="59.3" width="10.5" height="0.8"/>
<rect x="385.6" y="54.3" width="10.5" height="0.8"/>
<rect x="387.4" y="55.5" width="0.5" height="19.2"/>
<g>
	<path d="M387.5,55.5c0-1.8,2.5-3.5,4.5-3.5c1.3,0,2.3,0.7,2.3,1.7c0,1.7-2.5,3.5-4.6,3.5C388.4,57.3,387.5,56.6,387.5,55.5z"/>
</g>
<rect x="401.3" y="59.3" width="10.5" height="0.8"/>
<rect x="403.1" y="57.9" width="0.5" height="17.2"/>
<g>
	<path d="M403.1,58c0-1.8,2.5-3.5,4.5-3.5c1.3,0,2.3,0.7,2.3,1.7c0,1.7-2.5,3.5-4.6,3.5C404.1,59.7,403.1,59.1,403.1,58z"/>
</g>
<rect x="417.1" y="59.3" width="10.5" height="0.8"/>
<rect x="418.9" y="60.4" width="0.5" height="15.2"/>
<g>
	<path d="M418.9,60.5c0-1.8,2.5-3.5,4.5-3.5c1.3,0,2.3,0.7,2.3,1.7c0,1.7-2.5,3.5-4.6,3.5C419.9,62.2,418.9,61.6,418.9,60.5z"/>
</g>
<rect x="434.5" y="62.9" width="0.5" height="16.4"/>
<g>
	<path d="M434.6,63c0-1.8,2.5-3.5,4.5-3.5c1.3,0,2.3,0.7,2.3,1.7c0,1.7-2.5,3.5-4.6,3.5C435.6,64.7,434.6,64.1,434.6,63z"/>
</g>
<rect x="450.2" y="65.4" width="0.5" height="15.5"/>
<g>
	<path d="M450.3,65.5c0-1.8,2.5-3.5,4.5-3.5c1.3,0,2.3,0.7,2.3,1.7c0,1.7-2.5,3.5-4.6,3.5C451.2,67.2,450.3,66.5,450.3,65.5z"/>
</g>
<rect x="465.8" y="67.9" width="0.5" height="14.7"/>
<g>
	<path d="M465.9,67.9c0-1.8,2.5-3.5,4.5-3.5c1.3,0,2.3,0.7,2.3,1.7c0,1.7-2.5,3.5-4.6,3.5C466.9,69.7,465.9,69,465.9,67.9z"/>
</g>
<rect x="481.5" y="70.3" width="0.5" height="14"/>
<g>
	<path d="M481.6,70.4c0-1.8,2.5-3.5,4.5-3.5c1.3,0,2.3,0.7,2.3,1.7c0,1.7-2.5,3.5-4.6,3.5C482.5,72.1,481.6,71.5,481.6,70.4z"/>
</g>
<rect x="497.1" y="72.8" width="0.5" height="16.6"/>
<g>
	<path d="M501.5,69.3c1.6,0,2.7,0.7,2.7,2c0,1.9-2.3,3.4-4.5,3.4c-1.3,0-2.4-0.7-2.4-1.8C497.2,71.1,499.5,69.3,501.5,69.3z
		 M497.7,73.2c0,0.6,0.4,0.9,1.1,0.9c1.4,0,4.9-2.1,4.9-3.3c0-0.6-0.4-0.9-1.1-0.9C501.3,69.9,497.7,72,497.7,73.2z"/>
</g>
</svg>
