<?xml version="1.0" encoding="utf-8"?>

<!--
	ScaleBook
	Copyright (c) Leland Jansen 2015. All rights reserved.
-->

<!DOCTYPE svg PUBLIC "-//W3C//DTD SVG 1.1//EN" "http://www.w3.org/Graphics/SVG/1.1/DTD/svg11.dtd">
<svg version="1.1" id="Layer_1" xmlns="http://www.w3.org/2000/svg" xmlns:xlink="http://www.w3.org/1999/xlink" x="0px" y="0px"
	 viewBox="0 0 552.9 86.8" enable-background="new 0 0 552.9 86.8" xml:space="preserve">
<rect x="8.4" y="9.9" width="0.8" height="67"/>
<g>
	<path d="M7.4,10.6c-1.9,1.1-3.6,5.8-3.6,9.4c0,2.3,1.4,9.9,1.4,12.3c0,5-1.5,8.6-4.6,11.1c3,2.4,4.6,6.1,4.6,11.1
		c0,2.3-1.4,9.9-1.4,12.3c0,3.8,1.7,8.4,3.6,9.5v0.7c-3.5-2.3-5.8-8.2-5.8-13.1c0-2.1,1.7-9.4,1.7-11.5c0-3.8-1-6.6-2.9-8.2
		C0.1,43.8,0,43.6,0,43.4c0-0.2,0.1-0.4,0.5-0.7c1.9-1.7,2.9-4.2,2.9-7.6c0-2.1-1.7-10-1.7-12.2c0-5.2,2.1-10.4,5.8-13.1V10.6z"/>
</g>
<rect x="547.8" y="9.9" width="0.8" height="67"/>
<rect x="550.4" y="9.9" width="2.5" height="67"/>
<rect x="8.5" y="29.5" width="544.4" height="0.5"/>
<rect x="8.5" y="24.6" width="544.4" height="0.5"/>
<rect x="8.5" y="19.6" width="544.4" height="0.5"/>
<rect x="8.5" y="14.6" width="544.4" height="0.5"/>
<rect x="8.5" y="9.7" width="544.4" height="0.5"/>
<g>
	<path d="M20.3,29.6c-4.2,0-8.1-3.1-8.1-6.9c0-3.2,2.3-6.7,6.8-10.5c-0.3-1.2-0.4-2.4-0.4-3.6c0-3.5,1.2-6.8,3.2-8.5
		c1.8,2.5,2.7,4.9,2.7,7.1c0,2.9-1.3,5.6-4.3,8.1l0.9,4.2c0.5,0,0.8-0.1,0.8-0.1c2.6,0,4.8,2,4.8,4.7c0,1.9-1.4,3.7-3.6,4.8
		c0-0.1,0.9,3.8,0.9,4.3c0,2.5-2.3,4.2-4.9,4.2c-2,0-3.6-1.3-3.6-3.4c0-1.4,1-2.6,2.4-2.6c1.3,0,2.3,1.3,2.3,2.5
		c0,1.4-1.2,2.3-2.7,2.5c0.6,0.3,1.2,0.5,1.9,0.5c2.1,0,4.1-1.6,4.1-3.6c0-0.2,0-0.4-0.1-0.6l-0.8-3.7
		C21.9,29.5,21.2,29.6,20.3,29.6z M18.1,24.4c0,1,0.5,1.9,1.6,2.5c-1.8-0.3-3-1.4-3-3.1c0-2,1.7-3.7,3.8-4.1l-0.8-4
		C16,18.5,14,21.2,14,23.8c0,2.9,2.8,5.3,6,5.3c0.9,0,1.7-0.2,2.4-0.5L21,21.8C19.4,22,18.1,23,18.1,24.4z M22.1,3
		c-1.6,0-2.9,3.7-2.9,7c0,0.7,0,1.3,0.2,1.9c2.7-2.4,4-4.5,4-6.5c0-0.9-0.3-1.7-1-2.4C22.4,3.1,22.3,3,22.1,3z M24.9,24.9
		c0-1.6-1.2-3.3-2.9-3.3c-0.1,0-0.2,0-0.5,0l1.4,6.6C24.2,27.4,24.9,26.2,24.9,24.9z"/>
</g>
<g>
	<path d="M29.5,11.5h0.6L30,17.8c0.4-0.7,1-1,1.8-1c1.2,0,2.2,0.8,2.2,1.9c0,0.8-0.5,1.8-1.7,2.7l-2.8,2.1V11.5z M30.1,18.4
		C30,19.2,30,19.8,30,20.4c0,1,0,1.6,0.1,2c1-0.7,2.4-2.6,2.4-3.7c0-0.6-0.5-1.1-1.1-1.1C30.8,17.6,30.4,17.9,30.1,18.4z"/>
</g>
<g>
	<path d="M35.1,4.1h0.6l-0.1,6.2c0.4-0.7,1-1,1.8-1c1.2,0,2.2,0.8,2.2,1.9c0,0.8-0.5,1.8-1.7,2.7L35.1,16V4.1z M35.7,11
		c-0.1,0.8-0.1,1.4-0.1,1.9c0,1,0,1.6,0.1,2c1-0.7,2.4-2.6,2.4-3.7c0-0.6-0.5-1.1-1.1-1.1C36.4,10.2,36,10.4,35.7,11z"/>
</g>
<g>
	<path d="M40.7,14h0.6l-0.1,6.2c0.4-0.7,1-1,1.8-1c1.2,0,2.2,0.8,2.2,1.9c0,0.8-0.5,1.8-1.7,2.7L40.7,26V14z M41.3,20.9
		c-0.1,0.8-0.1,1.4-0.1,1.9c0,1,0,1.6,0.1,2c1-0.7,2.4-2.6,2.4-3.7c0-0.6-0.5-1.1-1.1-1.1C42,20.1,41.6,20.4,41.3,20.9z"/>
</g>
<g>
	<path d="M46.3,6.6h0.6l-0.1,6.2c0.4-0.7,1-1,1.8-1c1.2,0,2.2,0.8,2.2,1.9c0,0.8-0.5,1.8-1.7,2.7l-2.8,2.1V6.6z M46.9,13.5
		c-0.1,0.8-0.1,1.4-0.1,1.9c0,1,0,1.6,0.1,2c1-0.7,2.4-2.6,2.4-3.7c0-0.6-0.5-1.1-1.1-1.1C47.6,12.6,47.2,12.9,46.9,13.5z"/>
</g>
<g>
	<path d="M51.9,16.5h0.6l-0.1,6.2c0.4-0.7,1-1,1.8-1c1.2,0,2.2,0.8,2.2,1.9c0,0.8-0.5,1.8-1.7,2.7l-2.8,2.1V16.5z M52.4,23.4
		c-0.1,0.8-0.1,1.4-0.1,1.9c0,1,0,1.6,0.1,2c1-0.7,2.4-2.6,2.4-3.7c0-0.6-0.5-1.1-1.1-1.1C53.2,22.6,52.7,22.8,52.4,23.4z"/>
</g>
<polygon fill-rule="evenodd" clip-rule="evenodd" points="71.6,26 117.9,24.8 117.9,22.3 71.6,23.6 "/>
<polygon fill-rule="evenodd" clip-rule="evenodd" points="71.6,22.3 117.9,21.1 117.9,18.6 71.6,19.8 "/>
<polygon fill-rule="evenodd" clip-rule="evenodd" points="133.4,21.1 179.8,16.1 179.8,13.6 133.4,18.6 "/>
<polygon fill-rule="evenodd" clip-rule="evenodd" points="133.4,17.4 179.8,12.4 179.8,9.9 133.4,14.9 "/>
<polygon fill-rule="evenodd" clip-rule="evenodd" points="195.3,11.2 241.6,6.2 241.6,3.7 195.3,8.7 "/>
<polygon fill-rule="evenodd" clip-rule="evenodd" points="195.3,7.4 241.6,2.5 241.6,0 195.3,5 "/>
<polygon fill-rule="evenodd" clip-rule="evenodd" points="250.6,27.3 296.9,26 296.9,23.6 250.6,24.8 "/>
<polygon fill-rule="evenodd" clip-rule="evenodd" points="250.6,31 296.9,29.8 296.9,27.3 250.6,28.5 "/>
<polygon fill-rule="evenodd" clip-rule="evenodd" points="312.4,31 358.8,36 358.8,33.5 312.4,28.5 "/>
<polygon fill-rule="evenodd" clip-rule="evenodd" points="312.4,34.7 358.8,39.7 358.8,37.2 312.4,32.2 "/>
<polygon fill-rule="evenodd" clip-rule="evenodd" points="380.8,16.1 427.2,21.1 427.2,18.6 380.8,13.6 "/>
<polygon fill-rule="evenodd" clip-rule="evenodd" points="380.8,12.4 427.2,17.4 427.2,14.9 380.8,9.9 "/>
<polygon fill-rule="evenodd" clip-rule="evenodd" points="442.7,24.8 489.2,26 489.2,23.6 442.7,22.3 "/>
<polygon fill-rule="evenodd" clip-rule="evenodd" points="442.7,21.1 489.2,22.3 489.2,19.8 442.7,18.6 "/>
<rect x="8.5" y="76.7" width="544.4" height="0.5"/>
<rect x="8.5" y="71.7" width="544.4" height="0.5"/>
<rect x="8.5" y="66.7" width="544.4" height="0.5"/>
<rect x="8.5" y="61.8" width="544.4" height="0.5"/>
<rect x="8.5" y="56.8" width="544.4" height="0.5"/>
<g>
	<path d="M15.7,71.2c2.9-2.6,4.7-6.1,4.7-9.2c0-2.5-1.4-4.4-3.7-4.4c-1.6,0-3.4,1.3-3.4,2.7c0,0.2,0,0.3,0.1,0.3
		c-0.1,0,0.6-0.6,1.4-0.6c0.9,0,1.5,0.8,1.5,1.7c0,1.2-0.9,2.2-2.1,2.2c-1.2,0-2.1-1.3-2.1-2.8c0-2.3,2.3-4.1,4.8-4.1
		c4.7,0,5.9,3.2,5.9,5.8c0,1.6-0.4,2.9-2,5.3c-1.9,3.1-6.4,5.3-8.1,5.3c-0.4,0-0.6-0.2-0.6-0.5C13.8,72.5,14.9,71.9,15.7,71.2z
		 M25.7,58.5c0.6,0,1,0.4,1,1c0,0.6-0.4,1-1,1s-1-0.4-1-1C24.7,59,25.1,58.5,25.7,58.5z M25.7,63.5c0.6,0,1,0.4,1,1c0,0.6-0.4,1-1,1
		s-1-0.4-1-1C24.7,63.9,25.1,63.5,25.7,63.5z"/>
</g>
<g>
	<path d="M29.5,63.6h0.6L30,69.9c0.4-0.7,1-1,1.8-1c1.2,0,2.2,0.8,2.2,1.9c0,0.8-0.5,1.8-1.7,2.7l-2.8,2.1V63.6z M30.1,70.5
		C30,71.3,30,71.9,30,72.5c0,1,0,1.6,0.1,2c1-0.7,2.4-2.6,2.4-3.7c0-0.6-0.5-1.1-1.1-1.1C30.8,69.7,30.4,70,30.1,70.5z"/>
</g>
<g>
	<path d="M35.1,56.2h0.6l-0.1,6.2c0.4-0.7,1-1,1.8-1c1.2,0,2.2,0.8,2.2,1.9c0,0.8-0.5,1.8-1.7,2.7l-2.8,2.1V56.2z M35.7,63.1
		c-0.1,0.8-0.1,1.4-0.1,1.9c0,1,0,1.6,0.1,2c1-0.7,2.4-2.6,2.4-3.7c0-0.6-0.5-1.1-1.1-1.1C36.4,62.2,36,62.5,35.7,63.1z"/>
</g>
<g>
	<path d="M40.7,66.1h0.6l-0.1,6.2c0.4-0.7,1-1,1.8-1c1.2,0,2.2,0.8,2.2,1.9c0,0.8-0.5,1.8-1.7,2.7L40.7,78V66.1z M41.3,73
		c-0.1,0.8-0.1,1.4-0.1,1.9c0,1,0,1.6,0.1,2c1-0.7,2.4-2.6,2.4-3.7c0-0.6-0.5-1.1-1.1-1.1C42,72.2,41.6,72.4,41.3,73z"/>
</g>
<g>
	<path d="M46.3,58.7h0.6l-0.1,6.2c0.4-0.7,1-1,1.8-1c1.2,0,2.2,0.8,2.2,1.9c0,0.8-0.5,1.8-1.7,2.7l-2.8,2.1V58.7z M46.9,65.6
		c-0.1,0.8-0.1,1.4-0.1,1.9c0,1,0,1.6,0.1,2c1-0.7,2.4-2.6,2.4-3.7c0-0.6-0.5-1.1-1.1-1.1C47.6,64.7,47.2,65,46.9,65.6z"/>
</g>
<g>
	<path d="M51.9,68.6h0.6l-0.1,6.2c0.4-0.7,1-1,1.8-1c1.2,0,2.2,0.8,2.2,1.9c0,0.8-0.5,1.8-1.7,2.7l-2.8,2.1V68.6z M52.4,75.5
		c-0.1,0.8-0.1,1.4-0.1,1.9c0,1,0,1.6,0.1,2c1-0.7,2.4-2.6,2.4-3.7c0-0.6-0.5-1.1-1.1-1.1C53.2,74.6,52.7,74.9,52.4,75.5z"/>
</g>
<polygon fill-rule="evenodd" clip-rule="evenodd" points="71.6,68.2 117.9,63.2 117.9,60.8 71.6,65.7 "/>
<polygon fill-rule="evenodd" clip-rule="evenodd" points="71.6,64.5 117.9,59.5 117.9,57 71.6,62 "/>
<polygon fill-rule="evenodd" clip-rule="evenodd" points="126.9,83.1 173.2,78.1 173.2,75.6 126.9,80.6 "/>
<polygon fill-rule="evenodd" clip-rule="evenodd" points="126.9,86.8 173.2,81.8 173.2,79.4 126.9,84.3 "/>
<polygon fill-rule="evenodd" clip-rule="evenodd" points="188.7,73.2 235.1,68.2 235.1,65.7 188.7,70.7 "/>
<polygon fill-rule="evenodd" clip-rule="evenodd" points="188.7,76.9 235.1,71.9 235.1,69.4 188.7,74.4 "/>
<polygon fill-rule="evenodd" clip-rule="evenodd" points="250.6,64.5 296.9,63.2 296.9,60.8 250.6,62 "/>
<polygon fill-rule="evenodd" clip-rule="evenodd" points="250.6,68.2 296.9,67 296.9,64.5 250.6,65.7 "/>
<polygon fill-rule="evenodd" clip-rule="evenodd" points="312.4,63.2 358.8,68.2 358.8,65.7 312.4,60.8 "/>
<polygon fill-rule="evenodd" clip-rule="evenodd" points="312.4,67 358.8,71.9 358.8,69.4 312.4,64.5 "/>
<polygon fill-rule="evenodd" clip-rule="evenodd" points="374.3,73.2 420.6,78.1 420.6,75.6 374.3,70.7 "/>
<polygon fill-rule="evenodd" clip-rule="evenodd" points="374.3,76.9 420.6,81.8 420.6,79.4 374.3,74.4 "/>
<polygon fill-rule="evenodd" clip-rule="evenodd" points="442.7,58.3 489.2,63.2 489.2,60.8 442.7,55.8 "/>
<polygon fill-rule="evenodd" clip-rule="evenodd" points="442.7,54.6 489.2,59.5 489.2,57 442.7,52.1 "/>
<rect x="63" y="34.3" width="10.5" height="0.8"/>
<rect x="63" y="39.3" width="10.5" height="0.8"/>
<rect x="63" y="44.3" width="10.5" height="0.8"/>
<rect x="71.3" y="20" width="0.5" height="23.9"/>
<g>
	<path d="M64.9,45.5c0-1.8,2.5-3.5,4.5-3.5c1.3,0,2.3,0.7,2.3,1.7c0,1.7-2.5,3.5-4.6,3.5C65.9,47.2,64.9,46.6,64.9,45.5z"/>
</g>
<rect x="78.5" y="34.3" width="10.5" height="0.8"/>
<rect x="78.5" y="39.3" width="10.5" height="0.8"/>
<rect x="86.8" y="19.7" width="0.5" height="21.7"/>
<g>
	<path d="M80.4,43c0-1.8,2.5-3.5,4.5-3.5c1.3,0,2.3,0.7,2.3,1.7c0,1.7-2.5,3.5-4.6,3.5C81.4,44.7,80.4,44.1,80.4,43z"/>
</g>
<rect x="94" y="34.3" width="10.5" height="0.8"/>
<rect x="94" y="39.3" width="10.5" height="0.8"/>
<rect x="102.3" y="19.2" width="0.5" height="19.7"/>
<g>
	<path d="M95.9,40.5c0-1.8,2.5-3.5,4.5-3.5c1.3,0,2.3,0.7,2.3,1.7c0,1.7-2.5,3.5-4.6,3.5C96.9,42.3,95.9,41.6,95.9,40.5z"/>
</g>
<rect x="109.4" y="34.3" width="10.5" height="0.8"/>
<rect x="117.7" y="18.8" width="0.5" height="17.7"/>
<g>
	<path d="M111.2,38.1c0-1.8,2.5-3.5,4.5-3.5c1.3,0,2.3,0.7,2.3,1.7c0,1.7-2.5,3.5-4.6,3.5C112.2,39.8,111.2,39.1,111.2,38.1z"/>
</g>
<rect x="124.9" y="34.3" width="10.5" height="0.8"/>
<rect x="133.2" y="15" width="0.5" height="18.9"/>
<g>
	<path d="M126.7,35.6c0-1.8,2.5-3.5,4.5-3.5c1.3,0,2.3,0.7,2.3,1.7c0,1.7-2.5,3.5-4.6,3.5C127.7,37.3,126.7,36.7,126.7,35.6z"/>
</g>
<rect x="148.7" y="13.5" width="0.5" height="18"/>
<g>
	<path d="M142.2,33.1c0-1.8,2.5-3.5,4.5-3.5c1.3,0,2.3,0.7,2.3,1.7c0,1.7-2.5,3.5-4.6,3.5C143.2,34.8,142.2,34.2,142.2,33.1z"/>
</g>
<rect x="164.2" y="11.8" width="0.5" height="17.2"/>
<g>
	<path d="M157.7,30.6c0-1.8,2.5-3.5,4.5-3.5c1.3,0,2.3,0.7,2.3,1.7c0,1.7-2.5,3.5-4.6,3.5C158.7,32.3,157.7,31.7,157.7,30.6z"/>
</g>
<rect x="179.5" y="10.1" width="0.5" height="16.4"/>
<g>
	<path d="M173.1,28.1c0-1.8,2.5-3.5,4.5-3.5c1.3,0,2.3,0.7,2.3,1.7c0,1.7-2.5,3.5-4.6,3.5C174.1,29.9,173.1,29.2,173.1,28.1z"/>
</g>
<rect x="195" y="5.1" width="0.5" height="18.9"/>
<g>
	<path d="M188.6,25.7c0-1.8,2.5-3.5,4.5-3.5c1.3,0,2.3,0.7,2.3,1.7c0,1.7-2.5,3.5-4.6,3.5C189.6,27.4,188.6,26.7,188.6,25.7z"/>
</g>
<rect x="210.5" y="3.6" width="0.5" height="18"/>
<g>
	<path d="M204.1,23.2c0-1.8,2.5-3.5,4.5-3.5c1.3,0,2.3,0.7,2.3,1.7c0,1.7-2.5,3.5-4.6,3.5C205.1,24.9,204.1,24.3,204.1,23.2z"/>
</g>
<rect x="226" y="1.9" width="0.5" height="17.2"/>
<g>
	<path d="M219.6,20.7c0-1.8,2.5-3.5,4.5-3.5c1.3,0,2.3,0.7,2.3,1.7c0,1.7-2.5,3.5-4.6,3.5C220.6,22.4,219.6,21.8,219.6,20.7z"/>
</g>
<rect x="241.4" y="0.2" width="0.5" height="16.4"/>
<g>
	<path d="M234.9,18.2c0-1.8,2.5-3.5,4.5-3.5c1.3,0,2.3,0.7,2.3,1.7c0,1.7-2.5,3.5-4.6,3.5C235.9,19.9,234.9,19.3,234.9,18.2z"/>
</g>
<rect x="250.4" y="15.7" width="0.5" height="15.2"/>
<g>
	<path d="M250.4,15.7c0-1.8,2.5-3.5,4.5-3.5c1.3,0,2.3,0.7,2.3,1.7c0,1.7-2.5,3.5-4.6,3.5C251.4,17.5,250.4,16.8,250.4,15.7z"/>
</g>
<rect x="265.9" y="13.2" width="0.5" height="17.4"/>
<g>
	<path d="M265.9,13.3c0-1.8,2.5-3.5,4.5-3.5c1.3,0,2.3,0.7,2.3,1.7c0,1.7-2.5,3.5-4.6,3.5C266.9,15,265.9,14.3,265.9,13.3z"/>
</g>
<rect x="281.4" y="10.7" width="0.5" height="19.4"/>
<g>
	<path d="M281.4,10.8c0-1.8,2.5-3.5,4.5-3.5c1.3,0,2.3,0.7,2.3,1.7c0,1.7-2.5,3.5-4.6,3.5C282.4,12.5,281.4,11.9,281.4,10.8z"/>
</g>
<rect x="296.7" y="13.2" width="0.5" height="16.4"/>
<g>
	<path d="M296.8,13.3c0-1.8,2.5-3.5,4.5-3.5c1.3,0,2.3,0.7,2.3,1.7c0,1.7-2.5,3.5-4.6,3.5C297.8,15,296.8,14.3,296.8,13.3z"/>
</g>
<rect x="312.2" y="15.7" width="0.5" height="18.9"/>
<g>
	<path d="M312.3,15.7c0-1.8,2.5-3.5,4.5-3.5c1.3,0,2.3,0.7,2.3,1.7c0,1.7-2.5,3.5-4.6,3.5C313.3,17.5,312.3,16.8,312.3,15.7z"/>
</g>
<rect x="327.7" y="18.1" width="0.5" height="18"/>
<g>
	<path d="M327.8,18.2c0-1.8,2.5-3.5,4.5-3.5c1.3,0,2.3,0.7,2.3,1.7c0,1.7-2.5,3.5-4.6,3.5C328.8,19.9,327.8,19.3,327.8,18.2z"/>
</g>
<rect x="343.2" y="20.6" width="0.5" height="17.2"/>
<g>
	<path d="M343.3,20.7c0-1.8,2.5-3.5,4.5-3.5c1.3,0,2.3,0.7,2.3,1.7c0,1.7-2.5,3.5-4.6,3.5C344.3,22.4,343.3,21.8,343.3,20.7z"/>
</g>
<rect x="358.6" y="23.1" width="0.5" height="16.4"/>
<g>
	<path d="M358.6,23.2c0-1.8,2.5-3.5,4.5-3.5c1.3,0,2.3,0.7,2.3,1.7c0,1.7-2.5,3.5-4.6,3.5C359.6,24.9,358.6,24.3,358.6,23.2z"/>
</g>
<rect x="380.6" y="10.1" width="0.5" height="14"/>
<g>
	<path d="M374.1,25.7c0-1.8,2.5-3.5,4.5-3.5c1.3,0,2.3,0.7,2.3,1.7c0,1.7-2.5,3.5-4.6,3.5C375.1,27.4,374.1,26.7,374.1,25.7z"/>
</g>
<rect x="396.1" y="11.6" width="0.5" height="14.9"/>
<g>
	<path d="M389.6,28.1c0-1.8,2.5-3.5,4.5-3.5c1.3,0,2.3,0.7,2.3,1.7c0,1.7-2.5,3.5-4.6,3.5C390.6,29.9,389.6,29.2,389.6,28.1z"/>
</g>
<rect x="411.6" y="13.3" width="0.5" height="15.7"/>
<g>
	<path d="M405.1,30.6c0-1.8,2.5-3.5,4.5-3.5c1.3,0,2.3,0.7,2.3,1.7c0,1.7-2.5,3.5-4.6,3.5C406.1,32.3,405.1,31.7,405.1,30.6z"/>
</g>
<rect x="426.9" y="15" width="0.5" height="16.4"/>
<g>
	<path d="M420.5,33.1c0-1.8,2.5-3.5,4.5-3.5c1.3,0,2.3,0.7,2.3,1.7c0,1.7-2.5,3.5-4.6,3.5C421.5,34.8,420.5,34.2,420.5,33.1z"/>
</g>
<rect x="434.1" y="34.3" width="10.5" height="0.8"/>
<rect x="442.4" y="18.8" width="0.5" height="15.2"/>
<g>
	<path d="M436,35.6c0-1.8,2.5-3.5,4.5-3.5c1.3,0,2.3,0.7,2.3,1.7c0,1.7-2.5,3.5-4.6,3.5C437,37.3,436,36.7,436,35.6z"/>
</g>
<rect x="449.6" y="34.3" width="10.5" height="0.8"/>
<rect x="457.9" y="19.1" width="0.5" height="17.4"/>
<g>
	<path d="M451.5,38.1c0-1.8,2.5-3.5,4.5-3.5c1.3,0,2.3,0.7,2.3,1.7c0,1.7-2.5,3.5-4.6,3.5C452.5,39.8,451.5,39.1,451.5,38.1z"/>
</g>
<rect x="465.1" y="34.3" width="10.5" height="0.8"/>
<rect x="465.1" y="39.3" width="10.5" height="0.8"/>
<rect x="473.4" y="19.5" width="0.5" height="19.4"/>
<g>
	<path d="M467,40.5c0-1.8,2.5-3.5,4.5-3.5c1.3,0,2.3,0.7,2.3,1.7c0,1.7-2.5,3.5-4.6,3.5C468,42.3,467,41.6,467,40.5z"/>
</g>
<rect x="480.6" y="34.3" width="10.5" height="0.8"/>
<rect x="480.6" y="39.3" width="10.5" height="0.8"/>
<rect x="488.9" y="20" width="0.5" height="21.4"/>
<g>
	<path d="M482.5,43c0-1.8,2.5-3.5,4.5-3.5c1.3,0,2.3,0.7,2.3,1.7c0,1.7-2.5,3.5-4.6,3.5C483.5,44.7,482.5,44.1,482.5,43z"/>
</g>
<rect x="496" y="34.3" width="10.7" height="0.8"/>
<rect x="496" y="39.3" width="10.7" height="0.8"/>
<rect x="496" y="44.3" width="10.7" height="0.8"/>
<rect x="504.4" y="19.8" width="0.5" height="24"/>
<g>
	<path d="M502.1,41.9c1.6,0,2.7,0.7,2.7,2c0,1.9-2.3,3.4-4.5,3.4c-1.3,0-2.4-0.7-2.4-1.8C497.8,43.7,500.1,41.9,502.1,41.9z
		 M498.3,45.8c0,0.6,0.4,0.9,1.1,0.9c1.4,0,4.9-2.1,4.9-3.3c0-0.6-0.4-0.9-1.1-0.9C502,42.5,498.3,44.6,498.3,45.8z"/>
</g>
<rect x="71.3" y="62.2" width="0.5" height="16.4"/>
<g>
	<path d="M64.9,80.2c0-1.8,2.5-3.5,4.5-3.5c1.3,0,2.3,0.7,2.3,1.7c0,1.7-2.5,3.5-4.6,3.5C65.9,81.9,64.9,81.3,64.9,80.2z"/>
</g>
<rect x="86.8" y="60.6" width="0.5" height="15.5"/>
<g>
	<path d="M80.4,77.7c0-1.8,2.5-3.5,4.5-3.5c1.3,0,2.3,0.7,2.3,1.7c0,1.7-2.5,3.5-4.6,3.5C81.4,79.5,80.4,78.8,80.4,77.7z"/>
</g>
<rect x="102.3" y="58.9" width="0.5" height="14.7"/>
<g>
	<path d="M95.9,75.3c0-1.8,2.5-3.5,4.5-3.5c1.3,0,2.3,0.7,2.3,1.7c0,1.7-2.5,3.5-4.6,3.5C96.9,77,95.9,76.3,95.9,75.3z"/>
</g>
<rect x="117.7" y="57.2" width="0.5" height="14"/>
<g>
	<path d="M111.2,72.8c0-1.8,2.5-3.5,4.5-3.5c1.3,0,2.3,0.7,2.3,1.7c0,1.7-2.5,3.5-4.6,3.5C112.2,74.5,111.2,73.9,111.2,72.8z"/>
</g>
<rect x="126.7" y="70.2" width="0.5" height="16.4"/>
<g>
	<path d="M126.7,70.3c0-1.8,2.5-3.5,4.5-3.5c1.3,0,2.3,0.7,2.3,1.7c0,1.7-2.5,3.5-4.6,3.5C127.7,72,126.7,71.4,126.7,70.3z"/>
</g>
<rect x="142.2" y="67.7" width="0.5" height="17.4"/>
<g>
	<path d="M142.2,67.8c0-1.8,2.5-3.5,4.5-3.5c1.3,0,2.3,0.7,2.3,1.7c0,1.7-2.5,3.5-4.6,3.5C143.2,69.5,142.2,68.9,142.2,67.8z"/>
</g>
<rect x="157.7" y="65.3" width="0.5" height="18.1"/>
<g>
	<path d="M157.7,65.3c0-1.8,2.5-3.5,4.5-3.5c1.3,0,2.3,0.7,2.3,1.7c0,1.7-2.5,3.5-4.6,3.5C158.7,67.1,157.7,66.4,157.7,65.3z"/>
</g>
<rect x="173" y="62.8" width="0.5" height="18.9"/>
<g>
	<path d="M173.1,62.9c0-1.8,2.5-3.5,4.5-3.5c1.3,0,2.3,0.7,2.3,1.7c0,1.7-2.5,3.5-4.6,3.5C174.1,64.6,173.1,63.9,173.1,62.9z"/>
</g>
<rect x="188.5" y="60.3" width="0.5" height="16.4"/>
<g>
	<path d="M188.6,60.4c0-1.8,2.5-3.5,4.5-3.5c1.3,0,2.3,0.7,2.3,1.7c0,1.7-2.5,3.5-4.6,3.5C189.6,62.1,188.6,61.5,188.6,60.4z"/>
</g>
<rect x="204" y="57.8" width="0.5" height="17.4"/>
<g>
	<path d="M204.1,57.9c0-1.8,2.5-3.5,4.5-3.5c1.3,0,2.3,0.7,2.3,1.7c0,1.7-2.5,3.5-4.6,3.5C205.1,59.6,204.1,59,204.1,57.9z"/>
</g>
<rect x="219.5" y="55.3" width="0.5" height="18.1"/>
<g>
	<path d="M219.6,55.4c0-1.8,2.5-3.5,4.5-3.5c1.3,0,2.3,0.7,2.3,1.7c0,1.7-2.5,3.5-4.6,3.5C220.6,57.1,219.6,56.5,219.6,55.4z"/>
</g>
<rect x="233.1" y="51.7" width="10.5" height="0.8"/>
<rect x="234.9" y="52.9" width="0.5" height="18.9"/>
<g>
	<path d="M234.9,52.9c0-1.8,2.5-3.5,4.5-3.5c1.3,0,2.3,0.7,2.3,1.7c0,1.7-2.5,3.5-4.6,3.5C235.9,54.7,234.9,54,234.9,52.9z"/>
</g>
<rect x="248.6" y="51.7" width="10.5" height="0.8"/>
<rect x="250.4" y="50.4" width="0.5" height="17.7"/>
<g>
	<path d="M250.4,50.5c0-1.8,2.5-3.5,4.5-3.5c1.3,0,2.3,0.7,2.3,1.7c0,1.7-2.5,3.5-4.6,3.5C251.4,52.2,250.4,51.5,250.4,50.5z"/>
</g>
<rect x="264.1" y="51.7" width="10.5" height="0.8"/>
<rect x="264.1" y="46.7" width="10.5" height="0.8"/>
<rect x="265.9" y="47.9" width="0.5" height="19.8"/>
<g>
	<path d="M265.9,48c0-1.8,2.5-3.5,4.5-3.5c1.3,0,2.3,0.7,2.3,1.7c0,1.7-2.5,3.5-4.6,3.5C266.9,49.7,265.9,49.1,265.9,48z"/>
</g>
<rect x="279.6" y="51.7" width="10.5" height="0.8"/>
<rect x="279.6" y="46.7" width="10.5" height="0.8"/>
<rect x="281.4" y="45.4" width="0.5" height="21.9"/>
<g>
	<path d="M281.4,45.5c0-1.8,2.5-3.5,4.5-3.5c1.3,0,2.3,0.7,2.3,1.7c0,1.7-2.5,3.5-4.6,3.5C282.4,47.2,281.4,46.6,281.4,45.5z"/>
</g>
<rect x="294.9" y="51.7" width="10.5" height="0.8"/>
<rect x="294.9" y="46.7" width="10.5" height="0.8"/>
<rect x="296.7" y="47.9" width="0.5" height="18.9"/>
<g>
	<path d="M296.8,48c0-1.8,2.5-3.5,4.5-3.5c1.3,0,2.3,0.7,2.3,1.7c0,1.7-2.5,3.5-4.6,3.5C297.8,49.7,296.8,49.1,296.8,48z"/>
</g>
<rect x="310.4" y="51.7" width="10.5" height="0.8"/>
<rect x="312.2" y="50.4" width="0.5" height="16.4"/>
<g>
	<path d="M312.3,50.5c0-1.8,2.5-3.5,4.5-3.5c1.3,0,2.3,0.7,2.3,1.7c0,1.7-2.5,3.5-4.6,3.5C313.3,52.2,312.3,51.5,312.3,50.5z"/>
</g>
<rect x="325.9" y="51.7" width="10.5" height="0.8"/>
<rect x="327.7" y="52.9" width="0.5" height="15.5"/>
<g>
	<path d="M327.8,52.9c0-1.8,2.5-3.5,4.5-3.5c1.3,0,2.3,0.7,2.3,1.7c0,1.7-2.5,3.5-4.6,3.5C328.8,54.7,327.8,54,327.8,52.9z"/>
</g>
<rect x="343.2" y="55.3" width="0.5" height="14.7"/>
<g>
	<path d="M343.3,55.4c0-1.8,2.5-3.5,4.5-3.5c1.3,0,2.3,0.7,2.3,1.7c0,1.7-2.5,3.5-4.6,3.5C344.3,57.1,343.3,56.5,343.3,55.4z"/>
</g>
<rect x="358.6" y="57.8" width="0.5" height="14"/>
<g>
	<path d="M358.6,57.9c0-1.8,2.5-3.5,4.5-3.5c1.3,0,2.3,0.7,2.3,1.7c0,1.7-2.5,3.5-4.6,3.5C359.6,59.6,358.6,59,358.6,57.9z"/>
</g>
<rect x="374.1" y="60.3" width="0.5" height="16.4"/>
<g>
	<path d="M374.1,60.4c0-1.8,2.5-3.5,4.5-3.5c1.3,0,2.3,0.7,2.3,1.7c0,1.7-2.5,3.5-4.6,3.5C375.1,62.1,374.1,61.5,374.1,60.4z"/>
</g>
<rect x="389.6" y="62.8" width="0.5" height="15.5"/>
<g>
	<path d="M389.6,62.9c0-1.8,2.5-3.5,4.5-3.5c1.3,0,2.3,0.7,2.3,1.7c0,1.7-2.5,3.5-4.6,3.5C390.6,64.6,389.6,63.9,389.6,62.9z"/>
</g>
<rect x="405.1" y="65.3" width="0.5" height="14.7"/>
<g>
	<path d="M405.1,65.3c0-1.8,2.5-3.5,4.5-3.5c1.3,0,2.3,0.7,2.3,1.7c0,1.7-2.5,3.5-4.6,3.5C406.1,67.1,405.1,66.4,405.1,65.3z"/>
</g>
<rect x="420.4" y="67.7" width="0.5" height="14"/>
<g>
	<path d="M420.5,67.8c0-1.8,2.5-3.5,4.5-3.5c1.3,0,2.3,0.7,2.3,1.7c0,1.7-2.5,3.5-4.6,3.5C421.5,69.5,420.5,68.9,420.5,67.8z"/>
</g>
<rect x="442.4" y="52.2" width="0.5" height="16.4"/>
<g>
	<path d="M436,70.3c0-1.8,2.5-3.5,4.5-3.5c1.3,0,2.3,0.7,2.3,1.7c0,1.7-2.5,3.5-4.6,3.5C437,72,436,71.4,436,70.3z"/>
</g>
<rect x="457.9" y="53.8" width="0.5" height="17.4"/>
<g>
	<path d="M451.5,72.8c0-1.8,2.5-3.5,4.5-3.5c1.3,0,2.3,0.7,2.3,1.7c0,1.7-2.5,3.5-4.6,3.5C452.5,74.5,451.5,73.9,451.5,72.8z"/>
</g>
<rect x="473.4" y="55.5" width="0.5" height="18.1"/>
<g>
	<path d="M467,75.3c0-1.8,2.5-3.5,4.5-3.5c1.3,0,2.3,0.7,2.3,1.7c0,1.7-2.5,3.5-4.6,3.5C468,77,467,76.3,467,75.3z"/>
</g>
<rect x="488.9" y="57.2" width="0.5" height="18.9"/>
<g>
	<path d="M482.5,77.7c0-1.8,2.5-3.5,4.5-3.5c1.3,0,2.3,0.7,2.3,1.7c0,1.7-2.5,3.5-4.6,3.5C483.5,79.5,482.5,78.8,482.5,77.7z"/>
</g>
<rect x="504.4" y="62" width="0.5" height="16.6"/>
<g>
	<path d="M502.1,76.7c1.6,0,2.7,0.7,2.7,2c0,1.9-2.3,3.4-4.5,3.4c-1.3,0-2.4-0.7-2.4-1.8C497.8,78.5,500.1,76.7,502.1,76.7z
		 M498.3,80.5c0,0.6,0.4,0.9,1.1,0.9c1.4,0,4.9-2.1,4.9-3.3c0-0.6-0.4-0.9-1.1-0.9C502,77.3,498.3,79.3,498.3,80.5z"/>
</g>
</svg>
