<?xml version="1.0" encoding="utf-8"?>

<!--
	ScaleBook
	Copyright (c) Leland Jansen 2015. All rights reserved.
-->

<!DOCTYPE svg PUBLIC "-//W3C//DTD SVG 1.1//EN" "http://www.w3.org/Graphics/SVG/1.1/DTD/svg11.dtd">
<svg version="1.1" id="Layer_1" xmlns="http://www.w3.org/2000/svg" xmlns:xlink="http://www.w3.org/1999/xlink" x="0px" y="0px"
	 viewBox="0 0 552.9 81.6" enable-background="new 0 0 552.9 81.6" xml:space="preserve">
<rect x="8.4" y="9.7" width="0.8" height="67"/>
<g>
	<path d="M7.4,10.4c-1.9,1.1-3.6,5.8-3.6,9.4c0,2.3,1.4,9.9,1.4,12.3c0,5-1.5,8.6-4.6,11.1c3,2.4,4.6,6.1,4.6,11.1
		c0,2.3-1.4,9.9-1.4,12.3c0,3.8,1.7,8.4,3.6,9.5v0.7c-3.5-2.3-5.8-8.2-5.8-13.1c0-2.1,1.7-9.4,1.7-11.5c0-3.8-1-6.6-2.9-8.2
		C0.1,43.6,0,43.4,0,43.2c0-0.2,0.1-0.4,0.5-0.7c1.9-1.7,2.9-4.2,2.9-7.6c0-2.1-1.7-10-1.7-12.2c0-5.2,2.1-10.4,5.8-13.1V10.4z"/>
</g>
<rect x="547.8" y="9.7" width="0.8" height="67"/>
<rect x="550.4" y="9.7" width="2.5" height="67"/>
<rect x="8.5" y="29.3" width="544.4" height="0.5"/>
<rect x="8.5" y="24.4" width="544.4" height="0.5"/>
<rect x="8.5" y="19.4" width="544.4" height="0.5"/>
<rect x="8.5" y="14.4" width="544.4" height="0.5"/>
<rect x="8.5" y="9.5" width="544.4" height="0.5"/>
<g>
	<path d="M20.3,29.4c-4.2,0-8.1-3.1-8.1-6.9c0-3.2,2.3-6.7,6.8-10.5c-0.3-1.2-0.4-2.4-0.4-3.6c0-3.5,1.2-6.8,3.2-8.5
		c1.8,2.5,2.7,4.9,2.7,7.1c0,2.9-1.3,5.6-4.3,8.1l0.9,4.2c0.5,0,0.8-0.1,0.8-0.1c2.6,0,4.8,2,4.8,4.7c0,1.9-1.4,3.7-3.6,4.8
		c0-0.1,0.9,3.8,0.9,4.3c0,2.5-2.3,4.2-4.9,4.2c-2,0-3.6-1.3-3.6-3.4c0-1.4,1-2.6,2.4-2.6c1.3,0,2.3,1.3,2.3,2.5
		c0,1.4-1.2,2.3-2.7,2.5c0.6,0.3,1.2,0.5,1.9,0.5c2.1,0,4.1-1.6,4.1-3.6c0-0.2,0-0.4-0.1-0.6l-0.8-3.7
		C21.9,29.3,21.2,29.4,20.3,29.4z M18.1,24.2c0,1,0.5,1.9,1.6,2.5c-1.8-0.3-3-1.4-3-3.1c0-2,1.7-3.7,3.8-4.1l-0.8-4
		C16,18.3,14,21,14,23.6c0,2.9,2.8,5.3,6,5.3c0.9,0,1.7-0.2,2.4-0.5L21,21.6C19.4,21.8,18.1,22.8,18.1,24.2z M22.1,2.8
		c-1.6,0-2.9,3.7-2.9,7c0,0.7,0,1.3,0.2,1.9c2.7-2.4,4-4.5,4-6.5c0-0.9-0.3-1.7-1-2.4C22.4,2.9,22.3,2.8,22.1,2.8z M24.9,24.7
		c0-1.6-1.2-3.3-2.9-3.3c-0.1,0-0.2,0-0.5,0l1.4,6.6C24.2,27.2,24.9,26,24.9,24.7z"/>
</g>
<g>
	<path d="M33.5,2.9v2.8l1-0.3v1.8l-1,0.3V11l1-0.3v1.8l-1,0.3v3.1H33v-3l-1.9,0.6v3h-0.5v-2.8l-1,0.3v-1.8l1-0.3V8.4l-1,0.3V7l1-0.3
		V3.5h0.5v3L33,5.9v-3H33.5z M33,7.7l-1.9,0.6v3.4l1.9-0.6V7.7z"/>
</g>
<g>
	<path d="M39.7,10.3v2.8l1-0.3v1.8l-1,0.3v3.4l1-0.3v1.8l-1,0.3v3.1h-0.5v-3L37.3,21v3h-0.5v-2.8l-1,0.3v-1.8l1-0.3v-3.4l-1,0.3
		v-1.8l1-0.3V11h0.5v3l1.9-0.6v-3H39.7z M39.2,15.1l-1.9,0.6v3.4l1.9-0.6V15.1z"/>
</g>
<g>
	<path d="M45.9,0.4v2.8l1-0.3v1.8l-1,0.3v3.4l1-0.3V10l-1,0.3v3.1h-0.5v-3l-1.9,0.6v3H43v-2.8l-1,0.3V9.7l1-0.3V6l-1,0.3V4.5l1-0.3
		V1h0.5v3l1.9-0.6v-3H45.9z M45.4,5.2l-1.9,0.6v3.4l1.9-0.6V5.2z"/>
</g>
<g>
	<path d="M52.1,7.9v2.8l1-0.3v1.8l-1,0.3v3.4l1-0.3v1.8l-1,0.3v3.1h-0.5v-3l-1.9,0.6v3h-0.5v-2.8l-1,0.3v-1.8l1-0.3v-3.4l-1,0.3
		v-1.8l1-0.3V8.5h0.5v3l1.9-0.6v-3H52.1z M51.6,12.6l-1.9,0.6v3.4l1.9-0.6V12.6z"/>
</g>
<polygon fill-rule="evenodd" clip-rule="evenodd" points="68.5,25.8 115.1,24.6 115.1,22.1 68.5,23.4 "/>
<polygon fill-rule="evenodd" clip-rule="evenodd" points="68.5,22.1 115.1,20.9 115.1,18.4 68.5,19.6 "/>
<polygon fill-rule="evenodd" clip-rule="evenodd" points="130.8,20.9 177.4,15.9 177.4,13.4 130.8,18.4 "/>
<polygon fill-rule="evenodd" clip-rule="evenodd" points="130.8,17.2 177.4,12.2 177.4,9.7 130.8,14.7 "/>
<polygon fill-rule="evenodd" clip-rule="evenodd" points="186.4,35.8 233.1,30.8 233.1,28.3 186.4,33.3 "/>
<polygon fill-rule="evenodd" clip-rule="evenodd" points="186.4,39.5 233.1,34.5 233.1,32 186.4,37 "/>
<polygon fill-rule="evenodd" clip-rule="evenodd" points="248.7,27.1 295.4,25.8 295.4,23.4 248.7,24.6 "/>
<polygon fill-rule="evenodd" clip-rule="evenodd" points="248.7,30.8 295.4,29.6 295.4,27.1 248.7,28.3 "/>
<polygon fill-rule="evenodd" clip-rule="evenodd" points="310.9,25.8 357.7,30.8 357.7,28.3 310.9,23.4 "/>
<polygon fill-rule="evenodd" clip-rule="evenodd" points="310.9,29.6 357.7,34.5 357.7,32 310.9,27.1 "/>
<polygon fill-rule="evenodd" clip-rule="evenodd" points="379.7,11 426.4,15.9 426.4,13.4 379.7,8.5 "/>
<polygon fill-rule="evenodd" clip-rule="evenodd" points="379.7,7.2 426.4,12.2 426.4,9.7 379.7,4.8 "/>
<polygon fill-rule="evenodd" clip-rule="evenodd" points="442,20.9 488.7,25.8 488.7,23.4 442,18.4 "/>
<polygon fill-rule="evenodd" clip-rule="evenodd" points="442,17.2 488.7,22.1 488.7,19.6 442,14.7 "/>
<rect x="8.5" y="76.4" width="544.4" height="0.5"/>
<rect x="8.5" y="71.5" width="544.4" height="0.5"/>
<rect x="8.5" y="66.5" width="544.4" height="0.5"/>
<rect x="8.5" y="61.6" width="544.4" height="0.5"/>
<rect x="8.5" y="56.6" width="544.4" height="0.5"/>
<g>
	<path d="M15.7,71c2.9-2.6,4.7-6.1,4.7-9.2c0-2.5-1.4-4.4-3.7-4.4c-1.6,0-3.4,1.3-3.4,2.7c0,0.2,0,0.3,0.1,0.3
		c-0.1,0,0.6-0.6,1.4-0.6c0.9,0,1.5,0.8,1.5,1.7c0,1.2-0.9,2.2-2.1,2.2c-1.2,0-2.1-1.3-2.1-2.8c0-2.3,2.3-4.1,4.8-4.1
		c4.7,0,5.9,3.2,5.9,5.8c0,1.6-0.4,2.9-2,5.3c-1.9,3.1-6.4,5.3-8.1,5.3c-0.4,0-0.6-0.2-0.6-0.5C13.8,72.3,14.9,71.7,15.7,71z
		 M25.7,58.3c0.6,0,1,0.4,1,1c0,0.6-0.4,1-1,1s-1-0.4-1-1C24.7,58.8,25.1,58.3,25.7,58.3z M25.7,63.3c0.6,0,1,0.4,1,1
		c0,0.6-0.4,1-1,1s-1-0.4-1-1C24.7,63.7,25.1,63.3,25.7,63.3z"/>
</g>
<g>
	<path d="M33.5,55v2.8l1-0.3v1.8l-1,0.3V63l1-0.3v1.8l-1,0.3V68H33v-3l-1.9,0.6v3h-0.5v-2.8l-1,0.3v-1.8l1-0.3v-3.4l-1,0.3v-1.8
		l1-0.3v-3.1h0.5v3L33,58v-3H33.5z M33,59.8l-1.9,0.6v3.4l1.9-0.6V59.8z"/>
</g>
<g>
	<path d="M39.7,62.4v2.8l1-0.3v1.8l-1,0.3v3.4l1-0.3V72l-1,0.3v3.1h-0.5v-3l-1.9,0.6v3h-0.5v-2.8l-1,0.3v-1.8l1-0.3V68l-1,0.3v-1.8
		l1-0.3v-3.1h0.5v3l1.9-0.6v-3H39.7z M39.2,67.2l-1.9,0.6v3.4l1.9-0.6V67.2z"/>
</g>
<g>
	<path d="M45.9,52.5v2.8l1-0.3v1.8l-1,0.3v3.4l1-0.3V62l-1,0.3v3.1h-0.5v-3l-1.9,0.6v3H43v-2.8l-1,0.3v-1.8l1-0.3V58l-1,0.3v-1.8
		l1-0.3v-3.1h0.5v3l1.9-0.6v-3H45.9z M45.4,57.3l-1.9,0.6v3.4l1.9-0.6V57.3z"/>
</g>
<g>
	<path d="M52.1,59.9v2.8l1-0.3v1.8l-1,0.3V68l1-0.3v1.8l-1,0.3v3.1h-0.5v-3l-1.9,0.6v3h-0.5v-2.8l-1,0.3v-1.8l1-0.3v-3.4l-1,0.3V64
		l1-0.3v-3.1h0.5v3l1.9-0.6v-3H52.1z M51.6,64.7l-1.9,0.6v3.4l1.9-0.6V64.7z"/>
</g>
<polygon fill-rule="evenodd" clip-rule="evenodd" points="68.5,63 115.1,58.1 115.1,55.6 68.5,60.6 "/>
<polygon fill-rule="evenodd" clip-rule="evenodd" points="68.5,59.3 115.1,54.4 115.1,51.9 68.5,56.8 "/>
<polygon fill-rule="evenodd" clip-rule="evenodd" points="124.3,77.9 170.9,73 170.9,70.5 124.3,75.4 "/>
<polygon fill-rule="evenodd" clip-rule="evenodd" points="124.3,81.6 170.9,76.7 170.9,74.2 124.3,79.2 "/>
<polygon fill-rule="evenodd" clip-rule="evenodd" points="186.4,68 233.1,63 233.1,60.6 186.4,65.5 "/>
<polygon fill-rule="evenodd" clip-rule="evenodd" points="186.4,71.7 233.1,66.8 233.1,64.3 186.4,69.2 "/>
<polygon fill-rule="evenodd" clip-rule="evenodd" points="248.7,64.3 295.4,63 295.4,60.6 248.7,61.8 "/>
<polygon fill-rule="evenodd" clip-rule="evenodd" points="248.7,68 295.4,66.8 295.4,64.3 248.7,65.5 "/>
<polygon fill-rule="evenodd" clip-rule="evenodd" points="310.9,63 357.7,68 357.7,65.5 310.9,60.6 "/>
<polygon fill-rule="evenodd" clip-rule="evenodd" points="310.9,66.8 357.7,71.7 357.7,69.2 310.9,64.3 "/>
<polygon fill-rule="evenodd" clip-rule="evenodd" points="373.2,73 419.9,77.9 419.9,75.4 373.2,70.5 "/>
<polygon fill-rule="evenodd" clip-rule="evenodd" points="373.2,76.7 419.9,81.6 419.9,79.2 373.2,74.2 "/>
<polygon fill-rule="evenodd" clip-rule="evenodd" points="442,58.1 488.7,63 488.7,60.6 442,55.6 "/>
<polygon fill-rule="evenodd" clip-rule="evenodd" points="442,54.4 488.7,59.3 488.7,56.8 442,51.9 "/>
<rect x="59.9" y="34.1" width="10.5" height="0.8"/>
<rect x="59.9" y="39.1" width="10.5" height="0.8"/>
<rect x="68.2" y="19.8" width="0.5" height="21.4"/>
<g>
	<path d="M61.8,42.8c0-1.8,2.5-3.5,4.5-3.5c1.3,0,2.3,0.7,2.3,1.7c0,1.7-2.5,3.5-4.6,3.5C62.8,44.5,61.8,43.9,61.8,42.8z"/>
</g>
<rect x="75.4" y="34.1" width="10.5" height="0.8"/>
<rect x="75.4" y="39.1" width="10.5" height="0.8"/>
<rect x="83.7" y="19.5" width="0.5" height="19.2"/>
<g>
	<path d="M77.3,40.3c0-1.8,2.5-3.5,4.5-3.5c1.3,0,2.3,0.7,2.3,1.7c0,1.7-2.5,3.5-4.6,3.5C78.3,42.1,77.3,41.4,77.3,40.3z"/>
</g>
<rect x="91.1" y="34.1" width="10.5" height="0.8"/>
<rect x="99.4" y="19" width="0.5" height="17.2"/>
<g>
	<path d="M92.9,37.9c0-1.8,2.5-3.5,4.5-3.5c1.3,0,2.3,0.7,2.3,1.7c0,1.7-2.5,3.5-4.6,3.5C93.9,39.6,92.9,38.9,92.9,37.9z"/>
</g>
<rect x="106.6" y="34.1" width="10.5" height="0.8"/>
<rect x="114.9" y="18.6" width="0.5" height="15.2"/>
<g>
	<path d="M108.4,35.4c0-1.8,2.5-3.5,4.5-3.5c1.3,0,2.3,0.7,2.3,1.7c0,1.7-2.5,3.5-4.6,3.5C109.4,37.1,108.4,36.5,108.4,35.4z"/>
</g>
<rect x="130.5" y="14.8" width="0.5" height="16.4"/>
<g>
	<path d="M124.1,32.9c0-1.8,2.5-3.5,4.5-3.5c1.3,0,2.3,0.7,2.3,1.7c0,1.7-2.5,3.5-4.6,3.5C125.1,34.6,124.1,34,124.1,32.9z"/>
</g>
<rect x="146" y="13.3" width="0.5" height="15.5"/>
<g>
	<path d="M139.6,30.4c0-1.8,2.5-3.5,4.5-3.5c1.3,0,2.3,0.7,2.3,1.7c0,1.7-2.5,3.5-4.6,3.5C140.6,32.1,139.6,31.5,139.6,30.4z"/>
</g>
<rect x="161.5" y="11.6" width="0.5" height="14.7"/>
<g>
	<path d="M155.1,27.9c0-1.8,2.5-3.5,4.5-3.5c1.3,0,2.3,0.7,2.3,1.7c0,1.7-2.5,3.5-4.6,3.5C156.1,29.7,155.1,29,155.1,27.9z"/>
</g>
<rect x="177.2" y="9.9" width="0.5" height="14"/>
<g>
	<path d="M170.8,25.5c0-1.8,2.5-3.5,4.5-3.5c1.3,0,2.3,0.7,2.3,1.7c0,1.7-2.5,3.5-4.6,3.5C171.7,27.2,170.8,26.5,170.8,25.5z"/>
</g>
<rect x="186.2" y="22.9" width="0.5" height="16.4"/>
<g>
	<path d="M186.3,23c0-1.8,2.5-3.5,4.5-3.5c1.3,0,2.3,0.7,2.3,1.7c0,1.7-2.5,3.5-4.6,3.5C187.2,24.7,186.3,24.1,186.3,23z"/>
</g>
<rect x="201.8" y="20.4" width="0.5" height="17.4"/>
<g>
	<path d="M201.9,20.5c0-1.8,2.5-3.5,4.5-3.5c1.3,0,2.3,0.7,2.3,1.7c0,1.7-2.5,3.5-4.6,3.5C202.9,22.2,201.9,21.6,201.9,20.5z"/>
</g>
<rect x="217.3" y="17.9" width="0.5" height="18.1"/>
<g>
	<path d="M217.4,18c0-1.8,2.5-3.5,4.5-3.5c1.3,0,2.3,0.7,2.3,1.7c0,1.7-2.5,3.5-4.6,3.5C218.4,19.7,217.4,19.1,217.4,18z"/>
</g>
<rect x="232.8" y="15.5" width="0.5" height="18.9"/>
<g>
	<path d="M232.9,15.5c0-1.8,2.5-3.5,4.5-3.5c1.3,0,2.3,0.7,2.3,1.7c0,1.7-2.5,3.5-4.6,3.5C233.9,17.3,232.9,16.6,232.9,15.5z"/>
</g>
<rect x="248.5" y="13" width="0.5" height="17.7"/>
<g>
	<path d="M248.6,13c0-1.8,2.5-3.5,4.5-3.5c1.3,0,2.3,0.7,2.3,1.7c0,1.7-2.5,3.5-4.6,3.5C249.6,14.8,248.6,14.1,248.6,13z"/>
</g>
<rect x="264" y="10.5" width="0.5" height="19.8"/>
<g>
	<path d="M264.1,10.6c0-1.8,2.5-3.5,4.5-3.5c1.3,0,2.3,0.7,2.3,1.7c0,1.7-2.5,3.5-4.6,3.5C265.1,12.3,264.1,11.7,264.1,10.6z"/>
</g>
<rect x="279.7" y="8" width="0.5" height="21.9"/>
<g>
	<path d="M279.7,8.1c0-1.8,2.5-3.5,4.5-3.5c1.3,0,2.3,0.7,2.3,1.7c0,1.7-2.5,3.5-4.6,3.5C280.7,9.8,279.7,9.2,279.7,8.1z"/>
</g>
<rect x="295.2" y="10.5" width="0.5" height="18.9"/>
<g>
	<path d="M295.2,10.6c0-1.8,2.5-3.5,4.5-3.5c1.3,0,2.3,0.7,2.3,1.7c0,1.7-2.5,3.5-4.6,3.5C296.2,12.3,295.2,11.7,295.2,10.6z"/>
</g>
<rect x="310.7" y="13" width="0.5" height="16.4"/>
<g>
	<path d="M310.7,13c0-1.8,2.5-3.5,4.5-3.5c1.3,0,2.3,0.7,2.3,1.7c0,1.7-2.5,3.5-4.6,3.5C311.7,14.8,310.7,14.1,310.7,13z"/>
</g>
<rect x="326.3" y="15.5" width="0.5" height="15.5"/>
<g>
	<path d="M326.4,15.5c0-1.8,2.5-3.5,4.5-3.5c1.3,0,2.3,0.7,2.3,1.7c0,1.7-2.5,3.5-4.6,3.5C327.4,17.3,326.4,16.6,326.4,15.5z"/>
</g>
<rect x="341.8" y="17.9" width="0.5" height="14.7"/>
<g>
	<path d="M341.9,18c0-1.8,2.5-3.5,4.5-3.5c1.3,0,2.3,0.7,2.3,1.7c0,1.7-2.5,3.5-4.6,3.5C342.9,19.7,341.9,19.1,341.9,18z"/>
</g>
<rect x="357.5" y="20.4" width="0.5" height="14"/>
<g>
	<path d="M357.6,20.5c0-1.8,2.5-3.5,4.5-3.5c1.3,0,2.3,0.7,2.3,1.7c0,1.7-2.5,3.5-4.6,3.5C358.5,22.2,357.6,21.6,357.6,20.5z"/>
</g>
<rect x="379.5" y="4.9" width="0.5" height="16.4"/>
<g>
	<path d="M373.1,23c0-1.8,2.5-3.5,4.5-3.5c1.3,0,2.3,0.7,2.3,1.7c0,1.7-2.5,3.5-4.6,3.5C374,24.7,373.1,24.1,373.1,23z"/>
</g>
<rect x="395" y="6.5" width="0.5" height="17.4"/>
<g>
	<path d="M388.6,25.5c0-1.8,2.5-3.5,4.5-3.5c1.3,0,2.3,0.7,2.3,1.7c0,1.7-2.5,3.5-4.6,3.5C389.5,27.2,388.6,26.5,388.6,25.5z"/>
</g>
<rect x="410.6" y="8.2" width="0.5" height="18.1"/>
<g>
	<path d="M404.2,27.9c0-1.8,2.5-3.5,4.5-3.5c1.3,0,2.3,0.7,2.3,1.7c0,1.7-2.5,3.5-4.6,3.5C405.2,29.7,404.2,29,404.2,27.9z"/>
</g>
<rect x="426.1" y="9.9" width="0.5" height="18.9"/>
<g>
	<path d="M419.7,30.4c0-1.8,2.5-3.5,4.5-3.5c1.3,0,2.3,0.7,2.3,1.7c0,1.7-2.5,3.5-4.6,3.5C420.7,32.1,419.7,31.5,419.7,30.4z"/>
</g>
<rect x="441.8" y="14.8" width="0.5" height="16.4"/>
<g>
	<path d="M435.4,32.9c0-1.8,2.5-3.5,4.5-3.5c1.3,0,2.3,0.7,2.3,1.7c0,1.7-2.5,3.5-4.6,3.5C436.3,34.6,435.4,34,435.4,32.9z"/>
</g>
<rect x="449" y="34.1" width="10.5" height="0.8"/>
<rect x="457.3" y="16.4" width="0.5" height="17.4"/>
<g>
	<path d="M450.9,35.4c0-1.8,2.5-3.5,4.5-3.5c1.3,0,2.3,0.7,2.3,1.7c0,1.7-2.5,3.5-4.6,3.5C451.8,37.1,450.9,36.5,450.9,35.4z"/>
</g>
<rect x="464.7" y="34.1" width="10.5" height="0.8"/>
<rect x="473" y="18.1" width="0.5" height="18.1"/>
<g>
	<path d="M466.5,37.9c0-1.8,2.5-3.5,4.5-3.5c1.3,0,2.3,0.7,2.3,1.7c0,1.7-2.5,3.5-4.6,3.5C467.5,39.6,466.5,38.9,466.5,37.9z"/>
</g>
<rect x="480.2" y="34.1" width="10.5" height="0.8"/>
<rect x="480.2" y="39.1" width="10.5" height="0.8"/>
<rect x="488.5" y="19.8" width="0.5" height="18.9"/>
<g>
	<path d="M482,40.3c0-1.8,2.5-3.5,4.5-3.5c1.3,0,2.3,0.7,2.3,1.7c0,1.7-2.5,3.5-4.6,3.5C483,42.1,482,41.4,482,40.3z"/>
</g>
<rect x="495.7" y="34.1" width="10.7" height="0.8"/>
<rect x="495.7" y="39.1" width="10.7" height="0.8"/>
<rect x="504.1" y="19.6" width="0.5" height="21.5"/>
<g>
	<path d="M501.8,39.3c1.6,0,2.7,0.7,2.7,2c0,1.9-2.3,3.4-4.5,3.4c-1.3,0-2.4-0.7-2.4-1.8C497.5,41,499.8,39.3,501.8,39.3z M498,43.1
		c0,0.6,0.4,0.9,1.1,0.9c1.4,0,4.9-2.1,4.9-3.3c0-0.6-0.4-0.9-1.1-0.9C501.7,39.9,498,41.9,498,43.1z"/>
</g>
<rect x="68.2" y="57" width="0.5" height="18.9"/>
<g>
	<path d="M61.8,77.5c0-1.8,2.5-3.5,4.5-3.5c1.3,0,2.3,0.7,2.3,1.7c0,1.7-2.5,3.5-4.6,3.5C62.8,79.3,61.8,78.6,61.8,77.5z"/>
</g>
<rect x="83.7" y="55.4" width="0.5" height="18"/>
<g>
	<path d="M77.3,75.1c0-1.8,2.5-3.5,4.5-3.5c1.3,0,2.3,0.7,2.3,1.7c0,1.7-2.5,3.5-4.6,3.5C78.3,76.8,77.3,76.1,77.3,75.1z"/>
</g>
<rect x="99.4" y="53.7" width="0.5" height="17.2"/>
<g>
	<path d="M92.9,72.6c0-1.8,2.5-3.5,4.5-3.5c1.3,0,2.3,0.7,2.3,1.7c0,1.7-2.5,3.5-4.6,3.5C93.9,74.3,92.9,73.7,92.9,72.6z"/>
</g>
<rect x="114.9" y="52" width="0.5" height="16.4"/>
<g>
	<path d="M108.4,70.1c0-1.8,2.5-3.5,4.5-3.5c1.3,0,2.3,0.7,2.3,1.7c0,1.7-2.5,3.5-4.6,3.5C109.4,71.8,108.4,71.2,108.4,70.1z"/>
</g>
<rect x="124" y="67.5" width="0.5" height="14"/>
<g>
	<path d="M124.1,67.6c0-1.8,2.5-3.5,4.5-3.5c1.3,0,2.3,0.7,2.3,1.7c0,1.7-2.5,3.5-4.6,3.5C125.1,69.3,124.1,68.7,124.1,67.6z"/>
</g>
<rect x="139.5" y="65.1" width="0.5" height="14.9"/>
<g>
	<path d="M139.6,65.1c0-1.8,2.5-3.5,4.5-3.5c1.3,0,2.3,0.7,2.3,1.7c0,1.7-2.5,3.5-4.6,3.5C140.6,66.9,139.6,66.2,139.6,65.1z"/>
</g>
<rect x="155" y="62.6" width="0.5" height="15.7"/>
<g>
	<path d="M155.1,62.7c0-1.8,2.5-3.5,4.5-3.5c1.3,0,2.3,0.7,2.3,1.7c0,1.7-2.5,3.5-4.6,3.5C156.1,64.4,155.1,63.7,155.1,62.7z"/>
</g>
<rect x="170.7" y="60.1" width="0.5" height="16.4"/>
<g>
	<path d="M170.8,60.2c0-1.8,2.5-3.5,4.5-3.5c1.3,0,2.3,0.7,2.3,1.7c0,1.7-2.5,3.5-4.6,3.5C171.7,61.9,170.8,61.3,170.8,60.2z"/>
</g>
<rect x="186.2" y="57.6" width="0.5" height="14"/>
<g>
	<path d="M186.3,57.7c0-1.8,2.5-3.5,4.5-3.5c1.3,0,2.3,0.7,2.3,1.7c0,1.7-2.5,3.5-4.6,3.5C187.2,59.4,186.3,58.8,186.3,57.7z"/>
</g>
<rect x="201.8" y="55.1" width="0.5" height="14.9"/>
<g>
	<path d="M201.9,55.2c0-1.8,2.5-3.5,4.5-3.5c1.3,0,2.3,0.7,2.3,1.7c0,1.7-2.5,3.5-4.6,3.5C202.9,56.9,201.9,56.3,201.9,55.2z"/>
</g>
<rect x="215.6" y="51.5" width="10.5" height="0.8"/>
<rect x="217.3" y="52.7" width="0.5" height="15.7"/>
<g>
	<path d="M217.4,52.7c0-1.8,2.5-3.5,4.5-3.5c1.3,0,2.3,0.7,2.3,1.7c0,1.7-2.5,3.5-4.6,3.5C218.4,54.5,217.4,53.8,217.4,52.7z"/>
</g>
<rect x="231.1" y="51.5" width="10.5" height="0.8"/>
<rect x="232.8" y="50.2" width="0.5" height="16.4"/>
<g>
	<path d="M232.9,50.3c0-1.8,2.5-3.5,4.5-3.5c1.3,0,2.3,0.7,2.3,1.7c0,1.7-2.5,3.5-4.6,3.5C233.9,52,232.9,51.3,232.9,50.3z"/>
</g>
<rect x="246.7" y="51.5" width="10.5" height="0.8"/>
<rect x="246.7" y="46.5" width="10.5" height="0.8"/>
<rect x="248.5" y="47.7" width="0.5" height="20.2"/>
<g>
	<path d="M248.6,47.8c0-1.8,2.5-3.5,4.5-3.5c1.3,0,2.3,0.7,2.3,1.7c0,1.7-2.5,3.5-4.6,3.5C249.6,49.5,248.6,48.9,248.6,47.8z"/>
</g>
<rect x="262.2" y="51.5" width="10.5" height="0.8"/>
<rect x="262.2" y="46.5" width="10.5" height="0.8"/>
<rect x="264" y="45.2" width="0.5" height="22.3"/>
<g>
	<path d="M264.1,45.3c0-1.8,2.5-3.5,4.5-3.5c1.3,0,2.3,0.7,2.3,1.7c0,1.7-2.5,3.5-4.6,3.5C265.1,47,264.1,46.4,264.1,45.3z"/>
</g>
<rect x="277.9" y="51.5" width="10.5" height="0.8"/>
<rect x="277.9" y="46.5" width="10.5" height="0.8"/>
<rect x="277.9" y="41.6" width="10.5" height="0.8"/>
<rect x="279.7" y="42.7" width="0.5" height="24.3"/>
<g>
	<path d="M279.7,42.8c0-1.8,2.5-3.5,4.5-3.5c1.3,0,2.3,0.7,2.3,1.7c0,1.7-2.5,3.5-4.6,3.5C280.7,44.5,279.7,43.9,279.7,42.8z"/>
</g>
<rect x="293.4" y="51.5" width="10.5" height="0.8"/>
<rect x="293.4" y="46.5" width="10.5" height="0.8"/>
<rect x="295.2" y="45.2" width="0.5" height="21.4"/>
<g>
	<path d="M295.2,45.3c0-1.8,2.5-3.5,4.5-3.5c1.3,0,2.3,0.7,2.3,1.7c0,1.7-2.5,3.5-4.6,3.5C296.2,47,295.2,46.4,295.2,45.3z"/>
</g>
<rect x="308.9" y="51.5" width="10.5" height="0.8"/>
<rect x="308.9" y="46.5" width="10.5" height="0.8"/>
<rect x="310.7" y="47.7" width="0.5" height="18.9"/>
<g>
	<path d="M310.7,47.8c0-1.8,2.5-3.5,4.5-3.5c1.3,0,2.3,0.7,2.3,1.7c0,1.7-2.5,3.5-4.6,3.5C311.7,49.5,310.7,48.9,310.7,47.8z"/>
</g>
<rect x="324.5" y="51.5" width="10.5" height="0.8"/>
<rect x="326.3" y="50.2" width="0.5" height="18"/>
<g>
	<path d="M326.4,50.3c0-1.8,2.5-3.5,4.5-3.5c1.3,0,2.3,0.7,2.3,1.7c0,1.7-2.5,3.5-4.6,3.5C327.4,52,326.4,51.3,326.4,50.3z"/>
</g>
<rect x="340" y="51.5" width="10.5" height="0.8"/>
<rect x="341.8" y="52.7" width="0.5" height="17.2"/>
<g>
	<path d="M341.9,52.7c0-1.8,2.5-3.5,4.5-3.5c1.3,0,2.3,0.7,2.3,1.7c0,1.7-2.5,3.5-4.6,3.5C342.9,54.5,341.9,53.8,341.9,52.7z"/>
</g>
<rect x="357.5" y="55.1" width="0.5" height="16.4"/>
<g>
	<path d="M357.6,55.2c0-1.8,2.5-3.5,4.5-3.5c1.3,0,2.3,0.7,2.3,1.7c0,1.7-2.5,3.5-4.6,3.5C358.5,56.9,357.6,56.3,357.6,55.2z"/>
</g>
<rect x="373" y="57.6" width="0.5" height="18.9"/>
<g>
	<path d="M373.1,57.7c0-1.8,2.5-3.5,4.5-3.5c1.3,0,2.3,0.7,2.3,1.7c0,1.7-2.5,3.5-4.6,3.5C374,59.4,373.1,58.8,373.1,57.7z"/>
</g>
<rect x="388.5" y="60.1" width="0.5" height="18"/>
<g>
	<path d="M388.6,60.2c0-1.8,2.5-3.5,4.5-3.5c1.3,0,2.3,0.7,2.3,1.7c0,1.7-2.5,3.5-4.6,3.5C389.5,61.9,388.6,61.3,388.6,60.2z"/>
</g>
<rect x="404.1" y="62.6" width="0.5" height="17.2"/>
<g>
	<path d="M404.2,62.7c0-1.8,2.5-3.5,4.5-3.5c1.3,0,2.3,0.7,2.3,1.7c0,1.7-2.5,3.5-4.6,3.5C405.2,64.4,404.2,63.7,404.2,62.7z"/>
</g>
<rect x="419.6" y="65.1" width="0.5" height="16.4"/>
<g>
	<path d="M419.7,65.1c0-1.8,2.5-3.5,4.5-3.5c1.3,0,2.3,0.7,2.3,1.7c0,1.7-2.5,3.5-4.6,3.5C420.7,66.9,419.7,66.2,419.7,65.1z"/>
</g>
<rect x="441.8" y="52" width="0.5" height="14"/>
<g>
	<path d="M435.4,67.6c0-1.8,2.5-3.5,4.5-3.5c1.3,0,2.3,0.7,2.3,1.7c0,1.7-2.5,3.5-4.6,3.5C436.3,69.3,435.4,68.7,435.4,67.6z"/>
</g>
<rect x="457.3" y="53.6" width="0.5" height="14.9"/>
<g>
	<path d="M450.9,70.1c0-1.8,2.5-3.5,4.5-3.5c1.3,0,2.3,0.7,2.3,1.7c0,1.7-2.5,3.5-4.6,3.5C451.8,71.8,450.9,71.2,450.9,70.1z"/>
</g>
<rect x="473" y="55.3" width="0.5" height="15.7"/>
<g>
	<path d="M466.5,72.6c0-1.8,2.5-3.5,4.5-3.5c1.3,0,2.3,0.7,2.3,1.7c0,1.7-2.5,3.5-4.6,3.5C467.5,74.3,466.5,73.7,466.5,72.6z"/>
</g>
<rect x="488.5" y="57" width="0.5" height="16.4"/>
<g>
	<path d="M482,75.1c0-1.8,2.5-3.5,4.5-3.5c1.3,0,2.3,0.7,2.3,1.7c0,1.7-2.5,3.5-4.6,3.5C483,76.8,482,76.1,482,75.1z"/>
</g>
<rect x="504.1" y="59.3" width="0.5" height="16.6"/>
<g>
	<path d="M501.8,74c1.6,0,2.7,0.7,2.7,2c0,1.9-2.3,3.4-4.5,3.4c-1.3,0-2.4-0.7-2.4-1.8C497.5,75.8,499.8,74,501.8,74z M498,77.8
		c0,0.6,0.4,0.9,1.1,0.9c1.4,0,4.9-2.1,4.9-3.3c0-0.6-0.4-0.9-1.1-0.9C501.7,74.6,498,76.6,498,77.8z"/>
</g>
</svg>
