<?xml version="1.0" encoding="utf-8"?>

<!--
	ScaleBook
	Copyright (c) Leland Jansen 2015. All rights reserved.
-->

<!DOCTYPE svg PUBLIC "-//W3C//DTD SVG 1.1//EN" "http://www.w3.org/Graphics/SVG/1.1/DTD/svg11.dtd">
<svg version="1.1" id="Layer_1" xmlns="http://www.w3.org/2000/svg" xmlns:xlink="http://www.w3.org/1999/xlink" x="0px" y="0px"
	 viewBox="0 0 552.9 81.6" enable-background="new 0 0 552.9 81.6" xml:space="preserve">
<rect x="8.4" y="9.7" width="0.8" height="67"/>
<g>
	<path d="M7.4,10.4c-1.9,1.1-3.6,5.8-3.6,9.4c0,2.3,1.4,9.9,1.4,12.3c0,5-1.5,8.6-4.6,11.1c3,2.4,4.6,6.1,4.6,11.1
		c0,2.3-1.4,9.9-1.4,12.3c0,3.8,1.7,8.4,3.6,9.5v0.7c-3.5-2.3-5.8-8.2-5.8-13.1c0-2.1,1.7-9.4,1.7-11.5c0-3.8-1-6.6-2.9-8.2
		C0.1,43.6,0,43.4,0,43.2c0-0.2,0.1-0.4,0.5-0.7c1.9-1.7,2.9-4.2,2.9-7.6c0-2.1-1.7-10-1.7-12.2c0-5.2,2.1-10.4,5.8-13.1V10.4z"/>
</g>
<rect x="547.8" y="9.7" width="0.8" height="67"/>
<rect x="550.4" y="9.7" width="2.5" height="67"/>
<rect x="8.5" y="29.3" width="544.4" height="0.5"/>
<rect x="8.5" y="24.4" width="544.4" height="0.5"/>
<rect x="8.5" y="19.4" width="544.4" height="0.5"/>
<rect x="8.5" y="14.4" width="544.4" height="0.5"/>
<rect x="8.5" y="9.5" width="544.4" height="0.5"/>
<g>
	<path d="M20.3,29.4c-4.2,0-8.1-3.1-8.1-6.9c0-3.2,2.3-6.7,6.8-10.5c-0.3-1.2-0.4-2.4-0.4-3.6c0-3.5,1.2-6.8,3.2-8.5
		c1.8,2.5,2.7,4.9,2.7,7.1c0,2.9-1.3,5.6-4.3,8.1l0.9,4.2c0.5,0,0.8-0.1,0.8-0.1c2.6,0,4.8,2,4.8,4.7c0,1.9-1.4,3.7-3.6,4.8
		c0-0.1,0.9,3.8,0.9,4.3c0,2.5-2.3,4.2-4.9,4.2c-2,0-3.6-1.3-3.6-3.4c0-1.4,1-2.6,2.4-2.6c1.3,0,2.3,1.3,2.3,2.5
		c0,1.4-1.2,2.3-2.7,2.5c0.6,0.3,1.2,0.5,1.9,0.5c2.1,0,4.1-1.6,4.1-3.6c0-0.2,0-0.4-0.1-0.6l-0.8-3.7
		C21.9,29.3,21.2,29.4,20.3,29.4z M18.1,24.2c0,1,0.5,1.9,1.6,2.5c-1.8-0.3-3-1.4-3-3.1c0-2,1.7-3.7,3.8-4.1l-0.8-4
		C16,18.3,14,21,14,23.6c0,2.9,2.8,5.3,6,5.3c0.9,0,1.7-0.2,2.4-0.5L21,21.6C19.4,21.8,18.1,22.8,18.1,24.2z M22.1,2.8
		c-1.6,0-2.9,3.7-2.9,7c0,0.7,0,1.3,0.2,1.9c2.7-2.4,4-4.5,4-6.5c0-0.9-0.3-1.7-1-2.4C22.4,2.9,22.3,2.8,22.1,2.8z M24.9,24.7
		c0-1.6-1.2-3.3-2.9-3.3c-0.1,0-0.2,0-0.5,0l1.4,6.6C24.2,27.2,24.9,26,24.9,24.7z"/>
</g>
<g>
	<path d="M29.5,11.3h0.6L30,17.6c0.4-0.7,1-1,1.8-1c1.2,0,2.2,0.8,2.2,1.9c0,0.8-0.5,1.8-1.7,2.7l-2.8,2.1V11.3z M30.1,18.2
		C30,19,30,19.6,30,20.2c0,1,0,1.6,0.1,2c1-0.7,2.4-2.6,2.4-3.7c0-0.6-0.5-1.1-1.1-1.1C30.8,17.4,30.4,17.7,30.1,18.2z"/>
</g>
<g>
	<path d="M35.1,3.9h0.6l-0.1,6.2c0.4-0.7,1-1,1.8-1c1.2,0,2.2,0.8,2.2,1.9c0,0.8-0.5,1.8-1.7,2.7l-2.8,2.1V3.9z M35.7,10.8
		c-0.1,0.8-0.1,1.4-0.1,1.9c0,1,0,1.6,0.1,2c1-0.7,2.4-2.6,2.4-3.7c0-0.6-0.5-1.1-1.1-1.1C36.4,10,36,10.2,35.7,10.8z"/>
</g>
<g>
	<path d="M40.7,13.8h0.6l-0.1,6.2c0.4-0.7,1-1,1.8-1c1.2,0,2.2,0.8,2.2,1.9c0,0.8-0.5,1.8-1.7,2.7l-2.8,2.1V13.8z M41.3,20.7
		c-0.1,0.8-0.1,1.4-0.1,1.9c0,1,0,1.6,0.1,2c1-0.7,2.4-2.6,2.4-3.7c0-0.6-0.5-1.1-1.1-1.1C42,19.9,41.6,20.2,41.3,20.7z"/>
</g>
<polygon fill-rule="evenodd" clip-rule="evenodd" points="60.4,25.8 107.8,24.6 107.8,22.1 60.4,23.4 "/>
<polygon fill-rule="evenodd" clip-rule="evenodd" points="60.4,22.1 107.8,20.9 107.8,18.4 60.4,19.6 "/>
<polygon fill-rule="evenodd" clip-rule="evenodd" points="123.6,20.9 171.2,15.9 171.2,13.4 123.6,18.4 "/>
<polygon fill-rule="evenodd" clip-rule="evenodd" points="123.6,17.2 171.2,12.2 171.2,9.7 123.6,14.7 "/>
<polygon fill-rule="evenodd" clip-rule="evenodd" points="180.5,35.8 228,30.8 228,28.3 180.5,33.3 "/>
<polygon fill-rule="evenodd" clip-rule="evenodd" points="180.5,39.5 228,34.5 228,32 180.5,37 "/>
<polygon fill-rule="evenodd" clip-rule="evenodd" points="243.8,27.1 291.2,25.8 291.2,23.4 243.8,24.6 "/>
<polygon fill-rule="evenodd" clip-rule="evenodd" points="243.8,30.8 291.2,29.6 291.2,27.1 243.8,28.3 "/>
<polygon fill-rule="evenodd" clip-rule="evenodd" points="307,25.8 354.5,30.8 354.5,28.3 307,23.4 "/>
<polygon fill-rule="evenodd" clip-rule="evenodd" points="307,29.6 354.5,34.5 354.5,32 307,27.1 "/>
<polygon fill-rule="evenodd" clip-rule="evenodd" points="376.9,11 424.4,15.9 424.4,13.4 376.9,8.5 "/>
<polygon fill-rule="evenodd" clip-rule="evenodd" points="376.9,7.2 424.4,12.2 424.4,9.7 376.9,4.8 "/>
<polygon fill-rule="evenodd" clip-rule="evenodd" points="440.2,20.9 487.6,25.8 487.6,23.4 440.2,18.4 "/>
<polygon fill-rule="evenodd" clip-rule="evenodd" points="440.2,17.2 487.6,22.1 487.6,19.6 440.2,14.7 "/>
<rect x="8.5" y="76.4" width="544.4" height="0.5"/>
<rect x="8.5" y="71.5" width="544.4" height="0.5"/>
<rect x="8.5" y="66.5" width="544.4" height="0.5"/>
<rect x="8.5" y="61.6" width="544.4" height="0.5"/>
<rect x="8.5" y="56.6" width="544.4" height="0.5"/>
<g>
	<path d="M15.7,71c2.9-2.6,4.7-6.1,4.7-9.2c0-2.5-1.4-4.4-3.7-4.4c-1.6,0-3.4,1.3-3.4,2.7c0,0.2,0,0.3,0.1,0.3
		c-0.1,0,0.6-0.6,1.4-0.6c0.9,0,1.5,0.8,1.5,1.7c0,1.2-0.9,2.2-2.1,2.2c-1.2,0-2.1-1.3-2.1-2.8c0-2.3,2.3-4.1,4.8-4.1
		c4.7,0,5.9,3.2,5.9,5.8c0,1.6-0.4,2.9-2,5.3c-1.9,3.1-6.4,5.3-8.1,5.3c-0.4,0-0.6-0.2-0.6-0.5C13.8,72.3,14.9,71.7,15.7,71z
		 M25.7,58.3c0.6,0,1,0.4,1,1c0,0.6-0.4,1-1,1s-1-0.4-1-1C24.7,58.8,25.1,58.3,25.7,58.3z M25.7,63.3c0.6,0,1,0.4,1,1
		c0,0.6-0.4,1-1,1s-1-0.4-1-1C24.7,63.7,25.1,63.3,25.7,63.3z"/>
</g>
<g>
	<path d="M29.5,63.4h0.6L30,69.7c0.4-0.7,1-1,1.8-1c1.2,0,2.2,0.8,2.2,1.9c0,0.8-0.5,1.8-1.7,2.7l-2.8,2.1V63.4z M30.1,70.3
		C30,71.1,30,71.7,30,72.3c0,1,0,1.6,0.1,2c1-0.7,2.4-2.6,2.4-3.7c0-0.6-0.5-1.1-1.1-1.1C30.8,69.5,30.4,69.8,30.1,70.3z"/>
</g>
<g>
	<path d="M35.1,56h0.6l-0.1,6.2c0.4-0.7,1-1,1.8-1c1.2,0,2.2,0.8,2.2,1.9c0,0.8-0.5,1.8-1.7,2.7l-2.8,2.1V56z M35.7,62.9
		c-0.1,0.8-0.1,1.4-0.1,1.9c0,1,0,1.6,0.1,2c1-0.7,2.4-2.6,2.4-3.7c0-0.6-0.5-1.1-1.1-1.1C36.4,62,36,62.3,35.7,62.9z"/>
</g>
<g>
	<path d="M40.7,65.9h0.6l-0.1,6.2c0.4-0.7,1-1,1.8-1c1.2,0,2.2,0.8,2.2,1.9c0,0.8-0.5,1.8-1.7,2.7l-2.8,2.1V65.9z M41.3,72.8
		c-0.1,0.8-0.1,1.4-0.1,1.9c0,1,0,1.6,0.1,2c1-0.7,2.4-2.6,2.4-3.7c0-0.6-0.5-1.1-1.1-1.1C42,72,41.6,72.2,41.3,72.8z"/>
</g>
<polygon fill-rule="evenodd" clip-rule="evenodd" points="60.4,63 107.8,58.1 107.8,55.6 60.4,60.6 "/>
<polygon fill-rule="evenodd" clip-rule="evenodd" points="60.4,59.3 107.8,54.4 107.8,51.9 60.4,56.8 "/>
<polygon fill-rule="evenodd" clip-rule="evenodd" points="117.1,77.9 164.7,73 164.7,70.5 117.1,75.4 "/>
<polygon fill-rule="evenodd" clip-rule="evenodd" points="117.1,81.6 164.7,76.7 164.7,74.2 117.1,79.2 "/>
<polygon fill-rule="evenodd" clip-rule="evenodd" points="180.5,68 228,63 228,60.6 180.5,65.5 "/>
<polygon fill-rule="evenodd" clip-rule="evenodd" points="180.5,71.7 228,66.8 228,64.3 180.5,69.2 "/>
<polygon fill-rule="evenodd" clip-rule="evenodd" points="243.8,64.3 291.2,63 291.2,60.6 243.8,61.8 "/>
<polygon fill-rule="evenodd" clip-rule="evenodd" points="243.8,68 291.2,66.8 291.2,64.3 243.8,65.5 "/>
<polygon fill-rule="evenodd" clip-rule="evenodd" points="307,63 354.5,68 354.5,65.5 307,60.6 "/>
<polygon fill-rule="evenodd" clip-rule="evenodd" points="307,66.8 354.5,71.7 354.5,69.2 307,64.3 "/>
<polygon fill-rule="evenodd" clip-rule="evenodd" points="370.4,73 417.9,77.9 417.9,75.4 370.4,70.5 "/>
<polygon fill-rule="evenodd" clip-rule="evenodd" points="370.4,76.7 417.9,81.6 417.9,79.2 370.4,74.2 "/>
<polygon fill-rule="evenodd" clip-rule="evenodd" points="440.2,58.1 487.6,63 487.6,60.6 440.2,55.6 "/>
<polygon fill-rule="evenodd" clip-rule="evenodd" points="440.2,54.4 487.6,59.3 487.6,56.8 440.2,51.9 "/>
<rect x="51.9" y="34.1" width="10.5" height="0.8"/>
<rect x="51.9" y="39.1" width="10.5" height="0.8"/>
<rect x="60.2" y="19.8" width="0.5" height="21.4"/>
<g>
	<path d="M53.7,42.8c0-1.8,2.5-3.5,4.5-3.5c1.3,0,2.3,0.7,2.3,1.7c0,1.7-2.5,3.5-4.6,3.5C54.7,44.5,53.7,43.9,53.7,42.8z"/>
</g>
<rect x="67.7" y="34.1" width="10.5" height="0.8"/>
<rect x="67.7" y="39.1" width="10.5" height="0.8"/>
<rect x="76" y="19.5" width="0.5" height="19.2"/>
<g>
	<path d="M69.5,40.3c0-1.8,2.5-3.5,4.5-3.5c1.3,0,2.3,0.7,2.3,1.7c0,1.7-2.5,3.5-4.6,3.5C70.5,42.1,69.5,41.4,69.5,40.3z"/>
</g>
<rect x="83.5" y="34.1" width="10.5" height="0.8"/>
<rect x="91.8" y="19" width="0.5" height="17.2"/>
<g>
	<path d="M85.3,37.9c0-1.8,2.5-3.5,4.5-3.5c1.3,0,2.3,0.7,2.3,1.7c0,1.7-2.5,3.5-4.6,3.5C86.3,39.6,85.3,38.9,85.3,37.9z"/>
</g>
<rect x="99.3" y="34.1" width="10.5" height="0.8"/>
<rect x="107.6" y="18.6" width="0.5" height="15.2"/>
<g>
	<path d="M101.2,35.4c0-1.8,2.5-3.5,4.5-3.5c1.3,0,2.3,0.7,2.3,1.7c0,1.7-2.5,3.5-4.6,3.5C102.1,37.1,101.2,36.5,101.2,35.4z"/>
</g>
<rect x="123.4" y="14.8" width="0.5" height="16.4"/>
<g>
	<path d="M117,32.9c0-1.8,2.5-3.5,4.5-3.5c1.3,0,2.3,0.7,2.3,1.7c0,1.7-2.5,3.5-4.6,3.5C117.9,34.6,117,34,117,32.9z"/>
</g>
<rect x="139.2" y="13.3" width="0.5" height="15.5"/>
<g>
	<path d="M132.8,30.4c0-1.8,2.5-3.5,4.5-3.5c1.3,0,2.3,0.7,2.3,1.7c0,1.7-2.5,3.5-4.6,3.5C133.8,32.1,132.8,31.5,132.8,30.4z"/>
</g>
<rect x="155" y="11.6" width="0.5" height="14.7"/>
<g>
	<path d="M148.6,27.9c0-1.8,2.5-3.5,4.5-3.5c1.3,0,2.3,0.7,2.3,1.7c0,1.7-2.5,3.5-4.6,3.5C149.6,29.7,148.6,29,148.6,27.9z"/>
</g>
<rect x="171" y="9.9" width="0.5" height="14"/>
<g>
	<path d="M164.6,25.5c0-1.8,2.5-3.5,4.5-3.5c1.3,0,2.3,0.7,2.3,1.7c0,1.7-2.5,3.5-4.6,3.5C165.5,27.2,164.6,26.5,164.6,25.5z"/>
</g>
<rect x="180.3" y="22.9" width="0.5" height="16.4"/>
<g>
	<path d="M180.4,23c0-1.8,2.5-3.5,4.5-3.5c1.3,0,2.3,0.7,2.3,1.7c0,1.7-2.5,3.5-4.6,3.5C181.3,24.7,180.4,24.1,180.4,23z"/>
</g>
<rect x="196.1" y="20.4" width="0.5" height="17.4"/>
<g>
	<path d="M196.2,20.5c0-1.8,2.5-3.5,4.5-3.5c1.3,0,2.3,0.7,2.3,1.7c0,1.7-2.5,3.5-4.6,3.5C197.2,22.2,196.2,21.6,196.2,20.5z"/>
</g>
<rect x="211.9" y="17.9" width="0.5" height="18.1"/>
<g>
	<path d="M212,18c0-1.8,2.5-3.5,4.5-3.5c1.3,0,2.3,0.7,2.3,1.7c0,1.7-2.5,3.5-4.6,3.5C213,19.7,212,19.1,212,18z"/>
</g>
<rect x="227.7" y="15.5" width="0.5" height="18.9"/>
<g>
	<path d="M227.8,15.5c0-1.8,2.5-3.5,4.5-3.5c1.3,0,2.3,0.7,2.3,1.7c0,1.7-2.5,3.5-4.6,3.5C228.8,17.3,227.8,16.6,227.8,15.5z"/>
</g>
<rect x="243.5" y="13" width="0.5" height="17.7"/>
<g>
	<path d="M243.6,13c0-1.8,2.5-3.5,4.5-3.5c1.3,0,2.3,0.7,2.3,1.7c0,1.7-2.5,3.5-4.6,3.5C244.6,14.8,243.6,14.1,243.6,13z"/>
</g>
<rect x="259.4" y="10.5" width="0.5" height="19.8"/>
<g>
	<path d="M259.4,10.6c0-1.8,2.5-3.5,4.5-3.5c1.3,0,2.3,0.7,2.3,1.7c0,1.7-2.5,3.5-4.6,3.5C260.4,12.3,259.4,11.7,259.4,10.6z"/>
</g>
<rect x="275.2" y="8" width="0.5" height="21.9"/>
<g>
	<path d="M275.2,8.1c0-1.8,2.5-3.5,4.5-3.5c1.3,0,2.3,0.7,2.3,1.7c0,1.7-2.5,3.5-4.6,3.5C276.2,9.8,275.2,9.2,275.2,8.1z"/>
</g>
<rect x="291" y="10.5" width="0.5" height="18.9"/>
<g>
	<path d="M291.1,10.6c0-1.8,2.5-3.5,4.5-3.5c1.3,0,2.3,0.7,2.3,1.7c0,1.7-2.5,3.5-4.6,3.5C292,12.3,291.1,11.7,291.1,10.6z"/>
</g>
<rect x="306.8" y="13" width="0.5" height="16.4"/>
<g>
	<path d="M306.9,13c0-1.8,2.5-3.5,4.5-3.5c1.3,0,2.3,0.7,2.3,1.7c0,1.7-2.5,3.5-4.6,3.5C307.8,14.8,306.9,14.1,306.9,13z"/>
</g>
<rect x="322.6" y="15.5" width="0.5" height="15.5"/>
<g>
	<path d="M322.7,15.5c0-1.8,2.5-3.5,4.5-3.5c1.3,0,2.3,0.7,2.3,1.7c0,1.7-2.5,3.5-4.6,3.5C323.6,17.3,322.7,16.6,322.7,15.5z"/>
</g>
<rect x="338.4" y="17.9" width="0.5" height="14.7"/>
<g>
	<path d="M338.5,18c0-1.8,2.5-3.5,4.5-3.5c1.3,0,2.3,0.7,2.3,1.7c0,1.7-2.5,3.5-4.6,3.5C339.5,19.7,338.5,19.1,338.5,18z"/>
</g>
<rect x="354.2" y="20.4" width="0.5" height="14"/>
<g>
	<path d="M354.3,20.5c0-1.8,2.5-3.5,4.5-3.5c1.3,0,2.3,0.7,2.3,1.7c0,1.7-2.5,3.5-4.6,3.5C355.3,22.2,354.3,21.6,354.3,20.5z"/>
</g>
<rect x="376.7" y="4.9" width="0.5" height="16.4"/>
<g>
	<path d="M370.3,23c0-1.8,2.5-3.5,4.5-3.5c1.3,0,2.3,0.7,2.3,1.7c0,1.7-2.5,3.5-4.6,3.5C371.2,24.7,370.3,24.1,370.3,23z"/>
</g>
<rect x="392.5" y="6.5" width="0.5" height="17.4"/>
<g>
	<path d="M386.1,25.5c0-1.8,2.5-3.5,4.5-3.5c1.3,0,2.3,0.7,2.3,1.7c0,1.7-2.5,3.5-4.6,3.5C387,27.2,386.1,26.5,386.1,25.5z"/>
</g>
<rect x="408.3" y="8.2" width="0.5" height="18.1"/>
<g>
	<path d="M401.9,27.9c0-1.8,2.5-3.5,4.5-3.5c1.3,0,2.3,0.7,2.3,1.7c0,1.7-2.5,3.5-4.6,3.5C402.9,29.7,401.9,29,401.9,27.9z"/>
</g>
<rect x="424.1" y="9.9" width="0.5" height="18.9"/>
<g>
	<path d="M417.7,30.4c0-1.8,2.5-3.5,4.5-3.5c1.3,0,2.3,0.7,2.3,1.7c0,1.7-2.5,3.5-4.6,3.5C418.7,32.1,417.7,31.5,417.7,30.4z"/>
</g>
<rect x="439.9" y="14.8" width="0.5" height="16.4"/>
<g>
	<path d="M433.5,32.9c0-1.8,2.5-3.5,4.5-3.5c1.3,0,2.3,0.7,2.3,1.7c0,1.7-2.5,3.5-4.6,3.5C434.5,34.6,433.5,34,433.5,32.9z"/>
</g>
<rect x="447.5" y="34.1" width="10.5" height="0.8"/>
<rect x="455.8" y="16.4" width="0.5" height="17.4"/>
<g>
	<path d="M449.3,35.4c0-1.8,2.5-3.5,4.5-3.5c1.3,0,2.3,0.7,2.3,1.7c0,1.7-2.5,3.5-4.6,3.5C450.3,37.1,449.3,36.5,449.3,35.4z"/>
</g>
<rect x="463.3" y="34.1" width="10.5" height="0.8"/>
<rect x="471.6" y="18.1" width="0.5" height="18.1"/>
<g>
	<path d="M465.1,37.9c0-1.8,2.5-3.5,4.5-3.5c1.3,0,2.3,0.7,2.3,1.7c0,1.7-2.5,3.5-4.6,3.5C466.1,39.6,465.1,38.9,465.1,37.9z"/>
</g>
<rect x="479.1" y="34.1" width="10.5" height="0.8"/>
<rect x="479.1" y="39.1" width="10.5" height="0.8"/>
<rect x="487.4" y="19.8" width="0.5" height="18.9"/>
<g>
	<path d="M480.9,40.3c0-1.8,2.5-3.5,4.5-3.5c1.3,0,2.3,0.7,2.3,1.7c0,1.7-2.5,3.5-4.6,3.5C481.9,42.1,480.9,41.4,480.9,40.3z"/>
</g>
<rect x="494.9" y="34.1" width="10.7" height="0.8"/>
<rect x="494.9" y="39.1" width="10.7" height="0.8"/>
<rect x="503.3" y="19.6" width="0.5" height="21.5"/>
<g>
	<path d="M501,39.3c1.6,0,2.7,0.7,2.7,2c0,1.9-2.3,3.4-4.5,3.4c-1.3,0-2.4-0.7-2.4-1.8C496.8,41,499,39.3,501,39.3z M497.2,43.1
		c0,0.6,0.4,0.9,1.1,0.9c1.4,0,4.9-2.1,4.9-3.3c0-0.6-0.4-0.9-1.1-0.9C500.9,39.9,497.2,41.9,497.2,43.1z"/>
</g>
<rect x="60.2" y="57" width="0.5" height="18.9"/>
<g>
	<path d="M53.7,77.5c0-1.8,2.5-3.5,4.5-3.5c1.3,0,2.3,0.7,2.3,1.7c0,1.7-2.5,3.5-4.6,3.5C54.7,79.3,53.7,78.6,53.7,77.5z"/>
</g>
<rect x="76" y="55.4" width="0.5" height="18"/>
<g>
	<path d="M69.5,75.1c0-1.8,2.5-3.5,4.5-3.5c1.3,0,2.3,0.7,2.3,1.7c0,1.7-2.5,3.5-4.6,3.5C70.5,76.8,69.5,76.1,69.5,75.1z"/>
</g>
<rect x="91.8" y="53.7" width="0.5" height="17.2"/>
<g>
	<path d="M85.3,72.6c0-1.8,2.5-3.5,4.5-3.5c1.3,0,2.3,0.7,2.3,1.7c0,1.7-2.5,3.5-4.6,3.5C86.3,74.3,85.3,73.7,85.3,72.6z"/>
</g>
<rect x="107.6" y="52" width="0.5" height="16.4"/>
<g>
	<path d="M101.2,70.1c0-1.8,2.5-3.5,4.5-3.5c1.3,0,2.3,0.7,2.3,1.7c0,1.7-2.5,3.5-4.6,3.5C102.1,71.8,101.2,71.2,101.2,70.1z"/>
</g>
<rect x="116.9" y="67.5" width="0.5" height="14"/>
<g>
	<path d="M117,67.6c0-1.8,2.5-3.5,4.5-3.5c1.3,0,2.3,0.7,2.3,1.7c0,1.7-2.5,3.5-4.6,3.5C117.9,69.3,117,68.7,117,67.6z"/>
</g>
<rect x="132.7" y="65.1" width="0.5" height="14.9"/>
<g>
	<path d="M132.8,65.1c0-1.8,2.5-3.5,4.5-3.5c1.3,0,2.3,0.7,2.3,1.7c0,1.7-2.5,3.5-4.6,3.5C133.8,66.9,132.8,66.2,132.8,65.1z"/>
</g>
<rect x="148.5" y="62.6" width="0.5" height="15.7"/>
<g>
	<path d="M148.6,62.7c0-1.8,2.5-3.5,4.5-3.5c1.3,0,2.3,0.7,2.3,1.7c0,1.7-2.5,3.5-4.6,3.5C149.6,64.4,148.6,63.7,148.6,62.7z"/>
</g>
<rect x="164.5" y="60.1" width="0.5" height="16.4"/>
<g>
	<path d="M164.6,60.2c0-1.8,2.5-3.5,4.5-3.5c1.3,0,2.3,0.7,2.3,1.7c0,1.7-2.5,3.5-4.6,3.5C165.5,61.9,164.6,61.3,164.6,60.2z"/>
</g>
<rect x="180.3" y="57.6" width="0.5" height="14"/>
<g>
	<path d="M180.4,57.7c0-1.8,2.5-3.5,4.5-3.5c1.3,0,2.3,0.7,2.3,1.7c0,1.7-2.5,3.5-4.6,3.5C181.3,59.4,180.4,58.8,180.4,57.7z"/>
</g>
<rect x="196.1" y="55.1" width="0.5" height="14.9"/>
<g>
	<path d="M196.2,55.2c0-1.8,2.5-3.5,4.5-3.5c1.3,0,2.3,0.7,2.3,1.7c0,1.7-2.5,3.5-4.6,3.5C197.2,56.9,196.2,56.3,196.2,55.2z"/>
</g>
<rect x="210.1" y="51.5" width="10.5" height="0.8"/>
<rect x="211.9" y="52.7" width="0.5" height="15.7"/>
<g>
	<path d="M212,52.7c0-1.8,2.5-3.5,4.5-3.5c1.3,0,2.3,0.7,2.3,1.7c0,1.7-2.5,3.5-4.6,3.5C213,54.5,212,53.8,212,52.7z"/>
</g>
<rect x="225.9" y="51.5" width="10.5" height="0.8"/>
<rect x="227.7" y="50.2" width="0.5" height="16.4"/>
<g>
	<path d="M227.8,50.3c0-1.8,2.5-3.5,4.5-3.5c1.3,0,2.3,0.7,2.3,1.7c0,1.7-2.5,3.5-4.6,3.5C228.8,52,227.8,51.3,227.8,50.3z"/>
</g>
<rect x="241.8" y="51.5" width="10.5" height="0.8"/>
<rect x="241.8" y="46.5" width="10.5" height="0.8"/>
<rect x="243.5" y="47.7" width="0.5" height="20.2"/>
<g>
	<path d="M243.6,47.8c0-1.8,2.5-3.5,4.5-3.5c1.3,0,2.3,0.7,2.3,1.7c0,1.7-2.5,3.5-4.6,3.5C244.6,49.5,243.6,48.9,243.6,47.8z"/>
</g>
<rect x="257.6" y="51.5" width="10.5" height="0.8"/>
<rect x="257.6" y="46.5" width="10.5" height="0.8"/>
<rect x="259.4" y="45.2" width="0.5" height="22.3"/>
<g>
	<path d="M259.4,45.3c0-1.8,2.5-3.5,4.5-3.5c1.3,0,2.3,0.7,2.3,1.7c0,1.7-2.5,3.5-4.6,3.5C260.4,47,259.4,46.4,259.4,45.3z"/>
</g>
<rect x="273.4" y="51.5" width="10.5" height="0.8"/>
<rect x="273.4" y="46.5" width="10.5" height="0.8"/>
<rect x="273.4" y="41.6" width="10.5" height="0.8"/>
<rect x="275.2" y="42.7" width="0.5" height="24.3"/>
<g>
	<path d="M275.2,42.8c0-1.8,2.5-3.5,4.5-3.5c1.3,0,2.3,0.7,2.3,1.7c0,1.7-2.5,3.5-4.6,3.5C276.2,44.5,275.2,43.9,275.2,42.8z"/>
</g>
<rect x="289.2" y="51.5" width="10.5" height="0.8"/>
<rect x="289.2" y="46.5" width="10.5" height="0.8"/>
<rect x="291" y="45.2" width="0.5" height="21.4"/>
<g>
	<path d="M291.1,45.3c0-1.8,2.5-3.5,4.5-3.5c1.3,0,2.3,0.7,2.3,1.7c0,1.7-2.5,3.5-4.6,3.5C292,47,291.1,46.4,291.1,45.3z"/>
</g>
<rect x="305" y="51.5" width="10.5" height="0.8"/>
<rect x="305" y="46.5" width="10.5" height="0.8"/>
<rect x="306.8" y="47.7" width="0.5" height="18.9"/>
<g>
	<path d="M306.9,47.8c0-1.8,2.5-3.5,4.5-3.5c1.3,0,2.3,0.7,2.3,1.7c0,1.7-2.5,3.5-4.6,3.5C307.8,49.5,306.9,48.9,306.9,47.8z"/>
</g>
<rect x="320.8" y="51.5" width="10.5" height="0.8"/>
<rect x="322.6" y="50.2" width="0.5" height="18"/>
<g>
	<path d="M322.7,50.3c0-1.8,2.5-3.5,4.5-3.5c1.3,0,2.3,0.7,2.3,1.7c0,1.7-2.5,3.5-4.6,3.5C323.6,52,322.7,51.3,322.7,50.3z"/>
</g>
<rect x="336.6" y="51.5" width="10.5" height="0.8"/>
<rect x="338.4" y="52.7" width="0.5" height="17.2"/>
<g>
	<path d="M338.5,52.7c0-1.8,2.5-3.5,4.5-3.5c1.3,0,2.3,0.7,2.3,1.7c0,1.7-2.5,3.5-4.6,3.5C339.5,54.5,338.5,53.8,338.5,52.7z"/>
</g>
<rect x="354.2" y="55.1" width="0.5" height="16.4"/>
<g>
	<path d="M354.3,55.2c0-1.8,2.5-3.5,4.5-3.5c1.3,0,2.3,0.7,2.3,1.7c0,1.7-2.5,3.5-4.6,3.5C355.3,56.9,354.3,56.3,354.3,55.2z"/>
</g>
<rect x="370.2" y="57.6" width="0.5" height="18.9"/>
<g>
	<path d="M370.3,57.7c0-1.8,2.5-3.5,4.5-3.5c1.3,0,2.3,0.7,2.3,1.7c0,1.7-2.5,3.5-4.6,3.5C371.2,59.4,370.3,58.8,370.3,57.7z"/>
</g>
<rect x="386" y="60.1" width="0.5" height="18"/>
<g>
	<path d="M386.1,60.2c0-1.8,2.5-3.5,4.5-3.5c1.3,0,2.3,0.7,2.3,1.7c0,1.7-2.5,3.5-4.6,3.5C387,61.9,386.1,61.3,386.1,60.2z"/>
</g>
<rect x="401.8" y="62.6" width="0.5" height="17.2"/>
<g>
	<path d="M401.9,62.7c0-1.8,2.5-3.5,4.5-3.5c1.3,0,2.3,0.7,2.3,1.7c0,1.7-2.5,3.5-4.6,3.5C402.9,64.4,401.9,63.7,401.9,62.7z"/>
</g>
<rect x="417.6" y="65.1" width="0.5" height="16.4"/>
<g>
	<path d="M417.7,65.1c0-1.8,2.5-3.5,4.5-3.5c1.3,0,2.3,0.7,2.3,1.7c0,1.7-2.5,3.5-4.6,3.5C418.7,66.9,417.7,66.2,417.7,65.1z"/>
</g>
<rect x="439.9" y="52" width="0.5" height="14"/>
<g>
	<path d="M433.5,67.6c0-1.8,2.5-3.5,4.5-3.5c1.3,0,2.3,0.7,2.3,1.7c0,1.7-2.5,3.5-4.6,3.5C434.5,69.3,433.5,68.7,433.5,67.6z"/>
</g>
<rect x="455.8" y="53.6" width="0.5" height="14.9"/>
<g>
	<path d="M449.3,70.1c0-1.8,2.5-3.5,4.5-3.5c1.3,0,2.3,0.7,2.3,1.7c0,1.7-2.5,3.5-4.6,3.5C450.3,71.8,449.3,71.2,449.3,70.1z"/>
</g>
<rect x="471.6" y="55.3" width="0.5" height="15.7"/>
<g>
	<path d="M465.1,72.6c0-1.8,2.5-3.5,4.5-3.5c1.3,0,2.3,0.7,2.3,1.7c0,1.7-2.5,3.5-4.6,3.5C466.1,74.3,465.1,73.7,465.1,72.6z"/>
</g>
<rect x="487.4" y="57" width="0.5" height="16.4"/>
<g>
	<path d="M480.9,75.1c0-1.8,2.5-3.5,4.5-3.5c1.3,0,2.3,0.7,2.3,1.7c0,1.7-2.5,3.5-4.6,3.5C481.9,76.8,480.9,76.1,480.9,75.1z"/>
</g>
<rect x="503.3" y="59.3" width="0.5" height="16.6"/>
<g>
	<path d="M501,74c1.6,0,2.7,0.7,2.7,2c0,1.9-2.3,3.4-4.5,3.4c-1.3,0-2.4-0.7-2.4-1.8C496.8,75.8,499,74,501,74z M497.2,77.8
		c0,0.6,0.4,0.9,1.1,0.9c1.4,0,4.9-2.1,4.9-3.3c0-0.6-0.4-0.9-1.1-0.9C500.9,74.6,497.2,76.6,497.2,77.8z"/>
</g>
</svg>
