<?xml version="1.0" encoding="utf-8"?>

<!--
	ScaleBook
	Copyright (c) Leland Jansen 2015. All rights reserved.
-->

<!DOCTYPE svg PUBLIC "-//W3C//DTD SVG 1.1//EN" "http://www.w3.org/Graphics/SVG/1.1/DTD/svg11.dtd">
<svg version="1.1" id="Layer_1" xmlns="http://www.w3.org/2000/svg" xmlns:xlink="http://www.w3.org/1999/xlink" x="0px" y="0px"
	 viewBox="0 0 552.9 91.9" enable-background="new 0 0 552.9 91.9" xml:space="preserve">
<rect x="8.4" y="15" width="0.8" height="67"/>
<g>
	<path d="M7.4,15.7c-1.9,1.1-3.6,5.8-3.6,9.4c0,2.3,1.4,9.9,1.4,12.3c0,5-1.5,8.6-4.6,11.1c3,2.4,4.6,6.1,4.6,11
		c0,2.3-1.4,9.9-1.4,12.3c0,3.8,1.7,8.4,3.6,9.5V82c-3.5-2.3-5.8-8.2-5.8-13.1c0-2.1,1.7-9.4,1.7-11.5c0-3.8-1-6.6-2.9-8.2
		C0.1,48.9,0,48.7,0,48.5s0.1-0.4,0.5-0.7c1.9-1.7,2.9-4.2,2.9-7.6c0-2.1-1.7-10-1.7-12.2c0-5.2,2.1-10.4,5.8-13.1V15.7z"/>
</g>
<rect x="547.8" y="15" width="0.8" height="67"/>
<rect x="550.4" y="15" width="2.5" height="67"/>
<rect x="8.5" y="34.6" width="544.4" height="0.5"/>
<rect x="8.5" y="29.6" width="544.4" height="0.5"/>
<rect x="8.5" y="24.7" width="544.4" height="0.5"/>
<rect x="8.5" y="19.7" width="544.4" height="0.5"/>
<rect x="8.5" y="14.8" width="544.4" height="0.5"/>
<g>
	<path d="M20.3,34.7c-4.2,0-8.1-3.1-8.1-6.9c0-3.2,2.3-6.7,6.8-10.5c-0.3-1.2-0.4-2.4-0.4-3.6c0-3.5,1.2-6.8,3.2-8.5
		c1.8,2.5,2.7,4.9,2.7,7.1c0,2.9-1.3,5.6-4.3,8.1l0.9,4.2c0.5,0,0.8-0.1,0.8-0.1c2.6,0,4.8,2,4.8,4.7c0,1.9-1.4,3.7-3.6,4.8
		c0-0.1,0.9,3.8,0.9,4.3c0,2.5-2.3,4.2-4.9,4.2c-2,0-3.6-1.3-3.6-3.4c0-1.4,1-2.6,2.4-2.6c1.3,0,2.3,1.3,2.3,2.5
		c0,1.4-1.2,2.3-2.7,2.5c0.6,0.3,1.2,0.5,1.9,0.5c2.1,0,4.1-1.6,4.1-3.6c0-0.2,0-0.4-0.1-0.6l-0.8-3.7
		C21.9,34.5,21.2,34.7,20.3,34.7z M18.1,29.5c0,1,0.5,1.9,1.6,2.5c-1.8-0.3-3-1.4-3-3.1c0-2,1.7-3.7,3.8-4.1l-0.8-4
		C16,23.6,14,26.3,14,28.9c0,2.9,2.8,5.3,6,5.3c0.9,0,1.7-0.2,2.4-0.5L21,26.9C19.4,27.1,18.1,28.1,18.1,29.5z M22.1,8.1
		c-1.6,0-2.9,3.7-2.9,7c0,0.7,0,1.3,0.2,1.9c2.7-2.4,4-4.5,4-6.5c0-0.9-0.3-1.7-1-2.4C22.4,8.1,22.3,8.1,22.1,8.1z M24.9,30
		c0-1.6-1.2-3.3-2.9-3.3c-0.1,0-0.2,0-0.5,0l1.4,6.6C24.2,32.5,24.9,31.3,24.9,30z"/>
</g>
<g>
	<path d="M29.5,16.6h0.6L30,22.9c0.4-0.7,1-1,1.8-1c1.2,0,2.2,0.8,2.2,1.9c0,0.8-0.5,1.8-1.7,2.7l-2.8,2.1V16.6z M30.1,23.5
		C30,24.3,30,24.9,30,25.5c0,1,0,1.6,0.1,2c1-0.7,2.4-2.6,2.4-3.7c0-0.6-0.5-1.1-1.1-1.1C30.8,22.7,30.4,23,30.1,23.5z"/>
</g>
<g>
	<path d="M35.1,9.2h0.6l-0.1,6.2c0.4-0.7,1-1,1.8-1c1.2,0,2.2,0.8,2.2,1.9c0,0.8-0.5,1.8-1.7,2.7l-2.8,2.1V9.2z M35.7,16.1
		c-0.1,0.8-0.1,1.4-0.1,1.9c0,1,0,1.6,0.1,2c1-0.7,2.4-2.6,2.4-3.7c0-0.6-0.5-1.1-1.1-1.1C36.4,15.2,36,15.5,35.7,16.1z"/>
</g>
<g>
	<path d="M40.7,19.1h0.6l-0.1,6.2c0.4-0.7,1-1,1.8-1c1.2,0,2.2,0.8,2.2,1.9c0,0.8-0.5,1.8-1.7,2.7L40.7,31V19.1z M41.3,26
		c-0.1,0.8-0.1,1.4-0.1,1.9c0,1,0,1.6,0.1,2c1-0.7,2.4-2.6,2.4-3.7c0-0.6-0.5-1.1-1.1-1.1C42,25.2,41.6,25.4,41.3,26z"/>
</g>
<g>
	<path d="M46.3,11.6h0.6l-0.1,6.2c0.4-0.7,1-1,1.8-1c1.2,0,2.2,0.8,2.2,1.9c0,0.8-0.5,1.8-1.7,2.7l-2.8,2.1V11.6z M46.9,18.6
		c-0.1,0.8-0.1,1.4-0.1,1.9c0,1,0,1.6,0.1,2c1-0.7,2.4-2.6,2.4-3.7c0-0.6-0.5-1.1-1.1-1.1C47.6,17.7,47.2,18,46.9,18.6z"/>
</g>
<g>
	<path d="M51.9,21.6h0.6l-0.1,6.2c0.4-0.7,1-1,1.8-1c1.2,0,2.2,0.8,2.2,1.9c0,0.8-0.5,1.8-1.7,2.7l-2.8,2.1V21.6z M52.4,28.5
		c-0.1,0.8-0.1,1.4-0.1,1.9c0,1,0,1.6,0.1,2c1-0.7,2.4-2.6,2.4-3.7c0-0.6-0.5-1.1-1.1-1.1C53.2,27.6,52.7,27.9,52.4,28.5z"/>
</g>
<polygon fill-rule="evenodd" clip-rule="evenodd" points="71.6,26.2 115.6,21.2 115.6,18.7 71.6,23.7 "/>
<polygon fill-rule="evenodd" clip-rule="evenodd" points="71.6,22.4 115.6,17.5 115.6,15 71.6,20 "/>
<polygon fill-rule="evenodd" clip-rule="evenodd" points="130.1,16.2 174.2,11.3 174.2,8.8 130.1,13.8 "/>
<polygon fill-rule="evenodd" clip-rule="evenodd" points="130.1,12.5 174.2,7.6 174.2,5.1 130.1,10 "/>
<polygon fill-rule="evenodd" clip-rule="evenodd" points="195.9,36.1 239.7,31.1 239.7,28.6 195.9,33.6 "/>
<polygon fill-rule="evenodd" clip-rule="evenodd" points="195.9,39.8 239.7,34.8 239.7,32.4 195.9,37.3 "/>
<polygon fill-rule="evenodd" clip-rule="evenodd" points="254.5,27.4 298.3,26.2 298.3,23.7 254.5,24.9 "/>
<polygon fill-rule="evenodd" clip-rule="evenodd" points="254.5,31.1 298.3,29.9 298.3,27.4 254.5,28.6 "/>
<polygon fill-rule="evenodd" clip-rule="evenodd" points="313.1,26.2 356.9,31.1 356.9,28.6 313.1,23.7 "/>
<polygon fill-rule="evenodd" clip-rule="evenodd" points="313.1,29.9 356.9,34.8 356.9,32.4 313.1,27.4 "/>
<polygon fill-rule="evenodd" clip-rule="evenodd" points="383.3,36.1 427.3,41 427.3,38.6 383.3,33.6 "/>
<polygon fill-rule="evenodd" clip-rule="evenodd" points="383.3,39.8 427.3,44.8 427.3,42.3 383.3,37.3 "/>
<polygon fill-rule="evenodd" clip-rule="evenodd" points="448.4,16.2 492.4,21.2 492.4,18.7 448.4,13.8 "/>
<polygon fill-rule="evenodd" clip-rule="evenodd" points="448.4,12.5 492.4,17.5 492.4,15 448.4,10 "/>
<rect x="8.5" y="81.7" width="544.4" height="0.5"/>
<rect x="8.5" y="76.8" width="544.4" height="0.5"/>
<rect x="8.5" y="71.8" width="544.4" height="0.5"/>
<rect x="8.5" y="66.9" width="544.4" height="0.5"/>
<rect x="8.5" y="61.9" width="544.4" height="0.5"/>
<g>
	<path d="M15.7,76.3c2.9-2.6,4.7-6.1,4.7-9.2c0-2.5-1.4-4.4-3.7-4.4c-1.6,0-3.4,1.3-3.4,2.7c0,0.2,0,0.3,0.1,0.3
		c-0.1,0,0.6-0.6,1.4-0.6c0.9,0,1.5,0.8,1.5,1.7c0,1.2-0.9,2.2-2.1,2.2c-1.2,0-2.1-1.3-2.1-2.8c0-2.3,2.3-4.1,4.8-4.1
		c4.7,0,5.9,3.2,5.9,5.8c0,1.6-0.4,2.9-2,5.3c-1.9,3.1-6.4,5.3-8.1,5.3c-0.4,0-0.6-0.2-0.6-0.5C13.8,77.6,14.9,77,15.7,76.3z
		 M25.7,63.6c0.6,0,1,0.4,1,1s-0.4,1-1,1s-1-0.4-1-1S25.1,63.6,25.7,63.6z M25.7,68.6c0.6,0,1,0.4,1,1c0,0.6-0.4,1-1,1s-1-0.4-1-1
		C24.7,69,25.1,68.6,25.7,68.6z"/>
</g>
<g>
	<path d="M29.5,68.7h0.6L30,74.9c0.4-0.7,1-1,1.8-1c1.2,0,2.2,0.8,2.2,1.9c0,0.8-0.5,1.8-1.7,2.7l-2.8,2.1V68.7z M30.1,75.6
		C30,76.3,30,77,30,77.5c0,1,0,1.6,0.1,2c1-0.7,2.4-2.6,2.4-3.7c0-0.6-0.5-1.1-1.1-1.1C30.8,74.8,30.4,75,30.1,75.6z"/>
</g>
<g>
	<path d="M35.1,61.3h0.6l-0.1,6.2c0.4-0.7,1-1,1.8-1c1.2,0,2.2,0.8,2.2,1.9c0,0.8-0.5,1.8-1.7,2.7l-2.8,2.1V61.3z M35.7,68.2
		c-0.1,0.8-0.1,1.4-0.1,1.9c0,1,0,1.6,0.1,2c1-0.7,2.4-2.6,2.4-3.7c0-0.6-0.5-1.1-1.1-1.1C36.4,67.3,36,67.6,35.7,68.2z"/>
</g>
<g>
	<path d="M40.7,71.2h0.6l-0.1,6.2c0.4-0.7,1-1,1.8-1c1.2,0,2.2,0.8,2.2,1.9c0,0.8-0.5,1.8-1.7,2.7l-2.8,2.1V71.2z M41.3,78.1
		c-0.1,0.8-0.1,1.4-0.1,1.9c0,1,0,1.6,0.1,2c1-0.7,2.4-2.6,2.4-3.7c0-0.6-0.5-1.1-1.1-1.1C42,77.2,41.6,77.5,41.3,78.1z"/>
</g>
<g>
	<path d="M46.3,63.7h0.6L46.8,70c0.4-0.7,1-1,1.8-1c1.2,0,2.2,0.8,2.2,1.9c0,0.8-0.5,1.8-1.7,2.7l-2.8,2.1V63.7z M46.9,70.6
		c-0.1,0.8-0.1,1.4-0.1,1.9c0,1,0,1.6,0.1,2c1-0.7,2.4-2.6,2.4-3.7c0-0.6-0.5-1.1-1.1-1.1C47.6,69.8,47.2,70.1,46.9,70.6z"/>
</g>
<g>
	<path d="M51.9,73.7h0.6l-0.1,6.2c0.4-0.7,1-1,1.8-1c1.2,0,2.2,0.8,2.2,1.9c0,0.8-0.5,1.8-1.7,2.7l-2.8,2.1V73.7z M52.4,80.6
		c-0.1,0.8-0.1,1.4-0.1,1.9c0,1,0,1.6,0.1,2c1-0.7,2.4-2.6,2.4-3.7c0-0.6-0.5-1.1-1.1-1.1C53.2,79.7,52.7,80,52.4,80.6z"/>
</g>
<polygon fill-rule="evenodd" clip-rule="evenodd" points="65,88.2 109.1,83.2 109.1,80.7 65,85.7 "/>
<polygon fill-rule="evenodd" clip-rule="evenodd" points="65,91.9 109.1,86.9 109.1,84.4 65,89.4 "/>
<g>
	<path d="M187.9,80.6c-3.2,0-6.1-2.3-6.1-5.1c0-2.4,1.7-5,5.1-7.9c-0.2-0.9-0.3-1.8-0.3-2.7c0-2.6,0.9-5.1,2.4-6.3
		c1.4,1.9,2,3.7,2,5.3c0,2.2-1,4.2-3.2,6.1l0.7,3.1c0.4,0,0.6,0,0.6,0c2,0,3.6,1.5,3.6,3.5c0,1.4-1.1,2.8-2.7,3.6
		c0-0.1,0.6,2.8,0.6,3.3c0,1.9-1.7,3.2-3.7,3.2c-1.5,0-2.7-1-2.7-2.5c0-1.1,0.7-1.9,1.8-1.9c1,0,1.7,1,1.7,1.9c0,1-0.9,1.7-2,1.8
		c0.4,0.2,0.9,0.3,1.4,0.3c1.6,0,3.1-1.2,3.1-2.7c0-0.1,0-0.3,0-0.5l-0.6-2.8C189.1,80.5,188.6,80.6,187.9,80.6z M186.2,76.7
		c0,0.8,0.4,1.4,1.2,1.9c-1.3-0.2-2.2-1.1-2.2-2.3c0-1.5,1.3-2.8,2.9-3.1l-0.6-3c-2.8,2.1-4.3,4.1-4.3,6.1c0,2.2,2.1,4,4.5,4
		c0.7,0,1.3-0.1,1.8-0.4l-1.1-5.1C187.2,74.9,186.2,75.7,186.2,76.7z M189.2,60.7c-1.2,0-2.2,2.8-2.2,5.3c0,0.5,0,1,0.1,1.4
		c2-1.8,3-3.4,3-4.8c0-0.7-0.3-1.3-0.7-1.8C189.4,60.7,189.3,60.7,189.2,60.7z M191.3,77.1c0-1.2-0.9-2.4-2.2-2.4c0,0-0.2,0-0.4,0
		l1.1,5C190.8,78.9,191.3,78.1,191.3,77.1z"/>
</g>
<polygon fill-rule="evenodd" clip-rule="evenodd" points="123.6,78.2 167.7,73.3 167.7,70.8 123.6,75.8 "/>
<polygon fill-rule="evenodd" clip-rule="evenodd" points="123.6,82 167.7,77 167.7,74.5 123.6,79.5 "/>
<polygon fill-rule="evenodd" clip-rule="evenodd" points="202.4,68.3 246.3,63.4 246.3,60.9 202.4,65.8 "/>
<polygon fill-rule="evenodd" clip-rule="evenodd" points="202.4,64.6 246.3,59.6 246.3,57.2 202.4,62.1 "/>
<polygon fill-rule="evenodd" clip-rule="evenodd" points="254.5,86.9 298.3,85.7 298.3,83.2 254.5,84.4 "/>
<polygon fill-rule="evenodd" clip-rule="evenodd" points="254.5,90.6 298.3,89.4 298.3,86.9 254.5,88.2 "/>
<g>
	<path d="M371.8,74c2.2-2,3.6-4.6,3.6-6.9c0-1.9-1.1-3.3-2.8-3.3c-1.2,0-2.5,1-2.5,2.1c0,0.2,0,0.2,0.1,0.2c0,0,0.4-0.5,1-0.5
		c0.7,0,1.2,0.6,1.2,1.3c0,0.9-0.6,1.7-1.6,1.7s-1.5-1-1.5-2.1c0-1.8,1.7-3.1,3.6-3.1c3.5,0,4.4,2.4,4.4,4.4c0,1.2-0.3,2.2-1.5,4
		c-1.4,2.3-4.8,4-6,4c-0.3,0-0.5-0.1-0.5-0.3C370.4,75,371.2,74.5,371.8,74z M379.3,64.5c0.4,0,0.7,0.3,0.7,0.7
		c0,0.4-0.3,0.7-0.7,0.7c-0.4,0-0.7-0.3-0.7-0.7C378.6,64.8,378.9,64.5,379.3,64.5z M379.3,68.2c0.4,0,0.7,0.3,0.7,0.7
		c0,0.4-0.3,0.7-0.7,0.7c-0.4,0-0.7-0.3-0.7-0.7C378.6,68.5,378.9,68.2,379.3,68.2z"/>
</g>
<polygon fill-rule="evenodd" clip-rule="evenodd" points="319.6,63.4 363.4,68.3 363.4,65.8 319.6,60.9 "/>
<polygon fill-rule="evenodd" clip-rule="evenodd" points="319.6,59.6 363.4,64.6 363.4,62.1 319.6,57.2 "/>
<polygon fill-rule="evenodd" clip-rule="evenodd" points="383.3,73.3 427.3,78.2 427.3,75.8 383.3,70.8 "/>
<polygon fill-rule="evenodd" clip-rule="evenodd" points="383.3,77 427.3,82 427.3,79.5 383.3,74.5 "/>
<polygon fill-rule="evenodd" clip-rule="evenodd" points="441.9,83.2 485.9,88.2 485.9,85.7 441.9,80.7 "/>
<polygon fill-rule="evenodd" clip-rule="evenodd" points="441.9,86.9 485.9,91.9 485.9,89.4 441.9,84.4 "/>
<rect x="63" y="39.4" width="10.5" height="0.8"/>
<rect x="71.3" y="20.1" width="0.5" height="21.4"/>
<g>
	<path d="M64.9,43.1c0-1.8,2.5-3.5,4.5-3.5c1.3,0,2.3,0.7,2.3,1.7c0,1.7-2.5,3.5-4.6,3.5C65.9,44.9,64.9,44.2,64.9,43.1z"/>
</g>
<g>
	<path d="M64.9,38.2c0-1.8,2.5-3.5,4.5-3.5c1.3,0,2.3,0.7,2.3,1.7c0,1.7-2.5,3.5-4.6,3.5C65.9,39.9,64.9,39.3,64.9,38.2z"/>
</g>
<rect x="77.8" y="39.4" width="10.5" height="0.8"/>
<rect x="86" y="18.6" width="0.5" height="20.5"/>
<g>
	<path d="M79.6,40.7c0-1.8,2.5-3.5,4.5-3.5c1.3,0,2.3,0.7,2.3,1.7c0,1.7-2.5,3.5-4.6,3.5C80.6,42.4,79.6,41.7,79.6,40.7z"/>
</g>
<g>
	<path d="M79.6,35.7c0-1.8,2.5-3.5,4.5-3.5c1.3,0,2.3,0.7,2.3,1.7c0,1.7-2.5,3.5-4.6,3.5C80.6,37.4,79.6,36.8,79.6,35.7z"/>
</g>
<rect x="100.6" y="16.9" width="0.5" height="19.7"/>
<g>
	<path d="M94.2,38.2c0-1.8,2.5-3.5,4.5-3.5c1.3,0,2.3,0.7,2.3,1.7c0,1.7-2.5,3.5-4.6,3.5C95.2,39.9,94.2,39.3,94.2,38.2z"/>
</g>
<g>
	<path d="M94.2,33.2c0-1.8,2.5-3.5,4.5-3.5c1.3,0,2.3,0.7,2.3,1.7c0,1.7-2.5,3.5-4.6,3.5C95.2,34.9,94.2,34.3,94.2,33.2z"/>
</g>
<rect x="115.3" y="15.2" width="0.5" height="18.9"/>
<g>
	<path d="M108.9,35.7c0-1.8,2.5-3.5,4.5-3.5c1.3,0,2.3,0.7,2.3,1.7c0,1.7-2.5,3.5-4.6,3.5C109.9,37.4,108.9,36.8,108.9,35.7z"/>
</g>
<g>
	<path d="M108.9,30.7c0-1.8,2.5-3.5,4.5-3.5c1.3,0,2.3,0.7,2.3,1.7c0,1.7-2.5,3.5-4.6,3.5C109.9,32.5,108.9,31.8,108.9,30.7z"/>
</g>
<rect x="129.9" y="10.2" width="0.5" height="21.4"/>
<g>
	<path d="M123.5,33.2c0-1.8,2.5-3.5,4.5-3.5c1.3,0,2.3,0.7,2.3,1.7c0,1.7-2.5,3.5-4.6,3.5C124.5,34.9,123.5,34.3,123.5,33.2z"/>
</g>
<g>
	<path d="M123.5,28.3c0-1.8,2.5-3.5,4.5-3.5c1.3,0,2.3,0.7,2.3,1.7c0,1.7-2.5,3.5-4.6,3.5C124.5,30,123.5,29.3,123.5,28.3z"/>
</g>
<g>
	<path d="M121.6,34.2v-4l-3,1.1V20.6h0.5v4l3-1.1v10.7H121.6z M119,29.5l2.5-0.9v-3.3l-2.5,0.9V29.5z"/>
</g>
<rect x="144.6" y="8.6" width="0.5" height="20.5"/>
<g>
	<path d="M138.2,30.7c0-1.8,2.5-3.5,4.5-3.5c1.3,0,2.3,0.7,2.3,1.7c0,1.7-2.5,3.5-4.6,3.5C139.2,32.5,138.2,31.8,138.2,30.7z"/>
</g>
<g>
	<path d="M138.2,25.8c0-1.8,2.5-3.5,4.5-3.5c1.3,0,2.3,0.7,2.3,1.7c0,1.7-2.5,3.5-4.6,3.5C139.2,27.5,138.2,26.9,138.2,25.8z"/>
</g>
<rect x="159.2" y="6.9" width="0.5" height="19.7"/>
<g>
	<path d="M152.8,28.3c0-1.8,2.5-3.5,4.5-3.5c1.3,0,2.3,0.7,2.3,1.7c0,1.7-2.5,3.5-4.6,3.5C153.8,30,152.8,29.3,152.8,28.3z"/>
</g>
<g>
	<path d="M152.8,23.3c0-1.8,2.5-3.5,4.5-3.5c1.3,0,2.3,0.7,2.3,1.7c0,1.7-2.5,3.5-4.6,3.5C153.8,25,152.8,24.4,152.8,23.3z"/>
</g>
<rect x="173.9" y="5.2" width="0.5" height="18.9"/>
<g>
	<path d="M167.5,25.8c0-1.8,2.5-3.5,4.5-3.5c1.3,0,2.3,0.7,2.3,1.7c0,1.7-2.5,3.5-4.6,3.5C168.5,27.5,167.5,26.9,167.5,25.8z"/>
</g>
<g>
	<path d="M167.5,20.8c0-1.8,2.5-3.5,4.5-3.5c1.3,0,2.3,0.7,2.3,1.7c0,1.7-2.5,3.5-4.6,3.5C168.5,22.5,167.5,21.9,167.5,20.8z"/>
</g>
<rect x="195.6" y="18.3" width="0.5" height="21.4"/>
<g>
	<path d="M195.7,18.3c0-1.8,2.5-3.5,4.5-3.5c1.3,0,2.3,0.7,2.3,1.7c0,1.7-2.5,3.5-4.6,3.5C196.7,20.1,195.7,19.4,195.7,18.3z"/>
</g>
<g>
	<path d="M195.7,23.3c0-1.8,2.5-3.5,4.5-3.5c1.3,0,2.3,0.7,2.3,1.7c0,1.7-2.5,3.5-4.6,3.5C196.7,25,195.7,24.4,195.7,23.3z"/>
</g>
<rect x="210.2" y="15.8" width="0.5" height="22.3"/>
<g>
	<path d="M210.3,15.9c0-1.8,2.5-3.5,4.5-3.5c1.3,0,2.3,0.7,2.3,1.7c0,1.7-2.5,3.5-4.6,3.5C211.3,17.6,210.3,16.9,210.3,15.9z"/>
</g>
<g>
	<path d="M210.3,20.8c0-1.8,2.5-3.5,4.5-3.5c1.3,0,2.3,0.7,2.3,1.7c0,1.7-2.5,3.5-4.6,3.5C211.3,22.5,210.3,21.9,210.3,20.8z"/>
</g>
<rect x="224.9" y="13.3" width="0.5" height="23.1"/>
<g>
	<path d="M225,13.4c0-1.8,2.5-3.5,4.5-3.5c1.3,0,2.3,0.7,2.3,1.7c0,1.7-2.5,3.5-4.6,3.5C226,15.1,225,14.5,225,13.4z"/>
</g>
<g>
	<path d="M225,18.3c0-1.8,2.5-3.5,4.5-3.5c1.3,0,2.3,0.7,2.3,1.7c0,1.7-2.5,3.5-4.6,3.5C226,20.1,225,19.4,225,18.3z"/>
</g>
<rect x="237.7" y="9.7" width="10.5" height="0.8"/>
<rect x="239.5" y="10.8" width="0.5" height="23.9"/>
<g>
	<path d="M239.6,10.9c0-1.8,2.5-3.5,4.5-3.5c1.3,0,2.3,0.7,2.3,1.7c0,1.7-2.5,3.5-4.6,3.5C240.6,12.6,239.6,12,239.6,10.9z"/>
</g>
<g>
	<path d="M239.6,15.9c0-1.8,2.5-3.5,4.5-3.5c1.3,0,2.3,0.7,2.3,1.7c0,1.7-2.5,3.5-4.6,3.5C240.6,17.6,239.6,16.9,239.6,15.9z"/>
</g>
<g>
	<path d="M236.4,16.8v-4l-3,1.1V3.2h0.5v4l3-1.1v10.7H236.4z M233.9,12.1l2.5-0.9V7.9l-2.5,0.9V12.1z"/>
</g>
<rect x="252.5" y="9.7" width="10.5" height="0.8"/>
<rect x="254.2" y="8.3" width="0.5" height="22.6"/>
<g>
	<path d="M254.3,8.4c0-1.8,2.5-3.5,4.5-3.5c1.3,0,2.3,0.7,2.3,1.7c0,1.7-2.5,3.5-4.6,3.5C255.3,10.1,254.3,9.5,254.3,8.4z"/>
</g>
<g>
	<path d="M254.3,13.4c0-1.8,2.5-3.5,4.5-3.5c1.3,0,2.3,0.7,2.3,1.7c0,1.7-2.5,3.5-4.6,3.5C255.3,15.1,254.3,14.5,254.3,13.4z"/>
</g>
<rect x="267" y="9.7" width="10.5" height="0.8"/>
<rect x="267" y="4.7" width="10.5" height="0.8"/>
<rect x="268.8" y="5.9" width="0.5" height="24.8"/>
<g>
	<path d="M268.9,5.9c0-1.8,2.5-3.5,4.5-3.5c1.3,0,2.3,0.7,2.3,1.7c0,1.7-2.5,3.5-4.6,3.5C269.9,7.7,268.9,7,268.9,5.9z"/>
</g>
<g>
	<path d="M268.9,10.9c0-1.8,2.5-3.5,4.5-3.5c1.3,0,2.3,0.7,2.3,1.7c0,1.7-2.5,3.5-4.6,3.5C269.9,12.6,268.9,12,268.9,10.9z"/>
</g>
<rect x="281.8" y="9.7" width="10.5" height="0.8"/>
<rect x="281.8" y="4.7" width="10.5" height="0.8"/>
<rect x="283.5" y="3.4" width="0.5" height="26.8"/>
<g>
	<path d="M283.6,3.5c0-1.8,2.5-3.5,4.5-3.5c1.3,0,2.3,0.7,2.3,1.7c0,1.7-2.5,3.5-4.6,3.5C284.6,5.2,283.6,4.5,283.6,3.5z"/>
</g>
<g>
	<path d="M283.6,8.4c0-1.8,2.5-3.5,4.5-3.5c1.3,0,2.3,0.7,2.3,1.7c0,1.7-2.5,3.5-4.6,3.5C284.6,10.1,283.6,9.5,283.6,8.4z"/>
</g>
<rect x="296.3" y="9.7" width="10.5" height="0.8"/>
<rect x="296.3" y="4.7" width="10.5" height="0.8"/>
<rect x="298.1" y="5.9" width="0.5" height="23.9"/>
<g>
	<path d="M298.2,5.9c0-1.8,2.5-3.5,4.5-3.5c1.3,0,2.3,0.7,2.3,1.7c0,1.7-2.5,3.5-4.6,3.5C299.2,7.7,298.2,7,298.2,5.9z"/>
</g>
<g>
	<path d="M298.2,10.9c0-1.8,2.5-3.5,4.5-3.5c1.3,0,2.3,0.7,2.3,1.7c0,1.7-2.5,3.5-4.6,3.5C299.2,12.6,298.2,12,298.2,10.9z"/>
</g>
<rect x="311" y="9.7" width="10.5" height="0.8"/>
<rect x="312.8" y="8.3" width="0.5" height="21.4"/>
<g>
	<path d="M312.9,8.4c0-1.8,2.5-3.5,4.5-3.5c1.3,0,2.3,0.7,2.3,1.7c0,1.7-2.5,3.5-4.6,3.5C313.9,10.1,312.9,9.5,312.9,8.4z"/>
</g>
<g>
	<path d="M312.9,13.4c0-1.8,2.5-3.5,4.5-3.5c1.3,0,2.3,0.7,2.3,1.7c0,1.7-2.5,3.5-4.6,3.5C313.9,15.1,312.9,14.5,312.9,13.4z"/>
</g>
<rect x="325.6" y="9.7" width="10.5" height="0.8"/>
<rect x="327.4" y="10.8" width="0.5" height="20.5"/>
<g>
	<path d="M327.5,10.9c0-1.8,2.5-3.5,4.5-3.5c1.3,0,2.3,0.7,2.3,1.7c0,1.7-2.5,3.5-4.6,3.5C328.5,12.6,327.5,12,327.5,10.9z"/>
</g>
<g>
	<path d="M327.5,15.9c0-1.8,2.5-3.5,4.5-3.5c1.3,0,2.3,0.7,2.3,1.7c0,1.7-2.5,3.5-4.6,3.5C328.5,17.6,327.5,16.9,327.5,15.9z"/>
</g>
<rect x="342.1" y="13.3" width="0.5" height="19.7"/>
<g>
	<path d="M342.2,13.4c0-1.8,2.5-3.5,4.5-3.5c1.3,0,2.3,0.7,2.3,1.7c0,1.7-2.5,3.5-4.6,3.5C343.2,15.1,342.2,14.5,342.2,13.4z"/>
</g>
<g>
	<path d="M342.2,18.3c0-1.8,2.5-3.5,4.5-3.5c1.3,0,2.3,0.7,2.3,1.7c0,1.7-2.5,3.5-4.6,3.5C343.2,20.1,342.2,19.4,342.2,18.3z"/>
</g>
<rect x="356.7" y="15.8" width="0.5" height="18.9"/>
<g>
	<path d="M356.8,15.9c0-1.8,2.5-3.5,4.5-3.5c1.3,0,2.3,0.7,2.3,1.7c0,1.7-2.5,3.5-4.6,3.5C357.8,17.6,356.8,16.9,356.8,15.9z"/>
</g>
<g>
	<path d="M356.8,20.8c0-1.8,2.5-3.5,4.5-3.5c1.3,0,2.3,0.7,2.3,1.7c0,1.7-2.5,3.5-4.6,3.5C357.8,22.5,356.8,21.9,356.8,20.8z"/>
</g>
<rect x="383.1" y="18.3" width="0.5" height="21.4"/>
<g>
	<path d="M383.1,18.3c0-1.8,2.5-3.5,4.5-3.5c1.3,0,2.3,0.7,2.3,1.7c0,1.7-2.5,3.5-4.6,3.5C384.1,20.1,383.1,19.4,383.1,18.3z"/>
</g>
<g>
	<path d="M383.1,23.3c0-1.8,2.5-3.5,4.5-3.5c1.3,0,2.3,0.7,2.3,1.7c0,1.7-2.5,3.5-4.6,3.5C384.1,25,383.1,24.4,383.1,23.3z"/>
</g>
<rect x="397.8" y="20.7" width="0.5" height="20.5"/>
<g>
	<path d="M397.9,20.8c0-1.8,2.5-3.5,4.5-3.5c1.3,0,2.3,0.7,2.3,1.7c0,1.7-2.5,3.5-4.6,3.5C398.8,22.5,397.9,21.9,397.9,20.8z"/>
</g>
<g>
	<path d="M397.9,25.8c0-1.8,2.5-3.5,4.5-3.5c1.3,0,2.3,0.7,2.3,1.7c0,1.7-2.5,3.5-4.6,3.5C398.8,27.5,397.9,26.9,397.9,25.8z"/>
</g>
<rect x="412.4" y="23.2" width="0.5" height="19.7"/>
<g>
	<path d="M412.4,23.3c0-1.8,2.5-3.5,4.5-3.5c1.3,0,2.3,0.7,2.3,1.7c0,1.7-2.5,3.5-4.6,3.5C413.4,25,412.4,24.4,412.4,23.3z"/>
</g>
<g>
	<path d="M412.4,28.3c0-1.8,2.5-3.5,4.5-3.5c1.3,0,2.3,0.7,2.3,1.7c0,1.7-2.5,3.5-4.6,3.5C413.4,30,412.4,29.3,412.4,28.3z"/>
</g>
<rect x="427.1" y="25.7" width="0.5" height="18.9"/>
<g>
	<path d="M427.2,25.8c0-1.8,2.5-3.5,4.5-3.5c1.3,0,2.3,0.7,2.3,1.7c0,1.7-2.5,3.5-4.6,3.5C428.1,27.5,427.2,26.9,427.2,25.8z"/>
</g>
<g>
	<path d="M427.2,30.7c0-1.8,2.5-3.5,4.5-3.5c1.3,0,2.3,0.7,2.3,1.7c0,1.7-2.5,3.5-4.6,3.5C428.1,32.5,427.2,31.8,427.2,30.7z"/>
</g>
<rect x="448.2" y="10.2" width="0.5" height="21.4"/>
<g>
	<path d="M441.7,33.2c0-1.8,2.5-3.5,4.5-3.5c1.3,0,2.3,0.7,2.3,1.7c0,1.7-2.5,3.5-4.6,3.5C442.7,34.9,441.7,34.3,441.7,33.2z"/>
</g>
<g>
	<path d="M441.7,28.3c0-1.8,2.5-3.5,4.5-3.5c1.3,0,2.3,0.7,2.3,1.7c0,1.7-2.5,3.5-4.6,3.5C442.7,30,441.7,29.3,441.7,28.3z"/>
</g>
<rect x="462.9" y="11.7" width="0.5" height="22.3"/>
<g>
	<path d="M456.5,35.7c0-1.8,2.5-3.5,4.5-3.5c1.3,0,2.3,0.7,2.3,1.7c0,1.7-2.5,3.5-4.6,3.5C457.4,37.4,456.5,36.8,456.5,35.7z"/>
</g>
<g>
	<path d="M456.5,30.7c0-1.8,2.5-3.5,4.5-3.5c1.3,0,2.3,0.7,2.3,1.7c0,1.7-2.5,3.5-4.6,3.5C457.4,32.5,456.5,31.8,456.5,30.7z"/>
</g>
<rect x="477.5" y="13.5" width="0.5" height="23.1"/>
<g>
	<path d="M471,38.2c0-1.8,2.5-3.5,4.5-3.5c1.3,0,2.3,0.7,2.3,1.7c0,1.7-2.5,3.5-4.6,3.5C472,39.9,471,39.3,471,38.2z"/>
</g>
<g>
	<path d="M471,33.2c0-1.8,2.5-3.5,4.5-3.5c1.3,0,2.3,0.7,2.3,1.7c0,1.7-2.5,3.5-4.6,3.5C472,34.9,471,34.3,471,33.2z"/>
</g>
<rect x="483.9" y="39.4" width="10.5" height="0.8"/>
<rect x="492.2" y="15.2" width="0.5" height="23.9"/>
<g>
	<path d="M485.8,40.7c0-1.8,2.5-3.5,4.5-3.5c1.3,0,2.3,0.7,2.3,1.7c0,1.7-2.5,3.5-4.6,3.5C486.7,42.4,485.8,41.7,485.8,40.7z"/>
</g>
<g>
	<path d="M485.8,35.7c0-1.8,2.5-3.5,4.5-3.5c1.3,0,2.3,0.7,2.3,1.7c0,1.7-2.5,3.5-4.6,3.5C486.7,37.4,485.8,36.8,485.8,35.7z"/>
</g>
<rect x="498.5" y="39.4" width="10.7" height="0.8"/>
<rect x="506.9" y="20" width="0.5" height="21.5"/>
<g>
	<path d="M504.6,39.6c1.6,0,2.7,0.7,2.7,2c0,1.9-2.3,3.4-4.5,3.4c-1.3,0-2.4-0.7-2.4-1.8C500.3,41.4,502.6,39.6,504.6,39.6z
		 M500.8,43.4c0,0.6,0.4,0.9,1.1,0.9c1.4,0,4.9-2.1,4.9-3.3c0-0.6-0.4-0.9-1.1-0.9C504.4,40.2,500.8,42.2,500.8,43.4z"/>
</g>
<g>
	<path d="M504.6,34.6c1.6,0,2.7,0.7,2.7,2c0,1.9-2.3,3.4-4.5,3.4c-1.3,0-2.4-0.7-2.4-1.8C500.3,36.4,502.6,34.6,504.6,34.6z
		 M500.8,38.5c0,0.6,0.4,0.9,1.1,0.9c1.4,0,4.9-2.1,4.9-3.3c0-0.6-0.4-0.9-1.1-0.9C504.4,35.2,500.8,37.2,500.8,38.5z"/>
</g>
<rect x="64.8" y="72.8" width="0.5" height="18.9"/>
<g>
	<path d="M64.9,72.9c0-1.8,2.5-3.5,4.5-3.5c1.3,0,2.3,0.7,2.3,1.7c0,1.7-2.5,3.5-4.6,3.5C65.9,74.6,64.9,74,64.9,72.9z"/>
</g>
<g>
	<path d="M64.9,77.9c0-1.8,2.5-3.5,4.5-3.5c1.3,0,2.3,0.7,2.3,1.7c0,1.7-2.5,3.5-4.6,3.5C65.9,79.6,64.9,78.9,64.9,77.9z"/>
</g>
<rect x="79.5" y="70.3" width="0.5" height="19.8"/>
<g>
	<path d="M79.6,70.4c0-1.8,2.5-3.5,4.5-3.5c1.3,0,2.3,0.7,2.3,1.7c0,1.7-2.5,3.5-4.6,3.5C80.6,72.1,79.6,71.5,79.6,70.4z"/>
</g>
<g>
	<path d="M79.6,75.4c0-1.8,2.5-3.5,4.5-3.5c1.3,0,2.3,0.7,2.3,1.7c0,1.7-2.5,3.5-4.6,3.5C80.6,77.1,79.6,76.5,79.6,75.4z"/>
</g>
<rect x="94.1" y="67.9" width="0.5" height="20.6"/>
<g>
	<path d="M94.2,67.9c0-1.8,2.5-3.5,4.5-3.5c1.3,0,2.3,0.7,2.3,1.7c0,1.7-2.5,3.5-4.6,3.5C95.2,69.7,94.2,69,94.2,67.9z"/>
</g>
<g>
	<path d="M94.2,72.9c0-1.8,2.5-3.5,4.5-3.5c1.3,0,2.3,0.7,2.3,1.7c0,1.7-2.5,3.5-4.6,3.5C95.2,74.6,94.2,74,94.2,72.9z"/>
</g>
<rect x="108.8" y="65.4" width="0.5" height="21.4"/>
<g>
	<path d="M108.9,65.5c0-1.8,2.5-3.5,4.5-3.5c1.3,0,2.3,0.7,2.3,1.7c0,1.7-2.5,3.5-4.6,3.5C109.9,67.2,108.9,66.5,108.9,65.5z"/>
</g>
<g>
	<path d="M108.9,70.4c0-1.8,2.5-3.5,4.5-3.5c1.3,0,2.3,0.7,2.3,1.7c0,1.7-2.5,3.5-4.6,3.5C109.9,72.1,108.9,71.5,108.9,70.4z"/>
</g>
<rect x="123.4" y="62.9" width="0.5" height="18.9"/>
<g>
	<path d="M123.5,63c0-1.8,2.5-3.5,4.5-3.5c1.3,0,2.3,0.7,2.3,1.7c0,1.7-2.5,3.5-4.6,3.5C124.5,64.7,123.5,64.1,123.5,63z"/>
</g>
<g>
	<path d="M123.5,67.9c0-1.8,2.5-3.5,4.5-3.5c1.3,0,2.3,0.7,2.3,1.7c0,1.7-2.5,3.5-4.6,3.5C124.5,69.7,123.5,69,123.5,67.9z"/>
</g>
<g>
	<path d="M121.6,68.9v-4l-3,1.1V55.3h0.5v4l3-1.1v10.7H121.6z M119,64.2l2.5-0.9V60l-2.5,0.9V64.2z"/>
</g>
<rect x="138.1" y="60.4" width="0.5" height="19.8"/>
<g>
	<path d="M138.2,60.5c0-1.8,2.5-3.5,4.5-3.5c1.3,0,2.3,0.7,2.3,1.7c0,1.7-2.5,3.5-4.6,3.5C139.2,62.2,138.2,61.6,138.2,60.5z"/>
</g>
<g>
	<path d="M138.2,65.5c0-1.8,2.5-3.5,4.5-3.5c1.3,0,2.3,0.7,2.3,1.7c0,1.7-2.5,3.5-4.6,3.5C139.2,67.2,138.2,66.5,138.2,65.5z"/>
</g>
<rect x="150.9" y="56.8" width="10.5" height="0.8"/>
<rect x="152.7" y="57.9" width="0.5" height="20.6"/>
<g>
	<path d="M152.8,58c0-1.8,2.5-3.5,4.5-3.5c1.3,0,2.3,0.7,2.3,1.7c0,1.7-2.5,3.5-4.6,3.5C153.8,59.7,152.8,59.1,152.8,58z"/>
</g>
<g>
	<path d="M152.8,63c0-1.8,2.5-3.5,4.5-3.5c1.3,0,2.3,0.7,2.3,1.7c0,1.7-2.5,3.5-4.6,3.5C153.8,64.7,152.8,64.1,152.8,63z"/>
</g>
<rect x="165.6" y="56.8" width="10.5" height="0.8"/>
<rect x="167.4" y="55.5" width="0.5" height="21.4"/>
<g>
	<path d="M167.5,55.5c0-1.8,2.5-3.5,4.5-3.5c1.3,0,2.3,0.7,2.3,1.7c0,1.7-2.5,3.5-4.6,3.5C168.5,57.3,167.5,56.6,167.5,55.5z"/>
</g>
<g>
	<path d="M167.5,60.5c0-1.8,2.5-3.5,4.5-3.5c1.3,0,2.3,0.7,2.3,1.7c0,1.7-2.5,3.5-4.6,3.5C168.5,62.2,167.5,61.6,167.5,60.5z"/>
</g>
<rect x="193.9" y="86.5" width="10.5" height="0.8"/>
<rect x="202.2" y="62.3" width="0.5" height="23.9"/>
<g>
	<path d="M195.7,87.8c0-1.8,2.5-3.5,4.5-3.5c1.3,0,2.3,0.7,2.3,1.7c0,1.7-2.5,3.5-4.6,3.5C196.7,89.5,195.7,88.9,195.7,87.8z"/>
</g>
<g>
	<path d="M195.7,82.8c0-1.8,2.5-3.5,4.5-3.5c1.3,0,2.3,0.7,2.3,1.7c0,1.7-2.5,3.5-4.6,3.5C196.7,84.5,195.7,83.9,195.7,82.8z"/>
</g>
<rect x="216.7" y="60.7" width="0.5" height="22.9"/>
<g>
	<path d="M210.3,85.3c0-1.8,2.5-3.5,4.5-3.5c1.3,0,2.3,0.7,2.3,1.7c0,1.7-2.5,3.5-4.6,3.5C211.3,87,210.3,86.4,210.3,85.3z"/>
</g>
<g>
	<path d="M210.3,80.3c0-1.8,2.5-3.5,4.5-3.5c1.3,0,2.3,0.7,2.3,1.7c0,1.7-2.5,3.5-4.6,3.5C211.3,82.1,210.3,81.4,210.3,80.3z"/>
</g>
<rect x="231.4" y="59" width="0.5" height="22.2"/>
<g>
	<path d="M225,82.8c0-1.8,2.5-3.5,4.5-3.5c1.3,0,2.3,0.7,2.3,1.7c0,1.7-2.5,3.5-4.6,3.5C226,84.5,225,83.9,225,82.8z"/>
</g>
<g>
	<path d="M225,77.9c0-1.8,2.5-3.5,4.5-3.5c1.3,0,2.3,0.7,2.3,1.7c0,1.7-2.5,3.5-4.6,3.5C226,79.6,225,78.9,225,77.9z"/>
</g>
<rect x="246" y="57.3" width="0.5" height="21.4"/>
<g>
	<path d="M239.6,80.3c0-1.8,2.5-3.5,4.5-3.5c1.3,0,2.3,0.7,2.3,1.7c0,1.7-2.5,3.5-4.6,3.5C240.6,82.1,239.6,81.4,239.6,80.3z"/>
</g>
<g>
	<path d="M239.6,75.4c0-1.8,2.5-3.5,4.5-3.5c1.3,0,2.3,0.7,2.3,1.7c0,1.7-2.5,3.5-4.6,3.5C240.6,77.1,239.6,76.5,239.6,75.4z"/>
</g>
<g>
	<path d="M237.7,81.3v-4l-3,1.1V67.7h0.5v4l3-1.1v10.7H237.7z M235.1,76.6l2.5-0.9v-3.3l-2.5,0.9V76.6z"/>
</g>
<rect x="254.2" y="72.8" width="0.5" height="17.7"/>
<g>
	<path d="M254.3,72.9c0-1.8,2.5-3.5,4.5-3.5c1.3,0,2.3,0.7,2.3,1.7c0,1.7-2.5,3.5-4.6,3.5C255.3,74.6,254.3,74,254.3,72.9z"/>
</g>
<g>
	<path d="M254.3,77.9c0-1.8,2.5-3.5,4.5-3.5c1.3,0,2.3,0.7,2.3,1.7c0,1.7-2.5,3.5-4.6,3.5C255.3,79.6,254.3,78.9,254.3,77.9z"/>
</g>
<rect x="268.8" y="70.3" width="0.5" height="19.8"/>
<g>
	<path d="M268.9,70.4c0-1.8,2.5-3.5,4.5-3.5c1.3,0,2.3,0.7,2.3,1.7c0,1.7-2.5,3.5-4.6,3.5C269.9,72.1,268.9,71.5,268.9,70.4z"/>
</g>
<g>
	<path d="M268.9,75.4c0-1.8,2.5-3.5,4.5-3.5c1.3,0,2.3,0.7,2.3,1.7c0,1.7-2.5,3.5-4.6,3.5C269.9,77.1,268.9,76.5,268.9,75.4z"/>
</g>
<rect x="283.5" y="67.9" width="0.5" height="21.9"/>
<g>
	<path d="M283.6,67.9c0-1.8,2.5-3.5,4.5-3.5c1.3,0,2.3,0.7,2.3,1.7c0,1.7-2.5,3.5-4.6,3.5C284.6,69.7,283.6,69,283.6,67.9z"/>
</g>
<g>
	<path d="M283.6,72.9c0-1.8,2.5-3.5,4.5-3.5c1.3,0,2.3,0.7,2.3,1.7c0,1.7-2.5,3.5-4.6,3.5C284.6,74.6,283.6,74,283.6,72.9z"/>
</g>
<rect x="298.1" y="70.3" width="0.5" height="18.9"/>
<g>
	<path d="M298.2,70.4c0-1.8,2.5-3.5,4.5-3.5c1.3,0,2.3,0.7,2.3,1.7c0,1.7-2.5,3.5-4.6,3.5C299.2,72.1,298.2,71.5,298.2,70.4z"/>
</g>
<g>
	<path d="M298.2,75.4c0-1.8,2.5-3.5,4.5-3.5c1.3,0,2.3,0.7,2.3,1.7c0,1.7-2.5,3.5-4.6,3.5C299.2,77.1,298.2,76.5,298.2,75.4z"/>
</g>
<rect x="319.3" y="57.3" width="0.5" height="18.9"/>
<g>
	<path d="M312.9,77.9c0-1.8,2.5-3.5,4.5-3.5c1.3,0,2.3,0.7,2.3,1.7c0,1.7-2.5,3.5-4.6,3.5C313.9,79.6,312.9,78.9,312.9,77.9z"/>
</g>
<g>
	<path d="M312.9,72.9c0-1.8,2.5-3.5,4.5-3.5c1.3,0,2.3,0.7,2.3,1.7c0,1.7-2.5,3.5-4.6,3.5C313.9,74.6,312.9,74,312.9,72.9z"/>
</g>
<rect x="333.9" y="58.9" width="0.5" height="19.8"/>
<g>
	<path d="M327.5,80.3c0-1.8,2.5-3.5,4.5-3.5c1.3,0,2.3,0.7,2.3,1.7c0,1.7-2.5,3.5-4.6,3.5C328.5,82.1,327.5,81.4,327.5,80.3z"/>
</g>
<g>
	<path d="M327.5,75.4c0-1.8,2.5-3.5,4.5-3.5c1.3,0,2.3,0.7,2.3,1.7c0,1.7-2.5,3.5-4.6,3.5C328.5,77.1,327.5,76.5,327.5,75.4z"/>
</g>
<rect x="348.6" y="60.6" width="0.5" height="20.6"/>
<g>
	<path d="M342.2,82.8c0-1.8,2.5-3.5,4.5-3.5c1.3,0,2.3,0.7,2.3,1.7c0,1.7-2.5,3.5-4.6,3.5C343.2,84.5,342.2,83.9,342.2,82.8z"/>
</g>
<g>
	<path d="M342.2,77.9c0-1.8,2.5-3.5,4.5-3.5c1.3,0,2.3,0.7,2.3,1.7c0,1.7-2.5,3.5-4.6,3.5C343.2,79.6,342.2,78.9,342.2,77.9z"/>
</g>
<rect x="363.2" y="62.3" width="0.5" height="21.4"/>
<g>
	<path d="M356.8,85.3c0-1.8,2.5-3.5,4.5-3.5c1.3,0,2.3,0.7,2.3,1.7c0,1.7-2.5,3.5-4.6,3.5C357.8,87,356.8,86.4,356.8,85.3z"/>
</g>
<g>
	<path d="M356.8,80.3c0-1.8,2.5-3.5,4.5-3.5c1.3,0,2.3,0.7,2.3,1.7c0,1.7-2.5,3.5-4.6,3.5C357.8,82.1,356.8,81.4,356.8,80.3z"/>
</g>
<rect x="381.3" y="56.8" width="10.5" height="0.8"/>
<rect x="381.3" y="51.8" width="10.5" height="0.8"/>
<rect x="383.1" y="53" width="0.5" height="23.9"/>
<g>
	<path d="M383.1,53.1c0-1.8,2.5-3.5,4.5-3.5c1.3,0,2.3,0.7,2.3,1.7c0,1.7-2.5,3.5-4.6,3.5C384.1,54.8,383.1,54.1,383.1,53.1z"/>
</g>
<g>
	<path d="M383.1,58c0-1.8,2.5-3.5,4.5-3.5c1.3,0,2.3,0.7,2.3,1.7c0,1.7-2.5,3.5-4.6,3.5C384.1,59.7,383.1,59.1,383.1,58z"/>
</g>
<rect x="396" y="56.8" width="10.5" height="0.8"/>
<rect x="397.8" y="55.5" width="0.5" height="22.9"/>
<g>
	<path d="M397.9,55.5c0-1.8,2.5-3.5,4.5-3.5c1.3,0,2.3,0.7,2.3,1.7c0,1.7-2.5,3.5-4.6,3.5C398.8,57.3,397.9,56.6,397.9,55.5z"/>
</g>
<g>
	<path d="M397.9,60.5c0-1.8,2.5-3.5,4.5-3.5c1.3,0,2.3,0.7,2.3,1.7c0,1.7-2.5,3.5-4.6,3.5C398.8,62.2,397.9,61.6,397.9,60.5z"/>
</g>
<rect x="410.6" y="56.8" width="10.5" height="0.8"/>
<rect x="412.4" y="57.9" width="0.5" height="22.2"/>
<g>
	<path d="M412.4,58c0-1.8,2.5-3.5,4.5-3.5c1.3,0,2.3,0.7,2.3,1.7c0,1.7-2.5,3.5-4.6,3.5C413.4,59.7,412.4,59.1,412.4,58z"/>
</g>
<g>
	<path d="M412.4,63c0-1.8,2.5-3.5,4.5-3.5c1.3,0,2.3,0.7,2.3,1.7c0,1.7-2.5,3.5-4.6,3.5C413.4,64.7,412.4,64.1,412.4,63z"/>
</g>
<rect x="427.1" y="60.4" width="0.5" height="21.4"/>
<g>
	<path d="M427.2,60.5c0-1.8,2.5-3.5,4.5-3.5c1.3,0,2.3,0.7,2.3,1.7c0,1.7-2.5,3.5-4.6,3.5C428.1,62.2,427.2,61.6,427.2,60.5z"/>
</g>
<g>
	<path d="M427.2,65.5c0-1.8,2.5-3.5,4.5-3.5c1.3,0,2.3,0.7,2.3,1.7c0,1.7-2.5,3.5-4.6,3.5C428.1,67.2,427.2,66.5,427.2,65.5z"/>
</g>
<rect x="441.6" y="62.9" width="0.5" height="23.9"/>
<g>
	<path d="M441.7,63c0-1.8,2.5-3.5,4.5-3.5c1.3,0,2.3,0.7,2.3,1.7c0,1.7-2.5,3.5-4.6,3.5C442.7,64.7,441.7,64.1,441.7,63z"/>
</g>
<g>
	<path d="M441.7,67.9c0-1.8,2.5-3.5,4.5-3.5c1.3,0,2.3,0.7,2.3,1.7c0,1.7-2.5,3.5-4.6,3.5C442.7,69.7,441.7,69,441.7,67.9z"/>
</g>
<rect x="456.4" y="65.4" width="0.5" height="22.9"/>
<g>
	<path d="M456.5,65.5c0-1.8,2.5-3.5,4.5-3.5c1.3,0,2.3,0.7,2.3,1.7c0,1.7-2.5,3.5-4.6,3.5C457.4,67.2,456.5,66.5,456.5,65.5z"/>
</g>
<g>
	<path d="M456.5,70.4c0-1.8,2.5-3.5,4.5-3.5c1.3,0,2.3,0.7,2.3,1.7c0,1.7-2.5,3.5-4.6,3.5C457.4,72.1,456.5,71.5,456.5,70.4z"/>
</g>
<rect x="470.9" y="67.9" width="0.5" height="22.2"/>
<g>
	<path d="M471,67.9c0-1.8,2.5-3.5,4.5-3.5c1.3,0,2.3,0.7,2.3,1.7c0,1.7-2.5,3.5-4.6,3.5C472,69.7,471,69,471,67.9z"/>
</g>
<g>
	<path d="M471,72.9c0-1.8,2.5-3.5,4.5-3.5c1.3,0,2.3,0.7,2.3,1.7c0,1.7-2.5,3.5-4.6,3.5C472,74.6,471,74,471,72.9z"/>
</g>
<rect x="485.7" y="70.3" width="0.5" height="21.4"/>
<g>
	<path d="M485.8,70.4c0-1.8,2.5-3.5,4.5-3.5c1.3,0,2.3,0.7,2.3,1.7c0,1.7-2.5,3.5-4.6,3.5C486.7,72.1,485.8,71.5,485.8,70.4z"/>
</g>
<g>
	<path d="M485.8,75.4c0-1.8,2.5-3.5,4.5-3.5c1.3,0,2.3,0.7,2.3,1.7c0,1.7-2.5,3.5-4.6,3.5C486.7,77.1,485.8,76.5,485.8,75.4z"/>
</g>
<rect x="506.9" y="54.7" width="0.5" height="21.5"/>
<g>
	<path d="M504.6,74.3c1.6,0,2.7,0.7,2.7,2c0,1.9-2.3,3.4-4.5,3.4c-1.3,0-2.4-0.7-2.4-1.8C500.3,76.1,502.6,74.3,504.6,74.3z
		 M500.8,78.2c0,0.6,0.4,0.9,1.1,0.9c1.4,0,4.9-2.1,4.9-3.3c0-0.6-0.4-0.9-1.1-0.9C504.4,74.9,500.8,76.9,500.8,78.2z"/>
</g>
<g>
	<path d="M504.6,69.3c1.6,0,2.7,0.7,2.7,2c0,1.9-2.3,3.4-4.5,3.4c-1.3,0-2.4-0.7-2.4-1.8C500.3,71.1,502.6,69.3,504.6,69.3z
		 M500.8,73.2c0,0.6,0.4,0.9,1.1,0.9c1.4,0,4.9-2.1,4.9-3.3c0-0.6-0.4-0.9-1.1-0.9C504.4,69.9,500.8,72,500.8,73.2z"/>
</g>
</svg>
