<?xml version="1.0" encoding="utf-8"?>

<!--
	ScaleBook
	Copyright (c) Leland Jansen 2015. All rights reserved.
-->

<!DOCTYPE svg PUBLIC "-//W3C//DTD SVG 1.1//EN" "http://www.w3.org/Graphics/SVG/1.1/DTD/svg11.dtd">
<svg version="1.1" id="Layer_1" xmlns="http://www.w3.org/2000/svg" xmlns:xlink="http://www.w3.org/1999/xlink" x="0px" y="0px"
	 viewBox="0 0 552.9 89.5" enable-background="new 0 0 552.9 89.5" xml:space="preserve">
<rect x="8.4" y="10" width="0.8" height="67"/>
<g>
	<path d="M7.4,10.7c-1.9,1.1-3.6,5.8-3.6,9.4c0,2.3,1.4,9.9,1.4,12.3c0,5-1.5,8.6-4.6,11.1c3,2.4,4.6,6.1,4.6,11
		c0,2.3-1.4,9.9-1.4,12.3c0,3.8,1.7,8.4,3.6,9.5V77c-3.5-2.3-5.8-8.2-5.8-13.1c0-2.1,1.7-9.4,1.7-11.5c0-3.8-1-6.6-2.9-8.2
		C0.1,43.9,0,43.7,0,43.5s0.1-0.4,0.5-0.7c1.9-1.7,2.9-4.2,2.9-7.6c0-2.1-1.7-10-1.7-12.2c0-5.2,2.1-10.4,5.8-13.1V10.7z"/>
</g>
<rect x="547.8" y="10" width="0.8" height="67"/>
<rect x="550.4" y="10" width="2.5" height="67"/>
<rect x="8.5" y="29.6" width="544.4" height="0.5"/>
<rect x="8.5" y="24.7" width="544.4" height="0.5"/>
<rect x="8.5" y="19.7" width="544.4" height="0.5"/>
<rect x="8.5" y="14.8" width="544.4" height="0.5"/>
<rect x="8.5" y="9.8" width="544.4" height="0.5"/>
<g>
	<path d="M20.3,29.7c-4.2,0-8.1-3.1-8.1-6.9c0-3.2,2.3-6.7,6.8-10.5c-0.3-1.2-0.4-2.4-0.4-3.6c0-3.5,1.2-6.8,3.2-8.5
		c1.8,2.5,2.7,4.9,2.7,7.1c0,2.9-1.3,5.6-4.3,8.1l0.9,4.2c0.5,0,0.8-0.1,0.8-0.1c2.6,0,4.8,2,4.8,4.7c0,1.9-1.4,3.7-3.6,4.8
		c0-0.1,0.9,3.8,0.9,4.3c0,2.5-2.3,4.2-4.9,4.2c-2,0-3.6-1.3-3.6-3.4c0-1.4,1-2.6,2.4-2.6c1.3,0,2.3,1.3,2.3,2.5
		c0,1.4-1.2,2.3-2.7,2.5c0.6,0.3,1.2,0.5,1.9,0.5c2.1,0,4.1-1.6,4.1-3.6c0-0.2,0-0.4-0.1-0.6l-0.8-3.7
		C21.9,29.6,21.2,29.7,20.3,29.7z M18.1,24.5c0,1,0.5,1.9,1.6,2.5c-1.8-0.3-3-1.4-3-3.1c0-2,1.7-3.7,3.8-4.1l-0.8-4
		C16,18.6,14,21.3,14,23.9c0,2.9,2.8,5.3,6,5.3c0.9,0,1.7-0.2,2.4-0.5L21,21.9C19.4,22.1,18.1,23.1,18.1,24.5z M22.1,3.2
		c-1.6,0-2.9,3.7-2.9,7c0,0.7,0,1.3,0.2,1.9c2.7-2.4,4-4.5,4-6.5c0-0.9-0.3-1.7-1-2.4C22.4,3.2,22.3,3.2,22.1,3.2z M24.9,25
		c0-1.6-1.2-3.3-2.9-3.3c-0.1,0-0.2,0-0.5,0l1.4,6.6C24.2,27.5,24.9,26.3,24.9,25z"/>
</g>
<g>
	<path d="M33.5,3.2v2.8l1-0.3v1.8l-1,0.3v3.4l1-0.3v1.8l-1,0.3v3.1H33v-3l-1.9,0.6v3h-0.5V14l-1,0.3v-1.8l1-0.3V8.8l-1,0.3V7.3
		l1-0.3V3.8h0.5v3L33,6.2v-3H33.5z M33,8l-1.9,0.6v3.4l1.9-0.6V8z"/>
</g>
<g>
	<path d="M39.7,10.7v2.8l1-0.3V15l-1,0.3v3.4l1-0.3v1.8l-1,0.3v3.1h-0.5v-3l-1.9,0.6v3h-0.5v-2.8l-1,0.3V20l1-0.3v-3.4l-1,0.3v-1.8
		l1-0.3v-3.1h0.5v3l1.9-0.6v-3H39.7z M39.2,15.4l-1.9,0.6v3.4l1.9-0.6V15.4z"/>
</g>
<g>
	<path d="M45.9,0.7v2.8l1-0.3V5l-1,0.3v3.4l1-0.3v1.8l-1,0.3v3.1h-0.5v-3l-1.9,0.6v3H43v-2.8l-1,0.3v-1.8l1-0.3V6.3l-1,0.3V4.8
		l1-0.3V1.4h0.5v3l1.9-0.6v-3H45.9z M45.4,5.5l-1.9,0.6v3.4l1.9-0.6V5.5z"/>
</g>
<g>
	<path d="M52.1,8.2V11l1-0.3v1.8l-1,0.3v3.4l1-0.3v1.8l-1,0.3v3.1h-0.5v-3l-1.9,0.6v3h-0.5V19l-1,0.3v-1.8l1-0.3v-3.4l-1,0.3v-1.8
		l1-0.3V8.8h0.5v3l1.9-0.6v-3H52.1z M51.6,13l-1.9,0.6V17l1.9-0.6V13z"/>
</g>
<g>
	<path d="M58.3,15.6v2.8l1-0.3v1.8l-1,0.3v3.4l1-0.3v1.8l-1,0.3v3.1h-0.5v-3l-1.9,0.6v3h-0.5v-2.8l-1,0.3v-1.8l1-0.3v-3.4l-1,0.3
		v-1.8l1-0.3v-3.1h0.5v3l1.9-0.6v-3H58.3z M57.8,20.4L55.9,21v3.4l1.9-0.6V20.4z"/>
</g>
<polygon fill-rule="evenodd" clip-rule="evenodd" points="74.7,26.2 117.9,21.2 117.9,18.7 74.7,23.7 "/>
<polygon fill-rule="evenodd" clip-rule="evenodd" points="74.7,22.4 117.9,17.5 117.9,15 74.7,20 "/>
<polygon fill-rule="evenodd" clip-rule="evenodd" points="134.2,16.2 177.4,11.3 177.4,8.8 134.2,13.8 "/>
<polygon fill-rule="evenodd" clip-rule="evenodd" points="134.2,12.5 177.4,7.6 177.4,5.1 134.2,10 "/>
<polygon fill-rule="evenodd" clip-rule="evenodd" points="197.3,36.1 242.4,31.1 242.4,28.6 197.3,33.6 "/>
<polygon fill-rule="evenodd" clip-rule="evenodd" points="197.3,39.8 242.4,34.8 242.4,32.4 197.3,37.3 "/>
<polygon fill-rule="evenodd" clip-rule="evenodd" points="256.8,27.4 300,26.2 300,23.7 256.8,24.9 "/>
<polygon fill-rule="evenodd" clip-rule="evenodd" points="256.8,31.1 300,29.9 300,27.4 256.8,28.6 "/>
<polygon fill-rule="evenodd" clip-rule="evenodd" points="314.5,26.2 357.7,31.1 357.7,28.6 314.5,23.7 "/>
<polygon fill-rule="evenodd" clip-rule="evenodd" points="314.5,29.9 357.7,34.8 357.7,32.4 314.5,27.4 "/>
<polygon fill-rule="evenodd" clip-rule="evenodd" points="392.4,6.3 435.7,11.3 435.7,8.8 392.4,3.8 "/>
<polygon fill-rule="evenodd" clip-rule="evenodd" points="392.4,2.6 435.7,7.6 435.7,5.1 392.4,0.1 "/>
<polygon fill-rule="evenodd" clip-rule="evenodd" points="450.1,16.2 493.3,21.2 493.3,18.7 450.1,13.8 "/>
<polygon fill-rule="evenodd" clip-rule="evenodd" points="450.1,12.5 493.3,17.5 493.3,15 450.1,10 "/>
<rect x="8.5" y="76.8" width="544.4" height="0.5"/>
<rect x="8.5" y="71.8" width="544.4" height="0.5"/>
<rect x="8.5" y="66.8" width="544.4" height="0.5"/>
<rect x="8.5" y="61.9" width="544.4" height="0.5"/>
<rect x="8.5" y="56.9" width="544.4" height="0.5"/>
<g>
	<path d="M15.7,71.3c2.9-2.6,4.7-6.1,4.7-9.2c0-2.5-1.4-4.4-3.7-4.4c-1.6,0-3.4,1.3-3.4,2.7c0,0.2,0,0.3,0.1,0.3
		c-0.1,0,0.6-0.6,1.4-0.6c0.9,0,1.5,0.8,1.5,1.7c0,1.2-0.9,2.2-2.1,2.2c-1.2,0-2.1-1.3-2.1-2.8c0-2.3,2.3-4.1,4.8-4.1
		c4.7,0,5.9,3.2,5.9,5.8c0,1.6-0.4,2.9-2,5.3c-1.9,3.1-6.4,5.3-8.1,5.3c-0.4,0-0.6-0.2-0.6-0.5C13.8,72.6,14.9,72,15.7,71.3z
		 M25.7,58.7c0.6,0,1,0.4,1,1s-0.4,1-1,1s-1-0.4-1-1S25.1,58.7,25.7,58.7z M25.7,63.6c0.6,0,1,0.4,1,1c0,0.6-0.4,1-1,1s-1-0.4-1-1
		C24.7,64,25.1,63.6,25.7,63.6z"/>
</g>
<g>
	<path d="M33.5,55.3v2.8l1-0.3v1.8l-1,0.3v3.4l1-0.3v1.8l-1,0.3v3.1H33v-3L31.1,66v3h-0.5v-2.8l-1,0.3v-1.8l1-0.3v-3.4l-1,0.3v-1.8
		l1-0.3v-3.1h0.5v3l1.9-0.6v-3H33.5z M33,60.1l-1.9,0.6v3.4l1.9-0.6V60.1z"/>
</g>
<g>
	<path d="M39.7,62.7v2.8l1-0.3V67l-1,0.3v3.4l1-0.3v1.8l-1,0.3v3.1h-0.5v-3l-1.9,0.6v3h-0.5v-2.8l-1,0.3v-1.8l1-0.3v-3.4l-1,0.3
		v-1.8l1-0.3v-3.1h0.5v3l1.9-0.6v-3H39.7z M39.2,67.5l-1.9,0.6v3.4l1.9-0.6V67.5z"/>
</g>
<g>
	<path d="M45.9,52.8v2.8l1-0.3v1.8l-1,0.3v3.4l1-0.3v1.8l-1,0.3v3.1h-0.5v-3l-1.9,0.6v3H43v-2.8l-1,0.3v-1.8l1-0.3v-3.4l-1,0.3v-1.8
		l1-0.3v-3.1h0.5v3l1.9-0.6v-3H45.9z M45.4,57.6l-1.9,0.6v3.4l1.9-0.6V57.6z"/>
</g>
<g>
	<path d="M52.1,60.3v2.8l1-0.3v1.8l-1,0.3v3.4l1-0.3v1.8l-1,0.3v3.1h-0.5v-3l-1.9,0.6v3h-0.5V71l-1,0.3v-1.8l1-0.3v-3.4l-1,0.3v-1.8
		l1-0.3v-3.1h0.5v3l1.9-0.6v-3H52.1z M51.6,65l-1.9,0.6v3.4l1.9-0.6V65z"/>
</g>
<g>
	<path d="M58.3,67.7v2.8l1-0.3V72l-1,0.3v3.4l1-0.3v1.8l-1,0.3v3.1h-0.5v-3l-1.9,0.6v3h-0.5v-2.8l-1,0.3V77l1-0.3v-3.4l-1,0.3v-1.8
		l1-0.3v-3.1h0.5v3l1.9-0.6v-3H58.3z M57.8,72.5l-1.9,0.6v3.4l1.9-0.6V72.5z"/>
</g>
<polygon fill-rule="evenodd" clip-rule="evenodd" points="74.7,58.4 117.9,53.4 117.9,51 74.7,55.9 "/>
<polygon fill-rule="evenodd" clip-rule="evenodd" points="74.7,54.7 117.9,49.7 117.9,47.2 74.7,52.2 "/>
<g>
	<path d="M189.2,75.6c-3.2,0-6.1-2.3-6.1-5.1c0-2.4,1.7-5,5.1-7.9c-0.2-0.9-0.3-1.8-0.3-2.7c0-2.6,0.9-5.1,2.4-6.3
		c1.4,1.9,2,3.7,2,5.3c0,2.2-1,4.2-3.2,6.1l0.7,3.1c0.4,0,0.6,0,0.6,0c2,0,3.6,1.5,3.6,3.5c0,1.4-1.1,2.8-2.7,3.6
		c0-0.1,0.6,2.8,0.6,3.3c0,1.9-1.7,3.2-3.7,3.2c-1.5,0-2.7-1-2.7-2.5c0-1.1,0.7-1.9,1.8-1.9c1,0,1.7,1,1.7,1.9c0,1-0.9,1.7-2,1.8
		c0.4,0.2,0.9,0.3,1.4,0.3c1.6,0,3.1-1.2,3.1-2.7c0-0.1,0-0.3,0-0.5l-0.6-2.8C190.5,75.5,189.9,75.6,189.2,75.6z M187.6,71.7
		c0,0.8,0.4,1.4,1.2,1.9c-1.3-0.2-2.2-1.1-2.2-2.3c0-1.5,1.3-2.8,2.9-3.1l-0.6-3c-2.8,2.1-4.3,4.1-4.3,6.1c0,2.2,2.1,4,4.5,4
		c0.7,0,1.3-0.1,1.8-0.4l-1.1-5.1C188.5,69.9,187.6,70.7,187.6,71.7z M190.6,55.7c-1.2,0-2.2,2.8-2.2,5.3c0,0.5,0,1,0.1,1.4
		c2-1.8,3-3.4,3-4.8c0-0.7-0.3-1.3-0.7-1.8C190.8,55.7,190.7,55.7,190.6,55.7z M192.7,72.1c0-1.2-0.9-2.4-2.2-2.4c0,0-0.2,0-0.4,0
		l1.1,5C192.2,74,192.7,73.1,192.7,72.1z"/>
</g>
<polygon fill-rule="evenodd" clip-rule="evenodd" points="127.7,78.2 170.9,73.3 170.9,70.8 127.7,75.8 "/>
<polygon fill-rule="evenodd" clip-rule="evenodd" points="127.7,82 170.9,77 170.9,74.5 127.7,79.5 "/>
<polygon fill-rule="evenodd" clip-rule="evenodd" points="203.8,68.3 248.9,63.4 248.9,60.9 203.8,65.8 "/>
<polygon fill-rule="evenodd" clip-rule="evenodd" points="203.8,64.6 248.9,59.6 248.9,57.2 203.8,62.1 "/>
<rect x="263.3" y="54.7" fill-rule="evenodd" clip-rule="evenodd" width="43.2" height="2.5"/>
<rect x="263.3" y="51" fill-rule="evenodd" clip-rule="evenodd" width="43.2" height="2.5"/>
<g>
	<path d="M374.5,69c2.2-2,3.6-4.6,3.6-6.9c0-1.9-1.1-3.3-2.8-3.3c-1.2,0-2.5,1-2.5,2.1c0,0.2,0,0.2,0.1,0.2c0,0,0.4-0.5,1-0.5
		c0.7,0,1.2,0.6,1.2,1.3c0,0.9-0.6,1.7-1.6,1.7s-1.5-1-1.5-2.1c0-1.8,1.7-3.1,3.6-3.1c3.5,0,4.4,2.4,4.4,4.4c0,1.2-0.3,2.2-1.5,4
		c-1.4,2.3-4.8,4-6,4c-0.3,0-0.5-0.1-0.5-0.3C373,70,373.9,69.6,374.5,69z M381.9,59.5c0.4,0,0.7,0.3,0.7,0.7c0,0.4-0.3,0.7-0.7,0.7
		c-0.4,0-0.7-0.3-0.7-0.7C381.2,59.8,381.5,59.5,381.9,59.5z M381.9,63.2c0.4,0,0.7,0.3,0.7,0.7c0,0.4-0.3,0.7-0.7,0.7
		c-0.4,0-0.7-0.3-0.7-0.7C381.2,63.6,381.5,63.2,381.9,63.2z"/>
</g>
<polygon fill-rule="evenodd" clip-rule="evenodd" points="321,63.4 364.2,68.3 364.2,65.8 321,60.9 "/>
<polygon fill-rule="evenodd" clip-rule="evenodd" points="321,59.6 364.2,64.6 364.2,62.1 321,57.2 "/>
<polygon fill-rule="evenodd" clip-rule="evenodd" points="385.9,73.3 429.2,78.2 429.2,75.8 385.9,70.8 "/>
<polygon fill-rule="evenodd" clip-rule="evenodd" points="385.9,77 429.2,82 429.2,79.5 385.9,74.5 "/>
<polygon fill-rule="evenodd" clip-rule="evenodd" points="450.1,53.4 493.3,58.4 493.3,55.9 450.1,51 "/>
<polygon fill-rule="evenodd" clip-rule="evenodd" points="450.1,49.7 493.3,54.7 493.3,52.2 450.1,47.2 "/>
<rect x="66.1" y="34.5" width="10.5" height="0.8"/>
<rect x="66.1" y="39.4" width="10.5" height="0.8"/>
<rect x="74.4" y="20.1" width="0.5" height="21.4"/>
<g>
	<path d="M68,43.1c0-1.8,2.5-3.5,4.5-3.5c1.3,0,2.3,0.7,2.3,1.7c0,1.7-2.5,3.5-4.6,3.5C69,44.9,68,44.2,68,43.1z"/>
</g>
<g>
	<path d="M68,38.2c0-1.8,2.5-3.5,4.5-3.5c1.3,0,2.3,0.7,2.3,1.7c0,1.7-2.5,3.5-4.6,3.5C69,39.9,68,39.3,68,38.2z"/>
</g>
<rect x="80.5" y="34.5" width="10.5" height="0.8"/>
<rect x="80.5" y="39.4" width="10.5" height="0.8"/>
<rect x="88.8" y="18.6" width="0.5" height="20.5"/>
<g>
	<path d="M82.4,40.7c0-1.8,2.5-3.5,4.5-3.5c1.3,0,2.3,0.7,2.3,1.7c0,1.7-2.5,3.5-4.6,3.5C83.4,42.4,82.4,41.7,82.4,40.7z"/>
</g>
<g>
	<path d="M82.4,35.7c0-1.8,2.5-3.5,4.5-3.5c1.3,0,2.3,0.7,2.3,1.7c0,1.7-2.5,3.5-4.6,3.5C83.4,37.4,82.4,36.8,82.4,35.7z"/>
</g>
<rect x="95" y="34.5" width="10.5" height="0.8"/>
<rect x="103.3" y="16.9" width="0.5" height="19.7"/>
<g>
	<path d="M96.8,38.2c0-1.8,2.5-3.5,4.5-3.5c1.3,0,2.3,0.7,2.3,1.7c0,1.7-2.5,3.5-4.6,3.5C97.8,39.9,96.8,39.3,96.8,38.2z"/>
</g>
<g>
	<path d="M96.8,33.2c0-1.8,2.5-3.5,4.5-3.5c1.3,0,2.3,0.7,2.3,1.7c0,1.7-2.5,3.5-4.6,3.5C97.8,34.9,96.8,34.3,96.8,33.2z"/>
</g>
<rect x="109.4" y="34.5" width="10.5" height="0.8"/>
<rect x="117.7" y="15.2" width="0.5" height="18.9"/>
<g>
	<path d="M111.2,35.7c0-1.8,2.5-3.5,4.5-3.5c1.3,0,2.3,0.7,2.3,1.7c0,1.7-2.5,3.5-4.6,3.5C112.2,37.4,111.2,36.8,111.2,35.7z"/>
</g>
<g>
	<path d="M111.2,30.7c0-1.8,2.5-3.5,4.5-3.5c1.3,0,2.3,0.7,2.3,1.7c0,1.7-2.5,3.5-4.6,3.5C112.2,32.5,111.2,31.8,111.2,30.7z"/>
</g>
<rect x="133.9" y="10.2" width="0.5" height="21.4"/>
<g>
	<path d="M127.5,33.2c0-1.8,2.5-3.5,4.5-3.5c1.3,0,2.3,0.7,2.3,1.7c0,1.7-2.5,3.5-4.6,3.5C128.5,34.9,127.5,34.3,127.5,33.2z"/>
</g>
<g>
	<path d="M127.5,28.3c0-1.8,2.5-3.5,4.5-3.5c1.3,0,2.3,0.7,2.3,1.7c0,1.7-2.5,3.5-4.6,3.5C128.5,30,127.5,29.3,127.5,28.3z"/>
</g>
<g>
	<path d="M124.6,29.9c0-0.8-0.4-1.5-1.1-2.2c-0.7,0.7-1.1,1.4-1.1,2.2H121v-1.4c0.8,0,1.5-0.3,2.2-1c-0.7-0.7-1.4-1.1-2.2-1.1v-1.4
		h1.4c0,0.8,0.4,1.5,1.1,2.2c0.7-0.7,1.1-1.4,1.1-2.2h1.4v1.4c-0.8,0-1.5,0.4-2.2,1.1c0.7,0.7,1.4,1,2,1h0.2v1.4H124.6z"/>
</g>
<rect x="148.4" y="8.6" width="0.5" height="20.5"/>
<g>
	<path d="M141.9,30.7c0-1.8,2.5-3.5,4.5-3.5c1.3,0,2.3,0.7,2.3,1.7c0,1.7-2.5,3.5-4.6,3.5C142.9,32.5,141.9,31.8,141.9,30.7z"/>
</g>
<g>
	<path d="M141.9,25.8c0-1.8,2.5-3.5,4.5-3.5c1.3,0,2.3,0.7,2.3,1.7c0,1.7-2.5,3.5-4.6,3.5C142.9,27.5,141.9,26.9,141.9,25.8z"/>
</g>
<rect x="162.8" y="6.9" width="0.5" height="19.7"/>
<g>
	<path d="M156.3,28.3c0-1.8,2.5-3.5,4.5-3.5c1.3,0,2.3,0.7,2.3,1.7c0,1.7-2.5,3.5-4.6,3.5C157.3,30,156.3,29.3,156.3,28.3z"/>
</g>
<g>
	<path d="M156.3,23.3c0-1.8,2.5-3.5,4.5-3.5c1.3,0,2.3,0.7,2.3,1.7c0,1.7-2.5,3.5-4.6,3.5C157.3,25,156.3,24.4,156.3,23.3z"/>
</g>
<rect x="177.2" y="5.2" width="0.5" height="18.9"/>
<g>
	<path d="M170.8,25.8c0-1.8,2.5-3.5,4.5-3.5c1.3,0,2.3,0.7,2.3,1.7c0,1.7-2.5,3.5-4.6,3.5C171.7,27.5,170.8,26.9,170.8,25.8z"/>
</g>
<g>
	<path d="M170.8,20.8c0-1.8,2.5-3.5,4.5-3.5c1.3,0,2.3,0.7,2.3,1.7c0,1.7-2.5,3.5-4.6,3.5C171.7,22.5,170.8,21.9,170.8,20.8z"/>
</g>
<rect x="197" y="18.3" width="0.5" height="21.4"/>
<g>
	<path d="M197.1,18.3c0-1.8,2.5-3.5,4.5-3.5c1.3,0,2.3,0.7,2.3,1.7c0,1.7-2.5,3.5-4.6,3.5C198.1,20.1,197.1,19.4,197.1,18.3z"/>
</g>
<g>
	<path d="M197.1,23.3c0-1.8,2.5-3.5,4.5-3.5c1.3,0,2.3,0.7,2.3,1.7c0,1.7-2.5,3.5-4.6,3.5C198.1,25,197.1,24.4,197.1,23.3z"/>
</g>
<rect x="211.5" y="15.8" width="0.5" height="22.3"/>
<g>
	<path d="M211.5,15.9c0-1.8,2.5-3.5,4.5-3.5c1.3,0,2.3,0.7,2.3,1.7c0,1.7-2.5,3.5-4.6,3.5C212.5,17.6,211.5,16.9,211.5,15.9z"/>
</g>
<g>
	<path d="M211.5,20.8c0-1.8,2.5-3.5,4.5-3.5c1.3,0,2.3,0.7,2.3,1.7c0,1.7-2.5,3.5-4.6,3.5C212.5,22.5,211.5,21.9,211.5,20.8z"/>
</g>
<rect x="225.9" y="13.3" width="0.5" height="23.3"/>
<g>
	<path d="M225.9,13.4c0-1.8,2.5-3.5,4.5-3.5c1.3,0,2.3,0.7,2.3,1.7c0,1.7-2.5,3.5-4.6,3.5C226.9,15.1,225.9,14.5,225.9,13.4z"/>
</g>
<g>
	<path d="M225.9,18.3c0-1.8,2.5-3.5,4.5-3.5c1.3,0,2.3,0.7,2.3,1.7c0,1.7-2.5,3.5-4.6,3.5C226.9,20.1,225.9,19.4,225.9,18.3z"/>
</g>
<rect x="242.1" y="10.8" width="0.5" height="23.9"/>
<g>
	<path d="M242.2,10.9c0-1.8,2.5-3.5,4.5-3.5c1.3,0,2.3,0.7,2.3,1.7c0,1.7-2.5,3.5-4.6,3.5C243.2,12.6,242.2,12,242.2,10.9z"/>
</g>
<g>
	<path d="M242.2,15.9c0-1.8,2.5-3.5,4.5-3.5c1.3,0,2.3,0.7,2.3,1.7c0,1.7-2.5,3.5-4.6,3.5C243.2,17.6,242.2,16.9,242.2,15.9z"/>
</g>
<g>
	<path d="M239.3,12.5c0-0.8-0.4-1.5-1.1-2.2c-0.7,0.7-1.1,1.4-1.1,2.2h-1.4v-1.4c0.8,0,1.5-0.3,2.2-1c-0.7-0.7-1.4-1.1-2.2-1.1V7.5
		h1.4c0,0.8,0.4,1.5,1.1,2.2c0.7-0.7,1.1-1.4,1.1-2.2h1.4V9c-0.8,0-1.5,0.4-2.2,1.1c0.7,0.7,1.4,1,2,1h0.2v1.4H239.3z"/>
</g>
<rect x="256.6" y="8.3" width="0.5" height="22.6"/>
<g>
	<path d="M256.6,8.4c0-1.8,2.5-3.5,4.5-3.5c1.3,0,2.3,0.7,2.3,1.7c0,1.7-2.5,3.5-4.6,3.5C257.6,10.1,256.6,9.5,256.6,8.4z"/>
</g>
<g>
	<path d="M256.6,13.4c0-1.8,2.5-3.5,4.5-3.5c1.3,0,2.3,0.7,2.3,1.7c0,1.7-2.5,3.5-4.6,3.5C257.6,15.1,256.6,14.5,256.6,13.4z"/>
</g>
<rect x="269.2" y="4.7" width="10.5" height="0.8"/>
<rect x="271" y="5.9" width="0.5" height="24.8"/>
<g>
	<path d="M271.1,5.9c0-1.8,2.5-3.5,4.5-3.5c1.3,0,2.3,0.7,2.3,1.7c0,1.7-2.5,3.5-4.6,3.5C272,7.7,271.1,7,271.1,5.9z"/>
</g>
<g>
	<path d="M271.1,10.9c0-1.8,2.5-3.5,4.5-3.5c1.3,0,2.3,0.7,2.3,1.7c0,1.7-2.5,3.5-4.6,3.5C272,12.6,271.1,12,271.1,10.9z"/>
</g>
<rect x="283.6" y="4.7" width="10.5" height="0.8"/>
<rect x="285.4" y="3.4" width="0.5" height="26.8"/>
<g>
	<path d="M285.5,3.5c0-1.8,2.5-3.5,4.5-3.5c1.3,0,2.3,0.7,2.3,1.7c0,1.7-2.5,3.5-4.6,3.5C286.4,5.2,285.5,4.5,285.5,3.5z"/>
</g>
<g>
	<path d="M285.5,8.4c0-1.8,2.5-3.5,4.5-3.5c1.3,0,2.3,0.7,2.3,1.7c0,1.7-2.5,3.5-4.6,3.5C286.4,10.1,285.5,9.5,285.5,8.4z"/>
</g>
<rect x="298" y="4.7" width="10.5" height="0.8"/>
<rect x="299.8" y="5.9" width="0.5" height="23.9"/>
<g>
	<path d="M299.9,5.9c0-1.8,2.5-3.5,4.5-3.5c1.3,0,2.3,0.7,2.3,1.7c0,1.7-2.5,3.5-4.6,3.5C300.9,7.7,299.9,7,299.9,5.9z"/>
</g>
<g>
	<path d="M299.9,10.9c0-1.8,2.5-3.5,4.5-3.5c1.3,0,2.3,0.7,2.3,1.7c0,1.7-2.5,3.5-4.6,3.5C300.9,12.6,299.9,12,299.9,10.9z"/>
</g>
<rect x="314.2" y="8.3" width="0.5" height="21.4"/>
<g>
	<path d="M314.3,8.4c0-1.8,2.5-3.5,4.5-3.5c1.3,0,2.3,0.7,2.3,1.7c0,1.7-2.5,3.5-4.6,3.5C315.3,10.1,314.3,9.5,314.3,8.4z"/>
</g>
<g>
	<path d="M314.3,13.4c0-1.8,2.5-3.5,4.5-3.5c1.3,0,2.3,0.7,2.3,1.7c0,1.7-2.5,3.5-4.6,3.5C315.3,15.1,314.3,14.5,314.3,13.4z"/>
</g>
<rect x="328.6" y="10.8" width="0.5" height="20.5"/>
<g>
	<path d="M328.7,10.9c0-1.8,2.5-3.5,4.5-3.5c1.3,0,2.3,0.7,2.3,1.7c0,1.7-2.5,3.5-4.6,3.5C329.7,12.6,328.7,12,328.7,10.9z"/>
</g>
<g>
	<path d="M328.7,15.9c0-1.8,2.5-3.5,4.5-3.5c1.3,0,2.3,0.7,2.3,1.7c0,1.7-2.5,3.5-4.6,3.5C329.7,17.6,328.7,16.9,328.7,15.9z"/>
</g>
<rect x="343.1" y="13.3" width="0.5" height="19.7"/>
<g>
	<path d="M343.1,13.4c0-1.8,2.5-3.5,4.5-3.5c1.3,0,2.3,0.7,2.3,1.7c0,1.7-2.5,3.5-4.6,3.5C344.1,15.1,343.1,14.5,343.1,13.4z"/>
</g>
<g>
	<path d="M343.1,18.3c0-1.8,2.5-3.5,4.5-3.5c1.3,0,2.3,0.7,2.3,1.7c0,1.7-2.5,3.5-4.6,3.5C344.1,20.1,343.1,19.4,343.1,18.3z"/>
</g>
<rect x="357.5" y="15.8" width="0.5" height="18.9"/>
<g>
	<path d="M357.6,15.9c0-1.8,2.5-3.5,4.5-3.5c1.3,0,2.3,0.7,2.3,1.7c0,1.7-2.5,3.5-4.6,3.5C358.5,17.6,357.6,16.9,357.6,15.9z"/>
</g>
<g>
	<path d="M357.6,20.8c0-1.8,2.5-3.5,4.5-3.5c1.3,0,2.3,0.7,2.3,1.7c0,1.7-2.5,3.5-4.6,3.5C358.5,22.5,357.6,21.9,357.6,20.8z"/>
</g>
<rect x="392.2" y="0.3" width="0.5" height="21.4"/>
<g>
	<path d="M385.8,23.3c0-1.8,2.5-3.5,4.5-3.5c1.3,0,2.3,0.7,2.3,1.7c0,1.7-2.5,3.5-4.6,3.5C386.7,25,385.8,24.4,385.8,23.3z"/>
</g>
<g>
	<path d="M385.8,18.3c0-1.8,2.5-3.5,4.5-3.5c1.3,0,2.3,0.7,2.3,1.7c0,1.7-2.5,3.5-4.6,3.5C386.7,20.1,385.8,19.4,385.8,18.3z"/>
</g>
<rect x="406.6" y="1.8" width="0.5" height="22.3"/>
<g>
	<path d="M400.2,25.8c0-1.8,2.5-3.5,4.5-3.5c1.3,0,2.3,0.7,2.3,1.7c0,1.7-2.5,3.5-4.6,3.5C401.2,27.5,400.2,26.9,400.2,25.8z"/>
</g>
<g>
	<path d="M400.2,20.8c0-1.8,2.5-3.5,4.5-3.5c1.3,0,2.3,0.7,2.3,1.7c0,1.7-2.5,3.5-4.6,3.5C401.2,22.5,400.2,21.9,400.2,20.8z"/>
</g>
<rect x="421" y="3.5" width="0.5" height="23.1"/>
<g>
	<path d="M414.6,28.3c0-1.8,2.5-3.5,4.5-3.5c1.3,0,2.3,0.7,2.3,1.7c0,1.7-2.5,3.5-4.6,3.5C415.6,30,414.6,29.3,414.6,28.3z"/>
</g>
<g>
	<path d="M414.6,23.3c0-1.8,2.5-3.5,4.5-3.5c1.3,0,2.3,0.7,2.3,1.7c0,1.7-2.5,3.5-4.6,3.5C415.6,25,414.6,24.4,414.6,23.3z"/>
</g>
<rect x="435.4" y="5.2" width="0.5" height="23.9"/>
<g>
	<path d="M429,30.7c0-1.8,2.5-3.5,4.5-3.5c1.3,0,2.3,0.7,2.3,1.7c0,1.7-2.5,3.5-4.6,3.5C430,32.5,429,31.8,429,30.7z"/>
</g>
<g>
	<path d="M429,25.8c0-1.8,2.5-3.5,4.5-3.5c1.3,0,2.3,0.7,2.3,1.7c0,1.7-2.5,3.5-4.6,3.5C430,27.5,429,26.9,429,25.8z"/>
</g>
<rect x="449.9" y="10.2" width="0.5" height="21.4"/>
<g>
	<path d="M443.4,33.2c0-1.8,2.5-3.5,4.5-3.5c1.3,0,2.3,0.7,2.3,1.7c0,1.7-2.5,3.5-4.6,3.5C444.4,34.9,443.4,34.3,443.4,33.2z"/>
</g>
<g>
	<path d="M443.4,28.3c0-1.8,2.5-3.5,4.5-3.5c1.3,0,2.3,0.7,2.3,1.7c0,1.7-2.5,3.5-4.6,3.5C444.4,30,443.4,29.3,443.4,28.3z"/>
</g>
<rect x="456" y="34.5" width="10.5" height="0.8"/>
<rect x="464.3" y="11.7" width="0.5" height="22.3"/>
<g>
	<path d="M457.8,35.7c0-1.8,2.5-3.5,4.5-3.5c1.3,0,2.3,0.7,2.3,1.7c0,1.7-2.5,3.5-4.6,3.5C458.8,37.4,457.8,36.8,457.8,35.7z"/>
</g>
<g>
	<path d="M457.8,30.7c0-1.8,2.5-3.5,4.5-3.5c1.3,0,2.3,0.7,2.3,1.7c0,1.7-2.5,3.5-4.6,3.5C458.8,32.5,457.8,31.8,457.8,30.7z"/>
</g>
<rect x="470.4" y="34.5" width="10.5" height="0.8"/>
<rect x="478.7" y="13.4" width="0.5" height="23.1"/>
<g>
	<path d="M472.3,38.2c0-1.8,2.5-3.5,4.5-3.5c1.3,0,2.3,0.7,2.3,1.7c0,1.7-2.5,3.5-4.6,3.5C473.2,39.9,472.3,39.3,472.3,38.2z"/>
</g>
<g>
	<path d="M472.3,33.2c0-1.8,2.5-3.5,4.5-3.5c1.3,0,2.3,0.7,2.3,1.7c0,1.7-2.5,3.5-4.6,3.5C473.2,34.9,472.3,34.3,472.3,33.2z"/>
</g>
<rect x="484.8" y="34.5" width="10.5" height="0.8"/>
<rect x="484.8" y="39.4" width="10.5" height="0.8"/>
<rect x="493.1" y="15.2" width="0.5" height="23.9"/>
<g>
	<path d="M486.7,40.7c0-1.8,2.5-3.5,4.5-3.5c1.3,0,2.3,0.7,2.3,1.7c0,1.7-2.5,3.5-4.6,3.5C487.7,42.4,486.7,41.7,486.7,40.7z"/>
</g>
<g>
	<path d="M486.7,35.7c0-1.8,2.5-3.5,4.5-3.5c1.3,0,2.3,0.7,2.3,1.7c0,1.7-2.5,3.5-4.6,3.5C487.7,37.4,486.7,36.8,486.7,35.7z"/>
</g>
<rect x="499.2" y="34.5" width="10.7" height="0.8"/>
<rect x="499.2" y="39.4" width="10.7" height="0.8"/>
<rect x="507.7" y="20" width="0.5" height="21.5"/>
<g>
	<path d="M505.4,39.6c1.6,0,2.7,0.7,2.7,2c0,1.9-2.3,3.4-4.5,3.4c-1.3,0-2.4-0.7-2.4-1.8C501.1,41.4,503.3,39.6,505.4,39.6z
		 M501.6,43.4c0,0.6,0.4,0.9,1.1,0.9c1.4,0,4.9-2.1,4.9-3.3c0-0.6-0.4-0.9-1.1-0.9C505.2,40.2,501.6,42.2,501.6,43.4z"/>
</g>
<g>
	<path d="M505.4,34.6c1.6,0,2.7,0.7,2.7,2c0,1.9-2.3,3.4-4.5,3.4c-1.3,0-2.4-0.7-2.4-1.8C501.1,36.4,503.3,34.6,505.4,34.6z
		 M501.6,38.5c0,0.6,0.4,0.9,1.1,0.9c1.4,0,4.9-2.1,4.9-3.3c0-0.6-0.4-0.9-1.1-0.9C505.2,35.2,501.6,37.2,501.6,38.5z"/>
</g>
<rect x="74.4" y="52.4" width="0.5" height="23.9"/>
<g>
	<path d="M68,77.9c0-1.8,2.5-3.5,4.5-3.5c1.3,0,2.3,0.7,2.3,1.7c0,1.7-2.5,3.5-4.6,3.5C69,79.6,68,78.9,68,77.9z"/>
</g>
<g>
	<path d="M68,72.9c0-1.8,2.5-3.5,4.5-3.5c1.3,0,2.3,0.7,2.3,1.7c0,1.7-2.5,3.5-4.6,3.5C69,74.6,68,74,68,72.9z"/>
</g>
<rect x="88.8" y="50.8" width="0.5" height="22.9"/>
<g>
	<path d="M82.4,75.4c0-1.8,2.5-3.5,4.5-3.5c1.3,0,2.3,0.7,2.3,1.7c0,1.7-2.5,3.5-4.6,3.5C83.4,77.1,82.4,76.5,82.4,75.4z"/>
</g>
<g>
	<path d="M82.4,70.4c0-1.8,2.5-3.5,4.5-3.5c1.3,0,2.3,0.7,2.3,1.7c0,1.7-2.5,3.5-4.6,3.5C83.4,72.1,82.4,71.5,82.4,70.4z"/>
</g>
<rect x="103.3" y="49.1" width="0.5" height="22.2"/>
<g>
	<path d="M96.8,72.9c0-1.8,2.5-3.5,4.5-3.5c1.3,0,2.3,0.7,2.3,1.7c0,1.7-2.5,3.5-4.6,3.5C97.8,74.6,96.8,74,96.8,72.9z"/>
</g>
<g>
	<path d="M96.8,67.9c0-1.8,2.5-3.5,4.5-3.5c1.3,0,2.3,0.7,2.3,1.7c0,1.7-2.5,3.5-4.6,3.5C97.8,69.7,96.8,69,96.8,67.9z"/>
</g>
<rect x="117.7" y="47.4" width="0.5" height="21.4"/>
<g>
	<path d="M111.2,70.4c0-1.8,2.5-3.5,4.5-3.5c1.3,0,2.3,0.7,2.3,1.7c0,1.7-2.5,3.5-4.6,3.5C112.2,72.1,111.2,71.5,111.2,70.4z"/>
</g>
<g>
	<path d="M111.2,65.5c0-1.8,2.5-3.5,4.5-3.5c1.3,0,2.3,0.7,2.3,1.7c0,1.7-2.5,3.5-4.6,3.5C112.2,67.2,111.2,66.5,111.2,65.5z"/>
</g>
<rect x="127.4" y="62.9" width="0.5" height="18.9"/>
<g>
	<path d="M127.5,63c0-1.8,2.5-3.5,4.5-3.5c1.3,0,2.3,0.7,2.3,1.7c0,1.7-2.5,3.5-4.6,3.5C128.5,64.7,127.5,64.1,127.5,63z"/>
</g>
<g>
	<path d="M127.5,67.9c0-1.8,2.5-3.5,4.5-3.5c1.3,0,2.3,0.7,2.3,1.7c0,1.7-2.5,3.5-4.6,3.5C128.5,69.7,127.5,69,127.5,67.9z"/>
</g>
<g>
	<path d="M124.6,64.6c0-0.8-0.4-1.5-1.1-2.2c-0.7,0.7-1.1,1.4-1.1,2.2H121v-1.4c0.8,0,1.5-0.3,2.2-1c-0.7-0.7-1.4-1.1-2.2-1.1v-1.4
		h1.4c0,0.8,0.4,1.5,1.1,2.2c0.7-0.7,1.1-1.4,1.1-2.2h1.4v1.4c-0.8,0-1.5,0.4-2.2,1.1c0.7,0.7,1.4,1,2,1h0.2v1.4H124.6z"/>
</g>
<rect x="141.9" y="60.4" width="0.5" height="19.8"/>
<g>
	<path d="M141.9,60.5c0-1.8,2.5-3.5,4.5-3.5c1.3,0,2.3,0.7,2.3,1.7c0,1.7-2.5,3.5-4.6,3.5C142.9,62.2,141.9,61.6,141.9,60.5z"/>
</g>
<g>
	<path d="M141.9,65.5c0-1.8,2.5-3.5,4.5-3.5c1.3,0,2.3,0.7,2.3,1.7c0,1.7-2.5,3.5-4.6,3.5C142.9,67.2,141.9,66.5,141.9,65.5z"/>
</g>
<rect x="156.3" y="57.9" width="0.5" height="20.6"/>
<g>
	<path d="M156.3,58c0-1.8,2.5-3.5,4.5-3.5c1.3,0,2.3,0.7,2.3,1.7c0,1.7-2.5,3.5-4.6,3.5C157.3,59.7,156.3,59.1,156.3,58z"/>
</g>
<g>
	<path d="M156.3,63c0-1.8,2.5-3.5,4.5-3.5c1.3,0,2.3,0.7,2.3,1.7c0,1.7-2.5,3.5-4.6,3.5C157.3,64.7,156.3,64.1,156.3,63z"/>
</g>
<rect x="170.7" y="55.5" width="0.5" height="21.4"/>
<g>
	<path d="M170.8,55.5c0-1.8,2.5-3.5,4.5-3.5c1.3,0,2.3,0.7,2.3,1.7c0,1.7-2.5,3.5-4.6,3.5C171.7,57.3,170.8,56.6,170.8,55.5z"/>
</g>
<g>
	<path d="M170.8,60.5c0-1.8,2.5-3.5,4.5-3.5c1.3,0,2.3,0.7,2.3,1.7c0,1.7-2.5,3.5-4.6,3.5C171.7,62.2,170.8,61.6,170.8,60.5z"/>
</g>
<rect x="195.3" y="81.6" width="10.5" height="0.8"/>
<rect x="195.3" y="86.5" width="10.5" height="0.8"/>
<rect x="203.5" y="62.3" width="0.5" height="23.9"/>
<g>
	<path d="M197.1,87.8c0-1.8,2.5-3.5,4.5-3.5c1.3,0,2.3,0.7,2.3,1.7c0,1.7-2.5,3.5-4.6,3.5C198.1,89.5,197.1,88.9,197.1,87.8z"/>
</g>
<g>
	<path d="M197.1,82.8c0-1.8,2.5-3.5,4.5-3.5c1.3,0,2.3,0.7,2.3,1.7c0,1.7-2.5,3.5-4.6,3.5C198.1,84.5,197.1,83.9,197.1,82.8z"/>
</g>
<rect x="209.7" y="81.6" width="10.5" height="0.8"/>
<rect x="218" y="60.7" width="0.5" height="22.9"/>
<g>
	<path d="M211.5,85.3c0-1.8,2.5-3.5,4.5-3.5c1.3,0,2.3,0.7,2.3,1.7c0,1.7-2.5,3.5-4.6,3.5C212.5,87,211.5,86.4,211.5,85.3z"/>
</g>
<g>
	<path d="M211.5,80.3c0-1.8,2.5-3.5,4.5-3.5c1.3,0,2.3,0.7,2.3,1.7c0,1.7-2.5,3.5-4.6,3.5C212.5,82.1,211.5,81.4,211.5,80.3z"/>
</g>
<rect x="224.1" y="81.6" width="10.5" height="0.8"/>
<rect x="232.4" y="59.2" width="0.5" height="22"/>
<g>
	<path d="M225.9,82.8c0-1.8,2.5-3.5,4.5-3.5c1.3,0,2.3,0.7,2.3,1.7c0,1.7-2.5,3.5-4.6,3.5C226.9,84.5,225.9,83.9,225.9,82.8z"/>
</g>
<g>
	<path d="M225.9,77.9c0-1.8,2.5-3.5,4.5-3.5c1.3,0,2.3,0.7,2.3,1.7c0,1.7-2.5,3.5-4.6,3.5C226.9,79.6,225.9,78.9,225.9,77.9z"/>
</g>
<rect x="248.7" y="57.3" width="0.5" height="21.4"/>
<g>
	<path d="M242.2,80.3c0-1.8,2.5-3.5,4.5-3.5c1.3,0,2.3,0.7,2.3,1.7c0,1.7-2.5,3.5-4.6,3.5C243.2,82.1,242.2,81.4,242.2,80.3z"/>
</g>
<g>
	<path d="M242.2,75.4c0-1.8,2.5-3.5,4.5-3.5c1.3,0,2.3,0.7,2.3,1.7c0,1.7-2.5,3.5-4.6,3.5C243.2,77.1,242.2,76.5,242.2,75.4z"/>
</g>
<g>
	<path d="M239.3,77c0-0.8-0.4-1.5-1.1-2.2c-0.7,0.7-1.1,1.4-1.1,2.2h-1.4v-1.4c0.8,0,1.5-0.3,2.2-1c-0.7-0.7-1.4-1.1-2.2-1.1V72h1.4
		c0,0.8,0.4,1.5,1.1,2.2c0.7-0.7,1.1-1.4,1.1-2.2h1.4v1.4c-0.8,0-1.5,0.4-2.2,1.1c0.7,0.7,1.4,1,2,1h0.2V77H239.3z"/>
</g>
<rect x="263.1" y="51.1" width="0.5" height="25.1"/>
<g>
	<path d="M256.6,77.9c0-1.8,2.5-3.5,4.5-3.5c1.3,0,2.3,0.7,2.3,1.7c0,1.7-2.5,3.5-4.6,3.5C257.6,79.6,256.6,78.9,256.6,77.9z"/>
</g>
<g>
	<path d="M256.6,72.9c0-1.8,2.5-3.5,4.5-3.5c1.3,0,2.3,0.7,2.3,1.7c0,1.7-2.5,3.5-4.6,3.5C257.6,74.6,256.6,74,256.6,72.9z"/>
</g>
<rect x="277.5" y="51.1" width="0.5" height="22.6"/>
<g>
	<path d="M271.1,75.4c0-1.8,2.5-3.5,4.5-3.5c1.3,0,2.3,0.7,2.3,1.7c0,1.7-2.5,3.5-4.6,3.5C272,77.1,271.1,76.5,271.1,75.4z"/>
</g>
<g>
	<path d="M271.1,70.4c0-1.8,2.5-3.5,4.5-3.5c1.3,0,2.3,0.7,2.3,1.7c0,1.7-2.5,3.5-4.6,3.5C272,72.1,271.1,71.5,271.1,70.4z"/>
</g>
<rect x="291.9" y="51.1" width="0.5" height="20.2"/>
<g>
	<path d="M285.5,72.9c0-1.8,2.5-3.5,4.5-3.5c1.3,0,2.3,0.7,2.3,1.7c0,1.7-2.5,3.5-4.6,3.5C286.4,74.6,285.5,74,285.5,72.9z"/>
</g>
<g>
	<path d="M285.5,67.9c0-1.8,2.5-3.5,4.5-3.5c1.3,0,2.3,0.7,2.3,1.7c0,1.7-2.5,3.5-4.6,3.5C286.4,69.7,285.5,69,285.5,67.9z"/>
</g>
<rect x="306.3" y="51.1" width="0.5" height="22.6"/>
<g>
	<path d="M299.9,75.4c0-1.8,2.5-3.5,4.5-3.5c1.3,0,2.3,0.7,2.3,1.7c0,1.7-2.5,3.5-4.6,3.5C300.9,77.1,299.9,76.5,299.9,75.4z"/>
</g>
<g>
	<path d="M299.9,70.4c0-1.8,2.5-3.5,4.5-3.5c1.3,0,2.3,0.7,2.3,1.7c0,1.7-2.5,3.5-4.6,3.5C300.9,72.1,299.9,71.5,299.9,70.4z"/>
</g>
<rect x="320.7" y="57.3" width="0.5" height="18.9"/>
<g>
	<path d="M314.3,77.9c0-1.8,2.5-3.5,4.5-3.5c1.3,0,2.3,0.7,2.3,1.7c0,1.7-2.5,3.5-4.6,3.5C315.3,79.6,314.3,78.9,314.3,77.9z"/>
</g>
<g>
	<path d="M314.3,72.9c0-1.8,2.5-3.5,4.5-3.5c1.3,0,2.3,0.7,2.3,1.7c0,1.7-2.5,3.5-4.6,3.5C315.3,74.6,314.3,74,314.3,72.9z"/>
</g>
<rect x="335.2" y="58.9" width="0.5" height="19.8"/>
<g>
	<path d="M328.7,80.3c0-1.8,2.5-3.5,4.5-3.5c1.3,0,2.3,0.7,2.3,1.7c0,1.7-2.5,3.5-4.6,3.5C329.7,82.1,328.7,81.4,328.7,80.3z"/>
</g>
<g>
	<path d="M328.7,75.4c0-1.8,2.5-3.5,4.5-3.5c1.3,0,2.3,0.7,2.3,1.7c0,1.7-2.5,3.5-4.6,3.5C329.7,77.1,328.7,76.5,328.7,75.4z"/>
</g>
<rect x="341.3" y="81.6" width="10.5" height="0.8"/>
<rect x="349.6" y="60.6" width="0.5" height="20.6"/>
<g>
	<path d="M343.1,82.8c0-1.8,2.5-3.5,4.5-3.5c1.3,0,2.3,0.7,2.3,1.7c0,1.7-2.5,3.5-4.6,3.5C344.1,84.5,343.1,83.9,343.1,82.8z"/>
</g>
<g>
	<path d="M343.1,77.9c0-1.8,2.5-3.5,4.5-3.5c1.3,0,2.3,0.7,2.3,1.7c0,1.7-2.5,3.5-4.6,3.5C344.1,79.6,343.1,78.9,343.1,77.9z"/>
</g>
<rect x="355.7" y="81.6" width="10.5" height="0.8"/>
<rect x="364" y="62.3" width="0.5" height="21.4"/>
<g>
	<path d="M357.6,85.3c0-1.8,2.5-3.5,4.5-3.5c1.3,0,2.3,0.7,2.3,1.7c0,1.7-2.5,3.5-4.6,3.5C358.5,87,357.6,86.4,357.6,85.3z"/>
</g>
<g>
	<path d="M357.6,80.3c0-1.8,2.5-3.5,4.5-3.5c1.3,0,2.3,0.7,2.3,1.7c0,1.7-2.5,3.5-4.6,3.5C358.5,82.1,357.6,81.4,357.6,80.3z"/>
</g>
<rect x="383.9" y="51.8" width="10.5" height="0.8"/>
<rect x="385.7" y="53" width="0.5" height="23.9"/>
<g>
	<path d="M385.8,53.1c0-1.8,2.5-3.5,4.5-3.5c1.3,0,2.3,0.7,2.3,1.7c0,1.7-2.5,3.5-4.6,3.5C386.7,54.8,385.8,54.1,385.8,53.1z"/>
</g>
<g>
	<path d="M385.8,58c0-1.8,2.5-3.5,4.5-3.5c1.3,0,2.3,0.7,2.3,1.7c0,1.7-2.5,3.5-4.6,3.5C386.7,59.7,385.8,59.1,385.8,58z"/>
</g>
<rect x="400.1" y="55.5" width="0.5" height="22.9"/>
<g>
	<path d="M400.2,55.5c0-1.8,2.5-3.5,4.5-3.5c1.3,0,2.3,0.7,2.3,1.7c0,1.7-2.5,3.5-4.6,3.5C401.2,57.3,400.2,56.6,400.2,55.5z"/>
</g>
<g>
	<path d="M400.2,60.5c0-1.8,2.5-3.5,4.5-3.5c1.3,0,2.3,0.7,2.3,1.7c0,1.7-2.5,3.5-4.6,3.5C401.2,62.2,400.2,61.6,400.2,60.5z"/>
</g>
<rect x="414.5" y="57.9" width="0.5" height="22.2"/>
<g>
	<path d="M414.6,58c0-1.8,2.5-3.5,4.5-3.5c1.3,0,2.3,0.7,2.3,1.7c0,1.7-2.5,3.5-4.6,3.5C415.6,59.7,414.6,59.1,414.6,58z"/>
</g>
<g>
	<path d="M414.6,63c0-1.8,2.5-3.5,4.5-3.5c1.3,0,2.3,0.7,2.3,1.7c0,1.7-2.5,3.5-4.6,3.5C415.6,64.7,414.6,64.1,414.6,63z"/>
</g>
<rect x="428.9" y="60.4" width="0.5" height="21.4"/>
<g>
	<path d="M429,60.5c0-1.8,2.5-3.5,4.5-3.5c1.3,0,2.3,0.7,2.3,1.7c0,1.7-2.5,3.5-4.6,3.5C430,62.2,429,61.6,429,60.5z"/>
</g>
<g>
	<path d="M429,65.5c0-1.8,2.5-3.5,4.5-3.5c1.3,0,2.3,0.7,2.3,1.7c0,1.7-2.5,3.5-4.6,3.5C430,67.2,429,66.5,429,65.5z"/>
</g>
<rect x="449.9" y="47.4" width="0.5" height="18.9"/>
<g>
	<path d="M443.4,67.9c0-1.8,2.5-3.5,4.5-3.5c1.3,0,2.3,0.7,2.3,1.7c0,1.7-2.5,3.5-4.6,3.5C444.4,69.7,443.4,69,443.4,67.9z"/>
</g>
<g>
	<path d="M443.4,63c0-1.8,2.5-3.5,4.5-3.5c1.3,0,2.3,0.7,2.3,1.7c0,1.7-2.5,3.5-4.6,3.5C444.4,64.7,443.4,64.1,443.4,63z"/>
</g>
<rect x="464.3" y="48.9" width="0.5" height="19.8"/>
<g>
	<path d="M457.8,70.4c0-1.8,2.5-3.5,4.5-3.5c1.3,0,2.3,0.7,2.3,1.7c0,1.7-2.5,3.5-4.6,3.5C458.8,72.1,457.8,71.5,457.8,70.4z"/>
</g>
<g>
	<path d="M457.8,65.5c0-1.8,2.5-3.5,4.5-3.5c1.3,0,2.3,0.7,2.3,1.7c0,1.7-2.5,3.5-4.6,3.5C458.8,67.2,457.8,66.5,457.8,65.5z"/>
</g>
<rect x="478.7" y="50.7" width="0.5" height="20.6"/>
<g>
	<path d="M472.3,72.9c0-1.8,2.5-3.5,4.5-3.5c1.3,0,2.3,0.7,2.3,1.7c0,1.7-2.5,3.5-4.6,3.5C473.2,74.6,472.3,74,472.3,72.9z"/>
</g>
<g>
	<path d="M472.3,67.9c0-1.8,2.5-3.5,4.5-3.5c1.3,0,2.3,0.7,2.3,1.7c0,1.7-2.5,3.5-4.6,3.5C473.2,69.7,472.3,69,472.3,67.9z"/>
</g>
<rect x="493.1" y="52.4" width="0.5" height="21.4"/>
<g>
	<path d="M486.7,75.4c0-1.8,2.5-3.5,4.5-3.5c1.3,0,2.3,0.7,2.3,1.7c0,1.7-2.5,3.5-4.6,3.5C487.7,77.1,486.7,76.5,486.7,75.4z"/>
</g>
<g>
	<path d="M486.7,70.4c0-1.8,2.5-3.5,4.5-3.5c1.3,0,2.3,0.7,2.3,1.7c0,1.7-2.5,3.5-4.6,3.5C487.7,72.1,486.7,71.5,486.7,70.4z"/>
</g>
<rect x="507.7" y="54.7" width="0.5" height="21.5"/>
<g>
	<path d="M505.4,74.3c1.6,0,2.7,0.7,2.7,2c0,1.9-2.3,3.4-4.5,3.4c-1.3,0-2.4-0.7-2.4-1.8C501.1,76.1,503.3,74.3,505.4,74.3z
		 M501.6,78.2c0,0.6,0.4,0.9,1.1,0.9c1.4,0,4.9-2.1,4.9-3.3c0-0.6-0.4-0.9-1.1-0.9C505.2,74.9,501.6,76.9,501.6,78.2z"/>
</g>
<g>
	<path d="M505.4,69.3c1.6,0,2.7,0.7,2.7,2c0,1.9-2.3,3.4-4.5,3.4c-1.3,0-2.4-0.7-2.4-1.8C501.1,71.1,503.3,69.3,505.4,69.3z
		 M501.6,73.2c0,0.6,0.4,0.9,1.1,0.9c1.4,0,4.9-2.1,4.9-3.3c0-0.6-0.4-0.9-1.1-0.9C505.2,69.9,501.6,72,501.6,73.2z"/>
</g>
</svg>
