<?xml version="1.0" encoding="utf-8"?>

<!--
	ScaleBook
	Copyright (c) Leland Jansen 2015. All rights reserved.
-->

<!DOCTYPE svg PUBLIC "-//W3C//DTD SVG 1.1//EN" "http://www.w3.org/Graphics/SVG/1.1/DTD/svg11.dtd">
<svg version="1.1" id="Layer_1" xmlns="http://www.w3.org/2000/svg" xmlns:xlink="http://www.w3.org/1999/xlink" x="0px" y="0px"
	 viewBox="0 0 552.9 89.4" enable-background="new 0 0 552.9 89.4" xml:space="preserve">
<rect x="8.4" y="12.5" width="0.8" height="67"/>
<g>
	<path d="M7.4,13.2c-1.9,1.1-3.6,5.8-3.6,9.4c0,2.3,1.4,9.9,1.4,12.3c0,5-1.5,8.6-4.6,11.1c3,2.4,4.6,6.1,4.6,11.1
		c0,2.3-1.4,9.9-1.4,12.3c0,3.8,1.7,8.4,3.6,9.5v0.7c-3.5-2.3-5.8-8.2-5.8-13.1c0-2.1,1.7-9.4,1.7-11.5c0-3.8-1-6.6-2.9-8.2
		C0.1,46.4,0,46.2,0,46c0-0.2,0.1-0.4,0.5-0.7c1.9-1.7,2.9-4.2,2.9-7.6c0-2.1-1.7-10-1.7-12.2c0-5.2,2.1-10.4,5.8-13.1V13.2z"/>
</g>
<rect x="547.8" y="12.5" width="0.8" height="67"/>
<rect x="550.4" y="12.5" width="2.5" height="67"/>
<rect x="8.5" y="32.1" width="544.4" height="0.5"/>
<rect x="8.5" y="27.2" width="544.4" height="0.5"/>
<rect x="8.5" y="22.2" width="544.4" height="0.5"/>
<rect x="8.5" y="17.2" width="544.4" height="0.5"/>
<rect x="8.5" y="12.3" width="544.4" height="0.5"/>
<g>
	<path d="M20.3,32.2c-4.2,0-8.1-3.1-8.1-6.9c0-3.2,2.3-6.7,6.8-10.5c-0.3-1.2-0.4-2.4-0.4-3.6c0-3.5,1.2-6.8,3.2-8.5
		c1.8,2.5,2.7,4.9,2.7,7.1c0,2.9-1.3,5.6-4.3,8.1l0.9,4.2c0.5,0,0.8-0.1,0.8-0.1c2.6,0,4.8,2,4.8,4.7c0,1.9-1.4,3.7-3.6,4.8
		c0-0.1,0.9,3.8,0.9,4.3c0,2.5-2.3,4.2-4.9,4.2c-2,0-3.6-1.3-3.6-3.4c0-1.4,1-2.6,2.4-2.6c1.3,0,2.3,1.3,2.3,2.5
		c0,1.4-1.2,2.3-2.7,2.5c0.6,0.3,1.2,0.5,1.9,0.5c2.1,0,4.1-1.6,4.1-3.6c0-0.2,0-0.4-0.1-0.6l-0.8-3.7
		C21.9,32.1,21.2,32.2,20.3,32.2z M18.1,27c0,1,0.5,1.9,1.6,2.5c-1.8-0.3-3-1.4-3-3.1c0-2,1.7-3.7,3.8-4.1l-0.8-4
		C16,21.1,14,23.8,14,26.4c0,2.9,2.8,5.3,6,5.3c0.9,0,1.7-0.2,2.4-0.5L21,24.4C19.4,24.6,18.1,25.6,18.1,27z M22.1,5.6
		c-1.6,0-2.9,3.7-2.9,7c0,0.7,0,1.3,0.2,1.9c2.7-2.4,4-4.5,4-6.5c0-0.9-0.3-1.7-1-2.4C22.4,5.7,22.3,5.6,22.1,5.6z M24.9,27.5
		c0-1.6-1.2-3.3-2.9-3.3c-0.1,0-0.2,0-0.5,0l1.4,6.6C24.2,30,24.9,28.8,24.9,27.5z"/>
</g>
<g>
	<path d="M29.5,14.1h0.6L30,20.4c0.4-0.7,1-1,1.8-1c1.2,0,2.2,0.8,2.2,1.9c0,0.8-0.5,1.8-1.7,2.7l-2.8,2.1V14.1z M30.1,21
		C30,21.8,30,22.4,30,23c0,1,0,1.6,0.1,2c1-0.7,2.4-2.6,2.4-3.7c0-0.6-0.5-1.1-1.1-1.1C30.8,20.2,30.4,20.5,30.1,21z"/>
</g>
<g>
	<path d="M35.1,6.7h0.6l-0.1,6.2c0.4-0.7,1-1,1.8-1c1.2,0,2.2,0.8,2.2,1.9c0,0.8-0.5,1.8-1.7,2.7l-2.8,2.1V6.7z M35.7,13.6
		c-0.1,0.8-0.1,1.4-0.1,1.9c0,1,0,1.6,0.1,2c1-0.7,2.4-2.6,2.4-3.7c0-0.6-0.5-1.1-1.1-1.1C36.4,12.8,36,13,35.7,13.6z"/>
</g>
<g>
	<path d="M40.7,16.6h0.6l-0.1,6.2c0.4-0.7,1-1,1.8-1c1.2,0,2.2,0.8,2.2,1.9c0,0.8-0.5,1.8-1.7,2.7l-2.8,2.1V16.6z M41.3,23.5
		c-0.1,0.8-0.1,1.4-0.1,1.9c0,1,0,1.6,0.1,2c1-0.7,2.4-2.6,2.4-3.7c0-0.6-0.5-1.1-1.1-1.1C42,22.7,41.6,23,41.3,23.5z"/>
</g>
<g>
	<path d="M46.3,9.2h0.6l-0.1,6.2c0.4-0.7,1-1,1.8-1c1.2,0,2.2,0.8,2.2,1.9c0,0.8-0.5,1.8-1.7,2.7l-2.8,2.1V9.2z M46.9,16.1
		c-0.1,0.8-0.1,1.4-0.1,1.9c0,1,0,1.6,0.1,2c1-0.7,2.4-2.6,2.4-3.7c0-0.6-0.5-1.1-1.1-1.1C47.6,15.2,47.2,15.5,46.9,16.1z"/>
</g>
<g>
	<path d="M51.9,19.1h0.6l-0.1,6.2c0.4-0.7,1-1,1.8-1c1.2,0,2.2,0.8,2.2,1.9c0,0.8-0.5,1.8-1.7,2.7L51.9,31V19.1z M52.4,26
		c-0.1,0.8-0.1,1.4-0.1,1.9c0,1,0,1.6,0.1,2c1-0.7,2.4-2.6,2.4-3.7c0-0.6-0.5-1.1-1.1-1.1C53.2,25.2,52.7,25.4,52.4,26z"/>
</g>
<polygon fill-rule="evenodd" clip-rule="evenodd" points="71.6,23.7 115.6,18.7 115.6,16.2 71.6,21.2 "/>
<polygon fill-rule="evenodd" clip-rule="evenodd" points="71.6,20 115.6,15 115.6,12.5 71.6,17.5 "/>
<polygon fill-rule="evenodd" clip-rule="evenodd" points="130.1,13.8 174.2,8.8 174.2,6.3 130.1,11.3 "/>
<polygon fill-rule="evenodd" clip-rule="evenodd" points="130.1,10 174.2,5.1 174.2,2.6 130.1,7.6 "/>
<polygon fill-rule="evenodd" clip-rule="evenodd" points="195.9,28.6 239.7,23.7 239.7,21.2 195.9,26.2 "/>
<polygon fill-rule="evenodd" clip-rule="evenodd" points="195.9,32.4 239.7,27.4 239.7,24.9 195.9,29.9 "/>
<polygon fill-rule="evenodd" clip-rule="evenodd" points="254.5,20 298.3,18.7 298.3,16.2 254.5,17.5 "/>
<polygon fill-rule="evenodd" clip-rule="evenodd" points="254.5,23.7 298.3,22.4 298.3,20 254.5,21.2 "/>
<polygon fill-rule="evenodd" clip-rule="evenodd" points="313.1,23.7 356.9,28.6 356.9,26.2 313.1,21.2 "/>
<polygon fill-rule="evenodd" clip-rule="evenodd" points="313.1,27.4 356.9,32.4 356.9,29.9 313.1,24.9 "/>
<polygon fill-rule="evenodd" clip-rule="evenodd" points="383.3,33.6 427.3,38.6 427.3,36.1 383.3,31.1 "/>
<polygon fill-rule="evenodd" clip-rule="evenodd" points="383.3,37.3 427.3,42.3 427.3,39.8 383.3,34.8 "/>
<polygon fill-rule="evenodd" clip-rule="evenodd" points="448.4,18.7 492.4,23.7 492.4,21.2 448.4,16.2 "/>
<polygon fill-rule="evenodd" clip-rule="evenodd" points="448.4,15 492.4,20 492.4,17.5 448.4,12.5 "/>
<rect x="8.5" y="79.3" width="544.4" height="0.5"/>
<rect x="8.5" y="74.3" width="544.4" height="0.5"/>
<rect x="8.5" y="69.3" width="544.4" height="0.5"/>
<rect x="8.5" y="64.4" width="544.4" height="0.5"/>
<rect x="8.5" y="59.4" width="544.4" height="0.5"/>
<g>
	<path d="M15.7,73.8c2.9-2.6,4.7-6.1,4.7-9.2c0-2.5-1.4-4.4-3.7-4.4c-1.6,0-3.4,1.3-3.4,2.7c0,0.2,0,0.3,0.1,0.3
		c-0.1,0,0.6-0.6,1.4-0.6c0.9,0,1.5,0.8,1.5,1.7c0,1.2-0.9,2.2-2.1,2.2c-1.2,0-2.1-1.3-2.1-2.8c0-2.3,2.3-4.1,4.8-4.1
		c4.7,0,5.9,3.2,5.9,5.8c0,1.6-0.4,2.9-2,5.3C19.1,73.8,14.6,76,13,76c-0.4,0-0.6-0.2-0.6-0.5C13.8,75.1,14.9,74.5,15.7,73.8z
		 M25.7,61.1c0.6,0,1,0.4,1,1c0,0.6-0.4,1-1,1s-1-0.4-1-1C24.7,61.6,25.1,61.1,25.7,61.1z M25.7,66.1c0.6,0,1,0.4,1,1
		c0,0.6-0.4,1-1,1s-1-0.4-1-1C24.7,66.5,25.1,66.1,25.7,66.1z"/>
</g>
<g>
	<path d="M29.5,66.2h0.6L30,72.5c0.4-0.7,1-1,1.8-1c1.2,0,2.2,0.8,2.2,1.9c0,0.8-0.5,1.8-1.7,2.7l-2.8,2.1V66.2z M30.1,73.1
		C30,73.9,30,74.5,30,75.1c0,1,0,1.6,0.1,2c1-0.7,2.4-2.6,2.4-3.7c0-0.6-0.5-1.1-1.1-1.1C30.8,72.3,30.4,72.6,30.1,73.1z"/>
</g>
<g>
	<path d="M35.1,58.8h0.6L35.6,65c0.4-0.7,1-1,1.8-1c1.2,0,2.2,0.8,2.2,1.9c0,0.8-0.5,1.8-1.7,2.7l-2.8,2.1V58.8z M35.7,65.7
		c-0.1,0.8-0.1,1.4-0.1,1.9c0,1,0,1.6,0.1,2c1-0.7,2.4-2.6,2.4-3.7c0-0.6-0.5-1.1-1.1-1.1C36.4,64.8,36,65.1,35.7,65.7z"/>
</g>
<g>
	<path d="M40.7,68.7h0.6l-0.1,6.2c0.4-0.7,1-1,1.8-1c1.2,0,2.2,0.8,2.2,1.9c0,0.8-0.5,1.8-1.7,2.7l-2.8,2.1V68.7z M41.3,75.6
		c-0.1,0.8-0.1,1.4-0.1,1.9c0,1,0,1.6,0.1,2c1-0.7,2.4-2.6,2.4-3.7c0-0.6-0.5-1.1-1.1-1.1C42,74.8,41.6,75,41.3,75.6z"/>
</g>
<g>
	<path d="M46.3,61.3h0.6l-0.1,6.2c0.4-0.7,1-1,1.8-1c1.2,0,2.2,0.8,2.2,1.9c0,0.8-0.5,1.8-1.7,2.7l-2.8,2.1V61.3z M46.9,68.2
		c-0.1,0.8-0.1,1.4-0.1,1.9c0,1,0,1.6,0.1,2c1-0.7,2.4-2.6,2.4-3.7c0-0.6-0.5-1.1-1.1-1.1C47.6,67.3,47.2,67.6,46.9,68.2z"/>
</g>
<g>
	<path d="M51.9,71.2h0.6l-0.1,6.2c0.4-0.7,1-1,1.8-1c1.2,0,2.2,0.8,2.2,1.9c0,0.8-0.5,1.8-1.7,2.7l-2.8,2.1V71.2z M52.4,78.1
		c-0.1,0.8-0.1,1.4-0.1,1.9c0,1,0,1.6,0.1,2c1-0.7,2.4-2.6,2.4-3.7c0-0.6-0.5-1.1-1.1-1.1C53.2,77.2,52.7,77.5,52.4,78.1z"/>
</g>
<polygon fill-rule="evenodd" clip-rule="evenodd" points="65,85.7 109.1,80.7 109.1,78.2 65,83.2 "/>
<polygon fill-rule="evenodd" clip-rule="evenodd" points="65,89.4 109.1,84.4 109.1,82 65,86.9 "/>
<g>
	<path d="M187.9,78.1c-3.2,0-6.1-2.3-6.1-5.1c0-2.4,1.7-5,5.1-7.9c-0.2-0.9-0.3-1.8-0.3-2.7c0-2.6,0.9-5.1,2.4-6.3
		c1.4,1.9,2,3.7,2,5.3c0,2.2-1,4.2-3.2,6.1l0.7,3.1c0.4,0,0.6,0,0.6,0c2,0,3.6,1.5,3.6,3.5c0,1.4-1.1,2.8-2.7,3.6
		c0-0.1,0.6,2.8,0.6,3.3c0,1.9-1.7,3.2-3.7,3.2c-1.5,0-2.7-1-2.7-2.5c0-1.1,0.7-1.9,1.8-1.9c1,0,1.7,1,1.7,1.9c0,1-0.9,1.7-2,1.8
		c0.4,0.2,0.9,0.3,1.4,0.3c1.6,0,3.1-1.2,3.1-2.7c0-0.1,0-0.3,0-0.5l-0.6-2.8C189.1,78,188.6,78.1,187.9,78.1z M186.2,74.2
		c0,0.8,0.4,1.4,1.2,1.9c-1.3-0.2-2.2-1.1-2.2-2.3c0-1.5,1.3-2.8,2.9-3.1l-0.6-3c-2.8,2.1-4.3,4.1-4.3,6.1c0,2.2,2.1,4,4.5,4
		c0.7,0,1.3-0.1,1.8-0.4l-1.1-5.1C187.2,72.4,186.2,73.2,186.2,74.2z M189.2,58.2c-1.2,0-2.2,2.8-2.2,5.3c0,0.5,0,1,0.1,1.4
		c2-1.8,3-3.4,3-4.9c0-0.7-0.3-1.3-0.7-1.8C189.4,58.2,189.3,58.2,189.2,58.2z M191.3,74.6c0-1.2-0.9-2.4-2.2-2.4c0,0-0.2,0-0.4,0
		l1.1,5C190.8,76.5,191.3,75.6,191.3,74.6z"/>
</g>
<polygon fill-rule="evenodd" clip-rule="evenodd" points="123.6,75.8 167.7,70.8 167.7,68.3 123.6,73.3 "/>
<polygon fill-rule="evenodd" clip-rule="evenodd" points="123.6,79.5 167.7,74.5 167.7,72 123.6,77 "/>
<polygon fill-rule="evenodd" clip-rule="evenodd" points="202.4,70.8 246.3,65.8 246.3,63.4 202.4,68.3 "/>
<polygon fill-rule="evenodd" clip-rule="evenodd" points="202.4,67.1 246.3,62.1 246.3,59.6 202.4,64.6 "/>
<polygon fill-rule="evenodd" clip-rule="evenodd" points="254.5,84.4 298.3,83.2 298.3,80.7 254.5,82 "/>
<polygon fill-rule="evenodd" clip-rule="evenodd" points="254.5,88.2 298.3,86.9 298.3,84.4 254.5,85.7 "/>
<g>
	<path d="M371.8,71.5c2.2-2,3.6-4.6,3.6-6.9c0-1.9-1.1-3.3-2.8-3.3c-1.2,0-2.5,1-2.5,2.1c0,0.2,0,0.2,0.1,0.2c0,0,0.4-0.5,1-0.5
		c0.7,0,1.2,0.6,1.2,1.3c0,0.9-0.6,1.7-1.6,1.7s-1.5-1-1.5-2.1c0-1.8,1.7-3.1,3.6-3.1c3.5,0,4.4,2.4,4.4,4.4c0,1.2-0.3,2.2-1.5,4
		c-1.4,2.3-4.8,4-6,4c-0.3,0-0.5-0.1-0.5-0.3C370.4,72.5,371.2,72,371.8,71.5z M379.3,62c0.4,0,0.7,0.3,0.7,0.7
		c0,0.4-0.3,0.7-0.7,0.7c-0.4,0-0.7-0.3-0.7-0.7C378.6,62.3,378.9,62,379.3,62z M379.3,65.7c0.4,0,0.7,0.3,0.7,0.7s-0.3,0.7-0.7,0.7
		c-0.4,0-0.7-0.3-0.7-0.7S378.9,65.7,379.3,65.7z"/>
</g>
<polygon fill-rule="evenodd" clip-rule="evenodd" points="319.6,60.9 363.4,65.8 363.4,63.4 319.6,58.4 "/>
<polygon fill-rule="evenodd" clip-rule="evenodd" points="319.6,57.2 363.4,62.1 363.4,59.6 319.6,54.7 "/>
<polygon fill-rule="evenodd" clip-rule="evenodd" points="383.3,65.8 427.3,70.8 427.3,68.3 383.3,63.4 "/>
<polygon fill-rule="evenodd" clip-rule="evenodd" points="383.3,69.6 427.3,74.5 427.3,72 383.3,67.1 "/>
<polygon fill-rule="evenodd" clip-rule="evenodd" points="441.9,75.8 485.9,80.7 485.9,78.2 441.9,73.3 "/>
<polygon fill-rule="evenodd" clip-rule="evenodd" points="441.9,79.5 485.9,84.4 485.9,82 441.9,77 "/>
<rect x="63" y="36.9" width="10.5" height="0.8"/>
<rect x="71.3" y="17.6" width="0.5" height="18.9"/>
<g>
	<path d="M64.9,38.2c0-1.8,2.5-3.5,4.5-3.5c1.3,0,2.3,0.7,2.3,1.7c0,1.7-2.5,3.5-4.6,3.5C65.9,39.9,64.9,39.3,64.9,38.2z"/>
</g>
<rect x="86" y="16.1" width="0.5" height="18"/>
<g>
	<path d="M79.6,35.7c0-1.8,2.5-3.5,4.5-3.5c1.3,0,2.3,0.7,2.3,1.7c0,1.7-2.5,3.5-4.6,3.5C80.6,37.4,79.6,36.8,79.6,35.7z"/>
</g>
<rect x="100.6" y="14.4" width="0.5" height="17.2"/>
<g>
	<path d="M94.2,33.2c0-1.8,2.5-3.5,4.5-3.5c1.3,0,2.3,0.7,2.3,1.7c0,1.7-2.5,3.5-4.6,3.5C95.2,34.9,94.2,34.3,94.2,33.2z"/>
</g>
<rect x="115.3" y="12.7" width="0.5" height="16.4"/>
<g>
	<path d="M108.9,30.7c0-1.8,2.5-3.5,4.5-3.5c1.3,0,2.3,0.7,2.3,1.7c0,1.7-2.5,3.5-4.6,3.5C109.9,32.5,108.9,31.8,108.9,30.7z"/>
</g>
<rect x="129.9" y="7.7" width="0.5" height="18.9"/>
<g>
	<path d="M123.5,28.3c0-1.8,2.5-3.5,4.5-3.5c1.3,0,2.3,0.7,2.3,1.7c0,1.7-2.5,3.5-4.6,3.5C124.5,30,123.5,29.3,123.5,28.3z"/>
</g>
<rect x="144.6" y="6.2" width="0.5" height="18"/>
<g>
	<path d="M138.2,25.8c0-1.8,2.5-3.5,4.5-3.5c1.3,0,2.3,0.7,2.3,1.7c0,1.7-2.5,3.5-4.6,3.5C139.2,27.5,138.2,26.9,138.2,25.8z"/>
</g>
<rect x="159.2" y="4.5" width="0.5" height="17.2"/>
<g>
	<path d="M152.8,23.3c0-1.8,2.5-3.5,4.5-3.5c1.3,0,2.3,0.7,2.3,1.7c0,1.7-2.5,3.5-4.6,3.5C153.8,25,152.8,24.4,152.8,23.3z"/>
</g>
<rect x="173.9" y="2.8" width="0.5" height="16.4"/>
<g>
	<path d="M167.5,20.8c0-1.8,2.5-3.5,4.5-3.5c1.3,0,2.3,0.7,2.3,1.7c0,1.7-2.5,3.5-4.6,3.5C168.5,22.5,167.5,21.9,167.5,20.8z"/>
</g>
<rect x="195.6" y="18.3" width="0.5" height="14"/>
<g>
	<path d="M195.7,18.3c0-1.8,2.5-3.5,4.5-3.5c1.3,0,2.3,0.7,2.3,1.7c0,1.7-2.5,3.5-4.6,3.5C196.7,20.1,195.7,19.4,195.7,18.3z"/>
</g>
<rect x="210.2" y="15.8" width="0.5" height="14.9"/>
<g>
	<path d="M210.3,15.9c0-1.8,2.5-3.5,4.5-3.5c1.3,0,2.3,0.7,2.3,1.7c0,1.7-2.5,3.5-4.6,3.5C211.3,17.6,210.3,16.9,210.3,15.9z"/>
</g>
<rect x="224.9" y="13.3" width="0.5" height="15.7"/>
<g>
	<path d="M225,13.4c0-1.8,2.5-3.5,4.5-3.5c1.3,0,2.3,0.7,2.3,1.7c0,1.7-2.5,3.5-4.6,3.5C226,15.1,225,14.5,225,13.4z"/>
</g>
<rect x="239.5" y="10.8" width="0.5" height="16.4"/>
<g>
	<path d="M239.6,10.9c0-1.8,2.5-3.5,4.5-3.5c1.3,0,2.3,0.7,2.3,1.7c0,1.7-2.5,3.5-4.6,3.5C240.6,12.6,239.6,12,239.6,10.9z"/>
</g>
<rect x="252.5" y="7.2" width="10.5" height="0.8"/>
<rect x="254.2" y="8.3" width="0.5" height="15.2"/>
<g>
	<path d="M254.3,8.4c0-1.8,2.5-3.5,4.5-3.5c1.3,0,2.3,0.7,2.3,1.7c0,1.7-2.5,3.5-4.6,3.5C255.3,10.1,254.3,9.5,254.3,8.4z"/>
</g>
<rect x="267" y="7.2" width="10.5" height="0.8"/>
<rect x="268.8" y="5.9" width="0.5" height="17.4"/>
<g>
	<path d="M268.9,5.9c0-1.8,2.5-3.5,4.5-3.5c1.3,0,2.3,0.7,2.3,1.7c0,1.7-2.5,3.5-4.6,3.5C269.9,7.7,268.9,7,268.9,5.9z"/>
</g>
<rect x="281.8" y="7.2" width="10.5" height="0.8"/>
<rect x="281.8" y="2.2" width="10.5" height="0.8"/>
<rect x="283.5" y="3.4" width="0.5" height="19.4"/>
<g>
	<path d="M283.6,3.5c0-1.8,2.5-3.5,4.5-3.5c1.3,0,2.3,0.7,2.3,1.7c0,1.7-2.5,3.5-4.6,3.5C284.6,5.2,283.6,4.5,283.6,3.5z"/>
</g>
<rect x="296.3" y="7.2" width="10.5" height="0.8"/>
<rect x="298.1" y="5.9" width="0.5" height="16.4"/>
<g>
	<path d="M298.2,5.9c0-1.8,2.5-3.5,4.5-3.5c1.3,0,2.3,0.7,2.3,1.7c0,1.7-2.5,3.5-4.6,3.5C299.2,7.7,298.2,7,298.2,5.9z"/>
</g>
<rect x="311" y="7.2" width="10.5" height="0.8"/>
<rect x="312.8" y="8.3" width="0.5" height="18.9"/>
<g>
	<path d="M312.9,8.4c0-1.8,2.5-3.5,4.5-3.5c1.3,0,2.3,0.7,2.3,1.7c0,1.7-2.5,3.5-4.6,3.5C313.9,10.1,312.9,9.5,312.9,8.4z"/>
</g>
<rect x="327.4" y="10.8" width="0.5" height="18"/>
<g>
	<path d="M327.5,10.9c0-1.8,2.5-3.5,4.5-3.5c1.3,0,2.3,0.7,2.3,1.7c0,1.7-2.5,3.5-4.6,3.5C328.5,12.6,327.5,12,327.5,10.9z"/>
</g>
<rect x="342.1" y="13.3" width="0.5" height="17.2"/>
<g>
	<path d="M342.2,13.4c0-1.8,2.5-3.5,4.5-3.5c1.3,0,2.3,0.7,2.3,1.7c0,1.7-2.5,3.5-4.6,3.5C343.2,15.1,342.2,14.5,342.2,13.4z"/>
</g>
<rect x="356.7" y="15.8" width="0.5" height="16.4"/>
<g>
	<path d="M356.8,15.9c0-1.8,2.5-3.5,4.5-3.5c1.3,0,2.3,0.7,2.3,1.7c0,1.7-2.5,3.5-4.6,3.5C357.8,17.6,356.8,16.9,356.8,15.9z"/>
</g>
<rect x="383.1" y="18.3" width="0.5" height="18.9"/>
<g>
	<path d="M383.1,18.3c0-1.8,2.5-3.5,4.5-3.5c1.3,0,2.3,0.7,2.3,1.7c0,1.7-2.5,3.5-4.6,3.5C384.1,20.1,383.1,19.4,383.1,18.3z"/>
</g>
<rect x="397.8" y="20.7" width="0.5" height="18"/>
<g>
	<path d="M397.9,20.8c0-1.8,2.5-3.5,4.5-3.5c1.3,0,2.3,0.7,2.3,1.7c0,1.7-2.5,3.5-4.6,3.5C398.8,22.5,397.9,21.9,397.9,20.8z"/>
</g>
<rect x="412.4" y="23.2" width="0.5" height="17.2"/>
<g>
	<path d="M412.4,23.3c0-1.8,2.5-3.5,4.5-3.5c1.3,0,2.3,0.7,2.3,1.7c0,1.7-2.5,3.5-4.6,3.5C413.4,25,412.4,24.4,412.4,23.3z"/>
</g>
<rect x="427.1" y="25.7" width="0.5" height="16.4"/>
<g>
	<path d="M427.2,25.8c0-1.8,2.5-3.5,4.5-3.5c1.3,0,2.3,0.7,2.3,1.7c0,1.7-2.5,3.5-4.6,3.5C428.1,27.5,427.2,26.9,427.2,25.8z"/>
</g>
<rect x="448.2" y="12.7" width="0.5" height="14"/>
<g>
	<path d="M441.7,28.3c0-1.8,2.5-3.5,4.5-3.5c1.3,0,2.3,0.7,2.3,1.7c0,1.7-2.5,3.5-4.6,3.5C442.7,30,441.7,29.3,441.7,28.3z"/>
</g>
<rect x="462.9" y="14.2" width="0.5" height="14.9"/>
<g>
	<path d="M456.5,30.7c0-1.8,2.5-3.5,4.5-3.5c1.3,0,2.3,0.7,2.3,1.7c0,1.7-2.5,3.5-4.6,3.5C457.4,32.5,456.5,31.8,456.5,30.7z"/>
</g>
<rect x="477.5" y="15.9" width="0.5" height="15.7"/>
<g>
	<path d="M471,33.2c0-1.8,2.5-3.5,4.5-3.5c1.3,0,2.3,0.7,2.3,1.7c0,1.7-2.5,3.5-4.6,3.5C472,34.9,471,34.3,471,33.2z"/>
</g>
<rect x="492.2" y="17.6" width="0.5" height="16.4"/>
<g>
	<path d="M485.8,35.7c0-1.8,2.5-3.5,4.5-3.5c1.3,0,2.3,0.7,2.3,1.7c0,1.7-2.5,3.5-4.6,3.5C486.7,37.4,485.8,36.8,485.8,35.7z"/>
</g>
<rect x="498.5" y="36.9" width="10.7" height="0.8"/>
<rect x="506.9" y="20" width="0.5" height="16.6"/>
<g>
	<path d="M504.6,34.6c1.6,0,2.7,0.7,2.7,2c0,1.9-2.3,3.4-4.5,3.4c-1.3,0-2.4-0.7-2.4-1.8C500.3,36.4,502.6,34.6,504.6,34.6z
		 M500.8,38.5c0,0.6,0.4,0.9,1.1,0.9c1.4,0,4.9-2.1,4.9-3.3c0-0.6-0.4-0.9-1.1-0.9C504.4,35.2,500.8,37.2,500.8,38.5z"/>
</g>
<rect x="64.8" y="72.8" width="0.5" height="16.4"/>
<g>
	<path d="M64.9,72.9c0-1.8,2.5-3.5,4.5-3.5c1.3,0,2.3,0.7,2.3,1.7c0,1.7-2.5,3.5-4.6,3.5C65.9,74.6,64.9,74,64.9,72.9z"/>
</g>
<rect x="79.5" y="70.3" width="0.5" height="17.4"/>
<g>
	<path d="M79.6,70.4c0-1.8,2.5-3.5,4.5-3.5c1.3,0,2.3,0.7,2.3,1.7c0,1.7-2.5,3.5-4.6,3.5C80.6,72.1,79.6,71.5,79.6,70.4z"/>
</g>
<rect x="94.1" y="67.9" width="0.5" height="18.1"/>
<g>
	<path d="M94.2,67.9c0-1.8,2.5-3.5,4.5-3.5c1.3,0,2.3,0.7,2.3,1.7c0,1.7-2.5,3.5-4.6,3.5C95.2,69.7,94.2,69,94.2,67.9z"/>
</g>
<rect x="108.8" y="65.4" width="0.5" height="18.9"/>
<g>
	<path d="M108.9,65.5c0-1.8,2.5-3.5,4.5-3.5c1.3,0,2.3,0.7,2.3,1.7c0,1.7-2.5,3.5-4.6,3.5C109.9,67.2,108.9,66.5,108.9,65.5z"/>
</g>
<rect x="123.4" y="62.9" width="0.5" height="16.4"/>
<g>
	<path d="M123.5,63c0-1.8,2.5-3.5,4.5-3.5c1.3,0,2.3,0.7,2.3,1.7c0,1.7-2.5,3.5-4.6,3.5C124.5,64.7,123.5,64.1,123.5,63z"/>
</g>
<rect x="138.1" y="60.4" width="0.5" height="17.4"/>
<g>
	<path d="M138.2,60.5c0-1.8,2.5-3.5,4.5-3.5c1.3,0,2.3,0.7,2.3,1.7c0,1.7-2.5,3.5-4.6,3.5C139.2,62.2,138.2,61.6,138.2,60.5z"/>
</g>
<rect x="152.7" y="57.9" width="0.5" height="18.1"/>
<g>
	<path d="M152.8,58c0-1.8,2.5-3.5,4.5-3.5c1.3,0,2.3,0.7,2.3,1.7c0,1.7-2.5,3.5-4.6,3.5C153.8,59.7,152.8,59.1,152.8,58z"/>
</g>
<rect x="165.6" y="54.3" width="10.5" height="0.8"/>
<rect x="167.4" y="55.5" width="0.5" height="18.9"/>
<g>
	<path d="M167.5,55.5c0-1.8,2.5-3.5,4.5-3.5c1.3,0,2.3,0.7,2.3,1.7c0,1.7-2.5,3.5-4.6,3.5C168.5,57.3,167.5,56.6,167.5,55.5z"/>
</g>
<rect x="202.2" y="64.8" width="0.5" height="16.4"/>
<g>
	<path d="M195.7,82.8c0-1.8,2.5-3.5,4.5-3.5c1.3,0,2.3,0.7,2.3,1.7c0,1.7-2.5,3.5-4.6,3.5C196.7,84.5,195.7,83.9,195.7,82.8z"/>
</g>
<rect x="216.7" y="63.2" width="0.5" height="15.5"/>
<g>
	<path d="M210.3,80.3c0-1.8,2.5-3.5,4.5-3.5c1.3,0,2.3,0.7,2.3,1.7c0,1.7-2.5,3.5-4.6,3.5C211.3,82.1,210.3,81.4,210.3,80.3z"/>
</g>
<rect x="231.4" y="61.5" width="0.5" height="14.7"/>
<g>
	<path d="M225,77.9c0-1.8,2.5-3.5,4.5-3.5c1.3,0,2.3,0.7,2.3,1.7c0,1.7-2.5,3.5-4.6,3.5C226,79.6,225,78.9,225,77.9z"/>
</g>
<rect x="246" y="59.8" width="0.5" height="14"/>
<g>
	<path d="M239.6,75.4c0-1.8,2.5-3.5,4.5-3.5c1.3,0,2.3,0.7,2.3,1.7c0,1.7-2.5,3.5-4.6,3.5C240.6,77.1,239.6,76.5,239.6,75.4z"/>
</g>
<rect x="254.2" y="72.8" width="0.5" height="15.2"/>
<g>
	<path d="M254.3,72.9c0-1.8,2.5-3.5,4.5-3.5c1.3,0,2.3,0.7,2.3,1.7c0,1.7-2.5,3.5-4.6,3.5C255.3,74.6,254.3,74,254.3,72.9z"/>
</g>
<rect x="268.8" y="70.3" width="0.5" height="17.4"/>
<g>
	<path d="M268.9,70.4c0-1.8,2.5-3.5,4.5-3.5c1.3,0,2.3,0.7,2.3,1.7c0,1.7-2.5,3.5-4.6,3.5C269.9,72.1,268.9,71.5,268.9,70.4z"/>
</g>
<rect x="283.5" y="67.9" width="0.5" height="19.4"/>
<g>
	<path d="M283.6,67.9c0-1.8,2.5-3.5,4.5-3.5c1.3,0,2.3,0.7,2.3,1.7c0,1.7-2.5,3.5-4.6,3.5C284.6,69.7,283.6,69,283.6,67.9z"/>
</g>
<rect x="298.1" y="70.3" width="0.5" height="16.4"/>
<g>
	<path d="M298.2,70.4c0-1.8,2.5-3.5,4.5-3.5c1.3,0,2.3,0.7,2.3,1.7c0,1.7-2.5,3.5-4.6,3.5C299.2,72.1,298.2,71.5,298.2,70.4z"/>
</g>
<rect x="319.3" y="54.8" width="0.5" height="16.4"/>
<g>
	<path d="M312.9,72.9c0-1.8,2.5-3.5,4.5-3.5c1.3,0,2.3,0.7,2.3,1.7c0,1.7-2.5,3.5-4.6,3.5C313.9,74.6,312.9,74,312.9,72.9z"/>
</g>
<rect x="333.9" y="56.4" width="0.5" height="17.4"/>
<g>
	<path d="M327.5,75.4c0-1.8,2.5-3.5,4.5-3.5c1.3,0,2.3,0.7,2.3,1.7c0,1.7-2.5,3.5-4.6,3.5C328.5,77.1,327.5,76.5,327.5,75.4z"/>
</g>
<rect x="348.6" y="58.1" width="0.5" height="18.1"/>
<g>
	<path d="M342.2,77.9c0-1.8,2.5-3.5,4.5-3.5c1.3,0,2.3,0.7,2.3,1.7c0,1.7-2.5,3.5-4.6,3.5C343.2,79.6,342.2,78.9,342.2,77.9z"/>
</g>
<rect x="363.2" y="59.8" width="0.5" height="18.9"/>
<g>
	<path d="M356.8,80.3c0-1.8,2.5-3.5,4.5-3.5c1.3,0,2.3,0.7,2.3,1.7c0,1.7-2.5,3.5-4.6,3.5C357.8,82.1,356.8,81.4,356.8,80.3z"/>
</g>
<rect x="381.3" y="54.3" width="10.5" height="0.8"/>
<rect x="383.1" y="53" width="0.5" height="16.4"/>
<g>
	<path d="M383.1,53.1c0-1.8,2.5-3.5,4.5-3.5c1.3,0,2.3,0.7,2.3,1.7c0,1.7-2.5,3.5-4.6,3.5C384.1,54.8,383.1,54.1,383.1,53.1z"/>
</g>
<rect x="396" y="54.3" width="10.5" height="0.8"/>
<rect x="397.8" y="55.5" width="0.5" height="15.5"/>
<g>
	<path d="M397.9,55.5c0-1.8,2.5-3.5,4.5-3.5c1.3,0,2.3,0.7,2.3,1.7c0,1.7-2.5,3.5-4.6,3.5C398.8,57.3,397.9,56.6,397.9,55.5z"/>
</g>
<rect x="412.4" y="57.9" width="0.5" height="14.7"/>
<g>
	<path d="M412.4,58c0-1.8,2.5-3.5,4.5-3.5c1.3,0,2.3,0.7,2.3,1.7c0,1.7-2.5,3.5-4.6,3.5C413.4,59.7,412.4,59.1,412.4,58z"/>
</g>
<rect x="427.1" y="60.4" width="0.5" height="14"/>
<g>
	<path d="M427.2,60.5c0-1.8,2.5-3.5,4.5-3.5c1.3,0,2.3,0.7,2.3,1.7c0,1.7-2.5,3.5-4.6,3.5C428.1,62.2,427.2,61.6,427.2,60.5z"/>
</g>
<rect x="441.6" y="62.9" width="0.5" height="16.4"/>
<g>
	<path d="M441.7,63c0-1.8,2.5-3.5,4.5-3.5c1.3,0,2.3,0.7,2.3,1.7c0,1.7-2.5,3.5-4.6,3.5C442.7,64.7,441.7,64.1,441.7,63z"/>
</g>
<rect x="456.4" y="65.4" width="0.5" height="15.5"/>
<g>
	<path d="M456.5,65.5c0-1.8,2.5-3.5,4.5-3.5c1.3,0,2.3,0.7,2.3,1.7c0,1.7-2.5,3.5-4.6,3.5C457.4,67.2,456.5,66.5,456.5,65.5z"/>
</g>
<rect x="470.9" y="67.9" width="0.5" height="14.7"/>
<g>
	<path d="M471,67.9c0-1.8,2.5-3.5,4.5-3.5c1.3,0,2.3,0.7,2.3,1.7c0,1.7-2.5,3.5-4.6,3.5C472,69.7,471,69,471,67.9z"/>
</g>
<rect x="485.7" y="70.3" width="0.5" height="14"/>
<g>
	<path d="M485.8,70.4c0-1.8,2.5-3.5,4.5-3.5c1.3,0,2.3,0.7,2.3,1.7c0,1.7-2.5,3.5-4.6,3.5C486.7,72.1,485.8,71.5,485.8,70.4z"/>
</g>
<rect x="506.9" y="54.7" width="0.5" height="16.6"/>
<g>
	<path d="M504.6,69.3c1.6,0,2.7,0.7,2.7,2c0,1.9-2.3,3.4-4.5,3.4c-1.3,0-2.4-0.7-2.4-1.8C500.3,71.1,502.6,69.3,504.6,69.3z
		 M500.8,73.2c0,0.6,0.4,0.9,1.1,0.9c1.4,0,4.9-2.1,4.9-3.3c0-0.6-0.4-0.9-1.1-0.9C504.4,69.9,500.8,72,500.8,73.2z"/>
</g>
</svg>
