<?xml version="1.0" encoding="utf-8"?>

<!--
	ScaleBook
	Copyright (c) Leland Jansen 2015. All rights reserved.
-->

<!DOCTYPE svg PUBLIC "-//W3C//DTD SVG 1.1//EN" "http://www.w3.org/Graphics/SVG/1.1/DTD/svg11.dtd">
<svg version="1.1" id="Layer_1" xmlns="http://www.w3.org/2000/svg" xmlns:xlink="http://www.w3.org/1999/xlink" x="0px" y="0px"
	 viewBox="0 0 552.9 86.8" enable-background="new 0 0 552.9 86.8" xml:space="preserve">
<rect x="8.4" y="9.9" width="0.8" height="67"/>
<g>
	<path d="M7.4,10.6c-1.9,1.1-3.6,5.8-3.6,9.4c0,2.3,1.4,9.9,1.4,12.3c0,5-1.5,8.6-4.6,11.1c3,2.4,4.6,6.1,4.6,11.1
		c0,2.3-1.4,9.9-1.4,12.3c0,3.8,1.7,8.4,3.6,9.5v0.7c-3.5-2.3-5.8-8.2-5.8-13.1c0-2.1,1.7-9.4,1.7-11.5c0-3.8-1-6.6-2.9-8.2
		C0.1,43.8,0,43.6,0,43.4c0-0.2,0.1-0.4,0.5-0.7c1.9-1.7,2.9-4.2,2.9-7.6c0-2.1-1.7-10-1.7-12.2c0-5.2,2.1-10.4,5.8-13.1V10.6z"/>
</g>
<rect x="547.8" y="9.9" width="0.8" height="67"/>
<rect x="550.4" y="9.9" width="2.5" height="67"/>
<rect x="8.5" y="29.5" width="544.4" height="0.5"/>
<rect x="8.5" y="24.6" width="544.4" height="0.5"/>
<rect x="8.5" y="19.6" width="544.4" height="0.5"/>
<rect x="8.5" y="14.6" width="544.4" height="0.5"/>
<rect x="8.5" y="9.7" width="544.4" height="0.5"/>
<g>
	<path d="M20.3,29.6c-4.2,0-8.1-3.1-8.1-6.9c0-3.2,2.3-6.7,6.8-10.5c-0.3-1.2-0.4-2.4-0.4-3.6c0-3.5,1.2-6.8,3.2-8.5
		c1.8,2.5,2.7,4.9,2.7,7.1c0,2.9-1.3,5.6-4.3,8.1l0.9,4.2c0.5,0,0.8-0.1,0.8-0.1c2.6,0,4.8,2,4.8,4.7c0,1.9-1.4,3.7-3.6,4.8
		c0-0.1,0.9,3.8,0.9,4.3c0,2.5-2.3,4.2-4.9,4.2c-2,0-3.6-1.3-3.6-3.4c0-1.4,1-2.6,2.4-2.6c1.3,0,2.3,1.3,2.3,2.5
		c0,1.4-1.2,2.3-2.7,2.5c0.6,0.3,1.2,0.5,1.9,0.5c2.1,0,4.1-1.6,4.1-3.6c0-0.2,0-0.4-0.1-0.6l-0.8-3.7
		C21.9,29.5,21.2,29.6,20.3,29.6z M18.1,24.4c0,1,0.5,1.9,1.6,2.5c-1.8-0.3-3-1.4-3-3.1c0-2,1.7-3.7,3.8-4.1l-0.8-4
		C16,18.5,14,21.2,14,23.8c0,2.9,2.8,5.3,6,5.3c0.9,0,1.7-0.2,2.4-0.5L21,21.8C19.4,22,18.1,23,18.1,24.4z M22.1,3
		c-1.6,0-2.9,3.7-2.9,7c0,0.7,0,1.3,0.2,1.9c2.7-2.4,4-4.5,4-6.5c0-0.9-0.3-1.7-1-2.4C22.4,3.1,22.3,3,22.1,3z M24.9,24.9
		c0-1.6-1.2-3.3-2.9-3.3c-0.1,0-0.2,0-0.5,0l1.4,6.6C24.2,27.4,24.9,26.2,24.9,24.9z"/>
</g>
<g>
	<path d="M33.5,3.1v2.8l1-0.3v1.8l-1,0.3v3.4l1-0.3v1.8l-1,0.3v3.1H33v-3l-1.9,0.6v3h-0.5v-2.8l-1,0.3v-1.8l1-0.3V8.7l-1,0.3V7.2
		l1-0.3V3.7h0.5v3L33,6.1v-3H33.5z M33,7.9l-1.9,0.6v3.4l1.9-0.6V7.9z"/>
</g>
<polygon fill-rule="evenodd" clip-rule="evenodd" points="49.8,26 98.4,24.8 98.4,22.3 49.8,23.6 "/>
<polygon fill-rule="evenodd" clip-rule="evenodd" points="49.8,22.3 98.4,21.1 98.4,18.6 49.8,19.8 "/>
<polygon fill-rule="evenodd" clip-rule="evenodd" points="114.5,21.1 163,16.1 163,13.6 114.5,18.6 "/>
<polygon fill-rule="evenodd" clip-rule="evenodd" points="114.5,17.4 163,12.4 163,9.9 114.5,14.9 "/>
<polygon fill-rule="evenodd" clip-rule="evenodd" points="179.1,11.2 227.7,6.2 227.7,3.7 179.1,8.7 "/>
<polygon fill-rule="evenodd" clip-rule="evenodd" points="179.1,7.4 227.7,2.5 227.7,0 179.1,5 "/>
<polygon fill-rule="evenodd" clip-rule="evenodd" points="237.3,27.3 285.8,26 285.8,23.6 237.3,24.8 "/>
<polygon fill-rule="evenodd" clip-rule="evenodd" points="237.3,31 285.8,29.8 285.8,27.3 237.3,28.5 "/>
<polygon fill-rule="evenodd" clip-rule="evenodd" points="301.9,31 350.4,36 350.4,33.5 301.9,28.5 "/>
<polygon fill-rule="evenodd" clip-rule="evenodd" points="301.9,34.7 350.4,39.7 350.4,37.2 301.9,32.2 "/>
<polygon fill-rule="evenodd" clip-rule="evenodd" points="373.1,16.1 421.6,21.1 421.6,18.6 373.1,13.6 "/>
<polygon fill-rule="evenodd" clip-rule="evenodd" points="373.1,12.4 421.6,17.4 421.6,14.9 373.1,9.9 "/>
<polygon fill-rule="evenodd" clip-rule="evenodd" points="437.7,24.8 486.2,26 486.2,23.6 437.7,22.3 "/>
<polygon fill-rule="evenodd" clip-rule="evenodd" points="437.7,21.1 486.2,22.3 486.2,19.8 437.7,18.6 "/>
<rect x="8.5" y="76.7" width="544.4" height="0.5"/>
<rect x="8.5" y="71.7" width="544.4" height="0.5"/>
<rect x="8.5" y="66.7" width="544.4" height="0.5"/>
<rect x="8.5" y="61.8" width="544.4" height="0.5"/>
<rect x="8.5" y="56.8" width="544.4" height="0.5"/>
<g>
	<path d="M15.7,71.2c2.9-2.6,4.7-6.1,4.7-9.2c0-2.5-1.4-4.4-3.7-4.4c-1.6,0-3.4,1.3-3.4,2.7c0,0.2,0,0.3,0.1,0.3
		c-0.1,0,0.6-0.6,1.4-0.6c0.9,0,1.5,0.8,1.5,1.7c0,1.2-0.9,2.2-2.1,2.2c-1.2,0-2.1-1.3-2.1-2.8c0-2.3,2.3-4.1,4.8-4.1
		c4.7,0,5.9,3.2,5.9,5.8c0,1.6-0.4,2.9-2,5.3c-1.9,3.1-6.4,5.3-8.1,5.3c-0.4,0-0.6-0.2-0.6-0.5C13.8,72.5,14.9,71.9,15.7,71.2z
		 M25.7,58.5c0.6,0,1,0.4,1,1c0,0.6-0.4,1-1,1s-1-0.4-1-1C24.7,59,25.1,58.5,25.7,58.5z M25.7,63.5c0.6,0,1,0.4,1,1c0,0.6-0.4,1-1,1
		s-1-0.4-1-1C24.7,63.9,25.1,63.5,25.7,63.5z"/>
</g>
<g>
	<path d="M33.5,55.2V58l1-0.3v1.8l-1,0.3v3.4l1-0.3v1.8l-1,0.3v3.1H33v-3l-1.9,0.6v3h-0.5V66l-1,0.3v-1.8l1-0.3v-3.4l-1,0.3v-1.8
		l1-0.3v-3.1h0.5v3l1.9-0.6v-3H33.5z M33,60l-1.9,0.6V64l1.9-0.6V60z"/>
</g>
<polygon fill-rule="evenodd" clip-rule="evenodd" points="49.8,68.2 98.4,63.2 98.4,60.8 49.8,65.7 "/>
<polygon fill-rule="evenodd" clip-rule="evenodd" points="49.8,64.5 98.4,59.5 98.4,57 49.8,62 "/>
<polygon fill-rule="evenodd" clip-rule="evenodd" points="108,83.1 156.5,78.1 156.5,75.6 108,80.6 "/>
<polygon fill-rule="evenodd" clip-rule="evenodd" points="108,86.8 156.5,81.8 156.5,79.4 108,84.3 "/>
<polygon fill-rule="evenodd" clip-rule="evenodd" points="172.6,73.2 221.1,68.2 221.1,65.7 172.6,70.7 "/>
<polygon fill-rule="evenodd" clip-rule="evenodd" points="172.6,76.9 221.1,71.9 221.1,69.4 172.6,74.4 "/>
<polygon fill-rule="evenodd" clip-rule="evenodd" points="237.3,64.5 285.8,63.2 285.8,60.8 237.3,62 "/>
<polygon fill-rule="evenodd" clip-rule="evenodd" points="237.3,68.2 285.8,67 285.8,64.5 237.3,65.7 "/>
<polygon fill-rule="evenodd" clip-rule="evenodd" points="301.9,63.2 350.4,68.2 350.4,65.7 301.9,60.8 "/>
<polygon fill-rule="evenodd" clip-rule="evenodd" points="301.9,67 350.4,71.9 350.4,69.4 301.9,64.5 "/>
<polygon fill-rule="evenodd" clip-rule="evenodd" points="366.5,73.2 415.1,78.1 415.1,75.6 366.5,70.7 "/>
<polygon fill-rule="evenodd" clip-rule="evenodd" points="366.5,76.9 415.1,81.8 415.1,79.4 366.5,74.4 "/>
<polygon fill-rule="evenodd" clip-rule="evenodd" points="437.7,58.3 486.2,63.2 486.2,60.8 437.7,55.8 "/>
<polygon fill-rule="evenodd" clip-rule="evenodd" points="437.7,54.6 486.2,59.5 486.2,57 437.7,52.1 "/>
<rect x="41.3" y="34.3" width="10.5" height="0.8"/>
<rect x="41.3" y="39.3" width="10.5" height="0.8"/>
<rect x="41.3" y="44.3" width="10.5" height="0.8"/>
<rect x="49.6" y="20" width="0.5" height="23.9"/>
<g>
	<path d="M43.2,45.5c0-1.8,2.5-3.5,4.5-3.5c1.3,0,2.3,0.7,2.3,1.7c0,1.7-2.5,3.5-4.6,3.5C44.2,47.2,43.2,46.6,43.2,45.5z"/>
</g>
<rect x="57.4" y="34.3" width="10.5" height="0.8"/>
<rect x="57.4" y="39.3" width="10.5" height="0.8"/>
<rect x="65.7" y="19.7" width="0.5" height="21.7"/>
<g>
	<path d="M59.3,43c0-1.8,2.5-3.5,4.5-3.5c1.3,0,2.3,0.7,2.3,1.7c0,1.7-2.5,3.5-4.6,3.5C60.3,44.7,59.3,44.1,59.3,43z"/>
</g>
<rect x="73.7" y="34.3" width="10.5" height="0.8"/>
<rect x="73.7" y="39.3" width="10.5" height="0.8"/>
<rect x="82" y="19.2" width="0.5" height="19.7"/>
<g>
	<path d="M75.6,40.5c0-1.8,2.5-3.5,4.5-3.5c1.3,0,2.3,0.7,2.3,1.7c0,1.7-2.5,3.5-4.6,3.5C76.6,42.3,75.6,41.6,75.6,40.5z"/>
</g>
<rect x="89.8" y="34.3" width="10.5" height="0.8"/>
<rect x="98.1" y="18.8" width="0.5" height="17.7"/>
<g>
	<path d="M91.7,38.1c0-1.8,2.5-3.5,4.5-3.5c1.3,0,2.3,0.7,2.3,1.7c0,1.7-2.5,3.5-4.6,3.5C92.7,39.8,91.7,39.1,91.7,38.1z"/>
</g>
<rect x="106" y="34.3" width="10.5" height="0.8"/>
<rect x="114.3" y="15" width="0.5" height="18.9"/>
<g>
	<path d="M107.8,35.6c0-1.8,2.5-3.5,4.5-3.5c1.3,0,2.3,0.7,2.3,1.7c0,1.7-2.5,3.5-4.6,3.5C108.8,37.3,107.8,36.7,107.8,35.6z"/>
</g>
<rect x="130.4" y="13.5" width="0.5" height="18"/>
<g>
	<path d="M123.9,33.1c0-1.8,2.5-3.5,4.5-3.5c1.3,0,2.3,0.7,2.3,1.7c0,1.7-2.5,3.5-4.6,3.5C124.9,34.8,123.9,34.2,123.9,33.1z"/>
</g>
<rect x="146.7" y="11.8" width="0.5" height="17.2"/>
<g>
	<path d="M140.2,30.6c0-1.8,2.5-3.5,4.5-3.5c1.3,0,2.3,0.7,2.3,1.7c0,1.7-2.5,3.5-4.6,3.5C141.2,32.3,140.2,31.7,140.2,30.6z"/>
</g>
<rect x="162.8" y="10.1" width="0.5" height="16.4"/>
<g>
	<path d="M156.3,28.1c0-1.8,2.5-3.5,4.5-3.5c1.3,0,2.3,0.7,2.3,1.7c0,1.7-2.5,3.5-4.6,3.5C157.3,29.9,156.3,29.2,156.3,28.1z"/>
</g>
<rect x="178.9" y="5.1" width="0.5" height="18.9"/>
<g>
	<path d="M172.5,25.7c0-1.8,2.5-3.5,4.5-3.5c1.3,0,2.3,0.7,2.3,1.7c0,1.7-2.5,3.5-4.6,3.5C173.4,27.4,172.5,26.7,172.5,25.7z"/>
</g>
<rect x="195" y="3.6" width="0.5" height="18"/>
<g>
	<path d="M188.6,23.2c0-1.8,2.5-3.5,4.5-3.5c1.3,0,2.3,0.7,2.3,1.7c0,1.7-2.5,3.5-4.6,3.5C189.6,24.9,188.6,24.3,188.6,23.2z"/>
</g>
<rect x="211.3" y="1.9" width="0.5" height="17.2"/>
<g>
	<path d="M204.9,20.7c0-1.8,2.5-3.5,4.5-3.5c1.3,0,2.3,0.7,2.3,1.7c0,1.7-2.5,3.5-4.6,3.5C205.8,22.4,204.9,21.8,204.9,20.7z"/>
</g>
<rect x="227.4" y="0.2" width="0.5" height="16.4"/>
<g>
	<path d="M221,18.2c0-1.8,2.5-3.5,4.5-3.5c1.3,0,2.3,0.7,2.3,1.7c0,1.7-2.5,3.5-4.6,3.5C222,19.9,221,19.3,221,18.2z"/>
</g>
<rect x="237" y="15.7" width="0.5" height="15.2"/>
<g>
	<path d="M237.1,15.7c0-1.8,2.5-3.5,4.5-3.5c1.3,0,2.3,0.7,2.3,1.7c0,1.7-2.5,3.5-4.6,3.5C238.1,17.5,237.1,16.8,237.1,15.7z"/>
</g>
<rect x="253.2" y="13.2" width="0.5" height="17.4"/>
<g>
	<path d="M253.2,13.3c0-1.8,2.5-3.5,4.5-3.5c1.3,0,2.3,0.7,2.3,1.7c0,1.7-2.5,3.5-4.6,3.5C254.2,15,253.2,14.3,253.2,13.3z"/>
</g>
<rect x="269.4" y="10.7" width="0.5" height="19.4"/>
<g>
	<path d="M269.5,10.8c0-1.8,2.5-3.5,4.5-3.5c1.3,0,2.3,0.7,2.3,1.7c0,1.7-2.5,3.5-4.6,3.5C270.5,12.5,269.5,11.9,269.5,10.8z"/>
</g>
<rect x="285.5" y="13.2" width="0.5" height="16.4"/>
<g>
	<path d="M285.6,13.3c0-1.8,2.5-3.5,4.5-3.5c1.3,0,2.3,0.7,2.3,1.7c0,1.7-2.5,3.5-4.6,3.5C286.6,15,285.6,14.3,285.6,13.3z"/>
</g>
<rect x="301.7" y="15.7" width="0.5" height="18.9"/>
<g>
	<path d="M301.7,15.7c0-1.8,2.5-3.5,4.5-3.5c1.3,0,2.3,0.7,2.3,1.7c0,1.7-2.5,3.5-4.6,3.5C302.7,17.5,301.7,16.8,301.7,15.7z"/>
</g>
<rect x="317.9" y="18.1" width="0.5" height="18"/>
<g>
	<path d="M318,18.2c0-1.8,2.5-3.5,4.5-3.5c1.3,0,2.3,0.7,2.3,1.7c0,1.7-2.5,3.5-4.6,3.5C319,19.9,318,19.3,318,18.2z"/>
</g>
<rect x="334.1" y="20.6" width="0.5" height="17.2"/>
<g>
	<path d="M334.1,20.7c0-1.8,2.5-3.5,4.5-3.5c1.3,0,2.3,0.7,2.3,1.7c0,1.7-2.5,3.5-4.6,3.5C335.1,22.4,334.1,21.8,334.1,20.7z"/>
</g>
<rect x="350.2" y="23.1" width="0.5" height="16.4"/>
<g>
	<path d="M350.3,23.2c0-1.8,2.5-3.5,4.5-3.5c1.3,0,2.3,0.7,2.3,1.7c0,1.7-2.5,3.5-4.6,3.5C351.2,24.9,350.3,24.3,350.3,23.2z"/>
</g>
<rect x="372.8" y="10.1" width="0.5" height="14"/>
<g>
	<path d="M366.4,25.7c0-1.8,2.5-3.5,4.5-3.5c1.3,0,2.3,0.7,2.3,1.7c0,1.7-2.5,3.5-4.6,3.5C367.4,27.4,366.4,26.7,366.4,25.7z"/>
</g>
<rect x="389.1" y="11.6" width="0.5" height="14.9"/>
<g>
	<path d="M382.7,28.1c0-1.8,2.5-3.5,4.5-3.5c1.3,0,2.3,0.7,2.3,1.7c0,1.7-2.5,3.5-4.6,3.5C383.6,29.9,382.7,29.2,382.7,28.1z"/>
</g>
<rect x="405.2" y="13.3" width="0.5" height="15.7"/>
<g>
	<path d="M398.8,30.6c0-1.8,2.5-3.5,4.5-3.5c1.3,0,2.3,0.7,2.3,1.7c0,1.7-2.5,3.5-4.6,3.5C399.8,32.3,398.8,31.7,398.8,30.6z"/>
</g>
<rect x="421.3" y="15" width="0.5" height="16.4"/>
<g>
	<path d="M414.9,33.1c0-1.8,2.5-3.5,4.5-3.5c1.3,0,2.3,0.7,2.3,1.7c0,1.7-2.5,3.5-4.6,3.5C415.9,34.8,414.9,34.2,414.9,33.1z"/>
</g>
<rect x="429.2" y="34.3" width="10.5" height="0.8"/>
<rect x="437.5" y="18.8" width="0.5" height="15.2"/>
<g>
	<path d="M431,35.6c0-1.8,2.5-3.5,4.5-3.5c1.3,0,2.3,0.7,2.3,1.7c0,1.7-2.5,3.5-4.6,3.5C432,37.3,431,36.7,431,35.6z"/>
</g>
<rect x="445.4" y="34.3" width="10.5" height="0.8"/>
<rect x="453.7" y="19.1" width="0.5" height="17.4"/>
<g>
	<path d="M447.3,38.1c0-1.8,2.5-3.5,4.5-3.5c1.3,0,2.3,0.7,2.3,1.7c0,1.7-2.5,3.5-4.6,3.5C448.3,39.8,447.3,39.1,447.3,38.1z"/>
</g>
<rect x="461.6" y="34.3" width="10.5" height="0.8"/>
<rect x="461.6" y="39.3" width="10.5" height="0.8"/>
<rect x="469.9" y="19.5" width="0.5" height="19.4"/>
<g>
	<path d="M463.4,40.5c0-1.8,2.5-3.5,4.5-3.5c1.3,0,2.3,0.7,2.3,1.7c0,1.7-2.5,3.5-4.6,3.5C464.4,42.3,463.4,41.6,463.4,40.5z"/>
</g>
<rect x="477.7" y="34.3" width="10.5" height="0.8"/>
<rect x="477.7" y="39.3" width="10.5" height="0.8"/>
<rect x="486" y="20" width="0.5" height="21.4"/>
<g>
	<path d="M479.6,43c0-1.8,2.5-3.5,4.5-3.5c1.3,0,2.3,0.7,2.3,1.7c0,1.7-2.5,3.5-4.6,3.5C480.5,44.7,479.6,44.1,479.6,43z"/>
</g>
<rect x="493.8" y="34.3" width="10.7" height="0.8"/>
<rect x="493.8" y="39.3" width="10.7" height="0.8"/>
<rect x="493.8" y="44.3" width="10.7" height="0.8"/>
<rect x="502.3" y="19.8" width="0.5" height="24"/>
<g>
	<path d="M499.9,41.9c1.6,0,2.7,0.7,2.7,2c0,1.9-2.3,3.4-4.5,3.4c-1.3,0-2.4-0.7-2.4-1.8C495.7,43.7,497.9,41.9,499.9,41.9z
		 M496.1,45.8c0,0.6,0.4,0.9,1.1,0.9c1.4,0,4.9-2.1,4.9-3.3c0-0.6-0.4-0.9-1.1-0.9C499.8,42.5,496.1,44.6,496.1,45.8z"/>
</g>
<rect x="49.6" y="62.2" width="0.5" height="16.4"/>
<g>
	<path d="M43.2,80.2c0-1.8,2.5-3.5,4.5-3.5c1.3,0,2.3,0.7,2.3,1.7c0,1.7-2.5,3.5-4.6,3.5C44.2,81.9,43.2,81.3,43.2,80.2z"/>
</g>
<rect x="65.7" y="60.6" width="0.5" height="15.5"/>
<g>
	<path d="M59.3,77.7c0-1.8,2.5-3.5,4.5-3.5c1.3,0,2.3,0.7,2.3,1.7c0,1.7-2.5,3.5-4.6,3.5C60.3,79.5,59.3,78.8,59.3,77.7z"/>
</g>
<rect x="82" y="58.9" width="0.5" height="14.7"/>
<g>
	<path d="M75.6,75.3c0-1.8,2.5-3.5,4.5-3.5c1.3,0,2.3,0.7,2.3,1.7c0,1.7-2.5,3.5-4.6,3.5C76.6,77,75.6,76.3,75.6,75.3z"/>
</g>
<rect x="98.1" y="57.2" width="0.5" height="14"/>
<g>
	<path d="M91.7,72.8c0-1.8,2.5-3.5,4.5-3.5c1.3,0,2.3,0.7,2.3,1.7c0,1.7-2.5,3.5-4.6,3.5C92.7,74.5,91.7,73.9,91.7,72.8z"/>
</g>
<rect x="107.7" y="70.2" width="0.5" height="16.4"/>
<g>
	<path d="M107.8,70.3c0-1.8,2.5-3.5,4.5-3.5c1.3,0,2.3,0.7,2.3,1.7c0,1.7-2.5,3.5-4.6,3.5C108.8,72,107.8,71.4,107.8,70.3z"/>
</g>
<rect x="123.9" y="67.7" width="0.5" height="17.4"/>
<g>
	<path d="M123.9,67.8c0-1.8,2.5-3.5,4.5-3.5c1.3,0,2.3,0.7,2.3,1.7c0,1.7-2.5,3.5-4.6,3.5C124.9,69.5,123.9,68.9,123.9,67.8z"/>
</g>
<rect x="140.1" y="65.3" width="0.5" height="18.1"/>
<g>
	<path d="M140.2,65.3c0-1.8,2.5-3.5,4.5-3.5c1.3,0,2.3,0.7,2.3,1.7c0,1.7-2.5,3.5-4.6,3.5C141.2,67.1,140.2,66.4,140.2,65.3z"/>
</g>
<rect x="156.3" y="62.8" width="0.5" height="18.9"/>
<g>
	<path d="M156.3,62.9c0-1.8,2.5-3.5,4.5-3.5c1.3,0,2.3,0.7,2.3,1.7c0,1.7-2.5,3.5-4.6,3.5C157.3,64.6,156.3,63.9,156.3,62.9z"/>
</g>
<rect x="172.4" y="60.3" width="0.5" height="16.4"/>
<g>
	<path d="M172.5,60.4c0-1.8,2.5-3.5,4.5-3.5c1.3,0,2.3,0.7,2.3,1.7c0,1.7-2.5,3.5-4.6,3.5C173.4,62.1,172.5,61.5,172.5,60.4z"/>
</g>
<rect x="188.5" y="57.8" width="0.5" height="17.4"/>
<g>
	<path d="M188.6,57.9c0-1.8,2.5-3.5,4.5-3.5c1.3,0,2.3,0.7,2.3,1.7c0,1.7-2.5,3.5-4.6,3.5C189.6,59.6,188.6,59,188.6,57.9z"/>
</g>
<rect x="204.8" y="55.3" width="0.5" height="18.1"/>
<g>
	<path d="M204.9,55.4c0-1.8,2.5-3.5,4.5-3.5c1.3,0,2.3,0.7,2.3,1.7c0,1.7-2.5,3.5-4.6,3.5C205.8,57.1,204.9,56.5,204.9,55.4z"/>
</g>
<rect x="219.1" y="51.7" width="10.5" height="0.8"/>
<rect x="220.9" y="52.9" width="0.5" height="18.9"/>
<g>
	<path d="M221,52.9c0-1.8,2.5-3.5,4.5-3.5c1.3,0,2.3,0.7,2.3,1.7c0,1.7-2.5,3.5-4.6,3.5C222,54.7,221,54,221,52.9z"/>
</g>
<rect x="235.2" y="51.7" width="10.5" height="0.8"/>
<rect x="237" y="50.4" width="0.5" height="17.7"/>
<g>
	<path d="M237.1,50.5c0-1.8,2.5-3.5,4.5-3.5c1.3,0,2.3,0.7,2.3,1.7c0,1.7-2.5,3.5-4.6,3.5C238.1,52.2,237.1,51.5,237.1,50.5z"/>
</g>
<rect x="251.4" y="51.7" width="10.5" height="0.8"/>
<rect x="251.4" y="46.7" width="10.5" height="0.8"/>
<rect x="253.2" y="47.9" width="0.5" height="19.8"/>
<g>
	<path d="M253.2,48c0-1.8,2.5-3.5,4.5-3.5c1.3,0,2.3,0.7,2.3,1.7c0,1.7-2.5,3.5-4.6,3.5C254.2,49.7,253.2,49.1,253.2,48z"/>
</g>
<rect x="267.6" y="51.7" width="10.5" height="0.8"/>
<rect x="267.6" y="46.7" width="10.5" height="0.8"/>
<rect x="269.4" y="45.4" width="0.5" height="21.9"/>
<g>
	<path d="M269.5,45.5c0-1.8,2.5-3.5,4.5-3.5c1.3,0,2.3,0.7,2.3,1.7c0,1.7-2.5,3.5-4.6,3.5C270.5,47.2,269.5,46.6,269.5,45.5z"/>
</g>
<rect x="283.8" y="51.7" width="10.5" height="0.8"/>
<rect x="283.8" y="46.7" width="10.5" height="0.8"/>
<rect x="285.5" y="47.9" width="0.5" height="18.9"/>
<g>
	<path d="M285.6,48c0-1.8,2.5-3.5,4.5-3.5c1.3,0,2.3,0.7,2.3,1.7c0,1.7-2.5,3.5-4.6,3.5C286.6,49.7,285.6,49.1,285.6,48z"/>
</g>
<rect x="299.9" y="51.7" width="10.5" height="0.8"/>
<rect x="301.7" y="50.4" width="0.5" height="16.4"/>
<g>
	<path d="M301.7,50.5c0-1.8,2.5-3.5,4.5-3.5c1.3,0,2.3,0.7,2.3,1.7c0,1.7-2.5,3.5-4.6,3.5C302.7,52.2,301.7,51.5,301.7,50.5z"/>
</g>
<rect x="316.2" y="51.7" width="10.5" height="0.8"/>
<rect x="317.9" y="52.9" width="0.5" height="15.5"/>
<g>
	<path d="M318,52.9c0-1.8,2.5-3.5,4.5-3.5c1.3,0,2.3,0.7,2.3,1.7c0,1.7-2.5,3.5-4.6,3.5C319,54.7,318,54,318,52.9z"/>
</g>
<rect x="334.1" y="55.3" width="0.5" height="14.7"/>
<g>
	<path d="M334.1,55.4c0-1.8,2.5-3.5,4.5-3.5c1.3,0,2.3,0.7,2.3,1.7c0,1.7-2.5,3.5-4.6,3.5C335.1,57.1,334.1,56.5,334.1,55.4z"/>
</g>
<rect x="350.2" y="57.8" width="0.5" height="14"/>
<g>
	<path d="M350.3,57.9c0-1.8,2.5-3.5,4.5-3.5c1.3,0,2.3,0.7,2.3,1.7c0,1.7-2.5,3.5-4.6,3.5C351.2,59.6,350.3,59,350.3,57.9z"/>
</g>
<rect x="366.3" y="60.3" width="0.5" height="16.4"/>
<g>
	<path d="M366.4,60.4c0-1.8,2.5-3.5,4.5-3.5c1.3,0,2.3,0.7,2.3,1.7c0,1.7-2.5,3.5-4.6,3.5C367.4,62.1,366.4,61.5,366.4,60.4z"/>
</g>
<rect x="382.6" y="62.8" width="0.5" height="15.5"/>
<g>
	<path d="M382.7,62.9c0-1.8,2.5-3.5,4.5-3.5c1.3,0,2.3,0.7,2.3,1.7c0,1.7-2.5,3.5-4.6,3.5C383.6,64.6,382.7,63.9,382.7,62.9z"/>
</g>
<rect x="398.7" y="65.3" width="0.5" height="14.7"/>
<g>
	<path d="M398.8,65.3c0-1.8,2.5-3.5,4.5-3.5c1.3,0,2.3,0.7,2.3,1.7c0,1.7-2.5,3.5-4.6,3.5C399.8,67.1,398.8,66.4,398.8,65.3z"/>
</g>
<rect x="414.8" y="67.7" width="0.5" height="14"/>
<g>
	<path d="M414.9,67.8c0-1.8,2.5-3.5,4.5-3.5c1.3,0,2.3,0.7,2.3,1.7c0,1.7-2.5,3.5-4.6,3.5C415.9,69.5,414.9,68.9,414.9,67.8z"/>
</g>
<rect x="437.5" y="52.2" width="0.5" height="16.4"/>
<g>
	<path d="M431,70.3c0-1.8,2.5-3.5,4.5-3.5c1.3,0,2.3,0.7,2.3,1.7c0,1.7-2.5,3.5-4.6,3.5C432,72,431,71.4,431,70.3z"/>
</g>
<rect x="453.7" y="53.8" width="0.5" height="17.4"/>
<g>
	<path d="M447.3,72.8c0-1.8,2.5-3.5,4.5-3.5c1.3,0,2.3,0.7,2.3,1.7c0,1.7-2.5,3.5-4.6,3.5C448.3,74.5,447.3,73.9,447.3,72.8z"/>
</g>
<rect x="469.9" y="55.5" width="0.5" height="18.1"/>
<g>
	<path d="M463.4,75.3c0-1.8,2.5-3.5,4.5-3.5c1.3,0,2.3,0.7,2.3,1.7c0,1.7-2.5,3.5-4.6,3.5C464.4,77,463.4,76.3,463.4,75.3z"/>
</g>
<rect x="486" y="57.2" width="0.5" height="18.9"/>
<g>
	<path d="M479.6,77.7c0-1.8,2.5-3.5,4.5-3.5c1.3,0,2.3,0.7,2.3,1.7c0,1.7-2.5,3.5-4.6,3.5C480.5,79.5,479.6,78.8,479.6,77.7z"/>
</g>
<rect x="502.3" y="62" width="0.5" height="16.6"/>
<g>
	<path d="M499.9,76.7c1.6,0,2.7,0.7,2.7,2c0,1.9-2.3,3.4-4.5,3.4c-1.3,0-2.4-0.7-2.4-1.8C495.7,78.5,497.9,76.7,499.9,76.7z
		 M496.1,80.5c0,0.6,0.4,0.9,1.1,0.9c1.4,0,4.9-2.1,4.9-3.3c0-0.6-0.4-0.9-1.1-0.9C499.8,77.3,496.1,79.3,496.1,80.5z"/>
</g>
</svg>
