<?xml version="1.0" encoding="utf-8"?>

<!--
	ScaleBook
	Copyright (c) Leland Jansen 2015. All rights reserved.
-->

<!DOCTYPE svg PUBLIC "-//W3C//DTD SVG 1.1//EN" "http://www.w3.org/Graphics/SVG/1.1/DTD/svg11.dtd">
<svg version="1.1" id="Layer_1" xmlns="http://www.w3.org/2000/svg" xmlns:xlink="http://www.w3.org/1999/xlink" x="0px" y="0px"
	 viewBox="0 0 552.9 81.6" enable-background="new 0 0 552.9 81.6" xml:space="preserve">
<rect x="8.4" y="9.7" width="0.8" height="67"/>
<g>
	<path d="M7.4,10.4c-1.9,1.1-3.6,5.8-3.6,9.4c0,2.3,1.4,9.9,1.4,12.3c0,5-1.5,8.6-4.6,11.1c3,2.4,4.6,6.1,4.6,11.1
		c0,2.3-1.4,9.9-1.4,12.3c0,3.8,1.7,8.4,3.6,9.5v0.7c-3.5-2.3-5.8-8.2-5.8-13.1c0-2.1,1.7-9.4,1.7-11.5c0-3.8-1-6.6-2.9-8.2
		C0.1,43.6,0,43.4,0,43.2c0-0.2,0.1-0.4,0.5-0.7c1.9-1.7,2.9-4.2,2.9-7.6c0-2.1-1.7-10-1.7-12.2c0-5.2,2.1-10.4,5.8-13.1V10.4z"/>
</g>
<rect x="547.8" y="9.7" width="0.8" height="67"/>
<rect x="550.4" y="9.7" width="2.5" height="67"/>
<rect x="8.5" y="29.3" width="544.4" height="0.5"/>
<rect x="8.5" y="24.4" width="544.4" height="0.5"/>
<rect x="8.5" y="19.4" width="544.4" height="0.5"/>
<rect x="8.5" y="14.4" width="544.4" height="0.5"/>
<rect x="8.5" y="9.5" width="544.4" height="0.5"/>
<g>
	<path d="M20.3,29.4c-4.2,0-8.1-3.1-8.1-6.9c0-3.2,2.3-6.7,6.8-10.5c-0.3-1.2-0.4-2.4-0.4-3.6c0-3.5,1.2-6.8,3.2-8.5
		c1.8,2.5,2.7,4.9,2.7,7.1c0,2.9-1.3,5.6-4.3,8.1l0.9,4.2c0.5,0,0.8-0.1,0.8-0.1c2.6,0,4.8,2,4.8,4.7c0,1.9-1.4,3.7-3.6,4.8
		c0-0.1,0.9,3.8,0.9,4.3c0,2.5-2.3,4.2-4.9,4.2c-2,0-3.6-1.3-3.6-3.4c0-1.4,1-2.6,2.4-2.6c1.3,0,2.3,1.3,2.3,2.5
		c0,1.4-1.2,2.3-2.7,2.5c0.6,0.3,1.2,0.5,1.9,0.5c2.1,0,4.1-1.6,4.1-3.6c0-0.2,0-0.4-0.1-0.6l-0.8-3.7
		C21.9,29.3,21.2,29.4,20.3,29.4z M18.1,24.2c0,1,0.5,1.9,1.6,2.5c-1.8-0.3-3-1.4-3-3.1c0-2,1.7-3.7,3.8-4.1l-0.8-4
		C16,18.3,14,21,14,23.6c0,2.9,2.8,5.3,6,5.3c0.9,0,1.7-0.2,2.4-0.5L21,21.6C19.4,21.8,18.1,22.8,18.1,24.2z M22.1,2.8
		c-1.6,0-2.9,3.7-2.9,7c0,0.7,0,1.3,0.2,1.9c2.7-2.4,4-4.5,4-6.5c0-0.9-0.3-1.7-1-2.4C22.4,2.9,22.3,2.8,22.1,2.8z M24.9,24.7
		c0-1.6-1.2-3.3-2.9-3.3c-0.1,0-0.2,0-0.5,0l1.4,6.6C24.2,27.2,24.9,26,24.9,24.7z"/>
</g>
<g>
	<path d="M29.5,11.3h0.6L30,17.6c0.4-0.7,1-1,1.8-1c1.2,0,2.2,0.8,2.2,1.9c0,0.8-0.5,1.8-1.7,2.7l-2.8,2.1V11.3z M30.1,18.2
		C30,19,30,19.6,30,20.2c0,1,0,1.6,0.1,2c1-0.7,2.4-2.6,2.4-3.7c0-0.6-0.5-1.1-1.1-1.1C30.8,17.4,30.4,17.7,30.1,18.2z"/>
</g>
<g>
	<path d="M35.1,3.9h0.6l-0.1,6.2c0.4-0.7,1-1,1.8-1c1.2,0,2.2,0.8,2.2,1.9c0,0.8-0.5,1.8-1.7,2.7l-2.8,2.1V3.9z M35.7,10.8
		c-0.1,0.8-0.1,1.4-0.1,1.9c0,1,0,1.6,0.1,2c1-0.7,2.4-2.6,2.4-3.7c0-0.6-0.5-1.1-1.1-1.1C36.4,10,36,10.2,35.7,10.8z"/>
</g>
<g>
	<path d="M40.7,13.8h0.6l-0.1,6.2c0.4-0.7,1-1,1.8-1c1.2,0,2.2,0.8,2.2,1.9c0,0.8-0.5,1.8-1.7,2.7l-2.8,2.1V13.8z M41.3,20.7
		c-0.1,0.8-0.1,1.4-0.1,1.9c0,1,0,1.6,0.1,2c1-0.7,2.4-2.6,2.4-3.7c0-0.6-0.5-1.1-1.1-1.1C42,19.9,41.6,20.2,41.3,20.7z"/>
</g>
<g>
	<path d="M46.3,6.4h0.6l-0.1,6.2c0.4-0.7,1-1,1.8-1c1.2,0,2.2,0.8,2.2,1.9c0,0.8-0.5,1.8-1.7,2.7l-2.8,2.1V6.4z M46.9,13.3
		c-0.1,0.8-0.1,1.4-0.1,1.9c0,1,0,1.6,0.1,2c1-0.7,2.4-2.6,2.4-3.7c0-0.6-0.5-1.1-1.1-1.1C47.6,12.4,47.2,12.7,46.9,13.3z"/>
</g>
<polygon fill-rule="evenodd" clip-rule="evenodd" points="66,25.8 112.9,24.6 112.9,22.1 66,23.4 "/>
<polygon fill-rule="evenodd" clip-rule="evenodd" points="66,22.1 112.9,20.9 112.9,18.4 66,19.6 "/>
<polygon fill-rule="evenodd" clip-rule="evenodd" points="128.6,20.9 175.4,15.9 175.4,13.4 128.6,18.4 "/>
<polygon fill-rule="evenodd" clip-rule="evenodd" points="128.6,17.2 175.4,12.2 175.4,9.7 128.6,14.7 "/>
<polygon fill-rule="evenodd" clip-rule="evenodd" points="184.6,35.8 231.5,30.8 231.5,28.3 184.6,33.3 "/>
<polygon fill-rule="evenodd" clip-rule="evenodd" points="184.6,39.5 231.5,34.5 231.5,32 184.6,37 "/>
<polygon fill-rule="evenodd" clip-rule="evenodd" points="247.2,27.1 294.2,25.8 294.2,23.4 247.2,24.6 "/>
<polygon fill-rule="evenodd" clip-rule="evenodd" points="247.2,30.8 294.2,29.6 294.2,27.1 247.2,28.3 "/>
<polygon fill-rule="evenodd" clip-rule="evenodd" points="309.8,25.8 356.6,30.8 356.6,28.3 309.8,23.4 "/>
<polygon fill-rule="evenodd" clip-rule="evenodd" points="309.8,29.6 356.6,34.5 356.6,32 309.8,27.1 "/>
<polygon fill-rule="evenodd" clip-rule="evenodd" points="378.8,11 425.8,15.9 425.8,13.4 378.8,8.5 "/>
<polygon fill-rule="evenodd" clip-rule="evenodd" points="378.8,7.2 425.8,12.2 425.8,9.7 378.8,4.8 "/>
<polygon fill-rule="evenodd" clip-rule="evenodd" points="441.4,20.9 488.4,25.8 488.4,23.4 441.4,18.4 "/>
<polygon fill-rule="evenodd" clip-rule="evenodd" points="441.4,17.2 488.4,22.1 488.4,19.6 441.4,14.7 "/>
<rect x="8.5" y="76.4" width="544.4" height="0.5"/>
<rect x="8.5" y="71.5" width="544.4" height="0.5"/>
<rect x="8.5" y="66.5" width="544.4" height="0.5"/>
<rect x="8.5" y="61.6" width="544.4" height="0.5"/>
<rect x="8.5" y="56.6" width="544.4" height="0.5"/>
<g>
	<path d="M15.7,71c2.9-2.6,4.7-6.1,4.7-9.2c0-2.5-1.4-4.4-3.7-4.4c-1.6,0-3.4,1.3-3.4,2.7c0,0.2,0,0.3,0.1,0.3
		c-0.1,0,0.6-0.6,1.4-0.6c0.9,0,1.5,0.8,1.5,1.7c0,1.2-0.9,2.2-2.1,2.2c-1.2,0-2.1-1.3-2.1-2.8c0-2.3,2.3-4.1,4.8-4.1
		c4.7,0,5.9,3.2,5.9,5.8c0,1.6-0.4,2.9-2,5.3c-1.9,3.1-6.4,5.3-8.1,5.3c-0.4,0-0.6-0.2-0.6-0.5C13.8,72.3,14.9,71.7,15.7,71z
		 M25.7,58.3c0.6,0,1,0.4,1,1c0,0.6-0.4,1-1,1s-1-0.4-1-1C24.7,58.8,25.1,58.3,25.7,58.3z M25.7,63.3c0.6,0,1,0.4,1,1
		c0,0.6-0.4,1-1,1s-1-0.4-1-1C24.7,63.7,25.1,63.3,25.7,63.3z"/>
</g>
<g>
	<path d="M29.5,63.4h0.6L30,69.7c0.4-0.7,1-1,1.8-1c1.2,0,2.2,0.8,2.2,1.9c0,0.8-0.5,1.8-1.7,2.7l-2.8,2.1V63.4z M30.1,70.3
		C30,71.1,30,71.7,30,72.3c0,1,0,1.6,0.1,2c1-0.7,2.4-2.6,2.4-3.7c0-0.6-0.5-1.1-1.1-1.1C30.8,69.5,30.4,69.8,30.1,70.3z"/>
</g>
<g>
	<path d="M35.1,56h0.6l-0.1,6.2c0.4-0.7,1-1,1.8-1c1.2,0,2.2,0.8,2.2,1.9c0,0.8-0.5,1.8-1.7,2.7l-2.8,2.1V56z M35.7,62.9
		c-0.1,0.8-0.1,1.4-0.1,1.9c0,1,0,1.6,0.1,2c1-0.7,2.4-2.6,2.4-3.7c0-0.6-0.5-1.1-1.1-1.1C36.4,62,36,62.3,35.7,62.9z"/>
</g>
<g>
	<path d="M40.7,65.9h0.6l-0.1,6.2c0.4-0.7,1-1,1.8-1c1.2,0,2.2,0.8,2.2,1.9c0,0.8-0.5,1.8-1.7,2.7l-2.8,2.1V65.9z M41.3,72.8
		c-0.1,0.8-0.1,1.4-0.1,1.9c0,1,0,1.6,0.1,2c1-0.7,2.4-2.6,2.4-3.7c0-0.6-0.5-1.1-1.1-1.1C42,72,41.6,72.2,41.3,72.8z"/>
</g>
<g>
	<path d="M46.3,58.4h0.6l-0.1,6.2c0.4-0.7,1-1,1.8-1c1.2,0,2.2,0.8,2.2,1.9c0,0.8-0.5,1.8-1.7,2.7l-2.8,2.1V58.4z M46.9,65.4
		c-0.1,0.8-0.1,1.4-0.1,1.9c0,1,0,1.6,0.1,2c1-0.7,2.4-2.6,2.4-3.7c0-0.6-0.5-1.1-1.1-1.1C47.6,64.5,47.2,64.8,46.9,65.4z"/>
</g>
<polygon fill-rule="evenodd" clip-rule="evenodd" points="66,63 112.9,58.1 112.9,55.6 66,60.6 "/>
<polygon fill-rule="evenodd" clip-rule="evenodd" points="66,59.3 112.9,54.4 112.9,51.9 66,56.8 "/>
<polygon fill-rule="evenodd" clip-rule="evenodd" points="122.1,77.9 168.9,73 168.9,70.5 122.1,75.4 "/>
<polygon fill-rule="evenodd" clip-rule="evenodd" points="122.1,81.6 168.9,76.7 168.9,74.2 122.1,79.2 "/>
<polygon fill-rule="evenodd" clip-rule="evenodd" points="184.6,68 231.5,63 231.5,60.6 184.6,65.5 "/>
<polygon fill-rule="evenodd" clip-rule="evenodd" points="184.6,71.7 231.5,66.8 231.5,64.3 184.6,69.2 "/>
<polygon fill-rule="evenodd" clip-rule="evenodd" points="247.2,64.3 294.2,63 294.2,60.6 247.2,61.8 "/>
<polygon fill-rule="evenodd" clip-rule="evenodd" points="247.2,68 294.2,66.8 294.2,64.3 247.2,65.5 "/>
<polygon fill-rule="evenodd" clip-rule="evenodd" points="309.8,63 356.6,68 356.6,65.5 309.8,60.6 "/>
<polygon fill-rule="evenodd" clip-rule="evenodd" points="309.8,66.8 356.6,71.7 356.6,69.2 309.8,64.3 "/>
<polygon fill-rule="evenodd" clip-rule="evenodd" points="372.3,73 419.2,77.9 419.2,75.4 372.3,70.5 "/>
<polygon fill-rule="evenodd" clip-rule="evenodd" points="372.3,76.7 419.2,81.6 419.2,79.2 372.3,74.2 "/>
<polygon fill-rule="evenodd" clip-rule="evenodd" points="441.4,58.1 488.4,63 488.4,60.6 441.4,55.6 "/>
<polygon fill-rule="evenodd" clip-rule="evenodd" points="441.4,54.4 488.4,59.3 488.4,56.8 441.4,51.9 "/>
<rect x="57.4" y="34.1" width="10.5" height="0.8"/>
<rect x="57.4" y="39.1" width="10.5" height="0.8"/>
<rect x="65.7" y="19.8" width="0.5" height="21.4"/>
<g>
	<path d="M59.3,42.8c0-1.8,2.5-3.5,4.5-3.5c1.3,0,2.3,0.7,2.3,1.7c0,1.7-2.5,3.5-4.6,3.5C60.3,44.5,59.3,43.9,59.3,42.8z"/>
</g>
<rect x="73.1" y="34.1" width="10.5" height="0.8"/>
<rect x="73.1" y="39.1" width="10.5" height="0.8"/>
<rect x="81.4" y="19.5" width="0.5" height="19.2"/>
<g>
	<path d="M75,40.3c0-1.8,2.5-3.5,4.5-3.5c1.3,0,2.3,0.7,2.3,1.7c0,1.7-2.5,3.5-4.6,3.5C75.9,42.1,75,41.4,75,40.3z"/>
</g>
<rect x="88.8" y="34.1" width="10.5" height="0.8"/>
<rect x="97.1" y="19" width="0.5" height="17.2"/>
<g>
	<path d="M90.6,37.9c0-1.8,2.5-3.5,4.5-3.5c1.3,0,2.3,0.7,2.3,1.7c0,1.7-2.5,3.5-4.6,3.5C91.6,39.6,90.6,38.9,90.6,37.9z"/>
</g>
<rect x="104.4" y="34.1" width="10.5" height="0.8"/>
<rect x="112.7" y="18.6" width="0.5" height="15.2"/>
<g>
	<path d="M106.3,35.4c0-1.8,2.5-3.5,4.5-3.5c1.3,0,2.3,0.7,2.3,1.7c0,1.7-2.5,3.5-4.6,3.5C107.2,37.1,106.3,36.5,106.3,35.4z"/>
</g>
<rect x="128.4" y="14.8" width="0.5" height="16.4"/>
<g>
	<path d="M121.9,32.9c0-1.8,2.5-3.5,4.5-3.5c1.3,0,2.3,0.7,2.3,1.7c0,1.7-2.5,3.5-4.6,3.5C122.9,34.6,121.9,34,121.9,32.9z"/>
</g>
<rect x="144" y="13.3" width="0.5" height="15.5"/>
<g>
	<path d="M137.6,30.4c0-1.8,2.5-3.5,4.5-3.5c1.3,0,2.3,0.7,2.3,1.7c0,1.7-2.5,3.5-4.6,3.5C138.6,32.1,137.6,31.5,137.6,30.4z"/>
</g>
<rect x="159.7" y="11.6" width="0.5" height="14.7"/>
<g>
	<path d="M153.2,27.9c0-1.8,2.5-3.5,4.5-3.5c1.3,0,2.3,0.7,2.3,1.7c0,1.7-2.5,3.5-4.6,3.5C154.2,29.7,153.2,29,153.2,27.9z"/>
</g>
<rect x="175.2" y="9.9" width="0.5" height="14"/>
<g>
	<path d="M168.7,25.5c0-1.8,2.5-3.5,4.5-3.5c1.3,0,2.3,0.7,2.3,1.7c0,1.7-2.5,3.5-4.6,3.5C169.7,27.2,168.7,26.5,168.7,25.5z"/>
</g>
<rect x="184.3" y="22.9" width="0.5" height="16.4"/>
<g>
	<path d="M184.4,23c0-1.8,2.5-3.5,4.5-3.5c1.3,0,2.3,0.7,2.3,1.7c0,1.7-2.5,3.5-4.6,3.5C185.4,24.7,184.4,24.1,184.4,23z"/>
</g>
<rect x="200" y="20.4" width="0.5" height="17.4"/>
<g>
	<path d="M200.1,20.5c0-1.8,2.5-3.5,4.5-3.5c1.3,0,2.3,0.7,2.3,1.7c0,1.7-2.5,3.5-4.6,3.5C201,22.2,200.1,21.6,200.1,20.5z"/>
</g>
<rect x="215.6" y="17.9" width="0.5" height="18.1"/>
<g>
	<path d="M215.7,18c0-1.8,2.5-3.5,4.5-3.5c1.3,0,2.3,0.7,2.3,1.7c0,1.7-2.5,3.5-4.6,3.5C216.7,19.7,215.7,19.1,215.7,18z"/>
</g>
<rect x="231.3" y="15.5" width="0.5" height="18.9"/>
<g>
	<path d="M231.4,15.5c0-1.8,2.5-3.5,4.5-3.5c1.3,0,2.3,0.7,2.3,1.7c0,1.7-2.5,3.5-4.6,3.5C232.3,17.3,231.4,16.6,231.4,15.5z"/>
</g>
<rect x="247" y="13" width="0.5" height="17.7"/>
<g>
	<path d="M247,13c0-1.8,2.5-3.5,4.5-3.5c1.3,0,2.3,0.7,2.3,1.7c0,1.7-2.5,3.5-4.6,3.5C248,14.8,247,14.1,247,13z"/>
</g>
<rect x="262.6" y="10.5" width="0.5" height="19.8"/>
<g>
	<path d="M262.7,10.6c0-1.8,2.5-3.5,4.5-3.5c1.3,0,2.3,0.7,2.3,1.7c0,1.7-2.5,3.5-4.6,3.5C263.7,12.3,262.7,11.7,262.7,10.6z"/>
</g>
<rect x="278.3" y="8" width="0.5" height="21.9"/>
<g>
	<path d="M278.3,8.1c0-1.8,2.5-3.5,4.5-3.5c1.3,0,2.3,0.7,2.3,1.7c0,1.7-2.5,3.5-4.6,3.5C279.3,9.8,278.3,9.2,278.3,8.1z"/>
</g>
<rect x="293.9" y="10.5" width="0.5" height="18.9"/>
<g>
	<path d="M294,10.6c0-1.8,2.5-3.5,4.5-3.5c1.3,0,2.3,0.7,2.3,1.7c0,1.7-2.5,3.5-4.6,3.5C295,12.3,294,11.7,294,10.6z"/>
</g>
<rect x="309.6" y="13" width="0.5" height="16.4"/>
<g>
	<path d="M309.7,13c0-1.8,2.5-3.5,4.5-3.5c1.3,0,2.3,0.7,2.3,1.7c0,1.7-2.5,3.5-4.6,3.5C310.6,14.8,309.7,14.1,309.7,13z"/>
</g>
<rect x="325.2" y="15.5" width="0.5" height="15.5"/>
<g>
	<path d="M325.3,15.5c0-1.8,2.5-3.5,4.5-3.5c1.3,0,2.3,0.7,2.3,1.7c0,1.7-2.5,3.5-4.6,3.5C326.3,17.3,325.3,16.6,325.3,15.5z"/>
</g>
<rect x="340.9" y="17.9" width="0.5" height="14.7"/>
<g>
	<path d="M341,18c0-1.8,2.5-3.5,4.5-3.5c1.3,0,2.3,0.7,2.3,1.7c0,1.7-2.5,3.5-4.6,3.5C341.9,19.7,341,19.1,341,18z"/>
</g>
<rect x="356.4" y="20.4" width="0.5" height="14"/>
<g>
	<path d="M356.5,20.5c0-1.8,2.5-3.5,4.5-3.5c1.3,0,2.3,0.7,2.3,1.7c0,1.7-2.5,3.5-4.6,3.5C357.4,22.2,356.5,21.6,356.5,20.5z"/>
</g>
<rect x="378.6" y="4.9" width="0.5" height="16.4"/>
<g>
	<path d="M372.1,23c0-1.8,2.5-3.5,4.5-3.5c1.3,0,2.3,0.7,2.3,1.7c0,1.7-2.5,3.5-4.6,3.5C373.1,24.7,372.1,24.1,372.1,23z"/>
</g>
<rect x="394.2" y="6.5" width="0.5" height="17.4"/>
<g>
	<path d="M387.8,25.5c0-1.8,2.5-3.5,4.5-3.5c1.3,0,2.3,0.7,2.3,1.7c0,1.7-2.5,3.5-4.6,3.5C388.8,27.2,387.8,26.5,387.8,25.5z"/>
</g>
<rect x="409.9" y="8.2" width="0.5" height="18.1"/>
<g>
	<path d="M403.4,27.9c0-1.8,2.5-3.5,4.5-3.5c1.3,0,2.3,0.7,2.3,1.7c0,1.7-2.5,3.5-4.6,3.5C404.4,29.7,403.4,29,403.4,27.9z"/>
</g>
<rect x="425.5" y="9.9" width="0.5" height="18.9"/>
<g>
	<path d="M419.1,30.4c0-1.8,2.5-3.5,4.5-3.5c1.3,0,2.3,0.7,2.3,1.7c0,1.7-2.5,3.5-4.6,3.5C420.1,32.1,419.1,31.5,419.1,30.4z"/>
</g>
<rect x="441.2" y="14.8" width="0.5" height="16.4"/>
<g>
	<path d="M434.8,32.9c0-1.8,2.5-3.5,4.5-3.5c1.3,0,2.3,0.7,2.3,1.7c0,1.7-2.5,3.5-4.6,3.5C435.7,34.6,434.8,34,434.8,32.9z"/>
</g>
<rect x="448.5" y="34.1" width="10.5" height="0.8"/>
<rect x="456.8" y="16.4" width="0.5" height="17.4"/>
<g>
	<path d="M450.4,35.4c0-1.8,2.5-3.5,4.5-3.5c1.3,0,2.3,0.7,2.3,1.7c0,1.7-2.5,3.5-4.6,3.5C451.4,37.1,450.4,36.5,450.4,35.4z"/>
</g>
<rect x="464.2" y="34.1" width="10.5" height="0.8"/>
<rect x="472.5" y="18.1" width="0.5" height="18.1"/>
<g>
	<path d="M466.1,37.9c0-1.8,2.5-3.5,4.5-3.5c1.3,0,2.3,0.7,2.3,1.7c0,1.7-2.5,3.5-4.6,3.5C467,39.6,466.1,38.9,466.1,37.9z"/>
</g>
<rect x="479.9" y="34.1" width="10.5" height="0.8"/>
<rect x="479.9" y="39.1" width="10.5" height="0.8"/>
<rect x="488.2" y="19.8" width="0.5" height="18.9"/>
<g>
	<path d="M481.7,40.3c0-1.8,2.5-3.5,4.5-3.5c1.3,0,2.3,0.7,2.3,1.7c0,1.7-2.5,3.5-4.6,3.5C482.7,42.1,481.7,41.4,481.7,40.3z"/>
</g>
<rect x="495.5" y="34.1" width="10.7" height="0.8"/>
<rect x="495.5" y="39.1" width="10.7" height="0.8"/>
<rect x="504" y="19.6" width="0.5" height="21.5"/>
<g>
	<path d="M501.6,39.3c1.6,0,2.7,0.7,2.7,2c0,1.9-2.3,3.4-4.5,3.4c-1.3,0-2.4-0.7-2.4-1.8C497.4,41,499.6,39.3,501.6,39.3z
		 M497.8,43.1c0,0.6,0.4,0.9,1.1,0.9c1.4,0,4.9-2.1,4.9-3.3c0-0.6-0.4-0.9-1.1-0.9C501.5,39.9,497.8,41.9,497.8,43.1z"/>
</g>
<rect x="65.7" y="57" width="0.5" height="18.9"/>
<g>
	<path d="M59.3,77.5c0-1.8,2.5-3.5,4.5-3.5c1.3,0,2.3,0.7,2.3,1.7c0,1.7-2.5,3.5-4.6,3.5C60.3,79.3,59.3,78.6,59.3,77.5z"/>
</g>
<rect x="81.4" y="55.4" width="0.5" height="18"/>
<g>
	<path d="M75,75.1c0-1.8,2.5-3.5,4.5-3.5c1.3,0,2.3,0.7,2.3,1.7c0,1.7-2.5,3.5-4.6,3.5C75.9,76.8,75,76.1,75,75.1z"/>
</g>
<rect x="97.1" y="53.7" width="0.5" height="17.2"/>
<g>
	<path d="M90.6,72.6c0-1.8,2.5-3.5,4.5-3.5c1.3,0,2.3,0.7,2.3,1.7c0,1.7-2.5,3.5-4.6,3.5C91.6,74.3,90.6,73.7,90.6,72.6z"/>
</g>
<rect x="112.7" y="52" width="0.5" height="16.4"/>
<g>
	<path d="M106.3,70.1c0-1.8,2.5-3.5,4.5-3.5c1.3,0,2.3,0.7,2.3,1.7c0,1.7-2.5,3.5-4.6,3.5C107.2,71.8,106.3,71.2,106.3,70.1z"/>
</g>
<rect x="121.9" y="67.5" width="0.5" height="14"/>
<g>
	<path d="M121.9,67.6c0-1.8,2.5-3.5,4.5-3.5c1.3,0,2.3,0.7,2.3,1.7c0,1.7-2.5,3.5-4.6,3.5C122.9,69.3,121.9,68.7,121.9,67.6z"/>
</g>
<rect x="137.5" y="65.1" width="0.5" height="14.9"/>
<g>
	<path d="M137.6,65.1c0-1.8,2.5-3.5,4.5-3.5c1.3,0,2.3,0.7,2.3,1.7c0,1.7-2.5,3.5-4.6,3.5C138.6,66.9,137.6,66.2,137.6,65.1z"/>
</g>
<rect x="153.2" y="62.6" width="0.5" height="15.7"/>
<g>
	<path d="M153.2,62.7c0-1.8,2.5-3.5,4.5-3.5c1.3,0,2.3,0.7,2.3,1.7c0,1.7-2.5,3.5-4.6,3.5C154.2,64.4,153.2,63.7,153.2,62.7z"/>
</g>
<rect x="168.7" y="60.1" width="0.5" height="16.4"/>
<g>
	<path d="M168.7,60.2c0-1.8,2.5-3.5,4.5-3.5c1.3,0,2.3,0.7,2.3,1.7c0,1.7-2.5,3.5-4.6,3.5C169.7,61.9,168.7,61.3,168.7,60.2z"/>
</g>
<rect x="184.3" y="57.6" width="0.5" height="14"/>
<g>
	<path d="M184.4,57.7c0-1.8,2.5-3.5,4.5-3.5c1.3,0,2.3,0.7,2.3,1.7c0,1.7-2.5,3.5-4.6,3.5C185.4,59.4,184.4,58.8,184.4,57.7z"/>
</g>
<rect x="200" y="55.1" width="0.5" height="14.9"/>
<g>
	<path d="M200.1,55.2c0-1.8,2.5-3.5,4.5-3.5c1.3,0,2.3,0.7,2.3,1.7c0,1.7-2.5,3.5-4.6,3.5C201,56.9,200.1,56.3,200.1,55.2z"/>
</g>
<rect x="213.9" y="51.5" width="10.5" height="0.8"/>
<rect x="215.6" y="52.7" width="0.5" height="15.7"/>
<g>
	<path d="M215.7,52.7c0-1.8,2.5-3.5,4.5-3.5c1.3,0,2.3,0.7,2.3,1.7c0,1.7-2.5,3.5-4.6,3.5C216.7,54.5,215.7,53.8,215.7,52.7z"/>
</g>
<rect x="229.5" y="51.5" width="10.5" height="0.8"/>
<rect x="231.3" y="50.2" width="0.5" height="16.4"/>
<g>
	<path d="M231.4,50.3c0-1.8,2.5-3.5,4.5-3.5c1.3,0,2.3,0.7,2.3,1.7c0,1.7-2.5,3.5-4.6,3.5C232.3,52,231.4,51.3,231.4,50.3z"/>
</g>
<rect x="245.2" y="51.5" width="10.5" height="0.8"/>
<rect x="245.2" y="46.5" width="10.5" height="0.8"/>
<rect x="247" y="47.7" width="0.5" height="20.2"/>
<g>
	<path d="M247,47.8c0-1.8,2.5-3.5,4.5-3.5c1.3,0,2.3,0.7,2.3,1.7c0,1.7-2.5,3.5-4.6,3.5C248,49.5,247,48.9,247,47.8z"/>
</g>
<rect x="260.8" y="51.5" width="10.5" height="0.8"/>
<rect x="260.8" y="46.5" width="10.5" height="0.8"/>
<rect x="262.6" y="45.2" width="0.5" height="22.3"/>
<g>
	<path d="M262.7,45.3c0-1.8,2.5-3.5,4.5-3.5c1.3,0,2.3,0.7,2.3,1.7c0,1.7-2.5,3.5-4.6,3.5C263.7,47,262.7,46.4,262.7,45.3z"/>
</g>
<rect x="276.5" y="51.5" width="10.5" height="0.8"/>
<rect x="276.5" y="46.5" width="10.5" height="0.8"/>
<rect x="276.5" y="41.6" width="10.5" height="0.8"/>
<rect x="278.3" y="42.7" width="0.5" height="24.3"/>
<g>
	<path d="M278.3,42.8c0-1.8,2.5-3.5,4.5-3.5c1.3,0,2.3,0.7,2.3,1.7c0,1.7-2.5,3.5-4.6,3.5C279.3,44.5,278.3,43.9,278.3,42.8z"/>
</g>
<rect x="292.1" y="51.5" width="10.5" height="0.8"/>
<rect x="292.1" y="46.5" width="10.5" height="0.8"/>
<rect x="293.9" y="45.2" width="0.5" height="21.4"/>
<g>
	<path d="M294,45.3c0-1.8,2.5-3.5,4.5-3.5c1.3,0,2.3,0.7,2.3,1.7c0,1.7-2.5,3.5-4.6,3.5C295,47,294,46.4,294,45.3z"/>
</g>
<rect x="307.8" y="51.5" width="10.5" height="0.8"/>
<rect x="307.8" y="46.5" width="10.5" height="0.8"/>
<rect x="309.6" y="47.7" width="0.5" height="18.9"/>
<g>
	<path d="M309.7,47.8c0-1.8,2.5-3.5,4.5-3.5c1.3,0,2.3,0.7,2.3,1.7c0,1.7-2.5,3.5-4.6,3.5C310.6,49.5,309.7,48.9,309.7,47.8z"/>
</g>
<rect x="323.5" y="51.5" width="10.5" height="0.8"/>
<rect x="325.2" y="50.2" width="0.5" height="18"/>
<g>
	<path d="M325.3,50.3c0-1.8,2.5-3.5,4.5-3.5c1.3,0,2.3,0.7,2.3,1.7c0,1.7-2.5,3.5-4.6,3.5C326.3,52,325.3,51.3,325.3,50.3z"/>
</g>
<rect x="339.1" y="51.5" width="10.5" height="0.8"/>
<rect x="340.9" y="52.7" width="0.5" height="17.2"/>
<g>
	<path d="M341,52.7c0-1.8,2.5-3.5,4.5-3.5c1.3,0,2.3,0.7,2.3,1.7c0,1.7-2.5,3.5-4.6,3.5C341.9,54.5,341,53.8,341,52.7z"/>
</g>
<rect x="356.4" y="55.1" width="0.5" height="16.4"/>
<g>
	<path d="M356.5,55.2c0-1.8,2.5-3.5,4.5-3.5c1.3,0,2.3,0.7,2.3,1.7c0,1.7-2.5,3.5-4.6,3.5C357.4,56.9,356.5,56.3,356.5,55.2z"/>
</g>
<rect x="372" y="57.6" width="0.5" height="18.9"/>
<g>
	<path d="M372.1,57.7c0-1.8,2.5-3.5,4.5-3.5c1.3,0,2.3,0.7,2.3,1.7c0,1.7-2.5,3.5-4.6,3.5C373.1,59.4,372.1,58.8,372.1,57.7z"/>
</g>
<rect x="387.7" y="60.1" width="0.5" height="18"/>
<g>
	<path d="M387.8,60.2c0-1.8,2.5-3.5,4.5-3.5c1.3,0,2.3,0.7,2.3,1.7c0,1.7-2.5,3.5-4.6,3.5C388.8,61.9,387.8,61.3,387.8,60.2z"/>
</g>
<rect x="403.4" y="62.6" width="0.5" height="17.2"/>
<g>
	<path d="M403.4,62.7c0-1.8,2.5-3.5,4.5-3.5c1.3,0,2.3,0.7,2.3,1.7c0,1.7-2.5,3.5-4.6,3.5C404.4,64.4,403.4,63.7,403.4,62.7z"/>
</g>
<rect x="419" y="65.1" width="0.5" height="16.4"/>
<g>
	<path d="M419.1,65.1c0-1.8,2.5-3.5,4.5-3.5c1.3,0,2.3,0.7,2.3,1.7c0,1.7-2.5,3.5-4.6,3.5C420.1,66.9,419.1,66.2,419.1,65.1z"/>
</g>
<rect x="441.2" y="52" width="0.5" height="14"/>
<g>
	<path d="M434.8,67.6c0-1.8,2.5-3.5,4.5-3.5c1.3,0,2.3,0.7,2.3,1.7c0,1.7-2.5,3.5-4.6,3.5C435.7,69.3,434.8,68.7,434.8,67.6z"/>
</g>
<rect x="456.8" y="53.6" width="0.5" height="14.9"/>
<g>
	<path d="M450.4,70.1c0-1.8,2.5-3.5,4.5-3.5c1.3,0,2.3,0.7,2.3,1.7c0,1.7-2.5,3.5-4.6,3.5C451.4,71.8,450.4,71.2,450.4,70.1z"/>
</g>
<rect x="472.5" y="55.3" width="0.5" height="15.7"/>
<g>
	<path d="M466.1,72.6c0-1.8,2.5-3.5,4.5-3.5c1.3,0,2.3,0.7,2.3,1.7c0,1.7-2.5,3.5-4.6,3.5C467,74.3,466.1,73.7,466.1,72.6z"/>
</g>
<rect x="488.2" y="57" width="0.5" height="16.4"/>
<g>
	<path d="M481.7,75.1c0-1.8,2.5-3.5,4.5-3.5c1.3,0,2.3,0.7,2.3,1.7c0,1.7-2.5,3.5-4.6,3.5C482.7,76.8,481.7,76.1,481.7,75.1z"/>
</g>
<rect x="504" y="59.3" width="0.5" height="16.6"/>
<g>
	<path d="M501.6,74c1.6,0,2.7,0.7,2.7,2c0,1.9-2.3,3.4-4.5,3.4c-1.3,0-2.4-0.7-2.4-1.8C497.4,75.8,499.6,74,501.6,74z M497.8,77.8
		c0,0.6,0.4,0.9,1.1,0.9c1.4,0,4.9-2.1,4.9-3.3c0-0.6-0.4-0.9-1.1-0.9C501.5,74.6,497.8,76.6,497.8,77.8z"/>
</g>
</svg>
