<?xml version="1.0" encoding="utf-8"?>

<!--
	ScaleBook
	Copyright (c) Leland Jansen 2015. All rights reserved.
-->

<!DOCTYPE svg PUBLIC "-//W3C//DTD SVG 1.1//EN" "http://www.w3.org/Graphics/SVG/1.1/DTD/svg11.dtd">
<svg version="1.1" id="Layer_1" xmlns="http://www.w3.org/2000/svg" xmlns:xlink="http://www.w3.org/1999/xlink" x="0px" y="0px"
	 viewBox="0 0 552.9 90.6" enable-background="new 0 0 552.9 90.6" xml:space="preserve">
<rect x="8.4" y="11.2" width="0.8" height="67"/>
<g>
	<path d="M7.4,11.8c-1.9,1.1-3.6,5.8-3.6,9.4c0,2.3,1.4,9.9,1.4,12.3c0,5-1.5,8.6-4.6,11.1c3,2.4,4.6,6.1,4.6,11
		c0,2.3-1.4,9.9-1.4,12.3c0,3.8,1.7,8.4,3.6,9.5v0.7c-3.5-2.3-5.8-8.2-5.8-13.1c0-2.1,1.7-9.4,1.7-11.5c0-3.8-1-6.6-2.9-8.2
		C0.1,45,0,44.8,0,44.6s0.1-0.4,0.5-0.7c1.9-1.7,2.9-4.2,2.9-7.6c0-2.1-1.7-10-1.7-12.2c0-5.2,2.1-10.4,5.8-13.1V11.8z"/>
</g>
<rect x="547.8" y="11.2" width="0.8" height="67"/>
<rect x="550.4" y="11.2" width="2.5" height="67"/>
<rect x="8.5" y="30.8" width="544.4" height="0.5"/>
<rect x="8.5" y="25.8" width="544.4" height="0.5"/>
<rect x="8.5" y="20.8" width="544.4" height="0.5"/>
<rect x="8.5" y="15.9" width="544.4" height="0.5"/>
<rect x="8.5" y="10.9" width="544.4" height="0.5"/>
<g>
	<path d="M20.3,30.8c-4.2,0-8.1-3.1-8.1-6.9c0-3.2,2.3-6.7,6.8-10.5c-0.3-1.2-0.4-2.4-0.4-3.6c0-3.5,1.2-6.8,3.2-8.5
		c1.8,2.5,2.7,4.9,2.7,7.1c0,2.9-1.3,5.6-4.3,8.1l0.9,4.2c0.5,0,0.8-0.1,0.8-0.1c2.6,0,4.8,2,4.8,4.7c0,1.9-1.4,3.7-3.6,4.8
		c0-0.1,0.9,3.8,0.9,4.3c0,2.5-2.3,4.2-4.9,4.2c-2,0-3.6-1.3-3.6-3.4c0-1.4,1-2.6,2.4-2.6c1.3,0,2.3,1.3,2.3,2.5
		c0,1.4-1.2,2.3-2.7,2.5c0.6,0.3,1.2,0.5,1.9,0.5c2.1,0,4.1-1.6,4.1-3.6c0-0.2,0-0.4-0.1-0.6l-0.8-3.7
		C21.9,30.7,21.2,30.8,20.3,30.8z M18.1,25.6c0,1,0.5,1.9,1.6,2.5c-1.8-0.3-3-1.4-3-3.1c0-2,1.7-3.7,3.8-4.1l-0.8-4
		C16,19.7,14,22.4,14,25.1c0,2.9,2.8,5.3,6,5.3c0.9,0,1.7-0.2,2.4-0.5L21,23C19.4,23.2,18.1,24.3,18.1,25.6z M22.1,4.3
		c-1.6,0-2.9,3.7-2.9,7c0,0.7,0,1.3,0.2,1.9c2.7-2.4,4-4.5,4-6.5c0-0.9-0.3-1.7-1-2.4C22.4,4.3,22.3,4.3,22.1,4.3z M24.9,26.2
		c0-1.6-1.2-3.3-2.9-3.3c-0.1,0-0.2,0-0.5,0l1.4,6.6C24.2,28.6,24.9,27.5,24.9,26.2z"/>
</g>
<g>
	<path d="M29.5,12.8h0.6L30,19c0.4-0.7,1-1,1.8-1c1.2,0,2.2,0.8,2.2,1.9c0,0.8-0.5,1.8-1.7,2.7l-2.8,2.1V12.8z M30.1,19.7
		C30,20.4,30,21.1,30,21.6c0,1,0,1.6,0.1,2c1-0.7,2.4-2.6,2.4-3.7c0-0.6-0.5-1.1-1.1-1.1C30.8,18.8,30.4,19.1,30.1,19.7z"/>
</g>
<g>
	<path d="M35.1,5.3h0.6l-0.1,6.2c0.4-0.7,1-1,1.8-1c1.2,0,2.2,0.8,2.2,1.9c0,0.8-0.5,1.8-1.7,2.7l-2.8,2.1V5.3z M35.7,12.2
		c-0.1,0.8-0.1,1.4-0.1,1.9c0,1,0,1.6,0.1,2c1-0.7,2.4-2.6,2.4-3.7c0-0.6-0.5-1.1-1.1-1.1C36.4,11.4,36,11.7,35.7,12.2z"/>
</g>
<g>
	<path d="M40.7,15.2h0.6l-0.1,6.2c0.4-0.7,1-1,1.8-1c1.2,0,2.2,0.8,2.2,1.9c0,0.8-0.5,1.8-1.7,2.7l-2.8,2.1V15.2z M41.3,22.2
		c-0.1,0.8-0.1,1.4-0.1,1.9c0,1,0,1.6,0.1,2c1-0.7,2.4-2.6,2.4-3.7c0-0.6-0.5-1.1-1.1-1.1C42,21.3,41.6,21.6,41.3,22.2z"/>
</g>
<g>
	<path d="M46.3,7.8h0.6l-0.1,6.2c0.4-0.7,1-1,1.8-1c1.2,0,2.2,0.8,2.2,1.9c0,0.8-0.5,1.8-1.7,2.7l-2.8,2.1V7.8z M46.9,14.7
		c-0.1,0.8-0.1,1.4-0.1,1.9c0,1,0,1.6,0.1,2c1-0.7,2.4-2.6,2.4-3.7c0-0.6-0.5-1.1-1.1-1.1C47.6,13.9,47.2,14.2,46.9,14.7z"/>
</g>
<g>
	<path d="M51.9,17.7h0.6L52.4,24c0.4-0.7,1-1,1.8-1c1.2,0,2.2,0.8,2.2,1.9c0,0.8-0.5,1.8-1.7,2.7l-2.8,2.1V17.7z M52.4,24.6
		c-0.1,0.8-0.1,1.4-0.1,1.9c0,1,0,1.6,0.1,2c1-0.7,2.4-2.6,2.4-3.7c0-0.6-0.5-1.1-1.1-1.1C53.2,23.8,52.7,24.1,52.4,24.6z"/>
</g>
<g>
	<path d="M57.4,10.3h0.6l-0.1,6.2c0.4-0.7,1-1,1.8-1c1.2,0,2.2,0.8,2.2,1.9c0,0.8-0.5,1.8-1.7,2.7l-2.8,2.1V10.3z M58,17.2
		c-0.1,0.8-0.1,1.4-0.1,1.9c0,1,0,1.6,0.1,2c1-0.7,2.4-2.6,2.4-3.7c0-0.6-0.5-1.1-1.1-1.1C58.7,16.4,58.3,16.6,58,17.2z"/>
</g>
<g>
	<path d="M63,20.2h0.6l-0.1,6.2c0.4-0.7,1-1,1.8-1c1.2,0,2.2,0.8,2.2,1.9c0,0.8-0.5,1.8-1.7,2.7L63,32.2V20.2z M63.6,27.1
		c-0.1,0.8-0.1,1.4-0.1,1.9c0,1,0,1.6,0.1,2c1-0.7,2.4-2.6,2.4-3.7c0-0.6-0.5-1.1-1.1-1.1C64.3,26.3,63.9,26.6,63.6,27.1z"/>
</g>
<polygon fill-rule="evenodd" clip-rule="evenodd" points="82.7,17.4 123.9,12.4 123.9,9.9 82.7,14.9 "/>
<polygon fill-rule="evenodd" clip-rule="evenodd" points="82.7,13.6 123.9,8.7 123.9,6.2 82.7,11.2 "/>
<polygon fill-rule="evenodd" clip-rule="evenodd" points="137.7,16.1 179,11.2 179,8.7 137.7,13.6 "/>
<polygon fill-rule="evenodd" clip-rule="evenodd" points="137.7,12.4 179,7.4 179,5 137.7,9.9 "/>
<polygon fill-rule="evenodd" clip-rule="evenodd" points="192.8,11.2 234,6.2 234,3.7 192.8,8.7 "/>
<polygon fill-rule="evenodd" clip-rule="evenodd" points="192.8,7.4 234,2.5 234,0 192.8,5 "/>
<polygon fill-rule="evenodd" clip-rule="evenodd" points="255.7,33.5 297.1,28.5 297.1,26 255.7,31 "/>
<polygon fill-rule="evenodd" clip-rule="evenodd" points="255.7,37.2 297.1,32.2 297.1,29.8 255.7,34.7 "/>
<polygon fill-rule="evenodd" clip-rule="evenodd" points="310.7,28.5 352.1,33.5 352.1,31 310.7,26 "/>
<polygon fill-rule="evenodd" clip-rule="evenodd" points="310.7,32.2 352.1,37.2 352.1,34.7 310.7,29.8 "/>
<polygon fill-rule="evenodd" clip-rule="evenodd" points="386.9,6.2 428.1,11.2 428.1,8.7 386.9,3.7 "/>
<polygon fill-rule="evenodd" clip-rule="evenodd" points="386.9,2.5 428.1,7.4 428.1,5 386.9,0 "/>
<polygon fill-rule="evenodd" clip-rule="evenodd" points="441.9,11.2 483.1,16.1 483.1,13.6 441.9,8.7 "/>
<polygon fill-rule="evenodd" clip-rule="evenodd" points="441.9,7.4 483.1,12.4 483.1,9.9 441.9,5 "/>
<polygon fill-rule="evenodd" clip-rule="evenodd" points="496.9,12.4 538.1,17.4 538.1,14.9 496.9,9.9 "/>
<polygon fill-rule="evenodd" clip-rule="evenodd" points="496.9,8.7 538.1,13.6 538.1,11.2 496.9,6.2 "/>
<rect x="8.5" y="77.9" width="544.4" height="0.5"/>
<rect x="8.5" y="72.9" width="544.4" height="0.5"/>
<rect x="8.5" y="68" width="544.4" height="0.5"/>
<rect x="8.5" y="63" width="544.4" height="0.5"/>
<rect x="8.5" y="58.1" width="544.4" height="0.5"/>
<g>
	<path d="M15.7,72.5c2.9-2.6,4.7-6.1,4.7-9.2c0-2.5-1.4-4.4-3.7-4.4c-1.6,0-3.4,1.3-3.4,2.7c0,0.2,0,0.3,0.1,0.3
		c-0.1,0,0.6-0.6,1.4-0.6c0.9,0,1.5,0.8,1.5,1.7c0,1.2-0.9,2.2-2.1,2.2c-1.2,0-2.1-1.3-2.1-2.8c0-2.3,2.3-4.1,4.8-4.1
		c4.7,0,5.9,3.2,5.9,5.8c0,1.6-0.4,2.9-2,5.3c-1.9,3.1-6.4,5.3-8.1,5.3c-0.4,0-0.6-0.2-0.6-0.5C13.8,73.7,14.9,73.2,15.7,72.5z
		 M25.7,59.8c0.6,0,1,0.4,1,1s-0.4,1-1,1s-1-0.4-1-1S25.1,59.8,25.7,59.8z M25.7,64.7c0.6,0,1,0.4,1,1s-0.4,1-1,1s-1-0.4-1-1
		S25.1,64.7,25.7,64.7z"/>
</g>
<g>
	<path d="M29.5,64.9h0.6L30,71.1c0.4-0.7,1-1,1.8-1c1.2,0,2.2,0.8,2.2,1.9c0,0.8-0.5,1.8-1.7,2.7l-2.8,2.1V64.9z M30.1,71.8
		C30,72.5,30,73.2,30,73.7c0,1,0,1.6,0.1,2c1-0.7,2.4-2.6,2.4-3.7c0-0.6-0.5-1.1-1.1-1.1C30.8,70.9,30.4,71.2,30.1,71.8z"/>
</g>
<g>
	<path d="M35.1,57.4h0.6l-0.1,6.2c0.4-0.7,1-1,1.8-1c1.2,0,2.2,0.8,2.2,1.9c0,0.8-0.5,1.8-1.7,2.7l-2.8,2.1V57.4z M35.7,64.3
		c-0.1,0.8-0.1,1.4-0.1,1.9c0,1,0,1.6,0.1,2c1-0.7,2.4-2.6,2.4-3.7c0-0.6-0.5-1.1-1.1-1.1C36.4,63.5,36,63.8,35.7,64.3z"/>
</g>
<g>
	<path d="M40.7,67.3h0.6l-0.1,6.2c0.4-0.7,1-1,1.8-1c1.2,0,2.2,0.8,2.2,1.9c0,0.8-0.5,1.8-1.7,2.7l-2.8,2.1V67.3z M41.3,74.2
		c-0.1,0.8-0.1,1.4-0.1,1.9c0,1,0,1.6,0.1,2c1-0.7,2.4-2.6,2.4-3.7c0-0.6-0.5-1.1-1.1-1.1C42,73.4,41.6,73.7,41.3,74.2z"/>
</g>
<g>
	<path d="M46.3,59.9h0.6l-0.1,6.2c0.4-0.7,1-1,1.8-1c1.2,0,2.2,0.8,2.2,1.9c0,0.8-0.5,1.8-1.7,2.7l-2.8,2.1V59.9z M46.9,66.8
		c-0.1,0.8-0.1,1.4-0.1,1.9c0,1,0,1.6,0.1,2c1-0.7,2.4-2.6,2.4-3.7c0-0.6-0.5-1.1-1.1-1.1C47.6,66,47.2,66.2,46.9,66.8z"/>
</g>
<g>
	<path d="M51.9,69.8h0.6l-0.1,6.2c0.4-0.7,1-1,1.8-1c1.2,0,2.2,0.8,2.2,1.9c0,0.8-0.5,1.8-1.7,2.7l-2.8,2.1V69.8z M52.4,76.7
		c-0.1,0.8-0.1,1.4-0.1,1.9c0,1,0,1.6,0.1,2c1-0.7,2.4-2.6,2.4-3.7c0-0.6-0.5-1.1-1.1-1.1C53.2,75.9,52.7,76.2,52.4,76.7z"/>
</g>
<g>
	<path d="M57.4,62.4h0.6l-0.1,6.2c0.4-0.7,1-1,1.8-1c1.2,0,2.2,0.8,2.2,1.9c0,0.8-0.5,1.8-1.7,2.7l-2.8,2.1V62.4z M58,69.3
		c-0.1,0.8-0.1,1.4-0.1,1.9c0,1,0,1.6,0.1,2c1-0.7,2.4-2.6,2.4-3.7c0-0.6-0.5-1.1-1.1-1.1C58.7,68.4,58.3,68.7,58,69.3z"/>
</g>
<g>
	<path d="M63,72.3h0.6l-0.1,6.2c0.4-0.7,1-1,1.8-1c1.2,0,2.2,0.8,2.2,1.9c0,0.8-0.5,1.8-1.7,2.7L63,84.2V72.3z M63.6,79.2
		c-0.1,0.8-0.1,1.4-0.1,1.9c0,1,0,1.6,0.1,2c1-0.7,2.4-2.6,2.4-3.7c0-0.6-0.5-1.1-1.1-1.1C64.3,78.4,63.9,78.6,63.6,79.2z"/>
</g>
<polygon fill-rule="evenodd" clip-rule="evenodd" points="76.2,85.6 117.4,80.6 117.4,78.1 76.2,83.1 "/>
<polygon fill-rule="evenodd" clip-rule="evenodd" points="76.2,89.3 117.4,84.3 117.4,81.8 76.2,86.8 "/>
<polygon fill-rule="evenodd" clip-rule="evenodd" points="131.2,80.6 172.5,75.6 172.5,73.2 131.2,78.1 "/>
<polygon fill-rule="evenodd" clip-rule="evenodd" points="131.2,84.3 172.5,79.4 172.5,76.9 131.2,81.8 "/>
<g>
	<path d="M247.7,76.8c-3.2,0-6.1-2.3-6.1-5.1c0-2.4,1.7-5,5.1-7.9c-0.2-0.9-0.3-1.8-0.3-2.7c0-2.6,0.9-5.1,2.4-6.3
		c1.4,1.9,2,3.7,2,5.3c0,2.2-1,4.2-3.2,6.1l0.7,3.1c0.4,0,0.6,0,0.6,0c2,0,3.6,1.5,3.6,3.5c0,1.4-1.1,2.8-2.7,3.6
		c0-0.1,0.6,2.8,0.6,3.3c0,1.9-1.7,3.2-3.7,3.2c-1.5,0-2.7-1-2.7-2.5c0-1.1,0.7-1.9,1.8-1.9c1,0,1.7,1,1.7,1.9c0,1-0.9,1.7-2,1.8
		c0.4,0.2,0.9,0.3,1.4,0.3c1.6,0,3.1-1.2,3.1-2.7c0-0.1,0-0.3,0-0.5l-0.6-2.8C248.9,76.7,248.4,76.8,247.7,76.8z M246,72.9
		c0,0.8,0.4,1.4,1.2,1.9c-1.3-0.2-2.2-1.1-2.2-2.3c0-1.5,1.3-2.8,2.9-3.1l-0.6-3c-2.8,2.1-4.3,4.1-4.3,6.1c0,2.2,2.1,4,4.5,4
		c0.7,0,1.3-0.1,1.8-0.4l-1.1-5.1C247,71.1,246,71.8,246,72.9z M249.1,56.8c-1.2,0-2.2,2.8-2.2,5.3c0,0.5,0,1,0.1,1.4
		c2-1.8,3-3.4,3-4.8c0-0.7-0.3-1.3-0.7-1.8C249.3,56.9,249.2,56.8,249.1,56.8z M251.1,73.3c0-1.2-0.9-2.4-2.2-2.4c0,0-0.2,0-0.4,0
		l1.1,5C250.6,75.1,251.1,74.2,251.1,73.3z"/>
</g>
<polygon fill-rule="evenodd" clip-rule="evenodd" points="186.3,79.4 227.5,74.4 227.5,71.9 186.3,76.9 "/>
<polygon fill-rule="evenodd" clip-rule="evenodd" points="186.3,83.1 227.5,78.1 227.5,75.6 186.3,80.6 "/>
<polygon fill-rule="evenodd" clip-rule="evenodd" points="262.2,64.5 303.6,59.5 303.6,57 262.2,62 "/>
<polygon fill-rule="evenodd" clip-rule="evenodd" points="262.2,60.8 303.6,55.8 303.6,53.3 262.2,58.3 "/>
<g>
	<path d="M368.9,70.2c2.2-2,3.6-4.6,3.6-6.9c0-1.9-1.1-3.3-2.8-3.3c-1.2,0-2.5,1-2.5,2.1c0,0.2,0,0.2,0.1,0.2c0,0,0.4-0.5,1-0.5
		c0.7,0,1.2,0.6,1.2,1.3c0,0.9-0.6,1.7-1.6,1.7s-1.5-1-1.5-2.1c0-1.8,1.7-3.1,3.6-3.1c3.5,0,4.4,2.4,4.4,4.4c0,1.2-0.3,2.2-1.5,4
		c-1.4,2.3-4.8,4-6,4c-0.3,0-0.5-0.1-0.5-0.3C367.5,71.1,368.3,70.7,368.9,70.2z M376.4,60.6c0.4,0,0.7,0.3,0.7,0.7
		c0,0.4-0.3,0.7-0.7,0.7c-0.4,0-0.7-0.3-0.7-0.7C375.6,61,375.9,60.6,376.4,60.6z M376.4,64.3c0.4,0,0.7,0.3,0.7,0.7
		s-0.3,0.7-0.7,0.7c-0.4,0-0.7-0.3-0.7-0.7S375.9,64.3,376.4,64.3z"/>
</g>
<polygon fill-rule="evenodd" clip-rule="evenodd" points="317.2,59.5 358.6,64.5 358.6,62 317.2,57 "/>
<polygon fill-rule="evenodd" clip-rule="evenodd" points="317.2,55.8 358.6,60.8 358.6,58.3 317.2,53.3 "/>
<polygon fill-rule="evenodd" clip-rule="evenodd" points="380.3,74.4 421.6,79.4 421.6,76.9 380.3,71.9 "/>
<polygon fill-rule="evenodd" clip-rule="evenodd" points="380.3,78.1 421.6,83.1 421.6,80.6 380.3,75.6 "/>
<polygon fill-rule="evenodd" clip-rule="evenodd" points="435.4,75.6 476.6,80.6 476.6,78.1 435.4,73.2 "/>
<polygon fill-rule="evenodd" clip-rule="evenodd" points="435.4,79.4 476.6,84.3 476.6,81.8 435.4,76.9 "/>
<polygon fill-rule="evenodd" clip-rule="evenodd" points="490.4,80.6 531.6,85.6 531.6,83.1 490.4,78.1 "/>
<polygon fill-rule="evenodd" clip-rule="evenodd" points="490.4,84.3 531.6,89.3 531.6,86.8 490.4,81.8 "/>
<rect x="74.2" y="35.6" width="10.5" height="0.8"/>
<rect x="74.2" y="40.5" width="10.5" height="0.8"/>
<rect x="82.5" y="11.3" width="0.5" height="28.8"/>
<g>
	<path d="M76,41.8c0-1.8,2.5-3.5,4.5-3.5c1.3,0,2.3,0.7,2.3,1.7c0,1.7-2.5,3.5-4.6,3.5C77,43.5,76,42.9,76,41.8z"/>
</g>
<rect x="88" y="35.6" width="10.5" height="0.8"/>
<rect x="96.3" y="9.8" width="0.5" height="25.4"/>
<g>
	<path d="M89.8,36.8c0-1.8,2.5-3.5,4.5-3.5c1.3,0,2.3,0.7,2.3,1.7c0,1.7-2.5,3.5-4.6,3.5C90.8,38.5,89.8,37.9,89.8,36.8z"/>
</g>
<rect x="110.1" y="8.1" width="0.5" height="22.2"/>
<g>
	<path d="M103.6,31.9c0-1.8,2.5-3.5,4.5-3.5c1.3,0,2.3,0.7,2.3,1.7c0,1.7-2.5,3.5-4.6,3.5C104.6,33.6,103.6,32.9,103.6,31.9z"/>
</g>
<rect x="123.7" y="6.4" width="0.5" height="16.4"/>
<g>
	<path d="M117.3,24.4c0-1.8,2.5-3.5,4.5-3.5c1.3,0,2.3,0.7,2.3,1.7c0,1.7-2.5,3.5-4.6,3.5C118.3,26.1,117.3,25.5,117.3,24.4z"/>
</g>
<rect x="129.2" y="35.6" width="10.5" height="0.8"/>
<rect x="137.5" y="10.1" width="0.5" height="25.1"/>
<g>
	<path d="M131.1,36.8c0-1.8,2.5-3.5,4.5-3.5c1.3,0,2.3,0.7,2.3,1.7c0,1.7-2.5,3.5-4.6,3.5C132,38.5,131.1,37.9,131.1,36.8z"/>
</g>
<rect x="151.3" y="8.5" width="0.5" height="21.7"/>
<g>
	<path d="M144.9,31.9c0-1.8,2.5-3.5,4.5-3.5c1.3,0,2.3,0.7,2.3,1.7c0,1.7-2.5,3.5-4.6,3.5C145.8,33.6,144.9,32.9,144.9,31.9z"/>
</g>
<rect x="165.1" y="6.8" width="0.5" height="16"/>
<g>
	<path d="M158.7,24.4c0-1.8,2.5-3.5,4.5-3.5c1.3,0,2.3,0.7,2.3,1.7c0,1.7-2.5,3.5-4.6,3.5C159.6,26.1,158.7,25.5,158.7,24.4z"/>
</g>
<rect x="178.7" y="5.1" width="0.5" height="12.7"/>
<g>
	<path d="M172.3,19.5c0-1.8,2.5-3.5,4.5-3.5c1.3,0,2.3,0.7,2.3,1.7c0,1.7-2.5,3.5-4.6,3.5C173.3,21.2,172.3,20.5,172.3,19.5z"/>
</g>
<rect x="192.5" y="5.1" width="0.5" height="25.1"/>
<g>
	<path d="M186.1,31.9c0-1.8,2.5-3.5,4.5-3.5c1.3,0,2.3,0.7,2.3,1.7c0,1.7-2.5,3.5-4.6,3.5C187.1,33.6,186.1,32.9,186.1,31.9z"/>
</g>
<rect x="206.3" y="3.6" width="0.5" height="19.2"/>
<g>
	<path d="M199.9,24.4c0-1.8,2.5-3.5,4.5-3.5c1.3,0,2.3,0.7,2.3,1.7c0,1.7-2.5,3.5-4.6,3.5C200.9,26.1,199.9,25.5,199.9,24.4z"/>
</g>
<rect x="220.1" y="1.9" width="0.5" height="16"/>
<g>
	<path d="M213.7,19.5c0-1.8,2.5-3.5,4.5-3.5c1.3,0,2.3,0.7,2.3,1.7c0,1.7-2.5,3.5-4.6,3.5C214.7,21.2,213.7,20.5,213.7,19.5z"/>
</g>
<rect x="233.8" y="0.2" width="0.5" height="12.7"/>
<g>
	<path d="M227.3,14.5c0-1.8,2.5-3.5,4.5-3.5c1.3,0,2.3,0.7,2.3,1.7c0,1.7-2.5,3.5-4.6,3.5C228.3,16.2,227.3,15.6,227.3,14.5z"/>
</g>
<rect x="255.5" y="24.3" width="0.5" height="12.7"/>
<g>
	<path d="M255.6,24.4c0-1.8,2.5-3.5,4.5-3.5c1.3,0,2.3,0.7,2.3,1.7c0,1.7-2.5,3.5-4.6,3.5C256.5,26.1,255.6,25.5,255.6,24.4z"/>
</g>
<rect x="269.3" y="19.4" width="0.5" height="16.1"/>
<g>
	<path d="M269.4,19.5c0-1.8,2.5-3.5,4.5-3.5c1.3,0,2.3,0.7,2.3,1.7c0,1.7-2.5,3.5-4.6,3.5C270.3,21.2,269.4,20.5,269.4,19.5z"/>
</g>
<rect x="283.1" y="14.4" width="0.5" height="19.4"/>
<g>
	<path d="M283.1,14.5c0-1.8,2.5-3.5,4.5-3.5c1.3,0,2.3,0.7,2.3,1.7c0,1.7-2.5,3.5-4.6,3.5C284.1,16.2,283.1,15.6,283.1,14.5z"/>
</g>
<rect x="295.1" y="5.8" width="10.5" height="0.8"/>
<rect x="296.9" y="7" width="0.5" height="25.1"/>
<g>
	<path d="M296.9,7.1c0-1.8,2.5-3.5,4.5-3.5c1.3,0,2.3,0.7,2.3,1.7c0,1.7-2.5,3.5-4.6,3.5C297.9,8.8,296.9,8.1,296.9,7.1z"/>
</g>
<rect x="308.7" y="5.8" width="10.5" height="0.8"/>
<rect x="310.5" y="7" width="0.5" height="25.1"/>
<g>
	<path d="M310.6,7.1c0-1.8,2.5-3.5,4.5-3.5c1.3,0,2.3,0.7,2.3,1.7c0,1.7-2.5,3.5-4.6,3.5C311.6,8.8,310.6,8.1,310.6,7.1z"/>
</g>
<rect x="324.3" y="14.4" width="0.5" height="19.2"/>
<g>
	<path d="M324.4,14.5c0-1.8,2.5-3.5,4.5-3.5c1.3,0,2.3,0.7,2.3,1.7c0,1.7-2.5,3.5-4.6,3.5C325.4,16.2,324.4,15.6,324.4,14.5z"/>
</g>
<rect x="338.1" y="19.4" width="0.5" height="16"/>
<g>
	<path d="M338.2,19.5c0-1.8,2.5-3.5,4.5-3.5c1.3,0,2.3,0.7,2.3,1.7c0,1.7-2.5,3.5-4.6,3.5C339.1,21.2,338.2,20.5,338.2,19.5z"/>
</g>
<rect x="351.9" y="24.3" width="0.5" height="12.7"/>
<g>
	<path d="M352,24.4c0-1.8,2.5-3.5,4.5-3.5c1.3,0,2.3,0.7,2.3,1.7c0,1.7-2.5,3.5-4.6,3.5C352.9,26.1,352,25.5,352,24.4z"/>
</g>
<rect x="386.6" y="0.2" width="0.5" height="12.7"/>
<g>
	<path d="M380.2,14.5c0-1.8,2.5-3.5,4.5-3.5c1.3,0,2.3,0.7,2.3,1.7c0,1.7-2.5,3.5-4.6,3.5C381.2,16.2,380.2,15.6,380.2,14.5z"/>
</g>
<rect x="400.4" y="1.7" width="0.5" height="16.1"/>
<g>
	<path d="M394,19.5c0-1.8,2.5-3.5,4.5-3.5c1.3,0,2.3,0.7,2.3,1.7c0,1.7-2.5,3.5-4.6,3.5C395,21.2,394,20.5,394,19.5z"/>
</g>
<rect x="414.1" y="3.4" width="0.5" height="19.4"/>
<g>
	<path d="M407.6,24.4c0-1.8,2.5-3.5,4.5-3.5c1.3,0,2.3,0.7,2.3,1.7c0,1.7-2.5,3.5-4.6,3.5C408.6,26.1,407.6,25.5,407.6,24.4z"/>
</g>
<rect x="427.9" y="5.1" width="0.5" height="25.1"/>
<g>
	<path d="M421.4,31.9c0-1.8,2.5-3.5,4.5-3.5c1.3,0,2.3,0.7,2.3,1.7c0,1.7-2.5,3.5-4.6,3.5C422.4,33.6,421.4,32.9,421.4,31.9z"/>
</g>
<rect x="441.6" y="5.1" width="0.5" height="12.7"/>
<g>
	<path d="M435.2,19.5c0-1.8,2.5-3.5,4.5-3.5c1.3,0,2.3,0.7,2.3,1.7c0,1.7-2.5,3.5-4.6,3.5C436.2,21.2,435.2,20.5,435.2,19.5z"/>
</g>
<rect x="455.4" y="6.7" width="0.5" height="16.1"/>
<g>
	<path d="M449,24.4c0-1.8,2.5-3.5,4.5-3.5c1.3,0,2.3,0.7,2.3,1.7c0,1.7-2.5,3.5-4.6,3.5C450,26.1,449,25.5,449,24.4z"/>
</g>
<rect x="469.1" y="8.4" width="0.5" height="21.9"/>
<g>
	<path d="M462.7,31.9c0-1.8,2.5-3.5,4.5-3.5c1.3,0,2.3,0.7,2.3,1.7c0,1.7-2.5,3.5-4.6,3.5C463.6,33.6,462.7,32.9,462.7,31.9z"/>
</g>
<rect x="474.6" y="35.6" width="10.5" height="0.8"/>
<rect x="482.9" y="10.1" width="0.5" height="25.1"/>
<g>
	<path d="M476.4,36.8c0-1.8,2.5-3.5,4.5-3.5c1.3,0,2.3,0.7,2.3,1.7c0,1.7-2.5,3.5-4.6,3.5C477.4,38.5,476.4,37.9,476.4,36.8z"/>
</g>
<rect x="496.7" y="6.4" width="0.5" height="16.4"/>
<g>
	<path d="M490.2,24.4c0-1.8,2.5-3.5,4.5-3.5c1.3,0,2.3,0.7,2.3,1.7c0,1.7-2.5,3.5-4.6,3.5C491.2,26.1,490.2,25.5,490.2,24.4z"/>
</g>
<rect x="510.5" y="7.9" width="0.5" height="22.3"/>
<g>
	<path d="M504,31.9c0-1.8,2.5-3.5,4.5-3.5c1.3,0,2.3,0.7,2.3,1.7c0,1.7-2.5,3.5-4.6,3.5C505,33.6,504,32.9,504,31.9z"/>
</g>
<rect x="515.8" y="35.6" width="10.5" height="0.8"/>
<rect x="524.1" y="9.6" width="0.5" height="25.6"/>
<g>
	<path d="M517.7,36.8c0-1.8,2.5-3.5,4.5-3.5c1.3,0,2.3,0.7,2.3,1.7c0,1.7-2.5,3.5-4.6,3.5C518.7,38.5,517.7,37.9,517.7,36.8z"/>
</g>
<rect x="529.6" y="35.6" width="10.5" height="0.8"/>
<rect x="529.6" y="40.5" width="10.5" height="0.8"/>
<rect x="537.9" y="11.3" width="0.5" height="28.8"/>
<g>
	<path d="M531.5,41.8c0-1.8,2.5-3.5,4.5-3.5c1.3,0,2.3,0.7,2.3,1.7c0,1.7-2.5,3.5-4.6,3.5C532.5,43.5,531.5,42.9,531.5,41.8z"/>
</g>
<rect x="76" y="76.4" width="0.5" height="12.7"/>
<g>
	<path d="M76,76.5c0-1.8,2.5-3.5,4.5-3.5c1.3,0,2.3,0.7,2.3,1.7c0,1.7-2.5,3.5-4.6,3.5C77,78.2,76,77.6,76,76.5z"/>
</g>
<rect x="89.8" y="71.5" width="0.5" height="16.1"/>
<g>
	<path d="M89.8,71.5c0-1.8,2.5-3.5,4.5-3.5c1.3,0,2.3,0.7,2.3,1.7c0,1.7-2.5,3.5-4.6,3.5C90.8,73.3,89.8,72.6,89.8,71.5z"/>
</g>
<rect x="103.6" y="66.5" width="0.5" height="19.4"/>
<g>
	<path d="M103.6,66.6c0-1.8,2.5-3.5,4.5-3.5c1.3,0,2.3,0.7,2.3,1.7c0,1.7-2.5,3.5-4.6,3.5C104.6,68.3,103.6,67.7,103.6,66.6z"/>
</g>
<rect x="117.2" y="59.1" width="0.5" height="25.1"/>
<g>
	<path d="M117.3,59.1c0-1.8,2.5-3.5,4.5-3.5c1.3,0,2.3,0.7,2.3,1.7c0,1.7-2.5,3.5-4.6,3.5C118.3,60.9,117.3,60.2,117.3,59.1z"/>
</g>
<rect x="131" y="71.5" width="0.5" height="12.7"/>
<g>
	<path d="M131.1,71.5c0-1.8,2.5-3.5,4.5-3.5c1.3,0,2.3,0.7,2.3,1.7c0,1.7-2.5,3.5-4.6,3.5C132,73.3,131.1,72.6,131.1,71.5z"/>
</g>
<rect x="144.8" y="66.5" width="0.5" height="16.1"/>
<g>
	<path d="M144.9,66.6c0-1.8,2.5-3.5,4.5-3.5c1.3,0,2.3,0.7,2.3,1.7c0,1.7-2.5,3.5-4.6,3.5C145.8,68.3,144.9,67.7,144.9,66.6z"/>
</g>
<rect x="158.6" y="59.1" width="0.5" height="21.9"/>
<g>
	<path d="M158.7,59.1c0-1.8,2.5-3.5,4.5-3.5c1.3,0,2.3,0.7,2.3,1.7c0,1.7-2.5,3.5-4.6,3.5C159.6,60.9,158.7,60.2,158.7,59.1z"/>
</g>
<rect x="170.5" y="52.9" width="10.5" height="0.8"/>
<rect x="172.2" y="54.1" width="0.5" height="25.1"/>
<g>
	<path d="M172.3,54.2c0-1.8,2.5-3.5,4.5-3.5c1.3,0,2.3,0.7,2.3,1.7c0,1.7-2.5,3.5-4.6,3.5C173.3,55.9,172.3,55.3,172.3,54.2z"/>
</g>
<rect x="186" y="66.5" width="0.5" height="16.4"/>
<g>
	<path d="M186.1,66.6c0-1.8,2.5-3.5,4.5-3.5c1.3,0,2.3,0.7,2.3,1.7c0,1.7-2.5,3.5-4.6,3.5C187.1,68.3,186.1,67.7,186.1,66.6z"/>
</g>
<rect x="199.8" y="59.1" width="0.5" height="22.3"/>
<g>
	<path d="M199.9,59.1c0-1.8,2.5-3.5,4.5-3.5c1.3,0,2.3,0.7,2.3,1.7c0,1.7-2.5,3.5-4.6,3.5C200.9,60.9,199.9,60.2,199.9,59.1z"/>
</g>
<rect x="211.8" y="52.9" width="10.5" height="0.8"/>
<rect x="213.6" y="54.1" width="0.5" height="25.6"/>
<g>
	<path d="M213.7,54.2c0-1.8,2.5-3.5,4.5-3.5c1.3,0,2.3,0.7,2.3,1.7c0,1.7-2.5,3.5-4.6,3.5C214.7,55.9,213.7,55.3,213.7,54.2z"/>
</g>
<rect x="225.5" y="52.9" width="10.5" height="0.8"/>
<rect x="225.5" y="48" width="10.5" height="0.8"/>
<rect x="227.3" y="49.1" width="0.5" height="28.8"/>
<g>
	<path d="M227.3,49.2c0-1.8,2.5-3.5,4.5-3.5c1.3,0,2.3,0.7,2.3,1.7c0,1.7-2.5,3.5-4.6,3.5C228.3,50.9,227.3,50.3,227.3,49.2z"/>
</g>
<rect x="253.7" y="82.7" width="10.5" height="0.8"/>
<rect x="253.7" y="87.7" width="10.5" height="0.8"/>
<rect x="262" y="58.4" width="0.5" height="28.8"/>
<g>
	<path d="M255.6,88.9c0-1.8,2.5-3.5,4.5-3.5c1.3,0,2.3,0.7,2.3,1.7c0,1.7-2.5,3.5-4.6,3.5C256.5,90.6,255.6,90,255.6,88.9z"/>
</g>
<rect x="267.5" y="82.7" width="10.5" height="0.8"/>
<rect x="275.8" y="56.9" width="0.5" height="25.4"/>
<g>
	<path d="M269.4,83.9c0-1.8,2.5-3.5,4.5-3.5c1.3,0,2.3,0.7,2.3,1.7c0,1.7-2.5,3.5-4.6,3.5C270.3,85.7,269.4,85,269.4,83.9z"/>
</g>
<rect x="289.6" y="55.2" width="0.5" height="22.2"/>
<g>
	<path d="M283.1,79c0-1.8,2.5-3.5,4.5-3.5c1.3,0,2.3,0.7,2.3,1.7c0,1.7-2.5,3.5-4.6,3.5C284.1,80.7,283.1,80.1,283.1,79z"/>
</g>
<rect x="303.4" y="53.5" width="0.5" height="16.4"/>
<g>
	<path d="M296.9,71.5c0-1.8,2.5-3.5,4.5-3.5c1.3,0,2.3,0.7,2.3,1.7c0,1.7-2.5,3.5-4.6,3.5C297.9,73.3,296.9,72.6,296.9,71.5z"/>
</g>
<rect x="317" y="53.5" width="0.5" height="16.4"/>
<g>
	<path d="M310.6,71.5c0-1.8,2.5-3.5,4.5-3.5c1.3,0,2.3,0.7,2.3,1.7c0,1.7-2.5,3.5-4.6,3.5C311.6,73.3,310.6,72.6,310.6,71.5z"/>
</g>
<rect x="330.8" y="55" width="0.5" height="22.3"/>
<g>
	<path d="M324.4,79c0-1.8,2.5-3.5,4.5-3.5c1.3,0,2.3,0.7,2.3,1.7c0,1.7-2.5,3.5-4.6,3.5C325.4,80.7,324.4,80.1,324.4,79z"/>
</g>
<rect x="336.3" y="82.7" width="10.5" height="0.8"/>
<rect x="344.6" y="56.7" width="0.5" height="25.6"/>
<g>
	<path d="M338.2,83.9c0-1.8,2.5-3.5,4.5-3.5c1.3,0,2.3,0.7,2.3,1.7c0,1.7-2.5,3.5-4.6,3.5C339.1,85.7,338.2,85,338.2,83.9z"/>
</g>
<rect x="350.1" y="82.7" width="10.5" height="0.8"/>
<rect x="350.1" y="87.7" width="10.5" height="0.8"/>
<rect x="358.4" y="58.4" width="0.5" height="28.8"/>
<g>
	<path d="M352,88.9c0-1.8,2.5-3.5,4.5-3.5c1.3,0,2.3,0.7,2.3,1.7c0,1.7-2.5,3.5-4.6,3.5C352.9,90.6,352,90,352,88.9z"/>
</g>
<rect x="378.3" y="52.9" width="10.5" height="0.8"/>
<rect x="378.3" y="48" width="10.5" height="0.8"/>
<rect x="380.1" y="49.1" width="0.5" height="28.8"/>
<g>
	<path d="M380.2,49.2c0-1.8,2.5-3.5,4.5-3.5c1.3,0,2.3,0.7,2.3,1.7c0,1.7-2.5,3.5-4.6,3.5C381.2,50.9,380.2,50.3,380.2,49.2z"/>
</g>
<rect x="392.1" y="52.9" width="10.5" height="0.8"/>
<rect x="393.9" y="54.1" width="0.5" height="25.4"/>
<g>
	<path d="M394,54.2c0-1.8,2.5-3.5,4.5-3.5c1.3,0,2.3,0.7,2.3,1.7c0,1.7-2.5,3.5-4.6,3.5C395,55.9,394,55.3,394,54.2z"/>
</g>
<rect x="407.5" y="59.1" width="0.5" height="22.2"/>
<g>
	<path d="M407.6,59.1c0-1.8,2.5-3.5,4.5-3.5c1.3,0,2.3,0.7,2.3,1.7c0,1.7-2.5,3.5-4.6,3.5C408.6,60.9,407.6,60.2,407.6,59.1z"/>
</g>
<rect x="421.3" y="66.5" width="0.5" height="16.4"/>
<g>
	<path d="M421.4,66.6c0-1.8,2.5-3.5,4.5-3.5c1.3,0,2.3,0.7,2.3,1.7c0,1.7-2.5,3.5-4.6,3.5C422.4,68.3,421.4,67.7,421.4,66.6z"/>
</g>
<rect x="433.4" y="52.9" width="10.5" height="0.8"/>
<rect x="435.1" y="54.1" width="0.5" height="25.1"/>
<g>
	<path d="M435.2,54.2c0-1.8,2.5-3.5,4.5-3.5c1.3,0,2.3,0.7,2.3,1.7c0,1.7-2.5,3.5-4.6,3.5C436.2,55.9,435.2,55.3,435.2,54.2z"/>
</g>
<rect x="448.9" y="59.1" width="0.5" height="21.7"/>
<g>
	<path d="M449,59.1c0-1.8,2.5-3.5,4.5-3.5c1.3,0,2.3,0.7,2.3,1.7c0,1.7-2.5,3.5-4.6,3.5C450,60.9,449,60.2,449,59.1z"/>
</g>
<rect x="462.6" y="66.5" width="0.5" height="16"/>
<g>
	<path d="M462.7,66.6c0-1.8,2.5-3.5,4.5-3.5c1.3,0,2.3,0.7,2.3,1.7c0,1.7-2.5,3.5-4.6,3.5C463.6,68.3,462.7,67.7,462.7,66.6z"/>
</g>
<rect x="476.4" y="71.5" width="0.5" height="12.7"/>
<g>
	<path d="M476.4,71.5c0-1.8,2.5-3.5,4.5-3.5c1.3,0,2.3,0.7,2.3,1.7c0,1.7-2.5,3.5-4.6,3.5C477.4,73.3,476.4,72.6,476.4,71.5z"/>
</g>
<rect x="490.2" y="59.1" width="0.5" height="25.1"/>
<g>
	<path d="M490.2,59.1c0-1.8,2.5-3.5,4.5-3.5c1.3,0,2.3,0.7,2.3,1.7c0,1.7-2.5,3.5-4.6,3.5C491.2,60.9,490.2,60.2,490.2,59.1z"/>
</g>
<rect x="504" y="66.5" width="0.5" height="19.2"/>
<g>
	<path d="M504,66.6c0-1.8,2.5-3.5,4.5-3.5c1.3,0,2.3,0.7,2.3,1.7c0,1.7-2.5,3.5-4.6,3.5C505,68.3,504,67.7,504,66.6z"/>
</g>
<rect x="517.6" y="71.5" width="0.5" height="16"/>
<g>
	<path d="M517.7,71.5c0-1.8,2.5-3.5,4.5-3.5c1.3,0,2.3,0.7,2.3,1.7c0,1.7-2.5,3.5-4.6,3.5C518.7,73.3,517.7,72.6,517.7,71.5z"/>
</g>
<rect x="531.4" y="76.4" width="0.5" height="12.7"/>
<g>
	<path d="M531.5,76.5c0-1.8,2.5-3.5,4.5-3.5c1.3,0,2.3,0.7,2.3,1.7c0,1.7-2.5,3.5-4.6,3.5C532.5,78.2,531.5,77.6,531.5,76.5z"/>
</g>
</svg>
