<?xml version="1.0" encoding="utf-8"?>

<!--
	ScaleBook
	Copyright (c) Leland Jansen 2015. All rights reserved.
-->

<!DOCTYPE svg PUBLIC "-//W3C//DTD SVG 1.1//EN" "http://www.w3.org/Graphics/SVG/1.1/DTD/svg11.dtd">
<svg version="1.1" id="Layer_1" xmlns="http://www.w3.org/2000/svg" xmlns:xlink="http://www.w3.org/1999/xlink" x="0px" y="0px"
	 viewBox="0 0 552.9 87.5" enable-background="new 0 0 552.9 87.5" xml:space="preserve">
<rect x="8.4" y="10" width="0.8" height="67.4"/>
<g>
	<path d="M7.4,10.7c-1.9,1.1-3.6,5.8-3.6,9.5c0,2.3,1.4,10,1.4,12.3c0,5-1.5,8.7-4.6,11.2c3,2.4,4.6,6.1,4.6,11.1
		c0,2.3-1.4,10-1.4,12.3c0,3.8,1.7,8.5,3.6,9.6v0.7c-3.5-2.3-5.8-8.3-5.8-13.1c0-2.2,1.7-9.4,1.7-11.6c0-3.8-1-6.6-2.9-8.3
		C0.1,44.2,0,44,0,43.8c0-0.2,0.1-0.4,0.5-0.7c1.9-1.7,2.9-4.2,2.9-7.6c0-2.2-1.7-10.1-1.7-12.3C1.7,18,3.7,12.7,7.4,10V10.7z"/>
</g>
<rect x="547.8" y="10" width="0.8" height="67.4"/>
<rect x="550.4" y="10" width="2.5" height="67.4"/>
<rect x="8.5" y="29.6" width="544.4" height="0.5"/>
<rect x="8.5" y="24.7" width="544.4" height="0.5"/>
<rect x="8.5" y="19.7" width="544.4" height="0.5"/>
<rect x="8.5" y="14.8" width="544.4" height="0.5"/>
<rect x="8.5" y="9.8" width="544.4" height="0.5"/>
<g>
	<path d="M20.3,29.7c-4.2,0-8.1-3.1-8.1-6.9c0-3.2,2.3-6.7,6.8-10.5c-0.3-1.2-0.4-2.4-0.4-3.6c0-3.5,1.2-6.8,3.2-8.5
		c1.8,2.5,2.7,4.9,2.7,7.1c0,2.9-1.3,5.6-4.3,8.1l0.9,4.2c0.5,0,0.8-0.1,0.8-0.1c2.6,0,4.8,2,4.8,4.7c0,1.9-1.4,3.7-3.6,4.8
		c0-0.1,0.9,3.8,0.9,4.3c0,2.5-2.3,4.2-4.9,4.2c-2,0-3.6-1.3-3.6-3.4c0-1.4,1-2.6,2.4-2.6c1.3,0,2.3,1.3,2.3,2.5
		c0,1.4-1.2,2.3-2.7,2.5c0.6,0.3,1.2,0.5,1.9,0.5c2.1,0,4.1-1.6,4.1-3.6c0-0.2,0-0.4-0.1-0.6l-0.8-3.7
		C21.9,29.6,21.2,29.7,20.3,29.7z M18.1,24.5c0,1,0.5,1.9,1.6,2.5c-1.8-0.3-3-1.4-3-3.1c0-2,1.7-3.7,3.8-4.1l-0.8-4
		C16,18.6,14,21.3,14,23.9c0,2.9,2.8,5.3,6,5.3c0.9,0,1.7-0.2,2.4-0.5L21,21.9C19.4,22.1,18.1,23.1,18.1,24.5z M22.1,3.2
		c-1.6,0-2.9,3.7-2.9,7c0,0.7,0,1.3,0.2,1.9c2.7-2.4,4-4.5,4-6.5c0-0.9-0.3-1.7-1-2.4C22.4,3.2,22.3,3.2,22.1,3.2z M24.9,25
		c0-1.6-1.2-3.3-2.9-3.3c-0.1,0-0.2,0-0.5,0l1.4,6.6C24.2,27.5,24.9,26.3,24.9,25z"/>
</g>
<g>
	<path d="M33.5,3.2v2.8l1-0.3v1.8l-1,0.3v3.4l1-0.3v1.8l-1,0.3v3.1H33v-3l-1.9,0.6v3h-0.5V14l-1,0.3v-1.8l1-0.3V8.8l-1,0.3V7.3
		l1-0.3V3.9h0.5v3L33,6.2v-3H33.5z M33,8l-1.9,0.6v3.4l1.9-0.6V8z"/>
</g>
<g>
	<path d="M39.7,10.7v2.8l1-0.3V15l-1,0.3v3.4l1-0.3v1.8l-1,0.3v3.1h-0.5v-3l-1.9,0.6v3h-0.5v-2.8l-1,0.3V20l1-0.3v-3.4l-1,0.3v-1.8
		l1-0.3v-3.1h0.5v3l1.9-0.6v-3H39.7z M39.2,15.4l-1.9,0.6v3.4l1.9-0.6V15.4z"/>
</g>
<polygon fill-rule="evenodd" clip-rule="evenodd" points="56,16.2 100.1,11.3 100.1,8.8 56,13.8 "/>
<polygon fill-rule="evenodd" clip-rule="evenodd" points="56,12.5 100.1,7.6 100.1,5.1 56,10 "/>
<polygon fill-rule="evenodd" clip-rule="evenodd" points="114.6,11.3 158.7,6.3 158.7,3.8 114.6,8.8 "/>
<polygon fill-rule="evenodd" clip-rule="evenodd" points="114.6,7.6 158.7,2.6 158.7,0.1 114.6,5.1 "/>
<polygon fill-rule="evenodd" clip-rule="evenodd" points="166.7,37.3 210.8,32.4 210.8,29.9 166.7,34.8 "/>
<polygon fill-rule="evenodd" clip-rule="evenodd" points="166.7,41 210.8,36.1 210.8,33.6 166.7,38.6 "/>
<polygon fill-rule="evenodd" clip-rule="evenodd" points="239,31.1 282.8,26.2 282.8,23.7 239,28.6 "/>
<polygon fill-rule="evenodd" clip-rule="evenodd" points="239,34.8 282.8,29.9 282.8,27.4 239,32.4 "/>
<polygon fill-rule="evenodd" clip-rule="evenodd" points="297.6,26.2 341.4,31.1 341.4,28.6 297.6,23.7 "/>
<polygon fill-rule="evenodd" clip-rule="evenodd" points="297.6,29.9 341.4,34.8 341.4,32.4 297.6,27.4 "/>
<polygon fill-rule="evenodd" clip-rule="evenodd" points="369.6,32.4 413.7,37.3 413.7,34.8 369.6,29.9 "/>
<polygon fill-rule="evenodd" clip-rule="evenodd" points="369.6,36.1 413.7,41 413.7,38.6 369.6,33.6 "/>
<polygon fill-rule="evenodd" clip-rule="evenodd" points="434.8,6.3 478.8,11.3 478.8,8.8 434.8,3.8 "/>
<polygon fill-rule="evenodd" clip-rule="evenodd" points="434.8,2.6 478.8,7.6 478.8,5.1 434.8,0.1 "/>
<polygon fill-rule="evenodd" clip-rule="evenodd" points="493.3,11.3 537.4,16.2 537.4,13.8 493.3,8.8 "/>
<polygon fill-rule="evenodd" clip-rule="evenodd" points="493.3,7.6 537.4,12.5 537.4,10 493.3,5.1 "/>
<rect x="8.5" y="77.2" width="544.4" height="0.5"/>
<rect x="8.5" y="72.3" width="544.4" height="0.5"/>
<rect x="8.5" y="67.3" width="544.4" height="0.5"/>
<rect x="8.5" y="62.4" width="544.4" height="0.5"/>
<rect x="8.5" y="57.4" width="544.4" height="0.5"/>
<g>
	<path d="M15.7,71.8c2.9-2.6,4.7-6.1,4.7-9.2c0-2.5-1.4-4.4-3.7-4.4c-1.6,0-3.4,1.3-3.4,2.7c0,0.2,0,0.3,0.1,0.3
		c-0.1,0,0.6-0.6,1.4-0.6c0.9,0,1.5,0.8,1.5,1.7c0,1.2-0.9,2.2-2.1,2.2c-1.2,0-2.1-1.3-2.1-2.8c0-2.3,2.3-4.1,4.8-4.1
		c4.7,0,5.9,3.2,5.9,5.8c0,1.6-0.4,2.9-2,5.3C19.1,71.8,14.6,74,13,74c-0.4,0-0.6-0.2-0.6-0.5C13.8,73.1,14.9,72.5,15.7,71.8z
		 M25.7,59.1c0.6,0,1,0.4,1,1s-0.4,1-1,1s-1-0.4-1-1S25.1,59.1,25.7,59.1z M25.7,64.1c0.6,0,1,0.4,1,1c0,0.6-0.4,1-1,1s-1-0.4-1-1
		C24.7,64.5,25.1,64.1,25.7,64.1z"/>
</g>
<g>
	<path d="M33.5,55.8v2.8l1-0.3v1.8l-1,0.3v3.4l1-0.3v1.8l-1,0.3v3.1H33v-3l-1.9,0.6v3h-0.5v-2.8l-1,0.3v-1.8l1-0.3v-3.4l-1,0.3v-1.8
		l1-0.3v-3.1h0.5v3l1.9-0.6v-3H33.5z M33,60.5l-1.9,0.6v3.4L33,64V60.5z"/>
</g>
<g>
	<path d="M39.7,63.2V66l1-0.3v1.8l-1,0.3v3.4l1-0.3v1.8l-1,0.3v3.1h-0.5v-3l-1.9,0.6v3h-0.5V74l-1,0.3v-1.8l1-0.3v-3.4l-1,0.3v-1.8
		l1-0.3v-3.1h0.5v3l1.9-0.6v-3H39.7z M39.2,68l-1.9,0.6v3.4l1.9-0.6V68z"/>
</g>
<polygon fill-rule="evenodd" clip-rule="evenodd" points="49.5,83.7 93.6,78.7 93.6,76.2 49.5,81.2 "/>
<polygon fill-rule="evenodd" clip-rule="evenodd" points="49.5,87.4 93.6,82.4 93.6,79.9 49.5,84.9 "/>
<polygon fill-rule="evenodd" clip-rule="evenodd" points="108.1,78.7 152.2,73.7 152.2,71.3 108.1,76.2 "/>
<polygon fill-rule="evenodd" clip-rule="evenodd" points="108.1,82.4 152.2,77.5 152.2,75 108.1,79.9 "/>
<g>
	<path d="M230.9,76.1c-3.2,0-6.1-2.3-6.1-5.1c0-2.4,1.7-5,5.1-7.9c-0.2-0.9-0.3-1.8-0.3-2.7c0-2.6,0.9-5.1,2.4-6.3
		c1.4,1.9,2,3.7,2,5.3c0,2.2-1,4.2-3.2,6.1l0.7,3.1c0.4,0,0.6,0,0.6,0c2,0,3.6,1.5,3.6,3.5c0,1.4-1.1,2.8-2.7,3.6
		c0-0.1,0.6,2.8,0.6,3.3c0,1.9-1.7,3.2-3.7,3.2c-1.5,0-2.7-1-2.7-2.5c0-1.1,0.7-1.9,1.8-1.9c1,0,1.7,1,1.7,1.9c0,1-0.9,1.7-2,1.8
		c0.4,0.2,0.9,0.3,1.4,0.3c1.6,0,3.1-1.2,3.1-2.7c0-0.1,0-0.3,0-0.5l-0.6-2.8C232.2,76,231.6,76.1,230.9,76.1z M229.3,72.2
		c0,0.8,0.4,1.4,1.2,1.9c-1.3-0.2-2.2-1.1-2.2-2.3c0-1.5,1.3-2.8,2.9-3.1l-0.6-3c-2.8,2.1-4.3,4.1-4.3,6.1c0,2.2,2.1,4,4.5,4
		c0.7,0,1.3-0.1,1.8-0.4l-1.1-5.1C230.2,70.4,229.3,71.2,229.3,72.2z M232.3,56.2c-1.2,0-2.2,2.8-2.2,5.3c0,0.5,0,1,0.1,1.4
		c2-1.8,3-3.4,3-4.8c0-0.7-0.3-1.3-0.7-1.8C232.5,56.2,232.4,56.2,232.3,56.2z M234.4,72.6c0-1.2-0.9-2.4-2.2-2.4c0,0-0.2,0-0.4,0
		l1.1,5C233.9,74.4,234.4,73.6,234.4,72.6z"/>
</g>
<polygon fill-rule="evenodd" clip-rule="evenodd" points="166.7,73.7 210.8,68.8 210.8,66.3 166.7,71.3 "/>
<polygon fill-rule="evenodd" clip-rule="evenodd" points="166.7,77.5 210.8,72.5 210.8,70 166.7,75 "/>
<polygon fill-rule="evenodd" clip-rule="evenodd" points="245.5,63.8 289.3,58.9 289.3,56.4 245.5,61.3 "/>
<polygon fill-rule="evenodd" clip-rule="evenodd" points="245.5,60.1 289.3,55.1 289.3,52.7 245.5,57.6 "/>
<g>
	<path d="M358.2,69.5c2.2-2,3.6-4.6,3.6-6.9c0-1.9-1.1-3.3-2.8-3.3c-1.2,0-2.5,1-2.5,2.1c0,0.2,0,0.2,0.1,0.2c0,0,0.4-0.5,1-0.5
		c0.7,0,1.2,0.6,1.2,1.3c0,0.9-0.6,1.7-1.6,1.7s-1.5-1-1.5-2.1c0-1.8,1.7-3.1,3.6-3.1c3.5,0,4.4,2.4,4.4,4.4c0,1.2-0.3,2.2-1.5,4
		c-1.4,2.3-4.8,4-6,4c-0.3,0-0.5-0.1-0.5-0.3C356.8,70.5,357.6,70,358.2,69.5z M365.7,60c0.4,0,0.7,0.3,0.7,0.7
		c0,0.4-0.3,0.7-0.7,0.7c-0.4,0-0.7-0.3-0.7-0.7C364.9,60.3,365.2,60,365.7,60z M365.7,63.7c0.4,0,0.7,0.3,0.7,0.7
		c0,0.4-0.3,0.7-0.7,0.7c-0.4,0-0.7-0.3-0.7-0.7C364.9,64,365.2,63.7,365.7,63.7z"/>
</g>
<polygon fill-rule="evenodd" clip-rule="evenodd" points="304.1,58.9 347.9,63.8 347.9,61.3 304.1,56.4 "/>
<polygon fill-rule="evenodd" clip-rule="evenodd" points="304.1,55.1 347.9,60.1 347.9,57.6 304.1,52.7 "/>
<polygon fill-rule="evenodd" clip-rule="evenodd" points="369.6,68.8 413.7,73.7 413.7,71.3 369.6,66.3 "/>
<polygon fill-rule="evenodd" clip-rule="evenodd" points="369.6,72.5 413.7,77.5 413.7,75 369.6,70 "/>
<polygon fill-rule="evenodd" clip-rule="evenodd" points="428.2,73.7 472.3,78.7 472.3,76.2 428.2,71.3 "/>
<polygon fill-rule="evenodd" clip-rule="evenodd" points="428.2,77.5 472.3,82.4 472.3,79.9 428.2,75 "/>
<polygon fill-rule="evenodd" clip-rule="evenodd" points="486.8,78.7 530.9,83.7 530.9,81.2 486.8,76.2 "/>
<polygon fill-rule="evenodd" clip-rule="evenodd" points="486.8,82.4 530.9,87.4 530.9,84.9 486.8,79.9 "/>
<rect x="47.5" y="34.5" width="10.5" height="0.8"/>
<rect x="55.8" y="10.2" width="0.5" height="26.4"/>
<g>
	<path d="M49.4,38.2c0-1.8,2.5-3.5,4.5-3.5c1.3,0,2.3,0.7,2.3,1.7c0,1.7-2.5,3.5-4.6,3.5C50.4,39.9,49.4,39.3,49.4,38.2z"/>
</g>
<rect x="70.5" y="8.6" width="0.5" height="22.9"/>
<g>
	<path d="M64.1,33.2c0-1.8,2.5-3.5,4.5-3.5c1.3,0,2.3,0.7,2.3,1.7c0,1.7-2.5,3.5-4.6,3.5C65.1,34.9,64.1,34.3,64.1,33.2z"/>
</g>
<rect x="85.1" y="6.9" width="0.5" height="19.7"/>
<g>
	<path d="M78.7,28.3c0-1.8,2.5-3.5,4.5-3.5c1.3,0,2.3,0.7,2.3,1.7c0,1.7-2.5,3.5-4.6,3.5C79.7,30,78.7,29.3,78.7,28.3z"/>
</g>
<rect x="99.8" y="5.2" width="0.5" height="14"/>
<g>
	<path d="M93.4,20.8c0-1.8,2.5-3.5,4.5-3.5c1.3,0,2.3,0.7,2.3,1.7c0,1.7-2.5,3.5-4.6,3.5C94.4,22.5,93.4,21.9,93.4,20.8z"/>
</g>
<rect x="114.4" y="5.2" width="0.5" height="26.4"/>
<g>
	<path d="M108,33.2c0-1.8,2.5-3.5,4.5-3.5c1.3,0,2.3,0.7,2.3,1.7c0,1.7-2.5,3.5-4.6,3.5C109,34.9,108,34.3,108,33.2z"/>
</g>
<rect x="129.1" y="3.7" width="0.5" height="22.9"/>
<g>
	<path d="M122.7,28.3c0-1.8,2.5-3.5,4.5-3.5c1.3,0,2.3,0.7,2.3,1.7c0,1.7-2.5,3.5-4.6,3.5C123.7,30,122.7,29.3,122.7,28.3z"/>
</g>
<rect x="143.7" y="2" width="0.5" height="17.2"/>
<g>
	<path d="M137.3,20.8c0-1.8,2.5-3.5,4.5-3.5c1.3,0,2.3,0.7,2.3,1.7c0,1.7-2.5,3.5-4.6,3.5C138.2,22.5,137.3,21.9,137.3,20.8z"/>
</g>
<rect x="158.4" y="0.3" width="0.5" height="14"/>
<g>
	<path d="M152,15.9c0-1.8,2.5-3.5,4.5-3.5c1.3,0,2.3,0.7,2.3,1.7c0,1.7-2.5,3.5-4.6,3.5C153,17.6,152,16.9,152,15.9z"/>
</g>
<rect x="166.5" y="28.2" width="0.5" height="12.7"/>
<g>
	<path d="M166.6,28.3c0-1.8,2.5-3.5,4.5-3.5c1.3,0,2.3,0.7,2.3,1.7c0,1.7-2.5,3.5-4.6,3.5C167.5,30,166.6,29.3,166.6,28.3z"/>
</g>
<rect x="181.2" y="20.7" width="0.5" height="18.6"/>
<g>
	<path d="M181.3,20.8c0-1.8,2.5-3.5,4.5-3.5c1.3,0,2.3,0.7,2.3,1.7c0,1.7-2.5,3.5-4.6,3.5C182.3,22.5,181.3,21.9,181.3,20.8z"/>
</g>
<rect x="195.8" y="15.8" width="0.5" height="21.9"/>
<g>
	<path d="M195.9,15.9c0-1.8,2.5-3.5,4.5-3.5c1.3,0,2.3,0.7,2.3,1.7c0,1.7-2.5,3.5-4.6,3.5C196.8,17.6,195.9,16.9,195.9,15.9z"/>
</g>
<rect x="210.5" y="10.8" width="0.5" height="25.1"/>
<g>
	<path d="M210.6,10.9c0-1.8,2.5-3.5,4.5-3.5c1.3,0,2.3,0.7,2.3,1.7c0,1.7-2.5,3.5-4.6,3.5C211.6,12.6,210.6,12,210.6,10.9z"/>
</g>
<rect x="238.7" y="20.7" width="0.5" height="14"/>
<g>
	<path d="M238.8,20.8c0-1.8,2.5-3.5,4.5-3.5c1.3,0,2.3,0.7,2.3,1.7c0,1.7-2.5,3.5-4.6,3.5C239.8,22.5,238.8,21.9,238.8,20.8z"/>
</g>
<rect x="253.3" y="15.8" width="0.5" height="17.4"/>
<g>
	<path d="M253.4,15.9c0-1.8,2.5-3.5,4.5-3.5c1.3,0,2.3,0.7,2.3,1.7c0,1.7-2.5,3.5-4.6,3.5C254.4,17.6,253.4,16.9,253.4,15.9z"/>
</g>
<rect x="268" y="10.8" width="0.5" height="20.6"/>
<g>
	<path d="M268.1,10.9c0-1.8,2.5-3.5,4.5-3.5c1.3,0,2.3,0.7,2.3,1.7c0,1.7-2.5,3.5-4.6,3.5C269.1,12.6,268.1,12,268.1,10.9z"/>
</g>
<rect x="280.8" y="4.7" width="10.5" height="0.8"/>
<rect x="282.6" y="3.4" width="0.5" height="26.4"/>
<g>
	<path d="M282.7,3.5c0-1.8,2.5-3.5,4.5-3.5c1.3,0,2.3,0.7,2.3,1.7c0,1.7-2.5,3.5-4.6,3.5C283.7,5.2,282.7,4.5,282.7,3.5z"/>
</g>
<rect x="295.5" y="4.7" width="10.5" height="0.8"/>
<rect x="297.3" y="3.4" width="0.5" height="26.4"/>
<g>
	<path d="M297.4,3.5c0-1.8,2.5-3.5,4.5-3.5c1.3,0,2.3,0.7,2.3,1.7c0,1.7-2.5,3.5-4.6,3.5C298.4,5.2,297.4,4.5,297.4,3.5z"/>
</g>
<rect x="311.9" y="10.8" width="0.5" height="20.5"/>
<g>
	<path d="M312,10.9c0-1.8,2.5-3.5,4.5-3.5c1.3,0,2.3,0.7,2.3,1.7c0,1.7-2.5,3.5-4.6,3.5C313,12.6,312,12,312,10.9z"/>
</g>
<rect x="326.6" y="15.8" width="0.5" height="17.2"/>
<g>
	<path d="M326.7,15.9c0-1.8,2.5-3.5,4.5-3.5c1.3,0,2.3,0.7,2.3,1.7c0,1.7-2.5,3.5-4.6,3.5C327.7,17.6,326.7,16.9,326.7,15.9z"/>
</g>
<rect x="341.2" y="20.7" width="0.5" height="14"/>
<g>
	<path d="M341.3,20.8c0-1.8,2.5-3.5,4.5-3.5c1.3,0,2.3,0.7,2.3,1.7c0,1.7-2.5,3.5-4.6,3.5C342.2,22.5,341.3,21.9,341.3,20.8z"/>
</g>
<rect x="369.4" y="10.8" width="0.5" height="25.1"/>
<g>
	<path d="M369.5,10.9c0-1.8,2.5-3.5,4.5-3.5c1.3,0,2.3,0.7,2.3,1.7c0,1.7-2.5,3.5-4.6,3.5C370.5,12.6,369.5,12,369.5,10.9z"/>
</g>
<rect x="384.1" y="15.8" width="0.5" height="21.7"/>
<g>
	<path d="M384.2,15.9c0-1.8,2.5-3.5,4.5-3.5c1.3,0,2.3,0.7,2.3,1.7c0,1.7-2.5,3.5-4.6,3.5C385.2,17.6,384.2,16.9,384.2,15.9z"/>
</g>
<rect x="398.7" y="20.7" width="0.5" height="18.4"/>
<g>
	<path d="M398.8,20.8c0-1.8,2.5-3.5,4.5-3.5c1.3,0,2.3,0.7,2.3,1.7c0,1.7-2.5,3.5-4.6,3.5C399.8,22.5,398.8,21.9,398.8,20.8z"/>
</g>
<rect x="413.4" y="28.2" width="0.5" height="12.7"/>
<g>
	<path d="M413.5,28.3c0-1.8,2.5-3.5,4.5-3.5c1.3,0,2.3,0.7,2.3,1.7c0,1.7-2.5,3.5-4.6,3.5C414.5,30,413.5,29.3,413.5,28.3z"/>
</g>
<rect x="434.5" y="0.3" width="0.5" height="14"/>
<g>
	<path d="M428.1,15.9c0-1.8,2.5-3.5,4.5-3.5c1.3,0,2.3,0.7,2.3,1.7c0,1.7-2.5,3.5-4.6,3.5C429.1,17.6,428.1,16.9,428.1,15.9z"/>
</g>
<rect x="449.2" y="1.8" width="0.5" height="17.4"/>
<g>
	<path d="M442.8,20.8c0-1.8,2.5-3.5,4.5-3.5c1.3,0,2.3,0.7,2.3,1.7c0,1.7-2.5,3.5-4.6,3.5C443.8,22.5,442.8,21.9,442.8,20.8z"/>
</g>
<rect x="463.8" y="3.5" width="0.5" height="23.1"/>
<g>
	<path d="M457.4,28.3c0-1.8,2.5-3.5,4.5-3.5c1.3,0,2.3,0.7,2.3,1.7c0,1.7-2.5,3.5-4.6,3.5C458.4,30,457.4,29.3,457.4,28.3z"/>
</g>
<rect x="478.5" y="5.2" width="0.5" height="26.4"/>
<g>
	<path d="M472.1,33.2c0-1.8,2.5-3.5,4.5-3.5c1.3,0,2.3,0.7,2.3,1.7c0,1.7-2.5,3.5-4.6,3.5C473.1,34.9,472.1,34.3,472.1,33.2z"/>
</g>
<rect x="493.1" y="5.2" width="0.5" height="14"/>
<g>
	<path d="M486.7,20.8c0-1.8,2.5-3.5,4.5-3.5c1.3,0,2.3,0.7,2.3,1.7c0,1.7-2.5,3.5-4.6,3.5C487.7,22.5,486.7,21.9,486.7,20.8z"/>
</g>
<rect x="507.8" y="6.8" width="0.5" height="19.8"/>
<g>
	<path d="M501.4,28.3c0-1.8,2.5-3.5,4.5-3.5c1.3,0,2.3,0.7,2.3,1.7c0,1.7-2.5,3.5-4.6,3.5C502.4,30,501.4,29.3,501.4,28.3z"/>
</g>
<rect x="522.4" y="8.5" width="0.5" height="23.1"/>
<g>
	<path d="M516,33.2c0-1.8,2.5-3.5,4.5-3.5c1.3,0,2.3,0.7,2.3,1.7c0,1.7-2.5,3.5-4.6,3.5C517,34.9,516,34.3,516,33.2z"/>
</g>
<rect x="528.8" y="34.5" width="10.5" height="0.8"/>
<rect x="537.1" y="10.2" width="0.5" height="26.4"/>
<g>
	<path d="M530.7,38.2c0-1.8,2.5-3.5,4.5-3.5c1.3,0,2.3,0.7,2.3,1.7c0,1.7-2.5,3.5-4.6,3.5C531.7,39.9,530.7,39.3,530.7,38.2z"/>
</g>
<rect x="49.3" y="73.3" width="0.5" height="14"/>
<g>
	<path d="M49.4,73.4c0-1.8,2.5-3.5,4.5-3.5c1.3,0,2.3,0.7,2.3,1.7c0,1.7-2.5,3.5-4.6,3.5C50.4,75.1,49.4,74.5,49.4,73.4z"/>
</g>
<rect x="64" y="68.3" width="0.5" height="17.4"/>
<g>
	<path d="M64.1,68.4c0-1.8,2.5-3.5,4.5-3.5c1.3,0,2.3,0.7,2.3,1.7c0,1.7-2.5,3.5-4.6,3.5C65.1,70.1,64.1,69.5,64.1,68.4z"/>
</g>
<rect x="78.6" y="63.4" width="0.5" height="20.6"/>
<g>
	<path d="M78.7,63.4c0-1.8,2.5-3.5,4.5-3.5c1.3,0,2.3,0.7,2.3,1.7c0,1.7-2.5,3.5-4.6,3.5C79.7,65.2,78.7,64.5,78.7,63.4z"/>
</g>
<rect x="93.3" y="55.9" width="0.5" height="26.4"/>
<g>
	<path d="M93.4,56c0-1.8,2.5-3.5,4.5-3.5c1.3,0,2.3,0.7,2.3,1.7c0,1.7-2.5,3.5-4.6,3.5C94.4,57.7,93.4,57.1,93.4,56z"/>
</g>
<rect x="107.9" y="68.3" width="0.5" height="14"/>
<g>
	<path d="M108,68.4c0-1.8,2.5-3.5,4.5-3.5c1.3,0,2.3,0.7,2.3,1.7c0,1.7-2.5,3.5-4.6,3.5C109,70.1,108,69.5,108,68.4z"/>
</g>
<rect x="122.6" y="63.4" width="0.5" height="17.4"/>
<g>
	<path d="M122.7,63.4c0-1.8,2.5-3.5,4.5-3.5c1.3,0,2.3,0.7,2.3,1.7c0,1.7-2.5,3.5-4.6,3.5C123.7,65.2,122.7,64.5,122.7,63.4z"/>
</g>
<rect x="137.2" y="55.9" width="0.5" height="23.1"/>
<g>
	<path d="M137.3,56c0-1.8,2.5-3.5,4.5-3.5c1.3,0,2.3,0.7,2.3,1.7c0,1.7-2.5,3.5-4.6,3.5C138.2,57.7,137.3,57.1,137.3,56z"/>
</g>
<rect x="150.1" y="52.3" width="10.5" height="0.8"/>
<rect x="151.9" y="51" width="0.5" height="26.4"/>
<g>
	<path d="M152,51c0-1.8,2.5-3.5,4.5-3.5c1.3,0,2.3,0.7,2.3,1.7c0,1.7-2.5,3.5-4.6,3.5C153,52.8,152,52.1,152,51z"/>
</g>
<rect x="166.5" y="63.4" width="0.5" height="14"/>
<g>
	<path d="M166.6,63.4c0-1.8,2.5-3.5,4.5-3.5c1.3,0,2.3,0.7,2.3,1.7c0,1.7-2.5,3.5-4.6,3.5C167.5,65.2,166.6,64.5,166.6,63.4z"/>
</g>
<rect x="181.2" y="55.9" width="0.5" height="19.8"/>
<g>
	<path d="M181.3,56c0-1.8,2.5-3.5,4.5-3.5c1.3,0,2.3,0.7,2.3,1.7c0,1.7-2.5,3.5-4.6,3.5C182.3,57.7,181.3,57.1,181.3,56z"/>
</g>
<rect x="194" y="52.3" width="10.5" height="0.8"/>
<rect x="195.8" y="51" width="0.5" height="23.1"/>
<g>
	<path d="M195.9,51c0-1.8,2.5-3.5,4.5-3.5c1.3,0,2.3,0.7,2.3,1.7c0,1.7-2.5,3.5-4.6,3.5C196.8,52.8,195.9,52.1,195.9,51z"/>
</g>
<rect x="208.7" y="52.3" width="10.5" height="0.8"/>
<rect x="208.7" y="47.3" width="10.5" height="0.8"/>
<rect x="210.5" y="46" width="0.5" height="26.4"/>
<g>
	<path d="M210.6,46.1c0-1.8,2.5-3.5,4.5-3.5c1.3,0,2.3,0.7,2.3,1.7c0,1.7-2.5,3.5-4.6,3.5C211.6,47.8,210.6,47.2,210.6,46.1z"/>
</g>
<rect x="237" y="82" width="10.5" height="0.8"/>
<rect x="245.2" y="57.8" width="0.5" height="26.4"/>
<g>
	<path d="M238.8,85.8c0-1.8,2.5-3.5,4.5-3.5c1.3,0,2.3,0.7,2.3,1.7c0,1.7-2.5,3.5-4.6,3.5C239.8,87.5,238.8,86.9,238.8,85.8z"/>
</g>
<rect x="259.8" y="56.2" width="0.5" height="22.9"/>
<g>
	<path d="M253.4,80.8c0-1.8,2.5-3.5,4.5-3.5c1.3,0,2.3,0.7,2.3,1.7c0,1.7-2.5,3.5-4.6,3.5C254.4,82.5,253.4,81.9,253.4,80.8z"/>
</g>
<rect x="274.5" y="54.5" width="0.5" height="19.7"/>
<g>
	<path d="M268.1,75.8c0-1.8,2.5-3.5,4.5-3.5c1.3,0,2.3,0.7,2.3,1.7c0,1.7-2.5,3.5-4.6,3.5C269.1,77.6,268.1,76.9,268.1,75.8z"/>
</g>
<rect x="289.1" y="52.8" width="0.5" height="14"/>
<g>
	<path d="M282.7,68.4c0-1.8,2.5-3.5,4.5-3.5c1.3,0,2.3,0.7,2.3,1.7c0,1.7-2.5,3.5-4.6,3.5C283.7,70.1,282.7,69.5,282.7,68.4z"/>
</g>
<rect x="303.8" y="52.8" width="0.5" height="14"/>
<g>
	<path d="M297.4,68.4c0-1.8,2.5-3.5,4.5-3.5c1.3,0,2.3,0.7,2.3,1.7c0,1.7-2.5,3.5-4.6,3.5C298.4,70.1,297.4,69.5,297.4,68.4z"/>
</g>
<rect x="318.4" y="54.4" width="0.5" height="19.8"/>
<g>
	<path d="M312,75.8c0-1.8,2.5-3.5,4.5-3.5c1.3,0,2.3,0.7,2.3,1.7c0,1.7-2.5,3.5-4.6,3.5C313,77.6,312,76.9,312,75.8z"/>
</g>
<rect x="333.1" y="56.1" width="0.5" height="23.1"/>
<g>
	<path d="M326.7,80.8c0-1.8,2.5-3.5,4.5-3.5c1.3,0,2.3,0.7,2.3,1.7c0,1.7-2.5,3.5-4.6,3.5C327.7,82.5,326.7,81.9,326.7,80.8z"/>
</g>
<rect x="339.4" y="82" width="10.5" height="0.8"/>
<rect x="347.7" y="57.8" width="0.5" height="26.4"/>
<g>
	<path d="M341.3,85.8c0-1.8,2.5-3.5,4.5-3.5c1.3,0,2.3,0.7,2.3,1.7c0,1.7-2.5,3.5-4.6,3.5C342.2,87.5,341.3,86.9,341.3,85.8z"/>
</g>
<rect x="367.6" y="52.3" width="10.5" height="0.8"/>
<rect x="367.6" y="47.3" width="10.5" height="0.8"/>
<rect x="369.4" y="46" width="0.5" height="26.4"/>
<g>
	<path d="M369.5,46.1c0-1.8,2.5-3.5,4.5-3.5c1.3,0,2.3,0.7,2.3,1.7c0,1.7-2.5,3.5-4.6,3.5C370.5,47.8,369.5,47.2,369.5,46.1z"/>
</g>
<rect x="382.4" y="52.3" width="10.5" height="0.8"/>
<rect x="384.1" y="51" width="0.5" height="22.9"/>
<g>
	<path d="M384.2,51c0-1.8,2.5-3.5,4.5-3.5c1.3,0,2.3,0.7,2.3,1.7c0,1.7-2.5,3.5-4.6,3.5C385.2,52.8,384.2,52.1,384.2,51z"/>
</g>
<rect x="398.7" y="55.9" width="0.5" height="19.7"/>
<g>
	<path d="M398.8,56c0-1.8,2.5-3.5,4.5-3.5c1.3,0,2.3,0.7,2.3,1.7c0,1.7-2.5,3.5-4.6,3.5C399.8,57.7,398.8,57.1,398.8,56z"/>
</g>
<rect x="413.4" y="63.4" width="0.5" height="14"/>
<g>
	<path d="M413.5,63.4c0-1.8,2.5-3.5,4.5-3.5c1.3,0,2.3,0.7,2.3,1.7c0,1.7-2.5,3.5-4.6,3.5C414.5,65.2,413.5,64.5,413.5,63.4z"/>
</g>
<rect x="426.2" y="52.3" width="10.5" height="0.8"/>
<rect x="428" y="51" width="0.5" height="26.4"/>
<g>
	<path d="M428.1,51c0-1.8,2.5-3.5,4.5-3.5c1.3,0,2.3,0.7,2.3,1.7c0,1.7-2.5,3.5-4.6,3.5C429.1,52.8,428.1,52.1,428.1,51z"/>
</g>
<rect x="442.7" y="55.9" width="0.5" height="22.9"/>
<g>
	<path d="M442.8,56c0-1.8,2.5-3.5,4.5-3.5c1.3,0,2.3,0.7,2.3,1.7c0,1.7-2.5,3.5-4.6,3.5C443.8,57.7,442.8,57.1,442.8,56z"/>
</g>
<rect x="457.3" y="63.4" width="0.5" height="17.2"/>
<g>
	<path d="M457.4,63.4c0-1.8,2.5-3.5,4.5-3.5c1.3,0,2.3,0.7,2.3,1.7c0,1.7-2.5,3.5-4.6,3.5C458.4,65.2,457.4,64.5,457.4,63.4z"/>
</g>
<rect x="472" y="68.3" width="0.5" height="14"/>
<g>
	<path d="M472.1,68.4c0-1.8,2.5-3.5,4.5-3.5c1.3,0,2.3,0.7,2.3,1.7c0,1.7-2.5,3.5-4.6,3.5C473.1,70.1,472.1,69.5,472.1,68.4z"/>
</g>
<rect x="486.6" y="55.9" width="0.5" height="26.4"/>
<g>
	<path d="M486.7,56c0-1.8,2.5-3.5,4.5-3.5c1.3,0,2.3,0.7,2.3,1.7c0,1.7-2.5,3.5-4.6,3.5C487.7,57.7,486.7,57.1,486.7,56z"/>
</g>
<rect x="501.3" y="63.4" width="0.5" height="20.5"/>
<g>
	<path d="M501.4,63.4c0-1.8,2.5-3.5,4.5-3.5c1.3,0,2.3,0.7,2.3,1.7c0,1.7-2.5,3.5-4.6,3.5C502.4,65.2,501.4,64.5,501.4,63.4z"/>
</g>
<rect x="515.9" y="68.3" width="0.5" height="17.2"/>
<g>
	<path d="M516,68.4c0-1.8,2.5-3.5,4.5-3.5c1.3,0,2.3,0.7,2.3,1.7c0,1.7-2.5,3.5-4.6,3.5C517,70.1,516,69.5,516,68.4z"/>
</g>
<rect x="530.6" y="73.3" width="0.5" height="14"/>
<g>
	<path d="M530.7,73.4c0-1.8,2.5-3.5,4.5-3.5c1.3,0,2.3,0.7,2.3,1.7c0,1.7-2.5,3.5-4.6,3.5C531.7,75.1,530.7,74.5,530.7,73.4z"/>
</g>
</svg>
