<?xml version="1.0" encoding="utf-8"?>

<!--
	ScaleBook
	Copyright (c) Leland Jansen 2015. All rights reserved.
-->

<!DOCTYPE svg PUBLIC "-//W3C//DTD SVG 1.1//EN" "http://www.w3.org/Graphics/SVG/1.1/DTD/svg11.dtd">
<svg version="1.1" id="Layer_1" xmlns="http://www.w3.org/2000/svg" xmlns:xlink="http://www.w3.org/1999/xlink" x="0px" y="0px"
	 viewBox="0 0 553 96.2" enable-background="new 0 0 553 96.2" xml:space="preserve">
<rect x="8.5" y="17.5" width="0.8" height="68.7"/>
<g>
	<path d="M7.6,18.2c-2,1.1-3.7,5.9-3.7,9.7c0,2.3,1.4,10.2,1.4,12.6c0,5.1-1.6,8.9-4.7,11.4c3.1,2.5,4.7,6.2,4.7,11.3
		c0,2.3-1.4,10.2-1.4,12.6c0,3.9,1.8,8.7,3.7,9.8v0.7C4,83.8,1.7,77.7,1.7,72.8c0-2.2,1.8-9.6,1.8-11.8c0-3.9-1-6.7-3-8.4
		C0.1,52.2,0,52,0,51.8s0.1-0.4,0.5-0.7c2-1.7,3-4.3,3-7.8c0-2.2-1.8-10.3-1.8-12.5c0-5.3,2.1-10.6,5.9-13.4V18.2z"/>
</g>
<rect x="548" y="17.5" width="0.8" height="68.7"/>
<rect x="550.5" y="17.5" width="2.5" height="68.7"/>
<rect x="8.6" y="37.1" width="544.4" height="0.5"/>
<rect x="8.6" y="32.1" width="544.4" height="0.5"/>
<rect x="8.6" y="27.2" width="544.4" height="0.5"/>
<rect x="8.6" y="22.2" width="544.4" height="0.5"/>
<rect x="8.6" y="17.2" width="544.4" height="0.5"/>
<g>
	<path d="M20.4,37.2c-4.2,0-8.1-3.1-8.1-6.9c0-3.2,2.3-6.7,6.8-10.5c-0.3-1.2-0.4-2.4-0.4-3.6c0-3.5,1.2-6.8,3.2-8.5
		c1.8,2.5,2.7,4.9,2.7,7.1c0,2.9-1.3,5.6-4.3,8.1l0.9,4.2c0.5,0,0.8-0.1,0.8-0.1c2.6,0,4.8,2,4.8,4.7c0,1.9-1.4,3.7-3.6,4.8
		c0-0.1,0.9,3.8,0.9,4.3c0,2.5-2.3,4.2-4.9,4.2c-2,0-3.6-1.3-3.6-3.4c0-1.4,1-2.6,2.4-2.6c1.3,0,2.3,1.3,2.3,2.5
		c0,1.4-1.2,2.3-2.7,2.5c0.6,0.3,1.2,0.5,1.9,0.5c2.1,0,4.1-1.6,4.1-3.6c0-0.2,0-0.4-0.1-0.6l-0.8-3.7C22.1,37,21.4,37.2,20.4,37.2z
		 M18.2,31.9c0,1,0.5,1.9,1.6,2.5c-1.8-0.3-3-1.4-3-3.1c0-2,1.7-3.7,3.8-4.1l-0.8-4c-3.7,2.8-5.7,5.5-5.7,8.1c0,2.9,2.8,5.3,6,5.3
		c0.9,0,1.7-0.2,2.4-0.5l-1.4-6.8C19.5,29.6,18.2,30.6,18.2,31.9z M22.3,10.6c-1.6,0-2.9,3.7-2.9,7c0,0.7,0,1.3,0.2,1.9
		c2.7-2.4,4-4.5,4-6.5c0-0.9-0.3-1.7-1-2.4C22.5,10.6,22.4,10.6,22.3,10.6z M25,32.5c0-1.6-1.2-3.3-2.9-3.3c-0.1,0-0.2,0-0.5,0
		l1.4,6.6C24.4,34.9,25,33.8,25,32.5z"/>
</g>
<g>
	<path d="M29.7,19.1h0.6l-0.1,6.2c0.4-0.7,1-1,1.8-1c1.2,0,2.2,0.8,2.2,1.9c0,0.8-0.5,1.8-1.7,2.7L29.7,31V19.1z M30.3,26
		c-0.1,0.8-0.1,1.4-0.1,1.9c0,1,0,1.6,0.1,2c1-0.7,2.4-2.6,2.4-3.7c0-0.6-0.5-1.1-1.1-1.1C31,25.2,30.6,25.4,30.3,26z"/>
</g>
<g>
	<path d="M35.3,11.6h0.6l-0.1,6.2c0.4-0.7,1-1,1.8-1c1.2,0,2.2,0.8,2.2,1.9c0,0.8-0.5,1.8-1.7,2.7l-2.8,2.1V11.6z M35.9,18.6
		c-0.1,0.8-0.1,1.4-0.1,1.9c0,1,0,1.6,0.1,2c1-0.7,2.4-2.6,2.4-3.7c0-0.6-0.5-1.1-1.1-1.1C36.6,17.7,36.1,18,35.9,18.6z"/>
</g>
<g>
	<path d="M40.9,21.6h0.6l-0.1,6.2c0.4-0.7,1-1,1.8-1c1.2,0,2.2,0.8,2.2,1.9c0,0.8-0.5,1.8-1.7,2.7l-2.8,2.1V21.6z M41.4,28.5
		c-0.1,0.8-0.1,1.4-0.1,1.9c0,1,0,1.6,0.1,2c1-0.7,2.4-2.6,2.4-3.7c0-0.6-0.5-1.1-1.1-1.1C42.1,27.6,41.7,27.9,41.4,28.5z"/>
</g>
<g>
	<path d="M46.4,14.1h0.6l-0.1,6.2c0.4-0.7,1-1,1.8-1c1.2,0,2.2,0.8,2.2,1.9c0,0.8-0.5,1.8-1.7,2.7l-2.8,2.1V14.1z M47,21
		c-0.1,0.8-0.1,1.4-0.1,1.9c0,1,0,1.6,0.1,2c1-0.7,2.4-2.6,2.4-3.7c0-0.6-0.5-1.1-1.1-1.1C47.7,20.2,47.3,20.5,47,21z"/>
</g>
<g>
	<path d="M52,24h0.6l-0.1,6.2c0.4-0.7,1-1,1.8-1c1.2,0,2.2,0.8,2.2,1.9c0,0.8-0.5,1.8-1.7,2.7L52,36V24z M52.6,31
		c-0.1,0.8-0.1,1.4-0.1,1.9c0,1,0,1.6,0.1,2c1-0.7,2.4-2.6,2.4-3.7c0-0.6-0.5-1.1-1.1-1.1C53.3,30.1,52.9,30.4,52.6,31z"/>
</g>
<g>
	<path d="M57.6,16.6h0.6l-0.1,6.2c0.4-0.7,1-1,1.8-1c1.2,0,2.2,0.8,2.2,1.9c0,0.8-0.5,1.8-1.7,2.7l-2.8,2.1V16.6z M58.2,23.5
		c-0.1,0.8-0.1,1.4-0.1,1.9c0,1,0,1.6,0.1,2c1-0.7,2.4-2.6,2.4-3.7c0-0.6-0.5-1.1-1.1-1.1C58.9,22.7,58.5,23,58.2,23.5z"/>
</g>
<polygon fill-rule="evenodd" clip-rule="evenodd" points="77.3,17.5 119.1,12.5 119.1,10 77.3,15 "/>
<polygon fill-rule="evenodd" clip-rule="evenodd" points="77.3,13.8 119.1,8.8 119.1,6.3 77.3,11.3 "/>
<polygon fill-rule="evenodd" clip-rule="evenodd" points="126.6,43.5 168.4,38.6 168.4,36.1 126.6,41 "/>
<polygon fill-rule="evenodd" clip-rule="evenodd" points="126.6,47.2 168.4,42.3 168.4,39.8 126.6,44.8 "/>
<polygon fill-rule="evenodd" clip-rule="evenodd" points="196.6,38.6 238.5,33.6 238.5,31.1 196.6,36.1 "/>
<polygon fill-rule="evenodd" clip-rule="evenodd" points="196.6,42.3 238.5,37.3 238.5,34.8 196.6,39.8 "/>
<polygon fill-rule="evenodd" clip-rule="evenodd" points="252.5,33.6 294.3,28.6 294.3,26.2 252.5,31.1 "/>
<polygon fill-rule="evenodd" clip-rule="evenodd" points="252.5,37.3 294.3,32.4 294.3,29.9 252.5,34.8 "/>
<polygon fill-rule="evenodd" clip-rule="evenodd" points="308.3,28.6 350,33.6 350,31.1 308.3,26.2 "/>
<polygon fill-rule="evenodd" clip-rule="evenodd" points="308.3,32.4 350,37.3 350,34.8 308.3,29.9 "/>
<polygon fill-rule="evenodd" clip-rule="evenodd" points="363.9,33.6 405.8,38.6 405.8,36.1 363.9,31.1 "/>
<polygon fill-rule="evenodd" clip-rule="evenodd" points="363.9,37.3 405.8,42.3 405.8,39.8 363.9,34.8 "/>
<polygon fill-rule="evenodd" clip-rule="evenodd" points="434,38.6 475.8,43.5 475.8,41 434,36.1 "/>
<polygon fill-rule="evenodd" clip-rule="evenodd" points="434,42.3 475.8,47.2 475.8,44.8 434,39.8 "/>
<polygon fill-rule="evenodd" clip-rule="evenodd" points="496.3,12.5 538.1,17.5 538.1,15 496.3,10 "/>
<polygon fill-rule="evenodd" clip-rule="evenodd" points="496.3,8.8 538.1,13.8 538.1,11.3 496.3,6.3 "/>
<rect x="8.6" y="85.9" width="544.4" height="0.5"/>
<rect x="8.6" y="81" width="544.4" height="0.5"/>
<rect x="8.6" y="76" width="544.4" height="0.5"/>
<rect x="8.6" y="71" width="544.4" height="0.5"/>
<rect x="8.6" y="66.1" width="544.4" height="0.5"/>
<g>
	<path d="M15.9,80.5c2.9-2.6,4.7-6.1,4.7-9.2c0-2.5-1.4-4.4-3.7-4.4c-1.6,0-3.4,1.3-3.4,2.7c0,0.2,0,0.3,0.1,0.3
		c-0.1,0,0.6-0.6,1.4-0.6c0.9,0,1.5,0.8,1.5,1.7c0,1.2-0.9,2.2-2.1,2.2c-1.2,0-2.1-1.3-2.1-2.8c0-2.3,2.3-4.1,4.8-4.1
		c4.7,0,5.9,3.2,5.9,5.8c0,1.6-0.4,2.9-2,5.3c-1.9,3.1-6.4,5.3-8.1,5.3c-0.4,0-0.6-0.2-0.6-0.5C14,81.8,15.1,81.2,15.9,80.5z
		 M25.8,67.8c0.6,0,1,0.4,1,1s-0.4,1-1,1s-1-0.4-1-1S25.3,67.8,25.8,67.8z M25.8,72.7c0.6,0,1,0.4,1,1c0,0.6-0.4,1-1,1s-1-0.4-1-1
		C24.8,73.2,25.3,72.7,25.8,72.7z"/>
</g>
<g>
	<path d="M29.7,72.9h0.6l-0.1,6.2c0.4-0.7,1-1,1.8-1c1.2,0,2.2,0.8,2.2,1.9c0,0.8-0.5,1.8-1.7,2.7l-2.8,2.1V72.9z M30.3,79.8
		c-0.1,0.8-0.1,1.4-0.1,1.9c0,1,0,1.6,0.1,2c1-0.7,2.4-2.6,2.4-3.7c0-0.6-0.5-1.1-1.1-1.1C31,78.9,30.6,79.2,30.3,79.8z"/>
</g>
<g>
	<path d="M35.3,65.4h0.6l-0.1,6.2c0.4-0.7,1-1,1.8-1c1.2,0,2.2,0.8,2.2,1.9c0,0.8-0.5,1.8-1.7,2.7l-2.8,2.1V65.4z M35.9,72.3
		c-0.1,0.8-0.1,1.4-0.1,1.9c0,1,0,1.6,0.1,2c1-0.7,2.4-2.6,2.4-3.7c0-0.6-0.5-1.1-1.1-1.1C36.6,71.5,36.1,71.8,35.9,72.3z"/>
</g>
<g>
	<path d="M40.9,75.4h0.6l-0.1,6.2c0.4-0.7,1-1,1.8-1c1.2,0,2.2,0.8,2.2,1.9c0,0.8-0.5,1.8-1.7,2.7l-2.8,2.1V75.4z M41.4,82.3
		c-0.1,0.8-0.1,1.4-0.1,1.9c0,1,0,1.6,0.1,2c1-0.7,2.4-2.6,2.4-3.7c0-0.6-0.5-1.1-1.1-1.1C42.1,81.4,41.7,81.7,41.4,82.3z"/>
</g>
<g>
	<path d="M46.4,67.9h0.6l-0.1,6.2c0.4-0.7,1-1,1.8-1c1.2,0,2.2,0.8,2.2,1.9c0,0.8-0.5,1.8-1.7,2.7l-2.8,2.1V67.9z M47,74.8
		c-0.1,0.8-0.1,1.4-0.1,1.9c0,1,0,1.6,0.1,2c1-0.7,2.4-2.6,2.4-3.7c0-0.6-0.5-1.1-1.1-1.1C47.7,74,47.3,74.3,47,74.8z"/>
</g>
<g>
	<path d="M52,77.8h0.6l-0.1,6.2c0.4-0.7,1-1,1.8-1c1.2,0,2.2,0.8,2.2,1.9c0,0.8-0.5,1.8-1.7,2.7L52,89.8V77.8z M52.6,84.7
		c-0.1,0.8-0.1,1.4-0.1,1.9c0,1,0,1.6,0.1,2C53.6,88,55,86,55,85c0-0.6-0.5-1.1-1.1-1.1C53.3,83.9,52.9,84.2,52.6,84.7z"/>
</g>
<g>
	<path d="M57.6,70.4h0.6l-0.1,6.2c0.4-0.7,1-1,1.8-1c1.2,0,2.2,0.8,2.2,1.9c0,0.8-0.5,1.8-1.7,2.7l-2.8,2.1V70.4z M58.2,77.3
		c-0.1,0.8-0.1,1.4-0.1,1.9c0,1,0,1.6,0.1,2c1-0.7,2.4-2.6,2.4-3.7c0-0.6-0.5-1.1-1.1-1.1C58.9,76.5,58.5,76.7,58.2,77.3z"/>
</g>
<polygon fill-rule="evenodd" clip-rule="evenodd" points="70.8,87.4 112.6,82.4 112.6,79.9 70.8,84.9 "/>
<polygon fill-rule="evenodd" clip-rule="evenodd" points="70.8,91.1 112.6,86.1 112.6,83.7 70.8,88.6 "/>
<g>
	<path d="M188.6,84.8c-3.2,0-6.1-2.3-6.1-5.1c0-2.4,1.7-5,5.1-7.9c-0.2-0.9-0.3-1.8-0.3-2.7c0-2.6,0.9-5.1,2.4-6.3
		c1.4,1.9,2,3.7,2,5.3c0,2.2-1,4.2-3.2,6.1l0.7,3.1c0.4,0,0.6,0,0.6,0c2,0,3.6,1.5,3.6,3.5c0,1.4-1.1,2.8-2.7,3.6
		c0-0.1,0.6,2.8,0.6,3.3c0,1.9-1.7,3.2-3.7,3.2c-1.5,0-2.7-1-2.7-2.5c0-1.1,0.7-1.9,1.8-1.9c1,0,1.7,1,1.7,1.9c0,1-0.9,1.7-2,1.8
		c0.4,0.2,0.9,0.3,1.4,0.3c1.6,0,3.1-1.2,3.1-2.7c0-0.1,0-0.3,0-0.5l-0.6-2.8C189.8,84.7,189.3,84.8,188.6,84.8z M187,80.9
		c0,0.8,0.4,1.4,1.2,1.9c-1.3-0.2-2.2-1.1-2.2-2.3c0-1.5,1.3-2.8,2.9-3.1l-0.6-3c-2.8,2.1-4.3,4.1-4.3,6.1c0,2.2,2.1,4,4.5,4
		c0.7,0,1.3-0.1,1.8-0.4l-1.1-5.1C187.9,79.1,187,79.8,187,80.9z M190,64.9c-1.2,0-2.2,2.8-2.2,5.3c0,0.5,0,1,0.1,1.4
		c2-1.8,3-3.4,3-4.8c0-0.7-0.3-1.3-0.7-1.8C190.2,64.9,190.1,64.9,190,64.9z M192.1,81.3c0-1.2-0.9-2.4-2.2-2.4c0,0-0.2,0-0.4,0
		l1.1,5C191.6,83.1,192.1,82.3,192.1,81.3z"/>
</g>
<polygon fill-rule="evenodd" clip-rule="evenodd" points="126.6,82.4 168.4,77.5 168.4,75 126.6,79.9 "/>
<polygon fill-rule="evenodd" clip-rule="evenodd" points="126.6,86.1 168.4,81.2 168.4,78.7 126.6,83.7 "/>
<polygon fill-rule="evenodd" clip-rule="evenodd" points="203.2,72.5 245,67.5 245,65.1 203.2,70 "/>
<polygon fill-rule="evenodd" clip-rule="evenodd" points="203.2,68.8 245,63.8 245,61.3 203.2,66.3 "/>
<polygon fill-rule="evenodd" clip-rule="evenodd" points="259,66.3 300.8,61.3 300.8,58.9 259,63.8 "/>
<polygon fill-rule="evenodd" clip-rule="evenodd" points="259,62.6 300.8,57.6 300.8,55.1 259,60.1 "/>
<polygon fill-rule="evenodd" clip-rule="evenodd" points="314.8,61.3 356.5,66.3 356.5,63.8 314.8,58.9 "/>
<polygon fill-rule="evenodd" clip-rule="evenodd" points="314.8,57.6 356.5,62.6 356.5,60.1 314.8,55.1 "/>
<g>
	<path d="M422.5,78.2c2.2-2,3.6-4.6,3.6-6.9c0-1.9-1.1-3.3-2.8-3.3c-1.2,0-2.5,1-2.5,2.1c0,0.2,0,0.2,0.1,0.2c0,0,0.4-0.5,1-0.5
		c0.7,0,1.2,0.6,1.2,1.3c0,0.9-0.6,1.7-1.6,1.7s-1.5-1-1.5-2.1c0-1.8,1.7-3.1,3.6-3.1c3.5,0,4.4,2.4,4.4,4.4c0,1.2-0.3,2.2-1.5,4
		c-1.4,2.3-4.8,4-6,4c-0.3,0-0.5-0.1-0.5-0.3C421.1,79.1,421.9,78.7,422.5,78.2z M430,68.7c0.4,0,0.7,0.3,0.7,0.7
		c0,0.4-0.3,0.7-0.7,0.7c-0.4,0-0.7-0.3-0.7-0.7C429.2,69,429.6,68.7,430,68.7z M430,72.4c0.4,0,0.7,0.3,0.7,0.7
		c0,0.4-0.3,0.7-0.7,0.7c-0.4,0-0.7-0.3-0.7-0.7C429.2,72.7,429.6,72.4,430,72.4z"/>
</g>
<polygon fill-rule="evenodd" clip-rule="evenodd" points="370.4,67.5 412.3,72.5 412.3,70 370.4,65.1 "/>
<polygon fill-rule="evenodd" clip-rule="evenodd" points="370.4,63.8 412.3,68.8 412.3,66.3 370.4,61.3 "/>
<polygon fill-rule="evenodd" clip-rule="evenodd" points="434,77.5 475.8,82.4 475.8,79.9 434,75 "/>
<polygon fill-rule="evenodd" clip-rule="evenodd" points="434,81.2 475.8,86.1 475.8,83.7 434,78.7 "/>
<polygon fill-rule="evenodd" clip-rule="evenodd" points="489.8,82.4 531.6,87.4 531.6,84.9 489.8,79.9 "/>
<polygon fill-rule="evenodd" clip-rule="evenodd" points="489.8,86.1 531.6,91.1 531.6,88.6 489.8,83.7 "/>
<rect x="77.1" y="11.4" width="0.5" height="25.1"/>
<g>
	<path d="M70.6,38.2c0-1.8,2.5-3.5,4.5-3.5c1.3,0,2.3,0.7,2.3,1.7c0,1.7-2.5,3.5-4.6,3.5C71.6,39.9,70.6,39.3,70.6,38.2z"/>
</g>
<rect x="91" y="9.9" width="0.5" height="21.7"/>
<g>
	<path d="M84.6,33.2c0-1.8,2.5-3.5,4.5-3.5c1.3,0,2.3,0.7,2.3,1.7c0,1.7-2.5,3.5-4.6,3.5C85.5,34.9,84.6,34.3,84.6,33.2z"/>
</g>
<rect x="105" y="8.2" width="0.5" height="18.4"/>
<g>
	<path d="M98.5,28.3c0-1.8,2.5-3.5,4.5-3.5c1.3,0,2.3,0.7,2.3,1.7c0,1.7-2.5,3.5-4.6,3.5C99.5,30,98.5,29.3,98.5,28.3z"/>
</g>
<rect x="118.9" y="6.5" width="0.5" height="12.7"/>
<g>
	<path d="M112.5,20.8c0-1.8,2.5-3.5,4.5-3.5c1.3,0,2.3,0.7,2.3,1.7c0,1.7-2.5,3.5-4.6,3.5C113.4,22.5,112.5,21.9,112.5,20.8z"/>
</g>
<rect x="126.3" y="33.1" width="0.5" height="14"/>
<g>
	<path d="M126.4,33.2c0-1.8,2.5-3.5,4.5-3.5c1.3,0,2.3,0.7,2.3,1.7c0,1.7-2.5,3.5-4.6,3.5C127.4,34.9,126.4,34.3,126.4,33.2z"/>
</g>
<rect x="140.3" y="28.2" width="0.5" height="17.4"/>
<g>
	<path d="M140.4,28.3c0-1.8,2.5-3.5,4.5-3.5c1.3,0,2.3,0.7,2.3,1.7c0,1.7-2.5,3.5-4.6,3.5C141.3,30,140.4,29.3,140.4,28.3z"/>
</g>
<rect x="154.3" y="20.7" width="0.5" height="23.1"/>
<g>
	<path d="M154.3,20.8c0-1.8,2.5-3.5,4.5-3.5c1.3,0,2.3,0.7,2.3,1.7c0,1.7-2.5,3.5-4.6,3.5C155.3,22.5,154.3,21.9,154.3,20.8z"/>
</g>
<rect x="168.2" y="15.8" width="0.5" height="26.4"/>
<g>
	<path d="M168.3,15.9c0-1.8,2.5-3.5,4.5-3.5c1.3,0,2.3,0.7,2.3,1.7c0,1.7-2.5,3.5-4.6,3.5C169.3,17.6,168.3,16.9,168.3,15.9z"/>
</g>
<rect x="196.4" y="28.2" width="0.5" height="14"/>
<g>
	<path d="M196.5,28.3c0-1.8,2.5-3.5,4.5-3.5c1.3,0,2.3,0.7,2.3,1.7c0,1.7-2.5,3.5-4.6,3.5C197.5,30,196.5,29.3,196.5,28.3z"/>
</g>
<rect x="210.4" y="20.7" width="0.5" height="19.8"/>
<g>
	<path d="M210.4,20.8c0-1.8,2.5-3.5,4.5-3.5c1.3,0,2.3,0.7,2.3,1.7c0,1.7-2.5,3.5-4.6,3.5C211.4,22.5,210.4,21.9,210.4,20.8z"/>
</g>
<rect x="224.3" y="15.8" width="0.5" height="23.1"/>
<g>
	<path d="M224.4,15.9c0-1.8,2.5-3.5,4.5-3.5c1.3,0,2.3,0.7,2.3,1.7c0,1.7-2.5,3.5-4.6,3.5C225.4,17.6,224.4,16.9,224.4,15.9z"/>
</g>
<rect x="236.5" y="12.1" width="10.5" height="0.8"/>
<rect x="238.3" y="10.8" width="0.5" height="26.4"/>
<g>
	<path d="M238.3,10.9c0-1.8,2.5-3.5,4.5-3.5c1.3,0,2.3,0.7,2.3,1.7c0,1.7-2.5,3.5-4.6,3.5C239.3,12.6,238.3,12,238.3,10.9z"/>
</g>
<rect x="252.2" y="20.7" width="0.5" height="16.4"/>
<g>
	<path d="M252.3,20.8c0-1.8,2.5-3.5,4.5-3.5c1.3,0,2.3,0.7,2.3,1.7c0,1.7-2.5,3.5-4.6,3.5C253.3,22.5,252.3,21.9,252.3,20.8z"/>
</g>
<rect x="266.2" y="15.8" width="0.5" height="19.8"/>
<g>
	<path d="M266.2,15.9c0-1.8,2.5-3.5,4.5-3.5c1.3,0,2.3,0.7,2.3,1.7c0,1.7-2.5,3.5-4.6,3.5C267.2,17.6,266.2,16.9,266.2,15.9z"/>
</g>
<rect x="278.3" y="12.1" width="10.5" height="0.8"/>
<rect x="280.1" y="10.8" width="0.5" height="23.1"/>
<g>
	<path d="M280.2,10.9c0-1.8,2.5-3.5,4.5-3.5c1.3,0,2.3,0.7,2.3,1.7c0,1.7-2.5,3.5-4.6,3.5C281.2,12.6,280.2,12,280.2,10.9z"/>
</g>
<rect x="292.3" y="12.1" width="10.5" height="0.8"/>
<rect x="292.3" y="7.2" width="10.5" height="0.8"/>
<rect x="292.3" y="2.2" width="10.5" height="0.8"/>
<rect x="294.1" y="3.4" width="0.5" height="28.8"/>
<g>
	<path d="M294.2,3.5c0-1.8,2.5-3.5,4.5-3.5c1.3,0,2.3,0.7,2.3,1.7c0,1.7-2.5,3.5-4.6,3.5C295.1,5.2,294.2,4.5,294.2,3.5z"/>
</g>
<rect x="306.2" y="12.1" width="10.5" height="0.8"/>
<rect x="306.2" y="7.2" width="10.5" height="0.8"/>
<rect x="306.2" y="2.2" width="10.5" height="0.8"/>
<rect x="308" y="3.4" width="0.5" height="28.8"/>
<g>
	<path d="M308.1,3.5c0-1.8,2.5-3.5,4.5-3.5c1.3,0,2.3,0.7,2.3,1.7c0,1.7-2.5,3.5-4.6,3.5C309.1,5.2,308.1,4.5,308.1,3.5z"/>
</g>
<rect x="320" y="12.1" width="10.5" height="0.8"/>
<rect x="321.8" y="10.8" width="0.5" height="22.9"/>
<g>
	<path d="M321.9,10.9c0-1.8,2.5-3.5,4.5-3.5c1.3,0,2.3,0.7,2.3,1.7c0,1.7-2.5,3.5-4.6,3.5C322.9,12.6,321.9,12,321.9,10.9z"/>
</g>
<rect x="335.8" y="15.8" width="0.5" height="19.7"/>
<g>
	<path d="M335.8,15.9c0-1.8,2.5-3.5,4.5-3.5c1.3,0,2.3,0.7,2.3,1.7c0,1.7-2.5,3.5-4.6,3.5C336.8,17.6,335.8,16.9,335.8,15.9z"/>
</g>
<rect x="349.7" y="20.7" width="0.5" height="16.4"/>
<g>
	<path d="M349.8,20.8c0-1.8,2.5-3.5,4.5-3.5c1.3,0,2.3,0.7,2.3,1.7c0,1.7-2.5,3.5-4.6,3.5C350.8,22.5,349.8,21.9,349.8,20.8z"/>
</g>
<rect x="361.9" y="12.1" width="10.5" height="0.8"/>
<rect x="363.7" y="10.8" width="0.5" height="26.4"/>
<g>
	<path d="M363.8,10.9c0-1.8,2.5-3.5,4.5-3.5c1.3,0,2.3,0.7,2.3,1.7c0,1.7-2.5,3.5-4.6,3.5C364.7,12.6,363.8,12,363.8,10.9z"/>
</g>
<rect x="377.6" y="15.8" width="0.5" height="22.9"/>
<g>
	<path d="M377.7,15.9c0-1.8,2.5-3.5,4.5-3.5c1.3,0,2.3,0.7,2.3,1.7c0,1.7-2.5,3.5-4.6,3.5C378.7,17.6,377.7,16.9,377.7,15.9z"/>
</g>
<rect x="391.6" y="20.7" width="0.5" height="19.7"/>
<g>
	<path d="M391.7,20.8c0-1.8,2.5-3.5,4.5-3.5c1.3,0,2.3,0.7,2.3,1.7c0,1.7-2.5,3.5-4.6,3.5C392.6,22.5,391.7,21.9,391.7,20.8z"/>
</g>
<rect x="405.5" y="28.2" width="0.5" height="14"/>
<g>
	<path d="M405.6,28.3c0-1.8,2.5-3.5,4.5-3.5c1.3,0,2.3,0.7,2.3,1.7c0,1.7-2.5,3.5-4.6,3.5C406.6,30,405.6,29.3,405.6,28.3z"/>
</g>
<rect x="433.7" y="15.8" width="0.5" height="26.4"/>
<g>
	<path d="M433.8,15.9c0-1.8,2.5-3.5,4.5-3.5c1.3,0,2.3,0.7,2.3,1.7c0,1.7-2.5,3.5-4.6,3.5C434.8,17.6,433.8,16.9,433.8,15.9z"/>
</g>
<rect x="447.7" y="20.7" width="0.5" height="22.9"/>
<g>
	<path d="M447.8,20.8c0-1.8,2.5-3.5,4.5-3.5c1.3,0,2.3,0.7,2.3,1.7c0,1.7-2.5,3.5-4.6,3.5C448.7,22.5,447.8,21.9,447.8,20.8z"/>
</g>
<rect x="461.6" y="28.2" width="0.5" height="17.2"/>
<g>
	<path d="M461.7,28.3c0-1.8,2.5-3.5,4.5-3.5c1.3,0,2.3,0.7,2.3,1.7c0,1.7-2.5,3.5-4.6,3.5C462.7,30,461.7,29.3,461.7,28.3z"/>
</g>
<rect x="475.6" y="33.1" width="0.5" height="14"/>
<g>
	<path d="M475.7,33.2c0-1.8,2.5-3.5,4.5-3.5c1.3,0,2.3,0.7,2.3,1.7c0,1.7-2.5,3.5-4.6,3.5C476.6,34.9,475.7,34.3,475.7,33.2z"/>
</g>
<rect x="496.1" y="6.5" width="0.5" height="12.7"/>
<g>
	<path d="M489.6,20.8c0-1.8,2.5-3.5,4.5-3.5c1.3,0,2.3,0.7,2.3,1.7c0,1.7-2.5,3.5-4.6,3.5C490.6,22.5,489.6,21.9,489.6,20.8z"/>
</g>
<rect x="510" y="8" width="0.5" height="18.6"/>
<g>
	<path d="M503.6,28.3c0-1.8,2.5-3.5,4.5-3.5c1.3,0,2.3,0.7,2.3,1.7c0,1.7-2.5,3.5-4.6,3.5C504.5,30,503.6,29.3,503.6,28.3z"/>
</g>
<rect x="524" y="9.7" width="0.5" height="21.9"/>
<g>
	<path d="M517.5,33.2c0-1.8,2.5-3.5,4.5-3.5c1.3,0,2.3,0.7,2.3,1.7c0,1.7-2.5,3.5-4.6,3.5C518.5,34.9,517.5,34.3,517.5,33.2z"/>
</g>
<rect x="537.9" y="11.4" width="0.5" height="25.1"/>
<g>
	<path d="M531.5,38.2c0-1.8,2.5-3.5,4.5-3.5c1.3,0,2.3,0.7,2.3,1.7c0,1.7-2.5,3.5-4.6,3.5C532.5,39.9,531.5,39.3,531.5,38.2z"/>
</g>
<rect x="70.5" y="74.5" width="0.5" height="16.4"/>
<g>
	<path d="M70.6,74.6c0-1.8,2.5-3.5,4.5-3.5c1.3,0,2.3,0.7,2.3,1.7c0,1.7-2.5,3.5-4.6,3.5C71.6,76.3,70.6,75.7,70.6,74.6z"/>
</g>
<rect x="84.5" y="69.6" width="0.5" height="19.8"/>
<g>
	<path d="M84.6,69.6c0-1.8,2.5-3.5,4.5-3.5c1.3,0,2.3,0.7,2.3,1.7c0,1.7-2.5,3.5-4.6,3.5C85.5,71.4,84.6,70.7,84.6,69.6z"/>
</g>
<rect x="98.4" y="64.6" width="0.5" height="23.1"/>
<g>
	<path d="M98.5,64.7c0-1.8,2.5-3.5,4.5-3.5c1.3,0,2.3,0.7,2.3,1.7c0,1.7-2.5,3.5-4.6,3.5C99.5,66.4,98.5,65.8,98.5,64.7z"/>
</g>
<rect x="110.6" y="61" width="10.5" height="0.8"/>
<rect x="110.6" y="56" width="10.5" height="0.8"/>
<rect x="112.4" y="57.2" width="0.5" height="28.8"/>
<g>
	<path d="M112.5,57.2c0-1.8,2.5-3.5,4.5-3.5c1.3,0,2.3,0.7,2.3,1.7c0,1.7-2.5,3.5-4.6,3.5C113.4,59,112.5,58.3,112.5,57.2z"/>
</g>
<rect x="126.3" y="69.6" width="0.5" height="16.4"/>
<g>
	<path d="M126.4,69.6c0-1.8,2.5-3.5,4.5-3.5c1.3,0,2.3,0.7,2.3,1.7c0,1.7-2.5,3.5-4.6,3.5C127.4,71.4,126.4,70.7,126.4,69.6z"/>
</g>
<rect x="140.3" y="64.6" width="0.5" height="19.8"/>
<g>
	<path d="M140.4,64.7c0-1.8,2.5-3.5,4.5-3.5c1.3,0,2.3,0.7,2.3,1.7c0,1.7-2.5,3.5-4.6,3.5C141.3,66.4,140.4,65.8,140.4,64.7z"/>
</g>
<rect x="152.5" y="61" width="10.5" height="0.8"/>
<rect x="152.5" y="56" width="10.5" height="0.8"/>
<rect x="154.3" y="57.2" width="0.5" height="25.6"/>
<g>
	<path d="M154.3,57.2c0-1.8,2.5-3.5,4.5-3.5c1.3,0,2.3,0.7,2.3,1.7c0,1.7-2.5,3.5-4.6,3.5C155.3,59,154.3,58.3,154.3,57.2z"/>
</g>
<rect x="166.4" y="61" width="10.5" height="0.8"/>
<rect x="166.4" y="56" width="10.5" height="0.8"/>
<rect x="166.4" y="51" width="10.5" height="0.8"/>
<rect x="168.2" y="52.2" width="0.5" height="28.8"/>
<g>
	<path d="M168.3,52.3c0-1.8,2.5-3.5,4.5-3.5c1.3,0,2.3,0.7,2.3,1.7c0,1.7-2.5,3.5-4.6,3.5C169.3,54,168.3,53.4,168.3,52.3z"/>
</g>
<rect x="194.6" y="90.7" width="10.5" height="0.8"/>
<rect x="202.9" y="66.5" width="0.5" height="26.4"/>
<g>
	<path d="M196.5,94.4c0-1.8,2.5-3.5,4.5-3.5c1.3,0,2.3,0.7,2.3,1.7c0,1.7-2.5,3.5-4.6,3.5C197.5,96.2,196.5,95.5,196.5,94.4z"/>
</g>
<rect x="216.9" y="64.9" width="0.5" height="20.5"/>
<g>
	<path d="M210.4,87c0-1.8,2.5-3.5,4.5-3.5c1.3,0,2.3,0.7,2.3,1.7c0,1.7-2.5,3.5-4.6,3.5C211.4,88.7,210.4,88.1,210.4,87z"/>
</g>
<rect x="230.8" y="63.2" width="0.5" height="17.2"/>
<g>
	<path d="M224.4,82c0-1.8,2.5-3.5,4.5-3.5c1.3,0,2.3,0.7,2.3,1.7c0,1.7-2.5,3.5-4.6,3.5C225.4,83.8,224.4,83.1,224.4,82z"/>
</g>
<rect x="244.8" y="61.5" width="0.5" height="14"/>
<g>
	<path d="M238.3,77.1c0-1.8,2.5-3.5,4.5-3.5c1.3,0,2.3,0.7,2.3,1.7c0,1.7-2.5,3.5-4.6,3.5C239.3,78.8,238.3,78.2,238.3,77.1z"/>
</g>
<rect x="258.7" y="60.3" width="0.5" height="25.1"/>
<g>
	<path d="M252.3,87c0-1.8,2.5-3.5,4.5-3.5c1.3,0,2.3,0.7,2.3,1.7c0,1.7-2.5,3.5-4.6,3.5C253.3,88.7,252.3,88.1,252.3,87z"/>
</g>
<rect x="272.7" y="58.7" width="0.5" height="21.7"/>
<g>
	<path d="M266.2,82c0-1.8,2.5-3.5,4.5-3.5c1.3,0,2.3,0.7,2.3,1.7c0,1.7-2.5,3.5-4.6,3.5C267.2,83.8,266.2,83.1,266.2,82z"/>
</g>
<rect x="286.6" y="57" width="0.5" height="18.4"/>
<g>
	<path d="M280.2,77.1c0-1.8,2.5-3.5,4.5-3.5c1.3,0,2.3,0.7,2.3,1.7c0,1.7-2.5,3.5-4.6,3.5C281.2,78.8,280.2,78.2,280.2,77.1z"/>
</g>
<rect x="300.6" y="55.3" width="0.5" height="12.7"/>
<g>
	<path d="M294.2,69.6c0-1.8,2.5-3.5,4.5-3.5c1.3,0,2.3,0.7,2.3,1.7c0,1.7-2.5,3.5-4.6,3.5C295.1,71.4,294.2,70.7,294.2,69.6z"/>
</g>
<rect x="314.5" y="55.3" width="0.5" height="12.7"/>
<g>
	<path d="M308.1,69.6c0-1.8,2.5-3.5,4.5-3.5c1.3,0,2.3,0.7,2.3,1.7c0,1.7-2.5,3.5-4.6,3.5C309.1,71.4,308.1,70.7,308.1,69.6z"/>
</g>
<rect x="328.3" y="56.9" width="0.5" height="18.6"/>
<g>
	<path d="M321.9,77.1c0-1.8,2.5-3.5,4.5-3.5c1.3,0,2.3,0.7,2.3,1.7c0,1.7-2.5,3.5-4.6,3.5C322.9,78.8,321.9,78.2,321.9,77.1z"/>
</g>
<rect x="342.3" y="58.6" width="0.5" height="21.9"/>
<g>
	<path d="M335.8,82c0-1.8,2.5-3.5,4.5-3.5c1.3,0,2.3,0.7,2.3,1.7c0,1.7-2.5,3.5-4.6,3.5C336.8,83.8,335.8,83.1,335.8,82z"/>
</g>
<rect x="356.2" y="60.3" width="0.5" height="25.1"/>
<g>
	<path d="M349.8,87c0-1.8,2.5-3.5,4.5-3.5c1.3,0,2.3,0.7,2.3,1.7c0,1.7-2.5,3.5-4.6,3.5C350.8,88.7,349.8,88.1,349.8,87z"/>
</g>
<rect x="370.2" y="61.5" width="0.5" height="14"/>
<g>
	<path d="M363.8,77.1c0-1.8,2.5-3.5,4.5-3.5c1.3,0,2.3,0.7,2.3,1.7c0,1.7-2.5,3.5-4.6,3.5C364.7,78.8,363.8,78.2,363.8,77.1z"/>
</g>
<rect x="384.1" y="63.1" width="0.5" height="17.4"/>
<g>
	<path d="M377.7,82c0-1.8,2.5-3.5,4.5-3.5c1.3,0,2.3,0.7,2.3,1.7c0,1.7-2.5,3.5-4.6,3.5C378.7,83.8,377.7,83.1,377.7,82z"/>
</g>
<rect x="398.1" y="64.8" width="0.5" height="20.6"/>
<g>
	<path d="M391.7,87c0-1.8,2.5-3.5,4.5-3.5c1.3,0,2.3,0.7,2.3,1.7c0,1.7-2.5,3.5-4.6,3.5C392.6,88.7,391.7,88.1,391.7,87z"/>
</g>
<rect x="403.7" y="90.7" width="10.5" height="0.8"/>
<rect x="412" y="66.5" width="0.5" height="26.4"/>
<g>
	<path d="M405.6,94.4c0-1.8,2.5-3.5,4.5-3.5c1.3,0,2.3,0.7,2.3,1.7c0,1.7-2.5,3.5-4.6,3.5C406.6,96.2,405.6,95.5,405.6,94.4z"/>
</g>
<rect x="432" y="61" width="10.5" height="0.8"/>
<rect x="432" y="56" width="10.5" height="0.8"/>
<rect x="432" y="51" width="10.5" height="0.8"/>
<rect x="433.7" y="52.2" width="0.5" height="28.8"/>
<g>
	<path d="M433.8,52.3c0-1.8,2.5-3.5,4.5-3.5c1.3,0,2.3,0.7,2.3,1.7c0,1.7-2.5,3.5-4.6,3.5C434.8,54,433.8,53.4,433.8,52.3z"/>
</g>
<rect x="445.9" y="61" width="10.5" height="0.8"/>
<rect x="445.9" y="56" width="10.5" height="0.8"/>
<rect x="447.7" y="57.2" width="0.5" height="25.4"/>
<g>
	<path d="M447.8,57.2c0-1.8,2.5-3.5,4.5-3.5c1.3,0,2.3,0.7,2.3,1.7c0,1.7-2.5,3.5-4.6,3.5C448.7,59,447.8,58.3,447.8,57.2z"/>
</g>
<rect x="461.6" y="64.6" width="0.5" height="19.7"/>
<g>
	<path d="M461.7,64.7c0-1.8,2.5-3.5,4.5-3.5c1.3,0,2.3,0.7,2.3,1.7c0,1.7-2.5,3.5-4.6,3.5C462.7,66.4,461.7,65.8,461.7,64.7z"/>
</g>
<rect x="475.6" y="69.6" width="0.5" height="16.4"/>
<g>
	<path d="M475.7,69.6c0-1.8,2.5-3.5,4.5-3.5c1.3,0,2.3,0.7,2.3,1.7c0,1.7-2.5,3.5-4.6,3.5C476.6,71.4,475.7,70.7,475.7,69.6z"/>
</g>
<rect x="487.8" y="61" width="10.5" height="0.8"/>
<rect x="487.8" y="56" width="10.5" height="0.8"/>
<rect x="489.5" y="57.2" width="0.5" height="28.8"/>
<g>
	<path d="M489.6,57.2c0-1.8,2.5-3.5,4.5-3.5c1.3,0,2.3,0.7,2.3,1.7c0,1.7-2.5,3.5-4.6,3.5C490.6,59,489.6,58.3,489.6,57.2z"/>
</g>
<rect x="503.5" y="64.6" width="0.5" height="22.9"/>
<g>
	<path d="M503.6,64.7c0-1.8,2.5-3.5,4.5-3.5c1.3,0,2.3,0.7,2.3,1.7c0,1.7-2.5,3.5-4.6,3.5C504.5,66.4,503.6,65.8,503.6,64.7z"/>
</g>
<rect x="517.5" y="69.6" width="0.5" height="19.7"/>
<g>
	<path d="M517.5,69.6c0-1.8,2.5-3.5,4.5-3.5c1.3,0,2.3,0.7,2.3,1.7c0,1.7-2.5,3.5-4.6,3.5C518.5,71.4,517.5,70.7,517.5,69.6z"/>
</g>
<rect x="531.4" y="74.5" width="0.5" height="16.4"/>
<g>
	<path d="M531.5,74.6c0-1.8,2.5-3.5,4.5-3.5c1.3,0,2.3,0.7,2.3,1.7c0,1.7-2.5,3.5-4.6,3.5C532.5,76.3,531.5,75.7,531.5,74.6z"/>
</g>
</svg>
