<?xml version="1.0" encoding="utf-8"?>

<!--
	ScaleBook
	Copyright (c) Leland Jansen 2015. All rights reserved.
-->

<!DOCTYPE svg PUBLIC "-//W3C//DTD SVG 1.1//EN" "http://www.w3.org/Graphics/SVG/1.1/DTD/svg11.dtd">
<svg version="1.1" id="Layer_1" xmlns="http://www.w3.org/2000/svg" xmlns:xlink="http://www.w3.org/1999/xlink" x="0px" y="0px"
	 viewBox="0 0 553 96.2" enable-background="new 0 0 553 96.2" xml:space="preserve">
<rect x="8.5" y="17.5" width="0.8" height="68.7"/>
<g>
	<path d="M7.6,18.2c-2,1.1-3.7,5.9-3.7,9.7c0,2.3,1.4,10.2,1.4,12.6c0,5.1-1.6,8.9-4.7,11.4c3.1,2.5,4.7,6.2,4.7,11.3
		c0,2.3-1.4,10.2-1.4,12.6c0,3.9,1.8,8.7,3.7,9.8v0.7C4,83.8,1.7,77.7,1.7,72.8c0-2.2,1.8-9.6,1.8-11.8c0-3.9-1-6.7-3-8.4
		C0.1,52.2,0,52,0,51.8s0.1-0.4,0.5-0.7c2-1.7,3-4.3,3-7.8c0-2.2-1.8-10.3-1.8-12.5c0-5.3,2.1-10.6,5.9-13.4V18.2z"/>
</g>
<rect x="548" y="17.5" width="0.8" height="68.7"/>
<rect x="550.5" y="17.5" width="2.5" height="68.7"/>
<rect x="8.6" y="37.1" width="544.4" height="0.5"/>
<rect x="8.6" y="32.1" width="544.4" height="0.5"/>
<rect x="8.6" y="27.2" width="544.4" height="0.5"/>
<rect x="8.6" y="22.2" width="544.4" height="0.5"/>
<rect x="8.6" y="17.2" width="544.4" height="0.5"/>
<g>
	<path d="M20.4,37.2c-4.2,0-8.1-3.1-8.1-6.9c0-3.2,2.3-6.7,6.8-10.5c-0.3-1.2-0.4-2.4-0.4-3.6c0-3.5,1.2-6.8,3.2-8.5
		c1.8,2.5,2.7,4.9,2.7,7.1c0,2.9-1.3,5.6-4.3,8.1l0.9,4.2c0.5,0,0.8-0.1,0.8-0.1c2.6,0,4.8,2,4.8,4.7c0,1.9-1.4,3.7-3.6,4.8
		c0-0.1,0.9,3.8,0.9,4.3c0,2.5-2.3,4.2-4.9,4.2c-2,0-3.6-1.3-3.6-3.4c0-1.4,1-2.6,2.4-2.6c1.3,0,2.3,1.3,2.3,2.5
		c0,1.4-1.2,2.3-2.7,2.5c0.6,0.3,1.2,0.5,1.9,0.5c2.1,0,4.1-1.6,4.1-3.6c0-0.2,0-0.4-0.1-0.6l-0.8-3.7C22.1,37,21.4,37.2,20.4,37.2z
		 M18.2,31.9c0,1,0.5,1.9,1.6,2.5c-1.8-0.3-3-1.4-3-3.1c0-2,1.7-3.7,3.8-4.1l-0.8-4c-3.7,2.8-5.7,5.5-5.7,8.1c0,2.9,2.8,5.3,6,5.3
		c0.9,0,1.7-0.2,2.4-0.5l-1.4-6.8C19.5,29.6,18.2,30.6,18.2,31.9z M22.3,10.6c-1.6,0-2.9,3.7-2.9,7c0,0.7,0,1.3,0.2,1.9
		c2.7-2.4,4-4.5,4-6.5c0-0.9-0.3-1.7-1-2.4C22.5,10.6,22.4,10.6,22.3,10.6z M25,32.5c0-1.6-1.2-3.3-2.9-3.3c-0.1,0-0.2,0-0.5,0
		l1.4,6.6C24.4,34.9,25,33.8,25,32.5z"/>
</g>
<g>
	<path d="M33.6,10.7v2.8l1-0.3V15l-1,0.3v3.4l1-0.3v1.8l-1,0.3v3.1h-0.5v-3l-1.9,0.6v3h-0.5v-2.8l-1,0.3V20l1-0.3v-3.4l-1,0.3v-1.8
		l1-0.3v-3.1h0.5v3l1.9-0.6v-3H33.6z M33.1,15.4l-1.9,0.6v3.4l1.9-0.6V15.4z"/>
</g>
<polygon fill-rule="evenodd" clip-rule="evenodd" points="50,17.5 94.5,12.5 94.5,10 50,15 "/>
<polygon fill-rule="evenodd" clip-rule="evenodd" points="50,13.8 94.5,8.8 94.5,6.3 50,11.3 "/>
<polygon fill-rule="evenodd" clip-rule="evenodd" points="102.9,43.5 147.5,38.6 147.5,36.1 102.9,41 "/>
<polygon fill-rule="evenodd" clip-rule="evenodd" points="102.9,47.2 147.5,42.3 147.5,39.8 102.9,44.8 "/>
<polygon fill-rule="evenodd" clip-rule="evenodd" points="175.7,38.6 220.2,33.6 220.2,31.1 175.7,36.1 "/>
<polygon fill-rule="evenodd" clip-rule="evenodd" points="175.7,42.3 220.2,37.3 220.2,34.8 175.7,39.8 "/>
<polygon fill-rule="evenodd" clip-rule="evenodd" points="235.1,33.6 279.7,28.6 279.7,26.2 235.1,31.1 "/>
<polygon fill-rule="evenodd" clip-rule="evenodd" points="235.1,37.3 279.7,32.4 279.7,29.9 235.1,34.8 "/>
<polygon fill-rule="evenodd" clip-rule="evenodd" points="294.6,28.6 339.1,33.6 339.1,31.1 294.6,26.2 "/>
<polygon fill-rule="evenodd" clip-rule="evenodd" points="294.6,32.4 339.1,37.3 339.1,34.8 294.6,29.9 "/>
<polygon fill-rule="evenodd" clip-rule="evenodd" points="354,33.6 398.5,38.6 398.5,36.1 354,31.1 "/>
<polygon fill-rule="evenodd" clip-rule="evenodd" points="354,37.3 398.5,42.3 398.5,39.8 354,34.8 "/>
<polygon fill-rule="evenodd" clip-rule="evenodd" points="426.7,38.6 471.3,43.5 471.3,41 426.7,36.1 "/>
<polygon fill-rule="evenodd" clip-rule="evenodd" points="426.7,42.3 471.3,47.2 471.3,44.8 426.7,39.8 "/>
<polygon fill-rule="evenodd" clip-rule="evenodd" points="492.7,12.5 537.2,17.5 537.2,15 492.7,10 "/>
<polygon fill-rule="evenodd" clip-rule="evenodd" points="492.7,8.8 537.2,13.8 537.2,11.3 492.7,6.3 "/>
<rect x="8.6" y="85.9" width="544.4" height="0.5"/>
<rect x="8.6" y="81" width="544.4" height="0.5"/>
<rect x="8.6" y="76" width="544.4" height="0.5"/>
<rect x="8.6" y="71" width="544.4" height="0.5"/>
<rect x="8.6" y="66.1" width="544.4" height="0.5"/>
<g>
	<path d="M15.9,80.5c2.9-2.6,4.7-6.1,4.7-9.2c0-2.5-1.4-4.4-3.7-4.4c-1.6,0-3.4,1.3-3.4,2.7c0,0.2,0,0.3,0.1,0.3
		c-0.1,0,0.6-0.6,1.4-0.6c0.9,0,1.5,0.8,1.5,1.7c0,1.2-0.9,2.2-2.1,2.2c-1.2,0-2.1-1.3-2.1-2.8c0-2.3,2.3-4.1,4.8-4.1
		c4.7,0,5.9,3.2,5.9,5.8c0,1.6-0.4,2.9-2,5.3c-1.9,3.1-6.4,5.3-8.1,5.3c-0.4,0-0.6-0.2-0.6-0.5C14,81.8,15.1,81.2,15.9,80.5z
		 M25.8,67.8c0.6,0,1,0.4,1,1s-0.4,1-1,1s-1-0.4-1-1S25.3,67.8,25.8,67.8z M25.8,72.7c0.6,0,1,0.4,1,1c0,0.6-0.4,1-1,1s-1-0.4-1-1
		C24.8,73.2,25.3,72.7,25.8,72.7z"/>
</g>
<g>
	<path d="M33.6,64.4v2.8l1-0.3v1.8l-1,0.3v3.4l1-0.3V74l-1,0.3v3.1h-0.5v-3l-1.9,0.6v3h-0.5v-2.8l-1,0.3v-1.8l1-0.3V70l-1,0.3v-1.8
		l1-0.3v-3.1h0.5v3l1.9-0.6v-3H33.6z M33.1,69.2l-1.9,0.6v3.4l1.9-0.6V69.2z"/>
</g>
<polygon fill-rule="evenodd" clip-rule="evenodd" points="43.5,87.4 88,82.4 88,79.9 43.5,84.9 "/>
<polygon fill-rule="evenodd" clip-rule="evenodd" points="43.5,91.1 88,86.1 88,83.7 43.5,88.6 "/>
<g>
	<path d="M167.7,84.8c-3.2,0-6.1-2.3-6.1-5.1c0-2.4,1.7-5,5.1-7.9c-0.2-0.9-0.3-1.8-0.3-2.7c0-2.6,0.9-5.1,2.4-6.3
		c1.4,1.9,2,3.7,2,5.3c0,2.2-1,4.2-3.2,6.1l0.7,3.1c0.4,0,0.6,0,0.6,0c2,0,3.6,1.5,3.6,3.5c0,1.4-1.1,2.8-2.7,3.6
		c0-0.1,0.6,2.8,0.6,3.3c0,1.9-1.7,3.2-3.7,3.2c-1.5,0-2.7-1-2.7-2.5c0-1.1,0.7-1.9,1.8-1.9c1,0,1.7,1,1.7,1.9c0,1-0.9,1.7-2,1.8
		c0.4,0.2,0.9,0.3,1.4,0.3c1.6,0,3.1-1.2,3.1-2.7c0-0.1,0-0.3,0-0.5l-0.6-2.8C168.9,84.7,168.4,84.8,167.7,84.8z M166,80.9
		c0,0.8,0.4,1.4,1.2,1.9c-1.3-0.2-2.2-1.1-2.2-2.3c0-1.5,1.3-2.8,2.9-3.1l-0.6-3c-2.8,2.1-4.3,4.1-4.3,6.1c0,2.2,2.1,4,4.5,4
		c0.7,0,1.3-0.1,1.8-0.4l-1.1-5.1C167,79.1,166,79.8,166,80.9z M169.1,64.9c-1.2,0-2.2,2.8-2.2,5.3c0,0.5,0,1,0.1,1.4
		c2-1.8,3-3.4,3-4.8c0-0.7-0.3-1.3-0.7-1.8C169.3,64.9,169.2,64.9,169.1,64.9z M171.1,81.3c0-1.2-0.9-2.4-2.2-2.4c0,0-0.2,0-0.4,0
		l1.1,5C170.6,83.1,171.1,82.3,171.1,81.3z"/>
</g>
<polygon fill-rule="evenodd" clip-rule="evenodd" points="102.9,82.4 147.5,77.5 147.5,75 102.9,79.9 "/>
<polygon fill-rule="evenodd" clip-rule="evenodd" points="102.9,86.1 147.5,81.2 147.5,78.7 102.9,83.7 "/>
<polygon fill-rule="evenodd" clip-rule="evenodd" points="182.2,72.5 226.7,67.5 226.7,65.1 182.2,70 "/>
<polygon fill-rule="evenodd" clip-rule="evenodd" points="182.2,68.8 226.7,63.8 226.7,61.3 182.2,66.3 "/>
<polygon fill-rule="evenodd" clip-rule="evenodd" points="241.6,66.3 286.2,61.3 286.2,58.9 241.6,63.8 "/>
<polygon fill-rule="evenodd" clip-rule="evenodd" points="241.6,62.6 286.2,57.6 286.2,55.1 241.6,60.1 "/>
<polygon fill-rule="evenodd" clip-rule="evenodd" points="301.1,61.3 345.6,66.3 345.6,63.8 301.1,58.9 "/>
<polygon fill-rule="evenodd" clip-rule="evenodd" points="301.1,57.6 345.6,62.6 345.6,60.1 301.1,55.1 "/>
<g>
	<path d="M415.2,78.2c2.2-2,3.6-4.6,3.6-6.9c0-1.9-1.1-3.3-2.8-3.3c-1.2,0-2.5,1-2.5,2.1c0,0.2,0,0.2,0.1,0.2c0,0,0.4-0.5,1-0.5
		c0.7,0,1.2,0.6,1.2,1.3c0,0.9-0.6,1.7-1.6,1.7s-1.5-1-1.5-2.1c0-1.8,1.7-3.1,3.6-3.1c3.5,0,4.4,2.4,4.4,4.4c0,1.2-0.3,2.2-1.5,4
		c-1.4,2.3-4.8,4-6,4c-0.3,0-0.5-0.1-0.5-0.3C413.8,79.1,414.7,78.7,415.2,78.2z M422.7,68.7c0.4,0,0.7,0.3,0.7,0.7
		c0,0.4-0.3,0.7-0.7,0.7c-0.4,0-0.7-0.3-0.7-0.7C422,69,422.3,68.7,422.7,68.7z M422.7,72.4c0.4,0,0.7,0.3,0.7,0.7
		c0,0.4-0.3,0.7-0.7,0.7c-0.4,0-0.7-0.3-0.7-0.7C422,72.7,422.3,72.4,422.7,72.4z"/>
</g>
<polygon fill-rule="evenodd" clip-rule="evenodd" points="360.5,67.5 405,72.5 405,70 360.5,65.1 "/>
<polygon fill-rule="evenodd" clip-rule="evenodd" points="360.5,63.8 405,68.8 405,66.3 360.5,61.3 "/>
<polygon fill-rule="evenodd" clip-rule="evenodd" points="426.7,77.5 471.3,82.4 471.3,79.9 426.7,75 "/>
<polygon fill-rule="evenodd" clip-rule="evenodd" points="426.7,81.2 471.3,86.1 471.3,83.7 426.7,78.7 "/>
<polygon fill-rule="evenodd" clip-rule="evenodd" points="486.2,82.4 530.7,87.4 530.7,84.9 486.2,79.9 "/>
<polygon fill-rule="evenodd" clip-rule="evenodd" points="486.2,86.1 530.7,91.1 530.7,88.6 486.2,83.7 "/>
<rect x="49.8" y="11.4" width="0.5" height="25.1"/>
<g>
	<path d="M43.3,38.2c0-1.8,2.5-3.5,4.5-3.5c1.3,0,2.3,0.7,2.3,1.7c0,1.7-2.5,3.5-4.6,3.5C44.3,39.9,43.3,39.3,43.3,38.2z"/>
</g>
<rect x="64.7" y="9.9" width="0.5" height="21.7"/>
<g>
	<path d="M58.2,33.2c0-1.8,2.5-3.5,4.5-3.5c1.3,0,2.3,0.7,2.3,1.7c0,1.7-2.5,3.5-4.6,3.5C59.2,34.9,58.2,34.3,58.2,33.2z"/>
</g>
<rect x="79.5" y="8.2" width="0.5" height="18.4"/>
<g>
	<path d="M73.1,28.3c0-1.8,2.5-3.5,4.5-3.5c1.3,0,2.3,0.7,2.3,1.7c0,1.7-2.5,3.5-4.6,3.5C74.1,30,73.1,29.3,73.1,28.3z"/>
</g>
<rect x="94.3" y="6.5" width="0.5" height="12.7"/>
<g>
	<path d="M87.8,20.8c0-1.8,2.5-3.5,4.5-3.5c1.3,0,2.3,0.7,2.3,1.7c0,1.7-2.5,3.5-4.6,3.5C88.8,22.5,87.8,21.9,87.8,20.8z"/>
</g>
<rect x="102.6" y="33.1" width="0.5" height="14"/>
<g>
	<path d="M102.7,33.2c0-1.8,2.5-3.5,4.5-3.5c1.3,0,2.3,0.7,2.3,1.7c0,1.7-2.5,3.5-4.6,3.5C103.7,34.9,102.7,34.3,102.7,33.2z"/>
</g>
<rect x="117.5" y="28.2" width="0.5" height="17.4"/>
<g>
	<path d="M117.6,28.3c0-1.8,2.5-3.5,4.5-3.5c1.3,0,2.3,0.7,2.3,1.7c0,1.7-2.5,3.5-4.6,3.5C118.6,30,117.6,29.3,117.6,28.3z"/>
</g>
<rect x="132.4" y="20.7" width="0.5" height="23.1"/>
<g>
	<path d="M132.5,20.8c0-1.8,2.5-3.5,4.5-3.5c1.3,0,2.3,0.7,2.3,1.7c0,1.7-2.5,3.5-4.6,3.5C133.4,22.5,132.5,21.9,132.5,20.8z"/>
</g>
<rect x="147.3" y="15.8" width="0.5" height="26.4"/>
<g>
	<path d="M147.4,15.9c0-1.8,2.5-3.5,4.5-3.5c1.3,0,2.3,0.7,2.3,1.7c0,1.7-2.5,3.5-4.6,3.5C148.3,17.6,147.4,16.9,147.4,15.9z"/>
</g>
<rect x="175.5" y="28.2" width="0.5" height="14"/>
<g>
	<path d="M175.6,28.3c0-1.8,2.5-3.5,4.5-3.5c1.3,0,2.3,0.7,2.3,1.7c0,1.7-2.5,3.5-4.6,3.5C176.5,30,175.6,29.3,175.6,28.3z"/>
</g>
<rect x="190.4" y="20.7" width="0.5" height="19.8"/>
<g>
	<path d="M190.4,20.8c0-1.8,2.5-3.5,4.5-3.5c1.3,0,2.3,0.7,2.3,1.7c0,1.7-2.5,3.5-4.6,3.5C191.4,22.5,190.4,21.9,190.4,20.8z"/>
</g>
<rect x="205.3" y="15.8" width="0.5" height="23.1"/>
<g>
	<path d="M205.3,15.9c0-1.8,2.5-3.5,4.5-3.5c1.3,0,2.3,0.7,2.3,1.7c0,1.7-2.5,3.5-4.6,3.5C206.3,17.6,205.3,16.9,205.3,15.9z"/>
</g>
<rect x="218.2" y="12.1" width="10.5" height="0.8"/>
<rect x="220" y="10.8" width="0.5" height="26.4"/>
<g>
	<path d="M220.1,10.9c0-1.8,2.5-3.5,4.5-3.5c1.3,0,2.3,0.7,2.3,1.7c0,1.7-2.5,3.5-4.6,3.5C221,12.6,220.1,12,220.1,10.9z"/>
</g>
<rect x="234.9" y="20.7" width="0.5" height="16.4"/>
<g>
	<path d="M234.9,20.8c0-1.8,2.5-3.5,4.5-3.5c1.3,0,2.3,0.7,2.3,1.7c0,1.7-2.5,3.5-4.6,3.5C235.9,22.5,234.9,21.9,234.9,20.8z"/>
</g>
<rect x="249.7" y="15.8" width="0.5" height="19.8"/>
<g>
	<path d="M249.8,15.9c0-1.8,2.5-3.5,4.5-3.5c1.3,0,2.3,0.7,2.3,1.7c0,1.7-2.5,3.5-4.6,3.5C250.8,17.6,249.8,16.9,249.8,15.9z"/>
</g>
<rect x="262.8" y="12.1" width="10.5" height="0.8"/>
<rect x="264.6" y="10.8" width="0.5" height="23.1"/>
<g>
	<path d="M264.7,10.9c0-1.8,2.5-3.5,4.5-3.5c1.3,0,2.3,0.7,2.3,1.7c0,1.7-2.5,3.5-4.6,3.5C265.7,12.6,264.7,12,264.7,10.9z"/>
</g>
<rect x="277.7" y="12.1" width="10.5" height="0.8"/>
<rect x="277.7" y="7.2" width="10.5" height="0.8"/>
<rect x="277.7" y="2.2" width="10.5" height="0.8"/>
<rect x="279.5" y="3.4" width="0.5" height="28.8"/>
<g>
	<path d="M279.6,3.5c0-1.8,2.5-3.5,4.5-3.5c1.3,0,2.3,0.7,2.3,1.7c0,1.7-2.5,3.5-4.6,3.5C280.6,5.2,279.6,4.5,279.6,3.5z"/>
</g>
<rect x="292.6" y="12.1" width="10.5" height="0.8"/>
<rect x="292.6" y="7.2" width="10.5" height="0.8"/>
<rect x="292.6" y="2.2" width="10.5" height="0.8"/>
<rect x="294.4" y="3.4" width="0.5" height="28.8"/>
<g>
	<path d="M294.5,3.5c0-1.8,2.5-3.5,4.5-3.5c1.3,0,2.3,0.7,2.3,1.7c0,1.7-2.5,3.5-4.6,3.5C295.4,5.2,294.5,4.5,294.5,3.5z"/>
</g>
<rect x="307.3" y="12.1" width="10.5" height="0.8"/>
<rect x="309.1" y="10.8" width="0.5" height="22.9"/>
<g>
	<path d="M309.2,10.9c0-1.8,2.5-3.5,4.5-3.5c1.3,0,2.3,0.7,2.3,1.7c0,1.7-2.5,3.5-4.6,3.5C310.2,12.6,309.2,12,309.2,10.9z"/>
</g>
<rect x="324" y="15.8" width="0.5" height="19.7"/>
<g>
	<path d="M324.1,15.9c0-1.8,2.5-3.5,4.5-3.5c1.3,0,2.3,0.7,2.3,1.7c0,1.7-2.5,3.5-4.6,3.5C325,17.6,324.1,16.9,324.1,15.9z"/>
</g>
<rect x="338.9" y="20.7" width="0.5" height="16.4"/>
<g>
	<path d="M339,20.8c0-1.8,2.5-3.5,4.5-3.5c1.3,0,2.3,0.7,2.3,1.7c0,1.7-2.5,3.5-4.6,3.5C339.9,22.5,339,21.9,339,20.8z"/>
</g>
<rect x="352" y="12.1" width="10.5" height="0.8"/>
<rect x="353.8" y="10.8" width="0.5" height="26.4"/>
<g>
	<path d="M353.8,10.9c0-1.8,2.5-3.5,4.5-3.5c1.3,0,2.3,0.7,2.3,1.7c0,1.7-2.5,3.5-4.6,3.5C354.8,12.6,353.8,12,353.8,10.9z"/>
</g>
<rect x="368.6" y="15.8" width="0.5" height="22.9"/>
<g>
	<path d="M368.7,15.9c0-1.8,2.5-3.5,4.5-3.5c1.3,0,2.3,0.7,2.3,1.7c0,1.7-2.5,3.5-4.6,3.5C369.7,17.6,368.7,16.9,368.7,15.9z"/>
</g>
<rect x="383.4" y="20.7" width="0.5" height="19.7"/>
<g>
	<path d="M383.4,20.8c0-1.8,2.5-3.5,4.5-3.5c1.3,0,2.3,0.7,2.3,1.7c0,1.7-2.5,3.5-4.6,3.5C384.4,22.5,383.4,21.9,383.4,20.8z"/>
</g>
<rect x="398.2" y="28.2" width="0.5" height="14"/>
<g>
	<path d="M398.3,28.3c0-1.8,2.5-3.5,4.5-3.5c1.3,0,2.3,0.7,2.3,1.7c0,1.7-2.5,3.5-4.6,3.5C399.3,30,398.3,29.3,398.3,28.3z"/>
</g>
<rect x="426.5" y="15.8" width="0.5" height="26.4"/>
<g>
	<path d="M426.5,15.9c0-1.8,2.5-3.5,4.5-3.5c1.3,0,2.3,0.7,2.3,1.7c0,1.7-2.5,3.5-4.6,3.5C427.5,17.6,426.5,16.9,426.5,15.9z"/>
</g>
<rect x="441.3" y="20.7" width="0.5" height="22.9"/>
<g>
	<path d="M441.4,20.8c0-1.8,2.5-3.5,4.5-3.5c1.3,0,2.3,0.7,2.3,1.7c0,1.7-2.5,3.5-4.6,3.5C442.4,22.5,441.4,21.9,441.4,20.8z"/>
</g>
<rect x="456.2" y="28.2" width="0.5" height="17.2"/>
<g>
	<path d="M456.3,28.3c0-1.8,2.5-3.5,4.5-3.5c1.3,0,2.3,0.7,2.3,1.7c0,1.7-2.5,3.5-4.6,3.5C457.3,30,456.3,29.3,456.3,28.3z"/>
</g>
<rect x="471.1" y="33.1" width="0.5" height="14"/>
<g>
	<path d="M471.2,33.2c0-1.8,2.5-3.5,4.5-3.5c1.3,0,2.3,0.7,2.3,1.7c0,1.7-2.5,3.5-4.6,3.5C472.2,34.9,471.2,34.3,471.2,33.2z"/>
</g>
<rect x="492.5" y="6.5" width="0.5" height="12.7"/>
<g>
	<path d="M486.1,20.8c0-1.8,2.5-3.5,4.5-3.5c1.3,0,2.3,0.7,2.3,1.7c0,1.7-2.5,3.5-4.6,3.5C487,22.5,486.1,21.9,486.1,20.8z"/>
</g>
<rect x="507.2" y="8" width="0.5" height="18.6"/>
<g>
	<path d="M500.8,28.3c0-1.8,2.5-3.5,4.5-3.5c1.3,0,2.3,0.7,2.3,1.7c0,1.7-2.5,3.5-4.6,3.5C501.8,30,500.8,29.3,500.8,28.3z"/>
</g>
<rect x="522.1" y="9.7" width="0.5" height="21.9"/>
<g>
	<path d="M515.7,33.2c0-1.8,2.5-3.5,4.5-3.5c1.3,0,2.3,0.7,2.3,1.7c0,1.7-2.5,3.5-4.6,3.5C516.6,34.9,515.7,34.3,515.7,33.2z"/>
</g>
<rect x="537" y="11.4" width="0.5" height="25.1"/>
<g>
	<path d="M530.5,38.2c0-1.8,2.5-3.5,4.5-3.5c1.3,0,2.3,0.7,2.3,1.7c0,1.7-2.5,3.5-4.6,3.5C531.5,39.9,530.5,39.3,530.5,38.2z"/>
</g>
<rect x="43.3" y="74.5" width="0.5" height="16.4"/>
<g>
	<path d="M43.3,74.6c0-1.8,2.5-3.5,4.5-3.5c1.3,0,2.3,0.7,2.3,1.7c0,1.7-2.5,3.5-4.6,3.5C44.3,76.3,43.3,75.7,43.3,74.6z"/>
</g>
<rect x="58.1" y="69.6" width="0.5" height="19.8"/>
<g>
	<path d="M58.2,69.6c0-1.8,2.5-3.5,4.5-3.5c1.3,0,2.3,0.7,2.3,1.7c0,1.7-2.5,3.5-4.6,3.5C59.2,71.4,58.2,70.7,58.2,69.6z"/>
</g>
<rect x="73" y="64.6" width="0.5" height="23.1"/>
<g>
	<path d="M73.1,64.7c0-1.8,2.5-3.5,4.5-3.5c1.3,0,2.3,0.7,2.3,1.7c0,1.7-2.5,3.5-4.6,3.5C74.1,66.4,73.1,65.8,73.1,64.7z"/>
</g>
<rect x="86" y="61" width="10.5" height="0.8"/>
<rect x="86" y="56" width="10.5" height="0.8"/>
<rect x="87.7" y="57.2" width="0.5" height="28.8"/>
<g>
	<path d="M87.8,57.2c0-1.8,2.5-3.5,4.5-3.5c1.3,0,2.3,0.7,2.3,1.7c0,1.7-2.5,3.5-4.6,3.5C88.8,59,87.8,58.3,87.8,57.2z"/>
</g>
<rect x="102.6" y="69.6" width="0.5" height="16.4"/>
<g>
	<path d="M102.7,69.6c0-1.8,2.5-3.5,4.5-3.5c1.3,0,2.3,0.7,2.3,1.7c0,1.7-2.5,3.5-4.6,3.5C103.7,71.4,102.7,70.7,102.7,69.6z"/>
</g>
<rect x="117.5" y="64.6" width="0.5" height="19.8"/>
<g>
	<path d="M117.6,64.7c0-1.8,2.5-3.5,4.5-3.5c1.3,0,2.3,0.7,2.3,1.7c0,1.7-2.5,3.5-4.6,3.5C118.6,66.4,117.6,65.8,117.6,64.7z"/>
</g>
<rect x="130.6" y="61" width="10.5" height="0.8"/>
<rect x="130.6" y="56" width="10.5" height="0.8"/>
<rect x="132.4" y="57.2" width="0.5" height="25.6"/>
<g>
	<path d="M132.5,57.2c0-1.8,2.5-3.5,4.5-3.5c1.3,0,2.3,0.7,2.3,1.7c0,1.7-2.5,3.5-4.6,3.5C133.4,59,132.5,58.3,132.5,57.2z"/>
</g>
<rect x="145.5" y="61" width="10.5" height="0.8"/>
<rect x="145.5" y="56" width="10.5" height="0.8"/>
<rect x="145.5" y="51" width="10.5" height="0.8"/>
<rect x="147.3" y="52.2" width="0.5" height="28.8"/>
<g>
	<path d="M147.4,52.3c0-1.8,2.5-3.5,4.5-3.5c1.3,0,2.3,0.7,2.3,1.7c0,1.7-2.5,3.5-4.6,3.5C148.3,54,147.4,53.4,147.4,52.3z"/>
</g>
<rect x="173.7" y="90.7" width="10.5" height="0.8"/>
<rect x="182" y="66.5" width="0.5" height="26.4"/>
<g>
	<path d="M175.6,94.4c0-1.8,2.5-3.5,4.5-3.5c1.3,0,2.3,0.7,2.3,1.7c0,1.7-2.5,3.5-4.6,3.5C176.5,96.2,175.6,95.5,175.6,94.4z"/>
</g>
<rect x="196.9" y="64.9" width="0.5" height="20.5"/>
<g>
	<path d="M190.4,87c0-1.8,2.5-3.5,4.5-3.5c1.3,0,2.3,0.7,2.3,1.7c0,1.7-2.5,3.5-4.6,3.5C191.4,88.7,190.4,88.1,190.4,87z"/>
</g>
<rect x="211.8" y="63.2" width="0.5" height="17.2"/>
<g>
	<path d="M205.3,82c0-1.8,2.5-3.5,4.5-3.5c1.3,0,2.3,0.7,2.3,1.7c0,1.7-2.5,3.5-4.6,3.5C206.3,83.8,205.3,83.1,205.3,82z"/>
</g>
<rect x="226.5" y="61.5" width="0.5" height="14"/>
<g>
	<path d="M220.1,77.1c0-1.8,2.5-3.5,4.5-3.5c1.3,0,2.3,0.7,2.3,1.7c0,1.7-2.5,3.5-4.6,3.5C221,78.8,220.1,78.2,220.1,77.1z"/>
</g>
<rect x="241.4" y="60.3" width="0.5" height="25.1"/>
<g>
	<path d="M234.9,87c0-1.8,2.5-3.5,4.5-3.5c1.3,0,2.3,0.7,2.3,1.7c0,1.7-2.5,3.5-4.6,3.5C235.9,88.7,234.9,88.1,234.9,87z"/>
</g>
<rect x="256.3" y="58.7" width="0.5" height="21.7"/>
<g>
	<path d="M249.8,82c0-1.8,2.5-3.5,4.5-3.5c1.3,0,2.3,0.7,2.3,1.7c0,1.7-2.5,3.5-4.6,3.5C250.8,83.8,249.8,83.1,249.8,82z"/>
</g>
<rect x="271.1" y="57" width="0.5" height="18.4"/>
<g>
	<path d="M264.7,77.1c0-1.8,2.5-3.5,4.5-3.5c1.3,0,2.3,0.7,2.3,1.7c0,1.7-2.5,3.5-4.6,3.5C265.7,78.8,264.7,78.2,264.7,77.1z"/>
</g>
<rect x="286" y="55.3" width="0.5" height="12.7"/>
<g>
	<path d="M279.6,69.6c0-1.8,2.5-3.5,4.5-3.5c1.3,0,2.3,0.7,2.3,1.7c0,1.7-2.5,3.5-4.6,3.5C280.6,71.4,279.6,70.7,279.6,69.6z"/>
</g>
<rect x="300.9" y="55.3" width="0.5" height="12.7"/>
<g>
	<path d="M294.5,69.6c0-1.8,2.5-3.5,4.5-3.5c1.3,0,2.3,0.7,2.3,1.7c0,1.7-2.5,3.5-4.6,3.5C295.4,71.4,294.5,70.7,294.5,69.6z"/>
</g>
<rect x="315.6" y="56.9" width="0.5" height="18.6"/>
<g>
	<path d="M309.2,77.1c0-1.8,2.5-3.5,4.5-3.5c1.3,0,2.3,0.7,2.3,1.7c0,1.7-2.5,3.5-4.6,3.5C310.2,78.8,309.2,78.2,309.2,77.1z"/>
</g>
<rect x="330.5" y="58.6" width="0.5" height="21.9"/>
<g>
	<path d="M324.1,82c0-1.8,2.5-3.5,4.5-3.5c1.3,0,2.3,0.7,2.3,1.7c0,1.7-2.5,3.5-4.6,3.5C325,83.8,324.1,83.1,324.1,82z"/>
</g>
<rect x="345.4" y="60.3" width="0.5" height="25.1"/>
<g>
	<path d="M339,87c0-1.8,2.5-3.5,4.5-3.5c1.3,0,2.3,0.7,2.3,1.7c0,1.7-2.5,3.5-4.6,3.5C339.9,88.7,339,88.1,339,87z"/>
</g>
<rect x="360.3" y="61.5" width="0.5" height="14"/>
<g>
	<path d="M353.8,77.1c0-1.8,2.5-3.5,4.5-3.5c1.3,0,2.3,0.7,2.3,1.7c0,1.7-2.5,3.5-4.6,3.5C354.8,78.8,353.8,78.2,353.8,77.1z"/>
</g>
<rect x="375.1" y="63.1" width="0.5" height="17.4"/>
<g>
	<path d="M368.7,82c0-1.8,2.5-3.5,4.5-3.5c1.3,0,2.3,0.7,2.3,1.7c0,1.7-2.5,3.5-4.6,3.5C369.7,83.8,368.7,83.1,368.7,82z"/>
</g>
<rect x="389.9" y="64.8" width="0.5" height="20.6"/>
<g>
	<path d="M383.4,87c0-1.8,2.5-3.5,4.5-3.5c1.3,0,2.3,0.7,2.3,1.7c0,1.7-2.5,3.5-4.6,3.5C384.4,88.7,383.4,88.1,383.4,87z"/>
</g>
<rect x="396.5" y="90.7" width="10.5" height="0.8"/>
<rect x="404.8" y="66.5" width="0.5" height="26.4"/>
<g>
	<path d="M398.3,94.4c0-1.8,2.5-3.5,4.5-3.5c1.3,0,2.3,0.7,2.3,1.7c0,1.7-2.5,3.5-4.6,3.5C399.3,96.2,398.3,95.5,398.3,94.4z"/>
</g>
<rect x="424.7" y="61" width="10.5" height="0.8"/>
<rect x="424.7" y="56" width="10.5" height="0.8"/>
<rect x="424.7" y="51" width="10.5" height="0.8"/>
<rect x="426.5" y="52.2" width="0.5" height="28.8"/>
<g>
	<path d="M426.5,52.3c0-1.8,2.5-3.5,4.5-3.5c1.3,0,2.3,0.7,2.3,1.7c0,1.7-2.5,3.5-4.6,3.5C427.5,54,426.5,53.4,426.5,52.3z"/>
</g>
<rect x="439.6" y="61" width="10.5" height="0.8"/>
<rect x="439.6" y="56" width="10.5" height="0.8"/>
<rect x="441.3" y="57.2" width="0.5" height="25.4"/>
<g>
	<path d="M441.4,57.2c0-1.8,2.5-3.5,4.5-3.5c1.3,0,2.3,0.7,2.3,1.7c0,1.7-2.5,3.5-4.6,3.5C442.4,59,441.4,58.3,441.4,57.2z"/>
</g>
<rect x="456.2" y="64.6" width="0.5" height="19.7"/>
<g>
	<path d="M456.3,64.7c0-1.8,2.5-3.5,4.5-3.5c1.3,0,2.3,0.7,2.3,1.7c0,1.7-2.5,3.5-4.6,3.5C457.3,66.4,456.3,65.8,456.3,64.7z"/>
</g>
<rect x="471.1" y="69.6" width="0.5" height="16.4"/>
<g>
	<path d="M471.2,69.6c0-1.8,2.5-3.5,4.5-3.5c1.3,0,2.3,0.7,2.3,1.7c0,1.7-2.5,3.5-4.6,3.5C472.2,71.4,471.2,70.7,471.2,69.6z"/>
</g>
<rect x="484.2" y="61" width="10.5" height="0.8"/>
<rect x="484.2" y="56" width="10.5" height="0.8"/>
<rect x="486" y="57.2" width="0.5" height="28.8"/>
<g>
	<path d="M486.1,57.2c0-1.8,2.5-3.5,4.5-3.5c1.3,0,2.3,0.7,2.3,1.7c0,1.7-2.5,3.5-4.6,3.5C487,59,486.1,58.3,486.1,57.2z"/>
</g>
<rect x="500.7" y="64.6" width="0.5" height="22.9"/>
<g>
	<path d="M500.8,64.7c0-1.8,2.5-3.5,4.5-3.5c1.3,0,2.3,0.7,2.3,1.7c0,1.7-2.5,3.5-4.6,3.5C501.8,66.4,500.8,65.8,500.8,64.7z"/>
</g>
<rect x="515.6" y="69.6" width="0.5" height="19.7"/>
<g>
	<path d="M515.7,69.6c0-1.8,2.5-3.5,4.5-3.5c1.3,0,2.3,0.7,2.3,1.7c0,1.7-2.5,3.5-4.6,3.5C516.6,71.4,515.7,70.7,515.7,69.6z"/>
</g>
<rect x="530.5" y="74.5" width="0.5" height="16.4"/>
<g>
	<path d="M530.5,74.6c0-1.8,2.5-3.5,4.5-3.5c1.3,0,2.3,0.7,2.3,1.7c0,1.7-2.5,3.5-4.6,3.5C531.5,76.3,530.5,75.7,530.5,74.6z"/>
</g>
</svg>
