<?xml version="1.0" encoding="utf-8"?>

<!--
	ScaleBook
	Copyright (c) Leland Jansen 2015. All rights reserved.
-->

<!DOCTYPE svg PUBLIC "-//W3C//DTD SVG 1.1//EN" "http://www.w3.org/Graphics/SVG/1.1/DTD/svg11.dtd">
<svg version="1.1" id="Layer_1" xmlns="http://www.w3.org/2000/svg" xmlns:xlink="http://www.w3.org/1999/xlink" x="0px" y="0px"
	 viewBox="0 0 553 88.4" enable-background="new 0 0 553 88.4" xml:space="preserve">
<rect x="8.5" y="9.9" width="0.8" height="68.5"/>
<g>
	<path d="M7.6,10.6c-2,1.1-3.7,5.9-3.7,9.7c0,2.3,1.4,10.1,1.4,12.5c0,5.1-1.6,8.8-4.7,11.4c3.1,2.5,4.7,6.2,4.7,11.3
		c0,2.3-1.4,10.1-1.4,12.5c0,3.9,1.8,8.6,3.7,9.7v0.7C4,76.1,1.7,70,1.7,65.1c0-2.2,1.8-9.6,1.8-11.8c0-3.9-1-6.7-3-8.4
		C0.1,44.6,0,44.4,0,44.2c0-0.2,0.1-0.4,0.5-0.7c2-1.7,3-4.3,3-7.7c0-2.2-1.8-10.3-1.8-12.5c0-5.3,2.1-10.6,5.9-13.4V10.6z"/>
</g>
<rect x="548" y="9.9" width="0.8" height="68.5"/>
<rect x="550.5" y="9.9" width="2.5" height="68.5"/>
<rect x="8.6" y="29.5" width="544.4" height="0.5"/>
<rect x="8.6" y="24.6" width="544.4" height="0.5"/>
<rect x="8.6" y="19.6" width="544.4" height="0.5"/>
<rect x="8.6" y="14.6" width="544.4" height="0.5"/>
<rect x="8.6" y="9.7" width="544.4" height="0.5"/>
<g>
	<path d="M20.4,29.6c-4.2,0-8.1-3.1-8.1-6.9c0-3.2,2.3-6.7,6.8-10.5c-0.3-1.2-0.4-2.4-0.4-3.6c0-3.5,1.2-6.8,3.2-8.5
		c1.8,2.5,2.7,4.9,2.7,7.1c0,2.9-1.3,5.6-4.3,8.1l0.9,4.2c0.5,0,0.8-0.1,0.8-0.1c2.6,0,4.8,2,4.8,4.7c0,1.9-1.4,3.7-3.6,4.8
		c0-0.1,0.9,3.8,0.9,4.3c0,2.5-2.3,4.2-4.9,4.2c-2,0-3.6-1.3-3.6-3.4c0-1.4,1-2.6,2.4-2.6c1.3,0,2.3,1.3,2.3,2.5
		c0,1.4-1.2,2.3-2.7,2.5c0.6,0.3,1.2,0.5,1.9,0.5c2.1,0,4.1-1.6,4.1-3.6c0-0.2,0-0.4-0.1-0.6l-0.8-3.7
		C22.1,29.5,21.4,29.6,20.4,29.6z M18.2,24.4c0,1,0.5,1.9,1.6,2.5c-1.8-0.3-3-1.4-3-3.1c0-2,1.7-3.7,3.8-4.1l-0.8-4
		c-3.7,2.8-5.7,5.5-5.7,8.1c0,2.9,2.8,5.3,6,5.3c0.9,0,1.7-0.2,2.4-0.5l-1.4-6.8C19.5,22,18.2,23,18.2,24.4z M22.3,3
		c-1.6,0-2.9,3.7-2.9,7c0,0.7,0,1.3,0.2,1.9c2.7-2.4,4-4.5,4-6.5c0-0.9-0.3-1.7-1-2.4C22.5,3.1,22.4,3,22.3,3z M25,24.9
		c0-1.6-1.2-3.3-2.9-3.3c-0.1,0-0.2,0-0.5,0l1.4,6.6C24.4,27.4,25,26.2,25,24.9z"/>
</g>
<g>
	<path d="M29.7,11.5h0.6l-0.1,6.2c0.4-0.7,1-1,1.8-1c1.2,0,2.2,0.8,2.2,1.9c0,0.8-0.5,1.8-1.7,2.7l-2.8,2.1V11.5z M30.3,18.4
		c-0.1,0.8-0.1,1.4-0.1,1.9c0,1,0,1.6,0.1,2c1-0.7,2.4-2.6,2.4-3.7c0-0.6-0.5-1.1-1.1-1.1C31,17.6,30.6,17.9,30.3,18.4z"/>
</g>
<g>
	<path d="M35.3,4.1h0.6l-0.1,6.2c0.4-0.7,1-1,1.8-1c1.2,0,2.2,0.8,2.2,1.9c0,0.8-0.5,1.8-1.7,2.7L35.3,16V4.1z M35.9,11
		c-0.1,0.8-0.1,1.4-0.1,1.9c0,1,0,1.6,0.1,2c1-0.7,2.4-2.6,2.4-3.7c0-0.6-0.5-1.1-1.1-1.1C36.6,10.2,36.1,10.4,35.9,11z"/>
</g>
<polygon fill-rule="evenodd" clip-rule="evenodd" points="55,21.1 101.6,16.1 101.6,13.6 55,18.6 "/>
<polygon fill-rule="evenodd" clip-rule="evenodd" points="55,17.4 101.6,12.4 101.6,9.9 55,14.9 "/>
<polygon fill-rule="evenodd" clip-rule="evenodd" points="117.1,16.1 163.8,11.2 163.8,8.7 117.1,13.6 "/>
<polygon fill-rule="evenodd" clip-rule="evenodd" points="117.1,12.4 163.8,7.4 163.8,5 117.1,9.9 "/>
<polygon fill-rule="evenodd" clip-rule="evenodd" points="179.3,11.2 225.8,6.2 225.8,3.7 179.3,8.7 "/>
<polygon fill-rule="evenodd" clip-rule="evenodd" points="179.3,7.4 225.8,2.5 225.8,0 179.3,5 "/>
<polygon fill-rule="evenodd" clip-rule="evenodd" points="234.9,36 281.4,31 281.4,28.5 234.9,33.5 "/>
<polygon fill-rule="evenodd" clip-rule="evenodd" points="234.9,39.7 281.4,34.7 281.4,32.2 234.9,37.2 "/>
<polygon fill-rule="evenodd" clip-rule="evenodd" points="297.1,31 343.6,36 343.6,33.5 297.1,28.5 "/>
<polygon fill-rule="evenodd" clip-rule="evenodd" points="297.1,34.7 343.6,39.7 343.6,37.2 297.1,32.2 "/>
<polygon fill-rule="evenodd" clip-rule="evenodd" points="365.6,6.2 412.3,11.2 412.3,8.7 365.6,3.7 "/>
<polygon fill-rule="evenodd" clip-rule="evenodd" points="365.6,2.5 412.3,7.4 412.3,5 365.6,0 "/>
<polygon fill-rule="evenodd" clip-rule="evenodd" points="427.8,11.2 474.4,16.1 474.4,13.6 427.8,8.7 "/>
<polygon fill-rule="evenodd" clip-rule="evenodd" points="427.8,7.4 474.4,12.4 474.4,9.9 427.8,5 "/>
<polygon fill-rule="evenodd" clip-rule="evenodd" points="489.9,16.1 536.6,21.1 536.6,18.6 489.9,13.6 "/>
<polygon fill-rule="evenodd" clip-rule="evenodd" points="489.9,12.4 536.6,17.4 536.6,14.9 489.9,9.9 "/>
<rect x="8.6" y="78.2" width="544.4" height="0.5"/>
<rect x="8.6" y="73.2" width="544.4" height="0.5"/>
<rect x="8.6" y="68.3" width="544.4" height="0.5"/>
<rect x="8.6" y="63.3" width="544.4" height="0.5"/>
<rect x="8.6" y="58.4" width="544.4" height="0.5"/>
<g>
	<path d="M15.9,72.8c2.9-2.6,4.7-6.1,4.7-9.2c0-2.5-1.4-4.4-3.7-4.4c-1.6,0-3.4,1.3-3.4,2.7c0,0.2,0,0.3,0.1,0.3
		c-0.1,0,0.6-0.6,1.4-0.6c0.9,0,1.5,0.8,1.5,1.7c0,1.2-0.9,2.2-2.1,2.2c-1.2,0-2.1-1.3-2.1-2.8c0-2.3,2.3-4.1,4.8-4.1
		c4.7,0,5.9,3.2,5.9,5.8c0,1.6-0.4,2.9-2,5.3c-1.9,3.1-6.4,5.3-8.1,5.3c-0.4,0-0.6-0.2-0.6-0.5C14,74,15.1,73.5,15.9,72.8z
		 M25.8,60.1c0.6,0,1,0.4,1,1s-0.4,1-1,1s-1-0.4-1-1S25.3,60.1,25.8,60.1z M25.8,65c0.6,0,1,0.4,1,1c0,0.6-0.4,1-1,1s-1-0.4-1-1
		C24.8,65.5,25.3,65,25.8,65z"/>
</g>
<g>
	<path d="M29.7,65.2h0.6l-0.1,6.2c0.4-0.7,1-1,1.8-1c1.2,0,2.2,0.8,2.2,1.9c0,0.8-0.5,1.8-1.7,2.7l-2.8,2.1V65.2z M30.3,72.1
		c-0.1,0.8-0.1,1.4-0.1,1.9c0,1,0,1.6,0.1,2c1-0.7,2.4-2.6,2.4-3.7c0-0.6-0.5-1.1-1.1-1.1C31,71.2,30.6,71.5,30.3,72.1z"/>
</g>
<g>
	<path d="M35.3,57.7h0.6L35.8,64c0.4-0.7,1-1,1.8-1c1.2,0,2.2,0.8,2.2,1.9c0,0.8-0.5,1.8-1.7,2.7l-2.8,2.1V57.7z M35.9,64.6
		c-0.1,0.8-0.1,1.4-0.1,1.9c0,1,0,1.6,0.1,2c1-0.7,2.4-2.6,2.4-3.7c0-0.6-0.5-1.1-1.1-1.1C36.6,63.8,36.1,64.1,35.9,64.6z"/>
</g>
<polygon fill-rule="evenodd" clip-rule="evenodd" points="55,58.6 101.6,53.6 101.6,51.2 55,56.1 "/>
<polygon fill-rule="evenodd" clip-rule="evenodd" points="55,54.9 101.6,49.9 101.6,47.4 55,52.4 "/>
<polygon fill-rule="evenodd" clip-rule="evenodd" points="110.6,84.6 157.3,79.7 157.3,77.2 110.6,82.2 "/>
<polygon fill-rule="evenodd" clip-rule="evenodd" points="110.6,88.4 157.3,83.4 157.3,80.9 110.6,85.9 "/>
<polygon fill-rule="evenodd" clip-rule="evenodd" points="172.8,79.7 219.3,74.7 219.3,72.2 172.8,77.2 "/>
<polygon fill-rule="evenodd" clip-rule="evenodd" points="172.8,83.4 219.3,78.4 219.3,76 172.8,80.9 "/>
<polygon fill-rule="evenodd" clip-rule="evenodd" points="234.9,74.7 281.4,69.8 281.4,67.3 234.9,72.2 "/>
<polygon fill-rule="evenodd" clip-rule="evenodd" points="234.9,78.4 281.4,73.5 281.4,71 234.9,76 "/>
<polygon fill-rule="evenodd" clip-rule="evenodd" points="297.1,69.8 343.6,74.7 343.6,72.2 297.1,67.3 "/>
<polygon fill-rule="evenodd" clip-rule="evenodd" points="297.1,73.5 343.6,78.4 343.6,76 297.1,71 "/>
<polygon fill-rule="evenodd" clip-rule="evenodd" points="359.1,74.7 405.8,79.7 405.8,77.2 359.1,72.2 "/>
<polygon fill-rule="evenodd" clip-rule="evenodd" points="359.1,78.4 405.8,83.4 405.8,80.9 359.1,76 "/>
<polygon fill-rule="evenodd" clip-rule="evenodd" points="421.3,79.7 467.9,84.6 467.9,82.2 421.3,77.2 "/>
<polygon fill-rule="evenodd" clip-rule="evenodd" points="421.3,83.4 467.9,88.4 467.9,85.9 421.3,80.9 "/>
<polygon fill-rule="evenodd" clip-rule="evenodd" points="489.9,53.6 536.6,58.6 536.6,56.1 489.9,51.2 "/>
<polygon fill-rule="evenodd" clip-rule="evenodd" points="489.9,49.9 536.6,54.9 536.6,52.4 489.9,47.4 "/>
<rect x="46.4" y="34.3" width="10.5" height="0.8"/>
<rect x="46.4" y="39.3" width="10.5" height="0.8"/>
<rect x="54.7" y="15" width="0.5" height="26.4"/>
<g>
	<path d="M48.3,43c0-1.8,2.5-3.5,4.5-3.5c1.3,0,2.3,0.7,2.3,1.7c0,1.7-2.5,3.5-4.6,3.5C49.3,44.7,48.3,44.1,48.3,43z"/>
</g>
<rect x="61.9" y="34.3" width="10.5" height="0.8"/>
<rect x="70.2" y="13.5" width="0.5" height="22.9"/>
<g>
	<path d="M63.8,38.1c0-1.8,2.5-3.5,4.5-3.5c1.3,0,2.3,0.7,2.3,1.7c0,1.7-2.5,3.5-4.6,3.5C64.8,39.8,63.8,39.1,63.8,38.1z"/>
</g>
<rect x="85.7" y="11.8" width="0.5" height="19.7"/>
<g>
	<path d="M79.3,33.1c0-1.8,2.5-3.5,4.5-3.5c1.3,0,2.3,0.7,2.3,1.7c0,1.7-2.5,3.5-4.6,3.5C80.3,34.8,79.3,34.2,79.3,33.1z"/>
</g>
<rect x="101.4" y="10.1" width="0.5" height="14"/>
<g>
	<path d="M95,25.7c0-1.8,2.5-3.5,4.5-3.5c1.3,0,2.3,0.7,2.3,1.7c0,1.7-2.5,3.5-4.6,3.5C95.9,27.4,95,26.7,95,25.7z"/>
</g>
<rect x="108.6" y="34.3" width="10.5" height="0.8"/>
<rect x="116.9" y="10.1" width="0.5" height="26.4"/>
<g>
	<path d="M110.5,38.1c0-1.8,2.5-3.5,4.5-3.5c1.3,0,2.3,0.7,2.3,1.7c0,1.7-2.5,3.5-4.6,3.5C111.4,39.8,110.5,39.1,110.5,38.1z"/>
</g>
<rect x="132.4" y="8.5" width="0.5" height="22.9"/>
<g>
	<path d="M126,33.1c0-1.8,2.5-3.5,4.5-3.5c1.3,0,2.3,0.7,2.3,1.7c0,1.7-2.5,3.5-4.6,3.5C126.9,34.8,126,34.2,126,33.1z"/>
</g>
<rect x="147.9" y="6.8" width="0.5" height="17.2"/>
<g>
	<path d="M141.5,25.7c0-1.8,2.5-3.5,4.5-3.5c1.3,0,2.3,0.7,2.3,1.7c0,1.7-2.5,3.5-4.6,3.5C142.4,27.4,141.5,26.7,141.5,25.7z"/>
</g>
<rect x="163.6" y="5.1" width="0.5" height="14"/>
<g>
	<path d="M157.1,20.7c0-1.8,2.5-3.5,4.5-3.5c1.3,0,2.3,0.7,2.3,1.7c0,1.7-2.5,3.5-4.6,3.5C158.1,22.4,157.1,21.8,157.1,20.7z"/>
</g>
<rect x="179.1" y="5.1" width="0.5" height="26.4"/>
<g>
	<path d="M172.6,33.1c0-1.8,2.5-3.5,4.5-3.5c1.3,0,2.3,0.7,2.3,1.7c0,1.7-2.5,3.5-4.6,3.5C173.6,34.8,172.6,34.2,172.6,33.1z"/>
</g>
<rect x="194.6" y="3.6" width="0.5" height="20.5"/>
<g>
	<path d="M188.1,25.7c0-1.8,2.5-3.5,4.5-3.5c1.3,0,2.3,0.7,2.3,1.7c0,1.7-2.5,3.5-4.6,3.5C189.1,27.4,188.1,26.7,188.1,25.7z"/>
</g>
<rect x="210.1" y="1.9" width="0.5" height="17.2"/>
<g>
	<path d="M203.6,20.7c0-1.8,2.5-3.5,4.5-3.5c1.3,0,2.3,0.7,2.3,1.7c0,1.7-2.5,3.5-4.6,3.5C204.6,22.4,203.6,21.8,203.6,20.7z"/>
</g>
<rect x="225.6" y="0.2" width="0.5" height="14"/>
<g>
	<path d="M219.1,15.7c0-1.8,2.5-3.5,4.5-3.5c1.3,0,2.3,0.7,2.3,1.7c0,1.7-2.5,3.5-4.6,3.5C220.1,17.5,219.1,16.8,219.1,15.7z"/>
</g>
<rect x="234.7" y="25.6" width="0.5" height="14"/>
<g>
	<path d="M234.8,25.7c0-1.8,2.5-3.5,4.5-3.5c1.3,0,2.3,0.7,2.3,1.7c0,1.7-2.5,3.5-4.6,3.5C235.8,27.4,234.8,26.7,234.8,25.7z"/>
</g>
<rect x="250.2" y="20.6" width="0.5" height="17.4"/>
<g>
	<path d="M250.3,20.7c0-1.8,2.5-3.5,4.5-3.5c1.3,0,2.3,0.7,2.3,1.7c0,1.7-2.5,3.5-4.6,3.5C251.3,22.4,250.3,21.8,250.3,20.7z"/>
</g>
<rect x="265.7" y="15.7" width="0.5" height="20.6"/>
<g>
	<path d="M265.8,15.7c0-1.8,2.5-3.5,4.5-3.5c1.3,0,2.3,0.7,2.3,1.7c0,1.7-2.5,3.5-4.6,3.5C266.8,17.5,265.8,16.8,265.8,15.7z"/>
</g>
<rect x="281.2" y="8.2" width="0.5" height="26.4"/>
<g>
	<path d="M281.3,8.3c0-1.8,2.5-3.5,4.5-3.5c1.3,0,2.3,0.7,2.3,1.7c0,1.7-2.5,3.5-4.6,3.5C282.3,10,281.3,9.4,281.3,8.3z"/>
</g>
<rect x="296.9" y="8.2" width="0.5" height="26.4"/>
<g>
	<path d="M296.9,8.3c0-1.8,2.5-3.5,4.5-3.5c1.3,0,2.3,0.7,2.3,1.7c0,1.7-2.5,3.5-4.6,3.5C297.9,10,296.9,9.4,296.9,8.3z"/>
</g>
<rect x="312.4" y="15.7" width="0.5" height="20.5"/>
<g>
	<path d="M312.4,15.7c0-1.8,2.5-3.5,4.5-3.5c1.3,0,2.3,0.7,2.3,1.7c0,1.7-2.5,3.5-4.6,3.5C313.4,17.5,312.4,16.8,312.4,15.7z"/>
</g>
<rect x="327.9" y="20.6" width="0.5" height="17.2"/>
<g>
	<path d="M327.9,20.7c0-1.8,2.5-3.5,4.5-3.5c1.3,0,2.3,0.7,2.3,1.7c0,1.7-2.5,3.5-4.6,3.5C328.9,22.4,327.9,21.8,327.9,20.7z"/>
</g>
<rect x="343.4" y="25.6" width="0.5" height="14"/>
<g>
	<path d="M343.4,25.7c0-1.8,2.5-3.5,4.5-3.5c1.3,0,2.3,0.7,2.3,1.7c0,1.7-2.5,3.5-4.6,3.5C344.4,27.4,343.4,26.7,343.4,25.7z"/>
</g>
<rect x="365.4" y="0.2" width="0.5" height="14"/>
<g>
	<path d="M358.9,15.7c0-1.8,2.5-3.5,4.5-3.5c1.3,0,2.3,0.7,2.3,1.7c0,1.7-2.5,3.5-4.6,3.5C359.9,17.5,358.9,16.8,358.9,15.7z"/>
</g>
<rect x="381" y="1.7" width="0.5" height="17.4"/>
<g>
	<path d="M374.6,20.7c0-1.8,2.5-3.5,4.5-3.5c1.3,0,2.3,0.7,2.3,1.7c0,1.7-2.5,3.5-4.6,3.5C375.6,22.4,374.6,21.8,374.6,20.7z"/>
</g>
<rect x="396.5" y="3.4" width="0.5" height="20.6"/>
<g>
	<path d="M390.1,25.7c0-1.8,2.5-3.5,4.5-3.5c1.3,0,2.3,0.7,2.3,1.7c0,1.7-2.5,3.5-4.6,3.5C391.1,27.4,390.1,26.7,390.1,25.7z"/>
</g>
<rect x="412" y="5.1" width="0.5" height="26.4"/>
<g>
	<path d="M405.6,33.1c0-1.8,2.5-3.5,4.5-3.5c1.3,0,2.3,0.7,2.3,1.7c0,1.7-2.5,3.5-4.6,3.5C406.6,34.8,405.6,34.2,405.6,33.1z"/>
</g>
<rect x="427.5" y="5.1" width="0.5" height="14"/>
<g>
	<path d="M421.1,20.7c0-1.8,2.5-3.5,4.5-3.5c1.3,0,2.3,0.7,2.3,1.7c0,1.7-2.5,3.5-4.6,3.5C422.1,22.4,421.1,21.8,421.1,20.7z"/>
</g>
<rect x="443" y="6.7" width="0.5" height="17.4"/>
<g>
	<path d="M436.6,25.7c0-1.8,2.5-3.5,4.5-3.5c1.3,0,2.3,0.7,2.3,1.7c0,1.7-2.5,3.5-4.6,3.5C437.6,27.4,436.6,26.7,436.6,25.7z"/>
</g>
<rect x="458.7" y="8.4" width="0.5" height="23.1"/>
<g>
	<path d="M452.3,33.1c0-1.8,2.5-3.5,4.5-3.5c1.3,0,2.3,0.7,2.3,1.7c0,1.7-2.5,3.5-4.6,3.5C453.2,34.8,452.3,34.2,452.3,33.1z"/>
</g>
<rect x="465.9" y="34.3" width="10.5" height="0.8"/>
<rect x="474.2" y="10.1" width="0.5" height="26.4"/>
<g>
	<path d="M467.8,38.1c0-1.8,2.5-3.5,4.5-3.5c1.3,0,2.3,0.7,2.3,1.7c0,1.7-2.5,3.5-4.6,3.5C468.7,39.8,467.8,39.1,467.8,38.1z"/>
</g>
<rect x="489.7" y="10.1" width="0.5" height="14"/>
<g>
	<path d="M483.3,25.7c0-1.8,2.5-3.5,4.5-3.5c1.3,0,2.3,0.7,2.3,1.7c0,1.7-2.5,3.5-4.6,3.5C484.2,27.4,483.3,26.7,483.3,25.7z"/>
</g>
<rect x="505.2" y="11.6" width="0.5" height="19.8"/>
<g>
	<path d="M498.8,33.1c0-1.8,2.5-3.5,4.5-3.5c1.3,0,2.3,0.7,2.3,1.7c0,1.7-2.5,3.5-4.6,3.5C499.7,34.8,498.8,34.2,498.8,33.1z"/>
</g>
<rect x="512.6" y="34.3" width="10.5" height="0.8"/>
<rect x="520.9" y="13.3" width="0.5" height="23.1"/>
<g>
	<path d="M514.4,38.1c0-1.8,2.5-3.5,4.5-3.5c1.3,0,2.3,0.7,2.3,1.7c0,1.7-2.5,3.5-4.6,3.5C515.4,39.8,514.4,39.1,514.4,38.1z"/>
</g>
<rect x="528.1" y="34.3" width="10.5" height="0.8"/>
<rect x="528.1" y="39.3" width="10.5" height="0.8"/>
<rect x="536.4" y="15" width="0.5" height="26.4"/>
<g>
	<path d="M529.9,43c0-1.8,2.5-3.5,4.5-3.5c1.3,0,2.3,0.7,2.3,1.7c0,1.7-2.5,3.5-4.6,3.5C530.9,44.7,529.9,44.1,529.9,43z"/>
</g>
<rect x="54.7" y="52.5" width="0.5" height="25.1"/>
<g>
	<path d="M48.3,79.3c0-1.8,2.5-3.5,4.5-3.5c1.3,0,2.3,0.7,2.3,1.7c0,1.7-2.5,3.5-4.6,3.5C49.3,81,48.3,80.4,48.3,79.3z"/>
</g>
<rect x="70.2" y="51" width="0.5" height="21.7"/>
<g>
	<path d="M63.8,74.3c0-1.8,2.5-3.5,4.5-3.5c1.3,0,2.3,0.7,2.3,1.7c0,1.7-2.5,3.5-4.6,3.5C64.8,76.1,63.8,75.4,63.8,74.3z"/>
</g>
<rect x="85.7" y="49.3" width="0.5" height="18.4"/>
<g>
	<path d="M79.3,69.4c0-1.8,2.5-3.5,4.5-3.5c1.3,0,2.3,0.7,2.3,1.7c0,1.7-2.5,3.5-4.6,3.5C80.3,71.1,79.3,70.5,79.3,69.4z"/>
</g>
<rect x="101.4" y="47.6" width="0.5" height="12.7"/>
<g>
	<path d="M95,61.9c0-1.8,2.5-3.5,4.5-3.5c1.3,0,2.3,0.7,2.3,1.7c0,1.7-2.5,3.5-4.6,3.5C95.9,63.7,95,63,95,61.9z"/>
</g>
<rect x="110.4" y="74.2" width="0.5" height="14"/>
<g>
	<path d="M110.5,74.3c0-1.8,2.5-3.5,4.5-3.5c1.3,0,2.3,0.7,2.3,1.7c0,1.7-2.5,3.5-4.6,3.5C111.4,76.1,110.5,75.4,110.5,74.3z"/>
</g>
<rect x="125.9" y="69.3" width="0.5" height="17.4"/>
<g>
	<path d="M126,69.4c0-1.8,2.5-3.5,4.5-3.5c1.3,0,2.3,0.7,2.3,1.7c0,1.7-2.5,3.5-4.6,3.5C126.9,71.1,126,70.5,126,69.4z"/>
</g>
<rect x="141.4" y="61.8" width="0.5" height="23.1"/>
<g>
	<path d="M141.5,61.9c0-1.8,2.5-3.5,4.5-3.5c1.3,0,2.3,0.7,2.3,1.7c0,1.7-2.5,3.5-4.6,3.5C142.4,63.7,141.5,63,141.5,61.9z"/>
</g>
<rect x="157" y="56.9" width="0.5" height="26.4"/>
<g>
	<path d="M157.1,57c0-1.8,2.5-3.5,4.5-3.5c1.3,0,2.3,0.7,2.3,1.7c0,1.7-2.5,3.5-4.6,3.5C158.1,58.7,157.1,58.1,157.1,57z"/>
</g>
<rect x="172.5" y="69.3" width="0.5" height="14"/>
<g>
	<path d="M172.6,69.4c0-1.8,2.5-3.5,4.5-3.5c1.3,0,2.3,0.7,2.3,1.7c0,1.7-2.5,3.5-4.6,3.5C173.6,71.1,172.6,70.5,172.6,69.4z"/>
</g>
<rect x="188" y="61.8" width="0.5" height="19.8"/>
<g>
	<path d="M188.1,61.9c0-1.8,2.5-3.5,4.5-3.5c1.3,0,2.3,0.7,2.3,1.7c0,1.7-2.5,3.5-4.6,3.5C189.1,63.7,188.1,63,188.1,61.9z"/>
</g>
<rect x="203.5" y="56.9" width="0.5" height="23.1"/>
<g>
	<path d="M203.6,57c0-1.8,2.5-3.5,4.5-3.5c1.3,0,2.3,0.7,2.3,1.7c0,1.7-2.5,3.5-4.6,3.5C204.6,58.7,203.6,58.1,203.6,57z"/>
</g>
<rect x="217.3" y="53.2" width="10.5" height="0.8"/>
<rect x="219" y="51.9" width="0.5" height="26.4"/>
<g>
	<path d="M219.1,52c0-1.8,2.5-3.5,4.5-3.5c1.3,0,2.3,0.7,2.3,1.7c0,1.7-2.5,3.5-4.6,3.5C220.1,53.7,219.1,53.1,219.1,52z"/>
</g>
<rect x="234.7" y="61.8" width="0.5" height="16.4"/>
<g>
	<path d="M234.8,61.9c0-1.8,2.5-3.5,4.5-3.5c1.3,0,2.3,0.7,2.3,1.7c0,1.7-2.5,3.5-4.6,3.5C235.8,63.7,234.8,63,234.8,61.9z"/>
</g>
<rect x="250.2" y="56.9" width="0.5" height="19.8"/>
<g>
	<path d="M250.3,57c0-1.8,2.5-3.5,4.5-3.5c1.3,0,2.3,0.7,2.3,1.7c0,1.7-2.5,3.5-4.6,3.5C251.3,58.7,250.3,58.1,250.3,57z"/>
</g>
<rect x="263.9" y="53.2" width="10.5" height="0.8"/>
<rect x="265.7" y="51.9" width="0.5" height="23.1"/>
<g>
	<path d="M265.8,52c0-1.8,2.5-3.5,4.5-3.5c1.3,0,2.3,0.7,2.3,1.7c0,1.7-2.5,3.5-4.6,3.5C266.8,53.7,265.8,53.1,265.8,52z"/>
</g>
<rect x="279.4" y="53.2" width="10.5" height="0.8"/>
<rect x="279.4" y="48.3" width="10.5" height="0.8"/>
<rect x="279.4" y="43.3" width="10.5" height="0.8"/>
<rect x="281.2" y="44.5" width="0.5" height="28.8"/>
<g>
	<path d="M281.3,44.6c0-1.8,2.5-3.5,4.5-3.5c1.3,0,2.3,0.7,2.3,1.7c0,1.7-2.5,3.5-4.6,3.5C282.3,46.3,281.3,45.7,281.3,44.6z"/>
</g>
<rect x="295.1" y="53.2" width="10.5" height="0.8"/>
<rect x="295.1" y="48.3" width="10.5" height="0.8"/>
<rect x="295.1" y="43.3" width="10.5" height="0.8"/>
<rect x="296.9" y="44.5" width="0.5" height="28.8"/>
<g>
	<path d="M296.9,44.6c0-1.8,2.5-3.5,4.5-3.5c1.3,0,2.3,0.7,2.3,1.7c0,1.7-2.5,3.5-4.6,3.5C297.9,46.3,296.9,45.7,296.9,44.6z"/>
</g>
<rect x="310.6" y="53.2" width="10.5" height="0.8"/>
<rect x="312.4" y="51.9" width="0.5" height="22.9"/>
<g>
	<path d="M312.4,52c0-1.8,2.5-3.5,4.5-3.5c1.3,0,2.3,0.7,2.3,1.7c0,1.7-2.5,3.5-4.6,3.5C313.4,53.7,312.4,53.1,312.4,52z"/>
</g>
<rect x="327.9" y="56.9" width="0.5" height="19.7"/>
<g>
	<path d="M327.9,57c0-1.8,2.5-3.5,4.5-3.5c1.3,0,2.3,0.7,2.3,1.7c0,1.7-2.5,3.5-4.6,3.5C328.9,58.7,327.9,58.1,327.9,57z"/>
</g>
<rect x="343.4" y="61.8" width="0.5" height="16.4"/>
<g>
	<path d="M343.4,61.9c0-1.8,2.5-3.5,4.5-3.5c1.3,0,2.3,0.7,2.3,1.7c0,1.7-2.5,3.5-4.6,3.5C344.4,63.7,343.4,63,343.4,61.9z"/>
</g>
<rect x="357.1" y="53.2" width="10.5" height="0.8"/>
<rect x="358.9" y="51.9" width="0.5" height="26.4"/>
<g>
	<path d="M358.9,52c0-1.8,2.5-3.5,4.5-3.5c1.3,0,2.3,0.7,2.3,1.7c0,1.7-2.5,3.5-4.6,3.5C359.9,53.7,358.9,53.1,358.9,52z"/>
</g>
<rect x="374.5" y="56.9" width="0.5" height="22.9"/>
<g>
	<path d="M374.6,57c0-1.8,2.5-3.5,4.5-3.5c1.3,0,2.3,0.7,2.3,1.7c0,1.7-2.5,3.5-4.6,3.5C375.6,58.7,374.6,58.1,374.6,57z"/>
</g>
<rect x="390" y="61.8" width="0.5" height="19.7"/>
<g>
	<path d="M390.1,61.9c0-1.8,2.5-3.5,4.5-3.5c1.3,0,2.3,0.7,2.3,1.7c0,1.7-2.5,3.5-4.6,3.5C391.1,63.7,390.1,63,390.1,61.9z"/>
</g>
<rect x="405.5" y="69.3" width="0.5" height="14"/>
<g>
	<path d="M405.6,69.4c0-1.8,2.5-3.5,4.5-3.5c1.3,0,2.3,0.7,2.3,1.7c0,1.7-2.5,3.5-4.6,3.5C406.6,71.1,405.6,70.5,405.6,69.4z"/>
</g>
<rect x="421" y="56.9" width="0.5" height="26.4"/>
<g>
	<path d="M421.1,57c0-1.8,2.5-3.5,4.5-3.5c1.3,0,2.3,0.7,2.3,1.7c0,1.7-2.5,3.5-4.6,3.5C422.1,58.7,421.1,58.1,421.1,57z"/>
</g>
<rect x="436.5" y="61.8" width="0.5" height="22.9"/>
<g>
	<path d="M436.6,61.9c0-1.8,2.5-3.5,4.5-3.5c1.3,0,2.3,0.7,2.3,1.7c0,1.7-2.5,3.5-4.6,3.5C437.6,63.7,436.6,63,436.6,61.9z"/>
</g>
<rect x="452.2" y="69.3" width="0.5" height="17.2"/>
<g>
	<path d="M452.3,69.4c0-1.8,2.5-3.5,4.5-3.5c1.3,0,2.3,0.7,2.3,1.7c0,1.7-2.5,3.5-4.6,3.5C453.2,71.1,452.3,70.5,452.3,69.4z"/>
</g>
<rect x="467.7" y="74.2" width="0.5" height="14"/>
<g>
	<path d="M467.8,74.3c0-1.8,2.5-3.5,4.5-3.5c1.3,0,2.3,0.7,2.3,1.7c0,1.7-2.5,3.5-4.6,3.5C468.7,76.1,467.8,75.4,467.8,74.3z"/>
</g>
<rect x="489.7" y="47.6" width="0.5" height="12.7"/>
<g>
	<path d="M483.3,61.9c0-1.8,2.5-3.5,4.5-3.5c1.3,0,2.3,0.7,2.3,1.7c0,1.7-2.5,3.5-4.6,3.5C484.2,63.7,483.3,63,483.3,61.9z"/>
</g>
<rect x="505.2" y="49.1" width="0.5" height="18.6"/>
<g>
	<path d="M498.8,69.4c0-1.8,2.5-3.5,4.5-3.5c1.3,0,2.3,0.7,2.3,1.7c0,1.7-2.5,3.5-4.6,3.5C499.7,71.1,498.8,70.5,498.8,69.4z"/>
</g>
<rect x="520.9" y="50.8" width="0.5" height="21.9"/>
<g>
	<path d="M514.4,74.3c0-1.8,2.5-3.5,4.5-3.5c1.3,0,2.3,0.7,2.3,1.7c0,1.7-2.5,3.5-4.6,3.5C515.4,76.1,514.4,75.4,514.4,74.3z"/>
</g>
<rect x="536.4" y="52.5" width="0.5" height="25.1"/>
<g>
	<path d="M529.9,79.3c0-1.8,2.5-3.5,4.5-3.5c1.3,0,2.3,0.7,2.3,1.7c0,1.7-2.5,3.5-4.6,3.5C530.9,81,529.9,80.4,529.9,79.3z"/>
</g>
</svg>
