<?xml version="1.0" encoding="utf-8"?>

<!--
	ScaleBook
	Copyright (c) Leland Jansen 2015. All rights reserved.
-->

<!DOCTYPE svg PUBLIC "-//W3C//DTD SVG 1.1//EN" "http://www.w3.org/Graphics/SVG/1.1/DTD/svg11.dtd">
<svg version="1.1" id="Layer_1" xmlns="http://www.w3.org/2000/svg" xmlns:xlink="http://www.w3.org/1999/xlink" x="0px" y="0px"
	 viewBox="0 0 553 91.1" enable-background="new 0 0 553 91.1" xml:space="preserve">
<rect x="8.5" y="10" width="0.8" height="71"/>
<g>
	<path d="M7.6,10.7c-2,1.1-3.7,6.1-3.7,10c0,2.4,1.4,10.5,1.4,13c0,5.3-1.6,9.2-4.7,11.8c3.1,2.6,4.7,6.5,4.7,11.7
		c0,2.4-1.4,10.5-1.4,13c0,4,1.8,8.9,3.7,10.1V81C4,78.6,1.7,72.3,1.7,67.2c0-2.3,1.8-9.9,1.8-12.2c0-4-1-7-3-8.7
		C0.1,46,0,45.7,0,45.5c0-0.2,0.1-0.4,0.5-0.7c2-1.8,3-4.5,3-8c0-2.3-1.8-10.7-1.8-12.9c0-5.5,2.1-11,5.9-13.8V10.7z"/>
</g>
<rect x="548" y="10" width="0.8" height="71"/>
<rect x="550.5" y="10" width="2.5" height="71"/>
<rect x="8.6" y="29.6" width="544.4" height="0.5"/>
<rect x="8.6" y="24.7" width="544.4" height="0.5"/>
<rect x="8.6" y="19.7" width="544.4" height="0.5"/>
<rect x="8.6" y="14.8" width="544.4" height="0.5"/>
<rect x="8.6" y="9.8" width="544.4" height="0.5"/>
<g>
	<path d="M20.4,29.7c-4.2,0-8.1-3.1-8.1-6.9c0-3.2,2.3-6.7,6.8-10.5c-0.3-1.2-0.4-2.4-0.4-3.6c0-3.5,1.2-6.8,3.2-8.5
		c1.8,2.5,2.7,4.9,2.7,7.1c0,2.9-1.3,5.6-4.3,8.1l0.9,4.2c0.5,0,0.8-0.1,0.8-0.1c2.6,0,4.8,2,4.8,4.7c0,1.9-1.4,3.7-3.6,4.8
		c0-0.1,0.9,3.8,0.9,4.3c0,2.5-2.3,4.2-4.9,4.2c-2,0-3.6-1.3-3.6-3.4c0-1.4,1-2.6,2.4-2.6c1.3,0,2.3,1.3,2.3,2.5
		c0,1.4-1.2,2.3-2.7,2.5c0.6,0.3,1.2,0.5,1.9,0.5c2.1,0,4.1-1.6,4.1-3.6c0-0.2,0-0.4-0.1-0.6l-0.8-3.7
		C22.1,29.6,21.4,29.7,20.4,29.7z M18.2,24.5c0,1,0.5,1.9,1.6,2.5c-1.8-0.3-3-1.4-3-3.1c0-2,1.7-3.7,3.8-4.1l-0.8-4
		c-3.7,2.8-5.7,5.5-5.7,8.1c0,2.9,2.8,5.3,6,5.3c0.9,0,1.7-0.2,2.4-0.5l-1.4-6.8C19.5,22.1,18.2,23.1,18.2,24.5z M22.3,3.2
		c-1.6,0-2.9,3.7-2.9,7c0,0.7,0,1.3,0.2,1.9c2.7-2.4,4-4.5,4-6.5c0-0.9-0.3-1.7-1-2.4C22.5,3.2,22.4,3.2,22.3,3.2z M25,25
		c0-1.6-1.2-3.3-2.9-3.3c-0.1,0-0.2,0-0.5,0l1.4,6.6C24.4,27.5,25,26.3,25,25z"/>
</g>
<g>
	<path d="M29.7,11.6h0.6l-0.1,6.2c0.4-0.7,1-1,1.8-1c1.2,0,2.2,0.8,2.2,1.9c0,0.8-0.5,1.8-1.7,2.7l-2.8,2.1V11.6z M30.3,18.6
		c-0.1,0.8-0.1,1.4-0.1,1.9c0,1,0,1.6,0.1,2c1-0.7,2.4-2.6,2.4-3.7c0-0.6-0.5-1.1-1.1-1.1C31,17.7,30.6,18,30.3,18.6z"/>
</g>
<g>
	<path d="M35.3,4.2h0.6l-0.1,6.2c0.4-0.7,1-1,1.8-1c1.2,0,2.2,0.8,2.2,1.9c0,0.8-0.5,1.8-1.7,2.7l-2.8,2.1V4.2z M35.9,11.1
		c-0.1,0.8-0.1,1.4-0.1,1.9c0,1,0,1.6,0.1,2c1-0.7,2.4-2.6,2.4-3.7c0-0.6-0.5-1.1-1.1-1.1C36.6,10.3,36.1,10.6,35.9,11.1z"/>
</g>
<rect x="8.6" y="80.8" width="544.4" height="0.5"/>
<rect x="8.6" y="75.8" width="544.4" height="0.5"/>
<rect x="8.6" y="70.9" width="544.4" height="0.5"/>
<rect x="8.6" y="65.9" width="544.4" height="0.5"/>
<rect x="8.6" y="61" width="544.4" height="0.5"/>
<g>
	<path d="M15.9,75.4c2.9-2.6,4.7-6.1,4.7-9.2c0-2.5-1.4-4.4-3.7-4.4c-1.6,0-3.4,1.3-3.4,2.7c0,0.2,0,0.3,0.1,0.3
		c-0.1,0,0.6-0.6,1.4-0.6c0.9,0,1.5,0.8,1.5,1.7c0,1.2-0.9,2.2-2.1,2.2c-1.2,0-2.1-1.3-2.1-2.8c0-2.3,2.3-4.1,4.8-4.1
		c4.7,0,5.9,3.2,5.9,5.8c0,1.6-0.4,2.9-2,5.3c-1.9,3.1-6.4,5.3-8.1,5.3c-0.4,0-0.6-0.2-0.6-0.5C14,76.6,15.1,76.1,15.9,75.4z
		 M25.8,62.7c0.6,0,1,0.4,1,1s-0.4,1-1,1s-1-0.4-1-1S25.3,62.7,25.8,62.7z M25.8,67.6c0.6,0,1,0.4,1,1s-0.4,1-1,1s-1-0.4-1-1
		S25.3,67.6,25.8,67.6z"/>
</g>
<g>
	<path d="M29.7,67.8h0.6L30.2,74c0.4-0.7,1-1,1.8-1c1.2,0,2.2,0.8,2.2,1.9c0,0.8-0.5,1.8-1.7,2.7l-2.8,2.1V67.8z M30.3,74.7
		c-0.1,0.8-0.1,1.4-0.1,1.9c0,1,0,1.6,0.1,2c1-0.7,2.4-2.6,2.4-3.7c0-0.6-0.5-1.1-1.1-1.1C31,73.8,30.6,74.1,30.3,74.7z"/>
</g>
<g>
	<path d="M35.3,60.3h0.6l-0.1,6.2c0.4-0.7,1-1,1.8-1c1.2,0,2.2,0.8,2.2,1.9c0,0.8-0.5,1.8-1.7,2.7l-2.8,2.1V60.3z M35.9,67.2
		c-0.1,0.8-0.1,1.4-0.1,1.9c0,1,0,1.6,0.1,2c1-0.7,2.4-2.6,2.4-3.7c0-0.6-0.5-1.1-1.1-1.1C36.6,66.4,36.1,66.7,35.9,67.2z"/>
</g>
<g>
	<path d="M234.2,79.7c-3.2,0-6.1-2.3-6.1-5.1c0-2.4,1.7-5,5.1-7.9c-0.2-0.9-0.3-1.8-0.3-2.7c0-2.6,0.9-5.1,2.4-6.3
		c1.4,1.9,2,3.7,2,5.3c0,2.2-1,4.2-3.2,6.1l0.7,3.1c0.4,0,0.6,0,0.6,0c2,0,3.6,1.5,3.6,3.5c0,1.4-1.1,2.8-2.7,3.6
		c0-0.1,0.6,2.8,0.6,3.3c0,1.9-1.7,3.2-3.7,3.2c-1.5,0-2.7-1-2.7-2.5c0-1.1,0.7-1.9,1.8-1.9c1,0,1.7,1,1.7,1.9c0,1-0.9,1.7-2,1.8
		c0.4,0.2,0.9,0.3,1.4,0.3c1.6,0,3.1-1.2,3.1-2.7c0-0.1,0-0.3,0-0.5l-0.6-2.8C235.4,79.6,234.9,79.7,234.2,79.7z M232.5,75.8
		c0,0.8,0.4,1.4,1.2,1.9c-1.3-0.2-2.2-1.1-2.2-2.3c0-1.5,1.3-2.8,2.9-3.1l-0.6-3c-2.8,2.1-4.3,4.1-4.3,6.1c0,2.2,2.1,4,4.5,4
		c0.7,0,1.3-0.1,1.8-0.4l-1.1-5.1C233.5,74,232.5,74.7,232.5,75.8z M235.6,59.8c-1.2,0-2.2,2.8-2.2,5.3c0,0.5,0,1,0.1,1.4
		c2-1.8,3-3.4,3-4.8c0-0.7-0.3-1.3-0.7-1.8C235.8,59.8,235.7,59.8,235.6,59.8z M237.7,76.2c0-1.2-0.9-2.4-2.2-2.4c0,0-0.2,0-0.4,0
		l1.1,5C237.1,78,237.7,77.1,237.7,76.2z"/>
</g>
<g>
	<path d="M295.4,73.1c2.2-2,3.6-4.6,3.6-6.9c0-1.9-1.1-3.3-2.8-3.3c-1.2,0-2.5,1-2.5,2.1c0,0.2,0,0.2,0.1,0.2c0,0,0.4-0.5,1-0.5
		c0.7,0,1.2,0.6,1.2,1.3c0,0.9-0.6,1.7-1.6,1.7s-1.5-1-1.5-2.1c0-1.8,1.7-3.1,3.6-3.1c3.5,0,4.4,2.4,4.4,4.4c0,1.2-0.3,2.2-1.5,4
		c-1.4,2.3-4.8,4-6,4c-0.3,0-0.5-0.1-0.5-0.3C294,74,294.8,73.6,295.4,73.1z M302.9,63.5c0.4,0,0.7,0.3,0.7,0.7
		c0,0.4-0.3,0.7-0.7,0.7c-0.4,0-0.7-0.3-0.7-0.7C302.1,63.9,302.5,63.5,302.9,63.5z M302.9,67.3c0.4,0,0.7,0.3,0.7,0.7
		s-0.3,0.7-0.7,0.7c-0.4,0-0.7-0.3-0.7-0.7S302.5,67.3,302.9,67.3z"/>
</g>
<rect x="46.4" y="34.5" width="10.5" height="0.8"/>
<rect x="54.7" y="2.6" width="0.5" height="33.9"/>
<g>
	<path d="M48.3,38.2c0-1.8,2.5-3.5,4.5-3.5c1.3,0,2.3,0.7,2.3,1.7c0,1.7-2.5,3.5-4.6,3.5C49.3,39.9,48.3,39.3,48.3,38.2z"/>
</g>
<g>
	<path d="M48.3,33.2c0-1.8,2.5-3.5,4.5-3.5c1.3,0,2.3,0.7,2.3,1.7c0,1.7-2.5,3.5-4.6,3.5C49.3,34.9,48.3,34.3,48.3,33.2z"/>
</g>
<g>
	<path d="M48.3,28.3c0-1.8,2.5-3.5,4.5-3.5c1.3,0,2.3,0.7,2.3,1.7c0,1.7-2.5,3.5-4.6,3.5C49.3,30,48.3,29.3,48.3,28.3z"/>
</g>
<g>
	<path d="M48.3,20.8c0-1.8,2.5-3.5,4.5-3.5c1.3,0,2.3,0.7,2.3,1.7c0,1.7-2.5,3.5-4.6,3.5C49.3,22.5,48.3,21.9,48.3,20.8z"/>
</g>
<rect x="119.4" y="0.1" width="0.5" height="31.5"/>
<g>
	<path d="M112.9,33.2c0-1.8,2.5-3.5,4.5-3.5c1.3,0,2.3,0.7,2.3,1.7c0,1.7-2.5,3.5-4.6,3.5C113.9,34.9,112.9,34.3,112.9,33.2z"/>
</g>
<g>
	<path d="M112.9,28.3c0-1.8,2.5-3.5,4.5-3.5c1.3,0,2.3,0.7,2.3,1.7c0,1.7-2.5,3.5-4.6,3.5C113.9,30,112.9,29.3,112.9,28.3z"/>
</g>
<g>
	<path d="M112.9,20.8c0-1.8,2.5-3.5,4.5-3.5c1.3,0,2.3,0.7,2.3,1.7c0,1.7-2.5,3.5-4.6,3.5C113.9,22.5,112.9,21.9,112.9,20.8z"/>
</g>
<g>
	<path d="M112.9,15.9c0-1.8,2.5-3.5,4.5-3.5c1.3,0,2.3,0.7,2.3,1.7c0,1.7-2.5,3.5-4.6,3.5C113.9,17.6,112.9,16.9,112.9,15.9z"/>
</g>
<rect x="177.3" y="10.8" width="0.5" height="30.2"/>
<g>
	<path d="M177.4,10.9c0-1.8,2.5-3.5,4.5-3.5c1.3,0,2.3,0.7,2.3,1.7c0,1.7-2.5,3.5-4.6,3.5C178.4,12.6,177.4,12,177.4,10.9z"/>
</g>
<g>
	<path d="M177.4,15.9c0-1.8,2.5-3.5,4.5-3.5c1.3,0,2.3,0.7,2.3,1.7c0,1.7-2.5,3.5-4.6,3.5C178.4,17.6,177.4,16.9,177.4,15.9z"/>
</g>
<g>
	<path d="M177.4,20.8c0-1.8,2.5-3.5,4.5-3.5c1.3,0,2.3,0.7,2.3,1.7c0,1.7-2.5,3.5-4.6,3.5C178.4,22.5,177.4,21.9,177.4,20.8z"/>
</g>
<g>
	<path d="M177.4,28.3c0-1.8,2.5-3.5,4.5-3.5c1.3,0,2.3,0.7,2.3,1.7c0,1.7-2.5,3.5-4.6,3.5C178.4,30,177.4,29.3,177.4,28.3z"/>
</g>
<rect x="240.2" y="4.7" width="10.5" height="0.8"/>
<rect x="242" y="3.4" width="0.5" height="33.9"/>
<g>
	<path d="M242.1,3.5c0-1.8,2.5-3.5,4.5-3.5c1.3,0,2.3,0.7,2.3,1.7c0,1.7-2.5,3.5-4.6,3.5C243,5.2,242.1,4.5,242.1,3.5z"/>
</g>
<g>
	<path d="M242.1,10.9c0-1.8,2.5-3.5,4.5-3.5c1.3,0,2.3,0.7,2.3,1.7c0,1.7-2.5,3.5-4.6,3.5C243,12.6,242.1,12,242.1,10.9z"/>
</g>
<g>
	<path d="M242.1,15.9c0-1.8,2.5-3.5,4.5-3.5c1.3,0,2.3,0.7,2.3,1.7c0,1.7-2.5,3.5-4.6,3.5C243,17.6,242.1,16.9,242.1,15.9z"/>
</g>
<g>
	<path d="M242.1,20.8c0-1.8,2.5-3.5,4.5-3.5c1.3,0,2.3,0.7,2.3,1.7c0,1.7-2.5,3.5-4.6,3.5C243,22.5,242.1,21.9,242.1,20.8z"/>
</g>
<rect x="306.6" y="10.8" width="0.5" height="30.2"/>
<g>
	<path d="M306.7,10.9c0-1.8,2.5-3.5,4.5-3.5c1.3,0,2.3,0.7,2.3,1.7c0,1.7-2.5,3.5-4.6,3.5C307.7,12.6,306.7,12,306.7,10.9z"/>
</g>
<g>
	<path d="M306.7,15.9c0-1.8,2.5-3.5,4.5-3.5c1.3,0,2.3,0.7,2.3,1.7c0,1.7-2.5,3.5-4.6,3.5C307.7,17.6,306.7,16.9,306.7,15.9z"/>
</g>
<g>
	<path d="M306.7,20.8c0-1.8,2.5-3.5,4.5-3.5c1.3,0,2.3,0.7,2.3,1.7c0,1.7-2.5,3.5-4.6,3.5C307.7,22.5,306.7,21.9,306.7,20.8z"/>
</g>
<g>
	<path d="M306.7,28.3c0-1.8,2.5-3.5,4.5-3.5c1.3,0,2.3,0.7,2.3,1.7c0,1.7-2.5,3.5-4.6,3.5C307.7,30,306.7,29.3,306.7,28.3z"/>
</g>
<rect x="377.6" y="0.1" width="0.5" height="31.5"/>
<g>
	<path d="M371.2,33.2c0-1.8,2.5-3.5,4.5-3.5c1.3,0,2.3,0.7,2.3,1.7c0,1.7-2.5,3.5-4.6,3.5C372.2,34.9,371.2,34.3,371.2,33.2z"/>
</g>
<g>
	<path d="M371.2,28.3c0-1.8,2.5-3.5,4.5-3.5c1.3,0,2.3,0.7,2.3,1.7c0,1.7-2.5,3.5-4.6,3.5C372.2,30,371.2,29.3,371.2,28.3z"/>
</g>
<g>
	<path d="M371.2,20.8c0-1.8,2.5-3.5,4.5-3.5c1.3,0,2.3,0.7,2.3,1.7c0,1.7-2.5,3.5-4.6,3.5C372.2,22.5,371.2,21.9,371.2,20.8z"/>
</g>
<g>
	<path d="M371.2,15.9c0-1.8,2.5-3.5,4.5-3.5c1.3,0,2.3,0.7,2.3,1.7c0,1.7-2.5,3.5-4.6,3.5C372.2,17.6,371.2,16.9,371.2,15.9z"/>
</g>
<rect x="434" y="34.5" width="10.7" height="0.8"/>
<rect x="442.4" y="2.6" width="0.5" height="33.9"/>
<g>
	<path d="M440.1,34.6c1.6,0,2.7,0.7,2.7,2c0,1.9-2.3,3.4-4.5,3.4c-1.3,0-2.4-0.7-2.4-1.8C435.8,36.4,438.1,34.6,440.1,34.6z
		 M436.3,38.5c0,0.6,0.4,0.9,1.1,0.9c1.4,0,4.9-2.1,4.9-3.3c0-0.6-0.4-0.9-1.1-0.9C440,35.2,436.3,37.2,436.3,38.5z"/>
</g>
<g>
	<path d="M440.1,29.7c1.6,0,2.7,0.7,2.7,2c0,1.9-2.3,3.4-4.5,3.4c-1.3,0-2.4-0.7-2.4-1.8C435.8,31.4,438.1,29.7,440.1,29.7z
		 M436.3,33.5c0,0.6,0.4,0.9,1.1,0.9c1.4,0,4.9-2.1,4.9-3.3c0-0.6-0.4-0.9-1.1-0.9C440,30.3,436.3,32.3,436.3,33.5z"/>
</g>
<g>
	<path d="M440.1,24.7c1.6,0,2.7,0.7,2.7,2c0,1.9-2.3,3.4-4.5,3.4c-1.3,0-2.4-0.7-2.4-1.8C435.8,26.5,438.1,24.7,440.1,24.7z
		 M436.3,28.5c0,0.6,0.4,0.9,1.1,0.9c1.4,0,4.9-2.1,4.9-3.3c0-0.6-0.4-0.9-1.1-0.9C440,25.3,436.3,27.3,436.3,28.5z"/>
</g>
<g>
	<path d="M440.1,17.3c1.6,0,2.7,0.7,2.7,2c0,1.9-2.3,3.4-4.5,3.4c-1.3,0-2.4-0.7-2.4-1.8C435.8,19,438.1,17.3,440.1,17.3z
		 M436.3,21.1c0,0.6,0.4,0.9,1.1,0.9c1.4,0,4.9-2.1,4.9-3.3c0-0.6-0.4-0.9-1.1-0.9C440,17.9,436.3,19.9,436.3,21.1z"/>
</g>
<rect x="48.2" y="59.5" width="0.5" height="31.5"/>
<g>
	<path d="M48.3,59.6c0-1.8,2.5-3.5,4.5-3.5c1.3,0,2.3,0.7,2.3,1.7c0,1.7-2.5,3.5-4.6,3.5C49.3,61.3,48.3,60.7,48.3,59.6z"/>
</g>
<g>
	<path d="M48.3,67c0-1.8,2.5-3.5,4.5-3.5c1.3,0,2.3,0.7,2.3,1.7c0,1.7-2.5,3.5-4.6,3.5C49.3,68.7,48.3,68.1,48.3,67z"/>
</g>
<g>
	<path d="M48.3,72c0-1.8,2.5-3.5,4.5-3.5c1.3,0,2.3,0.7,2.3,1.7c0,1.7-2.5,3.5-4.6,3.5C49.3,73.7,48.3,73.1,48.3,72z"/>
</g>
<g>
	<path d="M48.3,76.9c0-1.8,2.5-3.5,4.5-3.5c1.3,0,2.3,0.7,2.3,1.7c0,1.7-2.5,3.5-4.6,3.5C49.3,78.7,48.3,78,48.3,76.9z"/>
</g>
<rect x="111.1" y="55.8" width="10.5" height="0.8"/>
<rect x="112.9" y="54.5" width="0.5" height="33.9"/>
<g>
	<path d="M112.9,54.6c0-1.8,2.5-3.5,4.5-3.5c1.3,0,2.3,0.7,2.3,1.7c0,1.7-2.5,3.5-4.6,3.5C113.9,56.3,112.9,55.7,112.9,54.6z"/>
</g>
<g>
	<path d="M112.9,59.6c0-1.8,2.5-3.5,4.5-3.5c1.3,0,2.3,0.7,2.3,1.7c0,1.7-2.5,3.5-4.6,3.5C113.9,61.3,112.9,60.7,112.9,59.6z"/>
</g>
<g>
	<path d="M112.9,67c0-1.8,2.5-3.5,4.5-3.5c1.3,0,2.3,0.7,2.3,1.7c0,1.7-2.5,3.5-4.6,3.5C113.9,68.7,112.9,68.1,112.9,67z"/>
</g>
<g>
	<path d="M112.9,72c0-1.8,2.5-3.5,4.5-3.5c1.3,0,2.3,0.7,2.3,1.7c0,1.7-2.5,3.5-4.6,3.5C113.9,73.7,112.9,73.1,112.9,72z"/>
</g>
<rect x="175.6" y="55.8" width="10.5" height="0.8"/>
<rect x="175.6" y="50.9" width="10.5" height="0.8"/>
<rect x="177.3" y="49.6" width="0.5" height="33.9"/>
<g>
	<path d="M177.4,49.6c0-1.8,2.5-3.5,4.5-3.5c1.3,0,2.3,0.7,2.3,1.7c0,1.7-2.5,3.5-4.6,3.5C178.4,51.4,177.4,50.7,177.4,49.6z"/>
</g>
<g>
	<path d="M177.4,54.6c0-1.8,2.5-3.5,4.5-3.5c1.3,0,2.3,0.7,2.3,1.7c0,1.7-2.5,3.5-4.6,3.5C178.4,56.3,177.4,55.7,177.4,54.6z"/>
</g>
<g>
	<path d="M177.4,59.6c0-1.8,2.5-3.5,4.5-3.5c1.3,0,2.3,0.7,2.3,1.7c0,1.7-2.5,3.5-4.6,3.5C178.4,61.3,177.4,60.7,177.4,59.6z"/>
</g>
<g>
	<path d="M177.4,67c0-1.8,2.5-3.5,4.5-3.5c1.3,0,2.3,0.7,2.3,1.7c0,1.7-2.5,3.5-4.6,3.5C178.4,68.7,177.4,68.1,177.4,67z"/>
</g>
<rect x="240.2" y="85.6" width="10.5" height="0.8"/>
<rect x="248.5" y="53.8" width="0.5" height="33.9"/>
<g>
	<path d="M242.1,89.3c0-1.8,2.5-3.5,4.5-3.5c1.3,0,2.3,0.7,2.3,1.7c0,1.7-2.5,3.5-4.6,3.5C243,91.1,242.1,90.4,242.1,89.3z"/>
</g>
<g>
	<path d="M242.1,84.4c0-1.8,2.5-3.5,4.5-3.5c1.3,0,2.3,0.7,2.3,1.7c0,1.7-2.5,3.5-4.6,3.5C243,86.1,242.1,85.5,242.1,84.4z"/>
</g>
<g>
	<path d="M242.1,79.4c0-1.8,2.5-3.5,4.5-3.5c1.3,0,2.3,0.7,2.3,1.7c0,1.7-2.5,3.5-4.6,3.5C243,81.1,242.1,80.5,242.1,79.4z"/>
</g>
<g>
	<path d="M242.1,72c0-1.8,2.5-3.5,4.5-3.5c1.3,0,2.3,0.7,2.3,1.7c0,1.7-2.5,3.5-4.6,3.5C243,73.7,242.1,73.1,242.1,72z"/>
</g>
<rect x="304.8" y="55.8" width="10.5" height="0.8"/>
<rect x="304.8" y="50.9" width="10.5" height="0.8"/>
<rect x="306.6" y="49.6" width="0.5" height="33.9"/>
<g>
	<path d="M306.7,49.6c0-1.8,2.5-3.5,4.5-3.5c1.3,0,2.3,0.7,2.3,1.7c0,1.7-2.5,3.5-4.6,3.5C307.7,51.4,306.7,50.7,306.7,49.6z"/>
</g>
<g>
	<path d="M306.7,54.6c0-1.8,2.5-3.5,4.5-3.5c1.3,0,2.3,0.7,2.3,1.7c0,1.7-2.5,3.5-4.6,3.5C307.7,56.3,306.7,55.7,306.7,54.6z"/>
</g>
<g>
	<path d="M306.7,59.6c0-1.8,2.5-3.5,4.5-3.5c1.3,0,2.3,0.7,2.3,1.7c0,1.7-2.5,3.5-4.6,3.5C307.7,61.3,306.7,60.7,306.7,59.6z"/>
</g>
<g>
	<path d="M306.7,67c0-1.8,2.5-3.5,4.5-3.5c1.3,0,2.3,0.7,2.3,1.7c0,1.7-2.5,3.5-4.6,3.5C307.7,68.7,306.7,68.1,306.7,67z"/>
</g>
<rect x="369.3" y="55.8" width="10.5" height="0.8"/>
<rect x="371.1" y="54.5" width="0.5" height="33.9"/>
<g>
	<path d="M371.2,54.6c0-1.8,2.5-3.5,4.5-3.5c1.3,0,2.3,0.7,2.3,1.7c0,1.7-2.5,3.5-4.6,3.5C372.2,56.3,371.2,55.7,371.2,54.6z"/>
</g>
<g>
	<path d="M371.2,59.6c0-1.8,2.5-3.5,4.5-3.5c1.3,0,2.3,0.7,2.3,1.7c0,1.7-2.5,3.5-4.6,3.5C372.2,61.3,371.2,60.7,371.2,59.6z"/>
</g>
<g>
	<path d="M371.2,67c0-1.8,2.5-3.5,4.5-3.5c1.3,0,2.3,0.7,2.3,1.7c0,1.7-2.5,3.5-4.6,3.5C372.2,68.7,371.2,68.1,371.2,67z"/>
</g>
<g>
	<path d="M371.2,72c0-1.8,2.5-3.5,4.5-3.5c1.3,0,2.3,0.7,2.3,1.7c0,1.7-2.5,3.5-4.6,3.5C372.2,73.7,371.2,73.1,371.2,72z"/>
</g>
<rect x="435.8" y="59.5" width="0.5" height="31.5"/>
<g>
	<path d="M440.1,56c1.6,0,2.7,0.7,2.7,2c0,1.9-2.3,3.4-4.5,3.4c-1.3,0-2.4-0.7-2.4-1.8C435.8,57.8,438.1,56,440.1,56z M436.3,59.9
		c0,0.6,0.4,0.9,1.1,0.9c1.4,0,4.9-2.1,4.9-3.3c0-0.6-0.4-0.9-1.1-0.9C440,56.6,436.3,58.6,436.3,59.9z"/>
</g>
<g>
	<path d="M440.1,63.5c1.6,0,2.7,0.7,2.7,2c0,1.9-2.3,3.4-4.5,3.4c-1.3,0-2.4-0.7-2.4-1.8C435.8,65.2,438.1,63.5,440.1,63.5z
		 M436.3,67.3c0,0.6,0.4,0.9,1.1,0.9c1.4,0,4.9-2.1,4.9-3.3c0-0.6-0.4-0.9-1.1-0.9C440,64,436.3,66.1,436.3,67.3z"/>
</g>
<g>
	<path d="M440.1,68.4c1.6,0,2.7,0.7,2.7,2c0,1.9-2.3,3.4-4.5,3.4c-1.3,0-2.4-0.7-2.4-1.8C435.8,70.2,438.1,68.4,440.1,68.4z
		 M436.3,72.3c0,0.6,0.4,0.9,1.1,0.9c1.4,0,4.9-2.1,4.9-3.3c0-0.6-0.4-0.9-1.1-0.9C440,69,436.3,71,436.3,72.3z"/>
</g>
<g>
	<path d="M440.1,73.4c1.6,0,2.7,0.7,2.7,2c0,1.9-2.3,3.4-4.5,3.4c-1.3,0-2.4-0.7-2.4-1.8C435.8,75.2,438.1,73.4,440.1,73.4z
		 M436.3,77.2c0,0.6,0.4,0.9,1.1,0.9c1.4,0,4.9-2.1,4.9-3.3c0-0.6-0.4-0.9-1.1-0.9C440,74,436.3,76,436.3,77.2z"/>
</g>
</svg>
