<?xml version="1.0" encoding="utf-8"?>

<!--
	ScaleBook
	Copyright (c) Leland Jansen 2015. All rights reserved.
-->

<!DOCTYPE svg PUBLIC "-//W3C//DTD SVG 1.1//EN" "http://www.w3.org/Graphics/SVG/1.1/DTD/svg11.dtd">
<svg version="1.1" id="Layer_1" xmlns="http://www.w3.org/2000/svg" xmlns:xlink="http://www.w3.org/1999/xlink" x="0px" y="0px"
	 viewBox="0 0 552.9 99.4" enable-background="new 0 0 552.9 99.4" xml:space="preserve">
<rect x="8.4" y="17.5" width="0.8" height="67"/>
<g>
	<path d="M7.4,18.1c-1.9,1.1-3.6,5.8-3.6,9.4c0,2.3,1.4,9.9,1.4,12.3c0,5-1.5,8.6-4.6,11.1c3,2.4,4.6,6.1,4.6,11
		c0,2.3-1.4,9.9-1.4,12.3c0,3.8,1.7,8.4,3.6,9.5v0.7c-3.5-2.3-5.8-8.2-5.8-13.1c0-2.1,1.7-9.4,1.7-11.5c0-3.8-1-6.6-2.9-8.2
		C0.1,51.4,0,51.2,0,51s0.1-0.4,0.5-0.7c1.9-1.7,2.9-4.2,2.9-7.6c0-2.1-1.7-10-1.7-12.2c0-5.2,2.1-10.4,5.8-13.1V18.1z"/>
</g>
<rect x="547.8" y="17.5" width="0.8" height="67"/>
<rect x="550.4" y="17.5" width="2.5" height="67"/>
<rect x="8.5" y="37.1" width="544.4" height="0.5"/>
<rect x="8.5" y="32.1" width="544.4" height="0.5"/>
<rect x="8.5" y="27.2" width="544.4" height="0.5"/>
<rect x="8.5" y="22.2" width="544.4" height="0.5"/>
<rect x="8.5" y="17.2" width="544.4" height="0.5"/>
<g>
	<path d="M20.3,37.2c-4.2,0-8.1-3.1-8.1-6.9c0-3.2,2.3-6.7,6.8-10.5c-0.3-1.2-0.4-2.4-0.4-3.6c0-3.5,1.2-6.8,3.2-8.5
		c1.8,2.5,2.7,4.9,2.7,7.1c0,2.9-1.3,5.6-4.3,8.1l0.9,4.2c0.5,0,0.8-0.1,0.8-0.1c2.6,0,4.8,2,4.8,4.7c0,1.9-1.4,3.7-3.6,4.8
		c0-0.1,0.9,3.8,0.9,4.3c0,2.5-2.3,4.2-4.9,4.2c-2,0-3.6-1.3-3.6-3.4c0-1.4,1-2.6,2.4-2.6c1.3,0,2.3,1.3,2.3,2.5
		c0,1.4-1.2,2.3-2.7,2.5c0.6,0.3,1.2,0.5,1.9,0.5c2.1,0,4.1-1.6,4.1-3.6c0-0.2,0-0.4-0.1-0.6l-0.8-3.7C21.9,37,21.2,37.2,20.3,37.2z
		 M18.1,31.9c0,1,0.5,1.9,1.6,2.5c-1.8-0.3-3-1.4-3-3.1c0-2,1.7-3.7,3.8-4.1l-0.8-4C16,26,14,28.8,14,31.4c0,2.9,2.8,5.3,6,5.3
		c0.9,0,1.7-0.2,2.4-0.5L21,29.3C19.4,29.6,18.1,30.6,18.1,31.9z M22.1,10.6c-1.6,0-2.9,3.7-2.9,7c0,0.7,0,1.3,0.2,1.9
		c2.7-2.4,4-4.5,4-6.5c0-0.9-0.3-1.7-1-2.4C22.4,10.6,22.3,10.6,22.1,10.6z M24.9,32.5c0-1.6-1.2-3.3-2.9-3.3c-0.1,0-0.2,0-0.5,0
		l1.4,6.6C24.2,34.9,24.9,33.8,24.9,32.5z"/>
</g>
<g>
	<path d="M29.5,19.1h0.6L30,25.3c0.4-0.7,1-1,1.8-1c1.2,0,2.2,0.8,2.2,1.9c0,0.8-0.5,1.8-1.7,2.7L29.5,31V19.1z M30.1,26
		C30,26.7,30,27.4,30,27.9c0,1,0,1.6,0.1,2c1-0.7,2.4-2.6,2.4-3.7c0-0.6-0.5-1.1-1.1-1.1C30.8,25.2,30.4,25.4,30.1,26z"/>
</g>
<g>
	<path d="M35.1,11.6h0.6l-0.1,6.2c0.4-0.7,1-1,1.8-1c1.2,0,2.2,0.8,2.2,1.9c0,0.8-0.5,1.8-1.7,2.7l-2.8,2.1V11.6z M35.7,18.6
		c-0.1,0.8-0.1,1.4-0.1,1.9c0,1,0,1.6,0.1,2c1-0.7,2.4-2.6,2.4-3.7c0-0.6-0.5-1.1-1.1-1.1C36.4,17.7,36,18,35.7,18.6z"/>
</g>
<g>
	<path d="M40.7,21.6h0.6l-0.1,6.2c0.4-0.7,1-1,1.8-1c1.2,0,2.2,0.8,2.2,1.9c0,0.8-0.5,1.8-1.7,2.7l-2.8,2.1V21.6z M41.3,28.5
		c-0.1,0.8-0.1,1.4-0.1,1.9c0,1,0,1.6,0.1,2c1-0.7,2.4-2.6,2.4-3.7c0-0.6-0.5-1.1-1.1-1.1C42,27.6,41.6,27.9,41.3,28.5z"/>
</g>
<rect x="8.5" y="84.2" width="544.4" height="0.5"/>
<rect x="8.5" y="79.3" width="544.4" height="0.5"/>
<rect x="8.5" y="74.3" width="544.4" height="0.5"/>
<rect x="8.5" y="69.3" width="544.4" height="0.5"/>
<rect x="8.5" y="64.4" width="544.4" height="0.5"/>
<g>
	<path d="M15.7,78.8c2.9-2.6,4.7-6.1,4.7-9.2c0-2.5-1.4-4.4-3.7-4.4c-1.6,0-3.4,1.3-3.4,2.7c0,0.2,0,0.3,0.1,0.3
		c-0.1,0,0.6-0.6,1.4-0.6c0.9,0,1.5,0.8,1.5,1.7c0,1.2-0.9,2.2-2.1,2.2c-1.2,0-2.1-1.3-2.1-2.8c0-2.3,2.3-4.1,4.8-4.1
		c4.7,0,5.9,3.2,5.9,5.8c0,1.6-0.4,2.9-2,5.3C19.1,78.7,14.6,81,13,81c-0.4,0-0.6-0.2-0.6-0.5C13.8,80.1,14.9,79.5,15.7,78.8z
		 M25.7,66.1c0.6,0,1,0.4,1,1s-0.4,1-1,1s-1-0.4-1-1S25.1,66.1,25.7,66.1z M25.7,71c0.6,0,1,0.4,1,1s-0.4,1-1,1s-1-0.4-1-1
		S25.1,71,25.7,71z"/>
</g>
<g>
	<path d="M29.5,71.2h0.6L30,77.4c0.4-0.7,1-1,1.8-1c1.2,0,2.2,0.8,2.2,1.9c0,0.8-0.5,1.8-1.7,2.7l-2.8,2.1V71.2z M30.1,78.1
		C30,78.8,30,79.5,30,80c0,1,0,1.6,0.1,2c1-0.7,2.4-2.6,2.4-3.7c0-0.6-0.5-1.1-1.1-1.1C30.8,77.2,30.4,77.5,30.1,78.1z"/>
</g>
<g>
	<path d="M35.1,63.7h0.6L35.6,70c0.4-0.7,1-1,1.8-1c1.2,0,2.2,0.8,2.2,1.9c0,0.8-0.5,1.8-1.7,2.7l-2.8,2.1V63.7z M35.7,70.6
		c-0.1,0.8-0.1,1.4-0.1,1.9c0,1,0,1.6,0.1,2c1-0.7,2.4-2.6,2.4-3.7c0-0.6-0.5-1.1-1.1-1.1C36.4,69.8,36,70.1,35.7,70.6z"/>
</g>
<g>
	<path d="M40.7,73.7h0.6l-0.1,6.2c0.4-0.7,1-1,1.8-1c1.2,0,2.2,0.8,2.2,1.9c0,0.8-0.5,1.8-1.7,2.7l-2.8,2.1V73.7z M41.3,80.6
		c-0.1,0.8-0.1,1.4-0.1,1.9c0,1,0,1.6,0.1,2c1-0.7,2.4-2.6,2.4-3.7c0-0.6-0.5-1.1-1.1-1.1C42,79.7,41.6,80,41.3,80.6z"/>
</g>
<g>
	<path d="M109.7,83.1c-3.2,0-6.1-2.3-6.1-5.1c0-2.4,1.7-5,5.1-7.9c-0.2-0.9-0.3-1.8-0.3-2.7c0-2.6,0.9-5.1,2.4-6.3
		c1.4,1.9,2,3.7,2,5.3c0,2.2-1,4.2-3.2,6.1l0.7,3.1c0.4,0,0.6,0,0.6,0c2,0,3.6,1.5,3.6,3.5c0,1.4-1.1,2.8-2.7,3.6
		c0-0.1,0.6,2.8,0.6,3.3c0,1.9-1.7,3.2-3.7,3.2c-1.5,0-2.7-1-2.7-2.5c0-1.1,0.7-1.9,1.8-1.9c1,0,1.7,1,1.7,1.9c0,1-0.9,1.7-2,1.8
		c0.4,0.2,0.9,0.3,1.4,0.3c1.6,0,3.1-1.2,3.1-2.7c0-0.1,0-0.3,0-0.5l-0.6-2.8C110.9,83,110.4,83.1,109.7,83.1z M108.1,79.2
		c0,0.8,0.4,1.4,1.2,1.9c-1.3-0.2-2.2-1.1-2.2-2.3c0-1.5,1.3-2.8,2.9-3.1l-0.6-3c-2.8,2.1-4.3,4.1-4.3,6.1c0,2.2,2.1,4,4.5,4
		c0.7,0,1.3-0.1,1.8-0.4l-1.1-5.1C109,77.4,108.1,78.1,108.1,79.2z M111.1,63.2c-1.2,0-2.2,2.8-2.2,5.3c0,0.5,0,1,0.1,1.4
		c2-1.8,3-3.4,3-4.8c0-0.7-0.3-1.3-0.7-1.8C111.3,63.2,111.2,63.2,111.1,63.2z M113.2,79.6c0-1.2-0.9-2.4-2.2-2.4c0,0-0.2,0-0.4,0
		l1.1,5C112.7,81.4,113.2,80.6,113.2,79.6z"/>
</g>
<g>
	<path d="M425.6,76.5c2.2-2,3.6-4.6,3.6-6.9c0-1.9-1.1-3.3-2.8-3.3c-1.2,0-2.5,1-2.5,2.1c0,0.2,0,0.2,0.1,0.2c0,0,0.4-0.5,1-0.5
		c0.7,0,1.2,0.6,1.2,1.3c0,0.9-0.6,1.7-1.6,1.7s-1.5-1-1.5-2.1c0-1.8,1.7-3.1,3.6-3.1c3.5,0,4.4,2.4,4.4,4.4c0,1.2-0.3,2.2-1.5,4
		c-1.4,2.3-4.8,4-6,4c-0.3,0-0.5-0.1-0.5-0.3C424.2,77.4,425,77,425.6,76.5z M433.1,67c0.4,0,0.7,0.3,0.7,0.7c0,0.4-0.3,0.7-0.7,0.7
		c-0.4,0-0.7-0.3-0.7-0.7C432.3,67.3,432.7,67,433.1,67z M433.1,70.7c0.4,0,0.7,0.3,0.7,0.7s-0.3,0.7-0.7,0.7
		c-0.4,0-0.7-0.3-0.7-0.7S432.7,70.7,433.1,70.7z"/>
</g>
<rect x="60.2" y="6.3" width="0.5" height="30.2"/>
<g>
	<path d="M53.7,38.2c0-1.8,2.5-3.5,4.5-3.5c1.3,0,2.3,0.7,2.3,1.7c0,1.7-2.5,3.5-4.6,3.5C54.7,39.9,53.7,39.3,53.7,38.2z"/>
</g>
<g>
	<path d="M53.7,33.2c0-1.8,2.5-3.5,4.5-3.5c1.3,0,2.3,0.7,2.3,1.7c0,1.7-2.5,3.5-4.6,3.5C54.7,34.9,53.7,34.3,53.7,33.2z"/>
</g>
<g>
	<path d="M53.7,28.3c0-1.8,2.5-3.5,4.5-3.5c1.3,0,2.3,0.7,2.3,1.7c0,1.7-2.5,3.5-4.6,3.5C54.7,30,53.7,29.3,53.7,28.3z"/>
</g>
<g>
	<path d="M53.7,20.8c0-1.8,2.5-3.5,4.5-3.5c1.3,0,2.3,0.7,2.3,1.7c0,1.7-2.5,3.5-4.6,3.5C54.7,22.5,53.7,21.9,53.7,20.8z"/>
</g>
<rect x="117.5" y="15.8" width="0.5" height="31.5"/>
<g>
	<path d="M117.6,15.9c0-1.8,2.5-3.5,4.5-3.5c1.3,0,2.3,0.7,2.3,1.7c0,1.7-2.5,3.5-4.6,3.5C118.6,17.6,117.6,16.9,117.6,15.9z"/>
</g>
<g>
	<path d="M117.6,20.8c0-1.8,2.5-3.5,4.5-3.5c1.3,0,2.3,0.7,2.3,1.7c0,1.7-2.5,3.5-4.6,3.5C118.6,22.5,117.6,21.9,117.6,20.8z"/>
</g>
<g>
	<path d="M117.6,28.3c0-1.8,2.5-3.5,4.5-3.5c1.3,0,2.3,0.7,2.3,1.7c0,1.7-2.5,3.5-4.6,3.5C118.6,30,117.6,29.3,117.6,28.3z"/>
</g>
<g>
	<path d="M117.6,33.2c0-1.8,2.5-3.5,4.5-3.5c1.3,0,2.3,0.7,2.3,1.7c0,1.7-2.5,3.5-4.6,3.5C118.6,34.9,117.6,34.3,117.6,33.2z"/>
</g>
<rect x="179.6" y="12.1" width="10.5" height="0.8"/>
<rect x="181.4" y="10.8" width="0.5" height="33.9"/>
<g>
	<path d="M181.5,10.9c0-1.8,2.5-3.5,4.5-3.5c1.3,0,2.3,0.7,2.3,1.7c0,1.7-2.5,3.5-4.6,3.5C182.4,12.6,181.5,12,181.5,10.9z"/>
</g>
<g>
	<path d="M181.5,15.9c0-1.8,2.5-3.5,4.5-3.5c1.3,0,2.3,0.7,2.3,1.7c0,1.7-2.5,3.5-4.6,3.5C182.4,17.6,181.5,16.9,181.5,15.9z"/>
</g>
<g>
	<path d="M181.5,20.8c0-1.8,2.5-3.5,4.5-3.5c1.3,0,2.3,0.7,2.3,1.7c0,1.7-2.5,3.5-4.6,3.5C182.4,22.5,181.5,21.9,181.5,20.8z"/>
</g>
<g>
	<path d="M181.5,28.3c0-1.8,2.5-3.5,4.5-3.5c1.3,0,2.3,0.7,2.3,1.7c0,1.7-2.5,3.5-4.6,3.5C182.4,30,181.5,29.3,181.5,28.3z"/>
</g>
<rect x="243.5" y="12.1" width="10.5" height="0.8"/>
<rect x="243.5" y="7.2" width="10.5" height="0.8"/>
<rect x="243.5" y="2.2" width="10.5" height="0.8"/>
<rect x="245.2" y="3.4" width="0.5" height="33.9"/>
<g>
	<path d="M245.3,3.5c0-1.8,2.5-3.5,4.5-3.5c1.3,0,2.3,0.7,2.3,1.7c0,1.7-2.5,3.5-4.6,3.5C246.3,5.2,245.3,4.5,245.3,3.5z"/>
</g>
<g>
	<path d="M245.3,10.9c0-1.8,2.5-3.5,4.5-3.5c1.3,0,2.3,0.7,2.3,1.7c0,1.7-2.5,3.5-4.6,3.5C246.3,12.6,245.3,12,245.3,10.9z"/>
</g>
<g>
	<path d="M245.3,15.9c0-1.8,2.5-3.5,4.5-3.5c1.3,0,2.3,0.7,2.3,1.7c0,1.7-2.5,3.5-4.6,3.5C246.3,17.6,245.3,16.9,245.3,15.9z"/>
</g>
<g>
	<path d="M245.3,20.8c0-1.8,2.5-3.5,4.5-3.5c1.3,0,2.3,0.7,2.3,1.7c0,1.7-2.5,3.5-4.6,3.5C246.3,22.5,245.3,21.9,245.3,20.8z"/>
</g>
<rect x="307.3" y="12.1" width="10.5" height="0.8"/>
<rect x="309.1" y="10.8" width="0.5" height="33.9"/>
<g>
	<path d="M309.2,10.9c0-1.8,2.5-3.5,4.5-3.5c1.3,0,2.3,0.7,2.3,1.7c0,1.7-2.5,3.5-4.6,3.5C310.2,12.6,309.2,12,309.2,10.9z"/>
</g>
<g>
	<path d="M309.2,15.9c0-1.8,2.5-3.5,4.5-3.5c1.3,0,2.3,0.7,2.3,1.7c0,1.7-2.5,3.5-4.6,3.5C310.2,17.6,309.2,16.9,309.2,15.9z"/>
</g>
<g>
	<path d="M309.2,20.8c0-1.8,2.5-3.5,4.5-3.5c1.3,0,2.3,0.7,2.3,1.7c0,1.7-2.5,3.5-4.6,3.5C310.2,22.5,309.2,21.9,309.2,20.8z"/>
</g>
<g>
	<path d="M309.2,28.3c0-1.8,2.5-3.5,4.5-3.5c1.3,0,2.3,0.7,2.3,1.7c0,1.7-2.5,3.5-4.6,3.5C310.2,30,309.2,29.3,309.2,28.3z"/>
</g>
<rect x="373" y="15.8" width="0.5" height="31.5"/>
<g>
	<path d="M373.1,15.9c0-1.8,2.5-3.5,4.5-3.5c1.3,0,2.3,0.7,2.3,1.7c0,1.7-2.5,3.5-4.6,3.5C374,17.6,373.1,16.9,373.1,15.9z"/>
</g>
<g>
	<path d="M373.1,20.8c0-1.8,2.5-3.5,4.5-3.5c1.3,0,2.3,0.7,2.3,1.7c0,1.7-2.5,3.5-4.6,3.5C374,22.5,373.1,21.9,373.1,20.8z"/>
</g>
<g>
	<path d="M373.1,28.3c0-1.8,2.5-3.5,4.5-3.5c1.3,0,2.3,0.7,2.3,1.7c0,1.7-2.5,3.5-4.6,3.5C374,30,373.1,29.3,373.1,28.3z"/>
</g>
<g>
	<path d="M373.1,33.2c0-1.8,2.5-3.5,4.5-3.5c1.3,0,2.3,0.7,2.3,1.7c0,1.7-2.5,3.5-4.6,3.5C374,34.9,373.1,34.3,373.1,33.2z"/>
</g>
<rect x="443.5" y="6.3" width="0.5" height="30.2"/>
<g>
	<path d="M441.2,34.6c1.6,0,2.7,0.7,2.7,2c0,1.9-2.3,3.4-4.5,3.4c-1.3,0-2.4-0.7-2.4-1.8C436.9,36.4,439.2,34.6,441.2,34.6z
		 M437.4,38.5c0,0.6,0.4,0.9,1.1,0.9c1.4,0,4.9-2.1,4.9-3.3c0-0.6-0.4-0.9-1.1-0.9C441,35.2,437.4,37.2,437.4,38.5z"/>
</g>
<g>
	<path d="M441.2,29.7c1.6,0,2.7,0.7,2.7,2c0,1.9-2.3,3.4-4.5,3.4c-1.3,0-2.4-0.7-2.4-1.8C436.9,31.4,439.2,29.7,441.2,29.7z
		 M437.4,33.5c0,0.6,0.4,0.9,1.1,0.9c1.4,0,4.9-2.1,4.9-3.3c0-0.6-0.4-0.9-1.1-0.9C441,30.3,437.4,32.3,437.4,33.5z"/>
</g>
<g>
	<path d="M441.2,24.7c1.6,0,2.7,0.7,2.7,2c0,1.9-2.3,3.4-4.5,3.4c-1.3,0-2.4-0.7-2.4-1.8C436.9,26.5,439.2,24.7,441.2,24.7z
		 M437.4,28.5c0,0.6,0.4,0.9,1.1,0.9c1.4,0,4.9-2.1,4.9-3.3c0-0.6-0.4-0.9-1.1-0.9C441,25.3,437.4,27.3,437.4,28.5z"/>
</g>
<g>
	<path d="M441.2,17.3c1.6,0,2.7,0.7,2.7,2c0,1.9-2.3,3.4-4.5,3.4c-1.3,0-2.4-0.7-2.4-1.8C436.9,19,439.2,17.3,441.2,17.3z
		 M437.4,21.1c0,0.6,0.4,0.9,1.1,0.9c1.4,0,4.9-2.1,4.9-3.3c0-0.6-0.4-0.9-1.1-0.9C441,17.9,437.4,19.9,437.4,21.1z"/>
</g>
<rect x="51.9" y="59.3" width="10.5" height="0.8"/>
<rect x="51.9" y="54.3" width="10.5" height="0.8"/>
<rect x="53.6" y="55.5" width="0.5" height="33.9"/>
<g>
	<path d="M53.7,55.5c0-1.8,2.5-3.5,4.5-3.5c1.3,0,2.3,0.7,2.3,1.7c0,1.7-2.5,3.5-4.6,3.5C54.7,57.3,53.7,56.6,53.7,55.5z"/>
</g>
<g>
	<path d="M53.7,63c0-1.8,2.5-3.5,4.5-3.5c1.3,0,2.3,0.7,2.3,1.7c0,1.7-2.5,3.5-4.6,3.5C54.7,64.7,53.7,64.1,53.7,63z"/>
</g>
<g>
	<path d="M53.7,67.9c0-1.8,2.5-3.5,4.5-3.5c1.3,0,2.3,0.7,2.3,1.7c0,1.7-2.5,3.5-4.6,3.5C54.7,69.7,53.7,69,53.7,67.9z"/>
</g>
<g>
	<path d="M53.7,72.9c0-1.8,2.5-3.5,4.5-3.5c1.3,0,2.3,0.7,2.3,1.7c0,1.7-2.5,3.5-4.6,3.5C54.7,74.6,53.7,74,53.7,72.9z"/>
</g>
<rect x="115.7" y="89" width="10.5" height="0.8"/>
<rect x="115.7" y="94" width="10.5" height="0.8"/>
<rect x="124" y="62.1" width="0.5" height="33.9"/>
<g>
	<path d="M117.6,97.7c0-1.8,2.5-3.5,4.5-3.5c1.3,0,2.3,0.7,2.3,1.7c0,1.7-2.5,3.5-4.6,3.5C118.6,99.4,117.6,98.8,117.6,97.7z"/>
</g>
<g>
	<path d="M117.6,92.7c0-1.8,2.5-3.5,4.5-3.5c1.3,0,2.3,0.7,2.3,1.7c0,1.7-2.5,3.5-4.6,3.5C118.6,94.5,117.6,93.8,117.6,92.7z"/>
</g>
<g>
	<path d="M117.6,85.3c0-1.8,2.5-3.5,4.5-3.5c1.3,0,2.3,0.7,2.3,1.7c0,1.7-2.5,3.5-4.6,3.5C118.6,87,117.6,86.4,117.6,85.3z"/>
</g>
<g>
	<path d="M117.6,80.3c0-1.8,2.5-3.5,4.5-3.5c1.3,0,2.3,0.7,2.3,1.7c0,1.7-2.5,3.5-4.6,3.5C118.6,82.1,117.6,81.4,117.6,80.3z"/>
</g>
<rect x="179.6" y="89" width="10.5" height="0.8"/>
<rect x="187.9" y="57.2" width="0.5" height="33.9"/>
<g>
	<path d="M181.5,92.7c0-1.8,2.5-3.5,4.5-3.5c1.3,0,2.3,0.7,2.3,1.7c0,1.7-2.5,3.5-4.6,3.5C182.4,94.5,181.5,93.8,181.5,92.7z"/>
</g>
<g>
	<path d="M181.5,85.3c0-1.8,2.5-3.5,4.5-3.5c1.3,0,2.3,0.7,2.3,1.7c0,1.7-2.5,3.5-4.6,3.5C182.4,87,181.5,86.4,181.5,85.3z"/>
</g>
<g>
	<path d="M181.5,80.3c0-1.8,2.5-3.5,4.5-3.5c1.3,0,2.3,0.7,2.3,1.7c0,1.7-2.5,3.5-4.6,3.5C182.4,82.1,181.5,81.4,181.5,80.3z"/>
</g>
<g>
	<path d="M181.5,75.4c0-1.8,2.5-3.5,4.5-3.5c1.3,0,2.3,0.7,2.3,1.7c0,1.7-2.5,3.5-4.6,3.5C182.4,77.1,181.5,76.5,181.5,75.4z"/>
</g>
<rect x="251.8" y="53.4" width="0.5" height="30.2"/>
<g>
	<path d="M245.3,85.3c0-1.8,2.5-3.5,4.5-3.5c1.3,0,2.3,0.7,2.3,1.7c0,1.7-2.5,3.5-4.6,3.5C246.3,87,245.3,86.4,245.3,85.3z"/>
</g>
<g>
	<path d="M245.3,80.3c0-1.8,2.5-3.5,4.5-3.5c1.3,0,2.3,0.7,2.3,1.7c0,1.7-2.5,3.5-4.6,3.5C246.3,82.1,245.3,81.4,245.3,80.3z"/>
</g>
<g>
	<path d="M245.3,75.4c0-1.8,2.5-3.5,4.5-3.5c1.3,0,2.3,0.7,2.3,1.7c0,1.7-2.5,3.5-4.6,3.5C246.3,77.1,245.3,76.5,245.3,75.4z"/>
</g>
<g>
	<path d="M245.3,67.9c0-1.8,2.5-3.5,4.5-3.5c1.3,0,2.3,0.7,2.3,1.7c0,1.7-2.5,3.5-4.6,3.5C246.3,69.7,245.3,69,245.3,67.9z"/>
</g>
<rect x="307.3" y="89" width="10.5" height="0.8"/>
<rect x="315.6" y="57.2" width="0.5" height="33.9"/>
<g>
	<path d="M309.2,92.7c0-1.8,2.5-3.5,4.5-3.5c1.3,0,2.3,0.7,2.3,1.7c0,1.7-2.5,3.5-4.6,3.5C310.2,94.5,309.2,93.8,309.2,92.7z"/>
</g>
<g>
	<path d="M309.2,85.3c0-1.8,2.5-3.5,4.5-3.5c1.3,0,2.3,0.7,2.3,1.7c0,1.7-2.5,3.5-4.6,3.5C310.2,87,309.2,86.4,309.2,85.3z"/>
</g>
<g>
	<path d="M309.2,80.3c0-1.8,2.5-3.5,4.5-3.5c1.3,0,2.3,0.7,2.3,1.7c0,1.7-2.5,3.5-4.6,3.5C310.2,82.1,309.2,81.4,309.2,80.3z"/>
</g>
<g>
	<path d="M309.2,75.4c0-1.8,2.5-3.5,4.5-3.5c1.3,0,2.3,0.7,2.3,1.7c0,1.7-2.5,3.5-4.6,3.5C310.2,77.1,309.2,76.5,309.2,75.4z"/>
</g>
<rect x="371.2" y="89" width="10.5" height="0.8"/>
<rect x="371.2" y="94" width="10.5" height="0.8"/>
<rect x="379.5" y="62.1" width="0.5" height="33.9"/>
<g>
	<path d="M373.1,97.7c0-1.8,2.5-3.5,4.5-3.5c1.3,0,2.3,0.7,2.3,1.7c0,1.7-2.5,3.5-4.6,3.5C374,99.4,373.1,98.8,373.1,97.7z"/>
</g>
<g>
	<path d="M373.1,92.7c0-1.8,2.5-3.5,4.5-3.5c1.3,0,2.3,0.7,2.3,1.7c0,1.7-2.5,3.5-4.6,3.5C374,94.5,373.1,93.8,373.1,92.7z"/>
</g>
<g>
	<path d="M373.1,85.3c0-1.8,2.5-3.5,4.5-3.5c1.3,0,2.3,0.7,2.3,1.7c0,1.7-2.5,3.5-4.6,3.5C374,87,373.1,86.4,373.1,85.3z"/>
</g>
<g>
	<path d="M373.1,80.3c0-1.8,2.5-3.5,4.5-3.5c1.3,0,2.3,0.7,2.3,1.7c0,1.7-2.5,3.5-4.6,3.5C374,82.1,373.1,81.4,373.1,80.3z"/>
</g>
<rect x="435.1" y="59.3" width="10.7" height="0.8"/>
<rect x="435.1" y="54.3" width="10.7" height="0.8"/>
<rect x="436.8" y="55.5" width="0.5" height="33.9"/>
<g>
	<path d="M441.2,52c1.6,0,2.7,0.7,2.7,2c0,1.9-2.3,3.4-4.5,3.4c-1.3,0-2.4-0.7-2.4-1.8C436.9,53.8,439.2,52,441.2,52z M437.4,55.8
		c0,0.6,0.4,0.9,1.1,0.9c1.4,0,4.9-2.1,4.9-3.3c0-0.6-0.4-0.9-1.1-0.9C441,52.6,437.4,54.6,437.4,55.8z"/>
</g>
<g>
	<path d="M441.2,59.4c1.6,0,2.7,0.7,2.7,2c0,1.9-2.3,3.4-4.5,3.4c-1.3,0-2.4-0.7-2.4-1.8C436.9,61.2,439.2,59.4,441.2,59.4z
		 M437.4,63.3c0,0.6,0.4,0.9,1.1,0.9c1.4,0,4.9-2.1,4.9-3.3c0-0.6-0.4-0.9-1.1-0.9C441,60,437.4,62,437.4,63.3z"/>
</g>
<g>
	<path d="M441.2,64.4c1.6,0,2.7,0.7,2.7,2c0,1.9-2.3,3.4-4.5,3.4c-1.3,0-2.4-0.7-2.4-1.8C436.9,66.2,439.2,64.4,441.2,64.4z
		 M437.4,68.2c0,0.6,0.4,0.9,1.1,0.9c1.4,0,4.9-2.1,4.9-3.3c0-0.6-0.4-0.9-1.1-0.9C441,65,437.4,67,437.4,68.2z"/>
</g>
<g>
	<path d="M441.2,69.3c1.6,0,2.7,0.7,2.7,2c0,1.9-2.3,3.4-4.5,3.4c-1.3,0-2.4-0.7-2.4-1.8C436.9,71.1,439.2,69.3,441.2,69.3z
		 M437.4,73.2c0,0.6,0.4,0.9,1.1,0.9c1.4,0,4.9-2.1,4.9-3.3c0-0.6-0.4-0.9-1.1-0.9C441,69.9,437.4,72,437.4,73.2z"/>
</g>
</svg>
