<?xml version="1.0" encoding="utf-8"?>

<!--
	ScaleBook
	Copyright (c) Leland Jansen 2015. All rights reserved.
-->

<!DOCTYPE svg PUBLIC "-//W3C//DTD SVG 1.1//EN" "http://www.w3.org/Graphics/SVG/1.1/DTD/svg11.dtd">
<svg version="1.1" id="Layer_1" xmlns="http://www.w3.org/2000/svg" xmlns:xlink="http://www.w3.org/1999/xlink" x="0px" y="0px"
	 viewBox="0 0 552.9 99.4" enable-background="new 0 0 552.9 99.4" xml:space="preserve">
<rect x="8.4" y="17.5" width="0.8" height="67"/>
<g>
	<path d="M7.4,18.1c-1.9,1.1-3.6,5.8-3.6,9.4c0,2.3,1.4,9.9,1.4,12.3c0,5-1.5,8.6-4.6,11.1c3,2.4,4.6,6.1,4.6,11
		c0,2.3-1.4,9.9-1.4,12.3c0,3.8,1.7,8.4,3.6,9.5v0.7c-3.5-2.3-5.8-8.2-5.8-13.1c0-2.1,1.7-9.4,1.7-11.5c0-3.8-1-6.6-2.9-8.2
		C0.1,51.4,0,51.2,0,51s0.1-0.4,0.5-0.7c1.9-1.7,2.9-4.2,2.9-7.6c0-2.1-1.7-10-1.7-12.2c0-5.2,2.1-10.4,5.8-13.1V18.1z"/>
</g>
<rect x="547.8" y="17.5" width="0.8" height="67"/>
<rect x="550.4" y="17.5" width="2.5" height="67"/>
<rect x="8.5" y="37.1" width="544.4" height="0.5"/>
<rect x="8.5" y="32.1" width="544.4" height="0.5"/>
<rect x="8.5" y="27.2" width="544.4" height="0.5"/>
<rect x="8.5" y="22.2" width="544.4" height="0.5"/>
<rect x="8.5" y="17.2" width="544.4" height="0.5"/>
<g>
	<path d="M20.3,37.2c-4.2,0-8.1-3.1-8.1-6.9c0-3.2,2.3-6.7,6.8-10.5c-0.3-1.2-0.4-2.4-0.4-3.6c0-3.5,1.2-6.8,3.2-8.5
		c1.8,2.5,2.7,4.9,2.7,7.1c0,2.9-1.3,5.6-4.3,8.1l0.9,4.2c0.5,0,0.8-0.1,0.8-0.1c2.6,0,4.8,2,4.8,4.7c0,1.9-1.4,3.7-3.6,4.8
		c0-0.1,0.9,3.8,0.9,4.3c0,2.5-2.3,4.2-4.9,4.2c-2,0-3.6-1.3-3.6-3.4c0-1.4,1-2.6,2.4-2.6c1.3,0,2.3,1.3,2.3,2.5
		c0,1.4-1.2,2.3-2.7,2.5c0.6,0.3,1.2,0.5,1.9,0.5c2.1,0,4.1-1.6,4.1-3.6c0-0.2,0-0.4-0.1-0.6l-0.8-3.7C21.9,37,21.2,37.2,20.3,37.2z
		 M18.1,31.9c0,1,0.5,1.9,1.6,2.5c-1.8-0.3-3-1.4-3-3.1c0-2,1.7-3.7,3.8-4.1l-0.8-4C16,26,14,28.8,14,31.4c0,2.9,2.8,5.3,6,5.3
		c0.9,0,1.7-0.2,2.4-0.5L21,29.3C19.4,29.6,18.1,30.6,18.1,31.9z M22.1,10.6c-1.6,0-2.9,3.7-2.9,7c0,0.7,0,1.3,0.2,1.9
		c2.7-2.4,4-4.5,4-6.5c0-0.9-0.3-1.7-1-2.4C22.4,10.6,22.3,10.6,22.1,10.6z M24.9,32.5c0-1.6-1.2-3.3-2.9-3.3c-0.1,0-0.2,0-0.5,0
		l1.4,6.6C24.2,34.9,24.9,33.8,24.9,32.5z"/>
</g>
<g>
	<path d="M33.5,10.7v2.8l1-0.3V15l-1,0.3v3.4l1-0.3v1.8l-1,0.3v3.1H33v-3l-1.9,0.6v3h-0.5v-2.8l-1,0.3V20l1-0.3v-3.4l-1,0.3v-1.8
		l1-0.3v-3.1h0.5v3l1.9-0.6v-3H33.5z M33,15.4l-1.9,0.6v3.4l1.9-0.6V15.4z"/>
</g>
<g>
	<path d="M39.7,18.1v2.8l1-0.3v1.8l-1,0.3v3.4l1-0.3v1.8l-1,0.3v3.1h-0.5v-3l-1.9,0.6v3h-0.5v-2.8l-1,0.3v-1.8l1-0.3v-3.4l-1,0.3
		v-1.8l1-0.3v-3.1h0.5v3l1.9-0.6v-3H39.7z M39.2,22.9l-1.9,0.6v3.4l1.9-0.6V22.9z"/>
</g>
<g>
	<path d="M45.9,8.2V11l1-0.3v1.8l-1,0.3v3.4l1-0.3v1.8l-1,0.3v3.1h-0.5v-3l-1.9,0.6v3H43V19l-1,0.3v-1.8l1-0.3v-3.4l-1,0.3v-1.8
		l1-0.3V8.8h0.5v3l1.9-0.6v-3H45.9z M45.4,13l-1.9,0.6V17l1.9-0.6V13z"/>
</g>
<g>
	<path d="M52.1,15.6v2.8l1-0.3v1.8l-1,0.3v3.4l1-0.3v1.8l-1,0.3v3.1h-0.5v-3l-1.9,0.6v3h-0.5v-2.8l-1,0.3v-1.8l1-0.3v-3.4l-1,0.3
		v-1.8l1-0.3v-3.1h0.5v3l1.9-0.6v-3H52.1z M51.6,20.4L49.7,21v3.4l1.9-0.6V20.4z"/>
</g>
<rect x="8.5" y="84.2" width="544.4" height="0.5"/>
<rect x="8.5" y="79.3" width="544.4" height="0.5"/>
<rect x="8.5" y="74.3" width="544.4" height="0.5"/>
<rect x="8.5" y="69.3" width="544.4" height="0.5"/>
<rect x="8.5" y="64.4" width="544.4" height="0.5"/>
<g>
	<path d="M15.7,78.8c2.9-2.6,4.7-6.1,4.7-9.2c0-2.5-1.4-4.4-3.7-4.4c-1.6,0-3.4,1.3-3.4,2.7c0,0.2,0,0.3,0.1,0.3
		c-0.1,0,0.6-0.6,1.4-0.6c0.9,0,1.5,0.8,1.5,1.7c0,1.2-0.9,2.2-2.1,2.2c-1.2,0-2.1-1.3-2.1-2.8c0-2.3,2.3-4.1,4.8-4.1
		c4.7,0,5.9,3.2,5.9,5.8c0,1.6-0.4,2.9-2,5.3C19.1,78.7,14.6,81,13,81c-0.4,0-0.6-0.2-0.6-0.5C13.8,80.1,14.9,79.5,15.7,78.8z
		 M25.7,66.1c0.6,0,1,0.4,1,1s-0.4,1-1,1s-1-0.4-1-1S25.1,66.1,25.7,66.1z M25.7,71c0.6,0,1,0.4,1,1s-0.4,1-1,1s-1-0.4-1-1
		S25.1,71,25.7,71z"/>
</g>
<g>
	<path d="M33.5,62.7v2.8l1-0.3V67l-1,0.3v3.4l1-0.3v1.8l-1,0.3v3.1H33v-3l-1.9,0.6v3h-0.5v-2.8l-1,0.3v-1.8l1-0.3v-3.4l-1,0.3v-1.8
		l1-0.3v-3.1h0.5v3l1.9-0.6v-3H33.5z M33,67.5l-1.9,0.6v3.4L33,71V67.5z"/>
</g>
<g>
	<path d="M39.7,70.2V73l1-0.3v1.8l-1,0.3v3.4l1-0.3v1.8l-1,0.3v3.1h-0.5v-3l-1.9,0.6v3h-0.5V81l-1,0.3v-1.8l1-0.3v-3.4l-1,0.3v-1.8
		l1-0.3v-3.1h0.5v3l1.9-0.6v-3H39.7z M39.2,75l-1.9,0.6V79l1.9-0.6V75z"/>
</g>
<g>
	<path d="M45.9,60.3v2.8l1-0.3v1.8l-1,0.3v3.4l1-0.3v1.8l-1,0.3v3.1h-0.5v-3l-1.9,0.6v3H43V71l-1,0.3v-1.8l1-0.3v-3.4l-1,0.3v-1.8
		l1-0.3v-3.1h0.5v3l1.9-0.6v-3H45.9z M45.4,65l-1.9,0.6v3.4l1.9-0.6V65z"/>
</g>
<g>
	<path d="M52.1,67.7v2.8l1-0.3V72l-1,0.3v3.4l1-0.3v1.8l-1,0.3v3.1h-0.5v-3l-1.9,0.6v3h-0.5v-2.8l-1,0.3V77l1-0.3v-3.4l-1,0.3v-1.8
		l1-0.3v-3.1h0.5v3l1.9-0.6v-3H52.1z M51.6,72.5l-1.9,0.6v3.4l1.9-0.6V72.5z"/>
</g>
<g>
	<path d="M116.7,83.1c-3.2,0-6.1-2.3-6.1-5.1c0-2.4,1.7-5,5.1-7.9c-0.2-0.9-0.3-1.8-0.3-2.7c0-2.6,0.9-5.1,2.4-6.3
		c1.4,1.9,2,3.7,2,5.3c0,2.2-1,4.2-3.2,6.1l0.7,3.1c0.4,0,0.6,0,0.6,0c2,0,3.6,1.5,3.6,3.5c0,1.4-1.1,2.8-2.7,3.6
		c0-0.1,0.6,2.8,0.6,3.3c0,1.9-1.7,3.2-3.7,3.2c-1.5,0-2.7-1-2.7-2.5c0-1.1,0.7-1.9,1.8-1.9c1,0,1.7,1,1.7,1.9c0,1-0.9,1.7-2,1.8
		c0.4,0.2,0.9,0.3,1.4,0.3c1.6,0,3.1-1.2,3.1-2.7c0-0.1,0-0.3,0-0.5l-0.6-2.8C117.9,83,117.4,83.1,116.7,83.1z M115,79.2
		c0,0.8,0.4,1.4,1.2,1.9c-1.3-0.2-2.2-1.1-2.2-2.3c0-1.5,1.3-2.8,2.9-3.1l-0.6-3c-2.8,2.1-4.3,4.1-4.3,6.1c0,2.2,2.1,4,4.5,4
		c0.7,0,1.3-0.1,1.8-0.4l-1.1-5.1C116,77.4,115,78.1,115,79.2z M118.1,63.2c-1.2,0-2.2,2.8-2.2,5.3c0,0.5,0,1,0.1,1.4
		c2-1.8,3-3.4,3-4.8c0-0.7-0.3-1.3-0.7-1.8C118.3,63.2,118.2,63.2,118.1,63.2z M120.2,79.6c0-1.2-0.9-2.4-2.2-2.4c0,0-0.2,0-0.4,0
		l1.1,5C119.6,81.4,120.2,80.6,120.2,79.6z"/>
</g>
<g>
	<path d="M427.5,76.5c2.2-2,3.6-4.6,3.6-6.9c0-1.9-1.1-3.3-2.8-3.3c-1.2,0-2.5,1-2.5,2.1c0,0.2,0,0.2,0.1,0.2c0,0,0.4-0.5,1-0.5
		c0.7,0,1.2,0.6,1.2,1.3c0,0.9-0.6,1.7-1.6,1.7s-1.5-1-1.5-2.1c0-1.8,1.7-3.1,3.6-3.1c3.5,0,4.4,2.4,4.4,4.4c0,1.2-0.3,2.2-1.5,4
		c-1.4,2.3-4.8,4-6,4c-0.3,0-0.5-0.1-0.5-0.3C426.1,77.4,426.9,77,427.5,76.5z M434.9,67c0.4,0,0.7,0.3,0.7,0.7
		c0,0.4-0.3,0.7-0.7,0.7c-0.4,0-0.7-0.3-0.7-0.7C434.2,67.3,434.5,67,434.9,67z M434.9,70.7c0.4,0,0.7,0.3,0.7,0.7s-0.3,0.7-0.7,0.7
		c-0.4,0-0.7-0.3-0.7-0.7S434.5,70.7,434.9,70.7z"/>
</g>
<rect x="68.2" y="6.3" width="0.5" height="30.2"/>
<g>
	<path d="M61.8,38.2c0-1.8,2.5-3.5,4.5-3.5c1.3,0,2.3,0.7,2.3,1.7c0,1.7-2.5,3.5-4.6,3.5C62.8,39.9,61.8,39.3,61.8,38.2z"/>
</g>
<g>
	<path d="M61.8,33.2c0-1.8,2.5-3.5,4.5-3.5c1.3,0,2.3,0.7,2.3,1.7c0,1.7-2.5,3.5-4.6,3.5C62.8,34.9,61.8,34.3,61.8,33.2z"/>
</g>
<g>
	<path d="M61.8,28.3c0-1.8,2.5-3.5,4.5-3.5c1.3,0,2.3,0.7,2.3,1.7c0,1.7-2.5,3.5-4.6,3.5C62.8,30,61.8,29.3,61.8,28.3z"/>
</g>
<g>
	<path d="M61.8,20.8c0-1.8,2.5-3.5,4.5-3.5c1.3,0,2.3,0.7,2.3,1.7c0,1.7-2.5,3.5-4.6,3.5C62.8,22.5,61.8,21.9,61.8,20.8z"/>
</g>
<rect x="124.5" y="15.8" width="0.5" height="31.5"/>
<g>
	<path d="M124.6,15.9c0-1.8,2.5-3.5,4.5-3.5c1.3,0,2.3,0.7,2.3,1.7c0,1.7-2.5,3.5-4.6,3.5C125.5,17.6,124.6,16.9,124.6,15.9z"/>
</g>
<g>
	<path d="M124.6,20.8c0-1.8,2.5-3.5,4.5-3.5c1.3,0,2.3,0.7,2.3,1.7c0,1.7-2.5,3.5-4.6,3.5C125.5,22.5,124.6,21.9,124.6,20.8z"/>
</g>
<g>
	<path d="M124.6,28.3c0-1.8,2.5-3.5,4.5-3.5c1.3,0,2.3,0.7,2.3,1.7c0,1.7-2.5,3.5-4.6,3.5C125.5,30,124.6,29.3,124.6,28.3z"/>
</g>
<g>
	<path d="M124.6,33.2c0-1.8,2.5-3.5,4.5-3.5c1.3,0,2.3,0.7,2.3,1.7c0,1.7-2.5,3.5-4.6,3.5C125.5,34.9,124.6,34.3,124.6,33.2z"/>
</g>
<rect x="185.6" y="12.1" width="10.5" height="0.8"/>
<rect x="187.4" y="10.8" width="0.5" height="33.9"/>
<g>
	<path d="M187.5,10.9c0-1.8,2.5-3.5,4.5-3.5c1.3,0,2.3,0.7,2.3,1.7c0,1.7-2.5,3.5-4.6,3.5C188.5,12.6,187.5,12,187.5,10.9z"/>
</g>
<g>
	<path d="M187.5,15.9c0-1.8,2.5-3.5,4.5-3.5c1.3,0,2.3,0.7,2.3,1.7c0,1.7-2.5,3.5-4.6,3.5C188.5,17.6,187.5,16.9,187.5,15.9z"/>
</g>
<g>
	<path d="M187.5,20.8c0-1.8,2.5-3.5,4.5-3.5c1.3,0,2.3,0.7,2.3,1.7c0,1.7-2.5,3.5-4.6,3.5C188.5,22.5,187.5,21.9,187.5,20.8z"/>
</g>
<g>
	<path d="M187.5,28.3c0-1.8,2.5-3.5,4.5-3.5c1.3,0,2.3,0.7,2.3,1.7c0,1.7-2.5,3.5-4.6,3.5C188.5,30,187.5,29.3,187.5,28.3z"/>
</g>
<rect x="248.4" y="12.1" width="10.5" height="0.8"/>
<rect x="248.4" y="7.2" width="10.5" height="0.8"/>
<rect x="248.4" y="2.2" width="10.5" height="0.8"/>
<rect x="250.2" y="3.4" width="0.5" height="33.9"/>
<g>
	<path d="M250.3,3.5c0-1.8,2.5-3.5,4.5-3.5c1.3,0,2.3,0.7,2.3,1.7c0,1.7-2.5,3.5-4.6,3.5C251.3,5.2,250.3,4.5,250.3,3.5z"/>
</g>
<g>
	<path d="M250.3,10.9c0-1.8,2.5-3.5,4.5-3.5c1.3,0,2.3,0.7,2.3,1.7c0,1.7-2.5,3.5-4.6,3.5C251.3,12.6,250.3,12,250.3,10.9z"/>
</g>
<g>
	<path d="M250.3,15.9c0-1.8,2.5-3.5,4.5-3.5c1.3,0,2.3,0.7,2.3,1.7c0,1.7-2.5,3.5-4.6,3.5C251.3,17.6,250.3,16.9,250.3,15.9z"/>
</g>
<g>
	<path d="M250.3,20.8c0-1.8,2.5-3.5,4.5-3.5c1.3,0,2.3,0.7,2.3,1.7c0,1.7-2.5,3.5-4.6,3.5C251.3,22.5,250.3,21.9,250.3,20.8z"/>
</g>
<rect x="311.2" y="12.1" width="10.5" height="0.8"/>
<rect x="313" y="10.8" width="0.5" height="33.9"/>
<g>
	<path d="M313.1,10.9c0-1.8,2.5-3.5,4.5-3.5c1.3,0,2.3,0.7,2.3,1.7c0,1.7-2.5,3.5-4.6,3.5C314,12.6,313.1,12,313.1,10.9z"/>
</g>
<g>
	<path d="M313.1,15.9c0-1.8,2.5-3.5,4.5-3.5c1.3,0,2.3,0.7,2.3,1.7c0,1.7-2.5,3.5-4.6,3.5C314,17.6,313.1,16.9,313.1,15.9z"/>
</g>
<g>
	<path d="M313.1,20.8c0-1.8,2.5-3.5,4.5-3.5c1.3,0,2.3,0.7,2.3,1.7c0,1.7-2.5,3.5-4.6,3.5C314,22.5,313.1,21.9,313.1,20.8z"/>
</g>
<g>
	<path d="M313.1,28.3c0-1.8,2.5-3.5,4.5-3.5c1.3,0,2.3,0.7,2.3,1.7c0,1.7-2.5,3.5-4.6,3.5C314,30,313.1,29.3,313.1,28.3z"/>
</g>
<rect x="375.8" y="15.8" width="0.5" height="31.5"/>
<g>
	<path d="M375.8,15.9c0-1.8,2.5-3.5,4.5-3.5c1.3,0,2.3,0.7,2.3,1.7c0,1.7-2.5,3.5-4.6,3.5C376.8,17.6,375.8,16.9,375.8,15.9z"/>
</g>
<g>
	<path d="M375.8,20.8c0-1.8,2.5-3.5,4.5-3.5c1.3,0,2.3,0.7,2.3,1.7c0,1.7-2.5,3.5-4.6,3.5C376.8,22.5,375.8,21.9,375.8,20.8z"/>
</g>
<g>
	<path d="M375.8,28.3c0-1.8,2.5-3.5,4.5-3.5c1.3,0,2.3,0.7,2.3,1.7c0,1.7-2.5,3.5-4.6,3.5C376.8,30,375.8,29.3,375.8,28.3z"/>
</g>
<g>
	<path d="M375.8,33.2c0-1.8,2.5-3.5,4.5-3.5c1.3,0,2.3,0.7,2.3,1.7c0,1.7-2.5,3.5-4.6,3.5C376.8,34.9,375.8,34.3,375.8,33.2z"/>
</g>
<rect x="445.4" y="6.3" width="0.5" height="30.2"/>
<g>
	<path d="M443,34.6c1.6,0,2.7,0.7,2.7,2c0,1.9-2.3,3.4-4.5,3.4c-1.3,0-2.4-0.7-2.4-1.8C438.8,36.4,441,34.6,443,34.6z M439.2,38.5
		c0,0.6,0.4,0.9,1.1,0.9c1.4,0,4.9-2.1,4.9-3.3c0-0.6-0.4-0.9-1.1-0.9C442.9,35.2,439.2,37.2,439.2,38.5z"/>
</g>
<g>
	<path d="M443,29.7c1.6,0,2.7,0.7,2.7,2c0,1.9-2.3,3.4-4.5,3.4c-1.3,0-2.4-0.7-2.4-1.8C438.8,31.4,441,29.7,443,29.7z M439.2,33.5
		c0,0.6,0.4,0.9,1.1,0.9c1.4,0,4.9-2.1,4.9-3.3c0-0.6-0.4-0.9-1.1-0.9C442.9,30.3,439.2,32.3,439.2,33.5z"/>
</g>
<g>
	<path d="M443,24.7c1.6,0,2.7,0.7,2.7,2c0,1.9-2.3,3.4-4.5,3.4c-1.3,0-2.4-0.7-2.4-1.8C438.8,26.5,441,24.7,443,24.7z M439.2,28.5
		c0,0.6,0.4,0.9,1.1,0.9c1.4,0,4.9-2.1,4.9-3.3c0-0.6-0.4-0.9-1.1-0.9C442.9,25.3,439.2,27.3,439.2,28.5z"/>
</g>
<g>
	<path d="M443,17.3c1.6,0,2.7,0.7,2.7,2c0,1.9-2.3,3.4-4.5,3.4c-1.3,0-2.4-0.7-2.4-1.8C438.8,19,441,17.3,443,17.3z M439.2,21.1
		c0,0.6,0.4,0.9,1.1,0.9c1.4,0,4.9-2.1,4.9-3.3c0-0.6-0.4-0.9-1.1-0.9C442.9,17.9,439.2,19.9,439.2,21.1z"/>
</g>
<rect x="59.9" y="59.3" width="10.5" height="0.8"/>
<rect x="59.9" y="54.3" width="10.5" height="0.8"/>
<rect x="61.7" y="55.5" width="0.5" height="33.9"/>
<g>
	<path d="M61.8,55.5c0-1.8,2.5-3.5,4.5-3.5c1.3,0,2.3,0.7,2.3,1.7c0,1.7-2.5,3.5-4.6,3.5C62.8,57.3,61.8,56.6,61.8,55.5z"/>
</g>
<g>
	<path d="M61.8,63c0-1.8,2.5-3.5,4.5-3.5c1.3,0,2.3,0.7,2.3,1.7c0,1.7-2.5,3.5-4.6,3.5C62.8,64.7,61.8,64.1,61.8,63z"/>
</g>
<g>
	<path d="M61.8,67.9c0-1.8,2.5-3.5,4.5-3.5c1.3,0,2.3,0.7,2.3,1.7c0,1.7-2.5,3.5-4.6,3.5C62.8,69.7,61.8,69,61.8,67.9z"/>
</g>
<g>
	<path d="M61.8,72.9c0-1.8,2.5-3.5,4.5-3.5c1.3,0,2.3,0.7,2.3,1.7c0,1.7-2.5,3.5-4.6,3.5C62.8,74.6,61.8,74,61.8,72.9z"/>
</g>
<rect x="122.7" y="89" width="10.5" height="0.8"/>
<rect x="122.7" y="94" width="10.5" height="0.8"/>
<rect x="131" y="62.1" width="0.5" height="33.9"/>
<g>
	<path d="M124.6,97.7c0-1.8,2.5-3.5,4.5-3.5c1.3,0,2.3,0.7,2.3,1.7c0,1.7-2.5,3.5-4.6,3.5C125.5,99.4,124.6,98.8,124.6,97.7z"/>
</g>
<g>
	<path d="M124.6,92.7c0-1.8,2.5-3.5,4.5-3.5c1.3,0,2.3,0.7,2.3,1.7c0,1.7-2.5,3.5-4.6,3.5C125.5,94.5,124.6,93.8,124.6,92.7z"/>
</g>
<g>
	<path d="M124.6,85.3c0-1.8,2.5-3.5,4.5-3.5c1.3,0,2.3,0.7,2.3,1.7c0,1.7-2.5,3.5-4.6,3.5C125.5,87,124.6,86.4,124.6,85.3z"/>
</g>
<g>
	<path d="M124.6,80.3c0-1.8,2.5-3.5,4.5-3.5c1.3,0,2.3,0.7,2.3,1.7c0,1.7-2.5,3.5-4.6,3.5C125.5,82.1,124.6,81.4,124.6,80.3z"/>
</g>
<rect x="185.6" y="89" width="10.5" height="0.8"/>
<rect x="193.9" y="57.2" width="0.5" height="33.9"/>
<g>
	<path d="M187.5,92.7c0-1.8,2.5-3.5,4.5-3.5c1.3,0,2.3,0.7,2.3,1.7c0,1.7-2.5,3.5-4.6,3.5C188.5,94.5,187.5,93.8,187.5,92.7z"/>
</g>
<g>
	<path d="M187.5,85.3c0-1.8,2.5-3.5,4.5-3.5c1.3,0,2.3,0.7,2.3,1.7c0,1.7-2.5,3.5-4.6,3.5C188.5,87,187.5,86.4,187.5,85.3z"/>
</g>
<g>
	<path d="M187.5,80.3c0-1.8,2.5-3.5,4.5-3.5c1.3,0,2.3,0.7,2.3,1.7c0,1.7-2.5,3.5-4.6,3.5C188.5,82.1,187.5,81.4,187.5,80.3z"/>
</g>
<g>
	<path d="M187.5,75.4c0-1.8,2.5-3.5,4.5-3.5c1.3,0,2.3,0.7,2.3,1.7c0,1.7-2.5,3.5-4.6,3.5C188.5,77.1,187.5,76.5,187.5,75.4z"/>
</g>
<rect x="256.7" y="53.4" width="0.5" height="30.2"/>
<g>
	<path d="M250.3,85.3c0-1.8,2.5-3.5,4.5-3.5c1.3,0,2.3,0.7,2.3,1.7c0,1.7-2.5,3.5-4.6,3.5C251.3,87,250.3,86.4,250.3,85.3z"/>
</g>
<g>
	<path d="M250.3,80.3c0-1.8,2.5-3.5,4.5-3.5c1.3,0,2.3,0.7,2.3,1.7c0,1.7-2.5,3.5-4.6,3.5C251.3,82.1,250.3,81.4,250.3,80.3z"/>
</g>
<g>
	<path d="M250.3,75.4c0-1.8,2.5-3.5,4.5-3.5c1.3,0,2.3,0.7,2.3,1.7c0,1.7-2.5,3.5-4.6,3.5C251.3,77.1,250.3,76.5,250.3,75.4z"/>
</g>
<g>
	<path d="M250.3,67.9c0-1.8,2.5-3.5,4.5-3.5c1.3,0,2.3,0.7,2.3,1.7c0,1.7-2.5,3.5-4.6,3.5C251.3,69.7,250.3,69,250.3,67.9z"/>
</g>
<rect x="311.2" y="89" width="10.5" height="0.8"/>
<rect x="319.5" y="57.2" width="0.5" height="33.9"/>
<g>
	<path d="M313.1,92.7c0-1.8,2.5-3.5,4.5-3.5c1.3,0,2.3,0.7,2.3,1.7c0,1.7-2.5,3.5-4.6,3.5C314,94.5,313.1,93.8,313.1,92.7z"/>
</g>
<g>
	<path d="M313.1,85.3c0-1.8,2.5-3.5,4.5-3.5c1.3,0,2.3,0.7,2.3,1.7c0,1.7-2.5,3.5-4.6,3.5C314,87,313.1,86.4,313.1,85.3z"/>
</g>
<g>
	<path d="M313.1,80.3c0-1.8,2.5-3.5,4.5-3.5c1.3,0,2.3,0.7,2.3,1.7c0,1.7-2.5,3.5-4.6,3.5C314,82.1,313.1,81.4,313.1,80.3z"/>
</g>
<g>
	<path d="M313.1,75.4c0-1.8,2.5-3.5,4.5-3.5c1.3,0,2.3,0.7,2.3,1.7c0,1.7-2.5,3.5-4.6,3.5C314,77.1,313.1,76.5,313.1,75.4z"/>
</g>
<rect x="374" y="89" width="10.5" height="0.8"/>
<rect x="374" y="94" width="10.5" height="0.8"/>
<rect x="382.3" y="62.1" width="0.5" height="33.9"/>
<g>
	<path d="M375.8,97.7c0-1.8,2.5-3.5,4.5-3.5c1.3,0,2.3,0.7,2.3,1.7c0,1.7-2.5,3.5-4.6,3.5C376.8,99.4,375.8,98.8,375.8,97.7z"/>
</g>
<g>
	<path d="M375.8,92.7c0-1.8,2.5-3.5,4.5-3.5c1.3,0,2.3,0.7,2.3,1.7c0,1.7-2.5,3.5-4.6,3.5C376.8,94.5,375.8,93.8,375.8,92.7z"/>
</g>
<g>
	<path d="M375.8,85.3c0-1.8,2.5-3.5,4.5-3.5c1.3,0,2.3,0.7,2.3,1.7c0,1.7-2.5,3.5-4.6,3.5C376.8,87,375.8,86.4,375.8,85.3z"/>
</g>
<g>
	<path d="M375.8,80.3c0-1.8,2.5-3.5,4.5-3.5c1.3,0,2.3,0.7,2.3,1.7c0,1.7-2.5,3.5-4.6,3.5C376.8,82.1,375.8,81.4,375.8,80.3z"/>
</g>
<rect x="436.9" y="59.3" width="10.7" height="0.8"/>
<rect x="436.9" y="54.3" width="10.7" height="0.8"/>
<rect x="438.7" y="55.5" width="0.5" height="33.9"/>
<g>
	<path d="M443,52c1.6,0,2.7,0.7,2.7,2c0,1.9-2.3,3.4-4.5,3.4c-1.3,0-2.4-0.7-2.4-1.8C438.8,53.8,441,52,443,52z M439.2,55.8
		c0,0.6,0.4,0.9,1.1,0.9c1.4,0,4.9-2.1,4.9-3.3c0-0.6-0.4-0.9-1.1-0.9C442.9,52.6,439.2,54.6,439.2,55.8z"/>
</g>
<g>
	<path d="M443,59.4c1.6,0,2.7,0.7,2.7,2c0,1.9-2.3,3.4-4.5,3.4c-1.3,0-2.4-0.7-2.4-1.8C438.8,61.2,441,59.4,443,59.4z M439.2,63.3
		c0,0.6,0.4,0.9,1.1,0.9c1.4,0,4.9-2.1,4.9-3.3c0-0.6-0.4-0.9-1.1-0.9C442.9,60,439.2,62,439.2,63.3z"/>
</g>
<g>
	<path d="M443,64.4c1.6,0,2.7,0.7,2.7,2c0,1.9-2.3,3.4-4.5,3.4c-1.3,0-2.4-0.7-2.4-1.8C438.8,66.2,441,64.4,443,64.4z M439.2,68.2
		c0,0.6,0.4,0.9,1.1,0.9c1.4,0,4.9-2.1,4.9-3.3c0-0.6-0.4-0.9-1.1-0.9C442.9,65,439.2,67,439.2,68.2z"/>
</g>
<g>
	<path d="M443,69.3c1.6,0,2.7,0.7,2.7,2c0,1.9-2.3,3.4-4.5,3.4c-1.3,0-2.4-0.7-2.4-1.8C438.8,71.1,441,69.3,443,69.3z M439.2,73.2
		c0,0.6,0.4,0.9,1.1,0.9c1.4,0,4.9-2.1,4.9-3.3c0-0.6-0.4-0.9-1.1-0.9C442.9,69.9,439.2,72,439.2,73.2z"/>
</g>
</svg>
