<?xml version="1.0" encoding="utf-8"?>

<!--
	ScaleBook
	Copyright (c) Leland Jansen 2015. All rights reserved.
-->

<!DOCTYPE svg PUBLIC "-//W3C//DTD SVG 1.1//EN" "http://www.w3.org/Graphics/SVG/1.1/DTD/svg11.dtd">
<svg version="1.1" id="Layer_1" xmlns="http://www.w3.org/2000/svg" xmlns:xlink="http://www.w3.org/1999/xlink" x="0px" y="0px"
	 viewBox="0 0 553 93" enable-background="new 0 0 553 93" xml:space="preserve">
<rect x="8.5" y="9.7" width="0.8" height="72.1"/>
<g>
	<path d="M7.6,10.4c-2,1.2-3.7,6.2-3.7,10.2c0,2.5,1.4,10.7,1.4,13.2c0,5.3-1.6,9.3-4.7,12c3.1,2.6,4.7,6.6,4.7,11.9
		c0,2.5-1.4,10.7-1.4,13.2c0,4.1,1.8,9.1,3.7,10.2v0.7C4,79.3,1.7,72.9,1.7,67.7c0-2.3,1.8-10.1,1.8-12.4c0-4.1-1-7.1-3-8.9
		C0.1,46.2,0,46,0,45.8c0-0.2,0.1-0.4,0.5-0.7c2-1.8,3-4.5,3-8.1c0-2.3-1.8-10.8-1.8-13.1c0-5.6,2.1-11.2,5.9-14.1V10.4z"/>
</g>
<rect x="548" y="9.7" width="0.8" height="72.1"/>
<rect x="550.5" y="9.7" width="2.5" height="72.1"/>
<rect x="8.6" y="29.3" width="544.4" height="0.5"/>
<rect x="8.6" y="24.4" width="544.4" height="0.5"/>
<rect x="8.6" y="19.4" width="544.4" height="0.5"/>
<rect x="8.6" y="14.4" width="544.4" height="0.5"/>
<rect x="8.6" y="9.5" width="544.4" height="0.5"/>
<g>
	<path d="M20.4,29.4c-4.2,0-8.1-3.1-8.1-6.9c0-3.2,2.3-6.7,6.8-10.5c-0.3-1.2-0.4-2.4-0.4-3.6c0-3.5,1.2-6.8,3.2-8.5
		c1.8,2.5,2.7,4.9,2.7,7.1c0,2.9-1.3,5.6-4.3,8.1l0.9,4.2c0.5,0,0.8-0.1,0.8-0.1c2.6,0,4.8,2,4.8,4.7c0,1.9-1.4,3.7-3.6,4.8
		c0-0.1,0.9,3.8,0.9,4.3c0,2.5-2.3,4.2-4.9,4.2c-2,0-3.6-1.3-3.6-3.4c0-1.4,1-2.6,2.4-2.6c1.3,0,2.3,1.3,2.3,2.5
		c0,1.4-1.2,2.3-2.7,2.5c0.6,0.3,1.2,0.5,1.9,0.5c2.1,0,4.1-1.6,4.1-3.6c0-0.2,0-0.4-0.1-0.6l-0.8-3.7
		C22.1,29.3,21.4,29.4,20.4,29.4z M18.2,24.2c0,1,0.5,1.9,1.6,2.5c-1.8-0.3-3-1.4-3-3.1c0-2,1.7-3.7,3.8-4.1l-0.8-4
		c-3.7,2.8-5.7,5.5-5.7,8.1c0,2.9,2.8,5.3,6,5.3c0.9,0,1.7-0.2,2.4-0.5l-1.4-6.8C19.5,21.8,18.2,22.8,18.2,24.2z M22.3,2.8
		c-1.6,0-2.9,3.7-2.9,7c0,0.7,0,1.3,0.2,1.9c2.7-2.4,4-4.5,4-6.5c0-0.9-0.3-1.7-1-2.4C22.5,2.9,22.4,2.8,22.3,2.8z M25,24.7
		c0-1.6-1.2-3.3-2.9-3.3c-0.1,0-0.2,0-0.5,0l1.4,6.6C24.4,27.2,25,26,25,24.7z"/>
</g>
<g>
	<path d="M33.6,2.9v2.8l1-0.3v1.8l-1,0.3V11l1-0.3v1.8l-1,0.3v3.1h-0.5v-3l-1.9,0.6v3h-0.5v-2.8l-1,0.3v-1.8l1-0.3V8.4l-1,0.3V7
		l1-0.3V3.5h0.5v3l1.9-0.6v-3H33.6z M33.1,7.7l-1.9,0.6v3.4l1.9-0.6V7.7z"/>
</g>
<g>
	<path d="M39.8,10.3v2.8l1-0.3v1.8l-1,0.3v3.4l1-0.3v1.8l-1,0.3v3.1h-0.5v-3L37.4,21v3h-0.5v-2.8l-1,0.3v-1.8l1-0.3v-3.4l-1,0.3
		v-1.8l1-0.3V11h0.5v3l1.9-0.6v-3H39.8z M39.3,15.1l-1.9,0.6v3.4l1.9-0.6V15.1z"/>
</g>
<g>
	<path d="M46,0.4v2.8l1-0.3v1.8l-1,0.3v3.4l1-0.3V10l-1,0.3v3.1h-0.5v-3l-1.9,0.6v3h-0.5v-2.8l-1,0.3V9.7l1-0.3V6l-1,0.3V4.5l1-0.3
		V1h0.5v3l1.9-0.6v-3H46z M45.5,5.2l-1.9,0.6v3.4l1.9-0.6V5.2z"/>
</g>
<g>
	<path d="M52.2,7.9v2.8l1-0.3v1.8l-1,0.3v3.4l1-0.3v1.8l-1,0.3v3.1h-0.5v-3l-1.9,0.6v3h-0.5v-2.8l-1,0.3v-1.8l1-0.3v-3.4l-1,0.3
		v-1.8l1-0.3V8.5h0.5v3l1.9-0.6v-3H52.2z M51.7,12.6l-1.9,0.6v3.4l1.9-0.6V12.6z"/>
</g>
<g>
	<path d="M58.4,15.3v2.8l1-0.3v1.8l-1,0.3v3.4l1-0.3v1.8l-1,0.3v3.1h-0.5v-3L56,25.9v3h-0.5v-2.8l-1,0.3v-1.8l1-0.3v-3.4l-1,0.3
		v-1.8l1-0.3v-3.1H56v3l1.9-0.6v-3H58.4z M57.9,20.1L56,20.7v3.4l1.9-0.6V20.1z"/>
</g>
<g>
	<path d="M64.6,5.4v2.8l1-0.3v1.8l-1,0.3v3.4l1-0.3v1.8l-1,0.3v3.1h-0.5v-3L62.2,16v3h-0.5v-2.8l-1,0.3v-1.8l1-0.3v-3.4l-1,0.3V9.5
		l1-0.3V6h0.5v3l1.9-0.6v-3H64.6z M64.1,10.2l-1.9,0.6v3.4l1.9-0.6V10.2z"/>
</g>
<rect x="8.6" y="81.6" width="544.4" height="0.5"/>
<rect x="8.6" y="76.6" width="544.4" height="0.5"/>
<rect x="8.6" y="71.6" width="544.4" height="0.5"/>
<rect x="8.6" y="66.7" width="544.4" height="0.5"/>
<rect x="8.6" y="61.7" width="544.4" height="0.5"/>
<g>
	<path d="M15.9,76.1c2.9-2.6,4.7-6.1,4.7-9.2c0-2.5-1.4-4.4-3.7-4.4c-1.6,0-3.4,1.3-3.4,2.7c0,0.2,0,0.3,0.1,0.3
		c-0.1,0,0.6-0.6,1.4-0.6c0.9,0,1.5,0.8,1.5,1.7c0,1.2-0.9,2.2-2.1,2.2c-1.2,0-2.1-1.3-2.1-2.8c0-2.3,2.3-4.1,4.8-4.1
		c4.7,0,5.9,3.2,5.9,5.8c0,1.6-0.4,2.9-2,5.3c-1.9,3.1-6.4,5.3-8.1,5.3c-0.4,0-0.6-0.2-0.6-0.5C14,77.4,15.1,76.8,15.9,76.1z
		 M25.8,63.4c0.6,0,1,0.4,1,1s-0.4,1-1,1s-1-0.4-1-1S25.3,63.4,25.8,63.4z M25.8,68.4c0.6,0,1,0.4,1,1s-0.4,1-1,1s-1-0.4-1-1
		S25.3,68.4,25.8,68.4z"/>
</g>
<g>
	<path d="M33.6,60.1v2.8l1-0.3v1.8l-1,0.3v3.4l1-0.3v1.8l-1,0.3v3.1h-0.5v-3l-1.9,0.6v3h-0.5v-2.8l-1,0.3v-1.8l1-0.3v-3.4l-1,0.3
		v-1.8l1-0.3v-3.1h0.5v3l1.9-0.6v-3H33.6z M33.1,64.9l-1.9,0.6v3.4l1.9-0.6V64.9z"/>
</g>
<g>
	<path d="M39.8,67.5v2.8l1-0.3v1.8l-1,0.3v3.4l1-0.3v1.8l-1,0.3v3.1h-0.5v-3l-1.9,0.6v3h-0.5v-2.8l-1,0.3v-1.8l1-0.3v-3.4l-1,0.3
		v-1.8l1-0.3v-3.1h0.5v3l1.9-0.6v-3H39.8z M39.3,72.3l-1.9,0.6v3.4l1.9-0.6V72.3z"/>
</g>
<g>
	<path d="M46,57.6v2.8l1-0.3v1.8l-1,0.3v3.4l1-0.3v1.8l-1,0.3v3.1h-0.5v-3l-1.9,0.6v3h-0.5v-2.8l-1,0.3v-1.8l1-0.3v-3.4l-1,0.3v-1.8
		l1-0.3v-3.1h0.5v3l1.9-0.6v-3H46z M45.5,62.4L43.6,63v3.4l1.9-0.6V62.4z"/>
</g>
<g>
	<path d="M52.2,65.1v2.8l1-0.3v1.8l-1,0.3v3.4l1-0.3v1.8l-1,0.3V78h-0.5v-3l-1.9,0.6v3h-0.5v-2.8l-1,0.3v-1.8l1-0.3v-3.4l-1,0.3
		v-1.8l1-0.3v-3.1h0.5v3l1.9-0.6v-3H52.2z M51.7,69.8l-1.9,0.6v3.4l1.9-0.6V69.8z"/>
</g>
<g>
	<path d="M58.4,72.5v2.8l1-0.3v1.8l-1,0.3v3.4l1-0.3V82l-1,0.3v3.1h-0.5v-3L56,83.1v3h-0.5v-2.8l-1,0.3v-1.8l1-0.3V78l-1,0.3v-1.8
		l1-0.3v-3.1H56v3l1.9-0.6v-3H58.4z M57.9,77.3L56,77.9v3.4l1.9-0.6V77.3z"/>
</g>
<g>
	<path d="M64.6,62.6v2.8l1-0.3v1.8l-1,0.3v3.4l1-0.3v1.8l-1,0.3v3.1h-0.5v-3l-1.9,0.6v3h-0.5v-2.8l-1,0.3v-1.8l1-0.3v-3.4l-1,0.3
		v-1.8l1-0.3v-3.1h0.5v3l1.9-0.6v-3H64.6z M64.1,67.4L62.2,68v3.4l1.9-0.6V67.4z"/>
</g>
<rect x="72.5" y="34.1" width="10.5" height="0.8"/>
<rect x="72.5" y="39.1" width="10.5" height="0.8"/>
<rect x="72.5" y="44.1" width="10.5" height="0.8"/>
<rect x="80.8" y="9.7" width="0.5" height="33.9"/>
<g>
	<path d="M74.3,45.3c0-1.8,2.5-3.5,4.5-3.5c1.3,0,2.3,0.7,2.3,1.7c0,1.7-2.5,3.5-4.6,3.5C75.3,47,74.3,46.4,74.3,45.3z"/>
</g>
<g>
	<path d="M74.3,40.3c0-1.8,2.5-3.5,4.5-3.5c1.3,0,2.3,0.7,2.3,1.7c0,1.7-2.5,3.5-4.6,3.5C75.3,42.1,74.3,41.4,74.3,40.3z"/>
</g>
<g>
	<path d="M74.3,35.4c0-1.8,2.5-3.5,4.5-3.5c1.3,0,2.3,0.7,2.3,1.7c0,1.7-2.5,3.5-4.6,3.5C75.3,37.1,74.3,36.5,74.3,35.4z"/>
</g>
<g>
	<path d="M74.3,27.9c0-1.8,2.5-3.5,4.5-3.5c1.3,0,2.3,0.7,2.3,1.7c0,1.7-2.5,3.5-4.6,3.5C75.3,29.7,74.3,29,74.3,27.9z"/>
</g>
<rect x="133.7" y="34.1" width="10.5" height="0.8"/>
<rect x="133.7" y="39.1" width="10.5" height="0.8"/>
<rect x="142" y="4.8" width="0.5" height="33.9"/>
<g>
	<path d="M135.6,40.3c0-1.8,2.5-3.5,4.5-3.5c1.3,0,2.3,0.7,2.3,1.7c0,1.7-2.5,3.5-4.6,3.5C136.5,42.1,135.6,41.4,135.6,40.3z"/>
</g>
<g>
	<path d="M135.6,35.4c0-1.8,2.5-3.5,4.5-3.5c1.3,0,2.3,0.7,2.3,1.7c0,1.7-2.5,3.5-4.6,3.5C136.5,37.1,135.6,36.5,135.6,35.4z"/>
</g>
<g>
	<path d="M135.6,27.9c0-1.8,2.5-3.5,4.5-3.5c1.3,0,2.3,0.7,2.3,1.7c0,1.7-2.5,3.5-4.6,3.5C136.5,29.7,135.6,29,135.6,27.9z"/>
</g>
<g>
	<path d="M135.6,23c0-1.8,2.5-3.5,4.5-3.5c1.3,0,2.3,0.7,2.3,1.7c0,1.7-2.5,3.5-4.6,3.5C136.5,24.7,135.6,24.1,135.6,23z"/>
</g>
<rect x="194.9" y="34.1" width="10.5" height="0.8"/>
<rect x="203.2" y="1" width="0.5" height="32.7"/>
<g>
	<path d="M196.8,35.4c0-1.8,2.5-3.5,4.5-3.5c1.3,0,2.3,0.7,2.3,1.7c0,1.7-2.5,3.5-4.6,3.5C197.8,37.1,196.8,36.5,196.8,35.4z"/>
</g>
<g>
	<path d="M196.8,27.9c0-1.8,2.5-3.5,4.5-3.5c1.3,0,2.3,0.7,2.3,1.7c0,1.7-2.5,3.5-4.6,3.5C197.8,29.7,196.8,29,196.8,27.9z"/>
</g>
<g>
	<path d="M196.8,23c0-1.8,2.5-3.5,4.5-3.5c1.3,0,2.3,0.7,2.3,1.7c0,1.7-2.5,3.5-4.6,3.5C197.8,24.7,196.8,24.1,196.8,23z"/>
</g>
<g>
	<path d="M196.8,18c0-1.8,2.5-3.5,4.5-3.5c1.3,0,2.3,0.7,2.3,1.7c0,1.7-2.5,3.5-4.6,3.5C197.8,19.7,196.8,19.1,196.8,18z"/>
</g>
<rect x="258" y="10.5" width="0.5" height="30.2"/>
<g>
	<path d="M258,10.6c0-1.8,2.5-3.5,4.5-3.5c1.3,0,2.3,0.7,2.3,1.7c0,1.7-2.5,3.5-4.6,3.5C259,12.3,258,11.7,258,10.6z"/>
</g>
<g>
	<path d="M258,18c0-1.8,2.5-3.5,4.5-3.5c1.3,0,2.3,0.7,2.3,1.7c0,1.7-2.5,3.5-4.6,3.5C259,19.7,258,19.1,258,18z"/>
</g>
<g>
	<path d="M258,23c0-1.8,2.5-3.5,4.5-3.5c1.3,0,2.3,0.7,2.3,1.7c0,1.7-2.5,3.5-4.6,3.5C259,24.7,258,24.1,258,23z"/>
</g>
<g>
	<path d="M258,27.9c0-1.8,2.5-3.5,4.5-3.5c1.3,0,2.3,0.7,2.3,1.7c0,1.7-2.5,3.5-4.6,3.5C259,29.7,258,29,258,27.9z"/>
</g>
<rect x="317.2" y="34.1" width="10.5" height="0.8"/>
<rect x="325.5" y="1" width="0.5" height="32.7"/>
<g>
	<path d="M319.1,35.4c0-1.8,2.5-3.5,4.5-3.5c1.3,0,2.3,0.7,2.3,1.7c0,1.7-2.5,3.5-4.6,3.5C320.1,37.1,319.1,36.5,319.1,35.4z"/>
</g>
<g>
	<path d="M319.1,27.9c0-1.8,2.5-3.5,4.5-3.5c1.3,0,2.3,0.7,2.3,1.7c0,1.7-2.5,3.5-4.6,3.5C320.1,29.7,319.1,29,319.1,27.9z"/>
</g>
<g>
	<path d="M319.1,23c0-1.8,2.5-3.5,4.5-3.5c1.3,0,2.3,0.7,2.3,1.7c0,1.7-2.5,3.5-4.6,3.5C320.1,24.7,319.1,24.1,319.1,23z"/>
</g>
<g>
	<path d="M319.1,18c0-1.8,2.5-3.5,4.5-3.5c1.3,0,2.3,0.7,2.3,1.7c0,1.7-2.5,3.5-4.6,3.5C320.1,19.7,319.1,19.1,319.1,18z"/>
</g>
<rect x="378.5" y="34.1" width="10.5" height="0.8"/>
<rect x="378.5" y="39.1" width="10.5" height="0.8"/>
<rect x="386.8" y="4.8" width="0.5" height="33.9"/>
<g>
	<path d="M380.3,40.3c0-1.8,2.5-3.5,4.5-3.5c1.3,0,2.3,0.7,2.3,1.7c0,1.7-2.5,3.5-4.6,3.5C381.3,42.1,380.3,41.4,380.3,40.3z"/>
</g>
<g>
	<path d="M380.3,35.4c0-1.8,2.5-3.5,4.5-3.5c1.3,0,2.3,0.7,2.3,1.7c0,1.7-2.5,3.5-4.6,3.5C381.3,37.1,380.3,36.5,380.3,35.4z"/>
</g>
<g>
	<path d="M380.3,27.9c0-1.8,2.5-3.5,4.5-3.5c1.3,0,2.3,0.7,2.3,1.7c0,1.7-2.5,3.5-4.6,3.5C381.3,29.7,380.3,29,380.3,27.9z"/>
</g>
<g>
	<path d="M380.3,23c0-1.8,2.5-3.5,4.5-3.5c1.3,0,2.3,0.7,2.3,1.7c0,1.7-2.5,3.5-4.6,3.5C381.3,24.7,380.3,24.1,380.3,23z"/>
</g>
<rect x="439.7" y="34.1" width="10.7" height="0.8"/>
<rect x="439.7" y="39.1" width="10.7" height="0.8"/>
<rect x="439.7" y="44.1" width="10.7" height="0.8"/>
<rect x="448.2" y="9.7" width="0.5" height="33.9"/>
<g>
	<path d="M445.8,41.7c1.6,0,2.7,0.7,2.7,2c0,1.9-2.3,3.4-4.5,3.4c-1.3,0-2.4-0.7-2.4-1.8C441.6,43.5,443.8,41.7,445.8,41.7z
		 M442,45.6c0,0.6,0.4,0.9,1.1,0.9c1.4,0,4.9-2.1,4.9-3.3c0-0.6-0.4-0.9-1.1-0.9C445.7,42.3,442,44.4,442,45.6z"/>
</g>
<g>
	<path d="M445.8,36.8c1.6,0,2.7,0.7,2.7,2c0,1.9-2.3,3.4-4.5,3.4c-1.3,0-2.4-0.7-2.4-1.8C441.6,38.6,443.8,36.8,445.8,36.8z
		 M442,40.6c0,0.6,0.4,0.9,1.1,0.9c1.4,0,4.9-2.1,4.9-3.3c0-0.6-0.4-0.9-1.1-0.9C445.7,37.4,442,39.4,442,40.6z"/>
</g>
<g>
	<path d="M445.8,31.8c1.6,0,2.7,0.7,2.7,2c0,1.9-2.3,3.4-4.5,3.4c-1.3,0-2.4-0.7-2.4-1.8C441.6,33.6,443.8,31.8,445.8,31.8z
		 M442,35.7c0,0.6,0.4,0.9,1.1,0.9c1.4,0,4.9-2.1,4.9-3.3c0-0.6-0.4-0.9-1.1-0.9C445.7,32.4,442,34.4,442,35.7z"/>
</g>
<g>
	<path d="M445.8,24.4c1.6,0,2.7,0.7,2.7,2c0,1.9-2.3,3.4-4.5,3.4c-1.3,0-2.4-0.7-2.4-1.8C441.6,26.2,443.8,24.4,445.8,24.4z
		 M442,28.2c0,0.6,0.4,0.9,1.1,0.9c1.4,0,4.9-2.1,4.9-3.3c0-0.6-0.4-0.9-1.1-0.9C445.7,25,442,27,442,28.2z"/>
</g>
<rect x="80.8" y="52" width="0.5" height="31.5"/>
<g>
	<path d="M74.3,85.1c0-1.8,2.5-3.5,4.5-3.5c1.3,0,2.3,0.7,2.3,1.7c0,1.7-2.5,3.5-4.6,3.5C75.3,86.9,74.3,86.2,74.3,85.1z"/>
</g>
<g>
	<path d="M74.3,80.2c0-1.8,2.5-3.5,4.5-3.5c1.3,0,2.3,0.7,2.3,1.7c0,1.7-2.5,3.5-4.6,3.5C75.3,81.9,74.3,81.3,74.3,80.2z"/>
</g>
<g>
	<path d="M74.3,75.2c0-1.8,2.5-3.5,4.5-3.5c1.3,0,2.3,0.7,2.3,1.7c0,1.7-2.5,3.5-4.6,3.5C75.3,76.9,74.3,76.3,74.3,75.2z"/>
</g>
<g>
	<path d="M74.3,67.8c0-1.8,2.5-3.5,4.5-3.5c1.3,0,2.3,0.7,2.3,1.7c0,1.7-2.5,3.5-4.6,3.5C75.3,69.5,74.3,68.9,74.3,67.8z"/>
</g>
<rect x="135.5" y="62.7" width="0.5" height="30.2"/>
<g>
	<path d="M135.6,62.8c0-1.8,2.5-3.5,4.5-3.5c1.3,0,2.3,0.7,2.3,1.7c0,1.7-2.5,3.5-4.6,3.5C136.5,64.5,135.6,63.9,135.6,62.8z"/>
</g>
<g>
	<path d="M135.6,67.8c0-1.8,2.5-3.5,4.5-3.5c1.3,0,2.3,0.7,2.3,1.7c0,1.7-2.5,3.5-4.6,3.5C136.5,69.5,135.6,68.9,135.6,67.8z"/>
</g>
<g>
	<path d="M135.6,75.2c0-1.8,2.5-3.5,4.5-3.5c1.3,0,2.3,0.7,2.3,1.7c0,1.7-2.5,3.5-4.6,3.5C136.5,76.9,135.6,76.3,135.6,75.2z"/>
</g>
<g>
	<path d="M135.6,80.2c0-1.8,2.5-3.5,4.5-3.5c1.3,0,2.3,0.7,2.3,1.7c0,1.7-2.5,3.5-4.6,3.5C136.5,81.9,135.6,81.3,135.6,80.2z"/>
</g>
<rect x="194.9" y="56.6" width="10.5" height="0.8"/>
<rect x="196.7" y="57.8" width="0.5" height="32.7"/>
<g>
	<path d="M196.8,57.8c0-1.8,2.5-3.5,4.5-3.5c1.3,0,2.3,0.7,2.3,1.7c0,1.7-2.5,3.5-4.6,3.5C197.8,59.6,196.8,58.9,196.8,57.8z"/>
</g>
<g>
	<path d="M196.8,62.8c0-1.8,2.5-3.5,4.5-3.5c1.3,0,2.3,0.7,2.3,1.7c0,1.7-2.5,3.5-4.6,3.5C197.8,64.5,196.8,63.9,196.8,62.8z"/>
</g>
<g>
	<path d="M196.8,67.8c0-1.8,2.5-3.5,4.5-3.5c1.3,0,2.3,0.7,2.3,1.7c0,1.7-2.5,3.5-4.6,3.5C197.8,69.5,196.8,68.9,196.8,67.8z"/>
</g>
<g>
	<path d="M196.8,75.2c0-1.8,2.5-3.5,4.5-3.5c1.3,0,2.3,0.7,2.3,1.7c0,1.7-2.5,3.5-4.6,3.5C197.8,76.9,196.8,76.3,196.8,75.2z"/>
</g>
<rect x="256.2" y="56.6" width="10.5" height="0.8"/>
<rect x="256.2" y="51.6" width="10.5" height="0.8"/>
<rect x="258" y="50.3" width="0.5" height="33.9"/>
<g>
	<path d="M258,50.4c0-1.8,2.5-3.5,4.5-3.5c1.3,0,2.3,0.7,2.3,1.7c0,1.7-2.5,3.5-4.6,3.5C259,52.1,258,51.5,258,50.4z"/>
</g>
<g>
	<path d="M258,57.8c0-1.8,2.5-3.5,4.5-3.5c1.3,0,2.3,0.7,2.3,1.7c0,1.7-2.5,3.5-4.6,3.5C259,59.6,258,58.9,258,57.8z"/>
</g>
<g>
	<path d="M258,62.8c0-1.8,2.5-3.5,4.5-3.5c1.3,0,2.3,0.7,2.3,1.7c0,1.7-2.5,3.5-4.6,3.5C259,64.5,258,63.9,258,62.8z"/>
</g>
<g>
	<path d="M258,67.8c0-1.8,2.5-3.5,4.5-3.5c1.3,0,2.3,0.7,2.3,1.7c0,1.7-2.5,3.5-4.6,3.5C259,69.5,258,68.9,258,67.8z"/>
</g>
<rect x="317.2" y="56.6" width="10.5" height="0.8"/>
<rect x="319" y="57.8" width="0.5" height="32.7"/>
<g>
	<path d="M319.1,57.8c0-1.8,2.5-3.5,4.5-3.5c1.3,0,2.3,0.7,2.3,1.7c0,1.7-2.5,3.5-4.6,3.5C320.1,59.6,319.1,58.9,319.1,57.8z"/>
</g>
<g>
	<path d="M319.1,62.8c0-1.8,2.5-3.5,4.5-3.5c1.3,0,2.3,0.7,2.3,1.7c0,1.7-2.5,3.5-4.6,3.5C320.1,64.5,319.1,63.9,319.1,62.8z"/>
</g>
<g>
	<path d="M319.1,67.8c0-1.8,2.5-3.5,4.5-3.5c1.3,0,2.3,0.7,2.3,1.7c0,1.7-2.5,3.5-4.6,3.5C320.1,69.5,319.1,68.9,319.1,67.8z"/>
</g>
<g>
	<path d="M319.1,75.2c0-1.8,2.5-3.5,4.5-3.5c1.3,0,2.3,0.7,2.3,1.7c0,1.7-2.5,3.5-4.6,3.5C320.1,76.9,319.1,76.3,319.1,75.2z"/>
</g>
<rect x="380.3" y="62.7" width="0.5" height="30.2"/>
<g>
	<path d="M380.3,62.8c0-1.8,2.5-3.5,4.5-3.5c1.3,0,2.3,0.7,2.3,1.7c0,1.7-2.5,3.5-4.6,3.5C381.3,64.5,380.3,63.9,380.3,62.8z"/>
</g>
<g>
	<path d="M380.3,67.8c0-1.8,2.5-3.5,4.5-3.5c1.3,0,2.3,0.7,2.3,1.7c0,1.7-2.5,3.5-4.6,3.5C381.3,69.5,380.3,68.9,380.3,67.8z"/>
</g>
<g>
	<path d="M380.3,75.2c0-1.8,2.5-3.5,4.5-3.5c1.3,0,2.3,0.7,2.3,1.7c0,1.7-2.5,3.5-4.6,3.5C381.3,76.9,380.3,76.3,380.3,75.2z"/>
</g>
<g>
	<path d="M380.3,80.2c0-1.8,2.5-3.5,4.5-3.5c1.3,0,2.3,0.7,2.3,1.7c0,1.7-2.5,3.5-4.6,3.5C381.3,81.9,380.3,81.3,380.3,80.2z"/>
</g>
<rect x="448.2" y="52" width="0.5" height="31.5"/>
<g>
	<path d="M445.8,81.6c1.6,0,2.7,0.7,2.7,2c0,1.9-2.3,3.4-4.5,3.4c-1.3,0-2.4-0.7-2.4-1.8C441.6,83.4,443.8,81.6,445.8,81.6z
		 M442,85.4c0,0.6,0.4,0.9,1.1,0.9c1.4,0,4.9-2.1,4.9-3.3c0-0.6-0.4-0.9-1.1-0.9C445.7,82.2,442,84.2,442,85.4z"/>
</g>
<g>
	<path d="M445.8,76.6c1.6,0,2.7,0.7,2.7,2c0,1.9-2.3,3.4-4.5,3.4c-1.3,0-2.4-0.7-2.4-1.8C441.6,78.4,443.8,76.6,445.8,76.6z
		 M442,80.5c0,0.6,0.4,0.9,1.1,0.9c1.4,0,4.9-2.1,4.9-3.3c0-0.6-0.4-0.9-1.1-0.9C445.7,77.2,442,79.2,442,80.5z"/>
</g>
<g>
	<path d="M445.8,71.7c1.6,0,2.7,0.7,2.7,2c0,1.9-2.3,3.4-4.5,3.4c-1.3,0-2.4-0.7-2.4-1.8C441.6,73.4,443.8,71.7,445.8,71.7z
		 M442,75.5c0,0.6,0.4,0.9,1.1,0.9c1.4,0,4.9-2.1,4.9-3.3c0-0.6-0.4-0.9-1.1-0.9C445.7,72.3,442,74.3,442,75.5z"/>
</g>
<g>
	<path d="M445.8,64.2c1.6,0,2.7,0.7,2.7,2c0,1.9-2.3,3.4-4.5,3.4c-1.3,0-2.4-0.7-2.4-1.8C441.6,66,443.8,64.2,445.8,64.2z M442,68.1
		c0,0.6,0.4,0.9,1.1,0.9c1.4,0,4.9-2.1,4.9-3.3c0-0.6-0.4-0.9-1.1-0.9C445.7,64.8,442,66.8,442,68.1z"/>
</g>
</svg>
