<?xml version="1.0" encoding="utf-8"?>

<!--
	ScaleBook
	Copyright (c) Leland Jansen 2015. All rights reserved.
-->

<!DOCTYPE svg PUBLIC "-//W3C//DTD SVG 1.1//EN" "http://www.w3.org/Graphics/SVG/1.1/DTD/svg11.dtd">
<svg version="1.1" id="Layer_1" xmlns="http://www.w3.org/2000/svg" xmlns:xlink="http://www.w3.org/1999/xlink" x="0px" y="0px"
	 viewBox="0 0 553 218" enable-background="new 0 0 553 218" xml:space="preserve">
<rect x="8.4" y="9.7" width="0.8" height="67"/>
<g>
	<path d="M7.4,10.4c-1.9,1.1-3.6,5.8-3.6,9.4c0,2.3,1.4,9.9,1.4,12.3c0,5-1.5,8.6-4.6,11.1c3,2.4,4.6,6.1,4.6,11
		c0,2.3-1.4,9.9-1.4,12.3c0,3.8,1.7,8.4,3.6,9.5v0.7c-3.5-2.3-5.8-8.2-5.8-13.1c0-2.1,1.7-9.4,1.7-11.5c0-3.8-1-6.6-2.9-8.2
		C0.1,43.6,0,43.4,0,43.2s0.1-0.4,0.5-0.7c1.9-1.7,2.9-4.2,2.9-7.6c0-2.1-1.7-10-1.7-12.2c0-5.2,2.1-10.4,5.8-13.1V10.4z"/>
</g>
<rect x="8.4" y="141.2" width="0.8" height="67"/>
<g>
	<path d="M7.4,141.8c-1.9,1.1-3.6,5.8-3.6,9.4c0,2.3,1.4,9.9,1.4,12.3c0,5-1.5,8.6-4.6,11.1c3,2.4,4.6,6.1,4.6,11
		c0,2.3-1.4,9.9-1.4,12.3c0,3.8,1.7,8.4,3.6,9.5v0.7c-3.5-2.3-5.8-8.2-5.8-13.1c0-2.1,1.7-9.4,1.7-11.5c0-3.8-1-6.6-2.9-8.2
		C0.1,175,0,174.8,0,174.6s0.1-0.4,0.5-0.7c1.9-1.7,2.9-4.2,2.9-7.6c0-2.1-1.7-10-1.7-12.2c0-5.2,2.1-10.4,5.8-13.1V141.8z"/>
</g>
<rect x="289.7" y="9.7" width="0.8" height="67"/>
<rect x="552.2" y="9.7" width="0.8" height="67"/>
<rect x="341.5" y="141.2" width="0.8" height="67"/>
<rect x="547.8" y="141.2" width="0.8" height="67"/>
<rect x="550.4" y="141.2" width="2.5" height="67"/>
<rect x="8.5" y="29.3" width="544.4" height="0.5"/>
<rect x="8.5" y="24.4" width="544.4" height="0.5"/>
<rect x="8.5" y="19.4" width="544.4" height="0.5"/>
<rect x="8.5" y="14.4" width="544.4" height="0.5"/>
<rect x="8.5" y="9.5" width="544.4" height="0.5"/>
<g>
	<path d="M20.3,29.4c-4.2,0-8.1-3.1-8.1-6.9c0-3.2,2.3-6.7,6.8-10.5c-0.3-1.2-0.4-2.4-0.4-3.6c0-3.5,1.2-6.8,3.2-8.5
		c1.8,2.5,2.7,4.9,2.7,7.1c0,2.9-1.3,5.6-4.3,8.1l0.9,4.2c0.5,0,0.8-0.1,0.8-0.1c2.6,0,4.8,2,4.8,4.7c0,1.9-1.4,3.7-3.6,4.8
		c0-0.1,0.9,3.8,0.9,4.3c0,2.5-2.3,4.2-4.9,4.2c-2,0-3.6-1.3-3.6-3.4c0-1.4,1-2.6,2.4-2.6c1.3,0,2.3,1.3,2.3,2.5
		c0,1.4-1.2,2.3-2.7,2.5c0.6,0.3,1.2,0.5,1.9,0.5c2.1,0,4.1-1.6,4.1-3.6c0-0.2,0-0.4-0.1-0.6l-0.8-3.7
		C21.9,29.3,21.2,29.4,20.3,29.4z M18.1,24.2c0,1,0.5,1.9,1.6,2.5c-1.8-0.3-3-1.4-3-3.1c0-2,1.7-3.7,3.8-4.1l-0.8-4
		C16,18.3,14,21,14,23.6c0,2.9,2.8,5.3,6,5.3c0.9,0,1.7-0.2,2.4-0.5L21,21.6C19.4,21.8,18.1,22.8,18.1,24.2z M22.1,2.8
		c-1.6,0-2.9,3.7-2.9,7c0,0.7,0,1.3,0.2,1.9c2.7-2.4,4-4.5,4-6.5c0-0.9-0.3-1.7-1-2.4C22.4,2.9,22.3,2.8,22.1,2.8z M24.9,24.7
		c0-1.6-1.2-3.3-2.9-3.3c-0.1,0-0.2,0-0.5,0l1.4,6.6C24.2,27.2,24.9,26,24.9,24.7z"/>
</g>
<g>
	<path d="M29.5,11.3h0.6L30,17.6c0.4-0.7,1-1,1.8-1c1.2,0,2.2,0.8,2.2,1.9c0,0.8-0.5,1.8-1.7,2.7l-2.8,2.1V11.3z M30.1,18.2
		C30,19,30,19.6,30,20.2c0,1,0,1.6,0.1,2c1-0.7,2.4-2.6,2.4-3.7c0-0.6-0.5-1.1-1.1-1.1C30.8,17.4,30.4,17.7,30.1,18.2z"/>
</g>
<g>
	<path d="M35.1,3.9h0.6l-0.1,6.2c0.4-0.7,1-1,1.8-1c1.2,0,2.2,0.8,2.2,1.9c0,0.8-0.5,1.8-1.7,2.7l-2.8,2.1V3.9z M35.7,10.8
		c-0.1,0.8-0.1,1.4-0.1,1.9c0,1,0,1.6,0.1,2c1-0.7,2.4-2.6,2.4-3.7c0-0.6-0.5-1.1-1.1-1.1C36.4,10,36,10.2,35.7,10.8z"/>
</g>
<g>
	<path d="M40.7,13.8h0.6l-0.1,6.2c0.4-0.7,1-1,1.8-1c1.2,0,2.2,0.8,2.2,1.9c0,0.8-0.5,1.8-1.7,2.7l-2.8,2.1V13.8z M41.3,20.7
		c-0.1,0.8-0.1,1.4-0.1,1.9c0,1,0,1.6,0.1,2c1-0.7,2.4-2.6,2.4-3.7c0-0.6-0.5-1.1-1.1-1.1C42,19.9,41.6,20.2,41.3,20.7z"/>
</g>
<g>
	<path d="M46.3,6.4h0.6l-0.1,6.2c0.4-0.7,1-1,1.8-1c1.2,0,2.2,0.8,2.2,1.9c0,0.8-0.5,1.8-1.7,2.7l-2.8,2.1V6.4z M46.9,13.3
		c-0.1,0.8-0.1,1.4-0.1,1.9c0,1,0,1.6,0.1,2c1-0.7,2.4-2.6,2.4-3.7c0-0.6-0.5-1.1-1.1-1.1C47.6,12.4,47.2,12.7,46.9,13.3z"/>
</g>
<polygon fill-rule="evenodd" clip-rule="evenodd" points="66,25.8 109.4,20.9 109.4,18.4 66,23.4 "/>
<polygon fill-rule="evenodd" clip-rule="evenodd" points="66,22.1 109.4,17.2 109.4,14.7 66,19.6 "/>
<polygon fill-rule="evenodd" clip-rule="evenodd" points="123.8,15.9 167,11 167,8.5 123.8,13.4 "/>
<polygon fill-rule="evenodd" clip-rule="evenodd" points="123.8,12.2 167,7.2 167,4.8 123.8,9.7 "/>
<polygon fill-rule="evenodd" clip-rule="evenodd" points="175.1,30.8 218.4,25.8 218.4,23.4 175.1,28.3 "/>
<polygon fill-rule="evenodd" clip-rule="evenodd" points="175.1,34.5 218.4,29.6 218.4,27.1 175.1,32 "/>
<polygon fill-rule="evenodd" clip-rule="evenodd" points="232.8,22.1 276.2,20.9 276.2,18.4 232.8,19.6 "/>
<polygon fill-rule="evenodd" clip-rule="evenodd" points="232.8,25.8 276.2,24.6 276.2,22.1 232.8,23.4 "/>
<polygon fill-rule="evenodd" clip-rule="evenodd" points="298,25.8 341.4,30.8 341.4,28.3 298,23.4 "/>
<polygon fill-rule="evenodd" clip-rule="evenodd" points="298,29.6 341.4,34.5 341.4,32 298,27.1 "/>
<rect x="355.8" y="32" fill-rule="evenodd" clip-rule="evenodd" width="43.4" height="2.5"/>
<rect x="355.8" y="35.8" fill-rule="evenodd" clip-rule="evenodd" width="43.4" height="2.5"/>
<polygon fill-rule="evenodd" clip-rule="evenodd" points="425.6,25.8 468.9,20.9 468.9,18.4 425.6,23.4 "/>
<polygon fill-rule="evenodd" clip-rule="evenodd" points="425.6,29.6 468.9,24.6 468.9,22.1 425.6,27.1 "/>
<polygon fill-rule="evenodd" clip-rule="evenodd" points="483.3,20.9 526.7,25.8 526.7,23.4 483.3,18.4 "/>
<polygon fill-rule="evenodd" clip-rule="evenodd" points="483.3,24.6 526.7,29.6 526.7,27.1 483.3,22.1 "/>
<rect x="8.5" y="76.4" width="544.4" height="0.5"/>
<rect x="8.5" y="71.5" width="544.4" height="0.5"/>
<rect x="8.5" y="66.5" width="544.4" height="0.5"/>
<rect x="8.5" y="61.6" width="544.4" height="0.5"/>
<rect x="8.5" y="56.6" width="544.4" height="0.5"/>
<g>
	<path d="M15.7,71c2.9-2.6,4.7-6.1,4.7-9.2c0-2.5-1.4-4.4-3.7-4.4c-1.6,0-3.4,1.3-3.4,2.7c0,0.2,0,0.3,0.1,0.3
		c-0.1,0,0.6-0.6,1.4-0.6c0.9,0,1.5,0.8,1.5,1.7c0,1.2-0.9,2.2-2.1,2.2c-1.2,0-2.1-1.3-2.1-2.8c0-2.3,2.3-4.1,4.8-4.1
		c4.7,0,5.9,3.2,5.9,5.8c0,1.6-0.4,2.9-2,5.3c-1.9,3.1-6.4,5.3-8.1,5.3c-0.4,0-0.6-0.2-0.6-0.5C13.8,72.3,14.9,71.7,15.7,71z
		 M25.7,58.3c0.6,0,1,0.4,1,1s-0.4,1-1,1s-1-0.4-1-1S25.1,58.3,25.7,58.3z M25.7,63.3c0.6,0,1,0.4,1,1c0,0.6-0.4,1-1,1s-1-0.4-1-1
		C24.7,63.7,25.1,63.3,25.7,63.3z"/>
</g>
<g>
	<path d="M29.5,63.4h0.6L30,69.7c0.4-0.7,1-1,1.8-1c1.2,0,2.2,0.8,2.2,1.9c0,0.8-0.5,1.8-1.7,2.7l-2.8,2.1V63.4z M30.1,70.3
		C30,71.1,30,71.7,30,72.3c0,1,0,1.6,0.1,2c1-0.7,2.4-2.6,2.4-3.7c0-0.6-0.5-1.1-1.1-1.1C30.8,69.5,30.4,69.8,30.1,70.3z"/>
</g>
<g>
	<path d="M35.1,56h0.6l-0.1,6.2c0.4-0.7,1-1,1.8-1c1.2,0,2.2,0.8,2.2,1.9c0,0.8-0.5,1.8-1.7,2.7l-2.8,2.1V56z M35.7,62.9
		c-0.1,0.8-0.1,1.4-0.1,1.9c0,1,0,1.6,0.1,2c1-0.7,2.4-2.6,2.4-3.7c0-0.6-0.5-1.1-1.1-1.1C36.4,62,36,62.3,35.7,62.9z"/>
</g>
<g>
	<path d="M40.7,65.9h0.6l-0.1,6.2c0.4-0.7,1-1,1.8-1c1.2,0,2.2,0.8,2.2,1.9c0,0.8-0.5,1.8-1.7,2.7l-2.8,2.1V65.9z M41.3,72.8
		c-0.1,0.8-0.1,1.4-0.1,1.9c0,1,0,1.6,0.1,2c1-0.7,2.4-2.6,2.4-3.7c0-0.6-0.5-1.1-1.1-1.1C42,72,41.6,72.2,41.3,72.8z"/>
</g>
<g>
	<path d="M46.3,58.4h0.6l-0.1,6.2c0.4-0.7,1-1,1.8-1c1.2,0,2.2,0.8,2.2,1.9c0,0.8-0.5,1.8-1.7,2.7l-2.8,2.1V58.4z M46.9,65.4
		c-0.1,0.8-0.1,1.4-0.1,1.9c0,1,0,1.6,0.1,2c1-0.7,2.4-2.6,2.4-3.7c0-0.6-0.5-1.1-1.1-1.1C47.6,64.5,47.2,64.8,46.9,65.4z"/>
</g>
<polygon fill-rule="evenodd" clip-rule="evenodd" points="66,63 109.4,58.1 109.4,55.6 66,60.6 "/>
<polygon fill-rule="evenodd" clip-rule="evenodd" points="66,59.3 109.4,54.4 109.4,51.9 66,56.8 "/>
<polygon fill-rule="evenodd" clip-rule="evenodd" points="117.3,77.9 160.5,73 160.5,70.5 117.3,75.4 "/>
<polygon fill-rule="evenodd" clip-rule="evenodd" points="117.3,81.6 160.5,76.7 160.5,74.2 117.3,79.2 "/>
<polygon fill-rule="evenodd" clip-rule="evenodd" points="175.1,73 218.4,77.9 218.4,75.4 175.1,70.5 "/>
<polygon fill-rule="evenodd" clip-rule="evenodd" points="175.1,76.7 218.4,81.6 218.4,79.2 175.1,74.2 "/>
<polygon fill-rule="evenodd" clip-rule="evenodd" points="239.3,56.8 282.7,58.1 282.7,55.6 239.3,54.4 "/>
<polygon fill-rule="evenodd" clip-rule="evenodd" points="239.3,53.1 282.7,54.4 282.7,51.9 239.3,50.6 "/>
<polygon fill-rule="evenodd" clip-rule="evenodd" points="298,82.9 341.4,77.9 341.4,75.4 298,80.4 "/>
<polygon fill-rule="evenodd" clip-rule="evenodd" points="298,86.6 341.4,81.6 341.4,79.2 298,84.1 "/>
<g>
	<path d="M419.4,75.3c-3.2,0-6.1-2.3-6.1-5.1c0-2.4,1.7-5,5.1-7.9c-0.2-0.9-0.3-1.8-0.3-2.7c0-2.6,0.9-5.1,2.4-6.3
		c1.4,1.9,2,3.7,2,5.3c0,2.2-1,4.2-3.2,6.1l0.7,3.1c0.4,0,0.6,0,0.6,0c2,0,3.6,1.5,3.6,3.5c0,1.4-1.1,2.8-2.7,3.6
		c0-0.1,0.6,2.8,0.6,3.3c0,1.9-1.7,3.2-3.7,3.2c-1.5,0-2.7-1-2.7-2.5c0-1.1,0.7-1.9,1.8-1.9c1,0,1.7,1,1.7,1.9c0,1-0.9,1.7-2,1.8
		c0.4,0.2,0.9,0.3,1.4,0.3c1.6,0,3.1-1.2,3.1-2.7c0-0.1,0-0.3,0-0.5l-0.6-2.8C420.7,75.2,420.1,75.3,419.4,75.3z M417.8,71.4
		c0,0.8,0.4,1.4,1.2,1.9c-1.3-0.2-2.2-1.1-2.2-2.3c0-1.5,1.3-2.8,2.9-3.1l-0.6-3c-2.8,2.1-4.3,4.1-4.3,6.1c0,2.2,2.1,4,4.5,4
		c0.7,0,1.3-0.1,1.8-0.4l-1.1-5.1C418.7,69.6,417.8,70.4,417.8,71.4z M420.8,55.4c-1.2,0-2.2,2.8-2.2,5.3c0,0.5,0,1,0.1,1.4
		c2-1.8,3-3.4,3-4.8c0-0.7-0.3-1.3-0.7-1.8C421,55.4,420.9,55.4,420.8,55.4z M422.9,71.8c0-1.2-0.9-2.4-2.2-2.4c0,0-0.2,0-0.4,0
		l1.1,5C422.4,73.7,422.9,72.8,422.9,71.8z"/>
</g>
<polygon fill-rule="evenodd" clip-rule="evenodd" points="355.8,73 399.3,68 399.3,65.5 355.8,70.5 "/>
<polygon fill-rule="evenodd" clip-rule="evenodd" points="355.8,76.7 399.3,71.7 399.3,69.2 355.8,74.2 "/>
<polygon fill-rule="evenodd" clip-rule="evenodd" points="432.1,68 475.4,63 475.4,60.6 432.1,65.5 "/>
<polygon fill-rule="evenodd" clip-rule="evenodd" points="432.1,64.3 475.4,59.3 475.4,56.8 432.1,61.8 "/>
<g>
	<path d="M541.6,68.7c2.2-2,3.6-4.6,3.6-6.9c0-1.9-1.1-3.3-2.8-3.3c-1.2,0-2.5,1-2.5,2.1c0,0.2,0,0.2,0.1,0.2c0,0,0.4-0.5,1-0.5
		c0.7,0,1.2,0.6,1.2,1.3c0,0.9-0.6,1.7-1.6,1.7s-1.5-1-1.5-2.1c0-1.8,1.7-3.1,3.6-3.1c3.5,0,4.4,2.4,4.4,4.4c0,1.2-0.3,2.2-1.5,4
		c-1.4,2.3-4.8,4-6,4c-0.3,0-0.5-0.1-0.5-0.3C540.1,69.7,541,69.2,541.6,68.7z M549,59.2c0.4,0,0.7,0.3,0.7,0.7
		c0,0.4-0.3,0.7-0.7,0.7c-0.4,0-0.7-0.3-0.7-0.7C548.3,59.5,548.6,59.2,549,59.2z M549,62.9c0.4,0,0.7,0.3,0.7,0.7
		c0,0.4-0.3,0.7-0.7,0.7c-0.4,0-0.7-0.3-0.7-0.7C548.3,63.2,548.6,62.9,549,62.9z"/>
</g>
<polygon fill-rule="evenodd" clip-rule="evenodd" points="489.8,58.1 533.2,63 533.2,60.6 489.8,55.6 "/>
<polygon fill-rule="evenodd" clip-rule="evenodd" points="489.8,54.4 533.2,59.3 533.2,56.8 489.8,51.9 "/>
<rect x="8.5" y="160.8" width="544.4" height="0.5"/>
<rect x="8.5" y="155.8" width="544.4" height="0.5"/>
<rect x="8.5" y="150.9" width="544.4" height="0.5"/>
<rect x="8.5" y="145.9" width="544.4" height="0.5"/>
<rect x="8.5" y="140.9" width="544.4" height="0.5"/>
<g>
	<path d="M20.3,160.8c-4.2,0-8.1-3.1-8.1-6.9c0-3.2,2.3-6.7,6.8-10.5c-0.3-1.2-0.4-2.4-0.4-3.6c0-3.5,1.2-6.8,3.2-8.5
		c1.8,2.5,2.7,4.9,2.7,7.1c0,2.9-1.3,5.6-4.3,8.1l0.9,4.2c0.5,0,0.8-0.1,0.8-0.1c2.6,0,4.8,2,4.8,4.7c0,1.9-1.4,3.7-3.6,4.8
		c0-0.1,0.9,3.8,0.9,4.3c0,2.5-2.3,4.2-4.9,4.2c-2,0-3.6-1.3-3.6-3.4c0-1.4,1-2.6,2.4-2.6c1.3,0,2.3,1.3,2.3,2.5
		c0,1.4-1.2,2.3-2.7,2.5c0.6,0.3,1.2,0.5,1.9,0.5c2.1,0,4.1-1.6,4.1-3.6c0-0.2,0-0.4-0.1-0.6l-0.8-3.7
		C21.9,160.7,21.2,160.8,20.3,160.8z M18.1,155.6c0,1,0.5,1.9,1.6,2.5c-1.8-0.3-3-1.4-3-3.1c0-2,1.7-3.7,3.8-4.1l-0.8-4
		c-3.7,2.8-5.7,5.5-5.7,8.1c0,2.9,2.8,5.3,6,5.3c0.9,0,1.7-0.2,2.4-0.5L21,153C19.4,153.2,18.1,154.3,18.1,155.6z M22.1,134.3
		c-1.6,0-2.9,3.7-2.9,7c0,0.7,0,1.3,0.2,1.9c2.7-2.4,4-4.5,4-6.5c0-0.9-0.3-1.7-1-2.4C22.4,134.3,22.3,134.3,22.1,134.3z
		 M24.9,156.2c0-1.6-1.2-3.3-2.9-3.3c-0.1,0-0.2,0-0.5,0l1.4,6.6C24.2,158.6,24.9,157.5,24.9,156.2z"/>
</g>
<g>
	<path d="M29.5,142.8h0.6L30,149c0.4-0.7,1-1,1.8-1c1.2,0,2.2,0.8,2.2,1.9c0,0.8-0.5,1.8-1.7,2.7l-2.8,2.1V142.8z M30.1,149.7
		c-0.1,0.8-0.1,1.4-0.1,1.9c0,1,0,1.6,0.1,2c1-0.7,2.4-2.6,2.4-3.7c0-0.6-0.5-1.1-1.1-1.1C30.8,148.8,30.4,149.1,30.1,149.7z"/>
</g>
<g>
	<path d="M35.1,135.3h0.6l-0.1,6.2c0.4-0.7,1-1,1.8-1c1.2,0,2.2,0.8,2.2,1.9c0,0.8-0.5,1.8-1.7,2.7l-2.8,2.1V135.3z M35.7,142.2
		c-0.1,0.8-0.1,1.4-0.1,1.9c0,1,0,1.6,0.1,2c1-0.7,2.4-2.6,2.4-3.7c0-0.6-0.5-1.1-1.1-1.1C36.4,141.4,36,141.7,35.7,142.2z"/>
</g>
<g>
	<path d="M40.7,145.3h0.6l-0.1,6.2c0.4-0.7,1-1,1.8-1c1.2,0,2.2,0.8,2.2,1.9c0,0.8-0.5,1.8-1.7,2.7l-2.8,2.1V145.3z M41.3,152.2
		c-0.1,0.8-0.1,1.4-0.1,1.9c0,1,0,1.6,0.1,2c1-0.7,2.4-2.6,2.4-3.7c0-0.6-0.5-1.1-1.1-1.1C42,151.3,41.6,151.6,41.3,152.2z"/>
</g>
<g>
	<path d="M46.3,137.8h0.6l-0.1,6.2c0.4-0.7,1-1,1.8-1c1.2,0,2.2,0.8,2.2,1.9c0,0.8-0.5,1.8-1.7,2.7l-2.8,2.1V137.8z M46.9,144.7
		c-0.1,0.8-0.1,1.4-0.1,1.9c0,1,0,1.6,0.1,2c1-0.7,2.4-2.6,2.4-3.7c0-0.6-0.5-1.1-1.1-1.1C47.6,143.9,47.2,144.2,46.9,144.7z"/>
</g>
<polygon fill-rule="evenodd" clip-rule="evenodd" points="59.5,162.2 112.5,167.2 112.5,164.7 59.5,159.8 "/>
<polygon fill-rule="evenodd" clip-rule="evenodd" points="59.5,166 112.5,170.9 112.5,168.4 59.5,163.5 "/>
<polygon fill-rule="evenodd" clip-rule="evenodd" points="130.1,162.2 183.2,157.3 183.2,154.8 130.1,159.8 "/>
<polygon fill-rule="evenodd" clip-rule="evenodd" points="130.1,166 183.2,161 183.2,158.5 130.1,163.5 "/>
<polygon fill-rule="evenodd" clip-rule="evenodd" points="200.8,153.6 254,152.3 254,149.8 200.8,151.1 "/>
<polygon fill-rule="evenodd" clip-rule="evenodd" points="200.8,157.3 254,156 254,153.6 200.8,154.8 "/>
<polygon fill-rule="evenodd" clip-rule="evenodd" points="271.7,157.3 324.7,162.2 324.7,159.8 271.7,154.8 "/>
<polygon fill-rule="evenodd" clip-rule="evenodd" points="271.7,161 324.7,166 324.7,163.5 271.7,158.5 "/>
<polygon fill-rule="evenodd" clip-rule="evenodd" points="356.3,142.4 409.3,147.4 409.3,144.9 356.3,139.9 "/>
<polygon fill-rule="evenodd" clip-rule="evenodd" points="356.3,138.7 409.3,143.6 409.3,141.2 356.3,136.2 "/>
<polygon fill-rule="evenodd" clip-rule="evenodd" points="427,152.3 480,157.3 480,154.8 427,149.8 "/>
<polygon fill-rule="evenodd" clip-rule="evenodd" points="427,148.6 480,153.6 480,151.1 427,146.1 "/>
<rect x="8.5" y="207.9" width="544.4" height="0.5"/>
<rect x="8.5" y="202.9" width="544.4" height="0.5"/>
<rect x="8.5" y="198" width="544.4" height="0.5"/>
<rect x="8.5" y="193" width="544.4" height="0.5"/>
<rect x="8.5" y="188.1" width="544.4" height="0.5"/>
<g>
	<path d="M15.7,202.5c2.9-2.6,4.7-6.1,4.7-9.2c0-2.5-1.4-4.4-3.7-4.4c-1.6,0-3.4,1.3-3.4,2.7c0,0.2,0,0.3,0.1,0.3
		c-0.1,0,0.6-0.6,1.4-0.6c0.9,0,1.5,0.8,1.5,1.7c0,1.2-0.9,2.2-2.1,2.2c-1.2,0-2.1-1.3-2.1-2.8c0-2.3,2.3-4.1,4.8-4.1
		c4.7,0,5.9,3.2,5.9,5.8c0,1.6-0.4,2.9-2,5.3c-1.9,3.1-6.4,5.3-8.1,5.3c-0.4,0-0.6-0.2-0.6-0.5C13.8,203.7,14.9,203.2,15.7,202.5z
		 M25.7,189.8c0.6,0,1,0.4,1,1s-0.4,1-1,1s-1-0.4-1-1S25.1,189.8,25.7,189.8z M25.7,194.7c0.6,0,1,0.4,1,1s-0.4,1-1,1s-1-0.4-1-1
		S25.1,194.7,25.7,194.7z"/>
</g>
<g>
	<path d="M29.5,194.9h0.6l-0.1,6.2c0.4-0.7,1-1,1.8-1c1.2,0,2.2,0.8,2.2,1.9c0,0.8-0.5,1.8-1.7,2.7l-2.8,2.1V194.9z M30.1,201.8
		c-0.1,0.8-0.1,1.4-0.1,1.9c0,1,0,1.6,0.1,2c1-0.7,2.4-2.6,2.4-3.7c0-0.6-0.5-1.1-1.1-1.1C30.8,200.9,30.4,201.2,30.1,201.8z"/>
</g>
<g>
	<path d="M35.1,187.4h0.6l-0.1,6.2c0.4-0.7,1-1,1.8-1c1.2,0,2.2,0.8,2.2,1.9c0,0.8-0.5,1.8-1.7,2.7l-2.8,2.1V187.4z M35.7,194.3
		c-0.1,0.8-0.1,1.4-0.1,1.9c0,1,0,1.6,0.1,2c1-0.7,2.4-2.6,2.4-3.7c0-0.6-0.5-1.1-1.1-1.1C36.4,193.5,36,193.8,35.7,194.3z"/>
</g>
<g>
	<path d="M40.7,197.3h0.6l-0.1,6.2c0.4-0.7,1-1,1.8-1c1.2,0,2.2,0.8,2.2,1.9c0,0.8-0.5,1.8-1.7,2.7l-2.8,2.1V197.3z M41.3,204.2
		c-0.1,0.8-0.1,1.4-0.1,1.9c0,1,0,1.6,0.1,2c1-0.7,2.4-2.6,2.4-3.7c0-0.6-0.5-1.1-1.1-1.1C42,203.4,41.6,203.7,41.3,204.2z"/>
</g>
<g>
	<path d="M46.3,189.9h0.6l-0.1,6.2c0.4-0.7,1-1,1.8-1c1.2,0,2.2,0.8,2.2,1.9c0,0.8-0.5,1.8-1.7,2.7l-2.8,2.1V189.9z M46.9,196.8
		c-0.1,0.8-0.1,1.4-0.1,1.9c0,1,0,1.6,0.1,2c1-0.7,2.4-2.6,2.4-3.7c0-0.6-0.5-1.1-1.1-1.1C47.6,196,47.2,196.2,46.9,196.8z"/>
</g>
<polygon fill-rule="evenodd" clip-rule="evenodd" points="59.5,194.5 112.5,199.4 112.5,197 59.5,192 "/>
<polygon fill-rule="evenodd" clip-rule="evenodd" points="59.5,198.2 112.5,203.2 112.5,200.7 59.5,195.7 "/>
<polygon fill-rule="evenodd" clip-rule="evenodd" points="130.1,204.4 183.2,209.4 183.2,206.9 130.1,201.9 "/>
<polygon fill-rule="evenodd" clip-rule="evenodd" points="130.1,208.1 183.2,213.1 183.2,210.6 130.1,205.6 "/>
<polygon fill-rule="evenodd" clip-rule="evenodd" points="207.3,188.3 260.5,189.5 260.5,187 207.3,185.8 "/>
<polygon fill-rule="evenodd" clip-rule="evenodd" points="207.3,184.6 260.5,185.8 260.5,183.3 207.3,182.1 "/>
<polygon fill-rule="evenodd" clip-rule="evenodd" points="271.7,214.3 324.7,209.4 324.7,206.9 271.7,211.8 "/>
<polygon fill-rule="evenodd" clip-rule="evenodd" points="271.7,218 324.7,213.1 324.7,210.6 271.7,215.6 "/>
<polygon fill-rule="evenodd" clip-rule="evenodd" points="349.8,204.4 402.8,205.6 402.8,203.2 349.8,201.9 "/>
<polygon fill-rule="evenodd" clip-rule="evenodd" points="349.8,208.1 402.8,209.4 402.8,206.9 349.8,205.6 "/>
<polygon fill-rule="evenodd" clip-rule="evenodd" points="427,184.6 480,189.5 480,187 427,182.1 "/>
<polygon fill-rule="evenodd" clip-rule="evenodd" points="427,180.8 480,185.8 480,183.3 427,178.4 "/>
<rect x="57.4" y="34.1" width="10.5" height="0.8"/>
<rect x="57.4" y="39.1" width="10.5" height="0.8"/>
<rect x="65.7" y="19.8" width="0.5" height="18.9"/>
<g>
	<path d="M59.3,40.3c0-1.8,2.5-3.5,4.5-3.5c1.3,0,2.3,0.7,2.3,1.7c0,1.7-2.5,3.5-4.6,3.5C60.3,42.1,59.3,41.4,59.3,40.3z"/>
</g>
<rect x="71.9" y="34.1" width="10.5" height="0.8"/>
<rect x="80.2" y="18.2" width="0.5" height="18"/>
<g>
	<path d="M73.7,37.9c0-1.8,2.5-3.5,4.5-3.5c1.3,0,2.3,0.7,2.3,1.7c0,1.7-2.5,3.5-4.6,3.5C74.7,39.6,73.7,38.9,73.7,37.9z"/>
</g>
<rect x="86.3" y="34.1" width="10.5" height="0.8"/>
<rect x="94.6" y="16.5" width="0.5" height="17.2"/>
<g>
	<path d="M88.1,35.4c0-1.8,2.5-3.5,4.5-3.5c1.3,0,2.3,0.7,2.3,1.7c0,1.7-2.5,3.5-4.6,3.5C89.1,37.1,88.1,36.5,88.1,35.4z"/>
</g>
<rect x="109.1" y="14.8" width="0.5" height="16.4"/>
<g>
	<path d="M102.7,32.9c0-1.8,2.5-3.5,4.5-3.5c1.3,0,2.3,0.7,2.3,1.7c0,1.7-2.5,3.5-4.6,3.5C103.7,34.6,102.7,34,102.7,32.9z"/>
</g>
<rect x="123.6" y="9.9" width="0.5" height="18.9"/>
<g>
	<path d="M117.1,30.4c0-1.8,2.5-3.5,4.5-3.5c1.3,0,2.3,0.7,2.3,1.7c0,1.7-2.5,3.5-4.6,3.5C118.1,32.1,117.1,31.5,117.1,30.4z"/>
</g>
<rect x="138" y="8.3" width="0.5" height="18"/>
<g>
	<path d="M131.5,27.9c0-1.8,2.5-3.5,4.5-3.5c1.3,0,2.3,0.7,2.3,1.7c0,1.7-2.5,3.5-4.6,3.5C132.5,29.7,131.5,29,131.5,27.9z"/>
</g>
<rect x="152.4" y="6.6" width="0.5" height="17.2"/>
<g>
	<path d="M146,25.4c0-1.8,2.5-3.5,4.5-3.5c1.3,0,2.3,0.7,2.3,1.7c0,1.7-2.5,3.5-4.6,3.5C146.9,27.2,146,26.5,146,25.4z"/>
</g>
<rect x="166.8" y="4.9" width="0.5" height="16.4"/>
<g>
	<path d="M160.4,23c0-1.8,2.5-3.5,4.5-3.5c1.3,0,2.3,0.7,2.3,1.7c0,1.7-2.5,3.5-4.6,3.5C161.3,24.7,160.4,24.1,160.4,23z"/>
</g>
<rect x="174.9" y="20.4" width="0.5" height="14"/>
<g>
	<path d="M174.9,20.5c0-1.8,2.5-3.5,4.5-3.5c1.3,0,2.3,0.7,2.3,1.7c0,1.7-2.5,3.5-4.6,3.5C175.9,22.2,174.9,21.6,174.9,20.5z"/>
</g>
<rect x="189.3" y="17.9" width="0.5" height="14.9"/>
<g>
	<path d="M189.4,18c0-1.8,2.5-3.5,4.5-3.5c1.3,0,2.3,0.7,2.3,1.7c0,1.7-2.5,3.5-4.6,3.5C190.3,19.7,189.4,19.1,189.4,18z"/>
</g>
<rect x="203.7" y="15.5" width="0.5" height="15.7"/>
<g>
	<path d="M203.8,15.5c0-1.8,2.5-3.5,4.5-3.5c1.3,0,2.3,0.7,2.3,1.7c0,1.7-2.5,3.5-4.6,3.5C204.8,17.3,203.8,16.6,203.8,15.5z"/>
</g>
<rect x="218.1" y="13" width="0.5" height="16.4"/>
<g>
	<path d="M218.2,13c0-1.8,2.5-3.5,4.5-3.5c1.3,0,2.3,0.7,2.3,1.7c0,1.7-2.5,3.5-4.6,3.5C219.2,14.8,218.2,14.1,218.2,13z"/>
</g>
<rect x="232.5" y="10.5" width="0.5" height="15.2"/>
<g>
	<path d="M232.6,10.6c0-1.8,2.5-3.5,4.5-3.5c1.3,0,2.3,0.7,2.3,1.7c0,1.7-2.5,3.5-4.6,3.5C233.6,12.3,232.6,11.7,232.6,10.6z"/>
</g>
<rect x="247.1" y="8" width="0.5" height="17.4"/>
<g>
	<path d="M247.2,8.1c0-1.8,2.5-3.5,4.5-3.5c1.3,0,2.3,0.7,2.3,1.7c0,1.7-2.5,3.5-4.6,3.5C248.2,9.8,247.2,9.2,247.2,8.1z"/>
</g>
<rect x="259.7" y="4.4" width="10.5" height="0.8"/>
<rect x="261.5" y="5.5" width="0.5" height="19.4"/>
<g>
	<path d="M261.6,5.6c0-1.8,2.5-3.5,4.5-3.5c1.3,0,2.3,0.7,2.3,1.7c0,1.7-2.5,3.5-4.6,3.5C262.6,7.3,261.6,6.7,261.6,5.6z"/>
</g>
<rect x="275.9" y="8" width="0.5" height="16.4"/>
<g>
	<path d="M276,8.1c0-1.8,2.5-3.5,4.5-3.5c1.3,0,2.3,0.7,2.3,1.7c0,1.7-2.5,3.5-4.6,3.5C277,9.8,276,9.2,276,8.1z"/>
</g>
<rect x="297.8" y="10.5" width="0.5" height="18.9"/>
<g>
	<path d="M297.9,10.6c0-1.8,2.5-3.5,4.5-3.5c1.3,0,2.3,0.7,2.3,1.7c0,1.7-2.5,3.5-4.6,3.5C298.8,12.3,297.9,11.7,297.9,10.6z"/>
</g>
<rect x="312.2" y="13" width="0.5" height="18"/>
<g>
	<path d="M312.3,13c0-1.8,2.5-3.5,4.5-3.5c1.3,0,2.3,0.7,2.3,1.7c0,1.7-2.5,3.5-4.6,3.5C313.3,14.8,312.3,14.1,312.3,13z"/>
</g>
<rect x="326.8" y="15.5" width="0.5" height="17.2"/>
<g>
	<path d="M326.9,15.5c0-1.8,2.5-3.5,4.5-3.5c1.3,0,2.3,0.7,2.3,1.7c0,1.7-2.5,3.5-4.6,3.5C327.8,17.3,326.9,16.6,326.9,15.5z"/>
</g>
<rect x="341.2" y="17.9" width="0.5" height="16.4"/>
<g>
	<path d="M341.3,18c0-1.8,2.5-3.5,4.5-3.5c1.3,0,2.3,0.7,2.3,1.7c0,1.7-2.5,3.5-4.6,3.5C342.2,19.7,341.3,19.1,341.3,18z"/>
</g>
<rect x="355.6" y="20.4" width="0.5" height="17.7"/>
<g>
	<path d="M355.7,20.5c0-1.8,2.5-3.5,4.5-3.5c1.3,0,2.3,0.7,2.3,1.7c0,1.7-2.5,3.5-4.6,3.5C356.7,22.2,355.7,21.6,355.7,20.5z"/>
</g>
<rect x="370" y="22.9" width="0.5" height="15.2"/>
<g>
	<path d="M370.1,23c0-1.8,2.5-3.5,4.5-3.5c1.3,0,2.3,0.7,2.3,1.7c0,1.7-2.5,3.5-4.6,3.5C371.1,24.7,370.1,24.1,370.1,23z"/>
</g>
<rect x="384.4" y="20.4" width="0.5" height="17.7"/>
<g>
	<path d="M384.5,20.5c0-1.8,2.5-3.5,4.5-3.5c1.3,0,2.3,0.7,2.3,1.7c0,1.7-2.5,3.5-4.6,3.5C385.5,22.2,384.5,21.6,384.5,20.5z"/>
</g>
<rect x="399" y="17.9" width="0.5" height="20.2"/>
<g>
	<path d="M399.1,18c0-1.8,2.5-3.5,4.5-3.5c1.3,0,2.3,0.7,2.3,1.7c0,1.7-2.5,3.5-4.6,3.5C400.1,19.7,399.1,19.1,399.1,18z"/>
</g>
<rect x="425.4" y="15.5" width="0.5" height="14"/>
<g>
	<path d="M425.4,15.5c0-1.8,2.5-3.5,4.5-3.5c1.3,0,2.3,0.7,2.3,1.7c0,1.7-2.5,3.5-4.6,3.5C426.4,17.3,425.4,16.6,425.4,15.5z"/>
</g>
<rect x="439.8" y="13" width="0.5" height="14.9"/>
<g>
	<path d="M439.9,13c0-1.8,2.5-3.5,4.5-3.5c1.3,0,2.3,0.7,2.3,1.7c0,1.7-2.5,3.5-4.6,3.5C440.8,14.8,439.9,14.1,439.9,13z"/>
</g>
<rect x="454.2" y="10.5" width="0.5" height="15.7"/>
<g>
	<path d="M454.3,10.6c0-1.8,2.5-3.5,4.5-3.5c1.3,0,2.3,0.7,2.3,1.7c0,1.7-2.5,3.5-4.6,3.5C455.3,12.3,454.3,11.7,454.3,10.6z"/>
</g>
<rect x="468.6" y="8" width="0.5" height="16.4"/>
<g>
	<path d="M468.7,8.1c0-1.8,2.5-3.5,4.5-3.5c1.3,0,2.3,0.7,2.3,1.7c0,1.7-2.5,3.5-4.6,3.5C469.7,9.8,468.7,9.2,468.7,8.1z"/>
</g>
<rect x="481.3" y="4.4" width="10.5" height="0.8"/>
<rect x="483" y="5.5" width="0.5" height="18.9"/>
<g>
	<path d="M483.1,5.6c0-1.8,2.5-3.5,4.5-3.5c1.3,0,2.3,0.7,2.3,1.7c0,1.7-2.5,3.5-4.6,3.5C484.1,7.3,483.1,6.7,483.1,5.6z"/>
</g>
<rect x="497.6" y="8" width="0.5" height="18"/>
<g>
	<path d="M497.7,8.1c0-1.8,2.5-3.5,4.5-3.5c1.3,0,2.3,0.7,2.3,1.7c0,1.7-2.5,3.5-4.6,3.5C498.7,9.8,497.7,9.2,497.7,8.1z"/>
</g>
<rect x="512" y="10.5" width="0.5" height="17.2"/>
<g>
	<path d="M512.1,10.6c0-1.8,2.5-3.5,4.5-3.5c1.3,0,2.3,0.7,2.3,1.7c0,1.7-2.5,3.5-4.6,3.5C513.1,12.3,512.1,11.7,512.1,10.6z"/>
</g>
<rect x="526.4" y="13" width="0.5" height="16.4"/>
<g>
	<path d="M526.5,13c0-1.8,2.5-3.5,4.5-3.5c1.3,0,2.3,0.7,2.3,1.7c0,1.7-2.5,3.5-4.6,3.5C527.5,14.8,526.5,14.1,526.5,13z"/>
</g>
<rect x="65.7" y="57" width="0.5" height="16.4"/>
<g>
	<path d="M59.3,75.1c0-1.8,2.5-3.5,4.5-3.5c1.3,0,2.3,0.7,2.3,1.7c0,1.7-2.5,3.5-4.6,3.5C60.3,76.8,59.3,76.1,59.3,75.1z"/>
</g>
<rect x="80.2" y="55.4" width="0.5" height="15.5"/>
<g>
	<path d="M73.7,72.6c0-1.8,2.5-3.5,4.5-3.5c1.3,0,2.3,0.7,2.3,1.7c0,1.7-2.5,3.5-4.6,3.5C74.7,74.3,73.7,73.7,73.7,72.6z"/>
</g>
<rect x="94.6" y="53.7" width="0.5" height="14.7"/>
<g>
	<path d="M88.1,70.1c0-1.8,2.5-3.5,4.5-3.5c1.3,0,2.3,0.7,2.3,1.7c0,1.7-2.5,3.5-4.6,3.5C89.1,71.8,88.1,71.2,88.1,70.1z"/>
</g>
<rect x="109.1" y="52" width="0.5" height="14"/>
<g>
	<path d="M102.7,67.6c0-1.8,2.5-3.5,4.5-3.5c1.3,0,2.3,0.7,2.3,1.7c0,1.7-2.5,3.5-4.6,3.5C103.7,69.3,102.7,68.7,102.7,67.6z"/>
</g>
<rect x="117" y="65.1" width="0.5" height="16.4"/>
<g>
	<path d="M117.1,65.1c0-1.8,2.5-3.5,4.5-3.5c1.3,0,2.3,0.7,2.3,1.7c0,1.7-2.5,3.5-4.6,3.5C118.1,66.9,117.1,66.2,117.1,65.1z"/>
</g>
<rect x="131.5" y="62.6" width="0.5" height="17.4"/>
<g>
	<path d="M131.5,62.7c0-1.8,2.5-3.5,4.5-3.5c1.3,0,2.3,0.7,2.3,1.7c0,1.7-2.5,3.5-4.6,3.5C132.5,64.4,131.5,63.7,131.5,62.7z"/>
</g>
<rect x="145.9" y="60.1" width="0.5" height="18.1"/>
<g>
	<path d="M146,60.2c0-1.8,2.5-3.5,4.5-3.5c1.3,0,2.3,0.7,2.3,1.7c0,1.7-2.5,3.5-4.6,3.5C146.9,61.9,146,61.3,146,60.2z"/>
</g>
<rect x="160.3" y="57.6" width="0.5" height="18.9"/>
<g>
	<path d="M160.4,57.7c0-1.8,2.5-3.5,4.5-3.5c1.3,0,2.3,0.7,2.3,1.7c0,1.7-2.5,3.5-4.6,3.5C161.3,59.4,160.4,58.8,160.4,57.7z"/>
</g>
<rect x="174.9" y="60.1" width="0.5" height="16.4"/>
<g>
	<path d="M174.9,60.2c0-1.8,2.5-3.5,4.5-3.5c1.3,0,2.3,0.7,2.3,1.7c0,1.7-2.5,3.5-4.6,3.5C175.9,61.9,174.9,61.3,174.9,60.2z"/>
</g>
<rect x="189.3" y="62.6" width="0.5" height="15.5"/>
<g>
	<path d="M189.4,62.7c0-1.8,2.5-3.5,4.5-3.5c1.3,0,2.3,0.7,2.3,1.7c0,1.7-2.5,3.5-4.6,3.5C190.3,64.4,189.4,63.7,189.4,62.7z"/>
</g>
<rect x="203.7" y="65.1" width="0.5" height="14.7"/>
<g>
	<path d="M203.8,65.1c0-1.8,2.5-3.5,4.5-3.5c1.3,0,2.3,0.7,2.3,1.7c0,1.7-2.5,3.5-4.6,3.5C204.8,66.9,203.8,66.2,203.8,65.1z"/>
</g>
<rect x="218.1" y="67.5" width="0.5" height="14"/>
<g>
	<path d="M218.2,67.6c0-1.8,2.5-3.5,4.5-3.5c1.3,0,2.3,0.7,2.3,1.7c0,1.7-2.5,3.5-4.6,3.5C219.2,69.3,218.2,68.7,218.2,67.6z"/>
</g>
<rect x="239" y="50.8" width="0.5" height="17.7"/>
<g>
	<path d="M232.6,70.1c0-1.8,2.5-3.5,4.5-3.5c1.3,0,2.3,0.7,2.3,1.7c0,1.7-2.5,3.5-4.6,3.5C233.6,71.8,232.6,71.2,232.6,70.1z"/>
</g>
<rect x="253.6" y="51.1" width="0.5" height="19.8"/>
<g>
	<path d="M247.2,72.6c0-1.8,2.5-3.5,4.5-3.5c1.3,0,2.3,0.7,2.3,1.7c0,1.7-2.5,3.5-4.6,3.5C248.2,74.3,247.2,73.7,247.2,72.6z"/>
</g>
<rect x="268" y="51.6" width="0.5" height="21.9"/>
<g>
	<path d="M261.6,75.1c0-1.8,2.5-3.5,4.5-3.5c1.3,0,2.3,0.7,2.3,1.7c0,1.7-2.5,3.5-4.6,3.5C262.6,76.8,261.6,76.1,261.6,75.1z"/>
</g>
<rect x="282.4" y="52" width="0.5" height="18.9"/>
<g>
	<path d="M276,72.6c0-1.8,2.5-3.5,4.5-3.5c1.3,0,2.3,0.7,2.3,1.7c0,1.7-2.5,3.5-4.6,3.5C277,74.3,276,73.7,276,72.6z"/>
</g>
<rect x="297.8" y="70" width="0.5" height="16.4"/>
<g>
	<path d="M297.9,70.1c0-1.8,2.5-3.5,4.5-3.5c1.3,0,2.3,0.7,2.3,1.7c0,1.7-2.5,3.5-4.6,3.5C298.8,71.8,297.9,71.2,297.9,70.1z"/>
</g>
<rect x="312.2" y="67.5" width="0.5" height="17.4"/>
<g>
	<path d="M312.3,67.6c0-1.8,2.5-3.5,4.5-3.5c1.3,0,2.3,0.7,2.3,1.7c0,1.7-2.5,3.5-4.6,3.5C313.3,69.3,312.3,68.7,312.3,67.6z"/>
</g>
<rect x="326.8" y="65.1" width="0.5" height="18.1"/>
<g>
	<path d="M326.9,65.1c0-1.8,2.5-3.5,4.5-3.5c1.3,0,2.3,0.7,2.3,1.7c0,1.7-2.5,3.5-4.6,3.5C327.8,66.9,326.9,66.2,326.9,65.1z"/>
</g>
<rect x="341.2" y="62.6" width="0.5" height="18.9"/>
<g>
	<path d="M341.3,62.7c0-1.8,2.5-3.5,4.5-3.5c1.3,0,2.3,0.7,2.3,1.7c0,1.7-2.5,3.5-4.6,3.5C342.2,64.4,341.3,63.7,341.3,62.7z"/>
</g>
<rect x="355.6" y="60.1" width="0.5" height="16.4"/>
<g>
	<path d="M355.7,60.2c0-1.8,2.5-3.5,4.5-3.5c1.3,0,2.3,0.7,2.3,1.7c0,1.7-2.5,3.5-4.6,3.5C356.7,61.9,355.7,61.3,355.7,60.2z"/>
</g>
<rect x="370" y="57.6" width="0.5" height="17.4"/>
<g>
	<path d="M370.1,57.7c0-1.8,2.5-3.5,4.5-3.5c1.3,0,2.3,0.7,2.3,1.7c0,1.7-2.5,3.5-4.6,3.5C371.1,59.4,370.1,58.8,370.1,57.7z"/>
</g>
<rect x="384.4" y="55.1" width="0.5" height="18.1"/>
<g>
	<path d="M384.5,55.2c0-1.8,2.5-3.5,4.5-3.5c1.3,0,2.3,0.7,2.3,1.7c0,1.7-2.5,3.5-4.6,3.5C385.5,56.9,384.5,56.3,384.5,55.2z"/>
</g>
<rect x="397.2" y="51.5" width="10.5" height="0.8"/>
<rect x="399" y="52.7" width="0.5" height="18.9"/>
<g>
	<path d="M399.1,52.7c0-1.8,2.5-3.5,4.5-3.5c1.3,0,2.3,0.7,2.3,1.7c0,1.7-2.5,3.5-4.6,3.5C400.1,54.5,399.1,53.8,399.1,52.7z"/>
</g>
<rect x="431.9" y="62" width="0.5" height="16.4"/>
<g>
	<path d="M425.4,80c0-1.8,2.5-3.5,4.5-3.5c1.3,0,2.3,0.7,2.3,1.7c0,1.7-2.5,3.5-4.6,3.5C426.4,81.7,425.4,81.1,425.4,80z"/>
</g>
<rect x="446.3" y="60.4" width="0.5" height="15.5"/>
<g>
	<path d="M439.9,77.5c0-1.8,2.5-3.5,4.5-3.5c1.3,0,2.3,0.7,2.3,1.7c0,1.7-2.5,3.5-4.6,3.5C440.8,79.3,439.9,78.6,439.9,77.5z"/>
</g>
<rect x="460.7" y="58.7" width="0.5" height="14.7"/>
<g>
	<path d="M454.3,75.1c0-1.8,2.5-3.5,4.5-3.5c1.3,0,2.3,0.7,2.3,1.7c0,1.7-2.5,3.5-4.6,3.5C455.3,76.8,454.3,76.1,454.3,75.1z"/>
</g>
<rect x="475.1" y="57" width="0.5" height="14"/>
<g>
	<path d="M468.7,72.6c0-1.8,2.5-3.5,4.5-3.5c1.3,0,2.3,0.7,2.3,1.7c0,1.7-2.5,3.5-4.6,3.5C469.7,74.3,468.7,73.7,468.7,72.6z"/>
</g>
<rect x="489.5" y="52" width="0.5" height="16.4"/>
<g>
	<path d="M483.1,70.1c0-1.8,2.5-3.5,4.5-3.5c1.3,0,2.3,0.7,2.3,1.7c0,1.7-2.5,3.5-4.6,3.5C484.1,71.8,483.1,71.2,483.1,70.1z"/>
</g>
<rect x="504.1" y="53.6" width="0.5" height="17.4"/>
<g>
	<path d="M497.7,72.6c0-1.8,2.5-3.5,4.5-3.5c1.3,0,2.3,0.7,2.3,1.7c0,1.7-2.5,3.5-4.6,3.5C498.7,74.3,497.7,73.7,497.7,72.6z"/>
</g>
<rect x="518.5" y="55.3" width="0.5" height="18.1"/>
<g>
	<path d="M512.1,75.1c0-1.8,2.5-3.5,4.5-3.5c1.3,0,2.3,0.7,2.3,1.7c0,1.7-2.5,3.5-4.6,3.5C513.1,76.8,512.1,76.1,512.1,75.1z"/>
</g>
<rect x="533" y="57" width="0.5" height="18.9"/>
<g>
	<path d="M526.5,77.5c0-1.8,2.5-3.5,4.5-3.5c1.3,0,2.3,0.7,2.3,1.7c0,1.7-2.5,3.5-4.6,3.5C527.5,79.3,526.5,78.6,526.5,77.5z"/>
</g>
<rect x="59.2" y="146.9" width="0.5" height="18.9"/>
<g>
	<path d="M59.3,147c0-1.8,2.5-3.5,4.5-3.5c1.3,0,2.3,0.7,2.3,1.7c0,1.7-2.5,3.5-4.6,3.5C60.3,148.7,59.3,148.1,59.3,147z"/>
</g>
<rect x="76.9" y="149.4" width="0.5" height="18"/>
<g>
	<path d="M77,149.5c0-1.8,2.5-3.5,4.5-3.5c1.3,0,2.3,0.7,2.3,1.7c0,1.7-2.5,3.5-4.6,3.5C77.9,151.2,77,150.5,77,149.5z"/>
</g>
<rect x="94.6" y="151.9" width="0.5" height="17.2"/>
<g>
	<path d="M94.6,151.9c0-1.8,2.5-3.5,4.5-3.5c1.3,0,2.3,0.7,2.3,1.7c0,1.7-2.5,3.5-4.6,3.5C95.6,153.7,94.6,153,94.6,151.9z"/>
</g>
<rect x="112.2" y="154.3" width="0.5" height="16.4"/>
<g>
	<path d="M112.3,154.4c0-1.8,2.5-3.5,4.5-3.5c1.3,0,2.3,0.7,2.3,1.7c0,1.7-2.5,3.5-4.6,3.5C113.3,156.1,112.3,155.5,112.3,154.4z"/>
</g>
<rect x="129.9" y="151.9" width="0.5" height="14"/>
<g>
	<path d="M130,151.9c0-1.8,2.5-3.5,4.5-3.5c1.3,0,2.3,0.7,2.3,1.7c0,1.7-2.5,3.5-4.6,3.5C131,153.7,130,153,130,151.9z"/>
</g>
<rect x="147.6" y="149.4" width="0.5" height="14.9"/>
<g>
	<path d="M147.7,149.5c0-1.8,2.5-3.5,4.5-3.5c1.3,0,2.3,0.7,2.3,1.7c0,1.7-2.5,3.5-4.6,3.5C148.6,151.2,147.7,150.5,147.7,149.5z"/>
</g>
<rect x="165.3" y="146.9" width="0.5" height="15.7"/>
<g>
	<path d="M165.3,147c0-1.8,2.5-3.5,4.5-3.5c1.3,0,2.3,0.7,2.3,1.7c0,1.7-2.5,3.5-4.6,3.5C166.3,148.7,165.3,148.1,165.3,147z"/>
</g>
<rect x="182.9" y="144.4" width="0.5" height="16.4"/>
<g>
	<path d="M183,144.5c0-1.8,2.5-3.5,4.5-3.5c1.3,0,2.3,0.7,2.3,1.7c0,1.7-2.5,3.5-4.6,3.5C184,146.2,183,145.6,183,144.5z"/>
</g>
<rect x="200.6" y="141.9" width="0.5" height="15.2"/>
<g>
	<path d="M200.7,142c0-1.8,2.5-3.5,4.5-3.5c1.3,0,2.3,0.7,2.3,1.7c0,1.7-2.5,3.5-4.6,3.5C201.7,143.7,200.7,143.1,200.7,142z"/>
</g>
<rect x="218.4" y="139.5" width="0.5" height="17.4"/>
<g>
	<path d="M218.5,139.5c0-1.8,2.5-3.5,4.5-3.5c1.3,0,2.3,0.7,2.3,1.7c0,1.7-2.5,3.5-4.6,3.5C219.5,141.3,218.5,140.6,218.5,139.5z"/>
</g>
<rect x="234.3" y="135.8" width="10.5" height="0.8"/>
<rect x="236.1" y="137" width="0.5" height="19.4"/>
<g>
	<path d="M236.2,137.1c0-1.8,2.5-3.5,4.5-3.5c1.3,0,2.3,0.7,2.3,1.7c0,1.7-2.5,3.5-4.6,3.5C237.1,138.8,236.2,138.1,236.2,137.1z"/>
</g>
<rect x="253.8" y="139.5" width="0.5" height="16.4"/>
<g>
	<path d="M253.8,139.5c0-1.8,2.5-3.5,4.5-3.5c1.3,0,2.3,0.7,2.3,1.7c0,1.7-2.5,3.5-4.6,3.5C254.8,141.3,253.8,140.6,253.8,139.5z"/>
</g>
<rect x="271.4" y="141.9" width="0.5" height="18.9"/>
<g>
	<path d="M271.5,142c0-1.8,2.5-3.5,4.5-3.5c1.3,0,2.3,0.7,2.3,1.7c0,1.7-2.5,3.5-4.6,3.5C272.5,143.7,271.5,143.1,271.5,142z"/>
</g>
<rect x="289.1" y="144.4" width="0.5" height="18"/>
<g>
	<path d="M289.2,144.5c0-1.8,2.5-3.5,4.5-3.5c1.3,0,2.3,0.7,2.3,1.7c0,1.7-2.5,3.5-4.6,3.5C290.2,146.2,289.2,145.6,289.2,144.5z"/>
</g>
<rect x="306.8" y="146.9" width="0.5" height="17.2"/>
<g>
	<path d="M306.9,147c0-1.8,2.5-3.5,4.5-3.5c1.3,0,2.3,0.7,2.3,1.7c0,1.7-2.5,3.5-4.6,3.5C307.8,148.7,306.9,148.1,306.9,147z"/>
</g>
<rect x="324.5" y="149.4" width="0.5" height="16.4"/>
<g>
	<path d="M324.5,149.5c0-1.8,2.5-3.5,4.5-3.5c1.3,0,2.3,0.7,2.3,1.7c0,1.7-2.5,3.5-4.6,3.5C325.5,151.2,324.5,150.5,324.5,149.5z"/>
</g>
<rect x="356.1" y="136.4" width="0.5" height="14"/>
<g>
	<path d="M349.6,151.9c0-1.8,2.5-3.5,4.5-3.5c1.3,0,2.3,0.7,2.3,1.7c0,1.7-2.5,3.5-4.6,3.5C350.6,153.7,349.6,153,349.6,151.9z"/>
</g>
<rect x="373.8" y="137.9" width="0.5" height="14.9"/>
<g>
	<path d="M367.3,154.4c0-1.8,2.5-3.5,4.5-3.5c1.3,0,2.3,0.7,2.3,1.7c0,1.7-2.5,3.5-4.6,3.5C368.3,156.1,367.3,155.5,367.3,154.4z"/>
</g>
<rect x="391.4" y="139.6" width="0.5" height="15.7"/>
<g>
	<path d="M385,156.9c0-1.8,2.5-3.5,4.5-3.5c1.3,0,2.3,0.7,2.3,1.7c0,1.7-2.5,3.5-4.6,3.5C386,158.6,385,158,385,156.9z"/>
</g>
<rect x="409.1" y="141.3" width="0.5" height="16.4"/>
<g>
	<path d="M402.7,159.4c0-1.8,2.5-3.5,4.5-3.5c1.3,0,2.3,0.7,2.3,1.7c0,1.7-2.5,3.5-4.6,3.5C403.6,161.1,402.7,160.5,402.7,159.4z"/>
</g>
<rect x="426.8" y="146.3" width="0.5" height="14"/>
<g>
	<path d="M420.3,161.9c0-1.8,2.5-3.5,4.5-3.5c1.3,0,2.3,0.7,2.3,1.7c0,1.7-2.5,3.5-4.6,3.5C421.3,163.6,420.3,162.9,420.3,161.9z"/>
</g>
<rect x="444.4" y="147.8" width="0.5" height="14.9"/>
<g>
	<path d="M438,164.3c0-1.8,2.5-3.5,4.5-3.5c1.3,0,2.3,0.7,2.3,1.7c0,1.7-2.5,3.5-4.6,3.5C439,166.1,438,165.4,438,164.3z"/>
</g>
<rect x="453.8" y="165.6" width="10.5" height="0.8"/>
<rect x="462.1" y="149.5" width="0.5" height="15.7"/>
<g>
	<path d="M455.7,166.8c0-1.8,2.5-3.5,4.5-3.5c1.3,0,2.3,0.7,2.3,1.7c0,1.7-2.5,3.5-4.6,3.5C456.6,168.5,455.7,167.9,455.7,166.8z"/>
</g>
<rect x="471.5" y="165.6" width="10.5" height="0.8"/>
<rect x="479.8" y="151.2" width="0.5" height="16.4"/>
<g>
	<path d="M473.4,169.3c0-1.8,2.5-3.5,4.5-3.5c1.3,0,2.3,0.7,2.3,1.7c0,1.7-2.5,3.5-4.6,3.5C474.3,171,473.4,170.4,473.4,169.3z"/>
</g>
<rect x="489.2" y="165.6" width="10.7" height="0.8"/>
<rect x="489.2" y="170.5" width="10.7" height="0.8"/>
<rect x="497.6" y="151.1" width="0.5" height="19.1"/>
<g>
	<path d="M495.3,168.2c1.6,0,2.7,0.7,2.7,2c0,1.9-2.3,3.4-4.5,3.4c-1.3,0-2.4-0.7-2.4-1.8C491,170,493.3,168.2,495.3,168.2z
		 M491.5,172.1c0,0.6,0.4,0.9,1.1,0.9c1.4,0,4.9-2.1,4.9-3.3c0-0.6-0.4-0.9-1.1-0.9C495.1,168.8,491.5,170.8,491.5,172.1z"/>
</g>
<rect x="57.4" y="182.9" width="10.5" height="0.8"/>
<rect x="59.2" y="181.6" width="0.5" height="16.4"/>
<g>
	<path d="M59.3,181.7c0-1.8,2.5-3.5,4.5-3.5c1.3,0,2.3,0.7,2.3,1.7c0,1.7-2.5,3.5-4.6,3.5C60.3,183.4,59.3,182.8,59.3,181.7z"/>
</g>
<rect x="75.1" y="182.9" width="10.5" height="0.8"/>
<rect x="76.9" y="184.1" width="0.5" height="15.5"/>
<g>
	<path d="M77,184.2c0-1.8,2.5-3.5,4.5-3.5c1.3,0,2.3,0.7,2.3,1.7c0,1.7-2.5,3.5-4.6,3.5C77.9,185.9,77,185.3,77,184.2z"/>
</g>
<rect x="94.6" y="186.6" width="0.5" height="14.7"/>
<g>
	<path d="M94.6,186.7c0-1.8,2.5-3.5,4.5-3.5c1.3,0,2.3,0.7,2.3,1.7c0,1.7-2.5,3.5-4.6,3.5C95.6,188.4,94.6,187.7,94.6,186.7z"/>
</g>
<rect x="112.2" y="189.1" width="0.5" height="14"/>
<g>
	<path d="M112.3,189.1c0-1.8,2.5-3.5,4.5-3.5c1.3,0,2.3,0.7,2.3,1.7c0,1.7-2.5,3.5-4.6,3.5C113.3,190.9,112.3,190.2,112.3,189.1z"/>
</g>
<rect x="129.9" y="191.5" width="0.5" height="16.4"/>
<g>
	<path d="M130,191.6c0-1.8,2.5-3.5,4.5-3.5c1.3,0,2.3,0.7,2.3,1.7c0,1.7-2.5,3.5-4.6,3.5C131,193.3,130,192.7,130,191.6z"/>
</g>
<rect x="147.6" y="194" width="0.5" height="15.5"/>
<g>
	<path d="M147.7,194.1c0-1.8,2.5-3.5,4.5-3.5c1.3,0,2.3,0.7,2.3,1.7c0,1.7-2.5,3.5-4.6,3.5C148.6,195.8,147.7,195.2,147.7,194.1z"/>
</g>
<rect x="165.3" y="196.5" width="0.5" height="14.7"/>
<g>
	<path d="M165.3,196.6c0-1.8,2.5-3.5,4.5-3.5c1.3,0,2.3,0.7,2.3,1.7c0,1.7-2.5,3.5-4.6,3.5C166.3,198.3,165.3,197.7,165.3,196.6z"/>
</g>
<rect x="182.9" y="199" width="0.5" height="14"/>
<g>
	<path d="M183,199.1c0-1.8,2.5-3.5,4.5-3.5c1.3,0,2.3,0.7,2.3,1.7c0,1.7-2.5,3.5-4.6,3.5C184,200.8,183,200.2,183,199.1z"/>
</g>
<rect x="207.1" y="182.2" width="0.5" height="17.7"/>
<g>
	<path d="M200.7,201.5c0-1.8,2.5-3.5,4.5-3.5c1.3,0,2.3,0.7,2.3,1.7c0,1.7-2.5,3.5-4.6,3.5C201.7,203.3,200.7,202.6,200.7,201.5z"/>
</g>
<rect x="224.9" y="182.6" width="0.5" height="19.8"/>
<g>
	<path d="M218.5,204c0-1.8,2.5-3.5,4.5-3.5c1.3,0,2.3,0.7,2.3,1.7c0,1.7-2.5,3.5-4.6,3.5C219.5,205.7,218.5,205.1,218.5,204z"/>
</g>
<rect x="242.6" y="183" width="0.5" height="21.9"/>
<g>
	<path d="M236.2,206.5c0-1.8,2.5-3.5,4.5-3.5c1.3,0,2.3,0.7,2.3,1.7c0,1.7-2.5,3.5-4.6,3.5C237.1,208.2,236.2,207.6,236.2,206.5z"/>
</g>
<rect x="260.3" y="183.5" width="0.5" height="18.9"/>
<g>
	<path d="M253.8,204c0-1.8,2.5-3.5,4.5-3.5c1.3,0,2.3,0.7,2.3,1.7c0,1.7-2.5,3.5-4.6,3.5C254.8,205.7,253.8,205.1,253.8,204z"/>
</g>
<rect x="271.4" y="201.5" width="0.5" height="16.4"/>
<g>
	<path d="M271.5,201.5c0-1.8,2.5-3.5,4.5-3.5c1.3,0,2.3,0.7,2.3,1.7c0,1.7-2.5,3.5-4.6,3.5C272.5,203.3,271.5,202.6,271.5,201.5z"/>
</g>
<rect x="289.1" y="199" width="0.5" height="17.4"/>
<g>
	<path d="M289.2,199.1c0-1.8,2.5-3.5,4.5-3.5c1.3,0,2.3,0.7,2.3,1.7c0,1.7-2.5,3.5-4.6,3.5C290.2,200.8,289.2,200.2,289.2,199.1z"/>
</g>
<rect x="306.8" y="196.5" width="0.5" height="18.1"/>
<g>
	<path d="M306.9,196.6c0-1.8,2.5-3.5,4.5-3.5c1.3,0,2.3,0.7,2.3,1.7c0,1.7-2.5,3.5-4.6,3.5C307.8,198.3,306.9,197.7,306.9,196.6z"/>
</g>
<rect x="324.5" y="194" width="0.5" height="18.9"/>
<g>
	<path d="M324.5,194.1c0-1.8,2.5-3.5,4.5-3.5c1.3,0,2.3,0.7,2.3,1.7c0,1.7-2.5,3.5-4.6,3.5C325.5,195.8,324.5,195.2,324.5,194.1z"/>
</g>
<rect x="349.6" y="191.5" width="0.5" height="16.4"/>
<g>
	<path d="M349.6,191.6c0-1.8,2.5-3.5,4.5-3.5c1.3,0,2.3,0.7,2.3,1.7c0,1.7-2.5,3.5-4.6,3.5C350.6,193.3,349.6,192.7,349.6,191.6z"/>
</g>
<rect x="367.2" y="189.1" width="0.5" height="19.2"/>
<g>
	<path d="M367.3,189.1c0-1.8,2.5-3.5,4.5-3.5c1.3,0,2.3,0.7,2.3,1.7c0,1.7-2.5,3.5-4.6,3.5C368.3,190.9,367.3,190.2,367.3,189.1z"/>
</g>
<rect x="384.9" y="191.5" width="0.5" height="17.2"/>
<g>
	<path d="M385,191.6c0-1.8,2.5-3.5,4.5-3.5c1.3,0,2.3,0.7,2.3,1.7c0,1.7-2.5,3.5-4.6,3.5C386,193.3,385,192.7,385,191.6z"/>
</g>
<rect x="402.6" y="194" width="0.5" height="15.2"/>
<g>
	<path d="M402.7,194.1c0-1.8,2.5-3.5,4.5-3.5c1.3,0,2.3,0.7,2.3,1.7c0,1.7-2.5,3.5-4.6,3.5C403.6,195.8,402.7,195.2,402.7,194.1z"/>
</g>
<rect x="426.8" y="178.5" width="0.5" height="16.4"/>
<g>
	<path d="M420.3,196.6c0-1.8,2.5-3.5,4.5-3.5c1.3,0,2.3,0.7,2.3,1.7c0,1.7-2.5,3.5-4.6,3.5C421.3,198.3,420.3,197.7,420.3,196.6z"/>
</g>
<rect x="444.4" y="180.1" width="0.5" height="17.4"/>
<g>
	<path d="M438,199.1c0-1.8,2.5-3.5,4.5-3.5c1.3,0,2.3,0.7,2.3,1.7c0,1.7-2.5,3.5-4.6,3.5C439,200.8,438,200.2,438,199.1z"/>
</g>
<rect x="462.1" y="181.8" width="0.5" height="18.1"/>
<g>
	<path d="M455.7,201.5c0-1.8,2.5-3.5,4.5-3.5c1.3,0,2.3,0.7,2.3,1.7c0,1.7-2.5,3.5-4.6,3.5C456.6,203.3,455.7,202.6,455.7,201.5z"/>
</g>
<rect x="479.8" y="183.5" width="0.5" height="18.9"/>
<g>
	<path d="M473.4,204c0-1.8,2.5-3.5,4.5-3.5c1.3,0,2.3,0.7,2.3,1.7c0,1.7-2.5,3.5-4.6,3.5C474.3,205.7,473.4,205.1,473.4,204z"/>
</g>
<rect x="497.6" y="188.3" width="0.5" height="16.6"/>
<g>
	<path d="M495.3,202.9c1.6,0,2.7,0.7,2.7,2c0,1.9-2.3,3.4-4.5,3.4c-1.3,0-2.4-0.7-2.4-1.8C491,204.7,493.3,202.9,495.3,202.9z
		 M491.5,206.8c0,0.6,0.4,0.9,1.1,0.9c1.4,0,4.9-2.1,4.9-3.3c0-0.6-0.4-0.9-1.1-0.9C495.1,203.5,491.5,205.6,491.5,206.8z"/>
</g>
</svg>
