<?xml version="1.0" encoding="utf-8"?>

<!--
	ScaleBook
	Copyright (c) Leland Jansen 2015. All rights reserved.
-->

<!DOCTYPE svg PUBLIC "-//W3C//DTD SVG 1.1//EN" "http://www.w3.org/Graphics/SVG/1.1/DTD/svg11.dtd">
<svg version="1.1" id="Layer_1" xmlns="http://www.w3.org/2000/svg" xmlns:xlink="http://www.w3.org/1999/xlink" x="0px" y="0px"
	 viewBox="0 0 553 218" enable-background="new 0 0 553 218" xml:space="preserve">
<rect x="8.4" y="9.7" width="0.8" height="67"/>
<g>
	<path d="M7.4,10.4c-1.9,1.1-3.6,5.8-3.6,9.4c0,2.3,1.4,9.9,1.4,12.3c0,5-1.5,8.6-4.6,11.1c3,2.4,4.6,6.1,4.6,11
		c0,2.3-1.4,9.9-1.4,12.3c0,3.8,1.7,8.4,3.6,9.5v0.7c-3.5-2.3-5.8-8.2-5.8-13.1c0-2.1,1.7-9.4,1.7-11.5c0-3.8-1-6.6-2.9-8.2
		C0.1,43.6,0,43.4,0,43.2s0.1-0.4,0.5-0.7c1.9-1.7,2.9-4.2,2.9-7.6c0-2.1-1.7-10-1.7-12.2c0-5.2,2.1-10.4,5.8-13.1V10.4z"/>
</g>
<rect x="8.4" y="141.2" width="0.8" height="67"/>
<g>
	<path d="M7.4,141.8c-1.9,1.1-3.6,5.8-3.6,9.4c0,2.3,1.4,9.9,1.4,12.3c0,5-1.5,8.6-4.6,11.1c3,2.4,4.6,6.1,4.6,11
		c0,2.3-1.4,9.9-1.4,12.3c0,3.8,1.7,8.4,3.6,9.5v0.7c-3.5-2.3-5.8-8.2-5.8-13.1c0-2.1,1.7-9.4,1.7-11.5c0-3.8-1-6.6-2.9-8.2
		C0.1,175,0,174.8,0,174.6s0.1-0.4,0.5-0.7c1.9-1.7,2.9-4.2,2.9-7.6c0-2.1-1.7-10-1.7-12.2c0-5.2,2.1-10.4,5.8-13.1V141.8z"/>
</g>
<rect x="288" y="9.7" width="0.8" height="67"/>
<rect x="552.2" y="9.7" width="0.8" height="67"/>
<rect x="340" y="141.2" width="0.8" height="67"/>
<rect x="547.8" y="141.2" width="0.8" height="67"/>
<rect x="550.4" y="141.2" width="2.5" height="67"/>
<rect x="8.5" y="29.3" width="544.4" height="0.5"/>
<rect x="8.5" y="24.4" width="544.4" height="0.5"/>
<rect x="8.5" y="19.4" width="544.4" height="0.5"/>
<rect x="8.5" y="14.4" width="544.4" height="0.5"/>
<rect x="8.5" y="9.5" width="544.4" height="0.5"/>
<g>
	<path d="M20.3,29.4c-4.2,0-8.1-3.1-8.1-6.9c0-3.2,2.3-6.7,6.8-10.5c-0.3-1.2-0.4-2.4-0.4-3.6c0-3.5,1.2-6.8,3.2-8.5
		c1.8,2.5,2.7,4.9,2.7,7.1c0,2.9-1.3,5.6-4.3,8.1l0.9,4.2c0.5,0,0.8-0.1,0.8-0.1c2.6,0,4.8,2,4.8,4.7c0,1.9-1.4,3.7-3.6,4.8
		c0-0.1,0.9,3.8,0.9,4.3c0,2.5-2.3,4.2-4.9,4.2c-2,0-3.6-1.3-3.6-3.4c0-1.4,1-2.6,2.4-2.6c1.3,0,2.3,1.3,2.3,2.5
		c0,1.4-1.2,2.3-2.7,2.5c0.6,0.3,1.2,0.5,1.9,0.5c2.1,0,4.1-1.6,4.1-3.6c0-0.2,0-0.4-0.1-0.6l-0.8-3.7
		C21.9,29.3,21.2,29.4,20.3,29.4z M18.1,24.2c0,1,0.5,1.9,1.6,2.5c-1.8-0.3-3-1.4-3-3.1c0-2,1.7-3.7,3.8-4.1l-0.8-4
		C16,18.3,14,21,14,23.6c0,2.9,2.8,5.3,6,5.3c0.9,0,1.7-0.2,2.4-0.5L21,21.6C19.4,21.8,18.1,22.8,18.1,24.2z M22.1,2.8
		c-1.6,0-2.9,3.7-2.9,7c0,0.7,0,1.3,0.2,1.9c2.7-2.4,4-4.5,4-6.5c0-0.9-0.3-1.7-1-2.4C22.4,2.9,22.3,2.8,22.1,2.8z M24.9,24.7
		c0-1.6-1.2-3.3-2.9-3.3c-0.1,0-0.2,0-0.5,0l1.4,6.6C24.2,27.2,24.9,26,24.9,24.7z"/>
</g>
<g>
	<path d="M33.5,2.9v2.8l1-0.3v1.8l-1,0.3V11l1-0.3v1.8l-1,0.3v3.1H33v-3l-1.9,0.6v3h-0.5v-2.8l-1,0.3v-1.8l1-0.3V8.4l-1,0.3V7l1-0.3
		V3.5h0.5v3L33,5.9v-3H33.5z M33,7.7l-1.9,0.6v3.4l1.9-0.6V7.7z"/>
</g>
<g>
	<path d="M39.7,10.3v2.8l1-0.3v1.8l-1,0.3v3.4l1-0.3v1.8l-1,0.3v3.1h-0.5v-3L37.3,21v3h-0.5v-2.8l-1,0.3v-1.8l1-0.3v-3.4l-1,0.3
		v-1.8l1-0.3V11h0.5v3l1.9-0.6v-3H39.7z M39.2,15.1l-1.9,0.6v3.4l1.9-0.6V15.1z"/>
</g>
<g>
	<path d="M45.9,0.4v2.8l1-0.3v1.8l-1,0.3v3.4l1-0.3V10l-1,0.3v3.1h-0.5v-3l-1.9,0.6v3H43v-2.8l-1,0.3V9.7l1-0.3V6l-1,0.3V4.5l1-0.3
		V1h0.5v3l1.9-0.6v-3H45.9z M45.4,5.2l-1.9,0.6v3.4l1.9-0.6V5.2z"/>
</g>
<polygon fill-rule="evenodd" clip-rule="evenodd" points="62.2,25.8 106,20.9 106,18.4 62.2,23.4 "/>
<polygon fill-rule="evenodd" clip-rule="evenodd" points="62.2,22.1 106,17.2 106,14.7 62.2,19.6 "/>
<polygon fill-rule="evenodd" clip-rule="evenodd" points="120.5,15.9 164.2,11 164.2,8.5 120.5,13.4 "/>
<polygon fill-rule="evenodd" clip-rule="evenodd" points="120.5,12.2 164.2,7.2 164.2,4.8 120.5,9.7 "/>
<polygon fill-rule="evenodd" clip-rule="evenodd" points="172.3,30.8 216,25.8 216,23.4 172.3,28.3 "/>
<polygon fill-rule="evenodd" clip-rule="evenodd" points="172.3,34.5 216,29.6 216,27.1 172.3,32 "/>
<polygon fill-rule="evenodd" clip-rule="evenodd" points="230.6,22.1 274.3,20.9 274.3,18.4 230.6,19.6 "/>
<polygon fill-rule="evenodd" clip-rule="evenodd" points="230.6,25.8 274.3,24.6 274.3,22.1 230.6,23.4 "/>
<polygon fill-rule="evenodd" clip-rule="evenodd" points="296.3,25.8 340,30.8 340,28.3 296.3,23.4 "/>
<polygon fill-rule="evenodd" clip-rule="evenodd" points="296.3,29.6 340,34.5 340,32 296.3,27.1 "/>
<rect x="354.6" y="32" fill-rule="evenodd" clip-rule="evenodd" width="43.7" height="2.5"/>
<rect x="354.6" y="35.8" fill-rule="evenodd" clip-rule="evenodd" width="43.7" height="2.5"/>
<polygon fill-rule="evenodd" clip-rule="evenodd" points="424.7,25.8 468.4,20.9 468.4,18.4 424.7,23.4 "/>
<polygon fill-rule="evenodd" clip-rule="evenodd" points="424.7,29.6 468.4,24.6 468.4,22.1 424.7,27.1 "/>
<polygon fill-rule="evenodd" clip-rule="evenodd" points="483,20.9 526.7,25.8 526.7,23.4 483,18.4 "/>
<polygon fill-rule="evenodd" clip-rule="evenodd" points="483,24.6 526.7,29.6 526.7,27.1 483,22.1 "/>
<rect x="8.5" y="76.4" width="544.4" height="0.5"/>
<rect x="8.5" y="71.5" width="544.4" height="0.5"/>
<rect x="8.5" y="66.5" width="544.4" height="0.5"/>
<rect x="8.5" y="61.6" width="544.4" height="0.5"/>
<rect x="8.5" y="56.6" width="544.4" height="0.5"/>
<g>
	<path d="M15.7,71c2.9-2.6,4.7-6.1,4.7-9.2c0-2.5-1.4-4.4-3.7-4.4c-1.6,0-3.4,1.3-3.4,2.7c0,0.2,0,0.3,0.1,0.3
		c-0.1,0,0.6-0.6,1.4-0.6c0.9,0,1.5,0.8,1.5,1.7c0,1.2-0.9,2.2-2.1,2.2c-1.2,0-2.1-1.3-2.1-2.8c0-2.3,2.3-4.1,4.8-4.1
		c4.7,0,5.9,3.2,5.9,5.8c0,1.6-0.4,2.9-2,5.3c-1.9,3.1-6.4,5.3-8.1,5.3c-0.4,0-0.6-0.2-0.6-0.5C13.8,72.3,14.9,71.7,15.7,71z
		 M25.7,58.3c0.6,0,1,0.4,1,1s-0.4,1-1,1s-1-0.4-1-1S25.1,58.3,25.7,58.3z M25.7,63.3c0.6,0,1,0.4,1,1c0,0.6-0.4,1-1,1s-1-0.4-1-1
		C24.7,63.7,25.1,63.3,25.7,63.3z"/>
</g>
<g>
	<path d="M33.5,55v2.8l1-0.3v1.8l-1,0.3V63l1-0.3v1.8l-1,0.3V68H33v-3l-1.9,0.6v3h-0.5v-2.8l-1,0.3v-1.8l1-0.3v-3.4l-1,0.3v-1.8
		l1-0.3v-3.1h0.5v3L33,58v-3H33.5z M33,59.8l-1.9,0.6v3.4l1.9-0.6V59.8z"/>
</g>
<g>
	<path d="M39.7,62.4v2.8l1-0.3v1.8l-1,0.3v3.4l1-0.3V72l-1,0.3v3.1h-0.5v-3l-1.9,0.6v3h-0.5v-2.8l-1,0.3v-1.8l1-0.3V68l-1,0.3v-1.8
		l1-0.3v-3.1h0.5v3l1.9-0.6v-3H39.7z M39.2,67.2l-1.9,0.6v3.4l1.9-0.6V67.2z"/>
</g>
<g>
	<path d="M45.9,52.5v2.8l1-0.3v1.8l-1,0.3v3.4l1-0.3V62l-1,0.3v3.1h-0.5v-3l-1.9,0.6v3H43v-2.8l-1,0.3v-1.8l1-0.3V58l-1,0.3v-1.8
		l1-0.3v-3.1h0.5v3l1.9-0.6v-3H45.9z M45.4,57.3l-1.9,0.6v3.4l1.9-0.6V57.3z"/>
</g>
<polygon fill-rule="evenodd" clip-rule="evenodd" points="62.2,63 106,58.1 106,55.6 62.2,60.6 "/>
<polygon fill-rule="evenodd" clip-rule="evenodd" points="62.2,59.3 106,54.4 106,51.9 62.2,56.8 "/>
<polygon fill-rule="evenodd" clip-rule="evenodd" points="114,77.9 157.7,73 157.7,70.5 114,75.4 "/>
<polygon fill-rule="evenodd" clip-rule="evenodd" points="114,81.6 157.7,76.7 157.7,74.2 114,79.2 "/>
<polygon fill-rule="evenodd" clip-rule="evenodd" points="172.3,73 216,77.9 216,75.4 172.3,70.5 "/>
<polygon fill-rule="evenodd" clip-rule="evenodd" points="172.3,76.7 216,81.6 216,79.2 172.3,74.2 "/>
<polygon fill-rule="evenodd" clip-rule="evenodd" points="237.1,56.8 280.8,58.1 280.8,55.6 237.1,54.4 "/>
<polygon fill-rule="evenodd" clip-rule="evenodd" points="237.1,53.1 280.8,54.4 280.8,51.9 237.1,50.6 "/>
<polygon fill-rule="evenodd" clip-rule="evenodd" points="296.3,82.9 340,77.9 340,75.4 296.3,80.4 "/>
<polygon fill-rule="evenodd" clip-rule="evenodd" points="296.3,86.6 340,81.6 340,79.2 296.3,84.1 "/>
<g>
	<path d="M418.5,75.3c-3.2,0-6.1-2.3-6.1-5.1c0-2.4,1.7-5,5.1-7.9c-0.2-0.9-0.3-1.8-0.3-2.7c0-2.6,0.9-5.1,2.4-6.3
		c1.4,1.9,2,3.7,2,5.3c0,2.2-1,4.2-3.2,6.1l0.7,3.1c0.4,0,0.6,0,0.6,0c2,0,3.6,1.5,3.6,3.5c0,1.4-1.1,2.8-2.7,3.6
		c0-0.1,0.6,2.8,0.6,3.3c0,1.9-1.7,3.2-3.7,3.2c-1.5,0-2.7-1-2.7-2.5c0-1.1,0.7-1.9,1.8-1.9c1,0,1.7,1,1.7,1.9c0,1-0.9,1.7-2,1.8
		c0.4,0.2,0.9,0.3,1.4,0.3c1.6,0,3.1-1.2,3.1-2.7c0-0.1,0-0.3,0-0.5l-0.6-2.8C419.7,75.2,419.2,75.3,418.5,75.3z M416.9,71.4
		c0,0.8,0.4,1.4,1.2,1.9c-1.3-0.2-2.2-1.1-2.2-2.3c0-1.5,1.3-2.8,2.9-3.1l-0.6-3c-2.8,2.1-4.3,4.1-4.3,6.1c0,2.2,2.1,4,4.5,4
		c0.7,0,1.3-0.1,1.8-0.4l-1.1-5.1C417.8,69.6,416.9,70.4,416.9,71.4z M419.9,55.4c-1.2,0-2.2,2.8-2.2,5.3c0,0.5,0,1,0.1,1.4
		c2-1.8,3-3.4,3-4.8c0-0.7-0.3-1.3-0.7-1.8C420.1,55.4,420,55.4,419.9,55.4z M422,71.8c0-1.2-0.9-2.4-2.2-2.4c0,0-0.2,0-0.4,0l1.1,5
		C421.4,73.7,422,72.8,422,71.8z"/>
</g>
<polygon fill-rule="evenodd" clip-rule="evenodd" points="354.6,73 398.3,68 398.3,65.5 354.6,70.5 "/>
<polygon fill-rule="evenodd" clip-rule="evenodd" points="354.6,76.7 398.3,71.7 398.3,69.2 354.6,74.2 "/>
<polygon fill-rule="evenodd" clip-rule="evenodd" points="431.2,68 474.9,63 474.9,60.6 431.2,65.5 "/>
<polygon fill-rule="evenodd" clip-rule="evenodd" points="431.2,64.3 474.9,59.3 474.9,56.8 431.2,61.8 "/>
<g>
	<path d="M541.6,68.7c2.2-2,3.6-4.6,3.6-6.9c0-1.9-1.1-3.3-2.8-3.3c-1.2,0-2.5,1-2.5,2.1c0,0.2,0,0.2,0.1,0.2c0,0,0.4-0.5,1-0.5
		c0.7,0,1.2,0.6,1.2,1.3c0,0.9-0.6,1.7-1.6,1.7s-1.5-1-1.5-2.1c0-1.8,1.7-3.1,3.6-3.1c3.5,0,4.4,2.4,4.4,4.4c0,1.2-0.3,2.2-1.5,4
		c-1.4,2.3-4.8,4-6,4c-0.3,0-0.5-0.1-0.5-0.3C540.1,69.7,541,69.2,541.6,68.7z M549,59.2c0.4,0,0.7,0.3,0.7,0.7
		c0,0.4-0.3,0.7-0.7,0.7c-0.4,0-0.7-0.3-0.7-0.7C548.3,59.5,548.6,59.2,549,59.2z M549,62.9c0.4,0,0.7,0.3,0.7,0.7
		c0,0.4-0.3,0.7-0.7,0.7c-0.4,0-0.7-0.3-0.7-0.7C548.3,63.2,548.6,62.9,549,62.9z"/>
</g>
<polygon fill-rule="evenodd" clip-rule="evenodd" points="489.5,58.1 533.2,63 533.2,60.6 489.5,55.6 "/>
<polygon fill-rule="evenodd" clip-rule="evenodd" points="489.5,54.4 533.2,59.3 533.2,56.8 489.5,51.9 "/>
<rect x="8.5" y="160.8" width="544.4" height="0.5"/>
<rect x="8.5" y="155.8" width="544.4" height="0.5"/>
<rect x="8.5" y="150.9" width="544.4" height="0.5"/>
<rect x="8.5" y="145.9" width="544.4" height="0.5"/>
<rect x="8.5" y="140.9" width="544.4" height="0.5"/>
<g>
	<path d="M20.3,160.8c-4.2,0-8.1-3.1-8.1-6.9c0-3.2,2.3-6.7,6.8-10.5c-0.3-1.2-0.4-2.4-0.4-3.6c0-3.5,1.2-6.8,3.2-8.5
		c1.8,2.5,2.7,4.9,2.7,7.1c0,2.9-1.3,5.6-4.3,8.1l0.9,4.2c0.5,0,0.8-0.1,0.8-0.1c2.6,0,4.8,2,4.8,4.7c0,1.9-1.4,3.7-3.6,4.8
		c0-0.1,0.9,3.8,0.9,4.3c0,2.5-2.3,4.2-4.9,4.2c-2,0-3.6-1.3-3.6-3.4c0-1.4,1-2.6,2.4-2.6c1.3,0,2.3,1.3,2.3,2.5
		c0,1.4-1.2,2.3-2.7,2.5c0.6,0.3,1.2,0.5,1.9,0.5c2.1,0,4.1-1.6,4.1-3.6c0-0.2,0-0.4-0.1-0.6l-0.8-3.7
		C21.9,160.7,21.2,160.8,20.3,160.8z M18.1,155.6c0,1,0.5,1.9,1.6,2.5c-1.8-0.3-3-1.4-3-3.1c0-2,1.7-3.7,3.8-4.1l-0.8-4
		c-3.7,2.8-5.7,5.5-5.7,8.1c0,2.9,2.8,5.3,6,5.3c0.9,0,1.7-0.2,2.4-0.5L21,153C19.4,153.2,18.1,154.3,18.1,155.6z M22.1,134.3
		c-1.6,0-2.9,3.7-2.9,7c0,0.7,0,1.3,0.2,1.9c2.7-2.4,4-4.5,4-6.5c0-0.9-0.3-1.7-1-2.4C22.4,134.3,22.3,134.3,22.1,134.3z
		 M24.9,156.2c0-1.6-1.2-3.3-2.9-3.3c-0.1,0-0.2,0-0.5,0l1.4,6.6C24.2,158.6,24.9,157.5,24.9,156.2z"/>
</g>
<g>
	<path d="M33.5,134.3v2.8l1-0.3v1.8l-1,0.3v3.4l1-0.3v1.8l-1,0.3v3.1H33v-3l-1.9,0.6v3h-0.5v-2.8l-1,0.3v-1.8l1-0.3v-3.4l-1,0.3
		v-1.8l1-0.3V135h0.5v3l1.9-0.6v-3H33.5z M33,139.1l-1.9,0.6v3.4l1.9-0.6V139.1z"/>
</g>
<g>
	<path d="M39.7,141.8v2.8l1-0.3v1.8l-1,0.3v3.4l1-0.3v1.8l-1,0.3v3.1h-0.5v-3l-1.9,0.6v3h-0.5v-2.8l-1,0.3v-1.8l1-0.3v-3.4l-1,0.3
		v-1.8l1-0.3v-3.1h0.5v3l1.9-0.6v-3H39.7z M39.2,146.6l-1.9,0.6v3.4l1.9-0.6V146.6z"/>
</g>
<g>
	<path d="M45.9,131.9v2.8l1-0.3v1.8l-1,0.3v3.4l1-0.3v1.8l-1,0.3v3.1h-0.5v-3l-1.9,0.6v3H43v-2.8l-1,0.3v-1.8l1-0.3v-3.4l-1,0.3
		v-1.8l1-0.3v-3.1h0.5v3l1.9-0.6v-3H45.9z M45.4,136.6l-1.9,0.6v3.4l1.9-0.6V136.6z"/>
</g>
<polygon fill-rule="evenodd" clip-rule="evenodd" points="55.7,162.2 109.2,167.2 109.2,164.7 55.7,159.8 "/>
<polygon fill-rule="evenodd" clip-rule="evenodd" points="55.7,166 109.2,170.9 109.2,168.4 55.7,163.5 "/>
<polygon fill-rule="evenodd" clip-rule="evenodd" points="127,162.2 180.5,157.3 180.5,154.8 127,159.8 "/>
<polygon fill-rule="evenodd" clip-rule="evenodd" points="127,166 180.5,161 180.5,158.5 127,163.5 "/>
<polygon fill-rule="evenodd" clip-rule="evenodd" points="198.4,153.6 251.7,152.3 251.7,149.8 198.4,151.1 "/>
<polygon fill-rule="evenodd" clip-rule="evenodd" points="198.4,157.3 251.7,156 251.7,153.6 198.4,154.8 "/>
<polygon fill-rule="evenodd" clip-rule="evenodd" points="269.5,157.3 323,162.2 323,159.8 269.5,154.8 "/>
<polygon fill-rule="evenodd" clip-rule="evenodd" points="269.5,161 323,166 323,163.5 269.5,158.5 "/>
<polygon fill-rule="evenodd" clip-rule="evenodd" points="354.8,142.4 408.2,147.4 408.2,144.9 354.8,139.9 "/>
<polygon fill-rule="evenodd" clip-rule="evenodd" points="354.8,138.7 408.2,143.6 408.2,141.2 354.8,136.2 "/>
<polygon fill-rule="evenodd" clip-rule="evenodd" points="426.1,152.3 479.6,157.3 479.6,154.8 426.1,149.8 "/>
<polygon fill-rule="evenodd" clip-rule="evenodd" points="426.1,148.6 479.6,153.6 479.6,151.1 426.1,146.1 "/>
<rect x="8.5" y="207.9" width="544.4" height="0.5"/>
<rect x="8.5" y="202.9" width="544.4" height="0.5"/>
<rect x="8.5" y="198" width="544.4" height="0.5"/>
<rect x="8.5" y="193" width="544.4" height="0.5"/>
<rect x="8.5" y="188.1" width="544.4" height="0.5"/>
<g>
	<path d="M15.7,202.5c2.9-2.6,4.7-6.1,4.7-9.2c0-2.5-1.4-4.4-3.7-4.4c-1.6,0-3.4,1.3-3.4,2.7c0,0.2,0,0.3,0.1,0.3
		c-0.1,0,0.6-0.6,1.4-0.6c0.9,0,1.5,0.8,1.5,1.7c0,1.2-0.9,2.2-2.1,2.2c-1.2,0-2.1-1.3-2.1-2.8c0-2.3,2.3-4.1,4.8-4.1
		c4.7,0,5.9,3.2,5.9,5.8c0,1.6-0.4,2.9-2,5.3c-1.9,3.1-6.4,5.3-8.1,5.3c-0.4,0-0.6-0.2-0.6-0.5C13.8,203.7,14.9,203.2,15.7,202.5z
		 M25.7,189.8c0.6,0,1,0.4,1,1s-0.4,1-1,1s-1-0.4-1-1S25.1,189.8,25.7,189.8z M25.7,194.7c0.6,0,1,0.4,1,1s-0.4,1-1,1s-1-0.4-1-1
		S25.1,194.7,25.7,194.7z"/>
</g>
<g>
	<path d="M33.5,186.4v2.8l1-0.3v1.8l-1,0.3v3.4l1-0.3v1.8l-1,0.3v3.1H33v-3l-1.9,0.6v3h-0.5v-2.8l-1,0.3v-1.8l1-0.3V192l-1,0.3v-1.8
		l1-0.3v-3.1h0.5v3l1.9-0.6v-3H33.5z M33,191.2l-1.9,0.6v3.4l1.9-0.6V191.2z"/>
</g>
<g>
	<path d="M39.7,193.9v2.8l1-0.3v1.8l-1,0.3v3.4l1-0.3v1.8l-1,0.3v3.1h-0.5v-3l-1.9,0.6v3h-0.5v-2.8l-1,0.3v-1.8l1-0.3v-3.4l-1,0.3
		v-1.8l1-0.3v-3.1h0.5v3l1.9-0.6v-3H39.7z M39.2,198.6l-1.9,0.6v3.4l1.9-0.6V198.6z"/>
</g>
<g>
	<path d="M45.9,183.9v2.8l1-0.3v1.8l-1,0.3v3.4l1-0.3v1.8l-1,0.3v3.1h-0.5v-3l-1.9,0.6v3H43v-2.8l-1,0.3v-1.8l1-0.3v-3.4l-1,0.3V188
		l1-0.3v-3.1h0.5v3l1.9-0.6v-3H45.9z M45.4,188.7l-1.9,0.6v3.4l1.9-0.6V188.7z"/>
</g>
<polygon fill-rule="evenodd" clip-rule="evenodd" points="55.7,194.5 109.2,199.4 109.2,197 55.7,192 "/>
<polygon fill-rule="evenodd" clip-rule="evenodd" points="55.7,198.2 109.2,203.2 109.2,200.7 55.7,195.7 "/>
<polygon fill-rule="evenodd" clip-rule="evenodd" points="127,204.4 180.5,209.4 180.5,206.9 127,201.9 "/>
<polygon fill-rule="evenodd" clip-rule="evenodd" points="127,208.1 180.5,213.1 180.5,210.6 127,205.6 "/>
<polygon fill-rule="evenodd" clip-rule="evenodd" points="204.9,188.3 258.2,189.5 258.2,187 204.9,185.8 "/>
<polygon fill-rule="evenodd" clip-rule="evenodd" points="204.9,184.6 258.2,185.8 258.2,183.3 204.9,182.1 "/>
<polygon fill-rule="evenodd" clip-rule="evenodd" points="269.5,214.3 323,209.4 323,206.9 269.5,211.8 "/>
<polygon fill-rule="evenodd" clip-rule="evenodd" points="269.5,218 323,213.1 323,210.6 269.5,215.6 "/>
<polygon fill-rule="evenodd" clip-rule="evenodd" points="348.3,204.4 401.7,205.6 401.7,203.2 348.3,201.9 "/>
<polygon fill-rule="evenodd" clip-rule="evenodd" points="348.3,208.1 401.7,209.4 401.7,206.9 348.3,205.6 "/>
<polygon fill-rule="evenodd" clip-rule="evenodd" points="426.1,184.6 479.6,189.5 479.6,187 426.1,182.1 "/>
<polygon fill-rule="evenodd" clip-rule="evenodd" points="426.1,180.8 479.6,185.8 479.6,183.3 426.1,178.4 "/>
<rect x="53.7" y="34.1" width="10.5" height="0.8"/>
<rect x="53.7" y="39.1" width="10.5" height="0.8"/>
<rect x="62" y="19.8" width="0.5" height="18.9"/>
<g>
	<path d="M55.6,40.3c0-1.8,2.5-3.5,4.5-3.5c1.3,0,2.3,0.7,2.3,1.7c0,1.7-2.5,3.5-4.6,3.5C56.6,42.1,55.6,41.4,55.6,40.3z"/>
</g>
<rect x="68.3" y="34.1" width="10.5" height="0.8"/>
<rect x="76.6" y="18.2" width="0.5" height="18"/>
<g>
	<path d="M70.2,37.9c0-1.8,2.5-3.5,4.5-3.5c1.3,0,2.3,0.7,2.3,1.7c0,1.7-2.5,3.5-4.6,3.5C71.1,39.6,70.2,38.9,70.2,37.9z"/>
</g>
<rect x="82.9" y="34.1" width="10.5" height="0.8"/>
<rect x="91.2" y="16.5" width="0.5" height="17.2"/>
<g>
	<path d="M84.7,35.4c0-1.8,2.5-3.5,4.5-3.5c1.3,0,2.3,0.7,2.3,1.7c0,1.7-2.5,3.5-4.6,3.5C85.7,37.1,84.7,36.5,84.7,35.4z"/>
</g>
<rect x="105.7" y="14.8" width="0.5" height="16.4"/>
<g>
	<path d="M99.3,32.9c0-1.8,2.5-3.5,4.5-3.5c1.3,0,2.3,0.7,2.3,1.7c0,1.7-2.5,3.5-4.6,3.5C100.3,34.6,99.3,34,99.3,32.9z"/>
</g>
<rect x="120.3" y="9.9" width="0.5" height="18.9"/>
<g>
	<path d="M113.9,30.4c0-1.8,2.5-3.5,4.5-3.5c1.3,0,2.3,0.7,2.3,1.7c0,1.7-2.5,3.5-4.6,3.5C114.8,32.1,113.9,31.5,113.9,30.4z"/>
</g>
<rect x="134.9" y="8.3" width="0.5" height="18"/>
<g>
	<path d="M128.4,27.9c0-1.8,2.5-3.5,4.5-3.5c1.3,0,2.3,0.7,2.3,1.7c0,1.7-2.5,3.5-4.6,3.5C129.4,29.7,128.4,29,128.4,27.9z"/>
</g>
<rect x="149.4" y="6.6" width="0.5" height="17.2"/>
<g>
	<path d="M143,25.4c0-1.8,2.5-3.5,4.5-3.5c1.3,0,2.3,0.7,2.3,1.7c0,1.7-2.5,3.5-4.6,3.5C144,27.2,143,26.5,143,25.4z"/>
</g>
<rect x="164" y="4.9" width="0.5" height="16.4"/>
<g>
	<path d="M157.6,23c0-1.8,2.5-3.5,4.5-3.5c1.3,0,2.3,0.7,2.3,1.7c0,1.7-2.5,3.5-4.6,3.5C158.6,24.7,157.6,24.1,157.6,23z"/>
</g>
<rect x="172.1" y="20.4" width="0.5" height="14"/>
<g>
	<path d="M172.2,20.5c0-1.8,2.5-3.5,4.5-3.5c1.3,0,2.3,0.7,2.3,1.7c0,1.7-2.5,3.5-4.6,3.5C173.1,22.2,172.2,21.6,172.2,20.5z"/>
</g>
<rect x="186.6" y="17.9" width="0.5" height="14.9"/>
<g>
	<path d="M186.7,18c0-1.8,2.5-3.5,4.5-3.5c1.3,0,2.3,0.7,2.3,1.7c0,1.7-2.5,3.5-4.6,3.5C187.7,19.7,186.7,19.1,186.7,18z"/>
</g>
<rect x="201.2" y="15.5" width="0.5" height="15.7"/>
<g>
	<path d="M201.3,15.5c0-1.8,2.5-3.5,4.5-3.5c1.3,0,2.3,0.7,2.3,1.7c0,1.7-2.5,3.5-4.6,3.5C202.3,17.3,201.3,16.6,201.3,15.5z"/>
</g>
<rect x="215.8" y="13" width="0.5" height="16.4"/>
<g>
	<path d="M215.9,13c0-1.8,2.5-3.5,4.5-3.5c1.3,0,2.3,0.7,2.3,1.7c0,1.7-2.5,3.5-4.6,3.5C216.8,14.8,215.9,14.1,215.9,13z"/>
</g>
<rect x="230.4" y="10.5" width="0.5" height="15.2"/>
<g>
	<path d="M230.4,10.6c0-1.8,2.5-3.5,4.5-3.5c1.3,0,2.3,0.7,2.3,1.7c0,1.7-2.5,3.5-4.6,3.5C231.4,12.3,230.4,11.7,230.4,10.6z"/>
</g>
<rect x="244.9" y="8" width="0.5" height="17.4"/>
<g>
	<path d="M245,8.1c0-1.8,2.5-3.5,4.5-3.5c1.3,0,2.3,0.7,2.3,1.7c0,1.7-2.5,3.5-4.6,3.5C246,9.8,245,9.2,245,8.1z"/>
</g>
<rect x="257.7" y="4.4" width="10.5" height="0.8"/>
<rect x="259.5" y="5.5" width="0.5" height="19.4"/>
<g>
	<path d="M259.6,5.6c0-1.8,2.5-3.5,4.5-3.5c1.3,0,2.3,0.7,2.3,1.7c0,1.7-2.5,3.5-4.6,3.5C260.6,7.3,259.6,6.7,259.6,5.6z"/>
</g>
<rect x="274.1" y="8" width="0.5" height="16.4"/>
<g>
	<path d="M274.2,8.1c0-1.8,2.5-3.5,4.5-3.5c1.3,0,2.3,0.7,2.3,1.7c0,1.7-2.5,3.5-4.6,3.5C275.1,9.8,274.2,9.2,274.2,8.1z"/>
</g>
<rect x="296.1" y="10.5" width="0.5" height="18.9"/>
<g>
	<path d="M296.2,10.6c0-1.8,2.5-3.5,4.5-3.5c1.3,0,2.3,0.7,2.3,1.7c0,1.7-2.5,3.5-4.6,3.5C297.1,12.3,296.2,11.7,296.2,10.6z"/>
</g>
<rect x="310.7" y="13" width="0.5" height="18"/>
<g>
	<path d="M310.7,13c0-1.8,2.5-3.5,4.5-3.5c1.3,0,2.3,0.7,2.3,1.7c0,1.7-2.5,3.5-4.6,3.5C311.7,14.8,310.7,14.1,310.7,13z"/>
</g>
<rect x="325.2" y="15.5" width="0.5" height="17.2"/>
<g>
	<path d="M325.3,15.5c0-1.8,2.5-3.5,4.5-3.5c1.3,0,2.3,0.7,2.3,1.7c0,1.7-2.5,3.5-4.6,3.5C326.3,17.3,325.3,16.6,325.3,15.5z"/>
</g>
<rect x="339.8" y="17.9" width="0.5" height="16.4"/>
<g>
	<path d="M339.9,18c0-1.8,2.5-3.5,4.5-3.5c1.3,0,2.3,0.7,2.3,1.7c0,1.7-2.5,3.5-4.6,3.5C340.9,19.7,339.9,19.1,339.9,18z"/>
</g>
<rect x="354.4" y="20.4" width="0.5" height="17.7"/>
<g>
	<path d="M354.5,20.5c0-1.8,2.5-3.5,4.5-3.5c1.3,0,2.3,0.7,2.3,1.7c0,1.7-2.5,3.5-4.6,3.5C355.4,22.2,354.5,21.6,354.5,20.5z"/>
</g>
<rect x="368.9" y="22.9" width="0.5" height="15.2"/>
<g>
	<path d="M369,23c0-1.8,2.5-3.5,4.5-3.5c1.3,0,2.3,0.7,2.3,1.7c0,1.7-2.5,3.5-4.6,3.5C370,24.7,369,24.1,369,23z"/>
</g>
<rect x="383.5" y="20.4" width="0.5" height="17.7"/>
<g>
	<path d="M383.6,20.5c0-1.8,2.5-3.5,4.5-3.5c1.3,0,2.3,0.7,2.3,1.7c0,1.7-2.5,3.5-4.6,3.5C384.6,22.2,383.6,21.6,383.6,20.5z"/>
</g>
<rect x="398.1" y="17.9" width="0.5" height="20.2"/>
<g>
	<path d="M398.2,18c0-1.8,2.5-3.5,4.5-3.5c1.3,0,2.3,0.7,2.3,1.7c0,1.7-2.5,3.5-4.6,3.5C399.1,19.7,398.2,19.1,398.2,18z"/>
</g>
<rect x="424.4" y="15.5" width="0.5" height="14"/>
<g>
	<path d="M424.5,15.5c0-1.8,2.5-3.5,4.5-3.5c1.3,0,2.3,0.7,2.3,1.7c0,1.7-2.5,3.5-4.6,3.5C425.5,17.3,424.5,16.6,424.5,15.5z"/>
</g>
<rect x="439" y="13" width="0.5" height="14.9"/>
<g>
	<path d="M439.1,13c0-1.8,2.5-3.5,4.5-3.5c1.3,0,2.3,0.7,2.3,1.7c0,1.7-2.5,3.5-4.6,3.5C440.1,14.8,439.1,14.1,439.1,13z"/>
</g>
<rect x="453.6" y="10.5" width="0.5" height="15.7"/>
<g>
	<path d="M453.7,10.6c0-1.8,2.5-3.5,4.5-3.5c1.3,0,2.3,0.7,2.3,1.7c0,1.7-2.5,3.5-4.6,3.5C454.6,12.3,453.7,11.7,453.7,10.6z"/>
</g>
<rect x="468.2" y="8" width="0.5" height="16.4"/>
<g>
	<path d="M468.2,8.1c0-1.8,2.5-3.5,4.5-3.5c1.3,0,2.3,0.7,2.3,1.7c0,1.7-2.5,3.5-4.6,3.5C469.2,9.8,468.2,9.2,468.2,8.1z"/>
</g>
<rect x="480.9" y="4.4" width="10.5" height="0.8"/>
<rect x="482.7" y="5.5" width="0.5" height="18.9"/>
<g>
	<path d="M482.8,5.6c0-1.8,2.5-3.5,4.5-3.5c1.3,0,2.3,0.7,2.3,1.7c0,1.7-2.5,3.5-4.6,3.5C483.8,7.3,482.8,6.7,482.8,5.6z"/>
</g>
<rect x="497.3" y="8" width="0.5" height="18"/>
<g>
	<path d="M497.4,8.1c0-1.8,2.5-3.5,4.5-3.5c1.3,0,2.3,0.7,2.3,1.7c0,1.7-2.5,3.5-4.6,3.5C498.3,9.8,497.4,9.2,497.4,8.1z"/>
</g>
<rect x="511.9" y="10.5" width="0.5" height="17.2"/>
<g>
	<path d="M511.9,10.6c0-1.8,2.5-3.5,4.5-3.5c1.3,0,2.3,0.7,2.3,1.7c0,1.7-2.5,3.5-4.6,3.5C512.9,12.3,511.9,11.7,511.9,10.6z"/>
</g>
<rect x="526.4" y="13" width="0.5" height="16.4"/>
<g>
	<path d="M526.5,13c0-1.8,2.5-3.5,4.5-3.5c1.3,0,2.3,0.7,2.3,1.7c0,1.7-2.5,3.5-4.6,3.5C527.5,14.8,526.5,14.1,526.5,13z"/>
</g>
<rect x="62" y="57" width="0.5" height="16.4"/>
<g>
	<path d="M55.6,75.1c0-1.8,2.5-3.5,4.5-3.5c1.3,0,2.3,0.7,2.3,1.7c0,1.7-2.5,3.5-4.6,3.5C56.6,76.8,55.6,76.1,55.6,75.1z"/>
</g>
<rect x="76.6" y="55.4" width="0.5" height="15.5"/>
<g>
	<path d="M70.2,72.6c0-1.8,2.5-3.5,4.5-3.5c1.3,0,2.3,0.7,2.3,1.7c0,1.7-2.5,3.5-4.6,3.5C71.1,74.3,70.2,73.7,70.2,72.6z"/>
</g>
<rect x="91.2" y="53.7" width="0.5" height="14.7"/>
<g>
	<path d="M84.7,70.1c0-1.8,2.5-3.5,4.5-3.5c1.3,0,2.3,0.7,2.3,1.7c0,1.7-2.5,3.5-4.6,3.5C85.7,71.8,84.7,71.2,84.7,70.1z"/>
</g>
<rect x="105.7" y="52" width="0.5" height="14"/>
<g>
	<path d="M99.3,67.6c0-1.8,2.5-3.5,4.5-3.5c1.3,0,2.3,0.7,2.3,1.7c0,1.7-2.5,3.5-4.6,3.5C100.3,69.3,99.3,68.7,99.3,67.6z"/>
</g>
<rect x="113.8" y="65.1" width="0.5" height="16.4"/>
<g>
	<path d="M113.9,65.1c0-1.8,2.5-3.5,4.5-3.5c1.3,0,2.3,0.7,2.3,1.7c0,1.7-2.5,3.5-4.6,3.5C114.8,66.9,113.9,66.2,113.9,65.1z"/>
</g>
<rect x="128.4" y="62.6" width="0.5" height="17.4"/>
<g>
	<path d="M128.4,62.7c0-1.8,2.5-3.5,4.5-3.5c1.3,0,2.3,0.7,2.3,1.7c0,1.7-2.5,3.5-4.6,3.5C129.4,64.4,128.4,63.7,128.4,62.7z"/>
</g>
<rect x="142.9" y="60.1" width="0.5" height="18.1"/>
<g>
	<path d="M143,60.2c0-1.8,2.5-3.5,4.5-3.5c1.3,0,2.3,0.7,2.3,1.7c0,1.7-2.5,3.5-4.6,3.5C144,61.9,143,61.3,143,60.2z"/>
</g>
<rect x="157.5" y="57.6" width="0.5" height="18.9"/>
<g>
	<path d="M157.6,57.7c0-1.8,2.5-3.5,4.5-3.5c1.3,0,2.3,0.7,2.3,1.7c0,1.7-2.5,3.5-4.6,3.5C158.6,59.4,157.6,58.8,157.6,57.7z"/>
</g>
<rect x="172.1" y="60.1" width="0.5" height="16.4"/>
<g>
	<path d="M172.2,60.2c0-1.8,2.5-3.5,4.5-3.5c1.3,0,2.3,0.7,2.3,1.7c0,1.7-2.5,3.5-4.6,3.5C173.1,61.9,172.2,61.3,172.2,60.2z"/>
</g>
<rect x="186.6" y="62.6" width="0.5" height="15.5"/>
<g>
	<path d="M186.7,62.7c0-1.8,2.5-3.5,4.5-3.5c1.3,0,2.3,0.7,2.3,1.7c0,1.7-2.5,3.5-4.6,3.5C187.7,64.4,186.7,63.7,186.7,62.7z"/>
</g>
<rect x="201.2" y="65.1" width="0.5" height="14.7"/>
<g>
	<path d="M201.3,65.1c0-1.8,2.5-3.5,4.5-3.5c1.3,0,2.3,0.7,2.3,1.7c0,1.7-2.5,3.5-4.6,3.5C202.3,66.9,201.3,66.2,201.3,65.1z"/>
</g>
<rect x="215.8" y="67.5" width="0.5" height="14"/>
<g>
	<path d="M215.9,67.6c0-1.8,2.5-3.5,4.5-3.5c1.3,0,2.3,0.7,2.3,1.7c0,1.7-2.5,3.5-4.6,3.5C216.8,69.3,215.9,68.7,215.9,67.6z"/>
</g>
<rect x="236.9" y="50.8" width="0.5" height="17.7"/>
<g>
	<path d="M230.4,70.1c0-1.8,2.5-3.5,4.5-3.5c1.3,0,2.3,0.7,2.3,1.7c0,1.7-2.5,3.5-4.6,3.5C231.4,71.8,230.4,71.2,230.4,70.1z"/>
</g>
<rect x="251.4" y="51.1" width="0.5" height="19.8"/>
<g>
	<path d="M245,72.6c0-1.8,2.5-3.5,4.5-3.5c1.3,0,2.3,0.7,2.3,1.7c0,1.7-2.5,3.5-4.6,3.5C246,74.3,245,73.7,245,72.6z"/>
</g>
<rect x="266" y="51.6" width="0.5" height="21.9"/>
<g>
	<path d="M259.6,75.1c0-1.8,2.5-3.5,4.5-3.5c1.3,0,2.3,0.7,2.3,1.7c0,1.7-2.5,3.5-4.6,3.5C260.6,76.8,259.6,76.1,259.6,75.1z"/>
</g>
<rect x="280.6" y="52" width="0.5" height="18.9"/>
<g>
	<path d="M274.2,72.6c0-1.8,2.5-3.5,4.5-3.5c1.3,0,2.3,0.7,2.3,1.7c0,1.7-2.5,3.5-4.6,3.5C275.1,74.3,274.2,73.7,274.2,72.6z"/>
</g>
<rect x="296.1" y="70" width="0.5" height="16.4"/>
<g>
	<path d="M296.2,70.1c0-1.8,2.5-3.5,4.5-3.5c1.3,0,2.3,0.7,2.3,1.7c0,1.7-2.5,3.5-4.6,3.5C297.1,71.8,296.2,71.2,296.2,70.1z"/>
</g>
<rect x="310.7" y="67.5" width="0.5" height="17.4"/>
<g>
	<path d="M310.7,67.6c0-1.8,2.5-3.5,4.5-3.5c1.3,0,2.3,0.7,2.3,1.7c0,1.7-2.5,3.5-4.6,3.5C311.7,69.3,310.7,68.7,310.7,67.6z"/>
</g>
<rect x="325.2" y="65.1" width="0.5" height="18.1"/>
<g>
	<path d="M325.3,65.1c0-1.8,2.5-3.5,4.5-3.5c1.3,0,2.3,0.7,2.3,1.7c0,1.7-2.5,3.5-4.6,3.5C326.3,66.9,325.3,66.2,325.3,65.1z"/>
</g>
<rect x="339.8" y="62.6" width="0.5" height="18.9"/>
<g>
	<path d="M339.9,62.7c0-1.8,2.5-3.5,4.5-3.5c1.3,0,2.3,0.7,2.3,1.7c0,1.7-2.5,3.5-4.6,3.5C340.9,64.4,339.9,63.7,339.9,62.7z"/>
</g>
<rect x="354.4" y="60.1" width="0.5" height="16.4"/>
<g>
	<path d="M354.5,60.2c0-1.8,2.5-3.5,4.5-3.5c1.3,0,2.3,0.7,2.3,1.7c0,1.7-2.5,3.5-4.6,3.5C355.4,61.9,354.5,61.3,354.5,60.2z"/>
</g>
<rect x="368.9" y="57.6" width="0.5" height="17.4"/>
<g>
	<path d="M369,57.7c0-1.8,2.5-3.5,4.5-3.5c1.3,0,2.3,0.7,2.3,1.7c0,1.7-2.5,3.5-4.6,3.5C370,59.4,369,58.8,369,57.7z"/>
</g>
<rect x="383.5" y="55.1" width="0.5" height="18.1"/>
<g>
	<path d="M383.6,55.2c0-1.8,2.5-3.5,4.5-3.5c1.3,0,2.3,0.7,2.3,1.7c0,1.7-2.5,3.5-4.6,3.5C384.6,56.9,383.6,56.3,383.6,55.2z"/>
</g>
<rect x="396.3" y="51.5" width="10.5" height="0.8"/>
<rect x="398.1" y="52.7" width="0.5" height="18.9"/>
<g>
	<path d="M398.2,52.7c0-1.8,2.5-3.5,4.5-3.5c1.3,0,2.3,0.7,2.3,1.7c0,1.7-2.5,3.5-4.6,3.5C399.1,54.5,398.2,53.8,398.2,52.7z"/>
</g>
<rect x="431" y="62" width="0.5" height="16.4"/>
<g>
	<path d="M424.5,80c0-1.8,2.5-3.5,4.5-3.5c1.3,0,2.3,0.7,2.3,1.7c0,1.7-2.5,3.5-4.6,3.5C425.5,81.7,424.5,81.1,424.5,80z"/>
</g>
<rect x="445.5" y="60.4" width="0.5" height="15.5"/>
<g>
	<path d="M439.1,77.5c0-1.8,2.5-3.5,4.5-3.5c1.3,0,2.3,0.7,2.3,1.7c0,1.7-2.5,3.5-4.6,3.5C440.1,79.3,439.1,78.6,439.1,77.5z"/>
</g>
<rect x="460.1" y="58.7" width="0.5" height="14.7"/>
<g>
	<path d="M453.7,75.1c0-1.8,2.5-3.5,4.5-3.5c1.3,0,2.3,0.7,2.3,1.7c0,1.7-2.5,3.5-4.6,3.5C454.6,76.8,453.7,76.1,453.7,75.1z"/>
</g>
<rect x="474.7" y="57" width="0.5" height="14"/>
<g>
	<path d="M468.2,72.6c0-1.8,2.5-3.5,4.5-3.5c1.3,0,2.3,0.7,2.3,1.7c0,1.7-2.5,3.5-4.6,3.5C469.2,74.3,468.2,73.7,468.2,72.6z"/>
</g>
<rect x="489.2" y="52" width="0.5" height="16.4"/>
<g>
	<path d="M482.8,70.1c0-1.8,2.5-3.5,4.5-3.5c1.3,0,2.3,0.7,2.3,1.7c0,1.7-2.5,3.5-4.6,3.5C483.8,71.8,482.8,71.2,482.8,70.1z"/>
</g>
<rect x="503.8" y="53.6" width="0.5" height="17.4"/>
<g>
	<path d="M497.4,72.6c0-1.8,2.5-3.5,4.5-3.5c1.3,0,2.3,0.7,2.3,1.7c0,1.7-2.5,3.5-4.6,3.5C498.3,74.3,497.4,73.7,497.4,72.6z"/>
</g>
<rect x="518.4" y="55.3" width="0.5" height="18.1"/>
<g>
	<path d="M511.9,75.1c0-1.8,2.5-3.5,4.5-3.5c1.3,0,2.3,0.7,2.3,1.7c0,1.7-2.5,3.5-4.6,3.5C512.9,76.8,511.9,76.1,511.9,75.1z"/>
</g>
<rect x="533" y="57" width="0.5" height="18.9"/>
<g>
	<path d="M526.5,77.5c0-1.8,2.5-3.5,4.5-3.5c1.3,0,2.3,0.7,2.3,1.7c0,1.7-2.5,3.5-4.6,3.5C527.5,79.3,526.5,78.6,526.5,77.5z"/>
</g>
<rect x="55.5" y="146.9" width="0.5" height="18.9"/>
<g>
	<path d="M55.6,147c0-1.8,2.5-3.5,4.5-3.5c1.3,0,2.3,0.7,2.3,1.7c0,1.7-2.5,3.5-4.6,3.5C56.6,148.7,55.6,148.1,55.6,147z"/>
</g>
<rect x="73.3" y="149.4" width="0.5" height="18"/>
<g>
	<path d="M73.4,149.5c0-1.8,2.5-3.5,4.5-3.5c1.3,0,2.3,0.7,2.3,1.7c0,1.7-2.5,3.5-4.6,3.5C74.4,151.2,73.4,150.5,73.4,149.5z"/>
</g>
<rect x="91.2" y="151.9" width="0.5" height="17.2"/>
<g>
	<path d="M91.2,151.9c0-1.8,2.5-3.5,4.5-3.5c1.3,0,2.3,0.7,2.3,1.7c0,1.7-2.5,3.5-4.6,3.5C92.2,153.7,91.2,153,91.2,151.9z"/>
</g>
<rect x="109" y="154.3" width="0.5" height="16.4"/>
<g>
	<path d="M109.1,154.4c0-1.8,2.5-3.5,4.5-3.5c1.3,0,2.3,0.7,2.3,1.7c0,1.7-2.5,3.5-4.6,3.5C110,156.1,109.1,155.5,109.1,154.4z"/>
</g>
<rect x="126.8" y="151.9" width="0.5" height="14"/>
<g>
	<path d="M126.9,151.9c0-1.8,2.5-3.5,4.5-3.5c1.3,0,2.3,0.7,2.3,1.7c0,1.7-2.5,3.5-4.6,3.5C127.9,153.7,126.9,153,126.9,151.9z"/>
</g>
<rect x="144.6" y="149.4" width="0.5" height="14.9"/>
<g>
	<path d="M144.7,149.5c0-1.8,2.5-3.5,4.5-3.5c1.3,0,2.3,0.7,2.3,1.7c0,1.7-2.5,3.5-4.6,3.5C145.7,151.2,144.7,150.5,144.7,149.5z"/>
</g>
<rect x="162.5" y="146.9" width="0.5" height="15.7"/>
<g>
	<path d="M162.5,147c0-1.8,2.5-3.5,4.5-3.5c1.3,0,2.3,0.7,2.3,1.7c0,1.7-2.5,3.5-4.6,3.5C163.5,148.7,162.5,148.1,162.5,147z"/>
</g>
<rect x="180.3" y="144.4" width="0.5" height="16.4"/>
<g>
	<path d="M180.4,144.5c0-1.8,2.5-3.5,4.5-3.5c1.3,0,2.3,0.7,2.3,1.7c0,1.7-2.5,3.5-4.6,3.5C181.3,146.2,180.4,145.6,180.4,144.5z"/>
</g>
<rect x="198.1" y="141.9" width="0.5" height="15.2"/>
<g>
	<path d="M198.2,142c0-1.8,2.5-3.5,4.5-3.5c1.3,0,2.3,0.7,2.3,1.7c0,1.7-2.5,3.5-4.6,3.5C199.2,143.7,198.2,143.1,198.2,142z"/>
</g>
<rect x="215.9" y="139.5" width="0.5" height="17.4"/>
<g>
	<path d="M216,139.5c0-1.8,2.5-3.5,4.5-3.5c1.3,0,2.3,0.7,2.3,1.7c0,1.7-2.5,3.5-4.6,3.5C217,141.3,216,140.6,216,139.5z"/>
</g>
<rect x="231.8" y="135.8" width="10.5" height="0.8"/>
<rect x="233.6" y="137" width="0.5" height="19.4"/>
<g>
	<path d="M233.7,137.1c0-1.8,2.5-3.5,4.5-3.5c1.3,0,2.3,0.7,2.3,1.7c0,1.7-2.5,3.5-4.6,3.5C234.7,138.8,233.7,138.1,233.7,137.1z"/>
</g>
<rect x="251.4" y="139.5" width="0.5" height="16.4"/>
<g>
	<path d="M251.5,139.5c0-1.8,2.5-3.5,4.5-3.5c1.3,0,2.3,0.7,2.3,1.7c0,1.7-2.5,3.5-4.6,3.5C252.5,141.3,251.5,140.6,251.5,139.5z"/>
</g>
<rect x="269.3" y="141.9" width="0.5" height="18.9"/>
<g>
	<path d="M269.4,142c0-1.8,2.5-3.5,4.5-3.5c1.3,0,2.3,0.7,2.3,1.7c0,1.7-2.5,3.5-4.6,3.5C270.3,143.7,269.4,143.1,269.4,142z"/>
</g>
<rect x="287.1" y="144.4" width="0.5" height="18"/>
<g>
	<path d="M287.2,144.5c0-1.8,2.5-3.5,4.5-3.5c1.3,0,2.3,0.7,2.3,1.7c0,1.7-2.5,3.5-4.6,3.5C288.1,146.2,287.2,145.6,287.2,144.5z"/>
</g>
<rect x="304.9" y="146.9" width="0.5" height="17.2"/>
<g>
	<path d="M305,147c0-1.8,2.5-3.5,4.5-3.5c1.3,0,2.3,0.7,2.3,1.7c0,1.7-2.5,3.5-4.6,3.5C306,148.7,305,148.1,305,147z"/>
</g>
<rect x="322.8" y="149.4" width="0.5" height="16.4"/>
<g>
	<path d="M322.8,149.5c0-1.8,2.5-3.5,4.5-3.5c1.3,0,2.3,0.7,2.3,1.7c0,1.7-2.5,3.5-4.6,3.5C323.8,151.2,322.8,150.5,322.8,149.5z"/>
</g>
<rect x="354.5" y="136.4" width="0.5" height="14"/>
<g>
	<path d="M348.1,151.9c0-1.8,2.5-3.5,4.5-3.5c1.3,0,2.3,0.7,2.3,1.7c0,1.7-2.5,3.5-4.6,3.5C349.1,153.7,348.1,153,348.1,151.9z"/>
</g>
<rect x="372.4" y="137.9" width="0.5" height="14.9"/>
<g>
	<path d="M365.9,154.4c0-1.8,2.5-3.5,4.5-3.5c1.3,0,2.3,0.7,2.3,1.7c0,1.7-2.5,3.5-4.6,3.5C366.9,156.1,365.9,155.5,365.9,154.4z"/>
</g>
<rect x="390.2" y="139.6" width="0.5" height="15.7"/>
<g>
	<path d="M383.8,156.9c0-1.8,2.5-3.5,4.5-3.5c1.3,0,2.3,0.7,2.3,1.7c0,1.7-2.5,3.5-4.6,3.5C384.7,158.6,383.8,158,383.8,156.9z"/>
</g>
<rect x="408" y="141.3" width="0.5" height="16.4"/>
<g>
	<path d="M401.6,159.4c0-1.8,2.5-3.5,4.5-3.5c1.3,0,2.3,0.7,2.3,1.7c0,1.7-2.5,3.5-4.6,3.5C402.5,161.1,401.6,160.5,401.6,159.4z"/>
</g>
<rect x="425.8" y="146.3" width="0.5" height="14"/>
<g>
	<path d="M419.4,161.9c0-1.8,2.5-3.5,4.5-3.5c1.3,0,2.3,0.7,2.3,1.7c0,1.7-2.5,3.5-4.6,3.5C420.4,163.6,419.4,162.9,419.4,161.9z"/>
</g>
<rect x="443.7" y="147.8" width="0.5" height="14.9"/>
<g>
	<path d="M437.2,164.3c0-1.8,2.5-3.5,4.5-3.5c1.3,0,2.3,0.7,2.3,1.7c0,1.7-2.5,3.5-4.6,3.5C438.2,166.1,437.2,165.4,437.2,164.3z"/>
</g>
<rect x="453.2" y="165.6" width="10.5" height="0.8"/>
<rect x="461.5" y="149.5" width="0.5" height="15.7"/>
<g>
	<path d="M455.1,166.8c0-1.8,2.5-3.5,4.5-3.5c1.3,0,2.3,0.7,2.3,1.7c0,1.7-2.5,3.5-4.6,3.5C456,168.5,455.1,167.9,455.1,166.8z"/>
</g>
<rect x="471" y="165.6" width="10.5" height="0.8"/>
<rect x="479.3" y="151.2" width="0.5" height="16.4"/>
<g>
	<path d="M472.9,169.3c0-1.8,2.5-3.5,4.5-3.5c1.3,0,2.3,0.7,2.3,1.7c0,1.7-2.5,3.5-4.6,3.5C473.9,171,472.9,170.4,472.9,169.3z"/>
</g>
<rect x="488.9" y="165.6" width="10.7" height="0.8"/>
<rect x="488.9" y="170.5" width="10.7" height="0.8"/>
<rect x="497.3" y="151.1" width="0.5" height="19.1"/>
<g>
	<path d="M495,168.2c1.6,0,2.7,0.7,2.7,2c0,1.9-2.3,3.4-4.5,3.4c-1.3,0-2.4-0.7-2.4-1.8C490.7,170,493,168.2,495,168.2z
		 M491.2,172.1c0,0.6,0.4,0.9,1.1,0.9c1.4,0,4.9-2.1,4.9-3.3c0-0.6-0.4-0.9-1.1-0.9C494.8,168.8,491.2,170.8,491.2,172.1z"/>
</g>
<rect x="53.7" y="182.9" width="10.5" height="0.8"/>
<rect x="55.5" y="181.6" width="0.5" height="16.4"/>
<g>
	<path d="M55.6,181.7c0-1.8,2.5-3.5,4.5-3.5c1.3,0,2.3,0.7,2.3,1.7c0,1.7-2.5,3.5-4.6,3.5C56.6,183.4,55.6,182.8,55.6,181.7z"/>
</g>
<rect x="71.6" y="182.9" width="10.5" height="0.8"/>
<rect x="73.3" y="184.1" width="0.5" height="15.5"/>
<g>
	<path d="M73.4,184.2c0-1.8,2.5-3.5,4.5-3.5c1.3,0,2.3,0.7,2.3,1.7c0,1.7-2.5,3.5-4.6,3.5C74.4,185.9,73.4,185.3,73.4,184.2z"/>
</g>
<rect x="91.2" y="186.6" width="0.5" height="14.7"/>
<g>
	<path d="M91.2,186.7c0-1.8,2.5-3.5,4.5-3.5c1.3,0,2.3,0.7,2.3,1.7c0,1.7-2.5,3.5-4.6,3.5C92.2,188.4,91.2,187.7,91.2,186.7z"/>
</g>
<rect x="109" y="189.1" width="0.5" height="14"/>
<g>
	<path d="M109.1,189.1c0-1.8,2.5-3.5,4.5-3.5c1.3,0,2.3,0.7,2.3,1.7c0,1.7-2.5,3.5-4.6,3.5C110,190.9,109.1,190.2,109.1,189.1z"/>
</g>
<rect x="126.8" y="191.5" width="0.5" height="16.4"/>
<g>
	<path d="M126.9,191.6c0-1.8,2.5-3.5,4.5-3.5c1.3,0,2.3,0.7,2.3,1.7c0,1.7-2.5,3.5-4.6,3.5C127.9,193.3,126.9,192.7,126.9,191.6z"/>
</g>
<rect x="144.6" y="194" width="0.5" height="15.5"/>
<g>
	<path d="M144.7,194.1c0-1.8,2.5-3.5,4.5-3.5c1.3,0,2.3,0.7,2.3,1.7c0,1.7-2.5,3.5-4.6,3.5C145.7,195.8,144.7,195.2,144.7,194.1z"/>
</g>
<rect x="162.5" y="196.5" width="0.5" height="14.7"/>
<g>
	<path d="M162.5,196.6c0-1.8,2.5-3.5,4.5-3.5c1.3,0,2.3,0.7,2.3,1.7c0,1.7-2.5,3.5-4.6,3.5C163.5,198.3,162.5,197.7,162.5,196.6z"/>
</g>
<rect x="180.3" y="199" width="0.5" height="14"/>
<g>
	<path d="M180.4,199.1c0-1.8,2.5-3.5,4.5-3.5c1.3,0,2.3,0.7,2.3,1.7c0,1.7-2.5,3.5-4.6,3.5C181.3,200.8,180.4,200.2,180.4,199.1z"/>
</g>
<rect x="204.6" y="182.2" width="0.5" height="17.7"/>
<g>
	<path d="M198.2,201.5c0-1.8,2.5-3.5,4.5-3.5c1.3,0,2.3,0.7,2.3,1.7c0,1.7-2.5,3.5-4.6,3.5C199.2,203.3,198.2,202.6,198.2,201.5z"/>
</g>
<rect x="222.5" y="182.6" width="0.5" height="19.8"/>
<g>
	<path d="M216,204c0-1.8,2.5-3.5,4.5-3.5c1.3,0,2.3,0.7,2.3,1.7c0,1.7-2.5,3.5-4.6,3.5C217,205.7,216,205.1,216,204z"/>
</g>
<rect x="240.1" y="183" width="0.5" height="21.9"/>
<g>
	<path d="M233.7,206.5c0-1.8,2.5-3.5,4.5-3.5c1.3,0,2.3,0.7,2.3,1.7c0,1.7-2.5,3.5-4.6,3.5C234.7,208.2,233.7,207.6,233.7,206.5z"/>
</g>
<rect x="258" y="183.5" width="0.5" height="18.9"/>
<g>
	<path d="M251.5,204c0-1.8,2.5-3.5,4.5-3.5c1.3,0,2.3,0.7,2.3,1.7c0,1.7-2.5,3.5-4.6,3.5C252.5,205.7,251.5,205.1,251.5,204z"/>
</g>
<rect x="269.3" y="201.5" width="0.5" height="16.4"/>
<g>
	<path d="M269.4,201.5c0-1.8,2.5-3.5,4.5-3.5c1.3,0,2.3,0.7,2.3,1.7c0,1.7-2.5,3.5-4.6,3.5C270.3,203.3,269.4,202.6,269.4,201.5z"/>
</g>
<rect x="287.1" y="199" width="0.5" height="17.4"/>
<g>
	<path d="M287.2,199.1c0-1.8,2.5-3.5,4.5-3.5c1.3,0,2.3,0.7,2.3,1.7c0,1.7-2.5,3.5-4.6,3.5C288.1,200.8,287.2,200.2,287.2,199.1z"/>
</g>
<rect x="304.9" y="196.5" width="0.5" height="18.1"/>
<g>
	<path d="M305,196.6c0-1.8,2.5-3.5,4.5-3.5c1.3,0,2.3,0.7,2.3,1.7c0,1.7-2.5,3.5-4.6,3.5C306,198.3,305,197.7,305,196.6z"/>
</g>
<rect x="322.8" y="194" width="0.5" height="18.9"/>
<g>
	<path d="M322.8,194.1c0-1.8,2.5-3.5,4.5-3.5c1.3,0,2.3,0.7,2.3,1.7c0,1.7-2.5,3.5-4.6,3.5C323.8,195.8,322.8,195.2,322.8,194.1z"/>
</g>
<rect x="348" y="191.5" width="0.5" height="16.4"/>
<g>
	<path d="M348.1,191.6c0-1.8,2.5-3.5,4.5-3.5c1.3,0,2.3,0.7,2.3,1.7c0,1.7-2.5,3.5-4.6,3.5C349.1,193.3,348.1,192.7,348.1,191.6z"/>
</g>
<rect x="365.8" y="189.1" width="0.5" height="19.2"/>
<g>
	<path d="M365.9,189.1c0-1.8,2.5-3.5,4.5-3.5c1.3,0,2.3,0.7,2.3,1.7c0,1.7-2.5,3.5-4.6,3.5C366.9,190.9,365.9,190.2,365.9,189.1z"/>
</g>
<rect x="383.7" y="191.5" width="0.5" height="17.2"/>
<g>
	<path d="M383.8,191.6c0-1.8,2.5-3.5,4.5-3.5c1.3,0,2.3,0.7,2.3,1.7c0,1.7-2.5,3.5-4.6,3.5C384.7,193.3,383.8,192.7,383.8,191.6z"/>
</g>
<rect x="401.5" y="194" width="0.5" height="15.2"/>
<g>
	<path d="M401.6,194.1c0-1.8,2.5-3.5,4.5-3.5c1.3,0,2.3,0.7,2.3,1.7c0,1.7-2.5,3.5-4.6,3.5C402.5,195.8,401.6,195.2,401.6,194.1z"/>
</g>
<rect x="425.8" y="178.5" width="0.5" height="16.4"/>
<g>
	<path d="M419.4,196.6c0-1.8,2.5-3.5,4.5-3.5c1.3,0,2.3,0.7,2.3,1.7c0,1.7-2.5,3.5-4.6,3.5C420.4,198.3,419.4,197.7,419.4,196.6z"/>
</g>
<rect x="443.7" y="180.1" width="0.5" height="17.4"/>
<g>
	<path d="M437.2,199.1c0-1.8,2.5-3.5,4.5-3.5c1.3,0,2.3,0.7,2.3,1.7c0,1.7-2.5,3.5-4.6,3.5C438.2,200.8,437.2,200.2,437.2,199.1z"/>
</g>
<rect x="461.5" y="181.8" width="0.5" height="18.1"/>
<g>
	<path d="M455.1,201.5c0-1.8,2.5-3.5,4.5-3.5c1.3,0,2.3,0.7,2.3,1.7c0,1.7-2.5,3.5-4.6,3.5C456,203.3,455.1,202.6,455.1,201.5z"/>
</g>
<rect x="479.3" y="183.5" width="0.5" height="18.9"/>
<g>
	<path d="M472.9,204c0-1.8,2.5-3.5,4.5-3.5c1.3,0,2.3,0.7,2.3,1.7c0,1.7-2.5,3.5-4.6,3.5C473.9,205.7,472.9,205.1,472.9,204z"/>
</g>
<rect x="497.3" y="188.3" width="0.5" height="16.6"/>
<g>
	<path d="M495,202.9c1.6,0,2.7,0.7,2.7,2c0,1.9-2.3,3.4-4.5,3.4c-1.3,0-2.4-0.7-2.4-1.8C490.7,204.7,493,202.9,495,202.9z
		 M491.2,206.8c0,0.6,0.4,0.9,1.1,0.9c1.4,0,4.9-2.1,4.9-3.3c0-0.6-0.4-0.9-1.1-0.9C494.8,203.5,491.2,205.6,491.2,206.8z"/>
</g>
</svg>
