<?xml version="1.0" encoding="utf-8"?>

<!--
	ScaleBook
	Copyright (c) Leland Jansen 2015. All rights reserved.
-->

<!DOCTYPE svg PUBLIC "-//W3C//DTD SVG 1.1//EN" "http://www.w3.org/Graphics/SVG/1.1/DTD/svg11.dtd">
<svg version="1.1" id="Layer_1" xmlns="http://www.w3.org/2000/svg" xmlns:xlink="http://www.w3.org/1999/xlink" x="0px" y="0px"
	 viewBox="0 0 553 219.5" enable-background="new 0 0 553 219.5" xml:space="preserve">
<rect x="8.4" y="15" width="0.8" height="67"/>
<g>
	<path d="M7.4,15.7c-1.9,1.1-3.6,5.8-3.6,9.4c0,2.3,1.4,9.9,1.4,12.3c0,5-1.5,8.6-4.6,11.1c3,2.4,4.6,6.1,4.6,11
		c0,2.3-1.4,9.9-1.4,12.3c0,3.8,1.7,8.4,3.6,9.5V82c-3.5-2.3-5.8-8.2-5.8-13.1c0-2.1,1.7-9.4,1.7-11.5c0-3.8-1-6.6-2.9-8.2
		C0.1,48.9,0,48.7,0,48.5s0.1-0.4,0.5-0.7c1.9-1.7,2.9-4.2,2.9-7.6c0-2.1-1.7-10-1.7-12.2c0-5.2,2.1-10.4,5.8-13.1V15.7z"/>
</g>
<rect x="8.4" y="144.7" width="0.8" height="67"/>
<g>
	<path d="M7.4,145.4c-1.9,1.1-3.6,5.8-3.6,9.4c0,2.3,1.4,9.9,1.4,12.3c0,5-1.5,8.6-4.6,11.1c3,2.4,4.6,6.1,4.6,11
		c0,2.3-1.4,9.9-1.4,12.3c0,3.8,1.7,8.4,3.6,9.5v0.7c-3.5-2.3-5.8-8.2-5.8-13.1c0-2.1,1.7-9.4,1.7-11.5c0-3.8-1-6.6-2.9-8.2
		c-0.3-0.3-0.5-0.5-0.5-0.7s0.1-0.4,0.5-0.7c1.9-1.7,2.9-4.2,2.9-7.6c0-2.1-1.7-10-1.7-12.2c0-5.2,2.1-10.4,5.8-13.1V145.4z"/>
</g>
<rect x="298.6" y="15" width="0.8" height="67"/>
<rect x="552.2" y="15" width="0.8" height="67"/>
<rect x="347.6" y="144.7" width="0.8" height="67"/>
<rect x="547.8" y="144.7" width="0.8" height="67"/>
<rect x="550.4" y="144.7" width="2.5" height="67"/>
<rect x="8.5" y="34.6" width="544.4" height="0.5"/>
<rect x="8.5" y="29.6" width="544.4" height="0.5"/>
<rect x="8.5" y="24.7" width="544.4" height="0.5"/>
<rect x="8.5" y="19.7" width="544.4" height="0.5"/>
<rect x="8.5" y="14.8" width="544.4" height="0.5"/>
<g>
	<path d="M20.3,34.7c-4.2,0-8.1-3.1-8.1-6.9c0-3.2,2.3-6.7,6.8-10.5c-0.3-1.2-0.4-2.4-0.4-3.6c0-3.5,1.2-6.8,3.2-8.5
		c1.8,2.5,2.7,4.9,2.7,7.1c0,2.9-1.3,5.6-4.3,8.1l0.9,4.2c0.5,0,0.8-0.1,0.8-0.1c2.6,0,4.8,2,4.8,4.7c0,1.9-1.4,3.7-3.6,4.8
		c0-0.1,0.9,3.8,0.9,4.3c0,2.5-2.3,4.2-4.9,4.2c-2,0-3.6-1.3-3.6-3.4c0-1.4,1-2.6,2.4-2.6c1.3,0,2.3,1.3,2.3,2.5
		c0,1.4-1.2,2.3-2.7,2.5c0.6,0.3,1.2,0.5,1.9,0.5c2.1,0,4.1-1.6,4.1-3.6c0-0.2,0-0.4-0.1-0.6l-0.8-3.7
		C21.9,34.5,21.2,34.7,20.3,34.7z M18.1,29.5c0,1,0.5,1.9,1.6,2.5c-1.8-0.3-3-1.4-3-3.1c0-2,1.7-3.7,3.8-4.1l-0.8-4
		C16,23.6,14,26.3,14,28.9c0,2.9,2.8,5.3,6,5.3c0.9,0,1.7-0.2,2.4-0.5L21,26.9C19.4,27.1,18.1,28.1,18.1,29.5z M22.1,8.1
		c-1.6,0-2.9,3.7-2.9,7c0,0.7,0,1.3,0.2,1.9c2.7-2.4,4-4.5,4-6.5c0-0.9-0.3-1.7-1-2.4C22.4,8.1,22.3,8.1,22.1,8.1z M24.9,30
		c0-1.6-1.2-3.3-2.9-3.3c-0.1,0-0.2,0-0.5,0l1.4,6.6C24.2,32.5,24.9,31.3,24.9,30z"/>
</g>
<g>
	<path d="M29.5,16.6h0.6L30,22.9c0.4-0.7,1-1,1.8-1c1.2,0,2.2,0.8,2.2,1.9c0,0.8-0.5,1.8-1.7,2.7l-2.8,2.1V16.6z M30.1,23.5
		C30,24.3,30,24.9,30,25.5c0,1,0,1.6,0.1,2c1-0.7,2.4-2.6,2.4-3.7c0-0.6-0.5-1.1-1.1-1.1C30.8,22.7,30.4,23,30.1,23.5z"/>
</g>
<g>
	<path d="M35.1,9.2h0.6l-0.1,6.2c0.4-0.7,1-1,1.8-1c1.2,0,2.2,0.8,2.2,1.9c0,0.8-0.5,1.8-1.7,2.7l-2.8,2.1V9.2z M35.7,16.1
		c-0.1,0.8-0.1,1.4-0.1,1.9c0,1,0,1.6,0.1,2c1-0.7,2.4-2.6,2.4-3.7c0-0.6-0.5-1.1-1.1-1.1C36.4,15.2,36,15.5,35.7,16.1z"/>
</g>
<g>
	<path d="M40.7,19.1h0.6l-0.1,6.2c0.4-0.7,1-1,1.8-1c1.2,0,2.2,0.8,2.2,1.9c0,0.8-0.5,1.8-1.7,2.7L40.7,31V19.1z M41.3,26
		c-0.1,0.8-0.1,1.4-0.1,1.9c0,1,0,1.6,0.1,2c1-0.7,2.4-2.6,2.4-3.7c0-0.6-0.5-1.1-1.1-1.1C42,25.2,41.6,25.4,41.3,26z"/>
</g>
<g>
	<path d="M46.3,11.6h0.6l-0.1,6.2c0.4-0.7,1-1,1.8-1c1.2,0,2.2,0.8,2.2,1.9c0,0.8-0.5,1.8-1.7,2.7l-2.8,2.1V11.6z M46.9,18.6
		c-0.1,0.8-0.1,1.4-0.1,1.9c0,1,0,1.6,0.1,2c1-0.7,2.4-2.6,2.4-3.7c0-0.6-0.5-1.1-1.1-1.1C47.6,17.7,47.2,18,46.9,18.6z"/>
</g>
<g>
	<path d="M51.9,21.6h0.6l-0.1,6.2c0.4-0.7,1-1,1.8-1c1.2,0,2.2,0.8,2.2,1.9c0,0.8-0.5,1.8-1.7,2.7l-2.8,2.1V21.6z M52.4,28.5
		c-0.1,0.8-0.1,1.4-0.1,1.9c0,1,0,1.6,0.1,2c1-0.7,2.4-2.6,2.4-3.7c0-0.6-0.5-1.1-1.1-1.1C53.2,27.6,52.7,27.9,52.4,28.5z"/>
</g>
<polygon fill-rule="evenodd" clip-rule="evenodd" points="71.6,26.2 115.6,21.2 115.6,18.7 71.6,23.7 "/>
<polygon fill-rule="evenodd" clip-rule="evenodd" points="71.6,22.4 115.6,17.5 115.6,15 71.6,20 "/>
<polygon fill-rule="evenodd" clip-rule="evenodd" points="123.6,41 167.7,36.1 167.7,33.6 123.6,38.6 "/>
<polygon fill-rule="evenodd" clip-rule="evenodd" points="123.6,44.8 167.7,39.8 167.7,37.3 123.6,42.3 "/>
<polygon fill-rule="evenodd" clip-rule="evenodd" points="182.2,31.1 226.3,26.2 226.3,23.7 182.2,28.6 "/>
<polygon fill-rule="evenodd" clip-rule="evenodd" points="182.2,34.8 226.3,29.9 226.3,27.4 182.2,32.4 "/>
<polygon fill-rule="evenodd" clip-rule="evenodd" points="240.8,22.4 284.9,21.2 284.9,18.7 240.8,20 "/>
<polygon fill-rule="evenodd" clip-rule="evenodd" points="240.8,26.2 284.9,24.9 284.9,22.4 240.8,23.7 "/>
<polygon fill-rule="evenodd" clip-rule="evenodd" points="306.9,21.2 350.9,26.2 350.9,23.7 306.9,18.7 "/>
<polygon fill-rule="evenodd" clip-rule="evenodd" points="306.9,24.9 350.9,29.9 350.9,27.4 306.9,22.4 "/>
<rect x="365.5" y="29.9" fill-rule="evenodd" clip-rule="evenodd" width="44" height="2.5"/>
<rect x="365.5" y="33.6" fill-rule="evenodd" clip-rule="evenodd" width="44" height="2.5"/>
<polygon fill-rule="evenodd" clip-rule="evenodd" points="435.8,26.2 479.7,21.2 479.7,18.7 435.8,23.7 "/>
<polygon fill-rule="evenodd" clip-rule="evenodd" points="435.8,29.9 479.7,24.9 479.7,22.4 435.8,27.4 "/>
<polygon fill-rule="evenodd" clip-rule="evenodd" points="494.4,21.2 538.3,22.4 538.3,20 494.4,18.7 "/>
<polygon fill-rule="evenodd" clip-rule="evenodd" points="494.4,24.9 538.3,26.2 538.3,23.7 494.4,22.4 "/>
<rect x="8.5" y="81.7" width="544.4" height="0.5"/>
<rect x="8.5" y="76.8" width="544.4" height="0.5"/>
<rect x="8.5" y="71.8" width="544.4" height="0.5"/>
<rect x="8.5" y="66.8" width="544.4" height="0.5"/>
<rect x="8.5" y="61.9" width="544.4" height="0.5"/>
<g>
	<path d="M15.7,76.3c2.9-2.6,4.7-6.1,4.7-9.2c0-2.5-1.4-4.4-3.7-4.4c-1.6,0-3.4,1.3-3.4,2.7c0,0.2,0,0.3,0.1,0.3
		c-0.1,0,0.6-0.6,1.4-0.6c0.9,0,1.5,0.8,1.5,1.7c0,1.2-0.9,2.2-2.1,2.2c-1.2,0-2.1-1.3-2.1-2.8c0-2.3,2.3-4.1,4.8-4.1
		c4.7,0,5.9,3.2,5.9,5.8c0,1.6-0.4,2.9-2,5.3c-1.9,3.1-6.4,5.3-8.1,5.3c-0.4,0-0.6-0.2-0.6-0.5C13.8,77.6,14.9,77,15.7,76.3z
		 M25.7,63.6c0.6,0,1,0.4,1,1s-0.4,1-1,1s-1-0.4-1-1S25.1,63.6,25.7,63.6z M25.7,68.5c0.6,0,1,0.4,1,1c0,0.6-0.4,1-1,1s-1-0.4-1-1
		C24.7,69,25.1,68.5,25.7,68.5z"/>
</g>
<g>
	<path d="M29.5,68.7h0.6L30,74.9c0.4-0.7,1-1,1.8-1c1.2,0,2.2,0.8,2.2,1.9c0,0.8-0.5,1.8-1.7,2.7l-2.8,2.1V68.7z M30.1,75.6
		C30,76.3,30,77,30,77.5c0,1,0,1.6,0.1,2c1-0.7,2.4-2.6,2.4-3.7c0-0.6-0.5-1.1-1.1-1.1C30.8,74.8,30.4,75,30.1,75.6z"/>
</g>
<g>
	<path d="M35.1,61.3h0.6l-0.1,6.2c0.4-0.7,1-1,1.8-1c1.2,0,2.2,0.8,2.2,1.9c0,0.8-0.5,1.8-1.7,2.7l-2.8,2.1V61.3z M35.7,68.2
		c-0.1,0.8-0.1,1.4-0.1,1.9c0,1,0,1.6,0.1,2c1-0.7,2.4-2.6,2.4-3.7c0-0.6-0.5-1.1-1.1-1.1C36.4,67.3,36,67.6,35.7,68.2z"/>
</g>
<g>
	<path d="M40.7,71.2h0.6l-0.1,6.2c0.4-0.7,1-1,1.8-1c1.2,0,2.2,0.8,2.2,1.9c0,0.8-0.5,1.8-1.7,2.7l-2.8,2.1V71.2z M41.3,78.1
		c-0.1,0.8-0.1,1.4-0.1,1.9c0,1,0,1.6,0.1,2c1-0.7,2.4-2.6,2.4-3.7c0-0.6-0.5-1.1-1.1-1.1C42,77.2,41.6,77.5,41.3,78.1z"/>
</g>
<g>
	<path d="M46.3,63.7h0.6L46.8,70c0.4-0.7,1-1,1.8-1c1.2,0,2.2,0.8,2.2,1.9c0,0.8-0.5,1.8-1.7,2.7l-2.8,2.1V63.7z M46.9,70.6
		c-0.1,0.8-0.1,1.4-0.1,1.9c0,1,0,1.6,0.1,2c1-0.7,2.4-2.6,2.4-3.7c0-0.6-0.5-1.1-1.1-1.1C47.6,69.8,47.2,70.1,46.9,70.6z"/>
</g>
<g>
	<path d="M51.9,73.7h0.6l-0.1,6.2c0.4-0.7,1-1,1.8-1c1.2,0,2.2,0.8,2.2,1.9c0,0.8-0.5,1.8-1.7,2.7l-2.8,2.1V73.7z M52.4,80.6
		c-0.1,0.8-0.1,1.4-0.1,1.9c0,1,0,1.6,0.1,2c1-0.7,2.4-2.6,2.4-3.7c0-0.6-0.5-1.1-1.1-1.1C53.2,79.7,52.7,80,52.4,80.6z"/>
</g>
<polygon fill-rule="evenodd" clip-rule="evenodd" points="65,83.2 109.1,78.2 109.1,75.8 65,80.7 "/>
<polygon fill-rule="evenodd" clip-rule="evenodd" points="65,86.9 109.1,82 109.1,79.5 65,84.4 "/>
<polygon fill-rule="evenodd" clip-rule="evenodd" points="123.6,73.3 167.7,68.3 167.7,65.8 123.6,70.8 "/>
<polygon fill-rule="evenodd" clip-rule="evenodd" points="123.6,77 167.7,72 167.7,69.6 123.6,74.5 "/>
<polygon fill-rule="evenodd" clip-rule="evenodd" points="182.2,73.3 226.3,78.2 226.3,75.8 182.2,70.8 "/>
<polygon fill-rule="evenodd" clip-rule="evenodd" points="182.2,77 226.3,82 226.3,79.5 182.2,74.5 "/>
<rect x="240.8" y="82" fill-rule="evenodd" clip-rule="evenodd" width="44" height="2.5"/>
<rect x="240.8" y="85.7" fill-rule="evenodd" clip-rule="evenodd" width="44" height="2.5"/>
<polygon fill-rule="evenodd" clip-rule="evenodd" points="306.9,78.2 350.9,73.3 350.9,70.8 306.9,75.8 "/>
<polygon fill-rule="evenodd" clip-rule="evenodd" points="306.9,82 350.9,77 350.9,74.5 306.9,79.5 "/>
<g>
	<path d="M429.7,80.6c-3.2,0-6.1-2.3-6.1-5.1c0-2.4,1.7-5,5.1-7.9c-0.2-0.9-0.3-1.8-0.3-2.7c0-2.6,0.9-5.1,2.4-6.3
		c1.4,1.9,2,3.7,2,5.3c0,2.2-1,4.2-3.2,6.1l0.7,3.1c0.4,0,0.6,0,0.6,0c2,0,3.6,1.5,3.6,3.5c0,1.4-1.1,2.8-2.7,3.6
		c0-0.1,0.6,2.8,0.6,3.3c0,1.9-1.7,3.2-3.7,3.2c-1.5,0-2.7-1-2.7-2.5c0-1.1,0.7-1.9,1.8-1.9c1,0,1.7,1,1.7,1.9c0,1-0.9,1.7-2,1.8
		c0.4,0.2,0.9,0.3,1.4,0.3c1.6,0,3.1-1.2,3.1-2.7c0-0.1,0-0.3,0-0.5l-0.6-2.8C430.9,80.5,430.4,80.6,429.7,80.6z M428,76.7
		c0,0.8,0.4,1.4,1.2,1.9c-1.3-0.2-2.2-1.1-2.2-2.3c0-1.5,1.3-2.8,2.9-3.1l-0.6-3c-2.8,2.1-4.3,4.1-4.3,6.1c0,2.2,2.1,4,4.5,4
		c0.7,0,1.3-0.1,1.8-0.4l-1.1-5.1C429,74.9,428,75.7,428,76.7z M431.1,60.7c-1.2,0-2.2,2.8-2.2,5.3c0,0.5,0,1,0.1,1.4
		c2-1.8,3-3.4,3-4.8c0-0.7-0.3-1.3-0.7-1.8C431.3,60.7,431.2,60.7,431.1,60.7z M433.1,77.1c0-1.2-0.9-2.4-2.2-2.4c0,0-0.2,0-0.4,0
		l1.1,5C432.6,78.9,433.1,78.1,433.1,77.1z"/>
</g>
<polygon fill-rule="evenodd" clip-rule="evenodd" points="365.5,69.6 409.5,68.3 409.5,65.8 365.5,67.1 "/>
<polygon fill-rule="evenodd" clip-rule="evenodd" points="365.5,73.3 409.5,72 409.5,69.6 365.5,70.8 "/>
<polygon fill-rule="evenodd" clip-rule="evenodd" points="442.3,63.4 486.2,58.4 486.2,55.9 442.3,60.9 "/>
<polygon fill-rule="evenodd" clip-rule="evenodd" points="442.3,59.6 486.2,54.7 486.2,52.2 442.3,57.2 "/>
<polygon fill-rule="evenodd" clip-rule="evenodd" points="494.4,83.2 538.3,88.2 538.3,85.7 494.4,80.7 "/>
<polygon fill-rule="evenodd" clip-rule="evenodd" points="494.4,86.9 538.3,91.9 538.3,89.4 494.4,84.4 "/>
<rect x="8.5" y="164.4" width="544.4" height="0.5"/>
<rect x="8.5" y="159.4" width="544.4" height="0.5"/>
<rect x="8.5" y="154.4" width="544.4" height="0.5"/>
<rect x="8.5" y="149.5" width="544.4" height="0.5"/>
<rect x="8.5" y="144.5" width="544.4" height="0.5"/>
<g>
	<path d="M20.3,164.4c-4.2,0-8.1-3.1-8.1-6.9c0-3.2,2.3-6.7,6.8-10.5c-0.3-1.2-0.4-2.4-0.4-3.6c0-3.5,1.2-6.8,3.2-8.5
		c1.8,2.5,2.7,4.9,2.7,7.1c0,2.9-1.3,5.6-4.3,8.1l0.9,4.2c0.5,0,0.8-0.1,0.8-0.1c2.6,0,4.8,2,4.8,4.7c0,1.9-1.4,3.7-3.6,4.8
		c0-0.1,0.9,3.8,0.9,4.3c0,2.5-2.3,4.2-4.9,4.2c-2,0-3.6-1.3-3.6-3.4c0-1.4,1-2.6,2.4-2.6c1.3,0,2.3,1.3,2.3,2.5
		c0,1.4-1.2,2.3-2.7,2.5c0.6,0.3,1.2,0.5,1.9,0.5c2.1,0,4.1-1.6,4.1-3.6c0-0.2,0-0.4-0.1-0.6l-0.8-3.7
		C21.9,164.3,21.2,164.4,20.3,164.4z M18.1,159.2c0,1,0.5,1.9,1.6,2.5c-1.8-0.3-3-1.4-3-3.1c0-2,1.7-3.7,3.8-4.1l-0.8-4
		c-3.7,2.8-5.7,5.5-5.7,8.1c0,2.9,2.8,5.3,6,5.3c0.9,0,1.7-0.2,2.4-0.5l-1.4-6.8C19.4,156.8,18.1,157.8,18.1,159.2z M22.1,137.9
		c-1.6,0-2.9,3.7-2.9,7c0,0.7,0,1.3,0.2,1.9c2.7-2.4,4-4.5,4-6.5c0-0.9-0.3-1.7-1-2.4C22.4,137.9,22.3,137.9,22.1,137.9z
		 M24.9,159.7c0-1.6-1.2-3.3-2.9-3.3c-0.1,0-0.2,0-0.5,0l1.4,6.6C24.2,162.2,24.9,161,24.9,159.7z"/>
</g>
<g>
	<path d="M29.5,146.4h0.6l-0.1,6.2c0.4-0.7,1-1,1.8-1c1.2,0,2.2,0.8,2.2,1.9c0,0.8-0.5,1.8-1.7,2.7l-2.8,2.1V146.4z M30.1,153.3
		c-0.1,0.8-0.1,1.4-0.1,1.9c0,1,0,1.6,0.1,2c1-0.7,2.4-2.6,2.4-3.7c0-0.6-0.5-1.1-1.1-1.1C30.8,152.4,30.4,152.7,30.1,153.3z"/>
</g>
<g>
	<path d="M35.1,138.9h0.6l-0.1,6.2c0.4-0.7,1-1,1.8-1c1.2,0,2.2,0.8,2.2,1.9c0,0.8-0.5,1.8-1.7,2.7l-2.8,2.1V138.9z M35.7,145.8
		c-0.1,0.8-0.1,1.4-0.1,1.9c0,1,0,1.6,0.1,2c1-0.7,2.4-2.6,2.4-3.7c0-0.6-0.5-1.1-1.1-1.1C36.4,145,36,145.3,35.7,145.8z"/>
</g>
<g>
	<path d="M40.7,148.8h0.6l-0.1,6.2c0.4-0.7,1-1,1.8-1c1.2,0,2.2,0.8,2.2,1.9c0,0.8-0.5,1.8-1.7,2.7l-2.8,2.1V148.8z M41.3,155.7
		c-0.1,0.8-0.1,1.4-0.1,1.9c0,1,0,1.6,0.1,2c1-0.7,2.4-2.6,2.4-3.7c0-0.6-0.5-1.1-1.1-1.1C42,154.9,41.6,155.2,41.3,155.7z"/>
</g>
<g>
	<path d="M46.3,141.4h0.6l-0.1,6.2c0.4-0.7,1-1,1.8-1c1.2,0,2.2,0.8,2.2,1.9c0,0.8-0.5,1.8-1.7,2.7l-2.8,2.1V141.4z M46.9,148.3
		c-0.1,0.8-0.1,1.4-0.1,1.9c0,1,0,1.6,0.1,2c1-0.7,2.4-2.6,2.4-3.7c0-0.6-0.5-1.1-1.1-1.1C47.6,147.5,47.2,147.7,46.9,148.3z"/>
</g>
<g>
	<path d="M51.9,151.3h0.6l-0.1,6.2c0.4-0.7,1-1,1.8-1c1.2,0,2.2,0.8,2.2,1.9c0,0.8-0.5,1.8-1.7,2.7l-2.8,2.1V151.3z M52.4,158.2
		c-0.1,0.8-0.1,1.4-0.1,1.9c0,1,0,1.6,0.1,2c1-0.7,2.4-2.6,2.4-3.7c0-0.6-0.5-1.1-1.1-1.1C53.2,157.4,52.7,157.7,52.4,158.2z"/>
</g>
<polygon fill-rule="evenodd" clip-rule="evenodd" points="65,155.9 116.5,160.9 116.5,158.4 65,153.4 "/>
<polygon fill-rule="evenodd" clip-rule="evenodd" points="65,159.6 116.5,164.6 116.5,162.1 65,157.1 "/>
<polygon fill-rule="evenodd" clip-rule="evenodd" points="142.9,160.9 194.2,155.9 194.2,153.4 142.9,158.4 "/>
<polygon fill-rule="evenodd" clip-rule="evenodd" points="142.9,164.6 194.2,159.6 194.2,157.1 142.9,162.1 "/>
<polygon fill-rule="evenodd" clip-rule="evenodd" points="211.4,152.2 262.7,150.9 262.7,148.5 211.4,149.7 "/>
<polygon fill-rule="evenodd" clip-rule="evenodd" points="211.4,155.9 262.7,154.7 262.7,152.2 211.4,153.4 "/>
<polygon fill-rule="evenodd" clip-rule="evenodd" points="279.9,150.9 331.2,155.9 331.2,153.4 279.9,148.5 "/>
<polygon fill-rule="evenodd" clip-rule="evenodd" points="279.9,154.7 331.2,159.6 331.2,157.1 279.9,152.2 "/>
<polygon fill-rule="evenodd" clip-rule="evenodd" points="355.8,160.9 407.3,165.8 407.3,163.3 355.8,158.4 "/>
<polygon fill-rule="evenodd" clip-rule="evenodd" points="355.8,164.6 407.3,169.5 407.3,167.1 355.8,162.1 "/>
<polygon fill-rule="evenodd" clip-rule="evenodd" points="430.9,146 482.3,150.9 482.3,148.5 430.9,143.5 "/>
<polygon fill-rule="evenodd" clip-rule="evenodd" points="430.9,142.3 482.3,147.2 482.3,144.7 430.9,139.8 "/>
<rect x="8.5" y="211.5" width="544.4" height="0.5"/>
<rect x="8.5" y="206.5" width="544.4" height="0.5"/>
<rect x="8.5" y="201.6" width="544.4" height="0.5"/>
<rect x="8.5" y="196.6" width="544.4" height="0.5"/>
<rect x="8.5" y="191.6" width="544.4" height="0.5"/>
<g>
	<path d="M20.3,211.5c-4.2,0-8.1-3.1-8.1-6.9c0-3.2,2.3-6.7,6.8-10.5c-0.3-1.2-0.4-2.4-0.4-3.6c0-3.5,1.2-6.8,3.2-8.5
		c1.8,2.5,2.7,4.9,2.7,7.1c0,2.9-1.3,5.6-4.3,8.1l0.9,4.2c0.5,0,0.8-0.1,0.8-0.1c2.6,0,4.8,2,4.8,4.7c0,1.9-1.4,3.7-3.6,4.8
		c0-0.1,0.9,3.8,0.9,4.3c0,2.5-2.3,4.2-4.9,4.2c-2,0-3.6-1.3-3.6-3.4c0-1.4,1-2.6,2.4-2.6c1.3,0,2.3,1.3,2.3,2.5
		c0,1.4-1.2,2.3-2.7,2.5c0.6,0.3,1.2,0.5,1.9,0.5c2.1,0,4.1-1.6,4.1-3.6c0-0.2,0-0.4-0.1-0.6l-0.8-3.7
		C21.9,211.4,21.2,211.5,20.3,211.5z M18.1,206.3c0,1,0.5,1.9,1.6,2.5c-1.8-0.3-3-1.4-3-3.1c0-2,1.7-3.7,3.8-4.1l-0.8-4
		c-3.7,2.8-5.7,5.5-5.7,8.1c0,2.9,2.8,5.3,6,5.3c0.9,0,1.7-0.2,2.4-0.5l-1.4-6.8C19.4,203.9,18.1,205,18.1,206.3z M22.1,185
		c-1.6,0-2.9,3.7-2.9,7c0,0.7,0,1.3,0.2,1.9c2.7-2.4,4-4.5,4-6.5c0-0.9-0.3-1.7-1-2.4C22.4,185,22.3,185,22.1,185z M24.9,206.9
		c0-1.6-1.2-3.3-2.9-3.3c-0.1,0-0.2,0-0.5,0l1.4,6.6C24.2,209.3,24.9,208.2,24.9,206.9z"/>
</g>
<g>
	<path d="M29.5,193.5h0.6l-0.1,6.2c0.4-0.7,1-1,1.8-1c1.2,0,2.2,0.8,2.2,1.9c0,0.8-0.5,1.8-1.7,2.7l-2.8,2.1V193.5z M30.1,200.4
		c-0.1,0.8-0.1,1.4-0.1,1.9c0,1,0,1.6,0.1,2c1-0.7,2.4-2.6,2.4-3.7c0-0.6-0.5-1.1-1.1-1.1C30.8,199.5,30.4,199.8,30.1,200.4z"/>
</g>
<g>
	<path d="M35.1,186h0.6l-0.1,6.2c0.4-0.7,1-1,1.8-1c1.2,0,2.2,0.8,2.2,1.9c0,0.8-0.5,1.8-1.7,2.7l-2.8,2.1V186z M35.7,192.9
		c-0.1,0.8-0.1,1.4-0.1,1.9c0,1,0,1.6,0.1,2c1-0.7,2.4-2.6,2.4-3.7c0-0.6-0.5-1.1-1.1-1.1C36.4,192.1,36,192.4,35.7,192.9z"/>
</g>
<g>
	<path d="M40.7,196h0.6l-0.1,6.2c0.4-0.7,1-1,1.8-1c1.2,0,2.2,0.8,2.2,1.9c0,0.8-0.5,1.8-1.7,2.7l-2.8,2.1V196z M41.3,202.9
		c-0.1,0.8-0.1,1.4-0.1,1.9c0,1,0,1.6,0.1,2c1-0.7,2.4-2.6,2.4-3.7c0-0.6-0.5-1.1-1.1-1.1C42,202,41.6,202.3,41.3,202.9z"/>
</g>
<g>
	<path d="M46.3,188.5h0.6l-0.1,6.2c0.4-0.7,1-1,1.8-1c1.2,0,2.2,0.8,2.2,1.9c0,0.8-0.5,1.8-1.7,2.7l-2.8,2.1V188.5z M46.9,195.4
		c-0.1,0.8-0.1,1.4-0.1,1.9c0,1,0,1.6,0.1,2c1-0.7,2.4-2.6,2.4-3.7c0-0.6-0.5-1.1-1.1-1.1C47.6,194.6,47.2,194.9,46.9,195.4z"/>
</g>
<g>
	<path d="M51.9,198.4h0.6l-0.1,6.2c0.4-0.7,1-1,1.8-1c1.2,0,2.2,0.8,2.2,1.9c0,0.8-0.5,1.8-1.7,2.7l-2.8,2.1V198.4z M52.4,205.3
		c-0.1,0.8-0.1,1.4-0.1,1.9c0,1,0,1.6,0.1,2c1-0.7,2.4-2.6,2.4-3.7c0-0.6-0.5-1.1-1.1-1.1C53.2,204.5,52.7,204.8,52.4,205.3z"/>
</g>
<g>
	<path d="M131.4,203.7c2.2-2,3.6-4.6,3.6-6.9c0-1.9-1.1-3.3-2.8-3.3c-1.2,0-2.5,1-2.5,2.1c0,0.2,0,0.2,0.1,0.2c0,0,0.4-0.5,1-0.5
		c0.7,0,1.2,0.6,1.2,1.3c0,0.9-0.6,1.7-1.6,1.7c-0.9,0-1.5-1-1.5-2.1c0-1.8,1.7-3.1,3.6-3.1c3.5,0,4.4,2.4,4.4,4.4
		c0,1.2-0.3,2.2-1.5,4c-1.4,2.3-4.8,4-6,4c-0.3,0-0.5-0.1-0.5-0.3C130,204.7,130.8,204.3,131.4,203.7z M138.9,194.2
		c0.4,0,0.7,0.3,0.7,0.7c0,0.4-0.3,0.7-0.7,0.7s-0.7-0.3-0.7-0.7C138.1,194.5,138.5,194.2,138.9,194.2z M138.9,197.9
		c0.4,0,0.7,0.3,0.7,0.7c0,0.4-0.3,0.7-0.7,0.7s-0.7-0.3-0.7-0.7C138.1,198.3,138.5,197.9,138.9,197.9z"/>
</g>
<polygon fill-rule="evenodd" clip-rule="evenodd" points="71.6,198.1 123,203 123,200.5 71.6,195.6 "/>
<polygon fill-rule="evenodd" clip-rule="evenodd" points="71.6,194.3 123,199.3 123,196.8 71.6,191.9 "/>
<polygon fill-rule="evenodd" clip-rule="evenodd" points="142.9,203 194.2,208 194.2,205.5 142.9,200.5 "/>
<polygon fill-rule="evenodd" clip-rule="evenodd" points="142.9,206.7 194.2,211.7 194.2,209.2 142.9,204.3 "/>
<rect x="211.4" y="211.7" fill-rule="evenodd" clip-rule="evenodd" width="51.3" height="2.5"/>
<rect x="211.4" y="215.4" fill-rule="evenodd" clip-rule="evenodd" width="51.3" height="2.5"/>
<polygon fill-rule="evenodd" clip-rule="evenodd" points="279.9,208 331.2,203 331.2,200.5 279.9,205.5 "/>
<polygon fill-rule="evenodd" clip-rule="evenodd" points="279.9,211.7 331.2,206.7 331.2,204.3 279.9,209.2 "/>
<polygon fill-rule="evenodd" clip-rule="evenodd" points="355.8,203 407.3,204.3 407.3,201.8 355.8,200.5 "/>
<polygon fill-rule="evenodd" clip-rule="evenodd" points="355.8,206.7 407.3,208 407.3,205.5 355.8,204.3 "/>
<polygon fill-rule="evenodd" clip-rule="evenodd" points="424.4,208 475.8,212.9 475.8,210.5 424.4,205.5 "/>
<polygon fill-rule="evenodd" clip-rule="evenodd" points="424.4,211.7 475.8,216.7 475.8,214.2 424.4,209.2 "/>
<rect x="71.3" y="20.1" width="0.5" height="16.4"/>
<g>
	<path d="M64.9,38.2c0-1.8,2.5-3.5,4.5-3.5c1.3,0,2.3,0.7,2.3,1.7c0,1.7-2.5,3.5-4.6,3.5C65.9,39.9,64.9,39.3,64.9,38.2z"/>
</g>
<rect x="86" y="18.6" width="0.5" height="15.5"/>
<g>
	<path d="M79.6,35.7c0-1.8,2.5-3.5,4.5-3.5c1.3,0,2.3,0.7,2.3,1.7c0,1.7-2.5,3.5-4.6,3.5C80.6,37.4,79.6,36.8,79.6,35.7z"/>
</g>
<rect x="100.6" y="16.9" width="0.5" height="14.7"/>
<g>
	<path d="M94.2,33.2c0-1.8,2.5-3.5,4.5-3.5c1.3,0,2.3,0.7,2.3,1.7c0,1.7-2.5,3.5-4.6,3.5C95.2,34.9,94.2,34.3,94.2,33.2z"/>
</g>
<rect x="115.3" y="15.2" width="0.5" height="14"/>
<g>
	<path d="M108.9,30.7c0-1.8,2.5-3.5,4.5-3.5c1.3,0,2.3,0.7,2.3,1.7c0,1.7-2.5,3.5-4.6,3.5C109.9,32.5,108.9,31.8,108.9,30.7z"/>
</g>
<rect x="123.4" y="28.2" width="0.5" height="16.4"/>
<g>
	<path d="M123.5,28.3c0-1.8,2.5-3.5,4.5-3.5c1.3,0,2.3,0.7,2.3,1.7c0,1.7-2.5,3.5-4.6,3.5C124.5,30,123.5,29.3,123.5,28.3z"/>
</g>
<rect x="138.1" y="25.7" width="0.5" height="17.4"/>
<g>
	<path d="M138.2,25.8c0-1.8,2.5-3.5,4.5-3.5c1.3,0,2.3,0.7,2.3,1.7c0,1.7-2.5,3.5-4.6,3.5C139.2,27.5,138.2,26.9,138.2,25.8z"/>
</g>
<rect x="152.7" y="23.2" width="0.5" height="18.1"/>
<g>
	<path d="M152.8,23.3c0-1.8,2.5-3.5,4.5-3.5c1.3,0,2.3,0.7,2.3,1.7c0,1.7-2.5,3.5-4.6,3.5C153.8,25,152.8,24.4,152.8,23.3z"/>
</g>
<rect x="167.4" y="20.7" width="0.5" height="18.9"/>
<g>
	<path d="M167.5,20.8c0-1.8,2.5-3.5,4.5-3.5c1.3,0,2.3,0.7,2.3,1.7c0,1.7-2.5,3.5-4.6,3.5C168.5,22.5,167.5,21.9,167.5,20.8z"/>
</g>
<rect x="182" y="18.3" width="0.5" height="16.4"/>
<g>
	<path d="M182.1,18.3c0-1.8,2.5-3.5,4.5-3.5c1.3,0,2.3,0.7,2.3,1.7c0,1.7-2.5,3.5-4.6,3.5C183,20.1,182.1,19.4,182.1,18.3z"/>
</g>
<rect x="196.7" y="15.8" width="0.5" height="17.4"/>
<g>
	<path d="M196.8,15.9c0-1.8,2.5-3.5,4.5-3.5c1.3,0,2.3,0.7,2.3,1.7c0,1.7-2.5,3.5-4.6,3.5C197.8,17.6,196.8,16.9,196.8,15.9z"/>
</g>
<rect x="211.3" y="13.3" width="0.5" height="18.1"/>
<g>
	<path d="M211.4,13.4c0-1.8,2.5-3.5,4.5-3.5c1.3,0,2.3,0.7,2.3,1.7c0,1.7-2.5,3.5-4.6,3.5C212.3,15.1,211.4,14.5,211.4,13.4z"/>
</g>
<rect x="224.2" y="9.7" width="10.5" height="0.8"/>
<rect x="226" y="10.8" width="0.5" height="18.9"/>
<g>
	<path d="M226.1,10.9c0-1.8,2.5-3.5,4.5-3.5c1.3,0,2.3,0.7,2.3,1.7c0,1.7-2.5,3.5-4.6,3.5C227.1,12.6,226.1,12,226.1,10.9z"/>
</g>
<rect x="238.8" y="9.7" width="10.5" height="0.8"/>
<rect x="240.6" y="8.3" width="0.5" height="17.7"/>
<g>
	<path d="M240.7,8.4c0-1.8,2.5-3.5,4.5-3.5c1.3,0,2.3,0.7,2.3,1.7c0,1.7-2.5,3.5-4.6,3.5C241.6,10.1,240.7,9.5,240.7,8.4z"/>
</g>
<rect x="253.5" y="9.7" width="10.5" height="0.8"/>
<rect x="253.5" y="4.7" width="10.5" height="0.8"/>
<rect x="255.3" y="5.9" width="0.5" height="19.8"/>
<g>
	<path d="M255.4,5.9c0-1.8,2.5-3.5,4.5-3.5c1.3,0,2.3,0.7,2.3,1.7c0,1.7-2.5,3.5-4.6,3.5C256.4,7.7,255.4,7,255.4,5.9z"/>
</g>
<rect x="268.1" y="9.7" width="10.5" height="0.8"/>
<rect x="268.1" y="4.7" width="10.5" height="0.8"/>
<rect x="269.9" y="3.4" width="0.5" height="21.9"/>
<g>
	<path d="M270,3.5c0-1.8,2.5-3.5,4.5-3.5c1.3,0,2.3,0.7,2.3,1.7c0,1.7-2.5,3.5-4.6,3.5C270.9,5.2,270,4.5,270,3.5z"/>
</g>
<rect x="282.8" y="9.7" width="10.5" height="0.8"/>
<rect x="282.8" y="4.7" width="10.5" height="0.8"/>
<rect x="284.6" y="5.9" width="0.5" height="18.9"/>
<g>
	<path d="M284.7,5.9c0-1.8,2.5-3.5,4.5-3.5c1.3,0,2.3,0.7,2.3,1.7c0,1.7-2.5,3.5-4.6,3.5C285.7,7.7,284.7,7,284.7,5.9z"/>
</g>
<rect x="304.8" y="9.7" width="10.5" height="0.8"/>
<rect x="306.6" y="8.3" width="0.5" height="16.4"/>
<g>
	<path d="M306.7,8.4c0-1.8,2.5-3.5,4.5-3.5c1.3,0,2.3,0.7,2.3,1.7c0,1.7-2.5,3.5-4.6,3.5C307.7,10.1,306.7,9.5,306.7,8.4z"/>
</g>
<rect x="319.6" y="9.7" width="10.5" height="0.8"/>
<rect x="321.4" y="10.8" width="0.5" height="15.5"/>
<g>
	<path d="M321.4,10.9c0-1.8,2.5-3.5,4.5-3.5c1.3,0,2.3,0.7,2.3,1.7c0,1.7-2.5,3.5-4.6,3.5C322.4,12.6,321.4,12,321.4,10.9z"/>
</g>
<rect x="335.9" y="13.3" width="0.5" height="14.7"/>
<g>
	<path d="M336,13.4c0-1.8,2.5-3.5,4.5-3.5c1.3,0,2.3,0.7,2.3,1.7c0,1.7-2.5,3.5-4.6,3.5C337,15.1,336,14.5,336,13.4z"/>
</g>
<rect x="350.7" y="15.8" width="0.5" height="14"/>
<g>
	<path d="M350.7,15.9c0-1.8,2.5-3.5,4.5-3.5c1.3,0,2.3,0.7,2.3,1.7c0,1.7-2.5,3.5-4.6,3.5C351.7,17.6,350.7,16.9,350.7,15.9z"/>
</g>
<rect x="365.2" y="18.3" width="0.5" height="17.7"/>
<g>
	<path d="M365.3,18.3c0-1.8,2.5-3.5,4.5-3.5c1.3,0,2.3,0.7,2.3,1.7c0,1.7-2.5,3.5-4.6,3.5C366.3,20.1,365.3,19.4,365.3,18.3z"/>
</g>
<rect x="380" y="20.7" width="0.5" height="15.2"/>
<g>
	<path d="M380,20.8c0-1.8,2.5-3.5,4.5-3.5c1.3,0,2.3,0.7,2.3,1.7c0,1.7-2.5,3.5-4.6,3.5C381,22.5,380,21.9,380,20.8z"/>
</g>
<rect x="394.5" y="18.3" width="0.5" height="17.7"/>
<g>
	<path d="M394.6,18.3c0-1.8,2.5-3.5,4.5-3.5c1.3,0,2.3,0.7,2.3,1.7c0,1.7-2.5,3.5-4.6,3.5C395.6,20.1,394.6,19.4,394.6,18.3z"/>
</g>
<rect x="409.3" y="15.8" width="0.5" height="20.2"/>
<g>
	<path d="M409.3,15.9c0-1.8,2.5-3.5,4.5-3.5c1.3,0,2.3,0.7,2.3,1.7c0,1.7-2.5,3.5-4.6,3.5C410.3,17.6,409.3,16.9,409.3,15.9z"/>
</g>
<rect x="435.6" y="13.3" width="0.5" height="16.4"/>
<g>
	<path d="M435.7,13.4c0-1.8,2.5-3.5,4.5-3.5c1.3,0,2.3,0.7,2.3,1.7c0,1.7-2.5,3.5-4.6,3.5C436.7,15.1,435.7,14.5,435.7,13.4z"/>
</g>
<rect x="448.4" y="9.7" width="10.5" height="0.8"/>
<rect x="450.2" y="10.8" width="0.5" height="17.4"/>
<g>
	<path d="M450.3,10.9c0-1.8,2.5-3.5,4.5-3.5c1.3,0,2.3,0.7,2.3,1.7c0,1.7-2.5,3.5-4.6,3.5C451.2,12.6,450.3,12,450.3,10.9z"/>
</g>
<rect x="463.1" y="9.7" width="10.5" height="0.8"/>
<rect x="464.9" y="8.3" width="0.5" height="18.1"/>
<g>
	<path d="M465,8.4c0-1.8,2.5-3.5,4.5-3.5c1.3,0,2.3,0.7,2.3,1.7c0,1.7-2.5,3.5-4.6,3.5C466,10.1,465,9.5,465,8.4z"/>
</g>
<rect x="477.7" y="9.7" width="10.5" height="0.8"/>
<rect x="477.7" y="4.7" width="10.5" height="0.8"/>
<rect x="479.5" y="5.9" width="0.5" height="18.9"/>
<g>
	<path d="M479.6,5.9c0-1.8,2.5-3.5,4.5-3.5c1.3,0,2.3,0.7,2.3,1.7c0,1.7-2.5,3.5-4.6,3.5C480.5,7.7,479.6,7,479.6,5.9z"/>
</g>
<rect x="492.4" y="9.7" width="10.5" height="0.8"/>
<rect x="492.4" y="4.7" width="10.5" height="0.8"/>
<rect x="494.2" y="3.4" width="0.5" height="21.4"/>
<g>
	<path d="M494.3,3.5c0-1.8,2.5-3.5,4.5-3.5c1.3,0,2.3,0.7,2.3,1.7c0,1.7-2.5,3.5-4.6,3.5C495.2,5.2,494.3,4.5,494.3,3.5z"/>
</g>
<rect x="507" y="9.7" width="10.5" height="0.8"/>
<rect x="507" y="4.7" width="10.5" height="0.8"/>
<rect x="508.8" y="5.9" width="0.5" height="19.2"/>
<g>
	<path d="M508.8,5.9c0-1.8,2.5-3.5,4.5-3.5c1.3,0,2.3,0.7,2.3,1.7c0,1.7-2.5,3.5-4.6,3.5C509.8,7.7,508.8,7,508.8,5.9z"/>
</g>
<rect x="521.7" y="9.7" width="10.5" height="0.8"/>
<rect x="523.5" y="8.3" width="0.5" height="17.2"/>
<g>
	<path d="M523.6,8.4c0-1.8,2.5-3.5,4.5-3.5c1.3,0,2.3,0.7,2.3,1.7c0,1.7-2.5,3.5-4.6,3.5C524.5,10.1,523.6,9.5,523.6,8.4z"/>
</g>
<rect x="536.3" y="9.7" width="10.5" height="0.8"/>
<rect x="538.1" y="10.8" width="0.5" height="15.2"/>
<g>
	<path d="M538.1,10.9c0-1.8,2.5-3.5,4.5-3.5c1.3,0,2.3,0.7,2.3,1.7c0,1.7-2.5,3.5-4.6,3.5C539.1,12.6,538.1,12,538.1,10.9z"/>
</g>
<rect x="64.8" y="72.8" width="0.5" height="14"/>
<g>
	<path d="M64.9,72.9c0-1.8,2.5-3.5,4.5-3.5c1.3,0,2.3,0.7,2.3,1.7c0,1.7-2.5,3.5-4.6,3.5C65.9,74.6,64.9,74,64.9,72.9z"/>
</g>
<rect x="79.5" y="70.3" width="0.5" height="14.9"/>
<g>
	<path d="M79.6,70.4c0-1.8,2.5-3.5,4.5-3.5c1.3,0,2.3,0.7,2.3,1.7c0,1.7-2.5,3.5-4.6,3.5C80.6,72.1,79.6,71.5,79.6,70.4z"/>
</g>
<rect x="94.1" y="67.9" width="0.5" height="15.7"/>
<g>
	<path d="M94.2,67.9c0-1.8,2.5-3.5,4.5-3.5c1.3,0,2.3,0.7,2.3,1.7c0,1.7-2.5,3.5-4.6,3.5C95.2,69.7,94.2,69,94.2,67.9z"/>
</g>
<rect x="108.8" y="65.4" width="0.5" height="16.4"/>
<g>
	<path d="M108.9,65.5c0-1.8,2.5-3.5,4.5-3.5c1.3,0,2.3,0.7,2.3,1.7c0,1.7-2.5,3.5-4.6,3.5C109.9,67.2,108.9,66.5,108.9,65.5z"/>
</g>
<rect x="123.4" y="62.9" width="0.5" height="14"/>
<g>
	<path d="M123.5,63c0-1.8,2.5-3.5,4.5-3.5c1.3,0,2.3,0.7,2.3,1.7c0,1.7-2.5,3.5-4.6,3.5C124.5,64.7,123.5,64.1,123.5,63z"/>
</g>
<rect x="138.1" y="60.4" width="0.5" height="14.9"/>
<g>
	<path d="M138.2,60.5c0-1.8,2.5-3.5,4.5-3.5c1.3,0,2.3,0.7,2.3,1.7c0,1.7-2.5,3.5-4.6,3.5C139.2,62.2,138.2,61.6,138.2,60.5z"/>
</g>
<rect x="150.9" y="56.8" width="10.5" height="0.8"/>
<rect x="152.7" y="57.9" width="0.5" height="15.7"/>
<g>
	<path d="M152.8,58c0-1.8,2.5-3.5,4.5-3.5c1.3,0,2.3,0.7,2.3,1.7c0,1.7-2.5,3.5-4.6,3.5C153.8,59.7,152.8,59.1,152.8,58z"/>
</g>
<rect x="165.6" y="56.8" width="10.5" height="0.8"/>
<rect x="167.4" y="55.5" width="0.5" height="16.4"/>
<g>
	<path d="M167.5,55.5c0-1.8,2.5-3.5,4.5-3.5c1.3,0,2.3,0.7,2.3,1.7c0,1.7-2.5,3.5-4.6,3.5C168.5,57.3,167.5,56.6,167.5,55.5z"/>
</g>
<rect x="180.2" y="56.8" width="10.5" height="0.8"/>
<rect x="182" y="57.9" width="0.5" height="18.9"/>
<g>
	<path d="M182.1,58c0-1.8,2.5-3.5,4.5-3.5c1.3,0,2.3,0.7,2.3,1.7c0,1.7-2.5,3.5-4.6,3.5C183,59.7,182.1,59.1,182.1,58z"/>
</g>
<rect x="196.7" y="60.4" width="0.5" height="18"/>
<g>
	<path d="M196.8,60.5c0-1.8,2.5-3.5,4.5-3.5c1.3,0,2.3,0.7,2.3,1.7c0,1.7-2.5,3.5-4.6,3.5C197.8,62.2,196.8,61.6,196.8,60.5z"/>
</g>
<rect x="211.3" y="62.9" width="0.5" height="17.2"/>
<g>
	<path d="M211.4,63c0-1.8,2.5-3.5,4.5-3.5c1.3,0,2.3,0.7,2.3,1.7c0,1.7-2.5,3.5-4.6,3.5C212.3,64.7,211.4,64.1,211.4,63z"/>
</g>
<rect x="226" y="65.4" width="0.5" height="16.4"/>
<g>
	<path d="M226.1,65.5c0-1.8,2.5-3.5,4.5-3.5c1.3,0,2.3,0.7,2.3,1.7c0,1.7-2.5,3.5-4.6,3.5C227.1,67.2,226.1,66.5,226.1,65.5z"/>
</g>
<rect x="240.6" y="67.9" width="0.5" height="20.2"/>
<g>
	<path d="M240.7,67.9c0-1.8,2.5-3.5,4.5-3.5c1.3,0,2.3,0.7,2.3,1.7c0,1.7-2.5,3.5-4.6,3.5C241.6,69.7,240.7,69,240.7,67.9z"/>
</g>
<rect x="255.3" y="70.3" width="0.5" height="17.7"/>
<g>
	<path d="M255.4,70.4c0-1.8,2.5-3.5,4.5-3.5c1.3,0,2.3,0.7,2.3,1.7c0,1.7-2.5,3.5-4.6,3.5C256.4,72.1,255.4,71.5,255.4,70.4z"/>
</g>
<rect x="269.9" y="72.8" width="0.5" height="15.2"/>
<g>
	<path d="M270,72.9c0-1.8,2.5-3.5,4.5-3.5c1.3,0,2.3,0.7,2.3,1.7c0,1.7-2.5,3.5-4.6,3.5C270.9,74.6,270,74,270,72.9z"/>
</g>
<rect x="284.6" y="70.3" width="0.5" height="17.7"/>
<g>
	<path d="M284.7,70.4c0-1.8,2.5-3.5,4.5-3.5c1.3,0,2.3,0.7,2.3,1.7c0,1.7-2.5,3.5-4.6,3.5C285.7,72.1,284.7,71.5,284.7,70.4z"/>
</g>
<rect x="306.6" y="67.9" width="0.5" height="14"/>
<g>
	<path d="M306.7,67.9c0-1.8,2.5-3.5,4.5-3.5c1.3,0,2.3,0.7,2.3,1.7c0,1.7-2.5,3.5-4.6,3.5C307.7,69.7,306.7,69,306.7,67.9z"/>
</g>
<rect x="321.4" y="65.4" width="0.5" height="14.9"/>
<g>
	<path d="M321.4,65.5c0-1.8,2.5-3.5,4.5-3.5c1.3,0,2.3,0.7,2.3,1.7c0,1.7-2.5,3.5-4.6,3.5C322.4,67.2,321.4,66.5,321.4,65.5z"/>
</g>
<rect x="335.9" y="62.9" width="0.5" height="15.7"/>
<g>
	<path d="M336,63c0-1.8,2.5-3.5,4.5-3.5c1.3,0,2.3,0.7,2.3,1.7c0,1.7-2.5,3.5-4.6,3.5C337,64.7,336,64.1,336,63z"/>
</g>
<rect x="350.7" y="60.4" width="0.5" height="16.4"/>
<g>
	<path d="M350.7,60.5c0-1.8,2.5-3.5,4.5-3.5c1.3,0,2.3,0.7,2.3,1.7c0,1.7-2.5,3.5-4.6,3.5C351.7,62.2,350.7,61.6,350.7,60.5z"/>
</g>
<rect x="363.4" y="56.8" width="10.5" height="0.8"/>
<rect x="365.2" y="57.9" width="0.5" height="15.2"/>
<g>
	<path d="M365.3,58c0-1.8,2.5-3.5,4.5-3.5c1.3,0,2.3,0.7,2.3,1.7c0,1.7-2.5,3.5-4.6,3.5C366.3,59.7,365.3,59.1,365.3,58z"/>
</g>
<rect x="378.2" y="56.8" width="10.5" height="0.8"/>
<rect x="380" y="55.5" width="0.5" height="17.4"/>
<g>
	<path d="M380,55.5c0-1.8,2.5-3.5,4.5-3.5c1.3,0,2.3,0.7,2.3,1.7c0,1.7-2.5,3.5-4.6,3.5C381,57.3,380,56.6,380,55.5z"/>
</g>
<rect x="392.7" y="56.8" width="10.5" height="0.8"/>
<rect x="392.7" y="51.8" width="10.5" height="0.8"/>
<rect x="394.5" y="53" width="0.5" height="19.4"/>
<g>
	<path d="M394.6,53.1c0-1.8,2.5-3.5,4.5-3.5c1.3,0,2.3,0.7,2.3,1.7c0,1.7-2.5,3.5-4.6,3.5C395.6,54.8,394.6,54.1,394.6,53.1z"/>
</g>
<rect x="407.5" y="56.8" width="10.5" height="0.8"/>
<rect x="407.5" y="51.8" width="10.5" height="0.8"/>
<rect x="409.3" y="50.5" width="0.5" height="21.4"/>
<g>
	<path d="M409.3,50.6c0-1.8,2.5-3.5,4.5-3.5c1.3,0,2.3,0.7,2.3,1.7c0,1.7-2.5,3.5-4.6,3.5C410.3,52.3,409.3,51.7,409.3,50.6z"/>
</g>
<rect x="442.1" y="57.3" width="0.5" height="18.9"/>
<g>
	<path d="M435.7,77.9c0-1.8,2.5-3.5,4.5-3.5c1.3,0,2.3,0.7,2.3,1.7c0,1.7-2.5,3.5-4.6,3.5C436.7,79.6,435.7,78.9,435.7,77.9z"/>
</g>
<rect x="456.7" y="55.8" width="0.5" height="18"/>
<g>
	<path d="M450.3,75.4c0-1.8,2.5-3.5,4.5-3.5c1.3,0,2.3,0.7,2.3,1.7c0,1.7-2.5,3.5-4.6,3.5C451.2,77.1,450.3,76.5,450.3,75.4z"/>
</g>
<rect x="471.4" y="54.1" width="0.5" height="17.2"/>
<g>
	<path d="M465,72.9c0-1.8,2.5-3.5,4.5-3.5c1.3,0,2.3,0.7,2.3,1.7c0,1.7-2.5,3.5-4.6,3.5C466,74.6,465,74,465,72.9z"/>
</g>
<rect x="486" y="52.4" width="0.5" height="16.4"/>
<g>
	<path d="M479.6,70.4c0-1.8,2.5-3.5,4.5-3.5c1.3,0,2.3,0.7,2.3,1.7c0,1.7-2.5,3.5-4.6,3.5C480.5,72.1,479.6,71.5,479.6,70.4z"/>
</g>
<rect x="494.2" y="67.9" width="0.5" height="18.9"/>
<g>
	<path d="M494.3,67.9c0-1.8,2.5-3.5,4.5-3.5c1.3,0,2.3,0.7,2.3,1.7c0,1.7-2.5,3.5-4.6,3.5C495.2,69.7,494.3,69,494.3,67.9z"/>
</g>
<rect x="508.8" y="70.3" width="0.5" height="18"/>
<g>
	<path d="M508.8,70.4c0-1.8,2.5-3.5,4.5-3.5c1.3,0,2.3,0.7,2.3,1.7c0,1.7-2.5,3.5-4.6,3.5C509.8,72.1,508.8,71.5,508.8,70.4z"/>
</g>
<rect x="523.5" y="72.8" width="0.5" height="17.2"/>
<g>
	<path d="M523.6,72.9c0-1.8,2.5-3.5,4.5-3.5c1.3,0,2.3,0.7,2.3,1.7c0,1.7-2.5,3.5-4.6,3.5C524.5,74.6,523.6,74,523.6,72.9z"/>
</g>
<rect x="538.1" y="75.3" width="0.5" height="16.4"/>
<g>
	<path d="M538.1,75.4c0-1.8,2.5-3.5,4.5-3.5c1.3,0,2.3,0.7,2.3,1.7c0,1.7-2.5,3.5-4.6,3.5C539.1,77.1,538.1,76.5,538.1,75.4z"/>
</g>
<rect x="64.8" y="143" width="0.5" height="16.4"/>
<g>
	<path d="M64.9,143.1c0-1.8,2.5-3.5,4.5-3.5c1.3,0,2.3,0.7,2.3,1.7c0,1.7-2.5,3.5-4.6,3.5C65.9,144.8,64.9,144.2,64.9,143.1z"/>
</g>
<rect x="82" y="145.5" width="0.5" height="15.5"/>
<g>
	<path d="M82.1,145.6c0-1.8,2.5-3.5,4.5-3.5c1.3,0,2.3,0.7,2.3,1.7c0,1.7-2.5,3.5-4.6,3.5C83.1,147.3,82.1,146.7,82.1,145.6z"/>
</g>
<rect x="99.1" y="148" width="0.5" height="14.7"/>
<g>
	<path d="M99.1,148.1c0-1.8,2.5-3.5,4.5-3.5c1.3,0,2.3,0.7,2.3,1.7c0,1.7-2.5,3.5-4.6,3.5C100.1,149.8,99.1,149.2,99.1,148.1z"/>
</g>
<rect x="116.3" y="150.5" width="0.5" height="14"/>
<g>
	<path d="M116.4,150.6c0-1.8,2.5-3.5,4.5-3.5c1.3,0,2.3,0.7,2.3,1.7c0,1.7-2.5,3.5-4.6,3.5C117.3,152.3,116.4,151.6,116.4,150.6z"/>
</g>
<rect x="142.6" y="148" width="0.5" height="16.4"/>
<g>
	<path d="M142.7,148.1c0-1.8,2.5-3.5,4.5-3.5c1.3,0,2.3,0.7,2.3,1.7c0,1.7-2.5,3.5-4.6,3.5C143.7,149.8,142.7,149.2,142.7,148.1z"/>
</g>
<rect x="159.7" y="145.5" width="0.5" height="17.4"/>
<g>
	<path d="M159.8,145.6c0-1.8,2.5-3.5,4.5-3.5c1.3,0,2.3,0.7,2.3,1.7c0,1.7-2.5,3.5-4.6,3.5C160.7,147.3,159.8,146.7,159.8,145.6z"/>
</g>
<rect x="176.9" y="143" width="0.5" height="18.1"/>
<g>
	<path d="M177,143.1c0-1.8,2.5-3.5,4.5-3.5c1.3,0,2.3,0.7,2.3,1.7c0,1.7-2.5,3.5-4.6,3.5C177.9,144.8,177,144.2,177,143.1z"/>
</g>
<rect x="192.2" y="139.4" width="10.5" height="0.8"/>
<rect x="193.9" y="140.6" width="0.5" height="18.9"/>
<g>
	<path d="M194,140.6c0-1.8,2.5-3.5,4.5-3.5c1.3,0,2.3,0.7,2.3,1.7c0,1.7-2.5,3.5-4.6,3.5C195,142.4,194,141.7,194,140.6z"/>
</g>
<rect x="209.4" y="139.4" width="10.5" height="0.8"/>
<rect x="211.1" y="138.1" width="0.5" height="17.7"/>
<g>
	<path d="M211.2,138.2c0-1.8,2.5-3.5,4.5-3.5c1.3,0,2.3,0.7,2.3,1.7c0,1.7-2.5,3.5-4.6,3.5C212.2,139.9,211.2,139.2,211.2,138.2z"/>
</g>
<rect x="226.4" y="139.4" width="10.5" height="0.8"/>
<rect x="226.4" y="134.4" width="10.5" height="0.8"/>
<rect x="228.2" y="135.6" width="0.5" height="19.8"/>
<g>
	<path d="M228.3,135.7c0-1.8,2.5-3.5,4.5-3.5c1.3,0,2.3,0.7,2.3,1.7c0,1.7-2.5,3.5-4.6,3.5C229.2,137.4,228.3,136.8,228.3,135.7z"/>
</g>
<rect x="243.6" y="139.4" width="10.5" height="0.8"/>
<rect x="243.6" y="134.4" width="10.5" height="0.8"/>
<rect x="245.4" y="133.1" width="0.5" height="21.9"/>
<g>
	<path d="M245.5,133.2c0-1.8,2.5-3.5,4.5-3.5c1.3,0,2.3,0.7,2.3,1.7c0,1.7-2.5,3.5-4.6,3.5C246.5,134.9,245.5,134.3,245.5,133.2z"/>
</g>
<rect x="260.7" y="139.4" width="10.5" height="0.8"/>
<rect x="260.7" y="134.4" width="10.5" height="0.8"/>
<rect x="262.5" y="135.6" width="0.5" height="18.9"/>
<g>
	<path d="M262.5,135.7c0-1.8,2.5-3.5,4.5-3.5c1.3,0,2.3,0.7,2.3,1.7c0,1.7-2.5,3.5-4.6,3.5C263.5,137.4,262.5,136.8,262.5,135.7z"/>
</g>
<rect x="277.9" y="139.4" width="10.5" height="0.8"/>
<rect x="279.7" y="138.1" width="0.5" height="16.4"/>
<g>
	<path d="M279.7,138.2c0-1.8,2.5-3.5,4.5-3.5c1.3,0,2.3,0.7,2.3,1.7c0,1.7-2.5,3.5-4.6,3.5C280.7,139.9,279.7,139.2,279.7,138.2z"/>
</g>
<rect x="294.9" y="139.4" width="10.5" height="0.8"/>
<rect x="296.7" y="140.6" width="0.5" height="15.5"/>
<g>
	<path d="M296.8,140.6c0-1.8,2.5-3.5,4.5-3.5c1.3,0,2.3,0.7,2.3,1.7c0,1.7-2.5,3.5-4.6,3.5C297.8,142.4,296.8,141.7,296.8,140.6z"/>
</g>
<rect x="313.9" y="143" width="0.5" height="14.7"/>
<g>
	<path d="M314,143.1c0-1.8,2.5-3.5,4.5-3.5c1.3,0,2.3,0.7,2.3,1.7c0,1.7-2.5,3.5-4.6,3.5C315,144.8,314,144.2,314,143.1z"/>
</g>
<rect x="331" y="145.5" width="0.5" height="14"/>
<g>
	<path d="M331,145.6c0-1.8,2.5-3.5,4.5-3.5c1.3,0,2.3,0.7,2.3,1.7c0,1.7-2.5,3.5-4.6,3.5C332,147.3,331,146.7,331,145.6z"/>
</g>
<rect x="355.6" y="148" width="0.5" height="16.4"/>
<g>
	<path d="M355.7,148.1c0-1.8,2.5-3.5,4.5-3.5c1.3,0,2.3,0.7,2.3,1.7c0,1.7-2.5,3.5-4.6,3.5C356.7,149.8,355.7,149.2,355.7,148.1z"/>
</g>
<rect x="372.8" y="150.5" width="0.5" height="15.5"/>
<g>
	<path d="M372.9,150.6c0-1.8,2.5-3.5,4.5-3.5c1.3,0,2.3,0.7,2.3,1.7c0,1.7-2.5,3.5-4.6,3.5C373.9,152.3,372.9,151.6,372.9,150.6z"/>
</g>
<rect x="389.9" y="153" width="0.5" height="14.7"/>
<g>
	<path d="M390,153c0-1.8,2.5-3.5,4.5-3.5c1.3,0,2.3,0.7,2.3,1.7c0,1.7-2.5,3.5-4.6,3.5C390.9,154.8,390,154.1,390,153z"/>
</g>
<rect x="407.1" y="155.4" width="0.5" height="14"/>
<g>
	<path d="M407.2,155.5c0-1.8,2.5-3.5,4.5-3.5c1.3,0,2.3,0.7,2.3,1.7c0,1.7-2.5,3.5-4.6,3.5C408.1,157.2,407.2,156.6,407.2,155.5z"/>
</g>
<rect x="430.6" y="139.9" width="0.5" height="16.4"/>
<g>
	<path d="M424.2,158c0-1.8,2.5-3.5,4.5-3.5c1.3,0,2.3,0.7,2.3,1.7c0,1.7-2.5,3.5-4.6,3.5C425.2,159.7,424.2,159.1,424.2,158z"/>
</g>
<rect x="447.9" y="141.5" width="0.5" height="17.4"/>
<g>
	<path d="M441.4,160.5c0-1.8,2.5-3.5,4.5-3.5c1.3,0,2.3,0.7,2.3,1.7c0,1.7-2.5,3.5-4.6,3.5C442.4,162.2,441.4,161.6,441.4,160.5z"/>
</g>
<rect x="464.9" y="143.2" width="0.5" height="18.1"/>
<g>
	<path d="M458.5,163c0-1.8,2.5-3.5,4.5-3.5c1.3,0,2.3,0.7,2.3,1.7c0,1.7-2.5,3.5-4.6,3.5C459.4,164.7,458.5,164,458.5,163z"/>
</g>
<rect x="482.1" y="144.9" width="0.5" height="18.9"/>
<g>
	<path d="M475.7,165.4c0-1.8,2.5-3.5,4.5-3.5c1.3,0,2.3,0.7,2.3,1.7c0,1.7-2.5,3.5-4.6,3.5C476.6,167.2,475.7,166.5,475.7,165.4z"/>
</g>
<rect x="499.3" y="149.7" width="0.5" height="16.6"/>
<g>
	<path d="M497,164.4c1.6,0,2.7,0.7,2.7,2c0,1.9-2.3,3.4-4.5,3.4c-1.3,0-2.4-0.7-2.4-1.8C492.7,166.2,495,164.4,497,164.4z
		 M493.2,168.2c0,0.6,0.4,0.9,1.1,0.9c1.4,0,4.9-2.1,4.9-3.3c0-0.6-0.4-0.9-1.1-0.9C496.9,165,493.2,167,493.2,168.2z"/>
</g>
<rect x="71.3" y="192" width="0.5" height="14"/>
<g>
	<path d="M64.9,207.6c0-1.8,2.5-3.5,4.5-3.5c1.3,0,2.3,0.7,2.3,1.7c0,1.7-2.5,3.5-4.6,3.5C65.9,209.3,64.9,208.7,64.9,207.6z"/>
</g>
<rect x="88.5" y="193.6" width="0.5" height="14.9"/>
<g>
	<path d="M82.1,210.1c0-1.8,2.5-3.5,4.5-3.5c1.3,0,2.3,0.7,2.3,1.7c0,1.7-2.5,3.5-4.6,3.5C83.1,211.8,82.1,211.2,82.1,210.1z"/>
</g>
<rect x="105.6" y="195.3" width="0.5" height="15.7"/>
<g>
	<path d="M99.1,212.6c0-1.8,2.5-3.5,4.5-3.5c1.3,0,2.3,0.7,2.3,1.7c0,1.7-2.5,3.5-4.6,3.5C100.1,214.3,99.1,213.7,99.1,212.6z"/>
</g>
<rect x="122.8" y="197" width="0.5" height="16.4"/>
<g>
	<path d="M116.4,215c0-1.8,2.5-3.5,4.5-3.5c1.3,0,2.3,0.7,2.3,1.7c0,1.7-2.5,3.5-4.6,3.5C117.3,216.8,116.4,216.1,116.4,215z"/>
</g>
<rect x="140.8" y="186.5" width="10.5" height="0.8"/>
<rect x="142.6" y="187.7" width="0.5" height="18.9"/>
<g>
	<path d="M142.7,187.8c0-1.8,2.5-3.5,4.5-3.5c1.3,0,2.3,0.7,2.3,1.7c0,1.7-2.5,3.5-4.6,3.5C143.7,189.5,142.7,188.8,142.7,187.8z"/>
</g>
<rect x="159.7" y="190.2" width="0.5" height="18"/>
<g>
	<path d="M159.8,190.2c0-1.8,2.5-3.5,4.5-3.5c1.3,0,2.3,0.7,2.3,1.7c0,1.7-2.5,3.5-4.6,3.5C160.7,192,159.8,191.3,159.8,190.2z"/>
</g>
<rect x="176.9" y="192.6" width="0.5" height="17.2"/>
<g>
	<path d="M177,192.7c0-1.8,2.5-3.5,4.5-3.5c1.3,0,2.3,0.7,2.3,1.7c0,1.7-2.5,3.5-4.6,3.5C177.9,194.4,177,193.8,177,192.7z"/>
</g>
<rect x="193.9" y="195.1" width="0.5" height="16.4"/>
<g>
	<path d="M194,195.2c0-1.8,2.5-3.5,4.5-3.5c1.3,0,2.3,0.7,2.3,1.7c0,1.7-2.5,3.5-4.6,3.5C195,196.9,194,196.3,194,195.2z"/>
</g>
<rect x="211.1" y="197.6" width="0.5" height="20.2"/>
<g>
	<path d="M211.2,197.7c0-1.8,2.5-3.5,4.5-3.5c1.3,0,2.3,0.7,2.3,1.7c0,1.7-2.5,3.5-4.6,3.5C212.2,199.4,211.2,198.8,211.2,197.7z"/>
</g>
<rect x="228.2" y="200.1" width="0.5" height="17.7"/>
<g>
	<path d="M228.3,200.2c0-1.8,2.5-3.5,4.5-3.5c1.3,0,2.3,0.7,2.3,1.7c0,1.7-2.5,3.5-4.6,3.5C229.2,201.9,228.3,201.2,228.3,200.2z"/>
</g>
<rect x="245.4" y="202.6" width="0.5" height="15.2"/>
<g>
	<path d="M245.5,202.6c0-1.8,2.5-3.5,4.5-3.5c1.3,0,2.3,0.7,2.3,1.7c0,1.7-2.5,3.5-4.6,3.5C246.5,204.4,245.5,203.7,245.5,202.6z"/>
</g>
<rect x="262.5" y="200.1" width="0.5" height="17.7"/>
<g>
	<path d="M262.5,200.2c0-1.8,2.5-3.5,4.5-3.5c1.3,0,2.3,0.7,2.3,1.7c0,1.7-2.5,3.5-4.6,3.5C263.5,201.9,262.5,201.2,262.5,200.2z"/>
</g>
<rect x="279.7" y="197.6" width="0.5" height="14"/>
<g>
	<path d="M279.7,197.7c0-1.8,2.5-3.5,4.5-3.5c1.3,0,2.3,0.7,2.3,1.7c0,1.7-2.5,3.5-4.6,3.5C280.7,199.4,279.7,198.8,279.7,197.7z"/>
</g>
<rect x="296.7" y="195.1" width="0.5" height="14.9"/>
<g>
	<path d="M296.8,195.2c0-1.8,2.5-3.5,4.5-3.5c1.3,0,2.3,0.7,2.3,1.7c0,1.7-2.5,3.5-4.6,3.5C297.8,196.9,296.8,196.3,296.8,195.2z"/>
</g>
<rect x="313.9" y="192.6" width="0.5" height="15.7"/>
<g>
	<path d="M314,192.7c0-1.8,2.5-3.5,4.5-3.5c1.3,0,2.3,0.7,2.3,1.7c0,1.7-2.5,3.5-4.6,3.5C315,194.4,314,193.8,314,192.7z"/>
</g>
<rect x="331" y="190.2" width="0.5" height="16.4"/>
<g>
	<path d="M331,190.2c0-1.8,2.5-3.5,4.5-3.5c1.3,0,2.3,0.7,2.3,1.7c0,1.7-2.5,3.5-4.6,3.5C332,192,331,191.3,331,190.2z"/>
</g>
<rect x="353.8" y="186.5" width="10.5" height="0.8"/>
<rect x="355.6" y="187.7" width="0.5" height="18.9"/>
<g>
	<path d="M355.7,187.8c0-1.8,2.5-3.5,4.5-3.5c1.3,0,2.3,0.7,2.3,1.7c0,1.7-2.5,3.5-4.6,3.5C356.7,189.5,355.7,188.8,355.7,187.8z"/>
</g>
<rect x="371" y="186.5" width="10.5" height="0.8"/>
<rect x="372.8" y="185.2" width="0.5" height="21.7"/>
<g>
	<path d="M372.9,185.3c0-1.8,2.5-3.5,4.5-3.5c1.3,0,2.3,0.7,2.3,1.7c0,1.7-2.5,3.5-4.6,3.5C373.9,187,372.9,186.4,372.9,185.3z"/>
</g>
<rect x="388.1" y="186.5" width="10.5" height="0.8"/>
<rect x="389.9" y="187.7" width="0.5" height="19.7"/>
<g>
	<path d="M390,187.8c0-1.8,2.5-3.5,4.5-3.5c1.3,0,2.3,0.7,2.3,1.7c0,1.7-2.5,3.5-4.6,3.5C390.9,189.5,390,188.8,390,187.8z"/>
</g>
<rect x="407.1" y="190.2" width="0.5" height="17.7"/>
<g>
	<path d="M407.2,190.2c0-1.8,2.5-3.5,4.5-3.5c1.3,0,2.3,0.7,2.3,1.7c0,1.7-2.5,3.5-4.6,3.5C408.1,192,407.2,191.3,407.2,190.2z"/>
</g>
<rect x="424.1" y="192.6" width="0.5" height="18.9"/>
<g>
	<path d="M424.2,192.7c0-1.8,2.5-3.5,4.5-3.5c1.3,0,2.3,0.7,2.3,1.7c0,1.7-2.5,3.5-4.6,3.5C425.2,194.4,424.2,193.8,424.2,192.7z"/>
</g>
<rect x="441.3" y="195.1" width="0.5" height="18"/>
<g>
	<path d="M441.4,195.2c0-1.8,2.5-3.5,4.5-3.5c1.3,0,2.3,0.7,2.3,1.7c0,1.7-2.5,3.5-4.6,3.5C442.4,196.9,441.4,196.3,441.4,195.2z"/>
</g>
<rect x="458.4" y="197.6" width="0.5" height="17.2"/>
<g>
	<path d="M458.5,197.7c0-1.8,2.5-3.5,4.5-3.5c1.3,0,2.3,0.7,2.3,1.7c0,1.7-2.5,3.5-4.6,3.5C459.4,199.4,458.5,198.8,458.5,197.7z"/>
</g>
<rect x="475.6" y="200.1" width="0.5" height="16.4"/>
<g>
	<path d="M475.7,200.2c0-1.8,2.5-3.5,4.5-3.5c1.3,0,2.3,0.7,2.3,1.7c0,1.7-2.5,3.5-4.6,3.5C476.6,201.9,475.7,201.2,475.7,200.2z"/>
</g>
<rect x="492.6" y="202.6" width="0.5" height="16.6"/>
<g>
	<path d="M497,199.1c1.6,0,2.7,0.7,2.7,2c0,1.9-2.3,3.4-4.5,3.4c-1.3,0-2.4-0.7-2.4-1.8C492.7,200.9,495,199.1,497,199.1z
		 M493.2,202.9c0,0.6,0.4,0.9,1.1,0.9c1.4,0,4.9-2.1,4.9-3.3c0-0.6-0.4-0.9-1.1-0.9C496.9,199.7,493.2,201.7,493.2,202.9z"/>
</g>
</svg>
