<?xml version="1.0" encoding="utf-8"?>

<!--
	ScaleBook
	Copyright (c) Leland Jansen 2015. All rights reserved.
-->

<!DOCTYPE svg PUBLIC "-//W3C//DTD SVG 1.1//EN" "http://www.w3.org/Graphics/SVG/1.1/DTD/svg11.dtd">
<svg version="1.1" id="Layer_1" xmlns="http://www.w3.org/2000/svg" xmlns:xlink="http://www.w3.org/1999/xlink" x="0px" y="0px"
	 viewBox="0 0 553 228.4" enable-background="new 0 0 553 228.4" xml:space="preserve">
<rect x="8.4" y="17.5" width="0.8" height="67"/>
<g>
	<path d="M7.4,18.1c-1.9,1.1-3.6,5.8-3.6,9.4c0,2.3,1.4,9.9,1.4,12.3c0,5-1.5,8.6-4.6,11.1c3,2.4,4.6,6.1,4.6,11
		c0,2.3-1.4,9.9-1.4,12.3c0,3.8,1.7,8.4,3.6,9.5v0.7c-3.5-2.3-5.8-8.2-5.8-13.1c0-2.1,1.7-9.4,1.7-11.5c0-3.8-1-6.6-2.9-8.2
		C0.1,51.4,0,51.2,0,51s0.1-0.4,0.5-0.7c1.9-1.7,2.9-4.2,2.9-7.6c0-2.1-1.7-10-1.7-12.2c0-5.2,2.1-10.4,5.8-13.1V18.1z"/>
</g>
<rect x="8.4" y="148.9" width="0.8" height="67"/>
<g>
	<path d="M7.4,149.6c-1.9,1.1-3.6,5.8-3.6,9.4c0,2.3,1.4,9.9,1.4,12.3c0,5-1.5,8.6-4.6,11.1c3,2.4,4.6,6.1,4.6,11
		c0,2.3-1.4,9.9-1.4,12.3c0,3.8,1.7,8.4,3.6,9.5v0.7c-3.5-2.3-5.8-8.2-5.8-13.1c0-2.1,1.7-9.4,1.7-11.5c0-3.8-1-6.6-2.9-8.2
		c-0.3-0.3-0.5-0.5-0.5-0.7s0.1-0.4,0.5-0.7c1.9-1.7,2.9-4.2,2.9-7.6c0-2.1-1.7-10-1.7-12.2c0-5.2,2.1-10.4,5.8-13.1V149.6z"/>
</g>
<rect x="297.2" y="17.5" width="0.8" height="67"/>
<rect x="552.2" y="17.5" width="0.8" height="67"/>
<rect x="346.3" y="148.9" width="0.8" height="67"/>
<rect x="547.8" y="148.9" width="0.8" height="67"/>
<rect x="550.4" y="148.9" width="2.5" height="67"/>
<rect x="8.5" y="37.1" width="544.4" height="0.5"/>
<rect x="8.5" y="32.1" width="544.4" height="0.5"/>
<rect x="8.5" y="27.2" width="544.4" height="0.5"/>
<rect x="8.5" y="22.2" width="544.4" height="0.5"/>
<rect x="8.5" y="17.2" width="544.4" height="0.5"/>
<g>
	<path d="M20.3,37.2c-4.2,0-8.1-3.1-8.1-6.9c0-3.2,2.3-6.7,6.8-10.5c-0.3-1.2-0.4-2.4-0.4-3.6c0-3.5,1.2-6.8,3.2-8.5
		c1.8,2.5,2.7,4.9,2.7,7.1c0,2.9-1.3,5.6-4.3,8.1l0.9,4.2c0.5,0,0.8-0.1,0.8-0.1c2.6,0,4.8,2,4.8,4.7c0,1.9-1.4,3.7-3.6,4.8
		c0-0.1,0.9,3.8,0.9,4.3c0,2.5-2.3,4.2-4.9,4.2c-2,0-3.6-1.3-3.6-3.4c0-1.4,1-2.6,2.4-2.6c1.3,0,2.3,1.3,2.3,2.5
		c0,1.4-1.2,2.3-2.7,2.5c0.6,0.3,1.2,0.5,1.9,0.5c2.1,0,4.1-1.6,4.1-3.6c0-0.2,0-0.4-0.1-0.6l-0.8-3.7C21.9,37,21.2,37.2,20.3,37.2z
		 M18.1,31.9c0,1,0.5,1.9,1.6,2.5c-1.8-0.3-3-1.4-3-3.1c0-2,1.7-3.7,3.8-4.1l-0.8-4C16,26,14,28.8,14,31.4c0,2.9,2.8,5.3,6,5.3
		c0.9,0,1.7-0.2,2.4-0.5L21,29.3C19.4,29.6,18.1,30.6,18.1,31.9z M22.1,10.6c-1.6,0-2.9,3.7-2.9,7c0,0.7,0,1.3,0.2,1.9
		c2.7-2.4,4-4.5,4-6.5c0-0.9-0.3-1.7-1-2.4C22.4,10.6,22.3,10.6,22.1,10.6z M24.9,32.5c0-1.6-1.2-3.3-2.9-3.3c-0.1,0-0.2,0-0.5,0
		l1.4,6.6C24.2,34.9,24.9,33.8,24.9,32.5z"/>
</g>
<g>
	<path d="M33.5,10.7v2.8l1-0.3V15l-1,0.3v3.4l1-0.3v1.8l-1,0.3v3.1H33v-3l-1.9,0.6v3h-0.5v-2.8l-1,0.3V20l1-0.3v-3.4l-1,0.3v-1.8
		l1-0.3v-3.1h0.5v3l1.9-0.6v-3H33.5z M33,15.4l-1.9,0.6v3.4l1.9-0.6V15.4z"/>
</g>
<g>
	<path d="M39.7,18.1v2.8l1-0.3v1.8l-1,0.3v3.4l1-0.3v1.8l-1,0.3v3.1h-0.5v-3l-1.9,0.6v3h-0.5v-2.8l-1,0.3v-1.8l1-0.3v-3.4l-1,0.3
		v-1.8l1-0.3v-3.1h0.5v3l1.9-0.6v-3H39.7z M39.2,22.9l-1.9,0.6v3.4l1.9-0.6V22.9z"/>
</g>
<g>
	<path d="M45.9,8.2V11l1-0.3v1.8l-1,0.3v3.4l1-0.3v1.8l-1,0.3v3.1h-0.5v-3l-1.9,0.6v3H43V19l-1,0.3v-1.8l1-0.3v-3.4l-1,0.3v-1.8
		l1-0.3V8.8h0.5v3l1.9-0.6v-3H45.9z M45.4,13l-1.9,0.6V17l1.9-0.6V13z"/>
</g>
<g>
	<path d="M52.1,15.6v2.8l1-0.3v1.8l-1,0.3v3.4l1-0.3v1.8l-1,0.3v3.1h-0.5v-3l-1.9,0.6v3h-0.5v-2.8l-1,0.3v-1.8l1-0.3v-3.4l-1,0.3
		v-1.8l1-0.3v-3.1h0.5v3l1.9-0.6v-3H52.1z M51.6,20.4L49.7,21v3.4l1.9-0.6V20.4z"/>
</g>
<polygon fill-rule="evenodd" clip-rule="evenodd" points="68.5,23.7 112.6,18.7 112.6,16.2 68.5,21.2 "/>
<polygon fill-rule="evenodd" clip-rule="evenodd" points="68.5,20 112.6,15 112.6,12.5 68.5,17.5 "/>
<polygon fill-rule="evenodd" clip-rule="evenodd" points="121,38.6 165.2,33.6 165.2,31.1 121,36.1 "/>
<polygon fill-rule="evenodd" clip-rule="evenodd" points="121,42.3 165.2,37.3 165.2,34.8 121,39.8 "/>
<polygon fill-rule="evenodd" clip-rule="evenodd" points="179.9,28.6 224.2,23.7 224.2,21.2 179.9,26.2 "/>
<polygon fill-rule="evenodd" clip-rule="evenodd" points="179.9,32.4 224.2,27.4 224.2,24.9 179.9,29.9 "/>
<polygon fill-rule="evenodd" clip-rule="evenodd" points="239,24.9 283.1,23.7 283.1,21.2 239,22.4 "/>
<polygon fill-rule="evenodd" clip-rule="evenodd" points="239,28.6 283.1,27.4 283.1,24.9 239,26.2 "/>
<polygon fill-rule="evenodd" clip-rule="evenodd" points="305.5,23.7 349.6,28.6 349.6,26.2 305.5,21.2 "/>
<polygon fill-rule="evenodd" clip-rule="evenodd" points="305.5,27.4 349.6,32.4 349.6,29.9 305.5,24.9 "/>
<rect x="376" y="31.1" fill-rule="evenodd" clip-rule="evenodd" width="44.3" height="2.5"/>
<rect x="376" y="34.8" fill-rule="evenodd" clip-rule="evenodd" width="44.3" height="2.5"/>
<polygon fill-rule="evenodd" clip-rule="evenodd" points="435.1,24.9 479.2,23.7 479.2,21.2 435.1,22.4 "/>
<polygon fill-rule="evenodd" clip-rule="evenodd" points="435.1,28.6 479.2,27.4 479.2,24.9 435.1,26.2 "/>
<polygon fill-rule="evenodd" clip-rule="evenodd" points="494,23.7 538.3,24.9 538.3,22.4 494,21.2 "/>
<polygon fill-rule="evenodd" clip-rule="evenodd" points="494,27.4 538.3,28.6 538.3,26.2 494,24.9 "/>
<rect x="8.5" y="84.2" width="544.4" height="0.5"/>
<rect x="8.5" y="79.3" width="544.4" height="0.5"/>
<rect x="8.5" y="74.3" width="544.4" height="0.5"/>
<rect x="8.5" y="69.3" width="544.4" height="0.5"/>
<rect x="8.5" y="64.4" width="544.4" height="0.5"/>
<g>
	<path d="M15.7,78.8c2.9-2.6,4.7-6.1,4.7-9.2c0-2.5-1.4-4.4-3.7-4.4c-1.6,0-3.4,1.3-3.4,2.7c0,0.2,0,0.3,0.1,0.3
		c-0.1,0,0.6-0.6,1.4-0.6c0.9,0,1.5,0.8,1.5,1.7c0,1.2-0.9,2.2-2.1,2.2c-1.2,0-2.1-1.3-2.1-2.8c0-2.3,2.3-4.1,4.8-4.1
		c4.7,0,5.9,3.2,5.9,5.8c0,1.6-0.4,2.9-2,5.3C19.1,78.7,14.6,81,13,81c-0.4,0-0.6-0.2-0.6-0.5C13.8,80.1,14.9,79.5,15.7,78.8z
		 M25.7,66.1c0.6,0,1,0.4,1,1s-0.4,1-1,1s-1-0.4-1-1S25.1,66.1,25.7,66.1z M25.7,71c0.6,0,1,0.4,1,1c0,0.6-0.4,1-1,1s-1-0.4-1-1
		C24.7,71.5,25.1,71,25.7,71z"/>
</g>
<g>
	<path d="M33.5,62.7v2.8l1-0.3V67l-1,0.3v3.4l1-0.3v1.8l-1,0.3v3.1H33v-3l-1.9,0.6v3h-0.5v-2.8l-1,0.3v-1.8l1-0.3v-3.4l-1,0.3v-1.8
		l1-0.3v-3.1h0.5v3l1.9-0.6v-3H33.5z M33,67.5l-1.9,0.6v3.4L33,71V67.5z"/>
</g>
<g>
	<path d="M39.7,70.2V73l1-0.3v1.8l-1,0.3v3.4l1-0.3v1.8l-1,0.3v3.1h-0.5v-3l-1.9,0.6v3h-0.5V81l-1,0.3v-1.8l1-0.3v-3.4l-1,0.3v-1.8
		l1-0.3v-3.1h0.5v3l1.9-0.6v-3H39.7z M39.2,75l-1.9,0.6V79l1.9-0.6V75z"/>
</g>
<g>
	<path d="M45.9,60.3v2.8l1-0.3v1.8l-1,0.3v3.4l1-0.3v1.8l-1,0.3v3.1h-0.5v-3l-1.9,0.6v3H43v-2.8l-1,0.3v-1.8l1-0.3v-3.4l-1,0.3v-1.8
		l1-0.3v-3.1h0.5v3l1.9-0.6v-3H45.9z M45.4,65l-1.9,0.6v3.4l1.9-0.6V65z"/>
</g>
<g>
	<path d="M52.1,67.7v2.8l1-0.3V72l-1,0.3v3.4l1-0.3v1.8l-1,0.3v3.1h-0.5v-3l-1.9,0.6v3h-0.5v-2.8l-1,0.3V77l1-0.3v-3.4l-1,0.3v-1.8
		l1-0.3v-3.1h0.5v3l1.9-0.6v-3H52.1z M51.6,72.5l-1.9,0.6v3.4l1.9-0.6V72.5z"/>
</g>
<polygon fill-rule="evenodd" clip-rule="evenodd" points="61.9,85.7 106.1,80.7 106.1,78.2 61.9,83.2 "/>
<polygon fill-rule="evenodd" clip-rule="evenodd" points="61.9,89.4 106.1,84.4 106.1,82 61.9,86.9 "/>
<polygon fill-rule="evenodd" clip-rule="evenodd" points="121,75.8 165.2,70.8 165.2,68.3 121,73.3 "/>
<polygon fill-rule="evenodd" clip-rule="evenodd" points="121,79.5 165.2,74.5 165.2,72 121,77 "/>
<polygon fill-rule="evenodd" clip-rule="evenodd" points="179.9,70.8 224.2,75.8 224.2,73.3 179.9,68.3 "/>
<polygon fill-rule="evenodd" clip-rule="evenodd" points="179.9,74.5 224.2,79.5 224.2,77 179.9,72 "/>
<rect x="239" y="83.2" fill-rule="evenodd" clip-rule="evenodd" width="44.2" height="2.5"/>
<rect x="239" y="86.9" fill-rule="evenodd" clip-rule="evenodd" width="44.2" height="2.5"/>
<g>
	<path d="M369.8,83.1c-3.2,0-6.1-2.3-6.1-5.1c0-2.4,1.7-5,5.1-7.9c-0.2-0.9-0.3-1.8-0.3-2.7c0-2.6,0.9-5.1,2.4-6.3
		c1.4,1.9,2,3.7,2,5.3c0,2.2-1,4.2-3.2,6.1l0.7,3.1c0.4,0,0.6,0,0.6,0c2,0,3.6,1.5,3.6,3.5c0,1.4-1.1,2.8-2.7,3.6
		c0-0.1,0.6,2.8,0.6,3.3c0,1.9-1.7,3.2-3.7,3.2c-1.5,0-2.7-1-2.7-2.5c0-1.1,0.7-1.9,1.8-1.9c1,0,1.7,1,1.7,1.9c0,1-0.9,1.7-2,1.8
		c0.4,0.2,0.9,0.3,1.4,0.3c1.6,0,3.1-1.2,3.1-2.7c0-0.1,0-0.3,0-0.5l-0.6-2.8C371.1,83,370.5,83.1,369.8,83.1z M368.2,79.2
		c0,0.8,0.4,1.4,1.2,1.9c-1.3-0.2-2.2-1.1-2.2-2.3c0-1.5,1.3-2.8,2.9-3.1l-0.6-3c-2.8,2.1-4.3,4.1-4.3,6.1c0,2.2,2.1,4,4.5,4
		c0.7,0,1.3-0.1,1.8-0.4l-1.1-5.1C369.1,77.4,368.2,78.1,368.2,79.2z M371.2,63.2c-1.2,0-2.2,2.8-2.2,5.3c0,0.5,0,1,0.1,1.4
		c2-1.8,3-3.4,3-4.8c0-0.7-0.3-1.3-0.7-1.8C371.4,63.2,371.3,63.2,371.2,63.2z M373.3,79.6c0-1.2-0.9-2.4-2.2-2.4c0,0-0.2,0-0.4,0
		l1.1,5C372.8,81.4,373.3,80.6,373.3,79.6z"/>
</g>
<polygon fill-rule="evenodd" clip-rule="evenodd" points="305.5,80.7 349.6,75.8 349.6,73.3 305.5,78.2 "/>
<polygon fill-rule="evenodd" clip-rule="evenodd" points="305.5,84.4 349.6,79.5 349.6,77 305.5,82 "/>
<polygon fill-rule="evenodd" clip-rule="evenodd" points="382.5,75.8 426.8,70.8 426.8,68.3 382.5,73.3 "/>
<polygon fill-rule="evenodd" clip-rule="evenodd" points="382.5,72 426.8,67.1 426.8,64.6 382.5,69.6 "/>
<polygon fill-rule="evenodd" clip-rule="evenodd" points="435.1,90.6 479.2,85.7 479.2,83.2 435.1,88.2 "/>
<polygon fill-rule="evenodd" clip-rule="evenodd" points="435.1,94.4 479.2,89.4 479.2,86.9 435.1,91.9 "/>
<polygon fill-rule="evenodd" clip-rule="evenodd" points="494,80.7 538.3,85.7 538.3,83.2 494,78.2 "/>
<polygon fill-rule="evenodd" clip-rule="evenodd" points="494,84.4 538.3,89.4 538.3,86.9 494,82 "/>
<rect x="8.5" y="168.5" width="544.4" height="0.5"/>
<rect x="8.5" y="163.6" width="544.4" height="0.5"/>
<rect x="8.5" y="158.6" width="544.4" height="0.5"/>
<rect x="8.5" y="153.7" width="544.4" height="0.5"/>
<rect x="8.5" y="148.7" width="544.4" height="0.5"/>
<g>
	<path d="M20.3,168.6c-4.2,0-8.1-3.1-8.1-6.9c0-3.2,2.3-6.7,6.8-10.5c-0.3-1.2-0.4-2.4-0.4-3.6c0-3.5,1.2-6.8,3.2-8.5
		c1.8,2.5,2.7,4.9,2.7,7.1c0,2.9-1.3,5.6-4.3,8.1l0.9,4.2c0.5,0,0.8-0.1,0.8-0.1c2.6,0,4.8,2,4.8,4.7c0,1.9-1.4,3.7-3.6,4.8
		c0-0.1,0.9,3.8,0.9,4.3c0,2.5-2.3,4.2-4.9,4.2c-2,0-3.6-1.3-3.6-3.4c0-1.4,1-2.6,2.4-2.6c1.3,0,2.3,1.3,2.3,2.5
		c0,1.4-1.2,2.3-2.7,2.5c0.6,0.3,1.2,0.5,1.9,0.5c2.1,0,4.1-1.6,4.1-3.6c0-0.2,0-0.4-0.1-0.6l-0.8-3.7
		C21.9,168.5,21.2,168.6,20.3,168.6z M18.1,163.4c0,1,0.5,1.9,1.6,2.5c-1.8-0.3-3-1.4-3-3.1c0-2,1.7-3.7,3.8-4.1l-0.8-4
		c-3.7,2.8-5.7,5.5-5.7,8.1c0,2.9,2.8,5.3,6,5.3c0.9,0,1.7-0.2,2.4-0.5l-1.4-6.8C19.4,161,18.1,162,18.1,163.4z M22.1,142
		c-1.6,0-2.9,3.7-2.9,7c0,0.7,0,1.3,0.2,1.9c2.7-2.4,4-4.5,4-6.5c0-0.9-0.3-1.7-1-2.4C22.4,142.1,22.3,142,22.1,142z M24.9,163.9
		c0-1.6-1.2-3.3-2.9-3.3c-0.1,0-0.2,0-0.5,0l1.4,6.6C24.2,166.4,24.9,165.2,24.9,163.9z"/>
</g>
<g>
	<path d="M33.5,142.1v2.8l1-0.3v1.8l-1,0.3v3.4l1-0.3v1.8l-1,0.3v3.1H33v-3l-1.9,0.6v3h-0.5v-2.8l-1,0.3v-1.8l1-0.3v-3.4l-1,0.3
		v-1.8l1-0.3v-3.1h0.5v3l1.9-0.6v-3H33.5z M33,146.9l-1.9,0.6v3.4l1.9-0.6V146.9z"/>
</g>
<g>
	<path d="M39.7,149.5v2.8l1-0.3v1.8l-1,0.3v3.4l1-0.3v1.8l-1,0.3v3.1h-0.5v-3l-1.9,0.6v3h-0.5v-2.8l-1,0.3v-1.8l1-0.3v-3.4l-1,0.3
		v-1.8l1-0.3v-3.1h0.5v3l1.9-0.6v-3H39.7z M39.2,154.3l-1.9,0.6v3.4l1.9-0.6V154.3z"/>
</g>
<g>
	<path d="M45.9,139.6v2.8l1-0.3v1.8l-1,0.3v3.4l1-0.3v1.8l-1,0.3v3.1h-0.5v-3l-1.9,0.6v3H43v-2.8l-1,0.3v-1.8l1-0.3v-3.4l-1,0.3
		v-1.8l1-0.3v-3.1h0.5v3l1.9-0.6v-3H45.9z M45.4,144.4l-1.9,0.6v3.4l1.9-0.6V144.4z"/>
</g>
<g>
	<path d="M52.1,147.1v2.8l1-0.3v1.8l-1,0.3v3.4l1-0.3v1.8l-1,0.3v3.1h-0.5v-3l-1.9,0.6v3h-0.5v-2.8l-1,0.3v-1.8l1-0.3v-3.4l-1,0.3
		v-1.8l1-0.3v-3.1h0.5v3l1.9-0.6v-3H52.1z M51.6,151.8l-1.9,0.6v3.4l1.9-0.6V151.8z"/>
</g>
<polygon fill-rule="evenodd" clip-rule="evenodd" points="61.9,160.1 113.7,165 113.7,162.6 61.9,157.6 "/>
<polygon fill-rule="evenodd" clip-rule="evenodd" points="61.9,163.8 113.7,168.8 113.7,166.3 61.9,161.3 "/>
<polygon fill-rule="evenodd" clip-rule="evenodd" points="130.9,160.1 182.7,155.1 182.7,152.6 130.9,157.6 "/>
<polygon fill-rule="evenodd" clip-rule="evenodd" points="130.9,163.8 182.7,158.8 182.7,156.4 130.9,161.3 "/>
<polygon fill-rule="evenodd" clip-rule="evenodd" points="209,156.4 260.8,155.1 260.8,152.6 209,153.9 "/>
<polygon fill-rule="evenodd" clip-rule="evenodd" points="209,160.1 260.8,158.8 260.8,156.4 209,157.6 "/>
<polygon fill-rule="evenodd" clip-rule="evenodd" points="278,155.1 329.8,160.1 329.8,157.6 278,152.6 "/>
<polygon fill-rule="evenodd" clip-rule="evenodd" points="278,158.8 329.8,163.8 329.8,161.3 278,156.4 "/>
<polygon fill-rule="evenodd" clip-rule="evenodd" points="354.6,165 406.2,170 406.2,167.5 354.6,162.6 "/>
<polygon fill-rule="evenodd" clip-rule="evenodd" points="354.6,168.8 406.2,173.7 406.2,171.2 354.6,166.3 "/>
<polygon fill-rule="evenodd" clip-rule="evenodd" points="430.1,150.2 481.9,155.1 481.9,152.6 430.1,147.7 "/>
<polygon fill-rule="evenodd" clip-rule="evenodd" points="430.1,146.4 481.9,151.4 481.9,148.9 430.1,144 "/>
<rect x="8.5" y="215.7" width="544.4" height="0.5"/>
<rect x="8.5" y="210.7" width="544.4" height="0.5"/>
<rect x="8.5" y="205.7" width="544.4" height="0.5"/>
<rect x="8.5" y="200.8" width="544.4" height="0.5"/>
<rect x="8.5" y="195.8" width="544.4" height="0.5"/>
<g>
	<path d="M20.3,215.7c-4.2,0-8.1-3.1-8.1-6.9c0-3.2,2.3-6.7,6.8-10.5c-0.3-1.2-0.4-2.4-0.4-3.6c0-3.5,1.2-6.8,3.2-8.5
		c1.8,2.5,2.7,4.9,2.7,7.1c0,2.9-1.3,5.6-4.3,8.1l0.9,4.2c0.5,0,0.8-0.1,0.8-0.1c2.6,0,4.8,2,4.8,4.7c0,1.9-1.4,3.7-3.6,4.8
		c0-0.1,0.9,3.8,0.9,4.3c0,2.5-2.3,4.2-4.9,4.2c-2,0-3.6-1.3-3.6-3.4c0-1.4,1-2.6,2.4-2.6c1.3,0,2.3,1.3,2.3,2.5
		c0,1.4-1.2,2.3-2.7,2.5c0.6,0.3,1.2,0.5,1.9,0.5c2.1,0,4.1-1.6,4.1-3.6c0-0.2,0-0.4-0.1-0.6l-0.8-3.7
		C21.9,215.6,21.2,215.7,20.3,215.7z M18.1,210.5c0,1,0.5,1.9,1.6,2.5c-1.8-0.3-3-1.4-3-3.1c0-2,1.7-3.7,3.8-4.1l-0.8-4
		c-3.7,2.8-5.7,5.5-5.7,8.1c0,2.9,2.8,5.3,6,5.3c0.9,0,1.7-0.2,2.4-0.5l-1.4-6.8C19.4,208.1,18.1,209.1,18.1,210.5z M22.1,189.2
		c-1.6,0-2.9,3.7-2.9,7c0,0.7,0,1.3,0.2,1.9c2.7-2.4,4-4.5,4-6.5c0-0.9-0.3-1.7-1-2.4C22.4,189.2,22.3,189.2,22.1,189.2z
		 M24.9,211.1c0-1.6-1.2-3.3-2.9-3.3c-0.1,0-0.2,0-0.5,0l1.4,6.6C24.2,213.5,24.9,212.4,24.9,211.1z"/>
</g>
<g>
	<path d="M33.5,189.2v2.8l1-0.3v1.8l-1,0.3v3.4l1-0.3v1.8l-1,0.3v3.1H33v-3l-1.9,0.6v3h-0.5V200l-1,0.3v-1.8l1-0.3v-3.4l-1,0.3v-1.8
		l1-0.3v-3.1h0.5v3l1.9-0.6v-3H33.5z M33,194l-1.9,0.6v3.4l1.9-0.6V194z"/>
</g>
<g>
	<path d="M39.7,196.7v2.8l1-0.3v1.8l-1,0.3v3.4l1-0.3v1.8l-1,0.3v3.1h-0.5v-3l-1.9,0.6v3h-0.5v-2.8l-1,0.3V206l1-0.3v-3.4l-1,0.3
		v-1.8l1-0.3v-3.1h0.5v3l1.9-0.6v-3H39.7z M39.2,201.4l-1.9,0.6v3.4l1.9-0.6V201.4z"/>
</g>
<g>
	<path d="M45.9,186.7v2.8l1-0.3v1.8l-1,0.3v3.4l1-0.3v1.8l-1,0.3v3.1h-0.5v-3l-1.9,0.6v3H43v-2.8l-1,0.3v-1.8l1-0.3v-3.4l-1,0.3
		v-1.8l1-0.3v-3.1h0.5v3l1.9-0.6v-3H45.9z M45.4,191.5l-1.9,0.6v3.4l1.9-0.6V191.5z"/>
</g>
<g>
	<path d="M52.1,194.2v2.8l1-0.3v1.8l-1,0.3v3.4l1-0.3v1.8l-1,0.3v3.1h-0.5v-3l-1.9,0.6v3h-0.5V205l-1,0.3v-1.8l1-0.3v-3.4l-1,0.3
		v-1.8l1-0.3v-3.1h0.5v3l1.9-0.6v-3H52.1z M51.6,199l-1.9,0.6v3.4l1.9-0.6V199z"/>
</g>
<polygon fill-rule="evenodd" clip-rule="evenodd" points="68.5,197.3 120.2,202.3 120.2,199.8 68.5,194.8 "/>
<polygon fill-rule="evenodd" clip-rule="evenodd" points="68.5,193.6 120.2,198.5 120.2,196 68.5,191.1 "/>
<g>
	<path d="M199.5,207.9c2.2-2,3.6-4.6,3.6-6.9c0-1.9-1.1-3.3-2.8-3.3c-1.2,0-2.5,1-2.5,2.1c0,0.2,0,0.2,0.1,0.2c0,0,0.4-0.5,1-0.5
		c0.7,0,1.2,0.6,1.2,1.3c0,0.9-0.6,1.7-1.6,1.7c-0.9,0-1.5-1-1.5-2.1c0-1.8,1.7-3.1,3.6-3.1c3.5,0,4.4,2.4,4.4,4.4
		c0,1.2-0.3,2.2-1.5,4c-1.4,2.3-4.8,4-6,4c-0.3,0-0.5-0.1-0.5-0.3C198,208.9,198.9,208.4,199.5,207.9z M206.9,198.4
		c0.4,0,0.7,0.3,0.7,0.7c0,0.4-0.3,0.7-0.7,0.7s-0.7-0.3-0.7-0.7C206.2,198.7,206.5,198.4,206.9,198.4z M206.9,202.1
		c0.4,0,0.7,0.3,0.7,0.7s-0.3,0.7-0.7,0.7s-0.7-0.3-0.7-0.7S206.5,202.1,206.9,202.1z"/>
</g>
<polygon fill-rule="evenodd" clip-rule="evenodd" points="137.4,207.2 189.2,212.2 189.2,209.7 137.4,204.7 "/>
<polygon fill-rule="evenodd" clip-rule="evenodd" points="137.4,203.5 189.2,208.5 189.2,206 137.4,201 "/>
<rect x="209" y="214.7" fill-rule="evenodd" clip-rule="evenodd" width="51.8" height="2.5"/>
<rect x="209" y="218.4" fill-rule="evenodd" clip-rule="evenodd" width="51.8" height="2.5"/>
<polygon fill-rule="evenodd" clip-rule="evenodd" points="278,212.2 329.8,207.2 329.8,204.7 278,209.7 "/>
<polygon fill-rule="evenodd" clip-rule="evenodd" points="278,215.9 329.8,210.9 329.8,208.5 278,213.4 "/>
<polygon fill-rule="evenodd" clip-rule="evenodd" points="354.6,202.3 406.2,203.5 406.2,201 354.6,199.8 "/>
<polygon fill-rule="evenodd" clip-rule="evenodd" points="354.6,206 406.2,207.2 406.2,204.7 354.6,203.5 "/>
<polygon fill-rule="evenodd" clip-rule="evenodd" points="423.6,207.2 475.4,212.2 475.4,209.7 423.6,204.7 "/>
<polygon fill-rule="evenodd" clip-rule="evenodd" points="423.6,210.9 475.4,215.9 475.4,213.4 423.6,208.5 "/>
<rect x="68.2" y="17.6" width="0.5" height="18.9"/>
<g>
	<path d="M61.8,38.2c0-1.8,2.5-3.5,4.5-3.5c1.3,0,2.3,0.7,2.3,1.7c0,1.7-2.5,3.5-4.6,3.5C62.8,39.9,61.8,39.3,61.8,38.2z"/>
</g>
<rect x="82.9" y="16.1" width="0.5" height="18"/>
<g>
	<path d="M76.5,35.7c0-1.8,2.5-3.5,4.5-3.5c1.3,0,2.3,0.7,2.3,1.7c0,1.7-2.5,3.5-4.6,3.5C77.5,37.4,76.5,36.8,76.5,35.7z"/>
</g>
<rect x="97.7" y="14.4" width="0.5" height="17.2"/>
<g>
	<path d="M91.2,33.2c0-1.8,2.5-3.5,4.5-3.5c1.3,0,2.3,0.7,2.3,1.7c0,1.7-2.5,3.5-4.6,3.5C92.2,34.9,91.2,34.3,91.2,33.2z"/>
</g>
<rect x="112.4" y="12.7" width="0.5" height="16.4"/>
<g>
	<path d="M106,30.7c0-1.8,2.5-3.5,4.5-3.5c1.3,0,2.3,0.7,2.3,1.7c0,1.7-2.5,3.5-4.6,3.5C106.9,32.5,106,31.8,106,30.7z"/>
</g>
<rect x="120.8" y="28.2" width="0.5" height="14"/>
<g>
	<path d="M120.8,28.3c0-1.8,2.5-3.5,4.5-3.5c1.3,0,2.3,0.7,2.3,1.7c0,1.7-2.5,3.5-4.6,3.5C121.8,30,120.8,29.3,120.8,28.3z"/>
</g>
<rect x="135.5" y="25.7" width="0.5" height="14.9"/>
<g>
	<path d="M135.6,25.8c0-1.8,2.5-3.5,4.5-3.5c1.3,0,2.3,0.7,2.3,1.7c0,1.7-2.5,3.5-4.6,3.5C136.5,27.5,135.6,26.9,135.6,25.8z"/>
</g>
<rect x="150.2" y="23.2" width="0.5" height="15.7"/>
<g>
	<path d="M150.3,23.3c0-1.8,2.5-3.5,4.5-3.5c1.3,0,2.3,0.7,2.3,1.7c0,1.7-2.5,3.5-4.6,3.5C151.3,25,150.3,24.4,150.3,23.3z"/>
</g>
<rect x="164.9" y="20.7" width="0.5" height="16.4"/>
<g>
	<path d="M165,20.8c0-1.8,2.5-3.5,4.5-3.5c1.3,0,2.3,0.7,2.3,1.7c0,1.7-2.5,3.5-4.6,3.5C166,22.5,165,21.9,165,20.8z"/>
</g>
<rect x="179.7" y="18.3" width="0.5" height="14"/>
<g>
	<path d="M179.8,18.3c0-1.8,2.5-3.5,4.5-3.5c1.3,0,2.3,0.7,2.3,1.7c0,1.7-2.5,3.5-4.6,3.5C180.7,20.1,179.8,19.4,179.8,18.3z"/>
</g>
<rect x="194.4" y="15.8" width="0.5" height="14.9"/>
<g>
	<path d="M194.5,15.9c0-1.8,2.5-3.5,4.5-3.5c1.3,0,2.3,0.7,2.3,1.7c0,1.7-2.5,3.5-4.6,3.5C195.5,17.6,194.5,16.9,194.5,15.9z"/>
</g>
<rect x="207.5" y="12.1" width="10.5" height="0.8"/>
<rect x="209.3" y="13.3" width="0.5" height="15.7"/>
<g>
	<path d="M209.4,13.4c0-1.8,2.5-3.5,4.5-3.5c1.3,0,2.3,0.7,2.3,1.7c0,1.7-2.5,3.5-4.6,3.5C210.3,15.1,209.4,14.5,209.4,13.4z"/>
</g>
<rect x="222.2" y="12.1" width="10.5" height="0.8"/>
<rect x="224" y="10.8" width="0.5" height="16.4"/>
<g>
	<path d="M224.1,10.9c0-1.8,2.5-3.5,4.5-3.5c1.3,0,2.3,0.7,2.3,1.7c0,1.7-2.5,3.5-4.6,3.5C225.1,12.6,224.1,12,224.1,10.9z"/>
</g>
<rect x="237" y="12.1" width="10.5" height="0.8"/>
<rect x="237" y="7.2" width="10.5" height="0.8"/>
<rect x="238.7" y="8.3" width="0.5" height="20.2"/>
<g>
	<path d="M238.8,8.4c0-1.8,2.5-3.5,4.5-3.5c1.3,0,2.3,0.7,2.3,1.7c0,1.7-2.5,3.5-4.6,3.5C239.8,10.1,238.8,9.5,238.8,8.4z"/>
</g>
<rect x="251.7" y="12.1" width="10.5" height="0.8"/>
<rect x="251.7" y="7.2" width="10.5" height="0.8"/>
<rect x="253.5" y="5.9" width="0.5" height="22.3"/>
<g>
	<path d="M253.5,5.9c0-1.8,2.5-3.5,4.5-3.5c1.3,0,2.3,0.7,2.3,1.7c0,1.7-2.5,3.5-4.6,3.5C254.5,7.7,253.5,7,253.5,5.9z"/>
</g>
<rect x="266.4" y="12.1" width="10.5" height="0.8"/>
<rect x="266.4" y="7.2" width="10.5" height="0.8"/>
<rect x="266.4" y="2.2" width="10.5" height="0.8"/>
<rect x="268.2" y="3.4" width="0.5" height="24.3"/>
<g>
	<path d="M268.3,3.5c0-1.8,2.5-3.5,4.5-3.5c1.3,0,2.3,0.7,2.3,1.7c0,1.7-2.5,3.5-4.6,3.5C269.2,5.2,268.3,4.5,268.3,3.5z"/>
</g>
<rect x="281.1" y="12.1" width="10.5" height="0.8"/>
<rect x="281.1" y="7.2" width="10.5" height="0.8"/>
<rect x="282.9" y="5.9" width="0.5" height="21.4"/>
<g>
	<path d="M283,5.9c0-1.8,2.5-3.5,4.5-3.5c1.3,0,2.3,0.7,2.3,1.7c0,1.7-2.5,3.5-4.6,3.5C284,7.7,283,7,283,5.9z"/>
</g>
<rect x="303.5" y="12.1" width="10.5" height="0.8"/>
<rect x="303.5" y="7.2" width="10.5" height="0.8"/>
<rect x="305.2" y="8.3" width="0.5" height="18.9"/>
<g>
	<path d="M305.3,8.4c0-1.8,2.5-3.5,4.5-3.5c1.3,0,2.3,0.7,2.3,1.7c0,1.7-2.5,3.5-4.6,3.5C306.3,10.1,305.3,9.5,305.3,8.4z"/>
</g>
<rect x="318.2" y="12.1" width="10.5" height="0.8"/>
<rect x="320" y="10.8" width="0.5" height="18"/>
<g>
	<path d="M320,10.9c0-1.8,2.5-3.5,4.5-3.5c1.3,0,2.3,0.7,2.3,1.7c0,1.7-2.5,3.5-4.6,3.5C321,12.6,320,12,320,10.9z"/>
</g>
<rect x="332.9" y="12.1" width="10.5" height="0.8"/>
<rect x="334.7" y="13.3" width="0.5" height="17.2"/>
<g>
	<path d="M334.8,13.4c0-1.8,2.5-3.5,4.5-3.5c1.3,0,2.3,0.7,2.3,1.7c0,1.7-2.5,3.5-4.6,3.5C335.7,15.1,334.8,14.5,334.8,13.4z"/>
</g>
<rect x="349.4" y="15.8" width="0.5" height="16.4"/>
<g>
	<path d="M349.5,15.9c0-1.8,2.5-3.5,4.5-3.5c1.3,0,2.3,0.7,2.3,1.7c0,1.7-2.5,3.5-4.6,3.5C350.5,17.6,349.5,16.9,349.5,15.9z"/>
</g>
<rect x="375.8" y="18.3" width="0.5" height="18.9"/>
<g>
	<path d="M375.8,18.3c0-1.8,2.5-3.5,4.5-3.5c1.3,0,2.3,0.7,2.3,1.7c0,1.7-2.5,3.5-4.6,3.5C376.8,20.1,375.8,19.4,375.8,18.3z"/>
</g>
<rect x="390.5" y="20.7" width="0.5" height="16.4"/>
<g>
	<path d="M390.6,20.8c0-1.8,2.5-3.5,4.5-3.5c1.3,0,2.3,0.7,2.3,1.7c0,1.7-2.5,3.5-4.6,3.5C391.5,22.5,390.6,21.9,390.6,20.8z"/>
</g>
<rect x="405.2" y="18.3" width="0.5" height="18.9"/>
<g>
	<path d="M405.3,18.3c0-1.8,2.5-3.5,4.5-3.5c1.3,0,2.3,0.7,2.3,1.7c0,1.7-2.5,3.5-4.6,3.5C406.3,20.1,405.3,19.4,405.3,18.3z"/>
</g>
<rect x="420.1" y="15.8" width="0.5" height="21.4"/>
<g>
	<path d="M420.2,15.9c0-1.8,2.5-3.5,4.5-3.5c1.3,0,2.3,0.7,2.3,1.7c0,1.7-2.5,3.5-4.6,3.5C421.2,17.6,420.2,16.9,420.2,15.9z"/>
</g>
<rect x="433" y="12.1" width="10.5" height="0.8"/>
<rect x="434.8" y="13.3" width="0.5" height="15.2"/>
<g>
	<path d="M434.9,13.4c0-1.8,2.5-3.5,4.5-3.5c1.3,0,2.3,0.7,2.3,1.7c0,1.7-2.5,3.5-4.6,3.5C435.9,15.1,434.9,14.5,434.9,13.4z"/>
</g>
<rect x="447.8" y="12.1" width="10.5" height="0.8"/>
<rect x="449.6" y="10.8" width="0.5" height="17.4"/>
<g>
	<path d="M449.6,10.9c0-1.8,2.5-3.5,4.5-3.5c1.3,0,2.3,0.7,2.3,1.7c0,1.7-2.5,3.5-4.6,3.5C450.6,12.6,449.6,12,449.6,10.9z"/>
</g>
<rect x="462.5" y="12.1" width="10.5" height="0.8"/>
<rect x="462.5" y="7.2" width="10.5" height="0.8"/>
<rect x="464.3" y="8.3" width="0.5" height="19.4"/>
<g>
	<path d="M464.4,8.4c0-1.8,2.5-3.5,4.5-3.5c1.3,0,2.3,0.7,2.3,1.7c0,1.7-2.5,3.5-4.6,3.5C465.3,10.1,464.4,9.5,464.4,8.4z"/>
</g>
<rect x="477.2" y="12.1" width="10.5" height="0.8"/>
<rect x="477.2" y="7.2" width="10.5" height="0.8"/>
<rect x="479" y="5.9" width="0.5" height="21.4"/>
<g>
	<path d="M479.1,5.9c0-1.8,2.5-3.5,4.5-3.5c1.3,0,2.3,0.7,2.3,1.7c0,1.7-2.5,3.5-4.6,3.5C480.1,7.7,479.1,7,479.1,5.9z"/>
</g>
<rect x="492" y="12.1" width="10.5" height="0.8"/>
<rect x="492" y="7.2" width="10.5" height="0.8"/>
<rect x="492" y="2.2" width="10.5" height="0.8"/>
<rect x="493.7" y="3.4" width="0.5" height="23.9"/>
<g>
	<path d="M493.8,3.5c0-1.8,2.5-3.5,4.5-3.5c1.3,0,2.3,0.7,2.3,1.7c0,1.7-2.5,3.5-4.6,3.5C494.8,5.2,493.8,4.5,493.8,3.5z"/>
</g>
<rect x="506.8" y="12.1" width="10.5" height="0.8"/>
<rect x="506.8" y="7.2" width="10.5" height="0.8"/>
<rect x="508.6" y="5.9" width="0.5" height="21.7"/>
<g>
	<path d="M508.7,5.9c0-1.8,2.5-3.5,4.5-3.5c1.3,0,2.3,0.7,2.3,1.7c0,1.7-2.5,3.5-4.6,3.5C509.7,7.7,508.7,7,508.7,5.9z"/>
</g>
<rect x="521.6" y="12.1" width="10.5" height="0.8"/>
<rect x="521.6" y="7.2" width="10.5" height="0.8"/>
<rect x="523.3" y="8.3" width="0.5" height="19.7"/>
<g>
	<path d="M523.4,8.4c0-1.8,2.5-3.5,4.5-3.5c1.3,0,2.3,0.7,2.3,1.7c0,1.7-2.5,3.5-4.6,3.5C524.4,10.1,523.4,9.5,523.4,8.4z"/>
</g>
<rect x="536.3" y="12.1" width="10.5" height="0.8"/>
<rect x="538.1" y="10.8" width="0.5" height="17.7"/>
<g>
	<path d="M538.1,10.9c0-1.8,2.5-3.5,4.5-3.5c1.3,0,2.3,0.7,2.3,1.7c0,1.7-2.5,3.5-4.6,3.5C539.1,12.6,538.1,12,538.1,10.9z"/>
</g>
<rect x="61.7" y="72.8" width="0.5" height="16.4"/>
<g>
	<path d="M61.8,72.9c0-1.8,2.5-3.5,4.5-3.5c1.3,0,2.3,0.7,2.3,1.7c0,1.7-2.5,3.5-4.6,3.5C62.8,74.6,61.8,74,61.8,72.9z"/>
</g>
<rect x="76.4" y="70.3" width="0.5" height="17.4"/>
<g>
	<path d="M76.5,70.4c0-1.8,2.5-3.5,4.5-3.5c1.3,0,2.3,0.7,2.3,1.7c0,1.7-2.5,3.5-4.6,3.5C77.5,72.1,76.5,71.5,76.5,70.4z"/>
</g>
<rect x="91.2" y="67.9" width="0.5" height="18.1"/>
<g>
	<path d="M91.2,67.9c0-1.8,2.5-3.5,4.5-3.5c1.3,0,2.3,0.7,2.3,1.7c0,1.7-2.5,3.5-4.6,3.5C92.2,69.7,91.2,69,91.2,67.9z"/>
</g>
<rect x="105.9" y="65.4" width="0.5" height="18.9"/>
<g>
	<path d="M106,65.5c0-1.8,2.5-3.5,4.5-3.5c1.3,0,2.3,0.7,2.3,1.7c0,1.7-2.5,3.5-4.6,3.5C106.9,67.2,106,66.5,106,65.5z"/>
</g>
<rect x="120.8" y="62.9" width="0.5" height="16.4"/>
<g>
	<path d="M120.8,63c0-1.8,2.5-3.5,4.5-3.5c1.3,0,2.3,0.7,2.3,1.7c0,1.7-2.5,3.5-4.6,3.5C121.8,64.7,120.8,64.1,120.8,63z"/>
</g>
<rect x="133.7" y="59.3" width="10.5" height="0.8"/>
<rect x="135.5" y="60.4" width="0.5" height="17.4"/>
<g>
	<path d="M135.6,60.5c0-1.8,2.5-3.5,4.5-3.5c1.3,0,2.3,0.7,2.3,1.7c0,1.7-2.5,3.5-4.6,3.5C136.5,62.2,135.6,61.6,135.6,60.5z"/>
</g>
<rect x="148.4" y="59.3" width="10.5" height="0.8"/>
<rect x="150.2" y="57.9" width="0.5" height="18.1"/>
<g>
	<path d="M150.3,58c0-1.8,2.5-3.5,4.5-3.5c1.3,0,2.3,0.7,2.3,1.7c0,1.7-2.5,3.5-4.6,3.5C151.3,59.7,150.3,59.1,150.3,58z"/>
</g>
<rect x="163.2" y="59.3" width="10.5" height="0.8"/>
<rect x="163.2" y="54.3" width="10.5" height="0.8"/>
<rect x="164.9" y="55.5" width="0.5" height="18.9"/>
<g>
	<path d="M165,55.5c0-1.8,2.5-3.5,4.5-3.5c1.3,0,2.3,0.7,2.3,1.7c0,1.7-2.5,3.5-4.6,3.5C166,57.3,165,56.6,165,55.5z"/>
</g>
<rect x="177.9" y="59.3" width="10.5" height="0.8"/>
<rect x="179.7" y="57.9" width="0.5" height="16.4"/>
<g>
	<path d="M179.8,58c0-1.8,2.5-3.5,4.5-3.5c1.3,0,2.3,0.7,2.3,1.7c0,1.7-2.5,3.5-4.6,3.5C180.7,59.7,179.8,59.1,179.8,58z"/>
</g>
<rect x="192.6" y="59.3" width="10.5" height="0.8"/>
<rect x="194.4" y="60.4" width="0.5" height="15.5"/>
<g>
	<path d="M194.5,60.5c0-1.8,2.5-3.5,4.5-3.5c1.3,0,2.3,0.7,2.3,1.7c0,1.7-2.5,3.5-4.6,3.5C195.5,62.2,194.5,61.6,194.5,60.5z"/>
</g>
<rect x="209.3" y="62.9" width="0.5" height="14.7"/>
<g>
	<path d="M209.4,63c0-1.8,2.5-3.5,4.5-3.5c1.3,0,2.3,0.7,2.3,1.7c0,1.7-2.5,3.5-4.6,3.5C210.3,64.7,209.4,64.1,209.4,63z"/>
</g>
<rect x="224" y="65.4" width="0.5" height="14"/>
<g>
	<path d="M224.1,65.5c0-1.8,2.5-3.5,4.5-3.5c1.3,0,2.3,0.7,2.3,1.7c0,1.7-2.5,3.5-4.6,3.5C225.1,67.2,224.1,66.5,224.1,65.5z"/>
</g>
<rect x="238.7" y="67.9" width="0.5" height="21.4"/>
<g>
	<path d="M238.8,67.9c0-1.8,2.5-3.5,4.5-3.5c1.3,0,2.3,0.7,2.3,1.7c0,1.7-2.5,3.5-4.6,3.5C239.8,69.7,238.8,69,238.8,67.9z"/>
</g>
<rect x="253.5" y="70.3" width="0.5" height="18.9"/>
<g>
	<path d="M253.5,70.4c0-1.8,2.5-3.5,4.5-3.5c1.3,0,2.3,0.7,2.3,1.7c0,1.7-2.5,3.5-4.6,3.5C254.5,72.1,253.5,71.5,253.5,70.4z"/>
</g>
<rect x="268.2" y="72.8" width="0.5" height="16.4"/>
<g>
	<path d="M268.3,72.9c0-1.8,2.5-3.5,4.5-3.5c1.3,0,2.3,0.7,2.3,1.7c0,1.7-2.5,3.5-4.6,3.5C269.2,74.6,268.3,74,268.3,72.9z"/>
</g>
<rect x="282.9" y="70.3" width="0.5" height="18.9"/>
<g>
	<path d="M283,70.4c0-1.8,2.5-3.5,4.5-3.5c1.3,0,2.3,0.7,2.3,1.7c0,1.7-2.5,3.5-4.6,3.5C284,72.1,283,71.5,283,70.4z"/>
</g>
<rect x="305.2" y="67.9" width="0.5" height="16.4"/>
<g>
	<path d="M305.3,67.9c0-1.8,2.5-3.5,4.5-3.5c1.3,0,2.3,0.7,2.3,1.7c0,1.7-2.5,3.5-4.6,3.5C306.3,69.7,305.3,69,305.3,67.9z"/>
</g>
<rect x="320" y="65.4" width="0.5" height="17.4"/>
<g>
	<path d="M320,65.5c0-1.8,2.5-3.5,4.5-3.5c1.3,0,2.3,0.7,2.3,1.7c0,1.7-2.5,3.5-4.6,3.5C321,67.2,320,66.5,320,65.5z"/>
</g>
<rect x="334.7" y="62.9" width="0.5" height="18.1"/>
<g>
	<path d="M334.8,63c0-1.8,2.5-3.5,4.5-3.5c1.3,0,2.3,0.7,2.3,1.7c0,1.7-2.5,3.5-4.6,3.5C335.7,64.7,334.8,64.1,334.8,63z"/>
</g>
<rect x="347.6" y="59.3" width="10.5" height="0.8"/>
<rect x="349.4" y="60.4" width="0.5" height="18.9"/>
<g>
	<path d="M349.5,60.5c0-1.8,2.5-3.5,4.5-3.5c1.3,0,2.3,0.7,2.3,1.7c0,1.7-2.5,3.5-4.6,3.5C350.5,62.2,349.5,61.6,349.5,60.5z"/>
</g>
<rect x="382.3" y="69.7" width="0.5" height="16.4"/>
<g>
	<path d="M375.8,87.8c0-1.8,2.5-3.5,4.5-3.5c1.3,0,2.3,0.7,2.3,1.7c0,1.7-2.5,3.5-4.6,3.5C376.8,89.5,375.8,88.9,375.8,87.8z"/>
</g>
<rect x="397" y="68.2" width="0.5" height="15.5"/>
<g>
	<path d="M390.6,85.3c0-1.8,2.5-3.5,4.5-3.5c1.3,0,2.3,0.7,2.3,1.7c0,1.7-2.5,3.5-4.6,3.5C391.5,87,390.6,86.4,390.6,85.3z"/>
</g>
<rect x="411.7" y="66.5" width="0.5" height="14.7"/>
<g>
	<path d="M405.3,82.8c0-1.8,2.5-3.5,4.5-3.5c1.3,0,2.3,0.7,2.3,1.7c0,1.7-2.5,3.5-4.6,3.5C406.3,84.5,405.3,83.9,405.3,82.8z"/>
</g>
<rect x="426.6" y="64.8" width="0.5" height="14"/>
<g>
	<path d="M420.2,80.3c0-1.8,2.5-3.5,4.5-3.5c1.3,0,2.3,0.7,2.3,1.7c0,1.7-2.5,3.5-4.6,3.5C421.2,82.1,420.2,81.4,420.2,80.3z"/>
</g>
<rect x="434.8" y="77.8" width="0.5" height="16.4"/>
<g>
	<path d="M434.9,77.9c0-1.8,2.5-3.5,4.5-3.5c1.3,0,2.3,0.7,2.3,1.7c0,1.7-2.5,3.5-4.6,3.5C435.9,79.6,434.9,78.9,434.9,77.9z"/>
</g>
<rect x="449.6" y="75.3" width="0.5" height="17.4"/>
<g>
	<path d="M449.6,75.4c0-1.8,2.5-3.5,4.5-3.5c1.3,0,2.3,0.7,2.3,1.7c0,1.7-2.5,3.5-4.6,3.5C450.6,77.1,449.6,76.5,449.6,75.4z"/>
</g>
<rect x="464.3" y="72.8" width="0.5" height="18.1"/>
<g>
	<path d="M464.4,72.9c0-1.8,2.5-3.5,4.5-3.5c1.3,0,2.3,0.7,2.3,1.7c0,1.7-2.5,3.5-4.6,3.5C465.3,74.6,464.4,74,464.4,72.9z"/>
</g>
<rect x="479" y="70.3" width="0.5" height="18.9"/>
<g>
	<path d="M479.1,70.4c0-1.8,2.5-3.5,4.5-3.5c1.3,0,2.3,0.7,2.3,1.7c0,1.7-2.5,3.5-4.6,3.5C480.1,72.1,479.1,71.5,479.1,70.4z"/>
</g>
<rect x="493.7" y="67.9" width="0.5" height="16.4"/>
<g>
	<path d="M493.8,67.9c0-1.8,2.5-3.5,4.5-3.5c1.3,0,2.3,0.7,2.3,1.7c0,1.7-2.5,3.5-4.6,3.5C494.8,69.7,493.8,69,493.8,67.9z"/>
</g>
<rect x="508.6" y="70.3" width="0.5" height="15.5"/>
<g>
	<path d="M508.7,70.4c0-1.8,2.5-3.5,4.5-3.5c1.3,0,2.3,0.7,2.3,1.7c0,1.7-2.5,3.5-4.6,3.5C509.7,72.1,508.7,71.5,508.7,70.4z"/>
</g>
<rect x="523.3" y="72.8" width="0.5" height="14.7"/>
<g>
	<path d="M523.4,72.9c0-1.8,2.5-3.5,4.5-3.5c1.3,0,2.3,0.7,2.3,1.7c0,1.7-2.5,3.5-4.6,3.5C524.4,74.6,523.4,74,523.4,72.9z"/>
</g>
<rect x="538.1" y="75.3" width="0.5" height="14"/>
<g>
	<path d="M538.1,75.4c0-1.8,2.5-3.5,4.5-3.5c1.3,0,2.3,0.7,2.3,1.7c0,1.7-2.5,3.5-4.6,3.5C539.1,77.1,538.1,76.5,538.1,75.4z"/>
</g>
<rect x="59.9" y="143.6" width="10.5" height="0.8"/>
<rect x="61.7" y="144.7" width="0.5" height="18.9"/>
<g>
	<path d="M61.8,144.8c0-1.8,2.5-3.5,4.5-3.5c1.3,0,2.3,0.7,2.3,1.7c0,1.7-2.5,3.5-4.6,3.5C62.8,146.5,61.8,145.9,61.8,144.8z"/>
</g>
<rect x="78.9" y="147.2" width="0.5" height="18"/>
<g>
	<path d="M79,147.3c0-1.8,2.5-3.5,4.5-3.5c1.3,0,2.3,0.7,2.3,1.7c0,1.7-2.5,3.5-4.6,3.5C80,149,79,148.4,79,147.3z"/>
</g>
<rect x="96.3" y="149.7" width="0.5" height="17.2"/>
<g>
	<path d="M96.4,149.8c0-1.8,2.5-3.5,4.5-3.5c1.3,0,2.3,0.7,2.3,1.7c0,1.7-2.5,3.5-4.6,3.5C97.3,151.5,96.4,150.9,96.4,149.8z"/>
</g>
<rect x="113.5" y="152.2" width="0.5" height="16.4"/>
<g>
	<path d="M113.6,152.3c0-1.8,2.5-3.5,4.5-3.5c1.3,0,2.3,0.7,2.3,1.7c0,1.7-2.5,3.5-4.6,3.5C114.5,154,113.6,153.4,113.6,152.3z"/>
</g>
<rect x="130.7" y="149.7" width="0.5" height="14"/>
<g>
	<path d="M130.8,149.8c0-1.8,2.5-3.5,4.5-3.5c1.3,0,2.3,0.7,2.3,1.7c0,1.7-2.5,3.5-4.6,3.5C131.7,151.5,130.8,150.9,130.8,149.8z"/>
</g>
<rect x="148.1" y="147.2" width="0.5" height="14.9"/>
<g>
	<path d="M148.1,147.3c0-1.8,2.5-3.5,4.5-3.5c1.3,0,2.3,0.7,2.3,1.7c0,1.7-2.5,3.5-4.6,3.5C149.1,149,148.1,148.4,148.1,147.3z"/>
</g>
<rect x="163.5" y="143.6" width="10.5" height="0.8"/>
<rect x="165.3" y="144.7" width="0.5" height="15.7"/>
<g>
	<path d="M165.3,144.8c0-1.8,2.5-3.5,4.5-3.5c1.3,0,2.3,0.7,2.3,1.7c0,1.7-2.5,3.5-4.6,3.5C166.3,146.5,165.3,145.9,165.3,144.8z"/>
</g>
<rect x="180.7" y="143.6" width="10.5" height="0.8"/>
<rect x="182.5" y="142.3" width="0.5" height="16.4"/>
<g>
	<path d="M182.5,142.3c0-1.8,2.5-3.5,4.5-3.5c1.3,0,2.3,0.7,2.3,1.7c0,1.7-2.5,3.5-4.6,3.5C183.5,144.1,182.5,143.4,182.5,142.3z"/>
</g>
<rect x="207" y="143.6" width="10.5" height="0.8"/>
<rect x="207" y="138.6" width="10.5" height="0.8"/>
<rect x="208.8" y="139.8" width="0.5" height="20.2"/>
<g>
	<path d="M208.9,139.9c0-1.8,2.5-3.5,4.5-3.5c1.3,0,2.3,0.7,2.3,1.7c0,1.7-2.5,3.5-4.6,3.5C209.9,141.6,208.9,141,208.9,139.9z"/>
</g>
<rect x="224.2" y="143.6" width="10.5" height="0.8"/>
<rect x="224.2" y="138.6" width="10.5" height="0.8"/>
<rect x="226" y="137.3" width="0.5" height="22.3"/>
<g>
	<path d="M226.1,137.4c0-1.8,2.5-3.5,4.5-3.5c1.3,0,2.3,0.7,2.3,1.7c0,1.7-2.5,3.5-4.6,3.5C227.1,139.1,226.1,138.5,226.1,137.4z"/>
</g>
<rect x="241.6" y="143.6" width="10.5" height="0.8"/>
<rect x="241.6" y="138.6" width="10.5" height="0.8"/>
<rect x="241.6" y="133.7" width="10.5" height="0.8"/>
<rect x="243.4" y="134.8" width="0.5" height="24.3"/>
<g>
	<path d="M243.5,134.9c0-1.8,2.5-3.5,4.5-3.5c1.3,0,2.3,0.7,2.3,1.7c0,1.7-2.5,3.5-4.6,3.5C244.4,136.6,243.5,136,243.5,134.9z"/>
</g>
<rect x="258.8" y="143.6" width="10.5" height="0.8"/>
<rect x="258.8" y="138.6" width="10.5" height="0.8"/>
<rect x="260.6" y="137.3" width="0.5" height="21.4"/>
<g>
	<path d="M260.7,137.4c0-1.8,2.5-3.5,4.5-3.5c1.3,0,2.3,0.7,2.3,1.7c0,1.7-2.5,3.5-4.6,3.5C261.6,139.1,260.7,138.5,260.7,137.4z"/>
</g>
<rect x="276" y="143.6" width="10.5" height="0.8"/>
<rect x="276" y="138.6" width="10.5" height="0.8"/>
<rect x="277.8" y="139.8" width="0.5" height="18.9"/>
<g>
	<path d="M277.9,139.9c0-1.8,2.5-3.5,4.5-3.5c1.3,0,2.3,0.7,2.3,1.7c0,1.7-2.5,3.5-4.6,3.5C278.8,141.6,277.9,141,277.9,139.9z"/>
</g>
<rect x="293.4" y="143.6" width="10.5" height="0.8"/>
<rect x="295.2" y="142.3" width="0.5" height="18"/>
<g>
	<path d="M295.2,142.3c0-1.8,2.5-3.5,4.5-3.5c1.3,0,2.3,0.7,2.3,1.7c0,1.7-2.5,3.5-4.6,3.5C296.2,144.1,295.2,143.4,295.2,142.3z"/>
</g>
<rect x="310.6" y="143.6" width="10.5" height="0.8"/>
<rect x="312.4" y="144.7" width="0.5" height="17.2"/>
<g>
	<path d="M312.4,144.8c0-1.8,2.5-3.5,4.5-3.5c1.3,0,2.3,0.7,2.3,1.7c0,1.7-2.5,3.5-4.6,3.5C313.4,146.5,312.4,145.9,312.4,144.8z"/>
</g>
<rect x="329.6" y="147.2" width="0.5" height="16.4"/>
<g>
	<path d="M329.7,147.3c0-1.8,2.5-3.5,4.5-3.5c1.3,0,2.3,0.7,2.3,1.7c0,1.7-2.5,3.5-4.6,3.5C330.6,149,329.7,148.4,329.7,147.3z"/>
</g>
<rect x="354.4" y="149.7" width="0.5" height="18.9"/>
<g>
	<path d="M354.5,149.8c0-1.8,2.5-3.5,4.5-3.5c1.3,0,2.3,0.7,2.3,1.7c0,1.7-2.5,3.5-4.6,3.5C355.4,151.5,354.5,150.9,354.5,149.8z"/>
</g>
<rect x="371.6" y="152.2" width="0.5" height="18"/>
<g>
	<path d="M371.7,152.3c0-1.8,2.5-3.5,4.5-3.5c1.3,0,2.3,0.7,2.3,1.7c0,1.7-2.5,3.5-4.6,3.5C372.6,154,371.7,153.4,371.7,152.3z"/>
</g>
<rect x="388.8" y="154.7" width="0.5" height="17.2"/>
<g>
	<path d="M388.9,154.7c0-1.8,2.5-3.5,4.5-3.5c1.3,0,2.3,0.7,2.3,1.7c0,1.7-2.5,3.5-4.6,3.5C389.8,156.5,388.9,155.8,388.9,154.7z"/>
</g>
<rect x="406" y="157.1" width="0.5" height="16.4"/>
<g>
	<path d="M406.1,157.2c0-1.8,2.5-3.5,4.5-3.5c1.3,0,2.3,0.7,2.3,1.7c0,1.7-2.5,3.5-4.6,3.5C407,158.9,406.1,158.3,406.1,157.2z"/>
</g>
<rect x="429.9" y="144.1" width="0.5" height="14"/>
<g>
	<path d="M423.4,159.7c0-1.8,2.5-3.5,4.5-3.5c1.3,0,2.3,0.7,2.3,1.7c0,1.7-2.5,3.5-4.6,3.5C424.4,161.4,423.4,160.8,423.4,159.7z"/>
</g>
<rect x="447.1" y="145.7" width="0.5" height="14.9"/>
<g>
	<path d="M440.6,162.2c0-1.8,2.5-3.5,4.5-3.5c1.3,0,2.3,0.7,2.3,1.7c0,1.7-2.5,3.5-4.6,3.5C441.6,163.9,440.6,163.3,440.6,162.2z"/>
</g>
<rect x="464.3" y="147.4" width="0.5" height="15.7"/>
<g>
	<path d="M457.8,164.7c0-1.8,2.5-3.5,4.5-3.5c1.3,0,2.3,0.7,2.3,1.7c0,1.7-2.5,3.5-4.6,3.5C458.8,166.4,457.8,165.8,457.8,164.7z"/>
</g>
<rect x="481.6" y="149.1" width="0.5" height="16.4"/>
<g>
	<path d="M475.2,167.1c0-1.8,2.5-3.5,4.5-3.5c1.3,0,2.3,0.7,2.3,1.7c0,1.7-2.5,3.5-4.6,3.5C476.2,168.9,475.2,168.2,475.2,167.1z"/>
</g>
<rect x="499" y="151.4" width="0.5" height="16.6"/>
<g>
	<path d="M496.7,166.1c1.6,0,2.7,0.7,2.7,2c0,1.9-2.3,3.4-4.5,3.4c-1.3,0-2.4-0.7-2.4-1.8C492.4,167.9,494.7,166.1,496.7,166.1z
		 M492.9,169.9c0,0.6,0.4,0.9,1.1,0.9c1.4,0,4.9-2.1,4.9-3.3c0-0.6-0.4-0.9-1.1-0.9C496.5,166.7,492.9,168.7,492.9,169.9z"/>
</g>
<rect x="68.2" y="191.2" width="0.5" height="16.4"/>
<g>
	<path d="M61.8,209.3c0-1.8,2.5-3.5,4.5-3.5c1.3,0,2.3,0.7,2.3,1.7c0,1.7-2.5,3.5-4.6,3.5C62.8,211,61.8,210.4,61.8,209.3z"/>
</g>
<rect x="85.4" y="192.8" width="0.5" height="17.4"/>
<g>
	<path d="M79,211.8c0-1.8,2.5-3.5,4.5-3.5c1.3,0,2.3,0.7,2.3,1.7c0,1.7-2.5,3.5-4.6,3.5C80,213.5,79,212.9,79,211.8z"/>
</g>
<rect x="102.8" y="194.5" width="0.5" height="18.1"/>
<g>
	<path d="M96.4,214.3c0-1.8,2.5-3.5,4.5-3.5c1.3,0,2.3,0.7,2.3,1.7c0,1.7-2.5,3.5-4.6,3.5C97.3,216,96.4,215.4,96.4,214.3z"/>
</g>
<rect x="120" y="196.2" width="0.5" height="18.9"/>
<g>
	<path d="M113.6,216.7c0-1.8,2.5-3.5,4.5-3.5c1.3,0,2.3,0.7,2.3,1.7c0,1.7-2.5,3.5-4.6,3.5C114.5,218.5,113.6,217.8,113.6,216.7z"/>
</g>
<rect x="137.2" y="201.2" width="0.5" height="16.4"/>
<g>
	<path d="M130.8,219.2c0-1.8,2.5-3.5,4.5-3.5c1.3,0,2.3,0.7,2.3,1.7c0,1.7-2.5,3.5-4.6,3.5C131.7,221,130.8,220.3,130.8,219.2z"/>
</g>
<rect x="146.3" y="220.5" width="10.5" height="0.8"/>
<rect x="154.6" y="202.7" width="0.5" height="17.4"/>
<g>
	<path d="M148.1,221.7c0-1.8,2.5-3.5,4.5-3.5c1.3,0,2.3,0.7,2.3,1.7c0,1.7-2.5,3.5-4.6,3.5C149.1,223.4,148.1,222.8,148.1,221.7z"/>
</g>
<rect x="163.5" y="220.5" width="10.5" height="0.8"/>
<rect x="171.8" y="204.4" width="0.5" height="18.1"/>
<g>
	<path d="M165.3,224.2c0-1.8,2.5-3.5,4.5-3.5c1.3,0,2.3,0.7,2.3,1.7c0,1.7-2.5,3.5-4.6,3.5C166.3,225.9,165.3,225.3,165.3,224.2z"/>
</g>
<rect x="180.7" y="220.5" width="10.5" height="0.8"/>
<rect x="180.7" y="225.4" width="10.5" height="0.8"/>
<rect x="189" y="206.1" width="0.5" height="18.9"/>
<g>
	<path d="M182.5,226.7c0-1.8,2.5-3.5,4.5-3.5c1.3,0,2.3,0.7,2.3,1.7c0,1.7-2.5,3.5-4.6,3.5C183.5,228.4,182.5,227.8,182.5,226.7z"/>
</g>
<rect x="208.8" y="199.3" width="0.5" height="21.4"/>
<g>
	<path d="M208.9,199.4c0-1.8,2.5-3.5,4.5-3.5c1.3,0,2.3,0.7,2.3,1.7c0,1.7-2.5,3.5-4.6,3.5C209.9,201.1,208.9,200.5,208.9,199.4z"/>
</g>
<rect x="226" y="201.8" width="0.5" height="18.9"/>
<g>
	<path d="M226.1,201.9c0-1.8,2.5-3.5,4.5-3.5c1.3,0,2.3,0.7,2.3,1.7c0,1.7-2.5,3.5-4.6,3.5C227.1,203.6,226.1,203,226.1,201.9z"/>
</g>
<rect x="243.4" y="204.3" width="0.5" height="16.4"/>
<g>
	<path d="M243.5,204.3c0-1.8,2.5-3.5,4.5-3.5c1.3,0,2.3,0.7,2.3,1.7c0,1.7-2.5,3.5-4.6,3.5C244.4,206.1,243.5,205.4,243.5,204.3z"/>
</g>
<rect x="260.6" y="201.8" width="0.5" height="18.9"/>
<g>
	<path d="M260.7,201.9c0-1.8,2.5-3.5,4.5-3.5c1.3,0,2.3,0.7,2.3,1.7c0,1.7-2.5,3.5-4.6,3.5C261.6,203.6,260.7,203,260.7,201.9z"/>
</g>
<rect x="277.8" y="199.3" width="0.5" height="16.4"/>
<g>
	<path d="M277.9,199.4c0-1.8,2.5-3.5,4.5-3.5c1.3,0,2.3,0.7,2.3,1.7c0,1.7-2.5,3.5-4.6,3.5C278.8,201.1,277.9,200.5,277.9,199.4z"/>
</g>
<rect x="295.2" y="196.8" width="0.5" height="17.4"/>
<g>
	<path d="M295.2,196.9c0-1.8,2.5-3.5,4.5-3.5c1.3,0,2.3,0.7,2.3,1.7c0,1.7-2.5,3.5-4.6,3.5C296.2,198.6,295.2,198,295.2,196.9z"/>
</g>
<rect x="312.4" y="194.3" width="0.5" height="18.1"/>
<g>
	<path d="M312.4,194.4c0-1.8,2.5-3.5,4.5-3.5c1.3,0,2.3,0.7,2.3,1.7c0,1.7-2.5,3.5-4.6,3.5C313.4,196.1,312.4,195.5,312.4,194.4z"/>
</g>
<rect x="327.8" y="190.7" width="10.5" height="0.8"/>
<rect x="329.6" y="191.9" width="0.5" height="18.9"/>
<g>
	<path d="M329.7,191.9c0-1.8,2.5-3.5,4.5-3.5c1.3,0,2.3,0.7,2.3,1.7c0,1.7-2.5,3.5-4.6,3.5C330.6,193.7,329.7,193,329.7,191.9z"/>
</g>
<rect x="352.6" y="190.7" width="10.5" height="0.8"/>
<rect x="354.4" y="189.4" width="0.5" height="16.4"/>
<g>
	<path d="M354.5,189.5c0-1.8,2.5-3.5,4.5-3.5c1.3,0,2.3,0.7,2.3,1.7c0,1.7-2.5,3.5-4.6,3.5C355.4,191.2,354.5,190.6,354.5,189.5z"/>
</g>
<rect x="369.8" y="190.7" width="10.5" height="0.8"/>
<rect x="369.8" y="185.7" width="10.5" height="0.8"/>
<rect x="371.6" y="186.9" width="0.5" height="19.2"/>
<g>
	<path d="M371.7,187c0-1.8,2.5-3.5,4.5-3.5c1.3,0,2.3,0.7,2.3,1.7c0,1.7-2.5,3.5-4.6,3.5C372.6,188.7,371.7,188.1,371.7,187z"/>
</g>
<rect x="387" y="190.7" width="10.5" height="0.8"/>
<rect x="388.8" y="189.4" width="0.5" height="17.2"/>
<g>
	<path d="M388.9,189.5c0-1.8,2.5-3.5,4.5-3.5c1.3,0,2.3,0.7,2.3,1.7c0,1.7-2.5,3.5-4.6,3.5C389.8,191.2,388.9,190.6,388.9,189.5z"/>
</g>
<rect x="404.2" y="190.7" width="10.5" height="0.8"/>
<rect x="406" y="191.9" width="0.5" height="15.2"/>
<g>
	<path d="M406.1,191.9c0-1.8,2.5-3.5,4.5-3.5c1.3,0,2.3,0.7,2.3,1.7c0,1.7-2.5,3.5-4.6,3.5C407,193.7,406.1,193,406.1,191.9z"/>
</g>
<rect x="423.4" y="194.3" width="0.5" height="16.4"/>
<g>
	<path d="M423.4,194.4c0-1.8,2.5-3.5,4.5-3.5c1.3,0,2.3,0.7,2.3,1.7c0,1.7-2.5,3.5-4.6,3.5C424.4,196.1,423.4,195.5,423.4,194.4z"/>
</g>
<rect x="440.6" y="196.8" width="0.5" height="15.5"/>
<g>
	<path d="M440.6,196.9c0-1.8,2.5-3.5,4.5-3.5c1.3,0,2.3,0.7,2.3,1.7c0,1.7-2.5,3.5-4.6,3.5C441.6,198.6,440.6,198,440.6,196.9z"/>
</g>
<rect x="457.8" y="199.3" width="0.5" height="14.7"/>
<g>
	<path d="M457.8,199.4c0-1.8,2.5-3.5,4.5-3.5c1.3,0,2.3,0.7,2.3,1.7c0,1.7-2.5,3.5-4.6,3.5C458.8,201.1,457.8,200.5,457.8,199.4z"/>
</g>
<rect x="475.1" y="201.8" width="0.5" height="14"/>
<g>
	<path d="M475.2,201.9c0-1.8,2.5-3.5,4.5-3.5c1.3,0,2.3,0.7,2.3,1.7c0,1.7-2.5,3.5-4.6,3.5C476.2,203.6,475.2,203,475.2,201.9z"/>
</g>
<rect x="492.3" y="204.3" width="0.5" height="16.6"/>
<g>
	<path d="M496.7,200.8c1.6,0,2.7,0.7,2.7,2c0,1.9-2.3,3.4-4.5,3.4c-1.3,0-2.4-0.7-2.4-1.8C492.4,202.6,494.7,200.8,496.7,200.8z
		 M492.9,204.6c0,0.6,0.4,0.9,1.1,0.9c1.4,0,4.9-2.1,4.9-3.3c0-0.6-0.4-0.9-1.1-0.9C496.5,201.4,492.9,203.4,492.9,204.6z"/>
</g>
</svg>
