<?xml version="1.0" encoding="utf-8"?>

<!--
	ScaleBook
	Copyright (c) Leland Jansen 2015. All rights reserved.
-->

<!DOCTYPE svg PUBLIC "-//W3C//DTD SVG 1.1//EN" "http://www.w3.org/Graphics/SVG/1.1/DTD/svg11.dtd">
<svg version="1.1" id="Layer_1" xmlns="http://www.w3.org/2000/svg" xmlns:xlink="http://www.w3.org/1999/xlink" x="0px" y="0px"
	 viewBox="0 0 553 227.9" enable-background="new 0 0 553 227.9" xml:space="preserve">
<rect x="8.4" y="20" width="0.8" height="67"/>
<g>
	<path d="M7.4,20.6c-1.9,1.1-3.6,5.8-3.6,9.4c0,2.3,1.4,9.9,1.4,12.3c0,5-1.5,8.6-4.6,11.1c3,2.4,4.6,6.1,4.6,11
		c0,2.3-1.4,9.9-1.4,12.3c0,3.8,1.7,8.4,3.6,9.5v0.7c-3.5-2.3-5.8-8.2-5.8-13.1c0-2.1,1.7-9.4,1.7-11.5c0-3.8-1-6.6-2.9-8.2
		C0.1,53.8,0,53.6,0,53.4s0.1-0.4,0.5-0.7c1.9-1.7,2.9-4.2,2.9-7.6c0-2.1-1.7-10-1.7-12.2c0-5.2,2.1-10.4,5.8-13.1V20.6z"/>
</g>
<rect x="8.4" y="150.9" width="0.8" height="67"/>
<g>
	<path d="M7.4,151.6c-1.9,1.1-3.6,5.8-3.6,9.4c0,2.3,1.4,9.9,1.4,12.3c0,5-1.5,8.6-4.6,11.1c3,2.4,4.6,6.1,4.6,11
		c0,2.3-1.4,9.9-1.4,12.3c0,3.8,1.7,8.4,3.6,9.5v0.7c-3.5-2.3-5.8-8.2-5.8-13.1c0-2.1,1.7-9.4,1.7-11.5c0-3.8-1-6.6-2.9-8.2
		c-0.3-0.3-0.5-0.5-0.5-0.7s0.1-0.4,0.5-0.7c1.9-1.7,2.9-4.2,2.9-7.6c0-2.1-1.7-10-1.7-12.2c0-5.2,2.1-10.4,5.8-13.1V151.6z"/>
</g>
<rect x="287.9" y="20" width="0.8" height="67"/>
<rect x="552.2" y="20" width="0.8" height="67"/>
<rect x="338.1" y="150.9" width="0.8" height="67"/>
<rect x="547.8" y="150.9" width="0.8" height="67"/>
<rect x="550.4" y="150.9" width="2.5" height="67"/>
<rect x="8.5" y="39.6" width="544.4" height="0.5"/>
<rect x="8.5" y="34.6" width="544.4" height="0.5"/>
<rect x="8.5" y="29.6" width="544.4" height="0.5"/>
<rect x="8.5" y="24.7" width="544.4" height="0.5"/>
<rect x="8.5" y="19.7" width="544.4" height="0.5"/>
<g>
	<path d="M20.3,39.6c-4.2,0-8.1-3.1-8.1-6.9c0-3.2,2.3-6.7,6.8-10.5c-0.3-1.2-0.4-2.4-0.4-3.6c0-3.5,1.2-6.8,3.2-8.5
		c1.8,2.5,2.7,4.9,2.7,7.1c0,2.9-1.3,5.6-4.3,8.1l0.9,4.2c0.5,0,0.8-0.1,0.8-0.1c2.6,0,4.8,2,4.8,4.7c0,1.9-1.4,3.7-3.6,4.8
		c0-0.1,0.9,3.8,0.9,4.3c0,2.5-2.3,4.2-4.9,4.2c-2,0-3.6-1.3-3.6-3.4c0-1.4,1-2.6,2.4-2.6c1.3,0,2.3,1.3,2.3,2.5
		c0,1.4-1.2,2.3-2.7,2.5c0.6,0.3,1.2,0.5,1.9,0.5c2.1,0,4.1-1.6,4.1-3.6c0-0.2,0-0.4-0.1-0.6l-0.8-3.7
		C21.9,39.5,21.2,39.6,20.3,39.6z M18.1,34.4c0,1,0.5,1.9,1.6,2.5c-1.8-0.3-3-1.4-3-3.1c0-2,1.7-3.7,3.8-4.1l-0.8-4
		C16,28.5,14,31.2,14,33.9c0,2.9,2.8,5.3,6,5.3c0.9,0,1.7-0.2,2.4-0.5L21,31.8C19.4,32,18.1,33.1,18.1,34.4z M22.1,13.1
		c-1.6,0-2.9,3.7-2.9,7c0,0.7,0,1.3,0.2,1.9c2.7-2.4,4-4.5,4-6.5c0-0.9-0.3-1.7-1-2.4C22.4,13.1,22.3,13.1,22.1,13.1z M24.9,35
		c0-1.6-1.2-3.3-2.9-3.3c-0.1,0-0.2,0-0.5,0l1.4,6.6C24.2,37.4,24.9,36.3,24.9,35z"/>
</g>
<g>
	<path d="M29.5,21.6h0.6L30,27.8c0.4-0.7,1-1,1.8-1c1.2,0,2.2,0.8,2.2,1.9c0,0.8-0.5,1.8-1.7,2.7l-2.8,2.1V21.6z M30.1,28.5
		C30,29.2,30,29.9,30,30.4c0,1,0,1.6,0.1,2c1-0.7,2.4-2.6,2.4-3.7c0-0.6-0.5-1.1-1.1-1.1C30.8,27.6,30.4,27.9,30.1,28.5z"/>
</g>
<polygon fill-rule="evenodd" clip-rule="evenodd" points="49.2,26.2 95.3,21.2 95.3,18.7 49.2,23.7 "/>
<polygon fill-rule="evenodd" clip-rule="evenodd" points="49.2,22.4 95.3,17.5 95.3,15 49.2,20 "/>
<polygon fill-rule="evenodd" clip-rule="evenodd" points="104.3,41 150.3,36.1 150.3,33.6 104.3,38.6 "/>
<polygon fill-rule="evenodd" clip-rule="evenodd" points="104.3,44.8 150.3,39.8 150.3,37.3 104.3,42.3 "/>
<polygon fill-rule="evenodd" clip-rule="evenodd" points="165.6,31.1 211.8,26.2 211.8,23.7 165.6,28.6 "/>
<polygon fill-rule="evenodd" clip-rule="evenodd" points="165.6,34.8 211.8,29.9 211.8,27.4 165.6,32.4 "/>
<polygon fill-rule="evenodd" clip-rule="evenodd" points="227.2,27.4 273.2,26.2 273.2,23.7 227.2,24.9 "/>
<polygon fill-rule="evenodd" clip-rule="evenodd" points="227.2,31.1 273.2,29.9 273.2,27.4 227.2,28.6 "/>
<polygon fill-rule="evenodd" clip-rule="evenodd" points="296.2,26.2 342.2,27.4 342.2,24.9 296.2,23.7 "/>
<polygon fill-rule="evenodd" clip-rule="evenodd" points="296.2,29.9 342.2,31.1 342.2,28.6 296.2,27.4 "/>
<rect x="368.6" y="29.9" fill-rule="evenodd" clip-rule="evenodd" width="46.2" height="2.5"/>
<rect x="368.6" y="33.6" fill-rule="evenodd" clip-rule="evenodd" width="46.2" height="2.5"/>
<polygon fill-rule="evenodd" clip-rule="evenodd" points="430.1,27.4 476.1,26.2 476.1,23.7 430.1,24.9 "/>
<polygon fill-rule="evenodd" clip-rule="evenodd" points="430.1,31.1 476.1,29.9 476.1,27.4 430.1,28.6 "/>
<polygon fill-rule="evenodd" clip-rule="evenodd" points="491.5,26.2 537.7,27.4 537.7,24.9 491.5,23.7 "/>
<polygon fill-rule="evenodd" clip-rule="evenodd" points="491.5,29.9 537.7,31.1 537.7,28.6 491.5,27.4 "/>
<rect x="8.5" y="86.7" width="544.4" height="0.5"/>
<rect x="8.5" y="81.7" width="544.4" height="0.5"/>
<rect x="8.5" y="76.8" width="544.4" height="0.5"/>
<rect x="8.5" y="71.8" width="544.4" height="0.5"/>
<rect x="8.5" y="66.9" width="544.4" height="0.5"/>
<g>
	<path d="M15.7,81.3c2.9-2.6,4.7-6.1,4.7-9.2c0-2.5-1.4-4.4-3.7-4.4c-1.6,0-3.4,1.3-3.4,2.7c0,0.2,0,0.3,0.1,0.3
		c-0.1,0,0.6-0.6,1.4-0.6c0.9,0,1.5,0.8,1.5,1.7c0,1.2-0.9,2.2-2.1,2.2c-1.2,0-2.1-1.3-2.1-2.8c0-2.3,2.3-4.1,4.8-4.1
		c4.7,0,5.9,3.2,5.9,5.8c0,1.6-0.4,2.9-2,5.3c-1.9,3.1-6.4,5.3-8.1,5.3c-0.4,0-0.6-0.2-0.6-0.5C13.8,82.5,14.9,82,15.7,81.3z
		 M25.7,68.6c0.6,0,1,0.4,1,1s-0.4,1-1,1s-1-0.4-1-1S25.1,68.6,25.7,68.6z M25.7,73.5c0.6,0,1,0.4,1,1c0,0.6-0.4,1-1,1s-1-0.4-1-1
		C24.7,73.9,25.1,73.5,25.7,73.5z"/>
</g>
<g>
	<path d="M29.5,73.7h0.6L30,79.9c0.4-0.7,1-1,1.8-1c1.2,0,2.2,0.8,2.2,1.9c0,0.8-0.5,1.8-1.7,2.7l-2.8,2.1V73.7z M30.1,80.6
		C30,81.3,30,82,30,82.5c0,1,0,1.6,0.1,2c1-0.7,2.4-2.6,2.4-3.7c0-0.6-0.5-1.1-1.1-1.1C30.8,79.7,30.4,80,30.1,80.6z"/>
</g>
<polygon fill-rule="evenodd" clip-rule="evenodd" points="42.7,83.2 88.8,78.2 88.8,75.8 42.7,80.7 "/>
<polygon fill-rule="evenodd" clip-rule="evenodd" points="42.7,86.9 88.8,82 88.8,79.5 42.7,84.4 "/>
<polygon fill-rule="evenodd" clip-rule="evenodd" points="104.3,74.5 150.3,73.3 150.3,70.8 104.3,72 "/>
<polygon fill-rule="evenodd" clip-rule="evenodd" points="104.3,78.2 150.3,77 150.3,74.5 104.3,75.8 "/>
<polygon fill-rule="evenodd" clip-rule="evenodd" points="165.6,73.3 211.8,78.2 211.8,75.8 165.6,70.8 "/>
<polygon fill-rule="evenodd" clip-rule="evenodd" points="165.6,77 211.8,82 211.8,79.5 165.6,74.5 "/>
<rect x="227.2" y="82" fill-rule="evenodd" clip-rule="evenodd" width="46" height="2.5"/>
<rect x="227.2" y="85.7" fill-rule="evenodd" clip-rule="evenodd" width="46" height="2.5"/>
<g>
	<path d="M362.4,85.6c-3.2,0-6.1-2.3-6.1-5.1c0-2.4,1.7-5,5.1-7.9c-0.2-0.9-0.3-1.8-0.3-2.7c0-2.6,0.9-5.1,2.4-6.3
		c1.4,1.9,2,3.7,2,5.3c0,2.2-1,4.2-3.2,6.1l0.7,3.1c0.4,0,0.6,0,0.6,0c2,0,3.6,1.5,3.6,3.5c0,1.4-1.1,2.8-2.7,3.6
		c0-0.1,0.6,2.8,0.6,3.3c0,1.9-1.7,3.2-3.7,3.2c-1.5,0-2.7-1-2.7-2.5c0-1.1,0.7-1.9,1.8-1.9c1,0,1.7,1,1.7,1.9c0,1-0.9,1.7-2,1.8
		c0.4,0.2,0.9,0.3,1.4,0.3c1.6,0,3.1-1.2,3.1-2.7c0-0.1,0-0.3,0-0.5l-0.6-2.8C363.6,85.5,363.1,85.6,362.4,85.6z M360.7,81.7
		c0,0.8,0.4,1.4,1.2,1.9c-1.3-0.2-2.2-1.1-2.2-2.3c0-1.5,1.3-2.8,2.9-3.1l-0.6-3c-2.8,2.1-4.3,4.1-4.3,6.1c0,2.2,2.1,4,4.5,4
		c0.7,0,1.3-0.1,1.8-0.4l-1.1-5.1C361.7,79.9,360.7,80.6,360.7,81.7z M363.8,65.6c-1.2,0-2.2,2.8-2.2,5.3c0,0.5,0,1,0.1,1.4
		c2-1.8,3-3.4,3-4.8c0-0.7-0.3-1.3-0.7-1.8C364,65.7,363.9,65.6,363.8,65.6z M365.8,82.1c0-1.2-0.9-2.4-2.2-2.4c0,0-0.2,0-0.4,0
		l1.1,5C365.3,83.9,365.8,83,365.8,82.1z"/>
</g>
<polygon fill-rule="evenodd" clip-rule="evenodd" points="296.2,78.2 342.2,73.3 342.2,70.8 296.2,75.8 "/>
<polygon fill-rule="evenodd" clip-rule="evenodd" points="296.2,82 342.2,77 342.2,74.5 296.2,79.5 "/>
<polygon fill-rule="evenodd" clip-rule="evenodd" points="375.1,73.3 421.3,68.3 421.3,65.8 375.1,70.8 "/>
<polygon fill-rule="evenodd" clip-rule="evenodd" points="375.1,69.6 421.3,64.6 421.3,62.1 375.1,67.1 "/>
<polygon fill-rule="evenodd" clip-rule="evenodd" points="430.1,88.2 476.1,83.2 476.1,80.7 430.1,85.7 "/>
<polygon fill-rule="evenodd" clip-rule="evenodd" points="430.1,91.9 476.1,86.9 476.1,84.4 430.1,89.4 "/>
<polygon fill-rule="evenodd" clip-rule="evenodd" points="491.5,83.2 537.7,88.2 537.7,85.7 491.5,80.7 "/>
<polygon fill-rule="evenodd" clip-rule="evenodd" points="491.5,86.9 537.7,91.9 537.7,89.4 491.5,84.4 "/>
<rect x="8.5" y="170.6" width="544.4" height="0.5"/>
<rect x="8.5" y="165.6" width="544.4" height="0.5"/>
<rect x="8.5" y="160.6" width="544.4" height="0.5"/>
<rect x="8.5" y="155.7" width="544.4" height="0.5"/>
<rect x="8.5" y="150.7" width="544.4" height="0.5"/>
<g>
	<path d="M20.3,170.6c-4.2,0-8.1-3.1-8.1-6.9c0-3.2,2.3-6.7,6.8-10.5c-0.3-1.2-0.4-2.4-0.4-3.6c0-3.5,1.2-6.8,3.2-8.5
		c1.8,2.5,2.7,4.9,2.7,7.1c0,2.9-1.3,5.6-4.3,8.1l0.9,4.2c0.5,0,0.8-0.1,0.8-0.1c2.6,0,4.8,2,4.8,4.7c0,1.9-1.4,3.7-3.6,4.8
		c0-0.1,0.9,3.8,0.9,4.3c0,2.5-2.3,4.2-4.9,4.2c-2,0-3.6-1.3-3.6-3.4c0-1.4,1-2.6,2.4-2.6c1.3,0,2.3,1.3,2.3,2.5
		c0,1.4-1.2,2.3-2.7,2.5c0.6,0.3,1.2,0.5,1.9,0.5c2.1,0,4.1-1.6,4.1-3.6c0-0.2,0-0.4-0.1-0.6l-0.8-3.7
		C21.9,170.5,21.2,170.6,20.3,170.6z M18.1,165.4c0,1,0.5,1.9,1.6,2.5c-1.8-0.3-3-1.4-3-3.1c0-2,1.7-3.7,3.8-4.1l-0.8-4
		c-3.7,2.8-5.7,5.5-5.7,8.1c0,2.9,2.8,5.3,6,5.3c0.9,0,1.7-0.2,2.4-0.5l-1.4-6.8C19.4,163,18.1,164,18.1,165.4z M22.1,144.1
		c-1.6,0-2.9,3.7-2.9,7c0,0.7,0,1.3,0.2,1.9c2.7-2.4,4-4.5,4-6.5c0-0.9-0.3-1.7-1-2.4C22.4,144.1,22.3,144.1,22.1,144.1z
		 M24.9,165.9c0-1.6-1.2-3.3-2.9-3.3c-0.1,0-0.2,0-0.5,0l1.4,6.6C24.2,168.4,24.9,167.3,24.9,165.9z"/>
</g>
<g>
	<path d="M29.5,152.6h0.6l-0.1,6.2c0.4-0.7,1-1,1.8-1c1.2,0,2.2,0.8,2.2,1.9c0,0.8-0.5,1.8-1.7,2.7l-2.8,2.1V152.6z M30.1,159.5
		c-0.1,0.8-0.1,1.4-0.1,1.9c0,1,0,1.6,0.1,2c1-0.7,2.4-2.6,2.4-3.7c0-0.6-0.5-1.1-1.1-1.1C30.8,158.6,30.4,158.9,30.1,159.5z"/>
</g>
<polygon fill-rule="evenodd" clip-rule="evenodd" points="42.7,157.1 96.7,162.1 96.7,159.6 42.7,154.7 "/>
<polygon fill-rule="evenodd" clip-rule="evenodd" points="42.7,160.9 96.7,165.8 96.7,163.3 42.7,158.4 "/>
<polygon fill-rule="evenodd" clip-rule="evenodd" points="114.6,162.1 168.6,157.1 168.6,154.7 114.6,159.6 "/>
<polygon fill-rule="evenodd" clip-rule="evenodd" points="114.6,165.8 168.6,160.9 168.6,158.4 114.6,163.3 "/>
<polygon fill-rule="evenodd" clip-rule="evenodd" points="194.9,158.4 249,157.1 249,154.7 194.9,155.9 "/>
<polygon fill-rule="evenodd" clip-rule="evenodd" points="194.9,162.1 249,160.9 249,158.4 194.9,159.6 "/>
<polygon fill-rule="evenodd" clip-rule="evenodd" points="267,157.1 321,158.4 321,155.9 267,154.7 "/>
<polygon fill-rule="evenodd" clip-rule="evenodd" points="267,160.9 321,162.1 321,159.6 267,158.4 "/>
<polygon fill-rule="evenodd" clip-rule="evenodd" points="346.4,162.1 400.3,167.1 400.3,164.6 346.4,159.6 "/>
<polygon fill-rule="evenodd" clip-rule="evenodd" points="346.4,165.8 400.3,170.8 400.3,168.3 346.4,163.3 "/>
<polygon fill-rule="evenodd" clip-rule="evenodd" points="424.8,147.2 478.8,152.2 478.8,149.7 424.8,144.7 "/>
<polygon fill-rule="evenodd" clip-rule="evenodd" points="424.8,143.5 478.8,148.5 478.8,146 424.8,141 "/>
<rect x="8.5" y="217.7" width="544.4" height="0.5"/>
<rect x="8.5" y="212.7" width="544.4" height="0.5"/>
<rect x="8.5" y="207.8" width="544.4" height="0.5"/>
<rect x="8.5" y="202.8" width="544.4" height="0.5"/>
<rect x="8.5" y="197.8" width="544.4" height="0.5"/>
<g>
	<path d="M20.3,217.7c-4.2,0-8.1-3.1-8.1-6.9c0-3.2,2.3-6.7,6.8-10.5c-0.3-1.2-0.4-2.4-0.4-3.6c0-3.5,1.2-6.8,3.2-8.5
		c1.8,2.5,2.7,4.9,2.7,7.1c0,2.9-1.3,5.6-4.3,8.1l0.9,4.2c0.5,0,0.8-0.1,0.8-0.1c2.6,0,4.8,2,4.8,4.7c0,1.9-1.4,3.7-3.6,4.8
		c0-0.1,0.9,3.8,0.9,4.3c0,2.5-2.3,4.2-4.9,4.2c-2,0-3.6-1.3-3.6-3.4c0-1.4,1-2.6,2.4-2.6c1.3,0,2.3,1.3,2.3,2.5
		c0,1.4-1.2,2.3-2.7,2.5c0.6,0.3,1.2,0.5,1.9,0.5c2.1,0,4.1-1.6,4.1-3.6c0-0.2,0-0.4-0.1-0.6l-0.8-3.7
		C21.9,217.6,21.2,217.7,20.3,217.7z M18.1,212.5c0,1,0.5,1.9,1.6,2.5c-1.8-0.3-3-1.4-3-3.1c0-2,1.7-3.7,3.8-4.1l-0.8-4
		c-3.7,2.8-5.7,5.5-5.7,8.1c0,2.9,2.8,5.3,6,5.3c0.9,0,1.7-0.2,2.4-0.5l-1.4-6.8C19.4,210.1,18.1,211.2,18.1,212.5z M22.1,191.2
		c-1.6,0-2.9,3.7-2.9,7c0,0.7,0,1.3,0.2,1.9c2.7-2.4,4-4.5,4-6.5c0-0.9-0.3-1.7-1-2.4C22.4,191.2,22.3,191.2,22.1,191.2z
		 M24.9,213.1c0-1.6-1.2-3.3-2.9-3.3c-0.1,0-0.2,0-0.5,0l1.4,6.6C24.2,215.5,24.9,214.4,24.9,213.1z"/>
</g>
<g>
	<path d="M29.5,199.7h0.6l-0.1,6.2c0.4-0.7,1-1,1.8-1c1.2,0,2.2,0.8,2.2,1.9c0,0.8-0.5,1.8-1.7,2.7l-2.8,2.1V199.7z M30.1,206.6
		c-0.1,0.8-0.1,1.4-0.1,1.9c0,1,0,1.6,0.1,2c1-0.7,2.4-2.6,2.4-3.7c0-0.6-0.5-1.1-1.1-1.1C30.8,205.7,30.4,206,30.1,206.6z"/>
</g>
<polygon fill-rule="evenodd" clip-rule="evenodd" points="49.2,199.3 103.2,204.3 103.2,201.8 49.2,196.8 "/>
<polygon fill-rule="evenodd" clip-rule="evenodd" points="49.2,195.6 103.2,200.5 103.2,198.1 49.2,193.1 "/>
<g>
	<path d="M185.3,209.9c2.2-2,3.6-4.6,3.6-6.9c0-1.9-1.1-3.3-2.8-3.3c-1.2,0-2.5,1-2.5,2.1c0,0.2,0,0.2,0.1,0.2c0,0,0.4-0.5,1-0.5
		c0.7,0,1.2,0.6,1.2,1.3c0,0.9-0.6,1.7-1.6,1.7c-0.9,0-1.5-1-1.5-2.1c0-1.8,1.7-3.1,3.6-3.1c3.5,0,4.4,2.4,4.4,4.4
		c0,1.2-0.3,2.2-1.5,4c-1.4,2.3-4.8,4-6,4c-0.3,0-0.5-0.1-0.5-0.3C183.9,210.9,184.8,210.5,185.3,209.9z M192.8,200.4
		c0.4,0,0.7,0.3,0.7,0.7c0,0.4-0.3,0.7-0.7,0.7s-0.7-0.3-0.7-0.7C192.1,200.7,192.4,200.4,192.8,200.4z M192.8,204.1
		c0.4,0,0.7,0.3,0.7,0.7c0,0.4-0.3,0.7-0.7,0.7s-0.7-0.3-0.7-0.7C192.1,204.5,192.4,204.1,192.8,204.1z"/>
</g>
<polygon fill-rule="evenodd" clip-rule="evenodd" points="121.2,209.2 175.1,214.2 175.1,211.7 121.2,206.7 "/>
<polygon fill-rule="evenodd" clip-rule="evenodd" points="121.2,205.5 175.1,210.5 175.1,208 121.2,203 "/>
<rect x="194.9" y="212.9" fill-rule="evenodd" clip-rule="evenodd" width="54.1" height="2.5"/>
<rect x="194.9" y="216.7" fill-rule="evenodd" clip-rule="evenodd" width="54.1" height="2.5"/>
<polygon fill-rule="evenodd" clip-rule="evenodd" points="267,209.2 321,204.3 321,201.8 267,206.7 "/>
<polygon fill-rule="evenodd" clip-rule="evenodd" points="267,212.9 321,208 321,205.5 267,210.5 "/>
<polygon fill-rule="evenodd" clip-rule="evenodd" points="346.4,204.3 400.3,205.5 400.3,203 346.4,201.8 "/>
<polygon fill-rule="evenodd" clip-rule="evenodd" points="346.4,208 400.3,209.2 400.3,206.7 346.4,205.5 "/>
<polygon fill-rule="evenodd" clip-rule="evenodd" points="418.3,209.2 472.3,214.2 472.3,211.7 418.3,206.7 "/>
<polygon fill-rule="evenodd" clip-rule="evenodd" points="418.3,212.9 472.3,217.9 472.3,215.4 418.3,210.5 "/>
<rect x="49" y="20.1" width="0.5" height="16.4"/>
<g>
	<path d="M42.6,38.2c0-1.8,2.5-3.5,4.5-3.5c1.3,0,2.3,0.7,2.3,1.7c0,1.7-2.5,3.5-4.6,3.5C43.5,39.9,42.6,39.3,42.6,38.2z"/>
</g>
<rect x="64.3" y="18.6" width="0.5" height="15.5"/>
<g>
	<path d="M57.9,35.7c0-1.8,2.5-3.5,4.5-3.5c1.3,0,2.3,0.7,2.3,1.7c0,1.7-2.5,3.5-4.6,3.5C58.9,37.4,57.9,36.8,57.9,35.7z"/>
</g>
<rect x="79.7" y="16.9" width="0.5" height="14.7"/>
<g>
	<path d="M73.3,33.2c0-1.8,2.5-3.5,4.5-3.5c1.3,0,2.3,0.7,2.3,1.7c0,1.7-2.5,3.5-4.6,3.5C74.2,34.9,73.3,34.3,73.3,33.2z"/>
</g>
<rect x="95" y="15.2" width="0.5" height="14"/>
<g>
	<path d="M88.6,30.7c0-1.8,2.5-3.5,4.5-3.5c1.3,0,2.3,0.7,2.3,1.7c0,1.7-2.5,3.5-4.6,3.5C89.6,32.5,88.6,31.8,88.6,30.7z"/>
</g>
<rect x="104" y="28.2" width="0.5" height="16.4"/>
<g>
	<path d="M104.1,28.3c0-1.8,2.5-3.5,4.5-3.5c1.3,0,2.3,0.7,2.3,1.7c0,1.7-2.5,3.5-4.6,3.5C105.1,30,104.1,29.3,104.1,28.3z"/>
</g>
<rect x="119.4" y="25.7" width="0.5" height="17.4"/>
<g>
	<path d="M119.5,25.8c0-1.8,2.5-3.5,4.5-3.5c1.3,0,2.3,0.7,2.3,1.7c0,1.7-2.5,3.5-4.6,3.5C120.4,27.5,119.5,26.9,119.5,25.8z"/>
</g>
<rect x="134.7" y="23.2" width="0.5" height="18.1"/>
<g>
	<path d="M134.8,23.3c0-1.8,2.5-3.5,4.5-3.5c1.3,0,2.3,0.7,2.3,1.7c0,1.7-2.5,3.5-4.6,3.5C135.8,25,134.8,24.4,134.8,23.3z"/>
</g>
<rect x="150.1" y="20.7" width="0.5" height="18.9"/>
<g>
	<path d="M150.1,20.8c0-1.8,2.5-3.5,4.5-3.5c1.3,0,2.3,0.7,2.3,1.7c0,1.7-2.5,3.5-4.6,3.5C151.1,22.5,150.1,21.9,150.1,20.8z"/>
</g>
<rect x="165.4" y="18.3" width="0.5" height="16.4"/>
<g>
	<path d="M165.5,18.3c0-1.8,2.5-3.5,4.5-3.5c1.3,0,2.3,0.7,2.3,1.7c0,1.7-2.5,3.5-4.6,3.5C166.5,20.1,165.5,19.4,165.5,18.3z"/>
</g>
<rect x="179" y="14.6" width="10.5" height="0.8"/>
<rect x="180.8" y="15.8" width="0.5" height="17.4"/>
<g>
	<path d="M180.8,15.9c0-1.8,2.5-3.5,4.5-3.5c1.3,0,2.3,0.7,2.3,1.7c0,1.7-2.5,3.5-4.6,3.5C181.8,17.6,180.8,16.9,180.8,15.9z"/>
</g>
<rect x="194.5" y="14.6" width="10.5" height="0.8"/>
<rect x="196.3" y="13.3" width="0.5" height="18.1"/>
<g>
	<path d="M196.3,13.4c0-1.8,2.5-3.5,4.5-3.5c1.3,0,2.3,0.7,2.3,1.7c0,1.7-2.5,3.5-4.6,3.5C197.3,15.1,196.3,14.5,196.3,13.4z"/>
</g>
<rect x="209.8" y="14.6" width="10.5" height="0.8"/>
<rect x="209.8" y="9.7" width="10.5" height="0.8"/>
<rect x="211.6" y="10.8" width="0.5" height="18.9"/>
<g>
	<path d="M211.7,10.9c0-1.8,2.5-3.5,4.5-3.5c1.3,0,2.3,0.7,2.3,1.7c0,1.7-2.5,3.5-4.6,3.5C212.7,12.6,211.7,12,211.7,10.9z"/>
</g>
<rect x="225.2" y="14.6" width="10.5" height="0.8"/>
<rect x="225.2" y="9.7" width="10.5" height="0.8"/>
<rect x="227" y="8.3" width="0.5" height="22.6"/>
<g>
	<path d="M227,8.4c0-1.8,2.5-3.5,4.5-3.5c1.3,0,2.3,0.7,2.3,1.7c0,1.7-2.5,3.5-4.6,3.5C228,10.1,227,9.5,227,8.4z"/>
</g>
<rect x="240.5" y="14.6" width="10.5" height="0.8"/>
<rect x="240.5" y="9.7" width="10.5" height="0.8"/>
<rect x="240.5" y="4.7" width="10.5" height="0.8"/>
<rect x="242.3" y="5.9" width="0.5" height="24.8"/>
<g>
	<path d="M242.4,5.9c0-1.8,2.5-3.5,4.5-3.5c1.3,0,2.3,0.7,2.3,1.7c0,1.7-2.5,3.5-4.6,3.5C243.4,7.7,242.4,7,242.4,5.9z"/>
</g>
<rect x="255.9" y="14.6" width="10.5" height="0.8"/>
<rect x="255.9" y="9.7" width="10.5" height="0.8"/>
<rect x="255.9" y="4.7" width="10.5" height="0.8"/>
<rect x="257.6" y="3.4" width="0.5" height="26.8"/>
<g>
	<path d="M257.7,3.5c0-1.8,2.5-3.5,4.5-3.5c1.3,0,2.3,0.7,2.3,1.7c0,1.7-2.5,3.5-4.6,3.5C258.7,5.2,257.7,4.5,257.7,3.5z"/>
</g>
<rect x="271.2" y="14.6" width="10.5" height="0.8"/>
<rect x="271.2" y="9.7" width="10.5" height="0.8"/>
<rect x="271.2" y="4.7" width="10.5" height="0.8"/>
<rect x="273" y="5.9" width="0.5" height="23.9"/>
<g>
	<path d="M273.1,5.9c0-1.8,2.5-3.5,4.5-3.5c1.3,0,2.3,0.7,2.3,1.7c0,1.7-2.5,3.5-4.6,3.5C274,7.7,273.1,7,273.1,5.9z"/>
</g>
<rect x="294.2" y="14.6" width="10.5" height="0.8"/>
<rect x="294.2" y="9.7" width="10.5" height="0.8"/>
<rect x="295.9" y="8.3" width="0.5" height="21.4"/>
<g>
	<path d="M296,8.4c0-1.8,2.5-3.5,4.5-3.5c1.3,0,2.3,0.7,2.3,1.7c0,1.7-2.5,3.5-4.6,3.5C297,10.1,296,9.5,296,8.4z"/>
</g>
<rect x="309.5" y="14.6" width="10.5" height="0.8"/>
<rect x="309.5" y="9.7" width="10.5" height="0.8"/>
<rect x="311.3" y="10.8" width="0.5" height="19.2"/>
<g>
	<path d="M311.4,10.9c0-1.8,2.5-3.5,4.5-3.5c1.3,0,2.3,0.7,2.3,1.7c0,1.7-2.5,3.5-4.6,3.5C312.3,12.6,311.4,12,311.4,10.9z"/>
</g>
<rect x="324.8" y="14.6" width="10.5" height="0.8"/>
<rect x="326.6" y="13.3" width="0.5" height="17.2"/>
<g>
	<path d="M326.7,13.4c0-1.8,2.5-3.5,4.5-3.5c1.3,0,2.3,0.7,2.3,1.7c0,1.7-2.5,3.5-4.6,3.5C327.7,15.1,326.7,14.5,326.7,13.4z"/>
</g>
<rect x="340.2" y="14.6" width="10.5" height="0.8"/>
<rect x="342" y="15.8" width="0.5" height="15.2"/>
<g>
	<path d="M342.1,15.9c0-1.8,2.5-3.5,4.5-3.5c1.3,0,2.3,0.7,2.3,1.7c0,1.7-2.5,3.5-4.6,3.5C343,17.6,342.1,16.9,342.1,15.9z"/>
</g>
<rect x="368.3" y="18.3" width="0.5" height="17.7"/>
<g>
	<path d="M368.4,18.3c0-1.8,2.5-3.5,4.5-3.5c1.3,0,2.3,0.7,2.3,1.7c0,1.7-2.5,3.5-4.6,3.5C369.4,20.1,368.4,19.4,368.4,18.3z"/>
</g>
<rect x="383.7" y="20.7" width="0.5" height="15.2"/>
<g>
	<path d="M383.8,20.8c0-1.8,2.5-3.5,4.5-3.5c1.3,0,2.3,0.7,2.3,1.7c0,1.7-2.5,3.5-4.6,3.5C384.7,22.5,383.8,21.9,383.8,20.8z"/>
</g>
<rect x="399" y="18.3" width="0.5" height="17.7"/>
<g>
	<path d="M399.1,18.3c0-1.8,2.5-3.5,4.5-3.5c1.3,0,2.3,0.7,2.3,1.7c0,1.7-2.5,3.5-4.6,3.5C400.1,20.1,399.1,19.4,399.1,18.3z"/>
</g>
<rect x="412.7" y="14.6" width="10.5" height="0.8"/>
<rect x="414.5" y="15.8" width="0.5" height="20.2"/>
<g>
	<path d="M414.6,15.9c0-1.8,2.5-3.5,4.5-3.5c1.3,0,2.3,0.7,2.3,1.7c0,1.7-2.5,3.5-4.6,3.5C415.6,17.6,414.6,16.9,414.6,15.9z"/>
</g>
<rect x="428.1" y="14.6" width="10.5" height="0.8"/>
<rect x="429.9" y="13.3" width="0.5" height="17.7"/>
<g>
	<path d="M429.9,13.4c0-1.8,2.5-3.5,4.5-3.5c1.3,0,2.3,0.7,2.3,1.7c0,1.7-2.5,3.5-4.6,3.5C430.9,15.1,429.9,14.5,429.9,13.4z"/>
</g>
<rect x="443.4" y="14.6" width="10.5" height="0.8"/>
<rect x="443.4" y="9.7" width="10.5" height="0.8"/>
<rect x="445.2" y="10.8" width="0.5" height="19.8"/>
<g>
	<path d="M445.3,10.9c0-1.8,2.5-3.5,4.5-3.5c1.3,0,2.3,0.7,2.3,1.7c0,1.7-2.5,3.5-4.6,3.5C446.3,12.6,445.3,12,445.3,10.9z"/>
</g>
<rect x="458.8" y="14.6" width="10.5" height="0.8"/>
<rect x="458.8" y="9.7" width="10.5" height="0.8"/>
<rect x="460.6" y="8.3" width="0.5" height="21.9"/>
<g>
	<path d="M460.6,8.4c0-1.8,2.5-3.5,4.5-3.5c1.3,0,2.3,0.7,2.3,1.7c0,1.7-2.5,3.5-4.6,3.5C461.6,10.1,460.6,9.5,460.6,8.4z"/>
</g>
<rect x="474.1" y="14.6" width="10.5" height="0.8"/>
<rect x="474.1" y="9.7" width="10.5" height="0.8"/>
<rect x="474.1" y="4.7" width="10.5" height="0.8"/>
<rect x="475.9" y="5.9" width="0.5" height="23.9"/>
<g>
	<path d="M476,5.9c0-1.8,2.5-3.5,4.5-3.5c1.3,0,2.3,0.7,2.3,1.7c0,1.7-2.5,3.5-4.6,3.5C477,7.7,476,7,476,5.9z"/>
</g>
<rect x="489.5" y="14.6" width="10.5" height="0.8"/>
<rect x="489.5" y="9.7" width="10.5" height="0.8"/>
<rect x="489.5" y="4.7" width="10.5" height="0.8"/>
<rect x="491.3" y="3.4" width="0.5" height="26.4"/>
<g>
	<path d="M491.3,3.5c0-1.8,2.5-3.5,4.5-3.5c1.3,0,2.3,0.7,2.3,1.7c0,1.7-2.5,3.5-4.6,3.5C492.3,5.2,491.3,4.5,491.3,3.5z"/>
</g>
<rect x="505" y="14.6" width="10.5" height="0.8"/>
<rect x="505" y="9.7" width="10.5" height="0.8"/>
<rect x="505" y="4.7" width="10.5" height="0.8"/>
<rect x="506.8" y="5.9" width="0.5" height="24.2"/>
<g>
	<path d="M506.8,5.9c0-1.8,2.5-3.5,4.5-3.5c1.3,0,2.3,0.7,2.3,1.7c0,1.7-2.5,3.5-4.6,3.5C507.8,7.7,506.8,7,506.8,5.9z"/>
</g>
<rect x="520.3" y="14.6" width="10.5" height="0.8"/>
<rect x="520.3" y="9.7" width="10.5" height="0.8"/>
<rect x="522.1" y="8.3" width="0.5" height="22.2"/>
<g>
	<path d="M522.2,8.4c0-1.8,2.5-3.5,4.5-3.5c1.3,0,2.3,0.7,2.3,1.7c0,1.7-2.5,3.5-4.6,3.5C523.2,10.1,522.2,9.5,522.2,8.4z"/>
</g>
<rect x="535.7" y="14.6" width="10.5" height="0.8"/>
<rect x="535.7" y="9.7" width="10.5" height="0.8"/>
<rect x="537.4" y="10.8" width="0.5" height="20.2"/>
<g>
	<path d="M537.5,10.9c0-1.8,2.5-3.5,4.5-3.5c1.3,0,2.3,0.7,2.3,1.7c0,1.7-2.5,3.5-4.6,3.5C538.5,12.6,537.5,12,537.5,10.9z"/>
</g>
<rect x="42.5" y="72.8" width="0.5" height="14"/>
<g>
	<path d="M42.6,72.9c0-1.8,2.5-3.5,4.5-3.5c1.3,0,2.3,0.7,2.3,1.7c0,1.7-2.5,3.5-4.6,3.5C43.5,74.6,42.6,74,42.6,72.9z"/>
</g>
<rect x="57.8" y="70.3" width="0.5" height="14.9"/>
<g>
	<path d="M57.9,70.4c0-1.8,2.5-3.5,4.5-3.5c1.3,0,2.3,0.7,2.3,1.7c0,1.7-2.5,3.5-4.6,3.5C58.9,72.1,57.9,71.5,57.9,70.4z"/>
</g>
<rect x="73.2" y="67.9" width="0.5" height="15.7"/>
<g>
	<path d="M73.3,67.9c0-1.8,2.5-3.5,4.5-3.5c1.3,0,2.3,0.7,2.3,1.7c0,1.7-2.5,3.5-4.6,3.5C74.2,69.7,73.3,69,73.3,67.9z"/>
</g>
<rect x="88.5" y="65.4" width="0.5" height="16.4"/>
<g>
	<path d="M88.6,65.5c0-1.8,2.5-3.5,4.5-3.5c1.3,0,2.3,0.7,2.3,1.7c0,1.7-2.5,3.5-4.6,3.5C89.6,67.2,88.6,66.5,88.6,65.5z"/>
</g>
<rect x="102.2" y="61.7" width="10.5" height="0.8"/>
<rect x="104" y="62.9" width="0.5" height="15.2"/>
<g>
	<path d="M104.1,63c0-1.8,2.5-3.5,4.5-3.5c1.3,0,2.3,0.7,2.3,1.7c0,1.7-2.5,3.5-4.6,3.5C105.1,64.7,104.1,64.1,104.1,63z"/>
</g>
<rect x="117.6" y="61.7" width="10.5" height="0.8"/>
<rect x="119.4" y="60.4" width="0.5" height="17.4"/>
<g>
	<path d="M119.5,60.5c0-1.8,2.5-3.5,4.5-3.5c1.3,0,2.3,0.7,2.3,1.7c0,1.7-2.5,3.5-4.6,3.5C120.4,62.2,119.5,61.6,119.5,60.5z"/>
</g>
<rect x="132.9" y="61.7" width="10.5" height="0.8"/>
<rect x="132.9" y="56.8" width="10.5" height="0.8"/>
<rect x="134.7" y="57.9" width="0.5" height="19.4"/>
<g>
	<path d="M134.8,58c0-1.8,2.5-3.5,4.5-3.5c1.3,0,2.3,0.7,2.3,1.7c0,1.7-2.5,3.5-4.6,3.5C135.8,59.7,134.8,59.1,134.8,58z"/>
</g>
<rect x="148.3" y="61.7" width="10.5" height="0.8"/>
<rect x="148.3" y="56.8" width="10.5" height="0.8"/>
<rect x="150.1" y="55.5" width="0.5" height="21.4"/>
<g>
	<path d="M150.1,55.5c0-1.8,2.5-3.5,4.5-3.5c1.3,0,2.3,0.7,2.3,1.7c0,1.7-2.5,3.5-4.6,3.5C151.1,57.3,150.1,56.6,150.1,55.5z"/>
</g>
<rect x="163.6" y="61.7" width="10.5" height="0.8"/>
<rect x="163.6" y="56.8" width="10.5" height="0.8"/>
<rect x="165.4" y="57.9" width="0.5" height="18.9"/>
<g>
	<path d="M165.5,58c0-1.8,2.5-3.5,4.5-3.5c1.3,0,2.3,0.7,2.3,1.7c0,1.7-2.5,3.5-4.6,3.5C166.5,59.7,165.5,59.1,165.5,58z"/>
</g>
<rect x="179" y="61.7" width="10.5" height="0.8"/>
<rect x="180.8" y="60.4" width="0.5" height="18"/>
<g>
	<path d="M180.8,60.5c0-1.8,2.5-3.5,4.5-3.5c1.3,0,2.3,0.7,2.3,1.7c0,1.7-2.5,3.5-4.6,3.5C181.8,62.2,180.8,61.6,180.8,60.5z"/>
</g>
<rect x="194.5" y="61.7" width="10.5" height="0.8"/>
<rect x="196.3" y="62.9" width="0.5" height="17.2"/>
<g>
	<path d="M196.3,63c0-1.8,2.5-3.5,4.5-3.5c1.3,0,2.3,0.7,2.3,1.7c0,1.7-2.5,3.5-4.6,3.5C197.3,64.7,196.3,64.1,196.3,63z"/>
</g>
<rect x="211.6" y="65.4" width="0.5" height="16.4"/>
<g>
	<path d="M211.7,65.5c0-1.8,2.5-3.5,4.5-3.5c1.3,0,2.3,0.7,2.3,1.7c0,1.7-2.5,3.5-4.6,3.5C212.7,67.2,211.7,66.5,211.7,65.5z"/>
</g>
<rect x="227" y="67.9" width="0.5" height="20.2"/>
<g>
	<path d="M227,67.9c0-1.8,2.5-3.5,4.5-3.5c1.3,0,2.3,0.7,2.3,1.7c0,1.7-2.5,3.5-4.6,3.5C228,69.7,227,69,227,67.9z"/>
</g>
<rect x="242.3" y="70.3" width="0.5" height="17.7"/>
<g>
	<path d="M242.4,70.4c0-1.8,2.5-3.5,4.5-3.5c1.3,0,2.3,0.7,2.3,1.7c0,1.7-2.5,3.5-4.6,3.5C243.4,72.1,242.4,71.5,242.4,70.4z"/>
</g>
<rect x="257.6" y="72.8" width="0.5" height="15.2"/>
<g>
	<path d="M257.7,72.9c0-1.8,2.5-3.5,4.5-3.5c1.3,0,2.3,0.7,2.3,1.7c0,1.7-2.5,3.5-4.6,3.5C258.7,74.6,257.7,74,257.7,72.9z"/>
</g>
<rect x="273" y="70.3" width="0.5" height="17.7"/>
<g>
	<path d="M273.1,70.4c0-1.8,2.5-3.5,4.5-3.5c1.3,0,2.3,0.7,2.3,1.7c0,1.7-2.5,3.5-4.6,3.5C274,72.1,273.1,71.5,273.1,70.4z"/>
</g>
<rect x="295.9" y="67.9" width="0.5" height="14"/>
<g>
	<path d="M296,67.9c0-1.8,2.5-3.5,4.5-3.5c1.3,0,2.3,0.7,2.3,1.7c0,1.7-2.5,3.5-4.6,3.5C297,69.7,296,69,296,67.9z"/>
</g>
<rect x="311.3" y="65.4" width="0.5" height="14.9"/>
<g>
	<path d="M311.4,65.5c0-1.8,2.5-3.5,4.5-3.5c1.3,0,2.3,0.7,2.3,1.7c0,1.7-2.5,3.5-4.6,3.5C312.3,67.2,311.4,66.5,311.4,65.5z"/>
</g>
<rect x="324.8" y="61.7" width="10.5" height="0.8"/>
<rect x="326.6" y="62.9" width="0.5" height="15.7"/>
<g>
	<path d="M326.7,63c0-1.8,2.5-3.5,4.5-3.5c1.3,0,2.3,0.7,2.3,1.7c0,1.7-2.5,3.5-4.6,3.5C327.7,64.7,326.7,64.1,326.7,63z"/>
</g>
<rect x="340.2" y="61.7" width="10.5" height="0.8"/>
<rect x="342" y="60.4" width="0.5" height="16.4"/>
<g>
	<path d="M342.1,60.5c0-1.8,2.5-3.5,4.5-3.5c1.3,0,2.3,0.7,2.3,1.7c0,1.7-2.5,3.5-4.6,3.5C343,62.2,342.1,61.6,342.1,60.5z"/>
</g>
<rect x="374.8" y="67.2" width="0.5" height="18.9"/>
<g>
	<path d="M368.4,87.8c0-1.8,2.5-3.5,4.5-3.5c1.3,0,2.3,0.7,2.3,1.7c0,1.7-2.5,3.5-4.6,3.5C369.4,89.5,368.4,88.9,368.4,87.8z"/>
</g>
<rect x="390.2" y="65.7" width="0.5" height="18"/>
<g>
	<path d="M383.8,85.3c0-1.8,2.5-3.5,4.5-3.5c1.3,0,2.3,0.7,2.3,1.7c0,1.7-2.5,3.5-4.6,3.5C384.7,87,383.8,86.4,383.8,85.3z"/>
</g>
<rect x="405.5" y="64" width="0.5" height="17.2"/>
<g>
	<path d="M399.1,82.8c0-1.8,2.5-3.5,4.5-3.5c1.3,0,2.3,0.7,2.3,1.7c0,1.7-2.5,3.5-4.6,3.5C400.1,84.5,399.1,83.9,399.1,82.8z"/>
</g>
<rect x="421" y="62.3" width="0.5" height="16.4"/>
<g>
	<path d="M414.6,80.3c0-1.8,2.5-3.5,4.5-3.5c1.3,0,2.3,0.7,2.3,1.7c0,1.7-2.5,3.5-4.6,3.5C415.6,82.1,414.6,81.4,414.6,80.3z"/>
</g>
<rect x="429.9" y="77.8" width="0.5" height="14"/>
<g>
	<path d="M429.9,77.9c0-1.8,2.5-3.5,4.5-3.5c1.3,0,2.3,0.7,2.3,1.7c0,1.7-2.5,3.5-4.6,3.5C430.9,79.6,429.9,78.9,429.9,77.9z"/>
</g>
<rect x="445.2" y="75.3" width="0.5" height="14.9"/>
<g>
	<path d="M445.3,75.4c0-1.8,2.5-3.5,4.5-3.5c1.3,0,2.3,0.7,2.3,1.7c0,1.7-2.5,3.5-4.6,3.5C446.3,77.1,445.3,76.5,445.3,75.4z"/>
</g>
<rect x="460.6" y="72.8" width="0.5" height="15.7"/>
<g>
	<path d="M460.6,72.9c0-1.8,2.5-3.5,4.5-3.5c1.3,0,2.3,0.7,2.3,1.7c0,1.7-2.5,3.5-4.6,3.5C461.6,74.6,460.6,74,460.6,72.9z"/>
</g>
<rect x="475.9" y="70.3" width="0.5" height="16.4"/>
<g>
	<path d="M476,70.4c0-1.8,2.5-3.5,4.5-3.5c1.3,0,2.3,0.7,2.3,1.7c0,1.7-2.5,3.5-4.6,3.5C477,72.1,476,71.5,476,70.4z"/>
</g>
<rect x="491.3" y="67.9" width="0.5" height="18.9"/>
<g>
	<path d="M491.3,67.9c0-1.8,2.5-3.5,4.5-3.5c1.3,0,2.3,0.7,2.3,1.7c0,1.7-2.5,3.5-4.6,3.5C492.3,69.7,491.3,69,491.3,67.9z"/>
</g>
<rect x="506.8" y="70.3" width="0.5" height="18"/>
<g>
	<path d="M506.8,70.4c0-1.8,2.5-3.5,4.5-3.5c1.3,0,2.3,0.7,2.3,1.7c0,1.7-2.5,3.5-4.6,3.5C507.8,72.1,506.8,71.5,506.8,70.4z"/>
</g>
<rect x="522.1" y="72.8" width="0.5" height="17.2"/>
<g>
	<path d="M522.2,72.9c0-1.8,2.5-3.5,4.5-3.5c1.3,0,2.3,0.7,2.3,1.7c0,1.7-2.5,3.5-4.6,3.5C523.2,74.6,522.2,74,522.2,72.9z"/>
</g>
<rect x="537.4" y="75.3" width="0.5" height="16.4"/>
<g>
	<path d="M537.5,75.4c0-1.8,2.5-3.5,4.5-3.5c1.3,0,2.3,0.7,2.3,1.7c0,1.7-2.5,3.5-4.6,3.5C538.5,77.1,537.5,76.5,537.5,75.4z"/>
</g>
<rect x="40.7" y="145.6" width="10.5" height="0.8"/>
<rect x="42.5" y="144.3" width="0.5" height="16.4"/>
<g>
	<path d="M42.6,144.4c0-1.8,2.5-3.5,4.5-3.5c1.3,0,2.3,0.7,2.3,1.7c0,1.7-2.5,3.5-4.6,3.5C43.5,146.1,42.6,145.4,42.6,144.4z"/>
</g>
<rect x="58.7" y="145.6" width="10.5" height="0.8"/>
<rect x="60.5" y="146.8" width="0.5" height="15.5"/>
<g>
	<path d="M60.5,146.8c0-1.8,2.5-3.5,4.5-3.5c1.3,0,2.3,0.7,2.3,1.7c0,1.7-2.5,3.5-4.6,3.5C61.5,148.6,60.5,147.9,60.5,146.8z"/>
</g>
<rect x="78.4" y="149.2" width="0.5" height="14.7"/>
<g>
	<path d="M78.5,149.3c0-1.8,2.5-3.5,4.5-3.5c1.3,0,2.3,0.7,2.3,1.7c0,1.7-2.5,3.5-4.6,3.5C79.5,151,78.5,150.4,78.5,149.3z"/>
</g>
<rect x="96.4" y="151.7" width="0.5" height="14"/>
<g>
	<path d="M96.5,151.8c0-1.8,2.5-3.5,4.5-3.5c1.3,0,2.3,0.7,2.3,1.7c0,1.7-2.5,3.5-4.6,3.5C97.5,153.5,96.5,152.9,96.5,151.8z"/>
</g>
<rect x="114.4" y="149.2" width="0.5" height="16.4"/>
<g>
	<path d="M114.5,149.3c0-1.8,2.5-3.5,4.5-3.5c1.3,0,2.3,0.7,2.3,1.7c0,1.7-2.5,3.5-4.6,3.5C115.5,151,114.5,150.4,114.5,149.3z"/>
</g>
<rect x="130.6" y="145.6" width="10.5" height="0.8"/>
<rect x="132.4" y="146.8" width="0.5" height="17.4"/>
<g>
	<path d="M132.5,146.8c0-1.8,2.5-3.5,4.5-3.5c1.3,0,2.3,0.7,2.3,1.7c0,1.7-2.5,3.5-4.6,3.5C133.4,148.6,132.5,147.9,132.5,146.8z"/>
</g>
<rect x="148.6" y="145.6" width="10.5" height="0.8"/>
<rect x="150.4" y="144.3" width="0.5" height="18.1"/>
<g>
	<path d="M150.5,144.4c0-1.8,2.5-3.5,4.5-3.5c1.3,0,2.3,0.7,2.3,1.7c0,1.7-2.5,3.5-4.6,3.5C151.4,146.1,150.5,145.4,150.5,144.4z"/>
</g>
<rect x="166.6" y="145.6" width="10.5" height="0.8"/>
<rect x="166.6" y="140.6" width="10.5" height="0.8"/>
<rect x="168.4" y="141.8" width="0.5" height="18.9"/>
<g>
	<path d="M168.4,141.9c0-1.8,2.5-3.5,4.5-3.5c1.3,0,2.3,0.7,2.3,1.7c0,1.7-2.5,3.5-4.6,3.5C169.4,143.6,168.4,143,168.4,141.9z"/>
</g>
<rect x="192.9" y="145.6" width="10.5" height="0.8"/>
<rect x="192.9" y="140.6" width="10.5" height="0.8"/>
<rect x="194.7" y="139.3" width="0.5" height="22.6"/>
<g>
	<path d="M194.8,139.4c0-1.8,2.5-3.5,4.5-3.5c1.3,0,2.3,0.7,2.3,1.7c0,1.7-2.5,3.5-4.6,3.5C195.8,141.1,194.8,140.5,194.8,139.4z"/>
</g>
<rect x="210.9" y="145.6" width="10.5" height="0.8"/>
<rect x="210.9" y="140.6" width="10.5" height="0.8"/>
<rect x="210.9" y="135.7" width="10.5" height="0.8"/>
<rect x="212.7" y="136.8" width="0.5" height="24.8"/>
<g>
	<path d="M212.8,136.9c0-1.8,2.5-3.5,4.5-3.5c1.3,0,2.3,0.7,2.3,1.7c0,1.7-2.5,3.5-4.6,3.5C213.7,138.6,212.8,138,212.8,136.9z"/>
</g>
<rect x="229" y="145.6" width="10.5" height="0.8"/>
<rect x="229" y="140.6" width="10.5" height="0.8"/>
<rect x="229" y="135.7" width="10.5" height="0.8"/>
<rect x="230.8" y="134.4" width="0.5" height="26.8"/>
<g>
	<path d="M230.9,134.4c0-1.8,2.5-3.5,4.5-3.5c1.3,0,2.3,0.7,2.3,1.7c0,1.7-2.5,3.5-4.6,3.5C231.9,136.2,230.9,135.5,230.9,134.4z"/>
</g>
<rect x="247" y="145.6" width="10.5" height="0.8"/>
<rect x="247" y="140.6" width="10.5" height="0.8"/>
<rect x="247" y="135.7" width="10.5" height="0.8"/>
<rect x="248.8" y="136.8" width="0.5" height="23.9"/>
<g>
	<path d="M248.9,136.9c0-1.8,2.5-3.5,4.5-3.5c1.3,0,2.3,0.7,2.3,1.7c0,1.7-2.5,3.5-4.6,3.5C249.9,138.6,248.9,138,248.9,136.9z"/>
</g>
<rect x="265" y="145.6" width="10.5" height="0.8"/>
<rect x="265" y="140.6" width="10.5" height="0.8"/>
<rect x="266.8" y="139.3" width="0.5" height="21.4"/>
<g>
	<path d="M266.9,139.4c0-1.8,2.5-3.5,4.5-3.5c1.3,0,2.3,0.7,2.3,1.7c0,1.7-2.5,3.5-4.6,3.5C267.8,141.1,266.9,140.5,266.9,139.4z"/>
</g>
<rect x="283" y="145.6" width="10.5" height="0.8"/>
<rect x="283" y="140.6" width="10.5" height="0.8"/>
<rect x="284.8" y="141.8" width="0.5" height="19.2"/>
<g>
	<path d="M284.9,141.9c0-1.8,2.5-3.5,4.5-3.5c1.3,0,2.3,0.7,2.3,1.7c0,1.7-2.5,3.5-4.6,3.5C285.8,143.6,284.9,143,284.9,141.9z"/>
</g>
<rect x="301" y="145.6" width="10.5" height="0.8"/>
<rect x="302.8" y="144.3" width="0.5" height="17.2"/>
<g>
	<path d="M302.8,144.4c0-1.8,2.5-3.5,4.5-3.5c1.3,0,2.3,0.7,2.3,1.7c0,1.7-2.5,3.5-4.6,3.5C303.8,146.1,302.8,145.4,302.8,144.4z"/>
</g>
<rect x="319" y="145.6" width="10.5" height="0.8"/>
<rect x="320.7" y="146.8" width="0.5" height="15.2"/>
<g>
	<path d="M320.8,146.8c0-1.8,2.5-3.5,4.5-3.5c1.3,0,2.3,0.7,2.3,1.7c0,1.7-2.5,3.5-4.6,3.5C321.8,148.6,320.8,147.9,320.8,146.8z"/>
</g>
<rect x="346.2" y="149.2" width="0.5" height="16.4"/>
<g>
	<path d="M346.2,149.3c0-1.8,2.5-3.5,4.5-3.5c1.3,0,2.3,0.7,2.3,1.7c0,1.7-2.5,3.5-4.6,3.5C347.2,151,346.2,150.4,346.2,149.3z"/>
</g>
<rect x="364.1" y="151.7" width="0.5" height="15.5"/>
<g>
	<path d="M364.2,151.8c0-1.8,2.5-3.5,4.5-3.5c1.3,0,2.3,0.7,2.3,1.7c0,1.7-2.5,3.5-4.6,3.5C365.2,153.5,364.2,152.9,364.2,151.8z"/>
</g>
<rect x="382.1" y="154.2" width="0.5" height="14.7"/>
<g>
	<path d="M382.2,154.3c0-1.8,2.5-3.5,4.5-3.5c1.3,0,2.3,0.7,2.3,1.7c0,1.7-2.5,3.5-4.6,3.5C383.2,156,382.2,155.4,382.2,154.3z"/>
</g>
<rect x="400.1" y="156.7" width="0.5" height="14"/>
<g>
	<path d="M400.2,156.8c0-1.8,2.5-3.5,4.5-3.5c1.3,0,2.3,0.7,2.3,1.7c0,1.7-2.5,3.5-4.6,3.5C401.2,158.5,400.2,157.8,400.2,156.8z"/>
</g>
<rect x="424.6" y="141.2" width="0.5" height="16.4"/>
<g>
	<path d="M418.2,159.2c0-1.8,2.5-3.5,4.5-3.5c1.3,0,2.3,0.7,2.3,1.7c0,1.7-2.5,3.5-4.6,3.5C419.1,161,418.2,160.3,418.2,159.2z"/>
</g>
<rect x="442.6" y="142.7" width="0.5" height="17.4"/>
<g>
	<path d="M436.1,161.7c0-1.8,2.5-3.5,4.5-3.5c1.3,0,2.3,0.7,2.3,1.7c0,1.7-2.5,3.5-4.6,3.5C437.1,163.4,436.1,162.8,436.1,161.7z"/>
</g>
<rect x="460.6" y="144.4" width="0.5" height="18.1"/>
<g>
	<path d="M454.1,164.2c0-1.8,2.5-3.5,4.5-3.5c1.3,0,2.3,0.7,2.3,1.7c0,1.7-2.5,3.5-4.6,3.5C455.1,165.9,454.1,165.3,454.1,164.2z"/>
</g>
<rect x="478.5" y="146.1" width="0.5" height="18.9"/>
<g>
	<path d="M472.1,166.7c0-1.8,2.5-3.5,4.5-3.5c1.3,0,2.3,0.7,2.3,1.7c0,1.7-2.5,3.5-4.6,3.5C473.1,168.4,472.1,167.8,472.1,166.7z"/>
</g>
<rect x="496.7" y="150.9" width="0.5" height="16.6"/>
<g>
	<path d="M494.4,165.6c1.6,0,2.7,0.7,2.7,2c0,1.9-2.3,3.4-4.5,3.4c-1.3,0-2.4-0.7-2.4-1.8C490.1,167.4,492.3,165.6,494.4,165.6z
		 M490.5,169.5c0,0.6,0.4,0.9,1.1,0.9c1.4,0,4.9-2.1,4.9-3.3c0-0.6-0.4-0.9-1.1-0.9C494.2,166.2,490.5,168.2,490.5,169.5z"/>
</g>
<rect x="49" y="193.3" width="0.5" height="14"/>
<g>
	<path d="M42.6,208.8c0-1.8,2.5-3.5,4.5-3.5c1.3,0,2.3,0.7,2.3,1.7c0,1.7-2.5,3.5-4.6,3.5C43.5,210.6,42.6,209.9,42.6,208.8z"/>
</g>
<rect x="67" y="194.8" width="0.5" height="14.9"/>
<g>
	<path d="M60.5,211.3c0-1.8,2.5-3.5,4.5-3.5c1.3,0,2.3,0.7,2.3,1.7c0,1.7-2.5,3.5-4.6,3.5C61.5,213,60.5,212.4,60.5,211.3z"/>
</g>
<rect x="85" y="196.5" width="0.5" height="15.7"/>
<g>
	<path d="M78.5,213.8c0-1.8,2.5-3.5,4.5-3.5c1.3,0,2.3,0.7,2.3,1.7c0,1.7-2.5,3.5-4.6,3.5C79.5,215.5,78.5,214.9,78.5,213.8z"/>
</g>
<rect x="102.9" y="198.2" width="0.5" height="16.4"/>
<g>
	<path d="M96.5,216.3c0-1.8,2.5-3.5,4.5-3.5c1.3,0,2.3,0.7,2.3,1.7c0,1.7-2.5,3.5-4.6,3.5C97.5,218,96.5,217.4,96.5,216.3z"/>
</g>
<rect x="120.9" y="203.2" width="0.5" height="14"/>
<g>
	<path d="M114.5,218.8c0-1.8,2.5-3.5,4.5-3.5c1.3,0,2.3,0.7,2.3,1.7c0,1.7-2.5,3.5-4.6,3.5C115.5,220.5,114.5,219.9,114.5,218.8z"/>
</g>
<rect x="138.9" y="204.7" width="0.5" height="14.9"/>
<g>
	<path d="M132.5,221.2c0-1.8,2.5-3.5,4.5-3.5c1.3,0,2.3,0.7,2.3,1.7c0,1.7-2.5,3.5-4.6,3.5C133.4,223,132.5,222.3,132.5,221.2z"/>
</g>
<rect x="148.6" y="222.5" width="10.5" height="0.8"/>
<rect x="156.9" y="206.4" width="0.5" height="15.7"/>
<g>
	<path d="M150.5,223.7c0-1.8,2.5-3.5,4.5-3.5c1.3,0,2.3,0.7,2.3,1.7c0,1.7-2.5,3.5-4.6,3.5C151.4,225.4,150.5,224.8,150.5,223.7z"/>
</g>
<rect x="166.6" y="222.5" width="10.5" height="0.8"/>
<rect x="174.9" y="208.1" width="0.5" height="16.4"/>
<g>
	<path d="M168.4,226.2c0-1.8,2.5-3.5,4.5-3.5c1.3,0,2.3,0.7,2.3,1.7c0,1.7-2.5,3.5-4.6,3.5C169.4,227.9,168.4,227.3,168.4,226.2z"/>
</g>
<rect x="194.7" y="198.8" width="0.5" height="20.2"/>
<g>
	<path d="M194.8,198.9c0-1.8,2.5-3.5,4.5-3.5c1.3,0,2.3,0.7,2.3,1.7c0,1.7-2.5,3.5-4.6,3.5C195.8,200.6,194.8,200,194.8,198.9z"/>
</g>
<rect x="212.7" y="201.3" width="0.5" height="17.7"/>
<g>
	<path d="M212.8,201.4c0-1.8,2.5-3.5,4.5-3.5c1.3,0,2.3,0.7,2.3,1.7c0,1.7-2.5,3.5-4.6,3.5C213.7,203.1,212.8,202.5,212.8,201.4z"/>
</g>
<rect x="230.8" y="203.8" width="0.5" height="15.2"/>
<g>
	<path d="M230.9,203.9c0-1.8,2.5-3.5,4.5-3.5c1.3,0,2.3,0.7,2.3,1.7c0,1.7-2.5,3.5-4.6,3.5C231.9,205.6,230.9,205,230.9,203.9z"/>
</g>
<rect x="248.8" y="201.3" width="0.5" height="17.7"/>
<g>
	<path d="M248.9,201.4c0-1.8,2.5-3.5,4.5-3.5c1.3,0,2.3,0.7,2.3,1.7c0,1.7-2.5,3.5-4.6,3.5C249.9,203.1,248.9,202.5,248.9,201.4z"/>
</g>
<rect x="266.8" y="198.8" width="0.5" height="14"/>
<g>
	<path d="M266.9,198.9c0-1.8,2.5-3.5,4.5-3.5c1.3,0,2.3,0.7,2.3,1.7c0,1.7-2.5,3.5-4.6,3.5C267.8,200.6,266.9,200,266.9,198.9z"/>
</g>
<rect x="284.8" y="196.4" width="0.5" height="14.9"/>
<g>
	<path d="M284.9,196.4c0-1.8,2.5-3.5,4.5-3.5c1.3,0,2.3,0.7,2.3,1.7c0,1.7-2.5,3.5-4.6,3.5C285.8,198.2,284.9,197.5,284.9,196.4z"/>
</g>
<rect x="301" y="192.7" width="10.5" height="0.8"/>
<rect x="302.8" y="193.9" width="0.5" height="15.7"/>
<g>
	<path d="M302.8,194c0-1.8,2.5-3.5,4.5-3.5c1.3,0,2.3,0.7,2.3,1.7c0,1.7-2.5,3.5-4.6,3.5C303.8,195.7,302.8,195,302.8,194z"/>
</g>
<rect x="319" y="192.7" width="10.5" height="0.8"/>
<rect x="320.7" y="191.4" width="0.5" height="16.4"/>
<g>
	<path d="M320.8,191.5c0-1.8,2.5-3.5,4.5-3.5c1.3,0,2.3,0.7,2.3,1.7c0,1.7-2.5,3.5-4.6,3.5C321.8,193.2,320.8,192.6,320.8,191.5z"/>
</g>
<rect x="344.4" y="192.7" width="10.5" height="0.8"/>
<rect x="344.4" y="187.8" width="10.5" height="0.8"/>
<rect x="346.2" y="188.9" width="0.5" height="18.9"/>
<g>
	<path d="M346.2,189c0-1.8,2.5-3.5,4.5-3.5c1.3,0,2.3,0.7,2.3,1.7c0,1.7-2.5,3.5-4.6,3.5C347.2,190.7,346.2,190.1,346.2,189z"/>
</g>
<rect x="362.4" y="192.7" width="10.5" height="0.8"/>
<rect x="362.4" y="187.8" width="10.5" height="0.8"/>
<rect x="364.1" y="186.4" width="0.5" height="21.7"/>
<g>
	<path d="M364.2,186.5c0-1.8,2.5-3.5,4.5-3.5c1.3,0,2.3,0.7,2.3,1.7c0,1.7-2.5,3.5-4.6,3.5C365.2,188.2,364.2,187.6,364.2,186.5z"/>
</g>
<rect x="380.3" y="192.7" width="10.5" height="0.8"/>
<rect x="380.3" y="187.8" width="10.5" height="0.8"/>
<rect x="382.1" y="188.9" width="0.5" height="19.7"/>
<g>
	<path d="M382.2,189c0-1.8,2.5-3.5,4.5-3.5c1.3,0,2.3,0.7,2.3,1.7c0,1.7-2.5,3.5-4.6,3.5C383.2,190.7,382.2,190.1,382.2,189z"/>
</g>
<rect x="398.3" y="192.7" width="10.5" height="0.8"/>
<rect x="400.1" y="191.4" width="0.5" height="17.7"/>
<g>
	<path d="M400.2,191.5c0-1.8,2.5-3.5,4.5-3.5c1.3,0,2.3,0.7,2.3,1.7c0,1.7-2.5,3.5-4.6,3.5C401.2,193.2,400.2,192.6,400.2,191.5z"/>
</g>
<rect x="416.3" y="192.7" width="10.5" height="0.8"/>
<rect x="418.1" y="193.9" width="0.5" height="18.9"/>
<g>
	<path d="M418.2,194c0-1.8,2.5-3.5,4.5-3.5c1.3,0,2.3,0.7,2.3,1.7c0,1.7-2.5,3.5-4.6,3.5C419.1,195.7,418.2,195,418.2,194z"/>
</g>
<rect x="436.1" y="196.4" width="0.5" height="18"/>
<g>
	<path d="M436.1,196.4c0-1.8,2.5-3.5,4.5-3.5c1.3,0,2.3,0.7,2.3,1.7c0,1.7-2.5,3.5-4.6,3.5C437.1,198.2,436.1,197.5,436.1,196.4z"/>
</g>
<rect x="454.1" y="198.8" width="0.5" height="17.2"/>
<g>
	<path d="M454.1,198.9c0-1.8,2.5-3.5,4.5-3.5c1.3,0,2.3,0.7,2.3,1.7c0,1.7-2.5,3.5-4.6,3.5C455.1,200.6,454.1,200,454.1,198.9z"/>
</g>
<rect x="472" y="201.3" width="0.5" height="16.4"/>
<g>
	<path d="M472.1,201.4c0-1.8,2.5-3.5,4.5-3.5c1.3,0,2.3,0.7,2.3,1.7c0,1.7-2.5,3.5-4.6,3.5C473.1,203.1,472.1,202.5,472.1,201.4z"/>
</g>
<rect x="490" y="203.8" width="0.5" height="16.6"/>
<g>
	<path d="M494.4,200.3c1.6,0,2.7,0.7,2.7,2c0,1.9-2.3,3.4-4.5,3.4c-1.3,0-2.4-0.7-2.4-1.8C490.1,202.1,492.3,200.3,494.4,200.3z
		 M490.5,204.2c0,0.6,0.4,0.9,1.1,0.9c1.4,0,4.9-2.1,4.9-3.3c0-0.6-0.4-0.9-1.1-0.9C494.2,200.9,490.5,202.9,490.5,204.2z"/>
</g>
</svg>
