<?xml version="1.0" encoding="utf-8"?>

<!--
	ScaleBook
	Copyright (c) Leland Jansen 2015. All rights reserved.
-->

<!DOCTYPE svg PUBLIC "-//W3C//DTD SVG 1.1//EN" "http://www.w3.org/Graphics/SVG/1.1/DTD/svg11.dtd">
<svg version="1.1" id="Layer_1" xmlns="http://www.w3.org/2000/svg" xmlns:xlink="http://www.w3.org/1999/xlink" x="0px" y="0px"
	 viewBox="0 0 552.9 89.5" enable-background="new 0 0 552.9 89.5" xml:space="preserve">
<rect x="8.4" y="12.5" width="0.8" height="67"/>
<g>
	<path d="M7.4,13.2c-1.9,1.1-3.6,5.8-3.6,9.4c0,2.3,1.4,9.9,1.4,12.3c0,5-1.5,8.6-4.6,11.1c3,2.4,4.6,6.1,4.6,11
		c0,2.3-1.4,9.9-1.4,12.3c0,3.8,1.7,8.4,3.6,9.5v0.7c-3.5-2.3-5.8-8.2-5.8-13.1c0-2.1,1.7-9.4,1.7-11.5c0-3.8-1-6.6-2.9-8.2
		C0.1,46.4,0,46.2,0,46s0.1-0.4,0.5-0.7c1.9-1.7,2.9-4.2,2.9-7.6c0-2.1-1.7-10-1.7-12.2c0-5.2,2.1-10.4,5.8-13.1V13.2z"/>
</g>
<rect x="547.8" y="12.5" width="0.8" height="67"/>
<rect x="550.4" y="12.5" width="2.5" height="67"/>
<rect x="8.5" y="32.1" width="544.4" height="0.5"/>
<rect x="8.5" y="27.2" width="544.4" height="0.5"/>
<rect x="8.5" y="22.2" width="544.4" height="0.5"/>
<rect x="8.5" y="17.2" width="544.4" height="0.5"/>
<rect x="8.5" y="12.3" width="544.4" height="0.5"/>
<g>
	<path d="M20.3,32.2c-4.2,0-8.1-3.1-8.1-6.9c0-3.2,2.3-6.7,6.8-10.5c-0.3-1.2-0.4-2.4-0.4-3.6c0-3.5,1.2-6.8,3.2-8.5
		c1.8,2.5,2.7,4.9,2.7,7.1c0,2.9-1.3,5.6-4.3,8.1l0.9,4.2c0.5,0,0.8-0.1,0.8-0.1c2.6,0,4.8,2,4.8,4.7c0,1.9-1.4,3.7-3.6,4.8
		c0-0.1,0.9,3.8,0.9,4.3c0,2.5-2.3,4.2-4.9,4.2c-2,0-3.6-1.3-3.6-3.4c0-1.4,1-2.6,2.4-2.6c1.3,0,2.3,1.3,2.3,2.5
		c0,1.4-1.2,2.3-2.7,2.5c0.6,0.3,1.2,0.5,1.9,0.5c2.1,0,4.1-1.6,4.1-3.6c0-0.2,0-0.4-0.1-0.6l-0.8-3.7
		C21.9,32.1,21.2,32.2,20.3,32.2z M18.1,27c0,1,0.5,1.9,1.6,2.5c-1.8-0.3-3-1.4-3-3.1c0-2,1.7-3.7,3.8-4.1l-0.8-4
		C16,21.1,14,23.8,14,26.4c0,2.9,2.8,5.3,6,5.3c0.9,0,1.7-0.2,2.4-0.5L21,24.4C19.4,24.6,18.1,25.6,18.1,27z M22.1,5.6
		c-1.6,0-2.9,3.7-2.9,7c0,0.7,0,1.3,0.2,1.9c2.7-2.4,4-4.5,4-6.5c0-0.9-0.3-1.7-1-2.4C22.4,5.7,22.3,5.6,22.1,5.6z M24.9,27.5
		c0-1.6-1.2-3.3-2.9-3.3c-0.1,0-0.2,0-0.5,0l1.4,6.6C24.2,30,24.9,28.8,24.9,27.5z"/>
</g>
<g>
	<path d="M33.5,5.7v2.8l1-0.3V10l-1,0.3v3.4l1-0.3v1.8l-1,0.3v3.1H33v-3l-1.9,0.6v3h-0.5v-2.8l-1,0.3V15l1-0.3v-3.4l-1,0.3V9.8
		l1-0.3V6.3h0.5v3L33,8.7v-3H33.5z M33,10.5l-1.9,0.6v3.4l1.9-0.6V10.5z"/>
</g>
<g>
	<path d="M39.7,13.1V16l1-0.3v1.8l-1,0.3v3.4l1-0.3v1.8l-1,0.3v3.1h-0.5v-3l-1.9,0.6v3h-0.5v-2.8l-1,0.3v-1.8l1-0.3v-3.4l-1,0.3
		v-1.8l1-0.3v-3.1h0.5v3l1.9-0.6v-3H39.7z M39.2,17.9l-1.9,0.6V22l1.9-0.6V17.9z"/>
</g>
<g>
	<path d="M45.9,3.2v2.8l1-0.3v1.8l-1,0.3v3.4l1-0.3v1.8l-1,0.3v3.1h-0.5v-3l-1.9,0.6v3H43V14l-1,0.3v-1.8l1-0.3V8.8l-1,0.3V7.3L43,7
		V3.8h0.5v3l1.9-0.6v-3H45.9z M45.4,8l-1.9,0.6v3.4l1.9-0.6V8z"/>
</g>
<g>
	<path d="M52.1,10.7v2.8l1-0.3V15l-1,0.3v3.4l1-0.3v1.8l-1,0.3v3.1h-0.5v-3l-1.9,0.6v3h-0.5v-2.8l-1,0.3V20l1-0.3v-3.4l-1,0.3v-1.8
		l1-0.3v-3.1h0.5v3l1.9-0.6v-3H52.1z M51.6,15.4l-1.9,0.6v3.4l1.9-0.6V15.4z"/>
</g>
<g>
	<path d="M58.3,18.1v2.8l1-0.3v1.8l-1,0.3v3.4l1-0.3v1.8l-1,0.3v3.1h-0.5v-3l-1.9,0.6v3h-0.5v-2.8l-1,0.3v-1.8l1-0.3v-3.4l-1,0.3
		v-1.8l1-0.3v-3.1h0.5v3l1.9-0.6v-3H58.3z M57.8,22.9l-1.9,0.6v3.4l1.9-0.6V22.9z"/>
</g>
<g>
	<path d="M64.5,8.2V11l1-0.3v1.8l-1,0.3v3.4l1-0.3v1.8l-1,0.3v3.1H64v-3l-1.9,0.6v3h-0.5V19l-1,0.3v-1.8l1-0.3v-3.4l-1,0.3v-1.8
		l1-0.3V8.8h0.5v3l1.9-0.6v-3H64.5z M64,13l-1.9,0.6V17l1.9-0.6V13z"/>
</g>
<g>
	<path d="M70.7,15.6v2.8l1-0.3v1.8l-1,0.3v3.4l1-0.3v1.8l-1,0.3v3.1h-0.5v-3l-1.9,0.6v3h-0.5v-2.8l-1,0.3v-1.8l1-0.3v-3.4l-1,0.3
		v-1.8l1-0.3v-3.1h0.5v3l1.9-0.6v-3H70.7z M70.2,20.4L68.3,21v3.4l1.9-0.6V20.4z"/>
</g>
<polygon fill-rule="evenodd" clip-rule="evenodd" points="87.1,23.7 129.5,18.7 129.5,16.2 87.1,21.2 "/>
<polygon fill-rule="evenodd" clip-rule="evenodd" points="87.1,20 129.5,15 129.5,12.5 87.1,17.5 "/>
<polygon fill-rule="evenodd" clip-rule="evenodd" points="143.8,13.8 186.3,8.8 186.3,6.3 143.8,11.3 "/>
<polygon fill-rule="evenodd" clip-rule="evenodd" points="143.8,10 186.3,5.1 186.3,2.6 143.8,7.6 "/>
<polygon fill-rule="evenodd" clip-rule="evenodd" points="206.1,28.6 248.7,23.7 248.7,21.2 206.1,26.2 "/>
<polygon fill-rule="evenodd" clip-rule="evenodd" points="206.1,32.4 248.7,27.4 248.7,24.9 206.1,29.9 "/>
<polygon fill-rule="evenodd" clip-rule="evenodd" points="262.8,20 305.5,18.7 305.5,16.2 262.8,17.5 "/>
<polygon fill-rule="evenodd" clip-rule="evenodd" points="262.8,23.7 305.5,22.4 305.5,20 262.8,21.2 "/>
<polygon fill-rule="evenodd" clip-rule="evenodd" points="319.6,23.7 362.2,28.6 362.2,26.2 319.6,21.2 "/>
<polygon fill-rule="evenodd" clip-rule="evenodd" points="319.6,27.4 362.2,32.4 362.2,29.9 319.6,24.9 "/>
<polygon fill-rule="evenodd" clip-rule="evenodd" points="388.6,33.6 431,38.6 431,36.1 388.6,31.1 "/>
<polygon fill-rule="evenodd" clip-rule="evenodd" points="388.6,37.3 431,42.3 431,39.8 388.6,34.8 "/>
<polygon fill-rule="evenodd" clip-rule="evenodd" points="451.8,18.7 494.3,23.7 494.3,21.2 451.8,16.2 "/>
<polygon fill-rule="evenodd" clip-rule="evenodd" points="451.8,15 494.3,20 494.3,17.5 451.8,12.5 "/>
<rect x="8.5" y="79.3" width="544.4" height="0.5"/>
<rect x="8.5" y="74.3" width="544.4" height="0.5"/>
<rect x="8.5" y="69.3" width="544.4" height="0.5"/>
<rect x="8.5" y="64.4" width="544.4" height="0.5"/>
<rect x="8.5" y="59.4" width="544.4" height="0.5"/>
<g>
	<path d="M15.7,73.8c2.9-2.6,4.7-6.1,4.7-9.2c0-2.5-1.4-4.4-3.7-4.4c-1.6,0-3.4,1.3-3.4,2.7c0,0.2,0,0.3,0.1,0.3
		c-0.1,0,0.6-0.6,1.4-0.6c0.9,0,1.5,0.8,1.5,1.7c0,1.2-0.9,2.2-2.1,2.2c-1.2,0-2.1-1.3-2.1-2.8c0-2.3,2.3-4.1,4.8-4.1
		c4.7,0,5.9,3.2,5.9,5.8c0,1.6-0.4,2.9-2,5.3C19.1,73.8,14.6,76,13,76c-0.4,0-0.6-0.2-0.6-0.5C13.8,75.1,14.9,74.5,15.7,73.8z
		 M25.7,61.1c0.6,0,1,0.4,1,1s-0.4,1-1,1s-1-0.4-1-1S25.1,61.1,25.7,61.1z M25.7,66.1c0.6,0,1,0.4,1,1s-0.4,1-1,1s-1-0.4-1-1
		S25.1,66.1,25.7,66.1z"/>
</g>
<g>
	<path d="M33.5,57.8v2.8l1-0.3v1.8l-1,0.3v3.4l1-0.3v1.8l-1,0.3v3.1H33v-3l-1.9,0.6v3h-0.5v-2.8l-1,0.3v-1.8l1-0.3v-3.4l-1,0.3v-1.8
		l1-0.3v-3.1h0.5v3l1.9-0.6v-3H33.5z M33,62.6l-1.9,0.6v3.4L33,66V62.6z"/>
</g>
<g>
	<path d="M39.7,65.2v2.8l1-0.3v1.8l-1,0.3v3.4l1-0.3v1.8l-1,0.3v3.1h-0.5v-3l-1.9,0.6v3h-0.5V76l-1,0.3v-1.8l1-0.3v-3.4l-1,0.3v-1.8
		l1-0.3v-3.1h0.5v3l1.9-0.6v-3H39.7z M39.2,70l-1.9,0.6v3.4l1.9-0.6V70z"/>
</g>
<g>
	<path d="M45.9,55.3v2.8l1-0.3v1.8l-1,0.3v3.4l1-0.3v1.8l-1,0.3v3.1h-0.5v-3L43.5,66v3H43v-2.8l-1,0.3v-1.8l1-0.3v-3.4l-1,0.3v-1.8
		l1-0.3v-3.1h0.5v3l1.9-0.6v-3H45.9z M45.4,60.1l-1.9,0.6v3.4l1.9-0.6V60.1z"/>
</g>
<g>
	<path d="M52.1,62.7v2.8l1-0.3V67l-1,0.3v3.4l1-0.3v1.8l-1,0.3v3.1h-0.5v-3l-1.9,0.6v3h-0.5v-2.8l-1,0.3v-1.8l1-0.3v-3.4l-1,0.3
		v-1.8l1-0.3v-3.1h0.5v3l1.9-0.6v-3H52.1z M51.6,67.5l-1.9,0.6v3.4l1.9-0.6V67.5z"/>
</g>
<g>
	<path d="M58.3,70.2V73l1-0.3v1.8l-1,0.3v3.4l1-0.3v1.8l-1,0.3v3.1h-0.5v-3l-1.9,0.6v3h-0.5V81l-1,0.3v-1.8l1-0.3v-3.4l-1,0.3v-1.8
		l1-0.3v-3.1h0.5v3l1.9-0.6v-3H58.3z M57.8,75l-1.9,0.6V79l1.9-0.6V75z"/>
</g>
<g>
	<path d="M64.5,60.3v2.8l1-0.3v1.8l-1,0.3v3.4l1-0.3v1.8l-1,0.3v3.1H64v-3l-1.9,0.6v3h-0.5v-2.8l-1,0.3v-1.8l1-0.3v-3.4l-1,0.3v-1.8
		l1-0.3v-3.1h0.5v3l1.9-0.6v-3H64.5z M64,65l-1.9,0.6v3.4l1.9-0.6V65z"/>
</g>
<g>
	<path d="M70.7,67.7v2.8l1-0.3V72l-1,0.3v3.4l1-0.3v1.8l-1,0.3v3.1h-0.5v-3l-1.9,0.6v3h-0.5v-2.8l-1,0.3V77l1-0.3v-3.4l-1,0.3v-1.8
		l1-0.3v-3.1h0.5v3l1.9-0.6v-3H70.7z M70.2,72.5l-1.9,0.6v3.4l1.9-0.6V72.5z"/>
</g>
<polygon fill-rule="evenodd" clip-rule="evenodd" points="87.1,65.8 129.5,60.9 129.5,58.4 87.1,63.4 "/>
<polygon fill-rule="evenodd" clip-rule="evenodd" points="87.1,62.1 129.5,57.2 129.5,54.7 87.1,59.6 "/>
<g>
	<path d="M198.1,78.1c-3.2,0-6.1-2.3-6.1-5.1c0-2.4,1.7-5,5.1-7.9c-0.2-0.9-0.3-1.8-0.3-2.7c0-2.6,0.9-5.1,2.4-6.3
		c1.4,1.9,2,3.7,2,5.3c0,2.2-1,4.2-3.2,6.1l0.7,3.1c0.4,0,0.6,0,0.6,0c2,0,3.6,1.5,3.6,3.5c0,1.4-1.1,2.8-2.7,3.6
		c0-0.1,0.6,2.8,0.6,3.3c0,1.9-1.7,3.2-3.7,3.2c-1.5,0-2.7-1-2.7-2.5c0-1.1,0.7-1.9,1.8-1.9c1,0,1.7,1,1.7,1.9c0,1-0.9,1.7-2,1.8
		c0.4,0.2,0.9,0.3,1.4,0.3c1.6,0,3.1-1.2,3.1-2.7c0-0.1,0-0.3,0-0.5l-0.6-2.8C199.3,78,198.8,78.1,198.1,78.1z M196.4,74.2
		c0,0.8,0.4,1.4,1.2,1.9c-1.3-0.2-2.2-1.1-2.2-2.3c0-1.5,1.3-2.8,2.9-3.1l-0.6-3c-2.8,2.1-4.3,4.1-4.3,6.1c0,2.2,2.1,4,4.5,4
		c0.7,0,1.3-0.1,1.8-0.4l-1.1-5.1C197.4,72.4,196.4,73.2,196.4,74.2z M199.5,58.2c-1.2,0-2.2,2.8-2.2,5.3c0,0.5,0,1,0.1,1.4
		c2-1.8,3-3.4,3-4.8c0-0.7-0.3-1.3-0.7-1.8C199.7,58.2,199.6,58.2,199.5,58.2z M201.5,74.6c0-1.2-0.9-2.4-2.2-2.4c0,0-0.2,0-0.4,0
		l1.1,5C201,76.5,201.5,75.6,201.5,74.6z"/>
</g>
<polygon fill-rule="evenodd" clip-rule="evenodd" points="137.3,80.7 179.8,75.8 179.8,73.3 137.3,78.2 "/>
<polygon fill-rule="evenodd" clip-rule="evenodd" points="137.3,84.4 179.8,79.5 179.8,77 137.3,82 "/>
<polygon fill-rule="evenodd" clip-rule="evenodd" points="212.6,75.8 255.2,70.8 255.2,68.3 212.6,73.3 "/>
<polygon fill-rule="evenodd" clip-rule="evenodd" points="212.6,72 255.2,67.1 255.2,64.6 212.6,69.6 "/>
<rect x="269.4" y="58.4" fill-rule="evenodd" clip-rule="evenodd" width="42.6" height="2.5"/>
<rect x="269.4" y="54.7" fill-rule="evenodd" clip-rule="evenodd" width="42.6" height="2.5"/>
<g>
	<path d="M379,71.5c2.2-2,3.6-4.6,3.6-6.9c0-1.9-1.1-3.3-2.8-3.3c-1.2,0-2.5,1-2.5,2.1c0,0.2,0,0.2,0.1,0.2c0,0,0.4-0.5,1-0.5
		c0.7,0,1.2,0.6,1.2,1.3c0,0.9-0.6,1.7-1.6,1.7s-1.5-1-1.5-2.1c0-1.8,1.7-3.1,3.6-3.1c3.5,0,4.4,2.4,4.4,4.4c0,1.2-0.3,2.2-1.5,4
		c-1.4,2.3-4.8,4-6,4c-0.3,0-0.5-0.1-0.5-0.3C377.5,72.5,378.4,72,379,71.5z M386.4,62c0.4,0,0.7,0.3,0.7,0.7c0,0.4-0.3,0.7-0.7,0.7
		c-0.4,0-0.7-0.3-0.7-0.7C385.7,62.3,386,62,386.4,62z M386.4,65.7c0.4,0,0.7,0.3,0.7,0.7s-0.3,0.7-0.7,0.7c-0.4,0-0.7-0.3-0.7-0.7
		S386,65.7,386.4,65.7z"/>
</g>
<polygon fill-rule="evenodd" clip-rule="evenodd" points="326.1,65.8 368.7,70.8 368.7,68.3 326.1,63.4 "/>
<polygon fill-rule="evenodd" clip-rule="evenodd" points="326.1,62.1 368.7,67.1 368.7,64.6 326.1,59.6 "/>
<polygon fill-rule="evenodd" clip-rule="evenodd" points="388.6,70.8 431,75.8 431,73.3 388.6,68.3 "/>
<polygon fill-rule="evenodd" clip-rule="evenodd" points="388.6,74.5 431,79.5 431,77 388.6,72 "/>
<polygon fill-rule="evenodd" clip-rule="evenodd" points="451.8,55.9 494.3,60.9 494.3,58.4 451.8,53.4 "/>
<polygon fill-rule="evenodd" clip-rule="evenodd" points="451.8,52.2 494.3,57.2 494.3,54.7 451.8,49.7 "/>
<rect x="78.5" y="36.9" width="10.5" height="0.8"/>
<rect x="86.8" y="17.6" width="0.5" height="18.9"/>
<g>
	<path d="M80.4,38.2c0-1.8,2.5-3.5,4.5-3.5c1.3,0,2.3,0.7,2.3,1.7c0,1.7-2.5,3.5-4.6,3.5C81.4,39.9,80.4,39.3,80.4,38.2z"/>
</g>
<rect x="100.9" y="16.1" width="0.5" height="18"/>
<g>
	<path d="M94.5,35.7c0-1.8,2.5-3.5,4.5-3.5c1.3,0,2.3,0.7,2.3,1.7c0,1.7-2.5,3.5-4.6,3.5C95.5,37.4,94.5,36.8,94.5,35.7z"/>
</g>
<rect x="115.2" y="14.4" width="0.5" height="17.2"/>
<g>
	<path d="M108.8,33.2c0-1.8,2.5-3.5,4.5-3.5c1.3,0,2.3,0.7,2.3,1.7c0,1.7-2.5,3.5-4.6,3.5C109.7,34.9,108.8,34.3,108.8,33.2z"/>
</g>
<rect x="129.3" y="12.7" width="0.5" height="16.4"/>
<g>
	<path d="M122.9,30.7c0-1.8,2.5-3.5,4.5-3.5c1.3,0,2.3,0.7,2.3,1.7c0,1.7-2.5,3.5-4.6,3.5C123.8,32.5,122.9,31.8,122.9,30.7z"/>
</g>
<rect x="143.6" y="7.7" width="0.5" height="18.9"/>
<g>
	<path d="M137.1,28.3c0-1.8,2.5-3.5,4.5-3.5c1.3,0,2.3,0.7,2.3,1.7c0,1.7-2.5,3.5-4.6,3.5C138.1,30,137.1,29.3,137.1,28.3z"/>
</g>
<g>
	<path d="M134.2,29.9c0-0.8-0.4-1.5-1.1-2.2c-0.7,0.7-1.1,1.4-1.1,2.2h-1.4v-1.4c0.8,0,1.5-0.3,2.2-1c-0.7-0.7-1.4-1.1-2.2-1.1v-1.4
		h1.4c0,0.8,0.4,1.5,1.1,2.2c0.7-0.7,1.1-1.4,1.1-2.2h1.4v1.4c-0.8,0-1.5,0.4-2.2,1.1c0.7,0.7,1.4,1,2,1h0.2v1.4H134.2z"/>
</g>
<rect x="157.7" y="6.2" width="0.5" height="18"/>
<g>
	<path d="M151.2,25.8c0-1.8,2.5-3.5,4.5-3.5c1.3,0,2.3,0.7,2.3,1.7c0,1.7-2.5,3.5-4.6,3.5C152.2,27.5,151.2,26.9,151.2,25.8z"/>
</g>
<rect x="171.9" y="4.5" width="0.5" height="17.2"/>
<g>
	<path d="M165.5,23.3c0-1.8,2.5-3.5,4.5-3.5c1.3,0,2.3,0.7,2.3,1.7c0,1.7-2.5,3.5-4.6,3.5C166.5,25,165.5,24.4,165.5,23.3z"/>
</g>
<rect x="186" y="2.8" width="0.5" height="16.4"/>
<g>
	<path d="M179.6,20.8c0-1.8,2.5-3.5,4.5-3.5c1.3,0,2.3,0.7,2.3,1.7c0,1.7-2.5,3.5-4.6,3.5C180.6,22.5,179.6,21.9,179.6,20.8z"/>
</g>
<rect x="205.9" y="18.3" width="0.5" height="14"/>
<g>
	<path d="M205.9,18.3c0-1.8,2.5-3.5,4.5-3.5c1.3,0,2.3,0.7,2.3,1.7c0,1.7-2.5,3.5-4.6,3.5C206.9,20.1,205.9,19.4,205.9,18.3z"/>
</g>
<rect x="220.1" y="15.8" width="0.5" height="14.9"/>
<g>
	<path d="M220.2,15.9c0-1.8,2.5-3.5,4.5-3.5c1.3,0,2.3,0.7,2.3,1.7c0,1.7-2.5,3.5-4.6,3.5C221.2,17.6,220.2,16.9,220.2,15.9z"/>
</g>
<rect x="234.2" y="13.3" width="0.5" height="15.7"/>
<g>
	<path d="M234.3,13.4c0-1.8,2.5-3.5,4.5-3.5c1.3,0,2.3,0.7,2.3,1.7c0,1.7-2.5,3.5-4.6,3.5C235.3,15.1,234.3,14.5,234.3,13.4z"/>
</g>
<rect x="248.5" y="10.8" width="0.5" height="16.4"/>
<g>
	<path d="M248.6,10.9c0-1.8,2.5-3.5,4.5-3.5c1.3,0,2.3,0.7,2.3,1.7c0,1.7-2.5,3.5-4.6,3.5C249.6,12.6,248.6,12,248.6,10.9z"/>
</g>
<g>
	<path d="M245.6,12.5c0-0.8-0.4-1.5-1.1-2.2c-0.7,0.7-1.1,1.4-1.1,2.2h-1.4v-1.4c0.8,0,1.5-0.3,2.2-1c-0.7-0.7-1.4-1.1-2.2-1.1V7.5
		h1.4c0,0.8,0.4,1.5,1.1,2.2c0.7-0.7,1.1-1.4,1.1-2.2h1.4V9c-0.8,0-1.5,0.4-2.2,1.1c0.7,0.7,1.4,1,2,1h0.2v1.4H245.6z"/>
</g>
<rect x="260.8" y="7.2" width="10.5" height="0.8"/>
<rect x="262.6" y="8.3" width="0.5" height="15.2"/>
<g>
	<path d="M262.7,8.4c0-1.8,2.5-3.5,4.5-3.5c1.3,0,2.3,0.7,2.3,1.7c0,1.7-2.5,3.5-4.6,3.5C263.7,10.1,262.7,9.5,262.7,8.4z"/>
</g>
<rect x="275.1" y="7.2" width="10.5" height="0.8"/>
<rect x="276.9" y="5.9" width="0.5" height="17.4"/>
<g>
	<path d="M276.9,5.9c0-1.8,2.5-3.5,4.5-3.5c1.3,0,2.3,0.7,2.3,1.7c0,1.7-2.5,3.5-4.6,3.5C277.9,7.7,276.9,7,276.9,5.9z"/>
</g>
<rect x="289.2" y="7.2" width="10.5" height="0.8"/>
<rect x="289.2" y="2.2" width="10.5" height="0.8"/>
<rect x="291" y="3.4" width="0.5" height="19.4"/>
<g>
	<path d="M291.1,3.5c0-1.8,2.5-3.5,4.5-3.5c1.3,0,2.3,0.7,2.3,1.7c0,1.7-2.5,3.5-4.6,3.5C292,5.2,291.1,4.5,291.1,3.5z"/>
</g>
<rect x="303.5" y="7.2" width="10.5" height="0.8"/>
<rect x="305.2" y="5.9" width="0.5" height="16.4"/>
<g>
	<path d="M305.3,5.9c0-1.8,2.5-3.5,4.5-3.5c1.3,0,2.3,0.7,2.3,1.7c0,1.7-2.5,3.5-4.6,3.5C306.3,7.7,305.3,7,305.3,5.9z"/>
</g>
<rect x="317.6" y="7.2" width="10.5" height="0.8"/>
<rect x="319.3" y="8.3" width="0.5" height="18.9"/>
<g>
	<path d="M319.4,8.4c0-1.8,2.5-3.5,4.5-3.5c1.3,0,2.3,0.7,2.3,1.7c0,1.7-2.5,3.5-4.6,3.5C320.4,10.1,319.4,9.5,319.4,8.4z"/>
</g>
<rect x="333.6" y="10.8" width="0.5" height="18"/>
<g>
	<path d="M333.7,10.9c0-1.8,2.5-3.5,4.5-3.5c1.3,0,2.3,0.7,2.3,1.7c0,1.7-2.5,3.5-4.6,3.5C334.7,12.6,333.7,12,333.7,10.9z"/>
</g>
<rect x="347.7" y="13.3" width="0.5" height="17.2"/>
<g>
	<path d="M347.8,13.4c0-1.8,2.5-3.5,4.5-3.5c1.3,0,2.3,0.7,2.3,1.7c0,1.7-2.5,3.5-4.6,3.5C348.8,15.1,347.8,14.5,347.8,13.4z"/>
</g>
<rect x="362" y="15.8" width="0.5" height="16.4"/>
<g>
	<path d="M362,15.9c0-1.8,2.5-3.5,4.5-3.5c1.3,0,2.3,0.7,2.3,1.7c0,1.7-2.5,3.5-4.6,3.5C363,17.6,362,16.9,362,15.9z"/>
</g>
<rect x="388.3" y="18.3" width="0.5" height="18.9"/>
<g>
	<path d="M388.4,18.3c0-1.8,2.5-3.5,4.5-3.5c1.3,0,2.3,0.7,2.3,1.7c0,1.7-2.5,3.5-4.6,3.5C389.4,20.1,388.4,19.4,388.4,18.3z"/>
</g>
<rect x="402.4" y="20.7" width="0.5" height="18"/>
<g>
	<path d="M402.5,20.8c0-1.8,2.5-3.5,4.5-3.5c1.3,0,2.3,0.7,2.3,1.7c0,1.7-2.5,3.5-4.6,3.5C403.5,22.5,402.5,21.9,402.5,20.8z"/>
</g>
<rect x="416.7" y="23.2" width="0.5" height="17.2"/>
<g>
	<path d="M416.8,23.3c0-1.8,2.5-3.5,4.5-3.5c1.3,0,2.3,0.7,2.3,1.7c0,1.7-2.5,3.5-4.6,3.5C417.7,25,416.8,24.4,416.8,23.3z"/>
</g>
<rect x="430.8" y="25.7" width="0.5" height="16.4"/>
<g>
	<path d="M430.9,25.8c0-1.8,2.5-3.5,4.5-3.5c1.3,0,2.3,0.7,2.3,1.7c0,1.7-2.5,3.5-4.6,3.5C431.8,27.5,430.9,26.9,430.9,25.8z"/>
</g>
<rect x="451.6" y="12.7" width="0.5" height="14"/>
<g>
	<path d="M445.1,28.3c0-1.8,2.5-3.5,4.5-3.5c1.3,0,2.3,0.7,2.3,1.7c0,1.7-2.5,3.5-4.6,3.5C446.1,30,445.1,29.3,445.1,28.3z"/>
</g>
<rect x="465.7" y="14.2" width="0.5" height="14.9"/>
<g>
	<path d="M459.2,30.7c0-1.8,2.5-3.5,4.5-3.5c1.3,0,2.3,0.7,2.3,1.7c0,1.7-2.5,3.5-4.6,3.5C460.2,32.5,459.2,31.8,459.2,30.7z"/>
</g>
<rect x="479.9" y="15.9" width="0.5" height="15.7"/>
<g>
	<path d="M473.5,33.2c0-1.8,2.5-3.5,4.5-3.5c1.3,0,2.3,0.7,2.3,1.7c0,1.7-2.5,3.5-4.6,3.5C474.5,34.9,473.5,34.3,473.5,33.2z"/>
</g>
<rect x="494" y="17.6" width="0.5" height="16.4"/>
<g>
	<path d="M487.6,35.7c0-1.8,2.5-3.5,4.5-3.5c1.3,0,2.3,0.7,2.3,1.7c0,1.7-2.5,3.5-4.6,3.5C488.6,37.4,487.6,36.8,487.6,35.7z"/>
</g>
<rect x="500" y="36.9" width="10.7" height="0.8"/>
<rect x="508.5" y="20" width="0.5" height="16.6"/>
<g>
	<path d="M506.1,34.6c1.6,0,2.7,0.7,2.7,2c0,1.9-2.3,3.4-4.5,3.4c-1.3,0-2.4-0.7-2.4-1.8C501.9,36.4,504.1,34.6,506.1,34.6z
		 M502.3,38.5c0,0.6,0.4,0.9,1.1,0.9c1.4,0,4.9-2.1,4.9-3.3c0-0.6-0.4-0.9-1.1-0.9C506,35.2,502.3,37.2,502.3,38.5z"/>
</g>
<rect x="86.8" y="59.8" width="0.5" height="16.4"/>
<g>
	<path d="M80.4,77.9c0-1.8,2.5-3.5,4.5-3.5c1.3,0,2.3,0.7,2.3,1.7c0,1.7-2.5,3.5-4.6,3.5C81.4,79.6,80.4,78.9,80.4,77.9z"/>
</g>
<rect x="100.9" y="58.2" width="0.5" height="15.5"/>
<g>
	<path d="M94.5,75.4c0-1.8,2.5-3.5,4.5-3.5c1.3,0,2.3,0.7,2.3,1.7c0,1.7-2.5,3.5-4.6,3.5C95.5,77.1,94.5,76.5,94.5,75.4z"/>
</g>
<rect x="115.2" y="56.5" width="0.5" height="14.7"/>
<g>
	<path d="M108.8,72.9c0-1.8,2.5-3.5,4.5-3.5c1.3,0,2.3,0.7,2.3,1.7c0,1.7-2.5,3.5-4.6,3.5C109.7,74.6,108.8,74,108.8,72.9z"/>
</g>
<rect x="129.3" y="54.8" width="0.5" height="14"/>
<g>
	<path d="M122.9,70.4c0-1.8,2.5-3.5,4.5-3.5c1.3,0,2.3,0.7,2.3,1.7c0,1.7-2.5,3.5-4.6,3.5C123.8,72.1,122.9,71.5,122.9,70.4z"/>
</g>
<rect x="137" y="67.9" width="0.5" height="16.4"/>
<g>
	<path d="M137.1,67.9c0-1.8,2.5-3.5,4.5-3.5c1.3,0,2.3,0.7,2.3,1.7c0,1.7-2.5,3.5-4.6,3.5C138.1,69.7,137.1,69,137.1,67.9z"/>
</g>
<rect x="151.2" y="65.4" width="0.5" height="17.4"/>
<g>
	<path d="M151.2,65.5c0-1.8,2.5-3.5,4.5-3.5c1.3,0,2.3,0.7,2.3,1.7c0,1.7-2.5,3.5-4.6,3.5C152.2,67.2,151.2,66.5,151.2,65.5z"/>
</g>
<rect x="165.4" y="62.9" width="0.5" height="18.1"/>
<g>
	<path d="M165.5,63c0-1.8,2.5-3.5,4.5-3.5c1.3,0,2.3,0.7,2.3,1.7c0,1.7-2.5,3.5-4.6,3.5C166.5,64.7,165.5,64.1,165.5,63z"/>
</g>
<g>
	<path d="M162.5,64.6c0-0.8-0.4-1.5-1.1-2.2c-0.7,0.7-1.1,1.4-1.1,2.2H159v-1.4c0.8,0,1.5-0.3,2.2-1c-0.7-0.7-1.4-1.1-2.2-1.1v-1.4
		h1.4c0,0.8,0.4,1.5,1.1,2.2c0.7-0.7,1.1-1.4,1.1-2.2h1.4v1.4c-0.8,0-1.5,0.4-2.2,1.1c0.7,0.7,1.4,1,2,1h0.2v1.4H162.5z"/>
</g>
<rect x="179.5" y="60.4" width="0.5" height="18.9"/>
<g>
	<path d="M179.6,60.5c0-1.8,2.5-3.5,4.5-3.5c1.3,0,2.3,0.7,2.3,1.7c0,1.7-2.5,3.5-4.6,3.5C180.6,62.2,179.6,61.6,179.6,60.5z"/>
</g>
<rect x="204.1" y="84.1" width="10.5" height="0.8"/>
<rect x="212.4" y="69.7" width="0.5" height="16.4"/>
<g>
	<path d="M205.9,87.8c0-1.8,2.5-3.5,4.5-3.5c1.3,0,2.3,0.7,2.3,1.7c0,1.7-2.5,3.5-4.6,3.5C206.9,89.5,205.9,88.9,205.9,87.8z"/>
</g>
<rect x="218.4" y="84.1" width="10.5" height="0.8"/>
<rect x="226.6" y="68.2" width="0.5" height="15.5"/>
<g>
	<path d="M220.2,85.3c0-1.8,2.5-3.5,4.5-3.5c1.3,0,2.3,0.7,2.3,1.7c0,1.7-2.5,3.5-4.6,3.5C221.2,87,220.2,86.4,220.2,85.3z"/>
</g>
<rect x="240.8" y="66.5" width="0.5" height="14.7"/>
<g>
	<path d="M234.3,82.8c0-1.8,2.5-3.5,4.5-3.5c1.3,0,2.3,0.7,2.3,1.7c0,1.7-2.5,3.5-4.6,3.5C235.3,84.5,234.3,83.9,234.3,82.8z"/>
</g>
<rect x="255" y="64.8" width="0.5" height="14"/>
<g>
	<path d="M248.6,80.3c0-1.8,2.5-3.5,4.5-3.5c1.3,0,2.3,0.7,2.3,1.7c0,1.7-2.5,3.5-4.6,3.5C249.6,82.1,248.6,81.4,248.6,80.3z"/>
</g>
<rect x="269.1" y="54.8" width="0.5" height="21.4"/>
<g>
	<path d="M262.7,77.9c0-1.8,2.5-3.5,4.5-3.5c1.3,0,2.3,0.7,2.3,1.7c0,1.7-2.5,3.5-4.6,3.5C263.7,79.6,262.7,78.9,262.7,77.9z"/>
</g>
<rect x="283.4" y="54.8" width="0.5" height="18.9"/>
<g>
	<path d="M276.9,75.4c0-1.8,2.5-3.5,4.5-3.5c1.3,0,2.3,0.7,2.3,1.7c0,1.7-2.5,3.5-4.6,3.5C277.9,77.1,276.9,76.5,276.9,75.4z"/>
</g>
<g>
	<path d="M274,77c0-0.8-0.4-1.5-1.1-2.2c-0.7,0.7-1.1,1.4-1.1,2.2h-1.4v-1.4c0.8,0,1.5-0.3,2.2-1c-0.7-0.7-1.4-1.1-2.2-1.1V72h1.4
		c0,0.8,0.4,1.5,1.1,2.2c0.7-0.7,1.1-1.4,1.1-2.2h1.4v1.4c-0.8,0-1.5,0.4-2.2,1.1c0.7,0.7,1.4,1,2,1h0.2V77H274z"/>
</g>
<rect x="297.5" y="54.8" width="0.5" height="16.4"/>
<g>
	<path d="M291.1,72.9c0-1.8,2.5-3.5,4.5-3.5c1.3,0,2.3,0.7,2.3,1.7c0,1.7-2.5,3.5-4.6,3.5C292,74.6,291.1,74,291.1,72.9z"/>
</g>
<rect x="311.7" y="54.8" width="0.5" height="18.9"/>
<g>
	<path d="M305.3,75.4c0-1.8,2.5-3.5,4.5-3.5c1.3,0,2.3,0.7,2.3,1.7c0,1.7-2.5,3.5-4.6,3.5C306.3,77.1,305.3,76.5,305.3,75.4z"/>
</g>
<rect x="325.9" y="59.8" width="0.5" height="16.4"/>
<g>
	<path d="M319.4,77.9c0-1.8,2.5-3.5,4.5-3.5c1.3,0,2.3,0.7,2.3,1.7c0,1.7-2.5,3.5-4.6,3.5C320.4,79.6,319.4,78.9,319.4,77.9z"/>
</g>
<rect x="340.1" y="61.3" width="0.5" height="17.4"/>
<g>
	<path d="M333.7,80.3c0-1.8,2.5-3.5,4.5-3.5c1.3,0,2.3,0.7,2.3,1.7c0,1.7-2.5,3.5-4.6,3.5C334.7,82.1,333.7,81.4,333.7,80.3z"/>
</g>
<rect x="354.2" y="63.1" width="0.5" height="18.1"/>
<g>
	<path d="M347.8,82.8c0-1.8,2.5-3.5,4.5-3.5c1.3,0,2.3,0.7,2.3,1.7c0,1.7-2.5,3.5-4.6,3.5C348.8,84.5,347.8,83.9,347.8,82.8z"/>
</g>
<rect x="360.2" y="84.1" width="10.5" height="0.8"/>
<rect x="368.5" y="64.8" width="0.5" height="18.9"/>
<g>
	<path d="M362,85.3c0-1.8,2.5-3.5,4.5-3.5c1.3,0,2.3,0.7,2.3,1.7c0,1.7-2.5,3.5-4.6,3.5C363,87,362,86.4,362,85.3z"/>
</g>
<rect x="388.3" y="57.9" width="0.5" height="16.4"/>
<g>
	<path d="M388.4,58c0-1.8,2.5-3.5,4.5-3.5c1.3,0,2.3,0.7,2.3,1.7c0,1.7-2.5,3.5-4.6,3.5C389.4,59.7,388.4,59.1,388.4,58z"/>
</g>
<rect x="402.4" y="60.4" width="0.5" height="15.5"/>
<g>
	<path d="M402.5,60.5c0-1.8,2.5-3.5,4.5-3.5c1.3,0,2.3,0.7,2.3,1.7c0,1.7-2.5,3.5-4.6,3.5C403.5,62.2,402.5,61.6,402.5,60.5z"/>
</g>
<rect x="416.7" y="62.9" width="0.5" height="14.7"/>
<g>
	<path d="M416.8,63c0-1.8,2.5-3.5,4.5-3.5c1.3,0,2.3,0.7,2.3,1.7c0,1.7-2.5,3.5-4.6,3.5C417.7,64.7,416.8,64.1,416.8,63z"/>
</g>
<rect x="430.8" y="65.4" width="0.5" height="14"/>
<g>
	<path d="M430.9,65.5c0-1.8,2.5-3.5,4.5-3.5c1.3,0,2.3,0.7,2.3,1.7c0,1.7-2.5,3.5-4.6,3.5C431.8,67.2,430.9,66.5,430.9,65.5z"/>
</g>
<rect x="451.6" y="49.9" width="0.5" height="16.4"/>
<g>
	<path d="M445.1,67.9c0-1.8,2.5-3.5,4.5-3.5c1.3,0,2.3,0.7,2.3,1.7c0,1.7-2.5,3.5-4.6,3.5C446.1,69.7,445.1,69,445.1,67.9z"/>
</g>
<rect x="465.7" y="51.4" width="0.5" height="17.4"/>
<g>
	<path d="M459.2,70.4c0-1.8,2.5-3.5,4.5-3.5c1.3,0,2.3,0.7,2.3,1.7c0,1.7-2.5,3.5-4.6,3.5C460.2,72.1,459.2,71.5,459.2,70.4z"/>
</g>
<rect x="479.9" y="53.1" width="0.5" height="18.1"/>
<g>
	<path d="M473.5,72.9c0-1.8,2.5-3.5,4.5-3.5c1.3,0,2.3,0.7,2.3,1.7c0,1.7-2.5,3.5-4.6,3.5C474.5,74.6,473.5,74,473.5,72.9z"/>
</g>
<rect x="494" y="54.8" width="0.5" height="18.9"/>
<g>
	<path d="M487.6,75.4c0-1.8,2.5-3.5,4.5-3.5c1.3,0,2.3,0.7,2.3,1.7c0,1.7-2.5,3.5-4.6,3.5C488.6,77.1,487.6,76.5,487.6,75.4z"/>
</g>
<rect x="508.5" y="59.6" width="0.5" height="16.6"/>
<g>
	<path d="M506.1,74.3c1.6,0,2.7,0.7,2.7,2c0,1.9-2.3,3.4-4.5,3.4c-1.3,0-2.4-0.7-2.4-1.8C501.9,76.1,504.1,74.3,506.1,74.3z
		 M502.3,78.2c0,0.6,0.4,0.9,1.1,0.9c1.4,0,4.9-2.1,4.9-3.3c0-0.6-0.4-0.9-1.1-0.9C506,74.9,502.3,76.9,502.3,78.2z"/>
</g>
</svg>
