<?xml version="1.0" encoding="utf-8"?>

<!--
	ScaleBook
	Copyright (c) Leland Jansen 2015. All rights reserved.
-->

<!DOCTYPE svg PUBLIC "-//W3C//DTD SVG 1.1//EN" "http://www.w3.org/Graphics/SVG/1.1/DTD/svg11.dtd">
<svg version="1.1" id="Layer_1" xmlns="http://www.w3.org/2000/svg" xmlns:xlink="http://www.w3.org/1999/xlink" x="0px" y="0px"
	 viewBox="0 0 552.9 94.4" enable-background="new 0 0 552.9 94.4" xml:space="preserve">
<rect x="8.4" y="17.5" width="0.8" height="67"/>
<g>
	<path d="M7.4,18.1c-1.9,1.1-3.6,5.8-3.6,9.4c0,2.3,1.4,9.9,1.4,12.3c0,5-1.5,8.6-4.6,11.1c3,2.4,4.6,6.1,4.6,11
		c0,2.3-1.4,9.9-1.4,12.3c0,3.8,1.7,8.4,3.6,9.5v0.7c-3.5-2.3-5.8-8.2-5.8-13.1c0-2.1,1.7-9.4,1.7-11.5c0-3.8-1-6.6-2.9-8.2
		C0.1,51.4,0,51.2,0,51s0.1-0.4,0.5-0.7c1.9-1.7,2.9-4.2,2.9-7.6c0-2.1-1.7-10-1.7-12.2c0-5.2,2.1-10.4,5.8-13.1V18.1z"/>
</g>
<rect x="547.8" y="17.5" width="0.8" height="67"/>
<rect x="550.4" y="17.5" width="2.5" height="67"/>
<rect x="8.5" y="37.1" width="544.4" height="0.5"/>
<rect x="8.5" y="32.1" width="544.4" height="0.5"/>
<rect x="8.5" y="27.2" width="544.4" height="0.5"/>
<rect x="8.5" y="22.2" width="544.4" height="0.5"/>
<rect x="8.5" y="17.2" width="544.4" height="0.5"/>
<g>
	<path d="M20.3,37.2c-4.2,0-8.1-3.1-8.1-6.9c0-3.2,2.3-6.7,6.8-10.5c-0.3-1.2-0.4-2.4-0.4-3.6c0-3.5,1.2-6.8,3.2-8.5
		c1.8,2.5,2.7,4.9,2.7,7.1c0,2.9-1.3,5.6-4.3,8.1l0.9,4.2c0.5,0,0.8-0.1,0.8-0.1c2.6,0,4.8,2,4.8,4.7c0,1.9-1.4,3.7-3.6,4.8
		c0-0.1,0.9,3.8,0.9,4.3c0,2.5-2.3,4.2-4.9,4.2c-2,0-3.6-1.3-3.6-3.4c0-1.4,1-2.6,2.4-2.6c1.3,0,2.3,1.3,2.3,2.5
		c0,1.4-1.2,2.3-2.7,2.5c0.6,0.3,1.2,0.5,1.9,0.5c2.1,0,4.1-1.6,4.1-3.6c0-0.2,0-0.4-0.1-0.6l-0.8-3.7C21.9,37,21.2,37.2,20.3,37.2z
		 M18.1,31.9c0,1,0.5,1.9,1.6,2.5c-1.8-0.3-3-1.4-3-3.1c0-2,1.7-3.7,3.8-4.1l-0.8-4C16,26,14,28.7,14,31.4c0,2.9,2.8,5.3,6,5.3
		c0.9,0,1.7-0.2,2.4-0.5L21,29.3C19.4,29.6,18.1,30.6,18.1,31.9z M22.1,10.6c-1.6,0-2.9,3.7-2.9,7c0,0.7,0,1.3,0.2,1.9
		c2.7-2.4,4-4.5,4-6.5c0-0.9-0.3-1.7-1-2.4C22.4,10.6,22.3,10.6,22.1,10.6z M24.9,32.5c0-1.6-1.2-3.3-2.9-3.3c-0.1,0-0.2,0-0.5,0
		l1.4,6.6C24.2,34.9,24.9,33.8,24.9,32.5z"/>
</g>
<g>
	<path d="M33.5,10.7v2.8l1-0.3V15l-1,0.3v3.4l1-0.3v1.8l-1,0.3v3.1H33v-3l-1.9,0.6v3h-0.5v-2.8l-1,0.3V20l1-0.3v-3.4l-1,0.3v-1.8
		l1-0.3v-3.1h0.5v3l1.9-0.6v-3H33.5z M33,15.4l-1.9,0.6v3.4l1.9-0.6V15.4z"/>
</g>
<g>
	<path d="M39.7,18.1v2.8l1-0.3v1.8l-1,0.3v3.4l1-0.3v1.8l-1,0.3v3.1h-0.5v-3l-1.9,0.6v3h-0.5v-2.8l-1,0.3v-1.8l1-0.3v-3.4l-1,0.3
		v-1.8l1-0.3v-3.1h0.5v3l1.9-0.6v-3H39.7z M39.2,22.9l-1.9,0.6v3.4l1.9-0.6V22.9z"/>
</g>
<g>
	<path d="M45.9,8.2V11l1-0.3v1.8l-1,0.3v3.4l1-0.3v1.8l-1,0.3v3.1h-0.5v-3l-1.9,0.6v3H43V19l-1,0.3v-1.8l1-0.3v-3.4l-1,0.3v-1.8
		l1-0.3V8.8h0.5v3l1.9-0.6v-3H45.9z M45.4,13l-1.9,0.6V17l1.9-0.6V13z"/>
</g>
<g>
	<path d="M52.1,15.6v2.8l1-0.3v1.8l-1,0.3v3.4l1-0.3v1.8l-1,0.3v3.1h-0.5v-3l-1.9,0.6v3h-0.5v-2.8l-1,0.3v-1.8l1-0.3v-3.4l-1,0.3
		v-1.8l1-0.3v-3.1h0.5v3l1.9-0.6v-3H52.1z M51.6,20.4L49.7,21v3.4l1.9-0.6V20.4z"/>
</g>
<polygon fill-rule="evenodd" clip-rule="evenodd" points="68.5,23.7 112.6,18.7 112.6,16.2 68.5,21.2 "/>
<polygon fill-rule="evenodd" clip-rule="evenodd" points="68.5,20 112.6,15 112.6,12.5 68.5,17.5 "/>
<polygon fill-rule="evenodd" clip-rule="evenodd" points="120.8,38.6 165,33.6 165,31.1 120.8,36.1 "/>
<polygon fill-rule="evenodd" clip-rule="evenodd" points="120.8,42.3 165,37.3 165,34.8 120.8,39.8 "/>
<polygon fill-rule="evenodd" clip-rule="evenodd" points="191.4,28.6 238.2,23.7 238.2,21.2 191.4,26.2 "/>
<polygon fill-rule="evenodd" clip-rule="evenodd" points="191.4,32.4 238.2,27.4 238.2,24.9 191.4,29.9 "/>
<polygon fill-rule="evenodd" clip-rule="evenodd" points="252.9,24.9 297.1,23.7 297.1,21.2 252.9,22.4 "/>
<polygon fill-rule="evenodd" clip-rule="evenodd" points="252.9,28.6 297.1,27.4 297.1,24.9 252.9,26.2 "/>
<polygon fill-rule="evenodd" clip-rule="evenodd" points="311.8,23.7 356.2,28.6 356.2,26.2 311.8,21.2 "/>
<polygon fill-rule="evenodd" clip-rule="evenodd" points="311.8,27.4 356.2,32.4 356.2,29.9 311.8,24.9 "/>
<polygon fill-rule="evenodd" clip-rule="evenodd" points="382.5,33.6 426.7,38.6 426.7,36.1 382.5,31.1 "/>
<polygon fill-rule="evenodd" clip-rule="evenodd" points="382.5,37.3 426.7,42.3 426.7,39.8 382.5,34.8 "/>
<polygon fill-rule="evenodd" clip-rule="evenodd" points="447.9,18.7 492.1,23.7 492.1,21.2 447.9,16.2 "/>
<polygon fill-rule="evenodd" clip-rule="evenodd" points="447.9,15 492.1,20 492.1,17.5 447.9,12.5 "/>
<rect x="8.5" y="84.2" width="544.4" height="0.5"/>
<rect x="8.5" y="79.2" width="544.4" height="0.5"/>
<rect x="8.5" y="74.3" width="544.4" height="0.5"/>
<rect x="8.5" y="69.3" width="544.4" height="0.5"/>
<rect x="8.5" y="64.4" width="544.4" height="0.5"/>
<g>
	<path d="M15.7,78.8c2.9-2.6,4.7-6.1,4.7-9.2c0-2.5-1.4-4.4-3.7-4.4c-1.6,0-3.4,1.3-3.4,2.7c0,0.2,0,0.3,0.1,0.3
		c-0.1,0,0.6-0.6,1.4-0.6c0.9,0,1.5,0.8,1.5,1.7c0,1.2-0.9,2.2-2.1,2.2c-1.2,0-2.1-1.3-2.1-2.8c0-2.3,2.3-4.1,4.8-4.1
		c4.7,0,5.9,3.2,5.9,5.8c0,1.6-0.4,2.9-2,5.3C19.1,78.7,14.6,81,13,81c-0.4,0-0.6-0.2-0.6-0.5C13.8,80.1,14.9,79.5,15.7,78.8z
		 M25.7,66.1c0.6,0,1,0.4,1,1s-0.4,1-1,1s-1-0.4-1-1S25.1,66.1,25.7,66.1z M25.7,71c0.6,0,1,0.4,1,1c0,0.6-0.4,1-1,1s-1-0.4-1-1
		C24.7,71.5,25.1,71,25.7,71z"/>
</g>
<g>
	<path d="M33.5,62.7v2.8l1-0.3V67l-1,0.3v3.4l1-0.3v1.8l-1,0.3v3.1H33v-3l-1.9,0.6v3h-0.5v-2.8l-1,0.3v-1.8l1-0.3v-3.4l-1,0.3v-1.8
		l1-0.3v-3.1h0.5v3l1.9-0.6v-3H33.5z M33,67.5l-1.9,0.6v3.4L33,71V67.5z"/>
</g>
<g>
	<path d="M39.7,70.2V73l1-0.3v1.8l-1,0.3v3.4l1-0.3v1.8l-1,0.3v3.1h-0.5v-3l-1.9,0.6v3h-0.5V81l-1,0.3v-1.8l1-0.3v-3.4l-1,0.3v-1.8
		l1-0.3v-3.1h0.5v3l1.9-0.6v-3H39.7z M39.2,75l-1.9,0.6V79l1.9-0.6V75z"/>
</g>
<g>
	<path d="M45.9,60.3v2.8l1-0.3v1.8l-1,0.3v3.4l1-0.3v1.8l-1,0.3v3.1h-0.5v-3l-1.9,0.6v3H43V71l-1,0.3v-1.8l1-0.3v-3.4l-1,0.3v-1.8
		l1-0.3v-3.1h0.5v3l1.9-0.6v-3H45.9z M45.4,65l-1.9,0.6v3.4l1.9-0.6V65z"/>
</g>
<g>
	<path d="M52.1,67.7v2.8l1-0.3V72l-1,0.3v3.4l1-0.3v1.8l-1,0.3v3.1h-0.5v-3l-1.9,0.6v3h-0.5v-2.8l-1,0.3V77l1-0.3v-3.4l-1,0.3v-1.8
		l1-0.3v-3.1h0.5v3l1.9-0.6v-3H52.1z M51.6,72.5l-1.9,0.6v3.4l1.9-0.6V72.5z"/>
</g>
<polygon fill-rule="evenodd" clip-rule="evenodd" points="61.9,90.6 106.1,85.7 106.1,83.2 61.9,88.2 "/>
<polygon fill-rule="evenodd" clip-rule="evenodd" points="61.9,94.4 106.1,89.4 106.1,86.9 61.9,91.9 "/>
<g>
	<path d="M185.2,83.1c-3.2,0-6.1-2.3-6.1-5.1c0-2.4,1.7-5,5.1-7.9c-0.2-0.9-0.3-1.8-0.3-2.7c0-2.6,0.9-5.1,2.4-6.3
		c1.4,1.9,2,3.7,2,5.3c0,2.2-1,4.2-3.2,6.1l0.7,3.1c0.4,0,0.6,0,0.6,0c2,0,3.6,1.5,3.6,3.5c0,1.4-1.1,2.8-2.7,3.6
		c0-0.1,0.6,2.8,0.6,3.3c0,1.9-1.7,3.2-3.7,3.2c-1.5,0-2.7-1-2.7-2.5c0-1.1,0.7-1.9,1.8-1.9c1,0,1.7,1,1.7,1.9c0,1-0.9,1.7-2,1.8
		c0.4,0.2,0.9,0.3,1.4,0.3c1.6,0,3.1-1.2,3.1-2.7c0-0.1,0-0.3,0-0.5l-0.6-2.8C186.4,83,185.9,83.1,185.2,83.1z M183.6,79.2
		c0,0.8,0.4,1.4,1.2,1.9c-1.3-0.2-2.2-1.1-2.2-2.3c0-1.5,1.3-2.8,2.9-3.1l-0.6-3c-2.8,2.1-4.3,4.1-4.3,6.1c0,2.2,2.1,4,4.5,4
		c0.7,0,1.3-0.1,1.8-0.4l-1.1-5.1C184.5,77.4,183.6,78.1,183.6,79.2z M186.6,63.2c-1.2,0-2.2,2.8-2.2,5.3c0,0.5,0,1,0.1,1.4
		c2-1.8,3-3.4,3-4.8c0-0.7-0.3-1.3-0.7-1.8C186.8,63.2,186.7,63.2,186.6,63.2z M188.7,79.6c0-1.2-0.9-2.4-2.2-2.4c0,0-0.2,0-0.4,0
		l1.1,5C188.1,81.4,188.7,80.6,188.7,79.6z"/>
</g>
<polygon fill-rule="evenodd" clip-rule="evenodd" points="120.8,80.7 165,75.8 165,73.3 120.8,78.2 "/>
<polygon fill-rule="evenodd" clip-rule="evenodd" points="120.8,84.4 165,79.5 165,77 120.8,82 "/>
<polygon fill-rule="evenodd" clip-rule="evenodd" points="197.9,74.5 244.7,69.6 244.7,67.1 197.9,72 "/>
<polygon fill-rule="evenodd" clip-rule="evenodd" points="197.9,70.8 244.7,65.8 244.7,63.4 197.9,68.3 "/>
<polygon fill-rule="evenodd" clip-rule="evenodd" points="252.9,89.4 297.1,88.2 297.1,85.7 252.9,86.9 "/>
<polygon fill-rule="evenodd" clip-rule="evenodd" points="252.9,93.1 297.1,91.9 297.1,89.4 252.9,90.6 "/>
<g>
	<path d="M371.1,76.5c2.2-2,3.6-4.6,3.6-6.9c0-1.9-1.1-3.3-2.8-3.3c-1.2,0-2.5,1-2.5,2.1c0,0.2,0,0.2,0.1,0.2c0,0,0.4-0.5,1-0.5
		c0.7,0,1.2,0.6,1.2,1.3c0,0.9-0.6,1.7-1.6,1.7s-1.5-1-1.5-2.1c0-1.8,1.7-3.1,3.6-3.1c3.5,0,4.4,2.4,4.4,4.4c0,1.2-0.3,2.2-1.5,4
		c-1.4,2.3-4.8,4-6,4c-0.3,0-0.5-0.1-0.5-0.3C369.6,77.4,370.5,77,371.1,76.5z M378.5,67c0.4,0,0.7,0.3,0.7,0.7
		c0,0.4-0.3,0.7-0.7,0.7c-0.4,0-0.7-0.3-0.7-0.7C377.8,67.3,378.1,67,378.5,67z M378.5,70.7c0.4,0,0.7,0.3,0.7,0.7
		c0,0.4-0.3,0.7-0.7,0.7c-0.4,0-0.7-0.3-0.7-0.7C377.8,71,378.1,70.7,378.5,70.7z"/>
</g>
<polygon fill-rule="evenodd" clip-rule="evenodd" points="318.3,65.8 362.7,70.8 362.7,68.3 318.3,63.4 "/>
<polygon fill-rule="evenodd" clip-rule="evenodd" points="318.3,62.1 362.7,67.1 362.7,64.6 318.3,59.6 "/>
<polygon fill-rule="evenodd" clip-rule="evenodd" points="382.5,70.8 426.7,75.8 426.7,73.3 382.5,68.3 "/>
<polygon fill-rule="evenodd" clip-rule="evenodd" points="382.5,74.5 426.7,79.5 426.7,77 382.5,72 "/>
<polygon fill-rule="evenodd" clip-rule="evenodd" points="441.4,80.7 485.6,85.7 485.6,83.2 441.4,78.2 "/>
<polygon fill-rule="evenodd" clip-rule="evenodd" points="441.4,84.4 485.6,89.4 485.6,86.9 441.4,82 "/>
<rect x="68.2" y="17.6" width="0.5" height="18.9"/>
<g>
	<path d="M61.8,38.2c0-1.8,2.5-3.5,4.5-3.5c1.3,0,2.3,0.7,2.3,1.7c0,1.7-2.5,3.5-4.6,3.5C62.8,39.9,61.8,39.3,61.8,38.2z"/>
</g>
<rect x="82.9" y="16.1" width="0.5" height="18"/>
<g>
	<path d="M76.5,35.7c0-1.8,2.5-3.5,4.5-3.5c1.3,0,2.3,0.7,2.3,1.7c0,1.7-2.5,3.5-4.6,3.5C77.5,37.4,76.5,36.8,76.5,35.7z"/>
</g>
<rect x="97.7" y="14.4" width="0.5" height="17.2"/>
<g>
	<path d="M91.2,33.2c0-1.8,2.5-3.5,4.5-3.5c1.3,0,2.3,0.7,2.3,1.7c0,1.7-2.5,3.5-4.6,3.5C92.2,34.9,91.2,34.3,91.2,33.2z"/>
</g>
<rect x="112.4" y="12.7" width="0.5" height="16.4"/>
<g>
	<path d="M106,30.7c0-1.8,2.5-3.5,4.5-3.5c1.3,0,2.3,0.7,2.3,1.7c0,1.7-2.5,3.5-4.6,3.5C106.9,32.5,106,31.8,106,30.7z"/>
</g>
<rect x="120.6" y="28.2" width="0.5" height="14"/>
<g>
	<path d="M120.7,28.3c0-1.8,2.5-3.5,4.5-3.5c1.3,0,2.3,0.7,2.3,1.7c0,1.7-2.5,3.5-4.6,3.5C121.7,30,120.7,29.3,120.7,28.3z"/>
</g>
<g>
	<path d="M118.3,20.6v2.8l1-0.3v1.8l-1,0.3v3.4l1-0.3v1.8l-1,0.3v3.1h-0.5v-3l-1.9,0.6v3h-0.5v-2.8l-1,0.3v-1.8l1-0.3v-3.4l-1,0.3
		v-1.8l1-0.3v-3.1h0.5v3l1.9-0.6v-3H118.3z M117.8,25.4l-1.9,0.6v3.4l1.9-0.6V25.4z"/>
</g>
<rect x="135.3" y="25.7" width="0.5" height="14.9"/>
<g>
	<path d="M135.4,25.8c0-1.8,2.5-3.5,4.5-3.5c1.3,0,2.3,0.7,2.3,1.7c0,1.7-2.5,3.5-4.6,3.5C136.4,27.5,135.4,26.9,135.4,25.8z"/>
</g>
<rect x="150.1" y="23.2" width="0.5" height="15.7"/>
<g>
	<path d="M150.1,23.3c0-1.8,2.5-3.5,4.5-3.5c1.3,0,2.3,0.7,2.3,1.7c0,1.7-2.5,3.5-4.6,3.5C151.1,25,150.1,24.4,150.1,23.3z"/>
</g>
<rect x="164.8" y="20.7" width="0.5" height="16.4"/>
<g>
	<path d="M164.9,20.8c0-1.8,2.5-3.5,4.5-3.5c1.3,0,2.3,0.7,2.3,1.7c0,1.7-2.5,3.5-4.6,3.5C165.8,22.5,164.9,21.9,164.9,20.8z"/>
</g>
<rect x="191.1" y="18.3" width="0.5" height="14"/>
<g>
	<path d="M191.2,18.3c0-1.8,2.5-3.5,4.5-3.5c1.3,0,2.3,0.7,2.3,1.7c0,1.7-2.5,3.5-4.6,3.5C192.2,20.1,191.2,19.4,191.2,18.3z"/>
</g>
<rect x="205.9" y="15.8" width="0.5" height="14.9"/>
<g>
	<path d="M205.9,15.9c0-1.8,2.5-3.5,4.5-3.5c1.3,0,2.3,0.7,2.3,1.7c0,1.7-2.5,3.5-4.6,3.5C206.9,17.6,205.9,16.9,205.9,15.9z"/>
</g>
<rect x="218.8" y="12.1" width="10.5" height="0.8"/>
<rect x="220.6" y="13.3" width="0.5" height="15.8"/>
<g>
	<path d="M220.7,13.4c0-1.8,2.5-3.5,4.5-3.5c1.3,0,2.3,0.7,2.3,1.7c0,1.7-2.5,3.5-4.6,3.5C221.6,15.1,220.7,14.5,220.7,13.4z"/>
</g>
<rect x="236.2" y="12.1" width="10.5" height="0.8"/>
<rect x="238" y="10.8" width="0.5" height="16.4"/>
<g>
	<path d="M238,10.9c0-1.8,2.5-3.5,4.5-3.5c1.3,0,2.3,0.7,2.3,1.7c0,1.7-2.5,3.5-4.6,3.5C239,12.6,238,12,238,10.9z"/>
</g>
<g>
	<path d="M234.4,3.2v2.8l1-0.3v1.8l-1,0.3v3.4l1-0.3v1.8l-1,0.3v3.1h-0.5v-3l-1.9,0.6v3h-0.5V14l-1,0.3v-1.8l1-0.3V8.8l-1,0.3V7.3
		l1-0.3V3.8h0.5v3l1.9-0.6v-3H234.4z M233.9,8L232,8.6v3.4l1.9-0.6V8z"/>
</g>
<rect x="250.9" y="12.1" width="10.5" height="0.8"/>
<rect x="250.9" y="7.2" width="10.5" height="0.8"/>
<rect x="252.7" y="8.3" width="0.5" height="20.2"/>
<g>
	<path d="M252.8,8.4c0-1.8,2.5-3.5,4.5-3.5c1.3,0,2.3,0.7,2.3,1.7c0,1.7-2.5,3.5-4.6,3.5C253.7,10.1,252.8,9.5,252.8,8.4z"/>
</g>
<rect x="265.6" y="12.1" width="10.5" height="0.8"/>
<rect x="265.6" y="7.2" width="10.5" height="0.8"/>
<rect x="267.4" y="5.9" width="0.5" height="22.3"/>
<g>
	<path d="M267.5,5.9c0-1.8,2.5-3.5,4.5-3.5c1.3,0,2.3,0.7,2.3,1.7c0,1.7-2.5,3.5-4.6,3.5C268.5,7.7,267.5,7,267.5,5.9z"/>
</g>
<rect x="280.4" y="12.1" width="10.5" height="0.8"/>
<rect x="280.4" y="7.2" width="10.5" height="0.8"/>
<rect x="280.4" y="2.2" width="10.5" height="0.8"/>
<rect x="282.1" y="3.4" width="0.5" height="24.3"/>
<g>
	<path d="M282.2,3.5c0-1.8,2.5-3.5,4.5-3.5c1.3,0,2.3,0.7,2.3,1.7c0,1.7-2.5,3.5-4.6,3.5C283.2,5.2,282.2,4.5,282.2,3.5z"/>
</g>
<rect x="295.1" y="12.1" width="10.5" height="0.8"/>
<rect x="295.1" y="7.2" width="10.5" height="0.8"/>
<rect x="296.9" y="5.9" width="0.5" height="21.4"/>
<g>
	<path d="M296.9,5.9c0-1.8,2.5-3.5,4.5-3.5c1.3,0,2.3,0.7,2.3,1.7c0,1.7-2.5,3.5-4.6,3.5C297.9,7.7,296.9,7,296.9,5.9z"/>
</g>
<rect x="309.8" y="12.1" width="10.5" height="0.8"/>
<rect x="309.8" y="7.2" width="10.5" height="0.8"/>
<rect x="311.6" y="8.3" width="0.5" height="18.9"/>
<g>
	<path d="M311.7,8.4c0-1.8,2.5-3.5,4.5-3.5c1.3,0,2.3,0.7,2.3,1.7c0,1.7-2.5,3.5-4.6,3.5C312.6,10.1,311.7,9.5,311.7,8.4z"/>
</g>
<rect x="324.5" y="12.1" width="10.5" height="0.8"/>
<rect x="326.3" y="10.8" width="0.5" height="18"/>
<g>
	<path d="M326.4,10.9c0-1.8,2.5-3.5,4.5-3.5c1.3,0,2.3,0.7,2.3,1.7c0,1.7-2.5,3.5-4.6,3.5C327.4,12.6,326.4,12,326.4,10.9z"/>
</g>
<rect x="339.3" y="12.1" width="10.5" height="0.8"/>
<rect x="341" y="13.3" width="0.5" height="17.2"/>
<g>
	<path d="M341.1,13.4c0-1.8,2.5-3.5,4.5-3.5c1.3,0,2.3,0.7,2.3,1.7c0,1.7-2.5,3.5-4.6,3.5C342.1,15.1,341.1,14.5,341.1,13.4z"/>
</g>
<rect x="355.9" y="15.8" width="0.5" height="16.4"/>
<g>
	<path d="M356,15.9c0-1.8,2.5-3.5,4.5-3.5c1.3,0,2.3,0.7,2.3,1.7c0,1.7-2.5,3.5-4.6,3.5C357,17.6,356,16.9,356,15.9z"/>
</g>
<rect x="382.3" y="18.3" width="0.5" height="18.9"/>
<g>
	<path d="M382.4,18.3c0-1.8,2.5-3.5,4.5-3.5c1.3,0,2.3,0.7,2.3,1.7c0,1.7-2.5,3.5-4.6,3.5C383.3,20.1,382.4,19.4,382.4,18.3z"/>
</g>
<rect x="397" y="20.7" width="0.5" height="18"/>
<g>
	<path d="M397.1,20.8c0-1.8,2.5-3.5,4.5-3.5c1.3,0,2.3,0.7,2.3,1.7c0,1.7-2.5,3.5-4.6,3.5C398.1,22.5,397.1,21.9,397.1,20.8z"/>
</g>
<rect x="411.7" y="23.2" width="0.5" height="17.2"/>
<g>
	<path d="M411.8,23.3c0-1.8,2.5-3.5,4.5-3.5c1.3,0,2.3,0.7,2.3,1.7c0,1.7-2.5,3.5-4.6,3.5C412.8,25,411.8,24.4,411.8,23.3z"/>
</g>
<rect x="426.5" y="25.7" width="0.5" height="16.4"/>
<g>
	<path d="M426.5,25.8c0-1.8,2.5-3.5,4.5-3.5c1.3,0,2.3,0.7,2.3,1.7c0,1.7-2.5,3.5-4.6,3.5C427.5,27.5,426.5,26.9,426.5,25.8z"/>
</g>
<rect x="447.7" y="12.7" width="0.5" height="14"/>
<g>
	<path d="M441.3,28.3c0-1.8,2.5-3.5,4.5-3.5c1.3,0,2.3,0.7,2.3,1.7c0,1.7-2.5,3.5-4.6,3.5C442.2,30,441.3,29.3,441.3,28.3z"/>
</g>
<rect x="462.4" y="14.2" width="0.5" height="14.9"/>
<g>
	<path d="M456,30.7c0-1.8,2.5-3.5,4.5-3.5c1.3,0,2.3,0.7,2.3,1.7c0,1.7-2.5,3.5-4.6,3.5C457,32.5,456,31.8,456,30.7z"/>
</g>
<rect x="477.1" y="15.9" width="0.5" height="15.7"/>
<g>
	<path d="M470.7,33.2c0-1.8,2.5-3.5,4.5-3.5c1.3,0,2.3,0.7,2.3,1.7c0,1.7-2.5,3.5-4.6,3.5C471.7,34.9,470.7,34.3,470.7,33.2z"/>
</g>
<rect x="491.9" y="17.6" width="0.5" height="16.4"/>
<g>
	<path d="M485.4,35.7c0-1.8,2.5-3.5,4.5-3.5c1.3,0,2.3,0.7,2.3,1.7c0,1.7-2.5,3.5-4.6,3.5C486.4,37.4,485.4,36.8,485.4,35.7z"/>
</g>
<rect x="506.8" y="20" width="0.5" height="16.6"/>
<g>
	<path d="M504.4,34.6c1.6,0,2.7,0.7,2.7,2c0,1.9-2.3,3.4-4.5,3.4c-1.3,0-2.4-0.7-2.4-1.8C500.2,36.4,502.4,34.6,504.4,34.6z
		 M500.6,38.5c0,0.6,0.4,0.9,1.1,0.9c1.4,0,4.9-2.1,4.9-3.3c0-0.6-0.4-0.9-1.1-0.9C504.3,35.2,500.6,37.2,500.6,38.5z"/>
</g>
<rect x="61.7" y="77.8" width="0.5" height="16.4"/>
<g>
	<path d="M61.8,77.9c0-1.8,2.5-3.5,4.5-3.5c1.3,0,2.3,0.7,2.3,1.7c0,1.7-2.5,3.5-4.6,3.5C62.8,79.6,61.8,78.9,61.8,77.9z"/>
</g>
<rect x="76.4" y="75.3" width="0.5" height="17.4"/>
<g>
	<path d="M76.5,75.4c0-1.8,2.5-3.5,4.5-3.5c1.3,0,2.3,0.7,2.3,1.7c0,1.7-2.5,3.5-4.6,3.5C77.5,77.1,76.5,76.5,76.5,75.4z"/>
</g>
<rect x="91.2" y="72.8" width="0.5" height="18.1"/>
<g>
	<path d="M91.2,72.9c0-1.8,2.5-3.5,4.5-3.5c1.3,0,2.3,0.7,2.3,1.7c0,1.7-2.5,3.5-4.6,3.5C92.2,74.6,91.2,74,91.2,72.9z"/>
</g>
<rect x="105.9" y="70.3" width="0.5" height="18.9"/>
<g>
	<path d="M106,70.4c0-1.8,2.5-3.5,4.5-3.5c1.3,0,2.3,0.7,2.3,1.7c0,1.7-2.5,3.5-4.6,3.5C106.9,72.1,106,71.5,106,70.4z"/>
</g>
<rect x="120.6" y="67.9" width="0.5" height="16.4"/>
<g>
	<path d="M120.7,67.9c0-1.8,2.5-3.5,4.5-3.5c1.3,0,2.3,0.7,2.3,1.7c0,1.7-2.5,3.5-4.6,3.5C121.7,69.7,120.7,69,120.7,67.9z"/>
</g>
<rect x="135.3" y="65.4" width="0.5" height="17.4"/>
<g>
	<path d="M135.4,65.5c0-1.8,2.5-3.5,4.5-3.5c1.3,0,2.3,0.7,2.3,1.7c0,1.7-2.5,3.5-4.6,3.5C136.4,67.2,135.4,66.5,135.4,65.5z"/>
</g>
<rect x="150.1" y="62.9" width="0.5" height="18.1"/>
<g>
	<path d="M150.1,63c0-1.8,2.5-3.5,4.5-3.5c1.3,0,2.3,0.7,2.3,1.7c0,1.7-2.5,3.5-4.6,3.5C151.1,64.7,150.1,64.1,150.1,63z"/>
</g>
<g>
	<path d="M147.7,55.3v2.8l1-0.3v1.8l-1,0.3v3.4l1-0.3v1.8l-1,0.3v3.1h-0.5v-3l-1.9,0.6v3h-0.5v-2.8l-1,0.3v-1.8l1-0.3v-3.4l-1,0.3
		v-1.8l1-0.3v-3.1h0.5v3l1.9-0.6v-3H147.7z M147.2,60.1l-1.9,0.6v3.4l1.9-0.6V60.1z"/>
</g>
<rect x="163" y="59.3" width="10.5" height="0.8"/>
<rect x="164.8" y="60.4" width="0.5" height="18.9"/>
<g>
	<path d="M164.9,60.5c0-1.8,2.5-3.5,4.5-3.5c1.3,0,2.3,0.7,2.3,1.7c0,1.7-2.5,3.5-4.6,3.5C165.8,62.2,164.9,61.6,164.9,60.5z"/>
</g>
<rect x="197.7" y="68.5" width="0.5" height="17.7"/>
<g>
	<path d="M191.2,87.8c0-1.8,2.5-3.5,4.5-3.5c1.3,0,2.3,0.7,2.3,1.7c0,1.7-2.5,3.5-4.6,3.5C192.2,89.5,191.2,88.9,191.2,87.8z"/>
</g>
<rect x="212.4" y="66.9" width="0.5" height="16.7"/>
<g>
	<path d="M205.9,85.3c0-1.8,2.5-3.5,4.5-3.5c1.3,0,2.3,0.7,2.3,1.7c0,1.7-2.5,3.5-4.6,3.5C206.9,87,205.9,86.4,205.9,85.3z"/>
</g>
<rect x="227.1" y="65.4" width="0.5" height="15.8"/>
<g>
	<path d="M220.7,82.8c0-1.8,2.5-3.5,4.5-3.5c1.3,0,2.3,0.7,2.3,1.7c0,1.7-2.5,3.5-4.6,3.5C221.6,84.5,220.7,83.9,220.7,82.8z"/>
</g>
<rect x="244.5" y="63.5" width="0.5" height="15.2"/>
<g>
	<path d="M238,80.3c0-1.8,2.5-3.5,4.5-3.5c1.3,0,2.3,0.7,2.3,1.7c0,1.7-2.5,3.5-4.6,3.5C239,82.1,238,81.4,238,80.3z"/>
</g>
<rect x="252.7" y="77.8" width="0.5" height="15.2"/>
<g>
	<path d="M252.8,77.9c0-1.8,2.5-3.5,4.5-3.5c1.3,0,2.3,0.7,2.3,1.7c0,1.7-2.5,3.5-4.6,3.5C253.7,79.6,252.8,78.9,252.8,77.9z"/>
</g>
<rect x="267.4" y="75.3" width="0.5" height="17.4"/>
<g>
	<path d="M267.5,75.4c0-1.8,2.5-3.5,4.5-3.5c1.3,0,2.3,0.7,2.3,1.7c0,1.7-2.5,3.5-4.6,3.5C268.5,77.1,267.5,76.5,267.5,75.4z"/>
</g>
<g>
	<path d="M265.1,67.7v2.8l1-0.3V72l-1,0.3v3.4l1-0.3v1.8l-1,0.3v3.1h-0.5v-3l-1.9,0.6v3h-0.5v-2.8l-1,0.3V77l1-0.3v-3.4l-1,0.3v-1.8
		l1-0.3v-3.1h0.5v3l1.9-0.6v-3H265.1z M264.6,72.5l-1.9,0.6v3.4l1.9-0.6V72.5z"/>
</g>
<rect x="282.1" y="72.8" width="0.5" height="19.4"/>
<g>
	<path d="M282.2,72.9c0-1.8,2.5-3.5,4.5-3.5c1.3,0,2.3,0.7,2.3,1.7c0,1.7-2.5,3.5-4.6,3.5C283.2,74.6,282.2,74,282.2,72.9z"/>
</g>
<rect x="296.9" y="75.3" width="0.5" height="16.4"/>
<g>
	<path d="M296.9,75.4c0-1.8,2.5-3.5,4.5-3.5c1.3,0,2.3,0.7,2.3,1.7c0,1.7-2.5,3.5-4.6,3.5C297.9,77.1,296.9,76.5,296.9,75.4z"/>
</g>
<rect x="318.1" y="59.8" width="0.5" height="16.4"/>
<g>
	<path d="M311.7,77.9c0-1.8,2.5-3.5,4.5-3.5c1.3,0,2.3,0.7,2.3,1.7c0,1.7-2.5,3.5-4.6,3.5C312.6,79.6,311.7,78.9,311.7,77.9z"/>
</g>
<rect x="332.8" y="61.3" width="0.5" height="17.4"/>
<g>
	<path d="M326.4,80.3c0-1.8,2.5-3.5,4.5-3.5c1.3,0,2.3,0.7,2.3,1.7c0,1.7-2.5,3.5-4.6,3.5C327.4,82.1,326.4,81.4,326.4,80.3z"/>
</g>
<rect x="347.6" y="63.1" width="0.5" height="18.1"/>
<g>
	<path d="M341.1,82.8c0-1.8,2.5-3.5,4.5-3.5c1.3,0,2.3,0.7,2.3,1.7c0,1.7-2.5,3.5-4.6,3.5C342.1,84.5,341.1,83.9,341.1,82.8z"/>
</g>
<rect x="362.4" y="64.8" width="0.5" height="18.9"/>
<g>
	<path d="M356,85.3c0-1.8,2.5-3.5,4.5-3.5c1.3,0,2.3,0.7,2.3,1.7c0,1.7-2.5,3.5-4.6,3.5C357,87,356,86.4,356,85.3z"/>
</g>
<rect x="380.5" y="59.3" width="10.5" height="0.8"/>
<rect x="382.3" y="57.9" width="0.5" height="16.4"/>
<g>
	<path d="M382.4,58c0-1.8,2.5-3.5,4.5-3.5c1.3,0,2.3,0.7,2.3,1.7c0,1.7-2.5,3.5-4.6,3.5C383.3,59.7,382.4,59.1,382.4,58z"/>
</g>
<rect x="395.2" y="59.3" width="10.5" height="0.8"/>
<rect x="397" y="60.4" width="0.5" height="15.5"/>
<g>
	<path d="M397.1,60.5c0-1.8,2.5-3.5,4.5-3.5c1.3,0,2.3,0.7,2.3,1.7c0,1.7-2.5,3.5-4.6,3.5C398.1,62.2,397.1,61.6,397.1,60.5z"/>
</g>
<rect x="411.7" y="62.9" width="0.5" height="14.7"/>
<g>
	<path d="M411.8,63c0-1.8,2.5-3.5,4.5-3.5c1.3,0,2.3,0.7,2.3,1.7c0,1.7-2.5,3.5-4.6,3.5C412.8,64.7,411.8,64.1,411.8,63z"/>
</g>
<rect x="426.5" y="65.4" width="0.5" height="14"/>
<g>
	<path d="M426.5,65.5c0-1.8,2.5-3.5,4.5-3.5c1.3,0,2.3,0.7,2.3,1.7c0,1.7-2.5,3.5-4.6,3.5C427.5,67.2,426.5,66.5,426.5,65.5z"/>
</g>
<rect x="441.2" y="67.9" width="0.5" height="16.4"/>
<g>
	<path d="M441.3,67.9c0-1.8,2.5-3.5,4.5-3.5c1.3,0,2.3,0.7,2.3,1.7c0,1.7-2.5,3.5-4.6,3.5C442.2,69.7,441.3,69,441.3,67.9z"/>
</g>
<rect x="455.9" y="70.3" width="0.5" height="15.5"/>
<g>
	<path d="M456,70.4c0-1.8,2.5-3.5,4.5-3.5c1.3,0,2.3,0.7,2.3,1.7c0,1.7-2.5,3.5-4.6,3.5C457,72.1,456,71.5,456,70.4z"/>
</g>
<rect x="470.6" y="72.8" width="0.5" height="14.7"/>
<g>
	<path d="M470.7,72.9c0-1.8,2.5-3.5,4.5-3.5c1.3,0,2.3,0.7,2.3,1.7c0,1.7-2.5,3.5-4.6,3.5C471.7,74.6,470.7,74,470.7,72.9z"/>
</g>
<rect x="485.4" y="75.3" width="0.5" height="14"/>
<g>
	<path d="M485.4,75.4c0-1.8,2.5-3.5,4.5-3.5c1.3,0,2.3,0.7,2.3,1.7c0,1.7-2.5,3.5-4.6,3.5C486.4,77.1,485.4,76.5,485.4,75.4z"/>
</g>
<rect x="506.8" y="59.6" width="0.5" height="16.6"/>
<g>
	<path d="M504.4,74.3c1.6,0,2.7,0.7,2.7,2c0,1.9-2.3,3.4-4.5,3.4c-1.3,0-2.4-0.7-2.4-1.8C500.2,76.1,502.4,74.3,504.4,74.3z
		 M500.6,78.2c0,0.6,0.4,0.9,1.1,0.9c1.4,0,4.9-2.1,4.9-3.3c0-0.6-0.4-0.9-1.1-0.9C504.3,74.9,500.6,76.9,500.6,78.2z"/>
</g>
</svg>
