<?xml version="1.0" encoding="utf-8"?>

<!--
	ScaleBook
	Copyright (c) Leland Jansen 2015. All rights reserved.
-->

<!DOCTYPE svg PUBLIC "-//W3C//DTD SVG 1.1//EN" "http://www.w3.org/Graphics/SVG/1.1/DTD/svg11.dtd">
<svg version="1.1" id="Layer_1" xmlns="http://www.w3.org/2000/svg" xmlns:xlink="http://www.w3.org/1999/xlink" x="0px" y="0px"
	 viewBox="0 0 552.9 86.6" enable-background="new 0 0 552.9 86.6" xml:space="preserve">
<rect x="8.4" y="9.7" width="0.8" height="67"/>
<g>
	<path d="M7.4,10.4c-1.9,1.1-3.6,5.8-3.6,9.4c0,2.3,1.4,9.9,1.4,12.3c0,5-1.5,8.6-4.6,11.1c3,2.4,4.6,6.1,4.6,11
		c0,2.3-1.4,9.9-1.4,12.3c0,3.8,1.7,8.4,3.6,9.5v0.7c-3.5-2.3-5.8-8.2-5.8-13.1c0-2.1,1.7-9.4,1.7-11.5c0-3.8-1-6.6-2.9-8.2
		C0.1,43.6,0,43.4,0,43.2s0.1-0.4,0.5-0.7c1.9-1.7,2.9-4.2,2.9-7.6c0-2.1-1.7-10-1.7-12.2c0-5.2,2.1-10.4,5.8-13.1V10.4z"/>
</g>
<rect x="547.8" y="9.7" width="0.8" height="67"/>
<rect x="550.4" y="9.7" width="2.5" height="67"/>
<rect x="8.5" y="29.3" width="544.4" height="0.5"/>
<rect x="8.5" y="24.4" width="544.4" height="0.5"/>
<rect x="8.5" y="19.4" width="544.4" height="0.5"/>
<rect x="8.5" y="14.4" width="544.4" height="0.5"/>
<rect x="8.5" y="9.5" width="544.4" height="0.5"/>
<g>
	<path d="M20.3,29.4c-4.2,0-8.1-3.1-8.1-6.9c0-3.2,2.3-6.7,6.8-10.5c-0.3-1.2-0.4-2.4-0.4-3.6c0-3.5,1.2-6.8,3.2-8.5
		c1.8,2.5,2.7,4.9,2.7,7.1c0,2.9-1.3,5.6-4.3,8.1l0.9,4.2c0.5,0,0.8-0.1,0.8-0.1c2.6,0,4.8,2,4.8,4.7c0,1.9-1.4,3.7-3.6,4.8
		c0-0.1,0.9,3.8,0.9,4.3c0,2.5-2.3,4.2-4.9,4.2c-2,0-3.6-1.3-3.6-3.4c0-1.4,1-2.6,2.4-2.6c1.3,0,2.3,1.3,2.3,2.5
		c0,1.4-1.2,2.3-2.7,2.5c0.6,0.3,1.2,0.5,1.9,0.5c2.1,0,4.1-1.6,4.1-3.6c0-0.2,0-0.4-0.1-0.6l-0.8-3.7
		C21.9,29.3,21.2,29.4,20.3,29.4z M18.1,24.2c0,1,0.5,1.9,1.6,2.5c-1.8-0.3-3-1.4-3-3.1c0-2,1.7-3.7,3.8-4.1l-0.8-4
		C16,18.3,14,21,14,23.6c0,2.9,2.8,5.3,6,5.3c0.9,0,1.7-0.2,2.4-0.5L21,21.6C19.4,21.8,18.1,22.8,18.1,24.2z M22.1,2.8
		c-1.6,0-2.9,3.7-2.9,7c0,0.7,0,1.3,0.2,1.9c2.7-2.4,4-4.5,4-6.5c0-0.9-0.3-1.7-1-2.4C22.4,2.9,22.3,2.8,22.1,2.8z M24.9,24.7
		c0-1.6-1.2-3.3-2.9-3.3c-0.1,0-0.2,0-0.5,0l1.4,6.6C24.2,27.2,24.9,26,24.9,24.7z"/>
</g>
<g>
	<path d="M29.5,11.3h0.6L30,17.6c0.4-0.7,1-1,1.8-1c1.2,0,2.2,0.8,2.2,1.9c0,0.8-0.5,1.8-1.7,2.7l-2.8,2.1V11.3z M30.1,18.2
		C30,19,30,19.6,30,20.2c0,1,0,1.6,0.1,2c1-0.7,2.4-2.6,2.4-3.7c0-0.6-0.5-1.1-1.1-1.1C30.8,17.4,30.4,17.7,30.1,18.2z"/>
</g>
<g>
	<path d="M35.1,3.9h0.6l-0.1,6.2c0.4-0.7,1-1,1.8-1c1.2,0,2.2,0.8,2.2,1.9c0,0.8-0.5,1.8-1.7,2.7l-2.8,2.1V3.9z M35.7,10.8
		c-0.1,0.8-0.1,1.4-0.1,1.9c0,1,0,1.6,0.1,2c1-0.7,2.4-2.6,2.4-3.7c0-0.6-0.5-1.1-1.1-1.1C36.4,10,36,10.2,35.7,10.8z"/>
</g>
<g>
	<path d="M40.7,13.8h0.6l-0.1,6.2c0.4-0.7,1-1,1.8-1c1.2,0,2.2,0.8,2.2,1.9c0,0.8-0.5,1.8-1.7,2.7l-2.8,2.1V13.8z M41.3,20.7
		c-0.1,0.8-0.1,1.4-0.1,1.9c0,1,0,1.6,0.1,2c1-0.7,2.4-2.6,2.4-3.7c0-0.6-0.5-1.1-1.1-1.1C42,19.9,41.6,20.2,41.3,20.7z"/>
</g>
<g>
	<path d="M46.3,6.4h0.6l-0.1,6.2c0.4-0.7,1-1,1.8-1c1.2,0,2.2,0.8,2.2,1.9c0,0.8-0.5,1.8-1.7,2.7l-2.8,2.1V6.4z M46.9,13.3
		c-0.1,0.8-0.1,1.4-0.1,1.9c0,1,0,1.6,0.1,2c1-0.7,2.4-2.6,2.4-3.7c0-0.6-0.5-1.1-1.1-1.1C47.6,12.4,47.2,12.7,46.9,13.3z"/>
</g>
<polygon fill-rule="evenodd" clip-rule="evenodd" points="66,25.8 112.9,20.9 112.9,18.4 66,23.4 "/>
<polygon fill-rule="evenodd" clip-rule="evenodd" points="66,22.1 112.9,17.2 112.9,14.7 66,19.6 "/>
<polygon fill-rule="evenodd" clip-rule="evenodd" points="128.4,15.9 175.4,11 175.4,8.5 128.4,13.4 "/>
<polygon fill-rule="evenodd" clip-rule="evenodd" points="128.4,12.2 175.4,7.2 175.4,4.8 128.4,9.7 "/>
<polygon fill-rule="evenodd" clip-rule="evenodd" points="184.6,30.8 231.4,25.8 231.4,23.4 184.6,28.3 "/>
<polygon fill-rule="evenodd" clip-rule="evenodd" points="184.6,34.5 231.4,29.6 231.4,27.1 184.6,32 "/>
<polygon fill-rule="evenodd" clip-rule="evenodd" points="247,22.1 294.3,20.9 294.3,18.4 247,19.6 "/>
<polygon fill-rule="evenodd" clip-rule="evenodd" points="247,25.8 294.3,24.6 294.3,22.1 247,23.4 "/>
<polygon fill-rule="evenodd" clip-rule="evenodd" points="310,25.8 356.8,30.8 356.8,28.3 310,23.4 "/>
<polygon fill-rule="evenodd" clip-rule="evenodd" points="310,29.6 356.8,34.5 356.8,32 310,27.1 "/>
<polygon fill-rule="evenodd" clip-rule="evenodd" points="378.9,11 425.9,15.9 425.9,13.4 378.9,8.5 "/>
<polygon fill-rule="evenodd" clip-rule="evenodd" points="378.9,7.2 425.9,12.2 425.9,9.7 378.9,4.8 "/>
<polygon fill-rule="evenodd" clip-rule="evenodd" points="441.6,20.9 488.4,25.8 488.4,23.4 441.6,18.4 "/>
<polygon fill-rule="evenodd" clip-rule="evenodd" points="441.6,17.2 488.4,22.1 488.4,19.6 441.6,14.7 "/>
<rect x="8.5" y="76.4" width="544.4" height="0.5"/>
<rect x="8.5" y="71.5" width="544.4" height="0.5"/>
<rect x="8.5" y="66.5" width="544.4" height="0.5"/>
<rect x="8.5" y="61.6" width="544.4" height="0.5"/>
<rect x="8.5" y="56.6" width="544.4" height="0.5"/>
<g>
	<path d="M15.7,71c2.9-2.6,4.7-6.1,4.7-9.2c0-2.5-1.4-4.4-3.7-4.4c-1.6,0-3.4,1.3-3.4,2.7c0,0.2,0,0.3,0.1,0.3
		c-0.1,0,0.6-0.6,1.4-0.6c0.9,0,1.5,0.8,1.5,1.7c0,1.2-0.9,2.2-2.1,2.2c-1.2,0-2.1-1.3-2.1-2.8c0-2.3,2.3-4.1,4.8-4.1
		c4.7,0,5.9,3.2,5.9,5.8c0,1.6-0.4,2.9-2,5.3c-1.9,3.1-6.4,5.3-8.1,5.3c-0.4,0-0.6-0.2-0.6-0.5C13.8,72.3,14.9,71.7,15.7,71z
		 M25.7,58.3c0.6,0,1,0.4,1,1s-0.4,1-1,1s-1-0.4-1-1S25.1,58.3,25.7,58.3z M25.7,63.3c0.6,0,1,0.4,1,1c0,0.6-0.4,1-1,1s-1-0.4-1-1
		C24.7,63.7,25.1,63.3,25.7,63.3z"/>
</g>
<g>
	<path d="M29.5,63.4h0.6L30,69.7c0.4-0.7,1-1,1.8-1c1.2,0,2.2,0.8,2.2,1.9c0,0.8-0.5,1.8-1.7,2.7l-2.8,2.1V63.4z M30.1,70.3
		C30,71.1,30,71.7,30,72.3c0,1,0,1.6,0.1,2c1-0.7,2.4-2.6,2.4-3.7c0-0.6-0.5-1.1-1.1-1.1C30.8,69.5,30.4,69.8,30.1,70.3z"/>
</g>
<g>
	<path d="M35.1,56h0.6l-0.1,6.2c0.4-0.7,1-1,1.8-1c1.2,0,2.2,0.8,2.2,1.9c0,0.8-0.5,1.8-1.7,2.7l-2.8,2.1V56z M35.7,62.9
		c-0.1,0.8-0.1,1.4-0.1,1.9c0,1,0,1.6,0.1,2c1-0.7,2.4-2.6,2.4-3.7c0-0.6-0.5-1.1-1.1-1.1C36.4,62,36,62.3,35.7,62.9z"/>
</g>
<g>
	<path d="M40.7,65.9h0.6l-0.1,6.2c0.4-0.7,1-1,1.8-1c1.2,0,2.2,0.8,2.2,1.9c0,0.8-0.5,1.8-1.7,2.7l-2.8,2.1V65.9z M41.3,72.8
		c-0.1,0.8-0.1,1.4-0.1,1.9c0,1,0,1.6,0.1,2c1-0.7,2.4-2.6,2.4-3.7c0-0.6-0.5-1.1-1.1-1.1C42,72,41.6,72.2,41.3,72.8z"/>
</g>
<g>
	<path d="M46.3,58.4h0.6l-0.1,6.2c0.4-0.7,1-1,1.8-1c1.2,0,2.2,0.8,2.2,1.9c0,0.8-0.5,1.8-1.7,2.7l-2.8,2.1V58.4z M46.9,65.4
		c-0.1,0.8-0.1,1.4-0.1,1.9c0,1,0,1.6,0.1,2c1-0.7,2.4-2.6,2.4-3.7c0-0.6-0.5-1.1-1.1-1.1C47.6,64.5,47.2,64.8,46.9,65.4z"/>
</g>
<polygon fill-rule="evenodd" clip-rule="evenodd" points="66,68 112.9,63 112.9,60.6 66,65.5 "/>
<polygon fill-rule="evenodd" clip-rule="evenodd" points="66,64.3 112.9,59.3 112.9,56.8 66,61.8 "/>
<polygon fill-rule="evenodd" clip-rule="evenodd" points="121.9,82.9 168.9,77.9 168.9,75.4 121.9,80.4 "/>
<polygon fill-rule="evenodd" clip-rule="evenodd" points="121.9,86.6 168.9,81.6 168.9,79.2 121.9,84.1 "/>
<polygon fill-rule="evenodd" clip-rule="evenodd" points="184.6,73 231.4,68 231.4,65.5 184.6,70.5 "/>
<polygon fill-rule="evenodd" clip-rule="evenodd" points="184.6,76.7 231.4,71.7 231.4,69.2 184.6,74.2 "/>
<polygon fill-rule="evenodd" clip-rule="evenodd" points="247,64.3 294.3,63 294.3,60.6 247,61.8 "/>
<polygon fill-rule="evenodd" clip-rule="evenodd" points="247,68 294.3,66.8 294.3,64.3 247,65.5 "/>
<polygon fill-rule="evenodd" clip-rule="evenodd" points="310,63 356.8,68 356.8,65.5 310,60.6 "/>
<polygon fill-rule="evenodd" clip-rule="evenodd" points="310,66.8 356.8,71.7 356.8,69.2 310,64.3 "/>
<polygon fill-rule="evenodd" clip-rule="evenodd" points="372.4,73 419.4,77.9 419.4,75.4 372.4,70.5 "/>
<polygon fill-rule="evenodd" clip-rule="evenodd" points="372.4,76.7 419.4,81.6 419.4,79.2 372.4,74.2 "/>
<polygon fill-rule="evenodd" clip-rule="evenodd" points="441.6,58.1 488.4,63 488.4,60.6 441.6,55.6 "/>
<polygon fill-rule="evenodd" clip-rule="evenodd" points="441.6,54.4 488.4,59.3 488.4,56.8 441.6,51.9 "/>
<rect x="57.4" y="34.1" width="10.5" height="0.8"/>
<rect x="57.4" y="39.1" width="10.5" height="0.8"/>
<rect x="65.7" y="19.8" width="0.5" height="18.9"/>
<g>
	<path d="M59.3,40.3c0-1.8,2.5-3.5,4.5-3.5c1.3,0,2.3,0.7,2.3,1.7c0,1.7-2.5,3.5-4.6,3.5C60.3,42.1,59.3,41.4,59.3,40.3z"/>
</g>
<rect x="73.1" y="34.1" width="10.5" height="0.8"/>
<rect x="81.4" y="18.2" width="0.5" height="18"/>
<g>
	<path d="M75,37.9c0-1.8,2.5-3.5,4.5-3.5c1.3,0,2.3,0.7,2.3,1.7c0,1.7-2.5,3.5-4.6,3.5C75.9,39.6,75,38.9,75,37.9z"/>
</g>
<rect x="88.8" y="34.1" width="10.5" height="0.8"/>
<rect x="97.1" y="16.5" width="0.5" height="17.2"/>
<g>
	<path d="M90.6,35.4c0-1.8,2.5-3.5,4.5-3.5c1.3,0,2.3,0.7,2.3,1.7c0,1.7-2.5,3.5-4.6,3.5C91.6,37.1,90.6,36.5,90.6,35.4z"/>
</g>
<rect x="112.7" y="14.8" width="0.5" height="16.4"/>
<g>
	<path d="M106.3,32.9c0-1.8,2.5-3.5,4.5-3.5c1.3,0,2.3,0.7,2.3,1.7c0,1.7-2.5,3.5-4.6,3.5C107.2,34.6,106.3,34,106.3,32.9z"/>
</g>
<rect x="128.2" y="9.9" width="0.5" height="18.9"/>
<g>
	<path d="M121.8,30.4c0-1.8,2.5-3.5,4.5-3.5c1.3,0,2.3,0.7,2.3,1.7c0,1.7-2.5,3.5-4.6,3.5C122.7,32.1,121.8,31.5,121.8,30.4z"/>
</g>
<g>
	<path d="M119.9,36.3v-4l-3,1.1V22.8h0.5v4l3-1.1v10.7H119.9z M117.3,31.7l2.5-0.9v-3.3l-2.5,0.9V31.7z"/>
</g>
<rect x="143.9" y="8.3" width="0.5" height="18"/>
<g>
	<path d="M137.4,27.9c0-1.8,2.5-3.5,4.5-3.5c1.3,0,2.3,0.7,2.3,1.7c0,1.7-2.5,3.5-4.6,3.5C138.4,29.7,137.4,29,137.4,27.9z"/>
</g>
<rect x="159.5" y="6.6" width="0.5" height="17.2"/>
<g>
	<path d="M153.1,25.5c0-1.8,2.5-3.5,4.5-3.5c1.3,0,2.3,0.7,2.3,1.7c0,1.7-2.5,3.5-4.6,3.5C154.1,27.2,153.1,26.5,153.1,25.5z"/>
</g>
<rect x="175.2" y="4.9" width="0.5" height="16.4"/>
<g>
	<path d="M168.7,23c0-1.8,2.5-3.5,4.5-3.5c1.3,0,2.3,0.7,2.3,1.7c0,1.7-2.5,3.5-4.6,3.5C169.7,24.7,168.7,24.1,168.7,23z"/>
</g>
<rect x="184.3" y="20.4" width="0.5" height="14"/>
<g>
	<path d="M184.4,20.5c0-1.8,2.5-3.5,4.5-3.5c1.3,0,2.3,0.7,2.3,1.7c0,1.7-2.5,3.5-4.6,3.5C185.4,22.2,184.4,21.6,184.4,20.5z"/>
</g>
<rect x="200" y="17.9" width="0.5" height="14.9"/>
<g>
	<path d="M200.1,18c0-1.8,2.5-3.5,4.5-3.5c1.3,0,2.3,0.7,2.3,1.7c0,1.7-2.5,3.5-4.6,3.5C201,19.7,200.1,19.1,200.1,18z"/>
</g>
<rect x="215.5" y="15.5" width="0.5" height="15.7"/>
<g>
	<path d="M215.6,15.5c0-1.8,2.5-3.5,4.5-3.5c1.3,0,2.3,0.7,2.3,1.7c0,1.7-2.5,3.5-4.6,3.5C216.5,17.3,215.6,16.6,215.6,15.5z"/>
</g>
<rect x="231.1" y="13" width="0.5" height="16.4"/>
<g>
	<path d="M231.2,13c0-1.8,2.5-3.5,4.5-3.5c1.3,0,2.3,0.7,2.3,1.7c0,1.7-2.5,3.5-4.6,3.5C232.2,14.8,231.2,14.1,231.2,13z"/>
</g>
<g>
	<path d="M229.3,19v-4l-3,1.1V5.4h0.5v4l3-1.1V19H229.3z M226.8,14.3l2.5-0.9v-3.3l-2.5,0.9V14.3z"/>
</g>
<rect x="246.8" y="10.5" width="0.5" height="15.2"/>
<g>
	<path d="M246.9,10.6c0-1.8,2.5-3.5,4.5-3.5c1.3,0,2.3,0.7,2.3,1.7c0,1.7-2.5,3.5-4.6,3.5C247.8,12.3,246.9,11.7,246.9,10.6z"/>
</g>
<rect x="262.8" y="8" width="0.5" height="17.4"/>
<g>
	<path d="M262.8,8.1c0-1.8,2.5-3.5,4.5-3.5c1.3,0,2.3,0.7,2.3,1.7c0,1.7-2.5,3.5-4.6,3.5C263.8,9.8,262.8,9.2,262.8,8.1z"/>
</g>
<rect x="276.6" y="4.4" width="10.5" height="0.8"/>
<rect x="278.4" y="5.5" width="0.5" height="19.4"/>
<g>
	<path d="M278.5,5.6c0-1.8,2.5-3.5,4.5-3.5c1.3,0,2.3,0.7,2.3,1.7c0,1.7-2.5,3.5-4.6,3.5C279.5,7.3,278.5,6.7,278.5,5.6z"/>
</g>
<rect x="294.1" y="8" width="0.5" height="16.4"/>
<g>
	<path d="M294.2,8.1c0-1.8,2.5-3.5,4.5-3.5c1.3,0,2.3,0.7,2.3,1.7c0,1.7-2.5,3.5-4.6,3.5C295.1,9.8,294.2,9.2,294.2,8.1z"/>
</g>
<rect x="309.7" y="10.5" width="0.5" height="18.9"/>
<g>
	<path d="M309.8,10.6c0-1.8,2.5-3.5,4.5-3.5c1.3,0,2.3,0.7,2.3,1.7c0,1.7-2.5,3.5-4.6,3.5C310.8,12.3,309.8,11.7,309.8,10.6z"/>
</g>
<rect x="325.4" y="13" width="0.5" height="18"/>
<g>
	<path d="M325.5,13c0-1.8,2.5-3.5,4.5-3.5c1.3,0,2.3,0.7,2.3,1.7c0,1.7-2.5,3.5-4.6,3.5C326.4,14.8,325.5,14.1,325.5,13z"/>
</g>
<rect x="340.9" y="15.5" width="0.5" height="17.2"/>
<g>
	<path d="M341,15.5c0-1.8,2.5-3.5,4.5-3.5c1.3,0,2.3,0.7,2.3,1.7c0,1.7-2.5,3.5-4.6,3.5C341.9,17.3,341,16.6,341,15.5z"/>
</g>
<rect x="356.5" y="17.9" width="0.5" height="16.4"/>
<g>
	<path d="M356.6,18c0-1.8,2.5-3.5,4.5-3.5c1.3,0,2.3,0.7,2.3,1.7c0,1.7-2.5,3.5-4.6,3.5C357.6,19.7,356.6,19.1,356.6,18z"/>
</g>
<rect x="378.7" y="4.9" width="0.5" height="14"/>
<g>
	<path d="M372.3,20.5c0-1.8,2.5-3.5,4.5-3.5c1.3,0,2.3,0.7,2.3,1.7c0,1.7-2.5,3.5-4.6,3.5C373.3,22.2,372.3,21.6,372.3,20.5z"/>
</g>
<rect x="394.4" y="6.5" width="0.5" height="14.9"/>
<g>
	<path d="M387.9,23c0-1.8,2.5-3.5,4.5-3.5c1.3,0,2.3,0.7,2.3,1.7c0,1.7-2.5,3.5-4.6,3.5C388.9,24.7,387.9,24.1,387.9,23z"/>
</g>
<rect x="410" y="8.2" width="0.5" height="15.7"/>
<g>
	<path d="M403.6,25.5c0-1.8,2.5-3.5,4.5-3.5c1.3,0,2.3,0.7,2.3,1.7c0,1.7-2.5,3.5-4.6,3.5C404.6,27.2,403.6,26.5,403.6,25.5z"/>
</g>
<rect x="425.7" y="9.9" width="0.5" height="16.4"/>
<g>
	<path d="M419.2,27.9c0-1.8,2.5-3.5,4.5-3.5c1.3,0,2.3,0.7,2.3,1.7c0,1.7-2.5,3.5-4.6,3.5C420.2,29.7,419.2,29,419.2,27.9z"/>
</g>
<rect x="441.3" y="14.8" width="0.5" height="14"/>
<g>
	<path d="M434.9,30.4c0-1.8,2.5-3.5,4.5-3.5c1.3,0,2.3,0.7,2.3,1.7c0,1.7-2.5,3.5-4.6,3.5C435.9,32.1,434.9,31.5,434.9,30.4z"/>
</g>
<rect x="456.8" y="16.4" width="0.5" height="14.9"/>
<g>
	<path d="M450.4,32.9c0-1.8,2.5-3.5,4.5-3.5c1.3,0,2.3,0.7,2.3,1.7c0,1.7-2.5,3.5-4.6,3.5C451.4,34.6,450.4,34,450.4,32.9z"/>
</g>
<rect x="464.2" y="34.1" width="10.5" height="0.8"/>
<rect x="472.5" y="18.1" width="0.5" height="15.7"/>
<g>
	<path d="M466.1,35.4c0-1.8,2.5-3.5,4.5-3.5c1.3,0,2.3,0.7,2.3,1.7c0,1.7-2.5,3.5-4.6,3.5C467,37.1,466.1,36.5,466.1,35.4z"/>
</g>
<rect x="479.9" y="34.1" width="10.5" height="0.8"/>
<rect x="488.2" y="19.8" width="0.5" height="16.4"/>
<g>
	<path d="M481.7,37.9c0-1.8,2.5-3.5,4.5-3.5c1.3,0,2.3,0.7,2.3,1.7c0,1.7-2.5,3.5-4.6,3.5C482.7,39.6,481.7,38.9,481.7,37.9z"/>
</g>
<rect x="495.5" y="34.1" width="10.7" height="0.8"/>
<rect x="495.5" y="39.1" width="10.7" height="0.8"/>
<rect x="504" y="19.6" width="0.5" height="19.1"/>
<g>
	<path d="M501.6,36.8c1.6,0,2.7,0.7,2.7,2c0,1.9-2.3,3.4-4.5,3.4c-1.3,0-2.4-0.7-2.4-1.8C497.4,38.6,499.6,36.8,501.6,36.8z
		 M497.8,40.6c0,0.6,0.4,0.9,1.1,0.9c1.4,0,4.9-2.1,4.9-3.3c0-0.6-0.4-0.9-1.1-0.9C501.5,37.4,497.8,39.4,497.8,40.6z"/>
</g>
<rect x="65.7" y="62" width="0.5" height="16.4"/>
<g>
	<path d="M59.3,80c0-1.8,2.5-3.5,4.5-3.5c1.3,0,2.3,0.7,2.3,1.7c0,1.7-2.5,3.5-4.6,3.5C60.3,81.7,59.3,81.1,59.3,80z"/>
</g>
<rect x="81.4" y="60.4" width="0.5" height="15.5"/>
<g>
	<path d="M75,77.5c0-1.8,2.5-3.5,4.5-3.5c1.3,0,2.3,0.7,2.3,1.7c0,1.7-2.5,3.5-4.6,3.5C75.9,79.3,75,78.6,75,77.5z"/>
</g>
<rect x="97.1" y="58.7" width="0.5" height="14.7"/>
<g>
	<path d="M90.6,75.1c0-1.8,2.5-3.5,4.5-3.5c1.3,0,2.3,0.7,2.3,1.7c0,1.7-2.5,3.5-4.6,3.5C91.6,76.8,90.6,76.1,90.6,75.1z"/>
</g>
<rect x="112.7" y="57" width="0.5" height="14"/>
<g>
	<path d="M106.3,72.6c0-1.8,2.5-3.5,4.5-3.5c1.3,0,2.3,0.7,2.3,1.7c0,1.7-2.5,3.5-4.6,3.5C107.2,74.3,106.3,73.7,106.3,72.6z"/>
</g>
<rect x="121.7" y="70" width="0.5" height="16.4"/>
<g>
	<path d="M121.8,70.1c0-1.8,2.5-3.5,4.5-3.5c1.3,0,2.3,0.7,2.3,1.7c0,1.7-2.5,3.5-4.6,3.5C122.7,71.8,121.8,71.2,121.8,70.1z"/>
</g>
<rect x="137.4" y="67.5" width="0.5" height="17.4"/>
<g>
	<path d="M137.4,67.6c0-1.8,2.5-3.5,4.5-3.5c1.3,0,2.3,0.7,2.3,1.7c0,1.7-2.5,3.5-4.6,3.5C138.4,69.3,137.4,68.7,137.4,67.6z"/>
</g>
<rect x="153" y="65.1" width="0.5" height="18.1"/>
<g>
	<path d="M153.1,65.1c0-1.8,2.5-3.5,4.5-3.5c1.3,0,2.3,0.7,2.3,1.7c0,1.7-2.5,3.5-4.6,3.5C154.1,66.9,153.1,66.2,153.1,65.1z"/>
</g>
<g>
	<path d="M151.2,71v-4l-3,1.1V57.5h0.5v4l3-1.1V71H151.2z M148.6,66.4l2.5-0.9v-3.3l-2.5,0.9V66.4z"/>
</g>
<rect x="168.7" y="62.6" width="0.5" height="18.9"/>
<g>
	<path d="M168.7,62.7c0-1.8,2.5-3.5,4.5-3.5c1.3,0,2.3,0.7,2.3,1.7c0,1.7-2.5,3.5-4.6,3.5C169.7,64.4,168.7,63.7,168.7,62.7z"/>
</g>
<rect x="184.3" y="60.1" width="0.5" height="16.4"/>
<g>
	<path d="M184.4,60.2c0-1.8,2.5-3.5,4.5-3.5c1.3,0,2.3,0.7,2.3,1.7c0,1.7-2.5,3.5-4.6,3.5C185.4,61.9,184.4,61.3,184.4,60.2z"/>
</g>
<rect x="200" y="57.6" width="0.5" height="17.4"/>
<g>
	<path d="M200.1,57.7c0-1.8,2.5-3.5,4.5-3.5c1.3,0,2.3,0.7,2.3,1.7c0,1.7-2.5,3.5-4.6,3.5C201,59.4,200.1,58.8,200.1,57.7z"/>
</g>
<rect x="215.5" y="55.1" width="0.5" height="18.1"/>
<g>
	<path d="M215.6,55.2c0-1.8,2.5-3.5,4.5-3.5c1.3,0,2.3,0.7,2.3,1.7c0,1.7-2.5,3.5-4.6,3.5C216.5,56.9,215.6,56.3,215.6,55.2z"/>
</g>
<rect x="229.4" y="51.5" width="10.5" height="0.8"/>
<rect x="231.1" y="52.7" width="0.5" height="18.9"/>
<g>
	<path d="M231.2,52.7c0-1.8,2.5-3.5,4.5-3.5c1.3,0,2.3,0.7,2.3,1.7c0,1.7-2.5,3.5-4.6,3.5C232.2,54.5,231.2,53.8,231.2,52.7z"/>
</g>
<rect x="245" y="51.5" width="10.5" height="0.8"/>
<rect x="246.8" y="50.2" width="0.5" height="17.7"/>
<g>
	<path d="M246.9,50.3c0-1.8,2.5-3.5,4.5-3.5c1.3,0,2.3,0.7,2.3,1.7c0,1.7-2.5,3.5-4.6,3.5C247.8,52,246.9,51.3,246.9,50.3z"/>
</g>
<rect x="261" y="51.5" width="10.5" height="0.8"/>
<rect x="261" y="46.5" width="10.5" height="0.8"/>
<rect x="262.8" y="47.7" width="0.5" height="19.8"/>
<g>
	<path d="M262.8,47.8c0-1.8,2.5-3.5,4.5-3.5c1.3,0,2.3,0.7,2.3,1.7c0,1.7-2.5,3.5-4.6,3.5C263.8,49.5,262.8,48.9,262.8,47.8z"/>
</g>
<g>
	<path d="M259.7,53.7v-4l-3,1.1V40.1h0.5v4l3-1.1v10.7H259.7z M257.1,49l2.5-0.9v-3.3l-2.5,0.9V49z"/>
</g>
<rect x="276.6" y="51.5" width="10.5" height="0.8"/>
<rect x="276.6" y="46.5" width="10.5" height="0.8"/>
<rect x="278.4" y="45.2" width="0.5" height="21.9"/>
<g>
	<path d="M278.5,45.3c0-1.8,2.5-3.5,4.5-3.5c1.3,0,2.3,0.7,2.3,1.7c0,1.7-2.5,3.5-4.6,3.5C279.5,47,278.5,46.4,278.5,45.3z"/>
</g>
<rect x="292.3" y="51.5" width="10.5" height="0.8"/>
<rect x="292.3" y="46.5" width="10.5" height="0.8"/>
<rect x="294.1" y="47.7" width="0.5" height="18.9"/>
<g>
	<path d="M294.2,47.8c0-1.8,2.5-3.5,4.5-3.5c1.3,0,2.3,0.7,2.3,1.7c0,1.7-2.5,3.5-4.6,3.5C295.1,49.5,294.2,48.9,294.2,47.8z"/>
</g>
<rect x="307.9" y="51.5" width="10.5" height="0.8"/>
<rect x="309.7" y="50.2" width="0.5" height="16.4"/>
<g>
	<path d="M309.8,50.3c0-1.8,2.5-3.5,4.5-3.5c1.3,0,2.3,0.7,2.3,1.7c0,1.7-2.5,3.5-4.6,3.5C310.8,52,309.8,51.3,309.8,50.3z"/>
</g>
<rect x="323.6" y="51.5" width="10.5" height="0.8"/>
<rect x="325.4" y="52.7" width="0.5" height="15.5"/>
<g>
	<path d="M325.5,52.7c0-1.8,2.5-3.5,4.5-3.5c1.3,0,2.3,0.7,2.3,1.7c0,1.7-2.5,3.5-4.6,3.5C326.4,54.5,325.5,53.8,325.5,52.7z"/>
</g>
<rect x="340.9" y="55.1" width="0.5" height="14.7"/>
<g>
	<path d="M341,55.2c0-1.8,2.5-3.5,4.5-3.5c1.3,0,2.3,0.7,2.3,1.7c0,1.7-2.5,3.5-4.6,3.5C341.9,56.9,341,56.3,341,55.2z"/>
</g>
<rect x="356.5" y="57.6" width="0.5" height="14"/>
<g>
	<path d="M356.6,57.7c0-1.8,2.5-3.5,4.5-3.5c1.3,0,2.3,0.7,2.3,1.7c0,1.7-2.5,3.5-4.6,3.5C357.6,59.4,356.6,58.8,356.6,57.7z"/>
</g>
<rect x="372.2" y="60.1" width="0.5" height="16.4"/>
<g>
	<path d="M372.3,60.2c0-1.8,2.5-3.5,4.5-3.5c1.3,0,2.3,0.7,2.3,1.7c0,1.7-2.5,3.5-4.6,3.5C373.3,61.9,372.3,61.3,372.3,60.2z"/>
</g>
<rect x="387.9" y="62.6" width="0.5" height="15.5"/>
<g>
	<path d="M387.9,62.7c0-1.8,2.5-3.5,4.5-3.5c1.3,0,2.3,0.7,2.3,1.7c0,1.7-2.5,3.5-4.6,3.5C388.9,64.4,387.9,63.7,387.9,62.7z"/>
</g>
<rect x="403.5" y="65.1" width="0.5" height="14.7"/>
<g>
	<path d="M403.6,65.1c0-1.8,2.5-3.5,4.5-3.5c1.3,0,2.3,0.7,2.3,1.7c0,1.7-2.5,3.5-4.6,3.5C404.6,66.9,403.6,66.2,403.6,65.1z"/>
</g>
<rect x="419.2" y="67.5" width="0.5" height="14"/>
<g>
	<path d="M419.2,67.6c0-1.8,2.5-3.5,4.5-3.5c1.3,0,2.3,0.7,2.3,1.7c0,1.7-2.5,3.5-4.6,3.5C420.2,69.3,419.2,68.7,419.2,67.6z"/>
</g>
<rect x="441.3" y="52" width="0.5" height="16.4"/>
<g>
	<path d="M434.9,70.1c0-1.8,2.5-3.5,4.5-3.5c1.3,0,2.3,0.7,2.3,1.7c0,1.7-2.5,3.5-4.6,3.5C435.9,71.8,434.9,71.2,434.9,70.1z"/>
</g>
<rect x="456.8" y="53.6" width="0.5" height="17.4"/>
<g>
	<path d="M450.4,72.6c0-1.8,2.5-3.5,4.5-3.5c1.3,0,2.3,0.7,2.3,1.7c0,1.7-2.5,3.5-4.6,3.5C451.4,74.3,450.4,73.7,450.4,72.6z"/>
</g>
<rect x="472.5" y="55.3" width="0.5" height="18.1"/>
<g>
	<path d="M466.1,75.1c0-1.8,2.5-3.5,4.5-3.5c1.3,0,2.3,0.7,2.3,1.7c0,1.7-2.5,3.5-4.6,3.5C467,76.8,466.1,76.1,466.1,75.1z"/>
</g>
<rect x="488.2" y="57" width="0.5" height="18.9"/>
<g>
	<path d="M481.7,77.5c0-1.8,2.5-3.5,4.5-3.5c1.3,0,2.3,0.7,2.3,1.7c0,1.7-2.5,3.5-4.6,3.5C482.7,79.3,481.7,78.6,481.7,77.5z"/>
</g>
<rect x="504" y="61.8" width="0.5" height="16.6"/>
<g>
	<path d="M501.6,76.5c1.6,0,2.7,0.7,2.7,2c0,1.9-2.3,3.4-4.5,3.4c-1.3,0-2.4-0.7-2.4-1.8C497.4,78.2,499.6,76.5,501.6,76.5z
		 M497.8,80.3c0,0.6,0.4,0.9,1.1,0.9c1.4,0,4.9-2.1,4.9-3.3c0-0.6-0.4-0.9-1.1-0.9C501.5,77.1,497.8,79.1,497.8,80.3z"/>
</g>
</svg>
