<?xml version="1.0" encoding="utf-8"?>

<!--
	ScaleBook
	Copyright (c) Leland Jansen 2015. All rights reserved.
-->

<!DOCTYPE svg PUBLIC "-//W3C//DTD SVG 1.1//EN" "http://www.w3.org/Graphics/SVG/1.1/DTD/svg11.dtd">
<svg version="1.1" id="Layer_1" xmlns="http://www.w3.org/2000/svg" xmlns:xlink="http://www.w3.org/1999/xlink" x="0px" y="0px"
	 viewBox="0 0 553 94.6" enable-background="new 0 0 553 94.6" xml:space="preserve">
<rect x="8.5" y="9.9" width="0.8" height="71"/>
<g>
	<path d="M7.6,10.6c-2,1.1-3.7,6.1-3.7,10c0,2.4,1.4,10.5,1.4,13c0,5.3-1.6,9.2-4.7,11.8c3.1,2.6,4.7,6.5,4.7,11.7
		c0,2.4-1.4,10.5-1.4,13c0,4,1.8,8.9,3.7,10.1v0.7C4,78.5,1.7,72.2,1.7,67.1c0-2.3,1.8-9.9,1.8-12.2c0-4-1-7-3-8.7
		C0.1,45.8,0,45.6,0,45.4c0-0.2,0.1-0.4,0.5-0.7c2-1.8,3-4.5,3-8c0-2.3-1.8-10.7-1.8-12.9c0-5.5,2.1-11,5.9-13.8V10.6z"/>
</g>
<rect x="548" y="9.9" width="0.8" height="71"/>
<rect x="550.5" y="9.9" width="2.5" height="71"/>
<rect x="8.6" y="29.5" width="544.4" height="0.5"/>
<rect x="8.6" y="24.6" width="544.4" height="0.5"/>
<rect x="8.6" y="19.6" width="544.4" height="0.5"/>
<rect x="8.6" y="14.6" width="544.4" height="0.5"/>
<rect x="8.6" y="9.7" width="544.4" height="0.5"/>
<g>
	<path d="M20.4,29.6c-4.2,0-8.1-3.1-8.1-6.9c0-3.2,2.3-6.7,6.8-10.5c-0.3-1.2-0.4-2.4-0.4-3.6c0-3.5,1.2-6.8,3.2-8.5
		c1.8,2.5,2.7,4.9,2.7,7.1c0,2.9-1.3,5.6-4.3,8.1l0.9,4.2c0.5,0,0.8-0.1,0.8-0.1c2.6,0,4.8,2,4.8,4.7c0,1.9-1.4,3.7-3.6,4.8
		c0-0.1,0.9,3.8,0.9,4.3c0,2.5-2.3,4.2-4.9,4.2c-2,0-3.6-1.3-3.6-3.4c0-1.4,1-2.6,2.4-2.6c1.3,0,2.3,1.3,2.3,2.5
		c0,1.4-1.2,2.3-2.7,2.5c0.6,0.3,1.2,0.5,1.9,0.5c2.1,0,4.1-1.6,4.1-3.6c0-0.2,0-0.4-0.1-0.6l-0.8-3.7
		C22.1,29.5,21.4,29.6,20.4,29.6z M18.2,24.4c0,1,0.5,1.9,1.6,2.5c-1.8-0.3-3-1.4-3-3.1c0-2,1.7-3.7,3.8-4.1l-0.8-4
		c-3.7,2.8-5.7,5.5-5.7,8.1c0,2.9,2.8,5.3,6,5.3c0.9,0,1.7-0.2,2.4-0.5l-1.4-6.8C19.5,22,18.2,23,18.2,24.4z M22.3,3
		c-1.6,0-2.9,3.7-2.9,7c0,0.7,0,1.3,0.2,1.9c2.7-2.4,4-4.5,4-6.5c0-0.9-0.3-1.7-1-2.4C22.5,3.1,22.4,3,22.3,3z M25,24.9
		c0-1.6-1.2-3.3-2.9-3.3c-0.1,0-0.2,0-0.5,0l1.4,6.6C24.4,27.4,25,26.2,25,24.9z"/>
</g>
<g>
	<path d="M33.6,3.1v2.8l1-0.3v1.8l-1,0.3v3.4l1-0.3v1.8l-1,0.3v3.1h-0.5v-3l-1.9,0.6v3h-0.5v-2.8l-1,0.3v-1.8l1-0.3V8.7l-1,0.3V7.2
		l1-0.3V3.7h0.5v3l1.9-0.6v-3H33.6z M33.1,7.9l-1.9,0.6v3.4l1.9-0.6V7.9z"/>
</g>
<g>
	<path d="M39.8,10.5v2.8l1-0.3v1.8l-1,0.3v3.4l1-0.3v1.8l-1,0.3v3.1h-0.5v-3l-1.9,0.6v3h-0.5v-2.8l-1,0.3v-1.8l1-0.3v-3.4l-1,0.3
		v-1.8l1-0.3v-3.1h0.5v3l1.9-0.6v-3H39.8z M39.3,15.3L37.4,16v3.4l1.9-0.6V15.3z"/>
</g>
<g>
	<path d="M46,0.6v2.8l1-0.3v1.8l-1,0.3v3.4l1-0.3v1.8l-1,0.3v3.1h-0.5v-3l-1.9,0.6v3h-0.5v-2.8l-1,0.3V9.9l1-0.3V6.2l-1,0.3V4.7
		l1-0.3V1.3h0.5v3l1.9-0.6v-3H46z M45.5,5.4L43.6,6v3.4l1.9-0.6V5.4z"/>
</g>
<g>
	<path d="M52.2,8.1v2.8l1-0.3v1.8l-1,0.3v3.4l1-0.3v1.8l-1,0.3v3.1h-0.5v-3l-1.9,0.6v3h-0.5v-2.8l-1,0.3v-1.8l1-0.3v-3.4l-1,0.3
		v-1.8l1-0.3V8.7h0.5v3l1.9-0.6v-3H52.2z M51.7,12.8l-1.9,0.6v3.4l1.9-0.6V12.8z"/>
</g>
<g>
	<path d="M58.4,15.5v2.8l1-0.3v1.8l-1,0.3v3.4l1-0.3V25l-1,0.3v3.1h-0.5v-3L56,26.2v3h-0.5v-2.8l-1,0.3v-1.8l1-0.3v-3.4l-1,0.3v-1.8
		l1-0.3v-3.1H56v3l1.9-0.6v-3H58.4z M57.9,20.3L56,20.9v3.4l1.9-0.6V20.3z"/>
</g>
<g>
	<path d="M64.6,5.6v2.8l1-0.3v1.8l-1,0.3v3.4l1-0.3v1.8l-1,0.3v3.1h-0.5v-3l-1.9,0.6v3h-0.5v-2.8l-1,0.3v-1.8l1-0.3v-3.4l-1,0.3V9.7
		l1-0.3V6.2h0.5v3l1.9-0.6v-3H64.6z M64.1,10.4L62.2,11v3.4l1.9-0.6V10.4z"/>
</g>
<g>
	<path d="M70.8,13v2.8l1-0.3v1.8l-1,0.3v3.4l1-0.3v1.8l-1,0.3V26h-0.5v-3l-1.9,0.6v3h-0.5v-2.8l-1,0.3v-1.8l1-0.3v-3.4l-1,0.3v-1.8
		l1-0.3v-3.1h0.5v3l1.9-0.6v-3H70.8z M70.3,17.8l-1.9,0.6v3.4l1.9-0.6V17.8z"/>
</g>
<rect x="8.6" y="80.7" width="544.4" height="0.5"/>
<rect x="8.6" y="75.7" width="544.4" height="0.5"/>
<rect x="8.6" y="70.8" width="544.4" height="0.5"/>
<rect x="8.6" y="65.8" width="544.4" height="0.5"/>
<rect x="8.6" y="60.8" width="544.4" height="0.5"/>
<g>
	<path d="M15.9,75.3c2.9-2.6,4.7-6.1,4.7-9.2c0-2.5-1.4-4.4-3.7-4.4c-1.6,0-3.4,1.3-3.4,2.7c0,0.2,0,0.3,0.1,0.3
		c-0.1,0,0.6-0.6,1.4-0.6c0.9,0,1.5,0.8,1.5,1.7c0,1.2-0.9,2.2-2.1,2.2c-1.2,0-2.1-1.3-2.1-2.8c0-2.3,2.3-4.1,4.8-4.1
		c4.7,0,5.9,3.2,5.9,5.8c0,1.6-0.4,2.9-2,5.3c-1.9,3.1-6.4,5.3-8.1,5.3c-0.4,0-0.6-0.2-0.6-0.5C14,76.5,15.1,76,15.9,75.3z
		 M25.8,62.6c0.6,0,1,0.4,1,1s-0.4,1-1,1s-1-0.4-1-1S25.3,62.6,25.8,62.6z M25.8,67.5c0.6,0,1,0.4,1,1c0,0.6-0.4,1-1,1s-1-0.4-1-1
		C24.8,67.9,25.3,67.5,25.8,67.5z"/>
</g>
<g>
	<path d="M33.6,59.2V62l1-0.3v1.8l-1,0.3v3.4l1-0.3v1.8l-1,0.3v3.1h-0.5v-3l-1.9,0.6v3h-0.5V70l-1,0.3v-1.8l1-0.3v-3.4l-1,0.3v-1.8
		l1-0.3v-3.1h0.5v3l1.9-0.6v-3H33.6z M33.1,64l-1.9,0.6v3.4l1.9-0.6V64z"/>
</g>
<g>
	<path d="M39.8,66.7v2.8l1-0.3V71l-1,0.3v3.4l1-0.3v1.8l-1,0.3v3.1h-0.5v-3l-1.9,0.6v3h-0.5v-2.8l-1,0.3V76l1-0.3v-3.4l-1,0.3v-1.8
		l1-0.3v-3.1h0.5v3l1.9-0.6v-3H39.8z M39.3,71.4l-1.9,0.6v3.4l1.9-0.6V71.4z"/>
</g>
<g>
	<path d="M46,56.7v2.8l1-0.3V61l-1,0.3v3.4l1-0.3v1.8l-1,0.3v3.1h-0.5v-3l-1.9,0.6v3h-0.5v-2.8l-1,0.3v-1.8l1-0.3v-3.4l-1,0.3v-1.8
		l1-0.3v-3.1h0.5v3l1.9-0.6v-3H46z M45.5,61.5l-1.9,0.6v3.4l1.9-0.6V61.5z"/>
</g>
<g>
	<path d="M52.2,64.2V67l1-0.3v1.8l-1,0.3v3.4l1-0.3v1.8l-1,0.3v3.1h-0.5v-3l-1.9,0.6v3h-0.5V75l-1,0.3v-1.8l1-0.3v-3.4l-1,0.3v-1.8
		l1-0.3v-3.1h0.5v3l1.9-0.6v-3H52.2z M51.7,69l-1.9,0.6V73l1.9-0.6V69z"/>
</g>
<g>
	<path d="M58.4,71.6v2.8l1-0.3v1.8l-1,0.3v3.4l1-0.3v1.8l-1,0.3v3.1h-0.5v-3L56,82.3v3h-0.5v-2.8l-1,0.3v-1.8l1-0.3v-3.4l-1,0.3
		v-1.8l1-0.3v-3.1H56v3l1.9-0.6v-3H58.4z M57.9,76.4L56,77v3.4l1.9-0.6V76.4z"/>
</g>
<g>
	<path d="M64.6,61.7v2.8l1-0.3V66l-1,0.3v3.4l1-0.3v1.8l-1,0.3v3.1h-0.5v-3l-1.9,0.6v3h-0.5v-2.8l-1,0.3V71l1-0.3v-3.4l-1,0.3v-1.8
		l1-0.3v-3.1h0.5v3l1.9-0.6v-3H64.6z M64.1,66.5l-1.9,0.6v3.4l1.9-0.6V66.5z"/>
</g>
<g>
	<path d="M70.8,69.1V72l1-0.3v1.8l-1,0.3v3.4l1-0.3v1.8l-1,0.3v3.1h-0.5v-3l-1.9,0.6v3h-0.5v-2.8l-1,0.3v-1.8l1-0.3v-3.4l-1,0.3
		v-1.8l1-0.3v-3.1h0.5v3l1.9-0.6v-3H70.8z M70.3,73.9l-1.9,0.6V78l1.9-0.6V73.9z"/>
</g>
<rect x="80.5" y="34.3" width="10.5" height="0.8"/>
<rect x="80.5" y="39.3" width="10.5" height="0.8"/>
<rect x="82.3" y="28.1" width="0.5" height="27.7"/>
<g>
	<path d="M82.4,28.1c0-1.8,2.5-3.5,4.5-3.5c1.3,0,2.3,0.7,2.3,1.7c0,1.7-2.5,3.5-4.6,3.5C83.4,29.9,82.4,29.2,82.4,28.1z"/>
</g>
<g>
	<path d="M82.4,33.1c0-1.8,2.5-3.5,4.5-3.5c1.3,0,2.3,0.7,2.3,1.7c0,1.7-2.5,3.5-4.6,3.5C83.4,34.8,82.4,34.2,82.4,33.1z"/>
</g>
<g>
	<path d="M82.4,38.1c0-1.8,2.5-3.5,4.5-3.5c1.3,0,2.3,0.7,2.3,1.7c0,1.7-2.5,3.5-4.6,3.5C83.4,39.8,82.4,39.1,82.4,38.1z"/>
</g>
<g>
	<path d="M82.4,43c0-1.8,2.5-3.5,4.5-3.5c1.3,0,2.3,0.7,2.3,1.7c0,1.7-2.5,3.5-4.6,3.5C83.4,44.7,82.4,44.1,82.4,43z"/>
</g>
<g>
	<path d="M78.2,44.6c0-0.8-0.4-1.5-1.1-2.2c-0.7,0.7-1.1,1.4-1.1,2.2h-1.4v-1.4c0.8,0,1.5-0.3,2.2-1c-0.7-0.7-1.4-1.1-2.2-1.1v-1.4
		h1.4c0,0.8,0.4,1.5,1.1,2.2c0.7-0.7,1.1-1.4,1.1-2.2h1.4v1.4c-0.8,0-1.5,0.4-2.2,1.1c0.7,0.7,1.4,1,2,1h0.2v1.4H78.2z"/>
</g>
<rect x="128.3" y="34.3" width="10.5" height="0.8"/>
<rect x="136.6" y="7.4" width="0.5" height="29"/>
<g>
	<path d="M130.1,38.1c0-1.8,2.5-3.5,4.5-3.5c1.3,0,2.3,0.7,2.3,1.7c0,1.7-2.5,3.5-4.6,3.5C131.1,39.8,130.1,39.1,130.1,38.1z"/>
</g>
<g>
	<path d="M130.1,33.1c0-1.8,2.5-3.5,4.5-3.5c1.3,0,2.3,0.7,2.3,1.7c0,1.7-2.5,3.5-4.6,3.5C131.1,34.8,130.1,34.2,130.1,33.1z"/>
</g>
<g>
	<path d="M130.1,28.1c0-1.8,2.5-3.5,4.5-3.5c1.3,0,2.3,0.7,2.3,1.7c0,1.7-2.5,3.5-4.6,3.5C131.1,29.9,130.1,29.2,130.1,28.1z"/>
</g>
<g>
	<path d="M136.5,25.7c0-1.8,2.5-3.5,4.5-3.5c1.3,0,2.3,0.7,2.3,1.7c0,1.7-2.5,3.5-4.6,3.5C137.5,27.4,136.5,26.7,136.5,25.7z"/>
</g>
<g>
	<path d="M127.2,27.3c0-0.8-0.4-1.5-1.1-2.2c-0.7,0.7-1.1,1.4-1.1,2.2h-1.4v-1.4c0.8,0,1.5-0.3,2.2-1c-0.7-0.7-1.4-1.1-2.2-1.1v-1.4
		h1.4c0,0.8,0.4,1.5,1.1,2.2c0.7-0.7,1.1-1.4,1.1-2.2h1.4v1.4c-0.8,0-1.5,0.4-2.2,1.1c0.7,0.7,1.4,1,2,1h0.2v1.4H127.2z"/>
</g>
<rect x="184.3" y="2.5" width="0.5" height="29"/>
<g>
	<path d="M177.9,33.1c0-1.8,2.5-3.5,4.5-3.5c1.3,0,2.3,0.7,2.3,1.7c0,1.7-2.5,3.5-4.6,3.5C178.9,34.8,177.9,34.2,177.9,33.1z"/>
</g>
<g>
	<path d="M177.9,28.1c0-1.8,2.5-3.5,4.5-3.5c1.3,0,2.3,0.7,2.3,1.7c0,1.7-2.5,3.5-4.6,3.5C178.9,29.9,177.9,29.2,177.9,28.1z"/>
</g>
<g>
	<path d="M184.2,25.7c0-1.8,2.5-3.5,4.5-3.5c1.3,0,2.3,0.7,2.3,1.7c0,1.7-2.5,3.5-4.6,3.5C185.2,27.4,184.2,26.7,184.2,25.7z"/>
</g>
<g>
	<path d="M177.9,20.7c0-1.8,2.5-3.5,4.5-3.5c1.3,0,2.3,0.7,2.3,1.7c0,1.7-2.5,3.5-4.6,3.5C178.9,22.4,177.9,21.8,177.9,20.7z"/>
</g>
<rect x="232.1" width="0.5" height="26.5"/>
<g>
	<path d="M225.6,28.1c0-1.8,2.5-3.5,4.5-3.5c1.3,0,2.3,0.7,2.3,1.7c0,1.7-2.5,3.5-4.6,3.5C226.6,29.9,225.6,29.2,225.6,28.1z"/>
</g>
<g>
	<path d="M232,25.7c0-1.8,2.5-3.5,4.5-3.5c1.3,0,2.3,0.7,2.3,1.7c0,1.7-2.5,3.5-4.6,3.5C233,27.4,232,26.7,232,25.7z"/>
</g>
<g>
	<path d="M225.6,20.7c0-1.8,2.5-3.5,4.5-3.5c1.3,0,2.3,0.7,2.3,1.7c0,1.7-2.5,3.5-4.6,3.5C226.6,22.4,225.6,21.8,225.6,20.7z"/>
</g>
<g>
	<path d="M225.6,15.7c0-1.8,2.5-3.5,4.5-3.5c1.3,0,2.3,0.7,2.3,1.7c0,1.7-2.5,3.5-4.6,3.5C226.6,17.5,225.6,16.8,225.6,15.7z"/>
</g>
<rect x="273.3" y="10.7" width="0.5" height="29"/>
<g>
	<path d="M273.4,10.8c0-1.8,2.5-3.5,4.5-3.5c1.3,0,2.3,0.7,2.3,1.7c0,1.7-2.5,3.5-4.6,3.5C274.4,12.5,273.4,11.9,273.4,10.8z"/>
</g>
<g>
	<path d="M273.4,15.7c0-1.8,2.5-3.5,4.5-3.5c1.3,0,2.3,0.7,2.3,1.7c0,1.7-2.5,3.5-4.6,3.5C274.4,17.5,273.4,16.8,273.4,15.7z"/>
</g>
<g>
	<path d="M273.4,20.7c0-1.8,2.5-3.5,4.5-3.5c1.3,0,2.3,0.7,2.3,1.7c0,1.7-2.5,3.5-4.6,3.5C274.4,22.4,273.4,21.8,273.4,20.7z"/>
</g>
<g>
	<path d="M273.4,25.7c0-1.8,2.5-3.5,4.5-3.5c1.3,0,2.3,0.7,2.3,1.7c0,1.7-2.5,3.5-4.6,3.5C274.4,27.4,273.4,26.7,273.4,25.7z"/>
</g>
<rect x="327.6" width="0.5" height="26.5"/>
<g>
	<path d="M321.1,28.1c0-1.8,2.5-3.5,4.5-3.5c1.3,0,2.3,0.7,2.3,1.7c0,1.7-2.5,3.5-4.6,3.5C322.1,29.9,321.1,29.2,321.1,28.1z"/>
</g>
<g>
	<path d="M327.5,25.7c0-1.8,2.5-3.5,4.5-3.5c1.3,0,2.3,0.7,2.3,1.7c0,1.7-2.5,3.5-4.6,3.5C328.5,27.4,327.5,26.7,327.5,25.7z"/>
</g>
<g>
	<path d="M321.1,20.7c0-1.8,2.5-3.5,4.5-3.5c1.3,0,2.3,0.7,2.3,1.7c0,1.7-2.5,3.5-4.6,3.5C322.1,22.4,321.1,21.8,321.1,20.7z"/>
</g>
<g>
	<path d="M321.1,15.7c0-1.8,2.5-3.5,4.5-3.5c1.3,0,2.3,0.7,2.3,1.7c0,1.7-2.5,3.5-4.6,3.5C322.1,17.5,321.1,16.8,321.1,15.7z"/>
</g>
<rect x="375.3" y="2.5" width="0.5" height="29"/>
<g>
	<path d="M368.9,33.1c0-1.8,2.5-3.5,4.5-3.5c1.3,0,2.3,0.7,2.3,1.7c0,1.7-2.5,3.5-4.6,3.5C369.8,34.8,368.9,34.2,368.9,33.1z"/>
</g>
<g>
	<path d="M368.9,28.1c0-1.8,2.5-3.5,4.5-3.5c1.3,0,2.3,0.7,2.3,1.7c0,1.7-2.5,3.5-4.6,3.5C369.8,29.9,368.9,29.2,368.9,28.1z"/>
</g>
<g>
	<path d="M375.2,25.7c0-1.8,2.5-3.5,4.5-3.5c1.3,0,2.3,0.7,2.3,1.7c0,1.7-2.5,3.5-4.6,3.5C376.2,27.4,375.2,26.7,375.2,25.7z"/>
</g>
<g>
	<path d="M368.9,20.7c0-1.8,2.5-3.5,4.5-3.5c1.3,0,2.3,0.7,2.3,1.7c0,1.7-2.5,3.5-4.6,3.5C369.8,22.4,368.9,21.8,368.9,20.7z"/>
</g>
<rect x="414.8" y="34.3" width="10.5" height="0.8"/>
<rect x="423" y="7.4" width="0.5" height="29"/>
<g>
	<path d="M416.6,38.1c0-1.8,2.5-3.5,4.5-3.5c1.3,0,2.3,0.7,2.3,1.7c0,1.7-2.5,3.5-4.6,3.5C417.6,39.8,416.6,39.1,416.6,38.1z"/>
</g>
<g>
	<path d="M416.6,33.1c0-1.8,2.5-3.5,4.5-3.5c1.3,0,2.3,0.7,2.3,1.7c0,1.7-2.5,3.5-4.6,3.5C417.6,34.8,416.6,34.2,416.6,33.1z"/>
</g>
<g>
	<path d="M416.6,28.1c0-1.8,2.5-3.5,4.5-3.5c1.3,0,2.3,0.7,2.3,1.7c0,1.7-2.5,3.5-4.6,3.5C417.6,29.9,416.6,29.2,416.6,28.1z"/>
</g>
<g>
	<path d="M423,25.7c0-1.8,2.5-3.5,4.5-3.5c1.3,0,2.3,0.7,2.3,1.7c0,1.7-2.5,3.5-4.6,3.5C423.9,27.4,423,26.7,423,25.7z"/>
</g>
<rect x="462.5" y="34.3" width="10.7" height="0.8"/>
<rect x="462.5" y="39.3" width="10.7" height="0.8"/>
<rect x="470.9" y="9.9" width="0.5" height="31.5"/>
<g>
	<path d="M468.6,39.5c1.6,0,2.7,0.7,2.7,2c0,1.9-2.3,3.4-4.5,3.4c-1.3,0-2.4-0.7-2.4-1.8C464.4,41.2,466.6,39.5,468.6,39.5z
		 M464.8,43.3c0,0.6,0.4,0.9,1.1,0.9c1.4,0,4.9-2.1,4.9-3.3c0-0.6-0.4-0.9-1.1-0.9C468.5,40.1,464.8,42.1,464.8,43.3z"/>
</g>
<g>
	<path d="M468.6,34.5c1.6,0,2.7,0.7,2.7,2c0,1.9-2.3,3.4-4.5,3.4c-1.3,0-2.4-0.7-2.4-1.8C464.4,36.3,466.6,34.5,468.6,34.5z
		 M464.8,38.4c0,0.6,0.4,0.9,1.1,0.9c1.4,0,4.9-2.1,4.9-3.3c0-0.6-0.4-0.9-1.1-0.9C468.5,35.1,464.8,37.1,464.8,38.4z"/>
</g>
<g>
	<path d="M468.6,29.5c1.6,0,2.7,0.7,2.7,2c0,1.9-2.3,3.4-4.5,3.4c-1.3,0-2.4-0.7-2.4-1.8C464.4,31.3,466.6,29.5,468.6,29.5z
		 M464.8,33.4c0,0.6,0.4,0.9,1.1,0.9c1.4,0,4.9-2.1,4.9-3.3c0-0.6-0.4-0.9-1.1-0.9C468.5,30.1,464.8,32.2,464.8,33.4z"/>
</g>
<g>
	<path d="M468.6,24.6c1.6,0,2.7,0.7,2.7,2c0,1.9-2.3,3.4-4.5,3.4c-1.3,0-2.4-0.7-2.4-1.8C464.4,26.4,466.6,24.6,468.6,24.6z
		 M464.8,28.4c0,0.6,0.4,0.9,1.1,0.9c1.4,0,4.9-2.1,4.9-3.3c0-0.6-0.4-0.9-1.1-0.9C468.5,25.2,464.8,27.2,464.8,28.4z"/>
</g>
<rect x="82.3" y="66.8" width="0.5" height="27.7"/>
<g>
	<path d="M82.4,66.9c0-1.8,2.5-3.5,4.5-3.5c1.3,0,2.3,0.7,2.3,1.7c0,1.7-2.5,3.5-4.6,3.5C83.4,68.6,82.4,68,82.4,66.9z"/>
</g>
<g>
	<path d="M82.4,71.8c0-1.8,2.5-3.5,4.5-3.5c1.3,0,2.3,0.7,2.3,1.7c0,1.7-2.5,3.5-4.6,3.5C83.4,73.6,82.4,72.9,82.4,71.8z"/>
</g>
<g>
	<path d="M82.4,76.8c0-1.8,2.5-3.5,4.5-3.5c1.3,0,2.3,0.7,2.3,1.7c0,1.7-2.5,3.5-4.6,3.5C83.4,78.5,82.4,77.9,82.4,76.8z"/>
</g>
<g>
	<path d="M82.4,81.8c0-1.8,2.5-3.5,4.5-3.5c1.3,0,2.3,0.7,2.3,1.7c0,1.7-2.5,3.5-4.6,3.5C83.4,83.5,82.4,82.9,82.4,81.8z"/>
</g>
<g>
	<path d="M79.5,83.4c0-0.8-0.4-1.5-1.1-2.2c-0.7,0.7-1.1,1.4-1.1,2.2h-1.4v-1.4c0.8,0,1.5-0.3,2.2-1c-0.7-0.7-1.4-1.1-2.2-1.1v-1.4
		h1.4c0,0.8,0.4,1.5,1.1,2.2c0.7-0.7,1.1-1.4,1.1-2.2h1.4v1.4c-0.8,0-1.5,0.4-2.2,1.1c0.7,0.7,1.4,1,2,1h0.2v1.4H79.5z"/>
</g>
<rect x="130.1" y="64.3" width="0.5" height="26.5"/>
<g>
	<path d="M130.1,64.4c0-1.8,2.5-3.5,4.5-3.5c1.3,0,2.3,0.7,2.3,1.7c0,1.7-2.5,3.5-4.6,3.5C131.1,66.1,130.1,65.5,130.1,64.4z"/>
</g>
<g>
	<path d="M123.8,66.9c0-1.8,2.5-3.5,4.5-3.5c1.3,0,2.3,0.7,2.3,1.7c0,1.7-2.5,3.5-4.6,3.5C124.8,68.6,123.8,68,123.8,66.9z"/>
</g>
<g>
	<path d="M130.1,71.8c0-1.8,2.5-3.5,4.5-3.5c1.3,0,2.3,0.7,2.3,1.7c0,1.7-2.5,3.5-4.6,3.5C131.1,73.6,130.1,72.9,130.1,71.8z"/>
</g>
<g>
	<path d="M130.1,76.8c0-1.8,2.5-3.5,4.5-3.5c1.3,0,2.3,0.7,2.3,1.7c0,1.7-2.5,3.5-4.6,3.5C131.1,78.5,130.1,77.9,130.1,76.8z"/>
</g>
<g>
	<path d="M120.4,66c0-0.8-0.4-1.5-1.1-2.2c-0.7,0.7-1.1,1.4-1.1,2.2h-1.4v-1.4c0.8,0,1.5-0.3,2.2-1c-0.7-0.7-1.4-1.1-2.2-1.1v-1.4
		h1.4c0,0.8,0.4,1.5,1.1,2.2c0.7-0.7,1.1-1.4,1.1-2.2h1.4v1.4c-0.8,0-1.5,0.4-2.2,1.1c0.7,0.7,1.4,1,2,1h0.2V66H120.4z"/>
</g>
<rect x="177.8" y="59.4" width="0.5" height="29"/>
<g>
	<path d="M177.9,59.4c0-1.8,2.5-3.5,4.5-3.5c1.3,0,2.3,0.7,2.3,1.7c0,1.7-2.5,3.5-4.6,3.5C178.9,61.2,177.9,60.5,177.9,59.4z"/>
</g>
<g>
	<path d="M177.9,64.4c0-1.8,2.5-3.5,4.5-3.5c1.3,0,2.3,0.7,2.3,1.7c0,1.7-2.5,3.5-4.6,3.5C178.9,66.1,177.9,65.5,177.9,64.4z"/>
</g>
<g>
	<path d="M171.5,66.9c0-1.8,2.5-3.5,4.5-3.5c1.3,0,2.3,0.7,2.3,1.7c0,1.7-2.5,3.5-4.6,3.5C172.5,68.6,171.5,68,171.5,66.9z"/>
</g>
<g>
	<path d="M177.9,71.8c0-1.8,2.5-3.5,4.5-3.5c1.3,0,2.3,0.7,2.3,1.7c0,1.7-2.5,3.5-4.6,3.5C178.9,73.6,177.9,72.9,177.9,71.8z"/>
</g>
<rect x="223.8" y="55.7" width="10.5" height="0.8"/>
<rect x="225.6" y="54.4" width="0.5" height="29"/>
<g>
	<path d="M225.6,54.5c0-1.8,2.5-3.5,4.5-3.5c1.3,0,2.3,0.7,2.3,1.7c0,1.7-2.5,3.5-4.6,3.5C226.6,56.2,225.6,55.6,225.6,54.5z"/>
</g>
<g>
	<path d="M225.6,59.4c0-1.8,2.5-3.5,4.5-3.5c1.3,0,2.3,0.7,2.3,1.7c0,1.7-2.5,3.5-4.6,3.5C226.6,61.2,225.6,60.5,225.6,59.4z"/>
</g>
<g>
	<path d="M225.6,64.4c0-1.8,2.5-3.5,4.5-3.5c1.3,0,2.3,0.7,2.3,1.7c0,1.7-2.5,3.5-4.6,3.5C226.6,66.1,225.6,65.5,225.6,64.4z"/>
</g>
<g>
	<path d="M219.3,66.9c0-1.8,2.5-3.5,4.5-3.5c1.3,0,2.3,0.7,2.3,1.7c0,1.7-2.5,3.5-4.6,3.5C220.3,68.6,219.3,68,219.3,66.9z"/>
</g>
<rect x="271.5" y="55.7" width="10.5" height="0.8"/>
<rect x="271.5" y="50.8" width="10.5" height="0.8"/>
<rect x="273.3" y="49.4" width="0.5" height="31.5"/>
<g>
	<path d="M273.4,49.5c0-1.8,2.5-3.5,4.5-3.5c1.3,0,2.3,0.7,2.3,1.7c0,1.7-2.5,3.5-4.6,3.5C274.4,51.3,273.4,50.6,273.4,49.5z"/>
</g>
<g>
	<path d="M273.4,54.5c0-1.8,2.5-3.5,4.5-3.5c1.3,0,2.3,0.7,2.3,1.7c0,1.7-2.5,3.5-4.6,3.5C274.4,56.2,273.4,55.6,273.4,54.5z"/>
</g>
<g>
	<path d="M273.4,59.4c0-1.8,2.5-3.5,4.5-3.5c1.3,0,2.3,0.7,2.3,1.7c0,1.7-2.5,3.5-4.6,3.5C274.4,61.2,273.4,60.5,273.4,59.4z"/>
</g>
<g>
	<path d="M273.4,64.4c0-1.8,2.5-3.5,4.5-3.5c1.3,0,2.3,0.7,2.3,1.7c0,1.7-2.5,3.5-4.6,3.5C274.4,66.1,273.4,65.5,273.4,64.4z"/>
</g>
<rect x="319.3" y="55.7" width="10.5" height="0.8"/>
<rect x="321" y="54.4" width="0.5" height="29"/>
<g>
	<path d="M321.1,54.5c0-1.8,2.5-3.5,4.5-3.5c1.3,0,2.3,0.7,2.3,1.7c0,1.7-2.5,3.5-4.6,3.5C322.1,56.2,321.1,55.6,321.1,54.5z"/>
</g>
<g>
	<path d="M321.1,59.4c0-1.8,2.5-3.5,4.5-3.5c1.3,0,2.3,0.7,2.3,1.7c0,1.7-2.5,3.5-4.6,3.5C322.1,61.2,321.1,60.5,321.1,59.4z"/>
</g>
<g>
	<path d="M321.1,64.4c0-1.8,2.5-3.5,4.5-3.5c1.3,0,2.3,0.7,2.3,1.7c0,1.7-2.5,3.5-4.6,3.5C322.1,66.1,321.1,65.5,321.1,64.4z"/>
</g>
<g>
	<path d="M314.8,66.9c0-1.8,2.5-3.5,4.5-3.5c1.3,0,2.3,0.7,2.3,1.7c0,1.7-2.5,3.5-4.6,3.5C315.7,68.6,314.8,68,314.8,66.9z"/>
</g>
<rect x="368.8" y="59.4" width="0.5" height="29"/>
<g>
	<path d="M368.9,59.4c0-1.8,2.5-3.5,4.5-3.5c1.3,0,2.3,0.7,2.3,1.7c0,1.7-2.5,3.5-4.6,3.5C369.8,61.2,368.9,60.5,368.9,59.4z"/>
</g>
<g>
	<path d="M368.9,64.4c0-1.8,2.5-3.5,4.5-3.5c1.3,0,2.3,0.7,2.3,1.7c0,1.7-2.5,3.5-4.6,3.5C369.8,66.1,368.9,65.5,368.9,64.4z"/>
</g>
<g>
	<path d="M362.5,66.9c0-1.8,2.5-3.5,4.5-3.5c1.3,0,2.3,0.7,2.3,1.7c0,1.7-2.5,3.5-4.6,3.5C363.5,68.6,362.5,68,362.5,66.9z"/>
</g>
<g>
	<path d="M368.9,71.8c0-1.8,2.5-3.5,4.5-3.5c1.3,0,2.3,0.7,2.3,1.7c0,1.7-2.5,3.5-4.6,3.5C369.8,73.6,368.9,72.9,368.9,71.8z"/>
</g>
<rect x="416.5" y="64.3" width="0.5" height="26.5"/>
<g>
	<path d="M416.6,64.4c0-1.8,2.5-3.5,4.5-3.5c1.3,0,2.3,0.7,2.3,1.7c0,1.7-2.5,3.5-4.6,3.5C417.6,66.1,416.6,65.5,416.6,64.4z"/>
</g>
<g>
	<path d="M410.3,66.9c0-1.8,2.5-3.5,4.5-3.5c1.3,0,2.3,0.7,2.3,1.7c0,1.7-2.5,3.5-4.6,3.5C411.2,68.6,410.3,68,410.3,66.9z"/>
</g>
<g>
	<path d="M416.6,71.8c0-1.8,2.5-3.5,4.5-3.5c1.3,0,2.3,0.7,2.3,1.7c0,1.7-2.5,3.5-4.6,3.5C417.6,73.6,416.6,72.9,416.6,71.8z"/>
</g>
<g>
	<path d="M416.6,76.8c0-1.8,2.5-3.5,4.5-3.5c1.3,0,2.3,0.7,2.3,1.7c0,1.7-2.5,3.5-4.6,3.5C417.6,78.5,416.6,77.9,416.6,76.8z"/>
</g>
<rect x="470.9" y="51.2" width="0.5" height="29"/>
<g>
	<path d="M468.6,78.2c1.6,0,2.7,0.7,2.7,2c0,1.9-2.3,3.4-4.5,3.4c-1.3,0-2.4-0.7-2.4-1.8C464.4,80,466.6,78.2,468.6,78.2z
		 M464.8,82.1c0,0.6,0.4,0.9,1.1,0.9c1.4,0,4.9-2.1,4.9-3.3c0-0.6-0.4-0.9-1.1-0.9C468.5,78.8,464.8,80.8,464.8,82.1z"/>
</g>
<g>
	<path d="M468.6,73.3c1.6,0,2.7,0.7,2.7,2c0,1.9-2.3,3.4-4.5,3.4c-1.3,0-2.4-0.7-2.4-1.8C464.4,75,466.6,73.3,468.6,73.3z
		 M464.8,77.1c0,0.6,0.4,0.9,1.1,0.9c1.4,0,4.9-2.1,4.9-3.3c0-0.6-0.4-0.9-1.1-0.9C468.5,73.9,464.8,75.9,464.8,77.1z"/>
</g>
<g>
	<path d="M468.6,68.3c1.6,0,2.7,0.7,2.7,2c0,1.9-2.3,3.4-4.5,3.4c-1.3,0-2.4-0.7-2.4-1.8C464.4,70.1,466.6,68.3,468.6,68.3z
		 M464.8,72.1c0,0.6,0.4,0.9,1.1,0.9c1.4,0,4.9-2.1,4.9-3.3c0-0.6-0.4-0.9-1.1-0.9C468.5,68.9,464.8,70.9,464.8,72.1z"/>
</g>
<g>
	<path d="M468.6,63.3c1.6,0,2.7,0.7,2.7,2c0,1.9-2.3,3.4-4.5,3.4c-1.3,0-2.4-0.7-2.4-1.8C464.4,65.1,466.6,63.3,468.6,63.3z
		 M464.8,67.2c0,0.6,0.4,0.9,1.1,0.9c1.4,0,4.9-2.1,4.9-3.3c0-0.6-0.4-0.9-1.1-0.9C468.5,63.9,464.8,66,464.8,67.2z"/>
</g>
</svg>
