<?xml version="1.0" encoding="utf-8"?>

<!--
	ScaleBook
	Copyright (c) Leland Jansen 2015. All rights reserved.
-->

<!DOCTYPE svg PUBLIC "-//W3C//DTD SVG 1.1//EN" "http://www.w3.org/Graphics/SVG/1.1/DTD/svg11.dtd">
<svg version="1.1" id="Layer_1" xmlns="http://www.w3.org/2000/svg" xmlns:xlink="http://www.w3.org/1999/xlink" x="0px" y="0px"
	 viewBox="0 0 553 92.1" enable-background="new 0 0 553 92.1" xml:space="preserve">
<rect x="8.5" y="9.9" width="0.8" height="72.2"/>
<g>
	<path d="M7.6,10.6c-2,1.2-3.7,6.2-3.7,10.2c0,2.5,1.4,10.7,1.4,13.2c0,5.3-1.6,9.3-4.7,12c3.1,2.6,4.7,6.6,4.7,11.9
		c0,2.5-1.4,10.7-1.4,13.2c0,4.1,1.8,9.1,3.7,10.3v0.7C4,79.7,1.7,73.3,1.7,68.1c0-2.3,1.8-10.1,1.8-12.4c0-4.1-1-7.1-3-8.9
		C0.1,46.5,0,46.3,0,46s0.1-0.4,0.5-0.7c2-1.8,3-4.6,3-8.2c0-2.3-1.8-10.8-1.8-13.1c0-5.6,2.1-11.2,5.9-14.1V10.6z"/>
</g>
<rect x="548" y="9.9" width="0.8" height="72.2"/>
<rect x="550.5" y="9.9" width="2.5" height="72.2"/>
<rect x="8.6" y="29.5" width="544.4" height="0.5"/>
<rect x="8.6" y="24.6" width="544.4" height="0.5"/>
<rect x="8.6" y="19.6" width="544.4" height="0.5"/>
<rect x="8.6" y="14.6" width="544.4" height="0.5"/>
<rect x="8.6" y="9.7" width="544.4" height="0.5"/>
<g>
	<path d="M20.4,29.6c-4.2,0-8.1-3.1-8.1-6.9c0-3.2,2.3-6.7,6.8-10.5c-0.3-1.2-0.4-2.4-0.4-3.6c0-3.5,1.2-6.8,3.2-8.5
		c1.8,2.5,2.7,4.9,2.7,7.1c0,2.9-1.3,5.6-4.3,8.1l0.9,4.2c0.5,0,0.8-0.1,0.8-0.1c2.6,0,4.8,2,4.8,4.7c0,1.9-1.4,3.7-3.6,4.8
		c0-0.1,0.9,3.8,0.9,4.3c0,2.5-2.3,4.2-4.9,4.2c-2,0-3.6-1.3-3.6-3.4c0-1.4,1-2.6,2.4-2.6c1.3,0,2.3,1.3,2.3,2.5
		c0,1.4-1.2,2.3-2.7,2.5c0.6,0.3,1.2,0.5,1.9,0.5c2.1,0,4.1-1.6,4.1-3.6c0-0.2,0-0.4-0.1-0.6l-0.8-3.7
		C22.1,29.5,21.4,29.6,20.4,29.6z M18.2,24.4c0,1,0.5,1.9,1.6,2.5c-1.8-0.3-3-1.4-3-3.1c0-2,1.7-3.7,3.8-4.1l-0.8-4
		c-3.7,2.8-5.7,5.5-5.7,8.1c0,2.9,2.8,5.3,6,5.3c0.9,0,1.7-0.2,2.4-0.5l-1.4-6.8C19.5,22,18.2,23,18.2,24.4z M22.3,3
		c-1.6,0-2.9,3.7-2.9,7c0,0.7,0,1.3,0.2,1.9c2.7-2.4,4-4.5,4-6.5c0-0.9-0.3-1.7-1-2.4C22.5,3.1,22.4,3,22.3,3z M25,24.9
		c0-1.6-1.2-3.3-2.9-3.3c-0.1,0-0.2,0-0.5,0l1.4,6.6C24.4,27.4,25,26.2,25,24.9z"/>
</g>
<g>
	<path d="M33.6,3.1v2.8l1-0.3v1.8l-1,0.3v3.4l1-0.3v1.8l-1,0.3v3.1h-0.5v-3l-1.9,0.6v3h-0.5v-2.8l-1,0.3v-1.8l1-0.3V8.7l-1,0.3V7.2
		l1-0.3V3.7h0.5v3l1.9-0.6v-3H33.6z M33.1,7.9l-1.9,0.6v3.4l1.9-0.6V7.9z"/>
</g>
<g>
	<path d="M39.8,10.5v2.8l1-0.3v1.8l-1,0.3v3.4l1-0.3v1.8l-1,0.3v3.1h-0.5v-3l-1.9,0.6v3h-0.5v-2.8l-1,0.3v-1.8l1-0.3v-3.4l-1,0.3
		v-1.8l1-0.3v-3.1h0.5v3l1.9-0.6v-3H39.8z M39.3,15.3L37.4,16v3.4l1.9-0.6V15.3z"/>
</g>
<g>
	<path d="M46,0.6v2.8l1-0.3v1.8l-1,0.3v3.4l1-0.3v1.8l-1,0.3v3.1h-0.5v-3l-1.9,0.6v3h-0.5v-2.8l-1,0.3V9.9l1-0.3V6.2l-1,0.3V4.7
		l1-0.3V1.3h0.5v3l1.9-0.6v-3H46z M45.5,5.4L43.6,6v3.4l1.9-0.6V5.4z"/>
</g>
<g>
	<path d="M52.2,8.1v2.8l1-0.3v1.8l-1,0.3v3.4l1-0.3v1.8l-1,0.3V21h-0.5v-3l-1.9,0.6v3h-0.5v-2.8l-1,0.3v-1.8l1-0.3v-3.4l-1,0.3v-1.8
		l1-0.3V8.7h0.5v3l1.9-0.6v-3H52.2z M51.7,12.8l-1.9,0.6v3.4l1.9-0.6V12.8z"/>
</g>
<rect x="8.6" y="81.9" width="544.4" height="0.5"/>
<rect x="8.6" y="77" width="544.4" height="0.5"/>
<rect x="8.6" y="72" width="544.4" height="0.5"/>
<rect x="8.6" y="67" width="544.4" height="0.5"/>
<rect x="8.6" y="62.1" width="544.4" height="0.5"/>
<g>
	<path d="M15.9,76.5c2.9-2.6,4.7-6.1,4.7-9.2c0-2.5-1.4-4.4-3.7-4.4c-1.6,0-3.4,1.3-3.4,2.7c0,0.2,0,0.3,0.1,0.3
		c-0.1,0,0.6-0.6,1.4-0.6c0.9,0,1.5,0.8,1.5,1.7c0,1.2-0.9,2.2-2.1,2.2c-1.2,0-2.1-1.3-2.1-2.8c0-2.3,2.3-4.1,4.8-4.1
		c4.7,0,5.9,3.2,5.9,5.8c0,1.6-0.4,2.9-2,5.3c-1.9,3.1-6.4,5.3-8.1,5.3c-0.4,0-0.6-0.2-0.6-0.5C14,77.8,15.1,77.2,15.9,76.5z
		 M25.8,63.8c0.6,0,1,0.4,1,1s-0.4,1-1,1s-1-0.4-1-1S25.3,63.8,25.8,63.8z M25.8,68.7c0.6,0,1,0.4,1,1c0,0.6-0.4,1-1,1s-1-0.4-1-1
		C24.8,69.2,25.3,68.7,25.8,68.7z"/>
</g>
<g>
	<path d="M33.6,60.5v2.8l1-0.3v1.8l-1,0.3v3.4l1-0.3V70l-1,0.3v3.1h-0.5v-3l-1.9,0.6v3h-0.5v-2.8l-1,0.3v-1.8l1-0.3V66l-1,0.3v-1.8
		l1-0.3v-3.1h0.5v3l1.9-0.6v-3H33.6z M33.1,65.2l-1.9,0.6v3.4l1.9-0.6V65.2z"/>
</g>
<g>
	<path d="M39.8,67.9v2.8l1-0.3v1.8l-1,0.3V76l1-0.3v1.8l-1,0.3v3.1h-0.5v-3l-1.9,0.6v3h-0.5v-2.8l-1,0.3v-1.8l1-0.3v-3.4l-1,0.3V72
		l1-0.3v-3.1h0.5v3l1.9-0.6v-3H39.8z M39.3,72.7l-1.9,0.6v3.4l1.9-0.6V72.7z"/>
</g>
<g>
	<path d="M46,58v2.8l1-0.3v1.8l-1,0.3V66l1-0.3v1.8l-1,0.3V71h-0.5v-3l-1.9,0.6v3h-0.5v-2.8l-1,0.3v-1.8l1-0.3v-3.4l-1,0.3v-1.8
		l1-0.3v-3.1h0.5v3l1.9-0.6v-3H46z M45.5,62.8l-1.9,0.6v3.4l1.9-0.6V62.8z"/>
</g>
<g>
	<path d="M52.2,65.4v2.8l1-0.3v1.8l-1,0.3v3.4l1-0.3V75l-1,0.3v3.1h-0.5v-3l-1.9,0.6v3h-0.5v-2.8l-1,0.3v-1.8l1-0.3V71l-1,0.3v-1.8
		l1-0.3V66h0.5v3l1.9-0.6v-3H52.2z M51.7,70.2l-1.9,0.6v3.4l1.9-0.6V70.2z"/>
</g>
<rect x="61.8" y="34.3" width="10.5" height="0.8"/>
<rect x="63.6" y="23.1" width="0.5" height="27.7"/>
<g>
	<path d="M63.6,23.2c0-1.8,2.5-3.5,4.5-3.5c1.3,0,2.3,0.7,2.3,1.7c0,1.7-2.5,3.5-4.6,3.5C64.6,24.9,63.6,24.3,63.6,23.2z"/>
</g>
<g>
	<path d="M63.6,28.1c0-1.8,2.5-3.5,4.5-3.5c1.3,0,2.3,0.7,2.3,1.7c0,1.7-2.5,3.5-4.6,3.5C64.6,29.9,63.6,29.2,63.6,28.1z"/>
</g>
<g>
	<path d="M63.6,33.1c0-1.8,2.5-3.5,4.5-3.5c1.3,0,2.3,0.7,2.3,1.7c0,1.7-2.5,3.5-4.6,3.5C64.6,34.8,63.6,34.2,63.6,33.1z"/>
</g>
<g>
	<path d="M63.6,38.1c0-1.8,2.5-3.5,4.5-3.5c1.3,0,2.3,0.7,2.3,1.7c0,1.7-2.5,3.5-4.6,3.5C64.6,39.8,63.6,39.1,63.6,38.1z"/>
</g>
<g>
	<path d="M60,30.4v2.8l1-0.3v1.8L60,35v3.4l1-0.3v1.8l-1,0.3v3.1h-0.5v-3L57.6,41v3h-0.5v-2.8l-1,0.3v-1.8l1-0.3v-3.4l-1,0.3v-1.8
		l1-0.3V31h0.5v3l1.9-0.6v-3H60z M59.5,35.2l-1.9,0.6v3.4l1.9-0.6V35.2z"/>
</g>
<rect x="119.8" y="2.5" width="0.5" height="29"/>
<g>
	<path d="M113.4,33.1c0-1.8,2.5-3.5,4.5-3.5c1.3,0,2.3,0.7,2.3,1.7c0,1.7-2.5,3.5-4.6,3.5C114.4,34.8,113.4,34.2,113.4,33.1z"/>
</g>
<g>
	<path d="M113.4,28.1c0-1.8,2.5-3.5,4.5-3.5c1.3,0,2.3,0.7,2.3,1.7c0,1.7-2.5,3.5-4.6,3.5C114.4,29.9,113.4,29.2,113.4,28.1z"/>
</g>
<g>
	<path d="M113.4,23.2c0-1.8,2.5-3.5,4.5-3.5c1.3,0,2.3,0.7,2.3,1.7c0,1.7-2.5,3.5-4.6,3.5C114.4,24.9,113.4,24.3,113.4,23.2z"/>
</g>
<g>
	<path d="M119.8,20.7c0-1.8,2.5-3.5,4.5-3.5c1.3,0,2.3,0.7,2.3,1.7c0,1.7-2.5,3.5-4.6,3.5C120.7,22.4,119.8,21.8,119.8,20.7z"/>
</g>
<g>
	<path d="M111,13v2.8l1-0.3v1.8l-1,0.3v3.4l1-0.3v1.8l-1,0.3V26h-0.5v-3l-1.9,0.6v3h-0.5v-2.8l-1,0.3v-1.8l1-0.3v-3.4l-1,0.3v-1.8
		l1-0.3v-3.1h0.5v3l1.9-0.6v-3H111z M110.5,17.8l-1.9,0.6v3.4l1.9-0.6V17.8z"/>
</g>
<rect x="169.4" width="0.5" height="26.5"/>
<g>
	<path d="M163,28.1c0-1.8,2.5-3.5,4.5-3.5c1.3,0,2.3,0.7,2.3,1.7c0,1.7-2.5,3.5-4.6,3.5C164,29.9,163,29.2,163,28.1z"/>
</g>
<g>
	<path d="M163,23.2c0-1.8,2.5-3.5,4.5-3.5c1.3,0,2.3,0.7,2.3,1.7c0,1.7-2.5,3.5-4.6,3.5C164,24.9,163,24.3,163,23.2z"/>
</g>
<g>
	<path d="M169.4,20.7c0-1.8,2.5-3.5,4.5-3.5c1.3,0,2.3,0.7,2.3,1.7c0,1.7-2.5,3.5-4.6,3.5C170.3,22.4,169.4,21.8,169.4,20.7z"/>
</g>
<g>
	<path d="M163,15.7c0-1.8,2.5-3.5,4.5-3.5c1.3,0,2.3,0.7,2.3,1.7c0,1.7-2.5,3.5-4.6,3.5C164,17.5,163,16.8,163,15.7z"/>
</g>
<rect x="212.7" y="10.7" width="0.5" height="27.7"/>
<g>
	<path d="M212.8,10.8c0-1.8,2.5-3.5,4.5-3.5c1.3,0,2.3,0.7,2.3,1.7c0,1.7-2.5,3.5-4.6,3.5C213.7,12.5,212.8,11.9,212.8,10.8z"/>
</g>
<g>
	<path d="M212.8,15.7c0-1.8,2.5-3.5,4.5-3.5c1.3,0,2.3,0.7,2.3,1.7c0,1.7-2.5,3.5-4.6,3.5C213.7,17.5,212.8,16.8,212.8,15.7z"/>
</g>
<g>
	<path d="M212.8,20.7c0-1.8,2.5-3.5,4.5-3.5c1.3,0,2.3,0.7,2.3,1.7c0,1.7-2.5,3.5-4.6,3.5C213.7,22.4,212.8,21.8,212.8,20.7z"/>
</g>
<g>
	<path d="M206.4,23.2c0-1.8,2.5-3.5,4.5-3.5c1.3,0,2.3,0.7,2.3,1.7c0,1.7-2.5,3.5-4.6,3.5C207.4,24.9,206.4,24.3,206.4,23.2z"/>
</g>
<rect x="260.5" y="4.6" width="10.5" height="0.8"/>
<rect x="262.3" y="5.7" width="0.5" height="31.5"/>
<g>
	<path d="M262.4,5.8c0-1.8,2.5-3.5,4.5-3.5c1.3,0,2.3,0.7,2.3,1.7c0,1.7-2.5,3.5-4.6,3.5C263.3,7.5,262.4,6.9,262.4,5.8z"/>
</g>
<g>
	<path d="M262.4,10.8c0-1.8,2.5-3.5,4.5-3.5c1.3,0,2.3,0.7,2.3,1.7c0,1.7-2.5,3.5-4.6,3.5C263.3,12.5,262.4,11.9,262.4,10.8z"/>
</g>
<g>
	<path d="M262.4,15.7c0-1.8,2.5-3.5,4.5-3.5c1.3,0,2.3,0.7,2.3,1.7c0,1.7-2.5,3.5-4.6,3.5C263.3,17.5,262.4,16.8,262.4,15.7z"/>
</g>
<g>
	<path d="M262.4,20.7c0-1.8,2.5-3.5,4.5-3.5c1.3,0,2.3,0.7,2.3,1.7c0,1.7-2.5,3.5-4.6,3.5C263.3,22.4,262.4,21.8,262.4,20.7z"/>
</g>
<rect x="312.1" y="10.7" width="0.5" height="27.7"/>
<g>
	<path d="M312.1,10.8c0-1.8,2.5-3.5,4.5-3.5c1.3,0,2.3,0.7,2.3,1.7c0,1.7-2.5,3.5-4.6,3.5C313.1,12.5,312.1,11.9,312.1,10.8z"/>
</g>
<g>
	<path d="M312.1,15.7c0-1.8,2.5-3.5,4.5-3.5c1.3,0,2.3,0.7,2.3,1.7c0,1.7-2.5,3.5-4.6,3.5C313.1,17.5,312.1,16.8,312.1,15.7z"/>
</g>
<g>
	<path d="M312.1,20.7c0-1.8,2.5-3.5,4.5-3.5c1.3,0,2.3,0.7,2.3,1.7c0,1.7-2.5,3.5-4.6,3.5C313.1,22.4,312.1,21.8,312.1,20.7z"/>
</g>
<g>
	<path d="M305.8,23.2c0-1.8,2.5-3.5,4.5-3.5c1.3,0,2.3,0.7,2.3,1.7c0,1.7-2.5,3.5-4.6,3.5C306.7,24.9,305.8,24.3,305.8,23.2z"/>
</g>
<rect x="368.2" width="0.5" height="26.5"/>
<g>
	<path d="M361.7,28.1c0-1.8,2.5-3.5,4.5-3.5c1.3,0,2.3,0.7,2.3,1.7c0,1.7-2.5,3.5-4.6,3.5C362.7,29.9,361.7,29.2,361.7,28.1z"/>
</g>
<g>
	<path d="M361.7,23.2c0-1.8,2.5-3.5,4.5-3.5c1.3,0,2.3,0.7,2.3,1.7c0,1.7-2.5,3.5-4.6,3.5C362.7,24.9,361.7,24.3,361.7,23.2z"/>
</g>
<g>
	<path d="M368.1,20.7c0-1.8,2.5-3.5,4.5-3.5c1.3,0,2.3,0.7,2.3,1.7c0,1.7-2.5,3.5-4.6,3.5C369.1,22.4,368.1,21.8,368.1,20.7z"/>
</g>
<g>
	<path d="M361.7,15.7c0-1.8,2.5-3.5,4.5-3.5c1.3,0,2.3,0.7,2.3,1.7c0,1.7-2.5,3.5-4.6,3.5C362.7,17.5,361.7,16.8,361.7,15.7z"/>
</g>
<rect x="417.9" y="2.5" width="0.5" height="29"/>
<g>
	<path d="M411.5,33.1c0-1.8,2.5-3.5,4.5-3.5c1.3,0,2.3,0.7,2.3,1.7c0,1.7-2.5,3.5-4.6,3.5C412.5,34.8,411.5,34.2,411.5,33.1z"/>
</g>
<g>
	<path d="M411.5,28.1c0-1.8,2.5-3.5,4.5-3.5c1.3,0,2.3,0.7,2.3,1.7c0,1.7-2.5,3.5-4.6,3.5C412.5,29.9,411.5,29.2,411.5,28.1z"/>
</g>
<g>
	<path d="M411.5,23.2c0-1.8,2.5-3.5,4.5-3.5c1.3,0,2.3,0.7,2.3,1.7c0,1.7-2.5,3.5-4.6,3.5C412.5,24.9,411.5,24.3,411.5,23.2z"/>
</g>
<g>
	<path d="M417.9,20.7c0-1.8,2.5-3.5,4.5-3.5c1.3,0,2.3,0.7,2.3,1.7c0,1.7-2.5,3.5-4.6,3.5C418.8,22.4,417.9,21.8,417.9,20.7z"/>
</g>
<rect x="459.2" y="34.3" width="10.7" height="0.8"/>
<rect x="467.7" y="5" width="0.5" height="31.5"/>
<g>
	<path d="M465.4,34.5c1.6,0,2.7,0.7,2.7,2c0,1.9-2.3,3.4-4.5,3.4c-1.3,0-2.4-0.7-2.4-1.8C461.1,36.3,463.3,34.5,465.4,34.5z
		 M461.6,38.4c0,0.6,0.4,0.9,1.1,0.9c1.4,0,4.9-2.1,4.9-3.3c0-0.6-0.4-0.9-1.1-0.9C465.2,35.1,461.6,37.1,461.6,38.4z"/>
</g>
<g>
	<path d="M465.4,29.5c1.6,0,2.7,0.7,2.7,2c0,1.9-2.3,3.4-4.5,3.4c-1.3,0-2.4-0.7-2.4-1.8C461.1,31.3,463.3,29.5,465.4,29.5z
		 M461.6,33.4c0,0.6,0.4,0.9,1.1,0.9c1.4,0,4.9-2.1,4.9-3.3c0-0.6-0.4-0.9-1.1-0.9C465.2,30.1,461.6,32.2,461.6,33.4z"/>
</g>
<g>
	<path d="M465.4,24.6c1.6,0,2.7,0.7,2.7,2c0,1.9-2.3,3.4-4.5,3.4c-1.3,0-2.4-0.7-2.4-1.8C461.1,26.4,463.3,24.6,465.4,24.6z
		 M461.6,28.4c0,0.6,0.4,0.9,1.1,0.9c1.4,0,4.9-2.1,4.9-3.3c0-0.6-0.4-0.9-1.1-0.9C465.2,25.2,461.6,27.2,461.6,28.4z"/>
</g>
<g>
	<path d="M465.4,19.6c1.6,0,2.7,0.7,2.7,2c0,1.9-2.3,3.4-4.5,3.4c-1.3,0-2.4-0.7-2.4-1.8C461.1,21.4,463.3,19.6,465.4,19.6z
		 M461.6,23.5c0,0.6,0.4,0.9,1.1,0.9c1.4,0,4.9-2.1,4.9-3.3c0-0.6-0.4-0.9-1.1-0.9C465.2,20.2,461.6,22.2,461.6,23.5z"/>
</g>
<rect x="70.1" y="48.7" width="0.5" height="27.7"/>
<g>
	<path d="M63.6,78c0-1.8,2.5-3.5,4.5-3.5c1.3,0,2.3,0.7,2.3,1.7c0,1.7-2.5,3.5-4.6,3.5C64.6,79.8,63.6,79.1,63.6,78z"/>
</g>
<g>
	<path d="M63.6,73.1c0-1.8,2.5-3.5,4.5-3.5c1.3,0,2.3,0.7,2.3,1.7c0,1.7-2.5,3.5-4.6,3.5C64.6,74.8,63.6,74.2,63.6,73.1z"/>
</g>
<g>
	<path d="M63.6,68.1c0-1.8,2.5-3.5,4.5-3.5c1.3,0,2.3,0.7,2.3,1.7c0,1.7-2.5,3.5-4.6,3.5C64.6,69.9,63.6,69.2,63.6,68.1z"/>
</g>
<g>
	<path d="M63.6,63.2c0-1.8,2.5-3.5,4.5-3.5c1.3,0,2.3,0.7,2.3,1.7c0,1.7-2.5,3.5-4.6,3.5C64.6,64.9,63.6,64.3,63.6,63.2z"/>
</g>
<g>
	<path d="M61.2,70.4v2.8l1-0.3v1.8l-1,0.3v3.4l1-0.3v1.8l-1,0.3v3.1h-0.5v-3L58.8,81v3h-0.5v-2.8l-1,0.3v-1.8l1-0.3v-3.4l-1,0.3
		v-1.8l1-0.3V71h0.5v3l1.9-0.6v-3H61.2z M60.7,75.2l-1.9,0.6v3.4l1.9-0.6V75.2z"/>
</g>
<rect x="113.3" y="60.6" width="0.5" height="29"/>
<g>
	<path d="M113.4,60.7c0-1.8,2.5-3.5,4.5-3.5c1.3,0,2.3,0.7,2.3,1.7c0,1.7-2.5,3.5-4.6,3.5C114.4,62.4,113.4,61.8,113.4,60.7z"/>
</g>
<g>
	<path d="M107,63.2c0-1.8,2.5-3.5,4.5-3.5c1.3,0,2.3,0.7,2.3,1.7c0,1.7-2.5,3.5-4.6,3.5C108,64.9,107,64.3,107,63.2z"/>
</g>
<g>
	<path d="M113.4,68.1c0-1.8,2.5-3.5,4.5-3.5c1.3,0,2.3,0.7,2.3,1.7c0,1.7-2.5,3.5-4.6,3.5C114.4,69.9,113.4,69.2,113.4,68.1z"/>
</g>
<g>
	<path d="M113.4,73.1c0-1.8,2.5-3.5,4.5-3.5c1.3,0,2.3,0.7,2.3,1.7c0,1.7-2.5,3.5-4.6,3.5C114.4,74.8,113.4,74.2,113.4,73.1z"/>
</g>
<g>
	<path d="M104.2,53v2.8l1-0.3v1.8l-1,0.3v3.4l1-0.3v1.8l-1,0.3V66h-0.5v-3l-1.9,0.6v3h-0.5v-2.8l-1,0.3v-1.8l1-0.3v-3.4l-1,0.3v-1.8
		l1-0.3v-3.1h0.5v3l1.9-0.6v-3H104.2z M103.7,57.8l-1.9,0.6v3.4l1.9-0.6V57.8z"/>
</g>
<rect x="161.1" y="57" width="10.5" height="0.8"/>
<rect x="162.9" y="55.6" width="0.5" height="29"/>
<g>
	<path d="M163,55.7c0-1.8,2.5-3.5,4.5-3.5c1.3,0,2.3,0.7,2.3,1.7c0,1.7-2.5,3.5-4.6,3.5C164,57.5,163,56.8,163,55.7z"/>
</g>
<g>
	<path d="M163,60.7c0-1.8,2.5-3.5,4.5-3.5c1.3,0,2.3,0.7,2.3,1.7c0,1.7-2.5,3.5-4.6,3.5C164,62.4,163,61.8,163,60.7z"/>
</g>
<g>
	<path d="M156.7,63.2c0-1.8,2.5-3.5,4.5-3.5c1.3,0,2.3,0.7,2.3,1.7c0,1.7-2.5,3.5-4.6,3.5C157.6,64.9,156.7,64.3,156.7,63.2z"/>
</g>
<g>
	<path d="M163,68.1c0-1.8,2.5-3.5,4.5-3.5c1.3,0,2.3,0.7,2.3,1.7c0,1.7-2.5,3.5-4.6,3.5C164,69.9,163,69.2,163,68.1z"/>
</g>
<rect x="210.9" y="57" width="10.5" height="0.8"/>
<rect x="210.9" y="52" width="10.5" height="0.8"/>
<rect x="212.7" y="50.7" width="0.5" height="29"/>
<g>
	<path d="M212.8,50.8c0-1.8,2.5-3.5,4.5-3.5c1.3,0,2.3,0.7,2.3,1.7c0,1.7-2.5,3.5-4.6,3.5C213.7,52.5,212.8,51.9,212.8,50.8z"/>
</g>
<g>
	<path d="M212.8,55.7c0-1.8,2.5-3.5,4.5-3.5c1.3,0,2.3,0.7,2.3,1.7c0,1.7-2.5,3.5-4.6,3.5C213.7,57.5,212.8,56.8,212.8,55.7z"/>
</g>
<g>
	<path d="M212.8,60.7c0-1.8,2.5-3.5,4.5-3.5c1.3,0,2.3,0.7,2.3,1.7c0,1.7-2.5,3.5-4.6,3.5C213.7,62.4,212.8,61.8,212.8,60.7z"/>
</g>
<g>
	<path d="M206.4,63.2c0-1.8,2.5-3.5,4.5-3.5c1.3,0,2.3,0.7,2.3,1.7c0,1.7-2.5,3.5-4.6,3.5C207.4,64.9,206.4,64.3,206.4,63.2z"/>
</g>
<rect x="260.5" y="57" width="10.5" height="0.8"/>
<rect x="260.5" y="52" width="10.5" height="0.8"/>
<rect x="260.5" y="47" width="10.5" height="0.8"/>
<rect x="262.3" y="45.7" width="0.5" height="31.5"/>
<g>
	<path d="M262.4,45.8c0-1.8,2.5-3.5,4.5-3.5c1.3,0,2.3,0.7,2.3,1.7c0,1.7-2.5,3.5-4.6,3.5C263.3,47.5,262.4,46.9,262.4,45.8z"/>
</g>
<g>
	<path d="M262.4,50.8c0-1.8,2.5-3.5,4.5-3.5c1.3,0,2.3,0.7,2.3,1.7c0,1.7-2.5,3.5-4.6,3.5C263.3,52.5,262.4,51.9,262.4,50.8z"/>
</g>
<g>
	<path d="M262.4,55.7c0-1.8,2.5-3.5,4.5-3.5c1.3,0,2.3,0.7,2.3,1.7c0,1.7-2.5,3.5-4.6,3.5C263.3,57.5,262.4,56.8,262.4,55.7z"/>
</g>
<g>
	<path d="M262.4,60.7c0-1.8,2.5-3.5,4.5-3.5c1.3,0,2.3,0.7,2.3,1.7c0,1.7-2.5,3.5-4.6,3.5C263.3,62.4,262.4,61.8,262.4,60.7z"/>
</g>
<rect x="310.3" y="57" width="10.5" height="0.8"/>
<rect x="310.3" y="52" width="10.5" height="0.8"/>
<rect x="312.1" y="50.7" width="0.5" height="29"/>
<g>
	<path d="M312.1,50.8c0-1.8,2.5-3.5,4.5-3.5c1.3,0,2.3,0.7,2.3,1.7c0,1.7-2.5,3.5-4.6,3.5C313.1,52.5,312.1,51.9,312.1,50.8z"/>
</g>
<g>
	<path d="M312.1,55.7c0-1.8,2.5-3.5,4.5-3.5c1.3,0,2.3,0.7,2.3,1.7c0,1.7-2.5,3.5-4.6,3.5C313.1,57.5,312.1,56.8,312.1,55.7z"/>
</g>
<g>
	<path d="M312.1,60.7c0-1.8,2.5-3.5,4.5-3.5c1.3,0,2.3,0.7,2.3,1.7c0,1.7-2.5,3.5-4.6,3.5C313.1,62.4,312.1,61.8,312.1,60.7z"/>
</g>
<g>
	<path d="M305.8,63.2c0-1.8,2.5-3.5,4.5-3.5c1.3,0,2.3,0.7,2.3,1.7c0,1.7-2.5,3.5-4.6,3.5C306.7,64.9,305.8,64.3,305.8,63.2z"/>
</g>
<rect x="359.9" y="57" width="10.5" height="0.8"/>
<rect x="361.7" y="55.6" width="0.5" height="29"/>
<g>
	<path d="M361.7,55.7c0-1.8,2.5-3.5,4.5-3.5c1.3,0,2.3,0.7,2.3,1.7c0,1.7-2.5,3.5-4.6,3.5C362.7,57.5,361.7,56.8,361.7,55.7z"/>
</g>
<g>
	<path d="M361.7,60.7c0-1.8,2.5-3.5,4.5-3.5c1.3,0,2.3,0.7,2.3,1.7c0,1.7-2.5,3.5-4.6,3.5C362.7,62.4,361.7,61.8,361.7,60.7z"/>
</g>
<g>
	<path d="M355.4,63.2c0-1.8,2.5-3.5,4.5-3.5c1.3,0,2.3,0.7,2.3,1.7c0,1.7-2.5,3.5-4.6,3.5C356.4,64.9,355.4,64.3,355.4,63.2z"/>
</g>
<g>
	<path d="M361.7,68.1c0-1.8,2.5-3.5,4.5-3.5c1.3,0,2.3,0.7,2.3,1.7c0,1.7-2.5,3.5-4.6,3.5C362.7,69.9,361.7,69.2,361.7,68.1z"/>
</g>
<rect x="411.4" y="60.6" width="0.5" height="29"/>
<g>
	<path d="M411.5,60.7c0-1.8,2.5-3.5,4.5-3.5c1.3,0,2.3,0.7,2.3,1.7c0,1.7-2.5,3.5-4.6,3.5C412.5,62.4,411.5,61.8,411.5,60.7z"/>
</g>
<g>
	<path d="M405.1,63.2c0-1.8,2.5-3.5,4.5-3.5c1.3,0,2.3,0.7,2.3,1.7c0,1.7-2.5,3.5-4.6,3.5C406.1,64.9,405.1,64.3,405.1,63.2z"/>
</g>
<g>
	<path d="M411.5,68.1c0-1.8,2.5-3.5,4.5-3.5c1.3,0,2.3,0.7,2.3,1.7c0,1.7-2.5,3.5-4.6,3.5C412.5,69.9,411.5,69.2,411.5,68.1z"/>
</g>
<g>
	<path d="M411.5,73.1c0-1.8,2.5-3.5,4.5-3.5c1.3,0,2.3,0.7,2.3,1.7c0,1.7-2.5,3.5-4.6,3.5C412.5,74.8,411.5,74.2,411.5,73.1z"/>
</g>
<rect x="461" y="63.1" width="0.5" height="29"/>
<g>
	<path d="M465.4,59.6c1.6,0,2.7,0.7,2.7,2c0,1.9-2.3,3.4-4.5,3.4c-1.3,0-2.4-0.7-2.4-1.8C461.1,61.4,463.3,59.6,465.4,59.6z
		 M461.6,63.5c0,0.6,0.4,0.9,1.1,0.9c1.4,0,4.9-2.1,4.9-3.3c0-0.6-0.4-0.9-1.1-0.9C465.2,60.2,461.6,62.2,461.6,63.5z"/>
</g>
<g>
	<path d="M465.4,64.6c1.6,0,2.7,0.7,2.7,2c0,1.9-2.3,3.4-4.5,3.4c-1.3,0-2.4-0.7-2.4-1.8C461.1,66.4,463.3,64.6,465.4,64.6z
		 M461.6,68.4c0,0.6,0.4,0.9,1.1,0.9c1.4,0,4.9-2.1,4.9-3.3c0-0.6-0.4-0.9-1.1-0.9C465.2,65.2,461.6,67.2,461.6,68.4z"/>
</g>
<g>
	<path d="M465.4,69.5c1.6,0,2.7,0.7,2.7,2c0,1.9-2.3,3.4-4.5,3.4c-1.3,0-2.4-0.7-2.4-1.8C461.1,71.3,463.3,69.5,465.4,69.5z
		 M461.6,73.4c0,0.6,0.4,0.9,1.1,0.9c1.4,0,4.9-2.1,4.9-3.3c0-0.6-0.4-0.9-1.1-0.9C465.2,70.1,461.6,72.2,461.6,73.4z"/>
</g>
<g>
	<path d="M465.4,74.5c1.6,0,2.7,0.7,2.7,2c0,1.9-2.3,3.4-4.5,3.4c-1.3,0-2.4-0.7-2.4-1.8C461.1,76.3,463.3,74.5,465.4,74.5z
		 M461.6,78.3c0,0.6,0.4,0.9,1.1,0.9c1.4,0,4.9-2.1,4.9-3.3c0-0.6-0.4-0.9-1.1-0.9C465.2,75.1,461.6,77.1,461.6,78.3z"/>
</g>
</svg>
