<?xml version="1.0" encoding="utf-8"?>

<!--
	ScaleBook
	Copyright (c) Leland Jansen 2015. All rights reserved.
-->

<!DOCTYPE svg PUBLIC "-//W3C//DTD SVG 1.1//EN" "http://www.w3.org/Graphics/SVG/1.1/DTD/svg11.dtd">
<svg version="1.1" id="Layer_1" xmlns="http://www.w3.org/2000/svg" xmlns:xlink="http://www.w3.org/1999/xlink" x="0px" y="0px"
	 viewBox="0 0 553 93.5" enable-background="new 0 0 553 93.5" xml:space="preserve">
<rect x="8.5" y="12.5" width="0.8" height="68.5"/>
<g>
	<path d="M7.6,13.2c-2,1.1-3.7,5.9-3.7,9.7c0,2.3,1.4,10.1,1.4,12.5c0,5.1-1.6,8.8-4.7,11.4c3.1,2.5,4.7,6.2,4.7,11.3
		c0,2.3-1.4,10.1-1.4,12.5c0,3.9,1.8,8.6,3.7,9.7V81C4,78.7,1.7,72.6,1.7,67.7c0-2.2,1.8-9.6,1.8-11.8c0-3.9-1-6.7-3-8.4
		C0.1,47.2,0,47,0,46.8c0-0.2,0.1-0.4,0.5-0.7c2-1.7,3-4.3,3-7.7c0-2.2-1.8-10.3-1.8-12.5c0-5.3,2.1-10.6,5.9-13.4V13.2z"/>
</g>
<rect x="548" y="12.5" width="0.8" height="68.5"/>
<rect x="550.5" y="12.5" width="2.5" height="68.5"/>
<rect x="8.6" y="32.1" width="544.4" height="0.5"/>
<rect x="8.6" y="27.2" width="544.4" height="0.5"/>
<rect x="8.6" y="22.2" width="544.4" height="0.5"/>
<rect x="8.6" y="17.2" width="544.4" height="0.5"/>
<rect x="8.6" y="12.3" width="544.4" height="0.5"/>
<g>
	<path d="M20.4,32.2c-4.2,0-8.1-3.1-8.1-6.9c0-3.2,2.3-6.7,6.8-10.5c-0.3-1.2-0.4-2.4-0.4-3.6c0-3.5,1.2-6.8,3.2-8.5
		c1.8,2.5,2.7,4.9,2.7,7.1c0,2.9-1.3,5.6-4.3,8.1l0.9,4.2c0.5,0,0.8-0.1,0.8-0.1c2.6,0,4.8,2,4.8,4.7c0,1.9-1.4,3.7-3.6,4.8
		c0-0.1,0.9,3.8,0.9,4.3c0,2.5-2.3,4.2-4.9,4.2c-2,0-3.6-1.3-3.6-3.4c0-1.4,1-2.6,2.4-2.6c1.3,0,2.3,1.3,2.3,2.5
		c0,1.4-1.2,2.3-2.7,2.5c0.6,0.3,1.2,0.5,1.9,0.5c2.1,0,4.1-1.6,4.1-3.6c0-0.2,0-0.4-0.1-0.6l-0.8-3.7
		C22.1,32.1,21.4,32.2,20.4,32.2z M18.2,27c0,1,0.5,1.9,1.6,2.5c-1.8-0.3-3-1.4-3-3.1c0-2,1.7-3.7,3.8-4.1l-0.8-4
		c-3.7,2.8-5.7,5.5-5.7,8.1c0,2.9,2.8,5.3,6,5.3c0.9,0,1.7-0.2,2.4-0.5l-1.4-6.8C19.5,24.6,18.2,25.6,18.2,27z M22.3,5.6
		c-1.6,0-2.9,3.7-2.9,7c0,0.7,0,1.3,0.2,1.9c2.7-2.4,4-4.5,4-6.5c0-0.9-0.3-1.7-1-2.4C22.5,5.7,22.4,5.6,22.3,5.6z M25,27.5
		c0-1.6-1.2-3.3-2.9-3.3c-0.1,0-0.2,0-0.5,0l1.4,6.6C24.4,30,25,28.8,25,27.5z"/>
</g>
<g>
	<path d="M29.7,14.1h0.6l-0.1,6.2c0.4-0.7,1-1,1.8-1c1.2,0,2.2,0.8,2.2,1.9c0,0.8-0.5,1.8-1.7,2.7l-2.8,2.1V14.1z M30.3,21
		c-0.1,0.8-0.1,1.4-0.1,1.9c0,1,0,1.6,0.1,2c1-0.7,2.4-2.6,2.4-3.7c0-0.6-0.5-1.1-1.1-1.1C31,20.2,30.6,20.5,30.3,21z"/>
</g>
<g>
	<path d="M35.3,6.7h0.6l-0.1,6.2c0.4-0.7,1-1,1.8-1c1.2,0,2.2,0.8,2.2,1.9c0,0.8-0.5,1.8-1.7,2.7l-2.8,2.1V6.7z M35.9,13.6
		c-0.1,0.8-0.1,1.4-0.1,1.9c0,1,0,1.6,0.1,2c1-0.7,2.4-2.6,2.4-3.7c0-0.6-0.5-1.1-1.1-1.1C36.6,12.8,36.1,13,35.9,13.6z"/>
</g>
<g>
	<path d="M40.9,16.6h0.6l-0.1,6.2c0.4-0.7,1-1,1.8-1c1.2,0,2.2,0.8,2.2,1.9c0,0.8-0.5,1.8-1.7,2.7l-2.8,2.1V16.6z M41.4,23.5
		c-0.1,0.8-0.1,1.4-0.1,1.9c0,1,0,1.6,0.1,2c1-0.7,2.4-2.6,2.4-3.7c0-0.6-0.5-1.1-1.1-1.1C42.1,22.7,41.7,23,41.4,23.5z"/>
</g>
<g>
	<path d="M46.4,9.2h0.6l-0.1,6.2c0.4-0.7,1-1,1.8-1c1.2,0,2.2,0.8,2.2,1.9c0,0.8-0.5,1.8-1.7,2.7l-2.8,2.1V9.2z M47,16.1
		c-0.1,0.8-0.1,1.4-0.1,1.9c0,1,0,1.6,0.1,2c1-0.7,2.4-2.6,2.4-3.7c0-0.6-0.5-1.1-1.1-1.1C47.7,15.2,47.3,15.5,47,16.1z"/>
</g>
<g>
	<path d="M52,19.1h0.6l-0.1,6.2c0.4-0.7,1-1,1.8-1c1.2,0,2.2,0.8,2.2,1.9c0,0.8-0.5,1.8-1.7,2.7L52,31V19.1z M52.6,26
		c-0.1,0.8-0.1,1.4-0.1,1.9c0,1,0,1.6,0.1,2c1-0.7,2.4-2.6,2.4-3.7c0-0.6-0.5-1.1-1.1-1.1C53.3,25.2,52.9,25.4,52.6,26z"/>
</g>
<g>
	<path d="M57.6,11.6h0.6l-0.1,6.2c0.4-0.7,1-1,1.8-1c1.2,0,2.2,0.8,2.2,1.9c0,0.8-0.5,1.8-1.7,2.7l-2.8,2.1V11.6z M58.2,18.6
		c-0.1,0.8-0.1,1.4-0.1,1.9c0,1,0,1.6,0.1,2c1-0.7,2.4-2.6,2.4-3.7c0-0.6-0.5-1.1-1.1-1.1C58.9,17.7,58.5,18,58.2,18.6z"/>
</g>
<rect x="8.6" y="80.8" width="544.4" height="0.5"/>
<rect x="8.6" y="75.8" width="544.4" height="0.5"/>
<rect x="8.6" y="70.9" width="544.4" height="0.5"/>
<rect x="8.6" y="65.9" width="544.4" height="0.5"/>
<rect x="8.6" y="61" width="544.4" height="0.5"/>
<g>
	<path d="M15.9,75.4c2.9-2.6,4.7-6.1,4.7-9.2c0-2.5-1.4-4.4-3.7-4.4c-1.6,0-3.4,1.3-3.4,2.7c0,0.2,0,0.3,0.1,0.3
		c-0.1,0,0.6-0.6,1.4-0.6c0.9,0,1.5,0.8,1.5,1.7c0,1.2-0.9,2.2-2.1,2.2c-1.2,0-2.1-1.3-2.1-2.8c0-2.3,2.3-4.1,4.8-4.1
		c4.7,0,5.9,3.2,5.9,5.8c0,1.6-0.4,2.9-2,5.3c-1.9,3.1-6.4,5.3-8.1,5.3c-0.4,0-0.6-0.2-0.6-0.5C14,76.6,15.1,76.1,15.9,75.4z
		 M25.8,62.7c0.6,0,1,0.4,1,1s-0.4,1-1,1s-1-0.4-1-1S25.3,62.7,25.8,62.7z M25.8,67.6c0.6,0,1,0.4,1,1c0,0.6-0.4,1-1,1s-1-0.4-1-1
		C24.8,68.1,25.3,67.6,25.8,67.6z"/>
</g>
<g>
	<path d="M29.7,67.8h0.6L30.2,74c0.4-0.7,1-1,1.8-1c1.2,0,2.2,0.8,2.2,1.9c0,0.8-0.5,1.8-1.7,2.7l-2.8,2.1V67.8z M30.3,74.7
		c-0.1,0.8-0.1,1.4-0.1,1.9c0,1,0,1.6,0.1,2c1-0.7,2.4-2.6,2.4-3.7c0-0.6-0.5-1.1-1.1-1.1C31,73.8,30.6,74.1,30.3,74.7z"/>
</g>
<g>
	<path d="M35.3,60.3h0.6l-0.1,6.2c0.4-0.7,1-1,1.8-1c1.2,0,2.2,0.8,2.2,1.9c0,0.8-0.5,1.8-1.7,2.7l-2.8,2.1V60.3z M35.9,67.2
		c-0.1,0.8-0.1,1.4-0.1,1.9c0,1,0,1.6,0.1,2c1-0.7,2.4-2.6,2.4-3.7c0-0.6-0.5-1.1-1.1-1.1C36.6,66.4,36.1,66.7,35.9,67.2z"/>
</g>
<g>
	<path d="M40.9,70.2h0.6l-0.1,6.2c0.4-0.7,1-1,1.8-1c1.2,0,2.2,0.8,2.2,1.9c0,0.8-0.5,1.8-1.7,2.7l-2.8,2.1V70.2z M41.4,77.1
		c-0.1,0.8-0.1,1.4-0.1,1.9c0,1,0,1.6,0.1,2c1-0.7,2.4-2.6,2.4-3.7c0-0.6-0.5-1.1-1.1-1.1C42.1,76.3,41.7,76.6,41.4,77.1z"/>
</g>
<g>
	<path d="M46.4,62.8h0.6L46.9,69c0.4-0.7,1-1,1.8-1c1.2,0,2.2,0.8,2.2,1.9c0,0.8-0.5,1.8-1.7,2.7l-2.8,2.1V62.8z M47,69.7
		c-0.1,0.8-0.1,1.4-0.1,1.9c0,1,0,1.6,0.1,2c1-0.7,2.4-2.6,2.4-3.7c0-0.6-0.5-1.1-1.1-1.1C47.7,68.9,47.3,69.1,47,69.7z"/>
</g>
<g>
	<path d="M52,72.7h0.6L52.5,79c0.4-0.7,1-1,1.8-1c1.2,0,2.2,0.8,2.2,1.9c0,0.8-0.5,1.8-1.7,2.7L52,84.7V72.7z M52.6,79.6
		c-0.1,0.8-0.1,1.4-0.1,1.9c0,1,0,1.6,0.1,2c1-0.7,2.4-2.6,2.4-3.7c0-0.6-0.5-1.1-1.1-1.1C53.3,78.8,52.9,79.1,52.6,79.6z"/>
</g>
<g>
	<path d="M57.6,65.3h0.6l-0.1,6.2c0.4-0.7,1-1,1.8-1c1.2,0,2.2,0.8,2.2,1.9c0,0.8-0.5,1.8-1.7,2.7l-2.8,2.1V65.3z M58.2,72.2
		c-0.1,0.8-0.1,1.4-0.1,1.9c0,1,0,1.6,0.1,2c1-0.7,2.4-2.6,2.4-3.7c0-0.6-0.5-1.1-1.1-1.1C58.9,71.4,58.5,71.6,58.2,72.2z"/>
</g>
<g>
	<path d="M156.5,79.7c-3.2,0-6.1-2.3-6.1-5.1c0-2.4,1.7-5,5.1-7.9c-0.2-0.9-0.3-1.8-0.3-2.7c0-2.6,0.9-5.1,2.4-6.3
		c1.4,1.9,2,3.7,2,5.3c0,2.2-1,4.2-3.2,6.1l0.7,3.1c0.4,0,0.6,0,0.6,0c2,0,3.6,1.5,3.6,3.5c0,1.4-1.1,2.8-2.7,3.6
		c0-0.1,0.6,2.8,0.6,3.3c0,1.9-1.7,3.2-3.7,3.2c-1.5,0-2.7-1-2.7-2.5c0-1.1,0.7-1.9,1.8-1.9c1,0,1.7,1,1.7,1.9c0,1-0.9,1.7-2,1.8
		c0.4,0.2,0.9,0.3,1.4,0.3c1.6,0,3.1-1.2,3.1-2.7c0-0.1,0-0.3,0-0.5l-0.6-2.8C157.8,79.6,157.2,79.7,156.5,79.7z M154.9,75.8
		c0,0.8,0.4,1.4,1.2,1.9c-1.3-0.2-2.2-1.1-2.2-2.3c0-1.5,1.3-2.8,2.9-3.1l-0.6-3c-2.8,2.1-4.3,4.1-4.3,6.1c0,2.2,2.1,4,4.5,4
		c0.7,0,1.3-0.1,1.8-0.4l-1.1-5.1C155.8,74,154.9,74.7,154.9,75.8z M157.9,59.8c-1.2,0-2.2,2.8-2.2,5.3c0,0.5,0,1,0.1,1.4
		c2-1.8,3-3.4,3-4.8c0-0.7-0.3-1.3-0.7-1.8C158.1,59.8,158,59.8,157.9,59.8z M160,76.2c0-1.2-0.9-2.4-2.2-2.4c0,0-0.2,0-0.4,0l1.1,5
		C159.5,78,160,77.1,160,76.2z"/>
</g>
<g>
	<path d="M395.7,73.1c2.2-2,3.6-4.6,3.6-6.9c0-1.9-1.1-3.3-2.8-3.3c-1.2,0-2.5,1-2.5,2.1c0,0.2,0,0.2,0.1,0.2c0,0,0.4-0.5,1-0.5
		c0.7,0,1.2,0.6,1.2,1.3c0,0.9-0.6,1.7-1.6,1.7s-1.5-1-1.5-2.1c0-1.8,1.7-3.1,3.6-3.1c3.5,0,4.4,2.4,4.4,4.4c0,1.2-0.3,2.2-1.5,4
		c-1.4,2.3-4.8,4-6,4c-0.3,0-0.5-0.1-0.5-0.3C394.3,74,395.1,73.6,395.7,73.1z M403.2,63.5c0.4,0,0.7,0.3,0.7,0.7
		c0,0.4-0.3,0.7-0.7,0.7c-0.4,0-0.7-0.3-0.7-0.7C402.4,63.9,402.8,63.5,403.2,63.5z M403.2,67.3c0.4,0,0.7,0.3,0.7,0.7
		c0,0.4-0.3,0.7-0.7,0.7c-0.4,0-0.7-0.3-0.7-0.7C402.4,67.6,402.8,67.3,403.2,67.3z"/>
</g>
<rect x="70.5" y="20.7" width="0.5" height="27.7"/>
<g>
	<path d="M70.6,20.8c0-1.8,2.5-3.5,4.5-3.5c1.3,0,2.3,0.7,2.3,1.7c0,1.7-2.5,3.5-4.6,3.5C71.6,22.5,70.6,21.9,70.6,20.8z"/>
</g>
<g>
	<path d="M70.6,25.8c0-1.8,2.5-3.5,4.5-3.5c1.3,0,2.3,0.7,2.3,1.7c0,1.7-2.5,3.5-4.6,3.5C71.6,27.5,70.6,26.9,70.6,25.8z"/>
</g>
<g>
	<path d="M70.6,30.7c0-1.8,2.5-3.5,4.5-3.5c1.3,0,2.3,0.7,2.3,1.7c0,1.7-2.5,3.5-4.6,3.5C71.6,32.5,70.6,31.8,70.6,30.7z"/>
</g>
<g>
	<path d="M70.6,35.7c0-1.8,2.5-3.5,4.5-3.5c1.3,0,2.3,0.7,2.3,1.7c0,1.7-2.5,3.5-4.6,3.5C71.6,37.4,70.6,36.8,70.6,35.7z"/>
</g>
<g>
	<path d="M68.7,41.6v-4l-3,1.1V28h0.5v4l3-1.1v10.7H68.7z M66.2,36.9l2.5-0.9v-3.3l-2.5,0.9V36.9z"/>
</g>
<rect x="126" y="2.6" width="0.5" height="26.5"/>
<g>
	<path d="M119.6,30.7c0-1.8,2.5-3.5,4.5-3.5c1.3,0,2.3,0.7,2.3,1.7c0,1.7-2.5,3.5-4.6,3.5C120.6,32.5,119.6,31.8,119.6,30.7z"/>
</g>
<g>
	<path d="M119.6,25.8c0-1.8,2.5-3.5,4.5-3.5c1.3,0,2.3,0.7,2.3,1.7c0,1.7-2.5,3.5-4.6,3.5C120.6,27.5,119.6,26.9,119.6,25.8z"/>
</g>
<g>
	<path d="M119.6,20.8c0-1.8,2.5-3.5,4.5-3.5c1.3,0,2.3,0.7,2.3,1.7c0,1.7-2.5,3.5-4.6,3.5C120.6,22.5,119.6,21.9,119.6,20.8z"/>
</g>
<g>
	<path d="M126,18.3c0-1.8,2.5-3.5,4.5-3.5c1.3,0,2.3,0.7,2.3,1.7c0,1.7-2.5,3.5-4.6,3.5C126.9,20.1,126,19.4,126,18.3z"/>
</g>
<g>
	<path d="M117.7,24.2v-4l-3,1.1V10.7h0.5v4l3-1.1v10.7H117.7z M115.1,19.6l2.5-0.9v-3.3l-2.5,0.9V19.6z"/>
</g>
<rect x="168.5" y="13.3" width="0.5" height="27.7"/>
<g>
	<path d="M168.6,13.4c0-1.8,2.5-3.5,4.5-3.5c1.3,0,2.3,0.7,2.3,1.7c0,1.7-2.5,3.5-4.6,3.5C169.6,15.1,168.6,14.5,168.6,13.4z"/>
</g>
<g>
	<path d="M168.6,18.3c0-1.8,2.5-3.5,4.5-3.5c1.3,0,2.3,0.7,2.3,1.7c0,1.7-2.5,3.5-4.6,3.5C169.6,20.1,168.6,19.4,168.6,18.3z"/>
</g>
<g>
	<path d="M162.2,20.8c0-1.8,2.5-3.5,4.5-3.5c1.3,0,2.3,0.7,2.3,1.7c0,1.7-2.5,3.5-4.6,3.5C163.2,22.5,162.2,21.9,162.2,20.8z"/>
</g>
<g>
	<path d="M168.6,25.8c0-1.8,2.5-3.5,4.5-3.5c1.3,0,2.3,0.7,2.3,1.7c0,1.7-2.5,3.5-4.6,3.5C169.6,27.5,168.6,26.9,168.6,25.8z"/>
</g>
<rect x="215.7" y="7.2" width="10.5" height="0.8"/>
<rect x="217.5" y="8.3" width="0.5" height="29"/>
<g>
	<path d="M217.6,8.4c0-1.8,2.5-3.5,4.5-3.5c1.3,0,2.3,0.7,2.3,1.7c0,1.7-2.5,3.5-4.6,3.5C218.5,10.1,217.6,9.5,217.6,8.4z"/>
</g>
<g>
	<path d="M217.6,13.4c0-1.8,2.5-3.5,4.5-3.5c1.3,0,2.3,0.7,2.3,1.7c0,1.7-2.5,3.5-4.6,3.5C218.5,15.1,217.6,14.5,217.6,13.4z"/>
</g>
<g>
	<path d="M217.6,18.3c0-1.8,2.5-3.5,4.5-3.5c1.3,0,2.3,0.7,2.3,1.7c0,1.7-2.5,3.5-4.6,3.5C218.5,20.1,217.6,19.4,217.6,18.3z"/>
</g>
<g>
	<path d="M211.2,20.8c0-1.8,2.5-3.5,4.5-3.5c1.3,0,2.3,0.7,2.3,1.7c0,1.7-2.5,3.5-4.6,3.5C212.2,22.5,211.2,21.9,211.2,20.8z"/>
</g>
<rect x="264.7" y="7.2" width="10.5" height="0.8"/>
<rect x="264.7" y="2.2" width="10.5" height="0.8"/>
<rect x="266.5" y="3.4" width="0.5" height="31.5"/>
<g>
	<path d="M266.6,3.5c0-1.8,2.5-3.5,4.5-3.5c1.3,0,2.3,0.7,2.3,1.7c0,1.7-2.5,3.5-4.6,3.5C267.5,5.2,266.6,4.5,266.6,3.5z"/>
</g>
<g>
	<path d="M266.6,8.4c0-1.8,2.5-3.5,4.5-3.5c1.3,0,2.3,0.7,2.3,1.7c0,1.7-2.5,3.5-4.6,3.5C267.5,10.1,266.6,9.5,266.6,8.4z"/>
</g>
<g>
	<path d="M266.6,13.4c0-1.8,2.5-3.5,4.5-3.5c1.3,0,2.3,0.7,2.3,1.7c0,1.7-2.5,3.5-4.6,3.5C267.5,15.1,266.6,14.5,266.6,13.4z"/>
</g>
<g>
	<path d="M266.6,18.3c0-1.8,2.5-3.5,4.5-3.5c1.3,0,2.3,0.7,2.3,1.7c0,1.7-2.5,3.5-4.6,3.5C267.5,20.1,266.6,19.4,266.6,18.3z"/>
</g>
<rect x="313.5" y="7.2" width="10.5" height="0.8"/>
<rect x="315.3" y="8.3" width="0.5" height="29"/>
<g>
	<path d="M315.4,8.4c0-1.8,2.5-3.5,4.5-3.5c1.3,0,2.3,0.7,2.3,1.7c0,1.7-2.5,3.5-4.6,3.5C316.4,10.1,315.4,9.5,315.4,8.4z"/>
</g>
<g>
	<path d="M315.4,13.4c0-1.8,2.5-3.5,4.5-3.5c1.3,0,2.3,0.7,2.3,1.7c0,1.7-2.5,3.5-4.6,3.5C316.4,15.1,315.4,14.5,315.4,13.4z"/>
</g>
<g>
	<path d="M315.4,18.3c0-1.8,2.5-3.5,4.5-3.5c1.3,0,2.3,0.7,2.3,1.7c0,1.7-2.5,3.5-4.6,3.5C316.4,20.1,315.4,19.4,315.4,18.3z"/>
</g>
<g>
	<path d="M309,20.8c0-1.8,2.5-3.5,4.5-3.5c1.3,0,2.3,0.7,2.3,1.7c0,1.7-2.5,3.5-4.6,3.5C310,22.5,309,21.9,309,20.8z"/>
</g>
<rect x="364.3" y="13.3" width="0.5" height="27.7"/>
<g>
	<path d="M364.4,13.4c0-1.8,2.5-3.5,4.5-3.5c1.3,0,2.3,0.7,2.3,1.7c0,1.7-2.5,3.5-4.6,3.5C365.3,15.1,364.4,14.5,364.4,13.4z"/>
</g>
<g>
	<path d="M364.4,18.3c0-1.8,2.5-3.5,4.5-3.5c1.3,0,2.3,0.7,2.3,1.7c0,1.7-2.5,3.5-4.6,3.5C365.3,20.1,364.4,19.4,364.4,18.3z"/>
</g>
<g>
	<path d="M358,20.8c0-1.8,2.5-3.5,4.5-3.5c1.3,0,2.3,0.7,2.3,1.7c0,1.7-2.5,3.5-4.6,3.5C359,22.5,358,21.9,358,20.8z"/>
</g>
<g>
	<path d="M364.4,25.8c0-1.8,2.5-3.5,4.5-3.5c1.3,0,2.3,0.7,2.3,1.7c0,1.7-2.5,3.5-4.6,3.5C365.3,27.5,364.4,26.9,364.4,25.8z"/>
</g>
<rect x="419.8" y="2.6" width="0.5" height="26.5"/>
<g>
	<path d="M413.4,30.7c0-1.8,2.5-3.5,4.5-3.5c1.3,0,2.3,0.7,2.3,1.7c0,1.7-2.5,3.5-4.6,3.5C414.3,32.5,413.4,31.8,413.4,30.7z"/>
</g>
<g>
	<path d="M413.4,25.8c0-1.8,2.5-3.5,4.5-3.5c1.3,0,2.3,0.7,2.3,1.7c0,1.7-2.5,3.5-4.6,3.5C414.3,27.5,413.4,26.9,413.4,25.8z"/>
</g>
<g>
	<path d="M413.4,20.8c0-1.8,2.5-3.5,4.5-3.5c1.3,0,2.3,0.7,2.3,1.7c0,1.7-2.5,3.5-4.6,3.5C414.3,22.5,413.4,21.9,413.4,20.8z"/>
</g>
<g>
	<path d="M419.7,18.3c0-1.8,2.5-3.5,4.5-3.5c1.3,0,2.3,0.7,2.3,1.7c0,1.7-2.5,3.5-4.6,3.5C420.7,20.1,419.7,19.4,419.7,18.3z"/>
</g>
<rect x="468.9" y="3.8" width="0.5" height="30.2"/>
<g>
	<path d="M466.6,32.1c1.6,0,2.7,0.7,2.7,2c0,1.9-2.3,3.4-4.5,3.4c-1.3,0-2.4-0.7-2.4-1.8C462.3,33.9,464.6,32.1,466.6,32.1z
		 M462.8,36c0,0.6,0.4,0.9,1.1,0.9c1.4,0,4.9-2.1,4.9-3.3c0-0.6-0.4-0.9-1.1-0.9C466.5,32.7,462.8,34.8,462.8,36z"/>
</g>
<g>
	<path d="M466.6,27.2c1.6,0,2.7,0.7,2.7,2c0,1.9-2.3,3.4-4.5,3.4c-1.3,0-2.4-0.7-2.4-1.8C462.3,29,464.6,27.2,466.6,27.2z M462.8,31
		c0,0.6,0.4,0.9,1.1,0.9c1.4,0,4.9-2.1,4.9-3.3c0-0.6-0.4-0.9-1.1-0.9C466.5,27.8,462.8,29.8,462.8,31z"/>
</g>
<g>
	<path d="M466.6,22.2c1.6,0,2.7,0.7,2.7,2c0,1.9-2.3,3.4-4.5,3.4c-1.3,0-2.4-0.7-2.4-1.8C462.3,24,464.6,22.2,466.6,22.2z
		 M462.8,26.1c0,0.6,0.4,0.9,1.1,0.9c1.4,0,4.9-2.1,4.9-3.3c0-0.6-0.4-0.9-1.1-0.9C466.5,22.8,462.8,24.8,462.8,26.1z"/>
</g>
<g>
	<path d="M466.6,17.3c1.6,0,2.7,0.7,2.7,2c0,1.9-2.3,3.4-4.5,3.4c-1.3,0-2.4-0.7-2.4-1.8C462.3,19,464.6,17.3,466.6,17.3z
		 M462.8,21.1c0,0.6,0.4,0.9,1.1,0.9c1.4,0,4.9-2.1,4.9-3.3c0-0.6-0.4-0.9-1.1-0.9C466.5,17.9,462.8,19.9,462.8,21.1z"/>
</g>
<rect x="68.8" y="55.8" width="10.5" height="0.8"/>
<rect x="77.1" y="42.6" width="0.5" height="27.7"/>
<g>
	<path d="M70.6,72c0-1.8,2.5-3.5,4.5-3.5c1.3,0,2.3,0.7,2.3,1.7c0,1.7-2.5,3.5-4.6,3.5C71.6,73.7,70.6,73.1,70.6,72z"/>
</g>
<g>
	<path d="M70.6,67c0-1.8,2.5-3.5,4.5-3.5c1.3,0,2.3,0.7,2.3,1.7c0,1.7-2.5,3.5-4.6,3.5C71.6,68.7,70.6,68.1,70.6,67z"/>
</g>
<g>
	<path d="M70.6,62c0-1.8,2.5-3.5,4.5-3.5c1.3,0,2.3,0.7,2.3,1.7c0,1.7-2.5,3.5-4.6,3.5C71.6,63.8,70.6,63.1,70.6,62z"/>
</g>
<g>
	<path d="M70.6,57.1c0-1.8,2.5-3.5,4.5-3.5c1.3,0,2.3,0.7,2.3,1.7c0,1.7-2.5,3.5-4.6,3.5C71.6,58.8,70.6,58.2,70.6,57.1z"/>
</g>
<g>
	<path d="M68.7,77.9v-4l-3,1.1V64.3h0.5v4l3-1.1v10.7H68.7z M66.2,73.2l2.5-0.9V69l-2.5,0.9V73.2z"/>
</g>
<rect x="117.7" y="55.8" width="10.5" height="0.8"/>
<rect x="111.4" y="55.8" width="10.5" height="0.8"/>
<rect x="119.5" y="54.5" width="0.5" height="29"/>
<g>
	<path d="M119.6,54.6c0-1.8,2.5-3.5,4.5-3.5c1.3,0,2.3,0.7,2.3,1.7c0,1.7-2.5,3.5-4.6,3.5C120.6,56.3,119.6,55.7,119.6,54.6z"/>
</g>
<g>
	<path d="M113.2,57.1c0-1.8,2.5-3.5,4.5-3.5c1.3,0,2.3,0.7,2.3,1.7c0,1.7-2.5,3.5-4.6,3.5C114.2,58.8,113.2,58.2,113.2,57.1z"/>
</g>
<g>
	<path d="M119.6,62c0-1.8,2.5-3.5,4.5-3.5c1.3,0,2.3,0.7,2.3,1.7c0,1.7-2.5,3.5-4.6,3.5C120.6,63.8,119.6,63.1,119.6,62z"/>
</g>
<g>
	<path d="M119.6,67c0-1.8,2.5-3.5,4.5-3.5c1.3,0,2.3,0.7,2.3,1.7c0,1.7-2.5,3.5-4.6,3.5C120.6,68.7,119.6,68.1,119.6,67z"/>
</g>
<g>
	<path d="M110.9,60.5v-4l-3,1.1V46.9h0.5v4l3-1.1v10.7H110.9z M108.3,55.9l2.5-0.9v-3.3l-2.5,0.9V55.9z"/>
</g>
<rect x="166.7" y="85.6" width="10.5" height="0.8"/>
<rect x="166.7" y="90.6" width="10.5" height="0.8"/>
<rect x="175" y="61.2" width="0.5" height="29"/>
<g>
	<path d="M168.6,91.8c0-1.8,2.5-3.5,4.5-3.5c1.3,0,2.3,0.7,2.3,1.7c0,1.7-2.5,3.5-4.6,3.5C169.6,93.5,168.6,92.9,168.6,91.8z"/>
</g>
<g>
	<path d="M168.6,86.8c0-1.8,2.5-3.5,4.5-3.5c1.3,0,2.3,0.7,2.3,1.7c0,1.7-2.5,3.5-4.6,3.5C169.6,88.6,168.6,87.9,168.6,86.8z"/>
</g>
<g>
	<path d="M174.9,84.4c0-1.8,2.5-3.5,4.5-3.5c1.3,0,2.3,0.7,2.3,1.7c0,1.7-2.5,3.5-4.6,3.5C175.9,86.1,174.9,85.5,174.9,84.4z"/>
</g>
<g>
	<path d="M168.6,79.4c0-1.8,2.5-3.5,4.5-3.5c1.3,0,2.3,0.7,2.3,1.7c0,1.7-2.5,3.5-4.6,3.5C169.6,81.1,168.6,80.5,168.6,79.4z"/>
</g>
<g>
	<path d="M165.4,90.3v-4l-3,1.1V76.7h0.5v4l3-1.1v10.7H165.4z M162.9,85.6l2.5-0.9v-3.3l-2.5,0.9V85.6z"/>
</g>
<rect x="215.7" y="85.6" width="10.5" height="0.8"/>
<rect x="224" y="56.2" width="0.5" height="29"/>
<g>
	<path d="M217.6,86.8c0-1.8,2.5-3.5,4.5-3.5c1.3,0,2.3,0.7,2.3,1.7c0,1.7-2.5,3.5-4.6,3.5C218.5,88.6,217.6,87.9,217.6,86.8z"/>
</g>
<g>
	<path d="M223.9,84.4c0-1.8,2.5-3.5,4.5-3.5c1.3,0,2.3,0.7,2.3,1.7c0,1.7-2.5,3.5-4.6,3.5C224.9,86.1,223.9,85.5,223.9,84.4z"/>
</g>
<g>
	<path d="M217.6,79.4c0-1.8,2.5-3.5,4.5-3.5c1.3,0,2.3,0.7,2.3,1.7c0,1.7-2.5,3.5-4.6,3.5C218.5,81.1,217.6,80.5,217.6,79.4z"/>
</g>
<g>
	<path d="M217.6,74.4c0-1.8,2.5-3.5,4.5-3.5c1.3,0,2.3,0.7,2.3,1.7c0,1.7-2.5,3.5-4.6,3.5C218.5,76.2,217.6,75.5,217.6,74.4z"/>
</g>
<rect x="273" y="52.5" width="0.5" height="30.2"/>
<g>
	<path d="M266.6,84.4c0-1.8,2.5-3.5,4.5-3.5c1.3,0,2.3,0.7,2.3,1.7c0,1.7-2.5,3.5-4.6,3.5C267.5,86.1,266.6,85.5,266.6,84.4z"/>
</g>
<g>
	<path d="M266.6,79.4c0-1.8,2.5-3.5,4.5-3.5c1.3,0,2.3,0.7,2.3,1.7c0,1.7-2.5,3.5-4.6,3.5C267.5,81.1,266.6,80.5,266.6,79.4z"/>
</g>
<g>
	<path d="M266.6,74.4c0-1.8,2.5-3.5,4.5-3.5c1.3,0,2.3,0.7,2.3,1.7c0,1.7-2.5,3.5-4.6,3.5C267.5,76.2,266.6,75.5,266.6,74.4z"/>
</g>
<g>
	<path d="M266.6,69.5c0-1.8,2.5-3.5,4.5-3.5c1.3,0,2.3,0.7,2.3,1.7c0,1.7-2.5,3.5-4.6,3.5C267.5,71.2,266.6,70.6,266.6,69.5z"/>
</g>
<rect x="313.5" y="85.6" width="10.5" height="0.8"/>
<rect x="321.8" y="56.2" width="0.5" height="29"/>
<g>
	<path d="M315.4,86.8c0-1.8,2.5-3.5,4.5-3.5c1.3,0,2.3,0.7,2.3,1.7c0,1.7-2.5,3.5-4.6,3.5C316.4,88.6,315.4,87.9,315.4,86.8z"/>
</g>
<g>
	<path d="M321.7,84.4c0-1.8,2.5-3.5,4.5-3.5c1.3,0,2.3,0.7,2.3,1.7c0,1.7-2.5,3.5-4.6,3.5C322.7,86.1,321.7,85.5,321.7,84.4z"/>
</g>
<g>
	<path d="M315.4,79.4c0-1.8,2.5-3.5,4.5-3.5c1.3,0,2.3,0.7,2.3,1.7c0,1.7-2.5,3.5-4.6,3.5C316.4,81.1,315.4,80.5,315.4,79.4z"/>
</g>
<g>
	<path d="M315.4,74.4c0-1.8,2.5-3.5,4.5-3.5c1.3,0,2.3,0.7,2.3,1.7c0,1.7-2.5,3.5-4.6,3.5C316.4,76.2,315.4,75.5,315.4,74.4z"/>
</g>
<rect x="362.5" y="85.6" width="10.5" height="0.8"/>
<rect x="362.5" y="90.6" width="10.5" height="0.8"/>
<rect x="370.8" y="61.2" width="0.5" height="29"/>
<g>
	<path d="M364.4,91.8c0-1.8,2.5-3.5,4.5-3.5c1.3,0,2.3,0.7,2.3,1.7c0,1.7-2.5,3.5-4.6,3.5C365.3,93.5,364.4,92.9,364.4,91.8z"/>
</g>
<g>
	<path d="M364.4,86.8c0-1.8,2.5-3.5,4.5-3.5c1.3,0,2.3,0.7,2.3,1.7c0,1.7-2.5,3.5-4.6,3.5C365.3,88.6,364.4,87.9,364.4,86.8z"/>
</g>
<g>
	<path d="M370.7,84.4c0-1.8,2.5-3.5,4.5-3.5c1.3,0,2.3,0.7,2.3,1.7c0,1.7-2.5,3.5-4.6,3.5C371.7,86.1,370.7,85.5,370.7,84.4z"/>
</g>
<g>
	<path d="M364.4,79.4c0-1.8,2.5-3.5,4.5-3.5c1.3,0,2.3,0.7,2.3,1.7c0,1.7-2.5,3.5-4.6,3.5C365.3,81.1,364.4,80.5,364.4,79.4z"/>
</g>
<rect x="411.5" y="55.8" width="10.5" height="0.8"/>
<rect x="405.1" y="55.8" width="10.5" height="0.8"/>
<rect x="413.3" y="54.5" width="0.5" height="29"/>
<g>
	<path d="M413.4,54.6c0-1.8,2.5-3.5,4.5-3.5c1.3,0,2.3,0.7,2.3,1.7c0,1.7-2.5,3.5-4.6,3.5C414.3,56.3,413.4,55.7,413.4,54.6z"/>
</g>
<g>
	<path d="M407,57.1c0-1.8,2.5-3.5,4.5-3.5c1.3,0,2.3,0.7,2.3,1.7c0,1.7-2.5,3.5-4.6,3.5C408,58.8,407,58.2,407,57.1z"/>
</g>
<g>
	<path d="M413.4,62c0-1.8,2.5-3.5,4.5-3.5c1.3,0,2.3,0.7,2.3,1.7c0,1.7-2.5,3.5-4.6,3.5C414.3,63.8,413.4,63.1,413.4,62z"/>
</g>
<g>
	<path d="M413.4,67c0-1.8,2.5-3.5,4.5-3.5c1.3,0,2.3,0.7,2.3,1.7c0,1.7-2.5,3.5-4.6,3.5C414.3,68.7,413.4,68.1,413.4,67z"/>
</g>
<rect x="460.5" y="55.8" width="10.7" height="0.8"/>
<rect x="462.3" y="57" width="0.5" height="31.5"/>
<g>
	<path d="M466.6,53.5c1.6,0,2.7,0.7,2.7,2c0,1.9-2.3,3.4-4.5,3.4c-1.3,0-2.4-0.7-2.4-1.8C462.3,55.3,464.6,53.5,466.6,53.5z
		 M462.8,57.4c0,0.6,0.4,0.9,1.1,0.9c1.4,0,4.9-2.1,4.9-3.3c0-0.6-0.4-0.9-1.1-0.9C466.5,54.1,462.8,56.2,462.8,57.4z"/>
</g>
<g>
	<path d="M466.6,58.5c1.6,0,2.7,0.7,2.7,2c0,1.9-2.3,3.4-4.5,3.4c-1.3,0-2.4-0.7-2.4-1.8C462.3,60.3,464.6,58.5,466.6,58.5z
		 M462.8,62.3c0,0.6,0.4,0.9,1.1,0.9c1.4,0,4.9-2.1,4.9-3.3c0-0.6-0.4-0.9-1.1-0.9C466.5,59.1,462.8,61.1,462.8,62.3z"/>
</g>
<g>
	<path d="M466.6,63.5c1.6,0,2.7,0.7,2.7,2c0,1.9-2.3,3.4-4.5,3.4c-1.3,0-2.4-0.7-2.4-1.8C462.3,65.2,464.6,63.5,466.6,63.5z
		 M462.8,67.3c0,0.6,0.4,0.9,1.1,0.9c1.4,0,4.9-2.1,4.9-3.3c0-0.6-0.4-0.9-1.1-0.9C466.5,64,462.8,66.1,462.8,67.3z"/>
</g>
<g>
	<path d="M466.6,68.4c1.6,0,2.7,0.7,2.7,2c0,1.9-2.3,3.4-4.5,3.4c-1.3,0-2.4-0.7-2.4-1.8C462.3,70.2,464.6,68.4,466.6,68.4z
		 M462.8,72.3c0,0.6,0.4,0.9,1.1,0.9c1.4,0,4.9-2.1,4.9-3.3c0-0.6-0.4-0.9-1.1-0.9C466.5,69,462.8,71,462.8,72.3z"/>
</g>
</svg>
