<?xml version="1.0" encoding="utf-8"?>

<!--
	ScaleBook
	Copyright (c) Leland Jansen 2015. All rights reserved.
-->

<!DOCTYPE svg PUBLIC "-//W3C//DTD SVG 1.1//EN" "http://www.w3.org/Graphics/SVG/1.1/DTD/svg11.dtd">
<svg version="1.1" id="Layer_1" xmlns="http://www.w3.org/2000/svg" xmlns:xlink="http://www.w3.org/1999/xlink" x="0px" y="0px"
	 viewBox="0 0 553 93.5" enable-background="new 0 0 553 93.5" xml:space="preserve">
<rect x="8.5" y="12.5" width="0.8" height="68.5"/>
<g>
	<path d="M7.6,13.2c-2,1.1-3.7,5.9-3.7,9.7c0,2.3,1.4,10.1,1.4,12.5c0,5.1-1.6,8.8-4.7,11.4c3.1,2.5,4.7,6.2,4.7,11.3
		c0,2.3-1.4,10.1-1.4,12.5c0,3.9,1.8,8.6,3.7,9.7V81C4,78.7,1.7,72.6,1.7,67.7c0-2.2,1.8-9.6,1.8-11.8c0-3.9-1-6.7-3-8.4
		C0.1,47.2,0,47,0,46.8c0-0.2,0.1-0.4,0.5-0.7c2-1.7,3-4.3,3-7.7c0-2.2-1.8-10.3-1.8-12.5c0-5.3,2.1-10.6,5.9-13.4V13.2z"/>
</g>
<rect x="548" y="12.5" width="0.8" height="68.5"/>
<rect x="550.5" y="12.5" width="2.5" height="68.5"/>
<rect x="8.6" y="32.1" width="544.4" height="0.5"/>
<rect x="8.6" y="27.2" width="544.4" height="0.5"/>
<rect x="8.6" y="22.2" width="544.4" height="0.5"/>
<rect x="8.6" y="17.2" width="544.4" height="0.5"/>
<rect x="8.6" y="12.3" width="544.4" height="0.5"/>
<g>
	<path d="M20.4,32.2c-4.2,0-8.1-3.1-8.1-6.9c0-3.2,2.3-6.7,6.8-10.5c-0.3-1.2-0.4-2.4-0.4-3.6c0-3.5,1.2-6.8,3.2-8.5
		c1.8,2.5,2.7,4.9,2.7,7.1c0,2.9-1.3,5.6-4.3,8.1l0.9,4.2c0.5,0,0.8-0.1,0.8-0.1c2.6,0,4.8,2,4.8,4.7c0,1.9-1.4,3.7-3.6,4.8
		c0-0.1,0.9,3.8,0.9,4.3c0,2.5-2.3,4.2-4.9,4.2c-2,0-3.6-1.3-3.6-3.4c0-1.4,1-2.6,2.4-2.6c1.3,0,2.3,1.3,2.3,2.5
		c0,1.4-1.2,2.3-2.7,2.5c0.6,0.3,1.2,0.5,1.9,0.5c2.1,0,4.1-1.6,4.1-3.6c0-0.2,0-0.4-0.1-0.6l-0.8-3.7
		C22.1,32.1,21.4,32.2,20.4,32.2z M18.2,27c0,1,0.5,1.9,1.6,2.5c-1.8-0.3-3-1.4-3-3.1c0-2,1.7-3.7,3.8-4.1l-0.8-4
		c-3.7,2.8-5.7,5.5-5.7,8.1c0,2.9,2.8,5.3,6,5.3c0.9,0,1.7-0.2,2.4-0.5l-1.4-6.8C19.5,24.6,18.2,25.6,18.2,27z M22.3,5.6
		c-1.6,0-2.9,3.7-2.9,7c0,0.7,0,1.3,0.2,1.9c2.7-2.4,4-4.5,4-6.5c0-0.9-0.3-1.7-1-2.4C22.5,5.7,22.4,5.6,22.3,5.6z M25,27.5
		c0-1.6-1.2-3.3-2.9-3.3c-0.1,0-0.2,0-0.5,0l1.4,6.6C24.4,30,25,28.8,25,27.5z"/>
</g>
<g>
	<path d="M33.6,5.7v2.8l1-0.3V10l-1,0.3v3.4l1-0.3v1.8l-1,0.3v3.1h-0.5v-3l-1.9,0.6v3h-0.5v-2.8l-1,0.3V15l1-0.3v-3.4l-1,0.3V9.8
		l1-0.3V6.3h0.5v3l1.9-0.6v-3H33.6z M33.1,10.5l-1.9,0.6v3.4l1.9-0.6V10.5z"/>
</g>
<rect x="8.6" y="80.8" width="544.4" height="0.5"/>
<rect x="8.6" y="75.8" width="544.4" height="0.5"/>
<rect x="8.6" y="70.9" width="544.4" height="0.5"/>
<rect x="8.6" y="65.9" width="544.4" height="0.5"/>
<rect x="8.6" y="61" width="544.4" height="0.5"/>
<g>
	<path d="M15.9,75.4c2.9-2.6,4.7-6.1,4.7-9.2c0-2.5-1.4-4.4-3.7-4.4c-1.6,0-3.4,1.3-3.4,2.7c0,0.2,0,0.3,0.1,0.3
		c-0.1,0,0.6-0.6,1.4-0.6c0.9,0,1.5,0.8,1.5,1.7c0,1.2-0.9,2.2-2.1,2.2c-1.2,0-2.1-1.3-2.1-2.8c0-2.3,2.3-4.1,4.8-4.1
		c4.7,0,5.9,3.2,5.9,5.8c0,1.6-0.4,2.9-2,5.3c-1.9,3.1-6.4,5.3-8.1,5.3c-0.4,0-0.6-0.2-0.6-0.5C14,76.6,15.1,76.1,15.9,75.4z
		 M25.8,62.7c0.6,0,1,0.4,1,1s-0.4,1-1,1s-1-0.4-1-1S25.3,62.7,25.8,62.7z M25.8,67.6c0.6,0,1,0.4,1,1c0,0.6-0.4,1-1,1s-1-0.4-1-1
		C24.8,68.1,25.3,67.6,25.8,67.6z"/>
</g>
<g>
	<path d="M33.6,59.3v2.8l1-0.3v1.8l-1,0.3v3.4l1-0.3v1.8l-1,0.3v3.1h-0.5v-3L31.2,70v3h-0.5v-2.8l-1,0.3v-1.8l1-0.3v-3.4l-1,0.3
		v-1.8l1-0.3V60h0.5v3l1.9-0.6v-3H33.6z M33.1,64.1l-1.9,0.6v3.4l1.9-0.6V64.1z"/>
</g>
<g>
	<path d="M133.8,79.7c-3.2,0-6.1-2.3-6.1-5.1c0-2.4,1.7-5,5.1-7.9c-0.2-0.9-0.3-1.8-0.3-2.7c0-2.6,0.9-5.1,2.4-6.3
		c1.4,1.9,2,3.7,2,5.3c0,2.2-1,4.2-3.2,6.1l0.7,3.1c0.4,0,0.6,0,0.6,0c2,0,3.6,1.5,3.6,3.5c0,1.4-1.1,2.8-2.7,3.6
		c0-0.1,0.6,2.8,0.6,3.3c0,1.9-1.7,3.2-3.7,3.2c-1.5,0-2.7-1-2.7-2.5c0-1.1,0.7-1.9,1.8-1.9c1,0,1.7,1,1.7,1.9c0,1-0.9,1.7-2,1.8
		c0.4,0.2,0.9,0.3,1.4,0.3c1.6,0,3.1-1.2,3.1-2.7c0-0.1,0-0.3,0-0.5l-0.6-2.8C135,79.6,134.4,79.7,133.8,79.7z M132.1,75.8
		c0,0.8,0.4,1.4,1.2,1.9c-1.3-0.2-2.2-1.1-2.2-2.3c0-1.5,1.3-2.8,2.9-3.1l-0.6-3c-2.8,2.1-4.3,4.1-4.3,6.1c0,2.2,2.1,4,4.5,4
		c0.7,0,1.3-0.1,1.8-0.4l-1.1-5.1C133.1,74,132.1,74.7,132.1,75.8z M135.1,59.8c-1.2,0-2.2,2.8-2.2,5.3c0,0.5,0,1,0.1,1.4
		c2-1.8,3-3.4,3-4.8c0-0.7-0.3-1.3-0.7-1.8C135.3,59.8,135.2,59.8,135.1,59.8z M137.2,76.2c0-1.2-0.9-2.4-2.2-2.4c0,0-0.2,0-0.4,0
		l1.1,5C136.7,78,137.2,77.1,137.2,76.2z"/>
</g>
<g>
	<path d="M388.3,73.1c2.2-2,3.6-4.6,3.6-6.9c0-1.9-1.1-3.3-2.8-3.3c-1.2,0-2.5,1-2.5,2.1c0,0.2,0,0.2,0.1,0.2c0,0,0.4-0.5,1-0.5
		c0.7,0,1.2,0.6,1.2,1.3c0,0.9-0.6,1.7-1.6,1.7s-1.5-1-1.5-2.1c0-1.8,1.7-3.1,3.6-3.1c3.5,0,4.4,2.4,4.4,4.4c0,1.2-0.3,2.2-1.5,4
		c-1.4,2.3-4.8,4-6,4c-0.3,0-0.5-0.1-0.5-0.3C386.8,74,387.7,73.6,388.3,73.1z M395.7,63.5c0.4,0,0.7,0.3,0.7,0.7
		c0,0.4-0.3,0.7-0.7,0.7c-0.4,0-0.7-0.3-0.7-0.7C395,63.9,395.3,63.5,395.7,63.5z M395.7,67.3c0.4,0,0.7,0.3,0.7,0.7
		c0,0.4-0.3,0.7-0.7,0.7c-0.4,0-0.7-0.3-0.7-0.7C395,67.6,395.3,67.3,395.7,67.3z"/>
</g>
<rect x="43.7" y="20.7" width="0.5" height="27.7"/>
<g>
	<path d="M43.8,20.8c0-1.8,2.5-3.5,4.5-3.5c1.3,0,2.3,0.7,2.3,1.7c0,1.7-2.5,3.5-4.6,3.5C44.8,22.5,43.8,21.9,43.8,20.8z"/>
</g>
<g>
	<path d="M43.8,25.8c0-1.8,2.5-3.5,4.5-3.5c1.3,0,2.3,0.7,2.3,1.7c0,1.7-2.5,3.5-4.6,3.5C44.8,27.5,43.8,26.9,43.8,25.8z"/>
</g>
<g>
	<path d="M43.8,30.7c0-1.8,2.5-3.5,4.5-3.5c1.3,0,2.3,0.7,2.3,1.7c0,1.7-2.5,3.5-4.6,3.5C44.8,32.5,43.8,31.8,43.8,30.7z"/>
</g>
<g>
	<path d="M43.8,35.7c0-1.8,2.5-3.5,4.5-3.5c1.3,0,2.3,0.7,2.3,1.7c0,1.7-2.5,3.5-4.6,3.5C44.8,37.4,43.8,36.8,43.8,35.7z"/>
</g>
<g>
	<path d="M41.4,28v2.8l1-0.3v1.8l-1,0.3v3.4l1-0.3v1.8l-1,0.3V41h-0.5v-3L39,38.7v3h-0.5v-2.8l-1,0.3v-1.8l1-0.3v-3.4l-1,0.3v-1.8
		l1-0.3v-3.1H39v3l1.9-0.6v-3H41.4z M40.9,32.8L39,33.4v3.4l1.9-0.6V32.8z"/>
</g>
<rect x="102" y="2.6" width="0.5" height="26.5"/>
<g>
	<path d="M95.6,30.7c0-1.8,2.5-3.5,4.5-3.5c1.3,0,2.3,0.7,2.3,1.7c0,1.7-2.5,3.5-4.6,3.5C96.5,32.5,95.6,31.8,95.6,30.7z"/>
</g>
<g>
	<path d="M95.6,25.8c0-1.8,2.5-3.5,4.5-3.5c1.3,0,2.3,0.7,2.3,1.7c0,1.7-2.5,3.5-4.6,3.5C96.5,27.5,95.6,26.9,95.6,25.8z"/>
</g>
<g>
	<path d="M95.6,20.8c0-1.8,2.5-3.5,4.5-3.5c1.3,0,2.3,0.7,2.3,1.7c0,1.7-2.5,3.5-4.6,3.5C96.5,22.5,95.6,21.9,95.6,20.8z"/>
</g>
<g>
	<path d="M101.9,18.3c0-1.8,2.5-3.5,4.5-3.5c1.3,0,2.3,0.7,2.3,1.7c0,1.7-2.5,3.5-4.6,3.5C102.9,20.1,101.9,19.4,101.9,18.3z"/>
</g>
<g>
	<path d="M93.1,10.7v2.8l1-0.3V15l-1,0.3v3.4l1-0.3v1.8l-1,0.3v3.1h-0.5v-3l-1.9,0.6v3h-0.5v-2.8l-1,0.3V20l1-0.3v-3.4l-1,0.3v-1.8
		l1-0.3v-3.1h0.5v3l1.9-0.6v-3H93.1z M92.7,15.4l-1.9,0.6v3.4l1.9-0.6V15.4z"/>
</g>
<rect x="147.1" y="13.3" width="0.5" height="27.7"/>
<g>
	<path d="M147.2,13.4c0-1.8,2.5-3.5,4.5-3.5c1.3,0,2.3,0.7,2.3,1.7c0,1.7-2.5,3.5-4.6,3.5C148.2,15.1,147.2,14.5,147.2,13.4z"/>
</g>
<g>
	<path d="M147.2,18.3c0-1.8,2.5-3.5,4.5-3.5c1.3,0,2.3,0.7,2.3,1.7c0,1.7-2.5,3.5-4.6,3.5C148.2,20.1,147.2,19.4,147.2,18.3z"/>
</g>
<g>
	<path d="M140.8,20.8c0-1.8,2.5-3.5,4.5-3.5c1.3,0,2.3,0.7,2.3,1.7c0,1.7-2.5,3.5-4.6,3.5C141.8,22.5,140.8,21.9,140.8,20.8z"/>
</g>
<g>
	<path d="M147.2,25.8c0-1.8,2.5-3.5,4.5-3.5c1.3,0,2.3,0.7,2.3,1.7c0,1.7-2.5,3.5-4.6,3.5C148.2,27.5,147.2,26.9,147.2,25.8z"/>
</g>
<rect x="197.1" y="7.2" width="10.5" height="0.8"/>
<rect x="198.9" y="8.3" width="0.5" height="29"/>
<g>
	<path d="M199,8.4c0-1.8,2.5-3.5,4.5-3.5c1.3,0,2.3,0.7,2.3,1.7c0,1.7-2.5,3.5-4.6,3.5C199.9,10.1,199,9.5,199,8.4z"/>
</g>
<g>
	<path d="M199,13.4c0-1.8,2.5-3.5,4.5-3.5c1.3,0,2.3,0.7,2.3,1.7c0,1.7-2.5,3.5-4.6,3.5C199.9,15.1,199,14.5,199,13.4z"/>
</g>
<g>
	<path d="M199,18.3c0-1.8,2.5-3.5,4.5-3.5c1.3,0,2.3,0.7,2.3,1.7c0,1.7-2.5,3.5-4.6,3.5C199.9,20.1,199,19.4,199,18.3z"/>
</g>
<g>
	<path d="M192.6,20.8c0-1.8,2.5-3.5,4.5-3.5c1.3,0,2.3,0.7,2.3,1.7c0,1.7-2.5,3.5-4.6,3.5C193.6,22.5,192.6,21.9,192.6,20.8z"/>
</g>
<rect x="248.9" y="7.2" width="10.5" height="0.8"/>
<rect x="248.9" y="2.2" width="10.5" height="0.8"/>
<rect x="250.7" y="3.4" width="0.5" height="31.5"/>
<g>
	<path d="M250.7,3.5c0-1.8,2.5-3.5,4.5-3.5c1.3,0,2.3,0.7,2.3,1.7c0,1.7-2.5,3.5-4.6,3.5C251.7,5.2,250.7,4.5,250.7,3.5z"/>
</g>
<g>
	<path d="M250.7,8.4c0-1.8,2.5-3.5,4.5-3.5c1.3,0,2.3,0.7,2.3,1.7c0,1.7-2.5,3.5-4.6,3.5C251.7,10.1,250.7,9.5,250.7,8.4z"/>
</g>
<g>
	<path d="M250.7,13.4c0-1.8,2.5-3.5,4.5-3.5c1.3,0,2.3,0.7,2.3,1.7c0,1.7-2.5,3.5-4.6,3.5C251.7,15.1,250.7,14.5,250.7,13.4z"/>
</g>
<g>
	<path d="M250.7,18.3c0-1.8,2.5-3.5,4.5-3.5c1.3,0,2.3,0.7,2.3,1.7c0,1.7-2.5,3.5-4.6,3.5C251.7,20.1,250.7,19.4,250.7,18.3z"/>
</g>
<rect x="300.7" y="7.2" width="10.5" height="0.8"/>
<rect x="302.4" y="8.3" width="0.5" height="29"/>
<g>
	<path d="M302.5,8.4c0-1.8,2.5-3.5,4.5-3.5c1.3,0,2.3,0.7,2.3,1.7c0,1.7-2.5,3.5-4.6,3.5C303.5,10.1,302.5,9.5,302.5,8.4z"/>
</g>
<g>
	<path d="M302.5,13.4c0-1.8,2.5-3.5,4.5-3.5c1.3,0,2.3,0.7,2.3,1.7c0,1.7-2.5,3.5-4.6,3.5C303.5,15.1,302.5,14.5,302.5,13.4z"/>
</g>
<g>
	<path d="M302.5,18.3c0-1.8,2.5-3.5,4.5-3.5c1.3,0,2.3,0.7,2.3,1.7c0,1.7-2.5,3.5-4.6,3.5C303.5,20.1,302.5,19.4,302.5,18.3z"/>
</g>
<g>
	<path d="M296.2,20.8c0-1.8,2.5-3.5,4.5-3.5c1.3,0,2.3,0.7,2.3,1.7c0,1.7-2.5,3.5-4.6,3.5C297.1,22.5,296.2,21.9,296.2,20.8z"/>
</g>
<rect x="354.1" y="13.3" width="0.5" height="27.7"/>
<g>
	<path d="M354.1,13.4c0-1.8,2.5-3.5,4.5-3.5c1.3,0,2.3,0.7,2.3,1.7c0,1.7-2.5,3.5-4.6,3.5C355.1,15.1,354.1,14.5,354.1,13.4z"/>
</g>
<g>
	<path d="M354.1,18.3c0-1.8,2.5-3.5,4.5-3.5c1.3,0,2.3,0.7,2.3,1.7c0,1.7-2.5,3.5-4.6,3.5C355.1,20.1,354.1,19.4,354.1,18.3z"/>
</g>
<g>
	<path d="M347.8,20.8c0-1.8,2.5-3.5,4.5-3.5c1.3,0,2.3,0.7,2.3,1.7c0,1.7-2.5,3.5-4.6,3.5C348.8,22.5,347.8,21.9,347.8,20.8z"/>
</g>
<g>
	<path d="M354.1,25.8c0-1.8,2.5-3.5,4.5-3.5c1.3,0,2.3,0.7,2.3,1.7c0,1.7-2.5,3.5-4.6,3.5C355.1,27.5,354.1,26.9,354.1,25.8z"/>
</g>
<rect x="412.4" y="2.6" width="0.5" height="26.5"/>
<g>
	<path d="M405.9,30.7c0-1.8,2.5-3.5,4.5-3.5c1.3,0,2.3,0.7,2.3,1.7c0,1.7-2.5,3.5-4.6,3.5C406.9,32.5,405.9,31.8,405.9,30.7z"/>
</g>
<g>
	<path d="M405.9,25.8c0-1.8,2.5-3.5,4.5-3.5c1.3,0,2.3,0.7,2.3,1.7c0,1.7-2.5,3.5-4.6,3.5C406.9,27.5,405.9,26.9,405.9,25.8z"/>
</g>
<g>
	<path d="M405.9,20.8c0-1.8,2.5-3.5,4.5-3.5c1.3,0,2.3,0.7,2.3,1.7c0,1.7-2.5,3.5-4.6,3.5C406.9,22.5,405.9,21.9,405.9,20.8z"/>
</g>
<g>
	<path d="M412.3,18.3c0-1.8,2.5-3.5,4.5-3.5c1.3,0,2.3,0.7,2.3,1.7c0,1.7-2.5,3.5-4.6,3.5C413.2,20.1,412.3,19.4,412.3,18.3z"/>
</g>
<rect x="464.3" y="3.8" width="0.5" height="30.2"/>
<g>
	<path d="M462,32.1c1.6,0,2.7,0.7,2.7,2c0,1.9-2.3,3.4-4.5,3.4c-1.3,0-2.4-0.7-2.4-1.8C457.7,33.9,459.9,32.1,462,32.1z M458.1,36
		c0,0.6,0.4,0.9,1.1,0.9c1.4,0,4.9-2.1,4.9-3.3c0-0.6-0.4-0.9-1.1-0.9C461.8,32.7,458.1,34.8,458.1,36z"/>
</g>
<g>
	<path d="M462,27.2c1.6,0,2.7,0.7,2.7,2c0,1.9-2.3,3.4-4.5,3.4c-1.3,0-2.4-0.7-2.4-1.8C457.7,29,459.9,27.2,462,27.2z M458.1,31
		c0,0.6,0.4,0.9,1.1,0.9c1.4,0,4.9-2.1,4.9-3.3c0-0.6-0.4-0.9-1.1-0.9C461.8,27.8,458.1,29.8,458.1,31z"/>
</g>
<g>
	<path d="M462,22.2c1.6,0,2.7,0.7,2.7,2c0,1.9-2.3,3.4-4.5,3.4c-1.3,0-2.4-0.7-2.4-1.8C457.7,24,459.9,22.2,462,22.2z M458.1,26.1
		c0,0.6,0.4,0.9,1.1,0.9c1.4,0,4.9-2.1,4.9-3.3c0-0.6-0.4-0.9-1.1-0.9C461.8,22.8,458.1,24.8,458.1,26.1z"/>
</g>
<g>
	<path d="M462,17.3c1.6,0,2.7,0.7,2.7,2c0,1.9-2.3,3.4-4.5,3.4c-1.3,0-2.4-0.7-2.4-1.8C457.7,19,459.9,17.3,462,17.3z M458.1,21.1
		c0,0.6,0.4,0.9,1.1,0.9c1.4,0,4.9-2.1,4.9-3.3c0-0.6-0.4-0.9-1.1-0.9C461.8,17.9,458.1,19.9,458.1,21.1z"/>
</g>
<rect x="41.9" y="55.8" width="10.5" height="0.8"/>
<rect x="50.2" y="42.6" width="0.5" height="27.7"/>
<g>
	<path d="M43.8,72c0-1.8,2.5-3.5,4.5-3.5c1.3,0,2.3,0.7,2.3,1.7c0,1.7-2.5,3.5-4.6,3.5C44.8,73.7,43.8,73.1,43.8,72z"/>
</g>
<g>
	<path d="M43.8,67c0-1.8,2.5-3.5,4.5-3.5c1.3,0,2.3,0.7,2.3,1.7c0,1.7-2.5,3.5-4.6,3.5C44.8,68.7,43.8,68.1,43.8,67z"/>
</g>
<g>
	<path d="M43.8,62c0-1.8,2.5-3.5,4.5-3.5c1.3,0,2.3,0.7,2.3,1.7c0,1.7-2.5,3.5-4.6,3.5C44.8,63.8,43.8,63.1,43.8,62z"/>
</g>
<g>
	<path d="M43.8,57.1c0-1.8,2.5-3.5,4.5-3.5c1.3,0,2.3,0.7,2.3,1.7c0,1.7-2.5,3.5-4.6,3.5C44.8,58.8,43.8,58.2,43.8,57.1z"/>
</g>
<g>
	<path d="M41.4,64.3v2.8l1-0.3v1.8l-1,0.3v3.4l1-0.3v1.8l-1,0.3v3.1h-0.5v-3L39,74.9v3h-0.5v-2.8l-1,0.3v-1.8l1-0.3v-3.4l-1,0.3
		v-1.8l1-0.3v-3.1H39v3l1.9-0.6v-3H41.4z M40.9,69.1L39,69.7v3.4l1.9-0.6V69.1z"/>
</g>
<rect x="93.7" y="55.8" width="10.5" height="0.8"/>
<rect x="87.4" y="55.8" width="10.5" height="0.8"/>
<rect x="95.5" y="54.5" width="0.5" height="29"/>
<g>
	<path d="M95.6,54.6c0-1.8,2.5-3.5,4.5-3.5c1.3,0,2.3,0.7,2.3,1.7c0,1.7-2.5,3.5-4.6,3.5C96.5,56.3,95.6,55.7,95.6,54.6z"/>
</g>
<g>
	<path d="M89.2,57.1c0-1.8,2.5-3.5,4.5-3.5c1.3,0,2.3,0.7,2.3,1.7c0,1.7-2.5,3.5-4.6,3.5C90.2,58.8,89.2,58.2,89.2,57.1z"/>
</g>
<g>
	<path d="M95.6,62c0-1.8,2.5-3.5,4.5-3.5c1.3,0,2.3,0.7,2.3,1.7c0,1.7-2.5,3.5-4.6,3.5C96.5,63.8,95.6,63.1,95.6,62z"/>
</g>
<g>
	<path d="M95.6,67c0-1.8,2.5-3.5,4.5-3.5c1.3,0,2.3,0.7,2.3,1.7c0,1.7-2.5,3.5-4.6,3.5C96.5,68.7,95.6,68.1,95.6,67z"/>
</g>
<g>
	<path d="M86.3,46.9v2.8l1-0.3v1.8l-1,0.3V55l1-0.3v1.8l-1,0.3v3.1h-0.5v-3l-1.9,0.6v3h-0.5v-2.8l-1,0.3v-1.8l1-0.3v-3.4l-1,0.3V51
		l1-0.3v-3.1h0.5v3l1.9-0.6v-3H86.3z M85.8,51.7l-1.9,0.6v3.4l1.9-0.6V51.7z"/>
</g>
<rect x="145.3" y="85.6" width="10.5" height="0.8"/>
<rect x="145.3" y="90.6" width="10.5" height="0.8"/>
<rect x="153.6" y="61.2" width="0.5" height="29"/>
<g>
	<path d="M147.2,91.8c0-1.8,2.5-3.5,4.5-3.5c1.3,0,2.3,0.7,2.3,1.7c0,1.7-2.5,3.5-4.6,3.5C148.2,93.5,147.2,92.9,147.2,91.8z"/>
</g>
<g>
	<path d="M147.2,86.8c0-1.8,2.5-3.5,4.5-3.5c1.3,0,2.3,0.7,2.3,1.7c0,1.7-2.5,3.5-4.6,3.5C148.2,88.6,147.2,87.9,147.2,86.8z"/>
</g>
<g>
	<path d="M153.6,84.4c0-1.8,2.5-3.5,4.5-3.5c1.3,0,2.3,0.7,2.3,1.7c0,1.7-2.5,3.5-4.6,3.5C154.5,86.1,153.6,85.5,153.6,84.4z"/>
</g>
<g>
	<path d="M147.2,79.4c0-1.8,2.5-3.5,4.5-3.5c1.3,0,2.3,0.7,2.3,1.7c0,1.7-2.5,3.5-4.6,3.5C148.2,81.1,147.2,80.5,147.2,79.4z"/>
</g>
<g>
	<path d="M143.5,76.7v2.8l1-0.3V81l-1,0.3v3.4l1-0.3v1.8l-1,0.3v3.1H143v-3l-1.9,0.6v3h-0.5v-2.8l-1,0.3V86l1-0.3v-3.4l-1,0.3v-1.8
		l1-0.3v-3.1h0.5v3l1.9-0.6v-3H143.5z M143,81.5l-1.9,0.6v3.4l1.9-0.6V81.5z"/>
</g>
<rect x="197.1" y="85.6" width="10.5" height="0.8"/>
<rect x="205.4" y="56.2" width="0.5" height="29"/>
<g>
	<path d="M199,86.8c0-1.8,2.5-3.5,4.5-3.5c1.3,0,2.3,0.7,2.3,1.7c0,1.7-2.5,3.5-4.6,3.5C199.9,88.6,199,87.9,199,86.8z"/>
</g>
<g>
	<path d="M205.3,84.4c0-1.8,2.5-3.5,4.5-3.5c1.3,0,2.3,0.7,2.3,1.7c0,1.7-2.5,3.5-4.6,3.5C206.3,86.1,205.3,85.5,205.3,84.4z"/>
</g>
<g>
	<path d="M199,79.4c0-1.8,2.5-3.5,4.5-3.5c1.3,0,2.3,0.7,2.3,1.7c0,1.7-2.5,3.5-4.6,3.5C199.9,81.1,199,80.5,199,79.4z"/>
</g>
<g>
	<path d="M199,74.4c0-1.8,2.5-3.5,4.5-3.5c1.3,0,2.3,0.7,2.3,1.7c0,1.7-2.5,3.5-4.6,3.5C199.9,76.2,199,75.5,199,74.4z"/>
</g>
<rect x="257.2" y="52.5" width="0.5" height="30.2"/>
<g>
	<path d="M250.7,84.4c0-1.8,2.5-3.5,4.5-3.5c1.3,0,2.3,0.7,2.3,1.7c0,1.7-2.5,3.5-4.6,3.5C251.7,86.1,250.7,85.5,250.7,84.4z"/>
</g>
<g>
	<path d="M250.7,79.4c0-1.8,2.5-3.5,4.5-3.5c1.3,0,2.3,0.7,2.3,1.7c0,1.7-2.5,3.5-4.6,3.5C251.7,81.1,250.7,80.5,250.7,79.4z"/>
</g>
<g>
	<path d="M250.7,74.4c0-1.8,2.5-3.5,4.5-3.5c1.3,0,2.3,0.7,2.3,1.7c0,1.7-2.5,3.5-4.6,3.5C251.7,76.2,250.7,75.5,250.7,74.4z"/>
</g>
<g>
	<path d="M250.7,69.5c0-1.8,2.5-3.5,4.5-3.5c1.3,0,2.3,0.7,2.3,1.7c0,1.7-2.5,3.5-4.6,3.5C251.7,71.2,250.7,70.6,250.7,69.5z"/>
</g>
<rect x="300.7" y="85.6" width="10.5" height="0.8"/>
<rect x="309" y="56.2" width="0.5" height="29"/>
<g>
	<path d="M302.5,86.8c0-1.8,2.5-3.5,4.5-3.5c1.3,0,2.3,0.7,2.3,1.7c0,1.7-2.5,3.5-4.6,3.5C303.5,88.6,302.5,87.9,302.5,86.8z"/>
</g>
<g>
	<path d="M308.9,84.4c0-1.8,2.5-3.5,4.5-3.5c1.3,0,2.3,0.7,2.3,1.7c0,1.7-2.5,3.5-4.6,3.5C309.8,86.1,308.9,85.5,308.9,84.4z"/>
</g>
<g>
	<path d="M302.5,79.4c0-1.8,2.5-3.5,4.5-3.5c1.3,0,2.3,0.7,2.3,1.7c0,1.7-2.5,3.5-4.6,3.5C303.5,81.1,302.5,80.5,302.5,79.4z"/>
</g>
<g>
	<path d="M302.5,74.4c0-1.8,2.5-3.5,4.5-3.5c1.3,0,2.3,0.7,2.3,1.7c0,1.7-2.5,3.5-4.6,3.5C303.5,76.2,302.5,75.5,302.5,74.4z"/>
</g>
<rect x="352.3" y="85.6" width="10.5" height="0.8"/>
<rect x="352.3" y="90.6" width="10.5" height="0.8"/>
<rect x="360.6" y="61.2" width="0.5" height="29"/>
<g>
	<path d="M354.1,91.8c0-1.8,2.5-3.5,4.5-3.5c1.3,0,2.3,0.7,2.3,1.7c0,1.7-2.5,3.5-4.6,3.5C355.1,93.5,354.1,92.9,354.1,91.8z"/>
</g>
<g>
	<path d="M354.1,86.8c0-1.8,2.5-3.5,4.5-3.5c1.3,0,2.3,0.7,2.3,1.7c0,1.7-2.5,3.5-4.6,3.5C355.1,88.6,354.1,87.9,354.1,86.8z"/>
</g>
<g>
	<path d="M360.5,84.4c0-1.8,2.5-3.5,4.5-3.5c1.3,0,2.3,0.7,2.3,1.7c0,1.7-2.5,3.5-4.6,3.5C361.5,86.1,360.5,85.5,360.5,84.4z"/>
</g>
<g>
	<path d="M354.1,79.4c0-1.8,2.5-3.5,4.5-3.5c1.3,0,2.3,0.7,2.3,1.7c0,1.7-2.5,3.5-4.6,3.5C355.1,81.1,354.1,80.5,354.1,79.4z"/>
</g>
<rect x="404.1" y="55.8" width="10.5" height="0.8"/>
<rect x="397.7" y="55.8" width="10.5" height="0.8"/>
<rect x="405.8" y="54.5" width="0.5" height="29"/>
<g>
	<path d="M405.9,54.6c0-1.8,2.5-3.5,4.5-3.5c1.3,0,2.3,0.7,2.3,1.7c0,1.7-2.5,3.5-4.6,3.5C406.9,56.3,405.9,55.7,405.9,54.6z"/>
</g>
<g>
	<path d="M399.6,57.1c0-1.8,2.5-3.5,4.5-3.5c1.3,0,2.3,0.7,2.3,1.7c0,1.7-2.5,3.5-4.6,3.5C400.5,58.8,399.6,58.2,399.6,57.1z"/>
</g>
<g>
	<path d="M405.9,62c0-1.8,2.5-3.5,4.5-3.5c1.3,0,2.3,0.7,2.3,1.7c0,1.7-2.5,3.5-4.6,3.5C406.9,63.8,405.9,63.1,405.9,62z"/>
</g>
<g>
	<path d="M405.9,67c0-1.8,2.5-3.5,4.5-3.5c1.3,0,2.3,0.7,2.3,1.7c0,1.7-2.5,3.5-4.6,3.5C406.9,68.7,405.9,68.1,405.9,67z"/>
</g>
<rect x="455.8" y="55.8" width="10.7" height="0.8"/>
<rect x="457.6" y="57" width="0.5" height="31.5"/>
<g>
	<path d="M462,53.5c1.6,0,2.7,0.7,2.7,2c0,1.9-2.3,3.4-4.5,3.4c-1.3,0-2.4-0.7-2.4-1.8C457.7,55.3,459.9,53.5,462,53.5z M458.1,57.4
		c0,0.6,0.4,0.9,1.1,0.9c1.4,0,4.9-2.1,4.9-3.3c0-0.6-0.4-0.9-1.1-0.9C461.8,54.1,458.1,56.2,458.1,57.4z"/>
</g>
<g>
	<path d="M462,58.5c1.6,0,2.7,0.7,2.7,2c0,1.9-2.3,3.4-4.5,3.4c-1.3,0-2.4-0.7-2.4-1.8C457.7,60.3,459.9,58.5,462,58.5z M458.1,62.3
		c0,0.6,0.4,0.9,1.1,0.9c1.4,0,4.9-2.1,4.9-3.3c0-0.6-0.4-0.9-1.1-0.9C461.8,59.1,458.1,61.1,458.1,62.3z"/>
</g>
<g>
	<path d="M462,63.5c1.6,0,2.7,0.7,2.7,2c0,1.9-2.3,3.4-4.5,3.4c-1.3,0-2.4-0.7-2.4-1.8C457.7,65.2,459.9,63.5,462,63.5z M458.1,67.3
		c0,0.6,0.4,0.9,1.1,0.9c1.4,0,4.9-2.1,4.9-3.3c0-0.6-0.4-0.9-1.1-0.9C461.8,64,458.1,66.1,458.1,67.3z"/>
</g>
<g>
	<path d="M462,68.4c1.6,0,2.7,0.7,2.7,2c0,1.9-2.3,3.4-4.5,3.4c-1.3,0-2.4-0.7-2.4-1.8C457.7,70.2,459.9,68.4,462,68.4z M458.1,72.3
		c0,0.6,0.4,0.9,1.1,0.9c1.4,0,4.9-2.1,4.9-3.3c0-0.6-0.4-0.9-1.1-0.9C461.8,69,458.1,71,458.1,72.3z"/>
</g>
</svg>
