<?xml version="1.0" encoding="utf-8"?>

<!--
	ScaleBook
	Copyright (c) Leland Jansen 2015. All rights reserved.
-->

<!DOCTYPE svg PUBLIC "-//W3C//DTD SVG 1.1//EN" "http://www.w3.org/Graphics/SVG/1.1/DTD/svg11.dtd">
<svg version="1.1" id="Layer_1" xmlns="http://www.w3.org/2000/svg" xmlns:xlink="http://www.w3.org/1999/xlink" x="0px" y="0px"
	 viewBox="0 0 553 104.5" enable-background="new 0 0 553 104.5" xml:space="preserve">
<rect x="8.5" y="9.9" width="0.8" height="76"/>
<g>
	<path d="M7.6,10.7c-2,1.2-3.7,6.5-3.7,10.7c0,2.6,1.4,11.2,1.4,13.9c0,5.6-1.6,9.8-4.7,12.6c3.1,2.7,4.7,6.9,4.7,12.5
		c0,2.6-1.4,11.2-1.4,13.9c0,4.3,1.8,9.6,3.7,10.8v0.8C4,83.3,1.7,76.5,1.7,71.1c0-2.4,1.8-10.6,1.8-13.1c0-4.3-1-7.4-3-9.3
		C0.1,48.4,0,48.1,0,47.9c0-0.2,0.1-0.5,0.5-0.8c2-1.9,3-4.8,3-8.6c0-2.4-1.8-11.4-1.8-13.8c0-5.8,2.1-11.8,5.9-14.8V10.7z"/>
</g>
<rect x="548" y="9.9" width="0.8" height="76"/>
<rect x="550.5" y="9.9" width="2.5" height="76"/>
<rect x="8.6" y="29.5" width="544.4" height="0.5"/>
<rect x="8.6" y="24.6" width="544.4" height="0.5"/>
<rect x="8.6" y="19.6" width="544.4" height="0.5"/>
<rect x="8.6" y="14.6" width="544.4" height="0.5"/>
<rect x="8.6" y="9.7" width="544.4" height="0.5"/>
<g>
	<path d="M20.4,29.6c-4.2,0-8.1-3.1-8.1-6.9c0-3.2,2.3-6.7,6.8-10.5c-0.3-1.2-0.4-2.4-0.4-3.6c0-3.5,1.2-6.8,3.2-8.5
		c1.8,2.5,2.7,4.9,2.7,7.1c0,2.9-1.3,5.6-4.3,8.1l0.9,4.2c0.5,0,0.8-0.1,0.8-0.1c2.6,0,4.8,2,4.8,4.7c0,1.9-1.4,3.7-3.6,4.8
		c0-0.1,0.9,3.8,0.9,4.3c0,2.5-2.3,4.2-4.9,4.2c-2,0-3.6-1.3-3.6-3.4c0-1.4,1-2.6,2.4-2.6c1.3,0,2.3,1.3,2.3,2.5
		c0,1.4-1.2,2.3-2.7,2.5c0.6,0.3,1.2,0.5,1.9,0.5c2.1,0,4.1-1.6,4.1-3.6c0-0.2,0-0.4-0.1-0.6l-0.8-3.7
		C22.1,29.5,21.4,29.6,20.4,29.6z M18.2,24.4c0,1,0.5,1.9,1.6,2.5c-1.8-0.3-3-1.4-3-3.1c0-2,1.7-3.7,3.8-4.1l-0.8-4
		c-3.7,2.8-5.7,5.5-5.7,8.1c0,2.9,2.8,5.3,6,5.3c0.9,0,1.7-0.2,2.4-0.5l-1.4-6.8C19.5,22,18.2,23,18.2,24.4z M22.3,3
		c-1.6,0-2.9,3.7-2.9,7c0,0.7,0,1.3,0.2,1.9c2.7-2.4,4-4.5,4-6.5c0-0.9-0.3-1.7-1-2.4C22.5,3.1,22.4,3,22.3,3z M25,24.9
		c0-1.6-1.2-3.3-2.9-3.3c-0.1,0-0.2,0-0.5,0l1.4,6.6C24.4,27.4,25,26.2,25,24.9z"/>
</g>
<g>
	<path d="M29.7,11.5h0.6l-0.1,6.2c0.4-0.7,1-1,1.8-1c1.2,0,2.2,0.8,2.2,1.9c0,0.8-0.5,1.8-1.7,2.7l-2.8,2.1V11.5z M30.3,18.4
		c-0.1,0.8-0.1,1.4-0.1,1.9c0,1,0,1.6,0.1,2c1-0.7,2.4-2.6,2.4-3.7c0-0.6-0.5-1.1-1.1-1.1C31,17.6,30.6,17.9,30.3,18.4z"/>
</g>
<g>
	<path d="M35.3,4.1h0.6l-0.1,6.2c0.4-0.7,1-1,1.8-1c1.2,0,2.2,0.8,2.2,1.9c0,0.8-0.5,1.8-1.7,2.7L35.3,16V4.1z M35.9,11
		c-0.1,0.8-0.1,1.4-0.1,1.9c0,1,0,1.6,0.1,2c1-0.7,2.4-2.6,2.4-3.7c0-0.6-0.5-1.1-1.1-1.1C36.6,10.2,36.1,10.4,35.9,11z"/>
</g>
<g>
	<path d="M40.9,14h0.6l-0.1,6.2c0.4-0.7,1-1,1.8-1c1.2,0,2.2,0.8,2.2,1.9c0,0.8-0.5,1.8-1.7,2.7L40.9,26V14z M41.4,20.9
		c-0.1,0.8-0.1,1.4-0.1,1.9c0,1,0,1.6,0.1,2c1-0.7,2.4-2.6,2.4-3.7c0-0.6-0.5-1.1-1.1-1.1C42.1,20.1,41.7,20.4,41.4,20.9z"/>
</g>
<g>
	<path d="M46.4,6.6h0.6l-0.1,6.2c0.4-0.7,1-1,1.8-1c1.2,0,2.2,0.8,2.2,1.9c0,0.8-0.5,1.8-1.7,2.7l-2.8,2.1V6.6z M47,13.5
		c-0.1,0.8-0.1,1.4-0.1,1.9c0,1,0,1.6,0.1,2c1-0.7,2.4-2.6,2.4-3.7c0-0.6-0.5-1.1-1.1-1.1C47.7,12.6,47.3,12.9,47,13.5z"/>
</g>
<rect x="8.6" y="85.6" width="544.4" height="0.5"/>
<rect x="8.6" y="80.7" width="544.4" height="0.5"/>
<rect x="8.6" y="75.7" width="544.4" height="0.5"/>
<rect x="8.6" y="70.8" width="544.4" height="0.5"/>
<rect x="8.6" y="65.8" width="544.4" height="0.5"/>
<g>
	<path d="M15.9,80.2c2.9-2.6,4.7-6.1,4.7-9.2c0-2.5-1.4-4.4-3.7-4.4c-1.6,0-3.4,1.3-3.4,2.7c0,0.2,0,0.3,0.1,0.3
		c-0.1,0,0.6-0.6,1.4-0.6c0.9,0,1.5,0.8,1.5,1.7c0,1.2-0.9,2.2-2.1,2.2c-1.2,0-2.1-1.3-2.1-2.8c0-2.3,2.3-4.1,4.8-4.1
		c4.7,0,5.9,3.2,5.9,5.8c0,1.6-0.4,2.9-2,5.3c-1.9,3.1-6.4,5.3-8.1,5.3c-0.4,0-0.6-0.2-0.6-0.5C14,81.5,15.1,80.9,15.9,80.2z
		 M25.8,67.5c0.6,0,1,0.4,1,1s-0.4,1-1,1s-1-0.4-1-1S25.3,67.5,25.8,67.5z M25.8,72.5c0.6,0,1,0.4,1,1c0,0.6-0.4,1-1,1s-1-0.4-1-1
		C24.8,72.9,25.3,72.5,25.8,72.5z"/>
</g>
<g>
	<path d="M29.7,72.6h0.6l-0.1,6.2c0.4-0.7,1-1,1.8-1c1.2,0,2.2,0.8,2.2,1.9c0,0.8-0.5,1.8-1.7,2.7l-2.8,2.1V72.6z M30.3,79.5
		c-0.1,0.8-0.1,1.4-0.1,1.9c0,1,0,1.6,0.1,2c1-0.7,2.4-2.6,2.4-3.7c0-0.6-0.5-1.1-1.1-1.1C31,78.7,30.6,79,30.3,79.5z"/>
</g>
<g>
	<path d="M35.3,65.2h0.6l-0.1,6.2c0.4-0.7,1-1,1.8-1c1.2,0,2.2,0.8,2.2,1.9c0,0.8-0.5,1.8-1.7,2.7l-2.8,2.1V65.2z M35.9,72.1
		c-0.1,0.8-0.1,1.4-0.1,1.9c0,1,0,1.6,0.1,2c1-0.7,2.4-2.6,2.4-3.7c0-0.6-0.5-1.1-1.1-1.1C36.6,71.2,36.1,71.5,35.9,72.1z"/>
</g>
<g>
	<path d="M40.9,75.1h0.6l-0.1,6.2c0.4-0.7,1-1,1.8-1c1.2,0,2.2,0.8,2.2,1.9c0,0.8-0.5,1.8-1.7,2.7L40.9,87V75.1z M41.4,82
		c-0.1,0.8-0.1,1.4-0.1,1.9c0,1,0,1.6,0.1,2c1-0.7,2.4-2.6,2.4-3.7c0-0.6-0.5-1.1-1.1-1.1C42.1,81.2,41.7,81.4,41.4,82z"/>
</g>
<g>
	<path d="M46.4,67.6h0.6l-0.1,6.2c0.4-0.7,1-1,1.8-1c1.2,0,2.2,0.8,2.2,1.9c0,0.8-0.5,1.8-1.7,2.7l-2.8,2.1V67.6z M47,74.5
		c-0.1,0.8-0.1,1.4-0.1,1.9c0,1,0,1.6,0.1,2c1-0.7,2.4-2.6,2.4-3.7c0-0.6-0.5-1.1-1.1-1.1C47.7,73.7,47.3,74,47,74.5z"/>
</g>
<rect x="57.9" y="34.3" width="10.5" height="0.8"/>
<rect x="57.9" y="39.3" width="10.5" height="0.8"/>
<rect x="57.9" y="44.3" width="10.5" height="0.8"/>
<rect x="59.7" y="33" width="0.5" height="27.7"/>
<g>
	<path d="M59.8,33.1c0-1.8,2.5-3.5,4.5-3.5c1.3,0,2.3,0.7,2.3,1.7c0,1.7-2.5,3.5-4.6,3.5C60.7,34.8,59.8,34.2,59.8,33.1z"/>
</g>
<g>
	<path d="M59.8,38.1c0-1.8,2.5-3.5,4.5-3.5c1.3,0,2.3,0.7,2.3,1.7c0,1.7-2.5,3.5-4.6,3.5C60.7,39.8,59.8,39.1,59.8,38.1z"/>
</g>
<g>
	<path d="M59.8,43c0-1.8,2.5-3.5,4.5-3.5c1.3,0,2.3,0.7,2.3,1.7c0,1.7-2.5,3.5-4.6,3.5C60.7,44.7,59.8,44.1,59.8,43z"/>
</g>
<g>
	<path d="M59.8,48c0-1.8,2.5-3.5,4.5-3.5c1.3,0,2.3,0.7,2.3,1.7c0,1.7-2.5,3.5-4.6,3.5C60.7,49.7,59.8,49.1,59.8,48z"/>
</g>
<g>
	<path d="M56.6,53.9v-4l-3,1.1V40.3h0.5v4l3-1.1v10.7H56.6z M54.1,49.2l2.5-0.9V45l-2.5,0.9V49.2z"/>
</g>
<rect x="108" y="34.3" width="10.5" height="0.8"/>
<rect x="108" y="39.3" width="10.5" height="0.8"/>
<rect x="116.3" y="12.4" width="0.5" height="29"/>
<g>
	<path d="M109.8,43c0-1.8,2.5-3.5,4.5-3.5c1.3,0,2.3,0.7,2.3,1.7c0,1.7-2.5,3.5-4.6,3.5C110.8,44.7,109.8,44.1,109.8,43z"/>
</g>
<g>
	<path d="M109.8,38.1c0-1.8,2.5-3.5,4.5-3.5c1.3,0,2.3,0.7,2.3,1.7c0,1.7-2.5,3.5-4.6,3.5C110.8,39.8,109.8,39.1,109.8,38.1z"/>
</g>
<g>
	<path d="M109.8,33.1c0-1.8,2.5-3.5,4.5-3.5c1.3,0,2.3,0.7,2.3,1.7c0,1.7-2.5,3.5-4.6,3.5C110.8,34.8,109.8,34.2,109.8,33.1z"/>
</g>
<g>
	<path d="M116.2,30.6c0-1.8,2.5-3.5,4.5-3.5c1.3,0,2.3,0.7,2.3,1.7c0,1.7-2.5,3.5-4.6,3.5C117.2,32.3,116.2,31.7,116.2,30.6z"/>
</g>
<g>
	<path d="M106.7,36.5v-4l-3,1.1V23h0.5v4l3-1.1v10.7H106.7z M104.1,31.9l2.5-0.9v-3.3l-2.5,0.9V31.9z"/>
</g>
<rect x="158" y="34.3" width="10.5" height="0.8"/>
<rect x="166.3" y="7.4" width="0.5" height="29"/>
<g>
	<path d="M159.9,38.1c0-1.8,2.5-3.5,4.5-3.5c1.3,0,2.3,0.7,2.3,1.7c0,1.7-2.5,3.5-4.6,3.5C160.9,39.8,159.9,39.1,159.9,38.1z"/>
</g>
<g>
	<path d="M159.9,33.1c0-1.8,2.5-3.5,4.5-3.5c1.3,0,2.3,0.7,2.3,1.7c0,1.7-2.5,3.5-4.6,3.5C160.9,34.8,159.9,34.2,159.9,33.1z"/>
</g>
<g>
	<path d="M166.3,30.6c0-1.8,2.5-3.5,4.5-3.5c1.3,0,2.3,0.7,2.3,1.7c0,1.7-2.5,3.5-4.6,3.5C167.2,32.3,166.3,31.7,166.3,30.6z"/>
</g>
<g>
	<path d="M159.9,25.7c0-1.8,2.5-3.5,4.5-3.5c1.3,0,2.3,0.7,2.3,1.7c0,1.7-2.5,3.5-4.6,3.5C160.9,27.4,159.9,26.7,159.9,25.7z"/>
</g>
<rect x="216.4" y="2.5" width="0.5" height="29"/>
<g>
	<path d="M210,33.1c0-1.8,2.5-3.5,4.5-3.5c1.3,0,2.3,0.7,2.3,1.7c0,1.7-2.5,3.5-4.6,3.5C211,34.8,210,34.2,210,33.1z"/>
</g>
<g>
	<path d="M216.3,30.6c0-1.8,2.5-3.5,4.5-3.5c1.3,0,2.3,0.7,2.3,1.7c0,1.7-2.5,3.5-4.6,3.5C217.3,32.3,216.3,31.7,216.3,30.6z"/>
</g>
<g>
	<path d="M210,25.7c0-1.8,2.5-3.5,4.5-3.5c1.3,0,2.3,0.7,2.3,1.7c0,1.7-2.5,3.5-4.6,3.5C211,27.4,210,26.7,210,25.7z"/>
</g>
<g>
	<path d="M210,20.7c0-1.8,2.5-3.5,4.5-3.5c1.3,0,2.3,0.7,2.3,1.7c0,1.7-2.5,3.5-4.6,3.5C211,22.4,210,21.8,210,20.7z"/>
</g>
<rect x="266.5" width="0.5" height="29"/>
<g>
	<path d="M260,30.6c0-1.8,2.5-3.5,4.5-3.5c1.3,0,2.3,0.7,2.3,1.7c0,1.7-2.5,3.5-4.6,3.5C261,32.3,260,31.7,260,30.6z"/>
</g>
<g>
	<path d="M260,25.7c0-1.8,2.5-3.5,4.5-3.5c1.3,0,2.3,0.7,2.3,1.7c0,1.7-2.5,3.5-4.6,3.5C261,27.4,260,26.7,260,25.7z"/>
</g>
<g>
	<path d="M260,20.7c0-1.8,2.5-3.5,4.5-3.5c1.3,0,2.3,0.7,2.3,1.7c0,1.7-2.5,3.5-4.6,3.5C261,22.4,260,21.8,260,20.7z"/>
</g>
<g>
	<path d="M260,15.7c0-1.8,2.5-3.5,4.5-3.5c1.3,0,2.3,0.7,2.3,1.7c0,1.7-2.5,3.5-4.6,3.5C261,17.5,260,16.8,260,15.7z"/>
</g>
<rect x="316.7" y="2.5" width="0.5" height="29"/>
<g>
	<path d="M310.3,33.1c0-1.8,2.5-3.5,4.5-3.5c1.3,0,2.3,0.7,2.3,1.7c0,1.7-2.5,3.5-4.6,3.5C311.2,34.8,310.3,34.2,310.3,33.1z"/>
</g>
<g>
	<path d="M316.6,30.6c0-1.8,2.5-3.5,4.5-3.5c1.3,0,2.3,0.7,2.3,1.7c0,1.7-2.5,3.5-4.6,3.5C317.6,32.3,316.6,31.7,316.6,30.6z"/>
</g>
<g>
	<path d="M310.3,25.7c0-1.8,2.5-3.5,4.5-3.5c1.3,0,2.3,0.7,2.3,1.7c0,1.7-2.5,3.5-4.6,3.5C311.2,27.4,310.3,26.7,310.3,25.7z"/>
</g>
<g>
	<path d="M310.3,20.7c0-1.8,2.5-3.5,4.5-3.5c1.3,0,2.3,0.7,2.3,1.7c0,1.7-2.5,3.5-4.6,3.5C311.2,22.4,310.3,21.8,310.3,20.7z"/>
</g>
<rect x="358.5" y="34.3" width="10.5" height="0.8"/>
<rect x="366.8" y="7.4" width="0.5" height="29"/>
<g>
	<path d="M360.3,38.1c0-1.8,2.5-3.5,4.5-3.5c1.3,0,2.3,0.7,2.3,1.7c0,1.7-2.5,3.5-4.6,3.5C361.3,39.8,360.3,39.1,360.3,38.1z"/>
</g>
<g>
	<path d="M360.3,33.1c0-1.8,2.5-3.5,4.5-3.5c1.3,0,2.3,0.7,2.3,1.7c0,1.7-2.5,3.5-4.6,3.5C361.3,34.8,360.3,34.2,360.3,33.1z"/>
</g>
<g>
	<path d="M366.7,30.6c0-1.8,2.5-3.5,4.5-3.5c1.3,0,2.3,0.7,2.3,1.7c0,1.7-2.5,3.5-4.6,3.5C367.7,32.3,366.7,31.7,366.7,30.6z"/>
</g>
<g>
	<path d="M360.3,25.7c0-1.8,2.5-3.5,4.5-3.5c1.3,0,2.3,0.7,2.3,1.7c0,1.7-2.5,3.5-4.6,3.5C361.3,27.4,360.3,26.7,360.3,25.7z"/>
</g>
<rect x="408.6" y="34.3" width="10.5" height="0.8"/>
<rect x="408.6" y="39.3" width="10.5" height="0.8"/>
<rect x="416.8" y="12.4" width="0.5" height="29"/>
<g>
	<path d="M410.4,43c0-1.8,2.5-3.5,4.5-3.5c1.3,0,2.3,0.7,2.3,1.7c0,1.7-2.5,3.5-4.6,3.5C411.4,44.7,410.4,44.1,410.4,43z"/>
</g>
<g>
	<path d="M410.4,38.1c0-1.8,2.5-3.5,4.5-3.5c1.3,0,2.3,0.7,2.3,1.7c0,1.7-2.5,3.5-4.6,3.5C411.4,39.8,410.4,39.1,410.4,38.1z"/>
</g>
<g>
	<path d="M410.4,33.1c0-1.8,2.5-3.5,4.5-3.5c1.3,0,2.3,0.7,2.3,1.7c0,1.7-2.5,3.5-4.6,3.5C411.4,34.8,410.4,34.2,410.4,33.1z"/>
</g>
<g>
	<path d="M416.8,30.6c0-1.8,2.5-3.5,4.5-3.5c1.3,0,2.3,0.7,2.3,1.7c0,1.7-2.5,3.5-4.6,3.5C417.7,32.3,416.8,31.7,416.8,30.6z"/>
</g>
<rect x="458.6" y="34.3" width="10.7" height="0.8"/>
<rect x="458.6" y="39.3" width="10.7" height="0.8"/>
<rect x="458.6" y="44.3" width="10.7" height="0.8"/>
<rect x="467.1" y="14.9" width="0.5" height="31.5"/>
<g>
	<path d="M464.7,44.4c1.6,0,2.7,0.7,2.7,2c0,1.9-2.3,3.4-4.5,3.4c-1.3,0-2.4-0.7-2.4-1.8C460.5,46.2,462.7,44.4,464.7,44.4z
		 M460.9,48.3c0,0.6,0.4,0.9,1.1,0.9c1.4,0,4.9-2.1,4.9-3.3c0-0.6-0.4-0.9-1.1-0.9C464.6,45,460.9,47,460.9,48.3z"/>
</g>
<g>
	<path d="M464.7,39.5c1.6,0,2.7,0.7,2.7,2c0,1.9-2.3,3.4-4.5,3.4c-1.3,0-2.4-0.7-2.4-1.8C460.5,41.3,462.7,39.5,464.7,39.5z
		 M460.9,43.3c0,0.6,0.4,0.9,1.1,0.9c1.4,0,4.9-2.1,4.9-3.3c0-0.6-0.4-0.9-1.1-0.9C464.6,40.1,460.9,42.1,460.9,43.3z"/>
</g>
<g>
	<path d="M464.7,34.5c1.6,0,2.7,0.7,2.7,2c0,1.9-2.3,3.4-4.5,3.4c-1.3,0-2.4-0.7-2.4-1.8C460.5,36.3,462.7,34.5,464.7,34.5z
		 M460.9,38.4c0,0.6,0.4,0.9,1.1,0.9c1.4,0,4.9-2.1,4.9-3.3c0-0.6-0.4-0.9-1.1-0.9C464.6,35.1,460.9,37.1,460.9,38.4z"/>
</g>
<g>
	<path d="M464.7,29.5c1.6,0,2.7,0.7,2.7,2c0,1.9-2.3,3.4-4.5,3.4c-1.3,0-2.4-0.7-2.4-1.8C460.5,31.3,462.7,29.5,464.7,29.5z
		 M460.9,33.4c0,0.6,0.4,0.9,1.1,0.9c1.4,0,4.9-2.1,4.9-3.3c0-0.6-0.4-0.9-1.1-0.9C464.6,30.1,460.9,32.2,460.9,33.4z"/>
</g>
<rect x="57.9" y="90.4" width="10.5" height="0.8"/>
<rect x="59.7" y="76.7" width="0.5" height="27.7"/>
<g>
	<path d="M59.8,76.8c0-1.8,2.5-3.5,4.5-3.5c1.3,0,2.3,0.7,2.3,1.7c0,1.7-2.5,3.5-4.6,3.5C60.7,78.5,59.8,77.9,59.8,76.8z"/>
</g>
<g>
	<path d="M59.8,81.8c0-1.8,2.5-3.5,4.5-3.5c1.3,0,2.3,0.7,2.3,1.7c0,1.7-2.5,3.5-4.6,3.5C60.7,83.5,59.8,82.9,59.8,81.8z"/>
</g>
<g>
	<path d="M59.8,86.7c0-1.8,2.5-3.5,4.5-3.5c1.3,0,2.3,0.7,2.3,1.7c0,1.7-2.5,3.5-4.6,3.5C60.7,88.5,59.8,87.8,59.8,86.7z"/>
</g>
<g>
	<path d="M59.8,91.7c0-1.8,2.5-3.5,4.5-3.5c1.3,0,2.3,0.7,2.3,1.7c0,1.7-2.5,3.5-4.6,3.5C60.7,93.4,59.8,92.8,59.8,91.7z"/>
</g>
<g>
	<path d="M56.6,97.6v-4l-3,1.1V84h0.5v4l3-1.1v10.7H56.6z M54.1,92.9l2.5-0.9v-3.3l-2.5,0.9V92.9z"/>
</g>
<rect x="116.3" y="57.4" width="0.5" height="27.7"/>
<g>
	<path d="M109.8,86.7c0-1.8,2.5-3.5,4.5-3.5c1.3,0,2.3,0.7,2.3,1.7c0,1.7-2.5,3.5-4.6,3.5C110.8,88.5,109.8,87.8,109.8,86.7z"/>
</g>
<g>
	<path d="M109.8,81.8c0-1.8,2.5-3.5,4.5-3.5c1.3,0,2.3,0.7,2.3,1.7c0,1.7-2.5,3.5-4.6,3.5C110.8,83.5,109.8,82.9,109.8,81.8z"/>
</g>
<g>
	<path d="M109.8,76.8c0-1.8,2.5-3.5,4.5-3.5c1.3,0,2.3,0.7,2.3,1.7c0,1.7-2.5,3.5-4.6,3.5C110.8,78.5,109.8,77.9,109.8,76.8z"/>
</g>
<g>
	<path d="M116.2,74.3c0-1.8,2.5-3.5,4.5-3.5c1.3,0,2.3,0.7,2.3,1.7c0,1.7-2.5,3.5-4.6,3.5C117.2,76.1,116.2,75.4,116.2,74.3z"/>
</g>
<g>
	<path d="M107.9,80.2v-4l-3,1.1V66.7h0.5v4l3-1.1v10.7H107.9z M105.4,75.6l2.5-0.9v-3.3l-2.5,0.9V75.6z"/>
</g>
<rect x="159.8" y="69.3" width="0.5" height="26.5"/>
<g>
	<path d="M159.9,69.4c0-1.8,2.5-3.5,4.5-3.5c1.3,0,2.3,0.7,2.3,1.7c0,1.7-2.5,3.5-4.6,3.5C160.9,71.1,159.9,70.5,159.9,69.4z"/>
</g>
<g>
	<path d="M159.9,74.3c0-1.8,2.5-3.5,4.5-3.5c1.3,0,2.3,0.7,2.3,1.7c0,1.7-2.5,3.5-4.6,3.5C160.9,76.1,159.9,75.4,159.9,74.3z"/>
</g>
<g>
	<path d="M153.6,76.8c0-1.8,2.5-3.5,4.5-3.5c1.3,0,2.3,0.7,2.3,1.7c0,1.7-2.5,3.5-4.6,3.5C154.5,78.5,153.6,77.9,153.6,76.8z"/>
</g>
<g>
	<path d="M159.9,81.8c0-1.8,2.5-3.5,4.5-3.5c1.3,0,2.3,0.7,2.3,1.7c0,1.7-2.5,3.5-4.6,3.5C160.9,83.5,159.9,82.9,159.9,81.8z"/>
</g>
<rect x="209.9" y="64.3" width="0.5" height="29"/>
<g>
	<path d="M210,64.4c0-1.8,2.5-3.5,4.5-3.5c1.3,0,2.3,0.7,2.3,1.7c0,1.7-2.5,3.5-4.6,3.5C211,66.1,210,65.5,210,64.4z"/>
</g>
<g>
	<path d="M210,69.4c0-1.8,2.5-3.5,4.5-3.5c1.3,0,2.3,0.7,2.3,1.7c0,1.7-2.5,3.5-4.6,3.5C211,71.1,210,70.5,210,69.4z"/>
</g>
<g>
	<path d="M210,74.3c0-1.8,2.5-3.5,4.5-3.5c1.3,0,2.3,0.7,2.3,1.7c0,1.7-2.5,3.5-4.6,3.5C211,76.1,210,75.4,210,74.3z"/>
</g>
<g>
	<path d="M203.6,76.8c0-1.8,2.5-3.5,4.5-3.5c1.3,0,2.3,0.7,2.3,1.7c0,1.7-2.5,3.5-4.6,3.5C204.6,78.5,203.6,77.9,203.6,76.8z"/>
</g>
<rect x="258.2" y="60.7" width="10.5" height="0.8"/>
<rect x="260" y="59.4" width="0.5" height="31.5"/>
<g>
	<path d="M260,59.4c0-1.8,2.5-3.5,4.5-3.5c1.3,0,2.3,0.7,2.3,1.7c0,1.7-2.5,3.5-4.6,3.5C261,61.2,260,60.5,260,59.4z"/>
</g>
<g>
	<path d="M260,64.4c0-1.8,2.5-3.5,4.5-3.5c1.3,0,2.3,0.7,2.3,1.7c0,1.7-2.5,3.5-4.6,3.5C261,66.1,260,65.5,260,64.4z"/>
</g>
<g>
	<path d="M260,69.4c0-1.8,2.5-3.5,4.5-3.5c1.3,0,2.3,0.7,2.3,1.7c0,1.7-2.5,3.5-4.6,3.5C261,71.1,260,70.5,260,69.4z"/>
</g>
<g>
	<path d="M260,74.3c0-1.8,2.5-3.5,4.5-3.5c1.3,0,2.3,0.7,2.3,1.7c0,1.7-2.5,3.5-4.6,3.5C261,76.1,260,75.4,260,74.3z"/>
</g>
<rect x="310.2" y="64.3" width="0.5" height="29"/>
<g>
	<path d="M310.3,64.4c0-1.8,2.5-3.5,4.5-3.5c1.3,0,2.3,0.7,2.3,1.7c0,1.7-2.5,3.5-4.6,3.5C311.2,66.1,310.3,65.5,310.3,64.4z"/>
</g>
<g>
	<path d="M310.3,69.4c0-1.8,2.5-3.5,4.5-3.5c1.3,0,2.3,0.7,2.3,1.7c0,1.7-2.5,3.5-4.6,3.5C311.2,71.1,310.3,70.5,310.3,69.4z"/>
</g>
<g>
	<path d="M310.3,74.3c0-1.8,2.5-3.5,4.5-3.5c1.3,0,2.3,0.7,2.3,1.7c0,1.7-2.5,3.5-4.6,3.5C311.2,76.1,310.3,75.4,310.3,74.3z"/>
</g>
<g>
	<path d="M303.9,76.8c0-1.8,2.5-3.5,4.5-3.5c1.3,0,2.3,0.7,2.3,1.7c0,1.7-2.5,3.5-4.6,3.5C304.9,78.5,303.9,77.9,303.9,76.8z"/>
</g>
<rect x="360.3" y="69.3" width="0.5" height="26.5"/>
<g>
	<path d="M360.3,69.4c0-1.8,2.5-3.5,4.5-3.5c1.3,0,2.3,0.7,2.3,1.7c0,1.7-2.5,3.5-4.6,3.5C361.3,71.1,360.3,70.5,360.3,69.4z"/>
</g>
<g>
	<path d="M360.3,74.3c0-1.8,2.5-3.5,4.5-3.5c1.3,0,2.3,0.7,2.3,1.7c0,1.7-2.5,3.5-4.6,3.5C361.3,76.1,360.3,75.4,360.3,74.3z"/>
</g>
<g>
	<path d="M354,76.8c0-1.8,2.5-3.5,4.5-3.5c1.3,0,2.3,0.7,2.3,1.7c0,1.7-2.5,3.5-4.6,3.5C355,78.5,354,77.9,354,76.8z"/>
</g>
<g>
	<path d="M360.3,81.8c0-1.8,2.5-3.5,4.5-3.5c1.3,0,2.3,0.7,2.3,1.7c0,1.7-2.5,3.5-4.6,3.5C361.3,83.5,360.3,82.9,360.3,81.8z"/>
</g>
<rect x="416.8" y="57.4" width="0.5" height="27.7"/>
<g>
	<path d="M410.4,86.7c0-1.8,2.5-3.5,4.5-3.5c1.3,0,2.3,0.7,2.3,1.7c0,1.7-2.5,3.5-4.6,3.5C411.4,88.5,410.4,87.8,410.4,86.7z"/>
</g>
<g>
	<path d="M410.4,81.8c0-1.8,2.5-3.5,4.5-3.5c1.3,0,2.3,0.7,2.3,1.7c0,1.7-2.5,3.5-4.6,3.5C411.4,83.5,410.4,82.9,410.4,81.8z"/>
</g>
<g>
	<path d="M410.4,76.8c0-1.8,2.5-3.5,4.5-3.5c1.3,0,2.3,0.7,2.3,1.7c0,1.7-2.5,3.5-4.6,3.5C411.4,78.5,410.4,77.9,410.4,76.8z"/>
</g>
<g>
	<path d="M416.8,74.3c0-1.8,2.5-3.5,4.5-3.5c1.3,0,2.3,0.7,2.3,1.7c0,1.7-2.5,3.5-4.6,3.5C417.7,76.1,416.8,75.4,416.8,74.3z"/>
</g>
<rect x="458.6" y="90.4" width="10.7" height="0.8"/>
<rect x="467.1" y="58.6" width="0.5" height="31.5"/>
<g>
	<path d="M464.7,88.1c1.6,0,2.7,0.7,2.7,2c0,1.9-2.3,3.4-4.5,3.4c-1.3,0-2.4-0.7-2.4-1.8C460.5,89.9,462.7,88.1,464.7,88.1z
		 M460.9,92c0,0.6,0.4,0.9,1.1,0.9c1.4,0,4.9-2.1,4.9-3.3c0-0.6-0.4-0.9-1.1-0.9C464.6,88.7,460.9,90.8,460.9,92z"/>
</g>
<g>
	<path d="M464.7,83.2c1.6,0,2.7,0.7,2.7,2c0,1.9-2.3,3.4-4.5,3.4c-1.3,0-2.4-0.7-2.4-1.8C460.5,85,462.7,83.2,464.7,83.2z M460.9,87
		c0,0.6,0.4,0.9,1.1,0.9c1.4,0,4.9-2.1,4.9-3.3c0-0.6-0.4-0.9-1.1-0.9C464.6,83.8,460.9,85.8,460.9,87z"/>
</g>
<g>
	<path d="M464.7,78.2c1.6,0,2.7,0.7,2.7,2c0,1.9-2.3,3.4-4.5,3.4c-1.3,0-2.4-0.7-2.4-1.8C460.5,80,462.7,78.2,464.7,78.2z
		 M460.9,82.1c0,0.6,0.4,0.9,1.1,0.9c1.4,0,4.9-2.1,4.9-3.3c0-0.6-0.4-0.9-1.1-0.9C464.6,78.8,460.9,80.8,460.9,82.1z"/>
</g>
<g>
	<path d="M464.7,73.3c1.6,0,2.7,0.7,2.7,2c0,1.9-2.3,3.4-4.5,3.4c-1.3,0-2.4-0.7-2.4-1.8C460.5,75,462.7,73.3,464.7,73.3z
		 M460.9,77.1c0,0.6,0.4,0.9,1.1,0.9c1.4,0,4.9-2.1,4.9-3.3c0-0.6-0.4-0.9-1.1-0.9C464.6,73.9,460.9,75.9,460.9,77.1z"/>
</g>
</svg>
