<?xml version="1.0" encoding="utf-8"?>

<!--
	ScaleBook
	Copyright (c) Leland Jansen 2015. All rights reserved.
-->

<!DOCTYPE svg PUBLIC "-//W3C//DTD SVG 1.1//EN" "http://www.w3.org/Graphics/SVG/1.1/DTD/svg11.dtd">
<svg version="1.1" id="Layer_1" xmlns="http://www.w3.org/2000/svg" xmlns:xlink="http://www.w3.org/1999/xlink" x="0px" y="0px"
	 viewBox="0 0 552.9 87.8" enable-background="new 0 0 552.9 87.8" xml:space="preserve">
<rect x="8.4" y="10.8" width="0.8" height="67"/>
<g>
	<path d="M7.4,11.5c-1.9,1.1-3.6,5.8-3.6,9.4c0,2.3,1.4,9.9,1.4,12.3c0,5-1.5,8.6-4.6,11.1c3,2.4,4.6,6.1,4.6,11
		c0,2.3-1.4,9.9-1.4,12.3c0,3.8,1.7,8.4,3.6,9.5v0.7c-3.5-2.3-5.8-8.2-5.8-13.1c0-2.1,1.7-9.4,1.7-11.5c0-3.8-1-6.6-2.9-8.2
		C0.1,44.7,0,44.5,0,44.3s0.1-0.4,0.5-0.7c1.9-1.7,2.9-4.2,2.9-7.6c0-2.1-1.7-10-1.7-12.2c0-5.2,2.1-10.4,5.8-13.1V11.5z"/>
</g>
<rect x="547.8" y="10.8" width="0.8" height="67"/>
<rect x="550.4" y="10.8" width="2.5" height="67"/>
<rect x="8.5" y="30.4" width="544.4" height="0.5"/>
<rect x="8.5" y="25.4" width="544.4" height="0.5"/>
<rect x="8.5" y="20.5" width="544.4" height="0.5"/>
<rect x="8.5" y="15.5" width="544.4" height="0.5"/>
<rect x="8.5" y="10.6" width="544.4" height="0.5"/>
<g>
	<path d="M20.3,30.5c-4.2,0-8.1-3.1-8.1-6.9c0-3.2,2.3-6.7,6.8-10.5c-0.3-1.2-0.4-2.4-0.4-3.6c0-3.5,1.2-6.8,3.2-8.5
		c1.8,2.5,2.7,4.9,2.7,7.1c0,2.9-1.3,5.6-4.3,8.1l0.9,4.2c0.5,0,0.8-0.1,0.8-0.1c2.6,0,4.8,2,4.8,4.7c0,1.9-1.4,3.7-3.6,4.8
		c0-0.1,0.9,3.8,0.9,4.3c0,2.5-2.3,4.2-4.9,4.2c-2,0-3.6-1.3-3.6-3.4c0-1.4,1-2.6,2.4-2.6c1.3,0,2.3,1.3,2.3,2.5
		c0,1.4-1.2,2.3-2.7,2.5c0.6,0.3,1.2,0.5,1.9,0.5c2.1,0,4.1-1.6,4.1-3.6c0-0.2,0-0.4-0.1-0.6L22.6,30C21.9,30.3,21.2,30.5,20.3,30.5
		z M18.1,25.3c0,1,0.5,1.9,1.6,2.5c-1.8-0.3-3-1.4-3-3.1c0-2,1.7-3.7,3.8-4.1l-0.8-4C16,19.3,14,22.1,14,24.7c0,2.9,2.8,5.3,6,5.3
		c0.9,0,1.7-0.2,2.4-0.5L21,22.7C19.4,22.9,18.1,23.9,18.1,25.3z M22.1,3.9c-1.6,0-2.9,3.7-2.9,7c0,0.7,0,1.3,0.2,1.9
		c2.7-2.4,4-4.5,4-6.5c0-0.9-0.3-1.7-1-2.4C22.4,3.9,22.3,3.9,22.1,3.9z M24.9,25.8c0-1.6-1.2-3.3-2.9-3.3c-0.1,0-0.2,0-0.5,0
		l1.4,6.6C24.2,28.3,24.9,27.1,24.9,25.8z"/>
</g>
<g>
	<path d="M29.5,12.4h0.6L30,18.6c0.4-0.7,1-1,1.8-1c1.2,0,2.2,0.8,2.2,1.9c0,0.8-0.5,1.8-1.7,2.7l-2.8,2.1V12.4z M30.1,19.3
		C30,20.1,30,20.7,30,21.2c0,1,0,1.6,0.1,2c1-0.7,2.4-2.6,2.4-3.7c0-0.6-0.5-1.1-1.1-1.1C30.8,18.5,30.4,18.7,30.1,19.3z"/>
</g>
<g>
	<path d="M35.1,5h0.6l-0.1,6.2c0.4-0.7,1-1,1.8-1c1.2,0,2.2,0.8,2.2,1.9c0,0.8-0.5,1.8-1.7,2.7l-2.8,2.1V5z M35.7,11.9
		c-0.1,0.8-0.1,1.4-0.1,1.9c0,1,0,1.6,0.1,2c1-0.7,2.4-2.6,2.4-3.7c0-0.6-0.5-1.1-1.1-1.1C36.4,11,36,11.3,35.7,11.9z"/>
</g>
<g>
	<path d="M40.7,14.9h0.6l-0.1,6.2c0.4-0.7,1-1,1.8-1c1.2,0,2.2,0.8,2.2,1.9c0,0.8-0.5,1.8-1.7,2.7l-2.8,2.1V14.9z M41.3,21.8
		c-0.1,0.8-0.1,1.4-0.1,1.9c0,1,0,1.6,0.1,2c1-0.7,2.4-2.6,2.4-3.7c0-0.6-0.5-1.1-1.1-1.1C42,21,41.6,21.2,41.3,21.8z"/>
</g>
<g>
	<path d="M46.3,7.4h0.6l-0.1,6.2c0.4-0.7,1-1,1.8-1c1.2,0,2.2,0.8,2.2,1.9c0,0.8-0.5,1.8-1.7,2.7l-2.8,2.1V7.4z M46.9,14.3
		c-0.1,0.8-0.1,1.4-0.1,1.9c0,1,0,1.6,0.1,2c1-0.7,2.4-2.6,2.4-3.7c0-0.6-0.5-1.1-1.1-1.1C47.6,13.5,47.2,13.8,46.9,14.3z"/>
</g>
<g>
	<path d="M51.9,17.4h0.6l-0.1,6.2c0.4-0.7,1-1,1.8-1c1.2,0,2.2,0.8,2.2,1.9c0,0.8-0.5,1.8-1.7,2.7l-2.8,2.1V17.4z M52.4,24.3
		c-0.1,0.8-0.1,1.4-0.1,1.9c0,1,0,1.6,0.1,2c1-0.7,2.4-2.6,2.4-3.7c0-0.6-0.5-1.1-1.1-1.1C53.2,23.4,52.7,23.7,52.4,24.3z"/>
</g>
<g>
	<path d="M57.4,9.9h0.6l-0.1,6.2c0.4-0.7,1-1,1.8-1c1.2,0,2.2,0.8,2.2,1.9c0,0.8-0.5,1.8-1.7,2.7l-2.8,2.1V9.9z M58,16.8
		c-0.1,0.8-0.1,1.4-0.1,1.9c0,1,0,1.6,0.1,2c1-0.7,2.4-2.6,2.4-3.7c0-0.6-0.5-1.1-1.1-1.1C58.7,16,58.3,16.3,58,16.8z"/>
</g>
<g>
	<path d="M63,19.8h0.6l-0.1,6.2c0.4-0.7,1-1,1.8-1c1.2,0,2.2,0.8,2.2,1.9c0,0.8-0.5,1.8-1.7,2.7L63,31.8V19.8z M63.6,26.7
		c-0.1,0.8-0.1,1.4-0.1,1.9c0,1,0,1.6,0.1,2C64.6,30,66,28,66,27c0-0.6-0.5-1.1-1.1-1.1C64.3,25.9,63.9,26.2,63.6,26.7z"/>
</g>
<polygon fill-rule="evenodd" clip-rule="evenodd" points="82.7,26.9 125.5,22 125.5,19.5 82.7,24.4 "/>
<polygon fill-rule="evenodd" clip-rule="evenodd" points="82.7,23.2 125.5,18.2 125.5,15.8 82.7,20.7 "/>
<polygon fill-rule="evenodd" clip-rule="evenodd" points="139.9,17 182.7,12 182.7,9.6 139.9,14.5 "/>
<polygon fill-rule="evenodd" clip-rule="evenodd" points="139.9,13.3 182.7,8.3 182.7,5.8 139.9,10.8 "/>
<polygon fill-rule="evenodd" clip-rule="evenodd" points="202.5,31.9 245.3,26.9 245.3,24.4 202.5,29.4 "/>
<polygon fill-rule="evenodd" clip-rule="evenodd" points="202.5,35.6 245.3,30.6 245.3,28.2 202.5,33.1 "/>
<polygon fill-rule="evenodd" clip-rule="evenodd" points="259.7,23.2 303.9,22 303.9,19.5 259.7,20.7 "/>
<polygon fill-rule="evenodd" clip-rule="evenodd" points="259.7,26.9 303.9,25.7 303.9,23.2 259.7,24.4 "/>
<polygon fill-rule="evenodd" clip-rule="evenodd" points="318.2,26.9 361,31.9 361,29.4 318.2,24.4 "/>
<polygon fill-rule="evenodd" clip-rule="evenodd" points="318.2,30.6 361,35.6 361,33.1 318.2,28.2 "/>
<polygon fill-rule="evenodd" clip-rule="evenodd" points="393.8,12 436.8,17 436.8,14.5 393.8,9.6 "/>
<polygon fill-rule="evenodd" clip-rule="evenodd" points="393.8,8.3 436.8,13.3 436.8,10.8 393.8,5.8 "/>
<polygon fill-rule="evenodd" clip-rule="evenodd" points="451,22 493.8,26.9 493.8,24.4 451,19.5 "/>
<polygon fill-rule="evenodd" clip-rule="evenodd" points="451,18.2 493.8,23.2 493.8,20.7 451,15.8 "/>
<rect x="8.5" y="77.5" width="544.4" height="0.5"/>
<rect x="8.5" y="72.6" width="544.4" height="0.5"/>
<rect x="8.5" y="67.6" width="544.4" height="0.5"/>
<rect x="8.5" y="62.6" width="544.4" height="0.5"/>
<rect x="8.5" y="57.7" width="544.4" height="0.5"/>
<g>
	<path d="M15.7,72.1c2.9-2.6,4.7-6.1,4.7-9.2c0-2.5-1.4-4.4-3.7-4.4c-1.6,0-3.4,1.3-3.4,2.7c0,0.2,0,0.3,0.1,0.3
		c-0.1,0,0.6-0.6,1.4-0.6c0.9,0,1.5,0.8,1.5,1.7c0,1.2-0.9,2.2-2.1,2.2c-1.2,0-2.1-1.3-2.1-2.8c0-2.3,2.3-4.1,4.8-4.1
		c4.7,0,5.9,3.2,5.9,5.8c0,1.6-0.4,2.9-2,5.3c-1.9,3.1-6.4,5.3-8.1,5.3c-0.4,0-0.6-0.2-0.6-0.5C13.8,73.4,14.9,72.8,15.7,72.1z
		 M25.7,59.4c0.6,0,1,0.4,1,1s-0.4,1-1,1s-1-0.4-1-1S25.1,59.4,25.7,59.4z M25.7,64.3c0.6,0,1,0.4,1,1s-0.4,1-1,1s-1-0.4-1-1
		S25.1,64.3,25.7,64.3z"/>
</g>
<g>
	<path d="M29.5,64.5h0.6L30,70.7c0.4-0.7,1-1,1.8-1c1.2,0,2.2,0.8,2.2,1.9c0,0.8-0.5,1.8-1.7,2.7l-2.8,2.1V64.5z M30.1,71.4
		C30,72.1,30,72.8,30,73.3c0,1,0,1.6,0.1,2c1-0.7,2.4-2.6,2.4-3.7c0-0.6-0.5-1.1-1.1-1.1C30.8,70.6,30.4,70.8,30.1,71.4z"/>
</g>
<g>
	<path d="M35.1,57h0.6l-0.1,6.2c0.4-0.7,1-1,1.8-1c1.2,0,2.2,0.8,2.2,1.9c0,0.8-0.5,1.8-1.7,2.7L35.1,69V57z M35.7,63.9
		c-0.1,0.8-0.1,1.4-0.1,1.9c0,1,0,1.6,0.1,2c1-0.7,2.4-2.6,2.4-3.7c0-0.6-0.5-1.1-1.1-1.1C36.4,63.1,36,63.4,35.7,63.9z"/>
</g>
<g>
	<path d="M40.7,67h0.6l-0.1,6.2c0.4-0.7,1-1,1.8-1c1.2,0,2.2,0.8,2.2,1.9c0,0.8-0.5,1.8-1.7,2.7l-2.8,2.1V67z M41.3,73.9
		c-0.1,0.8-0.1,1.4-0.1,1.9c0,1,0,1.6,0.1,2c1-0.7,2.4-2.6,2.4-3.7c0-0.6-0.5-1.1-1.1-1.1C42,73,41.6,73.3,41.3,73.9z"/>
</g>
<g>
	<path d="M46.3,59.5h0.6l-0.1,6.2c0.4-0.7,1-1,1.8-1c1.2,0,2.2,0.8,2.2,1.9c0,0.8-0.5,1.8-1.7,2.7l-2.8,2.1V59.5z M46.9,66.4
		c-0.1,0.8-0.1,1.4-0.1,1.9c0,1,0,1.6,0.1,2c1-0.7,2.4-2.6,2.4-3.7c0-0.6-0.5-1.1-1.1-1.1C47.6,65.6,47.2,65.9,46.9,66.4z"/>
</g>
<g>
	<path d="M51.9,69.4h0.6l-0.1,6.2c0.4-0.7,1-1,1.8-1c1.2,0,2.2,0.8,2.2,1.9c0,0.8-0.5,1.8-1.7,2.7l-2.8,2.1V69.4z M52.4,76.3
		c-0.1,0.8-0.1,1.4-0.1,1.9c0,1,0,1.6,0.1,2c1-0.7,2.4-2.6,2.4-3.7c0-0.6-0.5-1.1-1.1-1.1C53.2,75.5,52.7,75.8,52.4,76.3z"/>
</g>
<g>
	<path d="M57.4,62h0.6l-0.1,6.2c0.4-0.7,1-1,1.8-1c1.2,0,2.2,0.8,2.2,1.9c0,0.8-0.5,1.8-1.7,2.7l-2.8,2.1V62z M58,68.9
		c-0.1,0.8-0.1,1.4-0.1,1.9c0,1,0,1.6,0.1,2c1-0.7,2.4-2.6,2.4-3.7c0-0.6-0.5-1.1-1.1-1.1C58.7,68.1,58.3,68.4,58,68.9z"/>
</g>
<g>
	<path d="M63,71.9h0.6l-0.1,6.2c0.4-0.7,1-1,1.8-1c1.2,0,2.2,0.8,2.2,1.9c0,0.8-0.5,1.8-1.7,2.7L63,83.9V71.9z M63.6,78.8
		c-0.1,0.8-0.1,1.4-0.1,1.9c0,1,0,1.6,0.1,2c1-0.7,2.4-2.6,2.4-3.7c0-0.6-0.5-1.1-1.1-1.1C64.3,78,63.9,78.3,63.6,78.8z"/>
</g>
<polygon fill-rule="evenodd" clip-rule="evenodd" points="82.7,64.1 125.5,59.2 125.5,56.7 82.7,61.6 "/>
<polygon fill-rule="evenodd" clip-rule="evenodd" points="82.7,60.4 125.5,55.4 125.5,53 82.7,57.9 "/>
<g>
	<path d="M194.5,76.4c-3.2,0-6.1-2.3-6.1-5.1c0-2.4,1.7-5,5.1-7.9c-0.2-0.9-0.3-1.8-0.3-2.7c0-2.6,0.9-5.1,2.4-6.3
		c1.4,1.9,2,3.7,2,5.3c0,2.2-1,4.2-3.2,6.1l0.7,3.1c0.4,0,0.6,0,0.6,0c2,0,3.6,1.5,3.6,3.5c0,1.4-1.1,2.8-2.7,3.6
		c0-0.1,0.6,2.8,0.6,3.3c0,1.9-1.7,3.2-3.7,3.2c-1.5,0-2.7-1-2.7-2.5c0-1.1,0.7-1.9,1.8-1.9c1,0,1.7,1,1.7,1.9c0,1-0.9,1.7-2,1.8
		c0.4,0.2,0.9,0.3,1.4,0.3c1.6,0,3.1-1.2,3.1-2.7c0-0.1,0-0.3,0-0.5l-0.6-2.8C195.7,76.3,195.2,76.4,194.5,76.4z M192.9,72.5
		c0,0.8,0.4,1.4,1.2,1.9c-1.3-0.2-2.2-1.1-2.2-2.3c0-1.5,1.3-2.8,2.9-3.1l-0.6-3c-2.8,2.1-4.3,4.1-4.3,6.1c0,2.2,2.1,4,4.5,4
		c0.7,0,1.3-0.1,1.8-0.4l-1.1-5.1C193.8,70.7,192.9,71.5,192.9,72.5z M195.9,56.5c-1.2,0-2.2,2.8-2.2,5.3c0,0.5,0,1,0.1,1.4
		c2-1.8,3-3.4,3-4.8c0-0.7-0.3-1.3-0.7-1.8C196.1,56.5,196,56.5,195.9,56.5z M198,72.9c0-1.2-0.9-2.4-2.2-2.4c0,0-0.2,0-0.4,0l1.1,5
		C197.4,74.7,198,73.9,198,72.9z"/>
</g>
<polygon fill-rule="evenodd" clip-rule="evenodd" points="133.4,79 176.2,74 176.2,71.6 133.4,76.5 "/>
<polygon fill-rule="evenodd" clip-rule="evenodd" points="133.4,82.7 176.2,77.8 176.2,75.3 133.4,80.2 "/>
<polygon fill-rule="evenodd" clip-rule="evenodd" points="209,74 251.8,69.1 251.8,66.6 209,71.6 "/>
<polygon fill-rule="evenodd" clip-rule="evenodd" points="209,70.3 251.8,65.4 251.8,62.9 209,67.8 "/>
<rect x="266.2" y="56.7" fill-rule="evenodd" clip-rule="evenodd" width="44.2" height="2.5"/>
<rect x="266.2" y="53" fill-rule="evenodd" clip-rule="evenodd" width="44.2" height="2.5"/>
<g>
	<path d="M377.7,69.8c2.2-2,3.6-4.6,3.6-6.9c0-1.9-1.1-3.3-2.8-3.3c-1.2,0-2.5,1-2.5,2.1c0,0.2,0,0.2,0.1,0.2c0,0,0.4-0.5,1-0.5
		c0.7,0,1.2,0.6,1.2,1.3c0,0.9-0.6,1.7-1.6,1.7s-1.5-1-1.5-2.1c0-1.8,1.7-3.1,3.6-3.1c3.5,0,4.4,2.4,4.4,4.4c0,1.2-0.3,2.2-1.5,4
		c-1.4,2.3-4.8,4-6,4c-0.3,0-0.5-0.1-0.5-0.3C376.3,70.7,377.1,70.3,377.7,69.8z M385.2,60.3c0.4,0,0.7,0.3,0.7,0.7
		c0,0.4-0.3,0.7-0.7,0.7c-0.4,0-0.7-0.3-0.7-0.7C384.4,60.6,384.8,60.3,385.2,60.3z M385.2,64c0.4,0,0.7,0.3,0.7,0.7
		s-0.3,0.7-0.7,0.7c-0.4,0-0.7-0.3-0.7-0.7S384.8,64,385.2,64z"/>
</g>
<polygon fill-rule="evenodd" clip-rule="evenodd" points="324.7,64.1 367.5,69.1 367.5,66.6 324.7,61.6 "/>
<polygon fill-rule="evenodd" clip-rule="evenodd" points="324.7,60.4 367.5,65.4 367.5,62.9 324.7,57.9 "/>
<polygon fill-rule="evenodd" clip-rule="evenodd" points="387.3,69.1 430.3,74 430.3,71.6 387.3,66.6 "/>
<polygon fill-rule="evenodd" clip-rule="evenodd" points="387.3,72.8 430.3,77.8 430.3,75.3 387.3,70.3 "/>
<polygon fill-rule="evenodd" clip-rule="evenodd" points="451,54.2 493.8,59.2 493.8,56.7 451,51.7 "/>
<polygon fill-rule="evenodd" clip-rule="evenodd" points="451,50.5 493.8,55.4 493.8,53 451,48 "/>
<rect x="74.2" y="35.2" width="10.5" height="0.8"/>
<rect x="74.2" y="40.2" width="10.5" height="0.8"/>
<rect x="82.5" y="20.9" width="0.5" height="18.9"/>
<g>
	<path d="M76,41.4c0-1.8,2.5-3.5,4.5-3.5c1.3,0,2.3,0.7,2.3,1.7c0,1.7-2.5,3.5-4.6,3.5C77,43.1,76,42.5,76,41.4z"/>
</g>
<rect x="88.4" y="35.2" width="10.5" height="0.8"/>
<rect x="96.7" y="19.3" width="0.5" height="18"/>
<g>
	<path d="M90.3,38.9c0-1.8,2.5-3.5,4.5-3.5c1.3,0,2.3,0.7,2.3,1.7c0,1.7-2.5,3.5-4.6,3.5C91.3,40.7,90.3,40,90.3,38.9z"/>
</g>
<rect x="102.7" y="35.2" width="10.5" height="0.8"/>
<rect x="111" y="17.6" width="0.5" height="17.2"/>
<g>
	<path d="M104.6,36.4c0-1.8,2.5-3.5,4.5-3.5c1.3,0,2.3,0.7,2.3,1.7c0,1.7-2.5,3.5-4.6,3.5C105.5,38.2,104.6,37.5,104.6,36.4z"/>
</g>
<rect x="125.3" y="15.9" width="0.5" height="16.4"/>
<g>
	<path d="M118.8,34c0-1.8,2.5-3.5,4.5-3.5c1.3,0,2.3,0.7,2.3,1.7c0,1.7-2.5,3.5-4.6,3.5C119.8,35.7,118.8,35.1,118.8,34z"/>
</g>
<rect x="139.7" y="10.9" width="0.5" height="18.9"/>
<g>
	<path d="M133.2,31.5c0-1.8,2.5-3.5,4.5-3.5c1.3,0,2.3,0.7,2.3,1.7c0,1.7-2.5,3.5-4.6,3.5C134.2,33.2,133.2,32.6,133.2,31.5z"/>
</g>
<rect x="153.9" y="9.4" width="0.5" height="18"/>
<g>
	<path d="M147.5,29c0-1.8,2.5-3.5,4.5-3.5c1.3,0,2.3,0.7,2.3,1.7c0,1.7-2.5,3.5-4.6,3.5C148.5,30.7,147.5,30.1,147.5,29z"/>
</g>
<g>
	<path d="M145.6,34.9v-4l-3,1.1V21.3h0.5v4l3-1.1v10.7H145.6z M143,30.3l2.5-0.9V26l-2.5,0.9V30.3z"/>
</g>
<rect x="168.2" y="7.7" width="0.5" height="17.2"/>
<g>
	<path d="M161.8,26.5c0-1.8,2.5-3.5,4.5-3.5c1.3,0,2.3,0.7,2.3,1.7c0,1.7-2.5,3.5-4.6,3.5C162.7,28.3,161.8,27.6,161.8,26.5z"/>
</g>
<g>
	<path d="M159.8,32.4v-4l-3,1.1V18.9h0.5v4l3-1.1v10.7H159.8z M157.3,27.8l2.5-0.9v-3.3l-2.5,0.9V27.8z"/>
</g>
<rect x="182.5" y="6" width="0.5" height="16.4"/>
<g>
	<path d="M176,24c0-1.8,2.5-3.5,4.5-3.5c1.3,0,2.3,0.7,2.3,1.7c0,1.7-2.5,3.5-4.6,3.5C177,25.8,176,25.1,176,24z"/>
</g>
<rect x="202.3" y="21.5" width="0.5" height="14"/>
<g>
	<path d="M202.4,21.6c0-1.8,2.5-3.5,4.5-3.5c1.3,0,2.3,0.7,2.3,1.7c0,1.7-2.5,3.5-4.6,3.5C203.4,23.3,202.4,22.7,202.4,21.6z"/>
</g>
<rect x="216.6" y="19" width="0.5" height="14.9"/>
<g>
	<path d="M216.6,19.1c0-1.8,2.5-3.5,4.5-3.5c1.3,0,2.3,0.7,2.3,1.7c0,1.7-2.5,3.5-4.6,3.5C217.6,20.8,216.6,20.2,216.6,19.1z"/>
</g>
<rect x="230.8" y="16.5" width="0.5" height="15.7"/>
<g>
	<path d="M230.9,16.6c0-1.8,2.5-3.5,4.5-3.5c1.3,0,2.3,0.7,2.3,1.7c0,1.7-2.5,3.5-4.6,3.5C231.9,18.3,230.9,17.7,230.9,16.6z"/>
</g>
<rect x="245.1" y="14" width="0.5" height="16.4"/>
<g>
	<path d="M245.2,14.1c0-1.8,2.5-3.5,4.5-3.5c1.3,0,2.3,0.7,2.3,1.7c0,1.7-2.5,3.5-4.6,3.5C246.1,15.9,245.2,15.2,245.2,14.1z"/>
</g>
<rect x="259.5" y="11.6" width="0.5" height="15.2"/>
<g>
	<path d="M259.6,11.6c0-1.8,2.5-3.5,4.5-3.5c1.3,0,2.3,0.7,2.3,1.7c0,1.7-2.5,3.5-4.6,3.5C260.6,13.4,259.6,12.7,259.6,11.6z"/>
</g>
<g>
	<path d="M257.7,17.6v-4l-3,1.1V4h0.5v4l3-1.1v10.7H257.7z M255.1,12.9l2.5-0.9V8.6l-2.5,0.9V12.9z"/>
</g>
<rect x="273.8" y="9.1" width="0.5" height="17.4"/>
<g>
	<path d="M273.8,9.2c0-1.8,2.5-3.5,4.5-3.5c1.3,0,2.3,0.7,2.3,1.7c0,1.7-2.5,3.5-4.6,3.5C274.8,10.9,273.8,10.3,273.8,9.2z"/>
</g>
<g>
	<path d="M271.9,15.1v-4l-3,1.1V1.5h0.5v4l3-1.1v10.7H271.9z M269.4,10.4l2.5-0.9V6.2l-2.5,0.9V10.4z"/>
</g>
<rect x="286.2" y="5.4" width="10.5" height="0.8"/>
<rect x="288" y="6.6" width="0.5" height="19.4"/>
<g>
	<path d="M288.1,6.7c0-1.8,2.5-3.5,4.5-3.5c1.3,0,2.3,0.7,2.3,1.7c0,1.7-2.5,3.5-4.6,3.5C289.1,8.4,288.1,7.8,288.1,6.7z"/>
</g>
<rect x="303.7" y="9.1" width="0.5" height="16.4"/>
<g>
	<path d="M303.8,9.2c0-1.8,2.5-3.5,4.5-3.5c1.3,0,2.3,0.7,2.3,1.7c0,1.7-2.5,3.5-4.6,3.5C304.7,10.9,303.8,10.3,303.8,9.2z"/>
</g>
<g>
	<path d="M297.9,0h0.6l-0.1,6.2c0.4-0.7,1-1,1.8-1c1.2,0,2.2,0.8,2.2,1.9c0,0.8-0.5,1.8-1.7,2.7l-2.8,2.1V0z M298.4,6.9
		c-0.1,0.8-0.1,1.4-0.1,1.9c0,1,0,1.6,0.1,2c1-0.7,2.4-2.6,2.4-3.7c0-0.6-0.5-1.1-1.1-1.1C299.2,6.1,298.7,6.3,298.4,6.9z"/>
</g>
<rect x="317.9" y="11.6" width="0.5" height="18.9"/>
<g>
	<path d="M318,11.6c0-1.8,2.5-3.5,4.5-3.5c1.3,0,2.3,0.7,2.3,1.7c0,1.7-2.5,3.5-4.6,3.5C319,13.4,318,12.7,318,11.6z"/>
</g>
<g>
	<path d="M312.1,2.5h0.6l-0.1,6.2c0.4-0.7,1-1,1.8-1c1.2,0,2.2,0.8,2.2,1.9c0,0.8-0.5,1.8-1.7,2.7l-2.8,2.1V2.5z M312.7,9.4
		c-0.1,0.8-0.1,1.4-0.1,1.9c0,1,0,1.6,0.1,2c1-0.7,2.4-2.6,2.4-3.7c0-0.6-0.5-1.1-1.1-1.1C313.4,8.5,313,8.8,312.7,9.4z"/>
</g>
<rect x="332.2" y="14" width="0.5" height="18"/>
<g>
	<path d="M332.3,14.1c0-1.8,2.5-3.5,4.5-3.5c1.3,0,2.3,0.7,2.3,1.7c0,1.7-2.5,3.5-4.6,3.5C333.3,15.9,332.3,15.2,332.3,14.1z"/>
</g>
<rect x="346.5" y="16.5" width="0.5" height="17.2"/>
<g>
	<path d="M346.5,16.6c0-1.8,2.5-3.5,4.5-3.5c1.3,0,2.3,0.7,2.3,1.7c0,1.7-2.5,3.5-4.6,3.5C347.5,18.3,346.5,17.7,346.5,16.6z"/>
</g>
<rect x="360.7" y="19" width="0.5" height="16.4"/>
<g>
	<path d="M360.8,19.1c0-1.8,2.5-3.5,4.5-3.5c1.3,0,2.3,0.7,2.3,1.7c0,1.7-2.5,3.5-4.6,3.5C361.8,20.8,360.8,20.2,360.8,19.1z"/>
</g>
<rect x="393.6" y="6" width="0.5" height="14"/>
<g>
	<path d="M387.2,21.6c0-1.8,2.5-3.5,4.5-3.5c1.3,0,2.3,0.7,2.3,1.7c0,1.7-2.5,3.5-4.6,3.5C388.1,23.3,387.2,22.7,387.2,21.6z"/>
</g>
<rect x="408" y="7.5" width="0.5" height="14.9"/>
<g>
	<path d="M401.6,24c0-1.8,2.5-3.5,4.5-3.5c1.3,0,2.3,0.7,2.3,1.7c0,1.7-2.5,3.5-4.6,3.5C402.5,25.8,401.6,25.1,401.6,24z"/>
</g>
<rect x="422.3" y="9.2" width="0.5" height="15.7"/>
<g>
	<path d="M415.8,26.5c0-1.8,2.5-3.5,4.5-3.5c1.3,0,2.3,0.7,2.3,1.7c0,1.7-2.5,3.5-4.6,3.5C416.8,28.3,415.8,27.6,415.8,26.5z"/>
</g>
<g>
	<path d="M409.9,17.4h0.6l-0.1,6.2c0.4-0.7,1-1,1.8-1c1.2,0,2.2,0.8,2.2,1.9c0,0.8-0.5,1.8-1.7,2.7l-2.8,2.1V17.4z M410.5,24.3
		c-0.1,0.8-0.1,1.4-0.1,1.9c0,1,0,1.6,0.1,2c1-0.7,2.4-2.6,2.4-3.7c0-0.6-0.5-1.1-1.1-1.1C411.2,23.4,410.8,23.7,410.5,24.3z"/>
</g>
<rect x="436.5" y="10.9" width="0.5" height="16.4"/>
<g>
	<path d="M430.1,29c0-1.8,2.5-3.5,4.5-3.5c1.3,0,2.3,0.7,2.3,1.7c0,1.7-2.5,3.5-4.6,3.5C431.1,30.7,430.1,30.1,430.1,29z"/>
</g>
<g>
	<path d="M424.2,19.8h0.6l-0.1,6.2c0.4-0.7,1-1,1.8-1c1.2,0,2.2,0.8,2.2,1.9c0,0.8-0.5,1.8-1.7,2.7l-2.8,2.1V19.8z M424.8,26.7
		c-0.1,0.8-0.1,1.4-0.1,1.9c0,1,0,1.6,0.1,2c1-0.7,2.4-2.6,2.4-3.7c0-0.6-0.5-1.1-1.1-1.1C425.5,25.9,425.1,26.2,424.8,26.7z"/>
</g>
<rect x="450.8" y="15.9" width="0.5" height="14"/>
<g>
	<path d="M444.4,31.5c0-1.8,2.5-3.5,4.5-3.5c1.3,0,2.3,0.7,2.3,1.7c0,1.7-2.5,3.5-4.6,3.5C445.3,33.2,444.4,32.6,444.4,31.5z"/>
</g>
<rect x="465.1" y="17.5" width="0.5" height="14.9"/>
<g>
	<path d="M458.6,34c0-1.8,2.5-3.5,4.5-3.5c1.3,0,2.3,0.7,2.3,1.7c0,1.7-2.5,3.5-4.6,3.5C459.6,35.7,458.6,35.1,458.6,34z"/>
</g>
<rect x="471" y="35.2" width="10.5" height="0.8"/>
<rect x="479.3" y="19.2" width="0.5" height="15.7"/>
<g>
	<path d="M472.9,36.4c0-1.8,2.5-3.5,4.5-3.5c1.3,0,2.3,0.7,2.3,1.7c0,1.7-2.5,3.5-4.6,3.5C473.9,38.2,472.9,37.5,472.9,36.4z"/>
</g>
<rect x="485.3" y="35.2" width="10.5" height="0.8"/>
<rect x="493.6" y="20.9" width="0.5" height="16.4"/>
<g>
	<path d="M487.1,38.9c0-1.8,2.5-3.5,4.5-3.5c1.3,0,2.3,0.7,2.3,1.7c0,1.7-2.5,3.5-4.6,3.5C488.1,40.7,487.1,40,487.1,38.9z"/>
</g>
<rect x="499.7" y="35.2" width="10.7" height="0.8"/>
<rect x="499.7" y="40.2" width="10.7" height="0.8"/>
<rect x="508.2" y="20.7" width="0.5" height="19.1"/>
<g>
	<path d="M505.8,37.9c1.6,0,2.7,0.7,2.7,2c0,1.9-2.3,3.4-4.5,3.4c-1.3,0-2.4-0.7-2.4-1.8C501.6,39.6,503.8,37.9,505.8,37.9z
		 M502,41.7c0,0.6,0.4,0.9,1.1,0.9c1.4,0,4.9-2.1,4.9-3.3c0-0.6-0.4-0.9-1.1-0.9C505.7,38.5,502,40.5,502,41.7z"/>
</g>
<rect x="82.5" y="58.1" width="0.5" height="16.4"/>
<g>
	<path d="M76,76.1c0-1.8,2.5-3.5,4.5-3.5c1.3,0,2.3,0.7,2.3,1.7c0,1.7-2.5,3.5-4.6,3.5C77,77.9,76,77.2,76,76.1z"/>
</g>
<rect x="96.7" y="56.5" width="0.5" height="15.5"/>
<g>
	<path d="M90.3,73.6c0-1.8,2.5-3.5,4.5-3.5c1.3,0,2.3,0.7,2.3,1.7c0,1.7-2.5,3.5-4.6,3.5C91.3,75.4,90.3,74.7,90.3,73.6z"/>
</g>
<rect x="111" y="54.8" width="0.5" height="14.7"/>
<g>
	<path d="M104.6,71.2c0-1.8,2.5-3.5,4.5-3.5c1.3,0,2.3,0.7,2.3,1.7c0,1.7-2.5,3.5-4.6,3.5C105.5,72.9,104.6,72.3,104.6,71.2z"/>
</g>
<rect x="125.3" y="53.1" width="0.5" height="14"/>
<g>
	<path d="M118.8,68.7c0-1.8,2.5-3.5,4.5-3.5c1.3,0,2.3,0.7,2.3,1.7c0,1.7-2.5,3.5-4.6,3.5C119.8,70.4,118.8,69.8,118.8,68.7z"/>
</g>
<rect x="133.2" y="66.1" width="0.5" height="16.4"/>
<g>
	<path d="M133.2,66.2c0-1.8,2.5-3.5,4.5-3.5c1.3,0,2.3,0.7,2.3,1.7c0,1.7-2.5,3.5-4.6,3.5C134.2,67.9,133.2,67.3,133.2,66.2z"/>
</g>
<rect x="147.4" y="63.6" width="0.5" height="17.4"/>
<g>
	<path d="M147.5,63.7c0-1.8,2.5-3.5,4.5-3.5c1.3,0,2.3,0.7,2.3,1.7c0,1.7-2.5,3.5-4.6,3.5C148.5,65.5,147.5,64.8,147.5,63.7z"/>
</g>
<g>
	<path d="M145.6,69.6v-4l-3,1.1V56.1h0.5v4l3-1.1v10.7H145.6z M143,65l2.5-0.9v-3.3l-2.5,0.9V65z"/>
</g>
<rect x="161.7" y="61.2" width="0.5" height="18.1"/>
<g>
	<path d="M161.8,61.2c0-1.8,2.5-3.5,4.5-3.5c1.3,0,2.3,0.7,2.3,1.7c0,1.7-2.5,3.5-4.6,3.5C162.7,63,161.8,62.3,161.8,61.2z"/>
</g>
<g>
	<path d="M159.8,67.2v-4l-3,1.1V53.6h0.5v4l3-1.1v10.7H159.8z M157.3,62.5l2.5-0.9v-3.3l-2.5,0.9V62.5z"/>
</g>
<rect x="176" y="58.7" width="0.5" height="18.9"/>
<g>
	<path d="M176,58.8c0-1.8,2.5-3.5,4.5-3.5c1.3,0,2.3,0.7,2.3,1.7c0,1.7-2.5,3.5-4.6,3.5C177,60.5,176,59.9,176,58.8z"/>
</g>
<rect x="200.5" y="82.3" width="10.5" height="0.8"/>
<rect x="208.8" y="68" width="0.5" height="16.4"/>
<g>
	<path d="M202.4,86c0-1.8,2.5-3.5,4.5-3.5c1.3,0,2.3,0.7,2.3,1.7c0,1.7-2.5,3.5-4.6,3.5C203.4,87.8,202.4,87.1,202.4,86z"/>
</g>
<rect x="214.8" y="82.3" width="10.5" height="0.8"/>
<rect x="223.1" y="66.4" width="0.5" height="15.5"/>
<g>
	<path d="M216.6,83.6c0-1.8,2.5-3.5,4.5-3.5c1.3,0,2.3,0.7,2.3,1.7c0,1.7-2.5,3.5-4.6,3.5C217.6,85.3,216.6,84.7,216.6,83.6z"/>
</g>
<rect x="237.3" y="64.7" width="0.5" height="14.7"/>
<g>
	<path d="M230.9,81.1c0-1.8,2.5-3.5,4.5-3.5c1.3,0,2.3,0.7,2.3,1.7c0,1.7-2.5,3.5-4.6,3.5C231.9,82.8,230.9,82.2,230.9,81.1z"/>
</g>
<rect x="251.6" y="63" width="0.5" height="14"/>
<g>
	<path d="M245.2,78.6c0-1.8,2.5-3.5,4.5-3.5c1.3,0,2.3,0.7,2.3,1.7c0,1.7-2.5,3.5-4.6,3.5C246.1,80.3,245.2,79.7,245.2,78.6z"/>
</g>
<rect x="266" y="53.1" width="0.5" height="21.4"/>
<g>
	<path d="M259.6,76.1c0-1.8,2.5-3.5,4.5-3.5c1.3,0,2.3,0.7,2.3,1.7c0,1.7-2.5,3.5-4.6,3.5C260.6,77.9,259.6,77.2,259.6,76.1z"/>
</g>
<g>
	<path d="M257.7,82v-4l-3,1.1V68.5h0.5v4l3-1.1V82H257.7z M255.1,77.4l2.5-0.9v-3.3l-2.5,0.9V77.4z"/>
</g>
<rect x="280.3" y="53.1" width="0.5" height="18.9"/>
<g>
	<path d="M273.8,73.6c0-1.8,2.5-3.5,4.5-3.5c1.3,0,2.3,0.7,2.3,1.7c0,1.7-2.5,3.5-4.6,3.5C274.8,75.4,273.8,74.7,273.8,73.6z"/>
</g>
<g>
	<path d="M271.9,79.6v-4l-3,1.1V66h0.5v4l3-1.1v10.7H271.9z M269.4,74.9l2.5-0.9v-3.3l-2.5,0.9V74.9z"/>
</g>
<rect x="294.5" y="53.1" width="0.5" height="16.4"/>
<g>
	<path d="M288.1,71.2c0-1.8,2.5-3.5,4.5-3.5c1.3,0,2.3,0.7,2.3,1.7c0,1.7-2.5,3.5-4.6,3.5C289.1,72.9,288.1,72.3,288.1,71.2z"/>
</g>
<rect x="310.2" y="53.1" width="0.5" height="18.9"/>
<g>
	<path d="M303.8,73.6c0-1.8,2.5-3.5,4.5-3.5c1.3,0,2.3,0.7,2.3,1.7c0,1.7-2.5,3.5-4.6,3.5C304.7,75.4,303.8,74.7,303.8,73.6z"/>
</g>
<g>
	<path d="M297.9,64.5h0.6l-0.1,6.2c0.4-0.7,1-1,1.8-1c1.2,0,2.2,0.8,2.2,1.9c0,0.8-0.5,1.8-1.7,2.7l-2.8,2.1V64.5z M298.4,71.4
		c-0.1,0.8-0.1,1.4-0.1,1.9c0,1,0,1.6,0.1,2c1-0.7,2.4-2.6,2.4-3.7c0-0.6-0.5-1.1-1.1-1.1C299.2,70.6,298.7,70.8,298.4,71.4z"/>
</g>
<rect x="324.5" y="58.1" width="0.5" height="16.4"/>
<g>
	<path d="M318,76.1c0-1.8,2.5-3.5,4.5-3.5c1.3,0,2.3,0.7,2.3,1.7c0,1.7-2.5,3.5-4.6,3.5C319,77.9,318,77.2,318,76.1z"/>
</g>
<g>
	<path d="M312.1,67h0.6l-0.1,6.2c0.4-0.7,1-1,1.8-1c1.2,0,2.2,0.8,2.2,1.9c0,0.8-0.5,1.8-1.7,2.7l-2.8,2.1V67z M312.7,73.9
		c-0.1,0.8-0.1,1.4-0.1,1.9c0,1,0,1.6,0.1,2c1-0.7,2.4-2.6,2.4-3.7c0-0.6-0.5-1.1-1.1-1.1C313.4,73,313,73.3,312.7,73.9z"/>
</g>
<rect x="338.7" y="59.6" width="0.5" height="17.4"/>
<g>
	<path d="M332.3,78.6c0-1.8,2.5-3.5,4.5-3.5c1.3,0,2.3,0.7,2.3,1.7c0,1.7-2.5,3.5-4.6,3.5C333.3,80.3,332.3,79.7,332.3,78.6z"/>
</g>
<rect x="353" y="61.3" width="0.5" height="18.1"/>
<g>
	<path d="M346.5,81.1c0-1.8,2.5-3.5,4.5-3.5c1.3,0,2.3,0.7,2.3,1.7c0,1.7-2.5,3.5-4.6,3.5C347.5,82.8,346.5,82.2,346.5,81.1z"/>
</g>
<rect x="358.9" y="82.3" width="10.5" height="0.8"/>
<rect x="367.2" y="63" width="0.5" height="18.9"/>
<g>
	<path d="M360.8,83.6c0-1.8,2.5-3.5,4.5-3.5c1.3,0,2.3,0.7,2.3,1.7c0,1.7-2.5,3.5-4.6,3.5C361.8,85.3,360.8,84.7,360.8,83.6z"/>
</g>
<rect x="387.1" y="56.2" width="0.5" height="16.4"/>
<g>
	<path d="M387.2,56.3c0-1.8,2.5-3.5,4.5-3.5c1.3,0,2.3,0.7,2.3,1.7c0,1.7-2.5,3.5-4.6,3.5C388.1,58,387.2,57.4,387.2,56.3z"/>
</g>
<rect x="401.5" y="58.7" width="0.5" height="15.5"/>
<g>
	<path d="M401.6,58.8c0-1.8,2.5-3.5,4.5-3.5c1.3,0,2.3,0.7,2.3,1.7c0,1.7-2.5,3.5-4.6,3.5C402.5,60.5,401.6,59.9,401.6,58.8z"/>
</g>
<rect x="415.8" y="61.2" width="0.5" height="14.7"/>
<g>
	<path d="M415.8,61.2c0-1.8,2.5-3.5,4.5-3.5c1.3,0,2.3,0.7,2.3,1.7c0,1.7-2.5,3.5-4.6,3.5C416.8,63,415.8,62.3,415.8,61.2z"/>
</g>
<g>
	<path d="M409.9,52.1h0.6l-0.1,6.2c0.4-0.7,1-1,1.8-1c1.2,0,2.2,0.8,2.2,1.9c0,0.8-0.5,1.8-1.7,2.7l-2.8,2.1V52.1z M410.5,59
		c-0.1,0.8-0.1,1.4-0.1,1.9c0,1,0,1.6,0.1,2c1-0.7,2.4-2.6,2.4-3.7c0-0.6-0.5-1.1-1.1-1.1C411.2,58.2,410.8,58.4,410.5,59z"/>
</g>
<rect x="430" y="63.6" width="0.5" height="14"/>
<g>
	<path d="M430.1,63.7c0-1.8,2.5-3.5,4.5-3.5c1.3,0,2.3,0.7,2.3,1.7c0,1.7-2.5,3.5-4.6,3.5C431.1,65.5,430.1,64.8,430.1,63.7z"/>
</g>
<g>
	<path d="M424.2,54.6h0.6l-0.1,6.2c0.4-0.7,1-1,1.8-1c1.2,0,2.2,0.8,2.2,1.9c0,0.8-0.5,1.8-1.7,2.7l-2.8,2.1V54.6z M424.8,61.5
		c-0.1,0.8-0.1,1.4-0.1,1.9c0,1,0,1.6,0.1,2c1-0.7,2.4-2.6,2.4-3.7c0-0.6-0.5-1.1-1.1-1.1C425.5,60.6,425.1,60.9,424.8,61.5z"/>
</g>
<rect x="450.8" y="48.1" width="0.5" height="16.4"/>
<g>
	<path d="M444.4,66.2c0-1.8,2.5-3.5,4.5-3.5c1.3,0,2.3,0.7,2.3,1.7c0,1.7-2.5,3.5-4.6,3.5C445.3,67.9,444.4,67.3,444.4,66.2z"/>
</g>
<rect x="465.1" y="49.7" width="0.5" height="17.4"/>
<g>
	<path d="M458.6,68.7c0-1.8,2.5-3.5,4.5-3.5c1.3,0,2.3,0.7,2.3,1.7c0,1.7-2.5,3.5-4.6,3.5C459.6,70.4,458.6,69.8,458.6,68.7z"/>
</g>
<rect x="479.3" y="51.4" width="0.5" height="18.1"/>
<g>
	<path d="M472.9,71.2c0-1.8,2.5-3.5,4.5-3.5c1.3,0,2.3,0.7,2.3,1.7c0,1.7-2.5,3.5-4.6,3.5C473.9,72.9,472.9,72.3,472.9,71.2z"/>
</g>
<rect x="493.6" y="53.1" width="0.5" height="18.9"/>
<g>
	<path d="M487.1,73.6c0-1.8,2.5-3.5,4.5-3.5c1.3,0,2.3,0.7,2.3,1.7c0,1.7-2.5,3.5-4.6,3.5C488.1,75.4,487.1,74.7,487.1,73.6z"/>
</g>
<rect x="508.2" y="57.9" width="0.5" height="16.6"/>
<g>
	<path d="M505.8,72.6c1.6,0,2.7,0.7,2.7,2c0,1.9-2.3,3.4-4.5,3.4c-1.3,0-2.4-0.7-2.4-1.8C501.6,74.4,503.8,72.6,505.8,72.6z
		 M502,76.4c0,0.6,0.4,0.9,1.1,0.9c1.4,0,4.9-2.1,4.9-3.3c0-0.6-0.4-0.9-1.1-0.9C505.7,73.2,502,75.2,502,76.4z"/>
</g>
</svg>
