<?xml version="1.0" encoding="utf-8"?>

<!--
	ScaleBook
	Copyright (c) Leland Jansen 2015. All rights reserved.
-->

<!DOCTYPE svg PUBLIC "-//W3C//DTD SVG 1.1//EN" "http://www.w3.org/Graphics/SVG/1.1/DTD/svg11.dtd">
<svg version="1.1" id="Layer_1" xmlns="http://www.w3.org/2000/svg" xmlns:xlink="http://www.w3.org/1999/xlink" x="0px" y="0px"
	 viewBox="0 0 552.9 92.6" enable-background="new 0 0 552.9 92.6" xml:space="preserve">
<rect x="8.4" y="15.8" width="0.8" height="67"/>
<g>
	<path d="M7.4,16.4c-1.9,1.1-3.6,5.8-3.6,9.4c0,2.3,1.4,9.9,1.4,12.3c0,5-1.5,8.6-4.6,11.1c3,2.4,4.6,6.1,4.6,11
		c0,2.3-1.4,9.9-1.4,12.3c0,3.8,1.7,8.4,3.6,9.5v0.7c-3.5-2.3-5.8-8.2-5.8-13.1c0-2.1,1.7-9.4,1.7-11.5c0-3.8-1-6.6-2.9-8.2
		C0.1,49.6,0,49.4,0,49.2s0.1-0.4,0.5-0.7c1.9-1.7,2.9-4.2,2.9-7.6c0-2.1-1.7-10-1.7-12.2c0-5.2,2.1-10.4,5.8-13.1V16.4z"/>
</g>
<rect x="547.8" y="15.8" width="0.8" height="67"/>
<rect x="550.4" y="15.8" width="2.5" height="67"/>
<rect x="8.5" y="35.4" width="544.4" height="0.5"/>
<rect x="8.5" y="30.4" width="544.4" height="0.5"/>
<rect x="8.5" y="25.4" width="544.4" height="0.5"/>
<rect x="8.5" y="20.5" width="544.4" height="0.5"/>
<rect x="8.5" y="15.5" width="544.4" height="0.5"/>
<g>
	<path d="M20.3,35.4c-4.2,0-8.1-3.1-8.1-6.9c0-3.2,2.3-6.7,6.8-10.5c-0.3-1.2-0.4-2.4-0.4-3.6c0-3.5,1.2-6.8,3.2-8.5
		c1.8,2.5,2.7,4.9,2.7,7.1c0,2.9-1.3,5.6-4.3,8.1l0.9,4.2c0.5,0,0.8-0.1,0.8-0.1c2.6,0,4.8,2,4.8,4.7c0,1.9-1.4,3.7-3.6,4.8
		c0-0.1,0.9,3.8,0.9,4.3c0,2.5-2.3,4.2-4.9,4.2c-2,0-3.6-1.3-3.6-3.4c0-1.4,1-2.6,2.4-2.6c1.3,0,2.3,1.3,2.3,2.5
		c0,1.4-1.2,2.3-2.7,2.5c0.6,0.3,1.2,0.5,1.9,0.5c2.1,0,4.1-1.6,4.1-3.6c0-0.2,0-0.4-0.1-0.6L22.6,35C21.9,35.3,21.2,35.4,20.3,35.4
		z M18.1,30.2c0,1,0.5,1.9,1.6,2.5c-1.8-0.3-3-1.4-3-3.1c0-2,1.7-3.7,3.8-4.1l-0.8-4C16,24.3,14,27,14,29.7c0,2.9,2.8,5.3,6,5.3
		c0.9,0,1.7-0.2,2.4-0.5L21,27.6C19.4,27.8,18.1,28.8,18.1,30.2z M22.1,8.9c-1.6,0-2.9,3.7-2.9,7c0,0.7,0,1.3,0.2,1.9
		c2.7-2.4,4-4.5,4-6.5c0-0.9-0.3-1.7-1-2.4C22.4,8.9,22.3,8.9,22.1,8.9z M24.9,30.8c0-1.6-1.2-3.3-2.9-3.3c-0.1,0-0.2,0-0.5,0
		l1.4,6.6C24.2,33.2,24.9,32.1,24.9,30.8z"/>
</g>
<g>
	<path d="M29.5,17.4h0.6L30,23.6c0.4-0.7,1-1,1.8-1c1.2,0,2.2,0.8,2.2,1.9c0,0.8-0.5,1.8-1.7,2.7l-2.8,2.1V17.4z M30.1,24.3
		C30,25,30,25.7,30,26.2c0,1,0,1.6,0.1,2c1-0.7,2.4-2.6,2.4-3.7c0-0.6-0.5-1.1-1.1-1.1C30.8,23.4,30.4,23.7,30.1,24.3z"/>
</g>
<g>
	<path d="M35.1,9.9h0.6l-0.1,6.2c0.4-0.7,1-1,1.8-1c1.2,0,2.2,0.8,2.2,1.9c0,0.8-0.5,1.8-1.7,2.7l-2.8,2.1V9.9z M35.7,16.8
		c-0.1,0.8-0.1,1.4-0.1,1.9c0,1,0,1.6,0.1,2c1-0.7,2.4-2.6,2.4-3.7c0-0.6-0.5-1.1-1.1-1.1C36.4,16,36,16.3,35.7,16.8z"/>
</g>
<g>
	<path d="M40.7,19.8h0.6l-0.1,6.2c0.4-0.7,1-1,1.8-1c1.2,0,2.2,0.8,2.2,1.9c0,0.8-0.5,1.8-1.7,2.7l-2.8,2.1V19.8z M41.3,26.7
		c-0.1,0.8-0.1,1.4-0.1,1.9c0,1,0,1.6,0.1,2c1-0.7,2.4-2.6,2.4-3.7c0-0.6-0.5-1.1-1.1-1.1C42,25.9,41.6,26.2,41.3,26.7z"/>
</g>
<polygon fill-rule="evenodd" clip-rule="evenodd" points="60.4,26.9 105.2,22 105.2,19.5 60.4,24.4 "/>
<polygon fill-rule="evenodd" clip-rule="evenodd" points="60.4,23.2 105.2,18.2 105.2,15.8 60.4,20.7 "/>
<polygon fill-rule="evenodd" clip-rule="evenodd" points="120.1,17 164.9,12 164.9,9.6 120.1,14.5 "/>
<polygon fill-rule="evenodd" clip-rule="evenodd" points="120.1,13.3 164.9,8.3 164.9,5.8 120.1,10.8 "/>
<polygon fill-rule="evenodd" clip-rule="evenodd" points="184.7,31.9 229.5,26.9 229.5,24.4 184.7,29.4 "/>
<polygon fill-rule="evenodd" clip-rule="evenodd" points="184.7,35.6 229.5,30.6 229.5,28.2 184.7,33.1 "/>
<polygon fill-rule="evenodd" clip-rule="evenodd" points="244.4,23.2 292.3,22 292.3,19.5 244.4,20.7 "/>
<polygon fill-rule="evenodd" clip-rule="evenodd" points="244.4,26.9 292.3,25.7 292.3,23.2 244.4,24.4 "/>
<polygon fill-rule="evenodd" clip-rule="evenodd" points="309.2,26.9 353.8,31.9 353.8,29.4 309.2,24.4 "/>
<polygon fill-rule="evenodd" clip-rule="evenodd" points="309.2,30.6 353.8,35.6 353.8,33.1 309.2,28.2 "/>
<polygon fill-rule="evenodd" clip-rule="evenodd" points="380.2,36.8 425,41.8 425,39.3 380.2,34.4 "/>
<polygon fill-rule="evenodd" clip-rule="evenodd" points="380.2,40.6 425,45.5 425,43 380.2,38.1 "/>
<polygon fill-rule="evenodd" clip-rule="evenodd" points="446.5,22 491.3,26.9 491.3,24.4 446.5,19.5 "/>
<polygon fill-rule="evenodd" clip-rule="evenodd" points="446.5,18.2 491.3,23.2 491.3,20.7 446.5,15.8 "/>
<rect x="8.5" y="82.5" width="544.4" height="0.5"/>
<rect x="8.5" y="77.5" width="544.4" height="0.5"/>
<rect x="8.5" y="72.6" width="544.4" height="0.5"/>
<rect x="8.5" y="67.6" width="544.4" height="0.5"/>
<rect x="8.5" y="62.6" width="544.4" height="0.5"/>
<g>
	<path d="M15.7,77.1c2.9-2.6,4.7-6.1,4.7-9.2c0-2.5-1.4-4.4-3.7-4.4c-1.6,0-3.4,1.3-3.4,2.7c0,0.2,0,0.3,0.1,0.3
		c-0.1,0,0.6-0.6,1.4-0.6c0.9,0,1.5,0.8,1.5,1.7c0,1.2-0.9,2.2-2.1,2.2c-1.2,0-2.1-1.3-2.1-2.8c0-2.3,2.3-4.1,4.8-4.1
		c4.7,0,5.9,3.2,5.9,5.8c0,1.6-0.4,2.9-2,5.3c-1.9,3.1-6.4,5.3-8.1,5.3c-0.4,0-0.6-0.2-0.6-0.5C13.8,78.3,14.9,77.8,15.7,77.1z
		 M25.7,64.4c0.6,0,1,0.4,1,1s-0.4,1-1,1s-1-0.4-1-1S25.1,64.4,25.7,64.4z M25.7,69.3c0.6,0,1,0.4,1,1s-0.4,1-1,1s-1-0.4-1-1
		S25.1,69.3,25.7,69.3z"/>
</g>
<g>
	<path d="M29.5,69.4h0.6L30,75.7c0.4-0.7,1-1,1.8-1c1.2,0,2.2,0.8,2.2,1.9c0,0.8-0.5,1.8-1.7,2.7l-2.8,2.1V69.4z M30.1,76.3
		C30,77.1,30,77.8,30,78.3c0,1,0,1.6,0.1,2c1-0.7,2.4-2.6,2.4-3.7c0-0.6-0.5-1.1-1.1-1.1C30.8,75.5,30.4,75.8,30.1,76.3z"/>
</g>
<g>
	<path d="M35.1,62h0.6l-0.1,6.2c0.4-0.7,1-1,1.8-1c1.2,0,2.2,0.8,2.2,1.9c0,0.8-0.5,1.8-1.7,2.7l-2.8,2.1V62z M35.7,68.9
		c-0.1,0.8-0.1,1.4-0.1,1.9c0,1,0,1.6,0.1,2c1-0.7,2.4-2.6,2.4-3.7c0-0.6-0.5-1.1-1.1-1.1C36.4,68.1,36,68.4,35.7,68.9z"/>
</g>
<g>
	<path d="M40.7,71.9h0.6l-0.1,6.2c0.4-0.7,1-1,1.8-1c1.2,0,2.2,0.8,2.2,1.9c0,0.8-0.5,1.8-1.7,2.7l-2.8,2.1V71.9z M41.3,78.8
		c-0.1,0.8-0.1,1.4-0.1,1.9c0,1,0,1.6,0.1,2c1-0.7,2.4-2.6,2.4-3.7c0-0.6-0.5-1.1-1.1-1.1C42,78,41.6,78.3,41.3,78.8z"/>
</g>
<polygon fill-rule="evenodd" clip-rule="evenodd" points="53.9,88.9 98.7,84 98.7,81.5 53.9,86.4 "/>
<polygon fill-rule="evenodd" clip-rule="evenodd" points="53.9,92.6 98.7,87.7 98.7,85.2 53.9,90.2 "/>
<g>
	<path d="M178.6,81.4c-3.2,0-6.1-2.3-6.1-5.1c0-2.4,1.7-5,5.1-7.9c-0.2-0.9-0.3-1.8-0.3-2.7c0-2.6,0.9-5.1,2.4-6.3
		c1.4,1.9,2,3.7,2,5.3c0,2.2-1,4.2-3.2,6.1l0.7,3.1c0.4,0,0.6,0,0.6,0c2,0,3.6,1.5,3.6,3.5c0,1.4-1.1,2.8-2.7,3.6
		c0-0.1,0.6,2.8,0.6,3.3c0,1.9-1.7,3.2-3.7,3.2c-1.5,0-2.7-1-2.7-2.5c0-1.1,0.7-1.9,1.8-1.9c1,0,1.7,1,1.7,1.9c0,1-0.9,1.7-2,1.8
		c0.4,0.2,0.9,0.3,1.4,0.3c1.6,0,3.1-1.2,3.1-2.7c0-0.1,0-0.3,0-0.5l-0.6-2.8C179.8,81.3,179.2,81.4,178.6,81.4z M176.9,77.4
		c0,0.8,0.4,1.4,1.2,1.9c-1.3-0.2-2.2-1.1-2.2-2.3c0-1.5,1.3-2.8,2.9-3.1l-0.6-3c-2.8,2.1-4.3,4.1-4.3,6.1c0,2.2,2.1,4,4.5,4
		c0.7,0,1.3-0.1,1.8-0.4l-1.1-5.1C177.9,75.7,176.9,76.4,176.9,77.4z M179.9,61.4c-1.2,0-2.2,2.8-2.2,5.3c0,0.5,0,1,0.1,1.4
		c2-1.8,3-3.4,3-4.8c0-0.7-0.3-1.3-0.7-1.8C180.1,61.5,180,61.4,179.9,61.4z M182,77.8c0-1.2-0.9-2.4-2.2-2.4c0,0-0.2,0-0.4,0l1.1,5
		C181.5,79.7,182,78.8,182,77.8z"/>
</g>
<polygon fill-rule="evenodd" clip-rule="evenodd" points="113.6,79 158.4,74 158.4,71.6 113.6,76.5 "/>
<polygon fill-rule="evenodd" clip-rule="evenodd" points="113.6,82.7 158.4,77.8 158.4,75.3 113.6,80.2 "/>
<polygon fill-rule="evenodd" clip-rule="evenodd" points="191.2,74 236,69.1 236,66.6 191.2,71.6 "/>
<polygon fill-rule="evenodd" clip-rule="evenodd" points="191.2,70.3 236,65.4 236,62.9 191.2,67.8 "/>
<polygon fill-rule="evenodd" clip-rule="evenodd" points="244.4,87.7 292.3,86.4 292.3,84 244.4,85.2 "/>
<polygon fill-rule="evenodd" clip-rule="evenodd" points="244.4,91.4 292.3,90.2 292.3,87.7 244.4,88.9 "/>
<g>
	<path d="M368.7,74.8c2.2-2,3.6-4.6,3.6-6.9c0-1.9-1.1-3.3-2.8-3.3c-1.2,0-2.5,1-2.5,2.1c0,0.2,0,0.2,0.1,0.2c0,0,0.4-0.5,1-0.5
		c0.7,0,1.2,0.6,1.2,1.3c0,0.9-0.6,1.7-1.6,1.7s-1.5-1-1.5-2.1c0-1.8,1.7-3.1,3.6-3.1c3.5,0,4.4,2.4,4.4,4.4c0,1.2-0.3,2.2-1.5,4
		c-1.4,2.3-4.8,4-6,4c-0.3,0-0.5-0.1-0.5-0.3C367.3,75.7,368.1,75.3,368.7,74.8z M376.2,65.2c0.4,0,0.7,0.3,0.7,0.7
		c0,0.4-0.3,0.7-0.7,0.7c-0.4,0-0.7-0.3-0.7-0.7C375.5,65.6,375.8,65.2,376.2,65.2z M376.2,68.9c0.4,0,0.7,0.3,0.7,0.7
		s-0.3,0.7-0.7,0.7c-0.4,0-0.7-0.3-0.7-0.7S375.8,68.9,376.2,68.9z"/>
</g>
<polygon fill-rule="evenodd" clip-rule="evenodd" points="315.7,64.1 360.3,69.1 360.3,66.6 315.7,61.6 "/>
<polygon fill-rule="evenodd" clip-rule="evenodd" points="315.7,60.4 360.3,65.4 360.3,62.9 315.7,57.9 "/>
<polygon fill-rule="evenodd" clip-rule="evenodd" points="380.2,69.1 425,74 425,71.6 380.2,66.6 "/>
<polygon fill-rule="evenodd" clip-rule="evenodd" points="380.2,72.8 425,77.8 425,75.3 380.2,70.3 "/>
<polygon fill-rule="evenodd" clip-rule="evenodd" points="440,79 484.8,84 484.8,81.5 440,76.5 "/>
<polygon fill-rule="evenodd" clip-rule="evenodd" points="440,82.7 484.8,87.7 484.8,85.2 440,80.2 "/>
<rect x="51.9" y="40.2" width="10.5" height="0.8"/>
<rect x="60.2" y="20.9" width="0.5" height="18.9"/>
<g>
	<path d="M53.7,41.4c0-1.8,2.5-3.5,4.5-3.5c1.3,0,2.3,0.7,2.3,1.7c0,1.7-2.5,3.5-4.6,3.5C54.7,43.1,53.7,42.5,53.7,41.4z"/>
</g>
<rect x="75" y="19.3" width="0.5" height="18"/>
<g>
	<path d="M68.6,38.9c0-1.8,2.5-3.5,4.5-3.5c1.3,0,2.3,0.7,2.3,1.7c0,1.7-2.5,3.5-4.6,3.5C69.6,40.7,68.6,40,68.6,38.9z"/>
</g>
<rect x="90.1" y="17.6" width="0.5" height="17.2"/>
<g>
	<path d="M83.6,36.4c0-1.8,2.5-3.5,4.5-3.5c1.3,0,2.3,0.7,2.3,1.7c0,1.7-2.5,3.5-4.6,3.5C84.6,38.2,83.6,37.5,83.6,36.4z"/>
</g>
<rect x="105" y="15.9" width="0.5" height="16.4"/>
<g>
	<path d="M98.5,34c0-1.8,2.5-3.5,4.5-3.5c1.3,0,2.3,0.7,2.3,1.7c0,1.7-2.5,3.5-4.6,3.5C99.5,35.7,98.5,35.1,98.5,34z"/>
</g>
<rect x="119.8" y="10.9" width="0.5" height="18.9"/>
<g>
	<path d="M113.4,31.5c0-1.8,2.5-3.5,4.5-3.5c1.3,0,2.3,0.7,2.3,1.7c0,1.7-2.5,3.5-4.6,3.5C114.4,33.2,113.4,32.6,113.4,31.5z"/>
</g>
<rect x="134.7" y="9.4" width="0.5" height="18"/>
<g>
	<path d="M128.3,29c0-1.8,2.5-3.5,4.5-3.5c1.3,0,2.3,0.7,2.3,1.7c0,1.7-2.5,3.5-4.6,3.5C129.3,30.7,128.3,30.1,128.3,29z"/>
</g>
<g>
	<path d="M126.4,34.9v-4l-3,1.1V21.3h0.5v4l3-1.1v10.7H126.4z M123.8,30.3l2.5-0.9V26l-2.5,0.9V30.3z"/>
</g>
<rect x="149.8" y="7.7" width="0.5" height="17.2"/>
<g>
	<path d="M143.3,26.5c0-1.8,2.5-3.5,4.5-3.5c1.3,0,2.3,0.7,2.3,1.7c0,1.7-2.5,3.5-4.6,3.5C144.3,28.3,143.3,27.6,143.3,26.5z"/>
</g>
<g>
	<path d="M141.4,32.4v-4l-3,1.1V18.9h0.5v4l3-1.1v10.7H141.4z M138.9,27.8l2.5-0.9v-3.3l-2.5,0.9V27.8z"/>
</g>
<rect x="164.6" y="6" width="0.5" height="16.4"/>
<g>
	<path d="M158.2,24c0-1.8,2.5-3.5,4.5-3.5c1.3,0,2.3,0.7,2.3,1.7c0,1.7-2.5,3.5-4.6,3.5C159.2,25.8,158.2,25.1,158.2,24z"/>
</g>
<rect x="184.5" y="21.5" width="0.5" height="14"/>
<g>
	<path d="M184.6,21.6c0-1.8,2.5-3.5,4.5-3.5c1.3,0,2.3,0.7,2.3,1.7c0,1.7-2.5,3.5-4.6,3.5C185.5,23.3,184.6,22.7,184.6,21.6z"/>
</g>
<rect x="199.4" y="19" width="0.5" height="14.9"/>
<g>
	<path d="M199.4,19.1c0-1.8,2.5-3.5,4.5-3.5c1.3,0,2.3,0.7,2.3,1.7c0,1.7-2.5,3.5-4.6,3.5C200.4,20.8,199.4,20.2,199.4,19.1z"/>
</g>
<rect x="214.4" y="16.5" width="0.5" height="15.7"/>
<g>
	<path d="M214.5,16.6c0-1.8,2.5-3.5,4.5-3.5c1.3,0,2.3,0.7,2.3,1.7c0,1.7-2.5,3.5-4.6,3.5C215.4,18.3,214.5,17.7,214.5,16.6z"/>
</g>
<rect x="229.3" y="14" width="0.5" height="16.4"/>
<g>
	<path d="M229.4,14.1c0-1.8,2.5-3.5,4.5-3.5c1.3,0,2.3,0.7,2.3,1.7c0,1.7-2.5,3.5-4.6,3.5C230.3,15.9,229.4,15.2,229.4,14.1z"/>
</g>
<rect x="242.4" y="10.4" width="10.5" height="0.8"/>
<rect x="244.2" y="11.6" width="0.5" height="15.2"/>
<g>
	<path d="M244.2,11.6c0-1.8,2.5-3.5,4.5-3.5c1.3,0,2.3,0.7,2.3,1.7c0,1.7-2.5,3.5-4.6,3.5C245.2,13.4,244.2,12.7,244.2,11.6z"/>
</g>
<g>
	<path d="M241.1,17.6v-4l-3,1.1V4h0.5v4l3-1.1v10.7H241.1z M238.5,12.9l2.5-0.9V8.6l-2.5,0.9V12.9z"/>
</g>
<rect x="258.3" y="10.4" width="10.5" height="0.8"/>
<rect x="260.1" y="9.1" width="0.5" height="17.4"/>
<g>
	<path d="M260.2,9.2c0-1.8,2.5-3.5,4.5-3.5c1.3,0,2.3,0.7,2.3,1.7c0,1.7-2.5,3.5-4.6,3.5C261.2,10.9,260.2,10.3,260.2,9.2z"/>
</g>
<g>
	<path d="M257,15.1v-4l-3,1.1V1.5h0.5v4l3-1.1v10.7H257z M254.5,10.4l2.5-0.9V6.2l-2.5,0.9V10.4z"/>
</g>
<rect x="273.4" y="10.4" width="10.5" height="0.8"/>
<rect x="273.4" y="5.4" width="10.5" height="0.8"/>
<rect x="275.2" y="6.6" width="0.5" height="19.4"/>
<g>
	<path d="M275.2,6.7c0-1.8,2.5-3.5,4.5-3.5c1.3,0,2.3,0.7,2.3,1.7c0,1.7-2.5,3.5-4.6,3.5C276.2,8.4,275.2,7.8,275.2,6.7z"/>
</g>
<rect x="290.3" y="10.4" width="10.5" height="0.8"/>
<rect x="292.1" y="9.1" width="0.5" height="16.4"/>
<g>
	<path d="M292.1,9.2c0-1.8,2.5-3.5,4.5-3.5c1.3,0,2.3,0.7,2.3,1.7c0,1.7-2.5,3.5-4.6,3.5C293.1,10.9,292.1,10.3,292.1,9.2z"/>
</g>
<g>
	<path d="M285,0h0.6l-0.1,6.2c0.4-0.7,1-1,1.8-1c1.2,0,2.2,0.8,2.2,1.9c0,0.8-0.5,1.8-1.7,2.7l-2.8,2.1V0z M285.6,6.9
		c-0.1,0.8-0.1,1.4-0.1,1.9c0,1,0,1.6,0.1,2c1-0.7,2.4-2.6,2.4-3.7c0-0.6-0.5-1.1-1.1-1.1C286.3,6.1,285.9,6.3,285.6,6.9z"/>
</g>
<rect x="307.2" y="10.4" width="10.5" height="0.8"/>
<rect x="309" y="11.6" width="0.5" height="18.9"/>
<g>
	<path d="M309,11.6c0-1.8,2.5-3.5,4.5-3.5c1.3,0,2.3,0.7,2.3,1.7c0,1.7-2.5,3.5-4.6,3.5C310,13.4,309,12.7,309,11.6z"/>
</g>
<g>
	<path d="M301.9,2.5h0.6l-0.1,6.2c0.4-0.7,1-1,1.8-1c1.2,0,2.2,0.8,2.2,1.9c0,0.8-0.5,1.8-1.7,2.7l-2.8,2.1V2.5z M302.5,9.4
		c-0.1,0.8-0.1,1.4-0.1,1.9c0,1,0,1.6,0.1,2c1-0.7,2.4-2.6,2.4-3.7c0-0.6-0.5-1.1-1.1-1.1C303.2,8.6,302.8,8.8,302.5,9.4z"/>
</g>
<rect x="323.8" y="14" width="0.5" height="18"/>
<g>
	<path d="M323.9,14.1c0-1.8,2.5-3.5,4.5-3.5c1.3,0,2.3,0.7,2.3,1.7c0,1.7-2.5,3.5-4.6,3.5C324.9,15.9,323.9,15.2,323.9,14.1z"/>
</g>
<rect x="338.7" y="16.5" width="0.5" height="17.2"/>
<g>
	<path d="M338.8,16.6c0-1.8,2.5-3.5,4.5-3.5c1.3,0,2.3,0.7,2.3,1.7c0,1.7-2.5,3.5-4.6,3.5C339.8,18.3,338.8,17.7,338.8,16.6z"/>
</g>
<rect x="353.6" y="19" width="0.5" height="16.4"/>
<g>
	<path d="M353.7,19.1c0-1.8,2.5-3.5,4.5-3.5c1.3,0,2.3,0.7,2.3,1.7c0,1.7-2.5,3.5-4.6,3.5C354.6,20.8,353.7,20.2,353.7,19.1z"/>
</g>
<rect x="380" y="21.5" width="0.5" height="18.9"/>
<g>
	<path d="M380,21.6c0-1.8,2.5-3.5,4.5-3.5c1.3,0,2.3,0.7,2.3,1.7c0,1.7-2.5,3.5-4.6,3.5C381,23.3,380,22.7,380,21.6z"/>
</g>
<rect x="395" y="24" width="0.5" height="18"/>
<g>
	<path d="M395.1,24c0-1.8,2.5-3.5,4.5-3.5c1.3,0,2.3,0.7,2.3,1.7c0,1.7-2.5,3.5-4.6,3.5C396,25.8,395.1,25.1,395.1,24z"/>
</g>
<rect x="409.9" y="26.4" width="0.5" height="17.2"/>
<g>
	<path d="M409.9,26.5c0-1.8,2.5-3.5,4.5-3.5c1.3,0,2.3,0.7,2.3,1.7c0,1.7-2.5,3.5-4.6,3.5C410.9,28.3,409.9,27.6,409.9,26.5z"/>
</g>
<g>
	<path d="M404.1,17.4h0.6l-0.1,6.2c0.4-0.7,1-1,1.8-1c1.2,0,2.2,0.8,2.2,1.9c0,0.8-0.5,1.8-1.7,2.7l-2.8,2.1V17.4z M404.6,24.3
		c-0.1,0.8-0.1,1.4-0.1,1.9c0,1,0,1.6,0.1,2c1-0.7,2.4-2.6,2.4-3.7c0-0.6-0.5-1.1-1.1-1.1C405.3,23.4,404.9,23.7,404.6,24.3z"/>
</g>
<rect x="424.8" y="28.9" width="0.5" height="16.4"/>
<g>
	<path d="M424.8,29c0-1.8,2.5-3.5,4.5-3.5c1.3,0,2.3,0.7,2.3,1.7c0,1.7-2.5,3.5-4.6,3.5C425.8,30.7,424.8,30.1,424.8,29z"/>
</g>
<g>
	<path d="M418.9,19.8h0.6l-0.1,6.2c0.4-0.7,1-1,1.8-1c1.2,0,2.2,0.8,2.2,1.9c0,0.8-0.5,1.8-1.7,2.7l-2.8,2.1V19.8z M419.5,26.7
		c-0.1,0.8-0.1,1.4-0.1,1.9c0,1,0,1.6,0.1,2c1-0.7,2.4-2.6,2.4-3.7c0-0.6-0.5-1.1-1.1-1.1C420.2,25.9,419.8,26.2,419.5,26.7z"/>
</g>
<rect x="446.3" y="15.9" width="0.5" height="14"/>
<g>
	<path d="M439.9,31.5c0-1.8,2.5-3.5,4.5-3.5c1.3,0,2.3,0.7,2.3,1.7c0,1.7-2.5,3.5-4.6,3.5C440.8,33.2,439.9,32.6,439.9,31.5z"/>
</g>
<rect x="461.2" y="17.5" width="0.5" height="14.9"/>
<g>
	<path d="M454.7,34c0-1.8,2.5-3.5,4.5-3.5c1.3,0,2.3,0.7,2.3,1.7c0,1.7-2.5,3.5-4.6,3.5C455.7,35.7,454.7,35.1,454.7,34z"/>
</g>
<rect x="476.1" y="19.2" width="0.5" height="15.7"/>
<g>
	<path d="M469.6,36.4c0-1.8,2.5-3.5,4.5-3.5c1.3,0,2.3,0.7,2.3,1.7c0,1.7-2.5,3.5-4.6,3.5C470.6,38.2,469.6,37.5,469.6,36.4z"/>
</g>
<rect x="491.1" y="20.9" width="0.5" height="16.4"/>
<g>
	<path d="M484.7,38.9c0-1.8,2.5-3.5,4.5-3.5c1.3,0,2.3,0.7,2.3,1.7c0,1.7-2.5,3.5-4.6,3.5C485.6,40.7,484.7,40,484.7,38.9z"/>
</g>
<rect x="497.7" y="40.2" width="10.7" height="0.8"/>
<rect x="506.1" y="23.2" width="0.5" height="16.6"/>
<g>
	<path d="M503.8,37.9c1.6,0,2.7,0.7,2.7,2c0,1.9-2.3,3.4-4.5,3.4c-1.3,0-2.4-0.7-2.4-1.8C499.5,39.6,501.8,37.9,503.8,37.9z
		 M500,41.7c0,0.6,0.4,0.9,1.1,0.9c1.4,0,4.9-2.1,4.9-3.3c0-0.6-0.4-0.9-1.1-0.9C503.7,38.5,500,40.5,500,41.7z"/>
</g>
<rect x="53.6" y="76.1" width="0.5" height="16.4"/>
<g>
	<path d="M53.7,76.1c0-1.8,2.5-3.5,4.5-3.5c1.3,0,2.3,0.7,2.3,1.7c0,1.7-2.5,3.5-4.6,3.5C54.7,77.9,53.7,77.2,53.7,76.1z"/>
</g>
<rect x="68.5" y="73.6" width="0.5" height="17.4"/>
<g>
	<path d="M68.6,73.6c0-1.8,2.5-3.5,4.5-3.5c1.3,0,2.3,0.7,2.3,1.7c0,1.7-2.5,3.5-4.6,3.5C69.6,75.4,68.6,74.7,68.6,73.6z"/>
</g>
<rect x="83.6" y="71.1" width="0.5" height="18.1"/>
<g>
	<path d="M83.6,71.2c0-1.8,2.5-3.5,4.5-3.5c1.3,0,2.3,0.7,2.3,1.7c0,1.7-2.5,3.5-4.6,3.5C84.6,72.9,83.6,72.3,83.6,71.2z"/>
</g>
<rect x="98.4" y="68.6" width="0.5" height="18.9"/>
<g>
	<path d="M98.5,68.7c0-1.8,2.5-3.5,4.5-3.5c1.3,0,2.3,0.7,2.3,1.7c0,1.7-2.5,3.5-4.6,3.5C99.5,70.4,98.5,69.8,98.5,68.7z"/>
</g>
<rect x="113.3" y="66.1" width="0.5" height="16.4"/>
<g>
	<path d="M113.4,66.2c0-1.8,2.5-3.5,4.5-3.5c1.3,0,2.3,0.7,2.3,1.7c0,1.7-2.5,3.5-4.6,3.5C114.4,67.9,113.4,67.3,113.4,66.2z"/>
</g>
<rect x="128.2" y="63.7" width="0.5" height="17.4"/>
<g>
	<path d="M128.3,63.7c0-1.8,2.5-3.5,4.5-3.5c1.3,0,2.3,0.7,2.3,1.7c0,1.7-2.5,3.5-4.6,3.5C129.3,65.5,128.3,64.8,128.3,63.7z"/>
</g>
<g>
	<path d="M126.4,69.6v-4l-3,1.1V56.1h0.5v4l3-1.1v10.7H126.4z M123.8,65l2.5-0.9v-3.3l-2.5,0.9V65z"/>
</g>
<rect x="143.2" y="61.2" width="0.5" height="18.1"/>
<g>
	<path d="M143.3,61.2c0-1.8,2.5-3.5,4.5-3.5c1.3,0,2.3,0.7,2.3,1.7c0,1.7-2.5,3.5-4.6,3.5C144.3,63,143.3,62.3,143.3,61.2z"/>
</g>
<g>
	<path d="M141.4,67.2v-4l-3,1.1V53.6h0.5v4l3-1.1v10.7H141.4z M138.9,62.5l2.5-0.9v-3.3l-2.5,0.9V62.5z"/>
</g>
<rect x="156.3" y="57.5" width="10.5" height="0.8"/>
<rect x="158.1" y="58.7" width="0.5" height="18.9"/>
<g>
	<path d="M158.2,58.8c0-1.8,2.5-3.5,4.5-3.5c1.3,0,2.3,0.7,2.3,1.7c0,1.7-2.5,3.5-4.6,3.5C159.2,60.5,158.2,59.9,158.2,58.8z"/>
</g>
<rect x="191" y="68" width="0.5" height="16.4"/>
<g>
	<path d="M184.6,86c0-1.8,2.5-3.5,4.5-3.5c1.3,0,2.3,0.7,2.3,1.7c0,1.7-2.5,3.5-4.6,3.5C185.5,87.8,184.6,87.1,184.6,86z"/>
</g>
<rect x="205.9" y="66.4" width="0.5" height="15.5"/>
<g>
	<path d="M199.4,83.6c0-1.8,2.5-3.5,4.5-3.5c1.3,0,2.3,0.7,2.3,1.7c0,1.7-2.5,3.5-4.6,3.5C200.4,85.3,199.4,84.7,199.4,83.6z"/>
</g>
<rect x="220.9" y="64.7" width="0.5" height="14.7"/>
<g>
	<path d="M214.5,81.1c0-1.8,2.5-3.5,4.5-3.5c1.3,0,2.3,0.7,2.3,1.7c0,1.7-2.5,3.5-4.6,3.5C215.4,82.8,214.5,82.2,214.5,81.1z"/>
</g>
<rect x="235.8" y="63" width="0.5" height="14"/>
<g>
	<path d="M229.4,78.6c0-1.8,2.5-3.5,4.5-3.5c1.3,0,2.3,0.7,2.3,1.7c0,1.7-2.5,3.5-4.6,3.5C230.3,80.3,229.4,79.7,229.4,78.6z"/>
</g>
<rect x="244.2" y="76.1" width="0.5" height="15.2"/>
<g>
	<path d="M244.2,76.1c0-1.8,2.5-3.5,4.5-3.5c1.3,0,2.3,0.7,2.3,1.7c0,1.7-2.5,3.5-4.6,3.5C245.2,77.9,244.2,77.2,244.2,76.1z"/>
</g>
<g>
	<path d="M242.3,82v-4l-3,1.1V68.5h0.5v4l3-1.1V82H242.3z M239.8,77.4l2.5-0.9v-3.3l-2.5,0.9V77.4z"/>
</g>
<rect x="260.1" y="73.6" width="0.5" height="17.4"/>
<g>
	<path d="M260.2,73.6c0-1.8,2.5-3.5,4.5-3.5c1.3,0,2.3,0.7,2.3,1.7c0,1.7-2.5,3.5-4.6,3.5C261.2,75.4,260.2,74.7,260.2,73.6z"/>
</g>
<g>
	<path d="M258.3,79.6v-4l-3,1.1V66h0.5v4l3-1.1v10.7H258.3z M255.7,74.9l2.5-0.9v-3.3l-2.5,0.9V74.9z"/>
</g>
<rect x="275.2" y="71.1" width="0.5" height="19.4"/>
<g>
	<path d="M275.2,71.2c0-1.8,2.5-3.5,4.5-3.5c1.3,0,2.3,0.7,2.3,1.7c0,1.7-2.5,3.5-4.6,3.5C276.2,72.9,275.2,72.3,275.2,71.2z"/>
</g>
<rect x="292.1" y="73.6" width="0.5" height="16.4"/>
<g>
	<path d="M292.1,73.6c0-1.8,2.5-3.5,4.5-3.5c1.3,0,2.3,0.7,2.3,1.7c0,1.7-2.5,3.5-4.6,3.5C293.1,75.4,292.1,74.7,292.1,73.6z"/>
</g>
<g>
	<path d="M286.2,64.5h0.6l-0.1,6.2c0.4-0.7,1-1,1.8-1c1.2,0,2.2,0.8,2.2,1.9c0,0.8-0.5,1.8-1.7,2.7l-2.8,2.1V64.5z M286.8,71.4
		c-0.1,0.8-0.1,1.4-0.1,1.9c0,1,0,1.6,0.1,2c1-0.7,2.4-2.6,2.4-3.7c0-0.6-0.5-1.1-1.1-1.1C287.5,70.6,287.1,70.8,286.8,71.4z"/>
</g>
<rect x="315.5" y="58.1" width="0.5" height="16.4"/>
<g>
	<path d="M309,76.1c0-1.8,2.5-3.5,4.5-3.5c1.3,0,2.3,0.7,2.3,1.7c0,1.7-2.5,3.5-4.6,3.5C310,77.9,309,77.2,309,76.1z"/>
</g>
<g>
	<path d="M303.1,67h0.6l-0.1,6.2c0.4-0.7,1-1,1.8-1c1.2,0,2.2,0.8,2.2,1.9c0,0.8-0.5,1.8-1.7,2.7l-2.8,2.1V67z M303.7,73.9
		c-0.1,0.8-0.1,1.4-0.1,1.9c0,1,0,1.6,0.1,2c1-0.7,2.4-2.6,2.4-3.7c0-0.6-0.5-1.1-1.1-1.1C304.4,73,304,73.3,303.7,73.9z"/>
</g>
<rect x="330.3" y="59.6" width="0.5" height="17.4"/>
<g>
	<path d="M323.9,78.6c0-1.8,2.5-3.5,4.5-3.5c1.3,0,2.3,0.7,2.3,1.7c0,1.7-2.5,3.5-4.6,3.5C324.9,80.3,323.9,79.7,323.9,78.6z"/>
</g>
<rect x="345.2" y="61.3" width="0.5" height="18.1"/>
<g>
	<path d="M338.8,81.1c0-1.8,2.5-3.5,4.5-3.5c1.3,0,2.3,0.7,2.3,1.7c0,1.7-2.5,3.5-4.6,3.5C339.8,82.8,338.8,82.2,338.8,81.1z"/>
</g>
<rect x="360.1" y="63" width="0.5" height="18.9"/>
<g>
	<path d="M353.7,83.6c0-1.8,2.5-3.5,4.5-3.5c1.3,0,2.3,0.7,2.3,1.7c0,1.7-2.5,3.5-4.6,3.5C354.6,85.3,353.7,84.7,353.7,83.6z"/>
</g>
<rect x="378.2" y="57.5" width="10.5" height="0.8"/>
<rect x="380" y="56.2" width="0.5" height="16.4"/>
<g>
	<path d="M380,56.3c0-1.8,2.5-3.5,4.5-3.5c1.3,0,2.3,0.7,2.3,1.7c0,1.7-2.5,3.5-4.6,3.5C381,58,380,57.4,380,56.3z"/>
</g>
<rect x="393.2" y="57.5" width="10.5" height="0.8"/>
<rect x="395" y="58.7" width="0.5" height="15.5"/>
<g>
	<path d="M395.1,58.8c0-1.8,2.5-3.5,4.5-3.5c1.3,0,2.3,0.7,2.3,1.7c0,1.7-2.5,3.5-4.6,3.5C396,60.5,395.1,59.9,395.1,58.8z"/>
</g>
<rect x="409.9" y="61.2" width="0.5" height="14.7"/>
<g>
	<path d="M409.9,61.2c0-1.8,2.5-3.5,4.5-3.5c1.3,0,2.3,0.7,2.3,1.7c0,1.7-2.5,3.5-4.6,3.5C410.9,63,409.9,62.3,409.9,61.2z"/>
</g>
<g>
	<path d="M404.1,52.1h0.6l-0.1,6.2c0.4-0.7,1-1,1.8-1c1.2,0,2.2,0.8,2.2,1.9c0,0.8-0.5,1.8-1.7,2.7l-2.8,2.1V52.1z M404.6,59
		c-0.1,0.8-0.1,1.4-0.1,1.9c0,1,0,1.6,0.1,2c1-0.7,2.4-2.6,2.4-3.7c0-0.6-0.5-1.1-1.1-1.1C405.3,58.2,404.9,58.4,404.6,59z"/>
</g>
<rect x="424.8" y="63.7" width="0.5" height="14"/>
<g>
	<path d="M424.8,63.7c0-1.8,2.5-3.5,4.5-3.5c1.3,0,2.3,0.7,2.3,1.7c0,1.7-2.5,3.5-4.6,3.5C425.8,65.5,424.8,64.8,424.8,63.7z"/>
</g>
<g>
	<path d="M418.9,54.6h0.6l-0.1,6.2c0.4-0.7,1-1,1.8-1c1.2,0,2.2,0.8,2.2,1.9c0,0.8-0.5,1.8-1.7,2.7l-2.8,2.1V54.6z M419.5,61.5
		c-0.1,0.8-0.1,1.4-0.1,1.9c0,1,0,1.6,0.1,2c1-0.7,2.4-2.6,2.4-3.7c0-0.6-0.5-1.1-1.1-1.1C420.2,60.6,419.8,60.9,419.5,61.5z"/>
</g>
<rect x="439.8" y="66.1" width="0.5" height="16.4"/>
<g>
	<path d="M439.9,66.2c0-1.8,2.5-3.5,4.5-3.5c1.3,0,2.3,0.7,2.3,1.7c0,1.7-2.5,3.5-4.6,3.5C440.8,67.9,439.9,67.3,439.9,66.2z"/>
</g>
<rect x="454.7" y="68.6" width="0.5" height="15.5"/>
<g>
	<path d="M454.7,68.7c0-1.8,2.5-3.5,4.5-3.5c1.3,0,2.3,0.7,2.3,1.7c0,1.7-2.5,3.5-4.6,3.5C455.7,70.4,454.7,69.8,454.7,68.7z"/>
</g>
<rect x="469.6" y="71.1" width="0.5" height="14.7"/>
<g>
	<path d="M469.6,71.2c0-1.8,2.5-3.5,4.5-3.5c1.3,0,2.3,0.7,2.3,1.7c0,1.7-2.5,3.5-4.6,3.5C470.6,72.9,469.6,72.3,469.6,71.2z"/>
</g>
<rect x="484.6" y="73.6" width="0.5" height="14"/>
<g>
	<path d="M484.7,73.6c0-1.8,2.5-3.5,4.5-3.5c1.3,0,2.3,0.7,2.3,1.7c0,1.7-2.5,3.5-4.6,3.5C485.6,75.4,484.7,74.7,484.7,73.6z"/>
</g>
<rect x="506.1" y="57.9" width="0.5" height="16.6"/>
<g>
	<path d="M503.8,72.6c1.6,0,2.7,0.7,2.7,2c0,1.9-2.3,3.4-4.5,3.4c-1.3,0-2.4-0.7-2.4-1.8C499.5,74.4,501.8,72.6,503.8,72.6z
		 M500,76.4c0,0.6,0.4,0.9,1.1,0.9c1.4,0,4.9-2.1,4.9-3.3c0-0.6-0.4-0.9-1.1-0.9C503.7,73.2,500,75.2,500,76.4z"/>
</g>
</svg>
