<?xml version="1.0" encoding="utf-8"?>

<!--
	ScaleBook
	Copyright (c) Leland Jansen 2015. All rights reserved.
-->

<!DOCTYPE svg PUBLIC "-//W3C//DTD SVG 1.1//EN" "http://www.w3.org/Graphics/SVG/1.1/DTD/svg11.dtd">
<svg version="1.1" id="Layer_1" xmlns="http://www.w3.org/2000/svg" xmlns:xlink="http://www.w3.org/1999/xlink" x="0px" y="0px"
	 viewBox="0 0 552.9 86.8" enable-background="new 0 0 552.9 86.8" xml:space="preserve">
<rect x="8.4" y="9.9" width="0.8" height="67"/>
<g>
	<path d="M7.4,10.6c-1.9,1.1-3.6,5.8-3.6,9.4c0,2.3,1.4,9.9,1.4,12.3c0,5-1.5,8.6-4.6,11.1c3,2.4,4.6,6.1,4.6,11
		c0,2.3-1.4,9.9-1.4,12.3c0,3.8,1.7,8.4,3.6,9.5v0.7c-3.5-2.3-5.8-8.2-5.8-13.1c0-2.1,1.7-9.4,1.7-11.5c0-3.8-1-6.6-2.9-8.2
		C0.1,43.8,0,43.6,0,43.4s0.1-0.4,0.5-0.7c1.9-1.7,2.9-4.2,2.9-7.6c0-2.1-1.7-10-1.7-12.2c0-5.2,2.1-10.4,5.8-13.1V10.6z"/>
</g>
<rect x="547.8" y="9.9" width="0.8" height="67"/>
<rect x="550.4" y="9.9" width="2.5" height="67"/>
<rect x="8.5" y="29.5" width="544.4" height="0.5"/>
<rect x="8.5" y="24.6" width="544.4" height="0.5"/>
<rect x="8.5" y="19.6" width="544.4" height="0.5"/>
<rect x="8.5" y="14.6" width="544.4" height="0.5"/>
<rect x="8.5" y="9.7" width="544.4" height="0.5"/>
<g>
	<path d="M20.3,29.6c-4.2,0-8.1-3.1-8.1-6.9c0-3.2,2.3-6.7,6.8-10.5c-0.3-1.2-0.4-2.4-0.4-3.6c0-3.5,1.2-6.8,3.2-8.5
		c1.8,2.5,2.7,4.9,2.7,7.1c0,2.9-1.3,5.6-4.3,8.1l0.9,4.2c0.5,0,0.8-0.1,0.8-0.1c2.6,0,4.8,2,4.8,4.7c0,1.9-1.4,3.7-3.6,4.8
		c0-0.1,0.9,3.8,0.9,4.3c0,2.5-2.3,4.2-4.9,4.2c-2,0-3.6-1.3-3.6-3.4c0-1.4,1-2.6,2.4-2.6c1.3,0,2.3,1.3,2.3,2.5
		c0,1.4-1.2,2.3-2.7,2.5c0.6,0.3,1.2,0.5,1.9,0.5c2.1,0,4.1-1.6,4.1-3.6c0-0.2,0-0.4-0.1-0.6l-0.8-3.7
		C21.9,29.5,21.2,29.6,20.3,29.6z M18.1,24.4c0,1,0.5,1.9,1.6,2.5c-1.8-0.3-3-1.4-3-3.1c0-2,1.7-3.7,3.8-4.1l-0.8-4
		C16,18.5,14,21.2,14,23.8c0,2.9,2.8,5.3,6,5.3c0.9,0,1.7-0.2,2.4-0.5L21,21.8C19.4,22,18.1,23,18.1,24.4z M22.1,3
		c-1.6,0-2.9,3.7-2.9,7c0,0.7,0,1.3,0.2,1.9c2.7-2.4,4-4.5,4-6.5c0-0.9-0.3-1.7-1-2.4C22.4,3.1,22.3,3,22.1,3z M24.9,24.9
		c0-1.6-1.2-3.3-2.9-3.3c-0.1,0-0.2,0-0.5,0l1.4,6.6C24.2,27.4,24.9,26.2,24.9,24.9z"/>
</g>
<g>
	<path d="M33.5,3.1v2.8l1-0.3v1.8l-1,0.3v3.4l1-0.3v1.8l-1,0.3v3.1H33v-3l-1.9,0.6v3h-0.5v-2.8l-1,0.3v-1.8l1-0.3V8.7l-1,0.3V7.2
		l1-0.3V3.7h0.5v3L33,6.1v-3H33.5z M33,7.9l-1.9,0.6v3.4l1.9-0.6V7.9z"/>
</g>
<g>
	<path d="M39.7,10.5v2.8l1-0.3v1.8l-1,0.3v3.4l1-0.3v1.8l-1,0.3v3.1h-0.5v-3l-1.9,0.6v3h-0.5v-2.8l-1,0.3v-1.8l1-0.3v-3.4l-1,0.3
		v-1.8l1-0.3v-3.1h0.5v3l1.9-0.6v-3H39.7z M39.2,15.3L37.3,16v3.4l1.9-0.6V15.3z"/>
</g>
<g>
	<path d="M45.9,0.6v2.8l1-0.3v1.8l-1,0.3v3.4l1-0.3v1.8l-1,0.3v3.1h-0.5v-3l-1.9,0.6v3H43v-2.8l-1,0.3V9.9l1-0.3V6.2l-1,0.3V4.7
		l1-0.3V1.3h0.5v3l1.9-0.6v-3H45.9z M45.4,5.4L43.5,6v3.4l1.9-0.6V5.4z"/>
</g>
<polygon fill-rule="evenodd" clip-rule="evenodd" points="62.2,26 109.1,24.8 109.1,22.3 62.2,23.6 "/>
<polygon fill-rule="evenodd" clip-rule="evenodd" points="62.2,22.3 109.1,21.1 109.1,18.6 62.2,19.8 "/>
<polygon fill-rule="evenodd" clip-rule="evenodd" points="124.7,21.1 172,16.1 172,13.6 124.7,18.6 "/>
<polygon fill-rule="evenodd" clip-rule="evenodd" points="124.7,17.4 172,12.4 172,9.9 124.7,14.9 "/>
<polygon fill-rule="evenodd" clip-rule="evenodd" points="187.7,11.2 234.5,6.2 234.5,3.7 187.7,8.7 "/>
<polygon fill-rule="evenodd" clip-rule="evenodd" points="187.7,7.4 234.5,2.5 234.5,0 187.7,5 "/>
<polygon fill-rule="evenodd" clip-rule="evenodd" points="245.3,27.3 294.3,26 294.3,23.6 245.3,24.8 "/>
<polygon fill-rule="evenodd" clip-rule="evenodd" points="245.3,31 294.3,29.8 294.3,27.3 245.3,28.5 "/>
<polygon fill-rule="evenodd" clip-rule="evenodd" points="310.3,31 357.1,36 357.1,33.5 310.3,28.5 "/>
<polygon fill-rule="evenodd" clip-rule="evenodd" points="310.3,34.7 357.1,39.7 357.1,37.2 310.3,32.2 "/>
<polygon fill-rule="evenodd" clip-rule="evenodd" points="379.3,16.1 426.1,21.1 426.1,18.6 379.3,13.6 "/>
<polygon fill-rule="evenodd" clip-rule="evenodd" points="379.3,12.4 426.1,17.4 426.1,14.9 379.3,9.9 "/>
<polygon fill-rule="evenodd" clip-rule="evenodd" points="441.7,24.8 488.5,26 488.5,23.6 441.7,22.3 "/>
<polygon fill-rule="evenodd" clip-rule="evenodd" points="441.7,21.1 488.5,22.3 488.5,19.8 441.7,18.6 "/>
<rect x="8.5" y="76.7" width="544.4" height="0.5"/>
<rect x="8.5" y="71.7" width="544.4" height="0.5"/>
<rect x="8.5" y="66.7" width="544.4" height="0.5"/>
<rect x="8.5" y="61.8" width="544.4" height="0.5"/>
<rect x="8.5" y="56.8" width="544.4" height="0.5"/>
<g>
	<path d="M15.7,71.2c2.9-2.6,4.7-6.1,4.7-9.2c0-2.5-1.4-4.4-3.7-4.4c-1.6,0-3.4,1.3-3.4,2.7c0,0.2,0,0.3,0.1,0.3
		c-0.1,0,0.6-0.6,1.4-0.6c0.9,0,1.5,0.8,1.5,1.7c0,1.2-0.9,2.2-2.1,2.2c-1.2,0-2.1-1.3-2.1-2.8c0-2.3,2.3-4.1,4.8-4.1
		c4.7,0,5.9,3.2,5.9,5.8c0,1.6-0.4,2.9-2,5.3c-1.9,3.1-6.4,5.3-8.1,5.3c-0.4,0-0.6-0.2-0.6-0.5C13.8,72.5,14.9,71.9,15.7,71.2z
		 M25.7,58.5c0.6,0,1,0.4,1,1s-0.4,1-1,1s-1-0.4-1-1S25.1,58.5,25.7,58.5z M25.7,63.5c0.6,0,1,0.4,1,1c0,0.6-0.4,1-1,1s-1-0.4-1-1
		C24.7,63.9,25.1,63.5,25.7,63.5z"/>
</g>
<g>
	<path d="M33.5,55.2V58l1-0.3v1.8l-1,0.3v3.4l1-0.3v1.8l-1,0.3v3.1H33v-3l-1.9,0.6v3h-0.5V66l-1,0.3v-1.8l1-0.3v-3.4l-1,0.3v-1.8
		l1-0.3v-3.1h0.5v3l1.9-0.6v-3H33.5z M33,60l-1.9,0.6V64l1.9-0.6V60z"/>
</g>
<g>
	<path d="M39.7,62.6v2.8l1-0.3v1.8l-1,0.3v3.4l1-0.3v1.8l-1,0.3v3.1h-0.5v-3l-1.9,0.6v3h-0.5v-2.8l-1,0.3v-1.8l1-0.3v-3.4l-1,0.3
		v-1.8l1-0.3v-3.1h0.5v3l1.9-0.6v-3H39.7z M39.2,67.4L37.3,68v3.4l1.9-0.6V67.4z"/>
</g>
<g>
	<path d="M45.9,52.7v2.8l1-0.3V57l-1,0.3v3.4l1-0.3v1.8l-1,0.3v3.1h-0.5v-3l-1.9,0.6v3H43v-2.8l-1,0.3V62l1-0.3v-3.4l-1,0.3v-1.8
		l1-0.3v-3.1h0.5v3l1.9-0.6v-3H45.9z M45.4,57.5l-1.9,0.6v3.4l1.9-0.6V57.5z"/>
</g>
<polygon fill-rule="evenodd" clip-rule="evenodd" points="62.2,68.2 109.1,63.2 109.1,60.8 62.2,65.7 "/>
<polygon fill-rule="evenodd" clip-rule="evenodd" points="62.2,64.5 109.1,59.5 109.1,57 62.2,62 "/>
<polygon fill-rule="evenodd" clip-rule="evenodd" points="118.2,83.1 165.5,78.1 165.5,75.6 118.2,80.6 "/>
<polygon fill-rule="evenodd" clip-rule="evenodd" points="118.2,86.8 165.5,81.8 165.5,79.4 118.2,84.3 "/>
<polygon fill-rule="evenodd" clip-rule="evenodd" points="181.1,73.2 228,68.2 228,65.7 181.1,70.7 "/>
<polygon fill-rule="evenodd" clip-rule="evenodd" points="181.1,76.9 228,71.9 228,69.4 181.1,74.4 "/>
<polygon fill-rule="evenodd" clip-rule="evenodd" points="245.3,64.5 294.3,63.2 294.3,60.8 245.3,62 "/>
<polygon fill-rule="evenodd" clip-rule="evenodd" points="245.3,68.2 294.3,67 294.3,64.5 245.3,65.7 "/>
<polygon fill-rule="evenodd" clip-rule="evenodd" points="310.3,63.2 357.1,68.2 357.1,65.7 310.3,60.8 "/>
<polygon fill-rule="evenodd" clip-rule="evenodd" points="310.3,67 357.1,71.9 357.1,69.4 310.3,64.5 "/>
<polygon fill-rule="evenodd" clip-rule="evenodd" points="372.7,73.2 419.6,78.1 419.6,75.6 372.7,70.7 "/>
<polygon fill-rule="evenodd" clip-rule="evenodd" points="372.7,76.9 419.6,81.8 419.6,79.4 372.7,74.4 "/>
<polygon fill-rule="evenodd" clip-rule="evenodd" points="441.7,58.3 488.5,63.2 488.5,60.8 441.7,55.8 "/>
<polygon fill-rule="evenodd" clip-rule="evenodd" points="441.7,54.6 488.5,59.5 488.5,57 441.7,52.1 "/>
<rect x="53.7" y="34.3" width="10.5" height="0.8"/>
<rect x="53.7" y="39.3" width="10.5" height="0.8"/>
<rect x="53.7" y="44.3" width="10.5" height="0.8"/>
<rect x="62" y="20" width="0.5" height="23.9"/>
<g>
	<path d="M55.6,45.5c0-1.8,2.5-3.5,4.5-3.5c1.3,0,2.3,0.7,2.3,1.7c0,1.7-2.5,3.5-4.6,3.5C56.6,47.2,55.6,46.6,55.6,45.5z"/>
</g>
<rect x="69.4" y="34.3" width="10.5" height="0.8"/>
<rect x="69.4" y="39.3" width="10.5" height="0.8"/>
<rect x="77.7" y="19.7" width="0.5" height="21.7"/>
<g>
	<path d="M71.2,43c0-1.8,2.5-3.5,4.5-3.5c1.3,0,2.3,0.7,2.3,1.7c0,1.7-2.5,3.5-4.6,3.5C72.2,44.7,71.2,44.1,71.2,43z"/>
</g>
<rect x="84.9" y="34.3" width="10.5" height="0.8"/>
<rect x="84.9" y="39.3" width="10.5" height="0.8"/>
<rect x="93.2" y="19.2" width="0.5" height="19.7"/>
<g>
	<path d="M86.7,40.5c0-1.8,2.5-3.5,4.5-3.5c1.3,0,2.3,0.7,2.3,1.7c0,1.7-2.5,3.5-4.6,3.5C87.7,42.3,86.7,41.6,86.7,40.5z"/>
</g>
<rect x="100.5" y="34.3" width="10.5" height="0.8"/>
<rect x="108.8" y="18.8" width="0.5" height="17.7"/>
<g>
	<path d="M102.4,38.1c0-1.8,2.5-3.5,4.5-3.5c1.3,0,2.3,0.7,2.3,1.7c0,1.7-2.5,3.5-4.6,3.5C103.4,39.8,102.4,39.1,102.4,38.1z"/>
</g>
<rect x="116.2" y="34.3" width="10.5" height="0.8"/>
<rect x="124.5" y="15" width="0.5" height="18.9"/>
<g>
	<path d="M118.1,35.6c0-1.8,2.5-3.5,4.5-3.5c1.3,0,2.3,0.7,2.3,1.7c0,1.7-2.5,3.5-4.6,3.5C119,37.3,118.1,36.7,118.1,35.6z"/>
</g>
<rect x="140.6" y="13.5" width="0.5" height="18"/>
<g>
	<path d="M134.2,33.1c0-1.8,2.5-3.5,4.5-3.5c1.3,0,2.3,0.7,2.3,1.7c0,1.7-2.5,3.5-4.6,3.5C135.1,34.8,134.2,34.2,134.2,33.1z"/>
</g>
<g>
	<path d="M131.7,25.4v2.8l1-0.3v1.8l-1,0.3v3.4l1-0.3V35l-1,0.3v3.1h-0.5v-3l-1.9,0.6v3h-0.5v-2.8l-1,0.3v-1.8l1-0.3V31l-1,0.3v-1.8
		l1-0.3v-3.1h0.5v3l1.9-0.6v-3H131.7z M131.3,30.2l-1.9,0.6v3.4l1.9-0.6V30.2z"/>
</g>
<rect x="156.3" y="11.8" width="0.5" height="17.2"/>
<g>
	<path d="M149.8,30.6c0-1.8,2.5-3.5,4.5-3.5c1.3,0,2.3,0.7,2.3,1.7c0,1.7-2.5,3.5-4.6,3.5C150.8,32.3,149.8,31.7,149.8,30.6z"/>
</g>
<g>
	<path d="M147.4,22.9v2.8l1-0.3v1.8l-1,0.3V31l1-0.3v1.8l-1,0.3v3.1h-0.5v-3l-1.9,0.6v3h-0.5v-2.8l-1,0.3v-1.8l1-0.3v-3.4l-1,0.3V27
		l1-0.3v-3.1h0.5v3l1.9-0.6v-3H147.4z M146.9,27.7l-1.9,0.6v3.4l1.9-0.6V27.7z"/>
</g>
<rect x="171.8" y="10.1" width="0.5" height="16.4"/>
<g>
	<path d="M165.3,28.1c0-1.8,2.5-3.5,4.5-3.5c1.3,0,2.3,0.7,2.3,1.7c0,1.7-2.5,3.5-4.6,3.5C166.3,29.9,165.3,29.2,165.3,28.1z"/>
</g>
<rect x="187.4" y="5.1" width="0.5" height="18.9"/>
<g>
	<path d="M181,25.7c0-1.8,2.5-3.5,4.5-3.5c1.3,0,2.3,0.7,2.3,1.7c0,1.7-2.5,3.5-4.6,3.5C182,27.4,181,26.7,181,25.7z"/>
</g>
<rect x="203.1" y="3.6" width="0.5" height="18"/>
<g>
	<path d="M196.6,23.2c0-1.8,2.5-3.5,4.5-3.5c1.3,0,2.3,0.7,2.3,1.7c0,1.7-2.5,3.5-4.6,3.5C197.6,24.9,196.6,24.3,196.6,23.2z"/>
</g>
<rect x="218.6" y="1.9" width="0.5" height="17.2"/>
<g>
	<path d="M212.1,20.7c0-1.8,2.5-3.5,4.5-3.5c1.3,0,2.3,0.7,2.3,1.7c0,1.7-2.5,3.5-4.6,3.5C213.1,22.4,212.1,21.8,212.1,20.7z"/>
</g>
<rect x="234.2" y="0.2" width="0.5" height="16.4"/>
<g>
	<path d="M227.8,18.2c0-1.8,2.5-3.5,4.5-3.5c1.3,0,2.3,0.7,2.3,1.7c0,1.7-2.5,3.5-4.6,3.5C228.8,19.9,227.8,19.3,227.8,18.2z"/>
</g>
<rect x="245.1" y="15.7" width="0.5" height="15.2"/>
<g>
	<path d="M245.2,15.7c0-1.8,2.5-3.5,4.5-3.5c1.3,0,2.3,0.7,2.3,1.7c0,1.7-2.5,3.5-4.6,3.5C246.1,17.5,245.2,16.8,245.2,15.7z"/>
</g>
<g>
	<path d="M242.7,8.1v2.8l1-0.3v1.8l-1,0.3v3.4l1-0.3v1.8l-1,0.3V21h-0.5v-3l-1.9,0.6v3h-0.5v-2.8l-1,0.3v-1.8l1-0.3v-3.4l-1,0.3
		v-1.8l1-0.3V8.7h0.5v3l1.9-0.6v-3H242.7z M242.2,12.8l-1.9,0.6v3.4l1.9-0.6V12.8z"/>
</g>
<rect x="262.5" y="13.2" width="0.5" height="17.4"/>
<g>
	<path d="M262.5,13.3c0-1.8,2.5-3.5,4.5-3.5c1.3,0,2.3,0.7,2.3,1.7c0,1.7-2.5,3.5-4.6,3.5C263.5,15,262.5,14.3,262.5,13.3z"/>
</g>
<g>
	<path d="M260.1,5.6v2.8l1-0.3v1.8l-1,0.3v3.4l1-0.3v1.8l-1,0.3v3.1h-0.5v-3l-1.9,0.6v3h-0.5v-2.8l-1,0.3v-1.8l1-0.3v-3.4l-1,0.3
		V9.7l1-0.3V6.2h0.5v3l1.9-0.6v-3H260.1z M259.6,10.4l-1.9,0.6v3.4l1.9-0.6V10.4z"/>
</g>
<rect x="278.1" y="10.7" width="0.5" height="19.4"/>
<g>
	<path d="M278.2,10.8c0-1.8,2.5-3.5,4.5-3.5C284,7.3,285,8,285,9c0,1.7-2.5,3.5-4.6,3.5C279.2,12.5,278.2,11.9,278.2,10.8z"/>
</g>
<rect x="294.1" y="13.2" width="0.5" height="16.4"/>
<g>
	<path d="M294.2,13.3c0-1.8,2.5-3.5,4.5-3.5c1.3,0,2.3,0.7,2.3,1.7c0,1.7-2.5,3.5-4.6,3.5C295.1,15,294.2,14.3,294.2,13.3z"/>
</g>
<g>
	<path d="M292.2,19.2v-4l-3,1.1V5.6h0.5v4l3-1.1v10.7H292.2z M289.7,14.5l2.5-0.9v-3.3l-2.5,0.9V14.5z"/>
</g>
<rect x="310" y="15.7" width="0.5" height="18.9"/>
<g>
	<path d="M310.1,15.7c0-1.8,2.5-3.5,4.5-3.5c1.3,0,2.3,0.7,2.3,1.7c0,1.7-2.5,3.5-4.6,3.5C311.1,17.5,310.1,16.8,310.1,15.7z"/>
</g>
<g>
	<path d="M308.2,21.6v-4l-3,1.1V8.1h0.5v4l3-1.1v10.7H308.2z M305.7,17l2.5-0.9v-3.3l-2.5,0.9V17z"/>
</g>
<rect x="325.7" y="18.1" width="0.5" height="18"/>
<g>
	<path d="M325.8,18.2c0-1.8,2.5-3.5,4.5-3.5c1.3,0,2.3,0.7,2.3,1.7c0,1.7-2.5,3.5-4.6,3.5C326.7,19.9,325.8,19.3,325.8,18.2z"/>
</g>
<rect x="341.2" y="20.6" width="0.5" height="17.2"/>
<g>
	<path d="M341.3,20.7c0-1.8,2.5-3.5,4.5-3.5c1.3,0,2.3,0.7,2.3,1.7c0,1.7-2.5,3.5-4.6,3.5C342.2,22.4,341.3,21.8,341.3,20.7z"/>
</g>
<rect x="356.9" y="23.1" width="0.5" height="16.4"/>
<g>
	<path d="M356.9,23.2c0-1.8,2.5-3.5,4.5-3.5c1.3,0,2.3,0.7,2.3,1.7c0,1.7-2.5,3.5-4.6,3.5C357.9,24.9,356.9,24.3,356.9,23.2z"/>
</g>
<rect x="379" y="10.1" width="0.5" height="14"/>
<g>
	<path d="M372.6,25.7c0-1.8,2.5-3.5,4.5-3.5c1.3,0,2.3,0.7,2.3,1.7c0,1.7-2.5,3.5-4.6,3.5C373.6,27.4,372.6,26.7,372.6,25.7z"/>
</g>
<rect x="394.5" y="11.6" width="0.5" height="14.9"/>
<g>
	<path d="M388.1,28.1c0-1.8,2.5-3.5,4.5-3.5c1.3,0,2.3,0.7,2.3,1.7c0,1.7-2.5,3.5-4.6,3.5C389.1,29.9,388.1,29.2,388.1,28.1z"/>
</g>
<rect x="410.2" y="13.3" width="0.5" height="15.7"/>
<g>
	<path d="M403.7,30.6c0-1.8,2.5-3.5,4.5-3.5c1.3,0,2.3,0.7,2.3,1.7c0,1.7-2.5,3.5-4.6,3.5C404.7,32.3,403.7,31.7,403.7,30.6z"/>
</g>
<g>
	<path d="M401.8,36.5v-4l-3,1.1V23h0.5v4l3-1.1v10.7H401.8z M399.3,31.9l2.5-0.9v-3.3l-2.5,0.9V31.9z"/>
</g>
<rect x="425.8" y="15" width="0.5" height="16.4"/>
<g>
	<path d="M419.4,33.1c0-1.8,2.5-3.5,4.5-3.5c1.3,0,2.3,0.7,2.3,1.7c0,1.7-2.5,3.5-4.6,3.5C420.4,34.8,419.4,34.2,419.4,33.1z"/>
</g>
<g>
	<path d="M417.5,39v-4l-3,1.1V25.4h0.5v4l3-1.1V39H417.5z M414.9,34.3l2.5-0.9v-3.3l-2.5,0.9V34.3z"/>
</g>
<rect x="433.2" y="34.3" width="10.5" height="0.8"/>
<rect x="441.5" y="18.8" width="0.5" height="15.2"/>
<g>
	<path d="M435.1,35.6c0-1.8,2.5-3.5,4.5-3.5c1.3,0,2.3,0.7,2.3,1.7c0,1.7-2.5,3.5-4.6,3.5C436,37.3,435.1,36.7,435.1,35.6z"/>
</g>
<rect x="448.7" y="34.3" width="10.5" height="0.8"/>
<rect x="457" y="19.1" width="0.5" height="17.4"/>
<g>
	<path d="M450.6,38.1c0-1.8,2.5-3.5,4.5-3.5c1.3,0,2.3,0.7,2.3,1.7c0,1.7-2.5,3.5-4.6,3.5C451.5,39.8,450.6,39.1,450.6,38.1z"/>
</g>
<rect x="464.4" y="34.3" width="10.5" height="0.8"/>
<rect x="464.4" y="39.3" width="10.5" height="0.8"/>
<rect x="472.7" y="19.5" width="0.5" height="19.4"/>
<g>
	<path d="M466.2,40.5c0-1.8,2.5-3.5,4.5-3.5c1.3,0,2.3,0.7,2.3,1.7c0,1.7-2.5,3.5-4.6,3.5C467.2,42.3,466.2,41.6,466.2,40.5z"/>
</g>
<rect x="480" y="34.3" width="10.5" height="0.8"/>
<rect x="480" y="39.3" width="10.5" height="0.8"/>
<rect x="488.3" y="20" width="0.5" height="21.4"/>
<g>
	<path d="M481.9,43c0-1.8,2.5-3.5,4.5-3.5c1.3,0,2.3,0.7,2.3,1.7c0,1.7-2.5,3.5-4.6,3.5C482.8,44.7,481.9,44.1,481.9,43z"/>
</g>
<rect x="495.5" y="34.3" width="10.7" height="0.8"/>
<rect x="495.5" y="39.3" width="10.7" height="0.8"/>
<rect x="495.5" y="44.3" width="10.7" height="0.8"/>
<rect x="504" y="19.8" width="0.5" height="24"/>
<g>
	<path d="M501.6,41.9c1.6,0,2.7,0.7,2.7,2c0,1.9-2.3,3.4-4.5,3.4c-1.3,0-2.4-0.7-2.4-1.8C497.4,43.7,499.6,41.9,501.6,41.9z
		 M497.8,45.8c0,0.6,0.4,0.9,1.1,0.9c1.4,0,4.9-2.1,4.9-3.3c0-0.6-0.4-0.9-1.1-0.9C501.5,42.5,497.8,44.6,497.8,45.8z"/>
</g>
<rect x="62" y="62.2" width="0.5" height="16.4"/>
<g>
	<path d="M55.6,80.2c0-1.8,2.5-3.5,4.5-3.5c1.3,0,2.3,0.7,2.3,1.7c0,1.7-2.5,3.5-4.6,3.5C56.6,81.9,55.6,81.3,55.6,80.2z"/>
</g>
<rect x="77.7" y="60.6" width="0.5" height="15.5"/>
<g>
	<path d="M71.2,77.7c0-1.8,2.5-3.5,4.5-3.5c1.3,0,2.3,0.7,2.3,1.7c0,1.7-2.5,3.5-4.6,3.5C72.2,79.5,71.2,78.8,71.2,77.7z"/>
</g>
<rect x="93.2" y="58.9" width="0.5" height="14.7"/>
<g>
	<path d="M86.7,75.3c0-1.8,2.5-3.5,4.5-3.5c1.3,0,2.3,0.7,2.3,1.7c0,1.7-2.5,3.5-4.6,3.5C87.7,77,86.7,76.3,86.7,75.3z"/>
</g>
<rect x="108.8" y="57.2" width="0.5" height="14"/>
<g>
	<path d="M102.4,72.8c0-1.8,2.5-3.5,4.5-3.5c1.3,0,2.3,0.7,2.3,1.7c0,1.7-2.5,3.5-4.6,3.5C103.4,74.5,102.4,73.9,102.4,72.8z"/>
</g>
<rect x="118" y="70.2" width="0.5" height="16.4"/>
<g>
	<path d="M118.1,70.3c0-1.8,2.5-3.5,4.5-3.5c1.3,0,2.3,0.7,2.3,1.7c0,1.7-2.5,3.5-4.6,3.5C119,72,118.1,71.4,118.1,70.3z"/>
</g>
<rect x="134.1" y="67.7" width="0.5" height="17.4"/>
<g>
	<path d="M134.2,67.8c0-1.8,2.5-3.5,4.5-3.5c1.3,0,2.3,0.7,2.3,1.7c0,1.7-2.5,3.5-4.6,3.5C135.1,69.5,134.2,68.9,134.2,67.8z"/>
</g>
<g>
	<path d="M131.7,60.1V63l1-0.3v1.8l-1,0.3v3.4l1-0.3v1.8l-1,0.3v3.1h-0.5v-3l-1.9,0.6v3h-0.5v-2.8l-1,0.3v-1.8l1-0.3v-3.4l-1,0.3
		v-1.8l1-0.3v-3.1h0.5v3l1.9-0.6v-3H131.7z M131.3,64.9l-1.9,0.6V69l1.9-0.6V64.9z"/>
</g>
<rect x="149.8" y="65.3" width="0.5" height="18.1"/>
<g>
	<path d="M149.8,65.3c0-1.8,2.5-3.5,4.5-3.5c1.3,0,2.3,0.7,2.3,1.7c0,1.7-2.5,3.5-4.6,3.5C150.8,67.1,149.8,66.4,149.8,65.3z"/>
</g>
<g>
	<path d="M147.4,57.7v2.8l1-0.3V62l-1,0.3v3.4l1-0.3v1.8l-1,0.3v3.1h-0.5v-3l-1.9,0.6v3h-0.5v-2.8l-1,0.3V67l1-0.3v-3.4l-1,0.3v-1.8
		l1-0.3v-3.1h0.5v3l1.9-0.6v-3H147.4z M146.9,62.4l-1.9,0.6v3.4l1.9-0.6V62.4z"/>
</g>
<rect x="165.3" y="62.8" width="0.5" height="18.9"/>
<g>
	<path d="M165.3,62.9c0-1.8,2.5-3.5,4.5-3.5c1.3,0,2.3,0.7,2.3,1.7c0,1.7-2.5,3.5-4.6,3.5C166.3,64.6,165.3,63.9,165.3,62.9z"/>
</g>
<rect x="180.9" y="60.3" width="0.5" height="16.4"/>
<g>
	<path d="M181,60.4c0-1.8,2.5-3.5,4.5-3.5c1.3,0,2.3,0.7,2.3,1.7c0,1.7-2.5,3.5-4.6,3.5C182,62.1,181,61.5,181,60.4z"/>
</g>
<rect x="196.6" y="57.8" width="0.5" height="17.4"/>
<g>
	<path d="M196.6,57.9c0-1.8,2.5-3.5,4.5-3.5c1.3,0,2.3,0.7,2.3,1.7c0,1.7-2.5,3.5-4.6,3.5C197.6,59.6,196.6,59,196.6,57.9z"/>
</g>
<rect x="212.1" y="55.3" width="0.5" height="18.1"/>
<g>
	<path d="M212.1,55.4c0-1.8,2.5-3.5,4.5-3.5c1.3,0,2.3,0.7,2.3,1.7c0,1.7-2.5,3.5-4.6,3.5C213.1,57.1,212.1,56.5,212.1,55.4z"/>
</g>
<rect x="225.9" y="51.7" width="10.5" height="0.8"/>
<rect x="227.7" y="52.9" width="0.5" height="18.9"/>
<g>
	<path d="M227.8,52.9c0-1.8,2.5-3.5,4.5-3.5c1.3,0,2.3,0.7,2.3,1.7c0,1.7-2.5,3.5-4.6,3.5C228.8,54.7,227.8,54,227.8,52.9z"/>
</g>
<rect x="243.3" y="51.7" width="10.5" height="0.8"/>
<rect x="245.1" y="50.4" width="0.5" height="17.7"/>
<g>
	<path d="M245.2,50.5c0-1.8,2.5-3.5,4.5-3.5c1.3,0,2.3,0.7,2.3,1.7c0,1.7-2.5,3.5-4.6,3.5C246.1,52.2,245.2,51.5,245.2,50.5z"/>
</g>
<g>
	<path d="M241.5,42.8v2.8l1-0.3v1.8l-1,0.3v3.4l1-0.3v1.8l-1,0.3v3.1H241v-3l-1.9,0.6v3h-0.5v-2.8l-1,0.3v-1.8l1-0.3v-3.4l-1,0.3
		v-1.8l1-0.3v-3.1h0.5v3l1.9-0.6v-3H241.5z M241,47.6l-1.9,0.6v3.4L241,51V47.6z"/>
</g>
<rect x="260.7" y="51.7" width="10.5" height="0.8"/>
<rect x="260.7" y="46.7" width="10.5" height="0.8"/>
<rect x="262.5" y="47.9" width="0.5" height="19.8"/>
<g>
	<path d="M262.5,48c0-1.8,2.5-3.5,4.5-3.5c1.3,0,2.3,0.7,2.3,1.7c0,1.7-2.5,3.5-4.6,3.5C263.5,49.7,262.5,49.1,262.5,48z"/>
</g>
<g>
	<path d="M258.9,40.3v2.8l1-0.3v1.8l-1,0.3v3.4l1-0.3v1.8l-1,0.3v3.1h-0.5v-3l-1.9,0.6v3H256v-2.8l-1,0.3v-1.8l1-0.3v-3.4l-1,0.3
		v-1.8l1-0.3v-3.1h0.5v3l1.9-0.6v-3H258.9z M258.4,45.1l-1.9,0.6v3.4l1.9-0.6V45.1z"/>
</g>
<rect x="276.3" y="51.7" width="10.5" height="0.8"/>
<rect x="276.3" y="46.7" width="10.5" height="0.8"/>
<rect x="278.1" y="45.4" width="0.5" height="21.9"/>
<g>
	<path d="M278.2,45.5c0-1.8,2.5-3.5,4.5-3.5c1.3,0,2.3,0.7,2.3,1.7c0,1.7-2.5,3.5-4.6,3.5C279.2,47.2,278.2,46.6,278.2,45.5z"/>
</g>
<rect x="292.3" y="51.7" width="10.5" height="0.8"/>
<rect x="292.3" y="46.7" width="10.5" height="0.8"/>
<rect x="294.1" y="47.9" width="0.5" height="18.9"/>
<g>
	<path d="M294.2,48c0-1.8,2.5-3.5,4.5-3.5c1.3,0,2.3,0.7,2.3,1.7c0,1.7-2.5,3.5-4.6,3.5C295.1,49.7,294.2,49.1,294.2,48z"/>
</g>
<g>
	<path d="M291,53.9v-4l-3,1.1V40.3h0.5v4l3-1.1v10.7H291z M288.4,49.2l2.5-0.9V45l-2.5,0.9V49.2z"/>
</g>
<rect x="308.3" y="51.7" width="10.5" height="0.8"/>
<rect x="310" y="50.4" width="0.5" height="16.4"/>
<g>
	<path d="M310.1,50.5c0-1.8,2.5-3.5,4.5-3.5c1.3,0,2.3,0.7,2.3,1.7c0,1.7-2.5,3.5-4.6,3.5C311.1,52.2,310.1,51.5,310.1,50.5z"/>
</g>
<g>
	<path d="M307,56.4v-4l-3,1.1V42.8h0.5v4l3-1.1v10.7H307z M304.4,51.7l2.5-0.9v-3.3l-2.5,0.9V51.7z"/>
</g>
<rect x="323.9" y="51.7" width="10.5" height="0.8"/>
<rect x="325.7" y="52.9" width="0.5" height="15.5"/>
<g>
	<path d="M325.8,52.9c0-1.8,2.5-3.5,4.5-3.5c1.3,0,2.3,0.7,2.3,1.7c0,1.7-2.5,3.5-4.6,3.5C326.7,54.7,325.8,54,325.8,52.9z"/>
</g>
<rect x="341.2" y="55.3" width="0.5" height="14.7"/>
<g>
	<path d="M341.3,55.4c0-1.8,2.5-3.5,4.5-3.5c1.3,0,2.3,0.7,2.3,1.7c0,1.7-2.5,3.5-4.6,3.5C342.2,57.1,341.3,56.5,341.3,55.4z"/>
</g>
<rect x="356.9" y="57.8" width="0.5" height="14"/>
<g>
	<path d="M356.9,57.9c0-1.8,2.5-3.5,4.5-3.5c1.3,0,2.3,0.7,2.3,1.7c0,1.7-2.5,3.5-4.6,3.5C357.9,59.6,356.9,59,356.9,57.9z"/>
</g>
<rect x="372.5" y="60.3" width="0.5" height="16.4"/>
<g>
	<path d="M372.6,60.4c0-1.8,2.5-3.5,4.5-3.5c1.3,0,2.3,0.7,2.3,1.7c0,1.7-2.5,3.5-4.6,3.5C373.6,62.1,372.6,61.5,372.6,60.4z"/>
</g>
<rect x="388" y="62.8" width="0.5" height="15.5"/>
<g>
	<path d="M388.1,62.9c0-1.8,2.5-3.5,4.5-3.5c1.3,0,2.3,0.7,2.3,1.7c0,1.7-2.5,3.5-4.6,3.5C389.1,64.6,388.1,63.9,388.1,62.9z"/>
</g>
<rect x="403.7" y="65.3" width="0.5" height="14.7"/>
<g>
	<path d="M403.7,65.3c0-1.8,2.5-3.5,4.5-3.5c1.3,0,2.3,0.7,2.3,1.7c0,1.7-2.5,3.5-4.6,3.5C404.7,67.1,403.7,66.4,403.7,65.3z"/>
</g>
<g>
	<path d="M401.8,71.2v-4l-3,1.1V57.7h0.5v4l3-1.1v10.7H401.8z M399.3,66.6l2.5-0.9v-3.3l-2.5,0.9V66.6z"/>
</g>
<rect x="419.3" y="67.7" width="0.5" height="14"/>
<g>
	<path d="M419.4,67.8c0-1.8,2.5-3.5,4.5-3.5c1.3,0,2.3,0.7,2.3,1.7c0,1.7-2.5,3.5-4.6,3.5C420.4,69.5,419.4,68.9,419.4,67.8z"/>
</g>
<g>
	<path d="M417.5,73.7v-4l-3,1.1V60.2h0.5v4l3-1.1v10.7H417.5z M414.9,69.1l2.5-0.9v-3.3l-2.5,0.9V69.1z"/>
</g>
<rect x="441.5" y="52.2" width="0.5" height="16.4"/>
<g>
	<path d="M435.1,70.3c0-1.8,2.5-3.5,4.5-3.5c1.3,0,2.3,0.7,2.3,1.7c0,1.7-2.5,3.5-4.6,3.5C436,72,435.1,71.4,435.1,70.3z"/>
</g>
<rect x="457" y="53.8" width="0.5" height="17.4"/>
<g>
	<path d="M450.6,72.8c0-1.8,2.5-3.5,4.5-3.5c1.3,0,2.3,0.7,2.3,1.7c0,1.7-2.5,3.5-4.6,3.5C451.5,74.5,450.6,73.9,450.6,72.8z"/>
</g>
<rect x="472.7" y="55.5" width="0.5" height="18.1"/>
<g>
	<path d="M466.2,75.3c0-1.8,2.5-3.5,4.5-3.5c1.3,0,2.3,0.7,2.3,1.7c0,1.7-2.5,3.5-4.6,3.5C467.2,77,466.2,76.3,466.2,75.3z"/>
</g>
<rect x="488.3" y="57.2" width="0.5" height="18.9"/>
<g>
	<path d="M481.9,77.7c0-1.8,2.5-3.5,4.5-3.5c1.3,0,2.3,0.7,2.3,1.7c0,1.7-2.5,3.5-4.6,3.5C482.8,79.5,481.9,78.8,481.9,77.7z"/>
</g>
<rect x="504" y="62" width="0.5" height="16.6"/>
<g>
	<path d="M501.6,76.7c1.6,0,2.7,0.7,2.7,2c0,1.9-2.3,3.4-4.5,3.4c-1.3,0-2.4-0.7-2.4-1.8C497.4,78.5,499.6,76.7,501.6,76.7z
		 M497.8,80.5c0,0.6,0.4,0.9,1.1,0.9c1.4,0,4.9-2.1,4.9-3.3c0-0.6-0.4-0.9-1.1-0.9C501.5,77.3,497.8,79.3,497.8,80.5z"/>
</g>
</svg>
