<?xml version="1.0" encoding="utf-8"?>

<!--
	ScaleBook
	Copyright (c) Leland Jansen 2015. All rights reserved.
-->

<!DOCTYPE svg PUBLIC "-//W3C//DTD SVG 1.1//EN" "http://www.w3.org/Graphics/SVG/1.1/DTD/svg11.dtd">
<svg version="1.1" id="Layer_1" xmlns="http://www.w3.org/2000/svg" xmlns:xlink="http://www.w3.org/1999/xlink" x="0px" y="0px"
	 viewBox="0 0 552.9 81.6" enable-background="new 0 0 552.9 81.6" xml:space="preserve">
<rect x="8.4" y="9.7" width="0.8" height="67"/>
<g>
	<path d="M7.4,10.4c-1.9,1.1-3.6,5.8-3.6,9.4c0,2.3,1.4,9.9,1.4,12.3c0,5-1.5,8.6-4.6,11.1c3,2.4,4.6,6.1,4.6,11
		c0,2.3-1.4,9.9-1.4,12.3c0,3.8,1.7,8.4,3.6,9.5v0.7c-3.5-2.3-5.8-8.2-5.8-13.1c0-2.1,1.7-9.4,1.7-11.5c0-3.8-1-6.6-2.9-8.2
		C0.1,43.6,0,43.4,0,43.2s0.1-0.4,0.5-0.7c1.9-1.7,2.9-4.2,2.9-7.6c0-2.1-1.7-10-1.7-12.2c0-5.2,2.1-10.4,5.8-13.1V10.4z"/>
</g>
<rect x="547.8" y="9.7" width="0.8" height="67"/>
<rect x="550.4" y="9.7" width="2.5" height="67"/>
<rect x="8.5" y="29.3" width="544.4" height="0.5"/>
<rect x="8.5" y="24.4" width="544.4" height="0.5"/>
<rect x="8.5" y="19.4" width="544.4" height="0.5"/>
<rect x="8.5" y="14.4" width="544.4" height="0.5"/>
<rect x="8.5" y="9.5" width="544.4" height="0.5"/>
<g>
	<path d="M20.3,29.4c-4.2,0-8.1-3.1-8.1-6.9c0-3.2,2.3-6.7,6.8-10.5c-0.3-1.2-0.4-2.4-0.4-3.6c0-3.5,1.2-6.8,3.2-8.5
		c1.8,2.5,2.7,4.9,2.7,7.1c0,2.9-1.3,5.6-4.3,8.1l0.9,4.2c0.5,0,0.8-0.1,0.8-0.1c2.6,0,4.8,2,4.8,4.7c0,1.9-1.4,3.7-3.6,4.8
		c0-0.1,0.9,3.8,0.9,4.3c0,2.5-2.3,4.2-4.9,4.2c-2,0-3.6-1.3-3.6-3.4c0-1.4,1-2.6,2.4-2.6c1.3,0,2.3,1.3,2.3,2.5
		c0,1.4-1.2,2.3-2.7,2.5c0.6,0.3,1.2,0.5,1.9,0.5c2.1,0,4.1-1.6,4.1-3.6c0-0.2,0-0.4-0.1-0.6l-0.8-3.7
		C21.9,29.3,21.2,29.4,20.3,29.4z M18.1,24.2c0,1,0.5,1.9,1.6,2.5c-1.8-0.3-3-1.4-3-3.1c0-2,1.7-3.7,3.8-4.1l-0.8-4
		C16,18.3,14,21,14,23.6c0,2.9,2.8,5.3,6,5.3c0.9,0,1.7-0.2,2.4-0.5L21,21.6C19.4,21.8,18.1,22.8,18.1,24.2z M22.1,2.8
		c-1.6,0-2.9,3.7-2.9,7c0,0.7,0,1.3,0.2,1.9c2.7-2.4,4-4.5,4-6.5c0-0.9-0.3-1.7-1-2.4C22.4,2.9,22.3,2.8,22.1,2.8z M24.9,24.7
		c0-1.6-1.2-3.3-2.9-3.3c-0.1,0-0.2,0-0.5,0l1.4,6.6C24.2,27.2,24.9,26,24.9,24.7z"/>
</g>
<g>
	<path d="M29.5,11.3h0.6L30,17.6c0.4-0.7,1-1,1.8-1c1.2,0,2.2,0.8,2.2,1.9c0,0.8-0.5,1.8-1.7,2.7l-2.8,2.1V11.3z M30.1,18.2
		C30,19,30,19.6,30,20.2c0,1,0,1.6,0.1,2c1-0.7,2.4-2.6,2.4-3.7c0-0.6-0.5-1.1-1.1-1.1C30.8,17.4,30.4,17.7,30.1,18.2z"/>
</g>
<g>
	<path d="M35.1,3.9h0.6l-0.1,6.2c0.4-0.7,1-1,1.8-1c1.2,0,2.2,0.8,2.2,1.9c0,0.8-0.5,1.8-1.7,2.7l-2.8,2.1V3.9z M35.7,10.8
		c-0.1,0.8-0.1,1.4-0.1,1.9c0,1,0,1.6,0.1,2c1-0.7,2.4-2.6,2.4-3.7c0-0.6-0.5-1.1-1.1-1.1C36.4,10,36,10.2,35.7,10.8z"/>
</g>
<polygon fill-rule="evenodd" clip-rule="evenodd" points="54.8,25.8 102.6,24.6 102.6,22.1 54.8,23.4 "/>
<polygon fill-rule="evenodd" clip-rule="evenodd" points="54.8,22.1 102.6,20.9 102.6,18.4 54.8,19.6 "/>
<polygon fill-rule="evenodd" clip-rule="evenodd" points="118.5,20.9 166.3,15.9 166.3,13.4 118.5,18.4 "/>
<polygon fill-rule="evenodd" clip-rule="evenodd" points="118.5,17.2 166.3,12.2 166.3,9.7 118.5,14.7 "/>
<polygon fill-rule="evenodd" clip-rule="evenodd" points="175.7,35.8 223.5,30.8 223.5,28.3 175.7,33.3 "/>
<polygon fill-rule="evenodd" clip-rule="evenodd" points="175.7,39.5 223.5,34.5 223.5,32 175.7,37 "/>
<polygon fill-rule="evenodd" clip-rule="evenodd" points="239.4,27.1 288.6,25.8 288.6,23.4 239.4,24.6 "/>
<polygon fill-rule="evenodd" clip-rule="evenodd" points="239.4,30.8 288.6,29.6 288.6,27.1 239.4,28.3 "/>
<polygon fill-rule="evenodd" clip-rule="evenodd" points="305.5,25.8 353.4,30.8 353.4,28.3 305.5,23.4 "/>
<polygon fill-rule="evenodd" clip-rule="evenodd" points="305.5,29.6 353.4,34.5 353.4,32 305.5,27.1 "/>
<polygon fill-rule="evenodd" clip-rule="evenodd" points="375.7,11 423.4,15.9 423.4,13.4 375.7,8.5 "/>
<polygon fill-rule="evenodd" clip-rule="evenodd" points="375.7,7.2 423.4,12.2 423.4,9.7 375.7,4.8 "/>
<polygon fill-rule="evenodd" clip-rule="evenodd" points="439.4,20.9 487.1,25.8 487.1,23.4 439.4,18.4 "/>
<polygon fill-rule="evenodd" clip-rule="evenodd" points="439.4,17.2 487.1,22.1 487.1,19.6 439.4,14.7 "/>
<rect x="8.5" y="76.4" width="544.4" height="0.5"/>
<rect x="8.5" y="71.5" width="544.4" height="0.5"/>
<rect x="8.5" y="66.5" width="544.4" height="0.5"/>
<rect x="8.5" y="61.6" width="544.4" height="0.5"/>
<rect x="8.5" y="56.6" width="544.4" height="0.5"/>
<g>
	<path d="M15.7,71c2.9-2.6,4.7-6.1,4.7-9.2c0-2.5-1.4-4.4-3.7-4.4c-1.6,0-3.4,1.3-3.4,2.7c0,0.2,0,0.3,0.1,0.3
		c-0.1,0,0.6-0.6,1.4-0.6c0.9,0,1.5,0.8,1.5,1.7c0,1.2-0.9,2.2-2.1,2.2c-1.2,0-2.1-1.3-2.1-2.8c0-2.3,2.3-4.1,4.8-4.1
		c4.7,0,5.9,3.2,5.9,5.8c0,1.6-0.4,2.9-2,5.3c-1.9,3.1-6.4,5.3-8.1,5.3c-0.4,0-0.6-0.2-0.6-0.5C13.8,72.3,14.9,71.7,15.7,71z
		 M25.7,58.3c0.6,0,1,0.4,1,1s-0.4,1-1,1s-1-0.4-1-1S25.1,58.3,25.7,58.3z M25.7,63.3c0.6,0,1,0.4,1,1s-0.4,1-1,1s-1-0.4-1-1
		S25.1,63.3,25.7,63.3z"/>
</g>
<g>
	<path d="M29.5,63.4h0.6L30,69.7c0.4-0.7,1-1,1.8-1c1.2,0,2.2,0.8,2.2,1.9c0,0.8-0.5,1.8-1.7,2.7l-2.8,2.1V63.4z M30.1,70.3
		C30,71.1,30,71.7,30,72.3c0,1,0,1.6,0.1,2c1-0.7,2.4-2.6,2.4-3.7c0-0.6-0.5-1.1-1.1-1.1C30.8,69.5,30.4,69.8,30.1,70.3z"/>
</g>
<g>
	<path d="M35.1,56h0.6l-0.1,6.2c0.4-0.7,1-1,1.8-1c1.2,0,2.2,0.8,2.2,1.9c0,0.8-0.5,1.8-1.7,2.7l-2.8,2.1V56z M35.7,62.9
		c-0.1,0.8-0.1,1.4-0.1,1.9c0,1,0,1.6,0.1,2c1-0.7,2.4-2.6,2.4-3.7c0-0.6-0.5-1.1-1.1-1.1C36.4,62,36,62.3,35.7,62.9z"/>
</g>
<polygon fill-rule="evenodd" clip-rule="evenodd" points="54.8,63 102.6,58.1 102.6,55.6 54.8,60.6 "/>
<polygon fill-rule="evenodd" clip-rule="evenodd" points="54.8,59.3 102.6,54.4 102.6,51.9 54.8,56.8 "/>
<polygon fill-rule="evenodd" clip-rule="evenodd" points="112,77.9 159.8,73 159.8,70.5 112,75.4 "/>
<polygon fill-rule="evenodd" clip-rule="evenodd" points="112,81.6 159.8,76.7 159.8,74.2 112,79.2 "/>
<polygon fill-rule="evenodd" clip-rule="evenodd" points="175.7,68 223.5,63 223.5,60.6 175.7,65.5 "/>
<polygon fill-rule="evenodd" clip-rule="evenodd" points="175.7,71.7 223.5,66.8 223.5,64.3 175.7,69.2 "/>
<polygon fill-rule="evenodd" clip-rule="evenodd" points="239.4,64.3 288.6,63 288.6,60.6 239.4,61.8 "/>
<polygon fill-rule="evenodd" clip-rule="evenodd" points="239.4,68 288.6,66.8 288.6,64.3 239.4,65.5 "/>
<polygon fill-rule="evenodd" clip-rule="evenodd" points="305.5,63 353.4,68 353.4,65.5 305.5,60.6 "/>
<polygon fill-rule="evenodd" clip-rule="evenodd" points="305.5,66.8 353.4,71.7 353.4,69.2 305.5,64.3 "/>
<polygon fill-rule="evenodd" clip-rule="evenodd" points="369.2,73 416.9,77.9 416.9,75.4 369.2,70.5 "/>
<polygon fill-rule="evenodd" clip-rule="evenodd" points="369.2,76.7 416.9,81.6 416.9,79.2 369.2,74.2 "/>
<polygon fill-rule="evenodd" clip-rule="evenodd" points="439.4,58.1 487.1,63 487.1,60.6 439.4,55.6 "/>
<polygon fill-rule="evenodd" clip-rule="evenodd" points="439.4,54.4 487.1,59.3 487.1,56.8 439.4,51.9 "/>
<rect x="46.3" y="34.1" width="10.5" height="0.8"/>
<rect x="46.3" y="39.1" width="10.5" height="0.8"/>
<rect x="54.6" y="19.8" width="0.5" height="21.4"/>
<g>
	<path d="M48.1,42.8c0-1.8,2.5-3.5,4.5-3.5c1.3,0,2.3,0.7,2.3,1.7c0,1.7-2.5,3.5-4.6,3.5C49.1,44.5,48.1,43.9,48.1,42.8z"/>
</g>
<rect x="62.2" y="34.1" width="10.5" height="0.8"/>
<rect x="62.2" y="39.1" width="10.5" height="0.8"/>
<rect x="70.5" y="19.5" width="0.5" height="19.2"/>
<g>
	<path d="M64.1,40.3c0-1.8,2.5-3.5,4.5-3.5c1.3,0,2.3,0.7,2.3,1.7c0,1.7-2.5,3.5-4.6,3.5C65.1,42.1,64.1,41.4,64.1,40.3z"/>
</g>
<rect x="78.1" y="34.1" width="10.5" height="0.8"/>
<rect x="86.4" y="19" width="0.5" height="17.2"/>
<g>
	<path d="M79.9,37.9c0-1.8,2.5-3.5,4.5-3.5c1.3,0,2.3,0.7,2.3,1.7c0,1.7-2.5,3.5-4.6,3.5C80.9,39.6,79.9,38.9,79.9,37.9z"/>
</g>
<rect x="94" y="34.1" width="10.5" height="0.8"/>
<rect x="102.3" y="18.6" width="0.5" height="15.2"/>
<g>
	<path d="M95.9,35.4c0-1.8,2.5-3.5,4.5-3.5c1.3,0,2.3,0.7,2.3,1.7c0,1.7-2.5,3.5-4.6,3.5C96.9,37.1,95.9,36.5,95.9,35.4z"/>
</g>
<rect x="118.3" y="14.8" width="0.5" height="16.4"/>
<g>
	<path d="M111.9,32.9c0-1.8,2.5-3.5,4.5-3.5c1.3,0,2.3,0.7,2.3,1.7c0,1.7-2.5,3.5-4.6,3.5C112.8,34.6,111.9,34,111.9,32.9z"/>
</g>
<rect x="134.3" y="13.3" width="0.5" height="15.5"/>
<g>
	<path d="M127.8,30.4c0-1.8,2.5-3.5,4.5-3.5c1.3,0,2.3,0.7,2.3,1.7c0,1.7-2.5,3.5-4.6,3.5C128.8,32.1,127.8,31.5,127.8,30.4z"/>
</g>
<g>
	<path d="M125.9,36.3v-4l-3,1.1V22.8h0.5v4l3-1.1v10.7H125.9z M123.4,31.7l2.5-0.9v-3.3l-2.5,0.9V31.7z"/>
</g>
<rect x="150.1" y="11.6" width="0.5" height="14.7"/>
<g>
	<path d="M143.6,27.9c0-1.8,2.5-3.5,4.5-3.5c1.3,0,2.3,0.7,2.3,1.7c0,1.7-2.5,3.5-4.6,3.5C144.6,29.7,143.6,29,143.6,27.9z"/>
</g>
<g>
	<path d="M141.2,20.3v2.8l1-0.3v1.8l-1,0.3v3.4l1-0.3v1.8l-1,0.3v3.1h-0.5v-3l-1.9,0.6v3h-0.5V31l-1,0.3v-1.8l1-0.3v-3.4l-1,0.3
		v-1.8l1-0.3v-3.1h0.5v3l1.9-0.6v-3H141.2z M140.7,25l-1.9,0.6v3.4l1.9-0.6V25z"/>
</g>
<rect x="166" y="9.9" width="0.5" height="14"/>
<g>
	<path d="M159.6,25.4c0-1.8,2.5-3.5,4.5-3.5c1.3,0,2.3,0.7,2.3,1.7c0,1.7-2.5,3.5-4.6,3.5C160.6,27.2,159.6,26.5,159.6,25.4z"/>
</g>
<rect x="175.5" y="22.9" width="0.5" height="16.4"/>
<g>
	<path d="M175.6,23c0-1.8,2.5-3.5,4.5-3.5c1.3,0,2.3,0.7,2.3,1.7c0,1.7-2.5,3.5-4.6,3.5C176.5,24.7,175.6,24.1,175.6,23z"/>
</g>
<rect x="191.5" y="20.4" width="0.5" height="17.4"/>
<g>
	<path d="M191.5,20.5c0-1.8,2.5-3.5,4.5-3.5c1.3,0,2.3,0.7,2.3,1.7c0,1.7-2.5,3.5-4.6,3.5C192.5,22.2,191.5,21.6,191.5,20.5z"/>
</g>
<rect x="207.3" y="17.9" width="0.5" height="18.1"/>
<g>
	<path d="M207.3,18c0-1.8,2.5-3.5,4.5-3.5c1.3,0,2.3,0.7,2.3,1.7c0,1.7-2.5,3.5-4.6,3.5C208.3,19.7,207.3,19.1,207.3,18z"/>
</g>
<rect x="223.2" y="15.5" width="0.5" height="18.9"/>
<g>
	<path d="M223.3,15.5c0-1.8,2.5-3.5,4.5-3.5c1.3,0,2.3,0.7,2.3,1.7c0,1.7-2.5,3.5-4.6,3.5C224.3,17.3,223.3,16.6,223.3,15.5z"/>
</g>
<rect x="239.2" y="13" width="0.5" height="17.7"/>
<g>
	<path d="M239.3,13c0-1.8,2.5-3.5,4.5-3.5c1.3,0,2.3,0.7,2.3,1.7c0,1.7-2.5,3.5-4.6,3.5C240.2,14.8,239.3,14.1,239.3,13z"/>
</g>
<g>
	<path d="M237.4,19v-4l-3,1.1V5.4h0.5v4l3-1.1V19H237.4z M234.8,14.3l2.5-0.9v-3.3l-2.5,0.9V14.3z"/>
</g>
<rect x="256.6" y="10.5" width="0.5" height="19.8"/>
<g>
	<path d="M256.6,10.6c0-1.8,2.5-3.5,4.5-3.5c1.3,0,2.3,0.7,2.3,1.7c0,1.7-2.5,3.5-4.6,3.5C257.6,12.3,256.6,11.7,256.6,10.6z"/>
</g>
<g>
	<path d="M254.2,2.9v2.8l1-0.3v1.8l-1,0.3V11l1-0.3v1.8l-1,0.3v3.1h-0.5v-3l-1.9,0.6v3h-0.5v-2.8l-1,0.3v-1.8l1-0.3V8.4l-1,0.3V7
		l1-0.3V3.5h0.5v3l1.9-0.6v-3H254.2z M253.7,7.7l-1.9,0.6v3.4l1.9-0.6V7.7z"/>
</g>
<rect x="272.5" y="8" width="0.5" height="21.9"/>
<g>
	<path d="M272.6,8.1c0-1.8,2.5-3.5,4.5-3.5c1.3,0,2.3,0.7,2.3,1.7c0,1.7-2.5,3.5-4.6,3.5C273.6,9.8,272.6,9.2,272.6,8.1z"/>
</g>
<rect x="288.3" y="10.5" width="0.5" height="18.9"/>
<g>
	<path d="M288.4,10.6c0-1.8,2.5-3.5,4.5-3.5c1.3,0,2.3,0.7,2.3,1.7c0,1.7-2.5,3.5-4.6,3.5C289.4,12.3,288.4,11.7,288.4,10.6z"/>
</g>
<g>
	<path d="M286.5,16.5v-4l-3,1.1V2.9h0.5v4l3-1.1v10.7H286.5z M284,11.8l2.5-0.9V7.6L284,8.5V11.8z"/>
</g>
<rect x="305.2" y="13" width="0.5" height="16.4"/>
<g>
	<path d="M305.3,13c0-1.8,2.5-3.5,4.5-3.5c1.3,0,2.3,0.7,2.3,1.7c0,1.7-2.5,3.5-4.6,3.5C306.3,14.8,305.3,14.1,305.3,13z"/>
</g>
<g>
	<path d="M299.4,3.9h0.6l-0.1,6.2c0.4-0.7,1-1,1.8-1c1.2,0,2.2,0.8,2.2,1.9c0,0.8-0.5,1.8-1.7,2.7l-2.8,2.1V3.9z M300,10.8
		c-0.1,0.8-0.1,1.4-0.1,1.9c0,1,0,1.6,0.1,2c1-0.7,2.4-2.6,2.4-3.7c0-0.6-0.5-1.1-1.1-1.1C300.7,10,300.3,10.2,300,10.8z"/>
</g>
<rect x="321.2" y="15.5" width="0.5" height="15.5"/>
<g>
	<path d="M321.3,15.5c0-1.8,2.5-3.5,4.5-3.5c1.3,0,2.3,0.7,2.3,1.7c0,1.7-2.5,3.5-4.6,3.5C322.3,17.3,321.3,16.6,321.3,15.5z"/>
</g>
<rect x="337.2" y="17.9" width="0.5" height="14.7"/>
<g>
	<path d="M337.2,18c0-1.8,2.5-3.5,4.5-3.5c1.3,0,2.3,0.7,2.3,1.7c0,1.7-2.5,3.5-4.6,3.5C338.2,19.7,337.2,19.1,337.2,18z"/>
</g>
<rect x="353.1" y="20.4" width="0.5" height="14"/>
<g>
	<path d="M353.2,20.5c0-1.8,2.5-3.5,4.5-3.5c1.3,0,2.3,0.7,2.3,1.7c0,1.7-2.5,3.5-4.6,3.5C354.2,22.2,353.2,21.6,353.2,20.5z"/>
</g>
<rect x="375.5" y="4.9" width="0.5" height="16.4"/>
<g>
	<path d="M369,23c0-1.8,2.5-3.5,4.5-3.5c1.3,0,2.3,0.7,2.3,1.7c0,1.7-2.5,3.5-4.6,3.5C370,24.7,369,24.1,369,23z"/>
</g>
<rect x="391.4" y="6.5" width="0.5" height="17.4"/>
<g>
	<path d="M385,25.4c0-1.8,2.5-3.5,4.5-3.5c1.3,0,2.3,0.7,2.3,1.7c0,1.7-2.5,3.5-4.6,3.5C386,27.2,385,26.5,385,25.4z"/>
</g>
<rect x="407.4" y="8.2" width="0.5" height="18.1"/>
<g>
	<path d="M401,27.9c0-1.8,2.5-3.5,4.5-3.5c1.3,0,2.3,0.7,2.3,1.7c0,1.7-2.5,3.5-4.6,3.5C401.9,29.7,401,29,401,27.9z"/>
</g>
<g>
	<path d="M399,33.8v-4l-3,1.1V20.3h0.5v4l3-1.1v10.7H399z M396.5,29.2l2.5-0.9v-3.3l-2.5,0.9V29.2z"/>
</g>
<rect x="423.2" y="9.9" width="0.5" height="18.9"/>
<g>
	<path d="M416.8,30.4c0-1.8,2.5-3.5,4.5-3.5c1.3,0,2.3,0.7,2.3,1.7c0,1.7-2.5,3.5-4.6,3.5C417.7,32.1,416.8,31.5,416.8,30.4z"/>
</g>
<g>
	<path d="M410.9,21.2h0.6l-0.1,6.2c0.4-0.7,1-1,1.8-1c1.2,0,2.2,0.8,2.2,1.9c0,0.8-0.5,1.8-1.7,2.7l-2.8,2.1V21.2z M411.5,28.1
		c-0.1,0.8-0.1,1.4-0.1,1.9c0,1,0,1.6,0.1,2c1-0.7,2.4-2.6,2.4-3.7c0-0.6-0.5-1.1-1.1-1.1C412.2,27.3,411.8,27.6,411.5,28.1z"/>
</g>
<rect x="439.2" y="14.8" width="0.5" height="16.4"/>
<g>
	<path d="M432.7,32.9c0-1.8,2.5-3.5,4.5-3.5c1.3,0,2.3,0.7,2.3,1.7c0,1.7-2.5,3.5-4.6,3.5C433.7,34.6,432.7,34,432.7,32.9z"/>
</g>
<rect x="446.8" y="34.1" width="10.5" height="0.8"/>
<rect x="455.1" y="16.4" width="0.5" height="17.4"/>
<g>
	<path d="M448.7,35.4c0-1.8,2.5-3.5,4.5-3.5c1.3,0,2.3,0.7,2.3,1.7c0,1.7-2.5,3.5-4.6,3.5C449.7,37.1,448.7,36.5,448.7,35.4z"/>
</g>
<rect x="462.8" y="34.1" width="10.5" height="0.8"/>
<rect x="471.1" y="18.1" width="0.5" height="18.1"/>
<g>
	<path d="M464.7,37.9c0-1.8,2.5-3.5,4.5-3.5c1.3,0,2.3,0.7,2.3,1.7c0,1.7-2.5,3.5-4.6,3.5C465.6,39.6,464.7,38.9,464.7,37.9z"/>
</g>
<rect x="478.6" y="34.1" width="10.5" height="0.8"/>
<rect x="478.6" y="39.1" width="10.5" height="0.8"/>
<rect x="486.9" y="19.8" width="0.5" height="18.9"/>
<g>
	<path d="M480.5,40.3c0-1.8,2.5-3.5,4.5-3.5c1.3,0,2.3,0.7,2.3,1.7c0,1.7-2.5,3.5-4.6,3.5C481.5,42.1,480.5,41.4,480.5,40.3z"/>
</g>
<rect x="494.6" y="34.1" width="10.7" height="0.8"/>
<rect x="494.6" y="39.1" width="10.7" height="0.8"/>
<rect x="503" y="19.6" width="0.5" height="21.5"/>
<g>
	<path d="M500.7,39.3c1.6,0,2.7,0.7,2.7,2c0,1.9-2.3,3.4-4.5,3.4c-1.3,0-2.4-0.7-2.4-1.8C496.4,41,498.7,39.3,500.7,39.3z
		 M496.9,43.1c0,0.6,0.4,0.9,1.1,0.9c1.4,0,4.9-2.1,4.9-3.3c0-0.6-0.4-0.9-1.1-0.9C500.6,39.9,496.9,41.9,496.9,43.1z"/>
</g>
<rect x="54.6" y="57" width="0.5" height="18.9"/>
<g>
	<path d="M48.1,77.5c0-1.8,2.5-3.5,4.5-3.5c1.3,0,2.3,0.7,2.3,1.7c0,1.7-2.5,3.5-4.6,3.5C49.1,79.3,48.1,78.6,48.1,77.5z"/>
</g>
<rect x="70.5" y="55.4" width="0.5" height="18"/>
<g>
	<path d="M64.1,75.1c0-1.8,2.5-3.5,4.5-3.5c1.3,0,2.3,0.7,2.3,1.7c0,1.7-2.5,3.5-4.6,3.5C65.1,76.8,64.1,76.1,64.1,75.1z"/>
</g>
<rect x="86.4" y="53.7" width="0.5" height="17.2"/>
<g>
	<path d="M79.9,72.6c0-1.8,2.5-3.5,4.5-3.5c1.3,0,2.3,0.7,2.3,1.7c0,1.7-2.5,3.5-4.6,3.5C80.9,74.3,79.9,73.7,79.9,72.6z"/>
</g>
<rect x="102.3" y="52" width="0.5" height="16.4"/>
<g>
	<path d="M95.9,70.1c0-1.8,2.5-3.5,4.5-3.5c1.3,0,2.3,0.7,2.3,1.7c0,1.7-2.5,3.5-4.6,3.5C96.9,71.8,95.9,71.2,95.9,70.1z"/>
</g>
<rect x="111.8" y="67.5" width="0.5" height="14"/>
<g>
	<path d="M111.9,67.6c0-1.8,2.5-3.5,4.5-3.5c1.3,0,2.3,0.7,2.3,1.7c0,1.7-2.5,3.5-4.6,3.5C112.8,69.3,111.9,68.7,111.9,67.6z"/>
</g>
<rect x="127.7" y="65.1" width="0.5" height="14.9"/>
<g>
	<path d="M127.8,65.1c0-1.8,2.5-3.5,4.5-3.5c1.3,0,2.3,0.7,2.3,1.7c0,1.7-2.5,3.5-4.6,3.5C128.8,66.9,127.8,66.2,127.8,65.1z"/>
</g>
<g>
	<path d="M125.9,71v-4l-3,1.1V57.5h0.5v4l3-1.1V71H125.9z M123.4,66.4l2.5-0.9v-3.3l-2.5,0.9V66.4z"/>
</g>
<rect x="143.6" y="62.6" width="0.5" height="15.7"/>
<g>
	<path d="M143.6,62.7c0-1.8,2.5-3.5,4.5-3.5c1.3,0,2.3,0.7,2.3,1.7c0,1.7-2.5,3.5-4.6,3.5C144.6,64.4,143.6,63.7,143.6,62.7z"/>
</g>
<g>
	<path d="M141.2,55v2.8l1-0.3v1.8l-1,0.3V63l1-0.3v1.8l-1,0.3V68h-0.5v-3l-1.9,0.6v3h-0.5v-2.8l-1,0.3v-1.8l1-0.3v-3.4l-1,0.3v-1.8
		l1-0.3v-3.1h0.5v3l1.9-0.6v-3H141.2z M140.7,59.8l-1.9,0.6v3.4l1.9-0.6V59.8z"/>
</g>
<rect x="159.5" y="60.1" width="0.5" height="16.4"/>
<g>
	<path d="M159.6,60.2c0-1.8,2.5-3.5,4.5-3.5c1.3,0,2.3,0.7,2.3,1.7c0,1.7-2.5,3.5-4.6,3.5C160.6,61.9,159.6,61.3,159.6,60.2z"/>
</g>
<rect x="175.5" y="57.6" width="0.5" height="14"/>
<g>
	<path d="M175.6,57.7c0-1.8,2.5-3.5,4.5-3.5c1.3,0,2.3,0.7,2.3,1.7c0,1.7-2.5,3.5-4.6,3.5C176.5,59.4,175.6,58.8,175.6,57.7z"/>
</g>
<rect x="191.5" y="55.1" width="0.5" height="14.9"/>
<g>
	<path d="M191.5,55.2c0-1.8,2.5-3.5,4.5-3.5c1.3,0,2.3,0.7,2.3,1.7c0,1.7-2.5,3.5-4.6,3.5C192.5,56.9,191.5,56.3,191.5,55.2z"/>
</g>
<rect x="205.5" y="51.5" width="10.5" height="0.8"/>
<rect x="207.3" y="52.7" width="0.5" height="15.7"/>
<g>
	<path d="M207.3,52.7c0-1.8,2.5-3.5,4.5-3.5c1.3,0,2.3,0.7,2.3,1.7c0,1.7-2.5,3.5-4.6,3.5C208.3,54.5,207.3,53.8,207.3,52.7z"/>
</g>
<rect x="221.5" y="51.5" width="10.5" height="0.8"/>
<rect x="223.2" y="50.2" width="0.5" height="16.4"/>
<g>
	<path d="M223.3,50.3c0-1.8,2.5-3.5,4.5-3.5c1.3,0,2.3,0.7,2.3,1.7c0,1.7-2.5,3.5-4.6,3.5C224.3,52,223.3,51.3,223.3,50.3z"/>
</g>
<rect x="237.4" y="51.5" width="10.5" height="0.8"/>
<rect x="237.4" y="46.5" width="10.5" height="0.8"/>
<rect x="239.2" y="47.7" width="0.5" height="20.2"/>
<g>
	<path d="M239.3,47.8c0-1.8,2.5-3.5,4.5-3.5c1.3,0,2.3,0.7,2.3,1.7c0,1.7-2.5,3.5-4.6,3.5C240.2,49.5,239.3,48.9,239.3,47.8z"/>
</g>
<g>
	<path d="M236.1,53.7v-4l-3,1.1V40.1h0.5v4l3-1.1v10.7H236.1z M233.6,49l2.5-0.9v-3.3l-2.5,0.9V49z"/>
</g>
<rect x="254.8" y="51.5" width="10.5" height="0.8"/>
<rect x="254.8" y="46.5" width="10.5" height="0.8"/>
<rect x="256.6" y="45.2" width="0.5" height="22.3"/>
<g>
	<path d="M256.6,45.3c0-1.8,2.5-3.5,4.5-3.5c1.3,0,2.3,0.7,2.3,1.7c0,1.7-2.5,3.5-4.6,3.5C257.6,47,256.6,46.4,256.6,45.3z"/>
</g>
<g>
	<path d="M253,37.6v2.8l1-0.3v1.8l-1,0.3v3.4l1-0.3v1.8l-1,0.3v3.1h-0.5v-3l-1.9,0.6v3h-0.5v-2.8l-1,0.3v-1.8l1-0.3v-3.4l-1,0.3
		v-1.8l1-0.3v-3.1h0.5v3l1.9-0.6v-3H253z M252.5,42.4l-1.9,0.6v3.4l1.9-0.6V42.4z"/>
</g>
<rect x="270.7" y="51.5" width="10.5" height="0.8"/>
<rect x="270.7" y="46.5" width="10.5" height="0.8"/>
<rect x="270.7" y="41.6" width="10.5" height="0.8"/>
<rect x="272.5" y="42.7" width="0.5" height="24.3"/>
<g>
	<path d="M272.6,42.8c0-1.8,2.5-3.5,4.5-3.5c1.3,0,2.3,0.7,2.3,1.7c0,1.7-2.5,3.5-4.6,3.5C273.6,44.5,272.6,43.9,272.6,42.8z"/>
</g>
<rect x="286.6" y="51.5" width="10.5" height="0.8"/>
<rect x="286.6" y="46.5" width="10.5" height="0.8"/>
<rect x="288.3" y="45.2" width="0.5" height="21.4"/>
<g>
	<path d="M288.4,45.3c0-1.8,2.5-3.5,4.5-3.5c1.3,0,2.3,0.7,2.3,1.7c0,1.7-2.5,3.5-4.6,3.5C289.4,47,288.4,46.4,288.4,45.3z"/>
</g>
<g>
	<path d="M285.3,51.2v-4l-3,1.1V37.6h0.5v4l3-1.1v10.7H285.3z M282.7,46.5l2.5-0.9v-3.3l-2.5,0.9V46.5z"/>
</g>
<rect x="303.5" y="51.5" width="10.5" height="0.8"/>
<rect x="303.5" y="46.5" width="10.5" height="0.8"/>
<rect x="305.2" y="47.7" width="0.5" height="18.9"/>
<g>
	<path d="M305.3,47.8c0-1.8,2.5-3.5,4.5-3.5c1.3,0,2.3,0.7,2.3,1.7c0,1.7-2.5,3.5-4.6,3.5C306.3,49.5,305.3,48.9,305.3,47.8z"/>
</g>
<g>
	<path d="M298.2,38.6h0.6l-0.1,6.2c0.4-0.7,1-1,1.8-1c1.2,0,2.2,0.8,2.2,1.9c0,0.8-0.5,1.8-1.7,2.7l-2.8,2.1V38.6z M298.8,45.5
		c-0.1,0.8-0.1,1.4-0.1,1.9c0,1,0,1.6,0.1,2c1-0.7,2.4-2.6,2.4-3.7c0-0.6-0.5-1.1-1.1-1.1C299.5,44.7,299.1,45,298.8,45.5z"/>
</g>
<rect x="319.4" y="51.5" width="10.5" height="0.8"/>
<rect x="321.2" y="50.2" width="0.5" height="18"/>
<g>
	<path d="M321.3,50.3c0-1.8,2.5-3.5,4.5-3.5c1.3,0,2.3,0.7,2.3,1.7c0,1.7-2.5,3.5-4.6,3.5C322.3,52,321.3,51.3,321.3,50.3z"/>
</g>
<rect x="335.4" y="51.5" width="10.5" height="0.8"/>
<rect x="337.2" y="52.7" width="0.5" height="17.2"/>
<g>
	<path d="M337.2,52.7c0-1.8,2.5-3.5,4.5-3.5c1.3,0,2.3,0.7,2.3,1.7c0,1.7-2.5,3.5-4.6,3.5C338.2,54.5,337.2,53.8,337.2,52.7z"/>
</g>
<rect x="353.1" y="55.1" width="0.5" height="16.4"/>
<g>
	<path d="M353.2,55.2c0-1.8,2.5-3.5,4.5-3.5c1.3,0,2.3,0.7,2.3,1.7c0,1.7-2.5,3.5-4.6,3.5C354.2,56.9,353.2,56.3,353.2,55.2z"/>
</g>
<rect x="368.9" y="57.6" width="0.5" height="18.9"/>
<g>
	<path d="M369,57.7c0-1.8,2.5-3.5,4.5-3.5c1.3,0,2.3,0.7,2.3,1.7c0,1.7-2.5,3.5-4.6,3.5C370,59.4,369,58.8,369,57.7z"/>
</g>
<rect x="384.9" y="60.1" width="0.5" height="18"/>
<g>
	<path d="M385,60.2c0-1.8,2.5-3.5,4.5-3.5c1.3,0,2.3,0.7,2.3,1.7c0,1.7-2.5,3.5-4.6,3.5C386,61.9,385,61.3,385,60.2z"/>
</g>
<rect x="400.9" y="62.6" width="0.5" height="17.2"/>
<g>
	<path d="M401,62.7c0-1.8,2.5-3.5,4.5-3.5c1.3,0,2.3,0.7,2.3,1.7c0,1.7-2.5,3.5-4.6,3.5C401.9,64.4,401,63.7,401,62.7z"/>
</g>
<g>
	<path d="M399,68.6v-4l-3,1.1V55h0.5v4l3-1.1v10.7H399z M396.5,63.9L399,63v-3.3l-2.5,0.9V63.9z"/>
</g>
<rect x="416.7" y="65.1" width="0.5" height="16.4"/>
<g>
	<path d="M416.8,65.1c0-1.8,2.5-3.5,4.5-3.5c1.3,0,2.3,0.7,2.3,1.7c0,1.7-2.5,3.5-4.6,3.5C417.7,66.9,416.8,66.2,416.8,65.1z"/>
</g>
<g>
	<path d="M410.9,56h0.6l-0.1,6.2c0.4-0.7,1-1,1.8-1c1.2,0,2.2,0.8,2.2,1.9c0,0.8-0.5,1.8-1.7,2.7l-2.8,2.1V56z M411.5,62.9
		c-0.1,0.8-0.1,1.4-0.1,1.9c0,1,0,1.6,0.1,2c1-0.7,2.4-2.6,2.4-3.7c0-0.6-0.5-1.1-1.1-1.1C412.2,62,411.8,62.3,411.5,62.9z"/>
</g>
<rect x="439.2" y="52" width="0.5" height="14"/>
<g>
	<path d="M432.7,67.6c0-1.8,2.5-3.5,4.5-3.5c1.3,0,2.3,0.7,2.3,1.7c0,1.7-2.5,3.5-4.6,3.5C433.7,69.3,432.7,68.7,432.7,67.6z"/>
</g>
<rect x="455.1" y="53.6" width="0.5" height="14.9"/>
<g>
	<path d="M448.7,70.1c0-1.8,2.5-3.5,4.5-3.5c1.3,0,2.3,0.7,2.3,1.7c0,1.7-2.5,3.5-4.6,3.5C449.7,71.8,448.7,71.2,448.7,70.1z"/>
</g>
<rect x="471.1" y="55.3" width="0.5" height="15.7"/>
<g>
	<path d="M464.7,72.6c0-1.8,2.5-3.5,4.5-3.5c1.3,0,2.3,0.7,2.3,1.7c0,1.7-2.5,3.5-4.6,3.5C465.6,74.3,464.7,73.7,464.7,72.6z"/>
</g>
<rect x="486.9" y="57" width="0.5" height="16.4"/>
<g>
	<path d="M480.5,75.1c0-1.8,2.5-3.5,4.5-3.5c1.3,0,2.3,0.7,2.3,1.7c0,1.7-2.5,3.5-4.6,3.5C481.5,76.8,480.5,76.1,480.5,75.1z"/>
</g>
<rect x="503" y="59.3" width="0.5" height="16.6"/>
<g>
	<path d="M500.7,74c1.6,0,2.7,0.7,2.7,2c0,1.9-2.3,3.4-4.5,3.4c-1.3,0-2.4-0.7-2.4-1.8C496.4,75.8,498.7,74,500.7,74z M496.9,77.8
		c0,0.6,0.4,0.9,1.1,0.9c1.4,0,4.9-2.1,4.9-3.3c0-0.6-0.4-0.9-1.1-0.9C500.6,74.6,496.9,76.6,496.9,77.8z"/>
</g>
</svg>
