<?xml version="1.0" encoding="utf-8"?>

<!--
	ScaleBook
	Copyright (c) Leland Jansen 2015. All rights reserved.
-->

<!DOCTYPE svg PUBLIC "-//W3C//DTD SVG 1.1//EN" "http://www.w3.org/Graphics/SVG/1.1/DTD/svg11.dtd">
<svg version="1.1" id="Layer_1" xmlns="http://www.w3.org/2000/svg" xmlns:xlink="http://www.w3.org/1999/xlink" x="0px" y="0px"
	 viewBox="0 0 552.9 90.5" enable-background="new 0 0 552.9 90.5" xml:space="preserve">
<rect x="8.4" y="17.5" width="0.8" height="67"/>
<g>
	<path d="M7.4,18.1c-1.9,1.1-3.6,5.8-3.6,9.4c0,2.3,1.4,9.9,1.4,12.3c0,5-1.5,8.6-4.6,11.1c3,2.4,4.6,6.1,4.6,11.1
		c0,2.3-1.4,9.9-1.4,12.3c0,3.8,1.7,8.4,3.6,9.5v0.7c-3.5-2.3-5.8-8.2-5.8-13.1c0-2.1,1.7-9.4,1.7-11.5c0-3.8-1-6.6-2.9-8.2
		C0.1,51.4,0,51.2,0,51c0-0.2,0.1-0.4,0.5-0.7c1.9-1.7,2.9-4.2,2.9-7.6c0-2.1-1.7-10-1.7-12.2c0-5.2,2.1-10.4,5.8-13.1V18.1z"/>
</g>
<rect x="547.8" y="17.5" width="0.8" height="67"/>
<rect x="550.4" y="17.5" width="2.5" height="67"/>
<rect x="8.5" y="37.1" width="544.4" height="0.5"/>
<rect x="8.5" y="32.1" width="544.4" height="0.5"/>
<rect x="8.5" y="27.2" width="544.4" height="0.5"/>
<rect x="8.5" y="22.2" width="544.4" height="0.5"/>
<rect x="8.5" y="17.2" width="544.4" height="0.5"/>
<g>
	<path d="M20.3,37.2c-4.2,0-8.1-3.1-8.1-6.9c0-3.2,2.3-6.7,6.8-10.5c-0.3-1.2-0.4-2.4-0.4-3.6c0-3.5,1.2-6.8,3.2-8.5
		c1.8,2.5,2.7,4.9,2.7,7.1c0,2.9-1.3,5.6-4.3,8.1l0.9,4.2c0.5,0,0.8-0.1,0.8-0.1c2.6,0,4.8,2,4.8,4.7c0,1.9-1.4,3.7-3.6,4.8
		c0-0.1,0.9,3.8,0.9,4.3c0,2.5-2.3,4.2-4.9,4.2c-2,0-3.6-1.3-3.6-3.4c0-1.4,1-2.6,2.4-2.6c1.3,0,2.3,1.3,2.3,2.5
		c0,1.4-1.2,2.3-2.7,2.5c0.6,0.3,1.2,0.5,1.9,0.5c2.1,0,4.1-1.6,4.1-3.6c0-0.2,0-0.4-0.1-0.6l-0.8-3.7C21.9,37,21.2,37.2,20.3,37.2z
		 M18.1,31.9c0,1,0.5,1.9,1.6,2.5c-1.8-0.3-3-1.4-3-3.1c0-2,1.7-3.7,3.8-4.1l-0.8-4C16,26,14,28.8,14,31.4c0,2.9,2.8,5.3,6,5.3
		c0.9,0,1.7-0.2,2.4-0.5L21,29.3C19.4,29.6,18.1,30.6,18.1,31.9z M22.1,10.6c-1.6,0-2.9,3.7-2.9,7c0,0.7,0,1.3,0.2,1.9
		c2.7-2.4,4-4.5,4-6.5c0-0.9-0.3-1.7-1-2.4C22.4,10.6,22.3,10.6,22.1,10.6z M24.9,32.5c0-1.6-1.2-3.3-2.9-3.3c-0.1,0-0.2,0-0.5,0
		l1.4,6.6C24.2,34.9,24.9,33.8,24.9,32.5z"/>
</g>
<g>
	<path d="M29.5,19.1h0.6L30,25.3c0.4-0.7,1-1,1.8-1c1.2,0,2.2,0.8,2.2,1.9c0,0.8-0.5,1.8-1.7,2.7L29.5,31V19.1z M30.1,26
		C30,26.7,30,27.4,30,27.9c0,1,0,1.6,0.1,2c1-0.7,2.4-2.6,2.4-3.7c0-0.6-0.5-1.1-1.1-1.1C30.8,25.2,30.4,25.4,30.1,26z"/>
</g>
<g>
	<path d="M35.1,11.6h0.6l-0.1,6.2c0.4-0.7,1-1,1.8-1c1.2,0,2.2,0.8,2.2,1.9c0,0.8-0.5,1.8-1.7,2.7l-2.8,2.1V11.6z M35.7,18.6
		c-0.1,0.8-0.1,1.4-0.1,1.9c0,1,0,1.6,0.1,2c1-0.7,2.4-2.6,2.4-3.7c0-0.6-0.5-1.1-1.1-1.1C36.4,17.7,36,18,35.7,18.6z"/>
</g>
<g>
	<path d="M40.7,21.6h0.6l-0.1,6.2c0.4-0.7,1-1,1.8-1c1.2,0,2.2,0.8,2.2,1.9c0,0.8-0.5,1.8-1.7,2.7l-2.8,2.1V21.6z M41.3,28.5
		c-0.1,0.8-0.1,1.4-0.1,1.9c0,1,0,1.6,0.1,2c1-0.7,2.4-2.6,2.4-3.7c0-0.6-0.5-1.1-1.1-1.1C42,27.6,41.6,27.9,41.3,28.5z"/>
</g>
<polygon fill-rule="evenodd" clip-rule="evenodd" points="60.4,23.7 105.7,18.7 105.7,16.2 60.4,21.2 "/>
<polygon fill-rule="evenodd" clip-rule="evenodd" points="60.4,20 105.7,15 105.7,12.5 60.4,17.5 "/>
<polygon fill-rule="evenodd" clip-rule="evenodd" points="114.3,38.6 159.6,33.6 159.6,31.1 114.3,36.1 "/>
<polygon fill-rule="evenodd" clip-rule="evenodd" points="114.3,42.3 159.6,37.3 159.6,34.8 114.3,39.8 "/>
<polygon fill-rule="evenodd" clip-rule="evenodd" points="186,28.6 231.2,23.7 231.2,21.2 186,26.2 "/>
<polygon fill-rule="evenodd" clip-rule="evenodd" points="186,32.4 231.2,27.4 231.2,24.9 186,29.9 "/>
<polygon fill-rule="evenodd" clip-rule="evenodd" points="246.3,24.9 291.7,23.7 291.7,21.2 246.3,22.4 "/>
<polygon fill-rule="evenodd" clip-rule="evenodd" points="246.3,28.6 291.7,27.4 291.7,24.9 246.3,26.2 "/>
<polygon fill-rule="evenodd" clip-rule="evenodd" points="306.7,23.7 352,28.6 352,26.2 306.7,21.2 "/>
<polygon fill-rule="evenodd" clip-rule="evenodd" points="306.7,27.4 352,32.4 352,29.9 306.7,24.9 "/>
<polygon fill-rule="evenodd" clip-rule="evenodd" points="378.3,33.6 423.6,38.6 423.6,36.1 378.3,31.1 "/>
<polygon fill-rule="evenodd" clip-rule="evenodd" points="378.3,37.3 423.6,42.3 423.6,39.8 378.3,34.8 "/>
<polygon fill-rule="evenodd" clip-rule="evenodd" points="445.3,18.7 490.6,23.7 490.6,21.2 445.3,16.2 "/>
<polygon fill-rule="evenodd" clip-rule="evenodd" points="445.3,15 490.6,20 490.6,17.5 445.3,12.5 "/>
<rect x="8.5" y="84.2" width="544.4" height="0.5"/>
<rect x="8.5" y="79.3" width="544.4" height="0.5"/>
<rect x="8.5" y="74.3" width="544.4" height="0.5"/>
<rect x="8.5" y="69.3" width="544.4" height="0.5"/>
<rect x="8.5" y="64.4" width="544.4" height="0.5"/>
<g>
	<path d="M15.7,78.8c2.9-2.6,4.7-6.1,4.7-9.2c0-2.5-1.4-4.4-3.7-4.4c-1.6,0-3.4,1.3-3.4,2.7c0,0.2,0,0.3,0.1,0.3
		c-0.1,0,0.6-0.6,1.4-0.6c0.9,0,1.5,0.8,1.5,1.7c0,1.2-0.9,2.2-2.1,2.2c-1.2,0-2.1-1.3-2.1-2.8c0-2.3,2.3-4.1,4.8-4.1
		c4.7,0,5.9,3.2,5.9,5.8c0,1.6-0.4,2.9-2,5.3C19.1,78.7,14.6,81,13,81c-0.4,0-0.6-0.2-0.6-0.5C13.8,80.1,14.9,79.5,15.7,78.8z
		 M25.7,66.1c0.6,0,1,0.4,1,1c0,0.6-0.4,1-1,1s-1-0.4-1-1C24.7,66.5,25.1,66.1,25.7,66.1z M25.7,71c0.6,0,1,0.4,1,1c0,0.6-0.4,1-1,1
		s-1-0.4-1-1C24.7,71.5,25.1,71,25.7,71z"/>
</g>
<g>
	<path d="M29.5,71.2h0.6L30,77.4c0.4-0.7,1-1,1.8-1c1.2,0,2.2,0.8,2.2,1.9c0,0.8-0.5,1.8-1.7,2.7l-2.8,2.1V71.2z M30.1,78.1
		C30,78.8,30,79.5,30,80c0,1,0,1.6,0.1,2c1-0.7,2.4-2.6,2.4-3.7c0-0.6-0.5-1.1-1.1-1.1C30.8,77.2,30.4,77.5,30.1,78.1z"/>
</g>
<g>
	<path d="M35.1,63.7h0.6L35.6,70c0.4-0.7,1-1,1.8-1c1.2,0,2.2,0.8,2.2,1.9c0,0.8-0.5,1.8-1.7,2.7l-2.8,2.1V63.7z M35.7,70.6
		c-0.1,0.8-0.1,1.4-0.1,1.9c0,1,0,1.6,0.1,2c1-0.7,2.4-2.6,2.4-3.7c0-0.6-0.5-1.1-1.1-1.1C36.4,69.8,36,70.1,35.7,70.6z"/>
</g>
<g>
	<path d="M40.7,73.7h0.6l-0.1,6.2c0.4-0.7,1-1,1.8-1c1.2,0,2.2,0.8,2.2,1.9c0,0.8-0.5,1.8-1.7,2.7l-2.8,2.1V73.7z M41.3,80.6
		c-0.1,0.8-0.1,1.4-0.1,1.9c0,1,0,1.6,0.1,2c1-0.7,2.4-2.6,2.4-3.7c0-0.6-0.5-1.1-1.1-1.1C42,79.7,41.6,80,41.3,80.6z"/>
</g>
<polygon fill-rule="evenodd" clip-rule="evenodd" points="53.9,85.7 99.1,80.7 99.1,78.2 53.9,83.2 "/>
<polygon fill-rule="evenodd" clip-rule="evenodd" points="53.9,89.4 99.1,84.4 99.1,82 53.9,86.9 "/>
<g>
	<path d="M179.8,83.1c-3.2,0-6.1-2.3-6.1-5.1c0-2.4,1.7-5,5.1-7.9c-0.2-0.9-0.3-1.8-0.3-2.7c0-2.6,0.9-5.1,2.4-6.3
		c1.4,1.9,2,3.7,2,5.3c0,2.2-1,4.2-3.2,6.1l0.7,3.1c0.4,0,0.6,0,0.6,0c2,0,3.6,1.5,3.6,3.5c0,1.4-1.1,2.8-2.7,3.6
		c0-0.1,0.6,2.8,0.6,3.3c0,1.9-1.7,3.2-3.7,3.2c-1.5,0-2.7-1-2.7-2.5c0-1.1,0.7-1.9,1.8-1.9c1,0,1.7,1,1.7,1.9c0,1-0.9,1.7-2,1.8
		c0.4,0.2,0.9,0.3,1.4,0.3c1.6,0,3.1-1.2,3.1-2.7c0-0.1,0-0.3,0-0.5l-0.6-2.8C181,83,180.5,83.1,179.8,83.1z M178.1,79.2
		c0,0.8,0.4,1.4,1.2,1.9c-1.3-0.2-2.2-1.1-2.2-2.3c0-1.5,1.3-2.8,2.9-3.1l-0.6-3c-2.8,2.1-4.3,4.1-4.3,6.1c0,2.2,2.1,4,4.5,4
		c0.7,0,1.3-0.1,1.8-0.4l-1.1-5.1C179.1,77.4,178.1,78.1,178.1,79.2z M181.2,63.2c-1.2,0-2.2,2.8-2.2,5.3c0,0.5,0,1,0.1,1.4
		c2-1.8,3-3.4,3-4.9c0-0.7-0.3-1.3-0.7-1.8C181.4,63.2,181.3,63.2,181.2,63.2z M183.2,79.6c0-1.2-0.9-2.4-2.2-2.4c0,0-0.2,0-0.4,0
		l1.1,5C182.7,81.4,183.2,80.6,183.2,79.6z"/>
</g>
<polygon fill-rule="evenodd" clip-rule="evenodd" points="114.3,75.8 159.6,70.8 159.6,68.3 114.3,73.3 "/>
<polygon fill-rule="evenodd" clip-rule="evenodd" points="114.3,79.5 159.6,74.5 159.6,72 114.3,77 "/>
<polygon fill-rule="evenodd" clip-rule="evenodd" points="192.5,70.8 237.7,65.8 237.7,63.4 192.5,68.3 "/>
<polygon fill-rule="evenodd" clip-rule="evenodd" points="192.5,67.1 237.7,62.1 237.7,59.6 192.5,64.6 "/>
<polygon fill-rule="evenodd" clip-rule="evenodd" points="246.3,86.9 291.7,85.7 291.7,83.2 246.3,84.4 "/>
<polygon fill-rule="evenodd" clip-rule="evenodd" points="246.3,90.6 291.7,89.4 291.7,86.9 246.3,88.2 "/>
<g>
	<path d="M366.9,76.5c2.2-2,3.6-4.6,3.6-6.9c0-1.9-1.1-3.3-2.8-3.3c-1.2,0-2.5,1-2.5,2.1c0,0.2,0,0.2,0.1,0.2c0,0,0.4-0.5,1-0.5
		c0.7,0,1.2,0.6,1.2,1.3c0,0.9-0.6,1.7-1.6,1.7s-1.5-1-1.5-2.1c0-1.8,1.7-3.1,3.6-3.1c3.5,0,4.4,2.4,4.4,4.4c0,1.2-0.3,2.2-1.5,4
		c-1.4,2.3-4.8,4-6,4c-0.3,0-0.5-0.1-0.5-0.3C365.4,77.4,366.3,77,366.9,76.5z M374.3,67c0.4,0,0.7,0.3,0.7,0.7
		c0,0.4-0.3,0.7-0.7,0.7c-0.4,0-0.7-0.3-0.7-0.7C373.6,67.3,373.9,67,374.3,67z M374.3,70.7c0.4,0,0.7,0.3,0.7,0.7s-0.3,0.7-0.7,0.7
		c-0.4,0-0.7-0.3-0.7-0.7S373.9,70.7,374.3,70.7z"/>
</g>
<polygon fill-rule="evenodd" clip-rule="evenodd" points="313.2,60.9 358.5,65.8 358.5,63.4 313.2,58.4 "/>
<polygon fill-rule="evenodd" clip-rule="evenodd" points="313.2,57.2 358.5,62.1 358.5,59.6 313.2,54.7 "/>
<polygon fill-rule="evenodd" clip-rule="evenodd" points="378.3,70.8 423.6,72 423.6,69.6 378.3,68.3 "/>
<polygon fill-rule="evenodd" clip-rule="evenodd" points="378.3,74.5 423.6,75.8 423.6,73.3 378.3,72 "/>
<polygon fill-rule="evenodd" clip-rule="evenodd" points="438.8,75.8 484,80.7 484,78.2 438.8,73.3 "/>
<polygon fill-rule="evenodd" clip-rule="evenodd" points="438.8,79.5 484,84.4 484,82 438.8,77 "/>
<rect x="60.2" y="17.6" width="0.5" height="18.9"/>
<g>
	<path d="M53.7,38.2c0-1.8,2.5-3.5,4.5-3.5c1.3,0,2.3,0.7,2.3,1.7c0,1.7-2.5,3.5-4.6,3.5C54.7,39.9,53.7,39.3,53.7,38.2z"/>
</g>
<rect x="75.2" y="16.1" width="0.5" height="18"/>
<g>
	<path d="M68.8,35.7c0-1.8,2.5-3.5,4.5-3.5c1.3,0,2.3,0.7,2.3,1.7c0,1.7-2.5,3.5-4.6,3.5C69.7,37.4,68.8,36.8,68.8,35.7z"/>
</g>
<rect x="90.4" y="14.4" width="0.5" height="17.2"/>
<g>
	<path d="M84,33.2c0-1.8,2.5-3.5,4.5-3.5c1.3,0,2.3,0.7,2.3,1.7c0,1.7-2.5,3.5-4.6,3.5C84.9,34.9,84,34.3,84,33.2z"/>
</g>
<rect x="105.4" y="12.7" width="0.5" height="16.4"/>
<g>
	<path d="M99,30.7c0-1.8,2.5-3.5,4.5-3.5c1.3,0,2.3,0.7,2.3,1.7c0,1.7-2.5,3.5-4.6,3.5C100,32.5,99,31.8,99,30.7z"/>
</g>
<rect x="114.1" y="28.2" width="0.5" height="14"/>
<g>
	<path d="M114.2,28.3c0-1.8,2.5-3.5,4.5-3.5c1.3,0,2.3,0.7,2.3,1.7c0,1.7-2.5,3.5-4.6,3.5C115.2,30,114.2,29.3,114.2,28.3z"/>
</g>
<rect x="129.1" y="25.7" width="0.5" height="14.9"/>
<g>
	<path d="M129.2,25.8c0-1.8,2.5-3.5,4.5-3.5c1.3,0,2.3,0.7,2.3,1.7c0,1.7-2.5,3.5-4.6,3.5C130.2,27.5,129.2,26.9,129.2,25.8z"/>
</g>
<rect x="144.2" y="23.2" width="0.5" height="15.7"/>
<g>
	<path d="M144.3,23.3c0-1.8,2.5-3.5,4.5-3.5c1.3,0,2.3,0.7,2.3,1.7c0,1.7-2.5,3.5-4.6,3.5C145.2,25,144.3,24.4,144.3,23.3z"/>
</g>
<rect x="159.4" y="20.7" width="0.5" height="16.4"/>
<g>
	<path d="M159.4,20.8c0-1.8,2.5-3.5,4.5-3.5c1.3,0,2.3,0.7,2.3,1.7c0,1.7-2.5,3.5-4.6,3.5C160.4,22.5,159.4,21.9,159.4,20.8z"/>
</g>
<rect x="185.7" y="18.3" width="0.5" height="14"/>
<g>
	<path d="M185.8,18.3c0-1.8,2.5-3.5,4.5-3.5c1.3,0,2.3,0.7,2.3,1.7c0,1.7-2.5,3.5-4.6,3.5C186.8,20.1,185.8,19.4,185.8,18.3z"/>
</g>
<rect x="200.8" y="15.8" width="0.5" height="14.9"/>
<g>
	<path d="M200.8,15.9c0-1.8,2.5-3.5,4.5-3.5c1.3,0,2.3,0.7,2.3,1.7c0,1.7-2.5,3.5-4.6,3.5C201.8,17.6,200.8,16.9,200.8,15.9z"/>
</g>
<rect x="214.2" y="12.1" width="10.5" height="0.8"/>
<rect x="215.9" y="13.3" width="0.5" height="15.7"/>
<g>
	<path d="M216,13.4c0-1.8,2.5-3.5,4.5-3.5c1.3,0,2.3,0.7,2.3,1.7c0,1.7-2.5,3.5-4.6,3.5C217,15.1,216,14.5,216,13.4z"/>
</g>
<rect x="229.2" y="12.1" width="10.5" height="0.8"/>
<rect x="231" y="10.8" width="0.5" height="16.4"/>
<g>
	<path d="M231.1,10.9c0-1.8,2.5-3.5,4.5-3.5c1.3,0,2.3,0.7,2.3,1.7c0,1.7-2.5,3.5-4.6,3.5C232,12.6,231.1,12,231.1,10.9z"/>
</g>
<rect x="244.2" y="12.1" width="10.5" height="0.8"/>
<rect x="244.2" y="7.2" width="10.5" height="0.8"/>
<rect x="246" y="8.3" width="0.5" height="20.2"/>
<g>
	<path d="M246.1,8.4c0-1.8,2.5-3.5,4.5-3.5c1.3,0,2.3,0.7,2.3,1.7c0,1.7-2.5,3.5-4.6,3.5C247.1,10.1,246.1,9.5,246.1,8.4z"/>
</g>
<rect x="259.4" y="12.1" width="10.5" height="0.8"/>
<rect x="259.4" y="7.2" width="10.5" height="0.8"/>
<rect x="261.2" y="5.9" width="0.5" height="22.3"/>
<g>
	<path d="M261.3,5.9c0-1.8,2.5-3.5,4.5-3.5c1.3,0,2.3,0.7,2.3,1.7c0,1.7-2.5,3.5-4.6,3.5C262.3,7.7,261.3,7,261.3,5.9z"/>
</g>
<rect x="274.5" y="12.1" width="10.5" height="0.8"/>
<rect x="274.5" y="7.2" width="10.5" height="0.8"/>
<rect x="274.5" y="2.2" width="10.5" height="0.8"/>
<rect x="276.2" y="3.4" width="0.5" height="24.3"/>
<g>
	<path d="M276.3,3.5c0-1.8,2.5-3.5,4.5-3.5c1.3,0,2.3,0.7,2.3,1.7c0,1.7-2.5,3.5-4.6,3.5C277.3,5.2,276.3,4.5,276.3,3.5z"/>
</g>
<rect x="289.7" y="12.1" width="10.5" height="0.8"/>
<rect x="289.7" y="7.2" width="10.5" height="0.8"/>
<rect x="291.4" y="5.9" width="0.5" height="21.4"/>
<g>
	<path d="M291.5,5.9c0-1.8,2.5-3.5,4.5-3.5c1.3,0,2.3,0.7,2.3,1.7c0,1.7-2.5,3.5-4.6,3.5C292.5,7.7,291.5,7,291.5,5.9z"/>
</g>
<rect x="304.7" y="12.1" width="10.5" height="0.8"/>
<rect x="304.7" y="7.2" width="10.5" height="0.8"/>
<rect x="306.5" y="8.3" width="0.5" height="18.9"/>
<g>
	<path d="M306.6,8.4c0-1.8,2.5-3.5,4.5-3.5c1.3,0,2.3,0.7,2.3,1.7c0,1.7-2.5,3.5-4.6,3.5C307.5,10.1,306.6,9.5,306.6,8.4z"/>
</g>
<rect x="319.7" y="12.1" width="10.5" height="0.8"/>
<rect x="321.5" y="10.8" width="0.5" height="18"/>
<g>
	<path d="M321.6,10.9c0-1.8,2.5-3.5,4.5-3.5c1.3,0,2.3,0.7,2.3,1.7c0,1.7-2.5,3.5-4.6,3.5C322.6,12.6,321.6,12,321.6,10.9z"/>
</g>
<rect x="334.9" y="12.1" width="10.5" height="0.8"/>
<rect x="336.7" y="13.3" width="0.5" height="17.2"/>
<g>
	<path d="M336.8,13.4c0-1.8,2.5-3.5,4.5-3.5c1.3,0,2.3,0.7,2.3,1.7c0,1.7-2.5,3.5-4.6,3.5C337.8,15.1,336.8,14.5,336.8,13.4z"/>
</g>
<rect x="351.7" y="15.8" width="0.5" height="16.4"/>
<g>
	<path d="M351.8,15.9c0-1.8,2.5-3.5,4.5-3.5c1.3,0,2.3,0.7,2.3,1.7c0,1.7-2.5,3.5-4.6,3.5C352.8,17.6,351.8,16.9,351.8,15.9z"/>
</g>
<rect x="378.1" y="18.3" width="0.5" height="18.9"/>
<g>
	<path d="M378.2,18.3c0-1.8,2.5-3.5,4.5-3.5c1.3,0,2.3,0.7,2.3,1.7c0,1.7-2.5,3.5-4.6,3.5C379.1,20.1,378.2,19.4,378.2,18.3z"/>
</g>
<rect x="393.3" y="20.7" width="0.5" height="18"/>
<g>
	<path d="M393.4,20.8c0-1.8,2.5-3.5,4.5-3.5c1.3,0,2.3,0.7,2.3,1.7c0,1.7-2.5,3.5-4.6,3.5C394.3,22.5,393.4,21.9,393.4,20.8z"/>
</g>
<rect x="408.3" y="23.2" width="0.5" height="17.2"/>
<g>
	<path d="M408.4,23.3c0-1.8,2.5-3.5,4.5-3.5c1.3,0,2.3,0.7,2.3,1.7c0,1.7-2.5,3.5-4.6,3.5C409.4,25,408.4,24.4,408.4,23.3z"/>
</g>
<rect x="423.4" y="25.7" width="0.5" height="16.4"/>
<g>
	<path d="M423.4,25.8c0-1.8,2.5-3.5,4.5-3.5c1.3,0,2.3,0.7,2.3,1.7c0,1.7-2.5,3.5-4.6,3.5C424.4,27.5,423.4,26.9,423.4,25.8z"/>
</g>
<rect x="445.1" y="12.7" width="0.5" height="14"/>
<g>
	<path d="M438.6,28.3c0-1.8,2.5-3.5,4.5-3.5c1.3,0,2.3,0.7,2.3,1.7c0,1.7-2.5,3.5-4.6,3.5C439.6,30,438.6,29.3,438.6,28.3z"/>
</g>
<rect x="460.1" y="14.2" width="0.5" height="14.9"/>
<g>
	<path d="M453.7,30.7c0-1.8,2.5-3.5,4.5-3.5c1.3,0,2.3,0.7,2.3,1.7c0,1.7-2.5,3.5-4.6,3.5C454.6,32.5,453.7,31.8,453.7,30.7z"/>
</g>
<rect x="475.3" y="15.9" width="0.5" height="15.7"/>
<g>
	<path d="M468.9,33.2c0-1.8,2.5-3.5,4.5-3.5c1.3,0,2.3,0.7,2.3,1.7c0,1.7-2.5,3.5-4.6,3.5C469.8,34.9,468.9,34.3,468.9,33.2z"/>
</g>
<rect x="490.3" y="17.6" width="0.5" height="16.4"/>
<g>
	<path d="M483.9,35.7c0-1.8,2.5-3.5,4.5-3.5c1.3,0,2.3,0.7,2.3,1.7c0,1.7-2.5,3.5-4.6,3.5C484.9,37.4,483.9,36.8,483.9,35.7z"/>
</g>
<rect x="505.7" y="20" width="0.5" height="16.6"/>
<g>
	<path d="M503.3,34.6c1.6,0,2.7,0.7,2.7,2c0,1.9-2.3,3.4-4.5,3.4c-1.3,0-2.4-0.7-2.4-1.8C499.1,36.4,501.3,34.6,503.3,34.6z
		 M499.5,38.5c0,0.6,0.4,0.9,1.1,0.9c1.4,0,4.9-2.1,4.9-3.3c0-0.6-0.4-0.9-1.1-0.9C503.2,35.2,499.5,37.2,499.5,38.5z"/>
</g>
<rect x="53.6" y="72.8" width="0.5" height="16.4"/>
<g>
	<path d="M53.7,72.9c0-1.8,2.5-3.5,4.5-3.5c1.3,0,2.3,0.7,2.3,1.7c0,1.7-2.5,3.5-4.6,3.5C54.7,74.6,53.7,74,53.7,72.9z"/>
</g>
<rect x="68.7" y="70.3" width="0.5" height="17.4"/>
<g>
	<path d="M68.8,70.4c0-1.8,2.5-3.5,4.5-3.5c1.3,0,2.3,0.7,2.3,1.7c0,1.7-2.5,3.5-4.6,3.5C69.7,72.1,68.8,71.5,68.8,70.4z"/>
</g>
<rect x="83.9" y="67.9" width="0.5" height="18.1"/>
<g>
	<path d="M84,67.9c0-1.8,2.5-3.5,4.5-3.5c1.3,0,2.3,0.7,2.3,1.7c0,1.7-2.5,3.5-4.6,3.5C84.9,69.7,84,69,84,67.9z"/>
</g>
<rect x="98.9" y="65.4" width="0.5" height="18.9"/>
<g>
	<path d="M99,65.5c0-1.8,2.5-3.5,4.5-3.5c1.3,0,2.3,0.7,2.3,1.7c0,1.7-2.5,3.5-4.6,3.5C100,67.2,99,66.5,99,65.5z"/>
</g>
<rect x="114.1" y="62.9" width="0.5" height="16.4"/>
<g>
	<path d="M114.2,63c0-1.8,2.5-3.5,4.5-3.5c1.3,0,2.3,0.7,2.3,1.7c0,1.7-2.5,3.5-4.6,3.5C115.2,64.7,114.2,64.1,114.2,63z"/>
</g>
<rect x="127.4" y="59.3" width="10.5" height="0.8"/>
<rect x="129.1" y="60.4" width="0.5" height="17.4"/>
<g>
	<path d="M129.2,60.5c0-1.8,2.5-3.5,4.5-3.5c1.3,0,2.3,0.7,2.3,1.7c0,1.7-2.5,3.5-4.6,3.5C130.2,62.2,129.2,61.6,129.2,60.5z"/>
</g>
<rect x="142.4" y="59.3" width="10.5" height="0.8"/>
<rect x="144.2" y="57.9" width="0.5" height="18.1"/>
<g>
	<path d="M144.3,58c0-1.8,2.5-3.5,4.5-3.5c1.3,0,2.3,0.7,2.3,1.7c0,1.7-2.5,3.5-4.6,3.5C145.2,59.7,144.3,59.1,144.3,58z"/>
</g>
<rect x="157.6" y="59.3" width="10.5" height="0.8"/>
<rect x="157.6" y="54.3" width="10.5" height="0.8"/>
<rect x="159.4" y="55.5" width="0.5" height="18.9"/>
<g>
	<path d="M159.4,55.5c0-1.8,2.5-3.5,4.5-3.5c1.3,0,2.3,0.7,2.3,1.7c0,1.7-2.5,3.5-4.6,3.5C160.4,57.3,159.4,56.6,159.4,55.5z"/>
</g>
<rect x="192.2" y="64.8" width="0.5" height="16.4"/>
<g>
	<path d="M185.8,82.8c0-1.8,2.5-3.5,4.5-3.5c1.3,0,2.3,0.7,2.3,1.7c0,1.7-2.5,3.5-4.6,3.5C186.8,84.5,185.8,83.9,185.8,82.8z"/>
</g>
<rect x="207.3" y="63.2" width="0.5" height="15.5"/>
<g>
	<path d="M200.8,80.3c0-1.8,2.5-3.5,4.5-3.5c1.3,0,2.3,0.7,2.3,1.7c0,1.7-2.5,3.5-4.6,3.5C201.8,82.1,200.8,81.4,200.8,80.3z"/>
</g>
<rect x="222.5" y="61.5" width="0.5" height="14.7"/>
<g>
	<path d="M216,77.9c0-1.8,2.5-3.5,4.5-3.5c1.3,0,2.3,0.7,2.3,1.7c0,1.7-2.5,3.5-4.6,3.5C217,79.6,216,78.9,216,77.9z"/>
</g>
<rect x="237.5" y="59.8" width="0.5" height="14"/>
<g>
	<path d="M231.1,75.4c0-1.8,2.5-3.5,4.5-3.5c1.3,0,2.3,0.7,2.3,1.7c0,1.7-2.5,3.5-4.6,3.5C232,77.1,231.1,76.5,231.1,75.4z"/>
</g>
<rect x="246" y="72.8" width="0.5" height="17.7"/>
<g>
	<path d="M246.1,72.9c0-1.8,2.5-3.5,4.5-3.5c1.3,0,2.3,0.7,2.3,1.7c0,1.7-2.5,3.5-4.6,3.5C247.1,74.6,246.1,74,246.1,72.9z"/>
</g>
<rect x="261.2" y="70.3" width="0.5" height="19.8"/>
<g>
	<path d="M261.3,70.4c0-1.8,2.5-3.5,4.5-3.5c1.3,0,2.3,0.7,2.3,1.7c0,1.7-2.5,3.5-4.6,3.5C262.3,72.1,261.3,71.5,261.3,70.4z"/>
</g>
<rect x="276.2" y="67.9" width="0.5" height="21.9"/>
<g>
	<path d="M276.3,67.9c0-1.8,2.5-3.5,4.5-3.5c1.3,0,2.3,0.7,2.3,1.7c0,1.7-2.5,3.5-4.6,3.5C277.3,69.7,276.3,69,276.3,67.9z"/>
</g>
<rect x="291.4" y="70.3" width="0.5" height="18.9"/>
<g>
	<path d="M291.5,70.4c0-1.8,2.5-3.5,4.5-3.5c1.3,0,2.3,0.7,2.3,1.7c0,1.7-2.5,3.5-4.6,3.5C292.5,72.1,291.5,71.5,291.5,70.4z"/>
</g>
<rect x="313" y="54.8" width="0.5" height="16.4"/>
<g>
	<path d="M306.6,72.9c0-1.8,2.5-3.5,4.5-3.5c1.3,0,2.3,0.7,2.3,1.7c0,1.7-2.5,3.5-4.6,3.5C307.5,74.6,306.6,74,306.6,72.9z"/>
</g>
<rect x="328" y="56.4" width="0.5" height="17.4"/>
<g>
	<path d="M321.6,75.4c0-1.8,2.5-3.5,4.5-3.5c1.3,0,2.3,0.7,2.3,1.7c0,1.7-2.5,3.5-4.6,3.5C322.6,77.1,321.6,76.5,321.6,75.4z"/>
</g>
<rect x="343.2" y="58.1" width="0.5" height="18.1"/>
<g>
	<path d="M336.8,77.9c0-1.8,2.5-3.5,4.5-3.5c1.3,0,2.3,0.7,2.3,1.7c0,1.7-2.5,3.5-4.6,3.5C337.8,79.6,336.8,78.9,336.8,77.9z"/>
</g>
<rect x="358.3" y="59.8" width="0.5" height="18.9"/>
<g>
	<path d="M351.8,80.3c0-1.8,2.5-3.5,4.5-3.5c1.3,0,2.3,0.7,2.3,1.7c0,1.7-2.5,3.5-4.6,3.5C352.8,82.1,351.8,81.4,351.8,80.3z"/>
</g>
<rect x="376.3" y="59.3" width="10.5" height="0.8"/>
<rect x="376.3" y="54.3" width="10.5" height="0.8"/>
<rect x="378.1" y="53" width="0.5" height="21.4"/>
<g>
	<path d="M378.2,53.1c0-1.8,2.5-3.5,4.5-3.5c1.3,0,2.3,0.7,2.3,1.7c0,1.7-2.5,3.5-4.6,3.5C379.1,54.8,378.2,54.1,378.2,53.1z"/>
</g>
<rect x="391.5" y="59.3" width="10.5" height="0.8"/>
<rect x="391.5" y="54.3" width="10.5" height="0.8"/>
<rect x="393.3" y="55.5" width="0.5" height="19.2"/>
<g>
	<path d="M393.4,55.5c0-1.8,2.5-3.5,4.5-3.5c1.3,0,2.3,0.7,2.3,1.7c0,1.7-2.5,3.5-4.6,3.5C394.3,57.3,393.4,56.6,393.4,55.5z"/>
</g>
<rect x="406.5" y="59.3" width="10.5" height="0.8"/>
<rect x="408.3" y="57.9" width="0.5" height="17.2"/>
<g>
	<path d="M408.4,58c0-1.8,2.5-3.5,4.5-3.5c1.3,0,2.3,0.7,2.3,1.7c0,1.7-2.5,3.5-4.6,3.5C409.4,59.7,408.4,59.1,408.4,58z"/>
</g>
<rect x="421.6" y="59.3" width="10.5" height="0.8"/>
<rect x="423.4" y="60.4" width="0.5" height="15.2"/>
<g>
	<path d="M423.4,60.5c0-1.8,2.5-3.5,4.5-3.5c1.3,0,2.3,0.7,2.3,1.7c0,1.7-2.5,3.5-4.6,3.5C424.4,62.2,423.4,61.6,423.4,60.5z"/>
</g>
<rect x="438.5" y="62.9" width="0.5" height="16.4"/>
<g>
	<path d="M438.6,63c0-1.8,2.5-3.5,4.5-3.5c1.3,0,2.3,0.7,2.3,1.7c0,1.7-2.5,3.5-4.6,3.5C439.6,64.7,438.6,64.1,438.6,63z"/>
</g>
<rect x="453.6" y="65.4" width="0.5" height="15.5"/>
<g>
	<path d="M453.7,65.5c0-1.8,2.5-3.5,4.5-3.5c1.3,0,2.3,0.7,2.3,1.7c0,1.7-2.5,3.5-4.6,3.5C454.6,67.2,453.7,66.5,453.7,65.5z"/>
</g>
<rect x="468.8" y="67.9" width="0.5" height="14.7"/>
<g>
	<path d="M468.9,67.9c0-1.8,2.5-3.5,4.5-3.5c1.3,0,2.3,0.7,2.3,1.7c0,1.7-2.5,3.5-4.6,3.5C469.8,69.7,468.9,69,468.9,67.9z"/>
</g>
<rect x="483.8" y="70.3" width="0.5" height="14"/>
<g>
	<path d="M483.9,70.4c0-1.8,2.5-3.5,4.5-3.5c1.3,0,2.3,0.7,2.3,1.7c0,1.7-2.5,3.5-4.6,3.5C484.9,72.1,483.9,71.5,483.9,70.4z"/>
</g>
<rect x="499" y="72.8" width="0.5" height="16.6"/>
<g>
	<path d="M503.3,69.3c1.6,0,2.7,0.7,2.7,2c0,1.9-2.3,3.4-4.5,3.4c-1.3,0-2.4-0.7-2.4-1.8C499.1,71.1,501.3,69.3,503.3,69.3z
		 M499.5,73.2c0,0.6,0.4,0.9,1.1,0.9c1.4,0,4.9-2.1,4.9-3.3c0-0.6-0.4-0.9-1.1-0.9C503.2,69.9,499.5,72,499.5,73.2z"/>
</g>
</svg>
