<?xml version="1.0" encoding="utf-8"?>

<!--
	ScaleBook
	Copyright (c) Leland Jansen 2015. All rights reserved.
-->

<!DOCTYPE svg PUBLIC "-//W3C//DTD SVG 1.1//EN" "http://www.w3.org/Graphics/SVG/1.1/DTD/svg11.dtd">
<svg version="1.1" id="Layer_1" xmlns="http://www.w3.org/2000/svg" xmlns:xlink="http://www.w3.org/1999/xlink" x="0px" y="0px"
	 viewBox="0 0 552.9 96.8" enable-background="new 0 0 552.9 96.8" xml:space="preserve">
<rect x="8.4" y="20" width="0.8" height="67"/>
<g>
	<path d="M7.4,20.6c-1.9,1.1-3.6,5.8-3.6,9.4c0,2.3,1.4,9.9,1.4,12.3c0,5-1.5,8.6-4.6,11.1c3,2.4,4.6,6.1,4.6,11.1
		c0,2.3-1.4,9.9-1.4,12.3c0,3.8,1.7,8.4,3.6,9.5v0.7c-3.5-2.3-5.8-8.2-5.8-13.1c0-2.1,1.7-9.4,1.7-11.5c0-3.8-1-6.6-2.9-8.2
		C0.1,53.8,0,53.6,0,53.4c0-0.2,0.1-0.4,0.5-0.7c1.9-1.7,2.9-4.2,2.9-7.6c0-2.1-1.7-10-1.7-12.2c0-5.2,2.1-10.4,5.8-13.1V20.6z"/>
</g>
<rect x="547.8" y="20" width="0.8" height="67"/>
<rect x="550.4" y="20" width="2.5" height="67"/>
<rect x="8.5" y="39.6" width="544.4" height="0.5"/>
<rect x="8.5" y="34.6" width="544.4" height="0.5"/>
<rect x="8.5" y="29.6" width="544.4" height="0.5"/>
<rect x="8.5" y="24.7" width="544.4" height="0.5"/>
<rect x="8.5" y="19.7" width="544.4" height="0.5"/>
<g>
	<path d="M20.3,39.6c-4.2,0-8.1-3.1-8.1-6.9c0-3.2,2.3-6.7,6.8-10.5c-0.3-1.2-0.4-2.4-0.4-3.6c0-3.5,1.2-6.8,3.2-8.5
		c1.8,2.5,2.7,4.9,2.7,7.1c0,2.9-1.3,5.6-4.3,8.1l0.9,4.2c0.5,0,0.8-0.1,0.8-0.1c2.6,0,4.8,2,4.8,4.7c0,1.9-1.4,3.7-3.6,4.8
		c0-0.1,0.9,3.8,0.9,4.3c0,2.5-2.3,4.2-4.9,4.2c-2,0-3.6-1.3-3.6-3.4c0-1.4,1-2.6,2.4-2.6c1.3,0,2.3,1.3,2.3,2.5
		c0,1.4-1.2,2.3-2.7,2.5c0.6,0.3,1.2,0.5,1.9,0.5c2.1,0,4.1-1.6,4.1-3.6c0-0.2,0-0.4-0.1-0.6l-0.8-3.7
		C21.9,39.5,21.2,39.6,20.3,39.6z M18.1,34.4c0,1,0.5,1.9,1.6,2.5c-1.8-0.3-3-1.4-3-3.1c0-2,1.7-3.7,3.8-4.1l-0.8-4
		C16,28.5,14,31.2,14,33.9c0,2.9,2.8,5.3,6,5.3c0.9,0,1.7-0.2,2.4-0.5L21,31.8C19.4,32,18.1,33.1,18.1,34.4z M22.1,13.1
		c-1.6,0-2.9,3.7-2.9,7c0,0.7,0,1.3,0.2,1.9c2.7-2.4,4-4.5,4-6.5c0-0.9-0.3-1.7-1-2.4C22.4,13.1,22.3,13.1,22.1,13.1z M24.9,35
		c0-1.6-1.2-3.3-2.9-3.3c-0.1,0-0.2,0-0.5,0l1.4,6.6C24.2,37.4,24.9,36.3,24.9,35z"/>
</g>
<g>
	<path d="M29.5,21.6h0.6L30,27.8c0.4-0.7,1-1,1.8-1c1.2,0,2.2,0.8,2.2,1.9c0,0.8-0.5,1.8-1.7,2.7l-2.8,2.1V21.6z M30.1,28.5
		C30,29.2,30,29.9,30,30.4c0,1,0,1.6,0.1,2c1-0.7,2.4-2.6,2.4-3.7c0-0.6-0.5-1.1-1.1-1.1C30.8,27.6,30.4,27.9,30.1,28.5z"/>
</g>
<polygon fill-rule="evenodd" clip-rule="evenodd" points="49.2,26.2 95.7,21.2 95.7,18.7 49.2,23.7 "/>
<polygon fill-rule="evenodd" clip-rule="evenodd" points="49.2,22.4 95.7,17.5 95.7,15 49.2,20 "/>
<polygon fill-rule="evenodd" clip-rule="evenodd" points="104.7,41 151.1,36.1 151.1,33.6 104.7,38.6 "/>
<polygon fill-rule="evenodd" clip-rule="evenodd" points="104.7,44.8 151.1,39.8 151.1,37.3 104.7,42.3 "/>
<polygon fill-rule="evenodd" clip-rule="evenodd" points="177.4,31.1 223.9,26.2 223.9,23.7 177.4,28.6 "/>
<polygon fill-rule="evenodd" clip-rule="evenodd" points="177.4,34.8 223.9,29.9 223.9,27.4 177.4,32.4 "/>
<polygon fill-rule="evenodd" clip-rule="evenodd" points="239.4,27.4 285.8,26.2 285.8,23.7 239.4,24.9 "/>
<polygon fill-rule="evenodd" clip-rule="evenodd" points="239.4,31.1 285.8,29.9 285.8,27.4 239.4,28.6 "/>
<polygon fill-rule="evenodd" clip-rule="evenodd" points="301.3,26.2 347.8,27.4 347.8,24.9 301.3,23.7 "/>
<polygon fill-rule="evenodd" clip-rule="evenodd" points="301.3,29.9 347.8,31.1 347.8,28.6 301.3,27.4 "/>
<polygon fill-rule="evenodd" clip-rule="evenodd" points="374.1,31.1 420.6,36.1 420.6,33.6 374.1,28.6 "/>
<polygon fill-rule="evenodd" clip-rule="evenodd" points="374.1,34.8 420.6,39.8 420.6,37.3 374.1,32.4 "/>
<polygon fill-rule="evenodd" clip-rule="evenodd" points="442.5,16.2 489,21.2 489,18.7 442.5,13.8 "/>
<polygon fill-rule="evenodd" clip-rule="evenodd" points="442.5,12.5 489,17.5 489,15 442.5,10 "/>
<rect x="8.5" y="86.7" width="544.4" height="0.5"/>
<rect x="8.5" y="81.7" width="544.4" height="0.5"/>
<rect x="8.5" y="76.8" width="544.4" height="0.5"/>
<rect x="8.5" y="71.8" width="544.4" height="0.5"/>
<rect x="8.5" y="66.9" width="544.4" height="0.5"/>
<g>
	<path d="M15.7,81.3c2.9-2.6,4.7-6.1,4.7-9.2c0-2.5-1.4-4.4-3.7-4.4c-1.6,0-3.4,1.3-3.4,2.7c0,0.2,0,0.3,0.1,0.3
		c-0.1,0,0.6-0.6,1.4-0.6c0.9,0,1.5,0.8,1.5,1.7c0,1.2-0.9,2.2-2.1,2.2c-1.2,0-2.1-1.3-2.1-2.8c0-2.3,2.3-4.1,4.8-4.1
		c4.7,0,5.9,3.2,5.9,5.8c0,1.6-0.4,2.9-2,5.3c-1.9,3.1-6.4,5.3-8.1,5.3c-0.4,0-0.6-0.2-0.6-0.5C13.8,82.5,14.9,82,15.7,81.3z
		 M25.7,68.6c0.6,0,1,0.4,1,1c0,0.6-0.4,1-1,1s-1-0.4-1-1C24.7,69,25.1,68.6,25.7,68.6z M25.7,73.5c0.6,0,1,0.4,1,1c0,0.6-0.4,1-1,1
		s-1-0.4-1-1C24.7,73.9,25.1,73.5,25.7,73.5z"/>
</g>
<g>
	<path d="M29.5,73.7h0.6L30,79.9c0.4-0.7,1-1,1.8-1c1.2,0,2.2,0.8,2.2,1.9c0,0.8-0.5,1.8-1.7,2.7l-2.8,2.1V73.7z M30.1,80.6
		C30,81.3,30,82,30,82.5c0,1,0,1.6,0.1,2c1-0.7,2.4-2.6,2.4-3.7c0-0.6-0.5-1.1-1.1-1.1C30.8,79.7,30.4,80,30.1,80.6z"/>
</g>
<polygon fill-rule="evenodd" clip-rule="evenodd" points="42.7,83.2 89.2,78.2 89.2,75.8 42.7,80.7 "/>
<polygon fill-rule="evenodd" clip-rule="evenodd" points="42.7,86.9 89.2,82 89.2,79.5 42.7,84.4 "/>
<g>
	<path d="M171.3,85.6c-3.2,0-6.1-2.3-6.1-5.1c0-2.4,1.7-5,5.1-7.9c-0.2-0.9-0.3-1.8-0.3-2.7c0-2.6,0.9-5.1,2.4-6.3
		c1.4,1.9,2,3.7,2,5.3c0,2.2-1,4.2-3.2,6.1l0.7,3.1c0.4,0,0.6,0,0.6,0c2,0,3.6,1.5,3.6,3.5c0,1.4-1.1,2.8-2.7,3.6
		c0-0.1,0.6,2.8,0.6,3.3c0,1.9-1.7,3.2-3.7,3.2c-1.5,0-2.7-1-2.7-2.5c0-1.1,0.7-1.9,1.8-1.9c1,0,1.7,1,1.7,1.9c0,1-0.9,1.7-2,1.8
		c0.4,0.2,0.9,0.3,1.4,0.3c1.6,0,3.1-1.2,3.1-2.7c0-0.1,0-0.3,0-0.5l-0.6-2.8C172.5,85.5,172,85.6,171.3,85.6z M169.6,81.7
		c0,0.8,0.4,1.4,1.2,1.9c-1.3-0.2-2.2-1.1-2.2-2.3c0-1.5,1.3-2.8,2.9-3.1l-0.6-3c-2.8,2.1-4.3,4.1-4.3,6.1c0,2.2,2.1,4,4.5,4
		c0.7,0,1.3-0.1,1.8-0.4l-1.1-5.1C170.6,79.9,169.6,80.6,169.6,81.7z M172.6,65.6c-1.2,0-2.2,2.8-2.2,5.3c0,0.5,0,1,0.1,1.4
		c2-1.8,3-3.4,3-4.9c0-0.7-0.3-1.3-0.7-1.8C172.8,65.7,172.8,65.6,172.6,65.6z M174.7,82.1c0-1.2-0.9-2.4-2.2-2.4c0,0-0.2,0-0.4,0
		l1.1,5C174.2,83.9,174.7,83,174.7,82.1z"/>
</g>
<polygon fill-rule="evenodd" clip-rule="evenodd" points="104.7,74.5 151.1,73.3 151.1,70.8 104.7,72 "/>
<polygon fill-rule="evenodd" clip-rule="evenodd" points="104.7,78.2 151.1,77 151.1,74.5 104.7,75.8 "/>
<polygon fill-rule="evenodd" clip-rule="evenodd" points="183.9,68.3 230.4,63.4 230.4,60.9 183.9,65.8 "/>
<polygon fill-rule="evenodd" clip-rule="evenodd" points="183.9,64.6 230.4,59.6 230.4,57.2 183.9,62.1 "/>
<polygon fill-rule="evenodd" clip-rule="evenodd" points="239.4,84.4 285.8,83.2 285.8,80.7 239.4,82 "/>
<polygon fill-rule="evenodd" clip-rule="evenodd" points="239.4,88.2 285.8,86.9 285.8,84.4 239.4,85.7 "/>
<g>
	<path d="M362.7,79c2.2-2,3.6-4.6,3.6-6.9c0-1.9-1.1-3.3-2.8-3.3c-1.2,0-2.5,1-2.5,2.1c0,0.2,0,0.2,0.1,0.2c0,0,0.4-0.5,1-0.5
		c0.7,0,1.2,0.6,1.2,1.3c0,0.9-0.6,1.7-1.6,1.7s-1.5-1-1.5-2.1c0-1.8,1.7-3.1,3.6-3.1c3.5,0,4.4,2.4,4.4,4.4c0,1.2-0.3,2.2-1.5,4
		c-1.4,2.3-4.8,4-6,4c-0.3,0-0.5-0.1-0.5-0.3C361.3,79.9,362.1,79.5,362.7,79z M370.1,69.4c0.4,0,0.7,0.3,0.7,0.7
		c0,0.4-0.3,0.7-0.7,0.7c-0.4,0-0.7-0.3-0.7-0.7C369.4,69.8,369.7,69.4,370.1,69.4z M370.1,73.1c0.4,0,0.7,0.3,0.7,0.7
		s-0.3,0.7-0.7,0.7c-0.4,0-0.7-0.3-0.7-0.7S369.7,73.1,370.1,73.1z"/>
</g>
<polygon fill-rule="evenodd" clip-rule="evenodd" points="301.3,88.2 347.8,93.1 347.8,90.6 301.3,85.7 "/>
<polygon fill-rule="evenodd" clip-rule="evenodd" points="301.3,91.9 347.8,96.8 347.8,94.4 301.3,89.4 "/>
<polygon fill-rule="evenodd" clip-rule="evenodd" points="374.1,73.3 420.6,74.5 420.6,72 374.1,70.8 "/>
<polygon fill-rule="evenodd" clip-rule="evenodd" points="374.1,77 420.6,78.2 420.6,75.8 374.1,74.5 "/>
<polygon fill-rule="evenodd" clip-rule="evenodd" points="436,78.2 482.5,83.2 482.5,80.7 436,75.8 "/>
<polygon fill-rule="evenodd" clip-rule="evenodd" points="436,82 482.5,86.9 482.5,84.4 436,79.5 "/>
<rect x="49" y="20.1" width="0.5" height="16.4"/>
<g>
	<path d="M42.6,38.2c0-1.8,2.5-3.5,4.5-3.5c1.3,0,2.3,0.7,2.3,1.7c0,1.7-2.5,3.5-4.6,3.5C43.5,39.9,42.6,39.3,42.6,38.2z"/>
</g>
<rect x="64.5" y="18.6" width="0.5" height="15.5"/>
<g>
	<path d="M58.1,35.7c0-1.8,2.5-3.5,4.5-3.5c1.3,0,2.3,0.7,2.3,1.7c0,1.7-2.5,3.5-4.6,3.5C59,37.4,58.1,36.8,58.1,35.7z"/>
</g>
<rect x="80" y="16.9" width="0.5" height="14.7"/>
<g>
	<path d="M73.6,33.2c0-1.8,2.5-3.5,4.5-3.5c1.3,0,2.3,0.7,2.3,1.7c0,1.7-2.5,3.5-4.6,3.5C74.5,34.9,73.6,34.3,73.6,33.2z"/>
</g>
<rect x="95.5" y="15.2" width="0.5" height="14"/>
<g>
	<path d="M89.1,30.7c0-1.8,2.5-3.5,4.5-3.5c1.3,0,2.3,0.7,2.3,1.7c0,1.7-2.5,3.5-4.6,3.5C90,32.5,89.1,31.8,89.1,30.7z"/>
</g>
<rect x="104.5" y="28.2" width="0.5" height="16.4"/>
<g>
	<path d="M104.6,28.3c0-1.8,2.5-3.5,4.5-3.5c1.3,0,2.3,0.7,2.3,1.7c0,1.7-2.5,3.5-4.6,3.5C105.5,30,104.6,29.3,104.6,28.3z"/>
</g>
<rect x="119.8" y="25.7" width="0.5" height="17.4"/>
<g>
	<path d="M119.9,25.8c0-1.8,2.5-3.5,4.5-3.5c1.3,0,2.3,0.7,2.3,1.7c0,1.7-2.5,3.5-4.6,3.5C120.9,27.5,119.9,26.9,119.9,25.8z"/>
</g>
<rect x="135.3" y="23.2" width="0.5" height="18.1"/>
<g>
	<path d="M135.4,23.3c0-1.8,2.5-3.5,4.5-3.5c1.3,0,2.3,0.7,2.3,1.7c0,1.7-2.5,3.5-4.6,3.5C136.4,25,135.4,24.4,135.4,23.3z"/>
</g>
<rect x="150.8" y="20.7" width="0.5" height="18.9"/>
<g>
	<path d="M150.9,20.8c0-1.8,2.5-3.5,4.5-3.5c1.3,0,2.3,0.7,2.3,1.7c0,1.7-2.5,3.5-4.6,3.5C151.9,22.5,150.9,21.9,150.9,20.8z"/>
</g>
<rect x="177.2" y="18.3" width="0.5" height="16.4"/>
<g>
	<path d="M177.3,18.3c0-1.8,2.5-3.5,4.5-3.5c1.3,0,2.3,0.7,2.3,1.7c0,1.7-2.5,3.5-4.6,3.5C178.2,20.1,177.3,19.4,177.3,18.3z"/>
</g>
<rect x="190.9" y="14.6" width="10.5" height="0.8"/>
<rect x="192.7" y="15.8" width="0.5" height="17.4"/>
<g>
	<path d="M192.8,15.9c0-1.8,2.5-3.5,4.5-3.5c1.3,0,2.3,0.7,2.3,1.7c0,1.7-2.5,3.5-4.6,3.5C193.7,17.6,192.8,16.9,192.8,15.9z"/>
</g>
<rect x="206.4" y="14.6" width="10.5" height="0.8"/>
<rect x="208.2" y="13.3" width="0.5" height="18.1"/>
<g>
	<path d="M208.3,13.4c0-1.8,2.5-3.5,4.5-3.5c1.3,0,2.3,0.7,2.3,1.7c0,1.7-2.5,3.5-4.6,3.5C209.2,15.1,208.3,14.5,208.3,13.4z"/>
</g>
<rect x="221.9" y="14.6" width="10.5" height="0.8"/>
<rect x="221.9" y="9.7" width="10.5" height="0.8"/>
<rect x="223.7" y="10.8" width="0.5" height="18.9"/>
<g>
	<path d="M223.8,10.9c0-1.8,2.5-3.5,4.5-3.5c1.3,0,2.3,0.7,2.3,1.7c0,1.7-2.5,3.5-4.6,3.5C224.7,12.6,223.8,12,223.8,10.9z"/>
</g>
<rect x="237.4" y="14.6" width="10.5" height="0.8"/>
<rect x="237.4" y="9.7" width="10.5" height="0.8"/>
<rect x="239.2" y="8.3" width="0.5" height="22.6"/>
<g>
	<path d="M239.3,8.4c0-1.8,2.5-3.5,4.5-3.5c1.3,0,2.3,0.7,2.3,1.7c0,1.7-2.5,3.5-4.6,3.5C240.2,10.1,239.3,9.5,239.3,8.4z"/>
</g>
<rect x="252.9" y="14.6" width="10.5" height="0.8"/>
<rect x="252.9" y="9.7" width="10.5" height="0.8"/>
<rect x="252.9" y="4.7" width="10.5" height="0.8"/>
<rect x="254.7" y="5.9" width="0.5" height="24.8"/>
<g>
	<path d="M254.8,5.9c0-1.8,2.5-3.5,4.5-3.5c1.3,0,2.3,0.7,2.3,1.7c0,1.7-2.5,3.5-4.6,3.5C255.8,7.7,254.8,7,254.8,5.9z"/>
</g>
<rect x="268.3" y="14.6" width="10.5" height="0.8"/>
<rect x="268.3" y="9.7" width="10.5" height="0.8"/>
<rect x="268.3" y="4.7" width="10.5" height="0.8"/>
<rect x="270" y="3.4" width="0.5" height="26.8"/>
<g>
	<path d="M270.1,3.5c0-1.8,2.5-3.5,4.5-3.5c1.3,0,2.3,0.7,2.3,1.7c0,1.7-2.5,3.5-4.6,3.5C271.1,5.2,270.1,4.5,270.1,3.5z"/>
</g>
<rect x="283.8" y="14.6" width="10.5" height="0.8"/>
<rect x="283.8" y="9.7" width="10.5" height="0.8"/>
<rect x="283.8" y="4.7" width="10.5" height="0.8"/>
<rect x="285.5" y="5.9" width="0.5" height="23.9"/>
<g>
	<path d="M285.6,5.9c0-1.8,2.5-3.5,4.5-3.5c1.3,0,2.3,0.7,2.3,1.7c0,1.7-2.5,3.5-4.6,3.5C286.6,7.7,285.6,7,285.6,5.9z"/>
</g>
<rect x="299.3" y="14.6" width="10.5" height="0.8"/>
<rect x="299.3" y="9.7" width="10.5" height="0.8"/>
<rect x="301.1" y="8.3" width="0.5" height="21.4"/>
<g>
	<path d="M301.1,8.4c0-1.8,2.5-3.5,4.5-3.5c1.3,0,2.3,0.7,2.3,1.7c0,1.7-2.5,3.5-4.6,3.5C302.1,10.1,301.1,9.5,301.1,8.4z"/>
</g>
<rect x="314.8" y="14.6" width="10.5" height="0.8"/>
<rect x="314.8" y="9.7" width="10.5" height="0.8"/>
<rect x="316.6" y="10.8" width="0.5" height="19.2"/>
<g>
	<path d="M316.6,10.9c0-1.8,2.5-3.5,4.5-3.5c1.3,0,2.3,0.7,2.3,1.7c0,1.7-2.5,3.5-4.6,3.5C317.6,12.6,316.6,12,316.6,10.9z"/>
</g>
<rect x="330.3" y="14.6" width="10.5" height="0.8"/>
<rect x="332.1" y="13.3" width="0.5" height="17.2"/>
<g>
	<path d="M332.1,13.4c0-1.8,2.5-3.5,4.5-3.5c1.3,0,2.3,0.7,2.3,1.7c0,1.7-2.5,3.5-4.6,3.5C333.1,15.1,332.1,14.5,332.1,13.4z"/>
</g>
<rect x="345.8" y="14.6" width="10.5" height="0.8"/>
<rect x="347.6" y="15.8" width="0.5" height="15.2"/>
<g>
	<path d="M347.6,15.9c0-1.8,2.5-3.5,4.5-3.5c1.3,0,2.3,0.7,2.3,1.7c0,1.7-2.5,3.5-4.6,3.5C348.6,17.6,347.6,16.9,347.6,15.9z"/>
</g>
<rect x="373.9" y="18.3" width="0.5" height="16.4"/>
<g>
	<path d="M374,18.3c0-1.8,2.5-3.5,4.5-3.5c1.3,0,2.3,0.7,2.3,1.7c0,1.7-2.5,3.5-4.6,3.5C375,20.1,374,19.4,374,18.3z"/>
</g>
<rect x="389.4" y="20.7" width="0.5" height="15.5"/>
<g>
	<path d="M389.5,20.8c0-1.8,2.5-3.5,4.5-3.5c1.3,0,2.3,0.7,2.3,1.7c0,1.7-2.5,3.5-4.6,3.5C390.5,22.5,389.5,21.9,389.5,20.8z"/>
</g>
<rect x="404.9" y="23.2" width="0.5" height="14.7"/>
<g>
	<path d="M405,23.3c0-1.8,2.5-3.5,4.5-3.5c1.3,0,2.3,0.7,2.3,1.7c0,1.7-2.5,3.5-4.6,3.5C406,25,405,24.4,405,23.3z"/>
</g>
<rect x="420.4" y="25.7" width="0.5" height="14"/>
<g>
	<path d="M420.5,25.8c0-1.8,2.5-3.5,4.5-3.5c1.3,0,2.3,0.7,2.3,1.7c0,1.7-2.5,3.5-4.6,3.5C421.5,27.5,420.5,26.9,420.5,25.8z"/>
</g>
<rect x="442.3" y="10.2" width="0.5" height="16.4"/>
<g>
	<path d="M435.8,28.3c0-1.8,2.5-3.5,4.5-3.5c1.3,0,2.3,0.7,2.3,1.7c0,1.7-2.5,3.5-4.6,3.5C436.8,30,435.8,29.3,435.8,28.3z"/>
</g>
<rect x="457.8" y="11.7" width="0.5" height="17.4"/>
<g>
	<path d="M451.3,30.7c0-1.8,2.5-3.5,4.5-3.5c1.3,0,2.3,0.7,2.3,1.7c0,1.7-2.5,3.5-4.6,3.5C452.3,32.5,451.3,31.8,451.3,30.7z"/>
</g>
<rect x="473.3" y="13.4" width="0.5" height="18.1"/>
<g>
	<path d="M466.8,33.2c0-1.8,2.5-3.5,4.5-3.5c1.3,0,2.3,0.7,2.3,1.7c0,1.7-2.5,3.5-4.6,3.5C467.8,34.9,466.8,34.3,466.8,33.2z"/>
</g>
<rect x="488.8" y="15.2" width="0.5" height="18.9"/>
<g>
	<path d="M482.3,35.7c0-1.8,2.5-3.5,4.5-3.5c1.3,0,2.3,0.7,2.3,1.7c0,1.7-2.5,3.5-4.6,3.5C483.3,37.4,482.3,36.8,482.3,35.7z"/>
</g>
<rect x="504.4" y="20" width="0.5" height="16.6"/>
<g>
	<path d="M502.1,34.6c1.6,0,2.7,0.7,2.7,2c0,1.9-2.3,3.4-4.5,3.4c-1.3,0-2.4-0.7-2.4-1.8C497.8,36.4,500.1,34.6,502.1,34.6z
		 M498.3,38.5c0,0.6,0.4,0.9,1.1,0.9c1.4,0,4.9-2.1,4.9-3.3c0-0.6-0.4-0.9-1.1-0.9C502,35.2,498.3,37.2,498.3,38.5z"/>
</g>
<rect x="42.5" y="72.8" width="0.5" height="14"/>
<g>
	<path d="M42.6,72.9c0-1.8,2.5-3.5,4.5-3.5c1.3,0,2.3,0.7,2.3,1.7c0,1.7-2.5,3.5-4.6,3.5C43.5,74.6,42.6,74,42.6,72.9z"/>
</g>
<rect x="58" y="70.3" width="0.5" height="14.9"/>
<g>
	<path d="M58.1,70.4c0-1.8,2.5-3.5,4.5-3.5c1.3,0,2.3,0.7,2.3,1.7c0,1.7-2.5,3.5-4.6,3.5C59,72.1,58.1,71.5,58.1,70.4z"/>
</g>
<rect x="73.5" y="67.9" width="0.5" height="15.7"/>
<g>
	<path d="M73.6,67.9c0-1.8,2.5-3.5,4.5-3.5c1.3,0,2.3,0.7,2.3,1.7c0,1.7-2.5,3.5-4.6,3.5C74.5,69.7,73.6,69,73.6,67.9z"/>
</g>
<rect x="89" y="65.4" width="0.5" height="16.4"/>
<g>
	<path d="M89.1,65.5c0-1.8,2.5-3.5,4.5-3.5c1.3,0,2.3,0.7,2.3,1.7c0,1.7-2.5,3.5-4.6,3.5C90,67.2,89.1,66.5,89.1,65.5z"/>
</g>
<rect x="102.7" y="61.7" width="10.5" height="0.8"/>
<rect x="104.5" y="62.9" width="0.5" height="15.2"/>
<g>
	<path d="M104.6,63c0-1.8,2.5-3.5,4.5-3.5c1.3,0,2.3,0.7,2.3,1.7c0,1.7-2.5,3.5-4.6,3.5C105.5,64.7,104.6,64.1,104.6,63z"/>
</g>
<rect x="118.1" y="61.7" width="10.5" height="0.8"/>
<rect x="119.8" y="60.4" width="0.5" height="17.4"/>
<g>
	<path d="M119.9,60.5c0-1.8,2.5-3.5,4.5-3.5c1.3,0,2.3,0.7,2.3,1.7c0,1.7-2.5,3.5-4.6,3.5C120.9,62.2,119.9,61.6,119.9,60.5z"/>
</g>
<rect x="133.6" y="61.7" width="10.5" height="0.8"/>
<rect x="133.6" y="56.8" width="10.5" height="0.8"/>
<rect x="135.3" y="57.9" width="0.5" height="19.4"/>
<g>
	<path d="M135.4,58c0-1.8,2.5-3.5,4.5-3.5c1.3,0,2.3,0.7,2.3,1.7c0,1.7-2.5,3.5-4.6,3.5C136.4,59.7,135.4,59.1,135.4,58z"/>
</g>
<rect x="149.1" y="61.7" width="10.5" height="0.8"/>
<rect x="149.1" y="56.8" width="10.5" height="0.8"/>
<rect x="150.8" y="55.5" width="0.5" height="21.4"/>
<g>
	<path d="M150.9,55.5c0-1.8,2.5-3.5,4.5-3.5c1.3,0,2.3,0.7,2.3,1.7c0,1.7-2.5,3.5-4.6,3.5C151.9,57.3,150.9,56.6,150.9,55.5z"/>
</g>
<rect x="183.7" y="62.3" width="0.5" height="18.9"/>
<g>
	<path d="M177.3,82.8c0-1.8,2.5-3.5,4.5-3.5c1.3,0,2.3,0.7,2.3,1.7c0,1.7-2.5,3.5-4.6,3.5C178.2,84.5,177.3,83.9,177.3,82.8z"/>
</g>
<rect x="199.2" y="60.7" width="0.5" height="18"/>
<g>
	<path d="M192.8,80.3c0-1.8,2.5-3.5,4.5-3.5c1.3,0,2.3,0.7,2.3,1.7c0,1.7-2.5,3.5-4.6,3.5C193.7,82.1,192.8,81.4,192.8,80.3z"/>
</g>
<rect x="214.7" y="59" width="0.5" height="17.2"/>
<g>
	<path d="M208.3,77.9c0-1.8,2.5-3.5,4.5-3.5c1.3,0,2.3,0.7,2.3,1.7c0,1.7-2.5,3.5-4.6,3.5C209.2,79.6,208.3,78.9,208.3,77.9z"/>
</g>
<rect x="230.2" y="57.3" width="0.5" height="16.4"/>
<g>
	<path d="M223.8,75.4c0-1.8,2.5-3.5,4.5-3.5c1.3,0,2.3,0.7,2.3,1.7c0,1.7-2.5,3.5-4.6,3.5C224.7,77.1,223.8,76.5,223.8,75.4z"/>
</g>
<rect x="239.2" y="72.8" width="0.5" height="15.2"/>
<g>
	<path d="M239.3,72.9c0-1.8,2.5-3.5,4.5-3.5c1.3,0,2.3,0.7,2.3,1.7c0,1.7-2.5,3.5-4.6,3.5C240.2,74.6,239.3,74,239.3,72.9z"/>
</g>
<rect x="254.7" y="70.3" width="0.5" height="17.4"/>
<g>
	<path d="M254.8,70.4c0-1.8,2.5-3.5,4.5-3.5c1.3,0,2.3,0.7,2.3,1.7c0,1.7-2.5,3.5-4.6,3.5C255.8,72.1,254.8,71.5,254.8,70.4z"/>
</g>
<rect x="270" y="67.9" width="0.5" height="19.4"/>
<g>
	<path d="M270.1,67.9c0-1.8,2.5-3.5,4.5-3.5c1.3,0,2.3,0.7,2.3,1.7c0,1.7-2.5,3.5-4.6,3.5C271.1,69.7,270.1,69,270.1,67.9z"/>
</g>
<rect x="285.5" y="70.3" width="0.5" height="16.4"/>
<g>
	<path d="M285.6,70.4c0-1.8,2.5-3.5,4.5-3.5c1.3,0,2.3,0.7,2.3,1.7c0,1.7-2.5,3.5-4.6,3.5C286.6,72.1,285.6,71.5,285.6,70.4z"/>
</g>
<rect x="301.1" y="72.8" width="0.5" height="18.9"/>
<g>
	<path d="M301.1,72.9c0-1.8,2.5-3.5,4.5-3.5c1.3,0,2.3,0.7,2.3,1.7c0,1.7-2.5,3.5-4.6,3.5C302.1,74.6,301.1,74,301.1,72.9z"/>
</g>
<rect x="316.6" y="75.3" width="0.5" height="18"/>
<g>
	<path d="M316.6,75.4c0-1.8,2.5-3.5,4.5-3.5c1.3,0,2.3,0.7,2.3,1.7c0,1.7-2.5,3.5-4.6,3.5C317.6,77.1,316.6,76.5,316.6,75.4z"/>
</g>
<rect x="332.1" y="77.8" width="0.5" height="17.2"/>
<g>
	<path d="M332.1,77.9c0-1.8,2.5-3.5,4.5-3.5c1.3,0,2.3,0.7,2.3,1.7c0,1.7-2.5,3.5-4.6,3.5C333.1,79.6,332.1,78.9,332.1,77.9z"/>
</g>
<rect x="347.6" y="80.3" width="0.5" height="16.4"/>
<g>
	<path d="M347.6,80.3c0-1.8,2.5-3.5,4.5-3.5c1.3,0,2.3,0.7,2.3,1.7c0,1.7-2.5,3.5-4.6,3.5C348.6,82.1,347.6,81.4,347.6,80.3z"/>
</g>
<rect x="372.1" y="61.7" width="10.5" height="0.8"/>
<rect x="372.1" y="56.8" width="10.5" height="0.8"/>
<rect x="372.1" y="51.8" width="10.5" height="0.8"/>
<rect x="373.9" y="53" width="0.5" height="23.9"/>
<g>
	<path d="M374,53.1c0-1.8,2.5-3.5,4.5-3.5c1.3,0,2.3,0.7,2.3,1.7c0,1.7-2.5,3.5-4.6,3.5C375,54.8,374,54.1,374,53.1z"/>
</g>
<rect x="387.6" y="61.7" width="10.5" height="0.8"/>
<rect x="387.6" y="56.8" width="10.5" height="0.8"/>
<rect x="389.4" y="55.5" width="0.5" height="21.7"/>
<g>
	<path d="M389.5,55.5c0-1.8,2.5-3.5,4.5-3.5c1.3,0,2.3,0.7,2.3,1.7c0,1.7-2.5,3.5-4.6,3.5C390.5,57.3,389.5,56.6,389.5,55.5z"/>
</g>
<rect x="403.1" y="61.7" width="10.5" height="0.8"/>
<rect x="403.1" y="56.8" width="10.5" height="0.8"/>
<rect x="404.9" y="57.9" width="0.5" height="19.7"/>
<g>
	<path d="M405,58c0-1.8,2.5-3.5,4.5-3.5c1.3,0,2.3,0.7,2.3,1.7c0,1.7-2.5,3.5-4.6,3.5C406,59.7,405,59.1,405,58z"/>
</g>
<rect x="418.6" y="61.7" width="10.5" height="0.8"/>
<rect x="420.4" y="60.4" width="0.5" height="17.7"/>
<g>
	<path d="M420.5,60.5c0-1.8,2.5-3.5,4.5-3.5c1.3,0,2.3,0.7,2.3,1.7c0,1.7-2.5,3.5-4.6,3.5C421.5,62.2,420.5,61.6,420.5,60.5z"/>
</g>
<rect x="434" y="61.7" width="10.5" height="0.8"/>
<rect x="435.8" y="62.9" width="0.5" height="18.9"/>
<g>
	<path d="M435.8,63c0-1.8,2.5-3.5,4.5-3.5c1.3,0,2.3,0.7,2.3,1.7c0,1.7-2.5,3.5-4.6,3.5C436.8,64.7,435.8,64.1,435.8,63z"/>
</g>
<rect x="451.3" y="65.4" width="0.5" height="18"/>
<g>
	<path d="M451.3,65.5c0-1.8,2.5-3.5,4.5-3.5c1.3,0,2.3,0.7,2.3,1.7c0,1.7-2.5,3.5-4.6,3.5C452.3,67.2,451.3,66.5,451.3,65.5z"/>
</g>
<rect x="466.8" y="67.9" width="0.5" height="17.2"/>
<g>
	<path d="M466.8,67.9c0-1.8,2.5-3.5,4.5-3.5c1.3,0,2.3,0.7,2.3,1.7c0,1.7-2.5,3.5-4.6,3.5C467.8,69.7,466.8,69,466.8,67.9z"/>
</g>
<rect x="482.3" y="70.3" width="0.5" height="16.4"/>
<g>
	<path d="M482.3,70.4c0-1.8,2.5-3.5,4.5-3.5c1.3,0,2.3,0.7,2.3,1.7c0,1.7-2.5,3.5-4.6,3.5C483.3,72.1,482.3,71.5,482.3,70.4z"/>
</g>
<rect x="497.8" y="72.8" width="0.5" height="16.6"/>
<g>
	<path d="M502.1,69.3c1.6,0,2.7,0.7,2.7,2c0,1.9-2.3,3.4-4.5,3.4c-1.3,0-2.4-0.7-2.4-1.8C497.8,71.1,500.1,69.3,502.1,69.3z
		 M498.3,73.2c0,0.6,0.4,0.9,1.1,0.9c1.4,0,4.9-2.1,4.9-3.3c0-0.6-0.4-0.9-1.1-0.9C502,69.9,498.3,72,498.3,73.2z"/>
</g>
</svg>
