<?xml version="1.0" encoding="utf-8"?>

<!--
	ScaleBook
	Copyright (c) Leland Jansen 2015. All rights reserved.
-->

<!DOCTYPE svg PUBLIC "-//W3C//DTD SVG 1.1//EN" "http://www.w3.org/Graphics/SVG/1.1/DTD/svg11.dtd">
<svg version="1.1" id="Layer_1" xmlns="http://www.w3.org/2000/svg" xmlns:xlink="http://www.w3.org/1999/xlink" x="0px" y="0px"
	 viewBox="0 0 552.9 81.6" enable-background="new 0 0 552.9 81.6" xml:space="preserve">
<rect x="8.4" y="9.7" width="0.8" height="67"/>
<g>
	<path d="M7.4,10.4c-1.9,1.1-3.6,5.8-3.6,9.4c0,2.3,1.4,9.9,1.4,12.3c0,5-1.5,8.6-4.6,11.1c3,2.4,4.6,6.1,4.6,11.1
		c0,2.3-1.4,9.9-1.4,12.3c0,3.8,1.7,8.4,3.6,9.5v0.7c-3.5-2.3-5.8-8.2-5.8-13.1c0-2.1,1.7-9.4,1.7-11.5c0-3.8-1-6.6-2.9-8.2
		C0.1,43.6,0,43.4,0,43.2c0-0.2,0.1-0.4,0.5-0.7c1.9-1.7,2.9-4.2,2.9-7.6c0-2.1-1.7-10-1.7-12.2c0-5.2,2.1-10.4,5.8-13.1V10.4z"/>
</g>
<rect x="547.8" y="9.7" width="0.8" height="67"/>
<rect x="550.4" y="9.7" width="2.5" height="67"/>
<rect x="8.5" y="29.3" width="544.4" height="0.5"/>
<rect x="8.5" y="24.4" width="544.4" height="0.5"/>
<rect x="8.5" y="19.4" width="544.4" height="0.5"/>
<rect x="8.5" y="14.4" width="544.4" height="0.5"/>
<rect x="8.5" y="9.5" width="544.4" height="0.5"/>
<g>
	<path d="M20.3,29.4c-4.2,0-8.1-3.1-8.1-6.9c0-3.2,2.3-6.7,6.8-10.5c-0.3-1.2-0.4-2.4-0.4-3.6c0-3.5,1.2-6.8,3.2-8.5
		c1.8,2.5,2.7,4.9,2.7,7.1c0,2.9-1.3,5.6-4.3,8.1l0.9,4.2c0.5,0,0.8-0.1,0.8-0.1c2.6,0,4.8,2,4.8,4.7c0,1.9-1.4,3.7-3.6,4.8
		c0-0.1,0.9,3.8,0.9,4.3c0,2.5-2.3,4.2-4.9,4.2c-2,0-3.6-1.3-3.6-3.4c0-1.4,1-2.6,2.4-2.6c1.3,0,2.3,1.3,2.3,2.5
		c0,1.4-1.2,2.3-2.7,2.5c0.6,0.3,1.2,0.5,1.9,0.5c2.1,0,4.1-1.6,4.1-3.6c0-0.2,0-0.4-0.1-0.6l-0.8-3.7
		C21.9,29.3,21.2,29.4,20.3,29.4z M18.1,24.2c0,1,0.5,1.9,1.6,2.5c-1.8-0.3-3-1.4-3-3.1c0-2,1.7-3.7,3.8-4.1l-0.8-4
		C16,18.3,14,21,14,23.6c0,2.9,2.8,5.3,6,5.3c0.9,0,1.7-0.2,2.4-0.5L21,21.6C19.4,21.8,18.1,22.8,18.1,24.2z M22.1,2.8
		c-1.6,0-2.9,3.7-2.9,7c0,0.7,0,1.3,0.2,1.9c2.7-2.4,4-4.5,4-6.5c0-0.9-0.3-1.7-1-2.4C22.4,2.9,22.3,2.8,22.1,2.8z M24.9,24.7
		c0-1.6-1.2-3.3-2.9-3.3c-0.1,0-0.2,0-0.5,0l1.4,6.6C24.2,27.2,24.9,26,24.9,24.7z"/>
</g>
<g>
	<path d="M29.5,11.3h0.6L30,17.6c0.4-0.7,1-1,1.8-1c1.2,0,2.2,0.8,2.2,1.9c0,0.8-0.5,1.8-1.7,2.7l-2.8,2.1V11.3z M30.1,18.2
		C30,19,30,19.6,30,20.2c0,1,0,1.6,0.1,2c1-0.7,2.4-2.6,2.4-3.7c0-0.6-0.5-1.1-1.1-1.1C30.8,17.4,30.4,17.7,30.1,18.2z"/>
</g>
<g>
	<path d="M35.1,3.9h0.6l-0.1,6.2c0.4-0.7,1-1,1.8-1c1.2,0,2.2,0.8,2.2,1.9c0,0.8-0.5,1.8-1.7,2.7l-2.8,2.1V3.9z M35.7,10.8
		c-0.1,0.8-0.1,1.4-0.1,1.9c0,1,0,1.6,0.1,2c1-0.7,2.4-2.6,2.4-3.7c0-0.6-0.5-1.1-1.1-1.1C36.4,10,36,10.2,35.7,10.8z"/>
</g>
<g>
	<path d="M40.7,13.8h0.6l-0.1,6.2c0.4-0.7,1-1,1.8-1c1.2,0,2.2,0.8,2.2,1.9c0,0.8-0.5,1.8-1.7,2.7l-2.8,2.1V13.8z M41.3,20.7
		c-0.1,0.8-0.1,1.4-0.1,1.9c0,1,0,1.6,0.1,2c1-0.7,2.4-2.6,2.4-3.7c0-0.6-0.5-1.1-1.1-1.1C42,19.9,41.6,20.2,41.3,20.7z"/>
</g>
<g>
	<path d="M46.3,6.4h0.6l-0.1,6.2c0.4-0.7,1-1,1.8-1c1.2,0,2.2,0.8,2.2,1.9c0,0.8-0.5,1.8-1.7,2.7l-2.8,2.1V6.4z M46.9,13.3
		c-0.1,0.8-0.1,1.4-0.1,1.9c0,1,0,1.6,0.1,2c1-0.7,2.4-2.6,2.4-3.7c0-0.6-0.5-1.1-1.1-1.1C47.6,12.4,47.2,12.7,46.9,13.3z"/>
</g>
<g>
	<path d="M51.9,16.3h0.6l-0.1,6.2c0.4-0.7,1-1,1.8-1c1.2,0,2.2,0.8,2.2,1.9c0,0.8-0.5,1.8-1.7,2.7l-2.8,2.1V16.3z M52.4,23.2
		c-0.1,0.8-0.1,1.4-0.1,1.9c0,1,0,1.6,0.1,2c1-0.7,2.4-2.6,2.4-3.7c0-0.6-0.5-1.1-1.1-1.1C53.2,22.4,52.7,22.6,52.4,23.2z"/>
</g>
<g>
	<path d="M57.4,8.8h0.6l-0.1,6.2c0.4-0.7,1-1,1.8-1c1.2,0,2.2,0.8,2.2,1.9c0,0.8-0.5,1.8-1.7,2.7l-2.8,2.1V8.8z M58,15.7
		c-0.1,0.8-0.1,1.4-0.1,1.9c0,1,0,1.6,0.1,2c1-0.7,2.4-2.6,2.4-3.7c0-0.6-0.5-1.1-1.1-1.1C58.7,14.9,58.3,15.2,58,15.7z"/>
</g>
<polygon fill-rule="evenodd" clip-rule="evenodd" points="77.1,25.8 123,24.6 123,22.1 77.1,23.4 "/>
<polygon fill-rule="evenodd" clip-rule="evenodd" points="77.1,22.1 123,20.9 123,18.4 77.1,19.6 "/>
<polygon fill-rule="evenodd" clip-rule="evenodd" points="138.2,20.9 184.1,15.9 184.1,13.4 138.2,18.4 "/>
<polygon fill-rule="evenodd" clip-rule="evenodd" points="138.2,17.2 184.1,12.2 184.1,9.7 138.2,14.7 "/>
<polygon fill-rule="evenodd" clip-rule="evenodd" points="192.9,35.8 238.8,30.8 238.8,28.3 192.9,33.3 "/>
<polygon fill-rule="evenodd" clip-rule="evenodd" points="192.9,39.5 238.8,34.5 238.8,32 192.9,37 "/>
<polygon fill-rule="evenodd" clip-rule="evenodd" points="254,27.1 299.9,25.8 299.9,23.4 254,24.6 "/>
<polygon fill-rule="evenodd" clip-rule="evenodd" points="254,30.8 299.9,29.6 299.9,27.1 254,28.3 "/>
<polygon fill-rule="evenodd" clip-rule="evenodd" points="315.2,25.8 361,30.8 361,28.3 315.2,23.4 "/>
<polygon fill-rule="evenodd" clip-rule="evenodd" points="315.2,29.6 361,34.5 361,32 315.2,27.1 "/>
<polygon fill-rule="evenodd" clip-rule="evenodd" points="382.8,11 428.7,15.9 428.7,13.4 382.8,8.5 "/>
<polygon fill-rule="evenodd" clip-rule="evenodd" points="382.8,7.2 428.7,12.2 428.7,9.7 382.8,4.8 "/>
<polygon fill-rule="evenodd" clip-rule="evenodd" points="443.9,20.9 489.8,25.8 489.8,23.4 443.9,18.4 "/>
<polygon fill-rule="evenodd" clip-rule="evenodd" points="443.9,17.2 489.8,22.1 489.8,19.6 443.9,14.7 "/>
<rect x="8.5" y="76.4" width="544.4" height="0.5"/>
<rect x="8.5" y="71.5" width="544.4" height="0.5"/>
<rect x="8.5" y="66.5" width="544.4" height="0.5"/>
<rect x="8.5" y="61.6" width="544.4" height="0.5"/>
<rect x="8.5" y="56.6" width="544.4" height="0.5"/>
<g>
	<path d="M15.7,71c2.9-2.6,4.7-6.1,4.7-9.2c0-2.5-1.4-4.4-3.7-4.4c-1.6,0-3.4,1.3-3.4,2.7c0,0.2,0,0.3,0.1,0.3
		c-0.1,0,0.6-0.6,1.4-0.6c0.9,0,1.5,0.8,1.5,1.7c0,1.2-0.9,2.2-2.1,2.2c-1.2,0-2.1-1.3-2.1-2.8c0-2.3,2.3-4.1,4.8-4.1
		c4.7,0,5.9,3.2,5.9,5.8c0,1.6-0.4,2.9-2,5.3c-1.9,3.1-6.4,5.3-8.1,5.3c-0.4,0-0.6-0.2-0.6-0.5C13.8,72.3,14.9,71.7,15.7,71z
		 M25.7,58.3c0.6,0,1,0.4,1,1c0,0.6-0.4,1-1,1s-1-0.4-1-1C24.7,58.8,25.1,58.3,25.7,58.3z M25.7,63.3c0.6,0,1,0.4,1,1
		c0,0.6-0.4,1-1,1s-1-0.4-1-1C24.7,63.7,25.1,63.3,25.7,63.3z"/>
</g>
<g>
	<path d="M29.5,63.4h0.6L30,69.7c0.4-0.7,1-1,1.8-1c1.2,0,2.2,0.8,2.2,1.9c0,0.8-0.5,1.8-1.7,2.7l-2.8,2.1V63.4z M30.1,70.3
		C30,71.1,30,71.7,30,72.3c0,1,0,1.6,0.1,2c1-0.7,2.4-2.6,2.4-3.7c0-0.6-0.5-1.1-1.1-1.1C30.8,69.5,30.4,69.8,30.1,70.3z"/>
</g>
<g>
	<path d="M35.1,56h0.6l-0.1,6.2c0.4-0.7,1-1,1.8-1c1.2,0,2.2,0.8,2.2,1.9c0,0.8-0.5,1.8-1.7,2.7l-2.8,2.1V56z M35.7,62.9
		c-0.1,0.8-0.1,1.4-0.1,1.9c0,1,0,1.6,0.1,2c1-0.7,2.4-2.6,2.4-3.7c0-0.6-0.5-1.1-1.1-1.1C36.4,62,36,62.3,35.7,62.9z"/>
</g>
<g>
	<path d="M40.7,65.9h0.6l-0.1,6.2c0.4-0.7,1-1,1.8-1c1.2,0,2.2,0.8,2.2,1.9c0,0.8-0.5,1.8-1.7,2.7l-2.8,2.1V65.9z M41.3,72.8
		c-0.1,0.8-0.1,1.4-0.1,1.9c0,1,0,1.6,0.1,2c1-0.7,2.4-2.6,2.4-3.7c0-0.6-0.5-1.1-1.1-1.1C42,72,41.6,72.2,41.3,72.8z"/>
</g>
<g>
	<path d="M46.3,58.4h0.6l-0.1,6.2c0.4-0.7,1-1,1.8-1c1.2,0,2.2,0.8,2.2,1.9c0,0.8-0.5,1.8-1.7,2.7l-2.8,2.1V58.4z M46.9,65.4
		c-0.1,0.8-0.1,1.4-0.1,1.9c0,1,0,1.6,0.1,2c1-0.7,2.4-2.6,2.4-3.7c0-0.6-0.5-1.1-1.1-1.1C47.6,64.5,47.2,64.8,46.9,65.4z"/>
</g>
<g>
	<path d="M51.9,68.4h0.6l-0.1,6.2c0.4-0.7,1-1,1.8-1c1.2,0,2.2,0.8,2.2,1.9c0,0.8-0.5,1.8-1.7,2.7l-2.8,2.1V68.4z M52.4,75.3
		c-0.1,0.8-0.1,1.4-0.1,1.9c0,1,0,1.6,0.1,2c1-0.7,2.4-2.6,2.4-3.7c0-0.6-0.5-1.1-1.1-1.1C53.2,74.4,52.7,74.7,52.4,75.3z"/>
</g>
<g>
	<path d="M57.4,60.9h0.6l-0.1,6.2c0.4-0.7,1-1,1.8-1c1.2,0,2.2,0.8,2.2,1.9c0,0.8-0.5,1.8-1.7,2.7l-2.8,2.1V60.9z M58,67.8
		c-0.1,0.8-0.1,1.4-0.1,1.9c0,1,0,1.6,0.1,2c1-0.7,2.4-2.6,2.4-3.7c0-0.6-0.5-1.1-1.1-1.1C58.7,67,58.3,67.3,58,67.8z"/>
</g>
<polygon fill-rule="evenodd" clip-rule="evenodd" points="77.1,63 123,58.1 123,55.6 77.1,60.6 "/>
<polygon fill-rule="evenodd" clip-rule="evenodd" points="77.1,59.3 123,54.4 123,51.9 77.1,56.8 "/>
<polygon fill-rule="evenodd" clip-rule="evenodd" points="131.7,77.9 177.6,73 177.6,70.5 131.7,75.4 "/>
<polygon fill-rule="evenodd" clip-rule="evenodd" points="131.7,81.6 177.6,76.7 177.6,74.2 131.7,79.2 "/>
<polygon fill-rule="evenodd" clip-rule="evenodd" points="192.9,68 238.8,63 238.8,60.6 192.9,65.5 "/>
<polygon fill-rule="evenodd" clip-rule="evenodd" points="192.9,71.7 238.8,66.8 238.8,64.3 192.9,69.2 "/>
<polygon fill-rule="evenodd" clip-rule="evenodd" points="254,64.3 299.9,63 299.9,60.6 254,61.8 "/>
<polygon fill-rule="evenodd" clip-rule="evenodd" points="254,68 299.9,66.8 299.9,64.3 254,65.5 "/>
<polygon fill-rule="evenodd" clip-rule="evenodd" points="315.2,63 361,68 361,65.5 315.2,60.6 "/>
<polygon fill-rule="evenodd" clip-rule="evenodd" points="315.2,66.8 361,71.7 361,69.2 315.2,64.3 "/>
<polygon fill-rule="evenodd" clip-rule="evenodd" points="376.3,73 422.2,77.9 422.2,75.4 376.3,70.5 "/>
<polygon fill-rule="evenodd" clip-rule="evenodd" points="376.3,76.7 422.2,81.6 422.2,79.2 376.3,74.2 "/>
<polygon fill-rule="evenodd" clip-rule="evenodd" points="443.9,58.1 489.8,63 489.8,60.6 443.9,55.6 "/>
<polygon fill-rule="evenodd" clip-rule="evenodd" points="443.9,54.4 489.8,59.3 489.8,56.8 443.9,51.9 "/>
<rect x="68.6" y="34.1" width="10.5" height="0.8"/>
<rect x="68.6" y="39.1" width="10.5" height="0.8"/>
<rect x="76.9" y="19.8" width="0.5" height="21.4"/>
<g>
	<path d="M70.5,42.8c0-1.8,2.5-3.5,4.5-3.5c1.3,0,2.3,0.7,2.3,1.7c0,1.7-2.5,3.5-4.6,3.5C71.4,44.5,70.5,43.9,70.5,42.8z"/>
</g>
<rect x="84" y="34.1" width="10.5" height="0.8"/>
<rect x="84" y="39.1" width="10.5" height="0.8"/>
<rect x="92.2" y="19.5" width="0.5" height="19.2"/>
<g>
	<path d="M85.8,40.3c0-1.8,2.5-3.5,4.5-3.5c1.3,0,2.3,0.7,2.3,1.7c0,1.7-2.5,3.5-4.6,3.5C86.8,42.1,85.8,41.4,85.8,40.3z"/>
</g>
<rect x="99.1" y="34.1" width="10.5" height="0.8"/>
<rect x="107.4" y="19" width="0.5" height="17.2"/>
<g>
	<path d="M101,37.9c0-1.8,2.5-3.5,4.5-3.5c1.3,0,2.3,0.7,2.3,1.7c0,1.7-2.5,3.5-4.6,3.5C102,39.6,101,38.9,101,37.9z"/>
</g>
<rect x="114.5" y="34.1" width="10.5" height="0.8"/>
<rect x="122.8" y="18.6" width="0.5" height="15.2"/>
<g>
	<path d="M116.4,35.4c0-1.8,2.5-3.5,4.5-3.5c1.3,0,2.3,0.7,2.3,1.7c0,1.7-2.5,3.5-4.6,3.5C117.3,37.1,116.4,36.5,116.4,35.4z"/>
</g>
<rect x="138" y="14.8" width="0.5" height="16.4"/>
<g>
	<path d="M131.5,32.9c0-1.8,2.5-3.5,4.5-3.5c1.3,0,2.3,0.7,2.3,1.7c0,1.7-2.5,3.5-4.6,3.5C132.5,34.6,131.5,34,131.5,32.9z"/>
</g>
<rect x="153.3" y="13.3" width="0.5" height="15.5"/>
<g>
	<path d="M146.9,30.4c0-1.8,2.5-3.5,4.5-3.5c1.3,0,2.3,0.7,2.3,1.7c0,1.7-2.5,3.5-4.6,3.5C147.9,32.1,146.9,31.5,146.9,30.4z"/>
</g>
<rect x="168.7" y="11.6" width="0.5" height="14.7"/>
<g>
	<path d="M162.2,27.9c0-1.8,2.5-3.5,4.5-3.5c1.3,0,2.3,0.7,2.3,1.7c0,1.7-2.5,3.5-4.6,3.5C163.2,29.7,162.2,29,162.2,27.9z"/>
</g>
<rect x="183.9" y="9.9" width="0.5" height="14"/>
<g>
	<path d="M177.4,25.5c0-1.8,2.5-3.5,4.5-3.5c1.3,0,2.3,0.7,2.3,1.7c0,1.7-2.5,3.5-4.6,3.5C178.4,27.2,177.4,26.5,177.4,25.5z"/>
</g>
<rect x="192.7" y="22.9" width="0.5" height="16.4"/>
<g>
	<path d="M192.8,23c0-1.8,2.5-3.5,4.5-3.5c1.3,0,2.3,0.7,2.3,1.7c0,1.7-2.5,3.5-4.6,3.5C193.7,24.7,192.8,24.1,192.8,23z"/>
</g>
<rect x="207.9" y="20.4" width="0.5" height="17.4"/>
<g>
	<path d="M208,20.5c0-1.8,2.5-3.5,4.5-3.5c1.3,0,2.3,0.7,2.3,1.7c0,1.7-2.5,3.5-4.6,3.5C208.9,22.2,208,21.6,208,20.5z"/>
</g>
<rect x="223.2" y="17.9" width="0.5" height="18.1"/>
<g>
	<path d="M223.3,18c0-1.8,2.5-3.5,4.5-3.5c1.3,0,2.3,0.7,2.3,1.7c0,1.7-2.5,3.5-4.6,3.5C224.3,19.7,223.3,19.1,223.3,18z"/>
</g>
<rect x="238.6" y="15.5" width="0.5" height="18.9"/>
<g>
	<path d="M238.7,15.5c0-1.8,2.5-3.5,4.5-3.5c1.3,0,2.3,0.7,2.3,1.7c0,1.7-2.5,3.5-4.6,3.5C239.6,17.3,238.7,16.6,238.7,15.5z"/>
</g>
<rect x="253.8" y="13" width="0.5" height="17.7"/>
<g>
	<path d="M253.8,13c0-1.8,2.5-3.5,4.5-3.5c1.3,0,2.3,0.7,2.3,1.7c0,1.7-2.5,3.5-4.6,3.5C254.8,14.8,253.8,14.1,253.8,13z"/>
</g>
<rect x="269.1" y="10.5" width="0.5" height="19.8"/>
<g>
	<path d="M269.2,10.6c0-1.8,2.5-3.5,4.5-3.5c1.3,0,2.3,0.7,2.3,1.7c0,1.7-2.5,3.5-4.6,3.5C270.2,12.3,269.2,11.7,269.2,10.6z"/>
</g>
<rect x="284.3" y="8" width="0.5" height="21.9"/>
<g>
	<path d="M284.4,8.1c0-1.8,2.5-3.5,4.5-3.5c1.3,0,2.3,0.7,2.3,1.7c0,1.7-2.5,3.5-4.6,3.5C285.4,9.8,284.4,9.2,284.4,8.1z"/>
</g>
<rect x="299.7" y="10.5" width="0.5" height="18.9"/>
<g>
	<path d="M299.7,10.6c0-1.8,2.5-3.5,4.5-3.5c1.3,0,2.3,0.7,2.3,1.7c0,1.7-2.5,3.5-4.6,3.5C300.7,12.3,299.7,11.7,299.7,10.6z"/>
</g>
<rect x="315" y="13" width="0.5" height="16.4"/>
<g>
	<path d="M315.1,13c0-1.8,2.5-3.5,4.5-3.5c1.3,0,2.3,0.7,2.3,1.7c0,1.7-2.5,3.5-4.6,3.5C316.1,14.8,315.1,14.1,315.1,13z"/>
</g>
<rect x="330.2" y="15.5" width="0.5" height="15.5"/>
<g>
	<path d="M330.3,15.5c0-1.8,2.5-3.5,4.5-3.5c1.3,0,2.3,0.7,2.3,1.7c0,1.7-2.5,3.5-4.6,3.5C331.2,17.3,330.3,16.6,330.3,15.5z"/>
</g>
<rect x="345.5" y="17.9" width="0.5" height="14.7"/>
<g>
	<path d="M345.6,18c0-1.8,2.5-3.5,4.5-3.5c1.3,0,2.3,0.7,2.3,1.7c0,1.7-2.5,3.5-4.6,3.5C346.6,19.7,345.6,19.1,345.6,18z"/>
</g>
<rect x="360.7" y="20.4" width="0.5" height="14"/>
<g>
	<path d="M360.8,20.5c0-1.8,2.5-3.5,4.5-3.5c1.3,0,2.3,0.7,2.3,1.7c0,1.7-2.5,3.5-4.6,3.5C361.8,22.2,360.8,21.6,360.8,20.5z"/>
</g>
<rect x="382.6" y="4.9" width="0.5" height="16.4"/>
<g>
	<path d="M376.2,23c0-1.8,2.5-3.5,4.5-3.5c1.3,0,2.3,0.7,2.3,1.7c0,1.7-2.5,3.5-4.6,3.5C377.1,24.7,376.2,24.1,376.2,23z"/>
</g>
<rect x="397.9" y="6.5" width="0.5" height="17.4"/>
<g>
	<path d="M391.5,25.5c0-1.8,2.5-3.5,4.5-3.5c1.3,0,2.3,0.7,2.3,1.7c0,1.7-2.5,3.5-4.6,3.5C392.5,27.2,391.5,26.5,391.5,25.5z"/>
</g>
<rect x="413.1" y="8.2" width="0.5" height="18.1"/>
<g>
	<path d="M406.7,27.9c0-1.8,2.5-3.5,4.5-3.5c1.3,0,2.3,0.7,2.3,1.7c0,1.7-2.5,3.5-4.6,3.5C407.7,29.7,406.7,29,406.7,27.9z"/>
</g>
<rect x="428.5" y="9.9" width="0.5" height="18.9"/>
<g>
	<path d="M422,30.4c0-1.8,2.5-3.5,4.5-3.5c1.3,0,2.3,0.7,2.3,1.7c0,1.7-2.5,3.5-4.6,3.5C423,32.1,422,31.5,422,30.4z"/>
</g>
<rect x="443.7" y="14.8" width="0.5" height="16.4"/>
<g>
	<path d="M437.2,32.9c0-1.8,2.5-3.5,4.5-3.5c1.3,0,2.3,0.7,2.3,1.7c0,1.7-2.5,3.5-4.6,3.5C438.2,34.6,437.2,34,437.2,32.9z"/>
</g>
<rect x="450.7" y="34.1" width="10.5" height="0.8"/>
<rect x="459" y="16.4" width="0.5" height="17.4"/>
<g>
	<path d="M452.6,35.4c0-1.8,2.5-3.5,4.5-3.5c1.3,0,2.3,0.7,2.3,1.7c0,1.7-2.5,3.5-4.6,3.5C453.5,37.1,452.6,36.5,452.6,35.4z"/>
</g>
<rect x="466.1" y="34.1" width="10.5" height="0.8"/>
<rect x="474.4" y="18.1" width="0.5" height="18.1"/>
<g>
	<path d="M467.9,37.9c0-1.8,2.5-3.5,4.5-3.5c1.3,0,2.3,0.7,2.3,1.7c0,1.7-2.5,3.5-4.6,3.5C468.9,39.6,467.9,38.9,467.9,37.9z"/>
</g>
<rect x="481.3" y="34.1" width="10.5" height="0.8"/>
<rect x="481.3" y="39.1" width="10.5" height="0.8"/>
<rect x="489.5" y="19.8" width="0.5" height="18.9"/>
<g>
	<path d="M483.1,40.3c0-1.8,2.5-3.5,4.5-3.5c1.3,0,2.3,0.7,2.3,1.7c0,1.7-2.5,3.5-4.6,3.5C484.1,42.1,483.1,41.4,483.1,40.3z"/>
</g>
<rect x="496.6" y="34.1" width="10.7" height="0.8"/>
<rect x="496.6" y="39.1" width="10.7" height="0.8"/>
<rect x="505.1" y="19.6" width="0.5" height="21.5"/>
<g>
	<path d="M502.7,39.3c1.6,0,2.7,0.7,2.7,2c0,1.9-2.3,3.4-4.5,3.4c-1.3,0-2.4-0.7-2.4-1.8C498.5,41,500.7,39.3,502.7,39.3z
		 M498.9,43.1c0,0.6,0.4,0.9,1.1,0.9c1.4,0,4.9-2.1,4.9-3.3c0-0.6-0.4-0.9-1.1-0.9C502.6,39.9,498.9,41.9,498.9,43.1z"/>
</g>
<rect x="76.9" y="57" width="0.5" height="18.9"/>
<g>
	<path d="M70.5,77.5c0-1.8,2.5-3.5,4.5-3.5c1.3,0,2.3,0.7,2.3,1.7c0,1.7-2.5,3.5-4.6,3.5C71.4,79.3,70.5,78.6,70.5,77.5z"/>
</g>
<rect x="92.2" y="55.4" width="0.5" height="18"/>
<g>
	<path d="M85.8,75.1c0-1.8,2.5-3.5,4.5-3.5c1.3,0,2.3,0.7,2.3,1.7c0,1.7-2.5,3.5-4.6,3.5C86.8,76.8,85.8,76.1,85.8,75.1z"/>
</g>
<rect x="107.4" y="53.7" width="0.5" height="17.2"/>
<g>
	<path d="M101,72.6c0-1.8,2.5-3.5,4.5-3.5c1.3,0,2.3,0.7,2.3,1.7c0,1.7-2.5,3.5-4.6,3.5C102,74.3,101,73.7,101,72.6z"/>
</g>
<rect x="122.8" y="52" width="0.5" height="16.4"/>
<g>
	<path d="M116.4,70.1c0-1.8,2.5-3.5,4.5-3.5c1.3,0,2.3,0.7,2.3,1.7c0,1.7-2.5,3.5-4.6,3.5C117.3,71.8,116.4,71.2,116.4,70.1z"/>
</g>
<rect x="131.5" y="67.5" width="0.5" height="14"/>
<g>
	<path d="M131.5,67.6c0-1.8,2.5-3.5,4.5-3.5c1.3,0,2.3,0.7,2.3,1.7c0,1.7-2.5,3.5-4.6,3.5C132.5,69.3,131.5,68.7,131.5,67.6z"/>
</g>
<rect x="146.8" y="65.1" width="0.5" height="14.9"/>
<g>
	<path d="M146.9,65.1c0-1.8,2.5-3.5,4.5-3.5c1.3,0,2.3,0.7,2.3,1.7c0,1.7-2.5,3.5-4.6,3.5C147.9,66.9,146.9,66.2,146.9,65.1z"/>
</g>
<rect x="162.2" y="62.6" width="0.5" height="15.7"/>
<g>
	<path d="M162.2,62.7c0-1.8,2.5-3.5,4.5-3.5c1.3,0,2.3,0.7,2.3,1.7c0,1.7-2.5,3.5-4.6,3.5C163.2,64.4,162.2,63.7,162.2,62.7z"/>
</g>
<rect x="177.3" y="60.1" width="0.5" height="16.4"/>
<g>
	<path d="M177.4,60.2c0-1.8,2.5-3.5,4.5-3.5c1.3,0,2.3,0.7,2.3,1.7c0,1.7-2.5,3.5-4.6,3.5C178.4,61.9,177.4,61.3,177.4,60.2z"/>
</g>
<rect x="192.7" y="57.6" width="0.5" height="14"/>
<g>
	<path d="M192.8,57.7c0-1.8,2.5-3.5,4.5-3.5c1.3,0,2.3,0.7,2.3,1.7c0,1.7-2.5,3.5-4.6,3.5C193.7,59.4,192.8,58.8,192.8,57.7z"/>
</g>
<rect x="207.9" y="55.1" width="0.5" height="14.9"/>
<g>
	<path d="M208,55.2c0-1.8,2.5-3.5,4.5-3.5c1.3,0,2.3,0.7,2.3,1.7c0,1.7-2.5,3.5-4.6,3.5C208.9,56.9,208,56.3,208,55.2z"/>
</g>
<rect x="221.5" y="51.5" width="10.5" height="0.8"/>
<rect x="223.2" y="52.7" width="0.5" height="15.7"/>
<g>
	<path d="M223.3,52.7c0-1.8,2.5-3.5,4.5-3.5c1.3,0,2.3,0.7,2.3,1.7c0,1.7-2.5,3.5-4.6,3.5C224.3,54.5,223.3,53.8,223.3,52.7z"/>
</g>
<rect x="236.8" y="51.5" width="10.5" height="0.8"/>
<rect x="238.6" y="50.2" width="0.5" height="16.4"/>
<g>
	<path d="M238.7,50.3c0-1.8,2.5-3.5,4.5-3.5c1.3,0,2.3,0.7,2.3,1.7c0,1.7-2.5,3.5-4.6,3.5C239.6,52,238.7,51.3,238.7,50.3z"/>
</g>
<rect x="252" y="51.5" width="10.5" height="0.8"/>
<rect x="252" y="46.5" width="10.5" height="0.8"/>
<rect x="253.8" y="47.7" width="0.5" height="20.2"/>
<g>
	<path d="M253.8,47.8c0-1.8,2.5-3.5,4.5-3.5c1.3,0,2.3,0.7,2.3,1.7c0,1.7-2.5,3.5-4.6,3.5C254.8,49.5,253.8,48.9,253.8,47.8z"/>
</g>
<rect x="267.3" y="51.5" width="10.5" height="0.8"/>
<rect x="267.3" y="46.5" width="10.5" height="0.8"/>
<rect x="269.1" y="45.2" width="0.5" height="22.3"/>
<g>
	<path d="M269.2,45.3c0-1.8,2.5-3.5,4.5-3.5c1.3,0,2.3,0.7,2.3,1.7c0,1.7-2.5,3.5-4.6,3.5C270.2,47,269.2,46.4,269.2,45.3z"/>
</g>
<rect x="282.5" y="51.5" width="10.5" height="0.8"/>
<rect x="282.5" y="46.5" width="10.5" height="0.8"/>
<rect x="282.5" y="41.6" width="10.5" height="0.8"/>
<rect x="284.3" y="42.7" width="0.5" height="24.3"/>
<g>
	<path d="M284.4,42.8c0-1.8,2.5-3.5,4.5-3.5c1.3,0,2.3,0.7,2.3,1.7c0,1.7-2.5,3.5-4.6,3.5C285.4,44.5,284.4,43.9,284.4,42.8z"/>
</g>
<rect x="297.9" y="51.5" width="10.5" height="0.8"/>
<rect x="297.9" y="46.5" width="10.5" height="0.8"/>
<rect x="299.7" y="45.2" width="0.5" height="21.4"/>
<g>
	<path d="M299.7,45.3c0-1.8,2.5-3.5,4.5-3.5c1.3,0,2.3,0.7,2.3,1.7c0,1.7-2.5,3.5-4.6,3.5C300.7,47,299.7,46.4,299.7,45.3z"/>
</g>
<rect x="313.2" y="51.5" width="10.5" height="0.8"/>
<rect x="313.2" y="46.5" width="10.5" height="0.8"/>
<rect x="315" y="47.7" width="0.5" height="18.9"/>
<g>
	<path d="M315.1,47.8c0-1.8,2.5-3.5,4.5-3.5c1.3,0,2.3,0.7,2.3,1.7c0,1.7-2.5,3.5-4.6,3.5C316.1,49.5,315.1,48.9,315.1,47.8z"/>
</g>
<rect x="328.4" y="51.5" width="10.5" height="0.8"/>
<rect x="330.2" y="50.2" width="0.5" height="18"/>
<g>
	<path d="M330.3,50.3c0-1.8,2.5-3.5,4.5-3.5c1.3,0,2.3,0.7,2.3,1.7c0,1.7-2.5,3.5-4.6,3.5C331.2,52,330.3,51.3,330.3,50.3z"/>
</g>
<rect x="343.8" y="51.5" width="10.5" height="0.8"/>
<rect x="345.5" y="52.7" width="0.5" height="17.2"/>
<g>
	<path d="M345.6,52.7c0-1.8,2.5-3.5,4.5-3.5c1.3,0,2.3,0.7,2.3,1.7c0,1.7-2.5,3.5-4.6,3.5C346.6,54.5,345.6,53.8,345.6,52.7z"/>
</g>
<rect x="360.7" y="55.1" width="0.5" height="16.4"/>
<g>
	<path d="M360.8,55.2c0-1.8,2.5-3.5,4.5-3.5c1.3,0,2.3,0.7,2.3,1.7c0,1.7-2.5,3.5-4.6,3.5C361.8,56.9,360.8,56.3,360.8,55.2z"/>
</g>
<rect x="376.1" y="57.6" width="0.5" height="18.9"/>
<g>
	<path d="M376.2,57.7c0-1.8,2.5-3.5,4.5-3.5c1.3,0,2.3,0.7,2.3,1.7c0,1.7-2.5,3.5-4.6,3.5C377.1,59.4,376.2,58.8,376.2,57.7z"/>
</g>
<rect x="391.4" y="60.1" width="0.5" height="18"/>
<g>
	<path d="M391.5,60.2c0-1.8,2.5-3.5,4.5-3.5c1.3,0,2.3,0.7,2.3,1.7c0,1.7-2.5,3.5-4.6,3.5C392.5,61.9,391.5,61.3,391.5,60.2z"/>
</g>
<rect x="406.6" y="62.6" width="0.5" height="17.2"/>
<g>
	<path d="M406.7,62.7c0-1.8,2.5-3.5,4.5-3.5c1.3,0,2.3,0.7,2.3,1.7c0,1.7-2.5,3.5-4.6,3.5C407.7,64.4,406.7,63.7,406.7,62.7z"/>
</g>
<rect x="422" y="65.1" width="0.5" height="16.4"/>
<g>
	<path d="M422,65.1c0-1.8,2.5-3.5,4.5-3.5c1.3,0,2.3,0.7,2.3,1.7c0,1.7-2.5,3.5-4.6,3.5C423,66.9,422,66.2,422,65.1z"/>
</g>
<rect x="443.7" y="52" width="0.5" height="14"/>
<g>
	<path d="M437.2,67.6c0-1.8,2.5-3.5,4.5-3.5c1.3,0,2.3,0.7,2.3,1.7c0,1.7-2.5,3.5-4.6,3.5C438.2,69.3,437.2,68.7,437.2,67.6z"/>
</g>
<rect x="459" y="53.6" width="0.5" height="14.9"/>
<g>
	<path d="M452.6,70.1c0-1.8,2.5-3.5,4.5-3.5c1.3,0,2.3,0.7,2.3,1.7c0,1.7-2.5,3.5-4.6,3.5C453.5,71.8,452.6,71.2,452.6,70.1z"/>
</g>
<rect x="474.4" y="55.3" width="0.5" height="15.7"/>
<g>
	<path d="M467.9,72.6c0-1.8,2.5-3.5,4.5-3.5c1.3,0,2.3,0.7,2.3,1.7c0,1.7-2.5,3.5-4.6,3.5C468.9,74.3,467.9,73.7,467.9,72.6z"/>
</g>
<rect x="489.5" y="57" width="0.5" height="16.4"/>
<g>
	<path d="M483.1,75.1c0-1.8,2.5-3.5,4.5-3.5c1.3,0,2.3,0.7,2.3,1.7c0,1.7-2.5,3.5-4.6,3.5C484.1,76.8,483.1,76.1,483.1,75.1z"/>
</g>
<rect x="505.1" y="59.3" width="0.5" height="16.6"/>
<g>
	<path d="M502.7,74c1.6,0,2.7,0.7,2.7,2c0,1.9-2.3,3.4-4.5,3.4c-1.3,0-2.4-0.7-2.4-1.8C498.5,75.8,500.7,74,502.7,74z M498.9,77.8
		c0,0.6,0.4,0.9,1.1,0.9c1.4,0,4.9-2.1,4.9-3.3c0-0.6-0.4-0.9-1.1-0.9C502.6,74.6,498.9,76.6,498.9,77.8z"/>
</g>
</svg>
