<?xml version="1.0" encoding="utf-8"?>

<!--
	ScaleBook
	Copyright (c) Leland Jansen 2015. All rights reserved.
-->

<!DOCTYPE svg PUBLIC "-//W3C//DTD SVG 1.1//EN" "http://www.w3.org/Graphics/SVG/1.1/DTD/svg11.dtd">
<svg version="1.1" id="Layer_1" xmlns="http://www.w3.org/2000/svg" xmlns:xlink="http://www.w3.org/1999/xlink" x="0px" y="0px"
	 viewBox="0 0 552.9 81.6" enable-background="new 0 0 552.9 81.6" xml:space="preserve">
<rect x="8.4" y="9.7" width="0.8" height="67"/>
<g>
	<path d="M7.4,10.4c-1.9,1.1-3.6,5.8-3.6,9.4c0,2.3,1.4,9.9,1.4,12.3c0,5-1.5,8.6-4.6,11.1c3,2.4,4.6,6.1,4.6,11.1
		c0,2.3-1.4,9.9-1.4,12.3c0,3.8,1.7,8.4,3.6,9.5v0.7c-3.5-2.3-5.8-8.2-5.8-13.1c0-2.1,1.7-9.4,1.7-11.5c0-3.8-1-6.6-2.9-8.2
		C0.1,43.6,0,43.4,0,43.2c0-0.2,0.1-0.4,0.5-0.7c1.9-1.7,2.9-4.2,2.9-7.6c0-2.1-1.7-10-1.7-12.2c0-5.2,2.1-10.4,5.8-13.1V10.4z"/>
</g>
<rect x="547.8" y="9.7" width="0.8" height="67"/>
<rect x="550.4" y="9.7" width="2.5" height="67"/>
<rect x="8.5" y="29.3" width="544.4" height="0.5"/>
<rect x="8.5" y="24.4" width="544.4" height="0.5"/>
<rect x="8.5" y="19.4" width="544.4" height="0.5"/>
<rect x="8.5" y="14.4" width="544.4" height="0.5"/>
<rect x="8.5" y="9.5" width="544.4" height="0.5"/>
<g>
	<path d="M20.3,29.4c-4.2,0-8.1-3.1-8.1-6.9c0-3.2,2.3-6.7,6.8-10.5c-0.3-1.2-0.4-2.4-0.4-3.6c0-3.5,1.2-6.8,3.2-8.5
		c1.8,2.5,2.7,4.9,2.7,7.1c0,2.9-1.3,5.6-4.3,8.1l0.9,4.2c0.5,0,0.8-0.1,0.8-0.1c2.6,0,4.8,2,4.8,4.7c0,1.9-1.4,3.7-3.6,4.8
		c0-0.1,0.9,3.8,0.9,4.3c0,2.5-2.3,4.2-4.9,4.2c-2,0-3.6-1.3-3.6-3.4c0-1.4,1-2.6,2.4-2.6c1.3,0,2.3,1.3,2.3,2.5
		c0,1.4-1.2,2.3-2.7,2.5c0.6,0.3,1.2,0.5,1.9,0.5c2.1,0,4.1-1.6,4.1-3.6c0-0.2,0-0.4-0.1-0.6l-0.8-3.7
		C21.9,29.3,21.2,29.4,20.3,29.4z M18.1,24.2c0,1,0.5,1.9,1.6,2.5c-1.8-0.3-3-1.4-3-3.1c0-2,1.7-3.7,3.8-4.1l-0.8-4
		C16,18.3,14,21,14,23.6c0,2.9,2.8,5.3,6,5.3c0.9,0,1.7-0.2,2.4-0.5L21,21.6C19.4,21.8,18.1,22.8,18.1,24.2z M22.1,2.8
		c-1.6,0-2.9,3.7-2.9,7c0,0.7,0,1.3,0.2,1.9c2.7-2.4,4-4.5,4-6.5c0-0.9-0.3-1.7-1-2.4C22.4,2.9,22.3,2.8,22.1,2.8z M24.9,24.7
		c0-1.6-1.2-3.3-2.9-3.3c-0.1,0-0.2,0-0.5,0l1.4,6.6C24.2,27.2,24.9,26,24.9,24.7z"/>
</g>
<g>
	<path d="M33.5,2.9v2.8l1-0.3v1.8l-1,0.3V11l1-0.3v1.8l-1,0.3v3.1H33v-3l-1.9,0.6v3h-0.5v-2.8l-1,0.3v-1.8l1-0.3V8.4l-1,0.3V7l1-0.3
		V3.5h0.5v3L33,5.9v-3H33.5z M33,7.7l-1.9,0.6v3.4l1.9-0.6V7.7z"/>
</g>
<polygon fill-rule="evenodd" clip-rule="evenodd" points="49.8,25.8 98.4,24.6 98.4,22.1 49.8,23.4 "/>
<polygon fill-rule="evenodd" clip-rule="evenodd" points="49.8,22.1 98.4,20.9 98.4,18.4 49.8,19.6 "/>
<polygon fill-rule="evenodd" clip-rule="evenodd" points="114.5,20.9 163,15.9 163,13.4 114.5,18.4 "/>
<polygon fill-rule="evenodd" clip-rule="evenodd" points="114.5,17.2 163,12.2 163,9.7 114.5,14.7 "/>
<polygon fill-rule="evenodd" clip-rule="evenodd" points="172.6,35.8 221.1,30.8 221.1,28.3 172.6,33.3 "/>
<polygon fill-rule="evenodd" clip-rule="evenodd" points="172.6,39.5 221.1,34.5 221.1,32 172.6,37 "/>
<polygon fill-rule="evenodd" clip-rule="evenodd" points="237.3,27.1 285.8,25.8 285.8,23.4 237.3,24.6 "/>
<polygon fill-rule="evenodd" clip-rule="evenodd" points="237.3,30.8 285.8,29.6 285.8,27.1 237.3,28.3 "/>
<polygon fill-rule="evenodd" clip-rule="evenodd" points="301.9,25.8 350.4,30.8 350.4,28.3 301.9,23.4 "/>
<polygon fill-rule="evenodd" clip-rule="evenodd" points="301.9,29.6 350.4,34.5 350.4,32 301.9,27.1 "/>
<polygon fill-rule="evenodd" clip-rule="evenodd" points="373.1,11 421.6,15.9 421.6,13.4 373.1,8.5 "/>
<polygon fill-rule="evenodd" clip-rule="evenodd" points="373.1,7.2 421.6,12.2 421.6,9.7 373.1,4.8 "/>
<polygon fill-rule="evenodd" clip-rule="evenodd" points="437.7,20.9 486.2,25.8 486.2,23.4 437.7,18.4 "/>
<polygon fill-rule="evenodd" clip-rule="evenodd" points="437.7,17.2 486.2,22.1 486.2,19.6 437.7,14.7 "/>
<rect x="8.5" y="76.4" width="544.4" height="0.5"/>
<rect x="8.5" y="71.5" width="544.4" height="0.5"/>
<rect x="8.5" y="66.5" width="544.4" height="0.5"/>
<rect x="8.5" y="61.6" width="544.4" height="0.5"/>
<rect x="8.5" y="56.6" width="544.4" height="0.5"/>
<g>
	<path d="M15.7,71c2.9-2.6,4.7-6.1,4.7-9.2c0-2.5-1.4-4.4-3.7-4.4c-1.6,0-3.4,1.3-3.4,2.7c0,0.2,0,0.3,0.1,0.3
		c-0.1,0,0.6-0.6,1.4-0.6c0.9,0,1.5,0.8,1.5,1.7c0,1.2-0.9,2.2-2.1,2.2c-1.2,0-2.1-1.3-2.1-2.8c0-2.3,2.3-4.1,4.8-4.1
		c4.7,0,5.9,3.2,5.9,5.8c0,1.6-0.4,2.9-2,5.3c-1.9,3.1-6.4,5.3-8.1,5.3c-0.4,0-0.6-0.2-0.6-0.5C13.8,72.3,14.9,71.7,15.7,71z
		 M25.7,58.3c0.6,0,1,0.4,1,1c0,0.6-0.4,1-1,1s-1-0.4-1-1C24.7,58.8,25.1,58.3,25.7,58.3z M25.7,63.3c0.6,0,1,0.4,1,1
		c0,0.6-0.4,1-1,1s-1-0.4-1-1C24.7,63.7,25.1,63.3,25.7,63.3z"/>
</g>
<g>
	<path d="M33.5,55v2.8l1-0.3v1.8l-1,0.3V63l1-0.3v1.8l-1,0.3V68H33v-3l-1.9,0.6v3h-0.5v-2.8l-1,0.3v-1.8l1-0.3v-3.4l-1,0.3v-1.8
		l1-0.3v-3.1h0.5v3L33,58v-3H33.5z M33,59.8l-1.9,0.6v3.4l1.9-0.6V59.8z"/>
</g>
<polygon fill-rule="evenodd" clip-rule="evenodd" points="49.8,63 98.4,58.1 98.4,55.6 49.8,60.6 "/>
<polygon fill-rule="evenodd" clip-rule="evenodd" points="49.8,59.3 98.4,54.4 98.4,51.9 49.8,56.8 "/>
<polygon fill-rule="evenodd" clip-rule="evenodd" points="108,77.9 156.5,73 156.5,70.5 108,75.4 "/>
<polygon fill-rule="evenodd" clip-rule="evenodd" points="108,81.6 156.5,76.7 156.5,74.2 108,79.2 "/>
<polygon fill-rule="evenodd" clip-rule="evenodd" points="172.6,68 221.1,63 221.1,60.6 172.6,65.5 "/>
<polygon fill-rule="evenodd" clip-rule="evenodd" points="172.6,71.7 221.1,66.8 221.1,64.3 172.6,69.2 "/>
<polygon fill-rule="evenodd" clip-rule="evenodd" points="237.3,64.3 285.8,63 285.8,60.6 237.3,61.8 "/>
<polygon fill-rule="evenodd" clip-rule="evenodd" points="237.3,68 285.8,66.8 285.8,64.3 237.3,65.5 "/>
<polygon fill-rule="evenodd" clip-rule="evenodd" points="301.9,63 350.4,68 350.4,65.5 301.9,60.6 "/>
<polygon fill-rule="evenodd" clip-rule="evenodd" points="301.9,66.8 350.4,71.7 350.4,69.2 301.9,64.3 "/>
<polygon fill-rule="evenodd" clip-rule="evenodd" points="366.5,73 415.1,77.9 415.1,75.4 366.5,70.5 "/>
<polygon fill-rule="evenodd" clip-rule="evenodd" points="366.5,76.7 415.1,81.6 415.1,79.2 366.5,74.2 "/>
<polygon fill-rule="evenodd" clip-rule="evenodd" points="437.7,58.1 486.2,63 486.2,60.6 437.7,55.6 "/>
<polygon fill-rule="evenodd" clip-rule="evenodd" points="437.7,54.4 486.2,59.3 486.2,56.8 437.7,51.9 "/>
<rect x="41.3" y="34.1" width="10.5" height="0.8"/>
<rect x="41.3" y="39.1" width="10.5" height="0.8"/>
<rect x="49.6" y="19.8" width="0.5" height="21.4"/>
<g>
	<path d="M43.2,42.8c0-1.8,2.5-3.5,4.5-3.5c1.3,0,2.3,0.7,2.3,1.7c0,1.7-2.5,3.5-4.6,3.5C44.2,44.5,43.2,43.9,43.2,42.8z"/>
</g>
<rect x="57.4" y="34.1" width="10.5" height="0.8"/>
<rect x="57.4" y="39.1" width="10.5" height="0.8"/>
<rect x="65.7" y="19.5" width="0.5" height="19.2"/>
<g>
	<path d="M59.3,40.3c0-1.8,2.5-3.5,4.5-3.5c1.3,0,2.3,0.7,2.3,1.7c0,1.7-2.5,3.5-4.6,3.5C60.3,42.1,59.3,41.4,59.3,40.3z"/>
</g>
<rect x="73.7" y="34.1" width="10.5" height="0.8"/>
<rect x="82" y="19" width="0.5" height="17.2"/>
<g>
	<path d="M75.6,37.9c0-1.8,2.5-3.5,4.5-3.5c1.3,0,2.3,0.7,2.3,1.7c0,1.7-2.5,3.5-4.6,3.5C76.6,39.6,75.6,38.9,75.6,37.9z"/>
</g>
<rect x="89.8" y="34.1" width="10.5" height="0.8"/>
<rect x="98.1" y="18.6" width="0.5" height="15.2"/>
<g>
	<path d="M91.7,35.4c0-1.8,2.5-3.5,4.5-3.5c1.3,0,2.3,0.7,2.3,1.7c0,1.7-2.5,3.5-4.6,3.5C92.7,37.1,91.7,36.5,91.7,35.4z"/>
</g>
<rect x="114.3" y="14.8" width="0.5" height="16.4"/>
<g>
	<path d="M107.8,32.9c0-1.8,2.5-3.5,4.5-3.5c1.3,0,2.3,0.7,2.3,1.7c0,1.7-2.5,3.5-4.6,3.5C108.8,34.6,107.8,34,107.8,32.9z"/>
</g>
<rect x="130.4" y="13.3" width="0.5" height="15.5"/>
<g>
	<path d="M123.9,30.4c0-1.8,2.5-3.5,4.5-3.5c1.3,0,2.3,0.7,2.3,1.7c0,1.7-2.5,3.5-4.6,3.5C124.9,32.1,123.9,31.5,123.9,30.4z"/>
</g>
<rect x="146.7" y="11.6" width="0.5" height="14.7"/>
<g>
	<path d="M140.2,27.9c0-1.8,2.5-3.5,4.5-3.5c1.3,0,2.3,0.7,2.3,1.7c0,1.7-2.5,3.5-4.6,3.5C141.2,29.7,140.2,29,140.2,27.9z"/>
</g>
<rect x="162.8" y="9.9" width="0.5" height="14"/>
<g>
	<path d="M156.3,25.5c0-1.8,2.5-3.5,4.5-3.5c1.3,0,2.3,0.7,2.3,1.7c0,1.7-2.5,3.5-4.6,3.5C157.3,27.2,156.3,26.5,156.3,25.5z"/>
</g>
<rect x="172.4" y="22.9" width="0.5" height="16.4"/>
<g>
	<path d="M172.5,23c0-1.8,2.5-3.5,4.5-3.5c1.3,0,2.3,0.7,2.3,1.7c0,1.7-2.5,3.5-4.6,3.5C173.4,24.7,172.5,24.1,172.5,23z"/>
</g>
<rect x="188.5" y="20.4" width="0.5" height="17.4"/>
<g>
	<path d="M188.6,20.5c0-1.8,2.5-3.5,4.5-3.5c1.3,0,2.3,0.7,2.3,1.7c0,1.7-2.5,3.5-4.6,3.5C189.6,22.2,188.6,21.6,188.6,20.5z"/>
</g>
<rect x="204.8" y="17.9" width="0.5" height="18.1"/>
<g>
	<path d="M204.9,18c0-1.8,2.5-3.5,4.5-3.5c1.3,0,2.3,0.7,2.3,1.7c0,1.7-2.5,3.5-4.6,3.5C205.8,19.7,204.9,19.1,204.9,18z"/>
</g>
<rect x="220.9" y="15.5" width="0.5" height="18.9"/>
<g>
	<path d="M221,15.5c0-1.8,2.5-3.5,4.5-3.5c1.3,0,2.3,0.7,2.3,1.7c0,1.7-2.5,3.5-4.6,3.5C222,17.3,221,16.6,221,15.5z"/>
</g>
<rect x="237" y="13" width="0.5" height="17.7"/>
<g>
	<path d="M237.1,13c0-1.8,2.5-3.5,4.5-3.5c1.3,0,2.3,0.7,2.3,1.7c0,1.7-2.5,3.5-4.6,3.5C238.1,14.8,237.1,14.1,237.1,13z"/>
</g>
<rect x="253.2" y="10.5" width="0.5" height="19.8"/>
<g>
	<path d="M253.2,10.6c0-1.8,2.5-3.5,4.5-3.5c1.3,0,2.3,0.7,2.3,1.7c0,1.7-2.5,3.5-4.6,3.5C254.2,12.3,253.2,11.7,253.2,10.6z"/>
</g>
<rect x="269.4" y="8" width="0.5" height="21.9"/>
<g>
	<path d="M269.5,8.1c0-1.8,2.5-3.5,4.5-3.5c1.3,0,2.3,0.7,2.3,1.7c0,1.7-2.5,3.5-4.6,3.5C270.5,9.8,269.5,9.2,269.5,8.1z"/>
</g>
<rect x="285.5" y="10.5" width="0.5" height="18.9"/>
<g>
	<path d="M285.6,10.6c0-1.8,2.5-3.5,4.5-3.5c1.3,0,2.3,0.7,2.3,1.7c0,1.7-2.5,3.5-4.6,3.5C286.6,12.3,285.6,11.7,285.6,10.6z"/>
</g>
<rect x="301.7" y="13" width="0.5" height="16.4"/>
<g>
	<path d="M301.7,13c0-1.8,2.5-3.5,4.5-3.5c1.3,0,2.3,0.7,2.3,1.7c0,1.7-2.5,3.5-4.6,3.5C302.7,14.8,301.7,14.1,301.7,13z"/>
</g>
<rect x="317.9" y="15.5" width="0.5" height="15.5"/>
<g>
	<path d="M318,15.5c0-1.8,2.5-3.5,4.5-3.5c1.3,0,2.3,0.7,2.3,1.7c0,1.7-2.5,3.5-4.6,3.5C319,17.3,318,16.6,318,15.5z"/>
</g>
<rect x="334.1" y="17.9" width="0.5" height="14.7"/>
<g>
	<path d="M334.1,18c0-1.8,2.5-3.5,4.5-3.5c1.3,0,2.3,0.7,2.3,1.7c0,1.7-2.5,3.5-4.6,3.5C335.1,19.7,334.1,19.1,334.1,18z"/>
</g>
<rect x="350.2" y="20.4" width="0.5" height="14"/>
<g>
	<path d="M350.3,20.5c0-1.8,2.5-3.5,4.5-3.5c1.3,0,2.3,0.7,2.3,1.7c0,1.7-2.5,3.5-4.6,3.5C351.2,22.2,350.3,21.6,350.3,20.5z"/>
</g>
<rect x="372.8" y="4.9" width="0.5" height="16.4"/>
<g>
	<path d="M366.4,23c0-1.8,2.5-3.5,4.5-3.5c1.3,0,2.3,0.7,2.3,1.7c0,1.7-2.5,3.5-4.6,3.5C367.4,24.7,366.4,24.1,366.4,23z"/>
</g>
<rect x="389.1" y="6.5" width="0.5" height="17.4"/>
<g>
	<path d="M382.7,25.5c0-1.8,2.5-3.5,4.5-3.5c1.3,0,2.3,0.7,2.3,1.7c0,1.7-2.5,3.5-4.6,3.5C383.6,27.2,382.7,26.5,382.7,25.5z"/>
</g>
<rect x="405.2" y="8.2" width="0.5" height="18.1"/>
<g>
	<path d="M398.8,27.9c0-1.8,2.5-3.5,4.5-3.5c1.3,0,2.3,0.7,2.3,1.7c0,1.7-2.5,3.5-4.6,3.5C399.8,29.7,398.8,29,398.8,27.9z"/>
</g>
<rect x="421.3" y="9.9" width="0.5" height="18.9"/>
<g>
	<path d="M414.9,30.4c0-1.8,2.5-3.5,4.5-3.5c1.3,0,2.3,0.7,2.3,1.7c0,1.7-2.5,3.5-4.6,3.5C415.9,32.1,414.9,31.5,414.9,30.4z"/>
</g>
<rect x="437.5" y="14.8" width="0.5" height="16.4"/>
<g>
	<path d="M431,32.9c0-1.8,2.5-3.5,4.5-3.5c1.3,0,2.3,0.7,2.3,1.7c0,1.7-2.5,3.5-4.6,3.5C432,34.6,431,34,431,32.9z"/>
</g>
<rect x="445.4" y="34.1" width="10.5" height="0.8"/>
<rect x="453.7" y="16.4" width="0.5" height="17.4"/>
<g>
	<path d="M447.3,35.4c0-1.8,2.5-3.5,4.5-3.5c1.3,0,2.3,0.7,2.3,1.7c0,1.7-2.5,3.5-4.6,3.5C448.3,37.1,447.3,36.5,447.3,35.4z"/>
</g>
<rect x="461.6" y="34.1" width="10.5" height="0.8"/>
<rect x="469.9" y="18.1" width="0.5" height="18.1"/>
<g>
	<path d="M463.4,37.9c0-1.8,2.5-3.5,4.5-3.5c1.3,0,2.3,0.7,2.3,1.7c0,1.7-2.5,3.5-4.6,3.5C464.4,39.6,463.4,38.9,463.4,37.9z"/>
</g>
<rect x="477.7" y="34.1" width="10.5" height="0.8"/>
<rect x="477.7" y="39.1" width="10.5" height="0.8"/>
<rect x="486" y="19.8" width="0.5" height="18.9"/>
<g>
	<path d="M479.6,40.3c0-1.8,2.5-3.5,4.5-3.5c1.3,0,2.3,0.7,2.3,1.7c0,1.7-2.5,3.5-4.6,3.5C480.5,42.1,479.6,41.4,479.6,40.3z"/>
</g>
<rect x="493.8" y="34.1" width="10.7" height="0.8"/>
<rect x="493.8" y="39.1" width="10.7" height="0.8"/>
<rect x="502.3" y="19.6" width="0.5" height="21.5"/>
<g>
	<path d="M499.9,39.3c1.6,0,2.7,0.7,2.7,2c0,1.9-2.3,3.4-4.5,3.4c-1.3,0-2.4-0.7-2.4-1.8C495.7,41,497.9,39.3,499.9,39.3z
		 M496.1,43.1c0,0.6,0.4,0.9,1.1,0.9c1.4,0,4.9-2.1,4.9-3.3c0-0.6-0.4-0.9-1.1-0.9C499.8,39.9,496.1,41.9,496.1,43.1z"/>
</g>
<rect x="49.6" y="57" width="0.5" height="18.9"/>
<g>
	<path d="M43.2,77.5c0-1.8,2.5-3.5,4.5-3.5c1.3,0,2.3,0.7,2.3,1.7c0,1.7-2.5,3.5-4.6,3.5C44.2,79.3,43.2,78.6,43.2,77.5z"/>
</g>
<rect x="65.7" y="55.4" width="0.5" height="18"/>
<g>
	<path d="M59.3,75.1c0-1.8,2.5-3.5,4.5-3.5c1.3,0,2.3,0.7,2.3,1.7c0,1.7-2.5,3.5-4.6,3.5C60.3,76.8,59.3,76.1,59.3,75.1z"/>
</g>
<rect x="82" y="53.7" width="0.5" height="17.2"/>
<g>
	<path d="M75.6,72.6c0-1.8,2.5-3.5,4.5-3.5c1.3,0,2.3,0.7,2.3,1.7c0,1.7-2.5,3.5-4.6,3.5C76.6,74.3,75.6,73.7,75.6,72.6z"/>
</g>
<rect x="98.1" y="52" width="0.5" height="16.4"/>
<g>
	<path d="M91.7,70.1c0-1.8,2.5-3.5,4.5-3.5c1.3,0,2.3,0.7,2.3,1.7c0,1.7-2.5,3.5-4.6,3.5C92.7,71.8,91.7,71.2,91.7,70.1z"/>
</g>
<rect x="107.7" y="67.5" width="0.5" height="14"/>
<g>
	<path d="M107.8,67.6c0-1.8,2.5-3.5,4.5-3.5c1.3,0,2.3,0.7,2.3,1.7c0,1.7-2.5,3.5-4.6,3.5C108.8,69.3,107.8,68.7,107.8,67.6z"/>
</g>
<rect x="123.9" y="65.1" width="0.5" height="14.9"/>
<g>
	<path d="M123.9,65.1c0-1.8,2.5-3.5,4.5-3.5c1.3,0,2.3,0.7,2.3,1.7c0,1.7-2.5,3.5-4.6,3.5C124.9,66.9,123.9,66.2,123.9,65.1z"/>
</g>
<rect x="140.1" y="62.6" width="0.5" height="15.7"/>
<g>
	<path d="M140.2,62.7c0-1.8,2.5-3.5,4.5-3.5c1.3,0,2.3,0.7,2.3,1.7c0,1.7-2.5,3.5-4.6,3.5C141.2,64.4,140.2,63.7,140.2,62.7z"/>
</g>
<rect x="156.3" y="60.1" width="0.5" height="16.4"/>
<g>
	<path d="M156.3,60.2c0-1.8,2.5-3.5,4.5-3.5c1.3,0,2.3,0.7,2.3,1.7c0,1.7-2.5,3.5-4.6,3.5C157.3,61.9,156.3,61.3,156.3,60.2z"/>
</g>
<rect x="172.4" y="57.6" width="0.5" height="14"/>
<g>
	<path d="M172.5,57.7c0-1.8,2.5-3.5,4.5-3.5c1.3,0,2.3,0.7,2.3,1.7c0,1.7-2.5,3.5-4.6,3.5C173.4,59.4,172.5,58.8,172.5,57.7z"/>
</g>
<rect x="188.5" y="55.1" width="0.5" height="14.9"/>
<g>
	<path d="M188.6,55.2c0-1.8,2.5-3.5,4.5-3.5c1.3,0,2.3,0.7,2.3,1.7c0,1.7-2.5,3.5-4.6,3.5C189.6,56.9,188.6,56.3,188.6,55.2z"/>
</g>
<rect x="203" y="51.5" width="10.5" height="0.8"/>
<rect x="204.8" y="52.7" width="0.5" height="15.7"/>
<g>
	<path d="M204.9,52.7c0-1.8,2.5-3.5,4.5-3.5c1.3,0,2.3,0.7,2.3,1.7c0,1.7-2.5,3.5-4.6,3.5C205.8,54.5,204.9,53.8,204.9,52.7z"/>
</g>
<rect x="219.1" y="51.5" width="10.5" height="0.8"/>
<rect x="220.9" y="50.2" width="0.5" height="16.4"/>
<g>
	<path d="M221,50.3c0-1.8,2.5-3.5,4.5-3.5c1.3,0,2.3,0.7,2.3,1.7c0,1.7-2.5,3.5-4.6,3.5C222,52,221,51.3,221,50.3z"/>
</g>
<rect x="235.2" y="51.5" width="10.5" height="0.8"/>
<rect x="235.2" y="46.5" width="10.5" height="0.8"/>
<rect x="237" y="47.7" width="0.5" height="20.2"/>
<g>
	<path d="M237.1,47.8c0-1.8,2.5-3.5,4.5-3.5c1.3,0,2.3,0.7,2.3,1.7c0,1.7-2.5,3.5-4.6,3.5C238.1,49.5,237.1,48.9,237.1,47.8z"/>
</g>
<rect x="251.4" y="51.5" width="10.5" height="0.8"/>
<rect x="251.4" y="46.5" width="10.5" height="0.8"/>
<rect x="253.2" y="45.2" width="0.5" height="22.3"/>
<g>
	<path d="M253.2,45.3c0-1.8,2.5-3.5,4.5-3.5c1.3,0,2.3,0.7,2.3,1.7c0,1.7-2.5,3.5-4.6,3.5C254.2,47,253.2,46.4,253.2,45.3z"/>
</g>
<rect x="267.6" y="51.5" width="10.5" height="0.8"/>
<rect x="267.6" y="46.5" width="10.5" height="0.8"/>
<rect x="267.6" y="41.6" width="10.5" height="0.8"/>
<rect x="269.4" y="42.7" width="0.5" height="24.3"/>
<g>
	<path d="M269.5,42.8c0-1.8,2.5-3.5,4.5-3.5c1.3,0,2.3,0.7,2.3,1.7c0,1.7-2.5,3.5-4.6,3.5C270.5,44.5,269.5,43.9,269.5,42.8z"/>
</g>
<rect x="283.8" y="51.5" width="10.5" height="0.8"/>
<rect x="283.8" y="46.5" width="10.5" height="0.8"/>
<rect x="285.5" y="45.2" width="0.5" height="21.4"/>
<g>
	<path d="M285.6,45.3c0-1.8,2.5-3.5,4.5-3.5c1.3,0,2.3,0.7,2.3,1.7c0,1.7-2.5,3.5-4.6,3.5C286.6,47,285.6,46.4,285.6,45.3z"/>
</g>
<rect x="299.9" y="51.5" width="10.5" height="0.8"/>
<rect x="299.9" y="46.5" width="10.5" height="0.8"/>
<rect x="301.7" y="47.7" width="0.5" height="18.9"/>
<g>
	<path d="M301.7,47.8c0-1.8,2.5-3.5,4.5-3.5c1.3,0,2.3,0.7,2.3,1.7c0,1.7-2.5,3.5-4.6,3.5C302.7,49.5,301.7,48.9,301.7,47.8z"/>
</g>
<rect x="316.2" y="51.5" width="10.5" height="0.8"/>
<rect x="317.9" y="50.2" width="0.5" height="18"/>
<g>
	<path d="M318,50.3c0-1.8,2.5-3.5,4.5-3.5c1.3,0,2.3,0.7,2.3,1.7c0,1.7-2.5,3.5-4.6,3.5C319,52,318,51.3,318,50.3z"/>
</g>
<rect x="332.3" y="51.5" width="10.5" height="0.8"/>
<rect x="334.1" y="52.7" width="0.5" height="17.2"/>
<g>
	<path d="M334.1,52.7c0-1.8,2.5-3.5,4.5-3.5c1.3,0,2.3,0.7,2.3,1.7c0,1.7-2.5,3.5-4.6,3.5C335.1,54.5,334.1,53.8,334.1,52.7z"/>
</g>
<rect x="350.2" y="55.1" width="0.5" height="16.4"/>
<g>
	<path d="M350.3,55.2c0-1.8,2.5-3.5,4.5-3.5c1.3,0,2.3,0.7,2.3,1.7c0,1.7-2.5,3.5-4.6,3.5C351.2,56.9,350.3,56.3,350.3,55.2z"/>
</g>
<rect x="366.3" y="57.6" width="0.5" height="18.9"/>
<g>
	<path d="M366.4,57.7c0-1.8,2.5-3.5,4.5-3.5c1.3,0,2.3,0.7,2.3,1.7c0,1.7-2.5,3.5-4.6,3.5C367.4,59.4,366.4,58.8,366.4,57.7z"/>
</g>
<rect x="382.6" y="60.1" width="0.5" height="18"/>
<g>
	<path d="M382.7,60.2c0-1.8,2.5-3.5,4.5-3.5c1.3,0,2.3,0.7,2.3,1.7c0,1.7-2.5,3.5-4.6,3.5C383.6,61.9,382.7,61.3,382.7,60.2z"/>
</g>
<rect x="398.7" y="62.6" width="0.5" height="17.2"/>
<g>
	<path d="M398.8,62.7c0-1.8,2.5-3.5,4.5-3.5c1.3,0,2.3,0.7,2.3,1.7c0,1.7-2.5,3.5-4.6,3.5C399.8,64.4,398.8,63.7,398.8,62.7z"/>
</g>
<rect x="414.8" y="65.1" width="0.5" height="16.4"/>
<g>
	<path d="M414.9,65.1c0-1.8,2.5-3.5,4.5-3.5c1.3,0,2.3,0.7,2.3,1.7c0,1.7-2.5,3.5-4.6,3.5C415.9,66.9,414.9,66.2,414.9,65.1z"/>
</g>
<rect x="437.5" y="52" width="0.5" height="14"/>
<g>
	<path d="M431,67.6c0-1.8,2.5-3.5,4.5-3.5c1.3,0,2.3,0.7,2.3,1.7c0,1.7-2.5,3.5-4.6,3.5C432,69.3,431,68.7,431,67.6z"/>
</g>
<rect x="453.7" y="53.6" width="0.5" height="14.9"/>
<g>
	<path d="M447.3,70.1c0-1.8,2.5-3.5,4.5-3.5c1.3,0,2.3,0.7,2.3,1.7c0,1.7-2.5,3.5-4.6,3.5C448.3,71.8,447.3,71.2,447.3,70.1z"/>
</g>
<rect x="469.9" y="55.3" width="0.5" height="15.7"/>
<g>
	<path d="M463.4,72.6c0-1.8,2.5-3.5,4.5-3.5c1.3,0,2.3,0.7,2.3,1.7c0,1.7-2.5,3.5-4.6,3.5C464.4,74.3,463.4,73.7,463.4,72.6z"/>
</g>
<rect x="486" y="57" width="0.5" height="16.4"/>
<g>
	<path d="M479.6,75.1c0-1.8,2.5-3.5,4.5-3.5c1.3,0,2.3,0.7,2.3,1.7c0,1.7-2.5,3.5-4.6,3.5C480.5,76.8,479.6,76.1,479.6,75.1z"/>
</g>
<rect x="502.3" y="59.3" width="0.5" height="16.6"/>
<g>
	<path d="M499.9,74c1.6,0,2.7,0.7,2.7,2c0,1.9-2.3,3.4-4.5,3.4c-1.3,0-2.4-0.7-2.4-1.8C495.7,75.8,497.9,74,499.9,74z M496.1,77.8
		c0,0.6,0.4,0.9,1.1,0.9c1.4,0,4.9-2.1,4.9-3.3c0-0.6-0.4-0.9-1.1-0.9C499.8,74.6,496.1,76.6,496.1,77.8z"/>
</g>
</svg>
