<?xml version="1.0" encoding="utf-8"?>

<!--
	ScaleBook
	Copyright (c) Leland Jansen 2015. All rights reserved.
-->

<!DOCTYPE svg PUBLIC "-//W3C//DTD SVG 1.1//EN" "http://www.w3.org/Graphics/SVG/1.1/DTD/svg11.dtd">
<svg version="1.1" id="Layer_1" xmlns="http://www.w3.org/2000/svg" xmlns:xlink="http://www.w3.org/1999/xlink" x="0px" y="0px"
	 viewBox="0 0 552.9 85.4" enable-background="new 0 0 552.9 85.4" xml:space="preserve">
<rect x="8.4" y="9.7" width="0.8" height="67"/>
<g>
	<path d="M7.4,10.4c-1.9,1.1-3.6,5.8-3.6,9.4c0,2.3,1.4,9.9,1.4,12.3c0,5-1.5,8.6-4.6,11.1c3,2.4,4.6,6.1,4.6,11.1
		c0,2.3-1.4,9.9-1.4,12.3c0,3.8,1.7,8.4,3.6,9.5v0.7c-3.5-2.3-5.8-8.2-5.8-13.1c0-2.1,1.7-9.4,1.7-11.5c0-3.8-1-6.6-2.9-8.2
		C0.1,43.6,0,43.4,0,43.2c0-0.2,0.1-0.4,0.5-0.7c1.9-1.7,2.9-4.2,2.9-7.6c0-2.1-1.7-10-1.7-12.2c0-5.2,2.1-10.4,5.8-13.1V10.4z"/>
</g>
<rect x="547.8" y="9.7" width="0.8" height="67"/>
<rect x="550.4" y="9.7" width="2.5" height="67"/>
<rect x="8.5" y="29.3" width="544.4" height="0.5"/>
<rect x="8.5" y="24.4" width="544.4" height="0.5"/>
<rect x="8.5" y="19.4" width="544.4" height="0.5"/>
<rect x="8.5" y="14.4" width="544.4" height="0.5"/>
<rect x="8.5" y="9.5" width="544.4" height="0.5"/>
<g>
	<path d="M20.3,29.4c-4.2,0-8.1-3.1-8.1-6.9c0-3.2,2.3-6.7,6.8-10.5c-0.3-1.2-0.4-2.4-0.4-3.6c0-3.5,1.2-6.8,3.2-8.5
		c1.8,2.5,2.7,4.9,2.7,7.1c0,2.9-1.3,5.6-4.3,8.1l0.9,4.2c0.5,0,0.8-0.1,0.8-0.1c2.6,0,4.8,2,4.8,4.7c0,1.9-1.4,3.7-3.6,4.8
		c0-0.1,0.9,3.8,0.9,4.3c0,2.5-2.3,4.2-4.9,4.2c-2,0-3.6-1.3-3.6-3.4c0-1.4,1-2.6,2.4-2.6c1.3,0,2.3,1.3,2.3,2.5
		c0,1.4-1.2,2.3-2.7,2.5c0.6,0.3,1.2,0.5,1.9,0.5c2.1,0,4.1-1.6,4.1-3.6c0-0.2,0-0.4-0.1-0.6l-0.8-3.7
		C21.9,29.3,21.2,29.4,20.3,29.4z M18.1,24.2c0,1,0.5,1.9,1.6,2.5c-1.8-0.3-3-1.4-3-3.1c0-2,1.7-3.7,3.8-4.1l-0.8-4
		C16,18.3,14,21,14,23.6c0,2.9,2.8,5.3,6,5.3c0.9,0,1.7-0.2,2.4-0.5L21,21.6C19.4,21.8,18.1,22.8,18.1,24.2z M22.1,2.8
		c-1.6,0-2.9,3.7-2.9,7c0,0.7,0,1.3,0.2,1.9c2.7-2.4,4-4.5,4-6.5c0-0.9-0.3-1.7-1-2.4C22.4,2.9,22.3,2.8,22.1,2.8z M24.9,24.7
		c0-1.6-1.2-3.3-2.9-3.3c-0.1,0-0.2,0-0.5,0l1.4,6.6C24.2,27.2,24.9,26,24.9,24.7z"/>
</g>
<polygon fill-rule="evenodd" clip-rule="evenodd" points="43.6,25.8 98.2,20.9 98.2,18.4 43.6,23.4 "/>
<polygon fill-rule="evenodd" clip-rule="evenodd" points="43.6,22.1 98.2,17.2 98.2,14.7 43.6,19.6 "/>
<polygon fill-rule="evenodd" clip-rule="evenodd" points="116.4,14.7 170.9,9.7 170.9,7.2 116.4,12.2 "/>
<polygon fill-rule="evenodd" clip-rule="evenodd" points="116.4,11 170.9,6 170.9,3.5 116.4,8.5 "/>
<rect x="190.8" y="23.4" fill-rule="evenodd" clip-rule="evenodd" width="54.6" height="2.5"/>
<rect x="190.8" y="27.1" fill-rule="evenodd" clip-rule="evenodd" width="54.6" height="2.5"/>
<rect x="263.5" y="23.4" fill-rule="evenodd" clip-rule="evenodd" width="54.6" height="2.5"/>
<rect x="263.5" y="27.1" fill-rule="evenodd" clip-rule="evenodd" width="54.6" height="2.5"/>
<polygon fill-rule="evenodd" clip-rule="evenodd" points="344.4,30.8 398.8,35.8 398.8,33.3 344.4,28.3 "/>
<polygon fill-rule="evenodd" clip-rule="evenodd" points="344.4,34.5 398.8,39.5 398.8,37 344.4,32 "/>
<rect x="423.6" y="17.2" fill-rule="evenodd" clip-rule="evenodd" width="54.4" height="2.5"/>
<rect x="423.6" y="13.4" fill-rule="evenodd" clip-rule="evenodd" width="54.4" height="2.5"/>
<rect x="8.5" y="76.4" width="544.4" height="0.5"/>
<rect x="8.5" y="71.5" width="544.4" height="0.5"/>
<rect x="8.5" y="66.5" width="544.4" height="0.5"/>
<rect x="8.5" y="61.6" width="544.4" height="0.5"/>
<rect x="8.5" y="56.6" width="544.4" height="0.5"/>
<g>
	<path d="M15.7,71c2.9-2.6,4.7-6.1,4.7-9.2c0-2.5-1.4-4.4-3.7-4.4c-1.6,0-3.4,1.3-3.4,2.7c0,0.2,0,0.3,0.1,0.3
		c-0.1,0,0.6-0.6,1.4-0.6c0.9,0,1.5,0.8,1.5,1.7c0,1.2-0.9,2.2-2.1,2.2c-1.2,0-2.1-1.3-2.1-2.8c0-2.3,2.3-4.1,4.8-4.1
		c4.7,0,5.9,3.2,5.9,5.8c0,1.6-0.4,2.9-2,5.3c-1.9,3.1-6.4,5.3-8.1,5.3c-0.4,0-0.6-0.2-0.6-0.5C13.8,72.3,14.9,71.7,15.7,71z
		 M25.7,58.3c0.6,0,1,0.4,1,1c0,0.6-0.4,1-1,1s-1-0.4-1-1C24.7,58.8,25.1,58.3,25.7,58.3z M25.7,63.3c0.6,0,1,0.4,1,1
		c0,0.6-0.4,1-1,1s-1-0.4-1-1C24.7,63.7,25.1,63.3,25.7,63.3z"/>
</g>
<polygon fill-rule="evenodd" clip-rule="evenodd" points="43.6,58.1 98.2,53.1 98.2,50.6 43.6,55.6 "/>
<polygon fill-rule="evenodd" clip-rule="evenodd" points="43.6,54.4 98.2,49.4 98.2,46.9 43.6,51.9 "/>
<g>
	<path d="M184.6,75.3c-3.2,0-6.1-2.3-6.1-5.1c0-2.4,1.7-5,5.1-7.9c-0.2-0.9-0.3-1.8-0.3-2.7c0-2.6,0.9-5.1,2.4-6.3
		c1.4,1.9,2,3.7,2,5.3c0,2.2-1,4.2-3.2,6.1l0.7,3.1c0.4,0,0.6,0,0.6,0c2,0,3.6,1.5,3.6,3.5c0,1.4-1.1,2.8-2.7,3.6
		c0-0.1,0.6,2.8,0.6,3.3c0,1.9-1.7,3.2-3.7,3.2c-1.5,0-2.7-1-2.7-2.5c0-1.1,0.7-1.9,1.8-1.9c1,0,1.7,1,1.7,1.9c0,1-0.9,1.7-2,1.8
		c0.4,0.2,0.9,0.3,1.4,0.3c1.6,0,3.1-1.2,3.1-2.7c0-0.1,0-0.3,0-0.5l-0.6-2.8C185.8,75.2,185.3,75.3,184.6,75.3z M182.9,71.4
		c0,0.8,0.4,1.4,1.2,1.9c-1.3-0.2-2.2-1.1-2.2-2.3c0-1.5,1.3-2.8,2.9-3.1l-0.6-3c-2.8,2.1-4.3,4.1-4.3,6.1c0,2.2,2.1,4,4.5,4
		c0.7,0,1.3-0.1,1.8-0.4l-1.1-5.1C183.9,69.6,182.9,70.4,182.9,71.4z M186,55.4c-1.2,0-2.2,2.8-2.2,5.3c0,0.5,0,1,0.1,1.4
		c2-1.8,3-3.4,3-4.9c0-0.7-0.3-1.3-0.7-1.8C186.2,55.4,186.1,55.4,186,55.4z M188,71.8c0-1.2-0.9-2.4-2.2-2.4c0,0-0.2,0-0.4,0l1.1,5
		C187.5,73.7,188,72.8,188,71.8z"/>
</g>
<polygon fill-rule="evenodd" clip-rule="evenodd" points="109.8,77.9 164.4,73 164.4,70.5 109.8,75.4 "/>
<polygon fill-rule="evenodd" clip-rule="evenodd" points="109.8,81.6 164.4,76.7 164.4,74.2 109.8,79.2 "/>
<polygon fill-rule="evenodd" clip-rule="evenodd" points="197.3,68 251.8,63 251.8,60.6 197.3,65.5 "/>
<polygon fill-rule="evenodd" clip-rule="evenodd" points="197.3,64.3 251.8,59.3 251.8,56.8 197.3,61.8 "/>
<g>
	<path d="M332.9,68.7c2.2-2,3.6-4.6,3.6-6.9c0-1.9-1.1-3.3-2.8-3.3c-1.2,0-2.5,1-2.5,2.1c0,0.2,0,0.2,0.1,0.2c0,0,0.4-0.5,1-0.5
		c0.7,0,1.2,0.6,1.2,1.3c0,0.9-0.6,1.7-1.6,1.7s-1.5-1-1.5-2.1c0-1.8,1.7-3.1,3.6-3.1c3.5,0,4.4,2.4,4.4,4.4c0,1.2-0.3,2.2-1.5,4
		c-1.4,2.3-4.8,4-6,4c-0.3,0-0.5-0.1-0.5-0.3C331.5,69.7,332.3,69.2,332.9,68.7z M340.4,59.2c0.4,0,0.7,0.3,0.7,0.7
		c0,0.4-0.3,0.7-0.7,0.7c-0.4,0-0.7-0.3-0.7-0.7C339.6,59.5,340,59.2,340.4,59.2z M340.4,62.9c0.4,0,0.7,0.3,0.7,0.7
		s-0.3,0.7-0.7,0.7c-0.4,0-0.7-0.3-0.7-0.7S340,62.9,340.4,62.9z"/>
</g>
<polygon fill-rule="evenodd" clip-rule="evenodd" points="270,58.1 324.5,63 324.5,60.6 270,55.6 "/>
<polygon fill-rule="evenodd" clip-rule="evenodd" points="270,54.4 324.5,59.3 324.5,56.8 270,51.9 "/>
<polygon fill-rule="evenodd" clip-rule="evenodd" points="344.4,68 398.8,73 398.8,70.5 344.4,65.5 "/>
<polygon fill-rule="evenodd" clip-rule="evenodd" points="344.4,71.7 398.8,76.7 398.8,74.2 344.4,69.2 "/>
<polygon fill-rule="evenodd" clip-rule="evenodd" points="417.1,79.2 471.5,81.6 471.5,79.2 417.1,76.7 "/>
<polygon fill-rule="evenodd" clip-rule="evenodd" points="417.1,82.9 471.5,85.4 471.5,82.9 417.1,80.4 "/>
<rect x="35.1" y="34.1" width="10.5" height="0.8"/>
<rect x="35.1" y="39.1" width="10.5" height="0.8"/>
<rect x="43.4" y="19.8" width="0.5" height="18.9"/>
<g>
	<path d="M37,40.3c0-1.8,2.5-3.5,4.5-3.5c1.3,0,2.3,0.7,2.3,1.7c0,1.7-2.5,3.5-4.6,3.5C38,42.1,37,41.4,37,40.3z"/>
</g>
<rect x="53.3" y="34.1" width="10.5" height="0.8"/>
<rect x="61.6" y="18.2" width="0.5" height="15.5"/>
<g>
	<path d="M55.1,35.4c0-1.8,2.5-3.5,4.5-3.5c1.3,0,2.3,0.7,2.3,1.7c0,1.7-2.5,3.5-4.6,3.5C56.1,37.1,55.1,36.5,55.1,35.4z"/>
</g>
<rect x="79.8" y="16.5" width="0.5" height="14.7"/>
<g>
	<path d="M73.4,32.9c0-1.8,2.5-3.5,4.5-3.5c1.3,0,2.3,0.7,2.3,1.7c0,1.7-2.5,3.5-4.6,3.5C74.4,34.6,73.4,34,73.4,32.9z"/>
</g>
<rect x="98" y="14.8" width="0.5" height="14"/>
<g>
	<path d="M91.5,30.4c0-1.8,2.5-3.5,4.5-3.5c1.3,0,2.3,0.7,2.3,1.7c0,1.7-2.5,3.5-4.6,3.5C92.5,32.1,91.5,31.5,91.5,30.4z"/>
</g>
<g>
	<path d="M85.7,21.2h0.6l-0.1,6.2c0.4-0.7,1-1,1.8-1c1.2,0,2.2,0.8,2.2,1.9c0,0.8-0.5,1.8-1.7,2.7l-2.8,2.1V21.2z M86.2,28.1
		c-0.1,0.8-0.1,1.4-0.1,1.9c0,1,0,1.6,0.1,2c1-0.7,2.4-2.6,2.4-3.7c0-0.6-0.5-1.1-1.1-1.1C86.9,27.3,86.5,27.6,86.2,28.1z"/>
</g>
<rect x="116.1" y="8.6" width="0.5" height="20.2"/>
<g>
	<path d="M109.7,30.4c0-1.8,2.5-3.5,4.5-3.5c1.3,0,2.3,0.7,2.3,1.7c0,1.7-2.5,3.5-4.6,3.5C110.7,32.1,109.7,31.5,109.7,30.4z"/>
</g>
<g>
	<path d="M107.8,36.3v-4l-3,1.1V22.8h0.5v4l3-1.1v10.7H107.8z M105.2,31.7l2.5-0.9v-3.3l-2.5,0.9V31.7z"/>
</g>
<rect x="134.3" y="7.1" width="0.5" height="16.7"/>
<g>
	<path d="M127.8,25.5c0-1.8,2.5-3.5,4.5-3.5c1.3,0,2.3,0.7,2.3,1.7c0,1.7-2.5,3.5-4.6,3.5C128.8,27.2,127.8,26.5,127.8,25.5z"/>
</g>
<rect x="152.5" y="5.4" width="0.5" height="16"/>
<g>
	<path d="M146.1,23c0-1.8,2.5-3.5,4.5-3.5c1.3,0,2.3,0.7,2.3,1.7c0,1.7-2.5,3.5-4.6,3.5C147.1,24.7,146.1,24.1,146.1,23z"/>
</g>
<rect x="170.7" y="3.7" width="0.5" height="12.7"/>
<g>
	<path d="M164.2,18c0-1.8,2.5-3.5,4.5-3.5c1.3,0,2.3,0.7,2.3,1.7c0,1.7-2.5,3.5-4.6,3.5C165.2,19.7,164.2,19.1,164.2,18z"/>
</g>
<rect x="190.5" y="15.5" width="0.5" height="14"/>
<g>
	<path d="M190.6,15.5c0-1.8,2.5-3.5,4.5-3.5c1.3,0,2.3,0.7,2.3,1.7c0,1.7-2.5,3.5-4.6,3.5C191.6,17.3,190.6,16.6,190.6,15.5z"/>
</g>
<rect x="208.7" y="13" width="0.5" height="16.4"/>
<g>
	<path d="M208.7,13c0-1.8,2.5-3.5,4.5-3.5c1.3,0,2.3,0.7,2.3,1.7c0,1.7-2.5,3.5-4.6,3.5C209.7,14.8,208.7,14.1,208.7,13z"/>
</g>
<g>
	<path d="M202.8,3.9h0.6l-0.1,6.2c0.4-0.7,1-1,1.8-1c1.2,0,2.2,0.8,2.2,1.9c0,0.8-0.5,1.8-1.7,2.7l-2.8,2.1V3.9z M203.4,10.8
		c-0.1,0.8-0.1,1.4-0.1,1.9c0,1,0,1.6,0.1,2c1-0.7,2.4-2.6,2.4-3.7c0-0.6-0.5-1.1-1.1-1.1C204.1,10,203.7,10.2,203.4,10.8z"/>
</g>
<rect x="226.8" y="13" width="0.5" height="16.4"/>
<g>
	<path d="M226.9,13c0-1.8,2.5-3.5,4.5-3.5c1.3,0,2.3,0.7,2.3,1.7c0,1.7-2.5,3.5-4.6,3.5C227.8,14.8,226.9,14.1,226.9,13z"/>
</g>
<g>
	<path d="M225,19v-4l-3,1.1V5.4h0.5v4l3-1.1V19H225z M222.4,14.3l2.5-0.9v-3.3l-2.5,0.9V14.3z"/>
</g>
<rect x="245.1" y="8" width="0.5" height="21.4"/>
<g>
	<path d="M245.2,8.1c0-1.8,2.5-3.5,4.5-3.5c1.3,0,2.3,0.7,2.3,1.7c0,1.7-2.5,3.5-4.6,3.5C246.1,9.8,245.2,9.2,245.2,8.1z"/>
</g>
<rect x="261.4" y="4.4" width="10.5" height="0.8"/>
<rect x="263.2" y="5.5" width="0.5" height="23.9"/>
<g>
	<path d="M263.3,5.6c0-1.8,2.5-3.5,4.5-3.5c1.3,0,2.3,0.7,2.3,1.7c0,1.7-2.5,3.5-4.6,3.5C264.3,7.3,263.3,6.7,263.3,5.6z"/>
</g>
<rect x="281.4" y="8" width="0.5" height="21.4"/>
<g>
	<path d="M281.4,8.1c0-1.8,2.5-3.5,4.5-3.5c1.3,0,2.3,0.7,2.3,1.7c0,1.7-2.5,3.5-4.6,3.5C282.4,9.8,281.4,9.2,281.4,8.1z"/>
</g>
<rect x="299.5" y="13" width="0.5" height="16.4"/>
<g>
	<path d="M299.6,13c0-1.8,2.5-3.5,4.5-3.5c1.3,0,2.3,0.7,2.3,1.7c0,1.7-2.5,3.5-4.6,3.5C300.5,14.8,299.6,14.1,299.6,13z"/>
</g>
<rect x="317.8" y="13" width="0.5" height="16.4"/>
<g>
	<path d="M317.9,13c0-1.8,2.5-3.5,4.5-3.5c1.3,0,2.3,0.7,2.3,1.7c0,1.7-2.5,3.5-4.6,3.5C318.8,14.8,317.9,14.1,317.9,13z"/>
</g>
<g>
	<path d="M312,3.9h0.6l-0.1,6.2c0.4-0.7,1-1,1.8-1c1.2,0,2.2,0.8,2.2,1.9c0,0.8-0.5,1.8-1.7,2.7l-2.8,2.1V3.9z M312.6,10.8
		c-0.1,0.8-0.1,1.4-0.1,1.9c0,1,0,1.6,0.1,2c1-0.7,2.4-2.6,2.4-3.7c0-0.6-0.5-1.1-1.1-1.1C313.3,10,312.9,10.2,312.6,10.8z"/>
</g>
<rect x="344.1" y="15.5" width="0.5" height="18.9"/>
<g>
	<path d="M344.2,15.5c0-1.8,2.5-3.5,4.5-3.5c1.3,0,2.3,0.7,2.3,1.7c0,1.7-2.5,3.5-4.6,3.5C345.2,17.3,344.2,16.6,344.2,15.5z"/>
</g>
<rect x="362.3" y="17.9" width="0.5" height="18"/>
<g>
	<path d="M362.4,18c0-1.8,2.5-3.5,4.5-3.5c1.3,0,2.3,0.7,2.3,1.7c0,1.7-2.5,3.5-4.6,3.5C363.3,19.7,362.4,19.1,362.4,18z"/>
</g>
<rect x="380.4" y="22.9" width="0.5" height="14.7"/>
<g>
	<path d="M380.5,23c0-1.8,2.5-3.5,4.5-3.5c1.3,0,2.3,0.7,2.3,1.7c0,1.7-2.5,3.5-4.6,3.5C381.5,24.7,380.5,24.1,380.5,23z"/>
</g>
<rect x="398.6" y="25.4" width="0.5" height="14"/>
<g>
	<path d="M398.6,25.5c0-1.8,2.5-3.5,4.5-3.5c1.3,0,2.3,0.7,2.3,1.7c0,1.7-2.5,3.5-4.6,3.5C399.6,27.2,398.6,26.5,398.6,25.5z"/>
</g>
<rect x="423.4" y="13.6" width="0.5" height="15.2"/>
<g>
	<path d="M416.9,30.4c0-1.8,2.5-3.5,4.5-3.5c1.3,0,2.3,0.7,2.3,1.7c0,1.7-2.5,3.5-4.6,3.5C417.9,32.1,416.9,31.5,416.9,30.4z"/>
</g>
<g>
	<path d="M415,36.3v-4l-3,1.1V22.8h0.5v4l3-1.1v10.7H415z M412.5,31.7l2.5-0.9v-3.3l-2.5,0.9V31.7z"/>
</g>
<rect x="441.5" y="13.6" width="0.5" height="15.2"/>
<g>
	<path d="M435.1,30.4c0-1.8,2.5-3.5,4.5-3.5c1.3,0,2.3,0.7,2.3,1.7c0,1.7-2.5,3.5-4.6,3.5C436,32.1,435.1,31.5,435.1,30.4z"/>
</g>
<g>
	<path d="M429.2,21.2h0.6l-0.1,6.2c0.4-0.7,1-1,1.8-1c1.2,0,2.2,0.8,2.2,1.9c0,0.8-0.5,1.8-1.7,2.7l-2.8,2.1V21.2z M429.7,28.1
		c-0.1,0.8-0.1,1.4-0.1,1.9c0,1,0,1.6,0.1,2c1-0.7,2.4-2.6,2.4-3.7c0-0.6-0.5-1.1-1.1-1.1C430.5,27.3,430,27.6,429.7,28.1z"/>
</g>
<rect x="459.6" y="13.6" width="0.5" height="17.7"/>
<g>
	<path d="M453.2,32.9c0-1.8,2.5-3.5,4.5-3.5c1.3,0,2.3,0.7,2.3,1.7c0,1.7-2.5,3.5-4.6,3.5C454.2,34.6,453.2,34,453.2,32.9z"/>
</g>
<rect x="469.5" y="34.1" width="10.5" height="0.8"/>
<rect x="477.8" y="13.6" width="0.5" height="20.2"/>
<g>
	<path d="M471.3,35.4c0-1.8,2.5-3.5,4.5-3.5c1.3,0,2.3,0.7,2.3,1.7c0,1.7-2.5,3.5-4.6,3.5C472.3,37.1,471.3,36.5,471.3,35.4z"/>
</g>
<rect x="487.8" y="34.1" width="10.7" height="0.8"/>
<rect x="487.8" y="39.1" width="10.7" height="0.8"/>
<rect x="496.2" y="19.6" width="0.5" height="19.1"/>
<g>
	<path d="M493.9,36.8c1.6,0,2.7,0.7,2.7,2c0,1.9-2.3,3.4-4.5,3.4c-1.3,0-2.4-0.7-2.4-1.8C489.6,38.6,491.9,36.8,493.9,36.8z
		 M490.1,40.6c0,0.6,0.4,0.9,1.1,0.9c1.4,0,4.9-2.1,4.9-3.3c0-0.6-0.4-0.9-1.1-0.9C493.8,37.4,490.1,39.4,490.1,40.6z"/>
</g>
<rect x="43.4" y="52" width="0.5" height="21.4"/>
<g>
	<path d="M37,75.1c0-1.8,2.5-3.5,4.5-3.5c1.3,0,2.3,0.7,2.3,1.7c0,1.7-2.5,3.5-4.6,3.5C38,76.8,37,76.1,37,75.1z"/>
</g>
<rect x="61.6" y="50.5" width="0.5" height="18"/>
<g>
	<path d="M55.1,70.1c0-1.8,2.5-3.5,4.5-3.5c1.3,0,2.3,0.7,2.3,1.7c0,1.7-2.5,3.5-4.6,3.5C56.1,71.8,55.1,71.2,55.1,70.1z"/>
</g>
<rect x="79.8" y="48.8" width="0.5" height="17.2"/>
<g>
	<path d="M73.4,67.6c0-1.8,2.5-3.5,4.5-3.5c1.3,0,2.3,0.7,2.3,1.7c0,1.7-2.5,3.5-4.6,3.5C74.4,69.3,73.4,68.7,73.4,67.6z"/>
</g>
<rect x="98" y="47.1" width="0.5" height="16.4"/>
<g>
	<path d="M91.5,65.1c0-1.8,2.5-3.5,4.5-3.5c1.3,0,2.3,0.7,2.3,1.7c0,1.7-2.5,3.5-4.6,3.5C92.5,66.9,91.5,66.2,91.5,65.1z"/>
</g>
<g>
	<path d="M85.7,56h0.6l-0.1,6.2c0.4-0.7,1-1,1.8-1c1.2,0,2.2,0.8,2.2,1.9c0,0.8-0.5,1.8-1.7,2.7l-2.8,2.1V56z M86.2,62.9
		c-0.1,0.8-0.1,1.4-0.1,1.9c0,1,0,1.6,0.1,2c1-0.7,2.4-2.6,2.4-3.7c0-0.6-0.5-1.1-1.1-1.1C86.9,62,86.5,62.3,86.2,62.9z"/>
</g>
<rect x="109.6" y="65.1" width="0.5" height="16.4"/>
<g>
	<path d="M109.7,65.1c0-1.8,2.5-3.5,4.5-3.5c1.3,0,2.3,0.7,2.3,1.7c0,1.7-2.5,3.5-4.6,3.5C110.7,66.9,109.7,66.2,109.7,65.1z"/>
</g>
<g>
	<path d="M107.8,71v-4l-3,1.1V57.5h0.5v4l3-1.1V71H107.8z M105.2,66.4l2.5-0.9v-3.3l-2.5,0.9V66.4z"/>
</g>
<rect x="127.7" y="60.1" width="0.5" height="19.8"/>
<g>
	<path d="M127.8,60.2c0-1.8,2.5-3.5,4.5-3.5c1.3,0,2.3,0.7,2.3,1.7c0,1.7-2.5,3.5-4.6,3.5C128.8,61.9,127.8,61.3,127.8,60.2z"/>
</g>
<rect x="146" y="57.6" width="0.5" height="20.6"/>
<g>
	<path d="M146.1,57.7c0-1.8,2.5-3.5,4.5-3.5c1.3,0,2.3,0.7,2.3,1.7c0,1.7-2.5,3.5-4.6,3.5C147.1,59.4,146.1,58.8,146.1,57.7z"/>
</g>
<rect x="162.4" y="51.5" width="10.5" height="0.8"/>
<rect x="164.2" y="52.7" width="0.5" height="23.9"/>
<g>
	<path d="M164.2,52.7c0-1.8,2.5-3.5,4.5-3.5c1.3,0,2.3,0.7,2.3,1.7c0,1.7-2.5,3.5-4.6,3.5C165.2,54.5,164.2,53.8,164.2,52.7z"/>
</g>
<rect x="197" y="62" width="0.5" height="16.4"/>
<g>
	<path d="M190.6,80c0-1.8,2.5-3.5,4.5-3.5c1.3,0,2.3,0.7,2.3,1.7c0,1.7-2.5,3.5-4.6,3.5C191.6,81.7,190.6,81.1,190.6,80z"/>
</g>
<rect x="215.2" y="60.4" width="0.5" height="15.5"/>
<g>
	<path d="M208.7,77.5c0-1.8,2.5-3.5,4.5-3.5c1.3,0,2.3,0.7,2.3,1.7c0,1.7-2.5,3.5-4.6,3.5C209.7,79.3,208.7,78.6,208.7,77.5z"/>
</g>
<g>
	<path d="M202.8,68.4h0.6l-0.1,6.2c0.4-0.7,1-1,1.8-1c1.2,0,2.2,0.8,2.2,1.9c0,0.8-0.5,1.8-1.7,2.7l-2.8,2.1V68.4z M203.4,75.3
		c-0.1,0.8-0.1,1.4-0.1,1.9c0,1,0,1.6,0.1,2c1-0.7,2.4-2.6,2.4-3.7c0-0.6-0.5-1.1-1.1-1.1C204.1,74.4,203.7,74.7,203.4,75.3z"/>
</g>
<rect x="233.3" y="58.7" width="0.5" height="17.2"/>
<g>
	<path d="M226.9,77.5c0-1.8,2.5-3.5,4.5-3.5c1.3,0,2.3,0.7,2.3,1.7c0,1.7-2.5,3.5-4.6,3.5C227.8,79.3,226.9,78.6,226.9,77.5z"/>
</g>
<g>
	<path d="M225,83.4v-4l-3,1.1V69.9h0.5v4l3-1.1v10.7H225z M222.4,78.8l2.5-0.9v-3.3l-2.5,0.9V78.8z"/>
</g>
<rect x="251.6" y="57" width="0.5" height="14"/>
<g>
	<path d="M245.2,72.6c0-1.8,2.5-3.5,4.5-3.5c1.3,0,2.3,0.7,2.3,1.7c0,1.7-2.5,3.5-4.6,3.5C246.1,74.3,245.2,73.7,245.2,72.6z"/>
</g>
<rect x="269.7" y="52" width="0.5" height="16.4"/>
<g>
	<path d="M263.3,70.1c0-1.8,2.5-3.5,4.5-3.5c1.3,0,2.3,0.7,2.3,1.7c0,1.7-2.5,3.5-4.6,3.5C264.3,71.8,263.3,71.2,263.3,70.1z"/>
</g>
<rect x="287.9" y="53.6" width="0.5" height="17.4"/>
<g>
	<path d="M281.4,72.6c0-1.8,2.5-3.5,4.5-3.5c1.3,0,2.3,0.7,2.3,1.7c0,1.7-2.5,3.5-4.6,3.5C282.4,74.3,281.4,73.7,281.4,72.6z"/>
</g>
<rect x="306" y="55.3" width="0.5" height="20.6"/>
<g>
	<path d="M299.6,77.5c0-1.8,2.5-3.5,4.5-3.5c1.3,0,2.3,0.7,2.3,1.7c0,1.7-2.5,3.5-4.6,3.5C300.5,79.3,299.6,78.6,299.6,77.5z"/>
</g>
<rect x="324.3" y="57" width="0.5" height="18.9"/>
<g>
	<path d="M317.9,77.5c0-1.8,2.5-3.5,4.5-3.5c1.3,0,2.3,0.7,2.3,1.7c0,1.7-2.5,3.5-4.6,3.5C318.8,79.3,317.9,78.6,317.9,77.5z"/>
</g>
<g>
	<path d="M312,68.4h0.6l-0.1,6.2c0.4-0.7,1-1,1.8-1c1.2,0,2.2,0.8,2.2,1.9c0,0.8-0.5,1.8-1.7,2.7l-2.8,2.1V68.4z M312.6,75.3
		c-0.1,0.8-0.1,1.4-0.1,1.9c0,1,0,1.6,0.1,2c1-0.7,2.4-2.6,2.4-3.7c0-0.6-0.5-1.1-1.1-1.1C313.3,74.4,312.9,74.7,312.6,75.3z"/>
</g>
<rect x="342.4" y="51.5" width="10.5" height="0.8"/>
<rect x="344.1" y="50.2" width="0.5" height="21.4"/>
<g>
	<path d="M344.2,50.3c0-1.8,2.5-3.5,4.5-3.5c1.3,0,2.3,0.7,2.3,1.7c0,1.7-2.5,3.5-4.6,3.5C345.2,52,344.2,51.3,344.2,50.3z"/>
</g>
<rect x="360.5" y="51.5" width="10.5" height="0.8"/>
<rect x="362.3" y="52.7" width="0.5" height="20.5"/>
<g>
	<path d="M362.4,52.7c0-1.8,2.5-3.5,4.5-3.5c1.3,0,2.3,0.7,2.3,1.7c0,1.7-2.5,3.5-4.6,3.5C363.3,54.5,362.4,53.8,362.4,52.7z"/>
</g>
<rect x="380.4" y="57.6" width="0.5" height="17.2"/>
<g>
	<path d="M380.5,57.7c0-1.8,2.5-3.5,4.5-3.5c1.3,0,2.3,0.7,2.3,1.7c0,1.7-2.5,3.5-4.6,3.5C381.5,59.4,380.5,58.8,380.5,57.7z"/>
</g>
<rect x="398.6" y="60.1" width="0.5" height="16.4"/>
<g>
	<path d="M398.6,60.2c0-1.8,2.5-3.5,4.5-3.5c1.3,0,2.3,0.7,2.3,1.7c0,1.7-2.5,3.5-4.6,3.5C399.6,61.9,398.6,61.3,398.6,60.2z"/>
</g>
<rect x="416.8" y="65.1" width="0.5" height="17.7"/>
<g>
	<path d="M416.9,65.1c0-1.8,2.5-3.5,4.5-3.5c1.3,0,2.3,0.7,2.3,1.7c0,1.7-2.5,3.5-4.6,3.5C417.9,66.9,416.9,66.2,416.9,65.1z"/>
</g>
<g>
	<path d="M415,71v-4l-3,1.1V57.5h0.5v4l3-1.1V71H415z M412.5,66.4l2.5-0.9v-3.3l-2.5,0.9V66.4z"/>
</g>
<rect x="435" y="65.1" width="0.5" height="18.4"/>
<g>
	<path d="M435.1,65.1c0-1.8,2.5-3.5,4.5-3.5c1.3,0,2.3,0.7,2.3,1.7c0,1.7-2.5,3.5-4.6,3.5C436,66.9,435.1,66.2,435.1,65.1z"/>
</g>
<g>
	<path d="M429.2,56h0.6l-0.1,6.2c0.4-0.7,1-1,1.8-1c1.2,0,2.2,0.8,2.2,1.9c0,0.8-0.5,1.8-1.7,2.7l-2.8,2.1V56z M429.7,62.9
		c-0.1,0.8-0.1,1.4-0.1,1.9c0,1,0,1.6,0.1,2c1-0.7,2.4-2.6,2.4-3.7c0-0.6-0.5-1.1-1.1-1.1C430.5,62,430,62.3,429.7,62.9z"/>
</g>
<rect x="453.1" y="67.5" width="0.5" height="16.7"/>
<g>
	<path d="M453.2,67.6c0-1.8,2.5-3.5,4.5-3.5c1.3,0,2.3,0.7,2.3,1.7c0,1.7-2.5,3.5-4.6,3.5C454.2,69.3,453.2,68.7,453.2,67.6z"/>
</g>
<rect x="471.3" y="70" width="0.5" height="15.2"/>
<g>
	<path d="M471.3,70.1c0-1.8,2.5-3.5,4.5-3.5c1.3,0,2.3,0.7,2.3,1.7c0,1.7-2.5,3.5-4.6,3.5C472.3,71.8,471.3,71.2,471.3,70.1z"/>
</g>
<rect x="496.2" y="56.8" width="0.5" height="16.6"/>
<g>
	<path d="M493.9,71.5c1.6,0,2.7,0.7,2.7,2c0,1.9-2.3,3.4-4.5,3.4c-1.3,0-2.4-0.7-2.4-1.8C489.6,73.3,491.9,71.5,493.9,71.5z
		 M490.1,75.4c0,0.6,0.4,0.9,1.1,0.9c1.4,0,4.9-2.1,4.9-3.3c0-0.6-0.4-0.9-1.1-0.9C493.8,72.1,490.1,74.1,490.1,75.4z"/>
</g>
</svg>
