<?xml version="1.0" encoding="utf-8"?>

<!--
	ScaleBook
	Copyright (c) Leland Jansen 2015. All rights reserved.
-->

<!DOCTYPE svg PUBLIC "-//W3C//DTD SVG 1.1//EN" "http://www.w3.org/Graphics/SVG/1.1/DTD/svg11.dtd">
<svg version="1.1" id="Layer_1" xmlns="http://www.w3.org/2000/svg" xmlns:xlink="http://www.w3.org/1999/xlink" x="0px" y="0px"
	 viewBox="0 0 553 91.1" enable-background="new 0 0 553 91.1" xml:space="preserve">
<rect x="8.5" y="15.8" width="0.8" height="69.1"/>
<g>
	<path d="M7.6,16.4c-2,1.1-3.7,5.9-3.7,9.7c0,2.4,1.4,10.2,1.4,12.7c0,5.1-1.6,8.9-4.7,11.5c3.1,2.5,4.7,6.3,4.7,11.4
		c0,2.4-1.4,10.2-1.4,12.7c0,3.9,1.8,8.7,3.7,9.8v0.7C4,82.5,1.7,76.4,1.7,71.4c0-2.2,1.8-9.7,1.8-11.9c0-3.9-1-6.8-3-8.5
		C0.1,50.7,0,50.5,0,50.3s0.1-0.4,0.5-0.7c2-1.7,3-4.4,3-7.8c0-2.2-1.8-10.4-1.8-12.6c0-5.3,2.1-10.7,5.9-13.5V16.4z"/>
</g>
<rect x="548" y="15.8" width="0.8" height="69.1"/>
<rect x="550.5" y="15.8" width="2.5" height="69.1"/>
<rect x="8.6" y="35.4" width="544.4" height="0.5"/>
<rect x="8.6" y="30.4" width="544.4" height="0.5"/>
<rect x="8.6" y="25.4" width="544.4" height="0.5"/>
<rect x="8.6" y="20.5" width="544.4" height="0.5"/>
<rect x="8.6" y="15.5" width="544.4" height="0.5"/>
<g>
	<path d="M20.4,35.4c-4.2,0-8.1-3.1-8.1-6.9c0-3.2,2.3-6.7,6.8-10.5c-0.3-1.2-0.4-2.4-0.4-3.6c0-3.5,1.2-6.8,3.2-8.5
		c1.8,2.5,2.7,4.9,2.7,7.1c0,2.9-1.3,5.6-4.3,8.1l0.9,4.2c0.5,0,0.8-0.1,0.8-0.1c2.6,0,4.8,2,4.8,4.7c0,1.9-1.4,3.7-3.6,4.8
		c0-0.1,0.9,3.8,0.9,4.3c0,2.5-2.3,4.2-4.9,4.2c-2,0-3.6-1.3-3.6-3.4c0-1.4,1-2.6,2.4-2.6c1.3,0,2.3,1.3,2.3,2.5
		c0,1.4-1.2,2.3-2.7,2.5c0.6,0.3,1.2,0.5,1.9,0.5c2.1,0,4.1-1.6,4.1-3.6c0-0.2,0-0.4-0.1-0.6L22.7,35C22.1,35.3,21.4,35.4,20.4,35.4
		z M18.2,30.2c0,1,0.5,1.9,1.6,2.5c-1.8-0.3-3-1.4-3-3.1c0-2,1.7-3.7,3.8-4.1l-0.8-4c-3.7,2.8-5.7,5.5-5.7,8.1c0,2.9,2.8,5.3,6,5.3
		c0.9,0,1.7-0.2,2.4-0.5l-1.4-6.8C19.5,27.8,18.2,28.8,18.2,30.2z M22.3,8.9c-1.6,0-2.9,3.7-2.9,7c0,0.7,0,1.3,0.2,1.9
		c2.7-2.4,4-4.5,4-6.5c0-0.9-0.3-1.7-1-2.4C22.5,8.9,22.4,8.9,22.3,8.9z M25,30.8c0-1.6-1.2-3.3-2.9-3.3c-0.1,0-0.2,0-0.5,0l1.4,6.6
		C24.4,33.2,25,32.1,25,30.8z"/>
</g>
<polygon fill-rule="evenodd" clip-rule="evenodd" points="43.8,26.9 98.4,22 98.4,19.5 43.8,24.4 "/>
<polygon fill-rule="evenodd" clip-rule="evenodd" points="43.8,23.2 98.4,18.2 98.4,15.8 43.8,20.7 "/>
<polygon fill-rule="evenodd" clip-rule="evenodd" points="110,41.8 164.6,36.8 164.6,34.4 110,39.3 "/>
<polygon fill-rule="evenodd" clip-rule="evenodd" points="110,45.5 164.6,40.6 164.6,38.1 110,43 "/>
<rect x="190.9" y="24.4" fill-rule="evenodd" clip-rule="evenodd" width="54.6" height="2.5"/>
<rect x="190.9" y="28.2" fill-rule="evenodd" clip-rule="evenodd" width="54.6" height="2.5"/>
<rect x="263.6" y="24.4" fill-rule="evenodd" clip-rule="evenodd" width="54.6" height="2.5"/>
<rect x="263.6" y="28.2" fill-rule="evenodd" clip-rule="evenodd" width="54.6" height="2.5"/>
<polygon fill-rule="evenodd" clip-rule="evenodd" points="344.5,31.9 398.9,36.8 398.9,34.4 344.5,29.4 "/>
<polygon fill-rule="evenodd" clip-rule="evenodd" points="344.5,35.6 398.9,40.6 398.9,38.1 344.5,33.1 "/>
<rect x="423.7" y="18.2" fill-rule="evenodd" clip-rule="evenodd" width="54.4" height="2.5"/>
<rect x="423.7" y="14.5" fill-rule="evenodd" clip-rule="evenodd" width="54.4" height="2.5"/>
<rect x="8.6" y="84.7" width="544.4" height="0.5"/>
<rect x="8.6" y="79.7" width="544.4" height="0.5"/>
<rect x="8.6" y="74.7" width="544.4" height="0.5"/>
<rect x="8.6" y="69.8" width="544.4" height="0.5"/>
<rect x="8.6" y="64.8" width="544.4" height="0.5"/>
<g>
	<path d="M15.9,79.2c2.9-2.6,4.7-6.1,4.7-9.2c0-2.5-1.4-4.4-3.7-4.4c-1.6,0-3.4,1.3-3.4,2.7c0,0.2,0,0.3,0.1,0.3
		c-0.1,0,0.6-0.6,1.4-0.6c0.9,0,1.5,0.8,1.5,1.7c0,1.2-0.9,2.2-2.1,2.2c-1.2,0-2.1-1.3-2.1-2.8c0-2.3,2.3-4.1,4.8-4.1
		c4.7,0,5.9,3.2,5.9,5.8c0,1.6-0.4,2.9-2,5.3c-1.9,3.1-6.4,5.3-8.1,5.3c-0.4,0-0.6-0.2-0.6-0.5C14,80.5,15.1,79.9,15.9,79.2z
		 M25.8,66.5c0.6,0,1,0.4,1,1c0,0.6-0.4,1-1,1s-1-0.4-1-1C24.8,67,25.3,66.5,25.8,66.5z M25.8,71.5c0.6,0,1,0.4,1,1c0,0.6-0.4,1-1,1
		s-1-0.4-1-1C24.8,71.9,25.3,71.5,25.8,71.5z"/>
</g>
<polygon fill-rule="evenodd" clip-rule="evenodd" points="37.3,87.4 91.9,82.4 91.9,79.9 37.3,84.9 "/>
<polygon fill-rule="evenodd" clip-rule="evenodd" points="37.3,91.1 91.9,86.1 91.9,83.6 37.3,88.6 "/>
<g>
	<path d="M184.8,83.5c-3.2,0-6.1-2.3-6.1-5.1c0-2.4,1.7-5,5.1-7.9c-0.2-0.9-0.3-1.8-0.3-2.7c0-2.6,0.9-5.1,2.4-6.3
		c1.4,1.9,2,3.7,2,5.3c0,2.2-1,4.2-3.2,6.1l0.7,3.1c0.4,0,0.6,0,0.6,0c2,0,3.6,1.5,3.6,3.5c0,1.4-1.1,2.8-2.7,3.6
		c0-0.1,0.6,2.8,0.6,3.3c0,1.9-1.7,3.2-3.7,3.2c-1.5,0-2.7-1-2.7-2.5c0-1.1,0.7-1.9,1.8-1.9c1,0,1.7,1,1.7,1.9c0,1-0.9,1.7-2,1.8
		c0.4,0.2,0.9,0.3,1.4,0.3c1.6,0,3.1-1.2,3.1-2.7c0-0.1,0-0.3,0-0.5l-0.6-2.8C186,83.4,185.4,83.5,184.8,83.5z M183.1,79.6
		c0,0.8,0.4,1.4,1.2,1.9c-1.3-0.2-2.2-1.1-2.2-2.3c0-1.5,1.3-2.8,2.9-3.1l-0.6-3c-2.8,2.1-4.3,4.1-4.3,6.1c0,2.2,2.1,4,4.5,4
		c0.7,0,1.3-0.1,1.8-0.4l-1.1-5.1C184.1,77.8,183.1,78.6,183.1,79.6z M186.1,63.6c-1.2,0-2.2,2.8-2.2,5.3c0,0.5,0,1,0.1,1.4
		c2-1.8,3-3.4,3-4.9c0-0.7-0.3-1.3-0.7-1.8C186.3,63.6,186.2,63.6,186.1,63.6z M188.2,80c0-1.2-0.9-2.4-2.2-2.4c0,0-0.2,0-0.4,0
		l1.1,5C187.7,81.9,188.2,81,188.2,80z"/>
</g>
<polygon fill-rule="evenodd" clip-rule="evenodd" points="110,81.2 164.6,76.2 164.6,73.7 110,78.7 "/>
<polygon fill-rule="evenodd" clip-rule="evenodd" points="110,84.9 164.6,79.9 164.6,77.4 110,82.4 "/>
<polygon fill-rule="evenodd" clip-rule="evenodd" points="197.4,71.2 252,66.3 252,63.8 197.4,68.8 "/>
<polygon fill-rule="evenodd" clip-rule="evenodd" points="197.4,67.5 252,62.6 252,60.1 197.4,65 "/>
<g>
	<path d="M333.1,76.9c2.2-2,3.6-4.6,3.6-6.9c0-1.9-1.1-3.3-2.8-3.3c-1.2,0-2.5,1-2.5,2.1c0,0.2,0,0.2,0.1,0.2c0,0,0.4-0.5,1-0.5
		c0.7,0,1.2,0.6,1.2,1.3c0,0.9-0.6,1.7-1.6,1.7s-1.5-1-1.5-2.1c0-1.8,1.7-3.1,3.6-3.1c3.5,0,4.4,2.4,4.4,4.4c0,1.2-0.3,2.2-1.5,4
		c-1.4,2.3-4.8,4-6,4c-0.3,0-0.5-0.1-0.5-0.3C331.6,77.9,332.5,77.4,333.1,76.9z M340.5,67.4c0.4,0,0.7,0.3,0.7,0.7
		c0,0.4-0.3,0.7-0.7,0.7c-0.4,0-0.7-0.3-0.7-0.7C339.8,67.7,340.1,67.4,340.5,67.4z M340.5,71.1c0.4,0,0.7,0.3,0.7,0.7
		s-0.3,0.7-0.7,0.7c-0.4,0-0.7-0.3-0.7-0.7S340.1,71.1,340.5,71.1z"/>
</g>
<polygon fill-rule="evenodd" clip-rule="evenodd" points="270.1,61.3 324.7,66.3 324.7,63.8 270.1,58.8 "/>
<polygon fill-rule="evenodd" clip-rule="evenodd" points="270.1,57.6 324.7,62.6 324.7,60.1 270.1,55.1 "/>
<polygon fill-rule="evenodd" clip-rule="evenodd" points="344.5,71.2 398.9,76.2 398.9,73.7 344.5,68.8 "/>
<polygon fill-rule="evenodd" clip-rule="evenodd" points="344.5,75 398.9,79.9 398.9,77.4 344.5,72.5 "/>
<polygon fill-rule="evenodd" clip-rule="evenodd" points="417.2,81.2 471.6,86.1 471.6,83.6 417.2,78.7 "/>
<polygon fill-rule="evenodd" clip-rule="evenodd" points="417.2,84.9 471.6,89.8 471.6,87.4 417.2,82.4 "/>
<rect x="35.3" y="40.2" width="10.5" height="0.8"/>
<rect x="43.6" y="20.9" width="0.5" height="18.9"/>
<g>
	<path d="M37.1,41.4c0-1.8,2.5-3.5,4.5-3.5c1.3,0,2.3,0.7,2.3,1.7c0,1.7-2.5,3.5-4.6,3.5C38.1,43.1,37.1,42.5,37.1,41.4z"/>
</g>
<rect x="61.7" y="19.3" width="0.5" height="15.5"/>
<g>
	<path d="M55.3,36.4c0-1.8,2.5-3.5,4.5-3.5c1.3,0,2.3,0.7,2.3,1.7c0,1.7-2.5,3.5-4.6,3.5C56.2,38.2,55.3,37.5,55.3,36.4z"/>
</g>
<g>
	<path d="M49.4,27.3H50l-0.1,6.2c0.4-0.7,1-1,1.8-1c1.2,0,2.2,0.8,2.2,1.9c0,0.8-0.5,1.8-1.7,2.7l-2.8,2.1V27.3z M50,34.2
		c-0.1,0.8-0.1,1.4-0.1,1.9c0,1,0,1.6,0.1,2c1-0.7,2.4-2.6,2.4-3.7c0-0.6-0.5-1.1-1.1-1.1C50.7,33.4,50.3,33.6,50,34.2z"/>
</g>
<rect x="80" y="17.6" width="0.5" height="14.7"/>
<g>
	<path d="M73.6,34c0-1.8,2.5-3.5,4.5-3.5c1.3,0,2.3,0.7,2.3,1.7c0,1.7-2.5,3.5-4.6,3.5C74.5,35.7,73.6,35.1,73.6,34z"/>
</g>
<rect x="98.1" y="15.9" width="0.5" height="14"/>
<g>
	<path d="M91.7,31.5c0-1.8,2.5-3.5,4.5-3.5c1.3,0,2.3,0.7,2.3,1.7c0,1.7-2.5,3.5-4.6,3.5C92.7,33.2,91.7,32.6,91.7,31.5z"/>
</g>
<g>
	<path d="M85.8,22.3h0.6l-0.1,6.2c0.4-0.7,1-1,1.8-1c1.2,0,2.2,0.8,2.2,1.9c0,0.8-0.5,1.8-1.7,2.7l-2.8,2.1V22.3z M86.4,29.2
		c-0.1,0.8-0.1,1.4-0.1,1.9c0,1,0,1.6,0.1,2c1-0.7,2.4-2.6,2.4-3.7c0-0.6-0.5-1.1-1.1-1.1C87.1,28.4,86.7,28.7,86.4,29.2z"/>
</g>
<rect x="109.8" y="31.4" width="0.5" height="14"/>
<g>
	<path d="M109.8,31.5c0-1.8,2.5-3.5,4.5-3.5c1.3,0,2.3,0.7,2.3,1.7c0,1.7-2.5,3.5-4.6,3.5C110.8,33.2,109.8,32.6,109.8,31.5z"/>
</g>
<g>
	<path d="M107.9,37.4v-4l-3,1.1V23.8h0.5v4l3-1.1v10.7H107.9z M105.4,32.7l2.5-0.9v-3.3l-2.5,0.9V32.7z"/>
</g>
<rect x="127.9" y="26.4" width="0.5" height="17.4"/>
<g>
	<path d="M128,26.5c0-1.8,2.5-3.5,4.5-3.5c1.3,0,2.3,0.7,2.3,1.7c0,1.7-2.5,3.5-4.6,3.5C128.9,28.3,128,27.6,128,26.5z"/>
</g>
<g>
	<path d="M122.1,17.4h0.6l-0.1,6.2c0.4-0.7,1-1,1.8-1c1.2,0,2.2,0.8,2.2,1.9c0,0.8-0.5,1.8-1.7,2.7l-2.8,2.1V17.4z M122.7,24.3
		c-0.1,0.8-0.1,1.4-0.1,1.9c0,1,0,1.6,0.1,2c1-0.7,2.4-2.6,2.4-3.7c0-0.6-0.5-1.1-1.1-1.1C123.4,23.4,123,23.7,122.7,24.3z"/>
</g>
<rect x="146.2" y="24" width="0.5" height="18.1"/>
<g>
	<path d="M146.3,24c0-1.8,2.5-3.5,4.5-3.5c1.3,0,2.3,0.7,2.3,1.7c0,1.7-2.5,3.5-4.6,3.5C147.2,25.8,146.3,25.1,146.3,24z"/>
</g>
<rect x="164.3" y="19" width="0.5" height="21.4"/>
<g>
	<path d="M164.4,19.1c0-1.8,2.5-3.5,4.5-3.5c1.3,0,2.3,0.7,2.3,1.7c0,1.7-2.5,3.5-4.6,3.5C165.4,20.8,164.4,20.2,164.4,19.1z"/>
</g>
<g>
	<path d="M158.5,9.9h0.6l-0.1,6.2c0.4-0.7,1-1,1.8-1c1.2,0,2.2,0.8,2.2,1.9c0,0.8-0.5,1.8-1.7,2.7l-2.8,2.1V9.9z M159.1,16.8
		c-0.1,0.8-0.1,1.4-0.1,1.9c0,1,0,1.6,0.1,2c1-0.7,2.4-2.6,2.4-3.7c0-0.6-0.5-1.1-1.1-1.1C159.8,16,159.4,16.3,159.1,16.8z"/>
</g>
<rect x="190.7" y="16.5" width="0.5" height="14"/>
<g>
	<path d="M190.8,16.6c0-1.8,2.5-3.5,4.5-3.5c1.3,0,2.3,0.7,2.3,1.7c0,1.7-2.5,3.5-4.6,3.5C191.7,18.3,190.8,17.7,190.8,16.6z"/>
</g>
<rect x="208.8" y="14" width="0.5" height="16.4"/>
<g>
	<path d="M208.9,14.1c0-1.8,2.5-3.5,4.5-3.5c1.3,0,2.3,0.7,2.3,1.7c0,1.7-2.5,3.5-4.6,3.5C209.9,15.9,208.9,15.2,208.9,14.1z"/>
</g>
<g>
	<path d="M203,5h0.6l-0.1,6.2c0.4-0.7,1-1,1.8-1c1.2,0,2.2,0.8,2.2,1.9c0,0.8-0.5,1.8-1.7,2.7l-2.8,2.1V5z M203.6,11.9
		c-0.1,0.8-0.1,1.4-0.1,1.9c0,1,0,1.6,0.1,2c1-0.7,2.4-2.6,2.4-3.7c0-0.6-0.5-1.1-1.1-1.1C204.3,11,203.9,11.3,203.6,11.9z"/>
</g>
<rect x="227" y="14" width="0.5" height="16.4"/>
<g>
	<path d="M227,14.1c0-1.8,2.5-3.5,4.5-3.5c1.3,0,2.3,0.7,2.3,1.7c0,1.7-2.5,3.5-4.6,3.5C228,15.9,227,15.2,227,14.1z"/>
</g>
<g>
	<path d="M225.1,20v-4l-3,1.1V6.5h0.5v4l3-1.1V20H225.1z M222.6,15.4l2.5-0.9v-3.3l-2.5,0.9V15.4z"/>
</g>
<rect x="243.5" y="10.4" width="10.5" height="0.8"/>
<rect x="245.2" y="9.1" width="0.5" height="21.4"/>
<g>
	<path d="M245.3,9.2c0-1.8,2.5-3.5,4.5-3.5c1.3,0,2.3,0.7,2.3,1.7c0,1.7-2.5,3.5-4.6,3.5C246.3,10.9,245.3,10.3,245.3,9.2z"/>
</g>
<g>
	<path d="M238.2,0h0.6l-0.1,6.2c0.4-0.7,1-1,1.8-1c1.2,0,2.2,0.8,2.2,1.9c0,0.8-0.5,1.8-1.7,2.7l-2.8,2.1V0z M238.8,6.9
		c-0.1,0.8-0.1,1.4-0.1,1.9c0,1,0,1.6,0.1,2c1-0.7,2.4-2.6,2.4-3.7c0-0.6-0.5-1.1-1.1-1.1C239.5,6.1,239.1,6.3,238.8,6.9z"/>
</g>
<rect x="261.6" y="10.4" width="10.5" height="0.8"/>
<rect x="261.6" y="5.4" width="10.5" height="0.8"/>
<rect x="263.4" y="6.6" width="0.5" height="23.9"/>
<g>
	<path d="M263.5,6.7c0-1.8,2.5-3.5,4.5-3.5c1.3,0,2.3,0.7,2.3,1.7c0,1.7-2.5,3.5-4.6,3.5C264.4,8.4,263.5,7.8,263.5,6.7z"/>
</g>
<rect x="279.7" y="10.4" width="10.5" height="0.8"/>
<rect x="281.5" y="9.1" width="0.5" height="21.4"/>
<g>
	<path d="M281.6,9.2c0-1.8,2.5-3.5,4.5-3.5c1.3,0,2.3,0.7,2.3,1.7c0,1.7-2.5,3.5-4.6,3.5C282.6,10.9,281.6,10.3,281.6,9.2z"/>
</g>
<rect x="299.7" y="14" width="0.5" height="16.4"/>
<g>
	<path d="M299.7,14.1c0-1.8,2.5-3.5,4.5-3.5c1.3,0,2.3,0.7,2.3,1.7c0,1.7-2.5,3.5-4.6,3.5C300.7,15.9,299.7,15.2,299.7,14.1z"/>
</g>
<rect x="317.9" y="14" width="0.5" height="16.4"/>
<g>
	<path d="M318,14.1c0-1.8,2.5-3.5,4.5-3.5c1.3,0,2.3,0.7,2.3,1.7c0,1.7-2.5,3.5-4.6,3.5C319,15.9,318,15.2,318,14.1z"/>
</g>
<g>
	<path d="M312.1,5h0.6l-0.1,6.2c0.4-0.7,1-1,1.8-1c1.2,0,2.2,0.8,2.2,1.9c0,0.8-0.5,1.8-1.7,2.7l-2.8,2.1V5z M312.7,11.9
		c-0.1,0.8-0.1,1.4-0.1,1.9c0,1,0,1.6,0.1,2c1-0.7,2.4-2.6,2.4-3.7c0-0.6-0.5-1.1-1.1-1.1C313.4,11,313,11.3,312.7,11.9z"/>
</g>
<rect x="344.3" y="16.5" width="0.5" height="18.9"/>
<g>
	<path d="M344.4,16.6c0-1.8,2.5-3.5,4.5-3.5c1.3,0,2.3,0.7,2.3,1.7c0,1.7-2.5,3.5-4.6,3.5C345.3,18.3,344.4,17.7,344.4,16.6z"/>
</g>
<rect x="362.4" y="19" width="0.5" height="18"/>
<g>
	<path d="M362.5,19.1c0-1.8,2.5-3.5,4.5-3.5c1.3,0,2.3,0.7,2.3,1.7c0,1.7-2.5,3.5-4.6,3.5C363.5,20.8,362.5,20.2,362.5,19.1z"/>
</g>
<rect x="380.6" y="24" width="0.5" height="14.7"/>
<g>
	<path d="M380.6,24c0-1.8,2.5-3.5,4.5-3.5c1.3,0,2.3,0.7,2.3,1.7c0,1.7-2.5,3.5-4.6,3.5C381.6,25.8,380.6,25.1,380.6,24z"/>
</g>
<rect x="398.7" y="26.4" width="0.5" height="14"/>
<g>
	<path d="M398.8,26.5c0-1.8,2.5-3.5,4.5-3.5c1.3,0,2.3,0.7,2.3,1.7c0,1.7-2.5,3.5-4.6,3.5C399.8,28.3,398.8,27.6,398.8,26.5z"/>
</g>
<rect x="423.5" y="14.7" width="0.5" height="15.2"/>
<g>
	<path d="M417.1,31.5c0-1.8,2.5-3.5,4.5-3.5c1.3,0,2.3,0.7,2.3,1.7c0,1.7-2.5,3.5-4.6,3.5C418,33.2,417.1,32.6,417.1,31.5z"/>
</g>
<g>
	<path d="M415.2,37.4v-4l-3,1.1V23.8h0.5v4l3-1.1v10.7H415.2z M412.6,32.7l2.5-0.9v-3.3l-2.5,0.9V32.7z"/>
</g>
<rect x="441.6" y="14.7" width="0.5" height="15.2"/>
<g>
	<path d="M435.2,31.5c0-1.8,2.5-3.5,4.5-3.5c1.3,0,2.3,0.7,2.3,1.7c0,1.7-2.5,3.5-4.6,3.5C436.2,33.2,435.2,32.6,435.2,31.5z"/>
</g>
<g>
	<path d="M429.3,22.3h0.6l-0.1,6.2c0.4-0.7,1-1,1.8-1c1.2,0,2.2,0.8,2.2,1.9c0,0.8-0.5,1.8-1.7,2.7l-2.8,2.1V22.3z M429.9,29.2
		c-0.1,0.8-0.1,1.4-0.1,1.9c0,1,0,1.6,0.1,2c1-0.7,2.4-2.6,2.4-3.7c0-0.6-0.5-1.1-1.1-1.1C430.6,28.4,430.2,28.7,429.9,29.2z"/>
</g>
<rect x="459.8" y="14.7" width="0.5" height="17.7"/>
<g>
	<path d="M453.4,34c0-1.8,2.5-3.5,4.5-3.5c1.3,0,2.3,0.7,2.3,1.7c0,1.7-2.5,3.5-4.6,3.5C454.3,35.7,453.4,35.1,453.4,34z"/>
</g>
<rect x="477.9" y="14.7" width="0.5" height="20.2"/>
<g>
	<path d="M471.5,36.4c0-1.8,2.5-3.5,4.5-3.5c1.3,0,2.3,0.7,2.3,1.7c0,1.7-2.5,3.5-4.6,3.5C472.5,38.2,471.5,37.5,471.5,36.4z"/>
</g>
<rect x="487.9" y="40.2" width="10.7" height="0.8"/>
<rect x="496.4" y="23.2" width="0.5" height="16.6"/>
<g>
	<path d="M494,37.9c1.6,0,2.7,0.7,2.7,2c0,1.9-2.3,3.4-4.5,3.4c-1.3,0-2.4-0.7-2.4-1.8C489.8,39.6,492,37.9,494,37.9z M490.2,41.7
		c0,0.6,0.4,0.9,1.1,0.9c1.4,0,4.9-2.1,4.9-3.3c0-0.6-0.4-0.9-1.1-0.9C493.9,38.5,490.2,40.5,490.2,41.7z"/>
</g>
<rect x="37.1" y="78.2" width="0.5" height="12.7"/>
<g>
	<path d="M37.1,78.3c0-1.8,2.5-3.5,4.5-3.5c1.3,0,2.3,0.7,2.3,1.7c0,1.7-2.5,3.5-4.6,3.5C38.1,80,37.1,79.4,37.1,78.3z"/>
</g>
<rect x="55.2" y="73.3" width="0.5" height="16.1"/>
<g>
	<path d="M55.3,73.3c0-1.8,2.5-3.5,4.5-3.5c1.3,0,2.3,0.7,2.3,1.7c0,1.7-2.5,3.5-4.6,3.5C56.2,75.1,55.3,74.4,55.3,73.3z"/>
</g>
<g>
	<path d="M49.4,64.2H50l-0.1,6.2c0.4-0.7,1-1,1.8-1c1.2,0,2.2,0.8,2.2,1.9c0,0.8-0.5,1.8-1.7,2.7l-2.8,2.1V64.2z M50,71.1
		c-0.1,0.8-0.1,1.4-0.1,1.9c0,1,0,1.6,0.1,2c1-0.7,2.4-2.6,2.4-3.7c0-0.6-0.5-1.1-1.1-1.1C50.7,70.2,50.3,70.5,50,71.1z"/>
</g>
<rect x="73.5" y="70.8" width="0.5" height="16.9"/>
<g>
	<path d="M73.6,70.9c0-1.8,2.5-3.5,4.5-3.5c1.3,0,2.3,0.7,2.3,1.7c0,1.7-2.5,3.5-4.6,3.5C74.5,72.6,73.6,71.9,73.6,70.9z"/>
</g>
<rect x="91.6" y="68.3" width="0.5" height="17.7"/>
<g>
	<path d="M91.7,68.4c0-1.8,2.5-3.5,4.5-3.5c1.3,0,2.3,0.7,2.3,1.7c0,1.7-2.5,3.5-4.6,3.5C92.7,70.1,91.7,69.5,91.7,68.4z"/>
</g>
<g>
	<path d="M85.8,59.2h0.6l-0.1,6.2c0.4-0.7,1-1,1.8-1c1.2,0,2.2,0.8,2.2,1.9c0,0.8-0.5,1.8-1.7,2.7l-2.8,2.1V59.2z M86.4,66.1
		c-0.1,0.8-0.1,1.4-0.1,1.9c0,1,0,1.6,0.1,2c1-0.7,2.4-2.6,2.4-3.7c0-0.6-0.5-1.1-1.1-1.1C87.1,65.3,86.7,65.6,86.4,66.1z"/>
</g>
<rect x="109.8" y="68.3" width="0.5" height="16.4"/>
<g>
	<path d="M109.8,68.4c0-1.8,2.5-3.5,4.5-3.5c1.3,0,2.3,0.7,2.3,1.7c0,1.7-2.5,3.5-4.6,3.5C110.8,70.1,109.8,69.5,109.8,68.4z"/>
</g>
<g>
	<path d="M107.9,74.3v-4l-3,1.1V60.7h0.5v4l3-1.1v10.7H107.9z M105.4,69.6l2.5-0.9v-3.3l-2.5,0.9V69.6z"/>
</g>
<rect x="127.9" y="63.3" width="0.5" height="19.8"/>
<g>
	<path d="M128,63.4c0-1.8,2.5-3.5,4.5-3.5c1.3,0,2.3,0.7,2.3,1.7c0,1.7-2.5,3.5-4.6,3.5C128.9,65.1,128,64.5,128,63.4z"/>
</g>
<g>
	<path d="M122.1,54.3h0.6l-0.1,6.2c0.4-0.7,1-1,1.8-1c1.2,0,2.2,0.8,2.2,1.9c0,0.8-0.5,1.8-1.7,2.7l-2.8,2.1V54.3z M122.7,61.2
		c-0.1,0.8-0.1,1.4-0.1,1.9c0,1,0,1.6,0.1,2c1-0.7,2.4-2.6,2.4-3.7c0-0.6-0.5-1.1-1.1-1.1C123.4,60.3,123,60.6,122.7,61.2z"/>
</g>
<rect x="144.4" y="59.7" width="10.5" height="0.8"/>
<rect x="146.2" y="60.9" width="0.5" height="20.6"/>
<g>
	<path d="M146.3,60.9c0-1.8,2.5-3.5,4.5-3.5c1.3,0,2.3,0.7,2.3,1.7c0,1.7-2.5,3.5-4.6,3.5C147.2,62.7,146.3,62,146.3,60.9z"/>
</g>
<rect x="162.5" y="59.7" width="10.5" height="0.8"/>
<rect x="162.5" y="54.7" width="10.5" height="0.8"/>
<rect x="164.3" y="55.9" width="0.5" height="23.9"/>
<g>
	<path d="M164.4,56c0-1.8,2.5-3.5,4.5-3.5c1.3,0,2.3,0.7,2.3,1.7c0,1.7-2.5,3.5-4.6,3.5C165.4,57.7,164.4,57.1,164.4,56z"/>
</g>
<g>
	<path d="M157.3,46.8h0.6l-0.1,6.2c0.4-0.7,1-1,1.8-1c1.2,0,2.2,0.8,2.2,1.9c0,0.8-0.5,1.8-1.7,2.7l-2.8,2.1V46.8z M157.8,53.7
		c-0.1,0.8-0.1,1.4-0.1,1.9c0,1,0,1.6,0.1,2c1-0.7,2.4-2.6,2.4-3.7c0-0.6-0.5-1.1-1.1-1.1C158.6,52.9,158.1,53.2,157.8,53.7z"/>
</g>
<rect x="197.2" y="65.2" width="0.5" height="16.4"/>
<g>
	<path d="M190.8,83.3c0-1.8,2.5-3.5,4.5-3.5c1.3,0,2.3,0.7,2.3,1.7c0,1.7-2.5,3.5-4.6,3.5C191.7,85,190.8,84.3,190.8,83.3z"/>
</g>
<rect x="215.3" y="63.6" width="0.5" height="15.5"/>
<g>
	<path d="M208.9,80.8c0-1.8,2.5-3.5,4.5-3.5c1.3,0,2.3,0.7,2.3,1.7c0,1.7-2.5,3.5-4.6,3.5C209.9,82.5,208.9,81.9,208.9,80.8z"/>
</g>
<g>
	<path d="M203,71.6h0.6l-0.1,6.2c0.4-0.7,1-1,1.8-1c1.2,0,2.2,0.8,2.2,1.9c0,0.8-0.5,1.8-1.7,2.7l-2.8,2.1V71.6z M203.6,78.5
		c-0.1,0.8-0.1,1.4-0.1,1.9c0,1,0,1.6,0.1,2c1-0.7,2.4-2.6,2.4-3.7c0-0.6-0.5-1.1-1.1-1.1C204.3,77.7,203.9,78,203.6,78.5z"/>
</g>
<rect x="233.5" y="61.9" width="0.5" height="17.2"/>
<g>
	<path d="M227,80.8c0-1.8,2.5-3.5,4.5-3.5c1.3,0,2.3,0.7,2.3,1.7c0,1.7-2.5,3.5-4.6,3.5C228,82.5,227,81.9,227,80.8z"/>
</g>
<g>
	<path d="M225.1,86.7v-4l-3,1.1V73.1h0.5v4l3-1.1v10.7H225.1z M222.6,82l2.5-0.9v-3.3l-2.5,0.9V82z"/>
</g>
<rect x="251.8" y="60.2" width="0.5" height="14"/>
<g>
	<path d="M245.3,75.8c0-1.8,2.5-3.5,4.5-3.5c1.3,0,2.3,0.7,2.3,1.7c0,1.7-2.5,3.5-4.6,3.5C246.3,77.5,245.3,76.9,245.3,75.8z"/>
</g>
<g>
	<path d="M239.4,66.7h0.6l-0.1,6.2c0.4-0.7,1-1,1.8-1c1.2,0,2.2,0.8,2.2,1.9c0,0.8-0.5,1.8-1.7,2.7l-2.8,2.1V66.7z M240,73.6
		c-0.1,0.8-0.1,1.4-0.1,1.9c0,1,0,1.6,0.1,2c1-0.7,2.4-2.6,2.4-3.7c0-0.6-0.5-1.1-1.1-1.1C240.7,72.7,240.3,73,240,73.6z"/>
</g>
<rect x="269.9" y="55.3" width="0.5" height="16.4"/>
<g>
	<path d="M263.5,73.3c0-1.8,2.5-3.5,4.5-3.5c1.3,0,2.3,0.7,2.3,1.7c0,1.7-2.5,3.5-4.6,3.5C264.4,75.1,263.5,74.4,263.5,73.3z"/>
</g>
<rect x="288" y="56.8" width="0.5" height="17.4"/>
<g>
	<path d="M281.6,75.8c0-1.8,2.5-3.5,4.5-3.5c1.3,0,2.3,0.7,2.3,1.7c0,1.7-2.5,3.5-4.6,3.5C282.6,77.5,281.6,76.9,281.6,75.8z"/>
</g>
<rect x="306.2" y="58.5" width="0.5" height="20.6"/>
<g>
	<path d="M299.7,80.8c0-1.8,2.5-3.5,4.5-3.5c1.3,0,2.3,0.7,2.3,1.7c0,1.7-2.5,3.5-4.6,3.5C300.7,82.5,299.7,81.9,299.7,80.8z"/>
</g>
<rect x="324.5" y="60.2" width="0.5" height="18.9"/>
<g>
	<path d="M318,80.8c0-1.8,2.5-3.5,4.5-3.5c1.3,0,2.3,0.7,2.3,1.7c0,1.7-2.5,3.5-4.6,3.5C319,82.5,318,81.9,318,80.8z"/>
</g>
<g>
	<path d="M312.1,71.6h0.6l-0.1,6.2c0.4-0.7,1-1,1.8-1c1.2,0,2.2,0.8,2.2,1.9c0,0.8-0.5,1.8-1.7,2.7l-2.8,2.1V71.6z M312.7,78.5
		c-0.1,0.8-0.1,1.4-0.1,1.9c0,1,0,1.6,0.1,2c1-0.7,2.4-2.6,2.4-3.7c0-0.6-0.5-1.1-1.1-1.1C313.4,77.7,313,78,312.7,78.5z"/>
</g>
<rect x="342.5" y="59.7" width="10.5" height="0.8"/>
<rect x="342.5" y="54.7" width="10.5" height="0.8"/>
<rect x="344.3" y="53.4" width="0.5" height="21.4"/>
<g>
	<path d="M344.4,53.5c0-1.8,2.5-3.5,4.5-3.5c1.3,0,2.3,0.7,2.3,1.7c0,1.7-2.5,3.5-4.6,3.5C345.3,55.2,344.4,54.6,344.4,53.5z"/>
</g>
<rect x="360.7" y="59.7" width="10.5" height="0.8"/>
<rect x="360.7" y="54.7" width="10.5" height="0.8"/>
<rect x="362.4" y="55.9" width="0.5" height="20.5"/>
<g>
	<path d="M362.5,56c0-1.8,2.5-3.5,4.5-3.5c1.3,0,2.3,0.7,2.3,1.7c0,1.7-2.5,3.5-4.6,3.5C363.5,57.7,362.5,57.1,362.5,56z"/>
</g>
<g>
	<path d="M355.4,46.8h0.6l-0.1,6.2c0.4-0.7,1-1,1.8-1c1.2,0,2.2,0.8,2.2,1.9c0,0.8-0.5,1.8-1.7,2.7l-2.8,2.1V46.8z M356,53.7
		c-0.1,0.8-0.1,1.4-0.1,1.9c0,1,0,1.6,0.1,2c1-0.7,2.4-2.6,2.4-3.7c0-0.6-0.5-1.1-1.1-1.1C356.7,52.9,356.3,53.2,356,53.7z"/>
</g>
<rect x="378.8" y="59.7" width="10.5" height="0.8"/>
<rect x="380.6" y="60.9" width="0.5" height="17.2"/>
<g>
	<path d="M380.6,60.9c0-1.8,2.5-3.5,4.5-3.5c1.3,0,2.3,0.7,2.3,1.7c0,1.7-2.5,3.5-4.6,3.5C381.6,62.7,380.6,62,380.6,60.9z"/>
</g>
<rect x="398.7" y="63.3" width="0.5" height="16.4"/>
<g>
	<path d="M398.8,63.4c0-1.8,2.5-3.5,4.5-3.5c1.3,0,2.3,0.7,2.3,1.7c0,1.7-2.5,3.5-4.6,3.5C399.8,65.1,398.8,64.5,398.8,63.4z"/>
</g>
<rect x="417" y="68.3" width="0.5" height="16.4"/>
<g>
	<path d="M417.1,68.4c0-1.8,2.5-3.5,4.5-3.5c1.3,0,2.3,0.7,2.3,1.7c0,1.7-2.5,3.5-4.6,3.5C418,70.1,417.1,69.5,417.1,68.4z"/>
</g>
<g>
	<path d="M415.2,74.3v-4l-3,1.1V60.7h0.5v4l3-1.1v10.7H415.2z M412.6,69.6l2.5-0.9v-3.3l-2.5,0.9V69.6z"/>
</g>
<rect x="435.1" y="68.3" width="0.5" height="18"/>
<g>
	<path d="M435.2,68.4c0-1.8,2.5-3.5,4.5-3.5c1.3,0,2.3,0.7,2.3,1.7c0,1.7-2.5,3.5-4.6,3.5C436.2,70.1,435.2,69.5,435.2,68.4z"/>
</g>
<g>
	<path d="M429.3,59.2h0.6l-0.1,6.2c0.4-0.7,1-1,1.8-1c1.2,0,2.2,0.8,2.2,1.9c0,0.8-0.5,1.8-1.7,2.7l-2.8,2.1V59.2z M429.9,66.1
		c-0.1,0.8-0.1,1.4-0.1,1.9c0,1,0,1.6,0.1,2c1-0.7,2.4-2.6,2.4-3.7c0-0.6-0.5-1.1-1.1-1.1C430.6,65.3,430.2,65.6,429.9,66.1z"/>
</g>
<rect x="453.3" y="70.8" width="0.5" height="17.2"/>
<g>
	<path d="M453.4,70.9c0-1.8,2.5-3.5,4.5-3.5c1.3,0,2.3,0.7,2.3,1.7c0,1.7-2.5,3.5-4.6,3.5C454.3,72.6,453.4,71.9,453.4,70.9z"/>
</g>
<rect x="471.4" y="73.3" width="0.5" height="16.4"/>
<g>
	<path d="M471.5,73.3c0-1.8,2.5-3.5,4.5-3.5c1.3,0,2.3,0.7,2.3,1.7c0,1.7-2.5,3.5-4.6,3.5C472.5,75.1,471.5,74.4,471.5,73.3z"/>
</g>
<rect x="496.4" y="60.1" width="0.5" height="16.6"/>
<g>
	<path d="M494,74.7c1.6,0,2.7,0.7,2.7,2c0,1.9-2.3,3.4-4.5,3.4c-1.3,0-2.4-0.7-2.4-1.8C489.8,76.5,492,74.7,494,74.7z M490.2,78.6
		c0,0.6,0.4,0.9,1.1,0.9c1.4,0,4.9-2.1,4.9-3.3c0-0.6-0.4-0.9-1.1-0.9C493.9,75.3,490.2,77.4,490.2,78.6z"/>
</g>
</svg>
