<?xml version="1.0" encoding="utf-8"?>

<!--
	ScaleBook
	Copyright (c) Leland Jansen 2015. All rights reserved.
-->

<!DOCTYPE svg PUBLIC "-//W3C//DTD SVG 1.1//EN" "http://www.w3.org/Graphics/SVG/1.1/DTD/svg11.dtd">
<svg version="1.1" id="Layer_1" xmlns="http://www.w3.org/2000/svg" xmlns:xlink="http://www.w3.org/1999/xlink" x="0px" y="0px"
	 viewBox="0 0 552.9 89.9" enable-background="new 0 0 552.9 89.9" xml:space="preserve">
<rect x="8.4" y="16.7" width="0.8" height="67"/>
<g>
	<path d="M7.4,17.4c-1.9,1.1-3.6,5.8-3.6,9.4c0,2.3,1.4,9.9,1.4,12.3c0,5-1.5,8.6-4.6,11.1c3,2.4,4.6,6.1,4.6,11.1
		c0,2.3-1.4,9.9-1.4,12.3c0,3.8,1.7,8.4,3.6,9.5v0.7c-3.5-2.3-5.8-8.2-5.8-13.1c0-2.1,1.7-9.4,1.7-11.5c0-3.8-1-6.6-2.9-8.2
		C0.1,50.6,0,50.4,0,50.2c0-0.2,0.1-0.4,0.5-0.7c1.9-1.7,2.9-4.2,2.9-7.6c0-2.1-1.7-10-1.7-12.2c0-5.2,2.1-10.4,5.8-13.1V17.4z"/>
</g>
<rect x="547.8" y="16.7" width="0.8" height="67"/>
<rect x="550.4" y="16.7" width="2.5" height="67"/>
<rect x="8.5" y="36.4" width="544.4" height="0.5"/>
<rect x="8.5" y="31.4" width="544.4" height="0.5"/>
<rect x="8.5" y="26.4" width="544.4" height="0.5"/>
<rect x="8.5" y="21.5" width="544.4" height="0.5"/>
<rect x="8.5" y="16.5" width="544.4" height="0.5"/>
<g>
	<path d="M20.3,36.4c-4.2,0-8.1-3.1-8.1-6.9c0-3.2,2.3-6.7,6.8-10.5c-0.3-1.2-0.4-2.4-0.4-3.6c0-3.5,1.2-6.8,3.2-8.5
		c1.8,2.5,2.7,4.9,2.7,7.1c0,2.9-1.3,5.6-4.3,8.1l0.9,4.2c0.5,0,0.8-0.1,0.8-0.1c2.6,0,4.8,2,4.8,4.7c0,1.9-1.4,3.7-3.6,4.8
		c0-0.1,0.9,3.8,0.9,4.3c0,2.5-2.3,4.2-4.9,4.2c-2,0-3.6-1.3-3.6-3.4c0-1.4,1-2.6,2.4-2.6c1.3,0,2.3,1.3,2.3,2.5
		c0,1.4-1.2,2.3-2.7,2.5c0.6,0.3,1.2,0.5,1.9,0.5c2.1,0,4.1-1.6,4.1-3.6c0-0.2,0-0.4-0.1-0.6L22.6,36C21.9,36.3,21.2,36.4,20.3,36.4
		z M18.1,31.2c0,1,0.5,1.9,1.6,2.5c-1.8-0.3-3-1.4-3-3.1c0-2,1.7-3.7,3.8-4.1l-0.8-4C16,25.3,14,28,14,30.7c0,2.9,2.8,5.3,6,5.3
		c0.9,0,1.7-0.2,2.4-0.5L21,28.6C19.4,28.8,18.1,29.8,18.1,31.2z M22.1,9.9c-1.6,0-2.9,3.7-2.9,7c0,0.7,0,1.3,0.2,1.9
		c2.7-2.4,4-4.5,4-6.5c0-0.9-0.3-1.7-1-2.4C22.4,9.9,22.3,9.9,22.1,9.9z M24.9,31.7c0-1.6-1.2-3.3-2.9-3.3c-0.1,0-0.2,0-0.5,0
		l1.4,6.6C24.2,34.2,24.9,33.1,24.9,31.7z"/>
</g>
<polygon fill-rule="evenodd" clip-rule="evenodd" points="45.4,27.9 99,22.9 99,20.5 45.4,25.4 "/>
<polygon fill-rule="evenodd" clip-rule="evenodd" points="45.4,24.2 99,19.2 99,16.7 45.4,21.7 "/>
<polygon fill-rule="evenodd" clip-rule="evenodd" points="110.3,42.8 163.9,37.8 163.9,35.3 110.3,40.3 "/>
<polygon fill-rule="evenodd" clip-rule="evenodd" points="110.3,46.5 163.9,41.5 163.9,39.1 110.3,44 "/>
<rect x="196.5" y="25.4" fill-rule="evenodd" clip-rule="evenodd" width="53.5" height="2.5"/>
<rect x="196.5" y="29.1" fill-rule="evenodd" clip-rule="evenodd" width="53.5" height="2.5"/>
<rect x="267.8" y="25.4" fill-rule="evenodd" clip-rule="evenodd" width="53.6" height="2.5"/>
<rect x="267.8" y="29.1" fill-rule="evenodd" clip-rule="evenodd" width="53.6" height="2.5"/>
<polygon fill-rule="evenodd" clip-rule="evenodd" points="347.8,32.9 401.4,37.8 401.4,35.3 347.8,30.4 "/>
<polygon fill-rule="evenodd" clip-rule="evenodd" points="347.8,36.6 401.4,41.5 401.4,39.1 347.8,34.1 "/>
<rect x="425.8" y="19.2" fill-rule="evenodd" clip-rule="evenodd" width="53.6" height="2.5"/>
<rect x="425.8" y="15.5" fill-rule="evenodd" clip-rule="evenodd" width="53.6" height="2.5"/>
<rect x="8.5" y="83.5" width="544.4" height="0.5"/>
<rect x="8.5" y="78.5" width="544.4" height="0.5"/>
<rect x="8.5" y="73.6" width="544.4" height="0.5"/>
<rect x="8.5" y="68.6" width="544.4" height="0.5"/>
<rect x="8.5" y="63.6" width="544.4" height="0.5"/>
<g>
	<path d="M15.7,78.1c2.9-2.6,4.7-6.1,4.7-9.2c0-2.5-1.4-4.4-3.7-4.4c-1.6,0-3.4,1.3-3.4,2.7c0,0.2,0,0.3,0.1,0.3
		c-0.1,0,0.6-0.6,1.4-0.6c0.9,0,1.5,0.8,1.5,1.7c0,1.2-0.9,2.2-2.1,2.2c-1.2,0-2.1-1.3-2.1-2.8c0-2.3,2.3-4.1,4.8-4.1
		c4.7,0,5.9,3.2,5.9,5.8c0,1.6-0.4,2.9-2,5.3c-1.9,3.1-6.4,5.3-8.1,5.3c-0.4,0-0.6-0.2-0.6-0.5C13.8,79.3,14.9,78.7,15.7,78.1z
		 M25.7,65.4c0.6,0,1,0.4,1,1c0,0.6-0.4,1-1,1s-1-0.4-1-1C24.7,65.8,25.1,65.4,25.7,65.4z M25.7,70.3c0.6,0,1,0.4,1,1
		c0,0.6-0.4,1-1,1s-1-0.4-1-1C24.7,70.7,25.1,70.3,25.7,70.3z"/>
</g>
<polygon fill-rule="evenodd" clip-rule="evenodd" points="38.8,86.2 92.5,81.2 92.5,78.7 38.8,83.7 "/>
<polygon fill-rule="evenodd" clip-rule="evenodd" points="38.8,89.9 92.5,84.9 92.5,82.5 38.8,87.4 "/>
<g>
	<path d="M184.1,82.3c-3.2,0-6.1-2.3-6.1-5.1c0-2.4,1.7-5,5.1-7.9c-0.2-0.9-0.3-1.8-0.3-2.7c0-2.6,0.9-5.1,2.4-6.3
		c1.4,1.9,2,3.7,2,5.3c0,2.2-1,4.2-3.2,6.1l0.7,3.1c0.4,0,0.6,0,0.6,0c2,0,3.6,1.5,3.6,3.5c0,1.4-1.1,2.8-2.7,3.6
		c0-0.1,0.6,2.8,0.6,3.3c0,1.9-1.7,3.2-3.7,3.2c-1.5,0-2.7-1-2.7-2.5c0-1.1,0.7-1.9,1.8-1.9c1,0,1.7,1,1.7,1.9c0,1-0.9,1.7-2,1.8
		c0.4,0.2,0.9,0.3,1.4,0.3c1.6,0,3.1-1.2,3.1-2.7c0-0.1,0-0.3,0-0.5l-0.6-2.8C185.4,82.2,184.8,82.3,184.1,82.3z M182.5,78.4
		c0,0.8,0.4,1.4,1.2,1.9c-1.3-0.2-2.2-1.1-2.2-2.3c0-1.5,1.3-2.8,2.9-3.1l-0.6-3c-2.8,2.1-4.3,4.1-4.3,6.1c0,2.2,2.1,4,4.5,4
		c0.7,0,1.3-0.1,1.8-0.4l-1.1-5.1C183.4,76.7,182.5,77.4,182.5,78.4z M185.5,62.4c-1.2,0-2.2,2.8-2.2,5.3c0,0.5,0,1,0.1,1.4
		c2-1.8,3-3.4,3-4.9c0-0.7-0.3-1.3-0.7-1.8C185.7,62.4,185.6,62.4,185.5,62.4z M187.6,78.8c0-1.2-0.9-2.4-2.2-2.4c0,0-0.2,0-0.4,0
		l1.1,5C187.1,80.7,187.6,79.8,187.6,78.8z"/>
</g>
<polygon fill-rule="evenodd" clip-rule="evenodd" points="110.3,80 163.9,75 163.9,72.5 110.3,77.5 "/>
<polygon fill-rule="evenodd" clip-rule="evenodd" points="110.3,83.7 163.9,78.7 163.9,76.3 110.3,81.2 "/>
<polygon fill-rule="evenodd" clip-rule="evenodd" points="203,70.1 256.5,65.1 256.5,62.6 203,67.6 "/>
<polygon fill-rule="evenodd" clip-rule="evenodd" points="203,66.3 256.5,61.4 256.5,58.9 203,63.9 "/>
<g>
	<path d="M336.3,75.7c2.2-2,3.6-4.6,3.6-6.9c0-1.9-1.1-3.3-2.8-3.3c-1.2,0-2.5,1-2.5,2.1c0,0.2,0,0.2,0.1,0.2c0,0,0.4-0.5,1-0.5
		c0.7,0,1.2,0.6,1.2,1.3c0,0.9-0.6,1.7-1.6,1.7s-1.5-1-1.5-2.1c0-1.8,1.7-3.1,3.6-3.1c3.5,0,4.4,2.4,4.4,4.4c0,1.2-0.3,2.2-1.5,4
		c-1.4,2.3-4.8,4-6,4c-0.3,0-0.5-0.1-0.5-0.3C334.9,76.7,335.7,76.3,336.3,75.7z M343.8,66.2c0.4,0,0.7,0.3,0.7,0.7
		c0,0.4-0.3,0.7-0.7,0.7c-0.4,0-0.7-0.3-0.7-0.7C343.1,66.6,343.4,66.2,343.8,66.2z M343.8,69.9c0.4,0,0.7,0.3,0.7,0.7
		s-0.3,0.7-0.7,0.7c-0.4,0-0.7-0.3-0.7-0.7S343.4,69.9,343.8,69.9z"/>
</g>
<polygon fill-rule="evenodd" clip-rule="evenodd" points="274.3,60.1 327.9,65.1 327.9,62.6 274.3,57.7 "/>
<polygon fill-rule="evenodd" clip-rule="evenodd" points="274.3,56.4 327.9,61.4 327.9,58.9 274.3,53.9 "/>
<polygon fill-rule="evenodd" clip-rule="evenodd" points="347.8,70.1 401.4,75 401.4,72.5 347.8,67.6 "/>
<polygon fill-rule="evenodd" clip-rule="evenodd" points="347.8,73.8 401.4,78.7 401.4,76.3 347.8,71.3 "/>
<polygon fill-rule="evenodd" clip-rule="evenodd" points="419.2,80 472.9,84.9 472.9,82.5 419.2,77.5 "/>
<polygon fill-rule="evenodd" clip-rule="evenodd" points="419.2,83.7 472.9,88.7 472.9,86.2 419.2,81.2 "/>
<rect x="36.8" y="41.2" width="10.5" height="0.8"/>
<rect x="45.1" y="21.9" width="0.5" height="18.9"/>
<g>
	<path d="M38.7,42.4c0-1.8,2.5-3.5,4.5-3.5c1.3,0,2.3,0.7,2.3,1.7c0,1.7-2.5,3.5-4.6,3.5C39.7,44.1,38.7,43.5,38.7,42.4z"/>
</g>
<g>
	<path d="M35,34.7v2.8l1-0.3V39l-1,0.3v3.4l1-0.3v1.8l-1,0.3v3.1h-0.5v-3l-1.9,0.6v3h-0.5v-2.8l-1,0.3V44l1-0.3v-3.4l-1,0.3v-1.8
		l1-0.3v-3.1h0.5v3l1.9-0.6v-3H35z M34.5,39.5l-1.9,0.6v3.4l1.9-0.6V39.5z"/>
</g>
<rect x="62.9" y="20.3" width="0.5" height="15.5"/>
<g>
	<path d="M56.5,37.4c0-1.8,2.5-3.5,4.5-3.5c1.3,0,2.3,0.7,2.3,1.7c0,1.7-2.5,3.5-4.6,3.5C57.5,39.2,56.5,38.5,56.5,37.4z"/>
</g>
<rect x="80.8" y="18.6" width="0.5" height="14.7"/>
<g>
	<path d="M74.3,35c0-1.8,2.5-3.5,4.5-3.5c1.3,0,2.3,0.7,2.3,1.7c0,1.7-2.5,3.5-4.6,3.5C75.3,36.7,74.3,36,74.3,35z"/>
</g>
<g>
	<path d="M71.9,27.3v2.8l1-0.3v1.8l-1,0.3v3.4l1-0.3v1.8l-1,0.3v3.1h-0.5v-3l-1.9,0.6v3H69v-2.8l-1,0.3v-1.8l1-0.3v-3.4l-1,0.3v-1.8
		l1-0.3v-3.1h0.5v3l1.9-0.6v-3H71.9z M71.4,32.1l-1.9,0.6v3.4l1.9-0.6V32.1z"/>
</g>
<rect x="98.8" y="16.9" width="0.5" height="14"/>
<g>
	<path d="M92.3,32.5c0-1.8,2.5-3.5,4.5-3.5c1.3,0,2.3,0.7,2.3,1.7c0,1.7-2.5,3.5-4.6,3.5C93.3,34.2,92.3,33.6,92.3,32.5z"/>
</g>
<rect x="110.1" y="32.4" width="0.5" height="14"/>
<g>
	<path d="M110.1,32.5c0-1.8,2.5-3.5,4.5-3.5c1.3,0,2.3,0.7,2.3,1.7c0,1.7-2.5,3.5-4.6,3.5C111.1,34.2,110.1,33.6,110.1,32.5z"/>
</g>
<g>
	<path d="M107.7,24.8v2.8l1-0.3v1.8l-1,0.3v3.4l1-0.3v1.8l-1,0.3v3.1h-0.5v-3l-1.9,0.6v3h-0.5v-2.8l-1,0.3v-1.8l1-0.3v-3.4l-1,0.3
		v-1.8l1-0.3v-3.1h0.5v3l1.9-0.6v-3H107.7z M107.2,29.6l-1.9,0.6v3.4l1.9-0.6V29.6z"/>
</g>
<rect x="127.9" y="27.4" width="0.5" height="17.4"/>
<g>
	<path d="M128,27.5c0-1.8,2.5-3.5,4.5-3.5c1.3,0,2.3,0.7,2.3,1.7c0,1.7-2.5,3.5-4.6,3.5C128.9,29.2,128,28.6,128,27.5z"/>
</g>
<rect x="145.7" y="25" width="0.5" height="18.1"/>
<g>
	<path d="M145.8,25c0-1.8,2.5-3.5,4.5-3.5c1.3,0,2.3,0.7,2.3,1.7c0,1.7-2.5,3.5-4.6,3.5C146.8,26.8,145.8,26.1,145.8,25z"/>
</g>
<g>
	<path d="M143.4,17.4v2.8l1-0.3v1.8l-1,0.3v3.4l1-0.3v1.8l-1,0.3v3.1h-0.5v-3L141,28v3h-0.5v-2.8l-1,0.3v-1.8l1-0.3v-3.4l-1,0.3
		v-1.8l1-0.3V18h0.5v3l1.9-0.6v-3H143.4z M142.9,22.1l-1.9,0.6v3.4l1.9-0.6V22.1z"/>
</g>
<rect x="163.7" y="20" width="0.5" height="21.4"/>
<g>
	<path d="M163.8,20.1c0-1.8,2.5-3.5,4.5-3.5c1.3,0,2.3,0.7,2.3,1.7c0,1.7-2.5,3.5-4.6,3.5C164.8,21.8,163.8,21.2,163.8,20.1z"/>
</g>
<rect x="196.3" y="17.5" width="0.5" height="14"/>
<g>
	<path d="M196.3,17.6c0-1.8,2.5-3.5,4.5-3.5c1.3,0,2.3,0.7,2.3,1.7c0,1.7-2.5,3.5-4.6,3.5C197.3,19.3,196.3,18.7,196.3,17.6z"/>
</g>
<g>
	<path d="M193.9,9.9v2.8l1-0.3v1.8l-1,0.3V18l1-0.3v1.8l-1,0.3v3.1h-0.5v-3l-1.9,0.6v3H191v-2.8l-1,0.3v-1.8l1-0.3v-3.4l-1,0.3V14
		l1-0.3v-3.1h0.5v3l1.9-0.6v-3H193.9z M193.4,14.7l-1.9,0.6v3.4l1.9-0.6V14.7z"/>
</g>
<rect x="214.1" y="15" width="0.5" height="16.4"/>
<g>
	<path d="M214.2,15.1c0-1.8,2.5-3.5,4.5-3.5c1.3,0,2.3,0.7,2.3,1.7c0,1.7-2.5,3.5-4.6,3.5C215.1,16.8,214.2,16.2,214.2,15.1z"/>
</g>
<g>
	<path d="M212.2,21v-4l-3,1.1V7.5h0.5v4l3-1.1V21H212.2z M209.7,16.4l2.5-0.9v-3.3l-2.5,0.9V16.4z"/>
</g>
<rect x="231.9" y="15" width="0.5" height="16.4"/>
<g>
	<path d="M232,15.1c0-1.8,2.5-3.5,4.5-3.5c1.3,0,2.3,0.7,2.3,1.7c0,1.7-2.5,3.5-4.6,3.5C233,16.8,232,16.2,232,15.1z"/>
</g>
<g>
	<path d="M229.6,7.4v2.8l1-0.3v1.8l-1,0.3v3.4l1-0.3V17l-1,0.3v3.1h-0.5v-3l-1.9,0.6v3h-0.5v-2.8l-1,0.3v-1.8l1-0.3V13l-1,0.3v-1.8
		l1-0.3V8.1h0.5v3l1.9-0.6v-3H229.6z M229.1,12.2l-1.9,0.6v3.4l1.9-0.6V12.2z"/>
</g>
<rect x="248" y="11.4" width="10.5" height="0.8"/>
<rect x="249.7" y="10.1" width="0.5" height="21.4"/>
<g>
	<path d="M249.8,10.2c0-1.8,2.5-3.5,4.5-3.5c1.3,0,2.3,0.7,2.3,1.7c0,1.7-2.5,3.5-4.6,3.5C250.8,11.9,249.8,11.2,249.8,10.2z"/>
</g>
<rect x="265.8" y="11.4" width="10.5" height="0.8"/>
<rect x="265.8" y="6.4" width="10.5" height="0.8"/>
<rect x="267.6" y="7.6" width="0.5" height="23.9"/>
<g>
	<path d="M267.6,7.7c0-1.8,2.5-3.5,4.5-3.5c1.3,0,2.3,0.7,2.3,1.7c0,1.7-2.5,3.5-4.6,3.5C268.6,9.4,267.6,8.8,267.6,7.7z"/>
</g>
<g>
	<path d="M264,0v2.8l1-0.3v1.8l-1,0.3v3.4l1-0.3v1.8l-1,0.3V13h-0.5v-3l-1.9,0.6v3h-0.5v-2.8l-1,0.3V9.3l1-0.3V5.6l-1,0.3V4.1l1-0.3
		V0.6h0.5v3l1.9-0.6V0H264z M263.5,4.8l-1.9,0.6v3.4l1.9-0.6V4.8z"/>
</g>
<rect x="283.8" y="11.4" width="10.5" height="0.8"/>
<rect x="285.5" y="10.1" width="0.5" height="21.4"/>
<g>
	<path d="M285.6,10.2c0-1.8,2.5-3.5,4.5-3.5c1.3,0,2.3,0.7,2.3,1.7c0,1.7-2.5,3.5-4.6,3.5C286.6,11.9,285.6,11.2,285.6,10.2z"/>
</g>
<rect x="303.4" y="15" width="0.5" height="16.4"/>
<g>
	<path d="M303.5,15.1c0-1.8,2.5-3.5,4.5-3.5c1.3,0,2.3,0.7,2.3,1.7c0,1.7-2.5,3.5-4.6,3.5C304.4,16.8,303.5,16.2,303.5,15.1z"/>
</g>
<rect x="321.2" y="15" width="0.5" height="16.4"/>
<g>
	<path d="M321.3,15.1c0-1.8,2.5-3.5,4.5-3.5c1.3,0,2.3,0.7,2.3,1.7c0,1.7-2.5,3.5-4.6,3.5C322.3,16.8,321.3,16.2,321.3,15.1z"/>
</g>
<g>
	<path d="M319.4,21v-4l-3,1.1V7.5h0.5v4l3-1.1V21H319.4z M316.8,16.4l2.5-0.9v-3.3l-2.5,0.9V16.4z"/>
</g>
<rect x="347.6" y="17.5" width="0.5" height="18.9"/>
<g>
	<path d="M347.6,17.6c0-1.8,2.5-3.5,4.5-3.5c1.3,0,2.3,0.7,2.3,1.7c0,1.7-2.5,3.5-4.6,3.5C348.6,19.3,347.6,18.7,347.6,17.6z"/>
</g>
<rect x="365.4" y="20" width="0.5" height="18"/>
<g>
	<path d="M365.5,20.1c0-1.8,2.5-3.5,4.5-3.5c1.3,0,2.3,0.7,2.3,1.7c0,1.7-2.5,3.5-4.6,3.5C366.4,21.8,365.5,21.2,365.5,20.1z"/>
</g>
<rect x="383.4" y="25" width="0.5" height="14.7"/>
<g>
	<path d="M383.4,25c0-1.8,2.5-3.5,4.5-3.5c1.3,0,2.3,0.7,2.3,1.7c0,1.7-2.5,3.5-4.6,3.5C384.4,26.8,383.4,26.1,383.4,25z"/>
</g>
<rect x="401.2" y="27.4" width="0.5" height="14"/>
<g>
	<path d="M401.3,27.5c0-1.8,2.5-3.5,4.5-3.5c1.3,0,2.3,0.7,2.3,1.7c0,1.7-2.5,3.5-4.6,3.5C402.2,29.2,401.3,28.6,401.3,27.5z"/>
</g>
<rect x="425.5" y="15.7" width="0.5" height="15.2"/>
<g>
	<path d="M419.1,32.5c0-1.8,2.5-3.5,4.5-3.5c1.3,0,2.3,0.7,2.3,1.7c0,1.7-2.5,3.5-4.6,3.5C420.1,34.2,419.1,33.6,419.1,32.5z"/>
</g>
<rect x="443.4" y="15.7" width="0.5" height="15.2"/>
<g>
	<path d="M436.9,32.5c0-1.8,2.5-3.5,4.5-3.5c1.3,0,2.3,0.7,2.3,1.7c0,1.7-2.5,3.5-4.6,3.5C437.9,34.2,436.9,33.6,436.9,32.5z"/>
</g>
<g>
	<path d="M435,38.4v-4l-3,1.1V24.8h0.5v4l3-1.1v10.7H435z M432.5,33.7l2.5-0.9v-3.3l-2.5,0.9V33.7z"/>
</g>
<rect x="461.2" y="15.7" width="0.5" height="17.7"/>
<g>
	<path d="M454.7,35c0-1.8,2.5-3.5,4.5-3.5c1.3,0,2.3,0.7,2.3,1.7c0,1.7-2.5,3.5-4.6,3.5C455.7,36.7,454.7,36,454.7,35z"/>
</g>
<rect x="479.2" y="15.7" width="0.5" height="20.2"/>
<g>
	<path d="M472.7,37.4c0-1.8,2.5-3.5,4.5-3.5c1.3,0,2.3,0.7,2.3,1.7c0,1.7-2.5,3.5-4.6,3.5C473.7,39.2,472.7,38.5,472.7,37.4z"/>
</g>
<g>
	<path d="M470.8,43.3v-4l-3,1.1V29.8h0.5v4l3-1.1v10.7H470.8z M468.3,38.7l2.5-0.9v-3.3l-2.5,0.9V38.7z"/>
</g>
<rect x="488.7" y="41.2" width="10.7" height="0.8"/>
<rect x="497.1" y="24.2" width="0.5" height="16.6"/>
<g>
	<path d="M494.8,38.8c1.6,0,2.7,0.7,2.7,2c0,1.9-2.3,3.4-4.5,3.4c-1.3,0-2.4-0.7-2.4-1.8C490.6,40.6,492.8,38.8,494.8,38.8z
		 M491,42.7c0,0.6,0.4,0.9,1.1,0.9c1.4,0,4.9-2.1,4.9-3.3c0-0.6-0.4-0.9-1.1-0.9C494.7,39.4,491,41.5,491,42.7z"/>
</g>
<rect x="38.6" y="77" width="0.5" height="12.7"/>
<g>
	<path d="M38.7,77.1c0-1.8,2.5-3.5,4.5-3.5c1.3,0,2.3,0.7,2.3,1.7c0,1.7-2.5,3.5-4.6,3.5C39.7,78.8,38.7,78.2,38.7,77.1z"/>
</g>
<g>
	<path d="M36.3,69.4v2.8l1-0.3v1.8l-1,0.3v3.4l1-0.3V79l-1,0.3v3.1h-0.5v-3l-1.9,0.6v3h-0.5v-2.8l-1,0.3v-1.8l1-0.3V75l-1,0.3v-1.8
		l1-0.3v-3.1h0.5v3l1.9-0.6v-3H36.3z M35.8,74.2l-1.9,0.6v3.4l1.9-0.6V74.2z"/>
</g>
<rect x="56.4" y="72.1" width="0.5" height="16.1"/>
<g>
	<path d="M56.5,72.2c0-1.8,2.5-3.5,4.5-3.5c1.3,0,2.3,0.7,2.3,1.7c0,1.7-2.5,3.5-4.6,3.5C57.5,73.9,56.5,73.3,56.5,72.2z"/>
</g>
<rect x="74.3" y="69.6" width="0.5" height="16.9"/>
<g>
	<path d="M74.3,69.7c0-1.8,2.5-3.5,4.5-3.5c1.3,0,2.3,0.7,2.3,1.7c0,1.7-2.5,3.5-4.6,3.5C75.3,71.4,74.3,70.8,74.3,69.7z"/>
</g>
<g>
	<path d="M71.9,62v2.8l1-0.3v1.8l-1,0.3v3.4l1-0.3v1.8l-1,0.3V75h-0.5v-3l-1.9,0.6v3H69v-2.8l-1,0.3v-1.8l1-0.3v-3.4l-1,0.3v-1.8
		l1-0.3v-3.1h0.5v3l1.9-0.6v-3H71.9z M71.4,66.8l-1.9,0.6v3.4l1.9-0.6V66.8z"/>
</g>
<rect x="92.2" y="67.1" width="0.5" height="17.7"/>
<g>
	<path d="M92.3,67.2c0-1.8,2.5-3.5,4.5-3.5c1.3,0,2.3,0.7,2.3,1.7c0,1.7-2.5,3.5-4.6,3.5C93.3,68.9,92.3,68.3,92.3,67.2z"/>
</g>
<rect x="110.1" y="67.1" width="0.5" height="16.4"/>
<g>
	<path d="M110.1,67.2c0-1.8,2.5-3.5,4.5-3.5c1.3,0,2.3,0.7,2.3,1.7c0,1.7-2.5,3.5-4.6,3.5C111.1,68.9,110.1,68.3,110.1,67.2z"/>
</g>
<g>
	<path d="M107.7,59.5v2.8l1-0.3v1.8l-1,0.3v3.4l1-0.3v1.8l-1,0.3v3.1h-0.5v-3l-1.9,0.6v3h-0.5v-2.8l-1,0.3v-1.8l1-0.3v-3.4l-1,0.3
		v-1.8l1-0.3v-3.1h0.5v3l1.9-0.6v-3H107.7z M107.2,64.3l-1.9,0.6v3.4l1.9-0.6V64.3z"/>
</g>
<rect x="127.9" y="62.2" width="0.5" height="19.8"/>
<g>
	<path d="M128,62.2c0-1.8,2.5-3.5,4.5-3.5c1.3,0,2.3,0.7,2.3,1.7c0,1.7-2.5,3.5-4.6,3.5C128.9,64,128,63.3,128,62.2z"/>
</g>
<rect x="143.9" y="58.5" width="10.5" height="0.8"/>
<rect x="145.7" y="59.7" width="0.5" height="20.6"/>
<g>
	<path d="M145.8,59.8c0-1.8,2.5-3.5,4.5-3.5c1.3,0,2.3,0.7,2.3,1.7c0,1.7-2.5,3.5-4.6,3.5C146.8,61.5,145.8,60.9,145.8,59.8z"/>
</g>
<g>
	<path d="M142.1,52.1v2.8l1-0.3v1.8l-1,0.3v3.4l1-0.3v1.8l-1,0.3v3.1h-0.5v-3l-1.9,0.6v3h-0.5v-2.8l-1,0.3v-1.8l1-0.3v-3.4l-1,0.3
		v-1.8l1-0.3v-3.1h0.5v3l1.9-0.6v-3H142.1z M141.6,56.9l-1.9,0.6v3.4l1.9-0.6V56.9z"/>
</g>
<rect x="161.9" y="58.5" width="10.5" height="0.8"/>
<rect x="161.9" y="53.6" width="10.5" height="0.8"/>
<rect x="163.7" y="54.7" width="0.5" height="23.9"/>
<g>
	<path d="M163.8,54.8c0-1.8,2.5-3.5,4.5-3.5c1.3,0,2.3,0.7,2.3,1.7c0,1.7-2.5,3.5-4.6,3.5C164.8,56.5,163.8,55.9,163.8,54.8z"/>
</g>
<rect x="202.8" y="64" width="0.5" height="16.4"/>
<g>
	<path d="M196.3,82.1c0-1.8,2.5-3.5,4.5-3.5c1.3,0,2.3,0.7,2.3,1.7c0,1.7-2.5,3.5-4.6,3.5C197.3,83.8,196.3,83.2,196.3,82.1z"/>
</g>
<g>
	<path d="M193.9,74.4v2.8l1-0.3v1.8l-1,0.3v3.4l1-0.3v1.8l-1,0.3v3.1h-0.5v-3l-1.9,0.6v3H191v-2.8l-1,0.3v-1.8l1-0.3V80l-1,0.3v-1.8
		l1-0.3V75h0.5v3l1.9-0.6v-3H193.9z M193.4,79.2l-1.9,0.6v3.4l1.9-0.6V79.2z"/>
</g>
<rect x="220.6" y="62.5" width="0.5" height="15.5"/>
<g>
	<path d="M214.2,79.6c0-1.8,2.5-3.5,4.5-3.5c1.3,0,2.3,0.7,2.3,1.7c0,1.7-2.5,3.5-4.6,3.5C215.1,81.3,214.2,80.7,214.2,79.6z"/>
</g>
<g>
	<path d="M212.2,85.5v-4l-3,1.1V71.9h0.5v4l3-1.1v10.7H212.2z M209.7,80.9l2.5-0.9v-3.3l-2.5,0.9V80.9z"/>
</g>
<rect x="238.4" y="60.8" width="0.5" height="17.2"/>
<g>
	<path d="M232,79.6c0-1.8,2.5-3.5,4.5-3.5c1.3,0,2.3,0.7,2.3,1.7c0,1.7-2.5,3.5-4.6,3.5C233,81.3,232,80.7,232,79.6z"/>
</g>
<g>
	<path d="M229.6,71.9v2.8l1-0.3v1.8l-1,0.3V80l1-0.3v1.8l-1,0.3v3.1h-0.5v-3l-1.9,0.6v3h-0.5v-2.8l-1,0.3v-1.8l1-0.3v-3.4l-1,0.3V76
		l1-0.3v-3.1h0.5v3l1.9-0.6v-3H229.6z M229.1,76.7l-1.9,0.6v3.4l1.9-0.6V76.7z"/>
</g>
<rect x="256.3" y="59.1" width="0.5" height="14"/>
<g>
	<path d="M249.8,74.6c0-1.8,2.5-3.5,4.5-3.5c1.3,0,2.3,0.7,2.3,1.7c0,1.7-2.5,3.5-4.6,3.5C250.8,76.4,249.8,75.7,249.8,74.6z"/>
</g>
<rect x="274.1" y="54.1" width="0.5" height="16.4"/>
<g>
	<path d="M267.6,72.2c0-1.8,2.5-3.5,4.5-3.5c1.3,0,2.3,0.7,2.3,1.7c0,1.7-2.5,3.5-4.6,3.5C268.6,73.9,267.6,73.3,267.6,72.2z"/>
</g>
<g>
	<path d="M265.2,64.5v2.8l1-0.3v1.8l-1,0.3v3.4l1-0.3V74l-1,0.3v3.1h-0.5v-3l-1.9,0.6v3h-0.5v-2.8l-1,0.3v-1.8l1-0.3V70l-1,0.3v-1.8
		l1-0.3v-3.1h0.5v3l1.9-0.6v-3H265.2z M264.7,69.3l-1.9,0.6v3.4l1.9-0.6V69.3z"/>
</g>
<rect x="292.1" y="55.7" width="0.5" height="17.4"/>
<g>
	<path d="M285.6,74.6c0-1.8,2.5-3.5,4.5-3.5c1.3,0,2.3,0.7,2.3,1.7c0,1.7-2.5,3.5-4.6,3.5C286.6,76.4,285.6,75.7,285.6,74.6z"/>
</g>
<rect x="309.9" y="57.4" width="0.5" height="20.6"/>
<g>
	<path d="M303.5,79.6c0-1.8,2.5-3.5,4.5-3.5c1.3,0,2.3,0.7,2.3,1.7c0,1.7-2.5,3.5-4.6,3.5C304.4,81.3,303.5,80.7,303.5,79.6z"/>
</g>
<rect x="327.7" y="59.1" width="0.5" height="18.9"/>
<g>
	<path d="M321.3,79.6c0-1.8,2.5-3.5,4.5-3.5c1.3,0,2.3,0.7,2.3,1.7c0,1.7-2.5,3.5-4.6,3.5C322.3,81.3,321.3,80.7,321.3,79.6z"/>
</g>
<g>
	<path d="M319.4,85.5v-4l-3,1.1V71.9h0.5v4l3-1.1v10.7H319.4z M316.8,80.9l2.5-0.9v-3.3l-2.5,0.9V80.9z"/>
</g>
<rect x="345.8" y="58.5" width="10.5" height="0.8"/>
<rect x="345.8" y="53.6" width="10.5" height="0.8"/>
<rect x="347.6" y="52.2" width="0.5" height="21.4"/>
<g>
	<path d="M347.6,52.3c0-1.8,2.5-3.5,4.5-3.5c1.3,0,2.3,0.7,2.3,1.7c0,1.7-2.5,3.5-4.6,3.5C348.6,54,347.6,53.4,347.6,52.3z"/>
</g>
<rect x="363.6" y="58.5" width="10.5" height="0.8"/>
<rect x="363.6" y="53.6" width="10.5" height="0.8"/>
<rect x="365.4" y="54.7" width="0.5" height="20.5"/>
<g>
	<path d="M365.5,54.8c0-1.8,2.5-3.5,4.5-3.5c1.3,0,2.3,0.7,2.3,1.7c0,1.7-2.5,3.5-4.6,3.5C366.4,56.5,365.5,55.9,365.5,54.8z"/>
</g>
<rect x="381.6" y="58.5" width="10.5" height="0.8"/>
<rect x="383.4" y="59.7" width="0.5" height="17.2"/>
<g>
	<path d="M383.4,59.8c0-1.8,2.5-3.5,4.5-3.5c1.3,0,2.3,0.7,2.3,1.7c0,1.7-2.5,3.5-4.6,3.5C384.4,61.5,383.4,60.9,383.4,59.8z"/>
</g>
<rect x="401.2" y="62.2" width="0.5" height="16.4"/>
<g>
	<path d="M401.3,62.2c0-1.8,2.5-3.5,4.5-3.5c1.3,0,2.3,0.7,2.3,1.7c0,1.7-2.5,3.5-4.6,3.5C402.2,64,401.3,63.3,401.3,62.2z"/>
</g>
<rect x="419" y="67.1" width="0.5" height="16.4"/>
<g>
	<path d="M419.1,67.2c0-1.8,2.5-3.5,4.5-3.5c1.3,0,2.3,0.7,2.3,1.7c0,1.7-2.5,3.5-4.6,3.5C420.1,68.9,419.1,68.3,419.1,67.2z"/>
</g>
<rect x="436.8" y="67.1" width="0.5" height="18"/>
<g>
	<path d="M436.9,67.2c0-1.8,2.5-3.5,4.5-3.5c1.3,0,2.3,0.7,2.3,1.7c0,1.7-2.5,3.5-4.6,3.5C437.9,68.9,436.9,68.3,436.9,67.2z"/>
</g>
<g>
	<path d="M435,73.1v-4l-3,1.1V59.5h0.5v4l3-1.1v10.7H435z M432.5,68.4l2.5-0.9v-3.3l-2.5,0.9V68.4z"/>
</g>
<rect x="454.7" y="69.6" width="0.5" height="17.2"/>
<g>
	<path d="M454.7,69.7c0-1.8,2.5-3.5,4.5-3.5c1.3,0,2.3,0.7,2.3,1.7c0,1.7-2.5,3.5-4.6,3.5C455.7,71.4,454.7,70.8,454.7,69.7z"/>
</g>
<rect x="472.7" y="72.1" width="0.5" height="16.4"/>
<g>
	<path d="M472.7,72.2c0-1.8,2.5-3.5,4.5-3.5c1.3,0,2.3,0.7,2.3,1.7c0,1.7-2.5,3.5-4.6,3.5C473.7,73.9,472.7,73.3,472.7,72.2z"/>
</g>
<g>
	<path d="M470.8,78.1v-4l-3,1.1V64.5h0.5v4l3-1.1v10.7H470.8z M468.3,73.4l2.5-0.9v-3.3l-2.5,0.9V73.4z"/>
</g>
<rect x="497.1" y="58.9" width="0.5" height="16.6"/>
<g>
	<path d="M494.8,73.6c1.6,0,2.7,0.7,2.7,2c0,1.9-2.3,3.4-4.5,3.4c-1.3,0-2.4-0.7-2.4-1.8C490.6,75.4,492.8,73.6,494.8,73.6z
		 M491,77.4c0,0.6,0.4,0.9,1.1,0.9c1.4,0,4.9-2.1,4.9-3.3c0-0.6-0.4-0.9-1.1-0.9C494.7,74.2,491,76.2,491,77.4z"/>
</g>
</svg>
