<?xml version="1.0" encoding="utf-8"?>

<!--
	ScaleBook
	Copyright (c) Leland Jansen 2015. All rights reserved.
-->

<!DOCTYPE svg PUBLIC "-//W3C//DTD SVG 1.1//EN" "http://www.w3.org/Graphics/SVG/1.1/DTD/svg11.dtd">
<svg version="1.1" id="Layer_1" xmlns="http://www.w3.org/2000/svg" xmlns:xlink="http://www.w3.org/1999/xlink" x="0px" y="0px"
	 viewBox="0 0 553 85.1" enable-background="new 0 0 553 85.1" xml:space="preserve">
<rect x="8.5" y="9.7" width="0.8" height="69.1"/>
<g>
	<path d="M7.6,10.4c-2,1.1-3.7,5.9-3.7,9.7c0,2.4,1.4,10.2,1.4,12.7c0,5.1-1.6,8.9-4.7,11.5c3.1,2.5,4.7,6.3,4.7,11.4
		c0,2.4-1.4,10.2-1.4,12.7c0,3.9,1.8,8.7,3.7,9.8v0.7C4,76.5,1.7,70.3,1.7,65.4c0-2.2,1.8-9.7,1.8-11.9c0-3.9-1-6.8-3-8.5
		C0.1,44.7,0,44.5,0,44.3s0.1-0.4,0.5-0.7c2-1.7,3-4.4,3-7.8c0-2.2-1.8-10.4-1.8-12.6c0-5.3,2.1-10.7,5.9-13.5V10.4z"/>
</g>
<rect x="548" y="9.7" width="0.8" height="69.1"/>
<rect x="550.5" y="9.7" width="2.5" height="69.1"/>
<rect x="8.6" y="29.3" width="544.4" height="0.5"/>
<rect x="8.6" y="24.4" width="544.4" height="0.5"/>
<rect x="8.6" y="19.4" width="544.4" height="0.5"/>
<rect x="8.6" y="14.4" width="544.4" height="0.5"/>
<rect x="8.6" y="9.5" width="544.4" height="0.5"/>
<g>
	<path d="M20.4,29.4c-4.2,0-8.1-3.1-8.1-6.9c0-3.2,2.3-6.7,6.8-10.5c-0.3-1.2-0.4-2.4-0.4-3.6c0-3.5,1.2-6.8,3.2-8.5
		c1.8,2.5,2.7,4.9,2.7,7.1c0,2.9-1.3,5.6-4.3,8.1l0.9,4.2c0.5,0,0.8-0.1,0.8-0.1c2.6,0,4.8,2,4.8,4.7c0,1.9-1.4,3.7-3.6,4.8
		c0-0.1,0.9,3.8,0.9,4.3c0,2.5-2.3,4.2-4.9,4.2c-2,0-3.6-1.3-3.6-3.4c0-1.4,1-2.6,2.4-2.6c1.3,0,2.3,1.3,2.3,2.5
		c0,1.4-1.2,2.3-2.7,2.5c0.6,0.3,1.2,0.5,1.9,0.5c2.1,0,4.1-1.6,4.1-3.6c0-0.2,0-0.4-0.1-0.6l-0.8-3.7
		C22.1,29.3,21.4,29.4,20.4,29.4z M18.2,24.2c0,1,0.5,1.9,1.6,2.5c-1.8-0.3-3-1.4-3-3.1c0-2,1.7-3.7,3.8-4.1l-0.8-4
		c-3.7,2.8-5.7,5.5-5.7,8.1c0,2.9,2.8,5.3,6,5.3c0.9,0,1.7-0.2,2.4-0.5l-1.4-6.8C19.5,21.8,18.2,22.8,18.2,24.2z M22.3,2.8
		c-1.6,0-2.9,3.7-2.9,7c0,0.7,0,1.3,0.2,1.9c2.7-2.4,4-4.5,4-6.5c0-0.9-0.3-1.7-1-2.4C22.5,2.9,22.4,2.8,22.3,2.8z M25,24.7
		c0-1.6-1.2-3.3-2.9-3.3c-0.1,0-0.2,0-0.5,0l1.4,6.6C24.4,27.2,25,26,25,24.7z"/>
</g>
<rect x="43.8" y="23.4" fill-rule="evenodd" clip-rule="evenodd" width="56.3" height="2.5"/>
<rect x="43.8" y="19.6" fill-rule="evenodd" clip-rule="evenodd" width="56.3" height="2.5"/>
<polygon fill-rule="evenodd" clip-rule="evenodd" points="119,15.9 175.3,11 175.3,8.5 119,13.4 "/>
<polygon fill-rule="evenodd" clip-rule="evenodd" points="119,12.2 175.3,7.2 175.3,4.8 119,9.7 "/>
<rect x="187.5" y="29.6" fill-rule="evenodd" clip-rule="evenodd" width="56.4" height="2.5"/>
<rect x="187.5" y="33.3" fill-rule="evenodd" clip-rule="evenodd" width="56.4" height="2.5"/>
<rect x="262.7" y="28.3" fill-rule="evenodd" clip-rule="evenodd" width="56.3" height="2.5"/>
<rect x="262.7" y="32" fill-rule="evenodd" clip-rule="evenodd" width="56.3" height="2.5"/>
<polygon fill-rule="evenodd" clip-rule="evenodd" points="344.2,11 400.6,15.9 400.6,13.4 344.2,8.5 "/>
<polygon fill-rule="evenodd" clip-rule="evenodd" points="344.2,7.2 400.6,12.2 400.6,9.7 344.2,4.8 "/>
<polygon fill-rule="evenodd" clip-rule="evenodd" points="419.4,24.6 475.8,25.8 475.8,23.4 419.4,22.1 "/>
<polygon fill-rule="evenodd" clip-rule="evenodd" points="419.4,20.9 475.8,22.1 475.8,19.6 419.4,18.4 "/>
<rect x="8.6" y="78.6" width="544.4" height="0.5"/>
<rect x="8.6" y="73.7" width="544.4" height="0.5"/>
<rect x="8.6" y="68.7" width="544.4" height="0.5"/>
<rect x="8.6" y="63.7" width="544.4" height="0.5"/>
<rect x="8.6" y="58.8" width="544.4" height="0.5"/>
<g>
	<path d="M15.9,73.2c2.9-2.6,4.7-6.1,4.7-9.2c0-2.5-1.4-4.4-3.7-4.4c-1.6,0-3.4,1.3-3.4,2.7c0,0.2,0,0.3,0.1,0.3
		c-0.1,0,0.6-0.6,1.4-0.6c0.9,0,1.5,0.8,1.5,1.7c0,1.2-0.9,2.2-2.1,2.2c-1.2,0-2.1-1.3-2.1-2.8c0-2.3,2.3-4.1,4.8-4.1
		c4.7,0,5.9,3.2,5.9,5.8c0,1.6-0.4,2.9-2,5.3c-1.9,3.1-6.4,5.3-8.1,5.3c-0.4,0-0.6-0.2-0.6-0.5C14,74.5,15.1,73.9,15.9,73.2z
		 M25.8,60.5c0.6,0,1,0.4,1,1c0,0.6-0.4,1-1,1s-1-0.4-1-1C24.8,60.9,25.3,60.5,25.8,60.5z M25.8,65.4c0.6,0,1,0.4,1,1
		c0,0.6-0.4,1-1,1s-1-0.4-1-1C24.8,65.9,25.3,65.4,25.8,65.4z"/>
</g>
<rect x="43.8" y="61.5" fill-rule="evenodd" clip-rule="evenodd" width="56.3" height="2.5"/>
<rect x="43.8" y="57.8" fill-rule="evenodd" clip-rule="evenodd" width="56.3" height="2.5"/>
<polygon fill-rule="evenodd" clip-rule="evenodd" points="112.5,81.3 168.7,76.4 168.7,73.9 112.5,78.9 "/>
<polygon fill-rule="evenodd" clip-rule="evenodd" points="112.5,85.1 168.7,80.1 168.7,77.6 112.5,82.6 "/>
<rect x="187.5" y="67.7" fill-rule="evenodd" clip-rule="evenodd" width="56.4" height="2.5"/>
<rect x="187.5" y="71.4" fill-rule="evenodd" clip-rule="evenodd" width="56.4" height="2.5"/>
<rect x="262.7" y="64" fill-rule="evenodd" clip-rule="evenodd" width="56.3" height="2.5"/>
<rect x="262.7" y="67.7" fill-rule="evenodd" clip-rule="evenodd" width="56.3" height="2.5"/>
<polygon fill-rule="evenodd" clip-rule="evenodd" points="337.7,75.1 394.1,80.1 394.1,77.6 337.7,72.6 "/>
<polygon fill-rule="evenodd" clip-rule="evenodd" points="337.7,78.9 394.1,83.8 394.1,81.3 337.7,76.4 "/>
<polygon fill-rule="evenodd" clip-rule="evenodd" points="419.4,60.2 475.8,65.2 475.8,62.7 419.4,57.8 "/>
<polygon fill-rule="evenodd" clip-rule="evenodd" points="419.4,56.5 475.8,61.5 475.8,59 419.4,54 "/>
<rect x="35.3" y="34.1" width="10.5" height="0.8"/>
<rect x="35.3" y="39.1" width="10.5" height="0.8"/>
<rect x="35.3" y="44.1" width="10.5" height="0.8"/>
<rect x="43.6" y="19.8" width="0.5" height="23.9"/>
<g>
	<path d="M37.1,45.3c0-1.8,2.5-3.5,4.5-3.5c1.3,0,2.3,0.7,2.3,1.7c0,1.7-2.5,3.5-4.6,3.5C38.1,47,37.1,46.4,37.1,45.3z"/>
</g>
<rect x="54" y="34.1" width="10.5" height="0.8"/>
<rect x="54" y="39.1" width="10.5" height="0.8"/>
<rect x="62.3" y="19.8" width="0.5" height="18.9"/>
<g>
	<path d="M55.9,40.3c0-1.8,2.5-3.5,4.5-3.5c1.3,0,2.3,0.7,2.3,1.7c0,1.7-2.5,3.5-4.6,3.5C56.9,42.1,55.9,41.4,55.9,40.3z"/>
</g>
<g>
	<path d="M48.8,31.2h0.6l-0.1,6.2c0.4-0.7,1-1,1.8-1c1.2,0,2.2,0.8,2.2,1.9c0,0.8-0.5,1.8-1.7,2.7l-2.8,2.1V31.2z M49.3,38.1
		c-0.1,0.8-0.1,1.4-0.1,1.9c0,1,0,1.6,0.1,2c1-0.7,2.4-2.6,2.4-3.7c0-0.6-0.5-1.1-1.1-1.1C50.1,37.2,49.6,37.5,49.3,38.1z"/>
</g>
<rect x="72.8" y="34.1" width="10.5" height="0.8"/>
<rect x="81.1" y="19.8" width="0.5" height="16.4"/>
<g>
	<path d="M74.6,37.9c0-1.8,2.5-3.5,4.5-3.5c1.3,0,2.3,0.7,2.3,1.7c0,1.7-2.5,3.5-4.6,3.5C75.6,39.6,74.6,38.9,74.6,37.9z"/>
</g>
<g>
	<path d="M67.5,28.7h0.6L68,34.9c0.4-0.7,1-1,1.8-1c1.2,0,2.2,0.8,2.2,1.9c0,0.8-0.5,1.8-1.7,2.7l-2.8,2.1V28.7z M68.1,35.6
		C68,36.3,68,37,68,37.5c0,1,0,1.6,0.1,2c1-0.7,2.4-2.6,2.4-3.7c0-0.6-0.5-1.1-1.1-1.1C68.8,34.8,68.4,35,68.1,35.6z"/>
</g>
<rect x="91.5" y="34.1" width="10.5" height="0.8"/>
<rect x="99.8" y="19.8" width="0.5" height="16.4"/>
<g>
	<path d="M93.4,37.9c0-1.8,2.5-3.5,4.5-3.5c1.3,0,2.3,0.7,2.3,1.7c0,1.7-2.5,3.5-4.6,3.5C94.4,39.6,93.4,38.9,93.4,37.9z"/>
</g>
<g>
	<path d="M90.2,43.8v-4l-3,1.1V30.2h0.5v4l3-1.1v10.7H90.2z M87.7,39.1l2.5-0.9v-3.3l-2.5,0.9V39.1z"/>
</g>
<rect x="110.5" y="34.1" width="10.5" height="0.8"/>
<rect x="118.8" y="9.9" width="0.5" height="23.9"/>
<g>
	<path d="M112.3,35.4c0-1.8,2.5-3.5,4.5-3.5c1.3,0,2.3,0.7,2.3,1.7c0,1.7-2.5,3.5-4.6,3.5C113.3,37.1,112.3,36.5,112.3,35.4z"/>
</g>
<rect x="137.5" y="8.3" width="0.5" height="20.5"/>
<g>
	<path d="M131.1,30.4c0-1.8,2.5-3.5,4.5-3.5c1.3,0,2.3,0.7,2.3,1.7c0,1.7-2.5,3.5-4.6,3.5C132,32.1,131.1,31.5,131.1,30.4z"/>
</g>
<g>
	<path d="M125.2,21.2h0.6l-0.1,6.2c0.4-0.7,1-1,1.8-1c1.2,0,2.2,0.8,2.2,1.9c0,0.8-0.5,1.8-1.7,2.7l-2.8,2.1V21.2z M125.8,28.1
		c-0.1,0.8-0.1,1.4-0.1,1.9c0,1,0,1.6,0.1,2c1-0.7,2.4-2.6,2.4-3.7c0-0.6-0.5-1.1-1.1-1.1C126.5,27.3,126.1,27.6,125.8,28.1z"/>
</g>
<rect x="156.3" y="6.6" width="0.5" height="19.7"/>
<g>
	<path d="M149.8,27.9c0-1.8,2.5-3.5,4.5-3.5c1.3,0,2.3,0.7,2.3,1.7c0,1.7-2.5,3.5-4.6,3.5C150.8,29.7,149.8,29,149.8,27.9z"/>
</g>
<rect x="175" y="4.9" width="0.5" height="16.4"/>
<g>
	<path d="M168.6,23c0-1.8,2.5-3.5,4.5-3.5c1.3,0,2.3,0.7,2.3,1.7c0,1.7-2.5,3.5-4.6,3.5C169.6,24.7,168.6,24.1,168.6,23z"/>
</g>
<g>
	<path d="M162.7,13.8h0.6l-0.1,6.2c0.4-0.7,1-1,1.8-1c1.2,0,2.2,0.8,2.2,1.9c0,0.8-0.5,1.8-1.7,2.7l-2.8,2.1V13.8z M163.3,20.7
		c-0.1,0.8-0.1,1.4-0.1,1.9c0,1,0,1.6,0.1,2c1-0.7,2.4-2.6,2.4-3.7c0-0.6-0.5-1.1-1.1-1.1C164,19.9,163.6,20.2,163.3,20.7z"/>
</g>
<rect x="187.3" y="20.4" width="0.5" height="15.2"/>
<g>
	<path d="M187.3,20.5c0-1.8,2.5-3.5,4.5-3.5c1.3,0,2.3,0.7,2.3,1.7c0,1.7-2.5,3.5-4.6,3.5C188.3,22.2,187.3,21.6,187.3,20.5z"/>
</g>
<g>
	<path d="M181.5,11.3h0.6l-0.1,6.2c0.4-0.7,1-1,1.8-1c1.2,0,2.2,0.8,2.2,1.9c0,0.8-0.5,1.8-1.7,2.7l-2.8,2.1V11.3z M182,18.2
		c-0.1,0.8-0.1,1.4-0.1,1.9c0,1,0,1.6,0.1,2c1-0.7,2.4-2.6,2.4-3.7c0-0.6-0.5-1.1-1.1-1.1C182.7,17.4,182.3,17.7,182,18.2z"/>
</g>
<rect x="206" y="20.4" width="0.5" height="15.2"/>
<g>
	<path d="M206.1,20.5c0-1.8,2.5-3.5,4.5-3.5c1.3,0,2.3,0.7,2.3,1.7c0,1.7-2.5,3.5-4.6,3.5C207.1,22.2,206.1,21.6,206.1,20.5z"/>
</g>
<g>
	<path d="M204.2,26.4v-4l-3,1.1V12.8h0.5v4l3-1.1v10.7H204.2z M201.6,21.7l2.5-0.9v-3.3l-2.5,0.9V21.7z"/>
</g>
<rect x="224.9" y="17.9" width="0.5" height="17.7"/>
<g>
	<path d="M225,18c0-1.8,2.5-3.5,4.5-3.5c1.3,0,2.3,0.7,2.3,1.7c0,1.7-2.5,3.5-4.6,3.5C226,19.7,225,19.1,225,18z"/>
</g>
<rect x="243.7" y="13" width="0.5" height="22.6"/>
<g>
	<path d="M243.8,13c0-1.8,2.5-3.5,4.5-3.5c1.3,0,2.3,0.7,2.3,1.7c0,1.7-2.5,3.5-4.6,3.5C244.7,14.8,243.8,14.1,243.8,13z"/>
</g>
<g>
	<path d="M237.9,3.9h0.6l-0.1,6.2c0.4-0.7,1-1,1.8-1c1.2,0,2.2,0.8,2.2,1.9c0,0.8-0.5,1.8-1.7,2.7l-2.8,2.1V3.9z M238.5,10.8
		c-0.1,0.8-0.1,1.4-0.1,1.9c0,1,0,1.6,0.1,2c1-0.7,2.4-2.6,2.4-3.7c0-0.6-0.5-1.1-1.1-1.1C239.2,10,238.8,10.2,238.5,10.8z"/>
</g>
<rect x="262.5" y="10.5" width="0.5" height="23.9"/>
<g>
	<path d="M262.5,10.6c0-1.8,2.5-3.5,4.5-3.5c1.3,0,2.3,0.7,2.3,1.7c0,1.7-2.5,3.5-4.6,3.5C263.5,12.3,262.5,11.7,262.5,10.6z"/>
</g>
<rect x="281.2" y="13" width="0.5" height="21.4"/>
<g>
	<path d="M281.3,13c0-1.8,2.5-3.5,4.5-3.5c1.3,0,2.3,0.7,2.3,1.7c0,1.7-2.5,3.5-4.6,3.5C282.3,14.8,281.3,14.1,281.3,13z"/>
</g>
<rect x="300" y="17.9" width="0.5" height="16.4"/>
<g>
	<path d="M300,18c0-1.8,2.5-3.5,4.5-3.5c1.3,0,2.3,0.7,2.3,1.7c0,1.7-2.5,3.5-4.6,3.5C301,19.7,300,19.1,300,18z"/>
</g>
<rect x="318.7" y="17.9" width="0.5" height="16.4"/>
<g>
	<path d="M318.8,18c0-1.8,2.5-3.5,4.5-3.5c1.3,0,2.3,0.7,2.3,1.7c0,1.7-2.5,3.5-4.6,3.5C319.8,19.7,318.8,19.1,318.8,18z"/>
</g>
<g>
	<path d="M312.9,8.8h0.6l-0.1,6.2c0.4-0.7,1-1,1.8-1c1.2,0,2.2,0.8,2.2,1.9c0,0.8-0.5,1.8-1.7,2.7l-2.8,2.1V8.8z M313.5,15.7
		c-0.1,0.8-0.1,1.4-0.1,1.9c0,1,0,1.6,0.1,2c1-0.7,2.4-2.6,2.4-3.7c0-0.6-0.5-1.1-1.1-1.1C314.2,14.9,313.8,15.2,313.5,15.7z"/>
</g>
<rect x="344" y="4.9" width="0.5" height="14"/>
<g>
	<path d="M337.6,20.5c0-1.8,2.5-3.5,4.5-3.5c1.3,0,2.3,0.7,2.3,1.7c0,1.7-2.5,3.5-4.6,3.5C338.5,22.2,337.6,21.6,337.6,20.5z"/>
</g>
<g>
	<path d="M331.7,11.3h0.6l-0.1,6.2c0.4-0.7,1-1,1.8-1c1.2,0,2.2,0.8,2.2,1.9c0,0.8-0.5,1.8-1.7,2.7l-2.8,2.1V11.3z M332.2,18.2
		c-0.1,0.8-0.1,1.4-0.1,1.9c0,1,0,1.6,0.1,2c1-0.7,2.4-2.6,2.4-3.7c0-0.6-0.5-1.1-1.1-1.1C333,17.4,332.5,17.7,332.2,18.2z"/>
</g>
<rect x="362.9" y="6.5" width="0.5" height="14.9"/>
<g>
	<path d="M356.5,23c0-1.8,2.5-3.5,4.5-3.5c1.3,0,2.3,0.7,2.3,1.7c0,1.7-2.5,3.5-4.6,3.5C357.4,24.7,356.5,24.1,356.5,23z"/>
</g>
<rect x="381.7" y="8.2" width="0.5" height="18.1"/>
<g>
	<path d="M375.2,27.9c0-1.8,2.5-3.5,4.5-3.5c1.3,0,2.3,0.7,2.3,1.7c0,1.7-2.5,3.5-4.6,3.5C376.2,29.7,375.2,29,375.2,27.9z"/>
</g>
<rect x="400.4" y="9.9" width="0.5" height="18.9"/>
<g>
	<path d="M394,30.4c0-1.8,2.5-3.5,4.5-3.5c1.3,0,2.3,0.7,2.3,1.7c0,1.7-2.5,3.5-4.6,3.5C395,32.1,394,31.5,394,30.4z"/>
</g>
<rect x="410.9" y="34.1" width="10.5" height="0.8"/>
<rect x="419.2" y="18.6" width="0.5" height="15.2"/>
<g>
	<path d="M412.7,35.4c0-1.8,2.5-3.5,4.5-3.5c1.3,0,2.3,0.7,2.3,1.7c0,1.7-2.5,3.5-4.6,3.5C413.7,37.1,412.7,36.5,412.7,35.4z"/>
</g>
<g>
	<path d="M409.6,41.3v-4l-3,1.1V27.7h0.5v4l3-1.1v10.7H409.6z M407,36.6l2.5-0.9v-3.3l-2.5,0.9V36.6z"/>
</g>
<rect x="429.6" y="34.1" width="10.5" height="0.8"/>
<rect x="437.9" y="18.9" width="0.5" height="17.4"/>
<g>
	<path d="M431.5,37.9c0-1.8,2.5-3.5,4.5-3.5c1.3,0,2.3,0.7,2.3,1.7c0,1.7-2.5,3.5-4.6,3.5C432.5,39.6,431.5,38.9,431.5,37.9z"/>
</g>
<g>
	<path d="M428.3,43.8v-4l-3,1.1V30.2h0.5v4l3-1.1v10.7H428.3z M425.8,39.1l2.5-0.9v-3.3l-2.5,0.9V39.1z"/>
</g>
<rect x="448.4" y="34.1" width="10.5" height="0.8"/>
<rect x="456.7" y="19.3" width="0.5" height="16.9"/>
<g>
	<path d="M450.3,37.9c0-1.8,2.5-3.5,4.5-3.5c1.3,0,2.3,0.7,2.3,1.7c0,1.7-2.5,3.5-4.6,3.5C451.2,39.6,450.3,38.9,450.3,37.9z"/>
</g>
<g>
	<path d="M443.1,28.7h0.6l-0.1,6.2c0.4-0.7,1-1,1.8-1c1.2,0,2.2,0.8,2.2,1.9c0,0.8-0.5,1.8-1.7,2.7l-2.8,2.1V28.7z M443.7,35.6
		c-0.1,0.8-0.1,1.4-0.1,1.9c0,1,0,1.6,0.1,2c1-0.7,2.4-2.6,2.4-3.7c0-0.6-0.5-1.1-1.1-1.1C444.4,34.8,444,35,443.7,35.6z"/>
</g>
<rect x="467.3" y="34.1" width="10.5" height="0.8"/>
<rect x="467.3" y="39.1" width="10.5" height="0.8"/>
<rect x="475.6" y="19.8" width="0.5" height="18.9"/>
<g>
	<path d="M469.2,40.3c0-1.8,2.5-3.5,4.5-3.5c1.3,0,2.3,0.7,2.3,1.7c0,1.7-2.5,3.5-4.6,3.5C470.1,42.1,469.2,41.4,469.2,40.3z"/>
</g>
<rect x="486.1" y="34.1" width="10.7" height="0.8"/>
<rect x="486.1" y="39.1" width="10.7" height="0.8"/>
<rect x="486.1" y="44.1" width="10.7" height="0.8"/>
<rect x="494.5" y="19.6" width="0.5" height="24"/>
<g>
	<path d="M492.2,41.7c1.6,0,2.7,0.7,2.7,2c0,1.9-2.3,3.4-4.5,3.4c-1.3,0-2.4-0.7-2.4-1.8C487.9,43.5,490.2,41.7,492.2,41.7z
		 M488.4,45.6c0,0.6,0.4,0.9,1.1,0.9c1.4,0,4.9-2.1,4.9-3.3c0-0.6-0.4-0.9-1.1-0.9C492,42.3,488.4,44.4,488.4,45.6z"/>
</g>
<rect x="43.6" y="57.9" width="0.5" height="22.6"/>
<g>
	<path d="M37.1,82.2c0-1.8,2.5-3.5,4.5-3.5c1.3,0,2.3,0.7,2.3,1.7c0,1.7-2.5,3.5-4.6,3.5C38.1,83.9,37.1,83.3,37.1,82.2z"/>
</g>
<rect x="62.3" y="57.9" width="0.5" height="17.7"/>
<g>
	<path d="M55.9,77.2c0-1.8,2.5-3.5,4.5-3.5c1.3,0,2.3,0.7,2.3,1.7c0,1.7-2.5,3.5-4.6,3.5C56.9,78.9,55.9,78.3,55.9,77.2z"/>
</g>
<g>
	<path d="M50,68.1h0.6l-0.1,6.2c0.4-0.7,1-1,1.8-1c1.2,0,2.2,0.8,2.2,1.9c0,0.8-0.5,1.8-1.7,2.7L50,80V68.1z M50.6,75
		c-0.1,0.8-0.1,1.4-0.1,1.9c0,1,0,1.6,0.1,2c1-0.7,2.4-2.6,2.4-3.7c0-0.6-0.5-1.1-1.1-1.1C51.3,74.1,50.9,74.4,50.6,75z"/>
</g>
<rect x="81.1" y="57.9" width="0.5" height="15.2"/>
<g>
	<path d="M74.6,74.7c0-1.8,2.5-3.5,4.5-3.5c1.3,0,2.3,0.7,2.3,1.7c0,1.7-2.5,3.5-4.6,3.5C75.6,76.5,74.6,75.8,74.6,74.7z"/>
</g>
<g>
	<path d="M68.8,65.6h0.6l-0.1,6.2c0.4-0.7,1-1,1.8-1c1.2,0,2.2,0.8,2.2,1.9c0,0.8-0.5,1.8-1.7,2.7l-2.8,2.1V65.6z M69.3,72.5
		c-0.1,0.8-0.1,1.4-0.1,1.9c0,1,0,1.6,0.1,2c1-0.7,2.4-2.6,2.4-3.7c0-0.6-0.5-1.1-1.1-1.1C70,71.6,69.6,71.9,69.3,72.5z"/>
</g>
<rect x="99.8" y="57.9" width="0.5" height="15.2"/>
<g>
	<path d="M93.4,74.7c0-1.8,2.5-3.5,4.5-3.5c1.3,0,2.3,0.7,2.3,1.7c0,1.7-2.5,3.5-4.6,3.5C94.4,76.5,93.4,75.8,93.4,74.7z"/>
</g>
<g>
	<path d="M91.5,80.7v-4l-3,1.1V67.1h0.5v4l3-1.1v10.7H91.5z M88.9,76l2.5-0.9v-3.3l-2.5,0.9V76z"/>
</g>
<rect x="112.2" y="72.2" width="0.5" height="12.7"/>
<g>
	<path d="M112.3,72.3c0-1.8,2.5-3.5,4.5-3.5c1.3,0,2.3,0.7,2.3,1.7c0,1.7-2.5,3.5-4.6,3.5C113.3,74,112.3,73.4,112.3,72.3z"/>
</g>
<rect x="131" y="67.2" width="0.5" height="16.1"/>
<g>
	<path d="M131.1,67.3c0-1.8,2.5-3.5,4.5-3.5c1.3,0,2.3,0.7,2.3,1.7c0,1.7-2.5,3.5-4.6,3.5C132,69,131.1,68.4,131.1,67.3z"/>
</g>
<g>
	<path d="M125.2,58.1h0.6l-0.1,6.2c0.4-0.7,1-1,1.8-1c1.2,0,2.2,0.8,2.2,1.9c0,0.8-0.5,1.8-1.7,2.7l-2.8,2.1V58.1z M125.8,65
		c-0.1,0.8-0.1,1.4-0.1,1.9c0,1,0,1.6,0.1,2c1-0.7,2.4-2.6,2.4-3.7c0-0.6-0.5-1.1-1.1-1.1C126.5,64.2,126.1,64.5,125.8,65z"/>
</g>
<rect x="149.8" y="64.7" width="0.5" height="16.9"/>
<g>
	<path d="M149.8,64.8c0-1.8,2.5-3.5,4.5-3.5c1.3,0,2.3,0.7,2.3,1.7c0,1.7-2.5,3.5-4.6,3.5C150.8,66.5,149.8,65.9,149.8,64.8z"/>
</g>
<rect x="168.5" y="59.8" width="0.5" height="20.2"/>
<g>
	<path d="M168.6,59.9c0-1.8,2.5-3.5,4.5-3.5c1.3,0,2.3,0.7,2.3,1.7c0,1.7-2.5,3.5-4.6,3.5C169.6,61.6,168.6,61,168.6,59.9z"/>
</g>
<g>
	<path d="M162.7,50.7h0.6l-0.1,6.2c0.4-0.7,1-1,1.8-1c1.2,0,2.2,0.8,2.2,1.9c0,0.8-0.5,1.8-1.7,2.7l-2.8,2.1V50.7z M163.3,57.6
		c-0.1,0.8-0.1,1.4-0.1,1.9c0,1,0,1.6,0.1,2c1-0.7,2.4-2.6,2.4-3.7c0-0.6-0.5-1.1-1.1-1.1C164,56.8,163.6,57,163.3,57.6z"/>
</g>
<rect x="187.3" y="57.3" width="0.5" height="16.4"/>
<g>
	<path d="M187.3,57.4c0-1.8,2.5-3.5,4.5-3.5c1.3,0,2.3,0.7,2.3,1.7c0,1.7-2.5,3.5-4.6,3.5C188.3,59.1,187.3,58.5,187.3,57.4z"/>
</g>
<g>
	<path d="M181.5,48.2h0.6l-0.1,6.2c0.4-0.7,1-1,1.8-1c1.2,0,2.2,0.8,2.2,1.9c0,0.8-0.5,1.8-1.7,2.7l-2.8,2.1V48.2z M182,55.1
		c-0.1,0.8-0.1,1.4-0.1,1.9c0,1,0,1.6,0.1,2c1-0.7,2.4-2.6,2.4-3.7c0-0.6-0.5-1.1-1.1-1.1C182.7,54.3,182.3,54.6,182,55.1z"/>
</g>
<rect x="206" y="57.3" width="0.5" height="16.4"/>
<g>
	<path d="M206.1,57.4c0-1.8,2.5-3.5,4.5-3.5c1.3,0,2.3,0.7,2.3,1.7c0,1.7-2.5,3.5-4.6,3.5C207.1,59.1,206.1,58.5,206.1,57.4z"/>
</g>
<g>
	<path d="M204.2,63.3v-4l-3,1.1V49.7h0.5v4l3-1.1v10.7H204.2z M201.6,58.6l2.5-0.9v-3.3l-2.5,0.9V58.6z"/>
</g>
<rect x="223.2" y="53.7" width="10.5" height="0.8"/>
<rect x="224.9" y="54.8" width="0.5" height="18.9"/>
<g>
	<path d="M225,54.9c0-1.8,2.5-3.5,4.5-3.5c1.3,0,2.3,0.7,2.3,1.7c0,1.7-2.5,3.5-4.6,3.5C226,56.6,225,56,225,54.9z"/>
</g>
<rect x="241.9" y="53.7" width="10.5" height="0.8"/>
<rect x="241.9" y="48.7" width="10.5" height="0.8"/>
<rect x="243.7" y="49.9" width="0.5" height="23.9"/>
<g>
	<path d="M243.8,49.9c0-1.8,2.5-3.5,4.5-3.5c1.3,0,2.3,0.7,2.3,1.7c0,1.7-2.5,3.5-4.6,3.5C244.7,51.7,243.8,51,243.8,49.9z"/>
</g>
<g>
	<path d="M236.6,40.8h0.6l-0.1,6.2c0.4-0.7,1-1,1.8-1c1.2,0,2.2,0.8,2.2,1.9c0,0.8-0.5,1.8-1.7,2.7l-2.8,2.1V40.8z M237.2,47.7
		c-0.1,0.8-0.1,1.4-0.1,1.9c0,1,0,1.6,0.1,2c1-0.7,2.4-2.6,2.4-3.7c0-0.6-0.5-1.1-1.1-1.1C237.9,46.8,237.5,47.1,237.2,47.7z"/>
</g>
<rect x="260.7" y="53.7" width="10.5" height="0.8"/>
<rect x="260.7" y="48.7" width="10.5" height="0.8"/>
<rect x="262.5" y="47.4" width="0.5" height="22.6"/>
<g>
	<path d="M262.5,47.5c0-1.8,2.5-3.5,4.5-3.5c1.3,0,2.3,0.7,2.3,1.7c0,1.7-2.5,3.5-4.6,3.5C263.5,49.2,262.5,48.6,262.5,47.5z"/>
</g>
<rect x="279.4" y="53.7" width="10.5" height="0.8"/>
<rect x="279.4" y="48.7" width="10.5" height="0.8"/>
<rect x="281.2" y="49.9" width="0.5" height="20.2"/>
<g>
	<path d="M281.3,49.9c0-1.8,2.5-3.5,4.5-3.5c1.3,0,2.3,0.7,2.3,1.7c0,1.7-2.5,3.5-4.6,3.5C282.3,51.7,281.3,51,281.3,49.9z"/>
</g>
<rect x="298.2" y="53.7" width="10.5" height="0.8"/>
<rect x="300" y="54.8" width="0.5" height="15.2"/>
<g>
	<path d="M300,54.9c0-1.8,2.5-3.5,4.5-3.5c1.3,0,2.3,0.7,2.3,1.7c0,1.7-2.5,3.5-4.6,3.5C301,56.6,300,56,300,54.9z"/>
</g>
<rect x="316.9" y="53.7" width="10.5" height="0.8"/>
<rect x="318.7" y="54.8" width="0.5" height="15.2"/>
<g>
	<path d="M318.8,54.9c0-1.8,2.5-3.5,4.5-3.5c1.3,0,2.3,0.7,2.3,1.7c0,1.7-2.5,3.5-4.6,3.5C319.8,56.6,318.8,56,318.8,54.9z"/>
</g>
<g>
	<path d="M311.7,45.7h0.6l-0.1,6.2c0.4-0.7,1-1,1.8-1c1.2,0,2.2,0.8,2.2,1.9c0,0.8-0.5,1.8-1.7,2.7l-2.8,2.1V45.7z M312.2,52.6
		c-0.1,0.8-0.1,1.4-0.1,1.9c0,1,0,1.6,0.1,2c1-0.7,2.4-2.6,2.4-3.7c0-0.6-0.5-1.1-1.1-1.1C313,51.8,312.5,52.1,312.2,52.6z"/>
</g>
<rect x="337.5" y="57.3" width="0.5" height="21.4"/>
<g>
	<path d="M337.6,57.4c0-1.8,2.5-3.5,4.5-3.5c1.3,0,2.3,0.7,2.3,1.7c0,1.7-2.5,3.5-4.6,3.5C338.5,59.1,337.6,58.5,337.6,57.4z"/>
</g>
<g>
	<path d="M331.7,48.2h0.6l-0.1,6.2c0.4-0.7,1-1,1.8-1c1.2,0,2.2,0.8,2.2,1.9c0,0.8-0.5,1.8-1.7,2.7l-2.8,2.1V48.2z M332.2,55.1
		c-0.1,0.8-0.1,1.4-0.1,1.9c0,1,0,1.6,0.1,2c1-0.7,2.4-2.6,2.4-3.7c0-0.6-0.5-1.1-1.1-1.1C333,54.3,332.5,54.6,332.2,55.1z"/>
</g>
<rect x="356.4" y="59.8" width="0.5" height="20.5"/>
<g>
	<path d="M356.5,59.9c0-1.8,2.5-3.5,4.5-3.5c1.3,0,2.3,0.7,2.3,1.7c0,1.7-2.5,3.5-4.6,3.5C357.4,61.6,356.5,61,356.5,59.9z"/>
</g>
<rect x="375.1" y="64.7" width="0.5" height="17.2"/>
<g>
	<path d="M375.2,64.8c0-1.8,2.5-3.5,4.5-3.5c1.3,0,2.3,0.7,2.3,1.7c0,1.7-2.5,3.5-4.6,3.5C376.2,66.5,375.2,65.9,375.2,64.8z"/>
</g>
<rect x="393.9" y="67.2" width="0.5" height="16.4"/>
<g>
	<path d="M394,67.3c0-1.8,2.5-3.5,4.5-3.5c1.3,0,2.3,0.7,2.3,1.7c0,1.7-2.5,3.5-4.6,3.5C395,69,394,68.4,394,67.3z"/>
</g>
<rect x="419.2" y="54.2" width="0.5" height="16.4"/>
<g>
	<path d="M412.7,72.3c0-1.8,2.5-3.5,4.5-3.5c1.3,0,2.3,0.7,2.3,1.7c0,1.7-2.5,3.5-4.6,3.5C413.7,74,412.7,73.4,412.7,72.3z"/>
</g>
<g>
	<path d="M410.8,78.2v-4l-3,1.1V64.6h0.5v4l3-1.1v10.7H410.8z M408.3,73.5l2.5-0.9v-3.3l-2.5,0.9V73.5z"/>
</g>
<rect x="437.9" y="55.8" width="0.5" height="17.4"/>
<g>
	<path d="M431.5,74.7c0-1.8,2.5-3.5,4.5-3.5c1.3,0,2.3,0.7,2.3,1.7c0,1.7-2.5,3.5-4.6,3.5C432.5,76.5,431.5,75.8,431.5,74.7z"/>
</g>
<g>
	<path d="M429.6,80.7v-4l-3,1.1V67.1h0.5v4l3-1.1v10.7H429.6z M427,76l2.5-0.9v-3.3l-2.5,0.9V76z"/>
</g>
<rect x="456.7" y="57.5" width="0.5" height="15.7"/>
<g>
	<path d="M450.3,74.7c0-1.8,2.5-3.5,4.5-3.5c1.3,0,2.3,0.7,2.3,1.7c0,1.7-2.5,3.5-4.6,3.5C451.2,76.5,450.3,75.8,450.3,74.7z"/>
</g>
<g>
	<path d="M444.4,65.6h0.6l-0.1,6.2c0.4-0.7,1-1,1.8-1c1.2,0,2.2,0.8,2.2,1.9c0,0.8-0.5,1.8-1.7,2.7l-2.8,2.1V65.6z M444.9,72.5
		c-0.1,0.8-0.1,1.4-0.1,1.9c0,1,0,1.6,0.1,2c1-0.7,2.4-2.6,2.4-3.7c0-0.6-0.5-1.1-1.1-1.1C445.7,71.6,445.2,71.9,444.9,72.5z"/>
</g>
<rect x="475.6" y="59.2" width="0.5" height="16.4"/>
<g>
	<path d="M469.2,77.2c0-1.8,2.5-3.5,4.5-3.5c1.3,0,2.3,0.7,2.3,1.7c0,1.7-2.5,3.5-4.6,3.5C470.1,78.9,469.2,78.3,469.2,77.2z"/>
</g>
<rect x="494.5" y="64" width="0.5" height="16.6"/>
<g>
	<path d="M492.2,78.6c1.6,0,2.7,0.7,2.7,2c0,1.9-2.3,3.4-4.5,3.4c-1.3,0-2.4-0.7-2.4-1.8C487.9,80.4,490.2,78.6,492.2,78.6z
		 M488.4,82.5c0,0.6,0.4,0.9,1.1,0.9c1.4,0,4.9-2.1,4.9-3.3c0-0.6-0.4-0.9-1.1-0.9C492,79.2,488.4,81.3,488.4,82.5z"/>
</g>
</svg>
