<?xml version="1.0" encoding="utf-8"?>

<!--
	ScaleBook
	Copyright (c) Leland Jansen 2015. All rights reserved.
-->

<!DOCTYPE svg PUBLIC "-//W3C//DTD SVG 1.1//EN" "http://www.w3.org/Graphics/SVG/1.1/DTD/svg11.dtd">
<svg version="1.1" id="Layer_1" xmlns="http://www.w3.org/2000/svg" xmlns:xlink="http://www.w3.org/1999/xlink" x="0px" y="0px"
	 viewBox="0 0 552.9 86.6" enable-background="new 0 0 552.9 86.6" xml:space="preserve">
<rect x="8.4" y="9.9" width="0.8" height="67"/>
<g>
	<path d="M7.4,10.6c-1.9,1.1-3.6,5.8-3.6,9.4c0,2.3,1.4,9.9,1.4,12.3c0,5-1.5,8.6-4.6,11.1c3,2.4,4.6,6.1,4.6,11.1
		c0,2.3-1.4,9.9-1.4,12.3c0,3.8,1.7,8.4,3.6,9.5v0.7c-3.5-2.3-5.8-8.2-5.8-13.1c0-2.1,1.7-9.4,1.7-11.5c0-3.8-1-6.6-2.9-8.2
		C0.1,43.8,0,43.6,0,43.4c0-0.2,0.1-0.4,0.5-0.7c1.9-1.7,2.9-4.2,2.9-7.6c0-2.1-1.7-10-1.7-12.2c0-5.2,2.1-10.4,5.8-13.1V10.6z"/>
</g>
<rect x="547.8" y="9.9" width="0.8" height="67"/>
<rect x="550.4" y="9.9" width="2.5" height="67"/>
<rect x="8.5" y="29.5" width="544.4" height="0.5"/>
<rect x="8.5" y="24.6" width="544.4" height="0.5"/>
<rect x="8.5" y="19.6" width="544.4" height="0.5"/>
<rect x="8.5" y="14.6" width="544.4" height="0.5"/>
<rect x="8.5" y="9.7" width="544.4" height="0.5"/>
<g>
	<path d="M20.3,29.6c-4.2,0-8.1-3.1-8.1-6.9c0-3.2,2.3-6.7,6.8-10.5c-0.3-1.2-0.4-2.4-0.4-3.6c0-3.5,1.2-6.8,3.2-8.5
		c1.8,2.5,2.7,4.9,2.7,7.1c0,2.9-1.3,5.6-4.3,8.1l0.9,4.2c0.5,0,0.8-0.1,0.8-0.1c2.6,0,4.8,2,4.8,4.7c0,1.9-1.4,3.7-3.6,4.8
		c0-0.1,0.9,3.8,0.9,4.3c0,2.5-2.3,4.2-4.9,4.2c-2,0-3.6-1.3-3.6-3.4c0-1.4,1-2.6,2.4-2.6c1.3,0,2.3,1.3,2.3,2.5
		c0,1.4-1.2,2.3-2.7,2.5c0.6,0.3,1.2,0.5,1.9,0.5c2.1,0,4.1-1.6,4.1-3.6c0-0.2,0-0.4-0.1-0.6l-0.8-3.7
		C21.9,29.5,21.2,29.6,20.3,29.6z M18.1,24.4c0,1,0.5,1.9,1.6,2.5c-1.8-0.3-3-1.4-3-3.1c0-2,1.7-3.7,3.8-4.1l-0.8-4
		C16,18.5,14,21.2,14,23.8c0,2.9,2.8,5.3,6,5.3c0.9,0,1.7-0.2,2.4-0.5L21,21.8C19.4,22,18.1,23,18.1,24.4z M22.1,3
		c-1.6,0-2.9,3.7-2.9,7c0,0.7,0,1.3,0.2,1.9c2.7-2.4,4-4.5,4-6.5c0-0.9-0.3-1.7-1-2.4C22.4,3.1,22.3,3,22.1,3z M24.9,24.9
		c0-1.6-1.2-3.3-2.9-3.3c-0.1,0-0.2,0-0.5,0l1.4,6.6C24.2,27.4,24.9,26.2,24.9,24.9z"/>
</g>
<g>
	<path d="M29.5,11.5h0.6L30,17.8c0.4-0.7,1-1,1.8-1c1.2,0,2.2,0.8,2.2,1.9c0,0.8-0.5,1.8-1.7,2.7l-2.8,2.1V11.5z M30.1,18.4
		C30,19.2,30,19.8,30,20.4c0,1,0,1.6,0.1,2c1-0.7,2.4-2.6,2.4-3.7c0-0.6-0.5-1.1-1.1-1.1C30.8,17.6,30.4,17.9,30.1,18.4z"/>
</g>
<g>
	<path d="M35.1,4.1h0.6l-0.1,6.2c0.4-0.7,1-1,1.8-1c1.2,0,2.2,0.8,2.2,1.9c0,0.8-0.5,1.8-1.7,2.7L35.1,16V4.1z M35.7,11
		c-0.1,0.8-0.1,1.4-0.1,1.9c0,1,0,1.6,0.1,2c1-0.7,2.4-2.6,2.4-3.7c0-0.6-0.5-1.1-1.1-1.1C36.4,10.2,36,10.4,35.7,11z"/>
</g>
<g>
	<path d="M40.7,14h0.6l-0.1,6.2c0.4-0.7,1-1,1.8-1c1.2,0,2.2,0.8,2.2,1.9c0,0.8-0.5,1.8-1.7,2.7L40.7,26V14z M41.3,20.9
		c-0.1,0.8-0.1,1.4-0.1,1.9c0,1,0,1.6,0.1,2c1-0.7,2.4-2.6,2.4-3.7c0-0.6-0.5-1.1-1.1-1.1C42,20.1,41.6,20.4,41.3,20.9z"/>
</g>
<g>
	<path d="M46.3,6.6h0.6l-0.1,6.2c0.4-0.7,1-1,1.8-1c1.2,0,2.2,0.8,2.2,1.9c0,0.8-0.5,1.8-1.7,2.7l-2.8,2.1V6.6z M46.9,13.5
		c-0.1,0.8-0.1,1.4-0.1,1.9c0,1,0,1.6,0.1,2c1-0.7,2.4-2.6,2.4-3.7c0-0.6-0.5-1.1-1.1-1.1C47.6,12.6,47.2,12.9,46.9,13.5z"/>
</g>
<g>
	<path d="M51.9,16.5h0.6l-0.1,6.2c0.4-0.7,1-1,1.8-1c1.2,0,2.2,0.8,2.2,1.9c0,0.8-0.5,1.8-1.7,2.7l-2.8,2.1V16.5z M52.4,23.4
		c-0.1,0.8-0.1,1.4-0.1,1.9c0,1,0,1.6,0.1,2c1-0.7,2.4-2.6,2.4-3.7c0-0.6-0.5-1.1-1.1-1.1C53.2,22.6,52.7,22.8,52.4,23.4z"/>
</g>
<g>
	<path d="M57.4,9h0.6l-0.1,6.2c0.4-0.7,1-1,1.8-1c1.2,0,2.2,0.8,2.2,1.9c0,0.8-0.5,1.8-1.7,2.7L57.4,21V9z M58,16
		c-0.1,0.8-0.1,1.4-0.1,1.9c0,1,0,1.6,0.1,2c1-0.7,2.4-2.6,2.4-3.7c0-0.6-0.5-1.1-1.1-1.1C58.7,15.1,58.3,15.4,58,16z"/>
</g>
<g>
	<path d="M63,19h0.6l-0.1,6.2c0.4-0.7,1-1,1.8-1c1.2,0,2.2,0.8,2.2,1.9c0,0.8-0.5,1.8-1.7,2.7L63,30.9V19z M63.6,25.9
		c-0.1,0.8-0.1,1.4-0.1,1.9c0,1,0,1.6,0.1,2c1-0.7,2.4-2.6,2.4-3.7c0-0.6-0.5-1.1-1.1-1.1C64.3,25,63.9,25.3,63.6,25.9z"/>
</g>
<polygon fill-rule="evenodd" clip-rule="evenodd" points="83,21.1 118.2,16.1 118.2,13.6 83,18.6 "/>
<polygon fill-rule="evenodd" clip-rule="evenodd" points="83,17.4 118.2,12.4 118.2,9.9 83,14.9 "/>
<polygon fill-rule="evenodd" clip-rule="evenodd" points="129.8,19.8 166.1,14.9 166.1,12.4 129.8,17.4 "/>
<polygon fill-rule="evenodd" clip-rule="evenodd" points="129.8,16.1 166.1,11.2 166.1,8.7 129.8,13.6 "/>
<polygon fill-rule="evenodd" clip-rule="evenodd" points="177.7,16.1 212.8,11.2 212.8,8.7 177.7,13.6 "/>
<polygon fill-rule="evenodd" clip-rule="evenodd" points="177.7,12.4 212.8,7.4 212.8,5 177.7,9.9 "/>
<polygon fill-rule="evenodd" clip-rule="evenodd" points="224.4,11.2 259.4,6.2 259.4,3.7 224.4,8.7 "/>
<polygon fill-rule="evenodd" clip-rule="evenodd" points="224.4,7.4 259.4,2.5 259.4,0 224.4,5 "/>
<polygon fill-rule="evenodd" clip-rule="evenodd" points="264.7,36 299.7,31 299.7,28.5 264.7,33.5 "/>
<polygon fill-rule="evenodd" clip-rule="evenodd" points="264.7,39.7 299.7,34.7 299.7,32.2 264.7,37.2 "/>
<polygon fill-rule="evenodd" clip-rule="evenodd" points="311.5,31 346.7,36 346.7,33.5 311.5,28.5 "/>
<polygon fill-rule="evenodd" clip-rule="evenodd" points="311.5,34.7 346.7,39.7 346.7,37.2 311.5,32.2 "/>
<polygon fill-rule="evenodd" clip-rule="evenodd" points="364.8,6.2 399.9,11.2 399.9,8.7 364.8,3.7 "/>
<polygon fill-rule="evenodd" clip-rule="evenodd" points="364.8,2.5 399.9,7.4 399.9,5 364.8,0 "/>
<polygon fill-rule="evenodd" clip-rule="evenodd" points="411.7,11.2 446.7,16.1 446.7,13.6 411.7,8.7 "/>
<polygon fill-rule="evenodd" clip-rule="evenodd" points="411.7,7.4 446.7,12.4 446.7,9.9 411.7,5 "/>
<polygon fill-rule="evenodd" clip-rule="evenodd" points="458.3,16.1 493.3,21.1 493.3,18.6 458.3,13.6 "/>
<polygon fill-rule="evenodd" clip-rule="evenodd" points="458.3,12.4 493.3,17.4 493.3,14.9 458.3,9.9 "/>
<polygon fill-rule="evenodd" clip-rule="evenodd" points="505,16.1 540.2,21.1 540.2,18.6 505,13.6 "/>
<polygon fill-rule="evenodd" clip-rule="evenodd" points="505,12.4 540.2,17.4 540.2,14.9 505,9.9 "/>
<rect x="8.5" y="76.7" width="544.4" height="0.5"/>
<rect x="8.5" y="71.7" width="544.4" height="0.5"/>
<rect x="8.5" y="66.7" width="544.4" height="0.5"/>
<rect x="8.5" y="61.8" width="544.4" height="0.5"/>
<rect x="8.5" y="56.8" width="544.4" height="0.5"/>
<g>
	<path d="M15.7,71.2c2.9-2.6,4.7-6.1,4.7-9.2c0-2.5-1.4-4.4-3.7-4.4c-1.6,0-3.4,1.3-3.4,2.7c0,0.2,0,0.3,0.1,0.3
		c-0.1,0,0.6-0.6,1.4-0.6c0.9,0,1.5,0.8,1.5,1.7c0,1.2-0.9,2.2-2.1,2.2c-1.2,0-2.1-1.3-2.1-2.8c0-2.3,2.3-4.1,4.8-4.1
		c4.7,0,5.9,3.2,5.9,5.8c0,1.6-0.4,2.9-2,5.3c-1.9,3.1-6.4,5.3-8.1,5.3c-0.4,0-0.6-0.2-0.6-0.5C13.8,72.5,14.9,71.9,15.7,71.2z
		 M25.7,58.5c0.6,0,1,0.4,1,1c0,0.6-0.4,1-1,1s-1-0.4-1-1C24.7,59,25.1,58.5,25.7,58.5z M25.7,63.5c0.6,0,1,0.4,1,1c0,0.6-0.4,1-1,1
		s-1-0.4-1-1C24.7,63.9,25.1,63.5,25.7,63.5z"/>
</g>
<g>
	<path d="M29.5,63.6h0.6L30,69.9c0.4-0.7,1-1,1.8-1c1.2,0,2.2,0.8,2.2,1.9c0,0.8-0.5,1.8-1.7,2.7l-2.8,2.1V63.6z M30.1,70.5
		C30,71.3,30,71.9,30,72.5c0,1,0,1.6,0.1,2c1-0.7,2.4-2.6,2.4-3.7c0-0.6-0.5-1.1-1.1-1.1C30.8,69.7,30.4,70,30.1,70.5z"/>
</g>
<g>
	<path d="M35.1,56.2h0.6l-0.1,6.2c0.4-0.7,1-1,1.8-1c1.2,0,2.2,0.8,2.2,1.9c0,0.8-0.5,1.8-1.7,2.7l-2.8,2.1V56.2z M35.7,63.1
		c-0.1,0.8-0.1,1.4-0.1,1.9c0,1,0,1.6,0.1,2c1-0.7,2.4-2.6,2.4-3.7c0-0.6-0.5-1.1-1.1-1.1C36.4,62.2,36,62.5,35.7,63.1z"/>
</g>
<g>
	<path d="M40.7,66.1h0.6l-0.1,6.2c0.4-0.7,1-1,1.8-1c1.2,0,2.2,0.8,2.2,1.9c0,0.8-0.5,1.8-1.7,2.7L40.7,78V66.1z M41.3,73
		c-0.1,0.8-0.1,1.4-0.1,1.9c0,1,0,1.6,0.1,2c1-0.7,2.4-2.6,2.4-3.7c0-0.6-0.5-1.1-1.1-1.1C42,72.2,41.6,72.4,41.3,73z"/>
</g>
<g>
	<path d="M46.3,58.7h0.6l-0.1,6.2c0.4-0.7,1-1,1.8-1c1.2,0,2.2,0.8,2.2,1.9c0,0.8-0.5,1.8-1.7,2.7l-2.8,2.1V58.7z M46.9,65.6
		c-0.1,0.8-0.1,1.4-0.1,1.9c0,1,0,1.6,0.1,2c1-0.7,2.4-2.6,2.4-3.7c0-0.6-0.5-1.1-1.1-1.1C47.6,64.7,47.2,65,46.9,65.6z"/>
</g>
<g>
	<path d="M51.9,68.6h0.6l-0.1,6.2c0.4-0.7,1-1,1.8-1c1.2,0,2.2,0.8,2.2,1.9c0,0.8-0.5,1.8-1.7,2.7l-2.8,2.1V68.6z M52.4,75.5
		c-0.1,0.8-0.1,1.4-0.1,1.9c0,1,0,1.6,0.1,2c1-0.7,2.4-2.6,2.4-3.7c0-0.6-0.5-1.1-1.1-1.1C53.2,74.6,52.7,74.9,52.4,75.5z"/>
</g>
<g>
	<path d="M57.4,61.1h0.6l-0.1,6.2c0.4-0.7,1-1,1.8-1c1.2,0,2.2,0.8,2.2,1.9c0,0.8-0.5,1.8-1.7,2.7l-2.8,2.1V61.1z M58,68
		c-0.1,0.8-0.1,1.4-0.1,1.9c0,1,0,1.6,0.1,2c1-0.7,2.4-2.6,2.4-3.7c0-0.6-0.5-1.1-1.1-1.1C58.7,67.2,58.3,67.5,58,68z"/>
</g>
<g>
	<path d="M63,71.1h0.6l-0.1,6.2c0.4-0.7,1-1,1.8-1c1.2,0,2.2,0.8,2.2,1.9c0,0.8-0.5,1.8-1.7,2.7L63,83V71.1z M63.6,78
		c-0.1,0.8-0.1,1.4-0.1,1.9c0,1,0,1.6,0.1,2c1-0.7,2.4-2.6,2.4-3.7c0-0.6-0.5-1.1-1.1-1.1C64.3,77.1,63.9,77.4,63.6,78z"/>
</g>
<polygon fill-rule="evenodd" clip-rule="evenodd" points="83,58.3 118.2,53.3 118.2,50.8 83,55.8 "/>
<polygon fill-rule="evenodd" clip-rule="evenodd" points="83,54.6 118.2,49.6 118.2,47.1 83,52.1 "/>
<polygon fill-rule="evenodd" clip-rule="evenodd" points="123.3,83.1 159.6,78.1 159.6,75.6 123.3,80.6 "/>
<polygon fill-rule="evenodd" clip-rule="evenodd" points="123.3,86.8 159.6,81.8 159.6,79.4 123.3,84.3 "/>
<polygon fill-rule="evenodd" clip-rule="evenodd" points="171.2,78.1 206.3,73.2 206.3,70.7 171.2,75.6 "/>
<polygon fill-rule="evenodd" clip-rule="evenodd" points="171.2,81.8 206.3,76.9 206.3,74.4 171.2,79.4 "/>
<polygon fill-rule="evenodd" clip-rule="evenodd" points="217.9,73.2 252.9,68.2 252.9,65.7 217.9,70.7 "/>
<polygon fill-rule="evenodd" clip-rule="evenodd" points="217.9,76.9 252.9,71.9 252.9,69.4 217.9,74.4 "/>
<polygon fill-rule="evenodd" clip-rule="evenodd" points="264.7,73.2 299.7,68.2 299.7,65.7 264.7,70.7 "/>
<polygon fill-rule="evenodd" clip-rule="evenodd" points="264.7,76.9 299.7,71.9 299.7,69.4 264.7,74.4 "/>
<polygon fill-rule="evenodd" clip-rule="evenodd" points="311.5,68.2 346.7,73.2 346.7,70.7 311.5,65.7 "/>
<polygon fill-rule="evenodd" clip-rule="evenodd" points="311.5,71.9 346.7,76.9 346.7,74.4 311.5,69.4 "/>
<polygon fill-rule="evenodd" clip-rule="evenodd" points="358.3,68.2 393.4,73.2 393.4,70.7 358.3,65.7 "/>
<polygon fill-rule="evenodd" clip-rule="evenodd" points="358.3,71.9 393.4,76.9 393.4,74.4 358.3,69.4 "/>
<polygon fill-rule="evenodd" clip-rule="evenodd" points="405.1,73.2 440.2,78.1 440.2,75.6 405.1,70.7 "/>
<polygon fill-rule="evenodd" clip-rule="evenodd" points="405.1,76.9 440.2,81.8 440.2,79.4 405.1,74.4 "/>
<polygon fill-rule="evenodd" clip-rule="evenodd" points="451.8,78.1 486.8,83.1 486.8,80.6 451.8,75.6 "/>
<polygon fill-rule="evenodd" clip-rule="evenodd" points="451.8,81.8 486.8,86.8 486.8,84.3 451.8,79.4 "/>
<polygon fill-rule="evenodd" clip-rule="evenodd" points="505,53.3 540.2,58.3 540.2,55.8 505,50.8 "/>
<polygon fill-rule="evenodd" clip-rule="evenodd" points="505,49.6 540.2,54.6 540.2,52.1 505,47.1 "/>
<rect x="74.5" y="34.3" width="10.5" height="0.8"/>
<rect x="74.5" y="39.3" width="10.5" height="0.8"/>
<rect x="82.8" y="15" width="0.5" height="26.4"/>
<g>
	<path d="M76.4,43c0-1.8,2.5-3.5,4.5-3.5c1.3,0,2.3,0.7,2.3,1.7c0,1.7-2.5,3.5-4.6,3.5C77.3,44.7,76.4,44.1,76.4,43z"/>
</g>
<g>
	<path d="M73.2,48.9v-4l-3,1.1V35.4h0.5v4l3-1.1v10.7H73.2z M70.7,44.3l2.5-0.9V40L70.7,41V44.3z"/>
</g>
<rect x="86.3" y="34.3" width="10.5" height="0.8"/>
<rect x="94.6" y="13.5" width="0.5" height="22.9"/>
<g>
	<path d="M88.1,38.1c0-1.8,2.5-3.5,4.5-3.5c1.3,0,2.3,0.7,2.3,1.7c0,1.7-2.5,3.5-4.6,3.5C89.1,39.8,88.1,39.1,88.1,38.1z"/>
</g>
<rect x="106.2" y="11.8" width="0.5" height="19.7"/>
<g>
	<path d="M99.8,33.1c0-1.8,2.5-3.5,4.5-3.5c1.3,0,2.3,0.7,2.3,1.7c0,1.7-2.5,3.5-4.6,3.5C100.7,34.8,99.8,34.2,99.8,33.1z"/>
</g>
<rect x="118" y="10.1" width="0.5" height="16.4"/>
<g>
	<path d="M111.5,28.1c0-1.8,2.5-3.5,4.5-3.5c1.3,0,2.3,0.7,2.3,1.7c0,1.7-2.5,3.5-4.6,3.5C112.5,29.9,111.5,29.2,111.5,28.1z"/>
</g>
<rect x="121.3" y="34.3" width="10.5" height="0.8"/>
<rect x="129.6" y="13.8" width="0.5" height="22.6"/>
<g>
	<path d="M123.2,38.1c0-1.8,2.5-3.5,4.5-3.5c1.3,0,2.3,0.7,2.3,1.7c0,1.7-2.5,3.5-4.6,3.5C124.1,39.8,123.2,39.1,123.2,38.1z"/>
</g>
<rect x="141.2" y="12.2" width="0.5" height="19.2"/>
<g>
	<path d="M134.8,33.1c0-1.8,2.5-3.5,4.5-3.5c1.3,0,2.3,0.7,2.3,1.7c0,1.7-2.5,3.5-4.6,3.5C135.8,34.8,134.8,34.2,134.8,33.1z"/>
</g>
<rect x="153" y="10.7" width="0.5" height="15.8"/>
<g>
	<path d="M146.6,28.1c0-1.8,2.5-3.5,4.5-3.5c1.3,0,2.3,0.7,2.3,1.7c0,1.7-2.5,3.5-4.6,3.5C147.6,29.9,146.6,29.2,146.6,28.1z"/>
</g>
<rect x="165.9" y="8.8" width="0.5" height="15.2"/>
<g>
	<path d="M159.4,25.7c0-1.8,2.5-3.5,4.5-3.5c1.3,0,2.3,0.7,2.3,1.7c0,1.7-2.5,3.5-4.6,3.5C160.4,27.4,159.4,26.7,159.4,25.7z"/>
</g>
<g>
	<path d="M157.5,31.6v-4l-3,1.1V18h0.5v4l3-1.1v10.7H157.5z M155,26.9l2.5-0.9v-3.3l-2.5,0.9V26.9z"/>
</g>
<rect x="177.5" y="10.1" width="0.5" height="21.4"/>
<g>
	<path d="M171.1,33.1c0-1.8,2.5-3.5,4.5-3.5c1.3,0,2.3,0.7,2.3,1.7c0,1.7-2.5,3.5-4.6,3.5C172,34.8,171.1,34.2,171.1,33.1z"/>
</g>
<rect x="189.1" y="8.5" width="0.5" height="18"/>
<g>
	<path d="M182.7,28.1c0-1.8,2.5-3.5,4.5-3.5c1.3,0,2.3,0.7,2.3,1.7c0,1.7-2.5,3.5-4.6,3.5C183.7,29.9,182.7,29.2,182.7,28.1z"/>
</g>
<rect x="200.9" y="6.8" width="0.5" height="17.2"/>
<g>
	<path d="M194.5,25.7c0-1.8,2.5-3.5,4.5-3.5c1.3,0,2.3,0.7,2.3,1.7c0,1.7-2.5,3.5-4.6,3.5C195.5,27.4,194.5,26.7,194.5,25.7z"/>
</g>
<rect x="212.5" y="5.1" width="0.5" height="14"/>
<g>
	<path d="M206.1,20.7c0-1.8,2.5-3.5,4.5-3.5c1.3,0,2.3,0.7,2.3,1.7c0,1.7-2.5,3.5-4.6,3.5C207.1,22.4,206.1,21.8,206.1,20.7z"/>
</g>
<rect x="224.2" y="5.1" width="0.5" height="21.4"/>
<g>
	<path d="M217.7,28.1c0-1.8,2.5-3.5,4.5-3.5c1.3,0,2.3,0.7,2.3,1.7c0,1.7-2.5,3.5-4.6,3.5C218.7,29.9,217.7,29.2,217.7,28.1z"/>
</g>
<rect x="235.9" y="3.6" width="0.5" height="20.5"/>
<g>
	<path d="M229.5,25.7c0-1.8,2.5-3.5,4.5-3.5c1.3,0,2.3,0.7,2.3,1.7c0,1.7-2.5,3.5-4.6,3.5C230.5,27.4,229.5,26.7,229.5,25.7z"/>
</g>
<rect x="247.6" y="1.9" width="0.5" height="17.2"/>
<g>
	<path d="M241.1,20.7c0-1.8,2.5-3.5,4.5-3.5c1.3,0,2.3,0.7,2.3,1.7c0,1.7-2.5,3.5-4.6,3.5C242.1,22.4,241.1,21.8,241.1,20.7z"/>
</g>
<rect x="259.2" y="0.2" width="0.5" height="14"/>
<g>
	<path d="M252.8,15.7c0-1.8,2.5-3.5,4.5-3.5c1.3,0,2.3,0.7,2.3,1.7c0,1.7-2.5,3.5-4.6,3.5C253.7,17.5,252.8,16.8,252.8,15.7z"/>
</g>
<rect x="264.5" y="25.6" width="0.5" height="14"/>
<g>
	<path d="M264.5,25.7c0-1.8,2.5-3.5,4.5-3.5c1.3,0,2.3,0.7,2.3,1.7c0,1.7-2.5,3.5-4.6,3.5C265.5,27.4,264.5,26.7,264.5,25.7z"/>
</g>
<rect x="276.1" y="20.6" width="0.5" height="17.4"/>
<g>
	<path d="M276.2,20.7c0-1.8,2.5-3.5,4.5-3.5c1.3,0,2.3,0.7,2.3,1.7c0,1.7-2.5,3.5-4.6,3.5C277.1,22.4,276.2,21.8,276.2,20.7z"/>
</g>
<rect x="287.7" y="15.7" width="0.5" height="20.6"/>
<g>
	<path d="M287.8,15.7c0-1.8,2.5-3.5,4.5-3.5c1.3,0,2.3,0.7,2.3,1.7c0,1.7-2.5,3.5-4.6,3.5C288.8,17.5,287.8,16.8,287.8,15.7z"/>
</g>
<rect x="299.5" y="10.7" width="0.5" height="23.9"/>
<g>
	<path d="M299.6,10.8c0-1.8,2.5-3.5,4.5-3.5c1.3,0,2.3,0.7,2.3,1.7c0,1.7-2.5,3.5-4.6,3.5C300.5,12.5,299.6,11.9,299.6,10.8z"/>
</g>
<rect x="311.3" y="10.7" width="0.5" height="23.9"/>
<g>
	<path d="M311.4,10.8c0-1.8,2.5-3.5,4.5-3.5c1.3,0,2.3,0.7,2.3,1.7c0,1.7-2.5,3.5-4.6,3.5C312.3,12.5,311.4,11.9,311.4,10.8z"/>
</g>
<rect x="323.1" y="15.7" width="0.5" height="20.5"/>
<g>
	<path d="M323.1,15.7c0-1.8,2.5-3.5,4.5-3.5c1.3,0,2.3,0.7,2.3,1.7c0,1.7-2.5,3.5-4.6,3.5C324.1,17.5,323.1,16.8,323.1,15.7z"/>
</g>
<rect x="334.8" y="20.6" width="0.5" height="17.2"/>
<g>
	<path d="M334.9,20.7c0-1.8,2.5-3.5,4.5-3.5c1.3,0,2.3,0.7,2.3,1.7c0,1.7-2.5,3.5-4.6,3.5C335.9,22.4,334.9,21.8,334.9,20.7z"/>
</g>
<rect x="346.5" y="25.6" width="0.5" height="14"/>
<g>
	<path d="M346.5,25.7c0-1.8,2.5-3.5,4.5-3.5c1.3,0,2.3,0.7,2.3,1.7c0,1.7-2.5,3.5-4.6,3.5C347.5,27.4,346.5,26.7,346.5,25.7z"/>
</g>
<rect x="364.6" y="0.2" width="0.5" height="14"/>
<g>
	<path d="M358.2,15.7c0-1.8,2.5-3.5,4.5-3.5c1.3,0,2.3,0.7,2.3,1.7c0,1.7-2.5,3.5-4.6,3.5C359.1,17.5,358.2,16.8,358.2,15.7z"/>
</g>
<rect x="376.4" y="1.7" width="0.5" height="17.4"/>
<g>
	<path d="M370,20.7c0-1.8,2.5-3.5,4.5-3.5c1.3,0,2.3,0.7,2.3,1.7c0,1.7-2.5,3.5-4.6,3.5C370.9,22.4,370,21.8,370,20.7z"/>
</g>
<rect x="388" y="3.4" width="0.5" height="20.6"/>
<g>
	<path d="M381.6,25.7c0-1.8,2.5-3.5,4.5-3.5c1.3,0,2.3,0.7,2.3,1.7c0,1.7-2.5,3.5-4.6,3.5C382.6,27.4,381.6,26.7,381.6,25.7z"/>
</g>
<rect x="399.6" y="5.1" width="0.5" height="21.4"/>
<g>
	<path d="M393.2,28.1c0-1.8,2.5-3.5,4.5-3.5c1.3,0,2.3,0.7,2.3,1.7c0,1.7-2.5,3.5-4.6,3.5C394.2,29.9,393.2,29.2,393.2,28.1z"/>
</g>
<rect x="411.4" y="5.1" width="0.5" height="14"/>
<g>
	<path d="M405,20.7c0-1.8,2.5-3.5,4.5-3.5c1.3,0,2.3,0.7,2.3,1.7c0,1.7-2.5,3.5-4.6,3.5C406,22.4,405,21.8,405,20.7z"/>
</g>
<rect x="423" y="6.7" width="0.5" height="17.4"/>
<g>
	<path d="M416.6,25.7c0-1.8,2.5-3.5,4.5-3.5c1.3,0,2.3,0.7,2.3,1.7c0,1.7-2.5,3.5-4.6,3.5C417.6,27.4,416.6,26.7,416.6,25.7z"/>
</g>
<rect x="434.7" y="8.4" width="0.5" height="18.1"/>
<g>
	<path d="M428.2,28.1c0-1.8,2.5-3.5,4.5-3.5c1.3,0,2.3,0.7,2.3,1.7c0,1.7-2.5,3.5-4.6,3.5C429.2,29.9,428.2,29.2,428.2,28.1z"/>
</g>
<rect x="446.5" y="10.1" width="0.5" height="21.4"/>
<g>
	<path d="M440,33.1c0-1.8,2.5-3.5,4.5-3.5c1.3,0,2.3,0.7,2.3,1.7c0,1.7-2.5,3.5-4.6,3.5C441,34.8,440,34.2,440,33.1z"/>
</g>
<rect x="458.1" y="10.1" width="0.5" height="14"/>
<g>
	<path d="M451.6,25.7c0-1.8,2.5-3.5,4.5-3.5c1.3,0,2.3,0.7,2.3,1.7c0,1.7-2.5,3.5-4.6,3.5C452.6,27.4,451.6,26.7,451.6,25.7z"/>
</g>
<rect x="469.7" y="11.6" width="0.5" height="14.9"/>
<g>
	<path d="M463.3,28.1c0-1.8,2.5-3.5,4.5-3.5c1.3,0,2.3,0.7,2.3,1.7c0,1.7-2.5,3.5-4.6,3.5C464.2,29.9,463.3,29.2,463.3,28.1z"/>
</g>
<rect x="481.5" y="13.3" width="0.5" height="18.1"/>
<g>
	<path d="M475.1,33.1c0-1.8,2.5-3.5,4.5-3.5c1.3,0,2.3,0.7,2.3,1.7c0,1.7-2.5,3.5-4.6,3.5C476,34.8,475.1,34.2,475.1,33.1z"/>
</g>
<rect x="484.8" y="34.3" width="10.5" height="0.8"/>
<rect x="493.1" y="15" width="0.5" height="21.4"/>
<g>
	<path d="M486.7,38.1c0-1.8,2.5-3.5,4.5-3.5c1.3,0,2.3,0.7,2.3,1.7c0,1.7-2.5,3.5-4.6,3.5C487.7,39.8,486.7,39.1,486.7,38.1z"/>
</g>
<rect x="504.7" y="10.1" width="0.5" height="16.4"/>
<g>
	<path d="M498.3,28.1c0-1.8,2.5-3.5,4.5-3.5c1.3,0,2.3,0.7,2.3,1.7c0,1.7-2.5,3.5-4.6,3.5C499.3,29.9,498.3,29.2,498.3,28.1z"/>
</g>
<rect x="516.5" y="11.6" width="0.5" height="19.8"/>
<g>
	<path d="M510.1,33.1c0-1.8,2.5-3.5,4.5-3.5c1.3,0,2.3,0.7,2.3,1.7c0,1.7-2.5,3.5-4.6,3.5C511.1,34.8,510.1,34.2,510.1,33.1z"/>
</g>
<rect x="519.9" y="34.3" width="10.5" height="0.8"/>
<rect x="528.1" y="13.3" width="0.5" height="23.1"/>
<g>
	<path d="M521.7,38.1c0-1.8,2.5-3.5,4.5-3.5c1.3,0,2.3,0.7,2.3,1.7c0,1.7-2.5,3.5-4.6,3.5C522.7,39.8,521.7,39.1,521.7,38.1z"/>
</g>
<rect x="531.6" y="34.3" width="10.5" height="0.8"/>
<rect x="531.6" y="39.3" width="10.5" height="0.8"/>
<rect x="539.9" y="15" width="0.5" height="26.4"/>
<g>
	<path d="M533.5,43c0-1.8,2.5-3.5,4.5-3.5c1.3,0,2.3,0.7,2.3,1.7c0,1.7-2.5,3.5-4.6,3.5C534.5,44.7,533.5,44.1,533.5,43z"/>
</g>
<rect x="82.8" y="52.2" width="0.5" height="23.9"/>
<g>
	<path d="M76.4,77.7c0-1.8,2.5-3.5,4.5-3.5c1.3,0,2.3,0.7,2.3,1.7c0,1.7-2.5,3.5-4.6,3.5C77.3,79.5,76.4,78.8,76.4,77.7z"/>
</g>
<g>
	<path d="M74.4,83.6v-4l-3,1.1V70.1h0.5v4l3-1.1v10.7H74.4z M71.9,79l2.5-0.9v-3.3l-2.5,0.9V79z"/>
</g>
<rect x="94.6" y="50.7" width="0.5" height="20.5"/>
<g>
	<path d="M88.1,72.8c0-1.8,2.5-3.5,4.5-3.5c1.3,0,2.3,0.7,2.3,1.7c0,1.7-2.5,3.5-4.6,3.5C89.1,74.5,88.1,73.9,88.1,72.8z"/>
</g>
<rect x="106.2" y="49" width="0.5" height="17.2"/>
<g>
	<path d="M99.8,67.8c0-1.8,2.5-3.5,4.5-3.5c1.3,0,2.3,0.7,2.3,1.7c0,1.7-2.5,3.5-4.6,3.5C100.7,69.5,99.8,68.9,99.8,67.8z"/>
</g>
<rect x="118" y="47.3" width="0.5" height="14"/>
<g>
	<path d="M111.5,62.9c0-1.8,2.5-3.5,4.5-3.5c1.3,0,2.3,0.7,2.3,1.7c0,1.7-2.5,3.5-4.6,3.5C112.5,64.6,111.5,63.9,111.5,62.9z"/>
</g>
<rect x="123.1" y="72.7" width="0.5" height="14"/>
<g>
	<path d="M123.2,72.8c0-1.8,2.5-3.5,4.5-3.5c1.3,0,2.3,0.7,2.3,1.7c0,1.7-2.5,3.5-4.6,3.5C124.1,74.5,123.2,73.9,123.2,72.8z"/>
</g>
<rect x="134.7" y="67.7" width="0.5" height="17.4"/>
<g>
	<path d="M134.8,67.8c0-1.8,2.5-3.5,4.5-3.5c1.3,0,2.3,0.7,2.3,1.7c0,1.7-2.5,3.5-4.6,3.5C135.8,69.5,134.8,68.9,134.8,67.8z"/>
</g>
<rect x="146.5" y="62.8" width="0.5" height="20.8"/>
<g>
	<path d="M146.6,62.9c0-1.8,2.5-3.5,4.5-3.5c1.3,0,2.3,0.7,2.3,1.7c0,1.7-2.5,3.5-4.6,3.5C147.6,64.6,146.6,63.9,146.6,62.9z"/>
</g>
<rect x="159.4" y="60.3" width="0.5" height="21.4"/>
<g>
	<path d="M159.4,60.4c0-1.8,2.5-3.5,4.5-3.5c1.3,0,2.3,0.7,2.3,1.7c0,1.7-2.5,3.5-4.6,3.5C160.4,62.1,159.4,61.5,159.4,60.4z"/>
</g>
<g>
	<path d="M157.5,66.3v-4l-3,1.1V52.7h0.5v4l3-1.1v10.7H157.5z M155,61.6l2.5-0.9v-3.3l-2.5,0.9V61.6z"/>
</g>
<rect x="171" y="67.7" width="0.5" height="14"/>
<g>
	<path d="M171.1,67.8c0-1.8,2.5-3.5,4.5-3.5c1.3,0,2.3,0.7,2.3,1.7c0,1.7-2.5,3.5-4.6,3.5C172,69.5,171.1,68.9,171.1,67.8z"/>
</g>
<rect x="182.6" y="62.8" width="0.5" height="17.4"/>
<g>
	<path d="M182.7,62.9c0-1.8,2.5-3.5,4.5-3.5c1.3,0,2.3,0.7,2.3,1.7c0,1.7-2.5,3.5-4.6,3.5C183.7,64.6,182.7,63.9,182.7,62.9z"/>
</g>
<rect x="194.4" y="60.3" width="0.5" height="18.1"/>
<g>
	<path d="M194.5,60.4c0-1.8,2.5-3.5,4.5-3.5c1.3,0,2.3,0.7,2.3,1.7c0,1.7-2.5,3.5-4.6,3.5C195.5,62.1,194.5,61.5,194.5,60.4z"/>
</g>
<rect x="206" y="55.3" width="0.5" height="21.4"/>
<g>
	<path d="M206.1,55.4c0-1.8,2.5-3.5,4.5-3.5c1.3,0,2.3,0.7,2.3,1.7c0,1.7-2.5,3.5-4.6,3.5C207.1,57.1,206.1,56.5,206.1,55.4z"/>
</g>
<rect x="217.7" y="62.8" width="0.5" height="14"/>
<g>
	<path d="M217.7,62.9c0-1.8,2.5-3.5,4.5-3.5c1.3,0,2.3,0.7,2.3,1.7c0,1.7-2.5,3.5-4.6,3.5C218.7,64.6,217.7,63.9,217.7,62.9z"/>
</g>
<rect x="229.4" y="60.3" width="0.5" height="14.9"/>
<g>
	<path d="M229.5,60.4c0-1.8,2.5-3.5,4.5-3.5c1.3,0,2.3,0.7,2.3,1.7c0,1.7-2.5,3.5-4.6,3.5C230.5,62.1,229.5,61.5,229.5,60.4z"/>
</g>
<rect x="241.1" y="55.3" width="0.5" height="18.1"/>
<g>
	<path d="M241.1,55.4c0-1.8,2.5-3.5,4.5-3.5c1.3,0,2.3,0.7,2.3,1.7c0,1.7-2.5,3.5-4.6,3.5C242.1,57.1,241.1,56.5,241.1,55.4z"/>
</g>
<rect x="250.9" y="51.7" width="10.5" height="0.8"/>
<rect x="252.7" y="50.4" width="0.5" height="21.4"/>
<g>
	<path d="M252.8,50.5c0-1.8,2.5-3.5,4.5-3.5c1.3,0,2.3,0.7,2.3,1.7c0,1.7-2.5,3.5-4.6,3.5C253.7,52.2,252.8,51.5,252.8,50.5z"/>
</g>
<rect x="264.5" y="60.3" width="0.5" height="16.4"/>
<g>
	<path d="M264.5,60.4c0-1.8,2.5-3.5,4.5-3.5c1.3,0,2.3,0.7,2.3,1.7c0,1.7-2.5,3.5-4.6,3.5C265.5,62.1,264.5,61.5,264.5,60.4z"/>
</g>
<rect x="276.1" y="55.3" width="0.5" height="19.8"/>
<g>
	<path d="M276.2,55.4c0-1.8,2.5-3.5,4.5-3.5c1.3,0,2.3,0.7,2.3,1.7c0,1.7-2.5,3.5-4.6,3.5C277.1,57.1,276.2,56.5,276.2,55.4z"/>
</g>
<rect x="285.9" y="51.7" width="10.5" height="0.8"/>
<rect x="287.7" y="50.4" width="0.5" height="23.1"/>
<g>
	<path d="M287.8,50.5c0-1.8,2.5-3.5,4.5-3.5c1.3,0,2.3,0.7,2.3,1.7c0,1.7-2.5,3.5-4.6,3.5C288.8,52.2,287.8,51.5,287.8,50.5z"/>
</g>
<rect x="297.7" y="51.7" width="10.5" height="0.8"/>
<rect x="297.7" y="46.7" width="10.5" height="0.8"/>
<rect x="299.5" y="45.4" width="0.5" height="26.4"/>
<g>
	<path d="M299.6,45.5c0-1.8,2.5-3.5,4.5-3.5c1.3,0,2.3,0.7,2.3,1.7c0,1.7-2.5,3.5-4.6,3.5C300.5,47.2,299.6,46.6,299.6,45.5z"/>
</g>
<rect x="309.5" y="51.7" width="10.5" height="0.8"/>
<rect x="309.5" y="46.7" width="10.5" height="0.8"/>
<rect x="311.3" y="45.4" width="0.5" height="26.4"/>
<g>
	<path d="M311.4,45.5c0-1.8,2.5-3.5,4.5-3.5c1.3,0,2.3,0.7,2.3,1.7c0,1.7-2.5,3.5-4.6,3.5C312.3,47.2,311.4,46.6,311.4,45.5z"/>
</g>
<rect x="321.3" y="51.7" width="10.5" height="0.8"/>
<rect x="323.1" y="50.4" width="0.5" height="22.9"/>
<g>
	<path d="M323.1,50.5c0-1.8,2.5-3.5,4.5-3.5c1.3,0,2.3,0.7,2.3,1.7c0,1.7-2.5,3.5-4.6,3.5C324.1,52.2,323.1,51.5,323.1,50.5z"/>
</g>
<rect x="334.8" y="55.3" width="0.5" height="19.7"/>
<g>
	<path d="M334.9,55.4c0-1.8,2.5-3.5,4.5-3.5c1.3,0,2.3,0.7,2.3,1.7c0,1.7-2.5,3.5-4.6,3.5C335.9,57.1,334.9,56.5,334.9,55.4z"/>
</g>
<rect x="346.5" y="60.3" width="0.5" height="16.4"/>
<g>
	<path d="M346.5,60.4c0-1.8,2.5-3.5,4.5-3.5c1.3,0,2.3,0.7,2.3,1.7c0,1.7-2.5,3.5-4.6,3.5C347.5,62.1,346.5,61.5,346.5,60.4z"/>
</g>
<rect x="356.3" y="51.7" width="10.5" height="0.8"/>
<rect x="358.1" y="50.4" width="0.5" height="21.4"/>
<g>
	<path d="M358.2,50.5c0-1.8,2.5-3.5,4.5-3.5c1.3,0,2.3,0.7,2.3,1.7c0,1.7-2.5,3.5-4.6,3.5C359.1,52.2,358.2,51.5,358.2,50.5z"/>
</g>
<rect x="369.9" y="55.3" width="0.5" height="18"/>
<g>
	<path d="M370,55.4c0-1.8,2.5-3.5,4.5-3.5c1.3,0,2.3,0.7,2.3,1.7c0,1.7-2.5,3.5-4.6,3.5C370.9,57.1,370,56.5,370,55.4z"/>
</g>
<rect x="381.5" y="60.3" width="0.5" height="14.7"/>
<g>
	<path d="M381.6,60.4c0-1.8,2.5-3.5,4.5-3.5c1.3,0,2.3,0.7,2.3,1.7c0,1.7-2.5,3.5-4.6,3.5C382.6,62.1,381.6,61.5,381.6,60.4z"/>
</g>
<rect x="393.1" y="62.8" width="0.5" height="14"/>
<g>
	<path d="M393.2,62.9c0-1.8,2.5-3.5,4.5-3.5c1.3,0,2.3,0.7,2.3,1.7c0,1.7-2.5,3.5-4.6,3.5C394.2,64.6,393.2,63.9,393.2,62.9z"/>
</g>
<rect x="404.9" y="55.3" width="0.5" height="21.4"/>
<g>
	<path d="M405,55.4c0-1.8,2.5-3.5,4.5-3.5c1.3,0,2.3,0.7,2.3,1.7c0,1.7-2.5,3.5-4.6,3.5C406,57.1,405,56.5,405,55.4z"/>
</g>
<rect x="416.5" y="60.3" width="0.5" height="18"/>
<g>
	<path d="M416.6,60.4c0-1.8,2.5-3.5,4.5-3.5c1.3,0,2.3,0.7,2.3,1.7c0,1.7-2.5,3.5-4.6,3.5C417.6,62.1,416.6,61.5,416.6,60.4z"/>
</g>
<rect x="428.2" y="62.8" width="0.5" height="17.2"/>
<g>
	<path d="M428.2,62.9c0-1.8,2.5-3.5,4.5-3.5c1.3,0,2.3,0.7,2.3,1.7c0,1.7-2.5,3.5-4.6,3.5C429.2,64.6,428.2,63.9,428.2,62.9z"/>
</g>
<rect x="439.9" y="67.7" width="0.5" height="14"/>
<g>
	<path d="M440,67.8c0-1.8,2.5-3.5,4.5-3.5c1.3,0,2.3,0.7,2.3,1.7c0,1.7-2.5,3.5-4.6,3.5C441,69.5,440,68.9,440,67.8z"/>
</g>
<rect x="451.6" y="60.3" width="0.5" height="21.4"/>
<g>
	<path d="M451.6,60.4c0-1.8,2.5-3.5,4.5-3.5c1.3,0,2.3,0.7,2.3,1.7c0,1.7-2.5,3.5-4.6,3.5C452.6,62.1,451.6,61.5,451.6,60.4z"/>
</g>
<rect x="463.2" y="62.8" width="0.5" height="20.5"/>
<g>
	<path d="M463.3,62.9c0-1.8,2.5-3.5,4.5-3.5c1.3,0,2.3,0.7,2.3,1.7c0,1.7-2.5,3.5-4.6,3.5C464.2,64.6,463.3,63.9,463.3,62.9z"/>
</g>
<rect x="475" y="67.7" width="0.5" height="17.2"/>
<g>
	<path d="M475.1,67.8c0-1.8,2.5-3.5,4.5-3.5c1.3,0,2.3,0.7,2.3,1.7c0,1.7-2.5,3.5-4.6,3.5C476,69.5,475.1,68.9,475.1,67.8z"/>
</g>
<rect x="486.6" y="72.7" width="0.5" height="14"/>
<g>
	<path d="M486.7,72.8c0-1.8,2.5-3.5,4.5-3.5c1.3,0,2.3,0.7,2.3,1.7c0,1.7-2.5,3.5-4.6,3.5C487.7,74.5,486.7,73.9,486.7,72.8z"/>
</g>
<rect x="504.7" y="47.3" width="0.5" height="14"/>
<g>
	<path d="M498.3,62.9c0-1.8,2.5-3.5,4.5-3.5c1.3,0,2.3,0.7,2.3,1.7c0,1.7-2.5,3.5-4.6,3.5C499.3,64.6,498.3,63.9,498.3,62.9z"/>
</g>
<rect x="516.5" y="48.8" width="0.5" height="17.4"/>
<g>
	<path d="M510.1,67.8c0-1.8,2.5-3.5,4.5-3.5c1.3,0,2.3,0.7,2.3,1.7c0,1.7-2.5,3.5-4.6,3.5C511.1,69.5,510.1,68.9,510.1,67.8z"/>
</g>
<rect x="528.1" y="50.5" width="0.5" height="20.6"/>
<g>
	<path d="M521.7,72.8c0-1.8,2.5-3.5,4.5-3.5c1.3,0,2.3,0.7,2.3,1.7c0,1.7-2.5,3.5-4.6,3.5C522.7,74.5,521.7,73.9,521.7,72.8z"/>
</g>
<rect x="539.9" y="52.2" width="0.5" height="23.9"/>
<g>
	<path d="M533.5,77.7c0-1.8,2.5-3.5,4.5-3.5c1.3,0,2.3,0.7,2.3,1.7c0,1.7-2.5,3.5-4.6,3.5C534.5,79.5,533.5,78.8,533.5,77.7z"/>
</g>
</svg>
