<?xml version="1.0" encoding="utf-8"?>

<!--
	ScaleBook
	Copyright (c) Leland Jansen 2015. All rights reserved.
-->

<!DOCTYPE svg PUBLIC "-//W3C//DTD SVG 1.1//EN" "http://www.w3.org/Graphics/SVG/1.1/DTD/svg11.dtd">
<svg version="1.1" id="Layer_1" xmlns="http://www.w3.org/2000/svg" xmlns:xlink="http://www.w3.org/1999/xlink" x="0px" y="0px"
	 viewBox="0 0 552.9 87.8" enable-background="new 0 0 552.9 87.8" xml:space="preserve">
<rect x="8.4" y="9.7" width="0.8" height="67"/>
<g>
	<path d="M7.4,10.4c-1.9,1.1-3.6,5.8-3.6,9.4c0,2.3,1.4,9.9,1.4,12.3c0,5-1.5,8.6-4.6,11.1c3,2.4,4.6,6.1,4.6,11.1
		c0,2.3-1.4,9.9-1.4,12.3c0,3.8,1.7,8.4,3.6,9.5v0.7c-3.5-2.3-5.8-8.2-5.8-13.1c0-2.1,1.7-9.4,1.7-11.5c0-3.8-1-6.6-2.9-8.2
		C0.1,43.6,0,43.4,0,43.2c0-0.2,0.1-0.4,0.5-0.7c1.9-1.7,2.9-4.2,2.9-7.6c0-2.1-1.7-10-1.7-12.2c0-5.2,2.1-10.4,5.8-13.1V10.4z"/>
</g>
<rect x="547.8" y="9.7" width="0.8" height="67"/>
<rect x="550.4" y="9.7" width="2.5" height="67"/>
<rect x="8.5" y="29.3" width="544.4" height="0.5"/>
<rect x="8.5" y="24.4" width="544.4" height="0.5"/>
<rect x="8.5" y="19.4" width="544.4" height="0.5"/>
<rect x="8.5" y="14.4" width="544.4" height="0.5"/>
<rect x="8.5" y="9.5" width="544.4" height="0.5"/>
<g>
	<path d="M20.3,29.4c-4.2,0-8.1-3.1-8.1-6.9c0-3.2,2.3-6.7,6.8-10.5c-0.3-1.2-0.4-2.4-0.4-3.6c0-3.5,1.2-6.8,3.2-8.5
		c1.8,2.5,2.7,4.9,2.7,7.1c0,2.9-1.3,5.6-4.3,8.1l0.9,4.2c0.5,0,0.8-0.1,0.8-0.1c2.6,0,4.8,2,4.8,4.7c0,1.9-1.4,3.7-3.6,4.8
		c0-0.1,0.9,3.8,0.9,4.3c0,2.5-2.3,4.2-4.9,4.2c-2,0-3.6-1.3-3.6-3.4c0-1.4,1-2.6,2.4-2.6c1.3,0,2.3,1.3,2.3,2.5
		c0,1.4-1.2,2.3-2.7,2.5c0.6,0.3,1.2,0.5,1.9,0.5c2.1,0,4.1-1.6,4.1-3.6c0-0.2,0-0.4-0.1-0.6l-0.8-3.7
		C21.9,29.3,21.2,29.4,20.3,29.4z M18.1,24.2c0,1,0.5,1.9,1.6,2.5c-1.8-0.3-3-1.4-3-3.1c0-2,1.7-3.7,3.8-4.1l-0.8-4
		C16,18.3,14,21,14,23.6c0,2.9,2.8,5.3,6,5.3c0.9,0,1.7-0.2,2.4-0.5L21,21.6C19.4,21.8,18.1,22.8,18.1,24.2z M22.1,2.8
		c-1.6,0-2.9,3.7-2.9,7c0,0.7,0,1.3,0.2,1.9c2.7-2.4,4-4.5,4-6.5c0-0.9-0.3-1.7-1-2.4C22.4,2.9,22.3,2.8,22.1,2.8z M24.9,24.7
		c0-1.6-1.2-3.3-2.9-3.3c-0.1,0-0.2,0-0.5,0l1.4,6.6C24.2,27.2,24.9,26,24.9,24.7z"/>
</g>
<g>
	<path d="M33.5,2.9v2.8l1-0.3v1.8l-1,0.3V11l1-0.3v1.8l-1,0.3v3.1H33v-3l-1.9,0.6v3h-0.5v-2.8l-1,0.3v-1.8l1-0.3V8.4l-1,0.3V7l1-0.3
		V3.5h0.5v3L33,5.9v-3H33.5z M33,7.7l-1.9,0.6v3.4l1.9-0.6V7.7z"/>
</g>
<g>
	<path d="M39.7,10.3v2.8l1-0.3v1.8l-1,0.3v3.4l1-0.3v1.8l-1,0.3v3.1h-0.5v-3L37.3,21v3h-0.5v-2.8l-1,0.3v-1.8l1-0.3v-3.4l-1,0.3
		v-1.8l1-0.3V11h0.5v3l1.9-0.6v-3H39.7z M39.2,15.1l-1.9,0.6v3.4l1.9-0.6V15.1z"/>
</g>
<polygon fill-rule="evenodd" clip-rule="evenodd" points="57.8,20.9 94.6,15.9 94.6,13.4 57.8,18.4 "/>
<polygon fill-rule="evenodd" clip-rule="evenodd" points="57.8,17.2 94.6,12.2 94.6,9.7 57.8,14.7 "/>
<polygon fill-rule="evenodd" clip-rule="evenodd" points="107,15.9 145.8,11 145.8,8.5 107,13.4 "/>
<polygon fill-rule="evenodd" clip-rule="evenodd" points="107,12.2 145.8,7.2 145.8,4.8 107,9.7 "/>
<polygon fill-rule="evenodd" clip-rule="evenodd" points="158.2,14.7 195.1,9.7 195.1,7.2 158.2,12.2 "/>
<polygon fill-rule="evenodd" clip-rule="evenodd" points="158.2,11 195.1,6 195.1,3.5 158.2,8.5 "/>
<polygon fill-rule="evenodd" clip-rule="evenodd" points="200.8,35.8 237.7,30.8 237.7,28.3 200.8,33.3 "/>
<polygon fill-rule="evenodd" clip-rule="evenodd" points="200.8,39.5 237.7,34.5 237.7,32 200.8,37 "/>
<polygon fill-rule="evenodd" clip-rule="evenodd" points="250.1,32 287,27.1 287,24.6 250.1,29.6 "/>
<polygon fill-rule="evenodd" clip-rule="evenodd" points="250.1,35.8 287,30.8 287,28.3 250.1,33.3 "/>
<polygon fill-rule="evenodd" clip-rule="evenodd" points="299.3,27.1 336.2,32 336.2,29.6 299.3,24.6 "/>
<polygon fill-rule="evenodd" clip-rule="evenodd" points="299.3,30.8 336.2,35.8 336.2,33.3 299.3,28.3 "/>
<polygon fill-rule="evenodd" clip-rule="evenodd" points="348.6,30.8 385.5,35.8 385.5,33.3 348.6,28.3 "/>
<polygon fill-rule="evenodd" clip-rule="evenodd" points="348.6,34.5 385.5,39.5 385.5,37 348.6,32 "/>
<polygon fill-rule="evenodd" clip-rule="evenodd" points="404.2,9.7 441.3,14.7 441.3,12.2 404.2,7.2 "/>
<polygon fill-rule="evenodd" clip-rule="evenodd" points="404.2,6 441.3,11 441.3,8.5 404.2,3.5 "/>
<polygon fill-rule="evenodd" clip-rule="evenodd" points="453.5,11 490.4,15.9 490.4,13.4 453.5,8.5 "/>
<polygon fill-rule="evenodd" clip-rule="evenodd" points="453.5,7.2 490.4,12.2 490.4,9.7 453.5,4.8 "/>
<polygon fill-rule="evenodd" clip-rule="evenodd" points="502.6,15.9 539.7,20.9 539.7,18.4 502.6,13.4 "/>
<polygon fill-rule="evenodd" clip-rule="evenodd" points="502.6,12.2 539.7,17.2 539.7,14.7 502.6,9.7 "/>
<rect x="8.5" y="76.4" width="544.4" height="0.5"/>
<rect x="8.5" y="71.5" width="544.4" height="0.5"/>
<rect x="8.5" y="66.5" width="544.4" height="0.5"/>
<rect x="8.5" y="61.6" width="544.4" height="0.5"/>
<rect x="8.5" y="56.6" width="544.4" height="0.5"/>
<g>
	<path d="M15.7,71c2.9-2.6,4.7-6.1,4.7-9.2c0-2.5-1.4-4.4-3.7-4.4c-1.6,0-3.4,1.3-3.4,2.7c0,0.2,0,0.3,0.1,0.3
		c-0.1,0,0.6-0.6,1.4-0.6c0.9,0,1.5,0.8,1.5,1.7c0,1.2-0.9,2.2-2.1,2.2c-1.2,0-2.1-1.3-2.1-2.8c0-2.3,2.3-4.1,4.8-4.1
		c4.7,0,5.9,3.2,5.9,5.8c0,1.6-0.4,2.9-2,5.3c-1.9,3.1-6.4,5.3-8.1,5.3c-0.4,0-0.6-0.2-0.6-0.5C13.8,72.3,14.9,71.7,15.7,71z
		 M25.7,58.3c0.6,0,1,0.4,1,1c0,0.6-0.4,1-1,1s-1-0.4-1-1C24.7,58.8,25.1,58.3,25.7,58.3z M25.7,63.3c0.6,0,1,0.4,1,1
		c0,0.6-0.4,1-1,1s-1-0.4-1-1C24.7,63.7,25.1,63.3,25.7,63.3z"/>
</g>
<g>
	<path d="M33.5,55v2.8l1-0.3v1.8l-1,0.3V63l1-0.3v1.8l-1,0.3V68H33v-3l-1.9,0.6v3h-0.5v-2.8l-1,0.3v-1.8l1-0.3v-3.4l-1,0.3v-1.8
		l1-0.3v-3.1h0.5v3L33,58v-3H33.5z M33,59.8l-1.9,0.6v3.4l1.9-0.6V59.8z"/>
</g>
<g>
	<path d="M39.7,62.4v2.8l1-0.3v1.8l-1,0.3v3.4l1-0.3V72l-1,0.3v3.1h-0.5v-3l-1.9,0.6v3h-0.5v-2.8l-1,0.3v-1.8l1-0.3V68l-1,0.3v-1.8
		l1-0.3v-3.1h0.5v3l1.9-0.6v-3H39.7z M39.2,67.2l-1.9,0.6v3.4l1.9-0.6V67.2z"/>
</g>
<polygon fill-rule="evenodd" clip-rule="evenodd" points="51.2,84.1 88.1,79.2 88.1,76.7 51.2,81.6 "/>
<polygon fill-rule="evenodd" clip-rule="evenodd" points="51.2,87.8 88.1,82.9 88.1,80.4 51.2,85.4 "/>
<polygon fill-rule="evenodd" clip-rule="evenodd" points="100.5,79.2 139.3,74.2 139.3,71.7 100.5,76.7 "/>
<polygon fill-rule="evenodd" clip-rule="evenodd" points="100.5,82.9 139.3,77.9 139.3,75.4 100.5,80.4 "/>
<polygon fill-rule="evenodd" clip-rule="evenodd" points="151.7,77.9 188.6,73 188.6,70.5 151.7,75.4 "/>
<polygon fill-rule="evenodd" clip-rule="evenodd" points="151.7,81.6 188.6,76.7 188.6,74.2 151.7,79.2 "/>
<polygon fill-rule="evenodd" clip-rule="evenodd" points="200.8,73 237.7,68 237.7,65.5 200.8,70.5 "/>
<polygon fill-rule="evenodd" clip-rule="evenodd" points="200.8,76.7 237.7,71.7 237.7,69.2 200.8,74.2 "/>
<polygon fill-rule="evenodd" clip-rule="evenodd" points="250.1,68 287,63 287,60.6 250.1,65.5 "/>
<polygon fill-rule="evenodd" clip-rule="evenodd" points="250.1,71.7 287,66.8 287,64.3 250.1,69.2 "/>
<polygon fill-rule="evenodd" clip-rule="evenodd" points="299.3,63 336.2,68 336.2,65.5 299.3,60.6 "/>
<polygon fill-rule="evenodd" clip-rule="evenodd" points="299.3,66.8 336.2,71.7 336.2,69.2 299.3,64.3 "/>
<polygon fill-rule="evenodd" clip-rule="evenodd" points="348.6,68 385.5,73 385.5,70.5 348.6,65.5 "/>
<polygon fill-rule="evenodd" clip-rule="evenodd" points="348.6,71.7 385.5,76.7 385.5,74.2 348.6,69.2 "/>
<polygon fill-rule="evenodd" clip-rule="evenodd" points="397.7,73 434.8,77.9 434.8,75.4 397.7,70.5 "/>
<polygon fill-rule="evenodd" clip-rule="evenodd" points="397.7,76.7 434.8,81.6 434.8,79.2 397.7,74.2 "/>
<polygon fill-rule="evenodd" clip-rule="evenodd" points="447,74.2 483.9,79.2 483.9,76.7 447,71.7 "/>
<polygon fill-rule="evenodd" clip-rule="evenodd" points="447,77.9 483.9,82.9 483.9,80.4 447,75.4 "/>
<polygon fill-rule="evenodd" clip-rule="evenodd" points="496.1,79.2 533.2,84.1 533.2,81.6 496.1,76.7 "/>
<polygon fill-rule="evenodd" clip-rule="evenodd" points="496.1,82.9 533.2,87.8 533.2,85.4 496.1,80.4 "/>
<rect x="49.2" y="34.1" width="10.5" height="0.8"/>
<rect x="49.2" y="39.1" width="10.5" height="0.8"/>
<rect x="57.5" y="14.8" width="0.5" height="23.9"/>
<g>
	<path d="M51.1,40.3c0-1.8,2.5-3.5,4.5-3.5c1.3,0,2.3,0.7,2.3,1.7c0,1.7-2.5,3.5-4.6,3.5C52.1,42.1,51.1,41.4,51.1,40.3z"/>
</g>
<g>
	<path d="M47.4,32.7v2.8l1-0.3V37l-1,0.3v3.4l1-0.3v1.8l-1,0.3v3.1h-0.5v-3L45,43.3v3h-0.5v-2.8l-1,0.3V42l1-0.3v-3.4l-1,0.3v-1.8
		l1-0.3v-3.1H45v3l1.9-0.6v-3H47.4z M46.9,37.4L45,38.1v3.4l1.9-0.6V37.4z"/>
</g>
<rect x="61.5" y="34.1" width="10.5" height="0.8"/>
<rect x="69.8" y="13.3" width="0.5" height="20.5"/>
<g>
	<path d="M63.3,35.4c0-1.8,2.5-3.5,4.5-3.5c1.3,0,2.3,0.7,2.3,1.7c0,1.7-2.5,3.5-4.6,3.5C64.3,37.1,63.3,36.5,63.3,35.4z"/>
</g>
<rect x="82.2" y="11.6" width="0.5" height="17.2"/>
<g>
	<path d="M75.7,30.4c0-1.8,2.5-3.5,4.5-3.5c1.3,0,2.3,0.7,2.3,1.7c0,1.7-2.5,3.5-4.6,3.5C76.7,32.1,75.7,31.5,75.7,30.4z"/>
</g>
<rect x="94.4" y="9.9" width="0.5" height="14"/>
<g>
	<path d="M88,25.5c0-1.8,2.5-3.5,4.5-3.5c1.3,0,2.3,0.7,2.3,1.7c0,1.7-2.5,3.5-4.6,3.5C89,27.2,88,26.5,88,25.5z"/>
</g>
<rect x="98.5" y="34.1" width="10.5" height="0.8"/>
<rect x="106.8" y="9.9" width="0.5" height="23.9"/>
<g>
	<path d="M100.4,35.4c0-1.8,2.5-3.5,4.5-3.5c1.3,0,2.3,0.7,2.3,1.7c0,1.7-2.5,3.5-4.6,3.5C101.4,37.1,100.4,36.5,100.4,35.4z"/>
</g>
<rect x="119.1" y="8.3" width="0.5" height="20.5"/>
<g>
	<path d="M112.6,30.4c0-1.8,2.5-3.5,4.5-3.5c1.3,0,2.3,0.7,2.3,1.7c0,1.7-2.5,3.5-4.6,3.5C113.6,32.1,112.6,31.5,112.6,30.4z"/>
</g>
<rect x="131.3" y="6.8" width="0.5" height="17.1"/>
<g>
	<path d="M124.9,25.5c0-1.8,2.5-3.5,4.5-3.5c1.3,0,2.3,0.7,2.3,1.7c0,1.7-2.5,3.5-4.6,3.5C125.8,27.2,124.9,26.5,124.9,25.5z"/>
</g>
<rect x="145.6" y="4.9" width="0.5" height="16.4"/>
<g>
	<path d="M139.1,23c0-1.8,2.5-3.5,4.5-3.5c1.3,0,2.3,0.7,2.3,1.7c0,1.7-2.5,3.5-4.6,3.5C140.1,24.7,139.1,24.1,139.1,23z"/>
</g>
<g>
	<path d="M136.7,15.3v2.8l1-0.3v1.8l-1,0.3v3.4l1-0.3v1.8l-1,0.3v3.1h-0.5v-3l-1.9,0.6v3h-0.5v-2.8l-1,0.3v-1.8l1-0.3v-3.4l-1,0.3
		v-1.8l1-0.3v-3.1h0.5v3l1.9-0.6v-3H136.7z M136.2,20.1l-1.9,0.6v3.4l1.9-0.6V20.1z"/>
</g>
<rect x="158" y="8.6" width="0.5" height="20.2"/>
<g>
	<path d="M151.5,30.4c0-1.8,2.5-3.5,4.5-3.5c1.3,0,2.3,0.7,2.3,1.7c0,1.7-2.5,3.5-4.6,3.5C152.5,32.1,151.5,31.5,151.5,30.4z"/>
</g>
<rect x="170.2" y="7.1" width="0.5" height="16.7"/>
<g>
	<path d="M163.8,25.5c0-1.8,2.5-3.5,4.5-3.5c1.3,0,2.3,0.7,2.3,1.7c0,1.7-2.5,3.5-4.6,3.5C164.8,27.2,163.8,26.5,163.8,25.5z"/>
</g>
<rect x="182.5" y="5.4" width="0.5" height="16"/>
<g>
	<path d="M176,23c0-1.8,2.5-3.5,4.5-3.5c1.3,0,2.3,0.7,2.3,1.7c0,1.7-2.5,3.5-4.6,3.5C177,24.7,176,24.1,176,23z"/>
</g>
<rect x="194.9" y="3.7" width="0.5" height="12.7"/>
<g>
	<path d="M188.4,18c0-1.8,2.5-3.5,4.5-3.5c1.3,0,2.3,0.7,2.3,1.7c0,1.7-2.5,3.5-4.6,3.5C189.4,19.7,188.4,19.1,188.4,18z"/>
</g>
<rect x="200.6" y="25.4" width="0.5" height="14"/>
<g>
	<path d="M200.7,25.5c0-1.8,2.5-3.5,4.5-3.5c1.3,0,2.3,0.7,2.3,1.7c0,1.7-2.5,3.5-4.6,3.5C201.7,27.2,200.7,26.5,200.7,25.5z"/>
</g>
<rect x="213" y="22.9" width="0.5" height="14.9"/>
<g>
	<path d="M213.1,23c0-1.8,2.5-3.5,4.5-3.5c1.3,0,2.3,0.7,2.3,1.7c0,1.7-2.5,3.5-4.6,3.5C214.1,24.7,213.1,24.1,213.1,23z"/>
</g>
<rect x="225.2" y="17.9" width="0.5" height="18.1"/>
<g>
	<path d="M225.3,18c0-1.8,2.5-3.5,4.5-3.5c1.3,0,2.3,0.7,2.3,1.7c0,1.7-2.5,3.5-4.6,3.5C226.3,19.7,225.3,19.1,225.3,18z"/>
</g>
<rect x="237.5" y="13" width="0.5" height="21.4"/>
<g>
	<path d="M237.6,13c0-1.8,2.5-3.5,4.5-3.5c1.3,0,2.3,0.7,2.3,1.7c0,1.7-2.5,3.5-4.6,3.5C238.5,14.8,237.6,14.1,237.6,13z"/>
</g>
<rect x="249.9" y="22.9" width="0.5" height="12.7"/>
<g>
	<path d="M250,23c0-1.8,2.5-3.5,4.5-3.5c1.3,0,2.3,0.7,2.3,1.7c0,1.7-2.5,3.5-4.6,3.5C250.9,24.7,250,24.1,250,23z"/>
</g>
<rect x="262.1" y="17.9" width="0.5" height="16.1"/>
<g>
	<path d="M262.2,18c0-1.8,2.5-3.5,4.5-3.5c1.3,0,2.3,0.7,2.3,1.7c0,1.7-2.5,3.5-4.6,3.5C263.2,19.7,262.2,19.1,262.2,18z"/>
</g>
<rect x="274.5" y="13" width="0.5" height="19.4"/>
<g>
	<path d="M274.6,13c0-1.8,2.5-3.5,4.5-3.5c1.3,0,2.3,0.7,2.3,1.7c0,1.7-2.5,3.5-4.6,3.5C275.6,14.8,274.6,14.1,274.6,13z"/>
</g>
<rect x="286.8" y="8" width="0.5" height="22.6"/>
<g>
	<path d="M286.9,8.1c0-1.8,2.5-3.5,4.5-3.5c1.3,0,2.3,0.7,2.3,1.7c0,1.7-2.5,3.5-4.6,3.5C287.8,9.8,286.9,9.2,286.9,8.1z"/>
</g>
<rect x="299" y="8" width="0.5" height="22.6"/>
<g>
	<path d="M299.1,8.1c0-1.8,2.5-3.5,4.5-3.5c1.3,0,2.3,0.7,2.3,1.7c0,1.7-2.5,3.5-4.6,3.5C300.1,9.8,299.1,9.2,299.1,8.1z"/>
</g>
<rect x="311.4" y="13" width="0.5" height="19.2"/>
<g>
	<path d="M311.5,13c0-1.8,2.5-3.5,4.5-3.5c1.3,0,2.3,0.7,2.3,1.7c0,1.7-2.5,3.5-4.6,3.5C312.5,14.8,311.5,14.1,311.5,13z"/>
</g>
<rect x="323.7" y="17.9" width="0.5" height="16"/>
<g>
	<path d="M323.8,18c0-1.8,2.5-3.5,4.5-3.5c1.3,0,2.3,0.7,2.3,1.7c0,1.7-2.5,3.5-4.6,3.5C324.7,19.7,323.8,19.1,323.8,18z"/>
</g>
<rect x="335.9" y="22.9" width="0.5" height="12.7"/>
<g>
	<path d="M336,23c0-1.8,2.5-3.5,4.5-3.5c1.3,0,2.3,0.7,2.3,1.7c0,1.7-2.5,3.5-4.6,3.5C337,24.7,336,24.1,336,23z"/>
</g>
<rect x="348.3" y="13" width="0.5" height="21.4"/>
<g>
	<path d="M348.4,13c0-1.8,2.5-3.5,4.5-3.5c1.3,0,2.3,0.7,2.3,1.7c0,1.7-2.5,3.5-4.6,3.5C349.4,14.8,348.4,14.1,348.4,13z"/>
</g>
<rect x="360.6" y="17.9" width="0.5" height="18"/>
<g>
	<path d="M360.7,18c0-1.8,2.5-3.5,4.5-3.5c1.3,0,2.3,0.7,2.3,1.7c0,1.7-2.5,3.5-4.6,3.5C361.6,19.7,360.7,19.1,360.7,18z"/>
</g>
<rect x="373" y="22.9" width="0.5" height="14.7"/>
<g>
	<path d="M373.1,23c0-1.8,2.5-3.5,4.5-3.5c1.3,0,2.3,0.7,2.3,1.7c0,1.7-2.5,3.5-4.6,3.5C374,24.7,373.1,24.1,373.1,23z"/>
</g>
<rect x="385.2" y="25.4" width="0.5" height="14"/>
<g>
	<path d="M385.3,25.5c0-1.8,2.5-3.5,4.5-3.5c1.3,0,2.3,0.7,2.3,1.7c0,1.7-2.5,3.5-4.6,3.5C386.3,27.2,385.3,26.5,385.3,25.5z"/>
</g>
<rect x="404" y="3.7" width="0.5" height="12.7"/>
<g>
	<path d="M397.5,18c0-1.8,2.5-3.5,4.5-3.5c1.3,0,2.3,0.7,2.3,1.7c0,1.7-2.5,3.5-4.6,3.5C398.5,19.7,397.5,19.1,397.5,18z"/>
</g>
<rect x="416.4" y="5.2" width="0.5" height="16.1"/>
<g>
	<path d="M409.9,23c0-1.8,2.5-3.5,4.5-3.5c1.3,0,2.3,0.7,2.3,1.7c0,1.7-2.5,3.5-4.6,3.5C410.9,24.7,409.9,24.1,409.9,23z"/>
</g>
<rect x="428.6" y="6.9" width="0.5" height="16.9"/>
<g>
	<path d="M422.2,25.5c0-1.8,2.5-3.5,4.5-3.5c1.3,0,2.3,0.7,2.3,1.7c0,1.7-2.5,3.5-4.6,3.5C423.2,27.2,422.2,26.5,422.2,25.5z"/>
</g>
<rect x="441" y="8.6" width="0.5" height="20.2"/>
<g>
	<path d="M434.6,30.4c0-1.8,2.5-3.5,4.5-3.5c1.3,0,2.3,0.7,2.3,1.7c0,1.7-2.5,3.5-4.6,3.5C435.6,32.1,434.6,31.5,434.6,30.4z"/>
</g>
<rect x="453.3" y="4.9" width="0.5" height="16.4"/>
<g>
	<path d="M446.8,23c0-1.8,2.5-3.5,4.5-3.5c1.3,0,2.3,0.7,2.3,1.7c0,1.7-2.5,3.5-4.6,3.5C447.8,24.7,446.8,24.1,446.8,23z"/>
</g>
<rect x="465.5" y="6.5" width="0.5" height="17.4"/>
<g>
	<path d="M459.1,25.5c0-1.8,2.5-3.5,4.5-3.5c1.3,0,2.3,0.7,2.3,1.7c0,1.7-2.5,3.5-4.6,3.5C460.1,27.2,459.1,26.5,459.1,25.5z"/>
</g>
<rect x="477.9" y="8.2" width="0.5" height="20.6"/>
<g>
	<path d="M471.5,30.4c0-1.8,2.5-3.5,4.5-3.5c1.3,0,2.3,0.7,2.3,1.7c0,1.7-2.5,3.5-4.6,3.5C472.5,32.1,471.5,31.5,471.5,30.4z"/>
</g>
<rect x="481.9" y="34.1" width="10.5" height="0.8"/>
<rect x="490.2" y="9.9" width="0.5" height="23.9"/>
<g>
	<path d="M483.7,35.4c0-1.8,2.5-3.5,4.5-3.5c1.3,0,2.3,0.7,2.3,1.7c0,1.7-2.5,3.5-4.6,3.5C484.7,37.1,483.7,36.5,483.7,35.4z"/>
</g>
<rect x="502.4" y="9.9" width="0.5" height="14"/>
<g>
	<path d="M496,25.5c0-1.8,2.5-3.5,4.5-3.5c1.3,0,2.3,0.7,2.3,1.7c0,1.7-2.5,3.5-4.6,3.5C497,27.2,496,26.5,496,25.5z"/>
</g>
<rect x="514.8" y="11.4" width="0.5" height="17.4"/>
<g>
	<path d="M508.4,30.4c0-1.8,2.5-3.5,4.5-3.5c1.3,0,2.3,0.7,2.3,1.7c0,1.7-2.5,3.5-4.6,3.5C509.4,32.1,508.4,31.5,508.4,30.4z"/>
</g>
<rect x="518.8" y="34.1" width="10.5" height="0.8"/>
<rect x="527.1" y="13.1" width="0.5" height="20.6"/>
<g>
	<path d="M520.6,35.4c0-1.8,2.5-3.5,4.5-3.5c1.3,0,2.3,0.7,2.3,1.7c0,1.7-2.5,3.5-4.6,3.5C521.6,37.1,520.6,36.5,520.6,35.4z"/>
</g>
<rect x="531.2" y="34.1" width="10.5" height="0.8"/>
<rect x="531.2" y="39.1" width="10.5" height="0.8"/>
<rect x="539.5" y="14.8" width="0.5" height="23.9"/>
<g>
	<path d="M533,40.3c0-1.8,2.5-3.5,4.5-3.5c1.3,0,2.3,0.7,2.3,1.7c0,1.7-2.5,3.5-4.6,3.5C534,42.1,533,41.4,533,40.3z"/>
</g>
<rect x="51" y="75" width="0.5" height="12.7"/>
<g>
	<path d="M51.1,75.1c0-1.8,2.5-3.5,4.5-3.5c1.3,0,2.3,0.7,2.3,1.7c0,1.7-2.5,3.5-4.6,3.5C52.1,76.8,51.1,76.1,51.1,75.1z"/>
</g>
<g>
	<path d="M48.7,67.4v2.8l1-0.3v1.8l-1,0.3v3.4l1-0.3v1.8l-1,0.3v3.1h-0.5v-3L46.3,78v3h-0.5v-2.8l-1,0.3v-1.8l1-0.3v-3.4l-1,0.3
		v-1.8l1-0.3V68h0.5v3l1.9-0.6v-3H48.7z M48.2,72.2l-1.9,0.6v3.4l1.9-0.6V72.2z"/>
</g>
<rect x="63.3" y="70" width="0.5" height="16.1"/>
<g>
	<path d="M63.3,70.1c0-1.8,2.5-3.5,4.5-3.5c1.3,0,2.3,0.7,2.3,1.7c0,1.7-2.5,3.5-4.6,3.5C64.3,71.8,63.3,71.2,63.3,70.1z"/>
</g>
<rect x="75.7" y="65.1" width="0.5" height="19.4"/>
<g>
	<path d="M75.7,65.1c0-1.8,2.5-3.5,4.5-3.5c1.3,0,2.3,0.7,2.3,1.7c0,1.7-2.5,3.5-4.6,3.5C76.7,66.9,75.7,66.2,75.7,65.1z"/>
</g>
<rect x="87.9" y="60.1" width="0.5" height="22.6"/>
<g>
	<path d="M88,60.2c0-1.8,2.5-3.5,4.5-3.5c1.3,0,2.3,0.7,2.3,1.7c0,1.7-2.5,3.5-4.6,3.5C89,61.9,88,61.3,88,60.2z"/>
</g>
<rect x="100.3" y="70" width="0.5" height="12.7"/>
<g>
	<path d="M100.4,70.1c0-1.8,2.5-3.5,4.5-3.5c1.3,0,2.3,0.7,2.3,1.7c0,1.7-2.5,3.5-4.6,3.5C101.4,71.8,100.4,71.2,100.4,70.1z"/>
</g>
<rect x="112.6" y="65.1" width="0.5" height="16.1"/>
<g>
	<path d="M112.6,65.1c0-1.8,2.5-3.5,4.5-3.5c1.3,0,2.3,0.7,2.3,1.7c0,1.7-2.5,3.5-4.6,3.5C113.6,66.9,112.6,66.2,112.6,65.1z"/>
</g>
<rect x="124.8" y="60.1" width="0.5" height="19.5"/>
<g>
	<path d="M124.9,60.2c0-1.8,2.5-3.5,4.5-3.5c1.3,0,2.3,0.7,2.3,1.7c0,1.7-2.5,3.5-4.6,3.5C125.8,61.9,124.9,61.3,124.9,60.2z"/>
</g>
<rect x="139.1" y="57.6" width="0.5" height="20.2"/>
<g>
	<path d="M139.1,57.7c0-1.8,2.5-3.5,4.5-3.5c1.3,0,2.3,0.7,2.3,1.7c0,1.7-2.5,3.5-4.6,3.5C140.1,59.4,139.1,58.8,139.1,57.7z"/>
</g>
<g>
	<path d="M136.7,50v2.8l1-0.3v1.8l-1,0.3v3.4l1-0.3v1.8l-1,0.3V63h-0.5v-3l-1.9,0.6v3h-0.5v-2.8l-1,0.3v-1.8l1-0.3v-3.4l-1,0.3v-1.8
		l1-0.3v-3.1h0.5v3l1.9-0.6v-3H136.7z M136.2,54.8l-1.9,0.6v3.4l1.9-0.6V54.8z"/>
</g>
<rect x="151.5" y="65.1" width="0.5" height="16.4"/>
<g>
	<path d="M151.5,65.1c0-1.8,2.5-3.5,4.5-3.5c1.3,0,2.3,0.7,2.3,1.7c0,1.7-2.5,3.5-4.6,3.5C152.5,66.9,151.5,66.2,151.5,65.1z"/>
</g>
<rect x="163.7" y="60.1" width="0.5" height="19.8"/>
<g>
	<path d="M163.8,60.2c0-1.8,2.5-3.5,4.5-3.5c1.3,0,2.3,0.7,2.3,1.7c0,1.7-2.5,3.5-4.6,3.5C164.8,61.9,163.8,61.3,163.8,60.2z"/>
</g>
<rect x="176" y="57.6" width="0.5" height="20.6"/>
<g>
	<path d="M176,57.7c0-1.8,2.5-3.5,4.5-3.5c1.3,0,2.3,0.7,2.3,1.7c0,1.7-2.5,3.5-4.6,3.5C177,59.4,176,58.8,176,57.7z"/>
</g>
<rect x="186.6" y="51.5" width="10.5" height="0.8"/>
<rect x="188.4" y="52.7" width="0.5" height="23.9"/>
<g>
	<path d="M188.4,52.7c0-1.8,2.5-3.5,4.5-3.5c1.3,0,2.3,0.7,2.3,1.7c0,1.7-2.5,3.5-4.6,3.5C189.4,54.5,188.4,53.8,188.4,52.7z"/>
</g>
<rect x="200.6" y="60.1" width="0.5" height="16.4"/>
<g>
	<path d="M200.7,60.2c0-1.8,2.5-3.5,4.5-3.5c1.3,0,2.3,0.7,2.3,1.7c0,1.7-2.5,3.5-4.6,3.5C201.7,61.9,200.7,61.3,200.7,60.2z"/>
</g>
<rect x="213" y="57.6" width="0.5" height="17.4"/>
<g>
	<path d="M213.1,57.7c0-1.8,2.5-3.5,4.5-3.5c1.3,0,2.3,0.7,2.3,1.7c0,1.7-2.5,3.5-4.6,3.5C214.1,59.4,213.1,58.8,213.1,57.7z"/>
</g>
<rect x="223.5" y="51.5" width="10.5" height="0.8"/>
<rect x="225.2" y="52.7" width="0.5" height="20.6"/>
<g>
	<path d="M225.3,52.7c0-1.8,2.5-3.5,4.5-3.5c1.3,0,2.3,0.7,2.3,1.7c0,1.7-2.5,3.5-4.6,3.5C226.3,54.5,225.3,53.8,225.3,52.7z"/>
</g>
<rect x="235.7" y="51.5" width="10.5" height="0.8"/>
<rect x="235.7" y="46.5" width="10.5" height="0.8"/>
<rect x="237.5" y="47.7" width="0.5" height="23.9"/>
<g>
	<path d="M237.6,47.8c0-1.8,2.5-3.5,4.5-3.5c1.3,0,2.3,0.7,2.3,1.7c0,1.7-2.5,3.5-4.6,3.5C238.5,49.5,237.6,48.9,237.6,47.8z"/>
</g>
<rect x="249.9" y="57.6" width="0.5" height="14"/>
<g>
	<path d="M250,57.7c0-1.8,2.5-3.5,4.5-3.5c1.3,0,2.3,0.7,2.3,1.7c0,1.7-2.5,3.5-4.6,3.5C250.9,59.4,250,58.8,250,57.7z"/>
</g>
<rect x="260.4" y="51.5" width="10.5" height="0.8"/>
<rect x="262.1" y="52.7" width="0.5" height="17.4"/>
<g>
	<path d="M262.2,52.7c0-1.8,2.5-3.5,4.5-3.5c1.3,0,2.3,0.7,2.3,1.7c0,1.7-2.5,3.5-4.6,3.5C263.2,54.5,262.2,53.8,262.2,52.7z"/>
</g>
<rect x="272.8" y="51.5" width="10.5" height="0.8"/>
<rect x="272.8" y="46.5" width="10.5" height="0.8"/>
<rect x="274.5" y="47.7" width="0.5" height="20.6"/>
<g>
	<path d="M274.6,47.8c0-1.8,2.5-3.5,4.5-3.5c1.3,0,2.3,0.7,2.3,1.7c0,1.7-2.5,3.5-4.6,3.5C275.6,49.5,274.6,48.9,274.6,47.8z"/>
</g>
<rect x="285" y="51.5" width="10.5" height="0.8"/>
<rect x="285" y="46.5" width="10.5" height="0.8"/>
<rect x="285" y="41.6" width="10.5" height="0.8"/>
<rect x="286.8" y="42.7" width="0.5" height="23.9"/>
<g>
	<path d="M286.9,42.8c0-1.8,2.5-3.5,4.5-3.5c1.3,0,2.3,0.7,2.3,1.7c0,1.7-2.5,3.5-4.6,3.5C287.8,44.5,286.9,43.9,286.9,42.8z"/>
</g>
<rect x="297.3" y="51.5" width="10.5" height="0.8"/>
<rect x="297.3" y="46.5" width="10.5" height="0.8"/>
<rect x="297.3" y="41.6" width="10.5" height="0.8"/>
<rect x="299" y="42.7" width="0.5" height="23.9"/>
<g>
	<path d="M299.1,42.8c0-1.8,2.5-3.5,4.5-3.5c1.3,0,2.3,0.7,2.3,1.7c0,1.7-2.5,3.5-4.6,3.5C300.1,44.5,299.1,43.9,299.1,42.8z"/>
</g>
<rect x="309.7" y="51.5" width="10.5" height="0.8"/>
<rect x="309.7" y="46.5" width="10.5" height="0.8"/>
<rect x="311.4" y="47.7" width="0.5" height="20.5"/>
<g>
	<path d="M311.5,47.8c0-1.8,2.5-3.5,4.5-3.5c1.3,0,2.3,0.7,2.3,1.7c0,1.7-2.5,3.5-4.6,3.5C312.5,49.5,311.5,48.9,311.5,47.8z"/>
</g>
<rect x="321.9" y="51.5" width="10.5" height="0.8"/>
<rect x="323.7" y="52.7" width="0.5" height="17.2"/>
<g>
	<path d="M323.8,52.7c0-1.8,2.5-3.5,4.5-3.5c1.3,0,2.3,0.7,2.3,1.7c0,1.7-2.5,3.5-4.6,3.5C324.7,54.5,323.8,53.8,323.8,52.7z"/>
</g>
<rect x="335.9" y="57.6" width="0.5" height="14"/>
<g>
	<path d="M336,57.7c0-1.8,2.5-3.5,4.5-3.5c1.3,0,2.3,0.7,2.3,1.7c0,1.7-2.5,3.5-4.6,3.5C337,59.4,336,58.8,336,57.7z"/>
</g>
<rect x="346.5" y="51.5" width="10.5" height="0.8"/>
<rect x="346.5" y="46.5" width="10.5" height="0.8"/>
<rect x="348.3" y="47.7" width="0.5" height="23.9"/>
<g>
	<path d="M348.4,47.8c0-1.8,2.5-3.5,4.5-3.5c1.3,0,2.3,0.7,2.3,1.7c0,1.7-2.5,3.5-4.6,3.5C349.4,49.5,348.4,48.9,348.4,47.8z"/>
</g>
<rect x="358.8" y="51.5" width="10.5" height="0.8"/>
<rect x="360.6" y="52.7" width="0.5" height="20.5"/>
<g>
	<path d="M360.7,52.7c0-1.8,2.5-3.5,4.5-3.5c1.3,0,2.3,0.7,2.3,1.7c0,1.7-2.5,3.5-4.6,3.5C361.6,54.5,360.7,53.8,360.7,52.7z"/>
</g>
<rect x="373" y="57.6" width="0.5" height="17.2"/>
<g>
	<path d="M373.1,57.7c0-1.8,2.5-3.5,4.5-3.5c1.3,0,2.3,0.7,2.3,1.7c0,1.7-2.5,3.5-4.6,3.5C374,59.4,373.1,58.8,373.1,57.7z"/>
</g>
<rect x="385.2" y="60.1" width="0.5" height="16.4"/>
<g>
	<path d="M385.3,60.2c0-1.8,2.5-3.5,4.5-3.5c1.3,0,2.3,0.7,2.3,1.7c0,1.7-2.5,3.5-4.6,3.5C386.3,61.9,385.3,61.3,385.3,60.2z"/>
</g>
<rect x="395.7" y="51.5" width="10.5" height="0.8"/>
<rect x="397.5" y="52.7" width="0.5" height="23.9"/>
<g>
	<path d="M397.5,52.7c0-1.8,2.5-3.5,4.5-3.5c1.3,0,2.3,0.7,2.3,1.7c0,1.7-2.5,3.5-4.6,3.5C398.5,54.5,397.5,53.8,397.5,52.7z"/>
</g>
<rect x="409.9" y="57.6" width="0.5" height="20.5"/>
<g>
	<path d="M409.9,57.7c0-1.8,2.5-3.5,4.5-3.5c1.3,0,2.3,0.7,2.3,1.7c0,1.7-2.5,3.5-4.6,3.5C410.9,59.4,409.9,58.8,409.9,57.7z"/>
</g>
<rect x="422.1" y="60.1" width="0.5" height="19.7"/>
<g>
	<path d="M422.2,60.2c0-1.8,2.5-3.5,4.5-3.5c1.3,0,2.3,0.7,2.3,1.7c0,1.7-2.5,3.5-4.6,3.5C423.2,61.9,422.2,61.3,422.2,60.2z"/>
</g>
<rect x="434.5" y="65.1" width="0.5" height="16.4"/>
<g>
	<path d="M434.6,65.1c0-1.8,2.5-3.5,4.5-3.5c1.3,0,2.3,0.7,2.3,1.7c0,1.7-2.5,3.5-4.6,3.5C435.6,66.9,434.6,66.2,434.6,65.1z"/>
</g>
<rect x="446.8" y="57.6" width="0.5" height="20.2"/>
<g>
	<path d="M446.8,57.7c0-1.8,2.5-3.5,4.5-3.5c1.3,0,2.3,0.7,2.3,1.7c0,1.7-2.5,3.5-4.6,3.5C447.8,59.4,446.8,58.8,446.8,57.7z"/>
</g>
<rect x="459" y="60.1" width="0.5" height="19.2"/>
<g>
	<path d="M459.1,60.2c0-1.8,2.5-3.5,4.5-3.5c1.3,0,2.3,0.7,2.3,1.7c0,1.7-2.5,3.5-4.6,3.5C460.1,61.9,459.1,61.3,459.1,60.2z"/>
</g>
<rect x="471.4" y="65.1" width="0.5" height="16"/>
<g>
	<path d="M471.5,65.1c0-1.8,2.5-3.5,4.5-3.5c1.3,0,2.3,0.7,2.3,1.7c0,1.7-2.5,3.5-4.6,3.5C472.5,66.9,471.5,66.2,471.5,65.1z"/>
</g>
<rect x="483.7" y="70" width="0.5" height="12.7"/>
<g>
	<path d="M483.7,70.1c0-1.8,2.5-3.5,4.5-3.5c1.3,0,2.3,0.7,2.3,1.7c0,1.7-2.5,3.5-4.6,3.5C484.7,71.8,483.7,71.2,483.7,70.1z"/>
</g>
<rect x="495.9" y="60.1" width="0.5" height="22.6"/>
<g>
	<path d="M496,60.2c0-1.8,2.5-3.5,4.5-3.5c1.3,0,2.3,0.7,2.3,1.7c0,1.7-2.5,3.5-4.6,3.5C497,61.9,496,61.3,496,60.2z"/>
</g>
<rect x="508.3" y="65.1" width="0.5" height="19.2"/>
<g>
	<path d="M508.4,65.1c0-1.8,2.5-3.5,4.5-3.5c1.3,0,2.3,0.7,2.3,1.7c0,1.7-2.5,3.5-4.6,3.5C509.4,66.9,508.4,66.2,508.4,65.1z"/>
</g>
<rect x="520.6" y="70" width="0.5" height="16"/>
<g>
	<path d="M520.6,70.1c0-1.8,2.5-3.5,4.5-3.5c1.3,0,2.3,0.7,2.3,1.7c0,1.7-2.5,3.5-4.6,3.5C521.6,71.8,520.6,71.2,520.6,70.1z"/>
</g>
<rect x="533" y="75" width="0.5" height="12.7"/>
<g>
	<path d="M533,75.1c0-1.8,2.5-3.5,4.5-3.5c1.3,0,2.3,0.7,2.3,1.7c0,1.7-2.5,3.5-4.6,3.5C534,76.8,533,76.1,533,75.1z"/>
</g>
</svg>
