<?xml version="1.0" encoding="utf-8"?>

<!--
	ScaleBook
	Copyright (c) Leland Jansen 2015. All rights reserved.
-->

<!DOCTYPE svg PUBLIC "-//W3C//DTD SVG 1.1//EN" "http://www.w3.org/Graphics/SVG/1.1/DTD/svg11.dtd">
<svg version="1.1" id="Layer_1" xmlns="http://www.w3.org/2000/svg" xmlns:xlink="http://www.w3.org/1999/xlink" x="0px" y="0px"
	 viewBox="0 0 552.9 87" enable-background="new 0 0 552.9 87" xml:space="preserve">
<rect x="8.4" y="10" width="0.8" height="67"/>
<g>
	<path d="M7.4,10.7c-1.9,1.1-3.6,5.8-3.6,9.4c0,2.3,1.4,9.9,1.4,12.3c0,5-1.5,8.6-4.6,11.1c3,2.4,4.6,6.1,4.6,11.1
		c0,2.3-1.4,9.9-1.4,12.3c0,3.8,1.7,8.4,3.6,9.5V77c-3.5-2.3-5.8-8.2-5.8-13.1c0-2.1,1.7-9.4,1.7-11.5c0-3.8-1-6.6-2.9-8.2
		C0.1,43.9,0,43.7,0,43.5c0-0.2,0.1-0.4,0.5-0.7c1.9-1.7,2.9-4.2,2.9-7.6c0-2.1-1.7-10-1.7-12.2c0-5.2,2.1-10.4,5.8-13.1V10.7z"/>
</g>
<rect x="547.8" y="10" width="0.8" height="67"/>
<rect x="550.4" y="10" width="2.5" height="67"/>
<rect x="8.5" y="29.6" width="544.4" height="0.5"/>
<rect x="8.5" y="24.7" width="544.4" height="0.5"/>
<rect x="8.5" y="19.7" width="544.4" height="0.5"/>
<rect x="8.5" y="14.8" width="544.4" height="0.5"/>
<rect x="8.5" y="9.8" width="544.4" height="0.5"/>
<g>
	<path d="M20.3,29.7c-4.2,0-8.1-3.1-8.1-6.9c0-3.2,2.3-6.7,6.8-10.5c-0.3-1.2-0.4-2.4-0.4-3.6c0-3.5,1.2-6.8,3.2-8.5
		c1.8,2.5,2.7,4.9,2.7,7.1c0,2.9-1.3,5.6-4.3,8.1l0.9,4.2c0.5,0,0.8-0.1,0.8-0.1c2.6,0,4.8,2,4.8,4.7c0,1.9-1.4,3.7-3.6,4.8
		c0-0.1,0.9,3.8,0.9,4.3c0,2.5-2.3,4.2-4.9,4.2c-2,0-3.6-1.3-3.6-3.4c0-1.4,1-2.6,2.4-2.6c1.3,0,2.3,1.3,2.3,2.5
		c0,1.4-1.2,2.3-2.7,2.5c0.6,0.3,1.2,0.5,1.9,0.5c2.1,0,4.1-1.6,4.1-3.6c0-0.2,0-0.4-0.1-0.6l-0.8-3.7
		C21.9,29.6,21.2,29.7,20.3,29.7z M18.1,24.5c0,1,0.5,1.9,1.6,2.5c-1.8-0.3-3-1.4-3-3.1c0-2,1.7-3.7,3.8-4.1l-0.8-4
		C16,18.6,14,21.3,14,23.9c0,2.9,2.8,5.3,6,5.3c0.9,0,1.7-0.2,2.4-0.5L21,21.9C19.4,22.1,18.1,23.1,18.1,24.5z M22.1,3.2
		c-1.6,0-2.9,3.7-2.9,7c0,0.7,0,1.3,0.2,1.9c2.7-2.4,4-4.5,4-6.5c0-0.9-0.3-1.7-1-2.4C22.4,3.2,22.3,3.2,22.1,3.2z M24.9,25
		c0-1.6-1.2-3.3-2.9-3.3c-0.1,0-0.2,0-0.5,0l1.4,6.6C24.2,27.5,24.9,26.3,24.9,25z"/>
</g>
<g>
	<path d="M33.5,3.2v2.8l1-0.3v1.8l-1,0.3v3.4l1-0.3v1.8l-1,0.3v3.1H33v-3l-1.9,0.6v3h-0.5V14l-1,0.3v-1.8l1-0.3V8.8l-1,0.3V7.3
		l1-0.3V3.9h0.5v3L33,6.2v-3H33.5z M33,8l-1.9,0.6v3.4l1.9-0.6V8z"/>
</g>
<g>
	<path d="M39.7,10.7v2.8l1-0.3V15l-1,0.3v3.4l1-0.3v1.8l-1,0.3v3.1h-0.5v-3l-1.9,0.6v3h-0.5v-2.8l-1,0.3V20l1-0.3v-3.4l-1,0.3v-1.8
		l1-0.3v-3.1h0.5v3l1.9-0.6v-3H39.7z M39.2,15.4l-1.9,0.6v3.4l1.9-0.6V15.4z"/>
</g>
<g>
	<path d="M45.9,0.7v2.8l1-0.3V5l-1,0.3v3.4l1-0.3v1.8l-1,0.3v3.1h-0.5v-3l-1.9,0.6v3H43v-2.8l-1,0.3v-1.8l1-0.3V6.3l-1,0.3V4.8
		l1-0.3V1.4h0.5v3l1.9-0.6v-3H45.9z M45.4,5.5l-1.9,0.6v3.4l1.9-0.6V5.5z"/>
</g>
<g>
	<path d="M52.1,8.2V11l1-0.3v1.8l-1,0.3v3.4l1-0.3v1.8l-1,0.3v3.1h-0.5v-3l-1.9,0.6v3h-0.5V19l-1,0.3v-1.8l1-0.3v-3.4l-1,0.3v-1.8
		l1-0.3V8.8h0.5v3l1.9-0.6v-3H52.1z M51.6,13l-1.9,0.6V17l1.9-0.6V13z"/>
</g>
<g>
	<path d="M58.3,15.6v2.8l1-0.3v1.8l-1,0.3v3.4l1-0.3v1.8l-1,0.3v3.1h-0.5v-3l-1.9,0.6v3h-0.5v-2.8l-1,0.3v-1.8l1-0.3v-3.4l-1,0.3
		v-1.8l1-0.3v-3.1h0.5v3l1.9-0.6v-3H58.3z M57.8,20.4L55.9,21v3.4l1.9-0.6V20.4z"/>
</g>
<g>
	<path d="M64.5,5.7v2.8l1-0.3V10l-1,0.3v3.4l1-0.3v1.8l-1,0.3v3.1H64v-3l-1.9,0.6v3h-0.5v-2.8l-1,0.3V15l1-0.3v-3.4l-1,0.3V9.8
		l1-0.3V6.3h0.5v3L64,8.7v-3H64.5z M64,10.5l-1.9,0.6v3.4l1.9-0.6V10.5z"/>
</g>
<polygon fill-rule="evenodd" clip-rule="evenodd" points="82.7,16.2 113.7,11.3 113.7,8.8 82.7,13.8 "/>
<polygon fill-rule="evenodd" clip-rule="evenodd" points="82.7,12.5 113.7,7.6 113.7,5.1 82.7,10 "/>
<polygon fill-rule="evenodd" clip-rule="evenodd" points="124.1,11.3 160.4,6.3 160.4,3.8 124.1,8.8 "/>
<polygon fill-rule="evenodd" clip-rule="evenodd" points="124.1,7.6 160.4,2.6 160.4,0.1 124.1,5.1 "/>
<polygon fill-rule="evenodd" clip-rule="evenodd" points="164.2,36.1 196.8,31.1 196.8,28.6 164.2,33.6 "/>
<polygon fill-rule="evenodd" clip-rule="evenodd" points="164.2,39.8 196.8,34.8 196.8,32.4 164.2,37.3 "/>
<polygon fill-rule="evenodd" clip-rule="evenodd" points="225,32.4 263.1,27.4 263.1,24.9 225,29.9 "/>
<polygon fill-rule="evenodd" clip-rule="evenodd" points="225,36.1 263.1,31.1 263.1,28.6 225,33.6 "/>
<polygon fill-rule="evenodd" clip-rule="evenodd" points="273.5,31.1 304.5,26.2 304.5,23.7 273.5,28.6 "/>
<polygon fill-rule="evenodd" clip-rule="evenodd" points="273.5,34.8 304.5,29.9 304.5,27.4 273.5,32.4 "/>
<polygon fill-rule="evenodd" clip-rule="evenodd" points="316.3,26.2 347.3,31.1 347.3,28.6 316.3,23.7 "/>
<polygon fill-rule="evenodd" clip-rule="evenodd" points="316.3,29.9 347.3,34.8 347.3,32.4 316.3,27.4 "/>
<polygon fill-rule="evenodd" clip-rule="evenodd" points="357.7,27.4 390.3,32.4 390.3,29.9 357.7,24.9 "/>
<polygon fill-rule="evenodd" clip-rule="evenodd" points="357.7,31.1 390.3,36.1 390.3,33.6 357.7,28.6 "/>
<polygon fill-rule="evenodd" clip-rule="evenodd" points="418.5,31.1 450.9,36.1 450.9,33.6 418.5,28.6 "/>
<polygon fill-rule="evenodd" clip-rule="evenodd" points="418.5,34.8 450.9,39.8 450.9,37.3 418.5,32.4 "/>
<polygon fill-rule="evenodd" clip-rule="evenodd" points="467.8,6.3 498.8,11.3 498.8,8.8 467.8,3.8 "/>
<polygon fill-rule="evenodd" clip-rule="evenodd" points="467.8,2.6 498.8,7.6 498.8,5.1 467.8,0.1 "/>
<polygon fill-rule="evenodd" clip-rule="evenodd" points="509.2,11.3 540.2,16.2 540.2,13.8 509.2,8.8 "/>
<polygon fill-rule="evenodd" clip-rule="evenodd" points="509.2,7.6 540.2,12.5 540.2,10 509.2,5.1 "/>
<rect x="8.5" y="76.8" width="544.4" height="0.5"/>
<rect x="8.5" y="71.8" width="544.4" height="0.5"/>
<rect x="8.5" y="66.9" width="544.4" height="0.5"/>
<rect x="8.5" y="61.9" width="544.4" height="0.5"/>
<rect x="8.5" y="56.9" width="544.4" height="0.5"/>
<g>
	<path d="M15.7,71.3c2.9-2.6,4.7-6.1,4.7-9.2c0-2.5-1.4-4.4-3.7-4.4c-1.6,0-3.4,1.3-3.4,2.7c0,0.2,0,0.3,0.1,0.3
		c-0.1,0,0.6-0.6,1.4-0.6c0.9,0,1.5,0.8,1.5,1.7c0,1.2-0.9,2.2-2.1,2.2c-1.2,0-2.1-1.3-2.1-2.8c0-2.3,2.3-4.1,4.8-4.1
		c4.7,0,5.9,3.2,5.9,5.8c0,1.6-0.4,2.9-2,5.3c-1.9,3.1-6.4,5.3-8.1,5.3c-0.4,0-0.6-0.2-0.6-0.5C13.8,72.6,14.9,72,15.7,71.3z
		 M25.7,58.7c0.6,0,1,0.4,1,1c0,0.6-0.4,1-1,1s-1-0.4-1-1C24.7,59.1,25.1,58.7,25.7,58.7z M25.7,63.6c0.6,0,1,0.4,1,1
		c0,0.6-0.4,1-1,1s-1-0.4-1-1C24.7,64,25.1,63.6,25.7,63.6z"/>
</g>
<g>
	<path d="M33.5,55.3v2.8l1-0.3v1.8l-1,0.3v3.4l1-0.3v1.8l-1,0.3v3.1H33v-3L31.1,66v3h-0.5v-2.8l-1,0.3v-1.8l1-0.3v-3.4l-1,0.3v-1.8
		l1-0.3v-3.1h0.5v3l1.9-0.6v-3H33.5z M33,60.1l-1.9,0.6v3.4l1.9-0.6V60.1z"/>
</g>
<g>
	<path d="M39.7,62.7v2.8l1-0.3V67l-1,0.3v3.4l1-0.3v1.8l-1,0.3v3.1h-0.5v-3l-1.9,0.6v3h-0.5v-2.8l-1,0.3v-1.8l1-0.3v-3.4l-1,0.3
		v-1.8l1-0.3v-3.1h0.5v3l1.9-0.6v-3H39.7z M39.2,67.5l-1.9,0.6v3.4l1.9-0.6V67.5z"/>
</g>
<g>
	<path d="M45.9,52.8v2.8l1-0.3v1.8l-1,0.3v3.4l1-0.3v1.8l-1,0.3v3.1h-0.5v-3l-1.9,0.6v3H43v-2.8l-1,0.3v-1.8l1-0.3v-3.4l-1,0.3v-1.8
		l1-0.3v-3.1h0.5v3l1.9-0.6v-3H45.9z M45.4,57.6l-1.9,0.6v3.4l1.9-0.6V57.6z"/>
</g>
<g>
	<path d="M52.1,60.3v2.8l1-0.3v1.8l-1,0.3v3.4l1-0.3v1.8l-1,0.3v3.1h-0.5v-3l-1.9,0.6v3h-0.5V71l-1,0.3v-1.8l1-0.3v-3.4l-1,0.3v-1.8
		l1-0.3v-3.1h0.5v3l1.9-0.6v-3H52.1z M51.6,65l-1.9,0.6v3.4l1.9-0.6V65z"/>
</g>
<g>
	<path d="M58.3,67.7v2.8l1-0.3V72l-1,0.3v3.4l1-0.3v1.8l-1,0.3v3.1h-0.5v-3l-1.9,0.6v3h-0.5v-2.8l-1,0.3V77l1-0.3v-3.4l-1,0.3v-1.8
		l1-0.3v-3.1h0.5v3l1.9-0.6v-3H58.3z M57.8,72.5l-1.9,0.6v3.4l1.9-0.6V72.5z"/>
</g>
<g>
	<path d="M64.5,57.8v2.8l1-0.3v1.8l-1,0.3v3.4l1-0.3v1.8l-1,0.3v3.1H64v-3l-1.9,0.6v3h-0.5v-2.8l-1,0.3v-1.8l1-0.3v-3.4l-1,0.3v-1.8
		l1-0.3v-3.1h0.5v3l1.9-0.6v-3H64.5z M64,62.6l-1.9,0.6v3.4L64,66V62.6z"/>
</g>
<polygon fill-rule="evenodd" clip-rule="evenodd" points="76.2,79.5 107.2,74.5 107.2,72 76.2,77 "/>
<polygon fill-rule="evenodd" clip-rule="evenodd" points="76.2,83.2 107.2,78.2 107.2,75.8 76.2,80.7 "/>
<polygon fill-rule="evenodd" clip-rule="evenodd" points="117.6,78.2 153.9,73.3 153.9,70.8 117.6,75.8 "/>
<polygon fill-rule="evenodd" clip-rule="evenodd" points="117.6,82 153.9,77 153.9,74.5 117.6,79.5 "/>
<g>
	<path d="M217,75.6c-3.2,0-6.1-2.3-6.1-5.1c0-2.4,1.7-5,5.1-7.9c-0.2-0.9-0.3-1.8-0.3-2.7c0-2.6,0.9-5.1,2.4-6.3
		c1.4,1.9,2,3.7,2,5.3c0,2.2-1,4.2-3.2,6.1l0.7,3.1c0.4,0,0.6,0,0.6,0c2,0,3.6,1.5,3.6,3.5c0,1.4-1.1,2.8-2.7,3.6
		c0-0.1,0.6,2.8,0.6,3.3c0,1.9-1.7,3.2-3.7,3.2c-1.5,0-2.7-1-2.7-2.5c0-1.1,0.7-1.9,1.8-1.9c1,0,1.7,1,1.7,1.9c0,1-0.9,1.7-2,1.8
		c0.4,0.2,0.9,0.3,1.4,0.3c1.6,0,3.1-1.2,3.1-2.7c0-0.1,0-0.3,0-0.5l-0.6-2.8C218.2,75.5,217.7,75.6,217,75.6z M215.3,71.7
		c0,0.8,0.4,1.4,1.2,1.9c-1.3-0.2-2.2-1.1-2.2-2.3c0-1.5,1.3-2.8,2.9-3.1l-0.6-3c-2.8,2.1-4.3,4.1-4.3,6.1c0,2.2,2.1,4,4.5,4
		c0.7,0,1.3-0.1,1.8-0.4l-1.1-5.1C216.3,69.9,215.3,70.7,215.3,71.7z M218.4,55.7c-1.2,0-2.2,2.8-2.2,5.3c0,0.5,0,1,0.1,1.4
		c2-1.8,3-3.4,3-4.9c0-0.7-0.3-1.3-0.7-1.8C218.6,55.7,218.5,55.7,218.4,55.7z M220.4,72.1c0-1.2-0.9-2.4-2.2-2.4c0,0-0.2,0-0.4,0
		l1.1,5C219.9,74,220.4,73.1,220.4,72.1z"/>
</g>
<polygon fill-rule="evenodd" clip-rule="evenodd" points="164.2,73.3 196.8,68.3 196.8,65.8 164.2,70.8 "/>
<polygon fill-rule="evenodd" clip-rule="evenodd" points="164.2,77 196.8,72 196.8,69.6 164.2,74.5 "/>
<polygon fill-rule="evenodd" clip-rule="evenodd" points="231.5,68.3 269.7,63.4 269.7,60.9 231.5,65.8 "/>
<polygon fill-rule="evenodd" clip-rule="evenodd" points="231.5,64.6 269.7,59.6 269.7,57.2 231.5,62.1 "/>
<polygon fill-rule="evenodd" clip-rule="evenodd" points="280,63.4 311,58.4 311,55.9 280,60.9 "/>
<polygon fill-rule="evenodd" clip-rule="evenodd" points="280,59.6 311,54.7 311,52.2 280,57.2 "/>
<polygon fill-rule="evenodd" clip-rule="evenodd" points="322.8,58.4 353.8,63.4 353.8,60.9 322.8,55.9 "/>
<polygon fill-rule="evenodd" clip-rule="evenodd" points="322.8,54.7 353.8,59.6 353.8,57.2 322.8,52.2 "/>
<g>
	<path d="M407,69c2.2-2,3.6-4.6,3.6-6.9c0-1.9-1.1-3.3-2.8-3.3c-1.2,0-2.5,1-2.5,2.1c0,0.2,0,0.2,0.1,0.2c0,0,0.4-0.5,1-0.5
		c0.7,0,1.2,0.6,1.2,1.3c0,0.9-0.6,1.7-1.6,1.7s-1.5-1-1.5-2.1c0-1.8,1.7-3.1,3.6-3.1c3.5,0,4.4,2.4,4.4,4.4c0,1.2-0.3,2.2-1.5,4
		c-1.4,2.3-4.8,4-6,4c-0.3,0-0.5-0.1-0.5-0.3C405.6,70,406.4,69.6,407,69z M414.5,59.5c0.4,0,0.7,0.3,0.7,0.7c0,0.4-0.3,0.7-0.7,0.7
		c-0.4,0-0.7-0.3-0.7-0.7C413.7,59.8,414.1,59.5,414.5,59.5z M414.5,63.2c0.4,0,0.7,0.3,0.7,0.7s-0.3,0.7-0.7,0.7
		c-0.4,0-0.7-0.3-0.7-0.7S414.1,63.2,414.5,63.2z"/>
</g>
<polygon fill-rule="evenodd" clip-rule="evenodd" points="364.2,63.4 396.8,68.3 396.8,65.8 364.2,60.9 "/>
<polygon fill-rule="evenodd" clip-rule="evenodd" points="364.2,59.6 396.8,64.6 396.8,62.1 364.2,57.2 "/>
<polygon fill-rule="evenodd" clip-rule="evenodd" points="418.5,68.3 450.9,73.3 450.9,70.8 418.5,65.8 "/>
<polygon fill-rule="evenodd" clip-rule="evenodd" points="418.5,72 450.9,77 450.9,74.5 418.5,69.6 "/>
<polygon fill-rule="evenodd" clip-rule="evenodd" points="461.3,73.3 492.3,78.2 492.3,75.8 461.3,70.8 "/>
<polygon fill-rule="evenodd" clip-rule="evenodd" points="461.3,77 492.3,82 492.3,79.5 461.3,74.5 "/>
<polygon fill-rule="evenodd" clip-rule="evenodd" points="502.6,74.5 533.7,79.5 533.7,77 502.6,72 "/>
<polygon fill-rule="evenodd" clip-rule="evenodd" points="502.6,78.2 533.7,83.2 533.7,80.7 502.6,75.8 "/>
<rect x="74.2" y="34.5" width="10.5" height="0.8"/>
<rect x="82.5" y="10.2" width="0.5" height="23.9"/>
<g>
	<path d="M76,35.7c0-1.8,2.5-3.5,4.5-3.5c1.3,0,2.3,0.7,2.3,1.7c0,1.7-2.5,3.5-4.6,3.5C77,37.4,76,36.8,76,35.7z"/>
</g>
<g>
	<path d="M71.9,37.3c0-0.8-0.4-1.5-1.1-2.2c-0.7,0.7-1.1,1.4-1.1,2.2h-1.4v-1.4c0.8,0,1.5-0.3,2.2-1c-0.7-0.7-1.4-1.1-2.2-1.1v-1.4
		h1.4c0,0.8,0.4,1.5,1.1,2.2c0.7-0.7,1.1-1.4,1.1-2.2h1.4v1.4c-0.8,0-1.5,0.4-2.2,1.1c0.7,0.7,1.4,1,2,1h0.2v1.4H71.9z"/>
</g>
<rect x="92.9" y="8.6" width="0.5" height="20.5"/>
<g>
	<path d="M86.4,30.7c0-1.8,2.5-3.5,4.5-3.5c1.3,0,2.3,0.7,2.3,1.7c0,1.7-2.5,3.5-4.6,3.5C87.4,32.5,86.4,31.8,86.4,30.7z"/>
</g>
<rect x="103.1" y="6.9" width="0.5" height="17.2"/>
<g>
	<path d="M96.7,25.8c0-1.8,2.5-3.5,4.5-3.5c1.3,0,2.3,0.7,2.3,1.7c0,1.7-2.5,3.5-4.6,3.5C97.6,27.5,96.7,26.9,96.7,25.8z"/>
</g>
<rect x="113.5" y="5.2" width="0.5" height="14"/>
<g>
	<path d="M107,20.8c0-1.8,2.5-3.5,4.5-3.5c1.3,0,2.3,0.7,2.3,1.7c0,1.7-2.5,3.5-4.6,3.5C108,22.5,107,21.9,107,20.8z"/>
</g>
<rect x="123.9" y="5.2" width="0.5" height="23.9"/>
<g>
	<path d="M117.4,30.7c0-1.8,2.5-3.5,4.5-3.5c1.3,0,2.3,0.7,2.3,1.7c0,1.7-2.5,3.5-4.6,3.5C118.4,32.5,117.4,31.8,117.4,30.7z"/>
</g>
<rect x="134.3" y="3.8" width="0.5" height="20.3"/>
<g>
	<path d="M127.8,25.8c0-1.8,2.5-3.5,4.5-3.5c1.3,0,2.3,0.7,2.3,1.7c0,1.7-2.5,3.5-4.6,3.5C128.8,27.5,127.8,26.9,127.8,25.8z"/>
</g>
<rect x="144.5" y="2.4" width="0.5" height="16.7"/>
<g>
	<path d="M138.1,20.8c0-1.8,2.5-3.5,4.5-3.5c1.3,0,2.3,0.7,2.3,1.7c0,1.7-2.5,3.5-4.6,3.5C139,22.5,138.1,21.9,138.1,20.8z"/>
</g>
<rect x="160.1" y="0.3" width="0.5" height="16.4"/>
<g>
	<path d="M153.7,18.3c0-1.8,2.5-3.5,4.5-3.5c1.3,0,2.3,0.7,2.3,1.7c0,1.7-2.5,3.5-4.6,3.5C154.7,20.1,153.7,19.4,153.7,18.3z"/>
</g>
<g>
	<path d="M150.8,20c0-0.8-0.4-1.5-1.1-2.2c-0.7,0.7-1.1,1.4-1.1,2.2h-1.4v-1.4c0.8,0,1.5-0.3,2.2-1c-0.7-0.7-1.4-1.1-2.2-1.1V15h1.4
		c0,0.8,0.4,1.5,1.1,2.2c0.7-0.7,1.1-1.4,1.1-2.2h1.4v1.4c-0.8,0-1.5,0.4-2.2,1.1c0.7,0.7,1.4,1,2,1h0.2V20H150.8z"/>
</g>
<rect x="164" y="25.7" width="0.5" height="14"/>
<g>
	<path d="M164.1,25.8c0-1.8,2.5-3.5,4.5-3.5c1.3,0,2.3,0.7,2.3,1.7c0,1.7-2.5,3.5-4.6,3.5C165.1,27.5,164.1,26.9,164.1,25.8z"/>
</g>
<rect x="174.4" y="20.7" width="0.5" height="17.4"/>
<g>
	<path d="M174.5,20.8c0-1.8,2.5-3.5,4.5-3.5c1.3,0,2.3,0.7,2.3,1.7c0,1.7-2.5,3.5-4.6,3.5C175.5,22.5,174.5,21.9,174.5,20.8z"/>
</g>
<rect x="184.8" y="18.3" width="0.5" height="18.3"/>
<g>
	<path d="M184.9,18.3c0-1.8,2.5-3.5,4.5-3.5c1.3,0,2.3,0.7,2.3,1.7c0,1.7-2.5,3.5-4.6,3.5C185.8,20.1,184.9,19.4,184.9,18.3z"/>
</g>
<rect x="196.6" y="13.3" width="0.5" height="21.4"/>
<g>
	<path d="M196.6,13.4c0-1.8,2.5-3.5,4.5-3.5c1.3,0,2.3,0.7,2.3,1.7c0,1.7-2.5,3.5-4.6,3.5C197.6,15.1,196.6,14.5,196.6,13.4z"/>
</g>
<rect x="224.8" y="20.7" width="0.5" height="15.2"/>
<g>
	<path d="M224.9,20.8c0-1.8,2.5-3.5,4.5-3.5c1.3,0,2.3,0.7,2.3,1.7c0,1.7-2.5,3.5-4.6,3.5C225.8,22.5,224.9,21.9,224.9,20.8z"/>
</g>
<rect x="242.3" y="18.3" width="0.5" height="15.5"/>
<g>
	<path d="M242.4,18.3c0-1.8,2.5-3.5,4.5-3.5c1.3,0,2.3,0.7,2.3,1.7c0,1.7-2.5,3.5-4.6,3.5C243.4,20.1,242.4,19.4,242.4,18.3z"/>
</g>
<rect x="252.5" y="13.3" width="0.5" height="19.1"/>
<g>
	<path d="M252.6,13.4c0-1.8,2.5-3.5,4.5-3.5c1.3,0,2.3,0.7,2.3,1.7c0,1.7-2.5,3.5-4.6,3.5C253.6,15.1,252.6,14.5,252.6,13.4z"/>
</g>
<rect x="262.9" y="8.3" width="0.5" height="22.6"/>
<g>
	<path d="M263,8.4c0-1.8,2.5-3.5,4.5-3.5c1.3,0,2.3,0.7,2.3,1.7c0,1.7-2.5,3.5-4.6,3.5C264,10.1,263,9.5,263,8.4z"/>
</g>
<rect x="273.3" y="18.3" width="0.5" height="16.4"/>
<g>
	<path d="M273.4,18.3c0-1.8,2.5-3.5,4.5-3.5c1.3,0,2.3,0.7,2.3,1.7c0,1.7-2.5,3.5-4.6,3.5C274.4,20.1,273.4,19.4,273.4,18.3z"/>
</g>
<rect x="283.7" y="13.3" width="0.5" height="19.8"/>
<g>
	<path d="M283.8,13.4c0-1.8,2.5-3.5,4.5-3.5c1.3,0,2.3,0.7,2.3,1.7c0,1.7-2.5,3.5-4.6,3.5C284.7,15.1,283.8,14.5,283.8,13.4z"/>
</g>
<rect x="293.9" y="8.3" width="0.5" height="23.1"/>
<g>
	<path d="M294,8.4c0-1.8,2.5-3.5,4.5-3.5c1.3,0,2.3,0.7,2.3,1.7c0,1.7-2.5,3.5-4.6,3.5C295,10.1,294,9.5,294,8.4z"/>
</g>
<rect x="302.5" y="4.7" width="10.5" height="0.8"/>
<rect x="304.3" y="3.4" width="0.5" height="26.4"/>
<g>
	<path d="M304.4,3.5c0-1.8,2.5-3.5,4.5-3.5c1.3,0,2.3,0.7,2.3,1.7c0,1.7-2.5,3.5-4.6,3.5C305.4,5.2,304.4,4.5,304.4,3.5z"/>
</g>
<rect x="314.3" y="4.7" width="10.5" height="0.8"/>
<rect x="316.1" y="3.4" width="0.5" height="26.4"/>
<g>
	<path d="M316.2,3.5c0-1.8,2.5-3.5,4.5-3.5c1.3,0,2.3,0.7,2.3,1.7c0,1.7-2.5,3.5-4.6,3.5C317.1,5.2,316.2,4.5,316.2,3.5z"/>
</g>
<rect x="326.5" y="8.3" width="0.5" height="22.9"/>
<g>
	<path d="M326.6,8.4c0-1.8,2.5-3.5,4.5-3.5c1.3,0,2.3,0.7,2.3,1.7c0,1.7-2.5,3.5-4.6,3.5C327.5,10.1,326.6,9.5,326.6,8.4z"/>
</g>
<rect x="336.9" y="13.3" width="0.5" height="19.7"/>
<g>
	<path d="M336.9,13.4c0-1.8,2.5-3.5,4.5-3.5c1.3,0,2.3,0.7,2.3,1.7c0,1.7-2.5,3.5-4.6,3.5C337.9,15.1,336.9,14.5,336.9,13.4z"/>
</g>
<rect x="347.1" y="18.3" width="0.5" height="16.4"/>
<g>
	<path d="M347.2,18.3c0-1.8,2.5-3.5,4.5-3.5c1.3,0,2.3,0.7,2.3,1.7c0,1.7-2.5,3.5-4.6,3.5C348.1,20.1,347.2,19.4,347.2,18.3z"/>
</g>
<rect x="357.5" y="8.3" width="0.5" height="22.6"/>
<g>
	<path d="M357.6,8.4c0-1.8,2.5-3.5,4.5-3.5c1.3,0,2.3,0.7,2.3,1.7c0,1.7-2.5,3.5-4.6,3.5C358.5,10.1,357.6,9.5,357.6,8.4z"/>
</g>
<rect x="367.9" y="13.3" width="0.5" height="19.2"/>
<g>
	<path d="M367.9,13.4c0-1.8,2.5-3.5,4.5-3.5c1.3,0,2.3,0.7,2.3,1.7c0,1.7-2.5,3.5-4.6,3.5C368.9,15.1,367.9,14.5,367.9,13.4z"/>
</g>
<rect x="378.2" y="18.3" width="0.5" height="15.8"/>
<g>
	<path d="M378.3,18.3c0-1.8,2.5-3.5,4.5-3.5c1.3,0,2.3,0.7,2.3,1.7c0,1.7-2.5,3.5-4.6,3.5C379.3,20.1,378.3,19.4,378.3,18.3z"/>
</g>
<rect x="390" y="20.7" width="0.5" height="15.2"/>
<g>
	<path d="M390.1,20.8c0-1.8,2.5-3.5,4.5-3.5c1.3,0,2.3,0.7,2.3,1.7c0,1.7-2.5,3.5-4.6,3.5C391.1,22.5,390.1,21.9,390.1,20.8z"/>
</g>
<rect x="418.2" y="13.3" width="0.5" height="21.4"/>
<g>
	<path d="M418.3,13.4c0-1.8,2.5-3.5,4.5-3.5c1.3,0,2.3,0.7,2.3,1.7c0,1.7-2.5,3.5-4.6,3.5C419.3,15.1,418.3,14.5,418.3,13.4z"/>
</g>
<rect x="430" y="18.3" width="0.5" height="18.1"/>
<g>
	<path d="M430.1,18.3c0-1.8,2.5-3.5,4.5-3.5c1.3,0,2.3,0.7,2.3,1.7c0,1.7-2.5,3.5-4.6,3.5C431.1,20.1,430.1,19.4,430.1,18.3z"/>
</g>
<rect x="440.3" y="20.7" width="0.5" height="17.2"/>
<g>
	<path d="M440.3,20.8c0-1.8,2.5-3.5,4.5-3.5c1.3,0,2.3,0.7,2.3,1.7c0,1.7-2.5,3.5-4.6,3.5C441.3,22.5,440.3,21.9,440.3,20.8z"/>
</g>
<rect x="450.6" y="25.7" width="0.5" height="14"/>
<g>
	<path d="M450.7,25.8c0-1.8,2.5-3.5,4.5-3.5c1.3,0,2.3,0.7,2.3,1.7c0,1.7-2.5,3.5-4.6,3.5C451.7,27.5,450.7,26.9,450.7,25.8z"/>
</g>
<rect x="467.5" y="0.3" width="0.5" height="16.4"/>
<g>
	<path d="M461.1,18.3c0-1.8,2.5-3.5,4.5-3.5c1.3,0,2.3,0.7,2.3,1.7c0,1.7-2.5,3.5-4.6,3.5C462.1,20.1,461.1,19.4,461.1,18.3z"/>
</g>
<rect x="477.9" y="1.8" width="0.5" height="17.4"/>
<g>
	<path d="M471.5,20.8c0-1.8,2.5-3.5,4.5-3.5c1.3,0,2.3,0.7,2.3,1.7c0,1.7-2.5,3.5-4.6,3.5C472.5,22.5,471.5,21.9,471.5,20.8z"/>
</g>
<rect x="488.2" y="3.5" width="0.5" height="20.6"/>
<g>
	<path d="M481.7,25.8c0-1.8,2.5-3.5,4.5-3.5c1.3,0,2.3,0.7,2.3,1.7c0,1.7-2.5,3.5-4.6,3.5C482.7,27.5,481.7,26.9,481.7,25.8z"/>
</g>
<rect x="498.5" y="5.2" width="0.5" height="23.9"/>
<g>
	<path d="M492.1,30.7c0-1.8,2.5-3.5,4.5-3.5c1.3,0,2.3,0.7,2.3,1.7c0,1.7-2.5,3.5-4.6,3.5C493.1,32.5,492.1,31.8,492.1,30.7z"/>
</g>
<rect x="508.9" y="5.2" width="0.5" height="14"/>
<g>
	<path d="M502.5,20.8c0-1.8,2.5-3.5,4.5-3.5c1.3,0,2.3,0.7,2.3,1.7c0,1.7-2.5,3.5-4.6,3.5C503.5,22.5,502.5,21.9,502.5,20.8z"/>
</g>
<rect x="519.3" y="6.8" width="0.5" height="17.4"/>
<g>
	<path d="M512.9,25.8c0-1.8,2.5-3.5,4.5-3.5c1.3,0,2.3,0.7,2.3,1.7c0,1.7-2.5,3.5-4.6,3.5C513.9,27.5,512.9,26.9,512.9,25.8z"/>
</g>
<rect x="529.5" y="8.5" width="0.5" height="20.6"/>
<g>
	<path d="M523.1,30.7c0-1.8,2.5-3.5,4.5-3.5c1.3,0,2.3,0.7,2.3,1.7c0,1.7-2.5,3.5-4.6,3.5C524.1,32.5,523.1,31.8,523.1,30.7z"/>
</g>
<rect x="531.6" y="34.5" width="10.5" height="0.8"/>
<rect x="539.9" y="10.2" width="0.5" height="23.9"/>
<g>
	<path d="M533.5,35.7c0-1.8,2.5-3.5,4.5-3.5c1.3,0,2.3,0.7,2.3,1.7c0,1.7-2.5,3.5-4.6,3.5C534.5,37.4,533.5,36.8,533.5,35.7z"/>
</g>
<rect x="76" y="70.3" width="0.5" height="12.7"/>
<g>
	<path d="M76,70.4c0-1.8,2.5-3.5,4.5-3.5c1.3,0,2.3,0.7,2.3,1.7c0,1.7-2.5,3.5-4.6,3.5C77,72.1,76,71.5,76,70.4z"/>
</g>
<g>
	<path d="M73.1,72c0-0.8-0.4-1.5-1.1-2.2C71.3,70.5,71,71.3,71,72h-1.4v-1.4c0.8,0,1.5-0.3,2.2-1c-0.7-0.7-1.4-1.1-2.2-1.1v-1.4H71
		c0,0.8,0.4,1.5,1.1,2.2c0.7-0.7,1.1-1.4,1.1-2.2h1.4v1.4c-0.8,0-1.5,0.4-2.2,1.1c0.7,0.7,1.4,1,2,1h0.2V72H73.1z"/>
</g>
<rect x="86.4" y="65.4" width="0.5" height="16.1"/>
<g>
	<path d="M86.4,65.5c0-1.8,2.5-3.5,4.5-3.5c1.3,0,2.3,0.7,2.3,1.7c0,1.7-2.5,3.5-4.6,3.5C87.4,67.2,86.4,66.5,86.4,65.5z"/>
</g>
<rect x="96.6" y="60.4" width="0.5" height="19.4"/>
<g>
	<path d="M96.7,60.5c0-1.8,2.5-3.5,4.5-3.5c1.3,0,2.3,0.7,2.3,1.7c0,1.7-2.5,3.5-4.6,3.5C97.6,62.2,96.7,61.6,96.7,60.5z"/>
</g>
<rect x="107" y="55.5" width="0.5" height="22.6"/>
<g>
	<path d="M107,55.5c0-1.8,2.5-3.5,4.5-3.5c1.3,0,2.3,0.7,2.3,1.7c0,1.7-2.5,3.5-4.6,3.5C108,57.3,107,56.6,107,55.5z"/>
</g>
<rect x="117.4" y="65.4" width="0.5" height="16.4"/>
<g>
	<path d="M117.4,65.5c0-1.8,2.5-3.5,4.5-3.5c1.3,0,2.3,0.7,2.3,1.7c0,1.7-2.5,3.5-4.6,3.5C118.4,67.2,117.4,66.5,117.4,65.5z"/>
</g>
<rect x="127.7" y="60.4" width="0.5" height="20"/>
<g>
	<path d="M127.8,60.5c0-1.8,2.5-3.5,4.5-3.5c1.3,0,2.3,0.7,2.3,1.7c0,1.7-2.5,3.5-4.6,3.5C128.8,62.2,127.8,61.6,127.8,60.5z"/>
</g>
<rect x="138" y="55.5" width="0.5" height="23.6"/>
<g>
	<path d="M138.1,55.5c0-1.8,2.5-3.5,4.5-3.5c1.3,0,2.3,0.7,2.3,1.7c0,1.7-2.5,3.5-4.6,3.5C139,57.3,138.1,56.6,138.1,55.5z"/>
</g>
<rect x="151.8" y="51.8" width="10.5" height="0.8"/>
<rect x="153.6" y="53" width="0.5" height="23.9"/>
<g>
	<path d="M153.7,53.1c0-1.8,2.5-3.5,4.5-3.5c1.3,0,2.3,0.7,2.3,1.7c0,1.7-2.5,3.5-4.6,3.5C154.7,54.8,153.7,54.1,153.7,53.1z"/>
</g>
<g>
	<path d="M149.5,54.7c0-0.8-0.4-1.5-1.1-2.2c-0.7,0.7-1.1,1.4-1.1,2.2H146v-1.4c0.8,0,1.5-0.3,2.2-1c-0.7-0.7-1.4-1.1-2.2-1.1v-1.4
		h1.4c0,0.8,0.4,1.5,1.1,2.2c0.7-0.7,1.1-1.4,1.1-2.2h1.4v1.4c-0.8,0-1.5,0.4-2.2,1.1c0.7,0.7,1.4,1,2,1h0.2v1.4H149.5z"/>
</g>
<rect x="164" y="60.4" width="0.5" height="16.4"/>
<g>
	<path d="M164.1,60.5c0-1.8,2.5-3.5,4.5-3.5c1.3,0,2.3,0.7,2.3,1.7c0,1.7-2.5,3.5-4.6,3.5C165.1,62.2,164.1,61.6,164.1,60.5z"/>
</g>
<rect x="174.4" y="55.5" width="0.5" height="19.8"/>
<g>
	<path d="M174.5,55.5c0-1.8,2.5-3.5,4.5-3.5c1.3,0,2.3,0.7,2.3,1.7c0,1.7-2.5,3.5-4.6,3.5C175.5,57.3,174.5,56.6,174.5,55.5z"/>
</g>
<rect x="183" y="51.8" width="10.5" height="0.8"/>
<rect x="184.8" y="53" width="0.5" height="20.8"/>
<g>
	<path d="M184.9,53.1c0-1.8,2.5-3.5,4.5-3.5c1.3,0,2.3,0.7,2.3,1.7c0,1.7-2.5,3.5-4.6,3.5C185.8,54.8,184.9,54.1,184.9,53.1z"/>
</g>
<rect x="194.8" y="51.8" width="10.5" height="0.8"/>
<rect x="194.8" y="46.9" width="10.5" height="0.8"/>
<rect x="196.6" y="48" width="0.5" height="23.9"/>
<g>
	<path d="M196.6,48.1c0-1.8,2.5-3.5,4.5-3.5c1.3,0,2.3,0.7,2.3,1.7c0,1.7-2.5,3.5-4.6,3.5C197.6,49.8,196.6,49.2,196.6,48.1z"/>
</g>
<rect x="223" y="81.6" width="10.5" height="0.8"/>
<rect x="231.3" y="62.3" width="0.5" height="21.4"/>
<g>
	<path d="M224.9,85.3c0-1.8,2.5-3.5,4.5-3.5c1.3,0,2.3,0.7,2.3,1.7c0,1.7-2.5,3.5-4.6,3.5C225.8,87,224.9,86.4,224.9,85.3z"/>
</g>
<rect x="240.5" y="81.6" width="10.5" height="0.8"/>
<rect x="248.8" y="60.1" width="0.5" height="21.1"/>
<g>
	<path d="M242.4,82.8c0-1.8,2.5-3.5,4.5-3.5c1.3,0,2.3,0.7,2.3,1.7c0,1.7-2.5,3.5-4.6,3.5C243.4,84.5,242.4,83.9,242.4,82.8z"/>
</g>
<g>
	<path d="M238.2,84.4c0-0.8-0.4-1.5-1.1-2.2c-0.7,0.7-1.1,1.4-1.1,2.2h-1.4V83c0.8,0,1.5-0.3,2.2-1c-0.7-0.7-1.4-1.1-2.2-1.1v-1.4
		h1.4c0,0.8,0.4,1.5,1.1,2.2c0.7-0.7,1.1-1.4,1.1-2.2h1.4v1.4c-0.8,0-1.5,0.4-2.2,1.1c0.7,0.7,1.4,1,2,1h0.2v1.4H238.2z"/>
</g>
<rect x="259" y="58.7" width="0.5" height="17.5"/>
<g>
	<path d="M252.6,77.9c0-1.8,2.5-3.5,4.5-3.5c1.3,0,2.3,0.7,2.3,1.7c0,1.7-2.5,3.5-4.6,3.5C253.6,79.6,252.6,78.9,252.6,77.9z"/>
</g>
<rect x="269.4" y="57.3" width="0.5" height="14"/>
<g>
	<path d="M263,72.9c0-1.8,2.5-3.5,4.5-3.5c1.3,0,2.3,0.7,2.3,1.7c0,1.7-2.5,3.5-4.6,3.5C264,74.6,263,74,263,72.9z"/>
</g>
<rect x="271.5" y="81.6" width="10.5" height="0.8"/>
<rect x="279.8" y="57.3" width="0.5" height="23.9"/>
<g>
	<path d="M273.4,82.8c0-1.8,2.5-3.5,4.5-3.5c1.3,0,2.3,0.7,2.3,1.7c0,1.7-2.5,3.5-4.6,3.5C274.4,84.5,273.4,83.9,273.4,82.8z"/>
</g>
<rect x="290.2" y="55.8" width="0.5" height="20.5"/>
<g>
	<path d="M283.8,77.9c0-1.8,2.5-3.5,4.5-3.5c1.3,0,2.3,0.7,2.3,1.7c0,1.7-2.5,3.5-4.6,3.5C284.7,79.6,283.8,78.9,283.8,77.9z"/>
</g>
<rect x="300.4" y="54.1" width="0.5" height="17.2"/>
<g>
	<path d="M294,72.9c0-1.8,2.5-3.5,4.5-3.5c1.3,0,2.3,0.7,2.3,1.7c0,1.7-2.5,3.5-4.6,3.5C295,74.6,294,74,294,72.9z"/>
</g>
<rect x="310.8" y="52.4" width="0.5" height="14"/>
<g>
	<path d="M304.4,67.9c0-1.8,2.5-3.5,4.5-3.5c1.3,0,2.3,0.7,2.3,1.7c0,1.7-2.5,3.5-4.6,3.5C305.4,69.7,304.4,69,304.4,67.9z"/>
</g>
<rect x="322.6" y="52.4" width="0.5" height="14"/>
<g>
	<path d="M316.2,67.9c0-1.8,2.5-3.5,4.5-3.5c1.3,0,2.3,0.7,2.3,1.7c0,1.7-2.5,3.5-4.6,3.5C317.1,69.7,316.2,69,316.2,67.9z"/>
</g>
<rect x="333" y="53.9" width="0.5" height="17.4"/>
<g>
	<path d="M326.6,72.9c0-1.8,2.5-3.5,4.5-3.5c1.3,0,2.3,0.7,2.3,1.7c0,1.7-2.5,3.5-4.6,3.5C327.5,74.6,326.6,74,326.6,72.9z"/>
</g>
<rect x="343.4" y="55.6" width="0.5" height="20.6"/>
<g>
	<path d="M336.9,77.9c0-1.8,2.5-3.5,4.5-3.5c1.3,0,2.3,0.7,2.3,1.7c0,1.7-2.5,3.5-4.6,3.5C337.9,79.6,336.9,78.9,336.9,77.9z"/>
</g>
<rect x="345.3" y="81.6" width="10.5" height="0.8"/>
<rect x="353.6" y="57.3" width="0.5" height="23.9"/>
<g>
	<path d="M347.2,82.8c0-1.8,2.5-3.5,4.5-3.5c1.3,0,2.3,0.7,2.3,1.7c0,1.7-2.5,3.5-4.6,3.5C348.1,84.5,347.2,83.9,347.2,82.8z"/>
</g>
<rect x="364" y="57.3" width="0.5" height="14"/>
<g>
	<path d="M357.6,72.9c0-1.8,2.5-3.5,4.5-3.5c1.3,0,2.3,0.7,2.3,1.7c0,1.7-2.5,3.5-4.6,3.5C358.5,74.6,357.6,74,357.6,72.9z"/>
</g>
<rect x="374.4" y="58.9" width="0.5" height="17.4"/>
<g>
	<path d="M367.9,77.9c0-1.8,2.5-3.5,4.5-3.5c1.3,0,2.3,0.7,2.3,1.7c0,1.7-2.5,3.5-4.6,3.5C368.9,79.6,367.9,78.9,367.9,77.9z"/>
</g>
<rect x="376.5" y="81.6" width="10.5" height="0.8"/>
<rect x="384.8" y="60.4" width="0.5" height="20.8"/>
<g>
	<path d="M378.3,82.8c0-1.8,2.5-3.5,4.5-3.5c1.3,0,2.3,0.7,2.3,1.7c0,1.7-2.5,3.5-4.6,3.5C379.3,84.5,378.3,83.9,378.3,82.8z"/>
</g>
<rect x="388.2" y="81.6" width="10.5" height="0.8"/>
<rect x="396.5" y="62.3" width="0.5" height="21.4"/>
<g>
	<path d="M390.1,85.3c0-1.8,2.5-3.5,4.5-3.5c1.3,0,2.3,0.7,2.3,1.7c0,1.7-2.5,3.5-4.6,3.5C391.1,87,390.1,86.4,390.1,85.3z"/>
</g>
<rect x="416.5" y="51.8" width="10.5" height="0.8"/>
<rect x="416.5" y="46.9" width="10.5" height="0.8"/>
<rect x="418.2" y="48" width="0.5" height="23.9"/>
<g>
	<path d="M418.3,48.1c0-1.8,2.5-3.5,4.5-3.5c1.3,0,2.3,0.7,2.3,1.7c0,1.7-2.5,3.5-4.6,3.5C419.3,49.8,418.3,49.2,418.3,48.1z"/>
</g>
<rect x="428.2" y="51.8" width="10.5" height="0.8"/>
<rect x="430" y="53" width="0.5" height="20.6"/>
<g>
	<path d="M430.1,53.1c0-1.8,2.5-3.5,4.5-3.5c1.3,0,2.3,0.7,2.3,1.7c0,1.7-2.5,3.5-4.6,3.5C431.1,54.8,430.1,54.1,430.1,53.1z"/>
</g>
<rect x="440.3" y="55.5" width="0.5" height="19.7"/>
<g>
	<path d="M440.3,55.5c0-1.8,2.5-3.5,4.5-3.5c1.3,0,2.3,0.7,2.3,1.7c0,1.7-2.5,3.5-4.6,3.5C441.3,57.3,440.3,56.6,440.3,55.5z"/>
</g>
<rect x="450.6" y="60.4" width="0.5" height="16.4"/>
<g>
	<path d="M450.7,60.5c0-1.8,2.5-3.5,4.5-3.5c1.3,0,2.3,0.7,2.3,1.7c0,1.7-2.5,3.5-4.6,3.5C451.7,62.2,450.7,61.6,450.7,60.5z"/>
</g>
<rect x="459.2" y="51.8" width="10.5" height="0.8"/>
<rect x="461" y="53" width="0.5" height="23.9"/>
<g>
	<path d="M461.1,53.1c0-1.8,2.5-3.5,4.5-3.5c1.3,0,2.3,0.7,2.3,1.7c0,1.7-2.5,3.5-4.6,3.5C462.1,54.8,461.1,54.1,461.1,53.1z"/>
</g>
<rect x="471.4" y="55.5" width="0.5" height="22.9"/>
<g>
	<path d="M471.5,55.5c0-1.8,2.5-3.5,4.5-3.5c1.3,0,2.3,0.7,2.3,1.7c0,1.7-2.5,3.5-4.6,3.5C472.5,57.3,471.5,56.6,471.5,55.5z"/>
</g>
<rect x="481.6" y="60.4" width="0.5" height="19.7"/>
<g>
	<path d="M481.7,60.5c0-1.8,2.5-3.5,4.5-3.5c1.3,0,2.3,0.7,2.3,1.7c0,1.7-2.5,3.5-4.6,3.5C482.7,62.2,481.7,61.6,481.7,60.5z"/>
</g>
<rect x="492" y="65.4" width="0.5" height="16.4"/>
<g>
	<path d="M492.1,65.5c0-1.8,2.5-3.5,4.5-3.5c1.3,0,2.3,0.7,2.3,1.7c0,1.7-2.5,3.5-4.6,3.5C493.1,67.2,492.1,66.5,492.1,65.5z"/>
</g>
<rect x="502.4" y="55.5" width="0.5" height="22.6"/>
<g>
	<path d="M502.5,55.5c0-1.8,2.5-3.5,4.5-3.5c1.3,0,2.3,0.7,2.3,1.7c0,1.7-2.5,3.5-4.6,3.5C503.5,57.3,502.5,56.6,502.5,55.5z"/>
</g>
<rect x="512.8" y="60.4" width="0.5" height="19.2"/>
<g>
	<path d="M512.9,60.5c0-1.8,2.5-3.5,4.5-3.5c1.3,0,2.3,0.7,2.3,1.7c0,1.7-2.5,3.5-4.6,3.5C513.9,62.2,512.9,61.6,512.9,60.5z"/>
</g>
<rect x="523" y="65.4" width="0.5" height="16"/>
<g>
	<path d="M523.1,65.5c0-1.8,2.5-3.5,4.5-3.5c1.3,0,2.3,0.7,2.3,1.7c0,1.7-2.5,3.5-4.6,3.5C524.1,67.2,523.1,66.5,523.1,65.5z"/>
</g>
<rect x="533.4" y="70.3" width="0.5" height="12.7"/>
<g>
	<path d="M533.5,70.4c0-1.8,2.5-3.5,4.5-3.5c1.3,0,2.3,0.7,2.3,1.7c0,1.7-2.5,3.5-4.6,3.5C534.5,72.1,533.5,71.5,533.5,70.4z"/>
</g>
</svg>
