<?xml version="1.0" encoding="utf-8"?>

<!--
	ScaleBook
	Copyright (c) Leland Jansen 2015. All rights reserved.
-->

<!DOCTYPE svg PUBLIC "-//W3C//DTD SVG 1.1//EN" "http://www.w3.org/Graphics/SVG/1.1/DTD/svg11.dtd">
<svg version="1.1" id="Layer_1" xmlns="http://www.w3.org/2000/svg" xmlns:xlink="http://www.w3.org/1999/xlink" x="0px" y="0px"
	 viewBox="0 0 552.9 88.7" enable-background="new 0 0 552.9 88.7" xml:space="preserve">
<rect x="8.4" y="12.5" width="0.8" height="67"/>
<g>
	<path d="M7.4,13.2c-1.9,1.1-3.6,5.8-3.6,9.4c0,2.3,1.4,9.9,1.4,12.3c0,5-1.5,8.6-4.6,11.1c3,2.4,4.6,6.1,4.6,11.1
		c0,2.3-1.4,9.9-1.4,12.3c0,3.8,1.7,8.4,3.6,9.5v0.7c-3.5-2.3-5.8-8.2-5.8-13.1c0-2.1,1.7-9.4,1.7-11.5c0-3.8-1-6.6-2.9-8.2
		C0.1,46.4,0,46.2,0,46c0-0.2,0.1-0.4,0.5-0.7c1.9-1.7,2.9-4.2,2.9-7.6c0-2.1-1.7-10-1.7-12.2c0-5.2,2.1-10.4,5.8-13.1V13.2z"/>
</g>
<rect x="547.8" y="12.5" width="0.8" height="67"/>
<rect x="550.4" y="12.5" width="2.5" height="67"/>
<rect x="8.5" y="32.1" width="544.4" height="0.5"/>
<rect x="8.5" y="27.2" width="544.4" height="0.5"/>
<rect x="8.5" y="22.2" width="544.4" height="0.5"/>
<rect x="8.5" y="17.2" width="544.4" height="0.5"/>
<rect x="8.5" y="12.3" width="544.4" height="0.5"/>
<g>
	<path d="M20.3,32.2c-4.2,0-8.1-3.1-8.1-6.9c0-3.2,2.3-6.7,6.8-10.5c-0.3-1.2-0.4-2.4-0.4-3.6c0-3.5,1.2-6.8,3.2-8.5
		c1.8,2.5,2.7,4.9,2.7,7.1c0,2.9-1.3,5.6-4.3,8.1l0.9,4.2c0.5,0,0.8-0.1,0.8-0.1c2.6,0,4.8,2,4.8,4.7c0,1.9-1.4,3.7-3.6,4.8
		c0-0.1,0.9,3.8,0.9,4.3c0,2.5-2.3,4.2-4.9,4.2c-2,0-3.6-1.3-3.6-3.4c0-1.4,1-2.6,2.4-2.6c1.3,0,2.3,1.3,2.3,2.5
		c0,1.4-1.2,2.3-2.7,2.5c0.6,0.3,1.2,0.5,1.9,0.5c2.1,0,4.1-1.6,4.1-3.6c0-0.2,0-0.4-0.1-0.6l-0.8-3.7
		C21.9,32.1,21.2,32.2,20.3,32.2z M18.1,27c0,1,0.5,1.9,1.6,2.5c-1.8-0.3-3-1.4-3-3.1c0-2,1.7-3.7,3.8-4.1l-0.8-4
		C16,21.1,14,23.8,14,26.4c0,2.9,2.8,5.3,6,5.3c0.9,0,1.7-0.2,2.4-0.5L21,24.4C19.4,24.6,18.1,25.6,18.1,27z M22.1,5.6
		c-1.6,0-2.9,3.7-2.9,7c0,0.7,0,1.3,0.2,1.9c2.7-2.4,4-4.5,4-6.5c0-0.9-0.3-1.7-1-2.4C22.4,5.7,22.3,5.6,22.1,5.6z M24.9,27.5
		c0-1.6-1.2-3.3-2.9-3.3c-0.1,0-0.2,0-0.5,0l1.4,6.6C24.2,30,24.9,28.8,24.9,27.5z"/>
</g>
<g>
	<path d="M29.5,14.1h0.6L30,20.4c0.4-0.7,1-1,1.8-1c1.2,0,2.2,0.8,2.2,1.9c0,0.8-0.5,1.8-1.7,2.7l-2.8,2.1V14.1z M30.1,21
		C30,21.8,30,22.4,30,23c0,1,0,1.6,0.1,2c1-0.7,2.4-2.6,2.4-3.7c0-0.6-0.5-1.1-1.1-1.1C30.8,20.2,30.4,20.5,30.1,21z"/>
</g>
<g>
	<path d="M35.1,6.7h0.6l-0.1,6.2c0.4-0.7,1-1,1.8-1c1.2,0,2.2,0.8,2.2,1.9c0,0.8-0.5,1.8-1.7,2.7l-2.8,2.1V6.7z M35.7,13.6
		c-0.1,0.8-0.1,1.4-0.1,1.9c0,1,0,1.6,0.1,2c1-0.7,2.4-2.6,2.4-3.7c0-0.6-0.5-1.1-1.1-1.1C36.4,12.8,36,13,35.7,13.6z"/>
</g>
<g>
	<path d="M40.7,16.6h0.6l-0.1,6.2c0.4-0.7,1-1,1.8-1c1.2,0,2.2,0.8,2.2,1.9c0,0.8-0.5,1.8-1.7,2.7l-2.8,2.1V16.6z M41.3,23.5
		c-0.1,0.8-0.1,1.4-0.1,1.9c0,1,0,1.6,0.1,2c1-0.7,2.4-2.6,2.4-3.7c0-0.6-0.5-1.1-1.1-1.1C42,22.7,41.6,23,41.3,23.5z"/>
</g>
<g>
	<path d="M46.3,9.2h0.6l-0.1,6.2c0.4-0.7,1-1,1.8-1c1.2,0,2.2,0.8,2.2,1.9c0,0.8-0.5,1.8-1.7,2.7l-2.8,2.1V9.2z M46.9,16.1
		c-0.1,0.8-0.1,1.4-0.1,1.9c0,1,0,1.6,0.1,2c1-0.7,2.4-2.6,2.4-3.7c0-0.6-0.5-1.1-1.1-1.1C47.6,15.2,47.2,15.5,46.9,16.1z"/>
</g>
<g>
	<path d="M51.9,19.1h0.6l-0.1,6.2c0.4-0.7,1-1,1.8-1c1.2,0,2.2,0.8,2.2,1.9c0,0.8-0.5,1.8-1.7,2.7L51.9,31V19.1z M52.4,26
		c-0.1,0.8-0.1,1.4-0.1,1.9c0,1,0,1.6,0.1,2c1-0.7,2.4-2.6,2.4-3.7c0-0.6-0.5-1.1-1.1-1.1C53.2,25.2,52.7,25.4,52.4,26z"/>
</g>
<g>
	<path d="M57.4,11.6h0.6l-0.1,6.2c0.4-0.7,1-1,1.8-1c1.2,0,2.2,0.8,2.2,1.9c0,0.8-0.5,1.8-1.7,2.7l-2.8,2.1V11.6z M58,18.6
		c-0.1,0.8-0.1,1.4-0.1,1.9c0,1,0,1.6,0.1,2c1-0.7,2.4-2.6,2.4-3.7c0-0.6-0.5-1.1-1.1-1.1C58.7,17.7,58.3,18,58,18.6z"/>
</g>
<polygon fill-rule="evenodd" clip-rule="evenodd" points="77.1,17.5 108.6,12.5 108.6,10 77.1,15 "/>
<polygon fill-rule="evenodd" clip-rule="evenodd" points="77.1,13.8 108.6,8.8 108.6,6.3 77.1,11.3 "/>
<polygon fill-rule="evenodd" clip-rule="evenodd" points="119,13.8 156,8.8 156,6.3 119,11.3 "/>
<polygon fill-rule="evenodd" clip-rule="evenodd" points="119,10 156,5.1 156,2.6 119,7.6 "/>
<polygon fill-rule="evenodd" clip-rule="evenodd" points="159.9,34.8 194,29.9 194,27.4 159.9,32.4 "/>
<polygon fill-rule="evenodd" clip-rule="evenodd" points="159.9,38.6 194,33.6 194,31.1 159.9,36.1 "/>
<polygon fill-rule="evenodd" clip-rule="evenodd" points="222.2,33.6 257.9,28.6 257.9,26.2 222.2,31.1 "/>
<polygon fill-rule="evenodd" clip-rule="evenodd" points="222.2,37.3 257.9,32.4 257.9,29.9 222.2,34.8 "/>
<polygon fill-rule="evenodd" clip-rule="evenodd" points="268.4,28.6 301.1,23.7 301.1,21.2 268.4,26.2 "/>
<polygon fill-rule="evenodd" clip-rule="evenodd" points="268.4,32.4 301.1,27.4 301.1,24.9 268.4,29.9 "/>
<polygon fill-rule="evenodd" clip-rule="evenodd" points="312.9,23.7 345.6,28.6 345.6,26.2 312.9,21.2 "/>
<polygon fill-rule="evenodd" clip-rule="evenodd" points="312.9,27.4 345.6,32.4 345.6,29.9 312.9,24.9 "/>
<polygon fill-rule="evenodd" clip-rule="evenodd" points="356.2,28.6 387.6,33.6 387.6,31.1 356.2,26.2 "/>
<polygon fill-rule="evenodd" clip-rule="evenodd" points="356.2,32.4 387.6,37.3 387.6,34.8 356.2,29.9 "/>
<polygon fill-rule="evenodd" clip-rule="evenodd" points="415.8,29.9 449.8,34.8 449.8,32.4 415.8,27.4 "/>
<polygon fill-rule="evenodd" clip-rule="evenodd" points="415.8,33.6 449.8,38.6 449.8,36.1 415.8,31.1 "/>
<polygon fill-rule="evenodd" clip-rule="evenodd" points="466.8,8.8 499.5,13.8 499.5,11.3 466.8,6.3 "/>
<polygon fill-rule="evenodd" clip-rule="evenodd" points="466.8,5.1 499.5,10 499.5,7.6 466.8,2.6 "/>
<polygon fill-rule="evenodd" clip-rule="evenodd" points="510.1,12.5 541.4,17.5 541.4,15 510.1,10 "/>
<polygon fill-rule="evenodd" clip-rule="evenodd" points="510.1,8.8 541.4,13.8 541.4,11.3 510.1,6.3 "/>
<rect x="8.5" y="79.3" width="544.4" height="0.5"/>
<rect x="8.5" y="74.3" width="544.4" height="0.5"/>
<rect x="8.5" y="69.3" width="544.4" height="0.5"/>
<rect x="8.5" y="64.4" width="544.4" height="0.5"/>
<rect x="8.5" y="59.4" width="544.4" height="0.5"/>
<g>
	<path d="M15.7,73.8c2.9-2.6,4.7-6.1,4.7-9.2c0-2.5-1.4-4.4-3.7-4.4c-1.6,0-3.4,1.3-3.4,2.7c0,0.2,0,0.3,0.1,0.3
		c-0.1,0,0.6-0.6,1.4-0.6c0.9,0,1.5,0.8,1.5,1.7c0,1.2-0.9,2.2-2.1,2.2c-1.2,0-2.1-1.3-2.1-2.8c0-2.3,2.3-4.1,4.8-4.1
		c4.7,0,5.9,3.2,5.9,5.8c0,1.6-0.4,2.9-2,5.3C19.1,73.8,14.6,76,13,76c-0.4,0-0.6-0.2-0.6-0.5C13.8,75.1,14.9,74.5,15.7,73.8z
		 M25.7,61.1c0.6,0,1,0.4,1,1c0,0.6-0.4,1-1,1s-1-0.4-1-1C24.7,61.6,25.1,61.1,25.7,61.1z M25.7,66.1c0.6,0,1,0.4,1,1
		c0,0.6-0.4,1-1,1s-1-0.4-1-1C24.7,66.5,25.1,66.1,25.7,66.1z"/>
</g>
<g>
	<path d="M29.5,66.2h0.6L30,72.5c0.4-0.7,1-1,1.8-1c1.2,0,2.2,0.8,2.2,1.9c0,0.8-0.5,1.8-1.7,2.7l-2.8,2.1V66.2z M30.1,73.1
		C30,73.9,30,74.5,30,75.1c0,1,0,1.6,0.1,2c1-0.7,2.4-2.6,2.4-3.7c0-0.6-0.5-1.1-1.1-1.1C30.8,72.3,30.4,72.6,30.1,73.1z"/>
</g>
<g>
	<path d="M35.1,58.8h0.6L35.6,65c0.4-0.7,1-1,1.8-1c1.2,0,2.2,0.8,2.2,1.9c0,0.8-0.5,1.8-1.7,2.7l-2.8,2.1V58.8z M35.7,65.7
		c-0.1,0.8-0.1,1.4-0.1,1.9c0,1,0,1.6,0.1,2c1-0.7,2.4-2.6,2.4-3.7c0-0.6-0.5-1.1-1.1-1.1C36.4,64.8,36,65.1,35.7,65.7z"/>
</g>
<g>
	<path d="M40.7,68.7h0.6l-0.1,6.2c0.4-0.7,1-1,1.8-1c1.2,0,2.2,0.8,2.2,1.9c0,0.8-0.5,1.8-1.7,2.7l-2.8,2.1V68.7z M41.3,75.6
		c-0.1,0.8-0.1,1.4-0.1,1.9c0,1,0,1.6,0.1,2c1-0.7,2.4-2.6,2.4-3.7c0-0.6-0.5-1.1-1.1-1.1C42,74.8,41.6,75,41.3,75.6z"/>
</g>
<g>
	<path d="M46.3,61.3h0.6l-0.1,6.2c0.4-0.7,1-1,1.8-1c1.2,0,2.2,0.8,2.2,1.9c0,0.8-0.5,1.8-1.7,2.7l-2.8,2.1V61.3z M46.9,68.2
		c-0.1,0.8-0.1,1.4-0.1,1.9c0,1,0,1.6,0.1,2c1-0.7,2.4-2.6,2.4-3.7c0-0.6-0.5-1.1-1.1-1.1C47.6,67.3,47.2,67.6,46.9,68.2z"/>
</g>
<g>
	<path d="M51.9,71.2h0.6l-0.1,6.2c0.4-0.7,1-1,1.8-1c1.2,0,2.2,0.8,2.2,1.9c0,0.8-0.5,1.8-1.7,2.7l-2.8,2.1V71.2z M52.4,78.1
		c-0.1,0.8-0.1,1.4-0.1,1.9c0,1,0,1.6,0.1,2c1-0.7,2.4-2.6,2.4-3.7c0-0.6-0.5-1.1-1.1-1.1C53.2,77.2,52.7,77.5,52.4,78.1z"/>
</g>
<g>
	<path d="M57.4,63.7h0.6L57.9,70c0.4-0.7,1-1,1.8-1C61,69,62,69.8,62,71c0,0.8-0.5,1.8-1.7,2.7l-2.8,2.1V63.7z M58,70.6
		c-0.1,0.8-0.1,1.4-0.1,1.9c0,1,0,1.6,0.1,2c1-0.7,2.4-2.6,2.4-3.7c0-0.6-0.5-1.1-1.1-1.1C58.7,69.8,58.3,70.1,58,70.6z"/>
</g>
<polygon fill-rule="evenodd" clip-rule="evenodd" points="70.6,80.7 102.1,75.8 102.1,73.3 70.6,78.2 "/>
<polygon fill-rule="evenodd" clip-rule="evenodd" points="70.6,84.4 102.1,79.5 102.1,77 70.6,82 "/>
<polygon fill-rule="evenodd" clip-rule="evenodd" points="112.5,75.8 149.5,70.8 149.5,68.3 112.5,73.3 "/>
<polygon fill-rule="evenodd" clip-rule="evenodd" points="112.5,79.5 149.5,74.5 149.5,72 112.5,77 "/>
<g>
	<path d="M214.2,78.1c-3.2,0-6.1-2.3-6.1-5.1c0-2.4,1.7-5,5.1-7.9c-0.2-0.9-0.3-1.8-0.3-2.7c0-2.6,0.9-5.1,2.4-6.3
		c1.4,1.9,2,3.7,2,5.3c0,2.2-1,4.2-3.2,6.1l0.7,3.1c0.4,0,0.6,0,0.6,0c2,0,3.6,1.5,3.6,3.5c0,1.4-1.1,2.8-2.7,3.6
		c0-0.1,0.6,2.8,0.6,3.3c0,1.9-1.7,3.2-3.7,3.2c-1.5,0-2.7-1-2.7-2.5c0-1.1,0.7-1.9,1.8-1.9c1,0,1.7,1,1.7,1.9c0,1-0.9,1.7-2,1.8
		c0.4,0.2,0.9,0.3,1.4,0.3c1.6,0,3.1-1.2,3.1-2.7c0-0.1,0-0.3,0-0.5l-0.6-2.8C215.4,78,214.9,78.1,214.2,78.1z M212.6,74.2
		c0,0.8,0.4,1.4,1.2,1.9c-1.3-0.2-2.2-1.1-2.2-2.3c0-1.5,1.3-2.8,2.9-3.1l-0.6-3c-2.8,2.1-4.3,4.1-4.3,6.1c0,2.2,2.1,4,4.5,4
		c0.7,0,1.3-0.1,1.8-0.4l-1.1-5.1C213.5,72.4,212.6,73.2,212.6,74.2z M215.6,58.2c-1.2,0-2.2,2.8-2.2,5.3c0,0.5,0,1,0.1,1.4
		c2-1.8,3-3.4,3-4.9c0-0.7-0.3-1.3-0.7-1.8C215.8,58.2,215.7,58.2,215.6,58.2z M217.7,74.6c0-1.2-0.9-2.4-2.2-2.4c0,0-0.2,0-0.4,0
		l1.1,5C217.1,76.5,217.7,75.6,217.7,74.6z"/>
</g>
<polygon fill-rule="evenodd" clip-rule="evenodd" points="159.9,70.8 194,65.8 194,63.4 159.9,68.3 "/>
<polygon fill-rule="evenodd" clip-rule="evenodd" points="159.9,74.5 194,69.6 194,67.1 159.9,72 "/>
<polygon fill-rule="evenodd" clip-rule="evenodd" points="228.7,65.8 264.4,60.9 264.4,58.4 228.7,63.4 "/>
<polygon fill-rule="evenodd" clip-rule="evenodd" points="228.7,62.1 264.4,57.2 264.4,54.7 228.7,59.6 "/>
<polygon fill-rule="evenodd" clip-rule="evenodd" points="274.9,64.6 307.6,59.6 307.6,57.2 274.9,62.1 "/>
<polygon fill-rule="evenodd" clip-rule="evenodd" points="274.9,60.9 307.6,55.9 307.6,53.4 274.9,58.4 "/>
<polygon fill-rule="evenodd" clip-rule="evenodd" points="319.4,59.6 352.1,64.6 352.1,62.1 319.4,57.2 "/>
<polygon fill-rule="evenodd" clip-rule="evenodd" points="319.4,55.9 352.1,60.9 352.1,58.4 319.4,53.4 "/>
<g>
	<path d="M404.4,71.5c2.2-2,3.6-4.6,3.6-6.9c0-1.9-1.1-3.3-2.8-3.3c-1.2,0-2.5,1-2.5,2.1c0,0.2,0,0.2,0.1,0.2c0,0,0.4-0.5,1-0.5
		c0.7,0,1.2,0.6,1.2,1.3c0,0.9-0.6,1.7-1.6,1.7s-1.5-1-1.5-2.1c0-1.8,1.7-3.1,3.6-3.1c3.5,0,4.4,2.4,4.4,4.4c0,1.2-0.3,2.2-1.5,4
		c-1.4,2.3-4.8,4-6,4c-0.3,0-0.5-0.1-0.5-0.3C403,72.5,403.8,72,404.4,71.5z M411.8,62c0.4,0,0.7,0.3,0.7,0.7c0,0.4-0.3,0.7-0.7,0.7
		c-0.4,0-0.7-0.3-0.7-0.7C411.1,62.3,411.4,62,411.8,62z M411.8,65.7c0.4,0,0.7,0.3,0.7,0.7s-0.3,0.7-0.7,0.7
		c-0.4,0-0.7-0.3-0.7-0.7S411.4,65.7,411.8,65.7z"/>
</g>
<polygon fill-rule="evenodd" clip-rule="evenodd" points="362.7,60.9 394.1,65.8 394.1,63.4 362.7,58.4 "/>
<polygon fill-rule="evenodd" clip-rule="evenodd" points="362.7,57.2 394.1,62.1 394.1,59.6 362.7,54.7 "/>
<polygon fill-rule="evenodd" clip-rule="evenodd" points="415.8,65.8 449.8,70.8 449.8,68.3 415.8,63.4 "/>
<polygon fill-rule="evenodd" clip-rule="evenodd" points="415.8,69.6 449.8,74.5 449.8,72 415.8,67.1 "/>
<polygon fill-rule="evenodd" clip-rule="evenodd" points="460.3,70.8 493,75.8 493,73.3 460.3,68.3 "/>
<polygon fill-rule="evenodd" clip-rule="evenodd" points="460.3,74.5 493,79.5 493,77 460.3,72 "/>
<polygon fill-rule="evenodd" clip-rule="evenodd" points="503.6,75.8 534.9,80.7 534.9,78.2 503.6,73.3 "/>
<polygon fill-rule="evenodd" clip-rule="evenodd" points="503.6,79.5 534.9,84.4 534.9,82 503.6,77 "/>
<rect x="76.9" y="11.4" width="0.5" height="22.6"/>
<g>
	<path d="M70.5,35.7c0-1.8,2.5-3.5,4.5-3.5c1.3,0,2.3,0.7,2.3,1.7c0,1.7-2.5,3.5-4.6,3.5C71.4,37.4,70.5,36.8,70.5,35.7z"/>
</g>
<g>
	<path d="M68.5,41.6v-4l-3,1.1V28H66v4l3-1.1v10.7H68.5z M66,36.9l2.5-0.9v-3.3L66,33.6V36.9z"/>
</g>
<rect x="87.4" y="9.9" width="0.5" height="19.2"/>
<g>
	<path d="M81,30.7c0-1.8,2.5-3.5,4.5-3.5c1.3,0,2.3,0.7,2.3,1.7c0,1.7-2.5,3.5-4.6,3.5C82,32.5,81,31.8,81,30.7z"/>
</g>
<rect x="97.8" y="8.2" width="0.5" height="16"/>
<g>
	<path d="M91.4,25.8c0-1.8,2.5-3.5,4.5-3.5c1.3,0,2.3,0.7,2.3,1.7c0,1.7-2.5,3.5-4.6,3.5C92.4,27.5,91.4,26.9,91.4,25.8z"/>
</g>
<rect x="108.4" y="6.5" width="0.5" height="12.7"/>
<g>
	<path d="M101.9,20.8c0-1.8,2.5-3.5,4.5-3.5c1.3,0,2.3,0.7,2.3,1.7c0,1.7-2.5,3.5-4.6,3.5C102.9,22.5,101.9,21.9,101.9,20.8z"/>
</g>
<rect x="118.8" y="7.7" width="0.5" height="21.4"/>
<g>
	<path d="M112.3,30.7c0-1.8,2.5-3.5,4.5-3.5c1.3,0,2.3,0.7,2.3,1.7c0,1.7-2.5,3.5-4.6,3.5C113.3,32.5,112.3,31.8,112.3,30.7z"/>
</g>
<rect x="129.3" y="6.3" width="0.5" height="17.8"/>
<g>
	<path d="M122.9,25.8c0-1.8,2.5-3.5,4.5-3.5c1.3,0,2.3,0.7,2.3,1.7c0,1.7-2.5,3.5-4.6,3.5C123.8,27.5,122.9,26.9,122.9,25.8z"/>
</g>
<rect x="139.8" y="4.9" width="0.5" height="14.3"/>
<g>
	<path d="M133.4,20.8c0-1.8,2.5-3.5,4.5-3.5c1.3,0,2.3,0.7,2.3,1.7c0,1.7-2.5,3.5-4.6,3.5C134.4,22.5,133.4,21.9,133.4,20.8z"/>
</g>
<rect x="155.8" y="2.8" width="0.5" height="14"/>
<g>
	<path d="M149.4,18.3c0-1.8,2.5-3.5,4.5-3.5c1.3,0,2.3,0.7,2.3,1.7c0,1.7-2.5,3.5-4.6,3.5C150.3,20.1,149.4,19.4,149.4,18.3z"/>
</g>
<g>
	<path d="M147.4,24.2v-4l-3,1.1V10.7h0.5v4l3-1.1v10.7H147.4z M144.9,19.6l2.5-0.9v-3.3l-2.5,0.9V19.6z"/>
</g>
<rect x="159.7" y="25.7" width="0.5" height="12.7"/>
<g>
	<path d="M159.8,25.8c0-1.8,2.5-3.5,4.5-3.5c1.3,0,2.3,0.7,2.3,1.7c0,1.7-2.5,3.5-4.6,3.5C160.7,27.5,159.8,26.9,159.8,25.8z"/>
</g>
<rect x="170.2" y="20.7" width="0.5" height="16.3"/>
<g>
	<path d="M170.3,20.8c0-1.8,2.5-3.5,4.5-3.5c1.3,0,2.3,0.7,2.3,1.7c0,1.7-2.5,3.5-4.6,3.5C171.3,22.5,170.3,21.9,170.3,20.8z"/>
</g>
<rect x="182" y="18.3" width="0.5" height="17.1"/>
<g>
	<path d="M182.1,18.3c0-1.8,2.5-3.5,4.5-3.5c1.3,0,2.3,0.7,2.3,1.7c0,1.7-2.5,3.5-4.6,3.5C183,20.1,182.1,19.4,182.1,18.3z"/>
</g>
<rect x="193.8" y="13.3" width="0.5" height="20.2"/>
<g>
	<path d="M193.9,13.4c0-1.8,2.5-3.5,4.5-3.5c1.3,0,2.3,0.7,2.3,1.7c0,1.7-2.5,3.5-4.6,3.5C194.8,15.1,193.9,14.5,193.9,13.4z"/>
</g>
<rect x="222" y="20.7" width="0.5" height="16.4"/>
<g>
	<path d="M222.1,20.8c0-1.8,2.5-3.5,4.5-3.5c1.3,0,2.3,0.7,2.3,1.7c0,1.7-2.5,3.5-4.6,3.5C223,22.5,222.1,21.9,222.1,20.8z"/>
</g>
<rect x="236.7" y="18.3" width="0.5" height="16.9"/>
<g>
	<path d="M236.8,18.3c0-1.8,2.5-3.5,4.5-3.5c1.3,0,2.3,0.7,2.3,1.7c0,1.7-2.5,3.5-4.6,3.5C237.8,20.1,236.8,19.4,236.8,18.3z"/>
</g>
<rect x="247.1" y="13.3" width="0.5" height="20.5"/>
<g>
	<path d="M247.2,13.4c0-1.8,2.5-3.5,4.5-3.5c1.3,0,2.3,0.7,2.3,1.7c0,1.7-2.5,3.5-4.6,3.5C248.2,15.1,247.2,14.5,247.2,13.4z"/>
</g>
<rect x="255.9" y="7.2" width="10.5" height="0.8"/>
<rect x="257.6" y="8.3" width="0.5" height="23.9"/>
<g>
	<path d="M257.7,8.4c0-1.8,2.5-3.5,4.5-3.5c1.3,0,2.3,0.7,2.3,1.7c0,1.7-2.5,3.5-4.6,3.5C258.7,10.1,257.7,9.5,257.7,8.4z"/>
</g>
<rect x="268.2" y="18.3" width="0.5" height="14"/>
<g>
	<path d="M268.3,18.3c0-1.8,2.5-3.5,4.5-3.5c1.3,0,2.3,0.7,2.3,1.7c0,1.7-2.5,3.5-4.6,3.5C269.2,20.1,268.3,19.4,268.3,18.3z"/>
</g>
<rect x="278.6" y="13.3" width="0.5" height="17.4"/>
<g>
	<path d="M278.7,13.4c0-1.8,2.5-3.5,4.5-3.5c1.3,0,2.3,0.7,2.3,1.7c0,1.7-2.5,3.5-4.6,3.5C279.6,15.1,278.7,14.5,278.7,13.4z"/>
</g>
<rect x="287.3" y="7.2" width="10.5" height="0.8"/>
<rect x="289.1" y="8.3" width="0.5" height="20.8"/>
<g>
	<path d="M289.2,8.4c0-1.8,2.5-3.5,4.5-3.5c1.3,0,2.3,0.7,2.3,1.7c0,1.7-2.5,3.5-4.6,3.5C290.2,10.1,289.2,9.5,289.2,8.4z"/>
</g>
<rect x="299.1" y="7.2" width="10.5" height="0.8"/>
<rect x="299.1" y="2.2" width="10.5" height="0.8"/>
<rect x="300.9" y="3.4" width="0.5" height="23.9"/>
<g>
	<path d="M301,3.5c0-1.8,2.5-3.5,4.5-3.5c1.3,0,2.3,0.7,2.3,1.7c0,1.7-2.5,3.5-4.6,3.5C301.9,5.2,301,4.5,301,3.5z"/>
</g>
<rect x="310.9" y="7.2" width="10.5" height="0.8"/>
<rect x="310.9" y="2.2" width="10.5" height="0.8"/>
<rect x="312.7" y="3.4" width="0.5" height="23.9"/>
<g>
	<path d="M312.8,3.5c0-1.8,2.5-3.5,4.5-3.5c1.3,0,2.3,0.7,2.3,1.7c0,1.7-2.5,3.5-4.6,3.5C313.7,5.2,312.8,4.5,312.8,3.5z"/>
</g>
<rect x="322.7" y="7.2" width="10.5" height="0.8"/>
<rect x="324.5" y="8.3" width="0.5" height="20.6"/>
<g>
	<path d="M324.5,8.4c0-1.8,2.5-3.5,4.5-3.5c1.3,0,2.3,0.7,2.3,1.7c0,1.7-2.5,3.5-4.6,3.5C325.5,10.1,324.5,9.5,324.5,8.4z"/>
</g>
<rect x="335" y="13.3" width="0.5" height="17.2"/>
<g>
	<path d="M335.1,13.4c0-1.8,2.5-3.5,4.5-3.5c1.3,0,2.3,0.7,2.3,1.7c0,1.7-2.5,3.5-4.6,3.5C336,15.1,335.1,14.5,335.1,13.4z"/>
</g>
<rect x="345.4" y="18.3" width="0.5" height="14"/>
<g>
	<path d="M345.5,18.3c0-1.8,2.5-3.5,4.5-3.5c1.3,0,2.3,0.7,2.3,1.7c0,1.7-2.5,3.5-4.6,3.5C346.4,20.1,345.5,19.4,345.5,18.3z"/>
</g>
<rect x="354.1" y="7.2" width="10.5" height="0.8"/>
<rect x="355.9" y="8.3" width="0.5" height="23.9"/>
<g>
	<path d="M356,8.4c0-1.8,2.5-3.5,4.5-3.5c1.3,0,2.3,0.7,2.3,1.7c0,1.7-2.5,3.5-4.6,3.5C357,10.1,356,9.5,356,8.4z"/>
</g>
<rect x="366.3" y="13.3" width="0.5" height="20.5"/>
<g>
	<path d="M366.4,13.4c0-1.8,2.5-3.5,4.5-3.5c1.3,0,2.3,0.7,2.3,1.7c0,1.7-2.5,3.5-4.6,3.5C367.4,15.1,366.4,14.5,366.4,13.4z"/>
</g>
<rect x="376.9" y="18.3" width="0.5" height="17.2"/>
<g>
	<path d="M376.9,18.3c0-1.8,2.5-3.5,4.5-3.5c1.3,0,2.3,0.7,2.3,1.7c0,1.7-2.5,3.5-4.6,3.5C377.9,20.1,376.9,19.4,376.9,18.3z"/>
</g>
<rect x="387.4" y="20.7" width="0.5" height="16.4"/>
<g>
	<path d="M387.5,20.8c0-1.8,2.5-3.5,4.5-3.5c1.3,0,2.3,0.7,2.3,1.7c0,1.7-2.5,3.5-4.6,3.5C388.4,22.5,387.5,21.9,387.5,20.8z"/>
</g>
<rect x="415.6" y="13.3" width="0.5" height="20.2"/>
<g>
	<path d="M415.7,13.4c0-1.8,2.5-3.5,4.5-3.5c1.3,0,2.3,0.7,2.3,1.7c0,1.7-2.5,3.5-4.6,3.5C416.7,15.1,415.7,14.5,415.7,13.4z"/>
</g>
<rect x="427.4" y="18.3" width="0.5" height="16.9"/>
<g>
	<path d="M427.5,18.3c0-1.8,2.5-3.5,4.5-3.5c1.3,0,2.3,0.7,2.3,1.7c0,1.7-2.5,3.5-4.6,3.5C428.4,20.1,427.5,19.4,427.5,18.3z"/>
</g>
<rect x="439.2" y="20.7" width="0.5" height="16.1"/>
<g>
	<path d="M439.2,20.8c0-1.8,2.5-3.5,4.5-3.5c1.3,0,2.3,0.7,2.3,1.7c0,1.7-2.5,3.5-4.6,3.5C440.2,22.5,439.2,21.9,439.2,20.8z"/>
</g>
<rect x="449.6" y="25.7" width="0.5" height="12.7"/>
<g>
	<path d="M449.6,25.8c0-1.8,2.5-3.5,4.5-3.5c1.3,0,2.3,0.7,2.3,1.7c0,1.7-2.5,3.5-4.6,3.5C450.6,27.5,449.6,26.9,449.6,25.8z"/>
</g>
<rect x="466.6" y="2.8" width="0.5" height="14"/>
<g>
	<path d="M460.2,18.3c0-1.8,2.5-3.5,4.5-3.5c1.3,0,2.3,0.7,2.3,1.7c0,1.7-2.5,3.5-4.6,3.5C461.1,20.1,460.2,19.4,460.2,18.3z"/>
</g>
<rect x="478.4" y="4.5" width="0.5" height="14.7"/>
<g>
	<path d="M472,20.8c0-1.8,2.5-3.5,4.5-3.5c1.3,0,2.3,0.7,2.3,1.7c0,1.7-2.5,3.5-4.6,3.5C472.9,22.5,472,21.9,472,20.8z"/>
</g>
<rect x="488.8" y="6" width="0.5" height="18.1"/>
<g>
	<path d="M482.3,25.8c0-1.8,2.5-3.5,4.5-3.5c1.3,0,2.3,0.7,2.3,1.7c0,1.7-2.5,3.5-4.6,3.5C483.3,27.5,482.3,26.9,482.3,25.8z"/>
</g>
<rect x="499.3" y="7.7" width="0.5" height="21.4"/>
<g>
	<path d="M492.9,30.7c0-1.8,2.5-3.5,4.5-3.5c1.3,0,2.3,0.7,2.3,1.7c0,1.7-2.5,3.5-4.6,3.5C493.9,32.5,492.9,31.8,492.9,30.7z"/>
</g>
<rect x="509.9" y="6.5" width="0.5" height="12.7"/>
<g>
	<path d="M503.4,20.8c0-1.8,2.5-3.5,4.5-3.5c1.3,0,2.3,0.7,2.3,1.7c0,1.7-2.5,3.5-4.6,3.5C504.4,22.5,503.4,21.9,503.4,20.8z"/>
</g>
<rect x="520.2" y="8" width="0.5" height="16.1"/>
<g>
	<path d="M513.8,25.8c0-1.8,2.5-3.5,4.5-3.5c1.3,0,2.3,0.7,2.3,1.7c0,1.7-2.5,3.5-4.6,3.5C514.8,27.5,513.8,26.9,513.8,25.8z"/>
</g>
<rect x="530.8" y="9.7" width="0.5" height="19.4"/>
<g>
	<path d="M524.4,30.7c0-1.8,2.5-3.5,4.5-3.5c1.3,0,2.3,0.7,2.3,1.7c0,1.7-2.5,3.5-4.6,3.5C525.3,32.5,524.4,31.8,524.4,30.7z"/>
</g>
<rect x="541.2" y="11.4" width="0.5" height="22.6"/>
<g>
	<path d="M534.7,35.7c0-1.8,2.5-3.5,4.5-3.5c1.3,0,2.3,0.7,2.3,1.7c0,1.7-2.5,3.5-4.6,3.5C535.7,37.4,534.7,36.8,534.7,35.7z"/>
</g>
<rect x="70.4" y="70.3" width="0.5" height="14"/>
<g>
	<path d="M70.5,70.4c0-1.8,2.5-3.5,4.5-3.5c1.3,0,2.3,0.7,2.3,1.7c0,1.7-2.5,3.5-4.6,3.5C71.4,72.1,70.5,71.5,70.5,70.4z"/>
</g>
<g>
	<path d="M68.5,76.3v-4l-3,1.1V62.8H66v4l3-1.1v10.7H68.5z M66,71.7l2.5-0.9v-3.3L66,68.4V71.7z"/>
</g>
<rect x="80.9" y="65.4" width="0.5" height="17.4"/>
<g>
	<path d="M81,65.5c0-1.8,2.5-3.5,4.5-3.5c1.3,0,2.3,0.7,2.3,1.7c0,1.7-2.5,3.5-4.6,3.5C82,67.2,81,66.5,81,65.5z"/>
</g>
<rect x="91.3" y="60.4" width="0.5" height="20.6"/>
<g>
	<path d="M91.4,60.5c0-1.8,2.5-3.5,4.5-3.5c1.3,0,2.3,0.7,2.3,1.7c0,1.7-2.5,3.5-4.6,3.5C92.4,62.2,91.4,61.6,91.4,60.5z"/>
</g>
<rect x="100.1" y="54.3" width="10.5" height="0.8"/>
<rect x="101.9" y="55.5" width="0.5" height="23.9"/>
<g>
	<path d="M101.9,55.5c0-1.8,2.5-3.5,4.5-3.5c1.3,0,2.3,0.7,2.3,1.7c0,1.7-2.5,3.5-4.6,3.5C102.9,57.3,101.9,56.6,101.9,55.5z"/>
</g>
<rect x="112.2" y="65.4" width="0.5" height="14"/>
<g>
	<path d="M112.3,65.5c0-1.8,2.5-3.5,4.5-3.5c1.3,0,2.3,0.7,2.3,1.7c0,1.7-2.5,3.5-4.6,3.5C113.3,67.2,112.3,66.5,112.3,65.5z"/>
</g>
<rect x="122.8" y="60.4" width="0.5" height="17.5"/>
<g>
	<path d="M122.9,60.5c0-1.8,2.5-3.5,4.5-3.5c1.3,0,2.3,0.7,2.3,1.7c0,1.7-2.5,3.5-4.6,3.5C123.8,62.2,122.9,61.6,122.9,60.5z"/>
</g>
<rect x="131.5" y="54.3" width="10.5" height="0.8"/>
<rect x="133.3" y="55.5" width="0.5" height="21.1"/>
<g>
	<path d="M133.4,55.5c0-1.8,2.5-3.5,4.5-3.5c1.3,0,2.3,0.7,2.3,1.7c0,1.7-2.5,3.5-4.6,3.5C134.4,57.3,133.4,56.6,133.4,55.5z"/>
</g>
<rect x="147.5" y="54.3" width="10.5" height="0.8"/>
<rect x="149.3" y="53" width="0.5" height="21.4"/>
<g>
	<path d="M149.4,53.1c0-1.8,2.5-3.5,4.5-3.5c1.3,0,2.3,0.7,2.3,1.7c0,1.7-2.5,3.5-4.6,3.5C150.3,54.8,149.4,54.1,149.4,53.1z"/>
</g>
<g>
	<path d="M146.2,59v-4l-3,1.1V45.4h0.5v4l3-1.1V59H146.2z M143.7,54.3l2.5-0.9v-3.3l-2.5,0.9V54.3z"/>
</g>
<rect x="159.7" y="60.4" width="0.5" height="14"/>
<g>
	<path d="M159.8,60.5c0-1.8,2.5-3.5,4.5-3.5c1.3,0,2.3,0.7,2.3,1.7c0,1.7-2.5,3.5-4.6,3.5C160.7,62.2,159.8,61.6,159.8,60.5z"/>
</g>
<rect x="168.4" y="54.3" width="10.5" height="0.8"/>
<rect x="170.2" y="55.5" width="0.5" height="17.5"/>
<g>
	<path d="M170.3,55.5c0-1.8,2.5-3.5,4.5-3.5c1.3,0,2.3,0.7,2.3,1.7c0,1.7-2.5,3.5-4.6,3.5C171.3,57.3,170.3,56.6,170.3,55.5z"/>
</g>
<rect x="180.2" y="54.3" width="10.5" height="0.8"/>
<rect x="182" y="53" width="0.5" height="18.3"/>
<g>
	<path d="M182.1,53.1c0-1.8,2.5-3.5,4.5-3.5c1.3,0,2.3,0.7,2.3,1.7c0,1.7-2.5,3.5-4.6,3.5C183,54.8,182.1,54.1,182.1,53.1z"/>
</g>
<rect x="192" y="54.3" width="10.5" height="0.8"/>
<rect x="192" y="49.3" width="10.5" height="0.8"/>
<rect x="193.8" y="48" width="0.5" height="21.4"/>
<g>
	<path d="M193.9,48.1c0-1.8,2.5-3.5,4.5-3.5c1.3,0,2.3,0.7,2.3,1.7c0,1.7-2.5,3.5-4.6,3.5C194.8,49.8,193.9,49.2,193.9,48.1z"/>
</g>
<rect x="220.2" y="84.1" width="10.5" height="0.8"/>
<rect x="228.5" y="59.8" width="0.5" height="23.9"/>
<g>
	<path d="M222.1,85.3c0-1.8,2.5-3.5,4.5-3.5c1.3,0,2.3,0.7,2.3,1.7c0,1.7-2.5,3.5-4.6,3.5C223,87,222.1,86.4,222.1,85.3z"/>
</g>
<rect x="243.2" y="57.8" width="0.5" height="23.4"/>
<g>
	<path d="M236.8,82.8c0-1.8,2.5-3.5,4.5-3.5c1.3,0,2.3,0.7,2.3,1.7c0,1.7-2.5,3.5-4.6,3.5C237.8,84.5,236.8,83.9,236.8,82.8z"/>
</g>
<g>
	<path d="M234.9,88.7v-4l-3,1.1V75.2h0.5v4l3-1.1v10.7H234.9z M232.3,84.1l2.5-0.9v-3.3l-2.5,0.9V84.1z"/>
</g>
<rect x="253.6" y="56.4" width="0.5" height="19.8"/>
<g>
	<path d="M247.2,77.9c0-1.8,2.5-3.5,4.5-3.5c1.3,0,2.3,0.7,2.3,1.7c0,1.7-2.5,3.5-4.6,3.5C248.2,79.6,247.2,78.9,247.2,77.9z"/>
</g>
<rect x="264.2" y="54.8" width="0.5" height="16.4"/>
<g>
	<path d="M257.7,72.9c0-1.8,2.5-3.5,4.5-3.5c1.3,0,2.3,0.7,2.3,1.7c0,1.7-2.5,3.5-4.6,3.5C258.7,74.6,257.7,74,257.7,72.9z"/>
</g>
<rect x="274.7" y="58.6" width="0.5" height="22.6"/>
<g>
	<path d="M268.3,82.8c0-1.8,2.5-3.5,4.5-3.5c1.3,0,2.3,0.7,2.3,1.7c0,1.7-2.5,3.5-4.6,3.5C269.2,84.5,268.3,83.9,268.3,82.8z"/>
</g>
<rect x="285.1" y="57" width="0.5" height="19.2"/>
<g>
	<path d="M278.7,77.9c0-1.8,2.5-3.5,4.5-3.5c1.3,0,2.3,0.7,2.3,1.7c0,1.7-2.5,3.5-4.6,3.5C279.6,79.6,278.7,78.9,278.7,77.9z"/>
</g>
<rect x="295.6" y="55.5" width="0.5" height="15.8"/>
<g>
	<path d="M289.2,72.9c0-1.8,2.5-3.5,4.5-3.5c1.3,0,2.3,0.7,2.3,1.7c0,1.7-2.5,3.5-4.6,3.5C290.2,74.6,289.2,74,289.2,72.9z"/>
</g>
<rect x="307.4" y="53.6" width="0.5" height="12.7"/>
<g>
	<path d="M301,67.9c0-1.8,2.5-3.5,4.5-3.5c1.3,0,2.3,0.7,2.3,1.7c0,1.7-2.5,3.5-4.6,3.5C301.9,69.7,301,69,301,67.9z"/>
</g>
<rect x="319.2" y="53.6" width="0.5" height="12.7"/>
<g>
	<path d="M312.8,67.9c0-1.8,2.5-3.5,4.5-3.5c1.3,0,2.3,0.7,2.3,1.7c0,1.7-2.5,3.5-4.6,3.5C313.7,69.7,312.8,69,312.8,67.9z"/>
</g>
<rect x="331" y="55.3" width="0.5" height="16"/>
<g>
	<path d="M324.5,72.9c0-1.8,2.5-3.5,4.5-3.5c1.3,0,2.3,0.7,2.3,1.7c0,1.7-2.5,3.5-4.6,3.5C325.5,74.6,324.5,74,324.5,72.9z"/>
</g>
<rect x="341.5" y="56.9" width="0.5" height="19.4"/>
<g>
	<path d="M335.1,77.9c0-1.8,2.5-3.5,4.5-3.5c1.3,0,2.3,0.7,2.3,1.7c0,1.7-2.5,3.5-4.6,3.5C336,79.6,335.1,78.9,335.1,77.9z"/>
</g>
<rect x="351.9" y="58.6" width="0.5" height="22.6"/>
<g>
	<path d="M345.5,82.8c0-1.8,2.5-3.5,4.5-3.5c1.3,0,2.3,0.7,2.3,1.7c0,1.7-2.5,3.5-4.6,3.5C346.4,84.5,345.5,83.9,345.5,82.8z"/>
</g>
<rect x="362.4" y="54.8" width="0.5" height="16.4"/>
<g>
	<path d="M356,72.9c0-1.8,2.5-3.5,4.5-3.5c1.3,0,2.3,0.7,2.3,1.7c0,1.7-2.5,3.5-4.6,3.5C357,74.6,356,74,356,72.9z"/>
</g>
<rect x="372.8" y="56.4" width="0.5" height="19.8"/>
<g>
	<path d="M366.4,77.9c0-1.8,2.5-3.5,4.5-3.5c1.3,0,2.3,0.7,2.3,1.7c0,1.7-2.5,3.5-4.6,3.5C367.4,79.6,366.4,78.9,366.4,77.9z"/>
</g>
<rect x="383.4" y="58.1" width="0.5" height="23.1"/>
<g>
	<path d="M376.9,82.8c0-1.8,2.5-3.5,4.5-3.5c1.3,0,2.3,0.7,2.3,1.7c0,1.7-2.5,3.5-4.6,3.5C377.9,84.5,376.9,83.9,376.9,82.8z"/>
</g>
<rect x="385.6" y="84.1" width="10.5" height="0.8"/>
<rect x="393.9" y="59.8" width="0.5" height="23.9"/>
<g>
	<path d="M387.5,85.3c0-1.8,2.5-3.5,4.5-3.5c1.3,0,2.3,0.7,2.3,1.7c0,1.7-2.5,3.5-4.6,3.5C388.4,87,387.5,86.4,387.5,85.3z"/>
</g>
<rect x="413.8" y="54.3" width="10.5" height="0.8"/>
<rect x="413.8" y="49.3" width="10.5" height="0.8"/>
<rect x="415.6" y="48" width="0.5" height="21.4"/>
<g>
	<path d="M415.7,48.1c0-1.8,2.5-3.5,4.5-3.5c1.3,0,2.3,0.7,2.3,1.7c0,1.7-2.5,3.5-4.6,3.5C416.7,49.8,415.7,49.2,415.7,48.1z"/>
</g>
<rect x="425.6" y="54.3" width="10.5" height="0.8"/>
<rect x="427.4" y="53" width="0.5" height="18.1"/>
<g>
	<path d="M427.5,53.1c0-1.8,2.5-3.5,4.5-3.5c1.3,0,2.3,0.7,2.3,1.7c0,1.7-2.5,3.5-4.6,3.5C428.4,54.8,427.5,54.1,427.5,53.1z"/>
</g>
<rect x="437.4" y="54.3" width="10.5" height="0.8"/>
<rect x="439.2" y="55.5" width="0.5" height="17.4"/>
<g>
	<path d="M439.2,55.5c0-1.8,2.5-3.5,4.5-3.5c1.3,0,2.3,0.7,2.3,1.7c0,1.7-2.5,3.5-4.6,3.5C440.2,57.3,439.2,56.6,439.2,55.5z"/>
</g>
<rect x="449.6" y="60.4" width="0.5" height="14"/>
<g>
	<path d="M449.6,60.5c0-1.8,2.5-3.5,4.5-3.5c1.3,0,2.3,0.7,2.3,1.7c0,1.7-2.5,3.5-4.6,3.5C450.6,62.2,449.6,61.6,449.6,60.5z"/>
</g>
<rect x="458.3" y="54.3" width="10.5" height="0.8"/>
<rect x="460.1" y="53" width="0.5" height="21.4"/>
<g>
	<path d="M460.2,53.1c0-1.8,2.5-3.5,4.5-3.5c1.3,0,2.3,0.7,2.3,1.7c0,1.7-2.5,3.5-4.6,3.5C461.1,54.8,460.2,54.1,460.2,53.1z"/>
</g>
<rect x="470.1" y="54.3" width="10.5" height="0.8"/>
<rect x="471.9" y="55.5" width="0.5" height="20.6"/>
<g>
	<path d="M472,55.5c0-1.8,2.5-3.5,4.5-3.5c1.3,0,2.3,0.7,2.3,1.7c0,1.7-2.5,3.5-4.6,3.5C472.9,57.3,472,56.6,472,55.5z"/>
</g>
<rect x="482.3" y="60.4" width="0.5" height="17.2"/>
<g>
	<path d="M482.3,60.5c0-1.8,2.5-3.5,4.5-3.5c1.3,0,2.3,0.7,2.3,1.7c0,1.7-2.5,3.5-4.6,3.5C483.3,62.2,482.3,61.6,482.3,60.5z"/>
</g>
<rect x="492.8" y="65.4" width="0.5" height="14"/>
<g>
	<path d="M492.9,65.5c0-1.8,2.5-3.5,4.5-3.5c1.3,0,2.3,0.7,2.3,1.7c0,1.7-2.5,3.5-4.6,3.5C493.9,67.2,492.9,66.5,492.9,65.5z"/>
</g>
<rect x="501.6" y="54.3" width="10.5" height="0.8"/>
<rect x="503.3" y="55.5" width="0.5" height="23.9"/>
<g>
	<path d="M503.4,55.5c0-1.8,2.5-3.5,4.5-3.5c1.3,0,2.3,0.7,2.3,1.7c0,1.7-2.5,3.5-4.6,3.5C504.4,57.3,503.4,56.6,503.4,55.5z"/>
</g>
<rect x="513.7" y="60.4" width="0.5" height="20.5"/>
<g>
	<path d="M513.8,60.5c0-1.8,2.5-3.5,4.5-3.5c1.3,0,2.3,0.7,2.3,1.7c0,1.7-2.5,3.5-4.6,3.5C514.8,62.2,513.8,61.6,513.8,60.5z"/>
</g>
<rect x="524.3" y="65.4" width="0.5" height="17.2"/>
<g>
	<path d="M524.4,65.5c0-1.8,2.5-3.5,4.5-3.5c1.3,0,2.3,0.7,2.3,1.7c0,1.7-2.5,3.5-4.6,3.5C525.3,67.2,524.4,66.5,524.4,65.5z"/>
</g>
<rect x="534.7" y="70.3" width="0.5" height="14"/>
<g>
	<path d="M534.7,70.4c0-1.8,2.5-3.5,4.5-3.5c1.3,0,2.3,0.7,2.3,1.7c0,1.7-2.5,3.5-4.6,3.5C535.7,72.1,534.7,71.5,534.7,70.4z"/>
</g>
</svg>
