<?xml version="1.0" encoding="utf-8"?>

<!--
	ScaleBook
	Copyright (c) Leland Jansen 2015. All rights reserved.
-->

<!DOCTYPE svg PUBLIC "-//W3C//DTD SVG 1.1//EN" "http://www.w3.org/Graphics/SVG/1.1/DTD/svg11.dtd">
<svg version="1.1" id="Layer_1" xmlns="http://www.w3.org/2000/svg" xmlns:xlink="http://www.w3.org/1999/xlink" x="0px" y="0px"
	 viewBox="0 0 552.9 95" enable-background="new 0 0 552.9 95" xml:space="preserve">
<rect x="8.4" y="9.9" width="0.8" height="73.3"/>
<g>
	<path d="M7.4,10.7C5.4,11.8,3.7,17,3.7,21c0,2.5,1.4,10.9,1.4,13.4c0,5.4-1.6,9.5-4.7,12.2c3.1,2.6,4.7,6.7,4.7,12.1
		c0,2.5-1.4,10.9-1.4,13.4c0,4.2,1.8,9.2,3.7,10.4v0.7c-3.6-2.5-5.9-9-5.9-14.3c0-2.3,1.8-10.3,1.8-12.6c0-4.2-1-7.2-3-9
		C0,47-0.2,46.8-0.2,46.6c0-0.2,0.1-0.4,0.5-0.7c2-1.8,3-4.6,3-8.3c0-2.3-1.8-11-1.8-13.3c0-5.6,2.1-11.4,5.9-14.3V10.7z"/>
</g>
<rect x="547.8" y="9.9" width="0.8" height="73.3"/>
<rect x="550.4" y="9.9" width="2.5" height="73.3"/>
<rect x="8.5" y="29.5" width="544.4" height="0.5"/>
<rect x="8.5" y="24.6" width="544.4" height="0.5"/>
<rect x="8.5" y="19.6" width="544.4" height="0.5"/>
<rect x="8.5" y="14.6" width="544.4" height="0.5"/>
<rect x="8.5" y="9.7" width="544.4" height="0.5"/>
<g>
	<path d="M20.3,29.6c-4.2,0-8.1-3.1-8.1-6.9c0-3.2,2.3-6.7,6.8-10.5c-0.3-1.2-0.4-2.4-0.4-3.6c0-3.5,1.2-6.8,3.2-8.5
		c1.8,2.5,2.7,4.9,2.7,7.1c0,2.9-1.3,5.6-4.3,8.1l0.9,4.2c0.5,0,0.8-0.1,0.8-0.1c2.6,0,4.8,2,4.8,4.7c0,1.9-1.4,3.7-3.6,4.8
		c0-0.1,0.9,3.8,0.9,4.3c0,2.5-2.3,4.2-4.9,4.2c-2,0-3.6-1.3-3.6-3.4c0-1.4,1-2.6,2.4-2.6c1.3,0,2.3,1.3,2.3,2.5
		c0,1.4-1.2,2.3-2.7,2.5c0.6,0.3,1.2,0.5,1.9,0.5c2.1,0,4.1-1.6,4.1-3.6c0-0.2,0-0.4-0.1-0.6l-0.8-3.7
		C21.9,29.5,21.2,29.6,20.3,29.6z M18.1,24.4c0,1,0.5,1.9,1.6,2.5c-1.8-0.3-3-1.4-3-3.1c0-2,1.7-3.7,3.8-4.1l-0.8-4
		C16,18.5,14,21.2,14,23.8c0,2.9,2.8,5.3,6,5.3c0.9,0,1.7-0.2,2.4-0.5L21,21.8C19.4,22,18.1,23,18.1,24.4z M22.1,3
		c-1.6,0-2.9,3.7-2.9,7c0,0.7,0,1.3,0.2,1.9c2.7-2.4,4-4.5,4-6.5c0-0.9-0.3-1.7-1-2.4C22.4,3.1,22.3,3,22.1,3z M24.9,24.9
		c0-1.6-1.2-3.3-2.9-3.3c-0.1,0-0.2,0-0.5,0l1.4,6.6C24.2,27.4,24.9,26.2,24.9,24.9z"/>
</g>
<g>
	<path d="M33.5,3.1v2.8l1-0.3v1.8l-1,0.3v3.4l1-0.3v1.8l-1,0.3v3.1H33v-3l-1.9,0.6v3h-0.5v-2.8l-1,0.3v-1.8l1-0.3V8.7l-1,0.3V7.2
		l1-0.3V3.7h0.5v3L33,6.1v-3H33.5z M33,7.9l-1.9,0.6v3.4l1.9-0.6V7.9z"/>
</g>
<g>
	<path d="M39.7,10.5v2.8l1-0.3v1.8l-1,0.3v3.4l1-0.3v1.8l-1,0.3v3.1h-0.5v-3l-1.9,0.6v3h-0.5v-2.8l-1,0.3v-1.8l1-0.3v-3.4l-1,0.3
		v-1.8l1-0.3v-3.1h0.5v3l1.9-0.6v-3H39.7z M39.2,15.3L37.3,16v3.4l1.9-0.6V15.3z"/>
</g>
<g>
	<path d="M45.9,0.6v2.8l1-0.3v1.8l-1,0.3v3.4l1-0.3v1.8l-1,0.3v3.1h-0.5v-3l-1.9,0.6v3H43v-2.8l-1,0.3V9.9l1-0.3V6.2l-1,0.3V4.7
		l1-0.3V1.3h0.5v3l1.9-0.6v-3H45.9z M45.4,5.4L43.5,6v3.4l1.9-0.6V5.4z"/>
</g>
<polygon fill-rule="evenodd" clip-rule="evenodd" points="64,26 100.4,21.1 100.4,18.6 64,23.6 "/>
<polygon fill-rule="evenodd" clip-rule="evenodd" points="64,22.3 100.4,17.4 100.4,14.9 64,19.8 "/>
<polygon fill-rule="evenodd" clip-rule="evenodd" points="112.5,24.8 151.1,19.8 151.1,17.4 112.5,22.3 "/>
<polygon fill-rule="evenodd" clip-rule="evenodd" points="112.5,21.1 151.1,16.1 151.1,13.6 112.5,18.6 "/>
<polygon fill-rule="evenodd" clip-rule="evenodd" points="163.3,21.1 199.7,16.1 199.7,13.6 163.3,18.6 "/>
<polygon fill-rule="evenodd" clip-rule="evenodd" points="163.3,17.4 199.7,12.4 199.7,9.9 163.3,14.9 "/>
<polygon fill-rule="evenodd" clip-rule="evenodd" points="211.8,16.1 248.3,11.2 248.3,8.7 211.8,13.6 "/>
<polygon fill-rule="evenodd" clip-rule="evenodd" points="211.8,12.4 248.3,7.4 248.3,5 211.8,9.9 "/>
<polygon fill-rule="evenodd" clip-rule="evenodd" points="260.4,11.2 296.8,6.2 296.8,3.7 260.4,8.7 "/>
<polygon fill-rule="evenodd" clip-rule="evenodd" points="260.4,7.4 296.8,2.5 296.8,0 260.4,5 "/>
<polygon fill-rule="evenodd" clip-rule="evenodd" points="309,6.2 345.5,11.2 345.5,8.7 309,3.7 "/>
<polygon fill-rule="evenodd" clip-rule="evenodd" points="309,2.5 345.5,7.4 345.5,5 309,0 "/>
<polygon fill-rule="evenodd" clip-rule="evenodd" points="357.6,11.2 394,16.1 394,13.6 357.6,8.7 "/>
<polygon fill-rule="evenodd" clip-rule="evenodd" points="357.6,7.4 394,12.4 394,9.9 357.6,5 "/>
<polygon fill-rule="evenodd" clip-rule="evenodd" points="406.2,16.1 442.7,21.1 442.7,18.6 406.2,13.6 "/>
<polygon fill-rule="evenodd" clip-rule="evenodd" points="406.2,12.4 442.7,17.4 442.7,14.9 406.2,9.9 "/>
<polygon fill-rule="evenodd" clip-rule="evenodd" points="454.7,21.1 491.2,26 491.2,23.6 454.7,18.6 "/>
<polygon fill-rule="evenodd" clip-rule="evenodd" points="454.7,17.4 491.2,22.3 491.2,19.8 454.7,14.9 "/>
<polygon fill-rule="evenodd" clip-rule="evenodd" points="503.4,21.1 539.9,26 539.9,23.6 503.4,18.6 "/>
<polygon fill-rule="evenodd" clip-rule="evenodd" points="503.4,17.4 539.9,22.3 539.9,19.8 503.4,14.9 "/>
<rect x="8.5" y="83" width="544.4" height="0.5"/>
<rect x="8.5" y="78" width="544.4" height="0.5"/>
<rect x="8.5" y="73.1" width="544.4" height="0.5"/>
<rect x="8.5" y="68.1" width="544.4" height="0.5"/>
<rect x="8.5" y="63.2" width="544.4" height="0.5"/>
<g>
	<path d="M15.7,77.6c2.9-2.6,4.7-6.1,4.7-9.2c0-2.5-1.4-4.4-3.7-4.4c-1.6,0-3.4,1.3-3.4,2.7c0,0.2,0,0.3,0.1,0.3
		c-0.1,0,0.6-0.6,1.4-0.6c0.9,0,1.5,0.8,1.5,1.7c0,1.2-0.9,2.2-2.1,2.2c-1.2,0-2.1-1.3-2.1-2.8c0-2.3,2.3-4.1,4.8-4.1
		c4.7,0,5.9,3.2,5.9,5.8c0,1.6-0.4,2.9-2,5.3c-1.9,3.1-6.4,5.3-8.1,5.3c-0.4,0-0.6-0.2-0.6-0.5C13.8,78.9,14.9,78.3,15.7,77.6z
		 M25.7,64.9c0.6,0,1,0.4,1,1c0,0.6-0.4,1-1,1s-1-0.4-1-1C24.7,65.3,25.1,64.9,25.7,64.9z M25.7,69.8c0.6,0,1,0.4,1,1
		c0,0.6-0.4,1-1,1s-1-0.4-1-1C24.7,70.3,25.1,69.8,25.7,69.8z"/>
</g>
<g>
	<path d="M33.5,61.5v2.8l1-0.3v1.8l-1,0.3v3.4l1-0.3v1.8l-1,0.3v3.1H33v-3l-1.9,0.6v3h-0.5v-2.8l-1,0.3v-1.8l1-0.3v-3.4l-1,0.3v-1.8
		l1-0.3v-3.1h0.5v3l1.9-0.6v-3H33.5z M33,66.3L31.1,67v3.4l1.9-0.6V66.3z"/>
</g>
<g>
	<path d="M39.7,69v2.8l1-0.3v1.8l-1,0.3V77l1-0.3v1.8l-1,0.3V82h-0.5v-3l-1.9,0.6v3h-0.5v-2.8l-1,0.3v-1.8l1-0.3v-3.4l-1,0.3v-1.8
		l1-0.3v-3.1h0.5v3l1.9-0.6v-3H39.7z M39.2,73.8l-1.9,0.6v3.4l1.9-0.6V73.8z"/>
</g>
<g>
	<path d="M45.9,59.1v2.8l1-0.3v1.8l-1,0.3v3.4l1-0.3v1.8l-1,0.3V72h-0.5v-3l-1.9,0.6v3H43v-2.8l-1,0.3v-1.8l1-0.3v-3.4l-1,0.3v-1.8
		l1-0.3v-3.1h0.5v3l1.9-0.6v-3H45.9z M45.4,63.8l-1.9,0.6v3.4l1.9-0.6V63.8z"/>
</g>
<polygon fill-rule="evenodd" clip-rule="evenodd" points="64,69.6 100.4,64.6 100.4,62.2 64,67.1 "/>
<polygon fill-rule="evenodd" clip-rule="evenodd" points="64,65.9 100.4,60.9 100.4,58.4 64,63.4 "/>
<polygon fill-rule="evenodd" clip-rule="evenodd" points="112.5,64.6 151.1,59.7 151.1,57.2 112.5,62.2 "/>
<polygon fill-rule="evenodd" clip-rule="evenodd" points="112.5,60.9 151.1,56 151.1,53.5 112.5,58.4 "/>
<polygon fill-rule="evenodd" clip-rule="evenodd" points="156.8,89.4 193.2,84.5 193.2,82 156.8,87 "/>
<polygon fill-rule="evenodd" clip-rule="evenodd" points="156.8,93.2 193.2,88.2 193.2,85.7 156.8,90.7 "/>
<polygon fill-rule="evenodd" clip-rule="evenodd" points="205.3,84.5 241.8,79.5 241.8,77 205.3,82 "/>
<polygon fill-rule="evenodd" clip-rule="evenodd" points="205.3,88.2 241.8,83.2 241.8,80.8 205.3,85.7 "/>
<polygon fill-rule="evenodd" clip-rule="evenodd" points="253.8,84.5 290.3,79.5 290.3,77 253.8,82 "/>
<polygon fill-rule="evenodd" clip-rule="evenodd" points="253.8,88.2 290.3,83.2 290.3,80.8 253.8,85.7 "/>
<polygon fill-rule="evenodd" clip-rule="evenodd" points="302.5,79.5 339,84.5 339,82 302.5,77 "/>
<polygon fill-rule="evenodd" clip-rule="evenodd" points="302.5,83.2 339,88.2 339,85.7 302.5,80.8 "/>
<polygon fill-rule="evenodd" clip-rule="evenodd" points="351,79.5 387.5,84.5 387.5,82 351,77 "/>
<polygon fill-rule="evenodd" clip-rule="evenodd" points="351,83.2 387.5,88.2 387.5,85.7 351,80.8 "/>
<polygon fill-rule="evenodd" clip-rule="evenodd" points="399.7,84.5 436.1,89.4 436.1,87 399.7,82 "/>
<polygon fill-rule="evenodd" clip-rule="evenodd" points="399.7,88.2 436.1,93.2 436.1,90.7 399.7,85.7 "/>
<polygon fill-rule="evenodd" clip-rule="evenodd" points="454.7,59.7 491.2,64.6 491.2,62.2 454.7,57.2 "/>
<polygon fill-rule="evenodd" clip-rule="evenodd" points="454.7,56 491.2,60.9 491.2,58.4 454.7,53.5 "/>
<polygon fill-rule="evenodd" clip-rule="evenodd" points="503.4,64.6 539.9,69.6 539.9,67.1 503.4,62.2 "/>
<polygon fill-rule="evenodd" clip-rule="evenodd" points="503.4,60.9 539.9,65.9 539.9,63.4 503.4,58.4 "/>
<rect x="55.4" y="34.3" width="10.5" height="0.8"/>
<rect x="55.4" y="39.3" width="10.5" height="0.8"/>
<rect x="55.4" y="44.3" width="10.5" height="0.8"/>
<rect x="63.7" y="20" width="0.5" height="26.4"/>
<g>
	<path d="M57.3,48c0-1.8,2.5-3.5,4.5-3.5c1.3,0,2.3,0.7,2.3,1.7c0,1.7-2.5,3.5-4.6,3.5C58.3,49.7,57.3,49.1,57.3,48z"/>
</g>
<g>
	<path d="M53.6,40.3v2.8l1-0.3v1.8l-1,0.3v3.4l1-0.3v1.8l-1,0.3v3.1h-0.5v-3L51.2,51v3h-0.5v-2.8l-1,0.3v-1.8l1-0.3v-3.4l-1,0.3
		v-1.8l1-0.3v-3.1h0.5v3l1.9-0.6v-3H53.6z M53.1,45.1l-1.9,0.6v3.4l1.9-0.6V45.1z"/>
</g>
<rect x="67.5" y="34.3" width="10.5" height="0.8"/>
<rect x="67.5" y="39.3" width="10.5" height="0.8"/>
<rect x="75.8" y="18.4" width="0.5" height="22.9"/>
<g>
	<path d="M69.4,43c0-1.8,2.5-3.5,4.5-3.5c1.3,0,2.3,0.7,2.3,1.7c0,1.7-2.5,3.5-4.6,3.5C70.4,44.7,69.4,44.1,69.4,43z"/>
</g>
<rect x="79.8" y="34.3" width="10.5" height="0.8"/>
<rect x="88.1" y="16.7" width="0.5" height="19.7"/>
<g>
	<path d="M81.6,38.1c0-1.8,2.5-3.5,4.5-3.5c1.3,0,2.3,0.7,2.3,1.7c0,1.7-2.5,3.5-4.6,3.5C82.6,39.8,81.6,39.1,81.6,38.1z"/>
</g>
<rect x="100.2" y="15" width="0.5" height="16.4"/>
<g>
	<path d="M93.7,33.1c0-1.8,2.5-3.5,4.5-3.5c1.3,0,2.3,0.7,2.3,1.7c0,1.7-2.5,3.5-4.6,3.5C94.7,34.8,93.7,34.2,93.7,33.1z"/>
</g>
<rect x="103.9" y="34.3" width="10.5" height="0.8"/>
<rect x="103.9" y="39.3" width="10.5" height="0.8"/>
<rect x="112.2" y="18.8" width="0.5" height="22.6"/>
<g>
	<path d="M105.8,43c0-1.8,2.5-3.5,4.5-3.5c1.3,0,2.3,0.7,2.3,1.7c0,1.7-2.5,3.5-4.6,3.5C106.8,44.7,105.8,44.1,105.8,43z"/>
</g>
<rect x="116.2" y="34.3" width="10.5" height="0.8"/>
<rect x="124.5" y="17.2" width="0.5" height="19.2"/>
<g>
	<path d="M118.1,38.1c0-1.8,2.5-3.5,4.5-3.5c1.3,0,2.3,0.7,2.3,1.7c0,1.7-2.5,3.5-4.6,3.5C119,39.8,118.1,39.1,118.1,38.1z"/>
</g>
<rect x="136.6" y="15.7" width="0.5" height="15.8"/>
<g>
	<path d="M130.1,33.1c0-1.8,2.5-3.5,4.5-3.5c1.3,0,2.3,0.7,2.3,1.7c0,1.7-2.5,3.5-4.6,3.5C131.1,34.8,130.1,34.2,130.1,33.1z"/>
</g>
<rect x="150.8" y="13.8" width="0.5" height="15.2"/>
<g>
	<path d="M144.4,30.6c0-1.8,2.5-3.5,4.5-3.5c1.3,0,2.3,0.7,2.3,1.7c0,1.7-2.5,3.5-4.6,3.5C145.4,32.3,144.4,31.7,144.4,30.6z"/>
</g>
<g>
	<path d="M142,22.9v2.8l1-0.3v1.8l-1,0.3V31l1-0.3v1.8l-1,0.3v3.1h-0.5v-3l-1.9,0.6v3h-0.5v-2.8l-1,0.3v-1.8l1-0.3v-3.4l-1,0.3V27
		l1-0.3v-3.1h0.5v3l1.9-0.6v-3H142z M141.5,27.7l-1.9,0.6v3.4l1.9-0.6V27.7z"/>
</g>
<rect x="154.8" y="34.3" width="10.5" height="0.8"/>
<rect x="163.1" y="15" width="0.5" height="21.4"/>
<g>
	<path d="M156.7,38.1c0-1.8,2.5-3.5,4.5-3.5c1.3,0,2.3,0.7,2.3,1.7c0,1.7-2.5,3.5-4.6,3.5C157.6,39.8,156.7,39.1,156.7,38.1z"/>
</g>
<rect x="175.2" y="13.5" width="0.5" height="18"/>
<g>
	<path d="M168.7,33.1c0-1.8,2.5-3.5,4.5-3.5c1.3,0,2.3,0.7,2.3,1.7c0,1.7-2.5,3.5-4.6,3.5C169.7,34.8,168.7,34.2,168.7,33.1z"/>
</g>
<rect x="187.3" y="11.8" width="0.5" height="17.2"/>
<g>
	<path d="M180.8,30.6c0-1.8,2.5-3.5,4.5-3.5c1.3,0,2.3,0.7,2.3,1.7c0,1.7-2.5,3.5-4.6,3.5C181.8,32.3,180.8,31.7,180.8,30.6z"/>
</g>
<rect x="199.5" y="10.1" width="0.5" height="14"/>
<g>
	<path d="M193.1,25.7c0-1.8,2.5-3.5,4.5-3.5c1.3,0,2.3,0.7,2.3,1.7c0,1.7-2.5,3.5-4.6,3.5C194.1,27.4,193.1,26.7,193.1,25.7z"/>
</g>
<rect x="211.6" y="10.1" width="0.5" height="21.4"/>
<g>
	<path d="M205.2,33.1c0-1.8,2.5-3.5,4.5-3.5c1.3,0,2.3,0.7,2.3,1.7c0,1.7-2.5,3.5-4.6,3.5C206.1,34.8,205.2,34.2,205.2,33.1z"/>
</g>
<rect x="223.7" y="8.5" width="0.5" height="20.5"/>
<g>
	<path d="M217.3,30.6c0-1.8,2.5-3.5,4.5-3.5c1.3,0,2.3,0.7,2.3,1.7c0,1.7-2.5,3.5-4.6,3.5C218.2,32.3,217.3,31.7,217.3,30.6z"/>
</g>
<rect x="235.9" y="6.8" width="0.5" height="17.2"/>
<g>
	<path d="M229.5,25.7c0-1.8,2.5-3.5,4.5-3.5c1.3,0,2.3,0.7,2.3,1.7c0,1.7-2.5,3.5-4.6,3.5C230.5,27.4,229.5,26.7,229.5,25.7z"/>
</g>
<rect x="248" y="5.1" width="0.5" height="14"/>
<g>
	<path d="M241.6,20.7c0-1.8,2.5-3.5,4.5-3.5c1.3,0,2.3,0.7,2.3,1.7c0,1.7-2.5,3.5-4.6,3.5C242.6,22.4,241.6,21.8,241.6,20.7z"/>
</g>
<rect x="260.1" y="5.1" width="0.5" height="23.9"/>
<g>
	<path d="M253.7,30.6c0-1.8,2.5-3.5,4.5-3.5c1.3,0,2.3,0.7,2.3,1.7c0,1.7-2.5,3.5-4.6,3.5C254.7,32.3,253.7,31.7,253.7,30.6z"/>
</g>
<rect x="272.4" y="3.6" width="0.5" height="20.5"/>
<g>
	<path d="M265.9,25.7c0-1.8,2.5-3.5,4.5-3.5c1.3,0,2.3,0.7,2.3,1.7c0,1.7-2.5,3.5-4.6,3.5C266.9,27.4,265.9,26.7,265.9,25.7z"/>
</g>
<rect x="284.5" y="1.9" width="0.5" height="17.2"/>
<g>
	<path d="M278,20.7c0-1.8,2.5-3.5,4.5-3.5c1.3,0,2.3,0.7,2.3,1.7c0,1.7-2.5,3.5-4.6,3.5C279,22.4,278,21.8,278,20.7z"/>
</g>
<rect x="296.6" y="0.2" width="0.5" height="14"/>
<g>
	<path d="M290.1,15.7c0-1.8,2.5-3.5,4.5-3.5c1.3,0,2.3,0.7,2.3,1.7c0,1.7-2.5,3.5-4.6,3.5C291.1,17.5,290.1,16.8,290.1,15.7z"/>
</g>
<rect x="308.8" y="0.2" width="0.5" height="14"/>
<g>
	<path d="M302.4,15.7c0-1.8,2.5-3.5,4.5-3.5c1.3,0,2.3,0.7,2.3,1.7c0,1.7-2.5,3.5-4.6,3.5C303.3,17.5,302.4,16.8,302.4,15.7z"/>
</g>
<rect x="320.9" y="1.7" width="0.5" height="17.4"/>
<g>
	<path d="M314.5,20.7c0-1.8,2.5-3.5,4.5-3.5c1.3,0,2.3,0.7,2.3,1.7c0,1.7-2.5,3.5-4.6,3.5C315.4,22.4,314.5,21.8,314.5,20.7z"/>
</g>
<rect x="333.1" y="3.4" width="0.5" height="20.6"/>
<g>
	<path d="M326.7,25.7c0-1.8,2.5-3.5,4.5-3.5c1.3,0,2.3,0.7,2.3,1.7c0,1.7-2.5,3.5-4.6,3.5C327.7,27.4,326.7,26.7,326.7,25.7z"/>
</g>
<rect x="345.2" y="5.1" width="0.5" height="23.9"/>
<g>
	<path d="M338.8,30.6c0-1.8,2.5-3.5,4.5-3.5c1.3,0,2.3,0.7,2.3,1.7c0,1.7-2.5,3.5-4.6,3.5C339.8,32.3,338.8,31.7,338.8,30.6z"/>
</g>
<rect x="357.3" y="5.1" width="0.5" height="14"/>
<g>
	<path d="M350.9,20.7c0-1.8,2.5-3.5,4.5-3.5c1.3,0,2.3,0.7,2.3,1.7c0,1.7-2.5,3.5-4.6,3.5C351.9,22.4,350.9,21.8,350.9,20.7z"/>
</g>
<rect x="369.6" y="6.7" width="0.5" height="17.4"/>
<g>
	<path d="M363.1,25.7c0-1.8,2.5-3.5,4.5-3.5c1.3,0,2.3,0.7,2.3,1.7c0,1.7-2.5,3.5-4.6,3.5C364.1,27.4,363.1,26.7,363.1,25.7z"/>
</g>
<rect x="381.7" y="8.4" width="0.5" height="20.6"/>
<g>
	<path d="M375.2,30.6c0-1.8,2.5-3.5,4.5-3.5c1.3,0,2.3,0.7,2.3,1.7c0,1.7-2.5,3.5-4.6,3.5C376.2,32.3,375.2,31.7,375.2,30.6z"/>
</g>
<rect x="393.7" y="10.1" width="0.5" height="21.4"/>
<g>
	<path d="M387.3,33.1c0-1.8,2.5-3.5,4.5-3.5c1.3,0,2.3,0.7,2.3,1.7c0,1.7-2.5,3.5-4.6,3.5C388.3,34.8,387.3,34.2,387.3,33.1z"/>
</g>
<rect x="406" y="10.1" width="0.5" height="14"/>
<g>
	<path d="M399.6,25.7c0-1.8,2.5-3.5,4.5-3.5c1.3,0,2.3,0.7,2.3,1.7c0,1.7-2.5,3.5-4.6,3.5C400.5,27.4,399.6,26.7,399.6,25.7z"/>
</g>
<rect x="418.1" y="11.6" width="0.5" height="17.4"/>
<g>
	<path d="M411.7,30.6c0-1.8,2.5-3.5,4.5-3.5c1.3,0,2.3,0.7,2.3,1.7c0,1.7-2.5,3.5-4.6,3.5C412.6,32.3,411.7,31.7,411.7,30.6z"/>
</g>
<rect x="430.2" y="13.3" width="0.5" height="18.1"/>
<g>
	<path d="M423.7,33.1c0-1.8,2.5-3.5,4.5-3.5c1.3,0,2.3,0.7,2.3,1.7c0,1.7-2.5,3.5-4.6,3.5C424.7,34.8,423.7,34.2,423.7,33.1z"/>
</g>
<rect x="434.1" y="34.3" width="10.5" height="0.8"/>
<rect x="442.4" y="15" width="0.5" height="21.4"/>
<g>
	<path d="M436,38.1c0-1.8,2.5-3.5,4.5-3.5c1.3,0,2.3,0.7,2.3,1.7c0,1.7-2.5,3.5-4.6,3.5C437,39.8,436,39.1,436,38.1z"/>
</g>
<rect x="454.5" y="15" width="0.5" height="14"/>
<g>
	<path d="M448.1,30.6c0-1.8,2.5-3.5,4.5-3.5c1.3,0,2.3,0.7,2.3,1.7c0,1.7-2.5,3.5-4.6,3.5C449.1,32.3,448.1,31.7,448.1,30.6z"/>
</g>
<rect x="466.6" y="16.6" width="0.5" height="14.9"/>
<g>
	<path d="M460.2,33.1c0-1.8,2.5-3.5,4.5-3.5c1.3,0,2.3,0.7,2.3,1.7c0,1.7-2.5,3.5-4.6,3.5C461.1,34.8,460.2,34.2,460.2,33.1z"/>
</g>
<rect x="470.6" y="34.3" width="10.5" height="0.8"/>
<rect x="478.9" y="18.3" width="0.5" height="18.1"/>
<g>
	<path d="M472.4,38.1c0-1.8,2.5-3.5,4.5-3.5c1.3,0,2.3,0.7,2.3,1.7c0,1.7-2.5,3.5-4.6,3.5C473.4,39.8,472.4,39.1,472.4,38.1z"/>
</g>
<rect x="482.7" y="34.3" width="10.5" height="0.8"/>
<rect x="482.7" y="39.3" width="10.5" height="0.8"/>
<rect x="490.9" y="20" width="0.5" height="21.4"/>
<g>
	<path d="M484.5,43c0-1.8,2.5-3.5,4.5-3.5c1.3,0,2.3,0.7,2.3,1.7c0,1.7-2.5,3.5-4.6,3.5C485.5,44.7,484.5,44.1,484.5,43z"/>
</g>
<rect x="503.2" y="15" width="0.5" height="16.4"/>
<g>
	<path d="M496.8,33.1c0-1.8,2.5-3.5,4.5-3.5c1.3,0,2.3,0.7,2.3,1.7c0,1.7-2.5,3.5-4.6,3.5C497.7,34.8,496.8,34.2,496.8,33.1z"/>
</g>
<rect x="507" y="34.3" width="10.5" height="0.8"/>
<rect x="515.3" y="16.6" width="0.5" height="19.8"/>
<g>
	<path d="M508.8,38.1c0-1.8,2.5-3.5,4.5-3.5c1.3,0,2.3,0.7,2.3,1.7c0,1.7-2.5,3.5-4.6,3.5C509.8,39.8,508.8,39.1,508.8,38.1z"/>
</g>
<rect x="519.1" y="34.3" width="10.5" height="0.8"/>
<rect x="519.1" y="39.3" width="10.5" height="0.8"/>
<rect x="527.4" y="18.3" width="0.5" height="23.1"/>
<g>
	<path d="M520.9,43c0-1.8,2.5-3.5,4.5-3.5c1.3,0,2.3,0.7,2.3,1.7c0,1.7-2.5,3.5-4.6,3.5C521.9,44.7,520.9,44.1,520.9,43z"/>
</g>
<rect x="531.3" y="34.3" width="10.5" height="0.8"/>
<rect x="531.3" y="39.3" width="10.5" height="0.8"/>
<rect x="531.3" y="44.3" width="10.5" height="0.8"/>
<rect x="539.6" y="20" width="0.5" height="26.4"/>
<g>
	<path d="M533.2,48c0-1.8,2.5-3.5,4.5-3.5c1.3,0,2.3,0.7,2.3,1.7c0,1.7-2.5,3.5-4.6,3.5C534.2,49.7,533.2,49.1,533.2,48z"/>
</g>
<rect x="55.4" y="87.8" width="10.5" height="0.8"/>
<rect x="63.7" y="63.6" width="0.5" height="23.9"/>
<g>
	<path d="M57.3,89.1c0-1.8,2.5-3.5,4.5-3.5c1.3,0,2.3,0.7,2.3,1.7c0,1.7-2.5,3.5-4.6,3.5C58.3,90.8,57.3,90.1,57.3,89.1z"/>
</g>
<g>
	<path d="M53.6,81.4v2.8l1-0.3v1.8l-1,0.3v3.4l1-0.3v1.8l-1,0.3v3.1h-0.5v-3L51.2,92v3h-0.5v-2.8l-1,0.3v-1.8l1-0.3v-3.4l-1,0.3
		v-1.8l1-0.3V82h0.5v3l1.9-0.6v-3H53.6z M53.1,86.2l-1.9,0.6v3.4l1.9-0.6V86.2z"/>
</g>
<rect x="75.8" y="62" width="0.5" height="20.5"/>
<g>
	<path d="M69.4,84.1c0-1.8,2.5-3.5,4.5-3.5c1.3,0,2.3,0.7,2.3,1.7c0,1.7-2.5,3.5-4.6,3.5C70.4,85.8,69.4,85.2,69.4,84.1z"/>
</g>
<rect x="88.1" y="60.3" width="0.5" height="17.2"/>
<g>
	<path d="M81.6,79.1c0-1.8,2.5-3.5,4.5-3.5c1.3,0,2.3,0.7,2.3,1.7c0,1.7-2.5,3.5-4.6,3.5C82.6,80.9,81.6,80.2,81.6,79.1z"/>
</g>
<rect x="100.2" y="58.6" width="0.5" height="14"/>
<g>
	<path d="M93.7,74.2c0-1.8,2.5-3.5,4.5-3.5c1.3,0,2.3,0.7,2.3,1.7c0,1.7-2.5,3.5-4.6,3.5C94.7,75.9,93.7,75.3,93.7,74.2z"/>
</g>
<rect x="112.2" y="58.6" width="0.5" height="23.9"/>
<g>
	<path d="M105.8,84.1c0-1.8,2.5-3.5,4.5-3.5c1.3,0,2.3,0.7,2.3,1.7c0,1.7-2.5,3.5-4.6,3.5C106.8,85.8,105.8,85.2,105.8,84.1z"/>
</g>
<rect x="124.5" y="57" width="0.5" height="20.5"/>
<g>
	<path d="M118.1,79.1c0-1.8,2.5-3.5,4.5-3.5c1.3,0,2.3,0.7,2.3,1.7c0,1.7-2.5,3.5-4.6,3.5C119,80.9,118.1,80.2,118.1,79.1z"/>
</g>
<rect x="136.6" y="55.5" width="0.5" height="17.1"/>
<g>
	<path d="M130.1,74.2c0-1.8,2.5-3.5,4.5-3.5c1.3,0,2.3,0.7,2.3,1.7c0,1.7-2.5,3.5-4.6,3.5C131.1,75.9,130.1,75.3,130.1,74.2z"/>
</g>
<rect x="150.8" y="53.6" width="0.5" height="16.4"/>
<g>
	<path d="M144.4,71.7c0-1.8,2.5-3.5,4.5-3.5c1.3,0,2.3,0.7,2.3,1.7c0,1.7-2.5,3.5-4.6,3.5C145.4,73.4,144.4,72.8,144.4,71.7z"/>
</g>
<g>
	<path d="M142,64v2.8l1-0.3v1.8l-1,0.3v3.4l1-0.3v1.8l-1,0.3V77h-0.5v-3l-1.9,0.6v3h-0.5v-2.8l-1,0.3v-1.8l1-0.3v-3.4l-1,0.3v-1.8
		l1-0.3v-3.1h0.5v3l1.9-0.6v-3H142z M141.5,68.8l-1.9,0.6v3.4l1.9-0.6V68.8z"/>
</g>
<rect x="156.6" y="79.1" width="0.5" height="14"/>
<g>
	<path d="M156.7,79.1c0-1.8,2.5-3.5,4.5-3.5c1.3,0,2.3,0.7,2.3,1.7c0,1.7-2.5,3.5-4.6,3.5C157.6,80.9,156.7,80.2,156.7,79.1z"/>
</g>
<rect x="168.7" y="74.1" width="0.5" height="17.4"/>
<g>
	<path d="M168.7,74.2c0-1.8,2.5-3.5,4.5-3.5c1.3,0,2.3,0.7,2.3,1.7c0,1.7-2.5,3.5-4.6,3.5C169.7,75.9,168.7,75.3,168.7,74.2z"/>
</g>
<rect x="180.8" y="71.6" width="0.5" height="18.1"/>
<g>
	<path d="M180.8,71.7c0-1.8,2.5-3.5,4.5-3.5c1.3,0,2.3,0.7,2.3,1.7c0,1.7-2.5,3.5-4.6,3.5C181.8,73.4,180.8,72.8,180.8,71.7z"/>
</g>
<rect x="193" y="66.7" width="0.5" height="21.4"/>
<g>
	<path d="M193.1,66.7c0-1.8,2.5-3.5,4.5-3.5c1.3,0,2.3,0.7,2.3,1.7c0,1.7-2.5,3.5-4.6,3.5C194.1,68.5,193.1,67.8,193.1,66.7z"/>
</g>
<rect x="205.1" y="74.1" width="0.5" height="14"/>
<g>
	<path d="M205.2,74.2c0-1.8,2.5-3.5,4.5-3.5c1.3,0,2.3,0.7,2.3,1.7c0,1.7-2.5,3.5-4.6,3.5C206.1,75.9,205.2,75.3,205.2,74.2z"/>
</g>
<rect x="217.2" y="71.6" width="0.5" height="14.9"/>
<g>
	<path d="M217.3,71.7c0-1.8,2.5-3.5,4.5-3.5c1.3,0,2.3,0.7,2.3,1.7c0,1.7-2.5,3.5-4.6,3.5C218.2,73.4,217.3,72.8,217.3,71.7z"/>
</g>
<rect x="229.4" y="66.7" width="0.5" height="18.1"/>
<g>
	<path d="M229.5,66.7c0-1.8,2.5-3.5,4.5-3.5c1.3,0,2.3,0.7,2.3,1.7c0,1.7-2.5,3.5-4.6,3.5C230.5,68.5,229.5,67.8,229.5,66.7z"/>
</g>
<rect x="241.5" y="61.7" width="0.5" height="21.4"/>
<g>
	<path d="M241.6,61.8c0-1.8,2.5-3.5,4.5-3.5c1.3,0,2.3,0.7,2.3,1.7c0,1.7-2.5,3.5-4.6,3.5C242.6,63.5,241.6,62.9,241.6,61.8z"/>
</g>
<rect x="253.6" y="71.6" width="0.5" height="16.4"/>
<g>
	<path d="M253.7,71.7c0-1.8,2.5-3.5,4.5-3.5c1.3,0,2.3,0.7,2.3,1.7c0,1.7-2.5,3.5-4.6,3.5C254.7,73.4,253.7,72.8,253.7,71.7z"/>
</g>
<rect x="265.9" y="66.7" width="0.5" height="19.8"/>
<g>
	<path d="M265.9,66.7c0-1.8,2.5-3.5,4.5-3.5c1.3,0,2.3,0.7,2.3,1.7c0,1.7-2.5,3.5-4.6,3.5C266.9,68.5,265.9,67.8,265.9,66.7z"/>
</g>
<rect x="278" y="61.7" width="0.5" height="23.1"/>
<g>
	<path d="M278,61.8c0-1.8,2.5-3.5,4.5-3.5c1.3,0,2.3,0.7,2.3,1.7c0,1.7-2.5,3.5-4.6,3.5C279,63.5,278,62.9,278,61.8z"/>
</g>
<rect x="288.3" y="58.1" width="10.5" height="0.8"/>
<rect x="290" y="56.7" width="0.5" height="26.4"/>
<g>
	<path d="M290.1,56.8c0-1.8,2.5-3.5,4.5-3.5c1.3,0,2.3,0.7,2.3,1.7c0,1.7-2.5,3.5-4.6,3.5C291.1,58.5,290.1,57.9,290.1,56.8z"/>
</g>
<rect x="300.5" y="58.1" width="10.5" height="0.8"/>
<rect x="302.3" y="56.7" width="0.5" height="26.4"/>
<g>
	<path d="M302.4,56.8c0-1.8,2.5-3.5,4.5-3.5c1.3,0,2.3,0.7,2.3,1.7c0,1.7-2.5,3.5-4.6,3.5C303.3,58.5,302.4,57.9,302.4,56.8z"/>
</g>
<rect x="314.4" y="61.7" width="0.5" height="22.9"/>
<g>
	<path d="M314.5,61.8c0-1.8,2.5-3.5,4.5-3.5c1.3,0,2.3,0.7,2.3,1.7c0,1.7-2.5,3.5-4.6,3.5C315.4,63.5,314.5,62.9,314.5,61.8z"/>
</g>
<rect x="326.6" y="66.7" width="0.5" height="19.7"/>
<g>
	<path d="M326.7,66.7c0-1.8,2.5-3.5,4.5-3.5c1.3,0,2.3,0.7,2.3,1.7c0,1.7-2.5,3.5-4.6,3.5C327.7,68.5,326.7,67.8,326.7,66.7z"/>
</g>
<rect x="338.7" y="71.6" width="0.5" height="16.4"/>
<g>
	<path d="M338.8,71.7c0-1.8,2.5-3.5,4.5-3.5c1.3,0,2.3,0.7,2.3,1.7c0,1.7-2.5,3.5-4.6,3.5C339.8,73.4,338.8,72.8,338.8,71.7z"/>
</g>
<rect x="350.8" y="61.7" width="0.5" height="21.4"/>
<g>
	<path d="M350.9,61.8c0-1.8,2.5-3.5,4.5-3.5c1.3,0,2.3,0.7,2.3,1.7c0,1.7-2.5,3.5-4.6,3.5C351.9,63.5,350.9,62.9,350.9,61.8z"/>
</g>
<rect x="363.1" y="66.7" width="0.5" height="18"/>
<g>
	<path d="M363.1,66.7c0-1.8,2.5-3.5,4.5-3.5c1.3,0,2.3,0.7,2.3,1.7c0,1.7-2.5,3.5-4.6,3.5C364.1,68.5,363.1,67.8,363.1,66.7z"/>
</g>
<rect x="375.1" y="71.6" width="0.5" height="14.7"/>
<g>
	<path d="M375.2,71.7c0-1.8,2.5-3.5,4.5-3.5c1.3,0,2.3,0.7,2.3,1.7c0,1.7-2.5,3.5-4.6,3.5C376.2,73.4,375.2,72.8,375.2,71.7z"/>
</g>
<rect x="387.2" y="74.1" width="0.5" height="14"/>
<g>
	<path d="M387.3,74.2c0-1.8,2.5-3.5,4.5-3.5c1.3,0,2.3,0.7,2.3,1.7c0,1.7-2.5,3.5-4.6,3.5C388.3,75.9,387.3,75.3,387.3,74.2z"/>
</g>
<rect x="399.5" y="66.7" width="0.5" height="21.4"/>
<g>
	<path d="M399.6,66.7c0-1.8,2.5-3.5,4.5-3.5c1.3,0,2.3,0.7,2.3,1.7c0,1.7-2.5,3.5-4.6,3.5C400.5,68.5,399.6,67.8,399.6,66.7z"/>
</g>
<rect x="411.6" y="71.6" width="0.5" height="18"/>
<g>
	<path d="M411.7,71.7c0-1.8,2.5-3.5,4.5-3.5c1.3,0,2.3,0.7,2.3,1.7c0,1.7-2.5,3.5-4.6,3.5C412.6,73.4,411.7,72.8,411.7,71.7z"/>
</g>
<rect x="423.7" y="74.1" width="0.5" height="17.2"/>
<g>
	<path d="M423.7,74.2c0-1.8,2.5-3.5,4.5-3.5c1.3,0,2.3,0.7,2.3,1.7c0,1.7-2.5,3.5-4.6,3.5C424.7,75.9,423.7,75.3,423.7,74.2z"/>
</g>
<rect x="435.9" y="79.1" width="0.5" height="14"/>
<g>
	<path d="M436,79.1c0-1.8,2.5-3.5,4.5-3.5c1.3,0,2.3,0.7,2.3,1.7c0,1.7-2.5,3.5-4.6,3.5C437,80.9,436,80.2,436,79.1z"/>
</g>
<rect x="454.5" y="53.6" width="0.5" height="16.4"/>
<g>
	<path d="M448.1,71.7c0-1.8,2.5-3.5,4.5-3.5c1.3,0,2.3,0.7,2.3,1.7c0,1.7-2.5,3.5-4.6,3.5C449.1,73.4,448.1,72.8,448.1,71.7z"/>
</g>
<rect x="466.6" y="55.2" width="0.5" height="17.4"/>
<g>
	<path d="M460.2,74.2c0-1.8,2.5-3.5,4.5-3.5c1.3,0,2.3,0.7,2.3,1.7c0,1.7-2.5,3.5-4.6,3.5C461.1,75.9,460.2,75.3,460.2,74.2z"/>
</g>
<rect x="478.9" y="56.9" width="0.5" height="20.6"/>
<g>
	<path d="M472.4,79.1c0-1.8,2.5-3.5,4.5-3.5c1.3,0,2.3,0.7,2.3,1.7c0,1.7-2.5,3.5-4.6,3.5C473.4,80.9,472.4,80.2,472.4,79.1z"/>
</g>
<rect x="490.9" y="58.6" width="0.5" height="23.9"/>
<g>
	<path d="M484.5,84.1c0-1.8,2.5-3.5,4.5-3.5c1.3,0,2.3,0.7,2.3,1.7c0,1.7-2.5,3.5-4.6,3.5C485.5,85.8,484.5,85.2,484.5,84.1z"/>
</g>
<rect x="503.2" y="58.6" width="0.5" height="14"/>
<g>
	<path d="M496.8,74.2c0-1.8,2.5-3.5,4.5-3.5c1.3,0,2.3,0.7,2.3,1.7c0,1.7-2.5,3.5-4.6,3.5C497.7,75.9,496.8,75.3,496.8,74.2z"/>
</g>
<rect x="515.3" y="60.1" width="0.5" height="17.4"/>
<g>
	<path d="M508.8,79.1c0-1.8,2.5-3.5,4.5-3.5c1.3,0,2.3,0.7,2.3,1.7c0,1.7-2.5,3.5-4.6,3.5C509.8,80.9,508.8,80.2,508.8,79.1z"/>
</g>
<rect x="527.4" y="61.8" width="0.5" height="20.6"/>
<g>
	<path d="M520.9,84.1c0-1.8,2.5-3.5,4.5-3.5c1.3,0,2.3,0.7,2.3,1.7c0,1.7-2.5,3.5-4.6,3.5C521.9,85.8,520.9,85.2,520.9,84.1z"/>
</g>
<rect x="531.3" y="87.8" width="10.5" height="0.8"/>
<rect x="539.6" y="63.6" width="0.5" height="23.9"/>
<g>
	<path d="M533.2,89.1c0-1.8,2.5-3.5,4.5-3.5c1.3,0,2.3,0.7,2.3,1.7c0,1.7-2.5,3.5-4.6,3.5C534.2,90.8,533.2,90.1,533.2,89.1z"/>
</g>
</svg>
