<?xml version="1.0" encoding="utf-8"?>

<!--
	ScaleBook
	Copyright (c) Leland Jansen 2015. All rights reserved.
-->

<!DOCTYPE svg PUBLIC "-//W3C//DTD SVG 1.1//EN" "http://www.w3.org/Graphics/SVG/1.1/DTD/svg11.dtd">
<svg version="1.1" id="Layer_1" xmlns="http://www.w3.org/2000/svg" xmlns:xlink="http://www.w3.org/1999/xlink" x="0px" y="0px"
	 viewBox="0 0 552.9 90.8" enable-background="new 0 0 552.9 90.8" xml:space="preserve">
<rect x="8.4" y="9.9" width="0.8" height="69.1"/>
<g>
	<path d="M7.4,10.6c-2,1.1-3.7,5.9-3.7,9.7c0,2.4,1.4,10.2,1.4,12.7c0,5.1-1.6,8.9-4.7,11.5c3.1,2.5,4.7,6.3,4.7,11.4
		c0,2.4-1.4,10.2-1.4,12.7c0,3.9,1.8,8.7,3.7,9.8v0.7c-3.6-2.4-5.9-8.5-5.9-13.5c0-2.2,1.8-9.7,1.8-11.9c0-3.9-1-6.8-3-8.5
		c-0.3-0.3-0.5-0.5-0.5-0.7s0.1-0.4,0.5-0.7c2-1.7,3-4.4,3-7.8c0-2.2-1.8-10.4-1.8-12.6c0-5.3,2.1-10.7,5.9-13.5V10.6z"/>
</g>
<rect x="547.8" y="9.9" width="0.8" height="69.1"/>
<rect x="550.4" y="9.9" width="2.5" height="69.1"/>
<rect x="8.5" y="29.5" width="544.4" height="0.5"/>
<rect x="8.5" y="24.6" width="544.4" height="0.5"/>
<rect x="8.5" y="19.6" width="544.4" height="0.5"/>
<rect x="8.5" y="14.6" width="544.4" height="0.5"/>
<rect x="8.5" y="9.7" width="544.4" height="0.5"/>
<g>
	<path d="M20.3,29.6c-4.2,0-8.1-3.1-8.1-6.9c0-3.2,2.3-6.7,6.8-10.5c-0.3-1.2-0.4-2.4-0.4-3.6c0-3.5,1.2-6.8,3.2-8.5
		c1.8,2.5,2.7,4.9,2.7,7.1c0,2.9-1.3,5.6-4.3,8.1l0.9,4.2c0.5,0,0.8-0.1,0.8-0.1c2.6,0,4.8,2,4.8,4.7c0,1.9-1.4,3.7-3.6,4.8
		c0-0.1,0.9,3.8,0.9,4.3c0,2.5-2.3,4.2-4.9,4.2c-2,0-3.6-1.3-3.6-3.4c0-1.4,1-2.6,2.4-2.6c1.3,0,2.3,1.3,2.3,2.5
		c0,1.4-1.2,2.3-2.7,2.5c0.6,0.3,1.2,0.5,1.9,0.5c2.1,0,4.1-1.6,4.1-3.6c0-0.2,0-0.4-0.1-0.6l-0.8-3.7
		C21.9,29.5,21.2,29.6,20.3,29.6z M18.1,24.4c0,1,0.5,1.9,1.6,2.5c-1.8-0.3-3-1.4-3-3.1c0-2,1.7-3.7,3.8-4.1l-0.8-4
		C16,18.5,14,21.2,14,23.8c0,2.9,2.8,5.3,6,5.3c0.9,0,1.7-0.2,2.4-0.5L21,21.8C19.4,22,18.1,23,18.1,24.4z M22.1,3
		c-1.6,0-2.9,3.7-2.9,7c0,0.7,0,1.3,0.2,1.9c2.7-2.4,4-4.5,4-6.5c0-0.9-0.3-1.7-1-2.4C22.4,3.1,22.3,3,22.1,3z M24.9,24.9
		c0-1.6-1.2-3.3-2.9-3.3c-0.1,0-0.2,0-0.5,0l1.4,6.6C24.2,27.4,24.9,26.2,24.9,24.9z"/>
</g>
<g>
	<path d="M29.5,11.5h0.6L30,17.8c0.4-0.7,1-1,1.8-1c1.2,0,2.2,0.8,2.2,1.9c0,0.8-0.5,1.8-1.7,2.7l-2.8,2.1V11.5z M30.1,18.4
		C30,19.2,30,19.8,30,20.4c0,1,0,1.6,0.1,2c1-0.7,2.4-2.6,2.4-3.7c0-0.6-0.5-1.1-1.1-1.1C30.8,17.6,30.4,17.9,30.1,18.4z"/>
</g>
<g>
	<path d="M35.1,4.1h0.6l-0.1,6.2c0.4-0.7,1-1,1.8-1c1.2,0,2.2,0.8,2.2,1.9c0,0.8-0.5,1.8-1.7,2.7L35.1,16V4.1z M35.7,11
		c-0.1,0.8-0.1,1.4-0.1,1.9c0,1,0,1.6,0.1,2c1-0.7,2.4-2.6,2.4-3.7c0-0.6-0.5-1.1-1.1-1.1C36.4,10.2,36,10.4,35.7,11z"/>
</g>
<g>
	<path d="M40.7,14h0.6l-0.1,6.2c0.4-0.7,1-1,1.8-1c1.2,0,2.2,0.8,2.2,1.9c0,0.8-0.5,1.8-1.7,2.7L40.7,26V14z M41.3,20.9
		c-0.1,0.8-0.1,1.4-0.1,1.9c0,1,0,1.6,0.1,2c1-0.7,2.4-2.6,2.4-3.7c0-0.6-0.5-1.1-1.1-1.1C42,20.1,41.6,20.4,41.3,20.9z"/>
</g>
<g>
	<path d="M46.3,6.6h0.6l-0.1,6.2c0.4-0.7,1-1,1.8-1c1.2,0,2.2,0.8,2.2,1.9c0,0.8-0.5,1.8-1.7,2.7l-2.8,2.1V6.6z M46.9,13.5
		c-0.1,0.8-0.1,1.4-0.1,1.9c0,1,0,1.6,0.1,2c1-0.7,2.4-2.6,2.4-3.7c0-0.6-0.5-1.1-1.1-1.1C47.6,12.6,47.2,12.9,46.9,13.5z"/>
</g>
<polygon fill-rule="evenodd" clip-rule="evenodd" points="66.3,26 102.7,21.1 102.7,18.6 66.3,23.6 "/>
<polygon fill-rule="evenodd" clip-rule="evenodd" points="66.3,22.3 102.7,17.4 102.7,14.9 66.3,19.8 "/>
<polygon fill-rule="evenodd" clip-rule="evenodd" points="114.8,24.8 151.8,19.8 151.8,17.4 114.8,22.3 "/>
<polygon fill-rule="evenodd" clip-rule="evenodd" points="114.8,21.1 151.8,16.1 151.8,13.6 114.8,18.6 "/>
<polygon fill-rule="evenodd" clip-rule="evenodd" points="163.9,21.1 200.4,16.1 200.4,13.6 163.9,18.6 "/>
<polygon fill-rule="evenodd" clip-rule="evenodd" points="163.9,17.4 200.4,12.4 200.4,9.9 163.9,14.9 "/>
<polygon fill-rule="evenodd" clip-rule="evenodd" points="212.5,16.1 248.9,11.2 248.9,8.7 212.5,13.6 "/>
<polygon fill-rule="evenodd" clip-rule="evenodd" points="212.5,12.4 248.9,7.4 248.9,5 212.5,9.9 "/>
<polygon fill-rule="evenodd" clip-rule="evenodd" points="261,11.2 297.4,6.2 297.4,3.7 261,8.7 "/>
<polygon fill-rule="evenodd" clip-rule="evenodd" points="261,7.4 297.4,2.5 297.4,0 261,5 "/>
<polygon fill-rule="evenodd" clip-rule="evenodd" points="309.5,6.2 345.9,11.2 345.9,8.7 309.5,3.7 "/>
<polygon fill-rule="evenodd" clip-rule="evenodd" points="309.5,2.5 345.9,7.4 345.9,5 309.5,0 "/>
<polygon fill-rule="evenodd" clip-rule="evenodd" points="358,11.2 394.3,16.1 394.3,13.6 358,8.7 "/>
<polygon fill-rule="evenodd" clip-rule="evenodd" points="358,7.4 394.3,12.4 394.3,9.9 358,5 "/>
<polygon fill-rule="evenodd" clip-rule="evenodd" points="406.5,16.1 442.8,21.1 442.8,18.6 406.5,13.6 "/>
<polygon fill-rule="evenodd" clip-rule="evenodd" points="406.5,12.4 442.8,17.4 442.8,14.9 406.5,9.9 "/>
<polygon fill-rule="evenodd" clip-rule="evenodd" points="454.9,21.1 491.3,26 491.3,23.6 454.9,18.6 "/>
<polygon fill-rule="evenodd" clip-rule="evenodd" points="454.9,17.4 491.3,22.3 491.3,19.8 454.9,14.9 "/>
<polygon fill-rule="evenodd" clip-rule="evenodd" points="503.4,21.1 539.9,26 539.9,23.6 503.4,18.6 "/>
<polygon fill-rule="evenodd" clip-rule="evenodd" points="503.4,17.4 539.9,22.3 539.9,19.8 503.4,14.9 "/>
<rect x="8.5" y="78.8" width="544.4" height="0.5"/>
<rect x="8.5" y="73.9" width="544.4" height="0.5"/>
<rect x="8.5" y="68.9" width="544.4" height="0.5"/>
<rect x="8.5" y="63.9" width="544.4" height="0.5"/>
<rect x="8.5" y="59" width="544.4" height="0.5"/>
<g>
	<path d="M15.7,73.4c2.9-2.6,4.7-6.1,4.7-9.2c0-2.5-1.4-4.4-3.7-4.4c-1.6,0-3.4,1.3-3.4,2.7c0,0.2,0,0.3,0.1,0.3
		c-0.1,0,0.6-0.6,1.4-0.6c0.9,0,1.5,0.8,1.5,1.7c0,1.2-0.9,2.2-2.1,2.2c-1.2,0-2.1-1.3-2.1-2.8c0-2.3,2.3-4.1,4.8-4.1
		c4.7,0,5.9,3.2,5.9,5.8c0,1.6-0.4,2.9-2,5.3c-1.9,3.1-6.4,5.3-8.1,5.3c-0.4,0-0.6-0.2-0.6-0.5C13.8,74.7,14.9,74.1,15.7,73.4z
		 M25.7,60.7c0.6,0,1,0.4,1,1c0,0.6-0.4,1-1,1s-1-0.4-1-1C24.7,61.1,25.1,60.7,25.7,60.7z M25.7,65.6c0.6,0,1,0.4,1,1
		c0,0.6-0.4,1-1,1s-1-0.4-1-1C24.7,66.1,25.1,65.6,25.7,65.6z"/>
</g>
<g>
	<path d="M29.5,65.8h0.6L30,72c0.4-0.7,1-1,1.8-1c1.2,0,2.2,0.8,2.2,1.9c0,0.8-0.5,1.8-1.7,2.7l-2.8,2.1V65.8z M30.1,72.7
		C30,73.4,30,74.1,30,74.6c0,1,0,1.6,0.1,2c1-0.7,2.4-2.6,2.4-3.7c0-0.6-0.5-1.1-1.1-1.1C30.8,71.9,30.4,72.1,30.1,72.7z"/>
</g>
<g>
	<path d="M35.1,58.3h0.6l-0.1,6.2c0.4-0.7,1-1,1.8-1c1.2,0,2.2,0.8,2.2,1.9c0,0.8-0.5,1.8-1.7,2.7l-2.8,2.1V58.3z M35.7,65.2
		c-0.1,0.8-0.1,1.4-0.1,1.9c0,1,0,1.6,0.1,2c1-0.7,2.4-2.6,2.4-3.7c0-0.6-0.5-1.1-1.1-1.1C36.4,64.4,36,64.7,35.7,65.2z"/>
</g>
<g>
	<path d="M40.7,68.3h0.6l-0.1,6.2c0.4-0.7,1-1,1.8-1c1.2,0,2.2,0.8,2.2,1.9c0,0.8-0.5,1.8-1.7,2.7l-2.8,2.1V68.3z M41.3,75.2
		c-0.1,0.8-0.1,1.4-0.1,1.9c0,1,0,1.6,0.1,2c1-0.7,2.4-2.6,2.4-3.7c0-0.6-0.5-1.1-1.1-1.1C42,74.3,41.6,74.6,41.3,75.2z"/>
</g>
<g>
	<path d="M46.3,60.8h0.6l-0.1,6.2c0.4-0.7,1-1,1.8-1c1.2,0,2.2,0.8,2.2,1.9c0,0.8-0.5,1.8-1.7,2.7l-2.8,2.1V60.8z M46.9,67.7
		c-0.1,0.8-0.1,1.4-0.1,1.9c0,1,0,1.6,0.1,2c1-0.7,2.4-2.6,2.4-3.7c0-0.6-0.5-1.1-1.1-1.1C47.6,66.9,47.2,67.2,46.9,67.7z"/>
</g>
<polygon fill-rule="evenodd" clip-rule="evenodd" points="66.3,65.4 102.7,60.5 102.7,58 66.3,62.9 "/>
<polygon fill-rule="evenodd" clip-rule="evenodd" points="66.3,61.7 102.7,56.7 102.7,54.3 66.3,59.2 "/>
<polygon fill-rule="evenodd" clip-rule="evenodd" points="114.8,60.5 151.8,55.5 151.8,53 114.8,58 "/>
<polygon fill-rule="evenodd" clip-rule="evenodd" points="114.8,56.7 151.8,51.8 151.8,49.3 114.8,54.3 "/>
<polygon fill-rule="evenodd" clip-rule="evenodd" points="157.4,85.3 193.9,80.3 193.9,77.8 157.4,82.8 "/>
<polygon fill-rule="evenodd" clip-rule="evenodd" points="157.4,89 193.9,84 193.9,81.5 157.4,86.5 "/>
<polygon fill-rule="evenodd" clip-rule="evenodd" points="205.9,80.3 242.4,75.3 242.4,72.9 205.9,77.8 "/>
<polygon fill-rule="evenodd" clip-rule="evenodd" points="205.9,84 242.4,79.1 242.4,76.6 205.9,81.5 "/>
<polygon fill-rule="evenodd" clip-rule="evenodd" points="254.5,80.3 290.9,75.3 290.9,72.9 254.5,77.8 "/>
<polygon fill-rule="evenodd" clip-rule="evenodd" points="254.5,84 290.9,79.1 290.9,76.6 254.5,81.5 "/>
<polygon fill-rule="evenodd" clip-rule="evenodd" points="303,75.3 339.4,80.3 339.4,77.8 303,72.9 "/>
<polygon fill-rule="evenodd" clip-rule="evenodd" points="303,79.1 339.4,84 339.4,81.5 303,76.6 "/>
<polygon fill-rule="evenodd" clip-rule="evenodd" points="351.5,75.3 387.8,80.3 387.8,77.8 351.5,72.9 "/>
<polygon fill-rule="evenodd" clip-rule="evenodd" points="351.5,79.1 387.8,84 387.8,81.5 351.5,76.6 "/>
<polygon fill-rule="evenodd" clip-rule="evenodd" points="400,80.3 436.3,85.3 436.3,82.8 400,77.8 "/>
<polygon fill-rule="evenodd" clip-rule="evenodd" points="400,84 436.3,89 436.3,86.5 400,81.5 "/>
<polygon fill-rule="evenodd" clip-rule="evenodd" points="454.9,55.5 491.3,60.5 491.3,58 454.9,53 "/>
<polygon fill-rule="evenodd" clip-rule="evenodd" points="454.9,51.8 491.3,56.7 491.3,54.3 454.9,49.3 "/>
<polygon fill-rule="evenodd" clip-rule="evenodd" points="503.4,60.5 539.9,65.4 539.9,62.9 503.4,58 "/>
<polygon fill-rule="evenodd" clip-rule="evenodd" points="503.4,56.7 539.9,61.7 539.9,59.2 503.4,54.3 "/>
<rect x="57.8" y="34.3" width="10.5" height="0.8"/>
<rect x="57.8" y="39.3" width="10.5" height="0.8"/>
<rect x="57.8" y="44.3" width="10.5" height="0.8"/>
<rect x="66" y="20" width="0.5" height="26.4"/>
<g>
	<path d="M59.6,48c0-1.8,2.5-3.5,4.5-3.5c1.3,0,2.3,0.7,2.3,1.7c0,1.7-2.5,3.5-4.6,3.5C60.6,49.7,59.6,49.1,59.6,48z"/>
</g>
<g>
	<path d="M56.4,53.9v-4l-3,1.1V40.3h0.5v4l3-1.1v10.7H56.4z M53.9,49.2l2.5-0.9V45l-2.5,0.9V49.2z"/>
</g>
<rect x="69.8" y="34.3" width="10.5" height="0.8"/>
<rect x="69.8" y="39.3" width="10.5" height="0.8"/>
<rect x="78.1" y="18.4" width="0.5" height="22.9"/>
<g>
	<path d="M71.7,43c0-1.8,2.5-3.5,4.5-3.5c1.3,0,2.3,0.7,2.3,1.7c0,1.7-2.5,3.5-4.6,3.5C72.7,44.7,71.7,44.1,71.7,43z"/>
</g>
<rect x="81.9" y="34.3" width="10.5" height="0.8"/>
<rect x="90.2" y="16.7" width="0.5" height="19.7"/>
<g>
	<path d="M83.8,38.1c0-1.8,2.5-3.5,4.5-3.5c1.3,0,2.3,0.7,2.3,1.7c0,1.7-2.5,3.5-4.6,3.5C84.8,39.8,83.8,39.1,83.8,38.1z"/>
</g>
<rect x="102.5" y="15" width="0.5" height="16.4"/>
<g>
	<path d="M96,33.1c0-1.8,2.5-3.5,4.5-3.5c1.3,0,2.3,0.7,2.3,1.7c0,1.7-2.5,3.5-4.6,3.5C97,34.8,96,34.2,96,33.1z"/>
</g>
<rect x="106.3" y="34.3" width="10.5" height="0.8"/>
<rect x="106.3" y="39.3" width="10.5" height="0.8"/>
<rect x="114.6" y="18.8" width="0.5" height="22.6"/>
<g>
	<path d="M108.1,43c0-1.8,2.5-3.5,4.5-3.5c1.3,0,2.3,0.7,2.3,1.7c0,1.7-2.5,3.5-4.6,3.5C109.1,44.7,108.1,44.1,108.1,43z"/>
</g>
<rect x="118.4" y="34.3" width="10.5" height="0.8"/>
<rect x="126.7" y="17.2" width="0.5" height="19.2"/>
<g>
	<path d="M120.2,38.1c0-1.8,2.5-3.5,4.5-3.5c1.3,0,2.3,0.7,2.3,1.7c0,1.7-2.5,3.5-4.6,3.5C121.2,39.8,120.2,39.1,120.2,38.1z"/>
</g>
<rect x="138.8" y="15.7" width="0.5" height="15.8"/>
<g>
	<path d="M132.3,33.1c0-1.8,2.5-3.5,4.5-3.5c1.3,0,2.3,0.7,2.3,1.7c0,1.7-2.5,3.5-4.6,3.5C133.3,34.8,132.3,34.2,132.3,33.1z"/>
</g>
<rect x="151.6" y="13.8" width="0.5" height="15.2"/>
<g>
	<path d="M145.2,30.6c0-1.8,2.5-3.5,4.5-3.5c1.3,0,2.3,0.7,2.3,1.7c0,1.7-2.5,3.5-4.6,3.5C146.2,32.3,145.2,31.7,145.2,30.6z"/>
</g>
<g>
	<path d="M143.3,36.5v-4l-3,1.1V23h0.5v4l3-1.1v10.7H143.3z M140.7,31.9l2.5-0.9v-3.3l-2.5,0.9V31.9z"/>
</g>
<rect x="155.4" y="34.3" width="10.5" height="0.8"/>
<rect x="163.7" y="15" width="0.5" height="21.4"/>
<g>
	<path d="M157.3,38.1c0-1.8,2.5-3.5,4.5-3.5c1.3,0,2.3,0.7,2.3,1.7c0,1.7-2.5,3.5-4.6,3.5C158.2,39.8,157.3,39.1,157.3,38.1z"/>
</g>
<rect x="176" y="13.5" width="0.5" height="18"/>
<g>
	<path d="M169.5,33.1c0-1.8,2.5-3.5,4.5-3.5c1.3,0,2.3,0.7,2.3,1.7c0,1.7-2.5,3.5-4.6,3.5C170.5,34.8,169.5,34.2,169.5,33.1z"/>
</g>
<rect x="188" y="11.8" width="0.5" height="17.2"/>
<g>
	<path d="M181.6,30.6c0-1.8,2.5-3.5,4.5-3.5c1.3,0,2.3,0.7,2.3,1.7c0,1.7-2.5,3.5-4.6,3.5C182.6,32.3,181.6,31.7,181.6,30.6z"/>
</g>
<rect x="200.1" y="10.1" width="0.5" height="14"/>
<g>
	<path d="M193.7,25.7c0-1.8,2.5-3.5,4.5-3.5c1.3,0,2.3,0.7,2.3,1.7c0,1.7-2.5,3.5-4.6,3.5C194.7,27.4,193.7,26.7,193.7,25.7z"/>
</g>
<rect x="212.2" y="10.1" width="0.5" height="21.4"/>
<g>
	<path d="M205.8,33.1c0-1.8,2.5-3.5,4.5-3.5c1.3,0,2.3,0.7,2.3,1.7c0,1.7-2.5,3.5-4.6,3.5C206.8,34.8,205.8,34.2,205.8,33.1z"/>
</g>
<rect x="224.3" y="8.5" width="0.5" height="20.5"/>
<g>
	<path d="M217.9,30.6c0-1.8,2.5-3.5,4.5-3.5c1.3,0,2.3,0.7,2.3,1.7c0,1.7-2.5,3.5-4.6,3.5C218.9,32.3,217.9,31.7,217.9,30.6z"/>
</g>
<rect x="236.6" y="6.8" width="0.5" height="17.2"/>
<g>
	<path d="M230.1,25.7c0-1.8,2.5-3.5,4.5-3.5c1.3,0,2.3,0.7,2.3,1.7c0,1.7-2.5,3.5-4.6,3.5C231.1,27.4,230.1,26.7,230.1,25.7z"/>
</g>
<rect x="248.7" y="5.1" width="0.5" height="14"/>
<g>
	<path d="M242.2,20.7c0-1.8,2.5-3.5,4.5-3.5c1.3,0,2.3,0.7,2.3,1.7c0,1.7-2.5,3.5-4.6,3.5C243.2,22.4,242.2,21.8,242.2,20.7z"/>
</g>
<rect x="260.7" y="5.1" width="0.5" height="23.9"/>
<g>
	<path d="M254.3,30.6c0-1.8,2.5-3.5,4.5-3.5c1.3,0,2.3,0.7,2.3,1.7c0,1.7-2.5,3.5-4.6,3.5C255.3,32.3,254.3,31.7,254.3,30.6z"/>
</g>
<rect x="272.8" y="3.6" width="0.5" height="20.5"/>
<g>
	<path d="M266.4,25.7c0-1.8,2.5-3.5,4.5-3.5c1.3,0,2.3,0.7,2.3,1.7c0,1.7-2.5,3.5-4.6,3.5C267.4,27.4,266.4,26.7,266.4,25.7z"/>
</g>
<rect x="284.9" y="1.9" width="0.5" height="17.2"/>
<g>
	<path d="M278.5,20.7c0-1.8,2.5-3.5,4.5-3.5c1.3,0,2.3,0.7,2.3,1.7c0,1.7-2.5,3.5-4.6,3.5C279.5,22.4,278.5,21.8,278.5,20.7z"/>
</g>
<rect x="297.2" y="0.2" width="0.5" height="14"/>
<g>
	<path d="M290.7,15.7c0-1.8,2.5-3.5,4.5-3.5c1.3,0,2.3,0.7,2.3,1.7c0,1.7-2.5,3.5-4.6,3.5C291.7,17.5,290.7,16.8,290.7,15.7z"/>
</g>
<rect x="309.3" y="0.2" width="0.5" height="14"/>
<g>
	<path d="M302.8,15.7c0-1.8,2.5-3.5,4.5-3.5c1.3,0,2.3,0.7,2.3,1.7c0,1.7-2.5,3.5-4.6,3.5C303.8,17.5,302.8,16.8,302.8,15.7z"/>
</g>
<rect x="321.4" y="1.7" width="0.5" height="17.4"/>
<g>
	<path d="M314.9,20.7c0-1.8,2.5-3.5,4.5-3.5c1.3,0,2.3,0.7,2.3,1.7c0,1.7-2.5,3.5-4.6,3.5C315.9,22.4,314.9,21.8,314.9,20.7z"/>
</g>
<rect x="333.4" y="3.4" width="0.5" height="20.6"/>
<g>
	<path d="M327,25.7c0-1.8,2.5-3.5,4.5-3.5c1.3,0,2.3,0.7,2.3,1.7c0,1.7-2.5,3.5-4.6,3.5C328,27.4,327,26.7,327,25.7z"/>
</g>
<rect x="345.7" y="5.1" width="0.5" height="23.9"/>
<g>
	<path d="M339.3,30.6c0-1.8,2.5-3.5,4.5-3.5c1.3,0,2.3,0.7,2.3,1.7c0,1.7-2.5,3.5-4.6,3.5C340.2,32.3,339.3,31.7,339.3,30.6z"/>
</g>
<rect x="357.8" y="5.1" width="0.5" height="14"/>
<g>
	<path d="M351.4,20.7c0-1.8,2.5-3.5,4.5-3.5c1.3,0,2.3,0.7,2.3,1.7c0,1.7-2.5,3.5-4.6,3.5C352.3,22.4,351.4,21.8,351.4,20.7z"/>
</g>
<rect x="369.9" y="6.7" width="0.5" height="17.4"/>
<g>
	<path d="M363.4,25.7c0-1.8,2.5-3.5,4.5-3.5c1.3,0,2.3,0.7,2.3,1.7c0,1.7-2.5,3.5-4.6,3.5C364.4,27.4,363.4,26.7,363.4,25.7z"/>
</g>
<rect x="382" y="8.4" width="0.5" height="20.6"/>
<g>
	<path d="M375.5,30.6c0-1.8,2.5-3.5,4.5-3.5c1.3,0,2.3,0.7,2.3,1.7c0,1.7-2.5,3.5-4.6,3.5C376.5,32.3,375.5,31.7,375.5,30.6z"/>
</g>
<rect x="394.1" y="10.1" width="0.5" height="21.4"/>
<g>
	<path d="M387.6,33.1c0-1.8,2.5-3.5,4.5-3.5c1.3,0,2.3,0.7,2.3,1.7c0,1.7-2.5,3.5-4.6,3.5C388.6,34.8,387.6,34.2,387.6,33.1z"/>
</g>
<rect x="406.3" y="10.1" width="0.5" height="14"/>
<g>
	<path d="M399.9,25.7c0-1.8,2.5-3.5,4.5-3.5c1.3,0,2.3,0.7,2.3,1.7c0,1.7-2.5,3.5-4.6,3.5C400.8,27.4,399.9,26.7,399.9,25.7z"/>
</g>
<rect x="418.4" y="11.6" width="0.5" height="17.4"/>
<g>
	<path d="M412,30.6c0-1.8,2.5-3.5,4.5-3.5c1.3,0,2.3,0.7,2.3,1.7c0,1.7-2.5,3.5-4.6,3.5C412.9,32.3,412,31.7,412,30.6z"/>
</g>
<rect x="430.5" y="13.3" width="0.5" height="18.1"/>
<g>
	<path d="M424.1,33.1c0-1.8,2.5-3.5,4.5-3.5c1.3,0,2.3,0.7,2.3,1.7c0,1.7-2.5,3.5-4.6,3.5C425,34.8,424.1,34.2,424.1,33.1z"/>
</g>
<rect x="434.3" y="34.3" width="10.5" height="0.8"/>
<rect x="442.6" y="15" width="0.5" height="21.4"/>
<g>
	<path d="M436.1,38.1c0-1.8,2.5-3.5,4.5-3.5c1.3,0,2.3,0.7,2.3,1.7c0,1.7-2.5,3.5-4.6,3.5C437.1,39.8,436.1,39.1,436.1,38.1z"/>
</g>
<rect x="454.7" y="15" width="0.5" height="14"/>
<g>
	<path d="M448.2,30.6c0-1.8,2.5-3.5,4.5-3.5c1.3,0,2.3,0.7,2.3,1.7c0,1.7-2.5,3.5-4.6,3.5C449.2,32.3,448.2,31.7,448.2,30.6z"/>
</g>
<rect x="466.9" y="16.6" width="0.5" height="14.9"/>
<g>
	<path d="M460.5,33.1c0-1.8,2.5-3.5,4.5-3.5c1.3,0,2.3,0.7,2.3,1.7c0,1.7-2.5,3.5-4.6,3.5C461.5,34.8,460.5,34.2,460.5,33.1z"/>
</g>
<rect x="470.7" y="34.3" width="10.5" height="0.8"/>
<rect x="479" y="18.3" width="0.5" height="18.1"/>
<g>
	<path d="M472.6,38.1c0-1.8,2.5-3.5,4.5-3.5c1.3,0,2.3,0.7,2.3,1.7c0,1.7-2.5,3.5-4.6,3.5C473.5,39.8,472.6,39.1,472.6,38.1z"/>
</g>
<rect x="482.8" y="34.3" width="10.5" height="0.8"/>
<rect x="482.8" y="39.3" width="10.5" height="0.8"/>
<rect x="491.1" y="20" width="0.5" height="21.4"/>
<g>
	<path d="M484.7,43c0-1.8,2.5-3.5,4.5-3.5c1.3,0,2.3,0.7,2.3,1.7c0,1.7-2.5,3.5-4.6,3.5C485.6,44.7,484.7,44.1,484.7,43z"/>
</g>
<rect x="503.2" y="15" width="0.5" height="16.4"/>
<g>
	<path d="M496.8,33.1c0-1.8,2.5-3.5,4.5-3.5c1.3,0,2.3,0.7,2.3,1.7c0,1.7-2.5,3.5-4.6,3.5C497.7,34.8,496.8,34.2,496.8,33.1z"/>
</g>
<rect x="507" y="34.3" width="10.5" height="0.8"/>
<rect x="515.3" y="16.6" width="0.5" height="19.8"/>
<g>
	<path d="M508.8,38.1c0-1.8,2.5-3.5,4.5-3.5c1.3,0,2.3,0.7,2.3,1.7c0,1.7-2.5,3.5-4.6,3.5C509.8,39.8,508.8,39.1,508.8,38.1z"/>
</g>
<rect x="519.2" y="34.3" width="10.5" height="0.8"/>
<rect x="519.2" y="39.3" width="10.5" height="0.8"/>
<rect x="527.5" y="18.3" width="0.5" height="23.1"/>
<g>
	<path d="M521.1,43c0-1.8,2.5-3.5,4.5-3.5c1.3,0,2.3,0.7,2.3,1.7c0,1.7-2.5,3.5-4.6,3.5C522.1,44.7,521.1,44.1,521.1,43z"/>
</g>
<rect x="531.3" y="34.3" width="10.5" height="0.8"/>
<rect x="531.3" y="39.3" width="10.5" height="0.8"/>
<rect x="531.3" y="44.3" width="10.5" height="0.8"/>
<rect x="539.6" y="20" width="0.5" height="26.4"/>
<g>
	<path d="M533.2,48c0-1.8,2.5-3.5,4.5-3.5c1.3,0,2.3,0.7,2.3,1.7c0,1.7-2.5,3.5-4.6,3.5C534.2,49.7,533.2,49.1,533.2,48z"/>
</g>
<rect x="57.8" y="83.6" width="10.5" height="0.8"/>
<rect x="66" y="59.4" width="0.5" height="23.9"/>
<g>
	<path d="M59.6,84.9c0-1.8,2.5-3.5,4.5-3.5c1.3,0,2.3,0.7,2.3,1.7c0,1.7-2.5,3.5-4.6,3.5C60.6,86.6,59.6,86,59.6,84.9z"/>
</g>
<g>
	<path d="M56.4,90.8v-4l-3,1.1V77.2h0.5v4l3-1.1v10.7H56.4z M53.9,86.1l2.5-0.9v-3.3l-2.5,0.9V86.1z"/>
</g>
<rect x="78.1" y="57.8" width="0.5" height="20.5"/>
<g>
	<path d="M71.7,79.9c0-1.8,2.5-3.5,4.5-3.5c1.3,0,2.3,0.7,2.3,1.7c0,1.7-2.5,3.5-4.6,3.5C72.7,81.6,71.7,81,71.7,79.9z"/>
</g>
<rect x="90.2" y="56.1" width="0.5" height="17.2"/>
<g>
	<path d="M83.8,74.9c0-1.8,2.5-3.5,4.5-3.5c1.3,0,2.3,0.7,2.3,1.7c0,1.7-2.5,3.5-4.6,3.5C84.8,76.7,83.8,76,83.8,74.9z"/>
</g>
<rect x="102.5" y="54.4" width="0.5" height="14"/>
<g>
	<path d="M96,70c0-1.8,2.5-3.5,4.5-3.5c1.3,0,2.3,0.7,2.3,1.7c0,1.7-2.5,3.5-4.6,3.5C97,71.7,96,71.1,96,70z"/>
</g>
<rect x="114.6" y="54.4" width="0.5" height="23.9"/>
<g>
	<path d="M108.1,79.9c0-1.8,2.5-3.5,4.5-3.5c1.3,0,2.3,0.7,2.3,1.7c0,1.7-2.5,3.5-4.6,3.5C109.1,81.6,108.1,81,108.1,79.9z"/>
</g>
<rect x="126.7" y="52.9" width="0.5" height="20.5"/>
<g>
	<path d="M120.2,74.9c0-1.8,2.5-3.5,4.5-3.5c1.3,0,2.3,0.7,2.3,1.7c0,1.7-2.5,3.5-4.6,3.5C121.2,76.7,120.2,76,120.2,74.9z"/>
</g>
<rect x="138.8" y="51.3" width="0.5" height="17.1"/>
<g>
	<path d="M132.3,70c0-1.8,2.5-3.5,4.5-3.5c1.3,0,2.3,0.7,2.3,1.7c0,1.7-2.5,3.5-4.6,3.5C133.3,71.7,132.3,71.1,132.3,70z"/>
</g>
<rect x="151.6" y="49.4" width="0.5" height="16.4"/>
<g>
	<path d="M145.2,67.5c0-1.8,2.5-3.5,4.5-3.5c1.3,0,2.3,0.7,2.3,1.7c0,1.7-2.5,3.5-4.6,3.5C146.2,69.2,145.2,68.6,145.2,67.5z"/>
</g>
<g>
	<path d="M143.3,73.4v-4l-3,1.1V59.9h0.5v4l3-1.1v10.7H143.3z M140.7,68.8l2.5-0.9v-3.3l-2.5,0.9V68.8z"/>
</g>
<rect x="157.2" y="74.9" width="0.5" height="14"/>
<g>
	<path d="M157.3,74.9c0-1.8,2.5-3.5,4.5-3.5c1.3,0,2.3,0.7,2.3,1.7c0,1.7-2.5,3.5-4.6,3.5C158.2,76.7,157.3,76,157.3,74.9z"/>
</g>
<rect x="169.4" y="69.9" width="0.5" height="17.4"/>
<g>
	<path d="M169.5,70c0-1.8,2.5-3.5,4.5-3.5c1.3,0,2.3,0.7,2.3,1.7c0,1.7-2.5,3.5-4.6,3.5C170.5,71.7,169.5,71.1,169.5,70z"/>
</g>
<rect x="181.5" y="67.4" width="0.5" height="18.1"/>
<g>
	<path d="M181.6,67.5c0-1.8,2.5-3.5,4.5-3.5c1.3,0,2.3,0.7,2.3,1.7c0,1.7-2.5,3.5-4.6,3.5C182.6,69.2,181.6,68.6,181.6,67.5z"/>
</g>
<rect x="193.6" y="62.5" width="0.5" height="21.4"/>
<g>
	<path d="M193.7,62.5c0-1.8,2.5-3.5,4.5-3.5c1.3,0,2.3,0.7,2.3,1.7c0,1.7-2.5,3.5-4.6,3.5C194.7,64.3,193.7,63.6,193.7,62.5z"/>
</g>
<rect x="205.7" y="69.9" width="0.5" height="14"/>
<g>
	<path d="M205.8,70c0-1.8,2.5-3.5,4.5-3.5c1.3,0,2.3,0.7,2.3,1.7c0,1.7-2.5,3.5-4.6,3.5C206.8,71.7,205.8,71.1,205.8,70z"/>
</g>
<rect x="217.8" y="67.4" width="0.5" height="14.9"/>
<g>
	<path d="M217.9,67.5c0-1.8,2.5-3.5,4.5-3.5c1.3,0,2.3,0.7,2.3,1.7c0,1.7-2.5,3.5-4.6,3.5C218.9,69.2,217.9,68.6,217.9,67.5z"/>
</g>
<rect x="230.1" y="62.5" width="0.5" height="18.1"/>
<g>
	<path d="M230.1,62.5c0-1.8,2.5-3.5,4.5-3.5c1.3,0,2.3,0.7,2.3,1.7c0,1.7-2.5,3.5-4.6,3.5C231.1,64.3,230.1,63.6,230.1,62.5z"/>
</g>
<rect x="242.1" y="57.5" width="0.5" height="21.4"/>
<g>
	<path d="M242.2,57.6c0-1.8,2.5-3.5,4.5-3.5c1.3,0,2.3,0.7,2.3,1.7c0,1.7-2.5,3.5-4.6,3.5C243.2,59.3,242.2,58.7,242.2,57.6z"/>
</g>
<rect x="254.2" y="67.4" width="0.5" height="16.4"/>
<g>
	<path d="M254.3,67.5c0-1.8,2.5-3.5,4.5-3.5c1.3,0,2.3,0.7,2.3,1.7c0,1.7-2.5,3.5-4.6,3.5C255.3,69.2,254.3,68.6,254.3,67.5z"/>
</g>
<rect x="266.3" y="62.5" width="0.5" height="19.8"/>
<g>
	<path d="M266.4,62.5c0-1.8,2.5-3.5,4.5-3.5c1.3,0,2.3,0.7,2.3,1.7c0,1.7-2.5,3.5-4.6,3.5C267.4,64.3,266.4,63.6,266.4,62.5z"/>
</g>
<rect x="278.4" y="57.5" width="0.5" height="23.1"/>
<g>
	<path d="M278.5,57.6c0-1.8,2.5-3.5,4.5-3.5c1.3,0,2.3,0.7,2.3,1.7c0,1.7-2.5,3.5-4.6,3.5C279.5,59.3,278.5,58.7,278.5,57.6z"/>
</g>
<rect x="288.9" y="53.9" width="10.5" height="0.8"/>
<rect x="290.7" y="52.5" width="0.5" height="26.4"/>
<g>
	<path d="M290.7,52.6c0-1.8,2.5-3.5,4.5-3.5c1.3,0,2.3,0.7,2.3,1.7c0,1.7-2.5,3.5-4.6,3.5C291.7,54.4,290.7,53.7,290.7,52.6z"/>
</g>
<rect x="301" y="53.9" width="10.5" height="0.8"/>
<rect x="302.8" y="52.5" width="0.5" height="26.4"/>
<g>
	<path d="M302.8,52.6c0-1.8,2.5-3.5,4.5-3.5c1.3,0,2.3,0.7,2.3,1.7c0,1.7-2.5,3.5-4.6,3.5C303.8,54.4,302.8,53.7,302.8,52.6z"/>
</g>
<rect x="314.8" y="57.5" width="0.5" height="22.9"/>
<g>
	<path d="M314.9,57.6c0-1.8,2.5-3.5,4.5-3.5c1.3,0,2.3,0.7,2.3,1.7c0,1.7-2.5,3.5-4.6,3.5C315.9,59.3,314.9,58.7,314.9,57.6z"/>
</g>
<rect x="326.9" y="62.5" width="0.5" height="19.7"/>
<g>
	<path d="M327,62.5c0-1.8,2.5-3.5,4.5-3.5c1.3,0,2.3,0.7,2.3,1.7c0,1.7-2.5,3.5-4.6,3.5C328,64.3,327,63.6,327,62.5z"/>
</g>
<rect x="339.2" y="67.4" width="0.5" height="16.4"/>
<g>
	<path d="M339.3,67.5c0-1.8,2.5-3.5,4.5-3.5c1.3,0,2.3,0.7,2.3,1.7c0,1.7-2.5,3.5-4.6,3.5C340.2,69.2,339.3,68.6,339.3,67.5z"/>
</g>
<rect x="351.3" y="57.5" width="0.5" height="21.4"/>
<g>
	<path d="M351.4,57.6c0-1.8,2.5-3.5,4.5-3.5c1.3,0,2.3,0.7,2.3,1.7c0,1.7-2.5,3.5-4.6,3.5C352.3,59.3,351.4,58.7,351.4,57.6z"/>
</g>
<rect x="363.4" y="62.5" width="0.5" height="18"/>
<g>
	<path d="M363.4,62.5c0-1.8,2.5-3.5,4.5-3.5c1.3,0,2.3,0.7,2.3,1.7c0,1.7-2.5,3.5-4.6,3.5C364.4,64.3,363.4,63.6,363.4,62.5z"/>
</g>
<rect x="375.5" y="67.4" width="0.5" height="14.7"/>
<g>
	<path d="M375.5,67.5c0-1.8,2.5-3.5,4.5-3.5c1.3,0,2.3,0.7,2.3,1.7c0,1.7-2.5,3.5-4.6,3.5C376.5,69.2,375.5,68.6,375.5,67.5z"/>
</g>
<rect x="387.5" y="69.9" width="0.5" height="14"/>
<g>
	<path d="M387.6,70c0-1.8,2.5-3.5,4.5-3.5c1.3,0,2.3,0.7,2.3,1.7c0,1.7-2.5,3.5-4.6,3.5C388.6,71.7,387.6,71.1,387.6,70z"/>
</g>
<rect x="399.8" y="62.5" width="0.5" height="21.4"/>
<g>
	<path d="M399.9,62.5c0-1.8,2.5-3.5,4.5-3.5c1.3,0,2.3,0.7,2.3,1.7c0,1.7-2.5,3.5-4.6,3.5C400.8,64.3,399.9,63.6,399.9,62.5z"/>
</g>
<rect x="411.9" y="67.4" width="0.5" height="18"/>
<g>
	<path d="M412,67.5c0-1.8,2.5-3.5,4.5-3.5c1.3,0,2.3,0.7,2.3,1.7c0,1.7-2.5,3.5-4.6,3.5C412.9,69.2,412,68.6,412,67.5z"/>
</g>
<rect x="424" y="69.9" width="0.5" height="17.2"/>
<g>
	<path d="M424.1,70c0-1.8,2.5-3.5,4.5-3.5c1.3,0,2.3,0.7,2.3,1.7c0,1.7-2.5,3.5-4.6,3.5C425,71.7,424.1,71.1,424.1,70z"/>
</g>
<rect x="436.1" y="74.9" width="0.5" height="14"/>
<g>
	<path d="M436.1,74.9c0-1.8,2.5-3.5,4.5-3.5c1.3,0,2.3,0.7,2.3,1.7c0,1.7-2.5,3.5-4.6,3.5C437.1,76.7,436.1,76,436.1,74.9z"/>
</g>
<rect x="454.7" y="49.4" width="0.5" height="16.4"/>
<g>
	<path d="M448.2,67.5c0-1.8,2.5-3.5,4.5-3.5c1.3,0,2.3,0.7,2.3,1.7c0,1.7-2.5,3.5-4.6,3.5C449.2,69.2,448.2,68.6,448.2,67.5z"/>
</g>
<rect x="466.9" y="51" width="0.5" height="17.4"/>
<g>
	<path d="M460.5,70c0-1.8,2.5-3.5,4.5-3.5c1.3,0,2.3,0.7,2.3,1.7c0,1.7-2.5,3.5-4.6,3.5C461.5,71.7,460.5,71.1,460.5,70z"/>
</g>
<rect x="479" y="52.7" width="0.5" height="20.6"/>
<g>
	<path d="M472.6,74.9c0-1.8,2.5-3.5,4.5-3.5c1.3,0,2.3,0.7,2.3,1.7c0,1.7-2.5,3.5-4.6,3.5C473.5,76.7,472.6,76,472.6,74.9z"/>
</g>
<rect x="491.1" y="54.4" width="0.5" height="23.9"/>
<g>
	<path d="M484.7,79.9c0-1.8,2.5-3.5,4.5-3.5c1.3,0,2.3,0.7,2.3,1.7c0,1.7-2.5,3.5-4.6,3.5C485.6,81.6,484.7,81,484.7,79.9z"/>
</g>
<rect x="503.2" y="54.4" width="0.5" height="14"/>
<g>
	<path d="M496.8,70c0-1.8,2.5-3.5,4.5-3.5c1.3,0,2.3,0.7,2.3,1.7c0,1.7-2.5,3.5-4.6,3.5C497.7,71.7,496.8,71.1,496.8,70z"/>
</g>
<rect x="515.3" y="56" width="0.5" height="17.4"/>
<g>
	<path d="M508.8,74.9c0-1.8,2.5-3.5,4.5-3.5c1.3,0,2.3,0.7,2.3,1.7c0,1.7-2.5,3.5-4.6,3.5C509.8,76.7,508.8,76,508.8,74.9z"/>
</g>
<rect x="527.5" y="57.7" width="0.5" height="20.6"/>
<g>
	<path d="M521.1,79.9c0-1.8,2.5-3.5,4.5-3.5c1.3,0,2.3,0.7,2.3,1.7c0,1.7-2.5,3.5-4.6,3.5C522.1,81.6,521.1,81,521.1,79.9z"/>
</g>
<rect x="531.3" y="83.6" width="10.5" height="0.8"/>
<rect x="539.6" y="59.4" width="0.5" height="23.9"/>
<g>
	<path d="M533.2,84.9c0-1.8,2.5-3.5,4.5-3.5c1.3,0,2.3,0.7,2.3,1.7c0,1.7-2.5,3.5-4.6,3.5C534.2,86.6,533.2,86,533.2,84.9z"/>
</g>
</svg>
