<?xml version="1.0" encoding="utf-8"?>

<!--
	ScaleBook
	Copyright (c) Leland Jansen 2015. All rights reserved.
-->

<!DOCTYPE svg PUBLIC "-//W3C//DTD SVG 1.1//EN" "http://www.w3.org/Graphics/SVG/1.1/DTD/svg11.dtd">
<svg version="1.1" id="Layer_1" xmlns="http://www.w3.org/2000/svg" xmlns:xlink="http://www.w3.org/1999/xlink" x="0px" y="0px"
	 viewBox="0 0 552.9 82.5" enable-background="new 0 0 552.9 82.5" xml:space="preserve">
<rect x="8.4" y="9.3" width="0.8" height="67"/>
<g>
	<path d="M7.4,10c-1.9,1.1-3.6,5.8-3.6,9.4c0,2.3,1.4,9.9,1.4,12.3c0,5-1.5,8.6-4.6,11.1c3,2.4,4.6,6.1,4.6,11.1
		c0,2.3-1.4,9.9-1.4,12.3c0,3.8,1.7,8.4,3.6,9.5v0.7C3.9,74,1.7,68,1.7,63.2c0-2.1,1.7-9.4,1.7-11.5c0-3.8-1-6.6-2.9-8.2
		C0.1,43.2,0,43,0,42.8c0-0.2,0.1-0.4,0.5-0.7c1.9-1.7,2.9-4.2,2.9-7.6c0-2.1-1.7-10-1.7-12.2c0-5.2,2.1-10.4,5.8-13.1V10z"/>
</g>
<rect x="547.8" y="9.3" width="0.8" height="67"/>
<rect x="550.4" y="9.3" width="2.5" height="67"/>
<rect x="8.5" y="28.9" width="544.4" height="0.5"/>
<rect x="8.5" y="24" width="544.4" height="0.5"/>
<rect x="8.5" y="19" width="544.4" height="0.5"/>
<rect x="8.5" y="14" width="544.4" height="0.5"/>
<rect x="8.5" y="9.1" width="544.4" height="0.5"/>
<g>
	<path d="M20.3,29c-4.2,0-8.1-3.1-8.1-6.9c0-3.2,2.3-6.7,6.8-10.5c-0.3-1.2-0.4-2.4-0.4-3.6c0-3.5,1.2-6.8,3.2-8.5
		c1.8,2.5,2.7,4.9,2.7,7.1c0,2.9-1.3,5.6-4.3,8.1L21,19c0.5,0,0.8-0.1,0.8-0.1c2.6,0,4.8,2,4.8,4.7c0,1.9-1.4,3.7-3.6,4.8
		c0-0.1,0.9,3.8,0.9,4.3c0,2.5-2.3,4.2-4.9,4.2c-2,0-3.6-1.3-3.6-3.4c0-1.4,1-2.6,2.4-2.6c1.3,0,2.3,1.3,2.3,2.5
		c0,1.4-1.2,2.3-2.7,2.5c0.6,0.3,1.2,0.5,1.9,0.5c2.1,0,4.1-1.6,4.1-3.6c0-0.2,0-0.4-0.1-0.6l-0.8-3.7C21.9,28.8,21.2,29,20.3,29z
		 M18.1,23.8c0,1,0.5,1.9,1.6,2.5c-1.8-0.3-3-1.4-3-3.1c0-2,1.7-3.7,3.8-4.1l-0.8-4C16,17.9,14,20.6,14,23.2c0,2.9,2.8,5.3,6,5.3
		c0.9,0,1.7-0.2,2.4-0.5L21,21.2C19.4,21.4,18.1,22.4,18.1,23.8z M22.1,2.4c-1.6,0-2.9,3.7-2.9,7c0,0.7,0,1.3,0.2,1.9
		c2.7-2.4,4-4.5,4-6.5c0-0.9-0.3-1.7-1-2.4C22.4,2.4,22.3,2.4,22.1,2.4z M24.9,24.3c0-1.6-1.2-3.3-2.9-3.3c-0.1,0-0.2,0-0.5,0
		l1.4,6.6C24.2,26.8,24.9,25.6,24.9,24.3z"/>
</g>
<g>
	<path d="M33.5,2.5v2.8l1-0.3v1.8l-1,0.3v3.4l1-0.3V12l-1,0.3v3.1H33v-3l-1.9,0.6v3h-0.5v-2.8l-1,0.3v-1.8l1-0.3V8l-1,0.3V6.6l1-0.3
		V3.1h0.5v3L33,5.5v-3H33.5z M33,7.3l-1.9,0.6v3.4l1.9-0.6V7.3z"/>
</g>
<g>
	<path d="M39.7,9.9v2.8l1-0.3v1.8l-1,0.3V18l1-0.3v1.8l-1,0.3v3.1h-0.5v-3l-1.9,0.6v3h-0.5v-2.8l-1,0.3v-1.8l1-0.3v-3.4l-1,0.3V14
		l1-0.3v-3.1h0.5v3l1.9-0.6v-3H39.7z M39.2,14.7l-1.9,0.6v3.4l1.9-0.6V14.7z"/>
</g>
<g>
	<path d="M45.9,0v2.8l1-0.3v1.8l-1,0.3v3.4l1-0.3v1.8l-1,0.3V13h-0.5v-3l-1.9,0.6v3H43v-2.8l-1,0.3V9.3L43,9V5.6l-1,0.3V4.1l1-0.3
		V0.6h0.5v3L45.4,3V0H45.9z M45.4,4.8l-1.9,0.6v3.4l1.9-0.6V4.8z"/>
</g>
<g>
	<path d="M52.1,7.4v2.8l1-0.3v1.8l-1,0.3v3.4l1-0.3V17l-1,0.3v3.1h-0.5v-3l-1.9,0.6v3h-0.5v-2.8l-1,0.3v-1.8l1-0.3V13l-1,0.3v-1.8
		l1-0.3V8.1h0.5v3l1.9-0.6v-3H52.1z M51.6,12.2l-1.9,0.6v3.4l1.9-0.6V12.2z"/>
</g>
<g>
	<path d="M58.3,14.9v2.8l1-0.3v1.8l-1,0.3V23l1-0.3v1.8l-1,0.3v3.1h-0.5v-3l-1.9,0.6v3h-0.5v-2.8l-1,0.3v-1.8l1-0.3v-3.4l-1,0.3V19
		l1-0.3v-3.1h0.5v3l1.9-0.6v-3H58.3z M57.8,19.7l-1.9,0.6v3.4l1.9-0.6V19.7z"/>
</g>
<polygon fill-rule="evenodd" clip-rule="evenodd" points="76.5,25.4 112,20.5 112,18 76.5,22.9 "/>
<polygon fill-rule="evenodd" clip-rule="evenodd" points="76.5,21.7 112,16.7 112,14.3 76.5,19.2 "/>
<polygon fill-rule="evenodd" clip-rule="evenodd" points="123.8,20.5 161.9,15.5 161.9,13 123.8,18 "/>
<polygon fill-rule="evenodd" clip-rule="evenodd" points="123.8,16.7 161.9,11.8 161.9,9.3 123.8,14.3 "/>
<polygon fill-rule="evenodd" clip-rule="evenodd" points="173.7,15.5 209.2,10.5 209.2,8.1 173.7,13 "/>
<polygon fill-rule="evenodd" clip-rule="evenodd" points="173.7,11.8 209.2,6.8 209.2,4.3 173.7,9.3 "/>
<polygon fill-rule="evenodd" clip-rule="evenodd" points="221,14.3 256.5,9.3 256.5,6.8 221,11.8 "/>
<polygon fill-rule="evenodd" clip-rule="evenodd" points="221,10.5 256.5,5.6 256.5,3.1 221,8.1 "/>
<polygon fill-rule="evenodd" clip-rule="evenodd" points="261.8,36.6 297.3,31.6 297.3,29.1 261.8,34.1 "/>
<polygon fill-rule="evenodd" clip-rule="evenodd" points="261.8,40.3 297.3,35.3 297.3,32.9 261.8,37.8 "/>
<polygon fill-rule="evenodd" clip-rule="evenodd" points="309,31.6 344.5,36.6 344.5,34.1 309,29.1 "/>
<polygon fill-rule="evenodd" clip-rule="evenodd" points="309,35.3 344.5,40.3 344.5,37.8 309,32.9 "/>
<polygon fill-rule="evenodd" clip-rule="evenodd" points="362.8,9.3 398.3,14.3 398.3,11.8 362.8,6.8 "/>
<polygon fill-rule="evenodd" clip-rule="evenodd" points="362.8,5.6 398.3,10.5 398.3,8.1 362.8,3.1 "/>
<polygon fill-rule="evenodd" clip-rule="evenodd" points="410.1,10.5 445.6,15.5 445.6,13 410.1,8.1 "/>
<polygon fill-rule="evenodd" clip-rule="evenodd" points="410.1,6.8 445.6,11.8 445.6,9.3 410.1,4.3 "/>
<polygon fill-rule="evenodd" clip-rule="evenodd" points="457.4,15.5 492.9,20.5 492.9,18 457.4,13 "/>
<polygon fill-rule="evenodd" clip-rule="evenodd" points="457.4,11.8 492.9,16.7 492.9,14.3 457.4,9.3 "/>
<polygon fill-rule="evenodd" clip-rule="evenodd" points="504.7,20.5 540.2,25.4 540.2,22.9 504.7,18 "/>
<polygon fill-rule="evenodd" clip-rule="evenodd" points="504.7,16.7 540.2,21.7 540.2,19.2 504.7,14.3 "/>
<rect x="8.5" y="76" width="544.4" height="0.5"/>
<rect x="8.5" y="71.1" width="544.4" height="0.5"/>
<rect x="8.5" y="66.1" width="544.4" height="0.5"/>
<rect x="8.5" y="61.2" width="544.4" height="0.5"/>
<rect x="8.5" y="56.2" width="544.4" height="0.5"/>
<g>
	<path d="M15.7,70.6c2.9-2.6,4.7-6.1,4.7-9.2c0-2.5-1.4-4.4-3.7-4.4c-1.6,0-3.4,1.3-3.4,2.7c0,0.2,0,0.3,0.1,0.3
		c-0.1,0,0.6-0.6,1.4-0.6c0.9,0,1.5,0.8,1.5,1.7c0,1.2-0.9,2.2-2.1,2.2c-1.2,0-2.1-1.3-2.1-2.8c0-2.3,2.3-4.1,4.8-4.1
		c4.7,0,5.9,3.2,5.9,5.8c0,1.6-0.4,2.9-2,5.3c-1.9,3.1-6.4,5.3-8.1,5.3c-0.4,0-0.6-0.2-0.6-0.5C13.8,71.9,14.9,71.3,15.7,70.6z
		 M25.7,57.9c0.6,0,1,0.4,1,1c0,0.6-0.4,1-1,1s-1-0.4-1-1C24.7,58.4,25.1,57.9,25.7,57.9z M25.7,62.9c0.6,0,1,0.4,1,1
		c0,0.6-0.4,1-1,1s-1-0.4-1-1C24.7,63.3,25.1,62.9,25.7,62.9z"/>
</g>
<g>
	<path d="M33.5,54.6v2.8l1-0.3v1.8l-1,0.3v3.4l1-0.3v1.8l-1,0.3v3.1H33v-3l-1.9,0.6v3h-0.5v-2.8l-1,0.3v-1.8l1-0.3v-3.4l-1,0.3v-1.8
		l1-0.3v-3.1h0.5v3l1.9-0.6v-3H33.5z M33,59.3L31.1,60v3.4l1.9-0.6V59.3z"/>
</g>
<g>
	<path d="M39.7,62v2.8l1-0.3v1.8l-1,0.3v3.4l1-0.3v1.8l-1,0.3V75h-0.5v-3l-1.9,0.6v3h-0.5v-2.8l-1,0.3v-1.8l1-0.3v-3.4l-1,0.3v-1.8
		l1-0.3v-3.1h0.5v3l1.9-0.6v-3H39.7z M39.2,66.8l-1.9,0.6v3.4l1.9-0.6V66.8z"/>
</g>
<g>
	<path d="M45.9,52.1v2.8l1-0.3v1.8l-1,0.3v3.4l1-0.3v1.8l-1,0.3v3.1h-0.5v-3l-1.9,0.6v3H43v-2.8l-1,0.3v-1.8l1-0.3v-3.4l-1,0.3v-1.8
		l1-0.3v-3.1h0.5v3l1.9-0.6v-3H45.9z M45.4,56.9l-1.9,0.6v3.4l1.9-0.6V56.9z"/>
</g>
<g>
	<path d="M52.1,59.5v2.8l1-0.3v1.8l-1,0.3v3.4l1-0.3v1.8l-1,0.3v3.1h-0.5v-3l-1.9,0.6v3h-0.5v-2.8l-1,0.3v-1.8l1-0.3v-3.4l-1,0.3
		v-1.8l1-0.3v-3.1h0.5v3l1.9-0.6v-3H52.1z M51.6,64.3l-1.9,0.6v3.4l1.9-0.6V64.3z"/>
</g>
<g>
	<path d="M58.3,67v2.8l1-0.3v1.8l-1,0.3V75l1-0.3v1.8l-1,0.3V80h-0.5v-3l-1.9,0.6v3h-0.5v-2.8l-1,0.3v-1.8l1-0.3v-3.4l-1,0.3v-1.8
		l1-0.3v-3.1h0.5v3l1.9-0.6v-3H58.3z M57.8,71.7l-1.9,0.6v3.4l1.9-0.6V71.7z"/>
</g>
<polygon fill-rule="evenodd" clip-rule="evenodd" points="76.5,61.4 112,56.4 112,53.9 76.5,58.9 "/>
<polygon fill-rule="evenodd" clip-rule="evenodd" points="76.5,57.7 112,52.7 112,50.2 76.5,55.2 "/>
<polygon fill-rule="evenodd" clip-rule="evenodd" points="123.8,57.7 161.9,52.7 161.9,50.2 123.8,55.2 "/>
<polygon fill-rule="evenodd" clip-rule="evenodd" points="123.8,53.9 161.9,49 161.9,46.5 123.8,51.5 "/>
<polygon fill-rule="evenodd" clip-rule="evenodd" points="167.2,78.7 202.7,73.8 202.7,71.3 167.2,76.3 "/>
<polygon fill-rule="evenodd" clip-rule="evenodd" points="167.2,82.5 202.7,77.5 202.7,75 167.2,80 "/>
<polygon fill-rule="evenodd" clip-rule="evenodd" points="214.5,77.5 250,72.5 250,70.1 214.5,75 "/>
<polygon fill-rule="evenodd" clip-rule="evenodd" points="214.5,81.2 250,76.3 250,73.8 214.5,78.7 "/>
<polygon fill-rule="evenodd" clip-rule="evenodd" points="261.8,72.5 297.3,67.6 297.3,65.1 261.8,70.1 "/>
<polygon fill-rule="evenodd" clip-rule="evenodd" points="261.8,76.3 297.3,71.3 297.3,68.8 261.8,73.8 "/>
<polygon fill-rule="evenodd" clip-rule="evenodd" points="309,67.6 344.5,72.5 344.5,70.1 309,65.1 "/>
<polygon fill-rule="evenodd" clip-rule="evenodd" points="309,71.3 344.5,76.3 344.5,73.8 309,68.8 "/>
<polygon fill-rule="evenodd" clip-rule="evenodd" points="356.3,72.5 391.8,77.5 391.8,75 356.3,70.1 "/>
<polygon fill-rule="evenodd" clip-rule="evenodd" points="356.3,76.3 391.8,81.2 391.8,78.7 356.3,73.8 "/>
<polygon fill-rule="evenodd" clip-rule="evenodd" points="403.6,73.8 439.1,78.7 439.1,76.3 403.6,71.3 "/>
<polygon fill-rule="evenodd" clip-rule="evenodd" points="403.6,77.5 439.1,82.5 439.1,80 403.6,75 "/>
<polygon fill-rule="evenodd" clip-rule="evenodd" points="457.4,52.7 492.9,57.7 492.9,55.2 457.4,50.2 "/>
<polygon fill-rule="evenodd" clip-rule="evenodd" points="457.4,49 492.9,53.9 492.9,51.5 457.4,46.5 "/>
<polygon fill-rule="evenodd" clip-rule="evenodd" points="504.7,56.4 540.2,61.4 540.2,58.9 504.7,53.9 "/>
<polygon fill-rule="evenodd" clip-rule="evenodd" points="504.7,52.7 540.2,57.7 540.2,55.2 504.7,50.2 "/>
<rect x="68" y="33.7" width="10.5" height="0.8"/>
<rect x="68" y="38.7" width="10.5" height="0.8"/>
<rect x="68" y="43.6" width="10.5" height="0.8"/>
<rect x="76.3" y="19.4" width="0.5" height="23.9"/>
<g>
	<path d="M69.8,44.9c0-1.8,2.5-3.5,4.5-3.5c1.3,0,2.3,0.7,2.3,1.7c0,1.7-2.5,3.5-4.6,3.5C70.8,46.6,69.8,46,69.8,44.9z"/>
</g>
<g>
	<path d="M65.7,46.5c0-0.8-0.4-1.5-1.1-2.2c-0.7,0.7-1.1,1.4-1.1,2.2h-1.4v-1.4c0.8,0,1.5-0.3,2.2-1c-0.7-0.7-1.4-1.1-2.2-1.1v-1.4
		h1.4c0,0.8,0.4,1.5,1.1,2.2c0.7-0.7,1.1-1.4,1.1-2.2h1.4V43c-0.8,0-1.5,0.4-2.2,1.1c0.7,0.7,1.4,1,2,1h0.2v1.4H65.7z"/>
</g>
<rect x="79.8" y="33.7" width="10.5" height="0.8"/>
<rect x="79.8" y="38.7" width="10.5" height="0.8"/>
<rect x="88.1" y="17.8" width="0.5" height="20.5"/>
<g>
	<path d="M81.6,39.9c0-1.8,2.5-3.5,4.5-3.5c1.3,0,2.3,0.7,2.3,1.7c0,1.7-2.5,3.5-4.6,3.5C82.6,41.6,81.6,41,81.6,39.9z"/>
</g>
<rect x="91.7" y="33.7" width="10.5" height="0.8"/>
<rect x="100" y="16.1" width="0.5" height="17.2"/>
<g>
	<path d="M93.6,35c0-1.8,2.5-3.5,4.5-3.5c1.3,0,2.3,0.7,2.3,1.7c0,1.7-2.5,3.5-4.6,3.5C94.5,36.7,93.6,36,93.6,35z"/>
</g>
<rect x="111.8" y="14.4" width="0.5" height="14"/>
<g>
	<path d="M105.3,30c0-1.8,2.5-3.5,4.5-3.5c1.3,0,2.3,0.7,2.3,1.7c0,1.7-2.5,3.5-4.6,3.5C106.3,31.7,105.3,31.1,105.3,30z"/>
</g>
<rect x="115.3" y="33.7" width="10.5" height="0.8"/>
<rect x="115.3" y="38.7" width="10.5" height="0.8"/>
<rect x="123.6" y="14.4" width="0.5" height="23.9"/>
<g>
	<path d="M117.1,39.9c0-1.8,2.5-3.5,4.5-3.5c1.3,0,2.3,0.7,2.3,1.7c0,1.7-2.5,3.5-4.6,3.5C118.1,41.6,117.1,41,117.1,39.9z"/>
</g>
<rect x="127" y="33.7" width="10.5" height="0.8"/>
<rect x="135.3" y="13" width="0.5" height="20.3"/>
<g>
	<path d="M128.9,35c0-1.8,2.5-3.5,4.5-3.5c1.3,0,2.3,0.7,2.3,1.7c0,1.7-2.5,3.5-4.6,3.5C129.9,36.7,128.9,36,128.9,35z"/>
</g>
<rect x="147.3" y="11.5" width="0.5" height="16.9"/>
<g>
	<path d="M140.8,30c0-1.8,2.5-3.5,4.5-3.5c1.3,0,2.3,0.7,2.3,1.7c0,1.7-2.5,3.5-4.6,3.5C141.8,31.7,140.8,31.1,140.8,30z"/>
</g>
<rect x="161.7" y="9.5" width="0.5" height="16.4"/>
<g>
	<path d="M155.3,27.5c0-1.8,2.5-3.5,4.5-3.5c1.3,0,2.3,0.7,2.3,1.7c0,1.7-2.5,3.5-4.6,3.5C156.2,29.2,155.3,28.6,155.3,27.5z"/>
</g>
<g>
	<path d="M152.3,29.1c0-0.8-0.4-1.5-1.1-2.2c-0.7,0.7-1.1,1.4-1.1,2.2h-1.4v-1.4c0.8,0,1.5-0.3,2.2-1c-0.7-0.7-1.4-1.1-2.2-1.1v-1.4
		h1.4c0,0.8,0.4,1.5,1.1,2.2c0.7-0.7,1.1-1.4,1.1-2.2h1.4v1.4c-0.8,0-1.5,0.4-2.2,1.1c0.7,0.7,1.4,1,2,1h0.2v1.4H152.3z"/>
</g>
<rect x="165.2" y="33.7" width="10.5" height="0.8"/>
<rect x="173.5" y="9.5" width="0.5" height="23.9"/>
<g>
	<path d="M167,35c0-1.8,2.5-3.5,4.5-3.5c1.3,0,2.3,0.7,2.3,1.7c0,1.7-2.5,3.5-4.6,3.5C168,36.7,167,36,167,35z"/>
</g>
<rect x="185.3" y="7.9" width="0.5" height="20.5"/>
<g>
	<path d="M178.8,30c0-1.8,2.5-3.5,4.5-3.5c1.3,0,2.3,0.7,2.3,1.7c0,1.7-2.5,3.5-4.6,3.5C179.8,31.7,178.8,31.1,178.8,30z"/>
</g>
<rect x="197" y="6.2" width="0.5" height="19.7"/>
<g>
	<path d="M190.6,27.5c0-1.8,2.5-3.5,4.5-3.5c1.3,0,2.3,0.7,2.3,1.7c0,1.7-2.5,3.5-4.6,3.5C191.6,29.2,190.6,28.6,190.6,27.5z"/>
</g>
<rect x="209" y="4.5" width="0.5" height="16.4"/>
<g>
	<path d="M202.5,22.6c0-1.8,2.5-3.5,4.5-3.5c1.3,0,2.3,0.7,2.3,1.7c0,1.7-2.5,3.5-4.6,3.5C203.5,24.3,202.5,23.6,202.5,22.6z"/>
</g>
<rect x="220.8" y="8.2" width="0.5" height="20.2"/>
<g>
	<path d="M214.3,30c0-1.8,2.5-3.5,4.5-3.5c1.3,0,2.3,0.7,2.3,1.7c0,1.7-2.5,3.5-4.6,3.5C215.3,31.7,214.3,31.1,214.3,30z"/>
</g>
<rect x="232.5" y="6.7" width="0.5" height="19.2"/>
<g>
	<path d="M226.1,27.5c0-1.8,2.5-3.5,4.5-3.5c1.3,0,2.3,0.7,2.3,1.7c0,1.7-2.5,3.5-4.6,3.5C227.1,29.2,226.1,28.6,226.1,27.5z"/>
</g>
<rect x="244.3" y="5" width="0.5" height="16"/>
<g>
	<path d="M237.9,22.6c0-1.8,2.5-3.5,4.5-3.5c1.3,0,2.3,0.7,2.3,1.7c0,1.7-2.5,3.5-4.6,3.5C238.9,24.3,237.9,23.6,237.9,22.6z"/>
</g>
<rect x="256.3" y="3.3" width="0.5" height="12.7"/>
<g>
	<path d="M249.8,17.6c0-1.8,2.5-3.5,4.5-3.5c1.3,0,2.3,0.7,2.3,1.7c0,1.7-2.5,3.5-4.6,3.5C250.8,19.3,249.8,18.7,249.8,17.6z"/>
</g>
<rect x="261.5" y="27.4" width="0.5" height="12.7"/>
<g>
	<path d="M261.6,27.5c0-1.8,2.5-3.5,4.5-3.5c1.3,0,2.3,0.7,2.3,1.7c0,1.7-2.5,3.5-4.6,3.5C262.6,29.2,261.6,28.6,261.6,27.5z"/>
</g>
<rect x="273.3" y="22.5" width="0.5" height="16.1"/>
<g>
	<path d="M273.4,22.6c0-1.8,2.5-3.5,4.5-3.5c1.3,0,2.3,0.7,2.3,1.7c0,1.7-2.5,3.5-4.6,3.5C274.4,24.3,273.4,23.6,273.4,22.6z"/>
</g>
<rect x="285.1" y="17.5" width="0.5" height="19.4"/>
<g>
	<path d="M285.2,17.6c0-1.8,2.5-3.5,4.5-3.5c1.3,0,2.3,0.7,2.3,1.7c0,1.7-2.5,3.5-4.6,3.5C286.1,19.3,285.2,18.7,285.2,17.6z"/>
</g>
<rect x="297" y="12.6" width="0.5" height="22.6"/>
<g>
	<path d="M297.1,12.6c0-1.8,2.5-3.5,4.5-3.5c1.3,0,2.3,0.7,2.3,1.7c0,1.7-2.5,3.5-4.6,3.5C298.1,14.4,297.1,13.7,297.1,12.6z"/>
</g>
<rect x="308.8" y="12.6" width="0.5" height="22.6"/>
<g>
	<path d="M308.9,12.6c0-1.8,2.5-3.5,4.5-3.5c1.3,0,2.3,0.7,2.3,1.7c0,1.7-2.5,3.5-4.6,3.5C309.9,14.4,308.9,13.7,308.9,12.6z"/>
</g>
<rect x="320.6" y="17.5" width="0.5" height="19.2"/>
<g>
	<path d="M320.7,17.6c0-1.8,2.5-3.5,4.5-3.5c1.3,0,2.3,0.7,2.3,1.7c0,1.7-2.5,3.5-4.6,3.5C321.6,19.3,320.7,18.7,320.7,17.6z"/>
</g>
<rect x="332.4" y="22.5" width="0.5" height="16"/>
<g>
	<path d="M332.4,22.6c0-1.8,2.5-3.5,4.5-3.5c1.3,0,2.3,0.7,2.3,1.7c0,1.7-2.5,3.5-4.6,3.5C333.4,24.3,332.4,23.6,332.4,22.6z"/>
</g>
<rect x="344.3" y="27.4" width="0.5" height="12.7"/>
<g>
	<path d="M344.4,27.5c0-1.8,2.5-3.5,4.5-3.5c1.3,0,2.3,0.7,2.3,1.7c0,1.7-2.5,3.5-4.6,3.5C345.3,29.2,344.4,28.6,344.4,27.5z"/>
</g>
<rect x="362.6" y="3.3" width="0.5" height="12.7"/>
<g>
	<path d="M356.2,17.6c0-1.8,2.5-3.5,4.5-3.5c1.3,0,2.3,0.7,2.3,1.7c0,1.7-2.5,3.5-4.6,3.5C357.1,19.3,356.2,18.7,356.2,17.6z"/>
</g>
<rect x="374.4" y="4.8" width="0.5" height="16.1"/>
<g>
	<path d="M367.9,22.6c0-1.8,2.5-3.5,4.5-3.5c1.3,0,2.3,0.7,2.3,1.7c0,1.7-2.5,3.5-4.6,3.5C368.9,24.3,367.9,23.6,367.9,22.6z"/>
</g>
<rect x="386.2" y="6.5" width="0.5" height="19.4"/>
<g>
	<path d="M379.7,27.5c0-1.8,2.5-3.5,4.5-3.5c1.3,0,2.3,0.7,2.3,1.7c0,1.7-2.5,3.5-4.6,3.5C380.7,29.2,379.7,28.6,379.7,27.5z"/>
</g>
<rect x="398.1" y="8.2" width="0.5" height="20.2"/>
<g>
	<path d="M391.7,30c0-1.8,2.5-3.5,4.5-3.5c1.3,0,2.3,0.7,2.3,1.7c0,1.7-2.5,3.5-4.6,3.5C392.6,31.7,391.7,31.1,391.7,30z"/>
</g>
<rect x="409.9" y="4.5" width="0.5" height="16.4"/>
<g>
	<path d="M403.4,22.6c0-1.8,2.5-3.5,4.5-3.5c1.3,0,2.3,0.7,2.3,1.7c0,1.7-2.5,3.5-4.6,3.5C404.4,24.3,403.4,23.6,403.4,22.6z"/>
</g>
<rect x="421.7" y="6" width="0.5" height="19.8"/>
<g>
	<path d="M415.2,27.5c0-1.8,2.5-3.5,4.5-3.5c1.3,0,2.3,0.7,2.3,1.7c0,1.7-2.5,3.5-4.6,3.5C416.2,29.2,415.2,28.6,415.2,27.5z"/>
</g>
<rect x="433.4" y="7.8" width="0.5" height="20.6"/>
<g>
	<path d="M427,30c0-1.8,2.5-3.5,4.5-3.5c1.3,0,2.3,0.7,2.3,1.7c0,1.7-2.5,3.5-4.6,3.5C428,31.7,427,31.1,427,30z"/>
</g>
<rect x="437.1" y="33.7" width="10.5" height="0.8"/>
<rect x="445.4" y="9.5" width="0.5" height="23.9"/>
<g>
	<path d="M438.9,35c0-1.8,2.5-3.5,4.5-3.5c1.3,0,2.3,0.7,2.3,1.7c0,1.7-2.5,3.5-4.6,3.5C439.9,36.7,438.9,36,438.9,35z"/>
</g>
<rect x="457.2" y="9.5" width="0.5" height="16.4"/>
<g>
	<path d="M450.7,27.5c0-1.8,2.5-3.5,4.5-3.5c1.3,0,2.3,0.7,2.3,1.7c0,1.7-2.5,3.5-4.6,3.5C451.7,29.2,450.7,28.6,450.7,27.5z"/>
</g>
<rect x="468.9" y="11" width="0.5" height="17.4"/>
<g>
	<path d="M462.5,30c0-1.8,2.5-3.5,4.5-3.5c1.3,0,2.3,0.7,2.3,1.7c0,1.7-2.5,3.5-4.6,3.5C463.5,31.7,462.5,31.1,462.5,30z"/>
</g>
<rect x="472.4" y="33.7" width="10.5" height="0.8"/>
<rect x="480.7" y="12.7" width="0.5" height="20.6"/>
<g>
	<path d="M474.3,35c0-1.8,2.5-3.5,4.5-3.5c1.3,0,2.3,0.7,2.3,1.7c0,1.7-2.5,3.5-4.6,3.5C475.3,36.7,474.3,36,474.3,35z"/>
</g>
<rect x="484.4" y="33.7" width="10.5" height="0.8"/>
<rect x="484.4" y="38.7" width="10.5" height="0.8"/>
<rect x="492.6" y="14.4" width="0.5" height="23.9"/>
<g>
	<path d="M486.2,39.9c0-1.8,2.5-3.5,4.5-3.5c1.3,0,2.3,0.7,2.3,1.7c0,1.7-2.5,3.5-4.6,3.5C487.2,41.6,486.2,41,486.2,39.9z"/>
</g>
<rect x="504.4" y="14.4" width="0.5" height="14"/>
<g>
	<path d="M498,30c0-1.8,2.5-3.5,4.5-3.5c1.3,0,2.3,0.7,2.3,1.7c0,1.7-2.5,3.5-4.6,3.5C499,31.7,498,31.1,498,30z"/>
</g>
<rect x="507.9" y="33.7" width="10.5" height="0.8"/>
<rect x="516.2" y="16" width="0.5" height="17.4"/>
<g>
	<path d="M509.8,35c0-1.8,2.5-3.5,4.5-3.5c1.3,0,2.3,0.7,2.3,1.7c0,1.7-2.5,3.5-4.6,3.5C510.8,36.7,509.8,36,509.8,35z"/>
</g>
<rect x="519.7" y="33.7" width="10.5" height="0.8"/>
<rect x="519.7" y="38.7" width="10.5" height="0.8"/>
<rect x="528" y="17.7" width="0.5" height="20.6"/>
<g>
	<path d="M521.6,39.9c0-1.8,2.5-3.5,4.5-3.5c1.3,0,2.3,0.7,2.3,1.7c0,1.7-2.5,3.5-4.6,3.5C522.5,41.6,521.6,41,521.6,39.9z"/>
</g>
<rect x="531.6" y="33.7" width="10.5" height="0.8"/>
<rect x="531.6" y="38.7" width="10.5" height="0.8"/>
<rect x="531.6" y="43.6" width="10.5" height="0.8"/>
<rect x="539.9" y="19.4" width="0.5" height="23.9"/>
<g>
	<path d="M533.5,44.9c0-1.8,2.5-3.5,4.5-3.5c1.3,0,2.3,0.7,2.3,1.7c0,1.7-2.5,3.5-4.6,3.5C534.5,46.6,533.5,46,533.5,44.9z"/>
</g>
<rect x="76.3" y="55.3" width="0.5" height="22.6"/>
<g>
	<path d="M69.8,79.6c0-1.8,2.5-3.5,4.5-3.5c1.3,0,2.3,0.7,2.3,1.7c0,1.7-2.5,3.5-4.6,3.5C70.8,81.3,69.8,80.7,69.8,79.6z"/>
</g>
<g>
	<path d="M66.9,81.2c0-0.8-0.4-1.5-1.1-2.2c-0.7,0.7-1.1,1.4-1.1,2.2h-1.4v-1.4c0.8,0,1.5-0.3,2.2-1c-0.7-0.7-1.4-1.1-2.2-1.1v-1.4
		h1.4c0,0.8,0.4,1.5,1.1,2.2c0.7-0.7,1.1-1.4,1.1-2.2h1.4v1.4c-0.8,0-1.5,0.4-2.2,1.1c0.7,0.7,1.4,1,2,1h0.2v1.4H66.9z"/>
</g>
<rect x="88.1" y="53.8" width="0.5" height="19.2"/>
<g>
	<path d="M81.6,74.6c0-1.8,2.5-3.5,4.5-3.5c1.3,0,2.3,0.7,2.3,1.7c0,1.7-2.5,3.5-4.6,3.5C82.6,76.4,81.6,75.7,81.6,74.6z"/>
</g>
<rect x="100" y="52.1" width="0.5" height="16"/>
<g>
	<path d="M93.6,69.7c0-1.8,2.5-3.5,4.5-3.5c1.3,0,2.3,0.7,2.3,1.7c0,1.7-2.5,3.5-4.6,3.5C94.5,71.4,93.6,70.8,93.6,69.7z"/>
</g>
<rect x="111.8" y="50.4" width="0.5" height="12.7"/>
<g>
	<path d="M105.3,64.7c0-1.8,2.5-3.5,4.5-3.5c1.3,0,2.3,0.7,2.3,1.7c0,1.7-2.5,3.5-4.6,3.5C106.3,66.4,105.3,65.8,105.3,64.7z"/>
</g>
<rect x="123.6" y="51.6" width="0.5" height="21.4"/>
<g>
	<path d="M117.1,74.6c0-1.8,2.5-3.5,4.5-3.5c1.3,0,2.3,0.7,2.3,1.7c0,1.7-2.5,3.5-4.6,3.5C118.1,76.4,117.1,75.7,117.1,74.6z"/>
</g>
<rect x="135.3" y="50.2" width="0.5" height="17.8"/>
<g>
	<path d="M128.9,69.7c0-1.8,2.5-3.5,4.5-3.5c1.3,0,2.3,0.7,2.3,1.7c0,1.7-2.5,3.5-4.6,3.5C129.9,71.4,128.9,70.8,128.9,69.7z"/>
</g>
<rect x="147.3" y="48.7" width="0.5" height="14.4"/>
<g>
	<path d="M140.8,64.7c0-1.8,2.5-3.5,4.5-3.5c1.3,0,2.3,0.7,2.3,1.7c0,1.7-2.5,3.5-4.6,3.5C141.8,66.4,140.8,65.8,140.8,64.7z"/>
</g>
<rect x="161.7" y="46.7" width="0.5" height="14"/>
<g>
	<path d="M155.3,62.2c0-1.8,2.5-3.5,4.5-3.5c1.3,0,2.3,0.7,2.3,1.7c0,1.7-2.5,3.5-4.6,3.5C156.2,64,155.3,63.3,155.3,62.2z"/>
</g>
<g>
	<path d="M152.3,63.9c0-0.8-0.4-1.5-1.1-2.2c-0.7,0.7-1.1,1.4-1.1,2.2h-1.4v-1.4c0.8,0,1.5-0.3,2.2-1c-0.7-0.7-1.4-1.1-2.2-1.1v-1.4
		h1.4c0,0.8,0.4,1.5,1.1,2.2c0.7-0.7,1.1-1.4,1.1-2.2h1.4v1.4c-0.8,0-1.5,0.4-2.2,1.1c0.7,0.7,1.4,1,2,1h0.2v1.4H152.3z"/>
</g>
<rect x="167" y="69.6" width="0.5" height="12.7"/>
<g>
	<path d="M167,69.7c0-1.8,2.5-3.5,4.5-3.5c1.3,0,2.3,0.7,2.3,1.7c0,1.7-2.5,3.5-4.6,3.5C168,71.4,167,70.8,167,69.7z"/>
</g>
<rect x="178.7" y="64.6" width="0.5" height="16.1"/>
<g>
	<path d="M178.8,64.7c0-1.8,2.5-3.5,4.5-3.5c1.3,0,2.3,0.7,2.3,1.7c0,1.7-2.5,3.5-4.6,3.5C179.8,66.4,178.8,65.8,178.8,64.7z"/>
</g>
<rect x="190.5" y="62.2" width="0.5" height="16.9"/>
<g>
	<path d="M190.6,62.2c0-1.8,2.5-3.5,4.5-3.5c1.3,0,2.3,0.7,2.3,1.7c0,1.7-2.5,3.5-4.6,3.5C191.6,64,190.6,63.3,190.6,62.2z"/>
</g>
<rect x="202.5" y="57.2" width="0.5" height="20.2"/>
<g>
	<path d="M202.5,57.3c0-1.8,2.5-3.5,4.5-3.5c1.3,0,2.3,0.7,2.3,1.7c0,1.7-2.5,3.5-4.6,3.5C203.5,59,202.5,58.4,202.5,57.3z"/>
</g>
<rect x="214.2" y="64.6" width="0.5" height="16.4"/>
<g>
	<path d="M214.3,64.7c0-1.8,2.5-3.5,4.5-3.5c1.3,0,2.3,0.7,2.3,1.7c0,1.7-2.5,3.5-4.6,3.5C215.3,66.4,214.3,65.8,214.3,64.7z"/>
</g>
<rect x="226" y="62.2" width="0.5" height="17.4"/>
<g>
	<path d="M226.1,62.2c0-1.8,2.5-3.5,4.5-3.5c1.3,0,2.3,0.7,2.3,1.7c0,1.7-2.5,3.5-4.6,3.5C227.1,64,226.1,63.3,226.1,62.2z"/>
</g>
<rect x="237.8" y="57.2" width="0.5" height="20.6"/>
<g>
	<path d="M237.9,57.3c0-1.8,2.5-3.5,4.5-3.5c1.3,0,2.3,0.7,2.3,1.7c0,1.7-2.5,3.5-4.6,3.5C238.9,59,237.9,58.4,237.9,57.3z"/>
</g>
<rect x="248" y="51.1" width="10.5" height="0.8"/>
<rect x="249.7" y="52.2" width="0.5" height="23.9"/>
<g>
	<path d="M249.8,52.3c0-1.8,2.5-3.5,4.5-3.5c1.3,0,2.3,0.7,2.3,1.7c0,1.7-2.5,3.5-4.6,3.5C250.8,54,249.8,53.4,249.8,52.3z"/>
</g>
<rect x="261.5" y="62.2" width="0.5" height="14"/>
<g>
	<path d="M261.6,62.2c0-1.8,2.5-3.5,4.5-3.5c1.3,0,2.3,0.7,2.3,1.7c0,1.7-2.5,3.5-4.6,3.5C262.6,64,261.6,63.3,261.6,62.2z"/>
</g>
<rect x="273.3" y="57.2" width="0.5" height="17.4"/>
<g>
	<path d="M273.4,57.3c0-1.8,2.5-3.5,4.5-3.5c1.3,0,2.3,0.7,2.3,1.7c0,1.7-2.5,3.5-4.6,3.5C274.4,59,273.4,58.4,273.4,57.3z"/>
</g>
<rect x="283.3" y="51.1" width="10.5" height="0.8"/>
<rect x="285.1" y="52.2" width="0.5" height="20.6"/>
<g>
	<path d="M285.2,52.3c0-1.8,2.5-3.5,4.5-3.5c1.3,0,2.3,0.7,2.3,1.7c0,1.7-2.5,3.5-4.6,3.5C286.1,54,285.2,53.4,285.2,52.3z"/>
</g>
<rect x="295.2" y="51.1" width="10.5" height="0.8"/>
<rect x="295.2" y="46.1" width="10.5" height="0.8"/>
<rect x="297" y="47.3" width="0.5" height="23.9"/>
<g>
	<path d="M297.1,47.4c0-1.8,2.5-3.5,4.5-3.5c1.3,0,2.3,0.7,2.3,1.7c0,1.7-2.5,3.5-4.6,3.5C298.1,49.1,297.1,48.5,297.1,47.4z"/>
</g>
<rect x="307" y="51.1" width="10.5" height="0.8"/>
<rect x="307" y="46.1" width="10.5" height="0.8"/>
<rect x="308.8" y="47.3" width="0.5" height="23.9"/>
<g>
	<path d="M308.9,47.4c0-1.8,2.5-3.5,4.5-3.5c1.3,0,2.3,0.7,2.3,1.7c0,1.7-2.5,3.5-4.6,3.5C309.9,49.1,308.9,48.5,308.9,47.4z"/>
</g>
<rect x="318.8" y="51.1" width="10.5" height="0.8"/>
<rect x="320.6" y="52.2" width="0.5" height="20.5"/>
<g>
	<path d="M320.7,52.3c0-1.8,2.5-3.5,4.5-3.5c1.3,0,2.3,0.7,2.3,1.7c0,1.7-2.5,3.5-4.6,3.5C321.6,54,320.7,53.4,320.7,52.3z"/>
</g>
<rect x="332.4" y="57.2" width="0.5" height="17.2"/>
<g>
	<path d="M332.4,57.3c0-1.8,2.5-3.5,4.5-3.5c1.3,0,2.3,0.7,2.3,1.7c0,1.7-2.5,3.5-4.6,3.5C333.4,59,332.4,58.4,332.4,57.3z"/>
</g>
<rect x="344.3" y="62.2" width="0.5" height="14"/>
<g>
	<path d="M344.4,62.2c0-1.8,2.5-3.5,4.5-3.5c1.3,0,2.3,0.7,2.3,1.7c0,1.7-2.5,3.5-4.6,3.5C345.3,64,344.4,63.3,344.4,62.2z"/>
</g>
<rect x="354.3" y="51.1" width="10.5" height="0.8"/>
<rect x="356.1" y="52.2" width="0.5" height="23.9"/>
<g>
	<path d="M356.2,52.3c0-1.8,2.5-3.5,4.5-3.5c1.3,0,2.3,0.7,2.3,1.7c0,1.7-2.5,3.5-4.6,3.5C357.1,54,356.2,53.4,356.2,52.3z"/>
</g>
<rect x="367.9" y="57.2" width="0.5" height="20.5"/>
<g>
	<path d="M367.9,57.3c0-1.8,2.5-3.5,4.5-3.5c1.3,0,2.3,0.7,2.3,1.7c0,1.7-2.5,3.5-4.6,3.5C368.9,59,367.9,58.4,367.9,57.3z"/>
</g>
<rect x="379.6" y="62.2" width="0.5" height="17.2"/>
<g>
	<path d="M379.7,62.2c0-1.8,2.5-3.5,4.5-3.5c1.3,0,2.3,0.7,2.3,1.7c0,1.7-2.5,3.5-4.6,3.5C380.7,64,379.7,63.3,379.7,62.2z"/>
</g>
<rect x="391.6" y="64.6" width="0.5" height="16.4"/>
<g>
	<path d="M391.7,64.7c0-1.8,2.5-3.5,4.5-3.5c1.3,0,2.3,0.7,2.3,1.7c0,1.7-2.5,3.5-4.6,3.5C392.6,66.4,391.7,65.8,391.7,64.7z"/>
</g>
<rect x="403.4" y="57.2" width="0.5" height="20.2"/>
<g>
	<path d="M403.4,57.3c0-1.8,2.5-3.5,4.5-3.5c1.3,0,2.3,0.7,2.3,1.7c0,1.7-2.5,3.5-4.6,3.5C404.4,59,403.4,58.4,403.4,57.3z"/>
</g>
<rect x="415.1" y="62.2" width="0.5" height="16.7"/>
<g>
	<path d="M415.2,62.2c0-1.8,2.5-3.5,4.5-3.5c1.3,0,2.3,0.7,2.3,1.7c0,1.7-2.5,3.5-4.6,3.5C416.2,64,415.2,63.3,415.2,62.2z"/>
</g>
<rect x="426.9" y="64.6" width="0.5" height="16"/>
<g>
	<path d="M427,64.7c0-1.8,2.5-3.5,4.5-3.5c1.3,0,2.3,0.7,2.3,1.7c0,1.7-2.5,3.5-4.6,3.5C428,66.4,427,65.8,427,64.7z"/>
</g>
<rect x="438.9" y="69.6" width="0.5" height="12.7"/>
<g>
	<path d="M438.9,69.7c0-1.8,2.5-3.5,4.5-3.5c1.3,0,2.3,0.7,2.3,1.7c0,1.7-2.5,3.5-4.6,3.5C439.9,71.4,438.9,70.8,438.9,69.7z"/>
</g>
<rect x="457.2" y="46.7" width="0.5" height="14"/>
<g>
	<path d="M450.7,62.2c0-1.8,2.5-3.5,4.5-3.5c1.3,0,2.3,0.7,2.3,1.7c0,1.7-2.5,3.5-4.6,3.5C451.7,64,450.7,63.3,450.7,62.2z"/>
</g>
<rect x="468.9" y="48.2" width="0.5" height="14.9"/>
<g>
	<path d="M462.5,64.7c0-1.8,2.5-3.5,4.5-3.5c1.3,0,2.3,0.7,2.3,1.7c0,1.7-2.5,3.5-4.6,3.5C463.5,66.4,462.5,65.8,462.5,64.7z"/>
</g>
<rect x="480.7" y="49.9" width="0.5" height="18.1"/>
<g>
	<path d="M474.3,69.7c0-1.8,2.5-3.5,4.5-3.5c1.3,0,2.3,0.7,2.3,1.7c0,1.7-2.5,3.5-4.6,3.5C475.3,71.4,474.3,70.8,474.3,69.7z"/>
</g>
<rect x="492.6" y="51.6" width="0.5" height="21.4"/>
<g>
	<path d="M486.2,74.6c0-1.8,2.5-3.5,4.5-3.5c1.3,0,2.3,0.7,2.3,1.7c0,1.7-2.5,3.5-4.6,3.5C487.2,76.4,486.2,75.7,486.2,74.6z"/>
</g>
<rect x="504.4" y="50.4" width="0.5" height="12.7"/>
<g>
	<path d="M498,64.7c0-1.8,2.5-3.5,4.5-3.5c1.3,0,2.3,0.7,2.3,1.7c0,1.7-2.5,3.5-4.6,3.5C499,66.4,498,65.8,498,64.7z"/>
</g>
<rect x="516.2" y="51.9" width="0.5" height="16.1"/>
<g>
	<path d="M509.8,69.7c0-1.8,2.5-3.5,4.5-3.5c1.3,0,2.3,0.7,2.3,1.7c0,1.7-2.5,3.5-4.6,3.5C510.8,71.4,509.8,70.8,509.8,69.7z"/>
</g>
<rect x="528" y="53.6" width="0.5" height="19.4"/>
<g>
	<path d="M521.6,74.6c0-1.8,2.5-3.5,4.5-3.5c1.3,0,2.3,0.7,2.3,1.7c0,1.7-2.5,3.5-4.6,3.5C522.5,76.4,521.6,75.7,521.6,74.6z"/>
</g>
<rect x="539.9" y="55.3" width="0.5" height="22.6"/>
<g>
	<path d="M533.5,79.6c0-1.8,2.5-3.5,4.5-3.5c1.3,0,2.3,0.7,2.3,1.7c0,1.7-2.5,3.5-4.6,3.5C534.5,81.3,533.5,80.7,533.5,79.6z"/>
</g>
</svg>
