<?xml version="1.0" encoding="utf-8"?>

<!--
	ScaleBook
	Copyright (c) Leland Jansen 2015. All rights reserved.
-->

<!DOCTYPE svg PUBLIC "-//W3C//DTD SVG 1.1//EN" "http://www.w3.org/Graphics/SVG/1.1/DTD/svg11.dtd">
<svg version="1.1" id="Layer_1" xmlns="http://www.w3.org/2000/svg" xmlns:xlink="http://www.w3.org/1999/xlink" x="0px" y="0px"
	 viewBox="0 0 553 105.6" enable-background="new 0 0 553 105.6" xml:space="preserve">
<rect x="8.5" y="20" width="0.8" height="68"/>
<g>
	<path d="M7.6,20.6c-2,1.1-3.7,5.9-3.7,9.6c0,2.3,1.4,10.1,1.4,12.5c0,5-1.6,8.8-4.7,11.3c3.1,2.5,4.7,6.2,4.7,11.2
		c0,2.3-1.4,10.1-1.4,12.5c0,3.9,1.8,8.6,3.7,9.7V88C4,85.7,1.7,79.6,1.7,74.7c0-2.2,1.8-9.5,1.8-11.7c0-3.9-1-6.7-3-8.4
		C0.1,54.4,0,54.2,0,54c0-0.2,0.1-0.4,0.5-0.7c2-1.7,3-4.3,3-7.7c0-2.2-1.8-10.2-1.8-12.4C1.7,28,3.8,22.7,7.6,20V20.6z"/>
</g>
<rect x="204.5" y="20" width="0.8" height="68"/>
<rect x="207.1" y="20" width="0.8" height="68"/>
<rect x="395.5" y="20" width="0.8" height="68"/>
<rect x="398.1" y="20" width="0.8" height="68"/>
<rect x="548" y="20" width="0.8" height="68"/>
<rect x="550.5" y="20" width="2.5" height="68"/>
<rect x="8.6" y="39.6" width="544.4" height="0.5"/>
<rect x="8.6" y="34.6" width="544.4" height="0.5"/>
<rect x="8.6" y="29.6" width="544.4" height="0.5"/>
<rect x="8.6" y="24.7" width="544.4" height="0.5"/>
<rect x="8.6" y="19.7" width="544.4" height="0.5"/>
<g>
	<path d="M20.4,39.6c-4.2,0-8.1-3.1-8.1-6.9c0-3.2,2.3-6.7,6.8-10.5c-0.3-1.2-0.4-2.4-0.4-3.6c0-3.5,1.2-6.8,3.2-8.5
		c1.8,2.5,2.7,4.9,2.7,7.1c0,2.9-1.3,5.6-4.3,8.1l0.9,4.2c0.5,0,0.8-0.1,0.8-0.1c2.6,0,4.8,2,4.8,4.7c0,1.9-1.4,3.7-3.6,4.8
		c0-0.1,0.9,3.8,0.9,4.3c0,2.5-2.3,4.2-4.9,4.2c-2,0-3.6-1.3-3.6-3.4c0-1.4,1-2.6,2.4-2.6c1.3,0,2.3,1.3,2.3,2.5
		c0,1.4-1.2,2.3-2.7,2.5c0.6,0.3,1.2,0.5,1.9,0.5c2.1,0,4.1-1.6,4.1-3.6c0-0.2,0-0.4-0.1-0.6l-0.8-3.7
		C22.1,39.5,21.4,39.6,20.4,39.6z M18.2,34.4c0,1,0.5,1.9,1.6,2.5c-1.8-0.3-3-1.4-3-3.1c0-2,1.7-3.7,3.8-4.1l-0.8-4
		c-3.7,2.8-5.7,5.5-5.7,8.1c0,2.9,2.8,5.3,6,5.3c0.9,0,1.7-0.2,2.4-0.5l-1.4-6.8C19.5,32,18.2,33.1,18.2,34.4z M22.3,13.1
		c-1.6,0-2.9,3.7-2.9,7c0,0.7,0,1.3,0.2,1.9c2.7-2.4,4-4.5,4-6.5c0-0.9-0.3-1.7-1-2.4C22.5,13.1,22.4,13.1,22.3,13.1z M25,35
		c0-1.6-1.2-3.3-2.9-3.3c-0.1,0-0.2,0-0.5,0l1.4,6.6C24.4,37.4,25,36.3,25,35z"/>
</g>
<g>
	<path d="M29.7,21.6h0.6l-0.1,6.2c0.4-0.7,1-1,1.8-1c1.2,0,2.2,0.8,2.2,1.9c0,0.8-0.5,1.8-1.7,2.7l-2.8,2.1V21.6z M30.3,28.5
		c-0.1,0.8-0.1,1.4-0.1,1.9c0,1,0,1.6,0.1,2c1-0.7,2.4-2.6,2.4-3.7c0-0.6-0.5-1.1-1.1-1.1C31,27.6,30.6,27.9,30.3,28.5z"/>
</g>
<g>
	<path d="M35.3,14.1h0.6l-0.1,6.2c0.4-0.7,1-1,1.8-1c1.2,0,2.2,0.8,2.2,1.9c0,0.8-0.5,1.8-1.7,2.7l-2.8,2.1V14.1z M35.9,21
		c-0.1,0.8-0.1,1.4-0.1,1.9c0,1,0,1.6,0.1,2c1-0.7,2.4-2.6,2.4-3.7c0-0.6-0.5-1.1-1.1-1.1C36.6,20.2,36.1,20.5,35.9,21z"/>
</g>
<polygon fill-rule="evenodd" clip-rule="evenodd" points="55,26.2 81.2,21.2 81.2,18.7 55,23.7 "/>
<polygon fill-rule="evenodd" clip-rule="evenodd" points="55,22.4 81.2,17.5 81.2,15 55,20 "/>
<polygon fill-rule="evenodd" clip-rule="evenodd" points="99.1,36.4 127,35.8 127,33.3 99.1,33.9 "/>
<polygon fill-rule="evenodd" clip-rule="evenodd" points="99.1,40.1 127,39.5 127,37 99.1,37.6 "/>
<polygon fill-rule="evenodd" clip-rule="evenodd" points="159.9,16.2 186.1,21.2 186.1,18.7 159.9,13.8 "/>
<polygon fill-rule="evenodd" clip-rule="evenodd" points="159.9,12.5 186.1,17.5 186.1,15 159.9,10 "/>
<polygon fill-rule="evenodd" clip-rule="evenodd" points="221.9,21.2 248.1,16.2 248.1,13.8 221.9,18.7 "/>
<polygon fill-rule="evenodd" clip-rule="evenodd" points="221.9,17.5 248.1,12.5 248.1,10 221.9,15 "/>
<polygon fill-rule="evenodd" clip-rule="evenodd" points="268,31.1 301.4,26.2 301.4,23.7 268,28.6 "/>
<polygon fill-rule="evenodd" clip-rule="evenodd" points="268,34.8 301.4,29.9 301.4,27.4 268,32.4 "/>
<polygon fill-rule="evenodd" clip-rule="evenodd" points="327.8,42.3 357.7,47.2 357.7,44.8 327.8,39.8 "/>
<polygon fill-rule="evenodd" clip-rule="evenodd" points="327.8,46 357.7,51 357.7,48.5 327.8,43.5 "/>
<polygon fill-rule="evenodd" clip-rule="evenodd" points="406.4,47.2 436.1,42.3 436.1,39.8 406.4,44.8 "/>
<polygon fill-rule="evenodd" clip-rule="evenodd" points="406.4,51 436.1,46 436.1,43.5 406.4,48.5 "/>
<polygon fill-rule="evenodd" clip-rule="evenodd" points="446.1,27.4 481.4,26.2 481.4,23.7 446.1,24.9 "/>
<polygon fill-rule="evenodd" clip-rule="evenodd" points="446.1,31.1 481.4,29.9 481.4,27.4 446.1,28.6 "/>
<polygon fill-rule="evenodd" clip-rule="evenodd" points="493.2,36.1 521.2,41 521.2,38.6 493.2,33.6 "/>
<polygon fill-rule="evenodd" clip-rule="evenodd" points="493.2,39.8 521.2,44.8 521.2,42.3 493.2,37.3 "/>
<rect x="8.6" y="87.8" width="544.4" height="0.5"/>
<rect x="8.6" y="82.8" width="544.4" height="0.5"/>
<rect x="8.6" y="77.9" width="544.4" height="0.5"/>
<rect x="8.6" y="72.9" width="544.4" height="0.5"/>
<rect x="8.6" y="67.9" width="544.4" height="0.5"/>
<g>
	<path d="M15.9,82.4c2.9-2.6,4.7-6.1,4.7-9.2c0-2.5-1.4-4.4-3.7-4.4c-1.6,0-3.4,1.3-3.4,2.7c0,0.2,0,0.3,0.1,0.3
		c-0.1,0,0.6-0.6,1.4-0.6c0.9,0,1.5,0.8,1.5,1.7c0,1.2-0.9,2.2-2.1,2.2c-1.2,0-2.1-1.3-2.1-2.8c0-2.3,2.3-4.1,4.8-4.1
		c4.7,0,5.9,3.2,5.9,5.8c0,1.6-0.4,2.9-2,5.3c-1.9,3.1-6.4,5.3-8.1,5.3c-0.4,0-0.6-0.2-0.6-0.5C14,83.6,15.1,83,15.9,82.4z
		 M25.8,69.7c0.6,0,1,0.4,1,1c0,0.6-0.4,1-1,1s-1-0.4-1-1C24.8,70.1,25.3,69.7,25.8,69.7z M25.8,74.6c0.6,0,1,0.4,1,1
		c0,0.6-0.4,1-1,1s-1-0.4-1-1C24.8,75,25.3,74.6,25.8,74.6z"/>
</g>
<g>
	<path d="M29.7,74.7h0.6L30.2,81c0.4-0.7,1-1,1.8-1c1.2,0,2.2,0.8,2.2,1.9c0,0.8-0.5,1.8-1.7,2.7l-2.8,2.1V74.7z M30.3,81.6
		c-0.1,0.8-0.1,1.4-0.1,1.9c0,1,0,1.6,0.1,2c1-0.7,2.4-2.6,2.4-3.7c0-0.6-0.5-1.1-1.1-1.1C31,80.8,30.6,81.1,30.3,81.6z"/>
</g>
<g>
	<path d="M35.3,67.3h0.6l-0.1,6.2c0.4-0.7,1-1,1.8-1c1.2,0,2.2,0.8,2.2,1.9c0,0.8-0.5,1.8-1.7,2.7l-2.8,2.1V67.3z M35.9,74.2
		c-0.1,0.8-0.1,1.4-0.1,1.9c0,1,0,1.6,0.1,2c1-0.7,2.4-2.6,2.4-3.7c0-0.6-0.5-1.1-1.1-1.1C36.6,73.4,36.1,73.6,35.9,74.2z"/>
</g>
<g>
	<path d="M93,86.6c-3.2,0-6.1-2.3-6.1-5.1c0-2.4,1.7-5,5.1-7.9c-0.2-0.9-0.3-1.8-0.3-2.7c0-2.6,0.9-5.1,2.4-6.3c1.4,1.9,2,3.7,2,5.3
		c0,2.2-1,4.2-3.2,6.1l0.7,3.1c0.4,0,0.6,0,0.6,0c2,0,3.6,1.5,3.6,3.5c0,1.4-1.1,2.8-2.7,3.6c0-0.1,0.6,2.8,0.6,3.3
		c0,1.9-1.7,3.2-3.7,3.2c-1.5,0-2.7-1-2.7-2.5c0-1.1,0.7-1.9,1.8-1.9c1,0,1.7,1,1.7,1.9c0,1-0.9,1.7-2,1.8c0.4,0.2,0.9,0.3,1.4,0.3
		c1.6,0,3.1-1.2,3.1-2.7c0-0.1,0-0.3,0-0.5l-0.6-2.8C94.2,86.5,93.7,86.6,93,86.6z M91.3,82.7c0,0.8,0.4,1.4,1.2,1.9
		c-1.3-0.2-2.2-1.1-2.2-2.3c0-1.5,1.3-2.8,2.9-3.1l-0.6-3c-2.8,2.1-4.3,4.1-4.3,6.1c0,2.2,2.1,4,4.5,4c0.7,0,1.3-0.1,1.8-0.4
		l-1.1-5.1C92.3,81,91.3,81.7,91.3,82.7z M94.4,66.7c-1.2,0-2.2,2.8-2.2,5.3c0,0.5,0,1,0.1,1.4c2-1.8,3-3.4,3-4.9
		c0-0.7-0.3-1.3-0.7-1.8C94.6,66.7,94.5,66.7,94.4,66.7z M96.4,83.1c0-1.2-0.9-2.4-2.2-2.4c0,0-0.2,0-0.4,0l1.1,5
		C95.9,85,96.4,84.1,96.4,83.1z"/>
</g>
<polygon fill-rule="evenodd" clip-rule="evenodd" points="48.5,94.2 74.6,89.2 74.6,86.8 48.5,91.7 "/>
<polygon fill-rule="evenodd" clip-rule="evenodd" points="48.5,97.9 74.6,93 74.6,90.5 48.5,95.4 "/>
<g>
	<path d="M141.9,80c2.2-2,3.6-4.6,3.6-6.9c0-1.9-1.1-3.3-2.8-3.3c-1.2,0-2.5,1-2.5,2.1c0,0.2,0,0.2,0.1,0.2c0,0,0.4-0.5,1-0.5
		c0.7,0,1.2,0.6,1.2,1.3c0,0.9-0.6,1.7-1.6,1.7c-0.9,0-1.5-1-1.5-2.1c0-1.8,1.7-3.1,3.6-3.1c3.5,0,4.4,2.4,4.4,4.4
		c0,1.2-0.3,2.2-1.5,4c-1.4,2.3-4.8,4-6,4c-0.3,0-0.5-0.1-0.5-0.3C140.5,81,141.4,80.6,141.9,80z M149.4,70.5c0.4,0,0.7,0.3,0.7,0.7
		c0,0.4-0.3,0.7-0.7,0.7s-0.7-0.3-0.7-0.7C148.7,70.9,149,70.5,149.4,70.5z M149.4,74.2c0.4,0,0.7,0.3,0.7,0.7s-0.3,0.7-0.7,0.7
		s-0.7-0.3-0.7-0.7S149,74.2,149.4,74.2z"/>
</g>
<rect x="105.7" y="65.7" fill-rule="evenodd" clip-rule="evenodd" width="27.9" height="2.5"/>
<rect x="105.7" y="62" fill-rule="evenodd" clip-rule="evenodd" width="27.9" height="2.5"/>
<polygon fill-rule="evenodd" clip-rule="evenodd" points="153.4,84.3 179.6,89.2 179.6,86.8 153.4,81.8 "/>
<polygon fill-rule="evenodd" clip-rule="evenodd" points="153.4,88 179.6,93 179.6,90.5 153.4,85.5 "/>
<g>
	<path d="M261.8,86.6c-3.2,0-6.1-2.3-6.1-5.1c0-2.4,1.7-5,5.1-7.9c-0.2-0.9-0.3-1.8-0.3-2.7c0-2.6,0.9-5.1,2.4-6.3
		c1.4,1.9,2,3.7,2,5.3c0,2.2-1,4.2-3.2,6.1l0.7,3.1c0.4,0,0.6,0,0.6,0c2,0,3.6,1.5,3.6,3.5c0,1.4-1.1,2.8-2.7,3.6
		c0-0.1,0.6,2.8,0.6,3.3c0,1.9-1.7,3.2-3.7,3.2c-1.5,0-2.7-1-2.7-2.5c0-1.1,0.7-1.9,1.8-1.9c1,0,1.7,1,1.7,1.9c0,1-0.9,1.7-2,1.8
		c0.4,0.2,0.9,0.3,1.4,0.3c1.6,0,3.1-1.2,3.1-2.7c0-0.1,0-0.3,0-0.5l-0.6-2.8C263,86.5,262.5,86.6,261.8,86.6z M260.1,82.7
		c0,0.8,0.4,1.4,1.2,1.9c-1.3-0.2-2.2-1.1-2.2-2.3c0-1.5,1.3-2.8,2.9-3.1l-0.6-3c-2.8,2.1-4.3,4.1-4.3,6.1c0,2.2,2.1,4,4.5,4
		c0.7,0,1.3-0.1,1.8-0.4l-1.1-5.1C261.1,81,260.1,81.7,260.1,82.7z M263.2,66.7c-1.2,0-2.2,2.8-2.2,5.3c0,0.5,0,1,0.1,1.4
		c2-1.8,3-3.4,3-4.9c0-0.7-0.3-1.3-0.7-1.8C263.4,66.7,263.3,66.7,263.2,66.7z M265.2,83.1c0-1.2-0.9-2.4-2.2-2.4c0,0-0.2,0-0.4,0
		l1.1,5C264.7,85,265.2,84.1,265.2,83.1z"/>
</g>
<polygon fill-rule="evenodd" clip-rule="evenodd" points="215.4,89.2 241.6,84.3 241.6,81.8 215.4,86.8 "/>
<polygon fill-rule="evenodd" clip-rule="evenodd" points="215.4,93 241.6,88 241.6,85.5 215.4,90.5 "/>
<g>
	<path d="M316.3,80c2.2-2,3.6-4.6,3.6-6.9c0-1.9-1.1-3.3-2.8-3.3c-1.2,0-2.5,1-2.5,2.1c0,0.2,0,0.2,0.1,0.2c0,0,0.4-0.5,1-0.5
		c0.7,0,1.2,0.6,1.2,1.3c0,0.9-0.6,1.7-1.6,1.7s-1.5-1-1.5-2.1c0-1.8,1.7-3.1,3.6-3.1c3.5,0,4.4,2.4,4.4,4.4c0,1.2-0.3,2.2-1.5,4
		c-1.4,2.3-4.8,4-6,4c-0.3,0-0.5-0.1-0.5-0.3C314.9,81,315.8,80.6,316.3,80z M323.8,70.5c0.4,0,0.7,0.3,0.7,0.7
		c0,0.4-0.3,0.7-0.7,0.7c-0.4,0-0.7-0.3-0.7-0.7C323.1,70.9,323.4,70.5,323.8,70.5z M323.8,74.2c0.4,0,0.7,0.3,0.7,0.7
		s-0.3,0.7-0.7,0.7c-0.4,0-0.7-0.3-0.7-0.7S323.4,74.2,323.8,74.2z"/>
</g>
<rect x="274.5" y="62" fill-rule="evenodd" clip-rule="evenodd" width="33.5" height="2.5"/>
<rect x="274.5" y="58.2" fill-rule="evenodd" clip-rule="evenodd" width="33.5" height="2.5"/>
<polygon fill-rule="evenodd" clip-rule="evenodd" points="327.8,79.3 357.7,84.3 357.7,81.8 327.8,76.8 "/>
<polygon fill-rule="evenodd" clip-rule="evenodd" points="327.8,83 357.7,88 357.7,85.5 327.8,80.6 "/>
<g>
	<path d="M387.5,86.6c-3.2,0-6.1-2.3-6.1-5.1c0-2.4,1.7-5,5.1-7.9c-0.2-0.9-0.3-1.8-0.3-2.7c0-2.6,0.9-5.1,2.4-6.3
		c1.4,1.9,2,3.7,2,5.3c0,2.2-1,4.2-3.2,6.1l0.7,3.1c0.4,0,0.6,0,0.6,0c2,0,3.6,1.5,3.6,3.5c0,1.4-1.1,2.8-2.7,3.6
		c0-0.1,0.6,2.8,0.6,3.3c0,1.9-1.7,3.2-3.7,3.2c-1.5,0-2.7-1-2.7-2.5c0-1.1,0.7-1.9,1.8-1.9c1,0,1.7,1,1.7,1.9c0,1-0.9,1.7-2,1.8
		c0.4,0.2,0.9,0.3,1.4,0.3c1.6,0,3.1-1.2,3.1-2.7c0-0.1,0-0.3,0-0.5l-0.6-2.8C388.7,86.5,388.2,86.6,387.5,86.6z M385.9,82.7
		c0,0.8,0.4,1.4,1.2,1.9c-1.3-0.2-2.2-1.1-2.2-2.3c0-1.5,1.3-2.8,2.9-3.1l-0.6-3c-2.8,2.1-4.3,4.1-4.3,6.1c0,2.2,2.1,4,4.5,4
		c0.7,0,1.3-0.1,1.8-0.4l-1.1-5.1C386.8,81,385.9,81.7,385.9,82.7z M388.9,66.7c-1.2,0-2.2,2.8-2.2,5.3c0,0.5,0,1,0.1,1.4
		c2-1.8,3-3.4,3-4.9c0-0.7-0.3-1.3-0.7-1.8C389.1,66.7,389,66.7,388.9,66.7z M391,83.1c0-1.2-0.9-2.4-2.2-2.4c0,0-0.2,0-0.4,0l1.1,5
		C390.4,85,391,84.1,391,83.1z"/>
</g>
<polygon fill-rule="evenodd" clip-rule="evenodd" points="412.9,79.3 442.7,74.4 442.7,71.9 412.9,76.8 "/>
<polygon fill-rule="evenodd" clip-rule="evenodd" points="412.9,75.6 442.7,70.6 442.7,68.2 412.9,73.1 "/>
<polygon fill-rule="evenodd" clip-rule="evenodd" points="446.1,93 481.4,90.5 481.4,88 446.1,90.5 "/>
<polygon fill-rule="evenodd" clip-rule="evenodd" points="446.1,96.7 481.4,94.2 481.4,91.7 446.1,94.2 "/>
<polygon fill-rule="evenodd" clip-rule="evenodd" points="499.7,69.4 527.8,74.4 527.8,71.9 499.7,66.9 "/>
<polygon fill-rule="evenodd" clip-rule="evenodd" points="499.7,65.7 527.8,70.6 527.8,68.2 499.7,63.2 "/>
<rect x="46.4" y="44.4" width="10.5" height="0.8"/>
<rect x="54.7" y="20.1" width="0.5" height="26.4"/>
<g>
	<path d="M48.3,48.1c0-1.8,2.5-3.5,4.5-3.5c1.3,0,2.3,0.7,2.3,1.7c0,1.7-2.5,3.5-4.6,3.5C49.3,49.8,48.3,49.2,48.3,48.1z"/>
</g>
<rect x="64.7" y="18.3" width="0.5" height="23.3"/>
<g>
	<path d="M58.2,43.1c0-1.8,2.5-3.5,4.5-3.5c1.3,0,2.3,0.7,2.3,1.7c0,1.7-2.5,3.5-4.6,3.5C59.2,44.9,58.2,44.2,58.2,43.1z"/>
</g>
<rect x="72.7" y="16.9" width="0.5" height="19.7"/>
<g>
	<path d="M66.3,38.2c0-1.8,2.5-3.5,4.5-3.5c1.3,0,2.3,0.7,2.3,1.7c0,1.7-2.5,3.5-4.6,3.5C67.3,39.9,66.3,39.3,66.3,38.2z"/>
</g>
<rect x="80.9" y="15.2" width="0.5" height="14"/>
<g>
	<path d="M74.5,30.7c0-1.8,2.5-3.5,4.5-3.5c1.3,0,2.3,0.7,2.3,1.7c0,1.7-2.5,3.5-4.6,3.5C75.5,32.5,74.5,31.8,74.5,30.7z"/>
</g>
<rect x="98.9" y="25.7" width="0.5" height="14.3"/>
<g>
	<path d="M99,25.8c0-1.8,2.5-3.5,4.5-3.5c1.3,0,2.3,0.7,2.3,1.7c0,1.7-2.5,3.5-4.6,3.5C100,27.5,99,26.9,99,25.8z"/>
</g>
<rect x="107" y="20.7" width="0.5" height="19.1"/>
<g>
	<path d="M107,20.8c0-1.8,2.5-3.5,4.5-3.5c1.3,0,2.3,0.7,2.3,1.7c0,1.7-2.5,3.5-4.6,3.5C108,22.5,107,21.9,107,20.8z"/>
</g>
<rect x="115.1" y="14.6" width="10.5" height="0.8"/>
<rect x="116.9" y="13.3" width="0.5" height="26.4"/>
<g>
	<path d="M117,13.4c0-1.8,2.5-3.5,4.5-3.5c1.3,0,2.3,0.7,2.3,1.7c0,1.7-2.5,3.5-4.6,3.5C117.9,15.1,117,14.5,117,13.4z"/>
</g>
<rect x="126.8" y="20.7" width="0.5" height="18.6"/>
<g>
	<path d="M126.9,20.8c0-1.8,2.5-3.5,4.5-3.5c1.3,0,2.3,0.7,2.3,1.7c0,1.7-2.5,3.5-4.6,3.5C127.9,22.5,126.9,21.9,126.9,20.8z"/>
</g>
<rect x="159.7" y="10.2" width="0.5" height="14"/>
<g>
	<path d="M153.2,25.8c0-1.8,2.5-3.5,4.5-3.5c1.3,0,2.3,0.7,2.3,1.7c0,1.7-2.5,3.5-4.6,3.5C154.2,27.5,153.2,26.9,153.2,25.8z"/>
</g>
<rect x="169.6" y="12.1" width="0.5" height="17.1"/>
<g>
	<path d="M163.2,30.7c0-1.8,2.5-3.5,4.5-3.5c1.3,0,2.3,0.7,2.3,1.7c0,1.7-2.5,3.5-4.6,3.5C164.1,32.5,163.2,31.8,163.2,30.7z"/>
</g>
<rect x="177.8" y="13.6" width="0.5" height="22.9"/>
<g>
	<path d="M171.4,38.2c0-1.8,2.5-3.5,4.5-3.5c1.3,0,2.3,0.7,2.3,1.7c0,1.7-2.5,3.5-4.6,3.5C172.4,39.9,171.4,39.3,171.4,38.2z"/>
</g>
<rect x="185.9" y="15.2" width="0.5" height="26.4"/>
<g>
	<path d="M179.4,43.1c0-1.8,2.5-3.5,4.5-3.5c1.3,0,2.3,0.7,2.3,1.7c0,1.7-2.5,3.5-4.6,3.5C180.4,44.9,179.4,44.2,179.4,43.1z"/>
</g>
<rect x="187.5" y="44.4" width="10.7" height="0.8"/>
<rect x="195.9" y="29.9" width="0.5" height="16.6"/>
<g>
	<path d="M193.6,44.5c1.6,0,2.7,0.7,2.7,2c0,1.9-2.3,3.4-4.5,3.4c-1.3,0-2.4-0.7-2.4-1.8C189.4,46.3,191.6,44.5,193.6,44.5z
		 M189.8,48.4c0,0.6,0.4,0.9,1.1,0.9c1.4,0,4.9-2.1,4.9-3.3c0-0.6-0.4-0.9-1.1-0.9C193.5,45.1,189.8,47.2,189.8,48.4z"/>
</g>
<rect x="221.7" y="15.2" width="0.5" height="26.4"/>
<g>
	<path d="M215.2,43.1c0-1.8,2.5-3.5,4.5-3.5c1.3,0,2.3,0.7,2.3,1.7c0,1.7-2.5,3.5-4.6,3.5C216.2,44.9,215.2,44.2,215.2,43.1z"/>
</g>
<rect x="229.9" y="13.6" width="0.5" height="22.9"/>
<g>
	<path d="M223.5,38.2c0-1.8,2.5-3.5,4.5-3.5c1.3,0,2.3,0.7,2.3,1.7c0,1.7-2.5,3.5-4.6,3.5C224.4,39.9,223.5,39.3,223.5,38.2z"/>
</g>
<rect x="238" y="12.2" width="0.5" height="16.9"/>
<g>
	<path d="M231.5,30.7c0-1.8,2.5-3.5,4.5-3.5c1.3,0,2.3,0.7,2.3,1.7c0,1.7-2.5,3.5-4.6,3.5C232.5,32.5,231.5,31.8,231.5,30.7z"/>
</g>
<rect x="247.9" y="10.2" width="0.5" height="14"/>
<g>
	<path d="M241.4,25.8c0-1.8,2.5-3.5,4.5-3.5c1.3,0,2.3,0.7,2.3,1.7c0,1.7-2.5,3.5-4.6,3.5C242.4,27.5,241.4,26.9,241.4,25.8z"/>
</g>
<rect x="267.7" y="20.7" width="0.5" height="14"/>
<g>
	<path d="M267.8,20.8c0-1.8,2.5-3.5,4.5-3.5c1.3,0,2.3,0.7,2.3,1.7c0,1.7-2.5,3.5-4.6,3.5C268.8,22.5,267.8,21.9,267.8,20.8z"/>
</g>
<rect x="275.9" y="14.6" width="10.5" height="0.8"/>
<rect x="277.6" y="13.3" width="0.5" height="20"/>
<g>
	<path d="M277.7,13.4c0-1.8,2.5-3.5,4.5-3.5c1.3,0,2.3,0.7,2.3,1.7c0,1.7-2.5,3.5-4.6,3.5C278.7,15.1,277.7,14.5,277.7,13.4z"/>
</g>
<rect x="287.6" y="14.6" width="10.5" height="0.8"/>
<rect x="287.6" y="9.7" width="10.5" height="0.8"/>
<rect x="289.4" y="8.3" width="0.5" height="23.3"/>
<g>
	<path d="M289.5,8.4c0-1.8,2.5-3.5,4.5-3.5c1.3,0,2.3,0.7,2.3,1.7c0,1.7-2.5,3.5-4.6,3.5C290.5,10.1,289.5,9.5,289.5,8.4z"/>
</g>
<rect x="299.4" y="14.6" width="10.5" height="0.8"/>
<rect x="301.2" y="13.3" width="0.5" height="16.4"/>
<g>
	<path d="M301.3,13.4c0-1.8,2.5-3.5,4.5-3.5c1.3,0,2.3,0.7,2.3,1.7c0,1.7-2.5,3.5-4.6,3.5C302.3,15.1,301.3,14.5,301.3,13.4z"/>
</g>
<rect x="327.6" y="20.7" width="0.5" height="25.1"/>
<g>
	<path d="M327.6,20.8c0-1.8,2.5-3.5,4.5-3.5c1.3,0,2.3,0.7,2.3,1.7c0,1.7-2.5,3.5-4.6,3.5C328.6,22.5,327.6,21.9,327.6,20.8z"/>
</g>
<rect x="339.3" y="25.7" width="0.5" height="22"/>
<g>
	<path d="M339.4,25.8c0-1.8,2.5-3.5,4.5-3.5c1.3,0,2.3,0.7,2.3,1.7c0,1.7-2.5,3.5-4.6,3.5C340.4,27.5,339.4,26.9,339.4,25.8z"/>
</g>
<rect x="349.3" y="30.7" width="0.5" height="18.8"/>
<g>
	<path d="M349.3,30.7c0-1.8,2.5-3.5,4.5-3.5c1.3,0,2.3,0.7,2.3,1.7c0,1.7-2.5,3.5-4.6,3.5C350.3,32.5,349.3,31.8,349.3,30.7z"/>
</g>
<rect x="357.5" y="38.1" width="0.5" height="12.7"/>
<g>
	<path d="M357.6,38.2c0-1.8,2.5-3.5,4.5-3.5c1.3,0,2.3,0.7,2.3,1.7c0,1.7-2.5,3.5-4.6,3.5C358.5,39.9,357.6,39.3,357.6,38.2z"/>
</g>
<rect x="372.2" y="24.9" width="0.5" height="16.6"/>
<g>
	<path d="M369.9,39.6c1.6,0,2.7,0.7,2.7,2c0,1.9-2.3,3.4-4.5,3.4c-1.3,0-2.4-0.7-2.4-1.8C365.6,41.4,367.9,39.6,369.9,39.6z
		 M366.1,43.4c0,0.6,0.4,0.9,1.1,0.9c1.4,0,4.9-2.1,4.9-3.3c0-0.6-0.4-0.9-1.1-0.9C369.7,40.2,366.1,42.2,366.1,43.4z"/>
</g>
<rect x="406.1" y="38.1" width="0.5" height="12.7"/>
<g>
	<path d="M406.2,38.2c0-1.8,2.5-3.5,4.5-3.5c1.3,0,2.3,0.7,2.3,1.7c0,1.7-2.5,3.5-4.6,3.5C407.2,39.9,406.2,39.3,406.2,38.2z"/>
</g>
<rect x="417.9" y="30.7" width="0.5" height="18.3"/>
<g>
	<path d="M418,30.7c0-1.8,2.5-3.5,4.5-3.5c1.3,0,2.3,0.7,2.3,1.7c0,1.7-2.5,3.5-4.6,3.5C419,32.5,418,31.8,418,30.7z"/>
</g>
<rect x="427.9" y="25.7" width="0.5" height="21.5"/>
<g>
	<path d="M427.9,25.8c0-1.8,2.5-3.5,4.5-3.5c1.3,0,2.3,0.7,2.3,1.7c0,1.7-2.5,3.5-4.6,3.5C428.9,27.5,427.9,26.9,427.9,25.8z"/>
</g>
<rect x="435.9" y="20.7" width="0.5" height="25.1"/>
<g>
	<path d="M436,20.8c0-1.8,2.5-3.5,4.5-3.5c1.3,0,2.3,0.7,2.3,1.7c0,1.7-2.5,3.5-4.6,3.5C437,22.5,436,21.9,436,20.8z"/>
</g>
<rect x="444.1" y="14.6" width="10.5" height="0.8"/>
<rect x="445.8" y="13.3" width="0.5" height="17.7"/>
<g>
	<path d="M445.9,13.4c0-1.8,2.5-3.5,4.5-3.5c1.3,0,2.3,0.7,2.3,1.7c0,1.7-2.5,3.5-4.6,3.5C446.9,15.1,445.9,14.5,445.9,13.4z"/>
</g>
<rect x="455.8" y="14.6" width="10.5" height="0.8"/>
<rect x="455.8" y="9.7" width="10.5" height="0.8"/>
<rect x="457.6" y="8.3" width="0.5" height="22.3"/>
<g>
	<path d="M457.7,8.4c0-1.8,2.5-3.5,4.5-3.5c1.3,0,2.3,0.7,2.3,1.7c0,1.7-2.5,3.5-4.6,3.5C458.7,10.1,457.7,9.5,457.7,8.4z"/>
</g>
<rect x="467.6" y="14.6" width="10.5" height="0.8"/>
<rect x="467.6" y="9.7" width="10.5" height="0.8"/>
<rect x="467.6" y="4.7" width="10.5" height="0.8"/>
<rect x="469.4" y="3.4" width="0.5" height="26.8"/>
<g>
	<path d="M469.5,3.5c0-1.8,2.5-3.5,4.5-3.5c1.3,0,2.3,0.7,2.3,1.7c0,1.7-2.5,3.5-4.6,3.5C470.4,5.2,469.5,4.5,469.5,3.5z"/>
</g>
<rect x="479.4" y="14.6" width="10.5" height="0.8"/>
<rect x="479.4" y="9.7" width="10.5" height="0.8"/>
<rect x="481.2" y="8.3" width="0.5" height="21.4"/>
<g>
	<path d="M481.3,8.4c0-1.8,2.5-3.5,4.5-3.5c1.3,0,2.3,0.7,2.3,1.7c0,1.7-2.5,3.5-4.6,3.5C482.2,10.1,481.3,9.5,481.3,8.4z"/>
</g>
<rect x="491.2" y="14.6" width="10.5" height="0.8"/>
<rect x="493" y="13.3" width="0.5" height="26.4"/>
<g>
	<path d="M493,13.4c0-1.8,2.5-3.5,4.5-3.5c1.3,0,2.3,0.7,2.3,1.7c0,1.7-2.5,3.5-4.6,3.5C494,15.1,493,14.5,493,13.4z"/>
</g>
<rect x="502.9" y="20.7" width="0.5" height="20.6"/>
<g>
	<path d="M503,20.8c0-1.8,2.5-3.5,4.5-3.5c1.3,0,2.3,0.7,2.3,1.7c0,1.7-2.5,3.5-4.6,3.5C503.9,22.5,503,21.9,503,20.8z"/>
</g>
<rect x="511.1" y="25.7" width="0.5" height="17.1"/>
<g>
	<path d="M511.2,25.8c0-1.8,2.5-3.5,4.5-3.5c1.3,0,2.3,0.7,2.3,1.7c0,1.7-2.5,3.5-4.6,3.5C512.1,27.5,511.2,26.9,511.2,25.8z"/>
</g>
<rect x="521" y="30.7" width="0.5" height="14"/>
<g>
	<path d="M521.1,30.7c0-1.8,2.5-3.5,4.5-3.5c1.3,0,2.3,0.7,2.3,1.7c0,1.7-2.5,3.5-4.6,3.5C522.1,32.5,521.1,31.8,521.1,30.7z"/>
</g>
<rect x="539.5" y="20" width="0.5" height="16.6"/>
<g>
	<path d="M537.1,34.6c1.6,0,2.7,0.7,2.7,2c0,1.9-2.3,3.4-4.5,3.4c-1.3,0-2.4-0.7-2.4-1.8C532.9,36.4,535.1,34.6,537.1,34.6z
		 M533.3,38.5c0,0.6,0.4,0.9,1.1,0.9c1.4,0,4.9-2.1,4.9-3.3c0-0.6-0.4-0.9-1.1-0.9C537,35.2,533.3,37.2,533.3,38.5z"/>
</g>
<rect x="48.2" y="83.8" width="0.5" height="14"/>
<g>
	<path d="M48.3,83.9c0-1.8,2.5-3.5,4.5-3.5c1.3,0,2.3,0.7,2.3,1.7c0,1.7-2.5,3.5-4.6,3.5C49.3,85.6,48.3,85,48.3,83.9z"/>
</g>
<rect x="58.1" y="78.9" width="0.5" height="17.1"/>
<g>
	<path d="M58.2,78.9c0-1.8,2.5-3.5,4.5-3.5c1.3,0,2.3,0.7,2.3,1.7c0,1.7-2.5,3.5-4.6,3.5C59.2,80.7,58.2,80,58.2,78.9z"/>
</g>
<rect x="66.2" y="73.9" width="0.5" height="20.6"/>
<g>
	<path d="M66.3,74c0-1.8,2.5-3.5,4.5-3.5c1.3,0,2.3,0.7,2.3,1.7c0,1.7-2.5,3.5-4.6,3.5C67.3,75.7,66.3,75.1,66.3,74z"/>
</g>
<rect x="74.4" y="66.5" width="0.5" height="26.4"/>
<g>
	<path d="M74.5,66.5c0-1.8,2.5-3.5,4.5-3.5c1.3,0,2.3,0.7,2.3,1.7c0,1.7-2.5,3.5-4.6,3.5C75.5,68.3,74.5,67.6,74.5,66.5z"/>
</g>
<rect x="105.4" y="62.1" width="0.5" height="27.6"/>
<g>
	<path d="M99,91.3c0-1.8,2.5-3.5,4.5-3.5c1.3,0,2.3,0.7,2.3,1.7c0,1.7-2.5,3.5-4.6,3.5C100,93.1,99,92.4,99,91.3z"/>
</g>
<rect x="113.5" y="62.1" width="0.5" height="22.6"/>
<g>
	<path d="M107,86.4c0-1.8,2.5-3.5,4.5-3.5c1.3,0,2.3,0.7,2.3,1.7c0,1.7-2.5,3.5-4.6,3.5C108,88.1,107,87.5,107,86.4z"/>
</g>
<rect x="123.4" y="62.1" width="0.5" height="15.2"/>
<g>
	<path d="M117,78.9c0-1.8,2.5-3.5,4.5-3.5c1.3,0,2.3,0.7,2.3,1.7c0,1.7-2.5,3.5-4.6,3.5C117.9,80.7,117,80,117,78.9z"/>
</g>
<rect x="133.3" y="62.1" width="0.5" height="22.6"/>
<g>
	<path d="M126.9,86.4c0-1.8,2.5-3.5,4.5-3.5c1.3,0,2.3,0.7,2.3,1.7c0,1.7-2.5,3.5-4.6,3.5C127.9,88.1,126.9,87.5,126.9,86.4z"/>
</g>
<rect x="151.4" y="62.8" width="10.5" height="0.8"/>
<rect x="153.2" y="61.5" width="0.5" height="26.4"/>
<g>
	<path d="M153.2,61.6c0-1.8,2.5-3.5,4.5-3.5c1.3,0,2.3,0.7,2.3,1.7c0,1.7-2.5,3.5-4.6,3.5C154.2,63.3,153.2,62.7,153.2,61.6z"/>
</g>
<rect x="163.1" y="66.5" width="0.5" height="23.3"/>
<g>
	<path d="M163.2,66.5c0-1.8,2.5-3.5,4.5-3.5c1.3,0,2.3,0.7,2.3,1.7c0,1.7-2.5,3.5-4.6,3.5C164.1,68.3,163.2,67.6,163.2,66.5z"/>
</g>
<rect x="171.3" y="73.9" width="0.5" height="17.4"/>
<g>
	<path d="M171.4,74c0-1.8,2.5-3.5,4.5-3.5c1.3,0,2.3,0.7,2.3,1.7c0,1.7-2.5,3.5-4.6,3.5C172.4,75.7,171.4,75.1,171.4,74z"/>
</g>
<rect x="179.4" y="78.9" width="0.5" height="14"/>
<g>
	<path d="M179.4,78.9c0-1.8,2.5-3.5,4.5-3.5c1.3,0,2.3,0.7,2.3,1.7c0,1.7-2.5,3.5-4.6,3.5C180.4,80.7,179.4,80,179.4,78.9z"/>
</g>
<rect x="195.9" y="65.7" width="0.5" height="16.6"/>
<g>
	<path d="M193.6,80.4c1.6,0,2.7,0.7,2.7,2c0,1.9-2.3,3.4-4.5,3.4c-1.3,0-2.4-0.7-2.4-1.8C189.4,82.1,191.6,80.4,193.6,80.4z
		 M189.8,84.2c0,0.6,0.4,0.9,1.1,0.9c1.4,0,4.9-2.1,4.9-3.3c0-0.6-0.4-0.9-1.1-0.9C193.5,80.9,189.8,83,189.8,84.2z"/>
</g>
<rect x="215.2" y="78.9" width="0.5" height="14"/>
<g>
	<path d="M215.2,78.9c0-1.8,2.5-3.5,4.5-3.5c1.3,0,2.3,0.7,2.3,1.7c0,1.7-2.5,3.5-4.6,3.5C216.2,80.7,215.2,80,215.2,78.9z"/>
</g>
<rect x="223.4" y="73.9" width="0.5" height="17.4"/>
<g>
	<path d="M223.5,74c0-1.8,2.5-3.5,4.5-3.5c1.3,0,2.3,0.7,2.3,1.7c0,1.7-2.5,3.5-4.6,3.5C224.4,75.7,223.5,75.1,223.5,74z"/>
</g>
<rect x="231.4" y="66.5" width="0.5" height="23.4"/>
<g>
	<path d="M231.5,66.5c0-1.8,2.5-3.5,4.5-3.5c1.3,0,2.3,0.7,2.3,1.7c0,1.7-2.5,3.5-4.6,3.5C232.5,68.3,231.5,67.6,231.5,66.5z"/>
</g>
<rect x="239.6" y="62.8" width="10.5" height="0.8"/>
<rect x="241.4" y="61.5" width="0.5" height="26.4"/>
<g>
	<path d="M241.4,61.6c0-1.8,2.5-3.5,4.5-3.5c1.3,0,2.3,0.7,2.3,1.7c0,1.7-2.5,3.5-4.6,3.5C242.4,63.3,241.4,62.7,241.4,61.6z"/>
</g>
<rect x="274.2" y="58.4" width="0.5" height="26.4"/>
<g>
	<path d="M267.8,86.4c0-1.8,2.5-3.5,4.5-3.5c1.3,0,2.3,0.7,2.3,1.7c0,1.7-2.5,3.5-4.6,3.5C268.8,88.1,267.8,87.5,267.8,86.4z"/>
</g>
<rect x="284.2" y="58.4" width="0.5" height="18.9"/>
<g>
	<path d="M277.7,78.9c0-1.8,2.5-3.5,4.5-3.5c1.3,0,2.3,0.7,2.3,1.7c0,1.7-2.5,3.5-4.6,3.5C278.7,80.7,277.7,80,277.7,78.9z"/>
</g>
<rect x="295.9" y="58.4" width="0.5" height="14"/>
<g>
	<path d="M289.5,74c0-1.8,2.5-3.5,4.5-3.5c1.3,0,2.3,0.7,2.3,1.7c0,1.7-2.5,3.5-4.6,3.5C290.5,75.7,289.5,75.1,289.5,74z"/>
</g>
<rect x="307.7" y="58.4" width="0.5" height="18.9"/>
<g>
	<path d="M301.3,78.9c0-1.8,2.5-3.5,4.5-3.5c1.3,0,2.3,0.7,2.3,1.7c0,1.7-2.5,3.5-4.6,3.5C302.3,80.7,301.3,80,301.3,78.9z"/>
</g>
<rect x="325.8" y="62.8" width="10.5" height="0.8"/>
<rect x="325.8" y="57.9" width="10.5" height="0.8"/>
<rect x="327.6" y="56.5" width="0.5" height="26.4"/>
<g>
	<path d="M327.6,56.6c0-1.8,2.5-3.5,4.5-3.5c1.3,0,2.3,0.7,2.3,1.7c0,1.7-2.5,3.5-4.6,3.5C328.6,58.3,327.6,57.7,327.6,56.6z"/>
</g>
<rect x="337.6" y="62.8" width="10.5" height="0.8"/>
<rect x="339.3" y="61.5" width="0.5" height="23.3"/>
<g>
	<path d="M339.4,61.6c0-1.8,2.5-3.5,4.5-3.5c1.3,0,2.3,0.7,2.3,1.7c0,1.7-2.5,3.5-4.6,3.5C340.4,63.3,339.4,62.7,339.4,61.6z"/>
</g>
<rect x="349.3" y="66.5" width="0.5" height="20"/>
<g>
	<path d="M349.3,66.5c0-1.8,2.5-3.5,4.5-3.5c1.3,0,2.3,0.7,2.3,1.7c0,1.7-2.5,3.5-4.6,3.5C350.3,68.3,349.3,67.6,349.3,66.5z"/>
</g>
<rect x="357.5" y="73.9" width="0.5" height="14"/>
<g>
	<path d="M357.6,74c0-1.8,2.5-3.5,4.5-3.5c1.3,0,2.3,0.7,2.3,1.7c0,1.7-2.5,3.5-4.6,3.5C358.5,75.7,357.6,75.1,357.6,74z"/>
</g>
<rect x="365.5" y="78.9" width="0.5" height="16.6"/>
<g>
	<path d="M369.9,75.4c1.6,0,2.7,0.7,2.7,2c0,1.9-2.3,3.4-4.5,3.4c-1.3,0-2.4-0.7-2.4-1.8C365.6,77.2,367.9,75.4,369.9,75.4z
		 M366.1,79.2c0,0.6,0.4,0.9,1.1,0.9c1.4,0,4.9-2.1,4.9-3.3c0-0.6-0.4-0.9-1.1-0.9C369.7,76,366.1,78,366.1,79.2z"/>
</g>
<rect x="404.4" y="92.6" width="10.5" height="0.8"/>
<rect x="404.4" y="97.5" width="10.5" height="0.8"/>
<rect x="404.4" y="102.5" width="10.5" height="0.8"/>
<rect x="412.7" y="73.3" width="0.5" height="28.8"/>
<g>
	<path d="M406.2,103.7c0-1.8,2.5-3.5,4.5-3.5c1.3,0,2.3,0.7,2.3,1.7c0,1.7-2.5,3.5-4.6,3.5C407.2,105.5,406.2,104.8,406.2,103.7z"/>
</g>
<rect x="416.1" y="92.6" width="10.5" height="0.8"/>
<rect x="424.4" y="71.4" width="0.5" height="23.3"/>
<g>
	<path d="M418,96.3c0-1.8,2.5-3.5,4.5-3.5c1.3,0,2.3,0.7,2.3,1.7c0,1.7-2.5,3.5-4.6,3.5C419,98,418,97.4,418,96.3z"/>
</g>
<rect x="434.4" y="69.7" width="0.5" height="20"/>
<g>
	<path d="M427.9,91.3c0-1.8,2.5-3.5,4.5-3.5c1.3,0,2.3,0.7,2.3,1.7c0,1.7-2.5,3.5-4.6,3.5C428.9,93.1,427.9,92.4,427.9,91.3z"/>
</g>
<rect x="442.4" y="68.3" width="0.5" height="16.4"/>
<g>
	<path d="M436,86.4c0-1.8,2.5-3.5,4.5-3.5c1.3,0,2.3,0.7,2.3,1.7c0,1.7-2.5,3.5-4.6,3.5C437,88.1,436,87.5,436,86.4z"/>
</g>
<rect x="445.8" y="78.9" width="0.5" height="17.7"/>
<g>
	<path d="M445.9,78.9c0-1.8,2.5-3.5,4.5-3.5c1.3,0,2.3,0.7,2.3,1.7c0,1.7-2.5,3.5-4.6,3.5C446.9,80.7,445.9,80,445.9,78.9z"/>
</g>
<rect x="457.6" y="73.9" width="0.5" height="21.9"/>
<g>
	<path d="M457.7,74c0-1.8,2.5-3.5,4.5-3.5c1.3,0,2.3,0.7,2.3,1.7c0,1.7-2.5,3.5-4.6,3.5C458.7,75.7,457.7,75.1,457.7,74z"/>
</g>
<rect x="469.4" y="68.9" width="0.5" height="26"/>
<g>
	<path d="M469.5,69c0-1.8,2.5-3.5,4.5-3.5c1.3,0,2.3,0.7,2.3,1.7c0,1.7-2.5,3.5-4.6,3.5C470.4,70.7,469.5,70.1,469.5,69z"/>
</g>
<rect x="481.2" y="73.9" width="0.5" height="20.2"/>
<g>
	<path d="M481.3,74c0-1.8,2.5-3.5,4.5-3.5c1.3,0,2.3,0.7,2.3,1.7c0,1.7-2.5,3.5-4.6,3.5C482.2,75.7,481.3,75.1,481.3,74z"/>
</g>
<rect x="499.5" y="63.4" width="0.5" height="14"/>
<g>
	<path d="M493,78.9c0-1.8,2.5-3.5,4.5-3.5c1.3,0,2.3,0.7,2.3,1.7c0,1.7-2.5,3.5-4.6,3.5C494,80.7,493,80,493,78.9z"/>
</g>
<rect x="509.4" y="65.1" width="0.5" height="19.7"/>
<g>
	<path d="M503,86.4c0-1.8,2.5-3.5,4.5-3.5c1.3,0,2.3,0.7,2.3,1.7c0,1.7-2.5,3.5-4.6,3.5C503.9,88.1,503,87.5,503,86.4z"/>
</g>
<rect x="517.6" y="66.5" width="0.5" height="23.3"/>
<g>
	<path d="M511.2,91.3c0-1.8,2.5-3.5,4.5-3.5c1.3,0,2.3,0.7,2.3,1.7c0,1.7-2.5,3.5-4.6,3.5C512.1,93.1,511.2,92.4,511.2,91.3z"/>
</g>
<rect x="519.2" y="92.6" width="10.5" height="0.8"/>
<rect x="527.5" y="68.3" width="0.5" height="26.4"/>
<g>
	<path d="M521.1,96.3c0-1.8,2.5-3.5,4.5-3.5c1.3,0,2.3,0.7,2.3,1.7c0,1.7-2.5,3.5-4.6,3.5C522.1,98,521.1,97.4,521.1,96.3z"/>
</g>
<rect x="531" y="92.6" width="10.7" height="0.8"/>
<rect x="531" y="97.5" width="10.7" height="0.8"/>
<rect x="531" y="102.5" width="10.7" height="0.8"/>
<rect x="539.5" y="78.1" width="0.5" height="24"/>
<g>
	<path d="M537.1,100.2c1.6,0,2.7,0.7,2.7,2c0,1.9-2.3,3.4-4.5,3.4c-1.3,0-2.4-0.7-2.4-1.8C532.9,102,535.1,100.2,537.1,100.2z
		 M533.3,104c0,0.6,0.4,0.9,1.1,0.9c1.4,0,4.9-2.1,4.9-3.3c0-0.6-0.4-0.9-1.1-0.9C537,100.8,533.3,102.8,533.3,104z"/>
</g>
</svg>
