<?xml version="1.0" encoding="utf-8"?>

<!--
	ScaleBook
	Copyright (c) Leland Jansen 2015. All rights reserved.
-->

<!DOCTYPE svg PUBLIC "-//W3C//DTD SVG 1.1//EN" "http://www.w3.org/Graphics/SVG/1.1/DTD/svg11.dtd">
<svg version="1.1" id="Layer_1" xmlns="http://www.w3.org/2000/svg" xmlns:xlink="http://www.w3.org/1999/xlink" x="0px" y="0px"
	 viewBox="0 0 553 106.8" enable-background="new 0 0 553 106.8" xml:space="preserve">
<line fill="none" stroke="#000000" stroke-width="0.7751" stroke-linejoin="bevel" stroke-miterlimit="10" x1="8.9" y1="22.4" x2="8.9" y2="91.7"/>
<g>
	<path d="M7.6,23.1c-2,1.1-3.7,6-3.7,9.8c0,2.4,1.4,10.3,1.4,12.7c0,5.1-1.6,8.9-4.7,11.5c3.1,2.5,4.7,6.3,4.7,11.4
		c0,2.4-1.4,10.3-1.4,12.7c0,3.9,1.8,8.7,3.7,9.8v0.7C4,89.4,1.7,83.2,1.7,78.2c0-2.2,1.8-9.7,1.8-11.9c0-3.9-1-6.8-3-8.5
		C0.1,57.5,0,57.3,0,57.1s0.1-0.4,0.5-0.7c2-1.7,3-4.4,3-7.8c0-2.2-1.8-10.4-1.8-12.6c0-5.3,2.1-10.7,5.9-13.5V23.1z"/>
</g>
<line fill="none" stroke="#000000" stroke-width="0.7751" stroke-linejoin="bevel" stroke-miterlimit="10" x1="226.4" y1="22.4" x2="226.4" y2="91.7"/>
<line fill="none" stroke="#000000" stroke-width="0.7751" stroke-linejoin="bevel" stroke-miterlimit="10" x1="229" y1="22.4" x2="229" y2="91.7"/>
<line fill="none" stroke="#000000" stroke-width="0.7751" stroke-linejoin="bevel" stroke-miterlimit="10" x1="408.6" y1="22.4" x2="408.6" y2="91.7"/>
<line fill="none" stroke="#000000" stroke-width="0.7751" stroke-linejoin="bevel" stroke-miterlimit="10" x1="411.2" y1="22.4" x2="411.2" y2="91.7"/>
<line fill="none" stroke="#000000" stroke-width="0.7751" stroke-linejoin="bevel" stroke-miterlimit="10" x1="548.4" y1="22.4" x2="548.4" y2="91.7"/>
<line fill="none" stroke="#000000" stroke-width="2.4802" stroke-linejoin="bevel" stroke-miterlimit="10" x1="551.8" y1="22.4" x2="551.8" y2="91.7"/>
<line fill="none" stroke="#000000" stroke-width="0.465" stroke-linejoin="bevel" stroke-miterlimit="10" x1="8.6" y1="42.3" x2="553" y2="42.3"/>
<line fill="none" stroke="#000000" stroke-width="0.465" stroke-linejoin="bevel" stroke-miterlimit="10" x1="8.6" y1="37.3" x2="553" y2="37.3"/>
<line fill="none" stroke="#000000" stroke-width="0.465" stroke-linejoin="bevel" stroke-miterlimit="10" x1="8.6" y1="32.4" x2="553" y2="32.4"/>
<line fill="none" stroke="#000000" stroke-width="0.465" stroke-linejoin="bevel" stroke-miterlimit="10" x1="8.6" y1="27.4" x2="553" y2="27.4"/>
<line fill="none" stroke="#000000" stroke-width="0.465" stroke-linejoin="bevel" stroke-miterlimit="10" x1="8.6" y1="22.4" x2="553" y2="22.4"/>
<g>
	<path d="M20.4,42.1c-4.2,0-8.1-3.1-8.1-6.9c0-3.2,2.3-6.7,6.8-10.5c-0.3-1.2-0.4-2.4-0.4-3.6c0-3.5,1.2-6.8,3.2-8.5
		c1.8,2.5,2.7,4.9,2.7,7.1c0,2.9-1.3,5.6-4.3,8.1l0.9,4.2c0.5,0,0.8-0.1,0.8-0.1c2.6,0,4.8,2,4.8,4.7c0,1.9-1.4,3.7-3.6,4.8
		c0-0.1,0.9,3.8,0.9,4.3c0,2.5-2.3,4.2-4.9,4.2c-2,0-3.6-1.3-3.6-3.4c0-1.4,1-2.6,2.4-2.6c1.3,0,2.3,1.3,2.3,2.5
		c0,1.4-1.2,2.3-2.7,2.5c0.6,0.3,1.2,0.5,1.9,0.5c2.1,0,4.1-1.6,4.1-3.6c0-0.2,0-0.4-0.1-0.6l-0.8-3.7C22.1,42,21.4,42.1,20.4,42.1z
		 M18.2,36.9c0,1,0.5,1.9,1.6,2.5c-1.8-0.3-3-1.4-3-3.1c0-2,1.7-3.7,3.8-4.1l-0.8-4c-3.7,2.8-5.7,5.5-5.7,8.1c0,2.9,2.8,5.3,6,5.3
		c0.9,0,1.7-0.2,2.4-0.5l-1.4-6.8C19.5,34.5,18.2,35.5,18.2,36.9z M22.3,15.6c-1.6,0-2.9,3.7-2.9,7c0,0.7,0,1.3,0.2,1.9
		c2.7-2.4,4-4.5,4-6.5c0-0.9-0.3-1.7-1-2.4C22.5,15.6,22.4,15.6,22.3,15.6z M25,37.4c0-1.6-1.2-3.3-2.9-3.3c-0.1,0-0.2,0-0.5,0
		l1.4,6.6C24.4,39.9,25,38.7,25,37.4z"/>
</g>
<g>
	<path d="M29.7,24h0.6l-0.1,6.2c0.4-0.7,1-1,1.8-1c1.2,0,2.2,0.8,2.2,1.9c0,0.8-0.5,1.8-1.7,2.7L29.7,36V24z M30.3,31
		c-0.1,0.8-0.1,1.4-0.1,1.9c0,1,0,1.6,0.1,2c1-0.7,2.4-2.6,2.4-3.7c0-0.6-0.5-1.1-1.1-1.1C31,30.1,30.6,30.4,30.3,31z"/>
</g>
<g>
	<path d="M35.3,16.6h0.6l-0.1,6.2c0.4-0.7,1-1,1.8-1c1.2,0,2.2,0.8,2.2,1.9c0,0.8-0.5,1.8-1.7,2.7l-2.8,2.1V16.6z M35.9,23.5
		c-0.1,0.8-0.1,1.4-0.1,1.9c0,1,0,1.6,0.1,2c1-0.7,2.4-2.6,2.4-3.7c0-0.6-0.5-1.1-1.1-1.1C36.6,22.7,36.1,23,35.9,23.5z"/>
</g>
<g>
	<path d="M40.9,26.5h0.6l-0.1,6.2c0.4-0.7,1-1,1.8-1c1.2,0,2.2,0.8,2.2,1.9c0,0.8-0.5,1.8-1.7,2.7l-2.8,2.1V26.5z M41.4,33.4
		c-0.1,0.8-0.1,1.4-0.1,1.9c0,1,0,1.6,0.1,2c1-0.7,2.4-2.6,2.4-3.7c0-0.6-0.5-1.1-1.1-1.1C42.1,32.6,41.7,32.9,41.4,33.4z"/>
</g>
<g>
	<path d="M46.4,19.1h0.6l-0.1,6.2c0.4-0.7,1-1,1.8-1c1.2,0,2.2,0.8,2.2,1.9c0,0.8-0.5,1.8-1.7,2.7L46.4,31V19.1z M47,26
		c-0.1,0.8-0.1,1.4-0.1,1.9c0,1,0,1.6,0.1,2c1-0.7,2.4-2.6,2.4-3.7c0-0.6-0.5-1.1-1.1-1.1C47.7,25.2,47.3,25.4,47,26z"/>
</g>
<g>
	<path d="M52,29h0.6l-0.1,6.2c0.4-0.7,1-1,1.8-1c1.2,0,2.2,0.8,2.2,1.9c0,0.8-0.5,1.8-1.7,2.7L52,41V29z M52.6,35.9
		c-0.1,0.8-0.1,1.4-0.1,1.9c0,1,0,1.6,0.1,2c1-0.7,2.4-2.6,2.4-3.7c0-0.6-0.5-1.1-1.1-1.1C53.3,35.1,52.9,35.4,52.6,35.9z"/>
</g>
<g>
	<path d="M57.6,21.6h0.6l-0.1,6.2c0.4-0.7,1-1,1.8-1c1.2,0,2.2,0.8,2.2,1.9c0,0.8-0.5,1.8-1.7,2.7l-2.8,2.1V21.6z M58.2,28.5
		c-0.1,0.8-0.1,1.4-0.1,1.9c0,1,0,1.6,0.1,2c1-0.7,2.4-2.6,2.4-3.7c0-0.6-0.5-1.1-1.1-1.1C58.9,27.6,58.5,27.9,58.2,28.5z"/>
</g>
<g>
	<path d="M63.2,31.5h0.6l-0.1,6.2c0.4-0.7,1-1,1.8-1c1.2,0,2.2,0.8,2.2,1.9c0,0.8-0.5,1.8-1.7,2.7l-2.8,2.1V31.5z M63.8,38.4
		c-0.1,0.8-0.1,1.4-0.1,1.9c0,1,0,1.6,0.1,2c1-0.7,2.4-2.6,2.4-3.7c0-0.6-0.5-1.1-1.1-1.1C64.5,37.6,64.1,37.8,63.8,38.4z"/>
</g>
<polygon fill-rule="evenodd" clip-rule="evenodd" points="82.9,27.4 108.6,22.4 108.6,20 82.9,24.9 "/>
<polygon fill-rule="evenodd" clip-rule="evenodd" points="82.9,23.7 108.6,18.7 108.6,16.2 82.9,21.2 "/>
<polygon fill-rule="evenodd" clip-rule="evenodd" points="126.4,38.6 152.2,33.6 152.2,31.1 126.4,36.1 "/>
<polygon fill-rule="evenodd" clip-rule="evenodd" points="126.4,42.3 152.2,37.3 152.2,34.8 126.4,39.8 "/>
<polygon fill-rule="evenodd" clip-rule="evenodd" points="183,17.5 210.4,22.4 210.4,20 183,15 "/>
<polygon fill-rule="evenodd" clip-rule="evenodd" points="183,13.8 210.4,18.7 210.4,16.2 183,11.3 "/>
<polygon fill-rule="evenodd" clip-rule="evenodd" points="242.8,22.4 270.4,17.5 270.4,15 242.8,20 "/>
<polygon fill-rule="evenodd" clip-rule="evenodd" points="242.8,18.7 270.4,13.8 270.4,11.3 242.8,16.2 "/>
<polygon fill-rule="evenodd" clip-rule="evenodd" points="288.1,33.6 319.1,28.6 319.1,26.2 288.1,31.1 "/>
<polygon fill-rule="evenodd" clip-rule="evenodd" points="288.1,37.3 319.1,32.4 319.1,29.9 288.1,34.8 "/>
<polygon fill-rule="evenodd" clip-rule="evenodd" points="343.4,43.5 374.3,48.5 374.3,46 343.4,41 "/>
<polygon fill-rule="evenodd" clip-rule="evenodd" points="343.4,47.2 374.3,52.2 374.3,49.7 343.4,44.8 "/>
<polygon fill-rule="evenodd" clip-rule="evenodd" points="418.5,48.5 445.9,43.5 445.9,41 418.5,46 "/>
<polygon fill-rule="evenodd" clip-rule="evenodd" points="418.5,52.2 445.9,47.2 445.9,44.8 418.5,49.7 "/>
<polygon fill-rule="evenodd" clip-rule="evenodd" points="455.1,29.9 487.6,28.6 487.6,26.2 455.1,27.4 "/>
<polygon fill-rule="evenodd" clip-rule="evenodd" points="455.1,33.6 487.6,32.4 487.6,29.9 455.1,31.1 "/>
<polygon fill-rule="evenodd" clip-rule="evenodd" points="498.6,38.6 524.3,43.5 524.3,41 498.6,36.1 "/>
<polygon fill-rule="evenodd" clip-rule="evenodd" points="498.6,42.3 524.3,47.2 524.3,44.8 498.6,39.8 "/>
<line fill="none" stroke="#000000" stroke-width="0.465" stroke-linejoin="bevel" stroke-miterlimit="10" x1="8.6" y1="91.7" x2="553" y2="91.7"/>
<line fill="none" stroke="#000000" stroke-width="0.465" stroke-linejoin="bevel" stroke-miterlimit="10" x1="8.6" y1="86.8" x2="553" y2="86.8"/>
<line fill="none" stroke="#000000" stroke-width="0.465" stroke-linejoin="bevel" stroke-miterlimit="10" x1="8.6" y1="81.8" x2="553" y2="81.8"/>
<line fill="none" stroke="#000000" stroke-width="0.465" stroke-linejoin="bevel" stroke-miterlimit="10" x1="8.6" y1="76.8" x2="553" y2="76.8"/>
<line fill="none" stroke="#000000" stroke-width="0.465" stroke-linejoin="bevel" stroke-miterlimit="10" x1="8.6" y1="71.9" x2="553" y2="71.9"/>
<g>
	<path d="M15.9,86.1c2.9-2.6,4.7-6.1,4.7-9.2c0-2.5-1.4-4.4-3.7-4.4c-1.6,0-3.4,1.3-3.4,2.7c0,0.2,0,0.3,0.1,0.3
		c-0.1,0,0.6-0.6,1.4-0.6c0.9,0,1.5,0.8,1.5,1.7c0,1.2-0.9,2.2-2.1,2.2c-1.2,0-2.1-1.3-2.1-2.8c0-2.3,2.3-4.1,4.8-4.1
		c4.7,0,5.9,3.2,5.9,5.8c0,1.6-0.4,2.9-2,5.3c-1.9,3.1-6.4,5.3-8.1,5.3c-0.4,0-0.6-0.2-0.6-0.5C14,87.3,15.1,86.8,15.9,86.1z
		 M25.8,73.4c0.6,0,1,0.4,1,1c0,0.6-0.4,1-1,1s-1-0.4-1-1C24.8,73.8,25.3,73.4,25.8,73.4z M25.8,78.3c0.6,0,1,0.4,1,1
		c0,0.6-0.4,1-1,1s-1-0.4-1-1C24.8,78.8,25.3,78.3,25.8,78.3z"/>
</g>
<g>
	<path d="M29.7,78.5h0.6l-0.1,6.2c0.4-0.7,1-1,1.8-1c1.2,0,2.2,0.8,2.2,1.9c0,0.8-0.5,1.8-1.7,2.7l-2.8,2.1V78.5z M30.3,85.4
		c-0.1,0.8-0.1,1.4-0.1,1.9c0,1,0,1.6,0.1,2c1-0.7,2.4-2.6,2.4-3.7c0-0.6-0.5-1.1-1.1-1.1C31,84.5,30.6,84.8,30.3,85.4z"/>
</g>
<g>
	<path d="M35.3,71h0.6l-0.1,6.2c0.4-0.7,1-1,1.8-1c1.2,0,2.2,0.8,2.2,1.9c0,0.8-0.5,1.8-1.7,2.7L35.3,83V71z M35.9,77.9
		c-0.1,0.8-0.1,1.4-0.1,1.9c0,1,0,1.6,0.1,2c1-0.7,2.4-2.6,2.4-3.7c0-0.6-0.5-1.1-1.1-1.1C36.6,77.1,36.1,77.4,35.9,77.9z"/>
</g>
<g>
	<path d="M40.9,80.9h0.6l-0.1,6.2c0.4-0.7,1-1,1.8-1c1.2,0,2.2,0.8,2.2,1.9c0,0.8-0.5,1.8-1.7,2.7l-2.8,2.1V80.9z M41.4,87.8
		c-0.1,0.8-0.1,1.4-0.1,1.9c0,1,0,1.6,0.1,2c1-0.7,2.4-2.6,2.4-3.7c0-0.6-0.5-1.1-1.1-1.1C42.1,87,41.7,87.3,41.4,87.8z"/>
</g>
<g>
	<path d="M46.4,73.5h0.6l-0.1,6.2c0.4-0.7,1-1,1.8-1c1.2,0,2.2,0.8,2.2,1.9c0,0.8-0.5,1.8-1.7,2.7l-2.8,2.1V73.5z M47,80.4
		c-0.1,0.8-0.1,1.4-0.1,1.9c0,1,0,1.6,0.1,2c1-0.7,2.4-2.6,2.4-3.7c0-0.6-0.5-1.1-1.1-1.1C47.7,79.6,47.3,79.8,47,80.4z"/>
</g>
<g>
	<path d="M52,83.4h0.6l-0.1,6.2c0.4-0.7,1-1,1.8-1c1.2,0,2.2,0.8,2.2,1.9c0,0.8-0.5,1.8-1.7,2.7L52,95.4V83.4z M52.6,90.3
		c-0.1,0.8-0.1,1.4-0.1,1.9c0,1,0,1.6,0.1,2c1-0.7,2.4-2.6,2.4-3.7c0-0.6-0.5-1.1-1.1-1.1C53.3,89.5,52.9,89.8,52.6,90.3z"/>
</g>
<g>
	<path d="M57.6,76h0.6l-0.1,6.2c0.4-0.7,1-1,1.8-1c1.2,0,2.2,0.8,2.2,1.9c0,0.8-0.5,1.8-1.7,2.7l-2.8,2.1V76z M58.2,82.9
		c-0.1,0.8-0.1,1.4-0.1,1.9c0,1,0,1.6,0.1,2c1-0.7,2.4-2.6,2.4-3.7c0-0.6-0.5-1.1-1.1-1.1C58.9,82,58.5,82.3,58.2,82.9z"/>
</g>
<g>
	<path d="M63.2,85.9h0.6l-0.1,6.2c0.4-0.7,1-1,1.8-1c1.2,0,2.2,0.8,2.2,1.9c0,0.8-0.5,1.8-1.7,2.7l-2.8,2.1V85.9z M63.8,92.8
		c-0.1,0.8-0.1,1.4-0.1,1.9c0,1,0,1.6,0.1,2c1-0.7,2.4-2.6,2.4-3.7c0-0.6-0.5-1.1-1.1-1.1C64.5,92,64.1,92.2,63.8,92.8z"/>
</g>
<g>
	<path d="M120.3,90.4c-3.2,0-6.1-2.3-6.1-5.1c0-2.4,1.7-5,5.1-7.9c-0.2-0.9-0.3-1.8-0.3-2.7c0-2.6,0.9-5.1,2.4-6.3
		c1.4,1.9,2,3.7,2,5.3c0,2.2-1,4.2-3.2,6.1l0.7,3.1c0.4,0,0.6,0,0.6,0c2,0,3.6,1.5,3.6,3.5c0,1.4-1.1,2.8-2.7,3.6
		c0-0.1,0.6,2.8,0.6,3.3c0,1.9-1.7,3.2-3.7,3.2c-1.5,0-2.7-1-2.7-2.5c0-1.1,0.7-1.9,1.8-1.9c1,0,1.7,1,1.7,1.9c0,1-0.9,1.7-2,1.8
		c0.4,0.2,0.9,0.3,1.4,0.3c1.6,0,3.1-1.2,3.1-2.7c0-0.1,0-0.3,0-0.5L122,90C121.5,90.3,121,90.4,120.3,90.4z M118.6,86.5
		c0,0.8,0.4,1.4,1.2,1.9c-1.3-0.2-2.2-1.1-2.2-2.3c0-1.5,1.3-2.8,2.9-3.1l-0.6-3c-2.8,2.1-4.3,4.1-4.3,6.1c0,2.2,2.1,4,4.5,4
		c0.7,0,1.3-0.1,1.8-0.4l-1.1-5.1C119.6,84.7,118.6,85.4,118.6,86.5z M121.6,70.4c-1.2,0-2.2,2.8-2.2,5.3c0,0.5,0,1,0.1,1.4
		c2-1.8,3-3.4,3-4.9c0-0.7-0.3-1.3-0.7-1.8C121.8,70.5,121.8,70.4,121.6,70.4z M123.7,86.9c0-1.2-0.9-2.4-2.2-2.4c0,0-0.2,0-0.4,0
		l1.1,5C123.2,88.7,123.7,87.8,123.7,86.9z"/>
</g>
<polygon fill-rule="evenodd" clip-rule="evenodd" points="76.4,94.2 102.1,89.2 102.1,86.8 76.4,91.7 "/>
<polygon fill-rule="evenodd" clip-rule="evenodd" points="76.4,97.9 102.1,93 102.1,90.5 76.4,95.4 "/>
<g>
	<path d="M165,83.8c2.2-2,3.6-4.6,3.6-6.9c0-1.9-1.1-3.3-2.8-3.3c-1.2,0-2.5,1-2.5,2.1c0,0.2,0,0.2,0.1,0.2c0,0,0.4-0.5,1-0.5
		c0.7,0,1.2,0.6,1.2,1.3c0,0.9-0.6,1.7-1.6,1.7c-0.9,0-1.5-1-1.5-2.1c0-1.8,1.7-3.1,3.6-3.1c3.5,0,4.4,2.4,4.4,4.4
		c0,1.2-0.3,2.2-1.5,4c-1.4,2.3-4.8,4-6,4c-0.3,0-0.5-0.1-0.5-0.3C163.6,84.7,164.5,84.3,165,83.8z M172.5,74.2
		c0.4,0,0.7,0.3,0.7,0.7c0,0.4-0.3,0.7-0.7,0.7s-0.7-0.3-0.7-0.7C171.8,74.6,172.1,74.2,172.5,74.2z M172.5,77.9
		c0.4,0,0.7,0.3,0.7,0.7s-0.3,0.7-0.7,0.7s-0.7-0.3-0.7-0.7S172.1,77.9,172.5,77.9z"/>
</g>
<rect x="132.9" y="66.9" fill-rule="evenodd" clip-rule="evenodd" width="25.7" height="2.5"/>
<rect x="132.9" y="63.2" fill-rule="evenodd" clip-rule="evenodd" width="25.7" height="2.5"/>
<polygon fill-rule="evenodd" clip-rule="evenodd" points="176.5,88 203.9,93 203.9,90.5 176.5,85.5 "/>
<polygon fill-rule="evenodd" clip-rule="evenodd" points="176.5,91.7 203.9,96.7 203.9,94.2 176.5,89.2 "/>
<g>
	<path d="M281.9,90.4c-3.2,0-6.1-2.3-6.1-5.1c0-2.4,1.7-5,5.1-7.9c-0.2-0.9-0.3-1.8-0.3-2.7c0-2.6,0.9-5.1,2.4-6.3
		c1.4,1.9,2,3.7,2,5.3c0,2.2-1,4.2-3.2,6.1l0.7,3.1c0.4,0,0.6,0,0.6,0c2,0,3.6,1.5,3.6,3.5c0,1.4-1.1,2.8-2.7,3.6
		c0-0.1,0.6,2.8,0.6,3.3c0,1.9-1.7,3.2-3.7,3.2c-1.5,0-2.7-1-2.7-2.5c0-1.1,0.7-1.9,1.8-1.9c1,0,1.7,1,1.7,1.9c0,1-0.9,1.7-2,1.8
		c0.4,0.2,0.9,0.3,1.4,0.3c1.6,0,3.1-1.2,3.1-2.7c0-0.1,0-0.3,0-0.5l-0.6-2.8C283.2,90.3,282.6,90.4,281.9,90.4z M280.3,86.5
		c0,0.8,0.4,1.4,1.2,1.9c-1.3-0.2-2.2-1.1-2.2-2.3c0-1.5,1.3-2.8,2.9-3.1l-0.6-3c-2.8,2.1-4.3,4.1-4.3,6.1c0,2.2,2.1,4,4.5,4
		c0.7,0,1.3-0.1,1.8-0.4l-1.1-5.1C281.2,84.7,280.3,85.4,280.3,86.5z M283.3,70.4c-1.2,0-2.2,2.8-2.2,5.3c0,0.5,0,1,0.1,1.4
		c2-1.8,3-3.4,3-4.9c0-0.7-0.3-1.3-0.7-1.8C283.5,70.5,283.4,70.4,283.3,70.4z M285.4,86.9c0-1.2-0.9-2.4-2.2-2.4c0,0-0.2,0-0.4,0
		l1.1,5C284.9,88.7,285.4,87.8,285.4,86.9z"/>
</g>
<polygon fill-rule="evenodd" clip-rule="evenodd" points="236.3,93 263.9,88 263.9,85.5 236.3,90.5 "/>
<polygon fill-rule="evenodd" clip-rule="evenodd" points="236.3,96.7 263.9,91.7 263.9,89.2 236.3,94.2 "/>
<g>
	<path d="M332,83.8c2.2-2,3.6-4.6,3.6-6.9c0-1.9-1.1-3.3-2.8-3.3c-1.2,0-2.5,1-2.5,2.1c0,0.2,0,0.2,0.1,0.2c0,0,0.4-0.5,1-0.5
		c0.7,0,1.2,0.6,1.2,1.3c0,0.9-0.6,1.7-1.6,1.7s-1.5-1-1.5-2.1c0-1.8,1.7-3.1,3.6-3.1c3.5,0,4.4,2.4,4.4,4.4c0,1.2-0.3,2.2-1.5,4
		c-1.4,2.3-4.8,4-6,4c-0.3,0-0.5-0.1-0.5-0.3C330.6,84.7,331.4,84.3,332,83.8z M339.5,74.2c0.4,0,0.7,0.3,0.7,0.7
		c0,0.4-0.3,0.7-0.7,0.7c-0.4,0-0.7-0.3-0.7-0.7C338.7,74.6,339,74.2,339.5,74.2z M339.5,77.9c0.4,0,0.7,0.3,0.7,0.7
		s-0.3,0.7-0.7,0.7c-0.4,0-0.7-0.3-0.7-0.7S339,77.9,339.5,77.9z"/>
</g>
<polygon fill-rule="evenodd" clip-rule="evenodd" points="288.1,97.9 319.1,93 319.1,90.5 288.1,95.4 "/>
<polygon fill-rule="evenodd" clip-rule="evenodd" points="288.1,101.6 319.1,96.7 319.1,94.2 288.1,99.2 "/>
<polygon fill-rule="evenodd" clip-rule="evenodd" points="343.4,83 374.3,88 374.3,85.5 343.4,80.6 "/>
<polygon fill-rule="evenodd" clip-rule="evenodd" points="343.4,86.8 374.3,91.7 374.3,89.2 343.4,84.3 "/>
<g>
	<path d="M400.2,90.4c-3.2,0-6.1-2.3-6.1-5.1c0-2.4,1.7-5,5.1-7.9c-0.2-0.9-0.3-1.8-0.3-2.7c0-2.6,0.9-5.1,2.4-6.3
		c1.4,1.9,2,3.7,2,5.3c0,2.2-1,4.2-3.2,6.1l0.7,3.1c0.4,0,0.6,0,0.6,0c2,0,3.6,1.5,3.6,3.5c0,1.4-1.1,2.8-2.7,3.6
		c0-0.1,0.6,2.8,0.6,3.3c0,1.9-1.7,3.2-3.7,3.2c-1.5,0-2.7-1-2.7-2.5c0-1.1,0.7-1.9,1.8-1.9c1,0,1.7,1,1.7,1.9c0,1-0.9,1.7-2,1.8
		c0.4,0.2,0.9,0.3,1.4,0.3c1.6,0,3.1-1.2,3.1-2.7c0-0.1,0-0.3,0-0.5l-0.6-2.8C401.4,90.3,400.9,90.4,400.2,90.4z M398.6,86.5
		c0,0.8,0.4,1.4,1.2,1.9c-1.3-0.2-2.2-1.1-2.2-2.3c0-1.5,1.3-2.8,2.9-3.1l-0.6-3c-2.8,2.1-4.3,4.1-4.3,6.1c0,2.2,2.1,4,4.5,4
		c0.7,0,1.3-0.1,1.8-0.4l-1.1-5.1C399.5,84.7,398.6,85.4,398.6,86.5z M401.6,70.4c-1.2,0-2.2,2.8-2.2,5.3c0,0.5,0,1,0.1,1.4
		c2-1.8,3-3.4,3-4.9c0-0.7-0.3-1.3-0.7-1.8C401.8,70.5,401.7,70.4,401.6,70.4z M403.7,86.9c0-1.2-0.9-2.4-2.2-2.4c0,0-0.2,0-0.4,0
		l1.1,5C403.2,88.7,403.7,87.8,403.7,86.9z"/>
</g>
<polygon fill-rule="evenodd" clip-rule="evenodd" points="425,83 452.4,78.1 452.4,75.6 425,80.6 "/>
<polygon fill-rule="evenodd" clip-rule="evenodd" points="425,79.3 452.4,74.4 452.4,71.9 425,76.8 "/>
<polygon fill-rule="evenodd" clip-rule="evenodd" points="455.1,93 487.6,88 487.6,85.5 455.1,90.5 "/>
<polygon fill-rule="evenodd" clip-rule="evenodd" points="455.1,96.7 487.6,91.7 487.6,89.2 455.1,94.2 "/>
<polygon fill-rule="evenodd" clip-rule="evenodd" points="505.1,71.9 530.9,76.8 530.9,74.4 505.1,69.4 "/>
<polygon fill-rule="evenodd" clip-rule="evenodd" points="505.1,68.2 530.9,73.1 530.9,70.6 505.1,65.7 "/>
<line fill="none" stroke="#000000" stroke-width="0.7751" stroke-linejoin="bevel" stroke-miterlimit="10" x1="74.3" y1="47.2" x2="84.9" y2="47.2"/>
<line fill="none" stroke="#000000" stroke-width="0.465" stroke-linejoin="bevel" stroke-miterlimit="10" x1="82.9" y1="46.5" x2="82.9" y2="21.4"/>
<g>
	<path d="M76.2,48.1c0-1.8,2.5-3.5,4.5-3.5c1.3,0,2.3,0.7,2.3,1.7c0,1.7-2.5,3.5-4.6,3.5C77.2,49.8,76.2,49.2,76.2,48.1z"/>
</g>
<line fill="none" stroke="#000000" stroke-width="0.465" stroke-linejoin="bevel" stroke-miterlimit="10" x1="92" y1="41.5" x2="92" y2="19.7"/>
<g>
	<path d="M85.3,43.1c0-1.8,2.5-3.5,4.5-3.5c1.3,0,2.3,0.7,2.3,1.7c0,1.7-2.5,3.5-4.6,3.5C86.3,44.9,85.3,44.2,85.3,43.1z"/>
</g>
<line fill="none" stroke="#000000" stroke-width="0.465" stroke-linejoin="bevel" stroke-miterlimit="10" x1="99.5" y1="36.5" x2="99.5" y2="18.3"/>
<g>
	<path d="M92.8,38.2c0-1.8,2.5-3.5,4.5-3.5c1.3,0,2.3,0.7,2.3,1.7c0,1.7-2.5,3.5-4.6,3.5C93.8,39.9,92.8,39.3,92.8,38.2z"/>
</g>
<line fill="none" stroke="#000000" stroke-width="0.465" stroke-linejoin="bevel" stroke-miterlimit="10" x1="108.6" y1="29.1" x2="108.6" y2="16.4"/>
<g>
	<path d="M101.9,30.7c0-1.8,2.5-3.5,4.5-3.5c1.3,0,2.3,0.7,2.3,1.7c0,1.7-2.5,3.5-4.6,3.5C102.9,32.5,101.9,31.8,101.9,30.7z"/>
</g>
<line fill="none" stroke="#000000" stroke-width="0.465" stroke-linejoin="bevel" stroke-miterlimit="10" x1="126.4" y1="25.7" x2="126.4" y2="42.1"/>
<g>
	<path d="M126.3,25.8c0-1.8,2.5-3.5,4.5-3.5c1.3,0,2.3,0.7,2.3,1.7c0,1.7-2.5,3.5-4.6,3.5C127.2,27.5,126.3,26.9,126.3,25.8z"/>
</g>
<line fill="none" stroke="#000000" stroke-width="0.465" stroke-linejoin="bevel" stroke-miterlimit="10" x1="133.9" y1="20.7" x2="133.9" y2="40.7"/>
<g>
	<path d="M133.7,20.8c0-1.8,2.5-3.5,4.5-3.5c1.3,0,2.3,0.7,2.3,1.7c0,1.7-2.5,3.5-4.6,3.5C134.7,22.5,133.7,21.9,133.7,20.8z"/>
</g>
<line fill="none" stroke="#000000" stroke-width="0.7751" stroke-linejoin="bevel" stroke-miterlimit="10" x1="141" y1="17.5" x2="151.5" y2="17.5"/>
<line fill="none" stroke="#000000" stroke-width="0.7751" stroke-linejoin="bevel" stroke-miterlimit="10" x1="141" y1="12.5" x2="151.5" y2="12.5"/>
<line fill="none" stroke="#000000" stroke-width="0.465" stroke-linejoin="bevel" stroke-miterlimit="10" x1="143" y1="13.3" x2="143" y2="39"/>
<g>
	<path d="M142.9,13.4c0-1.8,2.5-3.5,4.5-3.5c1.3,0,2.3,0.7,2.3,1.7c0,1.7-2.5,3.5-4.6,3.5C143.8,15.1,142.9,14.5,142.9,13.4z"/>
</g>
<line fill="none" stroke="#000000" stroke-width="0.465" stroke-linejoin="bevel" stroke-miterlimit="10" x1="152.2" y1="20.7" x2="152.2" y2="37.2"/>
<g>
	<path d="M152,20.8c0-1.8,2.5-3.5,4.5-3.5c1.3,0,2.3,0.7,2.3,1.7c0,1.7-2.5,3.5-4.6,3.5C153,22.5,152,21.9,152,20.8z"/>
</g>
<line fill="none" stroke="#000000" stroke-width="0.465" stroke-linejoin="bevel" stroke-miterlimit="10" x1="183" y1="24.1" x2="183" y2="11.4"/>
<g>
	<path d="M176.3,25.8c0-1.8,2.5-3.5,4.5-3.5c1.3,0,2.3,0.7,2.3,1.7c0,1.7-2.5,3.5-4.6,3.5C177.3,27.5,176.3,26.9,176.3,25.8z"/>
</g>
<line fill="none" stroke="#000000" stroke-width="0.465" stroke-linejoin="bevel" stroke-miterlimit="10" x1="193.9" y1="29.1" x2="193.9" y2="13.3"/>
<g>
	<path d="M187.2,30.7c0-1.8,2.5-3.5,4.5-3.5c1.3,0,2.3,0.7,2.3,1.7c0,1.7-2.5,3.5-4.6,3.5C188.2,32.5,187.2,31.8,187.2,30.7z"/>
</g>
<line fill="none" stroke="#000000" stroke-width="0.465" stroke-linejoin="bevel" stroke-miterlimit="10" x1="203" y1="36.5" x2="203" y2="15"/>
<g>
	<path d="M196.3,38.2c0-1.8,2.5-3.5,4.5-3.5c1.3,0,2.3,0.7,2.3,1.7c0,1.7-2.5,3.5-4.6,3.5C197.3,39.9,196.3,39.3,196.3,38.2z"/>
</g>
<line fill="none" stroke="#000000" stroke-width="0.465" stroke-linejoin="bevel" stroke-miterlimit="10" x1="210.4" y1="41.5" x2="210.4" y2="16.4"/>
<g>
	<path d="M203.8,43.1c0-1.8,2.5-3.5,4.5-3.5c1.3,0,2.3,0.7,2.3,1.7c0,1.7-2.5,3.5-4.6,3.5C204.7,44.9,203.8,44.2,203.8,43.1z"/>
</g>
<line fill="none" stroke="#000000" stroke-width="0.7751" stroke-linejoin="bevel" stroke-miterlimit="10" x1="211.1" y1="47.2" x2="221.8" y2="47.2"/>
<line fill="none" stroke="#000000" stroke-width="0.465" stroke-linejoin="bevel" stroke-miterlimit="10" x1="219.7" y1="46.5" x2="219.7" y2="29.9"/>
<g>
	<path d="M217.2,44.5c1.6,0,2.7,0.7,2.7,2c0,1.9-2.3,3.4-4.5,3.4c-1.3,0-2.4-0.7-2.4-1.8C212.9,46.3,215.2,44.5,217.2,44.5z
		 M213.4,48.4c0,0.6,0.4,0.9,1.1,0.9c1.4,0,4.9-2.1,4.9-3.3c0-0.6-0.4-0.9-1.1-0.9C217,45.1,213.4,47.2,213.4,48.4z"/>
</g>
<line fill="none" stroke="#000000" stroke-width="0.465" stroke-linejoin="bevel" stroke-miterlimit="10" x1="242.8" y1="41.5" x2="242.8" y2="16.4"/>
<g>
	<path d="M236.2,43.1c0-1.8,2.5-3.5,4.5-3.5c1.3,0,2.3,0.7,2.3,1.7c0,1.7-2.5,3.5-4.6,3.5C237.1,44.9,236.2,44.2,236.2,43.1z"/>
</g>
<line fill="none" stroke="#000000" stroke-width="0.465" stroke-linejoin="bevel" stroke-miterlimit="10" x1="250.3" y1="36.5" x2="250.3" y2="15.2"/>
<g>
	<path d="M243.6,38.2c0-1.8,2.5-3.5,4.5-3.5c1.3,0,2.3,0.7,2.3,1.7c0,1.7-2.5,3.5-4.6,3.5C244.6,39.9,243.6,39.3,243.6,38.2z"/>
</g>
<line fill="none" stroke="#000000" stroke-width="0.465" stroke-linejoin="bevel" stroke-miterlimit="10" x1="259.4" y1="29.1" x2="259.4" y2="13.4"/>
<g>
	<path d="M252.8,30.7c0-1.8,2.5-3.5,4.5-3.5c1.3,0,2.3,0.7,2.3,1.7c0,1.7-2.5,3.5-4.6,3.5C253.7,32.5,252.8,31.8,252.8,30.7z"/>
</g>
<line fill="none" stroke="#000000" stroke-width="0.465" stroke-linejoin="bevel" stroke-miterlimit="10" x1="270.4" y1="24.1" x2="270.4" y2="11.4"/>
<g>
	<path d="M263.8,25.8c0-1.8,2.5-3.5,4.5-3.5c1.3,0,2.3,0.7,2.3,1.7c0,1.7-2.5,3.5-4.6,3.5C264.7,27.5,263.8,26.9,263.8,25.8z"/>
</g>
<line fill="none" stroke="#000000" stroke-width="0.465" stroke-linejoin="bevel" stroke-miterlimit="10" x1="288.1" y1="20.7" x2="288.1" y2="37.2"/>
<g>
	<path d="M287.9,20.8c0-1.8,2.5-3.5,4.5-3.5c1.3,0,2.3,0.7,2.3,1.7c0,1.7-2.5,3.5-4.6,3.5C288.9,22.5,287.9,21.9,287.9,20.8z"/>
</g>
<line fill="none" stroke="#000000" stroke-width="0.7751" stroke-linejoin="bevel" stroke-miterlimit="10" x1="295.2" y1="17.5" x2="305.8" y2="17.5"/>
<line fill="none" stroke="#000000" stroke-width="0.7751" stroke-linejoin="bevel" stroke-miterlimit="10" x1="295.2" y1="12.5" x2="305.8" y2="12.5"/>
<line fill="none" stroke="#000000" stroke-width="0.465" stroke-linejoin="bevel" stroke-miterlimit="10" x1="297.3" y1="13.3" x2="297.3" y2="35.8"/>
<g>
	<path d="M297.1,13.4c0-1.8,2.5-3.5,4.5-3.5c1.3,0,2.3,0.7,2.3,1.7c0,1.7-2.5,3.5-4.6,3.5C298.1,15.1,297.1,14.5,297.1,13.4z"/>
</g>
<line fill="none" stroke="#000000" stroke-width="0.7751" stroke-linejoin="bevel" stroke-miterlimit="10" x1="306.2" y1="17.5" x2="316.8" y2="17.5"/>
<line fill="none" stroke="#000000" stroke-width="0.7751" stroke-linejoin="bevel" stroke-miterlimit="10" x1="306.2" y1="12.5" x2="316.8" y2="12.5"/>
<line fill="none" stroke="#000000" stroke-width="0.7751" stroke-linejoin="bevel" stroke-miterlimit="10" x1="306.2" y1="7.6" x2="316.8" y2="7.6"/>
<line fill="none" stroke="#000000" stroke-width="0.465" stroke-linejoin="bevel" stroke-miterlimit="10" x1="308.3" y1="8.3" x2="308.3" y2="34.1"/>
<g>
	<path d="M308.1,8.4c0-1.8,2.5-3.5,4.5-3.5c1.3,0,2.3,0.7,2.3,1.7c0,1.7-2.5,3.5-4.6,3.5C309.1,10.1,308.1,9.5,308.1,8.4z"/>
</g>
<line fill="none" stroke="#000000" stroke-width="0.7751" stroke-linejoin="bevel" stroke-miterlimit="10" x1="317.1" y1="17.5" x2="327.6" y2="17.5"/>
<line fill="none" stroke="#000000" stroke-width="0.7751" stroke-linejoin="bevel" stroke-miterlimit="10" x1="317.1" y1="12.5" x2="327.6" y2="12.5"/>
<line fill="none" stroke="#000000" stroke-width="0.465" stroke-linejoin="bevel" stroke-miterlimit="10" x1="319.1" y1="13.3" x2="319.1" y2="32.2"/>
<g>
	<path d="M319,13.4c0-1.8,2.5-3.5,4.5-3.5c1.3,0,2.3,0.7,2.3,1.7c0,1.7-2.5,3.5-4.6,3.5C319.9,15.1,319,14.5,319,13.4z"/>
</g>
<line fill="none" stroke="#000000" stroke-width="0.465" stroke-linejoin="bevel" stroke-miterlimit="10" x1="343.4" y1="20.7" x2="343.4" y2="47.1"/>
<g>
	<path d="M343.3,20.8c0-1.8,2.5-3.5,4.5-3.5c1.3,0,2.3,0.7,2.3,1.7c0,1.7-2.5,3.5-4.6,3.5C344.3,22.5,343.3,21.9,343.3,20.8z"/>
</g>
<line fill="none" stroke="#000000" stroke-width="0.465" stroke-linejoin="bevel" stroke-miterlimit="10" x1="354.3" y1="25.7" x2="354.3" y2="48.8"/>
<g>
	<path d="M354.1,25.8c0-1.8,2.5-3.5,4.5-3.5c1.3,0,2.3,0.7,2.3,1.7c0,1.7-2.5,3.5-4.6,3.5C355.1,27.5,354.1,26.9,354.1,25.8z"/>
</g>
<line fill="none" stroke="#000000" stroke-width="0.465" stroke-linejoin="bevel" stroke-miterlimit="10" x1="365.1" y1="30.7" x2="365.1" y2="50.5"/>
<g>
	<path d="M365,30.7c0-1.8,2.5-3.5,4.5-3.5c1.3,0,2.3,0.7,2.3,1.7c0,1.7-2.5,3.5-4.6,3.5C366,32.5,365,31.8,365,30.7z"/>
</g>
<line fill="none" stroke="#000000" stroke-width="0.465" stroke-linejoin="bevel" stroke-miterlimit="10" x1="374.3" y1="38.1" x2="374.3" y2="52"/>
<g>
	<path d="M374.1,38.2c0-1.8,2.5-3.5,4.5-3.5c1.3,0,2.3,0.7,2.3,1.7c0,1.7-2.5,3.5-4.6,3.5C375.1,39.9,374.1,39.3,374.1,38.2z"/>
</g>
<line fill="none" stroke="#000000" stroke-width="0.465" stroke-linejoin="bevel" stroke-miterlimit="10" x1="388.4" y1="41.5" x2="388.4" y2="24.9"/>
<g>
	<path d="M385.8,39.6c1.6,0,2.7,0.7,2.7,2c0,1.9-2.3,3.4-4.5,3.4c-1.3,0-2.4-0.7-2.4-1.8C381.6,41.4,383.8,39.6,385.8,39.6z
		 M382,43.4c0,0.6,0.4,0.9,1.1,0.9c1.4,0,4.9-2.1,4.9-3.3c0-0.6-0.4-0.9-1.1-0.9C385.7,40.2,382,42.2,382,43.4z"/>
</g>
<line fill="none" stroke="#000000" stroke-width="0.465" stroke-linejoin="bevel" stroke-miterlimit="10" x1="418.5" y1="38.1" x2="418.5" y2="52"/>
<g>
	<path d="M418.3,38.2c0-1.8,2.5-3.5,4.5-3.5c1.3,0,2.3,0.7,2.3,1.7c0,1.7-2.5,3.5-4.6,3.5C419.3,39.9,418.3,39.3,418.3,38.2z"/>
</g>
<line fill="none" stroke="#000000" stroke-width="0.465" stroke-linejoin="bevel" stroke-miterlimit="10" x1="429.3" y1="30.7" x2="429.3" y2="50.2"/>
<g>
	<path d="M429.2,30.7c0-1.8,2.5-3.5,4.5-3.5c1.3,0,2.3,0.7,2.3,1.7c0,1.7-2.5,3.5-4.6,3.5C430.1,32.5,429.2,31.8,429.2,30.7z"/>
</g>
<line fill="none" stroke="#000000" stroke-width="0.465" stroke-linejoin="bevel" stroke-miterlimit="10" x1="438.5" y1="25.7" x2="438.5" y2="48.5"/>
<g>
	<path d="M438.3,25.8c0-1.8,2.5-3.5,4.5-3.5c1.3,0,2.3,0.7,2.3,1.7c0,1.7-2.5,3.5-4.6,3.5C439.3,27.5,438.3,26.9,438.3,25.8z"/>
</g>
<line fill="none" stroke="#000000" stroke-width="0.465" stroke-linejoin="bevel" stroke-miterlimit="10" x1="445.9" y1="20.7" x2="445.9" y2="47.1"/>
<g>
	<path d="M445.8,20.8c0-1.8,2.5-3.5,4.5-3.5c1.3,0,2.3,0.7,2.3,1.7c0,1.7-2.5,3.5-4.6,3.5C446.7,22.5,445.8,21.9,445.8,20.8z"/>
</g>
<line fill="none" stroke="#000000" stroke-width="0.7751" stroke-linejoin="bevel" stroke-miterlimit="10" x1="453" y1="17.5" x2="463.6" y2="17.5"/>
<line fill="none" stroke="#000000" stroke-width="0.7751" stroke-linejoin="bevel" stroke-miterlimit="10" x1="453" y1="12.5" x2="463.6" y2="12.5"/>
<line fill="none" stroke="#000000" stroke-width="0.465" stroke-linejoin="bevel" stroke-miterlimit="10" x1="455.1" y1="13.3" x2="455.1" y2="33.4"/>
<g>
	<path d="M454.9,13.4c0-1.8,2.5-3.5,4.5-3.5c1.3,0,2.3,0.7,2.3,1.7c0,1.7-2.5,3.5-4.6,3.5C455.9,15.1,454.9,14.5,454.9,13.4z"/>
</g>
<line fill="none" stroke="#000000" stroke-width="0.7751" stroke-linejoin="bevel" stroke-miterlimit="10" x1="463.9" y1="17.5" x2="474.4" y2="17.5"/>
<line fill="none" stroke="#000000" stroke-width="0.7751" stroke-linejoin="bevel" stroke-miterlimit="10" x1="463.9" y1="12.5" x2="474.4" y2="12.5"/>
<line fill="none" stroke="#000000" stroke-width="0.7751" stroke-linejoin="bevel" stroke-miterlimit="10" x1="463.9" y1="7.6" x2="474.4" y2="7.6"/>
<line fill="none" stroke="#000000" stroke-width="0.465" stroke-linejoin="bevel" stroke-miterlimit="10" x1="465.9" y1="8.3" x2="465.9" y2="33.1"/>
<g>
	<path d="M465.8,8.4c0-1.8,2.5-3.5,4.5-3.5c1.3,0,2.3,0.7,2.3,1.7c0,1.7-2.5,3.5-4.6,3.5C466.7,10.1,465.8,9.5,465.8,8.4z"/>
</g>
<line fill="none" stroke="#000000" stroke-width="0.7751" stroke-linejoin="bevel" stroke-miterlimit="10" x1="474.7" y1="17.5" x2="485.3" y2="17.5"/>
<line fill="none" stroke="#000000" stroke-width="0.7751" stroke-linejoin="bevel" stroke-miterlimit="10" x1="474.7" y1="12.5" x2="485.3" y2="12.5"/>
<line fill="none" stroke="#000000" stroke-width="0.7751" stroke-linejoin="bevel" stroke-miterlimit="10" x1="474.7" y1="7.6" x2="485.3" y2="7.6"/>
<line fill="none" stroke="#000000" stroke-width="0.7751" stroke-linejoin="bevel" stroke-miterlimit="10" x1="474.7" y1="2.6" x2="485.3" y2="2.6"/>
<line fill="none" stroke="#000000" stroke-width="0.465" stroke-linejoin="bevel" stroke-miterlimit="10" x1="476.8" y1="3.4" x2="476.8" y2="32.7"/>
<g>
	<path d="M476.6,3.5c0-1.8,2.5-3.5,4.5-3.5c1.3,0,2.3,0.7,2.3,1.7c0,1.7-2.5,3.5-4.6,3.5C477.6,5.2,476.6,4.5,476.6,3.5z"/>
</g>
<line fill="none" stroke="#000000" stroke-width="0.7751" stroke-linejoin="bevel" stroke-miterlimit="10" x1="485.6" y1="17.5" x2="496.1" y2="17.5"/>
<line fill="none" stroke="#000000" stroke-width="0.7751" stroke-linejoin="bevel" stroke-miterlimit="10" x1="485.6" y1="12.5" x2="496.1" y2="12.5"/>
<line fill="none" stroke="#000000" stroke-width="0.7751" stroke-linejoin="bevel" stroke-miterlimit="10" x1="485.6" y1="7.6" x2="496.1" y2="7.6"/>
<line fill="none" stroke="#000000" stroke-width="0.465" stroke-linejoin="bevel" stroke-miterlimit="10" x1="487.6" y1="8.3" x2="487.6" y2="32.2"/>
<g>
	<path d="M487.5,8.4c0-1.8,2.5-3.5,4.5-3.5c1.3,0,2.3,0.7,2.3,1.7c0,1.7-2.5,3.5-4.6,3.5C488.4,10.1,487.5,9.5,487.5,8.4z"/>
</g>
<line fill="none" stroke="#000000" stroke-width="0.7751" stroke-linejoin="bevel" stroke-miterlimit="10" x1="496.6" y1="17.5" x2="507.1" y2="17.5"/>
<line fill="none" stroke="#000000" stroke-width="0.7751" stroke-linejoin="bevel" stroke-miterlimit="10" x1="496.6" y1="12.5" x2="507.1" y2="12.5"/>
<line fill="none" stroke="#000000" stroke-width="0.465" stroke-linejoin="bevel" stroke-miterlimit="10" x1="498.6" y1="13.3" x2="498.6" y2="42.1"/>
<g>
	<path d="M498.5,13.4c0-1.8,2.5-3.5,4.5-3.5c1.3,0,2.3,0.7,2.3,1.7c0,1.7-2.5,3.5-4.6,3.5C499.4,15.1,498.5,14.5,498.5,13.4z"/>
</g>
<line fill="none" stroke="#000000" stroke-width="0.465" stroke-linejoin="bevel" stroke-miterlimit="10" x1="507.8" y1="20.7" x2="507.8" y2="43.8"/>
<g>
	<path d="M507.6,20.8c0-1.8,2.5-3.5,4.5-3.5c1.3,0,2.3,0.7,2.3,1.7c0,1.7-2.5,3.5-4.6,3.5C508.6,22.5,507.6,21.9,507.6,20.8z"/>
</g>
<line fill="none" stroke="#000000" stroke-width="0.465" stroke-linejoin="bevel" stroke-miterlimit="10" x1="515.2" y1="25.7" x2="515.2" y2="45.2"/>
<g>
	<path d="M515,25.8c0-1.8,2.5-3.5,4.5-3.5c1.3,0,2.3,0.7,2.3,1.7c0,1.7-2.5,3.5-4.6,3.5C516,27.5,515,26.9,515,25.8z"/>
</g>
<line fill="none" stroke="#000000" stroke-width="0.465" stroke-linejoin="bevel" stroke-miterlimit="10" x1="524.3" y1="30.7" x2="524.3" y2="47.1"/>
<g>
	<path d="M524.2,30.7c0-1.8,2.5-3.5,4.5-3.5c1.3,0,2.3,0.7,2.3,1.7c0,1.7-2.5,3.5-4.6,3.5C525.2,32.5,524.2,31.8,524.2,30.7z"/>
</g>
<line fill="none" stroke="#000000" stroke-width="0.465" stroke-linejoin="bevel" stroke-miterlimit="10" x1="541.9" y1="36.5" x2="541.9" y2="20"/>
<g>
	<path d="M539.3,34.6c1.6,0,2.7,0.7,2.7,2c0,1.9-2.3,3.4-4.5,3.4c-1.3,0-2.4-0.7-2.4-1.8C535,36.4,537.3,34.6,539.3,34.6z
		 M535.5,38.5c0,0.6,0.4,0.9,1.1,0.9c1.4,0,4.9-2.1,4.9-3.3c0-0.6-0.4-0.9-1.1-0.9C539.2,35.2,535.5,37.2,535.5,38.5z"/>
</g>
<line fill="none" stroke="#000000" stroke-width="0.465" stroke-linejoin="bevel" stroke-miterlimit="10" x1="76.4" y1="85.1" x2="76.4" y2="97.8"/>
<g>
	<path d="M76.2,85.1c0-1.8,2.5-3.5,4.5-3.5c1.3,0,2.3,0.7,2.3,1.7c0,1.7-2.5,3.5-4.6,3.5C77.2,86.9,76.2,86.2,76.2,85.1z"/>
</g>
<line fill="none" stroke="#000000" stroke-width="0.465" stroke-linejoin="bevel" stroke-miterlimit="10" x1="85.5" y1="80.1" x2="85.5" y2="96.1"/>
<g>
	<path d="M85.3,80.2c0-1.8,2.5-3.5,4.5-3.5c1.3,0,2.3,0.7,2.3,1.7c0,1.7-2.5,3.5-4.6,3.5C86.3,81.9,85.3,81.3,85.3,80.2z"/>
</g>
<line fill="none" stroke="#000000" stroke-width="0.465" stroke-linejoin="bevel" stroke-miterlimit="10" x1="92.9" y1="75.1" x2="92.9" y2="94.7"/>
<g>
	<path d="M92.8,75.2c0-1.8,2.5-3.5,4.5-3.5c1.3,0,2.3,0.7,2.3,1.7c0,1.7-2.5,3.5-4.6,3.5C93.8,76.9,92.8,76.3,92.8,75.2z"/>
</g>
<line fill="none" stroke="#000000" stroke-width="0.7751" stroke-linejoin="bevel" stroke-miterlimit="10" x1="100.1" y1="66.9" x2="110.6" y2="66.9"/>
<line fill="none" stroke="#000000" stroke-width="0.465" stroke-linejoin="bevel" stroke-miterlimit="10" x1="102.1" y1="67.7" x2="102.1" y2="92.8"/>
<g>
	<path d="M101.9,67.8c0-1.8,2.5-3.5,4.5-3.5c1.3,0,2.3,0.7,2.3,1.7c0,1.7-2.5,3.5-4.6,3.5C102.9,69.5,101.9,68.9,101.9,67.8z"/>
</g>
<line fill="none" stroke="#000000" stroke-width="0.465" stroke-linejoin="bevel" stroke-miterlimit="10" x1="132.9" y1="91" x2="132.9" y2="63.4"/>
<g>
	<path d="M126.3,92.6c0-1.8,2.5-3.5,4.5-3.5c1.3,0,2.3,0.7,2.3,1.7c0,1.7-2.5,3.5-4.6,3.5C127.2,94.3,126.3,93.7,126.3,92.6z"/>
</g>
<line fill="none" stroke="#000000" stroke-width="0.465" stroke-linejoin="bevel" stroke-miterlimit="10" x1="140.4" y1="86" x2="140.4" y2="63.4"/>
<g>
	<path d="M133.7,87.6c0-1.8,2.5-3.5,4.5-3.5c1.3,0,2.3,0.7,2.3,1.7c0,1.7-2.5,3.5-4.6,3.5C134.7,89.3,133.7,88.7,133.7,87.6z"/>
</g>
<line fill="none" stroke="#000000" stroke-width="0.465" stroke-linejoin="bevel" stroke-miterlimit="10" x1="149.5" y1="78.6" x2="149.5" y2="63.4"/>
<g>
	<path d="M142.9,80.2c0-1.8,2.5-3.5,4.5-3.5c1.3,0,2.3,0.7,2.3,1.7c0,1.7-2.5,3.5-4.6,3.5C143.8,81.9,142.9,81.3,142.9,80.2z"/>
</g>
<line fill="none" stroke="#000000" stroke-width="0.465" stroke-linejoin="bevel" stroke-miterlimit="10" x1="158.7" y1="86" x2="158.7" y2="63.4"/>
<g>
	<path d="M152,87.6c0-1.8,2.5-3.5,4.5-3.5c1.3,0,2.3,0.7,2.3,1.7c0,1.7-2.5,3.5-4.6,3.5C153,89.3,152,88.7,152,87.6z"/>
</g>
<line fill="none" stroke="#000000" stroke-width="0.7751" stroke-linejoin="bevel" stroke-miterlimit="10" x1="174.5" y1="66.9" x2="185" y2="66.9"/>
<line fill="none" stroke="#000000" stroke-width="0.7751" stroke-linejoin="bevel" stroke-miterlimit="10" x1="174.5" y1="62" x2="185" y2="62"/>
<line fill="none" stroke="#000000" stroke-width="0.465" stroke-linejoin="bevel" stroke-miterlimit="10" x1="176.5" y1="62.7" x2="176.5" y2="91.6"/>
<g>
	<path d="M176.3,62.8c0-1.8,2.5-3.5,4.5-3.5c1.3,0,2.3,0.7,2.3,1.7c0,1.7-2.5,3.5-4.6,3.5C177.3,64.5,176.3,63.9,176.3,62.8z"/>
</g>
<line fill="none" stroke="#000000" stroke-width="0.7751" stroke-linejoin="bevel" stroke-miterlimit="10" x1="185.3" y1="66.9" x2="195.9" y2="66.9"/>
<line fill="none" stroke="#000000" stroke-width="0.465" stroke-linejoin="bevel" stroke-miterlimit="10" x1="187.3" y1="67.7" x2="187.3" y2="93.4"/>
<g>
	<path d="M187.2,67.8c0-1.8,2.5-3.5,4.5-3.5c1.3,0,2.3,0.7,2.3,1.7c0,1.7-2.5,3.5-4.6,3.5C188.2,69.5,187.2,68.9,187.2,67.8z"/>
</g>
<line fill="none" stroke="#000000" stroke-width="0.465" stroke-linejoin="bevel" stroke-miterlimit="10" x1="196.5" y1="75.1" x2="196.5" y2="95.1"/>
<g>
	<path d="M196.3,75.2c0-1.8,2.5-3.5,4.5-3.5c1.3,0,2.3,0.7,2.3,1.7c0,1.7-2.5,3.5-4.6,3.5C197.3,76.9,196.3,76.3,196.3,75.2z"/>
</g>
<line fill="none" stroke="#000000" stroke-width="0.465" stroke-linejoin="bevel" stroke-miterlimit="10" x1="203.9" y1="80.1" x2="203.9" y2="96.5"/>
<g>
	<path d="M203.8,80.2c0-1.8,2.5-3.5,4.5-3.5c1.3,0,2.3,0.7,2.3,1.7c0,1.7-2.5,3.5-4.6,3.5C204.7,81.9,203.8,81.3,203.8,80.2z"/>
</g>
<line fill="none" stroke="#000000" stroke-width="0.465" stroke-linejoin="bevel" stroke-miterlimit="10" x1="219.7" y1="83.5" x2="219.7" y2="66.9"/>
<g>
	<path d="M217.2,81.6c1.6,0,2.7,0.7,2.7,2c0,1.9-2.3,3.4-4.5,3.4c-1.3,0-2.4-0.7-2.4-1.8C212.9,83.4,215.2,81.6,217.2,81.6z
		 M213.4,85.4c0,0.6,0.4,0.9,1.1,0.9c1.4,0,4.9-2.1,4.9-3.3c0-0.6-0.4-0.9-1.1-0.9C217,82.2,213.4,84.2,213.4,85.4z"/>
</g>
<line fill="none" stroke="#000000" stroke-width="0.465" stroke-linejoin="bevel" stroke-miterlimit="10" x1="236.3" y1="80.1" x2="236.3" y2="96.5"/>
<g>
	<path d="M236.2,80.2c0-1.8,2.5-3.5,4.5-3.5c1.3,0,2.3,0.7,2.3,1.7c0,1.7-2.5,3.5-4.6,3.5C237.1,81.9,236.2,81.3,236.2,80.2z"/>
</g>
<line fill="none" stroke="#000000" stroke-width="0.465" stroke-linejoin="bevel" stroke-miterlimit="10" x1="243.8" y1="75.1" x2="243.8" y2="95.3"/>
<g>
	<path d="M243.6,75.2c0-1.8,2.5-3.5,4.5-3.5c1.3,0,2.3,0.7,2.3,1.7c0,1.7-2.5,3.5-4.6,3.5C244.6,76.9,243.6,76.3,243.6,75.2z"/>
</g>
<line fill="none" stroke="#000000" stroke-width="0.7751" stroke-linejoin="bevel" stroke-miterlimit="10" x1="250.9" y1="66.9" x2="261.4" y2="66.9"/>
<line fill="none" stroke="#000000" stroke-width="0.465" stroke-linejoin="bevel" stroke-miterlimit="10" x1="252.9" y1="67.7" x2="252.9" y2="93.6"/>
<g>
	<path d="M252.8,67.8c0-1.8,2.5-3.5,4.5-3.5c1.3,0,2.3,0.7,2.3,1.7c0,1.7-2.5,3.5-4.6,3.5C253.7,69.5,252.8,68.9,252.8,67.8z"/>
</g>
<line fill="none" stroke="#000000" stroke-width="0.7751" stroke-linejoin="bevel" stroke-miterlimit="10" x1="261.9" y1="66.9" x2="272.4" y2="66.9"/>
<line fill="none" stroke="#000000" stroke-width="0.7751" stroke-linejoin="bevel" stroke-miterlimit="10" x1="261.9" y1="62" x2="272.4" y2="62"/>
<line fill="none" stroke="#000000" stroke-width="0.465" stroke-linejoin="bevel" stroke-miterlimit="10" x1="263.9" y1="62.7" x2="263.9" y2="91.6"/>
<g>
	<path d="M263.8,62.8c0-1.8,2.5-3.5,4.5-3.5c1.3,0,2.3,0.7,2.3,1.7c0,1.7-2.5,3.5-4.6,3.5C264.7,64.5,263.8,63.9,263.8,62.8z"/>
</g>
<line fill="none" stroke="#000000" stroke-width="0.465" stroke-linejoin="bevel" stroke-miterlimit="10" x1="288.1" y1="87.5" x2="288.1" y2="101.5"/>
<g>
	<path d="M287.9,87.6c0-1.8,2.5-3.5,4.5-3.5c1.3,0,2.3,0.7,2.3,1.7c0,1.7-2.5,3.5-4.6,3.5C288.9,89.3,287.9,88.7,287.9,87.6z"/>
</g>
<line fill="none" stroke="#000000" stroke-width="0.465" stroke-linejoin="bevel" stroke-miterlimit="10" x1="297.3" y1="80.1" x2="297.3" y2="100.1"/>
<g>
	<path d="M297.1,80.2c0-1.8,2.5-3.5,4.5-3.5c1.3,0,2.3,0.7,2.3,1.7c0,1.7-2.5,3.5-4.6,3.5C298.1,81.9,297.1,81.3,297.1,80.2z"/>
</g>
<line fill="none" stroke="#000000" stroke-width="0.465" stroke-linejoin="bevel" stroke-miterlimit="10" x1="308.3" y1="75.1" x2="308.3" y2="98.4"/>
<g>
	<path d="M308.1,75.2c0-1.8,2.5-3.5,4.5-3.5c1.3,0,2.3,0.7,2.3,1.7c0,1.7-2.5,3.5-4.6,3.5C309.1,76.9,308.1,76.3,308.1,75.2z"/>
</g>
<line fill="none" stroke="#000000" stroke-width="0.465" stroke-linejoin="bevel" stroke-miterlimit="10" x1="319.1" y1="80.1" x2="319.1" y2="96.5"/>
<g>
	<path d="M319,80.2c0-1.8,2.5-3.5,4.5-3.5c1.3,0,2.3,0.7,2.3,1.7c0,1.7-2.5,3.5-4.6,3.5C319.9,81.9,319,81.3,319,80.2z"/>
</g>
<line fill="none" stroke="#000000" stroke-width="0.7751" stroke-linejoin="bevel" stroke-miterlimit="10" x1="341.4" y1="66.9" x2="352" y2="66.9"/>
<line fill="none" stroke="#000000" stroke-width="0.7751" stroke-linejoin="bevel" stroke-miterlimit="10" x1="341.4" y1="62" x2="352" y2="62"/>
<line fill="none" stroke="#000000" stroke-width="0.7751" stroke-linejoin="bevel" stroke-miterlimit="10" x1="341.4" y1="57" x2="352" y2="57"/>
<line fill="none" stroke="#000000" stroke-width="0.465" stroke-linejoin="bevel" stroke-miterlimit="10" x1="343.4" y1="57.8" x2="343.4" y2="86.6"/>
<g>
	<path d="M343.3,57.9c0-1.8,2.5-3.5,4.5-3.5c1.3,0,2.3,0.7,2.3,1.7c0,1.7-2.5,3.5-4.6,3.5C344.3,59.6,343.3,59,343.3,57.9z"/>
</g>
<line fill="none" stroke="#000000" stroke-width="0.7751" stroke-linejoin="bevel" stroke-miterlimit="10" x1="352.3" y1="66.9" x2="362.8" y2="66.9"/>
<line fill="none" stroke="#000000" stroke-width="0.7751" stroke-linejoin="bevel" stroke-miterlimit="10" x1="352.3" y1="62" x2="362.8" y2="62"/>
<line fill="none" stroke="#000000" stroke-width="0.465" stroke-linejoin="bevel" stroke-miterlimit="10" x1="354.3" y1="62.7" x2="354.3" y2="88.3"/>
<g>
	<path d="M354.1,62.8c0-1.8,2.5-3.5,4.5-3.5c1.3,0,2.3,0.7,2.3,1.7c0,1.7-2.5,3.5-4.6,3.5C355.1,64.5,354.1,63.9,354.1,62.8z"/>
</g>
<line fill="none" stroke="#000000" stroke-width="0.7751" stroke-linejoin="bevel" stroke-miterlimit="10" x1="363.1" y1="66.9" x2="373.7" y2="66.9"/>
<line fill="none" stroke="#000000" stroke-width="0.465" stroke-linejoin="bevel" stroke-miterlimit="10" x1="365.1" y1="67.7" x2="365.1" y2="90"/>
<g>
	<path d="M365,67.8c0-1.8,2.5-3.5,4.5-3.5c1.3,0,2.3,0.7,2.3,1.7c0,1.7-2.5,3.5-4.6,3.5C366,69.5,365,68.9,365,67.8z"/>
</g>
<line fill="none" stroke="#000000" stroke-width="0.465" stroke-linejoin="bevel" stroke-miterlimit="10" x1="374.3" y1="75.1" x2="374.3" y2="91.6"/>
<g>
	<path d="M374.1,75.2c0-1.8,2.5-3.5,4.5-3.5c1.3,0,2.3,0.7,2.3,1.7c0,1.7-2.5,3.5-4.6,3.5C375.1,76.9,374.1,76.3,374.1,75.2z"/>
</g>
<line fill="none" stroke="#000000" stroke-width="0.465" stroke-linejoin="bevel" stroke-miterlimit="10" x1="381.7" y1="80.1" x2="381.7" y2="96.7"/>
<g>
	<path d="M385.8,76.6c1.6,0,2.7,0.7,2.7,2c0,1.9-2.3,3.4-4.5,3.4c-1.3,0-2.4-0.7-2.4-1.8C381.6,78.4,383.8,76.6,385.8,76.6z
		 M382,80.5c0,0.6,0.4,0.9,1.1,0.9c1.4,0,4.9-2.1,4.9-3.3c0-0.6-0.4-0.9-1.1-0.9C385.7,77.2,382,79.2,382,80.5z"/>
</g>
<line fill="none" stroke="#000000" stroke-width="0.7751" stroke-linejoin="bevel" stroke-miterlimit="10" x1="416.5" y1="96.7" x2="427" y2="96.7"/>
<line fill="none" stroke="#000000" stroke-width="0.7751" stroke-linejoin="bevel" stroke-miterlimit="10" x1="416.5" y1="101.6" x2="427" y2="101.6"/>
<line fill="none" stroke="#000000" stroke-width="0.465" stroke-linejoin="bevel" stroke-miterlimit="10" x1="425" y1="103.4" x2="425" y2="77"/>
<g>
	<path d="M418.3,105c0-1.8,2.5-3.5,4.5-3.5c1.3,0,2.3,0.7,2.3,1.7c0,1.7-2.5,3.5-4.6,3.5C419.3,106.7,418.3,106.1,418.3,105z"/>
</g>
<line fill="none" stroke="#000000" stroke-width="0.7751" stroke-linejoin="bevel" stroke-miterlimit="10" x1="427.3" y1="96.7" x2="437.8" y2="96.7"/>
<line fill="none" stroke="#000000" stroke-width="0.465" stroke-linejoin="bevel" stroke-miterlimit="10" x1="435.8" y1="95.9" x2="435.8" y2="75.1"/>
<g>
	<path d="M429.2,97.5c0-1.8,2.5-3.5,4.5-3.5c1.3,0,2.3,0.7,2.3,1.7c0,1.7-2.5,3.5-4.6,3.5C430.1,99.3,429.2,98.6,429.2,97.5z"/>
</g>
<line fill="none" stroke="#000000" stroke-width="0.465" stroke-linejoin="bevel" stroke-miterlimit="10" x1="445" y1="91" x2="445" y2="73.4"/>
<g>
	<path d="M438.3,92.6c0-1.8,2.5-3.5,4.5-3.5c1.3,0,2.3,0.7,2.3,1.7c0,1.7-2.5,3.5-4.6,3.5C439.3,94.3,438.3,93.7,438.3,92.6z"/>
</g>
<line fill="none" stroke="#000000" stroke-width="0.465" stroke-linejoin="bevel" stroke-miterlimit="10" x1="452.4" y1="86" x2="452.4" y2="72"/>
<g>
	<path d="M445.8,87.6c0-1.8,2.5-3.5,4.5-3.5c1.3,0,2.3,0.7,2.3,1.7c0,1.7-2.5,3.5-4.6,3.5C446.7,89.3,445.8,88.7,445.8,87.6z"/>
</g>
<line fill="none" stroke="#000000" stroke-width="0.465" stroke-linejoin="bevel" stroke-miterlimit="10" x1="455.1" y1="80.1" x2="455.1" y2="96.5"/>
<g>
	<path d="M454.9,80.2c0-1.8,2.5-3.5,4.5-3.5c1.3,0,2.3,0.7,2.3,1.7c0,1.7-2.5,3.5-4.6,3.5C455.9,81.9,454.9,81.3,454.9,80.2z"/>
</g>
<line fill="none" stroke="#000000" stroke-width="0.465" stroke-linejoin="bevel" stroke-miterlimit="10" x1="465.9" y1="75.1" x2="465.9" y2="95"/>
<g>
	<path d="M465.8,75.2c0-1.8,2.5-3.5,4.5-3.5c1.3,0,2.3,0.7,2.3,1.7c0,1.7-2.5,3.5-4.6,3.5C466.7,76.9,465.8,76.3,465.8,75.2z"/>
</g>
<line fill="none" stroke="#000000" stroke-width="0.465" stroke-linejoin="bevel" stroke-miterlimit="10" x1="476.8" y1="70.2" x2="476.8" y2="93.3"/>
<g>
	<path d="M476.6,70.3c0-1.8,2.5-3.5,4.5-3.5c1.3,0,2.3,0.7,2.3,1.7c0,1.7-2.5,3.5-4.6,3.5C477.6,72,476.6,71.4,476.6,70.3z"/>
</g>
<line fill="none" stroke="#000000" stroke-width="0.465" stroke-linejoin="bevel" stroke-miterlimit="10" x1="487.6" y1="75.1" x2="487.6" y2="91.6"/>
<g>
	<path d="M487.5,75.2c0-1.8,2.5-3.5,4.5-3.5c1.3,0,2.3,0.7,2.3,1.7c0,1.7-2.5,3.5-4.6,3.5C488.4,76.9,487.5,76.3,487.5,75.2z"/>
</g>
<line fill="none" stroke="#000000" stroke-width="0.465" stroke-linejoin="bevel" stroke-miterlimit="10" x1="505.1" y1="78.6" x2="505.1" y2="65.8"/>
<g>
	<path d="M498.5,80.2c0-1.8,2.5-3.5,4.5-3.5c1.3,0,2.3,0.7,2.3,1.7c0,1.7-2.5,3.5-4.6,3.5C499.4,81.9,498.5,81.3,498.5,80.2z"/>
</g>
<line fill="none" stroke="#000000" stroke-width="0.465" stroke-linejoin="bevel" stroke-miterlimit="10" x1="514.3" y1="86" x2="514.3" y2="67.5"/>
<g>
	<path d="M507.6,87.6c0-1.8,2.5-3.5,4.5-3.5c1.3,0,2.3,0.7,2.3,1.7c0,1.7-2.5,3.5-4.6,3.5C508.6,89.3,507.6,88.7,507.6,87.6z"/>
</g>
<line fill="none" stroke="#000000" stroke-width="0.465" stroke-linejoin="bevel" stroke-miterlimit="10" x1="521.7" y1="91" x2="521.7" y2="68.9"/>
<g>
	<path d="M515,92.6c0-1.8,2.5-3.5,4.5-3.5c1.3,0,2.3,0.7,2.3,1.7c0,1.7-2.5,3.5-4.6,3.5C516,94.3,515,93.7,515,92.6z"/>
</g>
<line fill="none" stroke="#000000" stroke-width="0.7751" stroke-linejoin="bevel" stroke-miterlimit="10" x1="522.3" y1="96.7" x2="532.9" y2="96.7"/>
<line fill="none" stroke="#000000" stroke-width="0.465" stroke-linejoin="bevel" stroke-miterlimit="10" x1="530.9" y1="95.9" x2="530.9" y2="70.8"/>
<g>
	<path d="M524.2,97.5c0-1.8,2.5-3.5,4.5-3.5c1.3,0,2.3,0.7,2.3,1.7c0,1.7-2.5,3.5-4.6,3.5C525.2,99.3,524.2,98.6,524.2,97.5z"/>
</g>
<line fill="none" stroke="#000000" stroke-width="0.7751" stroke-linejoin="bevel" stroke-miterlimit="10" x1="533.2" y1="96.7" x2="543.9" y2="96.7"/>
<line fill="none" stroke="#000000" stroke-width="0.7751" stroke-linejoin="bevel" stroke-miterlimit="10" x1="533.2" y1="101.6" x2="543.9" y2="101.6"/>
<line fill="none" stroke="#000000" stroke-width="0.465" stroke-linejoin="bevel" stroke-miterlimit="10" x1="541.9" y1="103.4" x2="541.9" y2="81.8"/>
<g>
	<path d="M539.3,101.4c1.6,0,2.7,0.7,2.7,2c0,1.9-2.3,3.4-4.5,3.4c-1.3,0-2.4-0.7-2.4-1.8C535,103.2,537.3,101.4,539.3,101.4z
		 M535.5,105.3c0,0.6,0.4,0.9,1.1,0.9c1.4,0,4.9-2.1,4.9-3.3c0-0.6-0.4-0.9-1.1-0.9C539.2,102,535.5,104.1,535.5,105.3z"/>
</g>
</svg>
