<?xml version="1.0" encoding="utf-8"?>

<!--
	ScaleBook
	Copyright (c) Leland Jansen 2015. All rights reserved.
-->

<!DOCTYPE svg PUBLIC "-//W3C//DTD SVG 1.1//EN" "http://www.w3.org/Graphics/SVG/1.1/DTD/svg11.dtd">
<svg version="1.1" id="Layer_1" xmlns="http://www.w3.org/2000/svg" xmlns:xlink="http://www.w3.org/1999/xlink" x="0px" y="0px"
	 viewBox="0 0 553 108.8" enable-background="new 0 0 553 108.8" xml:space="preserve">
<rect x="8.5" y="25" width="0.8" height="69.3"/>
<g>
	<path d="M7.6,25.7c-2,1.1-3.7,6-3.7,9.8c0,2.4,1.4,10.3,1.4,12.7c0,5.1-1.6,8.9-4.7,11.5c3.1,2.5,4.7,6.3,4.7,11.4
		c0,2.4-1.4,10.3-1.4,12.7c0,3.9,1.8,8.7,3.7,9.8v0.7C4,91.9,1.7,85.8,1.7,80.8c0-2.2,1.8-9.7,1.8-11.9c0-3.9-1-6.8-3-8.5
		C0.1,60,0,59.8,0,59.6s0.1-0.4,0.5-0.7c2-1.7,3-4.4,3-7.8c0-2.2-1.8-10.4-1.8-12.6c0-5.3,2.1-10.7,5.9-13.5V25.7z"/>
</g>
<rect x="245.9" y="25" width="0.8" height="69.3"/>
<rect x="248.5" y="25" width="0.8" height="69.3"/>
<rect x="396.2" y="25" width="0.8" height="69.3"/>
<rect x="398.9" y="25" width="0.8" height="69.3"/>
<rect x="548" y="25" width="0.8" height="69.3"/>
<rect x="550.5" y="25" width="2.5" height="69.3"/>
<rect x="8.6" y="44.6" width="544.4" height="0.5"/>
<rect x="8.6" y="39.6" width="544.4" height="0.5"/>
<rect x="8.6" y="34.7" width="544.4" height="0.5"/>
<rect x="8.6" y="29.7" width="544.4" height="0.5"/>
<rect x="8.6" y="24.8" width="544.4" height="0.5"/>
<g>
	<path d="M20.4,44.7c-4.2,0-8.1-3.1-8.1-6.9c0-3.2,2.3-6.7,6.8-10.5c-0.3-1.2-0.4-2.4-0.4-3.6c0-3.5,1.2-6.8,3.2-8.5
		c1.8,2.5,2.7,4.9,2.7,7.1c0,2.9-1.3,5.6-4.3,8.1l0.9,4.2c0.5,0,0.8-0.1,0.8-0.1c2.6,0,4.8,2,4.8,4.7c0,1.9-1.4,3.7-3.6,4.8
		c0-0.1,0.9,3.8,0.9,4.3c0,2.5-2.3,4.2-4.9,4.2c-2,0-3.6-1.3-3.6-3.4c0-1.4,1-2.6,2.4-2.6c1.3,0,2.3,1.3,2.3,2.5
		c0,1.4-1.2,2.3-2.7,2.5c0.6,0.3,1.2,0.5,1.9,0.5c2.1,0,4.1-1.6,4.1-3.6c0-0.2,0-0.4-0.1-0.6l-0.8-3.7
		C22.1,44.5,21.4,44.7,20.4,44.7z M18.2,39.5c0,1,0.5,1.9,1.6,2.5c-1.8-0.3-3-1.4-3-3.1c0-2,1.7-3.7,3.8-4.1l-0.8-4
		c-3.7,2.8-5.7,5.5-5.7,8.1c0,2.9,2.8,5.3,6,5.3c0.9,0,1.7-0.2,2.4-0.5l-1.4-6.8C19.5,37.1,18.2,38.1,18.2,39.5z M22.3,18.1
		c-1.6,0-2.9,3.7-2.9,7c0,0.7,0,1.3,0.2,1.9c2.7-2.4,4-4.5,4-6.5c0-0.9-0.3-1.7-1-2.4C22.5,18.1,22.4,18.1,22.3,18.1z M25,40
		c0-1.6-1.2-3.3-2.9-3.3c-0.1,0-0.2,0-0.5,0l1.4,6.6C24.4,42.4,25,41.3,25,40z"/>
</g>
<g>
	<path d="M29.7,26.6h0.6l-0.1,6.2c0.4-0.7,1-1,1.8-1c1.2,0,2.2,0.8,2.2,1.9c0,0.8-0.5,1.8-1.7,2.7l-2.8,2.1V26.6z M30.3,33.5
		c-0.1,0.8-0.1,1.4-0.1,1.9c0,1,0,1.6,0.1,2c1-0.7,2.4-2.6,2.4-3.7c0-0.6-0.5-1.1-1.1-1.1C31,32.7,30.6,32.9,30.3,33.5z"/>
</g>
<g>
	<path d="M35.3,19.2h0.6l-0.1,6.2c0.4-0.7,1-1,1.8-1c1.2,0,2.2,0.8,2.2,1.9c0,0.8-0.5,1.8-1.7,2.7l-2.8,2.1V19.2z M35.9,26.1
		c-0.1,0.8-0.1,1.4-0.1,1.9c0,1,0,1.6,0.1,2c1-0.7,2.4-2.6,2.4-3.7c0-0.6-0.5-1.1-1.1-1.1C36.6,25.2,36.1,25.5,35.9,26.1z"/>
</g>
<g>
	<path d="M40.9,29.1h0.6l-0.1,6.2c0.4-0.7,1-1,1.8-1c1.2,0,2.2,0.8,2.2,1.9c0,0.8-0.5,1.8-1.7,2.7L40.9,41V29.1z M41.4,36
		c-0.1,0.8-0.1,1.4-0.1,1.9c0,1,0,1.6,0.1,2c1-0.7,2.4-2.6,2.4-3.7c0-0.6-0.5-1.1-1.1-1.1C42.1,35.1,41.7,35.4,41.4,36z"/>
</g>
<polygon fill-rule="evenodd" clip-rule="evenodd" points="60.5,25 88.1,20 88.1,17.5 60.5,22.5 "/>
<polygon fill-rule="evenodd" clip-rule="evenodd" points="60.5,21.3 88.1,16.3 88.1,13.8 60.5,18.8 "/>
<polygon fill-rule="evenodd" clip-rule="evenodd" points="108,36.1 141.5,31.2 141.5,28.7 108,33.7 "/>
<polygon fill-rule="evenodd" clip-rule="evenodd" points="108,39.9 141.5,34.9 141.5,32.4 108,37.4 "/>
<polygon fill-rule="evenodd" clip-rule="evenodd" points="167.8,46.1 198.4,51 198.4,48.5 167.8,43.6 "/>
<polygon fill-rule="evenodd" clip-rule="evenodd" points="167.8,49.8 198.4,54.7 198.4,52.3 167.8,47.3 "/>
<polygon fill-rule="evenodd" clip-rule="evenodd" points="256.8,51 287.3,46.1 287.3,43.6 256.8,48.5 "/>
<polygon fill-rule="evenodd" clip-rule="evenodd" points="256.8,54.7 287.3,49.8 287.3,47.3 256.8,52.3 "/>
<g>
	<path d="M299.9,7.8c0-0.2,0.6-1.9,0.6-2.4c0-0.1,0-0.2-0.1-0.2c-0.1,0-0.3,0.2-0.6,0.4l-0.2-0.2c0.6-0.4,0.9-0.7,1.1-0.7
		c0.3,0,0.4,0.2,0.4,0.5c0,0.5-0.7,2.1-0.7,2.6c0,0.1,0.1,0.2,0.2,0.2c0.7,0,1.7-1.6,1.7-2.2V5.6c-0.1-0.1-0.4-0.3-0.4-0.6
		c0-0.2,0.1-0.3,0.4-0.3c0.3,0,0.5,0.3,0.5,0.8c0,1-1.2,2.8-2.1,2.8C300.1,8.4,299.9,8.2,299.9,7.8z M304.8,8.1c0,0,0.1-0.3,0.2-0.8
		c-0.6,0.7-1,1-1.4,1c-0.5,0-0.8-0.3-0.8-0.9c0-1.2,1-2.6,2.1-2.6c0.2,0,0.4,0.1,0.7,0.2l0.1-0.2l0.4,0c-0.5,2-0.7,3-0.7,3.1v0v0
		c0,0,0.3-0.2,0.7-0.5l0.1,0.2c-0.5,0.5-0.8,0.7-1,0.7C304.9,8.3,304.8,8.3,304.8,8.1z M303.3,7.5c0,0.3,0.1,0.4,0.2,0.4
		c0.5,0,1.5-0.9,1.6-1.3l0.3-1.1c-0.2-0.2-0.4-0.3-0.6-0.3C304.1,5.2,303.3,6.6,303.3,7.5z"/>
</g>
<g>
	<path d="M299.4,6.1c0,0.8-0.5,1.4-1.6,1.9c0.5,0.7,0.8,1.3,0.8,1.8c0,1.3-1,1.9-2.9,1.9c-1.4,0-2.6-0.8-2.6-2c0-0.9,0.7-1.5,2-2
		c-0.4-0.6-0.7-1.1-0.7-1.6c0-1.1,1.1-1.9,2.5-1.9C298.1,4.2,299.4,5.1,299.4,6.1z M294,9.9c0,0.8,0.9,1.4,1.7,1.4
		c0.8,0,1.4-0.3,1.4-0.9c0-0.7-0.2-0.9-1.7-2.4C294.5,8.5,294,9.1,294,9.9z M296,5.5c0,0.7,0.2,0.9,1.5,2.2c0.7-0.4,1-1,1-1.7
		c0-0.7-0.7-1.4-1.4-1.4C296.5,4.6,296,5,296,5.5z"/>
</g>
<rect x="326.5" y="4.8" width="0.8" height="7.8"/>
<path d="M326.2,5.5h-2.9V4.8h2.9V5.5z M320.8,5.5h-2.9V4.8h2.9V5.5z M315.4,5.5h-2.9V4.8h2.9V5.5z M310,5.5H307V4.8h2.9V5.5z"/>
<polygon fill-rule="evenodd" clip-rule="evenodd" points="296.2,46.1 322.7,41.1 322.7,38.6 296.2,43.6 "/>
<polygon fill-rule="evenodd" clip-rule="evenodd" points="296.2,49.8 322.7,44.8 322.7,42.3 296.2,47.3 "/>
<polygon fill-rule="evenodd" clip-rule="evenodd" points="332.6,41.1 361.3,46.1 361.3,43.6 332.6,38.6 "/>
<polygon fill-rule="evenodd" clip-rule="evenodd" points="332.6,44.8 361.3,49.8 361.3,47.3 332.6,42.3 "/>
<polygon fill-rule="evenodd" clip-rule="evenodd" points="407.2,46.1 435.8,41.1 435.8,38.6 407.2,43.6 "/>
<polygon fill-rule="evenodd" clip-rule="evenodd" points="407.2,49.8 435.8,44.8 435.8,42.3 407.2,47.3 "/>
<polygon fill-rule="evenodd" clip-rule="evenodd" points="445.8,41.1 474.4,36.1 474.4,33.7 445.8,38.6 "/>
<polygon fill-rule="evenodd" clip-rule="evenodd" points="445.8,44.8 474.4,39.9 474.4,37.4 445.8,42.3 "/>
<g>
	<path d="M449.5,3.6c0-0.2,0.6-1.9,0.6-2.4c0-0.1,0-0.2-0.1-0.2c-0.1,0-0.3,0.2-0.6,0.4l-0.2-0.2c0.6-0.4,0.9-0.7,1.1-0.7
		c0.3,0,0.4,0.2,0.4,0.5c0,0.5-0.7,2.1-0.7,2.6c0,0.1,0.1,0.2,0.2,0.2c0.7,0,1.7-1.6,1.7-2.2V1.4c-0.1-0.1-0.4-0.3-0.4-0.6
		c0-0.2,0.1-0.3,0.4-0.3c0.3,0,0.5,0.3,0.5,0.8c0,1-1.2,2.8-2.1,2.8C449.7,4.2,449.5,4,449.5,3.6z M454.4,4c0,0,0.1-0.3,0.2-0.8
		c-0.6,0.7-1,1-1.4,1c-0.5,0-0.8-0.3-0.8-0.9c0-1.2,1-2.6,2.1-2.6c0.2,0,0.4,0.1,0.7,0.2l0.1-0.2l0.4,0c-0.5,2-0.7,3-0.7,3.1v0v0
		c0,0,0.3-0.2,0.7-0.5l0.1,0.2c-0.5,0.5-0.8,0.7-1,0.7C454.5,4.2,454.4,4.1,454.4,4z M452.9,3.3c0,0.3,0.1,0.4,0.2,0.4
		c0.5,0,1.5-0.9,1.6-1.3l0.3-1.1c-0.2-0.2-0.4-0.3-0.6-0.3C453.7,1,452.9,2.4,452.9,3.3z"/>
</g>
<g>
	<path d="M449,1.9c0,0.8-0.5,1.4-1.6,1.9c0.5,0.7,0.8,1.3,0.8,1.8c0,1.3-1,1.9-2.9,1.9c-1.4,0-2.6-0.8-2.6-2c0-0.9,0.7-1.5,2-2
		c-0.4-0.6-0.7-1.1-0.7-1.6c0-1.1,1.1-1.9,2.5-1.9C447.7,0,449,0.9,449,1.9z M443.6,5.7c0,0.8,0.9,1.4,1.7,1.4
		c0.8,0,1.4-0.3,1.4-0.9c0-0.7-0.2-0.9-1.7-2.4C444.1,4.3,443.6,5,443.6,5.7z M445.6,1.3c0,0.7,0.2,0.9,1.5,2.2c0.7-0.4,1-1,1-1.7
		c0-0.7-0.7-1.4-1.4-1.4C446.1,0.4,445.6,0.8,445.6,1.3z"/>
</g>
<rect x="480.7" y="0.7" width="0.8" height="7.8"/>
<path d="M481.1,1.3h-2.8V0.6h2.8V1.3z M475.8,1.3h-2.9V0.6h2.9V1.3z M470.4,1.3h-2.9V0.6h2.9V1.3z M465,1.3H462V0.6h2.9V1.3z
	 M459.6,1.3h-2.9V0.6h2.9V1.3z"/>
<polygon fill-rule="evenodd" clip-rule="evenodd" points="484.4,36.1 514.9,41.1 514.9,38.6 484.4,33.7 "/>
<polygon fill-rule="evenodd" clip-rule="evenodd" points="484.4,39.9 514.9,44.8 514.9,42.3 484.4,37.4 "/>
<rect x="8.6" y="94" width="544.4" height="0.5"/>
<rect x="8.6" y="89.1" width="544.4" height="0.5"/>
<rect x="8.6" y="84.1" width="544.4" height="0.5"/>
<rect x="8.6" y="79.2" width="544.4" height="0.5"/>
<rect x="8.6" y="74.2" width="544.4" height="0.5"/>
<g>
	<path d="M15.9,88.6c2.9-2.6,4.7-6.1,4.7-9.2c0-2.5-1.4-4.4-3.7-4.4c-1.6,0-3.4,1.3-3.4,2.7c0,0.2,0,0.3,0.1,0.3
		c-0.1,0,0.6-0.6,1.4-0.6c0.9,0,1.5,0.8,1.5,1.7c0,1.2-0.9,2.2-2.1,2.2c-1.2,0-2.1-1.3-2.1-2.8c0-2.3,2.3-4.1,4.8-4.1
		c4.7,0,5.9,3.2,5.9,5.8c0,1.6-0.4,2.9-2,5.3c-1.9,3.1-6.4,5.3-8.1,5.3c-0.4,0-0.6-0.2-0.6-0.5C14,89.9,15.1,89.3,15.9,88.6z
		 M25.8,75.9c0.6,0,1,0.4,1,1c0,0.6-0.4,1-1,1s-1-0.4-1-1C24.8,76.4,25.3,75.9,25.8,75.9z M25.8,80.9c0.6,0,1,0.4,1,1
		c0,0.6-0.4,1-1,1s-1-0.4-1-1C24.8,81.3,25.3,80.9,25.8,80.9z"/>
</g>
<g>
	<path d="M29.7,81h0.6l-0.1,6.2c0.4-0.7,1-1,1.8-1c1.2,0,2.2,0.8,2.2,1.9c0,0.8-0.5,1.8-1.7,2.7l-2.8,2.1V81z M30.3,87.9
		c-0.1,0.8-0.1,1.4-0.1,1.9c0,1,0,1.6,0.1,2c1-0.7,2.4-2.6,2.4-3.7c0-0.6-0.5-1.1-1.1-1.1C31,87.1,30.6,87.4,30.3,87.9z"/>
</g>
<g>
	<path d="M35.3,73.6h0.6l-0.1,6.2c0.4-0.7,1-1,1.8-1c1.2,0,2.2,0.8,2.2,1.9c0,0.8-0.5,1.8-1.7,2.7l-2.8,2.1V73.6z M35.9,80.5
		c-0.1,0.8-0.1,1.4-0.1,1.9c0,1,0,1.6,0.1,2c1-0.7,2.4-2.6,2.4-3.7c0-0.6-0.5-1.1-1.1-1.1C36.6,79.6,36.1,79.9,35.9,80.5z"/>
</g>
<g>
	<path d="M40.9,83.5h0.6l-0.1,6.2c0.4-0.7,1-1,1.8-1c1.2,0,2.2,0.8,2.2,1.9c0,0.8-0.5,1.8-1.7,2.7l-2.8,2.1V83.5z M41.4,90.4
		c-0.1,0.8-0.1,1.4-0.1,1.9c0,1,0,1.6,0.1,2c1-0.7,2.4-2.6,2.4-3.7c0-0.6-0.5-1.1-1.1-1.1C42.1,89.6,41.7,89.8,41.4,90.4z"/>
</g>
<g>
	<path d="M101.8,92.9c-3.2,0-6.1-2.3-6.1-5.1c0-2.4,1.7-5,5.1-7.9c-0.2-0.9-0.3-1.8-0.3-2.7c0-2.6,0.9-5.1,2.4-6.3
		c1.4,1.9,2,3.7,2,5.3c0,2.2-1,4.2-3.2,6.1l0.7,3.1c0.4,0,0.6,0,0.6,0c2,0,3.6,1.5,3.6,3.5c0,1.4-1.1,2.8-2.7,3.6
		c0-0.1,0.6,2.8,0.6,3.3c0,1.9-1.7,3.2-3.7,3.2c-1.5,0-2.7-1-2.7-2.5c0-1.1,0.7-1.9,1.8-1.9c1,0,1.7,1,1.7,1.9c0,1-0.9,1.7-2,1.8
		c0.4,0.2,0.9,0.3,1.4,0.3c1.6,0,3.1-1.2,3.1-2.7c0-0.1,0-0.3,0-0.5l-0.6-2.8C103,92.8,102.5,92.9,101.8,92.9z M100.2,89
		c0,0.8,0.4,1.4,1.2,1.9c-1.3-0.2-2.2-1.1-2.2-2.3c0-1.5,1.3-2.8,2.9-3.1l-0.6-3c-2.8,2.1-4.3,4.1-4.3,6.1c0,2.2,2.1,4,4.5,4
		c0.7,0,1.3-0.1,1.8-0.4l-1.1-5.1C101.1,87.2,100.2,88,100.2,89z M103.2,73c-1.2,0-2.2,2.8-2.2,5.3c0,0.5,0,1,0.1,1.4
		c2-1.8,3-3.4,3-4.9c0-0.7-0.3-1.3-0.7-1.8C103.4,73,103.3,73,103.2,73z M105.3,89.4c0-1.2-0.9-2.4-2.2-2.4c0,0-0.2,0-0.4,0l1.1,5
		C104.7,91.3,105.3,90.4,105.3,89.4z"/>
</g>
<polygon fill-rule="evenodd" clip-rule="evenodd" points="54,95.5 81.6,90.6 81.6,88.1 54,93 "/>
<polygon fill-rule="evenodd" clip-rule="evenodd" points="54,99.2 81.6,94.3 81.6,91.8 54,96.8 "/>
<g>
	<path d="M156.4,86.3c2.2-2,3.6-4.6,3.6-6.9c0-1.9-1.1-3.3-2.8-3.3c-1.2,0-2.5,1-2.5,2.1c0,0.2,0,0.2,0.1,0.2c0,0,0.4-0.5,1-0.5
		c0.7,0,1.2,0.6,1.2,1.3c0,0.9-0.6,1.7-1.6,1.7c-0.9,0-1.5-1-1.5-2.1c0-1.8,1.7-3.1,3.6-3.1c3.5,0,4.4,2.4,4.4,4.4
		c0,1.2-0.3,2.2-1.5,4c-1.4,2.3-4.8,4-6,4c-0.3,0-0.5-0.1-0.5-0.3C154.9,87.3,155.8,86.8,156.4,86.3z M163.8,76.8
		c0.4,0,0.7,0.3,0.7,0.7c0,0.4-0.3,0.7-0.7,0.7s-0.7-0.3-0.7-0.7C163.1,77.1,163.4,76.8,163.8,76.8z M163.8,80.5
		c0.4,0,0.7,0.3,0.7,0.7s-0.3,0.7-0.7,0.7s-0.7-0.3-0.7-0.7S163.4,80.5,163.8,80.5z"/>
</g>
<polygon fill-rule="evenodd" clip-rule="evenodd" points="108,99.2 141.5,96.8 141.5,94.3 108,96.8 "/>
<polygon fill-rule="evenodd" clip-rule="evenodd" points="108,103 141.5,100.5 141.5,98 108,100.5 "/>
<polygon fill-rule="evenodd" clip-rule="evenodd" points="167.8,85.6 198.4,90.6 198.4,88.1 167.8,83.1 "/>
<polygon fill-rule="evenodd" clip-rule="evenodd" points="167.8,89.3 198.4,94.3 198.4,91.8 167.8,86.8 "/>
<g>
	<path d="M237.9,92.9c-3.2,0-6.1-2.3-6.1-5.1c0-2.4,1.7-5,5.1-7.9c-0.2-0.9-0.3-1.8-0.3-2.7c0-2.6,0.9-5.1,2.4-6.3
		c1.4,1.9,2,3.7,2,5.3c0,2.2-1,4.2-3.2,6.1l0.7,3.1c0.4,0,0.6,0,0.6,0c2,0,3.6,1.5,3.6,3.5c0,1.4-1.1,2.8-2.7,3.6
		c0-0.1,0.6,2.8,0.6,3.3c0,1.9-1.7,3.2-3.7,3.2c-1.5,0-2.7-1-2.7-2.5c0-1.1,0.7-1.9,1.8-1.9c1,0,1.7,1,1.7,1.9c0,1-0.9,1.7-2,1.8
		c0.4,0.2,0.9,0.3,1.4,0.3c1.6,0,3.1-1.2,3.1-2.7c0-0.1,0-0.3,0-0.5l-0.6-2.8C239.1,92.8,238.6,92.9,237.9,92.9z M236.3,89
		c0,0.8,0.4,1.4,1.2,1.9c-1.3-0.2-2.2-1.1-2.2-2.3c0-1.5,1.3-2.8,2.9-3.1l-0.6-3c-2.8,2.1-4.3,4.1-4.3,6.1c0,2.2,2.1,4,4.5,4
		c0.7,0,1.3-0.1,1.8-0.4l-1.1-5.1C237.2,87.2,236.3,88,236.3,89z M239.3,73c-1.2,0-2.2,2.8-2.2,5.3c0,0.5,0,1,0.1,1.4
		c2-1.8,3-3.4,3-4.9c0-0.7-0.3-1.3-0.7-1.8C239.5,73,239.4,73,239.3,73z M241.4,89.4c0-1.2-0.9-2.4-2.2-2.4c0,0-0.2,0-0.4,0l1.1,5
		C240.9,91.3,241.4,90.4,241.4,89.4z"/>
</g>
<polygon fill-rule="evenodd" clip-rule="evenodd" points="263.3,85.6 293.8,80.6 293.8,78.2 263.3,83.1 "/>
<polygon fill-rule="evenodd" clip-rule="evenodd" points="263.3,81.9 293.8,76.9 293.8,74.4 263.3,79.4 "/>
<polygon fill-rule="evenodd" clip-rule="evenodd" points="296.2,95.5 322.7,90.6 322.7,88.1 296.2,93 "/>
<polygon fill-rule="evenodd" clip-rule="evenodd" points="296.2,99.2 322.7,94.3 322.7,91.8 296.2,96.8 "/>
<polygon fill-rule="evenodd" clip-rule="evenodd" points="339.1,75.7 367.8,80.6 367.8,78.2 339.1,73.2 "/>
<polygon fill-rule="evenodd" clip-rule="evenodd" points="339.1,72 367.8,76.9 367.8,74.4 339.1,69.5 "/>
<polygon fill-rule="evenodd" clip-rule="evenodd" points="413.7,80.6 442.3,75.7 442.3,73.2 413.7,78.2 "/>
<polygon fill-rule="evenodd" clip-rule="evenodd" points="413.7,76.9 442.3,72 442.3,69.5 413.7,74.4 "/>
<polygon fill-rule="evenodd" clip-rule="evenodd" points="445.8,90.6 474.4,85.6 474.4,83.1 445.8,88.1 "/>
<polygon fill-rule="evenodd" clip-rule="evenodd" points="445.8,94.3 474.4,89.3 474.4,86.8 445.8,91.8 "/>
<polygon fill-rule="evenodd" clip-rule="evenodd" points="490.9,69.5 521.4,74.4 521.4,72 490.9,67 "/>
<polygon fill-rule="evenodd" clip-rule="evenodd" points="490.9,65.8 521.4,70.7 521.4,68.2 490.9,63.3 "/>
<rect x="60.3" y="18.9" width="0.5" height="25.1"/>
<g>
	<path d="M53.9,45.7c0-1.8,2.5-3.5,4.5-3.5c1.3,0,2.3,0.7,2.3,1.7c0,1.7-2.5,3.5-4.6,3.5C54.8,47.4,53.9,46.8,53.9,45.7z"/>
</g>
<rect x="69.1" y="17.4" width="0.5" height="21.7"/>
<g>
	<path d="M62.7,40.7c0-1.8,2.5-3.5,4.5-3.5c1.3,0,2.3,0.7,2.3,1.7c0,1.7-2.5,3.5-4.6,3.5C63.7,42.4,62.7,41.8,62.7,40.7z"/>
</g>
<rect x="78" y="15.8" width="0.5" height="18.3"/>
<g>
	<path d="M71.5,35.8c0-1.8,2.5-3.5,4.5-3.5c1.3,0,2.3,0.7,2.3,1.7c0,1.7-2.5,3.5-4.6,3.5C72.5,37.5,71.5,36.9,71.5,35.8z"/>
</g>
<rect x="87.9" y="14" width="0.5" height="12.7"/>
<g>
	<path d="M81.5,28.3c0-1.8,2.5-3.5,4.5-3.5c1.3,0,2.3,0.7,2.3,1.7c0,1.7-2.5,3.5-4.6,3.5C82.4,30,81.5,29.4,81.5,28.3z"/>
</g>
<rect x="107.7" y="23.3" width="0.5" height="16.4"/>
<g>
	<path d="M107.8,23.4c0-1.8,2.5-3.5,4.5-3.5c1.3,0,2.3,0.7,2.3,1.7c0,1.7-2.5,3.5-4.6,3.5C108.8,25.1,107.8,24.5,107.8,23.4z"/>
</g>
<rect x="115.9" y="19.6" width="10.5" height="0.8"/>
<rect x="117.7" y="18.3" width="0.5" height="20"/>
<g>
	<path d="M117.7,18.4c0-1.8,2.5-3.5,4.5-3.5c1.3,0,2.3,0.7,2.3,1.7c0,1.7-2.5,3.5-4.6,3.5C118.7,20.1,117.7,19.5,117.7,18.4z"/>
</g>
<rect x="127.7" y="19.6" width="10.5" height="0.8"/>
<rect x="127.7" y="14.7" width="10.5" height="0.8"/>
<rect x="127.7" y="9.7" width="10.5" height="0.8"/>
<rect x="129.4" y="10.9" width="0.5" height="25.7"/>
<g>
	<path d="M129.5,11c0-1.8,2.5-3.5,4.5-3.5c1.3,0,2.3,0.7,2.3,1.7c0,1.7-2.5,3.5-4.6,3.5C130.5,12.7,129.5,12.1,129.5,11z"/>
</g>
<rect x="139.4" y="19.6" width="10.5" height="0.8"/>
<rect x="141.2" y="18.3" width="0.5" height="16.4"/>
<g>
	<path d="M141.3,18.4c0-1.8,2.5-3.5,4.5-3.5c1.3,0,2.3,0.7,2.3,1.7c0,1.7-2.5,3.5-4.6,3.5C142.3,20.1,141.3,19.5,141.3,18.4z"/>
</g>
<rect x="167.6" y="23.3" width="0.5" height="26.4"/>
<g>
	<path d="M167.7,23.4c0-1.8,2.5-3.5,4.5-3.5c1.3,0,2.3,0.7,2.3,1.7c0,1.7-2.5,3.5-4.6,3.5C168.6,25.1,167.7,24.5,167.7,23.4z"/>
</g>
<rect x="179.4" y="28.2" width="0.5" height="23.3"/>
<g>
	<path d="M179.4,28.3c0-1.8,2.5-3.5,4.5-3.5c1.3,0,2.3,0.7,2.3,1.7c0,1.7-2.5,3.5-4.6,3.5C180.4,30,179.4,29.4,179.4,28.3z"/>
</g>
<rect x="189.3" y="35.7" width="0.5" height="17.4"/>
<g>
	<path d="M189.4,35.8c0-1.8,2.5-3.5,4.5-3.5c1.3,0,2.3,0.7,2.3,1.7c0,1.7-2.5,3.5-4.6,3.5C190.3,37.5,189.4,36.9,189.4,35.8z"/>
</g>
<rect x="198.1" y="40.6" width="0.5" height="14"/>
<g>
	<path d="M198.2,40.7c0-1.8,2.5-3.5,4.5-3.5c1.3,0,2.3,0.7,2.3,1.7c0,1.7-2.5,3.5-4.6,3.5C199.2,42.4,198.2,41.8,198.2,40.7z"/>
</g>
<rect x="213.6" y="27.5" width="0.5" height="16.6"/>
<g>
	<path d="M211.3,42.1c1.6,0,2.7,0.7,2.7,2c0,1.9-2.3,3.4-4.5,3.4c-1.3,0-2.4-0.7-2.4-1.8C207,43.9,209.3,42.1,211.3,42.1z M207.5,46
		c0,0.6,0.4,0.9,1.1,0.9c1.4,0,4.9-2.1,4.9-3.3c0-0.6-0.4-0.9-1.1-0.9C211.2,42.7,207.5,44.7,207.5,46z"/>
</g>
<rect x="256.6" y="40.6" width="0.5" height="14"/>
<g>
	<path d="M256.6,40.7c0-1.8,2.5-3.5,4.5-3.5c1.3,0,2.3,0.7,2.3,1.7c0,1.7-2.5,3.5-4.6,3.5C257.6,42.4,256.6,41.8,256.6,40.7z"/>
</g>
<rect x="268.3" y="35.7" width="0.5" height="17.1"/>
<g>
	<path d="M268.4,35.8c0-1.8,2.5-3.5,4.5-3.5c1.3,0,2.3,0.7,2.3,1.7c0,1.7-2.5,3.5-4.6,3.5C269.4,37.5,268.4,36.9,268.4,35.8z"/>
</g>
<rect x="278.3" y="28.2" width="0.5" height="22.9"/>
<g>
	<path d="M278.3,28.3c0-1.8,2.5-3.5,4.5-3.5c1.3,0,2.3,0.7,2.3,1.7c0,1.7-2.5,3.5-4.6,3.5C279.3,30,278.3,29.4,278.3,28.3z"/>
</g>
<rect x="287.1" y="23.3" width="0.5" height="26.4"/>
<g>
	<path d="M287.2,23.4c0-1.8,2.5-3.5,4.5-3.5c1.3,0,2.3,0.7,2.3,1.7c0,1.7-2.5,3.5-4.6,3.5C288.1,25.1,287.2,24.5,287.2,23.4z"/>
</g>
<rect x="295.9" y="35.7" width="0.5" height="14"/>
<g>
	<path d="M296,35.8c0-1.8,2.5-3.5,4.5-3.5c1.3,0,2.3,0.7,2.3,1.7c0,1.7-2.5,3.5-4.6,3.5C297,37.5,296,36.9,296,35.8z"/>
</g>
<rect x="304.8" y="28.2" width="0.5" height="19.8"/>
<g>
	<path d="M304.8,28.3c0-1.8,2.5-3.5,4.5-3.5c1.3,0,2.3,0.7,2.3,1.7c0,1.7-2.5,3.5-4.6,3.5C305.8,30,304.8,29.4,304.8,28.3z"/>
</g>
<rect x="313.6" y="23.3" width="0.5" height="23.1"/>
<g>
	<path d="M313.7,23.4c0-1.8,2.5-3.5,4.5-3.5c1.3,0,2.3,0.7,2.3,1.7c0,1.7-2.5,3.5-4.6,3.5C314.7,25.1,313.7,24.5,313.7,23.4z"/>
</g>
<rect x="322.4" y="28.2" width="0.5" height="16.4"/>
<g>
	<path d="M322.5,28.3c0-1.8,2.5-3.5,4.5-3.5c1.3,0,2.3,0.7,2.3,1.7c0,1.7-2.5,3.5-4.6,3.5C323.5,30,322.5,29.4,322.5,28.3z"/>
</g>
<rect x="330.6" y="19.6" width="10.5" height="0.8"/>
<rect x="332.4" y="18.3" width="0.5" height="26.4"/>
<g>
	<path d="M332.4,18.4c0-1.8,2.5-3.5,4.5-3.5c1.3,0,2.3,0.7,2.3,1.7c0,1.7-2.5,3.5-4.6,3.5C333.4,20.1,332.4,19.5,332.4,18.4z"/>
</g>
<rect x="342.3" y="23.3" width="0.5" height="23.1"/>
<g>
	<path d="M342.4,23.4c0-1.8,2.5-3.5,4.5-3.5c1.3,0,2.3,0.7,2.3,1.7c0,1.7-2.5,3.5-4.6,3.5C343.3,25.1,342.4,24.5,342.4,23.4z"/>
</g>
<rect x="351.1" y="28.2" width="0.5" height="19.5"/>
<g>
	<path d="M351.2,28.3c0-1.8,2.5-3.5,4.5-3.5c1.3,0,2.3,0.7,2.3,1.7c0,1.7-2.5,3.5-4.6,3.5C352.2,30,351.2,29.4,351.2,28.3z"/>
</g>
<rect x="361" y="35.7" width="0.5" height="14"/>
<g>
	<path d="M361.1,35.8c0-1.8,2.5-3.5,4.5-3.5c1.3,0,2.3,0.7,2.3,1.7c0,1.7-2.5,3.5-4.6,3.5C362.1,37.5,361.1,36.9,361.1,35.8z"/>
</g>
<rect x="379.5" y="22.5" width="0.5" height="16.6"/>
<g>
	<path d="M377.2,37.2c1.6,0,2.7,0.7,2.7,2c0,1.9-2.3,3.4-4.5,3.4c-1.3,0-2.4-0.7-2.4-1.8C372.9,39,375.1,37.2,377.2,37.2z M373.4,41
		c0,0.6,0.4,0.9,1.1,0.9c1.4,0,4.9-2.1,4.9-3.3c0-0.6-0.4-0.9-1.1-0.9C377,37.8,373.4,39.8,373.4,41z"/>
</g>
<rect x="406.9" y="35.7" width="0.5" height="14"/>
<g>
	<path d="M407,35.8c0-1.8,2.5-3.5,4.5-3.5c1.3,0,2.3,0.7,2.3,1.7c0,1.7-2.5,3.5-4.6,3.5C408,37.5,407,36.9,407,35.8z"/>
</g>
<rect x="416.8" y="28.2" width="0.5" height="19.7"/>
<g>
	<path d="M416.9,28.3c0-1.8,2.5-3.5,4.5-3.5c1.3,0,2.3,0.7,2.3,1.7c0,1.7-2.5,3.5-4.6,3.5C417.9,30,416.9,29.4,416.9,28.3z"/>
</g>
<rect x="425.7" y="23.3" width="0.5" height="23.3"/>
<g>
	<path d="M425.8,23.4c0-1.8,2.5-3.5,4.5-3.5c1.3,0,2.3,0.7,2.3,1.7c0,1.7-2.5,3.5-4.6,3.5C426.7,25.1,425.8,24.5,425.8,23.4z"/>
</g>
<rect x="433.8" y="19.6" width="10.5" height="0.8"/>
<rect x="435.6" y="18.3" width="0.5" height="26.4"/>
<g>
	<path d="M435.7,18.4c0-1.8,2.5-3.5,4.5-3.5c1.3,0,2.3,0.7,2.3,1.7c0,1.7-2.5,3.5-4.6,3.5C436.7,20.1,435.7,19.5,435.7,18.4z"/>
</g>
<rect x="445.5" y="28.2" width="0.5" height="16.4"/>
<g>
	<path d="M445.6,28.3c0-1.8,2.5-3.5,4.5-3.5c1.3,0,2.3,0.7,2.3,1.7c0,1.7-2.5,3.5-4.6,3.5C446.6,30,445.6,29.4,445.6,28.3z"/>
</g>
<rect x="454.4" y="23.3" width="0.5" height="20"/>
<g>
	<path d="M454.4,23.4c0-1.8,2.5-3.5,4.5-3.5c1.3,0,2.3,0.7,2.3,1.7c0,1.7-2.5,3.5-4.6,3.5C455.4,25.1,454.4,24.5,454.4,23.4z"/>
</g>
<rect x="462.5" y="19.6" width="10.5" height="0.8"/>
<rect x="464.3" y="18.3" width="0.5" height="23.3"/>
<g>
	<path d="M464.4,18.4c0-1.8,2.5-3.5,4.5-3.5c1.3,0,2.3,0.7,2.3,1.7c0,1.7-2.5,3.5-4.6,3.5C465.3,20.1,464.4,19.5,464.4,18.4z"/>
</g>
<rect x="474.2" y="23.3" width="0.5" height="16.4"/>
<g>
	<path d="M474.3,23.4c0-1.8,2.5-3.5,4.5-3.5c1.3,0,2.3,0.7,2.3,1.7c0,1.7-2.5,3.5-4.6,3.5C475.2,25.1,474.3,24.5,474.3,23.4z"/>
</g>
<rect x="482.3" y="19.6" width="10.5" height="0.8"/>
<rect x="482.3" y="14.7" width="10.5" height="0.8"/>
<rect x="482.3" y="9.7" width="10.5" height="0.8"/>
<rect x="484.1" y="10.9" width="0.5" height="28.8"/>
<g>
	<path d="M484.2,11c0-1.8,2.5-3.5,4.5-3.5c1.3,0,2.3,0.7,2.3,1.7c0,1.7-2.5,3.5-4.6,3.5C485.2,12.7,484.2,12.1,484.2,11z"/>
</g>
<rect x="494.1" y="19.6" width="10.5" height="0.8"/>
<rect x="495.9" y="18.3" width="0.5" height="23.3"/>
<g>
	<path d="M496,18.4c0-1.8,2.5-3.5,4.5-3.5c1.3,0,2.3,0.7,2.3,1.7c0,1.7-2.5,3.5-4.6,3.5C497,20.1,496,19.5,496,18.4z"/>
</g>
<rect x="505.8" y="23.3" width="0.5" height="19.8"/>
<g>
	<path d="M505.9,23.4c0-1.8,2.5-3.5,4.5-3.5c1.3,0,2.3,0.7,2.3,1.7c0,1.7-2.5,3.5-4.6,3.5C506.9,25.1,505.9,24.5,505.9,23.4z"/>
</g>
<rect x="514.7" y="28.2" width="0.5" height="16.4"/>
<g>
	<path d="M514.7,28.3c0-1.8,2.5-3.5,4.5-3.5c1.3,0,2.3,0.7,2.3,1.7c0,1.7-2.5,3.5-4.6,3.5C515.7,30,514.7,29.4,514.7,28.3z"/>
</g>
<rect x="524.6" y="35.7" width="0.5" height="16.6"/>
<g>
	<path d="M528.9,32.2c1.6,0,2.7,0.7,2.7,2c0,1.9-2.3,3.4-4.5,3.4c-1.3,0-2.4-0.7-2.4-1.8C524.7,34,526.9,32.2,528.9,32.2z
		 M525.1,36.1c0,0.6,0.4,0.9,1.1,0.9c1.4,0,4.9-2.1,4.9-3.3c0-0.6-0.4-0.9-1.1-0.9C528.8,32.8,525.1,34.8,525.1,36.1z"/>
</g>
<rect x="53.8" y="82.7" width="0.5" height="16.4"/>
<g>
	<path d="M53.9,82.7c0-1.8,2.5-3.5,4.5-3.5c1.3,0,2.3,0.7,2.3,1.7c0,1.7-2.5,3.5-4.6,3.5C54.8,84.5,53.9,83.8,53.9,82.7z"/>
</g>
<rect x="62.6" y="77.7" width="0.5" height="19.8"/>
<g>
	<path d="M62.7,77.8c0-1.8,2.5-3.5,4.5-3.5c1.3,0,2.3,0.7,2.3,1.7c0,1.7-2.5,3.5-4.6,3.5C63.7,79.5,62.7,78.9,62.7,77.8z"/>
</g>
<rect x="71.5" y="72.7" width="0.5" height="23.3"/>
<g>
	<path d="M71.5,72.8c0-1.8,2.5-3.5,4.5-3.5c1.3,0,2.3,0.7,2.3,1.7c0,1.7-2.5,3.5-4.6,3.5C72.5,74.5,71.5,73.9,71.5,72.8z"/>
</g>
<rect x="79.6" y="69.1" width="10.5" height="0.8"/>
<rect x="79.6" y="64.1" width="10.5" height="0.8"/>
<rect x="81.4" y="65.3" width="0.5" height="28.8"/>
<g>
	<path d="M81.5,65.4c0-1.8,2.5-3.5,4.5-3.5c1.3,0,2.3,0.7,2.3,1.7c0,1.7-2.5,3.5-4.6,3.5C82.4,67.1,81.5,66.5,81.5,65.4z"/>
</g>
<rect x="107.7" y="90.1" width="0.5" height="12.7"/>
<g>
	<path d="M107.8,90.2c0-1.8,2.5-3.5,4.5-3.5c1.3,0,2.3,0.7,2.3,1.7c0,1.7-2.5,3.5-4.6,3.5C108.8,91.9,107.8,91.3,107.8,90.2z"/>
</g>
<rect x="117.7" y="85.1" width="0.5" height="17.1"/>
<g>
	<path d="M117.7,85.2c0-1.8,2.5-3.5,4.5-3.5c1.3,0,2.3,0.7,2.3,1.7c0,1.7-2.5,3.5-4.6,3.5C118.7,86.9,117.7,86.3,117.7,85.2z"/>
</g>
<rect x="129.4" y="77.7" width="0.5" height="23.6"/>
<g>
	<path d="M129.5,77.8c0-1.8,2.5-3.5,4.5-3.5c1.3,0,2.3,0.7,2.3,1.7c0,1.7-2.5,3.5-4.6,3.5C130.5,79.5,129.5,78.9,129.5,77.8z"/>
</g>
<rect x="141.2" y="85.1" width="0.5" height="15.2"/>
<g>
	<path d="M141.3,85.2c0-1.8,2.5-3.5,4.5-3.5c1.3,0,2.3,0.7,2.3,1.7c0,1.7-2.5,3.5-4.6,3.5C142.3,86.9,141.3,86.3,141.3,85.2z"/>
</g>
<rect x="165.8" y="69.1" width="10.5" height="0.8"/>
<rect x="165.8" y="64.1" width="10.5" height="0.8"/>
<rect x="165.8" y="59.2" width="10.5" height="0.8"/>
<rect x="167.6" y="60.3" width="0.5" height="28.8"/>
<g>
	<path d="M167.7,60.4c0-1.8,2.5-3.5,4.5-3.5c1.3,0,2.3,0.7,2.3,1.7c0,1.7-2.5,3.5-4.6,3.5C168.6,62.1,167.7,61.5,167.7,60.4z"/>
</g>
<rect x="177.6" y="69.1" width="10.5" height="0.8"/>
<rect x="177.6" y="64.1" width="10.5" height="0.8"/>
<rect x="179.4" y="65.3" width="0.5" height="25.7"/>
<g>
	<path d="M179.4,65.4c0-1.8,2.5-3.5,4.5-3.5c1.3,0,2.3,0.7,2.3,1.7c0,1.7-2.5,3.5-4.6,3.5C180.4,67.1,179.4,66.5,179.4,65.4z"/>
</g>
<rect x="189.3" y="72.7" width="0.5" height="19.8"/>
<g>
	<path d="M189.4,72.8c0-1.8,2.5-3.5,4.5-3.5c1.3,0,2.3,0.7,2.3,1.7c0,1.7-2.5,3.5-4.6,3.5C190.3,74.5,189.4,73.9,189.4,72.8z"/>
</g>
<rect x="198.1" y="77.7" width="0.5" height="16.4"/>
<g>
	<path d="M198.2,77.8c0-1.8,2.5-3.5,4.5-3.5c1.3,0,2.3,0.7,2.3,1.7c0,1.7-2.5,3.5-4.6,3.5C199.2,79.5,198.2,78.9,198.2,77.8z"/>
</g>
<rect x="207" y="82.7" width="0.5" height="16.6"/>
<g>
	<path d="M211.3,79.2c1.6,0,2.7,0.7,2.7,2c0,1.9-2.3,3.4-4.5,3.4c-1.3,0-2.4-0.7-2.4-1.8C207,81,209.3,79.2,211.3,79.2z M207.5,83
		c0,0.6,0.4,0.9,1.1,0.9c1.4,0,4.9-2.1,4.9-3.3c0-0.6-0.4-0.9-1.1-0.9C211.2,79.8,207.5,81.8,207.5,83z"/>
</g>
<rect x="254.8" y="98.8" width="10.5" height="0.8"/>
<rect x="254.8" y="103.8" width="10.5" height="0.8"/>
<rect x="263.1" y="79.6" width="0.5" height="26.4"/>
<g>
	<path d="M256.6,107.5c0-1.8,2.5-3.5,4.5-3.5c1.3,0,2.3,0.7,2.3,1.7c0,1.7-2.5,3.5-4.6,3.5C257.6,109.3,256.6,108.6,256.6,107.5z"/>
</g>
<rect x="266.6" y="98.8" width="10.5" height="0.8"/>
<rect x="274.9" y="77.7" width="0.5" height="23.3"/>
<g>
	<path d="M268.4,102.6c0-1.8,2.5-3.5,4.5-3.5c1.3,0,2.3,0.7,2.3,1.7c0,1.7-2.5,3.5-4.6,3.5C269.4,104.3,268.4,103.7,268.4,102.6z"/>
</g>
<rect x="284.8" y="76.1" width="0.5" height="17.4"/>
<g>
	<path d="M278.3,95.1c0-1.8,2.5-3.5,4.5-3.5c1.3,0,2.3,0.7,2.3,1.7c0,1.7-2.5,3.5-4.6,3.5C279.3,96.9,278.3,96.2,278.3,95.1z"/>
</g>
<rect x="293.6" y="74.6" width="0.5" height="14"/>
<g>
	<path d="M287.2,90.2c0-1.8,2.5-3.5,4.5-3.5c1.3,0,2.3,0.7,2.3,1.7c0,1.7-2.5,3.5-4.6,3.5C288.1,91.9,287.2,91.3,287.2,90.2z"/>
</g>
<rect x="295.9" y="85.1" width="0.5" height="14"/>
<g>
	<path d="M296,85.2c0-1.8,2.5-3.5,4.5-3.5c1.3,0,2.3,0.7,2.3,1.7c0,1.7-2.5,3.5-4.6,3.5C297,86.9,296,86.3,296,85.2z"/>
</g>
<rect x="304.8" y="77.7" width="0.5" height="19.8"/>
<g>
	<path d="M304.8,77.8c0-1.8,2.5-3.5,4.5-3.5c1.3,0,2.3,0.7,2.3,1.7c0,1.7-2.5,3.5-4.6,3.5C305.8,79.5,304.8,78.9,304.8,77.8z"/>
</g>
<rect x="313.6" y="72.7" width="0.5" height="23.1"/>
<g>
	<path d="M313.7,72.8c0-1.8,2.5-3.5,4.5-3.5c1.3,0,2.3,0.7,2.3,1.7c0,1.7-2.5,3.5-4.6,3.5C314.7,74.5,313.7,73.9,313.7,72.8z"/>
</g>
<rect x="322.4" y="77.7" width="0.5" height="16.4"/>
<g>
	<path d="M322.5,77.8c0-1.8,2.5-3.5,4.5-3.5c1.3,0,2.3,0.7,2.3,1.7c0,1.7-2.5,3.5-4.6,3.5C323.5,79.5,322.5,78.9,322.5,77.8z"/>
</g>
<rect x="338.9" y="69.6" width="0.5" height="14"/>
<g>
	<path d="M332.4,85.2c0-1.8,2.5-3.5,4.5-3.5c1.3,0,2.3,0.7,2.3,1.7c0,1.7-2.5,3.5-4.6,3.5C333.4,86.9,332.4,86.3,332.4,85.2z"/>
</g>
<rect x="348.8" y="71.3" width="0.5" height="17.2"/>
<g>
	<path d="M342.4,90.2c0-1.8,2.5-3.5,4.5-3.5c1.3,0,2.3,0.7,2.3,1.7c0,1.7-2.5,3.5-4.6,3.5C343.3,91.9,342.4,91.3,342.4,90.2z"/>
</g>
<rect x="357.6" y="72.7" width="0.5" height="20.8"/>
<g>
	<path d="M351.2,95.1c0-1.8,2.5-3.5,4.5-3.5c1.3,0,2.3,0.7,2.3,1.7c0,1.7-2.5,3.5-4.6,3.5C352.2,96.9,351.2,96.2,351.2,95.1z"/>
</g>
<rect x="359.3" y="98.8" width="10.5" height="0.8"/>
<rect x="367.6" y="74.6" width="0.5" height="26.4"/>
<g>
	<path d="M361.1,102.6c0-1.8,2.5-3.5,4.5-3.5c1.3,0,2.3,0.7,2.3,1.7c0,1.7-2.5,3.5-4.6,3.5C362.1,104.3,361.1,103.7,361.1,102.6z"/>
</g>
<rect x="371" y="98.8" width="10.7" height="0.8"/>
<rect x="371" y="103.8" width="10.7" height="0.8"/>
<rect x="379.5" y="84.4" width="0.5" height="21.5"/>
<g>
	<path d="M377.2,104c1.6,0,2.7,0.7,2.7,2c0,1.9-2.3,3.4-4.5,3.4c-1.3,0-2.4-0.7-2.4-1.8C372.9,105.8,375.1,104,377.2,104z
		 M373.4,107.8c0,0.6,0.4,0.9,1.1,0.9c1.4,0,4.9-2.1,4.9-3.3c0-0.6-0.4-0.9-1.1-0.9C377,104.6,373.4,106.6,373.4,107.8z"/>
</g>
<rect x="405.1" y="98.8" width="10.5" height="0.8"/>
<rect x="413.4" y="74.6" width="0.5" height="26.4"/>
<g>
	<path d="M407,102.6c0-1.8,2.5-3.5,4.5-3.5c1.3,0,2.3,0.7,2.3,1.7c0,1.7-2.5,3.5-4.6,3.5C408,104.3,407,103.7,407,102.6z"/>
</g>
<rect x="423.4" y="72.9" width="0.5" height="20.6"/>
<g>
	<path d="M416.9,95.1c0-1.8,2.5-3.5,4.5-3.5c1.3,0,2.3,0.7,2.3,1.7c0,1.7-2.5,3.5-4.6,3.5C417.9,96.9,416.9,96.2,416.9,95.1z"/>
</g>
<rect x="432.2" y="71.5" width="0.5" height="17.1"/>
<g>
	<path d="M425.8,90.2c0-1.8,2.5-3.5,4.5-3.5c1.3,0,2.3,0.7,2.3,1.7c0,1.7-2.5,3.5-4.6,3.5C426.7,91.9,425.8,91.3,425.8,90.2z"/>
</g>
<rect x="442.1" y="69.6" width="0.5" height="14"/>
<g>
	<path d="M435.7,85.2c0-1.8,2.5-3.5,4.5-3.5c1.3,0,2.3,0.7,2.3,1.7c0,1.7-2.5,3.5-4.6,3.5C436.7,86.9,435.7,86.3,435.7,85.2z"/>
</g>
<rect x="445.5" y="77.7" width="0.5" height="16.4"/>
<g>
	<path d="M445.6,77.8c0-1.8,2.5-3.5,4.5-3.5c1.3,0,2.3,0.7,2.3,1.7c0,1.7-2.5,3.5-4.6,3.5C446.6,79.5,445.6,78.9,445.6,77.8z"/>
</g>
<rect x="454.4" y="72.7" width="0.5" height="20"/>
<g>
	<path d="M454.4,72.8c0-1.8,2.5-3.5,4.5-3.5c1.3,0,2.3,0.7,2.3,1.7c0,1.7-2.5,3.5-4.6,3.5C455.4,74.5,454.4,73.9,454.4,72.8z"/>
</g>
<rect x="462.5" y="69.1" width="10.5" height="0.8"/>
<rect x="464.3" y="67.8" width="0.5" height="23.3"/>
<g>
	<path d="M464.4,67.8c0-1.8,2.5-3.5,4.5-3.5c1.3,0,2.3,0.7,2.3,1.7c0,1.7-2.5,3.5-4.6,3.5C465.3,69.6,464.4,68.9,464.4,67.8z"/>
</g>
<rect x="474.2" y="72.7" width="0.5" height="16.4"/>
<g>
	<path d="M474.3,72.8c0-1.8,2.5-3.5,4.5-3.5c1.3,0,2.3,0.7,2.3,1.7c0,1.7-2.5,3.5-4.6,3.5C475.2,74.5,474.3,73.9,474.3,72.8z"/>
</g>
<rect x="490.6" y="63.4" width="0.5" height="12.7"/>
<g>
	<path d="M484.2,77.8c0-1.8,2.5-3.5,4.5-3.5c1.3,0,2.3,0.7,2.3,1.7c0,1.7-2.5,3.5-4.6,3.5C485.2,79.5,484.2,78.9,484.2,77.8z"/>
</g>
<rect x="502.4" y="65.3" width="0.5" height="18.3"/>
<g>
	<path d="M496,85.2c0-1.8,2.5-3.5,4.5-3.5c1.3,0,2.3,0.7,2.3,1.7c0,1.7-2.5,3.5-4.6,3.5C497,86.9,496,86.3,496,85.2z"/>
</g>
<rect x="512.3" y="66.8" width="0.5" height="21.7"/>
<g>
	<path d="M505.9,90.2c0-1.8,2.5-3.5,4.5-3.5c1.3,0,2.3,0.7,2.3,1.7c0,1.7-2.5,3.5-4.6,3.5C506.9,91.9,505.9,91.3,505.9,90.2z"/>
</g>
<rect x="521.2" y="68.4" width="0.5" height="25.1"/>
<g>
	<path d="M514.7,95.1c0-1.8,2.5-3.5,4.5-3.5c1.3,0,2.3,0.7,2.3,1.7c0,1.7-2.5,3.5-4.6,3.5C515.7,96.9,514.7,96.2,514.7,95.1z"/>
</g>
<rect x="522.8" y="98.8" width="10.7" height="0.8"/>
<rect x="531.2" y="84.4" width="0.5" height="16.6"/>
<g>
	<path d="M528.9,99c1.6,0,2.7,0.7,2.7,2c0,1.9-2.3,3.4-4.5,3.4c-1.3,0-2.4-0.7-2.4-1.8C524.7,100.8,526.9,99,528.9,99z M525.1,102.9
		c0,0.6,0.4,0.9,1.1,0.9c1.4,0,4.9-2.1,4.9-3.3c0-0.6-0.4-0.9-1.1-0.9C528.8,99.6,525.1,101.6,525.1,102.9z"/>
</g>
</svg>
