<?xml version="1.0" encoding="utf-8"?>

<!--
	ScaleBook
	Copyright (c) Leland Jansen 2015. All rights reserved.
-->

<!DOCTYPE svg PUBLIC "-//W3C//DTD SVG 1.1//EN" "http://www.w3.org/Graphics/SVG/1.1/DTD/svg11.dtd">
<svg version="1.1" id="Layer_1" xmlns="http://www.w3.org/2000/svg" xmlns:xlink="http://www.w3.org/1999/xlink" x="0px" y="0px"
	 viewBox="0 0 553 105.5" enable-background="new 0 0 553 105.5" xml:space="preserve">
<rect x="8.5" y="25" width="0.8" height="67.9"/>
<g>
	<path d="M7.6,25.7c-2,1.1-3.7,5.8-3.7,9.6c0,2.3,1.4,10,1.4,12.4c0,5-1.6,8.8-4.7,11.3c3.1,2.4,4.7,6.2,4.7,11.2
		c0,2.3-1.4,10-1.4,12.4c0,3.9,1.8,8.6,3.7,9.6v0.7C4,90.6,1.7,84.5,1.7,79.6c0-2.2,1.8-9.5,1.8-11.7c0-3.9-1-6.7-3-8.4
		C0.1,59.3,0,59.1,0,58.9s0.1-0.4,0.5-0.7c2-1.7,3-4.3,3-7.7c0-2.2-1.8-10.2-1.8-12.4C1.7,33,3.8,27.7,7.6,25V25.7z"/>
</g>
<rect x="236.3" y="25" width="0.8" height="67.9"/>
<rect x="238.9" y="25" width="0.8" height="67.9"/>
<rect x="388.5" y="25" width="0.8" height="67.9"/>
<rect x="391.1" y="25" width="0.8" height="67.9"/>
<rect x="548" y="25" width="0.8" height="67.9"/>
<rect x="550.5" y="25" width="2.5" height="67.9"/>
<rect x="8.6" y="44.6" width="544.4" height="0.5"/>
<rect x="8.6" y="39.6" width="544.4" height="0.5"/>
<rect x="8.6" y="34.7" width="544.4" height="0.5"/>
<rect x="8.6" y="29.7" width="544.4" height="0.5"/>
<rect x="8.6" y="24.8" width="544.4" height="0.5"/>
<g>
	<path d="M20.4,44.7c-4.2,0-8.1-3.1-8.1-6.9c0-3.2,2.3-6.7,6.8-10.5c-0.3-1.2-0.4-2.4-0.4-3.6c0-3.5,1.2-6.8,3.2-8.5
		c1.8,2.5,2.7,4.9,2.7,7.1c0,2.9-1.3,5.6-4.3,8.1l0.9,4.2c0.5,0,0.8-0.1,0.8-0.1c2.6,0,4.8,2,4.8,4.7c0,1.9-1.4,3.7-3.6,4.8
		c0-0.1,0.9,3.8,0.9,4.3c0,2.5-2.3,4.2-4.9,4.2c-2,0-3.6-1.3-3.6-3.4c0-1.4,1-2.6,2.4-2.6c1.3,0,2.3,1.3,2.3,2.5
		c0,1.4-1.2,2.3-2.7,2.5c0.6,0.3,1.2,0.5,1.9,0.5c2.1,0,4.1-1.6,4.1-3.6c0-0.2,0-0.4-0.1-0.6l-0.8-3.7
		C22.1,44.5,21.4,44.7,20.4,44.7z M18.2,39.5c0,1,0.5,1.9,1.6,2.5c-1.8-0.3-3-1.4-3-3.1c0-2,1.7-3.7,3.8-4.1l-0.8-4
		c-3.7,2.8-5.7,5.5-5.7,8.1c0,2.9,2.8,5.3,6,5.3c0.9,0,1.7-0.2,2.4-0.5l-1.4-6.8C19.5,37.1,18.2,38.1,18.2,39.5z M22.3,18.1
		c-1.6,0-2.9,3.7-2.9,7c0,0.7,0,1.3,0.2,1.9c2.7-2.4,4-4.5,4-6.5c0-0.9-0.3-1.7-1-2.4C22.5,18.1,22.4,18.1,22.3,18.1z M25,40
		c0-1.6-1.2-3.3-2.9-3.3c-0.1,0-0.2,0-0.5,0l1.4,6.6C24.4,42.4,25,41.3,25,40z"/>
</g>
<g>
	<path d="M29.7,26.6h0.6l-0.1,6.2c0.4-0.7,1-1,1.8-1c1.2,0,2.2,0.8,2.2,1.9c0,0.8-0.5,1.8-1.7,2.7l-2.8,2.1V26.6z M30.3,33.5
		c-0.1,0.8-0.1,1.4-0.1,1.9c0,1,0,1.6,0.1,2c1-0.7,2.4-2.6,2.4-3.7c0-0.6-0.5-1.1-1.1-1.1C31,32.7,30.6,32.9,30.3,33.5z"/>
</g>
<polygon fill-rule="evenodd" clip-rule="evenodd" points="42.9,52.3 72.9,47.3 72.9,44.8 42.9,49.8 "/>
<polygon fill-rule="evenodd" clip-rule="evenodd" points="42.9,56 72.9,51 72.9,48.5 42.9,53.5 "/>
<polygon fill-rule="evenodd" clip-rule="evenodd" points="99.3,32.4 134.6,31.2 134.6,28.7 99.3,29.9 "/>
<polygon fill-rule="evenodd" clip-rule="evenodd" points="99.3,36.1 134.6,34.9 134.6,32.4 99.3,33.7 "/>
<polygon fill-rule="evenodd" clip-rule="evenodd" points="161,42.3 194.5,47.3 194.5,44.8 161,39.9 "/>
<polygon fill-rule="evenodd" clip-rule="evenodd" points="161,46.1 194.5,51 194.5,48.5 161,43.6 "/>
<polygon fill-rule="evenodd" clip-rule="evenodd" points="247.2,47.3 278.8,42.3 278.8,39.9 247.2,44.8 "/>
<polygon fill-rule="evenodd" clip-rule="evenodd" points="247.2,51 278.8,46.1 278.8,43.6 247.2,48.5 "/>
<g>
	<path d="M292.5,5.3c0-0.2,0.6-1.9,0.6-2.4c0-0.1,0-0.2-0.1-0.2c-0.1,0-0.3,0.2-0.6,0.4l-0.2-0.2c0.6-0.4,0.9-0.7,1.1-0.7
		c0.3,0,0.4,0.2,0.4,0.5c0,0.5-0.7,2.1-0.7,2.6c0,0.1,0.1,0.2,0.2,0.2c0.7,0,1.7-1.6,1.7-2.2V3.1c-0.1-0.1-0.4-0.3-0.4-0.6
		c0-0.2,0.1-0.3,0.4-0.3c0.3,0,0.5,0.3,0.5,0.8c0,1-1.2,2.8-2.1,2.8C292.7,5.9,292.5,5.7,292.5,5.3z M297.4,5.7c0,0,0.1-0.3,0.2-0.8
		c-0.6,0.7-1,1-1.4,1c-0.5,0-0.8-0.3-0.8-0.9c0-1.2,1-2.6,2.1-2.6c0.2,0,0.4,0.1,0.7,0.2l0.1-0.2l0.4,0c-0.5,2-0.7,3-0.7,3.1v0v0
		c0,0,0.3-0.2,0.7-0.5l0.1,0.2c-0.5,0.5-0.8,0.7-1,0.7C297.4,5.9,297.4,5.8,297.4,5.7z M295.9,5c0,0.3,0.1,0.4,0.2,0.4
		c0.5,0,1.5-0.9,1.6-1.3L298,3c-0.2-0.2-0.4-0.3-0.6-0.3C296.7,2.7,295.9,4.1,295.9,5z"/>
</g>
<g>
	<path d="M292,3.6c0,0.8-0.5,1.4-1.6,1.9c0.5,0.7,0.8,1.3,0.8,1.8c0,1.3-1,1.9-2.9,1.9c-1.4,0-2.6-0.8-2.6-2c0-0.9,0.7-1.5,2-2
		c-0.4-0.6-0.7-1.1-0.7-1.6c0-1.1,1.1-1.9,2.5-1.9C290.7,1.7,292,2.6,292,3.6z M286.6,7.4c0,0.8,0.9,1.4,1.7,1.4
		c0.8,0,1.4-0.3,1.4-0.9c0-0.7-0.2-0.9-1.7-2.4C287.1,6,286.6,6.7,286.6,7.4z M288.5,3c0,0.7,0.2,0.9,1.5,2.2c0.7-0.4,1-1,1-1.7
		c0-0.7-0.7-1.4-1.4-1.4C289.1,2.1,288.5,2.5,288.5,3z"/>
</g>
<rect x="320.7" y="2.4" width="0.8" height="7.8"/>
<path d="M318.8,3.1h-2.9V2.3h2.9V3.1z M313.4,3.1h-2.9V2.3h2.9V3.1z M307.9,3.1H305V2.3h2.9V3.1z M302.5,3.1h-2.9V2.3h2.9V3.1z"/>
<polygon fill-rule="evenodd" clip-rule="evenodd" points="288.7,46.1 316.9,41.1 316.9,38.6 288.7,43.6 "/>
<polygon fill-rule="evenodd" clip-rule="evenodd" points="288.7,49.8 316.9,44.8 316.9,42.3 288.7,47.3 "/>
<polygon fill-rule="evenodd" clip-rule="evenodd" points="326.9,41.1 358.5,46.1 358.5,43.6 326.9,38.6 "/>
<polygon fill-rule="evenodd" clip-rule="evenodd" points="326.9,44.8 358.5,49.8 358.5,47.3 326.9,42.3 "/>
<polygon fill-rule="evenodd" clip-rule="evenodd" points="399.4,46.1 431,41.1 431,38.6 399.4,43.6 "/>
<polygon fill-rule="evenodd" clip-rule="evenodd" points="399.4,49.8 431,44.8 431,42.3 399.4,47.3 "/>
<polygon fill-rule="evenodd" clip-rule="evenodd" points="441,36.5 474.4,35.8 474.4,33.4 441,34 "/>
<polygon fill-rule="evenodd" clip-rule="evenodd" points="441,40.2 474.4,39.6 474.4,37.1 441,37.7 "/>
<g>
	<path d="M444.7,3.6c0-0.2,0.6-1.9,0.6-2.4c0-0.1,0-0.2-0.1-0.2c-0.1,0-0.3,0.2-0.6,0.4l-0.2-0.2c0.6-0.4,0.9-0.7,1.1-0.7
		c0.3,0,0.4,0.2,0.4,0.5c0,0.5-0.7,2.1-0.7,2.6c0,0.1,0.1,0.2,0.2,0.2c0.7,0,1.7-1.6,1.7-2.2V1.4c-0.1-0.1-0.4-0.3-0.4-0.6
		c0-0.2,0.1-0.3,0.4-0.3c0.3,0,0.5,0.3,0.5,0.8c0,1-1.2,2.8-2.1,2.8C444.9,4.2,444.7,4,444.7,3.6z M449.6,4c0,0,0.1-0.3,0.2-0.8
		c-0.6,0.7-1,1-1.4,1c-0.5,0-0.8-0.3-0.8-0.9c0-1.2,1-2.6,2.1-2.6c0.2,0,0.4,0.1,0.7,0.2l0.1-0.2l0.4,0c-0.5,2-0.7,3-0.7,3.1v0v0
		c0,0,0.3-0.2,0.7-0.5l0.1,0.2c-0.5,0.5-0.8,0.7-1,0.7C449.7,4.2,449.6,4.1,449.6,4z M448.1,3.3c0,0.3,0.1,0.4,0.2,0.4
		c0.5,0,1.5-0.9,1.6-1.3l0.3-1.1C450,1.1,449.8,1,449.6,1C448.9,1,448.1,2.4,448.1,3.3z"/>
</g>
<g>
	<path d="M444.2,1.9c0,0.8-0.5,1.4-1.6,1.9c0.5,0.7,0.8,1.3,0.8,1.8c0,1.3-1,1.9-2.9,1.9c-1.4,0-2.6-0.8-2.6-2c0-0.9,0.7-1.5,2-2
		c-0.4-0.6-0.7-1.1-0.7-1.6c0-1.1,1.1-1.9,2.5-1.9C442.9,0,444.2,0.9,444.2,1.9z M438.8,5.7c0,0.8,0.9,1.4,1.7,1.4
		c0.8,0,1.4-0.3,1.4-0.9c0-0.7-0.2-0.9-1.7-2.4C439.3,4.3,438.8,5,438.8,5.7z M440.7,1.3c0,0.7,0.2,0.9,1.5,2.2c0.7-0.4,1-1,1-1.7
		c0-0.7-0.7-1.4-1.4-1.4C441.3,0.4,440.7,0.8,440.7,1.3z"/>
</g>
<rect x="482.6" y="0.7" width="0.8" height="7.8"/>
<path d="M481.9,1.3h-2.9V0.6h2.9V1.3z M476.4,1.3h-2.9V0.6h2.9V1.3z M471,1.3h-2.9V0.6h2.9V1.3z M465.6,1.3h-2.9V0.6h2.9V1.3z
	 M460.2,1.3h-2.9V0.6h2.9V1.3z M454.7,1.3h-2.9V0.6h2.9V1.3z"/>
<polygon fill-rule="evenodd" clip-rule="evenodd" points="486.2,31.2 519.7,36.1 519.7,33.7 486.2,28.7 "/>
<polygon fill-rule="evenodd" clip-rule="evenodd" points="486.2,34.9 519.7,39.9 519.7,37.4 486.2,32.4 "/>
<rect x="8.6" y="92.6" width="544.4" height="0.5"/>
<rect x="8.6" y="87.7" width="544.4" height="0.5"/>
<rect x="8.6" y="82.7" width="544.4" height="0.5"/>
<rect x="8.6" y="77.8" width="544.4" height="0.5"/>
<rect x="8.6" y="72.8" width="544.4" height="0.5"/>
<g>
	<path d="M15.9,87.2c2.9-2.6,4.7-6.1,4.7-9.2c0-2.5-1.4-4.4-3.7-4.4c-1.6,0-3.4,1.3-3.4,2.7c0,0.2,0,0.3,0.1,0.3
		c-0.1,0,0.6-0.6,1.4-0.6c0.9,0,1.5,0.8,1.5,1.7c0,1.2-0.9,2.2-2.1,2.2c-1.2,0-2.1-1.3-2.1-2.8c0-2.3,2.3-4.1,4.8-4.1
		c4.7,0,5.9,3.2,5.9,5.8c0,1.6-0.4,2.9-2,5.3c-1.9,3.1-6.4,5.3-8.1,5.3c-0.4,0-0.6-0.2-0.6-0.5C14,88.5,15.1,87.9,15.9,87.2z
		 M25.8,74.5c0.6,0,1,0.4,1,1c0,0.6-0.4,1-1,1s-1-0.4-1-1C24.8,75,25.3,74.5,25.8,74.5z M25.8,79.5c0.6,0,1,0.4,1,1c0,0.6-0.4,1-1,1
		s-1-0.4-1-1C24.8,79.9,25.3,79.5,25.8,79.5z"/>
</g>
<g>
	<path d="M29.7,79.6h0.6l-0.1,6.2c0.4-0.7,1-1,1.8-1c1.2,0,2.2,0.8,2.2,1.9c0,0.8-0.5,1.8-1.7,2.7l-2.8,2.1V79.6z M30.3,86.5
		c-0.1,0.8-0.1,1.4-0.1,1.9c0,1,0,1.6,0.1,2c1-0.7,2.4-2.6,2.4-3.7c0-0.6-0.5-1.1-1.1-1.1C31,85.7,30.6,86,30.3,86.5z"/>
</g>
<g>
	<path d="M93.1,91.5c-3.2,0-6.1-2.3-6.1-5.1c0-2.4,1.7-5,5.1-7.9c-0.2-0.9-0.3-1.8-0.3-2.7c0-2.6,0.9-5.1,2.4-6.3
		c1.4,1.9,2,3.7,2,5.3c0,2.2-1,4.2-3.2,6.1l0.7,3.1c0.4,0,0.6,0,0.6,0c2,0,3.6,1.5,3.6,3.5c0,1.4-1.1,2.8-2.7,3.6
		c0-0.1,0.6,2.8,0.6,3.3c0,1.9-1.7,3.2-3.7,3.2c-1.5,0-2.7-1-2.7-2.5c0-1.1,0.7-1.9,1.8-1.9c1,0,1.7,1,1.7,1.9c0,1-0.9,1.7-2,1.8
		c0.4,0.2,0.9,0.3,1.4,0.3c1.6,0,3.1-1.2,3.1-2.7c0-0.1,0-0.3,0-0.5l-0.6-2.8C94.4,91.4,93.8,91.5,93.1,91.5z M91.5,87.6
		c0,0.8,0.4,1.4,1.2,1.9c-1.3-0.2-2.2-1.1-2.2-2.3c0-1.5,1.3-2.8,2.9-3.1l-0.6-3c-2.8,2.1-4.3,4.1-4.3,6.1c0,2.2,2.1,4,4.5,4
		c0.7,0,1.3-0.1,1.8-0.4l-1.1-5.1C92.4,85.8,91.5,86.6,91.5,87.6z M94.5,71.6c-1.2,0-2.2,2.8-2.2,5.3c0,0.5,0,1,0.1,1.4
		c2-1.8,3-3.4,3-4.9c0-0.7-0.3-1.3-0.7-1.8C94.7,71.6,94.6,71.6,94.5,71.6z M96.6,88c0-1.2-0.9-2.4-2.2-2.4c0,0-0.2,0-0.4,0l1.1,5
		C96.1,89.9,96.6,89,96.6,88z"/>
</g>
<polygon fill-rule="evenodd" clip-rule="evenodd" points="42.9,89.2 72.9,84.2 72.9,81.7 42.9,86.7 "/>
<polygon fill-rule="evenodd" clip-rule="evenodd" points="42.9,92.9 72.9,87.9 72.9,85.4 42.9,90.4 "/>
<g>
	<path d="M149.5,84.9c2.2-2,3.6-4.6,3.6-6.9c0-1.9-1.1-3.3-2.8-3.3c-1.2,0-2.5,1-2.5,2.1c0,0.2,0,0.2,0.1,0.2c0,0,0.4-0.5,1-0.5
		c0.7,0,1.2,0.6,1.2,1.3c0,0.9-0.6,1.7-1.6,1.7c-0.9,0-1.5-1-1.5-2.1c0-1.8,1.7-3.1,3.6-3.1c3.5,0,4.4,2.4,4.4,4.4
		c0,1.2-0.3,2.2-1.5,4c-1.4,2.3-4.8,4-6,4c-0.3,0-0.5-0.1-0.5-0.3C148.1,85.9,149,85.4,149.5,84.9z M157,75.4c0.4,0,0.7,0.3,0.7,0.7
		c0,0.4-0.3,0.7-0.7,0.7s-0.7-0.3-0.7-0.7C156.3,75.7,156.6,75.4,157,75.4z M157,79.1c0.4,0,0.7,0.3,0.7,0.7s-0.3,0.7-0.7,0.7
		s-0.7-0.3-0.7-0.7S156.6,79.1,157,79.1z"/>
</g>
<polygon fill-rule="evenodd" clip-rule="evenodd" points="99.3,97.8 134.6,95.4 134.6,92.9 99.3,95.4 "/>
<polygon fill-rule="evenodd" clip-rule="evenodd" points="99.3,101.6 134.6,99.1 134.6,96.6 99.3,99.1 "/>
<polygon fill-rule="evenodd" clip-rule="evenodd" points="161,79.2 194.5,84.2 194.5,81.7 161,76.8 "/>
<polygon fill-rule="evenodd" clip-rule="evenodd" points="161,83 194.5,87.9 194.5,85.4 161,80.5 "/>
<g>
	<path d="M228.3,91.5c-3.2,0-6.1-2.3-6.1-5.1c0-2.4,1.7-5,5.1-7.9c-0.2-0.9-0.3-1.8-0.3-2.7c0-2.6,0.9-5.1,2.4-6.3
		c1.4,1.9,2,3.7,2,5.3c0,2.2-1,4.2-3.2,6.1l0.7,3.1c0.4,0,0.6,0,0.6,0c2,0,3.6,1.5,3.6,3.5c0,1.4-1.1,2.8-2.7,3.6
		c0-0.1,0.6,2.8,0.6,3.3c0,1.9-1.7,3.2-3.7,3.2c-1.5,0-2.7-1-2.7-2.5c0-1.1,0.7-1.9,1.8-1.9c1,0,1.7,1,1.7,1.9c0,1-0.9,1.7-2,1.8
		c0.4,0.2,0.9,0.3,1.4,0.3c1.6,0,3.1-1.2,3.1-2.7c0-0.1,0-0.3,0-0.5l-0.6-2.8C229.5,91.4,229,91.5,228.3,91.5z M226.7,87.6
		c0,0.8,0.4,1.4,1.2,1.9c-1.3-0.2-2.2-1.1-2.2-2.3c0-1.5,1.3-2.8,2.9-3.1l-0.6-3c-2.8,2.1-4.3,4.1-4.3,6.1c0,2.2,2.1,4,4.5,4
		c0.7,0,1.3-0.1,1.8-0.4l-1.1-5.1C227.6,85.8,226.7,86.6,226.7,87.6z M229.7,71.6c-1.2,0-2.2,2.8-2.2,5.3c0,0.5,0,1,0.1,1.4
		c2-1.8,3-3.4,3-4.9c0-0.7-0.3-1.3-0.7-1.8C229.9,71.6,229.8,71.6,229.7,71.6z M231.8,88c0-1.2-0.9-2.4-2.2-2.4c0,0-0.2,0-0.4,0
		l1.1,5C231.2,89.9,231.8,89,231.8,88z"/>
</g>
<polygon fill-rule="evenodd" clip-rule="evenodd" points="253.7,79.2 285.3,74.3 285.3,71.8 253.7,76.8 "/>
<polygon fill-rule="evenodd" clip-rule="evenodd" points="253.7,75.5 285.3,70.6 285.3,68.1 253.7,73 "/>
<polygon fill-rule="evenodd" clip-rule="evenodd" points="288.7,94.1 316.9,89.2 316.9,86.7 288.7,91.6 "/>
<polygon fill-rule="evenodd" clip-rule="evenodd" points="288.7,97.8 316.9,92.9 316.9,90.4 288.7,95.4 "/>
<polygon fill-rule="evenodd" clip-rule="evenodd" points="333.4,73 365,78 365,75.5 333.4,70.6 "/>
<polygon fill-rule="evenodd" clip-rule="evenodd" points="333.4,69.3 365,74.3 365,71.8 333.4,66.8 "/>
<polygon fill-rule="evenodd" clip-rule="evenodd" points="405.9,78 437.5,73 437.5,70.6 405.9,75.5 "/>
<polygon fill-rule="evenodd" clip-rule="evenodd" points="405.9,74.3 437.5,69.3 437.5,66.8 405.9,71.8 "/>
<polygon fill-rule="evenodd" clip-rule="evenodd" points="441,84.5 474.4,83.9 474.4,81.4 441,82 "/>
<polygon fill-rule="evenodd" clip-rule="evenodd" points="441,88.2 474.4,87.6 474.4,85.1 441,85.8 "/>
<polygon fill-rule="evenodd" clip-rule="evenodd" points="486.2,95.4 519.7,100.3 519.7,97.8 486.2,92.9 "/>
<polygon fill-rule="evenodd" clip-rule="evenodd" points="486.2,99.1 519.7,104 519.7,101.6 486.2,96.6 "/>
<rect x="42.6" y="43.1" width="0.5" height="12.7"/>
<g>
	<path d="M42.7,43.2c0-1.8,2.5-3.5,4.5-3.5c1.3,0,2.3,0.7,2.3,1.7c0,1.7-2.5,3.5-4.6,3.5C43.7,44.9,42.7,44.3,42.7,43.2z"/>
</g>
<rect x="51" y="38.2" width="0.5" height="16.4"/>
<g>
	<path d="M51.1,38.2c0-1.8,2.5-3.5,4.5-3.5c1.3,0,2.3,0.7,2.3,1.7c0,1.7-2.5,3.5-4.6,3.5C52.1,40,51.1,39.3,51.1,38.2z"/>
</g>
<rect x="60.9" y="33.2" width="0.5" height="19.7"/>
<g>
	<path d="M61,33.3c0-1.8,2.5-3.5,4.5-3.5c1.3,0,2.3,0.7,2.3,1.7c0,1.7-2.5,3.5-4.6,3.5C62,35,61,34.4,61,33.3z"/>
</g>
<rect x="72.7" y="25.8" width="0.5" height="25.1"/>
<g>
	<path d="M72.8,25.8c0-1.8,2.5-3.5,4.5-3.5c1.3,0,2.3,0.7,2.3,1.7c0,1.7-2.5,3.5-4.6,3.5C73.8,27.6,72.8,26.9,72.8,25.8z"/>
</g>
<rect x="97.3" y="19.6" width="10.5" height="0.8"/>
<rect x="99.1" y="20.8" width="0.5" height="15.2"/>
<g>
	<path d="M99.1,20.9c0-1.8,2.5-3.5,4.5-3.5c1.3,0,2.3,0.7,2.3,1.7c0,1.7-2.5,3.5-4.6,3.5C100.1,22.6,99.1,22,99.1,20.9z"/>
</g>
<rect x="109.1" y="19.6" width="10.5" height="0.8"/>
<rect x="109.1" y="14.7" width="10.5" height="0.8"/>
<rect x="110.8" y="15.8" width="0.5" height="19.8"/>
<g>
	<path d="M110.9,15.9c0-1.8,2.5-3.5,4.5-3.5c1.3,0,2.3,0.7,2.3,1.7c0,1.7-2.5,3.5-4.6,3.5C111.9,17.6,110.9,17,110.9,15.9z"/>
</g>
<rect x="120.8" y="19.6" width="10.5" height="0.8"/>
<rect x="120.8" y="14.7" width="10.5" height="0.8"/>
<rect x="120.8" y="9.7" width="10.5" height="0.8"/>
<rect x="122.6" y="8.4" width="0.5" height="26.8"/>
<g>
	<path d="M122.7,8.5c0-1.8,2.5-3.5,4.5-3.5c1.3,0,2.3,0.7,2.3,1.7c0,1.7-2.5,3.5-4.6,3.5C123.7,10.2,122.7,9.6,122.7,8.5z"/>
</g>
<rect x="132.6" y="19.6" width="10.5" height="0.8"/>
<rect x="132.6" y="14.7" width="10.5" height="0.8"/>
<rect x="134.4" y="15.8" width="0.5" height="18.9"/>
<g>
	<path d="M134.5,15.9c0-1.8,2.5-3.5,4.5-3.5c1.3,0,2.3,0.7,2.3,1.7c0,1.7-2.5,3.5-4.6,3.5C135.5,17.6,134.5,17,134.5,15.9z"/>
</g>
<rect x="159" y="19.6" width="10.5" height="0.8"/>
<rect x="160.8" y="20.8" width="0.5" height="25.1"/>
<g>
	<path d="M160.8,20.9c0-1.8,2.5-3.5,4.5-3.5c1.3,0,2.3,0.7,2.3,1.7c0,1.7-2.5,3.5-4.6,3.5C161.8,22.6,160.8,22,160.8,20.9z"/>
</g>
<rect x="172.5" y="25.8" width="0.5" height="21.9"/>
<g>
	<path d="M172.6,25.8c0-1.8,2.5-3.5,4.5-3.5c1.3,0,2.3,0.7,2.3,1.7c0,1.7-2.5,3.5-4.6,3.5C173.6,27.6,172.6,26.9,172.6,25.8z"/>
</g>
<rect x="184.3" y="33.2" width="0.5" height="16.1"/>
<g>
	<path d="M184.4,33.3c0-1.8,2.5-3.5,4.5-3.5c1.3,0,2.3,0.7,2.3,1.7c0,1.7-2.5,3.5-4.6,3.5C185.4,35,184.4,34.4,184.4,33.3z"/>
</g>
<rect x="194.2" y="38.2" width="0.5" height="12.7"/>
<g>
	<path d="M194.3,38.2c0-1.8,2.5-3.5,4.5-3.5c1.3,0,2.3,0.7,2.3,1.7c0,1.7-2.5,3.5-4.6,3.5C195.3,40,194.3,39.3,194.3,38.2z"/>
</g>
<rect x="209.4" y="25" width="0.5" height="16.6"/>
<g>
	<path d="M207.1,39.7c1.6,0,2.7,0.7,2.7,2c0,1.9-2.3,3.4-4.5,3.4c-1.3,0-2.4-0.7-2.4-1.8C202.8,41.4,205.1,39.7,207.1,39.7z
		 M203.3,43.5c0,0.6,0.4,0.9,1.1,0.9c1.4,0,4.9-2.1,4.9-3.3c0-0.6-0.4-0.9-1.1-0.9C207,40.2,203.3,42.3,203.3,43.5z"/>
</g>
<rect x="246.9" y="38.2" width="0.5" height="12.7"/>
<g>
	<path d="M247,38.2c0-1.8,2.5-3.5,4.5-3.5c1.3,0,2.3,0.7,2.3,1.7c0,1.7-2.5,3.5-4.6,3.5C248,40,247,39.3,247,38.2z"/>
</g>
<rect x="258.7" y="33.2" width="0.5" height="16"/>
<g>
	<path d="M258.8,33.3c0-1.8,2.5-3.5,4.5-3.5c1.3,0,2.3,0.7,2.3,1.7c0,1.7-2.5,3.5-4.6,3.5C259.8,35,258.8,34.4,258.8,33.3z"/>
</g>
<rect x="268.7" y="25.8" width="0.5" height="21.9"/>
<g>
	<path d="M268.7,25.8c0-1.8,2.5-3.5,4.5-3.5c1.3,0,2.3,0.7,2.3,1.7c0,1.7-2.5,3.5-4.6,3.5C269.7,27.6,268.7,26.9,268.7,25.8z"/>
</g>
<rect x="276.8" y="19.6" width="10.5" height="0.8"/>
<rect x="278.6" y="20.8" width="0.5" height="25.1"/>
<g>
	<path d="M278.6,20.9c0-1.8,2.5-3.5,4.5-3.5c1.3,0,2.3,0.7,2.3,1.7c0,1.7-2.5,3.5-4.6,3.5C279.6,22.6,278.6,22,278.6,20.9z"/>
</g>
<rect x="288.5" y="33.2" width="0.5" height="16.4"/>
<g>
	<path d="M288.6,33.3c0-1.8,2.5-3.5,4.5-3.5c1.3,0,2.3,0.7,2.3,1.7c0,1.7-2.5,3.5-4.6,3.5C289.5,35,288.6,34.4,288.6,33.3z"/>
</g>
<rect x="296.9" y="25.8" width="0.5" height="22.5"/>
<g>
	<path d="M296.9,25.8c0-1.8,2.5-3.5,4.5-3.5c1.3,0,2.3,0.7,2.3,1.7c0,1.7-2.5,3.5-4.6,3.5C297.9,27.6,296.9,26.9,296.9,25.8z"/>
</g>
<rect x="305" y="19.6" width="10.5" height="0.8"/>
<rect x="306.8" y="20.8" width="0.5" height="25.7"/>
<g>
	<path d="M306.9,20.9c0-1.8,2.5-3.5,4.5-3.5c1.3,0,2.3,0.7,2.3,1.7c0,1.7-2.5,3.5-4.6,3.5C307.8,22.6,306.9,22,306.9,20.9z"/>
</g>
<rect x="316.7" y="25.8" width="0.5" height="18.9"/>
<g>
	<path d="M316.8,25.8c0-1.8,2.5-3.5,4.5-3.5c1.3,0,2.3,0.7,2.3,1.7c0,1.7-2.5,3.5-4.6,3.5C317.8,27.6,316.8,26.9,316.8,25.8z"/>
</g>
<rect x="324.8" y="19.6" width="10.5" height="0.8"/>
<rect x="324.8" y="14.7" width="10.5" height="0.8"/>
<rect x="326.6" y="15.8" width="0.5" height="28.8"/>
<g>
	<path d="M326.7,15.9c0-1.8,2.5-3.5,4.5-3.5c1.3,0,2.3,0.7,2.3,1.7c0,1.7-2.5,3.5-4.6,3.5C327.7,17.6,326.7,17,326.7,15.9z"/>
</g>
<rect x="336.6" y="19.6" width="10.5" height="0.8"/>
<rect x="338.4" y="20.8" width="0.5" height="25.6"/>
<g>
	<path d="M338.5,20.9c0-1.8,2.5-3.5,4.5-3.5c1.3,0,2.3,0.7,2.3,1.7c0,1.7-2.5,3.5-4.6,3.5C339.5,22.6,338.5,22,338.5,20.9z"/>
</g>
<rect x="348.3" y="25.8" width="0.5" height="22.2"/>
<g>
	<path d="M348.4,25.8c0-1.8,2.5-3.5,4.5-3.5c1.3,0,2.3,0.7,2.3,1.7c0,1.7-2.5,3.5-4.6,3.5C349.4,27.6,348.4,26.9,348.4,25.8z"/>
</g>
<rect x="358.2" y="33.2" width="0.5" height="16.4"/>
<g>
	<path d="M358.3,33.3c0-1.8,2.5-3.5,4.5-3.5c1.3,0,2.3,0.7,2.3,1.7c0,1.7-2.5,3.5-4.6,3.5C359.3,35,358.3,34.4,358.3,33.3z"/>
</g>
<rect x="376.7" y="20" width="0.5" height="16.6"/>
<g>
	<path d="M374.4,34.7c1.6,0,2.7,0.7,2.7,2c0,1.9-2.3,3.4-4.5,3.4c-1.3,0-2.4-0.7-2.4-1.8C370.1,36.5,372.3,34.7,374.4,34.7z
		 M370.6,38.5c0,0.6,0.4,0.9,1.1,0.9c1.4,0,4.9-2.1,4.9-3.3c0-0.6-0.4-0.9-1.1-0.9C374.2,35.3,370.6,37.3,370.6,38.5z"/>
</g>
<rect x="399.2" y="33.2" width="0.5" height="16.4"/>
<g>
	<path d="M399.3,33.3c0-1.8,2.5-3.5,4.5-3.5c1.3,0,2.3,0.7,2.3,1.7c0,1.7-2.5,3.5-4.6,3.5C400.2,35,399.3,34.4,399.3,33.3z"/>
</g>
<rect x="409.1" y="25.8" width="0.5" height="22.3"/>
<g>
	<path d="M409.2,25.8c0-1.8,2.5-3.5,4.5-3.5c1.3,0,2.3,0.7,2.3,1.7c0,1.7-2.5,3.5-4.6,3.5C410.1,27.6,409.2,26.9,409.2,25.8z"/>
</g>
<rect x="417.2" y="19.6" width="10.5" height="0.8"/>
<rect x="419" y="20.8" width="0.5" height="25.7"/>
<g>
	<path d="M419.1,20.9c0-1.8,2.5-3.5,4.5-3.5c1.3,0,2.3,0.7,2.3,1.7c0,1.7-2.5,3.5-4.6,3.5C420.1,22.6,419.1,22,419.1,20.9z"/>
</g>
<rect x="429" y="19.6" width="10.5" height="0.8"/>
<rect x="429" y="14.7" width="10.5" height="0.8"/>
<rect x="430.8" y="15.8" width="0.5" height="28.8"/>
<g>
	<path d="M430.9,15.9c0-1.8,2.5-3.5,4.5-3.5c1.3,0,2.3,0.7,2.3,1.7c0,1.7-2.5,3.5-4.6,3.5C431.8,17.6,430.9,17,430.9,15.9z"/>
</g>
<rect x="440.7" y="25.8" width="0.5" height="14.3"/>
<g>
	<path d="M440.8,25.8c0-1.8,2.5-3.5,4.5-3.5c1.3,0,2.3,0.7,2.3,1.7c0,1.7-2.5,3.5-4.6,3.5C441.8,27.6,440.8,26.9,440.8,25.8z"/>
</g>
<rect x="448.9" y="19.6" width="10.5" height="0.8"/>
<rect x="450.6" y="20.8" width="0.5" height="19.1"/>
<g>
	<path d="M450.7,20.9c0-1.8,2.5-3.5,4.5-3.5c1.3,0,2.3,0.7,2.3,1.7c0,1.7-2.5,3.5-4.6,3.5C451.7,22.6,450.7,22,450.7,20.9z"/>
</g>
<rect x="460.6" y="19.6" width="10.5" height="0.8"/>
<rect x="460.6" y="14.7" width="10.5" height="0.8"/>
<rect x="462.4" y="15.8" width="0.5" height="23.9"/>
<g>
	<path d="M462.5,15.9c0-1.8,2.5-3.5,4.5-3.5c1.3,0,2.3,0.7,2.3,1.7c0,1.7-2.5,3.5-4.6,3.5C463.5,17.6,462.5,17,462.5,15.9z"/>
</g>
<rect x="472.4" y="19.6" width="10.5" height="0.8"/>
<rect x="474.2" y="20.8" width="0.5" height="18.6"/>
<g>
	<path d="M474.3,20.9c0-1.8,2.5-3.5,4.5-3.5c1.3,0,2.3,0.7,2.3,1.7c0,1.7-2.5,3.5-4.6,3.5C475.2,22.6,474.3,22,474.3,20.9z"/>
</g>
<rect x="484.2" y="19.6" width="10.5" height="0.8"/>
<rect x="484.2" y="14.7" width="10.5" height="0.8"/>
<rect x="484.2" y="9.7" width="10.5" height="0.8"/>
<rect x="486" y="8.4" width="0.5" height="26.4"/>
<g>
	<path d="M486.1,8.5c0-1.8,2.5-3.5,4.5-3.5c1.3,0,2.3,0.7,2.3,1.7c0,1.7-2.5,3.5-4.6,3.5C487,10.2,486.1,9.6,486.1,8.5z"/>
</g>
<rect x="496" y="19.6" width="10.5" height="0.8"/>
<rect x="496" y="14.7" width="10.5" height="0.8"/>
<rect x="497.8" y="15.8" width="0.5" height="20.6"/>
<g>
	<path d="M497.8,15.9c0-1.8,2.5-3.5,4.5-3.5c1.3,0,2.3,0.7,2.3,1.7c0,1.7-2.5,3.5-4.6,3.5C498.8,17.6,497.8,17,497.8,15.9z"/>
</g>
<rect x="507.8" y="19.6" width="10.5" height="0.8"/>
<rect x="509.5" y="20.8" width="0.5" height="17.4"/>
<g>
	<path d="M509.6,20.9c0-1.8,2.5-3.5,4.5-3.5c1.3,0,2.3,0.7,2.3,1.7c0,1.7-2.5,3.5-4.6,3.5C510.6,22.6,509.6,22,509.6,20.9z"/>
</g>
<rect x="519.5" y="25.8" width="0.5" height="14"/>
<g>
	<path d="M519.5,25.8c0-1.8,2.5-3.5,4.5-3.5c1.3,0,2.3,0.7,2.3,1.7c0,1.7-2.5,3.5-4.6,3.5C520.5,27.6,519.5,26.9,519.5,25.8z"/>
</g>
<rect x="529.4" y="33.2" width="0.5" height="16.6"/>
<g>
	<path d="M533.7,29.7c1.6,0,2.7,0.7,2.7,2c0,1.9-2.3,3.4-4.5,3.4c-1.3,0-2.4-0.7-2.4-1.8C529.5,31.5,531.7,29.7,533.7,29.7z
		 M529.9,33.6c0,0.6,0.4,0.9,1.1,0.9c1.4,0,4.9-2.1,4.9-3.3c0-0.6-0.4-0.9-1.1-0.9C533.6,30.3,529.9,32.3,529.9,33.6z"/>
</g>
<rect x="42.6" y="78.8" width="0.5" height="14"/>
<g>
	<path d="M42.7,78.9c0-1.8,2.5-3.5,4.5-3.5c1.3,0,2.3,0.7,2.3,1.7c0,1.7-2.5,3.5-4.6,3.5C43.7,80.6,42.7,79.9,42.7,78.9z"/>
</g>
<rect x="51" y="73.8" width="0.5" height="17.7"/>
<g>
	<path d="M51.1,73.9c0-1.8,2.5-3.5,4.5-3.5c1.3,0,2.3,0.7,2.3,1.7c0,1.7-2.5,3.5-4.6,3.5C52.1,75.6,51.1,75,51.1,73.9z"/>
</g>
<rect x="59.1" y="67.7" width="10.5" height="0.8"/>
<rect x="60.9" y="68.9" width="0.5" height="20.9"/>
<g>
	<path d="M61,68.9c0-1.8,2.5-3.5,4.5-3.5c1.3,0,2.3,0.7,2.3,1.7c0,1.7-2.5,3.5-4.6,3.5C62,70.7,61,70,61,68.9z"/>
</g>
<rect x="70.9" y="67.7" width="10.5" height="0.8"/>
<rect x="70.9" y="62.7" width="10.5" height="0.8"/>
<rect x="72.7" y="61.4" width="0.5" height="26.4"/>
<g>
	<path d="M72.8,61.5c0-1.8,2.5-3.5,4.5-3.5c1.3,0,2.3,0.7,2.3,1.7c0,1.7-2.5,3.5-4.6,3.5C73.8,63.2,72.8,62.6,72.8,61.5z"/>
</g>
<rect x="99.1" y="86.2" width="0.5" height="15.2"/>
<g>
	<path d="M99.1,86.3c0-1.8,2.5-3.5,4.5-3.5c1.3,0,2.3,0.7,2.3,1.7c0,1.7-2.5,3.5-4.6,3.5C100.1,88,99.1,87.4,99.1,86.3z"/>
</g>
<rect x="110.8" y="81.3" width="0.5" height="19.4"/>
<g>
	<path d="M110.9,81.3c0-1.8,2.5-3.5,4.5-3.5c1.3,0,2.3,0.7,2.3,1.7c0,1.7-2.5,3.5-4.6,3.5C111.9,83.1,110.9,82.4,110.9,81.3z"/>
</g>
<rect x="122.6" y="73.8" width="0.5" height="26"/>
<g>
	<path d="M122.7,73.9c0-1.8,2.5-3.5,4.5-3.5c1.3,0,2.3,0.7,2.3,1.7c0,1.7-2.5,3.5-4.6,3.5C123.7,75.6,122.7,75,122.7,73.9z"/>
</g>
<rect x="134.4" y="81.3" width="0.5" height="17.7"/>
<g>
	<path d="M134.5,81.3c0-1.8,2.5-3.5,4.5-3.5c1.3,0,2.3,0.7,2.3,1.7c0,1.7-2.5,3.5-4.6,3.5C135.5,83.1,134.5,82.4,134.5,81.3z"/>
</g>
<rect x="159" y="67.7" width="10.5" height="0.8"/>
<rect x="159" y="62.7" width="10.5" height="0.8"/>
<rect x="159" y="57.8" width="10.5" height="0.8"/>
<rect x="160.8" y="56.5" width="0.5" height="26.4"/>
<g>
	<path d="M160.8,56.5c0-1.8,2.5-3.5,4.5-3.5c1.3,0,2.3,0.7,2.3,1.7c0,1.7-2.5,3.5-4.6,3.5C161.8,58.3,160.8,57.6,160.8,56.5z"/>
</g>
<rect x="170.8" y="67.7" width="10.5" height="0.8"/>
<rect x="170.8" y="62.7" width="10.5" height="0.8"/>
<rect x="172.5" y="61.4" width="0.5" height="23.1"/>
<g>
	<path d="M172.6,61.5c0-1.8,2.5-3.5,4.5-3.5c1.3,0,2.3,0.7,2.3,1.7c0,1.7-2.5,3.5-4.6,3.5C173.6,63.2,172.6,62.6,172.6,61.5z"/>
</g>
<rect x="182.5" y="67.7" width="10.5" height="0.8"/>
<rect x="184.3" y="68.9" width="0.5" height="17.4"/>
<g>
	<path d="M184.4,68.9c0-1.8,2.5-3.5,4.5-3.5c1.3,0,2.3,0.7,2.3,1.7c0,1.7-2.5,3.5-4.6,3.5C185.4,70.7,184.4,70,184.4,68.9z"/>
</g>
<rect x="194.2" y="73.8" width="0.5" height="14"/>
<g>
	<path d="M194.3,73.9c0-1.8,2.5-3.5,4.5-3.5c1.3,0,2.3,0.7,2.3,1.7c0,1.7-2.5,3.5-4.6,3.5C195.3,75.6,194.3,75,194.3,73.9z"/>
</g>
<rect x="202.8" y="78.8" width="0.5" height="16.6"/>
<g>
	<path d="M207.1,75.3c1.6,0,2.7,0.7,2.7,2c0,1.9-2.3,3.4-4.5,3.4c-1.3,0-2.4-0.7-2.4-1.8C202.8,77.1,205.1,75.3,207.1,75.3z
		 M203.3,79.1c0,0.6,0.4,0.9,1.1,0.9c1.4,0,4.9-2.1,4.9-3.3c0-0.6-0.4-0.9-1.1-0.9C207,75.9,203.3,77.9,203.3,79.1z"/>
</g>
<rect x="245.2" y="97.5" width="10.5" height="0.8"/>
<rect x="245.2" y="102.4" width="10.5" height="0.8"/>
<rect x="253.5" y="73.2" width="0.5" height="28.8"/>
<g>
	<path d="M247,103.7c0-1.8,2.5-3.5,4.5-3.5c1.3,0,2.3,0.7,2.3,1.7c0,1.7-2.5,3.5-4.6,3.5C248,105.4,247,104.7,247,103.7z"/>
</g>
<rect x="256.9" y="97.5" width="10.5" height="0.8"/>
<rect x="265.2" y="71.5" width="0.5" height="25.6"/>
<g>
	<path d="M258.8,98.7c0-1.8,2.5-3.5,4.5-3.5c1.3,0,2.3,0.7,2.3,1.7c0,1.7-2.5,3.5-4.6,3.5C259.8,100.4,258.8,99.8,258.8,98.7z"/>
</g>
<rect x="275.2" y="69.9" width="0.5" height="19.7"/>
<g>
	<path d="M268.7,91.3c0-1.8,2.5-3.5,4.5-3.5c1.3,0,2.3,0.7,2.3,1.7c0,1.7-2.5,3.5-4.6,3.5C269.7,93,268.7,92.3,268.7,91.3z"/>
</g>
<rect x="285.1" y="68.2" width="0.5" height="16.4"/>
<g>
	<path d="M278.6,86.3c0-1.8,2.5-3.5,4.5-3.5c1.3,0,2.3,0.7,2.3,1.7c0,1.7-2.5,3.5-4.6,3.5C279.6,88,278.6,87.4,278.6,86.3z"/>
</g>
<rect x="288.5" y="81.3" width="0.5" height="16.4"/>
<g>
	<path d="M288.6,81.3c0-1.8,2.5-3.5,4.5-3.5c1.3,0,2.3,0.7,2.3,1.7c0,1.7-2.5,3.5-4.6,3.5C289.5,83.1,288.6,82.4,288.6,81.3z"/>
</g>
<rect x="296.9" y="73.8" width="0.5" height="22.5"/>
<g>
	<path d="M296.9,73.9c0-1.8,2.5-3.5,4.5-3.5c1.3,0,2.3,0.7,2.3,1.7c0,1.7-2.5,3.5-4.6,3.5C297.9,75.6,296.9,75,296.9,73.9z"/>
</g>
<rect x="305" y="67.7" width="10.5" height="0.8"/>
<rect x="306.8" y="68.9" width="0.5" height="25.7"/>
<g>
	<path d="M306.9,68.9c0-1.8,2.5-3.5,4.5-3.5c1.3,0,2.3,0.7,2.3,1.7c0,1.7-2.5,3.5-4.6,3.5C307.8,70.7,306.9,70,306.9,68.9z"/>
</g>
<rect x="316.7" y="73.8" width="0.5" height="18.9"/>
<g>
	<path d="M316.8,73.9c0-1.8,2.5-3.5,4.5-3.5c1.3,0,2.3,0.7,2.3,1.7c0,1.7-2.5,3.5-4.6,3.5C317.8,75.6,316.8,75,316.8,73.9z"/>
</g>
<rect x="333.1" y="67" width="0.5" height="12.7"/>
<g>
	<path d="M326.7,81.3c0-1.8,2.5-3.5,4.5-3.5c1.3,0,2.3,0.7,2.3,1.7c0,1.7-2.5,3.5-4.6,3.5C327.7,83.1,326.7,82.4,326.7,81.3z"/>
</g>
<rect x="344.9" y="68.7" width="0.5" height="16"/>
<g>
	<path d="M338.5,86.3c0-1.8,2.5-3.5,4.5-3.5c1.3,0,2.3,0.7,2.3,1.7c0,1.7-2.5,3.5-4.6,3.5C339.5,88,338.5,87.4,338.5,86.3z"/>
</g>
<rect x="354.8" y="70.2" width="0.5" height="19.4"/>
<g>
	<path d="M348.4,91.3c0-1.8,2.5-3.5,4.5-3.5c1.3,0,2.3,0.7,2.3,1.7c0,1.7-2.5,3.5-4.6,3.5C349.4,93,348.4,92.3,348.4,91.3z"/>
</g>
<rect x="356.5" y="97.5" width="10.5" height="0.8"/>
<rect x="364.8" y="72" width="0.5" height="25.1"/>
<g>
	<path d="M358.3,98.7c0-1.8,2.5-3.5,4.5-3.5c1.3,0,2.3,0.7,2.3,1.7c0,1.7-2.5,3.5-4.6,3.5C359.3,100.4,358.3,99.8,358.3,98.7z"/>
</g>
<rect x="368.2" y="97.5" width="10.7" height="0.8"/>
<rect x="368.2" y="102.4" width="10.7" height="0.8"/>
<rect x="376.7" y="83" width="0.5" height="19.1"/>
<g>
	<path d="M374.4,100.1c1.6,0,2.7,0.7,2.7,2c0,1.9-2.3,3.4-4.5,3.4c-1.3,0-2.4-0.7-2.4-1.8C370.1,101.9,372.3,100.1,374.4,100.1z
		 M370.6,104c0,0.6,0.4,0.9,1.1,0.9c1.4,0,4.9-2.1,4.9-3.3c0-0.6-0.4-0.9-1.1-0.9C374.2,100.7,370.6,102.7,370.6,104z"/>
</g>
<rect x="397.4" y="97.5" width="10.5" height="0.8"/>
<rect x="405.7" y="72" width="0.5" height="25.1"/>
<g>
	<path d="M399.3,98.7c0-1.8,2.5-3.5,4.5-3.5c1.3,0,2.3,0.7,2.3,1.7c0,1.7-2.5,3.5-4.6,3.5C400.2,100.4,399.3,99.8,399.3,98.7z"/>
</g>
<rect x="415.6" y="70.4" width="0.5" height="19.2"/>
<g>
	<path d="M409.2,91.3c0-1.8,2.5-3.5,4.5-3.5c1.3,0,2.3,0.7,2.3,1.7c0,1.7-2.5,3.5-4.6,3.5C410.1,93,409.2,92.3,409.2,91.3z"/>
</g>
<rect x="425.5" y="68.9" width="0.5" height="15.8"/>
<g>
	<path d="M419.1,86.3c0-1.8,2.5-3.5,4.5-3.5c1.3,0,2.3,0.7,2.3,1.7c0,1.7-2.5,3.5-4.6,3.5C420.1,88,419.1,87.4,419.1,86.3z"/>
</g>
<rect x="437.3" y="67" width="0.5" height="12.7"/>
<g>
	<path d="M430.9,81.3c0-1.8,2.5-3.5,4.5-3.5c1.3,0,2.3,0.7,2.3,1.7c0,1.7-2.5,3.5-4.6,3.5C431.8,83.1,430.9,82.4,430.9,81.3z"/>
</g>
<rect x="440.7" y="73.8" width="0.5" height="14.3"/>
<g>
	<path d="M440.8,73.9c0-1.8,2.5-3.5,4.5-3.5c1.3,0,2.3,0.7,2.3,1.7c0,1.7-2.5,3.5-4.6,3.5C441.8,75.6,440.8,75,440.8,73.9z"/>
</g>
<rect x="448.9" y="67.7" width="10.5" height="0.8"/>
<rect x="450.6" y="68.9" width="0.5" height="19.1"/>
<g>
	<path d="M450.7,68.9c0-1.8,2.5-3.5,4.5-3.5c1.3,0,2.3,0.7,2.3,1.7c0,1.7-2.5,3.5-4.6,3.5C451.7,70.7,450.7,70,450.7,68.9z"/>
</g>
<rect x="460.6" y="67.7" width="10.5" height="0.8"/>
<rect x="460.6" y="62.7" width="10.5" height="0.8"/>
<rect x="462.4" y="63.9" width="0.5" height="23.9"/>
<g>
	<path d="M462.5,64c0-1.8,2.5-3.5,4.5-3.5c1.3,0,2.3,0.7,2.3,1.7c0,1.7-2.5,3.5-4.6,3.5C463.5,65.7,462.5,65.1,462.5,64z"/>
</g>
<rect x="472.4" y="67.7" width="10.5" height="0.8"/>
<rect x="474.2" y="68.9" width="0.5" height="18.6"/>
<g>
	<path d="M474.3,68.9c0-1.8,2.5-3.5,4.5-3.5c1.3,0,2.3,0.7,2.3,1.7c0,1.7-2.5,3.5-4.6,3.5C475.2,70.7,474.3,70,474.3,68.9z"/>
</g>
<rect x="486" y="73.8" width="0.5" height="25.1"/>
<g>
	<path d="M486.1,73.9c0-1.8,2.5-3.5,4.5-3.5c1.3,0,2.3,0.7,2.3,1.7c0,1.7-2.5,3.5-4.6,3.5C487,75.6,486.1,75,486.1,73.9z"/>
</g>
<rect x="497.8" y="81.3" width="0.5" height="19.4"/>
<g>
	<path d="M497.8,81.3c0-1.8,2.5-3.5,4.5-3.5c1.3,0,2.3,0.7,2.3,1.7c0,1.7-2.5,3.5-4.6,3.5C498.8,83.1,497.8,82.4,497.8,81.3z"/>
</g>
<rect x="509.5" y="86.2" width="0.5" height="16.1"/>
<g>
	<path d="M509.6,86.3c0-1.8,2.5-3.5,4.5-3.5c1.3,0,2.3,0.7,2.3,1.7c0,1.7-2.5,3.5-4.6,3.5C510.6,88,509.6,87.4,509.6,86.3z"/>
</g>
<rect x="519.5" y="91.2" width="0.5" height="12.7"/>
<g>
	<path d="M519.5,91.3c0-1.8,2.5-3.5,4.5-3.5c1.3,0,2.3,0.7,2.3,1.7c0,1.7-2.5,3.5-4.6,3.5C520.5,93,519.5,92.3,519.5,91.3z"/>
</g>
<rect x="527.6" y="97.5" width="10.7" height="0.8"/>
<rect x="536.1" y="80.5" width="0.5" height="16.6"/>
<g>
	<path d="M533.7,95.1c1.6,0,2.7,0.7,2.7,2c0,1.9-2.3,3.4-4.5,3.4c-1.3,0-2.4-0.7-2.4-1.8C529.5,96.9,531.7,95.1,533.7,95.1z
		 M529.9,99c0,0.6,0.4,0.9,1.1,0.9c1.4,0,4.9-2.1,4.9-3.3c0-0.6-0.4-0.9-1.1-0.9C533.6,95.7,529.9,97.8,529.9,99z"/>
</g>
</svg>
