<?xml version="1.0" encoding="utf-8"?>

<!--
	ScaleBook
	Copyright (c) Leland Jansen 2015. All rights reserved.
-->

<!DOCTYPE svg PUBLIC "-//W3C//DTD SVG 1.1//EN" "http://www.w3.org/Graphics/SVG/1.1/DTD/svg11.dtd">
<svg version="1.1" id="Layer_1" xmlns="http://www.w3.org/2000/svg" xmlns:xlink="http://www.w3.org/1999/xlink" x="0px" y="0px"
	 viewBox="0 0 552.9 87.1" enable-background="new 0 0 552.9 87.1" xml:space="preserve">
<rect x="8.4" y="9.9" width="0.8" height="67.3"/>
<g>
	<path d="M7.4,10.6c-1.9,1.1-3.6,5.8-3.6,9.5c0,2.3,1.4,10,1.4,12.3c0,5-1.5,8.7-4.6,11.2c3,2.4,4.6,6.1,4.6,11.1
		c0,2.3-1.4,10-1.4,12.3c0,3.8,1.7,8.5,3.6,9.6v0.7c-3.5-2.3-5.8-8.3-5.8-13.1c0-2.2,1.7-9.4,1.7-11.6c0-3.8-1-6.6-2.9-8.3
		C0.1,44,0,43.8,0,43.6c0-0.2,0.1-0.4,0.5-0.7c1.9-1.7,2.9-4.2,2.9-7.6c0-2.2-1.7-10.1-1.7-12.2c0-5.2,2.1-10.4,5.8-13.1V10.6z"/>
</g>
<rect x="547.8" y="9.9" width="0.8" height="67.3"/>
<rect x="550.4" y="9.9" width="2.5" height="67.3"/>
<rect x="8.5" y="29.5" width="544.4" height="0.5"/>
<rect x="8.5" y="24.6" width="544.4" height="0.5"/>
<rect x="8.5" y="19.6" width="544.4" height="0.5"/>
<rect x="8.5" y="14.6" width="544.4" height="0.5"/>
<rect x="8.5" y="9.7" width="544.4" height="0.5"/>
<g>
	<path d="M20.3,29.6c-4.2,0-8.1-3.1-8.1-6.9c0-3.2,2.3-6.7,6.8-10.5c-0.3-1.2-0.4-2.4-0.4-3.6c0-3.5,1.2-6.8,3.2-8.5
		c1.8,2.5,2.7,4.9,2.7,7.1c0,2.9-1.3,5.6-4.3,8.1l0.9,4.2c0.5,0,0.8-0.1,0.8-0.1c2.6,0,4.8,2,4.8,4.7c0,1.9-1.4,3.7-3.6,4.8
		c0-0.1,0.9,3.8,0.9,4.3c0,2.5-2.3,4.2-4.9,4.2c-2,0-3.6-1.3-3.6-3.4c0-1.4,1-2.6,2.4-2.6c1.3,0,2.3,1.3,2.3,2.5
		c0,1.4-1.2,2.3-2.7,2.5c0.6,0.3,1.2,0.5,1.9,0.5c2.1,0,4.1-1.6,4.1-3.6c0-0.2,0-0.4-0.1-0.6l-0.8-3.7
		C21.9,29.5,21.2,29.6,20.3,29.6z M18.1,24.4c0,1,0.5,1.9,1.6,2.5c-1.8-0.3-3-1.4-3-3.1c0-2,1.7-3.7,3.8-4.1l-0.8-4
		C16,18.5,14,21.2,14,23.8c0,2.9,2.8,5.3,6,5.3c0.9,0,1.7-0.2,2.4-0.5L21,21.8C19.4,22,18.1,23,18.1,24.4z M22.1,3
		c-1.6,0-2.9,3.7-2.9,7c0,0.7,0,1.3,0.2,1.9c2.7-2.4,4-4.5,4-6.5c0-0.9-0.3-1.7-1-2.4C22.4,3.1,22.3,3,22.1,3z M24.9,24.9
		c0-1.6-1.2-3.3-2.9-3.3c-0.1,0-0.2,0-0.5,0l1.4,6.6C24.2,27.4,24.9,26.2,24.9,24.9z"/>
</g>
<g>
	<path d="M33.5,3.1v2.8l1-0.3v1.8l-1,0.3v3.4l1-0.3v1.8l-1,0.3v3.1H33v-3l-1.9,0.6v3h-0.5v-2.8l-1,0.3v-1.8l1-0.3V8.7l-1,0.3V7.2
		l1-0.3V3.7h0.5v3L33,6.1v-3H33.5z M33,7.9l-1.9,0.6v3.4l1.9-0.6V7.9z"/>
</g>
<g>
	<path d="M39.7,10.5v2.8l1-0.3v1.8l-1,0.3v3.4l1-0.3v1.8l-1,0.3v3.1h-0.5v-3l-1.9,0.6v3h-0.5v-2.8l-1,0.3v-1.8l1-0.3v-3.4l-1,0.3
		v-1.8l1-0.3v-3.1h0.5v3l1.9-0.6v-3H39.7z M39.2,15.3L37.3,16v3.4l1.9-0.6V15.3z"/>
</g>
<g>
	<path d="M45.9,0.6v2.8l1-0.3v1.8l-1,0.3v3.4l1-0.3v1.8l-1,0.3v3.1h-0.5v-3l-1.9,0.6v3H43v-2.8l-1,0.3V9.9l1-0.3V6.2l-1,0.3V4.7
		l1-0.3V1.3h0.5v3l1.9-0.6v-3H45.9z M45.4,5.4L43.5,6v3.4l1.9-0.6V5.4z"/>
</g>
<g>
	<path d="M52.1,8.1v2.8l1-0.3v1.8l-1,0.3v3.4l1-0.3v1.8l-1,0.3V21h-0.5v-3l-1.9,0.6v3h-0.5v-2.8l-1,0.3v-1.8l1-0.3v-3.4l-1,0.3v-1.8
		l1-0.3V8.7h0.5v3l1.9-0.6v-3H52.1z M51.6,12.8l-1.9,0.6v3.4l1.9-0.6V12.8z"/>
</g>
<g>
	<path d="M58.3,15.5v2.8l1-0.3v1.8l-1,0.3v3.4l1-0.3V25l-1,0.3v3.1h-0.5v-3l-1.9,0.6v3h-0.5v-2.8l-1,0.3v-1.8l1-0.3v-3.4l-1,0.3
		v-1.8l1-0.3v-3.1h0.5v3l1.9-0.6v-3H58.3z M57.8,20.3l-1.9,0.6v3.4l1.9-0.6V20.3z"/>
</g>
<rect x="8.5" y="77" width="544.4" height="0.5"/>
<rect x="8.5" y="72" width="544.4" height="0.5"/>
<rect x="8.5" y="67" width="544.4" height="0.5"/>
<rect x="8.5" y="62.1" width="544.4" height="0.5"/>
<rect x="8.5" y="57.1" width="544.4" height="0.5"/>
<g>
	<path d="M15.7,71.5c2.9-2.6,4.7-6.1,4.7-9.2c0-2.5-1.4-4.4-3.7-4.4c-1.6,0-3.4,1.3-3.4,2.7c0,0.2,0,0.3,0.1,0.3
		c-0.1,0,0.6-0.6,1.4-0.6c0.9,0,1.5,0.8,1.5,1.7c0,1.2-0.9,2.2-2.1,2.2c-1.2,0-2.1-1.3-2.1-2.8c0-2.3,2.3-4.1,4.8-4.1
		c4.7,0,5.9,3.2,5.9,5.8c0,1.6-0.4,2.9-2,5.3c-1.9,3.1-6.4,5.3-8.1,5.3c-0.4,0-0.6-0.2-0.6-0.5C13.8,72.8,14.9,72.2,15.7,71.5z
		 M25.7,58.8c0.6,0,1,0.4,1,1s-0.4,1-1,1s-1-0.4-1-1S25.1,58.8,25.7,58.8z M25.7,63.8c0.6,0,1,0.4,1,1s-0.4,1-1,1s-1-0.4-1-1
		S25.1,63.8,25.7,63.8z"/>
</g>
<g>
	<path d="M33.5,55.5v2.8l1-0.3v1.8l-1,0.3v3.4l1-0.3V65l-1,0.3v3.1H33v-3l-1.9,0.6v3h-0.5v-2.8l-1,0.3v-1.8l1-0.3V61l-1,0.3v-1.8
		l1-0.3v-3.1h0.5v3l1.9-0.6v-3H33.5z M33,60.3l-1.9,0.6v3.4l1.9-0.6V60.3z"/>
</g>
<g>
	<path d="M39.7,62.9v2.8l1-0.3v1.8l-1,0.3V71l1-0.3v1.8l-1,0.3v3.1h-0.5v-3l-1.9,0.6v3h-0.5v-2.8l-1,0.3v-1.8l1-0.3v-3.4l-1,0.3V67
		l1-0.3v-3.1h0.5v3l1.9-0.6v-3H39.7z M39.2,67.7l-1.9,0.6v3.4l1.9-0.6V67.7z"/>
</g>
<g>
	<path d="M45.9,53v2.8l1-0.3v1.8l-1,0.3v3.4l1-0.3v1.8l-1,0.3V66h-0.5v-3l-1.9,0.6v3H43v-2.8l-1,0.3v-1.8l1-0.3v-3.4l-1,0.3v-1.8
		l1-0.3v-3.1h0.5v3l1.9-0.6v-3H45.9z M45.4,57.8l-1.9,0.6v3.4l1.9-0.6V57.8z"/>
</g>
<g>
	<path d="M52.1,60.4v2.8l1-0.3v1.8l-1,0.3v3.4l1-0.3V70l-1,0.3v3.1h-0.5v-3l-1.9,0.6v3h-0.5v-2.8l-1,0.3v-1.8l1-0.3V66l-1,0.3v-1.8
		l1-0.3v-3.1h0.5v3l1.9-0.6v-3H52.1z M51.6,65.2l-1.9,0.6v3.4l1.9-0.6V65.2z"/>
</g>
<g>
	<path d="M58.3,67.9v2.8l1-0.3v1.8l-1,0.3V76l1-0.3v1.8l-1,0.3v3.1h-0.5v-3l-1.9,0.6v3h-0.5v-2.8l-1,0.3v-1.8l1-0.3v-3.4l-1,0.3V72
		l1-0.3v-3.1h0.5v3l1.9-0.6v-3H58.3z M57.8,72.7l-1.9,0.6v3.4l1.9-0.6V72.7z"/>
</g>
<rect x="66.1" y="34.3" width="10.5" height="0.8"/>
<rect x="74.4" y="9.9" width="0.5" height="26.5"/>
<g>
	<path d="M68,38.1c0-1.8,2.5-3.5,4.5-3.5c1.3,0,2.3,0.7,2.3,1.7c0,1.7-2.5,3.5-4.6,3.5C69,39.8,68,39.1,68,38.1z"/>
</g>
<g>
	<path d="M68,33.1c0-1.8,2.5-3.5,4.5-3.5c1.3,0,2.3,0.7,2.3,1.7c0,1.7-2.5,3.5-4.6,3.5C69,34.8,68,34.2,68,33.1z"/>
</g>
<g>
	<path d="M68,28.1c0-1.8,2.5-3.5,4.5-3.5c1.3,0,2.3,0.7,2.3,1.7c0,1.7-2.5,3.5-4.6,3.5C69,29.9,68,29.2,68,28.1z"/>
</g>
<rect x="136.4" y="2.5" width="0.5" height="29"/>
<g>
	<path d="M130,33.1c0-1.8,2.5-3.5,4.5-3.5c1.3,0,2.3,0.7,2.3,1.7c0,1.7-2.5,3.5-4.6,3.5C131,34.8,130,34.2,130,33.1z"/>
</g>
<g>
	<path d="M130,28.1c0-1.8,2.5-3.5,4.5-3.5c1.3,0,2.3,0.7,2.3,1.7c0,1.7-2.5,3.5-4.6,3.5C131,29.9,130,29.2,130,28.1z"/>
</g>
<g>
	<path d="M130,20.7c0-1.8,2.5-3.5,4.5-3.5c1.3,0,2.3,0.7,2.3,1.7c0,1.7-2.5,3.5-4.6,3.5C131,22.4,130,21.8,130,20.7z"/>
</g>
<rect x="198.4" width="0.5" height="26.5"/>
<g>
	<path d="M192,28.1c0-1.8,2.5-3.5,4.5-3.5c1.3,0,2.3,0.7,2.3,1.7c0,1.7-2.5,3.5-4.6,3.5C193,29.9,192,29.2,192,28.1z"/>
</g>
<g>
	<path d="M192,20.7c0-1.8,2.5-3.5,4.5-3.5c1.3,0,2.3,0.7,2.3,1.7c0,1.7-2.5,3.5-4.6,3.5C193,22.4,192,21.8,192,20.7z"/>
</g>
<g>
	<path d="M192,15.7c0-1.8,2.5-3.5,4.5-3.5c1.3,0,2.3,0.7,2.3,1.7c0,1.7-2.5,3.5-4.6,3.5C193,17.5,192,16.8,192,15.7z"/>
</g>
<rect x="253.9" y="10.7" width="0.5" height="26.5"/>
<g>
	<path d="M254,10.8c0-1.8,2.5-3.5,4.5-3.5c1.3,0,2.3,0.7,2.3,1.7c0,1.7-2.5,3.5-4.6,3.5C255,12.5,254,11.9,254,10.8z"/>
</g>
<g>
	<path d="M254,15.7c0-1.8,2.5-3.5,4.5-3.5c1.3,0,2.3,0.7,2.3,1.7c0,1.7-2.5,3.5-4.6,3.5C255,17.5,254,16.8,254,15.7z"/>
</g>
<g>
	<path d="M254,20.7c0-1.8,2.5-3.5,4.5-3.5c1.3,0,2.3,0.7,2.3,1.7c0,1.7-2.5,3.5-4.6,3.5C255,22.4,254,21.8,254,20.7z"/>
</g>
<rect x="322.4" width="0.5" height="26.5"/>
<g>
	<path d="M316,28.1c0-1.8,2.5-3.5,4.5-3.5c1.3,0,2.3,0.7,2.3,1.7c0,1.7-2.5,3.5-4.6,3.5C317,29.9,316,29.2,316,28.1z"/>
</g>
<g>
	<path d="M316,20.7c0-1.8,2.5-3.5,4.5-3.5c1.3,0,2.3,0.7,2.3,1.7c0,1.7-2.5,3.5-4.6,3.5C317,22.4,316,21.8,316,20.7z"/>
</g>
<g>
	<path d="M316,15.7c0-1.8,2.5-3.5,4.5-3.5c1.3,0,2.3,0.7,2.3,1.7c0,1.7-2.5,3.5-4.6,3.5C317,17.5,316,16.8,316,15.7z"/>
</g>
<rect x="384.4" y="2.5" width="0.5" height="29"/>
<g>
	<path d="M378,33.1c0-1.8,2.5-3.5,4.5-3.5c1.3,0,2.3,0.7,2.3,1.7c0,1.7-2.5,3.5-4.6,3.5C379,34.8,378,34.2,378,33.1z"/>
</g>
<g>
	<path d="M378,28.1c0-1.8,2.5-3.5,4.5-3.5c1.3,0,2.3,0.7,2.3,1.7c0,1.7-2.5,3.5-4.6,3.5C379,29.9,378,29.2,378,28.1z"/>
</g>
<g>
	<path d="M378,20.7c0-1.8,2.5-3.5,4.5-3.5c1.3,0,2.3,0.7,2.3,1.7c0,1.7-2.5,3.5-4.6,3.5C379,22.4,378,21.8,378,20.7z"/>
</g>
<rect x="438.2" y="34.3" width="10.7" height="0.8"/>
<rect x="446.6" y="9.9" width="0.5" height="26.5"/>
<g>
	<path d="M444.3,34.5c1.6,0,2.7,0.7,2.7,2c0,1.9-2.3,3.4-4.5,3.4c-1.3,0-2.4-0.7-2.4-1.8C440,36.3,442.3,34.5,444.3,34.5z
		 M440.5,38.4c0,0.6,0.4,0.9,1.1,0.9c1.4,0,4.9-2.1,4.9-3.3c0-0.6-0.4-0.9-1.1-0.9C444.1,35.1,440.5,37.1,440.5,38.4z"/>
</g>
<g>
	<path d="M444.3,29.5c1.6,0,2.7,0.7,2.7,2c0,1.9-2.3,3.4-4.5,3.4c-1.3,0-2.4-0.7-2.4-1.8C440,31.3,442.3,29.5,444.3,29.5z
		 M440.5,33.4c0,0.6,0.4,0.9,1.1,0.9c1.4,0,4.9-2.1,4.9-3.3c0-0.6-0.4-0.9-1.1-0.9C444.1,30.1,440.5,32.2,440.5,33.4z"/>
</g>
<g>
	<path d="M444.3,24.6c1.6,0,2.7,0.7,2.7,2c0,1.9-2.3,3.4-4.5,3.4c-1.3,0-2.4-0.7-2.4-1.8C440,26.4,442.3,24.6,444.3,24.6z
		 M440.5,28.4c0,0.6,0.4,0.9,1.1,0.9c1.4,0,4.9-2.1,4.9-3.3c0-0.6-0.4-0.9-1.1-0.9C444.1,25.2,440.5,27.2,440.5,28.4z"/>
</g>
<rect x="67.9" y="63.1" width="0.5" height="24"/>
<g>
	<path d="M68,63.2c0-1.8,2.5-3.5,4.5-3.5c1.3,0,2.3,0.7,2.3,1.7c0,1.7-2.5,3.5-4.6,3.5C69,64.9,68,64.3,68,63.2z"/>
</g>
<g>
	<path d="M68,68.1c0-1.8,2.5-3.5,4.5-3.5c1.3,0,2.3,0.7,2.3,1.7c0,1.7-2.5,3.5-4.6,3.5C69,69.9,68,69.2,68,68.1z"/>
</g>
<g>
	<path d="M68,73.1c0-1.8,2.5-3.5,4.5-3.5c1.3,0,2.3,0.7,2.3,1.7c0,1.7-2.5,3.5-4.6,3.5C69,74.8,68,74.2,68,73.1z"/>
</g>
<rect x="129.9" y="55.6" width="0.5" height="29"/>
<g>
	<path d="M130,55.7c0-1.8,2.5-3.5,4.5-3.5c1.3,0,2.3,0.7,2.3,1.7c0,1.7-2.5,3.5-4.6,3.5C131,57.5,130,56.8,130,55.7z"/>
</g>
<g>
	<path d="M130,63.2c0-1.8,2.5-3.5,4.5-3.5c1.3,0,2.3,0.7,2.3,1.7c0,1.7-2.5,3.5-4.6,3.5C131,64.9,130,64.3,130,63.2z"/>
</g>
<g>
	<path d="M130,68.1c0-1.8,2.5-3.5,4.5-3.5c1.3,0,2.3,0.7,2.3,1.7c0,1.7-2.5,3.5-4.6,3.5C131,69.9,130,69.2,130,68.1z"/>
</g>
<rect x="190.1" y="52" width="10.5" height="0.8"/>
<rect x="191.9" y="50.7" width="0.5" height="29"/>
<g>
	<path d="M192,50.8c0-1.8,2.5-3.5,4.5-3.5c1.3,0,2.3,0.7,2.3,1.7c0,1.7-2.5,3.5-4.6,3.5C193,52.5,192,51.9,192,50.8z"/>
</g>
<g>
	<path d="M192,55.7c0-1.8,2.5-3.5,4.5-3.5c1.3,0,2.3,0.7,2.3,1.7c0,1.7-2.5,3.5-4.6,3.5C193,57.5,192,56.8,192,55.7z"/>
</g>
<g>
	<path d="M192,63.2c0-1.8,2.5-3.5,4.5-3.5c1.3,0,2.3,0.7,2.3,1.7c0,1.7-2.5,3.5-4.6,3.5C193,64.9,192,64.3,192,63.2z"/>
</g>
<rect x="252.1" y="52" width="10.5" height="0.8"/>
<rect x="252.1" y="47" width="10.5" height="0.8"/>
<rect x="253.9" y="45.7" width="0.5" height="26.5"/>
<g>
	<path d="M254,45.8c0-1.8,2.5-3.5,4.5-3.5c1.3,0,2.3,0.7,2.3,1.7c0,1.7-2.5,3.5-4.6,3.5C255,47.5,254,46.9,254,45.8z"/>
</g>
<g>
	<path d="M254,50.8c0-1.8,2.5-3.5,4.5-3.5c1.3,0,2.3,0.7,2.3,1.7c0,1.7-2.5,3.5-4.6,3.5C255,52.5,254,51.9,254,50.8z"/>
</g>
<g>
	<path d="M254,55.7c0-1.8,2.5-3.5,4.5-3.5c1.3,0,2.3,0.7,2.3,1.7c0,1.7-2.5,3.5-4.6,3.5C255,57.5,254,56.8,254,55.7z"/>
</g>
<rect x="314.1" y="52" width="10.5" height="0.8"/>
<rect x="315.9" y="50.7" width="0.5" height="29"/>
<g>
	<path d="M316,50.8c0-1.8,2.5-3.5,4.5-3.5c1.3,0,2.3,0.7,2.3,1.7c0,1.7-2.5,3.5-4.6,3.5C317,52.5,316,51.9,316,50.8z"/>
</g>
<g>
	<path d="M316,55.7c0-1.8,2.5-3.5,4.5-3.5c1.3,0,2.3,0.7,2.3,1.7c0,1.7-2.5,3.5-4.6,3.5C317,57.5,316,56.8,316,55.7z"/>
</g>
<g>
	<path d="M316,63.2c0-1.8,2.5-3.5,4.5-3.5c1.3,0,2.3,0.7,2.3,1.7c0,1.7-2.5,3.5-4.6,3.5C317,64.9,316,64.3,316,63.2z"/>
</g>
<rect x="377.9" y="55.6" width="0.5" height="29"/>
<g>
	<path d="M378,55.7c0-1.8,2.5-3.5,4.5-3.5c1.3,0,2.3,0.7,2.3,1.7c0,1.7-2.5,3.5-4.6,3.5C379,57.5,378,56.8,378,55.7z"/>
</g>
<g>
	<path d="M378,63.2c0-1.8,2.5-3.5,4.5-3.5c1.3,0,2.3,0.7,2.3,1.7c0,1.7-2.5,3.5-4.6,3.5C379,64.9,378,64.3,378,63.2z"/>
</g>
<g>
	<path d="M378,68.1c0-1.8,2.5-3.5,4.5-3.5c1.3,0,2.3,0.7,2.3,1.7c0,1.7-2.5,3.5-4.6,3.5C379,69.9,378,69.2,378,68.1z"/>
</g>
<rect x="439.9" y="63.1" width="0.5" height="24"/>
<g>
	<path d="M444.3,59.6c1.6,0,2.7,0.7,2.7,2c0,1.9-2.3,3.4-4.5,3.4c-1.3,0-2.4-0.7-2.4-1.8C440,61.4,442.3,59.6,444.3,59.6z
		 M440.5,63.5c0,0.6,0.4,0.9,1.1,0.9c1.4,0,4.9-2.1,4.9-3.3c0-0.6-0.4-0.9-1.1-0.9C444.1,60.2,440.5,62.2,440.5,63.5z"/>
</g>
<g>
	<path d="M444.3,64.6c1.6,0,2.7,0.7,2.7,2c0,1.9-2.3,3.4-4.5,3.4c-1.3,0-2.4-0.7-2.4-1.8C440,66.4,442.3,64.6,444.3,64.6z
		 M440.5,68.4c0,0.6,0.4,0.9,1.1,0.9c1.4,0,4.9-2.1,4.9-3.3c0-0.6-0.4-0.9-1.1-0.9C444.1,65.2,440.5,67.2,440.5,68.4z"/>
</g>
<g>
	<path d="M444.3,69.5c1.6,0,2.7,0.7,2.7,2c0,1.9-2.3,3.4-4.5,3.4c-1.3,0-2.4-0.7-2.4-1.8C440,71.3,442.3,69.5,444.3,69.5z
		 M440.5,73.4c0,0.6,0.4,0.9,1.1,0.9c1.4,0,4.9-2.1,4.9-3.3c0-0.6-0.4-0.9-1.1-0.9C444.1,70.1,440.5,72.2,440.5,73.4z"/>
</g>
</svg>
