<?xml version="1.0" encoding="utf-8"?>

<!--
	ScaleBook
	Copyright (c) Leland Jansen 2015. All rights reserved.
-->

<!DOCTYPE svg PUBLIC "-//W3C//DTD SVG 1.1//EN" "http://www.w3.org/Graphics/SVG/1.1/DTD/svg11.dtd">
<svg version="1.1" id="Layer_1" xmlns="http://www.w3.org/2000/svg" xmlns:xlink="http://www.w3.org/1999/xlink" x="0px" y="0px"
	 viewBox="0 0 552.9 85.7" enable-background="new 0 0 552.9 85.7" xml:space="preserve">
<rect x="8.4" y="9.7" width="0.8" height="67.3"/>
<g>
	<path d="M7.4,10.4c-1.9,1.1-3.6,5.8-3.6,9.5c0,2.3,1.4,10,1.4,12.3c0,5-1.5,8.7-4.6,11.2c3,2.4,4.6,6.1,4.6,11.1
		c0,2.3-1.4,10-1.4,12.3c0,3.8,1.7,8.5,3.6,9.6V77c-3.5-2.3-5.8-8.3-5.8-13.1c0-2.2,1.7-9.4,1.7-11.6c0-3.8-1-6.6-2.9-8.3
		C0.1,43.8,0,43.6,0,43.4c0-0.2,0.1-0.4,0.5-0.7c1.9-1.7,2.9-4.2,2.9-7.6c0-2.2-1.7-10.1-1.7-12.2c0-5.2,2.1-10.4,5.8-13.1V10.4z"/>
</g>
<rect x="547.8" y="9.7" width="0.8" height="67.3"/>
<rect x="550.4" y="9.7" width="2.5" height="67.3"/>
<rect x="8.5" y="29.3" width="544.4" height="0.5"/>
<rect x="8.5" y="24.4" width="544.4" height="0.5"/>
<rect x="8.5" y="19.4" width="544.4" height="0.5"/>
<rect x="8.5" y="14.4" width="544.4" height="0.5"/>
<rect x="8.5" y="9.5" width="544.4" height="0.5"/>
<g>
	<path d="M20.3,29.4c-4.2,0-8.1-3.1-8.1-6.9c0-3.2,2.3-6.7,6.8-10.5c-0.3-1.2-0.4-2.4-0.4-3.6c0-3.5,1.2-6.8,3.2-8.5
		c1.8,2.5,2.7,4.9,2.7,7.1c0,2.9-1.3,5.6-4.3,8.1l0.9,4.2c0.5,0,0.8-0.1,0.8-0.1c2.6,0,4.8,2,4.8,4.7c0,1.9-1.4,3.7-3.6,4.8
		c0-0.1,0.9,3.8,0.9,4.3c0,2.5-2.3,4.2-4.9,4.2c-2,0-3.6-1.3-3.6-3.4c0-1.4,1-2.6,2.4-2.6c1.3,0,2.3,1.3,2.3,2.5
		c0,1.4-1.2,2.3-2.7,2.5c0.6,0.3,1.2,0.5,1.9,0.5c2.1,0,4.1-1.6,4.1-3.6c0-0.2,0-0.4-0.1-0.6l-0.8-3.7
		C21.9,29.3,21.2,29.4,20.3,29.4z M18.1,24.2c0,1,0.5,1.9,1.6,2.5c-1.8-0.3-3-1.4-3-3.1c0-2,1.7-3.7,3.8-4.1l-0.8-4
		C16,18.3,14,21,14,23.6c0,2.9,2.8,5.3,6,5.3c0.9,0,1.7-0.2,2.4-0.5L21,21.6C19.4,21.8,18.1,22.8,18.1,24.2z M22.1,2.8
		c-1.6,0-2.9,3.7-2.9,7c0,0.7,0,1.3,0.2,1.9c2.7-2.4,4-4.5,4-6.5c0-0.9-0.3-1.7-1-2.4C22.4,2.9,22.3,2.8,22.1,2.8z M24.9,24.7
		c0-1.6-1.2-3.3-2.9-3.3c-0.1,0-0.2,0-0.5,0l1.4,6.6C24.2,27.2,24.9,26,24.9,24.7z"/>
</g>
<g>
	<path d="M33.5,2.9v2.8l1-0.3v1.8l-1,0.3V11l1-0.3v1.8l-1,0.3v3.1H33v-3l-1.9,0.6v3h-0.5v-2.8l-1,0.3v-1.8l1-0.3V8.4l-1,0.3V7l1-0.3
		V3.5h0.5v3L33,5.9v-3H33.5z M33,7.7l-1.9,0.6v3.4l1.9-0.6V7.7z"/>
</g>
<g>
	<path d="M39.7,10.3v2.8l1-0.3v1.8l-1,0.3v3.4l1-0.3v1.8l-1,0.3v3.1h-0.5v-3L37.3,21v3h-0.5v-2.8l-1,0.3v-1.8l1-0.3v-3.4l-1,0.3
		v-1.8l1-0.3V11h0.5v3l1.9-0.6v-3H39.7z M39.2,15.1l-1.9,0.6v3.4l1.9-0.6V15.1z"/>
</g>
<g>
	<path d="M45.9,0.4v2.8l1-0.3v1.8l-1,0.3v3.4l1-0.3V10l-1,0.3v3.1h-0.5v-3l-1.9,0.6v3H43v-2.8l-1,0.3V9.7l1-0.3V6l-1,0.3V4.5l1-0.3
		V1h0.5v3l1.9-0.6v-3H45.9z M45.4,5.2l-1.9,0.6v3.4l1.9-0.6V5.2z"/>
</g>
<g>
	<path d="M52.1,7.9v2.8l1-0.3v1.8l-1,0.3v3.4l1-0.3v1.8l-1,0.3v3.1h-0.5v-3l-1.9,0.6v3h-0.5v-2.8l-1,0.3v-1.8l1-0.3v-3.4l-1,0.3
		v-1.8l1-0.3V8.5h0.5v3l1.9-0.6v-3H52.1z M51.6,12.6l-1.9,0.6v3.4l1.9-0.6V12.6z"/>
</g>
<g>
	<path d="M58.3,15.3v2.8l1-0.3v1.8l-1,0.3v3.4l1-0.3v1.8l-1,0.3v3.1h-0.5v-3l-1.9,0.6v3h-0.5v-2.8l-1,0.3v-1.8l1-0.3v-3.4l-1,0.3
		v-1.8l1-0.3v-3.1h0.5v3l1.9-0.6v-3H58.3z M57.8,20.1l-1.9,0.6v3.4l1.9-0.6V20.1z"/>
</g>
<g>
	<path d="M64.5,5.4v2.8l1-0.3v1.8l-1,0.3v3.4l1-0.3v1.8l-1,0.3v3.1H64v-3L62.1,16v3h-0.5v-2.8l-1,0.3v-1.8l1-0.3v-3.4l-1,0.3V9.5
		l1-0.3V6h0.5v3L64,8.3v-3H64.5z M64,10.2l-1.9,0.6v3.4l1.9-0.6V10.2z"/>
</g>
<g>
	<path d="M70.7,12.8v2.8l1-0.3v1.8l-1,0.3v3.4l1-0.3v1.8l-1,0.3v3.1h-0.5v-3l-1.9,0.6v3h-0.5v-2.8l-1,0.3v-1.8l1-0.3v-3.4l-1,0.3
		v-1.8l1-0.3v-3.1h0.5v3l1.9-0.6v-3H70.7z M70.2,17.6l-1.9,0.6v3.4l1.9-0.6V17.6z"/>
</g>
<rect x="8.5" y="76.8" width="544.4" height="0.5"/>
<rect x="8.5" y="71.8" width="544.4" height="0.5"/>
<rect x="8.5" y="66.8" width="544.4" height="0.5"/>
<rect x="8.5" y="61.9" width="544.4" height="0.5"/>
<rect x="8.5" y="56.9" width="544.4" height="0.5"/>
<g>
	<path d="M15.7,71.3c2.9-2.6,4.7-6.1,4.7-9.2c0-2.5-1.4-4.4-3.7-4.4c-1.6,0-3.4,1.3-3.4,2.7c0,0.2,0,0.3,0.1,0.3
		c-0.1,0,0.6-0.6,1.4-0.6c0.9,0,1.5,0.8,1.5,1.7c0,1.2-0.9,2.2-2.1,2.2c-1.2,0-2.1-1.3-2.1-2.8c0-2.3,2.3-4.1,4.8-4.1
		c4.7,0,5.9,3.2,5.9,5.8c0,1.6-0.4,2.9-2,5.3c-1.9,3.1-6.4,5.3-8.1,5.3c-0.4,0-0.6-0.2-0.6-0.5C13.8,72.6,14.9,72,15.7,71.3z
		 M25.7,58.6c0.6,0,1,0.4,1,1s-0.4,1-1,1s-1-0.4-1-1S25.1,58.6,25.7,58.6z M25.7,63.6c0.6,0,1,0.4,1,1s-0.4,1-1,1s-1-0.4-1-1
		S25.1,63.6,25.7,63.6z"/>
</g>
<g>
	<path d="M33.5,55.3v2.8l1-0.3v1.8l-1,0.3v3.4l1-0.3v1.8l-1,0.3v3.1H33v-3l-1.9,0.6v3h-0.5v-2.8l-1,0.3v-1.8l1-0.3v-3.4l-1,0.3v-1.8
		l1-0.3v-3.1h0.5v3l1.9-0.6v-3H33.5z M33,60.1l-1.9,0.6v3.4l1.9-0.6V60.1z"/>
</g>
<g>
	<path d="M39.7,62.7v2.8l1-0.3V67l-1,0.3v3.4l1-0.3v1.8l-1,0.3v3.1h-0.5v-3l-1.9,0.6v3h-0.5v-2.8l-1,0.3V72l1-0.3v-3.4l-1,0.3v-1.8
		l1-0.3v-3.1h0.5v3l1.9-0.6v-3H39.7z M39.2,67.5l-1.9,0.6v3.4l1.9-0.6V67.5z"/>
</g>
<g>
	<path d="M45.9,52.8v2.8l1-0.3v1.8l-1,0.3v3.4l1-0.3v1.8l-1,0.3v3.1h-0.5v-3l-1.9,0.6v3H43v-2.8l-1,0.3v-1.8l1-0.3v-3.4l-1,0.3v-1.8
		l1-0.3v-3.1h0.5v3l1.9-0.6v-3H45.9z M45.4,57.6l-1.9,0.6v3.4l1.9-0.6V57.6z"/>
</g>
<g>
	<path d="M52.1,60.2v2.8l1-0.3v1.8l-1,0.3v3.4l1-0.3v1.8l-1,0.3v3.1h-0.5v-3l-1.9,0.6v3h-0.5V71l-1,0.3v-1.8l1-0.3v-3.4l-1,0.3v-1.8
		l1-0.3v-3.1h0.5v3l1.9-0.6v-3H52.1z M51.6,65l-1.9,0.6v3.4l1.9-0.6V65z"/>
</g>
<g>
	<path d="M58.3,67.7v2.8l1-0.3V72l-1,0.3v3.4l1-0.3v1.8l-1,0.3v3.1h-0.5v-3l-1.9,0.6v3h-0.5v-2.8l-1,0.3V77l1-0.3v-3.4l-1,0.3v-1.8
		l1-0.3v-3.1h0.5v3l1.9-0.6v-3H58.3z M57.8,72.5l-1.9,0.6v3.4l1.9-0.6V72.5z"/>
</g>
<g>
	<path d="M64.5,57.8v2.8l1-0.3v1.8l-1,0.3v3.4l1-0.3v1.8l-1,0.3v3.1H64v-3l-1.9,0.6v3h-0.5v-2.8l-1,0.3v-1.8l1-0.3v-3.4l-1,0.3v-1.8
		l1-0.3v-3.1h0.5v3l1.9-0.6v-3H64.5z M64,62.5l-1.9,0.6v3.4L64,66V62.5z"/>
</g>
<g>
	<path d="M70.7,65.2V68l1-0.3v1.8l-1,0.3v3.4l1-0.3v1.8l-1,0.3v3.1h-0.5v-3l-1.9,0.6v3h-0.5V76l-1,0.3v-1.8l1-0.3v-3.4l-1,0.3v-1.8
		l1-0.3v-3.1h0.5v3l1.9-0.6v-3H70.7z M70.2,70l-1.9,0.6v3.4l1.9-0.6V70z"/>
</g>
<rect x="78.5" y="34.1" width="10.5" height="0.8"/>
<rect x="86.8" y="7.2" width="0.5" height="26.5"/>
<g>
	<path d="M80.4,35.4c0-1.8,2.5-3.5,4.5-3.5c1.3,0,2.3,0.7,2.3,1.7c0,1.7-2.5,3.5-4.6,3.5C81.4,37.1,80.4,36.5,80.4,35.4z"/>
</g>
<g>
	<path d="M80.4,30.4c0-1.8,2.5-3.5,4.5-3.5c1.3,0,2.3,0.7,2.3,1.7c0,1.7-2.5,3.5-4.6,3.5C81.4,32.1,80.4,31.5,80.4,30.4z"/>
</g>
<g>
	<path d="M80.4,25.5c0-1.8,2.5-3.5,4.5-3.5c1.3,0,2.3,0.7,2.3,1.7c0,1.7-2.5,3.5-4.6,3.5C81.4,27.2,80.4,26.5,80.4,25.5z"/>
</g>
<rect x="147.3" y="1" width="0.5" height="27.7"/>
<g>
	<path d="M140.8,30.4c0-1.8,2.5-3.5,4.5-3.5c1.3,0,2.3,0.7,2.3,1.7c0,1.7-2.5,3.5-4.6,3.5C141.8,32.1,140.8,31.5,140.8,30.4z"/>
</g>
<g>
	<path d="M140.8,25.5c0-1.8,2.5-3.5,4.5-3.5c1.3,0,2.3,0.7,2.3,1.7c0,1.7-2.5,3.5-4.6,3.5C141.8,27.2,140.8,26.5,140.8,25.5z"/>
</g>
<g>
	<path d="M140.8,18c0-1.8,2.5-3.5,4.5-3.5c1.3,0,2.3,0.7,2.3,1.7c0,1.7-2.5,3.5-4.6,3.5C141.8,19.7,140.8,19.1,140.8,18z"/>
</g>
<rect x="201.1" y="13" width="0.5" height="26.5"/>
<g>
	<path d="M201.1,13c0-1.8,2.5-3.5,4.5-3.5c1.3,0,2.3,0.7,2.3,1.7c0,1.7-2.5,3.5-4.6,3.5C202.1,14.8,201.1,14.1,201.1,13z"/>
</g>
<g>
	<path d="M201.1,18c0-1.8,2.5-3.5,4.5-3.5c1.3,0,2.3,0.7,2.3,1.7c0,1.7-2.5,3.5-4.6,3.5C202.1,19.7,201.1,19.1,201.1,18z"/>
</g>
<g>
	<path d="M201.1,25.5c0-1.8,2.5-3.5,4.5-3.5c1.3,0,2.3,0.7,2.3,1.7c0,1.7-2.5,3.5-4.6,3.5C202.1,27.2,201.1,26.5,201.1,25.5z"/>
</g>
<rect x="261.5" y="8" width="0.5" height="26.5"/>
<g>
	<path d="M261.6,8.1c0-1.8,2.5-3.5,4.5-3.5c1.3,0,2.3,0.7,2.3,1.7c0,1.7-2.5,3.5-4.6,3.5C262.6,9.8,261.6,9.2,261.6,8.1z"/>
</g>
<g>
	<path d="M261.6,13c0-1.8,2.5-3.5,4.5-3.5c1.3,0,2.3,0.7,2.3,1.7c0,1.7-2.5,3.5-4.6,3.5C262.6,14.8,261.6,14.1,261.6,13z"/>
</g>
<g>
	<path d="M261.6,18c0-1.8,2.5-3.5,4.5-3.5c1.3,0,2.3,0.7,2.3,1.7c0,1.7-2.5,3.5-4.6,3.5C262.6,19.7,261.6,19.1,261.6,18z"/>
</g>
<rect x="322" y="13" width="0.5" height="26.5"/>
<g>
	<path d="M322.1,13c0-1.8,2.5-3.5,4.5-3.5c1.3,0,2.3,0.7,2.3,1.7c0,1.7-2.5,3.5-4.6,3.5C323,14.8,322.1,14.1,322.1,13z"/>
</g>
<g>
	<path d="M322.1,18c0-1.8,2.5-3.5,4.5-3.5c1.3,0,2.3,0.7,2.3,1.7c0,1.7-2.5,3.5-4.6,3.5C323,19.7,322.1,19.1,322.1,18z"/>
</g>
<g>
	<path d="M322.1,25.5c0-1.8,2.5-3.5,4.5-3.5c1.3,0,2.3,0.7,2.3,1.7c0,1.7-2.5,3.5-4.6,3.5C323,27.2,322.1,26.5,322.1,25.5z"/>
</g>
<rect x="388.8" y="1" width="0.5" height="27.7"/>
<g>
	<path d="M382.4,30.4c0-1.8,2.5-3.5,4.5-3.5c1.3,0,2.3,0.7,2.3,1.7c0,1.7-2.5,3.5-4.6,3.5C383.3,32.1,382.4,31.5,382.4,30.4z"/>
</g>
<g>
	<path d="M382.4,25.5c0-1.8,2.5-3.5,4.5-3.5c1.3,0,2.3,0.7,2.3,1.7c0,1.7-2.5,3.5-4.6,3.5C383.3,27.2,382.4,26.5,382.4,25.5z"/>
</g>
<g>
	<path d="M382.4,18c0-1.8,2.5-3.5,4.5-3.5c1.3,0,2.3,0.7,2.3,1.7c0,1.7-2.5,3.5-4.6,3.5C383.3,19.7,382.4,19.1,382.4,18z"/>
</g>
<rect x="441" y="34.1" width="10.7" height="0.8"/>
<rect x="449.4" y="7.2" width="0.5" height="26.5"/>
<g>
	<path d="M447.1,31.8c1.6,0,2.7,0.7,2.7,2c0,1.9-2.3,3.4-4.5,3.4c-1.3,0-2.4-0.7-2.4-1.8C442.8,33.6,445.1,31.8,447.1,31.8z
		 M443.3,35.7c0,0.6,0.4,0.9,1.1,0.9c1.4,0,4.9-2.1,4.9-3.3c0-0.6-0.4-0.9-1.1-0.9C446.9,32.4,443.3,34.4,443.3,35.7z"/>
</g>
<g>
	<path d="M447.1,26.9c1.6,0,2.7,0.7,2.7,2c0,1.9-2.3,3.4-4.5,3.4c-1.3,0-2.4-0.7-2.4-1.8C442.8,28.6,445.1,26.9,447.1,26.9z
		 M443.3,30.7c0,0.6,0.4,0.9,1.1,0.9c1.4,0,4.9-2.1,4.9-3.3c0-0.6-0.4-0.9-1.1-0.9C446.9,27.5,443.3,29.5,443.3,30.7z"/>
</g>
<g>
	<path d="M447.1,21.9c1.6,0,2.7,0.7,2.7,2c0,1.9-2.3,3.4-4.5,3.4c-1.3,0-2.4-0.7-2.4-1.8C442.8,23.7,445.1,21.9,447.1,21.9z
		 M443.3,25.7c0,0.6,0.4,0.9,1.1,0.9c1.4,0,4.9-2.1,4.9-3.3c0-0.6-0.4-0.9-1.1-0.9C446.9,22.5,443.3,24.5,443.3,25.7z"/>
</g>
<rect x="80.3" y="60.4" width="0.5" height="25.3"/>
<g>
	<path d="M80.4,60.5c0-1.8,2.5-3.5,4.5-3.5c1.3,0,2.3,0.7,2.3,1.7c0,1.7-2.5,3.5-4.6,3.5C81.4,62.2,80.4,61.6,80.4,60.5z"/>
</g>
<g>
	<path d="M80.4,65.4c0-1.8,2.5-3.5,4.5-3.5c1.3,0,2.3,0.7,2.3,1.7c0,1.7-2.5,3.5-4.6,3.5C81.4,67.2,80.4,66.5,80.4,65.4z"/>
</g>
<g>
	<path d="M80.4,70.4c0-1.8,2.5-3.5,4.5-3.5c1.3,0,2.3,0.7,2.3,1.7c0,1.7-2.5,3.5-4.6,3.5C81.4,72.1,80.4,71.5,80.4,70.4z"/>
</g>
<rect x="139" y="51.8" width="10.5" height="0.8"/>
<rect x="140.8" y="53" width="0.5" height="29"/>
<g>
	<path d="M140.8,53c0-1.8,2.5-3.5,4.5-3.5c1.3,0,2.3,0.7,2.3,1.7c0,1.7-2.5,3.5-4.6,3.5C141.8,54.8,140.8,54.1,140.8,53z"/>
</g>
<g>
	<path d="M140.8,60.5c0-1.8,2.5-3.5,4.5-3.5c1.3,0,2.3,0.7,2.3,1.7c0,1.7-2.5,3.5-4.6,3.5C141.8,62.2,140.8,61.6,140.8,60.5z"/>
</g>
<g>
	<path d="M140.8,65.4c0-1.8,2.5-3.5,4.5-3.5c1.3,0,2.3,0.7,2.3,1.7c0,1.7-2.5,3.5-4.6,3.5C141.8,67.2,140.8,66.5,140.8,65.4z"/>
</g>
<rect x="199.3" y="51.8" width="10.5" height="0.8"/>
<rect x="199.3" y="46.8" width="10.5" height="0.8"/>
<rect x="201.1" y="48" width="0.5" height="29"/>
<g>
	<path d="M201.1,48.1c0-1.8,2.5-3.5,4.5-3.5c1.3,0,2.3,0.7,2.3,1.7c0,1.7-2.5,3.5-4.6,3.5C202.1,49.8,201.1,49.2,201.1,48.1z"/>
</g>
<g>
	<path d="M201.1,53c0-1.8,2.5-3.5,4.5-3.5c1.3,0,2.3,0.7,2.3,1.7c0,1.7-2.5,3.5-4.6,3.5C202.1,54.8,201.1,54.1,201.1,53z"/>
</g>
<g>
	<path d="M201.1,60.5c0-1.8,2.5-3.5,4.5-3.5c1.3,0,2.3,0.7,2.3,1.7c0,1.7-2.5,3.5-4.6,3.5C202.1,62.2,201.1,61.6,201.1,60.5z"/>
</g>
<rect x="259.7" y="51.8" width="10.5" height="0.8"/>
<rect x="259.7" y="46.8" width="10.5" height="0.8"/>
<rect x="259.7" y="41.9" width="10.5" height="0.8"/>
<rect x="261.5" y="43" width="0.5" height="26.5"/>
<g>
	<path d="M261.6,43.1c0-1.8,2.5-3.5,4.5-3.5c1.3,0,2.3,0.7,2.3,1.7c0,1.7-2.5,3.5-4.6,3.5C262.6,44.8,261.6,44.2,261.6,43.1z"/>
</g>
<g>
	<path d="M261.6,48.1c0-1.8,2.5-3.5,4.5-3.5c1.3,0,2.3,0.7,2.3,1.7c0,1.7-2.5,3.5-4.6,3.5C262.6,49.8,261.6,49.2,261.6,48.1z"/>
</g>
<g>
	<path d="M261.6,53c0-1.8,2.5-3.5,4.5-3.5c1.3,0,2.3,0.7,2.3,1.7c0,1.7-2.5,3.5-4.6,3.5C262.6,54.8,261.6,54.1,261.6,53z"/>
</g>
<rect x="320.2" y="51.8" width="10.5" height="0.8"/>
<rect x="320.2" y="46.8" width="10.5" height="0.8"/>
<rect x="322" y="48" width="0.5" height="29"/>
<g>
	<path d="M322.1,48.1c0-1.8,2.5-3.5,4.5-3.5c1.3,0,2.3,0.7,2.3,1.7c0,1.7-2.5,3.5-4.6,3.5C323,49.8,322.1,49.2,322.1,48.1z"/>
</g>
<g>
	<path d="M322.1,53c0-1.8,2.5-3.5,4.5-3.5c1.3,0,2.3,0.7,2.3,1.7c0,1.7-2.5,3.5-4.6,3.5C323,54.8,322.1,54.1,322.1,53z"/>
</g>
<g>
	<path d="M322.1,60.5c0-1.8,2.5-3.5,4.5-3.5c1.3,0,2.3,0.7,2.3,1.7c0,1.7-2.5,3.5-4.6,3.5C323,62.2,322.1,61.6,322.1,60.5z"/>
</g>
<rect x="380.5" y="51.8" width="10.5" height="0.8"/>
<rect x="382.3" y="53" width="0.5" height="29"/>
<g>
	<path d="M382.4,53c0-1.8,2.5-3.5,4.5-3.5c1.3,0,2.3,0.7,2.3,1.7c0,1.7-2.5,3.5-4.6,3.5C383.3,54.8,382.4,54.1,382.4,53z"/>
</g>
<g>
	<path d="M382.4,60.5c0-1.8,2.5-3.5,4.5-3.5c1.3,0,2.3,0.7,2.3,1.7c0,1.7-2.5,3.5-4.6,3.5C383.3,62.2,382.4,61.6,382.4,60.5z"/>
</g>
<g>
	<path d="M382.4,65.4c0-1.8,2.5-3.5,4.5-3.5c1.3,0,2.3,0.7,2.3,1.7c0,1.7-2.5,3.5-4.6,3.5C383.3,67.2,382.4,66.5,382.4,65.4z"/>
</g>
<rect x="442.7" y="60.4" width="0.5" height="25.3"/>
<g>
	<path d="M447.1,56.9c1.6,0,2.7,0.7,2.7,2c0,1.9-2.3,3.4-4.5,3.4c-1.3,0-2.4-0.7-2.4-1.8C442.8,58.7,445.1,56.9,447.1,56.9z
		 M443.3,60.8c0,0.6,0.4,0.9,1.1,0.9c1.4,0,4.9-2.1,4.9-3.3c0-0.6-0.4-0.9-1.1-0.9C446.9,57.5,443.3,59.5,443.3,60.8z"/>
</g>
<g>
	<path d="M447.1,61.9c1.6,0,2.7,0.7,2.7,2c0,1.9-2.3,3.4-4.5,3.4c-1.3,0-2.4-0.7-2.4-1.8C442.8,63.7,445.1,61.9,447.1,61.9z
		 M443.3,65.7c0,0.6,0.4,0.9,1.1,0.9c1.4,0,4.9-2.1,4.9-3.3c0-0.6-0.4-0.9-1.1-0.9C446.9,62.5,443.3,64.5,443.3,65.7z"/>
</g>
<g>
	<path d="M447.1,66.9c1.6,0,2.7,0.7,2.7,2c0,1.9-2.3,3.4-4.5,3.4c-1.3,0-2.4-0.7-2.4-1.8C442.8,68.6,445.1,66.9,447.1,66.9z
		 M443.3,70.7c0,0.6,0.4,0.9,1.1,0.9c1.4,0,4.9-2.1,4.9-3.3c0-0.6-0.4-0.9-1.1-0.9C446.9,67.4,443.3,69.5,443.3,70.7z"/>
</g>
</svg>
