<?xml version="1.0" encoding="utf-8"?>

<!--
	ScaleBook
	Copyright (c) Leland Jansen 2015. All rights reserved.
-->

<!DOCTYPE svg PUBLIC "-//W3C//DTD SVG 1.1//EN" "http://www.w3.org/Graphics/SVG/1.1/DTD/svg11.dtd">
<svg version="1.1" id="Layer_1" xmlns="http://www.w3.org/2000/svg" xmlns:xlink="http://www.w3.org/1999/xlink" x="0px" y="0px"
	 viewBox="0 0 552.9 85.7" enable-background="new 0 0 552.9 85.7" xml:space="preserve">
<rect x="8.4" y="9.7" width="0.8" height="67.3"/>
<g>
	<path d="M7.4,10.4c-1.9,1.1-3.6,5.8-3.6,9.5c0,2.3,1.4,10,1.4,12.3c0,5-1.5,8.7-4.6,11.2c3,2.4,4.6,6.1,4.6,11.1
		c0,2.3-1.4,10-1.4,12.3c0,3.8,1.7,8.5,3.6,9.6V77c-3.5-2.3-5.8-8.3-5.8-13.1c0-2.2,1.7-9.4,1.7-11.6c0-3.8-1-6.6-2.9-8.3
		C0.1,43.8,0,43.6,0,43.4c0-0.2,0.1-0.4,0.5-0.7c1.9-1.7,2.9-4.2,2.9-7.6c0-2.2-1.7-10.1-1.7-12.2c0-5.2,2.1-10.4,5.8-13.1V10.4z"/>
</g>
<rect x="547.8" y="9.7" width="0.8" height="67.3"/>
<rect x="550.4" y="9.7" width="2.5" height="67.3"/>
<rect x="8.5" y="29.3" width="544.4" height="0.5"/>
<rect x="8.5" y="24.4" width="544.4" height="0.5"/>
<rect x="8.5" y="19.4" width="544.4" height="0.5"/>
<rect x="8.5" y="14.4" width="544.4" height="0.5"/>
<rect x="8.5" y="9.5" width="544.4" height="0.5"/>
<g>
	<path d="M20.3,29.4c-4.2,0-8.1-3.1-8.1-6.9c0-3.2,2.3-6.7,6.8-10.5c-0.3-1.2-0.4-2.4-0.4-3.6c0-3.5,1.2-6.8,3.2-8.5
		c1.8,2.5,2.7,4.9,2.7,7.1c0,2.9-1.3,5.6-4.3,8.1l0.9,4.2c0.5,0,0.8-0.1,0.8-0.1c2.6,0,4.8,2,4.8,4.7c0,1.9-1.4,3.7-3.6,4.8
		c0-0.1,0.9,3.8,0.9,4.3c0,2.5-2.3,4.2-4.9,4.2c-2,0-3.6-1.3-3.6-3.4c0-1.4,1-2.6,2.4-2.6c1.3,0,2.3,1.3,2.3,2.5
		c0,1.4-1.2,2.3-2.7,2.5c0.6,0.3,1.2,0.5,1.9,0.5c2.1,0,4.1-1.6,4.1-3.6c0-0.2,0-0.4-0.1-0.6l-0.8-3.7
		C21.9,29.3,21.2,29.4,20.3,29.4z M18.1,24.2c0,1,0.5,1.9,1.6,2.5c-1.8-0.3-3-1.4-3-3.1c0-2,1.7-3.7,3.8-4.1l-0.8-4
		C16,18.3,14,21,14,23.6c0,2.9,2.8,5.3,6,5.3c0.9,0,1.7-0.2,2.4-0.5L21,21.6C19.4,21.8,18.1,22.8,18.1,24.2z M22.1,2.8
		c-1.6,0-2.9,3.7-2.9,7c0,0.7,0,1.3,0.2,1.9c2.7-2.4,4-4.5,4-6.5c0-0.9-0.3-1.7-1-2.4C22.4,2.9,22.3,2.8,22.1,2.8z M24.9,24.7
		c0-1.6-1.2-3.3-2.9-3.3c-0.1,0-0.2,0-0.5,0l1.4,6.6C24.2,27.2,24.9,26,24.9,24.7z"/>
</g>
<rect x="8.5" y="76.8" width="544.4" height="0.5"/>
<rect x="8.5" y="71.8" width="544.4" height="0.5"/>
<rect x="8.5" y="66.8" width="544.4" height="0.5"/>
<rect x="8.5" y="61.9" width="544.4" height="0.5"/>
<rect x="8.5" y="56.9" width="544.4" height="0.5"/>
<g>
	<path d="M15.7,71.3c2.9-2.6,4.7-6.1,4.7-9.2c0-2.5-1.4-4.4-3.7-4.4c-1.6,0-3.4,1.3-3.4,2.7c0,0.2,0,0.3,0.1,0.3
		c-0.1,0,0.6-0.6,1.4-0.6c0.9,0,1.5,0.8,1.5,1.7c0,1.2-0.9,2.2-2.1,2.2c-1.2,0-2.1-1.3-2.1-2.8c0-2.3,2.3-4.1,4.8-4.1
		c4.7,0,5.9,3.2,5.9,5.8c0,1.6-0.4,2.9-2,5.3c-1.9,3.1-6.4,5.3-8.1,5.3c-0.4,0-0.6-0.2-0.6-0.5C13.8,72.6,14.9,72,15.7,71.3z
		 M25.7,58.6c0.6,0,1,0.4,1,1s-0.4,1-1,1s-1-0.4-1-1S25.1,58.6,25.7,58.6z M25.7,63.6c0.6,0,1,0.4,1,1s-0.4,1-1,1s-1-0.4-1-1
		S25.1,63.6,25.7,63.6z"/>
</g>
<rect x="35.1" y="34.1" width="10.5" height="0.8"/>
<rect x="43.4" y="7.2" width="0.5" height="26.5"/>
<g>
	<path d="M37,35.4c0-1.8,2.5-3.5,4.5-3.5c1.3,0,2.3,0.7,2.3,1.7c0,1.7-2.5,3.5-4.6,3.5C38,37.1,37,36.5,37,35.4z"/>
</g>
<g>
	<path d="M37,30.4c0-1.8,2.5-3.5,4.5-3.5c1.3,0,2.3,0.7,2.3,1.7c0,1.7-2.5,3.5-4.6,3.5C38,32.1,37,31.5,37,30.4z"/>
</g>
<g>
	<path d="M37,25.5c0-1.8,2.5-3.5,4.5-3.5c1.3,0,2.3,0.7,2.3,1.7c0,1.7-2.5,3.5-4.6,3.5C38,27.2,37,26.5,37,25.5z"/>
</g>
<rect x="109.5" y="1" width="0.5" height="27.7"/>
<g>
	<path d="M103,30.4c0-1.8,2.5-3.5,4.5-3.5c1.3,0,2.3,0.7,2.3,1.7c0,1.7-2.5,3.5-4.6,3.5C104,32.1,103,31.5,103,30.4z"/>
</g>
<g>
	<path d="M103,25.5c0-1.8,2.5-3.5,4.5-3.5c1.3,0,2.3,0.7,2.3,1.7c0,1.7-2.5,3.5-4.6,3.5C104,27.2,103,26.5,103,25.5z"/>
</g>
<g>
	<path d="M103,18c0-1.8,2.5-3.5,4.5-3.5c1.3,0,2.3,0.7,2.3,1.7c0,1.7-2.5,3.5-4.6,3.5C104,19.7,103,19.1,103,18z"/>
</g>
<rect x="169" y="13" width="0.5" height="26.5"/>
<g>
	<path d="M169.1,13c0-1.8,2.5-3.5,4.5-3.5c1.3,0,2.3,0.7,2.3,1.7c0,1.7-2.5,3.5-4.6,3.5C170,14.8,169.1,14.1,169.1,13z"/>
</g>
<g>
	<path d="M169.1,18c0-1.8,2.5-3.5,4.5-3.5c1.3,0,2.3,0.7,2.3,1.7c0,1.7-2.5,3.5-4.6,3.5C170,19.7,169.1,19.1,169.1,18z"/>
</g>
<g>
	<path d="M169.1,25.5c0-1.8,2.5-3.5,4.5-3.5c1.3,0,2.3,0.7,2.3,1.7c0,1.7-2.5,3.5-4.6,3.5C170,27.2,169.1,26.5,169.1,25.5z"/>
</g>
<rect x="235" y="8" width="0.5" height="26.5"/>
<g>
	<path d="M235.1,8.1c0-1.8,2.5-3.5,4.5-3.5c1.3,0,2.3,0.7,2.3,1.7c0,1.7-2.5,3.5-4.6,3.5C236.1,9.8,235.1,9.2,235.1,8.1z"/>
</g>
<g>
	<path d="M235.1,13c0-1.8,2.5-3.5,4.5-3.5c1.3,0,2.3,0.7,2.3,1.7c0,1.7-2.5,3.5-4.6,3.5C236.1,14.8,235.1,14.1,235.1,13z"/>
</g>
<g>
	<path d="M235.1,18c0-1.8,2.5-3.5,4.5-3.5c1.3,0,2.3,0.7,2.3,1.7c0,1.7-2.5,3.5-4.6,3.5C236.1,19.7,235.1,19.1,235.1,18z"/>
</g>
<rect x="301.1" y="13" width="0.5" height="26.5"/>
<g>
	<path d="M301.1,13c0-1.8,2.5-3.5,4.5-3.5c1.3,0,2.3,0.7,2.3,1.7c0,1.7-2.5,3.5-4.6,3.5C302.1,14.8,301.1,14.1,301.1,13z"/>
</g>
<g>
	<path d="M301.1,18c0-1.8,2.5-3.5,4.5-3.5c1.3,0,2.3,0.7,2.3,1.7c0,1.7-2.5,3.5-4.6,3.5C302.1,19.7,301.1,19.1,301.1,18z"/>
</g>
<g>
	<path d="M301.1,25.5c0-1.8,2.5-3.5,4.5-3.5c1.3,0,2.3,0.7,2.3,1.7c0,1.7-2.5,3.5-4.6,3.5C302.1,27.2,301.1,26.5,301.1,25.5z"/>
</g>
<rect x="373.6" y="1" width="0.5" height="27.7"/>
<g>
	<path d="M367.2,30.4c0-1.8,2.5-3.5,4.5-3.5c1.3,0,2.3,0.7,2.3,1.7c0,1.7-2.5,3.5-4.6,3.5C368.1,32.1,367.2,31.5,367.2,30.4z"/>
</g>
<g>
	<path d="M367.2,25.5c0-1.8,2.5-3.5,4.5-3.5c1.3,0,2.3,0.7,2.3,1.7c0,1.7-2.5,3.5-4.6,3.5C368.1,27.2,367.2,26.5,367.2,25.5z"/>
</g>
<g>
	<path d="M367.2,18c0-1.8,2.5-3.5,4.5-3.5c1.3,0,2.3,0.7,2.3,1.7c0,1.7-2.5,3.5-4.6,3.5C368.1,19.7,367.2,19.1,367.2,18z"/>
</g>
<rect x="431.3" y="34.1" width="10.7" height="0.8"/>
<rect x="439.8" y="7.2" width="0.5" height="26.5"/>
<g>
	<path d="M437.5,31.8c1.6,0,2.7,0.7,2.7,2c0,1.9-2.3,3.4-4.5,3.4c-1.3,0-2.4-0.7-2.4-1.8C433.2,33.6,435.4,31.8,437.5,31.8z
		 M433.7,35.7c0,0.6,0.4,0.9,1.1,0.9c1.4,0,4.9-2.1,4.9-3.3c0-0.6-0.4-0.9-1.1-0.9C437.3,32.4,433.7,34.4,433.7,35.7z"/>
</g>
<g>
	<path d="M437.5,26.9c1.6,0,2.7,0.7,2.7,2c0,1.9-2.3,3.4-4.5,3.4c-1.3,0-2.4-0.7-2.4-1.8C433.2,28.6,435.4,26.9,437.5,26.9z
		 M433.7,30.7c0,0.6,0.4,0.9,1.1,0.9c1.4,0,4.9-2.1,4.9-3.3c0-0.6-0.4-0.9-1.1-0.9C437.3,27.5,433.7,29.5,433.7,30.7z"/>
</g>
<g>
	<path d="M437.5,21.9c1.6,0,2.7,0.7,2.7,2c0,1.9-2.3,3.4-4.5,3.4c-1.3,0-2.4-0.7-2.4-1.8C433.2,23.7,435.4,21.9,437.5,21.9z
		 M433.7,25.7c0,0.6,0.4,0.9,1.1,0.9c1.4,0,4.9-2.1,4.9-3.3c0-0.6-0.4-0.9-1.1-0.9C437.3,22.5,433.7,24.5,433.7,25.7z"/>
</g>
<rect x="36.9" y="60.4" width="0.5" height="25.3"/>
<g>
	<path d="M37,60.5c0-1.8,2.5-3.5,4.5-3.5c1.3,0,2.3,0.7,2.3,1.7c0,1.7-2.5,3.5-4.6,3.5C38,62.2,37,61.6,37,60.5z"/>
</g>
<g>
	<path d="M37,65.4c0-1.8,2.5-3.5,4.5-3.5c1.3,0,2.3,0.7,2.3,1.7c0,1.7-2.5,3.5-4.6,3.5C38,67.2,37,66.5,37,65.4z"/>
</g>
<g>
	<path d="M37,70.4c0-1.8,2.5-3.5,4.5-3.5c1.3,0,2.3,0.7,2.3,1.7c0,1.7-2.5,3.5-4.6,3.5C38,72.1,37,71.5,37,70.4z"/>
</g>
<rect x="101.2" y="51.8" width="10.5" height="0.8"/>
<rect x="102.9" y="53" width="0.5" height="29"/>
<g>
	<path d="M103,53c0-1.8,2.5-3.5,4.5-3.5c1.3,0,2.3,0.7,2.3,1.7c0,1.7-2.5,3.5-4.6,3.5C104,54.8,103,54.1,103,53z"/>
</g>
<g>
	<path d="M103,60.5c0-1.8,2.5-3.5,4.5-3.5c1.3,0,2.3,0.7,2.3,1.7c0,1.7-2.5,3.5-4.6,3.5C104,62.2,103,61.6,103,60.5z"/>
</g>
<g>
	<path d="M103,65.4c0-1.8,2.5-3.5,4.5-3.5c1.3,0,2.3,0.7,2.3,1.7c0,1.7-2.5,3.5-4.6,3.5C104,67.2,103,66.5,103,65.4z"/>
</g>
<rect x="167.2" y="51.8" width="10.5" height="0.8"/>
<rect x="167.2" y="46.8" width="10.5" height="0.8"/>
<rect x="169" y="48" width="0.5" height="29"/>
<g>
	<path d="M169.1,48.1c0-1.8,2.5-3.5,4.5-3.5c1.3,0,2.3,0.7,2.3,1.7c0,1.7-2.5,3.5-4.6,3.5C170,49.8,169.1,49.2,169.1,48.1z"/>
</g>
<g>
	<path d="M169.1,53c0-1.8,2.5-3.5,4.5-3.5c1.3,0,2.3,0.7,2.3,1.7c0,1.7-2.5,3.5-4.6,3.5C170,54.8,169.1,54.1,169.1,53z"/>
</g>
<g>
	<path d="M169.1,60.5c0-1.8,2.5-3.5,4.5-3.5c1.3,0,2.3,0.7,2.3,1.7c0,1.7-2.5,3.5-4.6,3.5C170,62.2,169.1,61.6,169.1,60.5z"/>
</g>
<rect x="233.2" y="51.8" width="10.5" height="0.8"/>
<rect x="233.2" y="46.8" width="10.5" height="0.8"/>
<rect x="233.2" y="41.9" width="10.5" height="0.8"/>
<rect x="235" y="43" width="0.5" height="26.5"/>
<g>
	<path d="M235.1,43.1c0-1.8,2.5-3.5,4.5-3.5c1.3,0,2.3,0.7,2.3,1.7c0,1.7-2.5,3.5-4.6,3.5C236.1,44.8,235.1,44.2,235.1,43.1z"/>
</g>
<g>
	<path d="M235.1,48.1c0-1.8,2.5-3.5,4.5-3.5c1.3,0,2.3,0.7,2.3,1.7c0,1.7-2.5,3.5-4.6,3.5C236.1,49.8,235.1,49.2,235.1,48.1z"/>
</g>
<g>
	<path d="M235.1,53c0-1.8,2.5-3.5,4.5-3.5c1.3,0,2.3,0.7,2.3,1.7c0,1.7-2.5,3.5-4.6,3.5C236.1,54.8,235.1,54.1,235.1,53z"/>
</g>
<rect x="299.3" y="51.8" width="10.5" height="0.8"/>
<rect x="299.3" y="46.8" width="10.5" height="0.8"/>
<rect x="301.1" y="48" width="0.5" height="29"/>
<g>
	<path d="M301.1,48.1c0-1.8,2.5-3.5,4.5-3.5c1.3,0,2.3,0.7,2.3,1.7c0,1.7-2.5,3.5-4.6,3.5C302.1,49.8,301.1,49.2,301.1,48.1z"/>
</g>
<g>
	<path d="M301.1,53c0-1.8,2.5-3.5,4.5-3.5c1.3,0,2.3,0.7,2.3,1.7c0,1.7-2.5,3.5-4.6,3.5C302.1,54.8,301.1,54.1,301.1,53z"/>
</g>
<g>
	<path d="M301.1,60.5c0-1.8,2.5-3.5,4.5-3.5c1.3,0,2.3,0.7,2.3,1.7c0,1.7-2.5,3.5-4.6,3.5C302.1,62.2,301.1,61.6,301.1,60.5z"/>
</g>
<rect x="365.3" y="51.8" width="10.5" height="0.8"/>
<rect x="367.1" y="53" width="0.5" height="29"/>
<g>
	<path d="M367.2,53c0-1.8,2.5-3.5,4.5-3.5c1.3,0,2.3,0.7,2.3,1.7c0,1.7-2.5,3.5-4.6,3.5C368.1,54.8,367.2,54.1,367.2,53z"/>
</g>
<g>
	<path d="M367.2,60.5c0-1.8,2.5-3.5,4.5-3.5c1.3,0,2.3,0.7,2.3,1.7c0,1.7-2.5,3.5-4.6,3.5C368.1,62.2,367.2,61.6,367.2,60.5z"/>
</g>
<g>
	<path d="M367.2,65.4c0-1.8,2.5-3.5,4.5-3.5c1.3,0,2.3,0.7,2.3,1.7c0,1.7-2.5,3.5-4.6,3.5C368.1,67.2,367.2,66.5,367.2,65.4z"/>
</g>
<rect x="433.1" y="60.4" width="0.5" height="25.3"/>
<g>
	<path d="M437.5,56.9c1.6,0,2.7,0.7,2.7,2c0,1.9-2.3,3.4-4.5,3.4c-1.3,0-2.4-0.7-2.4-1.8C433.2,58.7,435.4,56.9,437.5,56.9z
		 M433.7,60.8c0,0.6,0.4,0.9,1.1,0.9c1.4,0,4.9-2.1,4.9-3.3c0-0.6-0.4-0.9-1.1-0.9C437.3,57.5,433.7,59.5,433.7,60.8z"/>
</g>
<g>
	<path d="M437.5,61.9c1.6,0,2.7,0.7,2.7,2c0,1.9-2.3,3.4-4.5,3.4c-1.3,0-2.4-0.7-2.4-1.8C433.2,63.7,435.4,61.9,437.5,61.9z
		 M433.7,65.7c0,0.6,0.4,0.9,1.1,0.9c1.4,0,4.9-2.1,4.9-3.3c0-0.6-0.4-0.9-1.1-0.9C437.3,62.5,433.7,64.5,433.7,65.7z"/>
</g>
<g>
	<path d="M437.5,66.9c1.6,0,2.7,0.7,2.7,2c0,1.9-2.3,3.4-4.5,3.4c-1.3,0-2.4-0.7-2.4-1.8C433.2,68.6,435.4,66.9,437.5,66.9z
		 M433.7,70.7c0,0.6,0.4,0.9,1.1,0.9c1.4,0,4.9-2.1,4.9-3.3c0-0.6-0.4-0.9-1.1-0.9C437.3,67.4,433.7,69.5,433.7,70.7z"/>
</g>
</svg>
