<?xml version="1.0" encoding="utf-8"?>

<!--
	ScaleBook
	Copyright (c) Leland Jansen 2015. All rights reserved.
-->

<!DOCTYPE svg PUBLIC "-//W3C//DTD SVG 1.1//EN" "http://www.w3.org/Graphics/SVG/1.1/DTD/svg11.dtd">
<svg version="1.1" id="Layer_1" xmlns="http://www.w3.org/2000/svg" xmlns:xlink="http://www.w3.org/1999/xlink" x="0px" y="0px"
	 viewBox="0 0 552.9 89.4" enable-background="new 0 0 552.9 89.4" xml:space="preserve">
<rect x="8.4" y="9.9" width="0.8" height="67"/>
<g>
	<path d="M7.4,10.6c-1.9,1.1-3.6,5.8-3.6,9.4c0,2.3,1.4,9.9,1.4,12.3c0,5-1.5,8.6-4.6,11.1c3,2.4,4.6,6.1,4.6,11
		c0,2.3-1.4,9.9-1.4,12.3c0,3.8,1.7,8.4,3.6,9.5v0.7c-3.5-2.3-5.8-8.2-5.8-13.1c0-2.1,1.7-9.4,1.7-11.5c0-3.8-1-6.6-2.9-8.2
		C0.1,43.8,0,43.6,0,43.4s0.1-0.4,0.5-0.7c1.9-1.7,2.9-4.2,2.9-7.6c0-2.1-1.7-10-1.7-12.2c0-5.2,2.1-10.4,5.8-13.1V10.6z"/>
</g>
<rect x="547.8" y="9.9" width="0.8" height="67"/>
<rect x="550.4" y="9.9" width="2.5" height="67"/>
<rect x="8.5" y="29.5" width="544.4" height="0.5"/>
<rect x="8.5" y="24.6" width="544.4" height="0.5"/>
<rect x="8.5" y="19.6" width="544.4" height="0.5"/>
<rect x="8.5" y="14.6" width="544.4" height="0.5"/>
<rect x="8.5" y="9.7" width="544.4" height="0.5"/>
<g>
	<path d="M20.3,29.6c-4.2,0-8.1-3.1-8.1-6.9c0-3.2,2.3-6.7,6.8-10.5c-0.3-1.2-0.4-2.4-0.4-3.6c0-3.5,1.2-6.8,3.2-8.5
		c1.8,2.5,2.7,4.9,2.7,7.1c0,2.9-1.3,5.6-4.3,8.1l0.9,4.2c0.5,0,0.8-0.1,0.8-0.1c2.6,0,4.8,2,4.8,4.7c0,1.9-1.4,3.7-3.6,4.8
		c0-0.1,0.9,3.8,0.9,4.3c0,2.5-2.3,4.2-4.9,4.2c-2,0-3.6-1.3-3.6-3.4c0-1.4,1-2.6,2.4-2.6c1.3,0,2.3,1.3,2.3,2.5
		c0,1.4-1.2,2.3-2.7,2.5c0.6,0.3,1.2,0.5,1.9,0.5c2.1,0,4.1-1.6,4.1-3.6c0-0.2,0-0.4-0.1-0.6l-0.8-3.7
		C21.9,29.5,21.2,29.6,20.3,29.6z M18.1,24.4c0,1,0.5,1.9,1.6,2.5c-1.8-0.3-3-1.4-3-3.1c0-2,1.7-3.7,3.8-4.1l-0.8-4
		C16,18.5,14,21.2,14,23.8c0,2.9,2.8,5.3,6,5.3c0.9,0,1.7-0.2,2.4-0.5L21,21.8C19.4,22,18.1,23,18.1,24.4z M22.1,3
		c-1.6,0-2.9,3.7-2.9,7c0,0.7,0,1.3,0.2,1.9c2.7-2.4,4-4.5,4-6.5c0-0.9-0.3-1.7-1-2.4C22.4,3.1,22.3,3,22.1,3z M24.9,24.9
		c0-1.6-1.2-3.3-2.9-3.3c-0.1,0-0.2,0-0.5,0l1.4,6.6C24.2,27.4,24.9,26.2,24.9,24.9z"/>
</g>
<g>
	<path d="M29.5,11.5h0.6L30,17.8c0.4-0.7,1-1,1.8-1c1.2,0,2.2,0.8,2.2,1.9c0,0.8-0.5,1.8-1.7,2.7l-2.8,2.1V11.5z M30.1,18.4
		C30,19.2,30,19.8,30,20.4c0,1,0,1.6,0.1,2c1-0.7,2.4-2.6,2.4-3.7c0-0.6-0.5-1.1-1.1-1.1C30.8,17.6,30.4,17.9,30.1,18.4z"/>
</g>
<g>
	<path d="M35.1,4.1h0.6l-0.1,6.2c0.4-0.7,1-1,1.8-1c1.2,0,2.2,0.8,2.2,1.9c0,0.8-0.5,1.8-1.7,2.7L35.1,16V4.1z M35.7,11
		c-0.1,0.8-0.1,1.4-0.1,1.9c0,1,0,1.6,0.1,2c1-0.7,2.4-2.6,2.4-3.7c0-0.6-0.5-1.1-1.1-1.1C36.4,10.2,36,10.4,35.7,11z"/>
</g>
<g>
	<path d="M40.7,14h0.6l-0.1,6.2c0.4-0.7,1-1,1.8-1c1.2,0,2.2,0.8,2.2,1.9c0,0.8-0.5,1.8-1.7,2.7L40.7,26V14z M41.3,20.9
		c-0.1,0.8-0.1,1.4-0.1,1.9c0,1,0,1.6,0.1,2c1-0.7,2.4-2.6,2.4-3.7c0-0.6-0.5-1.1-1.1-1.1C42,20.1,41.6,20.4,41.3,20.9z"/>
</g>
<g>
	<path d="M46.3,6.6h0.6l-0.1,6.2c0.4-0.7,1-1,1.8-1c1.2,0,2.2,0.8,2.2,1.9c0,0.8-0.5,1.8-1.7,2.7l-2.8,2.1V6.6z M46.9,13.5
		c-0.1,0.8-0.1,1.4-0.1,1.9c0,1,0,1.6,0.1,2c1-0.7,2.4-2.6,2.4-3.7c0-0.6-0.5-1.1-1.1-1.1C47.6,12.6,47.2,12.9,46.9,13.5z"/>
</g>
<g>
	<path d="M51.9,16.5h0.6l-0.1,6.2c0.4-0.7,1-1,1.8-1c1.2,0,2.2,0.8,2.2,1.9c0,0.8-0.5,1.8-1.7,2.7l-2.8,2.1V16.5z M52.4,23.4
		c-0.1,0.8-0.1,1.4-0.1,1.9c0,1,0,1.6,0.1,2c1-0.7,2.4-2.6,2.4-3.7c0-0.6-0.5-1.1-1.1-1.1C53.2,22.6,52.7,22.8,52.4,23.4z"/>
</g>
<rect x="8.5" y="76.7" width="544.4" height="0.5"/>
<rect x="8.5" y="71.7" width="544.4" height="0.5"/>
<rect x="8.5" y="66.7" width="544.4" height="0.5"/>
<rect x="8.5" y="61.8" width="544.4" height="0.5"/>
<rect x="8.5" y="56.8" width="544.4" height="0.5"/>
<g>
	<path d="M15.7,71.2c2.9-2.6,4.7-6.1,4.7-9.2c0-2.5-1.4-4.4-3.7-4.4c-1.6,0-3.4,1.3-3.4,2.7c0,0.2,0,0.3,0.1,0.3
		c-0.1,0,0.6-0.6,1.4-0.6c0.9,0,1.5,0.8,1.5,1.7c0,1.2-0.9,2.2-2.1,2.2c-1.2,0-2.1-1.3-2.1-2.8c0-2.3,2.3-4.1,4.8-4.1
		c4.7,0,5.9,3.2,5.9,5.8c0,1.6-0.4,2.9-2,5.3c-1.9,3.1-6.4,5.3-8.1,5.3c-0.4,0-0.6-0.2-0.6-0.5C13.8,72.5,14.9,71.9,15.7,71.2z
		 M25.7,58.5c0.6,0,1,0.4,1,1s-0.4,1-1,1s-1-0.4-1-1S25.1,58.5,25.7,58.5z M25.7,63.5c0.6,0,1,0.4,1,1s-0.4,1-1,1s-1-0.4-1-1
		S25.1,63.5,25.7,63.5z"/>
</g>
<g>
	<path d="M29.5,63.6h0.6L30,69.9c0.4-0.7,1-1,1.8-1c1.2,0,2.2,0.8,2.2,1.9c0,0.8-0.5,1.8-1.7,2.7l-2.8,2.1V63.6z M30.1,70.5
		C30,71.3,30,71.9,30,72.5c0,1,0,1.6,0.1,2c1-0.7,2.4-2.6,2.4-3.7c0-0.6-0.5-1.1-1.1-1.1C30.8,69.7,30.4,70,30.1,70.5z"/>
</g>
<g>
	<path d="M35.1,56.2h0.6l-0.1,6.2c0.4-0.7,1-1,1.8-1c1.2,0,2.2,0.8,2.2,1.9c0,0.8-0.5,1.8-1.7,2.7l-2.8,2.1V56.2z M35.7,63.1
		c-0.1,0.8-0.1,1.4-0.1,1.9c0,1,0,1.6,0.1,2c1-0.7,2.4-2.6,2.4-3.7c0-0.6-0.5-1.1-1.1-1.1C36.4,62.2,36,62.5,35.7,63.1z"/>
</g>
<g>
	<path d="M40.7,66.1h0.6l-0.1,6.2c0.4-0.7,1-1,1.8-1c1.2,0,2.2,0.8,2.2,1.9c0,0.8-0.5,1.8-1.7,2.7L40.7,78V66.1z M41.3,73
		c-0.1,0.8-0.1,1.4-0.1,1.9c0,1,0,1.6,0.1,2c1-0.7,2.4-2.6,2.4-3.7c0-0.6-0.5-1.1-1.1-1.1C42,72.2,41.6,72.4,41.3,73z"/>
</g>
<g>
	<path d="M46.3,58.7h0.6l-0.1,6.2c0.4-0.7,1-1,1.8-1c1.2,0,2.2,0.8,2.2,1.9c0,0.8-0.5,1.8-1.7,2.7l-2.8,2.1V58.7z M46.9,65.6
		c-0.1,0.8-0.1,1.4-0.1,1.9c0,1,0,1.6,0.1,2c1-0.7,2.4-2.6,2.4-3.7c0-0.6-0.5-1.1-1.1-1.1C47.6,64.7,47.2,65,46.9,65.6z"/>
</g>
<g>
	<path d="M51.9,68.6h0.6l-0.1,6.2c0.4-0.7,1-1,1.8-1c1.2,0,2.2,0.8,2.2,1.9c0,0.8-0.5,1.8-1.7,2.7l-2.8,2.1V68.6z M52.4,75.5
		c-0.1,0.8-0.1,1.4-0.1,1.9c0,1,0,1.6,0.1,2c1-0.7,2.4-2.6,2.4-3.7c0-0.6-0.5-1.1-1.1-1.1C53.2,74.6,52.7,74.9,52.4,75.5z"/>
</g>
<g>
	<path d="M181.8,75.5c-3.2,0-6.1-2.3-6.1-5.1c0-2.4,1.7-5,5.1-7.9c-0.2-0.9-0.3-1.8-0.3-2.7c0-2.6,0.9-5.1,2.4-6.3
		c1.4,1.9,2,3.7,2,5.3c0,2.2-1,4.2-3.2,6.1l0.7,3.1c0.4,0,0.6,0,0.6,0c2,0,3.6,1.5,3.6,3.5c0,1.4-1.1,2.8-2.7,3.6
		c0-0.1,0.6,2.8,0.6,3.3c0,1.9-1.7,3.2-3.7,3.2c-1.5,0-2.7-1-2.7-2.5c0-1.1,0.7-1.9,1.8-1.9c1,0,1.7,1,1.7,1.9c0,1-0.9,1.7-2,1.8
		c0.4,0.2,0.9,0.3,1.4,0.3c1.6,0,3.1-1.2,3.1-2.7c0-0.1,0-0.3,0-0.5l-0.6-2.8C183,75.4,182.5,75.5,181.8,75.5z M180.2,71.6
		c0,0.8,0.4,1.4,1.2,1.9c-1.3-0.2-2.2-1.1-2.2-2.3c0-1.5,1.3-2.8,2.9-3.1l-0.6-3c-2.8,2.1-4.3,4.1-4.3,6.1c0,2.2,2.1,4,4.5,4
		c0.7,0,1.3-0.1,1.8-0.4l-1.1-5.1C181.1,69.8,180.2,70.6,180.2,71.6z M183.2,55.6c-1.2,0-2.2,2.8-2.2,5.3c0,0.5,0,1,0.1,1.4
		c2-1.8,3-3.4,3-4.8c0-0.7-0.3-1.3-0.7-1.8C183.4,55.6,183.3,55.6,183.2,55.6z M185.3,72c0-1.2-0.9-2.4-2.2-2.4c0,0-0.2,0-0.4,0
		l1.1,5C184.7,73.9,185.3,73,185.3,72z"/>
</g>
<g>
	<path d="M365.6,68.9c2.2-2,3.6-4.6,3.6-6.9c0-1.9-1.1-3.3-2.8-3.3c-1.2,0-2.5,1-2.5,2.1c0,0.2,0,0.2,0.1,0.2c0,0,0.4-0.5,1-0.5
		c0.7,0,1.2,0.6,1.2,1.3c0,0.9-0.6,1.7-1.6,1.7s-1.5-1-1.5-2.1c0-1.8,1.7-3.1,3.6-3.1c3.5,0,4.4,2.4,4.4,4.4c0,1.2-0.3,2.2-1.5,4
		c-1.4,2.3-4.8,4-6,4c-0.3,0-0.5-0.1-0.5-0.3C364.2,69.9,365,69.4,365.6,68.9z M373.1,59.4c0.4,0,0.7,0.3,0.7,0.7
		c0,0.4-0.3,0.7-0.7,0.7c-0.4,0-0.7-0.3-0.7-0.7C372.4,59.7,372.7,59.4,373.1,59.4z M373.1,63.1c0.4,0,0.7,0.3,0.7,0.7
		s-0.3,0.7-0.7,0.7c-0.4,0-0.7-0.3-0.7-0.7S372.7,63.1,373.1,63.1z"/>
</g>
<rect x="71.3" y="5" width="0.5" height="26.5"/>
<g>
	<path d="M64.9,33.1c0-1.8,2.5-3.5,4.5-3.5c1.3,0,2.3,0.7,2.3,1.7c0,1.7-2.5,3.5-4.6,3.5C65.9,34.8,64.9,34.2,64.9,33.1z"/>
</g>
<g>
	<path d="M64.9,28.1c0-1.8,2.5-3.5,4.5-3.5c1.3,0,2.3,0.7,2.3,1.7c0,1.7-2.5,3.5-4.6,3.5C65.9,29.9,64.9,29.2,64.9,28.1z"/>
</g>
<g>
	<path d="M64.9,23.2c0-1.8,2.5-3.5,4.5-3.5c1.3,0,2.3,0.7,2.3,1.7c0,1.7-2.5,3.5-4.6,3.5C65.9,24.9,64.9,24.3,64.9,23.2z"/>
</g>
<rect x="133.8" width="0.5" height="26.5"/>
<g>
	<path d="M127.4,28.1c0-1.8,2.5-3.5,4.5-3.5c1.3,0,2.3,0.7,2.3,1.7c0,1.7-2.5,3.5-4.6,3.5C128.3,29.9,127.4,29.2,127.4,28.1z"/>
</g>
<g>
	<path d="M127.4,23.2c0-1.8,2.5-3.5,4.5-3.5c1.3,0,2.3,0.7,2.3,1.7c0,1.7-2.5,3.5-4.6,3.5C128.3,24.9,127.4,24.3,127.4,23.2z"/>
</g>
<g>
	<path d="M127.4,15.7c0-1.8,2.5-3.5,4.5-3.5c1.3,0,2.3,0.7,2.3,1.7c0,1.7-2.5,3.5-4.6,3.5C128.3,17.5,127.4,16.8,127.4,15.7z"/>
</g>
<rect x="189.6" y="10.7" width="0.5" height="27.7"/>
<g>
	<path d="M189.7,10.8c0-1.8,2.5-3.5,4.5-3.5c1.3,0,2.3,0.7,2.3,1.7c0,1.7-2.5,3.5-4.6,3.5C190.6,12.5,189.7,11.9,189.7,10.8z"/>
</g>
<g>
	<path d="M189.7,15.7c0-1.8,2.5-3.5,4.5-3.5c1.3,0,2.3,0.7,2.3,1.7c0,1.7-2.5,3.5-4.6,3.5C190.6,17.5,189.7,16.8,189.7,15.7z"/>
</g>
<g>
	<path d="M189.7,23.2c0-1.8,2.5-3.5,4.5-3.5c1.3,0,2.3,0.7,2.3,1.7c0,1.7-2.5,3.5-4.6,3.5C190.6,24.9,189.7,24.3,189.7,23.2z"/>
</g>
<rect x="250.3" y="4.6" width="10.5" height="0.8"/>
<rect x="252.1" y="5.7" width="0.5" height="26.5"/>
<g>
	<path d="M252.1,5.8c0-1.8,2.5-3.5,4.5-3.5c1.3,0,2.3,0.7,2.3,1.7c0,1.7-2.5,3.5-4.6,3.5C253.1,7.5,252.1,6.9,252.1,5.8z"/>
</g>
<g>
	<path d="M252.1,10.8c0-1.8,2.5-3.5,4.5-3.5c1.3,0,2.3,0.7,2.3,1.7c0,1.7-2.5,3.5-4.6,3.5C253.1,12.5,252.1,11.9,252.1,10.8z"/>
</g>
<g>
	<path d="M252.1,15.7c0-1.8,2.5-3.5,4.5-3.5c1.3,0,2.3,0.7,2.3,1.7c0,1.7-2.5,3.5-4.6,3.5C253.1,17.5,252.1,16.8,252.1,15.7z"/>
</g>
<rect x="314.5" y="10.7" width="0.5" height="27.7"/>
<g>
	<path d="M314.6,10.8c0-1.8,2.5-3.5,4.5-3.5c1.3,0,2.3,0.7,2.3,1.7c0,1.7-2.5,3.5-4.6,3.5C315.6,12.5,314.6,11.9,314.6,10.8z"/>
</g>
<g>
	<path d="M314.6,15.7c0-1.8,2.5-3.5,4.5-3.5c1.3,0,2.3,0.7,2.3,1.7c0,1.7-2.5,3.5-4.6,3.5C315.6,17.5,314.6,16.8,314.6,15.7z"/>
</g>
<g>
	<path d="M314.6,23.2c0-1.8,2.5-3.5,4.5-3.5c1.3,0,2.3,0.7,2.3,1.7c0,1.7-2.5,3.5-4.6,3.5C315.6,24.9,314.6,24.3,314.6,23.2z"/>
</g>
<rect x="383.4" width="0.5" height="26.5"/>
<g>
	<path d="M376.9,28.1c0-1.8,2.5-3.5,4.5-3.5c1.3,0,2.3,0.7,2.3,1.7c0,1.7-2.5,3.5-4.6,3.5C377.9,29.9,376.9,29.2,376.9,28.1z"/>
</g>
<g>
	<path d="M376.9,23.2c0-1.8,2.5-3.5,4.5-3.5c1.3,0,2.3,0.7,2.3,1.7c0,1.7-2.5,3.5-4.6,3.5C377.9,24.9,376.9,24.3,376.9,23.2z"/>
</g>
<g>
	<path d="M376.9,15.7c0-1.8,2.5-3.5,4.5-3.5c1.3,0,2.3,0.7,2.3,1.7c0,1.7-2.5,3.5-4.6,3.5C377.9,17.5,376.9,16.8,376.9,15.7z"/>
</g>
<rect x="446" y="5" width="0.5" height="26.5"/>
<g>
	<path d="M443.7,29.5c1.6,0,2.7,0.7,2.7,2c0,1.9-2.3,3.4-4.5,3.4c-1.3,0-2.4-0.7-2.4-1.8C439.4,31.3,441.6,29.5,443.7,29.5z
		 M439.9,33.4c0,0.6,0.4,0.9,1.1,0.9c1.4,0,4.9-2.1,4.9-3.3c0-0.6-0.4-0.9-1.1-0.9C443.5,30.1,439.9,32.2,439.9,33.4z"/>
</g>
<g>
	<path d="M443.7,24.6c1.6,0,2.7,0.7,2.7,2c0,1.9-2.3,3.4-4.5,3.4c-1.3,0-2.4-0.7-2.4-1.8C439.4,26.4,441.6,24.6,443.7,24.6z
		 M439.9,28.4c0,0.6,0.4,0.9,1.1,0.9c1.4,0,4.9-2.1,4.9-3.3c0-0.6-0.4-0.9-1.1-0.9C443.5,25.2,439.9,27.2,439.9,28.4z"/>
</g>
<g>
	<path d="M443.7,19.6c1.6,0,2.7,0.7,2.7,2c0,1.9-2.3,3.4-4.5,3.4c-1.3,0-2.4-0.7-2.4-1.8C439.4,21.4,441.6,19.6,443.7,19.6z
		 M439.9,23.5c0,0.6,0.4,0.9,1.1,0.9c1.4,0,4.9-2.1,4.9-3.3c0-0.6-0.4-0.9-1.1-0.9C443.5,20.2,439.9,22.2,439.9,23.5z"/>
</g>
<rect x="64.8" y="57.8" width="0.5" height="26.5"/>
<g>
	<path d="M64.9,57.9c0-1.8,2.5-3.5,4.5-3.5c1.3,0,2.3,0.7,2.3,1.7c0,1.7-2.5,3.5-4.6,3.5C65.9,59.6,64.9,59,64.9,57.9z"/>
</g>
<g>
	<path d="M64.9,62.9c0-1.8,2.5-3.5,4.5-3.5c1.3,0,2.3,0.7,2.3,1.7c0,1.7-2.5,3.5-4.6,3.5C65.9,64.6,64.9,63.9,64.9,62.9z"/>
</g>
<g>
	<path d="M64.9,67.8c0-1.8,2.5-3.5,4.5-3.5c1.3,0,2.3,0.7,2.3,1.7c0,1.7-2.5,3.5-4.6,3.5C65.9,69.5,64.9,68.9,64.9,67.8z"/>
</g>
<rect x="125.5" y="51.7" width="10.5" height="0.8"/>
<rect x="127.3" y="50.4" width="0.5" height="29"/>
<g>
	<path d="M127.4,50.5c0-1.8,2.5-3.5,4.5-3.5c1.3,0,2.3,0.7,2.3,1.7c0,1.7-2.5,3.5-4.6,3.5C128.3,52.2,127.4,51.5,127.4,50.5z"/>
</g>
<g>
	<path d="M127.4,57.9c0-1.8,2.5-3.5,4.5-3.5c1.3,0,2.3,0.7,2.3,1.7c0,1.7-2.5,3.5-4.6,3.5C128.3,59.6,127.4,59,127.4,57.9z"/>
</g>
<g>
	<path d="M127.4,62.9c0-1.8,2.5-3.5,4.5-3.5c1.3,0,2.3,0.7,2.3,1.7c0,1.7-2.5,3.5-4.6,3.5C128.3,64.6,127.4,63.9,127.4,62.9z"/>
</g>
<rect x="187.8" y="81.5" width="10.5" height="0.8"/>
<rect x="187.8" y="86.4" width="10.5" height="0.8"/>
<rect x="196.1" y="57" width="0.5" height="29"/>
<g>
	<path d="M189.7,87.7c0-1.8,2.5-3.5,4.5-3.5c1.3,0,2.3,0.7,2.3,1.7c0,1.7-2.5,3.5-4.6,3.5C190.6,89.4,189.7,88.7,189.7,87.7z"/>
</g>
<g>
	<path d="M189.7,80.2c0-1.8,2.5-3.5,4.5-3.5c1.3,0,2.3,0.7,2.3,1.7c0,1.7-2.5,3.5-4.6,3.5C190.6,81.9,189.7,81.3,189.7,80.2z"/>
</g>
<g>
	<path d="M189.7,75.3c0-1.8,2.5-3.5,4.5-3.5c1.3,0,2.3,0.7,2.3,1.7c0,1.7-2.5,3.5-4.6,3.5C190.6,77,189.7,76.3,189.7,75.3z"/>
</g>
<rect x="258.6" y="52.1" width="0.5" height="26.5"/>
<g>
	<path d="M252.1,80.2c0-1.8,2.5-3.5,4.5-3.5c1.3,0,2.3,0.7,2.3,1.7c0,1.7-2.5,3.5-4.6,3.5C253.1,81.9,252.1,81.3,252.1,80.2z"/>
</g>
<g>
	<path d="M252.1,75.3c0-1.8,2.5-3.5,4.5-3.5c1.3,0,2.3,0.7,2.3,1.7c0,1.7-2.5,3.5-4.6,3.5C253.1,77,252.1,76.3,252.1,75.3z"/>
</g>
<g>
	<path d="M252.1,70.3c0-1.8,2.5-3.5,4.5-3.5c1.3,0,2.3,0.7,2.3,1.7c0,1.7-2.5,3.5-4.6,3.5C253.1,72,252.1,71.4,252.1,70.3z"/>
</g>
<rect x="312.8" y="81.5" width="10.5" height="0.8"/>
<rect x="312.8" y="86.4" width="10.5" height="0.8"/>
<rect x="321" y="57" width="0.5" height="29"/>
<g>
	<path d="M314.6,87.7c0-1.8,2.5-3.5,4.5-3.5c1.3,0,2.3,0.7,2.3,1.7c0,1.7-2.5,3.5-4.6,3.5C315.6,89.4,314.6,88.7,314.6,87.7z"/>
</g>
<g>
	<path d="M314.6,80.2c0-1.8,2.5-3.5,4.5-3.5c1.3,0,2.3,0.7,2.3,1.7c0,1.7-2.5,3.5-4.6,3.5C315.6,81.9,314.6,81.3,314.6,80.2z"/>
</g>
<g>
	<path d="M314.6,75.3c0-1.8,2.5-3.5,4.5-3.5c1.3,0,2.3,0.7,2.3,1.7c0,1.7-2.5,3.5-4.6,3.5C315.6,77,314.6,76.3,314.6,75.3z"/>
</g>
<rect x="375.1" y="51.7" width="10.5" height="0.8"/>
<rect x="376.9" y="50.4" width="0.5" height="29"/>
<g>
	<path d="M376.9,50.5c0-1.8,2.5-3.5,4.5-3.5c1.3,0,2.3,0.7,2.3,1.7c0,1.7-2.5,3.5-4.6,3.5C377.9,52.2,376.9,51.5,376.9,50.5z"/>
</g>
<g>
	<path d="M376.9,57.9c0-1.8,2.5-3.5,4.5-3.5c1.3,0,2.3,0.7,2.3,1.7c0,1.7-2.5,3.5-4.6,3.5C377.9,59.6,376.9,59,376.9,57.9z"/>
</g>
<g>
	<path d="M376.9,62.9c0-1.8,2.5-3.5,4.5-3.5c1.3,0,2.3,0.7,2.3,1.7c0,1.7-2.5,3.5-4.6,3.5C377.9,64.6,376.9,63.9,376.9,62.9z"/>
</g>
<rect x="439.3" y="57.8" width="0.5" height="26.5"/>
<g>
	<path d="M443.7,54.3c1.6,0,2.7,0.7,2.7,2c0,1.9-2.3,3.4-4.5,3.4c-1.3,0-2.4-0.7-2.4-1.8C439.4,56.1,441.6,54.3,443.7,54.3z
		 M439.9,58.2c0,0.6,0.4,0.9,1.1,0.9c1.4,0,4.9-2.1,4.9-3.3c0-0.6-0.4-0.9-1.1-0.9C443.5,54.9,439.9,57,439.9,58.2z"/>
</g>
<g>
	<path d="M443.7,59.3c1.6,0,2.7,0.7,2.7,2c0,1.9-2.3,3.4-4.5,3.4c-1.3,0-2.4-0.7-2.4-1.8C439.4,61.1,441.6,59.3,443.7,59.3z
		 M439.9,63.2c0,0.6,0.4,0.9,1.1,0.9c1.4,0,4.9-2.1,4.9-3.3c0-0.6-0.4-0.9-1.1-0.9C443.5,59.9,439.9,61.9,439.9,63.2z"/>
</g>
<g>
	<path d="M443.7,64.3c1.6,0,2.7,0.7,2.7,2c0,1.9-2.3,3.4-4.5,3.4c-1.3,0-2.4-0.7-2.4-1.8C439.4,66.1,441.6,64.3,443.7,64.3z
		 M439.9,68.1c0,0.6,0.4,0.9,1.1,0.9c1.4,0,4.9-2.1,4.9-3.3c0-0.6-0.4-0.9-1.1-0.9C443.5,64.9,439.9,66.9,439.9,68.1z"/>
</g>
</svg>
