<?xml version="1.0" encoding="utf-8"?>

<!--
	ScaleBook
	Copyright (c) Leland Jansen 2015. All rights reserved.
-->

<!DOCTYPE svg PUBLIC "-//W3C//DTD SVG 1.1//EN" "http://www.w3.org/Graphics/SVG/1.1/DTD/svg11.dtd">
<svg version="1.1" id="Layer_1" xmlns="http://www.w3.org/2000/svg" xmlns:xlink="http://www.w3.org/1999/xlink" x="0px" y="0px"
	 viewBox="0 0 552.9 89.4" enable-background="new 0 0 552.9 89.4" xml:space="preserve">
<rect x="8.4" y="9.9" width="0.8" height="67"/>
<g>
	<path d="M7.4,10.6c-1.9,1.1-3.6,5.8-3.6,9.4c0,2.3,1.4,9.9,1.4,12.3c0,5-1.5,8.6-4.6,11.1c3,2.4,4.6,6.1,4.6,11
		c0,2.3-1.4,9.9-1.4,12.3c0,3.8,1.7,8.4,3.6,9.5v0.7c-3.5-2.3-5.8-8.2-5.8-13.1c0-2.1,1.7-9.4,1.7-11.5c0-3.8-1-6.6-2.9-8.2
		C0.1,43.8,0,43.6,0,43.4s0.1-0.4,0.5-0.7c1.9-1.7,2.9-4.2,2.9-7.6c0-2.1-1.7-10-1.7-12.2c0-5.2,2.1-10.4,5.8-13.1V10.6z"/>
</g>
<rect x="547.8" y="9.9" width="0.8" height="67"/>
<rect x="550.4" y="9.9" width="2.5" height="67"/>
<rect x="8.5" y="29.5" width="544.4" height="0.5"/>
<rect x="8.5" y="24.6" width="544.4" height="0.5"/>
<rect x="8.5" y="19.6" width="544.4" height="0.5"/>
<rect x="8.5" y="14.6" width="544.4" height="0.5"/>
<rect x="8.5" y="9.7" width="544.4" height="0.5"/>
<g>
	<path d="M20.3,29.6c-4.2,0-8.1-3.1-8.1-6.9c0-3.2,2.3-6.7,6.8-10.5c-0.3-1.2-0.4-2.4-0.4-3.6c0-3.5,1.2-6.8,3.2-8.5
		c1.8,2.5,2.7,4.9,2.7,7.1c0,2.9-1.3,5.6-4.3,8.1l0.9,4.2c0.5,0,0.8-0.1,0.8-0.1c2.6,0,4.8,2,4.8,4.7c0,1.9-1.4,3.7-3.6,4.8
		c0-0.1,0.9,3.8,0.9,4.3c0,2.5-2.3,4.2-4.9,4.2c-2,0-3.6-1.3-3.6-3.4c0-1.4,1-2.6,2.4-2.6c1.3,0,2.3,1.3,2.3,2.5
		c0,1.4-1.2,2.3-2.7,2.5c0.6,0.3,1.2,0.5,1.9,0.5c2.1,0,4.1-1.6,4.1-3.6c0-0.2,0-0.4-0.1-0.6l-0.8-3.7
		C21.9,29.5,21.2,29.6,20.3,29.6z M18.1,24.4c0,1,0.5,1.9,1.6,2.5c-1.8-0.3-3-1.4-3-3.1c0-2,1.7-3.7,3.8-4.1l-0.8-4
		C16,18.5,14,21.2,14,23.8c0,2.9,2.8,5.3,6,5.3c0.9,0,1.7-0.2,2.4-0.5L21,21.8C19.4,22,18.1,23,18.1,24.4z M22.1,3
		c-1.6,0-2.9,3.7-2.9,7c0,0.7,0,1.3,0.2,1.9c2.7-2.4,4-4.5,4-6.5c0-0.9-0.3-1.7-1-2.4C22.4,3.1,22.3,3,22.1,3z M24.9,24.9
		c0-1.6-1.2-3.3-2.9-3.3c-0.1,0-0.2,0-0.5,0l1.4,6.6C24.2,27.4,24.9,26.2,24.9,24.9z"/>
</g>
<g>
	<path d="M33.5,3.1v2.8l1-0.3v1.8l-1,0.3v3.4l1-0.3v1.8l-1,0.3v3.1H33v-3l-1.9,0.6v3h-0.5v-2.8l-1,0.3v-1.8l1-0.3V8.7l-1,0.3V7.2
		l1-0.3V3.7h0.5v3L33,6.1v-3H33.5z M33,7.9l-1.9,0.6v3.4l1.9-0.6V7.9z"/>
</g>
<g>
	<path d="M39.7,10.5v2.8l1-0.3v1.8l-1,0.3v3.4l1-0.3v1.8l-1,0.3v3.1h-0.5v-3l-1.9,0.6v3h-0.5v-2.8l-1,0.3v-1.8l1-0.3v-3.4l-1,0.3
		v-1.8l1-0.3v-3.1h0.5v3l1.9-0.6v-3H39.7z M39.2,15.3L37.3,16v3.4l1.9-0.6V15.3z"/>
</g>
<rect x="8.5" y="76.7" width="544.4" height="0.5"/>
<rect x="8.5" y="71.7" width="544.4" height="0.5"/>
<rect x="8.5" y="66.7" width="544.4" height="0.5"/>
<rect x="8.5" y="61.8" width="544.4" height="0.5"/>
<rect x="8.5" y="56.8" width="544.4" height="0.5"/>
<g>
	<path d="M15.7,71.2c2.9-2.6,4.7-6.1,4.7-9.2c0-2.5-1.4-4.4-3.7-4.4c-1.6,0-3.4,1.3-3.4,2.7c0,0.2,0,0.3,0.1,0.3
		c-0.1,0,0.6-0.6,1.4-0.6c0.9,0,1.5,0.8,1.5,1.7c0,1.2-0.9,2.2-2.1,2.2c-1.2,0-2.1-1.3-2.1-2.8c0-2.3,2.3-4.1,4.8-4.1
		c4.7,0,5.9,3.2,5.9,5.8c0,1.6-0.4,2.9-2,5.3c-1.9,3.1-6.4,5.3-8.1,5.3c-0.4,0-0.6-0.2-0.6-0.5C13.8,72.5,14.9,71.9,15.7,71.2z
		 M25.7,58.5c0.6,0,1,0.4,1,1s-0.4,1-1,1s-1-0.4-1-1S25.1,58.5,25.7,58.5z M25.7,63.5c0.6,0,1,0.4,1,1s-0.4,1-1,1s-1-0.4-1-1
		S25.1,63.5,25.7,63.5z"/>
</g>
<g>
	<path d="M33.5,55.2V58l1-0.3v1.8l-1,0.3v3.4l1-0.3v1.8l-1,0.3v3.1H33v-3l-1.9,0.6v3h-0.5V66l-1,0.3v-1.8l1-0.3v-3.4l-1,0.3v-1.8
		l1-0.3v-3.1h0.5v3l1.9-0.6v-3H33.5z M33,60l-1.9,0.6V64l1.9-0.6V60z"/>
</g>
<g>
	<path d="M39.7,62.6v2.8l1-0.3v1.8l-1,0.3v3.4l1-0.3v1.8l-1,0.3v3.1h-0.5v-3l-1.9,0.6v3h-0.5v-2.8l-1,0.3v-1.8l1-0.3v-3.4l-1,0.3
		v-1.8l1-0.3v-3.1h0.5v3l1.9-0.6v-3H39.7z M39.2,67.4L37.3,68v3.4l1.9-0.6V67.4z"/>
</g>
<g>
	<path d="M170.3,75.5c-3.2,0-6.1-2.3-6.1-5.1c0-2.4,1.7-5,5.1-7.9c-0.2-0.9-0.3-1.8-0.3-2.7c0-2.6,0.9-5.1,2.4-6.3
		c1.4,1.9,2,3.7,2,5.3c0,2.2-1,4.2-3.2,6.1l0.7,3.1c0.4,0,0.6,0,0.6,0c2,0,3.6,1.5,3.6,3.5c0,1.4-1.1,2.8-2.7,3.6
		c0-0.1,0.6,2.8,0.6,3.3c0,1.9-1.7,3.2-3.7,3.2c-1.5,0-2.7-1-2.7-2.5c0-1.1,0.7-1.9,1.8-1.9c1,0,1.7,1,1.7,1.9c0,1-0.9,1.7-2,1.8
		c0.4,0.2,0.9,0.3,1.4,0.3c1.6,0,3.1-1.2,3.1-2.7c0-0.1,0-0.3,0-0.5l-0.6-2.8C171.6,75.4,171,75.5,170.3,75.5z M168.7,71.6
		c0,0.8,0.4,1.4,1.2,1.9c-1.3-0.2-2.2-1.1-2.2-2.3c0-1.5,1.3-2.8,2.9-3.1l-0.6-3c-2.8,2.1-4.3,4.1-4.3,6.1c0,2.2,2.1,4,4.5,4
		c0.7,0,1.3-0.1,1.8-0.4l-1.1-5.1C169.6,69.8,168.7,70.6,168.7,71.6z M171.7,55.6c-1.2,0-2.2,2.8-2.2,5.3c0,0.5,0,1,0.1,1.4
		c2-1.8,3-3.4,3-4.8c0-0.7-0.3-1.3-0.7-1.8C171.9,55.6,171.8,55.6,171.7,55.6z M173.8,72c0-1.2-0.9-2.4-2.2-2.4c0,0-0.2,0-0.4,0
		l1.1,5C173.3,73.9,173.8,73,173.8,72z"/>
</g>
<g>
	<path d="M360.2,68.9c2.2-2,3.6-4.6,3.6-6.9c0-1.9-1.1-3.3-2.8-3.3c-1.2,0-2.5,1-2.5,2.1c0,0.2,0,0.2,0.1,0.2c0,0,0.4-0.5,1-0.5
		c0.7,0,1.2,0.6,1.2,1.3c0,0.9-0.6,1.7-1.6,1.7s-1.5-1-1.5-2.1c0-1.8,1.7-3.1,3.6-3.1c3.5,0,4.4,2.4,4.4,4.4c0,1.2-0.3,2.2-1.5,4
		c-1.4,2.3-4.8,4-6,4c-0.3,0-0.5-0.1-0.5-0.3C358.8,69.9,359.6,69.4,360.2,68.9z M367.7,59.4c0.4,0,0.7,0.3,0.7,0.7
		c0,0.4-0.3,0.7-0.7,0.7c-0.4,0-0.7-0.3-0.7-0.7C366.9,59.7,367.3,59.4,367.7,59.4z M367.7,63.1c0.4,0,0.7,0.3,0.7,0.7
		s-0.3,0.7-0.7,0.7c-0.4,0-0.7-0.3-0.7-0.7S367.3,63.1,367.7,63.1z"/>
</g>
<rect x="55.8" y="5" width="0.5" height="26.5"/>
<g>
	<path d="M49.4,33.1c0-1.8,2.5-3.5,4.5-3.5c1.3,0,2.3,0.7,2.3,1.7c0,1.7-2.5,3.5-4.6,3.5C50.4,34.8,49.4,34.2,49.4,33.1z"/>
</g>
<g>
	<path d="M49.4,28.1c0-1.8,2.5-3.5,4.5-3.5c1.3,0,2.3,0.7,2.3,1.7c0,1.7-2.5,3.5-4.6,3.5C50.4,29.9,49.4,29.2,49.4,28.1z"/>
</g>
<g>
	<path d="M49.4,23.2c0-1.8,2.5-3.5,4.5-3.5c1.3,0,2.3,0.7,2.3,1.7c0,1.7-2.5,3.5-4.6,3.5C50.4,24.9,49.4,24.3,49.4,23.2z"/>
</g>
<rect x="120.3" width="0.5" height="26.5"/>
<g>
	<path d="M113.9,28.1c0-1.8,2.5-3.5,4.5-3.5c1.3,0,2.3,0.7,2.3,1.7c0,1.7-2.5,3.5-4.6,3.5C114.8,29.9,113.9,29.2,113.9,28.1z"/>
</g>
<g>
	<path d="M113.9,23.2c0-1.8,2.5-3.5,4.5-3.5c1.3,0,2.3,0.7,2.3,1.7c0,1.7-2.5,3.5-4.6,3.5C114.8,24.9,113.9,24.3,113.9,23.2z"/>
</g>
<g>
	<path d="M113.9,15.7c0-1.8,2.5-3.5,4.5-3.5c1.3,0,2.3,0.7,2.3,1.7c0,1.7-2.5,3.5-4.6,3.5C114.8,17.5,113.9,16.8,113.9,15.7z"/>
</g>
<rect x="178.1" y="10.7" width="0.5" height="27.7"/>
<g>
	<path d="M178.2,10.8c0-1.8,2.5-3.5,4.5-3.5c1.3,0,2.3,0.7,2.3,1.7c0,1.7-2.5,3.5-4.6,3.5C179.2,12.5,178.2,11.9,178.2,10.8z"/>
</g>
<g>
	<path d="M178.2,15.7c0-1.8,2.5-3.5,4.5-3.5c1.3,0,2.3,0.7,2.3,1.7c0,1.7-2.5,3.5-4.6,3.5C179.2,17.5,178.2,16.8,178.2,15.7z"/>
</g>
<g>
	<path d="M178.2,23.2c0-1.8,2.5-3.5,4.5-3.5c1.3,0,2.3,0.7,2.3,1.7c0,1.7-2.5,3.5-4.6,3.5C179.2,24.9,178.2,24.3,178.2,23.2z"/>
</g>
<rect x="240.8" y="4.6" width="10.5" height="0.8"/>
<rect x="242.6" y="5.7" width="0.5" height="26.5"/>
<g>
	<path d="M242.7,5.8c0-1.8,2.5-3.5,4.5-3.5c1.3,0,2.3,0.7,2.3,1.7c0,1.7-2.5,3.5-4.6,3.5C243.7,7.5,242.7,6.9,242.7,5.8z"/>
</g>
<g>
	<path d="M242.7,10.8c0-1.8,2.5-3.5,4.5-3.5c1.3,0,2.3,0.7,2.3,1.7c0,1.7-2.5,3.5-4.6,3.5C243.7,12.5,242.7,11.9,242.7,10.8z"/>
</g>
<g>
	<path d="M242.7,15.7c0-1.8,2.5-3.5,4.5-3.5c1.3,0,2.3,0.7,2.3,1.7c0,1.7-2.5,3.5-4.6,3.5C243.7,17.5,242.7,16.8,242.7,15.7z"/>
</g>
<rect x="307.1" y="10.7" width="0.5" height="27.7"/>
<g>
	<path d="M307.2,10.8c0-1.8,2.5-3.5,4.5-3.5C313,7.3,314,8,314,9c0,1.7-2.5,3.5-4.6,3.5C308.1,12.5,307.2,11.9,307.2,10.8z"/>
</g>
<g>
	<path d="M307.2,15.7c0-1.8,2.5-3.5,4.5-3.5c1.3,0,2.3,0.7,2.3,1.7c0,1.7-2.5,3.5-4.6,3.5C308.1,17.5,307.2,16.8,307.2,15.7z"/>
</g>
<g>
	<path d="M307.2,23.2c0-1.8,2.5-3.5,4.5-3.5c1.3,0,2.3,0.7,2.3,1.7c0,1.7-2.5,3.5-4.6,3.5C308.1,24.9,307.2,24.3,307.2,23.2z"/>
</g>
<rect x="377.9" width="0.5" height="26.5"/>
<g>
	<path d="M371.5,28.1c0-1.8,2.5-3.5,4.5-3.5c1.3,0,2.3,0.7,2.3,1.7c0,1.7-2.5,3.5-4.6,3.5C372.5,29.9,371.5,29.2,371.5,28.1z"/>
</g>
<g>
	<path d="M371.5,23.2c0-1.8,2.5-3.5,4.5-3.5c1.3,0,2.3,0.7,2.3,1.7c0,1.7-2.5,3.5-4.6,3.5C372.5,24.9,371.5,24.3,371.5,23.2z"/>
</g>
<g>
	<path d="M371.5,15.7c0-1.8,2.5-3.5,4.5-3.5c1.3,0,2.3,0.7,2.3,1.7c0,1.7-2.5,3.5-4.6,3.5C372.5,17.5,371.5,16.8,371.5,15.7z"/>
</g>
<rect x="442.6" y="5" width="0.5" height="26.5"/>
<g>
	<path d="M440.3,29.5c1.6,0,2.7,0.7,2.7,2c0,1.9-2.3,3.4-4.5,3.4c-1.3,0-2.4-0.7-2.4-1.8C436,31.3,438.2,29.5,440.3,29.5z
		 M436.4,33.4c0,0.6,0.4,0.9,1.1,0.9c1.4,0,4.9-2.1,4.9-3.3c0-0.6-0.4-0.9-1.1-0.9C440.1,30.1,436.4,32.2,436.4,33.4z"/>
</g>
<g>
	<path d="M440.3,24.6c1.6,0,2.7,0.7,2.7,2c0,1.9-2.3,3.4-4.5,3.4c-1.3,0-2.4-0.7-2.4-1.8C436,26.4,438.2,24.6,440.3,24.6z
		 M436.4,28.4c0,0.6,0.4,0.9,1.1,0.9c1.4,0,4.9-2.1,4.9-3.3c0-0.6-0.4-0.9-1.1-0.9C440.1,25.2,436.4,27.2,436.4,28.4z"/>
</g>
<g>
	<path d="M440.3,19.6c1.6,0,2.7,0.7,2.7,2c0,1.9-2.3,3.4-4.5,3.4c-1.3,0-2.4-0.7-2.4-1.8C436,21.4,438.2,19.6,440.3,19.6z
		 M436.4,23.5c0,0.6,0.4,0.9,1.1,0.9c1.4,0,4.9-2.1,4.9-3.3c0-0.6-0.4-0.9-1.1-0.9C440.1,20.2,436.4,22.2,436.4,23.5z"/>
</g>
<rect x="49.3" y="57.8" width="0.5" height="26.5"/>
<g>
	<path d="M49.4,57.9c0-1.8,2.5-3.5,4.5-3.5c1.3,0,2.3,0.7,2.3,1.7c0,1.7-2.5,3.5-4.6,3.5C50.4,59.6,49.4,59,49.4,57.9z"/>
</g>
<g>
	<path d="M49.4,62.9c0-1.8,2.5-3.5,4.5-3.5c1.3,0,2.3,0.7,2.3,1.7c0,1.7-2.5,3.5-4.6,3.5C50.4,64.6,49.4,63.9,49.4,62.9z"/>
</g>
<g>
	<path d="M49.4,67.8c0-1.8,2.5-3.5,4.5-3.5c1.3,0,2.3,0.7,2.3,1.7c0,1.7-2.5,3.5-4.6,3.5C50.4,69.5,49.4,68.9,49.4,67.8z"/>
</g>
<rect x="112" y="51.7" width="10.5" height="0.8"/>
<rect x="113.8" y="50.4" width="0.5" height="29"/>
<g>
	<path d="M113.9,50.5c0-1.8,2.5-3.5,4.5-3.5c1.3,0,2.3,0.7,2.3,1.7c0,1.7-2.5,3.5-4.6,3.5C114.8,52.2,113.9,51.5,113.9,50.5z"/>
</g>
<g>
	<path d="M113.9,57.9c0-1.8,2.5-3.5,4.5-3.5c1.3,0,2.3,0.7,2.3,1.7c0,1.7-2.5,3.5-4.6,3.5C114.8,59.6,113.9,59,113.9,57.9z"/>
</g>
<g>
	<path d="M113.9,62.9c0-1.8,2.5-3.5,4.5-3.5c1.3,0,2.3,0.7,2.3,1.7c0,1.7-2.5,3.5-4.6,3.5C114.8,64.6,113.9,63.9,113.9,62.9z"/>
</g>
<rect x="176.3" y="81.5" width="10.5" height="0.8"/>
<rect x="176.3" y="86.4" width="10.5" height="0.8"/>
<rect x="184.6" y="57" width="0.5" height="29"/>
<g>
	<path d="M178.2,87.7c0-1.8,2.5-3.5,4.5-3.5c1.3,0,2.3,0.7,2.3,1.7c0,1.7-2.5,3.5-4.6,3.5C179.2,89.4,178.2,88.7,178.2,87.7z"/>
</g>
<g>
	<path d="M178.2,80.2c0-1.8,2.5-3.5,4.5-3.5c1.3,0,2.3,0.7,2.3,1.7c0,1.7-2.5,3.5-4.6,3.5C179.2,81.9,178.2,81.3,178.2,80.2z"/>
</g>
<g>
	<path d="M178.2,75.3c0-1.8,2.5-3.5,4.5-3.5c1.3,0,2.3,0.7,2.3,1.7c0,1.7-2.5,3.5-4.6,3.5C179.2,77,178.2,76.3,178.2,75.3z"/>
</g>
<rect x="249.1" y="52.1" width="0.5" height="26.5"/>
<g>
	<path d="M242.7,80.2c0-1.8,2.5-3.5,4.5-3.5c1.3,0,2.3,0.7,2.3,1.7c0,1.7-2.5,3.5-4.6,3.5C243.7,81.9,242.7,81.3,242.7,80.2z"/>
</g>
<g>
	<path d="M242.7,75.3c0-1.8,2.5-3.5,4.5-3.5c1.3,0,2.3,0.7,2.3,1.7c0,1.7-2.5,3.5-4.6,3.5C243.7,77,242.7,76.3,242.7,75.3z"/>
</g>
<g>
	<path d="M242.7,70.3c0-1.8,2.5-3.5,4.5-3.5c1.3,0,2.3,0.7,2.3,1.7c0,1.7-2.5,3.5-4.6,3.5C243.7,72,242.7,71.4,242.7,70.3z"/>
</g>
<rect x="305.3" y="81.5" width="10.5" height="0.8"/>
<rect x="305.3" y="86.4" width="10.5" height="0.8"/>
<rect x="313.6" y="57" width="0.5" height="29"/>
<g>
	<path d="M307.2,87.7c0-1.8,2.5-3.5,4.5-3.5c1.3,0,2.3,0.7,2.3,1.7c0,1.7-2.5,3.5-4.6,3.5C308.1,89.4,307.2,88.7,307.2,87.7z"/>
</g>
<g>
	<path d="M307.2,80.2c0-1.8,2.5-3.5,4.5-3.5c1.3,0,2.3,0.7,2.3,1.7c0,1.7-2.5,3.5-4.6,3.5C308.1,81.9,307.2,81.3,307.2,80.2z"/>
</g>
<g>
	<path d="M307.2,75.3c0-1.8,2.5-3.5,4.5-3.5c1.3,0,2.3,0.7,2.3,1.7c0,1.7-2.5,3.5-4.6,3.5C308.1,77,307.2,76.3,307.2,75.3z"/>
</g>
<rect x="369.6" y="51.7" width="10.5" height="0.8"/>
<rect x="371.4" y="50.4" width="0.5" height="29"/>
<g>
	<path d="M371.5,50.5c0-1.8,2.5-3.5,4.5-3.5c1.3,0,2.3,0.7,2.3,1.7c0,1.7-2.5,3.5-4.6,3.5C372.5,52.2,371.5,51.5,371.5,50.5z"/>
</g>
<g>
	<path d="M371.5,57.9c0-1.8,2.5-3.5,4.5-3.5c1.3,0,2.3,0.7,2.3,1.7c0,1.7-2.5,3.5-4.6,3.5C372.5,59.6,371.5,59,371.5,57.9z"/>
</g>
<g>
	<path d="M371.5,62.9c0-1.8,2.5-3.5,4.5-3.5c1.3,0,2.3,0.7,2.3,1.7c0,1.7-2.5,3.5-4.6,3.5C372.5,64.6,371.5,63.9,371.5,62.9z"/>
</g>
<rect x="435.9" y="57.8" width="0.5" height="26.5"/>
<g>
	<path d="M440.3,54.3c1.6,0,2.7,0.7,2.7,2c0,1.9-2.3,3.4-4.5,3.4c-1.3,0-2.4-0.7-2.4-1.8C436,56.1,438.2,54.3,440.3,54.3z
		 M436.4,58.2c0,0.6,0.4,0.9,1.1,0.9c1.4,0,4.9-2.1,4.9-3.3c0-0.6-0.4-0.9-1.1-0.9C440.1,54.9,436.4,57,436.4,58.2z"/>
</g>
<g>
	<path d="M440.3,59.3c1.6,0,2.7,0.7,2.7,2c0,1.9-2.3,3.4-4.5,3.4c-1.3,0-2.4-0.7-2.4-1.8C436,61.1,438.2,59.3,440.3,59.3z
		 M436.4,63.2c0,0.6,0.4,0.9,1.1,0.9c1.4,0,4.9-2.1,4.9-3.3c0-0.6-0.4-0.9-1.1-0.9C440.1,59.9,436.4,61.9,436.4,63.2z"/>
</g>
<g>
	<path d="M440.3,64.3c1.6,0,2.7,0.7,2.7,2c0,1.9-2.3,3.4-4.5,3.4c-1.3,0-2.4-0.7-2.4-1.8C436,66.1,438.2,64.3,440.3,64.3z
		 M436.4,68.1c0,0.6,0.4,0.9,1.1,0.9c1.4,0,4.9-2.1,4.9-3.3c0-0.6-0.4-0.9-1.1-0.9C440.1,64.9,436.4,66.9,436.4,68.1z"/>
</g>
</svg>
