<?xml version="1.0" encoding="utf-8"?>

<!--
	ScaleBook
	Copyright (c) Leland Jansen 2015. All rights reserved.
-->

<!DOCTYPE svg PUBLIC "-//W3C//DTD SVG 1.1//EN" "http://www.w3.org/Graphics/SVG/1.1/DTD/svg11.dtd">
<svg version="1.1" id="Layer_1" xmlns="http://www.w3.org/2000/svg" xmlns:xlink="http://www.w3.org/1999/xlink" x="0px" y="0px"
	 viewBox="0 0 552.9 87.3" enable-background="new 0 0 552.9 87.3" xml:space="preserve">
<rect x="8.4" y="10" width="0.8" height="67.3"/>
<g>
	<path d="M7.4,10.7c-1.9,1.1-3.6,5.8-3.6,9.5c0,2.3,1.4,10,1.4,12.3c0,5-1.5,8.7-4.6,11.2c3,2.4,4.6,6.1,4.6,11.1
		c0,2.3-1.4,10-1.4,12.3c0,3.8,1.7,8.5,3.6,9.6v0.7C3.9,75,1.7,69,1.7,64.2c0-2.2,1.7-9.4,1.7-11.6c0-3.8-1-6.6-2.9-8.3
		C0.1,44.1,0,43.9,0,43.7c0-0.2,0.1-0.4,0.5-0.7c1.9-1.7,2.9-4.2,2.9-7.6c0-2.2-1.7-10.1-1.7-12.2C1.7,18,3.7,12.7,7.4,10V10.7z"/>
</g>
<rect x="547.8" y="10" width="0.8" height="67.3"/>
<rect x="550.4" y="10" width="2.5" height="67.3"/>
<rect x="8.5" y="29.6" width="544.4" height="0.5"/>
<rect x="8.5" y="24.7" width="544.4" height="0.5"/>
<rect x="8.5" y="19.7" width="544.4" height="0.5"/>
<rect x="8.5" y="14.8" width="544.4" height="0.5"/>
<rect x="8.5" y="9.8" width="544.4" height="0.5"/>
<g>
	<path d="M20.3,29.7c-4.2,0-8.1-3.1-8.1-6.9c0-3.2,2.3-6.7,6.8-10.5c-0.3-1.2-0.4-2.4-0.4-3.6c0-3.5,1.2-6.8,3.2-8.5
		c1.8,2.5,2.7,4.9,2.7,7.1c0,2.9-1.3,5.6-4.3,8.1l0.9,4.2c0.5,0,0.8-0.1,0.8-0.1c2.6,0,4.8,2,4.8,4.7c0,1.9-1.4,3.7-3.6,4.8
		c0-0.1,0.9,3.8,0.9,4.3c0,2.5-2.3,4.2-4.9,4.2c-2,0-3.6-1.3-3.6-3.4c0-1.4,1-2.6,2.4-2.6c1.3,0,2.3,1.3,2.3,2.5
		c0,1.4-1.2,2.3-2.7,2.5c0.6,0.3,1.2,0.5,1.9,0.5c2.1,0,4.1-1.6,4.1-3.6c0-0.2,0-0.4-0.1-0.6l-0.8-3.7
		C21.9,29.6,21.2,29.7,20.3,29.7z M18.1,24.5c0,1,0.5,1.9,1.6,2.5c-1.8-0.3-3-1.4-3-3.1c0-2,1.7-3.7,3.8-4.1l-0.8-4
		C16,18.6,14,21.3,14,23.9c0,2.9,2.8,5.3,6,5.3c0.9,0,1.7-0.2,2.4-0.5L21,21.9C19.4,22.1,18.1,23.1,18.1,24.5z M22.1,3.2
		c-1.6,0-2.9,3.7-2.9,7c0,0.7,0,1.3,0.2,1.9c2.7-2.4,4-4.5,4-6.5c0-0.9-0.3-1.7-1-2.4C22.4,3.2,22.3,3.2,22.1,3.2z M24.9,25
		c0-1.6-1.2-3.3-2.9-3.3c-0.1,0-0.2,0-0.5,0l1.4,6.6C24.2,27.5,24.9,26.3,24.9,25z"/>
</g>
<g>
	<path d="M29.5,11.6h0.6L30,17.9c0.4-0.7,1-1,1.8-1c1.2,0,2.2,0.8,2.2,1.9c0,0.8-0.5,1.8-1.7,2.7l-2.8,2.1V11.6z M30.1,18.6
		C30,19.3,30,20,30,20.5c0,1,0,1.6,0.1,2c1-0.7,2.4-2.6,2.4-3.7c0-0.6-0.5-1.1-1.1-1.1C30.8,17.7,30.4,18,30.1,18.6z"/>
</g>
<g>
	<path d="M35.1,4.2h0.6l-0.1,6.2c0.4-0.7,1-1,1.8-1c1.2,0,2.2,0.8,2.2,1.9c0,0.8-0.5,1.8-1.7,2.7l-2.8,2.1V4.2z M35.7,11.1
		c-0.1,0.8-0.1,1.4-0.1,1.9c0,1,0,1.6,0.1,2c1-0.7,2.4-2.6,2.4-3.7c0-0.6-0.5-1.1-1.1-1.1C36.4,10.3,36,10.6,35.7,11.1z"/>
</g>
<g>
	<path d="M40.7,14.1h0.6l-0.1,6.2c0.4-0.7,1-1,1.8-1c1.2,0,2.2,0.8,2.2,1.9c0,0.8-0.5,1.8-1.7,2.7l-2.8,2.1V14.1z M41.3,21
		c-0.1,0.8-0.1,1.4-0.1,1.9c0,1,0,1.6,0.1,2c1-0.7,2.4-2.6,2.4-3.7c0-0.6-0.5-1.1-1.1-1.1C42,20.2,41.6,20.5,41.3,21z"/>
</g>
<rect x="8.5" y="77.1" width="544.4" height="0.5"/>
<rect x="8.5" y="72.1" width="544.4" height="0.5"/>
<rect x="8.5" y="67.2" width="544.4" height="0.5"/>
<rect x="8.5" y="62.2" width="544.4" height="0.5"/>
<rect x="8.5" y="57.2" width="544.4" height="0.5"/>
<g>
	<path d="M15.7,71.7c2.9-2.6,4.7-6.1,4.7-9.2c0-2.5-1.4-4.4-3.7-4.4c-1.6,0-3.4,1.3-3.4,2.7c0,0.2,0,0.3,0.1,0.3
		c-0.1,0,0.6-0.6,1.4-0.6c0.9,0,1.5,0.8,1.5,1.7c0,1.2-0.9,2.2-2.1,2.2c-1.2,0-2.1-1.3-2.1-2.8c0-2.3,2.3-4.1,4.8-4.1
		c4.7,0,5.9,3.2,5.9,5.8c0,1.6-0.4,2.9-2,5.3c-1.9,3.1-6.4,5.3-8.1,5.3c-0.4,0-0.6-0.2-0.6-0.5C13.8,72.9,14.9,72.3,15.7,71.7z
		 M25.7,59c0.6,0,1,0.4,1,1s-0.4,1-1,1s-1-0.4-1-1S25.1,59,25.7,59z M25.7,63.9c0.6,0,1,0.4,1,1s-0.4,1-1,1s-1-0.4-1-1
		S25.1,63.9,25.7,63.9z"/>
</g>
<g>
	<path d="M29.5,64h0.6L30,70.3c0.4-0.7,1-1,1.8-1c1.2,0,2.2,0.8,2.2,1.9c0,0.8-0.5,1.8-1.7,2.7L29.5,76V64z M30.1,70.9
		C30,71.7,30,72.4,30,72.9c0,1,0,1.6,0.1,2c1-0.7,2.4-2.6,2.4-3.7c0-0.6-0.5-1.1-1.1-1.1C30.8,70.1,30.4,70.4,30.1,70.9z"/>
</g>
<g>
	<path d="M35.1,56.6h0.6l-0.1,6.2c0.4-0.7,1-1,1.8-1c1.2,0,2.2,0.8,2.2,1.9c0,0.8-0.5,1.8-1.7,2.7l-2.8,2.1V56.6z M35.7,63.5
		c-0.1,0.8-0.1,1.4-0.1,1.9c0,1,0,1.6,0.1,2c1-0.7,2.4-2.6,2.4-3.7c0-0.6-0.5-1.1-1.1-1.1C36.4,62.7,36,62.9,35.7,63.5z"/>
</g>
<g>
	<path d="M40.7,66.5h0.6l-0.1,6.2c0.4-0.7,1-1,1.8-1c1.2,0,2.2,0.8,2.2,1.9c0,0.8-0.5,1.8-1.7,2.7l-2.8,2.1V66.5z M41.3,73.4
		c-0.1,0.8-0.1,1.4-0.1,1.9c0,1,0,1.6,0.1,2c1-0.7,2.4-2.6,2.4-3.7c0-0.6-0.5-1.1-1.1-1.1C42,72.6,41.6,72.9,41.3,73.4z"/>
</g>
<g>
	<path d="M173.6,76c-3.2,0-6.1-2.3-6.1-5.1c0-2.4,1.7-5,5.1-7.9c-0.2-0.9-0.3-1.8-0.3-2.7c0-2.6,0.9-5.1,2.4-6.3
		c1.4,1.9,2,3.7,2,5.3c0,2.2-1,4.2-3.2,6.1l0.7,3.1c0.4,0,0.6,0,0.6,0c2,0,3.6,1.5,3.6,3.5c0,1.4-1.1,2.8-2.7,3.6
		c0-0.1,0.6,2.8,0.6,3.3c0,1.9-1.7,3.2-3.7,3.2c-1.5,0-2.7-1-2.7-2.5c0-1.1,0.7-1.9,1.8-1.9c1,0,1.7,1,1.7,1.9c0,1-0.9,1.7-2,1.8
		c0.4,0.2,0.9,0.3,1.4,0.3c1.6,0,3.1-1.2,3.1-2.7c0-0.1,0-0.3,0-0.5l-0.6-2.8C174.8,75.8,174.3,76,173.6,76z M171.9,72
		c0,0.8,0.4,1.4,1.2,1.9c-1.3-0.2-2.2-1.1-2.2-2.3c0-1.5,1.3-2.8,2.9-3.1l-0.6-3c-2.8,2.1-4.3,4.1-4.3,6.1c0,2.2,2.1,4,4.5,4
		c0.7,0,1.3-0.1,1.8-0.4l-1.1-5.1C172.9,70.3,171.9,71,171.9,72z M175,56c-1.2,0-2.2,2.8-2.2,5.3c0,0.5,0,1,0.1,1.4
		c2-1.8,3-3.4,3-4.8c0-0.7-0.3-1.3-0.7-1.8C175.2,56,175.1,56,175,56z M177,72.4c0-1.2-0.9-2.4-2.2-2.4c0,0-0.2,0-0.4,0l1.1,5
		C176.5,74.3,177,73.4,177,72.4z"/>
</g>
<g>
	<path d="M361.8,69.3c2.2-2,3.6-4.6,3.6-6.9c0-1.9-1.1-3.3-2.8-3.3c-1.2,0-2.5,1-2.5,2.1c0,0.2,0,0.2,0.1,0.2c0,0,0.4-0.5,1-0.5
		c0.7,0,1.2,0.6,1.2,1.3c0,0.9-0.6,1.7-1.6,1.7s-1.5-1-1.5-2.1c0-1.8,1.7-3.1,3.6-3.1c3.5,0,4.4,2.4,4.4,4.4c0,1.2-0.3,2.2-1.5,4
		c-1.4,2.3-4.8,4-6,4c-0.3,0-0.5-0.1-0.5-0.3C360.3,70.3,361.2,69.9,361.8,69.3z M369.2,59.8c0.4,0,0.7,0.3,0.7,0.7
		c0,0.4-0.3,0.7-0.7,0.7c-0.4,0-0.7-0.3-0.7-0.7C368.5,60.2,368.8,59.8,369.2,59.8z M369.2,63.5c0.4,0,0.7,0.3,0.7,0.7
		s-0.3,0.7-0.7,0.7c-0.4,0-0.7-0.3-0.7-0.7S368.8,63.5,369.2,63.5z"/>
</g>
<rect x="60.2" y="2.6" width="0.5" height="26.5"/>
<g>
	<path d="M53.7,30.7c0-1.8,2.5-3.5,4.5-3.5c1.3,0,2.3,0.7,2.3,1.7c0,1.7-2.5,3.5-4.6,3.5C54.7,32.5,53.7,31.8,53.7,30.7z"/>
</g>
<g>
	<path d="M53.7,25.8c0-1.8,2.5-3.5,4.5-3.5c1.3,0,2.3,0.7,2.3,1.7c0,1.7-2.5,3.5-4.6,3.5C54.7,27.5,53.7,26.9,53.7,25.8z"/>
</g>
<g>
	<path d="M53.7,20.8c0-1.8,2.5-3.5,4.5-3.5c1.3,0,2.3,0.7,2.3,1.7c0,1.7-2.5,3.5-4.6,3.5C54.7,22.5,53.7,21.9,53.7,20.8z"/>
</g>
<rect x="117.5" y="13.3" width="0.5" height="26.5"/>
<g>
	<path d="M117.6,13.4c0-1.8,2.5-3.5,4.5-3.5c1.3,0,2.3,0.7,2.3,1.7c0,1.7-2.5,3.5-4.6,3.5C118.6,15.1,117.6,14.5,117.6,13.4z"/>
</g>
<g>
	<path d="M117.6,20.8c0-1.8,2.5-3.5,4.5-3.5c1.3,0,2.3,0.7,2.3,1.7c0,1.7-2.5,3.5-4.6,3.5C118.6,22.5,117.6,21.9,117.6,20.8z"/>
</g>
<g>
	<path d="M117.6,25.8c0-1.8,2.5-3.5,4.5-3.5c1.3,0,2.3,0.7,2.3,1.7c0,1.7-2.5,3.5-4.6,3.5C118.6,27.5,117.6,26.9,117.6,25.8z"/>
</g>
<rect x="181.4" y="8.3" width="0.5" height="29"/>
<g>
	<path d="M181.5,8.4c0-1.8,2.5-3.5,4.5-3.5c1.3,0,2.3,0.7,2.3,1.7c0,1.7-2.5,3.5-4.6,3.5C182.4,10.1,181.5,9.5,181.5,8.4z"/>
</g>
<g>
	<path d="M181.5,13.4c0-1.8,2.5-3.5,4.5-3.5c1.3,0,2.3,0.7,2.3,1.7c0,1.7-2.5,3.5-4.6,3.5C182.4,15.1,181.5,14.5,181.5,13.4z"/>
</g>
<g>
	<path d="M181.5,20.8c0-1.8,2.5-3.5,4.5-3.5c1.3,0,2.3,0.7,2.3,1.7c0,1.7-2.5,3.5-4.6,3.5C182.4,22.5,181.5,21.9,181.5,20.8z"/>
</g>
<rect x="243.5" y="4.7" width="10.5" height="0.8"/>
<rect x="245.2" y="3.4" width="0.5" height="26.5"/>
<g>
	<path d="M245.3,3.5c0-1.8,2.5-3.5,4.5-3.5c1.3,0,2.3,0.7,2.3,1.7c0,1.7-2.5,3.5-4.6,3.5C246.3,5.2,245.3,4.5,245.3,3.5z"/>
</g>
<g>
	<path d="M245.3,8.4c0-1.8,2.5-3.5,4.5-3.5c1.3,0,2.3,0.7,2.3,1.7c0,1.7-2.5,3.5-4.6,3.5C246.3,10.1,245.3,9.5,245.3,8.4z"/>
</g>
<g>
	<path d="M245.3,13.4c0-1.8,2.5-3.5,4.5-3.5c1.3,0,2.3,0.7,2.3,1.7c0,1.7-2.5,3.5-4.6,3.5C246.3,15.1,245.3,14.5,245.3,13.4z"/>
</g>
<rect x="309.1" y="8.3" width="0.5" height="29"/>
<g>
	<path d="M309.2,8.4c0-1.8,2.5-3.5,4.5-3.5c1.3,0,2.3,0.7,2.3,1.7c0,1.7-2.5,3.5-4.6,3.5C310.2,10.1,309.2,9.5,309.2,8.4z"/>
</g>
<g>
	<path d="M309.2,13.4c0-1.8,2.5-3.5,4.5-3.5c1.3,0,2.3,0.7,2.3,1.7c0,1.7-2.5,3.5-4.6,3.5C310.2,15.1,309.2,14.5,309.2,13.4z"/>
</g>
<g>
	<path d="M309.2,20.8c0-1.8,2.5-3.5,4.5-3.5c1.3,0,2.3,0.7,2.3,1.7c0,1.7-2.5,3.5-4.6,3.5C310.2,22.5,309.2,21.9,309.2,20.8z"/>
</g>
<rect x="373" y="13.3" width="0.5" height="26.5"/>
<g>
	<path d="M373.1,13.4c0-1.8,2.5-3.5,4.5-3.5c1.3,0,2.3,0.7,2.3,1.7c0,1.7-2.5,3.5-4.6,3.5C374,15.1,373.1,14.5,373.1,13.4z"/>
</g>
<g>
	<path d="M373.1,20.8c0-1.8,2.5-3.5,4.5-3.5c1.3,0,2.3,0.7,2.3,1.7c0,1.7-2.5,3.5-4.6,3.5C374,22.5,373.1,21.9,373.1,20.8z"/>
</g>
<g>
	<path d="M373.1,25.8c0-1.8,2.5-3.5,4.5-3.5c1.3,0,2.3,0.7,2.3,1.7c0,1.7-2.5,3.5-4.6,3.5C374,27.5,373.1,26.9,373.1,25.8z"/>
</g>
<rect x="443.5" y="2.6" width="0.5" height="26.5"/>
<g>
	<path d="M441.2,27.2c1.6,0,2.7,0.7,2.7,2c0,1.9-2.3,3.4-4.5,3.4c-1.3,0-2.4-0.7-2.4-1.8C436.9,29,439.2,27.2,441.2,27.2z M437.4,31
		c0,0.6,0.4,0.9,1.1,0.9c1.4,0,4.9-2.1,4.9-3.3c0-0.6-0.4-0.9-1.1-0.9C441,27.8,437.4,29.8,437.4,31z"/>
</g>
<g>
	<path d="M441.2,22.2c1.6,0,2.7,0.7,2.7,2c0,1.9-2.3,3.4-4.5,3.4c-1.3,0-2.4-0.7-2.4-1.8C436.9,24,439.2,22.2,441.2,22.2z
		 M437.4,26.1c0,0.6,0.4,0.9,1.1,0.9c1.4,0,4.9-2.1,4.9-3.3c0-0.6-0.4-0.9-1.1-0.9C441,22.8,437.4,24.8,437.4,26.1z"/>
</g>
<g>
	<path d="M441.2,17.3c1.6,0,2.7,0.7,2.7,2c0,1.9-2.3,3.4-4.5,3.4c-1.3,0-2.4-0.7-2.4-1.8C436.9,19,439.2,17.3,441.2,17.3z
		 M437.4,21.1c0,0.6,0.4,0.9,1.1,0.9c1.4,0,4.9-2.1,4.9-3.3c0-0.6-0.4-0.9-1.1-0.9C441,17.9,437.4,19.9,437.4,21.1z"/>
</g>
<rect x="53.6" y="55.8" width="0.5" height="26.5"/>
<g>
	<path d="M53.7,55.8c0-1.8,2.5-3.5,4.5-3.5c1.3,0,2.3,0.7,2.3,1.7c0,1.7-2.5,3.5-4.6,3.5C54.7,57.6,53.7,56.9,53.7,55.8z"/>
</g>
<g>
	<path d="M53.7,60.8c0-1.8,2.5-3.5,4.5-3.5c1.3,0,2.3,0.7,2.3,1.7c0,1.7-2.5,3.5-4.6,3.5C54.7,62.5,53.7,61.9,53.7,60.8z"/>
</g>
<g>
	<path d="M53.7,65.8c0-1.8,2.5-3.5,4.5-3.5c1.3,0,2.3,0.7,2.3,1.7c0,1.7-2.5,3.5-4.6,3.5C54.7,67.5,53.7,66.9,53.7,65.8z"/>
</g>
<rect x="115.7" y="52.1" width="10.5" height="0.8"/>
<rect x="115.7" y="47.2" width="10.5" height="0.8"/>
<rect x="117.5" y="48.3" width="0.5" height="29"/>
<g>
	<path d="M117.6,48.4c0-1.8,2.5-3.5,4.5-3.5c1.3,0,2.3,0.7,2.3,1.7c0,1.7-2.5,3.5-4.6,3.5C118.6,50.1,117.6,49.5,117.6,48.4z"/>
</g>
<g>
	<path d="M117.6,55.8c0-1.8,2.5-3.5,4.5-3.5c1.3,0,2.3,0.7,2.3,1.7c0,1.7-2.5,3.5-4.6,3.5C118.6,57.6,117.6,56.9,117.6,55.8z"/>
</g>
<g>
	<path d="M117.6,60.8c0-1.8,2.5-3.5,4.5-3.5c1.3,0,2.3,0.7,2.3,1.7c0,1.7-2.5,3.5-4.6,3.5C118.6,62.5,117.6,61.9,117.6,60.8z"/>
</g>
<rect x="179.6" y="81.9" width="10.5" height="0.8"/>
<rect x="187.9" y="55" width="0.5" height="29"/>
<g>
	<path d="M181.5,85.6c0-1.8,2.5-3.5,4.5-3.5c1.3,0,2.3,0.7,2.3,1.7c0,1.7-2.5,3.5-4.6,3.5C182.4,87.3,181.5,86.7,181.5,85.6z"/>
</g>
<g>
	<path d="M181.5,78.2c0-1.8,2.5-3.5,4.5-3.5c1.3,0,2.3,0.7,2.3,1.7c0,1.7-2.5,3.5-4.6,3.5C182.4,79.9,181.5,79.3,181.5,78.2z"/>
</g>
<g>
	<path d="M181.5,73.2c0-1.8,2.5-3.5,4.5-3.5c1.3,0,2.3,0.7,2.3,1.7c0,1.7-2.5,3.5-4.6,3.5C182.4,74.9,181.5,74.3,181.5,73.2z"/>
</g>
<rect x="251.8" y="50" width="0.5" height="26.5"/>
<g>
	<path d="M245.3,78.2c0-1.8,2.5-3.5,4.5-3.5c1.3,0,2.3,0.7,2.3,1.7c0,1.7-2.5,3.5-4.6,3.5C246.3,79.9,245.3,79.3,245.3,78.2z"/>
</g>
<g>
	<path d="M245.3,73.2c0-1.8,2.5-3.5,4.5-3.5c1.3,0,2.3,0.7,2.3,1.7c0,1.7-2.5,3.5-4.6,3.5C246.3,74.9,245.3,74.3,245.3,73.2z"/>
</g>
<g>
	<path d="M245.3,68.2c0-1.8,2.5-3.5,4.5-3.5c1.3,0,2.3,0.7,2.3,1.7c0,1.7-2.5,3.5-4.6,3.5C246.3,70,245.3,69.3,245.3,68.2z"/>
</g>
<rect x="307.3" y="81.9" width="10.5" height="0.8"/>
<rect x="315.6" y="55" width="0.5" height="29"/>
<g>
	<path d="M309.2,85.6c0-1.8,2.5-3.5,4.5-3.5c1.3,0,2.3,0.7,2.3,1.7c0,1.7-2.5,3.5-4.6,3.5C310.2,87.3,309.2,86.7,309.2,85.6z"/>
</g>
<g>
	<path d="M309.2,78.2c0-1.8,2.5-3.5,4.5-3.5c1.3,0,2.3,0.7,2.3,1.7c0,1.7-2.5,3.5-4.6,3.5C310.2,79.9,309.2,79.3,309.2,78.2z"/>
</g>
<g>
	<path d="M309.2,73.2c0-1.8,2.5-3.5,4.5-3.5c1.3,0,2.3,0.7,2.3,1.7c0,1.7-2.5,3.5-4.6,3.5C310.2,74.9,309.2,74.3,309.2,73.2z"/>
</g>
<rect x="371.2" y="52.1" width="10.5" height="0.8"/>
<rect x="371.2" y="47.2" width="10.5" height="0.8"/>
<rect x="373" y="48.3" width="0.5" height="29"/>
<g>
	<path d="M373.1,48.4c0-1.8,2.5-3.5,4.5-3.5c1.3,0,2.3,0.7,2.3,1.7c0,1.7-2.5,3.5-4.6,3.5C374,50.1,373.1,49.5,373.1,48.4z"/>
</g>
<g>
	<path d="M373.1,55.8c0-1.8,2.5-3.5,4.5-3.5c1.3,0,2.3,0.7,2.3,1.7c0,1.7-2.5,3.5-4.6,3.5C374,57.6,373.1,56.9,373.1,55.8z"/>
</g>
<g>
	<path d="M373.1,60.8c0-1.8,2.5-3.5,4.5-3.5c1.3,0,2.3,0.7,2.3,1.7c0,1.7-2.5,3.5-4.6,3.5C374,62.5,373.1,61.9,373.1,60.8z"/>
</g>
<rect x="436.8" y="55.8" width="0.5" height="26.5"/>
<g>
	<path d="M441.2,52.3c1.6,0,2.7,0.7,2.7,2c0,1.9-2.3,3.4-4.5,3.4c-1.3,0-2.4-0.7-2.4-1.8C436.9,54.1,439.2,52.3,441.2,52.3z
		 M437.4,56.1c0,0.6,0.4,0.9,1.1,0.9c1.4,0,4.9-2.1,4.9-3.3c0-0.6-0.4-0.9-1.1-0.9C441,52.9,437.4,54.9,437.4,56.1z"/>
</g>
<g>
	<path d="M441.2,57.3c1.6,0,2.7,0.7,2.7,2c0,1.9-2.3,3.4-4.5,3.4c-1.3,0-2.4-0.7-2.4-1.8C436.9,59,439.2,57.3,441.2,57.3z
		 M437.4,61.1c0,0.6,0.4,0.9,1.1,0.9c1.4,0,4.9-2.1,4.9-3.3c0-0.6-0.4-0.9-1.1-0.9C441,57.8,437.4,59.9,437.4,61.1z"/>
</g>
<g>
	<path d="M441.2,62.2c1.6,0,2.7,0.7,2.7,2c0,1.9-2.3,3.4-4.5,3.4c-1.3,0-2.4-0.7-2.4-1.8C436.9,64,439.2,62.2,441.2,62.2z
		 M437.4,66.1c0,0.6,0.4,0.9,1.1,0.9c1.4,0,4.9-2.1,4.9-3.3c0-0.6-0.4-0.9-1.1-0.9C441,62.8,437.4,64.8,437.4,66.1z"/>
</g>
</svg>
