<?xml version="1.0" encoding="utf-8"?>

<!--
	ScaleBook
	Copyright (c) Leland Jansen 2015. All rights reserved.
-->

<!DOCTYPE svg PUBLIC "-//W3C//DTD SVG 1.1//EN" "http://www.w3.org/Graphics/SVG/1.1/DTD/svg11.dtd">
<svg version="1.1" id="Layer_1" xmlns="http://www.w3.org/2000/svg" xmlns:xlink="http://www.w3.org/1999/xlink" x="0px" y="0px"
	 viewBox="0 0 553 88.6" enable-background="new 0 0 553 88.6" xml:space="preserve">
<rect x="8.5" y="12.5" width="0.8" height="68.5"/>
<g>
	<path d="M7.6,13.2c-2,1.1-3.7,5.9-3.7,9.7c0,2.3,1.4,10.1,1.4,12.5c0,5.1-1.6,8.8-4.7,11.4c3.1,2.5,4.7,6.2,4.7,11.3
		c0,2.3-1.4,10.1-1.4,12.5c0,3.9,1.8,8.6,3.7,9.7V81C4,78.7,1.7,72.6,1.7,67.7c0-2.2,1.8-9.6,1.8-11.8c0-3.9-1-6.7-3-8.4
		C0.1,47.2,0,47,0,46.8c0-0.2,0.1-0.4,0.5-0.7c2-1.7,3-4.3,3-7.7c0-2.2-1.8-10.3-1.8-12.5c0-5.3,2.1-10.6,5.9-13.4V13.2z"/>
</g>
<rect x="548" y="12.5" width="0.8" height="68.5"/>
<rect x="550.5" y="12.5" width="2.5" height="68.5"/>
<rect x="8.6" y="32.1" width="544.4" height="0.5"/>
<rect x="8.6" y="27.2" width="544.4" height="0.5"/>
<rect x="8.6" y="22.2" width="544.4" height="0.5"/>
<rect x="8.6" y="17.2" width="544.4" height="0.5"/>
<rect x="8.6" y="12.3" width="544.4" height="0.5"/>
<g>
	<path d="M20.4,32.2c-4.2,0-8.1-3.1-8.1-6.9c0-3.2,2.3-6.7,6.8-10.5c-0.3-1.2-0.4-2.4-0.4-3.6c0-3.5,1.2-6.8,3.2-8.5
		c1.8,2.5,2.7,4.9,2.7,7.1c0,2.9-1.3,5.6-4.3,8.1l0.9,4.2c0.5,0,0.8-0.1,0.8-0.1c2.6,0,4.8,2,4.8,4.7c0,1.9-1.4,3.7-3.6,4.8
		c0-0.1,0.9,3.8,0.9,4.3c0,2.5-2.3,4.2-4.9,4.2c-2,0-3.6-1.3-3.6-3.4c0-1.4,1-2.6,2.4-2.6c1.3,0,2.3,1.3,2.3,2.5
		c0,1.4-1.2,2.3-2.7,2.5c0.6,0.3,1.2,0.5,1.9,0.5c2.1,0,4.1-1.6,4.1-3.6c0-0.2,0-0.4-0.1-0.6l-0.8-3.7
		C22.1,32.1,21.4,32.2,20.4,32.2z M18.2,27c0,1,0.5,1.9,1.6,2.5c-1.8-0.3-3-1.4-3-3.1c0-2,1.7-3.7,3.8-4.1l-0.8-4
		c-3.7,2.8-5.7,5.5-5.7,8.1c0,2.9,2.8,5.3,6,5.3c0.9,0,1.7-0.2,2.4-0.5l-1.4-6.8C19.5,24.6,18.2,25.6,18.2,27z M22.3,5.6
		c-1.6,0-2.9,3.7-2.9,7c0,0.7,0,1.3,0.2,1.9c2.7-2.4,4-4.5,4-6.5c0-0.9-0.3-1.7-1-2.4C22.5,5.7,22.4,5.6,22.3,5.6z M25,27.5
		c0-1.6-1.2-3.3-2.9-3.3c-0.1,0-0.2,0-0.5,0l1.4,6.6C24.4,30,25,28.8,25,27.5z"/>
</g>
<g>
	<path d="M29.7,14.1h0.6l-0.1,6.2c0.4-0.7,1-1,1.8-1c1.2,0,2.2,0.8,2.2,1.9c0,0.8-0.5,1.8-1.7,2.7l-2.8,2.1V14.1z M30.3,21
		c-0.1,0.8-0.1,1.4-0.1,1.9c0,1,0,1.6,0.1,2c1-0.7,2.4-2.6,2.4-3.7c0-0.6-0.5-1.1-1.1-1.1C31,20.2,30.6,20.5,30.3,21z"/>
</g>
<rect x="8.6" y="80.8" width="544.4" height="0.5"/>
<rect x="8.6" y="75.8" width="544.4" height="0.5"/>
<rect x="8.6" y="70.9" width="544.4" height="0.5"/>
<rect x="8.6" y="65.9" width="544.4" height="0.5"/>
<rect x="8.6" y="61" width="544.4" height="0.5"/>
<g>
	<path d="M15.9,75.4c2.9-2.6,4.7-6.1,4.7-9.2c0-2.5-1.4-4.4-3.7-4.4c-1.6,0-3.4,1.3-3.4,2.7c0,0.2,0,0.3,0.1,0.3
		c-0.1,0,0.6-0.6,1.4-0.6c0.9,0,1.5,0.8,1.5,1.7c0,1.2-0.9,2.2-2.1,2.2c-1.2,0-2.1-1.3-2.1-2.8c0-2.3,2.3-4.1,4.8-4.1
		c4.7,0,5.9,3.2,5.9,5.8c0,1.6-0.4,2.9-2,5.3c-1.9,3.1-6.4,5.3-8.1,5.3c-0.4,0-0.6-0.2-0.6-0.5C14,76.6,15.1,76.1,15.9,75.4z
		 M25.8,62.7c0.6,0,1,0.4,1,1s-0.4,1-1,1s-1-0.4-1-1S25.3,62.7,25.8,62.7z M25.8,67.6c0.6,0,1,0.4,1,1s-0.4,1-1,1s-1-0.4-1-1
		S25.3,67.6,25.8,67.6z"/>
</g>
<g>
	<path d="M29.7,67.8h0.6L30.2,74c0.4-0.7,1-1,1.8-1c1.2,0,2.2,0.8,2.2,1.9c0,0.8-0.5,1.8-1.7,2.7l-2.8,2.1V67.8z M30.3,74.7
		c-0.1,0.8-0.1,1.4-0.1,1.9c0,1,0,1.6,0.1,2c1-0.7,2.4-2.6,2.4-3.7c0-0.6-0.5-1.1-1.1-1.1C31,73.8,30.6,74.1,30.3,74.7z"/>
</g>
<g>
	<path d="M165.5,79.7c-3.2,0-6.1-2.3-6.1-5.1c0-2.4,1.7-5,5.1-7.9c-0.2-0.9-0.3-1.8-0.3-2.7c0-2.6,0.9-5.1,2.4-6.3
		c1.4,1.9,2,3.7,2,5.3c0,2.2-1,4.2-3.2,6.1l0.7,3.1c0.4,0,0.6,0,0.6,0c2,0,3.6,1.5,3.6,3.5c0,1.4-1.1,2.8-2.7,3.6
		c0-0.1,0.6,2.8,0.6,3.3c0,1.9-1.7,3.2-3.7,3.2c-1.5,0-2.7-1-2.7-2.5c0-1.1,0.7-1.9,1.8-1.9c1,0,1.7,1,1.7,1.9c0,1-0.9,1.7-2,1.8
		c0.4,0.2,0.9,0.3,1.4,0.3c1.6,0,3.1-1.2,3.1-2.7c0-0.1,0-0.3,0-0.5l-0.6-2.8C166.7,79.6,166.2,79.7,165.5,79.7z M163.9,75.8
		c0,0.8,0.4,1.4,1.2,1.9c-1.3-0.2-2.2-1.1-2.2-2.3c0-1.5,1.3-2.8,2.9-3.1l-0.6-3c-2.8,2.1-4.3,4.1-4.3,6.1c0,2.2,2.1,4,4.5,4
		c0.7,0,1.3-0.1,1.8-0.4l-1.1-5.1C164.8,74,163.9,74.7,163.9,75.8z M166.9,59.8c-1.2,0-2.2,2.8-2.2,5.3c0,0.5,0,1,0.1,1.4
		c2-1.8,3-3.4,3-4.8c0-0.7-0.3-1.3-0.7-1.8C167.1,59.8,167,59.8,166.9,59.8z M169,76.2c0-1.2-0.9-2.4-2.2-2.4c0,0-0.2,0-0.4,0l1.1,5
		C168.5,78,169,77.1,169,76.2z"/>
</g>
<g>
	<path d="M358,73.1c2.2-2,3.6-4.6,3.6-6.9c0-1.9-1.1-3.3-2.8-3.3c-1.2,0-2.5,1-2.5,2.1c0,0.2,0,0.2,0.1,0.2c0,0,0.4-0.5,1-0.5
		c0.7,0,1.2,0.6,1.2,1.3c0,0.9-0.6,1.7-1.6,1.7s-1.5-1-1.5-2.1c0-1.8,1.7-3.1,3.6-3.1c3.5,0,4.4,2.4,4.4,4.4c0,1.2-0.3,2.2-1.5,4
		c-1.4,2.3-4.8,4-6,4c-0.3,0-0.5-0.1-0.5-0.3C356.6,74,357.5,73.6,358,73.1z M365.5,63.5c0.4,0,0.7,0.3,0.7,0.7
		c0,0.4-0.3,0.7-0.7,0.7c-0.4,0-0.7-0.3-0.7-0.7C364.8,63.9,365.1,63.5,365.5,63.5z M365.5,67.3c0.4,0,0.7,0.3,0.7,0.7
		s-0.3,0.7-0.7,0.7c-0.4,0-0.7-0.3-0.7-0.7S365.1,67.3,365.5,67.3z"/>
</g>
<rect x="49.1" y="3.8" width="0.5" height="25.3"/>
<g>
	<path d="M42.7,30.7c0-1.8,2.5-3.5,4.5-3.5c1.3,0,2.3,0.7,2.3,1.7c0,1.7-2.5,3.5-4.6,3.5C43.7,32.5,42.7,31.8,42.7,30.7z"/>
</g>
<g>
	<path d="M42.7,25.8c0-1.8,2.5-3.5,4.5-3.5c1.3,0,2.3,0.7,2.3,1.7c0,1.7-2.5,3.5-4.6,3.5C43.7,27.5,42.7,26.9,42.7,25.8z"/>
</g>
<g>
	<path d="M42.7,20.8c0-1.8,2.5-3.5,4.5-3.5c1.3,0,2.3,0.7,2.3,1.7c0,1.7-2.5,3.5-4.6,3.5C43.7,22.5,42.7,21.9,42.7,20.8z"/>
</g>
<rect x="107.9" y="13.3" width="0.5" height="27.7"/>
<g>
	<path d="M108,13.4c0-1.8,2.5-3.5,4.5-3.5c1.3,0,2.3,0.7,2.3,1.7c0,1.7-2.5,3.5-4.6,3.5C109,15.1,108,14.5,108,13.4z"/>
</g>
<g>
	<path d="M108,20.8c0-1.8,2.5-3.5,4.5-3.5c1.3,0,2.3,0.7,2.3,1.7c0,1.7-2.5,3.5-4.6,3.5C109,22.5,108,21.9,108,20.8z"/>
</g>
<g>
	<path d="M108,25.8c0-1.8,2.5-3.5,4.5-3.5c1.3,0,2.3,0.7,2.3,1.7c0,1.7-2.5,3.5-4.6,3.5C109,27.5,108,26.9,108,25.8z"/>
</g>
<rect x="171.5" y="7.2" width="10.5" height="0.8"/>
<rect x="173.3" y="8.3" width="0.5" height="29"/>
<g>
	<path d="M173.4,8.4c0-1.8,2.5-3.5,4.5-3.5c1.3,0,2.3,0.7,2.3,1.7c0,1.7-2.5,3.5-4.6,3.5C174.4,10.1,173.4,9.5,173.4,8.4z"/>
</g>
<g>
	<path d="M173.4,13.4c0-1.8,2.5-3.5,4.5-3.5c1.3,0,2.3,0.7,2.3,1.7c0,1.7-2.5,3.5-4.6,3.5C174.4,15.1,173.4,14.5,173.4,13.4z"/>
</g>
<g>
	<path d="M173.4,20.8c0-1.8,2.5-3.5,4.5-3.5c1.3,0,2.3,0.7,2.3,1.7c0,1.7-2.5,3.5-4.6,3.5C174.4,22.5,173.4,21.9,173.4,20.8z"/>
</g>
<rect x="236.8" y="7.2" width="10.5" height="0.8"/>
<rect x="236.8" y="2.2" width="10.5" height="0.8"/>
<rect x="238.6" y="3.4" width="0.5" height="26.5"/>
<g>
	<path d="M238.7,3.5c0-1.8,2.5-3.5,4.5-3.5c1.3,0,2.3,0.7,2.3,1.7c0,1.7-2.5,3.5-4.6,3.5C239.6,5.2,238.7,4.5,238.7,3.5z"/>
</g>
<g>
	<path d="M238.7,8.4c0-1.8,2.5-3.5,4.5-3.5c1.3,0,2.3,0.7,2.3,1.7c0,1.7-2.5,3.5-4.6,3.5C239.6,10.1,238.7,9.5,238.7,8.4z"/>
</g>
<g>
	<path d="M238.7,13.4c0-1.8,2.5-3.5,4.5-3.5c1.3,0,2.3,0.7,2.3,1.7c0,1.7-2.5,3.5-4.6,3.5C239.6,15.1,238.7,14.5,238.7,13.4z"/>
</g>
<rect x="302.1" y="7.2" width="10.5" height="0.8"/>
<rect x="303.8" y="8.3" width="0.5" height="29"/>
<g>
	<path d="M303.9,8.4c0-1.8,2.5-3.5,4.5-3.5c1.3,0,2.3,0.7,2.3,1.7c0,1.7-2.5,3.5-4.6,3.5C304.9,10.1,303.9,9.5,303.9,8.4z"/>
</g>
<g>
	<path d="M303.9,13.4c0-1.8,2.5-3.5,4.5-3.5c1.3,0,2.3,0.7,2.3,1.7c0,1.7-2.5,3.5-4.6,3.5C304.9,15.1,303.9,14.5,303.9,13.4z"/>
</g>
<g>
	<path d="M303.9,20.8c0-1.8,2.5-3.5,4.5-3.5c1.3,0,2.3,0.7,2.3,1.7c0,1.7-2.5,3.5-4.6,3.5C304.9,22.5,303.9,21.9,303.9,20.8z"/>
</g>
<rect x="369.3" y="13.3" width="0.5" height="27.7"/>
<g>
	<path d="M369.3,13.4c0-1.8,2.5-3.5,4.5-3.5c1.3,0,2.3,0.7,2.3,1.7c0,1.7-2.5,3.5-4.6,3.5C370.3,15.1,369.3,14.5,369.3,13.4z"/>
</g>
<g>
	<path d="M369.3,20.8c0-1.8,2.5-3.5,4.5-3.5c1.3,0,2.3,0.7,2.3,1.7c0,1.7-2.5,3.5-4.6,3.5C370.3,22.5,369.3,21.9,369.3,20.8z"/>
</g>
<g>
	<path d="M369.3,25.8c0-1.8,2.5-3.5,4.5-3.5c1.3,0,2.3,0.7,2.3,1.7c0,1.7-2.5,3.5-4.6,3.5C370.3,27.5,369.3,26.9,369.3,25.8z"/>
</g>
<rect x="441.2" y="3.8" width="0.5" height="25.3"/>
<g>
	<path d="M438.9,27.2c1.6,0,2.7,0.7,2.7,2c0,1.9-2.3,3.4-4.5,3.4c-1.3,0-2.4-0.7-2.4-1.8C434.6,29,436.8,27.2,438.9,27.2z M435.1,31
		c0,0.6,0.4,0.9,1.1,0.9c1.4,0,4.9-2.1,4.9-3.3c0-0.6-0.4-0.9-1.1-0.9C438.7,27.8,435.1,29.8,435.1,31z"/>
</g>
<g>
	<path d="M438.9,22.2c1.6,0,2.7,0.7,2.7,2c0,1.9-2.3,3.4-4.5,3.4c-1.3,0-2.4-0.7-2.4-1.8C434.6,24,436.8,22.2,438.9,22.2z
		 M435.1,26.1c0,0.6,0.4,0.9,1.1,0.9c1.4,0,4.9-2.1,4.9-3.3c0-0.6-0.4-0.9-1.1-0.9C438.7,22.8,435.1,24.8,435.1,26.1z"/>
</g>
<g>
	<path d="M438.9,17.3c1.6,0,2.7,0.7,2.7,2c0,1.9-2.3,3.4-4.5,3.4c-1.3,0-2.4-0.7-2.4-1.8C434.6,19,436.8,17.3,438.9,17.3z
		 M435.1,21.1c0,0.6,0.4,0.9,1.1,0.9c1.4,0,4.9-2.1,4.9-3.3c0-0.6-0.4-0.9-1.1-0.9C438.7,17.9,435.1,19.9,435.1,21.1z"/>
</g>
<rect x="40.9" y="55.8" width="10.5" height="0.8"/>
<rect x="42.6" y="57" width="0.5" height="26.5"/>
<g>
	<path d="M42.7,57.1c0-1.8,2.5-3.5,4.5-3.5c1.3,0,2.3,0.7,2.3,1.7c0,1.7-2.5,3.5-4.6,3.5C43.7,58.8,42.7,58.2,42.7,57.1z"/>
</g>
<g>
	<path d="M42.7,62c0-1.8,2.5-3.5,4.5-3.5c1.3,0,2.3,0.7,2.3,1.7c0,1.7-2.5,3.5-4.6,3.5C43.7,63.8,42.7,63.1,42.7,62z"/>
</g>
<g>
	<path d="M42.7,67c0-1.8,2.5-3.5,4.5-3.5c1.3,0,2.3,0.7,2.3,1.7c0,1.7-2.5,3.5-4.6,3.5C43.7,68.7,42.7,68.1,42.7,67z"/>
</g>
<rect x="106.1" y="55.8" width="10.5" height="0.8"/>
<rect x="106.1" y="50.9" width="10.5" height="0.8"/>
<rect x="107.9" y="49.6" width="0.5" height="29"/>
<g>
	<path d="M108,49.6c0-1.8,2.5-3.5,4.5-3.5c1.3,0,2.3,0.7,2.3,1.7c0,1.7-2.5,3.5-4.6,3.5C109,51.4,108,50.7,108,49.6z"/>
</g>
<g>
	<path d="M108,57.1c0-1.8,2.5-3.5,4.5-3.5c1.3,0,2.3,0.7,2.3,1.7c0,1.7-2.5,3.5-4.6,3.5C109,58.8,108,58.2,108,57.1z"/>
</g>
<g>
	<path d="M108,62c0-1.8,2.5-3.5,4.5-3.5c1.3,0,2.3,0.7,2.3,1.7c0,1.7-2.5,3.5-4.6,3.5C109,63.8,108,63.1,108,62z"/>
</g>
<rect x="171.5" y="85.6" width="10.5" height="0.8"/>
<rect x="179.8" y="56.2" width="0.5" height="29"/>
<g>
	<path d="M173.4,86.8c0-1.8,2.5-3.5,4.5-3.5c1.3,0,2.3,0.7,2.3,1.7c0,1.7-2.5,3.5-4.6,3.5C174.4,88.6,173.4,87.9,173.4,86.8z"/>
</g>
<g>
	<path d="M173.4,79.4c0-1.8,2.5-3.5,4.5-3.5c1.3,0,2.3,0.7,2.3,1.7c0,1.7-2.5,3.5-4.6,3.5C174.4,81.1,173.4,80.5,173.4,79.4z"/>
</g>
<g>
	<path d="M173.4,74.4c0-1.8,2.5-3.5,4.5-3.5c1.3,0,2.3,0.7,2.3,1.7c0,1.7-2.5,3.5-4.6,3.5C174.4,76.2,173.4,75.5,173.4,74.4z"/>
</g>
<rect x="245.1" y="52.5" width="0.5" height="25.3"/>
<g>
	<path d="M238.7,79.4c0-1.8,2.5-3.5,4.5-3.5c1.3,0,2.3,0.7,2.3,1.7c0,1.7-2.5,3.5-4.6,3.5C239.6,81.1,238.7,80.5,238.7,79.4z"/>
</g>
<g>
	<path d="M238.7,74.4c0-1.8,2.5-3.5,4.5-3.5c1.3,0,2.3,0.7,2.3,1.7c0,1.7-2.5,3.5-4.6,3.5C239.6,76.2,238.7,75.5,238.7,74.4z"/>
</g>
<g>
	<path d="M238.7,69.5c0-1.8,2.5-3.5,4.5-3.5c1.3,0,2.3,0.7,2.3,1.7c0,1.7-2.5,3.5-4.6,3.5C239.6,71.2,238.7,70.6,238.7,69.5z"/>
</g>
<rect x="302.1" y="85.6" width="10.5" height="0.8"/>
<rect x="310.4" y="56.2" width="0.5" height="29"/>
<g>
	<path d="M303.9,86.8c0-1.8,2.5-3.5,4.5-3.5c1.3,0,2.3,0.7,2.3,1.7c0,1.7-2.5,3.5-4.6,3.5C304.9,88.6,303.9,87.9,303.9,86.8z"/>
</g>
<g>
	<path d="M303.9,79.4c0-1.8,2.5-3.5,4.5-3.5c1.3,0,2.3,0.7,2.3,1.7c0,1.7-2.5,3.5-4.6,3.5C304.9,81.1,303.9,80.5,303.9,79.4z"/>
</g>
<g>
	<path d="M303.9,74.4c0-1.8,2.5-3.5,4.5-3.5c1.3,0,2.3,0.7,2.3,1.7c0,1.7-2.5,3.5-4.6,3.5C304.9,76.2,303.9,75.5,303.9,74.4z"/>
</g>
<rect x="367.5" y="55.8" width="10.5" height="0.8"/>
<rect x="367.5" y="50.9" width="10.5" height="0.8"/>
<rect x="369.3" y="49.6" width="0.5" height="29"/>
<g>
	<path d="M369.3,49.6c0-1.8,2.5-3.5,4.5-3.5c1.3,0,2.3,0.7,2.3,1.7c0,1.7-2.5,3.5-4.6,3.5C370.3,51.4,369.3,50.7,369.3,49.6z"/>
</g>
<g>
	<path d="M369.3,57.1c0-1.8,2.5-3.5,4.5-3.5c1.3,0,2.3,0.7,2.3,1.7c0,1.7-2.5,3.5-4.6,3.5C370.3,58.8,369.3,58.2,369.3,57.1z"/>
</g>
<g>
	<path d="M369.3,62c0-1.8,2.5-3.5,4.5-3.5c1.3,0,2.3,0.7,2.3,1.7c0,1.7-2.5,3.5-4.6,3.5C370.3,63.8,369.3,63.1,369.3,62z"/>
</g>
<rect x="432.7" y="55.8" width="10.7" height="0.8"/>
<rect x="434.5" y="57" width="0.5" height="26.5"/>
<g>
	<path d="M438.9,53.5c1.6,0,2.7,0.7,2.7,2c0,1.9-2.3,3.4-4.5,3.4c-1.3,0-2.4-0.7-2.4-1.8C434.6,55.3,436.8,53.5,438.9,53.5z
		 M435.1,57.4c0,0.6,0.4,0.9,1.1,0.9c1.4,0,4.9-2.1,4.9-3.3c0-0.6-0.4-0.9-1.1-0.9C438.7,54.1,435.1,56.2,435.1,57.4z"/>
</g>
<g>
	<path d="M438.9,58.5c1.6,0,2.7,0.7,2.7,2c0,1.9-2.3,3.4-4.5,3.4c-1.3,0-2.4-0.7-2.4-1.8C434.6,60.3,436.8,58.5,438.9,58.5z
		 M435.1,62.3c0,0.6,0.4,0.9,1.1,0.9c1.4,0,4.9-2.1,4.9-3.3c0-0.6-0.4-0.9-1.1-0.9C438.7,59.1,435.1,61.1,435.1,62.3z"/>
</g>
<g>
	<path d="M438.9,63.5c1.6,0,2.7,0.7,2.7,2c0,1.9-2.3,3.4-4.5,3.4c-1.3,0-2.4-0.7-2.4-1.8C434.6,65.2,436.8,63.5,438.9,63.5z
		 M435.1,67.3c0,0.6,0.4,0.9,1.1,0.9c1.4,0,4.9-2.1,4.9-3.3c0-0.6-0.4-0.9-1.1-0.9C438.7,64,435.1,66.1,435.1,67.3z"/>
</g>
</svg>
