<?xml version="1.0" encoding="utf-8"?>

<!--
	ScaleBook
	Copyright (c) Leland Jansen 2015. All rights reserved.
-->

<!DOCTYPE svg PUBLIC "-//W3C//DTD SVG 1.1//EN" "http://www.w3.org/Graphics/SVG/1.1/DTD/svg11.dtd">
<svg version="1.1" id="Layer_1" xmlns="http://www.w3.org/2000/svg" xmlns:xlink="http://www.w3.org/1999/xlink" x="0px" y="0px"
	 viewBox="0 0 552.9 86.8" enable-background="new 0 0 552.9 86.8" xml:space="preserve">
<rect x="8.4" y="9.7" width="0.8" height="67.1"/>
<g>
	<path d="M7.4,10.4c-1.9,1.1-3.6,5.8-3.6,9.5c0,2.3,1.4,9.9,1.4,12.3c0,5-1.5,8.7-4.6,11.1c3,2.4,4.6,6.1,4.6,11.1
		c0,2.3-1.4,9.9-1.4,12.3c0,3.8,1.7,8.5,3.6,9.5v0.7c-3.5-2.3-5.8-8.3-5.8-13.1c0-2.1,1.7-9.4,1.7-11.5c0-3.8-1-6.6-2.9-8.3
		C0.1,43.7,0,43.5,0,43.3s0.1-0.4,0.5-0.7c1.9-1.7,2.9-4.2,2.9-7.6c0-2.1-1.7-10.1-1.7-12.2c0-5.2,2.1-10.4,5.8-13.1V10.4z"/>
</g>
<rect x="547.8" y="9.7" width="0.8" height="67.1"/>
<rect x="550.4" y="9.7" width="2.5" height="67.1"/>
<rect x="8.5" y="29.3" width="544.4" height="0.5"/>
<rect x="8.5" y="24.4" width="544.4" height="0.5"/>
<rect x="8.5" y="19.4" width="544.4" height="0.5"/>
<rect x="8.5" y="14.4" width="544.4" height="0.5"/>
<rect x="8.5" y="9.5" width="544.4" height="0.5"/>
<g>
	<path d="M20.3,29.4c-4.2,0-8.1-3.1-8.1-6.9c0-3.2,2.3-6.7,6.8-10.5c-0.3-1.2-0.4-2.4-0.4-3.6c0-3.5,1.2-6.8,3.2-8.5
		c1.8,2.5,2.7,4.9,2.7,7.1c0,2.9-1.3,5.6-4.3,8.1l0.9,4.2c0.5,0,0.8-0.1,0.8-0.1c2.6,0,4.8,2,4.8,4.7c0,1.9-1.4,3.7-3.6,4.8
		c0-0.1,0.9,3.8,0.9,4.3c0,2.5-2.3,4.2-4.9,4.2c-2,0-3.6-1.3-3.6-3.4c0-1.4,1-2.6,2.4-2.6c1.3,0,2.3,1.3,2.3,2.5
		c0,1.4-1.2,2.3-2.7,2.5c0.6,0.3,1.2,0.5,1.9,0.5c2.1,0,4.1-1.6,4.1-3.6c0-0.2,0-0.4-0.1-0.6l-0.8-3.7
		C21.9,29.3,21.2,29.4,20.3,29.4z M18.1,24.2c0,1,0.5,1.9,1.6,2.5c-1.8-0.3-3-1.4-3-3.1c0-2,1.7-3.7,3.8-4.1l-0.8-4
		C16,18.3,14,21,14,23.6c0,2.9,2.8,5.3,6,5.3c0.9,0,1.7-0.2,2.4-0.5L21,21.6C19.4,21.8,18.1,22.8,18.1,24.2z M22.1,2.8
		c-1.6,0-2.9,3.7-2.9,7c0,0.7,0,1.3,0.2,1.9c2.7-2.4,4-4.5,4-6.5c0-0.9-0.3-1.7-1-2.4C22.4,2.9,22.3,2.8,22.1,2.8z M24.9,24.7
		c0-1.6-1.2-3.3-2.9-3.3c-0.1,0-0.2,0-0.5,0l1.4,6.6C24.2,27.2,24.9,26,24.9,24.7z"/>
</g>
<g>
	<path d="M33.5,2.9v2.8l1-0.3v1.8l-1,0.3V11l1-0.3v1.8l-1,0.3v3.1H33v-3l-1.9,0.6v3h-0.5v-2.8l-1,0.3v-1.8l1-0.3V8.4l-1,0.3V7l1-0.3
		V3.5h0.5v3L33,5.9v-3H33.5z M33,7.7l-1.9,0.6v3.4l1.9-0.6V7.7z"/>
</g>
<rect x="8.5" y="76.6" width="544.4" height="0.5"/>
<rect x="8.5" y="71.6" width="544.4" height="0.5"/>
<rect x="8.5" y="66.7" width="544.4" height="0.5"/>
<rect x="8.5" y="61.7" width="544.4" height="0.5"/>
<rect x="8.5" y="56.8" width="544.4" height="0.5"/>
<g>
	<path d="M15.7,71.2c2.9-2.6,4.7-6.1,4.7-9.2c0-2.5-1.4-4.4-3.7-4.4c-1.6,0-3.4,1.3-3.4,2.7c0,0.2,0,0.3,0.1,0.3
		c-0.1,0,0.6-0.6,1.4-0.6c0.9,0,1.5,0.8,1.5,1.7c0,1.2-0.9,2.2-2.1,2.2c-1.2,0-2.1-1.3-2.1-2.8c0-2.3,2.3-4.1,4.8-4.1
		c4.7,0,5.9,3.2,5.9,5.8c0,1.6-0.4,2.9-2,5.3c-1.9,3.1-6.4,5.3-8.1,5.3c-0.4,0-0.6-0.2-0.6-0.5C13.8,72.4,14.9,71.9,15.7,71.2z
		 M25.7,58.5c0.6,0,1,0.4,1,1s-0.4,1-1,1s-1-0.4-1-1S25.1,58.5,25.7,58.5z M25.7,63.4c0.6,0,1,0.4,1,1c0,0.6-0.4,1-1,1s-1-0.4-1-1
		C24.7,63.9,25.1,63.4,25.7,63.4z"/>
</g>
<g>
	<path d="M33.5,55.1V58l1-0.3v1.8l-1,0.3v3.4l1-0.3v1.8l-1,0.3v3.1H33v-3l-1.9,0.6v3h-0.5v-2.8l-1,0.3v-1.8l1-0.3v-3.4l-1,0.3v-1.8
		l1-0.3v-3.1h0.5v3l1.9-0.6v-3H33.5z M33,59.9l-1.9,0.6V64l1.9-0.6V59.9z"/>
</g>
<rect x="41.3" y="34.1" width="10.5" height="0.8"/>
<rect x="41.3" y="39.1" width="10.5" height="0.8"/>
<rect x="49.6" y="14.7" width="0.5" height="26.5"/>
<g>
	<path d="M43.2,42.8c0-1.8,2.5-3.5,4.5-3.5c1.3,0,2.3,0.7,2.3,1.7c0,1.7-2.5,3.5-4.6,3.5C44.2,44.5,43.2,43.9,43.2,42.8z"/>
</g>
<g>
	<path d="M43.2,37.8c0-1.8,2.5-3.5,4.5-3.5c1.3,0,2.3,0.7,2.3,1.7c0,1.7-2.5,3.5-4.6,3.5C44.2,39.6,43.2,38.9,43.2,37.8z"/>
</g>
<g>
	<path d="M43.2,32.9c0-1.8,2.5-3.5,4.5-3.5c1.3,0,2.3,0.7,2.3,1.7c0,1.7-2.5,3.5-4.6,3.5C44.2,34.6,43.2,34,43.2,32.9z"/>
</g>
<rect x="106.6" y="34.1" width="10.5" height="0.8"/>
<rect x="114.9" y="7.2" width="0.5" height="29"/>
<g>
	<path d="M108.4,37.8c0-1.8,2.5-3.5,4.5-3.5c1.3,0,2.3,0.7,2.3,1.7c0,1.7-2.5,3.5-4.6,3.5C109.4,39.6,108.4,38.9,108.4,37.8z"/>
</g>
<g>
	<path d="M108.4,32.9c0-1.8,2.5-3.5,4.5-3.5c1.3,0,2.3,0.7,2.3,1.7c0,1.7-2.5,3.5-4.6,3.5C109.4,34.6,108.4,34,108.4,32.9z"/>
</g>
<g>
	<path d="M108.4,25.4c0-1.8,2.5-3.5,4.5-3.5c1.3,0,2.3,0.7,2.3,1.7c0,1.7-2.5,3.5-4.6,3.5C109.4,27.2,108.4,26.5,108.4,25.4z"/>
</g>
<rect x="180.1" y="2.3" width="0.5" height="29"/>
<g>
	<path d="M173.7,32.9c0-1.8,2.5-3.5,4.5-3.5c1.3,0,2.3,0.7,2.3,1.7c0,1.7-2.5,3.5-4.6,3.5C174.7,34.6,173.7,34,173.7,32.9z"/>
</g>
<g>
	<path d="M173.7,25.4c0-1.8,2.5-3.5,4.5-3.5c1.3,0,2.3,0.7,2.3,1.7c0,1.7-2.5,3.5-4.6,3.5C174.7,27.2,173.7,26.5,173.7,25.4z"/>
</g>
<g>
	<path d="M173.7,20.5c0-1.8,2.5-3.5,4.5-3.5c1.3,0,2.3,0.7,2.3,1.7c0,1.7-2.5,3.5-4.6,3.5C174.7,22.2,173.7,21.6,173.7,20.5z"/>
</g>
<rect x="238.9" y="15.5" width="0.5" height="24"/>
<g>
	<path d="M239,15.5c0-1.8,2.5-3.5,4.5-3.5c1.3,0,2.3,0.7,2.3,1.7c0,1.7-2.5,3.5-4.6,3.5C239.9,17.3,239,16.6,239,15.5z"/>
</g>
<g>
	<path d="M239,20.5c0-1.8,2.5-3.5,4.5-3.5c1.3,0,2.3,0.7,2.3,1.7c0,1.7-2.5,3.5-4.6,3.5C239.9,22.2,239,21.6,239,20.5z"/>
</g>
<g>
	<path d="M239,25.4c0-1.8,2.5-3.5,4.5-3.5c1.3,0,2.3,0.7,2.3,1.7c0,1.7-2.5,3.5-4.6,3.5C239.9,27.2,239,26.5,239,25.4z"/>
</g>
<rect x="310.5" y="2.3" width="0.5" height="29"/>
<g>
	<path d="M304.1,32.9c0-1.8,2.5-3.5,4.5-3.5c1.3,0,2.3,0.7,2.3,1.7c0,1.7-2.5,3.5-4.6,3.5C305,34.6,304.1,34,304.1,32.9z"/>
</g>
<g>
	<path d="M304.1,25.4c0-1.8,2.5-3.5,4.5-3.5c1.3,0,2.3,0.7,2.3,1.7c0,1.7-2.5,3.5-4.6,3.5C305,27.2,304.1,26.5,304.1,25.4z"/>
</g>
<g>
	<path d="M304.1,20.5c0-1.8,2.5-3.5,4.5-3.5c1.3,0,2.3,0.7,2.3,1.7c0,1.7-2.5,3.5-4.6,3.5C305,22.2,304.1,21.6,304.1,20.5z"/>
</g>
<rect x="367.5" y="34.1" width="10.5" height="0.8"/>
<rect x="375.8" y="7.2" width="0.5" height="29"/>
<g>
	<path d="M369.3,37.8c0-1.8,2.5-3.5,4.5-3.5c1.3,0,2.3,0.7,2.3,1.7c0,1.7-2.5,3.5-4.6,3.5C370.3,39.6,369.3,38.9,369.3,37.8z"/>
</g>
<g>
	<path d="M369.3,32.9c0-1.8,2.5-3.5,4.5-3.5c1.3,0,2.3,0.7,2.3,1.7c0,1.7-2.5,3.5-4.6,3.5C370.3,34.6,369.3,34,369.3,32.9z"/>
</g>
<g>
	<path d="M369.3,25.4c0-1.8,2.5-3.5,4.5-3.5c1.3,0,2.3,0.7,2.3,1.7c0,1.7-2.5,3.5-4.6,3.5C370.3,27.2,369.3,26.5,369.3,25.4z"/>
</g>
<rect x="432.7" y="34.1" width="10.7" height="0.8"/>
<rect x="432.7" y="39.1" width="10.7" height="0.8"/>
<rect x="441.2" y="14.7" width="0.5" height="26.5"/>
<g>
	<path d="M438.9,39.3c1.6,0,2.7,0.7,2.7,2c0,1.9-2.3,3.4-4.5,3.4c-1.3,0-2.4-0.7-2.4-1.8C434.6,41,436.8,39.3,438.9,39.3z
		 M435.1,43.1c0,0.6,0.4,0.9,1.1,0.9c1.4,0,4.9-2.1,4.9-3.3c0-0.6-0.4-0.9-1.1-0.9C438.7,39.9,435.1,41.9,435.1,43.1z"/>
</g>
<g>
	<path d="M438.9,34.3c1.6,0,2.7,0.7,2.7,2c0,1.9-2.3,3.4-4.5,3.4c-1.3,0-2.4-0.7-2.4-1.8C434.6,36.1,436.8,34.3,438.9,34.3z
		 M435.1,38.1c0,0.6,0.4,0.9,1.1,0.9c1.4,0,4.9-2.1,4.9-3.3c0-0.6-0.4-0.9-1.1-0.9C438.7,34.9,435.1,36.9,435.1,38.1z"/>
</g>
<g>
	<path d="M438.9,29.3c1.6,0,2.7,0.7,2.7,2c0,1.9-2.3,3.4-4.5,3.4c-1.3,0-2.4-0.7-2.4-1.8C434.6,31.1,436.8,29.3,438.9,29.3z
		 M435.1,33.2c0,0.6,0.4,0.9,1.1,0.9c1.4,0,4.9-2.1,4.9-3.3c0-0.6-0.4-0.9-1.1-0.9C438.7,29.9,435.1,32,435.1,33.2z"/>
</g>
<rect x="49.6" y="49.6" width="0.5" height="26.5"/>
<g>
	<path d="M43.2,77.7c0-1.8,2.5-3.5,4.5-3.5c1.3,0,2.3,0.7,2.3,1.7c0,1.7-2.5,3.5-4.6,3.5C44.2,79.4,43.2,78.8,43.2,77.7z"/>
</g>
<g>
	<path d="M43.2,72.7c0-1.8,2.5-3.5,4.5-3.5C49,69.3,50,70,50,71c0,1.7-2.5,3.5-4.6,3.5C44.2,74.5,43.2,73.8,43.2,72.7z"/>
</g>
<g>
	<path d="M43.2,67.8c0-1.8,2.5-3.5,4.5-3.5C49,64.3,50,65,50,66c0,1.7-2.5,3.5-4.6,3.5C44.2,69.5,43.2,68.9,43.2,67.8z"/>
</g>
<rect x="108.4" y="60.2" width="0.5" height="26.5"/>
<g>
	<path d="M108.4,60.3c0-1.8,2.5-3.5,4.5-3.5c1.3,0,2.3,0.7,2.3,1.7c0,1.7-2.5,3.5-4.6,3.5C109.4,62.1,108.4,61.4,108.4,60.3z"/>
</g>
<g>
	<path d="M108.4,67.8c0-1.8,2.5-3.5,4.5-3.5c1.3,0,2.3,0.7,2.3,1.7c0,1.7-2.5,3.5-4.6,3.5C109.4,69.5,108.4,68.9,108.4,67.8z"/>
</g>
<g>
	<path d="M108.4,72.7c0-1.8,2.5-3.5,4.5-3.5c1.3,0,2.3,0.7,2.3,1.7c0,1.7-2.5,3.5-4.6,3.5C109.4,74.5,108.4,73.8,108.4,72.7z"/>
</g>
<rect x="173.6" y="55.3" width="0.5" height="29"/>
<g>
	<path d="M173.7,55.4c0-1.8,2.5-3.5,4.5-3.5c1.3,0,2.3,0.7,2.3,1.7c0,1.7-2.5,3.5-4.6,3.5C174.7,57.1,173.7,56.5,173.7,55.4z"/>
</g>
<g>
	<path d="M173.7,60.3c0-1.8,2.5-3.5,4.5-3.5c1.3,0,2.3,0.7,2.3,1.7c0,1.7-2.5,3.5-4.6,3.5C174.7,62.1,173.7,61.4,173.7,60.3z"/>
</g>
<g>
	<path d="M173.7,67.8c0-1.8,2.5-3.5,4.5-3.5c1.3,0,2.3,0.7,2.3,1.7c0,1.7-2.5,3.5-4.6,3.5C174.7,69.5,173.7,68.9,173.7,67.8z"/>
</g>
<rect x="237.1" y="51.6" width="10.5" height="0.8"/>
<rect x="238.9" y="50.3" width="0.5" height="26.5"/>
<g>
	<path d="M239,50.4c0-1.8,2.5-3.5,4.5-3.5c1.3,0,2.3,0.7,2.3,1.7c0,1.7-2.5,3.5-4.6,3.5C239.9,52.1,239,51.5,239,50.4z"/>
</g>
<g>
	<path d="M239,55.4c0-1.8,2.5-3.5,4.5-3.5c1.3,0,2.3,0.7,2.3,1.7c0,1.7-2.5,3.5-4.6,3.5C239.9,57.1,239,56.5,239,55.4z"/>
</g>
<g>
	<path d="M239,60.3c0-1.8,2.5-3.5,4.5-3.5c1.3,0,2.3,0.7,2.3,1.7c0,1.7-2.5,3.5-4.6,3.5C239.9,62.1,239,61.4,239,60.3z"/>
</g>
<rect x="304" y="55.3" width="0.5" height="29"/>
<g>
	<path d="M304.1,55.4c0-1.8,2.5-3.5,4.5-3.5c1.3,0,2.3,0.7,2.3,1.7c0,1.7-2.5,3.5-4.6,3.5C305,57.1,304.1,56.5,304.1,55.4z"/>
</g>
<g>
	<path d="M304.1,60.3c0-1.8,2.5-3.5,4.5-3.5c1.3,0,2.3,0.7,2.3,1.7c0,1.7-2.5,3.5-4.6,3.5C305,62.1,304.1,61.4,304.1,60.3z"/>
</g>
<g>
	<path d="M304.1,67.8c0-1.8,2.5-3.5,4.5-3.5c1.3,0,2.3,0.7,2.3,1.7c0,1.7-2.5,3.5-4.6,3.5C305,69.5,304.1,68.9,304.1,67.8z"/>
</g>
<rect x="369.3" y="60.2" width="0.5" height="26.5"/>
<g>
	<path d="M369.3,60.3c0-1.8,2.5-3.5,4.5-3.5c1.3,0,2.3,0.7,2.3,1.7c0,1.7-2.5,3.5-4.6,3.5C370.3,62.1,369.3,61.4,369.3,60.3z"/>
</g>
<g>
	<path d="M369.3,67.8c0-1.8,2.5-3.5,4.5-3.5c1.3,0,2.3,0.7,2.3,1.7c0,1.7-2.5,3.5-4.6,3.5C370.3,69.5,369.3,68.9,369.3,67.8z"/>
</g>
<g>
	<path d="M369.3,72.7c0-1.8,2.5-3.5,4.5-3.5c1.3,0,2.3,0.7,2.3,1.7c0,1.7-2.5,3.5-4.6,3.5C370.3,74.5,369.3,73.8,369.3,72.7z"/>
</g>
<rect x="441.2" y="49.6" width="0.5" height="26.5"/>
<g>
	<path d="M438.9,74.1c1.6,0,2.7,0.7,2.7,2c0,1.9-2.3,3.4-4.5,3.4c-1.3,0-2.4-0.7-2.4-1.8C434.6,75.9,436.8,74.1,438.9,74.1z
		 M435.1,78c0,0.6,0.4,0.9,1.1,0.9c1.4,0,4.9-2.1,4.9-3.3c0-0.6-0.4-0.9-1.1-0.9C438.7,74.7,435.1,76.8,435.1,78z"/>
</g>
<g>
	<path d="M438.9,69.2c1.6,0,2.7,0.7,2.7,2c0,1.9-2.3,3.4-4.5,3.4c-1.3,0-2.4-0.7-2.4-1.8C434.6,71,436.8,69.2,438.9,69.2z M435.1,73
		c0,0.6,0.4,0.9,1.1,0.9c1.4,0,4.9-2.1,4.9-3.3c0-0.6-0.4-0.9-1.1-0.9C438.7,69.8,435.1,71.8,435.1,73z"/>
</g>
<g>
	<path d="M438.9,64.2c1.6,0,2.7,0.7,2.7,2c0,1.9-2.3,3.4-4.5,3.4c-1.3,0-2.4-0.7-2.4-1.8C434.6,66,436.8,64.2,438.9,64.2z
		 M435.1,68.1c0,0.6,0.4,0.9,1.1,0.9c1.4,0,4.9-2.1,4.9-3.3c0-0.6-0.4-0.9-1.1-0.9C438.7,64.8,435.1,66.8,435.1,68.1z"/>
</g>
</svg>
