<?xml version="1.0" encoding="utf-8"?>

<!--
	ScaleBook
	Copyright (c) Leland Jansen 2015. All rights reserved.
-->

<!DOCTYPE svg PUBLIC "-//W3C//DTD SVG 1.1//EN" "http://www.w3.org/Graphics/SVG/1.1/DTD/svg11.dtd">
<svg version="1.1" id="Layer_1" xmlns="http://www.w3.org/2000/svg" xmlns:xlink="http://www.w3.org/1999/xlink" x="0px" y="0px"
	 viewBox="0 0 552.9 86.6" enable-background="new 0 0 552.9 86.6" xml:space="preserve">
<rect x="8.4" y="9.7" width="0.8" height="67"/>
<g>
	<path d="M7.4,10.4c-1.9,1.1-3.6,5.8-3.6,9.4c0,2.3,1.4,9.9,1.4,12.3c0,5-1.5,8.6-4.6,11.1c3,2.4,4.6,6.1,4.6,11
		c0,2.3-1.4,9.9-1.4,12.3c0,3.8,1.7,8.4,3.6,9.5v0.7c-3.5-2.3-5.8-8.2-5.8-13.1c0-2.1,1.7-9.4,1.7-11.5c0-3.8-1-6.6-2.9-8.2
		C0.1,43.6,0,43.4,0,43.2s0.1-0.4,0.5-0.7c1.9-1.7,2.9-4.2,2.9-7.6c0-2.1-1.7-10-1.7-12.2c0-5.2,2.1-10.4,5.8-13.1V10.4z"/>
</g>
<rect x="547.8" y="9.7" width="0.8" height="67"/>
<rect x="550.4" y="9.7" width="2.5" height="67"/>
<rect x="8.5" y="29.3" width="544.4" height="0.5"/>
<rect x="8.5" y="24.4" width="544.4" height="0.5"/>
<rect x="8.5" y="19.4" width="544.4" height="0.5"/>
<rect x="8.5" y="14.4" width="544.4" height="0.5"/>
<rect x="8.5" y="9.5" width="544.4" height="0.5"/>
<g>
	<path d="M20.3,29.4c-4.2,0-8.1-3.1-8.1-6.9c0-3.2,2.3-6.7,6.8-10.5c-0.3-1.2-0.4-2.4-0.4-3.6c0-3.5,1.2-6.8,3.2-8.5
		c1.8,2.5,2.7,4.9,2.7,7.1c0,2.9-1.3,5.6-4.3,8.1l0.9,4.2c0.5,0,0.8-0.1,0.8-0.1c2.6,0,4.8,2,4.8,4.7c0,1.9-1.4,3.7-3.6,4.8
		c0-0.1,0.9,3.8,0.9,4.3c0,2.5-2.3,4.2-4.9,4.2c-2,0-3.6-1.3-3.6-3.4c0-1.4,1-2.6,2.4-2.6c1.3,0,2.3,1.3,2.3,2.5
		c0,1.4-1.2,2.3-2.7,2.5c0.6,0.3,1.2,0.5,1.9,0.5c2.1,0,4.1-1.6,4.1-3.6c0-0.2,0-0.4-0.1-0.6l-0.8-3.7
		C21.9,29.3,21.2,29.4,20.3,29.4z M18.1,24.2c0,1,0.5,1.9,1.6,2.5c-1.8-0.3-3-1.4-3-3.1c0-2,1.7-3.7,3.8-4.1l-0.8-4
		C16,18.3,14,21,14,23.6c0,2.9,2.8,5.3,6,5.3c0.9,0,1.7-0.2,2.4-0.5L21,21.6C19.4,21.8,18.1,22.8,18.1,24.2z M22.1,2.8
		c-1.6,0-2.9,3.7-2.9,7c0,0.7,0,1.3,0.2,1.9c2.7-2.4,4-4.5,4-6.5c0-0.9-0.3-1.7-1-2.4C22.4,2.9,22.3,2.8,22.1,2.8z M24.9,24.7
		c0-1.6-1.2-3.3-2.9-3.3c-0.1,0-0.2,0-0.5,0l1.4,6.6C24.2,27.2,24.9,26,24.9,24.7z"/>
</g>
<polygon fill-rule="evenodd" clip-rule="evenodd" points="43.6,25.8 90.6,20.9 90.6,18.4 43.6,23.4 "/>
<polygon fill-rule="evenodd" clip-rule="evenodd" points="43.6,22.1 90.6,17.2 90.6,14.7 43.6,19.6 "/>
<polygon fill-rule="evenodd" clip-rule="evenodd" points="106.3,15.9 153.4,11 153.4,8.5 106.3,13.4 "/>
<polygon fill-rule="evenodd" clip-rule="evenodd" points="106.3,12.2 153.4,7.2 153.4,4.8 106.3,9.7 "/>
<polygon fill-rule="evenodd" clip-rule="evenodd" points="173.2,30.8 220.2,25.8 220.2,23.4 173.2,28.3 "/>
<polygon fill-rule="evenodd" clip-rule="evenodd" points="173.2,34.5 220.2,29.6 220.2,27.1 173.2,32 "/>
<polygon fill-rule="evenodd" clip-rule="evenodd" points="235.9,22.1 283,20.9 283,18.4 235.9,19.6 "/>
<polygon fill-rule="evenodd" clip-rule="evenodd" points="235.9,25.8 283,24.6 283,22.1 235.9,23.4 "/>
<polygon fill-rule="evenodd" clip-rule="evenodd" points="298.6,25.8 345.6,30.8 345.6,28.3 298.6,23.4 "/>
<polygon fill-rule="evenodd" clip-rule="evenodd" points="298.6,29.6 345.6,34.5 345.6,32 298.6,27.1 "/>
<polygon fill-rule="evenodd" clip-rule="evenodd" points="378.5,11 425.6,15.9 425.6,13.4 378.5,8.5 "/>
<polygon fill-rule="evenodd" clip-rule="evenodd" points="378.5,7.2 425.6,12.2 425.6,9.7 378.5,4.8 "/>
<polygon fill-rule="evenodd" clip-rule="evenodd" points="441.3,20.9 488.2,25.8 488.2,23.4 441.3,18.4 "/>
<polygon fill-rule="evenodd" clip-rule="evenodd" points="441.3,17.2 488.2,22.1 488.2,19.6 441.3,14.7 "/>
<rect x="8.5" y="76.4" width="544.4" height="0.5"/>
<rect x="8.5" y="71.5" width="544.4" height="0.5"/>
<rect x="8.5" y="66.5" width="544.4" height="0.5"/>
<rect x="8.5" y="61.6" width="544.4" height="0.5"/>
<rect x="8.5" y="56.6" width="544.4" height="0.5"/>
<g>
	<path d="M15.7,71c2.9-2.6,4.7-6.1,4.7-9.2c0-2.5-1.4-4.4-3.7-4.4c-1.6,0-3.4,1.3-3.4,2.7c0,0.2,0,0.3,0.1,0.3
		c-0.1,0,0.6-0.6,1.4-0.6c0.9,0,1.5,0.8,1.5,1.7c0,1.2-0.9,2.2-2.1,2.2c-1.2,0-2.1-1.3-2.1-2.8c0-2.3,2.3-4.1,4.8-4.1
		c4.7,0,5.9,3.2,5.9,5.8c0,1.6-0.4,2.9-2,5.3c-1.9,3.1-6.4,5.3-8.1,5.3c-0.4,0-0.6-0.2-0.6-0.5C13.8,72.3,14.9,71.7,15.7,71z
		 M25.7,58.3c0.6,0,1,0.4,1,1s-0.4,1-1,1s-1-0.4-1-1S25.1,58.3,25.7,58.3z M25.7,63.3c0.6,0,1,0.4,1,1s-0.4,1-1,1s-1-0.4-1-1
		S25.1,63.3,25.7,63.3z"/>
</g>
<polygon fill-rule="evenodd" clip-rule="evenodd" points="37.1,82.9 84.1,77.9 84.1,75.4 37.1,80.4 "/>
<polygon fill-rule="evenodd" clip-rule="evenodd" points="37.1,86.6 84.1,81.6 84.1,79.2 37.1,84.1 "/>
<g>
	<path d="M167.1,75.3c-3.2,0-6.1-2.3-6.1-5.1c0-2.4,1.7-5,5.1-7.9c-0.2-0.9-0.3-1.8-0.3-2.7c0-2.6,0.9-5.1,2.4-6.3
		c1.4,1.9,2,3.7,2,5.3c0,2.2-1,4.2-3.2,6.1l0.7,3.1c0.4,0,0.6,0,0.6,0c2,0,3.6,1.5,3.6,3.5c0,1.4-1.1,2.8-2.7,3.6
		c0-0.1,0.6,2.8,0.6,3.3c0,1.9-1.7,3.2-3.7,3.2c-1.5,0-2.7-1-2.7-2.5c0-1.1,0.7-1.9,1.8-1.9c1,0,1.7,1,1.7,1.9c0,1-0.9,1.7-2,1.8
		c0.4,0.2,0.9,0.3,1.4,0.3c1.6,0,3.1-1.2,3.1-2.7c0-0.1,0-0.3,0-0.5l-0.6-2.8C168.3,75.2,167.8,75.3,167.1,75.3z M165.4,71.4
		c0,0.8,0.4,1.4,1.2,1.9c-1.3-0.2-2.2-1.1-2.2-2.3c0-1.5,1.3-2.8,2.9-3.1l-0.6-3c-2.8,2.1-4.3,4.1-4.3,6.1c0,2.2,2.1,4,4.5,4
		c0.7,0,1.3-0.1,1.8-0.4l-1.1-5.1C166.4,69.6,165.4,70.4,165.4,71.4z M168.5,55.4c-1.2,0-2.2,2.8-2.2,5.3c0,0.5,0,1,0.1,1.4
		c2-1.8,3-3.4,3-4.8c0-0.7-0.3-1.3-0.7-1.8C168.7,55.4,168.6,55.4,168.5,55.4z M170.5,71.8c0-1.2-0.9-2.4-2.2-2.4c0,0-0.2,0-0.4,0
		l1.1,5C170,73.7,170.5,72.8,170.5,71.8z"/>
</g>
<polygon fill-rule="evenodd" clip-rule="evenodd" points="99.8,73 146.9,68 146.9,65.5 99.8,70.5 "/>
<polygon fill-rule="evenodd" clip-rule="evenodd" points="99.8,76.7 146.9,71.7 146.9,69.2 99.8,74.2 "/>
<polygon fill-rule="evenodd" clip-rule="evenodd" points="179.8,68 226.7,63 226.7,60.6 179.8,65.5 "/>
<polygon fill-rule="evenodd" clip-rule="evenodd" points="179.8,64.3 226.7,59.3 226.7,56.8 179.8,61.8 "/>
<polygon fill-rule="evenodd" clip-rule="evenodd" points="235.9,81.6 283,80.4 283,77.9 235.9,79.2 "/>
<polygon fill-rule="evenodd" clip-rule="evenodd" points="235.9,85.4 283,84.1 283,81.6 235.9,82.9 "/>
<g>
	<path d="M360.5,68.7c2.2-2,3.6-4.6,3.6-6.9c0-1.9-1.1-3.3-2.8-3.3c-1.2,0-2.5,1-2.5,2.1c0,0.2,0,0.2,0.1,0.2c0,0,0.4-0.5,1-0.5
		c0.7,0,1.2,0.6,1.2,1.3c0,0.9-0.6,1.7-1.6,1.7s-1.5-1-1.5-2.1c0-1.8,1.7-3.1,3.6-3.1c3.5,0,4.4,2.4,4.4,4.4c0,1.2-0.3,2.2-1.5,4
		c-1.4,2.3-4.8,4-6,4c-0.3,0-0.5-0.1-0.5-0.3C359.1,69.7,359.9,69.2,360.5,68.7z M368,59.2c0.4,0,0.7,0.3,0.7,0.7
		c0,0.4-0.3,0.7-0.7,0.7c-0.4,0-0.7-0.3-0.7-0.7C367.2,59.5,367.6,59.2,368,59.2z M368,62.9c0.4,0,0.7,0.3,0.7,0.7s-0.3,0.7-0.7,0.7
		c-0.4,0-0.7-0.3-0.7-0.7S367.6,62.9,368,62.9z"/>
</g>
<polygon fill-rule="evenodd" clip-rule="evenodd" points="305.2,58.1 352.1,63 352.1,60.6 305.2,55.6 "/>
<polygon fill-rule="evenodd" clip-rule="evenodd" points="305.2,54.4 352.1,59.3 352.1,56.8 305.2,51.9 "/>
<polygon fill-rule="evenodd" clip-rule="evenodd" points="372,63 419.1,68 419.1,65.5 372,60.6 "/>
<polygon fill-rule="evenodd" clip-rule="evenodd" points="372,66.8 419.1,71.7 419.1,69.2 372,64.3 "/>
<polygon fill-rule="evenodd" clip-rule="evenodd" points="434.8,73 481.7,77.9 481.7,75.4 434.8,70.5 "/>
<polygon fill-rule="evenodd" clip-rule="evenodd" points="434.8,76.7 481.7,81.6 481.7,79.2 434.8,74.2 "/>
<rect x="35.1" y="34.1" width="10.5" height="0.8"/>
<rect x="35.1" y="39.1" width="10.5" height="0.8"/>
<rect x="43.4" y="19.8" width="0.5" height="18.9"/>
<g>
	<path d="M37,40.3c0-1.8,2.5-3.5,4.5-3.5c1.3,0,2.3,0.7,2.3,1.7c0,1.7-2.5,3.5-4.6,3.5C38,42.1,37,41.4,37,40.3z"/>
</g>
<rect x="50.8" y="34.1" width="10.5" height="0.8"/>
<rect x="59.1" y="18.2" width="0.5" height="18"/>
<g>
	<path d="M52.6,37.8c0-1.8,2.5-3.5,4.5-3.5c1.3,0,2.3,0.7,2.3,1.7c0,1.7-2.5,3.5-4.6,3.5C53.6,39.6,52.6,38.9,52.6,37.8z"/>
</g>
<rect x="66.4" y="34.1" width="10.5" height="0.8"/>
<rect x="74.7" y="16.5" width="0.5" height="17.2"/>
<g>
	<path d="M68.3,35.4c0-1.8,2.5-3.5,4.5-3.5c1.3,0,2.3,0.7,2.3,1.7c0,1.7-2.5,3.5-4.6,3.5C69.3,37.1,68.3,36.5,68.3,35.4z"/>
</g>
<rect x="90.4" y="14.8" width="0.5" height="16.4"/>
<g>
	<path d="M84,32.9c0-1.8,2.5-3.5,4.5-3.5c1.3,0,2.3,0.7,2.3,1.7c0,1.7-2.5,3.5-4.6,3.5C84.9,34.6,84,34,84,32.9z"/>
</g>
<rect x="106" y="9.9" width="0.5" height="18.9"/>
<g>
	<path d="M99.6,30.4c0-1.8,2.5-3.5,4.5-3.5c1.3,0,2.3,0.7,2.3,1.7c0,1.7-2.5,3.5-4.6,3.5C100.6,32.1,99.6,31.5,99.6,30.4z"/>
</g>
<rect x="121.9" y="8.3" width="0.5" height="18"/>
<g>
	<path d="M115.4,27.9c0-1.8,2.5-3.5,4.5-3.5c1.3,0,2.3,0.7,2.3,1.7c0,1.7-2.5,3.5-4.6,3.5C116.4,29.7,115.4,29,115.4,27.9z"/>
</g>
<rect x="137.5" y="6.6" width="0.5" height="17.2"/>
<g>
	<path d="M131.1,25.5c0-1.8,2.5-3.5,4.5-3.5c1.3,0,2.3,0.7,2.3,1.7c0,1.7-2.5,3.5-4.6,3.5C132,27.2,131.1,26.5,131.1,25.5z"/>
</g>
<g>
	<path d="M128.6,17.8v2.8l1-0.3v1.8l-1,0.3v3.4l1-0.3v1.8l-1,0.3v3.1h-0.5v-3l-1.9,0.6v3h-0.5v-2.8l-1,0.3v-1.8l1-0.3v-3.4l-1,0.3
		v-1.8l1-0.3v-3.1h0.5v3l1.9-0.6v-3H128.6z M128.2,22.6l-1.9,0.6v3.4l1.9-0.6V22.6z"/>
</g>
<rect x="153.2" y="4.9" width="0.5" height="16.4"/>
<g>
	<path d="M146.7,23c0-1.8,2.5-3.5,4.5-3.5c1.3,0,2.3,0.7,2.3,1.7c0,1.7-2.5,3.5-4.6,3.5C147.7,24.7,146.7,24.1,146.7,23z"/>
</g>
<rect x="173" y="20.4" width="0.5" height="14"/>
<g>
	<path d="M173.1,20.5c0-1.8,2.5-3.5,4.5-3.5c1.3,0,2.3,0.7,2.3,1.7c0,1.7-2.5,3.5-4.6,3.5C174.1,22.2,173.1,21.6,173.1,20.5z"/>
</g>
<rect x="188.7" y="17.9" width="0.5" height="14.9"/>
<g>
	<path d="M188.7,18c0-1.8,2.5-3.5,4.5-3.5c1.3,0,2.3,0.7,2.3,1.7c0,1.7-2.5,3.5-4.6,3.5C189.7,19.7,188.7,19.1,188.7,18z"/>
</g>
<rect x="204.3" y="15.5" width="0.5" height="15.7"/>
<g>
	<path d="M204.4,15.5c0-1.8,2.5-3.5,4.5-3.5c1.3,0,2.3,0.7,2.3,1.7c0,1.7-2.5,3.5-4.6,3.5C205.4,17.3,204.4,16.6,204.4,15.5z"/>
</g>
<rect x="220" y="13" width="0.5" height="16.4"/>
<g>
	<path d="M220.1,13c0-1.8,2.5-3.5,4.5-3.5c1.3,0,2.3,0.7,2.3,1.7c0,1.7-2.5,3.5-4.6,3.5C221,14.8,220.1,14.1,220.1,13z"/>
</g>
<rect x="235.6" y="10.5" width="0.5" height="15.2"/>
<g>
	<path d="M235.7,10.6c0-1.8,2.5-3.5,4.5-3.5c1.3,0,2.3,0.7,2.3,1.7c0,1.7-2.5,3.5-4.6,3.5C236.7,12.3,235.7,11.7,235.7,10.6z"/>
</g>
<rect x="251.3" y="8" width="0.5" height="17.4"/>
<g>
	<path d="M251.4,8.1c0-1.8,2.5-3.5,4.5-3.5c1.3,0,2.3,0.7,2.3,1.7c0,1.7-2.5,3.5-4.6,3.5C252.3,9.8,251.4,9.2,251.4,8.1z"/>
</g>
<g>
	<path d="M248.9,0.4v2.8l1-0.3v1.8l-1,0.3v3.4l1-0.3V10l-1,0.3v3.1h-0.5v-3l-1.9,0.6v3H246v-2.8l-1,0.3V9.7l1-0.3V6l-1,0.3V4.5
		l1-0.3V1h0.5v3l1.9-0.6v-3H248.9z M248.4,5.2l-1.9,0.6v3.4l1.9-0.6V5.2z"/>
</g>
<rect x="265.3" y="4.4" width="10.5" height="0.8"/>
<rect x="267.1" y="5.5" width="0.5" height="19.4"/>
<g>
	<path d="M267.2,5.6c0-1.8,2.5-3.5,4.5-3.5c1.3,0,2.3,0.7,2.3,1.7c0,1.7-2.5,3.5-4.6,3.5C268.2,7.3,267.2,6.7,267.2,5.6z"/>
</g>
<rect x="282.8" y="8" width="0.5" height="16.4"/>
<g>
	<path d="M282.8,8.1c0-1.8,2.5-3.5,4.5-3.5c1.3,0,2.3,0.7,2.3,1.7c0,1.7-2.5,3.5-4.6,3.5C283.8,9.8,282.8,9.2,282.8,8.1z"/>
</g>
<rect x="298.4" y="10.5" width="0.5" height="18.9"/>
<g>
	<path d="M298.5,10.6c0-1.8,2.5-3.5,4.5-3.5c1.3,0,2.3,0.7,2.3,1.7c0,1.7-2.5,3.5-4.6,3.5C299.5,12.3,298.5,11.7,298.5,10.6z"/>
</g>
<rect x="314.1" y="13" width="0.5" height="18"/>
<g>
	<path d="M314.1,13c0-1.8,2.5-3.5,4.5-3.5c1.3,0,2.3,0.7,2.3,1.7c0,1.7-2.5,3.5-4.6,3.5C315.1,14.8,314.1,14.1,314.1,13z"/>
</g>
<rect x="329.7" y="15.5" width="0.5" height="17.2"/>
<g>
	<path d="M329.8,15.5c0-1.8,2.5-3.5,4.5-3.5c1.3,0,2.3,0.7,2.3,1.7c0,1.7-2.5,3.5-4.6,3.5C330.8,17.3,329.8,16.6,329.8,15.5z"/>
</g>
<rect x="345.4" y="17.9" width="0.5" height="16.4"/>
<g>
	<path d="M345.5,18c0-1.8,2.5-3.5,4.5-3.5c1.3,0,2.3,0.7,2.3,1.7c0,1.7-2.5,3.5-4.6,3.5C346.4,19.7,345.5,19.1,345.5,18z"/>
</g>
<rect x="378.2" y="4.9" width="0.5" height="14"/>
<g>
	<path d="M371.8,20.5c0-1.8,2.5-3.5,4.5-3.5c1.3,0,2.3,0.7,2.3,1.7c0,1.7-2.5,3.5-4.6,3.5C372.8,22.2,371.8,21.6,371.8,20.5z"/>
</g>
<rect x="393.9" y="6.5" width="0.5" height="14.9"/>
<g>
	<path d="M387.5,23c0-1.8,2.5-3.5,4.5-3.5c1.3,0,2.3,0.7,2.3,1.7c0,1.7-2.5,3.5-4.6,3.5C388.4,24.7,387.5,24.1,387.5,23z"/>
</g>
<rect x="409.6" y="8.2" width="0.5" height="15.7"/>
<g>
	<path d="M403.1,25.5c0-1.8,2.5-3.5,4.5-3.5c1.3,0,2.3,0.7,2.3,1.7c0,1.7-2.5,3.5-4.6,3.5C404.1,27.2,403.1,26.5,403.1,25.5z"/>
</g>
<rect x="425.4" y="9.9" width="0.5" height="16.4"/>
<g>
	<path d="M418.9,27.9c0-1.8,2.5-3.5,4.5-3.5c1.3,0,2.3,0.7,2.3,1.7c0,1.7-2.5,3.5-4.6,3.5C419.9,29.7,418.9,29,418.9,27.9z"/>
</g>
<rect x="441" y="14.8" width="0.5" height="14"/>
<g>
	<path d="M434.6,30.4c0-1.8,2.5-3.5,4.5-3.5c1.3,0,2.3,0.7,2.3,1.7c0,1.7-2.5,3.5-4.6,3.5C435.6,32.1,434.6,31.5,434.6,30.4z"/>
</g>
<rect x="456.7" y="16.4" width="0.5" height="14.9"/>
<g>
	<path d="M450.3,32.9c0-1.8,2.5-3.5,4.5-3.5c1.3,0,2.3,0.7,2.3,1.7c0,1.7-2.5,3.5-4.6,3.5C451.2,34.6,450.3,34,450.3,32.9z"/>
</g>
<rect x="464" y="34.1" width="10.5" height="0.8"/>
<rect x="472.3" y="18.1" width="0.5" height="15.7"/>
<g>
	<path d="M465.9,35.4c0-1.8,2.5-3.5,4.5-3.5c1.3,0,2.3,0.7,2.3,1.7c0,1.7-2.5,3.5-4.6,3.5C466.9,37.1,465.9,36.5,465.9,35.4z"/>
</g>
<rect x="479.7" y="34.1" width="10.5" height="0.8"/>
<rect x="488" y="19.8" width="0.5" height="16.4"/>
<g>
	<path d="M481.6,37.8c0-1.8,2.5-3.5,4.5-3.5c1.3,0,2.3,0.7,2.3,1.7c0,1.7-2.5,3.5-4.6,3.5C482.5,39.6,481.6,38.9,481.6,37.8z"/>
</g>
<rect x="495.4" y="34.1" width="10.7" height="0.8"/>
<rect x="495.4" y="39.1" width="10.7" height="0.8"/>
<rect x="503.8" y="19.6" width="0.5" height="19.1"/>
<g>
	<path d="M501.5,36.8c1.6,0,2.7,0.7,2.7,2c0,1.9-2.3,3.4-4.5,3.4c-1.3,0-2.4-0.7-2.4-1.8C497.2,38.6,499.5,36.8,501.5,36.8z
		 M497.7,40.6c0,0.6,0.4,0.9,1.1,0.9c1.4,0,4.9-2.1,4.9-3.3c0-0.6-0.4-0.9-1.1-0.9C501.3,37.4,497.7,39.4,497.7,40.6z"/>
</g>
<rect x="36.9" y="70" width="0.5" height="16.4"/>
<g>
	<path d="M37,70.1c0-1.8,2.5-3.5,4.5-3.5c1.3,0,2.3,0.7,2.3,1.7c0,1.7-2.5,3.5-4.6,3.5C38,71.8,37,71.2,37,70.1z"/>
</g>
<rect x="52.6" y="67.5" width="0.5" height="17.4"/>
<g>
	<path d="M52.6,67.6c0-1.8,2.5-3.5,4.5-3.5c1.3,0,2.3,0.7,2.3,1.7c0,1.7-2.5,3.5-4.6,3.5C53.6,69.3,52.6,68.7,52.6,67.6z"/>
</g>
<rect x="68.2" y="65.1" width="0.5" height="18.1"/>
<g>
	<path d="M68.3,65.1c0-1.8,2.5-3.5,4.5-3.5c1.3,0,2.3,0.7,2.3,1.7c0,1.7-2.5,3.5-4.6,3.5C69.3,66.9,68.3,66.2,68.3,65.1z"/>
</g>
<rect x="83.9" y="62.6" width="0.5" height="18.9"/>
<g>
	<path d="M84,62.7c0-1.8,2.5-3.5,4.5-3.5c1.3,0,2.3,0.7,2.3,1.7c0,1.7-2.5,3.5-4.6,3.5C84.9,64.4,84,63.7,84,62.7z"/>
</g>
<rect x="99.5" y="60.1" width="0.5" height="16.4"/>
<g>
	<path d="M99.6,60.2c0-1.8,2.5-3.5,4.5-3.5c1.3,0,2.3,0.7,2.3,1.7c0,1.7-2.5,3.5-4.6,3.5C100.6,61.9,99.6,61.3,99.6,60.2z"/>
</g>
<g>
	<path d="M97.2,52.5v2.8l1-0.3v1.8l-1,0.3v3.4l1-0.3V62l-1,0.3v3.1h-0.5v-3l-1.9,0.6v3h-0.5v-2.8l-1,0.3v-1.8l1-0.3V58l-1,0.3v-1.8
		l1-0.3v-3.1h0.5v3l1.9-0.6v-3H97.2z M96.7,57.3l-1.9,0.6v3.4l1.9-0.6V57.3z"/>
</g>
<rect x="115.3" y="57.6" width="0.5" height="17.4"/>
<g>
	<path d="M115.4,57.7c0-1.8,2.5-3.5,4.5-3.5c1.3,0,2.3,0.7,2.3,1.7c0,1.7-2.5,3.5-4.6,3.5C116.4,59.4,115.4,58.8,115.4,57.7z"/>
</g>
<rect x="131" y="55.1" width="0.5" height="18.1"/>
<g>
	<path d="M131.1,55.2c0-1.8,2.5-3.5,4.5-3.5c1.3,0,2.3,0.7,2.3,1.7c0,1.7-2.5,3.5-4.6,3.5C132,56.9,131.1,56.3,131.1,55.2z"/>
</g>
<rect x="144.9" y="51.5" width="10.5" height="0.8"/>
<rect x="146.7" y="52.7" width="0.5" height="18.9"/>
<g>
	<path d="M146.7,52.7c0-1.8,2.5-3.5,4.5-3.5c1.3,0,2.3,0.7,2.3,1.7c0,1.7-2.5,3.5-4.6,3.5C147.7,54.5,146.7,53.8,146.7,52.7z"/>
</g>
<rect x="179.5" y="62" width="0.5" height="16.4"/>
<g>
	<path d="M173.1,80c0-1.8,2.5-3.5,4.5-3.5c1.3,0,2.3,0.7,2.3,1.7c0,1.7-2.5,3.5-4.6,3.5C174.1,81.7,173.1,81.1,173.1,80z"/>
</g>
<rect x="195.2" y="60.4" width="0.5" height="15.5"/>
<g>
	<path d="M188.7,77.5c0-1.8,2.5-3.5,4.5-3.5c1.3,0,2.3,0.7,2.3,1.7c0,1.7-2.5,3.5-4.6,3.5C189.7,79.3,188.7,78.6,188.7,77.5z"/>
</g>
<rect x="210.8" y="58.7" width="0.5" height="14.7"/>
<g>
	<path d="M204.4,75.1c0-1.8,2.5-3.5,4.5-3.5c1.3,0,2.3,0.7,2.3,1.7c0,1.7-2.5,3.5-4.6,3.5C205.4,76.8,204.4,76.1,204.4,75.1z"/>
</g>
<rect x="226.5" y="57" width="0.5" height="14"/>
<g>
	<path d="M220.1,72.6c0-1.8,2.5-3.5,4.5-3.5c1.3,0,2.3,0.7,2.3,1.7c0,1.7-2.5,3.5-4.6,3.5C221,74.3,220.1,73.7,220.1,72.6z"/>
</g>
<g>
	<path d="M217.6,64.9v2.8l1-0.3v1.8l-1,0.3V73l1-0.3v1.8l-1,0.3v3.1h-0.5v-3l-1.9,0.6v3h-0.5v-2.8l-1,0.3v-1.8l1-0.3v-3.4l-1,0.3V69
		l1-0.3v-3.1h0.5v3l1.9-0.6v-3H217.6z M217.1,69.7l-1.9,0.6v3.4l1.9-0.6V69.7z"/>
</g>
<rect x="235.6" y="70" width="0.5" height="15.2"/>
<g>
	<path d="M235.7,70.1c0-1.8,2.5-3.5,4.5-3.5c1.3,0,2.3,0.7,2.3,1.7c0,1.7-2.5,3.5-4.6,3.5C236.7,71.8,235.7,71.2,235.7,70.1z"/>
</g>
<rect x="251.3" y="67.5" width="0.5" height="17.4"/>
<g>
	<path d="M251.4,67.6c0-1.8,2.5-3.5,4.5-3.5c1.3,0,2.3,0.7,2.3,1.7c0,1.7-2.5,3.5-4.6,3.5C252.3,69.3,251.4,68.7,251.4,67.6z"/>
</g>
<rect x="267.1" y="65.1" width="0.5" height="19.4"/>
<g>
	<path d="M267.2,65.1c0-1.8,2.5-3.5,4.5-3.5c1.3,0,2.3,0.7,2.3,1.7c0,1.7-2.5,3.5-4.6,3.5C268.2,66.9,267.2,66.2,267.2,65.1z"/>
</g>
<rect x="282.8" y="67.5" width="0.5" height="16.4"/>
<g>
	<path d="M282.8,67.6c0-1.8,2.5-3.5,4.5-3.5c1.3,0,2.3,0.7,2.3,1.7c0,1.7-2.5,3.5-4.6,3.5C283.8,69.3,282.8,68.7,282.8,67.6z"/>
</g>
<rect x="304.9" y="52" width="0.5" height="16.4"/>
<g>
	<path d="M298.5,70.1c0-1.8,2.5-3.5,4.5-3.5c1.3,0,2.3,0.7,2.3,1.7c0,1.7-2.5,3.5-4.6,3.5C299.5,71.8,298.5,71.2,298.5,70.1z"/>
</g>
<rect x="320.6" y="53.6" width="0.5" height="17.4"/>
<g>
	<path d="M314.1,72.6c0-1.8,2.5-3.5,4.5-3.5c1.3,0,2.3,0.7,2.3,1.7c0,1.7-2.5,3.5-4.6,3.5C315.1,74.3,314.1,73.7,314.1,72.6z"/>
</g>
<rect x="336.2" y="55.3" width="0.5" height="18.1"/>
<g>
	<path d="M329.8,75.1c0-1.8,2.5-3.5,4.5-3.5c1.3,0,2.3,0.7,2.3,1.7c0,1.7-2.5,3.5-4.6,3.5C330.8,76.8,329.8,76.1,329.8,75.1z"/>
</g>
<rect x="351.9" y="57" width="0.5" height="18.9"/>
<g>
	<path d="M345.5,77.5c0-1.8,2.5-3.5,4.5-3.5c1.3,0,2.3,0.7,2.3,1.7c0,1.7-2.5,3.5-4.6,3.5C346.4,79.3,345.5,78.6,345.5,77.5z"/>
</g>
<rect x="370" y="51.5" width="10.5" height="0.8"/>
<rect x="371.7" y="50.2" width="0.5" height="16.4"/>
<g>
	<path d="M371.8,50.3c0-1.8,2.5-3.5,4.5-3.5c1.3,0,2.3,0.7,2.3,1.7c0,1.7-2.5,3.5-4.6,3.5C372.8,52,371.8,51.3,371.8,50.3z"/>
</g>
<rect x="385.6" y="51.5" width="10.5" height="0.8"/>
<rect x="387.4" y="52.7" width="0.5" height="15.5"/>
<g>
	<path d="M387.5,52.7c0-1.8,2.5-3.5,4.5-3.5c1.3,0,2.3,0.7,2.3,1.7c0,1.7-2.5,3.5-4.6,3.5C388.4,54.5,387.5,53.8,387.5,52.7z"/>
</g>
<rect x="403.1" y="55.1" width="0.5" height="14.7"/>
<g>
	<path d="M403.1,55.2c0-1.8,2.5-3.5,4.5-3.5c1.3,0,2.3,0.7,2.3,1.7c0,1.7-2.5,3.5-4.6,3.5C404.1,56.9,403.1,56.3,403.1,55.2z"/>
</g>
<rect x="418.9" y="57.6" width="0.5" height="14"/>
<g>
	<path d="M418.9,57.7c0-1.8,2.5-3.5,4.5-3.5c1.3,0,2.3,0.7,2.3,1.7c0,1.7-2.5,3.5-4.6,3.5C419.9,59.4,418.9,58.8,418.9,57.7z"/>
</g>
<rect x="434.5" y="60.1" width="0.5" height="16.4"/>
<g>
	<path d="M434.6,60.2c0-1.8,2.5-3.5,4.5-3.5c1.3,0,2.3,0.7,2.3,1.7c0,1.7-2.5,3.5-4.6,3.5C435.6,61.9,434.6,61.3,434.6,60.2z"/>
</g>
<rect x="450.2" y="62.6" width="0.5" height="15.5"/>
<g>
	<path d="M450.3,62.7c0-1.8,2.5-3.5,4.5-3.5c1.3,0,2.3,0.7,2.3,1.7c0,1.7-2.5,3.5-4.6,3.5C451.2,64.4,450.3,63.7,450.3,62.7z"/>
</g>
<rect x="465.8" y="65.1" width="0.5" height="14.7"/>
<g>
	<path d="M465.9,65.1c0-1.8,2.5-3.5,4.5-3.5c1.3,0,2.3,0.7,2.3,1.7c0,1.7-2.5,3.5-4.6,3.5C466.9,66.9,465.9,66.2,465.9,65.1z"/>
</g>
<rect x="481.5" y="67.5" width="0.5" height="14"/>
<g>
	<path d="M481.6,67.6c0-1.8,2.5-3.5,4.5-3.5c1.3,0,2.3,0.7,2.3,1.7c0,1.7-2.5,3.5-4.6,3.5C482.5,69.3,481.6,68.7,481.6,67.6z"/>
</g>
<rect x="503.8" y="51.9" width="0.5" height="16.6"/>
<g>
	<path d="M501.5,66.5c1.6,0,2.7,0.7,2.7,2c0,1.9-2.3,3.4-4.5,3.4c-1.3,0-2.4-0.7-2.4-1.8C497.2,68.3,499.5,66.5,501.5,66.5z
		 M497.7,70.4c0,0.6,0.4,0.9,1.1,0.9c1.4,0,4.9-2.1,4.9-3.3c0-0.6-0.4-0.9-1.1-0.9C501.3,67.1,497.7,69.2,497.7,70.4z"/>
</g>
</svg>
