<?xml version="1.0" encoding="utf-8"?>

<!--
	ScaleBook
	Copyright (c) Leland Jansen 2015. All rights reserved.
-->

<!DOCTYPE svg PUBLIC "-//W3C//DTD SVG 1.1//EN" "http://www.w3.org/Graphics/SVG/1.1/DTD/svg11.dtd">
<svg version="1.1" id="Layer_1" xmlns="http://www.w3.org/2000/svg" xmlns:xlink="http://www.w3.org/1999/xlink" x="0px" y="0px"
	 viewBox="0 0 552.9 87.4" enable-background="new 0 0 552.9 87.4" xml:space="preserve">
<rect x="8.4" y="14.3" width="0.8" height="67"/>
<g>
	<path d="M7.4,14.9c-1.9,1.1-3.6,5.8-3.6,9.4c0,2.3,1.4,9.9,1.4,12.3c0,5-1.5,8.6-4.6,11.1c3,2.4,4.6,6.1,4.6,11
		c0,2.3-1.4,9.9-1.4,12.3c0,3.8,1.7,8.4,3.6,9.5v0.7C3.9,79,1.7,73,1.7,68.2c0-2.1,1.7-9.4,1.7-11.5c0-3.8-1-6.6-2.9-8.2
		C0.1,48.1,0,47.9,0,47.7s0.1-0.4,0.5-0.7c1.9-1.7,2.9-4.2,2.9-7.6c0-2.1-1.7-10-1.7-12.2c0-5.2,2.1-10.4,5.8-13.1V14.9z"/>
</g>
<rect x="547.8" y="14.3" width="0.8" height="67"/>
<rect x="550.4" y="14.3" width="2.5" height="67"/>
<rect x="8.5" y="33.9" width="544.4" height="0.5"/>
<rect x="8.5" y="28.9" width="544.4" height="0.5"/>
<rect x="8.5" y="24" width="544.4" height="0.5"/>
<rect x="8.5" y="19" width="544.4" height="0.5"/>
<rect x="8.5" y="14" width="544.4" height="0.5"/>
<g>
	<path d="M20.3,33.9c-4.2,0-8.1-3.1-8.1-6.9c0-3.2,2.3-6.7,6.8-10.5c-0.3-1.2-0.4-2.4-0.4-3.6c0-3.5,1.2-6.8,3.2-8.5
		c1.8,2.5,2.7,4.9,2.7,7.1c0,2.9-1.3,5.6-4.3,8.1l0.9,4.2c0.5,0,0.8-0.1,0.8-0.1c2.6,0,4.8,2,4.8,4.7c0,1.9-1.4,3.7-3.6,4.8
		c0-0.1,0.9,3.8,0.9,4.3c0,2.5-2.3,4.2-4.9,4.2c-2,0-3.6-1.3-3.6-3.4c0-1.4,1-2.6,2.4-2.6c1.3,0,2.3,1.3,2.3,2.5
		c0,1.4-1.2,2.3-2.7,2.5c0.6,0.3,1.2,0.5,1.9,0.5c2.1,0,4.1-1.6,4.1-3.6c0-0.2,0-0.4-0.1-0.6l-0.8-3.7
		C21.9,33.8,21.2,33.9,20.3,33.9z M18.1,28.7c0,1,0.5,1.9,1.6,2.5c-1.8-0.3-3-1.4-3-3.1c0-2,1.7-3.7,3.8-4.1l-0.8-4
		C16,22.8,14,25.5,14,28.2c0,2.9,2.8,5.3,6,5.3c0.9,0,1.7-0.2,2.4-0.5L21,26.1C19.4,26.3,18.1,27.4,18.1,28.7z M22.1,7.4
		c-1.6,0-2.9,3.7-2.9,7c0,0.7,0,1.3,0.2,1.9c2.7-2.4,4-4.5,4-6.5c0-0.9-0.3-1.7-1-2.4C22.4,7.4,22.3,7.4,22.1,7.4z M24.9,29.3
		c0-1.6-1.2-3.3-2.9-3.3c-0.1,0-0.2,0-0.5,0l1.4,6.6C24.2,31.7,24.9,30.6,24.9,29.3z"/>
</g>
<g>
	<path d="M33.5,7.4v2.8l1-0.3v1.8l-1,0.3v3.4l1-0.3V17l-1,0.3v3.1H33v-3l-1.9,0.6v3h-0.5v-2.8l-1,0.3v-1.8l1-0.3V13l-1,0.3v-1.8
		l1-0.3V8.1h0.5v3l1.9-0.6v-3H33.5z M33,12.2l-1.9,0.6v3.4l1.9-0.6V12.2z"/>
</g>
<g>
	<path d="M39.7,14.9v2.8l1-0.3v1.8l-1,0.3V23l1-0.3v1.8l-1,0.3v3.1h-0.5v-3l-1.9,0.6v3h-0.5v-2.8l-1,0.3v-1.8l1-0.3v-3.4l-1,0.3V19
		l1-0.3v-3.1h0.5v3l1.9-0.6v-3H39.7z M39.2,19.7l-1.9,0.6v3.4l1.9-0.6V19.7z"/>
</g>
<g>
	<path d="M45.9,5v2.8l1-0.3v1.8l-1,0.3V13l1-0.3v1.8l-1,0.3V18h-0.5v-3l-1.9,0.6v3H43v-2.8l-1,0.3v-1.8l1-0.3v-3.4l-1,0.3V9l1-0.3
		V5.6h0.5v3l1.9-0.6V5H45.9z M45.4,9.7l-1.9,0.6v3.4l1.9-0.6V9.7z"/>
</g>
<g>
	<path d="M52.1,12.4v2.8l1-0.3v1.8l-1,0.3v3.4l1-0.3v1.8l-1,0.3v3.1h-0.5v-3l-1.9,0.6v3h-0.5v-2.8l-1,0.3v-1.8l1-0.3V18l-1,0.3v-1.8
		l1-0.3V13h0.5v3l1.9-0.6v-3H52.1z M51.6,17.2l-1.9,0.6v3.4l1.9-0.6V17.2z"/>
</g>
<polygon fill-rule="evenodd" clip-rule="evenodd" points="68.5,25.4 112.6,20.5 112.6,18 68.5,22.9 "/>
<polygon fill-rule="evenodd" clip-rule="evenodd" points="68.5,21.7 112.6,16.7 112.6,14.3 68.5,19.2 "/>
<polygon fill-rule="evenodd" clip-rule="evenodd" points="127.4,15.5 171.5,10.5 171.5,8.1 127.4,13 "/>
<polygon fill-rule="evenodd" clip-rule="evenodd" points="127.4,11.8 171.5,6.8 171.5,4.3 127.4,9.3 "/>
<polygon fill-rule="evenodd" clip-rule="evenodd" points="191.4,30.4 235.6,25.4 235.6,22.9 191.4,27.9 "/>
<polygon fill-rule="evenodd" clip-rule="evenodd" points="191.4,34.1 235.6,29.1 235.6,26.7 191.4,31.6 "/>
<polygon fill-rule="evenodd" clip-rule="evenodd" points="250.3,21.7 297.1,20.5 297.1,18 250.3,19.2 "/>
<polygon fill-rule="evenodd" clip-rule="evenodd" points="250.3,25.4 297.1,24.2 297.1,21.7 250.3,22.9 "/>
<polygon fill-rule="evenodd" clip-rule="evenodd" points="311.8,25.4 356.2,30.4 356.2,27.9 311.8,22.9 "/>
<polygon fill-rule="evenodd" clip-rule="evenodd" points="311.8,29.1 356.2,34.1 356.2,31.6 311.8,26.7 "/>
<polygon fill-rule="evenodd" clip-rule="evenodd" points="382.5,35.3 426.7,40.3 426.7,37.8 382.5,32.9 "/>
<polygon fill-rule="evenodd" clip-rule="evenodd" points="382.5,39.1 426.7,44 426.7,41.5 382.5,36.6 "/>
<polygon fill-rule="evenodd" clip-rule="evenodd" points="447.9,20.5 492.1,25.4 492.1,22.9 447.9,18 "/>
<polygon fill-rule="evenodd" clip-rule="evenodd" points="447.9,16.7 492.1,21.7 492.1,19.2 447.9,14.3 "/>
<rect x="8.5" y="81" width="544.4" height="0.5"/>
<rect x="8.5" y="76" width="544.4" height="0.5"/>
<rect x="8.5" y="71.1" width="544.4" height="0.5"/>
<rect x="8.5" y="66.1" width="544.4" height="0.5"/>
<rect x="8.5" y="61.2" width="544.4" height="0.5"/>
<g>
	<path d="M15.7,75.6c2.9-2.6,4.7-6.1,4.7-9.2c0-2.5-1.4-4.4-3.7-4.4c-1.6,0-3.4,1.3-3.4,2.7c0,0.2,0,0.3,0.1,0.3
		c-0.1,0,0.6-0.6,1.4-0.6c0.9,0,1.5,0.8,1.5,1.7c0,1.2-0.9,2.2-2.1,2.2c-1.2,0-2.1-1.3-2.1-2.8c0-2.3,2.3-4.1,4.8-4.1
		c4.7,0,5.9,3.2,5.9,5.8c0,1.6-0.4,2.9-2,5.3c-1.9,3.1-6.4,5.3-8.1,5.3c-0.4,0-0.6-0.2-0.6-0.5C13.8,76.8,14.9,76.3,15.7,75.6z
		 M25.7,62.9c0.6,0,1,0.4,1,1s-0.4,1-1,1s-1-0.4-1-1S25.1,62.9,25.7,62.9z M25.7,67.8c0.6,0,1,0.4,1,1s-0.4,1-1,1s-1-0.4-1-1
		S25.1,67.8,25.7,67.8z"/>
</g>
<g>
	<path d="M33.5,59.5v2.8l1-0.3v1.8l-1,0.3v3.4l1-0.3v1.8l-1,0.3v3.1H33v-3l-1.9,0.6v3h-0.5v-2.8l-1,0.3v-1.8l1-0.3v-3.4l-1,0.3v-1.8
		l1-0.3v-3.1h0.5v3l1.9-0.6v-3H33.5z M33,64.3l-1.9,0.6v3.4l1.9-0.6V64.3z"/>
</g>
<g>
	<path d="M39.7,67v2.8l1-0.3v1.8l-1,0.3V75l1-0.3v1.8l-1,0.3V80h-0.5v-3l-1.9,0.6v3h-0.5v-2.8l-1,0.3v-1.8l1-0.3v-3.4l-1,0.3v-1.8
		l1-0.3v-3.1h0.5v3l1.9-0.6v-3H39.7z M39.2,71.7l-1.9,0.6v3.4l1.9-0.6V71.7z"/>
</g>
<g>
	<path d="M45.9,57v2.8l1-0.3v1.8l-1,0.3v3.4l1-0.3v1.8l-1,0.3V70h-0.5v-3l-1.9,0.6v3H43v-2.8l-1,0.3v-1.8l1-0.3v-3.4l-1,0.3v-1.8
		l1-0.3v-3.1h0.5v3l1.9-0.6v-3H45.9z M45.4,61.8l-1.9,0.6v3.4l1.9-0.6V61.8z"/>
</g>
<g>
	<path d="M52.1,64.5v2.8l1-0.3v1.8l-1,0.3v3.4l1-0.3V74l-1,0.3v3.1h-0.5v-3l-1.9,0.6v3h-0.5v-2.8l-1,0.3v-1.8l1-0.3V70l-1,0.3v-1.8
		l1-0.3v-3.1h0.5v3l1.9-0.6v-3H52.1z M51.6,69.3l-1.9,0.6v3.4l1.9-0.6V69.3z"/>
</g>
<polygon fill-rule="evenodd" clip-rule="evenodd" points="61.9,82.5 106.1,77.5 106.1,75 61.9,80 "/>
<polygon fill-rule="evenodd" clip-rule="evenodd" points="61.9,86.2 106.1,81.2 106.1,78.7 61.9,83.7 "/>
<g>
	<path d="M185.2,79.9c-3.2,0-6.1-2.3-6.1-5.1c0-2.4,1.7-5,5.1-7.9c-0.2-0.9-0.3-1.8-0.3-2.7c0-2.6,0.9-5.1,2.4-6.3
		c1.4,1.9,2,3.7,2,5.3c0,2.2-1,4.2-3.2,6.1l0.7,3.1c0.4,0,0.6,0,0.6,0c2,0,3.6,1.5,3.6,3.5c0,1.4-1.1,2.8-2.7,3.6
		c0-0.1,0.6,2.8,0.6,3.3c0,1.9-1.7,3.2-3.7,3.2c-1.5,0-2.7-1-2.7-2.5c0-1.1,0.7-1.9,1.8-1.9c1,0,1.7,1,1.7,1.9c0,1-0.9,1.7-2,1.8
		c0.4,0.2,0.9,0.3,1.4,0.3c1.6,0,3.1-1.2,3.1-2.7c0-0.1,0-0.3,0-0.5l-0.6-2.8C186.4,79.8,185.9,79.9,185.2,79.9z M183.6,76
		c0,0.8,0.4,1.4,1.2,1.9c-1.3-0.2-2.2-1.1-2.2-2.3c0-1.5,1.3-2.8,2.9-3.1l-0.6-3c-2.8,2.1-4.3,4.1-4.3,6.1c0,2.2,2.1,4,4.5,4
		c0.7,0,1.3-0.1,1.8-0.4l-1.1-5.1C184.5,74.2,183.6,74.9,183.6,76z M186.6,59.9c-1.2,0-2.2,2.8-2.2,5.3c0,0.5,0,1,0.1,1.4
		c2-1.8,3-3.4,3-4.8c0-0.7-0.3-1.3-0.7-1.8C186.8,60,186.7,59.9,186.6,59.9z M188.7,76.4c0-1.2-0.9-2.4-2.2-2.4c0,0-0.2,0-0.4,0
		l1.1,5C188.1,78.2,188.7,77.3,188.7,76.4z"/>
</g>
<polygon fill-rule="evenodd" clip-rule="evenodd" points="120.8,72.5 165,67.6 165,65.1 120.8,70.1 "/>
<polygon fill-rule="evenodd" clip-rule="evenodd" points="120.8,76.3 165,71.3 165,68.8 120.8,73.8 "/>
<polygon fill-rule="evenodd" clip-rule="evenodd" points="197.9,67.6 242.1,62.6 242.1,60.1 197.9,65.1 "/>
<polygon fill-rule="evenodd" clip-rule="evenodd" points="197.9,63.9 242.1,58.9 242.1,56.4 197.9,61.4 "/>
<polygon fill-rule="evenodd" clip-rule="evenodd" points="250.3,83.7 297.1,82.5 297.1,80 250.3,81.2 "/>
<polygon fill-rule="evenodd" clip-rule="evenodd" points="250.3,87.4 297.1,86.2 297.1,83.7 250.3,84.9 "/>
<g>
	<path d="M371.1,73.3c2.2-2,3.6-4.6,3.6-6.9c0-1.9-1.1-3.3-2.8-3.3c-1.2,0-2.5,1-2.5,2.1c0,0.2,0,0.2,0.1,0.2c0,0,0.4-0.5,1-0.5
		c0.7,0,1.2,0.6,1.2,1.3c0,0.9-0.6,1.7-1.6,1.7s-1.5-1-1.5-2.1c0-1.8,1.7-3.1,3.6-3.1c3.5,0,4.4,2.4,4.4,4.4c0,1.2-0.3,2.2-1.5,4
		c-1.4,2.3-4.8,4-6,4c-0.3,0-0.5-0.1-0.5-0.3C369.6,74.2,370.5,73.8,371.1,73.3z M378.5,63.7c0.4,0,0.7,0.3,0.7,0.7
		c0,0.4-0.3,0.7-0.7,0.7c-0.4,0-0.7-0.3-0.7-0.7C377.8,64.1,378.1,63.7,378.5,63.7z M378.5,67.4c0.4,0,0.7,0.3,0.7,0.7
		s-0.3,0.7-0.7,0.7c-0.4,0-0.7-0.3-0.7-0.7S378.1,67.4,378.5,67.4z"/>
</g>
<polygon fill-rule="evenodd" clip-rule="evenodd" points="318.3,57.7 362.7,62.6 362.7,60.1 318.3,55.2 "/>
<polygon fill-rule="evenodd" clip-rule="evenodd" points="318.3,53.9 362.7,58.9 362.7,56.4 318.3,51.5 "/>
<polygon fill-rule="evenodd" clip-rule="evenodd" points="382.5,67.6 426.7,68.8 426.7,66.3 382.5,65.1 "/>
<polygon fill-rule="evenodd" clip-rule="evenodd" points="382.5,71.3 426.7,72.5 426.7,70.1 382.5,68.8 "/>
<polygon fill-rule="evenodd" clip-rule="evenodd" points="441.4,72.5 485.6,77.5 485.6,75 441.4,70.1 "/>
<polygon fill-rule="evenodd" clip-rule="evenodd" points="441.4,76.3 485.6,81.2 485.6,78.7 441.4,73.8 "/>
<rect x="59.9" y="38.7" width="10.5" height="0.8"/>
<rect x="68.2" y="19.4" width="0.5" height="18.9"/>
<g>
	<path d="M61.8,39.9c0-1.8,2.5-3.5,4.5-3.5c1.3,0,2.3,0.7,2.3,1.7c0,1.7-2.5,3.5-4.6,3.5C62.8,41.6,61.8,41,61.8,39.9z"/>
</g>
<rect x="82.9" y="17.8" width="0.5" height="18"/>
<g>
	<path d="M76.5,37.4c0-1.8,2.5-3.5,4.5-3.5c1.3,0,2.3,0.7,2.3,1.7c0,1.7-2.5,3.5-4.6,3.5C77.5,39.2,76.5,38.5,76.5,37.4z"/>
</g>
<rect x="97.7" y="16.1" width="0.5" height="17.2"/>
<g>
	<path d="M91.2,35c0-1.8,2.5-3.5,4.5-3.5c1.3,0,2.3,0.7,2.3,1.7c0,1.7-2.5,3.5-4.6,3.5C92.2,36.7,91.2,36,91.2,35z"/>
</g>
<rect x="112.4" y="14.4" width="0.5" height="16.4"/>
<g>
	<path d="M106,32.5c0-1.8,2.5-3.5,4.5-3.5c1.3,0,2.3,0.7,2.3,1.7c0,1.7-2.5,3.5-4.6,3.5C106.9,34.2,106,33.6,106,32.5z"/>
</g>
<rect x="127.1" y="9.5" width="0.5" height="18.9"/>
<g>
	<path d="M120.7,30c0-1.8,2.5-3.5,4.5-3.5c1.3,0,2.3,0.7,2.3,1.7c0,1.7-2.5,3.5-4.6,3.5C121.7,31.7,120.7,31.1,120.7,30z"/>
</g>
<rect x="141.9" y="7.9" width="0.5" height="18"/>
<g>
	<path d="M135.4,27.5c0-1.8,2.5-3.5,4.5-3.5c1.3,0,2.3,0.7,2.3,1.7c0,1.7-2.5,3.5-4.6,3.5C136.4,29.2,135.4,28.6,135.4,27.5z"/>
</g>
<rect x="156.6" y="6.2" width="0.5" height="17.2"/>
<g>
	<path d="M150.1,25c0-1.8,2.5-3.5,4.5-3.5c1.3,0,2.3,0.7,2.3,1.7c0,1.7-2.5,3.5-4.6,3.5C151.1,26.8,150.1,26.1,150.1,25z"/>
</g>
<g>
	<path d="M147.7,17.4v2.8l1-0.3v1.8l-1,0.3v3.4l1-0.3v1.8l-1,0.3v3.1h-0.5v-3l-1.9,0.6v3h-0.5v-2.8l-1,0.3v-1.8l1-0.3v-3.4l-1,0.3
		v-1.8l1-0.3V18h0.5v3l1.9-0.6v-3H147.7z M147.2,22.1l-1.9,0.6v3.4l1.9-0.6V22.1z"/>
</g>
<rect x="171.3" y="4.5" width="0.5" height="16.4"/>
<g>
	<path d="M164.9,22.6c0-1.8,2.5-3.5,4.5-3.5c1.3,0,2.3,0.7,2.3,1.7c0,1.7-2.5,3.5-4.6,3.5C165.8,24.3,164.9,23.6,164.9,22.6z"/>
</g>
<rect x="191.1" y="20" width="0.5" height="14"/>
<g>
	<path d="M191.2,20.1c0-1.8,2.5-3.5,4.5-3.5c1.3,0,2.3,0.7,2.3,1.7c0,1.7-2.5,3.5-4.6,3.5C192.2,21.8,191.2,21.2,191.2,20.1z"/>
</g>
<rect x="205.9" y="17.5" width="0.5" height="14.9"/>
<g>
	<path d="M205.9,17.6c0-1.8,2.5-3.5,4.5-3.5c1.3,0,2.3,0.7,2.3,1.7c0,1.7-2.5,3.5-4.6,3.5C206.9,19.3,205.9,18.7,205.9,17.6z"/>
</g>
<rect x="220.6" y="15" width="0.5" height="15.7"/>
<g>
	<path d="M220.7,15.1c0-1.8,2.5-3.5,4.5-3.5c1.3,0,2.3,0.7,2.3,1.7c0,1.7-2.5,3.5-4.6,3.5C221.6,16.8,220.7,16.2,220.7,15.1z"/>
</g>
<rect x="235.3" y="12.6" width="0.5" height="16.4"/>
<g>
	<path d="M235.4,12.6c0-1.8,2.5-3.5,4.5-3.5c1.3,0,2.3,0.7,2.3,1.7c0,1.7-2.5,3.5-4.6,3.5C236.4,14.4,235.4,13.7,235.4,12.6z"/>
</g>
<rect x="248.3" y="8.9" width="10.5" height="0.8"/>
<rect x="250.1" y="10.1" width="0.5" height="15.2"/>
<g>
	<path d="M250.1,10.2c0-1.8,2.5-3.5,4.5-3.5c1.3,0,2.3,0.7,2.3,1.7c0,1.7-2.5,3.5-4.6,3.5C251.1,11.9,250.1,11.2,250.1,10.2z"/>
</g>
<rect x="265.6" y="8.9" width="10.5" height="0.8"/>
<rect x="267.4" y="7.6" width="0.5" height="17.4"/>
<g>
	<path d="M267.5,7.7c0-1.8,2.5-3.5,4.5-3.5c1.3,0,2.3,0.7,2.3,1.7c0,1.7-2.5,3.5-4.6,3.5C268.5,9.4,267.5,8.8,267.5,7.7z"/>
</g>
<g>
	<path d="M263.8,0v2.8l1-0.3v1.8l-1,0.3v3.4l1-0.3v1.8l-1,0.3V13h-0.5v-3l-1.9,0.6v3h-0.5v-2.8l-1,0.3V9.3l1-0.3V5.6l-1,0.3V4.1
		l1-0.3V0.6h0.5v3l1.9-0.6V0H263.8z M263.3,4.8l-1.9,0.6v3.4l1.9-0.6V4.8z"/>
</g>
<rect x="280.4" y="8.9" width="10.5" height="0.8"/>
<rect x="280.4" y="4" width="10.5" height="0.8"/>
<rect x="282.1" y="5.1" width="0.5" height="19.4"/>
<g>
	<path d="M282.2,5.2c0-1.8,2.5-3.5,4.5-3.5c1.3,0,2.3,0.7,2.3,1.7c0,1.7-2.5,3.5-4.6,3.5C283.2,6.9,282.2,6.3,282.2,5.2z"/>
</g>
<rect x="295.1" y="8.9" width="10.5" height="0.8"/>
<rect x="296.9" y="7.6" width="0.5" height="16.4"/>
<g>
	<path d="M296.9,7.7c0-1.8,2.5-3.5,4.5-3.5c1.3,0,2.3,0.7,2.3,1.7c0,1.7-2.5,3.5-4.6,3.5C297.9,9.4,296.9,8.8,296.9,7.7z"/>
</g>
<rect x="309.8" y="8.9" width="10.5" height="0.8"/>
<rect x="311.6" y="10.1" width="0.5" height="18.9"/>
<g>
	<path d="M311.7,10.2c0-1.8,2.5-3.5,4.5-3.5c1.3,0,2.3,0.7,2.3,1.7c0,1.7-2.5,3.5-4.6,3.5C312.6,11.9,311.7,11.2,311.7,10.2z"/>
</g>
<rect x="326.3" y="12.6" width="0.5" height="18"/>
<g>
	<path d="M326.4,12.6c0-1.8,2.5-3.5,4.5-3.5c1.3,0,2.3,0.7,2.3,1.7c0,1.7-2.5,3.5-4.6,3.5C327.4,14.4,326.4,13.7,326.4,12.6z"/>
</g>
<rect x="341" y="15" width="0.5" height="17.2"/>
<g>
	<path d="M341.1,15.1c0-1.8,2.5-3.5,4.5-3.5c1.3,0,2.3,0.7,2.3,1.7c0,1.7-2.5,3.5-4.6,3.5C342.1,16.8,341.1,16.2,341.1,15.1z"/>
</g>
<rect x="355.9" y="17.5" width="0.5" height="16.4"/>
<g>
	<path d="M356,17.6c0-1.8,2.5-3.5,4.5-3.5c1.3,0,2.3,0.7,2.3,1.7c0,1.7-2.5,3.5-4.6,3.5C357,19.3,356,18.7,356,17.6z"/>
</g>
<rect x="382.3" y="20" width="0.5" height="18.9"/>
<g>
	<path d="M382.4,20.1c0-1.8,2.5-3.5,4.5-3.5c1.3,0,2.3,0.7,2.3,1.7c0,1.7-2.5,3.5-4.6,3.5C383.3,21.8,382.4,21.2,382.4,20.1z"/>
</g>
<rect x="397" y="22.5" width="0.5" height="18"/>
<g>
	<path d="M397.1,22.6c0-1.8,2.5-3.5,4.5-3.5c1.3,0,2.3,0.7,2.3,1.7c0,1.7-2.5,3.5-4.6,3.5C398.1,24.3,397.1,23.6,397.1,22.6z"/>
</g>
<rect x="411.7" y="25" width="0.5" height="17.2"/>
<g>
	<path d="M411.8,25c0-1.8,2.5-3.5,4.5-3.5c1.3,0,2.3,0.7,2.3,1.7c0,1.7-2.5,3.5-4.6,3.5C412.8,26.8,411.8,26.1,411.8,25z"/>
</g>
<rect x="426.5" y="27.4" width="0.5" height="16.4"/>
<g>
	<path d="M426.5,27.5c0-1.8,2.5-3.5,4.5-3.5c1.3,0,2.3,0.7,2.3,1.7c0,1.7-2.5,3.5-4.6,3.5C427.5,29.2,426.5,28.6,426.5,27.5z"/>
</g>
<rect x="447.7" y="14.4" width="0.5" height="14"/>
<g>
	<path d="M441.3,30c0-1.8,2.5-3.5,4.5-3.5c1.3,0,2.3,0.7,2.3,1.7c0,1.7-2.5,3.5-4.6,3.5C442.2,31.7,441.3,31.1,441.3,30z"/>
</g>
<rect x="462.4" y="16" width="0.5" height="14.9"/>
<g>
	<path d="M456,32.5c0-1.8,2.5-3.5,4.5-3.5c1.3,0,2.3,0.7,2.3,1.7c0,1.7-2.5,3.5-4.6,3.5C457,34.2,456,33.6,456,32.5z"/>
</g>
<rect x="477.1" y="17.7" width="0.5" height="15.7"/>
<g>
	<path d="M470.7,35c0-1.8,2.5-3.5,4.5-3.5c1.3,0,2.3,0.7,2.3,1.7c0,1.7-2.5,3.5-4.6,3.5C471.7,36.7,470.7,36,470.7,35z"/>
</g>
<rect x="491.9" y="19.4" width="0.5" height="16.4"/>
<g>
	<path d="M485.4,37.4c0-1.8,2.5-3.5,4.5-3.5c1.3,0,2.3,0.7,2.3,1.7c0,1.7-2.5,3.5-4.6,3.5C486.4,39.2,485.4,38.5,485.4,37.4z"/>
</g>
<rect x="498.3" y="38.7" width="10.7" height="0.8"/>
<rect x="506.8" y="21.7" width="0.5" height="16.6"/>
<g>
	<path d="M504.4,36.4c1.6,0,2.7,0.7,2.7,2c0,1.9-2.3,3.4-4.5,3.4c-1.3,0-2.4-0.7-2.4-1.8C500.2,38.2,502.4,36.4,504.4,36.4z
		 M500.6,40.2c0,0.6,0.4,0.9,1.1,0.9c1.4,0,4.9-2.1,4.9-3.3c0-0.6-0.4-0.9-1.1-0.9C504.3,37,500.6,39,500.6,40.2z"/>
</g>
<rect x="61.7" y="69.6" width="0.5" height="16.4"/>
<g>
	<path d="M61.8,69.7c0-1.8,2.5-3.5,4.5-3.5c1.3,0,2.3,0.7,2.3,1.7c0,1.7-2.5,3.5-4.6,3.5C62.8,71.4,61.8,70.8,61.8,69.7z"/>
</g>
<rect x="76.4" y="67.1" width="0.5" height="17.4"/>
<g>
	<path d="M76.5,67.2c0-1.8,2.5-3.5,4.5-3.5c1.3,0,2.3,0.7,2.3,1.7c0,1.7-2.5,3.5-4.6,3.5C77.5,68.9,76.5,68.3,76.5,67.2z"/>
</g>
<rect x="91.2" y="64.6" width="0.5" height="18.1"/>
<g>
	<path d="M91.2,64.7c0-1.8,2.5-3.5,4.5-3.5c1.3,0,2.3,0.7,2.3,1.7c0,1.7-2.5,3.5-4.6,3.5C92.2,66.4,91.2,65.8,91.2,64.7z"/>
</g>
<rect x="105.9" y="62.2" width="0.5" height="18.9"/>
<g>
	<path d="M106,62.2c0-1.8,2.5-3.5,4.5-3.5c1.3,0,2.3,0.7,2.3,1.7c0,1.7-2.5,3.5-4.6,3.5C106.9,64,106,63.3,106,62.2z"/>
</g>
<rect x="120.6" y="59.7" width="0.5" height="16.4"/>
<g>
	<path d="M120.7,59.8c0-1.8,2.5-3.5,4.5-3.5c1.3,0,2.3,0.7,2.3,1.7c0,1.7-2.5,3.5-4.6,3.5C121.7,61.5,120.7,60.9,120.7,59.8z"/>
</g>
<g>
	<path d="M118.3,52.1v2.8l1-0.3v1.8l-1,0.3v3.4l1-0.3v1.8l-1,0.3v3.1h-0.5v-3l-1.9,0.6v3h-0.5v-2.8l-1,0.3v-1.8l1-0.3v-3.4l-1,0.3
		v-1.8l1-0.3v-3.1h0.5v3l1.9-0.6v-3H118.3z M117.8,56.9l-1.9,0.6v3.4l1.9-0.6V56.9z"/>
</g>
<rect x="133.6" y="56" width="10.5" height="0.8"/>
<rect x="135.3" y="57.2" width="0.5" height="17.4"/>
<g>
	<path d="M135.4,57.3c0-1.8,2.5-3.5,4.5-3.5c1.3,0,2.3,0.7,2.3,1.7c0,1.7-2.5,3.5-4.6,3.5C136.4,59,135.4,58.4,135.4,57.3z"/>
</g>
<rect x="148.3" y="56" width="10.5" height="0.8"/>
<rect x="150.1" y="54.7" width="0.5" height="18.1"/>
<g>
	<path d="M150.1,54.8c0-1.8,2.5-3.5,4.5-3.5c1.3,0,2.3,0.7,2.3,1.7c0,1.7-2.5,3.5-4.6,3.5C151.1,56.5,150.1,55.9,150.1,54.8z"/>
</g>
<rect x="163" y="56" width="10.5" height="0.8"/>
<rect x="163" y="51.1" width="10.5" height="0.8"/>
<rect x="164.8" y="52.2" width="0.5" height="18.9"/>
<g>
	<path d="M164.9,52.3c0-1.8,2.5-3.5,4.5-3.5c1.3,0,2.3,0.7,2.3,1.7c0,1.7-2.5,3.5-4.6,3.5C165.8,54,164.9,53.4,164.9,52.3z"/>
</g>
<rect x="197.7" y="61.5" width="0.5" height="16.4"/>
<g>
	<path d="M191.2,79.6c0-1.8,2.5-3.5,4.5-3.5c1.3,0,2.3,0.7,2.3,1.7c0,1.7-2.5,3.5-4.6,3.5C192.2,81.3,191.2,80.7,191.2,79.6z"/>
</g>
<rect x="212.4" y="60" width="0.5" height="15.5"/>
<g>
	<path d="M205.9,77.1c0-1.8,2.5-3.5,4.5-3.5c1.3,0,2.3,0.7,2.3,1.7c0,1.7-2.5,3.5-4.6,3.5C206.9,78.8,205.9,78.2,205.9,77.1z"/>
</g>
<rect x="227.1" y="58.3" width="0.5" height="14.7"/>
<g>
	<path d="M220.7,74.6c0-1.8,2.5-3.5,4.5-3.5c1.3,0,2.3,0.7,2.3,1.7c0,1.7-2.5,3.5-4.6,3.5C221.6,76.4,220.7,75.7,220.7,74.6z"/>
</g>
<rect x="241.8" y="56.6" width="0.5" height="14"/>
<g>
	<path d="M235.4,72.2c0-1.8,2.5-3.5,4.5-3.5c1.3,0,2.3,0.7,2.3,1.7c0,1.7-2.5,3.5-4.6,3.5C236.4,73.9,235.4,73.3,235.4,72.2z"/>
</g>
<g>
	<path d="M233,64.5v2.8l1-0.3v1.8l-1,0.3v3.4l1-0.3V74l-1,0.3v3.1h-0.5v-3l-1.9,0.6v3h-0.5v-2.8l-1,0.3v-1.8l1-0.3V70l-1,0.3v-1.8
		l1-0.3v-3.1h0.5v3l1.9-0.6v-3H233z M232.5,69.3l-1.9,0.6v3.4l1.9-0.6V69.3z"/>
</g>
<rect x="250.1" y="69.6" width="0.5" height="17.7"/>
<g>
	<path d="M250.1,69.7c0-1.8,2.5-3.5,4.5-3.5c1.3,0,2.3,0.7,2.3,1.7c0,1.7-2.5,3.5-4.6,3.5C251.1,71.4,250.1,70.8,250.1,69.7z"/>
</g>
<rect x="267.4" y="67.1" width="0.5" height="19.8"/>
<g>
	<path d="M267.5,67.2c0-1.8,2.5-3.5,4.5-3.5c1.3,0,2.3,0.7,2.3,1.7c0,1.7-2.5,3.5-4.6,3.5C268.5,68.9,267.5,68.3,267.5,67.2z"/>
</g>
<rect x="282.1" y="64.6" width="0.5" height="21.9"/>
<g>
	<path d="M282.2,64.7c0-1.8,2.5-3.5,4.5-3.5c1.3,0,2.3,0.7,2.3,1.7c0,1.7-2.5,3.5-4.6,3.5C283.2,66.4,282.2,65.8,282.2,64.7z"/>
</g>
<rect x="296.9" y="67.1" width="0.5" height="18.9"/>
<g>
	<path d="M296.9,67.2c0-1.8,2.5-3.5,4.5-3.5c1.3,0,2.3,0.7,2.3,1.7c0,1.7-2.5,3.5-4.6,3.5C297.9,68.9,296.9,68.3,296.9,67.2z"/>
</g>
<rect x="318.1" y="51.6" width="0.5" height="16.4"/>
<g>
	<path d="M311.7,69.7c0-1.8,2.5-3.5,4.5-3.5c1.3,0,2.3,0.7,2.3,1.7c0,1.7-2.5,3.5-4.6,3.5C312.6,71.4,311.7,70.8,311.7,69.7z"/>
</g>
<rect x="332.8" y="53.2" width="0.5" height="17.4"/>
<g>
	<path d="M326.4,72.2c0-1.8,2.5-3.5,4.5-3.5c1.3,0,2.3,0.7,2.3,1.7c0,1.7-2.5,3.5-4.6,3.5C327.4,73.9,326.4,73.3,326.4,72.2z"/>
</g>
<rect x="347.6" y="54.9" width="0.5" height="18.1"/>
<g>
	<path d="M341.1,74.6c0-1.8,2.5-3.5,4.5-3.5c1.3,0,2.3,0.7,2.3,1.7c0,1.7-2.5,3.5-4.6,3.5C342.1,76.4,341.1,75.7,341.1,74.6z"/>
</g>
<rect x="362.4" y="56.6" width="0.5" height="18.9"/>
<g>
	<path d="M356,77.1c0-1.8,2.5-3.5,4.5-3.5c1.3,0,2.3,0.7,2.3,1.7c0,1.7-2.5,3.5-4.6,3.5C357,78.8,356,78.2,356,77.1z"/>
</g>
<rect x="380.5" y="56" width="10.5" height="0.8"/>
<rect x="380.5" y="51.1" width="10.5" height="0.8"/>
<rect x="382.3" y="49.8" width="0.5" height="21.4"/>
<g>
	<path d="M382.4,49.8c0-1.8,2.5-3.5,4.5-3.5c1.3,0,2.3,0.7,2.3,1.7c0,1.7-2.5,3.5-4.6,3.5C383.3,51.6,382.4,50.9,382.4,49.8z"/>
</g>
<rect x="395.2" y="56" width="10.5" height="0.8"/>
<rect x="395.2" y="51.1" width="10.5" height="0.8"/>
<rect x="397" y="52.2" width="0.5" height="19.2"/>
<g>
	<path d="M397.1,52.3c0-1.8,2.5-3.5,4.5-3.5c1.3,0,2.3,0.7,2.3,1.7c0,1.7-2.5,3.5-4.6,3.5C398.1,54,397.1,53.4,397.1,52.3z"/>
</g>
<rect x="409.9" y="56" width="10.5" height="0.8"/>
<rect x="411.7" y="54.7" width="0.5" height="17.2"/>
<g>
	<path d="M411.8,54.8c0-1.8,2.5-3.5,4.5-3.5c1.3,0,2.3,0.7,2.3,1.7c0,1.7-2.5,3.5-4.6,3.5C412.8,56.5,411.8,55.9,411.8,54.8z"/>
</g>
<rect x="424.7" y="56" width="10.5" height="0.8"/>
<rect x="426.5" y="57.2" width="0.5" height="15.2"/>
<g>
	<path d="M426.5,57.3c0-1.8,2.5-3.5,4.5-3.5c1.3,0,2.3,0.7,2.3,1.7c0,1.7-2.5,3.5-4.6,3.5C427.5,59,426.5,58.4,426.5,57.3z"/>
</g>
<rect x="441.2" y="59.7" width="0.5" height="16.4"/>
<g>
	<path d="M441.3,59.8c0-1.8,2.5-3.5,4.5-3.5c1.3,0,2.3,0.7,2.3,1.7c0,1.7-2.5,3.5-4.6,3.5C442.2,61.5,441.3,60.9,441.3,59.8z"/>
</g>
<rect x="455.9" y="62.2" width="0.5" height="15.5"/>
<g>
	<path d="M456,62.2c0-1.8,2.5-3.5,4.5-3.5c1.3,0,2.3,0.7,2.3,1.7c0,1.7-2.5,3.5-4.6,3.5C457,64,456,63.3,456,62.2z"/>
</g>
<rect x="470.6" y="64.6" width="0.5" height="14.7"/>
<g>
	<path d="M470.7,64.7c0-1.8,2.5-3.5,4.5-3.5c1.3,0,2.3,0.7,2.3,1.7c0,1.7-2.5,3.5-4.6,3.5C471.7,66.4,470.7,65.8,470.7,64.7z"/>
</g>
<rect x="485.4" y="67.1" width="0.5" height="14"/>
<g>
	<path d="M485.4,67.2c0-1.8,2.5-3.5,4.5-3.5c1.3,0,2.3,0.7,2.3,1.7c0,1.7-2.5,3.5-4.6,3.5C486.4,68.9,485.4,68.3,485.4,67.2z"/>
</g>
<rect x="500.1" y="69.6" width="0.5" height="16.6"/>
<g>
	<path d="M504.4,66.1c1.6,0,2.7,0.7,2.7,2c0,1.9-2.3,3.4-4.5,3.4c-1.3,0-2.4-0.7-2.4-1.8C500.2,67.9,502.4,66.1,504.4,66.1z
		 M500.6,70c0,0.6,0.4,0.9,1.1,0.9c1.4,0,4.9-2.1,4.9-3.3c0-0.6-0.4-0.9-1.1-0.9C504.3,66.7,500.6,68.7,500.6,70z"/>
</g>
</svg>
