<?xml version="1.0" encoding="utf-8"?>

<!--
	ScaleBook
	Copyright (c) Leland Jansen 2015. All rights reserved.
-->

<!DOCTYPE svg PUBLIC "-//W3C//DTD SVG 1.1//EN" "http://www.w3.org/Graphics/SVG/1.1/DTD/svg11.dtd">
<svg version="1.1" id="Layer_1" xmlns="http://www.w3.org/2000/svg" xmlns:xlink="http://www.w3.org/1999/xlink" x="0px" y="0px"
	 viewBox="0 0 552.9 97.5" enable-background="new 0 0 552.9 97.5" xml:space="preserve">
<rect x="8.4" y="20.8" width="0.8" height="67"/>
<g>
	<path d="M7.4,21.5c-1.9,1.1-3.6,5.8-3.6,9.4c0,2.3,1.4,9.9,1.4,12.3c0,5-1.5,8.6-4.6,11.1c3,2.4,4.6,6.1,4.6,11
		c0,2.3-1.4,9.9-1.4,12.3c0,3.8,1.7,8.4,3.6,9.5v0.7c-3.5-2.3-5.8-8.2-5.8-13.1c0-2.1,1.7-9.4,1.7-11.5c0-3.8-1-6.6-2.9-8.2
		C0.1,54.7,0,54.5,0,54.3s0.1-0.4,0.5-0.7c1.9-1.7,2.9-4.2,2.9-7.6c0-2.1-1.7-10-1.7-12.2c0-5.2,2.1-10.4,5.8-13.1V21.5z"/>
</g>
<rect x="547.8" y="20.8" width="0.8" height="67"/>
<rect x="550.4" y="20.8" width="2.5" height="67"/>
<rect x="8.5" y="40.4" width="544.4" height="0.5"/>
<rect x="8.5" y="35.5" width="544.4" height="0.5"/>
<rect x="8.5" y="30.5" width="544.4" height="0.5"/>
<rect x="8.5" y="25.5" width="544.4" height="0.5"/>
<rect x="8.5" y="20.6" width="544.4" height="0.5"/>
<g>
	<path d="M20.3,40.5c-4.2,0-8.1-3.1-8.1-6.9c0-3.2,2.3-6.7,6.8-10.5c-0.3-1.2-0.4-2.4-0.4-3.6c0-3.5,1.2-6.8,3.2-8.5
		c1.8,2.5,2.7,4.9,2.7,7.1c0,2.9-1.3,5.6-4.3,8.1l0.9,4.2c0.5,0,0.8-0.1,0.8-0.1c2.6,0,4.8,2,4.8,4.7c0,1.9-1.4,3.7-3.6,4.8
		c0-0.1,0.9,3.8,0.9,4.3c0,2.5-2.3,4.2-4.9,4.2c-2,0-3.6-1.3-3.6-3.4c0-1.4,1-2.6,2.4-2.6c1.3,0,2.3,1.3,2.3,2.5
		c0,1.4-1.2,2.3-2.7,2.5c0.6,0.3,1.2,0.5,1.9,0.5c2.1,0,4.1-1.6,4.1-3.6c0-0.2,0-0.4-0.1-0.6L22.6,40C21.9,40.3,21.2,40.5,20.3,40.5
		z M18.1,35.3c0,1,0.5,1.9,1.6,2.5c-1.8-0.3-3-1.4-3-3.1c0-2,1.7-3.7,3.8-4.1l-0.8-4C16,29.4,14,32.1,14,34.7c0,2.9,2.8,5.3,6,5.3
		c0.9,0,1.7-0.2,2.4-0.5L21,32.7C19.4,32.9,18.1,33.9,18.1,35.3z M22.1,13.9c-1.6,0-2.9,3.7-2.9,7c0,0.7,0,1.3,0.2,1.9
		c2.7-2.4,4-4.5,4-6.5c0-0.9-0.3-1.7-1-2.4C22.4,13.9,22.3,13.9,22.1,13.9z M24.9,35.8c0-1.6-1.2-3.3-2.9-3.3c-0.1,0-0.2,0-0.5,0
		l1.4,6.6C24.2,38.3,24.9,37.1,24.9,35.8z"/>
</g>
<g>
	<path d="M33.5,14v2.8l1-0.3v1.8l-1,0.3v3.4l1-0.3v1.8l-1,0.3V27H33v-3l-1.9,0.6v3h-0.5v-2.8l-1,0.3v-1.8l1-0.3v-3.4l-1,0.3v-1.8
		l1-0.3v-3.1h0.5v3L33,17v-3H33.5z M33,18.8l-1.9,0.6v3.4l1.9-0.6V18.8z"/>
</g>
<g>
	<path d="M39.7,21.4v2.8l1-0.3v1.8l-1,0.3v3.4l1-0.3V31l-1,0.3v3.1h-0.5v-3l-1.9,0.6v3h-0.5v-2.8l-1,0.3v-1.8l1-0.3V27l-1,0.3v-1.8
		l1-0.3v-3.1h0.5v3l1.9-0.6v-3H39.7z M39.2,26.2l-1.9,0.6v3.4l1.9-0.6V26.2z"/>
</g>
<g>
	<path d="M45.9,11.5v2.8l1-0.3v1.8l-1,0.3v3.4l1-0.3V21l-1,0.3v3.1h-0.5v-3l-1.9,0.6v3H43v-2.8l-1,0.3v-1.8l1-0.3v-3.4l-1,0.3v-1.8
		l1-0.3v-3.1h0.5v3l1.9-0.6v-3H45.9z M45.4,16.3l-1.9,0.6v3.4l1.9-0.6V16.3z"/>
</g>
<g>
	<path d="M52.1,18.9v2.8l1-0.3v1.8l-1,0.3V27l1-0.3v1.8l-1,0.3v3.1h-0.5v-3l-1.9,0.6v3h-0.5v-2.8l-1,0.3v-1.8l1-0.3v-3.4l-1,0.3V23
		l1-0.3v-3.1h0.5v3l1.9-0.6v-3H52.1z M51.6,23.7l-1.9,0.6v3.4l1.9-0.6V23.7z"/>
</g>
<g>
	<path d="M58.3,26.4v2.8l1-0.3v1.8l-1,0.3v3.4l1-0.3v1.8l-1,0.3v3.1h-0.5v-3L55.9,37v3h-0.5v-2.8l-1,0.3v-1.8l1-0.3v-3.4l-1,0.3
		v-1.8l1-0.3V27h0.5v3l1.9-0.6v-3H58.3z M57.8,31.2l-1.9,0.6v3.4l1.9-0.6V31.2z"/>
</g>
<g>
	<path d="M64.5,16.5v2.8l1-0.3v1.8l-1,0.3v3.4l1-0.3V26l-1,0.3v3.1H64v-3l-1.9,0.6v3h-0.5v-2.8l-1,0.3v-1.8l1-0.3V22l-1,0.3v-1.8
		l1-0.3v-3.1h0.5v3l1.9-0.6v-3H64.5z M64,21.2l-1.9,0.6v3.4l1.9-0.6V21.2z"/>
</g>
<polygon fill-rule="evenodd" clip-rule="evenodd" points="80.9,32 123.9,27 123.9,24.5 80.9,29.5 "/>
<polygon fill-rule="evenodd" clip-rule="evenodd" points="80.9,28.2 123.9,23.3 123.9,20.8 80.9,25.8 "/>
<polygon fill-rule="evenodd" clip-rule="evenodd" points="133.1,46.8 176,41.9 176,39.4 133.1,44.4 "/>
<polygon fill-rule="evenodd" clip-rule="evenodd" points="133.1,50.6 176,45.6 176,43.1 133.1,48.1 "/>
<polygon fill-rule="evenodd" clip-rule="evenodd" points="208.9,27 252,22 252,19.6 208.9,24.5 "/>
<polygon fill-rule="evenodd" clip-rule="evenodd" points="208.9,23.3 252,18.3 252,15.8 208.9,20.8 "/>
<polygon fill-rule="evenodd" clip-rule="evenodd" points="259.9,43.1 302.8,41.9 302.8,39.4 259.9,40.6 "/>
<polygon fill-rule="evenodd" clip-rule="evenodd" points="259.9,46.8 302.8,45.6 302.8,43.1 259.9,44.4 "/>
<g>
	<path d="M206.1,3.6c0-0.2,0.6-1.9,0.6-2.4c0-0.1,0-0.2-0.1-0.2c-0.1,0-0.3,0.2-0.6,0.4l-0.2-0.2c0.6-0.4,0.9-0.7,1.1-0.7
		c0.3,0,0.4,0.2,0.4,0.5c0,0.5-0.7,2.1-0.7,2.6c0,0.1,0.1,0.2,0.2,0.2c0.7,0,1.7-1.6,1.7-2.2V1.4c-0.1-0.1-0.4-0.3-0.4-0.6
		c0-0.2,0.1-0.3,0.4-0.3c0.3,0,0.5,0.3,0.5,0.8c0,1-1.2,2.8-2.1,2.8C206.4,4.2,206.1,4,206.1,3.6z M211,4c0,0,0.1-0.3,0.2-0.8
		c-0.6,0.7-1,1-1.4,1c-0.5,0-0.8-0.3-0.8-0.9c0-1.2,1-2.6,2.1-2.6c0.2,0,0.4,0.1,0.7,0.2l0.1-0.2l0.4,0c-0.5,2-0.7,3-0.7,3.1v0v0
		c0,0,0.3-0.2,0.7-0.5l0.1,0.2c-0.5,0.5-0.8,0.7-1,0.7C211.1,4.2,211,4.1,211,4z M209.6,3.3c0,0.3,0.1,0.4,0.2,0.4
		c0.5,0,1.5-0.9,1.6-1.3l0.3-1.1C211.4,1.1,211.2,1,211,1C210.3,1,209.6,2.4,209.6,3.3z"/>
</g>
<g>
	<path d="M205.6,1.9c0,0.8-0.5,1.4-1.6,1.9c0.5,0.7,0.8,1.3,0.8,1.8c0,1.3-1,1.9-2.9,1.9c-1.4,0-2.6-0.8-2.6-2c0-0.9,0.7-1.5,2-2
		c-0.4-0.6-0.7-1.1-0.7-1.6c0-1.1,1.1-1.9,2.5-1.9C204.4,0,205.6,0.9,205.6,1.9z M200.3,5.7c0,0.8,0.9,1.4,1.7,1.4
		c0.8,0,1.4-0.3,1.4-0.9c0-0.7-0.2-0.9-1.7-2.4C200.7,4.3,200.3,5,200.3,5.7z M202.2,1.3c0,0.7,0.2,0.9,1.5,2.2c0.7-0.4,1-1,1-1.7
		c0-0.7-0.7-1.4-1.4-1.4C202.8,0.4,202.2,0.8,202.2,1.3z"/>
</g>
<rect x="371.9" y="0.7" width="0.8" height="7.8"/>
<path d="M372.3,1.3h-1.7V0.6h1.7V1.3z M368.1,1.3h-2.9V0.6h2.9V1.3z M362.7,1.3h-2.9V0.6h2.9V1.3z M357.2,1.3h-2.9V0.6h2.9V1.3z
	 M351.8,1.3h-2.9V0.6h2.9V1.3z M346.4,1.3h-2.9V0.6h2.9V1.3z M341,1.3H338V0.6h2.9V1.3z M335.5,1.3h-2.9V0.6h2.9V1.3z M330.1,1.3
	h-2.9V0.6h2.9V1.3z M324.7,1.3h-2.9V0.6h2.9V1.3z M319.3,1.3h-2.9V0.6h2.9V1.3z M313.8,1.3h-2.9V0.6h2.9V1.3z M308.4,1.3h-2.9V0.6
	h2.9V1.3z M303,1.3H300V0.6h2.9V1.3z M297.6,1.3h-2.9V0.6h2.9V1.3z M292.1,1.3h-2.9V0.6h2.9V1.3z M286.7,1.3h-2.9V0.6h2.9V1.3z
	 M281.3,1.3h-2.9V0.6h2.9V1.3z M275.9,1.3h-2.9V0.6h2.9V1.3z M270.4,1.3h-2.9V0.6h2.9V1.3z M265,1.3h-2.9V0.6h2.9V1.3z M259.6,1.3
	h-2.9V0.6h2.9V1.3z M254.2,1.3h-2.9V0.6h2.9V1.3z M248.7,1.3h-2.9V0.6h2.9V1.3z M243.3,1.3h-2.9V0.6h2.9V1.3z M237.9,1.3h-2.9V0.6
	h2.9V1.3z M232.5,1.3h-2.9V0.6h2.9V1.3z M227,1.3h-2.9V0.6h2.9V1.3z M221.6,1.3h-2.9V0.6h2.9V1.3z M216.2,1.3h-2.9V0.6h2.9V1.3z"/>
<polygon fill-rule="evenodd" clip-rule="evenodd" points="323.8,22 366.9,27 366.9,24.5 323.8,19.6 "/>
<polygon fill-rule="evenodd" clip-rule="evenodd" points="323.8,18.3 366.9,23.3 366.9,20.8 323.8,15.8 "/>
<polygon fill-rule="evenodd" clip-rule="evenodd" points="386.7,36.9 429.6,41.9 429.6,39.4 386.7,34.4 "/>
<polygon fill-rule="evenodd" clip-rule="evenodd" points="386.7,40.6 429.6,45.6 429.6,43.1 386.7,38.2 "/>
<polygon fill-rule="evenodd" clip-rule="evenodd" points="450.6,22 493.7,27 493.7,24.5 450.6,19.6 "/>
<polygon fill-rule="evenodd" clip-rule="evenodd" points="450.6,18.3 493.7,23.3 493.7,20.8 450.6,15.8 "/>
<rect x="8.5" y="87.5" width="544.4" height="0.5"/>
<rect x="8.5" y="82.6" width="544.4" height="0.5"/>
<rect x="8.5" y="77.6" width="544.4" height="0.5"/>
<rect x="8.5" y="72.7" width="544.4" height="0.5"/>
<rect x="8.5" y="67.7" width="544.4" height="0.5"/>
<g>
	<path d="M15.7,82.1c2.9-2.6,4.7-6.1,4.7-9.2c0-2.5-1.4-4.4-3.7-4.4c-1.6,0-3.4,1.3-3.4,2.7c0,0.2,0,0.3,0.1,0.3
		c-0.1,0,0.6-0.6,1.4-0.6c0.9,0,1.5,0.8,1.5,1.7c0,1.2-0.9,2.2-2.1,2.2c-1.2,0-2.1-1.3-2.1-2.8c0-2.3,2.3-4.1,4.8-4.1
		c4.7,0,5.9,3.2,5.9,5.8c0,1.6-0.4,2.9-2,5.3c-1.9,3.1-6.4,5.3-8.1,5.3c-0.4,0-0.6-0.2-0.6-0.5C13.8,83.4,14.9,82.8,15.7,82.1z
		 M25.7,69.4c0.6,0,1,0.4,1,1s-0.4,1-1,1s-1-0.4-1-1S25.1,69.4,25.7,69.4z M25.7,74.4c0.6,0,1,0.4,1,1s-0.4,1-1,1s-1-0.4-1-1
		S25.1,74.4,25.7,74.4z"/>
</g>
<g>
	<path d="M33.5,66.1v2.8l1-0.3v1.8l-1,0.3v3.4l1-0.3v1.8l-1,0.3v3.1H33v-3l-1.9,0.6v3h-0.5v-2.8l-1,0.3v-1.8l1-0.3v-3.4l-1,0.3v-1.8
		l1-0.3v-3.1h0.5v3L33,69v-3H33.5z M33,70.8l-1.9,0.6v3.4l1.9-0.6V70.8z"/>
</g>
<g>
	<path d="M39.7,73.5v2.8l1-0.3v1.8l-1,0.3v3.4l1-0.3V83l-1,0.3v3.1h-0.5v-3l-1.9,0.6v3h-0.5v-2.8l-1,0.3v-1.8l1-0.3v-3.4l-1,0.3
		v-1.8l1-0.3v-3.1h0.5v3l1.9-0.6v-3H39.7z M39.2,78.3l-1.9,0.6v3.4l1.9-0.6V78.3z"/>
</g>
<g>
	<path d="M45.9,63.6v2.8l1-0.3v1.8l-1,0.3v3.4l1-0.3v1.8l-1,0.3v3.1h-0.5v-3l-1.9,0.6v3H43v-2.8l-1,0.3v-1.8l1-0.3v-3.4l-1,0.3v-1.8
		l1-0.3v-3.1h0.5v3l1.9-0.6v-3H45.9z M45.4,68.4L43.5,69v3.4l1.9-0.6V68.4z"/>
</g>
<g>
	<path d="M52.1,71v2.8l1-0.3v1.8l-1,0.3v3.4l1-0.3v1.8l-1,0.3V84h-0.5v-3l-1.9,0.6v3h-0.5v-2.8l-1,0.3v-1.8l1-0.3v-3.4l-1,0.3v-1.8
		l1-0.3v-3.1h0.5v3l1.9-0.6v-3H52.1z M51.6,75.8l-1.9,0.6v3.4l1.9-0.6V75.8z"/>
</g>
<g>
	<path d="M58.3,78.5v2.8l1-0.3v1.8l-1,0.3v3.4l1-0.3V88l-1,0.3v3.1h-0.5v-3l-1.9,0.6v3h-0.5v-2.8l-1,0.3v-1.8l1-0.3V84l-1,0.3v-1.8
		l1-0.3v-3.1h0.5v3l1.9-0.6v-3H58.3z M57.8,83.2l-1.9,0.6v3.4l1.9-0.6V83.2z"/>
</g>
<g>
	<path d="M64.5,68.5v2.8l1-0.3v1.8l-1,0.3v3.4l1-0.3v1.8l-1,0.3v3.1H64v-3l-1.9,0.6v3h-0.5v-2.8l-1,0.3v-1.8l1-0.3v-3.4l-1,0.3v-1.8
		l1-0.3v-3.1h0.5v3l1.9-0.6v-3H64.5z M64,73.3L62.1,74v3.4l1.9-0.6V73.3z"/>
</g>
<polygon fill-rule="evenodd" clip-rule="evenodd" points="74.3,84 117.4,79.1 117.4,76.6 74.3,81.6 "/>
<polygon fill-rule="evenodd" clip-rule="evenodd" points="74.3,87.8 117.4,82.8 117.4,80.3 74.3,85.3 "/>
<g>
	<path d="M196.2,86.4c-3.2,0-6.1-2.3-6.1-5.1c0-2.4,1.7-5,5.1-7.9c-0.2-0.9-0.3-1.8-0.3-2.7c0-2.6,0.9-5.1,2.4-6.3
		c1.4,1.9,2,3.7,2,5.3c0,2.2-1,4.2-3.2,6.1l0.7,3.1c0.4,0,0.6,0,0.6,0c2,0,3.6,1.5,3.6,3.5c0,1.4-1.1,2.8-2.7,3.6
		c0-0.1,0.6,2.8,0.6,3.3c0,1.9-1.7,3.2-3.7,3.2c-1.5,0-2.7-1-2.7-2.5c0-1.1,0.7-1.9,1.8-1.9c1,0,1.7,1,1.7,1.9c0,1-0.9,1.7-2,1.8
		c0.4,0.2,0.9,0.3,1.4,0.3c1.6,0,3.1-1.2,3.1-2.7c0-0.1,0-0.3,0-0.5l-0.6-2.8C197.4,86.3,196.9,86.4,196.2,86.4z M194.6,82.5
		c0,0.8,0.4,1.4,1.2,1.9c-1.3-0.2-2.2-1.1-2.2-2.3c0-1.5,1.3-2.8,2.9-3.1l-0.6-3c-2.8,2.1-4.3,4.1-4.3,6.1c0,2.2,2.1,4,4.5,4
		c0.7,0,1.3-0.1,1.8-0.4l-1.1-5.1C195.5,80.7,194.6,81.5,194.6,82.5z M197.6,66.5c-1.2,0-2.2,2.8-2.2,5.3c0,0.5,0,1,0.1,1.4
		c2-1.8,3-3.4,3-4.8c0-0.7-0.3-1.3-0.7-1.8C197.8,66.5,197.7,66.5,197.6,66.5z M199.7,82.9c0-1.2-0.9-2.4-2.2-2.4c0,0-0.2,0-0.4,0
		l1.1,5C199.2,84.7,199.7,83.9,199.7,82.9z"/>
</g>
<polygon fill-rule="evenodd" clip-rule="evenodd" points="133.1,75.4 176,74.1 176,71.6 133.1,72.9 "/>
<polygon fill-rule="evenodd" clip-rule="evenodd" points="133.1,79.1 176,77.8 176,75.4 133.1,76.6 "/>
<polygon fill-rule="evenodd" clip-rule="evenodd" points="208.9,69.2 252,64.2 252,61.7 208.9,66.7 "/>
<polygon fill-rule="evenodd" clip-rule="evenodd" points="208.9,65.4 252,60.5 252,58 208.9,63 "/>
<polygon fill-rule="evenodd" clip-rule="evenodd" points="259.9,85.3 302.8,84 302.8,81.6 259.9,82.8 "/>
<polygon fill-rule="evenodd" clip-rule="evenodd" points="259.9,89 302.8,87.8 302.8,85.3 259.9,86.5 "/>
<g>
	<path d="M375.2,79.8c2.2-2,3.6-4.6,3.6-6.9c0-1.9-1.1-3.3-2.8-3.3c-1.2,0-2.5,1-2.5,2.1c0,0.2,0,0.2,0.1,0.2c0,0,0.4-0.5,1-0.5
		c0.7,0,1.2,0.6,1.2,1.3c0,0.9-0.6,1.7-1.6,1.7s-1.5-1-1.5-2.1c0-1.8,1.7-3.1,3.6-3.1c3.5,0,4.4,2.4,4.4,4.4c0,1.2-0.3,2.2-1.5,4
		c-1.4,2.3-4.8,4-6,4c-0.3,0-0.5-0.1-0.5-0.3C373.8,80.8,374.7,80.3,375.2,79.8z M382.7,70.3c0.4,0,0.7,0.3,0.7,0.7
		c0,0.4-0.3,0.7-0.7,0.7c-0.4,0-0.7-0.3-0.7-0.7C382,70.6,382.3,70.3,382.7,70.3z M382.7,74c0.4,0,0.7,0.3,0.7,0.7s-0.3,0.7-0.7,0.7
		c-0.4,0-0.7-0.3-0.7-0.7S382.3,74,382.7,74z"/>
</g>
<polygon fill-rule="evenodd" clip-rule="evenodd" points="317.2,89 360.3,94 360.3,91.5 317.2,86.5 "/>
<polygon fill-rule="evenodd" clip-rule="evenodd" points="317.2,92.7 360.3,97.7 360.3,95.2 317.2,90.2 "/>
<polygon fill-rule="evenodd" clip-rule="evenodd" points="386.7,74.1 429.6,75.4 429.6,72.9 386.7,71.6 "/>
<polygon fill-rule="evenodd" clip-rule="evenodd" points="386.7,77.8 429.6,79.1 429.6,76.6 386.7,75.4 "/>
<polygon fill-rule="evenodd" clip-rule="evenodd" points="444.1,79.1 487.1,84 487.1,81.6 444.1,76.6 "/>
<polygon fill-rule="evenodd" clip-rule="evenodd" points="444.1,82.8 487.1,87.8 487.1,85.3 444.1,80.3 "/>
<rect x="80.6" y="25.9" width="0.5" height="16.4"/>
<g>
	<path d="M74.2,44c0-1.8,2.5-3.5,4.5-3.5c1.3,0,2.3,0.7,2.3,1.7c0,1.7-2.5,3.5-4.6,3.5C75.2,45.7,74.2,45.1,74.2,44z"/>
</g>
<rect x="95" y="24.4" width="0.5" height="15.5"/>
<g>
	<path d="M88.6,41.5c0-1.8,2.5-3.5,4.5-3.5c1.3,0,2.3,0.7,2.3,1.7c0,1.7-2.5,3.5-4.6,3.5C89.6,43.2,88.6,42.6,88.6,41.5z"/>
</g>
<rect x="109.3" y="22.7" width="0.5" height="14.7"/>
<g>
	<path d="M102.9,39c0-1.8,2.5-3.5,4.5-3.5c1.3,0,2.3,0.7,2.3,1.7c0,1.7-2.5,3.5-4.6,3.5C103.8,40.7,102.9,40.1,102.9,39z"/>
</g>
<rect x="123.7" y="21" width="0.5" height="14"/>
<g>
	<path d="M117.3,36.5c0-1.8,2.5-3.5,4.5-3.5c1.3,0,2.3,0.7,2.3,1.7c0,1.7-2.5,3.5-4.6,3.5C118.3,38.3,117.3,37.6,117.3,36.5z"/>
</g>
<rect x="132.9" y="34" width="0.5" height="16.4"/>
<g>
	<path d="M132.9,34.1c0-1.8,2.5-3.5,4.5-3.5c1.3,0,2.3,0.7,2.3,1.7c0,1.7-2.5,3.5-4.6,3.5C133.9,35.8,132.9,35.1,132.9,34.1z"/>
</g>
<rect x="147.1" y="31.5" width="0.5" height="17.4"/>
<g>
	<path d="M147.2,31.6c0-1.8,2.5-3.5,4.5-3.5c1.3,0,2.3,0.7,2.3,1.7c0,1.7-2.5,3.5-4.6,3.5C148.2,33.3,147.2,32.7,147.2,31.6z"/>
</g>
<rect x="161.5" y="29" width="0.5" height="18.1"/>
<g>
	<path d="M161.6,29.1c0-1.8,2.5-3.5,4.5-3.5c1.3,0,2.3,0.7,2.3,1.7c0,1.7-2.5,3.5-4.6,3.5C162.6,30.8,161.6,30.2,161.6,29.1z"/>
</g>
<g>
	<path d="M158.7,30.7c0-0.8-0.4-1.5-1.1-2.2c-0.7,0.7-1.1,1.4-1.1,2.2h-1.4v-1.4c0.8,0,1.5-0.3,2.2-1c-0.7-0.7-1.4-1.1-2.2-1.1v-1.4
		h1.4c0,0.8,0.4,1.5,1.1,2.2c0.7-0.7,1.1-1.4,1.1-2.2h1.4v1.4c-0.8,0-1.5,0.4-2.2,1.1c0.7,0.7,1.4,1,2,1h0.2v1.4H158.7z"/>
</g>
<rect x="175.8" y="26.5" width="0.5" height="18.9"/>
<g>
	<path d="M175.9,26.6c0-1.8,2.5-3.5,4.5-3.5c1.3,0,2.3,0.7,2.3,1.7c0,1.7-2.5,3.5-4.6,3.5C176.8,28.3,175.9,27.7,175.9,26.6z"/>
</g>
<rect x="208.7" y="21" width="0.5" height="18.9"/>
<g>
	<path d="M202.2,41.5c0-1.8,2.5-3.5,4.5-3.5c1.3,0,2.3,0.7,2.3,1.7c0,1.7-2.5,3.5-4.6,3.5C203.2,43.2,202.2,42.6,202.2,41.5z"/>
</g>
<rect x="223.1" y="19.4" width="0.5" height="18"/>
<g>
	<path d="M216.6,39c0-1.8,2.5-3.5,4.5-3.5c1.3,0,2.3,0.7,2.3,1.7c0,1.7-2.5,3.5-4.6,3.5C217.6,40.7,216.6,40.1,216.6,39z"/>
</g>
<rect x="237.5" y="17.7" width="0.5" height="17.2"/>
<g>
	<path d="M231.1,36.5c0-1.8,2.5-3.5,4.5-3.5c1.3,0,2.3,0.7,2.3,1.7c0,1.7-2.5,3.5-4.6,3.5C232,38.3,231.1,37.6,231.1,36.5z"/>
</g>
<rect x="251.8" y="16" width="0.5" height="16.4"/>
<g>
	<path d="M245.3,34.1c0-1.8,2.5-3.5,4.5-3.5c1.3,0,2.3,0.7,2.3,1.7c0,1.7-2.5,3.5-4.6,3.5C246.3,35.8,245.3,35.1,245.3,34.1z"/>
</g>
<rect x="259.7" y="31.5" width="0.5" height="15.2"/>
<g>
	<path d="M259.7,31.6c0-1.8,2.5-3.5,4.5-3.5c1.3,0,2.3,0.7,2.3,1.7c0,1.7-2.5,3.5-4.6,3.5C260.7,33.3,259.7,32.7,259.7,31.6z"/>
</g>
<rect x="273.9" y="29" width="0.5" height="17.4"/>
<g>
	<path d="M274,29.1c0-1.8,2.5-3.5,4.5-3.5c1.3,0,2.3,0.7,2.3,1.7c0,1.7-2.5,3.5-4.6,3.5C275,30.8,274,30.2,274,29.1z"/>
</g>
<rect x="288.3" y="26.5" width="0.5" height="19.4"/>
<g>
	<path d="M288.4,26.6c0-1.8,2.5-3.5,4.5-3.5c1.3,0,2.3,0.7,2.3,1.7c0,1.7-2.5,3.5-4.6,3.5C289.4,28.3,288.4,27.7,288.4,26.6z"/>
</g>
<rect x="302.6" y="29" width="0.5" height="16.4"/>
<g>
	<path d="M302.7,29.1c0-1.8,2.5-3.5,4.5-3.5c1.3,0,2.3,0.7,2.3,1.7c0,1.7-2.5,3.5-4.6,3.5C303.6,30.8,302.7,30.2,302.7,29.1z"/>
</g>
<rect x="323.5" y="16" width="0.5" height="14"/>
<g>
	<path d="M317.1,31.6c0-1.8,2.5-3.5,4.5-3.5c1.3,0,2.3,0.7,2.3,1.7c0,1.7-2.5,3.5-4.6,3.5C318.1,33.3,317.1,32.7,317.1,31.6z"/>
</g>
<rect x="337.9" y="17.5" width="0.5" height="14.9"/>
<g>
	<path d="M331.5,34.1c0-1.8,2.5-3.5,4.5-3.5c1.3,0,2.3,0.7,2.3,1.7c0,1.7-2.5,3.5-4.6,3.5C332.5,35.8,331.5,35.1,331.5,34.1z"/>
</g>
<rect x="352.2" y="19.3" width="0.5" height="15.7"/>
<g>
	<path d="M345.8,36.5c0-1.8,2.5-3.5,4.5-3.5c1.3,0,2.3,0.7,2.3,1.7c0,1.7-2.5,3.5-4.6,3.5C346.7,38.3,345.8,37.6,345.8,36.5z"/>
</g>
<rect x="366.6" y="21" width="0.5" height="16.4"/>
<g>
	<path d="M360.2,39c0-1.8,2.5-3.5,4.5-3.5c1.3,0,2.3,0.7,2.3,1.7c0,1.7-2.5,3.5-4.6,3.5C361.2,40.7,360.2,40.1,360.2,39z"/>
</g>
<rect x="386.5" y="24.1" width="0.5" height="16.4"/>
<g>
	<path d="M386.5,24.1c0-1.8,2.5-3.5,4.5-3.5c1.3,0,2.3,0.7,2.3,1.7c0,1.7-2.5,3.5-4.6,3.5C387.5,25.9,386.5,25.2,386.5,24.1z"/>
</g>
<rect x="400.7" y="26.5" width="0.5" height="15.5"/>
<g>
	<path d="M400.8,26.6c0-1.8,2.5-3.5,4.5-3.5c1.3,0,2.3,0.7,2.3,1.7c0,1.7-2.5,3.5-4.6,3.5C401.8,28.3,400.8,27.7,400.8,26.6z"/>
</g>
<rect x="415.1" y="29" width="0.5" height="14.7"/>
<g>
	<path d="M415.2,29.1c0-1.8,2.5-3.5,4.5-3.5c1.3,0,2.3,0.7,2.3,1.7c0,1.7-2.5,3.5-4.6,3.5C416.2,30.8,415.2,30.2,415.2,29.1z"/>
</g>
<rect x="429.4" y="31.5" width="0.5" height="14"/>
<g>
	<path d="M429.5,31.6c0-1.8,2.5-3.5,4.5-3.5c1.3,0,2.3,0.7,2.3,1.7c0,1.7-2.5,3.5-4.6,3.5C430.5,33.3,429.5,32.7,429.5,31.6z"/>
</g>
<rect x="450.3" y="16" width="0.5" height="16.4"/>
<g>
	<path d="M443.9,34.1c0-1.8,2.5-3.5,4.5-3.5c1.3,0,2.3,0.7,2.3,1.7c0,1.7-2.5,3.5-4.6,3.5C444.9,35.8,443.9,35.1,443.9,34.1z"/>
</g>
<rect x="464.7" y="17.5" width="0.5" height="17.4"/>
<g>
	<path d="M458.3,36.5c0-1.8,2.5-3.5,4.5-3.5c1.3,0,2.3,0.7,2.3,1.7c0,1.7-2.5,3.5-4.6,3.5C459.3,38.3,458.3,37.6,458.3,36.5z"/>
</g>
<rect x="479" y="19.3" width="0.5" height="18.1"/>
<g>
	<path d="M472.6,39c0-1.8,2.5-3.5,4.5-3.5c1.3,0,2.3,0.7,2.3,1.7c0,1.7-2.5,3.5-4.6,3.5C473.5,40.7,472.6,40.1,472.6,39z"/>
</g>
<rect x="493.4" y="21" width="0.5" height="18.9"/>
<g>
	<path d="M487,41.5c0-1.8,2.5-3.5,4.5-3.5c1.3,0,2.3,0.7,2.3,1.7c0,1.7-2.5,3.5-4.6,3.5C488,43.2,487,42.6,487,41.5z"/>
</g>
<rect x="507.8" y="25.8" width="0.5" height="16.6"/>
<g>
	<path d="M505.5,40.4c1.6,0,2.7,0.7,2.7,2c0,1.9-2.3,3.4-4.5,3.4c-1.3,0-2.4-0.7-2.4-1.8C501.3,42.2,503.5,40.4,505.5,40.4z
		 M501.7,44.3c0,0.6,0.4,0.9,1.1,0.9c1.4,0,4.9-2.1,4.9-3.3c0-0.6-0.4-0.9-1.1-0.9C505.4,41,501.7,43,501.7,44.3z"/>
</g>
<rect x="74.1" y="73.7" width="0.5" height="14"/>
<g>
	<path d="M74.2,73.7c0-1.8,2.5-3.5,4.5-3.5C80,70.3,81,71,81,72c0,1.7-2.5,3.5-4.6,3.5C75.2,75.5,74.2,74.8,74.2,73.7z"/>
</g>
<rect x="88.5" y="71.2" width="0.5" height="14.9"/>
<g>
	<path d="M88.6,71.3c0-1.8,2.5-3.5,4.5-3.5c1.3,0,2.3,0.7,2.3,1.7c0,1.7-2.5,3.5-4.6,3.5C89.6,73,88.6,72.3,88.6,71.3z"/>
</g>
<rect x="102.8" y="68.7" width="0.5" height="15.7"/>
<g>
	<path d="M102.9,68.8c0-1.8,2.5-3.5,4.5-3.5c1.3,0,2.3,0.7,2.3,1.7c0,1.7-2.5,3.5-4.6,3.5C103.8,70.5,102.9,69.9,102.9,68.8z"/>
</g>
<rect x="117.2" y="66.2" width="0.5" height="16.4"/>
<g>
	<path d="M117.3,66.3c0-1.8,2.5-3.5,4.5-3.5c1.3,0,2.3,0.7,2.3,1.7c0,1.7-2.5,3.5-4.6,3.5C118.3,68,117.3,67.4,117.3,66.3z"/>
</g>
<rect x="131.1" y="62.6" width="10.5" height="0.8"/>
<rect x="132.9" y="63.7" width="0.5" height="15.2"/>
<g>
	<path d="M132.9,63.8c0-1.8,2.5-3.5,4.5-3.5c1.3,0,2.3,0.7,2.3,1.7c0,1.7-2.5,3.5-4.6,3.5C133.9,65.5,132.9,64.9,132.9,63.8z"/>
</g>
<g>
	<path d="M128.8,65.4c0-0.8-0.4-1.5-1.1-2.2c-0.7,0.7-1.1,1.4-1.1,2.2h-1.4V64c0.8,0,1.5-0.3,2.2-1c-0.7-0.7-1.4-1.1-2.2-1.1v-1.4
		h1.4c0,0.8,0.4,1.5,1.1,2.2c0.7-0.7,1.1-1.4,1.1-2.2h1.4v1.4c-0.8,0-1.5,0.4-2.2,1.1c0.7,0.7,1.4,1,2,1h0.2v1.4H128.8z"/>
</g>
<rect x="145.3" y="62.6" width="10.5" height="0.8"/>
<rect x="147.1" y="61.3" width="0.5" height="17.4"/>
<g>
	<path d="M147.2,61.3c0-1.8,2.5-3.5,4.5-3.5c1.3,0,2.3,0.7,2.3,1.7c0,1.7-2.5,3.5-4.6,3.5C148.2,63.1,147.2,62.4,147.2,61.3z"/>
</g>
<rect x="159.8" y="62.6" width="10.5" height="0.8"/>
<rect x="159.8" y="57.6" width="10.5" height="0.8"/>
<rect x="161.5" y="58.8" width="0.5" height="19.4"/>
<g>
	<path d="M161.6,58.9c0-1.8,2.5-3.5,4.5-3.5c1.3,0,2.3,0.7,2.3,1.7c0,1.7-2.5,3.5-4.6,3.5C162.6,60.6,161.6,59.9,161.6,58.9z"/>
</g>
<rect x="174" y="62.6" width="10.5" height="0.8"/>
<rect x="174" y="57.6" width="10.5" height="0.8"/>
<rect x="175.8" y="56.3" width="0.5" height="21.4"/>
<g>
	<path d="M175.9,56.4c0-1.8,2.5-3.5,4.5-3.5c1.3,0,2.3,0.7,2.3,1.7c0,1.7-2.5,3.5-4.6,3.5C176.8,58.1,175.9,57.5,175.9,56.4z"/>
</g>
<rect x="208.7" y="63.1" width="0.5" height="18.9"/>
<g>
	<path d="M202.2,83.7c0-1.8,2.5-3.5,4.5-3.5c1.3,0,2.3,0.7,2.3,1.7c0,1.7-2.5,3.5-4.6,3.5C203.2,85.4,202.2,84.8,202.2,83.7z"/>
</g>
<rect x="223.1" y="61.6" width="0.5" height="18"/>
<g>
	<path d="M216.6,81.2c0-1.8,2.5-3.5,4.5-3.5c1.3,0,2.3,0.7,2.3,1.7c0,1.7-2.5,3.5-4.6,3.5C217.6,82.9,216.6,82.3,216.6,81.2z"/>
</g>
<rect x="237.5" y="59.9" width="0.5" height="17.2"/>
<g>
	<path d="M231.1,78.7c0-1.8,2.5-3.5,4.5-3.5c1.3,0,2.3,0.7,2.3,1.7c0,1.7-2.5,3.5-4.6,3.5C232,80.4,231.1,79.8,231.1,78.7z"/>
</g>
<rect x="251.8" y="58.2" width="0.5" height="16.4"/>
<g>
	<path d="M245.3,76.2c0-1.8,2.5-3.5,4.5-3.5c1.3,0,2.3,0.7,2.3,1.7c0,1.7-2.5,3.5-4.6,3.5C246.3,77.9,245.3,77.3,245.3,76.2z"/>
</g>
<g>
	<path d="M242.4,77.8c0-0.8-0.4-1.5-1.1-2.2c-0.7,0.7-1.1,1.4-1.1,2.2h-1.4v-1.4c0.8,0,1.5-0.3,2.2-1c-0.7-0.7-1.4-1.1-2.2-1.1v-1.4
		h1.4c0,0.8,0.4,1.5,1.1,2.2c0.7-0.7,1.1-1.4,1.1-2.2h1.4v1.4c-0.8,0-1.5,0.4-2.2,1.1c0.7,0.7,1.4,1,2,1h0.2v1.4H242.4z"/>
</g>
<rect x="259.7" y="73.7" width="0.5" height="15.2"/>
<g>
	<path d="M259.7,73.7c0-1.8,2.5-3.5,4.5-3.5c1.3,0,2.3,0.7,2.3,1.7c0,1.7-2.5,3.5-4.6,3.5C260.7,75.5,259.7,74.8,259.7,73.7z"/>
</g>
<rect x="273.9" y="71.2" width="0.5" height="17.4"/>
<g>
	<path d="M274,71.3c0-1.8,2.5-3.5,4.5-3.5c1.3,0,2.3,0.7,2.3,1.7c0,1.7-2.5,3.5-4.6,3.5C275,73,274,72.3,274,71.3z"/>
</g>
<rect x="288.3" y="68.7" width="0.5" height="19.4"/>
<g>
	<path d="M288.4,68.8c0-1.8,2.5-3.5,4.5-3.5c1.3,0,2.3,0.7,2.3,1.7c0,1.7-2.5,3.5-4.6,3.5C289.4,70.5,288.4,69.9,288.4,68.8z"/>
</g>
<rect x="302.6" y="71.2" width="0.5" height="16.4"/>
<g>
	<path d="M302.7,71.3c0-1.8,2.5-3.5,4.5-3.5c1.3,0,2.3,0.7,2.3,1.7c0,1.7-2.5,3.5-4.6,3.5C303.6,73,302.7,72.3,302.7,71.3z"/>
</g>
<rect x="317" y="73.7" width="0.5" height="18.9"/>
<g>
	<path d="M317.1,73.7c0-1.8,2.5-3.5,4.5-3.5c1.3,0,2.3,0.7,2.3,1.7c0,1.7-2.5,3.5-4.6,3.5C318.1,75.5,317.1,74.8,317.1,73.7z"/>
</g>
<rect x="331.4" y="76.1" width="0.5" height="18"/>
<g>
	<path d="M331.5,76.2c0-1.8,2.5-3.5,4.5-3.5c1.3,0,2.3,0.7,2.3,1.7c0,1.7-2.5,3.5-4.6,3.5C332.5,77.9,331.5,77.3,331.5,76.2z"/>
</g>
<rect x="345.7" y="78.6" width="0.5" height="17.2"/>
<g>
	<path d="M345.8,78.7c0-1.8,2.5-3.5,4.5-3.5c1.3,0,2.3,0.7,2.3,1.7c0,1.7-2.5,3.5-4.6,3.5C346.7,80.4,345.8,79.8,345.8,78.7z"/>
</g>
<rect x="360.1" y="81.1" width="0.5" height="16.4"/>
<g>
	<path d="M360.2,81.2c0-1.8,2.5-3.5,4.5-3.5c1.3,0,2.3,0.7,2.3,1.7c0,1.7-2.5,3.5-4.6,3.5C361.2,82.9,360.2,82.3,360.2,81.2z"/>
</g>
<rect x="384.7" y="62.6" width="10.5" height="0.8"/>
<rect x="384.7" y="57.6" width="10.5" height="0.8"/>
<rect x="384.7" y="52.7" width="10.5" height="0.8"/>
<rect x="386.5" y="53.8" width="0.5" height="23.9"/>
<g>
	<path d="M386.5,53.9c0-1.8,2.5-3.5,4.5-3.5c1.3,0,2.3,0.7,2.3,1.7c0,1.7-2.5,3.5-4.6,3.5C387.5,55.6,386.5,55,386.5,53.9z"/>
</g>
<rect x="398.9" y="62.6" width="10.5" height="0.8"/>
<rect x="398.9" y="57.6" width="10.5" height="0.8"/>
<rect x="400.7" y="56.3" width="0.5" height="21.7"/>
<g>
	<path d="M400.8,56.4c0-1.8,2.5-3.5,4.5-3.5c1.3,0,2.3,0.7,2.3,1.7c0,1.7-2.5,3.5-4.6,3.5C401.8,58.1,400.8,57.5,400.8,56.4z"/>
</g>
<rect x="413.4" y="62.6" width="10.5" height="0.8"/>
<rect x="413.4" y="57.6" width="10.5" height="0.8"/>
<rect x="415.1" y="58.8" width="0.5" height="19.7"/>
<g>
	<path d="M415.2,58.9c0-1.8,2.5-3.5,4.5-3.5c1.3,0,2.3,0.7,2.3,1.7c0,1.7-2.5,3.5-4.6,3.5C416.2,60.6,415.2,59.9,415.2,58.9z"/>
</g>
<rect x="427.6" y="62.6" width="10.5" height="0.8"/>
<rect x="429.4" y="61.3" width="0.5" height="17.7"/>
<g>
	<path d="M429.5,61.3c0-1.8,2.5-3.5,4.5-3.5c1.3,0,2.3,0.7,2.3,1.7c0,1.7-2.5,3.5-4.6,3.5C430.5,63.1,429.5,62.4,429.5,61.3z"/>
</g>
<rect x="442" y="62.6" width="10.5" height="0.8"/>
<rect x="443.8" y="63.7" width="0.5" height="18.9"/>
<g>
	<path d="M443.9,63.8c0-1.8,2.5-3.5,4.5-3.5c1.3,0,2.3,0.7,2.3,1.7c0,1.7-2.5,3.5-4.6,3.5C444.9,65.5,443.9,64.9,443.9,63.8z"/>
</g>
<rect x="458.2" y="66.2" width="0.5" height="18"/>
<g>
	<path d="M458.3,66.3c0-1.8,2.5-3.5,4.5-3.5c1.3,0,2.3,0.7,2.3,1.7c0,1.7-2.5,3.5-4.6,3.5C459.3,68,458.3,67.4,458.3,66.3z"/>
</g>
<rect x="472.5" y="68.7" width="0.5" height="17.2"/>
<g>
	<path d="M472.6,68.8c0-1.8,2.5-3.5,4.5-3.5c1.3,0,2.3,0.7,2.3,1.7c0,1.7-2.5,3.5-4.6,3.5C473.5,70.5,472.6,69.9,472.6,68.8z"/>
</g>
<rect x="486.9" y="71.2" width="0.5" height="16.4"/>
<g>
	<path d="M487,71.3c0-1.8,2.5-3.5,4.5-3.5c1.3,0,2.3,0.7,2.3,1.7c0,1.7-2.5,3.5-4.6,3.5C488,73,487,72.3,487,71.3z"/>
</g>
<rect x="501.2" y="73.7" width="0.5" height="16.6"/>
<g>
	<path d="M505.5,70.2c1.6,0,2.7,0.7,2.7,2c0,1.9-2.3,3.4-4.5,3.4c-1.3,0-2.4-0.7-2.4-1.8C501.3,72,503.5,70.2,505.5,70.2z M501.7,74
		c0,0.6,0.4,0.9,1.1,0.9c1.4,0,4.9-2.1,4.9-3.3c0-0.6-0.4-0.9-1.1-0.9C505.4,70.8,501.7,72.8,501.7,74z"/>
</g>
</svg>
