<?xml version="1.0" encoding="utf-8"?>

<!--
	ScaleBook
	Copyright (c) Leland Jansen 2015. All rights reserved.
-->

<!DOCTYPE svg PUBLIC "-//W3C//DTD SVG 1.1//EN" "http://www.w3.org/Graphics/SVG/1.1/DTD/svg11.dtd">
<svg version="1.1" id="Layer_1" xmlns="http://www.w3.org/2000/svg" xmlns:xlink="http://www.w3.org/1999/xlink" x="0px" y="0px"
	 viewBox="0 0 552.9 86.6" enable-background="new 0 0 552.9 86.6" xml:space="preserve">
<rect x="8.4" y="9.7" width="0.8" height="67"/>
<g>
	<path d="M7.4,10.4c-1.9,1.1-3.6,5.8-3.6,9.4c0,2.3,1.4,9.9,1.4,12.3c0,5-1.5,8.6-4.6,11.1c3,2.4,4.6,6.1,4.6,11
		c0,2.3-1.4,9.9-1.4,12.3c0,3.8,1.7,8.4,3.6,9.5v0.7c-3.5-2.3-5.8-8.2-5.8-13.1c0-2.1,1.7-9.4,1.7-11.5c0-3.8-1-6.6-2.9-8.2
		C0.1,43.6,0,43.4,0,43.2s0.1-0.4,0.5-0.7c1.9-1.7,2.9-4.2,2.9-7.6c0-2.1-1.7-10-1.7-12.2c0-5.2,2.1-10.4,5.8-13.1V10.4z"/>
</g>
<rect x="547.8" y="9.7" width="0.8" height="67"/>
<rect x="550.4" y="9.7" width="2.5" height="67"/>
<rect x="8.5" y="29.3" width="544.4" height="0.5"/>
<rect x="8.5" y="24.4" width="544.4" height="0.5"/>
<rect x="8.5" y="19.4" width="544.4" height="0.5"/>
<rect x="8.5" y="14.4" width="544.4" height="0.5"/>
<rect x="8.5" y="9.5" width="544.4" height="0.5"/>
<g>
	<path d="M20.3,29.4c-4.2,0-8.1-3.1-8.1-6.9c0-3.2,2.3-6.7,6.8-10.5c-0.3-1.2-0.4-2.4-0.4-3.6c0-3.5,1.2-6.8,3.2-8.5
		c1.8,2.5,2.7,4.9,2.7,7.1c0,2.9-1.3,5.6-4.3,8.1l0.9,4.2c0.5,0,0.8-0.1,0.8-0.1c2.6,0,4.8,2,4.8,4.7c0,1.9-1.4,3.7-3.6,4.8
		c0-0.1,0.9,3.8,0.9,4.3c0,2.5-2.3,4.2-4.9,4.2c-2,0-3.6-1.3-3.6-3.4c0-1.4,1-2.6,2.4-2.6c1.3,0,2.3,1.3,2.3,2.5
		c0,1.4-1.2,2.3-2.7,2.5c0.6,0.3,1.2,0.5,1.9,0.5c2.1,0,4.1-1.6,4.1-3.6c0-0.2,0-0.4-0.1-0.6l-0.8-3.7
		C21.9,29.3,21.2,29.4,20.3,29.4z M18.1,24.2c0,1,0.5,1.9,1.6,2.5c-1.8-0.3-3-1.4-3-3.1c0-2,1.7-3.7,3.8-4.1l-0.8-4
		C16,18.3,14,21,14,23.6c0,2.9,2.8,5.3,6,5.3c0.9,0,1.7-0.2,2.4-0.5L21,21.6C19.4,21.8,18.1,22.8,18.1,24.2z M22.1,2.8
		c-1.6,0-2.9,3.7-2.9,7c0,0.7,0,1.3,0.2,1.9c2.7-2.4,4-4.5,4-6.5c0-0.9-0.3-1.7-1-2.4C22.4,2.9,22.3,2.8,22.1,2.8z M24.9,24.7
		c0-1.6-1.2-3.3-2.9-3.3c-0.1,0-0.2,0-0.5,0l1.4,6.6C24.2,27.2,24.9,26,24.9,24.7z"/>
</g>
<g>
	<path d="M29.5,11.3h0.6L30,17.6c0.4-0.7,1-1,1.8-1c1.2,0,2.2,0.8,2.2,1.9c0,0.8-0.5,1.8-1.7,2.7l-2.8,2.1V11.3z M30.1,18.2
		C30,19,30,19.6,30,20.2c0,1,0,1.6,0.1,2c1-0.7,2.4-2.6,2.4-3.7c0-0.6-0.5-1.1-1.1-1.1C30.8,17.4,30.4,17.7,30.1,18.2z"/>
</g>
<g>
	<path d="M35.1,3.9h0.6l-0.1,6.2c0.4-0.7,1-1,1.8-1c1.2,0,2.2,0.8,2.2,1.9c0,0.8-0.5,1.8-1.7,2.7l-2.8,2.1V3.9z M35.7,10.8
		c-0.1,0.8-0.1,1.4-0.1,1.9c0,1,0,1.6,0.1,2c1-0.7,2.4-2.6,2.4-3.7c0-0.6-0.5-1.1-1.1-1.1C36.4,10,36,10.2,35.7,10.8z"/>
</g>
<polygon fill-rule="evenodd" clip-rule="evenodd" points="54.8,25.8 100.7,24.6 100.7,22.1 54.8,23.4 "/>
<polygon fill-rule="evenodd" clip-rule="evenodd" points="54.8,22.1 100.7,20.9 100.7,18.4 54.8,19.6 "/>
<polygon fill-rule="evenodd" clip-rule="evenodd" points="116,20.9 161.8,15.9 161.8,13.4 116,18.4 "/>
<polygon fill-rule="evenodd" clip-rule="evenodd" points="116,17.2 161.8,12.2 161.8,9.7 116,14.7 "/>
<polygon fill-rule="evenodd" clip-rule="evenodd" points="181.6,35.8 227.5,30.8 227.5,28.3 181.6,33.3 "/>
<polygon fill-rule="evenodd" clip-rule="evenodd" points="181.6,39.5 227.5,34.5 227.5,32 181.6,37 "/>
<polygon fill-rule="evenodd" clip-rule="evenodd" points="242.8,27.1 288.7,25.8 288.7,23.4 242.8,24.6 "/>
<polygon fill-rule="evenodd" clip-rule="evenodd" points="242.8,30.8 288.7,29.6 288.7,27.1 242.8,28.3 "/>
<polygon fill-rule="evenodd" clip-rule="evenodd" points="304.1,25.8 350,30.8 350,28.3 304.1,23.4 "/>
<polygon fill-rule="evenodd" clip-rule="evenodd" points="304.1,29.6 350,34.5 350,32 304.1,27.1 "/>
<polygon fill-rule="evenodd" clip-rule="evenodd" points="382.8,11 428.6,15.9 428.6,13.4 382.8,8.5 "/>
<polygon fill-rule="evenodd" clip-rule="evenodd" points="382.8,7.2 428.6,12.2 428.6,9.7 382.8,4.8 "/>
<polygon fill-rule="evenodd" clip-rule="evenodd" points="443.9,20.9 489.8,25.8 489.8,23.4 443.9,18.4 "/>
<polygon fill-rule="evenodd" clip-rule="evenodd" points="443.9,17.2 489.8,22.1 489.8,19.6 443.9,14.7 "/>
<rect x="8.5" y="76.4" width="544.4" height="0.5"/>
<rect x="8.5" y="71.5" width="544.4" height="0.5"/>
<rect x="8.5" y="66.5" width="544.4" height="0.5"/>
<rect x="8.5" y="61.6" width="544.4" height="0.5"/>
<rect x="8.5" y="56.6" width="544.4" height="0.5"/>
<g>
	<path d="M15.7,71c2.9-2.6,4.7-6.1,4.7-9.2c0-2.5-1.4-4.4-3.7-4.4c-1.6,0-3.4,1.3-3.4,2.7c0,0.2,0,0.3,0.1,0.3
		c-0.1,0,0.6-0.6,1.4-0.6c0.9,0,1.5,0.8,1.5,1.7c0,1.2-0.9,2.2-2.1,2.2c-1.2,0-2.1-1.3-2.1-2.8c0-2.3,2.3-4.1,4.8-4.1
		c4.7,0,5.9,3.2,5.9,5.8c0,1.6-0.4,2.9-2,5.3c-1.9,3.1-6.4,5.3-8.1,5.3c-0.4,0-0.6-0.2-0.6-0.5C13.8,72.3,14.9,71.7,15.7,71z
		 M25.7,58.3c0.6,0,1,0.4,1,1s-0.4,1-1,1s-1-0.4-1-1S25.1,58.3,25.7,58.3z M25.7,63.3c0.6,0,1,0.4,1,1c0,0.6-0.4,1-1,1s-1-0.4-1-1
		C24.7,63.7,25.1,63.3,25.7,63.3z"/>
</g>
<g>
	<path d="M29.5,63.4h0.6L30,69.7c0.4-0.7,1-1,1.8-1c1.2,0,2.2,0.8,2.2,1.9c0,0.8-0.5,1.8-1.7,2.7l-2.8,2.1V63.4z M30.1,70.3
		C30,71.1,30,71.7,30,72.3c0,1,0,1.6,0.1,2c1-0.7,2.4-2.6,2.4-3.7c0-0.6-0.5-1.1-1.1-1.1C30.8,69.5,30.4,69.8,30.1,70.3z"/>
</g>
<g>
	<path d="M35.1,56h0.6l-0.1,6.2c0.4-0.7,1-1,1.8-1c1.2,0,2.2,0.8,2.2,1.9c0,0.8-0.5,1.8-1.7,2.7l-2.8,2.1V56z M35.7,62.9
		c-0.1,0.8-0.1,1.4-0.1,1.9c0,1,0,1.6,0.1,2c1-0.7,2.4-2.6,2.4-3.7c0-0.6-0.5-1.1-1.1-1.1C36.4,62,36,62.3,35.7,62.9z"/>
</g>
<polygon fill-rule="evenodd" clip-rule="evenodd" points="54.8,58.1 100.7,53.1 100.7,50.6 54.8,55.6 "/>
<polygon fill-rule="evenodd" clip-rule="evenodd" points="54.8,54.4 100.7,49.4 100.7,46.9 54.8,51.9 "/>
<g>
	<path d="M173.6,75.3c-3.2,0-6.1-2.3-6.1-5.1c0-2.4,1.7-5,5.1-7.9c-0.2-0.9-0.3-1.8-0.3-2.7c0-2.6,0.9-5.1,2.4-6.3
		c1.4,1.9,2,3.7,2,5.3c0,2.2-1,4.2-3.2,6.1l0.7,3.1c0.4,0,0.6,0,0.6,0c2,0,3.6,1.5,3.6,3.5c0,1.4-1.1,2.8-2.7,3.6
		c0-0.1,0.6,2.8,0.6,3.3c0,1.9-1.7,3.2-3.7,3.2c-1.5,0-2.7-1-2.7-2.5c0-1.1,0.7-1.9,1.8-1.9c1,0,1.7,1,1.7,1.9c0,1-0.9,1.7-2,1.8
		c0.4,0.2,0.9,0.3,1.4,0.3c1.6,0,3.1-1.2,3.1-2.7c0-0.1,0-0.3,0-0.5l-0.6-2.8C174.8,75.2,174.3,75.3,173.6,75.3z M171.9,71.4
		c0,0.8,0.4,1.4,1.2,1.9c-1.3-0.2-2.2-1.1-2.2-2.3c0-1.5,1.3-2.8,2.9-3.1l-0.6-3c-2.8,2.1-4.3,4.1-4.3,6.1c0,2.2,2.1,4,4.5,4
		c0.7,0,1.3-0.1,1.8-0.4l-1.1-5.1C172.9,69.6,171.9,70.4,171.9,71.4z M175,55.4c-1.2,0-2.2,2.8-2.2,5.3c0,0.5,0,1,0.1,1.4
		c2-1.8,3-3.4,3-4.8c0-0.7-0.3-1.3-0.7-1.8C175.2,55.4,175.1,55.4,175,55.4z M177,71.8c0-1.2-0.9-2.4-2.2-2.4c0,0-0.2,0-0.4,0l1.1,5
		C176.5,73.7,177,72.8,177,71.8z"/>
</g>
<polygon fill-rule="evenodd" clip-rule="evenodd" points="109.5,73 155.3,68 155.3,65.5 109.5,70.5 "/>
<polygon fill-rule="evenodd" clip-rule="evenodd" points="109.5,76.7 155.3,71.7 155.3,69.2 109.5,74.2 "/>
<polygon fill-rule="evenodd" clip-rule="evenodd" points="188.1,68 234,63 234,60.6 188.1,65.5 "/>
<polygon fill-rule="evenodd" clip-rule="evenodd" points="188.1,64.3 234,59.3 234,56.8 188.1,61.8 "/>
<rect x="249.4" y="54.4" fill-rule="evenodd" clip-rule="evenodd" width="45.9" height="2.5"/>
<rect x="249.4" y="50.6" fill-rule="evenodd" clip-rule="evenodd" width="45.9" height="2.5"/>
<g>
	<path d="M364.9,68.7c2.2-2,3.6-4.6,3.6-6.9c0-1.9-1.1-3.3-2.8-3.3c-1.2,0-2.5,1-2.5,2.1c0,0.2,0,0.2,0.1,0.2c0,0,0.4-0.5,1-0.5
		c0.7,0,1.2,0.6,1.2,1.3c0,0.9-0.6,1.7-1.6,1.7s-1.5-1-1.5-2.1c0-1.8,1.7-3.1,3.6-3.1c3.5,0,4.4,2.4,4.4,4.4c0,1.2-0.3,2.2-1.5,4
		c-1.4,2.3-4.8,4-6,4c-0.3,0-0.5-0.1-0.5-0.3C363.4,69.7,364.3,69.2,364.9,68.7z M372.3,59.2c0.4,0,0.7,0.3,0.7,0.7
		c0,0.4-0.3,0.7-0.7,0.7c-0.4,0-0.7-0.3-0.7-0.7C371.6,59.5,371.9,59.2,372.3,59.2z M372.3,62.9c0.4,0,0.7,0.3,0.7,0.7
		c0,0.4-0.3,0.7-0.7,0.7c-0.4,0-0.7-0.3-0.7-0.7C371.6,63.2,371.9,62.9,372.3,62.9z"/>
</g>
<polygon fill-rule="evenodd" clip-rule="evenodd" points="310.6,63 356.5,68 356.5,65.5 310.6,60.6 "/>
<polygon fill-rule="evenodd" clip-rule="evenodd" points="310.6,59.3 356.5,64.3 356.5,61.8 310.6,56.8 "/>
<polygon fill-rule="evenodd" clip-rule="evenodd" points="376.3,68 422,73 422,70.5 376.3,65.5 "/>
<polygon fill-rule="evenodd" clip-rule="evenodd" points="376.3,71.7 422,76.7 422,74.2 376.3,69.2 "/>
<polygon fill-rule="evenodd" clip-rule="evenodd" points="437.4,77.9 483.3,82.9 483.3,80.4 437.4,75.4 "/>
<polygon fill-rule="evenodd" clip-rule="evenodd" points="437.4,81.6 483.3,86.6 483.3,84.1 437.4,79.2 "/>
<rect x="46.3" y="34.1" width="10.5" height="0.8"/>
<rect x="46.3" y="39.1" width="10.5" height="0.8"/>
<rect x="54.6" y="19.8" width="0.5" height="21.4"/>
<g>
	<path d="M48.1,42.8c0-1.8,2.5-3.5,4.5-3.5c1.3,0,2.3,0.7,2.3,1.7c0,1.7-2.5,3.5-4.6,3.5C49.1,44.5,48.1,43.9,48.1,42.8z"/>
</g>
<rect x="61.6" y="34.1" width="10.5" height="0.8"/>
<rect x="61.6" y="39.1" width="10.5" height="0.8"/>
<rect x="69.9" y="19.5" width="0.5" height="19.2"/>
<g>
	<path d="M63.5,40.3c0-1.8,2.5-3.5,4.5-3.5c1.3,0,2.3,0.7,2.3,1.7c0,1.7-2.5,3.5-4.6,3.5C64.5,42.1,63.5,41.4,63.5,40.3z"/>
</g>
<rect x="76.8" y="34.1" width="10.5" height="0.8"/>
<rect x="85.1" y="19" width="0.5" height="17.2"/>
<g>
	<path d="M78.7,37.9c0-1.8,2.5-3.5,4.5-3.5c1.3,0,2.3,0.7,2.3,1.7c0,1.7-2.5,3.5-4.6,3.5C79.7,39.6,78.7,38.9,78.7,37.9z"/>
</g>
<rect x="92.2" y="34.1" width="10.5" height="0.8"/>
<rect x="100.5" y="18.6" width="0.5" height="15.2"/>
<g>
	<path d="M94,35.4c0-1.8,2.5-3.5,4.5-3.5c1.3,0,2.3,0.7,2.3,1.7c0,1.7-2.5,3.5-4.6,3.5C95,37.1,94,36.5,94,35.4z"/>
</g>
<rect x="115.8" y="14.8" width="0.5" height="16.4"/>
<g>
	<path d="M109.4,32.9c0-1.8,2.5-3.5,4.5-3.5c1.3,0,2.3,0.7,2.3,1.7c0,1.7-2.5,3.5-4.6,3.5C110.3,34.6,109.4,34,109.4,32.9z"/>
</g>
<rect x="131" y="13.3" width="0.5" height="15.5"/>
<g>
	<path d="M124.6,30.4c0-1.8,2.5-3.5,4.5-3.5c1.3,0,2.3,0.7,2.3,1.7c0,1.7-2.5,3.5-4.6,3.5C125.5,32.1,124.6,31.5,124.6,30.4z"/>
</g>
<rect x="146.3" y="11.6" width="0.5" height="14.7"/>
<g>
	<path d="M139.9,27.9c0-1.8,2.5-3.5,4.5-3.5c1.3,0,2.3,0.7,2.3,1.7c0,1.7-2.5,3.5-4.6,3.5C140.9,29.7,139.9,29,139.9,27.9z"/>
</g>
<g>
	<path d="M137.5,20.3v2.8l1-0.3v1.8l-1,0.3v3.4l1-0.3v1.8l-1,0.3v3.1H137v-3l-1.9,0.6v3h-0.5V31l-1,0.3v-1.8l1-0.3v-3.4l-1,0.3v-1.8
		l1-0.3v-3.1h0.5v3l1.9-0.6v-3H137.5z M137,25l-1.9,0.6v3.4l1.9-0.6V25z"/>
</g>
<rect x="161.5" y="9.9" width="0.5" height="14"/>
<g>
	<path d="M155.1,25.5c0-1.8,2.5-3.5,4.5-3.5c1.3,0,2.3,0.7,2.3,1.7c0,1.7-2.5,3.5-4.6,3.5C156.1,27.2,155.1,26.5,155.1,25.5z"/>
</g>
<rect x="181.4" y="22.9" width="0.5" height="16.4"/>
<g>
	<path d="M181.5,23c0-1.8,2.5-3.5,4.5-3.5c1.3,0,2.3,0.7,2.3,1.7c0,1.7-2.5,3.5-4.6,3.5C182.4,24.7,181.5,24.1,181.5,23z"/>
</g>
<rect x="196.7" y="20.4" width="0.5" height="17.4"/>
<g>
	<path d="M196.8,20.5c0-1.8,2.5-3.5,4.5-3.5c1.3,0,2.3,0.7,2.3,1.7c0,1.7-2.5,3.5-4.6,3.5C197.8,22.2,196.8,21.6,196.8,20.5z"/>
</g>
<rect x="212.1" y="17.9" width="0.5" height="18.1"/>
<g>
	<path d="M212.1,18c0-1.8,2.5-3.5,4.5-3.5c1.3,0,2.3,0.7,2.3,1.7c0,1.7-2.5,3.5-4.6,3.5C213.1,19.7,212.1,19.1,212.1,18z"/>
</g>
<rect x="227.3" y="15.5" width="0.5" height="18.9"/>
<g>
	<path d="M227.3,15.5c0-1.8,2.5-3.5,4.5-3.5c1.3,0,2.3,0.7,2.3,1.7c0,1.7-2.5,3.5-4.6,3.5C228.3,17.3,227.3,16.6,227.3,15.5z"/>
</g>
<rect x="242.6" y="13" width="0.5" height="17.7"/>
<g>
	<path d="M242.7,13c0-1.8,2.5-3.5,4.5-3.5c1.3,0,2.3,0.7,2.3,1.7c0,1.7-2.5,3.5-4.6,3.5C243.7,14.8,242.7,14.1,242.7,13z"/>
</g>
<rect x="258" y="10.5" width="0.5" height="19.8"/>
<g>
	<path d="M258,10.6c0-1.8,2.5-3.5,4.5-3.5c1.3,0,2.3,0.7,2.3,1.7c0,1.7-2.5,3.5-4.6,3.5C259,12.3,258,11.7,258,10.6z"/>
</g>
<g>
	<path d="M255.6,2.9v2.8l1-0.3v1.8l-1,0.3V11l1-0.3v1.8l-1,0.3v3.1h-0.5v-3l-1.9,0.6v3h-0.5v-2.8l-1,0.3v-1.8l1-0.3V8.4l-1,0.3V7
		l1-0.3V3.5h0.5v3l1.9-0.6v-3H255.6z M255.1,7.7l-1.9,0.6v3.4l1.9-0.6V7.7z"/>
</g>
<rect x="273.1" y="8" width="0.5" height="21.9"/>
<g>
	<path d="M273.2,8.1c0-1.8,2.5-3.5,4.5-3.5c1.3,0,2.3,0.7,2.3,1.7c0,1.7-2.5,3.5-4.6,3.5C274.2,9.8,273.2,9.2,273.2,8.1z"/>
</g>
<rect x="288.5" y="10.5" width="0.5" height="18.9"/>
<g>
	<path d="M288.6,10.6c0-1.8,2.5-3.5,4.5-3.5c1.3,0,2.3,0.7,2.3,1.7c0,1.7-2.5,3.5-4.6,3.5C289.5,12.3,288.6,11.7,288.6,10.6z"/>
</g>
<rect x="303.8" y="13" width="0.5" height="16.4"/>
<g>
	<path d="M303.9,13c0-1.8,2.5-3.5,4.5-3.5c1.3,0,2.3,0.7,2.3,1.7c0,1.7-2.5,3.5-4.6,3.5C304.9,14.8,303.9,14.1,303.9,13z"/>
</g>
<rect x="319" y="15.5" width="0.5" height="15.5"/>
<g>
	<path d="M319.1,15.5c0-1.8,2.5-3.5,4.5-3.5c1.3,0,2.3,0.7,2.3,1.7c0,1.7-2.5,3.5-4.6,3.5C320.1,17.3,319.1,16.6,319.1,15.5z"/>
</g>
<rect x="334.4" y="17.9" width="0.5" height="14.7"/>
<g>
	<path d="M334.5,18c0-1.8,2.5-3.5,4.5-3.5c1.3,0,2.3,0.7,2.3,1.7c0,1.7-2.5,3.5-4.6,3.5C335.4,19.7,334.5,19.1,334.5,18z"/>
</g>
<rect x="349.7" y="20.4" width="0.5" height="14"/>
<g>
	<path d="M349.8,20.5c0-1.8,2.5-3.5,4.5-3.5c1.3,0,2.3,0.7,2.3,1.7c0,1.7-2.5,3.5-4.6,3.5C350.8,22.2,349.8,21.6,349.8,20.5z"/>
</g>
<rect x="382.6" y="4.9" width="0.5" height="16.4"/>
<g>
	<path d="M376.2,23c0-1.8,2.5-3.5,4.5-3.5c1.3,0,2.3,0.7,2.3,1.7c0,1.7-2.5,3.5-4.6,3.5C377.1,24.7,376.2,24.1,376.2,23z"/>
</g>
<rect x="397.8" y="6.5" width="0.5" height="17.4"/>
<g>
	<path d="M391.3,25.5c0-1.8,2.5-3.5,4.5-3.5c1.3,0,2.3,0.7,2.3,1.7c0,1.7-2.5,3.5-4.6,3.5C392.3,27.2,391.3,26.5,391.3,25.5z"/>
</g>
<rect x="413.1" y="8.2" width="0.5" height="18.1"/>
<g>
	<path d="M406.7,27.9c0-1.8,2.5-3.5,4.5-3.5c1.3,0,2.3,0.7,2.3,1.7c0,1.7-2.5,3.5-4.6,3.5C407.7,29.7,406.7,29,406.7,27.9z"/>
</g>
<rect x="428.3" y="9.9" width="0.5" height="18.9"/>
<g>
	<path d="M421.9,30.4c0-1.8,2.5-3.5,4.5-3.5c1.3,0,2.3,0.7,2.3,1.7c0,1.7-2.5,3.5-4.6,3.5C422.9,32.1,421.9,31.5,421.9,30.4z"/>
</g>
<rect x="443.7" y="14.8" width="0.5" height="16.4"/>
<g>
	<path d="M437.2,32.9c0-1.8,2.5-3.5,4.5-3.5c1.3,0,2.3,0.7,2.3,1.7c0,1.7-2.5,3.5-4.6,3.5C438.2,34.6,437.2,34,437.2,32.9z"/>
</g>
<rect x="450.7" y="34.1" width="10.5" height="0.8"/>
<rect x="459" y="16.4" width="0.5" height="17.4"/>
<g>
	<path d="M452.6,35.4c0-1.8,2.5-3.5,4.5-3.5c1.3,0,2.3,0.7,2.3,1.7c0,1.7-2.5,3.5-4.6,3.5C453.5,37.1,452.6,36.5,452.6,35.4z"/>
</g>
<rect x="465.9" y="34.1" width="10.5" height="0.8"/>
<rect x="474.2" y="18.1" width="0.5" height="18.1"/>
<g>
	<path d="M467.8,37.9c0-1.8,2.5-3.5,4.5-3.5c1.3,0,2.3,0.7,2.3,1.7c0,1.7-2.5,3.5-4.6,3.5C468.7,39.6,467.8,38.9,467.8,37.9z"/>
</g>
<rect x="481.3" y="34.1" width="10.5" height="0.8"/>
<rect x="481.3" y="39.1" width="10.5" height="0.8"/>
<rect x="489.5" y="19.8" width="0.5" height="18.9"/>
<g>
	<path d="M483.1,40.3c0-1.8,2.5-3.5,4.5-3.5c1.3,0,2.3,0.7,2.3,1.7c0,1.7-2.5,3.5-4.6,3.5C484.1,42.1,483.1,41.4,483.1,40.3z"/>
</g>
<rect x="496.6" y="34.1" width="10.7" height="0.8"/>
<rect x="496.6" y="39.1" width="10.7" height="0.8"/>
<rect x="505.1" y="19.6" width="0.5" height="21.5"/>
<g>
	<path d="M502.7,39.3c1.6,0,2.7,0.7,2.7,2c0,1.9-2.3,3.4-4.5,3.4c-1.3,0-2.4-0.7-2.4-1.8C498.5,41,500.7,39.3,502.7,39.3z
		 M498.9,43.1c0,0.6,0.4,0.9,1.1,0.9c1.4,0,4.9-2.1,4.9-3.3c0-0.6-0.4-0.9-1.1-0.9C502.6,39.9,498.9,41.9,498.9,43.1z"/>
</g>
<rect x="54.6" y="52" width="0.5" height="18.9"/>
<g>
	<path d="M48.1,72.6c0-1.8,2.5-3.5,4.5-3.5c1.3,0,2.3,0.7,2.3,1.7c0,1.7-2.5,3.5-4.6,3.5C49.1,74.3,48.1,73.7,48.1,72.6z"/>
</g>
<rect x="69.9" y="50.5" width="0.5" height="18"/>
<g>
	<path d="M63.5,70.1c0-1.8,2.5-3.5,4.5-3.5c1.3,0,2.3,0.7,2.3,1.7c0,1.7-2.5,3.5-4.6,3.5C64.5,71.8,63.5,71.2,63.5,70.1z"/>
</g>
<rect x="85.1" y="48.8" width="0.5" height="17.2"/>
<g>
	<path d="M78.7,67.6c0-1.8,2.5-3.5,4.5-3.5c1.3,0,2.3,0.7,2.3,1.7c0,1.7-2.5,3.5-4.6,3.5C79.7,69.3,78.7,68.7,78.7,67.6z"/>
</g>
<rect x="100.5" y="47.1" width="0.5" height="16.4"/>
<g>
	<path d="M94,65.1c0-1.8,2.5-3.5,4.5-3.5c1.3,0,2.3,0.7,2.3,1.7c0,1.7-2.5,3.5-4.6,3.5C95,66.9,94,66.2,94,65.1z"/>
</g>
<rect x="109.3" y="62.6" width="0.5" height="14"/>
<g>
	<path d="M109.4,62.7c0-1.8,2.5-3.5,4.5-3.5c1.3,0,2.3,0.7,2.3,1.7c0,1.7-2.5,3.5-4.6,3.5C110.3,64.4,109.4,63.7,109.4,62.7z"/>
</g>
<g>
	<path d="M106.9,55v2.8l1-0.3v1.8l-1,0.3V63l1-0.3v1.8l-1,0.3V68h-0.5v-3l-1.9,0.6v3h-0.5v-2.8l-1,0.3v-1.8l1-0.3v-3.4l-1,0.3v-1.8
		l1-0.3v-3.1h0.5v3l1.9-0.6v-3H106.9z M106.5,59.8l-1.9,0.6v3.4l1.9-0.6V59.8z"/>
</g>
<rect x="124.5" y="60.1" width="0.5" height="14.9"/>
<g>
	<path d="M124.6,60.2c0-1.8,2.5-3.5,4.5-3.5c1.3,0,2.3,0.7,2.3,1.7c0,1.7-2.5,3.5-4.6,3.5C125.5,61.9,124.6,61.3,124.6,60.2z"/>
</g>
<rect x="139.8" y="57.6" width="0.5" height="15.7"/>
<g>
	<path d="M139.9,57.7c0-1.8,2.5-3.5,4.5-3.5c1.3,0,2.3,0.7,2.3,1.7c0,1.7-2.5,3.5-4.6,3.5C140.9,59.4,139.9,58.8,139.9,57.7z"/>
</g>
<rect x="155" y="55.1" width="0.5" height="16.4"/>
<g>
	<path d="M155.1,55.2c0-1.8,2.5-3.5,4.5-3.5c1.3,0,2.3,0.7,2.3,1.7c0,1.7-2.5,3.5-4.6,3.5C156.1,56.9,155.1,56.3,155.1,55.2z"/>
</g>
<rect x="179.6" y="81.3" width="10.5" height="0.8"/>
<rect x="187.9" y="62" width="0.5" height="18.9"/>
<g>
	<path d="M181.5,82.5c0-1.8,2.5-3.5,4.5-3.5c1.3,0,2.3,0.7,2.3,1.7c0,1.7-2.5,3.5-4.6,3.5C182.4,84.2,181.5,83.6,181.5,82.5z"/>
</g>
<rect x="203.2" y="60.4" width="0.5" height="18"/>
<g>
	<path d="M196.8,80c0-1.8,2.5-3.5,4.5-3.5c1.3,0,2.3,0.7,2.3,1.7c0,1.7-2.5,3.5-4.6,3.5C197.8,81.7,196.8,81.1,196.8,80z"/>
</g>
<rect x="218.6" y="58.7" width="0.5" height="17.2"/>
<g>
	<path d="M212.1,77.5c0-1.8,2.5-3.5,4.5-3.5c1.3,0,2.3,0.7,2.3,1.7c0,1.7-2.5,3.5-4.6,3.5C213.1,79.3,212.1,78.6,212.1,77.5z"/>
</g>
<rect x="233.8" y="57" width="0.5" height="16.4"/>
<g>
	<path d="M227.3,75.1c0-1.8,2.5-3.5,4.5-3.5c1.3,0,2.3,0.7,2.3,1.7c0,1.7-2.5,3.5-4.6,3.5C228.3,76.8,227.3,76.1,227.3,75.1z"/>
</g>
<g>
	<path d="M224.9,67.4v2.8l1-0.3v1.8l-1,0.3v3.4l1-0.3v1.8l-1,0.3v3.1h-0.5v-3l-1.9,0.6v3H222v-2.8l-1,0.3v-1.8l1-0.3v-3.4l-1,0.3
		v-1.8l1-0.3V68h0.5v3l1.9-0.6v-3H224.9z M224.4,72.2l-1.9,0.6v3.4l1.9-0.6V72.2z"/>
</g>
<rect x="249.1" y="50.8" width="0.5" height="20.2"/>
<g>
	<path d="M242.7,72.6c0-1.8,2.5-3.5,4.5-3.5c1.3,0,2.3,0.7,2.3,1.7c0,1.7-2.5,3.5-4.6,3.5C243.7,74.3,242.7,73.7,242.7,72.6z"/>
</g>
<rect x="264.5" y="50.8" width="0.5" height="17.7"/>
<g>
	<path d="M258,70.1c0-1.8,2.5-3.5,4.5-3.5c1.3,0,2.3,0.7,2.3,1.7c0,1.7-2.5,3.5-4.6,3.5C259,71.8,258,71.2,258,70.1z"/>
</g>
<rect x="279.7" y="50.8" width="0.5" height="15.2"/>
<g>
	<path d="M273.2,67.6c0-1.8,2.5-3.5,4.5-3.5c1.3,0,2.3,0.7,2.3,1.7c0,1.7-2.5,3.5-4.6,3.5C274.2,69.3,273.2,68.7,273.2,67.6z"/>
</g>
<rect x="295" y="50.8" width="0.5" height="17.7"/>
<g>
	<path d="M288.6,70.1c0-1.8,2.5-3.5,4.5-3.5c1.3,0,2.3,0.7,2.3,1.7c0,1.7-2.5,3.5-4.6,3.5C289.5,71.8,288.6,71.2,288.6,70.1z"/>
</g>
<rect x="310.4" y="57" width="0.5" height="14"/>
<g>
	<path d="M303.9,72.6c0-1.8,2.5-3.5,4.5-3.5c1.3,0,2.3,0.7,2.3,1.7c0,1.7-2.5,3.5-4.6,3.5C304.9,74.3,303.9,73.7,303.9,72.6z"/>
</g>
<rect x="325.5" y="58.5" width="0.5" height="14.9"/>
<g>
	<path d="M319.1,75.1c0-1.8,2.5-3.5,4.5-3.5c1.3,0,2.3,0.7,2.3,1.7c0,1.7-2.5,3.5-4.6,3.5C320.1,76.8,319.1,76.1,319.1,75.1z"/>
</g>
<rect x="340.9" y="60.2" width="0.5" height="15.7"/>
<g>
	<path d="M334.5,77.5c0-1.8,2.5-3.5,4.5-3.5c1.3,0,2.3,0.7,2.3,1.7c0,1.7-2.5,3.5-4.6,3.5C335.4,79.3,334.5,78.6,334.5,77.5z"/>
</g>
<rect x="356.2" y="62" width="0.5" height="16.4"/>
<g>
	<path d="M349.8,80c0-1.8,2.5-3.5,4.5-3.5c1.3,0,2.3,0.7,2.3,1.7c0,1.7-2.5,3.5-4.6,3.5C350.8,81.7,349.8,81.1,349.8,80z"/>
</g>
<rect x="374.3" y="51.5" width="10.5" height="0.8"/>
<rect x="376.1" y="52.7" width="0.5" height="18.9"/>
<g>
	<path d="M376.2,52.7c0-1.8,2.5-3.5,4.5-3.5c1.3,0,2.3,0.7,2.3,1.7c0,1.7-2.5,3.5-4.6,3.5C377.1,54.5,376.2,53.8,376.2,52.7z"/>
</g>
<rect x="391.3" y="55.1" width="0.5" height="18"/>
<g>
	<path d="M391.3,55.2c0-1.8,2.5-3.5,4.5-3.5c1.3,0,2.3,0.7,2.3,1.7c0,1.7-2.5,3.5-4.6,3.5C392.3,56.9,391.3,56.3,391.3,55.2z"/>
</g>
<rect x="406.6" y="57.6" width="0.5" height="17.2"/>
<g>
	<path d="M406.7,57.7c0-1.8,2.5-3.5,4.5-3.5c1.3,0,2.3,0.7,2.3,1.7c0,1.7-2.5,3.5-4.6,3.5C407.7,59.4,406.7,58.8,406.7,57.7z"/>
</g>
<rect x="421.8" y="60.1" width="0.5" height="16.4"/>
<g>
	<path d="M421.9,60.2c0-1.8,2.5-3.5,4.5-3.5c1.3,0,2.3,0.7,2.3,1.7c0,1.7-2.5,3.5-4.6,3.5C422.9,61.9,421.9,61.3,421.9,60.2z"/>
</g>
<rect x="437.2" y="62.6" width="0.5" height="18.9"/>
<g>
	<path d="M437.2,62.7c0-1.8,2.5-3.5,4.5-3.5c1.3,0,2.3,0.7,2.3,1.7c0,1.7-2.5,3.5-4.6,3.5C438.2,64.4,437.2,63.7,437.2,62.7z"/>
</g>
<rect x="452.5" y="65.1" width="0.5" height="18"/>
<g>
	<path d="M452.6,65.1c0-1.8,2.5-3.5,4.5-3.5c1.3,0,2.3,0.7,2.3,1.7c0,1.7-2.5,3.5-4.6,3.5C453.5,66.9,452.6,66.2,452.6,65.1z"/>
</g>
<rect x="467.7" y="67.5" width="0.5" height="17.2"/>
<g>
	<path d="M467.8,67.6c0-1.8,2.5-3.5,4.5-3.5c1.3,0,2.3,0.7,2.3,1.7c0,1.7-2.5,3.5-4.6,3.5C468.7,69.3,467.8,68.7,467.8,67.6z"/>
</g>
<rect x="483" y="70" width="0.5" height="16.4"/>
<g>
	<path d="M483.1,70.1c0-1.8,2.5-3.5,4.5-3.5c1.3,0,2.3,0.7,2.3,1.7c0,1.7-2.5,3.5-4.6,3.5C484.1,71.8,483.1,71.2,483.1,70.1z"/>
</g>
<rect x="505.1" y="54.4" width="0.5" height="16.6"/>
<g>
	<path d="M502.7,69c1.6,0,2.7,0.7,2.7,2c0,1.9-2.3,3.4-4.5,3.4c-1.3,0-2.4-0.7-2.4-1.8C498.5,70.8,500.7,69,502.7,69z M498.9,72.9
		c0,0.6,0.4,0.9,1.1,0.9c1.4,0,4.9-2.1,4.9-3.3c0-0.6-0.4-0.9-1.1-0.9C502.6,69.6,498.9,71.6,498.9,72.9z"/>
</g>
</svg>
