<?xml version="1.0" encoding="utf-8"?>

<!--
	ScaleBook
	Copyright (c) Leland Jansen 2015. All rights reserved.
-->

<!DOCTYPE svg PUBLIC "-//W3C//DTD SVG 1.1//EN" "http://www.w3.org/Graphics/SVG/1.1/DTD/svg11.dtd">
<svg version="1.1" id="Layer_1" xmlns="http://www.w3.org/2000/svg" xmlns:xlink="http://www.w3.org/1999/xlink" x="0px" y="0px"
	 viewBox="0 0 552.9 92" enable-background="new 0 0 552.9 92" xml:space="preserve">
<rect x="8.4" y="10" width="0.8" height="67"/>
<g>
	<path d="M7.4,10.7c-1.9,1.1-3.6,5.8-3.6,9.4c0,2.3,1.4,9.9,1.4,12.3c0,5-1.5,8.6-4.6,11.1c3,2.4,4.6,6.1,4.6,11.1
		c0,2.3-1.4,9.9-1.4,12.3c0,3.8,1.7,8.4,3.6,9.5V77c-3.5-2.3-5.8-8.2-5.8-13.1c0-2.1,1.7-9.4,1.7-11.5c0-3.8-1-6.6-2.9-8.2
		C0.1,43.9,0,43.7,0,43.5c0-0.2,0.1-0.4,0.5-0.7c1.9-1.7,2.9-4.2,2.9-7.6c0-2.1-1.7-10-1.7-12.2c0-5.2,2.1-10.4,5.8-13.1V10.7z"/>
</g>
<rect x="547.8" y="10" width="0.8" height="67"/>
<rect x="550.4" y="10" width="2.5" height="67"/>
<rect x="8.5" y="29.6" width="544.4" height="0.5"/>
<rect x="8.5" y="24.7" width="544.4" height="0.5"/>
<rect x="8.5" y="19.7" width="544.4" height="0.5"/>
<rect x="8.5" y="14.8" width="544.4" height="0.5"/>
<rect x="8.5" y="9.8" width="544.4" height="0.5"/>
<g>
	<path d="M20.3,29.7c-4.2,0-8.1-3.1-8.1-6.9c0-3.2,2.3-6.7,6.8-10.5c-0.3-1.2-0.4-2.4-0.4-3.6c0-3.5,1.2-6.8,3.2-8.5
		c1.8,2.5,2.7,4.9,2.7,7.1c0,2.9-1.3,5.6-4.3,8.1l0.9,4.2c0.5,0,0.8-0.1,0.8-0.1c2.6,0,4.8,2,4.8,4.7c0,1.9-1.4,3.7-3.6,4.8
		c0-0.1,0.9,3.8,0.9,4.3c0,2.5-2.3,4.2-4.9,4.2c-2,0-3.6-1.3-3.6-3.4c0-1.4,1-2.6,2.4-2.6c1.3,0,2.3,1.3,2.3,2.5
		c0,1.4-1.2,2.3-2.7,2.5c0.6,0.3,1.2,0.5,1.9,0.5c2.1,0,4.1-1.6,4.1-3.6c0-0.2,0-0.4-0.1-0.6l-0.8-3.7
		C21.9,29.6,21.2,29.7,20.3,29.7z M18.1,24.5c0,1,0.5,1.9,1.6,2.5c-1.8-0.3-3-1.4-3-3.1c0-2,1.7-3.7,3.8-4.1l-0.8-4
		C16,18.6,14,21.3,14,23.9c0,2.9,2.8,5.3,6,5.3c0.9,0,1.7-0.2,2.4-0.5L21,21.9C19.4,22.1,18.1,23.1,18.1,24.5z M22.1,3.2
		c-1.6,0-2.9,3.7-2.9,7c0,0.7,0,1.3,0.2,1.9c2.7-2.4,4-4.5,4-6.5c0-0.9-0.3-1.7-1-2.4C22.4,3.2,22.3,3.2,22.1,3.2z M24.9,25
		c0-1.6-1.2-3.3-2.9-3.3c-0.1,0-0.2,0-0.5,0l1.4,6.6C24.2,27.5,24.9,26.3,24.9,25z"/>
</g>
<g>
	<path d="M33.5,3.2v2.8l1-0.3v1.8l-1,0.3v3.4l1-0.3v1.8l-1,0.3v3.1H33v-3l-1.9,0.6v3h-0.5V14l-1,0.3v-1.8l1-0.3V8.8l-1,0.3V7.3
		l1-0.3V3.9h0.5v3L33,6.2v-3H33.5z M33,8l-1.9,0.6v3.4l1.9-0.6V8z"/>
</g>
<g>
	<path d="M39.7,10.7v2.8l1-0.3V15l-1,0.3v3.4l1-0.3v1.8l-1,0.3v3.1h-0.5v-3l-1.9,0.6v3h-0.5v-2.8l-1,0.3V20l1-0.3v-3.4l-1,0.3v-1.8
		l1-0.3v-3.1h0.5v3l1.9-0.6v-3H39.7z M39.2,15.4l-1.9,0.6v3.4l1.9-0.6V15.4z"/>
</g>
<g>
	<path d="M45.9,0.7v2.8l1-0.3V5l-1,0.3v3.4l1-0.3v1.8l-1,0.3v3.1h-0.5v-3l-1.9,0.6v3H43v-2.8l-1,0.3v-1.8l1-0.3V6.3l-1,0.3V4.8
		l1-0.3V1.4h0.5v3l1.9-0.6v-3H45.9z M45.4,5.5l-1.9,0.6v3.4l1.9-0.6V5.5z"/>
</g>
<g>
	<path d="M52.1,8.2V11l1-0.3v1.8l-1,0.3v3.4l1-0.3v1.8l-1,0.3v3.1h-0.5v-3l-1.9,0.6v3h-0.5V19l-1,0.3v-1.8l1-0.3v-3.4l-1,0.3v-1.8
		l1-0.3V8.8h0.5v3l1.9-0.6v-3H52.1z M51.6,13l-1.9,0.6V17l1.9-0.6V13z"/>
</g>
<g>
	<path d="M58.3,15.6v2.8l1-0.3v1.8l-1,0.3v3.4l1-0.3v1.8l-1,0.3v3.1h-0.5v-3l-1.9,0.6v3h-0.5v-2.8l-1,0.3v-1.8l1-0.3v-3.4l-1,0.3
		v-1.8l1-0.3v-3.1h0.5v3l1.9-0.6v-3H58.3z M57.8,20.4L55.9,21v3.4l1.9-0.6V20.4z"/>
</g>
<polygon fill-rule="evenodd" clip-rule="evenodd" points="74.7,26.2 120.7,21.2 120.7,18.7 74.7,23.7 "/>
<polygon fill-rule="evenodd" clip-rule="evenodd" points="74.7,22.4 120.7,17.5 120.7,15 74.7,20 "/>
<polygon fill-rule="evenodd" clip-rule="evenodd" points="136,16.2 182.2,11.3 182.2,8.8 136,13.8 "/>
<polygon fill-rule="evenodd" clip-rule="evenodd" points="136,12.5 182.2,7.6 182.2,5.1 136,10 "/>
<polygon fill-rule="evenodd" clip-rule="evenodd" points="191.1,31.1 237.1,26.2 237.1,23.7 191.1,28.6 "/>
<polygon fill-rule="evenodd" clip-rule="evenodd" points="191.1,34.8 237.1,29.9 237.1,27.4 191.1,32.4 "/>
<polygon fill-rule="evenodd" clip-rule="evenodd" points="252.5,22.4 298.6,21.2 298.6,18.7 252.5,20 "/>
<polygon fill-rule="evenodd" clip-rule="evenodd" points="252.5,26.2 298.6,24.9 298.6,22.4 252.5,23.7 "/>
<polygon fill-rule="evenodd" clip-rule="evenodd" points="314,21.2 360,26.2 360,23.7 314,18.7 "/>
<polygon fill-rule="evenodd" clip-rule="evenodd" points="314,24.9 360,29.9 360,27.4 314,22.4 "/>
<polygon fill-rule="evenodd" clip-rule="evenodd" points="381.9,6.3 428.1,11.3 428.1,8.8 381.9,3.8 "/>
<polygon fill-rule="evenodd" clip-rule="evenodd" points="381.9,2.6 428.1,7.6 428.1,5.1 381.9,0.1 "/>
<polygon fill-rule="evenodd" clip-rule="evenodd" points="443.4,16.2 489.5,21.2 489.5,18.7 443.4,13.8 "/>
<polygon fill-rule="evenodd" clip-rule="evenodd" points="443.4,12.5 489.5,17.5 489.5,15 443.4,10 "/>
<rect x="8.5" y="76.8" width="544.4" height="0.5"/>
<rect x="8.5" y="71.8" width="544.4" height="0.5"/>
<rect x="8.5" y="66.8" width="544.4" height="0.5"/>
<rect x="8.5" y="61.9" width="544.4" height="0.5"/>
<rect x="8.5" y="56.9" width="544.4" height="0.5"/>
<g>
	<path d="M15.7,71.3c2.9-2.6,4.7-6.1,4.7-9.2c0-2.5-1.4-4.4-3.7-4.4c-1.6,0-3.4,1.3-3.4,2.7c0,0.2,0,0.3,0.1,0.3
		c-0.1,0,0.6-0.6,1.4-0.6c0.9,0,1.5,0.8,1.5,1.7c0,1.2-0.9,2.2-2.1,2.2c-1.2,0-2.1-1.3-2.1-2.8c0-2.3,2.3-4.1,4.8-4.1
		c4.7,0,5.9,3.2,5.9,5.8c0,1.6-0.4,2.9-2,5.3c-1.9,3.1-6.4,5.3-8.1,5.3c-0.4,0-0.6-0.2-0.6-0.5C13.8,72.6,14.9,72,15.7,71.3z
		 M25.7,58.7c0.6,0,1,0.4,1,1c0,0.6-0.4,1-1,1s-1-0.4-1-1C24.7,59.1,25.1,58.7,25.7,58.7z M25.7,63.6c0.6,0,1,0.4,1,1
		c0,0.6-0.4,1-1,1s-1-0.4-1-1C24.7,64,25.1,63.6,25.7,63.6z"/>
</g>
<g>
	<path d="M33.5,55.3v2.8l1-0.3v1.8l-1,0.3v3.4l1-0.3v1.8l-1,0.3v3.1H33v-3L31.1,66v3h-0.5v-2.8l-1,0.3v-1.8l1-0.3v-3.4l-1,0.3v-1.8
		l1-0.3v-3.1h0.5v3l1.9-0.6v-3H33.5z M33,60.1l-1.9,0.6v3.4l1.9-0.6V60.1z"/>
</g>
<g>
	<path d="M39.7,62.7v2.8l1-0.3V67l-1,0.3v3.4l1-0.3v1.8l-1,0.3v3.1h-0.5v-3l-1.9,0.6v3h-0.5v-2.8l-1,0.3v-1.8l1-0.3v-3.4l-1,0.3
		v-1.8l1-0.3v-3.1h0.5v3l1.9-0.6v-3H39.7z M39.2,67.5l-1.9,0.6v3.4l1.9-0.6V67.5z"/>
</g>
<g>
	<path d="M45.9,52.8v2.8l1-0.3v1.8l-1,0.3v3.4l1-0.3v1.8l-1,0.3v3.1h-0.5v-3l-1.9,0.6v3H43v-2.8l-1,0.3v-1.8l1-0.3v-3.4l-1,0.3v-1.8
		l1-0.3v-3.1h0.5v3l1.9-0.6v-3H45.9z M45.4,57.6l-1.9,0.6v3.4l1.9-0.6V57.6z"/>
</g>
<g>
	<path d="M52.1,60.3v2.8l1-0.3v1.8l-1,0.3v3.4l1-0.3v1.8l-1,0.3v3.1h-0.5v-3l-1.9,0.6v3h-0.5V71l-1,0.3v-1.8l1-0.3v-3.4l-1,0.3v-1.8
		l1-0.3v-3.1h0.5v3l1.9-0.6v-3H52.1z M51.6,65l-1.9,0.6v3.4l1.9-0.6V65z"/>
</g>
<g>
	<path d="M58.3,67.7v2.8l1-0.3V72l-1,0.3v3.4l1-0.3v1.8l-1,0.3v3.1h-0.5v-3l-1.9,0.6v3h-0.5v-2.8l-1,0.3V77l1-0.3v-3.4l-1,0.3v-1.8
		l1-0.3v-3.1h0.5v3l1.9-0.6v-3H58.3z M57.8,72.5l-1.9,0.6v3.4l1.9-0.6V72.5z"/>
</g>
<polygon fill-rule="evenodd" clip-rule="evenodd" points="68.1,68.3 114.2,73.3 114.2,70.8 68.1,65.8 "/>
<polygon fill-rule="evenodd" clip-rule="evenodd" points="68.1,72 114.2,77 114.2,74.5 68.1,69.6 "/>
<polygon fill-rule="evenodd" clip-rule="evenodd" points="136,53.4 182.2,58.4 182.2,55.9 136,51 "/>
<polygon fill-rule="evenodd" clip-rule="evenodd" points="136,49.7 182.2,54.7 182.2,52.2 136,47.2 "/>
<polygon fill-rule="evenodd" clip-rule="evenodd" points="197.6,63.4 243.6,68.3 243.6,65.8 197.6,60.9 "/>
<polygon fill-rule="evenodd" clip-rule="evenodd" points="197.6,59.6 243.6,64.6 243.6,62.1 197.6,57.2 "/>
<polygon fill-rule="evenodd" clip-rule="evenodd" points="259,72 305.2,73.3 305.2,70.8 259,69.6 "/>
<polygon fill-rule="evenodd" clip-rule="evenodd" points="259,68.3 305.2,69.6 305.2,67.1 259,65.8 "/>
<polygon fill-rule="evenodd" clip-rule="evenodd" points="320.5,73.3 366.5,68.3 366.5,65.8 320.5,70.8 "/>
<polygon fill-rule="evenodd" clip-rule="evenodd" points="320.5,69.6 366.5,64.6 366.5,62.1 320.5,67.1 "/>
<polygon fill-rule="evenodd" clip-rule="evenodd" points="381.9,63.4 428.1,58.4 428.1,55.9 381.9,60.9 "/>
<polygon fill-rule="evenodd" clip-rule="evenodd" points="381.9,59.6 428.1,54.7 428.1,52.2 381.9,57.2 "/>
<polygon fill-rule="evenodd" clip-rule="evenodd" points="436.9,78.2 483,73.3 483,70.8 436.9,75.8 "/>
<polygon fill-rule="evenodd" clip-rule="evenodd" points="436.9,82 483,77 483,74.5 436.9,79.5 "/>
<rect x="66.1" y="34.5" width="10.5" height="0.8"/>
<rect x="74.4" y="20.1" width="0.5" height="16.4"/>
<g>
	<path d="M68,38.2c0-1.8,2.5-3.5,4.5-3.5c1.3,0,2.3,0.7,2.3,1.7c0,1.7-2.5,3.5-4.6,3.5C69,39.9,68,39.3,68,38.2z"/>
</g>
<rect x="81.5" y="34.5" width="10.5" height="0.8"/>
<rect x="89.8" y="18.6" width="0.5" height="15.5"/>
<g>
	<path d="M83.3,35.7c0-1.8,2.5-3.5,4.5-3.5c1.3,0,2.3,0.7,2.3,1.7c0,1.7-2.5,3.5-4.6,3.5C84.3,37.4,83.3,36.8,83.3,35.7z"/>
</g>
<rect x="105.1" y="16.9" width="0.5" height="14.7"/>
<g>
	<path d="M98.7,33.2c0-1.8,2.5-3.5,4.5-3.5c1.3,0,2.3,0.7,2.3,1.7c0,1.7-2.5,3.5-4.6,3.5C99.7,34.9,98.7,34.3,98.7,33.2z"/>
</g>
<rect x="120.5" y="15.2" width="0.5" height="14"/>
<g>
	<path d="M114,30.7c0-1.8,2.5-3.5,4.5-3.5c1.3,0,2.3,0.7,2.3,1.7c0,1.7-2.5,3.5-4.6,3.5C115,32.5,114,31.8,114,30.7z"/>
</g>
<rect x="135.8" y="10.2" width="0.5" height="16.4"/>
<g>
	<path d="M129.4,28.3c0-1.8,2.5-3.5,4.5-3.5c1.3,0,2.3,0.7,2.3,1.7c0,1.7-2.5,3.5-4.6,3.5C130.3,30,129.4,29.3,129.4,28.3z"/>
</g>
<rect x="151.3" y="8.6" width="0.5" height="15.5"/>
<g>
	<path d="M144.9,25.8c0-1.8,2.5-3.5,4.5-3.5c1.3,0,2.3,0.7,2.3,1.7c0,1.7-2.5,3.5-4.6,3.5C145.8,27.5,144.9,26.9,144.9,25.8z"/>
</g>
<rect x="166.7" y="6.9" width="0.5" height="14.7"/>
<g>
	<path d="M160.2,23.3c0-1.8,2.5-3.5,4.5-3.5c1.3,0,2.3,0.7,2.3,1.7c0,1.7-2.5,3.5-4.6,3.5C161.2,25,160.2,24.4,160.2,23.3z"/>
</g>
<rect x="182" y="5.2" width="0.5" height="14"/>
<g>
	<path d="M175.6,20.8c0-1.8,2.5-3.5,4.5-3.5c1.3,0,2.3,0.7,2.3,1.7c0,1.7-2.5,3.5-4.6,3.5C176.5,22.5,175.6,21.9,175.6,20.8z"/>
</g>
<rect x="190.8" y="18.3" width="0.5" height="16.4"/>
<g>
	<path d="M190.9,18.3c0-1.8,2.5-3.5,4.5-3.5c1.3,0,2.3,0.7,2.3,1.7c0,1.7-2.5,3.5-4.6,3.5C191.9,20.1,190.9,19.4,190.9,18.3z"/>
</g>
<rect x="206.2" y="15.8" width="0.5" height="17.4"/>
<g>
	<path d="M206.3,15.9c0-1.8,2.5-3.5,4.5-3.5c1.3,0,2.3,0.7,2.3,1.7c0,1.7-2.5,3.5-4.6,3.5C207.2,17.6,206.3,16.9,206.3,15.9z"/>
</g>
<rect x="221.5" y="13.3" width="0.5" height="18.1"/>
<g>
	<path d="M221.6,13.4c0-1.8,2.5-3.5,4.5-3.5c1.3,0,2.3,0.7,2.3,1.7c0,1.7-2.5,3.5-4.6,3.5C222.6,15.1,221.6,14.5,221.6,13.4z"/>
</g>
<rect x="236.9" y="10.8" width="0.5" height="18.9"/>
<g>
	<path d="M237,10.9c0-1.8,2.5-3.5,4.5-3.5c1.3,0,2.3,0.7,2.3,1.7c0,1.7-2.5,3.5-4.6,3.5C237.9,12.6,237,12,237,10.9z"/>
</g>
<rect x="252.2" y="8.3" width="0.5" height="17.7"/>
<g>
	<path d="M252.3,8.4c0-1.8,2.5-3.5,4.5-3.5c1.3,0,2.3,0.7,2.3,1.7c0,1.7-2.5,3.5-4.6,3.5C253.3,10.1,252.3,9.5,252.3,8.4z"/>
</g>
<rect x="265.9" y="4.7" width="10.5" height="0.8"/>
<rect x="267.7" y="5.9" width="0.5" height="19.8"/>
<g>
	<path d="M267.8,5.9c0-1.8,2.5-3.5,4.5-3.5c1.3,0,2.3,0.7,2.3,1.7c0,1.7-2.5,3.5-4.6,3.5C268.8,7.7,267.8,7,267.8,5.9z"/>
</g>
<rect x="281.3" y="4.7" width="10.5" height="0.8"/>
<rect x="283.1" y="3.4" width="0.5" height="21.9"/>
<g>
	<path d="M283.1,3.5c0-1.8,2.5-3.5,4.5-3.5c1.3,0,2.3,0.7,2.3,1.7c0,1.7-2.5,3.5-4.6,3.5C284.1,5.2,283.1,4.5,283.1,3.5z"/>
</g>
<rect x="296.6" y="4.7" width="10.5" height="0.8"/>
<rect x="298.4" y="5.9" width="0.5" height="18.9"/>
<g>
	<path d="M298.5,5.9c0-1.8,2.5-3.5,4.5-3.5c1.3,0,2.3,0.7,2.3,1.7c0,1.7-2.5,3.5-4.6,3.5C299.5,7.7,298.5,7,298.5,5.9z"/>
</g>
<rect x="313.8" y="8.3" width="0.5" height="16.4"/>
<g>
	<path d="M313.8,8.4c0-1.8,2.5-3.5,4.5-3.5c1.3,0,2.3,0.7,2.3,1.7c0,1.7-2.5,3.5-4.6,3.5C314.8,10.1,313.8,9.5,313.8,8.4z"/>
</g>
<rect x="329.1" y="10.8" width="0.5" height="15.5"/>
<g>
	<path d="M329.2,10.9c0-1.8,2.5-3.5,4.5-3.5c1.3,0,2.3,0.7,2.3,1.7c0,1.7-2.5,3.5-4.6,3.5C330.2,12.6,329.2,12,329.2,10.9z"/>
</g>
<rect x="344.5" y="13.3" width="0.5" height="14.7"/>
<g>
	<path d="M344.5,13.4c0-1.8,2.5-3.5,4.5-3.5c1.3,0,2.3,0.7,2.3,1.7c0,1.7-2.5,3.5-4.6,3.5C345.5,15.1,344.5,14.5,344.5,13.4z"/>
</g>
<rect x="359.8" y="15.8" width="0.5" height="14"/>
<g>
	<path d="M359.9,15.9c0-1.8,2.5-3.5,4.5-3.5c1.3,0,2.3,0.7,2.3,1.7c0,1.7-2.5,3.5-4.6,3.5C360.9,17.6,359.9,16.9,359.9,15.9z"/>
</g>
<rect x="381.7" y="0.3" width="0.5" height="16.4"/>
<g>
	<path d="M375.2,18.3c0-1.8,2.5-3.5,4.5-3.5c1.3,0,2.3,0.7,2.3,1.7c0,1.7-2.5,3.5-4.6,3.5C376.2,20.1,375.2,19.4,375.2,18.3z"/>
</g>
<rect x="397" y="1.8" width="0.5" height="17.4"/>
<g>
	<path d="M390.6,20.8c0-1.8,2.5-3.5,4.5-3.5c1.3,0,2.3,0.7,2.3,1.7c0,1.7-2.5,3.5-4.6,3.5C391.5,22.5,390.6,21.9,390.6,20.8z"/>
</g>
<rect x="412.5" y="3.5" width="0.5" height="18.1"/>
<g>
	<path d="M406.1,23.3c0-1.8,2.5-3.5,4.5-3.5c1.3,0,2.3,0.7,2.3,1.7c0,1.7-2.5,3.5-4.6,3.5C407,25,406.1,24.4,406.1,23.3z"/>
</g>
<rect x="427.9" y="5.2" width="0.5" height="18.9"/>
<g>
	<path d="M421.4,25.8c0-1.8,2.5-3.5,4.5-3.5c1.3,0,2.3,0.7,2.3,1.7c0,1.7-2.5,3.5-4.6,3.5C422.4,27.5,421.4,26.9,421.4,25.8z"/>
</g>
<rect x="443.2" y="10.2" width="0.5" height="16.4"/>
<g>
	<path d="M436.8,28.3c0-1.8,2.5-3.5,4.5-3.5c1.3,0,2.3,0.7,2.3,1.7c0,1.7-2.5,3.5-4.6,3.5C437.7,30,436.8,29.3,436.8,28.3z"/>
</g>
<rect x="458.5" y="11.7" width="0.5" height="17.4"/>
<g>
	<path d="M452.1,30.7c0-1.8,2.5-3.5,4.5-3.5c1.3,0,2.3,0.7,2.3,1.7c0,1.7-2.5,3.5-4.6,3.5C453.1,32.5,452.1,31.8,452.1,30.7z"/>
</g>
<rect x="473.9" y="13.4" width="0.5" height="18.1"/>
<g>
	<path d="M467.5,33.2c0-1.8,2.5-3.5,4.5-3.5c1.3,0,2.3,0.7,2.3,1.7c0,1.7-2.5,3.5-4.6,3.5C468.4,34.9,467.5,34.3,467.5,33.2z"/>
</g>
<rect x="480.9" y="34.5" width="10.5" height="0.8"/>
<rect x="489.2" y="15.2" width="0.5" height="18.9"/>
<g>
	<path d="M482.8,35.7c0-1.8,2.5-3.5,4.5-3.5c1.3,0,2.3,0.7,2.3,1.7c0,1.7-2.5,3.5-4.6,3.5C483.8,37.4,482.8,36.8,482.8,35.7z"/>
</g>
<rect x="496.3" y="34.5" width="10.7" height="0.8"/>
<rect x="504.7" y="20" width="0.5" height="16.6"/>
<g>
	<path d="M502.4,34.6c1.6,0,2.7,0.7,2.7,2c0,1.9-2.3,3.4-4.5,3.4c-1.3,0-2.4-0.7-2.4-1.8C498.2,36.4,500.4,34.6,502.4,34.6z
		 M498.6,38.5c0,0.6,0.4,0.9,1.1,0.9c1.4,0,4.9-2.1,4.9-3.3c0-0.6-0.4-0.9-1.1-0.9C502.3,35.2,498.6,37.2,498.6,38.5z"/>
</g>
<rect x="67.9" y="55.5" width="0.5" height="16.4"/>
<g>
	<path d="M68,55.5c0-1.8,2.5-3.5,4.5-3.5c1.3,0,2.3,0.7,2.3,1.7c0,1.7-2.5,3.5-4.6,3.5C69,57.3,68,56.6,68,55.5z"/>
</g>
<rect x="83.3" y="57.9" width="0.5" height="15.5"/>
<g>
	<path d="M83.3,58c0-1.8,2.5-3.5,4.5-3.5c1.3,0,2.3,0.7,2.3,1.7c0,1.7-2.5,3.5-4.6,3.5C84.3,59.7,83.3,59.1,83.3,58z"/>
</g>
<rect x="98.6" y="60.4" width="0.5" height="14.7"/>
<g>
	<path d="M98.7,60.5c0-1.8,2.5-3.5,4.5-3.5c1.3,0,2.3,0.7,2.3,1.7c0,1.7-2.5,3.5-4.6,3.5C99.7,62.2,98.7,61.6,98.7,60.5z"/>
</g>
<rect x="113.9" y="62.9" width="0.5" height="14"/>
<g>
	<path d="M114,63c0-1.8,2.5-3.5,4.5-3.5c1.3,0,2.3,0.7,2.3,1.7c0,1.7-2.5,3.5-4.6,3.5C115,64.7,114,64.1,114,63z"/>
</g>
<rect x="135.8" y="47.4" width="0.5" height="16.4"/>
<g>
	<path d="M129.4,65.5c0-1.8,2.5-3.5,4.5-3.5c1.3,0,2.3,0.7,2.3,1.7c0,1.7-2.5,3.5-4.6,3.5C130.3,67.2,129.4,66.5,129.4,65.5z"/>
</g>
<rect x="151.3" y="48.9" width="0.5" height="17.4"/>
<g>
	<path d="M144.9,67.9c0-1.8,2.5-3.5,4.5-3.5c1.3,0,2.3,0.7,2.3,1.7c0,1.7-2.5,3.5-4.6,3.5C145.8,69.7,144.9,69,144.9,67.9z"/>
</g>
<rect x="166.7" y="50.7" width="0.5" height="18.1"/>
<g>
	<path d="M160.2,70.4c0-1.8,2.5-3.5,4.5-3.5c1.3,0,2.3,0.7,2.3,1.7c0,1.7-2.5,3.5-4.6,3.5C161.2,72.1,160.2,71.5,160.2,70.4z"/>
</g>
<rect x="182" y="52.4" width="0.5" height="18.9"/>
<g>
	<path d="M175.6,72.9c0-1.8,2.5-3.5,4.5-3.5c1.3,0,2.3,0.7,2.3,1.7c0,1.7-2.5,3.5-4.6,3.5C176.5,74.6,175.6,74,175.6,72.9z"/>
</g>
<rect x="197.3" y="57.3" width="0.5" height="16.4"/>
<g>
	<path d="M190.9,75.4c0-1.8,2.5-3.5,4.5-3.5c1.3,0,2.3,0.7,2.3,1.7c0,1.7-2.5,3.5-4.6,3.5C191.9,77.1,190.9,76.5,190.9,75.4z"/>
</g>
<rect x="212.7" y="58.9" width="0.5" height="17.4"/>
<g>
	<path d="M206.3,77.9c0-1.8,2.5-3.5,4.5-3.5c1.3,0,2.3,0.7,2.3,1.7c0,1.7-2.5,3.5-4.6,3.5C207.2,79.6,206.3,78.9,206.3,77.9z"/>
</g>
<rect x="228" y="60.6" width="0.5" height="18.1"/>
<g>
	<path d="M221.6,80.3c0-1.8,2.5-3.5,4.5-3.5c1.3,0,2.3,0.7,2.3,1.7c0,1.7-2.5,3.5-4.6,3.5C222.6,82.1,221.6,81.4,221.6,80.3z"/>
</g>
<rect x="235.1" y="81.6" width="10.5" height="0.8"/>
<rect x="243.4" y="62.3" width="0.5" height="18.9"/>
<g>
	<path d="M237,82.8c0-1.8,2.5-3.5,4.5-3.5c1.3,0,2.3,0.7,2.3,1.7c0,1.7-2.5,3.5-4.6,3.5C237.9,84.5,237,83.9,237,82.8z"/>
</g>
<rect x="250.4" y="81.6" width="10.5" height="0.8"/>
<rect x="258.7" y="66" width="0.5" height="17.7"/>
<g>
	<path d="M252.3,85.3c0-1.8,2.5-3.5,4.5-3.5c1.3,0,2.3,0.7,2.3,1.7c0,1.7-2.5,3.5-4.6,3.5C253.3,87,252.3,86.4,252.3,85.3z"/>
</g>
<rect x="265.9" y="81.6" width="10.5" height="0.8"/>
<rect x="265.9" y="86.5" width="10.5" height="0.8"/>
<rect x="274.2" y="66.3" width="0.5" height="19.8"/>
<g>
	<path d="M267.8,87.8c0-1.8,2.5-3.5,4.5-3.5c1.3,0,2.3,0.7,2.3,1.7c0,1.7-2.5,3.5-4.6,3.5C268.8,89.5,267.8,88.9,267.8,87.8z"/>
</g>
<rect x="281.3" y="81.6" width="10.5" height="0.8"/>
<rect x="281.3" y="86.5" width="10.5" height="0.8"/>
<rect x="289.6" y="66.8" width="0.5" height="21.9"/>
<g>
	<path d="M283.1,90.3c0-1.8,2.5-3.5,4.5-3.5c1.3,0,2.3,0.7,2.3,1.7c0,1.7-2.5,3.5-4.6,3.5C284.1,92,283.1,91.3,283.1,90.3z"/>
</g>
<rect x="296.6" y="81.6" width="10.5" height="0.8"/>
<rect x="296.6" y="86.5" width="10.5" height="0.8"/>
<rect x="304.9" y="67.2" width="0.5" height="18.9"/>
<g>
	<path d="M298.5,87.8c0-1.8,2.5-3.5,4.5-3.5c1.3,0,2.3,0.7,2.3,1.7c0,1.7-2.5,3.5-4.6,3.5C299.5,89.5,298.5,88.9,298.5,87.8z"/>
</g>
<rect x="312" y="81.6" width="10.5" height="0.8"/>
<rect x="320.3" y="67.2" width="0.5" height="16.4"/>
<g>
	<path d="M313.8,85.3c0-1.8,2.5-3.5,4.5-3.5c1.3,0,2.3,0.7,2.3,1.7c0,1.7-2.5,3.5-4.6,3.5C314.8,87,313.8,86.4,313.8,85.3z"/>
</g>
<rect x="327.3" y="81.6" width="10.5" height="0.8"/>
<rect x="335.6" y="65.7" width="0.5" height="15.5"/>
<g>
	<path d="M329.2,82.8c0-1.8,2.5-3.5,4.5-3.5c1.3,0,2.3,0.7,2.3,1.7c0,1.7-2.5,3.5-4.6,3.5C330.2,84.5,329.2,83.9,329.2,82.8z"/>
</g>
<rect x="351" y="64" width="0.5" height="14.7"/>
<g>
	<path d="M344.5,80.3c0-1.8,2.5-3.5,4.5-3.5c1.3,0,2.3,0.7,2.3,1.7c0,1.7-2.5,3.5-4.6,3.5C345.5,82.1,344.5,81.4,344.5,80.3z"/>
</g>
<rect x="366.3" y="62.3" width="0.5" height="14"/>
<g>
	<path d="M359.9,77.9c0-1.8,2.5-3.5,4.5-3.5c1.3,0,2.3,0.7,2.3,1.7c0,1.7-2.5,3.5-4.6,3.5C360.9,79.6,359.9,78.9,359.9,77.9z"/>
</g>
<rect x="381.7" y="57.3" width="0.5" height="16.4"/>
<g>
	<path d="M375.2,75.4c0-1.8,2.5-3.5,4.5-3.5c1.3,0,2.3,0.7,2.3,1.7c0,1.7-2.5,3.5-4.6,3.5C376.2,77.1,375.2,76.5,375.2,75.4z"/>
</g>
<rect x="397" y="55.8" width="0.5" height="15.5"/>
<g>
	<path d="M390.6,72.9c0-1.8,2.5-3.5,4.5-3.5c1.3,0,2.3,0.7,2.3,1.7c0,1.7-2.5,3.5-4.6,3.5C391.5,74.6,390.6,74,390.6,72.9z"/>
</g>
<rect x="412.5" y="54.1" width="0.5" height="14.7"/>
<g>
	<path d="M406.1,70.4c0-1.8,2.5-3.5,4.5-3.5c1.3,0,2.3,0.7,2.3,1.7c0,1.7-2.5,3.5-4.6,3.5C407,72.1,406.1,71.5,406.1,70.4z"/>
</g>
<rect x="427.9" y="52.4" width="0.5" height="14"/>
<g>
	<path d="M421.4,67.9c0-1.8,2.5-3.5,4.5-3.5c1.3,0,2.3,0.7,2.3,1.7c0,1.7-2.5,3.5-4.6,3.5C422.4,69.7,421.4,69,421.4,67.9z"/>
</g>
<rect x="436.7" y="65.4" width="0.5" height="16.4"/>
<g>
	<path d="M436.8,65.5c0-1.8,2.5-3.5,4.5-3.5c1.3,0,2.3,0.7,2.3,1.7c0,1.7-2.5,3.5-4.6,3.5C437.7,67.2,436.8,66.5,436.8,65.5z"/>
</g>
<rect x="452" y="62.9" width="0.5" height="17.4"/>
<g>
	<path d="M452.1,63c0-1.8,2.5-3.5,4.5-3.5c1.3,0,2.3,0.7,2.3,1.7c0,1.7-2.5,3.5-4.6,3.5C453.1,64.7,452.1,64.1,452.1,63z"/>
</g>
<rect x="467.4" y="60.4" width="0.5" height="18.1"/>
<g>
	<path d="M467.5,60.5c0-1.8,2.5-3.5,4.5-3.5c1.3,0,2.3,0.7,2.3,1.7c0,1.7-2.5,3.5-4.6,3.5C468.4,62.2,467.5,61.6,467.5,60.5z"/>
</g>
<rect x="482.7" y="57.9" width="0.5" height="18.9"/>
<g>
	<path d="M482.8,58c0-1.8,2.5-3.5,4.5-3.5c1.3,0,2.3,0.7,2.3,1.7c0,1.7-2.5,3.5-4.6,3.5C483.8,59.7,482.8,59.1,482.8,58z"/>
</g>
<rect x="498.1" y="55.5" width="0.5" height="16.6"/>
<g>
	<path d="M502.4,52c1.6,0,2.7,0.7,2.7,2c0,1.9-2.3,3.4-4.5,3.4c-1.3,0-2.4-0.7-2.4-1.8C498.2,53.8,500.4,52,502.4,52z M498.6,55.8
		c0,0.6,0.4,0.9,1.1,0.9c1.4,0,4.9-2.1,4.9-3.3c0-0.6-0.4-0.9-1.1-0.9C502.3,52.6,498.6,54.6,498.6,55.8z"/>
</g>
</svg>
