<?xml version="1.0" encoding="utf-8"?>

<!--
	ScaleBook
	Copyright (c) Leland Jansen 2015. All rights reserved.
-->

<!DOCTYPE svg PUBLIC "-//W3C//DTD SVG 1.1//EN" "http://www.w3.org/Graphics/SVG/1.1/DTD/svg11.dtd">
<svg version="1.1" id="Layer_1" xmlns="http://www.w3.org/2000/svg" xmlns:xlink="http://www.w3.org/1999/xlink" x="0px" y="0px"
	 viewBox="0 0 552.9 92" enable-background="new 0 0 552.9 92" xml:space="preserve">
<rect x="8.4" y="12.5" width="0.8" height="67"/>
<g>
	<path d="M7.4,13.2c-1.9,1.1-3.6,5.8-3.6,9.4c0,2.3,1.4,9.9,1.4,12.3c0,5-1.5,8.6-4.6,11.1c3,2.4,4.6,6.1,4.6,11.1
		c0,2.3-1.4,9.9-1.4,12.3c0,3.8,1.7,8.4,3.6,9.5v0.7c-3.5-2.3-5.8-8.2-5.8-13.1c0-2.1,1.7-9.4,1.7-11.5c0-3.8-1-6.6-2.9-8.2
		C0.1,46.4,0,46.2,0,46c0-0.2,0.1-0.4,0.5-0.7c1.9-1.7,2.9-4.2,2.9-7.6c0-2.1-1.7-10-1.7-12.2c0-5.2,2.1-10.4,5.8-13.1V13.2z"/>
</g>
<rect x="547.8" y="12.5" width="0.8" height="67"/>
<rect x="550.4" y="12.5" width="2.5" height="67"/>
<rect x="8.5" y="32.1" width="544.4" height="0.5"/>
<rect x="8.5" y="27.2" width="544.4" height="0.5"/>
<rect x="8.5" y="22.2" width="544.4" height="0.5"/>
<rect x="8.5" y="17.2" width="544.4" height="0.5"/>
<rect x="8.5" y="12.3" width="544.4" height="0.5"/>
<g>
	<path d="M20.3,32.2c-4.2,0-8.1-3.1-8.1-6.9c0-3.2,2.3-6.7,6.8-10.5c-0.3-1.2-0.4-2.4-0.4-3.6c0-3.5,1.2-6.8,3.2-8.5
		c1.8,2.5,2.7,4.9,2.7,7.1c0,2.9-1.3,5.6-4.3,8.1l0.9,4.2c0.5,0,0.8-0.1,0.8-0.1c2.6,0,4.8,2,4.8,4.7c0,1.9-1.4,3.7-3.6,4.8
		c0-0.1,0.9,3.8,0.9,4.3c0,2.5-2.3,4.2-4.9,4.2c-2,0-3.6-1.3-3.6-3.4c0-1.4,1-2.6,2.4-2.6c1.3,0,2.3,1.3,2.3,2.5
		c0,1.4-1.2,2.3-2.7,2.5c0.6,0.3,1.2,0.5,1.9,0.5c2.1,0,4.1-1.6,4.1-3.6c0-0.2,0-0.4-0.1-0.6l-0.8-3.7
		C21.9,32.1,21.2,32.2,20.3,32.2z M18.1,27c0,1,0.5,1.9,1.6,2.5c-1.8-0.3-3-1.4-3-3.1c0-2,1.7-3.7,3.8-4.1l-0.8-4
		C16,21.1,14,23.8,14,26.4c0,2.9,2.8,5.3,6,5.3c0.9,0,1.7-0.2,2.4-0.5L21,24.4C19.4,24.6,18.1,25.6,18.1,27z M22.1,5.6
		c-1.6,0-2.9,3.7-2.9,7c0,0.7,0,1.3,0.2,1.9c2.7-2.4,4-4.5,4-6.5c0-0.9-0.3-1.7-1-2.4C22.4,5.7,22.3,5.6,22.1,5.6z M24.9,27.5
		c0-1.6-1.2-3.3-2.9-3.3c-0.1,0-0.2,0-0.5,0l1.4,6.6C24.2,30,24.9,28.8,24.9,27.5z"/>
</g>
<g>
	<path d="M33.5,5.7v2.8l1-0.3V10l-1,0.3v3.4l1-0.3v1.8l-1,0.3v3.1H33v-3l-1.9,0.6v3h-0.5v-2.8l-1,0.3V15l1-0.3v-3.4l-1,0.3V9.8
		l1-0.3V6.3h0.5v3L33,8.7v-3H33.5z M33,10.5l-1.9,0.6v3.4l1.9-0.6V10.5z"/>
</g>
<g>
	<path d="M39.7,13.1V16l1-0.3v1.8l-1,0.3v3.4l1-0.3v1.8l-1,0.3v3.1h-0.5v-3l-1.9,0.6v3h-0.5v-2.8l-1,0.3v-1.8l1-0.3v-3.4l-1,0.3
		v-1.8l1-0.3v-3.1h0.5v3l1.9-0.6v-3H39.7z M39.2,17.9l-1.9,0.6V22l1.9-0.6V17.9z"/>
</g>
<g>
	<path d="M45.9,3.2v2.8l1-0.3v1.8l-1,0.3v3.4l1-0.3v1.8l-1,0.3v3.1h-0.5v-3l-1.9,0.6v3H43V14l-1,0.3v-1.8l1-0.3V8.8l-1,0.3V7.3L43,7
		V3.9h0.5v3l1.9-0.6v-3H45.9z M45.4,8l-1.9,0.6v3.4l1.9-0.6V8z"/>
</g>
<g>
	<path d="M52.1,10.7v2.8l1-0.3V15l-1,0.3v3.4l1-0.3v1.8l-1,0.3v3.1h-0.5v-3l-1.9,0.6v3h-0.5v-2.8l-1,0.3V20l1-0.3v-3.4l-1,0.3v-1.8
		l1-0.3v-3.1h0.5v3l1.9-0.6v-3H52.1z M51.6,15.4l-1.9,0.6v3.4l1.9-0.6V15.4z"/>
</g>
<g>
	<path d="M58.3,18.1v2.8l1-0.3v1.8l-1,0.3v3.4l1-0.3v1.8l-1,0.3v3.1h-0.5v-3l-1.9,0.6v3h-0.5v-2.8l-1,0.3v-1.8l1-0.3v-3.4l-1,0.3
		v-1.8l1-0.3v-3.1h0.5v3l1.9-0.6v-3H58.3z M57.8,22.9l-1.9,0.6v3.4l1.9-0.6V22.9z"/>
</g>
<g>
	<path d="M64.5,8.2V11l1-0.3v1.8l-1,0.3v3.4l1-0.3v1.8l-1,0.3v3.1H64v-3l-1.9,0.6v3h-0.5V19l-1,0.3v-1.8l1-0.3v-3.4l-1,0.3v-1.8
		l1-0.3V8.8h0.5v3l1.9-0.6v-3H64.5z M64,13l-1.9,0.6V17l1.9-0.6V13z"/>
</g>
<g>
	<path d="M70.7,15.6v2.8l1-0.3v1.8l-1,0.3v3.4l1-0.3v1.8l-1,0.3v3.1h-0.5v-3l-1.9,0.6v3h-0.5v-2.8l-1,0.3v-1.8l1-0.3v-3.4l-1,0.3
		v-1.8l1-0.3v-3.1h0.5v3l1.9-0.6v-3H70.7z M70.2,20.4L68.3,21v3.4l1.9-0.6V20.4z"/>
</g>
<polygon fill-rule="evenodd" clip-rule="evenodd" points="87.1,23.7 132,18.7 132,16.2 87.1,21.2 "/>
<polygon fill-rule="evenodd" clip-rule="evenodd" points="87.1,20 132,15 132,12.5 87.1,17.5 "/>
<polygon fill-rule="evenodd" clip-rule="evenodd" points="146.9,13.8 191.8,8.8 191.8,6.3 146.9,11.3 "/>
<polygon fill-rule="evenodd" clip-rule="evenodd" points="146.9,10 191.8,5.1 191.8,2.6 146.9,7.6 "/>
<polygon fill-rule="evenodd" clip-rule="evenodd" points="200.2,28.6 245.2,23.7 245.2,21.2 200.2,26.2 "/>
<polygon fill-rule="evenodd" clip-rule="evenodd" points="200.2,32.4 245.2,27.4 245.2,24.9 200.2,29.9 "/>
<polygon fill-rule="evenodd" clip-rule="evenodd" points="260,20 305,18.7 305,16.2 260,17.5 "/>
<polygon fill-rule="evenodd" clip-rule="evenodd" points="260,23.7 305,22.4 305,20 260,21.2 "/>
<polygon fill-rule="evenodd" clip-rule="evenodd" points="320,23.7 364.8,28.6 364.8,26.2 320,21.2 "/>
<polygon fill-rule="evenodd" clip-rule="evenodd" points="320,27.4 364.8,32.4 364.8,29.9 320,24.9 "/>
<polygon fill-rule="evenodd" clip-rule="evenodd" points="379.9,33.6 424.7,38.6 424.7,36.1 379.9,31.1 "/>
<polygon fill-rule="evenodd" clip-rule="evenodd" points="379.9,37.3 424.7,42.3 424.7,39.8 379.9,34.8 "/>
<polygon fill-rule="evenodd" clip-rule="evenodd" points="446.2,18.7 491.2,23.7 491.2,21.2 446.2,16.2 "/>
<polygon fill-rule="evenodd" clip-rule="evenodd" points="446.2,15 491.2,20 491.2,17.5 446.2,12.5 "/>
<rect x="8.5" y="79.3" width="544.4" height="0.5"/>
<rect x="8.5" y="74.3" width="544.4" height="0.5"/>
<rect x="8.5" y="69.3" width="544.4" height="0.5"/>
<rect x="8.5" y="64.4" width="544.4" height="0.5"/>
<rect x="8.5" y="59.4" width="544.4" height="0.5"/>
<g>
	<path d="M15.7,73.8c2.9-2.6,4.7-6.1,4.7-9.2c0-2.5-1.4-4.4-3.7-4.4c-1.6,0-3.4,1.3-3.4,2.7c0,0.2,0,0.3,0.1,0.3
		c-0.1,0,0.6-0.6,1.4-0.6c0.9,0,1.5,0.8,1.5,1.7c0,1.2-0.9,2.2-2.1,2.2c-1.2,0-2.1-1.3-2.1-2.8c0-2.3,2.3-4.1,4.8-4.1
		c4.7,0,5.9,3.2,5.9,5.8c0,1.6-0.4,2.9-2,5.3C19.1,73.8,14.6,76,13,76c-0.4,0-0.6-0.2-0.6-0.5C13.8,75.1,14.9,74.5,15.7,73.8z
		 M25.7,61.1c0.6,0,1,0.4,1,1c0,0.6-0.4,1-1,1s-1-0.4-1-1C24.7,61.6,25.1,61.1,25.7,61.1z M25.7,66.1c0.6,0,1,0.4,1,1
		c0,0.6-0.4,1-1,1s-1-0.4-1-1C24.7,66.5,25.1,66.1,25.7,66.1z"/>
</g>
<g>
	<path d="M33.5,57.8v2.8l1-0.3v1.8l-1,0.3v3.4l1-0.3v1.8l-1,0.3v3.1H33v-3l-1.9,0.6v3h-0.5v-2.8l-1,0.3v-1.8l1-0.3v-3.4l-1,0.3v-1.8
		l1-0.3v-3.1h0.5v3l1.9-0.6v-3H33.5z M33,62.6l-1.9,0.6v3.4L33,66V62.6z"/>
</g>
<g>
	<path d="M39.7,65.2v2.8l1-0.3v1.8l-1,0.3v3.4l1-0.3v1.8l-1,0.3v3.1h-0.5v-3l-1.9,0.6v3h-0.5V76l-1,0.3v-1.8l1-0.3v-3.4l-1,0.3v-1.8
		l1-0.3v-3.1h0.5v3l1.9-0.6v-3H39.7z M39.2,70l-1.9,0.6v3.4l1.9-0.6V70z"/>
</g>
<g>
	<path d="M45.9,55.3v2.8l1-0.3v1.8l-1,0.3v3.4l1-0.3v1.8l-1,0.3v3.1h-0.5v-3L43.5,66v3H43v-2.8l-1,0.3v-1.8l1-0.3v-3.4l-1,0.3v-1.8
		l1-0.3v-3.1h0.5v3l1.9-0.6v-3H45.9z M45.4,60.1l-1.9,0.6v3.4l1.9-0.6V60.1z"/>
</g>
<g>
	<path d="M52.1,62.7v2.8l1-0.3V67l-1,0.3v3.4l1-0.3v1.8l-1,0.3v3.1h-0.5v-3l-1.9,0.6v3h-0.5v-2.8l-1,0.3v-1.8l1-0.3v-3.4l-1,0.3
		v-1.8l1-0.3v-3.1h0.5v3l1.9-0.6v-3H52.1z M51.6,67.5l-1.9,0.6v3.4l1.9-0.6V67.5z"/>
</g>
<g>
	<path d="M58.3,70.2V73l1-0.3v1.8l-1,0.3v3.4l1-0.3v1.8l-1,0.3v3.1h-0.5v-3l-1.9,0.6v3h-0.5V81l-1,0.3v-1.8l1-0.3v-3.4l-1,0.3v-1.8
		l1-0.3v-3.1h0.5v3l1.9-0.6v-3H58.3z M57.8,75l-1.9,0.6V79l1.9-0.6V75z"/>
</g>
<g>
	<path d="M64.5,60.3v2.8l1-0.3v1.8l-1,0.3v3.4l1-0.3v1.8l-1,0.3v3.1H64v-3l-1.9,0.6v3h-0.5V71l-1,0.3v-1.8l1-0.3v-3.4l-1,0.3v-1.8
		l1-0.3v-3.1h0.5v3l1.9-0.6v-3H64.5z M64,65l-1.9,0.6v3.4l1.9-0.6V65z"/>
</g>
<g>
	<path d="M70.7,67.7v2.8l1-0.3V72l-1,0.3v3.4l1-0.3v1.8l-1,0.3v3.1h-0.5v-3l-1.9,0.6v3h-0.5v-2.8l-1,0.3V77l1-0.3v-3.4l-1,0.3v-1.8
		l1-0.3v-3.1h0.5v3l1.9-0.6v-3H70.7z M70.2,72.5l-1.9,0.6v3.4l1.9-0.6V72.5z"/>
</g>
<polygon fill-rule="evenodd" clip-rule="evenodd" points="80.5,70.8 125.5,75.8 125.5,73.3 80.5,68.3 "/>
<polygon fill-rule="evenodd" clip-rule="evenodd" points="80.5,74.5 125.5,79.5 125.5,77 80.5,72 "/>
<polygon fill-rule="evenodd" clip-rule="evenodd" points="140.4,80.7 185.3,85.7 185.3,83.2 140.4,78.2 "/>
<polygon fill-rule="evenodd" clip-rule="evenodd" points="140.4,84.4 185.3,89.4 185.3,86.9 140.4,82 "/>
<polygon fill-rule="evenodd" clip-rule="evenodd" points="206.7,65.8 251.7,70.8 251.7,68.3 206.7,63.4 "/>
<polygon fill-rule="evenodd" clip-rule="evenodd" points="206.7,62.1 251.7,67.1 251.7,64.6 206.7,59.6 "/>
<polygon fill-rule="evenodd" clip-rule="evenodd" points="266.6,74.5 311.5,75.8 311.5,73.3 266.6,72 "/>
<polygon fill-rule="evenodd" clip-rule="evenodd" points="266.6,70.8 311.5,72 311.5,69.6 266.6,68.3 "/>
<polygon fill-rule="evenodd" clip-rule="evenodd" points="326.6,70.8 371.4,65.8 371.4,63.4 326.6,68.3 "/>
<polygon fill-rule="evenodd" clip-rule="evenodd" points="326.6,67.1 371.4,62.1 371.4,59.6 326.6,64.6 "/>
<polygon fill-rule="evenodd" clip-rule="evenodd" points="386.4,60.9 431.2,55.9 431.2,53.4 386.4,58.4 "/>
<polygon fill-rule="evenodd" clip-rule="evenodd" points="386.4,57.2 431.2,52.2 431.2,49.7 386.4,54.7 "/>
<polygon fill-rule="evenodd" clip-rule="evenodd" points="439.7,75.8 484.7,70.8 484.7,68.3 439.7,73.3 "/>
<polygon fill-rule="evenodd" clip-rule="evenodd" points="439.7,79.5 484.7,74.5 484.7,72 439.7,77 "/>
<rect x="78.5" y="36.9" width="10.5" height="0.8"/>
<rect x="86.8" y="17.6" width="0.5" height="18.9"/>
<g>
	<path d="M80.4,38.2c0-1.8,2.5-3.5,4.5-3.5c1.3,0,2.3,0.7,2.3,1.7c0,1.7-2.5,3.5-4.6,3.5C81.4,39.9,80.4,39.3,80.4,38.2z"/>
</g>
<rect x="101.9" y="16.1" width="0.5" height="18"/>
<g>
	<path d="M95.4,35.7c0-1.8,2.5-3.5,4.5-3.5c1.3,0,2.3,0.7,2.3,1.7c0,1.7-2.5,3.5-4.6,3.5C96.4,37.4,95.4,36.8,95.4,35.7z"/>
</g>
<rect x="116.7" y="14.4" width="0.5" height="17.2"/>
<g>
	<path d="M110.3,33.2c0-1.8,2.5-3.5,4.5-3.5c1.3,0,2.3,0.7,2.3,1.7c0,1.7-2.5,3.5-4.6,3.5C111.3,34.9,110.3,34.3,110.3,33.2z"/>
</g>
<rect x="131.8" y="12.7" width="0.5" height="16.4"/>
<g>
	<path d="M125.3,30.7c0-1.8,2.5-3.5,4.5-3.5c1.3,0,2.3,0.7,2.3,1.7c0,1.7-2.5,3.5-4.6,3.5C126.3,32.5,125.3,31.8,125.3,30.7z"/>
</g>
<rect x="146.7" y="7.7" width="0.5" height="18.9"/>
<g>
	<path d="M140.2,28.3c0-1.8,2.5-3.5,4.5-3.5c1.3,0,2.3,0.7,2.3,1.7c0,1.7-2.5,3.5-4.6,3.5C141.2,30,140.2,29.3,140.2,28.3z"/>
</g>
<rect x="161.7" y="6.2" width="0.5" height="18"/>
<g>
	<path d="M155.3,25.8c0-1.8,2.5-3.5,4.5-3.5c1.3,0,2.3,0.7,2.3,1.7c0,1.7-2.5,3.5-4.6,3.5C156.2,27.5,155.3,26.9,155.3,25.8z"/>
</g>
<rect x="176.6" y="4.5" width="0.5" height="17.2"/>
<g>
	<path d="M170.1,23.3c0-1.8,2.5-3.5,4.5-3.5c1.3,0,2.3,0.7,2.3,1.7c0,1.7-2.5,3.5-4.6,3.5C171.1,25,170.1,24.4,170.1,23.3z"/>
</g>
<rect x="191.6" y="2.8" width="0.5" height="16.4"/>
<g>
	<path d="M185.2,20.8c0-1.8,2.5-3.5,4.5-3.5c1.3,0,2.3,0.7,2.3,1.7c0,1.7-2.5,3.5-4.6,3.5C186.1,22.5,185.2,21.9,185.2,20.8z"/>
</g>
<rect x="200" y="18.3" width="0.5" height="14"/>
<g>
	<path d="M200.1,18.3c0-1.8,2.5-3.5,4.5-3.5c1.3,0,2.3,0.7,2.3,1.7c0,1.7-2.5,3.5-4.6,3.5C201,20.1,200.1,19.4,200.1,18.3z"/>
</g>
<rect x="215" y="15.8" width="0.5" height="14.9"/>
<g>
	<path d="M215.1,15.9c0-1.8,2.5-3.5,4.5-3.5c1.3,0,2.3,0.7,2.3,1.7c0,1.7-2.5,3.5-4.6,3.5C216.1,17.6,215.1,16.9,215.1,15.9z"/>
</g>
<rect x="229.9" y="13.3" width="0.5" height="15.7"/>
<g>
	<path d="M230,13.4c0-1.8,2.5-3.5,4.5-3.5c1.3,0,2.3,0.7,2.3,1.7c0,1.7-2.5,3.5-4.6,3.5C230.9,15.1,230,14.5,230,13.4z"/>
</g>
<rect x="244.9" y="10.8" width="0.5" height="16.4"/>
<g>
	<path d="M245,10.9c0-1.8,2.5-3.5,4.5-3.5c1.3,0,2.3,0.7,2.3,1.7c0,1.7-2.5,3.5-4.6,3.5C246,12.6,245,12,245,10.9z"/>
</g>
<rect x="258" y="7.2" width="10.5" height="0.8"/>
<rect x="259.8" y="8.3" width="0.5" height="15.2"/>
<g>
	<path d="M259.9,8.4c0-1.8,2.5-3.5,4.5-3.5c1.3,0,2.3,0.7,2.3,1.7c0,1.7-2.5,3.5-4.6,3.5C260.9,10.1,259.9,9.5,259.9,8.4z"/>
</g>
<rect x="273.1" y="7.2" width="10.5" height="0.8"/>
<rect x="274.9" y="5.9" width="0.5" height="17.4"/>
<g>
	<path d="M274.9,5.9c0-1.8,2.5-3.5,4.5-3.5c1.3,0,2.3,0.7,2.3,1.7c0,1.7-2.5,3.5-4.6,3.5C275.9,7.7,274.9,7,274.9,5.9z"/>
</g>
<rect x="288.1" y="7.2" width="10.5" height="0.8"/>
<rect x="288.1" y="2.2" width="10.5" height="0.8"/>
<rect x="289.9" y="3.4" width="0.5" height="19.4"/>
<g>
	<path d="M290,3.5c0-1.8,2.5-3.5,4.5-3.5c1.3,0,2.3,0.7,2.3,1.7c0,1.7-2.5,3.5-4.6,3.5C290.9,5.2,290,4.5,290,3.5z"/>
</g>
<rect x="303" y="7.2" width="10.5" height="0.8"/>
<rect x="304.8" y="5.9" width="0.5" height="16.4"/>
<g>
	<path d="M304.8,5.9c0-1.8,2.5-3.5,4.5-3.5c1.3,0,2.3,0.7,2.3,1.7c0,1.7-2.5,3.5-4.6,3.5C305.8,7.7,304.8,7,304.8,5.9z"/>
</g>
<rect x="318" y="7.2" width="10.5" height="0.8"/>
<rect x="319.8" y="8.3" width="0.5" height="18.9"/>
<g>
	<path d="M319.9,8.4c0-1.8,2.5-3.5,4.5-3.5c1.3,0,2.3,0.7,2.3,1.7c0,1.7-2.5,3.5-4.6,3.5C320.9,10.1,319.9,9.5,319.9,8.4z"/>
</g>
<rect x="334.7" y="10.8" width="0.5" height="18"/>
<g>
	<path d="M334.8,10.9c0-1.8,2.5-3.5,4.5-3.5c1.3,0,2.3,0.7,2.3,1.7c0,1.7-2.5,3.5-4.6,3.5C335.7,12.6,334.8,12,334.8,10.9z"/>
</g>
<rect x="349.7" y="13.3" width="0.5" height="17.2"/>
<g>
	<path d="M349.8,13.4c0-1.8,2.5-3.5,4.5-3.5c1.3,0,2.3,0.7,2.3,1.7c0,1.7-2.5,3.5-4.6,3.5C350.8,15.1,349.8,14.5,349.8,13.4z"/>
</g>
<rect x="364.6" y="15.8" width="0.5" height="16.4"/>
<g>
	<path d="M364.7,15.9c0-1.8,2.5-3.5,4.5-3.5c1.3,0,2.3,0.7,2.3,1.7c0,1.7-2.5,3.5-4.6,3.5C365.7,17.6,364.7,16.9,364.7,15.9z"/>
</g>
<rect x="379.6" y="18.3" width="0.5" height="18.9"/>
<g>
	<path d="M379.7,18.3c0-1.8,2.5-3.5,4.5-3.5c1.3,0,2.3,0.7,2.3,1.7c0,1.7-2.5,3.5-4.6,3.5C380.7,20.1,379.7,19.4,379.7,18.3z"/>
</g>
<rect x="394.5" y="20.7" width="0.5" height="18"/>
<g>
	<path d="M394.6,20.8c0-1.8,2.5-3.5,4.5-3.5c1.3,0,2.3,0.7,2.3,1.7c0,1.7-2.5,3.5-4.6,3.5C395.6,22.5,394.6,21.9,394.6,20.8z"/>
</g>
<rect x="409.6" y="23.2" width="0.5" height="17.2"/>
<g>
	<path d="M409.6,23.3c0-1.8,2.5-3.5,4.5-3.5c1.3,0,2.3,0.7,2.3,1.7c0,1.7-2.5,3.5-4.6,3.5C410.6,25,409.6,24.4,409.6,23.3z"/>
</g>
<rect x="424.4" y="25.7" width="0.5" height="16.4"/>
<g>
	<path d="M424.5,25.8c0-1.8,2.5-3.5,4.5-3.5c1.3,0,2.3,0.7,2.3,1.7c0,1.7-2.5,3.5-4.6,3.5C425.5,27.5,424.5,26.9,424.5,25.8z"/>
</g>
<rect x="446" y="12.7" width="0.5" height="14"/>
<g>
	<path d="M439.6,28.3c0-1.8,2.5-3.5,4.5-3.5c1.3,0,2.3,0.7,2.3,1.7c0,1.7-2.5,3.5-4.6,3.5C440.5,30,439.6,29.3,439.6,28.3z"/>
</g>
<rect x="461" y="14.2" width="0.5" height="14.9"/>
<g>
	<path d="M454.6,30.7c0-1.8,2.5-3.5,4.5-3.5c1.3,0,2.3,0.7,2.3,1.7c0,1.7-2.5,3.5-4.6,3.5C455.6,32.5,454.6,31.8,454.6,30.7z"/>
</g>
<rect x="475.9" y="15.9" width="0.5" height="15.7"/>
<g>
	<path d="M469.5,33.2c0-1.8,2.5-3.5,4.5-3.5c1.3,0,2.3,0.7,2.3,1.7c0,1.7-2.5,3.5-4.6,3.5C470.4,34.9,469.5,34.3,469.5,33.2z"/>
</g>
<rect x="490.9" y="17.6" width="0.5" height="16.4"/>
<g>
	<path d="M484.5,35.7c0-1.8,2.5-3.5,4.5-3.5c1.3,0,2.3,0.7,2.3,1.7c0,1.7-2.5,3.5-4.6,3.5C485.5,37.4,484.5,36.8,484.5,35.7z"/>
</g>
<rect x="497.5" y="36.9" width="10.7" height="0.8"/>
<rect x="506" y="20" width="0.5" height="16.6"/>
<g>
	<path d="M503.7,34.6c1.6,0,2.7,0.7,2.7,2c0,1.9-2.3,3.4-4.5,3.4c-1.3,0-2.4-0.7-2.4-1.8C499.4,36.4,501.6,34.6,503.7,34.6z
		 M499.8,38.5c0,0.6,0.4,0.9,1.1,0.9c1.4,0,4.9-2.1,4.9-3.3c0-0.6-0.4-0.9-1.1-0.9C503.5,35.2,499.8,37.2,499.8,38.5z"/>
</g>
<rect x="78.5" y="54.3" width="10.5" height="0.8"/>
<rect x="80.3" y="55.5" width="0.5" height="18.9"/>
<g>
	<path d="M80.4,55.5c0-1.8,2.5-3.5,4.5-3.5c1.3,0,2.3,0.7,2.3,1.7c0,1.7-2.5,3.5-4.6,3.5C81.4,57.3,80.4,56.6,80.4,55.5z"/>
</g>
<rect x="95.3" y="57.9" width="0.5" height="18"/>
<g>
	<path d="M95.4,58c0-1.8,2.5-3.5,4.5-3.5c1.3,0,2.3,0.7,2.3,1.7c0,1.7-2.5,3.5-4.6,3.5C96.4,59.7,95.4,59.1,95.4,58z"/>
</g>
<rect x="110.2" y="60.4" width="0.5" height="17.2"/>
<g>
	<path d="M110.3,60.5c0-1.8,2.5-3.5,4.5-3.5c1.3,0,2.3,0.7,2.3,1.7c0,1.7-2.5,3.5-4.6,3.5C111.3,62.2,110.3,61.6,110.3,60.5z"/>
</g>
<rect x="125.3" y="62.9" width="0.5" height="16.4"/>
<g>
	<path d="M125.3,63c0-1.8,2.5-3.5,4.5-3.5c1.3,0,2.3,0.7,2.3,1.7c0,1.7-2.5,3.5-4.6,3.5C126.3,64.7,125.3,64.1,125.3,63z"/>
</g>
<rect x="140.1" y="65.4" width="0.5" height="18.9"/>
<g>
	<path d="M140.2,65.5c0-1.8,2.5-3.5,4.5-3.5c1.3,0,2.3,0.7,2.3,1.7c0,1.7-2.5,3.5-4.6,3.5C141.2,67.2,140.2,66.5,140.2,65.5z"/>
</g>
<rect x="155.2" y="67.9" width="0.5" height="18"/>
<g>
	<path d="M155.3,67.9c0-1.8,2.5-3.5,4.5-3.5c1.3,0,2.3,0.7,2.3,1.7c0,1.7-2.5,3.5-4.6,3.5C156.2,69.7,155.3,69,155.3,67.9z"/>
</g>
<rect x="170.1" y="70.3" width="0.5" height="17.2"/>
<g>
	<path d="M170.1,70.4c0-1.8,2.5-3.5,4.5-3.5c1.3,0,2.3,0.7,2.3,1.7c0,1.7-2.5,3.5-4.6,3.5C171.1,72.1,170.1,71.5,170.1,70.4z"/>
</g>
<rect x="185.1" y="72.8" width="0.5" height="16.4"/>
<g>
	<path d="M185.2,72.9c0-1.8,2.5-3.5,4.5-3.5c1.3,0,2.3,0.7,2.3,1.7c0,1.7-2.5,3.5-4.6,3.5C186.1,74.6,185.2,74,185.2,72.9z"/>
</g>
<rect x="206.5" y="59.8" width="0.5" height="14"/>
<g>
	<path d="M200.1,75.4c0-1.8,2.5-3.5,4.5-3.5c1.3,0,2.3,0.7,2.3,1.7c0,1.7-2.5,3.5-4.6,3.5C201,77.1,200.1,76.5,200.1,75.4z"/>
</g>
<rect x="221.5" y="61.3" width="0.5" height="14.9"/>
<g>
	<path d="M215.1,77.9c0-1.8,2.5-3.5,4.5-3.5c1.3,0,2.3,0.7,2.3,1.7c0,1.7-2.5,3.5-4.6,3.5C216.1,79.6,215.1,78.9,215.1,77.9z"/>
</g>
<rect x="236.4" y="63.1" width="0.5" height="15.7"/>
<g>
	<path d="M230,80.3c0-1.8,2.5-3.5,4.5-3.5c1.3,0,2.3,0.7,2.3,1.7c0,1.7-2.5,3.5-4.6,3.5C230.9,82.1,230,81.4,230,80.3z"/>
</g>
<rect x="251.4" y="64.8" width="0.5" height="16.4"/>
<g>
	<path d="M245,82.8c0-1.8,2.5-3.5,4.5-3.5c1.3,0,2.3,0.7,2.3,1.7c0,1.7-2.5,3.5-4.6,3.5C246,84.5,245,83.9,245,82.8z"/>
</g>
<rect x="258" y="84.1" width="10.5" height="0.8"/>
<rect x="266.3" y="68.5" width="0.5" height="15.2"/>
<g>
	<path d="M259.9,85.3c0-1.8,2.5-3.5,4.5-3.5c1.3,0,2.3,0.7,2.3,1.7c0,1.7-2.5,3.5-4.6,3.5C260.9,87,259.9,86.4,259.9,85.3z"/>
</g>
<rect x="273.1" y="84.1" width="10.5" height="0.8"/>
<rect x="281.4" y="68.8" width="0.5" height="17.4"/>
<g>
	<path d="M274.9,87.8c0-1.8,2.5-3.5,4.5-3.5c1.3,0,2.3,0.7,2.3,1.7c0,1.7-2.5,3.5-4.6,3.5C275.9,89.5,274.9,88.9,274.9,87.8z"/>
</g>
<rect x="288.1" y="84.1" width="10.5" height="0.8"/>
<rect x="288.1" y="89" width="10.5" height="0.8"/>
<rect x="296.4" y="69.3" width="0.5" height="19.4"/>
<g>
	<path d="M290,90.3c0-1.8,2.5-3.5,4.5-3.5c1.3,0,2.3,0.7,2.3,1.7c0,1.7-2.5,3.5-4.6,3.5C290.9,92,290,91.3,290,90.3z"/>
</g>
<rect x="303" y="84.1" width="10.5" height="0.8"/>
<rect x="311.3" y="69.7" width="0.5" height="16.4"/>
<g>
	<path d="M304.8,87.8c0-1.8,2.5-3.5,4.5-3.5c1.3,0,2.3,0.7,2.3,1.7c0,1.7-2.5,3.5-4.6,3.5C305.8,89.5,304.8,88.9,304.8,87.8z"/>
</g>
<rect x="318" y="84.1" width="10.5" height="0.8"/>
<rect x="326.3" y="64.8" width="0.5" height="18.9"/>
<g>
	<path d="M319.9,85.3c0-1.8,2.5-3.5,4.5-3.5c1.3,0,2.3,0.7,2.3,1.7c0,1.7-2.5,3.5-4.6,3.5C320.9,87,319.9,86.4,319.9,85.3z"/>
</g>
<rect x="341.2" y="63.2" width="0.5" height="18"/>
<g>
	<path d="M334.8,82.8c0-1.8,2.5-3.5,4.5-3.5c1.3,0,2.3,0.7,2.3,1.7c0,1.7-2.5,3.5-4.6,3.5C335.7,84.5,334.8,83.9,334.8,82.8z"/>
</g>
<rect x="356.2" y="61.5" width="0.5" height="17.2"/>
<g>
	<path d="M349.8,80.3c0-1.8,2.5-3.5,4.5-3.5c1.3,0,2.3,0.7,2.3,1.7c0,1.7-2.5,3.5-4.6,3.5C350.8,82.1,349.8,81.4,349.8,80.3z"/>
</g>
<rect x="371.1" y="59.8" width="0.5" height="16.4"/>
<g>
	<path d="M364.7,77.9c0-1.8,2.5-3.5,4.5-3.5c1.3,0,2.3,0.7,2.3,1.7c0,1.7-2.5,3.5-4.6,3.5C365.7,79.6,364.7,78.9,364.7,77.9z"/>
</g>
<rect x="386.2" y="54.8" width="0.5" height="18.9"/>
<g>
	<path d="M379.7,75.4c0-1.8,2.5-3.5,4.5-3.5c1.3,0,2.3,0.7,2.3,1.7c0,1.7-2.5,3.5-4.6,3.5C380.7,77.1,379.7,76.5,379.7,75.4z"/>
</g>
<rect x="401" y="53.3" width="0.5" height="18"/>
<g>
	<path d="M394.6,72.9c0-1.8,2.5-3.5,4.5-3.5c1.3,0,2.3,0.7,2.3,1.7c0,1.7-2.5,3.5-4.6,3.5C395.6,74.6,394.6,74,394.6,72.9z"/>
</g>
<rect x="416.1" y="51.6" width="0.5" height="17.2"/>
<g>
	<path d="M409.6,70.4c0-1.8,2.5-3.5,4.5-3.5c1.3,0,2.3,0.7,2.3,1.7c0,1.7-2.5,3.5-4.6,3.5C410.6,72.1,409.6,71.5,409.6,70.4z"/>
</g>
<rect x="431" y="49.9" width="0.5" height="16.4"/>
<g>
	<path d="M424.5,67.9c0-1.8,2.5-3.5,4.5-3.5c1.3,0,2.3,0.7,2.3,1.7c0,1.7-2.5,3.5-4.6,3.5C425.5,69.7,424.5,69,424.5,67.9z"/>
</g>
<rect x="439.5" y="65.4" width="0.5" height="14"/>
<g>
	<path d="M439.6,65.5c0-1.8,2.5-3.5,4.5-3.5c1.3,0,2.3,0.7,2.3,1.7c0,1.7-2.5,3.5-4.6,3.5C440.5,67.2,439.6,66.5,439.6,65.5z"/>
</g>
<rect x="454.5" y="62.9" width="0.5" height="14.9"/>
<g>
	<path d="M454.6,63c0-1.8,2.5-3.5,4.5-3.5c1.3,0,2.3,0.7,2.3,1.7c0,1.7-2.5,3.5-4.6,3.5C455.6,64.7,454.6,64.1,454.6,63z"/>
</g>
<rect x="469.4" y="60.4" width="0.5" height="15.7"/>
<g>
	<path d="M469.5,60.5c0-1.8,2.5-3.5,4.5-3.5c1.3,0,2.3,0.7,2.3,1.7c0,1.7-2.5,3.5-4.6,3.5C470.4,62.2,469.5,61.6,469.5,60.5z"/>
</g>
<rect x="484.4" y="57.9" width="0.5" height="16.4"/>
<g>
	<path d="M484.5,58c0-1.8,2.5-3.5,4.5-3.5c1.3,0,2.3,0.7,2.3,1.7c0,1.7-2.5,3.5-4.6,3.5C485.5,59.7,484.5,59.1,484.5,58z"/>
</g>
<rect x="497.5" y="54.3" width="10.7" height="0.8"/>
<rect x="499.3" y="55.5" width="0.5" height="16.6"/>
<g>
	<path d="M503.7,52c1.6,0,2.7,0.7,2.7,2c0,1.9-2.3,3.4-4.5,3.4c-1.3,0-2.4-0.7-2.4-1.8C499.4,53.8,501.6,52,503.7,52z M499.8,55.8
		c0,0.6,0.4,0.9,1.1,0.9c1.4,0,4.9-2.1,4.9-3.3c0-0.6-0.4-0.9-1.1-0.9C503.5,52.6,499.8,54.6,499.8,55.8z"/>
</g>
</svg>
