<?xml version="1.0" encoding="utf-8"?>

<!--
	ScaleBook
	Copyright (c) Leland Jansen 2015. All rights reserved.
-->

<!DOCTYPE svg PUBLIC "-//W3C//DTD SVG 1.1//EN" "http://www.w3.org/Graphics/SVG/1.1/DTD/svg11.dtd">
<svg version="1.1" id="Layer_1" xmlns="http://www.w3.org/2000/svg" xmlns:xlink="http://www.w3.org/1999/xlink" x="0px" y="0px"
	 viewBox="0 0 552.9 92" enable-background="new 0 0 552.9 92" xml:space="preserve">
<rect x="8.4" y="12.5" width="0.8" height="67"/>
<g>
	<path d="M7.4,13.2c-1.9,1.1-3.6,5.8-3.6,9.4c0,2.3,1.4,9.9,1.4,12.3c0,5-1.5,8.6-4.6,11.1c3,2.4,4.6,6.1,4.6,11.1
		c0,2.3-1.4,9.9-1.4,12.3c0,3.8,1.7,8.4,3.6,9.5v0.7c-3.5-2.3-5.8-8.2-5.8-13.1c0-2.1,1.7-9.4,1.7-11.5c0-3.8-1-6.6-2.9-8.2
		C0.1,46.4,0,46.2,0,46c0-0.2,0.1-0.4,0.5-0.7c1.9-1.7,2.9-4.2,2.9-7.6c0-2.1-1.7-10-1.7-12.2c0-5.2,2.1-10.4,5.8-13.1V13.2z"/>
</g>
<rect x="547.8" y="12.5" width="0.8" height="67"/>
<rect x="550.4" y="12.5" width="2.5" height="67"/>
<rect x="8.5" y="32.1" width="544.4" height="0.5"/>
<rect x="8.5" y="27.2" width="544.4" height="0.5"/>
<rect x="8.5" y="22.2" width="544.4" height="0.5"/>
<rect x="8.5" y="17.2" width="544.4" height="0.5"/>
<rect x="8.5" y="12.3" width="544.4" height="0.5"/>
<g>
	<path d="M20.3,32.2c-4.2,0-8.1-3.1-8.1-6.9c0-3.2,2.3-6.7,6.8-10.5c-0.3-1.2-0.4-2.4-0.4-3.6c0-3.5,1.2-6.8,3.2-8.5
		c1.8,2.5,2.7,4.9,2.7,7.1c0,2.9-1.3,5.6-4.3,8.1l0.9,4.2c0.5,0,0.8-0.1,0.8-0.1c2.6,0,4.8,2,4.8,4.7c0,1.9-1.4,3.7-3.6,4.8
		c0-0.1,0.9,3.8,0.9,4.3c0,2.5-2.3,4.2-4.9,4.2c-2,0-3.6-1.3-3.6-3.4c0-1.4,1-2.6,2.4-2.6c1.3,0,2.3,1.3,2.3,2.5
		c0,1.4-1.2,2.3-2.7,2.5c0.6,0.3,1.2,0.5,1.9,0.5c2.1,0,4.1-1.6,4.1-3.6c0-0.2,0-0.4-0.1-0.6l-0.8-3.7
		C21.9,32.1,21.2,32.2,20.3,32.2z M18.1,27c0,1,0.5,1.9,1.6,2.5c-1.8-0.3-3-1.4-3-3.1c0-2,1.7-3.7,3.8-4.1l-0.8-4
		C16,21.1,14,23.8,14,26.4c0,2.9,2.8,5.3,6,5.3c0.9,0,1.7-0.2,2.4-0.5L21,24.4C19.4,24.6,18.1,25.6,18.1,27z M22.1,5.6
		c-1.6,0-2.9,3.7-2.9,7c0,0.7,0,1.3,0.2,1.9c2.7-2.4,4-4.5,4-6.5c0-0.9-0.3-1.7-1-2.4C22.4,5.7,22.3,5.6,22.1,5.6z M24.9,27.5
		c0-1.6-1.2-3.3-2.9-3.3c-0.1,0-0.2,0-0.5,0l1.4,6.6C24.2,30,24.9,28.8,24.9,27.5z"/>
</g>
<polygon fill-rule="evenodd" clip-rule="evenodd" points="43.6,23.7 92.8,18.7 92.8,16.2 43.6,21.2 "/>
<polygon fill-rule="evenodd" clip-rule="evenodd" points="43.6,20 92.8,15 92.8,12.5 43.6,17.5 "/>
<polygon fill-rule="evenodd" clip-rule="evenodd" points="109.1,13.8 158.2,8.8 158.2,6.3 109.1,11.3 "/>
<polygon fill-rule="evenodd" clip-rule="evenodd" points="109.1,10 158.2,5.1 158.2,2.6 109.1,7.6 "/>
<polygon fill-rule="evenodd" clip-rule="evenodd" points="168,28.6 217.1,23.7 217.1,21.2 168,26.2 "/>
<polygon fill-rule="evenodd" clip-rule="evenodd" points="168,32.4 217.1,27.4 217.1,24.9 168,29.9 "/>
<polygon fill-rule="evenodd" clip-rule="evenodd" points="233.5,20 282.5,18.7 282.5,16.2 233.5,17.5 "/>
<polygon fill-rule="evenodd" clip-rule="evenodd" points="233.5,23.7 282.5,22.4 282.5,20 233.5,21.2 "/>
<polygon fill-rule="evenodd" clip-rule="evenodd" points="299,23.7 348.1,28.6 348.1,26.2 299,21.2 "/>
<polygon fill-rule="evenodd" clip-rule="evenodd" points="299,27.4 348.1,32.4 348.1,29.9 299,24.9 "/>
<polygon fill-rule="evenodd" clip-rule="evenodd" points="364.4,33.6 413.5,38.6 413.5,36.1 364.4,31.1 "/>
<polygon fill-rule="evenodd" clip-rule="evenodd" points="364.4,37.3 413.5,42.3 413.5,39.8 364.4,34.8 "/>
<polygon fill-rule="evenodd" clip-rule="evenodd" points="436.3,18.7 485.4,23.7 485.4,21.2 436.3,16.2 "/>
<polygon fill-rule="evenodd" clip-rule="evenodd" points="436.3,15 485.4,20 485.4,17.5 436.3,12.5 "/>
<rect x="8.5" y="79.3" width="544.4" height="0.5"/>
<rect x="8.5" y="74.3" width="544.4" height="0.5"/>
<rect x="8.5" y="69.3" width="544.4" height="0.5"/>
<rect x="8.5" y="64.4" width="544.4" height="0.5"/>
<rect x="8.5" y="59.4" width="544.4" height="0.5"/>
<g>
	<path d="M15.7,73.8c2.9-2.6,4.7-6.1,4.7-9.2c0-2.5-1.4-4.4-3.7-4.4c-1.6,0-3.4,1.3-3.4,2.7c0,0.2,0,0.3,0.1,0.3
		c-0.1,0,0.6-0.6,1.4-0.6c0.9,0,1.5,0.8,1.5,1.7c0,1.2-0.9,2.2-2.1,2.2c-1.2,0-2.1-1.3-2.1-2.8c0-2.3,2.3-4.1,4.8-4.1
		c4.7,0,5.9,3.2,5.9,5.8c0,1.6-0.4,2.9-2,5.3C19.1,73.8,14.6,76,13,76c-0.4,0-0.6-0.2-0.6-0.5C13.8,75.1,14.9,74.5,15.7,73.8z
		 M25.7,61.1c0.6,0,1,0.4,1,1c0,0.6-0.4,1-1,1s-1-0.4-1-1C24.7,61.6,25.1,61.1,25.7,61.1z M25.7,66.1c0.6,0,1,0.4,1,1
		c0,0.6-0.4,1-1,1s-1-0.4-1-1C24.7,66.5,25.1,66.1,25.7,66.1z"/>
</g>
<polygon fill-rule="evenodd" clip-rule="evenodd" points="37.1,70.8 86.3,75.8 86.3,73.3 37.1,68.3 "/>
<polygon fill-rule="evenodd" clip-rule="evenodd" points="37.1,74.5 86.3,79.5 86.3,77 37.1,72 "/>
<polygon fill-rule="evenodd" clip-rule="evenodd" points="102.6,80.7 151.7,85.7 151.7,83.2 102.6,78.2 "/>
<polygon fill-rule="evenodd" clip-rule="evenodd" points="102.6,84.4 151.7,89.4 151.7,86.9 102.6,82 "/>
<polygon fill-rule="evenodd" clip-rule="evenodd" points="174.5,65.8 223.6,70.8 223.6,68.3 174.5,63.4 "/>
<polygon fill-rule="evenodd" clip-rule="evenodd" points="174.5,62.1 223.6,67.1 223.6,64.6 174.5,59.6 "/>
<polygon fill-rule="evenodd" clip-rule="evenodd" points="240.1,74.5 289,75.8 289,73.3 240.1,72 "/>
<polygon fill-rule="evenodd" clip-rule="evenodd" points="240.1,70.8 289,72 289,69.6 240.1,68.3 "/>
<polygon fill-rule="evenodd" clip-rule="evenodd" points="305.5,70.8 354.6,65.8 354.6,63.4 305.5,68.3 "/>
<polygon fill-rule="evenodd" clip-rule="evenodd" points="305.5,67.1 354.6,62.1 354.6,59.6 305.5,64.6 "/>
<polygon fill-rule="evenodd" clip-rule="evenodd" points="370.9,60.9 420,55.9 420,53.4 370.9,58.4 "/>
<polygon fill-rule="evenodd" clip-rule="evenodd" points="370.9,57.2 420,52.2 420,49.7 370.9,54.7 "/>
<polygon fill-rule="evenodd" clip-rule="evenodd" points="429.8,75.8 478.9,70.8 478.9,68.3 429.8,73.3 "/>
<polygon fill-rule="evenodd" clip-rule="evenodd" points="429.8,79.5 478.9,74.5 478.9,72 429.8,77 "/>
<rect x="35.1" y="36.9" width="10.5" height="0.8"/>
<rect x="43.4" y="17.6" width="0.5" height="18.9"/>
<g>
	<path d="M37,38.2c0-1.8,2.5-3.5,4.5-3.5c1.3,0,2.3,0.7,2.3,1.7c0,1.7-2.5,3.5-4.6,3.5C38,39.9,37,39.3,37,38.2z"/>
</g>
<rect x="59.8" y="16.1" width="0.5" height="18"/>
<g>
	<path d="M53.4,35.7c0-1.8,2.5-3.5,4.5-3.5c1.3,0,2.3,0.7,2.3,1.7c0,1.7-2.5,3.5-4.6,3.5C54.4,37.4,53.4,36.8,53.4,35.7z"/>
</g>
<rect x="76.1" y="14.4" width="0.5" height="17.2"/>
<g>
	<path d="M69.7,33.2c0-1.8,2.5-3.5,4.5-3.5c1.3,0,2.3,0.7,2.3,1.7c0,1.7-2.5,3.5-4.6,3.5C70.7,34.9,69.7,34.3,69.7,33.2z"/>
</g>
<rect x="92.6" y="12.7" width="0.5" height="16.4"/>
<g>
	<path d="M86.1,30.7c0-1.8,2.5-3.5,4.5-3.5c1.3,0,2.3,0.7,2.3,1.7c0,1.7-2.5,3.5-4.6,3.5C87.1,32.5,86.1,31.8,86.1,30.7z"/>
</g>
<rect x="108.8" y="7.7" width="0.5" height="18.9"/>
<g>
	<path d="M102.4,28.3c0-1.8,2.5-3.5,4.5-3.5c1.3,0,2.3,0.7,2.3,1.7c0,1.7-2.5,3.5-4.6,3.5C103.4,30,102.4,29.3,102.4,28.3z"/>
</g>
<rect x="125.3" y="6.2" width="0.5" height="18"/>
<g>
	<path d="M118.8,25.8c0-1.8,2.5-3.5,4.5-3.5c1.3,0,2.3,0.7,2.3,1.7c0,1.7-2.5,3.5-4.6,3.5C119.8,27.5,118.8,26.9,118.8,25.8z"/>
</g>
<rect x="141.5" y="4.5" width="0.5" height="17.2"/>
<g>
	<path d="M135.1,23.3c0-1.8,2.5-3.5,4.5-3.5c1.3,0,2.3,0.7,2.3,1.7c0,1.7-2.5,3.5-4.6,3.5C136.1,25,135.1,24.4,135.1,23.3z"/>
</g>
<rect x="158" y="2.8" width="0.5" height="16.4"/>
<g>
	<path d="M151.5,20.8c0-1.8,2.5-3.5,4.5-3.5c1.3,0,2.3,0.7,2.3,1.7c0,1.7-2.5,3.5-4.6,3.5C152.5,22.5,151.5,21.9,151.5,20.8z"/>
</g>
<rect x="167.7" y="18.3" width="0.5" height="14"/>
<g>
	<path d="M167.8,18.3c0-1.8,2.5-3.5,4.5-3.5c1.3,0,2.3,0.7,2.3,1.7c0,1.7-2.5,3.5-4.6,3.5C168.8,20.1,167.8,19.4,167.8,18.3z"/>
</g>
<rect x="184.2" y="15.8" width="0.5" height="14.9"/>
<g>
	<path d="M184.2,15.9c0-1.8,2.5-3.5,4.5-3.5c1.3,0,2.3,0.7,2.3,1.7c0,1.7-2.5,3.5-4.6,3.5C185.2,17.6,184.2,16.9,184.2,15.9z"/>
</g>
<rect x="200.6" y="13.3" width="0.5" height="15.7"/>
<g>
	<path d="M200.7,13.4c0-1.8,2.5-3.5,4.5-3.5c1.3,0,2.3,0.7,2.3,1.7c0,1.7-2.5,3.5-4.6,3.5C201.7,15.1,200.7,14.5,200.7,13.4z"/>
</g>
<rect x="216.9" y="10.8" width="0.5" height="16.4"/>
<g>
	<path d="M217,10.9c0-1.8,2.5-3.5,4.5-3.5c1.3,0,2.3,0.7,2.3,1.7c0,1.7-2.5,3.5-4.6,3.5C217.9,12.6,217,12,217,10.9z"/>
</g>
<rect x="231.5" y="7.2" width="10.5" height="0.8"/>
<rect x="233.3" y="8.3" width="0.5" height="15.2"/>
<g>
	<path d="M233.4,8.4c0-1.8,2.5-3.5,4.5-3.5c1.3,0,2.3,0.7,2.3,1.7c0,1.7-2.5,3.5-4.6,3.5C234.4,10.1,233.4,9.5,233.4,8.4z"/>
</g>
<rect x="247.8" y="7.2" width="10.5" height="0.8"/>
<rect x="249.6" y="5.9" width="0.5" height="17.4"/>
<g>
	<path d="M249.7,5.9c0-1.8,2.5-3.5,4.5-3.5c1.3,0,2.3,0.7,2.3,1.7c0,1.7-2.5,3.5-4.6,3.5C250.6,7.7,249.7,7,249.7,5.9z"/>
</g>
<rect x="264.2" y="7.2" width="10.5" height="0.8"/>
<rect x="264.2" y="2.2" width="10.5" height="0.8"/>
<rect x="266" y="3.4" width="0.5" height="19.4"/>
<g>
	<path d="M266.1,3.5c0-1.8,2.5-3.5,4.5-3.5c1.3,0,2.3,0.7,2.3,1.7c0,1.7-2.5,3.5-4.6,3.5C267.1,5.2,266.1,4.5,266.1,3.5z"/>
</g>
<rect x="280.5" y="7.2" width="10.5" height="0.8"/>
<rect x="282.3" y="5.9" width="0.5" height="16.4"/>
<g>
	<path d="M282.4,5.9c0-1.8,2.5-3.5,4.5-3.5c1.3,0,2.3,0.7,2.3,1.7c0,1.7-2.5,3.5-4.6,3.5C283.3,7.7,282.4,7,282.4,5.9z"/>
</g>
<rect x="296.9" y="7.2" width="10.5" height="0.8"/>
<rect x="298.7" y="8.3" width="0.5" height="18.9"/>
<g>
	<path d="M298.8,8.4c0-1.8,2.5-3.5,4.5-3.5c1.3,0,2.3,0.7,2.3,1.7c0,1.7-2.5,3.5-4.6,3.5C299.8,10.1,298.8,9.5,298.8,8.4z"/>
</g>
<rect x="315" y="10.8" width="0.5" height="18"/>
<g>
	<path d="M315.1,10.9c0-1.8,2.5-3.5,4.5-3.5c1.3,0,2.3,0.7,2.3,1.7c0,1.7-2.5,3.5-4.6,3.5C316.1,12.6,315.1,12,315.1,10.9z"/>
</g>
<rect x="331.4" y="13.3" width="0.5" height="17.2"/>
<g>
	<path d="M331.5,13.4c0-1.8,2.5-3.5,4.5-3.5c1.3,0,2.3,0.7,2.3,1.7c0,1.7-2.5,3.5-4.6,3.5C332.5,15.1,331.5,14.5,331.5,13.4z"/>
</g>
<rect x="347.9" y="15.8" width="0.5" height="16.4"/>
<g>
	<path d="M347.9,15.9c0-1.8,2.5-3.5,4.5-3.5c1.3,0,2.3,0.7,2.3,1.7c0,1.7-2.5,3.5-4.6,3.5C348.9,17.6,347.9,16.9,347.9,15.9z"/>
</g>
<rect x="364.1" y="18.3" width="0.5" height="18.9"/>
<g>
	<path d="M364.2,18.3c0-1.8,2.5-3.5,4.5-3.5c1.3,0,2.3,0.7,2.3,1.7c0,1.7-2.5,3.5-4.6,3.5C365.2,20.1,364.2,19.4,364.2,18.3z"/>
</g>
<rect x="380.6" y="20.7" width="0.5" height="18"/>
<g>
	<path d="M380.7,20.8c0-1.8,2.5-3.5,4.5-3.5c1.3,0,2.3,0.7,2.3,1.7c0,1.7-2.5,3.5-4.6,3.5C381.6,22.5,380.7,21.9,380.7,20.8z"/>
</g>
<rect x="396.9" y="23.2" width="0.5" height="17.2"/>
<g>
	<path d="M396.9,23.3c0-1.8,2.5-3.5,4.5-3.5c1.3,0,2.3,0.7,2.3,1.7c0,1.7-2.5,3.5-4.6,3.5C397.9,25,396.9,24.4,396.9,23.3z"/>
</g>
<rect x="413.3" y="25.7" width="0.5" height="16.4"/>
<g>
	<path d="M413.4,25.8c0-1.8,2.5-3.5,4.5-3.5c1.3,0,2.3,0.7,2.3,1.7c0,1.7-2.5,3.5-4.6,3.5C414.3,27.5,413.4,26.9,413.4,25.8z"/>
</g>
<rect x="436.1" y="12.7" width="0.5" height="14"/>
<g>
	<path d="M429.6,28.3c0-1.8,2.5-3.5,4.5-3.5c1.3,0,2.3,0.7,2.3,1.7c0,1.7-2.5,3.5-4.6,3.5C430.6,30,429.6,29.3,429.6,28.3z"/>
</g>
<rect x="452.5" y="14.2" width="0.5" height="14.9"/>
<g>
	<path d="M446.1,30.7c0-1.8,2.5-3.5,4.5-3.5c1.3,0,2.3,0.7,2.3,1.7c0,1.7-2.5,3.5-4.6,3.5C447,32.5,446.1,31.8,446.1,30.7z"/>
</g>
<rect x="468.8" y="15.9" width="0.5" height="15.7"/>
<g>
	<path d="M462.3,33.2c0-1.8,2.5-3.5,4.5-3.5c1.3,0,2.3,0.7,2.3,1.7c0,1.7-2.5,3.5-4.6,3.5C463.3,34.9,462.3,34.3,462.3,33.2z"/>
</g>
<rect x="485.2" y="17.6" width="0.5" height="16.4"/>
<g>
	<path d="M478.8,35.7c0-1.8,2.5-3.5,4.5-3.5c1.3,0,2.3,0.7,2.3,1.7c0,1.7-2.5,3.5-4.6,3.5C479.7,37.4,478.8,36.8,478.8,35.7z"/>
</g>
<rect x="493.3" y="36.9" width="10.7" height="0.8"/>
<rect x="501.8" y="20" width="0.5" height="16.6"/>
<g>
	<path d="M499.5,34.6c1.6,0,2.7,0.7,2.7,2c0,1.9-2.3,3.4-4.5,3.4c-1.3,0-2.4-0.7-2.4-1.8C495.2,36.4,497.4,34.6,499.5,34.6z
		 M495.7,38.5c0,0.6,0.4,0.9,1.1,0.9c1.4,0,4.9-2.1,4.9-3.3c0-0.6-0.4-0.9-1.1-0.9C499.3,35.2,495.7,37.2,495.7,38.5z"/>
</g>
<rect x="35.1" y="54.3" width="10.5" height="0.8"/>
<rect x="36.9" y="55.5" width="0.5" height="18.9"/>
<g>
	<path d="M37,55.5c0-1.8,2.5-3.5,4.5-3.5c1.3,0,2.3,0.7,2.3,1.7c0,1.7-2.5,3.5-4.6,3.5C38,57.3,37,56.6,37,55.5z"/>
</g>
<rect x="53.3" y="57.9" width="0.5" height="18"/>
<g>
	<path d="M53.4,58c0-1.8,2.5-3.5,4.5-3.5c1.3,0,2.3,0.7,2.3,1.7c0,1.7-2.5,3.5-4.6,3.5C54.4,59.7,53.4,59.1,53.4,58z"/>
</g>
<rect x="69.6" y="60.4" width="0.5" height="17.2"/>
<g>
	<path d="M69.7,60.5c0-1.8,2.5-3.5,4.5-3.5c1.3,0,2.3,0.7,2.3,1.7c0,1.7-2.5,3.5-4.6,3.5C70.7,62.2,69.7,61.6,69.7,60.5z"/>
</g>
<rect x="86" y="62.9" width="0.5" height="16.4"/>
<g>
	<path d="M86.1,63c0-1.8,2.5-3.5,4.5-3.5c1.3,0,2.3,0.7,2.3,1.7c0,1.7-2.5,3.5-4.6,3.5C87.1,64.7,86.1,64.1,86.1,63z"/>
</g>
<rect x="102.3" y="65.4" width="0.5" height="18.9"/>
<g>
	<path d="M102.4,65.5c0-1.8,2.5-3.5,4.5-3.5c1.3,0,2.3,0.7,2.3,1.7c0,1.7-2.5,3.5-4.6,3.5C103.4,67.2,102.4,66.5,102.4,65.5z"/>
</g>
<rect x="118.8" y="67.9" width="0.5" height="18"/>
<g>
	<path d="M118.8,67.9c0-1.8,2.5-3.5,4.5-3.5c1.3,0,2.3,0.7,2.3,1.7c0,1.7-2.5,3.5-4.6,3.5C119.8,69.7,118.8,69,118.8,67.9z"/>
</g>
<rect x="135" y="70.3" width="0.5" height="17.2"/>
<g>
	<path d="M135.1,70.4c0-1.8,2.5-3.5,4.5-3.5c1.3,0,2.3,0.7,2.3,1.7c0,1.7-2.5,3.5-4.6,3.5C136.1,72.1,135.1,71.5,135.1,70.4z"/>
</g>
<rect x="151.5" y="72.8" width="0.5" height="16.4"/>
<g>
	<path d="M151.5,72.9c0-1.8,2.5-3.5,4.5-3.5c1.3,0,2.3,0.7,2.3,1.7c0,1.7-2.5,3.5-4.6,3.5C152.5,74.6,151.5,74,151.5,72.9z"/>
</g>
<rect x="174.2" y="59.8" width="0.5" height="14"/>
<g>
	<path d="M167.8,75.4c0-1.8,2.5-3.5,4.5-3.5c1.3,0,2.3,0.7,2.3,1.7c0,1.7-2.5,3.5-4.6,3.5C168.8,77.1,167.8,76.5,167.8,75.4z"/>
</g>
<rect x="190.7" y="61.3" width="0.5" height="14.9"/>
<g>
	<path d="M184.2,77.9c0-1.8,2.5-3.5,4.5-3.5c1.3,0,2.3,0.7,2.3,1.7c0,1.7-2.5,3.5-4.6,3.5C185.2,79.6,184.2,78.9,184.2,77.9z"/>
</g>
<rect x="207.1" y="63.1" width="0.5" height="15.7"/>
<g>
	<path d="M200.7,80.3c0-1.8,2.5-3.5,4.5-3.5c1.3,0,2.3,0.7,2.3,1.7c0,1.7-2.5,3.5-4.6,3.5C201.7,82.1,200.7,81.4,200.7,80.3z"/>
</g>
<rect x="223.4" y="64.8" width="0.5" height="16.4"/>
<g>
	<path d="M217,82.8c0-1.8,2.5-3.5,4.5-3.5c1.3,0,2.3,0.7,2.3,1.7c0,1.7-2.5,3.5-4.6,3.5C217.9,84.5,217,83.9,217,82.8z"/>
</g>
<rect x="231.5" y="84.1" width="10.5" height="0.8"/>
<rect x="239.8" y="68.5" width="0.5" height="15.2"/>
<g>
	<path d="M233.4,85.3c0-1.8,2.5-3.5,4.5-3.5c1.3,0,2.3,0.7,2.3,1.7c0,1.7-2.5,3.5-4.6,3.5C234.4,87,233.4,86.4,233.4,85.3z"/>
</g>
<rect x="247.8" y="84.1" width="10.5" height="0.8"/>
<rect x="256.1" y="68.8" width="0.5" height="17.4"/>
<g>
	<path d="M249.7,87.8c0-1.8,2.5-3.5,4.5-3.5c1.3,0,2.3,0.7,2.3,1.7c0,1.7-2.5,3.5-4.6,3.5C250.6,89.5,249.7,88.9,249.7,87.8z"/>
</g>
<rect x="264.2" y="84.1" width="10.5" height="0.8"/>
<rect x="264.2" y="89" width="10.5" height="0.8"/>
<rect x="272.5" y="69.3" width="0.5" height="19.4"/>
<g>
	<path d="M266.1,90.3c0-1.8,2.5-3.5,4.5-3.5c1.3,0,2.3,0.7,2.3,1.7c0,1.7-2.5,3.5-4.6,3.5C267.1,92,266.1,91.3,266.1,90.3z"/>
</g>
<rect x="280.5" y="84.1" width="10.5" height="0.8"/>
<rect x="288.8" y="69.7" width="0.5" height="16.4"/>
<g>
	<path d="M282.4,87.8c0-1.8,2.5-3.5,4.5-3.5c1.3,0,2.3,0.7,2.3,1.7c0,1.7-2.5,3.5-4.6,3.5C283.3,89.5,282.4,88.9,282.4,87.8z"/>
</g>
<rect x="296.9" y="84.1" width="10.5" height="0.8"/>
<rect x="305.2" y="64.8" width="0.5" height="18.9"/>
<g>
	<path d="M298.8,85.3c0-1.8,2.5-3.5,4.5-3.5c1.3,0,2.3,0.7,2.3,1.7c0,1.7-2.5,3.5-4.6,3.5C299.8,87,298.8,86.4,298.8,85.3z"/>
</g>
<rect x="321.5" y="63.2" width="0.5" height="18"/>
<g>
	<path d="M315.1,82.8c0-1.8,2.5-3.5,4.5-3.5c1.3,0,2.3,0.7,2.3,1.7c0,1.7-2.5,3.5-4.6,3.5C316.1,84.5,315.1,83.9,315.1,82.8z"/>
</g>
<rect x="337.9" y="61.5" width="0.5" height="17.2"/>
<g>
	<path d="M331.5,80.3c0-1.8,2.5-3.5,4.5-3.5c1.3,0,2.3,0.7,2.3,1.7c0,1.7-2.5,3.5-4.6,3.5C332.5,82.1,331.5,81.4,331.5,80.3z"/>
</g>
<rect x="354.4" y="59.8" width="0.5" height="16.4"/>
<g>
	<path d="M347.9,77.9c0-1.8,2.5-3.5,4.5-3.5c1.3,0,2.3,0.7,2.3,1.7c0,1.7-2.5,3.5-4.6,3.5C348.9,79.6,347.9,78.9,347.9,77.9z"/>
</g>
<rect x="370.7" y="54.8" width="0.5" height="18.9"/>
<g>
	<path d="M364.2,75.4c0-1.8,2.5-3.5,4.5-3.5c1.3,0,2.3,0.7,2.3,1.7c0,1.7-2.5,3.5-4.6,3.5C365.2,77.1,364.2,76.5,364.2,75.4z"/>
</g>
<rect x="387.1" y="53.3" width="0.5" height="18"/>
<g>
	<path d="M380.7,72.9c0-1.8,2.5-3.5,4.5-3.5c1.3,0,2.3,0.7,2.3,1.7c0,1.7-2.5,3.5-4.6,3.5C381.6,74.6,380.7,74,380.7,72.9z"/>
</g>
<rect x="403.4" y="51.6" width="0.5" height="17.2"/>
<g>
	<path d="M396.9,70.4c0-1.8,2.5-3.5,4.5-3.5c1.3,0,2.3,0.7,2.3,1.7c0,1.7-2.5,3.5-4.6,3.5C397.9,72.1,396.9,71.5,396.9,70.4z"/>
</g>
<rect x="419.8" y="49.9" width="0.5" height="16.4"/>
<g>
	<path d="M413.4,67.9c0-1.8,2.5-3.5,4.5-3.5c1.3,0,2.3,0.7,2.3,1.7c0,1.7-2.5,3.5-4.6,3.5C414.3,69.7,413.4,69,413.4,67.9z"/>
</g>
<rect x="429.6" y="65.4" width="0.5" height="14"/>
<g>
	<path d="M429.6,65.5c0-1.8,2.5-3.5,4.5-3.5c1.3,0,2.3,0.7,2.3,1.7c0,1.7-2.5,3.5-4.6,3.5C430.6,67.2,429.6,66.5,429.6,65.5z"/>
</g>
<rect x="446" y="62.9" width="0.5" height="14.9"/>
<g>
	<path d="M446.1,63c0-1.8,2.5-3.5,4.5-3.5c1.3,0,2.3,0.7,2.3,1.7c0,1.7-2.5,3.5-4.6,3.5C447,64.7,446.1,64.1,446.1,63z"/>
</g>
<rect x="462.3" y="60.4" width="0.5" height="15.7"/>
<g>
	<path d="M462.3,60.5c0-1.8,2.5-3.5,4.5-3.5c1.3,0,2.3,0.7,2.3,1.7c0,1.7-2.5,3.5-4.6,3.5C463.3,62.2,462.3,61.6,462.3,60.5z"/>
</g>
<rect x="478.7" y="57.9" width="0.5" height="16.4"/>
<g>
	<path d="M478.8,58c0-1.8,2.5-3.5,4.5-3.5c1.3,0,2.3,0.7,2.3,1.7c0,1.7-2.5,3.5-4.6,3.5C479.7,59.7,478.8,59.1,478.8,58z"/>
</g>
<rect x="493.3" y="54.3" width="10.7" height="0.8"/>
<rect x="495.1" y="55.5" width="0.5" height="16.6"/>
<g>
	<path d="M499.5,52c1.6,0,2.7,0.7,2.7,2c0,1.9-2.3,3.4-4.5,3.4c-1.3,0-2.4-0.7-2.4-1.8C495.2,53.8,497.4,52,499.5,52z M495.7,55.8
		c0,0.6,0.4,0.9,1.1,0.9c1.4,0,4.9-2.1,4.9-3.3c0-0.6-0.4-0.9-1.1-0.9C499.3,52.6,495.7,54.6,495.7,55.8z"/>
</g>
</svg>
