<?xml version="1.0" encoding="utf-8"?>

<!--
	ScaleBook
	Copyright (c) Leland Jansen 2015. All rights reserved.
-->

<!DOCTYPE svg PUBLIC "-//W3C//DTD SVG 1.1//EN" "http://www.w3.org/Graphics/SVG/1.1/DTD/svg11.dtd">
<svg version="1.1" id="Layer_1" xmlns="http://www.w3.org/2000/svg" xmlns:xlink="http://www.w3.org/1999/xlink" x="0px" y="0px"
	 viewBox="0 0 552.9 92" enable-background="new 0 0 552.9 92" xml:space="preserve">
<rect x="8.4" y="17.5" width="0.8" height="67"/>
<g>
	<path d="M7.4,18.1c-1.9,1.1-3.6,5.8-3.6,9.4c0,2.3,1.4,9.9,1.4,12.3c0,5-1.5,8.6-4.6,11.1c3,2.4,4.6,6.1,4.6,11.1
		c0,2.3-1.4,9.9-1.4,12.3c0,3.8,1.7,8.4,3.6,9.5v0.7c-3.5-2.3-5.8-8.2-5.8-13.1c0-2.1,1.7-9.4,1.7-11.5c0-3.8-1-6.6-2.9-8.2
		C0.1,51.4,0,51.2,0,51c0-0.2,0.1-0.4,0.5-0.7c1.9-1.7,2.9-4.2,2.9-7.6c0-2.1-1.7-10-1.7-12.2c0-5.2,2.1-10.4,5.8-13.1V18.1z"/>
</g>
<rect x="547.8" y="17.5" width="0.8" height="67"/>
<rect x="550.4" y="17.5" width="2.5" height="67"/>
<rect x="8.5" y="37.1" width="544.4" height="0.5"/>
<rect x="8.5" y="32.1" width="544.4" height="0.5"/>
<rect x="8.5" y="27.2" width="544.4" height="0.5"/>
<rect x="8.5" y="22.2" width="544.4" height="0.5"/>
<rect x="8.5" y="17.2" width="544.4" height="0.5"/>
<g>
	<path d="M20.3,37.2c-4.2,0-8.1-3.1-8.1-6.9c0-3.2,2.3-6.7,6.8-10.5c-0.3-1.2-0.4-2.4-0.4-3.6c0-3.5,1.2-6.8,3.2-8.5
		c1.8,2.5,2.7,4.9,2.7,7.1c0,2.9-1.3,5.6-4.3,8.1l0.9,4.2c0.5,0,0.8-0.1,0.8-0.1c2.6,0,4.8,2,4.8,4.7c0,1.9-1.4,3.7-3.6,4.8
		c0-0.1,0.9,3.8,0.9,4.3c0,2.5-2.3,4.2-4.9,4.2c-2,0-3.6-1.3-3.6-3.4c0-1.4,1-2.6,2.4-2.6c1.3,0,2.3,1.3,2.3,2.5
		c0,1.4-1.2,2.3-2.7,2.5c0.6,0.3,1.2,0.5,1.9,0.5c2.1,0,4.1-1.6,4.1-3.6c0-0.2,0-0.4-0.1-0.6l-0.8-3.7C21.9,37,21.2,37.2,20.3,37.2z
		 M18.1,31.9c0,1,0.5,1.9,1.6,2.5c-1.8-0.3-3-1.4-3-3.1c0-2,1.7-3.7,3.8-4.1l-0.8-4C16,26,14,28.7,14,31.4c0,2.9,2.8,5.3,6,5.3
		c0.9,0,1.7-0.2,2.4-0.5L21,29.3C19.4,29.6,18.1,30.6,18.1,31.9z M22.1,10.6c-1.6,0-2.9,3.7-2.9,7c0,0.7,0,1.3,0.2,1.9
		c2.7-2.4,4-4.5,4-6.5c0-0.9-0.3-1.7-1-2.4C22.4,10.6,22.3,10.6,22.1,10.6z M24.9,32.5c0-1.6-1.2-3.3-2.9-3.3c-0.1,0-0.2,0-0.5,0
		l1.4,6.6C24.2,34.9,24.9,33.8,24.9,32.5z"/>
</g>
<g>
	<path d="M29.5,19.1h0.6L30,25.3c0.4-0.7,1-1,1.8-1c1.2,0,2.2,0.8,2.2,1.9c0,0.8-0.5,1.8-1.7,2.7L29.5,31V19.1z M30.1,26
		C30,26.7,30,27.4,30,27.9c0,1,0,1.6,0.1,2c1-0.7,2.4-2.6,2.4-3.7c0-0.6-0.5-1.1-1.1-1.1C30.8,25.2,30.4,25.4,30.1,26z"/>
</g>
<g>
	<path d="M35.1,11.6h0.6l-0.1,6.2c0.4-0.7,1-1,1.8-1c1.2,0,2.2,0.8,2.2,1.9c0,0.8-0.5,1.8-1.7,2.7l-2.8,2.1V11.6z M35.7,18.6
		c-0.1,0.8-0.1,1.4-0.1,1.9c0,1,0,1.6,0.1,2c1-0.7,2.4-2.6,2.4-3.7c0-0.6-0.5-1.1-1.1-1.1C36.4,17.7,36,18,35.7,18.6z"/>
</g>
<g>
	<path d="M40.7,21.6h0.6l-0.1,6.2c0.4-0.7,1-1,1.8-1c1.2,0,2.2,0.8,2.2,1.9c0,0.8-0.5,1.8-1.7,2.7l-2.8,2.1V21.6z M41.3,28.5
		c-0.1,0.8-0.1,1.4-0.1,1.9c0,1,0,1.6,0.1,2c1-0.7,2.4-2.6,2.4-3.7c0-0.6-0.5-1.1-1.1-1.1C42,27.6,41.6,27.9,41.3,28.5z"/>
</g>
<polygon fill-rule="evenodd" clip-rule="evenodd" points="60.4,23.7 107.8,18.7 107.8,16.2 60.4,21.2 "/>
<polygon fill-rule="evenodd" clip-rule="evenodd" points="60.4,20 107.8,15 107.8,12.5 60.4,17.5 "/>
<polygon fill-rule="evenodd" clip-rule="evenodd" points="117.1,38.6 164.7,33.6 164.7,31.1 117.1,36.1 "/>
<polygon fill-rule="evenodd" clip-rule="evenodd" points="117.1,42.3 164.7,37.3 164.7,34.8 117.1,39.8 "/>
<polygon fill-rule="evenodd" clip-rule="evenodd" points="180.5,28.6 228,23.7 228,21.2 180.5,26.2 "/>
<polygon fill-rule="evenodd" clip-rule="evenodd" points="180.5,32.4 228,27.4 228,24.9 180.5,29.9 "/>
<polygon fill-rule="evenodd" clip-rule="evenodd" points="243.8,24.9 291.2,23.7 291.2,21.2 243.8,22.4 "/>
<polygon fill-rule="evenodd" clip-rule="evenodd" points="243.8,28.6 291.2,27.4 291.2,24.9 243.8,26.2 "/>
<polygon fill-rule="evenodd" clip-rule="evenodd" points="307,23.7 354.5,28.6 354.5,26.2 307,21.2 "/>
<polygon fill-rule="evenodd" clip-rule="evenodd" points="307,27.4 354.5,32.4 354.5,29.9 307,24.9 "/>
<polygon fill-rule="evenodd" clip-rule="evenodd" points="370.4,33.6 417.9,38.6 417.9,36.1 370.4,31.1 "/>
<polygon fill-rule="evenodd" clip-rule="evenodd" points="370.4,37.3 417.9,42.3 417.9,39.8 370.4,34.8 "/>
<polygon fill-rule="evenodd" clip-rule="evenodd" points="440.2,18.7 487.6,23.7 487.6,21.2 440.2,16.2 "/>
<polygon fill-rule="evenodd" clip-rule="evenodd" points="440.2,15 487.6,20 487.6,17.5 440.2,12.5 "/>
<rect x="8.5" y="84.2" width="544.4" height="0.5"/>
<rect x="8.5" y="79.3" width="544.4" height="0.5"/>
<rect x="8.5" y="74.3" width="544.4" height="0.5"/>
<rect x="8.5" y="69.3" width="544.4" height="0.5"/>
<rect x="8.5" y="64.4" width="544.4" height="0.5"/>
<g>
	<path d="M15.7,78.8c2.9-2.6,4.7-6.1,4.7-9.2c0-2.5-1.4-4.4-3.7-4.4c-1.6,0-3.4,1.3-3.4,2.7c0,0.2,0,0.3,0.1,0.3
		c-0.1,0,0.6-0.6,1.4-0.6c0.9,0,1.5,0.8,1.5,1.7c0,1.2-0.9,2.2-2.1,2.2c-1.2,0-2.1-1.3-2.1-2.8c0-2.3,2.3-4.1,4.8-4.1
		c4.7,0,5.9,3.2,5.9,5.8c0,1.6-0.4,2.9-2,5.3C19.1,78.7,14.6,81,13,81c-0.4,0-0.6-0.2-0.6-0.5C13.8,80.1,14.9,79.5,15.7,78.8z
		 M25.7,66.1c0.6,0,1,0.4,1,1c0,0.6-0.4,1-1,1s-1-0.4-1-1C24.7,66.5,25.1,66.1,25.7,66.1z M25.7,71c0.6,0,1,0.4,1,1c0,0.6-0.4,1-1,1
		s-1-0.4-1-1C24.7,71.5,25.1,71,25.7,71z"/>
</g>
<g>
	<path d="M29.5,71.2h0.6L30,77.4c0.4-0.7,1-1,1.8-1c1.2,0,2.2,0.8,2.2,1.9c0,0.8-0.5,1.8-1.7,2.7l-2.8,2.1V71.2z M30.1,78.1
		C30,78.8,30,79.5,30,80c0,1,0,1.6,0.1,2c1-0.7,2.4-2.6,2.4-3.7c0-0.6-0.5-1.1-1.1-1.1C30.8,77.2,30.4,77.5,30.1,78.1z"/>
</g>
<g>
	<path d="M35.1,63.7h0.6L35.6,70c0.4-0.7,1-1,1.8-1c1.2,0,2.2,0.8,2.2,1.9c0,0.8-0.5,1.8-1.7,2.7l-2.8,2.1V63.7z M35.7,70.6
		c-0.1,0.8-0.1,1.4-0.1,1.9c0,1,0,1.6,0.1,2c1-0.7,2.4-2.6,2.4-3.7c0-0.6-0.5-1.1-1.1-1.1C36.4,69.8,36,70.1,35.7,70.6z"/>
</g>
<g>
	<path d="M40.7,73.7h0.6l-0.1,6.2c0.4-0.7,1-1,1.8-1c1.2,0,2.2,0.8,2.2,1.9c0,0.8-0.5,1.8-1.7,2.7l-2.8,2.1V73.7z M41.3,80.6
		c-0.1,0.8-0.1,1.4-0.1,1.9c0,1,0,1.6,0.1,2c1-0.7,2.4-2.6,2.4-3.7c0-0.6-0.5-1.1-1.1-1.1C42,79.7,41.6,80,41.3,80.6z"/>
</g>
<polygon fill-rule="evenodd" clip-rule="evenodd" points="53.9,70.8 101.3,75.8 101.3,73.3 53.9,68.3 "/>
<polygon fill-rule="evenodd" clip-rule="evenodd" points="53.9,74.5 101.3,79.5 101.3,77 53.9,72 "/>
<polygon fill-rule="evenodd" clip-rule="evenodd" points="117.1,80.7 164.7,85.7 164.7,83.2 117.1,78.2 "/>
<polygon fill-rule="evenodd" clip-rule="evenodd" points="117.1,84.4 164.7,89.4 164.7,86.9 117.1,82 "/>
<polygon fill-rule="evenodd" clip-rule="evenodd" points="187,65.8 234.5,70.8 234.5,68.3 187,63.4 "/>
<polygon fill-rule="evenodd" clip-rule="evenodd" points="187,62.1 234.5,67.1 234.5,64.6 187,59.6 "/>
<polygon fill-rule="evenodd" clip-rule="evenodd" points="250.3,74.5 297.7,75.8 297.7,73.3 250.3,72 "/>
<polygon fill-rule="evenodd" clip-rule="evenodd" points="250.3,70.8 297.7,72 297.7,69.6 250.3,68.3 "/>
<polygon fill-rule="evenodd" clip-rule="evenodd" points="313.5,70.8 361,65.8 361,63.4 313.5,68.3 "/>
<polygon fill-rule="evenodd" clip-rule="evenodd" points="313.5,67.1 361,62.1 361,59.6 313.5,64.6 "/>
<polygon fill-rule="evenodd" clip-rule="evenodd" points="370.4,85.7 417.9,80.7 417.9,78.2 370.4,83.2 "/>
<polygon fill-rule="evenodd" clip-rule="evenodd" points="370.4,89.4 417.9,84.4 417.9,82 370.4,86.9 "/>
<polygon fill-rule="evenodd" clip-rule="evenodd" points="433.7,75.8 481.1,70.8 481.1,68.3 433.7,73.3 "/>
<polygon fill-rule="evenodd" clip-rule="evenodd" points="433.7,79.5 481.1,74.5 481.1,72 433.7,77 "/>
<rect x="60.2" y="17.6" width="0.5" height="18.9"/>
<g>
	<path d="M53.7,38.2c0-1.8,2.5-3.5,4.5-3.5c1.3,0,2.3,0.7,2.3,1.7c0,1.7-2.5,3.5-4.6,3.5C54.7,39.9,53.7,39.3,53.7,38.2z"/>
</g>
<rect x="76" y="16.1" width="0.5" height="18"/>
<g>
	<path d="M69.5,35.7c0-1.8,2.5-3.5,4.5-3.5c1.3,0,2.3,0.7,2.3,1.7c0,1.7-2.5,3.5-4.6,3.5C70.5,37.4,69.5,36.8,69.5,35.7z"/>
</g>
<rect x="91.8" y="14.4" width="0.5" height="17.2"/>
<g>
	<path d="M85.3,33.2c0-1.8,2.5-3.5,4.5-3.5c1.3,0,2.3,0.7,2.3,1.7c0,1.7-2.5,3.5-4.6,3.5C86.3,34.9,85.3,34.3,85.3,33.2z"/>
</g>
<rect x="107.6" y="12.7" width="0.5" height="16.4"/>
<g>
	<path d="M101.2,30.7c0-1.8,2.5-3.5,4.5-3.5c1.3,0,2.3,0.7,2.3,1.7c0,1.7-2.5,3.5-4.6,3.5C102.1,32.5,101.2,31.8,101.2,30.7z"/>
</g>
<rect x="116.9" y="28.2" width="0.5" height="14"/>
<g>
	<path d="M117,28.3c0-1.8,2.5-3.5,4.5-3.5c1.3,0,2.3,0.7,2.3,1.7c0,1.7-2.5,3.5-4.6,3.5C117.9,30,117,29.3,117,28.3z"/>
</g>
<rect x="132.7" y="25.7" width="0.5" height="14.9"/>
<g>
	<path d="M132.8,25.8c0-1.8,2.5-3.5,4.5-3.5c1.3,0,2.3,0.7,2.3,1.7c0,1.7-2.5,3.5-4.6,3.5C133.8,27.5,132.8,26.9,132.8,25.8z"/>
</g>
<rect x="148.5" y="23.2" width="0.5" height="15.7"/>
<g>
	<path d="M148.6,23.3c0-1.8,2.5-3.5,4.5-3.5c1.3,0,2.3,0.7,2.3,1.7c0,1.7-2.5,3.5-4.6,3.5C149.6,25,148.6,24.4,148.6,23.3z"/>
</g>
<rect x="164.5" y="20.7" width="0.5" height="16.4"/>
<g>
	<path d="M164.6,20.8c0-1.8,2.5-3.5,4.5-3.5c1.3,0,2.3,0.7,2.3,1.7c0,1.7-2.5,3.5-4.6,3.5C165.5,22.5,164.6,21.9,164.6,20.8z"/>
</g>
<rect x="180.3" y="18.3" width="0.5" height="14"/>
<g>
	<path d="M180.4,18.3c0-1.8,2.5-3.5,4.5-3.5c1.3,0,2.3,0.7,2.3,1.7c0,1.7-2.5,3.5-4.6,3.5C181.3,20.1,180.4,19.4,180.4,18.3z"/>
</g>
<rect x="196.1" y="15.8" width="0.5" height="14.9"/>
<g>
	<path d="M196.2,15.9c0-1.8,2.5-3.5,4.5-3.5c1.3,0,2.3,0.7,2.3,1.7c0,1.7-2.5,3.5-4.6,3.5C197.2,17.6,196.2,16.9,196.2,15.9z"/>
</g>
<rect x="210.1" y="12.1" width="10.5" height="0.8"/>
<rect x="211.9" y="13.3" width="0.5" height="15.7"/>
<g>
	<path d="M212,13.4c0-1.8,2.5-3.5,4.5-3.5c1.3,0,2.3,0.7,2.3,1.7c0,1.7-2.5,3.5-4.6,3.5C213,15.1,212,14.5,212,13.4z"/>
</g>
<rect x="225.9" y="12.1" width="10.5" height="0.8"/>
<rect x="227.7" y="10.8" width="0.5" height="16.4"/>
<g>
	<path d="M227.8,10.9c0-1.8,2.5-3.5,4.5-3.5c1.3,0,2.3,0.7,2.3,1.7c0,1.7-2.5,3.5-4.6,3.5C228.8,12.6,227.8,12,227.8,10.9z"/>
</g>
<rect x="241.8" y="12.1" width="10.5" height="0.8"/>
<rect x="241.8" y="7.2" width="10.5" height="0.8"/>
<rect x="243.5" y="8.3" width="0.5" height="20.2"/>
<g>
	<path d="M243.6,8.4c0-1.8,2.5-3.5,4.5-3.5c1.3,0,2.3,0.7,2.3,1.7c0,1.7-2.5,3.5-4.6,3.5C244.6,10.1,243.6,9.5,243.6,8.4z"/>
</g>
<rect x="257.6" y="12.1" width="10.5" height="0.8"/>
<rect x="257.6" y="7.2" width="10.5" height="0.8"/>
<rect x="259.4" y="5.9" width="0.5" height="22.3"/>
<g>
	<path d="M259.4,5.9c0-1.8,2.5-3.5,4.5-3.5c1.3,0,2.3,0.7,2.3,1.7c0,1.7-2.5,3.5-4.6,3.5C260.4,7.7,259.4,7,259.4,5.9z"/>
</g>
<rect x="273.4" y="12.1" width="10.5" height="0.8"/>
<rect x="273.4" y="7.2" width="10.5" height="0.8"/>
<rect x="273.4" y="2.2" width="10.5" height="0.8"/>
<rect x="275.2" y="3.4" width="0.5" height="24.3"/>
<g>
	<path d="M275.2,3.5c0-1.8,2.5-3.5,4.5-3.5c1.3,0,2.3,0.7,2.3,1.7c0,1.7-2.5,3.5-4.6,3.5C276.2,5.2,275.2,4.5,275.2,3.5z"/>
</g>
<rect x="289.2" y="12.1" width="10.5" height="0.8"/>
<rect x="289.2" y="7.2" width="10.5" height="0.8"/>
<rect x="291" y="5.9" width="0.5" height="21.4"/>
<g>
	<path d="M291.1,5.9c0-1.8,2.5-3.5,4.5-3.5c1.3,0,2.3,0.7,2.3,1.7c0,1.7-2.5,3.5-4.6,3.5C292,7.7,291.1,7,291.1,5.9z"/>
</g>
<rect x="305" y="12.1" width="10.5" height="0.8"/>
<rect x="305" y="7.2" width="10.5" height="0.8"/>
<rect x="306.8" y="8.3" width="0.5" height="18.9"/>
<g>
	<path d="M306.9,8.4c0-1.8,2.5-3.5,4.5-3.5c1.3,0,2.3,0.7,2.3,1.7c0,1.7-2.5,3.5-4.6,3.5C307.8,10.1,306.9,9.5,306.9,8.4z"/>
</g>
<rect x="320.8" y="12.1" width="10.5" height="0.8"/>
<rect x="322.6" y="10.8" width="0.5" height="18"/>
<g>
	<path d="M322.7,10.9c0-1.8,2.5-3.5,4.5-3.5c1.3,0,2.3,0.7,2.3,1.7c0,1.7-2.5,3.5-4.6,3.5C323.6,12.6,322.7,12,322.7,10.9z"/>
</g>
<rect x="336.6" y="12.1" width="10.5" height="0.8"/>
<rect x="338.4" y="13.3" width="0.5" height="17.2"/>
<g>
	<path d="M338.5,13.4c0-1.8,2.5-3.5,4.5-3.5c1.3,0,2.3,0.7,2.3,1.7c0,1.7-2.5,3.5-4.6,3.5C339.5,15.1,338.5,14.5,338.5,13.4z"/>
</g>
<rect x="354.2" y="15.8" width="0.5" height="16.4"/>
<g>
	<path d="M354.3,15.9c0-1.8,2.5-3.5,4.5-3.5c1.3,0,2.3,0.7,2.3,1.7c0,1.7-2.5,3.5-4.6,3.5C355.3,17.6,354.3,16.9,354.3,15.9z"/>
</g>
<rect x="370.2" y="18.3" width="0.5" height="18.9"/>
<g>
	<path d="M370.3,18.3c0-1.8,2.5-3.5,4.5-3.5c1.3,0,2.3,0.7,2.3,1.7c0,1.7-2.5,3.5-4.6,3.5C371.2,20.1,370.3,19.4,370.3,18.3z"/>
</g>
<rect x="386" y="20.7" width="0.5" height="18"/>
<g>
	<path d="M386.1,20.8c0-1.8,2.5-3.5,4.5-3.5c1.3,0,2.3,0.7,2.3,1.7c0,1.7-2.5,3.5-4.6,3.5C387,22.5,386.1,21.9,386.1,20.8z"/>
</g>
<rect x="401.8" y="23.2" width="0.5" height="17.2"/>
<g>
	<path d="M401.9,23.3c0-1.8,2.5-3.5,4.5-3.5c1.3,0,2.3,0.7,2.3,1.7c0,1.7-2.5,3.5-4.6,3.5C402.9,25,401.9,24.4,401.9,23.3z"/>
</g>
<rect x="417.6" y="25.7" width="0.5" height="16.4"/>
<g>
	<path d="M417.7,25.8c0-1.8,2.5-3.5,4.5-3.5c1.3,0,2.3,0.7,2.3,1.7c0,1.7-2.5,3.5-4.6,3.5C418.7,27.5,417.7,26.9,417.7,25.8z"/>
</g>
<rect x="439.9" y="12.7" width="0.5" height="14"/>
<g>
	<path d="M433.5,28.3c0-1.8,2.5-3.5,4.5-3.5c1.3,0,2.3,0.7,2.3,1.7c0,1.7-2.5,3.5-4.6,3.5C434.5,30,433.5,29.3,433.5,28.3z"/>
</g>
<rect x="455.8" y="14.2" width="0.5" height="14.9"/>
<g>
	<path d="M449.3,30.7c0-1.8,2.5-3.5,4.5-3.5c1.3,0,2.3,0.7,2.3,1.7c0,1.7-2.5,3.5-4.6,3.5C450.3,32.5,449.3,31.8,449.3,30.7z"/>
</g>
<rect x="471.6" y="15.9" width="0.5" height="15.7"/>
<g>
	<path d="M465.1,33.2c0-1.8,2.5-3.5,4.5-3.5c1.3,0,2.3,0.7,2.3,1.7c0,1.7-2.5,3.5-4.6,3.5C466.1,34.9,465.1,34.3,465.1,33.2z"/>
</g>
<rect x="487.4" y="17.6" width="0.5" height="16.4"/>
<g>
	<path d="M480.9,35.7c0-1.8,2.5-3.5,4.5-3.5c1.3,0,2.3,0.7,2.3,1.7c0,1.7-2.5,3.5-4.6,3.5C481.9,37.4,480.9,36.8,480.9,35.7z"/>
</g>
<rect x="503.3" y="20" width="0.5" height="16.6"/>
<g>
	<path d="M501,34.6c1.6,0,2.7,0.7,2.7,2c0,1.9-2.3,3.4-4.5,3.4c-1.3,0-2.4-0.7-2.4-1.8C496.8,36.4,499,34.6,501,34.6z M497.2,38.5
		c0,0.6,0.4,0.9,1.1,0.9c1.4,0,4.9-2.1,4.9-3.3c0-0.6-0.4-0.9-1.1-0.9C500.9,35.2,497.2,37.2,497.2,38.5z"/>
</g>
<rect x="51.9" y="59.3" width="10.5" height="0.8"/>
<rect x="51.9" y="54.3" width="10.5" height="0.8"/>
<rect x="53.6" y="55.5" width="0.5" height="18.9"/>
<g>
	<path d="M53.7,55.5c0-1.8,2.5-3.5,4.5-3.5c1.3,0,2.3,0.7,2.3,1.7c0,1.7-2.5,3.5-4.6,3.5C54.7,57.3,53.7,56.6,53.7,55.5z"/>
</g>
<rect x="67.7" y="59.3" width="10.5" height="0.8"/>
<rect x="69.5" y="57.9" width="0.5" height="18"/>
<g>
	<path d="M69.5,58c0-1.8,2.5-3.5,4.5-3.5c1.3,0,2.3,0.7,2.3,1.7c0,1.7-2.5,3.5-4.6,3.5C70.5,59.7,69.5,59.1,69.5,58z"/>
</g>
<rect x="83.5" y="59.3" width="10.5" height="0.8"/>
<rect x="85.3" y="60.4" width="0.5" height="17.2"/>
<g>
	<path d="M85.3,60.5c0-1.8,2.5-3.5,4.5-3.5c1.3,0,2.3,0.7,2.3,1.7c0,1.7-2.5,3.5-4.6,3.5C86.3,62.2,85.3,61.6,85.3,60.5z"/>
</g>
<rect x="101.1" y="62.9" width="0.5" height="16.4"/>
<g>
	<path d="M101.2,63c0-1.8,2.5-3.5,4.5-3.5c1.3,0,2.3,0.7,2.3,1.7c0,1.7-2.5,3.5-4.6,3.5C102.1,64.7,101.2,64.1,101.2,63z"/>
</g>
<rect x="116.9" y="65.4" width="0.5" height="18.9"/>
<g>
	<path d="M117,65.5c0-1.8,2.5-3.5,4.5-3.5c1.3,0,2.3,0.7,2.3,1.7c0,1.7-2.5,3.5-4.6,3.5C117.9,67.2,117,66.5,117,65.5z"/>
</g>
<rect x="132.7" y="67.9" width="0.5" height="18"/>
<g>
	<path d="M132.8,67.9c0-1.8,2.5-3.5,4.5-3.5c1.3,0,2.3,0.7,2.3,1.7c0,1.7-2.5,3.5-4.6,3.5C133.8,69.7,132.8,69,132.8,67.9z"/>
</g>
<rect x="148.5" y="70.3" width="0.5" height="17.2"/>
<g>
	<path d="M148.6,70.4c0-1.8,2.5-3.5,4.5-3.5c1.3,0,2.3,0.7,2.3,1.7c0,1.7-2.5,3.5-4.6,3.5C149.6,72.1,148.6,71.5,148.6,70.4z"/>
</g>
<rect x="164.5" y="72.8" width="0.5" height="16.4"/>
<g>
	<path d="M164.6,72.9c0-1.8,2.5-3.5,4.5-3.5c1.3,0,2.3,0.7,2.3,1.7c0,1.7-2.5,3.5-4.6,3.5C165.5,74.6,164.6,74,164.6,72.9z"/>
</g>
<rect x="186.8" y="59.8" width="0.5" height="14"/>
<g>
	<path d="M180.4,75.4c0-1.8,2.5-3.5,4.5-3.5c1.3,0,2.3,0.7,2.3,1.7c0,1.7-2.5,3.5-4.6,3.5C181.3,77.1,180.4,76.5,180.4,75.4z"/>
</g>
<rect x="202.6" y="61.3" width="0.5" height="14.9"/>
<g>
	<path d="M196.2,77.9c0-1.8,2.5-3.5,4.5-3.5c1.3,0,2.3,0.7,2.3,1.7c0,1.7-2.5,3.5-4.6,3.5C197.2,79.6,196.2,78.9,196.2,77.9z"/>
</g>
<rect x="218.4" y="63.1" width="0.5" height="15.7"/>
<g>
	<path d="M212,80.3c0-1.8,2.5-3.5,4.5-3.5c1.3,0,2.3,0.7,2.3,1.7c0,1.7-2.5,3.5-4.6,3.5C213,82.1,212,81.4,212,80.3z"/>
</g>
<rect x="234.2" y="64.8" width="0.5" height="16.4"/>
<g>
	<path d="M227.8,82.8c0-1.8,2.5-3.5,4.5-3.5c1.3,0,2.3,0.7,2.3,1.7c0,1.7-2.5,3.5-4.6,3.5C228.8,84.5,227.8,83.9,227.8,82.8z"/>
</g>
<rect x="250.1" y="68.5" width="0.5" height="15.2"/>
<g>
	<path d="M243.6,85.3c0-1.8,2.5-3.5,4.5-3.5c1.3,0,2.3,0.7,2.3,1.7c0,1.7-2.5,3.5-4.6,3.5C244.6,87,243.6,86.4,243.6,85.3z"/>
</g>
<rect x="265.9" y="68.8" width="0.5" height="17.4"/>
<g>
	<path d="M259.4,87.8c0-1.8,2.5-3.5,4.5-3.5c1.3,0,2.3,0.7,2.3,1.7c0,1.7-2.5,3.5-4.6,3.5C260.4,89.5,259.4,88.9,259.4,87.8z"/>
</g>
<rect x="273.4" y="89" width="10.5" height="0.8"/>
<rect x="281.7" y="69.3" width="0.5" height="19.4"/>
<g>
	<path d="M275.2,90.3c0-1.8,2.5-3.5,4.5-3.5c1.3,0,2.3,0.7,2.3,1.7c0,1.7-2.5,3.5-4.6,3.5C276.2,92,275.2,91.3,275.2,90.3z"/>
</g>
<rect x="297.5" y="69.7" width="0.5" height="16.4"/>
<g>
	<path d="M291.1,87.8c0-1.8,2.5-3.5,4.5-3.5c1.3,0,2.3,0.7,2.3,1.7c0,1.7-2.5,3.5-4.6,3.5C292,89.5,291.1,88.9,291.1,87.8z"/>
</g>
<rect x="313.3" y="64.8" width="0.5" height="18.9"/>
<g>
	<path d="M306.9,85.3c0-1.8,2.5-3.5,4.5-3.5c1.3,0,2.3,0.7,2.3,1.7c0,1.7-2.5,3.5-4.6,3.5C307.8,87,306.9,86.4,306.9,85.3z"/>
</g>
<rect x="329.1" y="63.2" width="0.5" height="18"/>
<g>
	<path d="M322.7,82.8c0-1.8,2.5-3.5,4.5-3.5c1.3,0,2.3,0.7,2.3,1.7c0,1.7-2.5,3.5-4.6,3.5C323.6,84.5,322.7,83.9,322.7,82.8z"/>
</g>
<rect x="344.9" y="61.5" width="0.5" height="17.2"/>
<g>
	<path d="M338.5,80.3c0-1.8,2.5-3.5,4.5-3.5c1.3,0,2.3,0.7,2.3,1.7c0,1.7-2.5,3.5-4.6,3.5C339.5,82.1,338.5,81.4,338.5,80.3z"/>
</g>
<rect x="360.7" y="59.8" width="0.5" height="16.4"/>
<g>
	<path d="M354.3,77.9c0-1.8,2.5-3.5,4.5-3.5c1.3,0,2.3,0.7,2.3,1.7c0,1.7-2.5,3.5-4.6,3.5C355.3,79.6,354.3,78.9,354.3,77.9z"/>
</g>
<rect x="370.2" y="75.3" width="0.5" height="14"/>
<g>
	<path d="M370.3,75.4c0-1.8,2.5-3.5,4.5-3.5c1.3,0,2.3,0.7,2.3,1.7c0,1.7-2.5,3.5-4.6,3.5C371.2,77.1,370.3,76.5,370.3,75.4z"/>
</g>
<rect x="386" y="72.8" width="0.5" height="14.9"/>
<g>
	<path d="M386.1,72.9c0-1.8,2.5-3.5,4.5-3.5c1.3,0,2.3,0.7,2.3,1.7c0,1.7-2.5,3.5-4.6,3.5C387,74.6,386.1,74,386.1,72.9z"/>
</g>
<rect x="401.8" y="70.3" width="0.5" height="15.7"/>
<g>
	<path d="M401.9,70.4c0-1.8,2.5-3.5,4.5-3.5c1.3,0,2.3,0.7,2.3,1.7c0,1.7-2.5,3.5-4.6,3.5C402.9,72.1,401.9,71.5,401.9,70.4z"/>
</g>
<rect x="417.6" y="67.9" width="0.5" height="16.4"/>
<g>
	<path d="M417.7,67.9c0-1.8,2.5-3.5,4.5-3.5c1.3,0,2.3,0.7,2.3,1.7c0,1.7-2.5,3.5-4.6,3.5C418.7,69.7,417.7,69,417.7,67.9z"/>
</g>
<rect x="433.4" y="65.4" width="0.5" height="14"/>
<g>
	<path d="M433.5,65.5c0-1.8,2.5-3.5,4.5-3.5c1.3,0,2.3,0.7,2.3,1.7c0,1.7-2.5,3.5-4.6,3.5C434.5,67.2,433.5,66.5,433.5,65.5z"/>
</g>
<rect x="449.2" y="62.9" width="0.5" height="14.9"/>
<g>
	<path d="M449.3,63c0-1.8,2.5-3.5,4.5-3.5c1.3,0,2.3,0.7,2.3,1.7c0,1.7-2.5,3.5-4.6,3.5C450.3,64.7,449.3,64.1,449.3,63z"/>
</g>
<rect x="463.3" y="59.3" width="10.5" height="0.8"/>
<rect x="465.1" y="60.4" width="0.5" height="15.7"/>
<g>
	<path d="M465.1,60.5c0-1.8,2.5-3.5,4.5-3.5c1.3,0,2.3,0.7,2.3,1.7c0,1.7-2.5,3.5-4.6,3.5C466.1,62.2,465.1,61.6,465.1,60.5z"/>
</g>
<rect x="479.1" y="59.3" width="10.5" height="0.8"/>
<rect x="480.9" y="57.9" width="0.5" height="16.4"/>
<g>
	<path d="M480.9,58c0-1.8,2.5-3.5,4.5-3.5c1.3,0,2.3,0.7,2.3,1.7c0,1.7-2.5,3.5-4.6,3.5C481.9,59.7,480.9,59.1,480.9,58z"/>
</g>
<rect x="494.9" y="59.3" width="10.7" height="0.8"/>
<rect x="494.9" y="54.3" width="10.7" height="0.8"/>
<rect x="496.7" y="55.5" width="0.5" height="19.1"/>
<g>
	<path d="M501,52c1.6,0,2.7,0.7,2.7,2c0,1.9-2.3,3.4-4.5,3.4c-1.3,0-2.4-0.7-2.4-1.8C496.8,53.8,499,52,501,52z M497.2,55.8
		c0,0.6,0.4,0.9,1.1,0.9c1.4,0,4.9-2.1,4.9-3.3c0-0.6-0.4-0.9-1.1-0.9C500.9,52.6,497.2,54.6,497.2,55.8z"/>
</g>
</svg>
