<?xml version="1.0" encoding="utf-8"?>

<!--
	ScaleBook
	Copyright (c) Leland Jansen 2015. All rights reserved.
-->

<!DOCTYPE svg PUBLIC "-//W3C//DTD SVG 1.1//EN" "http://www.w3.org/Graphics/SVG/1.1/DTD/svg11.dtd">
<svg version="1.1" id="Layer_1" xmlns="http://www.w3.org/2000/svg" xmlns:xlink="http://www.w3.org/1999/xlink" x="0px" y="0px"
	 viewBox="0 0 552.9 92" enable-background="new 0 0 552.9 92" xml:space="preserve">
<rect x="8.4" y="20" width="0.8" height="67"/>
<g>
	<path d="M7.4,20.6c-1.9,1.1-3.6,5.8-3.6,9.4c0,2.3,1.4,9.9,1.4,12.3c0,5-1.5,8.6-4.6,11.1c3,2.4,4.6,6.1,4.6,11.1
		c0,2.3-1.4,9.9-1.4,12.3c0,3.8,1.7,8.4,3.6,9.5v0.7c-3.5-2.3-5.8-8.2-5.8-13.1c0-2.1,1.7-9.4,1.7-11.5c0-3.8-1-6.6-2.9-8.2
		C0.1,53.8,0,53.6,0,53.4c0-0.2,0.1-0.4,0.5-0.7c1.9-1.7,2.9-4.2,2.9-7.6c0-2.1-1.7-10-1.7-12.2c0-5.2,2.1-10.4,5.8-13.1V20.6z"/>
</g>
<rect x="547.8" y="20" width="0.8" height="67"/>
<rect x="550.4" y="20" width="2.5" height="67"/>
<rect x="8.5" y="39.6" width="544.4" height="0.5"/>
<rect x="8.5" y="34.6" width="544.4" height="0.5"/>
<rect x="8.5" y="29.6" width="544.4" height="0.5"/>
<rect x="8.5" y="24.7" width="544.4" height="0.5"/>
<rect x="8.5" y="19.7" width="544.4" height="0.5"/>
<g>
	<path d="M20.3,39.6c-4.2,0-8.1-3.1-8.1-6.9c0-3.2,2.3-6.7,6.8-10.5c-0.3-1.2-0.4-2.4-0.4-3.6c0-3.5,1.2-6.8,3.2-8.5
		c1.8,2.5,2.7,4.9,2.7,7.1c0,2.9-1.3,5.6-4.3,8.1l0.9,4.2c0.5,0,0.8-0.1,0.8-0.1c2.6,0,4.8,2,4.8,4.7c0,1.9-1.4,3.7-3.6,4.8
		c0-0.1,0.9,3.8,0.9,4.3c0,2.5-2.3,4.2-4.9,4.2c-2,0-3.6-1.3-3.6-3.4c0-1.4,1-2.6,2.4-2.6c1.3,0,2.3,1.3,2.3,2.5
		c0,1.4-1.2,2.3-2.7,2.5c0.6,0.3,1.2,0.5,1.9,0.5c2.1,0,4.1-1.6,4.1-3.6c0-0.2,0-0.4-0.1-0.6l-0.8-3.7
		C21.9,39.5,21.2,39.6,20.3,39.6z M18.1,34.4c0,1,0.5,1.9,1.6,2.5c-1.8-0.3-3-1.4-3-3.1c0-2,1.7-3.7,3.8-4.1l-0.8-4
		C16,28.5,14,31.2,14,33.9c0,2.9,2.8,5.3,6,5.3c0.9,0,1.7-0.2,2.4-0.5L21,31.8C19.4,32,18.1,33.1,18.1,34.4z M22.1,13.1
		c-1.6,0-2.9,3.7-2.9,7c0,0.7,0,1.3,0.2,1.9c2.7-2.4,4-4.5,4-6.5c0-0.9-0.3-1.7-1-2.4C22.4,13.1,22.3,13.1,22.1,13.1z M24.9,35
		c0-1.6-1.2-3.3-2.9-3.3c-0.1,0-0.2,0-0.5,0l1.4,6.6C24.2,37.4,24.9,36.3,24.9,35z"/>
</g>
<g>
	<path d="M29.5,21.6h0.6L30,27.8c0.4-0.7,1-1,1.8-1c1.2,0,2.2,0.8,2.2,1.9c0,0.8-0.5,1.8-1.7,2.7l-2.8,2.1V21.6z M30.1,28.5
		C30,29.2,30,29.9,30,30.4c0,1,0,1.6,0.1,2c1-0.7,2.4-2.6,2.4-3.7c0-0.6-0.5-1.1-1.1-1.1C30.8,27.6,30.4,27.9,30.1,28.5z"/>
</g>
<polygon fill-rule="evenodd" clip-rule="evenodd" points="49.2,26.2 97.7,21.2 97.7,18.7 49.2,23.7 "/>
<polygon fill-rule="evenodd" clip-rule="evenodd" points="49.2,22.4 97.7,17.5 97.7,15 49.2,20 "/>
<polygon fill-rule="evenodd" clip-rule="evenodd" points="107.5,41 156,36.1 156,33.6 107.5,38.6 "/>
<polygon fill-rule="evenodd" clip-rule="evenodd" points="107.5,44.8 156,39.8 156,37.3 107.5,42.3 "/>
<polygon fill-rule="evenodd" clip-rule="evenodd" points="172.2,31.1 220.7,26.2 220.7,23.7 172.2,28.6 "/>
<polygon fill-rule="evenodd" clip-rule="evenodd" points="172.2,34.8 220.7,29.9 220.7,27.4 172.2,32.4 "/>
<polygon fill-rule="evenodd" clip-rule="evenodd" points="237,27.4 285.5,26.2 285.5,23.7 237,24.9 "/>
<polygon fill-rule="evenodd" clip-rule="evenodd" points="237,31.1 285.5,29.9 285.5,27.4 237,28.6 "/>
<polygon fill-rule="evenodd" clip-rule="evenodd" points="301.6,26.2 350.3,27.4 350.3,24.9 301.6,23.7 "/>
<polygon fill-rule="evenodd" clip-rule="evenodd" points="301.6,29.9 350.3,31.1 350.3,28.6 301.6,27.4 "/>
<polygon fill-rule="evenodd" clip-rule="evenodd" points="366.4,31.1 414.9,36.1 414.9,33.6 366.4,28.6 "/>
<polygon fill-rule="evenodd" clip-rule="evenodd" points="366.4,34.8 414.9,39.8 414.9,37.3 366.4,32.4 "/>
<polygon fill-rule="evenodd" clip-rule="evenodd" points="437.5,16.2 486.2,21.2 486.2,18.7 437.5,13.8 "/>
<polygon fill-rule="evenodd" clip-rule="evenodd" points="437.5,12.5 486.2,17.5 486.2,15 437.5,10 "/>
<rect x="8.5" y="86.7" width="544.4" height="0.5"/>
<rect x="8.5" y="81.7" width="544.4" height="0.5"/>
<rect x="8.5" y="76.8" width="544.4" height="0.5"/>
<rect x="8.5" y="71.8" width="544.4" height="0.5"/>
<rect x="8.5" y="66.9" width="544.4" height="0.5"/>
<g>
	<path d="M15.7,81.3c2.9-2.6,4.7-6.1,4.7-9.2c0-2.5-1.4-4.4-3.7-4.4c-1.6,0-3.4,1.3-3.4,2.7c0,0.2,0,0.3,0.1,0.3
		c-0.1,0,0.6-0.6,1.4-0.6c0.9,0,1.5,0.8,1.5,1.7c0,1.2-0.9,2.2-2.1,2.2c-1.2,0-2.1-1.3-2.1-2.8c0-2.3,2.3-4.1,4.8-4.1
		c4.7,0,5.9,3.2,5.9,5.8c0,1.6-0.4,2.9-2,5.3c-1.9,3.1-6.4,5.3-8.1,5.3c-0.4,0-0.6-0.2-0.6-0.5C13.8,82.5,14.9,82,15.7,81.3z
		 M25.7,68.6c0.6,0,1,0.4,1,1c0,0.6-0.4,1-1,1s-1-0.4-1-1C24.7,69,25.1,68.6,25.7,68.6z M25.7,73.5c0.6,0,1,0.4,1,1c0,0.6-0.4,1-1,1
		s-1-0.4-1-1C24.7,73.9,25.1,73.5,25.7,73.5z"/>
</g>
<g>
	<path d="M29.5,73.7h0.6L30,79.9c0.4-0.7,1-1,1.8-1c1.2,0,2.2,0.8,2.2,1.9c0,0.8-0.5,1.8-1.7,2.7l-2.8,2.1V73.7z M30.1,80.6
		C30,81.3,30,82,30,82.5c0,1,0,1.6,0.1,2c1-0.7,2.4-2.6,2.4-3.7c0-0.6-0.5-1.1-1.1-1.1C30.8,79.7,30.4,80,30.1,80.6z"/>
</g>
<polygon fill-rule="evenodd" clip-rule="evenodd" points="42.7,73.3 91.2,74.5 91.2,72 42.7,70.8 "/>
<polygon fill-rule="evenodd" clip-rule="evenodd" points="42.7,77 91.2,78.2 91.2,75.8 42.7,74.5 "/>
<polygon fill-rule="evenodd" clip-rule="evenodd" points="107.5,78.2 156,83.2 156,80.7 107.5,75.8 "/>
<polygon fill-rule="evenodd" clip-rule="evenodd" points="107.5,82 156,86.9 156,84.4 107.5,79.5 "/>
<polygon fill-rule="evenodd" clip-rule="evenodd" points="178.7,63.4 227.2,68.3 227.2,65.8 178.7,60.9 "/>
<polygon fill-rule="evenodd" clip-rule="evenodd" points="178.7,59.6 227.2,64.6 227.2,62.1 178.7,57.2 "/>
<polygon fill-rule="evenodd" clip-rule="evenodd" points="243.5,72 292,73.3 292,70.8 243.5,69.6 "/>
<polygon fill-rule="evenodd" clip-rule="evenodd" points="243.5,68.3 292,69.6 292,67.1 243.5,65.8 "/>
<polygon fill-rule="evenodd" clip-rule="evenodd" points="308.1,73.3 356.8,68.3 356.8,65.8 308.1,70.8 "/>
<polygon fill-rule="evenodd" clip-rule="evenodd" points="308.1,69.6 356.8,64.6 356.8,62.1 308.1,67.1 "/>
<polygon fill-rule="evenodd" clip-rule="evenodd" points="366.4,88.2 414.9,83.2 414.9,80.7 366.4,85.7 "/>
<polygon fill-rule="evenodd" clip-rule="evenodd" points="366.4,91.9 414.9,86.9 414.9,84.4 366.4,89.4 "/>
<polygon fill-rule="evenodd" clip-rule="evenodd" points="431,78.2 479.7,73.3 479.7,70.8 431,75.8 "/>
<polygon fill-rule="evenodd" clip-rule="evenodd" points="431,82 479.7,77 479.7,74.5 431,79.5 "/>
<rect x="49" y="20.1" width="0.5" height="16.4"/>
<g>
	<path d="M42.6,38.2c0-1.8,2.5-3.5,4.5-3.5c1.3,0,2.3,0.7,2.3,1.7c0,1.7-2.5,3.5-4.6,3.5C43.5,39.9,42.6,39.3,42.6,38.2z"/>
</g>
<rect x="65.1" y="18.6" width="0.5" height="15.5"/>
<g>
	<path d="M58.7,35.7c0-1.8,2.5-3.5,4.5-3.5c1.3,0,2.3,0.7,2.3,1.7c0,1.7-2.5,3.5-4.6,3.5C59.7,37.4,58.7,36.8,58.7,35.7z"/>
</g>
<rect x="81.4" y="16.9" width="0.5" height="14.7"/>
<g>
	<path d="M75,33.2c0-1.8,2.5-3.5,4.5-3.5c1.3,0,2.3,0.7,2.3,1.7c0,1.7-2.5,3.5-4.6,3.5C75.9,34.9,75,34.3,75,33.2z"/>
</g>
<rect x="97.5" y="15.2" width="0.5" height="14"/>
<g>
	<path d="M91.1,30.7c0-1.8,2.5-3.5,4.5-3.5c1.3,0,2.3,0.7,2.3,1.7c0,1.7-2.5,3.5-4.6,3.5C92.1,32.5,91.1,31.8,91.1,30.7z"/>
</g>
<rect x="107.3" y="28.2" width="0.5" height="16.4"/>
<g>
	<path d="M107.4,28.3c0-1.8,2.5-3.5,4.5-3.5c1.3,0,2.3,0.7,2.3,1.7c0,1.7-2.5,3.5-4.6,3.5C108.3,30,107.4,29.3,107.4,28.3z"/>
</g>
<rect x="123.4" y="25.7" width="0.5" height="17.4"/>
<g>
	<path d="M123.5,25.8c0-1.8,2.5-3.5,4.5-3.5c1.3,0,2.3,0.7,2.3,1.7c0,1.7-2.5,3.5-4.6,3.5C124.5,27.5,123.5,26.9,123.5,25.8z"/>
</g>
<rect x="139.5" y="23.2" width="0.5" height="18.1"/>
<g>
	<path d="M139.6,23.3c0-1.8,2.5-3.5,4.5-3.5c1.3,0,2.3,0.7,2.3,1.7c0,1.7-2.5,3.5-4.6,3.5C140.6,25,139.6,24.4,139.6,23.3z"/>
</g>
<rect x="155.8" y="20.7" width="0.5" height="18.9"/>
<g>
	<path d="M155.9,20.8c0-1.8,2.5-3.5,4.5-3.5c1.3,0,2.3,0.7,2.3,1.7c0,1.7-2.5,3.5-4.6,3.5C156.9,22.5,155.9,21.9,155.9,20.8z"/>
</g>
<rect x="171.9" y="18.3" width="0.5" height="16.4"/>
<g>
	<path d="M172,18.3c0-1.8,2.5-3.5,4.5-3.5c1.3,0,2.3,0.7,2.3,1.7c0,1.7-2.5,3.5-4.6,3.5C173,20.1,172,19.4,172,18.3z"/>
</g>
<rect x="186.4" y="14.6" width="10.5" height="0.8"/>
<rect x="188.2" y="15.8" width="0.5" height="17.4"/>
<g>
	<path d="M188.3,15.9c0-1.8,2.5-3.5,4.5-3.5c1.3,0,2.3,0.7,2.3,1.7c0,1.7-2.5,3.5-4.6,3.5C189.2,17.6,188.3,16.9,188.3,15.9z"/>
</g>
<rect x="202.5" y="14.6" width="10.5" height="0.8"/>
<rect x="204.3" y="13.3" width="0.5" height="18.1"/>
<g>
	<path d="M204.4,13.4c0-1.8,2.5-3.5,4.5-3.5c1.3,0,2.3,0.7,2.3,1.7c0,1.7-2.5,3.5-4.6,3.5C205.4,15.1,204.4,14.5,204.4,13.4z"/>
</g>
<rect x="218.7" y="14.6" width="10.5" height="0.8"/>
<rect x="218.7" y="9.7" width="10.5" height="0.8"/>
<rect x="220.4" y="10.8" width="0.5" height="18.9"/>
<g>
	<path d="M220.5,10.9c0-1.8,2.5-3.5,4.5-3.5c1.3,0,2.3,0.7,2.3,1.7c0,1.7-2.5,3.5-4.6,3.5C221.5,12.6,220.5,12,220.5,10.9z"/>
</g>
<rect x="234.9" y="14.6" width="10.5" height="0.8"/>
<rect x="234.9" y="9.7" width="10.5" height="0.8"/>
<rect x="236.7" y="8.3" width="0.5" height="22.6"/>
<g>
	<path d="M236.8,8.4c0-1.8,2.5-3.5,4.5-3.5c1.3,0,2.3,0.7,2.3,1.7c0,1.7-2.5,3.5-4.6,3.5C237.8,10.1,236.8,9.5,236.8,8.4z"/>
</g>
<rect x="251.1" y="14.6" width="10.5" height="0.8"/>
<rect x="251.1" y="9.7" width="10.5" height="0.8"/>
<rect x="251.1" y="4.7" width="10.5" height="0.8"/>
<rect x="252.8" y="5.9" width="0.5" height="24.8"/>
<g>
	<path d="M252.9,5.9c0-1.8,2.5-3.5,4.5-3.5c1.3,0,2.3,0.7,2.3,1.7c0,1.7-2.5,3.5-4.6,3.5C253.9,7.7,252.9,7,252.9,5.9z"/>
</g>
<rect x="267.3" y="14.6" width="10.5" height="0.8"/>
<rect x="267.3" y="9.7" width="10.5" height="0.8"/>
<rect x="267.3" y="4.7" width="10.5" height="0.8"/>
<rect x="269.1" y="3.4" width="0.5" height="26.8"/>
<g>
	<path d="M269.2,3.5c0-1.8,2.5-3.5,4.5-3.5c1.3,0,2.3,0.7,2.3,1.7c0,1.7-2.5,3.5-4.6,3.5C270.2,5.2,269.2,4.5,269.2,3.5z"/>
</g>
<rect x="283.5" y="14.6" width="10.5" height="0.8"/>
<rect x="283.5" y="9.7" width="10.5" height="0.8"/>
<rect x="283.5" y="4.7" width="10.5" height="0.8"/>
<rect x="285.2" y="5.9" width="0.5" height="23.9"/>
<g>
	<path d="M285.3,5.9c0-1.8,2.5-3.5,4.5-3.5c1.3,0,2.3,0.7,2.3,1.7c0,1.7-2.5,3.5-4.6,3.5C286.3,7.7,285.3,7,285.3,5.9z"/>
</g>
<rect x="299.6" y="14.6" width="10.5" height="0.8"/>
<rect x="299.6" y="9.7" width="10.5" height="0.8"/>
<rect x="301.4" y="8.3" width="0.5" height="21.4"/>
<g>
	<path d="M301.4,8.4c0-1.8,2.5-3.5,4.5-3.5c1.3,0,2.3,0.7,2.3,1.7c0,1.7-2.5,3.5-4.6,3.5C302.4,10.1,301.4,9.5,301.4,8.4z"/>
</g>
<rect x="315.9" y="14.6" width="10.5" height="0.8"/>
<rect x="315.9" y="9.7" width="10.5" height="0.8"/>
<rect x="317.6" y="10.8" width="0.5" height="19.2"/>
<g>
	<path d="M317.7,10.9c0-1.8,2.5-3.5,4.5-3.5c1.3,0,2.3,0.7,2.3,1.7c0,1.7-2.5,3.5-4.6,3.5C318.7,12.6,317.7,12,317.7,10.9z"/>
</g>
<rect x="332" y="14.6" width="10.5" height="0.8"/>
<rect x="333.8" y="13.3" width="0.5" height="17.2"/>
<g>
	<path d="M333.8,13.4c0-1.8,2.5-3.5,4.5-3.5c1.3,0,2.3,0.7,2.3,1.7c0,1.7-2.5,3.5-4.6,3.5C334.8,15.1,333.8,14.5,333.8,13.4z"/>
</g>
<rect x="348.3" y="14.6" width="10.5" height="0.8"/>
<rect x="350" y="15.8" width="0.5" height="15.2"/>
<g>
	<path d="M350.1,15.9c0-1.8,2.5-3.5,4.5-3.5c1.3,0,2.3,0.7,2.3,1.7c0,1.7-2.5,3.5-4.6,3.5C351.1,17.6,350.1,16.9,350.1,15.9z"/>
</g>
<rect x="366.2" y="18.3" width="0.5" height="16.4"/>
<g>
	<path d="M366.2,18.3c0-1.8,2.5-3.5,4.5-3.5c1.3,0,2.3,0.7,2.3,1.7c0,1.7-2.5,3.5-4.6,3.5C367.2,20.1,366.2,19.4,366.2,18.3z"/>
</g>
<rect x="382.3" y="20.7" width="0.5" height="15.5"/>
<g>
	<path d="M382.4,20.8c0-1.8,2.5-3.5,4.5-3.5c1.3,0,2.3,0.7,2.3,1.7c0,1.7-2.5,3.5-4.6,3.5C383.3,22.5,382.4,21.9,382.4,20.8z"/>
</g>
<rect x="398.6" y="23.2" width="0.5" height="14.7"/>
<g>
	<path d="M398.6,23.3c0-1.8,2.5-3.5,4.5-3.5c1.3,0,2.3,0.7,2.3,1.7c0,1.7-2.5,3.5-4.6,3.5C399.6,25,398.6,24.4,398.6,23.3z"/>
</g>
<rect x="414.7" y="25.7" width="0.5" height="14"/>
<g>
	<path d="M414.8,25.8c0-1.8,2.5-3.5,4.5-3.5c1.3,0,2.3,0.7,2.3,1.7c0,1.7-2.5,3.5-4.6,3.5C415.7,27.5,414.8,26.9,414.8,25.8z"/>
</g>
<rect x="437.3" y="10.2" width="0.5" height="16.4"/>
<g>
	<path d="M430.9,28.3c0-1.8,2.5-3.5,4.5-3.5c1.3,0,2.3,0.7,2.3,1.7c0,1.7-2.5,3.5-4.6,3.5C431.8,30,430.9,29.3,430.9,28.3z"/>
</g>
<rect x="453.6" y="11.7" width="0.5" height="17.4"/>
<g>
	<path d="M447.2,30.7c0-1.8,2.5-3.5,4.5-3.5c1.3,0,2.3,0.7,2.3,1.7c0,1.7-2.5,3.5-4.6,3.5C448.1,32.5,447.2,31.8,447.2,30.7z"/>
</g>
<rect x="469.7" y="13.4" width="0.5" height="18.1"/>
<g>
	<path d="M463.3,33.2c0-1.8,2.5-3.5,4.5-3.5c1.3,0,2.3,0.7,2.3,1.7c0,1.7-2.5,3.5-4.6,3.5C464.2,34.9,463.3,34.3,463.3,33.2z"/>
</g>
<rect x="486" y="15.2" width="0.5" height="18.9"/>
<g>
	<path d="M479.6,35.7c0-1.8,2.5-3.5,4.5-3.5c1.3,0,2.3,0.7,2.3,1.7c0,1.7-2.5,3.5-4.6,3.5C480.5,37.4,479.6,36.8,479.6,35.7z"/>
</g>
<rect x="502.3" y="20" width="0.5" height="16.6"/>
<g>
	<path d="M499.9,34.6c1.6,0,2.7,0.7,2.7,2c0,1.9-2.3,3.4-4.5,3.4c-1.3,0-2.4-0.7-2.4-1.8C495.7,36.4,497.9,34.6,499.9,34.6z
		 M496.1,38.5c0,0.6,0.4,0.9,1.1,0.9c1.4,0,4.9-2.1,4.9-3.3c0-0.6-0.4-0.9-1.1-0.9C499.8,35.2,496.1,37.2,496.1,38.5z"/>
</g>
<rect x="40.7" y="61.7" width="10.5" height="0.8"/>
<rect x="40.7" y="56.8" width="10.5" height="0.8"/>
<rect x="42.5" y="55.5" width="0.5" height="21.4"/>
<g>
	<path d="M42.6,55.5c0-1.8,2.5-3.5,4.5-3.5c1.3,0,2.3,0.7,2.3,1.7c0,1.7-2.5,3.5-4.6,3.5C43.5,57.3,42.6,56.6,42.6,55.5z"/>
</g>
<rect x="56.8" y="61.7" width="10.5" height="0.8"/>
<rect x="56.8" y="56.8" width="10.5" height="0.8"/>
<rect x="58.6" y="57.9" width="0.5" height="19.2"/>
<g>
	<path d="M58.7,58c0-1.8,2.5-3.5,4.5-3.5c1.3,0,2.3,0.7,2.3,1.7c0,1.7-2.5,3.5-4.6,3.5C59.7,59.7,58.7,59.1,58.7,58z"/>
</g>
<rect x="73.1" y="61.7" width="10.5" height="0.8"/>
<rect x="74.9" y="60.4" width="0.5" height="17.2"/>
<g>
	<path d="M75,60.5c0-1.8,2.5-3.5,4.5-3.5c1.3,0,2.3,0.7,2.3,1.7c0,1.7-2.5,3.5-4.6,3.5C75.9,62.2,75,61.6,75,60.5z"/>
</g>
<rect x="89.2" y="61.7" width="10.5" height="0.8"/>
<rect x="91" y="62.9" width="0.5" height="15.2"/>
<g>
	<path d="M91.1,63c0-1.8,2.5-3.5,4.5-3.5c1.3,0,2.3,0.7,2.3,1.7c0,1.7-2.5,3.5-4.6,3.5C92.1,64.7,91.1,64.1,91.1,63z"/>
</g>
<rect x="107.3" y="65.4" width="0.5" height="16.4"/>
<g>
	<path d="M107.4,65.5c0-1.8,2.5-3.5,4.5-3.5c1.3,0,2.3,0.7,2.3,1.7c0,1.7-2.5,3.5-4.6,3.5C108.3,67.2,107.4,66.5,107.4,65.5z"/>
</g>
<rect x="123.4" y="67.9" width="0.5" height="15.5"/>
<g>
	<path d="M123.5,67.9c0-1.8,2.5-3.5,4.5-3.5c1.3,0,2.3,0.7,2.3,1.7c0,1.7-2.5,3.5-4.6,3.5C124.5,69.7,123.5,69,123.5,67.9z"/>
</g>
<rect x="139.5" y="70.3" width="0.5" height="14.7"/>
<g>
	<path d="M139.6,70.4c0-1.8,2.5-3.5,4.5-3.5c1.3,0,2.3,0.7,2.3,1.7c0,1.7-2.5,3.5-4.6,3.5C140.6,72.1,139.6,71.5,139.6,70.4z"/>
</g>
<rect x="155.8" y="72.8" width="0.5" height="14"/>
<g>
	<path d="M155.9,72.9c0-1.8,2.5-3.5,4.5-3.5c1.3,0,2.3,0.7,2.3,1.7c0,1.7-2.5,3.5-4.6,3.5C156.9,74.6,155.9,74,155.9,72.9z"/>
</g>
<rect x="178.4" y="57.3" width="0.5" height="16.4"/>
<g>
	<path d="M172,75.4c0-1.8,2.5-3.5,4.5-3.5c1.3,0,2.3,0.7,2.3,1.7c0,1.7-2.5,3.5-4.6,3.5C173,77.1,172,76.5,172,75.4z"/>
</g>
<rect x="194.7" y="58.9" width="0.5" height="17.4"/>
<g>
	<path d="M188.3,77.9c0-1.8,2.5-3.5,4.5-3.5c1.3,0,2.3,0.7,2.3,1.7c0,1.7-2.5,3.5-4.6,3.5C189.2,79.6,188.3,78.9,188.3,77.9z"/>
</g>
<rect x="210.8" y="60.6" width="0.5" height="18.1"/>
<g>
	<path d="M204.4,80.3c0-1.8,2.5-3.5,4.5-3.5c1.3,0,2.3,0.7,2.3,1.7c0,1.7-2.5,3.5-4.6,3.5C205.4,82.1,204.4,81.4,204.4,80.3z"/>
</g>
<rect x="227" y="62.3" width="0.5" height="18.9"/>
<g>
	<path d="M220.5,82.8c0-1.8,2.5-3.5,4.5-3.5c1.3,0,2.3,0.7,2.3,1.7c0,1.7-2.5,3.5-4.6,3.5C221.5,84.5,220.5,83.9,220.5,82.8z"/>
</g>
<rect x="243.2" y="66" width="0.5" height="17.7"/>
<g>
	<path d="M236.8,85.3c0-1.8,2.5-3.5,4.5-3.5c1.3,0,2.3,0.7,2.3,1.7c0,1.7-2.5,3.5-4.6,3.5C237.8,87,236.8,86.4,236.8,85.3z"/>
</g>
<rect x="259.4" y="66.3" width="0.5" height="19.8"/>
<g>
	<path d="M252.9,87.8c0-1.8,2.5-3.5,4.5-3.5c1.3,0,2.3,0.7,2.3,1.7c0,1.7-2.5,3.5-4.6,3.5C253.9,89.5,252.9,88.9,252.9,87.8z"/>
</g>
<rect x="275.6" y="66.8" width="0.5" height="21.9"/>
<g>
	<path d="M269.2,90.3c0-1.8,2.5-3.5,4.5-3.5c1.3,0,2.3,0.7,2.3,1.7c0,1.7-2.5,3.5-4.6,3.5C270.2,92,269.2,91.3,269.2,90.3z"/>
</g>
<rect x="291.7" y="67.2" width="0.5" height="18.9"/>
<g>
	<path d="M285.3,87.8c0-1.8,2.5-3.5,4.5-3.5c1.3,0,2.3,0.7,2.3,1.7c0,1.7-2.5,3.5-4.6,3.5C286.3,89.5,285.3,88.9,285.3,87.8z"/>
</g>
<rect x="307.9" y="67.2" width="0.5" height="16.4"/>
<g>
	<path d="M301.4,85.3c0-1.8,2.5-3.5,4.5-3.5c1.3,0,2.3,0.7,2.3,1.7c0,1.7-2.5,3.5-4.6,3.5C302.4,87,301.4,86.4,301.4,85.3z"/>
</g>
<rect x="324.1" y="65.7" width="0.5" height="15.5"/>
<g>
	<path d="M317.7,82.8c0-1.8,2.5-3.5,4.5-3.5c1.3,0,2.3,0.7,2.3,1.7c0,1.7-2.5,3.5-4.6,3.5C318.7,84.5,317.7,83.9,317.7,82.8z"/>
</g>
<rect x="340.3" y="64" width="0.5" height="14.7"/>
<g>
	<path d="M333.8,80.3c0-1.8,2.5-3.5,4.5-3.5c1.3,0,2.3,0.7,2.3,1.7c0,1.7-2.5,3.5-4.6,3.5C334.8,82.1,333.8,81.4,333.8,80.3z"/>
</g>
<rect x="356.5" y="62.3" width="0.5" height="14"/>
<g>
	<path d="M350.1,77.9c0-1.8,2.5-3.5,4.5-3.5c1.3,0,2.3,0.7,2.3,1.7c0,1.7-2.5,3.5-4.6,3.5C351.1,79.6,350.1,78.9,350.1,77.9z"/>
</g>
<rect x="366.2" y="75.3" width="0.5" height="16.4"/>
<g>
	<path d="M366.2,75.4c0-1.8,2.5-3.5,4.5-3.5c1.3,0,2.3,0.7,2.3,1.7c0,1.7-2.5,3.5-4.6,3.5C367.2,77.1,366.2,76.5,366.2,75.4z"/>
</g>
<rect x="382.3" y="72.8" width="0.5" height="17.4"/>
<g>
	<path d="M382.4,72.9c0-1.8,2.5-3.5,4.5-3.5c1.3,0,2.3,0.7,2.3,1.7c0,1.7-2.5,3.5-4.6,3.5C383.3,74.6,382.4,74,382.4,72.9z"/>
</g>
<rect x="398.6" y="70.3" width="0.5" height="18.1"/>
<g>
	<path d="M398.6,70.4c0-1.8,2.5-3.5,4.5-3.5c1.3,0,2.3,0.7,2.3,1.7c0,1.7-2.5,3.5-4.6,3.5C399.6,72.1,398.6,71.5,398.6,70.4z"/>
</g>
<rect x="414.7" y="67.9" width="0.5" height="18.9"/>
<g>
	<path d="M414.8,67.9c0-1.8,2.5-3.5,4.5-3.5c1.3,0,2.3,0.7,2.3,1.7c0,1.7-2.5,3.5-4.6,3.5C415.7,69.7,414.8,69,414.8,67.9z"/>
</g>
<rect x="430.8" y="65.4" width="0.5" height="16.4"/>
<g>
	<path d="M430.9,65.5c0-1.8,2.5-3.5,4.5-3.5c1.3,0,2.3,0.7,2.3,1.7c0,1.7-2.5,3.5-4.6,3.5C431.8,67.2,430.9,66.5,430.9,65.5z"/>
</g>
<rect x="445.3" y="61.7" width="10.5" height="0.8"/>
<rect x="447.1" y="62.9" width="0.5" height="17.4"/>
<g>
	<path d="M447.2,63c0-1.8,2.5-3.5,4.5-3.5c1.3,0,2.3,0.7,2.3,1.7c0,1.7-2.5,3.5-4.6,3.5C448.1,64.7,447.2,64.1,447.2,63z"/>
</g>
<rect x="461.4" y="61.7" width="10.5" height="0.8"/>
<rect x="463.2" y="60.4" width="0.5" height="18.1"/>
<g>
	<path d="M463.3,60.5c0-1.8,2.5-3.5,4.5-3.5c1.3,0,2.3,0.7,2.3,1.7c0,1.7-2.5,3.5-4.6,3.5C464.2,62.2,463.3,61.6,463.3,60.5z"/>
</g>
<rect x="477.7" y="61.7" width="10.5" height="0.8"/>
<rect x="477.7" y="56.8" width="10.5" height="0.8"/>
<rect x="479.5" y="57.9" width="0.5" height="18.9"/>
<g>
	<path d="M479.6,58c0-1.8,2.5-3.5,4.5-3.5c1.3,0,2.3,0.7,2.3,1.7c0,1.7-2.5,3.5-4.6,3.5C480.5,59.7,479.6,59.1,479.6,58z"/>
</g>
<rect x="493.8" y="61.7" width="10.7" height="0.8"/>
<rect x="493.8" y="56.8" width="10.7" height="0.8"/>
<rect x="495.6" y="55.5" width="0.5" height="21.5"/>
<g>
	<path d="M499.9,52c1.6,0,2.7,0.7,2.7,2c0,1.9-2.3,3.4-4.5,3.4c-1.3,0-2.4-0.7-2.4-1.8C495.7,53.8,497.9,52,499.9,52z M496.1,55.8
		c0,0.6,0.4,0.9,1.1,0.9c1.4,0,4.9-2.1,4.9-3.3c0-0.6-0.4-0.9-1.1-0.9C499.8,52.6,496.1,54.6,496.1,55.8z"/>
</g>
</svg>
