<?xml version="1.0" encoding="utf-8"?>

<!--
	ScaleBook
	Copyright (c) Leland Jansen 2015. All rights reserved.
-->

<!DOCTYPE svg PUBLIC "-//W3C//DTD SVG 1.1//EN" "http://www.w3.org/Graphics/SVG/1.1/DTD/svg11.dtd">
<svg version="1.1" id="Layer_1" xmlns="http://www.w3.org/2000/svg" xmlns:xlink="http://www.w3.org/1999/xlink" x="0px" y="0px"
	 viewBox="0 0 552.9 96.6" enable-background="new 0 0 552.9 96.6" xml:space="preserve">
<rect x="8.4" y="9.7" width="0.8" height="67"/>
<g>
	<path d="M7.4,10.4c-1.9,1.1-3.6,5.8-3.6,9.4c0,2.3,1.4,9.9,1.4,12.3c0,5-1.5,8.6-4.6,11.1c3,2.4,4.6,6.1,4.6,11.1
		c0,2.3-1.4,9.9-1.4,12.3c0,3.8,1.7,8.4,3.6,9.5v0.7c-3.5-2.3-5.8-8.2-5.8-13.1c0-2.1,1.7-9.4,1.7-11.5c0-3.8-1-6.6-2.9-8.2
		C0.1,43.6,0,43.4,0,43.2c0-0.2,0.1-0.4,0.5-0.7c1.9-1.7,2.9-4.2,2.9-7.6c0-2.1-1.7-10-1.7-12.2c0-5.2,2.1-10.4,5.8-13.1V10.4z"/>
</g>
<rect x="547.8" y="9.7" width="0.8" height="67"/>
<rect x="550.4" y="9.7" width="2.5" height="67"/>
<rect x="8.5" y="29.3" width="544.4" height="0.5"/>
<rect x="8.5" y="24.4" width="544.4" height="0.5"/>
<rect x="8.5" y="19.4" width="544.4" height="0.5"/>
<rect x="8.5" y="14.4" width="544.4" height="0.5"/>
<rect x="8.5" y="9.5" width="544.4" height="0.5"/>
<g>
	<path d="M20.3,29.4c-4.2,0-8.1-3.1-8.1-6.9c0-3.2,2.3-6.7,6.8-10.5c-0.3-1.2-0.4-2.4-0.4-3.6c0-3.5,1.2-6.8,3.2-8.5
		c1.8,2.5,2.7,4.9,2.7,7.1c0,2.9-1.3,5.6-4.3,8.1l0.9,4.2c0.5,0,0.8-0.1,0.8-0.1c2.6,0,4.8,2,4.8,4.7c0,1.9-1.4,3.7-3.6,4.8
		c0-0.1,0.9,3.8,0.9,4.3c0,2.5-2.3,4.2-4.9,4.2c-2,0-3.6-1.3-3.6-3.4c0-1.4,1-2.6,2.4-2.6c1.3,0,2.3,1.3,2.3,2.5
		c0,1.4-1.2,2.3-2.7,2.5c0.6,0.3,1.2,0.5,1.9,0.5c2.1,0,4.1-1.6,4.1-3.6c0-0.2,0-0.4-0.1-0.6l-0.8-3.7
		C21.9,29.3,21.2,29.4,20.3,29.4z M18.1,24.2c0,1,0.5,1.9,1.6,2.5c-1.8-0.3-3-1.4-3-3.1c0-2,1.7-3.7,3.8-4.1l-0.8-4
		C16,18.3,14,21,14,23.6c0,2.9,2.8,5.3,6,5.3c0.9,0,1.7-0.2,2.4-0.5L21,21.6C19.4,21.8,18.1,22.8,18.1,24.2z M22.1,2.8
		c-1.6,0-2.9,3.7-2.9,7c0,0.7,0,1.3,0.2,1.9c2.7-2.4,4-4.5,4-6.5c0-0.9-0.3-1.7-1-2.4C22.4,2.9,22.3,2.8,22.1,2.8z M24.9,24.7
		c0-1.6-1.2-3.3-2.9-3.3c-0.1,0-0.2,0-0.5,0l1.4,6.6C24.2,27.2,24.9,26,24.9,24.7z"/>
</g>
<g>
	<path d="M29.5,11.3h0.6L30,17.6c0.4-0.7,1-1,1.8-1c1.2,0,2.2,0.8,2.2,1.9c0,0.8-0.5,1.8-1.7,2.7l-2.8,2.1V11.3z M30.1,18.2
		C30,19,30,19.6,30,20.2c0,1,0,1.6,0.1,2c1-0.7,2.4-2.6,2.4-3.7c0-0.6-0.5-1.1-1.1-1.1C30.8,17.4,30.4,17.7,30.1,18.2z"/>
</g>
<g>
	<path d="M35.1,3.9h0.6l-0.1,6.2c0.4-0.7,1-1,1.8-1c1.2,0,2.2,0.8,2.2,1.9c0,0.8-0.5,1.8-1.7,2.7l-2.8,2.1V3.9z M35.7,10.8
		c-0.1,0.8-0.1,1.4-0.1,1.9c0,1,0,1.6,0.1,2c1-0.7,2.4-2.6,2.4-3.7c0-0.6-0.5-1.1-1.1-1.1C36.4,10,36,10.2,35.7,10.8z"/>
</g>
<g>
	<path d="M40.7,13.8h0.6l-0.1,6.2c0.4-0.7,1-1,1.8-1c1.2,0,2.2,0.8,2.2,1.9c0,0.8-0.5,1.8-1.7,2.7l-2.8,2.1V13.8z M41.3,20.7
		c-0.1,0.8-0.1,1.4-0.1,1.9c0,1,0,1.6,0.1,2c1-0.7,2.4-2.6,2.4-3.7c0-0.6-0.5-1.1-1.1-1.1C42,19.9,41.6,20.2,41.3,20.7z"/>
</g>
<g>
	<path d="M46.3,6.4h0.6l-0.1,6.2c0.4-0.7,1-1,1.8-1c1.2,0,2.2,0.8,2.2,1.9c0,0.8-0.5,1.8-1.7,2.7l-2.8,2.1V6.4z M46.9,13.3
		c-0.1,0.8-0.1,1.4-0.1,1.9c0,1,0,1.6,0.1,2c1-0.7,2.4-2.6,2.4-3.7c0-0.6-0.5-1.1-1.1-1.1C47.6,12.4,47.2,12.7,46.9,13.3z"/>
</g>
<g>
	<path d="M51.9,16.3h0.6l-0.1,6.2c0.4-0.7,1-1,1.8-1c1.2,0,2.2,0.8,2.2,1.9c0,0.8-0.5,1.8-1.7,2.7l-2.8,2.1V16.3z M52.4,23.2
		c-0.1,0.8-0.1,1.4-0.1,1.9c0,1,0,1.6,0.1,2c1-0.7,2.4-2.6,2.4-3.7c0-0.6-0.5-1.1-1.1-1.1C53.2,22.4,52.7,22.6,52.4,23.2z"/>
</g>
<g>
	<path d="M57.4,8.8h0.6l-0.1,6.2c0.4-0.7,1-1,1.8-1c1.2,0,2.2,0.8,2.2,1.9c0,0.8-0.5,1.8-1.7,2.7l-2.8,2.1V8.8z M58,15.7
		c-0.1,0.8-0.1,1.4-0.1,1.9c0,1,0,1.6,0.1,2c1-0.7,2.4-2.6,2.4-3.7c0-0.6-0.5-1.1-1.1-1.1C58.7,14.9,58.3,15.2,58,15.7z"/>
</g>
<polygon fill-rule="evenodd" clip-rule="evenodd" points="77.1,25.8 123,24.6 123,22.1 77.1,23.4 "/>
<polygon fill-rule="evenodd" clip-rule="evenodd" points="77.1,22.1 123,20.9 123,18.4 77.1,19.6 "/>
<polygon fill-rule="evenodd" clip-rule="evenodd" points="138.2,20.9 184.1,15.9 184.1,13.4 138.2,18.4 "/>
<polygon fill-rule="evenodd" clip-rule="evenodd" points="138.2,17.2 184.1,12.2 184.1,9.7 138.2,14.7 "/>
<polygon fill-rule="evenodd" clip-rule="evenodd" points="192.9,35.8 238.8,30.8 238.8,28.3 192.9,33.3 "/>
<polygon fill-rule="evenodd" clip-rule="evenodd" points="192.9,39.5 238.8,34.5 238.8,32 192.9,37 "/>
<polygon fill-rule="evenodd" clip-rule="evenodd" points="254,27.1 299.9,25.8 299.9,23.4 254,24.6 "/>
<polygon fill-rule="evenodd" clip-rule="evenodd" points="254,30.8 299.9,29.6 299.9,27.1 254,28.3 "/>
<polygon fill-rule="evenodd" clip-rule="evenodd" points="315.2,25.8 361,30.8 361,28.3 315.2,23.4 "/>
<polygon fill-rule="evenodd" clip-rule="evenodd" points="315.2,29.6 361,34.5 361,32 315.2,27.1 "/>
<polygon fill-rule="evenodd" clip-rule="evenodd" points="382.8,11 428.7,15.9 428.7,13.4 382.8,8.5 "/>
<polygon fill-rule="evenodd" clip-rule="evenodd" points="382.8,7.2 428.7,12.2 428.7,9.7 382.8,4.8 "/>
<polygon fill-rule="evenodd" clip-rule="evenodd" points="443.9,20.9 489.8,25.8 489.8,23.4 443.9,18.4 "/>
<polygon fill-rule="evenodd" clip-rule="evenodd" points="443.9,17.2 489.8,22.1 489.8,19.6 443.9,14.7 "/>
<rect x="8.5" y="76.4" width="544.4" height="0.5"/>
<rect x="8.5" y="71.5" width="544.4" height="0.5"/>
<rect x="8.5" y="66.5" width="544.4" height="0.5"/>
<rect x="8.5" y="61.6" width="544.4" height="0.5"/>
<rect x="8.5" y="56.6" width="544.4" height="0.5"/>
<g>
	<path d="M15.7,71c2.9-2.6,4.7-6.1,4.7-9.2c0-2.5-1.4-4.4-3.7-4.4c-1.6,0-3.4,1.3-3.4,2.7c0,0.2,0,0.3,0.1,0.3
		c-0.1,0,0.6-0.6,1.4-0.6c0.9,0,1.5,0.8,1.5,1.7c0,1.2-0.9,2.2-2.1,2.2c-1.2,0-2.1-1.3-2.1-2.8c0-2.3,2.3-4.1,4.8-4.1
		c4.7,0,5.9,3.2,5.9,5.8c0,1.6-0.4,2.9-2,5.3c-1.9,3.1-6.4,5.3-8.1,5.3c-0.4,0-0.6-0.2-0.6-0.5C13.8,72.3,14.9,71.7,15.7,71z
		 M25.7,58.3c0.6,0,1,0.4,1,1c0,0.6-0.4,1-1,1s-1-0.4-1-1C24.7,58.8,25.1,58.3,25.7,58.3z M25.7,63.3c0.6,0,1,0.4,1,1
		c0,0.6-0.4,1-1,1s-1-0.4-1-1C24.7,63.7,25.1,63.3,25.7,63.3z"/>
</g>
<g>
	<path d="M29.5,63.4h0.6L30,69.7c0.4-0.7,1-1,1.8-1c1.2,0,2.2,0.8,2.2,1.9c0,0.8-0.5,1.8-1.7,2.7l-2.8,2.1V63.4z M30.1,70.3
		C30,71.1,30,71.7,30,72.3c0,1,0,1.6,0.1,2c1-0.7,2.4-2.6,2.4-3.7c0-0.6-0.5-1.1-1.1-1.1C30.8,69.5,30.4,69.8,30.1,70.3z"/>
</g>
<g>
	<path d="M35.1,56h0.6l-0.1,6.2c0.4-0.7,1-1,1.8-1c1.2,0,2.2,0.8,2.2,1.9c0,0.8-0.5,1.8-1.7,2.7l-2.8,2.1V56z M35.7,62.9
		c-0.1,0.8-0.1,1.4-0.1,1.9c0,1,0,1.6,0.1,2c1-0.7,2.4-2.6,2.4-3.7c0-0.6-0.5-1.1-1.1-1.1C36.4,62,36,62.3,35.7,62.9z"/>
</g>
<g>
	<path d="M40.7,65.9h0.6l-0.1,6.2c0.4-0.7,1-1,1.8-1c1.2,0,2.2,0.8,2.2,1.9c0,0.8-0.5,1.8-1.7,2.7l-2.8,2.1V65.9z M41.3,72.8
		c-0.1,0.8-0.1,1.4-0.1,1.9c0,1,0,1.6,0.1,2c1-0.7,2.4-2.6,2.4-3.7c0-0.6-0.5-1.1-1.1-1.1C42,72,41.6,72.2,41.3,72.8z"/>
</g>
<g>
	<path d="M46.3,58.4h0.6l-0.1,6.2c0.4-0.7,1-1,1.8-1c1.2,0,2.2,0.8,2.2,1.9c0,0.8-0.5,1.8-1.7,2.7l-2.8,2.1V58.4z M46.9,65.4
		c-0.1,0.8-0.1,1.4-0.1,1.9c0,1,0,1.6,0.1,2c1-0.7,2.4-2.6,2.4-3.7c0-0.6-0.5-1.1-1.1-1.1C47.6,64.5,47.2,64.8,46.9,65.4z"/>
</g>
<g>
	<path d="M51.9,68.4h0.6l-0.1,6.2c0.4-0.7,1-1,1.8-1c1.2,0,2.2,0.8,2.2,1.9c0,0.8-0.5,1.8-1.7,2.7l-2.8,2.1V68.4z M52.4,75.3
		c-0.1,0.8-0.1,1.4-0.1,1.9c0,1,0,1.6,0.1,2c1-0.7,2.4-2.6,2.4-3.7c0-0.6-0.5-1.1-1.1-1.1C53.2,74.4,52.7,74.7,52.4,75.3z"/>
</g>
<g>
	<path d="M57.4,60.9h0.6l-0.1,6.2c0.4-0.7,1-1,1.8-1c1.2,0,2.2,0.8,2.2,1.9c0,0.8-0.5,1.8-1.7,2.7l-2.8,2.1V60.9z M58,67.8
		c-0.1,0.8-0.1,1.4-0.1,1.9c0,1,0,1.6,0.1,2c1-0.7,2.4-2.6,2.4-3.7c0-0.6-0.5-1.1-1.1-1.1C58.7,67,58.3,67.3,58,67.8z"/>
</g>
<polygon fill-rule="evenodd" clip-rule="evenodd" points="70.6,73 116.5,77.9 116.5,75.4 70.6,70.5 "/>
<polygon fill-rule="evenodd" clip-rule="evenodd" points="70.6,76.7 116.5,81.6 116.5,79.2 70.6,74.2 "/>
<polygon fill-rule="evenodd" clip-rule="evenodd" points="138.2,58.1 184.1,63 184.1,60.6 138.2,55.6 "/>
<polygon fill-rule="evenodd" clip-rule="evenodd" points="138.2,54.4 184.1,59.3 184.1,56.8 138.2,51.9 "/>
<polygon fill-rule="evenodd" clip-rule="evenodd" points="199.4,68 245.3,73 245.3,70.5 199.4,65.5 "/>
<polygon fill-rule="evenodd" clip-rule="evenodd" points="199.4,64.3 245.3,69.2 245.3,66.8 199.4,61.8 "/>
<polygon fill-rule="evenodd" clip-rule="evenodd" points="260.5,71.7 306.4,73 306.4,70.5 260.5,69.2 "/>
<polygon fill-rule="evenodd" clip-rule="evenodd" points="260.5,68 306.4,69.2 306.4,66.8 260.5,65.5 "/>
<polygon fill-rule="evenodd" clip-rule="evenodd" points="321.7,73 367.5,71.7 367.5,69.2 321.7,70.5 "/>
<polygon fill-rule="evenodd" clip-rule="evenodd" points="321.7,69.2 367.5,68 367.5,65.5 321.7,66.8 "/>
<polygon fill-rule="evenodd" clip-rule="evenodd" points="382.8,68 428.7,63 428.7,60.6 382.8,65.5 "/>
<polygon fill-rule="evenodd" clip-rule="evenodd" points="382.8,64.3 428.7,59.3 428.7,56.8 382.8,61.8 "/>
<polygon fill-rule="evenodd" clip-rule="evenodd" points="437.4,82.9 483.3,77.9 483.3,75.4 437.4,80.4 "/>
<polygon fill-rule="evenodd" clip-rule="evenodd" points="437.4,86.6 483.3,81.6 483.3,79.2 437.4,84.1 "/>
<rect x="68.6" y="34.1" width="10.5" height="0.8"/>
<rect x="68.6" y="39.1" width="10.5" height="0.8"/>
<rect x="76.9" y="19.8" width="0.5" height="21.4"/>
<g>
	<path d="M70.5,42.8c0-1.8,2.5-3.5,4.5-3.5c1.3,0,2.3,0.7,2.3,1.7c0,1.7-2.5,3.5-4.6,3.5C71.4,44.5,70.5,43.9,70.5,42.8z"/>
</g>
<rect x="84" y="34.1" width="10.5" height="0.8"/>
<rect x="84" y="39.1" width="10.5" height="0.8"/>
<rect x="92.2" y="19.5" width="0.5" height="19.2"/>
<g>
	<path d="M85.8,40.3c0-1.8,2.5-3.5,4.5-3.5c1.3,0,2.3,0.7,2.3,1.7c0,1.7-2.5,3.5-4.6,3.5C86.8,42.1,85.8,41.4,85.8,40.3z"/>
</g>
<rect x="99.1" y="34.1" width="10.5" height="0.8"/>
<rect x="107.4" y="19" width="0.5" height="17.2"/>
<g>
	<path d="M101,37.9c0-1.8,2.5-3.5,4.5-3.5c1.3,0,2.3,0.7,2.3,1.7c0,1.7-2.5,3.5-4.6,3.5C102,39.6,101,38.9,101,37.9z"/>
</g>
<rect x="114.5" y="34.1" width="10.5" height="0.8"/>
<rect x="122.8" y="18.6" width="0.5" height="15.2"/>
<g>
	<path d="M116.4,35.4c0-1.8,2.5-3.5,4.5-3.5c1.3,0,2.3,0.7,2.3,1.7c0,1.7-2.5,3.5-4.6,3.5C117.3,37.1,116.4,36.5,116.4,35.4z"/>
</g>
<rect x="138" y="14.8" width="0.5" height="16.4"/>
<g>
	<path d="M131.5,32.9c0-1.8,2.5-3.5,4.5-3.5c1.3,0,2.3,0.7,2.3,1.7c0,1.7-2.5,3.5-4.6,3.5C132.5,34.6,131.5,34,131.5,32.9z"/>
</g>
<rect x="153.3" y="13.3" width="0.5" height="15.5"/>
<g>
	<path d="M146.9,30.4c0-1.8,2.5-3.5,4.5-3.5c1.3,0,2.3,0.7,2.3,1.7c0,1.7-2.5,3.5-4.6,3.5C147.9,32.1,146.9,31.5,146.9,30.4z"/>
</g>
<rect x="168.7" y="11.6" width="0.5" height="14.7"/>
<g>
	<path d="M162.2,27.9c0-1.8,2.5-3.5,4.5-3.5c1.3,0,2.3,0.7,2.3,1.7c0,1.7-2.5,3.5-4.6,3.5C163.2,29.7,162.2,29,162.2,27.9z"/>
</g>
<rect x="183.9" y="9.9" width="0.5" height="14"/>
<g>
	<path d="M177.4,25.5c0-1.8,2.5-3.5,4.5-3.5c1.3,0,2.3,0.7,2.3,1.7c0,1.7-2.5,3.5-4.6,3.5C178.4,27.2,177.4,26.5,177.4,25.5z"/>
</g>
<rect x="192.7" y="22.9" width="0.5" height="16.4"/>
<g>
	<path d="M192.8,23c0-1.8,2.5-3.5,4.5-3.5c1.3,0,2.3,0.7,2.3,1.7c0,1.7-2.5,3.5-4.6,3.5C193.7,24.7,192.8,24.1,192.8,23z"/>
</g>
<rect x="207.9" y="20.4" width="0.5" height="17.4"/>
<g>
	<path d="M208,20.5c0-1.8,2.5-3.5,4.5-3.5c1.3,0,2.3,0.7,2.3,1.7c0,1.7-2.5,3.5-4.6,3.5C208.9,22.2,208,21.6,208,20.5z"/>
</g>
<rect x="223.2" y="17.9" width="0.5" height="18.1"/>
<g>
	<path d="M223.3,18c0-1.8,2.5-3.5,4.5-3.5c1.3,0,2.3,0.7,2.3,1.7c0,1.7-2.5,3.5-4.6,3.5C224.3,19.7,223.3,19.1,223.3,18z"/>
</g>
<rect x="238.6" y="15.5" width="0.5" height="18.9"/>
<g>
	<path d="M238.7,15.5c0-1.8,2.5-3.5,4.5-3.5c1.3,0,2.3,0.7,2.3,1.7c0,1.7-2.5,3.5-4.6,3.5C239.6,17.3,238.7,16.6,238.7,15.5z"/>
</g>
<rect x="253.8" y="13" width="0.5" height="17.7"/>
<g>
	<path d="M253.8,13c0-1.8,2.5-3.5,4.5-3.5c1.3,0,2.3,0.7,2.3,1.7c0,1.7-2.5,3.5-4.6,3.5C254.8,14.8,253.8,14.1,253.8,13z"/>
</g>
<rect x="269.1" y="10.5" width="0.5" height="19.8"/>
<g>
	<path d="M269.2,10.6c0-1.8,2.5-3.5,4.5-3.5c1.3,0,2.3,0.7,2.3,1.7c0,1.7-2.5,3.5-4.6,3.5C270.2,12.3,269.2,11.7,269.2,10.6z"/>
</g>
<rect x="284.3" y="8" width="0.5" height="21.9"/>
<g>
	<path d="M284.4,8.1c0-1.8,2.5-3.5,4.5-3.5c1.3,0,2.3,0.7,2.3,1.7c0,1.7-2.5,3.5-4.6,3.5C285.4,9.8,284.4,9.2,284.4,8.1z"/>
</g>
<rect x="299.7" y="10.5" width="0.5" height="18.9"/>
<g>
	<path d="M299.7,10.6c0-1.8,2.5-3.5,4.5-3.5c1.3,0,2.3,0.7,2.3,1.7c0,1.7-2.5,3.5-4.6,3.5C300.7,12.3,299.7,11.7,299.7,10.6z"/>
</g>
<rect x="315" y="13" width="0.5" height="16.4"/>
<g>
	<path d="M315.1,13c0-1.8,2.5-3.5,4.5-3.5c1.3,0,2.3,0.7,2.3,1.7c0,1.7-2.5,3.5-4.6,3.5C316.1,14.8,315.1,14.1,315.1,13z"/>
</g>
<rect x="330.2" y="15.5" width="0.5" height="15.5"/>
<g>
	<path d="M330.3,15.5c0-1.8,2.5-3.5,4.5-3.5c1.3,0,2.3,0.7,2.3,1.7c0,1.7-2.5,3.5-4.6,3.5C331.2,17.3,330.3,16.6,330.3,15.5z"/>
</g>
<rect x="345.5" y="17.9" width="0.5" height="14.7"/>
<g>
	<path d="M345.6,18c0-1.8,2.5-3.5,4.5-3.5c1.3,0,2.3,0.7,2.3,1.7c0,1.7-2.5,3.5-4.6,3.5C346.6,19.7,345.6,19.1,345.6,18z"/>
</g>
<rect x="360.7" y="20.4" width="0.5" height="14"/>
<g>
	<path d="M360.8,20.5c0-1.8,2.5-3.5,4.5-3.5c1.3,0,2.3,0.7,2.3,1.7c0,1.7-2.5,3.5-4.6,3.5C361.8,22.2,360.8,21.6,360.8,20.5z"/>
</g>
<rect x="382.6" y="4.9" width="0.5" height="16.4"/>
<g>
	<path d="M376.2,23c0-1.8,2.5-3.5,4.5-3.5c1.3,0,2.3,0.7,2.3,1.7c0,1.7-2.5,3.5-4.6,3.5C377.1,24.7,376.2,24.1,376.2,23z"/>
</g>
<rect x="397.9" y="6.5" width="0.5" height="17.4"/>
<g>
	<path d="M391.5,25.5c0-1.8,2.5-3.5,4.5-3.5c1.3,0,2.3,0.7,2.3,1.7c0,1.7-2.5,3.5-4.6,3.5C392.5,27.2,391.5,26.5,391.5,25.5z"/>
</g>
<rect x="413.1" y="8.2" width="0.5" height="18.1"/>
<g>
	<path d="M406.7,27.9c0-1.8,2.5-3.5,4.5-3.5c1.3,0,2.3,0.7,2.3,1.7c0,1.7-2.5,3.5-4.6,3.5C407.7,29.7,406.7,29,406.7,27.9z"/>
</g>
<rect x="428.5" y="9.9" width="0.5" height="18.9"/>
<g>
	<path d="M422,30.4c0-1.8,2.5-3.5,4.5-3.5c1.3,0,2.3,0.7,2.3,1.7c0,1.7-2.5,3.5-4.6,3.5C423,32.1,422,31.5,422,30.4z"/>
</g>
<rect x="443.7" y="14.8" width="0.5" height="16.4"/>
<g>
	<path d="M437.2,32.9c0-1.8,2.5-3.5,4.5-3.5c1.3,0,2.3,0.7,2.3,1.7c0,1.7-2.5,3.5-4.6,3.5C438.2,34.6,437.2,34,437.2,32.9z"/>
</g>
<rect x="450.7" y="34.1" width="10.5" height="0.8"/>
<rect x="459" y="16.4" width="0.5" height="17.4"/>
<g>
	<path d="M452.6,35.4c0-1.8,2.5-3.5,4.5-3.5c1.3,0,2.3,0.7,2.3,1.7c0,1.7-2.5,3.5-4.6,3.5C453.5,37.1,452.6,36.5,452.6,35.4z"/>
</g>
<rect x="466.1" y="34.1" width="10.5" height="0.8"/>
<rect x="474.4" y="18.1" width="0.5" height="18.1"/>
<g>
	<path d="M467.9,37.9c0-1.8,2.5-3.5,4.5-3.5c1.3,0,2.3,0.7,2.3,1.7c0,1.7-2.5,3.5-4.6,3.5C468.9,39.6,467.9,38.9,467.9,37.9z"/>
</g>
<rect x="481.3" y="34.1" width="10.5" height="0.8"/>
<rect x="481.3" y="39.1" width="10.5" height="0.8"/>
<rect x="489.5" y="19.8" width="0.5" height="18.9"/>
<g>
	<path d="M483.1,40.3c0-1.8,2.5-3.5,4.5-3.5c1.3,0,2.3,0.7,2.3,1.7c0,1.7-2.5,3.5-4.6,3.5C484.1,42.1,483.1,41.4,483.1,40.3z"/>
</g>
<rect x="496.6" y="34.1" width="10.7" height="0.8"/>
<rect x="496.6" y="39.1" width="10.7" height="0.8"/>
<rect x="505.1" y="19.6" width="0.5" height="21.5"/>
<g>
	<path d="M502.7,39.3c1.6,0,2.7,0.7,2.7,2c0,1.9-2.3,3.4-4.5,3.4c-1.3,0-2.4-0.7-2.4-1.8C498.5,41,500.7,39.3,502.7,39.3z
		 M498.9,43.1c0,0.6,0.4,0.9,1.1,0.9c1.4,0,4.9-2.1,4.9-3.3c0-0.6-0.4-0.9-1.1-0.9C502.6,39.9,498.9,41.9,498.9,43.1z"/>
</g>
<rect x="70.4" y="60.1" width="0.5" height="16.4"/>
<g>
	<path d="M70.5,60.2c0-1.8,2.5-3.5,4.5-3.5c1.3,0,2.3,0.7,2.3,1.7c0,1.7-2.5,3.5-4.6,3.5C71.4,61.9,70.5,61.3,70.5,60.2z"/>
</g>
<rect x="85.7" y="62.6" width="0.5" height="15.5"/>
<g>
	<path d="M85.8,62.7c0-1.8,2.5-3.5,4.5-3.5c1.3,0,2.3,0.7,2.3,1.7c0,1.7-2.5,3.5-4.6,3.5C86.8,64.4,85.8,63.7,85.8,62.7z"/>
</g>
<rect x="100.9" y="65.1" width="0.5" height="14.7"/>
<g>
	<path d="M101,65.1c0-1.8,2.5-3.5,4.5-3.5c1.3,0,2.3,0.7,2.3,1.7c0,1.7-2.5,3.5-4.6,3.5C102,66.9,101,66.2,101,65.1z"/>
</g>
<rect x="116.3" y="67.5" width="0.5" height="14"/>
<g>
	<path d="M116.4,67.6c0-1.8,2.5-3.5,4.5-3.5c1.3,0,2.3,0.7,2.3,1.7c0,1.7-2.5,3.5-4.6,3.5C117.3,69.3,116.4,68.7,116.4,67.6z"/>
</g>
<rect x="138" y="52" width="0.5" height="16.4"/>
<g>
	<path d="M131.5,70.1c0-1.8,2.5-3.5,4.5-3.5c1.3,0,2.3,0.7,2.3,1.7c0,1.7-2.5,3.5-4.6,3.5C132.5,71.8,131.5,71.2,131.5,70.1z"/>
</g>
<rect x="153.3" y="53.6" width="0.5" height="17.4"/>
<g>
	<path d="M146.9,72.6c0-1.8,2.5-3.5,4.5-3.5c1.3,0,2.3,0.7,2.3,1.7c0,1.7-2.5,3.5-4.6,3.5C147.9,74.3,146.9,73.7,146.9,72.6z"/>
</g>
<rect x="168.7" y="55.3" width="0.5" height="18.1"/>
<g>
	<path d="M162.2,75.1c0-1.8,2.5-3.5,4.5-3.5c1.3,0,2.3,0.7,2.3,1.7c0,1.7-2.5,3.5-4.6,3.5C163.2,76.8,162.2,76.1,162.2,75.1z"/>
</g>
<rect x="183.9" y="57" width="0.5" height="18.9"/>
<g>
	<path d="M177.4,77.5c0-1.8,2.5-3.5,4.5-3.5c1.3,0,2.3,0.7,2.3,1.7c0,1.7-2.5,3.5-4.6,3.5C178.4,79.3,177.4,78.6,177.4,77.5z"/>
</g>
<rect x="199.2" y="62" width="0.5" height="16.4"/>
<g>
	<path d="M192.8,80c0-1.8,2.5-3.5,4.5-3.5c1.3,0,2.3,0.7,2.3,1.7c0,1.7-2.5,3.5-4.6,3.5C193.7,81.7,192.8,81.1,192.8,80z"/>
</g>
<rect x="206.1" y="81.3" width="10.5" height="0.8"/>
<rect x="214.4" y="63.5" width="0.5" height="17.4"/>
<g>
	<path d="M208,82.5c0-1.8,2.5-3.5,4.5-3.5c1.3,0,2.3,0.7,2.3,1.7c0,1.7-2.5,3.5-4.6,3.5C208.9,84.2,208,83.6,208,82.5z"/>
</g>
<rect x="221.5" y="81.3" width="10.5" height="0.8"/>
<rect x="229.7" y="65.2" width="0.5" height="18.1"/>
<g>
	<path d="M223.3,85c0-1.8,2.5-3.5,4.5-3.5c1.3,0,2.3,0.7,2.3,1.7c0,1.7-2.5,3.5-4.6,3.5C224.3,86.7,223.3,86.1,223.3,85z"/>
</g>
<rect x="236.8" y="81.3" width="10.5" height="0.8"/>
<rect x="236.8" y="86.2" width="10.5" height="0.8"/>
<rect x="245.1" y="66.9" width="0.5" height="18.9"/>
<g>
	<path d="M238.7,87.5c0-1.8,2.5-3.5,4.5-3.5c1.3,0,2.3,0.7,2.3,1.7c0,1.7-2.5,3.5-4.6,3.5C239.6,89.2,238.7,88.5,238.7,87.5z"/>
</g>
<rect x="252" y="81.3" width="10.5" height="0.8"/>
<rect x="252" y="86.2" width="10.5" height="0.8"/>
<rect x="260.3" y="65.7" width="0.5" height="22.6"/>
<g>
	<path d="M253.8,89.9c0-1.8,2.5-3.5,4.5-3.5c1.3,0,2.3,0.7,2.3,1.7c0,1.7-2.5,3.5-4.6,3.5C254.8,91.7,253.8,91,253.8,89.9z"/>
</g>
<rect x="267.3" y="81.3" width="10.5" height="0.8"/>
<rect x="267.3" y="86.2" width="10.5" height="0.8"/>
<rect x="267.3" y="91.2" width="10.5" height="0.8"/>
<rect x="275.6" y="66" width="0.5" height="24.8"/>
<g>
	<path d="M269.2,92.4c0-1.8,2.5-3.5,4.5-3.5c1.3,0,2.3,0.7,2.3,1.7c0,1.7-2.5,3.5-4.6,3.5C270.2,94.1,269.2,93.5,269.2,92.4z"/>
</g>
<rect x="282.5" y="81.3" width="10.5" height="0.8"/>
<rect x="282.5" y="86.2" width="10.5" height="0.8"/>
<rect x="282.5" y="91.2" width="10.5" height="0.8"/>
<rect x="290.8" y="66.4" width="0.5" height="26.8"/>
<g>
	<path d="M284.4,94.9c0-1.8,2.5-3.5,4.5-3.5c1.3,0,2.3,0.7,2.3,1.7c0,1.7-2.5,3.5-4.6,3.5C285.4,96.6,284.4,96,284.4,94.9z"/>
</g>
<rect x="297.9" y="81.3" width="10.5" height="0.8"/>
<rect x="297.9" y="86.2" width="10.5" height="0.8"/>
<rect x="297.9" y="91.2" width="10.5" height="0.8"/>
<rect x="306.2" y="66.9" width="0.5" height="23.9"/>
<g>
	<path d="M299.7,92.4c0-1.8,2.5-3.5,4.5-3.5c1.3,0,2.3,0.7,2.3,1.7c0,1.7-2.5,3.5-4.6,3.5C300.7,94.1,299.7,93.5,299.7,92.4z"/>
</g>
<rect x="313.2" y="81.3" width="10.5" height="0.8"/>
<rect x="313.2" y="86.2" width="10.5" height="0.8"/>
<rect x="321.5" y="66.9" width="0.5" height="21.4"/>
<g>
	<path d="M315.1,89.9c0-1.8,2.5-3.5,4.5-3.5c1.3,0,2.3,0.7,2.3,1.7c0,1.7-2.5,3.5-4.6,3.5C316.1,91.7,315.1,91,315.1,89.9z"/>
</g>
<rect x="328.4" y="81.3" width="10.5" height="0.8"/>
<rect x="328.4" y="86.2" width="10.5" height="0.8"/>
<rect x="336.7" y="66.6" width="0.5" height="19.2"/>
<g>
	<path d="M330.3,87.5c0-1.8,2.5-3.5,4.5-3.5c1.3,0,2.3,0.7,2.3,1.7c0,1.7-2.5,3.5-4.6,3.5C331.2,89.2,330.3,88.5,330.3,87.5z"/>
</g>
<rect x="343.8" y="81.3" width="10.5" height="0.8"/>
<rect x="352.1" y="66.1" width="0.5" height="17.2"/>
<g>
	<path d="M345.6,85c0-1.8,2.5-3.5,4.5-3.5c1.3,0,2.3,0.7,2.3,1.7c0,1.7-2.5,3.5-4.6,3.5C346.6,86.7,345.6,86.1,345.6,85z"/>
</g>
<rect x="358.9" y="81.3" width="10.5" height="0.8"/>
<rect x="367.2" y="65.7" width="0.5" height="15.2"/>
<g>
	<path d="M360.8,82.5c0-1.8,2.5-3.5,4.5-3.5c1.3,0,2.3,0.7,2.3,1.7c0,1.7-2.5,3.5-4.6,3.5C361.8,84.2,360.8,83.6,360.8,82.5z"/>
</g>
<rect x="382.6" y="62" width="0.5" height="16.4"/>
<g>
	<path d="M376.2,80c0-1.8,2.5-3.5,4.5-3.5c1.3,0,2.3,0.7,2.3,1.7c0,1.7-2.5,3.5-4.6,3.5C377.1,81.7,376.2,81.1,376.2,80z"/>
</g>
<rect x="397.9" y="60.4" width="0.5" height="15.5"/>
<g>
	<path d="M391.5,77.5c0-1.8,2.5-3.5,4.5-3.5c1.3,0,2.3,0.7,2.3,1.7c0,1.7-2.5,3.5-4.6,3.5C392.5,79.3,391.5,78.6,391.5,77.5z"/>
</g>
<rect x="413.1" y="58.7" width="0.5" height="14.7"/>
<g>
	<path d="M406.7,75.1c0-1.8,2.5-3.5,4.5-3.5c1.3,0,2.3,0.7,2.3,1.7c0,1.7-2.5,3.5-4.6,3.5C407.7,76.8,406.7,76.1,406.7,75.1z"/>
</g>
<rect x="428.5" y="57" width="0.5" height="14"/>
<g>
	<path d="M422,72.6c0-1.8,2.5-3.5,4.5-3.5c1.3,0,2.3,0.7,2.3,1.7c0,1.7-2.5,3.5-4.6,3.5C423,74.3,422,73.7,422,72.6z"/>
</g>
<rect x="437.2" y="70" width="0.5" height="16.4"/>
<g>
	<path d="M437.2,70.1c0-1.8,2.5-3.5,4.5-3.5c1.3,0,2.3,0.7,2.3,1.7c0,1.7-2.5,3.5-4.6,3.5C438.2,71.8,437.2,71.2,437.2,70.1z"/>
</g>
<rect x="452.5" y="67.5" width="0.5" height="17.4"/>
<g>
	<path d="M452.6,67.6c0-1.8,2.5-3.5,4.5-3.5c1.3,0,2.3,0.7,2.3,1.7c0,1.7-2.5,3.5-4.6,3.5C453.5,69.3,452.6,68.7,452.6,67.6z"/>
</g>
<rect x="467.8" y="65.1" width="0.5" height="18.1"/>
<g>
	<path d="M467.9,65.1c0-1.8,2.5-3.5,4.5-3.5c1.3,0,2.3,0.7,2.3,1.7c0,1.7-2.5,3.5-4.6,3.5C468.9,66.9,467.9,66.2,467.9,65.1z"/>
</g>
<rect x="483" y="62.6" width="0.5" height="18.9"/>
<g>
	<path d="M483.1,62.7c0-1.8,2.5-3.5,4.5-3.5c1.3,0,2.3,0.7,2.3,1.7c0,1.7-2.5,3.5-4.6,3.5C484.1,64.4,483.1,63.7,483.1,62.7z"/>
</g>
<rect x="498.4" y="60.1" width="0.5" height="16.6"/>
<g>
	<path d="M502.7,56.6c1.6,0,2.7,0.7,2.7,2c0,1.9-2.3,3.4-4.5,3.4c-1.3,0-2.4-0.7-2.4-1.8C498.5,58.4,500.7,56.6,502.7,56.6z
		 M498.9,60.5c0,0.6,0.4,0.9,1.1,0.9c1.4,0,4.9-2.1,4.9-3.3c0-0.6-0.4-0.9-1.1-0.9C502.6,57.2,498.9,59.2,498.9,60.5z"/>
</g>
</svg>
