<?xml version="1.0" encoding="utf-8"?>

<!--
	ScaleBook
	Copyright (c) Leland Jansen 2015. All rights reserved.
-->

<!DOCTYPE svg PUBLIC "-//W3C//DTD SVG 1.1//EN" "http://www.w3.org/Graphics/SVG/1.1/DTD/svg11.dtd">
<svg version="1.1" id="Layer_1" xmlns="http://www.w3.org/2000/svg" xmlns:xlink="http://www.w3.org/1999/xlink" x="0px" y="0px"
	 viewBox="0 0 552.9 84.1" enable-background="new 0 0 552.9 84.1" xml:space="preserve">
<rect x="8.4" y="9.7" width="0.8" height="67"/>
<g>
	<path d="M7.4,10.4c-1.9,1.1-3.6,5.8-3.6,9.4c0,2.3,1.4,9.9,1.4,12.3c0,5-1.5,8.6-4.6,11.1c3,2.4,4.6,6.1,4.6,11.1
		c0,2.3-1.4,9.9-1.4,12.3c0,3.8,1.7,8.4,3.6,9.5v0.7c-3.5-2.3-5.8-8.2-5.8-13.1c0-2.1,1.7-9.4,1.7-11.5c0-3.8-1-6.6-2.9-8.2
		C0.1,43.6,0,43.4,0,43.2c0-0.2,0.1-0.4,0.5-0.7c1.9-1.7,2.9-4.2,2.9-7.6c0-2.1-1.7-10-1.7-12.2c0-5.2,2.1-10.4,5.8-13.1V10.4z"/>
</g>
<rect x="547.8" y="9.7" width="0.8" height="67"/>
<rect x="550.4" y="9.7" width="2.5" height="67"/>
<rect x="8.5" y="29.3" width="544.4" height="0.5"/>
<rect x="8.5" y="24.4" width="544.4" height="0.5"/>
<rect x="8.5" y="19.4" width="544.4" height="0.5"/>
<rect x="8.5" y="14.4" width="544.4" height="0.5"/>
<rect x="8.5" y="9.5" width="544.4" height="0.5"/>
<g>
	<path d="M20.3,29.4c-4.2,0-8.1-3.1-8.1-6.9c0-3.2,2.3-6.7,6.8-10.5c-0.3-1.2-0.4-2.4-0.4-3.6c0-3.5,1.2-6.8,3.2-8.5
		c1.8,2.5,2.7,4.9,2.7,7.1c0,2.9-1.3,5.6-4.3,8.1l0.9,4.2c0.5,0,0.8-0.1,0.8-0.1c2.6,0,4.8,2,4.8,4.7c0,1.9-1.4,3.7-3.6,4.8
		c0-0.1,0.9,3.8,0.9,4.3c0,2.5-2.3,4.2-4.9,4.2c-2,0-3.6-1.3-3.6-3.4c0-1.4,1-2.6,2.4-2.6c1.3,0,2.3,1.3,2.3,2.5
		c0,1.4-1.2,2.3-2.7,2.5c0.6,0.3,1.2,0.5,1.9,0.5c2.1,0,4.1-1.6,4.1-3.6c0-0.2,0-0.4-0.1-0.6l-0.8-3.7
		C21.9,29.3,21.2,29.4,20.3,29.4z M18.1,24.2c0,1,0.5,1.9,1.6,2.5c-1.8-0.3-3-1.4-3-3.1c0-2,1.7-3.7,3.8-4.1l-0.8-4
		C16,18.3,14,21,14,23.6c0,2.9,2.8,5.3,6,5.3c0.9,0,1.7-0.2,2.4-0.5L21,21.6C19.4,21.8,18.1,22.8,18.1,24.2z M22.1,2.8
		c-1.6,0-2.9,3.7-2.9,7c0,0.7,0,1.3,0.2,1.9c2.7-2.4,4-4.5,4-6.5c0-0.9-0.3-1.7-1-2.4C22.4,2.9,22.3,2.8,22.1,2.8z M24.9,24.7
		c0-1.6-1.2-3.3-2.9-3.3c-0.1,0-0.2,0-0.5,0l1.4,6.6C24.2,27.2,24.9,26,24.9,24.7z"/>
</g>
<g>
	<path d="M33.5,2.9v2.8l1-0.3v1.8l-1,0.3V11l1-0.3v1.8l-1,0.3v3.1H33v-3l-1.9,0.6v3h-0.5v-2.8l-1,0.3v-1.8l1-0.3V8.4l-1,0.3V7l1-0.3
		V3.5h0.5v3L33,5.9v-3H33.5z M33,7.7l-1.9,0.6v3.4l1.9-0.6V7.7z"/>
</g>
<g>
	<path d="M39.7,10.3v2.8l1-0.3v1.8l-1,0.3v3.4l1-0.3v1.8l-1,0.3v3.1h-0.5v-3L37.3,21v3h-0.5v-2.8l-1,0.3v-1.8l1-0.3v-3.4l-1,0.3
		v-1.8l1-0.3V11h0.5v3l1.9-0.6v-3H39.7z M39.2,15.1l-1.9,0.6v3.4l1.9-0.6V15.1z"/>
</g>
<g>
	<path d="M45.9,0.4v2.8l1-0.3v1.8l-1,0.3v3.4l1-0.3V10l-1,0.3v3.1h-0.5v-3l-1.9,0.6v3H43v-2.8l-1,0.3V9.7l1-0.3V6l-1,0.3V4.5l1-0.3
		V1h0.5v3l1.9-0.6v-3H45.9z M45.4,5.2l-1.9,0.6v3.4l1.9-0.6V5.2z"/>
</g>
<rect x="8.5" y="76.4" width="544.4" height="0.5"/>
<rect x="8.5" y="71.5" width="544.4" height="0.5"/>
<rect x="8.5" y="66.5" width="544.4" height="0.5"/>
<rect x="8.5" y="61.6" width="544.4" height="0.5"/>
<rect x="8.5" y="56.6" width="544.4" height="0.5"/>
<g>
	<path d="M15.7,71c2.9-2.6,4.7-6.1,4.7-9.2c0-2.5-1.4-4.4-3.7-4.4c-1.6,0-3.4,1.3-3.4,2.7c0,0.2,0,0.3,0.1,0.3
		c-0.1,0,0.6-0.6,1.4-0.6c0.9,0,1.5,0.8,1.5,1.7c0,1.2-0.9,2.2-2.1,2.2c-1.2,0-2.1-1.3-2.1-2.8c0-2.3,2.3-4.1,4.8-4.1
		c4.7,0,5.9,3.2,5.9,5.8c0,1.6-0.4,2.9-2,5.3c-1.9,3.1-6.4,5.3-8.1,5.3c-0.4,0-0.6-0.2-0.6-0.5C13.8,72.3,14.9,71.7,15.7,71z
		 M25.7,58.3c0.6,0,1,0.4,1,1c0,0.6-0.4,1-1,1s-1-0.4-1-1C24.7,58.8,25.1,58.3,25.7,58.3z M25.7,63.3c0.6,0,1,0.4,1,1
		c0,0.6-0.4,1-1,1s-1-0.4-1-1C24.7,63.7,25.1,63.3,25.7,63.3z"/>
</g>
<g>
	<path d="M33.5,55v2.8l1-0.3v1.8l-1,0.3V63l1-0.3v1.8l-1,0.3V68H33v-3l-1.9,0.6v3h-0.5v-2.8l-1,0.3v-1.8l1-0.3v-3.4l-1,0.3v-1.8
		l1-0.3v-3.1h0.5v3L33,58v-3H33.5z M33,59.8l-1.9,0.6v3.4l1.9-0.6V59.8z"/>
</g>
<g>
	<path d="M39.7,62.4v2.8l1-0.3v1.8l-1,0.3v3.4l1-0.3V72l-1,0.3v3.1h-0.5v-3l-1.9,0.6v3h-0.5v-2.8l-1,0.3v-1.8l1-0.3V68l-1,0.3v-1.8
		l1-0.3v-3.1h0.5v3l1.9-0.6v-3H39.7z M39.2,67.2l-1.9,0.6v3.4l1.9-0.6V67.2z"/>
</g>
<g>
	<path d="M45.9,52.5v2.8l1-0.3v1.8l-1,0.3v3.4l1-0.3V62l-1,0.3v3.1h-0.5v-3l-1.9,0.6v3H43v-2.8l-1,0.3v-1.8l1-0.3v-3.4l-1,0.3v-1.8
		l1-0.3v-3.1h0.5v3l1.9-0.6v-3H45.9z M45.4,57.3l-1.9,0.6v3.4l1.9-0.6V57.3z"/>
</g>
<rect x="53.7" y="34.1" width="10.5" height="0.8"/>
<rect x="62" y="4.8" width="0.5" height="29"/>
<g>
	<path d="M55.6,35.4c0-1.8,2.5-3.5,4.5-3.5c1.3,0,2.3,0.7,2.3,1.7c0,1.7-2.5,3.5-4.6,3.5C56.6,37.1,55.6,36.5,55.6,35.4z"/>
</g>
<g>
	<path d="M55.6,30.4c0-1.8,2.5-3.5,4.5-3.5c1.3,0,2.3,0.7,2.3,1.7c0,1.7-2.5,3.5-4.6,3.5C56.6,32.1,55.6,31.5,55.6,30.4z"/>
</g>
<g>
	<path d="M55.6,23c0-1.8,2.5-3.5,4.5-3.5c1.3,0,2.3,0.7,2.3,1.7c0,1.7-2.5,3.5-4.6,3.5C56.6,24.7,55.6,24.1,55.6,23z"/>
</g>
<rect x="166.3" y="4.8" width="0.5" height="26.5"/>
<g>
	<path d="M159.9,32.9c0-1.8,2.5-3.5,4.5-3.5c1.3,0,2.3,0.7,2.3,1.7c0,1.7-2.5,3.5-4.6,3.5C160.9,34.6,159.9,34,159.9,32.9z"/>
</g>
<g>
	<path d="M159.9,27.9c0-1.8,2.5-3.5,4.5-3.5c1.3,0,2.3,0.7,2.3,1.7c0,1.7-2.5,3.5-4.6,3.5C160.9,29.7,159.9,29,159.9,27.9z"/>
</g>
<g>
	<path d="M159.9,23c0-1.8,2.5-3.5,4.5-3.5c1.3,0,2.3,0.7,2.3,1.7c0,1.7-2.5,3.5-4.6,3.5C160.9,24.7,159.9,24.1,159.9,23z"/>
</g>
<rect x="262.2" y="34.1" width="10.5" height="0.8"/>
<rect x="270.5" y="7.2" width="0.5" height="29"/>
<g>
	<path d="M264.1,37.9c0-1.8,2.5-3.5,4.5-3.5c1.3,0,2.3,0.7,2.3,1.7c0,1.7-2.5,3.5-4.6,3.5C265.1,39.6,264.1,38.9,264.1,37.9z"/>
</g>
<g>
	<path d="M264.1,30.4c0-1.8,2.5-3.5,4.5-3.5c1.3,0,2.3,0.7,2.3,1.7c0,1.7-2.5,3.5-4.6,3.5C265.1,32.1,264.1,31.5,264.1,30.4z"/>
</g>
<g>
	<path d="M264.1,25.5c0-1.8,2.5-3.5,4.5-3.5c1.3,0,2.3,0.7,2.3,1.7c0,1.7-2.5,3.5-4.6,3.5C265.1,27.2,264.1,26.5,264.1,25.5z"/>
</g>
<rect x="366.5" y="34.1" width="10.7" height="0.8"/>
<rect x="375" y="4.8" width="0.5" height="29"/>
<g>
	<path d="M372.7,31.8c1.6,0,2.7,0.7,2.7,2c0,1.9-2.3,3.4-4.5,3.4c-1.3,0-2.4-0.7-2.4-1.8C368.4,33.6,370.6,31.8,372.7,31.8z
		 M368.9,35.7c0,0.6,0.4,0.9,1.1,0.9c1.4,0,4.9-2.1,4.9-3.3c0-0.6-0.4-0.9-1.1-0.9C372.5,32.4,368.9,34.4,368.9,35.7z"/>
</g>
<g>
	<path d="M372.7,26.9c1.6,0,2.7,0.7,2.7,2c0,1.9-2.3,3.4-4.5,3.4c-1.3,0-2.4-0.7-2.4-1.8C368.4,28.6,370.6,26.9,372.7,26.9z
		 M368.9,30.7c0,0.6,0.4,0.9,1.1,0.9c1.4,0,4.9-2.1,4.9-3.3c0-0.6-0.4-0.9-1.1-0.9C372.5,27.5,368.9,29.5,368.9,30.7z"/>
</g>
<g>
	<path d="M372.7,19.4c1.6,0,2.7,0.7,2.7,2c0,1.9-2.3,3.4-4.5,3.4c-1.3,0-2.4-0.7-2.4-1.8C368.4,21.2,370.6,19.4,372.7,19.4z
		 M368.9,23.3c0,0.6,0.4,0.9,1.1,0.9c1.4,0,4.9-2.1,4.9-3.3c0-0.6-0.4-0.9-1.1-0.9C372.5,20,368.9,22,368.9,23.3z"/>
</g>
<rect x="62" y="56.8" width="0.5" height="16.6"/>
<g>
	<path d="M55.6,75.1c0-1.8,2.5-3.5,4.5-3.5c1.3,0,2.3,0.7,2.3,1.7c0,1.7-2.5,3.5-4.6,3.5C56.6,76.8,55.6,76.1,55.6,75.1z"/>
</g>
<rect x="159.8" y="67.5" width="0.5" height="16.6"/>
<g>
	<path d="M159.9,67.6c0-1.8,2.5-3.5,4.5-3.5c1.3,0,2.3,0.7,2.3,1.7c0,1.7-2.5,3.5-4.6,3.5C160.9,69.3,159.9,68.7,159.9,67.6z"/>
</g>
<rect x="264" y="65.1" width="0.5" height="16.6"/>
<g>
	<path d="M264.1,65.1c0-1.8,2.5-3.5,4.5-3.5c1.3,0,2.3,0.7,2.3,1.7c0,1.7-2.5,3.5-4.6,3.5C265.1,66.9,264.1,66.2,264.1,65.1z"/>
</g>
<rect x="375" y="56.8" width="0.5" height="16.6"/>
<g>
	<path d="M372.7,71.5c1.6,0,2.7,0.7,2.7,2c0,1.9-2.3,3.4-4.5,3.4c-1.3,0-2.4-0.7-2.4-1.8C368.4,73.3,370.6,71.5,372.7,71.5z
		 M368.9,75.4c0,0.6,0.4,0.9,1.1,0.9c1.4,0,4.9-2.1,4.9-3.3c0-0.6-0.4-0.9-1.1-0.9C372.5,72.1,368.9,74.1,368.9,75.4z"/>
</g>
</svg>
