<?xml version="1.0" encoding="utf-8"?>

<!--
	ScaleBook
	Copyright (c) Leland Jansen 2015. All rights reserved.
-->

<!DOCTYPE svg PUBLIC "-//W3C//DTD SVG 1.1//EN" "http://www.w3.org/Graphics/SVG/1.1/DTD/svg11.dtd">
<svg version="1.1" id="Layer_1" xmlns="http://www.w3.org/2000/svg" xmlns:xlink="http://www.w3.org/1999/xlink" x="0px" y="0px"
	 viewBox="0 0 552.9 84.3" enable-background="new 0 0 552.9 84.3" xml:space="preserve">
<rect x="8.4" y="9.9" width="0.8" height="67"/>
<g>
	<path d="M7.4,10.6c-1.9,1.1-3.6,5.8-3.6,9.4c0,2.3,1.4,9.9,1.4,12.3c0,5-1.5,8.6-4.6,11.1c3,2.4,4.6,6.1,4.6,11.1
		c0,2.3-1.4,9.9-1.4,12.3c0,3.8,1.7,8.4,3.6,9.5v0.7c-3.5-2.3-5.8-8.2-5.8-13.1c0-2.1,1.7-9.4,1.7-11.5c0-3.8-1-6.6-2.9-8.2
		C0.1,43.8,0,43.6,0,43.4c0-0.2,0.1-0.4,0.5-0.7c1.9-1.7,2.9-4.2,2.9-7.6c0-2.1-1.7-10-1.7-12.2c0-5.2,2.1-10.4,5.8-13.1V10.6z"/>
</g>
<rect x="547.8" y="9.9" width="0.8" height="67"/>
<rect x="550.4" y="9.9" width="2.5" height="67"/>
<rect x="8.5" y="29.5" width="544.4" height="0.5"/>
<rect x="8.5" y="24.6" width="544.4" height="0.5"/>
<rect x="8.5" y="19.6" width="544.4" height="0.5"/>
<rect x="8.5" y="14.6" width="544.4" height="0.5"/>
<rect x="8.5" y="9.7" width="544.4" height="0.5"/>
<g>
	<path d="M20.3,29.6c-4.2,0-8.1-3.1-8.1-6.9c0-3.2,2.3-6.7,6.8-10.5c-0.3-1.2-0.4-2.4-0.4-3.6c0-3.5,1.2-6.8,3.2-8.5
		c1.8,2.5,2.7,4.9,2.7,7.1c0,2.9-1.3,5.6-4.3,8.1l0.9,4.2c0.5,0,0.8-0.1,0.8-0.1c2.6,0,4.8,2,4.8,4.7c0,1.9-1.4,3.7-3.6,4.8
		c0-0.1,0.9,3.8,0.9,4.3c0,2.5-2.3,4.2-4.9,4.2c-2,0-3.6-1.3-3.6-3.4c0-1.4,1-2.6,2.4-2.6c1.3,0,2.3,1.3,2.3,2.5
		c0,1.4-1.2,2.3-2.7,2.5c0.6,0.3,1.2,0.5,1.9,0.5c2.1,0,4.1-1.6,4.1-3.6c0-0.2,0-0.4-0.1-0.6l-0.8-3.7
		C21.9,29.5,21.2,29.6,20.3,29.6z M18.1,24.4c0,1,0.5,1.9,1.6,2.5c-1.8-0.3-3-1.4-3-3.1c0-2,1.7-3.7,3.8-4.1l-0.8-4
		C16,18.5,14,21.2,14,23.8c0,2.9,2.8,5.3,6,5.3c0.9,0,1.7-0.2,2.4-0.5L21,21.8C19.4,22,18.1,23,18.1,24.4z M22.1,3
		c-1.6,0-2.9,3.7-2.9,7c0,0.7,0,1.3,0.2,1.9c2.7-2.4,4-4.5,4-6.5c0-0.9-0.3-1.7-1-2.4C22.4,3.1,22.3,3,22.1,3z M24.9,24.9
		c0-1.6-1.2-3.3-2.9-3.3c-0.1,0-0.2,0-0.5,0l1.4,6.6C24.2,27.4,24.9,26.2,24.9,24.9z"/>
</g>
<g>
	<path d="M33.5,3.1v2.8l1-0.3v1.8l-1,0.3v3.4l1-0.3v1.8l-1,0.3v3.1H33v-3l-1.9,0.6v3h-0.5v-2.8l-1,0.3v-1.8l1-0.3V8.7l-1,0.3V7.2
		l1-0.3V3.7h0.5v3L33,6.1v-3H33.5z M33,7.9l-1.9,0.6v3.4l1.9-0.6V7.9z"/>
</g>
<g>
	<path d="M39.7,10.5v2.8l1-0.3v1.8l-1,0.3v3.4l1-0.3v1.8l-1,0.3v3.1h-0.5v-3l-1.9,0.6v3h-0.5v-2.8l-1,0.3v-1.8l1-0.3v-3.4l-1,0.3
		v-1.8l1-0.3v-3.1h0.5v3l1.9-0.6v-3H39.7z M39.2,15.3L37.3,16v3.4l1.9-0.6V15.3z"/>
</g>
<rect x="8.5" y="76.7" width="544.4" height="0.5"/>
<rect x="8.5" y="71.7" width="544.4" height="0.5"/>
<rect x="8.5" y="66.7" width="544.4" height="0.5"/>
<rect x="8.5" y="61.8" width="544.4" height="0.5"/>
<rect x="8.5" y="56.8" width="544.4" height="0.5"/>
<g>
	<path d="M15.7,71.2c2.9-2.6,4.7-6.1,4.7-9.2c0-2.5-1.4-4.4-3.7-4.4c-1.6,0-3.4,1.3-3.4,2.7c0,0.2,0,0.3,0.1,0.3
		c-0.1,0,0.6-0.6,1.4-0.6c0.9,0,1.5,0.8,1.5,1.7c0,1.2-0.9,2.2-2.1,2.2c-1.2,0-2.1-1.3-2.1-2.8c0-2.3,2.3-4.1,4.8-4.1
		c4.7,0,5.9,3.2,5.9,5.8c0,1.6-0.4,2.9-2,5.3c-1.9,3.1-6.4,5.3-8.1,5.3c-0.4,0-0.6-0.2-0.6-0.5C13.8,72.5,14.9,71.9,15.7,71.2z
		 M25.7,58.5c0.6,0,1,0.4,1,1c0,0.6-0.4,1-1,1s-1-0.4-1-1C24.7,59,25.1,58.5,25.7,58.5z M25.7,63.5c0.6,0,1,0.4,1,1c0,0.6-0.4,1-1,1
		s-1-0.4-1-1C24.7,63.9,25.1,63.5,25.7,63.5z"/>
</g>
<g>
	<path d="M33.5,55.2V58l1-0.3v1.8l-1,0.3v3.4l1-0.3v1.8l-1,0.3v3.1H33v-3l-1.9,0.6v3h-0.5V66l-1,0.3v-1.8l1-0.3v-3.4l-1,0.3v-1.8
		l1-0.3v-3.1h0.5v3l1.9-0.6v-3H33.5z M33,60l-1.9,0.6V64l1.9-0.6V60z"/>
</g>
<g>
	<path d="M39.7,62.6v2.8l1-0.3v1.8l-1,0.3v3.4l1-0.3v1.8l-1,0.3v3.1h-0.5v-3l-1.9,0.6v3h-0.5v-2.8l-1,0.3v-1.8l1-0.3v-3.4l-1,0.3
		v-1.8l1-0.3v-3.1h0.5v3l1.9-0.6v-3H39.7z M39.2,67.4L37.3,68v3.4l1.9-0.6V67.4z"/>
</g>
<rect x="55.8" width="0.5" height="26.5"/>
<g>
	<path d="M49.4,28.1c0-1.8,2.5-3.5,4.5-3.5c1.3,0,2.3,0.7,2.3,1.7c0,1.7-2.5,3.5-4.6,3.5C50.4,29.9,49.4,29.2,49.4,28.1z"/>
</g>
<g>
	<path d="M49.4,23.2c0-1.8,2.5-3.5,4.5-3.5c1.3,0,2.3,0.7,2.3,1.7c0,1.7-2.5,3.5-4.6,3.5C50.4,24.9,49.4,24.3,49.4,23.2z"/>
</g>
<g>
	<path d="M49.4,15.7c0-1.8,2.5-3.5,4.5-3.5c1.3,0,2.3,0.7,2.3,1.7c0,1.7-2.5,3.5-4.6,3.5C50.4,17.5,49.4,16.8,49.4,15.7z"/>
</g>
<rect x="154.9" y="15.7" width="0.5" height="24"/>
<g>
	<path d="M154.9,15.7c0-1.8,2.5-3.5,4.5-3.5c1.3,0,2.3,0.7,2.3,1.7c0,1.7-2.5,3.5-4.6,3.5C155.9,17.5,154.9,16.8,154.9,15.7z"/>
</g>
<g>
	<path d="M154.9,20.7c0-1.8,2.5-3.5,4.5-3.5c1.3,0,2.3,0.7,2.3,1.7c0,1.7-2.5,3.5-4.6,3.5C155.9,22.4,154.9,21.8,154.9,20.7z"/>
</g>
<g>
	<path d="M154.9,25.7c0-1.8,2.5-3.5,4.5-3.5c1.3,0,2.3,0.7,2.3,1.7c0,1.7-2.5,3.5-4.6,3.5C155.9,27.4,154.9,26.7,154.9,25.7z"/>
</g>
<rect x="266.9" y="1.2" width="0.5" height="27.7"/>
<g>
	<path d="M260.5,30.6c0-1.8,2.5-3.5,4.5-3.5c1.3,0,2.3,0.7,2.3,1.7c0,1.7-2.5,3.5-4.6,3.5C261.5,32.3,260.5,31.7,260.5,30.6z"/>
</g>
<g>
	<path d="M260.5,23.2c0-1.8,2.5-3.5,4.5-3.5c1.3,0,2.3,0.7,2.3,1.7c0,1.7-2.5,3.5-4.6,3.5C261.5,24.9,260.5,24.3,260.5,23.2z"/>
</g>
<g>
	<path d="M260.5,18.2c0-1.8,2.5-3.5,4.5-3.5c1.3,0,2.3,0.7,2.3,1.7c0,1.7-2.5,3.5-4.6,3.5C261.5,19.9,260.5,19.3,260.5,18.2z"/>
</g>
<rect x="372.7" width="0.5" height="26.5"/>
<g>
	<path d="M370.3,24.6c1.6,0,2.7,0.7,2.7,2c0,1.9-2.3,3.4-4.5,3.4c-1.3,0-2.4-0.7-2.4-1.8C366.1,26.4,368.3,24.6,370.3,24.6z
		 M366.5,28.4c0,0.6,0.4,0.9,1.1,0.9c1.4,0,4.9-2.1,4.9-3.3c0-0.6-0.4-0.9-1.1-0.9C370.2,25.2,366.5,27.2,366.5,28.4z"/>
</g>
<g>
	<path d="M370.3,19.6c1.6,0,2.7,0.7,2.7,2c0,1.9-2.3,3.4-4.5,3.4c-1.3,0-2.4-0.7-2.4-1.8C366.1,21.4,368.3,19.6,370.3,19.6z
		 M366.5,23.5c0,0.6,0.4,0.9,1.1,0.9c1.4,0,4.9-2.1,4.9-3.3c0-0.6-0.4-0.9-1.1-0.9C370.2,20.2,366.5,22.2,366.5,23.5z"/>
</g>
<g>
	<path d="M370.3,12.2c1.6,0,2.7,0.7,2.7,2c0,1.9-2.3,3.4-4.5,3.4c-1.3,0-2.4-0.7-2.4-1.8C366.1,14,368.3,12.2,370.3,12.2z M366.5,16
		c0,0.6,0.4,0.9,1.1,0.9c1.4,0,4.9-2.1,4.9-3.3c0-0.6-0.4-0.9-1.1-0.9C370.2,12.8,366.5,14.8,366.5,16z"/>
</g>
<rect x="49.3" y="67.7" width="0.5" height="16.6"/>
<g>
	<path d="M49.4,67.8c0-1.8,2.5-3.5,4.5-3.5c1.3,0,2.3,0.7,2.3,1.7c0,1.7-2.5,3.5-4.6,3.5C50.4,69.5,49.4,68.9,49.4,67.8z"/>
</g>
<rect x="154.9" y="60.3" width="0.5" height="16.6"/>
<g>
	<path d="M154.9,60.4c0-1.8,2.5-3.5,4.5-3.5c1.3,0,2.3,0.7,2.3,1.7c0,1.7-2.5,3.5-4.6,3.5C155.9,62.1,154.9,61.5,154.9,60.4z"/>
</g>
<rect x="260.4" y="57.8" width="0.5" height="16.6"/>
<g>
	<path d="M260.5,57.9c0-1.8,2.5-3.5,4.5-3.5c1.3,0,2.3,0.7,2.3,1.7c0,1.7-2.5,3.5-4.6,3.5C261.5,59.6,260.5,59,260.5,57.9z"/>
</g>
<rect x="366" y="67.7" width="0.5" height="16.6"/>
<g>
	<path d="M370.3,64.3c1.6,0,2.7,0.7,2.7,2c0,1.9-2.3,3.4-4.5,3.4c-1.3,0-2.4-0.7-2.4-1.8C366.1,66.1,368.3,64.3,370.3,64.3z
		 M366.5,68.1c0,0.6,0.4,0.9,1.1,0.9c1.4,0,4.9-2.1,4.9-3.3c0-0.6-0.4-0.9-1.1-0.9C370.2,64.9,366.5,66.9,366.5,68.1z"/>
</g>
</svg>
