<?xml version="1.0" encoding="utf-8"?>

<!--
	ScaleBook
	Copyright (c) Leland Jansen 2015. All rights reserved.
-->

<!DOCTYPE svg PUBLIC "-//W3C//DTD SVG 1.1//EN" "http://www.w3.org/Graphics/SVG/1.1/DTD/svg11.dtd">
<svg version="1.1" id="Layer_1" xmlns="http://www.w3.org/2000/svg" xmlns:xlink="http://www.w3.org/1999/xlink" x="0px" y="0px"
	 viewBox="0 0 553 202.3" enable-background="new 0 0 553 202.3" xml:space="preserve">
<rect x="8.4" y="12.5" width="0.8" height="67"/>
<g>
	<path d="M7.4,13.2c-1.9,1.1-3.6,5.8-3.6,9.4c0,2.3,1.4,9.9,1.4,12.3c0,5-1.5,8.6-4.6,11.1c3,2.4,4.6,6.1,4.6,11.1
		c0,2.3-1.4,9.9-1.4,12.3c0,3.8,1.7,8.4,3.6,9.5v0.7c-3.5-2.3-5.8-8.2-5.8-13.1c0-2.1,1.7-9.4,1.7-11.5c0-3.8-1-6.6-2.9-8.2
		C0.1,46.4,0,46.2,0,46c0-0.2,0.1-0.4,0.5-0.7c1.9-1.7,2.9-4.2,2.9-7.6c0-2.1-1.7-10-1.7-12.2c0-5.2,2.1-10.4,5.8-13.1V13.2z"/>
</g>
<rect x="8.4" y="125.4" width="0.8" height="67"/>
<g>
	<path d="M7.4,126c-1.9,1.1-3.6,5.8-3.6,9.4c0,2.3,1.4,9.9,1.4,12.3c0,5-1.5,8.6-4.6,11.1c3,2.4,4.6,6.1,4.6,11.1
		c0,2.3-1.4,9.9-1.4,12.3c0,3.8,1.7,8.4,3.6,9.5v0.7c-3.5-2.3-5.8-8.2-5.8-13.1c0-2.1,1.7-9.4,1.7-11.5c0-3.8-1-6.6-2.9-8.2
		C0.1,159.2,0,159,0,158.8c0-0.2,0.1-0.4,0.5-0.7c1.9-1.7,2.9-4.2,2.9-7.6c0-2.1-1.7-10-1.7-12.2c0-5.2,2.1-10.4,5.8-13.1V126z"/>
</g>
<rect x="296.6" y="12.5" width="0.8" height="67"/>
<rect x="299.2" y="12.5" width="0.8" height="67"/>
<rect x="549.5" y="12.5" width="0.8" height="67"/>
<rect x="552.2" y="12.5" width="0.8" height="67"/>
<rect x="295.5" y="125.4" width="0.8" height="67"/>
<rect x="298.1" y="125.4" width="0.8" height="67"/>
<rect x="547.8" y="125.4" width="0.8" height="67"/>
<rect x="550.4" y="125.4" width="2.5" height="67"/>
<rect x="8.5" y="32.1" width="544.4" height="0.5"/>
<rect x="8.5" y="27.2" width="544.4" height="0.5"/>
<rect x="8.5" y="22.2" width="544.4" height="0.5"/>
<rect x="8.5" y="17.2" width="544.4" height="0.5"/>
<rect x="8.5" y="12.3" width="544.4" height="0.5"/>
<g>
	<path d="M20.3,32.2c-4.2,0-8.1-3.1-8.1-6.9c0-3.2,2.3-6.7,6.8-10.5c-0.3-1.2-0.4-2.4-0.4-3.6c0-3.5,1.2-6.8,3.2-8.5
		c1.8,2.5,2.7,4.9,2.7,7.1c0,2.9-1.3,5.6-4.3,8.1l0.9,4.2c0.5,0,0.8-0.1,0.8-0.1c2.6,0,4.8,2,4.8,4.7c0,1.9-1.4,3.7-3.6,4.8
		c0-0.1,0.9,3.8,0.9,4.3c0,2.5-2.3,4.2-4.9,4.2c-2,0-3.6-1.3-3.6-3.4c0-1.4,1-2.6,2.4-2.6c1.3,0,2.3,1.3,2.3,2.5
		c0,1.4-1.2,2.3-2.7,2.5c0.6,0.3,1.2,0.5,1.9,0.5c2.1,0,4.1-1.6,4.1-3.6c0-0.2,0-0.4-0.1-0.6l-0.8-3.7
		C21.9,32.1,21.2,32.2,20.3,32.2z M18.1,27c0,1,0.5,1.9,1.6,2.5c-1.8-0.3-3-1.4-3-3.1c0-2,1.7-3.7,3.8-4.1l-0.8-4
		C16,21.1,14,23.8,14,26.4c0,2.9,2.8,5.3,6,5.3c0.9,0,1.7-0.2,2.4-0.5L21,24.4C19.4,24.6,18.1,25.6,18.1,27z M22.1,5.6
		c-1.6,0-2.9,3.7-2.9,7c0,0.7,0,1.3,0.2,1.9c2.7-2.4,4-4.5,4-6.5c0-0.9-0.3-1.7-1-2.4C22.4,5.7,22.3,5.6,22.1,5.6z M24.9,27.5
		c0-1.6-1.2-3.3-2.9-3.3c-0.1,0-0.2,0-0.5,0l1.4,6.6C24.2,30,24.9,28.8,24.9,27.5z"/>
</g>
<g>
	<path d="M33.5,5.7v2.8l1-0.3V10l-1,0.3v3.4l1-0.3v1.8l-1,0.3v3.1H33v-3l-1.9,0.6v3h-0.5v-2.8l-1,0.3V15l1-0.3v-3.4l-1,0.3V9.8
		l1-0.3V6.3h0.5v3L33,8.7v-3H33.5z M33,10.5l-1.9,0.6v3.4l1.9-0.6V10.5z"/>
</g>
<g>
	<path d="M39.7,13.1V16l1-0.3v1.8l-1,0.3v3.4l1-0.3v1.8l-1,0.3v3.1h-0.5v-3l-1.9,0.6v3h-0.5v-2.8l-1,0.3v-1.8l1-0.3v-3.4l-1,0.3
		v-1.8l1-0.3v-3.1h0.5v3l1.9-0.6v-3H39.7z M39.2,17.9l-1.9,0.6V22l1.9-0.6V17.9z"/>
</g>
<polygon fill-rule="evenodd" clip-rule="evenodd" points="57.8,23.7 90,18.7 90,16.2 57.8,21.2 "/>
<polygon fill-rule="evenodd" clip-rule="evenodd" points="57.8,20 90,15 90,12.5 57.8,17.5 "/>
<polygon fill-rule="evenodd" clip-rule="evenodd" points="115.4,34.8 147.7,29.9 147.7,27.4 115.4,32.4 "/>
<polygon fill-rule="evenodd" clip-rule="evenodd" points="115.4,38.6 147.7,33.6 147.7,31.1 115.4,36.1 "/>
<polygon fill-rule="evenodd" clip-rule="evenodd" points="163.2,28.6 193.9,33.6 193.9,31.1 163.2,26.2 "/>
<polygon fill-rule="evenodd" clip-rule="evenodd" points="163.2,32.4 193.9,37.3 193.9,34.8 163.2,29.9 "/>
<polygon fill-rule="evenodd" clip-rule="evenodd" points="226.7,13.8 257.4,18.7 257.4,16.2 226.7,11.3 "/>
<polygon fill-rule="evenodd" clip-rule="evenodd" points="226.7,10 257.4,15 257.4,12.5 226.7,7.6 "/>
<polygon fill-rule="evenodd" clip-rule="evenodd" points="314,18.7 348.7,13.8 348.7,11.3 314,16.2 "/>
<polygon fill-rule="evenodd" clip-rule="evenodd" points="314,15 348.7,10 348.7,7.6 314,12.5 "/>
<polygon fill-rule="evenodd" clip-rule="evenodd" points="368.6,33.6 404.5,28.6 404.5,26.2 368.6,31.1 "/>
<polygon fill-rule="evenodd" clip-rule="evenodd" points="368.6,37.3 404.5,32.4 404.5,29.9 368.6,34.8 "/>
<polygon fill-rule="evenodd" clip-rule="evenodd" points="416.3,23.7 448.5,28.6 448.5,26.2 416.3,21.2 "/>
<polygon fill-rule="evenodd" clip-rule="evenodd" points="416.3,27.4 448.5,32.4 448.5,29.9 416.3,24.9 "/>
<polygon fill-rule="evenodd" clip-rule="evenodd" points="481.4,12.5 512.1,17.5 512.1,15 481.4,10 "/>
<polygon fill-rule="evenodd" clip-rule="evenodd" points="481.4,8.8 512.1,13.8 512.1,11.3 481.4,6.3 "/>
<rect x="8.5" y="79.3" width="544.4" height="0.5"/>
<rect x="8.5" y="74.3" width="544.4" height="0.5"/>
<rect x="8.5" y="69.3" width="544.4" height="0.5"/>
<rect x="8.5" y="64.4" width="544.4" height="0.5"/>
<rect x="8.5" y="59.4" width="544.4" height="0.5"/>
<g>
	<path d="M15.7,73.8c2.9-2.6,4.7-6.1,4.7-9.2c0-2.5-1.4-4.4-3.7-4.4c-1.6,0-3.4,1.3-3.4,2.7c0,0.2,0,0.3,0.1,0.3
		c-0.1,0,0.6-0.6,1.4-0.6c0.9,0,1.5,0.8,1.5,1.7c0,1.2-0.9,2.2-2.1,2.2c-1.2,0-2.1-1.3-2.1-2.8c0-2.3,2.3-4.1,4.8-4.1
		c4.7,0,5.9,3.2,5.9,5.8c0,1.6-0.4,2.9-2,5.3C19.1,73.8,14.6,76,13,76c-0.4,0-0.6-0.2-0.6-0.5C13.8,75.1,14.9,74.5,15.7,73.8z
		 M25.7,61.1c0.6,0,1,0.4,1,1c0,0.6-0.4,1-1,1s-1-0.4-1-1C24.7,61.6,25.1,61.1,25.7,61.1z M25.7,66.1c0.6,0,1,0.4,1,1
		c0,0.6-0.4,1-1,1s-1-0.4-1-1C24.7,66.5,25.1,66.1,25.7,66.1z"/>
</g>
<g>
	<path d="M33.5,57.8v2.8l1-0.3v1.8l-1,0.3v3.4l1-0.3v1.8l-1,0.3v3.1H33v-3l-1.9,0.6v3h-0.5v-2.8l-1,0.3v-1.8l1-0.3v-3.4l-1,0.3v-1.8
		l1-0.3v-3.1h0.5v3l1.9-0.6v-3H33.5z M33,62.6l-1.9,0.6v3.4L33,66V62.6z"/>
</g>
<g>
	<path d="M39.7,65.2v2.8l1-0.3v1.8l-1,0.3v3.4l1-0.3v1.8l-1,0.3v3.1h-0.5v-3l-1.9,0.6v3h-0.5V76l-1,0.3v-1.8l1-0.3v-3.4l-1,0.3v-1.8
		l1-0.3v-3.1h0.5v3l1.9-0.6v-3H39.7z M39.2,70l-1.9,0.6v3.4l1.9-0.6V70z"/>
</g>
<g>
	<path d="M101.8,78.1c-3.2,0-6.1-2.3-6.1-5.1c0-2.4,1.7-5,5.1-7.9c-0.2-0.9-0.3-1.8-0.3-2.7c0-2.6,0.9-5.1,2.4-6.3
		c1.4,1.9,2,3.7,2,5.3c0,2.2-1,4.2-3.2,6.1l0.7,3.1c0.4,0,0.6,0,0.6,0c2,0,3.6,1.5,3.6,3.5c0,1.4-1.1,2.8-2.7,3.6
		c0-0.1,0.6,2.8,0.6,3.3c0,1.9-1.7,3.2-3.7,3.2c-1.5,0-2.7-1-2.7-2.5c0-1.1,0.7-1.9,1.8-1.9c1,0,1.7,1,1.7,1.9c0,1-0.9,1.7-2,1.8
		c0.4,0.2,0.9,0.3,1.4,0.3c1.6,0,3.1-1.2,3.1-2.7c0-0.1,0-0.3,0-0.5l-0.6-2.8C103,78,102.5,78.1,101.8,78.1z M100.2,74.2
		c0,0.8,0.4,1.4,1.2,1.9c-1.3-0.2-2.2-1.1-2.2-2.3c0-1.5,1.3-2.8,2.9-3.1l-0.6-3c-2.8,2.1-4.3,4.1-4.3,6.1c0,2.2,2.1,4,4.5,4
		c0.7,0,1.3-0.1,1.8-0.4l-1.1-5.1C101.1,72.4,100.2,73.2,100.2,74.2z M103.2,58.2c-1.2,0-2.2,2.8-2.2,5.3c0,0.5,0,1,0.1,1.4
		c2-1.8,3-3.4,3-4.9c0-0.7-0.3-1.3-0.7-1.8C103.4,58.2,103.3,58.2,103.2,58.2z M105.3,74.6c0-1.2-0.9-2.4-2.2-2.4c0,0-0.2,0-0.4,0
		l1.1,5C104.7,76.5,105.3,75.6,105.3,74.6z"/>
</g>
<polygon fill-rule="evenodd" clip-rule="evenodd" points="51.2,86.9 83.5,82 83.5,79.5 51.2,84.4 "/>
<polygon fill-rule="evenodd" clip-rule="evenodd" points="51.2,90.6 83.5,85.7 83.5,83.2 51.2,88.2 "/>
<polygon fill-rule="evenodd" clip-rule="evenodd" points="121.9,70.8 154.2,65.8 154.2,63.4 121.9,68.3 "/>
<polygon fill-rule="evenodd" clip-rule="evenodd" points="121.9,67.1 154.2,62.1 154.2,59.6 121.9,64.6 "/>
<g>
	<path d="M210.6,71.5c2.2-2,3.6-4.6,3.6-6.9c0-1.9-1.1-3.3-2.8-3.3c-1.2,0-2.5,1-2.5,2.1c0,0.2,0,0.2,0.1,0.2c0,0,0.4-0.5,1-0.5
		c0.7,0,1.2,0.6,1.2,1.3c0,0.9-0.6,1.7-1.6,1.7c-0.9,0-1.5-1-1.5-2.1c0-1.8,1.7-3.1,3.6-3.1c3.5,0,4.4,2.4,4.4,4.4
		c0,1.2-0.3,2.2-1.5,4c-1.4,2.3-4.8,4-6,4c-0.3,0-0.5-0.1-0.5-0.3C209.2,72.5,210,72,210.6,71.5z M218.1,62c0.4,0,0.7,0.3,0.7,0.7
		c0,0.4-0.3,0.7-0.7,0.7s-0.7-0.3-0.7-0.7C217.3,62.3,217.7,62,218.1,62z M218.1,65.7c0.4,0,0.7,0.3,0.7,0.7s-0.3,0.7-0.7,0.7
		s-0.7-0.3-0.7-0.7S217.7,65.7,218.1,65.7z"/>
</g>
<polygon fill-rule="evenodd" clip-rule="evenodd" points="169.7,60.9 200.4,65.8 200.4,63.4 169.7,58.4 "/>
<polygon fill-rule="evenodd" clip-rule="evenodd" points="169.7,57.2 200.4,62.1 200.4,59.6 169.7,54.7 "/>
<polygon fill-rule="evenodd" clip-rule="evenodd" points="220.2,77 250.9,82 250.9,79.5 220.2,74.5 "/>
<polygon fill-rule="evenodd" clip-rule="evenodd" points="220.2,80.7 250.9,85.7 250.9,83.2 220.2,78.2 "/>
<g>
	<path d="M360.5,78.1c-3.2,0-6.1-2.3-6.1-5.1c0-2.4,1.7-5,5.1-7.9c-0.2-0.9-0.3-1.8-0.3-2.7c0-2.6,0.9-5.1,2.4-6.3
		c1.4,1.9,2,3.7,2,5.3c0,2.2-1,4.2-3.2,6.1l0.7,3.1c0.4,0,0.6,0,0.6,0c2,0,3.6,1.5,3.6,3.5c0,1.4-1.1,2.8-2.7,3.6
		c0-0.1,0.6,2.8,0.6,3.3c0,1.9-1.7,3.2-3.7,3.2c-1.5,0-2.7-1-2.7-2.5c0-1.1,0.7-1.9,1.8-1.9c1,0,1.7,1,1.7,1.9c0,1-0.9,1.7-2,1.8
		c0.4,0.2,0.9,0.3,1.4,0.3c1.6,0,3.1-1.2,3.1-2.7c0-0.1,0-0.3,0-0.5l-0.6-2.8C361.8,78,361.2,78.1,360.5,78.1z M358.9,74.2
		c0,0.8,0.4,1.4,1.2,1.9c-1.3-0.2-2.2-1.1-2.2-2.3c0-1.5,1.3-2.8,2.9-3.1l-0.6-3c-2.8,2.1-4.3,4.1-4.3,6.1c0,2.2,2.1,4,4.5,4
		c0.7,0,1.3-0.1,1.8-0.4l-1.1-5.1C359.8,72.4,358.9,73.2,358.9,74.2z M361.9,58.2c-1.2,0-2.2,2.8-2.2,5.3c0,0.5,0,1,0.1,1.4
		c2-1.8,3-3.4,3-4.9c0-0.7-0.3-1.3-0.7-1.8C362.1,58.2,362,58.2,361.9,58.2z M364,74.6c0-1.2-0.9-2.4-2.2-2.4c0,0-0.2,0-0.4,0l1.1,5
		C363.5,76.5,364,75.6,364,74.6z"/>
</g>
<polygon fill-rule="evenodd" clip-rule="evenodd" points="307.5,82 342.2,77 342.2,74.5 307.5,79.5 "/>
<polygon fill-rule="evenodd" clip-rule="evenodd" points="307.5,85.7 342.2,80.7 342.2,78.2 307.5,83.2 "/>
<polygon fill-rule="evenodd" clip-rule="evenodd" points="375.1,65.8 411,60.9 411,58.4 375.1,63.4 "/>
<polygon fill-rule="evenodd" clip-rule="evenodd" points="375.1,62.1 411,57.2 411,54.7 375.1,59.6 "/>
<g>
	<path d="M463.4,71.5c2.2-2,3.6-4.6,3.6-6.9c0-1.9-1.1-3.3-2.8-3.3c-1.2,0-2.5,1-2.5,2.1c0,0.2,0,0.2,0.1,0.2c0,0,0.4-0.5,1-0.5
		c0.7,0,1.2,0.6,1.2,1.3c0,0.9-0.6,1.7-1.6,1.7s-1.5-1-1.5-2.1c0-1.8,1.7-3.1,3.6-3.1c3.5,0,4.4,2.4,4.4,4.4c0,1.2-0.3,2.2-1.5,4
		c-1.4,2.3-4.8,4-6,4c-0.3,0-0.5-0.1-0.5-0.3C462,72.5,462.9,72,463.4,71.5z M470.9,62c0.4,0,0.7,0.3,0.7,0.7c0,0.4-0.3,0.7-0.7,0.7
		c-0.4,0-0.7-0.3-0.7-0.7C470.2,62.3,470.5,62,470.9,62z M470.9,65.7c0.4,0,0.7,0.3,0.7,0.7s-0.3,0.7-0.7,0.7
		c-0.4,0-0.7-0.3-0.7-0.7S470.5,65.7,470.9,65.7z"/>
</g>
<polygon fill-rule="evenodd" clip-rule="evenodd" points="422.8,59.6 455.1,64.6 455.1,62.1 422.8,57.2 "/>
<polygon fill-rule="evenodd" clip-rule="evenodd" points="422.8,55.9 455.1,60.9 455.1,58.4 422.8,53.4 "/>
<polygon fill-rule="evenodd" clip-rule="evenodd" points="474.9,75.8 505.6,80.7 505.6,78.2 474.9,73.3 "/>
<polygon fill-rule="evenodd" clip-rule="evenodd" points="474.9,79.5 505.6,84.4 505.6,82 474.9,77 "/>
<rect x="8.5" y="145" width="544.4" height="0.5"/>
<rect x="8.5" y="140" width="544.4" height="0.5"/>
<rect x="8.5" y="135.1" width="544.4" height="0.5"/>
<rect x="8.5" y="130.1" width="544.4" height="0.5"/>
<rect x="8.5" y="125.1" width="544.4" height="0.5"/>
<g>
	<path d="M20.3,145c-4.2,0-8.1-3.1-8.1-6.9c0-3.2,2.3-6.7,6.8-10.5c-0.3-1.2-0.4-2.4-0.4-3.6c0-3.5,1.2-6.8,3.2-8.5
		c1.8,2.5,2.7,4.9,2.7,7.1c0,2.9-1.3,5.6-4.3,8.1L21,135c0.5,0,0.8-0.1,0.8-0.1c2.6,0,4.8,2,4.8,4.7c0,1.9-1.4,3.7-3.6,4.8
		c0-0.1,0.9,3.8,0.9,4.3c0,2.5-2.3,4.2-4.9,4.2c-2,0-3.6-1.3-3.6-3.4c0-1.4,1-2.6,2.4-2.6c1.3,0,2.3,1.3,2.3,2.5
		c0,1.4-1.2,2.3-2.7,2.5c0.6,0.3,1.2,0.5,1.9,0.5c2.1,0,4.1-1.6,4.1-3.6c0-0.2,0-0.4-0.1-0.6l-0.8-3.7C21.9,144.9,21.2,145,20.3,145
		z M18.1,139.8c0,1,0.5,1.9,1.6,2.5c-1.8-0.3-3-1.4-3-3.1c0-2,1.7-3.7,3.8-4.1l-0.8-4c-3.7,2.8-5.7,5.5-5.7,8.1c0,2.9,2.8,5.3,6,5.3
		c0.9,0,1.7-0.2,2.4-0.5l-1.4-6.8C19.4,137.4,18.1,138.5,18.1,139.8z M22.1,118.5c-1.6,0-2.9,3.7-2.9,7c0,0.7,0,1.3,0.2,1.9
		c2.7-2.4,4-4.5,4-6.5c0-0.9-0.3-1.7-1-2.4C22.4,118.5,22.3,118.5,22.1,118.5z M24.9,140.4c0-1.6-1.2-3.3-2.9-3.3
		c-0.1,0-0.2,0-0.5,0l1.4,6.6C24.2,142.8,24.9,141.7,24.9,140.4z"/>
</g>
<g>
	<path d="M33.5,118.5v2.8l1-0.3v1.8l-1,0.3v3.4l1-0.3v1.8l-1,0.3v3.1H33v-3l-1.9,0.6v3h-0.5v-2.8l-1,0.3v-1.8l1-0.3v-3.4l-1,0.3
		v-1.8l1-0.3v-3.1h0.5v3l1.9-0.6v-3H33.5z M33,123.3l-1.9,0.6v3.4l1.9-0.6V123.3z"/>
</g>
<g>
	<path d="M39.7,126v2.8l1-0.3v1.8l-1,0.3v3.4l1-0.3v1.8l-1,0.3v3.1h-0.5v-3l-1.9,0.6v3h-0.5v-2.8l-1,0.3v-1.8l1-0.3v-3.4l-1,0.3
		v-1.8l1-0.3v-3.1h0.5v3l1.9-0.6v-3H39.7z M39.2,130.8l-1.9,0.6v3.4l1.9-0.6V130.8z"/>
</g>
<polygon fill-rule="evenodd" clip-rule="evenodd" points="56,130.3 90.6,125.4 90.6,122.9 56,127.8 "/>
<polygon fill-rule="evenodd" clip-rule="evenodd" points="56,126.6 90.6,121.6 90.6,119.2 56,124.1 "/>
<polygon fill-rule="evenodd" clip-rule="evenodd" points="110.5,141.5 147.8,136.5 147.8,134 110.5,139 "/>
<polygon fill-rule="evenodd" clip-rule="evenodd" points="110.5,145.2 147.8,140.2 147.8,137.8 110.5,142.7 "/>
<polygon fill-rule="evenodd" clip-rule="evenodd" points="159.6,131.6 193.4,136.5 193.4,134 159.6,129.1 "/>
<polygon fill-rule="evenodd" clip-rule="evenodd" points="159.6,135.3 193.4,140.2 193.4,137.8 159.6,132.8 "/>
<polygon fill-rule="evenodd" clip-rule="evenodd" points="219.7,146.4 251.8,151.4 251.8,148.9 219.7,144 "/>
<polygon fill-rule="evenodd" clip-rule="evenodd" points="219.7,150.2 251.8,155.1 251.8,152.6 219.7,147.7 "/>
<polygon fill-rule="evenodd" clip-rule="evenodd" points="306.4,151.4 342.7,146.4 342.7,144 306.4,148.9 "/>
<polygon fill-rule="evenodd" clip-rule="evenodd" points="306.4,155.1 342.7,150.2 342.7,147.7 306.4,152.6 "/>
<polygon fill-rule="evenodd" clip-rule="evenodd" points="369,151.4 403.4,146.4 403.4,144 369,148.9 "/>
<polygon fill-rule="evenodd" clip-rule="evenodd" points="369,155.1 403.4,150.2 403.4,147.7 369,152.6 "/>
<g>
	<path d="M372.8,108.2c0-0.2,0.6-1.9,0.6-2.4c0-0.1,0-0.2-0.1-0.2c-0.1,0-0.3,0.2-0.6,0.4l-0.2-0.2c0.6-0.4,0.9-0.7,1.1-0.7
		c0.3,0,0.4,0.2,0.4,0.5c0,0.5-0.7,2.1-0.7,2.6c0,0.1,0.1,0.2,0.2,0.2c0.7,0,1.7-1.6,1.7-2.2V106c-0.1-0.1-0.4-0.3-0.4-0.6
		c0-0.2,0.1-0.3,0.4-0.3c0.3,0,0.5,0.3,0.5,0.8c0,1-1.2,2.8-2.1,2.8C373,108.8,372.8,108.6,372.8,108.2z M377.7,108.5
		c0,0,0.1-0.3,0.2-0.8c-0.6,0.7-1,1-1.4,1c-0.5,0-0.8-0.3-0.8-0.9c0-1.2,1-2.6,2.1-2.6c0.2,0,0.4,0.1,0.7,0.2l0.1-0.2l0.4,0
		c-0.5,2-0.7,3-0.7,3.1v0v0c0,0,0.3-0.2,0.7-0.5l0.1,0.2c-0.5,0.5-0.8,0.7-1,0.7C377.7,108.7,377.7,108.7,377.7,108.5z M376.2,107.9
		c0,0.3,0.1,0.4,0.2,0.4c0.5,0,1.5-0.9,1.6-1.3l0.3-1.1c-0.2-0.2-0.4-0.3-0.6-0.3C377,105.6,376.2,107,376.2,107.9z"/>
</g>
<g>
	<path d="M372.3,106.5c0,0.8-0.5,1.4-1.6,1.9c0.5,0.7,0.8,1.3,0.8,1.8c0,1.3-1,1.9-2.9,1.9c-1.4,0-2.6-0.8-2.6-2c0-0.9,0.7-1.5,2-2
		c-0.4-0.6-0.7-1.1-0.7-1.6c0-1.1,1.1-1.9,2.5-1.9C371,104.6,372.3,105.4,372.3,106.5z M366.9,110.2c0,0.8,0.9,1.4,1.7,1.4
		c0.8,0,1.4-0.3,1.4-0.9c0-0.7-0.2-0.9-1.7-2.4C367.4,108.9,366.9,109.5,366.9,110.2z M368.8,105.9c0,0.7,0.2,0.9,1.5,2.2
		c0.7-0.4,1-1,1-1.7c0-0.7-0.7-1.4-1.4-1.4C369.4,105,368.8,105.4,368.8,105.9z"/>
</g>
<rect x="455.6" y="105.2" width="0.8" height="7.8"/>
<path d="M456,105.9h-0.2v-0.8h0.2V105.9z M453.4,105.9h-2.9v-0.8h2.9V105.9z M447.9,105.9H445v-0.8h2.9V105.9z M442.5,105.9h-2.9
	v-0.8h2.9V105.9z M437.1,105.9h-2.9v-0.8h2.9V105.9z M431.6,105.9h-2.9v-0.8h2.9V105.9z M426.2,105.9h-2.9v-0.8h2.9V105.9z
	 M420.8,105.9h-2.9v-0.8h2.9V105.9z M415.4,105.9h-2.9v-0.8h2.9V105.9z M409.9,105.9H407v-0.8h2.9V105.9z M404.5,105.9h-2.9v-0.8
	h2.9V105.9z M399.1,105.9h-2.9v-0.8h2.9V105.9z M393.7,105.9h-2.9v-0.8h2.9V105.9z M388.2,105.9h-2.9v-0.8h2.9V105.9z M382.8,105.9
	h-2.9v-0.8h2.9V105.9z"/>
<polygon fill-rule="evenodd" clip-rule="evenodd" points="413.7,142.7 444.1,147.7 444.1,145.2 413.7,140.2 "/>
<polygon fill-rule="evenodd" clip-rule="evenodd" points="413.7,146.4 444.1,151.4 444.1,148.9 413.7,144 "/>
<polygon fill-rule="evenodd" clip-rule="evenodd" points="470.4,142.7 504.2,147.7 504.2,145.2 470.4,140.2 "/>
<polygon fill-rule="evenodd" clip-rule="evenodd" points="470.4,146.4 504.2,151.4 504.2,148.9 470.4,144 "/>
<rect x="8.5" y="192.1" width="544.4" height="0.5"/>
<rect x="8.5" y="187.1" width="544.4" height="0.5"/>
<rect x="8.5" y="182.2" width="544.4" height="0.5"/>
<rect x="8.5" y="177.2" width="544.4" height="0.5"/>
<rect x="8.5" y="172.3" width="544.4" height="0.5"/>
<g>
	<path d="M15.7,186.7c2.9-2.6,4.7-6.1,4.7-9.2c0-2.5-1.4-4.4-3.7-4.4c-1.6,0-3.4,1.3-3.4,2.7c0,0.2,0,0.3,0.1,0.3
		c-0.1,0,0.6-0.6,1.4-0.6c0.9,0,1.5,0.8,1.5,1.7c0,1.2-0.9,2.2-2.1,2.2c-1.2,0-2.1-1.3-2.1-2.8c0-2.3,2.3-4.1,4.8-4.1
		c4.7,0,5.9,3.2,5.9,5.8c0,1.6-0.4,2.9-2,5.3c-1.9,3.1-6.4,5.3-8.1,5.3c-0.4,0-0.6-0.2-0.6-0.5C13.8,187.9,14.9,187.4,15.7,186.7z
		 M25.7,174c0.6,0,1,0.4,1,1c0,0.6-0.4,1-1,1s-1-0.4-1-1C24.7,174.4,25.1,174,25.7,174z M25.7,178.9c0.6,0,1,0.4,1,1
		c0,0.6-0.4,1-1,1s-1-0.4-1-1C24.7,179.4,25.1,178.9,25.7,178.9z"/>
</g>
<g>
	<path d="M33.5,170.6v2.8l1-0.3v1.8l-1,0.3v3.4l1-0.3v1.8l-1,0.3v3.1H33v-3l-1.9,0.6v3h-0.5v-2.8l-1,0.3v-1.8l1-0.3v-3.4l-1,0.3
		v-1.8l1-0.3v-3.1h0.5v3l1.9-0.6v-3H33.5z M33,175.4l-1.9,0.6v3.4l1.9-0.6V175.4z"/>
</g>
<g>
	<path d="M39.7,178.1v2.8l1-0.3v1.8l-1,0.3v3.4l1-0.3v1.8l-1,0.3v3.1h-0.5v-3l-1.9,0.6v3h-0.5v-2.8l-1,0.3v-1.8l1-0.3v-3.4l-1,0.3
		v-1.8l1-0.3v-3.1h0.5v3l1.9-0.6v-3H39.7z M39.2,182.8l-1.9,0.6v3.4l1.9-0.6V182.8z"/>
</g>
<g>
	<path d="M104.3,191c-3.2,0-6.1-2.3-6.1-5.1c0-2.4,1.7-5,5.1-7.9c-0.2-0.9-0.3-1.8-0.3-2.7c0-2.6,0.9-5.1,2.4-6.3
		c1.4,1.9,2,3.7,2,5.3c0,2.2-1,4.2-3.2,6.1l0.7,3.1c0.4,0,0.6,0,0.6,0c2,0,3.6,1.5,3.6,3.5c0,1.4-1.1,2.8-2.7,3.6
		c0-0.1,0.6,2.8,0.6,3.3c0,1.9-1.7,3.2-3.7,3.2c-1.5,0-2.7-1-2.7-2.5c0-1.1,0.7-1.9,1.8-1.9c1,0,1.7,1,1.7,1.9c0,1-0.9,1.7-2,1.8
		c0.4,0.2,0.9,0.3,1.4,0.3c1.6,0,3.1-1.2,3.1-2.7c0-0.1,0-0.3,0-0.5l-0.6-2.8C105.5,190.9,105,191,104.3,191z M102.6,187.1
		c0,0.8,0.4,1.4,1.2,1.9c-1.3-0.2-2.2-1.1-2.2-2.3c0-1.5,1.3-2.8,2.9-3.1l-0.6-3c-2.8,2.1-4.3,4.1-4.3,6.1c0,2.2,2.1,4,4.5,4
		c0.7,0,1.3-0.1,1.8-0.4l-1.1-5.1C103.6,185.3,102.6,186,102.6,187.1z M105.7,171c-1.2,0-2.2,2.8-2.2,5.3c0,0.5,0,1,0.1,1.4
		c2-1.8,3-3.4,3-4.9c0-0.7-0.3-1.3-0.7-1.8C105.9,171.1,105.8,171,105.7,171z M107.7,187.5c0-1.2-0.9-2.4-2.2-2.4c0,0-0.2,0-0.4,0
		l1.1,5C107.2,189.3,107.7,188.4,107.7,187.5z"/>
</g>
<polygon fill-rule="evenodd" clip-rule="evenodd" points="49.5,193.6 84.1,188.6 84.1,186.1 49.5,191.1 "/>
<polygon fill-rule="evenodd" clip-rule="evenodd" points="49.5,197.3 84.1,192.3 84.1,189.8 49.5,194.8 "/>
<polygon fill-rule="evenodd" clip-rule="evenodd" points="117,177.4 154.3,172.5 154.3,170 117,175 "/>
<polygon fill-rule="evenodd" clip-rule="evenodd" points="117,173.7 154.3,168.8 154.3,166.3 117,171.2 "/>
<g>
	<path d="M208.3,184.4c2.2-2,3.6-4.6,3.6-6.9c0-1.9-1.1-3.3-2.8-3.3c-1.2,0-2.5,1-2.5,2.1c0,0.2,0,0.2,0.1,0.2c0,0,0.4-0.5,1-0.5
		c0.7,0,1.2,0.6,1.2,1.3c0,0.9-0.6,1.7-1.6,1.7c-0.9,0-1.5-1-1.5-2.1c0-1.8,1.7-3.1,3.6-3.1c3.5,0,4.4,2.4,4.4,4.4
		c0,1.2-0.3,2.2-1.5,4c-1.4,2.3-4.8,4-6,4c-0.3,0-0.5-0.1-0.5-0.3C206.9,185.3,207.7,184.9,208.3,184.4z M215.8,174.8
		c0.4,0,0.7,0.3,0.7,0.7c0,0.4-0.3,0.7-0.7,0.7s-0.7-0.3-0.7-0.7C215,175.2,215.3,174.8,215.8,174.8z M215.8,178.5
		c0.4,0,0.7,0.3,0.7,0.7s-0.3,0.7-0.7,0.7s-0.7-0.3-0.7-0.7S215.3,178.5,215.8,178.5z"/>
</g>
<polygon fill-rule="evenodd" clip-rule="evenodd" points="159.6,193.6 193.4,198.5 193.4,196 159.6,191.1 "/>
<polygon fill-rule="evenodd" clip-rule="evenodd" points="159.6,197.3 193.4,202.3 193.4,199.8 159.6,194.8 "/>
<polygon fill-rule="evenodd" clip-rule="evenodd" points="219.7,183.6 251.8,188.6 251.8,186.1 219.7,181.2 "/>
<polygon fill-rule="evenodd" clip-rule="evenodd" points="219.7,187.4 251.8,192.3 251.8,189.8 219.7,184.9 "/>
<g>
	<path d="M362.9,191c-3.2,0-6.1-2.3-6.1-5.1c0-2.4,1.7-5,5.1-7.9c-0.2-0.9-0.3-1.8-0.3-2.7c0-2.6,0.9-5.1,2.4-6.3
		c1.4,1.9,2,3.7,2,5.3c0,2.2-1,4.2-3.2,6.1l0.7,3.1c0.4,0,0.6,0,0.6,0c2,0,3.6,1.5,3.6,3.5c0,1.4-1.1,2.8-2.7,3.6
		c0-0.1,0.6,2.8,0.6,3.3c0,1.9-1.7,3.2-3.7,3.2c-1.5,0-2.7-1-2.7-2.5c0-1.1,0.7-1.9,1.8-1.9c1,0,1.7,1,1.7,1.9c0,1-0.9,1.7-2,1.8
		c0.4,0.2,0.9,0.3,1.4,0.3c1.6,0,3.1-1.2,3.1-2.7c0-0.1,0-0.3,0-0.5l-0.6-2.8C364.1,190.9,363.6,191,362.9,191z M361.2,187.1
		c0,0.8,0.4,1.4,1.2,1.9c-1.3-0.2-2.2-1.1-2.2-2.3c0-1.5,1.3-2.8,2.9-3.1l-0.6-3c-2.8,2.1-4.3,4.1-4.3,6.1c0,2.2,2.1,4,4.5,4
		c0.7,0,1.3-0.1,1.8-0.4l-1.1-5.1C362.2,185.3,361.2,186,361.2,187.1z M364.2,171c-1.2,0-2.2,2.8-2.2,5.3c0,0.5,0,1,0.1,1.4
		c2-1.8,3-3.4,3-4.9c0-0.7-0.3-1.3-0.7-1.8C364.4,171.1,364.4,171,364.2,171z M366.3,187.5c0-1.2-0.9-2.4-2.2-2.4c0,0-0.2,0-0.4,0
		l1.1,5C365.8,189.3,366.3,188.4,366.3,187.5z"/>
</g>
<polygon fill-rule="evenodd" clip-rule="evenodd" points="306.4,188.6 342.7,183.6 342.7,181.2 306.4,186.1 "/>
<polygon fill-rule="evenodd" clip-rule="evenodd" points="306.4,192.3 342.7,187.4 342.7,184.9 306.4,189.8 "/>
<polygon fill-rule="evenodd" clip-rule="evenodd" points="369,198.5 403.4,193.6 403.4,191.1 369,196 "/>
<polygon fill-rule="evenodd" clip-rule="evenodd" points="369,202.3 403.4,197.3 403.4,194.8 369,199.8 "/>
<g>
	<path d="M458.9,184.4c2.2-2,3.6-4.6,3.6-6.9c0-1.9-1.1-3.3-2.8-3.3c-1.2,0-2.5,1-2.5,2.1c0,0.2,0,0.2,0.1,0.2c0,0,0.4-0.5,1-0.5
		c0.7,0,1.2,0.6,1.2,1.3c0,0.9-0.6,1.7-1.6,1.7s-1.5-1-1.5-2.1c0-1.8,1.7-3.1,3.6-3.1c3.5,0,4.4,2.4,4.4,4.4c0,1.2-0.3,2.2-1.5,4
		c-1.4,2.3-4.8,4-6,4c-0.3,0-0.5-0.1-0.5-0.3C457.5,185.3,458.4,184.9,458.9,184.4z M466.4,174.8c0.4,0,0.7,0.3,0.7,0.7
		c0,0.4-0.3,0.7-0.7,0.7c-0.4,0-0.7-0.3-0.7-0.7C465.7,175.2,466,174.8,466.4,174.8z M466.4,178.5c0.4,0,0.7,0.3,0.7,0.7
		s-0.3,0.7-0.7,0.7c-0.4,0-0.7-0.3-0.7-0.7S466,178.5,466.4,178.5z"/>
</g>
<polygon fill-rule="evenodd" clip-rule="evenodd" points="413.7,189.8 444.1,194.8 444.1,192.3 413.7,187.4 "/>
<polygon fill-rule="evenodd" clip-rule="evenodd" points="413.7,193.6 444.1,198.5 444.1,196 413.7,191.1 "/>
<polygon fill-rule="evenodd" clip-rule="evenodd" points="470.4,178.7 504.2,183.6 504.2,181.2 470.4,176.2 "/>
<polygon fill-rule="evenodd" clip-rule="evenodd" points="470.4,182.4 504.2,187.4 504.2,184.9 470.4,179.9 "/>
<rect x="49.2" y="36.9" width="10.5" height="0.8"/>
<rect x="49.2" y="41.9" width="10.5" height="0.8"/>
<rect x="57.5" y="17.6" width="0.5" height="23.9"/>
<g>
	<path d="M51.1,43.1c0-1.8,2.5-3.5,4.5-3.5c1.3,0,2.3,0.7,2.3,1.7c0,1.7-2.5,3.5-4.6,3.5C52.1,44.9,51.1,44.2,51.1,43.1z"/>
</g>
<g>
	<path d="M47.4,35.5v2.8l1-0.3v1.8l-1,0.3v3.4l1-0.3V45l-1,0.3v3.1h-0.5v-3L45,46.1v3h-0.5v-2.8l-1,0.3v-1.8l1-0.3V41l-1,0.3v-1.8
		l1-0.3v-3.1H45v3l1.9-0.6v-3H47.4z M46.9,40.2L45,40.9v3.4l1.9-0.6V40.2z"/>
</g>
<rect x="61" y="36.9" width="10.5" height="0.8"/>
<rect x="69.3" y="15.9" width="0.5" height="20.6"/>
<g>
	<path d="M62.9,38.2c0-1.8,2.5-3.5,4.5-3.5c1.3,0,2.3,0.7,2.3,1.7c0,1.7-2.5,3.5-4.6,3.5C63.8,39.9,62.9,39.3,62.9,38.2z"/>
</g>
<rect x="79.5" y="14.4" width="0.5" height="17.2"/>
<g>
	<path d="M73.1,33.2c0-1.8,2.5-3.5,4.5-3.5c1.3,0,2.3,0.7,2.3,1.7c0,1.7-2.5,3.5-4.6,3.5C74.1,34.9,73.1,34.3,73.1,33.2z"/>
</g>
<rect x="89.8" y="12.7" width="0.5" height="14"/>
<g>
	<path d="M83.3,28.3c0-1.8,2.5-3.5,4.5-3.5c1.3,0,2.3,0.7,2.3,1.7c0,1.7-2.5,3.5-4.6,3.5C84.3,30,83.3,29.3,83.3,28.3z"/>
</g>
<rect x="115.2" y="25.7" width="0.5" height="12.7"/>
<g>
	<path d="M115.3,25.8c0-1.8,2.5-3.5,4.5-3.5c1.3,0,2.3,0.7,2.3,1.7c0,1.7-2.5,3.5-4.6,3.5C116.2,27.5,115.3,26.9,115.3,25.8z"/>
</g>
<g>
	<path d="M112.8,18.1v2.8l1-0.3v1.8l-1,0.3v3.4l1-0.3v1.8l-1,0.3v3.1h-0.5v-3l-1.9,0.6v3h-0.5v-2.8l-1,0.3v-1.8l1-0.3v-3.4l-1,0.3
		v-1.8l1-0.3v-3.1h0.5v3l1.9-0.6v-3H112.8z M112.3,22.9l-1.9,0.6v3.4l1.9-0.6V22.9z"/>
</g>
<rect x="127" y="20.7" width="0.5" height="16"/>
<g>
	<path d="M127,20.8c0-1.8,2.5-3.5,4.5-3.5c1.3,0,2.3,0.7,2.3,1.7c0,1.7-2.5,3.5-4.6,3.5C128,22.5,127,21.9,127,20.8z"/>
</g>
<rect x="137.2" y="15.8" width="0.5" height="19.4"/>
<g>
	<path d="M137.3,15.9c0-1.8,2.5-3.5,4.5-3.5c1.3,0,2.3,0.7,2.3,1.7c0,1.7-2.5,3.5-4.6,3.5C138.2,17.6,137.3,16.9,137.3,15.9z"/>
</g>
<rect x="147.4" y="10.8" width="0.5" height="22.6"/>
<g>
	<path d="M147.5,10.9c0-1.8,2.5-3.5,4.5-3.5c1.3,0,2.3,0.7,2.3,1.7c0,1.7-2.5,3.5-4.6,3.5C148.5,12.6,147.5,12,147.5,10.9z"/>
</g>
<rect x="161.1" y="7.2" width="10.5" height="0.8"/>
<rect x="162.9" y="8.3" width="0.5" height="23.9"/>
<g>
	<path d="M163,8.4c0-1.8,2.5-3.5,4.5-3.5c1.3,0,2.3,0.7,2.3,1.7c0,1.7-2.5,3.5-4.6,3.5C164,10.1,163,9.5,163,8.4z"/>
</g>
<g>
	<path d="M159.3,0.7v2.8l1-0.3V5l-1,0.3v3.4l1-0.3v1.8l-1,0.3v3.1h-0.5v-3l-1.9,0.6v3h-0.5v-2.8l-1,0.3v-1.8l1-0.3V6.3l-1,0.3V4.8
		l1-0.3V1.4h0.5v3l1.9-0.6v-3H159.3z M158.8,5.5l-1.9,0.6v3.4l1.9-0.6V5.5z"/>
</g>
<rect x="173.2" y="10.8" width="0.5" height="22.9"/>
<g>
	<path d="M173.2,10.9c0-1.8,2.5-3.5,4.5-3.5c1.3,0,2.3,0.7,2.3,1.7c0,1.7-2.5,3.5-4.6,3.5C174.2,12.6,173.2,12,173.2,10.9z"/>
</g>
<rect x="183.4" y="15.8" width="0.5" height="19.7"/>
<g>
	<path d="M183.5,15.9c0-1.8,2.5-3.5,4.5-3.5c1.3,0,2.3,0.7,2.3,1.7c0,1.7-2.5,3.5-4.6,3.5C184.4,17.6,183.5,16.9,183.5,15.9z"/>
</g>
<rect x="193.6" y="20.7" width="0.5" height="16.4"/>
<g>
	<path d="M193.7,20.8c0-1.8,2.5-3.5,4.5-3.5c1.3,0,2.3,0.7,2.3,1.7c0,1.7-2.5,3.5-4.6,3.5C194.7,22.5,193.7,21.9,193.7,20.8z"/>
</g>
<rect x="226.5" y="7.7" width="0.5" height="16.4"/>
<g>
	<path d="M220.1,25.8c0-1.8,2.5-3.5,4.5-3.5c1.3,0,2.3,0.7,2.3,1.7c0,1.7-2.5,3.5-4.6,3.5C221,27.5,220.1,26.9,220.1,25.8z"/>
</g>
<rect x="236.7" y="9.3" width="0.5" height="17.4"/>
<g>
	<path d="M230.3,28.3c0-1.8,2.5-3.5,4.5-3.5c1.3,0,2.3,0.7,2.3,1.7c0,1.7-2.5,3.5-4.6,3.5C231.3,30,230.3,29.3,230.3,28.3z"/>
</g>
<rect x="247" y="11" width="0.5" height="20.6"/>
<g>
	<path d="M240.5,33.2c0-1.8,2.5-3.5,4.5-3.5c1.3,0,2.3,0.7,2.3,1.7c0,1.7-2.5,3.5-4.6,3.5C241.5,34.9,240.5,34.3,240.5,33.2z"/>
</g>
<rect x="248.9" y="36.9" width="10.5" height="0.8"/>
<rect x="257.2" y="12.7" width="0.5" height="23.9"/>
<g>
	<path d="M250.7,38.2c0-1.8,2.5-3.5,4.5-3.5c1.3,0,2.3,0.7,2.3,1.7c0,1.7-2.5,3.5-4.6,3.5C251.7,39.9,250.7,39.3,250.7,38.2z"/>
</g>
<rect x="260.7" y="36.9" width="10.7" height="0.8"/>
<rect x="260.7" y="41.9" width="10.7" height="0.8"/>
<rect x="269.1" y="22.4" width="0.5" height="19.1"/>
<g>
	<path d="M266.8,39.6c1.6,0,2.7,0.7,2.7,2c0,1.9-2.3,3.4-4.5,3.4c-1.3,0-2.4-0.7-2.4-1.8C262.5,41.4,264.8,39.6,266.8,39.6z
		 M263,43.4c0,0.6,0.4,0.9,1.1,0.9c1.4,0,4.9-2.1,4.9-3.3c0-0.6-0.4-0.9-1.1-0.9C266.7,40.2,263,42.2,263,43.4z"/>
</g>
<rect x="305.5" y="36.9" width="10.5" height="0.8"/>
<rect x="313.8" y="12.7" width="0.5" height="23.9"/>
<g>
	<path d="M307.3,38.2c0-1.8,2.5-3.5,4.5-3.5c1.3,0,2.3,0.7,2.3,1.7c0,1.7-2.5,3.5-4.6,3.5C308.3,39.9,307.3,39.3,307.3,38.2z"/>
</g>
<rect x="324" y="11.3" width="0.5" height="20.3"/>
<g>
	<path d="M317.6,33.2c0-1.8,2.5-3.5,4.5-3.5c1.3,0,2.3,0.7,2.3,1.7c0,1.7-2.5,3.5-4.6,3.5C318.5,34.9,317.6,34.3,317.6,33.2z"/>
</g>
<rect x="334.2" y="9.9" width="0.5" height="16.7"/>
<g>
	<path d="M327.8,28.3c0-1.8,2.5-3.5,4.5-3.5c1.3,0,2.3,0.7,2.3,1.7c0,1.7-2.5,3.5-4.6,3.5C328.8,30,327.8,29.3,327.8,28.3z"/>
</g>
<rect x="348.5" y="7.7" width="0.5" height="16.4"/>
<g>
	<path d="M342.1,25.8c0-1.8,2.5-3.5,4.5-3.5c1.3,0,2.3,0.7,2.3,1.7c0,1.7-2.5,3.5-4.6,3.5C343,27.5,342.1,26.9,342.1,25.8z"/>
</g>
<g>
	<path d="M339.6,18.1v2.8l1-0.3v1.8l-1,0.3v3.4l1-0.3v1.8l-1,0.3v3.1h-0.5v-3l-1.9,0.6v3h-0.5v-2.8l-1,0.3v-1.8l1-0.3v-3.4l-1,0.3
		v-1.8l1-0.3v-3.1h0.5v3l1.9-0.6v-3H339.6z M339.1,22.9l-1.9,0.6v3.4l1.9-0.6V22.9z"/>
</g>
<rect x="368.3" y="20.7" width="0.5" height="16.4"/>
<g>
	<path d="M368.4,20.8c0-1.8,2.5-3.5,4.5-3.5c1.3,0,2.3,0.7,2.3,1.7c0,1.7-2.5,3.5-4.6,3.5C369.4,22.5,368.4,21.9,368.4,20.8z"/>
</g>
<rect x="378.6" y="15.8" width="0.5" height="20"/>
<g>
	<path d="M378.6,15.9c0-1.8,2.5-3.5,4.5-3.5c1.3,0,2.3,0.7,2.3,1.7c0,1.7-2.5,3.5-4.6,3.5C379.6,17.6,378.6,16.9,378.6,15.9z"/>
</g>
<rect x="388.8" y="10.8" width="0.5" height="23.6"/>
<g>
	<path d="M388.9,10.9c0-1.8,2.5-3.5,4.5-3.5c1.3,0,2.3,0.7,2.3,1.7c0,1.7-2.5,3.5-4.6,3.5C389.8,12.6,388.9,12,388.9,10.9z"/>
</g>
<rect x="402.5" y="7.2" width="10.5" height="0.8"/>
<rect x="404.3" y="8.3" width="0.5" height="23.9"/>
<g>
	<path d="M404.4,8.4c0-1.8,2.5-3.5,4.5-3.5c1.3,0,2.3,0.7,2.3,1.7c0,1.7-2.5,3.5-4.6,3.5C405.3,10.1,404.4,9.5,404.4,8.4z"/>
</g>
<g>
	<path d="M400.7,0.7v2.8l1-0.3V5l-1,0.3v3.4l1-0.3v1.8l-1,0.3v3.1h-0.5v-3l-1.9,0.6v3h-0.5v-2.8l-1,0.3v-1.8l1-0.3V6.3l-1,0.3V4.8
		l1-0.3V1.4h0.5v3l1.9-0.6v-3H400.7z M400.2,5.5l-1.9,0.6v3.4l1.9-0.6V5.5z"/>
</g>
<rect x="414.3" y="7.2" width="10.5" height="0.8"/>
<rect x="414.3" y="2.2" width="10.5" height="0.8"/>
<rect x="416.1" y="3.4" width="0.5" height="23.9"/>
<g>
	<path d="M416.1,3.5c0-1.8,2.5-3.5,4.5-3.5c1.3,0,2.3,0.7,2.3,1.7c0,1.7-2.5,3.5-4.6,3.5C417.1,5.2,416.1,4.5,416.1,3.5z"/>
</g>
<rect x="426.1" y="7.2" width="10.5" height="0.8"/>
<rect x="427.9" y="8.3" width="0.5" height="20.6"/>
<g>
	<path d="M427.9,8.4c0-1.8,2.5-3.5,4.5-3.5c1.3,0,2.3,0.7,2.3,1.7c0,1.7-2.5,3.5-4.6,3.5C428.9,10.1,427.9,9.5,427.9,8.4z"/>
</g>
<rect x="438.1" y="10.8" width="0.5" height="19.7"/>
<g>
	<path d="M438.2,10.9c0-1.8,2.5-3.5,4.5-3.5c1.3,0,2.3,0.7,2.3,1.7c0,1.7-2.5,3.5-4.6,3.5C439.1,12.6,438.2,12,438.2,10.9z"/>
</g>
<rect x="448.3" y="15.8" width="0.5" height="16.4"/>
<g>
	<path d="M448.4,15.9c0-1.8,2.5-3.5,4.5-3.5c1.3,0,2.3,0.7,2.3,1.7c0,1.7-2.5,3.5-4.6,3.5C449.4,17.6,448.4,16.9,448.4,15.9z"/>
</g>
<rect x="481.2" y="6.5" width="0.5" height="12.7"/>
<g>
	<path d="M474.7,20.8c0-1.8,2.5-3.5,4.5-3.5c1.3,0,2.3,0.7,2.3,1.7c0,1.7-2.5,3.5-4.6,3.5C475.7,22.5,474.7,21.9,474.7,20.8z"/>
</g>
<rect x="491.4" y="8" width="0.5" height="16.1"/>
<g>
	<path d="M485,25.8c0-1.8,2.5-3.5,4.5-3.5c1.3,0,2.3,0.7,2.3,1.7c0,1.7-2.5,3.5-4.6,3.5C485.9,27.5,485,26.9,485,25.8z"/>
</g>
<rect x="501.6" y="9.7" width="0.5" height="16.9"/>
<g>
	<path d="M495.2,28.3c0-1.8,2.5-3.5,4.5-3.5c1.3,0,2.3,0.7,2.3,1.7c0,1.7-2.5,3.5-4.6,3.5C496.2,30,495.2,29.3,495.2,28.3z"/>
</g>
<rect x="511.9" y="11.4" width="0.5" height="20.2"/>
<g>
	<path d="M505.4,33.2c0-1.8,2.5-3.5,4.5-3.5c1.3,0,2.3,0.7,2.3,1.7c0,1.7-2.5,3.5-4.6,3.5C506.4,34.9,505.4,34.3,505.4,33.2z"/>
</g>
<rect x="513.8" y="36.9" width="10.7" height="0.8"/>
<rect x="522.3" y="20" width="0.5" height="16.6"/>
<g>
	<path d="M519.9,34.6c1.6,0,2.7,0.7,2.7,2c0,1.9-2.3,3.4-4.5,3.4c-1.3,0-2.4-0.7-2.4-1.8C515.7,36.4,517.9,34.6,519.9,34.6z
		 M516.1,38.5c0,0.6,0.4,0.9,1.1,0.9c1.4,0,4.9-2.1,4.9-3.3c0-0.6-0.4-0.9-1.1-0.9C519.8,35.2,516.1,37.2,516.1,38.5z"/>
</g>
<rect x="51" y="77.8" width="0.5" height="12.7"/>
<g>
	<path d="M51.1,77.9c0-1.8,2.5-3.5,4.5-3.5c1.3,0,2.3,0.7,2.3,1.7c0,1.7-2.5,3.5-4.6,3.5C52.1,79.6,51.1,78.9,51.1,77.9z"/>
</g>
<g>
	<path d="M48.7,70.2V73l1-0.3v1.8l-1,0.3v3.4l1-0.3v1.8l-1,0.3v3.1h-0.5v-3l-1.9,0.6v3h-0.5V81l-1,0.3v-1.8l1-0.3v-3.4l-1,0.3v-1.8
		l1-0.3v-3.1h0.5v3l1.9-0.6v-3H48.7z M48.2,75l-1.9,0.6V79l1.9-0.6V75z"/>
</g>
<rect x="62.8" y="72.8" width="0.5" height="16"/>
<g>
	<path d="M62.9,72.9c0-1.8,2.5-3.5,4.5-3.5c1.3,0,2.3,0.7,2.3,1.7c0,1.7-2.5,3.5-4.6,3.5C63.8,74.6,62.9,74,62.9,72.9z"/>
</g>
<rect x="73" y="67.9" width="0.5" height="19.4"/>
<g>
	<path d="M73.1,67.9c0-1.8,2.5-3.5,4.5-3.5c1.3,0,2.3,0.7,2.3,1.7c0,1.7-2.5,3.5-4.6,3.5C74.1,69.7,73.1,69,73.1,67.9z"/>
</g>
<rect x="83.3" y="62.9" width="0.5" height="22.6"/>
<g>
	<path d="M83.3,63c0-1.8,2.5-3.5,4.5-3.5c1.3,0,2.3,0.7,2.3,1.7c0,1.7-2.5,3.5-4.6,3.5C84.3,64.7,83.3,64.1,83.3,63z"/>
</g>
<rect x="113.4" y="84.1" width="10.5" height="0.8"/>
<rect x="113.4" y="89" width="10.5" height="0.8"/>
<rect x="121.7" y="64.8" width="0.5" height="23.9"/>
<g>
	<path d="M115.3,90.3c0-1.8,2.5-3.5,4.5-3.5c1.3,0,2.3,0.7,2.3,1.7c0,1.7-2.5,3.5-4.6,3.5C116.2,92,115.3,91.3,115.3,90.3z"/>
</g>
<g>
	<path d="M111.6,82.6v2.8l1-0.3v1.8l-1,0.3v3.4l1-0.3v1.8l-1,0.3v3.1h-0.5v-3l-1.9,0.6v3h-0.5v-2.8l-1,0.3v-1.8l1-0.3v-3.4l-1,0.3
		v-1.8l1-0.3v-3.1h0.5v3l1.9-0.6v-3H111.6z M111.1,87.4l-1.9,0.6v3.4l1.9-0.6V87.4z"/>
</g>
<rect x="125.2" y="84.1" width="10.5" height="0.8"/>
<rect x="133.5" y="63.1" width="0.5" height="20.6"/>
<g>
	<path d="M127,85.3c0-1.8,2.5-3.5,4.5-3.5c1.3,0,2.3,0.7,2.3,1.7c0,1.7-2.5,3.5-4.6,3.5C128,87,127,86.4,127,85.3z"/>
</g>
<rect x="143.7" y="61.5" width="0.5" height="17.2"/>
<g>
	<path d="M137.3,80.3c0-1.8,2.5-3.5,4.5-3.5c1.3,0,2.3,0.7,2.3,1.7c0,1.7-2.5,3.5-4.6,3.5C138.2,82.1,137.3,81.4,137.3,80.3z"/>
</g>
<rect x="153.9" y="59.8" width="0.5" height="14"/>
<g>
	<path d="M147.5,75.4c0-1.8,2.5-3.5,4.5-3.5c1.3,0,2.3,0.7,2.3,1.7c0,1.7-2.5,3.5-4.6,3.5C148.5,77.1,147.5,76.5,147.5,75.4z"/>
</g>
<rect x="169.4" y="54.8" width="0.5" height="16.4"/>
<g>
	<path d="M163,72.9c0-1.8,2.5-3.5,4.5-3.5c1.3,0,2.3,0.7,2.3,1.7c0,1.7-2.5,3.5-4.6,3.5C164,74.6,163,74,163,72.9z"/>
</g>
<g>
	<path d="M160.6,65.2v2.8l1-0.3v1.8l-1,0.3v3.4l1-0.3v1.8l-1,0.3v3.1h-0.5v-3l-1.9,0.6v3h-0.5V76l-1,0.3v-1.8l1-0.3v-3.4l-1,0.3
		v-1.8l1-0.3v-3.1h0.5v3l1.9-0.6v-3H160.6z M160.1,70l-1.9,0.6v3.4l1.9-0.6V70z"/>
</g>
<rect x="179.7" y="56.4" width="0.5" height="17.4"/>
<g>
	<path d="M173.2,75.4c0-1.8,2.5-3.5,4.5-3.5c1.3,0,2.3,0.7,2.3,1.7c0,1.7-2.5,3.5-4.6,3.5C174.2,77.1,173.2,76.5,173.2,75.4z"/>
</g>
<rect x="189.9" y="58.1" width="0.5" height="20.6"/>
<g>
	<path d="M183.5,80.3c0-1.8,2.5-3.5,4.5-3.5c1.3,0,2.3,0.7,2.3,1.7c0,1.7-2.5,3.5-4.6,3.5C184.4,82.1,183.5,81.4,183.5,80.3z"/>
</g>
<rect x="191.8" y="84.1" width="10.5" height="0.8"/>
<rect x="200.1" y="59.8" width="0.5" height="23.9"/>
<g>
	<path d="M193.7,85.3c0-1.8,2.5-3.5,4.5-3.5c1.3,0,2.3,0.7,2.3,1.7c0,1.7-2.5,3.5-4.6,3.5C194.7,87,193.7,86.4,193.7,85.3z"/>
</g>
<rect x="220" y="60.4" width="0.5" height="20.2"/>
<g>
	<path d="M220.1,60.5c0-1.8,2.5-3.5,4.5-3.5c1.3,0,2.3,0.7,2.3,1.7c0,1.7-2.5,3.5-4.6,3.5C221,62.2,220.1,61.6,220.1,60.5z"/>
</g>
<rect x="230.2" y="62.9" width="0.5" height="19.2"/>
<g>
	<path d="M230.3,63c0-1.8,2.5-3.5,4.5-3.5c1.3,0,2.3,0.7,2.3,1.7c0,1.7-2.5,3.5-4.6,3.5C231.3,64.7,230.3,64.1,230.3,63z"/>
</g>
<rect x="240.4" y="67.9" width="0.5" height="16"/>
<g>
	<path d="M240.5,67.9c0-1.8,2.5-3.5,4.5-3.5c1.3,0,2.3,0.7,2.3,1.7c0,1.7-2.5,3.5-4.6,3.5C241.5,69.7,240.5,69,240.5,67.9z"/>
</g>
<rect x="250.7" y="72.8" width="0.5" height="12.7"/>
<g>
	<path d="M250.7,72.9c0-1.8,2.5-3.5,4.5-3.5c1.3,0,2.3,0.7,2.3,1.7c0,1.7-2.5,3.5-4.6,3.5C251.7,74.6,250.7,74,250.7,72.9z"/>
</g>
<rect x="269.1" y="59.6" width="0.5" height="16.6"/>
<g>
	<path d="M266.8,74.3c1.6,0,2.7,0.7,2.7,2c0,1.9-2.3,3.4-4.5,3.4c-1.3,0-2.4-0.7-2.4-1.8C262.5,76.1,264.8,74.3,266.8,74.3z
		 M263,78.2c0,0.6,0.4,0.9,1.1,0.9c1.4,0,4.9-2.1,4.9-3.3c0-0.6-0.4-0.9-1.1-0.9C266.7,74.9,263,76.9,263,78.2z"/>
</g>
<rect x="307.3" y="72.8" width="0.5" height="12.7"/>
<g>
	<path d="M307.3,72.9c0-1.8,2.5-3.5,4.5-3.5c1.3,0,2.3,0.7,2.3,1.7c0,1.7-2.5,3.5-4.6,3.5C308.3,74.6,307.3,74,307.3,72.9z"/>
</g>
<rect x="317.5" y="67.9" width="0.5" height="16.3"/>
<g>
	<path d="M317.6,67.9c0-1.8,2.5-3.5,4.5-3.5c1.3,0,2.3,0.7,2.3,1.7c0,1.7-2.5,3.5-4.6,3.5C318.5,69.7,317.6,69,317.6,67.9z"/>
</g>
<rect x="327.7" y="62.9" width="0.5" height="19.8"/>
<g>
	<path d="M327.8,63c0-1.8,2.5-3.5,4.5-3.5c1.3,0,2.3,0.7,2.3,1.7c0,1.7-2.5,3.5-4.6,3.5C328.8,64.7,327.8,64.1,327.8,63z"/>
</g>
<rect x="342" y="60.4" width="0.5" height="20.2"/>
<g>
	<path d="M342.1,60.5c0-1.8,2.5-3.5,4.5-3.5c1.3,0,2.3,0.7,2.3,1.7c0,1.7-2.5,3.5-4.6,3.5C343,62.2,342.1,61.6,342.1,60.5z"/>
</g>
<g>
	<path d="M339.6,52.8v2.8l1-0.3v1.8l-1,0.3v3.4l1-0.3v1.8l-1,0.3v3.1h-0.5v-3l-1.9,0.6v3h-0.5v-2.8l-1,0.3v-1.8l1-0.3v-3.4l-1,0.3
		v-1.8l1-0.3v-3.1h0.5v3l1.9-0.6v-3H339.6z M339.1,57.6l-1.9,0.6v3.4l1.9-0.6V57.6z"/>
</g>
<rect x="366.5" y="84.1" width="10.5" height="0.8"/>
<rect x="374.8" y="59.8" width="0.5" height="23.9"/>
<g>
	<path d="M368.4,85.3c0-1.8,2.5-3.5,4.5-3.5c1.3,0,2.3,0.7,2.3,1.7c0,1.7-2.5,3.5-4.6,3.5C369.4,87,368.4,86.4,368.4,85.3z"/>
</g>
<rect x="385.1" y="58.4" width="0.5" height="20.3"/>
<g>
	<path d="M378.6,80.3c0-1.8,2.5-3.5,4.5-3.5c1.3,0,2.3,0.7,2.3,1.7c0,1.7-2.5,3.5-4.6,3.5C379.6,82.1,378.6,81.4,378.6,80.3z"/>
</g>
<rect x="395.3" y="57" width="0.5" height="16.7"/>
<g>
	<path d="M388.9,75.4c0-1.8,2.5-3.5,4.5-3.5c1.3,0,2.3,0.7,2.3,1.7c0,1.7-2.5,3.5-4.6,3.5C389.8,77.1,388.9,76.5,388.9,75.4z"/>
</g>
<rect x="410.8" y="54.8" width="0.5" height="16.4"/>
<g>
	<path d="M404.4,72.9c0-1.8,2.5-3.5,4.5-3.5c1.3,0,2.3,0.7,2.3,1.7c0,1.7-2.5,3.5-4.6,3.5C405.3,74.6,404.4,74,404.4,72.9z"/>
</g>
<g>
	<path d="M401.9,65.2v2.8l1-0.3v1.8l-1,0.3v3.4l1-0.3v1.8l-1,0.3v3.1h-0.5v-3l-1.9,0.6v3H399V76l-1,0.3v-1.8l1-0.3v-3.4l-1,0.3v-1.8
		l1-0.3v-3.1h0.5v3l1.9-0.6v-3H401.9z M401.4,70l-1.9,0.6v3.4l1.9-0.6V70z"/>
</g>
<rect x="422.6" y="53.6" width="0.5" height="12.7"/>
<g>
	<path d="M416.1,67.9c0-1.8,2.5-3.5,4.5-3.5c1.3,0,2.3,0.7,2.3,1.7c0,1.7-2.5,3.5-4.6,3.5C417.1,69.7,416.1,69,416.1,67.9z"/>
</g>
<rect x="434.4" y="55.3" width="0.5" height="16"/>
<g>
	<path d="M427.9,72.9c0-1.8,2.5-3.5,4.5-3.5c1.3,0,2.3,0.7,2.3,1.7c0,1.7-2.5,3.5-4.6,3.5C428.9,74.6,427.9,74,427.9,72.9z"/>
</g>
<rect x="444.6" y="56.9" width="0.5" height="16.9"/>
<g>
	<path d="M438.2,75.4c0-1.8,2.5-3.5,4.5-3.5c1.3,0,2.3,0.7,2.3,1.7c0,1.7-2.5,3.5-4.6,3.5C439.1,77.1,438.2,76.5,438.2,75.4z"/>
</g>
<rect x="454.8" y="58.6" width="0.5" height="20.2"/>
<g>
	<path d="M448.4,80.3c0-1.8,2.5-3.5,4.5-3.5c1.3,0,2.3,0.7,2.3,1.7c0,1.7-2.5,3.5-4.6,3.5C449.4,82.1,448.4,81.4,448.4,80.3z"/>
</g>
<rect x="472.9" y="54.3" width="10.5" height="0.8"/>
<rect x="474.7" y="55.5" width="0.5" height="23.9"/>
<g>
	<path d="M474.7,55.5c0-1.8,2.5-3.5,4.5-3.5c1.3,0,2.3,0.7,2.3,1.7c0,1.7-2.5,3.5-4.6,3.5C475.7,57.3,474.7,56.6,474.7,55.5z"/>
</g>
<rect x="484.9" y="60.4" width="0.5" height="20.5"/>
<g>
	<path d="M485,60.5c0-1.8,2.5-3.5,4.5-3.5c1.3,0,2.3,0.7,2.3,1.7c0,1.7-2.5,3.5-4.6,3.5C485.9,62.2,485,61.6,485,60.5z"/>
</g>
<rect x="495.1" y="62.9" width="0.5" height="19.7"/>
<g>
	<path d="M495.2,63c0-1.8,2.5-3.5,4.5-3.5c1.3,0,2.3,0.7,2.3,1.7c0,1.7-2.5,3.5-4.6,3.5C496.2,64.7,495.2,64.1,495.2,63z"/>
</g>
<rect x="505.4" y="67.9" width="0.5" height="16.4"/>
<g>
	<path d="M505.4,67.9c0-1.8,2.5-3.5,4.5-3.5c1.3,0,2.3,0.7,2.3,1.7c0,1.7-2.5,3.5-4.6,3.5C506.4,69.7,505.4,69,505.4,67.9z"/>
</g>
<rect x="522.3" y="54.7" width="0.5" height="16.6"/>
<g>
	<path d="M519.9,69.3c1.6,0,2.7,0.7,2.7,2c0,1.9-2.3,3.4-4.5,3.4c-1.3,0-2.4-0.7-2.4-1.8C515.7,71.1,517.9,69.3,519.9,69.3z
		 M516.1,73.2c0,0.6,0.4,0.9,1.1,0.9c1.4,0,4.9-2.1,4.9-3.3c0-0.6-0.4-0.9-1.1-0.9C519.8,69.9,516.1,72,516.1,73.2z"/>
</g>
<rect x="55.8" y="124.3" width="0.5" height="20.2"/>
<g>
	<path d="M49.4,146.1c0-1.8,2.5-3.5,4.5-3.5c1.3,0,2.3,0.7,2.3,1.7c0,1.7-2.5,3.5-4.6,3.5C50.4,147.8,49.4,147.2,49.4,146.1z"/>
</g>
<rect x="65.9" y="122.9" width="0.5" height="16.6"/>
<g>
	<path d="M59.5,141.1c0-1.8,2.5-3.5,4.5-3.5c1.3,0,2.3,0.7,2.3,1.7c0,1.7-2.5,3.5-4.6,3.5C60.4,142.8,59.5,142.2,59.5,141.1z"/>
</g>
<rect x="80.2" y="120.9" width="0.5" height="16.1"/>
<g>
	<path d="M73.7,138.6c0-1.8,2.5-3.5,4.5-3.5c1.3,0,2.3,0.7,2.3,1.7c0,1.7-2.5,3.5-4.6,3.5C74.7,140.3,73.7,139.7,73.7,138.6z"/>
</g>
<g>
	<path d="M71.3,130.9v2.8l1-0.3v1.8l-1,0.3v3.4l1-0.3v1.8l-1,0.3v3.1h-0.5v-3l-1.9,0.6v3h-0.5v-2.8l-1,0.3v-1.8l1-0.3v-3.4l-1,0.3
		V135l1-0.3v-3.1h0.5v3l1.9-0.6v-3H71.3z M70.8,135.7l-1.9,0.6v3.4l1.9-0.6V135.7z"/>
</g>
<rect x="90.4" y="119.3" width="0.5" height="12.7"/>
<g>
	<path d="M84,133.7c0-1.8,2.5-3.5,4.5-3.5c1.3,0,2.3,0.7,2.3,1.7c0,1.7-2.5,3.5-4.6,3.5C84.9,135.4,84,134.8,84,133.7z"/>
</g>
<rect x="110.2" y="128.6" width="0.5" height="16.4"/>
<g>
	<path d="M110.3,128.7c0-1.8,2.5-3.5,4.5-3.5c1.3,0,2.3,0.7,2.3,1.7c0,1.7-2.5,3.5-4.6,3.5C111.3,130.4,110.3,129.8,110.3,128.7z"/>
</g>
<rect x="120.3" y="123.7" width="0.5" height="20.2"/>
<g>
	<path d="M120.4,123.7c0-1.8,2.5-3.5,4.5-3.5c1.3,0,2.3,0.7,2.3,1.7c0,1.7-2.5,3.5-4.6,3.5C121.4,125.5,120.4,124.8,120.4,123.7z"/>
</g>
<rect x="134" y="120" width="10.5" height="0.8"/>
<rect x="135.8" y="121.2" width="0.5" height="20.6"/>
<g>
	<path d="M135.9,121.3c0-1.8,2.5-3.5,4.5-3.5c1.3,0,2.3,0.7,2.3,1.7c0,1.7-2.5,3.5-4.6,3.5C136.9,123,135.9,122.3,135.9,121.3z"/>
</g>
<g>
	<path d="M132.2,113.6v2.8l1-0.3v1.8l-1,0.3v3.4l1-0.3v1.8l-1,0.3v3.1h-0.5v-3l-1.9,0.6v3h-0.5v-2.8l-1,0.3v-1.8l1-0.3v-3.4l-1,0.3
		v-1.8l1-0.3v-3.1h0.5v3l1.9-0.6v-3H132.2z M131.7,118.4l-1.9,0.6v3.4l1.9-0.6V118.4z"/>
</g>
<rect x="145.8" y="120" width="10.5" height="0.8"/>
<rect x="145.8" y="115.1" width="10.5" height="0.8"/>
<rect x="147.6" y="116.2" width="0.5" height="23.9"/>
<g>
	<path d="M147.7,116.3c0-1.8,2.5-3.5,4.5-3.5c1.3,0,2.3,0.7,2.3,1.7c0,1.7-2.5,3.5-4.6,3.5C148.6,118,147.7,117.4,147.7,116.3z"/>
</g>
<rect x="157.6" y="120" width="10.5" height="0.8"/>
<rect x="157.6" y="115.1" width="10.5" height="0.8"/>
<rect x="157.6" y="110.1" width="10.5" height="0.8"/>
<rect x="159.4" y="111.3" width="0.5" height="23.9"/>
<g>
	<path d="M159.4,111.3c0-1.8,2.5-3.5,4.5-3.5c1.3,0,2.3,0.7,2.3,1.7c0,1.7-2.5,3.5-4.6,3.5C160.4,113.1,159.4,112.4,159.4,111.3z"/>
</g>
<rect x="169.4" y="120" width="10.5" height="0.8"/>
<rect x="169.4" y="115.1" width="10.5" height="0.8"/>
<rect x="171.1" y="116.2" width="0.5" height="20.6"/>
<g>
	<path d="M171.2,116.3c0-1.8,2.5-3.5,4.5-3.5c1.3,0,2.3,0.7,2.3,1.7c0,1.7-2.5,3.5-4.6,3.5C172.2,118,171.2,117.4,171.2,116.3z"/>
</g>
<rect x="181.1" y="120" width="10.5" height="0.8"/>
<rect x="182.9" y="121.2" width="0.5" height="17.4"/>
<g>
	<path d="M183,121.3c0-1.8,2.5-3.5,4.5-3.5c1.3,0,2.3,0.7,2.3,1.7c0,1.7-2.5,3.5-4.6,3.5C184,123,183,122.3,183,121.3z"/>
</g>
<rect x="193.2" y="123.7" width="0.5" height="16.4"/>
<g>
	<path d="M193.2,123.7c0-1.8,2.5-3.5,4.5-3.5c1.3,0,2.3,0.7,2.3,1.7c0,1.7-2.5,3.5-4.6,3.5C194.2,125.5,193.2,124.8,193.2,123.7z"/>
</g>
<rect x="219.5" y="128.6" width="0.5" height="21.4"/>
<g>
	<path d="M219.6,128.7c0-1.8,2.5-3.5,4.5-3.5c1.3,0,2.3,0.7,2.3,1.7c0,1.7-2.5,3.5-4.6,3.5C220.6,130.4,219.6,129.8,219.6,128.7z"/>
</g>
<rect x="231.3" y="133.6" width="0.5" height="18.1"/>
<g>
	<path d="M231.4,133.7c0-1.8,2.5-3.5,4.5-3.5c1.3,0,2.3,0.7,2.3,1.7c0,1.7-2.5,3.5-4.6,3.5C232.3,135.4,231.4,134.8,231.4,133.7z"/>
</g>
<rect x="241.4" y="138.5" width="0.5" height="14.7"/>
<g>
	<path d="M241.4,138.6c0-1.8,2.5-3.5,4.5-3.5c1.3,0,2.3,0.7,2.3,1.7c0,1.7-2.5,3.5-4.6,3.5C242.4,140.3,241.4,139.7,241.4,138.6z"/>
</g>
<rect x="251.6" y="141" width="0.5" height="14"/>
<g>
	<path d="M251.7,141.1c0-1.8,2.5-3.5,4.5-3.5c1.3,0,2.3,0.7,2.3,1.7c0,1.7-2.5,3.5-4.6,3.5C252.7,142.8,251.7,142.2,251.7,141.1z"/>
</g>
<rect x="268.3" y="127.8" width="0.5" height="16.6"/>
<g>
	<path d="M266,142.5c1.6,0,2.7,0.7,2.7,2c0,1.9-2.3,3.4-4.5,3.4c-1.3,0-2.4-0.7-2.4-1.8C261.8,144.3,264,142.5,266,142.5z
		 M262.2,146.4c0,0.6,0.4,0.9,1.1,0.9c1.4,0,4.9-2.1,4.9-3.3c0-0.6-0.4-0.9-1.1-0.9C265.9,143.1,262.2,145.1,262.2,146.4z"/>
</g>
<rect x="306.2" y="141" width="0.5" height="14"/>
<g>
	<path d="M306.2,141.1c0-1.8,2.5-3.5,4.5-3.5c1.3,0,2.3,0.7,2.3,1.7c0,1.7-2.5,3.5-4.6,3.5C307.2,142.8,306.2,142.2,306.2,141.1z"/>
</g>
<rect x="320.4" y="138.5" width="0.5" height="14.6"/>
<g>
	<path d="M320.5,138.6c0-1.8,2.5-3.5,4.5-3.5c1.3,0,2.3,0.7,2.3,1.7c0,1.7-2.5,3.5-4.6,3.5C321.5,140.3,320.5,139.7,320.5,138.6z"/>
</g>
<g>
	<path d="M318.1,130.9v2.8l1-0.3v1.8l-1,0.3v3.4l1-0.3v1.8l-1,0.3v3.1h-0.5v-3l-1.9,0.6v3h-0.5v-2.8l-1,0.3v-1.8l1-0.3v-3.4l-1,0.3
		V135l1-0.3v-3.1h0.5v3l1.9-0.6v-3H318.1z M317.6,135.7l-1.9,0.6v3.4l1.9-0.6V135.7z"/>
</g>
<rect x="330.7" y="133.6" width="0.5" height="18.1"/>
<g>
	<path d="M330.7,133.7c0-1.8,2.5-3.5,4.5-3.5c1.3,0,2.3,0.7,2.3,1.7c0,1.7-2.5,3.5-4.6,3.5C331.7,135.4,330.7,134.8,330.7,133.7z"/>
</g>
<rect x="342.4" y="128.6" width="0.5" height="21.4"/>
<g>
	<path d="M342.5,128.7c0-1.8,2.5-3.5,4.5-3.5c1.3,0,2.3,0.7,2.3,1.7c0,1.7-2.5,3.5-4.6,3.5C343.5,130.4,342.5,129.8,342.5,128.7z"/>
</g>
<rect x="368.8" y="141" width="0.5" height="14"/>
<g>
	<path d="M368.9,141.1c0-1.8,2.5-3.5,4.5-3.5c1.3,0,2.3,0.7,2.3,1.7c0,1.7-2.5,3.5-4.6,3.5C369.8,142.8,368.9,142.2,368.9,141.1z"/>
</g>
<rect x="383.1" y="138.5" width="0.5" height="14.4"/>
<g>
	<path d="M383.1,138.6c0-1.8,2.5-3.5,4.5-3.5c1.3,0,2.3,0.7,2.3,1.7c0,1.7-2.5,3.5-4.6,3.5C384.1,140.3,383.1,139.7,383.1,138.6z"/>
</g>
<rect x="393.1" y="133.6" width="0.5" height="18"/>
<g>
	<path d="M393.2,133.7c0-1.8,2.5-3.5,4.5-3.5c1.3,0,2.3,0.7,2.3,1.7c0,1.7-2.5,3.5-4.6,3.5C394.2,135.4,393.2,134.8,393.2,133.7z"/>
</g>
<rect x="403.2" y="128.6" width="0.5" height="21.4"/>
<g>
	<path d="M403.3,128.7c0-1.8,2.5-3.5,4.5-3.5c1.3,0,2.3,0.7,2.3,1.7c0,1.7-2.5,3.5-4.6,3.5C404.3,130.4,403.3,129.8,403.3,128.7z"/>
</g>
<rect x="413.4" y="123.7" width="0.5" height="22.6"/>
<g>
	<path d="M413.5,123.7c0-1.8,2.5-3.5,4.5-3.5c1.3,0,2.3,0.7,2.3,1.7c0,1.7-2.5,3.5-4.6,3.5C414.5,125.5,413.5,124.8,413.5,123.7z"/>
</g>
<rect x="423.5" y="128.6" width="0.5" height="19.2"/>
<g>
	<path d="M423.6,128.7c0-1.8,2.5-3.5,4.5-3.5c1.3,0,2.3,0.7,2.3,1.7c0,1.7-2.5,3.5-4.6,3.5C424.6,130.4,423.6,129.8,423.6,128.7z"/>
</g>
<rect x="433.7" y="133.6" width="0.5" height="16"/>
<g>
	<path d="M433.8,133.7c0-1.8,2.5-3.5,4.5-3.5c1.3,0,2.3,0.7,2.3,1.7c0,1.7-2.5,3.5-4.6,3.5C434.8,135.4,433.8,134.8,433.8,133.7z"/>
</g>
<rect x="443.8" y="138.5" width="0.5" height="12.7"/>
<g>
	<path d="M443.9,138.6c0-1.8,2.5-3.5,4.5-3.5c1.3,0,2.3,0.7,2.3,1.7c0,1.7-2.5,3.5-4.6,3.5C444.9,140.3,443.9,139.7,443.9,138.6z"/>
</g>
<rect x="470.2" y="123.7" width="0.5" height="22.6"/>
<g>
	<path d="M470.2,123.7c0-1.8,2.5-3.5,4.5-3.5c1.3,0,2.3,0.7,2.3,1.7c0,1.7-2.5,3.5-4.6,3.5C471.2,125.5,470.2,124.8,470.2,123.7z"/>
</g>
<rect x="482" y="128.6" width="0.5" height="19.4"/>
<g>
	<path d="M482,128.7c0-1.8,2.5-3.5,4.5-3.5c1.3,0,2.3,0.7,2.3,1.7c0,1.7-2.5,3.5-4.6,3.5C483,130.4,482,129.8,482,128.7z"/>
</g>
<rect x="493.7" y="133.6" width="0.5" height="16.1"/>
<g>
	<path d="M493.8,133.7c0-1.8,2.5-3.5,4.5-3.5c1.3,0,2.3,0.7,2.3,1.7c0,1.7-2.5,3.5-4.6,3.5C494.8,135.4,493.8,134.8,493.8,133.7z"/>
</g>
<rect x="504" y="138.5" width="0.5" height="12.7"/>
<g>
	<path d="M504,138.6c0-1.8,2.5-3.5,4.5-3.5c1.3,0,2.3,0.7,2.3,1.7c0,1.7-2.5,3.5-4.6,3.5C505,140.3,504,139.7,504,138.6z"/>
</g>
<rect x="520.7" y="122.9" width="0.5" height="16.6"/>
<g>
	<path d="M518.4,137.5c1.6,0,2.7,0.7,2.7,2c0,1.9-2.3,3.4-4.5,3.4c-1.3,0-2.4-0.7-2.4-1.8C514.1,139.3,516.4,137.5,518.4,137.5z
		 M514.6,141.4c0,0.6,0.4,0.9,1.1,0.9c1.4,0,4.9-2.1,4.9-3.3c0-0.6-0.4-0.9-1.1-0.9C518.2,138.1,514.6,140.2,514.6,141.4z"/>
</g>
<rect x="49.3" y="180.7" width="0.5" height="16.4"/>
<g>
	<path d="M49.4,180.8c0-1.8,2.5-3.5,4.5-3.5c1.3,0,2.3,0.7,2.3,1.7c0,1.7-2.5,3.5-4.6,3.5C50.4,182.5,49.4,181.9,49.4,180.8z"/>
</g>
<rect x="59.4" y="175.7" width="0.5" height="20"/>
<g>
	<path d="M59.5,175.8c0-1.8,2.5-3.5,4.5-3.5c1.3,0,2.3,0.7,2.3,1.7c0,1.7-2.5,3.5-4.6,3.5C60.4,177.5,59.5,176.9,59.5,175.8z"/>
</g>
<rect x="73.6" y="173.3" width="0.5" height="20.5"/>
<g>
	<path d="M73.7,173.3c0-1.8,2.5-3.5,4.5-3.5c1.3,0,2.3,0.7,2.3,1.7c0,1.7-2.5,3.5-4.6,3.5C74.7,175.1,73.7,174.4,73.7,173.3z"/>
</g>
<g>
	<path d="M71.3,165.7v2.8l1-0.3v1.8l-1,0.3v3.4l1-0.3v1.8l-1,0.3v3.1h-0.5v-3l-1.9,0.6v3h-0.5v-2.8l-1,0.3V175l1-0.3v-3.4l-1,0.3
		v-1.8l1-0.3v-3.1h0.5v3l1.9-0.6v-3H71.3z M70.8,170.4l-1.9,0.6v3.4l1.9-0.6V170.4z"/>
</g>
<rect x="82.1" y="167.1" width="10.5" height="0.8"/>
<rect x="83.9" y="168.3" width="0.5" height="23.9"/>
<g>
	<path d="M84,168.4c0-1.8,2.5-3.5,4.5-3.5c1.3,0,2.3,0.7,2.3,1.7c0,1.7-2.5,3.5-4.6,3.5C84.9,170.1,84,169.5,84,168.4z"/>
</g>
<rect x="116.7" y="171.4" width="0.5" height="20.2"/>
<g>
	<path d="M110.3,193.2c0-1.8,2.5-3.5,4.5-3.5c1.3,0,2.3,0.7,2.3,1.7c0,1.7-2.5,3.5-4.6,3.5C111.3,194.9,110.3,194.3,110.3,193.2z"/>
</g>
<rect x="126.8" y="170.2" width="0.5" height="16.4"/>
<g>
	<path d="M120.4,188.2c0-1.8,2.5-3.5,4.5-3.5c1.3,0,2.3,0.7,2.3,1.7c0,1.7-2.5,3.5-4.6,3.5C121.4,189.9,120.4,189.3,120.4,188.2z"/>
</g>
<rect x="142.3" y="168.1" width="0.5" height="16"/>
<g>
	<path d="M135.9,185.7c0-1.8,2.5-3.5,4.5-3.5c1.3,0,2.3,0.7,2.3,1.7c0,1.7-2.5,3.5-4.6,3.5C136.9,187.5,135.9,186.8,135.9,185.7z"/>
</g>
<g>
	<path d="M133.5,178.1v2.8l1-0.3v1.8l-1,0.3v3.4l1-0.3v1.8l-1,0.3v3.1H133v-3l-1.9,0.6v3h-0.5v-2.8l-1,0.3v-1.8l1-0.3v-3.4l-1,0.3
		v-1.8l1-0.3v-3.1h0.5v3l1.9-0.6v-3H133.5z M133,182.8l-1.9,0.6v3.4l1.9-0.6V182.8z"/>
</g>
<rect x="154.1" y="166.4" width="0.5" height="12.7"/>
<g>
	<path d="M147.7,180.8c0-1.8,2.5-3.5,4.5-3.5c1.3,0,2.3,0.7,2.3,1.7c0,1.7-2.5,3.5-4.6,3.5C148.6,182.5,147.7,181.9,147.7,180.8z"/>
</g>
<rect x="159.4" y="175.7" width="0.5" height="21.4"/>
<g>
	<path d="M159.4,175.8c0-1.8,2.5-3.5,4.5-3.5c1.3,0,2.3,0.7,2.3,1.7c0,1.7-2.5,3.5-4.6,3.5C160.4,177.5,159.4,176.9,159.4,175.8z"/>
</g>
<rect x="171.1" y="180.7" width="0.5" height="18.1"/>
<g>
	<path d="M171.2,180.8c0-1.8,2.5-3.5,4.5-3.5c1.3,0,2.3,0.7,2.3,1.7c0,1.7-2.5,3.5-4.6,3.5C172.2,182.5,171.2,181.9,171.2,180.8z"/>
</g>
<rect x="182.9" y="185.7" width="0.5" height="14.9"/>
<g>
	<path d="M183,185.7c0-1.8,2.5-3.5,4.5-3.5c1.3,0,2.3,0.7,2.3,1.7c0,1.7-2.5,3.5-4.6,3.5C184,187.5,183,186.8,183,185.7z"/>
</g>
<rect x="193.2" y="188.1" width="0.5" height="14"/>
<g>
	<path d="M193.2,188.2c0-1.8,2.5-3.5,4.5-3.5c1.3,0,2.3,0.7,2.3,1.7c0,1.7-2.5,3.5-4.6,3.5C194.2,189.9,193.2,189.3,193.2,188.2z"/>
</g>
<rect x="217.7" y="167.1" width="10.5" height="0.8"/>
<rect x="217.7" y="162.2" width="10.5" height="0.8"/>
<rect x="219.5" y="163.3" width="0.5" height="23.9"/>
<g>
	<path d="M219.6,163.4c0-1.8,2.5-3.5,4.5-3.5c1.3,0,2.3,0.7,2.3,1.7c0,1.7-2.5,3.5-4.6,3.5C220.6,165.1,219.6,164.5,219.6,163.4z"/>
</g>
<rect x="229.5" y="167.1" width="10.5" height="0.8"/>
<rect x="231.3" y="168.3" width="0.5" height="20.6"/>
<g>
	<path d="M231.4,168.4c0-1.8,2.5-3.5,4.5-3.5c1.3,0,2.3,0.7,2.3,1.7c0,1.7-2.5,3.5-4.6,3.5C232.3,170.1,231.4,169.5,231.4,168.4z"/>
</g>
<rect x="241.4" y="173.3" width="0.5" height="17.2"/>
<g>
	<path d="M241.4,173.3c0-1.8,2.5-3.5,4.5-3.5c1.3,0,2.3,0.7,2.3,1.7c0,1.7-2.5,3.5-4.6,3.5C242.4,175.1,241.4,174.4,241.4,173.3z"/>
</g>
<rect x="251.6" y="175.7" width="0.5" height="16.4"/>
<g>
	<path d="M251.7,175.8c0-1.8,2.5-3.5,4.5-3.5c1.3,0,2.3,0.7,2.3,1.7c0,1.7-2.5,3.5-4.6,3.5C252.7,177.5,251.7,176.9,251.7,175.8z"/>
</g>
<rect x="261.7" y="180.7" width="0.5" height="16.6"/>
<g>
	<path d="M266,177.2c1.6,0,2.7,0.7,2.7,2c0,1.9-2.3,3.4-4.5,3.4c-1.3,0-2.4-0.7-2.4-1.8C261.8,179,264,177.2,266,177.2z
		 M262.2,181.1c0,0.6,0.4,0.9,1.1,0.9c1.4,0,4.9-2.1,4.9-3.3c0-0.6-0.4-0.9-1.1-0.9C265.9,177.8,262.2,179.8,262.2,181.1z"/>
</g>
<rect x="306.2" y="175.7" width="0.5" height="16.4"/>
<g>
	<path d="M306.2,175.8c0-1.8,2.5-3.5,4.5-3.5c1.3,0,2.3,0.7,2.3,1.7c0,1.7-2.5,3.5-4.6,3.5C307.2,177.5,306.2,176.9,306.2,175.8z"/>
</g>
<rect x="320.4" y="173.3" width="0.5" height="17.1"/>
<g>
	<path d="M320.5,173.3c0-1.8,2.5-3.5,4.5-3.5c1.3,0,2.3,0.7,2.3,1.7c0,1.7-2.5,3.5-4.6,3.5C321.5,175.1,320.5,174.4,320.5,173.3z"/>
</g>
<g>
	<path d="M318.1,165.7v2.8l1-0.3v1.8l-1,0.3v3.4l1-0.3v1.8l-1,0.3v3.1h-0.5v-3l-1.9,0.6v3h-0.5v-2.8l-1,0.3V175l1-0.3v-3.4l-1,0.3
		v-1.8l1-0.3v-3.1h0.5v3l1.9-0.6v-3H318.1z M317.6,170.4l-1.9,0.6v3.4l1.9-0.6V170.4z"/>
</g>
<rect x="328.9" y="167.1" width="10.5" height="0.8"/>
<rect x="330.7" y="168.3" width="0.5" height="20.6"/>
<g>
	<path d="M330.7,168.4c0-1.8,2.5-3.5,4.5-3.5c1.3,0,2.3,0.7,2.3,1.7c0,1.7-2.5,3.5-4.6,3.5C331.7,170.1,330.7,169.5,330.7,168.4z"/>
</g>
<rect x="340.7" y="167.1" width="10.5" height="0.8"/>
<rect x="340.7" y="162.2" width="10.5" height="0.8"/>
<rect x="342.4" y="163.3" width="0.5" height="23.9"/>
<g>
	<path d="M342.5,163.4c0-1.8,2.5-3.5,4.5-3.5c1.3,0,2.3,0.7,2.3,1.7c0,1.7-2.5,3.5-4.6,3.5C343.5,165.1,342.5,164.5,342.5,163.4z"/>
</g>
<rect x="368.8" y="188.1" width="0.5" height="14"/>
<g>
	<path d="M368.9,188.2c0-1.8,2.5-3.5,4.5-3.5c1.3,0,2.3,0.7,2.3,1.7c0,1.7-2.5,3.5-4.6,3.5C369.8,189.9,368.9,189.3,368.9,188.2z"/>
</g>
<rect x="383.1" y="185.7" width="0.5" height="14.4"/>
<g>
	<path d="M383.1,185.7c0-1.8,2.5-3.5,4.5-3.5c1.3,0,2.3,0.7,2.3,1.7c0,1.7-2.5,3.5-4.6,3.5C384.1,187.5,383.1,186.8,383.1,185.7z"/>
</g>
<g>
	<path d="M380.7,178.1v2.8l1-0.3v1.8l-1,0.3v3.4l1-0.3v1.8l-1,0.3v3.1h-0.5v-3l-1.9,0.6v3h-0.5v-2.8l-1,0.3v-1.8l1-0.3v-3.4l-1,0.3
		v-1.8l1-0.3v-3.1h0.5v3l1.9-0.6v-3H380.7z M380.2,182.8l-1.9,0.6v3.4l1.9-0.6V182.8z"/>
</g>
<rect x="393.1" y="180.7" width="0.5" height="18"/>
<g>
	<path d="M393.2,180.8c0-1.8,2.5-3.5,4.5-3.5c1.3,0,2.3,0.7,2.3,1.7c0,1.7-2.5,3.5-4.6,3.5C394.2,182.5,393.2,181.9,393.2,180.8z"/>
</g>
<rect x="403.2" y="175.7" width="0.5" height="21.4"/>
<g>
	<path d="M403.3,175.8c0-1.8,2.5-3.5,4.5-3.5c1.3,0,2.3,0.7,2.3,1.7c0,1.7-2.5,3.5-4.6,3.5C404.3,177.5,403.3,176.9,403.3,175.8z"/>
</g>
<rect x="413.4" y="170.8" width="0.5" height="22.6"/>
<g>
	<path d="M413.5,170.9c0-1.8,2.5-3.5,4.5-3.5c1.3,0,2.3,0.7,2.3,1.7c0,1.7-2.5,3.5-4.6,3.5C414.5,172.6,413.5,172,413.5,170.9z"/>
</g>
<rect x="423.5" y="175.7" width="0.5" height="19.2"/>
<g>
	<path d="M423.6,175.8c0-1.8,2.5-3.5,4.5-3.5c1.3,0,2.3,0.7,2.3,1.7c0,1.7-2.5,3.5-4.6,3.5C424.6,177.5,423.6,176.9,423.6,175.8z"/>
</g>
<rect x="433.7" y="180.7" width="0.5" height="16"/>
<g>
	<path d="M433.8,180.8c0-1.8,2.5-3.5,4.5-3.5c1.3,0,2.3,0.7,2.3,1.7c0,1.7-2.5,3.5-4.6,3.5C434.8,182.5,433.8,181.9,433.8,180.8z"/>
</g>
<rect x="443.8" y="185.7" width="0.5" height="12.7"/>
<g>
	<path d="M443.9,185.7c0-1.8,2.5-3.5,4.5-3.5c1.3,0,2.3,0.7,2.3,1.7c0,1.7-2.5,3.5-4.6,3.5C444.9,187.5,443.9,186.8,443.9,185.7z"/>
</g>
<rect x="468.4" y="167.1" width="10.5" height="0.8"/>
<rect x="468.4" y="162.2" width="10.5" height="0.8"/>
<rect x="468.4" y="157.2" width="10.5" height="0.8"/>
<rect x="470.2" y="158.4" width="0.5" height="23.9"/>
<g>
	<path d="M470.2,158.5c0-1.8,2.5-3.5,4.5-3.5c1.3,0,2.3,0.7,2.3,1.7c0,1.7-2.5,3.5-4.6,3.5C471.2,160.2,470.2,159.6,470.2,158.5z"/>
</g>
<rect x="480.2" y="167.1" width="10.5" height="0.8"/>
<rect x="480.2" y="162.2" width="10.5" height="0.8"/>
<rect x="482" y="163.3" width="0.5" height="20.6"/>
<g>
	<path d="M482,163.4c0-1.8,2.5-3.5,4.5-3.5c1.3,0,2.3,0.7,2.3,1.7c0,1.7-2.5,3.5-4.6,3.5C483,165.1,482,164.5,482,163.4z"/>
</g>
<rect x="492" y="167.1" width="10.5" height="0.8"/>
<rect x="493.7" y="168.3" width="0.5" height="17.4"/>
<g>
	<path d="M493.8,168.4c0-1.8,2.5-3.5,4.5-3.5c1.3,0,2.3,0.7,2.3,1.7c0,1.7-2.5,3.5-4.6,3.5C494.8,170.1,493.8,169.5,493.8,168.4z"/>
</g>
<rect x="504" y="173.3" width="0.5" height="14"/>
<g>
	<path d="M504,173.3c0-1.8,2.5-3.5,4.5-3.5c1.3,0,2.3,0.7,2.3,1.7c0,1.7-2.5,3.5-4.6,3.5C505,175.1,504,174.4,504,173.3z"/>
</g>
<rect x="514" y="175.7" width="0.5" height="16.6"/>
<g>
	<path d="M518.4,172.3c1.6,0,2.7,0.7,2.7,2c0,1.9-2.3,3.4-4.5,3.4c-1.3,0-2.4-0.7-2.4-1.8C514.1,174.1,516.4,172.3,518.4,172.3z
		 M514.6,176.1c0,0.6,0.4,0.9,1.1,0.9c1.4,0,4.9-2.1,4.9-3.3c0-0.6-0.4-0.9-1.1-0.9C518.2,172.9,514.6,174.9,514.6,176.1z"/>
</g>
</svg>
