<?xml version="1.0" encoding="utf-8"?>

<!--
	ScaleBook
	Copyright (c) Leland Jansen 2015. All rights reserved.
-->

<!DOCTYPE svg PUBLIC "-//W3C//DTD SVG 1.1//EN" "http://www.w3.org/Graphics/SVG/1.1/DTD/svg11.dtd">
<svg version="1.1" id="Layer_1" xmlns="http://www.w3.org/2000/svg" xmlns:xlink="http://www.w3.org/1999/xlink" x="0px" y="0px"
	 viewBox="0 0 553 212.4" enable-background="new 0 0 553 212.4" xml:space="preserve">
<rect x="8.4" y="17.5" width="0.8" height="67"/>
<g>
	<path d="M7.4,18.1c-1.9,1.1-3.6,5.8-3.6,9.4c0,2.3,1.4,9.9,1.4,12.3c0,5-1.5,8.6-4.6,11.1c3,2.4,4.6,6.1,4.6,11.1
		c0,2.3-1.4,9.9-1.4,12.3c0,3.8,1.7,8.4,3.6,9.5v0.7c-3.5-2.3-5.8-8.2-5.8-13.1c0-2.1,1.7-9.4,1.7-11.5c0-3.8-1-6.6-2.9-8.2
		C0.1,51.4,0,51.2,0,51c0-0.2,0.1-0.4,0.5-0.7c1.9-1.7,2.9-4.2,2.9-7.6c0-2.1-1.7-10-1.7-12.2c0-5.2,2.1-10.4,5.8-13.1V18.1z"/>
</g>
<rect x="8.4" y="130.3" width="0.8" height="67"/>
<g>
	<path d="M7.4,131c-1.9,1.1-3.6,5.8-3.6,9.4c0,2.3,1.4,9.9,1.4,12.3c0,5-1.5,8.6-4.6,11.1c3,2.4,4.6,6.1,4.6,11.1
		c0,2.3-1.4,9.9-1.4,12.3c0,3.8,1.7,8.4,3.6,9.5v0.7c-3.5-2.3-5.8-8.2-5.8-13.1c0-2.1,1.7-9.4,1.7-11.5c0-3.8-1-6.6-2.9-8.2
		C0.1,164.2,0,164,0,163.8c0-0.2,0.1-0.4,0.5-0.7c1.9-1.7,2.9-4.2,2.9-7.6c0-2.1-1.7-10-1.7-12.2c0-5.2,2.1-10.4,5.8-13.1V131z"/>
</g>
<rect x="296.4" y="17.5" width="0.8" height="67"/>
<rect x="299" y="17.5" width="0.8" height="67"/>
<rect x="549.5" y="17.5" width="0.8" height="67"/>
<rect x="552.2" y="17.5" width="0.8" height="67"/>
<rect x="305.7" y="130.3" width="0.8" height="67"/>
<rect x="308.3" y="130.3" width="0.8" height="67"/>
<rect x="547.8" y="130.3" width="0.8" height="67"/>
<rect x="550.4" y="130.3" width="2.5" height="67"/>
<rect x="8.5" y="37.1" width="544.4" height="0.5"/>
<rect x="8.5" y="32.1" width="544.4" height="0.5"/>
<rect x="8.5" y="27.2" width="544.4" height="0.5"/>
<rect x="8.5" y="22.2" width="544.4" height="0.5"/>
<rect x="8.5" y="17.2" width="544.4" height="0.5"/>
<g>
	<path d="M20.3,37.2c-4.2,0-8.1-3.1-8.1-6.9c0-3.2,2.3-6.7,6.8-10.5c-0.3-1.2-0.4-2.4-0.4-3.6c0-3.5,1.2-6.8,3.2-8.5
		c1.8,2.5,2.7,4.9,2.7,7.1c0,2.9-1.3,5.6-4.3,8.1l0.9,4.2c0.5,0,0.8-0.1,0.8-0.1c2.6,0,4.8,2,4.8,4.7c0,1.9-1.4,3.7-3.6,4.8
		c0-0.1,0.9,3.8,0.9,4.3c0,2.5-2.3,4.2-4.9,4.2c-2,0-3.6-1.3-3.6-3.4c0-1.4,1-2.6,2.4-2.6c1.3,0,2.3,1.3,2.3,2.5
		c0,1.4-1.2,2.3-2.7,2.5c0.6,0.3,1.2,0.5,1.9,0.5c2.1,0,4.1-1.6,4.1-3.6c0-0.2,0-0.4-0.1-0.6l-0.8-3.7C21.9,37,21.2,37.2,20.3,37.2z
		 M18.1,31.9c0,1,0.5,1.9,1.6,2.5c-1.8-0.3-3-1.4-3-3.1c0-2,1.7-3.7,3.8-4.1l-0.8-4C16,26,14,28.8,14,31.4c0,2.9,2.8,5.3,6,5.3
		c0.9,0,1.7-0.2,2.4-0.5L21,29.3C19.4,29.6,18.1,30.6,18.1,31.9z M22.1,10.6c-1.6,0-2.9,3.7-2.9,7c0,0.7,0,1.3,0.2,1.9
		c2.7-2.4,4-4.5,4-6.5c0-0.9-0.3-1.7-1-2.4C22.4,10.6,22.3,10.6,22.1,10.6z M24.9,32.5c0-1.6-1.2-3.3-2.9-3.3c-0.1,0-0.2,0-0.5,0
		l1.4,6.6C24.2,34.9,24.9,33.8,24.9,32.5z"/>
</g>
<g>
	<path d="M33.5,10.7v2.8l1-0.3V15l-1,0.3v3.4l1-0.3v1.8l-1,0.3v3.1H33v-3l-1.9,0.6v3h-0.5v-2.8l-1,0.3V20l1-0.3v-3.4l-1,0.3v-1.8
		l1-0.3v-3.1h0.5v3l1.9-0.6v-3H33.5z M33,15.4l-1.9,0.6v3.4l1.9-0.6V15.4z"/>
</g>
<g>
	<path d="M39.7,18.1v2.8l1-0.3v1.8l-1,0.3v3.4l1-0.3v1.8l-1,0.3v3.1h-0.5v-3l-1.9,0.6v3h-0.5v-2.8l-1,0.3v-1.8l1-0.3v-3.4l-1,0.3
		v-1.8l1-0.3v-3.1h0.5v3l1.9-0.6v-3H39.7z M39.2,22.9l-1.9,0.6v3.4l1.9-0.6V22.9z"/>
</g>
<g>
	<path d="M45.9,8.2V11l1-0.3v1.8l-1,0.3v3.4l1-0.3v1.8l-1,0.3v3.1h-0.5v-3l-1.9,0.6v3H43V19l-1,0.3v-1.8l1-0.3v-3.4l-1,0.3v-1.8
		l1-0.3V8.8h0.5v3l1.9-0.6v-3H45.9z M45.4,13l-1.9,0.6V17l1.9-0.6V13z"/>
</g>
<g>
	<path d="M52.1,15.6v2.8l1-0.3v1.8l-1,0.3v3.4l1-0.3v1.8l-1,0.3v3.1h-0.5v-3l-1.9,0.6v3h-0.5v-2.8l-1,0.3v-1.8l1-0.3v-3.4l-1,0.3
		v-1.8l1-0.3v-3.1h0.5v3l1.9-0.6v-3H52.1z M51.6,20.4L49.7,21v3.4l1.9-0.6V20.4z"/>
</g>
<g>
	<path d="M58.3,23.1v2.8l1-0.3v1.8l-1,0.3v3.4l1-0.3v1.8l-1,0.3V36h-0.5v-3l-1.9,0.6v3h-0.5v-2.8l-1,0.3v-1.8l1-0.3v-3.4l-1,0.3
		v-1.8l1-0.3v-3.1h0.5v3l1.9-0.6v-3H58.3z M57.8,27.8l-1.9,0.6v3.4l1.9-0.6V27.8z"/>
</g>
<g>
	<path d="M64.5,13.1V16l1-0.3v1.8l-1,0.3v3.4l1-0.3v1.8l-1,0.3v3.1H64v-3l-1.9,0.6v3h-0.5v-2.8l-1,0.3v-1.8l1-0.3v-3.4l-1,0.3v-1.8
		l1-0.3v-3.1h0.5v3l1.9-0.6v-3H64.5z M64,17.9l-1.9,0.6V22l1.9-0.6V17.9z"/>
</g>
<polygon fill-rule="evenodd" clip-rule="evenodd" points="82.7,23.7 110,18.7 110,16.2 82.7,21.2 "/>
<polygon fill-rule="evenodd" clip-rule="evenodd" points="82.7,20 110,15 110,12.5 82.7,17.5 "/>
<polygon fill-rule="evenodd" clip-rule="evenodd" points="135.6,38.6 163.9,33.6 163.9,31.1 135.6,36.1 "/>
<polygon fill-rule="evenodd" clip-rule="evenodd" points="135.6,42.3 163.9,37.3 163.9,34.8 135.6,39.8 "/>
<polygon fill-rule="evenodd" clip-rule="evenodd" points="181.5,28.6 211.8,33.6 211.8,31.1 181.5,26.2 "/>
<polygon fill-rule="evenodd" clip-rule="evenodd" points="181.5,32.4 211.8,37.3 211.8,34.8 181.5,29.9 "/>
<polygon fill-rule="evenodd" clip-rule="evenodd" points="244.7,13.8 272,18.7 272,16.2 244.7,11.3 "/>
<polygon fill-rule="evenodd" clip-rule="evenodd" points="244.7,10 272,15 272,12.5 244.7,7.6 "/>
<polygon fill-rule="evenodd" clip-rule="evenodd" points="313.8,18.7 346.7,13.8 346.7,11.3 313.8,16.2 "/>
<polygon fill-rule="evenodd" clip-rule="evenodd" points="313.8,15 346.7,10 346.7,7.6 313.8,12.5 "/>
<polygon fill-rule="evenodd" clip-rule="evenodd" points="366.5,33.6 402.7,28.6 402.7,26.2 366.5,31.1 "/>
<polygon fill-rule="evenodd" clip-rule="evenodd" points="366.5,37.3 402.7,32.4 402.7,29.9 366.5,34.8 "/>
<polygon fill-rule="evenodd" clip-rule="evenodd" points="414.4,23.7 447.9,28.6 447.9,26.2 414.4,21.2 "/>
<polygon fill-rule="evenodd" clip-rule="evenodd" points="414.4,27.4 447.9,32.4 447.9,29.9 414.4,24.9 "/>
<polygon fill-rule="evenodd" clip-rule="evenodd" points="474.3,38.6 504.7,43.5 504.7,41 474.3,36.1 "/>
<polygon fill-rule="evenodd" clip-rule="evenodd" points="474.3,42.3 504.7,47.2 504.7,44.8 474.3,39.8 "/>
<rect x="8.5" y="84.2" width="544.4" height="0.5"/>
<rect x="8.5" y="79.3" width="544.4" height="0.5"/>
<rect x="8.5" y="74.3" width="544.4" height="0.5"/>
<rect x="8.5" y="69.3" width="544.4" height="0.5"/>
<rect x="8.5" y="64.4" width="544.4" height="0.5"/>
<g>
	<path d="M15.7,78.8c2.9-2.6,4.7-6.1,4.7-9.2c0-2.5-1.4-4.4-3.7-4.4c-1.6,0-3.4,1.3-3.4,2.7c0,0.2,0,0.3,0.1,0.3
		c-0.1,0,0.6-0.6,1.4-0.6c0.9,0,1.5,0.8,1.5,1.7c0,1.2-0.9,2.2-2.1,2.2c-1.2,0-2.1-1.3-2.1-2.8c0-2.3,2.3-4.1,4.8-4.1
		c4.7,0,5.9,3.2,5.9,5.8c0,1.6-0.4,2.9-2,5.3C19.1,78.7,14.6,81,13,81c-0.4,0-0.6-0.2-0.6-0.5C13.8,80.1,14.9,79.5,15.7,78.8z
		 M25.7,66.1c0.6,0,1,0.4,1,1c0,0.6-0.4,1-1,1s-1-0.4-1-1C24.7,66.5,25.1,66.1,25.7,66.1z M25.7,71c0.6,0,1,0.4,1,1c0,0.6-0.4,1-1,1
		s-1-0.4-1-1C24.7,71.5,25.1,71,25.7,71z"/>
</g>
<g>
	<path d="M33.5,62.7v2.8l1-0.3V67l-1,0.3v3.4l1-0.3v1.8l-1,0.3v3.1H33v-3l-1.9,0.6v3h-0.5v-2.8l-1,0.3v-1.8l1-0.3v-3.4l-1,0.3v-1.8
		l1-0.3v-3.1h0.5v3l1.9-0.6v-3H33.5z M33,67.5l-1.9,0.6v3.4L33,71V67.5z"/>
</g>
<g>
	<path d="M39.7,70.2V73l1-0.3v1.8l-1,0.3v3.4l1-0.3v1.8l-1,0.3v3.1h-0.5v-3l-1.9,0.6v3h-0.5V81l-1,0.3v-1.8l1-0.3v-3.4l-1,0.3v-1.8
		l1-0.3v-3.1h0.5v3l1.9-0.6v-3H39.7z M39.2,75l-1.9,0.6V79l1.9-0.6V75z"/>
</g>
<g>
	<path d="M45.9,60.3v2.8l1-0.3v1.8l-1,0.3v3.4l1-0.3v1.8l-1,0.3v3.1h-0.5v-3l-1.9,0.6v3H43V71l-1,0.3v-1.8l1-0.3v-3.4l-1,0.3v-1.8
		l1-0.3v-3.1h0.5v3l1.9-0.6v-3H45.9z M45.4,65l-1.9,0.6v3.4l1.9-0.6V65z"/>
</g>
<g>
	<path d="M52.1,67.7v2.8l1-0.3V72l-1,0.3v3.4l1-0.3v1.8l-1,0.3v3.1h-0.5v-3l-1.9,0.6v3h-0.5v-2.8l-1,0.3V77l1-0.3v-3.4l-1,0.3v-1.8
		l1-0.3v-3.1h0.5v3l1.9-0.6v-3H52.1z M51.6,72.5l-1.9,0.6v3.4l1.9-0.6V72.5z"/>
</g>
<g>
	<path d="M58.3,75.1V78l1-0.3v1.8l-1,0.3v3.4l1-0.3v1.8l-1,0.3v3.1h-0.5v-3l-1.9,0.6v3h-0.5v-2.8l-1,0.3v-1.8l1-0.3v-3.4l-1,0.3
		v-1.8l1-0.3v-3.1h0.5v3l1.9-0.6v-3H58.3z M57.8,79.9l-1.9,0.6V84l1.9-0.6V79.9z"/>
</g>
<g>
	<path d="M64.5,65.2v2.8l1-0.3v1.8l-1,0.3v3.4l1-0.3v1.8l-1,0.3v3.1H64v-3l-1.9,0.6v3h-0.5V76l-1,0.3v-1.8l1-0.3v-3.4l-1,0.3v-1.8
		l1-0.3v-3.1h0.5v3l1.9-0.6v-3H64.5z M64,70l-1.9,0.6v3.4l1.9-0.6V70z"/>
</g>
<g>
	<path d="M121.8,83.1c-3.2,0-6.1-2.3-6.1-5.1c0-2.4,1.7-5,5.1-7.9c-0.2-0.9-0.3-1.8-0.3-2.7c0-2.6,0.9-5.1,2.4-6.3
		c1.4,1.9,2,3.7,2,5.3c0,2.2-1,4.2-3.2,6.1l0.7,3.1c0.4,0,0.6,0,0.6,0c2,0,3.6,1.5,3.6,3.5c0,1.4-1.1,2.8-2.7,3.6
		c0-0.1,0.6,2.8,0.6,3.3c0,1.9-1.7,3.2-3.7,3.2c-1.5,0-2.7-1-2.7-2.5c0-1.1,0.7-1.9,1.8-1.9c1,0,1.7,1,1.7,1.9c0,1-0.9,1.7-2,1.8
		c0.4,0.2,0.9,0.3,1.4,0.3c1.6,0,3.1-1.2,3.1-2.7c0-0.1,0-0.3,0-0.5l-0.6-2.8C123,83,122.5,83.1,121.8,83.1z M120.2,79.2
		c0,0.8,0.4,1.4,1.2,1.9c-1.3-0.2-2.2-1.1-2.2-2.3c0-1.5,1.3-2.8,2.9-3.1l-0.6-3c-2.8,2.1-4.3,4.1-4.3,6.1c0,2.2,2.1,4,4.5,4
		c0.7,0,1.3-0.1,1.8-0.4l-1.1-5.1C121.1,77.4,120.2,78.1,120.2,79.2z M123.2,63.2c-1.2,0-2.2,2.8-2.2,5.3c0,0.5,0,1,0.1,1.4
		c2-1.8,3-3.4,3-4.9c0-0.7-0.3-1.3-0.7-1.8C123.4,63.2,123.3,63.2,123.2,63.2z M125.3,79.6c0-1.2-0.9-2.4-2.2-2.4c0,0-0.2,0-0.4,0
		l1.1,5C124.7,81.4,125.3,80.6,125.3,79.6z"/>
</g>
<polygon fill-rule="evenodd" clip-rule="evenodd" points="76.2,86.9 103.5,82 103.5,79.5 76.2,84.4 "/>
<polygon fill-rule="evenodd" clip-rule="evenodd" points="76.2,90.6 103.5,85.7 103.5,83.2 76.2,88.2 "/>
<polygon fill-rule="evenodd" clip-rule="evenodd" points="142.1,70.8 170.5,65.8 170.5,63.4 142.1,68.3 "/>
<polygon fill-rule="evenodd" clip-rule="evenodd" points="142.1,67.1 170.5,62.1 170.5,59.6 142.1,64.6 "/>
<g>
	<path d="M226.7,76.5c2.2-2,3.6-4.6,3.6-6.9c0-1.9-1.1-3.3-2.8-3.3c-1.2,0-2.5,1-2.5,2.1c0,0.2,0,0.2,0.1,0.2c0,0,0.4-0.5,1-0.5
		c0.7,0,1.2,0.6,1.2,1.3c0,0.9-0.6,1.7-1.6,1.7c-0.9,0-1.5-1-1.5-2.1c0-1.8,1.7-3.1,3.6-3.1c3.5,0,4.4,2.4,4.4,4.4
		c0,1.2-0.3,2.2-1.5,4c-1.4,2.3-4.8,4-6,4c-0.3,0-0.5-0.1-0.5-0.3C225.3,77.4,226.2,77,226.7,76.5z M234.2,67c0.4,0,0.7,0.3,0.7,0.7
		c0,0.4-0.3,0.7-0.7,0.7s-0.7-0.3-0.7-0.7C233.5,67.3,233.8,67,234.2,67z M234.2,70.7c0.4,0,0.7,0.3,0.7,0.7s-0.3,0.7-0.7,0.7
		s-0.7-0.3-0.7-0.7S233.8,70.7,234.2,70.7z"/>
</g>
<polygon fill-rule="evenodd" clip-rule="evenodd" points="188,60.9 218.4,65.8 218.4,63.4 188,58.4 "/>
<polygon fill-rule="evenodd" clip-rule="evenodd" points="188,57.2 218.4,62.1 218.4,59.6 188,54.7 "/>
<polygon fill-rule="evenodd" clip-rule="evenodd" points="238.2,80.7 265.5,85.7 265.5,83.2 238.2,78.2 "/>
<polygon fill-rule="evenodd" clip-rule="evenodd" points="238.2,84.4 265.5,89.4 265.5,86.9 238.2,82 "/>
<g>
	<path d="M360.4,83.1c-3.2,0-6.1-2.3-6.1-5.1c0-2.4,1.7-5,5.1-7.9c-0.2-0.9-0.3-1.8-0.3-2.7c0-2.6,0.9-5.1,2.4-6.3
		c1.4,1.9,2,3.7,2,5.3c0,2.2-1,4.2-3.2,6.1l0.7,3.1c0.4,0,0.6,0,0.6,0c2,0,3.6,1.5,3.6,3.5c0,1.4-1.1,2.8-2.7,3.6
		c0-0.1,0.6,2.8,0.6,3.3c0,1.9-1.7,3.2-3.7,3.2c-1.5,0-2.7-1-2.7-2.5c0-1.1,0.7-1.9,1.8-1.9c1,0,1.7,1,1.7,1.9c0,1-0.9,1.7-2,1.8
		c0.4,0.2,0.9,0.3,1.4,0.3c1.6,0,3.1-1.2,3.1-2.7c0-0.1,0-0.3,0-0.5l-0.6-2.8C361.6,83,361.1,83.1,360.4,83.1z M358.7,79.2
		c0,0.8,0.4,1.4,1.2,1.9c-1.3-0.2-2.2-1.1-2.2-2.3c0-1.5,1.3-2.8,2.9-3.1l-0.6-3c-2.8,2.1-4.3,4.1-4.3,6.1c0,2.2,2.1,4,4.5,4
		c0.7,0,1.3-0.1,1.8-0.4l-1.1-5.1C359.7,77.4,358.7,78.1,358.7,79.2z M361.8,63.2c-1.2,0-2.2,2.8-2.2,5.3c0,0.5,0,1,0.1,1.4
		c2-1.8,3-3.4,3-4.9c0-0.7-0.3-1.3-0.7-1.8C362,63.2,361.9,63.2,361.8,63.2z M363.8,79.6c0-1.2-0.9-2.4-2.2-2.4c0,0-0.2,0-0.4,0
		l1.1,5C363.3,81.4,363.8,80.6,363.8,79.6z"/>
</g>
<polygon fill-rule="evenodd" clip-rule="evenodd" points="307.3,85.7 340.2,80.7 340.2,78.2 307.3,83.2 "/>
<polygon fill-rule="evenodd" clip-rule="evenodd" points="307.3,89.4 340.2,84.4 340.2,82 307.3,86.9 "/>
<polygon fill-rule="evenodd" clip-rule="evenodd" points="373.1,65.8 409.2,60.9 409.2,58.4 373.1,63.4 "/>
<polygon fill-rule="evenodd" clip-rule="evenodd" points="373.1,62.1 409.2,57.2 409.2,54.7 373.1,59.6 "/>
<g>
	<path d="M462.8,76.5c2.2-2,3.6-4.6,3.6-6.9c0-1.9-1.1-3.3-2.8-3.3c-1.2,0-2.5,1-2.5,2.1c0,0.2,0,0.2,0.1,0.2c0,0,0.4-0.5,1-0.5
		c0.7,0,1.2,0.6,1.2,1.3c0,0.9-0.6,1.7-1.6,1.7s-1.5-1-1.5-2.1c0-1.8,1.7-3.1,3.6-3.1c3.5,0,4.4,2.4,4.4,4.4c0,1.2-0.3,2.2-1.5,4
		c-1.4,2.3-4.8,4-6,4c-0.3,0-0.5-0.1-0.5-0.3C461.4,77.4,462.2,77,462.8,76.5z M470.3,67c0.4,0,0.7,0.3,0.7,0.7
		c0,0.4-0.3,0.7-0.7,0.7c-0.4,0-0.7-0.3-0.7-0.7C469.5,67.3,469.9,67,470.3,67z M470.3,70.7c0.4,0,0.7,0.3,0.7,0.7s-0.3,0.7-0.7,0.7
		c-0.4,0-0.7-0.3-0.7-0.7S469.9,70.7,470.3,70.7z"/>
</g>
<polygon fill-rule="evenodd" clip-rule="evenodd" points="414.4,85.7 447.9,90.6 447.9,88.2 414.4,83.2 "/>
<polygon fill-rule="evenodd" clip-rule="evenodd" points="414.4,89.4 447.9,94.4 447.9,91.9 414.4,86.9 "/>
<polygon fill-rule="evenodd" clip-rule="evenodd" points="474.3,75.8 504.7,80.7 504.7,78.2 474.3,73.3 "/>
<polygon fill-rule="evenodd" clip-rule="evenodd" points="474.3,79.5 504.7,84.4 504.7,82 474.3,77 "/>
<g>
	<path d="M541.6,83.1c-3.2,0-6.1-2.3-6.1-5.1c0-2.4,1.7-5,5.1-7.9c-0.2-0.9-0.3-1.8-0.3-2.7c0-2.6,0.9-5.1,2.4-6.3
		c1.4,1.9,2,3.7,2,5.3c0,2.2-1,4.2-3.2,6.1l0.7,3.1c0.4,0,0.6,0,0.6,0c2,0,3.6,1.5,3.6,3.5c0,1.4-1.1,2.8-2.7,3.6
		c0-0.1,0.6,2.8,0.6,3.3c0,1.9-1.7,3.2-3.7,3.2c-1.5,0-2.7-1-2.7-2.5c0-1.1,0.7-1.9,1.8-1.9c1,0,1.7,1,1.7,1.9c0,1-0.9,1.7-2,1.8
		c0.4,0.2,0.9,0.3,1.4,0.3c1.6,0,3.1-1.2,3.1-2.7c0-0.1,0-0.3,0-0.5l-0.6-2.8C542.8,83,542.3,83.1,541.6,83.1z M539.9,79.2
		c0,0.8,0.4,1.4,1.2,1.9c-1.3-0.2-2.2-1.1-2.2-2.3c0-1.5,1.3-2.8,2.9-3.1l-0.6-3c-2.8,2.1-4.3,4.1-4.3,6.1c0,2.2,2.1,4,4.5,4
		c0.7,0,1.3-0.1,1.8-0.4l-1.1-5.1C540.9,77.4,539.9,78.1,539.9,79.2z M543,63.2c-1.2,0-2.2,2.8-2.2,5.3c0,0.5,0,1,0.1,1.4
		c2-1.8,3-3.4,3-4.9c0-0.7-0.3-1.3-0.7-1.8C543.2,63.2,543.1,63.2,543,63.2z M545,79.6c0-1.2-0.9-2.4-2.2-2.4c0,0-0.2,0-0.4,0l1.1,5
		C544.5,81.4,545,80.6,545,79.6z"/>
</g>
<rect x="8.5" y="149.9" width="544.4" height="0.5"/>
<rect x="8.5" y="145" width="544.4" height="0.5"/>
<rect x="8.5" y="140" width="544.4" height="0.5"/>
<rect x="8.5" y="135.1" width="544.4" height="0.5"/>
<rect x="8.5" y="130.1" width="544.4" height="0.5"/>
<g>
	<path d="M20.3,150c-4.2,0-8.1-3.1-8.1-6.9c0-3.2,2.3-6.7,6.8-10.5c-0.3-1.2-0.4-2.4-0.4-3.6c0-3.5,1.2-6.8,3.2-8.5
		c1.8,2.5,2.7,4.9,2.7,7.1c0,2.9-1.3,5.6-4.3,8.1L21,140c0.5,0,0.8-0.1,0.8-0.1c2.6,0,4.8,2,4.8,4.7c0,1.9-1.4,3.7-3.6,4.8
		c0-0.1,0.9,3.8,0.9,4.3c0,2.5-2.3,4.2-4.9,4.2c-2,0-3.6-1.3-3.6-3.4c0-1.4,1-2.6,2.4-2.6c1.3,0,2.3,1.3,2.3,2.5
		c0,1.4-1.2,2.3-2.7,2.5c0.6,0.3,1.2,0.5,1.9,0.5c2.1,0,4.1-1.6,4.1-3.6c0-0.2,0-0.4-0.1-0.6l-0.8-3.7C21.9,149.9,21.2,150,20.3,150
		z M18.1,144.8c0,1,0.5,1.9,1.6,2.5c-1.8-0.3-3-1.4-3-3.1c0-2,1.7-3.7,3.8-4.1l-0.8-4c-3.7,2.8-5.7,5.5-5.7,8.1c0,2.9,2.8,5.3,6,5.3
		c0.9,0,1.7-0.2,2.4-0.5l-1.4-6.8C19.4,142.4,18.1,143.4,18.1,144.8z M22.1,123.4c-1.6,0-2.9,3.7-2.9,7c0,0.7,0,1.3,0.2,1.9
		c2.7-2.4,4-4.5,4-6.5c0-0.9-0.3-1.7-1-2.4C22.4,123.5,22.3,123.4,22.1,123.4z M24.9,145.3c0-1.6-1.2-3.3-2.9-3.3
		c-0.1,0-0.2,0-0.5,0l1.4,6.6C24.2,147.8,24.9,146.6,24.9,145.3z"/>
</g>
<g>
	<path d="M33.5,123.5v2.8l1-0.3v1.8l-1,0.3v3.4l1-0.3v1.8l-1,0.3v3.1H33v-3l-1.9,0.6v3h-0.5v-2.8l-1,0.3v-1.8l1-0.3v-3.4l-1,0.3
		v-1.8l1-0.3v-3.1h0.5v3l1.9-0.6v-3H33.5z M33,128.3l-1.9,0.6v3.4l1.9-0.6V128.3z"/>
</g>
<g>
	<path d="M39.7,130.9v2.8l1-0.3v1.8l-1,0.3v3.4l1-0.3v1.8l-1,0.3v3.1h-0.5v-3l-1.9,0.6v3h-0.5v-2.8l-1,0.3v-1.8l1-0.3v-3.4l-1,0.3
		V135l1-0.3v-3.1h0.5v3l1.9-0.6v-3H39.7z M39.2,135.7l-1.9,0.6v3.4l1.9-0.6V135.7z"/>
</g>
<g>
	<path d="M45.9,121v2.8l1-0.3v1.8l-1,0.3v3.4l1-0.3v1.8l-1,0.3v3.1h-0.5v-3l-1.9,0.6v3H43v-2.8l-1,0.3v-1.8l1-0.3v-3.4l-1,0.3v-1.8
		l1-0.3v-3.1h0.5v3l1.9-0.6v-3H45.9z M45.4,125.8l-1.9,0.6v3.4l1.9-0.6V125.8z"/>
</g>
<g>
	<path d="M52.1,128.5v2.8l1-0.3v1.8l-1,0.3v3.4l1-0.3v1.8l-1,0.3v3.1h-0.5v-3l-1.9,0.6v3h-0.5v-2.8l-1,0.3v-1.8l1-0.3V134l-1,0.3
		v-1.8l1-0.3v-3.1h0.5v3l1.9-0.6v-3H52.1z M51.6,133.2l-1.9,0.6v3.4l1.9-0.6V133.2z"/>
</g>
<g>
	<path d="M58.3,135.9v2.8l1-0.3v1.8l-1,0.3v3.4l1-0.3v1.8l-1,0.3v3.1h-0.5v-3l-1.9,0.6v3h-0.5v-2.8l-1,0.3v-1.8l1-0.3v-3.4l-1,0.3
		V140l1-0.3v-3.1h0.5v3l1.9-0.6v-3H58.3z M57.8,140.7l-1.9,0.6v3.4l1.9-0.6V140.7z"/>
</g>
<g>
	<path d="M64.5,126v2.8l1-0.3v1.8l-1,0.3v3.4l1-0.3v1.8l-1,0.3v3.1H64v-3l-1.9,0.6v3h-0.5v-2.8l-1,0.3v-1.8l1-0.3v-3.4l-1,0.3v-1.8
		l1-0.3v-3.1h0.5v3L64,129v-3H64.5z M64,130.8l-1.9,0.6v3.4l1.9-0.6V130.8z"/>
</g>
<polygon fill-rule="evenodd" clip-rule="evenodd" points="74.3,156.4 115,151.4 115,148.9 74.3,153.9 "/>
<polygon fill-rule="evenodd" clip-rule="evenodd" points="74.3,160.1 115,155.1 115,152.6 74.3,157.6 "/>
<polygon fill-rule="evenodd" clip-rule="evenodd" points="126.4,156.4 163.9,151.4 163.9,148.9 126.4,153.9 "/>
<polygon fill-rule="evenodd" clip-rule="evenodd" points="126.4,160.1 163.9,155.1 163.9,152.6 126.4,157.6 "/>
<g>
	<path d="M130.2,113.1c0-0.2,0.6-1.9,0.6-2.4c0-0.1,0-0.2-0.1-0.2c-0.1,0-0.3,0.2-0.6,0.4l-0.2-0.2c0.6-0.4,0.9-0.7,1.1-0.7
		c0.3,0,0.4,0.2,0.4,0.5c0,0.5-0.7,2.1-0.7,2.6c0,0.1,0.1,0.2,0.2,0.2c0.7,0,1.7-1.6,1.7-2.2V111c-0.1-0.1-0.4-0.3-0.4-0.6
		c0-0.2,0.1-0.3,0.4-0.3c0.3,0,0.5,0.3,0.5,0.8c0,1-1.2,2.8-2.1,2.8C130.4,113.8,130.2,113.6,130.2,113.1z M135.1,113.5
		c0,0,0.1-0.3,0.2-0.8c-0.6,0.7-1,1-1.4,1c-0.5,0-0.8-0.3-0.8-0.9c0-1.2,1-2.6,2.1-2.6c0.2,0,0.4,0.1,0.7,0.2l0.1-0.2l0.4,0
		c-0.5,2-0.7,3-0.7,3.1v0v0c0,0,0.3-0.2,0.7-0.5l0.1,0.2c-0.5,0.5-0.8,0.7-1,0.7C135.1,113.7,135.1,113.6,135.1,113.5z M133.6,112.8
		c0,0.3,0.1,0.4,0.2,0.4c0.5,0,1.5-0.9,1.6-1.3l0.3-1.1c-0.2-0.2-0.4-0.3-0.6-0.3C134.4,110.5,133.6,112,133.6,112.8z"/>
</g>
<g>
	<path d="M129.7,111.4c0,0.8-0.5,1.4-1.6,1.9c0.5,0.7,0.8,1.3,0.8,1.8c0,1.3-1,1.9-2.9,1.9c-1.4,0-2.6-0.8-2.6-2c0-0.9,0.7-1.5,2-2
		c-0.4-0.6-0.7-1.1-0.7-1.6c0-1.1,1.1-1.9,2.5-1.9C128.4,109.5,129.7,110.4,129.7,111.4z M124.3,115.2c0,0.8,0.9,1.4,1.7,1.4
		c0.8,0,1.4-0.3,1.4-0.9c0-0.7-0.2-0.9-1.7-2.4C124.8,113.8,124.3,114.5,124.3,115.2z M126.2,110.8c0,0.7,0.2,0.9,1.5,2.2
		c0.7-0.4,1-1,1-1.7c0-0.7-0.7-1.4-1.4-1.4C126.8,110,126.2,110.3,126.2,110.8z"/>
</g>
<rect x="221.7" y="110.2" width="0.8" height="7.8"/>
<path d="M221.6,110.9h-2.9v-0.8h2.9V110.9z M216.2,110.9h-2.9v-0.8h2.9V110.9z M210.8,110.9h-2.9v-0.8h2.9V110.9z M205.3,110.9h-2.9
	v-0.8h2.9V110.9z M199.9,110.9H197v-0.8h2.9V110.9z M194.5,110.9h-2.9v-0.8h2.9V110.9z M189.1,110.9h-2.9v-0.8h2.9V110.9z
	 M183.6,110.9h-2.9v-0.8h2.9V110.9z M178.2,110.9h-2.9v-0.8h2.9V110.9z M172.8,110.9h-2.9v-0.8h2.9V110.9z M167.3,110.9h-2.9v-0.8
	h2.9V110.9z M161.9,110.9H159v-0.8h2.9V110.9z M156.5,110.9h-2.9v-0.8h2.9V110.9z M151.1,110.9h-2.9v-0.8h2.9V110.9z M145.6,110.9
	h-2.9v-0.8h2.9V110.9z M140.2,110.9h-2.9v-0.8h2.9V110.9z"/>
<polygon fill-rule="evenodd" clip-rule="evenodd" points="175.6,146.4 210.1,151.4 210.1,148.9 175.6,144 "/>
<polygon fill-rule="evenodd" clip-rule="evenodd" points="175.6,150.2 210.1,155.1 210.1,152.6 175.6,147.7 "/>
<polygon fill-rule="evenodd" clip-rule="evenodd" points="221.8,146.4 256.3,151.4 256.3,148.9 221.8,144 "/>
<polygon fill-rule="evenodd" clip-rule="evenodd" points="221.8,150.2 256.3,155.1 256.3,152.6 221.8,147.7 "/>
<polygon fill-rule="evenodd" clip-rule="evenodd" points="316.6,152.6 357.1,147.7 357.1,145.2 316.6,150.2 "/>
<polygon fill-rule="evenodd" clip-rule="evenodd" points="316.6,156.4 357.1,151.4 357.1,148.9 316.6,153.9 "/>
<polygon fill-rule="evenodd" clip-rule="evenodd" points="368.7,152.6 406.2,147.7 406.2,145.2 368.7,150.2 "/>
<polygon fill-rule="evenodd" clip-rule="evenodd" points="368.7,156.4 406.2,151.4 406.2,148.9 368.7,153.9 "/>
<g>
	<path d="M372.5,108.2c0-0.2,0.6-1.9,0.6-2.4c0-0.1,0-0.2-0.1-0.2c-0.1,0-0.3,0.2-0.6,0.4l-0.2-0.2c0.6-0.4,0.9-0.7,1.1-0.7
		c0.3,0,0.4,0.2,0.4,0.5c0,0.5-0.7,2.1-0.7,2.6c0,0.1,0.1,0.2,0.2,0.2c0.7,0,1.7-1.6,1.7-2.2V106c-0.1-0.1-0.4-0.3-0.4-0.6
		c0-0.2,0.1-0.3,0.4-0.3c0.3,0,0.5,0.3,0.5,0.8c0,1-1.2,2.8-2.1,2.8C372.7,108.8,372.5,108.6,372.5,108.2z M377.4,108.5
		c0,0,0.1-0.3,0.2-0.8c-0.6,0.7-1,1-1.4,1c-0.5,0-0.8-0.3-0.8-0.9c0-1.2,1-2.6,2.1-2.6c0.2,0,0.4,0.1,0.7,0.2l0.1-0.2l0.4,0
		c-0.5,2-0.7,3-0.7,3.1v0v0c0,0,0.3-0.2,0.7-0.5l0.1,0.2c-0.5,0.5-0.8,0.7-1,0.7C377.4,108.7,377.4,108.7,377.4,108.5z M375.9,107.9
		c0,0.3,0.1,0.4,0.2,0.4c0.5,0,1.5-0.9,1.6-1.3l0.3-1.1c-0.2-0.2-0.4-0.3-0.6-0.3C376.7,105.6,375.9,107,375.9,107.9z"/>
</g>
<g>
	<path d="M371.9,106.5c0,0.8-0.5,1.4-1.6,1.9c0.5,0.7,0.8,1.3,0.8,1.8c0,1.3-1,1.9-2.9,1.9c-1.4,0-2.6-0.8-2.6-2c0-0.9,0.7-1.5,2-2
		c-0.4-0.6-0.7-1.1-0.7-1.6c0-1.1,1.1-1.9,2.5-1.9C370.7,104.6,371.9,105.4,371.9,106.5z M366.6,110.2c0,0.8,0.9,1.4,1.7,1.4
		c0.8,0,1.4-0.3,1.4-0.9c0-0.7-0.2-0.9-1.7-2.4C367,108.9,366.6,109.5,366.6,110.2z M368.5,105.9c0,0.7,0.2,0.9,1.5,2.2
		c0.7-0.4,1-1,1-1.7c0-0.7-0.7-1.4-1.4-1.4C369.1,105,368.5,105.4,368.5,105.9z"/>
</g>
<rect x="464" y="105.2" width="0.8" height="7.8"/>
<path d="M463.9,105.9h-2.9v-0.8h2.9V105.9z M458.5,105.9h-2.9v-0.8h2.9V105.9z M453,105.9h-2.9v-0.8h2.9V105.9z M447.6,105.9h-2.9
	v-0.8h2.9V105.9z M442.2,105.9h-2.9v-0.8h2.9V105.9z M436.8,105.9h-2.9v-0.8h2.9V105.9z M431.3,105.9h-2.9v-0.8h2.9V105.9z
	 M425.9,105.9H423v-0.8h2.9V105.9z M420.5,105.9h-2.9v-0.8h2.9V105.9z M415.1,105.9h-2.9v-0.8h2.9V105.9z M409.6,105.9h-2.9v-0.8
	h2.9V105.9z M404.2,105.9h-2.9v-0.8h2.9V105.9z M398.8,105.9h-2.9v-0.8h2.9V105.9z M393.4,105.9h-2.9v-0.8h2.9V105.9z M387.9,105.9
	H385v-0.8h2.9V105.9z M382.5,105.9h-2.9v-0.8h2.9V105.9z"/>
<polygon fill-rule="evenodd" clip-rule="evenodd" points="417.7,146.4 452.4,151.4 452.4,148.9 417.7,144 "/>
<polygon fill-rule="evenodd" clip-rule="evenodd" points="417.7,150.2 452.4,155.1 452.4,152.6 417.7,147.7 "/>
<polygon fill-rule="evenodd" clip-rule="evenodd" points="463.9,146.4 498.5,151.4 498.5,148.9 463.9,144 "/>
<polygon fill-rule="evenodd" clip-rule="evenodd" points="463.9,150.2 498.5,155.1 498.5,152.6 463.9,147.7 "/>
<rect x="8.5" y="197.1" width="544.4" height="0.5"/>
<rect x="8.5" y="192.1" width="544.4" height="0.5"/>
<rect x="8.5" y="187.1" width="544.4" height="0.5"/>
<rect x="8.5" y="182.2" width="544.4" height="0.5"/>
<rect x="8.5" y="177.2" width="544.4" height="0.5"/>
<g>
	<path d="M20.3,197.1c-4.2,0-8.1-3.1-8.1-6.9c0-3.2,2.3-6.7,6.8-10.5c-0.3-1.2-0.4-2.4-0.4-3.6c0-3.5,1.2-6.8,3.2-8.5
		c1.8,2.5,2.7,4.9,2.7,7.1c0,2.9-1.3,5.6-4.3,8.1l0.9,4.2c0.5,0,0.8-0.1,0.8-0.1c2.6,0,4.8,2,4.8,4.7c0,1.9-1.4,3.7-3.6,4.8
		c0-0.1,0.9,3.8,0.9,4.3c0,2.5-2.3,4.2-4.9,4.2c-2,0-3.6-1.3-3.6-3.4c0-1.4,1-2.6,2.4-2.6c1.3,0,2.3,1.3,2.3,2.5
		c0,1.4-1.2,2.3-2.7,2.5c0.6,0.3,1.2,0.5,1.9,0.5c2.1,0,4.1-1.6,4.1-3.6c0-0.2,0-0.4-0.1-0.6l-0.8-3.7
		C21.9,197,21.2,197.1,20.3,197.1z M18.1,191.9c0,1,0.5,1.9,1.6,2.5c-1.8-0.3-3-1.4-3-3.1c0-2,1.7-3.7,3.8-4.1l-0.8-4
		c-3.7,2.8-5.7,5.5-5.7,8.1c0,2.9,2.8,5.3,6,5.3c0.9,0,1.7-0.2,2.4-0.5l-1.4-6.8C19.4,189.5,18.1,190.5,18.1,191.9z M22.1,170.6
		c-1.6,0-2.9,3.7-2.9,7c0,0.7,0,1.3,0.2,1.9c2.7-2.4,4-4.5,4-6.5c0-0.9-0.3-1.7-1-2.4C22.4,170.6,22.3,170.6,22.1,170.6z
		 M24.9,192.4c0-1.6-1.2-3.3-2.9-3.3c-0.1,0-0.2,0-0.5,0l1.4,6.6C24.2,194.9,24.9,193.8,24.9,192.4z"/>
</g>
<g>
	<path d="M33.5,170.6v2.8l1-0.3v1.8l-1,0.3v3.4l1-0.3v1.8l-1,0.3v3.1H33v-3l-1.9,0.6v3h-0.5v-2.8l-1,0.3v-1.8l1-0.3v-3.4l-1,0.3
		v-1.8l1-0.3v-3.1h0.5v3l1.9-0.6v-3H33.5z M33,175.4l-1.9,0.6v3.4l1.9-0.6V175.4z"/>
</g>
<g>
	<path d="M39.7,178.1v2.8l1-0.3v1.8l-1,0.3v3.4l1-0.3v1.8l-1,0.3v3.1h-0.5v-3l-1.9,0.6v3h-0.5v-2.8l-1,0.3v-1.8l1-0.3v-3.4l-1,0.3
		v-1.8l1-0.3v-3.1h0.5v3l1.9-0.6v-3H39.7z M39.2,182.8l-1.9,0.6v3.4l1.9-0.6V182.8z"/>
</g>
<g>
	<path d="M45.9,168.1v2.8l1-0.3v1.8l-1,0.3v3.4l1-0.3v1.8l-1,0.3v3.1h-0.5v-3l-1.9,0.6v3H43v-2.8l-1,0.3v-1.8l1-0.3v-3.4l-1,0.3
		v-1.8l1-0.3v-3.1h0.5v3l1.9-0.6v-3H45.9z M45.4,172.9l-1.9,0.6v3.4l1.9-0.6V172.9z"/>
</g>
<g>
	<path d="M52.1,175.6v2.8l1-0.3v1.8l-1,0.3v3.4l1-0.3v1.8l-1,0.3v3.1h-0.5v-3l-1.9,0.6v3h-0.5v-2.8l-1,0.3v-1.8l1-0.3v-3.4l-1,0.3
		v-1.8l1-0.3v-3.1h0.5v3l1.9-0.6v-3H52.1z M51.6,180.4l-1.9,0.6v3.4l1.9-0.6V180.4z"/>
</g>
<g>
	<path d="M58.3,183v2.8l1-0.3v1.8l-1,0.3v3.4l1-0.3v1.8l-1,0.3v3.1h-0.5v-3l-1.9,0.6v3h-0.5v-2.8l-1,0.3v-1.8l1-0.3v-3.4l-1,0.3
		v-1.8l1-0.3v-3.1h0.5v3l1.9-0.6v-3H58.3z M57.8,187.8l-1.9,0.6v3.4l1.9-0.6V187.8z"/>
</g>
<g>
	<path d="M64.5,173.1v2.8l1-0.3v1.8l-1,0.3v3.4l1-0.3v1.8l-1,0.3v3.1H64v-3l-1.9,0.6v3h-0.5v-2.8l-1,0.3v-1.8l1-0.3v-3.4l-1,0.3
		v-1.8l1-0.3v-3.1h0.5v3l1.9-0.6v-3H64.5z M64,177.9l-1.9,0.6v3.4l1.9-0.6V177.9z"/>
</g>
<polygon fill-rule="evenodd" clip-rule="evenodd" points="80.9,193.6 121.5,188.6 121.5,186.1 80.9,191.1 "/>
<polygon fill-rule="evenodd" clip-rule="evenodd" points="80.9,189.8 121.5,184.9 121.5,182.4 80.9,187.4 "/>
<polygon fill-rule="evenodd" clip-rule="evenodd" points="126.4,203.5 163.9,198.5 163.9,196 126.4,201 "/>
<polygon fill-rule="evenodd" clip-rule="evenodd" points="126.4,207.2 163.9,202.3 163.9,199.8 126.4,204.7 "/>
<polygon fill-rule="evenodd" clip-rule="evenodd" points="175.6,193.6 210.1,198.5 210.1,196 175.6,191.1 "/>
<polygon fill-rule="evenodd" clip-rule="evenodd" points="175.6,197.3 210.1,202.3 210.1,199.8 175.6,194.8 "/>
<polygon fill-rule="evenodd" clip-rule="evenodd" points="228.3,183.6 262.8,188.6 262.8,186.1 228.3,181.2 "/>
<polygon fill-rule="evenodd" clip-rule="evenodd" points="228.3,179.9 262.8,184.9 262.8,182.4 228.3,177.4 "/>
<polygon fill-rule="evenodd" clip-rule="evenodd" points="323.1,188.6 363.6,183.6 363.6,181.2 323.1,186.1 "/>
<polygon fill-rule="evenodd" clip-rule="evenodd" points="323.1,184.9 363.6,179.9 363.6,177.4 323.1,182.4 "/>
<polygon fill-rule="evenodd" clip-rule="evenodd" points="368.7,199.8 406.2,194.8 406.2,192.3 368.7,197.3 "/>
<polygon fill-rule="evenodd" clip-rule="evenodd" points="368.7,203.5 406.2,198.5 406.2,196 368.7,201 "/>
<polygon fill-rule="evenodd" clip-rule="evenodd" points="417.7,193.6 452.4,198.5 452.4,196 417.7,191.1 "/>
<polygon fill-rule="evenodd" clip-rule="evenodd" points="417.7,197.3 452.4,202.3 452.4,199.8 417.7,194.8 "/>
<polygon fill-rule="evenodd" clip-rule="evenodd" points="470.4,178.7 505,183.6 505,181.2 470.4,176.2 "/>
<polygon fill-rule="evenodd" clip-rule="evenodd" points="470.4,175 505,179.9 505,177.4 470.4,172.5 "/>
<rect x="74.2" y="41.9" width="10.5" height="0.8"/>
<rect x="82.5" y="17.6" width="0.5" height="23.9"/>
<g>
	<path d="M76,43.1c0-1.8,2.5-3.5,4.5-3.5c1.3,0,2.3,0.7,2.3,1.7c0,1.7-2.5,3.5-4.6,3.5C77,44.9,76,44.2,76,43.1z"/>
</g>
<g>
	<path d="M71.9,44.8c0-0.8-0.4-1.5-1.1-2.2c-0.7,0.7-1.1,1.4-1.1,2.2h-1.4v-1.4c0.8,0,1.5-0.3,2.2-1c-0.7-0.7-1.4-1.1-2.2-1.1v-1.4
		h1.4c0,0.8,0.4,1.5,1.1,2.2c0.7-0.7,1.1-1.4,1.1-2.2h1.4v1.4c-0.8,0-1.5,0.4-2.2,1.1c0.7,0.7,1.4,1,2,1h0.2v1.4H71.9z"/>
</g>
<rect x="92.4" y="15.9" width="0.5" height="20.6"/>
<g>
	<path d="M86,38.2c0-1.8,2.5-3.5,4.5-3.5c1.3,0,2.3,0.7,2.3,1.7c0,1.7-2.5,3.5-4.6,3.5C86.9,39.9,86,39.3,86,38.2z"/>
</g>
<rect x="101.1" y="14.4" width="0.5" height="17.2"/>
<g>
	<path d="M94.6,33.2c0-1.8,2.5-3.5,4.5-3.5c1.3,0,2.3,0.7,2.3,1.7c0,1.7-2.5,3.5-4.6,3.5C95.6,34.9,94.6,34.3,94.6,33.2z"/>
</g>
<rect x="109.8" y="12.7" width="0.5" height="14"/>
<g>
	<path d="M103.3,28.3c0-1.8,2.5-3.5,4.5-3.5c1.3,0,2.3,0.7,2.3,1.7c0,1.7-2.5,3.5-4.6,3.5C104.3,30,103.3,29.3,103.3,28.3z"/>
</g>
<rect x="135.3" y="25.7" width="0.5" height="16.4"/>
<g>
	<path d="M135.4,25.8c0-1.8,2.5-3.5,4.5-3.5c1.3,0,2.3,0.7,2.3,1.7c0,1.7-2.5,3.5-4.6,3.5C136.4,27.5,135.4,26.9,135.4,25.8z"/>
</g>
<g>
	<path d="M132.5,27.4c0-0.8-0.4-1.5-1.1-2.2c-0.7,0.7-1.1,1.4-1.1,2.2h-1.4V26c0.8,0,1.5-0.3,2.2-1c-0.7-0.7-1.4-1.1-2.2-1.1v-1.4
		h1.4c0,0.8,0.4,1.5,1.1,2.2c0.7-0.7,1.1-1.4,1.1-2.2h1.4v1.4c-0.8,0-1.5,0.4-2.2,1.1c0.7,0.7,1.4,1,2,1h0.2v1.4H132.5z"/>
</g>
<rect x="145.3" y="20.7" width="0.5" height="19.7"/>
<g>
	<path d="M145.3,20.8c0-1.8,2.5-3.5,4.5-3.5c1.3,0,2.3,0.7,2.3,1.7c0,1.7-2.5,3.5-4.6,3.5C146.3,22.5,145.3,21.9,145.3,20.8z"/>
</g>
<rect x="153.8" y="15.8" width="0.5" height="23.3"/>
<g>
	<path d="M153.9,15.9c0-1.8,2.5-3.5,4.5-3.5c1.3,0,2.3,0.7,2.3,1.7c0,1.7-2.5,3.5-4.6,3.5C154.8,17.6,153.9,16.9,153.9,15.9z"/>
</g>
<rect x="161.9" y="12.1" width="10.5" height="0.8"/>
<rect x="163.7" y="10.8" width="0.5" height="26.4"/>
<g>
	<path d="M163.8,10.9c0-1.8,2.5-3.5,4.5-3.5c1.3,0,2.3,0.7,2.3,1.7c0,1.7-2.5,3.5-4.6,3.5C164.8,12.6,163.8,12,163.8,10.9z"/>
</g>
<rect x="179.4" y="12.1" width="10.5" height="0.8"/>
<rect x="179.4" y="7.2" width="10.5" height="0.8"/>
<rect x="181.2" y="8.3" width="0.5" height="23.9"/>
<g>
	<path d="M181.3,8.4c0-1.8,2.5-3.5,4.5-3.5c1.3,0,2.3,0.7,2.3,1.7c0,1.7-2.5,3.5-4.6,3.5C182.3,10.1,181.3,9.5,181.3,8.4z"/>
</g>
<g>
	<path d="M177.1,10c0-0.8-0.4-1.5-1.1-2.2c-0.7,0.7-1.1,1.4-1.1,2.2h-1.4V8.6c0.8,0,1.5-0.3,2.2-1c-0.7-0.7-1.4-1.1-2.2-1.1V5.1h1.4
		c0,0.8,0.4,1.5,1.1,2.2c0.7-0.7,1.1-1.4,1.1-2.2h1.4v1.4c-0.8,0-1.5,0.4-2.2,1.1c0.7,0.7,1.4,1,2,1h0.2V10H177.1z"/>
</g>
<rect x="191.2" y="12.1" width="10.5" height="0.8"/>
<rect x="193" y="10.8" width="0.5" height="23.3"/>
<g>
	<path d="M193.1,10.9c0-1.8,2.5-3.5,4.5-3.5c1.3,0,2.3,0.7,2.3,1.7c0,1.7-2.5,3.5-4.6,3.5C194.1,12.6,193.1,12,193.1,10.9z"/>
</g>
<rect x="202.9" y="15.8" width="0.5" height="19.8"/>
<g>
	<path d="M203,15.9c0-1.8,2.5-3.5,4.5-3.5c1.3,0,2.3,0.7,2.3,1.7c0,1.7-2.5,3.5-4.6,3.5C204,17.6,203,16.9,203,15.9z"/>
</g>
<rect x="211.6" y="20.7" width="0.5" height="16.4"/>
<g>
	<path d="M211.7,20.8c0-1.8,2.5-3.5,4.5-3.5c1.3,0,2.3,0.7,2.3,1.7c0,1.7-2.5,3.5-4.6,3.5C212.7,22.5,211.7,21.9,211.7,20.8z"/>
</g>
<rect x="244.5" y="7.7" width="0.5" height="16.4"/>
<g>
	<path d="M238,25.8c0-1.8,2.5-3.5,4.5-3.5c1.3,0,2.3,0.7,2.3,1.7c0,1.7-2.5,3.5-4.6,3.5C239,27.5,238,26.9,238,25.8z"/>
</g>
<rect x="254.4" y="9.4" width="0.5" height="17.2"/>
<g>
	<path d="M248,28.3c0-1.8,2.5-3.5,4.5-3.5c1.3,0,2.3,0.7,2.3,1.7c0,1.7-2.5,3.5-4.6,3.5C248.9,30,248,29.3,248,28.3z"/>
</g>
<rect x="263.1" y="11" width="0.5" height="20.6"/>
<g>
	<path d="M256.6,33.2c0-1.8,2.5-3.5,4.5-3.5c1.3,0,2.3,0.7,2.3,1.7c0,1.7-2.5,3.5-4.6,3.5C257.6,34.9,256.6,34.3,256.6,33.2z"/>
</g>
<rect x="271.8" y="12.7" width="0.5" height="23.9"/>
<g>
	<path d="M265.3,38.2c0-1.8,2.5-3.5,4.5-3.5c1.3,0,2.3,0.7,2.3,1.7c0,1.7-2.5,3.5-4.6,3.5C266.3,39.9,265.3,39.3,265.3,38.2z"/>
</g>
<rect x="273.4" y="41.9" width="10.7" height="0.8"/>
<rect x="281.8" y="24.9" width="0.5" height="16.6"/>
<g>
	<path d="M279.5,39.6c1.6,0,2.7,0.7,2.7,2c0,1.9-2.3,3.4-4.5,3.4c-1.3,0-2.4-0.7-2.4-1.8C275.2,41.4,277.5,39.6,279.5,39.6z
		 M275.7,43.4c0,0.6,0.4,0.9,1.1,0.9c1.4,0,4.9-2.1,4.9-3.3c0-0.6-0.4-0.9-1.1-0.9C279.4,40.2,275.7,42.2,275.7,43.4z"/>
</g>
<rect x="313.6" y="12.7" width="0.5" height="23.9"/>
<g>
	<path d="M307.2,38.2c0-1.8,2.5-3.5,4.5-3.5c1.3,0,2.3,0.7,2.3,1.7c0,1.7-2.5,3.5-4.6,3.5C308.1,39.9,307.2,39.3,307.2,38.2z"/>
</g>
<rect x="322.1" y="11.4" width="0.5" height="20.2"/>
<g>
	<path d="M315.7,33.2c0-1.8,2.5-3.5,4.5-3.5c1.3,0,2.3,0.7,2.3,1.7c0,1.7-2.5,3.5-4.6,3.5C316.7,34.9,315.7,34.3,315.7,33.2z"/>
</g>
<rect x="330.8" y="10.2" width="0.5" height="16.4"/>
<g>
	<path d="M324.4,28.3c0-1.8,2.5-3.5,4.5-3.5c1.3,0,2.3,0.7,2.3,1.7c0,1.7-2.5,3.5-4.6,3.5C325.4,30,324.4,29.3,324.4,28.3z"/>
</g>
<rect x="346.5" y="7.7" width="0.5" height="16.4"/>
<g>
	<path d="M340,25.8c0-1.8,2.5-3.5,4.5-3.5c1.3,0,2.3,0.7,2.3,1.7c0,1.7-2.5,3.5-4.6,3.5C341,27.5,340,26.9,340,25.8z"/>
</g>
<g>
	<path d="M337.1,27.4c0-0.8-0.4-1.5-1.1-2.2c-0.7,0.7-1.1,1.4-1.1,2.2h-1.4V26c0.8,0,1.5-0.3,2.2-1c-0.7-0.7-1.4-1.1-2.2-1.1v-1.4
		h1.4c0,0.8,0.4,1.5,1.1,2.2c0.7-0.7,1.1-1.4,1.1-2.2h1.4v1.4c-0.8,0-1.5,0.4-2.2,1.1c0.7,0.7,1.4,1,2,1h0.2v1.4H337.1z"/>
</g>
<rect x="366.3" y="20.7" width="0.5" height="16.4"/>
<g>
	<path d="M366.4,20.8c0-1.8,2.5-3.5,4.5-3.5c1.3,0,2.3,0.7,2.3,1.7c0,1.7-2.5,3.5-4.6,3.5C367.4,22.5,366.4,21.9,366.4,20.8z"/>
</g>
<rect x="375" y="15.8" width="0.5" height="20.3"/>
<g>
	<path d="M375.1,15.9c0-1.8,2.5-3.5,4.5-3.5c1.3,0,2.3,0.7,2.3,1.7c0,1.7-2.5,3.5-4.6,3.5C376,17.6,375.1,16.9,375.1,15.9z"/>
</g>
<rect x="383.1" y="12.1" width="10.5" height="0.8"/>
<rect x="384.9" y="10.8" width="0.5" height="23.9"/>
<g>
	<path d="M385,10.9c0-1.8,2.5-3.5,4.5-3.5c1.3,0,2.3,0.7,2.3,1.7c0,1.7-2.5,3.5-4.6,3.5C386,12.6,385,12,385,10.9z"/>
</g>
<rect x="400.6" y="12.1" width="10.5" height="0.8"/>
<rect x="400.6" y="7.2" width="10.5" height="0.8"/>
<rect x="402.4" y="8.3" width="0.5" height="23.9"/>
<g>
	<path d="M402.5,8.4c0-1.8,2.5-3.5,4.5-3.5c1.3,0,2.3,0.7,2.3,1.7c0,1.7-2.5,3.5-4.6,3.5C403.5,10.1,402.5,9.5,402.5,8.4z"/>
</g>
<g>
	<path d="M398.3,10c0-0.8-0.4-1.5-1.1-2.2c-0.7,0.7-1.1,1.4-1.1,2.2h-1.4V8.6c0.8,0,1.5-0.3,2.2-1c-0.7-0.7-1.4-1.1-2.2-1.1V5.1h1.4
		c0,0.8,0.4,1.5,1.1,2.2c0.7-0.7,1.1-1.4,1.1-2.2h1.4v1.4c-0.8,0-1.5,0.4-2.2,1.1c0.7,0.7,1.4,1,2,1h0.2V10H398.3z"/>
</g>
<rect x="412.4" y="12.1" width="10.5" height="0.8"/>
<rect x="412.4" y="7.2" width="10.5" height="0.8"/>
<rect x="412.4" y="2.2" width="10.5" height="0.8"/>
<rect x="414.2" y="3.4" width="0.5" height="23.9"/>
<g>
	<path d="M414.3,3.5c0-1.8,2.5-3.5,4.5-3.5c1.3,0,2.3,0.7,2.3,1.7c0,1.7-2.5,3.5-4.6,3.5C415.3,5.2,414.3,4.5,414.3,3.5z"/>
</g>
<rect x="424.2" y="12.1" width="10.5" height="0.8"/>
<rect x="424.2" y="7.2" width="10.5" height="0.8"/>
<rect x="426" y="8.3" width="0.5" height="20.6"/>
<g>
	<path d="M426.1,8.4c0-1.8,2.5-3.5,4.5-3.5c1.3,0,2.3,0.7,2.3,1.7c0,1.7-2.5,3.5-4.6,3.5C427,10.1,426.1,9.5,426.1,8.4z"/>
</g>
<rect x="436" y="12.1" width="10.5" height="0.8"/>
<rect x="437.8" y="10.8" width="0.5" height="19.8"/>
<g>
	<path d="M437.9,10.9c0-1.8,2.5-3.5,4.5-3.5c1.3,0,2.3,0.7,2.3,1.7c0,1.7-2.5,3.5-4.6,3.5C438.8,12.6,437.9,12,437.9,10.9z"/>
</g>
<rect x="447.7" y="15.8" width="0.5" height="16.4"/>
<g>
	<path d="M447.8,15.9c0-1.8,2.5-3.5,4.5-3.5c1.3,0,2.3,0.7,2.3,1.7c0,1.7-2.5,3.5-4.6,3.5C448.7,17.6,447.8,16.9,447.8,15.9z"/>
</g>
<rect x="474" y="20.7" width="0.5" height="21.4"/>
<g>
	<path d="M474.1,20.8c0-1.8,2.5-3.5,4.5-3.5c1.3,0,2.3,0.7,2.3,1.7c0,1.7-2.5,3.5-4.6,3.5C475.1,22.5,474.1,21.9,474.1,20.8z"/>
</g>
<rect x="485.8" y="25.7" width="0.5" height="18.3"/>
<g>
	<path d="M485.9,25.8c0-1.8,2.5-3.5,4.5-3.5c1.3,0,2.3,0.7,2.3,1.7c0,1.7-2.5,3.5-4.6,3.5C486.9,27.5,485.9,26.9,485.9,25.8z"/>
</g>
<rect x="495.7" y="28.2" width="0.5" height="17.4"/>
<g>
	<path d="M495.8,28.3c0-1.8,2.5-3.5,4.5-3.5c1.3,0,2.3,0.7,2.3,1.7c0,1.7-2.5,3.5-4.6,3.5C496.8,30,495.8,29.3,495.8,28.3z"/>
</g>
<rect x="504.4" y="33.1" width="0.5" height="14"/>
<g>
	<path d="M504.5,33.2c0-1.8,2.5-3.5,4.5-3.5c1.3,0,2.3,0.7,2.3,1.7c0,1.7-2.5,3.5-4.6,3.5C505.5,34.9,504.5,34.3,504.5,33.2z"/>
</g>
<rect x="519.8" y="20" width="0.5" height="16.6"/>
<g>
	<path d="M517.5,34.6c1.6,0,2.7,0.7,2.7,2c0,1.9-2.3,3.4-4.5,3.4c-1.3,0-2.4-0.7-2.4-1.8C513.2,36.4,515.4,34.6,517.5,34.6z
		 M513.6,38.5c0,0.6,0.4,0.9,1.1,0.9c1.4,0,4.9-2.1,4.9-3.3c0-0.6-0.4-0.9-1.1-0.9C517.3,35.2,513.6,37.2,513.6,38.5z"/>
</g>
<rect x="76" y="77.8" width="0.5" height="12.7"/>
<g>
	<path d="M76,77.9c0-1.8,2.5-3.5,4.5-3.5c1.3,0,2.3,0.7,2.3,1.7c0,1.7-2.5,3.5-4.6,3.5C77,79.6,76,78.9,76,77.9z"/>
</g>
<g>
	<path d="M73.1,79.5c0-0.8-0.4-1.5-1.1-2.2C71.3,78,71,78.7,71,79.5h-1.4V78c0.8,0,1.5-0.3,2.2-1C71,76.3,70.3,76,69.5,76v-1.4H71
		c0,0.8,0.4,1.5,1.1,2.2c0.7-0.7,1.1-1.4,1.1-2.2h1.4V76c-0.8,0-1.5,0.4-2.2,1.1c0.7,0.7,1.4,1,2,1h0.2v1.4H73.1z"/>
</g>
<rect x="85.9" y="72.8" width="0.5" height="16"/>
<g>
	<path d="M86,72.9c0-1.8,2.5-3.5,4.5-3.5c1.3,0,2.3,0.7,2.3,1.7c0,1.7-2.5,3.5-4.6,3.5C86.9,74.6,86,74,86,72.9z"/>
</g>
<rect x="94.6" y="67.9" width="0.5" height="19.4"/>
<g>
	<path d="M94.6,67.9c0-1.8,2.5-3.5,4.5-3.5c1.3,0,2.3,0.7,2.3,1.7c0,1.7-2.5,3.5-4.6,3.5C95.6,69.7,94.6,69,94.6,67.9z"/>
</g>
<rect x="103.3" y="62.9" width="0.5" height="22.6"/>
<g>
	<path d="M103.3,63c0-1.8,2.5-3.5,4.5-3.5c1.3,0,2.3,0.7,2.3,1.7c0,1.7-2.5,3.5-4.6,3.5C104.3,64.7,103.3,64.1,103.3,63z"/>
</g>
<rect x="133.6" y="89" width="10.5" height="0.8"/>
<rect x="141.9" y="64.8" width="0.5" height="23.9"/>
<g>
	<path d="M135.4,90.3c0-1.8,2.5-3.5,4.5-3.5c1.3,0,2.3,0.7,2.3,1.7c0,1.7-2.5,3.5-4.6,3.5C136.4,92,135.4,91.3,135.4,90.3z"/>
</g>
<g>
	<path d="M131.2,91.9c0-0.8-0.4-1.5-1.1-2.2c-0.7,0.7-1.1,1.4-1.1,2.2h-1.4v-1.4c0.8,0,1.5-0.3,2.2-1c-0.7-0.7-1.4-1.1-2.2-1.1v-1.4
		h1.4c0,0.8,0.4,1.5,1.1,2.2c0.7-0.7,1.1-1.4,1.1-2.2h1.4v1.4c-0.8,0-1.5,0.4-2.2,1.1c0.7,0.7,1.4,1,2,1h0.2v1.4H131.2z"/>
</g>
<rect x="151.8" y="63.1" width="0.5" height="20.6"/>
<g>
	<path d="M145.3,85.3c0-1.8,2.5-3.5,4.5-3.5c1.3,0,2.3,0.7,2.3,1.7c0,1.7-2.5,3.5-4.6,3.5C146.3,87,145.3,86.4,145.3,85.3z"/>
</g>
<rect x="160.3" y="61.7" width="0.5" height="17.1"/>
<g>
	<path d="M153.9,80.3c0-1.8,2.5-3.5,4.5-3.5c1.3,0,2.3,0.7,2.3,1.7c0,1.7-2.5,3.5-4.6,3.5C154.8,82.1,153.9,81.4,153.9,80.3z"/>
</g>
<rect x="170.2" y="59.8" width="0.5" height="14"/>
<g>
	<path d="M163.8,75.4c0-1.8,2.5-3.5,4.5-3.5c1.3,0,2.3,0.7,2.3,1.7c0,1.7-2.5,3.5-4.6,3.5C164.8,77.1,163.8,76.5,163.8,75.4z"/>
</g>
<rect x="187.7" y="54.8" width="0.5" height="16.4"/>
<g>
	<path d="M181.3,72.9c0-1.8,2.5-3.5,4.5-3.5c1.3,0,2.3,0.7,2.3,1.7c0,1.7-2.5,3.5-4.6,3.5C182.3,74.6,181.3,74,181.3,72.9z"/>
</g>
<g>
	<path d="M178.4,74.5c0-0.8-0.4-1.5-1.1-2.2c-0.7,0.7-1.1,1.4-1.1,2.2h-1.4v-1.4c0.8,0,1.5-0.3,2.2-1c-0.7-0.7-1.4-1.1-2.2-1.1v-1.4
		h1.4c0,0.8,0.4,1.5,1.1,2.2c0.7-0.7,1.1-1.4,1.1-2.2h1.4V71c-0.8,0-1.5,0.4-2.2,1.1c0.7,0.7,1.4,1,2,1h0.2v1.4H178.4z"/>
</g>
<rect x="199.5" y="56.7" width="0.5" height="17.1"/>
<g>
	<path d="M193.1,75.4c0-1.8,2.5-3.5,4.5-3.5c1.3,0,2.3,0.7,2.3,1.7c0,1.7-2.5,3.5-4.6,3.5C194.1,77.1,193.1,76.5,193.1,75.4z"/>
</g>
<rect x="209.4" y="58.2" width="0.5" height="20.5"/>
<g>
	<path d="M203,80.3c0-1.8,2.5-3.5,4.5-3.5c1.3,0,2.3,0.7,2.3,1.7c0,1.7-2.5,3.5-4.6,3.5C204,82.1,203,81.4,203,80.3z"/>
</g>
<rect x="218.1" y="59.8" width="0.5" height="23.9"/>
<g>
	<path d="M211.7,85.3c0-1.8,2.5-3.5,4.5-3.5c1.3,0,2.3,0.7,2.3,1.7c0,1.7-2.5,3.5-4.6,3.5C212.7,87,211.7,86.4,211.7,85.3z"/>
</g>
<rect x="236.2" y="59.3" width="10.5" height="0.8"/>
<rect x="238" y="60.4" width="0.5" height="23.9"/>
<g>
	<path d="M238,60.5c0-1.8,2.5-3.5,4.5-3.5c1.3,0,2.3,0.7,2.3,1.7c0,1.7-2.5,3.5-4.6,3.5C239,62.2,238,61.6,238,60.5z"/>
</g>
<rect x="247.9" y="62.9" width="0.5" height="23.1"/>
<g>
	<path d="M248,63c0-1.8,2.5-3.5,4.5-3.5c1.3,0,2.3,0.7,2.3,1.7c0,1.7-2.5,3.5-4.6,3.5C248.9,64.7,248,64.1,248,63z"/>
</g>
<rect x="256.6" y="67.9" width="0.5" height="19.7"/>
<g>
	<path d="M256.6,67.9c0-1.8,2.5-3.5,4.5-3.5c1.3,0,2.3,0.7,2.3,1.7c0,1.7-2.5,3.5-4.6,3.5C257.6,69.7,256.6,69,256.6,67.9z"/>
</g>
<rect x="265.2" y="72.8" width="0.5" height="16.4"/>
<g>
	<path d="M265.3,72.9c0-1.8,2.5-3.5,4.5-3.5c1.3,0,2.3,0.7,2.3,1.7c0,1.7-2.5,3.5-4.6,3.5C266.3,74.6,265.3,74,265.3,72.9z"/>
</g>
<rect x="281.8" y="59.6" width="0.5" height="16.6"/>
<g>
	<path d="M279.5,74.3c1.6,0,2.7,0.7,2.7,2c0,1.9-2.3,3.4-4.5,3.4c-1.3,0-2.4-0.7-2.4-1.8C275.2,76.1,277.5,74.3,279.5,74.3z
		 M275.7,78.2c0,0.6,0.4,0.9,1.1,0.9c1.4,0,4.9-2.1,4.9-3.3c0-0.6-0.4-0.9-1.1-0.9C279.4,74.9,275.7,76.9,275.7,78.2z"/>
</g>
<rect x="307.1" y="72.8" width="0.5" height="16.4"/>
<g>
	<path d="M307.2,72.9c0-1.8,2.5-3.5,4.5-3.5c1.3,0,2.3,0.7,2.3,1.7c0,1.7-2.5,3.5-4.6,3.5C308.1,74.6,307.2,74,307.2,72.9z"/>
</g>
<rect x="315.6" y="67.9" width="0.5" height="20.2"/>
<g>
	<path d="M315.7,67.9c0-1.8,2.5-3.5,4.5-3.5c1.3,0,2.3,0.7,2.3,1.7c0,1.7-2.5,3.5-4.6,3.5C316.7,69.7,315.7,69,315.7,67.9z"/>
</g>
<rect x="324.3" y="62.9" width="0.5" height="23.9"/>
<g>
	<path d="M324.4,63c0-1.8,2.5-3.5,4.5-3.5c1.3,0,2.3,0.7,2.3,1.7c0,1.7-2.5,3.5-4.6,3.5C325.4,64.7,324.4,64.1,324.4,63z"/>
</g>
<rect x="338.2" y="59.3" width="10.5" height="0.8"/>
<rect x="340" y="60.4" width="0.5" height="23.9"/>
<g>
	<path d="M340,60.5c0-1.8,2.5-3.5,4.5-3.5c1.3,0,2.3,0.7,2.3,1.7c0,1.7-2.5,3.5-4.6,3.5C341,62.2,340,61.6,340,60.5z"/>
</g>
<g>
	<path d="M335.9,62.1c0-0.8-0.4-1.5-1.1-2.2c-0.7,0.7-1.1,1.4-1.1,2.2h-1.4v-1.4c0.8,0,1.5-0.3,2.2-1c-0.7-0.7-1.4-1.1-2.2-1.1v-1.4
		h1.4c0,0.8,0.4,1.5,1.1,2.2c0.7-0.7,1.1-1.4,1.1-2.2h1.4v1.4c-0.8,0-1.5,0.4-2.2,1.1c0.7,0.7,1.4,1,2,1h0.2v1.4H335.9z"/>
</g>
<rect x="372.8" y="59.8" width="0.5" height="23.9"/>
<g>
	<path d="M366.4,85.3c0-1.8,2.5-3.5,4.5-3.5c1.3,0,2.3,0.7,2.3,1.7c0,1.7-2.5,3.5-4.6,3.5C367.4,87,366.4,86.4,366.4,85.3z"/>
</g>
<rect x="381.5" y="58.7" width="0.5" height="20"/>
<g>
	<path d="M375.1,80.3c0-1.8,2.5-3.5,4.5-3.5c1.3,0,2.3,0.7,2.3,1.7c0,1.7-2.5,3.5-4.6,3.5C376,82.1,375.1,81.4,375.1,80.3z"/>
</g>
<rect x="391.4" y="57.3" width="0.5" height="16.4"/>
<g>
	<path d="M385,75.4c0-1.8,2.5-3.5,4.5-3.5c1.3,0,2.3,0.7,2.3,1.7c0,1.7-2.5,3.5-4.6,3.5C386,77.1,385,76.5,385,75.4z"/>
</g>
<rect x="408.9" y="54.8" width="0.5" height="16.4"/>
<g>
	<path d="M402.5,72.9c0-1.8,2.5-3.5,4.5-3.5c1.3,0,2.3,0.7,2.3,1.7c0,1.7-2.5,3.5-4.6,3.5C403.5,74.6,402.5,74,402.5,72.9z"/>
</g>
<g>
	<path d="M399.6,74.5c0-0.8-0.4-1.5-1.1-2.2c-0.7,0.7-1.1,1.4-1.1,2.2H396v-1.4c0.8,0,1.5-0.3,2.2-1c-0.7-0.7-1.4-1.1-2.2-1.1v-1.4
		h1.4c0,0.8,0.4,1.5,1.1,2.2c0.7-0.7,1.1-1.4,1.1-2.2h1.4V71c-0.8,0-1.5,0.4-2.2,1.1c0.7,0.7,1.4,1,2,1h0.2v1.4H399.6z"/>
</g>
<rect x="414.2" y="67.9" width="0.5" height="21.4"/>
<g>
	<path d="M414.3,67.9c0-1.8,2.5-3.5,4.5-3.5c1.3,0,2.3,0.7,2.3,1.7c0,1.7-2.5,3.5-4.6,3.5C415.3,69.7,414.3,69,414.3,67.9z"/>
</g>
<rect x="426" y="72.8" width="0.5" height="18.1"/>
<g>
	<path d="M426.1,72.9c0-1.8,2.5-3.5,4.5-3.5c1.3,0,2.3,0.7,2.3,1.7c0,1.7-2.5,3.5-4.6,3.5C427,74.6,426.1,74,426.1,72.9z"/>
</g>
<rect x="437.8" y="75.3" width="0.5" height="17.4"/>
<g>
	<path d="M437.9,75.4c0-1.8,2.5-3.5,4.5-3.5c1.3,0,2.3,0.7,2.3,1.7c0,1.7-2.5,3.5-4.6,3.5C438.8,77.1,437.9,76.5,437.9,75.4z"/>
</g>
<rect x="447.7" y="80.3" width="0.5" height="14"/>
<g>
	<path d="M447.8,80.3c0-1.8,2.5-3.5,4.5-3.5c1.3,0,2.3,0.7,2.3,1.7c0,1.7-2.5,3.5-4.6,3.5C448.7,82.1,447.8,81.4,447.8,80.3z"/>
</g>
<rect x="472.3" y="59.3" width="10.5" height="0.8"/>
<rect x="472.3" y="54.3" width="10.5" height="0.8"/>
<rect x="474" y="55.5" width="0.5" height="23.9"/>
<g>
	<path d="M474.1,55.5c0-1.8,2.5-3.5,4.5-3.5c1.3,0,2.3,0.7,2.3,1.7c0,1.7-2.5,3.5-4.6,3.5C475.1,57.3,474.1,56.6,474.1,55.5z"/>
</g>
<rect x="484" y="59.3" width="10.5" height="0.8"/>
<rect x="485.8" y="60.4" width="0.5" height="20.8"/>
<g>
	<path d="M485.9,60.5c0-1.8,2.5-3.5,4.5-3.5c1.3,0,2.3,0.7,2.3,1.7c0,1.7-2.5,3.5-4.6,3.5C486.9,62.2,485.9,61.6,485.9,60.5z"/>
</g>
<rect x="495.7" y="62.9" width="0.5" height="19.8"/>
<g>
	<path d="M495.8,63c0-1.8,2.5-3.5,4.5-3.5c1.3,0,2.3,0.7,2.3,1.7c0,1.7-2.5,3.5-4.6,3.5C496.8,64.7,495.8,64.1,495.8,63z"/>
</g>
<rect x="504.4" y="67.9" width="0.5" height="16.4"/>
<g>
	<path d="M504.5,67.9c0-1.8,2.5-3.5,4.5-3.5c1.3,0,2.3,0.7,2.3,1.7c0,1.7-2.5,3.5-4.6,3.5C505.5,69.7,504.5,69,504.5,67.9z"/>
</g>
<rect x="513.1" y="72.8" width="0.5" height="16.6"/>
<g>
	<path d="M517.5,69.3c1.6,0,2.7,0.7,2.7,2c0,1.9-2.3,3.4-4.5,3.4c-1.3,0-2.4-0.7-2.4-1.8C513.2,71.1,515.4,69.3,517.5,69.3z
		 M513.6,73.2c0,0.6,0.4,0.9,1.1,0.9c1.4,0,4.9-2.1,4.9-3.3c0-0.6-0.4-0.9-1.1-0.9C517.3,69.9,513.6,72,513.6,73.2z"/>
</g>
<rect x="74.1" y="146" width="0.5" height="14"/>
<g>
	<path d="M74.2,146.1c0-1.8,2.5-3.5,4.5-3.5c1.3,0,2.3,0.7,2.3,1.7c0,1.7-2.5,3.5-4.6,3.5C75.2,147.8,74.2,147.2,74.2,146.1z"/>
</g>
<rect x="85.6" y="141" width="0.5" height="17.5"/>
<g>
	<path d="M85.7,141.1c0-1.8,2.5-3.5,4.5-3.5c1.3,0,2.3,0.7,2.3,1.7c0,1.7-2.5,3.5-4.6,3.5C86.6,142.8,85.7,142.2,85.7,141.1z"/>
</g>
<rect x="103.1" y="138.5" width="0.5" height="18"/>
<g>
	<path d="M103.2,138.6c0-1.8,2.5-3.5,4.5-3.5c1.3,0,2.3,0.7,2.3,1.7c0,1.7-2.5,3.5-4.6,3.5C104.1,140.3,103.2,139.7,103.2,138.6z"/>
</g>
<g>
	<path d="M100.2,140.2c0-0.8-0.4-1.5-1.1-2.2c-0.7,0.7-1.1,1.4-1.1,2.2h-1.4v-1.4c0.8,0,1.5-0.3,2.2-1c-0.7-0.7-1.4-1.1-2.2-1.1
		v-1.4h1.4c0,0.8,0.4,1.5,1.1,2.2c0.7-0.7,1.1-1.4,1.1-2.2h1.4v1.4c-0.8,0-1.5,0.4-2.2,1.1c0.7,0.7,1.4,1,2,1h0.2v1.4H100.2z"/>
</g>
<rect x="114.7" y="133.6" width="0.5" height="21.4"/>
<g>
	<path d="M114.8,133.7c0-1.8,2.5-3.5,4.5-3.5c1.3,0,2.3,0.7,2.3,1.7c0,1.7-2.5,3.5-4.6,3.5C115.8,135.4,114.8,134.8,114.8,133.7z"/>
</g>
<rect x="126.2" y="146" width="0.5" height="14"/>
<g>
	<path d="M126.3,146.1c0-1.8,2.5-3.5,4.5-3.5c1.3,0,2.3,0.7,2.3,1.7c0,1.7-2.5,3.5-4.6,3.5C127.2,147.8,126.3,147.2,126.3,146.1z"/>
</g>
<rect x="137.8" y="141" width="0.5" height="17.5"/>
<g>
	<path d="M137.9,141.1c0-1.8,2.5-3.5,4.5-3.5c1.3,0,2.3,0.7,2.3,1.7c0,1.7-2.5,3.5-4.6,3.5C138.9,142.8,137.9,142.2,137.9,141.1z"/>
</g>
<rect x="152.2" y="138.5" width="0.5" height="18"/>
<g>
	<path d="M152.3,138.6c0-1.8,2.5-3.5,4.5-3.5c1.3,0,2.3,0.7,2.3,1.7c0,1.7-2.5,3.5-4.6,3.5C153.3,140.3,152.3,139.7,152.3,138.6z"/>
</g>
<rect x="163.7" y="133.6" width="0.5" height="21.4"/>
<g>
	<path d="M163.8,133.7c0-1.8,2.5-3.5,4.5-3.5c1.3,0,2.3,0.7,2.3,1.7c0,1.7-2.5,3.5-4.6,3.5C164.8,135.4,163.8,134.8,163.8,133.7z"/>
</g>
<rect x="175.3" y="128.6" width="0.5" height="21.4"/>
<g>
	<path d="M175.4,128.7c0-1.8,2.5-3.5,4.5-3.5c1.3,0,2.3,0.7,2.3,1.7c0,1.7-2.5,3.5-4.6,3.5C176.4,130.4,175.4,129.8,175.4,128.7z"/>
</g>
<rect x="186.8" y="133.6" width="0.5" height="18"/>
<g>
	<path d="M186.9,133.7c0-1.8,2.5-3.5,4.5-3.5c1.3,0,2.3,0.7,2.3,1.7c0,1.7-2.5,3.5-4.6,3.5C187.9,135.4,186.9,134.8,186.9,133.7z"/>
</g>
<rect x="198.4" y="138.5" width="0.5" height="14.7"/>
<g>
	<path d="M198.5,138.6c0-1.8,2.5-3.5,4.5-3.5c1.3,0,2.3,0.7,2.3,1.7c0,1.7-2.5,3.5-4.6,3.5C199.5,140.3,198.5,139.7,198.5,138.6z"/>
</g>
<rect x="209.9" y="141" width="0.5" height="14"/>
<g>
	<path d="M210,141.1c0-1.8,2.5-3.5,4.5-3.5c1.3,0,2.3,0.7,2.3,1.7c0,1.7-2.5,3.5-4.6,3.5C211,142.8,210,142.2,210,141.1z"/>
</g>
<rect x="221.5" y="128.6" width="0.5" height="21.4"/>
<g>
	<path d="M221.6,128.7c0-1.8,2.5-3.5,4.5-3.5c1.3,0,2.3,0.7,2.3,1.7c0,1.7-2.5,3.5-4.6,3.5C222.6,130.4,221.6,129.8,221.6,128.7z"/>
</g>
<rect x="233" y="133.6" width="0.5" height="18"/>
<g>
	<path d="M233.1,133.7c0-1.8,2.5-3.5,4.5-3.5c1.3,0,2.3,0.7,2.3,1.7c0,1.7-2.5,3.5-4.6,3.5C234,135.4,233.1,134.8,233.1,133.7z"/>
</g>
<rect x="244.5" y="138.5" width="0.5" height="14.7"/>
<g>
	<path d="M244.5,138.6c0-1.8,2.5-3.5,4.5-3.5c1.3,0,2.3,0.7,2.3,1.7c0,1.7-2.5,3.5-4.6,3.5C245.5,140.3,244.5,139.7,244.5,138.6z"/>
</g>
<rect x="256.1" y="141" width="0.5" height="14"/>
<g>
	<path d="M256.2,141.1c0-1.8,2.5-3.5,4.5-3.5c1.3,0,2.3,0.7,2.3,1.7c0,1.7-2.5,3.5-4.6,3.5C257.1,142.8,256.2,142.2,256.2,141.1z"/>
</g>
<rect x="274.2" y="127.8" width="0.5" height="16.6"/>
<g>
	<path d="M271.9,142.5c1.6,0,2.7,0.7,2.7,2c0,1.9-2.3,3.4-4.5,3.4c-1.3,0-2.4-0.7-2.4-1.8C267.6,144.3,269.9,142.5,271.9,142.5z
		 M268.1,146.4c0,0.6,0.4,0.9,1.1,0.9c1.4,0,4.9-2.1,4.9-3.3c0-0.6-0.4-0.9-1.1-0.9C271.8,143.1,268.1,145.1,268.1,146.4z"/>
</g>
<rect x="316.4" y="141" width="0.5" height="15.2"/>
<g>
	<path d="M316.5,141.1c0-1.8,2.5-3.5,4.5-3.5c1.3,0,2.3,0.7,2.3,1.7c0,1.7-2.5,3.5-4.6,3.5C317.4,142.8,316.5,142.2,316.5,141.1z"/>
</g>
<rect x="333.9" y="138.5" width="0.5" height="15.7"/>
<g>
	<path d="M334,138.6c0-1.8,2.5-3.5,4.5-3.5c1.3,0,2.3,0.7,2.3,1.7c0,1.7-2.5,3.5-4.6,3.5C335,140.3,334,139.7,334,138.6z"/>
</g>
<g>
	<path d="M331.1,140.2c0-0.8-0.4-1.5-1.1-2.2c-0.7,0.7-1.1,1.4-1.1,2.2h-1.4v-1.4c0.8,0,1.5-0.3,2.2-1c-0.7-0.7-1.4-1.1-2.2-1.1
		v-1.4h1.4c0,0.8,0.4,1.5,1.1,2.2c0.7-0.7,1.1-1.4,1.1-2.2h1.4v1.4c-0.8,0-1.5,0.4-2.2,1.1c0.7,0.7,1.4,1,2,1h0.2v1.4H331.1z"/>
</g>
<rect x="345.4" y="133.6" width="0.5" height="19.2"/>
<g>
	<path d="M345.5,133.7c0-1.8,2.5-3.5,4.5-3.5c1.3,0,2.3,0.7,2.3,1.7c0,1.7-2.5,3.5-4.6,3.5C346.4,135.4,345.5,134.8,345.5,133.7z"/>
</g>
<rect x="356.9" y="128.6" width="0.5" height="22.6"/>
<g>
	<path d="M356.9,128.7c0-1.8,2.5-3.5,4.5-3.5c1.3,0,2.3,0.7,2.3,1.7c0,1.7-2.5,3.5-4.6,3.5C357.9,130.4,356.9,129.8,356.9,128.7z"/>
</g>
<rect x="368.5" y="141" width="0.5" height="15.2"/>
<g>
	<path d="M368.6,141.1c0-1.8,2.5-3.5,4.5-3.5c1.3,0,2.3,0.7,2.3,1.7c0,1.7-2.5,3.5-4.6,3.5C369.5,142.8,368.6,142.2,368.6,141.1z"/>
</g>
<rect x="382.9" y="138.5" width="0.5" height="15.8"/>
<g>
	<path d="M383,138.6c0-1.8,2.5-3.5,4.5-3.5c1.3,0,2.3,0.7,2.3,1.7c0,1.7-2.5,3.5-4.6,3.5C383.9,140.3,383,139.7,383,138.6z"/>
</g>
<rect x="394.4" y="133.6" width="0.5" height="19.2"/>
<g>
	<path d="M394.4,133.7c0-1.8,2.5-3.5,4.5-3.5c1.3,0,2.3,0.7,2.3,1.7c0,1.7-2.5,3.5-4.6,3.5C395.4,135.4,394.4,134.8,394.4,133.7z"/>
</g>
<rect x="406" y="128.6" width="0.5" height="22.6"/>
<g>
	<path d="M406.1,128.7c0-1.8,2.5-3.5,4.5-3.5c1.3,0,2.3,0.7,2.3,1.7c0,1.7-2.5,3.5-4.6,3.5C407,130.4,406.1,129.8,406.1,128.7z"/>
</g>
<rect x="415.7" y="125" width="10.5" height="0.8"/>
<rect x="417.5" y="123.7" width="0.5" height="26.4"/>
<g>
	<path d="M417.5,123.7c0-1.8,2.5-3.5,4.5-3.5c1.3,0,2.3,0.7,2.3,1.7c0,1.7-2.5,3.5-4.6,3.5C418.5,125.5,417.5,124.8,417.5,123.7z"/>
</g>
<rect x="429.1" y="128.6" width="0.5" height="22.9"/>
<g>
	<path d="M429.2,128.7c0-1.8,2.5-3.5,4.5-3.5c1.3,0,2.3,0.7,2.3,1.7c0,1.7-2.5,3.5-4.6,3.5C430.1,130.4,429.2,129.8,429.2,128.7z"/>
</g>
<rect x="440.6" y="133.6" width="0.5" height="19.7"/>
<g>
	<path d="M440.6,133.7c0-1.8,2.5-3.5,4.5-3.5c1.3,0,2.3,0.7,2.3,1.7c0,1.7-2.5,3.5-4.6,3.5C441.6,135.4,440.6,134.8,440.6,133.7z"/>
</g>
<rect x="452.2" y="138.5" width="0.5" height="16.4"/>
<g>
	<path d="M452.3,138.6c0-1.8,2.5-3.5,4.5-3.5c1.3,0,2.3,0.7,2.3,1.7c0,1.7-2.5,3.5-4.6,3.5C453.2,140.3,452.3,139.7,452.3,138.6z"/>
</g>
<rect x="461.9" y="125" width="10.5" height="0.8"/>
<rect x="463.7" y="123.7" width="0.5" height="26.4"/>
<g>
	<path d="M463.7,123.7c0-1.8,2.5-3.5,4.5-3.5c1.3,0,2.3,0.7,2.3,1.7c0,1.7-2.5,3.5-4.6,3.5C464.7,125.5,463.7,124.8,463.7,123.7z"/>
</g>
<rect x="475.1" y="128.6" width="0.5" height="22.9"/>
<g>
	<path d="M475.2,128.7c0-1.8,2.5-3.5,4.5-3.5c1.3,0,2.3,0.7,2.3,1.7c0,1.7-2.5,3.5-4.6,3.5C476.2,130.4,475.2,129.8,475.2,128.7z"/>
</g>
<rect x="486.8" y="133.6" width="0.5" height="19.7"/>
<g>
	<path d="M486.8,133.7c0-1.8,2.5-3.5,4.5-3.5c1.3,0,2.3,0.7,2.3,1.7c0,1.7-2.5,3.5-4.6,3.5C487.8,135.4,486.8,134.8,486.8,133.7z"/>
</g>
<rect x="498.2" y="138.5" width="0.5" height="16.4"/>
<g>
	<path d="M498.3,138.6c0-1.8,2.5-3.5,4.5-3.5c1.3,0,2.3,0.7,2.3,1.7c0,1.7-2.5,3.5-4.6,3.5C499.3,140.3,498.3,139.7,498.3,138.6z"/>
</g>
<rect x="509.9" y="141" width="0.5" height="16.6"/>
<g>
	<path d="M514.2,137.5c1.6,0,2.7,0.7,2.7,2c0,1.9-2.3,3.4-4.5,3.4c-1.3,0-2.4-0.7-2.4-1.8C509.9,139.3,512.2,137.5,514.2,137.5z
		 M510.4,141.4c0,0.6,0.4,0.9,1.1,0.9c1.4,0,4.9-2.1,4.9-3.3c0-0.6-0.4-0.9-1.1-0.9C514.1,138.1,510.4,140.2,510.4,141.4z"/>
</g>
<rect x="72.3" y="201.9" width="10.5" height="0.8"/>
<rect x="72.3" y="206.8" width="10.5" height="0.8"/>
<rect x="80.6" y="187.5" width="0.5" height="21.4"/>
<g>
	<path d="M74.2,210.5c0-1.8,2.5-3.5,4.5-3.5c1.3,0,2.3,0.7,2.3,1.7c0,1.7-2.5,3.5-4.6,3.5C75.2,212.3,74.2,211.6,74.2,210.5z"/>
</g>
<rect x="83.8" y="201.9" width="10.5" height="0.8"/>
<rect x="92.1" y="186.1" width="0.5" height="17.8"/>
<g>
	<path d="M85.7,205.6c0-1.8,2.5-3.5,4.5-3.5c1.3,0,2.3,0.7,2.3,1.7c0,1.7-2.5,3.5-4.6,3.5C86.6,207.3,85.7,206.7,85.7,205.6z"/>
</g>
<rect x="101.3" y="201.9" width="10.5" height="0.8"/>
<rect x="109.6" y="184.1" width="0.5" height="17.4"/>
<g>
	<path d="M103.2,203.1c0-1.8,2.5-3.5,4.5-3.5c1.3,0,2.3,0.7,2.3,1.7c0,1.7-2.5,3.5-4.6,3.5C104.1,204.8,103.2,204.2,103.2,203.1z"/>
</g>
<g>
	<path d="M99,204.7c0-0.8-0.4-1.5-1.1-2.2c-0.7,0.7-1.1,1.4-1.1,2.2h-1.4v-1.4c0.8,0,1.5-0.3,2.2-1c-0.7-0.7-1.4-1.1-2.2-1.1v-1.4
		h1.4c0,0.8,0.4,1.5,1.1,2.2c0.7-0.7,1.1-1.4,1.1-2.2h1.4v1.4c-0.8,0-1.5,0.4-2.2,1.1c0.7,0.7,1.4,1,2,1h0.2v1.4H99z"/>
</g>
<rect x="121.2" y="182.6" width="0.5" height="14"/>
<g>
	<path d="M114.8,198.1c0-1.8,2.5-3.5,4.5-3.5c1.3,0,2.3,0.7,2.3,1.7c0,1.7-2.5,3.5-4.6,3.5C115.8,199.9,114.8,199.2,114.8,198.1z"/>
</g>
<rect x="126.2" y="193.1" width="0.5" height="14"/>
<g>
	<path d="M126.3,193.2c0-1.8,2.5-3.5,4.5-3.5c1.3,0,2.3,0.7,2.3,1.7c0,1.7-2.5,3.5-4.6,3.5C127.2,194.9,126.3,194.3,126.3,193.2z"/>
</g>
<rect x="137.8" y="188.1" width="0.5" height="17.5"/>
<g>
	<path d="M137.9,188.2c0-1.8,2.5-3.5,4.5-3.5c1.3,0,2.3,0.7,2.3,1.7c0,1.7-2.5,3.5-4.6,3.5C138.9,189.9,137.9,189.3,137.9,188.2z"/>
</g>
<rect x="152.2" y="185.7" width="0.5" height="18"/>
<g>
	<path d="M152.3,185.7c0-1.8,2.5-3.5,4.5-3.5c1.3,0,2.3,0.7,2.3,1.7c0,1.7-2.5,3.5-4.6,3.5C153.3,187.5,152.3,186.8,152.3,185.7z"/>
</g>
<g>
	<path d="M149.4,187.4c0-0.8-0.4-1.5-1.1-2.2c-0.7,0.7-1.1,1.4-1.1,2.2h-1.4v-1.4c0.8,0,1.5-0.3,2.2-1c-0.7-0.7-1.4-1.1-2.2-1.1
		v-1.4h1.4c0,0.8,0.4,1.5,1.1,2.2c0.7-0.7,1.1-1.4,1.1-2.2h1.4v1.4c-0.8,0-1.5,0.4-2.2,1.1c0.7,0.7,1.4,1,2,1h0.2v1.4H149.4z"/>
</g>
<rect x="163.7" y="180.7" width="0.5" height="21.4"/>
<g>
	<path d="M163.8,180.8c0-1.8,2.5-3.5,4.5-3.5c1.3,0,2.3,0.7,2.3,1.7c0,1.7-2.5,3.5-4.6,3.5C164.8,182.5,163.8,181.9,163.8,180.8z"/>
</g>
<rect x="175.3" y="175.7" width="0.5" height="21.4"/>
<g>
	<path d="M175.4,175.8c0-1.8,2.5-3.5,4.5-3.5c1.3,0,2.3,0.7,2.3,1.7c0,1.7-2.5,3.5-4.6,3.5C176.4,177.5,175.4,176.9,175.4,175.8z"/>
</g>
<rect x="186.8" y="180.7" width="0.5" height="18"/>
<g>
	<path d="M186.9,180.8c0-1.8,2.5-3.5,4.5-3.5c1.3,0,2.3,0.7,2.3,1.7c0,1.7-2.5,3.5-4.6,3.5C187.9,182.5,186.9,181.9,186.9,180.8z"/>
</g>
<rect x="198.4" y="185.7" width="0.5" height="14.7"/>
<g>
	<path d="M198.5,185.7c0-1.8,2.5-3.5,4.5-3.5c1.3,0,2.3,0.7,2.3,1.7c0,1.7-2.5,3.5-4.6,3.5C199.5,187.5,198.5,186.8,198.5,185.7z"/>
</g>
<rect x="209.9" y="188.1" width="0.5" height="14"/>
<g>
	<path d="M210,188.2c0-1.8,2.5-3.5,4.5-3.5c1.3,0,2.3,0.7,2.3,1.7c0,1.7-2.5,3.5-4.6,3.5C211,189.9,210,189.3,210,188.2z"/>
</g>
<rect x="228" y="177.6" width="0.5" height="14"/>
<g>
	<path d="M221.6,193.2c0-1.8,2.5-3.5,4.5-3.5c1.3,0,2.3,0.7,2.3,1.7c0,1.7-2.5,3.5-4.6,3.5C222.6,194.9,221.6,194.3,221.6,193.2z"/>
</g>
<rect x="239.5" y="179.2" width="0.5" height="17.4"/>
<g>
	<path d="M233.1,198.1c0-1.8,2.5-3.5,4.5-3.5c1.3,0,2.3,0.7,2.3,1.7c0,1.7-2.5,3.5-4.6,3.5C234,199.9,233.1,199.2,233.1,198.1z"/>
</g>
<rect x="242.7" y="201.9" width="10.5" height="0.8"/>
<rect x="251" y="180.9" width="0.5" height="20.6"/>
<g>
	<path d="M244.5,203.1c0-1.8,2.5-3.5,4.5-3.5c1.3,0,2.3,0.7,2.3,1.7c0,1.7-2.5,3.5-4.6,3.5C245.5,204.8,244.5,204.2,244.5,203.1z"/>
</g>
<rect x="254.3" y="201.9" width="10.5" height="0.8"/>
<rect x="262.6" y="182.6" width="0.5" height="21.4"/>
<g>
	<path d="M256.2,205.6c0-1.8,2.5-3.5,4.5-3.5c1.3,0,2.3,0.7,2.3,1.7c0,1.7-2.5,3.5-4.6,3.5C257.1,207.3,256.2,206.7,256.2,205.6z"/>
</g>
<rect x="265.8" y="201.9" width="10.7" height="0.8"/>
<rect x="265.8" y="206.8" width="10.7" height="0.8"/>
<rect x="274.2" y="187.4" width="0.5" height="21.5"/>
<g>
	<path d="M271.9,207c1.6,0,2.7,0.7,2.7,2c0,1.9-2.3,3.4-4.5,3.4c-1.3,0-2.4-0.7-2.4-1.8C267.6,208.8,269.9,207,271.9,207z
		 M268.1,210.8c0,0.6,0.4,0.9,1.1,0.9c1.4,0,4.9-2.1,4.9-3.3c0-0.6-0.4-0.9-1.1-0.9C271.8,207.6,268.1,209.6,268.1,210.8z"/>
</g>
<rect x="314.6" y="201.9" width="10.5" height="0.8"/>
<rect x="322.9" y="182.6" width="0.5" height="21.4"/>
<g>
	<path d="M316.5,205.6c0-1.8,2.5-3.5,4.5-3.5c1.3,0,2.3,0.7,2.3,1.7c0,1.7-2.5,3.5-4.6,3.5C317.4,207.3,316.5,206.7,316.5,205.6z"/>
</g>
<rect x="332.1" y="201.9" width="10.5" height="0.8"/>
<rect x="340.4" y="180.5" width="0.5" height="20.9"/>
<g>
	<path d="M334,203.1c0-1.8,2.5-3.5,4.5-3.5c1.3,0,2.3,0.7,2.3,1.7c0,1.7-2.5,3.5-4.6,3.5C335,204.8,334,204.2,334,203.1z"/>
</g>
<g>
	<path d="M329.8,204.7c0-0.8-0.4-1.5-1.1-2.2c-0.7,0.7-1.1,1.4-1.1,2.2h-1.4v-1.4c0.8,0,1.5-0.3,2.2-1c-0.7-0.7-1.4-1.1-2.2-1.1
		v-1.4h1.4c0,0.8,0.4,1.5,1.1,2.2c0.7-0.7,1.1-1.4,1.1-2.2h1.4v1.4c-0.8,0-1.5,0.4-2.2,1.1c0.7,0.7,1.4,1,2,1h0.2v1.4H329.8z"/>
</g>
<rect x="351.9" y="179.2" width="0.5" height="17.4"/>
<g>
	<path d="M345.5,198.1c0-1.8,2.5-3.5,4.5-3.5c1.3,0,2.3,0.7,2.3,1.7c0,1.7-2.5,3.5-4.6,3.5C346.4,199.9,345.5,199.2,345.5,198.1z"/>
</g>
<rect x="363.4" y="177.6" width="0.5" height="14"/>
<g>
	<path d="M356.9,193.2c0-1.8,2.5-3.5,4.5-3.5c1.3,0,2.3,0.7,2.3,1.7c0,1.7-2.5,3.5-4.6,3.5C357.9,194.9,356.9,194.3,356.9,193.2z"/>
</g>
<rect x="368.5" y="188.1" width="0.5" height="15.2"/>
<g>
	<path d="M368.6,188.2c0-1.8,2.5-3.5,4.5-3.5c1.3,0,2.3,0.7,2.3,1.7c0,1.7-2.5,3.5-4.6,3.5C369.5,189.9,368.6,189.3,368.6,188.2z"/>
</g>
<rect x="382.9" y="185.7" width="0.5" height="15.8"/>
<g>
	<path d="M383,185.7c0-1.8,2.5-3.5,4.5-3.5c1.3,0,2.3,0.7,2.3,1.7c0,1.7-2.5,3.5-4.6,3.5C383.9,187.5,383,186.8,383,185.7z"/>
</g>
<g>
	<path d="M380,187.4c0-0.8-0.4-1.5-1.1-2.2c-0.7,0.7-1.1,1.4-1.1,2.2h-1.4v-1.4c0.8,0,1.5-0.3,2.2-1c-0.7-0.7-1.4-1.1-2.2-1.1v-1.4
		h1.4c0,0.8,0.4,1.5,1.1,2.2c0.7-0.7,1.1-1.4,1.1-2.2h1.4v1.4c-0.8,0-1.5,0.4-2.2,1.1c0.7,0.7,1.4,1,2,1h0.2v1.4H380z"/>
</g>
<rect x="394.4" y="180.7" width="0.5" height="19.2"/>
<g>
	<path d="M394.4,180.8c0-1.8,2.5-3.5,4.5-3.5c1.3,0,2.3,0.7,2.3,1.7c0,1.7-2.5,3.5-4.6,3.5C395.4,182.5,394.4,181.9,394.4,180.8z"/>
</g>
<rect x="406" y="175.7" width="0.5" height="22.6"/>
<g>
	<path d="M406.1,175.8c0-1.8,2.5-3.5,4.5-3.5c1.3,0,2.3,0.7,2.3,1.7c0,1.7-2.5,3.5-4.6,3.5C407,177.5,406.1,176.9,406.1,175.8z"/>
</g>
<rect x="415.7" y="172.1" width="10.5" height="0.8"/>
<rect x="417.5" y="170.8" width="0.5" height="26.4"/>
<g>
	<path d="M417.5,170.9c0-1.8,2.5-3.5,4.5-3.5c1.3,0,2.3,0.7,2.3,1.7c0,1.7-2.5,3.5-4.6,3.5C418.5,172.6,417.5,172,417.5,170.9z"/>
</g>
<rect x="429.1" y="175.7" width="0.5" height="22.9"/>
<g>
	<path d="M429.2,175.8c0-1.8,2.5-3.5,4.5-3.5c1.3,0,2.3,0.7,2.3,1.7c0,1.7-2.5,3.5-4.6,3.5C430.1,177.5,429.2,176.9,429.2,175.8z"/>
</g>
<rect x="440.6" y="180.7" width="0.5" height="19.7"/>
<g>
	<path d="M440.6,180.8c0-1.8,2.5-3.5,4.5-3.5c1.3,0,2.3,0.7,2.3,1.7c0,1.7-2.5,3.5-4.6,3.5C441.6,182.5,440.6,181.9,440.6,180.8z"/>
</g>
<rect x="452.2" y="185.7" width="0.5" height="16.4"/>
<g>
	<path d="M452.3,185.7c0-1.8,2.5-3.5,4.5-3.5c1.3,0,2.3,0.7,2.3,1.7c0,1.7-2.5,3.5-4.6,3.5C453.2,187.5,452.3,186.8,452.3,185.7z"/>
</g>
<rect x="470.2" y="172.6" width="0.5" height="14"/>
<g>
	<path d="M463.7,188.2c0-1.8,2.5-3.5,4.5-3.5c1.3,0,2.3,0.7,2.3,1.7c0,1.7-2.5,3.5-4.6,3.5C464.7,189.9,463.7,189.3,463.7,188.2z"/>
</g>
<rect x="481.6" y="174.2" width="0.5" height="17.4"/>
<g>
	<path d="M475.2,193.2c0-1.8,2.5-3.5,4.5-3.5c1.3,0,2.3,0.7,2.3,1.7c0,1.7-2.5,3.5-4.6,3.5C476.2,194.9,475.2,194.3,475.2,193.2z"/>
</g>
<rect x="493.3" y="175.9" width="0.5" height="20.6"/>
<g>
	<path d="M486.8,198.1c0-1.8,2.5-3.5,4.5-3.5c1.3,0,2.3,0.7,2.3,1.7c0,1.7-2.5,3.5-4.6,3.5C487.8,199.9,486.8,199.2,486.8,198.1z"/>
</g>
<rect x="496.4" y="201.9" width="10.5" height="0.8"/>
<rect x="504.7" y="177.6" width="0.5" height="23.9"/>
<g>
	<path d="M498.3,203.1c0-1.8,2.5-3.5,4.5-3.5c1.3,0,2.3,0.7,2.3,1.7c0,1.7-2.5,3.5-4.6,3.5C499.3,204.8,498.3,204.2,498.3,203.1z"/>
</g>
<rect x="508.1" y="201.9" width="10.7" height="0.8"/>
<rect x="516.5" y="187.4" width="0.5" height="16.6"/>
<g>
	<path d="M514.2,202c1.6,0,2.7,0.7,2.7,2c0,1.9-2.3,3.4-4.5,3.4c-1.3,0-2.4-0.7-2.4-1.8C509.9,203.8,512.2,202,514.2,202z
		 M510.4,205.9c0,0.6,0.4,0.9,1.1,0.9c1.4,0,4.9-2.1,4.9-3.3c0-0.6-0.4-0.9-1.1-0.9C514.1,202.6,510.4,204.7,510.4,205.9z"/>
</g>
</svg>
