<?xml version="1.0" encoding="utf-8"?>

<!--
	ScaleBook
	Copyright (c) Leland Jansen 2015. All rights reserved.
-->

<!DOCTYPE svg PUBLIC "-//W3C//DTD SVG 1.1//EN" "http://www.w3.org/Graphics/SVG/1.1/DTD/svg11.dtd">
<svg version="1.1" id="Layer_1" xmlns="http://www.w3.org/2000/svg" xmlns:xlink="http://www.w3.org/1999/xlink" x="0px" y="0px"
	 viewBox="0 0 553 201.2" enable-background="new 0 0 553 201.2" xml:space="preserve">
<rect x="8.4" y="9.7" width="0.8" height="67.4"/>
<g>
	<path d="M7.4,10.4c-1.9,1.1-3.6,5.8-3.6,9.5c0,2.3,1.4,10,1.4,12.3c0,5-1.5,8.7-4.6,11.2c3,2.4,4.6,6.1,4.6,11.1
		c0,2.3-1.4,10-1.4,12.3c0,3.8,1.7,8.5,3.6,9.6v0.7C3.9,74.9,1.7,68.9,1.7,64c0-2.2,1.7-9.4,1.7-11.6c0-3.8-1-6.6-2.9-8.3
		C0.1,43.8,0,43.6,0,43.4s0.1-0.4,0.5-0.7c1.9-1.7,2.9-4.2,2.9-7.6C3.4,33,1.7,25,1.7,22.9c0-5.2,2.1-10.5,5.8-13.1V10.4z"/>
</g>
<rect x="8.4" y="123" width="0.8" height="67"/>
<g>
	<path d="M7.4,123.7c-1.9,1.1-3.6,5.8-3.6,9.4c0,2.3,1.4,9.9,1.4,12.3c0,5-1.5,8.6-4.6,11.1c3,2.4,4.6,6.1,4.6,11.1
		c0,2.3-1.4,9.9-1.4,12.3c0,3.8,1.7,8.4,3.6,9.5v0.7c-3.5-2.3-5.8-8.2-5.8-13.1c0-2.1,1.7-9.4,1.7-11.5c0-3.8-1-6.6-2.9-8.2
		c-0.3-0.3-0.5-0.5-0.5-0.7c0-0.2,0.1-0.4,0.5-0.7c1.9-1.7,2.9-4.2,2.9-7.6c0-2.1-1.7-10-1.7-12.2c0-5.2,2.1-10.4,5.8-13.1V123.7z"
		/>
</g>
<rect x="281.1" y="9.7" width="0.8" height="67.4"/>
<rect x="283.7" y="9.7" width="0.8" height="67.4"/>
<rect x="549.5" y="9.7" width="0.8" height="67.4"/>
<rect x="552.2" y="9.7" width="0.8" height="67.4"/>
<rect x="290.4" y="123" width="0.8" height="67"/>
<rect x="293" y="123" width="0.8" height="67"/>
<rect x="547.8" y="123" width="0.8" height="67"/>
<rect x="550.4" y="123" width="2.5" height="67"/>
<rect x="8.5" y="29.3" width="544.4" height="0.5"/>
<rect x="8.5" y="24.4" width="544.4" height="0.5"/>
<rect x="8.5" y="19.4" width="544.4" height="0.5"/>
<rect x="8.5" y="14.4" width="544.4" height="0.5"/>
<rect x="8.5" y="9.5" width="544.4" height="0.5"/>
<g>
	<path d="M20.3,29.4c-4.2,0-8.1-3.1-8.1-6.9c0-3.2,2.3-6.7,6.8-10.5c-0.3-1.2-0.4-2.4-0.4-3.6c0-3.5,1.2-6.8,3.2-8.5
		c1.8,2.5,2.7,4.9,2.7,7.1c0,2.9-1.3,5.6-4.3,8.1l0.9,4.2c0.5,0,0.8-0.1,0.8-0.1c2.6,0,4.8,2,4.8,4.7c0,1.9-1.4,3.7-3.6,4.8
		c0-0.1,0.9,3.8,0.9,4.3c0,2.5-2.3,4.2-4.9,4.2c-2,0-3.6-1.3-3.6-3.4c0-1.4,1-2.6,2.4-2.6c1.3,0,2.3,1.3,2.3,2.5
		c0,1.4-1.2,2.3-2.7,2.5c0.6,0.3,1.2,0.5,1.9,0.5c2.1,0,4.1-1.6,4.1-3.6c0-0.2,0-0.4-0.1-0.6l-0.8-3.7
		C21.9,29.3,21.2,29.4,20.3,29.4z M18.1,24.2c0,1,0.5,1.9,1.6,2.5c-1.8-0.3-3-1.4-3-3.1c0-2,1.7-3.7,3.8-4.1l-0.8-4
		C16,18.3,14,21,14,23.6c0,2.9,2.8,5.3,6,5.3c0.9,0,1.7-0.2,2.4-0.5L21,21.6C19.4,21.8,18.1,22.8,18.1,24.2z M22.1,2.8
		c-1.6,0-2.9,3.7-2.9,7c0,0.7,0,1.3,0.2,1.9c2.7-2.4,4-4.5,4-6.5c0-0.9-0.3-1.7-1-2.4C22.4,2.9,22.3,2.8,22.1,2.8z M24.9,24.7
		c0-1.6-1.2-3.3-2.9-3.3c-0.1,0-0.2,0-0.5,0l1.4,6.6C24.2,27.2,24.9,26,24.9,24.7z"/>
</g>
<g>
	<path d="M29.5,11.3h0.6L30,17.6c0.4-0.7,1-1,1.8-1c1.2,0,2.2,0.8,2.2,1.9c0,0.8-0.5,1.8-1.7,2.7l-2.8,2.1V11.3z M30.1,18.2
		C30,19,30,19.6,30,20.2c0,1,0,1.6,0.1,2c1-0.7,2.4-2.6,2.4-3.7c0-0.6-0.5-1.1-1.1-1.1C30.8,17.4,30.4,17.7,30.1,18.2z"/>
</g>
<g>
	<path d="M35.1,3.9h0.6l-0.1,6.2c0.4-0.7,1-1,1.8-1c1.2,0,2.2,0.8,2.2,1.9c0,0.8-0.5,1.8-1.7,2.7l-2.8,2.1V3.9z M35.7,10.8
		c-0.1,0.8-0.1,1.4-0.1,1.9c0,1,0,1.6,0.1,2c1-0.7,2.4-2.6,2.4-3.7c0-0.6-0.5-1.1-1.1-1.1C36.4,10,36,10.2,35.7,10.8z"/>
</g>
<polygon fill-rule="evenodd" clip-rule="evenodd" points="56.5,25.8 91.1,20.9 91.1,18.4 56.5,23.4 "/>
<polygon fill-rule="evenodd" clip-rule="evenodd" points="56.5,22.1 91.1,17.2 91.1,14.7 56.5,19.6 "/>
<polygon fill-rule="evenodd" clip-rule="evenodd" points="98.8,37 133.6,32 133.6,29.6 98.8,34.5 "/>
<polygon fill-rule="evenodd" clip-rule="evenodd" points="98.8,40.7 133.6,35.8 133.6,33.3 98.8,38.2 "/>
<polygon fill-rule="evenodd" clip-rule="evenodd" points="150.9,27.1 185.5,32 185.5,29.6 150.9,24.6 "/>
<polygon fill-rule="evenodd" clip-rule="evenodd" points="150.9,30.8 185.5,35.8 185.5,33.3 150.9,28.3 "/>
<polygon fill-rule="evenodd" clip-rule="evenodd" points="203.6,15.9 238.2,20.9 238.2,18.4 203.6,13.4 "/>
<polygon fill-rule="evenodd" clip-rule="evenodd" points="203.6,12.2 238.2,17.2 238.2,14.7 203.6,9.7 "/>
<polygon fill-rule="evenodd" clip-rule="evenodd" points="298.5,20.9 335.9,15.9 335.9,13.4 298.5,18.4 "/>
<polygon fill-rule="evenodd" clip-rule="evenodd" points="298.5,17.2 335.9,12.2 335.9,9.7 298.5,14.7 "/>
<polygon fill-rule="evenodd" clip-rule="evenodd" points="355.7,32 393.1,27.1 393.1,24.6 355.7,29.6 "/>
<polygon fill-rule="evenodd" clip-rule="evenodd" points="355.7,35.8 393.1,30.8 393.1,28.3 355.7,33.3 "/>
<polygon fill-rule="evenodd" clip-rule="evenodd" points="404.5,25.8 439.2,30.8 439.2,28.3 404.5,23.4 "/>
<polygon fill-rule="evenodd" clip-rule="evenodd" points="404.5,29.6 439.2,34.5 439.2,32 404.5,27.1 "/>
<polygon fill-rule="evenodd" clip-rule="evenodd" points="472.1,11 506.7,15.9 506.7,13.4 472.1,8.5 "/>
<polygon fill-rule="evenodd" clip-rule="evenodd" points="472.1,7.2 506.7,12.2 506.7,9.7 472.1,4.8 "/>
<rect x="8.5" y="76.9" width="544.4" height="0.5"/>
<rect x="8.5" y="72" width="544.4" height="0.5"/>
<rect x="8.5" y="67" width="544.4" height="0.5"/>
<rect x="8.5" y="62" width="544.4" height="0.5"/>
<rect x="8.5" y="57.1" width="544.4" height="0.5"/>
<g>
	<path d="M15.7,71.5c2.9-2.6,4.7-6.1,4.7-9.2c0-2.5-1.4-4.4-3.7-4.4c-1.6,0-3.4,1.3-3.4,2.7c0,0.2,0,0.3,0.1,0.3
		c-0.1,0,0.6-0.6,1.4-0.6c0.9,0,1.5,0.8,1.5,1.7c0,1.2-0.9,2.2-2.1,2.2c-1.2,0-2.1-1.3-2.1-2.8c0-2.3,2.3-4.1,4.8-4.1
		c4.7,0,5.9,3.2,5.9,5.8c0,1.6-0.4,2.9-2,5.3c-1.9,3.1-6.4,5.3-8.1,5.3c-0.4,0-0.6-0.2-0.6-0.5C13.8,72.8,14.9,72.2,15.7,71.5z
		 M25.7,58.8c0.6,0,1,0.4,1,1c0,0.6-0.4,1-1,1s-1-0.4-1-1C24.7,59.2,25.1,58.8,25.7,58.8z M25.7,63.7c0.6,0,1,0.4,1,1
		c0,0.6-0.4,1-1,1s-1-0.4-1-1C24.7,64.2,25.1,63.7,25.7,63.7z"/>
</g>
<g>
	<path d="M29.5,63.9h0.6L30,70.1c0.4-0.7,1-1,1.8-1c1.2,0,2.2,0.8,2.2,1.9c0,0.8-0.5,1.8-1.7,2.7l-2.8,2.1V63.9z M30.1,70.8
		C30,71.5,30,72.2,30,72.7c0,1,0,1.6,0.1,2c1-0.7,2.4-2.6,2.4-3.7c0-0.6-0.5-1.1-1.1-1.1C30.8,69.9,30.4,70.2,30.1,70.8z"/>
</g>
<g>
	<path d="M35.1,56.4h0.6l-0.1,6.2c0.4-0.7,1-1,1.8-1c1.2,0,2.2,0.8,2.2,1.9c0,0.8-0.5,1.8-1.7,2.7l-2.8,2.1V56.4z M35.7,63.3
		c-0.1,0.8-0.1,1.4-0.1,1.9c0,1,0,1.6,0.1,2c1-0.7,2.4-2.6,2.4-3.7c0-0.6-0.5-1.1-1.1-1.1C36.4,62.5,36,62.8,35.7,63.3z"/>
</g>
<polygon fill-rule="evenodd" clip-rule="evenodd" points="56.5,62.3 91.1,57.3 91.1,54.8 56.5,59.8 "/>
<polygon fill-rule="evenodd" clip-rule="evenodd" points="56.5,58.5 91.1,53.6 91.1,51.1 56.5,56.1 "/>
<polygon fill-rule="evenodd" clip-rule="evenodd" points="98.8,73.4 133.6,68.5 133.6,66 98.8,70.9 "/>
<polygon fill-rule="evenodd" clip-rule="evenodd" points="98.8,77.1 133.6,72.2 133.6,69.7 98.8,74.7 "/>
<polygon fill-rule="evenodd" clip-rule="evenodd" points="150.9,63.5 185.5,68.5 185.5,66 150.9,61 "/>
<polygon fill-rule="evenodd" clip-rule="evenodd" points="150.9,67.2 185.5,72.2 185.5,69.7 150.9,64.7 "/>
<polygon fill-rule="evenodd" clip-rule="evenodd" points="203.6,53.6 238.2,58.5 238.2,56.1 203.6,51.1 "/>
<polygon fill-rule="evenodd" clip-rule="evenodd" points="203.6,49.9 238.2,54.8 238.2,52.3 203.6,47.4 "/>
<g>
	<path d="M347.7,75.8c-3.2,0-6.1-2.3-6.1-5.1c0-2.4,1.7-5,5.1-7.9c-0.2-0.9-0.3-1.8-0.3-2.7c0-2.6,0.9-5.1,2.4-6.3
		c1.4,1.9,2,3.7,2,5.3c0,2.2-1,4.2-3.2,6.1l0.7,3.1c0.4,0,0.6,0,0.6,0c2,0,3.6,1.5,3.6,3.5c0,1.4-1.1,2.8-2.7,3.6
		c0-0.1,0.6,2.8,0.6,3.3c0,1.9-1.7,3.2-3.7,3.2c-1.5,0-2.7-1-2.7-2.5c0-1.1,0.7-1.9,1.8-1.9c1,0,1.7,1,1.7,1.9c0,1-0.9,1.7-2,1.8
		c0.4,0.2,0.9,0.3,1.4,0.3c1.6,0,3.1-1.2,3.1-2.7c0-0.1,0-0.3,0-0.5l-0.6-2.8C348.9,75.7,348.4,75.8,347.7,75.8z M346,71.9
		c0,0.8,0.4,1.4,1.2,1.9c-1.3-0.2-2.2-1.1-2.2-2.3c0-1.5,1.3-2.8,2.9-3.1l-0.6-3c-2.8,2.1-4.3,4.1-4.3,6.1c0,2.2,2.1,4,4.5,4
		c0.7,0,1.3-0.1,1.8-0.4l-1.1-5.1C347,70.1,346,70.8,346,71.9z M349.1,55.9c-1.2,0-2.2,2.8-2.2,5.3c0,0.5,0,1,0.1,1.4
		c2-1.8,3-3.4,3-4.9c0-0.7-0.3-1.3-0.7-1.8C349.2,55.9,349.2,55.9,349.1,55.9z M351.1,72.3c0-1.2-0.9-2.4-2.2-2.4c0,0-0.2,0-0.4,0
		l1.1,5C350.6,74.1,351.1,73.3,351.1,72.3z"/>
</g>
<polygon fill-rule="evenodd" clip-rule="evenodd" points="298.5,58.5 335.9,53.6 335.9,51.1 298.5,56.1 "/>
<polygon fill-rule="evenodd" clip-rule="evenodd" points="298.5,54.8 335.9,49.9 335.9,47.4 298.5,52.3 "/>
<polygon fill-rule="evenodd" clip-rule="evenodd" points="362.2,68.5 399.6,63.5 399.6,61 362.2,66 "/>
<polygon fill-rule="evenodd" clip-rule="evenodd" points="362.2,64.7 399.6,59.8 399.6,57.3 362.2,62.3 "/>
<g>
	<path d="M456,69.2c2.2-2,3.6-4.6,3.6-6.9c0-1.9-1.1-3.3-2.8-3.3c-1.2,0-2.5,1-2.5,2.1c0,0.2,0,0.2,0.1,0.2c0,0,0.4-0.5,1-0.5
		c0.7,0,1.2,0.6,1.2,1.3c0,0.9-0.6,1.7-1.6,1.7s-1.5-1-1.5-2.1c0-1.8,1.7-3.1,3.6-3.1c3.5,0,4.4,2.4,4.4,4.4c0,1.2-0.3,2.2-1.5,4
		c-1.4,2.3-4.8,4-6,4c-0.3,0-0.5-0.1-0.5-0.3C454.6,70.1,455.4,69.7,456,69.2z M463.5,59.7c0.4,0,0.7,0.3,0.7,0.7
		c0,0.4-0.3,0.7-0.7,0.7c-0.4,0-0.7-0.3-0.7-0.7C462.7,60,463.1,59.7,463.5,59.7z M463.5,63.4c0.4,0,0.7,0.3,0.7,0.7
		s-0.3,0.7-0.7,0.7c-0.4,0-0.7-0.3-0.7-0.7S463.1,63.4,463.5,63.4z"/>
</g>
<polygon fill-rule="evenodd" clip-rule="evenodd" points="411,58.5 445.8,63.5 445.8,61 411,56.1 "/>
<polygon fill-rule="evenodd" clip-rule="evenodd" points="411,54.8 445.8,59.8 445.8,57.3 411,52.3 "/>
<polygon fill-rule="evenodd" clip-rule="evenodd" points="465.6,74.7 500.2,79.6 500.2,77.1 465.6,72.2 "/>
<polygon fill-rule="evenodd" clip-rule="evenodd" points="465.6,78.4 500.2,83.3 500.2,80.9 465.6,75.9 "/>
<rect x="8.5" y="142.6" width="544.4" height="0.5"/>
<rect x="8.5" y="137.7" width="544.4" height="0.5"/>
<rect x="8.5" y="132.7" width="544.4" height="0.5"/>
<rect x="8.5" y="127.8" width="544.4" height="0.5"/>
<rect x="8.5" y="122.8" width="544.4" height="0.5"/>
<g>
	<path d="M20.3,142.7c-4.2,0-8.1-3.1-8.1-6.9c0-3.2,2.3-6.7,6.8-10.5c-0.3-1.2-0.4-2.4-0.4-3.6c0-3.5,1.2-6.8,3.2-8.5
		c1.8,2.5,2.7,4.9,2.7,7.1c0,2.9-1.3,5.6-4.3,8.1l0.9,4.2c0.5,0,0.8-0.1,0.8-0.1c2.6,0,4.8,2,4.8,4.7c0,1.9-1.4,3.7-3.6,4.8
		c0-0.1,0.9,3.8,0.9,4.3c0,2.5-2.3,4.2-4.9,4.2c-2,0-3.6-1.3-3.6-3.4c0-1.4,1-2.6,2.4-2.6c1.3,0,2.3,1.3,2.3,2.5
		c0,1.4-1.2,2.3-2.7,2.5c0.6,0.3,1.2,0.5,1.9,0.5c2.1,0,4.1-1.6,4.1-3.6c0-0.2,0-0.4-0.1-0.6l-0.8-3.7
		C21.9,142.6,21.2,142.7,20.3,142.7z M18.1,137.5c0,1,0.5,1.9,1.6,2.5c-1.8-0.3-3-1.4-3-3.1c0-2,1.7-3.7,3.8-4.1l-0.8-4
		c-3.7,2.8-5.7,5.5-5.7,8.1c0,2.9,2.8,5.3,6,5.3c0.9,0,1.7-0.2,2.4-0.5l-1.4-6.8C19.4,135.1,18.1,136.1,18.1,137.5z M22.1,116.1
		c-1.6,0-2.9,3.7-2.9,7c0,0.7,0,1.3,0.2,1.9c2.7-2.4,4-4.5,4-6.5c0-0.9-0.3-1.7-1-2.4C22.4,116.2,22.3,116.1,22.1,116.1z M24.9,138
		c0-1.6-1.2-3.3-2.9-3.3c-0.1,0-0.2,0-0.5,0l1.4,6.6C24.2,140.5,24.9,139.3,24.9,138z"/>
</g>
<g>
	<path d="M29.5,124.6h0.6l-0.1,6.2c0.4-0.7,1-1,1.8-1c1.2,0,2.2,0.8,2.2,1.9c0,0.8-0.5,1.8-1.7,2.7l-2.8,2.1V124.6z M30.1,131.5
		c-0.1,0.8-0.1,1.4-0.1,1.9c0,1,0,1.6,0.1,2c1-0.7,2.4-2.6,2.4-3.7c0-0.6-0.5-1.1-1.1-1.1C30.8,130.7,30.4,131,30.1,131.5z"/>
</g>
<g>
	<path d="M35.1,117.2h0.6l-0.1,6.2c0.4-0.7,1-1,1.8-1c1.2,0,2.2,0.8,2.2,1.9c0,0.8-0.5,1.8-1.7,2.7l-2.8,2.1V117.2z M35.7,124.1
		c-0.1,0.8-0.1,1.4-0.1,1.9c0,1,0,1.6,0.1,2c1-0.7,2.4-2.6,2.4-3.7c0-0.6-0.5-1.1-1.1-1.1C36.4,123.3,36,123.5,35.7,124.1z"/>
</g>
<polygon fill-rule="evenodd" clip-rule="evenodd" points="54.8,129.2 89.7,124.3 89.7,121.8 54.8,126.7 "/>
<polygon fill-rule="evenodd" clip-rule="evenodd" points="54.8,125.5 89.7,120.5 89.7,118.1 54.8,123 "/>
<polygon fill-rule="evenodd" clip-rule="evenodd" points="109.5,144.1 144.6,139.1 144.6,136.7 109.5,141.6 "/>
<polygon fill-rule="evenodd" clip-rule="evenodd" points="109.5,147.8 144.6,142.9 144.6,140.4 109.5,145.3 "/>
<polygon fill-rule="evenodd" clip-rule="evenodd" points="156.3,134.2 188.7,139.1 188.7,136.7 156.3,131.7 "/>
<polygon fill-rule="evenodd" clip-rule="evenodd" points="156.3,137.9 188.7,142.9 188.7,140.4 156.3,135.4 "/>
<polygon fill-rule="evenodd" clip-rule="evenodd" points="221.6,123 252.6,128 252.6,125.5 221.6,120.5 "/>
<polygon fill-rule="evenodd" clip-rule="evenodd" points="221.6,119.3 252.6,124.3 252.6,121.8 221.6,116.8 "/>
<polygon fill-rule="evenodd" clip-rule="evenodd" points="307.8,128 342.8,123 342.8,120.5 307.8,125.5 "/>
<polygon fill-rule="evenodd" clip-rule="evenodd" points="307.8,124.3 342.8,119.3 342.8,116.8 307.8,121.8 "/>
<polygon fill-rule="evenodd" clip-rule="evenodd" points="362.7,139.1 398.9,134.2 398.9,131.7 362.7,136.7 "/>
<polygon fill-rule="evenodd" clip-rule="evenodd" points="362.7,142.9 398.9,137.9 398.9,135.4 362.7,140.4 "/>
<polygon fill-rule="evenodd" clip-rule="evenodd" points="410.7,129.2 444.7,134.2 444.7,131.7 410.7,126.7 "/>
<polygon fill-rule="evenodd" clip-rule="evenodd" points="410.7,132.9 444.7,137.9 444.7,135.4 410.7,130.5 "/>
<polygon fill-rule="evenodd" clip-rule="evenodd" points="471,145.3 503.4,150.3 503.4,147.8 471,142.9 "/>
<polygon fill-rule="evenodd" clip-rule="evenodd" points="471,149.1 503.4,154 503.4,151.5 471,146.6 "/>
<rect x="8.5" y="189.8" width="544.4" height="0.5"/>
<rect x="8.5" y="184.8" width="544.4" height="0.5"/>
<rect x="8.5" y="179.8" width="544.4" height="0.5"/>
<rect x="8.5" y="174.9" width="544.4" height="0.5"/>
<rect x="8.5" y="169.9" width="544.4" height="0.5"/>
<g>
	<path d="M15.7,184.3c2.9-2.6,4.7-6.1,4.7-9.2c0-2.5-1.4-4.4-3.7-4.4c-1.6,0-3.4,1.3-3.4,2.7c0,0.2,0,0.3,0.1,0.3
		c-0.1,0,0.6-0.6,1.4-0.6c0.9,0,1.5,0.8,1.5,1.7c0,1.2-0.9,2.2-2.1,2.2c-1.2,0-2.1-1.3-2.1-2.8c0-2.3,2.3-4.1,4.8-4.1
		c4.7,0,5.9,3.2,5.9,5.8c0,1.6-0.4,2.9-2,5.3c-1.9,3.1-6.4,5.3-8.1,5.3c-0.4,0-0.6-0.2-0.6-0.5C13.8,185.6,14.9,185,15.7,184.3z
		 M25.7,171.6c0.6,0,1,0.4,1,1c0,0.6-0.4,1-1,1s-1-0.4-1-1C24.7,172.1,25.1,171.6,25.7,171.6z M25.7,176.6c0.6,0,1,0.4,1,1
		c0,0.6-0.4,1-1,1s-1-0.4-1-1C24.7,177,25.1,176.6,25.7,176.6z"/>
</g>
<g>
	<path d="M29.5,176.7h0.6L30,183c0.4-0.7,1-1,1.8-1c1.2,0,2.2,0.8,2.2,1.9c0,0.8-0.5,1.8-1.7,2.7l-2.8,2.1V176.7z M30.1,183.6
		c-0.1,0.8-0.1,1.4-0.1,1.9c0,1,0,1.6,0.1,2c1-0.7,2.4-2.6,2.4-3.7c0-0.6-0.5-1.1-1.1-1.1C30.8,182.8,30.4,183.1,30.1,183.6z"/>
</g>
<g>
	<path d="M35.1,169.3h0.6l-0.1,6.2c0.4-0.7,1-1,1.8-1c1.2,0,2.2,0.8,2.2,1.9c0,0.8-0.5,1.8-1.7,2.7l-2.8,2.1V169.3z M35.7,176.2
		c-0.1,0.8-0.1,1.4-0.1,1.9c0,1,0,1.6,0.1,2c1-0.7,2.4-2.6,2.4-3.7c0-0.6-0.5-1.1-1.1-1.1C36.4,175.3,36,175.6,35.7,176.2z"/>
</g>
<g>
	<path d="M101.5,188.6c-3.2,0-6.1-2.3-6.1-5.1c0-2.4,1.7-5,5.1-7.9c-0.2-0.9-0.3-1.8-0.3-2.7c0-2.6,0.9-5.1,2.4-6.3
		c1.4,1.9,2,3.7,2,5.3c0,2.2-1,4.2-3.2,6.1l0.7,3.1c0.4,0,0.6,0,0.6,0c2,0,3.6,1.5,3.6,3.5c0,1.4-1.1,2.8-2.7,3.6
		c0-0.1,0.6,2.8,0.6,3.3c0,1.9-1.7,3.2-3.7,3.2c-1.5,0-2.7-1-2.7-2.5c0-1.1,0.7-1.9,1.8-1.9c1,0,1.7,1,1.7,1.9c0,1-0.9,1.7-2,1.8
		c0.4,0.2,0.9,0.3,1.4,0.3c1.6,0,3.1-1.2,3.1-2.7c0-0.1,0-0.3,0-0.5l-0.6-2.8C102.7,188.5,102.2,188.6,101.5,188.6z M99.9,184.7
		c0,0.8,0.4,1.4,1.2,1.9c-1.3-0.2-2.2-1.1-2.2-2.3c0-1.5,1.3-2.8,2.9-3.1l-0.6-3c-2.8,2.1-4.3,4.1-4.3,6.1c0,2.2,2.1,4,4.5,4
		c0.7,0,1.3-0.1,1.8-0.4l-1.1-5.1C100.8,182.9,99.9,183.7,99.9,184.7z M102.9,168.7c-1.2,0-2.2,2.8-2.2,5.3c0,0.5,0,1,0.1,1.4
		c2-1.8,3-3.4,3-4.9c0-0.7-0.3-1.3-0.7-1.8C103.1,168.7,103,168.7,102.9,168.7z M105,185.1c0-1.2-0.9-2.4-2.2-2.4c0,0-0.2,0-0.4,0
		l1.1,5C104.4,187,105,186.1,105,185.1z"/>
</g>
<polygon fill-rule="evenodd" clip-rule="evenodd" points="48.3,192.5 83.2,187.5 83.2,185 48.3,190 "/>
<polygon fill-rule="evenodd" clip-rule="evenodd" points="48.3,196.2 83.2,191.2 83.2,188.8 48.3,193.7 "/>
<polygon fill-rule="evenodd" clip-rule="evenodd" points="116,176.4 151.1,171.4 151.1,168.9 116,173.9 "/>
<polygon fill-rule="evenodd" clip-rule="evenodd" points="116,172.6 151.1,167.7 151.1,165.2 116,170.2 "/>
<g>
	<path d="M203.6,182c2.2-2,3.6-4.6,3.6-6.9c0-1.9-1.1-3.3-2.8-3.3c-1.2,0-2.5,1-2.5,2.1c0,0.2,0,0.2,0.1,0.2c0,0,0.4-0.5,1-0.5
		c0.7,0,1.2,0.6,1.2,1.3c0,0.9-0.6,1.7-1.6,1.7c-0.9,0-1.5-1-1.5-2.1c0-1.8,1.7-3.1,3.6-3.1c3.5,0,4.4,2.4,4.4,4.4
		c0,1.2-0.3,2.2-1.5,4c-1.4,2.3-4.8,4-6,4c-0.3,0-0.5-0.1-0.5-0.3C202.2,183,203.1,182.5,203.6,182z M211.1,172.5
		c0.4,0,0.7,0.3,0.7,0.7c0,0.4-0.3,0.7-0.7,0.7s-0.7-0.3-0.7-0.7C210.4,172.8,210.7,172.5,211.1,172.5z M211.1,176.2
		c0.4,0,0.7,0.3,0.7,0.7s-0.3,0.7-0.7,0.7s-0.7-0.3-0.7-0.7S210.7,176.2,211.1,176.2z"/>
</g>
<polygon fill-rule="evenodd" clip-rule="evenodd" points="162.9,170.2 195.3,175.1 195.3,172.6 162.9,167.7 "/>
<polygon fill-rule="evenodd" clip-rule="evenodd" points="162.9,166.4 195.3,171.4 195.3,168.9 162.9,164 "/>
<polygon fill-rule="evenodd" clip-rule="evenodd" points="215.1,186.3 246.1,191.2 246.1,188.8 215.1,183.8 "/>
<polygon fill-rule="evenodd" clip-rule="evenodd" points="215.1,190 246.1,195 246.1,192.5 215.1,187.5 "/>
<g>
	<path d="M356.5,188.6c-3.2,0-6.1-2.3-6.1-5.1c0-2.4,1.7-5,5.1-7.9c-0.2-0.9-0.3-1.8-0.3-2.7c0-2.6,0.9-5.1,2.4-6.3
		c1.4,1.9,2,3.7,2,5.3c0,2.2-1,4.2-3.2,6.1l0.7,3.1c0.4,0,0.6,0,0.6,0c2,0,3.6,1.5,3.6,3.5c0,1.4-1.1,2.8-2.7,3.6
		c0-0.1,0.6,2.8,0.6,3.3c0,1.9-1.7,3.2-3.7,3.2c-1.5,0-2.7-1-2.7-2.5c0-1.1,0.7-1.9,1.8-1.9c1,0,1.7,1,1.7,1.9c0,1-0.9,1.7-2,1.8
		c0.4,0.2,0.9,0.3,1.4,0.3c1.6,0,3.1-1.2,3.1-2.7c0-0.1,0-0.3,0-0.5l-0.6-2.8C357.7,188.5,357.2,188.6,356.5,188.6z M354.9,184.7
		c0,0.8,0.4,1.4,1.2,1.9c-1.3-0.2-2.2-1.1-2.2-2.3c0-1.5,1.3-2.8,2.9-3.1l-0.6-3c-2.8,2.1-4.3,4.1-4.3,6.1c0,2.2,2.1,4,4.5,4
		c0.7,0,1.3-0.1,1.8-0.4l-1.1-5.1C355.8,182.9,354.9,183.7,354.9,184.7z M357.9,168.7c-1.2,0-2.2,2.8-2.2,5.3c0,0.5,0,1,0.1,1.4
		c2-1.8,3-3.4,3-4.9c0-0.7-0.3-1.3-0.7-1.8C358.1,168.7,358,168.7,357.9,168.7z M360,185.1c0-1.2-0.9-2.4-2.2-2.4c0,0-0.2,0-0.4,0
		l1.1,5C359.4,187,360,186.1,360,185.1z"/>
</g>
<polygon fill-rule="evenodd" clip-rule="evenodd" points="301.3,191.2 336.3,186.3 336.3,183.8 301.3,188.8 "/>
<polygon fill-rule="evenodd" clip-rule="evenodd" points="301.3,195 336.3,190 336.3,187.5 301.3,192.5 "/>
<polygon fill-rule="evenodd" clip-rule="evenodd" points="369.2,175.1 405.5,170.2 405.5,167.7 369.2,172.6 "/>
<polygon fill-rule="evenodd" clip-rule="evenodd" points="369.2,171.4 405.5,166.4 405.5,164 369.2,168.9 "/>
<g>
	<path d="M459.6,182c2.2-2,3.6-4.6,3.6-6.9c0-1.9-1.1-3.3-2.8-3.3c-1.2,0-2.5,1-2.5,2.1c0,0.2,0,0.2,0.1,0.2c0,0,0.4-0.5,1-0.5
		c0.7,0,1.2,0.6,1.2,1.3c0,0.9-0.6,1.7-1.6,1.7s-1.5-1-1.5-2.1c0-1.8,1.7-3.1,3.6-3.1c3.5,0,4.4,2.4,4.4,4.4c0,1.2-0.3,2.2-1.5,4
		c-1.4,2.3-4.8,4-6,4c-0.3,0-0.5-0.1-0.5-0.3C458.1,183,459,182.5,459.6,182z M467,172.5c0.4,0,0.7,0.3,0.7,0.7
		c0,0.4-0.3,0.7-0.7,0.7c-0.4,0-0.7-0.3-0.7-0.7C466.3,172.8,466.6,172.5,467,172.5z M467,176.2c0.4,0,0.7,0.3,0.7,0.7
		s-0.3,0.7-0.7,0.7c-0.4,0-0.7-0.3-0.7-0.7S466.6,176.2,467,176.2z"/>
</g>
<polygon fill-rule="evenodd" clip-rule="evenodd" points="410.7,192.5 444.7,197.4 444.7,195 410.7,190 "/>
<polygon fill-rule="evenodd" clip-rule="evenodd" points="410.7,196.2 444.7,201.2 444.7,198.7 410.7,193.7 "/>
<polygon fill-rule="evenodd" clip-rule="evenodd" points="471,181.3 503.4,186.3 503.4,183.8 471,178.8 "/>
<polygon fill-rule="evenodd" clip-rule="evenodd" points="471,185 503.4,190 503.4,187.5 471,182.6 "/>
<rect x="48" y="34.1" width="10.5" height="0.8"/>
<rect x="48" y="39.1" width="10.5" height="0.8"/>
<rect x="48" y="44.1" width="10.5" height="0.8"/>
<rect x="56.3" y="19.8" width="0.5" height="23.9"/>
<g>
	<path d="M49.8,45.3c0-1.8,2.5-3.5,4.5-3.5c1.3,0,2.3,0.7,2.3,1.7c0,1.7-2.5,3.5-4.6,3.5C50.8,47,49.8,46.4,49.8,45.3z"/>
</g>
<g>
	<path d="M46.2,37.6v2.8l1-0.3v1.8l-1,0.3v3.4l1-0.3v1.8l-1,0.3v3.1h-0.5v-3l-1.9,0.6v3h-0.5v-2.8l-1,0.3v-1.8l1-0.3v-3.4l-1,0.3
		v-1.8l1-0.3v-3.1h0.5v3l1.9-0.6v-3H46.2z M45.7,42.4L43.8,43v3.4l1.9-0.6V42.4z"/>
</g>
<rect x="59.5" y="34.1" width="10.5" height="0.8"/>
<rect x="59.5" y="39.1" width="10.5" height="0.8"/>
<rect x="67.8" y="18.2" width="0.5" height="20.5"/>
<g>
	<path d="M61.3,40.3c0-1.8,2.5-3.5,4.5-3.5c1.3,0,2.3,0.7,2.3,1.7c0,1.7-2.5,3.5-4.6,3.5C62.3,42.1,61.3,41.4,61.3,40.3z"/>
</g>
<rect x="71.1" y="34.1" width="10.5" height="0.8"/>
<rect x="79.4" y="16.5" width="0.5" height="17.2"/>
<g>
	<path d="M72.9,35.4c0-1.8,2.5-3.5,4.5-3.5c1.3,0,2.3,0.7,2.3,1.7c0,1.7-2.5,3.5-4.6,3.5C73.9,37.1,72.9,36.5,72.9,35.4z"/>
</g>
<rect x="90.9" y="14.8" width="0.5" height="14"/>
<g>
	<path d="M84.4,30.4c0-1.8,2.5-3.5,4.5-3.5c1.3,0,2.3,0.7,2.3,1.7c0,1.7-2.5,3.5-4.6,3.5C85.4,32.1,84.4,31.5,84.4,30.4z"/>
</g>
<rect x="98.6" y="27.9" width="0.5" height="12.7"/>
<g>
	<path d="M98.7,27.9c0-1.8,2.5-3.5,4.5-3.5c1.3,0,2.3,0.7,2.3,1.7c0,1.7-2.5,3.5-4.6,3.5C99.7,29.7,98.7,29,98.7,27.9z"/>
</g>
<g>
	<path d="M96.3,20.3v2.8l1-0.3v1.8l-1,0.3v3.4l1-0.3v1.8l-1,0.3v3.1h-0.5v-3l-1.9,0.6v3h-0.5V31l-1,0.3v-1.8l1-0.3v-3.4l-1,0.3v-1.8
		l1-0.3v-3.1h0.5v3l1.9-0.6v-3H96.3z M95.8,25l-1.9,0.6v3.4l1.9-0.6V25z"/>
</g>
<rect x="110.2" y="22.9" width="0.5" height="16.1"/>
<g>
	<path d="M110.3,23c0-1.8,2.5-3.5,4.5-3.5c1.3,0,2.3,0.7,2.3,1.7c0,1.7-2.5,3.5-4.6,3.5C111.3,24.7,110.3,24.1,110.3,23z"/>
</g>
<rect x="121.7" y="17.9" width="0.5" height="19.4"/>
<g>
	<path d="M121.8,18c0-1.8,2.5-3.5,4.5-3.5c1.3,0,2.3,0.7,2.3,1.7c0,1.7-2.5,3.5-4.6,3.5C122.7,19.7,121.8,19.1,121.8,18z"/>
</g>
<rect x="133.3" y="13" width="0.5" height="22.6"/>
<g>
	<path d="M133.4,13c0-1.8,2.5-3.5,4.5-3.5c1.3,0,2.3,0.7,2.3,1.7c0,1.7-2.5,3.5-4.6,3.5C134.4,14.8,133.4,14.1,133.4,13z"/>
</g>
<rect x="150.7" y="10.5" width="0.5" height="20.2"/>
<g>
	<path d="M150.8,10.6c0-1.8,2.5-3.5,4.5-3.5c1.3,0,2.3,0.7,2.3,1.7c0,1.7-2.5,3.5-4.6,3.5C151.7,12.3,150.8,11.7,150.8,10.6z"/>
</g>
<g>
	<path d="M148.3,2.9v2.8l1-0.3v1.8l-1,0.3V11l1-0.3v1.8l-1,0.3v3.1h-0.5v-3l-1.9,0.6v3h-0.5v-2.8l-1,0.3v-1.8l1-0.3V8.4l-1,0.3V7
		l1-0.3V3.5h0.5v3l1.9-0.6v-3H148.3z M147.8,7.7l-1.9,0.6v3.4l1.9-0.6V7.7z"/>
</g>
<rect x="162.2" y="13" width="0.5" height="19.2"/>
<g>
	<path d="M162.2,13c0-1.8,2.5-3.5,4.5-3.5c1.3,0,2.3,0.7,2.3,1.7c0,1.7-2.5,3.5-4.6,3.5C163.2,14.8,162.2,14.1,162.2,13z"/>
</g>
<rect x="173.8" y="17.9" width="0.5" height="16"/>
<g>
	<path d="M173.9,18c0-1.8,2.5-3.5,4.5-3.5c1.3,0,2.3,0.7,2.3,1.7c0,1.7-2.5,3.5-4.6,3.5C174.8,19.7,173.9,19.1,173.9,18z"/>
</g>
<rect x="185.3" y="22.9" width="0.5" height="12.7"/>
<g>
	<path d="M185.3,23c0-1.8,2.5-3.5,4.5-3.5c1.3,0,2.3,0.7,2.3,1.7c0,1.7-2.5,3.5-4.6,3.5C186.3,24.7,185.3,24.1,185.3,23z"/>
</g>
<rect x="203.4" y="9.9" width="0.5" height="16.4"/>
<g>
	<path d="M197,27.9c0-1.8,2.5-3.5,4.5-3.5c1.3,0,2.3,0.7,2.3,1.7c0,1.7-2.5,3.5-4.6,3.5C197.9,29.7,197,29,197,27.9z"/>
</g>
<rect x="214.9" y="11.4" width="0.5" height="17.4"/>
<g>
	<path d="M208.4,30.4c0-1.8,2.5-3.5,4.5-3.5c1.3,0,2.3,0.7,2.3,1.7c0,1.7-2.5,3.5-4.6,3.5C209.4,32.1,208.4,31.5,208.4,30.4z"/>
</g>
<rect x="218.2" y="34.1" width="10.5" height="0.8"/>
<rect x="226.5" y="13.1" width="0.5" height="20.6"/>
<g>
	<path d="M220.1,35.4c0-1.8,2.5-3.5,4.5-3.5c1.3,0,2.3,0.7,2.3,1.7c0,1.7-2.5,3.5-4.6,3.5C221,37.1,220.1,36.5,220.1,35.4z"/>
</g>
<rect x="229.7" y="34.1" width="10.5" height="0.8"/>
<rect x="229.7" y="39.1" width="10.5" height="0.8"/>
<rect x="238" y="14.8" width="0.5" height="23.9"/>
<g>
	<path d="M231.5,40.3c0-1.8,2.5-3.5,4.5-3.5c1.3,0,2.3,0.7,2.3,1.7c0,1.7-2.5,3.5-4.6,3.5C232.5,42.1,231.5,41.4,231.5,40.3z"/>
</g>
<rect x="241.3" y="34.1" width="10.7" height="0.8"/>
<rect x="241.3" y="39.1" width="10.7" height="0.8"/>
<rect x="241.3" y="44.1" width="10.7" height="0.8"/>
<rect x="249.7" y="19.6" width="0.5" height="24"/>
<g>
	<path d="M247.4,41.7c1.6,0,2.7,0.7,2.7,2c0,1.9-2.3,3.4-4.5,3.4c-1.3,0-2.4-0.7-2.4-1.8C243.2,43.5,245.4,41.7,247.4,41.7z
		 M243.6,45.6c0,0.6,0.4,0.9,1.1,0.9c1.4,0,4.9-2.1,4.9-3.3c0-0.6-0.4-0.9-1.1-0.9C247.3,42.3,243.6,44.4,243.6,45.6z"/>
</g>
<rect x="290" y="34.1" width="10.5" height="0.8"/>
<rect x="290" y="39.1" width="10.5" height="0.8"/>
<rect x="298.3" y="14.8" width="0.5" height="23.9"/>
<g>
	<path d="M291.8,40.3c0-1.8,2.5-3.5,4.5-3.5c1.3,0,2.3,0.7,2.3,1.7c0,1.7-2.5,3.5-4.6,3.5C292.8,42.1,291.8,41.4,291.8,40.3z"/>
</g>
<rect x="301.4" y="34.1" width="10.5" height="0.8"/>
<rect x="309.7" y="13.4" width="0.5" height="20.3"/>
<g>
	<path d="M303.3,35.4c0-1.8,2.5-3.5,4.5-3.5c1.3,0,2.3,0.7,2.3,1.7c0,1.7-2.5,3.5-4.6,3.5C304.3,37.1,303.3,36.5,303.3,35.4z"/>
</g>
<rect x="321.4" y="11.9" width="0.5" height="16.9"/>
<g>
	<path d="M314.9,30.4c0-1.8,2.5-3.5,4.5-3.5c1.3,0,2.3,0.7,2.3,1.7c0,1.7-2.5,3.5-4.6,3.5C315.9,32.1,314.9,31.5,314.9,30.4z"/>
</g>
<rect x="335.6" y="9.9" width="0.5" height="16.4"/>
<g>
	<path d="M329.2,27.9c0-1.8,2.5-3.5,4.5-3.5c1.3,0,2.3,0.7,2.3,1.7c0,1.7-2.5,3.5-4.6,3.5C330.2,29.7,329.2,29,329.2,27.9z"/>
</g>
<g>
	<path d="M326.8,20.3v2.8l1-0.3v1.8l-1,0.3v3.4l1-0.3v1.8l-1,0.3v3.1h-0.5v-3l-1.9,0.6v3h-0.5V31l-1,0.3v-1.8l1-0.3v-3.4l-1,0.3
		v-1.8l1-0.3v-3.1h0.5v3l1.9-0.6v-3H326.8z M326.3,25l-1.9,0.6v3.4l1.9-0.6V25z"/>
</g>
<rect x="355.5" y="22.9" width="0.5" height="12.7"/>
<g>
	<path d="M355.5,23c0-1.8,2.5-3.5,4.5-3.5c1.3,0,2.3,0.7,2.3,1.7c0,1.7-2.5,3.5-4.6,3.5C356.5,24.7,355.5,24.1,355.5,23z"/>
</g>
<rect x="366.9" y="17.9" width="0.5" height="16.3"/>
<g>
	<path d="M367,18c0-1.8,2.5-3.5,4.5-3.5c1.3,0,2.3,0.7,2.3,1.7c0,1.7-2.5,3.5-4.6,3.5C368,19.7,367,19.1,367,18z"/>
</g>
<rect x="378.6" y="13" width="0.5" height="19.7"/>
<g>
	<path d="M378.6,13c0-1.8,2.5-3.5,4.5-3.5c1.3,0,2.3,0.7,2.3,1.7c0,1.7-2.5,3.5-4.6,3.5C379.6,14.8,378.6,14.1,378.6,13z"/>
</g>
<rect x="392.8" y="10.5" width="0.5" height="20.2"/>
<g>
	<path d="M392.9,10.6c0-1.8,2.5-3.5,4.5-3.5c1.3,0,2.3,0.7,2.3,1.7c0,1.7-2.5,3.5-4.6,3.5C393.9,12.3,392.9,11.7,392.9,10.6z"/>
</g>
<g>
	<path d="M390.5,2.9v2.8l1-0.3v1.8l-1,0.3V11l1-0.3v1.8l-1,0.3v3.1H390v-3l-1.9,0.6v3h-0.5v-2.8l-1,0.3v-1.8l1-0.3V8.4l-1,0.3V7
		l1-0.3V3.5h0.5v3l1.9-0.6v-3H390.5z M390,7.7l-1.9,0.6v3.4l1.9-0.6V7.7z"/>
</g>
<rect x="402.5" y="4.4" width="10.5" height="0.8"/>
<rect x="404.3" y="5.5" width="0.5" height="23.9"/>
<g>
	<path d="M404.4,5.6c0-1.8,2.5-3.5,4.5-3.5c1.3,0,2.3,0.7,2.3,1.7c0,1.7-2.5,3.5-4.6,3.5C405.3,7.3,404.4,6.7,404.4,5.6z"/>
</g>
<rect x="415.9" y="10.5" width="0.5" height="20.5"/>
<g>
	<path d="M416,10.6c0-1.8,2.5-3.5,4.5-3.5c1.3,0,2.3,0.7,2.3,1.7c0,1.7-2.5,3.5-4.6,3.5C417,12.3,416,11.7,416,10.6z"/>
</g>
<rect x="427.4" y="13" width="0.5" height="19.7"/>
<g>
	<path d="M427.5,13c0-1.8,2.5-3.5,4.5-3.5c1.3,0,2.3,0.7,2.3,1.7c0,1.7-2.5,3.5-4.6,3.5C428.4,14.8,427.5,14.1,427.5,13z"/>
</g>
<rect x="439" y="17.9" width="0.5" height="16.4"/>
<g>
	<path d="M439.1,18c0-1.8,2.5-3.5,4.5-3.5c1.3,0,2.3,0.7,2.3,1.7c0,1.7-2.5,3.5-4.6,3.5C440.1,19.7,439.1,19.1,439.1,18z"/>
</g>
<rect x="471.9" y="4.9" width="0.5" height="16.4"/>
<g>
	<path d="M465.4,23c0-1.8,2.5-3.5,4.5-3.5c1.3,0,2.3,0.7,2.3,1.7c0,1.7-2.5,3.5-4.6,3.5C466.4,24.7,465.4,24.1,465.4,23z"/>
</g>
<rect x="483.3" y="6.5" width="0.5" height="19.8"/>
<g>
	<path d="M476.9,27.9c0-1.8,2.5-3.5,4.5-3.5c1.3,0,2.3,0.7,2.3,1.7c0,1.7-2.5,3.5-4.6,3.5C477.9,29.7,476.9,29,476.9,27.9z"/>
</g>
<rect x="495" y="8.2" width="0.5" height="20.6"/>
<g>
	<path d="M488.5,30.4c0-1.8,2.5-3.5,4.5-3.5c1.3,0,2.3,0.7,2.3,1.7c0,1.7-2.5,3.5-4.6,3.5C489.5,32.1,488.5,31.5,488.5,30.4z"/>
</g>
<rect x="498.2" y="34.1" width="10.5" height="0.8"/>
<rect x="506.4" y="9.9" width="0.5" height="23.9"/>
<g>
	<path d="M500,35.4c0-1.8,2.5-3.5,4.5-3.5c1.3,0,2.3,0.7,2.3,1.7c0,1.7-2.5,3.5-4.6,3.5C501,37.1,500,36.5,500,35.4z"/>
</g>
<rect x="509.8" y="34.1" width="10.7" height="0.8"/>
<rect x="509.8" y="39.1" width="10.7" height="0.8"/>
<rect x="518.2" y="19.6" width="0.5" height="19.1"/>
<g>
	<path d="M515.9,36.8c1.6,0,2.7,0.7,2.7,2c0,1.9-2.3,3.4-4.5,3.4c-1.3,0-2.4-0.7-2.4-1.8C511.6,38.6,513.9,36.8,515.9,36.8z
		 M512.1,40.6c0,0.6,0.4,0.9,1.1,0.9c1.4,0,4.9-2.1,4.9-3.3c0-0.6-0.4-0.9-1.1-0.9C515.8,37.4,512.1,39.4,512.1,40.6z"/>
</g>
<rect x="56.3" y="56.2" width="0.5" height="22.6"/>
<g>
	<path d="M49.8,80.5c0-1.8,2.5-3.5,4.5-3.5c1.3,0,2.3,0.7,2.3,1.7c0,1.7-2.5,3.5-4.6,3.5C50.8,82.2,49.8,81.6,49.8,80.5z"/>
</g>
<g>
	<path d="M47.4,72.8v2.8l1-0.3v1.8l-1,0.3v3.4l1-0.3v1.8l-1,0.3v3.1h-0.5v-3L45,83.5v3h-0.5v-2.8l-1,0.3v-1.8l1-0.3v-3.4l-1,0.3
		v-1.8l1-0.3v-3.1H45v3l1.9-0.6v-3H47.4z M46.9,77.6L45,78.2v3.4l1.9-0.6V77.6z"/>
</g>
<rect x="67.8" y="54.7" width="0.5" height="19.2"/>
<g>
	<path d="M61.3,75.5c0-1.8,2.5-3.5,4.5-3.5c1.3,0,2.3,0.7,2.3,1.7c0,1.7-2.5,3.5-4.6,3.5C62.3,77.2,61.3,76.6,61.3,75.5z"/>
</g>
<rect x="79.4" y="53" width="0.5" height="16"/>
<g>
	<path d="M72.9,70.6c0-1.8,2.5-3.5,4.5-3.5c1.3,0,2.3,0.7,2.3,1.7c0,1.7-2.5,3.5-4.6,3.5C73.9,72.3,72.9,71.6,72.9,70.6z"/>
</g>
<rect x="90.9" y="51.3" width="0.5" height="12.7"/>
<g>
	<path d="M84.4,65.6c0-1.8,2.5-3.5,4.5-3.5c1.3,0,2.3,0.7,2.3,1.7c0,1.7-2.5,3.5-4.6,3.5C85.4,67.3,84.4,66.7,84.4,65.6z"/>
</g>
<rect x="98.6" y="63" width="0.5" height="14"/>
<g>
	<path d="M98.7,63.1c0-1.8,2.5-3.5,4.5-3.5c1.3,0,2.3,0.7,2.3,1.7c0,1.7-2.5,3.5-4.6,3.5C99.7,64.8,98.7,64.2,98.7,63.1z"/>
</g>
<g>
	<path d="M96.3,55.4v2.8l1-0.3v1.8l-1,0.3v3.4l1-0.3V65l-1,0.3v3.1h-0.5v-3l-1.9,0.6v3h-0.5v-2.8l-1,0.3v-1.8l1-0.3V61l-1,0.3v-1.8
		l1-0.3v-3.1h0.5v3l1.9-0.6v-3H96.3z M95.8,60.2l-1.9,0.6v3.4l1.9-0.6V60.2z"/>
</g>
<rect x="110.2" y="58.1" width="0.5" height="17.4"/>
<g>
	<path d="M110.3,58.2c0-1.8,2.5-3.5,4.5-3.5c1.3,0,2.3,0.7,2.3,1.7c0,1.7-2.5,3.5-4.6,3.5C111.3,59.9,110.3,59.2,110.3,58.2z"/>
</g>
<rect x="119.9" y="52" width="10.5" height="0.8"/>
<rect x="121.7" y="53.1" width="0.5" height="20.6"/>
<g>
	<path d="M121.8,53.2c0-1.8,2.5-3.5,4.5-3.5c1.3,0,2.3,0.7,2.3,1.7c0,1.7-2.5,3.5-4.6,3.5C122.7,54.9,121.8,54.3,121.8,53.2z"/>
</g>
<rect x="131.5" y="52" width="10.5" height="0.8"/>
<rect x="131.5" y="47" width="10.5" height="0.8"/>
<rect x="133.3" y="48.2" width="0.5" height="23.9"/>
<g>
	<path d="M133.4,48.2c0-1.8,2.5-3.5,4.5-3.5c1.3,0,2.3,0.7,2.3,1.7c0,1.7-2.5,3.5-4.6,3.5C134.4,50,133.4,49.3,133.4,48.2z"/>
</g>
<rect x="148.9" y="52" width="10.5" height="0.8"/>
<rect x="148.9" y="47" width="10.5" height="0.8"/>
<rect x="150.7" y="45.7" width="0.5" height="21.4"/>
<g>
	<path d="M150.8,45.8c0-1.8,2.5-3.5,4.5-3.5c1.3,0,2.3,0.7,2.3,1.7c0,1.7-2.5,3.5-4.6,3.5C151.7,47.5,150.8,46.8,150.8,45.8z"/>
</g>
<g>
	<path d="M147.1,38.1v2.8l1-0.3v1.8l-1,0.3v3.4l1-0.3v1.8l-1,0.3v3.1h-0.5v-3l-1.9,0.6v3h-0.5v-2.8l-1,0.3v-1.8l1-0.3v-3.4l-1,0.3
		v-1.8l1-0.3v-3.1h0.5v3l1.9-0.6v-3H147.1z M146.6,42.9l-1.9,0.6v3.4l1.9-0.6V42.9z"/>
</g>
<rect x="160.4" y="52" width="10.5" height="0.8"/>
<rect x="160.4" y="47" width="10.5" height="0.8"/>
<rect x="162.2" y="48.2" width="0.5" height="20.5"/>
<g>
	<path d="M162.2,48.2c0-1.8,2.5-3.5,4.5-3.5c1.3,0,2.3,0.7,2.3,1.7c0,1.7-2.5,3.5-4.6,3.5C163.2,50,162.2,49.3,162.2,48.2z"/>
</g>
<rect x="172" y="52" width="10.5" height="0.8"/>
<rect x="173.8" y="53.1" width="0.5" height="17.2"/>
<g>
	<path d="M173.9,53.2c0-1.8,2.5-3.5,4.5-3.5c1.3,0,2.3,0.7,2.3,1.7c0,1.7-2.5,3.5-4.6,3.5C174.8,54.9,173.9,54.3,173.9,53.2z"/>
</g>
<rect x="185.3" y="58.1" width="0.5" height="14"/>
<g>
	<path d="M185.3,58.2c0-1.8,2.5-3.5,4.5-3.5c1.3,0,2.3,0.7,2.3,1.7c0,1.7-2.5,3.5-4.6,3.5C186.3,59.9,185.3,59.2,185.3,58.2z"/>
</g>
<rect x="203.4" y="47.5" width="0.5" height="14"/>
<g>
	<path d="M197,63.1c0-1.8,2.5-3.5,4.5-3.5c1.3,0,2.3,0.7,2.3,1.7c0,1.7-2.5,3.5-4.6,3.5C197.9,64.8,197,64.2,197,63.1z"/>
</g>
<rect x="214.9" y="49.1" width="0.5" height="14.9"/>
<g>
	<path d="M208.4,65.6c0-1.8,2.5-3.5,4.5-3.5c1.3,0,2.3,0.7,2.3,1.7c0,1.7-2.5,3.5-4.6,3.5C209.4,67.3,208.4,66.7,208.4,65.6z"/>
</g>
<rect x="226.5" y="50.8" width="0.5" height="18.1"/>
<g>
	<path d="M220.1,70.6c0-1.8,2.5-3.5,4.5-3.5c1.3,0,2.3,0.7,2.3,1.7c0,1.7-2.5,3.5-4.6,3.5C221,72.3,220.1,71.6,220.1,70.6z"/>
</g>
<rect x="238" y="52.5" width="0.5" height="21.4"/>
<g>
	<path d="M231.5,75.5c0-1.8,2.5-3.5,4.5-3.5c1.3,0,2.3,0.7,2.3,1.7c0,1.7-2.5,3.5-4.6,3.5C232.5,77.2,231.5,76.6,231.5,75.5z"/>
</g>
<rect x="249.7" y="62.3" width="0.5" height="16.6"/>
<g>
	<path d="M247.4,76.9c1.6,0,2.7,0.7,2.7,2c0,1.9-2.3,3.4-4.5,3.4c-1.3,0-2.4-0.7-2.4-1.8C243.2,78.7,245.4,76.9,247.4,76.9z
		 M243.6,80.8c0,0.6,0.4,0.9,1.1,0.9c1.4,0,4.9-2.1,4.9-3.3c0-0.6-0.4-0.9-1.1-0.9C247.3,77.5,243.6,79.5,243.6,80.8z"/>
</g>
<rect x="298.3" y="52.5" width="0.5" height="21.4"/>
<g>
	<path d="M291.8,75.5c0-1.8,2.5-3.5,4.5-3.5c1.3,0,2.3,0.7,2.3,1.7c0,1.7-2.5,3.5-4.6,3.5C292.8,77.2,291.8,76.6,291.8,75.5z"/>
</g>
<rect x="309.7" y="51.1" width="0.5" height="17.8"/>
<g>
	<path d="M303.3,70.6c0-1.8,2.5-3.5,4.5-3.5c1.3,0,2.3,0.7,2.3,1.7c0,1.7-2.5,3.5-4.6,3.5C304.3,72.3,303.3,71.6,303.3,70.6z"/>
</g>
<rect x="321.4" y="49.6" width="0.5" height="14.4"/>
<g>
	<path d="M314.9,65.6c0-1.8,2.5-3.5,4.5-3.5c1.3,0,2.3,0.7,2.3,1.7c0,1.7-2.5,3.5-4.6,3.5C315.9,67.3,314.9,66.7,314.9,65.6z"/>
</g>
<rect x="335.6" y="47.5" width="0.5" height="14"/>
<g>
	<path d="M329.2,63.1c0-1.8,2.5-3.5,4.5-3.5c1.3,0,2.3,0.7,2.3,1.7c0,1.7-2.5,3.5-4.6,3.5C330.2,64.8,329.2,64.2,329.2,63.1z"/>
</g>
<g>
	<path d="M326.8,55.4v2.8l1-0.3v1.8l-1,0.3v3.4l1-0.3V65l-1,0.3v3.1h-0.5v-3l-1.9,0.6v3h-0.5v-2.8l-1,0.3v-1.8l1-0.3V61l-1,0.3v-1.8
		l1-0.3v-3.1h0.5v3l1.9-0.6v-3H326.8z M326.3,60.2l-1.9,0.6v3.4l1.9-0.6V60.2z"/>
</g>
<rect x="353.7" y="81.7" width="10.5" height="0.8"/>
<rect x="353.7" y="86.7" width="10.5" height="0.8"/>
<rect x="362" y="62.4" width="0.5" height="23.9"/>
<g>
	<path d="M355.5,87.9c0-1.8,2.5-3.5,4.5-3.5c1.3,0,2.3,0.7,2.3,1.7c0,1.7-2.5,3.5-4.6,3.5C356.5,89.6,355.5,89,355.5,87.9z"/>
</g>
<rect x="365.1" y="81.7" width="10.5" height="0.8"/>
<rect x="373.4" y="61" width="0.5" height="20.3"/>
<g>
	<path d="M367,83c0-1.8,2.5-3.5,4.5-3.5c1.3,0,2.3,0.7,2.3,1.7c0,1.7-2.5,3.5-4.6,3.5C368,84.7,367,84,367,83z"/>
</g>
<rect x="385.1" y="59.5" width="0.5" height="16.9"/>
<g>
	<path d="M378.6,78c0-1.8,2.5-3.5,4.5-3.5c1.3,0,2.3,0.7,2.3,1.7c0,1.7-2.5,3.5-4.6,3.5C379.6,79.7,378.6,79.1,378.6,78z"/>
</g>
<rect x="399.3" y="57.5" width="0.5" height="16.4"/>
<g>
	<path d="M392.9,75.5c0-1.8,2.5-3.5,4.5-3.5c1.3,0,2.3,0.7,2.3,1.7c0,1.7-2.5,3.5-4.6,3.5C393.9,77.2,392.9,76.6,392.9,75.5z"/>
</g>
<g>
	<path d="M390.5,67.8v2.8l1-0.3v1.8l-1,0.3v3.4l1-0.3v1.8l-1,0.3v3.1H390v-3l-1.9,0.6v3h-0.5v-2.8l-1,0.3v-1.8l1-0.3v-3.4l-1,0.3
		v-1.8l1-0.3v-3.1h0.5v3l1.9-0.6v-3H390.5z M390,72.6l-1.9,0.6v3.4l1.9-0.6V72.6z"/>
</g>
<rect x="410.8" y="52.5" width="0.5" height="16.4"/>
<g>
	<path d="M404.4,70.6c0-1.8,2.5-3.5,4.5-3.5c1.3,0,2.3,0.7,2.3,1.7c0,1.7-2.5,3.5-4.6,3.5C405.3,72.3,404.4,71.6,404.4,70.6z"/>
</g>
<rect x="422.4" y="54" width="0.5" height="19.8"/>
<g>
	<path d="M416,75.5c0-1.8,2.5-3.5,4.5-3.5c1.3,0,2.3,0.7,2.3,1.7c0,1.7-2.5,3.5-4.6,3.5C417,77.2,416,76.6,416,75.5z"/>
</g>
<rect x="433.9" y="55.8" width="0.5" height="20.6"/>
<g>
	<path d="M427.5,78c0-1.8,2.5-3.5,4.5-3.5c1.3,0,2.3,0.7,2.3,1.7c0,1.7-2.5,3.5-4.6,3.5C428.4,79.7,427.5,79.1,427.5,78z"/>
</g>
<rect x="437.2" y="81.7" width="10.5" height="0.8"/>
<rect x="445.5" y="57.5" width="0.5" height="23.9"/>
<g>
	<path d="M439.1,83c0-1.8,2.5-3.5,4.5-3.5c1.3,0,2.3,0.7,2.3,1.7c0,1.7-2.5,3.5-4.6,3.5C440.1,84.7,439.1,84,439.1,83z"/>
</g>
<rect x="465.4" y="58.1" width="0.5" height="20.2"/>
<g>
	<path d="M465.4,58.2c0-1.8,2.5-3.5,4.5-3.5c1.3,0,2.3,0.7,2.3,1.7c0,1.7-2.5,3.5-4.6,3.5C466.4,59.9,465.4,59.2,465.4,58.2z"/>
</g>
<rect x="476.8" y="63" width="0.5" height="16.7"/>
<g>
	<path d="M476.9,63.1c0-1.8,2.5-3.5,4.5-3.5c1.3,0,2.3,0.7,2.3,1.7c0,1.7-2.5,3.5-4.6,3.5C477.9,64.8,476.9,64.2,476.9,63.1z"/>
</g>
<rect x="488.5" y="65.5" width="0.5" height="16"/>
<g>
	<path d="M488.5,65.6c0-1.8,2.5-3.5,4.5-3.5c1.3,0,2.3,0.7,2.3,1.7c0,1.7-2.5,3.5-4.6,3.5C489.5,67.3,488.5,66.7,488.5,65.6z"/>
</g>
<rect x="499.9" y="70.5" width="0.5" height="12.7"/>
<g>
	<path d="M500,70.6c0-1.8,2.5-3.5,4.5-3.5c1.3,0,2.3,0.7,2.3,1.7c0,1.7-2.5,3.5-4.6,3.5C501,72.3,500,71.6,500,70.6z"/>
</g>
<rect x="518.2" y="57.3" width="0.5" height="16.6"/>
<g>
	<path d="M515.9,72c1.6,0,2.7,0.7,2.7,2c0,1.9-2.3,3.4-4.5,3.4c-1.3,0-2.4-0.7-2.4-1.8C511.6,73.8,513.9,72,515.9,72z M512.1,75.8
		c0,0.6,0.4,0.9,1.1,0.9c1.4,0,4.9-2.1,4.9-3.3c0-0.6-0.4-0.9-1.1-0.9C515.8,72.6,512.1,74.6,512.1,75.8z"/>
</g>
<rect x="46.3" y="147.4" width="10.5" height="0.8"/>
<rect x="54.6" y="123.2" width="0.5" height="23.9"/>
<g>
	<path d="M48.1,148.7c0-1.8,2.5-3.5,4.5-3.5c1.3,0,2.3,0.7,2.3,1.7c0,1.7-2.5,3.5-4.6,3.5C49.1,150.4,48.1,149.8,48.1,148.7z"/>
</g>
<rect x="65" y="121.8" width="0.5" height="20.3"/>
<g>
	<path d="M58.5,143.7c0-1.8,2.5-3.5,4.5-3.5c1.3,0,2.3,0.7,2.3,1.7c0,1.7-2.5,3.5-4.6,3.5C59.5,145.4,58.5,144.8,58.5,143.7z"/>
</g>
<rect x="79.2" y="119.8" width="0.5" height="19.8"/>
<g>
	<path d="M72.8,141.2c0-1.8,2.5-3.5,4.5-3.5c1.3,0,2.3,0.7,2.3,1.7c0,1.7-2.5,3.5-4.6,3.5C73.8,143,72.8,142.3,72.8,141.2z"/>
</g>
<g>
	<path d="M70.4,133.6v2.8l1-0.3v1.8l-1,0.3v3.4l1-0.3v1.8l-1,0.3v3.1h-0.5v-3l-1.9,0.6v3h-0.5v-2.8l-1,0.3v-1.8l1-0.3v-3.4l-1,0.3
		v-1.8l1-0.3v-3.1H68v3l1.9-0.6v-3H70.4z M69.9,138.3L68,139v3.4l1.9-0.6V138.3z"/>
</g>
<rect x="89.5" y="118.2" width="0.5" height="16.4"/>
<g>
	<path d="M83,136.3c0-1.8,2.5-3.5,4.5-3.5c1.3,0,2.3,0.7,2.3,1.7c0,1.7-2.5,3.5-4.6,3.5C84,138,83,137.4,83,136.3z"/>
</g>
<rect x="109.3" y="131.2" width="0.5" height="16.4"/>
<g>
	<path d="M109.4,131.3c0-1.8,2.5-3.5,4.5-3.5c1.3,0,2.3,0.7,2.3,1.7c0,1.7-2.5,3.5-4.6,3.5C110.3,133,109.4,132.4,109.4,131.3z"/>
</g>
<rect x="119.7" y="126.3" width="0.5" height="20"/>
<g>
	<path d="M119.8,126.4c0-1.8,2.5-3.5,4.5-3.5c1.3,0,2.3,0.7,2.3,1.7c0,1.7-2.5,3.5-4.6,3.5C120.7,128.1,119.8,127.5,119.8,126.4z"/>
</g>
<rect x="133.9" y="123.8" width="0.5" height="20.5"/>
<g>
	<path d="M134,123.9c0-1.8,2.5-3.5,4.5-3.5c1.3,0,2.3,0.7,2.3,1.7c0,1.7-2.5,3.5-4.6,3.5C135,125.6,134,125,134,123.9z"/>
</g>
<g>
	<path d="M131.6,116.2v2.8l1-0.3v1.8l-1,0.3v3.4l1-0.3v1.8l-1,0.3v3.1h-0.5v-3l-1.9,0.6v3h-0.5V127l-1,0.3v-1.8l1-0.3v-3.4l-1,0.3
		v-1.8l1-0.3v-3.1h0.5v3l1.9-0.6v-3H131.6z M131.1,121l-1.9,0.6v3.4l1.9-0.6V121z"/>
</g>
<rect x="142.5" y="117.7" width="10.5" height="0.8"/>
<rect x="144.3" y="118.8" width="0.5" height="23.9"/>
<g>
	<path d="M144.4,118.9c0-1.8,2.5-3.5,4.5-3.5c1.3,0,2.3,0.7,2.3,1.7c0,1.7-2.5,3.5-4.6,3.5C145.4,120.6,144.4,120,144.4,118.9z"/>
</g>
<rect x="154.3" y="117.7" width="10.5" height="0.8"/>
<rect x="154.3" y="112.7" width="10.5" height="0.8"/>
<rect x="156.1" y="113.9" width="0.5" height="23.9"/>
<g>
	<path d="M156.2,114c0-1.8,2.5-3.5,4.5-3.5c1.3,0,2.3,0.7,2.3,1.7c0,1.7-2.5,3.5-4.6,3.5C157.2,115.7,156.2,115.1,156.2,114z"/>
</g>
<rect x="166.1" y="117.7" width="10.5" height="0.8"/>
<rect x="167.9" y="118.8" width="0.5" height="20.6"/>
<g>
	<path d="M168,118.9c0-1.8,2.5-3.5,4.5-3.5c1.3,0,2.3,0.7,2.3,1.7c0,1.7-2.5,3.5-4.6,3.5C168.9,120.6,168,120,168,118.9z"/>
</g>
<rect x="178.1" y="123.8" width="0.5" height="17.2"/>
<g>
	<path d="M178.2,123.9c0-1.8,2.5-3.5,4.5-3.5c1.3,0,2.3,0.7,2.3,1.7c0,1.7-2.5,3.5-4.6,3.5C179.2,125.6,178.2,125,178.2,123.9z"/>
</g>
<rect x="188.5" y="126.3" width="0.5" height="16.4"/>
<g>
	<path d="M188.6,126.4c0-1.8,2.5-3.5,4.5-3.5c1.3,0,2.3,0.7,2.3,1.7c0,1.7-2.5,3.5-4.6,3.5C189.6,128.1,188.6,127.5,188.6,126.4z"/>
</g>
<rect x="221.4" y="117" width="0.5" height="12.7"/>
<g>
	<path d="M214.9,131.3c0-1.8,2.5-3.5,4.5-3.5c1.3,0,2.3,0.7,2.3,1.7c0,1.7-2.5,3.5-4.6,3.5C215.9,133,214.9,132.4,214.9,131.3z"/>
</g>
<rect x="231.6" y="118.5" width="0.5" height="16.1"/>
<g>
	<path d="M225.2,136.3c0-1.8,2.5-3.5,4.5-3.5c1.3,0,2.3,0.7,2.3,1.7c0,1.7-2.5,3.5-4.6,3.5C226.1,138,225.2,137.4,225.2,136.3z"/>
</g>
<rect x="242" y="120.2" width="0.5" height="19.4"/>
<g>
	<path d="M235.6,141.2c0-1.8,2.5-3.5,4.5-3.5c1.3,0,2.3,0.7,2.3,1.7c0,1.7-2.5,3.5-4.6,3.5C236.5,143,235.6,142.3,235.6,141.2z"/>
</g>
<rect x="252.4" y="121.9" width="0.5" height="20.2"/>
<g>
	<path d="M245.9,143.7c0-1.8,2.5-3.5,4.5-3.5c1.3,0,2.3,0.7,2.3,1.7c0,1.7-2.5,3.5-4.6,3.5C246.9,145.4,245.9,144.8,245.9,143.7z"/>
</g>
<rect x="254.3" y="147.4" width="10.7" height="0.8"/>
<rect x="262.8" y="130.5" width="0.5" height="16.6"/>
<g>
	<path d="M260.4,145.1c1.6,0,2.7,0.7,2.7,2c0,1.9-2.3,3.4-4.5,3.4c-1.3,0-2.4-0.7-2.4-1.8C256.2,146.9,258.4,145.1,260.4,145.1z
		 M256.6,149c0,0.6,0.4,0.9,1.1,0.9c1.4,0,4.9-2.1,4.9-3.3c0-0.6-0.4-0.9-1.1-0.9C260.3,145.7,256.6,147.8,256.6,149z"/>
</g>
<rect x="307.6" y="121.9" width="0.5" height="20.2"/>
<g>
	<path d="M301.1,143.7c0-1.8,2.5-3.5,4.5-3.5c1.3,0,2.3,0.7,2.3,1.7c0,1.7-2.5,3.5-4.6,3.5C302.1,145.4,301.1,144.8,301.1,143.7z"/>
</g>
<rect x="321.8" y="119.9" width="0.5" height="19.7"/>
<g>
	<path d="M315.4,141.2c0-1.8,2.5-3.5,4.5-3.5c1.3,0,2.3,0.7,2.3,1.7c0,1.7-2.5,3.5-4.6,3.5C316.4,143,315.4,142.3,315.4,141.2z"/>
</g>
<g>
	<path d="M313,133.6v2.8l1-0.3v1.8l-1,0.3v3.4l1-0.3v1.8l-1,0.3v3.1h-0.5v-3l-1.9,0.6v3h-0.5v-2.8l-1,0.3v-1.8l1-0.3v-3.4l-1,0.3
		v-1.8l1-0.3v-3.1h0.5v3l1.9-0.6v-3H313z M312.5,138.3l-1.9,0.6v3.4l1.9-0.6V138.3z"/>
</g>
<rect x="332.2" y="118.5" width="0.5" height="16.1"/>
<g>
	<path d="M325.8,136.3c0-1.8,2.5-3.5,4.5-3.5c1.3,0,2.3,0.7,2.3,1.7c0,1.7-2.5,3.5-4.6,3.5C326.7,138,325.8,137.4,325.8,136.3z"/>
</g>
<rect x="342.6" y="117" width="0.5" height="12.7"/>
<g>
	<path d="M336.2,131.3c0-1.8,2.5-3.5,4.5-3.5c1.3,0,2.3,0.7,2.3,1.7c0,1.7-2.5,3.5-4.6,3.5C337.1,133,336.2,132.4,336.2,131.3z"/>
</g>
<rect x="362.4" y="126.3" width="0.5" height="16.4"/>
<g>
	<path d="M362.5,126.4c0-1.8,2.5-3.5,4.5-3.5c1.3,0,2.3,0.7,2.3,1.7c0,1.7-2.5,3.5-4.6,3.5C363.5,128.1,362.5,127.5,362.5,126.4z"/>
</g>
<rect x="376.7" y="123.8" width="0.5" height="17.1"/>
<g>
	<path d="M376.8,123.9c0-1.8,2.5-3.5,4.5-3.5c1.3,0,2.3,0.7,2.3,1.7c0,1.7-2.5,3.5-4.6,3.5C377.7,125.6,376.8,125,376.8,123.9z"/>
</g>
<g>
	<path d="M374.3,116.2v2.8l1-0.3v1.8l-1,0.3v3.4l1-0.3v1.8l-1,0.3v3.1h-0.5v-3l-1.9,0.6v3h-0.5V127l-1,0.3v-1.8l1-0.3v-3.4l-1,0.3
		v-1.8l1-0.3v-3.1h0.5v3l1.9-0.6v-3H374.3z M373.9,121l-1.9,0.6v3.4l1.9-0.6V121z"/>
</g>
<rect x="385.1" y="117.7" width="10.5" height="0.8"/>
<rect x="386.9" y="118.8" width="0.5" height="20.6"/>
<g>
	<path d="M387,118.9c0-1.8,2.5-3.5,4.5-3.5c1.3,0,2.3,0.7,2.3,1.7c0,1.7-2.5,3.5-4.6,3.5C388,120.6,387,120,387,118.9z"/>
</g>
<rect x="396.9" y="117.7" width="10.5" height="0.8"/>
<rect x="396.9" y="112.7" width="10.5" height="0.8"/>
<rect x="398.7" y="113.9" width="0.5" height="23.9"/>
<g>
	<path d="M398.8,114c0-1.8,2.5-3.5,4.5-3.5c1.3,0,2.3,0.7,2.3,1.7c0,1.7-2.5,3.5-4.6,3.5C399.8,115.7,398.8,115.1,398.8,114z"/>
</g>
<rect x="408.7" y="117.7" width="10.5" height="0.8"/>
<rect x="408.7" y="112.7" width="10.5" height="0.8"/>
<rect x="408.7" y="107.8" width="10.5" height="0.8"/>
<rect x="410.5" y="108.9" width="0.5" height="23.9"/>
<g>
	<path d="M410.6,109c0-1.8,2.5-3.5,4.5-3.5c1.3,0,2.3,0.7,2.3,1.7c0,1.7-2.5,3.5-4.6,3.5C411.5,110.7,410.6,110.1,410.6,109z"/>
</g>
<rect x="420.5" y="117.7" width="10.5" height="0.8"/>
<rect x="420.5" y="112.7" width="10.5" height="0.8"/>
<rect x="422.3" y="113.9" width="0.5" height="20.6"/>
<g>
	<path d="M422.4,114c0-1.8,2.5-3.5,4.5-3.5c1.3,0,2.3,0.7,2.3,1.7c0,1.7-2.5,3.5-4.6,3.5C423.3,115.7,422.4,115.1,422.4,114z"/>
</g>
<rect x="432.3" y="117.7" width="10.5" height="0.8"/>
<rect x="434.1" y="118.8" width="0.5" height="17.4"/>
<g>
	<path d="M434.1,118.9c0-1.8,2.5-3.5,4.5-3.5c1.3,0,2.3,0.7,2.3,1.7c0,1.7-2.5,3.5-4.6,3.5C435.1,120.6,434.1,120,434.1,118.9z"/>
</g>
<rect x="444.4" y="123.8" width="0.5" height="14"/>
<g>
	<path d="M444.5,123.9c0-1.8,2.5-3.5,4.5-3.5c1.3,0,2.3,0.7,2.3,1.7c0,1.7-2.5,3.5-4.6,3.5C445.5,125.6,444.5,125,444.5,123.9z"/>
</g>
<rect x="470.8" y="126.3" width="0.5" height="22.6"/>
<g>
	<path d="M470.9,126.4c0-1.8,2.5-3.5,4.5-3.5c1.3,0,2.3,0.7,2.3,1.7c0,1.7-2.5,3.5-4.6,3.5C471.8,128.1,470.9,127.5,470.9,126.4z"/>
</g>
<rect x="482.6" y="131.2" width="0.5" height="19.4"/>
<g>
	<path d="M482.7,131.3c0-1.8,2.5-3.5,4.5-3.5c1.3,0,2.3,0.7,2.3,1.7c0,1.7-2.5,3.5-4.6,3.5C483.6,133,482.7,132.4,482.7,131.3z"/>
</g>
<rect x="493" y="136.2" width="0.5" height="16"/>
<g>
	<path d="M493,136.3c0-1.8,2.5-3.5,4.5-3.5c1.3,0,2.3,0.7,2.3,1.7c0,1.7-2.5,3.5-4.6,3.5C494,138,493,137.4,493,136.3z"/>
</g>
<rect x="503.2" y="141.2" width="0.5" height="12.7"/>
<g>
	<path d="M503.3,141.2c0-1.8,2.5-3.5,4.5-3.5c1.3,0,2.3,0.7,2.3,1.7c0,1.7-2.5,3.5-4.6,3.5C504.2,143,503.3,142.3,503.3,141.2z"/>
</g>
<rect x="520.2" y="125.5" width="0.5" height="16.6"/>
<g>
	<path d="M517.9,140.2c1.6,0,2.7,0.7,2.7,2c0,1.9-2.3,3.4-4.5,3.4c-1.3,0-2.4-0.7-2.4-1.8C513.7,142,515.9,140.2,517.9,140.2z
		 M514.1,144c0,0.6,0.4,0.9,1.1,0.9c1.4,0,4.9-2.1,4.9-3.3c0-0.6-0.4-0.9-1.1-0.9C517.8,140.8,514.1,142.8,514.1,144z"/>
</g>
<rect x="48.1" y="183.3" width="0.5" height="12.7"/>
<g>
	<path d="M48.1,183.4c0-1.8,2.5-3.5,4.5-3.5c1.3,0,2.3,0.7,2.3,1.7c0,1.7-2.5,3.5-4.6,3.5C49.1,185.1,48.1,184.5,48.1,183.4z"/>
</g>
<rect x="58.5" y="178.4" width="0.5" height="16.3"/>
<g>
	<path d="M58.5,178.4c0-1.8,2.5-3.5,4.5-3.5c1.3,0,2.3,0.7,2.3,1.7c0,1.7-2.5,3.5-4.6,3.5C59.5,180.2,58.5,179.5,58.5,178.4z"/>
</g>
<rect x="72.7" y="175.9" width="0.5" height="16.7"/>
<g>
	<path d="M72.8,176c0-1.8,2.5-3.5,4.5-3.5c1.3,0,2.3,0.7,2.3,1.7c0,1.7-2.5,3.5-4.6,3.5C73.8,177.7,72.8,177.1,72.8,176z"/>
</g>
<g>
	<path d="M70.4,168.3v2.8l1-0.3v1.8l-1,0.3v3.4l1-0.3v1.8l-1,0.3v3.1h-0.5v-3l-1.9,0.6v3h-0.5v-2.8l-1,0.3v-1.8l1-0.3v-3.4l-1,0.3
		v-1.8l1-0.3v-3.1H68v3l1.9-0.6v-3H70.4z M69.9,173.1l-1.9,0.6v3.4l1.9-0.6V173.1z"/>
</g>
<rect x="82.9" y="170.9" width="0.5" height="20.2"/>
<g>
	<path d="M83,171c0-1.8,2.5-3.5,4.5-3.5c1.3,0,2.3,0.7,2.3,1.7c0,1.7-2.5,3.5-4.6,3.5C84,172.7,83,172.1,83,171z"/>
</g>
<rect x="107.5" y="194.6" width="10.5" height="0.8"/>
<rect x="115.8" y="170.3" width="0.5" height="23.9"/>
<g>
	<path d="M109.4,195.8c0-1.8,2.5-3.5,4.5-3.5c1.3,0,2.3,0.7,2.3,1.7c0,1.7-2.5,3.5-4.6,3.5C110.3,197.5,109.4,196.9,109.4,195.8z"/>
</g>
<rect x="126.2" y="168.9" width="0.5" height="20.3"/>
<g>
	<path d="M119.8,190.8c0-1.8,2.5-3.5,4.5-3.5c1.3,0,2.3,0.7,2.3,1.7c0,1.7-2.5,3.5-4.6,3.5C120.7,192.6,119.8,191.9,119.8,190.8z"/>
</g>
<rect x="140.5" y="166.9" width="0.5" height="19.8"/>
<g>
	<path d="M134,188.4c0-1.8,2.5-3.5,4.5-3.5c1.3,0,2.3,0.7,2.3,1.7c0,1.7-2.5,3.5-4.6,3.5C135,190.1,134,189.5,134,188.4z"/>
</g>
<g>
	<path d="M131.6,180.7v2.8l1-0.3v1.8l-1,0.3v3.4l1-0.3v1.8l-1,0.3v3.1h-0.5v-3l-1.9,0.6v3h-0.5v-2.8l-1,0.3V190l1-0.3v-3.4l-1,0.3
		v-1.8l1-0.3v-3.1h0.5v3l1.9-0.6v-3H131.6z M131.1,185.5l-1.9,0.6v3.4l1.9-0.6V185.5z"/>
</g>
<rect x="150.8" y="165.3" width="0.5" height="16.4"/>
<g>
	<path d="M144.4,183.4c0-1.8,2.5-3.5,4.5-3.5c1.3,0,2.3,0.7,2.3,1.7c0,1.7-2.5,3.5-4.6,3.5C145.4,185.1,144.4,184.5,144.4,183.4z"/>
</g>
<rect x="162.6" y="164.1" width="0.5" height="12.7"/>
<g>
	<path d="M156.2,178.4c0-1.8,2.5-3.5,4.5-3.5c1.3,0,2.3,0.7,2.3,1.7c0,1.7-2.5,3.5-4.6,3.5C157.2,180.2,156.2,179.5,156.2,178.4z"/>
</g>
<rect x="174.4" y="165.8" width="0.5" height="16"/>
<g>
	<path d="M168,183.4c0-1.8,2.5-3.5,4.5-3.5c1.3,0,2.3,0.7,2.3,1.7c0,1.7-2.5,3.5-4.6,3.5C168.9,185.1,168,184.5,168,183.4z"/>
</g>
<rect x="184.6" y="167.4" width="0.5" height="19.4"/>
<g>
	<path d="M178.2,188.4c0-1.8,2.5-3.5,4.5-3.5c1.3,0,2.3,0.7,2.3,1.7c0,1.7-2.5,3.5-4.6,3.5C179.2,190.1,178.2,189.5,178.2,188.4z"/>
</g>
<rect x="195" y="169.1" width="0.5" height="20.2"/>
<g>
	<path d="M188.6,190.8c0-1.8,2.5-3.5,4.5-3.5c1.3,0,2.3,0.7,2.3,1.7c0,1.7-2.5,3.5-4.6,3.5C189.6,192.6,188.6,191.9,188.6,190.8z"/>
</g>
<rect x="213.1" y="164.8" width="10.5" height="0.8"/>
<rect x="214.9" y="166" width="0.5" height="23.9"/>
<g>
	<path d="M214.9,166c0-1.8,2.5-3.5,4.5-3.5c1.3,0,2.3,0.7,2.3,1.7c0,1.7-2.5,3.5-4.6,3.5C215.9,167.8,214.9,167.1,214.9,166z"/>
</g>
<rect x="225.1" y="170.9" width="0.5" height="20.5"/>
<g>
	<path d="M225.2,171c0-1.8,2.5-3.5,4.5-3.5c1.3,0,2.3,0.7,2.3,1.7c0,1.7-2.5,3.5-4.6,3.5C226.1,172.7,225.2,172.1,225.2,171z"/>
</g>
<rect x="235.5" y="175.9" width="0.5" height="17.2"/>
<g>
	<path d="M235.6,176c0-1.8,2.5-3.5,4.5-3.5c1.3,0,2.3,0.7,2.3,1.7c0,1.7-2.5,3.5-4.6,3.5C236.5,177.7,235.6,177.1,235.6,176z"/>
</g>
<rect x="245.9" y="178.4" width="0.5" height="16.4"/>
<g>
	<path d="M245.9,178.4c0-1.8,2.5-3.5,4.5-3.5c1.3,0,2.3,0.7,2.3,1.7c0,1.7-2.5,3.5-4.6,3.5C246.9,180.2,245.9,179.5,245.9,178.4z"/>
</g>
<rect x="262.8" y="165.2" width="0.5" height="16.6"/>
<g>
	<path d="M260.4,179.9c1.6,0,2.7,0.7,2.7,2c0,1.9-2.3,3.4-4.5,3.4c-1.3,0-2.4-0.7-2.4-1.8C256.2,181.6,258.4,179.9,260.4,179.9z
		 M256.6,183.7c0,0.6,0.4,0.9,1.1,0.9c1.4,0,4.9-2.1,4.9-3.3c0-0.6-0.4-0.9-1.1-0.9C260.3,180.4,256.6,182.5,256.6,183.7z"/>
</g>
<rect x="301.1" y="178.4" width="0.5" height="16.4"/>
<g>
	<path d="M301.1,178.4c0-1.8,2.5-3.5,4.5-3.5c1.3,0,2.3,0.7,2.3,1.7c0,1.7-2.5,3.5-4.6,3.5C302.1,180.2,301.1,179.5,301.1,178.4z"/>
</g>
<rect x="315.3" y="175.9" width="0.5" height="16.9"/>
<g>
	<path d="M315.4,176c0-1.8,2.5-3.5,4.5-3.5c1.3,0,2.3,0.7,2.3,1.7c0,1.7-2.5,3.5-4.6,3.5C316.4,177.7,315.4,177.1,315.4,176z"/>
</g>
<g>
	<path d="M313,168.3v2.8l1-0.3v1.8l-1,0.3v3.4l1-0.3v1.8l-1,0.3v3.1h-0.5v-3l-1.9,0.6v3h-0.5v-2.8l-1,0.3v-1.8l1-0.3v-3.4l-1,0.3
		v-1.8l1-0.3v-3.1h0.5v3l1.9-0.6v-3H313z M312.5,173.1l-1.9,0.6v3.4l1.9-0.6V173.1z"/>
</g>
<rect x="325.7" y="170.9" width="0.5" height="20.5"/>
<g>
	<path d="M325.8,171c0-1.8,2.5-3.5,4.5-3.5c1.3,0,2.3,0.7,2.3,1.7c0,1.7-2.5,3.5-4.6,3.5C326.7,172.7,325.8,172.1,325.8,171z"/>
</g>
<rect x="334.3" y="164.8" width="10.5" height="0.8"/>
<rect x="336.1" y="166" width="0.5" height="23.9"/>
<g>
	<path d="M336.2,166c0-1.8,2.5-3.5,4.5-3.5c1.3,0,2.3,0.7,2.3,1.7c0,1.7-2.5,3.5-4.6,3.5C337.1,167.8,336.2,167.1,336.2,166z"/>
</g>
<rect x="368.9" y="169.1" width="0.5" height="20.2"/>
<g>
	<path d="M362.5,190.8c0-1.8,2.5-3.5,4.5-3.5c1.3,0,2.3,0.7,2.3,1.7c0,1.7-2.5,3.5-4.6,3.5C363.5,192.6,362.5,191.9,362.5,190.8z"/>
</g>
<rect x="383.2" y="167.2" width="0.5" height="19.5"/>
<g>
	<path d="M376.8,188.4c0-1.8,2.5-3.5,4.5-3.5c1.3,0,2.3,0.7,2.3,1.7c0,1.7-2.5,3.5-4.6,3.5C377.7,190.1,376.8,189.5,376.8,188.4z"/>
</g>
<g>
	<path d="M374.3,180.7v2.8l1-0.3v1.8l-1,0.3v3.4l1-0.3v1.8l-1,0.3v3.1h-0.5v-3l-1.9,0.6v3h-0.5v-2.8l-1,0.3V190l1-0.3v-3.4l-1,0.3
		v-1.8l1-0.3v-3.1h0.5v3l1.9-0.6v-3H374.3z M373.9,185.5l-1.9,0.6v3.4l1.9-0.6V185.5z"/>
</g>
<rect x="393.4" y="165.8" width="0.5" height="16"/>
<g>
	<path d="M387,183.4c0-1.8,2.5-3.5,4.5-3.5c1.3,0,2.3,0.7,2.3,1.7c0,1.7-2.5,3.5-4.6,3.5C388,185.1,387,184.5,387,183.4z"/>
</g>
<rect x="405.2" y="164.1" width="0.5" height="12.7"/>
<g>
	<path d="M398.8,178.4c0-1.8,2.5-3.5,4.5-3.5c1.3,0,2.3,0.7,2.3,1.7c0,1.7-2.5,3.5-4.6,3.5C399.8,180.2,398.8,179.5,398.8,178.4z"/>
</g>
<rect x="410.5" y="173.4" width="0.5" height="22.6"/>
<g>
	<path d="M410.6,173.5c0-1.8,2.5-3.5,4.5-3.5c1.3,0,2.3,0.7,2.3,1.7c0,1.7-2.5,3.5-4.6,3.5C411.5,175.2,410.6,174.6,410.6,173.5z"/>
</g>
<rect x="422.3" y="178.4" width="0.5" height="19.4"/>
<g>
	<path d="M422.4,178.4c0-1.8,2.5-3.5,4.5-3.5c1.3,0,2.3,0.7,2.3,1.7c0,1.7-2.5,3.5-4.6,3.5C423.3,180.2,422.4,179.5,422.4,178.4z"/>
</g>
<rect x="434.1" y="183.3" width="0.5" height="16.1"/>
<g>
	<path d="M434.1,183.4c0-1.8,2.5-3.5,4.5-3.5c1.3,0,2.3,0.7,2.3,1.7c0,1.7-2.5,3.5-4.6,3.5C435.1,185.1,434.1,184.5,434.1,183.4z"/>
</g>
<rect x="444.4" y="188.3" width="0.5" height="12.7"/>
<g>
	<path d="M444.5,188.4c0-1.8,2.5-3.5,4.5-3.5c1.3,0,2.3,0.7,2.3,1.7c0,1.7-2.5,3.5-4.6,3.5C445.5,190.1,444.5,189.5,444.5,188.4z"/>
</g>
<rect x="469" y="164.8" width="10.5" height="0.8"/>
<rect x="469" y="159.8" width="10.5" height="0.8"/>
<rect x="470.8" y="161" width="0.5" height="23.9"/>
<g>
	<path d="M470.9,161.1c0-1.8,2.5-3.5,4.5-3.5c1.3,0,2.3,0.7,2.3,1.7c0,1.7-2.5,3.5-4.6,3.5C471.8,162.8,470.9,162.2,470.9,161.1z"/>
</g>
<rect x="480.8" y="164.8" width="10.5" height="0.8"/>
<rect x="482.6" y="166" width="0.5" height="20.6"/>
<g>
	<path d="M482.7,166c0-1.8,2.5-3.5,4.5-3.5c1.3,0,2.3,0.7,2.3,1.7c0,1.7-2.5,3.5-4.6,3.5C483.6,167.8,482.7,167.1,482.7,166z"/>
</g>
<rect x="493" y="170.9" width="0.5" height="17.2"/>
<g>
	<path d="M493,171c0-1.8,2.5-3.5,4.5-3.5c1.3,0,2.3,0.7,2.3,1.7c0,1.7-2.5,3.5-4.6,3.5C494,172.7,493,172.1,493,171z"/>
</g>
<rect x="503.2" y="175.9" width="0.5" height="14"/>
<g>
	<path d="M503.3,176c0-1.8,2.5-3.5,4.5-3.5c1.3,0,2.3,0.7,2.3,1.7c0,1.7-2.5,3.5-4.6,3.5C504.2,177.7,503.3,177.1,503.3,176z"/>
</g>
<rect x="513.6" y="178.4" width="0.5" height="16.6"/>
<g>
	<path d="M517.9,174.9c1.6,0,2.7,0.7,2.7,2c0,1.9-2.3,3.4-4.5,3.4c-1.3,0-2.4-0.7-2.4-1.8C513.7,176.7,515.9,174.9,517.9,174.9z
		 M514.1,178.7c0,0.6,0.4,0.9,1.1,0.9c1.4,0,4.9-2.1,4.9-3.3c0-0.6-0.4-0.9-1.1-0.9C517.8,175.5,514.1,177.5,514.1,178.7z"/>
</g>
</svg>
